<?xml version="1.0" encoding="UTF-8"?>
<svg id="Ebene_1" data-name="Ebene 1" xmlns="http://www.w3.org/2000/svg" width="2057.86" height="1485.67" viewBox="0 0 2057.86 1485.67">
  <path d="m199.24,747.69h78v277.51h-78v-277.51h0Z" fill="#307eef"/>
  <path d="m277.24,639.69h77.01v108h-77.01v-108Z" fill="#307eef"/>
  <path d="m354.25,580.68h77v59.01h-77v-59.01Z" fill="#307eef"/>
  <path d="m431.25,539.68h77v41h-77v-41Z" fill="#307eef"/>
  <path d="m508.25,505.68h77v34h-77v-34Z" fill="#307eef"/>
  <path d="m585.25,476.68h78.01v29h-78.01v-29Z" fill="#307eef"/>
  <path d="m663.26,448.68h77v28h-77v-28Z" fill="#307eef"/>
  <path d="m740.26,424.68h77v24h-77v-24Z" fill="#307eef"/>
  <path d="m817.26,402.68h77v22h-77v-22Z" fill="#307eef"/>
  <path d="m894.26,380.68h77.01v22h-77.01v-22Z" fill="#307eef"/>
  <path d="m971.27,359.68h78v20.94h-78v-20.94Z" fill="#307eef"/>
  <path d="m1049.27,339.68h77v20h-77v-20Z" fill="#307eef"/>
  <path d="m1126.27,319.68h77v20h-77v-20Z" fill="#307eef"/>
  <path d="m1203.27,299.67h77.01v19.94h-77.01v-19.94Z" fill="#307eef"/>
  <path d="m1280.28,278.67h77v20.98h-77v-20.98Z" fill="#307eef"/>
  <path d="m1357.28,258.67h78v20h-78v-20Z" fill="#307eef"/>
  <path d="m1435.28,236.67h77v22h-77v-22h0Z" fill="#307eef"/>
  <path d="m1512.28,213.67h77.01v22.94h-77.01v-22.94Z" fill="#307eef"/>
  <path d="m1589.29,188.67h77v25h-77v-25Z" fill="#307eef"/>
  <path d="m1666.29,162.67h78v26h-78v-26Z" fill="#307eef"/>
  <path d="m1744.29,138.67h77v24.04h-77v-24.04h0Z" fill="#307eef"/>
  <path d="m1821.29,110.67h77.01v28h-77.01v-28Z" fill="#307eef"/>
  <path d="m1898.3,78.67h77v31.71h-77v-31.71Z" fill="#307eef"/>
  <path d="m1975.3,44.67h77v34h-77v-34Z" fill="#307eef"/>
  <path d="m140.816,1342.65h-4.359v-28.898l-8.742,3.211v-3.938l12.422-4.664h.68v34.289h-.001Z" fill="#c9d1d9"/>
  <g>
    <path d="m119.916,1035.65h-4.359v-28.898l-8.742,3.211v-3.938l12.422-4.664h.68v34.289h0Z" fill="#c9d1d9"/>
    <path d="m154.018,1021.096c0,5.078-.867,8.852-2.602,11.32s-4.445,3.703-8.133,3.703c-3.641,0-6.336-1.207-8.086-3.621s-2.656-6.02-2.719-10.816v-5.789c0-5.016.867-8.742,2.602-11.18s4.453-3.656,8.156-3.656c3.672,0,6.375,1.176,8.109,3.527s2.625,5.98,2.672,10.887v5.625h0Zm-4.336-5.93c0-3.672-.516-6.348-1.547-8.027s-2.664-2.52-4.898-2.52c-2.219,0-3.836.836-4.852,2.508s-1.539,4.242-1.57,7.711v6.938c0,3.688.535,6.41,1.605,8.168s2.691,2.637,4.863,2.637c2.141,0,3.73-.828,4.77-2.484s1.582-4.266,1.629-7.828v-7.102h0Z" fill="#c9d1d9"/>
  </g>
  <g>
    <path d="m99.016,727.65h-4.359v-28.898l-8.742,3.211v-3.938l12.422-4.664h.68v34.289h0Z" fill="#c9d1d9"/>
    <path d="m133.118,713.095c0,5.078-.867,8.852-2.602,11.32s-4.445,3.703-8.133,3.703c-3.641,0-6.336-1.207-8.086-3.621s-2.656-6.02-2.719-10.816v-5.789c0-5.016.867-8.742,2.602-11.18s4.453-3.656,8.156-3.656c3.672,0,6.375,1.176,8.109,3.527s2.625,5.98,2.672,10.887v5.625h.001Zm-4.336-5.93c0-3.672-.516-6.348-1.547-8.027s-2.664-2.52-4.898-2.52c-2.219,0-3.836.836-4.852,2.508s-1.539,4.242-1.57,7.711v6.938c0,3.688.535,6.41,1.605,8.168s2.691,2.637,4.863,2.637c2.141,0,3.73-.828,4.77-2.484s1.582-4.266,1.629-7.828v-7.102h0Z" fill="#c9d1d9"/>
    <path d="m160.071,713.095c0,5.078-.867,8.852-2.602,11.32s-4.445,3.703-8.133,3.703c-3.641,0-6.336-1.207-8.086-3.621s-2.656-6.02-2.719-10.816v-5.789c0-5.016.867-8.742,2.602-11.18s4.453-3.656,8.156-3.656c3.672,0,6.375,1.176,8.109,3.527s2.625,5.98,2.672,10.887v5.625h0Zm-4.336-5.93c0-3.672-.516-6.348-1.547-8.027s-2.664-2.52-4.898-2.52c-2.219,0-3.836.836-4.852,2.508s-1.539,4.242-1.57,7.711v6.938c0,3.688.535,6.41,1.605,8.168s2.691,2.637,4.863,2.637c2.141,0,3.73-.828,4.77-2.484s1.582-4.266,1.629-7.828v-7.102h0Z" fill="#c9d1d9"/>
  </g>
  <g>
    <path d="m78.116,420.65h-4.359v-28.898l-8.742,3.211v-3.938l12.422-4.664h.68v34.289h0Z" fill="#c9d1d9"/>
    <path d="m112.217,406.095c0,5.078-.867,8.852-2.602,11.32s-4.445,3.703-8.133,3.703c-3.641,0-6.336-1.207-8.086-3.621s-2.656-6.02-2.719-10.816v-5.789c0-5.016.867-8.742,2.602-11.18s4.453-3.656,8.156-3.656c3.672,0,6.375,1.176,8.109,3.527s2.625,5.98,2.672,10.887v5.625h.001Zm-4.336-5.93c0-3.672-.516-6.348-1.547-8.027s-2.664-2.52-4.898-2.52c-2.219,0-3.836.836-4.852,2.508s-1.539,4.242-1.57,7.711v6.938c0,3.688.535,6.41,1.605,8.168s2.691,2.637,4.863,2.637c2.141,0,3.73-.828,4.77-2.484s1.582-4.266,1.629-7.828v-7.102h0Z" fill="#c9d1d9"/>
    <path d="m139.17,406.095c0,5.078-.867,8.852-2.602,11.32s-4.445,3.703-8.133,3.703c-3.641,0-6.336-1.207-8.086-3.621s-2.656-6.02-2.719-10.816v-5.789c0-5.016.867-8.742,2.602-11.18s4.453-3.656,8.156-3.656c3.672,0,6.375,1.176,8.109,3.527s2.625,5.98,2.672,10.887v5.625h.001Zm-4.336-5.93c0-3.672-.516-6.348-1.547-8.027s-2.664-2.52-4.898-2.52c-2.219,0-3.836.836-4.852,2.508s-1.539,4.242-1.57,7.711v6.938c0,3.688.535,6.41,1.605,8.168s2.691,2.637,4.863,2.637c2.141,0,3.73-.828,4.77-2.484s1.582-4.266,1.629-7.828v-7.102h0Z" fill="#c9d1d9"/>
    <path d="m166.124,406.095c0,5.078-.867,8.852-2.602,11.32s-4.445,3.703-8.133,3.703c-3.641,0-6.336-1.207-8.086-3.621s-2.656-6.02-2.719-10.816v-5.789c0-5.016.867-8.742,2.602-11.18s4.453-3.656,8.156-3.656c3.672,0,6.375,1.176,8.109,3.527s2.625,5.98,2.672,10.887v5.625h0Zm-4.336-5.93c0-3.672-.516-6.348-1.547-8.027s-2.664-2.52-4.898-2.52c-2.219,0-3.836.836-4.852,2.508s-1.539,4.242-1.57,7.711v6.938c0,3.688.535,6.41,1.605,8.168s2.691,2.637,4.863,2.637c2.141,0,3.73-.828,4.77-2.484s1.582-4.266,1.629-7.828v-7.102h0Z" fill="#c9d1d9"/>
  </g>
  <g>
    <path d="m57.216,113.65h-4.359v-28.898l-8.742,3.211v-3.938l12.422-4.664h.68v34.289h0Z" fill="#c9d1d9"/>
    <path d="m91.317,99.095c0,5.078-.867,8.852-2.602,11.32s-4.445,3.703-8.133,3.703c-3.641,0-6.336-1.207-8.086-3.621s-2.656-6.02-2.719-10.816v-5.789c0-5.016.867-8.742,2.602-11.18s4.453-3.656,8.156-3.656c3.672,0,6.375,1.176,8.109,3.527s2.625,5.98,2.672,10.887v5.625h.001Zm-4.336-5.93c0-3.672-.516-6.348-1.547-8.027s-2.664-2.52-4.898-2.52c-2.219,0-3.836.836-4.852,2.508s-1.539,4.242-1.57,7.711v6.938c0,3.688.535,6.41,1.605,8.168s2.691,2.637,4.863,2.637c2.141,0,3.73-.828,4.77-2.484s1.582-4.266,1.629-7.828v-7.102h0Z" fill="#c9d1d9"/>
    <path d="m118.271,99.095c0,5.078-.867,8.852-2.602,11.32s-4.445,3.703-8.133,3.703c-3.641,0-6.336-1.207-8.086-3.621s-2.656-6.02-2.719-10.816v-5.789c0-5.016.867-8.742,2.602-11.18s4.453-3.656,8.156-3.656c3.672,0,6.375,1.176,8.109,3.527s2.625,5.98,2.672,10.887v5.625h.001Zm-4.336-5.93c0-3.672-.516-6.348-1.547-8.027s-2.664-2.52-4.898-2.52c-2.219,0-3.836.836-4.852,2.508s-1.539,4.242-1.57,7.711v6.938c0,3.688.535,6.41,1.605,8.168s2.691,2.637,4.863,2.637c2.141,0,3.73-.828,4.77-2.484s1.582-4.266,1.629-7.828v-7.102h0Z" fill="#c9d1d9"/>
    <path d="m145.224,99.095c0,5.078-.867,8.852-2.602,11.32s-4.445,3.703-8.133,3.703c-3.641,0-6.336-1.207-8.086-3.621s-2.656-6.02-2.719-10.816v-5.789c0-5.016.867-8.742,2.602-11.18s4.453-3.656,8.156-3.656c3.672,0,6.375,1.176,8.109,3.527s2.625,5.98,2.672,10.887v5.625h.001Zm-4.336-5.93c0-3.672-.516-6.348-1.547-8.027s-2.664-2.52-4.898-2.52c-2.219,0-3.836.836-4.852,2.508s-1.539,4.242-1.57,7.711v6.938c0,3.688.535,6.41,1.605,8.168s2.691,2.637,4.863,2.637c2.141,0,3.73-.828,4.77-2.484s1.582-4.266,1.629-7.828v-7.102h0Z" fill="#c9d1d9"/>
    <path d="m172.177,99.095c0,5.078-.867,8.852-2.602,11.32s-4.445,3.703-8.133,3.703c-3.641,0-6.336-1.207-8.086-3.621s-2.656-6.02-2.719-10.816v-5.789c0-5.016.867-8.742,2.602-11.18s4.453-3.656,8.156-3.656c3.672,0,6.375,1.176,8.109,3.527s2.625,5.98,2.672,10.887v5.625h0Zm-4.336-5.93c0-3.672-.516-6.348-1.547-8.027s-2.664-2.52-4.898-2.52c-2.219,0-3.836.836-4.852,2.508s-1.539,4.242-1.57,7.711v6.938c0,3.688.535,6.41,1.605,8.168s2.691,2.637,4.863,2.637c2.141,0,3.73-.828,4.77-2.484s1.582-4.266,1.629-7.828v-7.102h0Z" fill="#c9d1d9"/>
  </g>
  <path d="m241.856,1394.75h-4.359v-28.898l-8.742,3.211v-3.938l12.422-4.664h.68v34.289h0Z" fill="#c9d1d9"/>
  <path d="m327.465,1394.75h-22.359v-3.117l11.812-13.125c1.75-1.984,2.957-3.598,3.621-4.84s.996-2.527.996-3.855c0-1.781-.539-3.242-1.617-4.383s-2.516-1.711-4.312-1.711c-2.156,0-3.832.613-5.027,1.84s-1.793,2.934-1.793,5.121h-4.336c0-3.141,1.012-5.68,3.035-7.617s4.73-2.906,8.121-2.906c3.172,0,5.68.832,7.523,2.496s2.766,3.879,2.766,6.645c0,3.359-2.141,7.359-6.422,12l-9.141,9.914h17.133v3.539h0Z" fill="#c9d1d9"/>
  <path d="m388.42,1375.578h3.258c2.047-.031,3.656-.57,4.828-1.617s1.758-2.461,1.758-4.242c0-4-1.992-6-5.977-6-1.875,0-3.371.535-4.488,1.605s-1.676,2.488-1.676,4.254h-4.336c0-2.703.988-4.949,2.965-6.738s4.488-2.684,7.535-2.684c3.219,0,5.742.852,7.57,2.555s2.742,4.07,2.742,7.102c0,1.484-.48,2.922-1.441,4.312s-2.27,2.43-3.926,3.117c1.875.594,3.324,1.578,4.348,2.953s1.535,3.055,1.535,5.039c0,3.062-1,5.492-3,7.289s-4.602,2.695-7.805,2.695-5.809-.867-7.816-2.602-3.012-4.023-3.012-6.867h4.359c0,1.797.586,3.234,1.758,4.312s2.742,1.617,4.711,1.617c2.094,0,3.695-.547,4.805-1.641s1.664-2.664,1.664-4.711c0-1.984-.609-3.508-1.828-4.57s-2.977-1.609-5.273-1.641h-3.258v-3.539.002Z" fill="#c9d1d9"/>
  <path d="m477.42,1383.289h4.734v3.539h-4.734v7.922h-4.359v-7.922h-15.539v-2.555l15.281-23.648h4.617v22.664h0Zm-14.977,0h10.617v-16.734l-.516.938-10.102,15.797h0Z" fill="#c9d1d9"/>
  <path d="m538.108,1377.641l1.734-17.016h17.484v4.008h-13.805l-1.031,9.305c1.672-.984,3.57-1.477,5.695-1.477,3.109,0,5.578,1.027,7.406,3.082s2.742,4.832,2.742,8.332-.949,6.285-2.848,8.309-4.551,3.035-7.957,3.035c-3.016,0-5.477-.836-7.383-2.508s-2.992-3.984-3.258-6.938h4.102c.266,1.953.961,3.426,2.086,4.418s2.609,1.488,4.453,1.488c2.016,0,3.598-.688,4.746-2.062s1.723-3.273,1.723-5.695c0-2.281-.621-4.113-1.863-5.496s-2.895-2.074-4.957-2.074c-1.891,0-3.375.414-4.453,1.242l-1.148.938-3.469-.891h0Z" fill="#c9d1d9"/>
  <path d="m630.632,1360.602v3.68h-.797c-3.375.062-6.062,1.062-8.062,3s-3.156,4.664-3.469,8.18c1.797-2.062,4.25-3.094,7.359-3.094,2.969,0,5.34,1.047,7.113,3.141s2.66,4.797,2.66,8.109c0,3.516-.957,6.328-2.871,8.438s-4.48,3.164-7.699,3.164c-3.266,0-5.914-1.254-7.945-3.762s-3.047-5.738-3.047-9.691v-1.664c0-6.281,1.34-11.082,4.02-14.402s6.668-5.02,11.965-5.098h.773,0Zm-5.695,15.375c-1.484,0-2.852.445-4.102,1.336s-2.117,2.008-2.602,3.352v1.594c0,2.812.633,5.078,1.898,6.797s2.844,2.578,4.734,2.578c1.953,0,3.488-.719,4.605-2.156s1.676-3.32,1.676-5.648c0-2.344-.566-4.238-1.699-5.684s-2.637-2.168-4.512-2.168h.002Z" fill="#c9d1d9"/>
  <path d="m713.157,1363.062l-14.133,31.688h-4.547l14.086-30.562h-18.469v-3.562h23.062v2.438-.002Z" fill="#c9d1d9"/>
  <path d="m788.821,1369.531c0,1.703-.449,3.219-1.348,4.547s-2.113,2.367-3.645,3.117c1.781.766,3.191,1.883,4.23,3.352s1.559,3.133,1.559,4.992c0,2.953-.996,5.305-2.988,7.055s-4.613,2.625-7.863,2.625c-3.281,0-5.91-.879-7.887-2.637s-2.965-4.105-2.965-7.043c0-1.844.504-3.508,1.512-4.992s2.402-2.609,4.184-3.375c-1.516-.75-2.711-1.789-3.586-3.117s-1.312-2.836-1.312-4.523c0-2.875.922-5.156,2.766-6.844s4.273-2.531,7.289-2.531c3,0,5.426.844,7.277,2.531s2.777,3.969,2.777,6.844h0Zm-3.539,15.914c0-1.906-.605-3.461-1.816-4.664s-2.793-1.805-4.746-1.805-3.52.594-4.699,1.781-1.77,2.75-1.77,4.688.574,3.461,1.723,4.57,2.746,1.664,4.793,1.664c2.031,0,3.625-.559,4.781-1.676s1.734-2.637,1.734-4.559h0Zm-6.516-21.727c-1.703,0-3.082.527-4.137,1.582s-1.582,2.488-1.582,4.301c0,1.734.52,3.137,1.559,4.207s2.426,1.605,4.16,1.605,3.121-.535,4.16-1.605,1.559-2.473,1.559-4.207-.539-3.148-1.617-4.242-2.445-1.641-4.102-1.641h0Z" fill="#c9d1d9"/>
  <path d="m861.743,1379.75c-.906,1.078-1.988,1.945-3.246,2.602s-2.637.984-4.137.984c-1.969,0-3.684-.484-5.145-1.453s-2.59-2.332-3.387-4.09-1.195-3.699-1.195-5.824c0-2.281.434-4.336,1.301-6.164s2.098-3.227,3.691-4.195,3.453-1.453,5.578-1.453c3.375,0,6.035,1.262,7.98,3.785s2.918,5.965,2.918,10.324v1.266c0,6.641-1.312,11.488-3.938,14.543s-6.586,4.621-11.883,4.699h-.844v-3.68h.914c3.578-.062,6.328-.994,8.25-2.795s2.969-4.65,3.141-8.549h.002Zm-6.68,0c1.453,0,2.793-.445,4.02-1.336s2.121-1.992,2.684-3.305v-1.734c0-2.844-.617-5.156-1.852-6.938s-2.797-2.672-4.688-2.672c-1.906,0-3.438.73-4.594,2.191s-1.734,3.387-1.734,5.777c0,2.328.559,4.246,1.676,5.754s2.613,2.262,4.488,2.262h0Z" fill="#c9d1d9"/>
  <g>
    <path d="m922.896,1394.75h-4.359v-28.898l-8.742,3.211v-3.938l12.422-4.664h.68v34.289h0Z" fill="#c9d1d9"/>
    <path d="m956.998,1380.195c0,5.078-.867,8.852-2.602,11.32s-4.445,3.703-8.133,3.703c-3.641,0-6.336-1.207-8.086-3.621s-2.656-6.02-2.719-10.816v-5.789c0-5.016.867-8.742,2.602-11.18s4.453-3.656,8.156-3.656c3.672,0,6.375,1.176,8.109,3.527s2.625,5.98,2.672,10.887v5.625h0Zm-4.336-5.93c0-3.672-.516-6.348-1.547-8.027s-2.664-2.52-4.898-2.52c-2.219,0-3.836.836-4.852,2.508s-1.539,4.242-1.57,7.711v6.938c0,3.688.535,6.41,1.605,8.168s2.691,2.637,4.863,2.637c2.141,0,3.73-.828,4.77-2.484s1.582-4.266,1.629-7.828v-7.102h0Z" fill="#c9d1d9"/>
  </g>
  <g>
    <path d="m1000.406,1394.75h-4.359v-28.898l-8.742,3.211v-3.938l12.422-4.664h.68v34.289h0Z" fill="#c9d1d9"/>
    <path d="m1027.359,1394.75h-4.359v-28.898l-8.742,3.211v-3.938l12.422-4.664h.68v34.289h-.001Z" fill="#c9d1d9"/>
  </g>
  <g>
    <path d="m1077.906,1394.75h-4.359v-28.898l-8.742,3.211v-3.938l12.422-4.664h.68v34.289h-.001Z" fill="#c9d1d9"/>
    <path d="m1112.969,1394.75h-22.359v-3.117l11.812-13.125c1.75-1.984,2.957-3.598,3.621-4.84s.996-2.527.996-3.855c0-1.781-.539-3.242-1.617-4.383s-2.516-1.711-4.312-1.711c-2.156,0-3.832.613-5.027,1.84s-1.793,2.934-1.793,5.121h-4.336c0-3.141,1.012-5.68,3.035-7.617s4.73-2.906,8.121-2.906c3.172,0,5.68.832,7.523,2.496s2.766,3.879,2.766,6.645c0,3.359-2.141,7.359-6.422,12l-9.141,9.914h17.133v3.539h0Z" fill="#c9d1d9"/>
  </g>
  <g>
    <path d="m1154.906,1394.75h-4.359v-28.898l-8.742,3.211v-3.938l12.422-4.664h.68v34.289h-.001Z" fill="#c9d1d9"/>
    <path d="m1173.914,1375.578h3.258c2.047-.031,3.656-.57,4.828-1.617s1.758-2.461,1.758-4.242c0-4-1.992-6-5.977-6-1.875,0-3.371.535-4.488,1.605s-1.676,2.488-1.676,4.254h-4.336c0-2.703.988-4.949,2.965-6.738s4.488-2.684,7.535-2.684c3.219,0,5.742.852,7.57,2.555s2.742,4.07,2.742,7.102c0,1.484-.48,2.922-1.441,4.312s-2.27,2.43-3.926,3.117c1.875.594,3.324,1.578,4.348,2.953s1.535,3.055,1.535,5.039c0,3.062-1,5.492-3,7.289s-4.602,2.695-7.805,2.695-5.809-.867-7.816-2.602-3.012-4.023-3.012-6.867h4.359c0,1.797.586,3.234,1.758,4.312s2.742,1.617,4.711,1.617c2.094,0,3.695-.547,4.805-1.641s1.664-2.664,1.664-4.711c0-1.984-.609-3.508-1.828-4.57s-2.977-1.609-5.273-1.641h-3.258v-3.539.002Z" fill="#c9d1d9"/>
  </g>
  <g>
    <path d="m1231.906,1394.75h-4.359v-28.898l-8.742,3.211v-3.938l12.422-4.664h.68v34.289h-.001Z" fill="#c9d1d9"/>
    <path d="m1262.914,1383.289h4.734v3.539h-4.734v7.922h-4.359v-7.922h-15.539v-2.555l15.281-23.648h4.617v22.664h0Zm-14.977,0h10.617v-16.734l-.516.938-10.102,15.797h.001Z" fill="#c9d1d9"/>
  </g>
  <g>
    <path d="m1308.916,1394.75h-4.359v-28.898l-8.742,3.211v-3.938l12.422-4.664h.68v34.289h-.001Z" fill="#c9d1d9"/>
    <path d="m1323.611,1377.641l1.734-17.016h17.484v4.008h-13.805l-1.031,9.305c1.672-.984,3.57-1.477,5.695-1.477,3.109,0,5.578,1.027,7.406,3.082s2.742,4.832,2.742,8.332-.949,6.285-2.848,8.309-4.551,3.035-7.957,3.035c-3.016,0-5.477-.836-7.383-2.508s-2.992-3.984-3.258-6.938h4.102c.266,1.953.961,3.426,2.086,4.418s2.609,1.488,4.453,1.488c2.016,0,3.598-.688,4.746-2.062s1.723-3.273,1.723-5.695c0-2.281-.621-4.113-1.863-5.496s-2.895-2.074-4.957-2.074c-1.891,0-3.375.414-4.453,1.242l-1.148.938-3.469-.891h.001Z" fill="#c9d1d9"/>
  </g>
  <g>
    <path d="m1386.416,1394.75h-4.359v-28.898l-8.742,3.211v-3.938l12.422-4.664h.68v34.289h-.001Z" fill="#c9d1d9"/>
    <path d="m1416.135,1360.602v3.68h-.797c-3.375.062-6.062,1.062-8.062,3s-3.156,4.664-3.469,8.18c1.797-2.062,4.25-3.094,7.359-3.094,2.969,0,5.34,1.047,7.113,3.141s2.66,4.797,2.66,8.109c0,3.516-.957,6.328-2.871,8.438s-4.48,3.164-7.699,3.164c-3.266,0-5.914-1.254-7.945-3.762s-3.047-5.738-3.047-9.691v-1.664c0-6.281,1.34-11.082,4.02-14.402s6.668-5.02,11.965-5.098h.773,0Zm-5.695,15.375c-1.484,0-2.852.445-4.102,1.336s-2.117,2.008-2.602,3.352v1.594c0,2.812.633,5.078,1.898,6.797s2.844,2.578,4.734,2.578c1.953,0,3.488-.719,4.605-2.156s1.676-3.32,1.676-5.648c0-2.344-.566-4.238-1.699-5.684s-2.637-2.168-4.512-2.168h.002Z" fill="#c9d1d9"/>
  </g>
  <g>
    <path d="m1463.916,1394.75h-4.359v-28.898l-8.742,3.211v-3.938l12.422-4.664h.68v34.289h-.001Z" fill="#c9d1d9"/>
    <path d="m1498.65,1363.062l-14.133,31.688h-4.547l14.086-30.562h-18.469v-3.562h23.062v2.438-.002Z" fill="#c9d1d9"/>
  </g>
  <g>
    <path d="m1540.916,1394.75h-4.359v-28.898l-8.742,3.211v-3.938l12.422-4.664h.68v34.289h-.001Z" fill="#c9d1d9"/>
    <path d="m1574.314,1369.531c0,1.703-.449,3.219-1.348,4.547s-2.113,2.367-3.645,3.117c1.781.766,3.191,1.883,4.23,3.352s1.559,3.133,1.559,4.992c0,2.953-.996,5.305-2.988,7.055s-4.613,2.625-7.863,2.625c-3.281,0-5.91-.879-7.887-2.637s-2.965-4.105-2.965-7.043c0-1.844.504-3.508,1.512-4.992s2.402-2.609,4.184-3.375c-1.516-.75-2.711-1.789-3.586-3.117s-1.312-2.836-1.312-4.523c0-2.875.922-5.156,2.766-6.844s4.273-2.531,7.289-2.531c3,0,5.426.844,7.277,2.531s2.777,3.969,2.777,6.844h0Zm-3.539,15.914c0-1.906-.605-3.461-1.816-4.664s-2.793-1.805-4.746-1.805-3.52.594-4.699,1.781-1.77,2.75-1.77,4.688.574,3.461,1.723,4.57,2.746,1.664,4.793,1.664c2.031,0,3.625-.559,4.781-1.676s1.734-2.637,1.734-4.559h0Zm-6.516-21.727c-1.703,0-3.082.527-4.137,1.582s-1.582,2.488-1.582,4.301c0,1.734.52,3.137,1.559,4.207s2.426,1.605,4.16,1.605,3.121-.535,4.16-1.605,1.559-2.473,1.559-4.207-.539-3.148-1.617-4.242-2.445-1.641-4.102-1.641h0Z" fill="#c9d1d9"/>
  </g>
  <g>
    <path d="m1617.926,1394.75h-4.359v-28.898l-8.742,3.211v-3.938l12.422-4.664h.68v34.289h-.001Z" fill="#c9d1d9"/>
    <path d="m1647.246,1379.75c-.906,1.078-1.988,1.945-3.246,2.602s-2.637.984-4.137.984c-1.969,0-3.684-.484-5.145-1.453s-2.59-2.332-3.387-4.09-1.195-3.699-1.195-5.824c0-2.281.434-4.336,1.301-6.164s2.098-3.227,3.691-4.195,3.453-1.453,5.578-1.453c3.375,0,6.035,1.262,7.98,3.785s2.918,5.965,2.918,10.324v1.266c0,6.641-1.312,11.488-3.938,14.543s-6.586,4.621-11.883,4.699h-.844v-3.68h.914c3.578-.062,6.328-.994,8.25-2.795s2.969-4.65,3.141-8.549h.002Zm-6.68,0c1.453,0,2.793-.445,4.02-1.336s2.121-1.992,2.684-3.305v-1.734c0-2.844-.617-5.156-1.852-6.938s-2.797-2.672-4.688-2.672c-1.906,0-3.438.73-4.594,2.191s-1.734,3.387-1.734,5.777c0,2.328.559,4.246,1.676,5.754s2.613,2.262,4.488,2.262h0Z" fill="#c9d1d9"/>
  </g>
  <g>
    <path d="m1703.535,1394.75h-22.359v-3.117l11.812-13.125c1.75-1.984,2.957-3.598,3.621-4.84s.996-2.527.996-3.855c0-1.781-.539-3.242-1.617-4.383s-2.516-1.711-4.312-1.711c-2.156,0-3.832.613-5.027,1.84s-1.793,2.934-1.793,5.121h-4.336c0-3.141,1.012-5.68,3.035-7.617s4.73-2.906,8.121-2.906c3.172,0,5.68.832,7.523,2.496s2.766,3.879,2.766,6.645c0,3.359-2.141,7.359-6.422,12l-9.141,9.914h17.133v3.539h0Z" fill="#c9d1d9"/>
    <path d="m1729.527,1380.195c0,5.078-.867,8.852-2.602,11.32s-4.445,3.703-8.133,3.703c-3.641,0-6.336-1.207-8.086-3.621s-2.656-6.02-2.719-10.816v-5.789c0-5.016.867-8.742,2.602-11.18s4.453-3.656,8.156-3.656c3.672,0,6.375,1.176,8.109,3.527s2.625,5.98,2.672,10.887v5.625h.001Zm-4.336-5.93c0-3.672-.516-6.348-1.547-8.027s-2.664-2.52-4.898-2.52c-2.219,0-3.836.836-4.852,2.508s-1.539,4.242-1.57,7.711v6.938c0,3.688.535,6.41,1.605,8.168s2.691,2.637,4.863,2.637c2.141,0,3.73-.828,4.77-2.484s1.582-4.266,1.629-7.828v-7.102h0Z" fill="#c9d1d9"/>
  </g>
  <g>
    <path d="m1781.035,1394.75h-22.359v-3.117l11.812-13.125c1.75-1.984,2.957-3.598,3.621-4.84s.996-2.527.996-3.855c0-1.781-.539-3.242-1.617-4.383s-2.516-1.711-4.312-1.711c-2.156,0-3.832.613-5.027,1.84s-1.793,2.934-1.793,5.121h-4.336c0-3.141,1.012-5.68,3.035-7.617s4.73-2.906,8.121-2.906c3.172,0,5.68.832,7.523,2.496s2.766,3.879,2.766,6.645c0,3.359-2.141,7.359-6.422,12l-9.141,9.914h17.133v3.539h0Z" fill="#c9d1d9"/>
    <path d="m1799.879,1394.75h-4.359v-28.898l-8.742,3.211v-3.938l12.422-4.664h.68v34.289h-.001Z" fill="#c9d1d9"/>
  </g>
  <g>
    <path d="m1858.035,1394.75h-22.359v-3.117l11.812-13.125c1.75-1.984,2.957-3.598,3.621-4.84s.996-2.527.996-3.855c0-1.781-.539-3.242-1.617-4.383s-2.516-1.711-4.312-1.711c-2.156,0-3.832.613-5.027,1.84s-1.793,2.934-1.793,5.121h-4.336c0-3.141,1.012-5.68,3.035-7.617s4.73-2.906,8.121-2.906c3.172,0,5.68.832,7.523,2.496s2.766,3.879,2.766,6.645c0,3.359-2.141,7.359-6.422,12l-9.141,9.914h17.133v3.539h0Z" fill="#c9d1d9"/>
    <path d="m1884.988,1394.75h-22.359v-3.117l11.812-13.125c1.75-1.984,2.957-3.598,3.621-4.84s.996-2.527.996-3.855c0-1.781-.539-3.242-1.617-4.383s-2.516-1.711-4.312-1.711c-2.156,0-3.832.613-5.027,1.84s-1.793,2.934-1.793,5.121h-4.336c0-3.141,1.012-5.68,3.035-7.617s4.73-2.906,8.121-2.906c3.172,0,5.68.832,7.523,2.496s2.766,3.879,2.766,6.645c0,3.359-2.141,7.359-6.422,12l-9.141,9.914h17.133v3.539h0Z" fill="#c9d1d9"/>
  </g>
  <g>
    <path d="m1935.045,1394.75h-22.359v-3.117l11.812-13.125c1.75-1.984,2.957-3.598,3.621-4.84s.996-2.527.996-3.855c0-1.781-.539-3.242-1.617-4.383s-2.516-1.711-4.312-1.711c-2.156,0-3.832.613-5.027,1.84s-1.793,2.934-1.793,5.121h-4.336c0-3.141,1.012-5.68,3.035-7.617s4.73-2.906,8.121-2.906c3.172,0,5.68.832,7.523,2.496s2.766,3.879,2.766,6.645c0,3.359-2.141,7.359-6.422,12l-9.141,9.914h17.133v3.539h0Z" fill="#c9d1d9"/>
    <path d="m1945.943,1375.578h3.258c2.047-.031,3.656-.57,4.828-1.617s1.758-2.461,1.758-4.242c0-4-1.992-6-5.977-6-1.875,0-3.371.535-4.488,1.605s-1.676,2.488-1.676,4.254h-4.336c0-2.703.988-4.949,2.965-6.738s4.488-2.684,7.535-2.684c3.219,0,5.742.852,7.57,2.555s2.742,4.07,2.742,7.102c0,1.484-.48,2.922-1.441,4.312s-2.27,2.43-3.926,3.117c1.875.594,3.324,1.578,4.348,2.953s1.535,3.055,1.535,5.039c0,3.062-1,5.492-3,7.289s-4.602,2.695-7.805,2.695-5.809-.867-7.816-2.602-3.012-4.023-3.012-6.867h4.359c0,1.797.586,3.234,1.758,4.312s2.742,1.617,4.711,1.617c2.094,0,3.695-.547,4.805-1.641s1.664-2.664,1.664-4.711c0-1.984-.609-3.508-1.828-4.57s-2.977-1.609-5.273-1.641h-3.258v-3.539.002Z" fill="#c9d1d9"/>
  </g>
  <g>
    <path d="m2012.045,1394.75h-22.359v-3.117l11.812-13.125c1.75-1.984,2.957-3.598,3.621-4.84s.996-2.527.996-3.855c0-1.781-.539-3.242-1.617-4.383s-2.516-1.711-4.312-1.711c-2.156,0-3.832.613-5.027,1.84s-1.793,2.934-1.793,5.121h-4.336c0-3.141,1.012-5.68,3.035-7.617s4.73-2.906,8.121-2.906c3.172,0,5.68.832,7.523,2.496s2.766,3.879,2.766,6.645c0,3.359-2.141,7.359-6.422,12l-9.141,9.914h17.133v3.539h0Z" fill="#c9d1d9"/>
    <path d="m2034.943,1383.289h4.734v3.539h-4.734v7.922h-4.359v-7.922h-15.539v-2.555l15.281-23.648h4.617v22.664h0Zm-14.977,0h10.617v-16.734l-.516.938-10.102,15.797h.001Z" fill="#c9d1d9"/>
  </g>
  <g>
    <path d="m1075.461,1480.6v-34.125h11.156c3.703,0,6.488.766,8.355,2.297s2.801,3.797,2.801,6.797c0,1.594-.453,3.004-1.359,4.23s-2.141,2.176-3.703,2.848c1.844.516,3.301,1.496,4.371,2.941s1.605,3.168,1.605,5.168c0,3.062-.992,5.469-2.977,7.219s-4.789,2.625-8.414,2.625h-11.836.001Zm4.5-19.57h6.797c1.969,0,3.543-.493,4.723-1.479s1.77-2.325,1.77-4.017c0-1.879-.547-3.245-1.641-4.099s-2.758-1.28-4.992-1.28h-6.656v10.875h-.001Zm0,3.609v12.281h7.43c2.094,0,3.746-.543,4.957-1.629s1.816-2.582,1.816-4.488c0-4.109-2.234-6.164-6.703-6.164h-7.5Z" fill="#c9d1d9"/>
    <path d="m1120.32,1480.6c-.25-.5-.453-1.391-.609-2.672-2.016,2.094-4.422,3.141-7.219,3.141-2.5,0-4.551-.707-6.152-2.121s-2.402-3.207-2.402-5.379c0-2.641,1.004-4.691,3.012-6.152s4.832-2.191,8.473-2.191h4.219v-1.992c0-1.516-.453-2.723-1.359-3.621s-2.242-1.348-4.008-1.348c-1.547,0-2.844.391-3.891,1.172s-1.57,1.727-1.57,2.836h-4.359c0-1.266.449-2.488,1.348-3.668s2.117-2.113,3.656-2.801,3.23-1.031,5.074-1.031c2.922,0,5.211.73,6.867,2.191s2.516,3.473,2.578,6.035v11.672c0,2.328.297,4.18.891,5.555v.375h-4.549Zm-7.195-3.305c1.359,0,2.648-.352,3.867-1.055s2.102-1.617,2.648-2.742v-5.203h-3.398c-5.312,0-7.969,1.555-7.969,4.664,0,1.359.453,2.422,1.359,3.188s2.07,1.148,3.492,1.148h.001Z" fill="#c9d1d9"/>
    <path d="m1134.875,1455.24l.141,3.188c1.938-2.438,4.469-3.656,7.594-3.656,5.359,0,8.062,3.023,8.109,9.07v16.758h-4.336v-16.781c-.016-1.828-.434-3.18-1.254-4.055s-2.098-1.312-3.832-1.312c-1.406,0-2.641.375-3.703,1.125s-1.891,1.734-2.484,2.953v18.07h-4.336v-25.359h4.102,0Z" fill="#c9d1d9"/>
    <path d="m1156.203,1467.709c0-3.891.922-7.02,2.766-9.387s4.258-3.551,7.242-3.551,5.32,1.016,7.055,3.047v-13.219h4.336v36h-3.984l-.211-2.719c-1.734,2.125-4.148,3.188-7.242,3.188-2.938,0-5.332-1.203-7.184-3.609s-2.777-5.547-2.777-9.422v-.328h-.001Zm4.336.492c0,2.875.594,5.125,1.781,6.75s2.828,2.438,4.922,2.438c2.75,0,4.758-1.234,6.023-3.703v-11.648c-1.297-2.391-3.289-3.586-5.977-3.586-2.125,0-3.781.82-4.969,2.461s-1.781,4.07-1.781,7.289h.001Z" fill="#c9d1d9"/>
  </g>
  <g>
    <path d="m26.479,806.889v14.32h15.07v4.5H7.425v-21.141h3.68v16.641h11.695v-14.32h3.68,0Z" fill="#c9d1d9"/>
    <path d="m20.081,788.211c-.109.656-.164,1.367-.164,2.133,0,2.844,1.211,4.773,3.633,5.789h18v4.336h-25.359v-4.219l2.93-.07c-2.266-1.422-3.398-3.438-3.398-6.047,0-.844.109-1.484.328-1.922h4.031-.001Z" fill="#c9d1d9"/>
    <g>
      <path d="m42.019,774.146c0,3.438-1.129,6.234-3.387,8.391s-5.277,3.234-9.059,3.234h-.797c-2.516,0-4.762-.48-6.738-1.441s-3.523-2.305-4.641-4.031-1.676-3.598-1.676-5.613c0-3.297,1.086-5.859,3.258-7.688s5.281-2.742,9.328-2.742h1.805v17.18c2.5-.062,4.52-.793,6.059-2.191s2.309-3.176,2.309-5.332c0-1.531-.312-2.828-.938-3.891s-1.453-1.992-2.484-2.789l2.062-2.648c3.266,2.125,4.898,5.312,4.898,9.562h.001Zm-22.734.539c0,1.75.637,3.219,1.91,4.406s3.059,1.922,5.355,2.203v-12.703h-.328c-2.203.125-3.91.719-5.121,1.781s-1.816,2.5-1.816,4.312h0Z" fill="#c9d1d9"/>
      <path d="m28.659,760.294c-3.984,0-7.137-.914-9.457-2.742s-3.48-4.281-3.48-7.359c0-3,1.008-5.367,3.023-7.102l-2.555-.188v-3.984h35.109v4.336h-12.094c1.875,1.75,2.812,4.078,2.812,6.984,0,3.062-1.191,5.504-3.574,7.324s-5.543,2.73-9.48,2.73h-.305,0Zm.492-4.336c2.906,0,5.188-.613,6.844-1.84s2.484-2.879,2.484-4.957c0-2.578-1.141-4.547-3.422-5.906h-12.422c-2.234,1.375-3.352,3.328-3.352,5.859,0,2.094.832,3.758,2.496,4.992s4.121,1.852,7.371,1.852h0Z" fill="#c9d1d9"/>
      <path d="m39.042,716.302c1.984,1.688,2.977,4.164,2.977,7.43,0,2.703-.785,4.762-2.355,6.176s-3.895,2.129-6.973,2.145h-16.5v-4.336h16.383c3.844,0,5.766-1.562,5.766-4.688,0-3.312-1.234-5.516-3.703-6.609h-18.445v-4.336h25.359v4.125l-2.508.094h-.001Z" fill="#c9d1d9"/>
      <path d="m42.019,694.974c0,3.438-1.129,6.234-3.387,8.391s-5.277,3.234-9.059,3.234h-.797c-2.516,0-4.762-.48-6.738-1.441s-3.523-2.305-4.641-4.031-1.676-3.598-1.676-5.613c0-3.297,1.086-5.859,3.258-7.688s5.281-2.742,9.328-2.742h1.805v17.18c2.5-.062,4.52-.793,6.059-2.191s2.309-3.176,2.309-5.332c0-1.531-.312-2.828-.938-3.891s-1.453-1.992-2.484-2.789l2.062-2.648c3.266,2.125,4.898,5.312,4.898,9.562h.001Zm-22.734.539c0,1.75.637,3.219,1.91,4.406s3.059,1.922,5.355,2.203v-12.703h-.328c-2.203.125-3.91.719-5.121,1.781s-1.816,2.5-1.816,4.312h0Z" fill="#c9d1d9"/>
      <path d="m16.19,675.966l3.188-.141c-2.438-1.938-3.656-4.469-3.656-7.594,0-5.359,3.023-8.062,9.07-8.109h16.758v4.336h-16.781c-1.828.016-3.18.434-4.055,1.254s-1.312,2.098-1.312,3.832c0,1.406.375,2.641,1.125,3.703s1.734,1.891,2.953,2.484h18.07v4.336h-25.359v-4.102h0Z" fill="#c9d1d9"/>
      <path d="m38.479,643.411c0-1.547-.469-2.898-1.406-4.055s-2.109-1.797-3.516-1.922v-4.102c1.453.078,2.836.578,4.148,1.5s2.359,2.152,3.141,3.691,1.172,3.168,1.172,4.887c0,3.453-1.152,6.199-3.457,8.238s-5.457,3.059-9.457,3.059h-.727c-2.469,0-4.664-.453-6.586-1.359s-3.414-2.207-4.477-3.902-1.594-3.699-1.594-6.012c0-2.844.852-5.207,2.555-7.09s3.914-2.887,6.633-3.012v4.102c-1.641.125-2.988.746-4.043,1.863s-1.582,2.496-1.582,4.137c0,2.203.793,3.91,2.379,5.121s3.879,1.816,6.879,1.816h.82c2.922,0,5.172-.602,6.75-1.805s2.367-2.922,2.367-5.156h.001Z" fill="#c9d1d9"/>
      <path d="m35.198,620.161l-19.008-5.906v-4.641l29.273,10.195c4.219,1.578,6.328,4.086,6.328,7.523l-.07.82-.305,1.617h-3.516l.094-1.172c0-1.469-.297-2.613-.891-3.434s-1.68-1.496-3.258-2.027l-2.578-.961-25.078,9.047v-4.734l19.008-6.328h0Z" fill="#c9d1d9"/>
      <path d="m6.112,584.888v4.477h39.188v-4.477h3.562v8.836H2.55v-8.836h3.562Z" fill="#c9d1d9"/>
      <path d="m41.55,554.231v4.523h-15.773v17.203h15.773v4.5H7.425v-4.5h14.672v-17.203H7.425v-4.523h34.125Z" fill="#c9d1d9"/>
      <path d="m38.011,542.841v-14.836h3.539v20.133h-3.188l-18.586-13.992v13.781h-3.586v-19.219h3.07l18.75,14.133h0Z" fill="#c9d1d9"/>
      <path d="m2.55,526.2v-8.859h46.312v8.859h-3.562v-4.523H6.112v4.523h-3.562Z" fill="#c9d1d9"/>
    </g>
  </g>
  <g id="uuid-7ad6de21-f153-43bf-b6dc-8ff1518520f9">
    <line x1="199.24" y1="1240.21" x2="2052.3" y2="1240.21" fill="none" stroke="#7f7f7f" stroke-linejoin="round" stroke-width="1.42"/>
    <line x1="199.24" y1="1186.2" x2="2052.3" y2="1186.2" fill="none" stroke="#7f7f7f" stroke-linejoin="round" stroke-width="1.42"/>
    <line x1="199.24" y1="1148.2" x2="2052.3" y2="1148.2" fill="none" stroke="#7f7f7f" stroke-linejoin="round" stroke-width="1.42"/>
    <line x1="199.24" y1="1118.2" x2="2052.3" y2="1118.2" fill="none" stroke="#7f7f7f" stroke-linejoin="round" stroke-width="1.42"/>
    <line x1="199.24" y1="1093.2" x2="2052.3" y2="1093.2" fill="none" stroke="#7f7f7f" stroke-linejoin="round" stroke-width="1.42"/>
    <line x1="199.24" y1="1073.2" x2="2052.3" y2="1073.2" fill="none" stroke="#7f7f7f" stroke-linejoin="round" stroke-width="1.42"/>
    <line x1="199.24" y1="1055.2" x2="2052.3" y2="1055.2" fill="none" stroke="#7f7f7f" stroke-linejoin="round" stroke-width="1.42"/>
    <line x1="199.24" y1="1039.2" x2="2052.3" y2="1039.2" fill="none" stroke="#7f7f7f" stroke-linejoin="round" stroke-width="1.42"/>
    <line x1="199.24" y1="933.2" x2="2052.3" y2="933.2" fill="none" stroke="#7f7f7f" stroke-linejoin="round" stroke-width="1.42"/>
    <line x1="199.24" y1="879.19" x2="2052.3" y2="879.19" fill="none" stroke="#7f7f7f" stroke-linejoin="round" stroke-width="1.42"/>
    <line x1="199.24" y1="840.19" x2="2052.3" y2="840.19" fill="none" stroke="#7f7f7f" stroke-linejoin="round" stroke-width="1.42"/>
    <line x1="199.24" y1="810.19" x2="2052.3" y2="810.19" fill="none" stroke="#7f7f7f" stroke-linejoin="round" stroke-width="1.42"/>
    <line x1="199.24" y1="786.19" x2="2052.3" y2="786.19" fill="none" stroke="#7f7f7f" stroke-linejoin="round" stroke-width="1.42"/>
    <line x1="199.24" y1="765.19" x2="2052.3" y2="765.19" fill="none" stroke="#7f7f7f" stroke-linejoin="round" stroke-width="1.42"/>
    <line x1="199.24" y1="748.19" x2="2052.3" y2="748.19" fill="none" stroke="#7f7f7f" stroke-linejoin="round" stroke-width="1.42"/>
    <line x1="199.24" y1="732.19" x2="2052.3" y2="732.19" fill="none" stroke="#7f7f7f" stroke-linejoin="round" stroke-width="1.42"/>
    <line x1="199.24" y1="625.19" x2="2052.3" y2="625.19" fill="none" stroke="#7f7f7f" stroke-linejoin="round" stroke-width="1.42"/>
    <line x1="199.24" y1="571.18" x2="2052.3" y2="571.18" fill="none" stroke="#7f7f7f" stroke-linejoin="round" stroke-width="1.42"/>
    <line x1="199.24" y1="533.18" x2="2052.3" y2="533.18" fill="none" stroke="#7f7f7f" stroke-linejoin="round" stroke-width="1.42"/>
    <line x1="199.24" y1="503.18" x2="2052.3" y2="503.18" fill="none" stroke="#7f7f7f" stroke-linejoin="round" stroke-width="1.42"/>
    <line x1="199.24" y1="479.18" x2="2052.3" y2="479.18" fill="none" stroke="#7f7f7f" stroke-linejoin="round" stroke-width="1.42"/>
    <line x1="199.24" y1="458.18" x2="2052.3" y2="458.18" fill="none" stroke="#7f7f7f" stroke-linejoin="round" stroke-width="1.42"/>
    <line x1="199.24" y1="440.18" x2="2052.3" y2="440.18" fill="none" stroke="#7f7f7f" stroke-linejoin="round" stroke-width="1.42"/>
    <line x1="199.24" y1="424.18" x2="2052.3" y2="424.18" fill="none" stroke="#7f7f7f" stroke-linejoin="round" stroke-width="1.42"/>
    <line x1="199.24" y1="318.18" x2="2052.3" y2="318.18" fill="none" stroke="#7f7f7f" stroke-linejoin="round" stroke-width="1.42"/>
    <line x1="199.24" y1="264.17" x2="2052.3" y2="264.17" fill="none" stroke="#7f7f7f" stroke-linejoin="round" stroke-width="1.42"/>
    <line x1="199.24" y1="225.17" x2="2052.3" y2="225.17" fill="none" stroke="#7f7f7f" stroke-linejoin="round" stroke-width="1.42"/>
    <line x1="199.24" y1="195.17" x2="2052.3" y2="195.17" fill="none" stroke="#7f7f7f" stroke-linejoin="round" stroke-width="1.42"/>
    <line x1="199.24" y1="171.17" x2="2052.3" y2="171.17" fill="none" stroke="#7f7f7f" stroke-linejoin="round" stroke-width="1.42"/>
    <line x1="199.24" y1="151.17" x2="2052.3" y2="151.17" fill="none" stroke="#7f7f7f" stroke-linejoin="round" stroke-width="1.42"/>
    <line x1="199.24" y1="133.17" x2="2052.3" y2="133.17" fill="none" stroke="#7f7f7f" stroke-linejoin="round" stroke-width="1.42"/>
    <line x1="199.24" y1="117.17" x2="2052.3" y2="117.17" fill="none" stroke="#7f7f7f" stroke-linejoin="round" stroke-width="1.42"/>
    <line x1="199.24" y1="10.17" x2="2052.3" y2="10.17" fill="none" stroke="#7f7f7f" stroke-linejoin="round" stroke-width="2.72"/>
    <line x1="199.24" y1="1025.2" x2="2052.3" y2="1025.2" fill="none" stroke="#7f7f7f" stroke-linejoin="round" stroke-width="2.72"/>
    <line x1="199.24" y1="718.19" x2="2052.3" y2="718.19" fill="none" stroke="#7f7f7f" stroke-linejoin="round" stroke-width="2.72"/>
    <line x1="199.24" y1="410.18" x2="2052.3" y2="410.18" fill="none" stroke="#7f7f7f" stroke-linejoin="round" stroke-width="2.72"/>
    <line x1="199.24" y1="103.17" x2="2052.3" y2="103.17" fill="none" stroke="#7f7f7f" stroke-linejoin="round" stroke-width="2.72"/>
    <path d="m199.24,1333.15h1853.06" fill="none" stroke="#7f7f7f" stroke-linejoin="round" stroke-width="2.72"/>
    <line x1="199.24" y1="10.16" x2="199.24" y2="1333.14" fill="none" stroke="#7f7f7f" stroke-miterlimit="10" stroke-width="2.83"/>
    <line x1="277.24" y1="10.16" x2="277.24" y2="1333.14" fill="none" stroke="#7f7f7f" stroke-miterlimit="10" stroke-width="1.42"/>
    <line x1="354.25" y1="10.16" x2="354.25" y2="1333.14" fill="none" stroke="#7f7f7f" stroke-miterlimit="10" stroke-width="1.42"/>
    <line x1="431.25" y1="10.16" x2="431.25" y2="1333.14" fill="none" stroke="#7f7f7f" stroke-miterlimit="10" stroke-width="1.42"/>
    <line x1="508.25" y1="10.16" x2="508.25" y2="1333.14" fill="none" stroke="#7f7f7f" stroke-miterlimit="10" stroke-width="1.42"/>
    <line x1="585.25" y1="10.16" x2="585.25" y2="1333.14" fill="none" stroke="#7f7f7f" stroke-miterlimit="10" stroke-width="1.42"/>
    <line x1="663.26" y1="10.16" x2="663.26" y2="1333.14" fill="none" stroke="#7f7f7f" stroke-miterlimit="10" stroke-width="1.42"/>
    <line x1="740.26" y1="10.16" x2="740.26" y2="1333.14" fill="none" stroke="#7f7f7f" stroke-miterlimit="10" stroke-width="1.42"/>
    <line x1="817.26" y1="10.16" x2="817.26" y2="1333.14" fill="none" stroke="#7f7f7f" stroke-miterlimit="10" stroke-width="1.42"/>
    <line x1="894.26" y1="10.16" x2="894.26" y2="1333.14" fill="none" stroke="#7f7f7f" stroke-miterlimit="10" stroke-width="1.42"/>
    <line x1="971.27" y1="10.16" x2="971.27" y2="1333.14" fill="none" stroke="#7f7f7f" stroke-miterlimit="10" stroke-width="1.42"/>
    <line x1="1049.27" y1="10.16" x2="1049.27" y2="1333.14" fill="none" stroke="#7f7f7f" stroke-miterlimit="10" stroke-width="1.42"/>
    <line x1="1126.27" y1="10.16" x2="1126.27" y2="1333.14" fill="none" stroke="#7f7f7f" stroke-miterlimit="10" stroke-width="1.42"/>
    <line x1="1203.27" y1="10.16" x2="1203.27" y2="1333.14" fill="none" stroke="#7f7f7f" stroke-miterlimit="10" stroke-width="1.42"/>
    <line x1="1280.28" y1="10.16" x2="1280.28" y2="1333.14" fill="none" stroke="#7f7f7f" stroke-miterlimit="10" stroke-width="1.42"/>
    <line x1="1357.28" y1="10.16" x2="1357.28" y2="1333.14" fill="none" stroke="#7f7f7f" stroke-miterlimit="10" stroke-width="1.42"/>
    <line x1="1435.28" y1="10.16" x2="1435.28" y2="1333.14" fill="none" stroke="#7f7f7f" stroke-miterlimit="10" stroke-width="1.42"/>
    <line x1="1512.28" y1="10.16" x2="1512.28" y2="1333.14" fill="none" stroke="#7f7f7f" stroke-miterlimit="10" stroke-width="1.42"/>
    <line x1="1589.29" y1="10.16" x2="1589.29" y2="1333.14" fill="none" stroke="#7f7f7f" stroke-miterlimit="10" stroke-width="1.42"/>
    <line x1="1666.29" y1="10.16" x2="1666.29" y2="1333.14" fill="none" stroke="#7f7f7f" stroke-miterlimit="10" stroke-width="1.42"/>
    <line x1="1744.29" y1="10.16" x2="1744.29" y2="1333.14" fill="none" stroke="#7f7f7f" stroke-miterlimit="10" stroke-width="1.42"/>
    <line x1="1821.29" y1="10.16" x2="1821.29" y2="1333.14" fill="none" stroke="#7f7f7f" stroke-miterlimit="10" stroke-width="1.42"/>
    <line x1="1898.3" y1="10.16" x2="1898.3" y2="1333.14" fill="none" stroke="#7f7f7f" stroke-miterlimit="10" stroke-width="1.42"/>
    <line x1="1975.3" y1="10.16" x2="1975.3" y2="1333.14" fill="none" stroke="#7f7f7f" stroke-miterlimit="10" stroke-width="1.42"/>
    <line x1="2052.3" y1="10.16" x2="2052.3" y2="1333.14" fill="none" stroke="#7f7f7f" stroke-miterlimit="10" stroke-width="2.83"/>
  </g>
  <g id="uuid-49d77697-deb1-4dea-a474-62fd3e046c4b">
    <rect x="199.24" y="10.17" width="1853.06" height="1322.98" fill="none" stroke="#7f7f7f" stroke-linejoin="round" stroke-width="2.83"/>
  </g>
</svg>