<?xml version="1.0" encoding="UTF-8"?>
<svg id="Ebene_1" data-name="Ebene 1" xmlns="http://www.w3.org/2000/svg" width="2700" height="1375.2" viewBox="0 0 2700 1375.2">
  <line x1="259.2" y1="1252.8" x2="259.2" y2="907.2" fill="none" stroke="#959698" stroke-miterlimit="10" stroke-width="5"/>
  <line x1="252" y1="1080" x2="2671.2" y2="1080" fill="none" stroke="#959698" stroke-miterlimit="10" stroke-width="5"/>
  <path d="m182.951,244.8v-41.265h-7.515v-6.284h7.515v-4.878c0-5.098,1.362-9.038,4.087-11.821s6.577-4.175,11.558-4.175c1.875,0,3.735.248,5.581.742l-.439,6.553c-1.377-.264-2.842-.396-4.395-.396-2.637,0-4.673.771-6.108,2.314-1.436,1.543-2.153,3.755-2.153,6.635v5.025h10.151v6.284h-10.151v41.265h-8.131Z" fill="#c9d1d9"/>
  <path d="m222.621,274.771h-4.741v-31.427l-9.507,3.492v-4.282l13.509-5.072h.739v37.29h0Z" fill="#c9d1d9"/>
  <line x1="259.2" y1="820.8" x2="259.2" y2="475.2" fill="none" stroke="#959698" stroke-miterlimit="10" stroke-width="5"/>
  <line x1="252" y1="648" x2="2671.2" y2="648" fill="none" stroke="#959698" stroke-miterlimit="10" stroke-width="5"/>
  <line x1="259.2" y1="388.8" x2="259.2" y2="43.2" fill="none" stroke="#959698" stroke-miterlimit="10" stroke-width="5"/>
  <line x1="252" y1="216" x2="2671.2" y2="216" fill="none" stroke="#959698" stroke-miterlimit="10" stroke-width="5"/>
  <g>
    <path d="m1569.099,47.786c0-4.658.916-8.848,2.747-12.568,1.83-3.721,4.379-6.592,7.646-8.613s6.994-3.032,11.184-3.032c6.475,0,11.712,2.241,15.711,6.724s5.998,10.444,5.998,17.886v.571c0,4.629-.886,8.782-2.658,12.458-1.773,3.678-4.307,6.541-7.603,8.592s-7.083,3.076-11.36,3.076c-6.445,0-11.667-2.241-15.666-6.724s-5.999-10.415-5.999-17.798v-.571h0Zm8.174.967c0,5.273,1.224,9.507,3.67,12.7,2.445,3.193,5.72,4.79,9.821,4.79,4.131,0,7.412-1.618,9.844-4.856,2.432-3.236,3.647-7.771,3.647-13.601,0-5.215-1.237-9.44-3.713-12.679-2.477-3.236-5.765-4.855-9.866-4.855-4.014,0-7.251,1.597-9.712,4.79s-3.691,7.764-3.691,13.711Z" fill="#c9d1d9"/>
    <path d="m1662.746,48.753c0,7.236-1.655,13.066-4.966,17.49s-7.793,6.636-13.447,6.636c-5.771,0-10.312-1.831-13.623-5.493v22.896h-8.13V24.451h7.427l.396,5.273c3.311-4.102,7.91-6.152,13.799-6.152,5.713,0,10.232,2.153,13.558,6.46,3.324,4.307,4.987,10.298,4.987,17.974v.747h0Zm-8.13-.923c0-5.361-1.143-9.595-3.428-12.7s-5.42-4.658-9.404-4.658c-4.922,0-8.613,2.183-11.074,6.548v22.72c2.432,4.336,6.152,6.504,11.162,6.504,3.896,0,6.994-1.545,9.295-4.636,2.3-3.091,3.449-7.684,3.449-13.777h0Z" fill="#c9d1d9"/>
    <path d="m1713.239,48.753c0,7.236-1.655,13.066-4.966,17.49s-7.793,6.636-13.447,6.636c-5.771,0-10.312-1.831-13.623-5.493v22.896h-8.13V24.451h7.427l.396,5.273c3.311-4.102,7.91-6.152,13.799-6.152,5.713,0,10.232,2.153,13.558,6.46,3.324,4.307,4.987,10.298,4.987,17.974v.747h0Zm-8.13-.923c0-5.361-1.143-9.595-3.428-12.7s-5.42-4.658-9.404-4.658c-4.922,0-8.613,2.183-11.074,6.548v22.72c2.432,4.336,6.152,6.504,11.162,6.504,3.896,0,6.994-1.545,9.295-4.636,2.3-3.091,3.449-7.684,3.449-13.777h0Z" fill="#c9d1d9"/>
    <path d="m1721.413,47.786c0-4.658.916-8.848,2.747-12.568,1.83-3.721,4.379-6.592,7.646-8.613s6.994-3.032,11.184-3.032c6.475,0,11.712,2.241,15.711,6.724s5.998,10.444,5.998,17.886v.571c0,4.629-.886,8.782-2.658,12.458-1.773,3.678-4.307,6.541-7.603,8.592s-7.083,3.076-11.36,3.076c-6.445,0-11.667-2.241-15.666-6.724s-5.999-10.415-5.999-17.798v-.571h0Zm8.174.967c0,5.273,1.224,9.507,3.67,12.7,2.445,3.193,5.72,4.79,9.821,4.79,4.131,0,7.412-1.618,9.844-4.856,2.432-3.236,3.647-7.771,3.647-13.601,0-5.215-1.237-9.44-3.713-12.679-2.477-3.236-5.765-4.855-9.866-4.855-4.014,0-7.251,1.597-9.712,4.79s-3.691,7.764-3.691,13.711Z" fill="#c9d1d9"/>
    <path d="m1802.58,59.388c0-2.197-.828-3.903-2.482-5.12-1.655-1.215-4.542-2.263-8.657-3.142-4.116-.879-7.383-1.934-9.8-3.164s-4.204-2.695-5.361-4.395c-1.158-1.699-1.736-3.721-1.736-6.064,0-3.896,1.648-7.192,4.944-9.888s7.507-4.043,12.634-4.043c5.391,0,9.763,1.392,13.118,4.175,3.354,2.783,5.031,6.343,5.031,10.679h-8.174c0-2.227-.944-4.146-2.834-5.757s-4.271-2.417-7.142-2.417c-2.959,0-5.273.645-6.943,1.934s-2.505,2.974-2.505,5.054c0,1.963.776,3.442,2.329,4.438s4.357,1.948,8.416,2.856c4.058.908,7.346,1.992,9.865,3.252s4.388,2.776,5.604,4.548c1.215,1.773,1.823,3.934,1.823,6.482,0,4.248-1.699,7.654-5.098,10.217-3.398,2.564-7.808,3.846-13.228,3.846-3.809,0-7.178-.674-10.107-2.021s-5.223-3.23-6.877-5.646c-1.655-2.418-2.483-5.032-2.483-7.845h8.13c.146,2.725,1.237,4.886,3.274,6.481,2.036,1.598,4.724,2.396,8.063,2.396,3.076,0,5.544-.622,7.405-1.868,1.86-1.244,2.79-2.907,2.79-4.987h0Z" fill="#c9d1d9"/>
    <path d="m1821.345,11.839c0-1.318.402-2.432,1.209-3.34.806-.908,1.999-1.362,3.581-1.362s2.783.454,3.604,1.362,1.23,2.021,1.23,3.34-.41,2.417-1.23,3.296c-.82.879-2.021,1.318-3.604,1.318s-2.775-.439-3.581-1.318c-.807-.879-1.209-1.978-1.209-3.296Zm8.789,60.161h-8.13V24.451h8.13v47.549Z" fill="#c9d1d9"/>
    <path d="m1854.172,12.938v11.514h8.877v6.284h-8.877v29.524c0,1.907.396,3.337,1.187,4.29s2.139,1.43,4.043,1.43c.938,0,2.227-.176,3.867-.527v6.554c-2.139.582-4.219.873-6.24.873-3.633,0-6.372-1.099-8.218-3.296s-2.769-5.317-2.769-9.36v-29.487h-8.657v-6.284h8.657v-11.514h8.13Z" fill="#c9d1d9"/>
    <path d="m1892.272,72.879c-6.445,0-11.689-2.116-15.732-6.35s-6.064-9.896-6.064-16.985v-1.494c0-4.717.901-8.928,2.703-12.634s4.321-6.606,7.559-8.701c3.236-2.095,6.745-3.143,10.524-3.143,6.182,0,10.986,2.036,14.414,6.108,3.428,4.072,5.142,9.902,5.142,17.49v3.384h-32.212c.117,4.688,1.487,8.475,4.109,11.359,2.621,2.887,5.954,4.329,9.997,4.329,2.871,0,5.303-.586,7.295-1.758s3.735-2.725,5.229-4.658l4.966,3.867c-3.984,6.123-9.961,9.185-17.93,9.185h0Zm-1.011-42.627c-3.281,0-6.035,1.194-8.262,3.582s-3.604,5.734-4.131,10.041h23.818v-.615c-.234-4.131-1.348-7.331-3.34-9.602s-4.688-3.406-8.086-3.406h0Z" fill="#c9d1d9"/>
    <path d="m1982.668,48.753c0,7.236-1.655,13.066-4.966,17.49s-7.793,6.636-13.447,6.636c-5.771,0-10.312-1.831-13.623-5.493v22.896h-8.13V24.451h7.427l.396,5.273c3.311-4.102,7.91-6.152,13.799-6.152,5.713,0,10.232,2.153,13.558,6.46,3.324,4.307,4.987,10.298,4.987,17.974v.747h0Zm-8.13-.923c0-5.361-1.143-9.595-3.428-12.7s-5.42-4.658-9.404-4.658c-4.922,0-8.613,2.183-11.074,6.548v22.72c2.432,4.336,6.152,6.504,11.162,6.504,3.896,0,6.994-1.545,9.295-4.636,2.3-3.091,3.449-7.684,3.449-13.777h0Z" fill="#c9d1d9"/>
    <path d="m2001.125,30.208c3.604-4.424,8.291-6.636,14.062-6.636,10.049,0,15.117,5.669,15.205,17.007v31.421h-8.13v-31.465c-.029-3.428-.812-5.962-2.351-7.603s-3.934-2.461-7.186-2.461c-2.637,0-4.951.703-6.943,2.109-1.992,1.406-3.545,3.252-4.658,5.537v33.882h-8.13V4.5h8.13v25.708h0Z" fill="#c9d1d9"/>
    <path d="m2071.921,72c-.469-.938-.85-2.607-1.143-5.01-3.779,3.926-8.291,5.889-13.535,5.889-4.688,0-8.532-1.325-11.535-3.977-3.004-2.651-4.505-6.014-4.505-10.086,0-4.951,1.883-8.796,5.647-11.535,3.764-2.739,9.06-4.109,15.886-4.109h7.91v-3.735c0-2.842-.85-5.104-2.549-6.79-1.699-1.684-4.204-2.526-7.515-2.526-2.9,0-5.332.732-7.295,2.197-1.963,1.465-2.944,3.237-2.944,5.317h-8.174c0-2.373.842-4.665,2.527-6.877,1.685-2.212,3.97-3.963,6.855-5.252s6.057-1.934,9.514-1.934c5.479,0,9.771,1.37,12.876,4.109s4.717,6.511,4.834,11.315v21.885c0,4.365.557,7.837,1.67,10.415v.703h-8.525.001Zm-13.491-6.196c2.549,0,4.966-.659,7.251-1.978s3.94-3.032,4.966-5.142v-9.756h-6.372c-9.961,0-14.941,2.915-14.941,8.745,0,2.549.85,4.541,2.549,5.977s3.882,2.153,6.548,2.153h-.001Z" fill="#c9d1d9"/>
    <path d="m2119.206,59.388c0-2.197-.828-3.903-2.482-5.12-1.655-1.215-4.542-2.263-8.657-3.142-4.116-.879-7.383-1.934-9.8-3.164s-4.204-2.695-5.361-4.395c-1.158-1.699-1.736-3.721-1.736-6.064,0-3.896,1.648-7.192,4.944-9.888s7.507-4.043,12.634-4.043c5.391,0,9.763,1.392,13.118,4.175,3.354,2.783,5.031,6.343,5.031,10.679h-8.174c0-2.227-.944-4.146-2.834-5.757s-4.271-2.417-7.142-2.417c-2.959,0-5.273.645-6.943,1.934s-2.505,2.974-2.505,5.054c0,1.963.776,3.442,2.329,4.438s4.357,1.948,8.416,2.856c4.058.908,7.346,1.992,9.865,3.252s4.388,2.776,5.604,4.548c1.215,1.773,1.823,3.934,1.823,6.482,0,4.248-1.699,7.654-5.098,10.217-3.398,2.564-7.808,3.846-13.228,3.846-3.809,0-7.178-.674-10.107-2.021s-5.223-3.23-6.877-5.646c-1.655-2.418-2.483-5.032-2.483-7.845h8.13c.146,2.725,1.237,4.886,3.274,6.481,2.036,1.598,4.724,2.396,8.063,2.396,3.076,0,5.544-.622,7.405-1.868,1.86-1.244,2.79-2.907,2.79-4.987h0Z" fill="#c9d1d9"/>
    <path d="m2157.658,72.879c-6.445,0-11.689-2.116-15.732-6.35s-6.064-9.896-6.064-16.985v-1.494c0-4.717.901-8.928,2.703-12.634s4.321-6.606,7.559-8.701c3.236-2.095,6.745-3.143,10.524-3.143,6.182,0,10.986,2.036,14.414,6.108,3.428,4.072,5.142,9.902,5.142,17.49v3.384h-32.212c.117,4.688,1.487,8.475,4.109,11.359,2.621,2.887,5.954,4.329,9.997,4.329,2.871,0,5.303-.586,7.295-1.758s3.735-2.725,5.229-4.658l4.966,3.867c-3.984,6.123-9.961,9.185-17.93,9.185h0Zm-1.011-42.627c-3.281,0-6.035,1.194-8.262,3.582s-3.604,5.734-4.131,10.041h23.818v-.615c-.234-4.131-1.348-7.331-3.34-9.602s-4.688-3.406-8.086-3.406h0Z" fill="#c9d1d9"/>
  </g>
  <g>
    <path d="m555.176,11.839c0-1.318.402-2.432,1.208-3.34s2-1.362,3.582-1.362,2.783.454,3.604,1.362c.82.908,1.23,2.021,1.23,3.34s-.411,2.417-1.23,3.296c-.82.879-2.021,1.318-3.604,1.318s-2.776-.439-3.582-1.318c-.806-.879-1.208-1.978-1.208-3.296Zm8.789,60.161h-8.13V24.451h8.13v47.549Z" fill="#c9d1d9"/>
    <path d="m584.664,24.451l.264,5.977c3.632-4.57,8.378-6.855,14.238-6.855,10.048,0,15.117,5.669,15.205,17.007v31.421h-8.13v-31.465c-.029-3.428-.813-5.962-2.351-7.603s-3.933-2.461-7.185-2.461c-2.637,0-4.951.703-6.943,2.109-1.993,1.406-3.545,3.252-4.658,5.537v33.882h-8.13V24.451h7.69Z" fill="#c9d1d9"/>
    <path d="m689.078,48.753c0,7.236-1.655,13.066-4.966,17.49s-7.793,6.636-13.447,6.636c-5.772,0-10.312-1.831-13.623-5.493v22.896h-8.13V24.451h7.427l.396,5.273c3.311-4.102,7.91-6.152,13.799-6.152,5.713,0,10.232,2.153,13.557,6.46s4.988,10.298,4.988,17.974v.747h0Zm-8.13-.923c0-5.361-1.143-9.595-3.428-12.7s-5.42-4.658-9.404-4.658c-4.922,0-8.613,2.183-11.074,6.548v22.72c2.432,4.336,6.152,6.504,11.162,6.504,3.896,0,6.994-1.545,9.294-4.636,2.3-3.091,3.45-7.684,3.45-13.777h0Z" fill="#c9d1d9"/>
    <path d="m707.535,30.208c3.604-4.424,8.291-6.636,14.062-6.636,10.048,0,15.117,5.669,15.205,17.007v31.421h-8.13v-31.465c-.029-3.428-.813-5.962-2.351-7.603s-3.933-2.461-7.185-2.461c-2.637,0-4.951.703-6.943,2.109-1.993,1.406-3.545,3.252-4.658,5.537v33.882h-8.13V4.5h8.13v25.708Z" fill="#c9d1d9"/>
    <path d="m778.331,72c-.469-.938-.85-2.607-1.143-5.01-3.779,3.926-8.291,5.889-13.535,5.889-4.688,0-8.533-1.325-11.536-3.977-3.003-2.651-4.504-6.014-4.504-10.086,0-4.951,1.882-8.796,5.647-11.535,3.764-2.739,9.06-4.109,15.886-4.109h7.91v-3.735c0-2.842-.85-5.104-2.549-6.79-1.699-1.684-4.204-2.526-7.515-2.526-2.9,0-5.333.732-7.295,2.197-1.963,1.465-2.944,3.237-2.944,5.317h-8.174c0-2.373.842-4.665,2.527-6.877,1.685-2.212,3.97-3.963,6.855-5.252s6.057-1.934,9.514-1.934c5.478,0,9.771,1.37,12.876,4.109,3.105,2.739,4.717,6.511,4.834,11.315v21.885c0,4.365.556,7.837,1.67,10.415v.703h-8.525.001Zm-13.491-6.196c2.549,0,4.966-.659,7.251-1.978s3.94-3.032,4.966-5.142v-9.756h-6.372c-9.961,0-14.941,2.915-14.941,8.745,0,2.549.85,4.541,2.549,5.977,1.699,1.436,3.882,2.153,6.548,2.153h0Z" fill="#c9d1d9"/>
    <path d="m825.616,59.388c0-2.197-.828-3.903-2.483-5.12-1.655-1.215-4.542-2.263-8.657-3.142-4.116-.879-7.383-1.934-9.8-3.164s-4.204-2.695-5.361-4.395c-1.158-1.699-1.736-3.721-1.736-6.064,0-3.896,1.648-7.192,4.944-9.888s7.507-4.043,12.634-4.043c5.39,0,9.763,1.392,13.118,4.175,3.354,2.783,5.032,6.343,5.032,10.679h-8.174c0-2.227-.945-4.146-2.834-5.757s-4.27-2.417-7.141-2.417c-2.959,0-5.273.645-6.943,1.934s-2.505,2.974-2.505,5.054c0,1.963.776,3.442,2.329,4.438s4.357,1.948,8.416,2.856c4.058.908,7.346,1.992,9.866,3.252s4.387,2.776,5.603,4.548c1.215,1.773,1.824,3.934,1.824,6.482,0,4.248-1.699,7.654-5.098,10.217-3.399,2.564-7.808,3.846-13.228,3.846-3.809,0-7.178-.674-10.107-2.021-2.93-1.348-5.223-3.23-6.877-5.646-1.655-2.418-2.483-5.032-2.483-7.845h8.13c.146,2.725,1.237,4.886,3.274,6.481,2.036,1.598,4.724,2.396,8.064,2.396,3.076,0,5.544-.622,7.405-1.868,1.86-1.244,2.791-2.907,2.791-4.987h-.003Z" fill="#c9d1d9"/>
    <path d="m864.068,72.879c-6.445,0-11.689-2.116-15.732-6.35s-6.064-9.896-6.064-16.985v-1.494c0-4.717.901-8.928,2.703-12.634s4.321-6.606,7.559-8.701c3.237-2.095,6.746-3.143,10.525-3.143,6.181,0,10.986,2.036,14.414,6.108,3.428,4.072,5.142,9.902,5.142,17.49v3.384h-32.212c.117,4.688,1.487,8.475,4.109,11.359,2.622,2.887,5.955,4.329,9.998,4.329,2.871,0,5.302-.586,7.295-1.758,1.992-1.172,3.735-2.725,5.229-4.658l4.966,3.867c-3.984,6.123-9.961,9.185-17.93,9.185h-.002Zm-1.011-42.627c-3.281,0-6.036,1.194-8.262,3.582-2.227,2.388-3.604,5.734-4.131,10.041h23.818v-.615c-.235-4.131-1.348-7.331-3.34-9.602-1.993-2.271-4.688-3.406-8.086-3.406h.001Z" fill="#c9d1d9"/>
  </g>
  <path d="m182.951,676.8v-41.265h-7.515v-6.284h7.515v-4.878c0-5.098,1.362-9.038,4.087-11.821s6.577-4.175,11.558-4.175c1.875,0,3.735.248,5.581.742l-.439,6.553c-1.377-.264-2.842-.396-4.395-.396-2.637,0-4.673.771-6.108,2.314-1.436,1.543-2.153,3.755-2.153,6.635v5.025h10.151v6.284h-10.151v41.265h-8.131Z" fill="#c9d1d9"/>
  <path d="m231.44,706.771h-24.316v-3.39l12.846-14.273c1.903-2.158,3.215-3.913,3.938-5.264.722-1.351,1.083-2.748,1.083-4.192,0-1.938-.586-3.526-1.758-4.767-1.173-1.24-2.736-1.86-4.69-1.86-2.345,0-4.167.667-5.467,2-1.3,1.335-1.95,3.19-1.95,5.569h-4.715c0-3.415,1.1-6.176,3.3-8.283s5.145-3.161,8.832-3.161c3.449,0,6.176.905,8.182,2.715,2.005,1.81,3.008,4.219,3.008,7.226,0,3.654-2.329,8.004-6.984,13.051l-9.94,10.781h18.632v3.849h-.001Z" fill="#c9d1d9"/>
  <path d="m26.661,1108.8v-41.265h-7.515v-6.284h7.515v-4.878c0-5.098,1.362-9.038,4.087-11.821s6.577-4.175,11.558-4.175c1.875,0,3.735.248,5.581.742l-.439,6.553c-1.377-.264-2.842-.396-4.395-.396-2.637,0-4.673.771-6.108,2.314s-2.153,3.755-2.153,6.635v5.025h10.151v6.284h-10.151v41.265h-8.131Z" fill="#c9d1d9"/>
  <path d="m66.341,1138.771h-4.741v-31.427l-9.507,3.491v-4.281l13.509-5.072h.739v37.289Z" fill="#c9d1d9"/>
  <g>
    <path d="m128.943,1074.479h17.842v7.69h-17.842v20.215h-8.174v-20.215h-17.842v-7.69h17.842v-18.677h8.174v18.677Z" fill="#c9d1d9"/>
    <path d="m182.952,1108.8v-41.265h-7.515v-6.284h7.515v-4.878c0-5.098,1.362-9.038,4.087-11.821s6.577-4.175,11.558-4.175c1.875,0,3.735.248,5.581.742l-.439,6.553c-1.377-.264-2.842-.396-4.395-.396-2.637,0-4.673.771-6.108,2.314s-2.153,3.755-2.153,6.635v5.025h10.151v6.284h-10.151v41.265h-8.131Z" fill="#c9d1d9"/>
  </g>
  <path d="m231.44,1138.771h-24.316v-3.39l12.846-14.273c1.903-2.158,3.215-3.913,3.938-5.264.722-1.351,1.083-2.748,1.083-4.192,0-1.938-.586-3.526-1.758-4.767-1.173-1.24-2.736-1.86-4.69-1.86-2.345,0-4.167.667-5.467,2-1.3,1.335-1.95,3.19-1.95,5.569h-4.715c0-3.415,1.1-6.176,3.3-8.283s5.145-3.161,8.832-3.161c3.449,0,6.176.905,8.182,2.715,2.005,1.81,3.008,4.219,3.008,7.226,0,3.654-2.329,8.004-6.984,13.051l-9.94,10.781h18.632v3.849h-.001Z" fill="#c9d1d9"/>
  <g>
    <path d="m532.199,1291.651l.22,5.273c3.486-4.102,8.188-6.152,14.106-6.152,6.65,0,11.177,2.549,13.579,7.646,1.582-2.285,3.64-4.131,6.174-5.537s5.53-2.109,8.987-2.109c10.43,0,15.732,5.522,15.908,16.567v31.86h-8.13v-31.377c0-3.398-.776-5.939-2.329-7.625-1.553-1.684-4.16-2.526-7.822-2.526-3.018,0-5.522.901-7.515,2.702-1.993,1.803-3.149,4.227-3.472,7.273v31.553h-8.174v-31.157c0-6.914-3.384-10.371-10.151-10.371-5.333,0-8.98,2.271-10.942,6.812v34.717h-8.13v-47.549h7.691Z" fill="#c9d1d9"/>
    <path d="m632.79,1339.2c-.469-.938-.85-2.607-1.143-5.01-3.779,3.926-8.291,5.889-13.535,5.889-4.688,0-8.533-1.325-11.536-3.977-3.003-2.651-4.504-6.014-4.504-10.086,0-4.951,1.882-8.796,5.647-11.535,3.764-2.739,9.06-4.109,15.886-4.109h7.91v-3.735c0-2.842-.85-5.104-2.549-6.79-1.699-1.684-4.204-2.526-7.515-2.526-2.9,0-5.333.732-7.295,2.197-1.963,1.465-2.944,3.237-2.944,5.317h-8.174c0-2.373.842-4.665,2.527-6.877,1.685-2.212,3.97-3.963,6.855-5.252s6.057-1.934,9.514-1.934c5.478,0,9.771,1.37,12.876,4.109s4.717,6.511,4.834,11.315v21.885c0,4.365.556,7.837,1.67,10.415v.703h-8.525.001Zm-13.491-6.196c2.549,0,4.966-.659,7.251-1.978s3.94-3.032,4.966-5.142v-9.756h-6.372c-9.961,0-14.941,2.915-14.941,8.745,0,2.549.85,4.541,2.549,5.977,1.699,1.436,3.882,2.153,6.548,2.153h0Z" fill="#c9d1d9"/>
    <path d="m668.341,1309.01l10.547-17.358h9.492l-15.557,23.511,16.04,24.038h-9.404l-10.986-17.798-10.986,17.798h-9.448l16.04-24.038-15.557-23.511h9.404l10.415,17.358h0Z" fill="#c9d1d9"/>
    <path d="m697.038,1279.039c0-1.318.402-2.432,1.208-3.34s2-1.362,3.582-1.362,2.783.454,3.604,1.362c.82.908,1.23,2.021,1.23,3.34s-.411,2.417-1.23,3.296c-.82.879-2.021,1.318-3.604,1.318s-2.776-.439-3.582-1.318c-.806-.879-1.208-1.978-1.208-3.296Zm8.789,60.161h-8.13v-47.549h8.13v47.549Z" fill="#c9d1d9"/>
    <path d="m726.481,1291.651l.22,5.273c3.486-4.102,8.188-6.152,14.106-6.152,6.65,0,11.177,2.549,13.579,7.646,1.582-2.285,3.64-4.131,6.174-5.537s5.53-2.109,8.987-2.109c10.43,0,15.732,5.522,15.908,16.567v31.86h-8.13v-31.377c0-3.398-.776-5.939-2.329-7.625-1.553-1.684-4.16-2.526-7.822-2.526-3.018,0-5.522.901-7.515,2.702-1.993,1.803-3.149,4.227-3.472,7.273v31.553h-8.174v-31.157c0-6.914-3.384-10.371-10.151-10.371-5.333,0-8.98,2.271-10.942,6.812v34.717h-8.13v-47.549h7.691Z" fill="#c9d1d9"/>
    <path d="m827.072,1334.498c-3.164,3.721-7.808,5.581-13.931,5.581-5.069,0-8.928-1.473-11.58-4.416-2.652-2.945-3.992-7.303-4.021-13.074v-30.938h8.13v30.718c0,7.207,2.929,10.811,8.789,10.811,6.211,0,10.342-2.314,12.393-6.943v-34.585h8.13v47.549h-7.734l-.176-4.702h0Z" fill="#c9d1d9"/>
    <path d="m854.977,1291.651l.22,5.273c3.486-4.102,8.188-6.152,14.106-6.152,6.65,0,11.177,2.549,13.579,7.646,1.582-2.285,3.64-4.131,6.174-5.537s5.53-2.109,8.987-2.109c10.43,0,15.732,5.522,15.908,16.567v31.86h-8.13v-31.377c0-3.398-.776-5.939-2.329-7.625-1.553-1.684-4.16-2.526-7.822-2.526-3.018,0-5.522.901-7.515,2.702-1.993,1.803-3.149,4.227-3.472,7.273v31.553h-8.174v-31.157c0-6.914-3.384-10.371-10.151-10.371-5.333,0-8.98,2.271-10.942,6.812v34.717h-8.13v-47.549h7.691Z" fill="#c9d1d9"/>
  </g>
  <g>
    <path d="m1698.599,1291.651l.22,5.273c3.486-4.102,8.188-6.152,14.106-6.152,6.65,0,11.177,2.549,13.579,7.646,1.582-2.285,3.641-4.131,6.175-5.537,2.533-1.406,5.529-2.109,8.986-2.109,10.43,0,15.732,5.522,15.908,16.567v31.86h-8.13v-31.377c0-3.398-.776-5.939-2.329-7.625-1.553-1.684-4.16-2.526-7.822-2.526-3.018,0-5.522.901-7.515,2.702-1.992,1.803-3.149,4.227-3.472,7.273v31.553h-8.174v-31.157c0-6.914-3.384-10.371-10.151-10.371-5.332,0-8.979,2.271-10.942,6.812v34.717h-8.13v-47.549h7.691Z" fill="#c9d1d9"/>
    <path d="m1769.878,1279.039c0-1.318.402-2.432,1.209-3.34.806-.908,1.999-1.362,3.581-1.362s2.783.454,3.604,1.362,1.23,2.021,1.23,3.34-.41,2.417-1.23,3.296-2.021,1.318-3.604,1.318-2.775-.439-3.581-1.318c-.807-.879-1.209-1.978-1.209-3.296Zm8.789,60.161h-8.13v-47.549h8.13v47.549Z" fill="#c9d1d9"/>
    <path d="m1799.365,1291.651l.264,5.977c3.633-4.57,8.379-6.855,14.238-6.855,10.049,0,15.117,5.669,15.205,17.007v31.421h-8.13v-31.465c-.029-3.428-.812-5.962-2.351-7.603s-3.934-2.461-7.186-2.461c-2.637,0-4.951.703-6.943,2.109s-3.545,3.252-4.658,5.537v33.882h-8.13v-47.549h7.691Z" fill="#c9d1d9"/>
    <path d="m1841.377,1279.039c0-1.318.402-2.432,1.209-3.34.806-.908,1.999-1.362,3.581-1.362s2.783.454,3.604,1.362,1.23,2.021,1.23,3.34-.41,2.417-1.23,3.296-2.021,1.318-3.604,1.318-2.775-.439-3.581-1.318c-.807-.879-1.209-1.978-1.209-3.296Zm8.789,60.161h-8.13v-47.549h8.13v47.549Z" fill="#c9d1d9"/>
    <path d="m1870.82,1291.651l.22,5.273c3.486-4.102,8.188-6.152,14.106-6.152,6.65,0,11.177,2.549,13.579,7.646,1.582-2.285,3.641-4.131,6.175-5.537,2.533-1.406,5.529-2.109,8.986-2.109,10.43,0,15.732,5.522,15.908,16.567v31.86h-8.13v-31.377c0-3.398-.776-5.939-2.329-7.625-1.553-1.684-4.16-2.526-7.822-2.526-3.018,0-5.522.901-7.515,2.702-1.992,1.803-3.149,4.227-3.472,7.273v31.553h-8.174v-31.157c0-6.914-3.384-10.371-10.151-10.371-5.332,0-8.979,2.271-10.942,6.812v34.717h-8.13v-47.549h7.691Z" fill="#c9d1d9"/>
    <path d="m1971.411,1334.498c-3.164,3.721-7.808,5.581-13.931,5.581-5.068,0-8.928-1.473-11.579-4.416-2.652-2.945-3.992-7.303-4.021-13.074v-30.938h8.13v30.718c0,7.207,2.93,10.811,8.789,10.811,6.211,0,10.342-2.314,12.393-6.943v-34.585h8.13v47.549h-7.734l-.176-4.702h0Z" fill="#c9d1d9"/>
    <path d="m1999.316,1291.651l.22,5.273c3.486-4.102,8.188-6.152,14.106-6.152,6.65,0,11.177,2.549,13.579,7.646,1.582-2.285,3.641-4.131,6.175-5.537,2.533-1.406,5.529-2.109,8.986-2.109,10.43,0,15.732,5.522,15.908,16.567v31.86h-8.13v-31.377c0-3.398-.776-5.939-2.329-7.625-1.553-1.684-4.16-2.526-7.822-2.526-3.018,0-5.522.901-7.515,2.702-1.992,1.803-3.149,4.227-3.472,7.273v31.553h-8.174v-31.157c0-6.914-3.384-10.371-10.151-10.371-5.332,0-8.979,2.271-10.942,6.812v34.717h-8.13v-47.549h7.691Z" fill="#c9d1d9"/>
  </g>
  <g id="Ebene_3" data-name="Ebene 3">
    <path d="m259.2,1076.22l10.77-99.13,5.38-22.39,1.94-1.76,3.44,5.5,5.38,29.33,10.77,107.52,10.77,97.21,6.28,18.48,1.79-1.55,5.38-22.56,8.08-73.53,16.15-154.63,5.24-13.32,2.84,3.96,5.38,28.21,10.77,111.24,10.77,105.77,5.38,22.13,1.51,1.14,3.88-7.56,5.38-33.81,13.46-148.81,8.08-71.2,5.85-17.28,2.23,2.57,5.38,26.44,8.08,80.82,13.46,145.81,5.38,26.19,2.11,2.34,3.27-5.6,5.38-32.17,10.77-119.91,10.77-109.59,6.46-21.69,1.62,1.4,5.38,24.11,8.08,80.49,16.15,171.48,5.42,15.58,2.66-3.82,5.38-29.93,10.77-120.41,10.77-115.79,5.38-24.91,1.68-1.54,3.7,7.44,5.38,35.56,13.46,159.29,8.08,77.18,6.03,19.55,2.05-2.31,5.38-27.17,8.08-84.91,16.15-172.95,4.98-13.55,3.09,5.27,5.38,32.84,10.77,124.74,10.77,115.38,6.64,23.8,1.44-1.15,5.38-23.99,8.08-82.32,16.15-177.88,5.6-17.06,2.48,3.41,5.38,29.66,10.77,122.02,10.77,118.76,5.38,26.26,1.86,1.92,3.52-6.82,5.38-35.01,13.46-159.85,8.08-78.48,6.21-20.75,1.87,1.92,5.38,26.14,8.08,83.69,16.15,172.89,5.17,14.37,2.91-4.61,5.38-31.43,10.77-121.82,10.77-114.05,5.38-23.38,1.43-1.11,3.95,8.37,5.38,36.29,27.31,248.39,2.3-2.82,5.38-27.58,10.77-116.09,10.77-114.34,5.38-25.94,2.04-2.19,3.34,5.84,5.38,32.33,10.77,118.62,10.77,106.77,6.38,20.6,1.69-1.48,5.38-23.58,8.08-77.37,16.15-162.01,5.34-14.23,2.74,3.77,5.38,28.19,10.77,111.46,10.77,105.53,5.38,22.25,1.61,1.28,3.78-6.98,5.38-32.26,13.46-141.97,8.08-67.66,5.95-16.71,2.13,2.17,5.38,23.96,8.08,73.61,13.46,132.2,5.38,23.83,2.21,2.28,3.17-4.66,5.38-27.85,10.77-103.92,10.77-94.5,6.55-18.94,1.53,1.05,5.38,19.78,8.08,66.47,16.15,140.8,5.51,12.98,2.57-2.86,5.38-23.45,10.77-94.41,10.77-90.19,5.38-19.46,1.77-1.3,3.62,5.4,5.38,26.51,13.46,118.33,8.08,56.91,6.1,14.56,1.98-1.55,5.38-19.17,8.08-59.96,16.15-120.96,5.05-9.54,3.03,3.43,5.38,21.96,10.77,83.06,10.77,76,6.69,15.68,1.39-.68,5.38-15.13,8.08-51.81,16.15-110.43,5.64-10.53,2.44,1.99,5.38,17.63,10.77,71.88,10.77,68.89,5.38,15.07,1.88,1.11,3.5-3.79,5.38-19.49,13.46-87.61,8.08-42.2,6.21-11.02,1.87,1.01,5.38,13.62,8.08,42.99,16.15,86.67,5.14,6.97,2.94-2.28,5.38-15.15,10.77-57.43,10.77-52.31,5.38-10.4,1.37-.45,4.01,3.83,5.38,16.04,24.23,102.67,2.98,1.92,2.41-1.24,5.38-11.21,10.77-45.35,10.77-42.85,5.38-9.24,1.88-.67,3.51,2.31,5.38,11.75,27.68,82.36,1.94-.61,5.38-7.75,10.77-33.33,10.77-32.27,5.38-7.34,2.29-.73,3.1,1.3,5.38,7.93,13.46,36.26,8.08,17.29,6.46,4.67,1.62-.29,5.38-4.86,10.77-21.58,10.77-20.77,5.38-4.72,2.43-.51,2.95.72,5.38,4.66,27.74,32.52,1.87-.2,5.38-2.6,27.88-20.33,4.42.61,10.77,4.6,10.77,3.72,5.38.27,8.08-1.2,10.59-1.46,5.57.6,8.08,2.9,13.46,5.48,5.38.03,5.38-2.05,8.08-6.6,16.15-13.76,5.38-.15,5.38,3.31,8.08,10.53,16.15,22.38,4.05,1.35,4.03-1.4,5.38-6.11,10.77-22.13,10.77-19.95,5.41-3.13,2.67.8,5.38,6.4,8.08,19.17,13.46,34.87,5.38,5.91,1.5.31,3.89-2.1,5.38-9.54,10.77-34.33,10.77-30.85,5.73-5.21,2.35.91,5.38,8.8,8.08,27.09,16.15,55.66,4.61,3.95,3.47-2.3,5.38-12.27,10.77-45.76,10.77-42.22,6.2-8.01,1.88.77,5.38,10.47,8.08,34.18,16.15,72.89,5.11,6.15,2.97-2.13,5.38-14.27,10.77-56.21,10.77-53.83,6.73-11.59,1.35.49,5.38,11.39,8.08,40.3,16.15,90.06,5.66,9.03,2.42-1.7,5.38-15.51,10.77-65.51,10.77-65.44,5.38-14.82,1.9-1.13,3.48,3.79,5.38,19.95,10.77,73.41,10.77,66.79,6.23,12.63,1.85-1.15,5.38-16,8.08-52.07,16.15-110,5.18-9.36,2.9,3,5.38,20.73,10.77,81.62,10.77,77.82,5.38,16.18,1.43.77,3.95-5.88,5.38-25.65,13.46-112.76,8.08-53.99,5.76-12.89,2.31,2.13,5.38,20.76,8.08,63.05,13.46,113.78,5.38,20.28,2.02,1.7,3.36-4.69,5.38-25.93,10.77-96.17,10.77-87.82,6.36-17.07,1.72,1.28,5.38,20.07,8.08,66.3,16.15,140.94,5.31,12.48,2.76-3.43,5.38-25.46,10.77-101.61,10.77-97.49,5.38-20.71,1.58-1.16,3.81,6.72,5.38,30.91,13.46,137.55,8.08,66.42,5.92,16.44,2.16-2.24,5.38-24.3,8.08-75.12s1.28-12.03,3.11-29.33" fill="none" stroke="#d85648" stroke-linecap="round" stroke-linejoin="round" stroke-width="3"/>
    <path d="m259.49,608.87c2.83-15.37,5.09-27.65,5.09-27.65l5.79-8.85,2.28,1.4,5.38,13.87,8.08,42.16,16.15,86.24,5.35,7.57,2.72-1.99,5.38-15.02,10.77-60.23,10.77-58.99,5.38-13.7,2.22-1.32,3.16,2.68,5.38,16.14,10.77,61.22,10.77,57.82,5.38,12.54,1.78.85,3.6-3.47,5.38-17.24,10.77-62.13,10.77-56.57,6.72-11.84,1.35.49,5.38,11.39,8.08,39.85,16.15,89.14,6.28,10.37,1.79-.86,5.38-12.57,8.08-40.97,16.15-87.84,5.84-9,2.23,1.34,5.38,13.74,8.08,42.04,16.15,86.41,5.4,7.72,2.67-1.91,5.38-14.88,10.77-60.11,10.77-59.12,5.38-13.84,2.27-1.38,3.11,2.59,5.38,16.01,10.77,61.11,10.77,57.96,5.38,12.68,1.83.9,3.55-3.37,5.38-17.11,10.77-62.02,10.77-56.72,5.38-11.49,1.39-.52,3.99,4.25,5.38,18.2,13.46,79.49,8.08,38.77,6.34,10.54,1.74-.81,5.38-12.44,8.08-40.84,16.15-88,5.9-9.16,2.18,1.28,5.38,13.6,8.08,41.92,16.15,86.59,5.46,7.86,2.62-1.84,5.38-14.75,10.77-59.98,13.46-68.01,5.02-6.66,3.06,2.51,5.38,15.88,10.77,60.99,10.77,58.1,5.38,12.81,1.88.95,3.5-3.27,5.38-16.99,10.77-61.92,10.77-56.87,5.38-11.63,1.44-.56,3.94,4.14,5.38,18.07,13.46,79.41,10.77,45.98,3.7,3.64,1.69-.77,5.38-12.3,8.08-40.71,16.15-88.16,5.95-9.31,2.13,1.22,5.38,13.47,8.08,41.8,16.15,86.76,5.51,8.01,2.57-1.77,5.38-14.62,10.77-59.86,13.46-68.2,5.07-6.8,3.01,2.42,5.38,15.75,10.77,60.88,10.77,58.24,5.38,12.95,1.93,1,3.45-3.18,5.38-16.86,10.77-61.82,10.77-57.02,5.38-11.77,1.49-.6,3.89,4.03,5.38,17.94,13.46,79.34,10.77,46.19,3.75,3.74,1.64-.72,5.38-12.16,8.08-40.58,16.15-88.31,6-9.47,2.08,1.16,5.38,13.33,8.08,41.67,16.15,86.93,5.56,8.16,2.52-1.7,5.38-14.48,10.77-59.73,13.46-68.39,5.12-6.94,2.96,2.34,5.38,15.62,10.77,60.76,10.77,58.38,5.38,13.09,1.99,1.06,3.4-3.09,5.38-16.73,10.77-61.71,10.77-57.17,5.38-11.91,1.55-.64,3.84,3.93,5.38,17.82,13.46,79.26,10.77,46.39,3.8,3.85,1.59-.68,5.38-12.02,8.08-40.45,16.15-88.46,6.05-9.63,2.03,1.1,5.38,13.2,8.08,41.55,16.15,87.09,5.61,8.31,2.47-1.63,5.38-14.35,10.77-59.61,13.46-68.58,5.17-7.07,2.91,2.26,5.38,15.49,10.77,60.65,10.77,58.51,5.38,13.22,2.04,1.11,3.35-2.99,5.38-16.6,10.77-61.61,10.77-57.31,5.38-12.05,1.6-.68,3.79,3.82,5.38,17.69,13.46,79.18,10.77,46.6,3.85,3.95,1.54-.63,5.38-11.88,8.08-40.32,16.15-88.62,6.1-9.79,1.98,1.05,5.38,13.06,8.08,41.42,16.15,87.26,5.66,8.46,2.42-1.56,5.38-14.22,10.77-59.48,13.46-68.77,5.22-7.21,2.86,2.18,5.38,15.35,10.77,60.53,10.77,58.65,5.38,13.36,2.09,1.17,3.3-2.9,5.38-16.47,10.77-61.5,10.77-57.46,5.38-12.19,1.65-.73,3.74,3.72,5.38,17.57,13.46,79.1,10.77,46.8,3.9,4.06,1.48-.59,5.38-11.74,8.08-40.19,16.15-88.77,6.15-9.95,1.92.99,5.38,12.92,8.08,41.3,16.15,87.43,5.71,8.61,2.36-1.5,5.38-14.08,10.77-59.35,13.46-68.96,5.27-7.35,2.8,2.1,5.38,15.22,10.77,60.41,10.77,58.78,5.38,13.49,2.14,1.23,3.24-2.81,5.38-16.34,10.77-61.39,10.77-57.6,5.38-12.33,1.7-.78,3.68,3.62,5.38,17.44,13.46,79.02,10.77,47.01,3.95,4.16,1.43-.55,5.38-11.61,8.08-40.06,16.15-88.92,6.2-10.12,1.87.94,5.38,12.79,8.08,41.17,16.15,87.59,5.76,8.76,2.31-1.43,5.38-13.95,8.08-42.23,16.15-86.14,5.32-7.5,2.75,2.03,5.38,15.09,10.77,60.29,10.77,58.92,5.38,13.63,2.19,1.29,3.19-2.72,5.38-16.21,10.77-61.28,10.77-57.74,5.38-12.46,1.75-.82,3.63,3.52,5.38,17.31,10.77,62.18,10.77,56.49,6.7,11.74,1.38-.51,5.38-11.47,8.08-39.92,16.15-89.06,6.26-10.28,1.82.89,5.38,12.65,8.08,41.04,16.15,87.75,5.82,8.91,2.26-1.37,5.38-13.81,8.08-42.11,16.15-86.32,5.38-7.64,2.7,1.95,5.38,14.96,10.77,60.17,10.77,59.05,5.38,13.77,2.24,1.35,3.14-2.64,5.38-16.08,10.77-61.17,10.77-57.89,5.38-12.6,1.8-.87,3.58,3.42,5.38,17.18,10.77,62.08,10.77,56.64,5.38,11.42,1.36.5,4.02-4.31,5.38-18.26,13.46-79.53,8.08-38.7,6.31-10.45,1.77.84,5.38,12.51,8.08,40.91,16.15,87.91,5.87,9.07,2.21-1.31,5.38-13.68,8.08-41.99,16.15-86.49,5.43-7.78,2.65,1.88,5.38,14.82,10.77,60.05,10.77,59.18,5.38,13.9,2.29,1.41,3.09-2.55,5.38-15.95s7.69-43.61,10.08-57.12" fill="none" stroke="#307eef" stroke-linecap="round" stroke-linejoin="round" stroke-width="3"/>
    <path d="m259.49,252.26c3.97-24.06,10.48-63.59,10.48-63.59l8.08-39.11,5.72-9.18,2.36,1.59,5.38,14.95,10.77,62.17,10.77,59.65,5.38,12.31,1.42.58,3.96-4.46,5.38-19.23,24.23-125.76,2.51-1.8,2.87,2.36,5.38,16.36,10.77,63.38,10.77,58.09,6.29,11.06,1.79-.91,5.38-13.35,8.08-43.13,13.46-78.78,5.38-13.93,1.99-1.14,3.39,3.27,5.38,17.74,13.46,81.6,8.08,39.27,5.77,9.35,2.3-1.51,5.38-14.8,10.77-62.03,10.77-59.81,5.38-12.47,1.48-.62,3.91,4.33,5.38,19.09,26.8,127.83,2.82-2.27,5.38-16.21,10.77-63.25,10.77-58.27,6.35-11.25,1.73.86,5.38,13.19,8.08,42.99,16.15,87.85,4.74,6.35,3.34-3.17,5.38-17.6,13.46-81.51,8.08-39.44,5.83-9.53,2.25,1.44,5.38,14.64,10.77,61.89,10.77,59.97,5.38,12.63,1.53.67,3.85-4.21,5.38-18.94,26.85-128.09,2.76,2.18,5.38,16.06,10.77,63.13,10.77,58.44,6.4,11.44,1.68-.8,5.38-13.04,8.08-42.85,16.15-88.06,4.8-6.5,3.28,3.06,5.38,17.45,10.77,64.24,10.77,56.79,5.89,9.71,2.19-1.37,5.38-14.49,10.77-61.75,10.77-60.13,5.38-12.79,1.59-.72,3.8,4.09,5.38,18.8,26.91,128.35,2.71-2.09,5.38-15.91,10.77-63,10.77-58.61,6.46-11.64,1.62.75,5.38,12.88,8.08,42.71,16.15,88.26,4.85,6.65,3.22-2.96,5.38-17.3,10.77-64.12,10.77-56.97,5.94-9.89,2.14,1.3,5.38,14.33,10.77,61.61,10.77,60.28,5.38,12.95,1.64.77,3.74-3.97,5.38-18.66,26.96-128.62,2.65,2.01,5.38,15.76,10.77,62.87,10.77,58.78,6.51,11.83,1.56-.7,5.38-12.72,8.08-42.56,16.15-88.47,4.91-6.8,3.17,2.86,5.38,17.15,10.77,64.01,10.77,57.15,6,10.07,2.08-1.24,5.38-14.18,8.08-43.87,13.46-78.03,5.38-13.11,1.7-.83,3.68,3.86,5.38,18.51,13.46,82.05,8.08,38.39,5.48,8.44,2.6-1.92,5.38-15.61,10.77-62.74,10.77-58.95,6.57-12.03,1.51.65,5.38,12.56,8.08,42.42,16.15,88.67,4.96,6.95,3.11-2.76,5.38-17,10.77-63.89,10.77-57.33,6.05-10.26,2.02,1.17,5.38,14.02,8.08,43.73,13.46,78.18,5.38,13.26,1.76.88,3.63-3.74,5.38-18.37,13.46-81.97,8.08-38.56,5.54-8.61,2.54,1.84,5.38,15.45,10.77,62.61,10.77,59.11,6.62,12.23,1.45-.6,5.38-12.4,8.08-42.27,16.15-88.87,5.02-7.11,3.06,2.66,5.38,16.86,10.77,63.78,10.77,57.51,6.11,10.44,1.97-1.11,5.38-13.87,8.08-43.59,13.46-78.32,5.38-13.42,1.81-.94,3.57,3.63,5.38,18.22,13.46,81.89,8.08,38.73,5.59,8.78,2.49-1.76,5.38-15.3,10.77-62.48,10.77-59.28,6.68-12.43,1.4.56,5.38,12.24,8.08,42.12,16.15,89.06,5.08,7.26,3-2.57,5.38-16.71,10.77-63.66,10.77-57.69,6.16-10.63,1.91,1.05,5.38,13.71,8.08,43.46,13.46,78.46,5.38,13.58,1.87,1,3.52-3.52,5.38-18.08,13.46-81.8,8.08-38.89,5.65-8.96,2.43,1.69,5.38,15.15,10.77,62.34,10.77,59.44,5.38,12.11,1.35.52,4.03-4.62,5.38-19.41,24.23-125.52,2.44-1.7,2.95,2.47,5.38,16.56,10.77,63.54,10.77,57.87,6.22,10.81,1.86-.99,5.38-13.55,8.08-43.32,13.46-78.6,5.38-13.73,1.92-1.06,3.46,3.41,5.38,17.93,13.46,81.72,8.08,39.06,5.7,9.13,2.37-1.61,5.38-15,10.77-62.21,10.77-59.6,5.38-12.27,1.41-.57,3.98,4.49,5.38,19.27,24.23,125.71,2.49,1.78,2.89-2.38,5.38-16.41,10.77-63.41,10.77-58.04,6.27-11,1.8.93,5.38,13.4,8.08,43.18,13.46,78.74,5.38,13.89,1.98,1.12,3.41-3.3,5.38-17.79,13.46-81.63,8.08-39.23,5.76-9.3,2.32,1.54,5.38,14.84,10.77,62.07,10.77,59.76,5.38,12.43,1.46.61,3.92-4.37,5.38-19.13,26.78-127.75,2.84,2.29,5.38,16.26,10.77,63.29,10.77,58.22,6.33,11.19,1.75-.87,5.38-13.24,8.08-43.03,16.15-87.79,4.73-6.31,3.35,3.2,5.38,17.64,13.46,81.54,8.08,39.39,5.81,9.48,2.26-1.46,5.38-14.69,10.77-61.93,10.77-59.92,5.38-12.59,1.52-.66,3.87,4.25,5.38,18.99,26.84,128.02,2.78-2.2,5.38-16.11,10.77-63.16,10.77-58.39,6.39-11.39,1.69.82,5.38,13.08,8.08,42.89,16.15,88,4.78,6.46,3.3-3.09,5.38-17.49,10.77-64.27,10.77-56.74,5.87-9.66,2.21,1.39,5.38,14.53,10.77,61.79,10.77,60.08,5.38,12.74,1.57.71,3.81-4.13,5.38-18.84,26.89-128.28,2.72,2.12,5.38,15.95s7.21,42.22,9.83,57.55" fill="none" stroke="#307eef" stroke-linecap="round" stroke-linejoin="round" stroke-width="3"/>
  </g>
  <g id="Ebene_5" data-name="Ebene 5">
    <rect x="1836.56" y="110.43" width="71.44" height="1159.2" fill="#c9d1d9" isolation="isolate" opacity=".15"/>
    <rect x="681.7" y="110.43" width="71.44" height="1159.2" fill="#c9d1d9" isolation="isolate" opacity=".15"/>
  </g>
</svg>