<?xml version="1.0" encoding="UTF-8"?>
<svg xmlns="http://www.w3.org/2000/svg" viewBox="0 0 2700 1375.2">
  <defs>
    <style>
      .cls-1 {
        stroke: #307eef;
      }

      .cls-1, .cls-2 {
        stroke-linecap: round;
        stroke-linejoin: round;
        stroke-width: 3px;
      }

      .cls-1, .cls-2, .cls-3 {
        fill: none;
      }

      .cls-2 {
        stroke: #d85648;
      }

      .cls-3 {
        stroke: #959698;
        stroke-miterlimit: 10;
        stroke-width: 5px;
      }

      .cls-4 {
        opacity: .15;
      }

      .cls-4, .cls-5, .cls-6 {
        fill: #c9d1d9;
      }

      .cls-5 {
        letter-spacing: 0em;
      }

      .cls-5, .cls-6 {
        font-family: Roboto-Regular, Roboto;
        font-size: 90px;
      }
    </style>
  </defs>
  <g id="Ebene_1" data-name="Ebene 1">
    <line class="cls-3" x1="259.2" y1="1252.8" x2="259.2" y2="907.2"/>
    <line class="cls-3" x1="252" y1="1080" x2="2671.2" y2="1080"/>
    <text class="cls-6" transform="translate(172.8 244.8)"><tspan x="0" y="0">f</tspan></text>
    <text class="cls-6" transform="translate(204.04 274.77) scale(.58)"><tspan x="0" y="0">1</tspan></text>
    <line class="cls-3" x1="259.2" y1="820.8" x2="259.2" y2="475.2"/>
    <line class="cls-3" x1="252" y1="648" x2="2671.2" y2="648"/>
    <line class="cls-3" x1="259.2" y1="388.8" x2="259.2" y2="43.2"/>
    <line class="cls-3" x1="252" y1="216" x2="2671.2" y2="216"/>
    <text class="cls-6" transform="translate(1565.1 72)"><tspan x="0" y="0">opposite phase</tspan></text>
    <text class="cls-6" transform="translate(548.98 72)"><tspan x="0" y="0">in phase</tspan></text>
    <text class="cls-6" transform="translate(172.8 676.8)"><tspan x="0" y="0">f</tspan></text>
    <text class="cls-6" transform="translate(204.04 706.77) scale(.58)"><tspan x="0" y="0">2</tspan></text>
    <text class="cls-6" transform="translate(16.51 1108.8)"><tspan x="0" y="0">f</tspan></text>
    <text class="cls-6" transform="translate(47.76 1138.77) scale(.58)"><tspan x="0" y="0">1</tspan></text>
    <text class="cls-6" transform="translate(77.22 1108.8)"><tspan x="0" y="0" xml:space="preserve"> + f</tspan></text>
    <text class="cls-5" transform="translate(204.04 1138.77) scale(.58)"><tspan x="0" y="0">2</tspan></text>
    <text class="cls-6" transform="translate(518.4 1339.2)"><tspan x="0" y="0">maximum</tspan></text>
    <text class="cls-6" transform="translate(1684.8 1339.2)"><tspan x="0" y="0">minimum</tspan></text>
  </g>
  <g id="Ebene_3" data-name="Ebene 3">
    <path class="cls-2" d="m259.2,1076.22l10.77-99.13,5.38-22.39,1.94-1.76,3.44,5.5,5.38,29.33,10.77,107.52,10.77,97.21,6.28,18.48,1.79-1.55,5.38-22.56,8.08-73.53,16.15-154.63,5.24-13.32,2.84,3.96,5.38,28.21,10.77,111.24,10.77,105.77,5.38,22.13,1.51,1.14,3.88-7.56,5.38-33.81,13.46-148.81,8.08-71.2,5.85-17.28,2.23,2.57,5.38,26.44,8.08,80.82,13.46,145.81,5.38,26.19,2.11,2.34,3.27-5.6,5.38-32.17,10.77-119.91,10.77-109.59,6.46-21.69,1.62,1.4,5.38,24.11,8.08,80.49,16.15,171.48,5.42,15.58,2.66-3.82,5.38-29.93,10.77-120.41,10.77-115.79,5.38-24.91,1.68-1.54,3.7,7.44,5.38,35.56,13.46,159.29,8.08,77.18,6.03,19.55,2.05-2.31,5.38-27.17,8.08-84.91,16.15-172.95,4.98-13.55,3.09,5.27,5.38,32.84,10.77,124.74,10.77,115.38,6.64,23.8,1.44-1.15,5.38-23.99,8.08-82.32,16.15-177.88,5.6-17.06,2.48,3.41,5.38,29.66,10.77,122.02,10.77,118.76,5.38,26.26,1.86,1.92,3.52-6.82,5.38-35.01,13.46-159.85,8.08-78.48,6.21-20.75,1.87,1.92,5.38,26.14,8.08,83.69,16.15,172.89,5.17,14.37,2.91-4.61,5.38-31.43,10.77-121.82,10.77-114.05,5.38-23.38,1.43-1.11,3.95,8.37,5.38,36.29,27.31,248.39,2.3-2.82,5.38-27.58,10.77-116.09,10.77-114.34,5.38-25.94,2.04-2.19,3.34,5.84,5.38,32.33,10.77,118.62,10.77,106.77,6.38,20.6,1.69-1.48,5.38-23.58,8.08-77.37,16.15-162.01,5.34-14.23,2.74,3.77,5.38,28.19,10.77,111.46,10.77,105.53,5.38,22.25,1.61,1.28,3.78-6.98,5.38-32.26,13.46-141.97,8.08-67.66,5.95-16.71,2.13,2.17,5.38,23.96,8.08,73.61,13.46,132.2,5.38,23.83,2.21,2.28,3.17-4.66,5.38-27.85,10.77-103.92,10.77-94.5,6.55-18.94,1.53,1.05,5.38,19.78,8.08,66.47,16.15,140.8,5.51,12.98,2.57-2.86,5.38-23.45,10.77-94.41,10.77-90.19,5.38-19.46,1.77-1.3,3.62,5.4,5.38,26.51,13.46,118.33,8.08,56.91,6.1,14.56,1.98-1.55,5.38-19.17,8.08-59.96,16.15-120.96,5.05-9.54,3.03,3.43,5.38,21.96,10.77,83.06,10.77,76,6.69,15.68,1.39-.68,5.38-15.13,8.08-51.81,16.15-110.43,5.64-10.53,2.44,1.99,5.38,17.63,10.77,71.88,10.77,68.89,5.38,15.07,1.88,1.11,3.5-3.79,5.38-19.49,13.46-87.61,8.08-42.2,6.21-11.02,1.87,1.01,5.38,13.62,8.08,42.99,16.15,86.67,5.14,6.97,2.94-2.28,5.38-15.15,10.77-57.43,10.77-52.31,5.38-10.4,1.37-.45,4.01,3.83,5.38,16.04,24.23,102.67,2.98,1.92,2.41-1.24,5.38-11.21,10.77-45.35,10.77-42.85,5.38-9.24,1.88-.67,3.51,2.31,5.38,11.75,27.68,82.36,1.94-.61,5.38-7.75,10.77-33.33,10.77-32.27,5.38-7.34,2.29-.73,3.1,1.3,5.38,7.93,13.46,36.26,8.08,17.29,6.46,4.67,1.62-.29,5.38-4.86,10.77-21.58,10.77-20.77,5.38-4.72,2.43-.51,2.95.72,5.38,4.66,27.74,32.52,1.87-.2,5.38-2.6,27.88-20.33,4.42.61,10.77,4.6,10.77,3.72,5.38.27,8.08-1.2,10.59-1.46,5.57.6,8.08,2.9,13.46,5.48,5.38.03,5.38-2.05,8.08-6.6,16.15-13.76,5.38-.15,5.38,3.31,8.08,10.53,16.15,22.38,4.05,1.35,4.03-1.4,5.38-6.11,10.77-22.13,10.77-19.95,5.41-3.13,2.67.8,5.38,6.4,8.08,19.17,13.46,34.87,5.38,5.91,1.5.31,3.89-2.1,5.38-9.54,10.77-34.33,10.77-30.85,5.73-5.21,2.35.91,5.38,8.8,8.08,27.09,16.15,55.66,4.61,3.95,3.47-2.3,5.38-12.27,10.77-45.76,10.77-42.22,6.2-8.01,1.88.77,5.38,10.47,8.08,34.18,16.15,72.89,5.11,6.15,2.97-2.13,5.38-14.27,10.77-56.21,10.77-53.83,6.73-11.59,1.35.49,5.38,11.39,8.08,40.3,16.15,90.06,5.66,9.03,2.42-1.7,5.38-15.51,10.77-65.51,10.77-65.44,5.38-14.82,1.9-1.13,3.48,3.79,5.38,19.95,10.77,73.41,10.77,66.79,6.23,12.63,1.85-1.15,5.38-16,8.08-52.07,16.15-110,5.18-9.36,2.9,3,5.38,20.73,10.77,81.62,10.77,77.82,5.38,16.18,1.43.77,3.95-5.88,5.38-25.65,13.46-112.76,8.08-53.99,5.76-12.89,2.31,2.13,5.38,20.76,8.08,63.05,13.46,113.78,5.38,20.28,2.02,1.7,3.36-4.69,5.38-25.93,10.77-96.17,10.77-87.82,6.36-17.07,1.72,1.28,5.38,20.07,8.08,66.3,16.15,140.94,5.31,12.48,2.76-3.43,5.38-25.46,10.77-101.61,10.77-97.49,5.38-20.71,1.58-1.16,3.81,6.72,5.38,30.91,13.46,137.55,8.08,66.42,5.92,16.44,2.16-2.24,5.38-24.3,8.08-75.12s1.28-12.03,3.11-29.33"/>
    <path class="cls-1" d="m259.49,608.87c2.83-15.37,5.09-27.65,5.09-27.65l5.79-8.85,2.28,1.4,5.38,13.87,8.08,42.16,16.15,86.24,5.35,7.57,2.72-1.99,5.38-15.02,10.77-60.23,10.77-58.99,5.38-13.7,2.22-1.32,3.16,2.68,5.38,16.14,10.77,61.22,10.77,57.82,5.38,12.54,1.78.85,3.6-3.47,5.38-17.24,10.77-62.13,10.77-56.57,6.72-11.84,1.35.49,5.38,11.39,8.08,39.85,16.15,89.14,6.28,10.37,1.79-.86,5.38-12.57,8.08-40.97,16.15-87.84,5.84-9,2.23,1.34,5.38,13.74,8.08,42.04,16.15,86.41,5.4,7.72,2.67-1.91,5.38-14.88,10.77-60.11,10.77-59.12,5.38-13.84,2.27-1.38,3.11,2.59,5.38,16.01,10.77,61.11,10.77,57.96,5.38,12.68,1.83.9,3.55-3.37,5.38-17.11,10.77-62.02,10.77-56.72,5.38-11.49,1.39-.52,3.99,4.25,5.38,18.2,13.46,79.49,8.08,38.77,6.34,10.54,1.74-.81,5.38-12.44,8.08-40.84,16.15-88,5.9-9.16,2.18,1.28,5.38,13.6,8.08,41.92,16.15,86.59,5.46,7.86,2.62-1.84,5.38-14.75,10.77-59.98,13.46-68.01,5.02-6.66,3.06,2.51,5.38,15.88,10.77,60.99,10.77,58.1,5.38,12.81,1.88.95,3.5-3.27,5.38-16.99,10.77-61.92,10.77-56.87,5.38-11.63,1.44-.56,3.94,4.14,5.38,18.07,13.46,79.41,10.77,45.98,3.7,3.64,1.69-.77,5.38-12.3,8.08-40.71,16.15-88.16,5.95-9.31,2.13,1.22,5.38,13.47,8.08,41.8,16.15,86.76,5.51,8.01,2.57-1.77,5.38-14.62,10.77-59.86,13.46-68.2,5.07-6.8,3.01,2.42,5.38,15.75,10.77,60.88,10.77,58.24,5.38,12.95,1.93,1,3.45-3.18,5.38-16.86,10.77-61.82,10.77-57.02,5.38-11.77,1.49-.6,3.89,4.03,5.38,17.94,13.46,79.34,10.77,46.19,3.75,3.74,1.64-.72,5.38-12.16,8.08-40.58,16.15-88.31,6-9.47,2.08,1.16,5.38,13.33,8.08,41.67,16.15,86.93,5.56,8.16,2.52-1.7,5.38-14.48,10.77-59.73,13.46-68.39,5.12-6.94,2.96,2.34,5.38,15.62,10.77,60.76,10.77,58.38,5.38,13.09,1.99,1.06,3.4-3.09,5.38-16.73,10.77-61.71,10.77-57.17,5.38-11.91,1.55-.64,3.84,3.93,5.38,17.82,13.46,79.26,10.77,46.39,3.8,3.85,1.59-.68,5.38-12.02,8.08-40.45,16.15-88.46,6.05-9.63,2.03,1.1,5.38,13.2,8.08,41.55,16.15,87.09,5.61,8.31,2.47-1.63,5.38-14.35,10.77-59.61,13.46-68.58,5.17-7.07,2.91,2.26,5.38,15.49,10.77,60.65,10.77,58.51,5.38,13.22,2.04,1.11,3.35-2.99,5.38-16.6,10.77-61.61,10.77-57.31,5.38-12.05,1.6-.68,3.79,3.82,5.38,17.69,13.46,79.18,10.77,46.6,3.85,3.95,1.54-.63,5.38-11.88,8.08-40.32,16.15-88.62,6.1-9.79,1.98,1.05,5.38,13.06,8.08,41.42,16.15,87.26,5.66,8.46,2.42-1.56,5.38-14.22,10.77-59.48,13.46-68.77,5.22-7.21,2.86,2.18,5.38,15.35,10.77,60.53,10.77,58.65,5.38,13.36,2.09,1.17,3.3-2.9,5.38-16.47,10.77-61.5,10.77-57.46,5.38-12.19,1.65-.73,3.74,3.72,5.38,17.57,13.46,79.1,10.77,46.8,3.9,4.06,1.48-.59,5.38-11.74,8.08-40.19,16.15-88.77,6.15-9.95,1.92.99,5.38,12.92,8.08,41.3,16.15,87.43,5.71,8.61,2.36-1.5,5.38-14.08,10.77-59.35,13.46-68.96,5.27-7.35,2.8,2.1,5.38,15.22,10.77,60.41,10.77,58.78,5.38,13.49,2.14,1.23,3.24-2.81,5.38-16.34,10.77-61.39,10.77-57.6,5.38-12.33,1.7-.78,3.68,3.62,5.38,17.44,13.46,79.02,10.77,47.01,3.95,4.16,1.43-.55,5.38-11.61,8.08-40.06,16.15-88.92,6.2-10.12,1.87.94,5.38,12.79,8.08,41.17,16.15,87.59,5.76,8.76,2.31-1.43,5.38-13.95,8.08-42.23,16.15-86.14,5.32-7.5,2.75,2.03,5.38,15.09,10.77,60.29,10.77,58.92,5.38,13.63,2.19,1.29,3.19-2.72,5.38-16.21,10.77-61.28,10.77-57.74,5.38-12.46,1.75-.82,3.63,3.52,5.38,17.31,10.77,62.18,10.77,56.49,6.7,11.74,1.38-.51,5.38-11.47,8.08-39.92,16.15-89.06,6.26-10.28,1.82.89,5.38,12.65,8.08,41.04,16.15,87.75,5.82,8.91,2.26-1.37,5.38-13.81,8.08-42.11,16.15-86.32,5.38-7.64,2.7,1.95,5.38,14.96,10.77,60.17,10.77,59.05,5.38,13.77,2.24,1.35,3.14-2.64,5.38-16.08,10.77-61.17,10.77-57.89,5.38-12.6,1.8-.87,3.58,3.42,5.38,17.18,10.77,62.08,10.77,56.64,5.38,11.42,1.36.5,4.02-4.31,5.38-18.26,13.46-79.53,8.08-38.7,6.31-10.45,1.77.84,5.38,12.51,8.08,40.91,16.15,87.91,5.87,9.07,2.21-1.31,5.38-13.68,8.08-41.99,16.15-86.49,5.43-7.78,2.65,1.88,5.38,14.82,10.77,60.05,10.77,59.18,5.38,13.9,2.29,1.41,3.09-2.55,5.38-15.95s7.69-43.61,10.08-57.12"/>
    <path class="cls-1" d="m259.49,252.26c3.97-24.06,10.48-63.59,10.48-63.59l8.08-39.11,5.72-9.18,2.36,1.59,5.38,14.95,10.77,62.17,10.77,59.65,5.38,12.31,1.42.58,3.96-4.46,5.38-19.23,24.23-125.76,2.51-1.8,2.87,2.36,5.38,16.36,10.77,63.38,10.77,58.09,6.29,11.06,1.79-.91,5.38-13.35,8.08-43.13,13.46-78.78,5.38-13.93,1.99-1.14,3.39,3.27,5.38,17.74,13.46,81.6,8.08,39.27,5.77,9.35,2.3-1.51,5.38-14.8,10.77-62.03,10.77-59.81,5.38-12.47,1.48-.62,3.91,4.33,5.38,19.09,26.8,127.83,2.82-2.27,5.38-16.21,10.77-63.25,10.77-58.27,6.35-11.25,1.73.86,5.38,13.19,8.08,42.99,16.15,87.85,4.74,6.35,3.34-3.17,5.38-17.6,13.46-81.51,8.08-39.44,5.83-9.53,2.25,1.44,5.38,14.64,10.77,61.89,10.77,59.97,5.38,12.63,1.53.67,3.85-4.21,5.38-18.94,26.85-128.09,2.76,2.18,5.38,16.06,10.77,63.13,10.77,58.44,6.4,11.44,1.68-.8,5.38-13.04,8.08-42.85,16.15-88.06,4.8-6.5,3.28,3.06,5.38,17.45,10.77,64.24,10.77,56.79,5.89,9.71,2.19-1.37,5.38-14.49,10.77-61.75,10.77-60.13,5.38-12.79,1.59-.72,3.8,4.09,5.38,18.8,26.91,128.35,2.71-2.09,5.38-15.91,10.77-63,10.77-58.61,6.46-11.64,1.62.75,5.38,12.88,8.08,42.71,16.15,88.26,4.85,6.65,3.22-2.96,5.38-17.3,10.77-64.12,10.77-56.97,5.94-9.89,2.14,1.3,5.38,14.33,10.77,61.61,10.77,60.28,5.38,12.95,1.64.77,3.74-3.97,5.38-18.66,26.96-128.62,2.65,2.01,5.38,15.76,10.77,62.87,10.77,58.78,6.51,11.83,1.56-.7,5.38-12.72,8.08-42.56,16.15-88.47,4.91-6.8,3.17,2.86,5.38,17.15,10.77,64.01,10.77,57.15,6,10.07,2.08-1.24,5.38-14.18,8.08-43.87,13.46-78.03,5.38-13.11,1.7-.83,3.68,3.86,5.38,18.51,13.46,82.05,8.08,38.39,5.48,8.44,2.6-1.92,5.38-15.61,10.77-62.74,10.77-58.95,6.57-12.03,1.51.65,5.38,12.56,8.08,42.42,16.15,88.67,4.96,6.95,3.11-2.76,5.38-17,10.77-63.89,10.77-57.33,6.05-10.26,2.02,1.17,5.38,14.02,8.08,43.73,13.46,78.18,5.38,13.26,1.76.88,3.63-3.74,5.38-18.37,13.46-81.97,8.08-38.56,5.54-8.61,2.54,1.84,5.38,15.45,10.77,62.61,10.77,59.11,6.62,12.23,1.45-.6,5.38-12.4,8.08-42.27,16.15-88.87,5.02-7.11,3.06,2.66,5.38,16.86,10.77,63.78,10.77,57.51,6.11,10.44,1.97-1.11,5.38-13.87,8.08-43.59,13.46-78.32,5.38-13.42,1.81-.94,3.57,3.63,5.38,18.22,13.46,81.89,8.08,38.73,5.59,8.78,2.49-1.76,5.38-15.3,10.77-62.48,10.77-59.28,6.68-12.43,1.4.56,5.38,12.24,8.08,42.12,16.15,89.06,5.08,7.26,3-2.57,5.38-16.71,10.77-63.66,10.77-57.69,6.16-10.63,1.91,1.05,5.38,13.71,8.08,43.46,13.46,78.46,5.38,13.58,1.87,1,3.52-3.52,5.38-18.08,13.46-81.8,8.08-38.89,5.65-8.96,2.43,1.69,5.38,15.15,10.77,62.34,10.77,59.44,5.38,12.11,1.35.52,4.03-4.62,5.38-19.41,24.23-125.52,2.44-1.7,2.95,2.47,5.38,16.56,10.77,63.54,10.77,57.87,6.22,10.81,1.86-.99,5.38-13.55,8.08-43.32,13.46-78.6,5.38-13.73,1.92-1.06,3.46,3.41,5.38,17.93,13.46,81.72,8.08,39.06,5.7,9.13,2.37-1.61,5.38-15,10.77-62.21,10.77-59.6,5.38-12.27,1.41-.57,3.98,4.49,5.38,19.27,24.23,125.71,2.49,1.78,2.89-2.38,5.38-16.41,10.77-63.41,10.77-58.04,6.27-11,1.8.93,5.38,13.4,8.08,43.18,13.46,78.74,5.38,13.89,1.98,1.12,3.41-3.3,5.38-17.79,13.46-81.63,8.08-39.23,5.76-9.3,2.32,1.54,5.38,14.84,10.77,62.07,10.77,59.76,5.38,12.43,1.46.61,3.92-4.37,5.38-19.13,26.78-127.75,2.84,2.29,5.38,16.26,10.77,63.29,10.77,58.22,6.33,11.19,1.75-.87,5.38-13.24,8.08-43.03,16.15-87.79,4.73-6.31,3.35,3.2,5.38,17.64,13.46,81.54,8.08,39.39,5.81,9.48,2.26-1.46,5.38-14.69,10.77-61.93,10.77-59.92,5.38-12.59,1.52-.66,3.87,4.25,5.38,18.99,26.84,128.02,2.78-2.2,5.38-16.11,10.77-63.16,10.77-58.39,6.39-11.39,1.69.82,5.38,13.08,8.08,42.89,16.15,88,4.78,6.46,3.3-3.09,5.38-17.49,10.77-64.27,10.77-56.74,5.87-9.66,2.21,1.39,5.38,14.53,10.77,61.79,10.77,60.08,5.38,12.74,1.57.71,3.81-4.13,5.38-18.84,26.89-128.28,2.72,2.12,5.38,15.95s7.21,42.22,9.83,57.55"/>
  </g>
  <g id="Ebene_5" data-name="Ebene 5">
    <rect class="cls-4" x="1836.56" y="110.43" width="71.44" height="1159.2"/>
    <rect class="cls-4" x="681.7" y="110.43" width="71.44" height="1159.2"/>
  </g>
</svg>