<?xml version="1.0" encoding="UTF-8"?>
<svg xmlns="http://www.w3.org/2000/svg" viewBox="0 0 1746 860.4">
  <defs>
    <style>
      .cls-1 {
        fill: #666;
      }

      .cls-2 {
        fill: #c9d1d9;
      }

      .cls-3, .cls-4, .cls-5 {
        fill: #c8d0d8;
      }

      .cls-6 {
        fill: #0d1117;
      }

      .cls-7, .cls-8, .cls-9, .cls-10, .cls-11 {
        fill: none;
        stroke-miterlimit: 10;
      }

      .cls-7, .cls-9 {
        stroke: #c9d1d9;
        stroke-width: 8.5px;
      }

      .cls-8 {
        stroke: #c8d0d8;
        stroke-dasharray: 0 0 8.02 8.02;
        stroke-width: 8.02px;
      }

      .cls-4 {
        opacity: .15;
      }

      .cls-9 {
        stroke-dasharray: 0 0 12.05 12.05;
      }

      .cls-10 {
        stroke: rgba(127, 127, 127, .5);
      }

      .cls-10, .cls-11 {
        stroke-width: 2.83px;
      }

      .cls-11 {
        stroke: #7f7f7f;
      }

      .cls-12 {
        isolation: isolate;
      }

      .cls-5 {
        opacity: .8;
      }
    </style>
  </defs>
  <g id="Ebene_5" data-name="Ebene 5">
    <polygon class="cls-11" points="136.23 58.64 136.23 734.4 1717.05 734.4 1717.05 58.59 136.23 58.64"/>
    <path class="cls-1" d="m356.85,734.13V58.5v675.63Zm152.9,0V58.5v675.63Zm153.92,0V58.5v675.63Zm213.93,0V58.5v675.63Zm147.76,0V58.5v675.63Zm147.23,0V58.5v675.63Zm233.44,0V58.5v675.63Zm154.53,0V58.5v675.63Zm0,0h0Z"/>
    <path class="cls-10" d="m356.85,734.13V58.5m152.9,675.63V58.5m153.92,675.63V58.5m213.93,675.63V58.5m147.76,675.63V58.5m147.23,675.63V58.5m233.44,675.63V58.5m154.53,675.63V58.5m0,675.63h0Z"/>
    <path class="cls-10" d="m136,689.06h1581.2m-1581.2-84.36h1581.2m-1581.2-84.16h1581.2M136,436.29h1581.2M136,351.93h1581.2M136,267.68h1581.2M136,183.84h1581.2M136,99.27h1581.2"/>
    <path class="cls-4" d="m1463.75,563.55c-100.37,51.89-179.18,50.49-305.54,50.81-148.81.38-153.41-23.43-281.58-51.46-65.78-14.38-138.1-25.04-202.46-40.14-90.5-21.23-181.41-71.63-276.41-98.58-44.89-12.74-80.64-16.51-65.24-52.49,22.06-42.77,136.96-55.95,201.71-64.07,75.21-9.43,151.93-10.53,228.48-8.45,57.07,1.56,138.04,17.72,195.3,27.21,99.53,16.4,193.61,19.45,296.07,43.66,96.42,22.79,104.69,32.18,187.65,60.85,50.22,17.35,106.19,36.36,97.36,76.62-4.85,22.12-48.31,42.29-75.35,56.03h0Z"/>
    <path class="cls-5" d="m938.89,485.7c-50.32-.32-54.41,2.83-100.85,8.58-49.59,5.78-117.15,6.25-163.84-6.28-21.06-5.66-52.92-24.92-43.22-41.15,14.95-25,120.96-51.13,163.38-56.57,53.84-6.91,183.21-7.9,237.74-3.5,64.06,5.16,124.66,16.74,184.97,30.13,60.11,13.53,134.24,33.8,169.71,67.05l2.76,2.75c17.3,21.35,21.02,59.36-31.8,64.23-28.98,2.67-101.97-2.6-127.91-10.84-17.38-5.52-36.99-13.92-55.98-20.16-43.85-14.39-94.14-31.56-144.8-34.07-29.49-1.46-60.45-.19-90.16-.17h0Z"/>
    <path class="cls-8" d="m1250.77,689.06c164.24-34.32,162.34-184.68,233.61-106.69,20.51,22.45,19.96,22.46,56.38,28.04,3.18.49,26.16.43,52.82-2.1"/>
    <path class="cls-3" d="m1688.12,371.55c-6.7,8.6-3.36,19.06-5.75,28.31-7.63,64.11-13.78,128.99-43.36,191.06-11.1,22.61-24.78,46.45-53.8,63.37-18.72,8.79-40.66,16.07-65.2,15.38-40.24,2.84-81.57,7.49-116.18,20.46-22.56,13.14-52.74,22.06-84.95,21.36-41.09-.2-81.98-5.23-118.02-17.04-25.17-6.36-53.75-5.21-80.73-7.33-92.18-4.62-183.67-13.83-274.09-25.41-112.71-17.8-224.59-40.09-325.43-75.17-82.57-27.82-156.87-63.3-223.15-103.42-45.8-26.63-90.42-54.16-133.4-82.44-4.22-3.97-14.62-.64-9.08,3.23,63.23,43.47,133.04,83.77,204.05,122.81,86.32,45.44,188.11,80.03,294.51,106.09,38.65,10.83,81.29,16.55,122.02,24.43,46.67,8.57,93.93,15.89,142.29,20.36,84.13,9.99,169.6,15.28,254.8,20.04,30.36,2.4,55.52,14.5,85.93,17.29,35.47,3.66,74.22,6.8,108.47-1.4,27.58-7.32,47.62-22.43,77.74-27.18,31.66-6.49,65.44-8.25,98.34-10.98,48.51-7.37,80.75-33.76,95.99-60.78,18.14-30.71,30.38-62.46,37.07-94.75,10.45-46.95,17.62-94.37,20.04-141.76.29-2.88-.53-9.64-8.09-6.55h0s0,0,0,0Z"/>
  </g>
  <g id="Ebene_4" data-name="Ebene 4">
    <path class="cls-3" d="m896.13,104.84c-84.56.95-169.12,3.29-253.49,6.69-88.23,7.27-81.03,7.27-125.2,13.08-73.04,10.6-87.58,15.64-156.11,33.98-7.99,1.04-6.94,8.79,1.59,7.6.34-.05.67-.13,1-.22,50.36-14.48,46.93-15.58,100.49-25.57,59.78-11.5,111.6-14.4,155.61-18.44,233.19-13.96,352.69-10.91,588.02-5.8,73.27,1.37,145.61,8.66,215.87,20.89,80.39,12.77,162.7,29.34,226.12,62.35,16.22,8.34,28.77,19.12,42.35,28.66,7.15,3.25,11.37-3.62,5.71-6.21-42.15-35.89-107.64-59.19-175.85-74.09-71.88-15.49-146.4-27.3-222.02-34.32-94.48-6.96-190.19-6.49-285.31-8.13-39.59-.41-79.19-.59-118.78-.48h0s0,0,0,0Z"/>
  </g>
  <g id="Ebene_3" data-name="Ebene 3">
    <g>
      <path class="cls-7" d="m136.8,122.4c.27.05,2.57.51,5.88,1.18"/>
      <path class="cls-9" d="m154.5,125.94c8.82,1.76,17.74,3.55,18.3,3.66,84.27,16.85,86.12,17.2,90,18,46.55,9.57,83.34,21.28,129.6,36,89.59,28.52,83.75,33.27,151.2,54,71.24,21.89,129.6,32.52,169.2,39.6,49.66,8.88,89.7,13.66,126,18,16.07,1.92,55.66,6.51,108,10.8,32.89,2.7,49.28,3.51,248.4,10.8,54.93,2.01,84.2,2.99,126,0,26.64-1.91,30.54-3.43,75.6-7.2,48.29-4.04,54.47-3.18,108-7.2,52.1-3.92,78.67-5.97,104.4-10.8,32.05-6.02,58.78-14.07,78.71-21.09"/>
      <path class="cls-7" d="m1693.58,268.49c1.95-.71,3.83-1.41,5.62-2.09"/>
    </g>
  </g>
  <g id="Text">
    <g id="trsvg25" class="cls-12">
      <g class="cls-12">
        <path class="cls-3" d="m42.42,114.03v-26.88c-1.23,1.06-2.39,1.96-3.47,2.68s-2.28,1.34-3.61,1.84v-3.98c.69-.33,1.41-.74,2.18-1.23s1.64-1.22,2.61-2.18,2.11-2.29,3.39-4h3.02v33.75h-4.12Z"/>
        <path class="cls-3" d="m69,114.03v-11.16h.05v-19.97l1.03,2.25-14.95,17.77-1.41-1.22h23.34v3.61h-25.22v-4.03l17.79-21h3.49v33.75h-4.12Z"/>
        <path class="cls-3" d="m93.33,114.59c-3.91,0-6.94-1.53-9.09-4.58s-3.23-7.34-3.23-12.86,1.08-9.8,3.23-12.86,5.19-4.58,9.09-4.58,6.96,1.53,9.11,4.58,3.22,7.34,3.22,12.86-1.07,9.8-3.22,12.86-5.18,4.58-9.11,4.58Zm0-3.38c2.59,0,4.55-1.2,5.88-3.59s1.99-5.88,1.99-10.48-.66-8.09-1.99-10.48-3.29-3.59-5.88-3.59-4.55,1.2-5.88,3.59-1.99,5.88-1.99,10.48.66,8.09,1.99,10.48,3.29,3.59,5.88,3.59Z"/>
      </g>
    </g>
    <g id="trsvg26" class="cls-12">
      <g class="cls-12">
        <path class="cls-3" d="m42.8,198.59v-26.88c-1.23,1.06-2.39,1.96-3.47,2.68s-2.28,1.34-3.61,1.84v-3.98c.69-.33,1.41-.74,2.18-1.23s1.64-1.22,2.61-2.18,2.11-2.29,3.39-4h3.02v33.75h-4.12Z"/>
        <path class="cls-3" d="m52.52,198.59v-2.77l11.86-10.05c1.61-1.38,2.93-2.62,3.95-3.75s1.78-2.27,2.26-3.42.73-2.45.73-3.87c0-1.55-.27-2.85-.81-3.9s-1.32-1.85-2.33-2.38-2.26-.8-3.73-.8c-1.69,0-3.05.33-4.09,1s-1.81,1.56-2.32,2.68-.81,2.39-.9,3.8l-4.5-1.38c.09-1.5.64-2.98,1.63-4.43s2.36-2.66,4.09-3.61,3.76-1.43,6.07-1.43c1.31,0,2.63.19,3.96.56s2.55.97,3.67,1.79,2.02,1.89,2.7,3.21,1.02,2.92,1.02,4.79c0,2.67-.73,5.06-2.18,7.16s-3.48,4.21-6.09,6.32l-9.16,7.43-2.98-.56h21.07v3.61h-23.91Z"/>
        <path class="cls-3" d="m93.33,199.15c-3.91,0-6.94-1.53-9.09-4.58s-3.23-7.34-3.23-12.86,1.08-9.8,3.23-12.86,5.19-4.58,9.09-4.58,6.96,1.53,9.11,4.58,3.22,7.34,3.22,12.86-1.07,9.8-3.22,12.86-5.18,4.58-9.11,4.58Zm0-3.38c2.59,0,4.55-1.2,5.88-3.59s1.99-5.88,1.99-10.48-.66-8.09-1.99-10.48-3.29-3.59-5.88-3.59-4.55,1.2-5.88,3.59-1.99,5.88-1.99,10.48.66,8.09,1.99,10.48,3.29,3.59,5.88,3.59Z"/>
      </g>
    </g>
    <g id="trsvg27" class="cls-12">
      <g class="cls-12">
        <path class="cls-3" d="m40.27,282.44v-26.88c-1.23,1.06-2.39,1.96-3.47,2.68s-2.28,1.34-3.61,1.84v-3.98c.69-.33,1.41-.74,2.18-1.23s1.64-1.22,2.61-2.18,2.11-2.29,3.39-4h3.02v33.75h-4.12Z"/>
        <path class="cls-3" d="m62.91,283c-3.91,0-6.94-1.53-9.09-4.58s-3.23-7.34-3.23-12.86,1.08-9.8,3.23-12.86,5.19-4.58,9.09-4.58,6.96,1.53,9.11,4.58,3.22,7.34,3.22,12.86-1.07,9.8-3.22,12.86-5.18,4.58-9.11,4.58Zm0-3.38c2.59,0,4.55-1.2,5.88-3.59s1.99-5.88,1.99-10.48-.66-8.09-1.99-10.48-3.29-3.59-5.88-3.59-4.55,1.2-5.88,3.59-1.99,5.88-1.99,10.48.66,8.09,1.99,10.48,3.29,3.59,5.88,3.59Z"/>
        <path class="cls-3" d="m93.33,283c-3.91,0-6.94-1.53-9.09-4.58s-3.23-7.34-3.23-12.86,1.08-9.8,3.23-12.86,5.19-4.58,9.09-4.58,6.96,1.53,9.11,4.58,3.22,7.34,3.22,12.86-1.07,9.8-3.22,12.86-5.18,4.58-9.11,4.58Zm0-3.38c2.59,0,4.55-1.2,5.88-3.59s1.99-5.88,1.99-10.48-.66-8.09-1.99-10.48-3.29-3.59-5.88-3.59-4.55,1.2-5.88,3.59-1.99,5.88-1.99,10.48.66,8.09,1.99,10.48,3.29,3.59,5.88,3.59Z"/>
      </g>
    </g>
    <g id="trsvg28" class="cls-12">
      <g class="cls-12">
        <path class="cls-3" d="m63.75,367.25c-2.31,0-4.36-.43-6.15-1.28s-3.19-2.04-4.2-3.57-1.51-3.3-1.51-5.3c0-2.14.64-4.06,1.92-5.75s3.16-2.77,5.62-3.22c-1.3-.31-2.43-.8-3.4-1.48s-1.71-1.5-2.24-2.47-.79-2.07-.79-3.27c0-1.64.46-3.11,1.37-4.4s2.18-2.3,3.8-3.04,3.48-1.1,5.59-1.1,3.99.37,5.59,1.1,2.86,1.75,3.76,3.04,1.36,2.75,1.36,4.4c0,1.2-.26,2.29-.79,3.27s-1.26,1.8-2.21,2.47-2.08,1.16-3.38,1.48c2.47.45,4.34,1.53,5.62,3.22s1.92,3.61,1.92,5.75c0,2-.51,3.77-1.52,5.3s-2.42,2.72-4.21,3.57-3.85,1.28-6.18,1.28Zm.02-3.7c2.33,0,4.16-.6,5.51-1.8s2.02-2.85,2.02-4.95-.67-3.68-2.02-4.91-3.18-1.84-5.51-1.84-4.15.61-5.52,1.84-2.05,2.86-2.05,4.91.68,3.76,2.05,4.96,3.21,1.79,5.52,1.79Zm0-16.97c2.02,0,3.6-.46,4.76-1.38s1.73-2.2,1.73-3.84-.58-3.06-1.73-4.07-2.74-1.51-4.76-1.51-3.61.5-4.78,1.51-1.76,2.36-1.76,4.07.59,2.92,1.76,3.84,2.77,1.38,4.78,1.38Z"/>
        <path class="cls-3" d="m93.33,367.25c-3.91,0-6.94-1.53-9.09-4.58s-3.23-7.34-3.23-12.86,1.08-9.8,3.23-12.86c2.16-3.05,5.19-4.58,9.09-4.58s6.96,1.53,9.11,4.58c2.15,3.06,3.22,7.34,3.22,12.86s-1.07,9.8-3.22,12.86-5.18,4.58-9.11,4.58Zm0-3.38c2.59,0,4.55-1.2,5.88-3.59s1.99-5.88,1.99-10.48-.66-8.09-1.99-10.48c-1.33-2.39-3.29-3.59-5.88-3.59s-4.55,1.2-5.88,3.59c-1.33,2.39-1.99,5.88-1.99,10.48s.66,8.09,1.99,10.48,3.29,3.59,5.88,3.59Z"/>
      </g>
    </g>
    <g id="trsvg29" class="cls-12">
      <g class="cls-12">
        <path class="cls-3" d="m63.89,451.61c-4.09,0-7.2-1.5-9.32-4.5s-3.18-7.09-3.18-12.26c0-2.53.26-4.89.77-7.09s1.3-4.12,2.36-5.77,2.38-2.94,3.97-3.87,3.47-1.39,5.62-1.39,4.14.46,5.78,1.37,2.92,2.06,3.86,3.43,1.48,2.77,1.64,4.2l-4.29,1.1c-.09-2.02-.75-3.64-1.96-4.88s-2.86-1.85-4.96-1.85c-1.58,0-2.89.34-3.94,1.03s-1.89,1.59-2.52,2.72-1.11,2.36-1.43,3.69-.53,2.66-.63,3.97-.15,2.49-.15,3.54l-.38-.38c.66-1.53,1.75-2.89,3.27-4.08s3.51-1.78,5.96-1.78c1.97,0,3.79.44,5.45,1.32s3,2.17,4,3.87,1.5,3.76,1.5,6.2-.48,4.32-1.43,6.04-2.29,3.03-4.01,3.96-3.72,1.39-6,1.39Zm0-3.38c2.3,0,4.07-.72,5.33-2.17s1.89-3.42,1.89-5.92-.62-4.47-1.88-5.86-2.98-2.09-5.2-2.09-4.12.72-5.52,2.17-2.1,3.42-2.1,5.92.68,4.37,2.03,5.8,3.17,2.14,5.45,2.14Z"/>
        <path class="cls-3" d="m93.33,451.61c-3.91,0-6.94-1.53-9.09-4.58s-3.23-7.34-3.23-12.86,1.08-9.8,3.23-12.86,5.19-4.58,9.09-4.58,6.96,1.53,9.11,4.58,3.22,7.34,3.22,12.86-1.07,9.8-3.22,12.86-5.18,4.58-9.11,4.58Zm0-3.38c2.59,0,4.55-1.2,5.88-3.59s1.99-5.88,1.99-10.48-.66-8.09-1.99-10.48-3.29-3.59-5.88-3.59-4.55,1.2-5.88,3.59-1.99,5.88-1.99,10.48.66,8.09,1.99,10.48,3.29,3.59,5.88,3.59Z"/>
      </g>
    </g>
    <g id="trsvg30" class="cls-12">
      <g class="cls-12">
        <path class="cls-3" d="m69,535.29v-11.16h.05v-19.97l1.03,2.25-14.95,17.77-1.41-1.22h23.34v3.61h-25.22v-4.03l17.79-21h3.49v33.75h-4.12Z"/>
        <path class="cls-3" d="m93.33,535.86c-3.91,0-6.94-1.53-9.09-4.58s-3.23-7.34-3.23-12.86,1.08-9.8,3.23-12.86,5.19-4.58,9.09-4.58,6.96,1.53,9.11,4.58,3.22,7.34,3.22,12.86-1.07,9.8-3.22,12.86-5.18,4.58-9.11,4.58Zm0-3.38c2.59,0,4.55-1.2,5.88-3.59s1.99-5.88,1.99-10.48-.66-8.09-1.99-10.48-3.29-3.59-5.88-3.59-4.55,1.2-5.88,3.59-1.99,5.88-1.99,10.48.66,8.09,1.99,10.48,3.29,3.59,5.88,3.59Z"/>
      </g>
    </g>
    <g id="trsvg31" class="cls-12">
      <g class="cls-12">
        <path class="cls-3" d="m52.52,619.45v-2.77l11.86-10.05c1.61-1.38,2.93-2.62,3.95-3.75s1.78-2.27,2.26-3.42.73-2.45.73-3.87c0-1.55-.27-2.85-.81-3.9s-1.32-1.85-2.33-2.38-2.26-.8-3.73-.8c-1.69,0-3.05.33-4.09,1s-1.81,1.56-2.32,2.68-.81,2.39-.9,3.8l-4.5-1.38c.09-1.5.64-2.98,1.63-4.43s2.36-2.66,4.09-3.61,3.76-1.43,6.07-1.43c1.31,0,2.63.19,3.96.56s2.55.97,3.67,1.79,2.02,1.89,2.7,3.21,1.02,2.92,1.02,4.79c0,2.67-.73,5.06-2.18,7.16s-3.48,4.21-6.09,6.32l-9.16,7.43-2.98-.56h21.07v3.61h-23.91Z"/>
        <path class="cls-3" d="m93.33,620.02c-3.91,0-6.94-1.53-9.09-4.58s-3.23-7.34-3.23-12.86,1.08-9.8,3.23-12.86,5.19-4.58,9.09-4.58,6.96,1.53,9.11,4.58,3.22,7.34,3.22,12.86-1.07,9.8-3.22,12.86-5.18,4.58-9.11,4.58Zm0-3.38c2.59,0,4.55-1.2,5.88-3.59s1.99-5.88,1.99-10.48-.66-8.09-1.99-10.48-3.29-3.59-5.88-3.59-4.55,1.2-5.88,3.59-1.99,5.88-1.99,10.48.66,8.09,1.99,10.48,3.29,3.59,5.88,3.59Z"/>
      </g>
    </g>
    <g id="trsvg32" class="cls-12">
      <g class="cls-12">
        <path class="cls-3" d="m93.33,704.38c-3.91,0-6.94-1.53-9.09-4.58s-3.23-7.34-3.23-12.86,1.08-9.8,3.23-12.86,5.19-4.58,9.09-4.58,6.96,1.53,9.11,4.58,3.22,7.34,3.22,12.86-1.07,9.8-3.22,12.86-5.18,4.58-9.11,4.58Zm0-3.38c2.59,0,4.55-1.2,5.88-3.59s1.99-5.88,1.99-10.48-.66-8.09-1.99-10.48-3.29-3.59-5.88-3.59-4.55,1.2-5.88,3.59-1.99,5.88-1.99,10.48.66,8.09,1.99,10.48,3.29,3.59,5.88,3.59Z"/>
      </g>
    </g>
    <g id="trsvg33" class="cls-12">
      <g class="cls-12">
        <path class="cls-3" d="m26.51,65.52V22.44h9.56v3.28h-6v36.52h6v3.28h-9.56Z"/>
        <path class="cls-3" d="m47.51,58.16c-2.05,0-3.86-.54-5.43-1.62s-2.79-2.61-3.67-4.59-1.31-4.33-1.31-7.03.44-5.04,1.32-7.02,2.11-3.5,3.67-4.57,3.37-1.61,5.41-1.61c1.66,0,3.3.41,4.92,1.24s2.85,2.23,3.68,4.2l-.45.19v-14.91h3.94v35.16h-3.7v-5.27l.12.38c-.69,1.84-1.83,3.21-3.42,4.11s-3.29,1.35-5.09,1.35Zm1.03-3.28c1.33,0,2.54-.34,3.63-1.03s1.97-1.76,2.62-3.22.98-3.33.98-5.61c0-3.41-.7-5.93-2.11-7.56s-3.1-2.45-5.09-2.45c-2.09,0-3.81.86-5.16,2.59s-2.02,4.2-2.02,7.42.65,5.55,1.95,7.28,3.02,2.59,5.18,2.59Z"/>
        <path class="cls-3" d="m67.27,57.6V23.85h12.87c3.3,0,5.94.68,7.92,2.03s2.98,3.33,2.98,5.94c0,1.59-.35,2.92-1.05,3.97s-1.61,1.87-2.71,2.44-2.26.93-3.48,1.07l.07-.09c2.47.41,4.5,1.38,6.08,2.91s2.38,3.67,2.38,6.42c0,2.23-.52,4.02-1.56,5.34s-2.42,2.28-4.14,2.86-3.6.87-5.65.87h-13.71Zm4.22-20.06h8.44c1.84,0,3.42-.39,4.73-1.18s1.97-2.11,1.97-3.97c0-1.48-.5-2.7-1.51-3.64s-2.66-1.42-4.96-1.42h-8.67v10.22Zm0,16.59h9.49c1.83,0,3.26-.32,4.29-.95s1.75-1.44,2.17-2.43.62-2.01.62-3.07c0-1.52-.35-2.77-1.05-3.75s-1.7-1.72-2.98-2.2-2.8-.73-4.55-.73h-7.99v13.12Z"/>
        <path class="cls-3" d="m104.16,65.52h-9.56v-3.28h6V25.73h-6v-3.28h9.56v43.08Z"/>
      </g>
    </g>
    <g id="trsvg34" class="cls-12">
      <g class="cls-12">
        <path class="cls-3" d="m102.47,790.24c-3.91,0-6.94-1.53-9.09-4.58s-3.23-7.34-3.23-12.86,1.08-9.8,3.23-12.86,5.19-4.58,9.09-4.58,6.96,1.53,9.11,4.58,3.22,7.34,3.22,12.86-1.07,9.8-3.22,12.86-5.18,4.58-9.11,4.58Zm0-3.38c2.59,0,4.55-1.2,5.88-3.59s1.99-5.88,1.99-10.48-.66-8.09-1.99-10.48-3.29-3.59-5.88-3.59-4.55,1.2-5.88,3.59-1.99,5.88-1.99,10.48.66,8.09,1.99,10.48,3.29,3.59,5.88,3.59Z"/>
        <path class="cls-3" d="m119.74,797.15l-1.41-2.02.77-.56c.88-.64,1.52-1.28,1.95-1.91s.63-1.36.63-2.17v-1.1l.56.84c-.97,0-1.79-.33-2.47-.98s-1.02-1.48-1.02-2.48.34-1.86,1.03-2.54,1.52-1.02,2.48-1.02c.56,0,1.13.14,1.7.42s1.05.75,1.43,1.39.57,1.53.57,2.64c0,1.47-.41,2.97-1.23,4.5s-2.07,2.9-3.76,4.1l-1.24.89Z"/>
        <path class="cls-3" d="m142.61,790.24c-3.91,0-6.94-1.53-9.09-4.58s-3.23-7.34-3.23-12.86,1.08-9.8,3.23-12.86,5.19-4.58,9.09-4.58,6.96,1.53,9.11,4.58,3.22,7.34,3.22,12.86-1.07,9.8-3.22,12.86-5.18,4.58-9.11,4.58Zm0-3.38c2.59,0,4.55-1.2,5.88-3.59s1.99-5.88,1.99-10.48-.66-8.09-1.99-10.48-3.29-3.59-5.88-3.59-4.55,1.2-5.88,3.59-1.99,5.88-1.99,10.48.66,8.09,1.99,10.48,3.29,3.59,5.88,3.59Z"/>
        <path class="cls-3" d="m158.83,789.67v-2.77l11.86-10.05c1.61-1.38,2.93-2.62,3.95-3.75s1.78-2.27,2.26-3.42.73-2.45.73-3.87c0-1.55-.27-2.85-.81-3.9s-1.32-1.85-2.33-2.38-2.26-.8-3.73-.8c-1.69,0-3.05.33-4.09,1s-1.81,1.56-2.32,2.68-.81,2.39-.9,3.8l-4.5-1.38c.09-1.5.64-2.98,1.63-4.43s2.36-2.66,4.09-3.61,3.76-1.43,6.07-1.43c1.31,0,2.63.19,3.96.56s2.55.97,3.67,1.79,2.02,1.89,2.7,3.21,1.02,2.92,1.02,4.79c0,2.67-.73,5.06-2.18,7.16s-3.48,4.21-6.09,6.32l-9.16,7.43-2.98-.56h21.07v3.61h-23.91Z"/>
      </g>
    </g>
    <g id="trsvg35" class="cls-12">
      <g class="cls-12">
        <path class="cls-3" d="m322.36,790.24c-3.91,0-6.94-1.53-9.09-4.58s-3.23-7.34-3.23-12.86,1.08-9.8,3.23-12.86,5.19-4.58,9.09-4.58,6.96,1.53,9.11,4.58,3.22,7.34,3.22,12.86-1.07,9.8-3.22,12.86-5.18,4.58-9.11,4.58Zm0-3.38c2.59,0,4.55-1.2,5.88-3.59s1.99-5.88,1.99-10.48-.66-8.09-1.99-10.48-3.29-3.59-5.88-3.59-4.55,1.2-5.88,3.59-1.99,5.88-1.99,10.48.66,8.09,1.99,10.48,3.29,3.59,5.88,3.59Z"/>
        <path class="cls-3" d="m339.63,797.15l-1.41-2.02.77-.56c.88-.64,1.52-1.28,1.95-1.91s.63-1.36.63-2.17v-1.1l.56.84c-.97,0-1.79-.33-2.47-.98s-1.02-1.48-1.02-2.48.34-1.86,1.03-2.54,1.52-1.02,2.48-1.02c.56,0,1.13.14,1.7.42s1.05.75,1.43,1.39.57,1.53.57,2.64c0,1.47-.41,2.97-1.23,4.5s-2.07,2.9-3.76,4.1l-1.24.89Z"/>
        <path class="cls-3" d="m362.51,790.24c-3.91,0-6.94-1.53-9.09-4.58s-3.23-7.34-3.23-12.86,1.08-9.8,3.23-12.86,5.19-4.58,9.09-4.58,6.96,1.53,9.11,4.58,3.22,7.34,3.22,12.86-1.07,9.8-3.22,12.86-5.18,4.58-9.11,4.58Zm0-3.38c2.59,0,4.55-1.2,5.88-3.59s1.99-5.88,1.99-10.48-.66-8.09-1.99-10.48-3.29-3.59-5.88-3.59-4.55,1.2-5.88,3.59-1.99,5.88-1.99,10.48.66,8.09,1.99,10.48,3.29,3.59,5.88,3.59Z"/>
        <path class="cls-3" d="m392.27,790.24c-1.95,0-3.82-.4-5.6-1.21s-3.27-1.98-4.46-3.54-1.89-3.46-2.1-5.71l4.27-1.34c.17,2.38.89,4.37,2.17,5.99s3.14,2.43,5.59,2.43c1.52,0,2.85-.36,4-1.09s2.05-1.73,2.71-3.01.98-2.75.98-4.41c0-2.52-.72-4.45-2.17-5.79s-3.24-2.02-5.38-2.02c-1.89,0-3.37.47-4.44,1.42s-1.86,2-2.36,3.18l-4.08-.42,1.36-18.8h19.31v3.61h-15.82l-.89,12.75-1.15-.09c.84-1.44,2.02-2.65,3.52-3.63s3.33-1.48,5.48-1.48,3.91.47,5.55,1.41,2.94,2.24,3.89,3.91,1.43,3.61,1.43,5.81c0,2.44-.55,4.56-1.64,6.36s-2.54,3.2-4.34,4.18-3.74,1.48-5.84,1.48Z"/>
      </g>
    </g>
    <g id="trsvg36" class="cls-12">
      <g class="cls-12">
        <path class="cls-3" d="m497.33,790.24c-3.91,0-6.94-1.53-9.09-4.58s-3.23-7.34-3.23-12.86,1.08-9.8,3.23-12.86,5.19-4.58,9.09-4.58,6.96,1.53,9.11,4.58,3.22,7.34,3.22,12.86-1.07,9.8-3.22,12.86-5.18,4.58-9.11,4.58Zm0-3.38c2.59,0,4.55-1.2,5.88-3.59s1.99-5.88,1.99-10.48-.66-8.09-1.99-10.48-3.29-3.59-5.88-3.59-4.55,1.2-5.88,3.59-1.99,5.88-1.99,10.48.66,8.09,1.99,10.48,3.29,3.59,5.88,3.59Z"/>
        <path class="cls-3" d="m514.6,797.15l-1.41-2.02.77-.56c.88-.64,1.52-1.28,1.95-1.91s.63-1.36.63-2.17v-1.1l.56.84c-.97,0-1.79-.33-2.47-.98s-1.02-1.48-1.02-2.48.34-1.86,1.03-2.54,1.52-1.02,2.48-1.02c.56,0,1.13.14,1.7.42s1.05.75,1.43,1.39.57,1.53.57,2.64c0,1.47-.41,2.97-1.23,4.5s-2.07,2.9-3.76,4.1l-1.24.89Z"/>
        <path class="cls-3" d="m528.87,789.67v-26.88c-1.23,1.06-2.39,1.96-3.47,2.68s-2.28,1.34-3.61,1.84v-3.98c.69-.33,1.41-.74,2.18-1.23s1.64-1.22,2.61-2.18,2.11-2.29,3.39-4h3.02v33.75h-4.12Z"/>
      </g>
    </g>
    <g id="trsvg37" class="cls-12">
      <g class="cls-12">
        <path class="cls-3" d="m644.04,790.24c-3.91,0-6.94-1.53-9.09-4.58s-3.23-7.34-3.23-12.86,1.08-9.8,3.23-12.86,5.19-4.58,9.09-4.58,6.96,1.53,9.11,4.58,3.22,7.34,3.22,12.86-1.07,9.8-3.22,12.86-5.18,4.58-9.11,4.58Zm0-3.38c2.59,0,4.55-1.2,5.88-3.59s1.99-5.88,1.99-10.48-.66-8.09-1.99-10.48-3.29-3.59-5.88-3.59-4.55,1.2-5.88,3.59-1.99,5.88-1.99,10.48.66,8.09,1.99,10.48,3.29,3.59,5.88,3.59Z"/>
        <path class="cls-3" d="m661.32,797.15l-1.41-2.02.77-.56c.88-.64,1.52-1.28,1.95-1.91s.63-1.36.63-2.17v-1.1l.56.84c-.97,0-1.79-.33-2.47-.98s-1.02-1.48-1.02-2.48.34-1.86,1.03-2.54,1.52-1.02,2.48-1.02c.56,0,1.13.14,1.7.42s1.05.75,1.43,1.39.57,1.53.57,2.64c0,1.47-.41,2.97-1.23,4.5s-2.07,2.9-3.76,4.1l-1.24.89Z"/>
        <path class="cls-3" d="m672.15,789.67v-2.77l11.86-10.05c1.61-1.38,2.93-2.62,3.95-3.75s1.78-2.27,2.26-3.42.73-2.45.73-3.87c0-1.55-.27-2.85-.81-3.9s-1.32-1.85-2.33-2.38-2.26-.8-3.73-.8c-1.69,0-3.05.33-4.09,1s-1.81,1.56-2.32,2.68-.81,2.39-.9,3.8l-4.5-1.38c.09-1.5.64-2.98,1.63-4.43s2.36-2.66,4.09-3.61,3.76-1.43,6.07-1.43c1.31,0,2.63.19,3.96.56s2.55.97,3.67,1.79,2.02,1.89,2.7,3.21,1.02,2.92,1.02,4.79c0,2.67-.73,5.06-2.18,7.16s-3.48,4.21-6.09,6.32l-9.16,7.43-2.98-.56h21.07v3.61h-23.91Z"/>
      </g>
    </g>
    <g id="trsvg38" class="cls-12">
      <g class="cls-12">
        <path class="cls-3" d="m857.79,790.24c-3.91,0-6.94-1.53-9.09-4.58s-3.23-7.34-3.23-12.86,1.08-9.8,3.23-12.86,5.19-4.58,9.09-4.58,6.96,1.53,9.11,4.58,3.22,7.34,3.22,12.86-1.07,9.8-3.22,12.86-5.18,4.58-9.11,4.58Zm0-3.38c2.59,0,4.55-1.2,5.88-3.59s1.99-5.88,1.99-10.48-.66-8.09-1.99-10.48-3.29-3.59-5.88-3.59-4.55,1.2-5.88,3.59-1.99,5.88-1.99,10.48.66,8.09,1.99,10.48,3.29,3.59,5.88,3.59Z"/>
        <path class="cls-3" d="m875.07,797.15l-1.41-2.02.77-.56c.88-.64,1.52-1.28,1.95-1.91s.63-1.36.63-2.17v-1.1l.56.84c-.97,0-1.79-.33-2.47-.98s-1.02-1.48-1.02-2.48.34-1.86,1.03-2.54,1.52-1.02,2.48-1.02c.56,0,1.13.14,1.7.42s1.05.75,1.43,1.39.57,1.53.57,2.64c0,1.47-.41,2.97-1.23,4.5s-2.07,2.9-3.76,4.1l-1.24.89Z"/>
        <path class="cls-3" d="m898.34,790.24c-1.95,0-3.82-.4-5.6-1.21s-3.27-1.98-4.46-3.54-1.89-3.46-2.1-5.71l4.27-1.34c.17,2.38.89,4.37,2.17,5.99s3.14,2.43,5.59,2.43c1.52,0,2.85-.36,4-1.09s2.05-1.73,2.71-3.01.98-2.75.98-4.41c0-2.52-.72-4.45-2.17-5.79s-3.24-2.02-5.38-2.02c-1.89,0-3.37.47-4.44,1.42s-1.86,2-2.36,3.18l-4.08-.42,1.36-18.8h19.31v3.61h-15.82l-.89,12.75-1.15-.09c.84-1.44,2.02-2.65,3.52-3.63s3.33-1.48,5.48-1.48,3.91.47,5.55,1.41,2.94,2.24,3.89,3.91,1.43,3.61,1.43,5.81c0,2.44-.55,4.56-1.64,6.36s-2.54,3.2-4.34,4.18-3.74,1.48-5.84,1.48Z"/>
      </g>
    </g>
    <g id="trsvg39" class="cls-12">
      <g class="cls-12">
        <path class="cls-3" d="m1025.63,789.67v-26.88c-1.23,1.06-2.39,1.96-3.47,2.68s-2.28,1.34-3.61,1.84v-3.98c.69-.33,1.41-.74,2.18-1.23s1.64-1.22,2.61-2.18,2.11-2.29,3.39-4h3.02v33.75h-4.12Z"/>
      </g>
    </g>
    <g id="trsvg40" class="cls-12">
      <g class="cls-12">
        <path class="cls-3" d="m1160.5,789.67v-2.77l11.86-10.05c1.61-1.38,2.93-2.62,3.95-3.75s1.78-2.27,2.26-3.42.73-2.45.73-3.87c0-1.55-.27-2.85-.81-3.9s-1.32-1.85-2.33-2.38-2.26-.8-3.73-.8c-1.69,0-3.05.33-4.09,1s-1.81,1.56-2.32,2.68-.81,2.39-.9,3.8l-4.5-1.38c.09-1.5.64-2.98,1.63-4.43s2.36-2.66,4.09-3.61,3.76-1.43,6.07-1.43c1.31,0,2.63.19,3.96.56s2.55.97,3.67,1.79,2.02,1.89,2.7,3.21,1.02,2.92,1.02,4.79c0,2.67-.73,5.06-2.18,7.16s-3.48,4.21-6.09,6.32l-9.16,7.43-2.98-.56h21.07v3.61h-23.91Z"/>
      </g>
    </g>
    <g id="trsvg41" class="cls-12">
      <g class="cls-12">
        <path class="cls-3" d="m1406.21,790.24c-1.95,0-3.82-.4-5.6-1.21s-3.27-1.98-4.46-3.54-1.89-3.46-2.1-5.71l4.27-1.34c.17,2.38.89,4.37,2.17,5.99s3.14,2.43,5.59,2.43c1.52,0,2.85-.36,4-1.09s2.05-1.73,2.71-3.01.98-2.75.98-4.41c0-2.52-.72-4.45-2.17-5.79s-3.24-2.02-5.38-2.02c-1.89,0-3.37.47-4.44,1.42s-1.86,2-2.36,3.18l-4.08-.42,1.36-18.8h19.31v3.61h-15.82l-.89,12.75-1.15-.09c.84-1.44,2.02-2.65,3.52-3.63s3.33-1.48,5.48-1.48,3.91.47,5.55,1.41,2.94,2.24,3.89,3.91,1.43,3.61,1.43,5.81c0,2.44-.55,4.56-1.64,6.36s-2.54,3.2-4.34,4.18-3.74,1.48-5.84,1.48Z"/>
      </g>
    </g>
    <g id="trsvg42" class="cls-12">
      <g class="cls-12">
        <path class="cls-3" d="m1546.15,789.67v-26.88c-1.23,1.06-2.39,1.96-3.47,2.68s-2.28,1.34-3.61,1.84v-3.98c.69-.33,1.41-.74,2.18-1.23s1.64-1.22,2.61-2.18,2.11-2.29,3.39-4h3.02v33.75h-4.12Z"/>
        <path class="cls-3" d="m1568.79,790.24c-3.91,0-6.94-1.53-9.09-4.58s-3.23-7.34-3.23-12.86,1.08-9.8,3.23-12.86,5.19-4.58,9.09-4.58,6.96,1.53,9.11,4.58,3.22,7.34,3.22,12.86-1.07,9.8-3.22,12.86-5.18,4.58-9.11,4.58Zm0-3.38c2.59,0,4.55-1.2,5.88-3.59s1.99-5.88,1.99-10.48-.66-8.09-1.99-10.48-3.29-3.59-5.88-3.59-4.55,1.2-5.88,3.59-1.99,5.88-1.99,10.48.66,8.09,1.99,10.48,3.29,3.59,5.88,3.59Z"/>
      </g>
    </g>
    <g id="trsvg43" class="cls-12">
      <g class="cls-12">
        <path class="cls-3" d="m1606.71,825.66v-3.28h13.38v3.28h-13.38Zm3.77,22.03v-29.91c0-1.89.45-3.24,1.34-4.04s2.38-1.21,4.48-1.21h3.16v3.28h-3.73c-.47,0-.8.1-1.01.3s-.3.54-.3,1.01v30.56h-3.94Z"/>
        <path class="cls-3" d="m1637.77,855.62v-43.08h9.56v3.28h-6v36.52h6v3.28h-9.56Z"/>
        <path class="cls-3" d="m1652.09,847.69v-35.16h3.94v21.16l11.88-11.32h5.37l-10.45,9.61,10.66,15.7h-4.66l-8.86-13.08-3.94,3.63v9.45h-3.94Z"/>
        <path class="cls-3" d="m1678.27,847.69v-33.75h4.22v14.58h18.42v-14.58h4.22v33.75h-4.22v-15.7h-18.42v15.7h-4.22Z"/>
        <path class="cls-3" d="m1710.84,847.69v-3.38l15.19-18.56h-14.58v-3.38h19.31v3.38l-15.42,18.56h15.98v3.38h-20.48Z"/>
        <path class="cls-3" d="m1742.16,855.62h-9.56v-3.28h6v-36.52h-6v-3.28h9.56v43.08Z"/>
      </g>
    </g>
    <g id="trsvg44" class="cls-12">
      <g class="cls-12">
        <path class="cls-3" d="m1690.13,789.67v-2.77l11.86-10.05c1.61-1.38,2.93-2.62,3.95-3.75s1.78-2.27,2.26-3.42.73-2.45.73-3.87c0-1.55-.27-2.85-.81-3.9s-1.32-1.85-2.33-2.38-2.26-.8-3.73-.8c-1.69,0-3.05.33-4.09,1s-1.81,1.56-2.32,2.68-.81,2.39-.9,3.8l-4.5-1.38c.09-1.5.64-2.98,1.63-4.43s2.36-2.66,4.09-3.61,3.76-1.43,6.07-1.43c1.31,0,2.63.19,3.96.56s2.55.97,3.67,1.79,2.02,1.89,2.7,3.21,1.02,2.92,1.02,4.79c0,2.67-.73,5.06-2.18,7.16s-3.48,4.21-6.09,6.32l-9.16,7.43-2.98-.56h21.07v3.61h-23.91Z"/>
        <path class="cls-3" d="m1730.93,790.24c-3.91,0-6.94-1.53-9.09-4.58s-3.23-7.34-3.23-12.86,1.08-9.8,3.23-12.86,5.19-4.58,9.09-4.58,6.96,1.53,9.11,4.58,3.22,7.34,3.22,12.86-1.07,9.8-3.22,12.86-5.18,4.58-9.11,4.58Zm0-3.38c2.59,0,4.55-1.2,5.88-3.59s1.99-5.88,1.99-10.48-.66-8.09-1.99-10.48-3.29-3.59-5.88-3.59-4.55,1.2-5.88,3.59-1.99,5.88-1.99,10.48.66,8.09,1.99,10.48,3.29,3.59,5.88,3.59Z"/>
      </g>
    </g>
    <g>
      <path class="cls-3" d="m763.42,167.54v-34.45h3.7v5.27l-.12-.38c.69-1.84,1.83-3.21,3.42-4.11s3.29-1.35,5.09-1.35c2.06,0,3.88.54,5.44,1.62s2.78,2.61,3.66,4.59,1.31,4.33,1.31,7.03-.44,5.04-1.32,7.02-2.11,3.5-3.67,4.57-3.37,1.61-5.41,1.61c-1.66,0-3.3-.41-4.92-1.24s-2.85-2.23-3.68-4.2l.35-.19v14.2h-3.84Zm11.02-11.86c2.09,0,3.81-.86,5.16-2.59s2.02-4.2,2.02-7.42-.65-5.55-1.95-7.28-3.02-2.59-5.18-2.59c-1.31,0-2.52.34-3.62,1.03s-1.98,1.76-2.64,3.21-.98,3.33-.98,5.62c0,3.39.7,5.91,2.11,7.55s3.1,2.46,5.09,2.46Z"/>
      <path class="cls-3" d="m798.88,158.96c-1.69,0-3.15-.32-4.39-.97s-2.2-1.54-2.87-2.66-1.01-2.4-1.01-3.82c0-1.52.45-2.91,1.34-4.2s2.27-2.31,4.14-3.08,4.26-1.16,7.18-1.16h4.22l-.42.42v-1.38c0-2.03-.41-3.59-1.22-4.68s-2.17-1.63-4.08-1.63c-1.8,0-3.18.46-4.15,1.39s-1.48,2.18-1.55,3.74l-4.43-1.01c.14-1.36.66-2.6,1.56-3.71s2.1-2.01,3.61-2.68,3.25-1.01,5.24-1.01,3.71.39,5,1.16,2.24,1.89,2.85,3.34.91,3.2.91,5.25v11.55c0,.52.07.86.22,1.03s.46.26.95.26h1.43v3.28h-2.51c-1.06,0-1.95-.33-2.67-1s-1.08-1.5-1.08-2.52v-1.78h.59c-.25.66-.61,1.32-1.08,2s-1.06,1.31-1.78,1.9-1.57,1.06-2.57,1.42-2.14.54-3.43.54Zm.89-3.28c1.3,0,2.5-.32,3.61-.96s2-1.64,2.68-3.01,1.02-3.14,1.02-5.33v-.21h-3.96c-2.08,0-3.71.27-4.91.82s-2.04,1.22-2.54,2.03-.75,1.61-.75,2.4.18,1.52.54,2.16.9,1.15,1.62,1.54,1.62.57,2.7.57Z"/>
      <path class="cls-3" d="m820.84,128.85c-.91,0-1.68-.32-2.32-.96s-.96-1.41-.96-2.32.32-1.7.96-2.33,1.41-.95,2.32-.95,1.7.32,2.33.95.95,1.41.95,2.33-.32,1.68-.95,2.32-1.41.96-2.33.96Zm-1.97,29.55v-25.31h3.94v25.31h-3.94Z"/>
      <path class="cls-3" d="m830.47,158.4v-25.31h3.7v5.72l-.16-1.03c.67-1.45,1.73-2.69,3.19-3.71s3.22-1.54,5.3-1.54c1.8,0,3.34.4,4.64,1.2s2.3,1.93,3,3.41,1.05,3.25,1.05,5.33v15.94h-3.94v-15.63c0-2.08-.43-3.76-1.28-5.04s-2.25-1.92-4.21-1.92c-2.11,0-3.86.8-5.26,2.4s-2.1,3.92-2.1,6.95v13.24h-3.94Z"/>
      <path class="cls-3" d="m875.97,158.4c-1,0-1.88-.33-2.62-1s-1.12-1.5-1.12-2.52v-18.52h-4.08v-3.28h4.08v-5.3l3.94-.84v6.14h5.02v3.28h-5.02v17.46c0,.52.07.86.22,1.03s.46.26.95.26h3.87v3.28h-5.23Z"/>
      <path class="cls-3" d="m886.89,158.4v-35.16h3.94v15.8l-.4-1.03c.66-1.58,1.71-2.89,3.18-3.93s3.25-1.56,5.36-1.56c1.78,0,3.32.4,4.61,1.2s2.29,1.93,2.99,3.41,1.05,3.25,1.05,5.33v15.94h-3.94v-15.63c0-2.14-.4-3.84-1.21-5.09s-2.23-1.88-4.28-1.88c-2.19,0-3.96.78-5.32,2.33s-2.04,3.89-2.04,7.02v13.24h-3.94Z"/>
      <path class="cls-3" d="m914.78,158.4v-25.31h3.7v5.37l-.14-.61c.75-1.75,1.88-3.07,3.39-3.97s3.04-1.35,4.58-1.35c.45,0,.89.04,1.32.12s.83.21,1.21.4l-.52,3.7c-.86-.27-1.71-.4-2.55-.4-.53,0-1.19.11-1.98.32s-1.57.63-2.34,1.27-1.42,1.57-1.95,2.82-.79,2.91-.79,4.99v12.66h-3.94Z"/>
      <path class="cls-3" d="m942.9,158.96c-2.41,0-4.49-.54-6.25-1.62s-3.11-2.61-4.07-4.58-1.43-4.31-1.43-7,.48-5.05,1.43-7.03,2.3-3.52,4.03-4.59,3.77-1.62,6.12-1.62c1.34,0,2.69.21,4.04.64s2.59,1.17,3.7,2.23,2.02,2.5,2.7,4.34,1.02,4.15,1.02,6.95h-20.51v-3.19h17.09l-1.12,1.48c-.08-2.22-.44-4-1.08-5.34s-1.47-2.32-2.5-2.92-2.16-.9-3.41-.9c-1.48,0-2.77.39-3.84,1.16s-1.91,1.9-2.48,3.39-.87,3.3-.87,5.44c0,3.16.64,5.59,1.93,7.31s3.12,2.58,5.5,2.58c1.7,0,3.14-.43,4.3-1.29s2.02-2.1,2.57-3.73l3.87,1.31c-.61,1.47-1.42,2.72-2.44,3.76s-2.22,1.84-3.62,2.39-2.96.83-4.68.83Z"/>
      <path class="cls-3" d="m968.8,158.96c-1.83,0-3.49-.3-4.98-.9s-2.73-1.52-3.71-2.74-1.64-2.79-1.97-4.68l4.12-.8c.17,1.98.85,3.46,2.03,4.43s2.66,1.45,4.44,1.45,3.17-.45,4.22-1.34,1.57-1.98,1.57-3.26c0-1.09-.37-1.96-1.11-2.6s-1.82-1.09-3.22-1.36l-3.07-.59c-.83-.16-1.69-.38-2.58-.66s-1.72-.67-2.5-1.17-1.4-1.16-1.88-1.97-.71-1.84-.71-3.07c0-1.66.43-3.01,1.3-4.07s2.02-1.84,3.45-2.36,2.97-.77,4.63-.77c1.81,0,3.39.28,4.73.84s2.44,1.37,3.28,2.41,1.41,2.31,1.69,3.8l-4.34.87c-.11-.95-.36-1.78-.76-2.48s-.98-1.25-1.73-1.63-1.74-.57-2.94-.57c-1.45,0-2.7.3-3.75.91s-1.57,1.53-1.57,2.77c0,.69.18,1.27.53,1.76s.88.89,1.59,1.21,1.61.6,2.68.83l3.12.66c1.31.27,2.52.66,3.63,1.18s2,1.25,2.67,2.17,1.01,2.14,1.01,3.66c0,1.67-.42,3.11-1.25,4.32s-1.99,2.14-3.47,2.78-3.19.96-5.14.96Z"/>
      <path class="cls-3" d="m984.72,158.4v-35.16h3.94v15.8l-.4-1.03c.66-1.58,1.71-2.89,3.18-3.93s3.25-1.56,5.36-1.56c1.78,0,3.32.4,4.61,1.2s2.29,1.93,2.99,3.41,1.05,3.25,1.05,5.33v15.94h-3.94v-15.63c0-2.14-.4-3.84-1.21-5.09s-2.23-1.88-4.28-1.88c-2.19,0-3.96.78-5.32,2.33s-2.04,3.89-2.04,7.02v13.24h-3.94Z"/>
      <path class="cls-3" d="m1023.11,158.96c-2.38,0-4.47-.56-6.28-1.68s-3.23-2.67-4.24-4.65-1.52-4.28-1.52-6.89.51-4.91,1.52-6.89,2.43-3.54,4.24-4.65,3.91-1.68,6.28-1.68,4.47.56,6.28,1.68,3.23,2.67,4.24,4.65,1.52,4.28,1.52,6.89-.51,4.91-1.52,6.89-2.43,3.54-4.24,4.65-3.91,1.68-6.28,1.68Zm0-3.28c2.39,0,4.28-.89,5.66-2.67s2.07-4.2,2.07-7.27-.69-5.5-2.07-7.28-3.27-2.66-5.66-2.66-4.28.89-5.66,2.66-2.07,4.2-2.07,7.28.69,5.48,2.07,7.27,3.27,2.67,5.66,2.67Z"/>
      <path class="cls-3" d="m1044.83,158.4c-1,0-1.88-.33-2.62-1s-1.12-1.5-1.12-2.52v-31.64h3.94v30.59c0,.52.07.86.22,1.03s.46.26.95.26h2.46v3.28h-3.82Z"/>
      <path class="cls-3" d="m1062.25,158.96c-2.05,0-3.86-.54-5.43-1.62s-2.79-2.61-3.67-4.59-1.31-4.33-1.31-7.03.44-5.04,1.32-7.02,2.11-3.5,3.67-4.57,3.37-1.61,5.41-1.61c1.66,0,3.3.41,4.92,1.24s2.85,2.23,3.68,4.2l-.45.19v-14.91h3.94v35.16h-3.7v-5.27l.12.38c-.69,1.84-1.83,3.21-3.42,4.11s-3.29,1.35-5.09,1.35Zm1.03-3.28c1.33,0,2.54-.34,3.63-1.03s1.97-1.76,2.62-3.22.98-3.33.98-5.61c0-3.41-.7-5.93-2.11-7.56s-3.1-2.45-5.09-2.45c-2.09,0-3.81.86-5.16,2.59s-2.02,4.2-2.02,7.42.65,5.55,1.95,7.28,3.02,2.59,5.18,2.59Z"/>
    </g>
    <g>
      <path class="cls-6" d="m933.95,454.85c-1.83,0-3.49-.3-4.98-.9s-2.73-1.52-3.71-2.74-1.64-2.79-1.97-4.68l4.12-.8c.17,1.98.85,3.46,2.03,4.43s2.66,1.45,4.44,1.45,3.17-.45,4.22-1.34,1.57-1.98,1.57-3.26c0-1.09-.37-1.96-1.11-2.6s-1.82-1.09-3.22-1.36l-3.07-.59c-.83-.16-1.69-.38-2.58-.66s-1.72-.67-2.5-1.17-1.4-1.16-1.88-1.97-.71-1.84-.71-3.07c0-1.66.43-3.01,1.3-4.07s2.02-1.84,3.45-2.36,2.97-.77,4.63-.77c1.81,0,3.39.28,4.73.84s2.44,1.37,3.28,2.41,1.41,2.31,1.69,3.8l-4.34.87c-.11-.95-.36-1.78-.76-2.48s-.98-1.25-1.73-1.63-1.74-.57-2.94-.57c-1.45,0-2.7.3-3.75.91s-1.57,1.53-1.57,2.77c0,.69.18,1.27.53,1.76s.88.89,1.59,1.21,1.61.6,2.68.83l3.12.66c1.31.27,2.52.66,3.63,1.18s2,1.25,2.67,2.17,1.01,2.14,1.01,3.66c0,1.67-.42,3.11-1.25,4.32s-1.99,2.14-3.47,2.78-3.19.96-5.14.96Z"/>
      <path class="cls-6" d="m949.84,463.43v-34.45h3.7v5.27l-.12-.38c.69-1.84,1.83-3.21,3.42-4.11s3.29-1.35,5.09-1.35c2.06,0,3.88.54,5.44,1.62s2.78,2.61,3.66,4.59,1.31,4.33,1.31,7.03-.44,5.04-1.32,7.02-2.11,3.5-3.67,4.57-3.37,1.61-5.41,1.61c-1.66,0-3.3-.41-4.92-1.24s-2.85-2.23-3.68-4.2l.35-.19v14.2h-3.84Zm11.02-11.86c2.09,0,3.81-.86,5.16-2.59s2.02-4.2,2.02-7.42-.65-5.55-1.95-7.28-3.02-2.59-5.18-2.59c-1.31,0-2.52.34-3.62,1.03s-1.98,1.76-2.64,3.21-.98,3.33-.98,5.62c0,3.39.7,5.91,2.11,7.55s3.1,2.46,5.09,2.46Z"/>
      <path class="cls-6" d="m989.66,454.85c-2.41,0-4.49-.54-6.25-1.62s-3.11-2.61-4.07-4.58-1.43-4.31-1.43-7,.48-5.05,1.43-7.03,2.3-3.52,4.03-4.59,3.77-1.62,6.12-1.62c1.34,0,2.69.21,4.04.64s2.59,1.17,3.7,2.23,2.02,2.5,2.7,4.34,1.02,4.15,1.02,6.95h-20.51v-3.19h17.09l-1.12,1.48c-.08-2.22-.44-4-1.08-5.34s-1.47-2.32-2.5-2.92-2.16-.9-3.41-.9c-1.48,0-2.77.39-3.84,1.16s-1.91,1.9-2.48,3.39-.87,3.3-.87,5.44c0,3.16.64,5.59,1.93,7.31s3.12,2.58,5.5,2.58c1.7,0,3.14-.43,4.3-1.29s2.02-2.1,2.57-3.73l3.87,1.31c-.61,1.47-1.42,2.72-2.44,3.76s-2.22,1.84-3.62,2.39-2.96.83-4.68.83Z"/>
      <path class="cls-6" d="m1017.88,454.85c-2.41,0-4.49-.54-6.25-1.62s-3.11-2.61-4.07-4.58-1.43-4.31-1.43-7,.48-5.05,1.43-7.03,2.3-3.52,4.03-4.59,3.77-1.62,6.12-1.62c1.34,0,2.69.21,4.04.64s2.59,1.17,3.7,2.23c1.12,1.05,2.02,2.5,2.69,4.34s1.02,4.15,1.02,6.95h-20.51v-3.19h17.09l-1.12,1.48c-.08-2.22-.44-4-1.08-5.34s-1.47-2.32-2.5-2.92-2.16-.9-3.41-.9c-1.48,0-2.77.39-3.84,1.16s-1.91,1.9-2.48,3.39-.87,3.3-.87,5.44c0,3.16.64,5.59,1.93,7.31s3.12,2.58,5.5,2.58c1.7,0,3.14-.43,4.3-1.29s2.02-2.1,2.57-3.73l3.87,1.31c-.61,1.47-1.42,2.72-2.44,3.76-1.02,1.04-2.22,1.84-3.62,2.39s-2.96.83-4.68.83Z"/>
      <path class="cls-6" d="m1045.93,454.85c-2.38,0-4.43-.54-6.16-1.62s-3.07-2.61-4.01-4.58-1.41-4.32-1.41-7.02.47-5.04,1.41-7.02,2.27-3.5,4.01-4.58,3.79-1.62,6.16-1.62c1.81,0,3.43.33,4.86,1s2.64,1.62,3.63,2.86,1.72,2.74,2.19,4.49l-4.01,1.05c-.44-1.97-1.22-3.48-2.36-4.54s-2.57-1.58-4.32-1.58c-2.33,0-4.12.86-5.38,2.59s-1.89,4.18-1.89,7.35.63,5.64,1.89,7.36,3.05,2.58,5.38,2.58c1.73,0,3.16-.51,4.29-1.54s1.91-2.5,2.37-4.44l3.98,1.12c-.38,1.28-.89,2.42-1.55,3.42s-1.43,1.85-2.33,2.55-1.91,1.24-3.05,1.61-2.37.55-3.71.55Z"/>
      <path class="cls-6" d="m1062.31,454.29v-35.16h3.94v15.8l-.4-1.03c.66-1.58,1.71-2.89,3.18-3.93s3.25-1.56,5.36-1.56c1.78,0,3.32.4,4.61,1.2s2.29,1.93,2.99,3.41,1.05,3.25,1.05,5.33v15.94h-3.94v-15.63c0-2.14-.4-3.84-1.21-5.09s-2.23-1.88-4.28-1.88c-2.19,0-3.96.78-5.32,2.33s-2.04,3.89-2.04,7.02v13.24h-3.94Z"/>
    </g>
    <g>
      <path class="cls-2" d="m540.22,396v-25.31h3.7v4.34c.59-1.31,1.58-2.46,2.95-3.43s3.01-1.46,4.9-1.46c1.67,0,3.13.46,4.37,1.37s2.17,2.21,2.78,3.88c.8-1.55,1.89-2.81,3.27-3.79s3-1.46,4.84-1.46c2.42,0,4.34.88,5.75,2.64s2.12,4.19,2.12,7.3v15.94h-3.94v-15.63c0-1.44-.15-2.68-.45-3.71s-.79-1.84-1.46-2.4-1.61-.84-2.78-.84c-1.28,0-2.43.36-3.46,1.09s-1.83,1.79-2.41,3.18-.88,3.09-.88,5.09v13.24h-3.94v-15.63c0-1.44-.15-2.68-.45-3.71s-.78-1.84-1.45-2.4-1.59-.84-2.74-.84c-1.28,0-2.44.36-3.47,1.08s-1.84,1.77-2.44,3.16-.89,3.09-.89,5.11v13.24h-3.94Z"/>
      <path class="cls-2" d="m590.28,396.56c-1.77,0-3.3-.4-4.59-1.2s-2.3-1.94-3-3.42-1.05-3.26-1.05-5.32v-15.94h3.94v15.63c0,2.06.39,3.74,1.17,5.03s2.19,1.93,4.22,1.93c1.52,0,2.83-.39,3.94-1.17s1.97-1.95,2.59-3.52.93-3.52.93-5.86v-12.05h3.94v25.31h-3.7v-5.95l.16,1.03c-.66,1.56-1.71,2.87-3.18,3.91s-3.25,1.57-5.36,1.57Z"/>
      <path class="cls-2" d="m618.41,396.56c-1.83,0-3.49-.3-4.98-.9s-2.73-1.52-3.71-2.74-1.64-2.79-1.97-4.68l4.12-.8c.17,1.98.85,3.46,2.03,4.43s2.66,1.45,4.44,1.45,3.17-.45,4.22-1.34,1.57-1.98,1.57-3.26c0-1.09-.37-1.96-1.11-2.6s-1.82-1.09-3.22-1.36l-3.07-.59c-.83-.16-1.69-.38-2.58-.66s-1.72-.67-2.5-1.17-1.4-1.16-1.88-1.97-.71-1.84-.71-3.07c0-1.66.43-3.01,1.3-4.07s2.02-1.84,3.45-2.36,2.97-.77,4.63-.77c1.81,0,3.39.28,4.73.84s2.44,1.37,3.28,2.41,1.41,2.31,1.69,3.8l-4.34.87c-.11-.95-.36-1.78-.76-2.48s-.98-1.25-1.73-1.63-1.74-.57-2.94-.57c-1.45,0-2.7.3-3.75.91s-1.57,1.53-1.57,2.77c0,.69.18,1.27.53,1.76s.88.89,1.59,1.21,1.61.6,2.68.83l3.12.66c1.31.27,2.52.66,3.63,1.18s2,1.25,2.67,2.17,1.01,2.14,1.01,3.66c0,1.67-.42,3.11-1.25,4.32s-1.99,2.14-3.47,2.78-3.19.96-5.14.96Z"/>
      <path class="cls-2" d="m636.29,366.45c-.91,0-1.68-.32-2.32-.96s-.96-1.41-.96-2.32.32-1.7.96-2.33,1.41-.95,2.32-.95,1.7.32,2.33.95.95,1.41.95,2.33-.32,1.68-.95,2.32-1.41.96-2.33.96Zm-1.97,29.55v-25.31h3.94v25.31h-3.94Z"/>
      <path class="cls-2" d="m655.88,396.56c-2.38,0-4.43-.54-6.16-1.62s-3.07-2.61-4.01-4.58-1.41-4.32-1.41-7.02.47-5.04,1.41-7.02,2.27-3.5,4.01-4.58,3.79-1.62,6.16-1.62c1.81,0,3.43.33,4.86,1s2.64,1.62,3.63,2.86,1.72,2.74,2.19,4.49l-4.01,1.05c-.44-1.97-1.22-3.48-2.36-4.54s-2.57-1.58-4.32-1.58c-2.33,0-4.12.86-5.38,2.59s-1.89,4.18-1.89,7.35.63,5.64,1.89,7.36,3.05,2.58,5.38,2.58c1.73,0,3.16-.51,4.29-1.54s1.91-2.5,2.37-4.44l3.98,1.12c-.38,1.28-.89,2.42-1.55,3.42s-1.43,1.85-2.33,2.55-1.91,1.24-3.05,1.61-2.37.55-3.71.55Z"/>
    </g>
    <g>
      <path class="cls-2" d="m288.24,684v-35.16h3.94v15.8l-.4-1.03c.66-1.58,1.71-2.89,3.18-3.93s3.25-1.56,5.36-1.56c1.78,0,3.32.4,4.61,1.2s2.29,1.93,2.99,3.41,1.05,3.25,1.05,5.33v15.94h-3.94v-15.63c0-2.14-.4-3.84-1.21-5.09s-2.23-1.88-4.28-1.88c-2.19,0-3.96.78-5.32,2.33s-2.04,3.89-2.04,7.02v13.24h-3.94Z"/>
      <path class="cls-2" d="m326.35,684.56c-2.41,0-4.49-.54-6.25-1.62s-3.11-2.61-4.07-4.58-1.43-4.31-1.43-7,.48-5.05,1.43-7.03,2.3-3.52,4.03-4.59,3.77-1.62,6.12-1.62c1.34,0,2.69.21,4.04.64s2.59,1.17,3.7,2.23,2.02,2.5,2.7,4.34,1.02,4.15,1.02,6.95h-20.51v-3.19h17.09l-1.12,1.48c-.08-2.22-.44-4-1.08-5.34s-1.47-2.32-2.5-2.92-2.16-.9-3.41-.9c-1.48,0-2.77.39-3.84,1.16s-1.91,1.9-2.48,3.39-.87,3.3-.87,5.44c0,3.16.64,5.59,1.93,7.31s3.12,2.58,5.5,2.58c1.7,0,3.14-.43,4.3-1.29s2.02-2.1,2.57-3.73l3.87,1.31c-.61,1.47-1.42,2.72-2.44,3.76s-2.22,1.84-3.62,2.39-2.96.83-4.68.83Z"/>
      <path class="cls-2" d="m350.1,684.56c-1.69,0-3.15-.32-4.39-.97s-2.2-1.54-2.87-2.66-1.01-2.4-1.01-3.82c0-1.52.45-2.91,1.34-4.2s2.27-2.31,4.14-3.08,4.26-1.16,7.18-1.16h4.22l-.42.42v-1.38c0-2.03-.41-3.59-1.22-4.68s-2.17-1.63-4.08-1.63c-1.8,0-3.18.46-4.15,1.39s-1.48,2.18-1.55,3.74l-4.43-1.01c.14-1.36.66-2.6,1.56-3.71s2.1-2.01,3.61-2.68,3.25-1.01,5.24-1.01,3.71.39,5,1.16,2.24,1.89,2.85,3.34.91,3.2.91,5.25v11.55c0,.52.07.86.22,1.03s.46.26.95.26h1.43v3.28h-2.51c-1.06,0-1.95-.33-2.67-1s-1.08-1.5-1.08-2.52v-1.78h.59c-.25.66-.61,1.32-1.08,2s-1.06,1.31-1.78,1.9-1.57,1.06-2.57,1.42-2.14.54-3.43.54Zm.89-3.28c1.3,0,2.5-.32,3.61-.96s2-1.64,2.68-3.01,1.02-3.14,1.02-5.33v-.21h-3.96c-2.08,0-3.71.27-4.91.82s-2.04,1.22-2.54,2.03-.75,1.61-.75,2.4.18,1.52.54,2.16.9,1.15,1.62,1.54,1.62.57,2.7.57Z"/>
      <path class="cls-2" d="m370.06,684v-25.31h3.7v5.37l-.14-.61c.75-1.75,1.88-3.07,3.39-3.97s3.04-1.35,4.58-1.35c.45,0,.89.04,1.32.12s.83.21,1.21.4l-.52,3.7c-.86-.27-1.71-.4-2.55-.4-.53,0-1.19.11-1.98.32s-1.57.63-2.34,1.27-1.42,1.57-1.95,2.82-.79,2.91-.79,4.99v12.66h-3.94Z"/>
      <path class="cls-2" d="m390.85,654.44c-.91,0-1.68-.32-2.32-.96s-.96-1.41-.96-2.32.32-1.7.96-2.33,1.41-.95,2.32-.95,1.7.32,2.33.95.95,1.41.95,2.33-.32,1.68-.95,2.32-1.41.96-2.33.96Zm-1.97,29.55v-25.31h3.94v25.31h-3.94Z"/>
      <path class="cls-2" d="m400.49,684v-25.31h3.7v5.72l-.16-1.03c.67-1.45,1.73-2.69,3.19-3.71s3.22-1.54,5.3-1.54c1.8,0,3.34.4,4.64,1.2s2.3,1.93,3,3.41,1.05,3.25,1.05,5.33v15.94h-3.94v-15.63c0-2.08-.43-3.76-1.28-5.04s-2.25-1.92-4.21-1.92c-2.11,0-3.86.8-5.26,2.4s-2.1,3.92-2.1,6.95v13.24h-3.94Z"/>
      <path class="cls-2" d="m437.75,693.7c-3.77,0-6.54-.53-8.32-1.58s-2.67-2.68-2.67-4.89c0-1.25.32-2.37.96-3.35s1.75-1.74,3.33-2.27c-.59-.36-1.08-.84-1.45-1.43s-.56-1.26-.56-1.99c0-.88.27-1.66.82-2.36s1.33-1.19,2.34-1.49c-1.25-.73-2.22-1.73-2.92-2.99s-1.04-2.72-1.04-4.39c0-1.81.4-3.38,1.21-4.7s1.95-2.34,3.45-3.06,3.27-1.08,5.33-1.08,3.85.36,5.36,1.08,2.67,1.74,3.49,3.07,1.23,2.91,1.23,4.73-.41,3.35-1.23,4.65-1.99,2.31-3.5,3.02-3.32,1.07-5.41,1.07h-2.18c-1.97,0-2.95.59-2.95,1.76,0,1.11.95,1.66,2.86,1.66h5.06c2,0,3.61.23,4.84.69s2.16,1.05,2.81,1.78,1.09,1.51,1.32,2.36.35,1.65.35,2.41c0,2.48-.9,4.32-2.7,5.51s-4.59,1.78-8.37,1.78h-1.45Zm0-3.14h1.45c4.66,0,6.98-1.39,6.98-4.17,0-1.16-.42-2.1-1.25-2.84s-2.26-1.1-4.28-1.1h-4.36c-1.56,0-2.87.32-3.91.95s-1.57,1.67-1.57,3.11.57,2.39,1.7,3.06,2.88,1,5.24,1Zm.47-17.58c1.98,0,3.51-.51,4.57-1.54s1.59-2.5,1.59-4.44-.53-3.41-1.59-4.48-2.59-1.59-4.57-1.59-3.48.53-4.52,1.58-1.57,2.55-1.57,4.49.52,3.42,1.57,4.44,2.55,1.54,4.52,1.54Zm4.17-12.21v-2.51c0-1.02.38-1.86,1.12-2.52s1.62-1,2.62-1h3.05v3.28h-2.51c-.48,0-.8.09-.95.26s-.22.52-.22,1.03v1.45h-3.12Z"/>
      <path class="cls-2" d="m473.1,684c-1,0-1.88-.33-2.62-1s-1.12-1.5-1.12-2.52v-18.52h-4.08v-3.28h4.08v-5.3l3.94-.84v6.14h5.02v3.28h-5.02v17.46c0,.52.07.86.22,1.03s.46.26.95.26h3.87v3.28h-5.23Z"/>
      <path class="cls-2" d="m484.02,684v-35.16h3.94v15.8l-.4-1.03c.66-1.58,1.71-2.89,3.18-3.93s3.25-1.56,5.36-1.56c1.78,0,3.32.4,4.61,1.2s2.29,1.93,2.99,3.41,1.05,3.25,1.05,5.33v15.94h-3.94v-15.63c0-2.14-.4-3.84-1.21-5.09s-2.23-1.88-4.28-1.88c-2.19,0-3.96.78-5.32,2.33s-2.04,3.89-2.04,7.02v13.24h-3.94Z"/>
      <path class="cls-2" d="m511.91,684v-25.31h3.7v5.37l-.14-.61c.75-1.75,1.88-3.07,3.39-3.97s3.04-1.35,4.58-1.35c.45,0,.89.04,1.32.12s.83.21,1.21.4l-.52,3.7c-.86-.27-1.71-.4-2.55-.4-.53,0-1.19.11-1.98.32s-1.57.63-2.34,1.27-1.42,1.57-1.95,2.82-.79,2.91-.79,4.99v12.66h-3.94Z"/>
      <path class="cls-2" d="m540.03,684.56c-2.41,0-4.49-.54-6.25-1.62s-3.11-2.61-4.07-4.58-1.43-4.31-1.43-7,.48-5.05,1.43-7.03,2.3-3.52,4.03-4.59,3.77-1.62,6.12-1.62c1.34,0,2.69.21,4.04.64s2.59,1.17,3.7,2.23,2.02,2.5,2.7,4.34,1.02,4.15,1.02,6.95h-20.51v-3.19h17.09l-1.12,1.48c-.08-2.22-.44-4-1.08-5.34s-1.47-2.32-2.5-2.92-2.16-.9-3.41-.9c-1.48,0-2.77.39-3.84,1.16s-1.91,1.9-2.48,3.39-.87,3.3-.87,5.44c0,3.16.64,5.59,1.93,7.31s3.12,2.58,5.5,2.58c1.7,0,3.14-.43,4.3-1.29s2.02-2.1,2.57-3.73l3.87,1.31c-.61,1.47-1.42,2.72-2.44,3.76s-2.22,1.84-3.62,2.39-2.96.83-4.68.83Z"/>
      <path class="cls-2" d="m565.93,684.56c-1.83,0-3.49-.3-4.98-.9s-2.73-1.52-3.71-2.74-1.64-2.79-1.97-4.68l4.12-.8c.17,1.98.85,3.46,2.03,4.43s2.66,1.45,4.44,1.45,3.17-.45,4.22-1.34,1.57-1.98,1.57-3.26c0-1.09-.37-1.96-1.11-2.6s-1.82-1.09-3.22-1.36l-3.07-.59c-.83-.16-1.69-.38-2.58-.66s-1.72-.67-2.5-1.17-1.4-1.16-1.88-1.97-.71-1.84-.71-3.07c0-1.66.43-3.01,1.3-4.07s2.02-1.84,3.45-2.36,2.97-.77,4.63-.77c1.81,0,3.39.28,4.73.84s2.44,1.37,3.28,2.41,1.41,2.31,1.69,3.8l-4.34.87c-.11-.95-.36-1.78-.76-2.48s-.98-1.25-1.73-1.63-1.74-.57-2.94-.57c-1.45,0-2.7.3-3.75.91s-1.57,1.53-1.57,2.77c0,.69.18,1.27.53,1.76s.88.89,1.59,1.21,1.61.6,2.68.83l3.12.66c1.31.27,2.52.66,3.63,1.18s2,1.25,2.67,2.17,1.01,2.14,1.01,3.66c0,1.67-.42,3.11-1.25,4.32s-1.99,2.14-3.47,2.78-3.19.96-5.14.96Z"/>
      <path class="cls-2" d="m581.85,684v-35.16h3.94v15.8l-.4-1.03c.66-1.58,1.71-2.89,3.18-3.93s3.25-1.56,5.36-1.56c1.78,0,3.32.4,4.61,1.2s2.29,1.93,2.99,3.41,1.05,3.25,1.05,5.33v15.94h-3.94v-15.63c0-2.14-.4-3.84-1.21-5.09s-2.23-1.88-4.28-1.88c-2.19,0-3.96.78-5.32,2.33s-2.04,3.89-2.04,7.02v13.24h-3.94Z"/>
      <path class="cls-2" d="m620.24,684.56c-2.38,0-4.47-.56-6.28-1.68s-3.23-2.67-4.24-4.65-1.52-4.28-1.52-6.89.51-4.91,1.52-6.89,2.43-3.54,4.24-4.65,3.91-1.68,6.28-1.68,4.47.56,6.28,1.68,3.23,2.67,4.24,4.65,1.52,4.28,1.52,6.89-.51,4.91-1.52,6.89-2.43,3.54-4.24,4.65-3.91,1.68-6.28,1.68Zm0-3.28c2.39,0,4.28-.89,5.66-2.67s2.07-4.2,2.07-7.27-.69-5.5-2.07-7.28-3.27-2.66-5.66-2.66-4.28.89-5.66,2.66-2.07,4.2-2.07,7.28.69,5.48,2.07,7.27,3.27,2.67,5.66,2.67Z"/>
      <path class="cls-2" d="m641.96,684c-1,0-1.88-.33-2.62-1s-1.12-1.5-1.12-2.52v-31.64h3.94v30.59c0,.52.07.86.22,1.03s.46.26.95.26h2.46v3.28h-3.82Z"/>
      <path class="cls-2" d="m659.38,684.56c-2.05,0-3.86-.54-5.43-1.62s-2.79-2.61-3.67-4.59-1.31-4.33-1.31-7.03.44-5.04,1.32-7.02,2.11-3.5,3.67-4.57,3.37-1.61,5.41-1.61c1.66,0,3.3.41,4.92,1.24s2.85,2.23,3.68,4.2l-.45.19v-14.91h3.94v35.16h-3.7v-5.27l.12.38c-.69,1.84-1.83,3.21-3.42,4.11s-3.29,1.35-5.09,1.35Zm1.03-3.28c1.33,0,2.54-.34,3.63-1.03s1.97-1.76,2.62-3.22.98-3.33.98-5.61c0-3.41-.7-5.93-2.11-7.56s-3.1-2.45-5.09-2.45c-2.09,0-3.81.86-5.16,2.59s-2.02,4.2-2.02,7.42.65,5.55,1.95,7.28,3.02,2.59,5.18,2.59Z"/>
    </g>
    <g>
      <path class="cls-3" d="m1069.42,298.8v-25.31h3.7v5.37l-.14-.61c.75-1.75,1.88-3.07,3.39-3.97s3.04-1.35,4.58-1.35c.45,0,.89.04,1.32.12s.83.21,1.21.4l-.52,3.7c-.86-.27-1.71-.4-2.55-.4-.53,0-1.19.11-1.98.32s-1.57.63-2.34,1.27-1.42,1.57-1.95,2.82-.79,2.91-.79,4.99v12.66h-3.94Z"/>
      <path class="cls-3" d="m1090.21,269.25c-.91,0-1.68-.32-2.32-.96s-.96-1.41-.96-2.32.32-1.7.96-2.33,1.41-.95,2.32-.95,1.7.32,2.33.95.95,1.41.95,2.33-.32,1.68-.95,2.32-1.41.96-2.33.96Zm-1.97,29.55v-25.31h3.94v25.31h-3.94Z"/>
      <path class="cls-3" d="m1108.23,299.36c-1.83,0-3.49-.3-4.98-.9s-2.73-1.52-3.71-2.74-1.64-2.79-1.97-4.68l4.12-.8c.17,1.98.85,3.46,2.03,4.43s2.66,1.45,4.44,1.45,3.17-.45,4.22-1.34,1.57-1.98,1.57-3.26c0-1.09-.37-1.96-1.11-2.6s-1.82-1.09-3.22-1.36l-3.07-.59c-.83-.16-1.69-.38-2.58-.66s-1.72-.67-2.5-1.17-1.4-1.16-1.88-1.97-.71-1.84-.71-3.07c0-1.66.43-3.01,1.3-4.07s2.02-1.84,3.45-2.36,2.97-.77,4.63-.77c1.81,0,3.39.28,4.73.84s2.44,1.37,3.28,2.41,1.41,2.31,1.69,3.8l-4.34.87c-.11-.95-.36-1.78-.76-2.48s-.98-1.25-1.73-1.63-1.74-.57-2.94-.57c-1.45,0-2.7.3-3.75.91s-1.57,1.53-1.57,2.77c0,.69.18,1.27.53,1.76s.88.89,1.59,1.21,1.61.6,2.68.83l3.12.66c1.31.27,2.52.66,3.63,1.18s2,1.25,2.67,2.17,1.01,2.14,1.01,3.66c0,1.67-.42,3.11-1.25,4.32s-1.99,2.14-3.47,2.78-3.19.96-5.14.96Z"/>
      <path class="cls-3" d="m1124.15,298.8v-35.16h3.94v21.16l11.88-11.32h5.37l-10.45,9.61,10.66,15.7h-4.66l-8.86-13.08-3.94,3.63v9.45h-3.94Z"/>
      <path class="cls-3" d="m1173.3,299.36c-2.38,0-4.47-.56-6.28-1.68s-3.23-2.67-4.24-4.65-1.52-4.28-1.52-6.89.51-4.91,1.52-6.89,2.43-3.54,4.24-4.65,3.91-1.68,6.28-1.68,4.47.56,6.28,1.68,3.23,2.67,4.24,4.65,1.52,4.28,1.52,6.89-.51,4.91-1.52,6.89-2.43,3.54-4.24,4.65-3.91,1.68-6.28,1.68Zm0-3.28c2.39,0,4.28-.89,5.66-2.67s2.07-4.2,2.07-7.27-.69-5.5-2.07-7.28-3.27-2.66-5.66-2.66-4.28.89-5.66,2.66-2.07,4.2-2.07,7.28.69,5.48,2.07,7.27,3.27,2.67,5.66,2.67Z"/>
      <path class="cls-3" d="m1188.53,276.77v-3.28h13.38v3.28h-13.38Zm3.77,22.03v-29.91c0-1.89.45-3.24,1.34-4.04s2.38-1.21,4.48-1.21h3.16v3.28h-3.73c-.47,0-.8.1-1.01.3s-.3.54-.3,1.01v30.56h-3.94Z"/>
      <path class="cls-3" d="m1228.12,299.36c-2.05,0-3.86-.54-5.43-1.62s-2.79-2.61-3.67-4.59-1.31-4.33-1.31-7.03.44-5.04,1.32-7.02,2.11-3.5,3.67-4.57,3.37-1.61,5.41-1.61c1.66,0,3.3.41,4.92,1.24s2.85,2.23,3.68,4.2l-.45.19v-14.91h3.94v35.16h-3.7v-5.27l.12.38c-.69,1.84-1.83,3.21-3.42,4.11s-3.29,1.35-5.09,1.35Zm1.03-3.28c1.33,0,2.54-.34,3.63-1.03s1.97-1.76,2.62-3.22.98-3.33.98-5.61c0-3.41-.7-5.93-2.11-7.56s-3.1-2.45-5.09-2.45c-2.09,0-3.81.86-5.16,2.59s-2.02,4.2-2.02,7.42.65,5.55,1.95,7.28,3.02,2.59,5.18,2.59Z"/>
      <path class="cls-3" d="m1254.34,299.36c-1.69,0-3.15-.32-4.39-.97s-2.2-1.54-2.87-2.66-1.01-2.4-1.01-3.82c0-1.52.45-2.91,1.34-4.2s2.27-2.31,4.14-3.08,4.26-1.16,7.18-1.16h4.22l-.42.42v-1.38c0-2.03-.41-3.59-1.22-4.68s-2.17-1.63-4.08-1.63c-1.8,0-3.18.46-4.15,1.39s-1.48,2.18-1.55,3.74l-4.43-1.01c.14-1.36.66-2.6,1.56-3.71s2.1-2.01,3.61-2.68,3.25-1.01,5.24-1.01,3.71.39,5,1.16,2.24,1.89,2.85,3.34.91,3.2.91,5.25v11.55c0,.52.07.86.22,1.03s.46.26.95.26h1.43v3.28h-2.51c-1.06,0-1.95-.33-2.67-1s-1.08-1.5-1.08-2.52v-1.78h.59c-.25.66-.61,1.32-1.08,2s-1.06,1.31-1.78,1.9-1.57,1.06-2.57,1.42-2.14.54-3.43.54Zm.89-3.28c1.3,0,2.5-.32,3.61-.96s2-1.64,2.68-3.01,1.02-3.14,1.02-5.33v-.21h-3.96c-2.08,0-3.71.27-4.91.82s-2.04,1.22-2.54,2.03-.75,1.61-.75,2.4.18,1.52.54,2.16.9,1.15,1.62,1.54,1.62.57,2.7.57Z"/>
      <path class="cls-3" d="m1274.31,298.8v-25.31h3.7v4.34c.59-1.31,1.58-2.46,2.95-3.43s3.01-1.46,4.9-1.46c1.67,0,3.13.46,4.37,1.37s2.17,2.21,2.78,3.88c.8-1.55,1.89-2.81,3.27-3.79s3-1.46,4.84-1.46c2.42,0,4.34.88,5.75,2.64s2.12,4.19,2.12,7.3v15.94h-3.94v-15.63c0-1.44-.15-2.68-.45-3.71s-.79-1.84-1.46-2.4-1.61-.84-2.78-.84c-1.28,0-2.43.36-3.46,1.09s-1.83,1.79-2.41,3.18-.88,3.09-.88,5.09v13.24h-3.94v-15.63c0-1.44-.15-2.68-.45-3.71s-.78-1.84-1.45-2.4-1.59-.84-2.74-.84c-1.28,0-2.44.36-3.47,1.08s-1.84,1.77-2.44,3.16-.89,3.09-.89,5.11v13.24h-3.94Z"/>
      <path class="cls-3" d="m1322.8,299.36c-1.69,0-3.15-.32-4.39-.97s-2.2-1.54-2.87-2.66-1.01-2.4-1.01-3.82c0-1.52.45-2.91,1.34-4.2s2.27-2.31,4.14-3.08,4.26-1.16,7.18-1.16h4.22l-.42.42v-1.38c0-2.03-.41-3.59-1.22-4.68s-2.17-1.63-4.08-1.63c-1.8,0-3.18.46-4.15,1.39s-1.48,2.18-1.55,3.74l-4.43-1.01c.14-1.36.66-2.6,1.56-3.71s2.1-2.01,3.61-2.68,3.25-1.01,5.24-1.01,3.71.39,5,1.16,2.24,1.89,2.85,3.34.91,3.2.91,5.25v11.55c0,.52.07.86.22,1.03s.46.26.95.26h1.43v3.28h-2.51c-1.06,0-1.95-.33-2.67-1s-1.08-1.5-1.08-2.52v-1.78h.59c-.25.66-.61,1.32-1.08,2s-1.06,1.31-1.78,1.9-1.57,1.06-2.57,1.42-2.14.54-3.43.54Zm.89-3.28c1.3,0,2.5-.32,3.61-.96s2-1.64,2.68-3.01,1.02-3.14,1.02-5.33v-.21h-3.96c-2.08,0-3.71.27-4.91.82s-2.04,1.22-2.54,2.03-.75,1.61-.75,2.4.18,1.52.54,2.16.9,1.15,1.62,1.54,1.62.57,2.7.57Z"/>
      <path class="cls-3" d="m1351.63,308.5c-3.77,0-6.54-.53-8.32-1.58s-2.67-2.68-2.67-4.89c0-1.25.32-2.37.96-3.35s1.75-1.74,3.33-2.27c-.59-.36-1.08-.84-1.45-1.43s-.56-1.26-.56-1.99c0-.88.27-1.66.82-2.36s1.33-1.19,2.34-1.49c-1.25-.73-2.22-1.73-2.92-2.99s-1.04-2.72-1.04-4.39c0-1.81.4-3.38,1.21-4.7s1.95-2.34,3.45-3.06,3.27-1.08,5.33-1.08,3.85.36,5.36,1.08,2.67,1.74,3.49,3.07,1.23,2.91,1.23,4.73-.41,3.35-1.23,4.65-1.99,2.31-3.5,3.02-3.32,1.07-5.41,1.07h-2.18c-1.97,0-2.95.59-2.95,1.76,0,1.11.95,1.66,2.86,1.66h5.06c2,0,3.61.23,4.84.69s2.16,1.05,2.81,1.78,1.09,1.51,1.32,2.36.35,1.65.35,2.41c0,2.48-.9,4.32-2.7,5.51s-4.59,1.78-8.37,1.78h-1.45Zm0-3.14h1.45c4.66,0,6.98-1.39,6.98-4.17,0-1.16-.42-2.1-1.25-2.84s-2.26-1.1-4.28-1.1h-4.36c-1.56,0-2.87.32-3.91.95s-1.57,1.67-1.57,3.11.57,2.39,1.7,3.06,2.88,1,5.24,1Zm.47-17.58c1.98,0,3.51-.51,4.57-1.54s1.59-2.5,1.59-4.44-.53-3.41-1.59-4.48-2.59-1.59-4.57-1.59-3.48.53-4.52,1.58-1.57,2.55-1.57,4.49.52,3.42,1.57,4.44,2.55,1.54,4.52,1.54Zm4.17-12.21v-2.51c0-1.02.38-1.86,1.12-2.52s1.62-1,2.62-1h3.05v3.28h-2.51c-.48,0-.8.09-.95.26s-.22.52-.22,1.03v1.45h-3.12Z"/>
      <path class="cls-3" d="m1379.5,299.36c-2.41,0-4.49-.54-6.25-1.62s-3.11-2.61-4.07-4.58-1.43-4.31-1.43-7,.48-5.05,1.43-7.03,2.3-3.52,4.03-4.59,3.77-1.62,6.12-1.62c1.34,0,2.69.21,4.04.64s2.59,1.17,3.7,2.23,2.02,2.5,2.7,4.34,1.02,4.15,1.02,6.95h-20.51v-3.19h17.09l-1.12,1.48c-.08-2.22-.44-4-1.08-5.34s-1.47-2.32-2.5-2.92-2.16-.9-3.41-.9c-1.48,0-2.77.39-3.84,1.16s-1.91,1.9-2.48,3.39-.87,3.3-.87,5.44c0,3.16.64,5.59,1.93,7.31s3.12,2.58,5.5,2.58c1.7,0,3.14-.43,4.3-1.29s2.02-2.1,2.57-3.73l3.87,1.31c-.61,1.47-1.42,2.72-2.44,3.76s-2.22,1.84-3.62,2.39-2.96.83-4.68.83Z"/>
    </g>
  </g>
</svg>