<?xml version="1.0" encoding="UTF-8"?>
<svg id="Ebene_6" data-name="Ebene 6" xmlns="http://www.w3.org/2000/svg" width="1051.2" height="943.2" viewBox="0 0 1051.2 943.2">
  <rect x="478.29" y="644.91" width="113.14" height="226.29" fill="#c9d1d9" isolation="isolate" opacity=".2" stroke="#c9d1d9" stroke-miterlimit="10" stroke-width="2.83"/>
  <rect x="817.71" y="192.34" width="113.14" height="678.86" fill="#c9d1d9" isolation="isolate" opacity=".2" stroke="#c9d1d9" stroke-miterlimit="10" stroke-width="2.83"/>
  <g>
    <line x1="252" y1="871.2" x2="252" y2="129.43" fill="none" stroke="#c9d1d9" stroke-miterlimit="10" stroke-width="5.67"/>
    <polygon points="268.47 140.66 252.01 79.2 235.53 140.66 268.47 140.66" fill="#c9d1d9"/>
  </g>
  <rect x="478.29" y="644.91" width="113.14" height="226.29" fill="none" stroke="#c9d1d9" stroke-miterlimit="10" stroke-width="2.83"/>
  <rect x="817.71" y="192.34" width="113.14" height="678.86" fill="none" stroke="#c9d1d9" stroke-miterlimit="10" stroke-width="2.83"/>
  <g>
    <line x1="252" y1="192.34" x2="258" y2="192.34" fill="none" stroke="#c9d1d9" stroke-miterlimit="10" stroke-width="2.83"/>
    <line x1="270" y1="192.34" x2="1032" y2="192.34" fill="none" stroke="#c9d1d9" stroke-dasharray="0 0 0 0 0 0 12 12" stroke-miterlimit="10" stroke-width="2.83"/>
    <line x1="1038" y1="192.34" x2="1044" y2="192.34" fill="none" stroke="#c9d1d9" stroke-miterlimit="10" stroke-width="2.83"/>
  </g>
  <g>
    <line x1="252" y1="644.91" x2="258" y2="644.91" fill="none" stroke="#c9d1d9" stroke-miterlimit="10" stroke-width="2.83"/>
    <line x1="270" y1="644.91" x2="1032" y2="644.91" fill="none" stroke="#c9d1d9" stroke-dasharray="0 0 0 0 0 0 12 12" stroke-miterlimit="10" stroke-width="2.83"/>
    <line x1="1038" y1="644.91" x2="1044" y2="644.91" fill="none" stroke="#c9d1d9" stroke-miterlimit="10" stroke-width="2.83"/>
  </g>
  <g>
    <path d="m20.57,143.45l11.16,27.84,11.16-27.84h5.84v34.12h-4.5v-13.29l.42-14.34-11.2,27.63h-3.45l-11.18-27.56.45,14.27v13.29h-4.5v-34.12h5.81-.01Z" fill="#c9d1d9"/>
    <path d="m71.64,177.57c-.25-.5-.45-1.39-.61-2.67-2.02,2.09-4.42,3.14-7.22,3.14-2.5,0-4.55-.71-6.15-2.12s-2.4-3.21-2.4-5.38c0-2.64,1-4.69,3.01-6.15s4.83-2.19,8.47-2.19h4.22v-1.99c0-1.52-.45-2.72-1.36-3.62s-2.24-1.35-4.01-1.35c-1.55,0-2.84.39-3.89,1.17s-1.57,1.73-1.57,2.84h-4.36c0-1.27.45-2.49,1.35-3.67s2.12-2.11,3.66-2.8,3.23-1.03,5.07-1.03c2.92,0,5.21.73,6.87,2.19s2.52,3.47,2.58,6.04v11.67c0,2.33.3,4.18.89,5.55v.38h-4.55v-.01Zm-7.2-3.3c1.36,0,2.65-.35,3.87-1.05s2.1-1.62,2.65-2.74v-5.2h-3.4c-5.31,0-7.97,1.55-7.97,4.66,0,1.36.45,2.42,1.36,3.19s2.07,1.15,3.49,1.15v-.01Z" fill="#c9d1d9"/>
    <path d="m96.86,170.84c0-1.17-.44-2.08-1.32-2.73s-2.42-1.21-4.62-1.68-3.94-1.03-5.23-1.69-2.24-1.44-2.86-2.34-.93-1.98-.93-3.23c0-2.08.88-3.84,2.64-5.27s4-2.16,6.74-2.16c2.88,0,5.21.74,7,2.23s2.68,3.38,2.68,5.7h-4.36c0-1.19-.5-2.21-1.51-3.07s-2.28-1.29-3.81-1.29-2.81.34-3.7,1.03-1.34,1.59-1.34,2.7c0,1.05.41,1.84,1.24,2.37s2.32,1.04,4.49,1.52,3.92,1.06,5.26,1.73,2.34,1.48,2.99,2.43.97,2.1.97,3.46c0,2.27-.91,4.08-2.72,5.45s-4.16,2.05-7.05,2.05c-2.03,0-3.83-.36-5.39-1.08s-2.79-1.72-3.67-3.01-1.32-2.68-1.32-4.18h4.34c.08,1.45.66,2.61,1.75,3.46s2.52,1.28,4.3,1.28c1.64,0,2.96-.33,3.95-1s1.49-1.55,1.49-2.66l-.01-.02Z" fill="#c9d1d9"/>
    <path d="m113.92,165.83l-2.72,2.84v8.91h-4.34v-36h4.34v21.77l2.32-2.79,7.9-8.34h5.27l-9.87,10.59,11.02,14.77h-5.09l-8.84-11.74.01-.01Z" fill="#c9d1d9"/>
    <path d="m141.23,178.04c-3.44,0-6.23-1.13-8.39-3.39s-3.23-5.28-3.23-9.06v-.8c0-2.52.48-4.76,1.44-6.74s2.3-3.52,4.03-4.64,3.6-1.68,5.61-1.68c3.3,0,5.86,1.09,7.69,3.26s2.74,5.28,2.74,9.33v1.8h-17.18c.06,2.5.79,4.52,2.19,6.06s3.18,2.31,5.33,2.31c1.53,0,2.83-.31,3.89-.94s1.99-1.45,2.79-2.48l2.65,2.06c-2.12,3.27-5.31,4.9-9.56,4.9v.01Zm-.54-22.73c-1.75,0-3.22.64-4.41,1.91s-1.92,3.06-2.2,5.36h12.7v-.33c-.12-2.2-.72-3.91-1.78-5.12s-2.5-1.82-4.31-1.82Z" fill="#c9d1d9"/>
    <path d="m155.08,164.68c0-3.89.92-7.02,2.77-9.39s4.26-3.55,7.24-3.55,5.32,1.02,7.05,3.05v-13.22h4.34v36h-3.98l-.21-2.72c-1.73,2.12-4.15,3.19-7.24,3.19s-5.33-1.2-7.18-3.61-2.78-5.55-2.78-9.42v-.33h-.01Zm4.34.49c0,2.88.59,5.12,1.78,6.75s2.83,2.44,4.92,2.44c2.75,0,4.76-1.23,6.02-3.7v-11.65c-1.3-2.39-3.29-3.59-5.98-3.59-2.12,0-3.78.82-4.97,2.46s-1.78,4.07-1.78,7.29h.01Z" fill="#c9d1d9"/>
    <path d="m19.96,203.67v6.14h4.73v3.35h-4.73v15.75c0,1.02.21,1.78.63,2.29s1.14.76,2.16.76c.5,0,1.19-.09,2.06-.28v3.5c-1.14.31-2.25.47-3.33.47-1.94,0-3.4-.59-4.38-1.76s-1.48-2.84-1.48-4.99v-15.73h-4.62v-3.35h4.62v-6.14h4.34v-.01Z" fill="#c9d1d9"/>
    <path d="m34.1,212.88c1.92-2.36,4.42-3.54,7.5-3.54,5.36,0,8.06,3.02,8.11,9.07v16.76h-4.34v-16.78c-.02-1.83-.43-3.18-1.25-4.05s-2.1-1.31-3.83-1.31c-1.41,0-2.64.38-3.7,1.12s-1.89,1.73-2.48,2.95v18.07h-4.34v-36h4.34v13.71h-.01Z" fill="#c9d1d9"/>
    <path d="m68.46,213.7c-.66-.11-1.37-.16-2.13-.16-2.84,0-4.77,1.21-5.79,3.63v18h-4.34v-25.36h4.22l.07,2.93c1.42-2.27,3.44-3.4,6.05-3.4.84,0,1.48.11,1.92.33v4.03Z" fill="#c9d1d9"/>
    <path d="m82.52,235.64c-3.44,0-6.23-1.13-8.39-3.39s-3.23-5.28-3.23-9.06v-.8c0-2.52.48-4.76,1.44-6.74s2.3-3.52,4.03-4.64,3.6-1.68,5.61-1.68c3.3,0,5.86,1.09,7.69,3.26s2.74,5.28,2.74,9.33v1.8h-17.18c.06,2.5.79,4.52,2.19,6.06s3.18,2.31,5.33,2.31c1.53,0,2.83-.31,3.89-.94s1.99-1.45,2.79-2.48l2.65,2.06c-2.12,3.27-5.31,4.9-9.56,4.9v.01Zm-.54-22.73c-1.75,0-3.22.64-4.41,1.91s-1.92,3.06-2.2,5.36h12.7v-.33c-.12-2.2-.72-3.91-1.78-5.12s-2.5-1.82-4.31-1.82Z" fill="#c9d1d9"/>
    <path d="m112.19,228.44c0-1.17-.44-2.08-1.32-2.73s-2.42-1.21-4.62-1.68-3.94-1.03-5.23-1.69-2.24-1.44-2.86-2.34-.93-1.98-.93-3.23c0-2.08.88-3.84,2.64-5.27s4-2.16,6.74-2.16c2.88,0,5.21.74,7,2.23s2.68,3.38,2.68,5.7h-4.36c0-1.19-.5-2.21-1.51-3.07s-2.28-1.29-3.81-1.29-2.81.34-3.7,1.03-1.34,1.59-1.34,2.7c0,1.05.41,1.84,1.24,2.37s2.32,1.04,4.49,1.52,3.92,1.06,5.26,1.73,2.34,1.48,2.99,2.43.97,2.1.97,3.46c0,2.27-.91,4.08-2.72,5.45s-4.16,2.05-7.05,2.05c-2.03,0-3.83-.36-5.39-1.08s-2.79-1.72-3.67-3.01-1.32-2.68-1.32-4.18h4.34c.08,1.45.66,2.61,1.75,3.46s2.52,1.28,4.3,1.28c1.64,0,2.96-.33,3.95-1s1.49-1.55,1.49-2.66l-.01-.02Z" fill="#c9d1d9"/>
    <path d="m126.51,212.88c1.92-2.36,4.42-3.54,7.5-3.54,5.36,0,8.06,3.02,8.11,9.07v16.76h-4.34v-16.78c-.02-1.83-.43-3.18-1.25-4.05s-2.1-1.31-3.83-1.31c-1.41,0-2.64.38-3.7,1.12s-1.89,1.73-2.48,2.95v18.07h-4.34v-36h4.34v13.71h-.01Z" fill="#c9d1d9"/>
    <path d="m147.46,222.26c0-2.48.49-4.72,1.46-6.7s2.34-3.52,4.08-4.59,3.73-1.62,5.96-1.62c3.45,0,6.25,1.2,8.38,3.59s3.2,5.57,3.2,9.54v.3c0,2.47-.47,4.68-1.42,6.64s-2.3,3.49-4.05,4.58-3.78,1.64-6.06,1.64c-3.44,0-6.22-1.2-8.36-3.59s-3.2-5.55-3.2-9.49v-.3h.01Zm4.36.52c0,2.81.65,5.07,1.96,6.77s3.05,2.55,5.24,2.55,3.95-.86,5.25-2.59,1.95-4.14,1.95-7.25c0-2.78-.66-5.04-1.98-6.76s-3.07-2.59-5.26-2.59-3.87.85-5.18,2.55-1.97,4.14-1.97,7.31l-.01.01Z" fill="#c9d1d9"/>
    <path d="m180.7,235.17h-4.34v-36h4.34v36Z" fill="#c9d1d9"/>
    <path d="m186.58,222.28c0-3.89.92-7.02,2.77-9.39s4.26-3.55,7.24-3.55,5.32,1.02,7.05,3.05v-13.22h4.34v36h-3.98l-.21-2.72c-1.73,2.12-4.15,3.19-7.24,3.19s-5.33-1.2-7.18-3.61-2.78-5.55-2.78-9.42v-.33h-.01Zm4.34.49c0,2.88.59,5.12,1.78,6.75s2.83,2.44,4.92,2.44c2.75,0,4.76-1.23,6.02-3.7v-11.65c-1.3-2.39-3.29-3.59-5.98-3.59-2.12,0-3.78.82-4.97,2.46s-1.78,4.07-1.78,7.29h.01Z" fill="#c9d1d9"/>
  </g>
  <g>
    <path d="m38.78,596.02v23.2c-.02,3.22-1.03,5.85-3.04,7.9s-4.73,3.2-8.17,3.45l-1.2.05c-3.73,0-6.71-1.01-8.93-3.02s-3.34-4.79-3.38-8.32v-23.25h4.45v23.11c0,2.47.68,4.39,2.04,5.75s3.3,2.05,5.81,2.05,4.5-.68,5.85-2.04c1.35-1.36,2.03-3.27,2.03-5.74v-23.13h4.52l.02-.01Z" fill="#c9d1d9"/>
    <path d="m49.31,604.78l.14,3.19c1.94-2.44,4.47-3.66,7.59-3.66,5.36,0,8.06,3.02,8.11,9.07v16.76h-4.34v-16.78c-.02-1.83-.43-3.18-1.25-4.05s-2.1-1.31-3.83-1.31c-1.41,0-2.64.38-3.7,1.12s-1.89,1.73-2.48,2.95v18.07h-4.34v-25.36h4.1Z" fill="#c9d1d9"/>
    <path d="m75.77,604.78l.12,2.81c1.86-2.19,4.37-3.28,7.52-3.28,3.55,0,5.96,1.36,7.24,4.08.84-1.22,1.94-2.2,3.29-2.95s2.95-1.12,4.79-1.12c5.56,0,8.39,2.95,8.48,8.84v16.99h-4.34v-16.73c0-1.81-.41-3.17-1.24-4.07s-2.22-1.35-4.17-1.35c-1.61,0-2.95.48-4.01,1.44s-1.68,2.25-1.85,3.88v16.83h-4.36v-16.62c0-3.69-1.8-5.53-5.41-5.53-2.84,0-4.79,1.21-5.84,3.63v18.52h-4.34v-25.36h4.1l.02-.01Z" fill="#c9d1d9"/>
    <path d="m129.42,630.14c-.25-.5-.45-1.39-.61-2.67-2.02,2.09-4.42,3.14-7.22,3.14-2.5,0-4.55-.71-6.15-2.12s-2.4-3.21-2.4-5.38c0-2.64,1-4.69,3.01-6.15s4.83-2.19,8.47-2.19h4.22v-1.99c0-1.52-.45-2.72-1.36-3.62s-2.24-1.35-4.01-1.35c-1.55,0-2.84.39-3.89,1.17s-1.57,1.73-1.57,2.84h-4.36c0-1.27.45-2.49,1.35-3.67s2.12-2.11,3.66-2.8,3.23-1.03,5.07-1.03c2.92,0,5.21.73,6.87,2.19s2.52,3.47,2.58,6.04v11.67c0,2.33.3,4.18.89,5.55v.38h-4.55v-.01Zm-7.2-3.3c1.36,0,2.65-.35,3.87-1.05s2.1-1.62,2.65-2.74v-5.2h-3.4c-5.31,0-7.97,1.55-7.97,4.66,0,1.36.45,2.42,1.36,3.19s2.07,1.15,3.49,1.15v-.01Z" fill="#c9d1d9"/>
    <path d="m154.64,623.41c0-1.17-.44-2.08-1.32-2.73s-2.42-1.21-4.62-1.68-3.94-1.03-5.23-1.69-2.24-1.44-2.86-2.34-.93-1.98-.93-3.23c0-2.08.88-3.84,2.64-5.27s4-2.16,6.74-2.16c2.88,0,5.21.74,7,2.23s2.68,3.38,2.68,5.7h-4.36c0-1.19-.5-2.21-1.51-3.07s-2.28-1.29-3.81-1.29-2.81.34-3.7,1.03-1.34,1.59-1.34,2.7c0,1.05.41,1.84,1.24,2.37s2.32,1.04,4.49,1.52,3.92,1.06,5.26,1.73,2.34,1.48,2.99,2.43.97,2.1.97,3.46c0,2.27-.91,4.08-2.72,5.45s-4.16,2.05-7.05,2.05c-2.03,0-3.83-.36-5.39-1.08s-2.79-1.72-3.67-3.01-1.32-2.68-1.32-4.18h4.34c.08,1.45.66,2.61,1.75,3.46s2.52,1.28,4.3,1.28c1.64,0,2.96-.33,3.95-1s1.49-1.55,1.49-2.66l-.01-.02Z" fill="#c9d1d9"/>
    <path d="m171.7,618.4l-2.72,2.84v8.91h-4.34v-36h4.34v21.77l2.32-2.79,7.9-8.34h5.27l-9.87,10.59,11.02,14.77h-5.09l-8.84-11.74.01-.01Z" fill="#c9d1d9"/>
    <path d="m199,630.61c-3.44,0-6.23-1.13-8.39-3.39s-3.23-5.28-3.23-9.06v-.8c0-2.52.48-4.76,1.44-6.74s2.3-3.52,4.03-4.64,3.6-1.68,5.61-1.68c3.3,0,5.86,1.09,7.69,3.26s2.74,5.28,2.74,9.33v1.8h-17.18c.06,2.5.79,4.52,2.19,6.06s3.18,2.31,5.33,2.31c1.53,0,2.83-.31,3.89-.94s1.99-1.45,2.79-2.48l2.65,2.06c-2.12,3.27-5.31,4.9-9.56,4.9v.01Zm-.54-22.73c-1.75,0-3.22.64-4.41,1.91s-1.92,3.06-2.2,5.36h12.7v-.33c-.12-2.2-.72-3.91-1.78-5.12s-2.5-1.82-4.31-1.82h0Z" fill="#c9d1d9"/>
    <path d="m212.85,617.25c0-3.89.92-7.02,2.77-9.39s4.26-3.55,7.24-3.55,5.32,1.02,7.05,3.05v-13.22h4.34v36h-3.98l-.21-2.72c-1.73,2.12-4.15,3.19-7.24,3.19s-5.33-1.2-7.18-3.61-2.78-5.55-2.78-9.42v-.33h-.01Zm4.34.49c0,2.88.59,5.12,1.78,6.75s2.83,2.44,4.92,2.44c2.75,0,4.76-1.23,6.02-3.7v-11.65c-1.3-2.39-3.29-3.59-5.98-3.59-2.12,0-3.78.82-4.97,2.46s-1.78,4.07-1.78,7.29h.01Z" fill="#c9d1d9"/>
    <path d="m19.96,656.24v6.14h4.73v3.35h-4.73v15.75c0,1.02.21,1.78.63,2.29.42.51,1.14.76,2.16.76.5,0,1.19-.09,2.06-.28v3.5c-1.14.31-2.25.47-3.33.47-1.94,0-3.4-.59-4.38-1.76s-1.48-2.84-1.48-4.99v-15.73h-4.62v-3.35h4.62v-6.14h4.34v-.01Z" fill="#c9d1d9"/>
    <path d="m34.1,665.45c1.92-2.36,4.42-3.54,7.5-3.54,5.36,0,8.06,3.02,8.11,9.07v16.76h-4.34v-16.78c-.02-1.83-.43-3.18-1.25-4.05s-2.1-1.31-3.83-1.31c-1.41,0-2.64.38-3.7,1.12s-1.89,1.73-2.48,2.95v18.07h-4.34v-36h4.34v13.71h-.01Z" fill="#c9d1d9"/>
    <path d="m68.46,666.27c-.66-.11-1.37-.16-2.13-.16-2.84,0-4.77,1.21-5.79,3.63v18h-4.34v-25.36h4.22l.07,2.93c1.42-2.27,3.44-3.4,6.05-3.4.84,0,1.48.11,1.92.33v4.03h0Z" fill="#c9d1d9"/>
    <path d="m82.52,688.21c-3.44,0-6.23-1.13-8.39-3.39s-3.23-5.28-3.23-9.06v-.8c0-2.52.48-4.76,1.44-6.74s2.3-3.52,4.03-4.64,3.6-1.68,5.61-1.68c3.3,0,5.86,1.09,7.69,3.26s2.74,5.28,2.74,9.33v1.8h-17.18c.06,2.5.79,4.52,2.19,6.06s3.18,2.31,5.33,2.31c1.53,0,2.83-.31,3.89-.94s1.99-1.45,2.79-2.48l2.65,2.06c-2.12,3.27-5.31,4.9-9.56,4.9v.01Zm-.54-22.73c-1.75,0-3.22.64-4.41,1.91s-1.92,3.06-2.2,5.36h12.7v-.33c-.12-2.2-.72-3.91-1.78-5.12s-2.5-1.82-4.31-1.82h0Z" fill="#c9d1d9"/>
    <path d="m112.19,681.02c0-1.17-.44-2.08-1.32-2.73s-2.42-1.21-4.62-1.68-3.94-1.03-5.23-1.69-2.24-1.44-2.86-2.34-.93-1.98-.93-3.23c0-2.08.88-3.84,2.64-5.27s4-2.16,6.74-2.16c2.88,0,5.21.74,7,2.23s2.68,3.38,2.68,5.7h-4.36c0-1.19-.5-2.21-1.51-3.07s-2.28-1.29-3.81-1.29-2.81.34-3.7,1.03-1.34,1.59-1.34,2.7c0,1.05.41,1.84,1.24,2.37s2.32,1.04,4.49,1.52,3.92,1.06,5.26,1.73,2.34,1.48,2.99,2.43.97,2.1.97,3.46c0,2.27-.91,4.08-2.72,5.45s-4.16,2.05-7.05,2.05c-2.03,0-3.83-.36-5.39-1.08s-2.79-1.72-3.67-3.01-1.32-2.68-1.32-4.18h4.34c.08,1.45.66,2.61,1.75,3.46s2.52,1.28,4.3,1.28c1.64,0,2.96-.33,3.95-1s1.49-1.55,1.49-2.66l-.01-.02Z" fill="#c9d1d9"/>
    <path d="m126.51,665.45c1.92-2.36,4.42-3.54,7.5-3.54,5.36,0,8.06,3.02,8.11,9.07v16.76h-4.34v-16.78c-.02-1.83-.43-3.18-1.25-4.05s-2.1-1.31-3.83-1.31c-1.41,0-2.64.38-3.7,1.12s-1.89,1.73-2.48,2.95v18.07h-4.34v-36h4.34v13.71h-.01Z" fill="#c9d1d9"/>
    <path d="m147.46,674.83c0-2.48.49-4.72,1.46-6.7s2.34-3.52,4.08-4.59,3.73-1.62,5.96-1.62c3.45,0,6.25,1.2,8.38,3.59s3.2,5.57,3.2,9.54v.3c0,2.47-.47,4.68-1.42,6.64s-2.3,3.49-4.05,4.58-3.78,1.64-6.06,1.64c-3.44,0-6.22-1.2-8.36-3.59s-3.2-5.55-3.2-9.49v-.3h.01Zm4.36.52c0,2.81.65,5.07,1.96,6.77s3.05,2.55,5.24,2.55,3.95-.86,5.25-2.59,1.95-4.14,1.95-7.25c0-2.78-.66-5.04-1.98-6.76s-3.07-2.59-5.26-2.59-3.87.85-5.18,2.55-1.97,4.14-1.97,7.31l-.01.01Z" fill="#c9d1d9"/>
    <path d="m180.7,687.74h-4.34v-36h4.34v36Z" fill="#c9d1d9"/>
    <path d="m186.58,674.85c0-3.89.92-7.02,2.77-9.39s4.26-3.55,7.24-3.55,5.32,1.02,7.05,3.05v-13.22h4.34v36h-3.98l-.21-2.72c-1.73,2.12-4.15,3.19-7.24,3.19s-5.33-1.2-7.18-3.61-2.78-5.55-2.78-9.42v-.33h-.01Zm4.34.49c0,2.88.59,5.12,1.78,6.75s2.83,2.44,4.92,2.44c2.75,0,4.76-1.23,6.02-3.7v-11.65c-1.3-2.39-3.29-3.59-5.98-3.59-2.12,0-3.78.82-4.97,2.46s-1.78,4.07-1.78,7.29h.01Z" fill="#c9d1d9"/>
  </g>
  <g isolation="isolate">
    <g isolation="isolate">
      <path d="m459.905,893.114c0-.703.215-1.297.645-1.781s1.066-.727,1.91-.727,1.484.242,1.922.727.656,1.078.656,1.781-.219,1.289-.656,1.758-1.078.703-1.922.703-1.48-.234-1.91-.703-.645-1.055-.645-1.758Zm4.688,32.086h-4.336v-25.359h4.336v25.359Z" fill="#c9d1d9"/>
      <path d="m475.631,899.841l.141,3.188c1.938-2.438,4.469-3.656,7.594-3.656,5.359,0,8.062,3.023,8.109,9.07v16.758h-4.336v-16.781c-.016-1.828-.434-3.18-1.254-4.055s-2.098-1.312-3.832-1.312c-1.406,0-2.641.375-3.703,1.125s-1.891,1.734-2.484,2.953v18.07h-4.336v-25.359h4.102Z" fill="#c9d1d9"/>
      <path d="m508.842,912.31c0-3.984.914-7.137,2.742-9.457s4.281-3.48,7.359-3.48c3,0,5.367,1.008,7.102,3.023l.188-2.555h3.984v35.109h-4.335v-12.094c-1.75,1.875-4.078,2.812-6.984,2.812-3.062,0-5.504-1.191-7.324-3.574s-2.73-5.543-2.73-9.48v-.305Zm4.336.492c0,2.906.613,5.188,1.84,6.844s2.879,2.484,4.957,2.484c2.578,0,4.547-1.141,5.906-3.422v-12.422c-1.375-2.234-3.328-3.352-5.859-3.352-2.094,0-3.758.832-4.992,2.496s-1.852,4.121-1.852,7.371Z" fill="#c9d1d9"/>
      <path d="m552.834,922.692c-1.688,1.984-4.164,2.977-7.43,2.977-2.703,0-4.762-.785-6.176-2.355s-2.129-3.895-2.145-6.973v-16.5h4.336v16.383c0,3.844,1.562,5.766,4.688,5.766,3.312,0,5.516-1.234,6.609-3.703v-18.445h4.336v25.359h-4.125l-.094-2.508Z" fill="#c9d1d9"/>
      <path d="m563.662,893.114c0-.703.215-1.297.645-1.781s1.066-.727,1.91-.727,1.484.242,1.922.727.656,1.078.656,1.781-.219,1.289-.656,1.758-1.078.703-1.922.703-1.48-.234-1.91-.703-.645-1.055-.645-1.758Zm4.688,32.086h-4.336v-25.359h4.336v25.359Z" fill="#c9d1d9"/>
      <path d="m585.811,925.669c-3.438,0-6.234-1.129-8.391-3.387s-3.234-5.277-3.234-9.059v-.797c0-2.516.48-4.762,1.441-6.738s2.305-3.523,4.031-4.641,3.598-1.676,5.613-1.676c3.297,0,5.859,1.086,7.688,3.258s2.742,5.281,2.742,9.328v1.805h-17.18c.062,2.5.793,4.52,2.191,6.059s3.176,2.309,5.332,2.309c1.531,0,2.828-.312,3.891-.938s1.992-1.453,2.789-2.484l2.648,2.062c-2.125,3.266-5.312,4.898-9.562,4.898Zm-.539-22.734c-1.75,0-3.219.637-4.406,1.91s-1.922,3.059-2.203,5.355h12.703v-.328c-.125-2.203-.719-3.91-1.781-5.121s-2.5-1.816-4.312-1.816Z" fill="#c9d1d9"/>
      <path d="m606.6,893.7v6.141h4.734v3.352h-4.734v15.746c0,1.018.211,1.78.633,2.288.422.509,1.141.763,2.156.763.5,0,1.188-.094,2.062-.281v3.495c-1.141.311-2.25.466-3.328.466-1.938,0-3.398-.586-4.383-1.758s-1.477-2.836-1.477-4.992v-15.727h-4.617v-3.352h4.617v-6.141h4.336Z" fill="#c9d1d9"/>
    </g>
  </g>
  <g isolation="isolate">
    <g isolation="isolate">
      <path d="m794.734,893.114c0-.703.215-1.297.645-1.781s1.066-.727,1.91-.727,1.484.242,1.922.727.656,1.078.656,1.781-.219,1.289-.656,1.758-1.078.703-1.922.703-1.48-.234-1.91-.703-.645-1.055-.645-1.758Zm4.688,32.086h-4.336v-25.359h4.336v25.359Z" fill="#c9d1d9"/>
      <path d="m810.461,899.841l.141,3.188c1.938-2.438,4.469-3.656,7.594-3.656,5.359,0,8.062,3.023,8.109,9.07v16.758h-4.336v-16.781c-.016-1.828-.434-3.18-1.254-4.055s-2.098-1.312-3.832-1.312c-1.406,0-2.641.375-3.703,1.125s-1.891,1.734-2.484,2.953v18.07h-4.336v-25.359h4.102Z" fill="#c9d1d9"/>
      <path d="m848.828,899.841l.141,3.188c1.938-2.438,4.469-3.656,7.594-3.656,5.359,0,8.062,3.023,8.109,9.07v16.758h-4.336v-16.781c-.016-1.828-.434-3.18-1.254-4.055s-2.098-1.312-3.832-1.312c-1.406,0-2.641.375-3.703,1.125s-1.891,1.734-2.484,2.953v18.07h-4.336v-25.359h4.102Z" fill="#c9d1d9"/>
      <path d="m870.062,912.286c0-2.484.488-4.719,1.465-6.703s2.336-3.516,4.078-4.594,3.73-1.617,5.965-1.617c3.453,0,6.246,1.195,8.379,3.586s3.199,5.57,3.199,9.539v.305c0,2.469-.473,4.684-1.418,6.645s-2.297,3.488-4.055,4.582-3.777,1.641-6.059,1.641c-3.438,0-6.223-1.195-8.355-3.586s-3.199-5.555-3.199-9.492v-.305Zm4.359.516c0,2.812.652,5.07,1.957,6.773s3.051,2.555,5.238,2.555c2.203,0,3.953-.863,5.25-2.59s1.945-4.145,1.945-7.254c0-2.781-.66-5.035-1.98-6.762s-3.074-2.59-5.262-2.59c-2.141,0-3.867.852-5.18,2.555s-1.969,4.141-1.969,7.312Z" fill="#c9d1d9"/>
      <path d="m898.609,893.114c0-.703.215-1.297.645-1.781s1.066-.727,1.91-.727,1.484.242,1.922.727.656,1.078.656,1.781-.219,1.289-.656,1.758-1.078.703-1.922.703-1.48-.234-1.91-.703-.645-1.055-.645-1.758Zm4.688,32.086h-4.336v-25.359h4.336v25.359Z" fill="#c9d1d9"/>
      <path d="m925,918.474c0-1.172-.441-2.082-1.324-2.73s-2.422-1.207-4.617-1.676-3.938-1.031-5.227-1.688-2.242-1.438-2.859-2.344-.926-1.984-.926-3.234c0-2.078.879-3.836,2.637-5.273s4.004-2.156,6.738-2.156c2.875,0,5.207.742,6.996,2.227s2.684,3.383,2.684,5.695h-4.359c0-1.188-.504-2.211-1.512-3.07s-2.277-1.289-3.809-1.289c-1.578,0-2.812.344-3.703,1.031s-1.336,1.586-1.336,2.695c0,1.047.414,1.836,1.242,2.367s2.324,1.039,4.488,1.523,3.918,1.062,5.262,1.734,2.34,1.48,2.988,2.426.973,2.098.973,3.457c0,2.266-.906,4.082-2.719,5.449s-4.164,2.051-7.055,2.051c-2.031,0-3.828-.359-5.391-1.078s-2.785-1.723-3.668-3.012-1.324-2.684-1.324-4.184h4.336c.078,1.453.66,2.605,1.746,3.457s2.52,1.277,4.301,1.277c1.641,0,2.957-.332,3.949-.996s1.488-1.551,1.488-2.66Z" fill="#c9d1d9"/>
      <path d="m945.508,925.669c-3.438,0-6.234-1.129-8.391-3.387s-3.234-5.277-3.234-9.059v-.797c0-2.516.48-4.762,1.441-6.738s2.305-3.523,4.031-4.641,3.598-1.676,5.613-1.676c3.297,0,5.859,1.086,7.688,3.258s2.742,5.281,2.742,9.328v1.805h-17.18c.062,2.5.793,4.52,2.191,6.059s3.176,2.309,5.332,2.309c1.531,0,2.828-.312,3.891-.938s1.992-1.453,2.789-2.484l2.648,2.062c-2.125,3.266-5.312,4.898-9.562,4.898Zm-.539-22.734c-1.75,0-3.219.637-4.406,1.91s-1.922,3.059-2.203,5.355h12.703v-.328c-.125-2.203-.719-3.91-1.781-5.121s-2.5-1.816-4.312-1.816Z" fill="#c9d1d9"/>
    </g>
  </g>
  <g isolation="isolate">
    <g isolation="isolate">
      <path d="m223.726,42.389c-3.859-1.109-6.668-2.473-8.426-4.09s-2.637-3.613-2.637-5.988c0-2.688,1.074-4.91,3.223-6.668s4.941-2.637,8.379-2.637c2.344,0,4.434.453,6.27,1.359s3.258,2.156,4.266,3.75,1.512,3.336,1.512,5.227h-4.523c0-2.07-.656-3.696-1.969-4.881-1.312-1.184-3.164-1.775-5.555-1.775-2.219,0-3.949.489-5.191,1.468s-1.863,2.336-1.863,4.073c0,1.394.59,2.571,1.77,3.534s3.188,1.843,6.023,2.642c2.836.798,5.055,1.678,6.656,2.639s2.789,2.082,3.562,3.363,1.16,2.789,1.16,4.523c0,2.766-1.078,4.98-3.234,6.645s-5.039,2.496-8.648,2.496c-2.344,0-4.531-.449-6.562-1.348s-3.598-2.129-4.699-3.691-1.652-3.336-1.652-5.32h4.523c0,2.062.762,3.691,2.285,4.887s3.559,1.793,6.105,1.793c2.375,0,4.195-.484,5.461-1.453s1.898-2.289,1.898-3.961-.586-2.965-1.758-3.879-3.297-1.816-6.375-2.707Z" fill="#c9d1d9"/>
      <path d="m246.647,44.241v13.359h-4.5V23.475h12.586c3.734,0,6.66.953,8.777,2.859s3.176,4.43,3.176,7.57c0,3.312-1.035,5.863-3.105,7.652s-5.035,2.684-8.895,2.684h-8.039Zm0-3.68h8.086c2.406,0,4.25-.567,5.531-1.702s1.922-2.774,1.922-4.919c0-2.035-.641-3.662-1.922-4.884-1.281-1.221-3.039-1.854-5.273-1.901h-8.344v13.406Z" fill="#c9d1d9"/>
      <path d="m276.952,53.92h16.172v3.68h-20.695V23.475h4.523v30.445Z" fill="#c9d1d9"/>
    </g>
  </g>
</svg>