<?xml version="1.0" encoding="UTF-8"?>
<svg id="Ebene_1" data-name="Ebene 1" xmlns="http://www.w3.org/2000/svg" width="1533.79" height="1075.01" viewBox="0 0 1533.79 1075.01">
  <g isolation="isolate">
    <g isolation="isolate">
      <path d="m175.331,486v-2.766l11.859-10.055c1.609-1.375,2.926-2.625,3.949-3.75s1.777-2.266,2.262-3.422.727-2.445.727-3.867c0-1.547-.27-2.848-.809-3.902s-1.316-1.848-2.332-2.379-2.258-.797-3.727-.797c-1.688,0-3.051.332-4.09.996s-1.812,1.559-2.32,2.684-.809,2.391-.902,3.797l-4.5-1.383c.094-1.5.637-2.977,1.629-4.43s2.355-2.656,4.09-3.609,3.758-1.43,6.07-1.43c1.312,0,2.633.188,3.961.562s2.551.973,3.668,1.793,2.016,1.891,2.695,3.211,1.02,2.918,1.02,4.793c0,2.672-.727,5.059-2.18,7.16s-3.484,4.207-6.094,6.316l-9.164,7.43-2.977-.562h21.07v3.609h-23.906Z" fill="#c9d1d9"/>
      <path d="m216.136,486.562c-3.906,0-6.938-1.527-9.094-4.582s-3.234-7.34-3.234-12.855,1.078-9.801,3.234-12.855,5.188-4.582,9.094-4.582,6.957,1.527,9.105,4.582,3.223,7.34,3.223,12.855-1.074,9.801-3.223,12.855-5.184,4.582-9.105,4.582Zm0-3.375c2.594,0,4.555-1.195,5.883-3.586s1.992-5.883,1.992-10.477-.664-8.086-1.992-10.477-3.289-3.586-5.883-3.586-4.555,1.195-5.883,3.586-1.992,5.883-1.992,10.477.664,8.086,1.992,10.477,3.289,3.586,5.883,3.586Z" fill="#c9d1d9"/>
      <path d="m246.558,486.562c-3.906,0-6.938-1.527-9.094-4.582s-3.234-7.34-3.234-12.855,1.078-9.801,3.234-12.855,5.188-4.582,9.094-4.582,6.957,1.527,9.105,4.582,3.223,7.34,3.223,12.855-1.074,9.801-3.223,12.855-5.184,4.582-9.105,4.582Zm0-3.375c2.594,0,4.555-1.195,5.883-3.586s1.992-5.883,1.992-10.477-.664-8.086-1.992-10.477-3.289-3.586-5.883-3.586-4.555,1.195-5.883,3.586-1.992,5.883-1.992,10.477.664,8.086,1.992,10.477,3.289,3.586,5.883,3.586Z" fill="#c9d1d9"/>
    </g>
  </g>
  <g isolation="isolate">
    <g isolation="isolate">
      <path d="m408.054,486v-11.156h.047v-19.969l1.031,2.25-14.953,17.766-1.406-1.219h23.344v3.609h-25.219v-4.031l17.789-21h3.492v33.75h-4.125Z" fill="#c9d1d9"/>
      <path d="m432.382,486.562c-3.906,0-6.938-1.527-9.094-4.582s-3.234-7.34-3.234-12.855,1.078-9.801,3.234-12.855,5.188-4.582,9.094-4.582,6.957,1.527,9.105,4.582,3.223,7.34,3.223,12.855-1.074,9.801-3.223,12.855-5.184,4.582-9.105,4.582Zm0-3.375c2.594,0,4.555-1.195,5.883-3.586s1.992-5.883,1.992-10.477-.664-8.086-1.992-10.477-3.289-3.586-5.883-3.586-4.555,1.195-5.883,3.586-1.992,5.883-1.992,10.477.664,8.086,1.992,10.477,3.289,3.586,5.883,3.586Z" fill="#c9d1d9"/>
      <path d="m462.804,486.562c-3.906,0-6.938-1.527-9.094-4.582s-3.234-7.34-3.234-12.855,1.078-9.801,3.234-12.855,5.188-4.582,9.094-4.582,6.957,1.527,9.105,4.582,3.223,7.34,3.223,12.855-1.074,9.801-3.223,12.855-5.184,4.582-9.105,4.582Zm0-3.375c2.594,0,4.555-1.195,5.883-3.586s1.992-5.883,1.992-10.477-.664-8.086-1.992-10.477-3.289-3.586-5.883-3.586-4.555,1.195-5.883,3.586-1.992,5.883-1.992,10.477.664,8.086,1.992,10.477,3.289,3.586,5.883,3.586Z" fill="#c9d1d9"/>
    </g>
  </g>
  <g isolation="isolate">
    <g isolation="isolate">
      <path d="m619.601,486.562c-4.094,0-7.199-1.5-9.316-4.5s-3.176-7.086-3.176-12.258c0-2.531.258-4.895.773-7.09s1.301-4.117,2.355-5.766,2.379-2.938,3.973-3.867,3.469-1.395,5.625-1.395c2.219,0,4.145.457,5.777,1.371s2.918,2.059,3.855,3.434,1.484,2.773,1.641,4.195l-4.289,1.102c-.094-2.016-.746-3.641-1.957-4.875s-2.863-1.852-4.957-1.852c-1.578,0-2.891.344-3.938,1.031s-1.887,1.594-2.52,2.719-1.109,2.355-1.43,3.691-.531,2.66-.633,3.973-.152,2.492-.152,3.539l-.375-.375c.656-1.531,1.746-2.891,3.27-4.078s3.512-1.781,5.965-1.781c1.969,0,3.785.441,5.449,1.324s2.996,2.172,3.996,3.867,1.5,3.762,1.5,6.199c0,2.312-.477,4.324-1.43,6.035s-2.289,3.031-4.008,3.961-3.719,1.395-6,1.395Zm0-3.375c2.297,0,4.074-.723,5.332-2.168s1.887-3.418,1.887-5.918c0-2.516-.625-4.469-1.875-5.859s-2.984-2.086-5.203-2.086c-2.281,0-4.121.723-5.52,2.168s-2.098,3.418-2.098,5.918c0,2.438.676,4.371,2.027,5.801s3.168,2.145,5.449,2.145Z" fill="#c9d1d9"/>
      <path d="m649.038,486.562c-3.906,0-6.938-1.527-9.094-4.582s-3.234-7.34-3.234-12.855,1.078-9.801,3.234-12.855,5.188-4.582,9.094-4.582,6.957,1.527,9.105,4.582,3.223,7.34,3.223,12.855-1.074,9.801-3.223,12.855-5.184,4.582-9.105,4.582Zm0-3.375c2.594,0,4.555-1.195,5.883-3.586s1.992-5.883,1.992-10.477-.664-8.086-1.992-10.477-3.289-3.586-5.883-3.586-4.555,1.195-5.883,3.586-1.992,5.883-1.992,10.477.664,8.086,1.992,10.477,3.289,3.586,5.883,3.586Z" fill="#c9d1d9"/>
      <path d="m679.46,486.562c-3.906,0-6.938-1.527-9.094-4.582s-3.234-7.34-3.234-12.855,1.078-9.801,3.234-12.855,5.188-4.582,9.094-4.582,6.957,1.527,9.105,4.582,3.223,7.34,3.223,12.855-1.074,9.801-3.223,12.855-5.184,4.582-9.105,4.582Zm0-3.375c2.594,0,4.555-1.195,5.883-3.586s1.992-5.883,1.992-10.477-.664-8.086-1.992-10.477-3.289-3.586-5.883-3.586-4.555,1.195-5.883,3.586-1.992,5.883-1.992,10.477.664,8.086,1.992,10.477,3.289,3.586,5.883,3.586Z" fill="#c9d1d9"/>
    </g>
  </g>
  <g isolation="isolate">
    <g isolation="isolate">
      <path d="m835.062,486.562c-2.312,0-4.363-.426-6.152-1.277s-3.188-2.043-4.195-3.574-1.512-3.297-1.512-5.297c0-2.141.641-4.059,1.922-5.754s3.156-2.77,5.625-3.223c-1.297-.312-2.43-.805-3.398-1.477s-1.715-1.496-2.238-2.473-.785-2.066-.785-3.27c0-1.641.457-3.105,1.371-4.395s2.18-2.301,3.797-3.035,3.48-1.102,5.59-1.102c2.125,0,3.988.367,5.59,1.102s2.855,1.746,3.762,3.035,1.359,2.754,1.359,4.395c0,1.203-.262,2.293-.785,3.27s-1.262,1.801-2.215,2.473-2.078,1.164-3.375,1.477c2.469.453,4.344,1.527,5.625,3.223s1.922,3.613,1.922,5.754c0,2-.508,3.766-1.523,5.297s-2.418,2.723-4.207,3.574-3.848,1.277-6.176,1.277Zm.023-3.703c2.328,0,4.164-.602,5.508-1.805s2.016-2.852,2.016-4.945c0-2.047-.672-3.684-2.016-4.91s-3.18-1.84-5.508-1.84c-2.312,0-4.152.613-5.52,1.84s-2.051,2.863-2.051,4.91c0,2.109.684,3.762,2.051,4.957s3.207,1.793,5.52,1.793Zm0-16.969c2.016,0,3.602-.461,4.758-1.383s1.734-2.203,1.734-3.844c0-1.703-.578-3.059-1.734-4.066s-2.742-1.512-4.758-1.512-3.609.504-4.781,1.512-1.758,2.363-1.758,4.066c0,1.641.586,2.922,1.758,3.844s2.766,1.383,4.781,1.383Z" fill="#c9d1d9"/>
      <path d="m864.64,486.562c-3.906,0-6.938-1.527-9.094-4.582s-3.234-7.34-3.234-12.855,1.078-9.801,3.234-12.855,5.188-4.582,9.094-4.582,6.957,1.527,9.105,4.582,3.223,7.34,3.223,12.855-1.074,9.801-3.223,12.855-5.184,4.582-9.105,4.582Zm0-3.375c2.594,0,4.555-1.195,5.883-3.586s1.992-5.883,1.992-10.477-.664-8.086-1.992-10.477-3.289-3.586-5.883-3.586-4.555,1.195-5.883,3.586-1.992,5.883-1.992,10.477.664,8.086,1.992,10.477,3.289,3.586,5.883,3.586Z" fill="#c9d1d9"/>
      <path d="m895.062,486.562c-3.906,0-6.938-1.527-9.094-4.582s-3.234-7.34-3.234-12.855,1.078-9.801,3.234-12.855,5.188-4.582,9.094-4.582,6.957,1.527,9.105,4.582,3.223,7.34,3.223,12.855-1.074,9.801-3.223,12.855-5.184,4.582-9.105,4.582Zm0-3.375c2.594,0,4.555-1.195,5.883-3.586s1.992-5.883,1.992-10.477-.664-8.086-1.992-10.477-3.289-3.586-5.883-3.586-4.555,1.195-5.883,3.586-1.992,5.883-1.992,10.477.664,8.086,1.992,10.477,3.289,3.586,5.883,3.586Z" fill="#c9d1d9"/>
    </g>
  </g>
  <g isolation="isolate">
    <g isolation="isolate">
      <path d="m1036.636,486v-26.883c-1.234,1.062-2.391,1.957-3.469,2.684s-2.281,1.34-3.609,1.84v-3.984c.688-.328,1.414-.738,2.18-1.23s1.637-1.219,2.613-2.18,2.105-2.293,3.387-3.996h3.023v33.75h-4.125Z" fill="#c9d1d9"/>
      <path d="m1059.276,486.562c-3.906,0-6.938-1.527-9.094-4.582s-3.234-7.34-3.234-12.855,1.078-9.801,3.234-12.855,5.188-4.582,9.094-4.582,6.957,1.527,9.105,4.582,3.223,7.34,3.223,12.855-1.074,9.801-3.223,12.855-5.184,4.582-9.105,4.582Zm0-3.375c2.594,0,4.555-1.195,5.883-3.586s1.992-5.883,1.992-10.477-.664-8.086-1.992-10.477-3.289-3.586-5.883-3.586-4.555,1.195-5.883,3.586-1.992,5.883-1.992,10.477.664,8.086,1.992,10.477,3.289,3.586,5.883,3.586Z" fill="#c9d1d9"/>
      <path d="m1089.698,486.562c-3.906,0-6.938-1.527-9.094-4.582s-3.234-7.34-3.234-12.855,1.078-9.801,3.234-12.855,5.188-4.582,9.094-4.582,6.957,1.527,9.105,4.582,3.223,7.34,3.223,12.855-1.074,9.801-3.223,12.855-5.184,4.582-9.105,4.582Zm0-3.375c2.594,0,4.555-1.195,5.883-3.586s1.992-5.883,1.992-10.477-.664-8.086-1.992-10.477-3.289-3.586-5.883-3.586-4.555,1.195-5.883,3.586-1.992,5.883-1.992,10.477.664,8.086,1.992,10.477,3.289,3.586,5.883,3.586Z" fill="#c9d1d9"/>
      <path d="m1120.12,486.562c-3.906,0-6.938-1.527-9.094-4.582s-3.234-7.34-3.234-12.855,1.078-9.801,3.234-12.855,5.188-4.582,9.094-4.582,6.957,1.527,9.105,4.582,3.223,7.34,3.223,12.855-1.074,9.801-3.223,12.855-5.184,4.582-9.105,4.582Zm0-3.375c2.594,0,4.555-1.195,5.883-3.586s1.992-5.883,1.992-10.477-.664-8.086-1.992-10.477-3.289-3.586-5.883-3.586-4.555,1.195-5.883,3.586-1.992,5.883-1.992,10.477.664,8.086,1.992,10.477,3.289,3.586,5.883,3.586Z" fill="#c9d1d9"/>
    </g>
  </g>
  <g isolation="isolate">
    <g isolation="isolate">
      <path d="m1253.901,486v-26.883c-1.234,1.062-2.391,1.957-3.469,2.684s-2.281,1.34-3.609,1.84v-3.984c.688-.328,1.414-.738,2.18-1.23s1.637-1.219,2.613-2.18,2.105-2.293,3.387-3.996h3.023v33.75h-4.125Z" fill="#c9d1d9"/>
      <path d="m1263.628,486v-2.766l11.859-10.055c1.609-1.375,2.926-2.625,3.949-3.75s1.777-2.266,2.262-3.422.727-2.445.727-3.867c0-1.547-.27-2.848-.809-3.902s-1.316-1.848-2.332-2.379-2.258-.797-3.727-.797c-1.688,0-3.051.332-4.09.996s-1.812,1.559-2.32,2.684-.809,2.391-.902,3.797l-4.5-1.383c.094-1.5.637-2.977,1.629-4.43s2.355-2.656,4.09-3.609,3.758-1.43,6.07-1.43c1.312,0,2.633.188,3.961.562s2.551.973,3.668,1.793,2.016,1.891,2.695,3.211,1.02,2.918,1.02,4.793c0,2.672-.727,5.059-2.18,7.16s-3.484,4.207-6.094,6.316l-9.164,7.43-2.977-.562h21.07v3.609h-23.906Z" fill="#c9d1d9"/>
      <path d="m1304.433,486.562c-3.906,0-6.938-1.527-9.094-4.582s-3.234-7.34-3.234-12.855,1.078-9.801,3.234-12.855,5.188-4.582,9.094-4.582,6.957,1.527,9.105,4.582,3.223,7.34,3.223,12.855-1.074,9.801-3.223,12.855-5.184,4.582-9.105,4.582Zm0-3.375c2.594,0,4.555-1.195,5.883-3.586s1.992-5.883,1.992-10.477-.664-8.086-1.992-10.477-3.289-3.586-5.883-3.586-4.555,1.195-5.883,3.586-1.992,5.883-1.992,10.477.664,8.086,1.992,10.477,3.289,3.586,5.883,3.586Z" fill="#c9d1d9"/>
      <path d="m1334.854,486.562c-3.906,0-6.938-1.527-9.094-4.582s-3.234-7.34-3.234-12.855,1.078-9.801,3.234-12.855,5.188-4.582,9.094-4.582,6.957,1.527,9.105,4.582,3.223,7.34,3.223,12.855-1.074,9.801-3.223,12.855-5.184,4.582-9.105,4.582Zm0-3.375c2.594,0,4.555-1.195,5.883-3.586s1.992-5.883,1.992-10.477-.664-8.086-1.992-10.477-3.289-3.586-5.883-3.586-4.555,1.195-5.883,3.586-1.992,5.883-1.992,10.477.664,8.086,1.992,10.477,3.289,3.586,5.883,3.586Z" fill="#c9d1d9"/>
    </g>
  </g>
  <g isolation="isolate">
    <g isolation="isolate">
      <path d="m41.06,341.94l-33.75-14.25v-4.219l33.75-14.203v4.5l-29.344,11.812,29.344,11.859v4.5Zm-11.062-7.312h-3.469v-18.047h3.469v18.047Z" fill="#c9d1d9"/>
      <path d="m41.06,304.979H15.748v-3.703h4.336c-1.312-.594-2.457-1.578-3.434-2.953s-1.465-3.008-1.465-4.898c0-1.672.457-3.129,1.371-4.371s2.207-2.168,3.879-2.777c-1.547-.797-2.809-1.887-3.785-3.27s-1.465-2.996-1.465-4.84c0-2.422.879-4.34,2.637-5.754s4.191-2.121,7.301-2.121h15.938v3.938h-15.633c-1.438,0-2.676.148-3.715.445s-1.84.785-2.402,1.465-.844,1.605-.844,2.777c0,1.281.363,2.434,1.09,3.457s1.785,1.828,3.176,2.414,3.086.879,5.086.879h13.242v3.938h-15.633c-1.438,0-2.676.148-3.715.445s-1.84.781-2.402,1.453-.844,1.586-.844,2.742c0,1.281.359,2.438,1.078,3.469s1.773,1.844,3.164,2.438,3.094.891,5.109.891h13.242v3.938Z" fill="#c9d1d9"/>
      <path d="m50.201,263.097H15.748v-3.703h5.273l-.375.117c-1.844-.688-3.215-1.828-4.113-3.422s-1.348-3.289-1.348-5.086c0-2.062.539-3.875,1.617-5.438s2.609-2.781,4.594-3.656,4.328-1.312,7.031-1.312,5.043.441,7.02,1.324,3.5,2.105,4.57,3.668,1.605,3.367,1.605,5.414c0,1.656-.414,3.297-1.242,4.922s-2.227,2.852-4.195,3.68l-.188-.352h14.203v3.844Zm-11.859-11.016c0-2.094-.863-3.812-2.59-5.156s-4.199-2.016-7.418-2.016c-3.125,0-5.551.648-7.277,1.945s-2.59,3.023-2.59,5.18c0,1.312.344,2.52,1.031,3.621s1.758,1.98,3.211,2.637,3.328.984,5.625.984c3.391,0,5.906-.703,7.547-2.109s2.461-3.102,2.461-5.086Z" fill="#c9d1d9"/>
      <path d="m41.06,231.011c0,1-.332,1.875-.996,2.625s-1.504,1.125-2.52,1.125H5.904v-3.938h30.586c.516,0,.859-.074,1.031-.223s.258-.465.258-.949v-2.461h3.281v3.82Z" fill="#c9d1d9"/>
      <path d="m11.505,219.995c0,.906-.32,1.68-.961,2.32s-1.414.961-2.32.961c-.922,0-1.699-.32-2.332-.961s-.949-1.414-.949-2.32c0-.922.316-1.699.949-2.332s1.41-.949,2.332-.949c.906,0,1.68.316,2.32.949s.961,1.41.961,2.332Zm29.555,1.969H15.748v-3.938h25.312v3.938Z" fill="#c9d1d9"/>
      <path d="m41.06,204.761c0,1-.332,1.875-.996,2.625s-1.504,1.125-2.52,1.125h-18.516v4.078h-3.281v-4.078h-5.297l-.844-3.938h6.141v-5.016h3.281v5.016h17.461c.516,0,.859-.074,1.031-.223s.258-.465.258-.949v-3.867h3.281v5.227Z" fill="#c9d1d9"/>
      <path d="m41.623,185.847c0,1.766-.398,3.297-1.195,4.594s-1.938,2.297-3.422,3-3.258,1.055-5.32,1.055h-15.938v-3.938h15.633c2.062,0,3.738-.391,5.027-1.172s1.934-2.188,1.934-4.219c0-1.516-.391-2.828-1.172-3.938s-1.953-1.973-3.516-2.59-3.516-.926-5.859-.926h-12.047v-3.938h25.312v3.703h-5.953l1.031-.164c1.562.656,2.867,1.715,3.914,3.176s1.57,3.246,1.57,5.355Z" fill="#c9d1d9"/>
      <path d="m41.623,157.534c0,2.047-.539,3.855-1.617,5.426s-2.609,2.793-4.594,3.668-4.328,1.312-7.031,1.312-5.043-.441-7.02-1.324-3.5-2.105-4.57-3.668-1.605-3.367-1.605-5.414c0-1.656.414-3.297,1.242-4.922s2.227-2.852,4.195-3.68l.188.445H5.904v-3.938h35.156v3.703h-5.273l.375-.117c1.844.688,3.215,1.828,4.113,3.422s1.348,3.289,1.348,5.086Zm-3.281-1.031c0-1.328-.344-2.539-1.031-3.633s-1.762-1.969-3.223-2.625-3.332-.984-5.613-.984c-3.406,0-5.926.703-7.559,2.109s-2.449,3.102-2.449,5.086c0,2.094.863,3.812,2.59,5.156s4.199,2.016,7.418,2.016c3.125,0,5.551-.648,7.277-1.945s2.59-3.023,2.59-5.18Z" fill="#c9d1d9"/>
      <path d="m41.623,127.651c0,2.406-.539,4.488-1.617,6.246s-2.605,3.113-4.582,4.066-4.309,1.43-6.996,1.43c-2.703,0-5.047-.477-7.031-1.43s-3.516-2.297-4.594-4.031-1.617-3.773-1.617-6.117c0-1.344.215-2.691.645-4.043s1.172-2.586,2.227-3.703,2.5-2.016,4.336-2.695,4.152-1.02,6.949-1.02v20.508h-3.188v-17.086l1.477,1.125c-2.219.078-4,.438-5.344,1.078s-2.316,1.473-2.918,2.496-.902,2.16-.902,3.41c0,1.484.387,2.766,1.16,3.844s1.902,1.906,3.387,2.484,3.297.867,5.438.867c3.156,0,5.594-.645,7.312-1.934s2.578-3.121,2.578-5.496c0-1.703-.43-3.137-1.289-4.301s-2.102-2.02-3.727-2.566l1.312-3.867c1.469.609,2.723,1.422,3.762,2.438s1.836,2.223,2.391,3.621.832,2.957.832,4.676Z" fill="#c9d1d9"/>
    </g>
  </g>
  <g isolation="isolate">
    <g isolation="isolate">
      <path d="m1518.396,463.969v-3.281h13.383v3.281h-13.383Zm3.773,22.031v-29.906c0-1.891.445-3.238,1.336-4.043s2.383-1.207,4.477-1.207h3.164v3.281h-3.727c-.469,0-.805.102-1.008.305s-.305.539-.305,1.008v30.562h-3.938Z" fill="#c9d1d9"/>
    </g>
  </g>
  <g isolation="isolate">
    <g isolation="isolate">
      <path d="m175.331,1062v-2.766l11.859-10.055c1.609-1.375,2.926-2.625,3.949-3.75s1.777-2.266,2.262-3.422.727-2.445.727-3.867c0-1.547-.27-2.848-.809-3.902s-1.316-1.848-2.332-2.379-2.258-.797-3.727-.797c-1.688,0-3.051.332-4.09.996s-1.812,1.559-2.32,2.684-.809,2.391-.902,3.797l-4.5-1.383c.094-1.5.637-2.977,1.629-4.43s2.355-2.656,4.09-3.609,3.758-1.43,6.07-1.43c1.312,0,2.633.188,3.961.562s2.551.973,3.668,1.793,2.016,1.891,2.695,3.211,1.02,2.918,1.02,4.793c0,2.672-.727,5.059-2.18,7.16s-3.484,4.207-6.094,6.316l-9.164,7.43-2.977-.562h21.07v3.609h-23.906Z" fill="#c9d1d9"/>
      <path d="m216.136,1062.562c-3.906,0-6.938-1.527-9.094-4.582s-3.234-7.34-3.234-12.855,1.078-9.801,3.234-12.855,5.188-4.582,9.094-4.582,6.957,1.527,9.105,4.582,3.223,7.34,3.223,12.855-1.074,9.801-3.223,12.855-5.184,4.582-9.105,4.582Zm0-3.375c2.594,0,4.555-1.195,5.883-3.586s1.992-5.883,1.992-10.477-.664-8.086-1.992-10.477-3.289-3.586-5.883-3.586-4.555,1.195-5.883,3.586-1.992,5.883-1.992,10.477.664,8.086,1.992,10.477,3.289,3.586,5.883,3.586Z" fill="#c9d1d9"/>
      <path d="m246.558,1062.562c-3.906,0-6.938-1.527-9.094-4.582s-3.234-7.34-3.234-12.855,1.078-9.801,3.234-12.855,5.188-4.582,9.094-4.582,6.957,1.527,9.105,4.582,3.223,7.34,3.223,12.855-1.074,9.801-3.223,12.855-5.184,4.582-9.105,4.582Zm0-3.375c2.594,0,4.555-1.195,5.883-3.586s1.992-5.883,1.992-10.477-.664-8.086-1.992-10.477-3.289-3.586-5.883-3.586-4.555,1.195-5.883,3.586-1.992,5.883-1.992,10.477.664,8.086,1.992,10.477,3.289,3.586,5.883,3.586Z" fill="#c9d1d9"/>
    </g>
  </g>
  <g isolation="isolate">
    <g isolation="isolate">
      <path d="m408.054,1062v-11.156h.047v-19.969l1.031,2.25-14.953,17.766-1.406-1.219h23.344v3.609h-25.219v-4.031l17.789-21h3.492v33.75h-4.125Z" fill="#c9d1d9"/>
      <path d="m432.382,1062.562c-3.906,0-6.938-1.527-9.094-4.582s-3.234-7.34-3.234-12.855,1.078-9.801,3.234-12.855,5.188-4.582,9.094-4.582,6.957,1.527,9.105,4.582,3.223,7.34,3.223,12.855-1.074,9.801-3.223,12.855-5.184,4.582-9.105,4.582Zm0-3.375c2.594,0,4.555-1.195,5.883-3.586s1.992-5.883,1.992-10.477-.664-8.086-1.992-10.477-3.289-3.586-5.883-3.586-4.555,1.195-5.883,3.586-1.992,5.883-1.992,10.477.664,8.086,1.992,10.477,3.289,3.586,5.883,3.586Z" fill="#c9d1d9"/>
      <path d="m462.804,1062.562c-3.906,0-6.938-1.527-9.094-4.582s-3.234-7.34-3.234-12.855,1.078-9.801,3.234-12.855,5.188-4.582,9.094-4.582,6.957,1.527,9.105,4.582,3.223,7.34,3.223,12.855-1.074,9.801-3.223,12.855-5.184,4.582-9.105,4.582Zm0-3.375c2.594,0,4.555-1.195,5.883-3.586s1.992-5.883,1.992-10.477-.664-8.086-1.992-10.477-3.289-3.586-5.883-3.586-4.555,1.195-5.883,3.586-1.992,5.883-1.992,10.477.664,8.086,1.992,10.477,3.289,3.586,5.883,3.586Z" fill="#c9d1d9"/>
    </g>
  </g>
  <g isolation="isolate">
    <g isolation="isolate">
      <path d="m619.601,1062.562c-4.094,0-7.199-1.5-9.316-4.5s-3.176-7.086-3.176-12.258c0-2.531.258-4.895.773-7.09s1.301-4.117,2.355-5.766,2.379-2.938,3.973-3.867,3.469-1.395,5.625-1.395c2.219,0,4.145.457,5.777,1.371s2.918,2.059,3.855,3.434,1.484,2.773,1.641,4.195l-4.289,1.102c-.094-2.016-.746-3.641-1.957-4.875s-2.863-1.852-4.957-1.852c-1.578,0-2.891.344-3.938,1.031s-1.887,1.594-2.52,2.719-1.109,2.355-1.43,3.691-.531,2.66-.633,3.973-.152,2.492-.152,3.539l-.375-.375c.656-1.531,1.746-2.891,3.27-4.078s3.512-1.781,5.965-1.781c1.969,0,3.785.441,5.449,1.324s2.996,2.172,3.996,3.867,1.5,3.762,1.5,6.199c0,2.312-.477,4.324-1.43,6.035s-2.289,3.031-4.008,3.961-3.719,1.395-6,1.395Zm0-3.375c2.297,0,4.074-.723,5.332-2.168s1.887-3.418,1.887-5.918c0-2.516-.625-4.469-1.875-5.859s-2.984-2.086-5.203-2.086c-2.281,0-4.121.723-5.52,2.168s-2.098,3.418-2.098,5.918c0,2.438.676,4.371,2.027,5.801s3.168,2.145,5.449,2.145Z" fill="#c9d1d9"/>
      <path d="m649.038,1062.562c-3.906,0-6.938-1.527-9.094-4.582s-3.234-7.34-3.234-12.855,1.078-9.801,3.234-12.855,5.188-4.582,9.094-4.582,6.957,1.527,9.105,4.582,3.223,7.34,3.223,12.855-1.074,9.801-3.223,12.855-5.184,4.582-9.105,4.582Zm0-3.375c2.594,0,4.555-1.195,5.883-3.586s1.992-5.883,1.992-10.477-.664-8.086-1.992-10.477-3.289-3.586-5.883-3.586-4.555,1.195-5.883,3.586-1.992,5.883-1.992,10.477.664,8.086,1.992,10.477,3.289,3.586,5.883,3.586Z" fill="#c9d1d9"/>
      <path d="m679.46,1062.562c-3.906,0-6.938-1.527-9.094-4.582s-3.234-7.34-3.234-12.855,1.078-9.801,3.234-12.855,5.188-4.582,9.094-4.582,6.957,1.527,9.105,4.582,3.223,7.34,3.223,12.855-1.074,9.801-3.223,12.855-5.184,4.582-9.105,4.582Zm0-3.375c2.594,0,4.555-1.195,5.883-3.586s1.992-5.883,1.992-10.477-.664-8.086-1.992-10.477-3.289-3.586-5.883-3.586-4.555,1.195-5.883,3.586-1.992,5.883-1.992,10.477.664,8.086,1.992,10.477,3.289,3.586,5.883,3.586Z" fill="#c9d1d9"/>
    </g>
  </g>
  <g isolation="isolate">
    <g isolation="isolate">
      <path d="m835.062,1062.562c-2.312,0-4.363-.426-6.152-1.277s-3.188-2.043-4.195-3.574-1.512-3.297-1.512-5.297c0-2.141.641-4.059,1.922-5.754s3.156-2.77,5.625-3.223c-1.297-.312-2.43-.805-3.398-1.477s-1.715-1.496-2.238-2.473-.785-2.066-.785-3.27c0-1.641.457-3.105,1.371-4.395s2.18-2.301,3.797-3.035,3.48-1.102,5.59-1.102c2.125,0,3.988.367,5.59,1.102s2.855,1.746,3.762,3.035,1.359,2.754,1.359,4.395c0,1.203-.262,2.293-.785,3.27s-1.262,1.801-2.215,2.473-2.078,1.164-3.375,1.477c2.469.453,4.344,1.527,5.625,3.223s1.922,3.613,1.922,5.754c0,2-.508,3.766-1.523,5.297s-2.418,2.723-4.207,3.574-3.848,1.277-6.176,1.277Zm.023-3.703c2.328,0,4.164-.602,5.508-1.805s2.016-2.852,2.016-4.945c0-2.047-.672-3.684-2.016-4.91s-3.18-1.84-5.508-1.84c-2.312,0-4.152.613-5.52,1.84s-2.051,2.863-2.051,4.91c0,2.109.684,3.762,2.051,4.957s3.207,1.793,5.52,1.793Zm0-16.969c2.016,0,3.602-.461,4.758-1.383s1.734-2.203,1.734-3.844c0-1.703-.578-3.059-1.734-4.066s-2.742-1.512-4.758-1.512-3.609.504-4.781,1.512-1.758,2.363-1.758,4.066c0,1.641.586,2.922,1.758,3.844s2.766,1.383,4.781,1.383Z" fill="#c9d1d9"/>
      <path d="m864.64,1062.562c-3.906,0-6.938-1.527-9.094-4.582s-3.234-7.34-3.234-12.855,1.078-9.801,3.234-12.855,5.188-4.582,9.094-4.582,6.957,1.527,9.105,4.582,3.223,7.34,3.223,12.855-1.074,9.801-3.223,12.855-5.184,4.582-9.105,4.582Zm0-3.375c2.594,0,4.555-1.195,5.883-3.586s1.992-5.883,1.992-10.477-.664-8.086-1.992-10.477-3.289-3.586-5.883-3.586-4.555,1.195-5.883,3.586-1.992,5.883-1.992,10.477.664,8.086,1.992,10.477,3.289,3.586,5.883,3.586Z" fill="#c9d1d9"/>
      <path d="m895.062,1062.562c-3.906,0-6.938-1.527-9.094-4.582s-3.234-7.34-3.234-12.855,1.078-9.801,3.234-12.855,5.188-4.582,9.094-4.582,6.957,1.527,9.105,4.582,3.223,7.34,3.223,12.855-1.074,9.801-3.223,12.855-5.184,4.582-9.105,4.582Zm0-3.375c2.594,0,4.555-1.195,5.883-3.586s1.992-5.883,1.992-10.477-.664-8.086-1.992-10.477-3.289-3.586-5.883-3.586-4.555,1.195-5.883,3.586-1.992,5.883-1.992,10.477.664,8.086,1.992,10.477,3.289,3.586,5.883,3.586Z" fill="#c9d1d9"/>
    </g>
  </g>
  <g isolation="isolate">
    <g isolation="isolate">
      <path d="m1036.636,1062v-26.883c-1.234,1.062-2.391,1.957-3.469,2.684s-2.281,1.34-3.609,1.84v-3.984c.688-.328,1.414-.738,2.18-1.23s1.637-1.219,2.613-2.18,2.105-2.293,3.387-3.996h3.023v33.75h-4.125Z" fill="#c9d1d9"/>
      <path d="m1059.276,1062.562c-3.906,0-6.938-1.527-9.094-4.582s-3.234-7.34-3.234-12.855,1.078-9.801,3.234-12.855,5.188-4.582,9.094-4.582,6.957,1.527,9.105,4.582,3.223,7.34,3.223,12.855-1.074,9.801-3.223,12.855-5.184,4.582-9.105,4.582Zm0-3.375c2.594,0,4.555-1.195,5.883-3.586s1.992-5.883,1.992-10.477-.664-8.086-1.992-10.477-3.289-3.586-5.883-3.586-4.555,1.195-5.883,3.586-1.992,5.883-1.992,10.477.664,8.086,1.992,10.477,3.289,3.586,5.883,3.586Z" fill="#c9d1d9"/>
      <path d="m1089.698,1062.562c-3.906,0-6.938-1.527-9.094-4.582s-3.234-7.34-3.234-12.855,1.078-9.801,3.234-12.855,5.188-4.582,9.094-4.582,6.957,1.527,9.105,4.582,3.223,7.34,3.223,12.855-1.074,9.801-3.223,12.855-5.184,4.582-9.105,4.582Zm0-3.375c2.594,0,4.555-1.195,5.883-3.586s1.992-5.883,1.992-10.477-.664-8.086-1.992-10.477-3.289-3.586-5.883-3.586-4.555,1.195-5.883,3.586-1.992,5.883-1.992,10.477.664,8.086,1.992,10.477,3.289,3.586,5.883,3.586Z" fill="#c9d1d9"/>
      <path d="m1120.12,1062.562c-3.906,0-6.938-1.527-9.094-4.582s-3.234-7.34-3.234-12.855,1.078-9.801,3.234-12.855,5.188-4.582,9.094-4.582,6.957,1.527,9.105,4.582,3.223,7.34,3.223,12.855-1.074,9.801-3.223,12.855-5.184,4.582-9.105,4.582Zm0-3.375c2.594,0,4.555-1.195,5.883-3.586s1.992-5.883,1.992-10.477-.664-8.086-1.992-10.477-3.289-3.586-5.883-3.586-4.555,1.195-5.883,3.586-1.992,5.883-1.992,10.477.664,8.086,1.992,10.477,3.289,3.586,5.883,3.586Z" fill="#c9d1d9"/>
    </g>
  </g>
  <g isolation="isolate">
    <g isolation="isolate">
      <path d="m1253.901,1062v-26.883c-1.234,1.062-2.391,1.957-3.469,2.684s-2.281,1.34-3.609,1.84v-3.984c.688-.328,1.414-.738,2.18-1.23s1.637-1.219,2.613-2.18,2.105-2.293,3.387-3.996h3.023v33.75h-4.125Z" fill="#c9d1d9"/>
      <path d="m1263.628,1062v-2.766l11.859-10.055c1.609-1.375,2.926-2.625,3.949-3.75s1.777-2.266,2.262-3.422.727-2.445.727-3.867c0-1.547-.27-2.848-.809-3.902s-1.316-1.848-2.332-2.379-2.258-.797-3.727-.797c-1.688,0-3.051.332-4.09.996s-1.812,1.559-2.32,2.684-.809,2.391-.902,3.797l-4.5-1.383c.094-1.5.637-2.977,1.629-4.43s2.355-2.656,4.09-3.609,3.758-1.43,6.07-1.43c1.312,0,2.633.188,3.961.562s2.551.973,3.668,1.793,2.016,1.891,2.695,3.211,1.02,2.918,1.02,4.793c0,2.672-.727,5.059-2.18,7.16s-3.484,4.207-6.094,6.316l-9.164,7.43-2.977-.562h21.07v3.609h-23.906Z" fill="#c9d1d9"/>
      <path d="m1304.433,1062.562c-3.906,0-6.938-1.527-9.094-4.582s-3.234-7.34-3.234-12.855,1.078-9.801,3.234-12.855,5.188-4.582,9.094-4.582,6.957,1.527,9.105,4.582,3.223,7.34,3.223,12.855-1.074,9.801-3.223,12.855-5.184,4.582-9.105,4.582Zm0-3.375c2.594,0,4.555-1.195,5.883-3.586s1.992-5.883,1.992-10.477-.664-8.086-1.992-10.477-3.289-3.586-5.883-3.586-4.555,1.195-5.883,3.586-1.992,5.883-1.992,10.477.664,8.086,1.992,10.477,3.289,3.586,5.883,3.586Z" fill="#c9d1d9"/>
      <path d="m1334.854,1062.562c-3.906,0-6.938-1.527-9.094-4.582s-3.234-7.34-3.234-12.855,1.078-9.801,3.234-12.855,5.188-4.582,9.094-4.582,6.957,1.527,9.105,4.582,3.223,7.34,3.223,12.855-1.074,9.801-3.223,12.855-5.184,4.582-9.105,4.582Zm0-3.375c2.594,0,4.555-1.195,5.883-3.586s1.992-5.883,1.992-10.477-.664-8.086-1.992-10.477-3.289-3.586-5.883-3.586-4.555,1.195-5.883,3.586-1.992,5.883-1.992,10.477.664,8.086,1.992,10.477,3.289,3.586,5.883,3.586Z" fill="#c9d1d9"/>
    </g>
  </g>
  <g isolation="isolate">
    <g isolation="isolate">
      <path d="m41.06,917.94l-33.75-14.25v-4.219l33.75-14.203v4.5l-29.344,11.812,29.344,11.859v4.5Zm-11.062-7.312h-3.469v-18.047h3.469v18.047Z" fill="#c9d1d9"/>
      <path d="m41.06,880.979H15.748v-3.703h4.336c-1.312-.594-2.457-1.578-3.434-2.953s-1.465-3.008-1.465-4.898c0-1.672.457-3.129,1.371-4.371s2.207-2.168,3.879-2.777c-1.547-.797-2.809-1.887-3.785-3.27s-1.465-2.996-1.465-4.84c0-2.422.879-4.34,2.637-5.754s4.191-2.121,7.301-2.121h15.938v3.938h-15.633c-1.438,0-2.676.148-3.715.445s-1.84.785-2.402,1.465-.844,1.605-.844,2.777c0,1.281.363,2.434,1.09,3.457s1.785,1.828,3.176,2.414,3.086.879,5.086.879h13.242v3.938h-15.633c-1.438,0-2.676.148-3.715.445s-1.84.781-2.402,1.453-.844,1.586-.844,2.742c0,1.281.359,2.438,1.078,3.469s1.773,1.844,3.164,2.438,3.094.891,5.109.891h13.242v3.938Z" fill="#c9d1d9"/>
      <path d="m50.201,839.097H15.748v-3.703h5.273l-.375.117c-1.844-.688-3.215-1.828-4.113-3.422s-1.348-3.289-1.348-5.086c0-2.062.539-3.875,1.617-5.438s2.609-2.781,4.594-3.656,4.328-1.312,7.031-1.312,5.043.441,7.02,1.324,3.5,2.105,4.57,3.668,1.605,3.367,1.605,5.414c0,1.656-.414,3.297-1.242,4.922s-2.227,2.852-4.195,3.68l-.188-.352h14.203v3.844Zm-11.859-11.016c0-2.094-.863-3.812-2.59-5.156s-4.199-2.016-7.418-2.016c-3.125,0-5.551.648-7.277,1.945s-2.59,3.023-2.59,5.18c0,1.312.344,2.52,1.031,3.621s1.758,1.98,3.211,2.637,3.328.984,5.625.984c3.391,0,5.906-.703,7.547-2.109s2.461-3.102,2.461-5.086Z" fill="#c9d1d9"/>
      <path d="m41.06,807.011c0,1-.332,1.875-.996,2.625s-1.504,1.125-2.52,1.125H5.904v-3.938h30.586c.516,0,.859-.074,1.031-.223s.258-.465.258-.949v-2.461h3.281v3.82Z" fill="#c9d1d9"/>
      <path d="m11.505,795.995c0,.906-.32,1.68-.961,2.32s-1.414.961-2.32.961c-.922,0-1.699-.32-2.332-.961s-.949-1.414-.949-2.32c0-.922.316-1.699.949-2.332s1.41-.949,2.332-.949c.906,0,1.68.316,2.32.949s.961,1.41.961,2.332Zm29.555,1.969H15.748v-3.938h25.312v3.938Z" fill="#c9d1d9"/>
      <path d="m41.06,780.761c0,1-.332,1.875-.996,2.625s-1.504,1.125-2.52,1.125h-18.516v4.078h-3.281v-4.078h-5.297l-.844-3.938h6.141v-5.016h3.281v5.016h17.461c.516,0,.859-.074,1.031-.223s.258-.465.258-.949v-3.867h3.281v5.227Z" fill="#c9d1d9"/>
      <path d="m41.623,761.847c0,1.766-.398,3.297-1.195,4.594s-1.938,2.297-3.422,3-3.258,1.055-5.32,1.055h-15.938v-3.938h15.633c2.062,0,3.738-.391,5.027-1.172s1.934-2.188,1.934-4.219c0-1.516-.391-2.828-1.172-3.938s-1.953-1.973-3.516-2.59-3.516-.926-5.859-.926h-12.047v-3.938h25.312v3.703h-5.953l1.031-.164c1.562.656,2.867,1.715,3.914,3.176s1.57,3.246,1.57,5.355Z" fill="#c9d1d9"/>
      <path d="m41.623,733.534c0,2.047-.539,3.855-1.617,5.426s-2.609,2.793-4.594,3.668-4.328,1.312-7.031,1.312-5.043-.441-7.02-1.324-3.5-2.105-4.57-3.668-1.605-3.367-1.605-5.414c0-1.656.414-3.297,1.242-4.922s2.227-2.852,4.195-3.68l.188.445H5.904v-3.938h35.156v3.703h-5.273l.375-.117c1.844.688,3.215,1.828,4.113,3.422s1.348,3.289,1.348,5.086Zm-3.281-1.031c0-1.328-.344-2.539-1.031-3.633s-1.762-1.969-3.223-2.625-3.332-.984-5.613-.984c-3.406,0-5.926.703-7.559,2.109s-2.449,3.102-2.449,5.086c0,2.094.863,3.812,2.59,5.156s4.199,2.016,7.418,2.016c3.125,0,5.551-.648,7.277-1.945s2.59-3.023,2.59-5.18Z" fill="#c9d1d9"/>
      <path d="m41.623,703.651c0,2.406-.539,4.488-1.617,6.246s-2.605,3.113-4.582,4.066-4.309,1.43-6.996,1.43c-2.703,0-5.047-.477-7.031-1.43s-3.516-2.297-4.594-4.031-1.617-3.773-1.617-6.117c0-1.344.215-2.691.645-4.043s1.172-2.586,2.227-3.703,2.5-2.016,4.336-2.695,4.152-1.02,6.949-1.02v20.508h-3.188v-17.086l1.477,1.125c-2.219.078-4,.438-5.344,1.078s-2.316,1.473-2.918,2.496-.902,2.16-.902,3.41c0,1.484.387,2.766,1.16,3.844s1.902,1.906,3.387,2.484,3.297.867,5.438.867c3.156,0,5.594-.645,7.312-1.934s2.578-3.121,2.578-5.496c0-1.703-.43-3.137-1.289-4.301s-2.102-2.02-3.727-2.566l1.312-3.867c1.469.609,2.723,1.422,3.762,2.438s1.836,2.223,2.391,3.621.832,2.957.832,4.676Z" fill="#c9d1d9"/>
    </g>
  </g>
  <g isolation="isolate">
    <g isolation="isolate">
      <path d="m1518.396,1039.969v-3.281h13.383v3.281h-13.383Zm3.773,22.031v-29.906c0-1.891.445-3.238,1.336-4.043s2.383-1.207,4.477-1.207h3.164v3.281h-3.727c-.469,0-.805.102-1.008.305s-.305.539-.305,1.008v30.562h-3.938Z" fill="#c9d1d9"/>
    </g>
  </g>
  <g>
    <line x1="217.46" y1="21.43" x2="217.46" y2="435.6" fill="none" stroke="#c9d1d9" stroke-miterlimit="10" stroke-width="6"/>
    <path d="m194.9,22.56c0-12.46,10.1-22.56,22.56-22.56s22.56,10.1,22.56,22.56-10.1,22.56-22.56,22.56-22.56-10.1-22.56-22.56Z" fill="#c9d1d9"/>
  </g>
  <g>
    <line x1="433.46" y1="86.29" x2="433.46" y2="435.6" fill="none" stroke="#7f7f7f" stroke-miterlimit="10" stroke-width="4"/>
    <path d="m418.42,87.04c0-8.3,6.73-15.04,15.04-15.04s15.04,6.73,15.04,15.04-6.73,15.04-15.04,15.04-15.04-6.73-15.04-15.04Z" fill="#7f7f7f"/>
  </g>
  <g>
    <line x1="649.46" y1="158.29" x2="649.46" y2="435.6" fill="none" stroke="#7f7f7f" stroke-miterlimit="10" stroke-width="4"/>
    <path d="m634.42,159.04c0-8.3,6.73-15.04,15.04-15.04s15.04,6.73,15.04,15.04-6.73,15.04-15.04,15.04-15.04-6.73-15.04-15.04Z" fill="#7f7f7f"/>
  </g>
  <g>
    <line x1="865.46" y1="230.29" x2="865.46" y2="435.6" fill="none" stroke="#7f7f7f" stroke-miterlimit="10" stroke-width="4"/>
    <path d="m850.42,231.04c0-8.3,6.73-15.04,15.04-15.04s15.04,6.73,15.04,15.04-6.73,15.04-15.04,15.04-15.04-6.73-15.04-15.04Z" fill="#7f7f7f"/>
  </g>
  <g>
    <line x1="1081.46" y1="302.29" x2="1081.46" y2="435.6" fill="none" stroke="#7f7f7f" stroke-miterlimit="10" stroke-width="4"/>
    <path d="m1066.42,303.04c0-8.3,6.73-15.04,15.04-15.04s15.04,6.73,15.04,15.04-6.73,15.04-15.04,15.04-15.04-6.73-15.04-15.04Z" fill="#7f7f7f"/>
  </g>
  <g>
    <line x1="1297.46" y1="374.29" x2="1297.46" y2="435.6" fill="none" stroke="#7f7f7f" stroke-miterlimit="10" stroke-width="4"/>
    <path d="m1282.42,375.04c0-8.3,6.73-15.04,15.04-15.04s15.04,6.73,15.04,15.04-6.73,15.04-15.04,15.04-15.04-6.73-15.04-15.04Z" fill="#7f7f7f"/>
  </g>
  <g>
    <polyline points="73.46 3.6 73.46 435.6 1460.31 435.6" fill="none" stroke="#c9d1d9" stroke-miterlimit="10" stroke-width="6"/>
    <polygon points="1448.42 453.03 1513.46 435.61 1448.42 418.17 1448.42 453.03" fill="#c9d1d9"/>
  </g>
  <g>
    <line x1="433.46" y1="662.29" x2="433.46" y2="1011.6" fill="none" stroke="#7f7f7f" stroke-miterlimit="10" stroke-width="4"/>
    <path d="m418.42,663.04c0-8.3,6.73-15.04,15.04-15.04s15.04,6.73,15.04,15.04-6.73,15.04-15.04,15.04-15.04-6.73-15.04-15.04Z" fill="#7f7f7f"/>
  </g>
  <g>
    <line x1="649.46" y1="734.29" x2="649.46" y2="1011.6" fill="none" stroke="#7f7f7f" stroke-miterlimit="10" stroke-width="4"/>
    <path d="m634.42,735.04c0-8.3,6.73-15.04,15.04-15.04s15.04,6.73,15.04,15.04-6.73,15.04-15.04,15.04-15.04-6.73-15.04-15.04Z" fill="#7f7f7f"/>
  </g>
  <g>
    <line x1="865.46" y1="806.29" x2="865.46" y2="1011.6" fill="none" stroke="#7f7f7f" stroke-miterlimit="10" stroke-width="4"/>
    <path d="m850.42,807.04c0-8.3,6.73-15.04,15.04-15.04s15.04,6.73,15.04,15.04-6.73,15.04-15.04,15.04-15.04-6.73-15.04-15.04Z" fill="#7f7f7f"/>
  </g>
  <g>
    <line x1="1081.46" y1="878.29" x2="1081.46" y2="1011.6" fill="none" stroke="#7f7f7f" stroke-miterlimit="10" stroke-width="4"/>
    <path d="m1066.42,879.04c0-8.3,6.73-15.04,15.04-15.04s15.04,6.73,15.04,15.04-6.73,15.04-15.04,15.04-15.04-6.73-15.04-15.04Z" fill="#7f7f7f"/>
  </g>
  <g>
    <line x1="1297.46" y1="950.29" x2="1297.46" y2="1011.6" fill="none" stroke="#7f7f7f" stroke-miterlimit="10" stroke-width="4"/>
    <path d="m1282.42,951.04c0-8.3,6.73-15.04,15.04-15.04s15.04,6.73,15.04,15.04-6.73,15.04-15.04,15.04-15.04-6.73-15.04-15.04Z" fill="#7f7f7f"/>
  </g>
  <g>
    <polyline points="73.46 579.6 73.46 1011.6 1460.31 1011.6" fill="none" stroke="#c9d1d9" stroke-miterlimit="10" stroke-width="6"/>
    <polygon points="1448.42 1029.03 1513.46 1011.61 1448.42 994.17 1448.42 1029.03" fill="#c9d1d9"/>
  </g>
</svg>