<?xml version="1.0" encoding="UTF-8"?>
<svg id="Ebene_1" data-name="Ebene 1" xmlns="http://www.w3.org/2000/svg" width="2527.2" height="734.4" viewBox="0 0 2527.2 734.4">
  <g id="Ebene_5" data-name="Ebene 5">
    <line x1="471.6" y1="634.56" x2="471.6" y2="615.6" fill="none" stroke="#c9d1d9" stroke-miterlimit="10" stroke-width="2.83"/>
    <line x1="200.64" y1="115.2" x2="219.6" y2="115.2" fill="none" stroke="#c9d1d9" stroke-miterlimit="10" stroke-width="2.83"/>
    <line x1="200.64" y1="547.2" x2="219.6" y2="547.2" fill="none" stroke="#c9d1d9" stroke-miterlimit="10" stroke-width="2.83"/>
    <line x1="723.6" y1="615.6" x2="723.6" y2="634.56" fill="none" stroke="#c9d1d9" stroke-miterlimit="10" stroke-width="2.83"/>
    <line x1="975.6" y1="615.6" x2="975.6" y2="634.56" fill="none" stroke="#c9d1d9" stroke-miterlimit="10" stroke-width="2.83"/>
    <rect x="219.6" y="3.6" width="1008" height="612" fill="none" stroke="#c9d1d9" stroke-miterlimit="10" stroke-width="2.83"/>
    <line x1="1552.56" y1="634.44" x2="1552.56" y2="615.49" fill="none" stroke="#c9d1d9" stroke-miterlimit="10" stroke-width="2.83"/>
    <line x1="1281.6" y1="115.09" x2="1300.56" y2="115.09" fill="none" stroke="#c9d1d9" stroke-miterlimit="10" stroke-width="2.83"/>
    <line x1="1281.6" y1="547.09" x2="1300.56" y2="547.09" fill="none" stroke="#c9d1d9" stroke-miterlimit="10" stroke-width="2.83"/>
    <line x1="1804.56" y1="615.49" x2="1804.56" y2="634.44" fill="none" stroke="#c9d1d9" stroke-miterlimit="10" stroke-width="2.83"/>
    <line x1="2056.56" y1="615.49" x2="2056.56" y2="634.44" fill="none" stroke="#c9d1d9" stroke-miterlimit="10" stroke-width="2.83"/>
    <rect x="1300.56" y="3.49" width="1008" height="612" fill="none" stroke="#c9d1d9" stroke-miterlimit="10" stroke-width="2.83"/>
  </g>
  <g id="Text">
    <g isolation="isolate">
      <g isolation="isolate">
        <path d="m36,592.156H7.882c-1.777,0-3.044-.419-3.801-1.256-.757-.838-1.136-2.24-1.136-4.209v-2.975h3.086v3.504c0,.439.096.756.286.947.191.19.507.286.947.286h28.735v3.702Zm-20.714,3.548h-3.085v-12.583h3.085v12.583Z" fill="#c9d1d9"/>
      </g>
      <g isolation="isolate">
        <path d="m36,578.648H12.201v-3.482h5.046l-.573.133c-1.645-.705-2.89-1.766-3.734-3.184s-1.268-2.854-1.268-4.309c0-.426.037-.841.11-1.245.074-.403.198-.782.375-1.135l3.481.485c-.25.808-.375,1.607-.375,2.401,0,.499.1,1.12.298,1.862s.595,1.477,1.189,2.203c.596.728,1.48,1.337,2.656,1.829,1.175.492,2.739.738,4.693.738h11.899v3.702Z" fill="#c9d1d9"/>
      </g>
      <g isolation="isolate">
        <path d="m36.529,552.207c0,2.262-.507,4.219-1.521,5.872s-2.45,2.927-4.309,3.823-4.051,1.344-6.578,1.344c-2.541,0-4.744-.447-6.61-1.344-1.865-.896-3.306-2.16-4.319-3.79-1.014-1.631-1.521-3.548-1.521-5.751,0-1.264.202-2.531.606-3.802s1.102-2.431,2.093-3.481c.992-1.051,2.352-1.896,4.077-2.535,1.727-.639,3.904-.958,6.534-.958v19.282h-2.997v-16.064l1.388,1.057c-2.086.074-3.761.412-5.024,1.014-1.263.604-2.178,1.386-2.743,2.348-.565.963-.849,2.031-.849,3.206,0,1.396.364,2.601,1.091,3.614.728,1.014,1.789,1.793,3.185,2.336s3.1.814,5.112.814c2.968,0,5.26-.605,6.875-1.817,1.616-1.212,2.424-2.935,2.424-5.167,0-1.602-.403-2.949-1.212-4.044-.808-1.095-1.976-1.899-3.503-2.413l1.233-3.637c1.381.574,2.561,1.338,3.537,2.293s1.727,2.09,2.248,3.404c.521,1.314.782,2.78.782,4.396Z" fill="#c9d1d9"/>
      </g>
      <g isolation="isolate">
        <path d="m44.594,519.254h-13.552l.353-.33c1.733.646,3.022,1.719,3.867,3.217.845,1.499,1.268,3.094,1.268,4.782,0,1.925-.507,3.625-1.521,5.102s-2.454,2.626-4.319,3.448c-1.865.823-4.069,1.234-6.611,1.234s-4.741-.415-6.6-1.245c-1.858-.829-3.29-1.979-4.297-3.448-1.006-1.469-1.51-3.166-1.51-5.091,0-1.557.39-3.1,1.168-4.628.779-1.527,2.094-2.68,3.944-3.459l.177.198h-4.76v-3.481h32.393v3.701Zm-11.15,6.699c0-1.248-.322-2.387-.969-3.416-.646-1.027-1.656-1.851-3.03-2.467-1.374-.617-3.133-.926-5.277-.926-3.203,0-5.571.66-7.107,1.982-1.534,1.322-2.303,2.917-2.303,4.782,0,1.969.812,3.585,2.436,4.849s3.948,1.895,6.975,1.895c2.938,0,5.219-.609,6.842-1.829s2.435-2.843,2.435-4.87Z" fill="#c9d1d9"/>
      </g>
      <g isolation="isolate">
        <path d="m36.529,500.678c0,1.66-.375,3.1-1.124,4.318-.749,1.221-1.821,2.16-3.218,2.821-1.396.661-3.062.991-5.002.991h-14.984v-3.701h14.698c1.938,0,3.515-.367,4.727-1.103,1.212-.734,1.817-2.057,1.817-3.966,0-1.426-.366-2.66-1.102-3.703-.734-1.043-1.836-1.854-3.306-2.435-1.469-.58-3.305-.87-5.509-.87h-11.326v-3.703h23.799v3.482h-5.598l.97-.154c1.47.617,2.696,1.612,3.681,2.986.983,1.373,1.477,3.052,1.477,5.035Z" fill="#c9d1d9"/>
      </g>
      <g isolation="isolate">
        <path d="m36.529,472.605c0,2.263-.507,4.221-1.521,5.873s-2.45,2.928-4.309,3.823c-1.858.896-4.051,1.345-6.578,1.345-2.541,0-4.744-.448-6.61-1.345-1.865-.896-3.306-2.159-4.319-3.79s-1.521-3.548-1.521-5.752c0-1.263.202-2.529.606-3.801.404-1.271,1.102-2.432,2.093-3.482.992-1.049,2.352-1.895,4.077-2.533,1.727-.639,3.904-.959,6.534-.959v19.281h-2.997v-16.064l1.388,1.059c-2.086.073-3.761.411-5.024,1.014-1.263.602-2.178,1.385-2.743,2.347s-.849,2.03-.849,3.206c0,1.396.364,2.601,1.091,3.613.728,1.014,1.789,1.793,3.185,2.336,1.396.545,3.1.816,5.112.816,2.968,0,5.26-.606,6.875-1.818,1.616-1.212,2.424-2.934,2.424-5.168,0-1.601-.403-2.949-1.212-4.043-.808-1.094-1.976-1.898-3.503-2.413l1.233-3.636c1.381.572,2.561,1.336,3.537,2.291s1.727,2.09,2.248,3.404c.521,1.315.782,2.781.782,4.396Z" fill="#c9d1d9"/>
        <path d="m36,456.387H12.201v-3.481h5.377l-.97.154c-1.366-.632-2.53-1.63-3.493-2.997-.962-1.366-1.443-3.025-1.443-4.98,0-1.688.375-3.143,1.124-4.363.749-1.219,1.818-2.158,3.206-2.82,1.389-.66,3.06-.991,5.014-.991h14.984v3.702h-14.698c-1.953,0-3.533.4-4.737,1.201-1.205.801-1.808,2.119-1.808,3.955,0,1.983.753,3.633,2.259,4.947s3.684,1.973,6.534,1.973h12.45v3.701Z" fill="#c9d1d9"/>
      </g>
      <g isolation="isolate">
        <path d="m36.529,420.66c0,2.233-.507,4.165-1.521,5.796s-2.45,2.887-4.309,3.769c-1.858.881-4.058,1.322-6.6,1.322s-4.741-.441-6.6-1.322c-1.858-.882-3.295-2.138-4.309-3.769s-1.521-3.562-1.521-5.796c0-1.703.312-3.229.937-4.572.625-1.344,1.521-2.482,2.688-3.416,1.168-.932,2.575-1.619,4.22-2.06l.992,3.769c-1.852.41-3.272,1.148-4.265,2.214-.991,1.065-1.487,2.421-1.487,4.065,0,2.189.812,3.875,2.436,5.058s3.926,1.774,6.908,1.774,5.304-.592,6.919-1.774c1.616-1.183,2.424-2.868,2.424-5.058,0-1.631-.48-2.975-1.443-4.032-.962-1.058-2.354-1.8-4.176-2.226l1.059-3.746c1.204.353,2.276.838,3.217,1.454.94.617,1.741,1.349,2.402,2.192.661.846,1.164,1.801,1.509,2.865.346,1.064.519,2.229.519,3.492Z" fill="#c9d1d9"/>
      </g>
      <g isolation="isolate">
        <path d="m44.594,404.601h-3.085v-3.614c0-.264-.084-.47-.253-.617-.169-.146-.438-.286-.805-.418l-4.914-1.719,1.697.374-25.033,9.563v-4.143l21.926-7.58-.198.814-21.728-7.558v-4.099l29.727,11.348c.808.309,1.454.831,1.939,1.565.484.734.727,1.499.727,2.292v3.79Z" fill="#c9d1d9"/>
        <path d="m8.213,367.602c0,.852-.302,1.58-.904,2.181-.602.604-1.329.904-2.182.904-.866,0-1.598-.301-2.192-.904-.595-.602-.893-1.329-.893-2.181,0-.867.298-1.598.893-2.193.595-.595,1.326-.892,2.192-.892.853,0,1.58.297,2.182.892.603.595.904,1.326.904,2.193Zm27.787,1.851H12.201v-3.702h23.799v3.702Z" fill="#c9d1d9"/>
        <path d="m36,358.545H12.201v-3.482h5.377l-.97.154c-1.366-.631-2.53-1.63-3.493-2.997-.962-1.367-1.443-3.026-1.443-4.98,0-1.689.375-3.144,1.124-4.363.749-1.219,1.818-2.159,3.206-2.82,1.389-.661,3.06-.992,5.014-.992h14.984v3.702h-14.698c-1.953,0-3.533.4-4.737,1.201-1.205.801-1.808,2.12-1.808,3.956,0,1.983.753,3.633,2.259,4.947,1.506,1.315,3.684,1.972,6.534,1.972h12.45v3.702Z" fill="#c9d1d9"/>
      </g>
      <g isolation="isolate">
        <path d="m36,320.836H2.945v-3.702h19.899l-10.644-11.172v-5.046l9.034,9.828,14.765-10.026v4.385l-12.296,8.33,3.415,3.702h8.881v3.702Z" fill="#c9d1d9"/>
      </g>
      <g isolation="isolate">
        <path d="m36,296.226H4.268v-3.967h13.707v-17.32H4.268v-3.966h31.732v3.966h-14.765v17.32h14.765v3.967Z" fill="#c9d1d9"/>
        <path d="m36,265.596h-3.173l-17.453-14.28v13.707h-3.173v-18.158h3.173l17.453,14.5v-15.029h3.173v19.26Z" fill="#c9d1d9"/>
      </g>
      <g isolation="isolate">
        <path d="m43.448,224.161c-2.909,2.277-6.078,4.003-9.509,5.179-3.43,1.175-7.004,1.763-10.721,1.763s-7.271-.591-10.709-1.774c-3.438-1.182-6.626-2.905-9.564-5.167v-3.922c3.365,2.527,6.659,4.382,9.884,5.564,3.225,1.183,6.688,1.774,10.39,1.774,3.762,0,7.25-.573,10.468-1.719,3.217-1.146,6.471-3.019,9.762-5.619v3.922Z" fill="#c9d1d9"/>
      </g>
      <g isolation="isolate">
        <path d="m36,212.726c0,.94-.312,1.763-.937,2.468-.624.705-1.414,1.058-2.369,1.058H2.945v-3.702h28.758c.484,0,.808-.069.97-.209.161-.139.242-.437.242-.892v-2.314h3.085v3.592Z" fill="#c9d1d9"/>
      </g>
      <g isolation="isolate">
        <path d="m36.529,194.786c0,2.233-.525,4.202-1.576,5.905-1.05,1.705-2.508,3.034-4.374,3.989-1.865.955-4.025,1.432-6.479,1.432s-4.613-.477-6.479-1.432c-1.865-.955-3.324-2.284-4.374-3.989-1.051-1.704-1.576-3.672-1.576-5.905s.525-4.202,1.576-5.906c1.05-1.704,2.509-3.034,4.374-3.989,1.865-.955,4.025-1.432,6.479-1.432s4.613.478,6.479,1.432c1.866.955,3.324,2.285,4.374,3.989,1.051,1.704,1.576,3.673,1.576,5.906Zm-3.086,0c0-2.248-.837-4.022-2.512-5.322-1.675-1.3-3.951-1.95-6.831-1.95-2.895,0-5.175.65-6.843,1.95-1.667,1.3-2.501,3.074-2.501,5.322s.834,4.021,2.501,5.321c1.668,1.3,3.948,1.95,6.843,1.95,2.88,0,5.156-.65,6.831-1.95,1.675-1.3,2.512-3.074,2.512-5.321Z" fill="#c9d1d9"/>
        <path d="m14.162,164.993h-2.357c-.955,0-1.745-.353-2.369-1.058-.624-.705-.937-1.527-.937-2.468v-2.865h3.085v2.358c0,.456.081.753.242.893.162.14.485.209.97.209h1.366v2.931Zm30.961,4.363c0,3.541-.496,6.148-1.487,7.823-.992,1.674-2.523,2.512-4.595,2.512-1.176,0-2.226-.301-3.151-.903-.926-.602-1.638-1.645-2.138-3.129-.338.558-.785,1.014-1.344,1.366s-1.183.529-1.873.529c-.822,0-1.561-.257-2.215-.771-.653-.514-1.12-1.249-1.399-2.204-.69,1.176-1.627,2.09-2.81,2.744-1.183.654-2.56.98-4.132.98-1.704,0-3.177-.378-4.418-1.135-1.241-.756-2.2-1.836-2.876-3.239s-1.014-3.074-1.014-5.013.338-3.618,1.014-5.035c.676-1.418,1.639-2.512,2.887-3.284,1.249-.771,2.732-1.157,4.451-1.157,1.689,0,3.148.386,4.375,1.157,1.227.771,2.174,1.87,2.842,3.294.669,1.425,1.003,3.122,1.003,5.09v2.049c0,1.851.551,2.777,1.652,2.777,1.044,0,1.565-.896,1.565-2.688v-4.76c0-1.88.217-3.397.649-4.551.434-1.153.992-2.034,1.675-2.644.684-.609,1.422-1.025,2.215-1.245s1.55-.331,2.27-.331c2.336,0,4.062.845,5.179,2.534s1.675,4.312,1.675,7.867v1.366Zm-19.48-.44c0-1.866-.48-3.298-1.443-4.297-.962-.999-2.354-1.498-4.176-1.498-1.807,0-3.209.5-4.209,1.498-.998,1-1.498,2.432-1.498,4.297,0,1.851.496,3.269,1.487,4.253.992.984,2.398,1.477,4.22,1.477s3.214-.492,4.176-1.477c.963-.984,1.443-2.402,1.443-4.253Zm16.527.44v-1.366c0-4.377-1.308-6.566-3.922-6.566-1.088,0-1.977.393-2.667,1.179-.69.786-1.035,2.126-1.035,4.021v4.099c0,1.469.297,2.696.893,3.68.595.984,1.567,1.477,2.919,1.477,1.293,0,2.252-.532,2.876-1.598.624-1.065.937-2.707.937-4.925Z" fill="#c9d1d9"/>
      </g>
      <g isolation="isolate">
        <path d="m36.529,133.086c0,1.719-.283,3.28-.849,4.683s-1.425,2.567-2.578,3.493c-1.153.926-2.619,1.542-4.396,1.851l-.749-3.878c1.865-.162,3.254-.797,4.165-1.906.91-1.109,1.366-2.501,1.366-4.176,0-1.66-.419-2.982-1.257-3.966-.837-.984-1.857-1.477-3.062-1.477-1.028,0-1.844.349-2.446,1.047s-1.028,1.708-1.278,3.03l-.551,2.887c-.146.779-.353,1.587-.617,2.424-.264.837-.631,1.62-1.102,2.347-.47.727-1.087,1.315-1.851,1.763-.764.448-1.727.672-2.887.672-1.558,0-2.832-.408-3.823-1.223-.992-.815-1.73-1.895-2.215-3.239-.485-1.344-.728-2.795-.728-4.352,0-1.704.265-3.188.794-4.452.528-1.263,1.285-2.292,2.27-3.085.984-.793,2.174-1.322,3.569-1.586l.815,4.077c-.896.103-1.675.341-2.336.716-.661.375-1.171.918-1.531,1.63-.359.713-.54,1.635-.54,2.766,0,1.366.287,2.542.859,3.526.573.984,1.44,1.477,2.601,1.477.646,0,1.197-.166,1.652-.496.456-.331.834-.83,1.135-1.499.302-.668.562-1.509.782-2.523l.617-2.931c.25-1.234.621-2.373,1.113-3.416s1.172-1.88,2.038-2.512c.867-.632,2.013-.948,3.438-.948,1.572,0,2.928.393,4.065,1.179,1.139.786,2.01,1.873,2.611,3.261.603,1.388.904,3,.904,4.837Z" fill="#c9d1d9"/>
        <path d="m36.529,108.252c0,2.233-.507,4.165-1.521,5.795s-2.45,2.887-4.309,3.768-4.058,1.322-6.6,1.322-4.741-.441-6.6-1.322-3.295-2.137-4.309-3.768-1.521-3.562-1.521-5.795c0-1.704.312-3.229.937-4.573.625-1.344,1.521-2.482,2.688-3.416,1.168-.933,2.575-1.62,4.22-2.06l.992,3.768c-1.852.411-3.272,1.149-4.265,2.214-.991,1.065-1.487,2.421-1.487,4.066,0,2.189.812,3.875,2.436,5.057,1.623,1.183,3.926,1.774,6.908,1.774s5.304-.591,6.919-1.774c1.616-1.182,2.424-2.868,2.424-5.057,0-1.631-.48-2.975-1.443-4.033-.962-1.058-2.354-1.799-4.176-2.226l1.059-3.746c1.204.353,2.276.837,3.217,1.454.94.617,1.741,1.348,2.402,2.193s1.164,1.8,1.509,2.865c.346,1.065.519,2.229.519,3.493Z" fill="#c9d1d9"/>
      </g>
      <g isolation="isolate">
        <path d="m36.529,86.434c0,1.586-.306,2.964-.915,4.132s-1.443,2.068-2.501,2.699c-1.058.632-2.255.948-3.592.948-1.425,0-2.74-.419-3.944-1.256-1.205-.837-2.171-2.134-2.898-3.889-.727-1.755-1.091-4.007-1.091-6.754v-3.966l.397.396h-1.301c-1.909,0-3.375.382-4.396,1.146-1.021.764-1.532,2.042-1.532,3.834,0,1.689.438,2.99,1.312,3.9.874.911,2.046,1.396,3.515,1.454l-.947,4.165c-1.278-.132-2.442-.621-3.493-1.465-1.05-.845-1.891-1.976-2.522-3.394-.632-1.417-.948-3.06-.948-4.925,0-1.924.364-3.493,1.091-4.705.728-1.212,1.774-2.104,3.141-2.677,1.366-.573,3.012-.859,4.936-.859h10.864c.484,0,.808-.07.97-.209.161-.14.242-.437.242-.893v-1.344h3.085v2.358c0,.999-.312,1.836-.937,2.512-.624.676-1.414,1.014-2.369,1.014h-1.675v-.551c.617.235,1.245.573,1.885,1.014.639.44,1.233.999,1.784,1.675.552.676.996,1.48,1.334,2.413.337.933.507,2.009.507,3.229Zm-3.086-.837c0-1.219-.301-2.351-.903-3.394-.602-1.043-1.546-1.884-2.831-2.523-1.285-.639-2.957-.958-5.014-.958h-.198v3.724c0,1.954.257,3.493.771,4.617s1.149,1.921,1.906,2.391,1.509.705,2.259.705,1.425-.169,2.027-.507,1.083-.845,1.443-1.521c.359-.676.539-1.521.539-2.534Z" fill="#c9d1d9"/>
      </g>
      <g isolation="isolate">
        <path d="m36,64.176c0,.94-.312,1.763-.937,2.468-.624.705-1.414,1.058-2.369,1.058H2.945v-3.702h28.758c.484,0,.808-.069.97-.209.161-.139.242-.437.242-.892v-2.314h3.085v3.592Z" fill="#c9d1d9"/>
      </g>
      <g isolation="isolate">
        <path d="m36.529,46.327c0,2.262-.507,4.22-1.521,5.873s-2.45,2.927-4.309,3.823c-1.858.896-4.051,1.344-6.578,1.344-2.541,0-4.744-.448-6.61-1.344-1.865-.896-3.306-2.16-4.319-3.79-1.014-1.631-1.521-3.548-1.521-5.751,0-1.263.202-2.53.606-3.801.404-1.271,1.102-2.431,2.093-3.482.992-1.05,2.352-1.895,4.077-2.534,1.727-.639,3.904-.958,6.534-.958v19.282h-2.997v-16.064l1.388,1.058c-2.086.074-3.761.412-5.024,1.014-1.263.603-2.178,1.385-2.743,2.347-.565.962-.849,2.031-.849,3.206,0,1.396.364,2.601,1.091,3.614.728,1.014,1.789,1.793,3.185,2.336,1.396.544,3.1.815,5.112.815,2.968,0,5.26-.606,6.875-1.818,1.616-1.212,2.424-2.934,2.424-5.167,0-1.601-.403-2.949-1.212-4.043-.808-1.094-1.976-1.899-3.503-2.413l1.233-3.636c1.381.573,2.561,1.337,3.537,2.292s1.727,2.09,2.248,3.404c.521,1.315.782,2.781.782,4.396Z" fill="#c9d1d9"/>
      </g>
      <g isolation="isolate">
        <path d="m43.448,35.134c-3.291-2.6-6.545-4.473-9.762-5.619-3.218-1.146-6.706-1.719-10.468-1.719-3.702,0-7.165.587-10.39,1.763s-6.519,3.034-9.884,5.575v-3.922c2.938-2.262,6.127-3.985,9.564-5.167s7.007-1.774,10.709-1.774,7.291.588,10.721,1.763c3.431,1.176,6.6,2.902,9.509,5.179v3.922Z" fill="#c9d1d9"/>
      </g>
    </g>
    <g isolation="isolate">
      <g isolation="isolate">
        <path d="m471.849,673.31v-25.275c-1.161.999-2.248,1.84-3.261,2.523-1.014.683-2.145,1.26-3.394,1.729v-3.746c.646-.309,1.33-.694,2.049-1.157s1.539-1.146,2.457-2.049c.918-.903,1.979-2.156,3.184-3.758h2.843v31.732h-3.878Z" fill="#c9d1d9"/>
      </g>
    </g>
    <g isolation="isolate">
      <g isolation="isolate">
        <path d="m712.232,673.31v-2.601l11.15-9.453c1.513-1.293,2.75-2.468,3.713-3.525.962-1.059,1.671-2.131,2.126-3.218s.683-2.299.683-3.636c0-1.454-.253-2.678-.76-3.669-.507-.992-1.238-1.737-2.192-2.237-.955-.499-2.123-.749-3.504-.749-1.586,0-2.868.312-3.845.937-.977.625-1.704,1.466-2.182,2.523s-.76,2.248-.848,3.569l-4.231-1.3c.088-1.41.598-2.799,1.531-4.165s2.215-2.497,3.845-3.394c1.631-.896,3.533-1.344,5.708-1.344,1.234,0,2.476.176,3.724.528s2.398.915,3.449,1.687c1.05.771,1.895,1.777,2.534,3.019s.958,2.743.958,4.507c0,2.512-.683,4.756-2.049,6.731-1.366,1.977-3.276,3.956-5.729,5.938l-8.616,6.986-2.798-.529h19.811v3.394h-22.477Z" fill="#c9d1d9"/>
      </g>
    </g>
    <g isolation="isolate">
      <g isolation="isolate">
        <path d="m1107.582,730.8c-.94,0-1.763-.312-2.468-.937-.706-.624-1.058-1.414-1.058-2.369v-17.408h-3.834v-3.085h3.834v-4.98l3.702-.793v5.773h4.716v3.085h-4.716v16.417c0,.484.07.808.209.97.14.161.437.242.893.242h3.636v3.085h-4.914Z" fill="#c9d1d9"/>
        <path d="m1119.702,703.013c-.852,0-1.579-.302-2.182-.904-.603-.602-.903-1.329-.903-2.182,0-.866.301-1.598.903-2.192s1.33-.893,2.182-.893c.867,0,1.598.298,2.193.893.595.595.892,1.326.892,2.192,0,.853-.297,1.58-.892,2.182-.595.603-1.326.904-2.193.904Zm-1.851,27.787v-23.799h3.702v23.799h-3.702Z" fill="#c9d1d9"/>
        <path d="m1128.759,730.8v-23.799h3.482v4.076c.558-1.233,1.483-2.31,2.776-3.228,1.292-.918,2.828-1.378,4.605-1.378,1.572,0,2.942.43,4.11,1.289s2.039,2.075,2.611,3.647c.749-1.454,1.774-2.641,3.074-3.559,1.3-.918,2.816-1.378,4.55-1.378,2.277,0,4.08.826,5.41,2.479,1.33,1.652,1.995,3.94,1.995,6.864v14.984h-3.702v-14.698c0-1.352-.14-2.516-.419-3.492-.279-.978-.738-1.73-1.377-2.259-.639-.529-1.51-.794-2.611-.794-1.205,0-2.289.342-3.25,1.025-.962.683-1.719,1.678-2.27,2.985-.551,1.308-.827,2.901-.827,4.782v12.45h-3.702v-14.698c0-1.352-.14-2.516-.418-3.492-.279-.978-.735-1.73-1.366-2.259-.632-.529-1.491-.794-2.578-.794-1.205,0-2.292.339-3.262,1.014-.969.676-1.733,1.668-2.292,2.976-.559,1.308-.837,2.908-.837,4.804v12.45h-3.702Z" fill="#c9d1d9"/>
        <path d="m1177.789,731.329c-2.262,0-4.22-.507-5.873-1.521s-2.927-2.45-3.823-4.309c-.896-1.858-1.344-4.051-1.344-6.578,0-2.541.448-4.744,1.344-6.61.896-1.865,2.16-3.306,3.79-4.319,1.631-1.014,3.548-1.521,5.751-1.521,1.263,0,2.53.202,3.801.606,1.271.404,2.431,1.102,3.482,2.093,1.05.992,1.895,2.352,2.534,4.077.639,1.727.958,3.904.958,6.534h-19.282v-2.997h16.064l-1.058,1.388c-.074-2.086-.412-3.761-1.014-5.024-.603-1.263-1.385-2.178-2.347-2.743-.962-.565-2.031-.849-3.206-.849-1.396,0-2.601.364-3.614,1.091-1.014.728-1.793,1.789-2.336,3.185-.544,1.396-.815,3.1-.815,5.112,0,2.968.606,5.26,1.818,6.875,1.212,1.616,2.934,2.424,5.167,2.424,1.601,0,2.949-.403,4.043-1.212,1.094-.808,1.899-1.976,2.413-3.503l3.636,1.233c-.573,1.381-1.337,2.561-2.292,3.537s-2.09,1.727-3.404,2.248c-1.315.521-2.781.782-4.396.782Z" fill="#c9d1d9"/>
        <path d="m1207.339,703.013c-.852,0-1.579-.302-2.182-.904-.603-.602-.903-1.329-.903-2.182,0-.866.301-1.598.903-2.192s1.33-.893,2.182-.893c.867,0,1.598.298,2.193.893.595.595.892,1.326.892,2.192,0,.853-.297,1.58-.892,2.182-.595.603-1.326.904-2.193.904Zm-1.851,27.787v-23.799h3.702v23.799h-3.702Z" fill="#c9d1d9"/>
        <path d="m1216.396,730.8v-23.799h3.482v5.377l-.154-.97c.631-1.366,1.63-2.53,2.997-3.493,1.367-.962,3.026-1.443,4.98-1.443,1.689,0,3.144.375,4.363,1.124,1.219.749,2.159,1.818,2.82,3.206.661,1.389.992,3.06.992,5.014v14.984h-3.702v-14.698c0-1.953-.4-3.533-1.201-4.737-.801-1.205-2.12-1.808-3.956-1.808-1.983,0-3.633.753-4.947,2.259-1.315,1.506-1.972,3.684-1.972,6.534v12.45h-3.702Z" fill="#c9d1d9"/>
      </g>
      <g isolation="isolate">
        <path d="m1262.213,731.329c-1.719,0-3.279-.283-4.683-.849-1.402-.565-2.567-1.425-3.492-2.578-.926-1.153-1.543-2.619-1.852-4.396l3.879-.749c.161,1.865.797,3.254,1.906,4.165,1.108.91,2.501,1.366,4.176,1.366,1.659,0,2.981-.419,3.966-1.257.984-.837,1.477-1.857,1.477-3.062,0-1.028-.349-1.844-1.047-2.446-.697-.603-1.707-1.028-3.029-1.278l-2.887-.551c-.779-.146-1.587-.353-2.424-.617-.838-.264-1.62-.631-2.348-1.102-.727-.47-1.314-1.087-1.763-1.851s-.672-1.727-.672-2.887c0-1.558.407-2.832,1.223-3.823.815-.992,1.896-1.73,3.239-2.215,1.345-.485,2.795-.728,4.353-.728,1.704,0,3.188.265,4.451.794,1.264.528,2.292,1.285,3.085,2.27s1.322,2.174,1.587,3.569l-4.077.815c-.103-.896-.341-1.675-.716-2.336s-.918-1.171-1.631-1.531c-.713-.359-1.635-.54-2.766-.54-1.366,0-2.542.287-3.525.859-.984.573-1.477,1.44-1.477,2.601,0,.646.165,1.197.496,1.652.33.456.829.834,1.498,1.135.668.302,1.51.562,2.523.782l2.931.617c1.234.25,2.372.621,3.415,1.113s1.881,1.172,2.513,2.038c.632.867.947,2.013.947,3.438,0,1.572-.393,2.928-1.179,4.065-.786,1.139-1.873,2.01-3.262,2.611-1.388.603-3,.904-4.837.904Z" fill="#c9d1d9"/>
      </g>
      <g isolation="isolate">
        <path d="m1287.203,731.329c-2.262,0-4.219-.507-5.872-1.521s-2.927-2.45-3.823-4.309-1.344-4.051-1.344-6.578c0-2.541.447-4.744,1.344-6.61.896-1.865,2.16-3.306,3.79-4.319,1.631-1.014,3.548-1.521,5.751-1.521,1.264,0,2.531.202,3.802.606s2.431,1.102,3.481,2.093c1.051.992,1.896,2.352,2.535,4.077.639,1.727.958,3.904.958,6.534h-19.282v-2.997h16.064l-1.057,1.388c-.074-2.086-.412-3.761-1.014-5.024-.604-1.263-1.386-2.178-2.348-2.743-.963-.565-2.031-.849-3.206-.849-1.396,0-2.601.364-3.614,1.091-1.014.728-1.793,1.789-2.336,3.185s-.814,3.1-.814,5.112c0,2.968.605,5.26,1.817,6.875,1.212,1.616,2.935,2.424,5.167,2.424,1.602,0,2.949-.403,4.044-1.212,1.095-.808,1.899-1.976,2.413-3.503l3.637,1.233c-.574,1.381-1.338,2.561-2.293,3.537s-2.09,1.727-3.404,2.248c-1.314.521-2.78.782-4.396.782Z" fill="#c9d1d9"/>
      </g>
      <g isolation="isolate">
        <path d="m1313.579,731.329c-2.232,0-4.164-.507-5.795-1.521s-2.887-2.45-3.769-4.309c-.881-1.858-1.322-4.058-1.322-6.6s.441-4.741,1.322-6.6c.882-1.858,2.138-3.295,3.769-4.309s3.562-1.521,5.795-1.521c1.704,0,3.229.312,4.573.937,1.344.625,2.482,1.521,3.415,2.688s1.62,2.575,2.061,4.22l-3.769.992c-.411-1.852-1.149-3.272-2.214-4.265-1.065-.991-2.421-1.487-4.066-1.487-2.188,0-3.875.812-5.057,2.436-1.183,1.623-1.774,3.926-1.774,6.908s.592,5.304,1.774,6.919c1.182,1.616,2.868,2.424,5.057,2.424,1.631,0,2.976-.48,4.033-1.443,1.058-.962,1.799-2.354,2.226-4.176l3.746,1.059c-.353,1.204-.838,2.276-1.454,3.217-.617.94-1.349,1.741-2.193,2.402s-1.8,1.164-2.864,1.509c-1.065.346-2.229.519-3.493.519Z" fill="#c9d1d9"/>
      </g>
      <g isolation="isolate">
        <path d="m1338.834,731.329c-2.233,0-4.202-.525-5.905-1.576-1.705-1.05-3.034-2.508-3.989-4.374-.955-1.865-1.432-4.025-1.432-6.479s.477-4.613,1.432-6.479,2.284-3.324,3.989-4.374c1.703-1.051,3.672-1.576,5.905-1.576s4.201.525,5.905,1.576c1.704,1.05,3.034,2.509,3.989,4.374.954,1.865,1.432,4.025,1.432,6.479s-.478,4.613-1.432,6.479c-.955,1.866-2.285,3.324-3.989,4.374-1.704,1.051-3.673,1.576-5.905,1.576Zm0-3.086c2.248,0,4.021-.837,5.321-2.512,1.301-1.675,1.95-3.951,1.95-6.831,0-2.895-.649-5.175-1.95-6.843-1.3-1.667-3.073-2.501-5.321-2.501s-4.021.834-5.321,2.501c-1.301,1.668-1.95,3.948-1.95,6.843,0,2.88.649,5.156,1.95,6.831,1.3,1.675,3.073,2.512,5.321,2.512Z" fill="#c9d1d9"/>
      </g>
      <g isolation="isolate">
        <path d="m1355.691,730.8v-23.799h3.482v5.377l-.154-.97c.631-1.366,1.63-2.53,2.996-3.493,1.367-.962,3.026-1.443,4.98-1.443,1.689,0,3.144.375,4.363,1.124s2.159,1.818,2.82,3.206c.661,1.389.992,3.06.992,5.014v14.984h-3.702v-14.698c0-1.953-.4-3.533-1.201-4.737-.801-1.205-2.119-1.808-3.955-1.808-1.983,0-3.633.753-4.947,2.259-1.315,1.506-1.973,3.684-1.973,6.534v12.45h-3.702Z" fill="#c9d1d9"/>
      </g>
      <g isolation="isolate">
        <path d="m1390.426,731.329c-1.926,0-3.625-.507-5.102-1.521s-2.627-2.454-3.449-4.319-1.234-4.069-1.234-6.611.416-4.741,1.246-6.6c.829-1.858,1.979-3.29,3.448-4.297,1.469-1.006,3.165-1.51,5.091-1.51,1.557,0,3.099.39,4.627,1.168,1.527.779,2.681,2.094,3.459,3.944l-.418.177v-14.016h3.702v33.055h-3.481v-4.958l.109.353c-.646,1.733-1.719,3.022-3.217,3.867s-3.093,1.268-4.781,1.268Zm.969-3.086c1.248,0,2.387-.322,3.416-.969,1.027-.646,1.851-1.656,2.468-3.03s.926-3.133.926-5.277c0-3.203-.661-5.571-1.983-7.107-1.322-1.534-2.916-2.303-4.781-2.303-1.969,0-3.586.812-4.849,2.436-1.264,1.623-1.896,3.948-1.896,6.975,0,2.938.609,5.219,1.83,6.842,1.219,1.623,2.842,2.435,4.869,2.435Z" fill="#c9d1d9"/>
      </g>
      <g isolation="isolate">
        <path d="m1416.894,731.329c-1.719,0-3.28-.283-4.683-.849-1.403-.565-2.567-1.425-3.493-2.578s-1.542-2.619-1.851-4.396l3.878-.749c.162,1.865.797,3.254,1.906,4.165,1.109.91,2.501,1.366,4.176,1.366,1.66,0,2.982-.419,3.967-1.257.984-.837,1.477-1.857,1.477-3.062,0-1.028-.35-1.844-1.047-2.446-.698-.603-1.708-1.028-3.03-1.278l-2.887-.551c-.778-.146-1.587-.353-2.424-.617-.837-.264-1.62-.631-2.347-1.102-.728-.47-1.315-1.087-1.763-1.851-.448-.764-.673-1.727-.673-2.887,0-1.558.408-2.832,1.224-3.823.815-.992,1.895-1.73,3.239-2.215,1.344-.485,2.795-.728,4.352-.728,1.704,0,3.188.265,4.452.794,1.263.528,2.291,1.285,3.085,2.27.793.984,1.322,2.174,1.586,3.569l-4.076.815c-.104-.896-.342-1.675-.717-2.336-.374-.661-.918-1.171-1.63-1.531-.713-.359-1.635-.54-2.766-.54-1.366,0-2.542.287-3.526.859-.984.573-1.477,1.44-1.477,2.601,0,.646.166,1.197.496,1.652.331.456.83.834,1.499,1.135.668.302,1.509.562,2.522.782l2.931.617c1.234.25,2.373.621,3.416,1.113s1.88,1.172,2.512,2.038c.632.867.948,2.013.948,3.438,0,1.572-.394,2.928-1.18,4.065-.785,1.139-1.873,2.01-3.261,2.611-1.389.603-3.001.904-4.837.904Z" fill="#c9d1d9"/>
      </g>
    </g>
    <g isolation="isolate">
      <g isolation="isolate">
        <path d="m975.677,673.839c-1.969,0-3.787-.383-5.454-1.146s-3.037-1.876-4.109-3.338c-1.073-1.462-1.705-3.251-1.896-5.366l4.011-1.256c.162,2.365.881,4.278,2.16,5.74,1.278,1.462,3.019,2.192,5.223,2.192,1.983,0,3.632-.576,4.947-1.729s1.973-2.817,1.973-4.991c0-.852-.18-1.759-.54-2.722-.36-.962-1.003-1.781-1.928-2.457s-2.24-1.014-3.944-1.014h-4.363v-3.35h4.011c1.865,0,3.294-.495,4.286-1.487.992-.991,1.488-2.111,1.488-3.36,0-1.469-.515-2.725-1.542-3.769-1.029-1.043-2.483-1.564-4.363-1.564-2.321,0-4.021.661-5.102,1.983-1.08,1.322-1.701,3.159-1.862,5.509l-4.011-1.256c.088-1.513.595-2.989,1.521-4.429.926-1.44,2.204-2.63,3.834-3.57,1.63-.94,3.548-1.41,5.751-1.41,1.807,0,3.448.353,4.925,1.058s2.648,1.671,3.515,2.897,1.3,2.642,1.3,4.242c0,1.058-.22,2.031-.661,2.92-.44.889-1.102,1.649-1.983,2.28-.881.632-1.998,1.103-3.349,1.411,2.233.396,3.992,1.34,5.277,2.831s1.928,3.214,1.928,5.168c0,1.763-.312,3.275-.937,4.539s-1.465,2.296-2.523,3.096c-1.058.801-2.241,1.393-3.548,1.774-1.308.382-2.652.573-4.033.573Z" fill="#c9d1d9"/>
      </g>
    </g>
    <g isolation="isolate">
      <g isolation="isolate">
        <path d="m1552.809,673.2v-25.275c-1.16.999-2.247,1.84-3.261,2.523-1.014.683-2.146,1.26-3.394,1.729v-3.746c.646-.309,1.33-.694,2.049-1.157.721-.463,1.539-1.146,2.457-2.049s1.98-2.156,3.185-3.758h2.843v31.732h-3.879Z" fill="#c9d1d9"/>
      </g>
    </g>
    <g isolation="isolate">
      <g isolation="isolate">
        <path d="m1793.183,673.2v-2.601l11.15-9.453c1.513-1.293,2.75-2.468,3.713-3.525.962-1.059,1.671-2.131,2.126-3.218.456-1.087.684-2.299.684-3.636,0-1.454-.254-2.678-.761-3.669-.507-.992-1.237-1.737-2.192-2.237-.955-.499-2.123-.749-3.504-.749-1.586,0-2.868.312-3.845.937-.978.625-1.704,1.466-2.182,2.523s-.761,2.248-.849,3.569l-4.23-1.3c.088-1.41.598-2.799,1.531-4.165.933-1.366,2.215-2.497,3.845-3.394,1.631-.896,3.533-1.344,5.708-1.344,1.233,0,2.476.176,3.724.528,1.249.353,2.398.915,3.449,1.687,1.05.771,1.895,1.777,2.534,3.019.639,1.241.958,2.743.958,4.507,0,2.512-.683,4.756-2.049,6.731-1.366,1.977-3.276,3.956-5.729,5.938l-8.616,6.986-2.799-.529h19.811v3.394h-22.477Z" fill="#c9d1d9"/>
      </g>
    </g>
    <g isolation="isolate">
      <g isolation="isolate">
        <path d="m2056.627,673.729c-1.969,0-3.786-.383-5.453-1.146-1.668-.764-3.037-1.876-4.109-3.338-1.073-1.462-1.705-3.251-1.896-5.366l4.012-1.256c.161,2.365.881,4.278,2.159,5.74s3.019,2.192,5.223,2.192c1.983,0,3.632-.576,4.946-1.729,1.315-1.153,1.973-2.817,1.973-4.991,0-.852-.18-1.759-.539-2.722-.361-.962-1.004-1.781-1.929-2.457s-2.24-1.014-3.944-1.014h-4.363v-3.35h4.011c1.865,0,3.294-.495,4.286-1.487s1.487-2.111,1.487-3.36c0-1.469-.515-2.725-1.542-3.769-1.029-1.043-2.483-1.564-4.363-1.564-2.322,0-4.021.661-5.102,1.983s-1.701,3.159-1.862,5.509l-4.011-1.256c.088-1.513.596-2.989,1.521-4.429.926-1.44,2.204-2.63,3.835-3.57,1.63-.94,3.547-1.41,5.751-1.41,1.807,0,3.448.353,4.925,1.058s2.648,1.671,3.515,2.897,1.3,2.642,1.3,4.242c0,1.058-.22,2.031-.66,2.92-.441.889-1.102,1.649-1.984,2.28-.881.632-1.998,1.103-3.349,1.411,2.233.396,3.991,1.34,5.277,2.831s1.929,3.214,1.929,5.168c0,1.763-.312,3.275-.938,4.539-.624,1.264-1.465,2.296-2.522,3.096-1.058.801-2.241,1.393-3.548,1.774-1.308.382-2.652.573-4.033.573Z" fill="#c9d1d9"/>
      </g>
    </g>
    <g isolation="isolate">
      <g isolation="isolate">
        <path d="m93.672,129.07v-2.601l11.15-9.453c1.513-1.293,2.75-2.468,3.713-3.525.962-1.059,1.671-2.131,2.126-3.218s.683-2.299.683-3.636c0-1.454-.253-2.678-.76-3.669-.507-.992-1.238-1.737-2.192-2.237-.955-.499-2.123-.749-3.504-.749-1.586,0-2.868.312-3.845.937-.977.625-1.704,1.466-2.182,2.523s-.76,2.248-.848,3.569l-4.231-1.3c.088-1.41.598-2.799,1.531-4.165s2.215-2.497,3.845-3.394c1.631-.896,3.533-1.344,5.708-1.344,1.234,0,2.476.176,3.724.528s2.398.915,3.449,1.687c1.05.771,1.895,1.777,2.534,3.019s.958,2.743.958,4.507c0,2.512-.683,4.756-2.049,6.731-1.366,1.977-3.276,3.956-5.729,5.938l-8.616,6.986-2.798-.529h19.811v3.394h-22.477Z" fill="#c9d1d9"/>
      </g>
      <g isolation="isolate">
        <path d="m119.962,129.07v-2.601l11.15-9.453c1.513-1.293,2.75-2.468,3.713-3.525.962-1.059,1.671-2.131,2.126-3.218s.683-2.299.683-3.636c0-1.454-.253-2.678-.76-3.669-.507-.992-1.238-1.737-2.192-2.237-.955-.499-2.123-.749-3.504-.749-1.586,0-2.868.312-3.845.937-.977.625-1.704,1.466-2.182,2.523s-.76,2.248-.848,3.569l-4.231-1.3c.088-1.41.598-2.799,1.531-4.165s2.215-2.497,3.845-3.394c1.631-.896,3.533-1.344,5.708-1.344,1.234,0,2.476.176,3.724.528s2.398.915,3.449,1.687c1.05.771,1.895,1.777,2.534,3.019s.958,2.743.958,4.507c0,2.512-.683,4.756-2.049,6.731-1.366,1.977-3.276,3.956-5.729,5.938l-8.616,6.986-2.798-.529h19.811v3.394h-22.477Z" fill="#c9d1d9"/>
      </g>
      <g isolation="isolate">
        <path d="m157.927,129.599c-2.159,0-4.007-.43-5.542-1.289-1.535-.86-2.732-1.936-3.592-3.229s-1.363-2.601-1.509-3.923l4.032-1.058c.088,1.925.668,3.46,1.741,4.605,1.072,1.146,2.703,1.719,4.892,1.719,1.439,0,2.629-.323,3.57-.97.94-.646,1.686-1.498,2.236-2.556.551-1.058.958-2.215,1.223-3.471s.441-2.501.529-3.735c.088-1.234.14-2.343.154-3.327l.353.617c-.617,1.425-1.642,2.699-3.074,3.823-1.433,1.123-3.288,1.686-5.564,1.686-1.866,0-3.581-.43-5.146-1.289-1.564-.859-2.82-2.097-3.768-3.713-.947-1.616-1.421-3.562-1.421-5.84,0-2.218.466-4.14,1.399-5.763.933-1.623,2.229-2.876,3.889-3.757,1.66-.882,3.57-1.322,5.729-1.322s3.974.422,5.443,1.267c1.469.846,2.648,2.013,3.537,3.504.889,1.491,1.527,3.206,1.917,5.146.389,1.939.584,4.004.584,6.192s-.209,4.282-.628,6.28c-.419,1.998-1.087,3.779-2.005,5.344-.918,1.564-2.116,2.799-3.592,3.702-1.477.903-3.272,1.355-5.388,1.355Zm-.066-14.28c2.145,0,3.871-.705,5.179-2.115,1.307-1.41,1.961-3.335,1.961-5.773,0-2.306-.613-4.124-1.84-5.454-1.227-1.329-2.913-1.994-5.058-1.994-2.174,0-3.871.688-5.09,2.061-1.219,1.374-1.829,3.258-1.829,5.652,0,2.351.591,4.209,1.774,5.575,1.182,1.366,2.817,2.049,4.903,2.049Z" fill="#c9d1d9"/>
      </g>
      <g isolation="isolate">
        <path d="m175.959,129.07c1.161-5.465,2.85-10.485,5.068-15.062s4.965-9.002,8.242-13.277h-17.629v-3.394h21.551v2.976c-1.499,2.247-2.913,4.503-4.242,6.765-1.33,2.263-2.542,4.565-3.636,6.908-1.095,2.344-2.038,4.764-2.832,7.261-.793,2.498-1.41,5.105-1.851,7.823h-4.672Z" fill="#c9d1d9"/>
      </g>
    </g>
    <g isolation="isolate">
      <g isolation="isolate">
        <path d="m106.889,561.07v-25.275c-1.161.999-2.248,1.84-3.261,2.523-1.014.683-2.145,1.26-3.394,1.729v-3.746c.646-.309,1.33-.694,2.049-1.157s1.539-1.146,2.457-2.049c.918-.903,1.979-2.156,3.184-3.758h2.843v31.732h-3.878Z" fill="#c9d1d9"/>
      </g>
      <g isolation="isolate">
        <path d="m131.876,561.07v-10.489h.044v-18.774l.97,2.115-14.059,16.703-1.322-1.146h21.948v3.394h-23.711v-3.79l16.726-19.745h3.283v31.732h-3.878Z" fill="#c9d1d9"/>
      </g>
      <g isolation="isolate">
        <path d="m154.887,561.6c-3.849,0-6.769-1.411-8.759-4.231-1.991-2.82-2.986-6.662-2.986-11.524,0-2.38.242-4.603.727-6.666.485-2.064,1.223-3.871,2.215-5.421s2.236-2.762,3.735-3.637c1.499-.873,3.262-1.311,5.289-1.311,2.086,0,3.897.43,5.432,1.289s2.744,1.936,3.625,3.229,1.396,2.607,1.542,3.944l-4.033,1.035c-.088-1.895-.702-3.423-1.84-4.583-1.139-1.16-2.692-1.741-4.661-1.741-1.484,0-2.718.323-3.702.97-.984.646-1.774,1.498-2.369,2.557-.595,1.058-1.043,2.214-1.344,3.471-.301,1.256-.5,2.501-.595,3.734-.096,1.234-.143,2.344-.143,3.328l-.353-.353c.617-1.439,1.642-2.718,3.074-3.835,1.433-1.116,3.302-1.675,5.608-1.675,1.851,0,3.559.416,5.124,1.245,1.564.83,2.817,2.042,3.757,3.637.94,1.594,1.411,3.536,1.411,5.828,0,2.175-.449,4.065-1.344,5.674-.896,1.609-2.152,2.851-3.769,3.725s-3.496,1.312-5.641,1.312Zm0-3.174c2.16,0,3.831-.679,5.013-2.038,1.183-1.358,1.774-3.214,1.774-5.564,0-2.365-.588-4.201-1.763-5.509-1.176-1.308-2.806-1.961-4.892-1.961-2.145,0-3.875.68-5.189,2.038-1.315,1.359-1.972,3.214-1.972,5.564,0,2.291.635,4.109,1.906,5.454,1.271,1.344,2.979,2.016,5.124,2.016Z" fill="#c9d1d9"/>
      </g>
      <g isolation="isolate">
        <path d="m185.517,561.07v-10.489h.044v-18.774l.97,2.115-14.059,16.703-1.322-1.146h21.948v3.394h-23.711v-3.79l16.726-19.745h3.283v31.732h-3.878Z" fill="#c9d1d9"/>
      </g>
    </g>
  </g>
  <g id="Graph">
    <polyline points="1227.6 547.2 975.6 115.2 723.6 547.2 471.6 115.2 219.6 547.2" fill="none" stroke="#c9d1d9" stroke-miterlimit="10" stroke-width="2.83"/>
    <line x1="1300.56" y1="434.36" x2="1486.8" y2="115.09" fill="none" stroke="#c9d1d9" stroke-miterlimit="10" stroke-width="2.83"/>
    <line x1="1738.8" y1="547.09" x2="1486.8" y2="115.09" fill="none" stroke="#c9d1d9" stroke-miterlimit="10" stroke-width="2.83"/>
    <line x1="1738.8" y1="547.09" x2="1990.8" y2="115.09" fill="none" stroke="#c9d1d9" stroke-miterlimit="10" stroke-width="2.83"/>
    <line x1="2242.8" y1="547.09" x2="1990.8" y2="115.09" fill="none" stroke="#c9d1d9" stroke-miterlimit="10" stroke-width="2.83"/>
    <line x1="2242.8" y1="547.09" x2="2308.56" y2="434.36" fill="none" stroke="#c9d1d9" stroke-miterlimit="10" stroke-width="2.83"/>
    <rect x="338.4" y="3.6" width="14.4" height="612" fill="#7f7f7f"/>
    <rect x="590.4" y="3.6" width="14.4" height="612" fill="#7f7f7f"/>
    <rect x="842.4" y="3.6" width="14.4" height="612" fill="#7f7f7f"/>
    <rect x="1094.4" y="3.6" width="14.4" height="612" fill="#7f7f7f"/>
    <rect x="1479.6" y="3.49" width="14.4" height="612" fill="#7f7f7f"/>
    <rect x="1731.6" y="3.49" width="14.4" height="612" fill="#7f7f7f"/>
    <rect x="1983.6" y="3.49" width="14.4" height="612" fill="#7f7f7f"/>
    <rect x="2235.6" y="3.49" width="14.4" height="612" fill="#7f7f7f"/>
  </g>
</svg>