<?xml version="1.0" encoding="UTF-8"?>
<svg xmlns="http://www.w3.org/2000/svg" viewBox="0 0 2527.2 734.4">
  <defs>
    <style>
      .cls-1 {
        letter-spacing: 0em;
      }

      .cls-2 {
        letter-spacing: 0em;
      }

      .cls-3 {
        letter-spacing: .02em;
      }

      .cls-4 {
        fill: #7f7f7f;
      }

      .cls-5 {
        fill: #c9d1d9;
        font-family: SchibstedGrotesk-Regular, 'Schibsted Grotesk';
        font-size: 45.13px;
        font-variation-settings: 'wght' 400;
      }

      .cls-6 {
        letter-spacing: 0em;
      }

      .cls-7 {
        letter-spacing: -.01em;
      }

      .cls-8 {
        letter-spacing: -.05em;
      }

      .cls-9 {
        letter-spacing: .02em;
      }

      .cls-10 {
        letter-spacing: 0em;
      }

      .cls-11 {
        letter-spacing: 0em;
      }

      .cls-12 {
        letter-spacing: 0em;
      }

      .cls-13 {
        letter-spacing: 0em;
      }

      .cls-14 {
        letter-spacing: 0em;
      }

      .cls-15 {
        letter-spacing: .01em;
      }

      .cls-16 {
        letter-spacing: .01em;
      }

      .cls-17 {
        fill: none;
        stroke: #c9d1d9;
        stroke-miterlimit: 10;
        stroke-width: 2.83px;
      }

      .cls-18 {
        letter-spacing: 0em;
      }

      .cls-19 {
        letter-spacing: 0em;
      }

      .cls-20 {
        letter-spacing: .01em;
      }

      .cls-21 {
        letter-spacing: 0em;
      }

      .cls-22 {
        letter-spacing: 0em;
      }

      .cls-23 {
        letter-spacing: 0em;
      }

      .cls-24 {
        letter-spacing: -.03em;
      }

      .cls-25 {
        letter-spacing: -.01em;
      }

      .cls-26 {
        letter-spacing: 0em;
      }
    </style>
  </defs>
  <g id="Ebene_5" data-name="Ebene 5">
    <line class="cls-17" x1="471.6" y1="634.56" x2="471.6" y2="615.6"/>
    <line class="cls-17" x1="200.64" y1="115.2" x2="219.6" y2="115.2"/>
    <line class="cls-17" x1="200.64" y1="547.2" x2="219.6" y2="547.2"/>
    <line class="cls-17" x1="723.6" y1="615.6" x2="723.6" y2="634.56"/>
    <line class="cls-17" x1="975.6" y1="615.6" x2="975.6" y2="634.56"/>
    <rect class="cls-17" x="219.6" y="3.6" width="1008" height="612"/>
    <line class="cls-17" x1="1552.56" y1="634.44" x2="1552.56" y2="615.49"/>
    <line class="cls-17" x1="1281.6" y1="115.09" x2="1300.56" y2="115.09"/>
    <line class="cls-17" x1="1281.6" y1="547.09" x2="1300.56" y2="547.09"/>
    <line class="cls-17" x1="1804.56" y1="615.49" x2="1804.56" y2="634.44"/>
    <line class="cls-17" x1="2056.56" y1="615.49" x2="2056.56" y2="634.44"/>
    <rect class="cls-17" x="1300.56" y="3.49" width="1008" height="612"/>
  </g>
  <g id="Text">
    <text class="cls-5" transform="translate(36 596.96) rotate(-90)"><tspan class="cls-25" x="0" y="0">f</tspan><tspan class="cls-24" x="14.72" y="0">r</tspan><tspan class="cls-3" x="31.51" y="0">e</tspan><tspan x="58.38" y="0">q</tspan><tspan class="cls-21" x="85" y="0">u</tspan><tspan class="cls-10" x="111.11" y="0">en</tspan><tspan class="cls-22" x="163.21" y="0">c</tspan><tspan x="187.71" y="0">y in </tspan><tspan class="cls-23" x="272.51" y="0">k</tspan><tspan class="cls-18" x="297.12" y="0">Hz </tspan><tspan class="cls-7" x="363.83" y="0">(</tspan><tspan class="cls-2" x="377.16" y="0">l</tspan><tspan x="388.71" y="0">og </tspan><tspan class="cls-12" x="452.15" y="0">sc</tspan><tspan x="500.83" y="0">a</tspan><tspan class="cls-1" x="525.71" y="0">l</tspan><tspan class="cls-8" x="537.39" y="0">e</tspan><tspan x="560.79" y="0">)</tspan></text>
    <text class="cls-5" transform="translate(463.85 673.31)"><tspan x="0" y="0">1</tspan></text>
    <text class="cls-5" transform="translate(710.69 673.31)"><tspan x="0" y="0">2</tspan></text>
    <text class="cls-5" transform="translate(1098.9 730.8)"><tspan x="0" y="0">time in </tspan><tspan class="cls-13" x="151.59" y="0">s</tspan><tspan class="cls-20" x="175.06" y="0">e</tspan><tspan x="201.59" y="0">c</tspan><tspan class="cls-6" x="226.47" y="0">o</tspan><tspan class="cls-16" x="253.2" y="0">n</tspan><tspan class="cls-19" x="279.89" y="0">d</tspan><tspan x="306.27" y="0">s</tspan></text>
    <text class="cls-5" transform="translate(962.61 673.31)"><tspan x="0" y="0">3</tspan></text>
    <text class="cls-5" transform="translate(1544.81 673.2)"><tspan x="0" y="0">1</tspan></text>
    <text class="cls-5" transform="translate(1791.64 673.2)"><tspan x="0" y="0">2</tspan></text>
    <text class="cls-5" transform="translate(2043.56 673.2)"><tspan x="0" y="0">3</tspan></text>
    <text class="cls-5" transform="translate(92.13 129.07)"><tspan class="cls-15" x="0" y="0">2</tspan><tspan class="cls-9" x="26.29" y="0">2</tspan><tspan class="cls-24" x="52.84" y="0">9</tspan><tspan x="78.32" y="0">7</tspan></text>
    <text class="cls-5" transform="translate(98.89 561.07)"><tspan x="0" y="0">1</tspan><tspan class="cls-26" x="15.49" y="0">4</tspan><tspan class="cls-14" x="42.07" y="0">6</tspan><tspan class="cls-11" x="69.13" y="0">4</tspan></text>
  </g>
  <g id="Graph">
    <polyline class="cls-17" points="1227.6 547.2 975.6 115.2 723.6 547.2 471.6 115.2 219.6 547.2"/>
    <line class="cls-17" x1="1300.56" y1="434.36" x2="1486.8" y2="115.09"/>
    <line class="cls-17" x1="1738.8" y1="547.09" x2="1486.8" y2="115.09"/>
    <line class="cls-17" x1="1738.8" y1="547.09" x2="1990.8" y2="115.09"/>
    <line class="cls-17" x1="2242.8" y1="547.09" x2="1990.8" y2="115.09"/>
    <line class="cls-17" x1="2242.8" y1="547.09" x2="2308.56" y2="434.36"/>
    <rect class="cls-4" x="338.4" y="3.6" width="14.4" height="612"/>
    <rect class="cls-4" x="590.4" y="3.6" width="14.4" height="612"/>
    <rect class="cls-4" x="842.4" y="3.6" width="14.4" height="612"/>
    <rect class="cls-4" x="1094.4" y="3.6" width="14.4" height="612"/>
    <rect class="cls-4" x="1479.6" y="3.49" width="14.4" height="612"/>
    <rect class="cls-4" x="1731.6" y="3.49" width="14.4" height="612"/>
    <rect class="cls-4" x="1983.6" y="3.49" width="14.4" height="612"/>
    <rect class="cls-4" x="2235.6" y="3.49" width="14.4" height="612"/>
  </g>
</svg>