<?xml version="1.0" encoding="UTF-8"?>
<svg id="Ebene_1" data-name="Ebene 1" xmlns="http://www.w3.org/2000/svg" width="1814.4" height="532.8" xmlns:xlink="http://www.w3.org/1999/xlink" viewBox="0 0 1814.4 532.8">
  <defs>
    <linearGradient id="Unbenannter_Verlauf" data-name="Unbenannter Verlauf" x1="7.2" y1="332.4" x2="799.2" y2="332.4" gradientTransform="translate(0 534) scale(1 -1)" gradientUnits="userSpaceOnUse">
      <stop offset="0" stop-color="#7f7f7f"/>
      <stop offset=".44" stop-color="#7d7e80"/>
      <stop offset=".6" stop-color="#787e87"/>
      <stop offset=".71" stop-color="#707e93"/>
      <stop offset=".8" stop-color="#647ea4"/>
      <stop offset=".88" stop-color="#557eba"/>
      <stop offset=".95" stop-color="#427ed4"/>
      <stop offset="1" stop-color="#307eef"/>
    </linearGradient>
    <linearGradient id="Unbenannter_Verlauf_2" data-name="Unbenannter Verlauf 2" x1="-475.91" y1="106.65" x2="532.09" y2="106.65" gradientTransform="translate(1331.29 94.95) rotate(-180) scale(1 -1)" gradientUnits="userSpaceOnUse">
      <stop offset="0" stop-color="#7f7f7f"/>
      <stop offset=".44" stop-color="#7d7e80"/>
      <stop offset=".6" stop-color="#787e87"/>
      <stop offset=".71" stop-color="#707e93"/>
      <stop offset=".8" stop-color="#647ea4"/>
      <stop offset=".88" stop-color="#557eba"/>
      <stop offset=".95" stop-color="#427ed4"/>
      <stop offset="1" stop-color="#307eef"/>
    </linearGradient>
  </defs>
  <g>
    <line x1="56.02" y1="460.8" x2="1758.38" y2="460.8" fill="none" stroke="#c9d1d9" stroke-miterlimit="10" stroke-width="8.5"/>
    <polygon points="65.94 494.72 7.2 460.8 65.94 426.88 65.94 494.72" fill="#c9d1d9"/>
    <polygon points="1748.46 494.72 1807.2 460.8 1748.46 426.88 1748.46 494.72" fill="#c9d1d9"/>
  </g>
  <line x1="439.2" y1="460.8" x2="439.2" y2="388.8" fill="none" stroke="#c9d1d9" stroke-miterlimit="10" stroke-width="8.5"/>
  <line x1="727.2" y1="460.8" x2="727.2" y2="388.8" fill="none" stroke="#c9d1d9" stroke-miterlimit="10" stroke-width="8.5"/>
  <line x1="1015.2" y1="460.8" x2="1015.2" y2="388.8" fill="none" stroke="#c9d1d9" stroke-miterlimit="10" stroke-width="8.5"/>
  <line x1="1303.2" y1="460.8" x2="1303.2" y2="388.8" fill="none" stroke="#c9d1d9" stroke-miterlimit="10" stroke-width="8.5"/>
  <g>
    <path d="m413.81,360h-4.36v-28.9l-8.74,3.21v-3.94l12.42-4.66h.68v34.29h0Z" fill="#c9d1d9"/>
    <path d="m453.86,360h-4.52v-15.77h-17.2v15.77h-4.5v-34.12h4.5v14.67h17.2v-14.67h4.52v34.12Z" fill="#c9d1d9"/>
    <path d="m465.25,356.46h14.84v3.54h-20.13v-3.19l13.99-18.59h-13.78v-3.59h19.22v3.07l-14.13,18.75-.01.01Z" fill="#c9d1d9"/>
  </g>
  <g>
    <path d="m671.39,360h-4.36v-28.9l-8.74,3.21v-3.94l12.42-4.66h.68v34.29Z" fill="#c9d1d9"/>
    <path d="m705.49,345.45c0,5.08-.87,8.85-2.6,11.32s-4.45,3.7-8.13,3.7-6.34-1.21-8.09-3.62-2.66-6.02-2.72-10.82v-5.79c0-5.02.87-8.74,2.6-11.18s4.45-3.66,8.16-3.66,6.38,1.18,8.11,3.53,2.62,5.98,2.67,10.89v5.63Zm-4.34-5.93c0-3.67-.52-6.35-1.55-8.03s-2.66-2.52-4.9-2.52-3.84.84-4.85,2.51-1.54,4.24-1.57,7.71v6.94c0,3.69.54,6.41,1.61,8.17s2.69,2.64,4.86,2.64,3.73-.83,4.77-2.48,1.58-4.27,1.63-7.83v-7.11Z" fill="#c9d1d9"/>
    <path d="m732.44,345.45c0,5.08-.87,8.85-2.6,11.32s-4.45,3.7-8.13,3.7-6.34-1.21-8.09-3.62-2.66-6.02-2.72-10.82v-5.79c0-5.02.87-8.74,2.6-11.18s4.45-3.66,8.16-3.66,6.38,1.18,8.11,3.53,2.62,5.98,2.67,10.89v5.63Zm-4.34-5.93c0-3.67-.52-6.35-1.55-8.03s-2.66-2.52-4.9-2.52-3.84.84-4.85,2.51-1.54,4.24-1.57,7.71v6.94c0,3.69.54,6.41,1.61,8.17s2.69,2.64,4.86,2.64,3.73-.83,4.77-2.48,1.58-4.27,1.63-7.83v-7.11Z" fill="#c9d1d9"/>
    <path d="m772.28,360h-4.52v-15.77h-17.2v15.77h-4.5v-34.12h4.5v14.67h17.2v-14.67h4.52v34.12Z" fill="#c9d1d9"/>
    <path d="m783.67,356.46h14.84v3.54h-20.13v-3.19l13.99-18.59h-13.78v-3.59h19.22v3.07l-14.13,18.75-.01.01Z" fill="#c9d1d9"/>
  </g>
  <g>
    <path d="m964.16,360h-4.36v-28.9l-8.74,3.21v-3.94l12.42-4.66h.68v34.29Z" fill="#c9d1d9"/>
    <path d="m998.27,345.45c0,5.08-.87,8.85-2.6,11.32s-4.45,3.7-8.13,3.7-6.34-1.21-8.09-3.62-2.66-6.02-2.72-10.82v-5.79c0-5.02.87-8.74,2.6-11.18s4.45-3.66,8.16-3.66,6.38,1.18,8.11,3.53,2.62,5.98,2.67,10.89v5.63Zm-4.34-5.93c0-3.67-.52-6.35-1.55-8.03s-2.66-2.52-4.9-2.52-3.84.84-4.85,2.51-1.54,4.24-1.57,7.71v6.94c0,3.69.54,6.41,1.61,8.17s2.69,2.64,4.86,2.64,3.73-.83,4.77-2.48,1.58-4.27,1.63-7.83v-7.11Z" fill="#c9d1d9"/>
    <path d="m1011.34,348.26l-2.72,2.84v8.91h-4.34v-36h4.34v21.77l2.32-2.79,7.9-8.34h5.27l-9.87,10.59,11.02,14.77h-5.09l-8.84-11.74.01-.01Z" fill="#c9d1d9"/>
    <path d="m1055.5,360h-4.52v-15.77h-17.2v15.77h-4.5v-34.12h4.5v14.67h17.2v-14.67h4.52v34.12Z" fill="#c9d1d9"/>
    <path d="m1066.89,356.46h14.84v3.54h-20.13v-3.19l13.99-18.59h-13.78v-3.59h19.22v3.07l-14.13,18.75-.01.01Z" fill="#c9d1d9"/>
  </g>
  <g>
    <path d="m1256.85,360h-4.36v-28.9l-8.74,3.21v-3.94l12.42-4.66h.68v34.29h0Z" fill="#c9d1d9"/>
    <path d="m1276.49,325.88l11.16,27.84,11.16-27.84h5.84v34.12h-4.5v-13.29l.42-14.34-11.2,27.63h-3.45l-11.18-27.56.45,14.27v13.29h-4.5v-34.12h5.81-.01Z" fill="#c9d1d9"/>
    <path d="m1338.81,360h-4.52v-15.77h-17.2v15.77h-4.5v-34.12h4.5v14.67h17.2v-14.67h4.52v34.12Z" fill="#c9d1d9"/>
    <path d="m1350.2,356.46h14.84v3.54h-20.13v-3.19l13.99-18.59h-13.78v-3.59h19.22v3.07l-14.13,18.75-.01.01Z" fill="#c9d1d9"/>
  </g>
  <line x1="1591.2" y1="460.8" x2="1591.2" y2="388.8" fill="none" stroke="#c9d1d9" stroke-miterlimit="10" stroke-width="8.5"/>
  <g>
    <path d="m1517.9,360h-4.36v-28.9l-8.74,3.21v-3.94l12.42-4.66h.68v34.29h0Z" fill="#c9d1d9"/>
    <path d="m1552,345.45c0,5.08-.87,8.85-2.6,11.32s-4.45,3.7-8.13,3.7-6.34-1.21-8.09-3.62-2.66-6.02-2.72-10.82v-5.79c0-5.02.87-8.74,2.6-11.18s4.45-3.66,8.16-3.66,6.38,1.18,8.11,3.53,2.62,5.98,2.67,10.89v5.63Zm-4.34-5.93c0-3.67-.52-6.35-1.55-8.03s-2.66-2.52-4.9-2.52-3.84.84-4.85,2.51-1.54,4.24-1.57,7.71v6.94c0,3.69.54,6.41,1.61,8.17s2.69,2.64,4.86,2.64,3.73-.83,4.77-2.48,1.58-4.27,1.63-7.83v-7.11Z" fill="#c9d1d9"/>
    <path d="m1578.95,345.45c0,5.08-.87,8.85-2.6,11.32s-4.45,3.7-8.13,3.7-6.34-1.21-8.09-3.62-2.66-6.02-2.72-10.82v-5.79c0-5.02.87-8.74,2.6-11.18s4.45-3.66,8.16-3.66,6.38,1.18,8.11,3.53,2.62,5.98,2.67,10.89v5.63Zm-4.34-5.93c0-3.67-.52-6.35-1.55-8.03s-2.66-2.52-4.9-2.52-3.84.84-4.85,2.51-1.54,4.24-1.57,7.71v6.94c0,3.69.54,6.41,1.61,8.17s2.69,2.64,4.86,2.64,3.73-.83,4.77-2.48,1.58-4.27,1.63-7.83v-7.11Z" fill="#c9d1d9"/>
    <path d="m1591.45,325.87l11.16,27.84,11.16-27.84h5.84v34.12h-4.5v-13.29l.42-14.34-11.2,27.63h-3.45l-11.18-27.56.45,14.27v13.29h-4.5v-34.12h5.81-.01Z" fill="#c9d1d9"/>
    <path d="m1653.77,360h-4.52v-15.77h-17.2v15.77h-4.5v-34.12h4.5v14.67h17.2v-14.67h4.52v34.12Z" fill="#c9d1d9"/>
    <path d="m1665.16,356.46h14.84v3.54h-20.13v-3.19l13.99-18.59h-13.78v-3.59h19.22v3.07l-14.13,18.75-.01.01Z" fill="#c9d1d9"/>
  </g>
  <rect x="7.2" y="129.6" width="792" height="144" fill="url(#Unbenannter_Verlauf)"/>
  <rect x="799.2" y="129.6" width="1008" height="144" fill="url(#Unbenannter_Verlauf_2)"/>
  <g>
    <path d="m183.3,183.91c0-.7.21-1.3.64-1.78s1.07-.73,1.91-.73,1.48.24,1.92.73.66,1.08.66,1.78-.22,1.29-.66,1.76-1.08.7-1.92.7-1.48-.23-1.91-.7-.64-1.05-.64-1.76Zm4.69,32.09h-4.34v-25.36h4.34v25.36Z" fill="#c9d1d9"/>
    <path d="m199.03,190.64l.14,3.19c1.94-2.44,4.47-3.66,7.59-3.66,5.36,0,8.06,3.02,8.11,9.07v16.76h-4.34v-16.78c-.02-1.83-.43-3.18-1.25-4.05s-2.1-1.31-3.83-1.31c-1.41,0-2.64.38-3.7,1.12s-1.89,1.73-2.48,2.95v18.07h-4.34v-25.36h4.1,0Z" fill="#c9d1d9"/>
    <path d="m223.55,216v-22.01h-4.01v-3.35h4.01v-2.6c0-2.72.73-4.82,2.18-6.3s3.51-2.23,6.16-2.23c1,0,1.99.13,2.98.4l-.23,3.5c-.73-.14-1.52-.21-2.34-.21-1.41,0-2.49.41-3.26,1.23-.77.82-1.15,2-1.15,3.54v2.68h5.41v3.35h-5.41v22.01h-4.34v-.01Z" fill="#c9d1d9"/>
    <path d="m250.34,194.53c-.66-.11-1.37-.16-2.13-.16-2.84,0-4.77,1.21-5.79,3.63v18h-4.34v-25.36h4.22l.07,2.93c1.42-2.27,3.44-3.4,6.05-3.4.84,0,1.48.11,1.92.33v4.03h0Z" fill="#c9d1d9"/>
    <path d="m269.04,216c-.25-.5-.45-1.39-.61-2.67-2.02,2.09-4.42,3.14-7.22,3.14-2.5,0-4.55-.71-6.15-2.12s-2.4-3.21-2.4-5.38c0-2.64,1-4.69,3.01-6.15s4.83-2.19,8.47-2.19h4.22v-1.99c0-1.52-.45-2.72-1.36-3.62s-2.24-1.35-4.01-1.35c-1.55,0-2.84.39-3.89,1.17s-1.57,1.73-1.57,2.84h-4.36c0-1.27.45-2.49,1.35-3.67s2.12-2.11,3.66-2.8,3.23-1.03,5.07-1.03c2.92,0,5.21.73,6.87,2.19s2.52,3.47,2.58,6.04v11.67c0,2.33.3,4.18.89,5.55v.38h-4.55v-.01Zm-7.2-3.3c1.36,0,2.65-.35,3.87-1.05s2.1-1.62,2.65-2.74v-5.2h-3.4c-5.31,0-7.97,1.55-7.97,4.66,0,1.36.45,2.42,1.36,3.19s2.07,1.15,3.49,1.15v-.01Z" fill="#c9d1d9"/>
    <path d="m294.26,209.27c0-1.17-.44-2.08-1.32-2.73s-2.42-1.21-4.62-1.68-3.94-1.03-5.23-1.69-2.24-1.44-2.86-2.34-.93-1.98-.93-3.23c0-2.08.88-3.84,2.64-5.27s4-2.16,6.74-2.16c2.88,0,5.21.74,7,2.23s2.68,3.38,2.68,5.7h-4.36c0-1.19-.5-2.21-1.51-3.07s-2.28-1.29-3.81-1.29-2.81.34-3.7,1.03-1.34,1.59-1.34,2.7c0,1.05.41,1.84,1.24,2.37s2.32,1.04,4.49,1.52,3.92,1.06,5.26,1.73,2.34,1.48,2.99,2.43.97,2.1.97,3.46c0,2.27-.91,4.08-2.72,5.45s-4.16,2.05-7.05,2.05c-2.03,0-3.83-.36-5.39-1.08s-2.79-1.72-3.67-3.01-1.32-2.68-1.32-4.18h4.34c.08,1.45.66,2.61,1.75,3.46s2.52,1.28,4.3,1.28c1.64,0,2.96-.33,3.95-1s1.49-1.55,1.49-2.66l-.01-.02Z" fill="#c9d1d9"/>
    <path d="m303.09,203.09c0-2.48.49-4.72,1.46-6.7s2.34-3.52,4.08-4.59,3.73-1.62,5.96-1.62c3.45,0,6.25,1.2,8.38,3.59s3.2,5.57,3.2,9.54v.3c0,2.47-.47,4.68-1.42,6.64s-2.3,3.49-4.05,4.58-3.78,1.64-6.06,1.64c-3.44,0-6.22-1.2-8.36-3.59s-3.2-5.55-3.2-9.49v-.3h.01Zm4.36.52c0,2.81.65,5.07,1.96,6.77s3.05,2.55,5.24,2.55,3.95-.86,5.25-2.59,1.95-4.14,1.95-7.25c0-2.78-.66-5.04-1.98-6.76s-3.07-2.59-5.26-2.59-3.87.85-5.18,2.55-1.97,4.14-1.97,7.31l-.01.01Z" fill="#c9d1d9"/>
    <path d="m347.27,213.49c-1.69,1.98-4.16,2.98-7.43,2.98-2.7,0-4.76-.79-6.18-2.36s-2.13-3.89-2.14-6.97v-16.5h4.34v16.38c0,3.84,1.56,5.77,4.69,5.77,3.31,0,5.52-1.23,6.61-3.7v-18.45h4.34v25.36h-4.12l-.09-2.51h-.02Z" fill="#c9d1d9"/>
    <path d="m362.18,190.64l.14,3.19c1.94-2.44,4.47-3.66,7.59-3.66,5.36,0,8.06,3.02,8.11,9.07v16.76h-4.34v-16.78c-.02-1.83-.43-3.18-1.25-4.05s-2.1-1.31-3.83-1.31c-1.41,0-2.64.38-3.7,1.12s-1.89,1.73-2.48,2.95v18.07h-4.34v-25.36h4.1Z" fill="#c9d1d9"/>
    <path d="m383.51,203.11c0-3.89.92-7.02,2.77-9.39s4.26-3.55,7.24-3.55,5.32,1.02,7.05,3.05v-13.22h4.34v36h-3.98l-.21-2.72c-1.73,2.12-4.15,3.19-7.24,3.19s-5.33-1.2-7.18-3.61-2.78-5.55-2.78-9.42v-.33h-.01Zm4.34.49c0,2.88.59,5.12,1.78,6.75s2.83,2.44,4.92,2.44c2.75,0,4.76-1.23,6.02-3.7v-11.65c-1.3-2.39-3.29-3.59-5.98-3.59-2.12,0-3.78.82-4.97,2.46s-1.78,4.07-1.78,7.29h.01Z" fill="#c9d1d9"/>
    <path d="m426.42,200.91l14.67,5.93v4.59l-19.17-8.88v-3.42l19.17-8.86v4.59l-14.67,6.05h0Z" fill="#c9d1d9"/>
    <path d="m481.71,216h-22.36v-3.12l11.81-13.12c1.75-1.98,2.96-3.6,3.62-4.84s1-2.53,1-3.86c0-1.78-.54-3.24-1.62-4.38s-2.52-1.71-4.31-1.71c-2.16,0-3.83.61-5.03,1.84s-1.79,2.93-1.79,5.12h-4.34c0-3.14,1.01-5.68,3.04-7.62s4.73-2.91,8.12-2.91c3.17,0,5.68.83,7.52,2.5s2.77,3.88,2.77,6.64c0,3.36-2.14,7.36-6.42,12l-9.14,9.91h17.13v3.55Z" fill="#c9d1d9"/>
    <path d="m507.7,201.45c0,5.08-.87,8.85-2.6,11.32s-4.45,3.7-8.13,3.7-6.34-1.21-8.09-3.62-2.66-6.02-2.72-10.82v-5.79c0-5.02.87-8.74,2.6-11.18s4.45-3.66,8.16-3.66,6.38,1.18,8.11,3.53,2.62,5.98,2.67,10.89v5.63Zm-4.34-5.93c0-3.67-.52-6.35-1.55-8.03s-2.66-2.52-4.9-2.52-3.84.84-4.85,2.51-1.54,4.24-1.57,7.71v6.94c0,3.69.54,6.41,1.61,8.17s2.69,2.64,4.86,2.64,3.73-.83,4.77-2.48,1.58-4.27,1.63-7.83v-7.11Z" fill="#c9d1d9"/>
    <path d="m540.61,216h-4.52v-15.77h-17.2v15.77h-4.5v-34.12h4.5v14.67h17.2v-14.67h4.52v34.12Z" fill="#c9d1d9"/>
    <path d="m552,212.46h14.84v3.54h-20.13v-3.19l13.99-18.59h-13.78v-3.59h19.22v3.07l-14.13,18.75-.01.01Z" fill="#c9d1d9"/>
  </g>
  <g>
    <path d="m674.14,216c-.25-.5-.45-1.39-.61-2.67-2.02,2.09-4.42,3.14-7.22,3.14-2.5,0-4.55-.71-6.15-2.12s-2.4-3.21-2.4-5.38c0-2.64,1-4.69,3.01-6.15s4.83-2.19,8.47-2.19h4.22v-1.99c0-1.52-.45-2.72-1.36-3.62s-2.24-1.35-4.01-1.35c-1.55,0-2.84.39-3.89,1.17s-1.57,1.73-1.57,2.84h-4.36c0-1.27.45-2.49,1.35-3.67s2.12-2.11,3.66-2.8,3.23-1.03,5.07-1.03c2.92,0,5.21.73,6.87,2.19s2.52,3.47,2.58,6.04v11.67c0,2.33.3,4.18.89,5.55v.38h-4.55v-.01Zm-7.2-3.3c1.36,0,2.65-.35,3.87-1.05s2.1-1.62,2.65-2.74v-5.2h-3.4c-5.31,0-7.97,1.55-7.97,4.66,0,1.36.45,2.42,1.36,3.19s2.07,1.15,3.49,1.15v-.01Z" fill="#c9d1d9"/>
    <path d="m700.25,213.49c-1.69,1.98-4.16,2.98-7.43,2.98-2.7,0-4.76-.79-6.18-2.36s-2.13-3.89-2.14-6.97v-16.5h4.34v16.38c0,3.84,1.56,5.77,4.69,5.77,3.31,0,5.52-1.23,6.61-3.7v-18.45h4.34v25.36h-4.12l-.09-2.51h-.02Z" fill="#c9d1d9"/>
    <path d="m710,203.11c0-3.89.92-7.02,2.77-9.39s4.26-3.55,7.24-3.55,5.32,1.02,7.05,3.05v-13.22h4.34v36h-3.98l-.21-2.72c-1.73,2.12-4.15,3.19-7.24,3.19s-5.33-1.2-7.18-3.61-2.78-5.55-2.78-9.42v-.33h-.01Zm4.34.49c0,2.88.59,5.12,1.78,6.75s2.83,2.44,4.92,2.44c2.75,0,4.76-1.23,6.02-3.7v-11.65c-1.3-2.39-3.29-3.59-5.98-3.59-2.12,0-3.78.82-4.97,2.46s-1.78,4.07-1.78,7.29h.01Z" fill="#c9d1d9"/>
    <path d="m738.15,183.91c0-.7.21-1.3.64-1.78s1.07-.73,1.91-.73,1.48.24,1.92.73.66,1.08.66,1.78-.22,1.29-.66,1.76-1.08.7-1.92.7-1.48-.23-1.91-.7-.64-1.05-.64-1.76Zm4.69,32.09h-4.34v-25.36h4.34v25.36Z" fill="#c9d1d9"/>
    <path d="m771.24,203.6c0,3.88-.89,6.99-2.67,9.34s-4.17,3.53-7.17,3.53c-3.2,0-5.68-1.13-7.43-3.4l-.21,2.93h-3.98v-36h4.34v13.43c1.75-2.17,4.16-3.26,7.24-3.26s5.5,1.16,7.25,3.49,2.64,5.52,2.64,9.56v.38h-.01Zm-4.34-.49c0-2.95-.57-5.23-1.71-6.84s-2.78-2.41-4.92-2.41c-2.86,0-4.91,1.33-6.16,3.98v10.97c1.33,2.66,3.4,3.98,6.21,3.98,2.08,0,3.7-.8,4.85-2.41s1.73-4.03,1.73-7.27h0Z" fill="#c9d1d9"/>
    <path d="m781.41,216h-4.34v-36h4.34v36Z" fill="#c9d1d9"/>
    <path d="m798.87,216.47c-3.44,0-6.23-1.13-8.39-3.39s-3.23-5.28-3.23-9.06v-.8c0-2.52.48-4.76,1.44-6.74s2.3-3.52,4.03-4.64,3.6-1.68,5.61-1.68c3.3,0,5.86,1.09,7.69,3.26s2.74,5.28,2.74,9.33v1.8h-17.18c.06,2.5.79,4.52,2.19,6.06s3.18,2.31,5.33,2.31c1.53,0,2.83-.31,3.89-.94s1.99-1.45,2.79-2.48l2.65,2.06c-2.12,3.27-5.31,4.9-9.56,4.9v.01Zm-.54-22.73c-1.75,0-3.22.64-4.41,1.91s-1.92,3.06-2.2,5.36h12.7v-.33c-.12-2.2-.72-3.91-1.78-5.12s-2.5-1.82-4.31-1.82Z" fill="#c9d1d9"/>
    <path d="m837.92,194.53c-.66-.11-1.37-.16-2.13-.16-2.84,0-4.77,1.21-5.79,3.63v18h-4.34v-25.36h4.22l.07,2.93c1.42-2.27,3.44-3.4,6.05-3.4.84,0,1.48.11,1.92.33v4.03h0Z" fill="#c9d1d9"/>
    <path d="m856.62,216c-.25-.5-.45-1.39-.61-2.67-2.02,2.09-4.42,3.14-7.22,3.14-2.5,0-4.55-.71-6.15-2.12s-2.4-3.21-2.4-5.38c0-2.64,1-4.69,3.01-6.15s4.83-2.19,8.47-2.19h4.22v-1.99c0-1.52-.45-2.72-1.36-3.62s-2.24-1.35-4.01-1.35c-1.55,0-2.84.39-3.89,1.17s-1.57,1.73-1.57,2.84h-4.36c0-1.27.45-2.49,1.35-3.67s2.12-2.11,3.66-2.8,3.23-1.03,5.07-1.03c2.92,0,5.21.73,6.87,2.19s2.52,3.47,2.58,6.04v11.67c0,2.33.3,4.18.89,5.55v.38h-4.55v-.01Zm-7.2-3.3c1.36,0,2.65-.35,3.87-1.05s2.1-1.62,2.65-2.74v-5.2h-3.4c-5.31,0-7.97,1.55-7.97,4.66,0,1.36.45,2.42,1.36,3.19s2.07,1.15,3.49,1.15v-.01Z" fill="#c9d1d9"/>
    <path d="m871.18,190.64l.14,3.19c1.94-2.44,4.47-3.66,7.59-3.66,5.36,0,8.06,3.02,8.11,9.07v16.76h-4.34v-16.78c-.02-1.83-.43-3.18-1.25-4.05s-2.1-1.31-3.83-1.31c-1.41,0-2.64.38-3.7,1.12s-1.89,1.73-2.48,2.95v18.07h-4.34v-25.36h4.1Z" fill="#c9d1d9"/>
    <path d="m892.53,203.11c0-3.95.91-7.1,2.74-9.43s4.25-3.5,7.27-3.5,5.51,1.09,7.24,3.28l.21-2.81h3.96v24.75c0,3.28-.97,5.87-2.92,7.76s-4.56,2.84-7.84,2.84c-1.83,0-3.62-.39-5.37-1.17s-3.09-1.85-4.01-3.21l2.25-2.6c1.86,2.3,4.13,3.45,6.82,3.45,2.11,0,3.75-.59,4.93-1.78s1.77-2.86,1.77-5.02v-2.18c-1.73,2-4.1,3-7.1,3s-5.37-1.2-7.21-3.59-2.75-5.65-2.75-9.77l.01-.02Zm4.36.49c0,2.86.59,5.11,1.76,6.74s2.81,2.45,4.92,2.45c2.73,0,4.74-1.24,6.02-3.73v-11.58c-1.33-2.42-3.32-3.63-5.98-3.63-2.11,0-3.76.82-4.95,2.46s-1.78,4.07-1.78,7.29h.01Z" fill="#c9d1d9"/>
    <path d="m931.01,216.47c-3.44,0-6.23-1.13-8.39-3.39s-3.23-5.28-3.23-9.06v-.8c0-2.52.48-4.76,1.44-6.74s2.3-3.52,4.03-4.64,3.6-1.68,5.61-1.68c3.3,0,5.86,1.09,7.69,3.26s2.74,5.28,2.74,9.33v1.8h-17.18c.06,2.5.79,4.52,2.19,6.06s3.18,2.31,5.33,2.31c1.53,0,2.83-.31,3.89-.94s1.99-1.45,2.79-2.48l2.65,2.06c-2.12,3.27-5.31,4.9-9.56,4.9v.01Zm-.54-22.73c-1.75,0-3.22.64-4.41,1.91s-1.92,3.06-2.2,5.36h12.7v-.33c-.12-2.2-.72-3.91-1.78-5.12s-2.5-1.82-4.31-1.82Z" fill="#c9d1d9"/>
  </g>
  <g>
    <path d="m1098.94,213.49c-1.69,1.98-4.16,2.98-7.43,2.98-2.7,0-4.76-.79-6.18-2.36s-2.13-3.89-2.14-6.97v-16.5h4.34v16.38c0,3.84,1.56,5.77,4.69,5.77,3.31,0,5.52-1.23,6.61-3.7v-18.45h4.34v25.36h-4.12l-.09-2.51h-.02Z" fill="#c9d1d9"/>
    <path d="m1114.45,216h-4.34v-36h4.34v36Z" fill="#c9d1d9"/>
    <path d="m1127.27,184.5v6.14h4.73v3.35h-4.73v15.75c0,1.02.21,1.78.63,2.29s1.14.76,2.16.76c.5,0,1.19-.09,2.06-.28v3.5c-1.14.31-2.25.47-3.33.47-1.94,0-3.4-.59-4.38-1.76s-1.48-2.84-1.48-4.99v-15.73h-4.62v-3.35h4.62v-6.14h4.34v-.01Z" fill="#c9d1d9"/>
    <path d="m1149.33,194.53c-.66-.11-1.37-.16-2.13-.16-2.84,0-4.77,1.21-5.79,3.63v18h-4.34v-25.36h4.22l.07,2.93c1.42-2.27,3.44-3.4,6.05-3.4.84,0,1.48.11,1.92.33v4.03Z" fill="#c9d1d9"/>
    <path d="m1168.03,216c-.25-.5-.45-1.39-.61-2.67-2.02,2.09-4.42,3.14-7.22,3.14-2.5,0-4.55-.71-6.15-2.12s-2.4-3.21-2.4-5.38c0-2.64,1-4.69,3.01-6.15s4.83-2.19,8.47-2.19h4.22v-1.99c0-1.52-.45-2.72-1.36-3.62s-2.24-1.35-4.01-1.35c-1.55,0-2.84.39-3.89,1.17s-1.57,1.73-1.57,2.84h-4.36c0-1.27.45-2.49,1.35-3.67s2.12-2.11,3.66-2.8,3.23-1.03,5.07-1.03c2.92,0,5.21.73,6.87,2.19s2.52,3.47,2.58,6.04v11.67c0,2.33.3,4.18.89,5.55v.38h-4.55v-.01Zm-7.2-3.3c1.36,0,2.65-.35,3.87-1.05s2.1-1.62,2.65-2.74v-5.2h-3.4c-5.31,0-7.97,1.55-7.97,4.66,0,1.36.45,2.42,1.36,3.19s2.07,1.15,3.49,1.15v-.01Z" fill="#c9d1d9"/>
    <path d="m1193.25,209.27c0-1.17-.44-2.08-1.32-2.73s-2.42-1.21-4.62-1.68-3.94-1.03-5.23-1.69-2.24-1.44-2.86-2.34-.93-1.98-.93-3.23c0-2.08.88-3.84,2.64-5.27s4-2.16,6.74-2.16c2.88,0,5.21.74,7,2.23s2.68,3.38,2.68,5.7h-4.36c0-1.19-.5-2.21-1.51-3.07s-2.28-1.29-3.81-1.29-2.81.34-3.7,1.03-1.34,1.59-1.34,2.7c0,1.05.41,1.84,1.24,2.37s2.32,1.04,4.49,1.52,3.92,1.06,5.26,1.73,2.34,1.48,2.99,2.43.97,2.1.97,3.46c0,2.27-.91,4.08-2.72,5.45s-4.16,2.05-7.05,2.05c-2.03,0-3.83-.36-5.39-1.08s-2.79-1.72-3.67-3.01-1.32-2.68-1.32-4.18h4.34c.08,1.45.66,2.61,1.75,3.46s2.52,1.28,4.3,1.28c1.64,0,2.96-.33,3.95-1s1.49-1.55,1.49-2.66l-.01-.02Z" fill="#c9d1d9"/>
    <path d="m1202.09,203.09c0-2.48.49-4.72,1.46-6.7s2.34-3.52,4.08-4.59,3.73-1.62,5.96-1.62c3.45,0,6.25,1.2,8.38,3.59s3.2,5.57,3.2,9.54v.3c0,2.47-.47,4.68-1.42,6.64s-2.3,3.49-4.05,4.58-3.78,1.64-6.06,1.64c-3.44,0-6.22-1.2-8.36-3.59s-3.2-5.55-3.2-9.49v-.3h.01Zm4.36.52c0,2.81.65,5.07,1.96,6.77s3.05,2.55,5.24,2.55,3.95-.86,5.25-2.59,1.95-4.14,1.95-7.25c0-2.78-.66-5.04-1.98-6.76s-3.07-2.59-5.26-2.59-3.87.85-5.18,2.55-1.97,4.14-1.97,7.31l-.01.01Z" fill="#c9d1d9"/>
    <path d="m1246.27,213.49c-1.69,1.98-4.16,2.98-7.43,2.98-2.7,0-4.76-.79-6.18-2.36s-2.13-3.89-2.14-6.97v-16.5h4.34v16.38c0,3.84,1.56,5.77,4.69,5.77,3.31,0,5.52-1.23,6.61-3.7v-18.45h4.34v25.36h-4.12l-.09-2.51h-.02Z" fill="#c9d1d9"/>
    <path d="m1261.17,190.64l.14,3.19c1.94-2.44,4.47-3.66,7.59-3.66,5.36,0,8.06,3.02,8.11,9.07v16.76h-4.34v-16.78c-.02-1.83-.43-3.18-1.25-4.05s-2.1-1.31-3.83-1.31c-1.41,0-2.64.38-3.7,1.12s-1.89,1.73-2.48,2.95v18.07h-4.34v-25.36h4.1,0Z" fill="#c9d1d9"/>
    <path d="m1282.5,203.11c0-3.89.92-7.02,2.77-9.39s4.26-3.55,7.24-3.55,5.32,1.02,7.05,3.05v-13.22h4.34v36h-3.98l-.21-2.72c-1.73,2.12-4.15,3.19-7.24,3.19s-5.33-1.2-7.18-3.61-2.78-5.55-2.78-9.42v-.33h-.01Zm4.34.49c0,2.88.59,5.12,1.78,6.75s2.83,2.44,4.92,2.44c2.75,0,4.76-1.23,6.02-3.7v-11.65c-1.3-2.39-3.29-3.59-5.98-3.59-2.12,0-3.78.82-4.97,2.46s-1.78,4.07-1.78,7.29h.01Z" fill="#c9d1d9"/>
    <path d="m1337.86,200.77l-15.49-6.07v-4.45l20.02,8.86v3.42l-20.02,8.88v-4.5l15.49-6.14Z" fill="#c9d1d9"/>
    <path d="m1369.5,216h-22.36v-3.12l11.81-13.12c1.75-1.98,2.96-3.6,3.62-4.84s1-2.53,1-3.86c0-1.78-.54-3.24-1.62-4.38s-2.52-1.71-4.31-1.71c-2.16,0-3.83.61-5.03,1.84s-1.79,2.93-1.79,5.12h-4.34c0-3.14,1.01-5.68,3.04-7.62s4.73-2.91,8.12-2.91c3.17,0,5.68.83,7.52,2.5s2.77,3.88,2.77,6.64c0,3.36-2.14,7.36-6.42,12l-9.14,9.91h17.13v3.55Z" fill="#c9d1d9"/>
    <path d="m1395.49,201.45c0,5.08-.87,8.85-2.6,11.32s-4.45,3.7-8.13,3.7-6.34-1.21-8.09-3.62-2.66-6.02-2.72-10.82v-5.79c0-5.02.87-8.74,2.6-11.18s4.45-3.66,8.16-3.66,6.38,1.18,8.11,3.53,2.62,5.98,2.67,10.89v5.63Zm-4.34-5.93c0-3.67-.52-6.35-1.55-8.03s-2.66-2.52-4.9-2.52-3.84.84-4.85,2.51-1.54,4.24-1.57,7.71v6.94c0,3.69.54,6.41,1.61,8.17s2.69,2.64,4.86,2.64,3.73-.83,4.77-2.48,1.58-4.27,1.63-7.83v-7.11Z" fill="#c9d1d9"/>
    <path d="m1408.57,204.26l-2.72,2.84v8.91h-4.34v-36h4.34v21.77l2.32-2.79,7.9-8.34h5.27l-9.87,10.59,11.02,14.77h-5.09l-8.84-11.74.01-.01Z" fill="#c9d1d9"/>
    <path d="m1452.73,216h-4.52v-15.77h-17.2v15.77h-4.5v-34.12h4.5v14.67h17.2v-14.67h4.52v34.12Z" fill="#c9d1d9"/>
    <path d="m1464.12,212.46h14.84v3.54h-20.13v-3.19l13.99-18.59h-13.78v-3.59h19.22v3.07l-14.13,18.75-.01.01Z" fill="#c9d1d9"/>
  </g>
  <g>
    <path d="m437.99,43.2h-3.25v-27h3.25v27Z" fill="#c9d1d9"/>
    <path d="m442.34,33.51c0-1.86.37-3.54,1.1-5.03s1.75-2.64,3.06-3.45,2.8-1.21,4.47-1.21c2.59,0,4.68.9,6.28,2.69s2.4,4.18,2.4,7.15v.23c0,1.85-.35,3.51-1.06,4.98s-1.72,2.62-3.04,3.44-2.83,1.23-4.54,1.23c-2.58,0-4.67-.9-6.27-2.69s-2.4-4.17-2.4-7.12v-.23.01Zm3.27.39c0,2.11.49,3.8,1.47,5.08s2.29,1.92,3.93,1.92,2.96-.65,3.94-1.94,1.46-3.11,1.46-5.44c0-2.09-.5-3.78-1.49-5.07s-2.31-1.94-3.95-1.94-2.9.64-3.88,1.92-1.48,3.11-1.48,5.48v-.01Z" fill="#c9d1d9"/>
    <path d="m480.57,38.72l3.66-14.54h3.25l-5.54,19.02h-2.64l-4.62-14.41-4.5,14.41h-2.64l-5.52-19.02h3.23l3.74,14.24,4.43-14.24h2.62l4.52,14.54h.01Z" fill="#c9d1d9"/>
    <path d="m515.79,33.9c0,2.91-.67,5.24-2,7s-3.13,2.65-5.38,2.65c-2.4,0-4.26-.85-5.57-2.55l-.16,2.2h-2.99v-27h3.25v10.07c1.31-1.63,3.12-2.44,5.43-2.44s4.12.87,5.44,2.62,1.98,4.14,1.98,7.17v.28h0Zm-3.25-.37c0-2.21-.43-3.93-1.28-5.13s-2.09-1.81-3.69-1.81c-2.14,0-3.69,1-4.62,2.99v8.23c1,1.99,2.55,2.99,4.66,2.99,1.56,0,2.77-.6,3.64-1.81.87-1.21,1.3-3.02,1.3-5.45l-.01-.01Z" fill="#c9d1d9"/>
    <path d="m531.63,43.2c-.19-.38-.34-1.04-.46-2-1.51,1.57-3.32,2.36-5.41,2.36-1.88,0-3.41-.53-4.61-1.59s-1.8-2.41-1.8-4.03c0-1.98.75-3.52,2.26-4.61s3.62-1.64,6.35-1.64h3.16v-1.49c0-1.14-.34-2.04-1.02-2.72s-1.68-1.01-3.01-1.01c-1.16,0-2.13.29-2.92.88s-1.18,1.29-1.18,2.13h-3.27c0-.95.34-1.87,1.01-2.75s1.59-1.58,2.74-2.1,2.42-.77,3.81-.77c2.19,0,3.91.55,5.15,1.64s1.89,2.6,1.93,4.53v8.75c0,1.75.22,3.13.67,4.17v.28h-3.41l.01-.03Zm-5.4-2.48c1.02,0,1.99-.26,2.9-.79s1.58-1.21,1.99-2.06v-3.9h-2.55c-3.98,0-5.98,1.17-5.98,3.5,0,1.02.34,1.82,1.02,2.39s1.55.86,2.62.86h0Z" fill="#c9d1d9"/>
    <path d="m550.55,38.15c0-.88-.33-1.56-.99-2.05s-1.82-.91-3.46-1.26-2.95-.77-3.92-1.27-1.68-1.08-2.14-1.76-.69-1.49-.69-2.43c0-1.56.66-2.88,1.98-3.96s3-1.62,5.05-1.62c2.16,0,3.91.56,5.25,1.67s2.01,2.54,2.01,4.27h-3.27c0-.89-.38-1.66-1.13-2.3s-1.71-.97-2.86-.97-2.11.26-2.78.77-1,1.19-1,2.02c0,.79.31,1.38.93,1.78s1.74.78,3.37,1.14c1.63.36,2.94.8,3.95,1.3s1.75,1.11,2.24,1.82.73,1.57.73,2.59c0,1.7-.68,3.06-2.04,4.09s-3.12,1.54-5.29,1.54c-1.52,0-2.87-.27-4.04-.81s-2.09-1.29-2.75-2.26-.99-2.01-.99-3.14h3.25c.06,1.09.5,1.95,1.31,2.59s1.89.96,3.23.96c1.23,0,2.22-.25,2.96-.75s1.12-1.16,1.12-2l-.03.04Z" fill="#c9d1d9"/>
    <path d="m569.11,38.15c0-.88-.33-1.56-.99-2.05s-1.82-.91-3.46-1.26-2.95-.77-3.92-1.27-1.68-1.08-2.14-1.76-.69-1.49-.69-2.43c0-1.56.66-2.88,1.98-3.96s3-1.62,5.05-1.62c2.16,0,3.91.56,5.25,1.67s2.01,2.54,2.01,4.27h-3.27c0-.89-.38-1.66-1.13-2.3s-1.71-.97-2.86-.97-2.11.26-2.78.77-1,1.19-1,2.02c0,.79.31,1.38.93,1.78s1.74.78,3.37,1.14c1.63.36,2.94.8,3.95,1.3s1.75,1.11,2.24,1.82.73,1.57.73,2.59c0,1.7-.68,3.06-2.04,4.09s-3.12,1.54-5.29,1.54c-1.52,0-2.87-.27-4.04-.81s-2.09-1.29-2.75-2.26-.99-2.01-.99-3.14h3.25c.06,1.09.5,1.95,1.31,2.59s1.89.96,3.23.96c1.23,0,2.22-.25,2.96-.75s1.12-1.16,1.12-2l-.03.04Z" fill="#c9d1d9"/>
  </g>
  <g>
    <path d="m1015,43.2c-.19-.38-.34-1.04-.46-2-1.51,1.57-3.32,2.36-5.41,2.36-1.88,0-3.41-.53-4.61-1.59s-1.8-2.41-1.8-4.03c0-1.98.75-3.52,2.26-4.61s3.62-1.64,6.35-1.64h3.16v-1.49c0-1.14-.34-2.04-1.02-2.72s-1.68-1.01-3.01-1.01c-1.16,0-2.13.29-2.92.88s-1.18,1.29-1.18,2.13h-3.27c0-.95.34-1.87,1.01-2.75s1.59-1.58,2.74-2.1,2.42-.77,3.81-.77c2.19,0,3.91.55,5.15,1.64s1.89,2.6,1.93,4.53v8.75c0,1.75.22,3.13.67,4.17v.28h-3.41l.01-.03Zm-5.4-2.48c1.02,0,1.99-.26,2.9-.79s1.58-1.21,1.99-2.06v-3.9h-2.55c-3.98,0-5.98,1.17-5.98,3.5,0,1.02.34,1.82,1.02,2.39s1.55.86,2.62.86h0Z" fill="#c9d1d9"/>
    <path d="m1025.92,24.18l.11,2.39c1.45-1.83,3.35-2.74,5.7-2.74,4.02,0,6.05,2.27,6.08,6.8v12.57h-3.25v-12.59c-.01-1.37-.33-2.38-.94-3.04s-1.57-.98-2.87-.98c-1.05,0-1.98.28-2.78.84s-1.42,1.3-1.86,2.21v13.55h-3.25v-19.02h3.08l-.02.01Z" fill="#c9d1d9"/>
    <path d="m1042.72,19.14c0-.53.16-.97.48-1.34s.8-.54,1.43-.54,1.11.18,1.44.54.49.81.49,1.34-.16.97-.49,1.32-.81.53-1.44.53-1.11-.18-1.43-.53-.48-.79-.48-1.32Zm3.52,24.06h-3.25v-19.02h3.25v19.02Z" fill="#c9d1d9"/>
    <path d="m1054.5,24.18l.09,2.11c1.39-1.64,3.28-2.46,5.64-2.46,2.66,0,4.47,1.02,5.43,3.06.63-.91,1.46-1.65,2.47-2.21s2.21-.84,3.59-.84c4.17,0,6.29,2.21,6.36,6.63v12.74h-3.25v-12.55c0-1.36-.31-2.38-.93-3.05s-1.66-1.01-3.13-1.01c-1.21,0-2.21.36-3.01,1.08s-1.26,1.69-1.39,2.91v12.62h-3.27v-12.46c0-2.77-1.35-4.15-4.06-4.15-2.13,0-3.59.91-4.38,2.72v13.89h-3.25v-19.02h3.08l.01-.01Z" fill="#c9d1d9"/>
    <path d="m1094.74,43.2c-.19-.38-.34-1.04-.46-2-1.51,1.57-3.32,2.36-5.41,2.36-1.88,0-3.41-.53-4.61-1.59s-1.8-2.41-1.8-4.03c0-1.98.75-3.52,2.26-4.61s3.62-1.64,6.35-1.64h3.16v-1.49c0-1.14-.34-2.04-1.02-2.72s-1.68-1.01-3.01-1.01c-1.16,0-2.13.29-2.92.88s-1.18,1.29-1.18,2.13h-3.27c0-.95.34-1.87,1.01-2.75s1.59-1.58,2.74-2.1,2.42-.77,3.81-.77c2.19,0,3.91.55,5.15,1.64s1.89,2.6,1.93,4.53v8.75c0,1.75.22,3.13.67,4.17v.28h-3.41l.01-.03Zm-5.4-2.48c1.02,0,1.99-.26,2.9-.79s1.58-1.21,1.99-2.06v-3.9h-2.55c-3.98,0-5.98,1.17-5.98,3.5,0,1.02.34,1.82,1.02,2.39s1.55.86,2.62.86Z" fill="#c9d1d9"/>
    <path d="m1106.11,43.2h-3.25v-27h3.25v27Z" fill="#c9d1d9"/>
    <path d="m1122.39,38.15c0-.88-.33-1.56-.99-2.05s-1.82-.91-3.46-1.26-2.95-.77-3.92-1.27-1.68-1.08-2.14-1.76-.69-1.49-.69-2.43c0-1.56.66-2.88,1.98-3.96s3-1.62,5.05-1.62c2.16,0,3.91.56,5.25,1.67s2.01,2.54,2.01,4.27h-3.27c0-.89-.38-1.66-1.13-2.3s-1.71-.97-2.86-.97-2.11.26-2.78.77-1,1.19-1,2.02c0,.79.31,1.38.93,1.78s1.74.78,3.37,1.14c1.63.36,2.94.8,3.95,1.3s1.75,1.11,2.24,1.82.73,1.57.73,2.59c0,1.7-.68,3.06-2.04,4.09s-3.12,1.54-5.29,1.54c-1.52,0-2.87-.27-4.04-.81s-2.09-1.29-2.75-2.26-.99-2.01-.99-3.14h3.25c.06,1.09.5,1.95,1.31,2.59s1.89.96,3.23.96c1.23,0,2.22-.25,2.96-.75s1.12-1.16,1.12-2l-.03.04Z" fill="#c9d1d9"/>
    <path d="m1139.44,45.4h-2.79l10.69-27.79h2.78l-10.67,27.79h-.01Z" fill="#c9d1d9"/>
    <path d="m1010.89,84.1c1.16,0,2.17-.35,3.04-1.05s1.35-1.58,1.44-2.64h3.08c-.06,1.09-.43,2.13-1.12,3.11s-1.61,1.77-2.77,2.36-2.38.88-3.67.88c-2.59,0-4.65-.86-6.18-2.59s-2.29-4.09-2.29-7.09v-.54c0-1.85.34-3.5,1.02-4.94s1.66-2.56,2.93-3.36,2.77-1.2,4.51-1.2c2.13,0,3.91.64,5.32,1.92s2.17,2.94,2.26,4.97h-3.08c-.09-1.23-.56-2.24-1.4-3.03s-1.87-1.19-3.1-1.19c-1.65,0-2.93.59-3.84,1.78s-1.36,2.91-1.36,5.16v.62c0,2.19.45,3.88,1.35,5.06s2.19,1.78,3.87,1.78l-.01-.01Z" fill="#c9d1d9"/>
    <path d="m1025.36,69.68c1.44-1.77,3.32-2.65,5.62-2.65,4.02,0,6.05,2.27,6.08,6.8v12.57h-3.25v-12.59c-.01-1.37-.33-2.38-.94-3.04s-1.57-.98-2.87-.98c-1.05,0-1.98.28-2.78.84s-1.42,1.3-1.86,2.21v13.55h-3.25v-27h3.25v10.29Z" fill="#c9d1d9"/>
    <path d="m1049.83,86.75c-2.58,0-4.68-.85-6.29-2.54s-2.43-3.96-2.43-6.79v-.6c0-1.89.36-3.57,1.08-5.05s1.73-2.64,3.02-3.48,2.7-1.26,4.21-1.26c2.47,0,4.39.81,5.77,2.44s2.06,3.96,2.06,7v1.35h-12.88c.05,1.88.59,3.39,1.64,4.54s2.38,1.73,4,1.73c1.15,0,2.12-.23,2.92-.7s1.49-1.09,2.09-1.86l1.99,1.55c-1.59,2.45-3.98,3.67-7.17,3.67h-.01Zm-.4-17.05c-1.31,0-2.41.48-3.3,1.43s-1.44,2.29-1.65,4.02h9.53v-.25c-.09-1.65-.54-2.93-1.34-3.84s-1.88-1.36-3.23-1.36h-.01Z" fill="#c9d1d9"/>
    <path d="m1064.06,67.38l.09,2.11c1.39-1.64,3.28-2.46,5.64-2.46,2.66,0,4.47,1.02,5.43,3.06.63-.91,1.46-1.65,2.47-2.21s2.21-.84,3.59-.84c4.17,0,6.29,2.21,6.36,6.63v12.74h-3.25v-12.55c0-1.36-.31-2.38-.93-3.05s-1.66-1.01-3.13-1.01c-1.21,0-2.21.36-3.01,1.08s-1.26,1.69-1.39,2.91v12.62h-3.27v-12.46c0-2.77-1.35-4.15-4.06-4.15-2.13,0-3.59.91-4.38,2.72v13.89h-3.25v-19.02h3.08l.01-.01Z" fill="#c9d1d9"/>
    <path d="m1092.58,62.34c0-.53.16-.97.48-1.34s.8-.54,1.43-.54,1.11.18,1.44.54.49.81.49,1.34-.16.97-.49,1.32c-.33.35-.81.53-1.44.53s-1.11-.18-1.43-.53-.48-.79-.48-1.32Zm3.52,24.06h-3.25v-19.02h3.25s0,19.02,0,19.02Z" fill="#c9d1d9"/>
    <path d="m1112.37,81.36c0-.88-.33-1.56-.99-2.05s-1.82-.91-3.46-1.26-2.95-.77-3.92-1.27-1.68-1.08-2.14-1.76-.69-1.49-.69-2.43c0-1.56.66-2.88,1.98-3.96s3-1.62,5.05-1.62c2.16,0,3.91.56,5.25,1.67s2.01,2.54,2.01,4.27h-3.27c0-.89-.38-1.66-1.13-2.3s-1.71-.97-2.86-.97-2.11.26-2.78.77-1,1.19-1,2.02c0,.79.31,1.38.93,1.78s1.74.78,3.37,1.14,2.94.8,3.95,1.3,1.75,1.11,2.24,1.82.73,1.57.73,2.59c0,1.7-.68,3.06-2.04,4.09s-3.12,1.54-5.29,1.54c-1.52,0-2.87-.27-4.04-.81s-2.09-1.29-2.75-2.26-.99-2.01-.99-3.14h3.25c.06,1.09.5,1.95,1.31,2.59s1.89.96,3.23.96c1.23,0,2.22-.25,2.96-.75s1.12-1.16,1.12-2l-.03.04Z" fill="#c9d1d9"/>
    <path d="m1124.27,62.78v4.61h3.55v2.51h-3.55v11.81c0,.76.16,1.33.47,1.72s.86.57,1.62.57c.38,0,.89-.07,1.55-.21v2.62c-.86.23-1.69.35-2.5.35-1.45,0-2.55-.44-3.29-1.32s-1.11-2.13-1.11-3.74v-11.79h-3.46v-2.51h3.46v-4.61h3.25l.01-.01Z" fill="#c9d1d9"/>
    <path d="m1140.81,70.3c-.49-.08-1.03-.12-1.6-.12-2.13,0-3.58.91-4.34,2.72v13.5h-3.25v-19.02h3.16l.05,2.2c1.07-1.7,2.58-2.55,4.54-2.55.63,0,1.11.08,1.44.25v3.02h0Z" fill="#c9d1d9"/>
    <path d="m1150.34,81.64l4.43-14.26h3.48l-7.65,21.96c-1.18,3.16-3.06,4.75-5.64,4.75l-.62-.05-1.21-.23v-2.64l.88.07c1.1,0,1.96-.22,2.58-.67s1.12-1.26,1.52-2.44l.72-1.93-6.79-18.81h3.55l4.75,14.26v-.01Z" fill="#c9d1d9"/>
  </g>
  <g>
    <path d="m1186.32,24.18l.09,2.11c1.39-1.64,3.28-2.46,5.64-2.46,2.66,0,4.47,1.02,5.43,3.06.63-.91,1.46-1.65,2.47-2.21s2.21-.84,3.59-.84c4.17,0,6.29,2.21,6.36,6.63v12.74h-3.25v-12.55c0-1.36-.31-2.38-.93-3.05s-1.66-1.01-3.13-1.01c-1.21,0-2.21.36-3.01,1.08s-1.26,1.69-1.39,2.91v12.62h-3.27v-12.46c0-2.77-1.35-4.15-4.06-4.15-2.13,0-3.59.91-4.38,2.72v13.89h-3.25v-19.02h3.08l.01-.01Z" fill="#c9d1d9"/>
    <path d="m1222.71,43.55c-2.58,0-4.68-.85-6.29-2.54s-2.43-3.96-2.43-6.79v-.6c0-1.89.36-3.57,1.08-5.05s1.73-2.64,3.02-3.48,2.7-1.26,4.21-1.26c2.47,0,4.39.81,5.77,2.44s2.06,3.96,2.06,7v1.35h-12.88c.05,1.88.59,3.39,1.64,4.54s2.38,1.73,4,1.73c1.15,0,2.12-.23,2.92-.7s1.49-1.09,2.09-1.86l1.99,1.55c-1.59,2.45-3.98,3.67-7.17,3.67h-.01Zm-.4-17.05c-1.31,0-2.41.48-3.3,1.43s-1.44,2.29-1.65,4.02h9.53v-.25c-.09-1.65-.54-2.93-1.34-3.84s-1.88-1.36-3.23-1.36h-.01Z" fill="#c9d1d9"/>
    <path d="m1233.09,33.53c0-2.92.69-5.26,2.07-7.04s3.19-2.66,5.43-2.66,3.99.76,5.29,2.29v-9.91h3.25v27h-2.99l-.16-2.04c-1.3,1.59-3.11,2.39-5.43,2.39s-4-.9-5.39-2.71-2.08-4.16-2.08-7.07v-.25h.01Zm3.25.37c0,2.16.45,3.84,1.34,5.06s2.12,1.83,3.69,1.83c2.06,0,3.57-.93,4.52-2.78v-8.74c-.97-1.79-2.47-2.69-4.48-2.69-1.59,0-2.84.62-3.73,1.85s-1.34,3.05-1.34,5.47Z" fill="#c9d1d9"/>
    <path d="m1254.21,19.14c0-.53.16-.97.48-1.34s.8-.54,1.43-.54,1.11.18,1.44.54.49.81.49,1.34-.16.97-.49,1.32-.81.53-1.44.53-1.11-.18-1.43-.53-.48-.79-.48-1.32Zm3.52,24.06h-3.25v-19.02h3.25v19.02Z" fill="#c9d1d9"/>
    <path d="m1270.55,40.9c1.16,0,2.17-.35,3.04-1.05s1.35-1.58,1.44-2.64h3.08c-.06,1.09-.43,2.13-1.12,3.11s-1.61,1.77-2.77,2.36-2.38.88-3.67.88c-2.59,0-4.65-.86-6.18-2.59s-2.29-4.09-2.29-7.09v-.54c0-1.85.34-3.5,1.02-4.94s1.66-2.56,2.93-3.36,2.77-1.2,4.51-1.2c2.13,0,3.91.64,5.32,1.92s2.17,2.94,2.26,4.97h-3.08c-.09-1.23-.56-2.24-1.4-3.03s-1.87-1.19-3.1-1.19c-1.65,0-2.93.59-3.84,1.78s-1.36,2.91-1.36,5.16v.62c0,2.19.45,3.88,1.35,5.06s2.19,1.78,3.87,1.78l-.01-.01Z" fill="#c9d1d9"/>
    <path d="m1293.51,43.2c-.19-.38-.34-1.04-.46-2-1.51,1.57-3.32,2.36-5.41,2.36-1.88,0-3.41-.53-4.61-1.59s-1.8-2.41-1.8-4.03c0-1.98.75-3.52,2.26-4.61s3.62-1.64,6.35-1.64h3.16v-1.49c0-1.14-.34-2.04-1.02-2.72s-1.68-1.01-3.01-1.01c-1.16,0-2.13.29-2.92.88s-1.18,1.29-1.18,2.13h-3.27c0-.95.34-1.87,1.01-2.75s1.59-1.58,2.74-2.1,2.42-.77,3.81-.77c2.19,0,3.91.55,5.15,1.64s1.89,2.6,1.93,4.53v8.75c0,1.75.22,3.13.67,4.17v.28h-3.41l.01-.03Zm-5.4-2.48c1.02,0,1.99-.26,2.9-.79s1.58-1.21,1.99-2.06v-3.9h-2.55c-3.98,0-5.98,1.17-5.98,3.5,0,1.02.34,1.82,1.02,2.39s1.55.86,2.62.86Z" fill="#c9d1d9"/>
    <path d="m1304.88,43.2h-3.25v-27h3.25v27Z" fill="#c9d1d9"/>
    <path d="m1319.65,45.4h-2.79l10.69-27.79h2.78l-10.67,27.79h-.01Z" fill="#c9d1d9"/>
    <path d="m1182.47,76.73c0-2.92.69-5.26,2.07-7.04s3.19-2.66,5.43-2.66,3.99.76,5.29,2.29v-9.91h3.25v27h-2.99l-.16-2.04c-1.3,1.59-3.11,2.39-5.43,2.39s-4-.9-5.39-2.71-2.08-4.16-2.08-7.07v-.25h.01Zm3.25.37c0,2.16.45,3.84,1.34,5.06s2.12,1.83,3.69,1.83c2.06,0,3.57-.93,4.52-2.78v-8.74c-.97-1.79-2.47-2.69-4.48-2.69-1.59,0-2.84.62-3.73,1.85s-1.34,3.05-1.34,5.47Z" fill="#c9d1d9"/>
    <path d="m1211.46,86.75c-2.58,0-4.68-.85-6.29-2.54s-2.43-3.96-2.43-6.79v-.6c0-1.89.36-3.57,1.08-5.05s1.73-2.64,3.02-3.48,2.7-1.26,4.21-1.26c2.47,0,4.39.81,5.77,2.44s2.06,3.96,2.06,7v1.35h-12.88c.05,1.88.59,3.39,1.64,4.54s2.38,1.73,4,1.73c1.15,0,2.12-.23,2.92-.7s1.49-1.09,2.09-1.86l1.99,1.55c-1.59,2.45-3.98,3.67-7.17,3.67h-.01Zm-.4-17.05c-1.31,0-2.41.48-3.3,1.43s-1.44,2.29-1.65,4.02h9.53v-.25c-.09-1.65-.54-2.93-1.34-3.84s-1.88-1.36-3.23-1.36h-.01Z" fill="#c9d1d9"/>
    <path d="m1233.71,81.36c0-.88-.33-1.56-.99-2.05s-1.82-.91-3.46-1.26-2.95-.77-3.92-1.27-1.68-1.08-2.14-1.76-.69-1.49-.69-2.43c0-1.56.66-2.88,1.98-3.96s3-1.62,5.05-1.62c2.16,0,3.91.56,5.25,1.67s2.01,2.54,2.01,4.27h-3.27c0-.89-.38-1.66-1.13-2.3s-1.71-.97-2.86-.97-2.11.26-2.78.77-1,1.19-1,2.02c0,.79.31,1.38.93,1.78s1.74.78,3.37,1.14,2.94.8,3.95,1.3,1.75,1.11,2.24,1.82.73,1.57.73,2.59c0,1.7-.68,3.06-2.04,4.09s-3.12,1.54-5.29,1.54c-1.52,0-2.87-.27-4.04-.81s-2.09-1.29-2.75-2.26-.99-2.01-.99-3.14h3.25c.06,1.09.5,1.95,1.31,2.59s1.89.96,3.23.96c1.23,0,2.22-.25,2.96-.75s1.12-1.16,1.12-2l-.03.04Z" fill="#c9d1d9"/>
    <path d="m1245.61,62.78v4.61h3.55v2.51h-3.55v11.81c0,.76.16,1.33.47,1.72s.86.57,1.62.57c.38,0,.89-.07,1.55-.21v2.62c-.86.23-1.69.35-2.5.35-1.45,0-2.55-.44-3.29-1.32s-1.11-2.13-1.11-3.74v-11.79h-3.46v-2.51h3.46v-4.61h3.25l.01-.01Z" fill="#c9d1d9"/>
    <path d="m1262.15,70.3c-.49-.08-1.03-.12-1.6-.12-2.13,0-3.58.91-4.34,2.72v13.5h-3.25v-19.02h3.16l.05,2.2c1.07-1.7,2.58-2.55,4.54-2.55.63,0,1.11.08,1.44.25v3.02h0Z" fill="#c9d1d9"/>
    <path d="m1276.88,84.52c-1.27,1.49-3.12,2.23-5.57,2.23-2.03,0-3.57-.59-4.63-1.77s-1.6-2.92-1.61-5.23v-12.38h3.25v12.29c0,2.88,1.17,4.32,3.52,4.32,2.48,0,4.14-.93,4.96-2.78v-13.83h3.25v19.02h-3.09l-.07-1.88-.01.01Z" fill="#c9d1d9"/>
    <path d="m1292.61,84.1c1.16,0,2.17-.35,3.04-1.05s1.35-1.58,1.44-2.64h3.08c-.06,1.09-.43,2.13-1.12,3.11s-1.61,1.77-2.77,2.36-2.38.88-3.67.88c-2.59,0-4.65-.86-6.18-2.59s-2.29-4.09-2.29-7.09v-.54c0-1.85.34-3.5,1.02-4.94s1.66-2.56,2.93-3.36,2.77-1.2,4.51-1.2c2.13,0,3.91.64,5.32,1.92s2.17,2.94,2.26,4.97h-3.08c-.09-1.23-.56-2.24-1.4-3.03s-1.87-1.19-3.1-1.19c-1.65,0-2.93.59-3.84,1.78s-1.36,2.91-1.36,5.16v.62c0,2.19.45,3.88,1.35,5.06s2.19,1.78,3.87,1.78l-.01-.01Z" fill="#c9d1d9"/>
    <path d="m1308.24,62.78v4.61h3.55v2.51h-3.55v11.81c0,.76.16,1.33.47,1.72s.86.57,1.62.57c.38,0,.89-.07,1.55-.21v2.62c-.86.23-1.69.35-2.5.35-1.45,0-2.55-.44-3.29-1.32s-1.11-2.13-1.11-3.74v-11.79h-3.46v-2.51h3.46v-4.61h3.25l.01-.01Z" fill="#c9d1d9"/>
    <path d="m1315.61,62.34c0-.53.16-.97.48-1.34s.8-.54,1.43-.54,1.11.18,1.44.54.49.81.49,1.34-.16.97-.49,1.32c-.33.35-.81.53-1.44.53s-1.11-.18-1.43-.53-.48-.79-.48-1.32Zm3.52,24.06h-3.25v-19.02h3.25s0,19.02,0,19.02Z" fill="#c9d1d9"/>
    <path d="m1330.6,81.99l4.71-14.61h3.32l-6.82,19.02h-2.48l-6.89-19.02h3.32l4.83,14.61h.01Z" fill="#c9d1d9"/>
    <path d="m1349.43,86.75c-2.58,0-4.68-.85-6.29-2.54s-2.43-3.96-2.43-6.79v-.6c0-1.89.36-3.57,1.08-5.05s1.73-2.64,3.02-3.48,2.7-1.26,4.21-1.26c2.47,0,4.39.81,5.77,2.44s2.06,3.96,2.06,7v1.35h-12.88c.05,1.88.59,3.39,1.64,4.54s2.38,1.73,4,1.73c1.15,0,2.12-.23,2.92-.7s1.49-1.09,2.09-1.86l1.99,1.55c-1.59,2.45-3.98,3.67-7.17,3.67h-.01Zm-.4-17.05c-1.31,0-2.41.48-3.3,1.43s-1.44,2.29-1.65,4.02h9.53v-.25c-.09-1.65-.54-2.93-1.34-3.84s-1.88-1.36-3.23-1.36h-.01Z" fill="#c9d1d9"/>
  </g>
  <g>
    <path d="m1397.84,43.2h-3.39l-12.88-19.72v19.72h-3.39v-25.59h3.39l12.92,19.81v-19.81h3.36v25.59h-.01Z" fill="#c9d1d9"/>
    <path d="m1403.83,43.2v-25.59h7.22c2.23,0,4.2.49,5.91,1.48s3.03,2.38,3.96,4.2,1.4,3.9,1.42,6.26v1.63c0,2.41-.47,4.53-1.4,6.35s-2.26,3.21-3.99,4.18-3.74,1.47-6.04,1.49h-7.08Zm3.38-22.83v20.07h3.55c2.6,0,4.63-.81,6.07-2.43s2.17-3.92,2.17-6.91v-1.5c0-2.91-.68-5.17-2.05-6.78s-3.3-2.43-5.81-2.45h-3.94.01Z" fill="#c9d1d9"/>
    <path d="m1441.91,31.37h-11.09v9.07h12.88v2.76h-16.26v-25.59h16.08v2.76h-12.71v8.24h11.09v2.76h.01Z" fill="#c9d1d9"/>
  </g>
  <line x1="508.51" y1="50.4" x2="508.51" y2="151.2" fill="none" stroke="#c9d1d9" stroke-miterlimit="10" stroke-width="2.83"/>
  <line x1="1077.31" y1="100.8" x2="1077.31" y2="151.2" fill="none" stroke="#c9d1d9" stroke-miterlimit="10" stroke-width="2.83"/>
  <line x1="1257.31" y1="100.8" x2="1257.31" y2="151.2" fill="none" stroke="#c9d1d9" stroke-miterlimit="10" stroke-width="2.83"/>
  <line x1="1408.51" y1="50.4" x2="1408.51" y2="151.2" fill="none" stroke="#c9d1d9" stroke-miterlimit="10" stroke-width="2.83"/>
</svg>