<?xml version="1.0" encoding="UTF-8"?>
<svg id="Ebene_5" data-name="Ebene 5" xmlns="http://www.w3.org/2000/svg" width="1810.8" height="774" viewBox="0 0 1810.8 774">
  <g>
    <line x1="136.8" y1="648" x2="1695.69" y2="648" fill="none" stroke="#c9d1d9" stroke-miterlimit="10" stroke-width="2.83"/>
    <polygon points="1690.07 656.24 1720.8 648.01 1690.07 639.76 1690.07 656.24" fill="#c9d1d9"/>
  </g>
  <g>
    <line x1="136.8" y1="648" x2="136.8" y2="97.11" fill="none" stroke="#c9d1d9" stroke-miterlimit="10" stroke-width="2.83"/>
    <polygon points="145.04 102.73 136.81 72 128.56 102.73 145.04 102.73" fill="#c9d1d9"/>
  </g>
  <g>
    <line x1="424.8" y1="288" x2="424.8" y2="294" fill="none" stroke="#c9d1d9" stroke-miterlimit="10" stroke-width="2.83"/>
    <line x1="424.8" y1="306" x2="424.8" y2="636" fill="none" stroke="#c9d1d9" stroke-dasharray="0 0 0 0 0 0 12 12" stroke-miterlimit="10" stroke-width="2.83"/>
    <line x1="424.8" y1="642" x2="424.8" y2="648" fill="none" stroke="#c9d1d9" stroke-miterlimit="10" stroke-width="2.83"/>
  </g>
  <g>
    <line x1="1000.8" y1="288" x2="1000.8" y2="294" fill="none" stroke="#c9d1d9" stroke-miterlimit="10" stroke-width="2.83"/>
    <line x1="1000.8" y1="306" x2="1000.8" y2="636" fill="none" stroke="#c9d1d9" stroke-dasharray="0 0 0 0 0 0 12 12" stroke-miterlimit="10" stroke-width="2.83"/>
    <line x1="1000.8" y1="642" x2="1000.8" y2="648" fill="none" stroke="#c9d1d9" stroke-miterlimit="10" stroke-width="2.83"/>
  </g>
  <line x1="280.8" y1="648" x2="280.8" y2="655.2" fill="none" stroke="#c9d1d9" stroke-miterlimit="10" stroke-width="2.83"/>
  <line x1="424.8" y1="648" x2="424.8" y2="655.2" fill="none" stroke="#c9d1d9" stroke-miterlimit="10" stroke-width="2.83"/>
  <line x1="568.8" y1="648" x2="568.8" y2="655.2" fill="none" stroke="#c9d1d9" stroke-miterlimit="10" stroke-width="2.83"/>
  <line x1="712.8" y1="648" x2="712.8" y2="655.2" fill="none" stroke="#c9d1d9" stroke-miterlimit="10" stroke-width="2.83"/>
  <line x1="856.8" y1="648" x2="856.8" y2="655.2" fill="none" stroke="#c9d1d9" stroke-miterlimit="10" stroke-width="2.83"/>
  <line x1="1000.8" y1="648" x2="1000.8" y2="655.2" fill="none" stroke="#c9d1d9" stroke-miterlimit="10" stroke-width="2.83"/>
  <line x1="1144.8" y1="648" x2="1144.8" y2="655.2" fill="none" stroke="#c9d1d9" stroke-miterlimit="10" stroke-width="2.83"/>
  <line x1="1288.8" y1="648" x2="1288.8" y2="655.2" fill="none" stroke="#c9d1d9" stroke-miterlimit="10" stroke-width="2.83"/>
  <line x1="1432.8" y1="648" x2="1432.8" y2="655.2" fill="none" stroke="#c9d1d9" stroke-miterlimit="10" stroke-width="2.83"/>
  <line x1="1576.8" y1="648" x2="1576.8" y2="655.2" fill="none" stroke="#c9d1d9" stroke-miterlimit="10" stroke-width="2.83"/>
  <g isolation="isolate">
    <g isolation="isolate">
      <path d="m259.535,694.264h-11.438v-3.539h11.438v3.539Z" fill="#c9d1d9"/>
      <path d="m265.3,689.881l1.734-17.016h17.484v4.008h-13.805l-1.031,9.305c1.672-.984,3.57-1.477,5.695-1.477,3.109,0,5.578,1.027,7.406,3.082s2.742,4.832,2.742,8.332-.949,6.285-2.848,8.309-4.551,3.035-7.957,3.035c-3.016,0-5.477-.836-7.383-2.508s-2.992-3.984-3.258-6.938h4.102c.266,1.953.961,3.426,2.086,4.418s2.609,1.488,4.453,1.488c2.016,0,3.598-.688,4.746-2.062s1.723-3.273,1.723-5.695c0-2.281-.621-4.113-1.863-5.496s-2.895-2.074-4.957-2.074c-1.891,0-3.375.414-4.453,1.242l-1.148.938-3.469-.891Z" fill="#c9d1d9"/>
      <path d="m311.66,692.436c0,5.078-.867,8.852-2.602,11.32s-4.445,3.703-8.133,3.703c-3.641,0-6.336-1.207-8.086-3.621s-2.656-6.02-2.719-10.816v-5.789c0-5.016.867-8.742,2.602-11.18s4.453-3.656,8.156-3.656c3.672,0,6.375,1.176,8.109,3.527s2.625,5.98,2.672,10.887v5.625Zm-4.336-5.93c0-3.672-.516-6.348-1.547-8.027s-2.664-2.52-4.898-2.52c-2.219,0-3.836.836-4.852,2.508s-1.539,4.242-1.57,7.711v6.938c0,3.688.535,6.41,1.605,8.168s2.691,2.637,4.863,2.637c2.141,0,3.73-.828,4.77-2.484s1.582-4.266,1.629-7.828v-7.102Z" fill="#c9d1d9"/>
    </g>
  </g>
  <g isolation="isolate">
    <g isolation="isolate">
      <path d="m1122.678,689.881l1.734-17.016h17.484v4.008h-13.805l-1.031,9.305c1.672-.984,3.57-1.477,5.695-1.477,3.109,0,5.578,1.027,7.406,3.082s2.742,4.832,2.742,8.332-.949,6.285-2.848,8.309-4.551,3.035-7.957,3.035c-3.016,0-5.477-.836-7.383-2.508s-2.992-3.984-3.258-6.938h4.102c.266,1.953.961,3.426,2.086,4.418s2.609,1.488,4.453,1.488c2.016,0,3.598-.688,4.746-2.062s1.723-3.273,1.723-5.695c0-2.281-.621-4.113-1.863-5.496s-2.895-2.074-4.957-2.074c-1.891,0-3.375.414-4.453,1.242l-1.148.938-3.469-.891Z" fill="#c9d1d9"/>
      <path d="m1169.037,692.436c0,5.078-.867,8.852-2.602,11.32s-4.445,3.703-8.133,3.703c-3.641,0-6.336-1.207-8.086-3.621s-2.656-6.02-2.719-10.816v-5.789c0-5.016.867-8.742,2.602-11.18s4.453-3.656,8.156-3.656c3.672,0,6.375,1.176,8.109,3.527s2.625,5.98,2.672,10.887v5.625Zm-4.336-5.93c0-3.672-.516-6.348-1.547-8.027s-2.664-2.52-4.898-2.52c-2.219,0-3.836.836-4.852,2.508s-1.539,4.242-1.57,7.711v6.938c0,3.688.535,6.41,1.605,8.168s2.691,2.637,4.863,2.637c2.141,0,3.73-.828,4.77-2.484s1.582-4.266,1.629-7.828v-7.102Z" fill="#c9d1d9"/>
    </g>
  </g>
  <g isolation="isolate">
    <g isolation="isolate">
      <path d="m1265.456,706.99h-4.359v-28.898l-8.742,3.211v-3.938l12.422-4.664h.68v34.289Z" fill="#c9d1d9"/>
      <path d="m1299.558,692.436c0,5.078-.867,8.852-2.602,11.32s-4.445,3.703-8.133,3.703c-3.641,0-6.336-1.207-8.086-3.621s-2.656-6.02-2.719-10.816v-5.789c0-5.016.867-8.742,2.602-11.18s4.453-3.656,8.156-3.656c3.672,0,6.375,1.176,8.109,3.527s2.625,5.98,2.672,10.887v5.625Zm-4.336-5.93c0-3.672-.516-6.348-1.547-8.027s-2.664-2.52-4.898-2.52c-2.219,0-3.836.836-4.852,2.508s-1.539,4.242-1.57,7.711v6.938c0,3.688.535,6.41,1.605,8.168s2.691,2.637,4.863,2.637c2.141,0,3.73-.828,4.77-2.484s1.582-4.266,1.629-7.828v-7.102Z" fill="#c9d1d9"/>
      <path d="m1326.511,692.436c0,5.078-.867,8.852-2.602,11.32s-4.445,3.703-8.133,3.703c-3.641,0-6.336-1.207-8.086-3.621s-2.656-6.02-2.719-10.816v-5.789c0-5.016.867-8.742,2.602-11.18s4.453-3.656,8.156-3.656c3.672,0,6.375,1.176,8.109,3.527s2.625,5.98,2.672,10.887v5.625Zm-4.336-5.93c0-3.672-.516-6.348-1.547-8.027s-2.664-2.52-4.898-2.52c-2.219,0-3.836.836-4.852,2.508s-1.539,4.242-1.57,7.711v6.938c0,3.688.535,6.41,1.605,8.168s2.691,2.637,4.863,2.637c2.141,0,3.73-.828,4.77-2.484s1.582-4.266,1.629-7.828v-7.102Z" fill="#c9d1d9"/>
    </g>
  </g>
  <g isolation="isolate">
    <g isolation="isolate">
      <path d="m1561.565,706.99h-22.359v-3.117l11.812-13.125c1.75-1.984,2.957-3.598,3.621-4.84s.996-2.527.996-3.855c0-1.781-.539-3.242-1.617-4.383s-2.516-1.711-4.312-1.711c-2.156,0-3.832.613-5.027,1.84s-1.793,2.934-1.793,5.121h-4.336c0-3.141,1.012-5.68,3.035-7.617s4.73-2.906,8.121-2.906c3.172,0,5.68.832,7.523,2.496s2.766,3.879,2.766,6.645c0,3.359-2.141,7.359-6.422,12l-9.141,9.914h17.133v3.539Z" fill="#c9d1d9"/>
      <path d="m1587.558,692.436c0,5.078-.867,8.852-2.602,11.32s-4.445,3.703-8.133,3.703c-3.641,0-6.336-1.207-8.086-3.621s-2.656-6.02-2.719-10.816v-5.789c0-5.016.867-8.742,2.602-11.18s4.453-3.656,8.156-3.656c3.672,0,6.375,1.176,8.109,3.527s2.625,5.98,2.672,10.887v5.625Zm-4.336-5.93c0-3.672-.516-6.348-1.547-8.027s-2.664-2.52-4.898-2.52c-2.219,0-3.836.836-4.852,2.508s-1.539,4.242-1.57,7.711v6.938c0,3.688.535,6.41,1.605,8.168s2.691,2.637,4.863,2.637c2.141,0,3.73-.828,4.77-2.484s1.582-4.266,1.629-7.828v-7.102Z" fill="#c9d1d9"/>
      <path d="m1614.511,692.436c0,5.078-.867,8.852-2.602,11.32s-4.445,3.703-8.133,3.703c-3.641,0-6.336-1.207-8.086-3.621s-2.656-6.02-2.719-10.816v-5.789c0-5.016.867-8.742,2.602-11.18s4.453-3.656,8.156-3.656c3.672,0,6.375,1.176,8.109,3.527s2.625,5.98,2.672,10.887v5.625Zm-4.336-5.93c0-3.672-.516-6.348-1.547-8.027s-2.664-2.52-4.898-2.52c-2.219,0-3.836.836-4.852,2.508s-1.539,4.242-1.57,7.711v6.938c0,3.688.535,6.41,1.605,8.168s2.691,2.637,4.863,2.637c2.141,0,3.73-.828,4.77-2.484s1.582-4.266,1.629-7.828v-7.102Z" fill="#c9d1d9"/>
    </g>
  </g>
  <rect x="424.8" y="504" width="576" height="144" fill="#c9d1d9" isolation="isolate" opacity=".2"/>
  <g isolation="isolate">
    <g isolation="isolate">
      <path d="m435.554,692.436c0,5.078-.867,8.852-2.602,11.32s-4.445,3.703-8.133,3.703c-3.641,0-6.336-1.207-8.086-3.621s-2.656-6.02-2.719-10.816v-5.789c0-5.016.867-8.742,2.602-11.18s4.453-3.656,8.156-3.656c3.672,0,6.375,1.176,8.109,3.527s2.625,5.98,2.672,10.887v5.625Zm-4.336-5.93c0-3.672-.516-6.348-1.547-8.027s-2.664-2.52-4.898-2.52c-2.219,0-3.836.836-4.852,2.508s-1.539,4.242-1.57,7.711v6.938c0,3.688.535,6.41,1.605,8.168s2.691,2.637,4.863,2.637c2.141,0,3.73-.828,4.77-2.484s1.582-4.266,1.629-7.828v-7.102Z" fill="#c9d1d9"/>
    </g>
  </g>
  <g isolation="isolate">
    <g isolation="isolate">
      <path d="m1011.555,692.436c0,5.078-.867,8.852-2.602,11.32s-4.445,3.703-8.133,3.703c-3.641,0-6.336-1.207-8.086-3.621s-2.656-6.02-2.719-10.816v-5.789c0-5.016.867-8.742,2.602-11.18s4.453-3.656,8.156-3.656c3.672,0,6.375,1.176,8.109,3.527s2.625,5.98,2.672,10.887v5.625Zm-4.336-5.93c0-3.672-.516-6.348-1.547-8.027s-2.664-2.52-4.898-2.52c-2.219,0-3.836.836-4.852,2.508s-1.539,4.242-1.57,7.711v6.938c0,3.688.535,6.41,1.605,8.168s2.691,2.637,4.863,2.637c2.141,0,3.73-.828,4.77-2.484s1.582-4.266,1.629-7.828v-7.102Z" fill="#c9d1d9"/>
    </g>
  </g>
  <g isolation="isolate">
    <g isolation="isolate">
      <path d="m643.423,419.475l11.156,27.844,11.156-27.844h5.836v34.125h-4.5v-13.289l.422-14.344-11.203,27.633h-3.445l-11.18-27.562.445,14.273v13.289h-4.5v-34.125h5.812Z" fill="#c9d1d9"/>
      <path d="m694.494,453.6c-.25-.5-.453-1.391-.609-2.672-2.016,2.094-4.422,3.141-7.219,3.141-2.5,0-4.551-.707-6.152-2.121s-2.402-3.207-2.402-5.379c0-2.641,1.004-4.691,3.012-6.152s4.832-2.191,8.473-2.191h4.219v-1.992c0-1.516-.453-2.723-1.359-3.621s-2.242-1.348-4.008-1.348c-1.547,0-2.844.391-3.891,1.172s-1.57,1.727-1.57,2.836h-4.359c0-1.266.449-2.488,1.348-3.668s2.117-2.113,3.656-2.801,3.23-1.031,5.074-1.031c2.922,0,5.211.73,6.867,2.191s2.516,3.473,2.578,6.035v11.672c0,2.328.297,4.18.891,5.555v.375h-4.547Zm-7.195-3.305c1.359,0,2.648-.352,3.867-1.055s2.102-1.617,2.648-2.742v-5.203h-3.398c-5.312,0-7.969,1.555-7.969,4.664,0,1.359.453,2.422,1.359,3.188s2.07,1.148,3.492,1.148Z" fill="#c9d1d9"/>
      <path d="m719.712,446.873c0-1.172-.441-2.082-1.324-2.73s-2.422-1.207-4.617-1.676-3.938-1.031-5.227-1.688-2.242-1.438-2.859-2.344-.926-1.984-.926-3.234c0-2.078.879-3.836,2.637-5.273s4.004-2.156,6.738-2.156c2.875,0,5.207.742,6.996,2.227s2.684,3.383,2.684,5.695h-4.359c0-1.188-.504-2.211-1.512-3.07s-2.277-1.289-3.809-1.289c-1.578,0-2.812.344-3.703,1.031s-1.336,1.586-1.336,2.695c0,1.047.414,1.836,1.242,2.367s2.324,1.039,4.488,1.523,3.918,1.062,5.262,1.734,2.34,1.48,2.988,2.426.973,2.098.973,3.457c0,2.266-.906,4.082-2.719,5.449s-4.164,2.051-7.055,2.051c-2.031,0-3.828-.359-5.391-1.078s-2.785-1.723-3.668-3.012-1.324-2.684-1.324-4.184h4.336c.078,1.453.66,2.605,1.746,3.457s2.52,1.277,4.301,1.277c1.641,0,2.957-.332,3.949-.996s1.488-1.551,1.488-2.66Z" fill="#c9d1d9"/>
    </g>
    <g isolation="isolate">
      <path d="m736.779,441.857l-2.719,2.836v8.906h-4.336v-36h4.336v21.773l2.32-2.789,7.898-8.344h5.273l-9.867,10.594,11.016,14.766h-5.086l-8.836-11.742Z" fill="#c9d1d9"/>
    </g>
    <g isolation="isolate">
      <path d="m764.075,454.068c-3.438,0-6.234-1.129-8.391-3.387s-3.234-5.277-3.234-9.059v-.797c0-2.516.48-4.762,1.441-6.738s2.305-3.523,4.031-4.641,3.598-1.676,5.613-1.676c3.297,0,5.859,1.086,7.688,3.258s2.742,5.281,2.742,9.328v1.805h-17.18c.062,2.5.793,4.52,2.191,6.059s3.176,2.309,5.332,2.309c1.531,0,2.828-.312,3.891-.938s1.992-1.453,2.789-2.484l2.648,2.062c-2.125,3.266-5.312,4.898-9.562,4.898Zm-.539-22.734c-1.75,0-3.219.637-4.406,1.91s-1.922,3.059-2.203,5.355h12.703v-.328c-.125-2.203-.719-3.91-1.781-5.121s-2.5-1.816-4.312-1.816Z" fill="#c9d1d9"/>
      <path d="m791.239,432.131c-.656-.109-1.367-.164-2.133-.164-2.844,0-4.773,1.211-5.789,3.633v18h-4.336v-25.359h4.219l.07,2.93c1.422-2.266,3.438-3.398,6.047-3.398.844,0,1.484.109,1.922.328v4.031Z" fill="#c9d1d9"/>
    </g>
  </g>
  <path d="m424.8,288c0,360-72,360-144,360" fill="none" stroke="#c9d1d9" stroke-miterlimit="10" stroke-width="2.83"/>
  <path d="m1000.8,288c0,360,288,360,576,360" fill="none" stroke="#c9d1d9" stroke-miterlimit="10" stroke-width="2.83"/>
  <line x1="1000.8" y1="288" x2="424.8" y2="288" fill="none" stroke="#c9d1d9" stroke-miterlimit="10" stroke-width="2.83"/>
  <g>
    <path d="m214.39,237.46c0,3.88-.89,6.99-2.67,9.34s-4.17,3.53-7.17,3.53c-3.2,0-5.68-1.13-7.43-3.4l-.21,2.93h-3.98v-36h4.34v13.43c1.75-2.17,4.16-3.26,7.24-3.26s5.5,1.16,7.25,3.49,2.64,5.52,2.64,9.56v.38h-.01Zm-4.34-.49c0-2.95-.57-5.23-1.71-6.84s-2.78-2.41-4.92-2.41c-2.86,0-4.91,1.33-6.16,3.98v10.97c1.33,2.66,3.4,3.98,6.21,3.98,2.08,0,3.7-.8,4.85-2.41s1.73-4.03,1.73-7.27h0Z" fill="#c9d1d9"/>
    <path d="m235.51,249.86c-.25-.5-.45-1.39-.61-2.67-2.02,2.09-4.42,3.14-7.22,3.14-2.5,0-4.55-.71-6.15-2.12s-2.4-3.21-2.4-5.38c0-2.64,1-4.69,3.01-6.15s4.83-2.19,8.47-2.19h4.22v-1.99c0-1.52-.45-2.72-1.36-3.62s-2.24-1.35-4.01-1.35c-1.55,0-2.84.39-3.89,1.17s-1.57,1.73-1.57,2.84h-4.36c0-1.27.45-2.49,1.35-3.67s2.12-2.11,3.66-2.8,3.23-1.03,5.07-1.03c2.92,0,5.21.73,6.87,2.19s2.52,3.47,2.58,6.04v11.67c0,2.33.3,4.18.89,5.55v.38h-4.55v-.01Zm-7.2-3.3c1.36,0,2.65-.35,3.87-1.05s2.1-1.62,2.65-2.74v-5.2h-3.4c-5.31,0-7.97,1.55-7.97,4.66,0,1.36.45,2.42,1.36,3.19s2.07,1.15,3.49,1.15v-.01Z" fill="#c9d1d9"/>
    <path d="m256.13,246.79c1.55,0,2.9-.47,4.05-1.41s1.8-2.11,1.92-3.52h4.1c-.08,1.45-.58,2.84-1.5,4.15s-2.15,2.36-3.69,3.14-3.17,1.17-4.89,1.17c-3.45,0-6.2-1.15-8.24-3.46s-3.06-5.46-3.06-9.46v-.73c0-2.47.45-4.66,1.36-6.59s2.21-3.41,3.9-4.48,3.7-1.59,6.01-1.59c2.84,0,5.21.85,7.09,2.55s2.89,3.91,3.01,6.63h-4.1c-.12-1.64-.75-2.99-1.86-4.04s-2.5-1.58-4.14-1.58c-2.2,0-3.91.79-5.12,2.38s-1.82,3.88-1.82,6.88v.82c0,2.92.6,5.17,1.8,6.75s2.92,2.37,5.16,2.37l.02.02Z" fill="#c9d1d9"/>
    <path d="m278.16,238.12l-2.72,2.84v8.91h-4.34v-36h4.34v21.77l2.32-2.79,7.9-8.34h5.27l-9.87,10.59,11.02,14.77h-5.09l-8.84-11.74.01-.01Z" fill="#c9d1d9"/>
    <path d="m317.87,243.89l4.88-19.38h4.34l-7.38,25.36h-3.52l-6.16-19.22-6,19.22h-3.52l-7.36-25.36h4.31l4.99,18.98,5.91-18.98h3.49l6.02,19.38Z" fill="#c9d1d9"/>
    <path d="m347.14,249.86c-.25-.5-.45-1.39-.61-2.67-2.02,2.09-4.42,3.14-7.22,3.14-2.5,0-4.55-.71-6.15-2.12s-2.4-3.21-2.4-5.38c0-2.64,1-4.69,3.01-6.15s4.83-2.19,8.47-2.19h4.22v-1.99c0-1.52-.45-2.72-1.36-3.62s-2.24-1.35-4.01-1.35c-1.55,0-2.84.39-3.89,1.17s-1.57,1.73-1.57,2.84h-4.36c0-1.27.45-2.49,1.35-3.67s2.12-2.11,3.66-2.8,3.23-1.03,5.07-1.03c2.92,0,5.21.73,6.87,2.19s2.52,3.47,2.58,6.04v11.67c0,2.33.3,4.18.89,5.55v.38h-4.55v-.01Zm-7.2-3.3c1.36,0,2.65-.35,3.87-1.05s2.1-1.62,2.65-2.74v-5.2h-3.4c-5.31,0-7.97,1.55-7.97,4.66,0,1.36.45,2.42,1.36,3.19s2.07,1.15,3.49,1.15v-.01Z" fill="#c9d1d9"/>
    <path d="m369.85,228.39c-.66-.11-1.37-.16-2.13-.16-2.84,0-4.77,1.21-5.79,3.63v18h-4.34v-25.36h4.22l.07,2.93c1.42-2.27,3.44-3.4,6.05-3.4.84,0,1.48.11,1.92.33v4.03Z" fill="#c9d1d9"/>
    <path d="m372.34,236.97c0-3.89.92-7.02,2.77-9.39s4.26-3.55,7.24-3.55,5.32,1.02,7.05,3.05v-13.22h4.34v36h-3.98l-.21-2.72c-1.73,2.12-4.15,3.19-7.24,3.19s-5.33-1.2-7.18-3.61-2.78-5.55-2.78-9.42v-.33h-.01Zm4.34.49c0,2.88.59,5.12,1.78,6.75s2.83,2.44,4.92,2.44c2.75,0,4.76-1.23,6.02-3.7v-11.65c-1.3-2.39-3.29-3.59-5.98-3.59-2.12,0-3.78.82-4.97,2.46s-1.78,4.07-1.78,7.29h.01Z" fill="#c9d1d9"/>
    <path d="m197,282.1l.12,2.81c1.86-2.19,4.37-3.28,7.52-3.28,3.55,0,5.96,1.36,7.24,4.08.84-1.22,1.94-2.2,3.29-2.95s2.95-1.12,4.79-1.12c5.56,0,8.39,2.95,8.48,8.84v16.99h-4.34v-16.73c0-1.81-.41-3.17-1.24-4.07s-2.22-1.35-4.17-1.35c-1.61,0-2.95.48-4.01,1.44s-1.68,2.25-1.85,3.88v16.83h-4.36v-16.62c0-3.69-1.8-5.53-5.41-5.53-2.84,0-4.79,1.21-5.84,3.63v18.52h-4.34v-25.36h4.1l.02-.01Z" fill="#c9d1d9"/>
    <path d="m250.65,307.46c-.25-.5-.45-1.39-.61-2.67-2.02,2.09-4.42,3.14-7.22,3.14-2.5,0-4.55-.71-6.15-2.12s-2.4-3.21-2.4-5.38c0-2.64,1-4.69,3.01-6.15s4.83-2.19,8.47-2.19h4.22v-1.99c0-1.52-.45-2.72-1.36-3.62s-2.24-1.35-4.01-1.35c-1.55,0-2.84.39-3.89,1.17s-1.57,1.73-1.57,2.84h-4.36c0-1.27.45-2.49,1.35-3.67s2.12-2.11,3.66-2.8,3.23-1.03,5.07-1.03c2.92,0,5.21.73,6.87,2.19s2.52,3.47,2.58,6.04v11.67c0,2.33.3,4.18.89,5.55v.38h-4.55v-.01Zm-7.2-3.3c1.36,0,2.65-.35,3.87-1.05s2.1-1.62,2.65-2.74v-5.2h-3.4c-5.31,0-7.97,1.55-7.97,4.66,0,1.36.45,2.42,1.36,3.19s2.07,1.15,3.49,1.15v-.01Z" fill="#c9d1d9"/>
    <path d="m275.87,300.74c0-1.17-.44-2.08-1.32-2.73s-2.42-1.21-4.62-1.68-3.94-1.03-5.23-1.69-2.24-1.44-2.86-2.34-.93-1.98-.93-3.23c0-2.08.88-3.84,2.64-5.27s4-2.16,6.74-2.16c2.88,0,5.21.74,7,2.23s2.68,3.38,2.68,5.7h-4.36c0-1.19-.5-2.21-1.51-3.07s-2.28-1.29-3.81-1.29-2.81.34-3.7,1.03-1.34,1.59-1.34,2.7c0,1.05.41,1.84,1.24,2.37s2.32,1.04,4.49,1.52,3.92,1.06,5.26,1.73,2.34,1.48,2.99,2.43.97,2.1.97,3.46c0,2.27-.91,4.08-2.72,5.45s-4.16,2.05-7.05,2.05c-2.03,0-3.83-.36-5.39-1.08s-2.79-1.72-3.67-3.01-1.32-2.68-1.32-4.18h4.34c.08,1.45.66,2.61,1.75,3.46s2.52,1.28,4.3,1.28c1.64,0,2.96-.33,3.95-1s1.49-1.55,1.49-2.66l-.01-.02Z" fill="#c9d1d9"/>
    <path d="m292.93,295.72l-2.72,2.84v8.91h-4.34v-36h4.34v21.77l2.32-2.79,7.9-8.34h5.27l-9.87,10.59,11.02,14.77h-5.09l-8.84-11.74.01-.01Z" fill="#c9d1d9"/>
    <path d="m310.2,275.38c0-.7.21-1.3.64-1.78s1.07-.73,1.91-.73,1.48.24,1.92.73.66,1.08.66,1.78-.22,1.29-.66,1.76-1.08.7-1.92.7-1.48-.23-1.91-.7-.64-1.05-.64-1.76Zm4.69,32.09h-4.34v-25.36h4.34v25.36h0Z" fill="#c9d1d9"/>
    <path d="m325.93,282.1l.14,3.19c1.94-2.44,4.47-3.66,7.59-3.66,5.36,0,8.06,3.02,8.11,9.07v16.76h-4.34v-16.78c-.02-1.83-.43-3.18-1.25-4.05s-2.1-1.31-3.83-1.31c-1.41,0-2.64.38-3.7,1.12s-1.89,1.73-2.48,2.95v18.07h-4.34v-25.36h4.1Z" fill="#c9d1d9"/>
    <path d="m347.28,294.57c0-3.95.91-7.1,2.74-9.43s4.25-3.5,7.27-3.5,5.51,1.09,7.24,3.28l.21-2.81h3.96v24.75c0,3.28-.97,5.87-2.92,7.76s-4.56,2.84-7.84,2.84c-1.83,0-3.62-.39-5.37-1.17s-3.09-1.85-4.01-3.21l2.25-2.6c1.86,2.3,4.13,3.45,6.82,3.45,2.11,0,3.75-.59,4.93-1.78s1.77-2.86,1.77-5.02v-2.18c-1.73,2-4.1,3-7.1,3s-5.37-1.2-7.21-3.59-2.75-5.65-2.75-9.77l.01-.02Zm4.36.49c0,2.86.59,5.11,1.76,6.74s2.81,2.45,4.92,2.45c2.73,0,4.74-1.24,6.02-3.73v-11.58c-1.33-2.42-3.32-3.63-5.98-3.63-2.11,0-3.76.82-4.95,2.46s-1.78,4.07-1.78,7.29h.01Z" fill="#c9d1d9"/>
  </g>
  <g isolation="isolate">
    <g isolation="isolate">
      <path d="m488.637,243.133c0-1.172-.441-2.082-1.324-2.73s-2.422-1.207-4.617-1.676-3.938-1.031-5.227-1.688-2.242-1.438-2.859-2.344-.926-1.984-.926-3.234c0-2.078.879-3.836,2.637-5.273s4.004-2.156,6.738-2.156c2.875,0,5.207.742,6.996,2.227s2.684,3.383,2.684,5.695h-4.359c0-1.188-.504-2.211-1.512-3.07s-2.277-1.289-3.809-1.289c-1.578,0-2.812.344-3.703,1.031s-1.336,1.586-1.336,2.695c0,1.047.414,1.836,1.242,2.367s2.324,1.039,4.488,1.523,3.918,1.062,5.262,1.734,2.34,1.48,2.988,2.426.973,2.098.973,3.457c0,2.266-.906,4.082-2.719,5.449s-4.164,2.051-7.055,2.051c-2.031,0-3.828-.359-5.391-1.078s-2.785-1.723-3.668-3.012-1.324-2.684-1.324-4.184h4.336c.078,1.453.66,2.605,1.746,3.457s2.52,1.277,4.301,1.277c1.641,0,2.957-.332,3.949-.996s1.488-1.551,1.488-2.66Z" fill="#c9d1d9"/>
      <path d="m498.645,217.774c0-.703.215-1.297.645-1.781s1.066-.727,1.91-.727,1.484.242,1.922.727.656,1.078.656,1.781-.219,1.289-.656,1.758-1.078.703-1.922.703-1.48-.234-1.91-.703-.645-1.055-.645-1.758Zm4.688,32.086h-4.336v-25.359h4.336v25.359Z" fill="#c9d1d9"/>
      <path d="m514.348,224.5l.117,2.812c1.859-2.188,4.367-3.281,7.523-3.281,3.547,0,5.961,1.359,7.242,4.078.844-1.219,1.941-2.203,3.293-2.953s2.949-1.125,4.793-1.125c5.562,0,8.391,2.945,8.484,8.836v16.992h-4.336v-16.734c0-1.812-.414-3.168-1.242-4.066s-2.219-1.348-4.172-1.348c-1.609,0-2.945.48-4.008,1.441s-1.68,2.254-1.852,3.879v16.828h-4.359v-16.617c0-3.688-1.805-5.531-5.414-5.531-2.844,0-4.789,1.211-5.836,3.633v18.516h-4.336v-25.359h4.102Z" fill="#c9d1d9"/>
      <path d="m567.996,247.352c-1.688,1.984-4.164,2.977-7.43,2.977-2.703,0-4.762-.785-6.176-2.355s-2.129-3.895-2.145-6.973v-16.5h4.336v16.383c0,3.844,1.562,5.766,4.688,5.766,3.312,0,5.516-1.234,6.609-3.703v-18.445h4.336v25.359h-4.125l-.094-2.508Z" fill="#c9d1d9"/>
      <path d="m583.512,249.86h-4.336v-36h4.336v36Z" fill="#c9d1d9"/>
      <path d="m596.332,218.36v6.141h4.734v3.352h-4.734v15.746c0,1.018.211,1.78.633,2.288.422.509,1.141.763,2.156.763.5,0,1.188-.094,2.062-.281v3.495c-1.141.311-2.25.466-3.328.466-1.938,0-3.398-.586-4.383-1.758s-1.477-2.836-1.477-4.992v-15.727h-4.617v-3.352h4.617v-6.141h4.336Z" fill="#c9d1d9"/>
      <path d="m621.785,249.86c-.25-.5-.453-1.391-.609-2.672-2.016,2.094-4.422,3.141-7.219,3.141-2.5,0-4.551-.707-6.152-2.121s-2.402-3.207-2.402-5.379c0-2.641,1.004-4.691,3.012-6.152s4.832-2.191,8.473-2.191h4.219v-1.992c0-1.516-.453-2.723-1.359-3.621s-2.242-1.348-4.008-1.348c-1.547,0-2.844.391-3.891,1.172s-1.57,1.727-1.57,2.836h-4.359c0-1.266.449-2.488,1.348-3.668s2.117-2.113,3.656-2.801,3.23-1.031,5.074-1.031c2.922,0,5.211.73,6.867,2.191s2.516,3.473,2.578,6.035v11.672c0,2.328.297,4.18.891,5.555v.375h-4.547Zm-7.195-3.305c1.359,0,2.648-.352,3.867-1.055s2.102-1.617,2.648-2.742v-5.203h-3.398c-5.312,0-7.969,1.555-7.969,4.664,0,1.359.453,2.422,1.359,3.188s2.07,1.148,3.492,1.148Z" fill="#c9d1d9"/>
      <path d="m636.34,224.5l.141,3.188c1.938-2.438,4.469-3.656,7.594-3.656,5.359,0,8.062,3.023,8.109,9.07v16.758h-4.336v-16.781c-.016-1.828-.434-3.18-1.254-4.055s-2.098-1.312-3.832-1.312c-1.406,0-2.641.375-3.703,1.125s-1.891,1.734-2.484,2.953v18.07h-4.336v-25.359h4.102Z" fill="#c9d1d9"/>
      <path d="m669.246,250.329c-3.438,0-6.234-1.129-8.391-3.387s-3.234-5.277-3.234-9.059v-.797c0-2.516.48-4.762,1.441-6.738s2.305-3.523,4.031-4.641,3.598-1.676,5.613-1.676c3.297,0,5.859,1.086,7.688,3.258s2.742,5.281,2.742,9.328v1.805h-17.18c.062,2.5.793,4.52,2.191,6.059s3.176,2.309,5.332,2.309c1.531,0,2.828-.312,3.891-.938s1.992-1.453,2.789-2.484l2.648,2.062c-2.125,3.266-5.312,4.898-9.562,4.898Zm-.539-22.734c-1.75,0-3.219.637-4.406,1.91s-1.922,3.059-2.203,5.355h12.703v-.328c-.125-2.203-.719-3.91-1.781-5.121s-2.5-1.816-4.312-1.816Z" fill="#c9d1d9"/>
      <path d="m683.004,236.946c0-2.484.488-4.719,1.465-6.703s2.336-3.516,4.078-4.594,3.73-1.617,5.965-1.617c3.453,0,6.246,1.195,8.379,3.586s3.199,5.57,3.199,9.539v.305c0,2.469-.473,4.684-1.418,6.645s-2.297,3.488-4.055,4.582-3.777,1.641-6.059,1.641c-3.438,0-6.223-1.195-8.355-3.586s-3.199-5.555-3.199-9.492v-.305Zm4.359.516c0,2.812.652,5.07,1.957,6.773s3.051,2.555,5.238,2.555c2.203,0,3.953-.863,5.25-2.59s1.945-4.145,1.945-7.254c0-2.781-.66-5.035-1.98-6.762s-3.074-2.59-5.262-2.59c-2.141,0-3.867.852-5.18,2.555s-1.969,4.141-1.969,7.312Z" fill="#c9d1d9"/>
      <path d="m727.184,247.352c-1.688,1.984-4.164,2.977-7.43,2.977-2.703,0-4.762-.785-6.176-2.355s-2.129-3.895-2.145-6.973v-16.5h4.336v16.383c0,3.844,1.562,5.766,4.688,5.766,3.312,0,5.516-1.234,6.609-3.703v-18.445h4.336v25.359h-4.125l-.094-2.508Z" fill="#c9d1d9"/>
      <path d="m752.754,243.133c0-1.172-.441-2.082-1.324-2.73s-2.422-1.207-4.617-1.676-3.938-1.031-5.227-1.688-2.242-1.438-2.859-2.344-.926-1.984-.926-3.234c0-2.078.879-3.836,2.637-5.273s4.004-2.156,6.738-2.156c2.875,0,5.207.742,6.996,2.227s2.684,3.383,2.684,5.695h-4.359c0-1.188-.504-2.211-1.512-3.07s-2.277-1.289-3.809-1.289c-1.578,0-2.812.344-3.703,1.031s-1.336,1.586-1.336,2.695c0,1.047.414,1.836,1.242,2.367s2.324,1.039,4.488,1.523,3.918,1.062,5.262,1.734,2.34,1.48,2.988,2.426.973,2.098.973,3.457c0,2.266-.906,4.082-2.719,5.449s-4.164,2.051-7.055,2.051c-2.031,0-3.828-.359-5.391-1.078s-2.785-1.723-3.668-3.012-1.324-2.684-1.324-4.184h4.336c.078,1.453.66,2.605,1.746,3.457s2.52,1.277,4.301,1.277c1.641,0,2.957-.332,3.949-.996s1.488-1.551,1.488-2.66Z" fill="#c9d1d9"/>
      <path d="m771.762,237.133h-11.438v-3.539h11.438v3.539Z" fill="#c9d1d9"/>
      <path d="m780.059,224.5l.117,2.812c1.859-2.188,4.367-3.281,7.523-3.281,3.547,0,5.961,1.359,7.242,4.078.844-1.219,1.941-2.203,3.293-2.953s2.949-1.125,4.793-1.125c5.562,0,8.391,2.945,8.484,8.836v16.992h-4.336v-16.734c0-1.812-.414-3.168-1.242-4.066s-2.219-1.348-4.172-1.348c-1.609,0-2.945.48-4.008,1.441s-1.68,2.254-1.852,3.879v16.828h-4.359v-16.617c0-3.688-1.805-5.531-5.414-5.531-2.844,0-4.789,1.211-5.836,3.633v18.516h-4.336v-25.359h4.102Z" fill="#c9d1d9"/>
      <path d="m833.707,249.86c-.25-.5-.453-1.391-.609-2.672-2.016,2.094-4.422,3.141-7.219,3.141-2.5,0-4.551-.707-6.152-2.121s-2.402-3.207-2.402-5.379c0-2.641,1.004-4.691,3.012-6.152s4.832-2.191,8.473-2.191h4.219v-1.992c0-1.516-.453-2.723-1.359-3.621s-2.242-1.348-4.008-1.348c-1.547,0-2.844.391-3.891,1.172s-1.57,1.727-1.57,2.836h-4.359c0-1.266.449-2.488,1.348-3.668s2.117-2.113,3.656-2.801,3.23-1.031,5.074-1.031c2.922,0,5.211.73,6.867,2.191s2.516,3.473,2.578,6.035v11.672c0,2.328.297,4.18.891,5.555v.375h-4.547Zm-7.195-3.305c1.359,0,2.648-.352,3.867-1.055s2.102-1.617,2.648-2.742v-5.203h-3.398c-5.312,0-7.969,1.555-7.969,4.664,0,1.359.453,2.422,1.359,3.188s2.07,1.148,3.492,1.148Z" fill="#c9d1d9"/>
      <path d="m858.926,243.133c0-1.172-.441-2.082-1.324-2.73s-2.422-1.207-4.617-1.676-3.938-1.031-5.227-1.688-2.242-1.438-2.859-2.344-.926-1.984-.926-3.234c0-2.078.879-3.836,2.637-5.273s4.004-2.156,6.738-2.156c2.875,0,5.207.742,6.996,2.227s2.684,3.383,2.684,5.695h-4.359c0-1.188-.504-2.211-1.512-3.07s-2.277-1.289-3.809-1.289c-1.578,0-2.812.344-3.703,1.031s-1.336,1.586-1.336,2.695c0,1.047.414,1.836,1.242,2.367s2.324,1.039,4.488,1.523,3.918,1.062,5.262,1.734,2.34,1.48,2.988,2.426.973,2.098.973,3.457c0,2.266-.906,4.082-2.719,5.449s-4.164,2.051-7.055,2.051c-2.031,0-3.828-.359-5.391-1.078s-2.785-1.723-3.668-3.012-1.324-2.684-1.324-4.184h4.336c.078,1.453.66,2.605,1.746,3.457s2.52,1.277,4.301,1.277c1.641,0,2.957-.332,3.949-.996s1.488-1.551,1.488-2.66Z" fill="#c9d1d9"/>
      <path d="m875.988,238.118l-2.719,2.836v8.906h-4.336v-36h4.336v21.773l2.32-2.789,7.898-8.344h5.273l-9.867,10.594,11.016,14.766h-5.086l-8.836-11.742Z" fill="#c9d1d9"/>
      <path d="m893.262,217.774c0-.703.215-1.297.645-1.781s1.066-.727,1.91-.727,1.484.242,1.922.727.656,1.078.656,1.781-.219,1.289-.656,1.758-1.078.703-1.922.703-1.48-.234-1.91-.703-.645-1.055-.645-1.758Zm4.688,32.086h-4.336v-25.359h4.336v25.359Z" fill="#c9d1d9"/>
      <path d="m908.988,224.5l.141,3.188c1.938-2.438,4.469-3.656,7.594-3.656,5.359,0,8.062,3.023,8.109,9.07v16.758h-4.336v-16.781c-.016-1.828-.434-3.18-1.254-4.055s-2.098-1.312-3.832-1.312c-1.406,0-2.641.375-3.703,1.125s-1.891,1.734-2.484,2.953v18.07h-4.336v-25.359h4.102Z" fill="#c9d1d9"/>
      <path d="m930.34,236.969c0-3.953.914-7.098,2.742-9.434s4.25-3.504,7.266-3.504c3.094,0,5.508,1.094,7.242,3.281l.211-2.812h3.961v24.75c0,3.281-.973,5.867-2.918,7.758s-4.559,2.836-7.84,2.836c-1.828,0-3.617-.391-5.367-1.172s-3.086-1.852-4.008-3.211l2.25-2.602c1.859,2.297,4.133,3.445,6.82,3.445,2.109,0,3.754-.594,4.934-1.781s1.77-2.859,1.77-5.016v-2.18c-1.734,2-4.102,3-7.102,3-2.969,0-5.371-1.195-7.207-3.586s-2.754-5.648-2.754-9.773Zm4.359.492c0,2.859.586,5.105,1.758,6.738s2.812,2.449,4.922,2.449c2.734,0,4.742-1.242,6.023-3.727v-11.578c-1.328-2.422-3.32-3.633-5.977-3.633-2.109,0-3.758.82-4.945,2.461s-1.781,4.07-1.781,7.289Z" fill="#c9d1d9"/>
    </g>
  </g>
  <g>
    <path d="m1203.05,249.86v-22.01h-4.01v-3.35h4.01v-2.6c0-2.72.73-4.82,2.18-6.3s3.51-2.23,6.16-2.23c1,0,1.99.13,2.98.4l-.23,3.5c-.73-.14-1.52-.21-2.34-.21-1.41,0-2.49.41-3.26,1.23-.77.82-1.15,2-1.15,3.54v2.68h5.41v3.35h-5.41v22.01h-4.34v-.01Z" fill="#c9d1d9"/>
    <path d="m1216.44,236.95c0-2.48.49-4.72,1.46-6.7s2.34-3.52,4.08-4.59,3.73-1.62,5.96-1.62c3.45,0,6.25,1.2,8.38,3.59s3.2,5.57,3.2,9.54v.3c0,2.47-.47,4.68-1.42,6.64s-2.3,3.49-4.05,4.58-3.78,1.64-6.06,1.64c-3.44,0-6.22-1.2-8.36-3.59s-3.2-5.55-3.2-9.49v-.3h.01Zm4.36.52c0,2.81.65,5.07,1.96,6.77s3.05,2.55,5.24,2.55,3.95-.86,5.25-2.59,1.95-4.14,1.95-7.25c0-2.78-.66-5.04-1.98-6.76s-3.07-2.59-5.26-2.59-3.87.85-5.18,2.55-1.97,4.14-1.97,7.31l-.01.01Z" fill="#c9d1d9"/>
    <path d="m1257.22,228.39c-.66-.11-1.37-.16-2.13-.16-2.84,0-4.77,1.21-5.79,3.63v18h-4.34v-25.36h4.22l.07,2.93c1.42-2.27,3.44-3.4,6.05-3.4.84,0,1.48.11,1.92.33v4.03Z" fill="#c9d1d9"/>
    <path d="m1284.05,243.89l4.88-19.38h4.34l-7.38,25.36h-3.52l-6.16-19.22-6,19.22h-3.52l-7.36-25.36h4.31l4.99,18.98,5.91-18.98h3.49l6.02,19.38Z" fill="#c9d1d9"/>
    <path d="m1313.33,249.86c-.25-.5-.45-1.39-.61-2.67-2.02,2.09-4.42,3.14-7.22,3.14-2.5,0-4.55-.71-6.15-2.12s-2.4-3.21-2.4-5.38c0-2.64,1-4.69,3.01-6.15s4.83-2.19,8.47-2.19h4.22v-1.99c0-1.52-.45-2.72-1.36-3.62s-2.24-1.35-4.01-1.35c-1.55,0-2.84.39-3.89,1.17s-1.57,1.73-1.57,2.84h-4.36c0-1.27.45-2.49,1.35-3.67s2.12-2.11,3.66-2.8,3.23-1.03,5.07-1.03c2.92,0,5.21.73,6.87,2.19s2.52,3.47,2.58,6.04v11.67c0,2.33.3,4.18.89,5.55v.38h-4.55v-.01Zm-7.2-3.3c1.36,0,2.65-.35,3.87-1.05s2.1-1.62,2.65-2.74v-5.2h-3.4c-5.31,0-7.97,1.55-7.97,4.66,0,1.36.45,2.42,1.36,3.19s2.07,1.15,3.49,1.15v-.01Z" fill="#c9d1d9"/>
    <path d="m1336.04,228.39c-.66-.11-1.37-.16-2.13-.16-2.84,0-4.77,1.21-5.79,3.63v18h-4.34v-25.36h4.22l.07,2.93c1.42-2.27,3.44-3.4,6.05-3.4.84,0,1.48.11,1.92.33v4.03Z" fill="#c9d1d9"/>
    <path d="m1338.52,236.97c0-3.89.92-7.02,2.77-9.39s4.26-3.55,7.24-3.55,5.32,1.02,7.05,3.05v-13.22h4.34v36h-3.98l-.21-2.72c-1.73,2.12-4.15,3.19-7.24,3.19s-5.33-1.2-7.18-3.61-2.78-5.55-2.78-9.42v-.33h-.01Zm4.34.49c0,2.88.59,5.12,1.78,6.75s2.83,2.44,4.92,2.44c2.75,0,4.76-1.23,6.02-3.7v-11.65c-1.3-2.39-3.29-3.59-5.98-3.59-2.12,0-3.78.82-4.97,2.46s-1.78,4.07-1.78,7.29h.01Z" fill="#c9d1d9"/>
    <path d="m1205,282.1l.12,2.81c1.86-2.19,4.37-3.28,7.52-3.28,3.55,0,5.96,1.36,7.24,4.08.84-1.22,1.94-2.2,3.29-2.95s2.95-1.12,4.79-1.12c5.56,0,8.39,2.95,8.48,8.84v16.99h-4.34v-16.73c0-1.81-.41-3.17-1.24-4.07s-2.22-1.35-4.17-1.35c-1.61,0-2.95.48-4.01,1.44s-1.68,2.25-1.85,3.88v16.83h-4.36v-16.62c0-3.69-1.8-5.53-5.41-5.53-2.84,0-4.79,1.21-5.84,3.63v18.52h-4.34v-25.36h4.1l.02-.01Z" fill="#c9d1d9"/>
    <path d="m1258.65,307.46c-.25-.5-.45-1.39-.61-2.67-2.02,2.09-4.42,3.14-7.22,3.14-2.5,0-4.55-.71-6.15-2.12s-2.4-3.21-2.4-5.38c0-2.64,1-4.69,3.01-6.15s4.83-2.19,8.47-2.19h4.22v-1.99c0-1.52-.45-2.72-1.36-3.62s-2.24-1.35-4.01-1.35c-1.55,0-2.84.39-3.89,1.17s-1.57,1.73-1.57,2.84h-4.36c0-1.27.45-2.49,1.35-3.67s2.12-2.11,3.66-2.8,3.23-1.03,5.07-1.03c2.92,0,5.21.73,6.87,2.19s2.52,3.47,2.58,6.04v11.67c0,2.33.3,4.18.89,5.55v.38h-4.55v-.01Zm-7.2-3.3c1.36,0,2.65-.35,3.87-1.05s2.1-1.62,2.65-2.74v-5.2h-3.4c-5.31,0-7.97,1.55-7.97,4.66,0,1.36.45,2.42,1.36,3.19s2.07,1.15,3.49,1.15v-.01Z" fill="#c9d1d9"/>
    <path d="m1283.87,300.74c0-1.17-.44-2.08-1.32-2.73s-2.42-1.21-4.62-1.68-3.94-1.03-5.23-1.69-2.24-1.44-2.86-2.34-.93-1.98-.93-3.23c0-2.08.88-3.84,2.64-5.27s4-2.16,6.74-2.16c2.88,0,5.21.74,7,2.23s2.68,3.38,2.68,5.7h-4.36c0-1.19-.5-2.21-1.51-3.07s-2.28-1.29-3.81-1.29-2.81.34-3.7,1.03-1.34,1.59-1.34,2.7c0,1.05.41,1.84,1.24,2.37s2.32,1.04,4.49,1.52,3.92,1.06,5.26,1.73,2.34,1.48,2.99,2.43.97,2.1.97,3.46c0,2.27-.91,4.08-2.72,5.45s-4.16,2.05-7.05,2.05c-2.03,0-3.83-.36-5.39-1.08s-2.79-1.72-3.67-3.01-1.32-2.68-1.32-4.18h4.34c.08,1.45.66,2.61,1.75,3.46s2.52,1.28,4.3,1.28c1.64,0,2.96-.33,3.95-1s1.49-1.55,1.49-2.66l-.01-.02Z" fill="#c9d1d9"/>
    <path d="m1300.93,295.72l-2.72,2.84v8.91h-4.34v-36h4.34v21.77l2.32-2.79,7.9-8.34h5.27l-9.87,10.59,11.02,14.77h-5.09l-8.84-11.74.01-.01Z" fill="#c9d1d9"/>
    <path d="m1318.2,275.38c0-.7.21-1.3.64-1.78s1.07-.73,1.91-.73,1.48.24,1.92.73.66,1.08.66,1.78-.22,1.29-.66,1.76-1.08.7-1.92.7-1.48-.23-1.91-.7-.64-1.05-.64-1.76Zm4.69,32.09h-4.34v-25.36h4.34v25.36h0Z" fill="#c9d1d9"/>
    <path d="m1333.93,282.1l.14,3.19c1.94-2.44,4.47-3.66,7.59-3.66,5.36,0,8.06,3.02,8.11,9.07v16.76h-4.34v-16.78c-.02-1.83-.43-3.18-1.25-4.05s-2.1-1.31-3.83-1.31c-1.41,0-2.64.38-3.7,1.12s-1.89,1.73-2.48,2.95v18.07h-4.34v-25.36h4.1,0Z" fill="#c9d1d9"/>
    <path d="m1355.28,294.57c0-3.95.91-7.1,2.74-9.43s4.25-3.5,7.27-3.5,5.51,1.09,7.24,3.28l.21-2.81h3.96v24.75c0,3.28-.97,5.87-2.92,7.76s-4.56,2.84-7.84,2.84c-1.83,0-3.62-.39-5.37-1.17s-3.09-1.85-4.01-3.21l2.25-2.6c1.86,2.3,4.13,3.45,6.82,3.45,2.11,0,3.75-.59,4.93-1.78s1.77-2.86,1.77-5.02v-2.18c-1.73,2-4.1,3-7.1,3s-5.37-1.2-7.21-3.59-2.75-5.65-2.75-9.77l.01-.02Zm4.36.49c0,2.86.59,5.11,1.76,6.74s2.81,2.45,4.92,2.45c2.73,0,4.74-1.24,6.02-3.73v-11.58c-1.33-2.42-3.32-3.63-5.98-3.63-2.11,0-3.76.82-4.95,2.46s-1.78,4.07-1.78,7.29h.01Z" fill="#c9d1d9"/>
  </g>
  <g isolation="isolate">
    <g isolation="isolate">
      <path d="m101.685,647.476c0,5.078-.867,8.852-2.602,11.32s-4.445,3.703-8.133,3.703c-3.641,0-6.336-1.207-8.086-3.621s-2.656-6.02-2.719-10.816v-5.789c0-5.016.867-8.742,2.602-11.18s4.453-3.656,8.156-3.656c3.672,0,6.375,1.176,8.109,3.527s2.625,5.98,2.672,10.887v5.625Zm-4.336-5.93c0-3.672-.516-6.348-1.547-8.027s-2.664-2.52-4.898-2.52c-2.219,0-3.836.836-4.852,2.508s-1.539,4.242-1.57,7.711v6.938c0,3.688.535,6.41,1.605,8.168s2.691,2.637,4.863,2.637c2.141,0,3.73-.828,4.77-2.484s1.582-4.266,1.629-7.828v-7.102Z" fill="#c9d1d9"/>
    </g>
  </g>
  <g isolation="isolate">
    <g isolation="isolate">
      <path d="m75.686,518.03h-22.359v-3.117l11.812-13.125c1.75-1.984,2.957-3.598,3.621-4.84s.996-2.527.996-3.855c0-1.781-.539-3.242-1.617-4.383s-2.516-1.711-4.312-1.711c-2.156,0-3.832.613-5.027,1.84s-1.793,2.934-1.793,5.121h-4.336c0-3.141,1.012-5.68,3.035-7.617s4.73-2.906,8.121-2.906c3.172,0,5.68.832,7.523,2.496s2.766,3.879,2.766,6.645c0,3.359-2.141,7.359-6.422,12l-9.141,9.914h17.133v3.539Z" fill="#c9d1d9"/>
      <path d="m101.678,503.476c0,5.078-.867,8.852-2.602,11.32s-4.445,3.703-8.133,3.703c-3.641,0-6.336-1.207-8.086-3.621s-2.656-6.02-2.719-10.816v-5.789c0-5.016.867-8.742,2.602-11.18s4.453-3.656,8.156-3.656c3.672,0,6.375,1.176,8.109,3.527s2.625,5.98,2.672,10.887v5.625Zm-4.336-5.93c0-3.672-.516-6.348-1.547-8.027s-2.664-2.52-4.898-2.52c-2.219,0-3.836.836-4.852,2.508s-1.539,4.242-1.57,7.711v6.938c0,3.688.535,6.41,1.605,8.168s2.691,2.637,4.863,2.637c2.141,0,3.73-.828,4.77-2.484s1.582-4.266,1.629-7.828v-7.102Z" fill="#c9d1d9"/>
    </g>
  </g>
  <g isolation="isolate">
    <g isolation="isolate">
      <path d="m71.631,362.569h4.734v3.539h-4.734v7.922h-4.359v-7.922h-15.539v-2.555l15.281-23.648h4.617v22.664Zm-14.977,0h10.617v-16.734l-.516.938-10.102,15.797Z" fill="#c9d1d9"/>
      <path d="m101.678,359.475c0,5.078-.867,8.852-2.602,11.32s-4.445,3.703-8.133,3.703c-3.641,0-6.336-1.207-8.086-3.621s-2.656-6.02-2.719-10.816v-5.789c0-5.016.867-8.742,2.602-11.18s4.453-3.656,8.156-3.656c3.672,0,6.375,1.176,8.109,3.527s2.625,5.98,2.672,10.887v5.625Zm-4.336-5.93c0-3.672-.516-6.348-1.547-8.027s-2.664-2.52-4.898-2.52c-2.219,0-3.836.836-4.852,2.508s-1.539,4.242-1.57,7.711v6.938c0,3.688.535,6.41,1.605,8.168s2.691,2.637,4.863,2.637c2.141,0,3.73-.828,4.77-2.484s1.582-4.266,1.629-7.828v-7.102Z" fill="#c9d1d9"/>
    </g>
  </g>
  <g isolation="isolate">
    <g isolation="isolate">
      <path d="m70.342,195.882v3.68h-.797c-3.375.062-6.062,1.062-8.062,3s-3.156,4.664-3.469,8.18c1.797-2.062,4.25-3.094,7.359-3.094,2.969,0,5.34,1.047,7.113,3.141s2.66,4.797,2.66,8.109c0,3.516-.957,6.328-2.871,8.438s-4.48,3.164-7.699,3.164c-3.266,0-5.914-1.254-7.945-3.762s-3.047-5.738-3.047-9.691v-1.664c0-6.281,1.34-11.082,4.02-14.402s6.668-5.02,11.965-5.098h.773Zm-5.695,15.375c-1.484,0-2.852.445-4.102,1.336s-2.117,2.008-2.602,3.352v1.594c0,2.812.633,5.078,1.898,6.797s2.844,2.578,4.734,2.578c1.953,0,3.488-.719,4.605-2.156s1.676-3.32,1.676-5.648c0-2.344-.566-4.238-1.699-5.684s-2.637-2.168-4.512-2.168Z" fill="#c9d1d9"/>
      <path d="m101.678,215.476c0,5.078-.867,8.852-2.602,11.32s-4.445,3.703-8.133,3.703c-3.641,0-6.336-1.207-8.086-3.621s-2.656-6.02-2.719-10.816v-5.789c0-5.016.867-8.742,2.602-11.18s4.453-3.656,8.156-3.656c3.672,0,6.375,1.176,8.109,3.527s2.625,5.98,2.672,10.887v5.625Zm-4.336-5.93c0-3.672-.516-6.348-1.547-8.027s-2.664-2.52-4.898-2.52c-2.219,0-3.836.836-4.852,2.508s-1.539,4.242-1.57,7.711v6.938c0,3.688.535,6.41,1.605,8.168s2.691,2.637,4.863,2.637c2.141,0,3.73-.828,4.77-2.484s1.582-4.266,1.629-7.828v-7.102Z" fill="#c9d1d9"/>
    </g>
  </g>
  <g isolation="isolate">
    <g isolation="isolate">
      <path d="m110.546,26.709c0-3.891.922-7.02,2.766-9.387s4.258-3.551,7.242-3.551c2.969,0,5.32,1.016,7.055,3.047V3.6h4.336v36h-3.984l-.211-2.719c-1.734,2.125-4.148,3.188-7.242,3.188-2.938,0-5.332-1.203-7.184-3.609s-2.777-5.547-2.777-9.422v-.328Zm4.336.492c0,2.875.594,5.125,1.781,6.75s2.828,2.438,4.922,2.438c2.75,0,4.758-1.234,6.023-3.703v-11.648c-1.297-2.391-3.289-3.586-5.977-3.586-2.125,0-3.781.82-4.969,2.461s-1.781,4.07-1.781,7.289Z" fill="#c9d1d9"/>
      <path d="m139.351,39.6V5.475h11.156c3.703,0,6.488.766,8.355,2.297s2.801,3.797,2.801,6.797c0,1.594-.453,3.004-1.359,4.23s-2.141,2.176-3.703,2.848c1.844.516,3.301,1.496,4.371,2.941s1.605,3.168,1.605,5.168c0,3.062-.992,5.469-2.977,7.219s-4.789,2.625-8.414,2.625h-11.836Zm4.5-19.57h6.797c1.969,0,3.543-.493,4.723-1.479s1.77-2.325,1.77-4.017c0-1.879-.547-3.245-1.641-4.099s-2.758-1.28-4.992-1.28h-6.656v10.875Zm0,3.609v12.281h7.43c2.094,0,3.746-.543,4.957-1.629s1.816-2.582,1.816-4.488c0-4.109-2.234-6.164-6.703-6.164h-7.5Z" fill="#c9d1d9"/>
    </g>
  </g>
  <g isolation="isolate">
    <g isolation="isolate">
      <path d="m1749.76,636.671l.117,2.812c1.859-2.188,4.367-3.281,7.523-3.281,3.547,0,5.961,1.359,7.242,4.078.844-1.219,1.941-2.203,3.293-2.953s2.949-1.125,4.793-1.125c5.562,0,8.391,2.945,8.484,8.836v16.992h-4.336v-16.734c0-1.812-.414-3.168-1.242-4.066s-2.219-1.348-4.172-1.348c-1.609,0-2.945.48-4.008,1.441s-1.68,2.254-1.852,3.879v16.828h-4.359v-16.617c0-3.688-1.805-5.531-5.414-5.531-2.844,0-4.789,1.211-5.836,3.633v18.516h-4.336v-25.359h4.102Z" fill="#c9d1d9"/>
      <path d="m1802.518,655.304c0-1.172-.441-2.082-1.324-2.73s-2.422-1.207-4.617-1.676-3.938-1.031-5.227-1.688-2.242-1.438-2.859-2.344-.926-1.984-.926-3.234c0-2.078.879-3.836,2.637-5.273s4.004-2.156,6.738-2.156c2.875,0,5.207.742,6.996,2.227s2.684,3.383,2.684,5.695h-4.359c0-1.188-.504-2.211-1.512-3.07s-2.277-1.289-3.809-1.289c-1.578,0-2.812.344-3.703,1.031s-1.336,1.586-1.336,2.695c0,1.047.414,1.836,1.242,2.367s2.324,1.039,4.488,1.523,3.918,1.062,5.262,1.734,2.34,1.48,2.988,2.426.973,2.098.973,3.457c0,2.266-.906,4.082-2.719,5.449s-4.164,2.051-7.055,2.051c-2.031,0-3.828-.359-5.391-1.078s-2.785-1.723-3.668-3.012-1.324-2.684-1.324-4.184h4.336c.078,1.453.66,2.605,1.746,3.457s2.52,1.277,4.301,1.277c1.641,0,2.957-.332,3.949-.996s1.488-1.551,1.488-2.66Z" fill="#c9d1d9"/>
    </g>
  </g>
  <g isolation="isolate">
    <g isolation="isolate">
      <path d="m367.073,748.146c0-2.484.488-4.719,1.465-6.703s2.336-3.516,4.078-4.594,3.73-1.617,5.965-1.617c3.453,0,6.246,1.195,8.379,3.586s3.199,5.57,3.199,9.539v.305c0,2.469-.473,4.684-1.418,6.645s-2.297,3.488-4.055,4.582-3.777,1.641-6.059,1.641c-3.438,0-6.223-1.195-8.355-3.586s-3.199-5.555-3.199-9.492v-.305Zm4.359.516c0,2.812.652,5.07,1.957,6.773s3.051,2.555,5.238,2.555c2.203,0,3.953-.863,5.25-2.59s1.945-4.145,1.945-7.254c0-2.781-.66-5.035-1.98-6.762s-3.074-2.59-5.262-2.59c-2.141,0-3.867.852-5.18,2.555s-1.969,4.141-1.969,7.312Z" fill="#c9d1d9"/>
      <path d="m399.698,735.7l.141,3.188c1.938-2.438,4.469-3.656,7.594-3.656,5.359,0,8.062,3.023,8.109,9.07v16.758h-4.336v-16.781c-.016-1.828-.434-3.18-1.254-4.055s-2.098-1.312-3.832-1.312c-1.406,0-2.641.375-3.703,1.125s-1.891,1.734-2.484,2.953v18.07h-4.336v-25.359h4.102Z" fill="#c9d1d9"/>
      <path d="m436.846,754.333c0-1.172-.441-2.082-1.324-2.73s-2.422-1.207-4.617-1.676-3.938-1.031-5.227-1.688-2.242-1.438-2.859-2.344-.926-1.984-.926-3.234c0-2.078.879-3.836,2.637-5.273s4.004-2.156,6.738-2.156c2.875,0,5.207.742,6.996,2.227s2.684,3.383,2.684,5.695h-4.359c0-1.188-.504-2.211-1.512-3.07s-2.277-1.289-3.809-1.289c-1.578,0-2.812.344-3.703,1.031s-1.336,1.586-1.336,2.695c0,1.047.414,1.836,1.242,2.367s2.324,1.039,4.488,1.523,3.918,1.062,5.262,1.734,2.34,1.48,2.988,2.426.973,2.098.973,3.457c0,2.266-.906,4.082-2.719,5.449s-4.164,2.051-7.055,2.051c-2.031,0-3.828-.359-5.391-1.078s-2.785-1.723-3.668-3.012-1.324-2.684-1.324-4.184h4.336c.078,1.453.66,2.605,1.746,3.457s2.52,1.277,4.301,1.277c1.641,0,2.957-.332,3.949-.996s1.488-1.551,1.488-2.66Z" fill="#c9d1d9"/>
      <path d="m457.354,761.528c-3.438,0-6.234-1.129-8.391-3.387s-3.234-5.277-3.234-9.059v-.797c0-2.516.48-4.762,1.441-6.738s2.305-3.523,4.031-4.641,3.598-1.676,5.613-1.676c3.297,0,5.859,1.086,7.688,3.258s2.742,5.281,2.742,9.328v1.805h-17.18c.062,2.5.793,4.52,2.191,6.059s3.176,2.309,5.332,2.309c1.531,0,2.828-.312,3.891-.938s1.992-1.453,2.789-2.484l2.648,2.062c-2.125,3.266-5.312,4.898-9.562,4.898Zm-.539-22.734c-1.75,0-3.219.637-4.406,1.91s-1.922,3.059-2.203,5.355h12.703v-.328c-.125-2.203-.719-3.91-1.781-5.121s-2.5-1.816-4.312-1.816Z" fill="#c9d1d9"/>
      <path d="m478.143,729.56v6.141h4.734v3.352h-4.734v15.746c0,1.018.211,1.78.633,2.288.422.509,1.141.763,2.156.763.5,0,1.188-.094,2.062-.281v3.495c-1.141.311-2.25.466-3.328.466-1.938,0-3.398-.586-4.383-1.758s-1.477-2.836-1.477-4.992v-15.727h-4.617v-3.352h4.617v-6.141h4.336Z" fill="#c9d1d9"/>
    </g>
  </g>
  <g isolation="isolate">
    <g isolation="isolate">
      <path d="m939.652,748.146c0-2.484.488-4.719,1.465-6.703s2.336-3.516,4.078-4.594,3.73-1.617,5.965-1.617c3.453,0,6.246,1.195,8.379,3.586s3.199,5.57,3.199,9.539v.305c0,2.469-.473,4.684-1.418,6.645s-2.297,3.488-4.055,4.582-3.777,1.641-6.059,1.641c-3.438,0-6.223-1.195-8.355-3.586s-3.199-5.555-3.199-9.492v-.305Zm4.359.516c0,2.812.652,5.07,1.957,6.773s3.051,2.555,5.238,2.555c2.203,0,3.953-.863,5.25-2.59s1.945-4.145,1.945-7.254c0-2.781-.66-5.035-1.98-6.762s-3.074-2.59-5.262-2.59c-2.141,0-3.867.852-5.18,2.555s-1.969,4.141-1.969,7.312Z" fill="#c9d1d9"/>
      <path d="m970.309,761.06v-22.008h-4.008v-3.352h4.008v-2.602c0-2.719.727-4.82,2.18-6.305s3.508-2.227,6.164-2.227c1,0,1.992.132,2.977.396l-.234,3.495c-.734-.141-1.516-.211-2.344-.211-1.406,0-2.492.412-3.258,1.234-.766.823-1.148,2.003-1.148,3.538v2.681h5.414v3.352h-5.414v22.008h-4.336Z" fill="#c9d1d9"/>
      <path d="m986.973,761.06v-22.008h-4.008v-3.352h4.008v-2.602c0-2.719.727-4.82,2.18-6.305s3.508-2.227,6.164-2.227c1,0,1.992.132,2.977.396l-.234,3.495c-.734-.141-1.516-.211-2.344-.211-1.406,0-2.492.412-3.258,1.234-.766.823-1.148,2.003-1.148,3.538v2.681h5.414v3.352h-5.414v22.008h-4.336Z" fill="#c9d1d9"/>
      <path d="m1016.27,754.333c0-1.172-.441-2.082-1.324-2.73s-2.422-1.207-4.617-1.676-3.938-1.031-5.227-1.688-2.242-1.438-2.859-2.344-.926-1.984-.926-3.234c0-2.078.879-3.836,2.637-5.273s4.004-2.156,6.738-2.156c2.875,0,5.207.742,6.996,2.227s2.684,3.383,2.684,5.695h-4.359c0-1.188-.504-2.211-1.512-3.07s-2.277-1.289-3.809-1.289c-1.578,0-2.812.344-3.703,1.031s-1.336,1.586-1.336,2.695c0,1.047.414,1.836,1.242,2.367s2.324,1.039,4.488,1.523,3.918,1.062,5.262,1.734,2.34,1.48,2.988,2.426.973,2.098.973,3.457c0,2.266-.906,4.082-2.719,5.449s-4.164,2.051-7.055,2.051c-2.031,0-3.828-.359-5.391-1.078s-2.785-1.723-3.668-3.012-1.324-2.684-1.324-4.184h4.336c.078,1.453.66,2.605,1.746,3.457s2.52,1.277,4.301,1.277c1.641,0,2.957-.332,3.949-.996s1.488-1.551,1.488-2.66Z" fill="#c9d1d9"/>
      <path d="m1036.777,761.528c-3.438,0-6.234-1.129-8.391-3.387s-3.234-5.277-3.234-9.059v-.797c0-2.516.48-4.762,1.441-6.738s2.305-3.523,4.031-4.641,3.598-1.676,5.613-1.676c3.297,0,5.859,1.086,7.688,3.258s2.742,5.281,2.742,9.328v1.805h-17.18c.062,2.5.793,4.52,2.191,6.059s3.176,2.309,5.332,2.309c1.531,0,2.828-.312,3.891-.938s1.992-1.453,2.789-2.484l2.648,2.062c-2.125,3.266-5.312,4.898-9.562,4.898Zm-.539-22.734c-1.75,0-3.219.637-4.406,1.91s-1.922,3.059-2.203,5.355h12.703v-.328c-.125-2.203-.719-3.91-1.781-5.121s-2.5-1.816-4.312-1.816Z" fill="#c9d1d9"/>
      <path d="m1057.566,729.56v6.141h4.734v3.352h-4.734v15.746c0,1.018.211,1.78.633,2.288.422.509,1.141.763,2.156.763.5,0,1.188-.094,2.062-.281v3.495c-1.141.311-2.25.466-3.328.466-1.938,0-3.398-.586-4.383-1.758s-1.477-2.836-1.477-4.992v-15.727h-4.617v-3.352h4.617v-6.141h4.336Z" fill="#c9d1d9"/>
    </g>
  </g>
</svg>