<?xml version="1.0" encoding="UTF-8"?>
<svg id="Ebene_5" data-name="Ebene 5" xmlns="http://www.w3.org/2000/svg" viewBox="0 0 1810.8 774">
  <defs>
    <style>
      .cls-1, .cls-2, .cls-3 {
        fill: #c9d1d9;
      }

      .cls-4 {
        stroke-dasharray: 0 0 12 12;
      }

      .cls-4, .cls-5 {
        fill: none;
        stroke: #c9d1d9;
        stroke-miterlimit: 10;
        stroke-width: 2.83px;
      }

      .cls-2 {
        opacity: .2;
      }

      .cls-6 {
        letter-spacing: 0em;
      }

      .cls-3 {
        font-family: Roboto-Regular, Roboto;
        font-size: 48px;
      }
    </style>
  </defs>
  <g>
    <line class="cls-5" x1="136.8" y1="648" x2="1695.69" y2="648"/>
    <polygon class="cls-1" points="1690.07 656.24 1720.8 648.01 1690.07 639.76 1690.07 656.24"/>
  </g>
  <g>
    <line class="cls-5" x1="136.8" y1="648" x2="136.8" y2="97.11"/>
    <polygon class="cls-1" points="145.04 102.73 136.81 72 128.56 102.73 145.04 102.73"/>
  </g>
  <g>
    <line class="cls-5" x1="424.8" y1="288" x2="424.8" y2="294"/>
    <line class="cls-4" x1="424.8" y1="306" x2="424.8" y2="636"/>
    <line class="cls-5" x1="424.8" y1="642" x2="424.8" y2="648"/>
  </g>
  <g>
    <line class="cls-5" x1="1000.8" y1="288" x2="1000.8" y2="294"/>
    <line class="cls-4" x1="1000.8" y1="306" x2="1000.8" y2="636"/>
    <line class="cls-5" x1="1000.8" y1="642" x2="1000.8" y2="648"/>
  </g>
  <line class="cls-5" x1="280.8" y1="648" x2="280.8" y2="655.2"/>
  <line class="cls-5" x1="424.8" y1="648" x2="424.8" y2="655.2"/>
  <line class="cls-5" x1="568.8" y1="648" x2="568.8" y2="655.2"/>
  <line class="cls-5" x1="712.8" y1="648" x2="712.8" y2="655.2"/>
  <line class="cls-5" x1="856.8" y1="648" x2="856.8" y2="655.2"/>
  <line class="cls-5" x1="1000.8" y1="648" x2="1000.8" y2="655.2"/>
  <line class="cls-5" x1="1144.8" y1="648" x2="1144.8" y2="655.2"/>
  <line class="cls-5" x1="1288.8" y1="648" x2="1288.8" y2="655.2"/>
  <line class="cls-5" x1="1432.8" y1="648" x2="1432.8" y2="655.2"/>
  <line class="cls-5" x1="1576.8" y1="648" x2="1576.8" y2="655.2"/>
  <text class="cls-3" transform="translate(247.23 706.99)"><tspan x="0" y="0">-50</tspan></text>
  <text class="cls-3" transform="translate(1117.85 706.99)"><tspan x="0" y="0">50</tspan></text>
  <text class="cls-3" transform="translate(1248.37 706.99)"><tspan x="0" y="0">100</tspan></text>
  <text class="cls-3" transform="translate(1536.37 706.99)"><tspan x="0" y="0">200</tspan></text>
  <rect class="cls-2" x="424.8" y="504" width="576" height="144"/>
  <text class="cls-3" transform="translate(411.32 706.99)"><tspan x="0" y="0">0</tspan></text>
  <text class="cls-3" transform="translate(987.32 706.99)"><tspan x="0" y="0">0</tspan></text>
  <text class="cls-3" transform="translate(633.65 453.6)"><tspan x="0" y="0">Mas</tspan><tspan class="cls-6" x="92.77" y="0">k</tspan><tspan x="116.62" y="0">er</tspan></text>
  <path class="cls-5" d="m424.8,288c0,360-72,360-144,360"/>
  <path class="cls-5" d="m1000.8,288c0,360,288,360,576,360"/>
  <line class="cls-5" x1="1000.8" y1="288" x2="424.8" y2="288"/>
  <g>
    <path class="cls-1" d="m214.39,237.46c0,3.88-.89,6.99-2.67,9.34s-4.17,3.53-7.17,3.53c-3.2,0-5.68-1.13-7.43-3.4l-.21,2.93h-3.98v-36h4.34v13.43c1.75-2.17,4.16-3.26,7.24-3.26s5.5,1.16,7.25,3.49,2.64,5.52,2.64,9.56v.38Zm-4.34-.49c0-2.95-.57-5.23-1.71-6.84s-2.78-2.41-4.92-2.41c-2.86,0-4.91,1.33-6.16,3.98v10.97c1.33,2.66,3.4,3.98,6.21,3.98,2.08,0,3.7-.8,4.85-2.41s1.73-4.03,1.73-7.27Z"/>
    <path class="cls-1" d="m235.51,249.86c-.25-.5-.45-1.39-.61-2.67-2.02,2.09-4.42,3.14-7.22,3.14-2.5,0-4.55-.71-6.15-2.12s-2.4-3.21-2.4-5.38c0-2.64,1-4.69,3.01-6.15s4.83-2.19,8.47-2.19h4.22v-1.99c0-1.52-.45-2.72-1.36-3.62s-2.24-1.35-4.01-1.35c-1.55,0-2.84.39-3.89,1.17s-1.57,1.73-1.57,2.84h-4.36c0-1.27.45-2.49,1.35-3.67s2.12-2.11,3.66-2.8,3.23-1.03,5.07-1.03c2.92,0,5.21.73,6.87,2.19s2.52,3.47,2.58,6.04v11.67c0,2.33.3,4.18.89,5.55v.38h-4.55Zm-7.2-3.3c1.36,0,2.65-.35,3.87-1.05s2.1-1.62,2.65-2.74v-5.2h-3.4c-5.31,0-7.97,1.55-7.97,4.66,0,1.36.45,2.42,1.36,3.19s2.07,1.15,3.49,1.15Z"/>
    <path class="cls-1" d="m256.13,246.79c1.55,0,2.9-.47,4.05-1.41s1.8-2.11,1.92-3.52h4.1c-.08,1.45-.58,2.84-1.5,4.15s-2.15,2.36-3.69,3.14-3.17,1.17-4.89,1.17c-3.45,0-6.2-1.15-8.24-3.46s-3.06-5.46-3.06-9.46v-.73c0-2.47.45-4.66,1.36-6.59s2.21-3.41,3.9-4.48,3.7-1.59,6.01-1.59c2.84,0,5.21.85,7.09,2.55s2.89,3.91,3.01,6.63h-4.1c-.12-1.64-.75-2.99-1.86-4.04s-2.5-1.58-4.14-1.58c-2.2,0-3.91.79-5.12,2.38s-1.82,3.88-1.82,6.88v.82c0,2.92.6,5.17,1.8,6.75s2.92,2.37,5.16,2.37Z"/>
    <path class="cls-1" d="m278.16,238.12l-2.72,2.84v8.91h-4.34v-36h4.34v21.77l2.32-2.79,7.9-8.34h5.27l-9.87,10.59,11.02,14.77h-5.09l-8.84-11.74Z"/>
    <path class="cls-1" d="m317.87,243.89l4.88-19.38h4.34l-7.38,25.36h-3.52l-6.16-19.22-6,19.22h-3.52l-7.36-25.36h4.31l4.99,18.98,5.91-18.98h3.49l6.02,19.38Z"/>
    <path class="cls-1" d="m347.14,249.86c-.25-.5-.45-1.39-.61-2.67-2.02,2.09-4.42,3.14-7.22,3.14-2.5,0-4.55-.71-6.15-2.12s-2.4-3.21-2.4-5.38c0-2.64,1-4.69,3.01-6.15s4.83-2.19,8.47-2.19h4.22v-1.99c0-1.52-.45-2.72-1.36-3.62s-2.24-1.35-4.01-1.35c-1.55,0-2.84.39-3.89,1.17s-1.57,1.73-1.57,2.84h-4.36c0-1.27.45-2.49,1.35-3.67s2.12-2.11,3.66-2.8,3.23-1.03,5.07-1.03c2.92,0,5.21.73,6.87,2.19s2.52,3.47,2.58,6.04v11.67c0,2.33.3,4.18.89,5.55v.38h-4.55Zm-7.2-3.3c1.36,0,2.65-.35,3.87-1.05s2.1-1.62,2.65-2.74v-5.2h-3.4c-5.31,0-7.97,1.55-7.97,4.66,0,1.36.45,2.42,1.36,3.19s2.07,1.15,3.49,1.15Z"/>
    <path class="cls-1" d="m369.85,228.39c-.66-.11-1.37-.16-2.13-.16-2.84,0-4.77,1.21-5.79,3.63v18h-4.34v-25.36h4.22l.07,2.93c1.42-2.27,3.44-3.4,6.05-3.4.84,0,1.48.11,1.92.33v4.03Z"/>
    <path class="cls-1" d="m372.34,236.97c0-3.89.92-7.02,2.77-9.39s4.26-3.55,7.24-3.55,5.32,1.02,7.05,3.05v-13.22h4.34v36h-3.98l-.21-2.72c-1.73,2.12-4.15,3.19-7.24,3.19s-5.33-1.2-7.18-3.61-2.78-5.55-2.78-9.42v-.33Zm4.34.49c0,2.88.59,5.12,1.78,6.75s2.83,2.44,4.92,2.44c2.75,0,4.76-1.23,6.02-3.7v-11.65c-1.3-2.39-3.29-3.59-5.98-3.59-2.12,0-3.78.82-4.97,2.46s-1.78,4.07-1.78,7.29Z"/>
    <path class="cls-1" d="m197,282.1l.12,2.81c1.86-2.19,4.37-3.28,7.52-3.28,3.55,0,5.96,1.36,7.24,4.08.84-1.22,1.94-2.2,3.29-2.95s2.95-1.12,4.79-1.12c5.56,0,8.39,2.95,8.48,8.84v16.99h-4.34v-16.73c0-1.81-.41-3.17-1.24-4.07s-2.22-1.35-4.17-1.35c-1.61,0-2.95.48-4.01,1.44s-1.68,2.25-1.85,3.88v16.83h-4.36v-16.62c0-3.69-1.8-5.53-5.41-5.53-2.84,0-4.79,1.21-5.84,3.63v18.52h-4.34v-25.36h4.1Z"/>
    <path class="cls-1" d="m250.65,307.46c-.25-.5-.45-1.39-.61-2.67-2.02,2.09-4.42,3.14-7.22,3.14-2.5,0-4.55-.71-6.15-2.12s-2.4-3.21-2.4-5.38c0-2.64,1-4.69,3.01-6.15s4.83-2.19,8.47-2.19h4.22v-1.99c0-1.52-.45-2.72-1.36-3.62s-2.24-1.35-4.01-1.35c-1.55,0-2.84.39-3.89,1.17s-1.57,1.73-1.57,2.84h-4.36c0-1.27.45-2.49,1.35-3.67s2.12-2.11,3.66-2.8,3.23-1.03,5.07-1.03c2.92,0,5.21.73,6.87,2.19s2.52,3.47,2.58,6.04v11.67c0,2.33.3,4.18.89,5.55v.38h-4.55Zm-7.2-3.3c1.36,0,2.65-.35,3.87-1.05s2.1-1.62,2.65-2.74v-5.2h-3.4c-5.31,0-7.97,1.55-7.97,4.66,0,1.36.45,2.42,1.36,3.19s2.07,1.15,3.49,1.15Z"/>
    <path class="cls-1" d="m275.87,300.74c0-1.17-.44-2.08-1.32-2.73s-2.42-1.21-4.62-1.68-3.94-1.03-5.23-1.69-2.24-1.44-2.86-2.34-.93-1.98-.93-3.23c0-2.08.88-3.84,2.64-5.27s4-2.16,6.74-2.16c2.88,0,5.21.74,7,2.23s2.68,3.38,2.68,5.7h-4.36c0-1.19-.5-2.21-1.51-3.07s-2.28-1.29-3.81-1.29-2.81.34-3.7,1.03-1.34,1.59-1.34,2.7c0,1.05.41,1.84,1.24,2.37s2.32,1.04,4.49,1.52,3.92,1.06,5.26,1.73,2.34,1.48,2.99,2.43.97,2.1.97,3.46c0,2.27-.91,4.08-2.72,5.45s-4.16,2.05-7.05,2.05c-2.03,0-3.83-.36-5.39-1.08s-2.79-1.72-3.67-3.01-1.32-2.68-1.32-4.18h4.34c.08,1.45.66,2.61,1.75,3.46s2.52,1.28,4.3,1.28c1.64,0,2.96-.33,3.95-1s1.49-1.55,1.49-2.66Z"/>
    <path class="cls-1" d="m292.93,295.72l-2.72,2.84v8.91h-4.34v-36h4.34v21.77l2.32-2.79,7.9-8.34h5.27l-9.87,10.59,11.02,14.77h-5.09l-8.84-11.74Z"/>
    <path class="cls-1" d="m310.2,275.38c0-.7.21-1.3.64-1.78s1.07-.73,1.91-.73,1.48.24,1.92.73.66,1.08.66,1.78-.22,1.29-.66,1.76-1.08.7-1.92.7-1.48-.23-1.91-.7-.64-1.05-.64-1.76Zm4.69,32.09h-4.34v-25.36h4.34v25.36Z"/>
    <path class="cls-1" d="m325.93,282.1l.14,3.19c1.94-2.44,4.47-3.66,7.59-3.66,5.36,0,8.06,3.02,8.11,9.07v16.76h-4.34v-16.78c-.02-1.83-.43-3.18-1.25-4.05s-2.1-1.31-3.83-1.31c-1.41,0-2.64.38-3.7,1.12s-1.89,1.73-2.48,2.95v18.07h-4.34v-25.36h4.1Z"/>
    <path class="cls-1" d="m347.28,294.57c0-3.95.91-7.1,2.74-9.43s4.25-3.5,7.27-3.5,5.51,1.09,7.24,3.28l.21-2.81h3.96v24.75c0,3.28-.97,5.87-2.92,7.76s-4.56,2.84-7.84,2.84c-1.83,0-3.62-.39-5.37-1.17s-3.09-1.85-4.01-3.21l2.25-2.6c1.86,2.3,4.13,3.45,6.82,3.45,2.11,0,3.75-.59,4.93-1.78s1.77-2.86,1.77-5.02v-2.18c-1.73,2-4.1,3-7.1,3s-5.37-1.2-7.21-3.59-2.75-5.65-2.75-9.77Zm4.36.49c0,2.86.59,5.11,1.76,6.74s2.81,2.45,4.92,2.45c2.73,0,4.74-1.24,6.02-3.73v-11.58c-1.33-2.42-3.32-3.63-5.98-3.63-2.11,0-3.76.82-4.95,2.46s-1.78,4.07-1.78,7.29Z"/>
  </g>
  <text class="cls-3" transform="translate(470.59 249.86)"><tspan x="0" y="0">simultaneous-masking</tspan></text>
  <g>
    <path class="cls-1" d="m1203.05,249.86v-22.01h-4.01v-3.35h4.01v-2.6c0-2.72.73-4.82,2.18-6.3s3.51-2.23,6.16-2.23c1,0,1.99.13,2.98.4l-.23,3.5c-.73-.14-1.52-.21-2.34-.21-1.41,0-2.49.41-3.26,1.23-.77.82-1.15,2-1.15,3.54v2.68h5.41v3.35h-5.41v22.01h-4.34Z"/>
    <path class="cls-1" d="m1216.44,236.95c0-2.48.49-4.72,1.46-6.7s2.34-3.52,4.08-4.59,3.73-1.62,5.96-1.62c3.45,0,6.25,1.2,8.38,3.59s3.2,5.57,3.2,9.54v.3c0,2.47-.47,4.68-1.42,6.64s-2.3,3.49-4.05,4.58-3.78,1.64-6.06,1.64c-3.44,0-6.22-1.2-8.36-3.59s-3.2-5.55-3.2-9.49v-.3Zm4.36.52c0,2.81.65,5.07,1.96,6.77s3.05,2.55,5.24,2.55,3.95-.86,5.25-2.59,1.95-4.14,1.95-7.25c0-2.78-.66-5.04-1.98-6.76s-3.07-2.59-5.26-2.59-3.87.85-5.18,2.55-1.97,4.14-1.97,7.31Z"/>
    <path class="cls-1" d="m1257.22,228.39c-.66-.11-1.37-.16-2.13-.16-2.84,0-4.77,1.21-5.79,3.63v18h-4.34v-25.36h4.22l.07,2.93c1.42-2.27,3.44-3.4,6.05-3.4.84,0,1.48.11,1.92.33v4.03Z"/>
    <path class="cls-1" d="m1284.05,243.89l4.88-19.38h4.34l-7.38,25.36h-3.52l-6.16-19.22-6,19.22h-3.52l-7.36-25.36h4.31l4.99,18.98,5.91-18.98h3.49l6.02,19.38Z"/>
    <path class="cls-1" d="m1313.33,249.86c-.25-.5-.45-1.39-.61-2.67-2.02,2.09-4.42,3.14-7.22,3.14-2.5,0-4.55-.71-6.15-2.12s-2.4-3.21-2.4-5.38c0-2.64,1-4.69,3.01-6.15s4.83-2.19,8.47-2.19h4.22v-1.99c0-1.52-.45-2.72-1.36-3.62s-2.24-1.35-4.01-1.35c-1.55,0-2.84.39-3.89,1.17s-1.57,1.73-1.57,2.84h-4.36c0-1.27.45-2.49,1.35-3.67s2.12-2.11,3.66-2.8,3.23-1.03,5.07-1.03c2.92,0,5.21.73,6.87,2.19s2.52,3.47,2.58,6.04v11.67c0,2.33.3,4.18.89,5.55v.38h-4.55Zm-7.2-3.3c1.36,0,2.65-.35,3.87-1.05s2.1-1.62,2.65-2.74v-5.2h-3.4c-5.31,0-7.97,1.55-7.97,4.66,0,1.36.45,2.42,1.36,3.19s2.07,1.15,3.49,1.15Z"/>
    <path class="cls-1" d="m1336.04,228.39c-.66-.11-1.37-.16-2.13-.16-2.84,0-4.77,1.21-5.79,3.63v18h-4.34v-25.36h4.22l.07,2.93c1.42-2.27,3.44-3.4,6.05-3.4.84,0,1.48.11,1.92.33v4.03Z"/>
    <path class="cls-1" d="m1338.52,236.97c0-3.89.92-7.02,2.77-9.39s4.26-3.55,7.24-3.55,5.32,1.02,7.05,3.05v-13.22h4.34v36h-3.98l-.21-2.72c-1.73,2.12-4.15,3.19-7.24,3.19s-5.33-1.2-7.18-3.61-2.78-5.55-2.78-9.42v-.33Zm4.34.49c0,2.88.59,5.12,1.78,6.75s2.83,2.44,4.92,2.44c2.75,0,4.76-1.23,6.02-3.7v-11.65c-1.3-2.39-3.29-3.59-5.98-3.59-2.12,0-3.78.82-4.97,2.46s-1.78,4.07-1.78,7.29Z"/>
    <path class="cls-1" d="m1205,282.1l.12,2.81c1.86-2.19,4.37-3.28,7.52-3.28,3.55,0,5.96,1.36,7.24,4.08.84-1.22,1.94-2.2,3.29-2.95s2.95-1.12,4.79-1.12c5.56,0,8.39,2.95,8.48,8.84v16.99h-4.34v-16.73c0-1.81-.41-3.17-1.24-4.07s-2.22-1.35-4.17-1.35c-1.61,0-2.95.48-4.01,1.44s-1.68,2.25-1.85,3.88v16.83h-4.36v-16.62c0-3.69-1.8-5.53-5.41-5.53-2.84,0-4.79,1.21-5.84,3.63v18.52h-4.34v-25.36h4.1Z"/>
    <path class="cls-1" d="m1258.65,307.46c-.25-.5-.45-1.39-.61-2.67-2.02,2.09-4.42,3.14-7.22,3.14-2.5,0-4.55-.71-6.15-2.12s-2.4-3.21-2.4-5.38c0-2.64,1-4.69,3.01-6.15s4.83-2.19,8.47-2.19h4.22v-1.99c0-1.52-.45-2.72-1.36-3.62s-2.24-1.35-4.01-1.35c-1.55,0-2.84.39-3.89,1.17s-1.57,1.73-1.57,2.84h-4.36c0-1.27.45-2.49,1.35-3.67s2.12-2.11,3.66-2.8,3.23-1.03,5.07-1.03c2.92,0,5.21.73,6.87,2.19s2.52,3.47,2.58,6.04v11.67c0,2.33.3,4.18.89,5.55v.38h-4.55Zm-7.2-3.3c1.36,0,2.65-.35,3.87-1.05s2.1-1.62,2.65-2.74v-5.2h-3.4c-5.31,0-7.97,1.55-7.97,4.66,0,1.36.45,2.42,1.36,3.19s2.07,1.15,3.49,1.15Z"/>
    <path class="cls-1" d="m1283.87,300.74c0-1.17-.44-2.08-1.32-2.73s-2.42-1.21-4.62-1.68-3.94-1.03-5.23-1.69-2.24-1.44-2.86-2.34-.93-1.98-.93-3.23c0-2.08.88-3.84,2.64-5.27s4-2.16,6.74-2.16c2.88,0,5.21.74,7,2.23s2.68,3.38,2.68,5.7h-4.36c0-1.19-.5-2.21-1.51-3.07s-2.28-1.29-3.81-1.29-2.81.34-3.7,1.03-1.34,1.59-1.34,2.7c0,1.05.41,1.84,1.24,2.37s2.32,1.04,4.49,1.52,3.92,1.06,5.26,1.73,2.34,1.48,2.99,2.43.97,2.1.97,3.46c0,2.27-.91,4.08-2.72,5.45s-4.16,2.05-7.05,2.05c-2.03,0-3.83-.36-5.39-1.08s-2.79-1.72-3.67-3.01-1.32-2.68-1.32-4.18h4.34c.08,1.45.66,2.61,1.75,3.46s2.52,1.28,4.3,1.28c1.64,0,2.96-.33,3.95-1s1.49-1.55,1.49-2.66Z"/>
    <path class="cls-1" d="m1300.93,295.72l-2.72,2.84v8.91h-4.34v-36h4.34v21.77l2.32-2.79,7.9-8.34h5.27l-9.87,10.59,11.02,14.77h-5.09l-8.84-11.74Z"/>
    <path class="cls-1" d="m1318.2,275.38c0-.7.21-1.3.64-1.78s1.07-.73,1.91-.73,1.48.24,1.92.73.66,1.08.66,1.78-.22,1.29-.66,1.76-1.08.7-1.92.7-1.48-.23-1.91-.7-.64-1.05-.64-1.76Zm4.69,32.09h-4.34v-25.36h4.34v25.36Z"/>
    <path class="cls-1" d="m1333.93,282.1l.14,3.19c1.94-2.44,4.47-3.66,7.59-3.66,5.36,0,8.06,3.02,8.11,9.07v16.76h-4.34v-16.78c-.02-1.83-.43-3.18-1.25-4.05s-2.1-1.31-3.83-1.31c-1.41,0-2.64.38-3.7,1.12s-1.89,1.73-2.48,2.95v18.07h-4.34v-25.36h4.1Z"/>
    <path class="cls-1" d="m1355.28,294.57c0-3.95.91-7.1,2.74-9.43s4.25-3.5,7.27-3.5,5.51,1.09,7.24,3.28l.21-2.81h3.96v24.75c0,3.28-.97,5.87-2.92,7.76s-4.56,2.84-7.84,2.84c-1.83,0-3.62-.39-5.37-1.17s-3.09-1.85-4.01-3.21l2.25-2.6c1.86,2.3,4.13,3.45,6.82,3.45,2.11,0,3.75-.59,4.93-1.78s1.77-2.86,1.77-5.02v-2.18c-1.73,2-4.1,3-7.1,3s-5.37-1.2-7.21-3.59-2.75-5.65-2.75-9.77Zm4.36.49c0,2.86.59,5.11,1.76,6.74s2.81,2.45,4.92,2.45c2.73,0,4.74-1.24,6.02-3.73v-11.58c-1.33-2.42-3.32-3.63-5.98-3.63-2.11,0-3.76.82-4.95,2.46s-1.78,4.07-1.78,7.29Z"/>
  </g>
  <text class="cls-3" transform="translate(77.45 662.03)"><tspan x="0" y="0">0</tspan></text>
  <text class="cls-3" transform="translate(50.49 518.03)"><tspan x="0" y="0">20</tspan></text>
  <text class="cls-3" transform="translate(50.49 374.03)"><tspan x="0" y="0">40</tspan></text>
  <text class="cls-3" transform="translate(50.49 230.03)"><tspan x="0" y="0">60</tspan></text>
  <text class="cls-3" transform="translate(108.32 39.6)"><tspan x="0" y="0">dB</tspan></text>
  <text class="cls-3" transform="translate(1742.4 662.03)"><tspan x="0" y="0">ms</tspan></text>
  <text class="cls-3" transform="translate(364.94 761.06)"><tspan x="0" y="0">onset</tspan></text>
  <text class="cls-3" transform="translate(937.52 761.06)"><tspan x="0" y="0">offset</tspan></text>
</svg>