<?xml version="1.0" encoding="UTF-8"?>
<svg id="Ebene_1" data-name="Ebene 1" xmlns="http://www.w3.org/2000/svg" width="828" height="856.8" viewBox="0 0 828 856.8">
  <g id="Ebene_1-2" data-name="Ebene 1">
    <line x1="126" y1="752.4" x2="824.4" y2="752.4" fill="none" stroke="#7f7f7f" stroke-miterlimit="10" stroke-width="5.67"/>
    <line x1="126" y1="752.4" x2="126" y2="14.4" fill="none" stroke="#7f7f7f" stroke-miterlimit="10" stroke-width="5.67"/>
    <g id="g189">
      <path id="path191" d="m128.26,14.4h694.29v4.21H128.26v-4.21Z" fill="#7f7f7f"/>
    </g>
    <g id="g201">
      <path id="path203" d="m128.26,119.53h694.29v4.21H128.26v-4.21Z" fill="#7f7f7f"/>
    </g>
    <g id="g213">
      <path id="path215" d="m128.26,540.04h694.29v4.21H128.26v-4.21Z" fill="#7f7f7f"/>
    </g>
    <g id="g225">
      <path id="path227" d="m128.26,224.66h694.29v4.21H128.26v-4.21Z" fill="#7f7f7f"/>
    </g>
    <g id="g237">
      <path id="path239" d="m128.26,329.78h694.29v4.21H128.26v-4.21Z" fill="#7f7f7f"/>
    </g>
    <g id="g249">
      <path id="path251" d="m128.26,434.91h694.29v4.21H128.26v-4.21Z" fill="#7f7f7f"/>
    </g>
    <g id="g261">
      <path id="path263" d="m128.26,645.17h694.29v4.21H128.26v-4.21Z" fill="#7f7f7f"/>
    </g>
    <g id="g849">
      <path id="path851" d="m547.14,752.4V16.5h4.21v735.9h-4.21Z" fill="#7f7f7f"/>
    </g>
    <g id="g861">
      <path id="path863" d="m399.96,752.4V16.5h4.21v735.9h-4.21Z" fill="#7f7f7f"/>
    </g>
    <g id="g873">
      <path id="path875" d="m440.96,16.5v735.9h-4.21V16.5h4.21Z" fill="#7f7f7f"/>
    </g>
    <g id="g885">
      <path id="path887" d="m463.04,752.4V16.5h4.21v735.9h-4.21Z" fill="#7f7f7f"/>
    </g>
    <g id="g897">
      <path id="path899" d="m484.07,752.4V16.5h4.21v735.9h-4.21Z" fill="#7f7f7f"/>
    </g>
    <g id="g909">
      <path id="path911" d="m500.89,752.4V16.5h4.21v735.9h-4.21Z" fill="#7f7f7f"/>
    </g>
    <g id="g921">
      <path id="path923" d="m514.55,752.4V16.5h4.21v735.9h-4.21Z" fill="#7f7f7f"/>
    </g>
    <g id="g933">
      <path id="path935" d="m526.12,752.4V16.5h4.21v735.9h-4.21Z" fill="#7f7f7f"/>
    </g>
    <g id="g945">
      <path id="path947" d="m537.68,752.4V16.5h4.21v735.9h-4.21Z" fill="#7f7f7f"/>
    </g>
    <g id="g1281">
      <path id="path1283" d="m757.4,752.4V16.5h4.21v735.9h-4.21Z" fill="#7f7f7f"/>
    </g>
    <g id="g1293">
      <path id="path1295" d="m610.22,752.4V16.5h4.21v735.9h-4.21Z" fill="#7f7f7f"/>
    </g>
    <g id="g1305">
      <path id="path1307" d="m651.22,16.5v735.9h-4.21V16.5h4.21Z" fill="#7f7f7f"/>
    </g>
    <g id="g1317">
      <path id="path1319" d="m673.93,752.4V16.5h4.21v735.9h-4.21Z" fill="#7f7f7f"/>
    </g>
    <g id="g1329">
      <path id="path1331" d="m694.32,752.4V16.5h4.21v735.9h-4.21Z" fill="#7f7f7f"/>
    </g>
    <g id="g1341">
      <path id="path1343" d="m711.14,752.4V16.5h4.21v735.9h-4.21Z" fill="#7f7f7f"/>
    </g>
    <g id="g1353">
      <path id="path1355" d="m724.81,752.4V16.5h4.21v735.9h-4.21Z" fill="#7f7f7f"/>
    </g>
    <g id="g1365">
      <path id="path1367" d="m736.37,752.4V16.5h4.21v735.9h-4.21Z" fill="#7f7f7f"/>
    </g>
    <g id="g1377">
      <path id="path1379" d="m747.94,752.4V16.5h4.21v735.9h-4.21Z" fill="#7f7f7f"/>
    </g>
    <g id="g1401">
      <path id="path1403" d="m820.48,752.4V16.5h4.21v735.9h-4.21Z" fill="#7f7f7f"/>
    </g>
    <g id="g1497">
      <path id="path1499" d="m336.89,752.4V16.5h4.21v735.9h-4.21Z" fill="#7f7f7f"/>
    </g>
    <g id="g1509">
      <path id="path1511" d="m189.71,752.4V16.5h4.21v735.9h-4.21Z" fill="#7f7f7f"/>
    </g>
    <g id="g1521">
      <path id="path1523" d="m230.71,16.5v735.9h-4.21V16.5h4.21Z" fill="#7f7f7f"/>
    </g>
    <g id="g1533">
      <path id="path1535" d="m252.78,752.4V16.5h4.21v735.9h-4.21,0Z" fill="#7f7f7f"/>
    </g>
    <g id="g1545">
      <path id="path1547" d="m273.81,752.4V16.5h4.21v735.9h-4.21Z" fill="#7f7f7f"/>
    </g>
    <g id="g1557">
      <path id="path1559" d="m290.63,752.4V16.5h4.21v735.9h-4.21Z" fill="#7f7f7f"/>
    </g>
    <g id="g1569">
      <path id="path1571" d="m304.3,752.4V16.5h4.21v735.9h-4.21Z" fill="#7f7f7f"/>
    </g>
    <g id="g1581">
      <path id="path1583" d="m315.86,752.4V16.5h4.21v735.9h-4.21Z" fill="#7f7f7f"/>
    </g>
    <g id="g1593">
      <path id="path1595" d="m327.43,752.4V16.5h4.21v735.9h-4.21Z" fill="#7f7f7f"/>
    </g>
    <g id="g2025">
      <path id="path2027" d="m128.23,700.55h684.87" fill="#7f7f7f" stroke="#ccc" stroke-miterlimit="10" stroke-width=".1"/>
    </g>
  </g>
  <g id="Ebene_2" data-name="Ebene 2">
    <g id="g1605">
      <path id="path1607" d="m190.13,750.4l12.51-35.53,2.42.84,2.52.95-12.41,35.43-2.52-.84-2.52-.84v-.01Z" fill="#307eef"/>
      <path id="path1609" d="m205.06,715.71l-2.42-.84h0l2.42.84Z" fill="#307eef"/>
      <path id="path1611" d="m202.64,714.87l15.98-43.21,2.52.95,2.42.84-15.98,43.21-2.52-.95-2.42-.84Z" fill="#307eef"/>
      <path id="path1613" d="m221.14,672.61l-2.52-.95v-.11l2.52,1.05v.01Z" fill="#307eef"/>
      <path id="path1615" d="m218.62,671.56l17.03-43.94,2.52.95,2.42.95-17.03,44.05-2.42-.95-2.52-1.05v-.01Z" fill="#307eef"/>
      <path id="path1617" d="m238.17,628.56l-2.52-.95h0l2.52.95Z" fill="#307eef"/>
      <path id="path1619" d="m235.65,627.61l15.56-37.85,2.42.95,2.42.95-15.45,37.95-2.42-1.05-2.52-.95h-.01Z" fill="#307eef"/>
      <path id="path1621" d="m253.63,590.71l-2.42-.95v-.21l2.42,1.16h0Z" fill="#307eef"/>
      <path id="path1623" d="m251.21,589.56l15.77-33.75,2.31,1.16,2.42,1.05-15.66,33.85-2.42-1.16-2.42-1.16v.01Z" fill="#307eef"/>
      <path id="path1625" d="m269.29,556.97l-2.31-1.16v-.11l2.31,1.26v.01Z" fill="#307eef"/>
      <path id="path1627" d="m266.98,555.71l18.4-36.27,2.42,1.16,2.31,1.26-18.4,36.27-2.42-1.16-2.31-1.26Z" fill="#307eef"/>
      <path id="path1629" d="m287.79,520.59l-2.42-1.16h0l2.42,1.16Z" fill="#307eef"/>
      <path id="path1631" d="m285.37,519.44l29.44-55.4,2.31,1.26,2.31,1.26-29.33,55.3-2.31-1.26-2.42-1.16h0Z" fill="#307eef"/>
      <path id="path1633" d="m317.12,465.29l2.31,1.16v.11l-2.31-1.26v-.01Z" fill="#307eef"/>
      <path id="path1635" d="m314.81,464.14l6.1-12.19,2.31,1.16,2.42,1.16-6.2,12.19-2.31-1.16-2.31-1.16h-.01Z" fill="#307eef"/>
      <path id="path1637" d="m323.22,453.1l2.42,1.05v.11l-2.42-1.16h0Z" fill="#307eef"/>
      <path id="path1639" d="m320.8,452.05l3.36-7.36,2.42,1.16,2.31,1.05-3.26,7.25-2.42-1.05-2.42-1.05h.01Z" fill="#307eef"/>
      <path id="path1641" d="m326.58,445.85l-2.42-1.16h0l2.42,1.16Z" fill="#307eef"/>
      <path id="path1643" d="m324.17,444.69l1.68-3.47,2.42,1.16,2.31,1.16-1.68,3.47-2.31-1.16-2.42-1.16Z" fill="#307eef"/>
      <path id="path1645" d="m328.27,442.38l-2.42-1.16.11-.11,2.31,1.26v.01Z" fill="#307eef"/>
      <path id="path1647" d="m325.95,441.12l2.21-4.21,2.31,1.26,2.31,1.26-2.21,4.21-2.31-1.26-2.31-1.26Z" fill="#307eef"/>
      <path id="path1649" d="m330.47,438.17l-2.31-1.26.11-.11,2.21,1.37h-.01Z" fill="#307eef"/>
      <path id="path1651" d="m328.27,436.81l8.09-13.25,2.21,1.37,2.21,1.37-7.99,13.25-2.31-1.37-2.21-1.37Z" fill="#307eef"/>
      <path id="path1653" d="m338.57,424.93l-2.21-1.37v-.11l2.21,1.47v.01Z" fill="#307eef"/>
      <path id="path1655" d="m336.36,423.45l15.03-22.71,2.21,1.47,2.21,1.47-15.03,22.71-2.21-1.47-2.21-1.47Z" fill="#307eef"/>
      <path id="path1657" d="m353.6,402.22l-2.21-1.47.11-.11,2.1,1.58Z" fill="#307eef"/>
      <path id="path1659" d="m351.5,400.64l14.82-20.29,2.1,1.58,2.1,1.58-14.82,20.29-2.1-1.58-2.1-1.58Z" fill="#307eef"/>
      <path id="path1661" d="m368.43,381.93l-2.1-1.58v-.11l2.1,1.68v.01Z" fill="#307eef"/>
      <path id="path1663" d="m366.32,380.25l15.56-19.55,2.1,1.58,2,1.68-15.56,19.55-2-1.58-2.1-1.68Z" fill="#307eef"/>
      <path id="path1665" d="m383.98,362.27l-2.1-1.58.11-.11,2,1.68-.01.01Z" fill="#307eef"/>
      <path id="path1667" d="m381.99,360.59l17.24-20.61,2,1.68,2,1.68-17.24,20.61-2-1.68-2-1.68h0Z" fill="#307eef"/>
      <path id="path1669" d="m401.23,341.66l-2-1.68h0l2,1.68Z" fill="#307eef"/>
      <path id="path1671" d="m399.23,339.98l24.39-28.81,2,1.79,2,1.68-24.39,28.7-2-1.68-2-1.68h0Z" fill="#307eef"/>
      <path id="path1673" d="m425.62,312.96l-2-1.79.11-.11,1.89,1.89v.01Z" fill="#307eef"/>
      <path id="path1675" d="m423.72,311.07l6.94-7.25,1.89,1.79,1.89,1.79-6.94,7.36-1.89-1.79-1.89-1.89v-.01Z" fill="#307eef"/>
      <path id="path1677" d="m432.55,305.61l-1.89-1.79.11-.11,1.79,1.89-.01.01Z" fill="#307eef"/>
      <path id="path1679" d="m430.77,303.71l8.31-8.2,1.89,1.89,1.79,1.79-8.31,8.31-1.89-1.89-1.79-1.89v-.01Z" fill="#307eef"/>
      <path id="path1681" d="m440.96,297.41l-1.89-1.89.11-.11,1.79,2h-.01Z" fill="#307eef"/>
      <path id="path1683" d="m439.18,295.41l23.02-20.92,1.79,1.89,1.79,1.89-23.13,21.03-1.68-1.89-1.79-2Z" fill="#307eef"/>
      <path id="path1685" d="m463.99,276.38l-1.79-1.89.11-.11,1.68,2h0Z" fill="#307eef"/>
      <path id="path1687" d="m462.31,274.38l9.67-7.78,1.68,2,1.58,2.1-9.57,7.67-1.68-2-1.68-2v.01Z" fill="#307eef"/>
      <path id="path1689" d="m473.66,268.6l-1.68-2,.11-.11,1.58,2.1-.01.01Z" fill="#307eef"/>
      <path id="path1691" d="m472.08,266.5l11.25-7.88,1.47,2.1,1.47,2.21-11.14,7.88-1.47-2.21-1.58-2.1Z" fill="#307eef"/>
      <path id="path1693" d="m484.8,260.72l-1.47-2.1.11-.11,1.37,2.21h-.01Z" fill="#307eef"/>
      <path id="path1695" d="m483.44,258.51l11.98-7.67,1.47,2.21,1.37,2.21-12.09,7.67-1.37-2.21-1.37-2.21h.01Z" fill="#307eef"/>
      <path id="path1697" d="m496.89,253.04l-1.47-2.21.11-.11,1.37,2.31-.01.01Z" fill="#307eef"/>
      <path id="path1699" d="m495.53,250.73l12.3-7.15,1.37,2.21,1.37,2.31-12.41,7.25-1.26-2.31-1.37-2.31h0Z" fill="#307eef"/>
      <path id="path1701" d="m509.19,245.79l-1.37-2.21.11-.11,1.26,2.31v.01Z" fill="#307eef"/>
      <path id="path1703" d="m507.93,243.47l11.98-6.41,1.26,2.31,1.26,2.31-11.98,6.41-1.26-2.31-1.26-2.31h0Z" fill="#307eef"/>
      <path id="path1705" d="m521.18,239.37l-1.26-2.31.11-.11,1.16,2.42h-.01Z" fill="#307eef"/>
      <path id="path1707" d="m520.02,236.96l11.04-5.36,1.16,2.31,1.16,2.42-11.04,5.36-1.16-2.31-1.16-2.42Z" fill="#307eef"/>
      <path id="path1709" d="m532.22,233.91l-1.16-2.31.11-.11,1.05,2.42Z" fill="#307eef"/>
      <path id="path1711" d="m531.16,231.49l9.46-4.1,1.05,2.42,1.05,2.42-9.46,4.1-1.05-2.42-1.05-2.42Z" fill="#307eef"/>
      <path id="path1713" d="m541.68,229.81l-1.05-2.42h.11l.95,2.42h-.01Z" fill="#307eef"/>
      <path id="path1715" d="m540.73,227.39l3.89-1.47.95,2.52.84,2.42-3.89,1.47-.84-2.52-.95-2.42Z" fill="#307eef"/>
      <path id="path1717" d="m545.57,228.44l-.95-2.52h.11l.84,2.52Z" fill="#307eef"/>
      <path id="path1719" d="m544.73,225.92l3.36-1.05.74,2.52.74,2.52-3.26.95-.74-2.42-.84-2.52h0Z" fill="#307eef"/>
      <path id="path1721" d="m548.83,227.39l-.74-2.52h.11l.63,2.52Z" fill="#307eef"/>
      <path id="path1723" d="m548.19,224.87l18.19-4.84.63,2.63.63,2.52-18.19,4.73-.63-2.52-.63-2.52Z" fill="#307eef"/>
      <path id="path1725" d="m567.01,222.66l-.63-2.63h0l.63,2.63Z" fill="#307eef"/>
      <path id="path1727" d="m566.38,220.03l14.82-3.57.63,2.52.63,2.63-14.82,3.57-.63-2.52-.63-2.63Z" fill="#307eef"/>
      <path id="path1729" d="m581.84,218.98l-.63-2.52h.11l.53,2.52h-.01Z" fill="#307eef"/>
      <path id="path1731" d="m581.31,216.46l7.04-1.47.53,2.63.42,2.52-6.94,1.47-.53-2.63-.53-2.52h.01Z" fill="#307eef"/>
      <path id="path1733" d="m588.88,217.61l-.53-2.63h0l.53,2.63Z" fill="#307eef"/>
      <path id="path1735" d="m588.35,214.98l7.15-1.16.42,2.52.42,2.63-7.04,1.16-.42-2.52-.53-2.63Z" fill="#307eef"/>
      <path id="path1737" d="m595.92,216.35l-.42-2.52h0l.42,2.52Z" fill="#307eef"/>
      <path id="path1739" d="m595.5,213.83l7.57-1.05.32,2.63.32,2.63-7.46.95-.32-2.63-.42-2.52-.01-.01Z" fill="#307eef"/>
      <path id="path1741" d="m603.39,215.41l-.32-2.63h0l.32,2.63Z" fill="#307eef"/>
      <path id="path1743" d="m603.07,212.78l8.2-.84.32,2.63.32,2.63-8.31.84-.21-2.63-.32-2.63Z" fill="#307eef"/>
      <path id="path1745" d="m611.59,214.56l-.32-2.63h.11l.21,2.63Z" fill="#307eef"/>
      <path id="path1747" d="m611.38,211.94l11.04-.74.21,2.63.11,2.63-10.93.74-.21-2.63-.21-2.63h-.01Z" fill="#307eef"/>
      <path id="path1749" d="m622.63,213.83l-.21-2.63h.11l.11,2.63h-.01Z" fill="#307eef"/>
      <path id="path1751" d="m622.52,211.2l10.62-.32v2.63l.11,2.63-10.62.32v-2.63l-.11-2.63Z" fill="#307eef"/>
      <path id="path1753" d="m633.14,213.51v-2.63h.11l-.11,2.63Z" fill="#307eef"/>
      <path id="path1755" d="m633.24,210.88l10.2.21v5.26l-10.3-.21v-2.63l.11-2.63h-.01Z" fill="#307eef"/>
      <path id="path1757" d="m643.44,213.72v-2.63h.11l-.11,2.63Z" fill="#307eef"/>
      <path id="path1759" d="m643.55,211.09l10.09.53-.11,2.63-.11,2.63-10.09-.53.11-2.63.11-2.63Z" fill="#307eef"/>
      <path id="path1761" d="m653.53,214.25l.11-2.63h.11l-.21,2.63h-.01Z" fill="#307eef"/>
      <path id="path1763" d="m653.74,211.62l10.09.84-.21,2.63-.32,2.63-9.99-.84.21-2.63.21-2.63h.01Z" fill="#307eef"/>
      <path id="path1765" d="m663.63,215.09l.21-2.63.11.11-.32,2.52Z" fill="#307eef"/>
      <path id="path1767" d="m663.94,212.57l10.09,1.16-.32,2.63-.32,2.63-10.09-1.26.32-2.63.32-2.52v-.01Z" fill="#307eef"/>
      <path id="path1769" d="m673.72,216.35l.32-2.63h.11l-.42,2.63h-.01Z" fill="#307eef"/>
      <path id="path1771" d="m674.14,213.72l21.13,3.36-.42,2.63-.42,2.63-21.13-3.36.42-2.63.42-2.63Z" fill="#307eef"/>
      <path id="path1773" d="m694.85,219.72l.42-2.63.11.11-.53,2.52h0Z" fill="#307eef"/>
      <path id="path1775" d="m695.37,217.19l10.3,2.1-.53,2.63-.53,2.52-10.3-2.21.53-2.52.53-2.52Z" fill="#307eef"/>
      <path id="path1777" d="m705.15,221.92l.53-2.63.21.11-.74,2.52h0Z" fill="#307eef"/>
      <path id="path1779" d="m705.89,219.4l9.15,2.63-.63,2.52-.74,2.52-9.25-2.63.74-2.52.74-2.52h-.01Z" fill="#307eef"/>
      <path id="path1781" d="m714.4,224.55l.63-2.52.21.11-.84,2.42v-.01Z" fill="#307eef"/>
      <path id="path1783" d="m715.24,222.13l8.31,3.05-.95,2.52-.84,2.42-8.31-3.15.95-2.42.84-2.42h0Z" fill="#307eef"/>
      <path id="path1785" d="m722.6,227.71l.95-2.52.21.11-1.16,2.42v-.01Z" fill="#307eef"/>
      <path id="path1787" d="m723.76,225.29l7.67,3.68-1.16,2.31-1.05,2.42-7.67-3.68,1.05-2.31,1.16-2.42Z" fill="#307eef"/>
      <path id="path1789" d="m730.28,231.28l1.16-2.31h.21l-1.37,2.31Z" fill="#307eef"/>
      <path id="path1791" d="m731.64,228.97l7.25,4.21-1.37,2.21-1.26,2.31-7.25-4.1,1.26-2.31,1.37-2.31v-.01Z" fill="#307eef"/>
      <path id="path1793" d="m737.53,235.38l1.37-2.21h.11l-1.47,2.21h-.01Z" fill="#307eef"/>
      <path id="path1795" d="m739,233.17l7.04,4.63-1.37,2.21-1.47,2.21-7.04-4.63,1.37-2.21,1.47-2.21Z" fill="#307eef"/>
      <path id="path1797" d="m744.68,240.01l1.37-2.21.11.11-1.47,2.1h-.01Z" fill="#307eef"/>
      <path id="path1799" d="m746.15,237.9l14.72,10.62-1.58,2.1-1.58,2.1-14.61-10.62,1.58-2.1,1.47-2.1h0Z" fill="#307eef"/>
      <path id="path1801" d="m759.29,250.62l1.58-2.1.11.11-1.68,2-.01-.01Z" fill="#307eef"/>
      <path id="path1803" d="m760.97,248.63l8.41,6.73-1.68,2.1-1.68,2-8.41-6.83,1.68-2,1.68-2h0Z" fill="#307eef"/>
      <path id="path1805" d="m767.7,257.46l1.68-2.1.11.21-1.79,1.89Z" fill="#307eef"/>
      <path id="path1807" d="m769.49,255.56l8.2,7.57-1.79,1.89-1.79,1.89-8.2-7.57,1.79-1.89,1.79-1.89h0Z" fill="#307eef"/>
      <path id="path1809" d="m775.9,265.03l1.79-1.89h.11l-1.89,1.89h-.01Z" fill="#307eef"/>
      <path id="path1811" d="m777.79,263.13l7.99,8.31-1.89,1.79-1.89,1.89-7.99-8.31,1.89-1.79,1.89-1.89Z" fill="#307eef"/>
      <path id="path1813" d="m783.89,273.23l1.89-1.79.11.11-2,1.68h0Z" fill="#307eef"/>
      <path id="path1815" d="m785.89,271.54l7.78,8.83-2,1.68-2,1.79-7.78-8.83,2-1.79,2-1.68Z" fill="#307eef"/>
      <path id="path1817" d="m791.67,282.06l2-1.68v.11l-2,1.58v-.01Z" fill="#307eef"/>
      <path id="path1819" d="m793.67,280.48l7.57,9.25-2,1.68-2,1.68-7.67-9.36,2.1-1.68,2-1.58v.01Z" fill="#307eef"/>
      <path id="path1821" d="m799.24,291.41l2-1.68.11.11-2.1,1.58-.01-.01Z" fill="#307eef"/>
      <path id="path1823" d="m801.34,289.84l7.46,9.78-2.1,1.68-2.1,1.58-7.46-9.88,2.1-1.58,2.1-1.58Z" fill="#307eef"/>
      <path id="path1825" d="m806.71,301.29l2.1-1.68v.11l-2.1,1.58v-.01Z" fill="#307eef"/>
      <path id="path1827" d="m808.81,299.72l14.4,20.71-2.1,1.47-2.1,1.47-14.51-20.61,2.21-1.47,2.1-1.58v.01Z" fill="#307eef"/>
    </g>
    <g id="g1837">
      <path id="path1839" d="m126,374.78l6.94-12.62,2.31,1.26,2.31,1.26-6.94,12.62-2.31-1.26-2.31-1.26Z" fill="#d85648"/>
      <path id="path1841" d="m135.25,363.43l-2.31-1.26.11-.11,2.21,1.37h-.01Z" fill="#d85648"/>
      <path id="path1843" d="m133.04,362.06l7.36-11.98,2.21,1.37,2.21,1.37-7.36,11.98-2.21-1.37-2.21-1.37Z" fill="#d85648"/>
      <path id="path1845" d="m142.61,351.44l-2.21-1.37v-.11l2.21,1.47v.01Z" fill="#d85648"/>
      <path id="path1847" d="m140.4,349.97l7.67-11.46,2.21,1.37,2.1,1.47-7.57,11.56-2.21-1.47-2.21-1.47h.01Z" fill="#d85648"/>
      <path id="path1849" d="m150.28,339.88l-2.21-1.37v-.11l2.21,1.47v.01Z" fill="#d85648"/>
      <path id="path1851" d="m148.08,338.41l7.88-10.93,2.21,1.58,2.1,1.47-7.88,10.93-2.1-1.58-2.21-1.47Z" fill="#d85648"/>
      <path id="path1853" d="m158.17,329.05l-2.21-1.58.11-.11,2.1,1.68v.01Z" fill="#d85648"/>
      <path id="path1855" d="m156.07,327.37l8.09-10.3,2.1,1.58,2,1.58-8.09,10.41-2-1.58-2.1-1.68v-.01Z" fill="#d85648"/>
      <path id="path1857" d="m166.26,318.64l-2.1-1.58.11-.11,2,1.68-.01.01Z" fill="#d85648"/>
      <path id="path1859" d="m164.27,316.96l8.2-9.78,2,1.68,2,1.68-8.2,9.78-2-1.68-2-1.68Z" fill="#d85648"/>
      <path id="path1861" d="m174.46,308.86l-2-1.68v-.11l2,1.79h0Z" fill="#d85648"/>
      <path id="path1863" d="m172.47,307.08l8.31-9.15,1.89,1.79,2,1.68-8.31,9.25-1.89-1.79-2-1.79v.01Z" fill="#d85648"/>
      <path id="path1865" d="m182.66,299.72l-1.89-1.79v-.11l1.89,1.89v.01Z" fill="#d85648"/>
      <path id="path1867" d="m180.77,297.83l8.31-8.52,1.89,1.79,1.89,1.79-8.31,8.62-1.89-1.79-1.89-1.89Z" fill="#d85648"/>
      <path id="path1869" d="m190.97,291.1l-1.89-1.79.11-.11,1.79,1.89-.01.01Z" fill="#d85648"/>
      <path id="path1871" d="m189.18,289.21l8.73-8.31,1.89,1.89,1.79,1.89-8.83,8.31-1.79-1.89-1.79-1.89Z" fill="#d85648"/>
      <path id="path1873" d="m199.8,282.79l-1.89-1.89.11-.11,1.79,2h-.01Z" fill="#d85648"/>
      <path id="path1875" d="m198.01,280.79l9.57-8.09,1.68,2,1.68,2-9.46,8.09-1.68-2-1.79-2h0Z" fill="#d85648"/>
      <path id="path1877" d="m209.26,274.7l-1.68-2,.11-.11,1.58,2.1-.01.01Z" fill="#d85648"/>
      <path id="path1879" d="m207.68,272.59l10.2-7.67,1.58,2,1.58,2.1-10.2,7.78-1.58-2.1-1.58-2.1v-.01Z" fill="#d85648"/>
      <path id="path1881" d="m219.46,266.92l-1.58-2,.11-.11,1.47,2.1v.01Z" fill="#d85648"/>
      <path id="path1883" d="m217.99,264.82l10.62-7.25,1.47,2.21,1.47,2.21-10.62,7.15-1.47-2.21-1.47-2.1v-.01Z" fill="#d85648"/>
      <path id="path1885" d="m230.08,259.77l-1.47-2.21.11-.11,1.37,2.31-.01.01Z" fill="#d85648"/>
      <path id="path1887" d="m228.71,257.46l11.04-6.52,1.37,2.21,1.37,2.31-11.04,6.52-1.37-2.21-1.37-2.31Z" fill="#d85648"/>
      <path id="path1889" d="m241.12,253.15l-1.37-2.21.21-.11,1.16,2.31v.01Z" fill="#d85648"/>
      <path id="path1891" d="m239.96,250.83l11.25-5.78,1.16,2.31,1.26,2.42-11.25,5.78-1.26-2.42-1.16-2.31Z" fill="#d85648"/>
      <path id="path1893" d="m252.36,247.36l-1.16-2.31.11-.11,1.05,2.42Z" fill="#d85648"/>
      <path id="path1895" d="m251.31,244.95l11.35-4.84,1.05,2.42,1.05,2.42-11.35,4.84-1.05-2.42-1.05-2.42h0Z" fill="#d85648"/>
      <path id="path1897" d="m263.72,242.53l-1.05-2.42h.21l.84,2.42Z" fill="#d85648"/>
      <path id="path1899" d="m262.88,240.11l11.35-3.89.84,2.52.84,2.52-11.35,3.78-.84-2.52-.84-2.42v.01Z" fill="#d85648"/>
      <path id="path1901" d="m275.07,238.74l-.84-2.52h.21l.63,2.52Z" fill="#d85648"/>
      <path id="path1903" d="m274.44,236.22l7.46-2,.74,2.52.63,2.52-7.57,2-.63-2.52-.63-2.52h0Z" fill="#d85648"/>
      <path id="path1905" d="m282.64,236.75l-.74-2.52h.11l.63,2.52Z" fill="#d85648"/>
      <path id="path1907" d="m282.01,234.22l7.67-1.68.63,2.52.53,2.63-7.67,1.68-.53-2.63-.63-2.52Z" fill="#d85648"/>
      <path id="path1909" d="m290.32,235.06l-.63-2.52h.21l.42,2.52Z" fill="#d85648"/>
      <path id="path1911" d="m289.89,232.54l15.66-2.63.42,2.63.42,2.52-15.66,2.63-.42-2.63-.42-2.52Z" fill="#d85648"/>
      <path id="path1913" d="m305.98,232.54l-.42-2.63h.11l.32,2.63h-.01Z" fill="#d85648"/>
      <path id="path1915" d="m305.66,229.91l16.19-1.89.32,2.63.21,2.63-16.08,1.89-.32-2.63-.32-2.63Z" fill="#d85648"/>
      <path id="path1917" d="m322.17,230.65l-.32-2.63h.11l.21,2.63h0Z" fill="#d85648"/>
      <path id="path1919" d="m321.96,228.02l16.4-1.37.21,2.63.21,2.63-16.4,1.37-.21-2.63-.21-2.63Z" fill="#d85648"/>
      <path id="path1921" d="m338.57,229.28l-.21-2.63h0l.21,2.63Z" fill="#d85648"/>
      <path id="path1923" d="m338.36,226.65l15.45-1.05.21,2.63.21,2.63-15.45,1.05-.21-2.63-.21-2.63Z" fill="#d85648"/>
      <path id="path1925" d="m354.02,228.23l-.21-2.63h.11l.11,2.63h-.01Z" fill="#d85648"/>
      <path id="path1927" d="m353.92,225.6l13.56-.53.11,2.63v2.63l-13.46.53-.11-2.63-.11-2.63h.01Z" fill="#d85648"/>
      <path id="path1929" d="m367.58,227.71l-.11-2.63h0l.11,2.63Z" fill="#d85648"/>
      <path id="path1931" d="m367.48,225.08l33.75-.21v5.26l-33.64.21v-2.63l-.11-2.63h0Z" fill="#d85648"/>
      <path id="path1935" d="m401.23,224.87l63.6-.84v5.26l-63.6.84v-5.26Z" fill="#d85648"/>
      <path id="path1939" d="m464.83,224.03l85.05.84v5.26l-85.05-.84v-5.26h0Z" fill="#d85648"/>
      <path id="path1943" d="m549.88,224.87l31.33-.11v5.26l-31.33.11v-5.26Z" fill="#d85648"/>
      <path id="path1945" d="m581.21,227.39v-2.63h.11l-.11,2.63Z" fill="#d85648"/>
      <path id="path1947" d="m581.31,224.76l36.58.63v2.63l-.11,2.63-36.58-.63v-2.63l.11-2.63Z" fill="#d85648"/>
      <path id="path1949" d="m617.89,228.02v-2.63h.11l-.11,2.63Z" fill="#d85648"/>
      <path id="path1951" d="m618,225.39l33.96,1.26-.11,2.63-.11,2.63-33.96-1.26.11-2.63.11-2.63Z" fill="#d85648"/>
      <path id="path1953" d="m651.85,229.28l.11-2.63h0l-.11,2.63Z" fill="#d85648"/>
      <path id="path1955" d="m651.96,226.65l13.56.74-.21,2.63-.11,2.63-13.56-.74.21-2.63.11-2.63Z" fill="#d85648"/>
      <path id="path1957" d="m665.31,230.02l.21-2.63v.11l-.21,2.52Z" fill="#d85648"/>
      <path id="path1959" d="m665.52,227.49l9.88.84-.21,2.63-.21,2.63-9.88-.95.21-2.63.21-2.52Z" fill="#d85648"/>
      <path id="path1961" d="m675.19,230.96l.21-2.63h.32l-.53,2.63Z" fill="#d85648"/>
      <path id="path1963" d="m675.72,228.34l8.73,1.79-.53,2.52-.53,2.63-8.73-1.68.53-2.63.53-2.63Z" fill="#d85648"/>
      <path id="path1965" d="m683.92,232.65l.53-2.52h.21l-.74,2.52h0Z" fill="#d85648"/>
      <path id="path1967" d="m684.65,230.12l9.46,2.63-.74,2.52-.63,2.52-9.46-2.63.63-2.52.74-2.52Z" fill="#d85648"/>
      <path id="path1969" d="m693.38,235.27l.74-2.52h.11l-.84,2.52h-.01Z" fill="#d85648"/>
      <path id="path1971" d="m694.22,232.75l10.09,3.57-.84,2.42-.84,2.52-10.09-3.57.84-2.42.84-2.52Z" fill="#d85648"/>
      <path id="path1973" d="m703.47,238.74l.84-2.42h.21l-1.05,2.42h0Z" fill="#d85648"/>
      <path id="path1975" d="m704.52,236.33l10.62,4.63-1.05,2.42-1.05,2.31-10.62-4.52,1.05-2.42,1.05-2.42Z" fill="#d85648"/>
      <path id="path1977" d="m714.09,243.37l1.05-2.42h.21l-1.26,2.42Z" fill="#d85648"/>
      <path id="path1979" d="m715.35,240.95l11.04,5.68-1.16,2.31-1.26,2.31-11.04-5.57,1.16-2.31,1.26-2.42h0Z" fill="#d85648"/>
      <path id="path1981" d="m725.23,248.94l1.16-2.31h.11l-1.26,2.31h-.01Z" fill="#d85648"/>
      <path id="path1983" d="m726.49,246.63l11.46,6.83-1.37,2.21-1.37,2.31-11.35-6.83,1.37-2.21,1.26-2.31h0Z" fill="#d85648"/>
      <path id="path1985" d="m736.58,255.67l1.37-2.21.11.11-1.47,2.1h-.01Z" fill="#d85648"/>
      <path id="path1987" d="m738.06,253.57l11.67,7.99-1.47,2.21-1.47,2.1-11.67-7.99,1.47-2.21,1.47-2.1h0Z" fill="#d85648"/>
      <path id="path1989" d="m748.25,263.76l1.47-2.21.21.11-1.68,2.1Z" fill="#d85648"/>
      <path id="path1991" d="m749.94,261.66l11.77,9.25-1.58,2.1-1.58,2.1-11.88-9.36,1.58-2,1.68-2.1.01.01Z" fill="#d85648"/>
      <path id="path1993" d="m760.13,273.02l1.58-2.1.11.11-1.68,2-.01-.01Z" fill="#d85648"/>
      <path id="path1995" d="m761.82,271.02l8.52,6.94-1.68,2.1-1.68,2-8.52-7.04,1.68-2,1.68-2Z" fill="#d85648"/>
      <path id="path1997" d="m768.65,280.06l1.68-2.1.11.11-1.79,2v-.01Z" fill="#d85648"/>
      <path id="path1999" d="m770.44,278.06l8.2,7.46-1.79,2-1.79,1.89-8.2-7.46,1.79-1.89,1.79-2Z" fill="#d85648"/>
      <path id="path2001" d="m776.85,287.52l1.79-2v.11l-1.79,1.89Z" fill="#d85648"/>
      <path id="path2003" d="m778.64,285.63l7.88,7.99-1.79,1.79-1.89,1.89-7.88-7.88,1.89-1.89,1.79-1.89v-.01Z" fill="#d85648"/>
      <path id="path2005" d="m784.73,295.41l1.79-1.79.11.11-1.89,1.68h-.01Z" fill="#d85648"/>
      <path id="path2007" d="m786.63,293.73l7.67,8.31-2,1.79-1.89,1.79-7.67-8.41,2-1.79,1.89-1.68v-.01Z" fill="#d85648"/>
      <path id="path2009" d="m792.3,303.82l2-1.79.11.11-2.1,1.68h-.01Z" fill="#d85648"/>
      <path id="path2011" d="m794.41,302.14l14.82,18.19-2,1.58-2,1.68-14.93-18.08,2-1.68,2.1-1.68.01-.01Z" fill="#d85648"/>
      <path id="path2013" d="m807.23,321.9l2-1.58.11.11-2.1,1.47h-.01Z" fill="#d85648"/>
      <path id="path2015" d="m809.33,320.43l14.72,19.76-2.1,1.58-2.1,1.58-14.72-19.87,2.1-1.58,2.1-1.47Z" fill="#d85648"/>
    </g>
    <g id="g2109">
      <path id="path2111" d="m126.42,504.61l63.5-63.5,1.89,1.89,1.89,1.89-63.5,63.5-1.89-1.89-1.89-1.89Z" fill="#c9d1d9"/>
      <path id="path2113" d="m191.81,443.01l1.89,1.89h0l-1.89-1.89Z" fill="#c9d1d9"/>
      <path id="path2115" d="m189.92,441.12l20.08-20.08,1.89,1.89,1.89,1.89-20.08,20.08-1.89-1.89-1.89-1.89Z" fill="#c9d1d9"/>
      <path id="path2117" d="m211.89,422.93l1.89,1.79v.11l-1.89-1.89v-.01Z" fill="#c9d1d9"/>
      <path id="path2119" d="m210,421.14l23.55-24.39,1.89,1.79,1.79,1.89-23.44,24.28-1.89-1.79-1.89-1.79-.01.01Z" fill="#c9d1d9"/>
      <path id="path2121" d="m235.44,398.54l-1.89-1.79h0l1.89,1.79Z" fill="#c9d1d9"/>
      <path id="path2123" d="m233.55,396.75l22.29-22.92,1.89,1.79,1.89,1.89-22.39,22.92-1.79-1.89-1.89-1.79h0Z" fill="#c9d1d9"/>
      <path id="path2125" d="m257.73,375.62l-1.89-1.79v-.11l1.89,1.89v.01Z" fill="#c9d1d9"/>
      <path id="path2127" d="m255.83,373.73l9.36-9.15,1.79,1.89,1.89,1.89-9.36,9.15-1.79-1.89-1.89-1.89h0Z" fill="#c9d1d9"/>
      <path id="path2129" d="m266.98,366.47l-1.79-1.89h0l1.79,1.89Z" fill="#c9d1d9"/>
      <path id="path2131" d="m265.19,364.58l7.25-6.73,1.79,1.89,1.79,1.89-7.25,6.73-1.79-1.89-1.79-1.89Z" fill="#c9d1d9"/>
      <path id="path2133" d="m274.23,359.75l-1.79-1.89v-.11l1.79,2Z" fill="#c9d1d9"/>
      <path id="path2135" d="m272.44,357.75l31.43-28.17,1.79,2,1.79,1.89-31.43,28.28-1.79-2-1.79-2Z" fill="#c9d1d9"/>
      <path id="path2137" d="m305.66,331.57l-1.79-2h0l1.79,2Z" fill="#c9d1d9"/>
      <path id="path2139" d="m303.88,329.57l16.29-14.4,1.68,1.89,1.79,2-16.19,14.4-1.79-1.89-1.79-2h.01Z" fill="#c9d1d9"/>
      <path id="path2141" d="m321.85,317.06l-1.68-1.89v-.11l1.68,2Z" fill="#c9d1d9"/>
      <path id="path2143" d="m320.17,315.07l15.87-13.14,1.68,2,1.68,2-15.87,13.25-1.68-2.1-1.68-2v-.01Z" fill="#c9d1d9"/>
      <path id="path2145" d="m337.73,303.92l-1.68-2,.11-.11,1.58,2.1-.01.01Z" fill="#c9d1d9"/>
      <path id="path2147" d="m336.15,301.82l14.61-11.46,1.58,2.1,1.58,2.1-14.61,11.46-1.58-2.1-1.58-2.1Z" fill="#c9d1d9"/>
      <path id="path2149" d="m352.34,292.46l-1.58-2.1h0l1.58,2.1Z" fill="#c9d1d9"/>
      <path id="path2151" d="m350.76,290.36l14.19-10.62,1.58,2.21,1.58,2.1-14.19,10.51-1.58-2.1-1.58-2.1Z" fill="#c9d1d9"/>
      <path id="path2153" d="m366.53,281.95l-1.58-2.21h.11l1.47,2.21Z" fill="#c9d1d9"/>
      <path id="path2155" d="m365.06,279.74l15.66-10.72,1.47,2.1,1.47,2.21-15.66,10.72-1.47-2.1-1.47-2.21Z" fill="#c9d1d9"/>
      <path id="path2157" d="m382.2,271.12l-1.47-2.1.11-.11,1.37,2.21h-.01Z" fill="#c9d1d9"/>
      <path id="path2159" d="m380.83,268.92l19.13-11.88,1.37,2.21,1.37,2.21-19.03,11.98-1.47-2.31-1.37-2.21Z" fill="#c9d1d9"/>
      <path id="path2161" d="m401.33,259.24l-1.37-2.21.11-.11,1.26,2.31v.01Z" fill="#c9d1d9"/>
      <path id="path2163" d="m400.07,256.93l10.09-5.78,1.26,2.31,1.37,2.31-10.2,5.78-1.26-2.31-1.26-2.31h0Z" fill="#c9d1d9"/>
      <path id="path2165" d="m411.42,253.46l-1.26-2.31h.11l1.16,2.31h-.01Z" fill="#c9d1d9"/>
      <path id="path2167" d="m410.27,251.15l10.93-5.57,1.16,2.31,1.26,2.31-10.93,5.57-1.26-2.31-1.16-2.31Z" fill="#c9d1d9"/>
      <path id="path2169" d="m422.36,247.89l-1.16-2.31.11-.11,1.05,2.42h0Z" fill="#c9d1d9"/>
      <path id="path2171" d="m421.31,245.47l11.25-5.26,1.16,2.42,1.05,2.31-11.25,5.26-1.16-2.31-1.05-2.42Z" fill="#c9d1d9"/>
      <path id="path2173" d="m433.71,242.63l-1.16-2.42.11-.11,1.05,2.52v.01Z" fill="#c9d1d9"/>
      <path id="path2175" d="m432.66,240.11l11.46-4.73,1.05,2.42.95,2.42-11.35,4.84-1.05-2.42-1.05-2.52-.01-.01Z" fill="#c9d1d9"/>
      <path id="path2177" d="m445.17,237.8l-1.05-2.42.11-.11.95,2.52-.01.01Z" fill="#c9d1d9"/>
      <path id="path2179" d="m444.22,235.27l11.25-4.1.84,2.42.95,2.52-11.25,4.1-.84-2.42-.95-2.52Z" fill="#c9d1d9"/>
      <path id="path2181" d="m456.31,233.59l-.84-2.42.11-.11.74,2.52-.01.01Z" fill="#c9d1d9"/>
      <path id="path2183" d="m455.58,231.07l10.72-3.26.74,2.52.84,2.42-10.72,3.36-.84-2.52-.74-2.52Z" fill="#c9d1d9"/>
      <path id="path2185" d="m467.04,230.33l-.74-2.52.11-.11.63,2.63Z" fill="#c9d1d9"/>
      <path id="path2187" d="m466.41,227.71l9.88-2.31.63,2.52.63,2.52-9.88,2.42-.63-2.52-.63-2.63Z" fill="#c9d1d9"/>
      <path id="path2189" d="m476.92,227.92l-.63-2.52.11-.11.53,2.63h-.01Z" fill="#c9d1d9"/>
      <path id="path2191" d="m476.39,225.29l4.52-.74.42,2.63.53,2.52-4.52.84-.42-2.63-.53-2.63v.01Z" fill="#c9d1d9"/>
      <path id="path2193" d="m481.33,227.18l-.42-2.63h.21l.21,2.63h0Z" fill="#c9d1d9"/>
      <path id="path2195" d="m481.12,224.55l4.1-.53.32,2.63.32,2.63-4.21.42-.32-2.52-.21-2.63h0Z" fill="#c9d1d9"/>
      <path id="path2197" d="m485.54,226.65l-.32-2.63h.21l.11,2.63h0Z" fill="#c9d1d9"/>
      <path id="path2199" d="m485.43,224.03l8.41-.42.11,2.63.21,2.63-8.52.42-.11-2.63-.11-2.63h.01Z" fill="#c9d1d9"/>
      <path id="path2201" d="m493.95,226.23l-.11-2.63h.11v2.63Z" fill="#c9d1d9"/>
      <path id="path2203" d="m493.95,223.61l9.04-.21.11,2.63v2.63l-9.04.21-.11-2.63v-2.63Z" fill="#c9d1d9"/>
      <path id="path2205" d="m503.09,226.02l-.11-2.63h.11v2.63Z" fill="#c9d1d9"/>
      <path id="path2207" d="m503.09,223.39l18.61.21v5.15l-18.61-.11v-5.26.01Z" fill="#c9d1d9"/>
      <path id="path2209" d="m521.7,226.23v-2.63h.11l-.11,2.63Z" fill="#c9d1d9"/>
      <path id="path2211" d="m521.81,223.61l16.29.32v2.63l-.11,2.63-16.4-.42.11-2.52.11-2.63v-.01Z" fill="#c9d1d9"/>
      <path id="path2213" d="m538.1,226.55l-.11,2.63h0l.11-2.63Z" fill="#c9d1d9"/>
      <path id="path2215" d="m538.1,223.92l6.31.11v2.63l-.11,2.63-6.31-.11.11-2.63v-2.63Z" fill="#c9d1d9"/>
      <path id="path2217" d="m544.41,226.65v2.63h-.11l.11-2.63Z" fill="#c9d1d9"/>
      <path id="path2219" d="m544.41,224.03h4.52v5.26h-4.52v-5.26Z" fill="#c9d1d9"/>
      <path id="path2221" d="m548.93,226.65l.42,2.63h-.42v-2.63Z" fill="#c9d1d9"/>
      <path id="path2223" d="m548.51,224.03l1.79-.21.32,2.63.42,2.52-1.68.32-.42-2.63-.42-2.63h-.01Z" fill="#c9d1d9"/>
      <path id="path2225" d="m550.61,226.44l.84,2.42-.42.11h0l-.42-2.52v-.01Z" fill="#c9d1d9"/>
      <path id="path2227" d="m549.77,223.92l1.79-.63.84,2.52.84,2.52-1.79.53-.84-2.42-.84-2.52Z" fill="#c9d1d9"/>
      <path id="path2229" d="m552.4,225.81l1.16,2.31-.32.21-.84-2.52h0Z" fill="#c9d1d9"/>
      <path id="path2231" d="m551.24,223.5l1.79-.95,1.16,2.31,1.26,2.42-1.89.84-1.16-2.31-1.16-2.31Z" fill="#c9d1d9"/>
      <path id="path2233" d="m554.19,224.87l1.47,2.21-.21.21-1.26-2.42h0Z" fill="#c9d1d9"/>
      <path id="path2235" d="m552.82,222.66l1.79-1.16,1.47,2.21,1.47,2.21-1.89,1.16-1.47-2.21-1.37-2.21h0Z" fill="#c9d1d9"/>
      <path id="path2237" d="m556.08,223.71l1.68,2-.21.21-1.47-2.21Z" fill="#c9d1d9"/>
      <path id="path2239" d="m554.4,221.71l3.78-3.26,1.68,2,1.68,2-3.78,3.26-1.68-2-1.68-2Z" fill="#c9d1d9"/>
      <path id="path2241" d="m559.86,220.45l1.89,1.79-.21.21-1.68-2Z" fill="#c9d1d9"/>
      <path id="path2243" d="m557.97,218.66l3.89-4.21,2,1.79,1.89,1.79-3.99,4.21-1.89-1.79-1.89-1.79h-.01Z" fill="#c9d1d9"/>
      <path id="path2245" d="m563.86,216.25l2,1.68-.11.11-1.89-1.79Z" fill="#c9d1d9"/>
      <path id="path2247" d="m561.76,214.67l3.99-5.05,2.1,1.58,2.1,1.68-4.1,5.05-2-1.68-2.1-1.58h.01Z" fill="#c9d1d9"/>
      <path id="path2249" d="m567.85,211.2l2.1,1.58v.11l-2.1-1.68v-.01Z" fill="#c9d1d9"/>
      <path id="path2251" d="m565.75,209.73l4.1-5.78,2.1,1.47,2.1,1.58-4.1,5.78-2.1-1.58-2.1-1.47Z" fill="#c9d1d9"/>
      <path id="path2253" d="m571.95,205.42l2.21,1.47-.11.11-2.1-1.58h0Z" fill="#c9d1d9"/>
      <path id="path2255" d="m569.75,204.05l8.31-13.04,2.21,1.47,2.21,1.37-8.31,13.04-2.21-1.47-2.21-1.37Z" fill="#c9d1d9"/>
      <path id="path2257" d="m580.26,192.49l2.31,1.26-.11.11-2.21-1.37h.01Z" fill="#c9d1d9"/>
      <path id="path2259" d="m578.05,191.12l16.4-28.17,2.31,1.37,2.31,1.26-16.51,28.17-2.31-1.26-2.21-1.37h.01Z" fill="#c9d1d9"/>
      <path id="path2261" d="m596.76,164.31l-2.31-1.37h0l2.31,1.37Z" fill="#c9d1d9"/>
      <path id="path2263" d="m594.45,162.95l7.78-12.93,2.21,1.37,2.31,1.37-7.78,12.83-2.21-1.26-2.31-1.37v-.01Z" fill="#c9d1d9"/>
      <path id="path2265" d="m604.44,151.38l-2.21-1.37.11-.11,2.1,1.47v.01Z" fill="#c9d1d9"/>
      <path id="path2267" d="m602.34,149.91l7.04-10.51,2.21,1.47,2.21,1.47-7.15,10.51-2.21-1.47-2.1-1.47Z" fill="#c9d1d9"/>
      <path id="path2269" d="m611.59,140.87l-2.21-1.47.11-.11,2.1,1.58h0Z" fill="#c9d1d9"/>
      <path id="path2271" d="m609.48,139.29l5.26-6.73,2.1,1.68,2,1.58-5.15,6.62-2.1-1.58-2.1-1.58-.01.01Z" fill="#c9d1d9"/>
      <path id="path2273" d="m616.84,134.25l-2.1-1.68.11-.11,2,1.79h-.01Z" fill="#c9d1d9"/>
      <path id="path2275" d="m614.85,132.46l5.68-6.41,2,1.79,1.89,1.79-5.68,6.31-1.89-1.68-2-1.79v-.01Z" fill="#c9d1d9"/>
      <path id="path2277" d="m622.52,127.83l-2-1.79.11-.11,1.89,1.89v.01Z" fill="#c9d1d9"/>
      <path id="path2279" d="m620.63,125.94l3.05-2.94,1.89,1.89,1.79,1.79-3.05,3.05-1.79-1.89-1.89-1.89v-.01Z" fill="#c9d1d9"/>
      <path id="path2281" d="m625.57,124.89l-1.89-1.89.11-.11,1.79,2h-.01Z" fill="#c9d1d9"/>
      <path id="path2283" d="m623.78,122.89l3.26-2.84,1.79,2,1.68,2-3.26,2.73-1.68-1.89s-1.79-2-1.79-2Z" fill="#c9d1d9"/>
      <path id="path2285" d="m628.83,122.05l-1.79-2,.11-.11,1.68,2.1v.01Z" fill="#c9d1d9"/>
      <path id="path2287" d="m627.15,119.95l3.47-2.63,1.58,2.1,1.58,2.1-3.36,2.63-1.58-2.1-1.68-2.1h-.01Z" fill="#c9d1d9"/>
      <path id="path2289" d="m632.19,119.42l-1.58-2.1.11-.11,1.47,2.21h0Z" fill="#c9d1d9"/>
      <path id="path2291" d="m630.72,117.22l3.68-2.42,1.47,2.21,1.47,2.21-3.68,2.42-1.47-2.21-1.47-2.21Z" fill="#c9d1d9"/>
      <path id="path2293" d="m635.87,117.01l-1.47-2.21.21-.11,1.26,2.31v.01Z" fill="#c9d1d9"/>
      <path id="path2295" d="m634.61,114.69l3.89-2.1,1.26,2.31,1.26,2.31-3.89,2.1-1.26-2.31-1.26-2.31Z" fill="#c9d1d9"/>
      <path id="path2297" d="m639.76,114.9l-1.26-2.31.21-.11,1.05,2.42Z" fill="#c9d1d9"/>
      <path id="path2299" d="m638.71,112.48l4.1-1.89,1.05,2.42,1.05,2.42-4.1,1.89-1.05-2.42-1.05-2.42Z" fill="#c9d1d9"/>
      <path id="path2301" d="m643.86,113.01l-1.05-2.42h.21l.84,2.42h0Z" fill="#c9d1d9"/>
      <path id="path2303" d="m643.02,110.59l4.42-1.58.84,2.52.84,2.42-4.42,1.58-.84-2.52-.84-2.42Z" fill="#c9d1d9"/>
      <path id="path2305" d="m648.28,111.54l-.84-2.52h.21l.63,2.52Z" fill="#c9d1d9"/>
      <path id="path2307" d="m647.65,109.02l4.73-1.26.63,2.63.63,2.52-4.73,1.16-.63-2.52-.63-2.52v-.01Z" fill="#c9d1d9"/>
      <path id="path2309" d="m653.01,110.38l-.63-2.63h.21l.42,2.63Z" fill="#c9d1d9"/>
      <path id="path2311" d="m652.59,107.75l5.05-.74.42,2.52.42,2.63-5.05.74-.42-2.52-.42-2.63Z" fill="#c9d1d9"/>
      <path id="path2313" d="m658.05,109.54l-.42-2.52.21-.11.21,2.63h0Z" fill="#c9d1d9"/>
      <path id="path2315" d="m657.84,106.91l5.36-.32.21,2.63.11,2.63-5.36.32-.11-2.63-.21-2.63Z" fill="#c9d1d9"/>
      <path id="path2317" d="m663.42,109.23l-.21-2.63h.21v2.63Z" fill="#c9d1d9"/>
      <path id="path2319" d="m663.42,106.6l5.68.11v5.26l-5.78-.11.11-2.63v-2.63h-.01Z" fill="#c9d1d9"/>
      <path id="path2321" d="m669.09,109.33v-2.63h.21l-.21,2.63Z" fill="#c9d1d9"/>
      <path id="path2323" d="m669.3,106.7l6.1.53-.21,2.63-.21,2.63-6.1-.53.21-2.63.21-2.63Z" fill="#c9d1d9"/>
      <path id="path2325" d="m675.19,109.86l.21-2.63h.32l-.53,2.63Z" fill="#c9d1d9"/>
      <path id="path2327" d="m675.72,107.23l1.68.42-.42,2.52-.53,2.63-1.79-.32.53-2.63.53-2.63v.01Z" fill="#c9d1d9"/>
      <path id="path2329" d="m676.98,110.17l.42-2.52h.32l-.74,2.52Z" fill="#c9d1d9"/>
      <path id="path2331" d="m677.71,107.65l1.89.53-.74,2.52-.74,2.52-1.89-.53.74-2.52.74-2.52Z" fill="#c9d1d9"/>
      <path id="path2333" d="m678.87,110.7l.74-2.52.21.11-.95,2.42v-.01Z" fill="#c9d1d9"/>
      <path id="path2335" d="m679.82,108.28l4.1,1.68-1.05,2.42-1.05,2.42-3.99-1.68,1.05-2.42.95-2.42h-.01Z" fill="#c9d1d9"/>
      <path id="path2337" d="m682.86,112.38l1.05-2.42.21.21-1.26,2.21Z" fill="#c9d1d9"/>
      <path id="path2339" d="m684.13,110.17l4.31,2.42-1.26,2.21-1.37,2.31-4.21-2.42,1.26-2.31,1.26-2.21h.01Z" fill="#c9d1d9"/>
      <path id="path2341" d="m687.17,114.8l1.26-2.21.21.11-1.47,2.1h0Z" fill="#c9d1d9"/>
      <path id="path2343" d="m688.65,112.69l4.42,2.94-1.37,2.21-1.47,2.21-4.52-3.05,1.47-2.21,1.47-2.1h0Z" fill="#c9d1d9"/>
      <path id="path2345" d="m691.69,117.85l1.37-2.21.21.21-1.58,2Z" fill="#c9d1d9"/>
      <path id="path2347" d="m693.27,115.85l9.46,7.46-1.68,2-1.68,2.1-9.36-7.46,1.68-2.1,1.58-2h0Z" fill="#c9d1d9"/>
      <path id="path2349" d="m701.05,125.31l1.68-2,.11.11-1.79,1.89Z" fill="#c9d1d9"/>
      <path id="path2351" d="m702.84,123.42l9.46,8.73-1.79,2-1.79,1.89-9.46-8.73,1.79-2,1.79-1.89Z" fill="#c9d1d9"/>
      <path id="path2353" d="m710.51,134.14l1.79-2,.11.11-1.89,1.89h-.01Z" fill="#c9d1d9"/>
      <path id="path2355" d="m712.41,132.25l8.94,9.25-1.89,1.79-1.89,1.89-8.94-9.25,1.89-1.79,1.89-1.89Z" fill="#c9d1d9"/>
      <path id="path2357" d="m719.45,143.29l1.89-1.79.11.11-2,1.68Z" fill="#c9d1d9"/>
      <path id="path2359" d="m721.45,141.61l7.88,8.83-2,1.79-1.89,1.68-7.99-8.83,2-1.79,2-1.68Z" fill="#c9d1d9"/>
      <path id="path2361" d="m727.33,152.22l2-1.79.11.11-2.1,1.68h-.01Z" fill="#c9d1d9"/>
      <path id="path2363" d="m729.44,150.54l6.31,7.67-2.1,1.68-2,1.68-6.31-7.78,2-1.58,2.1-1.68v.01Z" fill="#c9d1d9"/>
      <path id="path2365" d="m733.64,159.9l2.1-1.68.11.11-2.21,1.58v-.01Z" fill="#c9d1d9"/>
      <path id="path2367" d="m735.85,158.32l4.1,5.78-2.1,1.58-2.1,1.58-4.21-5.78,2.1-1.58,2.21-1.58Z" fill="#c9d1d9"/>
      <path id="path2369" d="m737.85,165.68l2.1-1.58.11.11-2.21,1.47h0Z" fill="#c9d1d9"/>
      <path id="path2371" d="m740.05,164.21l4.31,6.41-2.21,1.47-2.1,1.47-4.42-6.41,2.21-1.47,2.21-1.47h0Z" fill="#c9d1d9"/>
      <path id="path2373" d="m742.16,172.09l-2,1.58-.11-.11,2.1-1.47h.01Z" fill="#c9d1d9"/>
      <path id="path2375" d="m744.26,170.52l3.15,3.99-2,1.68-2.1,1.58-3.15-4.1,2-1.58,2.1-1.58v.01Z" fill="#c9d1d9"/>
      <path id="path2377" d="m745.42,176.19l2-1.68h0l-2,1.68Z" fill="#c9d1d9"/>
      <path id="path2379" d="m747.41,174.51l4.84,6.2-2.1,1.58-2.1,1.58-4.73-6.1,2.1-1.58,2-1.68h-.01Z" fill="#c9d1d9"/>
      <path id="path2381" d="m750.15,182.29l2.1-1.58h0l-2.1,1.58Z" fill="#c9d1d9"/>
      <path id="path2383" d="m752.25,180.71l9.15,12.62-2.1,1.58-2.1,1.58-9.15-12.62,2.1-1.58,2.1-1.58Z" fill="#c9d1d9"/>
      <path id="path2385" d="m759.29,194.91l2.1-1.58.11.11-2.21,1.47h0Z" fill="#c9d1d9"/>
      <path id="path2387" d="m761.5,193.43l6.2,9.46-2.21,1.37-2.1,1.47-6.31-9.36,2.21-1.47,2.21-1.47h0Z" fill="#c9d1d9"/>
      <path id="path2389" d="m765.49,204.26l2.21-1.37h.11l-2.31,1.37h-.01Z" fill="#c9d1d9"/>
      <path id="path2391" d="m767.81,202.89l6.52,10.83-2.21,1.37-2.31,1.37-6.52-10.83,2.21-1.37,2.31-1.37Z" fill="#c9d1d9"/>
      <path id="path2393" d="m772.12,215.09l2.21-1.37v.11l-2.21,1.26Z" fill="#c9d1d9"/>
      <path id="path2395" d="m774.33,213.83l14.4,25.65-2.31,1.26-2.31,1.26-14.3-25.65,2.31-1.26,2.21-1.26h0Z" fill="#c9d1d9"/>
      <path id="path2397" d="m786.42,240.74l2.31-1.26h0l-2.31,1.26Z" fill="#c9d1d9"/>
      <path id="path2399" d="m788.73,239.48l35.53,65.81-2.31,1.26-2.31,1.26-35.53-65.81,2.31-1.26,2.31-1.26h0Z" fill="#c9d1d9"/>
    </g>
    <g id="g2655">
      <path id="path2657" d="m127.58,625.72l36.27-91.15,2.42.95,2.42.95-36.27,91.15-2.42-.95-2.42-.95Z" fill="#1da37d"/>
      <path id="path2659" d="m166.26,535.52l-2.42-.95v-.11l2.42,1.05v.01Z" fill="#1da37d"/>
      <path id="path2661" d="m163.85,534.47l13.67-32.69,2.42,1.05,2.42,1.05-13.67,32.59-2.42-.95-2.42-1.05Z" fill="#1da37d"/>
      <path id="path2663" d="m179.93,502.83l-2.42-1.05h.11l2.31,1.05Z" fill="#1da37d"/>
      <path id="path2665" d="m177.62,501.77l11.77-25.65,2.42,1.16,2.42,1.16-11.88,25.55-2.42-1.16-2.31-1.05v-.01Z" fill="#1da37d"/>
      <path id="path2667" d="m191.81,477.28l-2.42-1.16.11-.11,2.31,1.26v.01Z" fill="#1da37d"/>
      <path id="path2669" d="m189.5,476.02l13.35-25.34,2.31,1.26,2.42,1.26-13.46,25.34-2.31-1.26-2.31-1.26Z" fill="#1da37d"/>
      <path id="path2671" d="m205.16,451.94l-2.31-1.26h.11l2.21,1.26h-.01Z" fill="#1da37d"/>
      <path id="path2673" d="m202.95,450.68l15.98-27.96,2.31,1.37,2.31,1.26-16.08,27.86-2.31-1.26-2.21-1.26v-.01Z" fill="#1da37d"/>
      <path id="path2675" d="m221.25,424.08l-2.31-1.37h.11l2.21,1.37h-.01Z" fill="#1da37d"/>
      <path id="path2677" d="m219.04,422.72l17.14-27.96,2.21,1.37,2.31,1.47-17.24,27.86-2.21-1.37-2.21-1.37h0Z" fill="#1da37d"/>
      <path id="path2679" d="m238.38,396.12l-2.21-1.37h.11l2.1,1.37Z" fill="#1da37d"/>
      <path id="path2681" d="m236.28,394.75l16.82-25.34,2.21,1.47,2.21,1.47-16.93,25.23-2.21-1.47-2.1-1.37v.01Z" fill="#1da37d"/>
      <path id="path2683" d="m255.31,370.89l-2.21-1.47.11-.11,2.1,1.58Z" fill="#1da37d"/>
      <path id="path2685" d="m253.21,369.31l9.67-12.83,2.1,1.58,2.1,1.58-9.67,12.83-2.1-1.58-2.1-1.58h0Z" fill="#1da37d"/>
      <path id="path2687" d="m264.98,358.06l-2.1-1.58.11-.11,2,1.68-.01.01Z" fill="#1da37d"/>
      <path id="path2689" d="m262.98,356.38l10.72-12.83,2,1.79,2,1.68-10.72,12.72-2-1.68-2-1.68h0Z" fill="#1da37d"/>
      <path id="path2691" d="m275.7,345.34l-2-1.79h.11l1.89,1.79Z" fill="#1da37d"/>
      <path id="path2693" d="m273.81,343.56l11.35-12.41,1.89,1.79,2,1.79-11.35,12.41-2-1.79-1.89-1.79Z" fill="#1da37d"/>
      <path id="path2695" d="m287.06,332.94l-1.89-1.79h.11l1.79,1.79h-.01Z" fill="#1da37d"/>
      <path id="path2697" d="m285.27,331.15l11.56-11.77,1.89,1.79,1.89,1.89-11.67,11.77-1.89-1.89-1.79-1.79h.01Z" fill="#1da37d"/>
      <path id="path2699" d="m298.73,321.16l-1.89-1.79.11-.11,1.79,1.89-.01.01Z" fill="#1da37d"/>
      <path id="path2701" d="m296.94,319.27l22.29-20.71,1.79,1.89,1.79,2-22.29,20.71-1.79-2-1.79-1.89Z" fill="#1da37d"/>
      <path id="path2703" d="m321.01,300.45l-1.79-1.89.11-.11,1.68,2h0Z" fill="#1da37d"/>
      <path id="path2705" d="m319.33,298.46l18.5-15.45,1.68,2,1.68,2-18.5,15.45-1.68-2-1.68-2Z" fill="#1da37d"/>
      <path id="path2707" d="m339.52,285l-1.68-2,.11-.11,1.58,2.1-.01.01Z" fill="#1da37d"/>
      <path id="path2709" d="m337.94,282.9l7.36-5.57,1.58,2.1,1.58,2.1-7.36,5.57-1.58-2.1-1.58-2.1Z" fill="#1da37d"/>
      <path id="path2711" d="m346.87,279.43l-1.58-2.1.11-.11,1.47,2.21Z" fill="#1da37d"/>
      <path id="path2713" d="m345.4,277.22l6.94-4.73,1.47,2.1,1.47,2.21-6.83,4.73-1.58-2.1-1.47-2.21h0Z" fill="#1da37d"/>
      <path id="path2715" d="m353.81,274.59l-1.47-2.1.11-.11,1.37,2.21h-.01Z" fill="#1da37d"/>
      <path id="path2717" d="m352.45,272.38l6.73-4.21,1.37,2.21,1.47,2.21-6.73,4.31-1.47-2.31-1.37-2.21Z" fill="#1da37d"/>
      <path id="path2719" d="m360.54,270.39l-1.37-2.21h.11l1.26,2.21Z" fill="#1da37d"/>
      <path id="path2721" d="m359.28,268.18l6.83-3.99,1.37,2.31,1.26,2.21-6.83,3.99-1.37-2.31-1.26-2.21Z" fill="#1da37d"/>
      <path id="path2723" d="m367.48,266.5l-1.37-2.31h0l1.37,2.31Z" fill="#1da37d"/>
      <path id="path2725" d="m366.11,264.18l33.96-19.24,1.26,2.31,1.26,2.31-33.85,19.13-1.26-2.21-1.37-2.31v.01Z" fill="#1da37d"/>
      <path id="path2727" d="m401.33,247.26l-1.26-2.31h0l1.26,2.31Z" fill="#1da37d"/>
      <path id="path2729" d="m400.07,244.95l9.25-5.05,1.26,2.31,1.26,2.31-9.25,5.05-1.26-2.31-1.26-2.31Z" fill="#1da37d"/>
      <path id="path2731" d="m410.58,242.21l-1.26-2.31.21-.11,1.05,2.42h0Z" fill="#1da37d"/>
      <path id="path2733" d="m409.53,239.79l8.52-3.68,1.05,2.42,1.05,2.42-8.52,3.68-1.05-2.42-1.05-2.42Z" fill="#1da37d"/>
      <path id="path2735" d="m419.1,238.53l-1.05-2.42.32-.11.74,2.52-.01.01Z" fill="#1da37d"/>
      <path id="path2737" d="m418.36,236.01l7.99-2.52.84,2.52.74,2.52-7.99,2.52-.84-2.52-.74-2.52Z" fill="#1da37d"/>
      <path id="path2739" d="m427.19,236.01l-.84-2.52h.21l.63,2.52Z" fill="#1da37d"/>
      <path id="path2741" d="m426.56,233.49l7.67-1.68.53,2.52.53,2.63-7.57,1.68-.53-2.63-.63-2.52Z" fill="#1da37d"/>
      <path id="path2743" d="m434.76,234.33l-.53-2.52h.21l.32,2.52Z" fill="#1da37d"/>
      <path id="path2745" d="m434.45,231.81l7.36-1.05.42,2.63.32,2.63-7.46.95-.32-2.63-.32-2.52v-.01Z" fill="#1da37d"/>
      <path id="path2747" d="m442.23,233.38l-.42-2.63h.21l.21,2.63h0Z" fill="#1da37d"/>
      <path id="path2749" d="m442.02,230.75l7.36-.63.21,2.63.21,2.63-7.36.63-.21-2.63-.21-2.63Z" fill="#1da37d"/>
      <path id="path2751" d="m449.58,232.75l-.21-2.63h0l.21,2.63Z" fill="#1da37d"/>
      <path id="path2753" d="m449.37,230.12l15.24-.95.21,2.63.21,2.63-15.35.95-.11-2.63-.21-2.63h.01Z" fill="#1da37d"/>
      <path id="path2755" d="m464.83,231.81l.21,2.63h0l-.21-2.63Z" fill="#1da37d"/>
      <path id="path2757" d="m464.62,229.18l46.47-3.89.21,2.63.21,2.52-46.47,3.99-.21-2.63-.21-2.63v.01Z" fill="#1da37d"/>
      <path id="path2759" d="m511.29,227.92l-.21-2.63h0l.21,2.63Z" fill="#1da37d"/>
      <path id="path2761" d="m511.08,225.29l23.55-2,.21,2.63.21,2.63-23.55,1.89-.21-2.52-.21-2.63h0Z" fill="#1da37d"/>
      <path id="path2763" d="m534.84,225.92l-.21-2.63h0l.21,2.63Z" fill="#1da37d"/>
      <path id="path2765" d="m534.63,223.29l14.09-1.05.21,2.63.21,2.63-14.09,1.05-.21-2.63-.21-2.63Z" fill="#1da37d"/>
    </g>
  </g>
  <g id="Ebene_4" data-name="Ebene 4">
    <rect x="511.2" y="406.8" width="205.2" height="280.8" fill="#0d1117" stroke="#c9d1d9" stroke-miterlimit="10" stroke-width="2.83"/>
    <g>
      <path d="m115.2,810v-20.16c-.93.8-1.79,1.47-2.6,2.01s-1.71,1-2.71,1.38v-2.99c.52-.25,1.06-.55,1.63-.92s1.23-.91,1.96-1.63,1.58-1.72,2.54-3h2.27v25.31h-3.09Z" fill="#c9d1d9"/>
      <path d="m132.18,810.42c-2.93,0-5.2-1.15-6.82-3.44s-2.43-5.5-2.43-9.64.81-7.35,2.43-9.64,3.89-3.44,6.82-3.44,5.22,1.15,6.83,3.44,2.42,5.5,2.42,9.64-.81,7.35-2.42,9.64-3.89,3.44-6.83,3.44Zm0-2.53c1.95,0,3.42-.9,4.41-2.69s1.49-4.41,1.49-7.86-.5-6.06-1.49-7.86-2.47-2.69-4.41-2.69-3.42.9-4.41,2.69-1.49,4.41-1.49,7.86.5,6.06,1.49,7.86c.99,1.8,2.47,2.69,4.41,2.69Z" fill="#c9d1d9"/>
    </g>
    <g>
      <path d="m316.78,810v-20.16c-.93.8-1.79,1.47-2.6,2.01s-1.71,1-2.71,1.38v-2.99c.52-.25,1.06-.55,1.63-.92s1.23-.91,1.96-1.63,1.58-1.72,2.54-3h2.27v25.31h-3.09Z" fill="#c9d1d9"/>
      <path d="m333.76,810.42c-2.93,0-5.2-1.15-6.82-3.44s-2.43-5.5-2.43-9.64.81-7.35,2.43-9.64,3.89-3.44,6.82-3.44,5.22,1.15,6.83,3.44,2.42,5.5,2.42,9.64-.81,7.35-2.42,9.64-3.89,3.44-6.83,3.44Zm0-2.53c1.95,0,3.42-.9,4.41-2.69s1.49-4.41,1.49-7.86-.5-6.06-1.49-7.86-2.47-2.69-4.41-2.69-3.42.9-4.41,2.69-1.49,4.41-1.49,7.86.5,6.06,1.49,7.86,2.47,2.69,4.41,2.69Z" fill="#c9d1d9"/>
      <path d="m356.58,810.42c-2.93,0-5.2-1.15-6.82-3.44s-2.43-5.5-2.43-9.64.81-7.35,2.43-9.64,3.89-3.44,6.82-3.44,5.22,1.15,6.83,3.44,2.42,5.5,2.42,9.64-.81,7.35-2.42,9.64-3.89,3.44-6.83,3.44Zm0-2.53c1.95,0,3.42-.9,4.41-2.69s1.49-4.41,1.49-7.86-.5-6.06-1.49-7.86-2.47-2.69-4.41-2.69-3.42.9-4.41,2.69-1.49,4.41-1.49,7.86.5,6.06,1.49,7.86,2.47,2.69,4.41,2.69Z" fill="#c9d1d9"/>
    </g>
    <g>
      <path d="m515.63,810v-20.16c-.93.8-1.79,1.47-2.6,2.01s-1.71,1-2.71,1.38v-2.99c.52-.25,1.06-.55,1.63-.92.57-.37,1.23-.91,1.96-1.63s1.58-1.72,2.54-3h2.27v25.31h-3.09Z" fill="#c9d1d9"/>
      <path d="m532.61,810.42c-2.93,0-5.2-1.15-6.82-3.44s-2.43-5.5-2.43-9.64.81-7.35,2.43-9.64,3.89-3.44,6.82-3.44,5.22,1.15,6.83,3.44,2.42,5.5,2.42,9.64-.81,7.35-2.42,9.64-3.89,3.44-6.83,3.44Zm0-2.53c1.95,0,3.42-.9,4.41-2.69s1.49-4.41,1.49-7.86-.5-6.06-1.49-7.86-2.47-2.69-4.41-2.69-3.42.9-4.41,2.69-1.49,4.41-1.49,7.86.5,6.06,1.49,7.86,2.47,2.69,4.41,2.69Z" fill="#c9d1d9"/>
      <path d="m555.42,810.42c-2.93,0-5.2-1.15-6.82-3.44s-2.43-5.5-2.43-9.64.81-7.35,2.43-9.64,3.89-3.44,6.82-3.44,5.22,1.15,6.83,3.44,2.42,5.5,2.42,9.64-.81,7.35-2.42,9.64-3.89,3.44-6.83,3.44Zm0-2.53c1.95,0,3.42-.9,4.41-2.69s1.49-4.41,1.49-7.86-.5-6.06-1.49-7.86-2.47-2.69-4.41-2.69-3.42.9-4.41,2.69-1.49,4.41-1.49,7.86.5,6.06,1.49,7.86,2.47,2.69,4.41,2.69Z" fill="#c9d1d9"/>
      <path d="m578.24,810.42c-2.93,0-5.2-1.15-6.82-3.44s-2.43-5.5-2.43-9.64.81-7.35,2.43-9.64,3.89-3.44,6.82-3.44,5.22,1.15,6.83,3.44,2.42,5.5,2.42,9.64-.81,7.35-2.42,9.64-3.89,3.44-6.83,3.44Zm0-2.53c1.95,0,3.42-.9,4.41-2.69s1.49-4.41,1.49-7.86-.5-6.06-1.49-7.86-2.47-2.69-4.41-2.69-3.42.9-4.41,2.69-1.49,4.41-1.49,7.86.5,6.06,1.49,7.86,2.47,2.69,4.41,2.69Z" fill="#c9d1d9"/>
    </g>
    <g>
      <path d="m738.77,810v-20.16c-.93.8-1.79,1.47-2.6,2.01s-1.71,1-2.71,1.38v-2.99c.52-.25,1.06-.55,1.63-.92s1.23-.91,1.96-1.63,1.58-1.72,2.54-3h2.27v25.31h-3.09Z" fill="#c9d1d9"/>
      <path d="m755.75,810.42c-2.93,0-5.2-1.15-6.82-3.44s-2.43-5.5-2.43-9.64.81-7.35,2.43-9.64,3.89-3.44,6.82-3.44,5.22,1.15,6.83,3.44,2.42,5.5,2.42,9.64-.81,7.35-2.42,9.64-3.89,3.44-6.83,3.44Zm0-2.53c1.95,0,3.42-.9,4.41-2.69s1.49-4.41,1.49-7.86-.5-6.06-1.49-7.86-2.47-2.69-4.41-2.69-3.42.9-4.41,2.69-1.49,4.41-1.49,7.86.5,6.06,1.49,7.86,2.47,2.69,4.41,2.69Z" fill="#c9d1d9"/>
      <path d="m769.64,810v-26.37h2.95v15.87l8.91-8.49h4.03l-7.84,7.21,8,11.78h-3.5l-6.64-9.81-2.95,2.72v7.08h-2.95l-.01.01Z" fill="#c9d1d9"/>
    </g>
    <g>
      <path d="m47.25,753.76v-2.74h11.79v2.74h-11.79Z" fill="#c9d1d9"/>
      <path d="m71.35,763.89c-1.46,0-2.87-.3-4.2-.91s-2.45-1.49-3.35-2.65-1.42-2.59-1.57-4.28l3.2-1c.13,1.78.67,3.28,1.63,4.49s2.35,1.82,4.19,1.82c1.14,0,2.14-.27,3-.82s1.54-1.3,2.03-2.26.74-2.06.74-3.3c0-1.89-.54-3.33-1.63-4.34s-2.43-1.51-4.03-1.51c-1.42,0-2.53.35-3.33,1.06s-1.39,1.5-1.77,2.38l-3.06-.32,1.02-14.1h14.48v2.71h-11.87l-.67,9.56-.86-.07c.63-1.08,1.51-1.99,2.64-2.72s2.5-1.11,4.11-1.11,2.94.35,4.17,1.05,2.2,1.68,2.92,2.94,1.07,2.71,1.07,4.36c0,1.83-.41,3.42-1.23,4.77s-1.9,2.4-3.25,3.14-2.81,1.11-4.38,1.11Z" fill="#c9d1d9"/>
      <path d="m93.4,763.89c-2.93,0-5.2-1.15-6.82-3.44s-2.43-5.5-2.43-9.64.81-7.35,2.43-9.64,3.89-3.44,6.82-3.44,5.22,1.15,6.83,3.44,2.42,5.5,2.42,9.64-.81,7.35-2.42,9.64-3.89,3.44-6.83,3.44Zm0-2.53c1.95,0,3.42-.9,4.41-2.69s1.49-4.41,1.49-7.86-.5-6.06-1.49-7.86-2.47-2.69-4.41-2.69-3.42.9-4.41,2.69-1.49,4.41-1.49,7.86.5,6.06,1.49,7.86,2.47,2.69,4.41,2.69Z" fill="#c9d1d9"/>
    </g>
    <g>
      <path d="m47.08,648.63v-2.74h11.79v2.74h-11.79Z" fill="#c9d1d9"/>
      <path d="m75.15,658.34v-8.37h.04v-14.98l.77,1.69-11.21,13.32-1.05-.91h17.51v2.71h-18.91v-3.02l13.34-15.75h2.62v25.31h-3.11Z" fill="#c9d1d9"/>
      <path d="m93.4,658.76c-2.93,0-5.2-1.15-6.82-3.44s-2.43-5.5-2.43-9.64.81-7.35,2.43-9.64,3.89-3.44,6.82-3.44,5.22,1.15,6.83,3.44,2.42,5.5,2.42,9.64-.81,7.35-2.42,9.64-3.89,3.44-6.83,3.44Zm0-2.53c1.95,0,3.42-.9,4.41-2.69s1.49-4.41,1.49-7.86-.5-6.06-1.49-7.86-2.47-2.69-4.41-2.69-3.42.9-4.41,2.69-1.49,4.41-1.49,7.86.5,6.06,1.49,7.86,2.47,2.69,4.41,2.69Z" fill="#c9d1d9"/>
    </g>
    <g>
      <path d="m47.85,543.51v-2.74h11.79v2.74h-11.79Z" fill="#c9d1d9"/>
      <path d="m71.35,553.63c-1.57,0-3.02-.3-4.35-.91s-2.42-1.5-3.28-2.66-1.36-2.59-1.51-4.28l3.2-1c.13,1.89.7,3.41,1.72,4.58s2.41,1.75,4.17,1.75c1.58,0,2.9-.46,3.95-1.38s1.57-2.25,1.57-3.98c0-.68-.14-1.4-.43-2.17s-.8-1.42-1.54-1.96-1.79-.81-3.15-.81h-3.48v-2.67h3.2c1.49,0,2.63-.4,3.42-1.19s1.19-1.68,1.19-2.68c0-1.17-.41-2.17-1.23-3.01s-1.98-1.25-3.48-1.25c-1.85,0-3.21.53-4.07,1.58s-1.36,2.52-1.49,4.39l-3.2-1c.07-1.21.47-2.38,1.21-3.53.74-1.15,1.76-2.1,3.06-2.85s2.83-1.12,4.59-1.12c1.44,0,2.75.28,3.93.84s2.11,1.33,2.8,2.31,1.04,2.11,1.04,3.38c0,.84-.18,1.62-.53,2.33s-.88,1.32-1.58,1.82-1.59.88-2.67,1.12c1.78.32,3.18,1.07,4.21,2.26s1.54,2.56,1.54,4.12c0,1.41-.25,2.61-.75,3.62s-1.17,1.83-2.01,2.47-1.79,1.11-2.83,1.42-2.12.46-3.22.46h0Z" fill="#c9d1d9"/>
      <path d="m93.4,553.63c-2.93,0-5.2-1.15-6.82-3.44s-2.43-5.5-2.43-9.64.81-7.35,2.43-9.64,3.89-3.44,6.82-3.44,5.22,1.15,6.83,3.44,2.42,5.5,2.42,9.64-.81,7.35-2.42,9.64-3.89,3.44-6.83,3.44Zm0-2.53c1.95,0,3.42-.9,4.41-2.69s1.49-4.41,1.49-7.86-.5-6.06-1.49-7.86-2.47-2.69-4.41-2.69-3.42.9-4.41,2.69-1.49,4.41-1.49,7.86.5,6.06,1.49,7.86,2.47,2.69,4.41,2.69Z" fill="#c9d1d9"/>
    </g>
    <g>
      <path d="m51.28,438.38v-2.74h11.79v2.74h-11.79Z" fill="#c9d1d9"/>
      <path d="m62.79,448.08v-2.07l8.89-7.54c1.21-1.03,2.19-1.97,2.96-2.81s1.33-1.7,1.7-2.57.54-1.83.54-2.9c0-1.16-.2-2.14-.61-2.93s-.99-1.39-1.75-1.78-1.69-.6-2.79-.6c-1.27,0-2.29.25-3.07.75s-1.36,1.17-1.74,2.01-.61,1.79-.68,2.85l-3.38-1.04c.07-1.12.48-2.23,1.22-3.32s1.77-1.99,3.07-2.71,2.82-1.07,4.55-1.07c.98,0,1.97.14,2.97.42s1.91.73,2.75,1.34,1.51,1.42,2.02,2.41.76,2.19.76,3.59c0,2-.54,3.79-1.63,5.37s-2.61,3.16-4.57,4.74l-6.87,5.57-2.23-.42h15.8v2.71h-17.93.02Z" fill="#c9d1d9"/>
      <path d="m93.4,448.5c-2.93,0-5.2-1.15-6.82-3.44s-2.43-5.5-2.43-9.64.81-7.35,2.43-9.64,3.89-3.44,6.82-3.44,5.22,1.15,6.83,3.44,2.42,5.5,2.42,9.64-.81,7.35-2.42,9.64-3.89,3.44-6.83,3.44Zm0-2.53c1.95,0,3.42-.9,4.41-2.69s1.49-4.41,1.49-7.86-.5-6.06-1.49-7.86-2.47-2.69-4.41-2.69-3.42.9-4.41,2.69-1.49,4.41-1.49,7.86.5,6.06,1.49,7.86,2.47,2.69,4.41,2.69Z" fill="#c9d1d9"/>
    </g>
    <g>
      <path d="m57.99,333.25v-2.74h11.79v2.74s-11.79,0-11.79,0Z" fill="#c9d1d9"/>
      <path d="m76.42,342.95v-20.16c-.93.8-1.79,1.47-2.6,2.01s-1.71,1-2.71,1.38v-2.99c.52-.25,1.06-.55,1.63-.92s1.23-.91,1.96-1.63,1.58-1.72,2.54-3h2.27v25.31h-3.09Z" fill="#c9d1d9"/>
      <path d="m93.4,343.37c-2.93,0-5.2-1.15-6.82-3.44s-2.43-5.5-2.43-9.64.81-7.35,2.43-9.64,3.89-3.44,6.82-3.44,5.22,1.15,6.83,3.44,2.42,5.5,2.42,9.64-.81,7.35-2.42,9.64-3.89,3.44-6.83,3.44Zm0-2.53c1.95,0,3.42-.9,4.41-2.69s1.49-4.41,1.49-7.86-.5-6.06-1.49-7.86-2.47-2.69-4.41-2.69-3.42.9-4.41,2.69-1.49,4.41-1.49,7.86.5,6.06,1.49,7.86,2.47,2.69,4.41,2.69Z" fill="#c9d1d9"/>
    </g>
    <path d="m102.36,226.36c0,3.81-.65,6.64-1.95,8.49s-3.33,2.78-6.1,2.78-4.75-.91-6.06-2.72-1.99-4.51-2.04-8.11v-4.34c0-3.76.65-6.56,1.95-8.38s3.34-2.74,6.12-2.74,4.78.88,6.08,2.65,1.97,4.49,2,8.17v4.22-.02Zm-3.25-4.45c0-2.75-.39-4.76-1.16-6.02s-2-1.89-3.67-1.89-2.88.63-3.64,1.88-1.15,3.18-1.18,5.78v5.2c0,2.77.4,4.81,1.2,6.13s2.02,1.98,3.65,1.98,2.8-.62,3.58-1.86,1.19-3.2,1.22-5.87v-5.33Z" fill="#c9d1d9"/>
    <g>
      <path d="m76.42,132.7v-20.16c-.93.8-1.79,1.47-2.6,2.01s-1.71,1-2.71,1.38v-2.99c.52-.25,1.06-.55,1.63-.92s1.23-.91,1.96-1.63,1.58-1.72,2.54-3h2.27v25.31h-3.09Z" fill="#c9d1d9"/>
      <path d="m93.4,133.12c-2.93,0-5.2-1.15-6.82-3.44s-2.43-5.5-2.43-9.64.81-7.35,2.43-9.64,3.89-3.44,6.82-3.44,5.22,1.15,6.83,3.44,2.42,5.5,2.42,9.64-.81,7.35-2.42,9.64c-1.61,2.29-3.89,3.44-6.83,3.44Zm0-2.53c1.95,0,3.42-.9,4.41-2.69s1.49-4.41,1.49-7.86-.5-6.06-1.49-7.86-2.47-2.69-4.41-2.69-3.42.9-4.41,2.69-1.49,4.41-1.49,7.86.5,6.06,1.49,7.86,2.47,2.69,4.41,2.69Z" fill="#c9d1d9"/>
    </g>
    <g>
      <path d="m62.79,27.57v-2.07l8.89-7.54c1.21-1.03,2.19-1.97,2.96-2.81s1.33-1.7,1.7-2.57.54-1.83.54-2.9c0-1.16-.2-2.14-.61-2.93s-.99-1.39-1.75-1.78-1.69-.6-2.79-.6c-1.27,0-2.29.25-3.07.75s-1.36,1.17-1.74,2.01-.61,1.79-.68,2.85l-3.38-1.04c.07-1.12.48-2.23,1.22-3.32s1.77-1.99,3.07-2.71,2.82-1.07,4.55-1.07c.98,0,1.97.14,2.97.42s1.91.73,2.75,1.34,1.51,1.42,2.02,2.41.76,2.19.76,3.59c0,2-.54,3.79-1.63,5.37-1.09,1.58-2.61,3.16-4.57,4.74l-6.87,5.57-2.23-.42h15.8v2.71h-17.93.02Z" fill="#c9d1d9"/>
      <path d="m93.4,27.99c-2.93,0-5.2-1.15-6.82-3.44s-2.43-5.5-2.43-9.64.81-7.35,2.43-9.64,3.89-3.44,6.82-3.44,5.22,1.15,6.83,3.44,2.42,5.5,2.42,9.64-.81,7.35-2.42,9.64-3.89,3.44-6.83,3.44Zm0-2.53c1.95,0,3.42-.9,4.41-2.69s1.49-4.41,1.49-7.86-.5-6.06-1.49-7.86-2.47-2.69-4.41-2.69-3.42.9-4.41,2.69c-.99,1.79-1.49,4.41-1.49,7.86s.5,6.06,1.49,7.86,2.47,2.69,4.41,2.69Z" fill="#c9d1d9"/>
    </g>
    <g>
      <line x1="559.8" y1="439.2" x2="703.8" y2="439.2" fill="none" stroke="#307eef" stroke-miterlimit="10" stroke-width="2.83"/>
      <line x1="559.8" y1="511.2" x2="703.8" y2="511.2" fill="none" stroke="#1da37d" stroke-miterlimit="10" stroke-width="2.83"/>
      <line x1="559.8" y1="583.2" x2="703.8" y2="583.2" fill="none" stroke="#d85648" stroke-miterlimit="10" stroke-width="2.83"/>
      <line x1="559.8" y1="655.2" x2="703.8" y2="655.2" fill="none" stroke="#c9d1d9" stroke-miterlimit="10" stroke-width="2.83"/>
      <path d="m524.26,450.27l10.69-25.31h3.16l10.65,25.31h-3.38l-8.86-22.01-8.89,22.01h-3.38.01Zm5.48-8.3v-2.6h13.54v2.6h-13.54Z" fill="#c9d1d9"/>
      <path d="m528.79,522.27v-25.31h9.65c2.47,0,4.45.51,5.94,1.52s2.23,2.5,2.23,4.46c0,1.2-.26,2.19-.79,2.98s-1.2,1.4-2.03,1.83-1.7.69-2.61.8l.05-.07c1.85.3,3.37,1.03,4.56,2.18s1.78,2.75,1.78,4.82c0,1.68-.39,3.01-1.17,4.01s-1.81,1.71-3.1,2.14-2.7.65-4.24.65h-10.28l.01-.01Zm3.16-15.05h6.33c1.38,0,2.57-.3,3.55-.89s1.48-1.58,1.48-2.98c0-1.11-.38-2.02-1.13-2.73s-2-1.06-3.72-1.06h-6.5v7.66h-.01Zm0,12.45h7.12c1.37,0,2.44-.24,3.22-.71s1.32-1.08,1.63-1.82.47-1.51.47-2.3c0-1.14-.26-2.07-.79-2.81s-1.27-1.29-2.23-1.65-2.1-.54-3.41-.54h-5.99v9.84l-.02-.01Z" fill="#c9d1d9"/>
      <path d="m537.35,594.69c-2.39,0-4.49-.56-6.28-1.69s-3.2-2.68-4.19-4.67-1.49-4.27-1.49-6.85.48-4.73,1.43-6.68,2.32-3.48,4.1-4.6,3.91-1.68,6.4-1.68,4.72.65,6.61,1.95,3.14,3.28,3.76,5.94l-3.36.79c-.5-2.09-1.38-3.62-2.63-4.61s-2.73-1.48-4.44-1.48-3.3.45-4.56,1.35-2.22,2.14-2.89,3.71-1,3.37-1,5.4.34,3.88,1.03,5.47,1.65,2.82,2.89,3.7,2.71,1.33,4.39,1.33c1.84,0,3.43-.56,4.76-1.67s2.19-2.66,2.55-4.64l3.46.95c-.69,2.6-1.99,4.58-3.88,5.93s-4.12,2.03-6.66,2.03v.02Z" fill="#c9d1d9"/>
      <path d="m526.91,666.27v-25.31h7.65c2.98,0,5.42.5,7.32,1.51s3.31,2.45,4.23,4.32,1.37,4.09,1.37,6.65c0,2.91-.54,5.31-1.62,7.21s-2.6,3.31-4.57,4.24-4.29,1.39-6.96,1.39h-7.42v-.01Zm3.16-2.6h3.94c6.69,0,10.04-3.35,10.04-10.05,0-2.05-.33-3.83-.99-5.33s-1.71-2.67-3.15-3.49-3.33-1.23-5.67-1.23h-4.17v20.11-.01Z" fill="#c9d1d9"/>
    </g>
    <g>
      <path d="m352.72,846v-25.31h16.22v2.6h-13.06v7.8h11.76v2.6h-11.76v12.3h-3.16v.01Z" fill="#c9d1d9"/>
      <path d="m371.26,846v-18.98h2.78v4.03l-.11-.46c.56-1.31,1.41-2.31,2.54-2.98s2.28-1.01,3.44-1.01c.34,0,.67.03.99.09s.62.16.91.3l-.39,2.78c-.64-.2-1.28-.3-1.92-.3-.4,0-.89.08-1.49.24s-1.18.47-1.76.95-1.07,1.18-1.46,2.12-.59,2.19-.59,3.74v9.49h-2.95l.01-.01Z" fill="#c9d1d9"/>
      <path d="m392.35,846.42c-1.8,0-3.37-.4-4.68-1.21s-2.33-1.95-3.05-3.44-1.07-3.23-1.07-5.25.36-3.79,1.07-5.27,1.72-2.64,3.02-3.45,2.83-1.21,4.59-1.21c1.01,0,2.02.16,3.03.48s1.94.88,2.78,1.67,1.51,1.88,2.02,3.25.76,3.11.76,5.21h-15.38v-2.39h12.81l-.84,1.11c-.06-1.66-.33-3-.81-4.01s-1.1-1.74-1.87-2.19-1.62-.68-2.56-.68c-1.11,0-2.07.29-2.88.87s-1.43,1.43-1.86,2.54-.65,2.47-.65,4.08c0,2.37.48,4.2,1.45,5.48s2.34,1.93,4.12,1.93c1.28,0,2.35-.32,3.23-.97s1.51-1.58,1.92-2.79l2.9.98c-.46,1.1-1.07,2.04-1.83,2.82s-1.67,1.38-2.72,1.79-2.22.62-3.51.62l.01.03Z" fill="#c9d1d9"/>
      <path d="m418.63,852.86v-10.81l.26.28c-.52,1.38-1.37,2.41-2.57,3.08s-2.47,1.01-3.81,1.01c-1.54,0-2.89-.4-4.07-1.21s-2.09-1.96-2.75-3.45-.98-3.25-.98-5.27.33-3.78.99-5.26,1.58-2.62,2.75-3.43,2.53-1.2,4.06-1.2c1.24,0,2.47.31,3.69.93s2.14,1.67,2.76,3.15l-.16.14v-3.8h2.78v25.84h-2.95,0Zm-5.34-8.89c1,0,1.9-.26,2.72-.77s1.48-1.32,1.97-2.42.74-2.5.74-4.21c0-2.55-.53-4.44-1.58-5.67s-2.33-1.84-3.81-1.84c-1.57,0-2.86.65-3.87,1.94s-1.51,3.15-1.51,5.56.49,4.16,1.46,5.46,2.27,1.94,3.88,1.94v.01Z" fill="#c9d1d9"/>
      <path d="m433.45,846.42c-1.32,0-2.47-.3-3.45-.9s-1.72-1.45-2.25-2.57-.79-2.44-.79-3.99v-11.95h2.95v11.72c0,1.55.29,2.8.88,3.77s1.64,1.45,3.16,1.45c1.14,0,2.12-.29,2.95-.88s1.48-1.46,1.94-2.64.69-2.64.69-4.39v-9.04h2.95v18.98h-2.78v-4.46l.12.77c-.49,1.17-1.29,2.15-2.38,2.94s-2.43,1.18-4.02,1.18l.03.01Z" fill="#c9d1d9"/>
      <path d="m455.85,846.42c-1.8,0-3.37-.4-4.68-1.21s-2.33-1.95-3.05-3.44-1.07-3.23-1.07-5.25.36-3.79,1.07-5.27,1.72-2.64,3.02-3.45,2.83-1.21,4.59-1.21c1.01,0,2.02.16,3.03.48s1.94.88,2.78,1.67,1.51,1.88,2.02,3.25.76,3.11.76,5.21h-15.38v-2.39h12.81l-.84,1.11c-.06-1.66-.33-3-.81-4.01s-1.1-1.74-1.87-2.19-1.62-.68-2.56-.68c-1.11,0-2.07.29-2.88.87s-1.43,1.43-1.86,2.54-.65,2.47-.65,4.08c0,2.37.48,4.2,1.45,5.48s2.34,1.93,4.12,1.93c1.28,0,2.35-.32,3.23-.97s1.51-1.58,1.92-2.79l2.9.98c-.46,1.1-1.07,2.04-1.83,2.82s-1.67,1.38-2.72,1.79-2.22.62-3.51.62l.01.03Z" fill="#c9d1d9"/>
      <path d="m468.78,846v-18.98h2.78v4.29l-.12-.77c.5-1.09,1.3-2.02,2.39-2.79s2.41-1.15,3.97-1.15c1.35,0,2.51.3,3.48.9s1.72,1.45,2.25,2.56.79,2.44.79,4v11.95h-2.95v-11.72c0-1.56-.32-2.82-.96-3.78s-1.69-1.44-3.16-1.44c-1.58,0-2.9.6-3.95,1.8s-1.57,2.94-1.57,5.21v9.93h-2.95v-.01Z" fill="#c9d1d9"/>
      <path d="m497.28,846.42c-1.78,0-3.32-.4-4.62-1.21s-2.3-1.95-3.01-3.44-1.05-3.24-1.05-5.26.35-3.78,1.05-5.26,1.71-2.63,3.01-3.44,2.84-1.21,4.62-1.21c1.36,0,2.58.25,3.65.75s1.98,1.21,2.72,2.14,1.29,2.05,1.64,3.37l-3.01.79c-.33-1.48-.92-2.61-1.77-3.4s-1.93-1.19-3.24-1.19c-1.75,0-3.09.65-4.03,1.94s-1.42,3.13-1.42,5.51.47,4.23,1.42,5.52,2.29,1.93,4.03,1.93c1.3,0,2.37-.38,3.22-1.15s1.44-1.88,1.78-3.33l2.99.84c-.28.96-.67,1.82-1.16,2.57s-1.08,1.39-1.75,1.92-1.44.93-2.29,1.2-1.78.41-2.79.41h.01Z" fill="#c9d1d9"/>
      <path d="m510.09,852.86v-2.46h2.88c.21,0,.38-.07.49-.2s.23-.35.33-.64l1.37-3.92-.3,1.35-7.63-19.97h3.3l6.05,17.49-.65-.16,6.03-17.33h3.27l-9.05,23.71c-.25.64-.66,1.16-1.25,1.55s-1.2.58-1.83.58h-3.02.01Z" fill="#c9d1d9"/>
      <path d="m542.4,851.94c-1.82-2.32-3.19-4.85-4.13-7.58s-1.41-5.59-1.41-8.55.47-5.8,1.42-8.54,2.32-5.29,4.12-7.63h3.13c-2.02,2.68-3.5,5.31-4.44,7.88s-1.42,5.33-1.42,8.29.46,5.78,1.37,8.35,2.41,5.16,4.48,7.79h-3.13l.01-.01Z" fill="#c9d1d9"/>
      <path d="m548.83,846v-25.31h3.16v10.93h13.82v-10.93h3.16v25.31h-3.16v-11.78h-13.82v11.78h-3.16Z" fill="#c9d1d9"/>
      <path d="m573.27,846v-2.53l11.39-13.92h-10.93v-2.53h14.48v2.53l-11.57,13.92h11.99v2.53h-15.36Z" fill="#c9d1d9"/>
      <path d="m590.28,851.94c2.07-2.62,3.57-5.22,4.48-7.79s1.37-5.35,1.37-8.35-.47-5.72-1.41-8.29-2.42-5.2-4.45-7.88h3.13c1.8,2.34,3.18,4.89,4.12,7.63s1.42,5.59,1.42,8.54-.47,5.82-1.41,8.55-2.31,5.26-4.13,7.58h-3.13l.01.01Z" fill="#c9d1d9"/>
    </g>
    <g>
      <path d="m32.82,443.32c0,2.78-.56,5.09-1.68,6.95s-2.66,3.26-4.63,4.19-4.21,1.41-6.73,1.41-4.85-.47-6.82-1.42-3.51-2.3-4.62-4.09-1.67-3.92-1.67-6.42c0-1.7.28-3.26.85-4.69.57-1.43,1.43-2.63,2.58-3.63s2.6-1.69,4.34-2.09l.79,3.45c-2.06.4-3.57,1.22-4.53,2.48s-1.43,2.75-1.43,4.5.45,3.29,1.34,4.55,2.14,2.23,3.74,2.91,3.47,1.01,5.6,1.01c1.89,0,3.61-.3,5.17-.89s2.8-1.54,3.73-2.84,1.39-3.01,1.39-5.13c0-1.3-.2-2.58-.61-3.82s-1.17-2.32-2.29-3.22h-6.1l.91-.9v9.4h-2.67v-11.46h8.86c1.29.9,2.26,1.93,2.9,3.08s1.07,2.31,1.28,3.48.32,2.22.32,3.17l-.02.02Z" fill="#c9d1d9"/>
      <path d="m32.82,423.45c0,1.27-.24,2.36-.73,3.29s-1.15,1.65-2,2.15-1.8.76-2.87.76c-1.14,0-2.19-.33-3.15-1s-1.73-1.7-2.31-3.1-.87-3.2-.87-5.39v-3.16l.32.32h-1.04c-1.52,0-2.69.3-3.51.91s-1.22,1.63-1.22,3.06c0,1.35.35,2.38,1.05,3.11.7.73,1.63,1.11,2.8,1.16l-.76,3.32c-1.02-.11-1.95-.5-2.79-1.17s-1.51-1.58-2.01-2.71-.76-2.44-.76-3.93.29-2.79.87-3.75,1.42-1.68,2.5-2.13,2.4-.69,3.94-.69h8.67c.39,0,.64-.06.77-.17s.19-.35.19-.71v-1.07h2.46v1.88c0,.8-.25,1.46-.75,2s-1.13.81-1.89.81h-1.34v-.44c.49.19.99.46,1.5.81s.98.8,1.42,1.34.79,1.18,1.06,1.92.4,1.6.4,2.58h.05Zm-2.46-.67c0-.97-.24-1.88-.72-2.71s-1.23-1.5-2.26-2.01-2.36-.76-4-.76h-.16v2.97c0,1.56.21,2.79.62,3.68s.92,1.53,1.52,1.91,1.2.56,1.8.56,1.14-.13,1.62-.4.86-.67,1.15-1.21.43-1.21.43-2.02v-.01Z" fill="#c9d1d9"/>
      <path d="m10.23,406.98c0,.68-.24,1.26-.72,1.74-.48.48-1.06.72-1.74.72s-1.27-.24-1.75-.72c-.47-.48-.71-1.06-.71-1.74s.24-1.27.71-1.75,1.06-.71,1.75-.71,1.26.24,1.74.71.72,1.06.72,1.75Zm22.17,1.48H13.42v-2.95h18.98v2.95Z" fill="#c9d1d9"/>
      <path d="m32.4,399.76H13.42v-2.78h4.29l-.77.12c-1.09-.5-2.02-1.3-2.79-2.39s-1.15-2.41-1.15-3.97c0-1.35.3-2.51.9-3.48s1.45-1.72,2.56-2.25,2.44-.79,4-.79h11.95v2.95h-11.72c-1.56,0-2.82.32-3.78.96s-1.44,1.69-1.44,3.16c0,1.58.6,2.9,1.8,3.95s2.94,1.57,5.21,1.57h9.93v2.95h-.01Z" fill="#c9d1d9"/>
      <path d="m38.34,365.41c-2.32,1.82-4.85,3.19-7.58,4.13s-5.59,1.41-8.55,1.41-5.8-.47-8.54-1.42-5.29-2.32-7.63-4.12v-3.13c2.68,2.02,5.31,3.5,7.88,4.44s5.33,1.42,8.29,1.42,5.78-.46,8.35-1.37c2.57-.91,5.16-2.41,7.79-4.48v3.13l-.01-.01Z" fill="#c9d1d9"/>
      <path d="m32.82,354.42c0,1.54-.4,2.89-1.21,4.07s-1.96,2.09-3.45,2.75-3.25.98-5.27.98-3.78-.33-5.26-.99-2.62-1.58-3.43-2.75-1.2-2.53-1.2-4.06c0-1.24.31-2.47.93-3.69s1.67-2.14,3.15-2.76l.14.33H6.03v-2.95h26.37v2.78h-3.96l.28-.09c1.38.52,2.41,1.37,3.08,2.57.67,1.2,1.01,2.47,1.01,3.81h.01Zm-2.46-.77c0-1-.26-1.9-.77-2.72s-1.32-1.48-2.42-1.97-2.5-.74-4.21-.74c-2.55,0-4.44.53-5.67,1.58s-1.84,2.33-1.84,3.81c0,1.57.65,2.86,1.94,3.87s3.15,1.51,5.56,1.51,4.16-.49,5.46-1.46,1.94-2.27,1.94-3.88h.01Z" fill="#c9d1d9"/>
      <path d="m32.4,339.6H7.09v-9.65c0-2.47.51-4.45,1.52-5.94s2.5-2.23,4.46-2.23c1.2,0,2.19.26,2.98.79s1.4,1.2,1.83,2.03.69,1.7.8,2.61l-.07-.05c.3-1.85,1.03-3.37,2.18-4.56s2.75-1.78,4.82-1.78c1.68,0,3.01.39,4.01,1.17s1.71,1.81,2.14,3.1.65,2.7.65,4.24v10.28l-.01-.01Zm-15.05-3.16v-6.33c0-1.38-.3-2.57-.89-3.55s-1.58-1.48-2.98-1.48c-1.11,0-2.02.38-2.73,1.13s-1.06,2-1.06,3.72v6.5h7.66v.01Zm12.45,0v-7.12c0-1.37-.24-2.44-.71-3.22s-1.08-1.32-1.82-1.63-1.51-.47-2.3-.47c-1.14,0-2.07.26-2.81.79s-1.29,1.27-1.65,2.23-.54,2.1-.54,3.41v5.99h9.84l-.01.02Z" fill="#c9d1d9"/>
      <path d="m38.34,319.62c-2.62-2.07-5.22-3.57-7.79-4.48s-5.35-1.37-8.35-1.37-5.72.47-8.29,1.41-5.2,2.42-7.88,4.45v-3.13c2.34-1.8,4.89-3.18,7.63-4.12s5.59-1.42,8.54-1.42,5.82.47,8.55,1.41c2.73.94,5.26,2.31,7.58,4.13v3.13l.01-.01Z" fill="#c9d1d9"/>
    </g>
  </g>
</svg>