<?xml version="1.0" encoding="UTF-8"?>
<svg id="Ebene_5" data-name="Ebene 5" xmlns="http://www.w3.org/2000/svg" viewBox="0 0 1839.6 540">
  <defs>
    <style>
      .cls-1 {
        fill: #c9d1d9;
      }

      .cls-2, .cls-3 {
        fill: #307eef;
      }

      .cls-4 {
        stroke-linecap: round;
      }

      .cls-4, .cls-5, .cls-6, .cls-7, .cls-8, .cls-9 {
        fill: none;
      }

      .cls-4, .cls-5, .cls-8, .cls-3 {
        stroke: #307eef;
      }

      .cls-4, .cls-7, .cls-8 {
        stroke-width: 2.83px;
      }

      .cls-4, .cls-3 {
        stroke-linejoin: round;
      }

      .cls-5 {
        stroke-width: 4.11px;
      }

      .cls-5, .cls-6, .cls-7, .cls-8, .cls-9 {
        stroke-miterlimit: 10;
      }

      .cls-6 {
        stroke-width: 2.83px;
      }

      .cls-6, .cls-7, .cls-9 {
        stroke: #c9d1d9;
      }

      .cls-9 {
        stroke-width: 2.83px;
      }
    </style>
  </defs>
  <rect class="cls-7" x="288" y="104.4" width="144" height="144"/>
  <g>
    <line class="cls-9" x1="216" y1="176.4" x2="262.94" y2="176.4"/>
    <polygon class="cls-1" points="257.33 184.62 288 176.41 257.33 168.18 257.33 184.62"/>
  </g>
  <g>
    <line class="cls-9" x1="432" y1="176.4" x2="550.94" y2="176.4"/>
    <polygon class="cls-1" points="545.33 184.62 576 176.41 545.33 168.18 545.33 184.62"/>
  </g>
  <rect class="cls-7" x="576" y="104.4" width="144" height="144"/>
  <path class="cls-4" d="m691.2,165.63l-.03.03-.07.03-.03.03-.03.03-.03.03-.03.03-.03.03-.07.03-.03.03-.03.03-.03.03-.03.03-.07.03-.03.03-.03.03-.03.03-.03.03-.03.03-.07.03-.03.03-.03.03-.03.03-.03.03-.07.03-.03.03-.03.03-.03.03-.03.03-.03.06-.07.03-.03.03-.03.03-.03.03-.03.03-.07.03-.03.03-.03.03-.03.03-.03.03-.07.03-.03.03-.03.03-.03.03-.03.03-.03.03-.07.03-.03.03-.03.03-.03.03-.03.03-.07.03-.03.03-.03.03-.03.03-.03.03-.03.03-.07.03-.03.03-.03.03-.03.03-.03.03-.07.03-.03.03-.03.03-.03.03-.03.03-.03.03-.07.03-.03.03-.03.03-.03.03-.03.03-.07.03-.03.03-.03.03-.03.03-.03.03-.03.03-.07.03-.03.03-.03.03-.03.03-.03.03-.07.03-.03.03-.03.03-.03.03-.03.03-.03.03-.07.03-.03.03-.03.03-.03.03-.03.03-.07.03-.03.03h-.03l-.03.03-.03.03-.03.03-.07.03-.03.03-.03.03-.03.03-.03.03-.07.03-.03.03-.03.03-.03.03-.03.03-.07.03-.03.03-.03.03-.03.03-.03.03-.03.03-.07.03-.03.03-.03.03-.03.03-.03.03-.07.03-.03.03-.03.03-.03.03-.03.03h-.03l-.07.03-.03.03-.03.03-.03.03-.03.03-.07.03-.03.03-.03.03-.03.03-.03.03-.03.03-.07.03-.03.03-.03.03-.03.03-.03.03h-.07l-.03.03-.03.03-.03.03-.03.03-.03.03-.07.03-.03.03-.03.03-.03.03-.03.03-.07.03-.03.03-.03.03h-.03l-.03.03-.03.03-.07.03-.03.03-.03.03-.03.03-.03.03-.07.03-.03.03-.03.03h-.03l-.03.03-.07.03-.03.03-.03.03-.03.03-.03.03-.03.03-.07.03h-.03l-.03.03-.03.03-.03.03-.07.03-.03.03-.03.03-.03.03-.03.03h-.03l-.07.03-.03.03-.03.03-.03.03-.03.03-.07.03h-.03l-.03.03-.03.03-.03.03-.03.03-.07.03-.03.03-.03.03h-.03l-.03.03-.07.03-.03.03-.03.03-.03.03h-.03s-.03.03-.03.03l-.07.03-.03.03-.03.03-.03.03h-.03s-.07.03-.07.03l-.03.03-.03.03-.03.03-.03.03h-.03l-.07.03-.03.03-.03.03-.03.03-.03.03h-.07l-.03.03-.03.03-.03.03-.03.03h-.03l-.07.03-.03.03-.03.03-.03.03h-.03l-.07.03-.03.03-.03.03-.03.03h-.03s-.07.03-.07.03l-.03.03-.03.03h-.03l-.03.03-.03.03-.07.03-.03.03h-.03l-.03.03-.03.03-.07.03h-.03l-.03.03-.03.03-.03.03h-.03l-.07.03-.03.03-.03.03h-.03l-.03.03-.07.03-.03.03h-.03l-.03.03-.03.03-.03.03h-.07l-.03.03-.03.03-.03.03h-.03l-.07.03-.03.03h-.03l-.03.03-.03.03-.03.03h-.07l-.03.03-.03.03h-.03l-.03.03-.07.03h-.03l-.03.03-.03.03h-.03l-.03.03-.07.03-.03.03h-.03l-.03.03-.03.03h-.07l-.03.03-.03.03h-.03l-.03.03-.07.03h-.03s-.03.03-.03.03l-.03.03h-.03l-.03.03-.07.03h-.03l-.03.03h-.03l-.03.03-.07.03h-.03l-.03.03-.03.03h-.03l-.03.03-.07.03h-.03l-.03.03h-.03l-.03.03-.07.03h-.03s-.03.03-.03.03h-.03s-.03.03-.03.03l-.03.03h-.07s-.03.03-.03.03h-.03l-.03.03-.03.03h-.07l-.03.03h-.03l-.03.03-.03.03h-.03l-.07.03h-.03l-.03.03h-.03l-.03.03-.07.03h-.03l-.03.03h-.03l-.03.03h-.03l-.07.03h-.03l-.03.03h-.03l-.03.03-.07.03h-.03l-.03.03h-.03s-.03.03-.03.03h-.03s-.07.03-.07.03h-.03l-.03.03h-.03l-.03.03h-.07l-.03.03h-.03s-.03.03-.03.03h-.03l-.07.03h-.03s-.03.03-.03.03h-.03s-.03.03-.03.03h-.03l-.07.03h-.03l-.03.03h-.03l-.03.03h-.1s-.03.03-.03.03h-.03l-.03.03h-.03l-.07.03h-.03l-.03.03h-.07s-.07.03-.07.03h-.03s-.03.03-.03.03h-.03l-.03.03h-.03l-.07.03h-.07s-.03.03-.03.03h-.03l-.07.03h-.07l-.03.03h-.03l-.03.03h-.1s-.03.03-.03.03h-.03l-.03.03h-.1l-.03.03h-.07l-.03.03h-.1l-.03.03h-.03l-.03.03h-.1s-.03.03-.03.03h-.07s-.07.03-.07.03h-.07l-.03.03h-.07s-.07.03-.07.03h-.1l-.03.03h-.1s-.03.03-.03.03h-.07s-.03.03-.03.03h-.13s-.03.03-.03.03h-.1l-.03.03h-.1s-.03.03-.03.03h-.13s-.03.03-.03.03h-.13l-.03.03h-.17s-.03.03-.03.03h-.1l-.07.03h-.13l-.03.03h-.17s-.03.03-.03.03h-.2s-.03.03-.03.03h-.07s-.13,0-.13,0l-.07.03h-.07s-.03,0-.03,0h-.17s-.03.03-.03.03h-.13s-.13,0-.13,0l-.07.03h-.27s-.17,0-.17,0l-.03.03h-.23s-.03,0-.03,0h-.17s-.03,0-.03,0h-.17s-.03,0-.03,0h-.2s-.07,0-.07,0h-.03s-.03,0-.03,0h-.2s-.07,0-.07,0h-.36s-.07,0-.07,0h-.13l-.07-.03h-.17s-.07,0-.07,0h-.13l-.07-.03h-.13s-.17,0-.17,0l-.03-.03h-.23l-.03-.03h-.07s-.03,0-.03,0h-.17l-.03-.03h-.13l-.07-.03h-.13l-.07-.03h-.13l-.03-.03h-.17l-.03-.03h-.13l-.03-.03h-.13l-.03-.03h-.1l-.07-.03h-.1l-.03-.03h-.13l-.03-.03h-.07l-.07-.03h-.1l-.03-.03h-.1l-.03-.03h-.07l-.03-.03h-.1l-.03-.03h-.07l-.07-.03h-.07l-.03-.03h-.07l-.07-.03h-.07l-.03-.03h-.1l-.03-.03h-.03l-.03-.03h-.07l-.07-.03h-.07l-.03-.03h-.03l-.07-.03h-.07l-.03-.03h-.03l-.07-.03h-.07l-.03-.03h-.03l-.03-.03h-.07l-.03-.03h-.07l-.03-.03h-.07l-.03-.03h-.03l-.03-.03h-.03l-.03-.03h-.1l-.03-.03h-.03l-.03-.03h-.07l-.03-.03h-.03l-.03-.03h-.03l-.03-.03h-.07l-.03-.03h-.03l-.03-.03h-.03l-.07-.03h-.03l-.03-.03h-.03l-.03-.03h-.03l-.07-.03h-.03l-.03-.03h-.03l-.03-.03h-.07l-.03-.03h-.03l-.03-.03h-.03l-.03-.03h-.07l-.03-.03h-.03l-.03-.03h-.03l-.07-.03-.03-.03h-.03l-.03-.03h-.03l-.03-.03h-.07l-.03-.03h-.03l-.03-.03-.03-.03h-.07l-.03-.03h-.03l-.03-.03-.03-.03h-.07l-.03-.03h-.03l-.03-.03h-.03l-.03-.03-.07-.03h-.03l-.03-.03h-.03l-.03-.03-.07-.03h-.03l-.03-.03-.03-.03h-.03l-.03-.03h-.07l-.03-.03-.03-.03h-.03l-.03-.03-.07-.03h-.03l-.03-.03-.03-.03h-.03l-.03-.03h-.07l-.03-.03-.03-.03h-.03l-.03-.03-.07-.03h-.03l-.03-.03-.03-.03h-.03l-.03-.03-.07-.03h-.03l-.03-.03-.03-.03h-.03l-.07-.03-.03-.03-.03-.03h-.03l-.03-.03-.03-.03h-.07l-.03-.03-.03-.03h-.03l-.03-.03-.07-.03-.03-.03h-.03l-.03-.03-.03-.03h-.07l-.03-.03-.03-.03-.03-.03h-.03l-.03-.03-.07-.03-.03-.03h-.03l-.03-.03-.03-.03h-.07l-.03-.03-.03-.03-.03-.03h-.03l-.03-.03-.07-.03-.03-.03h-.03l-.03-.03-.03-.03-.07-.03-.03-.03h-.03l-.03-.03-.03-.03-.03-.03h-.07l-.03-.03-.03-.03-.03-.03h-.03l-.07-.03-.03-.03-.03-.03-.03-.03h-.03l-.03-.03-.07-.03-.03-.03-.03-.03h-.03l-.03-.03-.07-.03-.03-.03-.03-.03h-.03l-.03-.03-.03-.03-.07-.03-.03-.03-.03-.03h-.03l-.03-.03-.07-.03-.03-.03-.03-.03h-.03l-.03-.03-.03-.03-.07-.03-.03-.03-.03-.03h-.03l-.03-.03-.07-.03-.03-.03-.03-.03-.03-.03-.03-.03h-.07l-.03-.03-.03-.03-.03-.03-.03-.03-.03-.03h-.07l-.03-.03-.03-.03-.03-.03-.03-.03-.07-.03-.03-.03-.03-.03h-.03l-.03-.03-.03-.03-.07-.03-.03-.03-.03-.03-.03-.03-.03-.03h-.07l-.03-.03-.03-.03-.03-.03-.03-.03-.03-.03-.07-.03-.03-.03-.03-.03h-.03l-.03-.03-.07-.03-.03-.03-.03-.03-.03-.03-.03-.03-.03-.03-.07-.03-.03-.03h-.03l-.03-.03-.03-.03-.07-.03-.03-.03-.03-.03-.03-.03-.03-.03-.03-.03-.07-.03-.03-.03-.03-.03h-.03l-.03-.03-.07-.03-.03-.03-.03-.03-.03-.03-.03-.03-.07-.03-.03-.03-.03-.03-.03-.03-.03-.03-.03-.03-.07-.03-.03-.03h-.03l-.03-.03-.03-.03-.07-.03-.03-.03-.03-.03-.03-.03-.03-.03-.03-.03-.07-.03-.03-.03-.03-.03-.03-.03-.03-.03-.07-.03-.03-.03-.03-.03-.03-.03-.03-.03-.03-.03-.07-.03-.03-.03h-.03l-.03-.03-.03-.03-.07-.03-.03-.03-.03-.03-.03-.03-.03-.03-.03-.03-.07-.03-.03-.03-.03-.03-.03-.03-.03-.03-.07-.03-.03-.03-.03-.03-.03-.03-.03-.03-.03-.03-.07-.03-.03-.03-.03-.03-.03-.03-.03-.03-.07-.03-.03-.03-.03-.03-.03-.03-.03-.03-.03-.03-.07-.03-.03-.03-.03-.03-.03-.03-.03-.03-.07-.03-.03-.03-.03-.03-.03-.03-.03-.03-.07-.03-.03-.03-.03-.03-.03-.03-.03-.03-.03-.03-.07-.03-.03-.03-.03-.03-.03-.03-.03-.03-.07-.03-.03-.03-.03-.03-.03-.03-.03-.03-.03-.03-.07-.03-.03-.03-.03-.03-.03-.03-.03-.03-.07-.03-.03-.03-.03-.03-.03-.03-.03-.03-.03-.03-.07-.03-.03-.03-.03-.03-.03-.03-.03-.03-.07-.03-.03-.03-.03-.03-.03-.03-.03-.03-.03-.03-.07-.03-.03-.03-.03-.03-.03-.03-.03-.03-.07-.03-.03-.03-.03-.03-.03-.03-.03-.03-.03-.03-.07-.03-.03-.03-.03-.03-.03-.03-.03-.03-.07-.03-.03-.03-.03-.03-.03-.03-.03-.03-.07-.03-.03-.03-.03-.03-.03-.03-.03-.03-.03-.03-.07-.03-.03-.03-.03-.03-.03-.03-.03-.03-.07-.03-.03-.03-.03-.03-.03-.06-.03-.03-.03-.03-.07-.03-.03-.03-.03-.03-.03-.03-.03-.03-.07-.03-.03-.03-.03-.03-.03-.03-.03-.03-.03-.03-.07-.03-.03-.03-.03-.03-.03-.03-.03-.03-.07-.03-.03-.03-.03-.03-.03-.03-.03-.03-.03-.03-.07-.03-.03-.03-.03-.03-.03-.03-.03-.03-.07-.03-.03-.03-.03-.03-.03-.03-.03-.03-.03-.03-.07-.03-.03-.03-.03-.03-.03-.03-.03-.03-.07-.03-.03-.03-.03-.03-.03-.03-.03-.03-.03-.03-.07-.03-.03-.03-.03-.03-.03-.03-.03-.03-.07-.03-.03-.03-.03-.03-.03-.03-.03-.03-.07-.03-.03-.03-.03-.03-.03-.03-.03-.03-.03-.03-.07-.03-.03-.03-.03-.03-.03-.03-.03-.03-.07-.03-.03-.03-.03-.03-.03-.03-.03-.03-.03-.03-.07-.03-.03-.03-.03-.03-.03-.03-.03-.03-.07-.03-.03-.03-.03-.03-.03-.03-.03-.03-.03-.03-.07-.03-.03-.03-.03-.03-.03-.03-.03-.03-.07-.03-.03-.03-.03-.03-.03-.03-.03-.03-.03-.03-.07-.03-.03-.03-.03-.03-.03-.03-.03-.03-.07-.03-.03-.03-.03-.03-.03-.03-.03-.03-.03-.03-.07-.03-.03-.03-.03-.03-.03-.03-.03-.03-.07-.03-.03-.03-.03-.03h-.03l-.03-.03-.07-.03-.03-.03-.03-.03-.03-.03-.03-.03-.03-.03-.07-.03-.03-.03-.03-.03-.03-.03-.03-.03-.07-.03-.03-.03-.03-.03-.03-.03-.03-.03-.03-.03-.07-.03-.03-.03-.03-.03h-.03l-.03-.03-.07-.03-.03-.03-.03-.03-.03-.03-.03-.03-.03-.03-.07-.03-.03-.03-.03-.03-.03-.03-.03-.03-.07-.03-.03-.03h-.03l-.03-.03-.03-.03-.03-.03-.07-.03-.03-.03-.03-.03-.03-.03-.03-.03-.07-.03-.03-.03-.03-.03h-.03l-.03-.03-.03-.03-.07-.03-.03-.03-.03-.03-.03-.03-.03-.03-.07-.03-.03-.03h-.03l-.03-.03-.03-.03-.03-.03-.07-.03-.03-.03-.03-.03-.03-.03-.03-.03h-.07l-.03-.03-.03-.03-.03-.03-.03-.03-.07-.03-.03-.03-.03-.03h-.03l-.03-.03-.03-.03-.07-.03-.03-.03-.03-.03-.03-.03-.03-.03h-.07l-.03-.03-.03-.03-.03-.03-.03-.03-.03-.03h-.07l-.03-.03-.03-.03-.03-.03-.03-.03-.07-.03-.03-.03h-.03l-.03-.03-.03-.03-.03-.03-.07-.03-.03-.03h-.03l-.03-.03-.03-.03-.07-.03-.03-.03h-.03l-.03-.03-.03-.03-.03-.03-.07-.03-.03-.03h-.03l-.03-.03-.03-.03-.07-.03-.03-.03h-.03l-.03-.03-.03-.03-.03-.03-.07-.03h-.03l-.03-.03-.03-.03-.03-.03-.07-.03h-.03l-.03-.03-.03-.03-.03-.03h-.07l-.03-.03-.03-.03-.03-.03h-.03l-.03-.03-.07-.03-.03-.03-.03-.03h-.03l-.03-.03-.07-.03-.03-.03h-.03l-.03-.03-.03-.03-.03-.03h-.07l-.03-.03-.03-.03h-.03l-.03-.03-.07-.03-.03-.03h-.03l-.03-.03-.03-.03-.03-.03h-.07l-.03-.03-.03-.03h-.03l-.03-.03-.07-.03-.03-.03h-.03l-.03-.03-.03-.03h-.03l-.07-.03-.03-.03h-.03l-.03-.03-.03-.03-.07-.03h-.03l-.03-.03-.03-.03h-.03l-.03-.03-.07-.03h-.03l-.03-.03-.03-.03h-.03l-.07-.03-.03-.03h-.03l-.03-.03-.03-.03h-.03l-.07-.03h-.03l-.03-.03-.03-.03h-.03l-.07-.03-.03-.03h-.03l-.03-.03-.03-.03h-.07l-.03-.03h-.03l-.03-.03-.03-.03h-.03l-.07-.03-.03-.03h-.03l-.03-.03h-.03l-.07-.03-.03-.03h-.03l-.03-.03h-.03l-.03-.03h-.07l-.03-.03-.03-.03h-.03l-.03-.03h-.07l-.03-.03-.03-.03h-.03l-.03-.03h-.03l-.07-.03h-.03l-.03-.03h-.03l-.03-.03-.07-.03h-.03l-.03-.03h-.03l-.03-.03h-.03l-.07-.03h-.03l-.03-.03h-.03l-.03-.03h-.07l-.03-.03h-.03l-.03-.03h-.03l-.03-.03h-.07l-.03-.03h-.03l-.03-.03h-.03l-.07-.03h-.03l-.03-.03h-.03l-.03-.03h-.07l-.03-.03h-.03l-.03-.03h-.03l-.03-.03h-.07l-.03-.03h-.03l-.03-.03h-.1l-.03-.03h-.03l-.03-.03h-.03l-.03-.03h-.07l-.03-.03h-.07l-.03-.03h-.07l-.03-.03h-.03l-.03-.03h-.07l-.07-.03h-.03l-.03-.03h-.07l-.07-.03h-.03l-.03-.03h-.07l-.03-.03h-.1l-.03-.03h-.03l-.03-.03h-.1l-.03-.03h-.07l-.03-.03h-.1l-.03-.03h-.07l-.07-.03h-.07l-.03-.03h-.07l-.07-.03h-.07l-.03-.03h-.1l-.03-.03h-.1l-.07-.03h-.07l-.03-.03h-.13l-.03-.03h-.1l-.07-.03h-.1l-.03-.03h-.13l-.03-.03h-.13l-.03-.03h-.13l-.07-.03h-.13l-.07-.03h-.13l-.03-.03h-.17l-.03-.03h-.23l-.07-.03h-.07s-.17,0-.17,0l-.03-.03h-.3l-.07-.03h-.13s-.07,0-.07,0h-.17l-.07-.03h-.07s-.03,0-.03,0h-.17s-.03,0-.03,0h-.17s-.03,0-.03,0h-.17s-.03,0-.03,0h-.2s-.03,0-.03,0h-.03s-.03,0-.03,0h-.23s-.07,0-.07,0h-.13s-.07,0-.07,0h-.23s-.1,0-.1,0l-.03.03h-.2s-.07,0-.07,0h-.17s-.07.03-.07.03h-.27s-.03.03-.03.03h-.07s-.07,0-.07,0h-.13s-.07.03-.07.03h-.17s-.07.03-.07.03h-.2s-.03.03-.03.03h-.13s-.07.03-.07.03h-.13s-.07.03-.07.03h-.1s-.03.03-.03.03h-.17s-.03.03-.03.03h-.13s-.03.03-.03.03h-.13l-.03.03h-.1s-.03.03-.03.03h-.1s-.03.03-.03.03h-.13s-.03.03-.03.03h-.07l-.03.03h-.1s-.03.03-.03.03h-.1s-.07.03-.07.03h-.07l-.03.03h-.07l-.07.03h-.07s-.03.03-.03.03h-.1s-.03.03-.03.03h-.03l-.03.03h-.07s-.07.03-.07.03h-.07l-.03.03h-.1l-.03.03h-.03l-.03.03h-.07l-.07.03h-.03s-.03.03-.03.03h-.07l-.07.03h-.03l-.03.03h-.07s-.03.03-.03.03h-.07l-.03.03h-.03l-.03.03h-.03l-.07.03h-.07l-.03.03h-.03l-.07.03h-.03l-.03.03h-.03l-.03.03h-.1l-.03.03h-.03l-.03.03h-.03l-.07.03h-.03l-.03.03h-.03l-.03.03h-.03l-.07.03h-.03l-.03.03h-.03s-.03.03-.03.03h-.07l-.03.03h-.03l-.03.03h-.03s-.03.03-.03.03h-.07s-.03.03-.03.03h-.03l-.03.03h-.03l-.07.03-.03.03h-.03l-.03.03h-.03s-.03.03-.03.03h-.07l-.03.03h-.03l-.03.03h-.03l-.07.03-.03.03h-.03l-.03.03h-.03l-.03.03h-.07l-.03.03-.03.03h-.03l-.03.03h-.07s-.03.03-.03.03l-.03.03h-.03l-.03.03h-.07l-.03.03-.03.03h-.03l-.03.03h-.03l-.07.03-.03.03h-.03l-.03.03h-.03l-.07.03-.03.03h-.03s-.03.03-.03.03l-.03.03h-.03l-.07.03-.03.03h-.03l-.03.03h-.03l-.07.03-.03.03h-.03l-.03.03-.03.03h-.03l-.07.03-.03.03h-.03l-.03.03-.03.03h-.07l-.03.03-.03.03h-.03l-.03.03-.03.03-.07.03h-.03l-.03.03-.03.03h-.03l-.07.03-.03.03h-.03l-.03.03-.03.03h-.03l-.07.03-.03.03-.03.03h-.03s-.03.03-.03.03l-.07.03h-.03l-.03.03-.03.03-.03.03h-.03l-.07.03-.03.03-.03.03h-.03s-.03.03-.03.03l-.07.03-.03.03h-.03l-.03.03-.03.03-.07.03h-.03l-.03.03-.03.03-.03.03h-.03l-.07.03-.03.03-.03.03h-.03l-.03.03-.07.03-.03.03-.03.03h-.03l-.03.03-.03.03-.07.03h-.03s-.03.03-.03.03l-.03.03-.03.03-.07.03h-.03l-.03.03-.03.03-.03.03-.03.03h-.07s-.03.03-.03.03l-.03.03-.03.03-.03.03h-.07s-.03.03-.03.03l-.03.03-.03.03-.03.03-.03.03h-.07l-.03.03-.03.03-.03.03-.03.03-.07.03h-.03l-.03.03-.03.03-.03.03-.03.03-.07.03h-.03l-.03.03-.03.03-.03.03-.07.03-.03.03h-.03s-.03.03-.03.03l-.03.03-.07.03-.03.03-.03.03-.03.03-.03.03h-.03l-.07.03-.03.03-.03.03-.03.03-.03.03-.07.03h-.03l-.03.03-.03.03-.03.03-.03.03-.07.03-.03.03-.03.03-.03.03h-.03l-.07.03-.03.03-.03.03-.03.03-.03.03-.03.03-.07.03-.03.03h-.03l-.03.03-.03.03-.07.03-.03.03-.03.03-.03.03-.03.03-.03.03-.07.03-.03.03h-.03l-.03.03-.03.03-.07.03-.03.03-.03.03-.03.03-.03.03-.03.03-.07.03-.03.03-.03.03-.03.03-.03.03h-.07s-.03.03-.03.03l-.03.03-.03.03-.03.03-.03.03-.07.03-.03.03-.03.03-.03.03-.03.03-.07.03-.03.03-.03.03-.03.03-.03.03-.07.03h-.03l-.03.03-.03.03-.03.03-.03.03-.07.03-.03.03-.03.03-.03.03-.03.03-.07.03-.03.03-.03.03-.03.03-.03.03-.03.03-.07.03-.03.03-.03.03-.03.03-.03.03-.07.03-.03.03-.03.03-.03.03-.03.03-.03.03-.07.03-.03.03-.03.03h-.03l-.03.03-.07.03-.03.03-.03.03-.03.03-.03.03-.03.03-.07.03-.03.03-.03.03-.03.03-.03.03-.07.03-.03.03-.03.03-.03.03-.03.03-.03.03-.07.03-.03.03-.03.03-.03.03-.03.03-.07.03-.03.03-.03.03-.03.03-.03.03-.07.03-.03.03-.03.03-.03.03-.03.03-.03.03-.07.03-.03.03-.03.03-.03.03-.03.03-.07.03-.03.03-.03.03-.03.03-.03.03-.03.03-.07.03-.03.03-.03.03-.03.03-.03.03-.07.03-.03.03-.03.03-.03.03-.03.03-.03.03-.07.03-.03.03-.03.03-.03.03-.03.03-.07.03-.03.03-.03.03-.03.03-.03.03-.03.03-.07.06-.03.03-.03.03-.03.03-.03.03-.07.03-.03.03-.03.03-.03.03-.03.03-.03.03-.07.03-.03.03-.03.03-.03.03-.03.03-.07.03-.03.03-.03.03-.03.03-.03.03-.03.03-.07.03-.03.03-.03.03-.03.03-.03.03-.07.03-.03.03-.04.03"/>
  <path class="cls-4" d="m691.2,183.63l-.03.03-.07.03-.03.03-.03.03-.03.03-.03.03-.03.03-.07.03-.03.03-.03.03-.03.03-.03.03-.07.03-.03.03-.03.03-.03.03-.03.03-.03.03-.07.03-.03.03-.03.03-.03.03-.03.03-.07.03-.03.03-.03.03-.03.03-.03.03-.03.06-.07.03-.03.03-.03.03-.03.03-.03.03-.07.03-.03.03-.03.03-.03.03-.03.03-.07.03-.03.03-.03.03-.03.03-.03.03-.03.03-.07.03-.03.03-.03.03-.03.03-.03.03-.07.03-.03.03-.03.03-.03.03-.03.03-.03.03-.07.03-.03.03-.03.03-.03.03-.03.03-.07.03-.03.03-.03.03-.03.03-.03.03-.03.03-.07.03-.03.03-.03.03-.03.03-.03.03-.07.03-.03.03-.03.03-.03.03-.03.03-.03.03-.07.03-.03.03-.03.03-.03.03-.03.03-.07.03-.03.03-.03.03-.03.03-.03.03-.03.03-.07.03-.03.03-.03.03-.03.03-.03.03-.07.03-.03.03h-.03l-.03.03-.03.03-.03.03-.07.03-.03.03-.03.03-.03.03-.03.03-.07.03-.03.03-.03.03-.03.03-.03.03-.07.03-.03.03-.03.03-.03.03-.03.03-.03.03-.07.03-.03.03-.03.03-.03.03-.03.03-.07.03-.03.03-.03.03-.03.03-.03.03h-.03l-.07.03-.03.03-.03.03-.03.03-.03.03-.07.03-.03.03-.03.03-.03.03-.03.03-.03.03-.07.03-.03.03-.03.03-.03.03-.03.03h-.07l-.03.03-.03.03-.03.03-.03.03-.03.03-.07.03-.03.03-.03.03-.03.03-.03.03-.07.03-.03.03-.03.03h-.03l-.03.03-.03.03-.07.03-.03.03-.03.03-.03.03-.03.03-.07.03-.03.03-.03.03h-.03l-.03.03-.07.03-.03.03-.03.03-.03.03-.03.03-.03.03-.07.03h-.03l-.03.03-.03.03-.03.03-.07.03-.03.03-.03.03-.03.03-.03.03h-.03l-.07.03-.03.03-.03.03-.03.03-.03.03-.07.03h-.03l-.03.03-.03.03-.03.03-.03.03-.07.03-.03.03-.03.03h-.03l-.03.03-.07.03-.03.03-.03.03-.03.03h-.03s-.03.03-.03.03l-.07.03-.03.03-.03.03-.03.03h-.03s-.07.03-.07.03l-.03.03-.03.03-.03.03-.03.03h-.03l-.07.03-.03.03-.03.03-.03.03-.03.03h-.07l-.03.03-.03.03-.03.03-.03.03h-.03l-.07.03-.03.03-.03.03-.03.03h-.03l-.07.03-.03.03-.03.03-.03.03h-.03s-.07.03-.07.03l-.03.03-.03.03h-.03l-.03.03-.03.03-.07.03-.03.03h-.03l-.03.03-.03.03-.07.03h-.03l-.03.03-.03.03-.03.03h-.03l-.07.03-.03.03-.03.03h-.03l-.03.03-.07.03-.03.03h-.03l-.03.03-.03.03-.03.03h-.07l-.03.03-.03.03-.03.03h-.03l-.07.03-.03.03h-.03l-.03.03-.03.03-.03.03h-.07l-.03.03-.03.03h-.03l-.03.03-.07.03h-.03l-.03.03-.03.03h-.03l-.03.03-.07.03-.03.03h-.03l-.03.03-.03.03h-.07l-.03.03-.03.03h-.03l-.03.03-.07.03h-.03s-.03.03-.03.03l-.03.03h-.03l-.03.03-.07.03h-.03l-.03.03h-.03l-.03.03-.07.03h-.03l-.03.03-.03.03h-.03l-.03.03-.07.03h-.03l-.03.03h-.03l-.03.03-.07.03h-.03s-.03.03-.03.03h-.03s-.03.03-.03.03l-.03.03h-.07s-.03.03-.03.03h-.03l-.03.03-.03.03h-.07l-.03.03h-.03l-.03.03-.03.03h-.03l-.07.03h-.03l-.03.03h-.03l-.03.03-.07.03h-.03l-.03.03h-.03l-.03.03h-.03l-.07.03h-.03l-.03.03h-.03l-.03.03-.07.03h-.03l-.03.03h-.03s-.03.03-.03.03h-.03s-.07.03-.07.03h-.03l-.03.03h-.03l-.03.03h-.07l-.03.03h-.03s-.03.03-.03.03h-.03l-.07.03h-.03s-.03.03-.03.03h-.03s-.03.03-.03.03h-.03l-.07.03h-.03l-.03.03h-.03l-.03.03h-.1s-.03.03-.03.03h-.03l-.03.03h-.03l-.07.03h-.03l-.03.03h-.07s-.07.03-.07.03h-.03s-.03.03-.03.03h-.03l-.03.03h-.03l-.07.03h-.07s-.03.03-.03.03h-.03l-.07.03h-.07l-.03.03h-.03l-.03.03h-.1s-.03.03-.03.03h-.03l-.03.03h-.1l-.03.03h-.07l-.03.03h-.1l-.03.03h-.03l-.03.03h-.1s-.03.03-.03.03h-.07s-.07.03-.07.03h-.07l-.03.03h-.07s-.07.03-.07.03h-.1l-.03.03h-.1s-.03.03-.03.03h-.07s-.03.03-.03.03h-.13s-.03.03-.03.03h-.1l-.03.03h-.1s-.03.03-.03.03h-.13s-.03.03-.03.03h-.13l-.03.03h-.17s-.03.03-.03.03h-.1l-.07.03h-.13l-.03.03h-.17s-.03.03-.03.03h-.2s-.03.03-.03.03h-.07s-.13,0-.13,0l-.07.03h-.07s-.03,0-.03,0h-.17s-.03.03-.03.03h-.13s-.13,0-.13,0l-.07.03h-.27s-.17,0-.17,0l-.03.03h-.23s-.03,0-.03,0h-.17s-.03,0-.03,0h-.17s-.03,0-.03,0h-.2s-.07,0-.07,0h-.03s-.03,0-.03,0h-.2s-.07,0-.07,0h-.36s-.07,0-.07,0h-.13l-.07-.03h-.17s-.07,0-.07,0h-.13l-.07-.03h-.13s-.17,0-.17,0l-.03-.03h-.23l-.03-.03h-.07s-.03,0-.03,0h-.17l-.03-.03h-.13l-.07-.03h-.13l-.07-.03h-.13l-.03-.03h-.17l-.03-.03h-.13l-.03-.03h-.13l-.03-.03h-.1l-.07-.03h-.1l-.03-.03h-.13l-.03-.03h-.07l-.07-.03h-.1l-.03-.03h-.1l-.03-.03h-.07l-.03-.03h-.1l-.03-.03h-.07l-.07-.03h-.07l-.03-.03h-.07l-.07-.03h-.07l-.03-.03h-.1l-.03-.03h-.03l-.03-.03h-.07l-.07-.03h-.07l-.03-.03h-.03l-.07-.03h-.07l-.03-.03h-.03l-.07-.03h-.07l-.03-.03h-.03l-.03-.03h-.07l-.03-.03h-.07l-.03-.03h-.07l-.03-.03h-.03l-.03-.03h-.03l-.03-.03h-.1l-.03-.03h-.03l-.03-.03h-.07l-.03-.03h-.03l-.03-.03h-.03l-.03-.03h-.07l-.03-.03h-.03l-.03-.03h-.03l-.07-.03h-.03l-.03-.03h-.03l-.03-.03h-.03l-.07-.03h-.03l-.03-.03h-.03l-.03-.03h-.07l-.03-.03h-.03l-.03-.03h-.03l-.03-.03h-.07l-.03-.03h-.03l-.03-.03h-.03l-.07-.03-.03-.03h-.03l-.03-.03h-.03l-.03-.03h-.07l-.03-.03h-.03l-.03-.03-.03-.03h-.07l-.03-.03h-.03l-.03-.03-.03-.03h-.07l-.03-.03h-.03l-.03-.03h-.03l-.03-.03-.07-.03h-.03l-.03-.03h-.03l-.03-.03-.07-.03h-.03l-.03-.03-.03-.03h-.03l-.03-.03h-.07l-.03-.03-.03-.03h-.03l-.03-.03-.07-.03h-.03l-.03-.03-.03-.03h-.03l-.03-.03h-.07l-.03-.03-.03-.03h-.03l-.03-.03-.07-.03h-.03l-.03-.03-.03-.03h-.03l-.03-.03-.07-.03h-.03l-.03-.03-.03-.03h-.03l-.07-.03-.03-.03-.03-.03h-.03l-.03-.03-.03-.03h-.07l-.03-.03-.03-.03h-.03l-.03-.03-.07-.03-.03-.03h-.03l-.03-.03-.03-.03h-.07l-.03-.03-.03-.03-.03-.03h-.03l-.03-.03-.07-.03-.03-.03h-.03l-.03-.03-.03-.03h-.07l-.03-.03-.03-.03-.03-.03h-.03l-.03-.03-.07-.03-.03-.03h-.03l-.03-.03-.03-.03-.07-.03-.03-.03h-.03l-.03-.03-.03-.03-.03-.03h-.07l-.03-.03-.03-.03-.03-.03h-.03l-.07-.03-.03-.03-.03-.03-.03-.03h-.03l-.03-.03-.07-.03-.03-.03-.03-.03h-.03l-.03-.03-.07-.03-.03-.03-.03-.03h-.03l-.03-.03-.03-.03-.07-.03-.03-.03-.03-.03h-.03l-.03-.03-.07-.03-.03-.03-.03-.03h-.03l-.03-.03-.03-.03-.07-.03-.03-.03-.03-.03h-.03l-.03-.03-.07-.03-.03-.03-.03-.03-.03-.03-.03-.03h-.07l-.03-.03-.03-.03-.03-.03-.03-.03-.03-.03h-.07l-.03-.03-.03-.03-.03-.03-.03-.03-.07-.03-.03-.03-.03-.03h-.03l-.03-.03-.03-.03-.07-.03-.03-.03-.03-.03-.03-.03-.03-.03h-.07l-.03-.03-.03-.03-.03-.03-.03-.03-.03-.03-.07-.03-.03-.03-.03-.03h-.03l-.03-.03-.07-.03-.03-.03-.03-.03-.03-.03-.03-.03-.03-.03-.07-.03-.03-.03h-.03l-.03-.03-.03-.03-.07-.03-.03-.03-.03-.03-.03-.03-.03-.03-.03-.03-.07-.03-.03-.03-.03-.03h-.03l-.03-.03-.07-.03-.03-.03-.03-.03-.03-.03-.03-.03-.07-.03-.03-.03-.03-.03-.03-.03-.03-.03-.03-.03-.07-.03-.03-.03h-.03l-.03-.03-.03-.03-.07-.03-.03-.03-.03-.03-.03-.03-.03-.03-.03-.03-.07-.03-.03-.03-.03-.03-.03-.03-.03-.03-.07-.03-.03-.03-.03-.03-.03-.03-.03-.03-.03-.03-.07-.03-.03-.03h-.03l-.03-.03-.03-.03-.07-.03-.03-.03-.03-.03-.03-.03-.03-.03-.03-.03-.07-.03-.03-.03-.03-.03-.03-.03-.03-.03-.07-.03-.03-.03-.03-.03-.03-.03-.03-.03-.03-.03-.07-.03-.03-.03-.03-.03-.03-.03-.03-.03-.07-.03-.03-.03-.03-.03-.03-.03-.03-.03-.03-.03-.07-.03-.03-.03-.03-.03-.03-.03-.03-.03-.07-.03-.03-.03-.03-.03-.03-.03-.03-.03-.07-.03-.03-.03-.03-.03-.03-.03-.03-.03-.03-.03-.07-.03-.03-.03-.03-.03-.03-.03-.03-.03-.07-.03-.03-.03-.03-.03-.03-.03-.03-.03-.03-.03-.07-.03-.03-.03-.03-.03-.03-.03-.03-.03-.07-.03-.03-.03-.03-.03-.03-.03-.03-.03-.03-.03-.07-.03-.03-.03-.03-.03-.03-.03-.03-.03-.07-.03-.03-.03-.03-.03-.03-.03-.03-.03-.03-.03-.07-.03-.03-.03-.03-.03-.03-.03-.03-.03-.07-.03-.03-.03-.03-.03-.03-.03-.03-.03-.03-.03-.07-.03-.03-.03-.03-.03-.03-.03-.03-.03-.07-.03-.03-.03-.03-.03-.03-.03-.03-.03-.07-.03-.03-.03-.03-.03-.03-.03-.03-.03-.03-.03-.07-.03-.03-.03-.03-.03-.03-.03-.03-.03-.07-.03-.03-.03-.03-.03-.03-.06-.03-.03-.03-.03-.07-.03-.03-.03-.03-.03-.03-.03-.03-.03-.07-.03-.03-.03-.03-.03-.03-.03-.03-.03-.03-.03-.07-.03-.03-.03-.03-.03-.03-.03-.03-.03-.07-.03-.03-.03-.03-.03-.03-.03-.03-.03-.03-.03-.07-.03-.03-.03-.03-.03-.03-.03-.03-.03-.07-.03-.03-.03-.03-.03-.03-.03-.03-.03-.03-.03-.07-.03-.03-.03-.03-.03-.03-.03-.03-.03-.07-.03-.03-.03-.03-.03-.03-.03-.03-.03-.03-.03-.07-.03-.03-.03-.03-.03-.03-.03-.03-.03-.07-.03-.03-.03-.03-.03-.03-.03-.03-.03-.07-.03-.03-.03-.03-.03-.03-.03-.03-.03-.03-.03-.07-.03-.03-.03-.03-.03-.03-.03-.03-.03-.07-.03-.03-.03-.03-.03-.03-.03-.03-.03-.03-.03-.07-.03-.03-.03-.03-.03-.03-.03-.03-.03-.07-.03-.03-.03-.03-.03-.03-.03-.03-.03-.03-.03-.07-.03-.03-.03-.03-.03-.03-.03-.03-.03-.07-.03-.03-.03-.03-.03-.03-.03-.03-.03-.03-.03-.07-.03-.03-.03-.03-.03-.03-.03-.03-.03-.07-.03-.03-.03-.03-.03-.03-.03-.03-.03-.03-.03-.07-.03-.03-.03-.03-.03-.03-.03-.03-.03-.07-.03-.03-.03-.03-.03h-.03l-.03-.03-.07-.03-.03-.03-.03-.03-.03-.03-.03-.03-.03-.03-.07-.03-.03-.03-.03-.03-.03-.03-.03-.03-.07-.03-.03-.03-.03-.03-.03-.03-.03-.03-.03-.03-.07-.03-.03-.03-.03-.03h-.03l-.03-.03-.07-.03-.03-.03-.03-.03-.03-.03-.03-.03-.03-.03-.07-.03-.03-.03-.03-.03-.03-.03-.03-.03-.07-.03-.03-.03h-.03l-.03-.03-.03-.03-.03-.03-.07-.03-.03-.03-.03-.03-.03-.03-.03-.03-.07-.03-.03-.03-.03-.03h-.03l-.03-.03-.03-.03-.07-.03-.03-.03-.03-.03-.03-.03-.03-.03-.07-.03-.03-.03h-.03l-.03-.03-.03-.03-.03-.03-.07-.03-.03-.03-.03-.03-.03-.03-.03-.03h-.07l-.03-.03-.03-.03-.03-.03-.03-.03-.07-.03-.03-.03-.03-.03h-.03l-.03-.03-.03-.03-.07-.03-.03-.03-.03-.03-.03-.03-.03-.03h-.07l-.03-.03-.03-.03-.03-.03-.03-.03-.03-.03h-.07l-.03-.03-.03-.03-.03-.03-.03-.03-.07-.03-.03-.03h-.03l-.03-.03-.03-.03-.03-.03-.07-.03-.03-.03h-.03l-.03-.03-.03-.03-.07-.03-.03-.03h-.03l-.03-.03-.03-.03-.03-.03-.07-.03-.03-.03h-.03l-.03-.03-.03-.03-.07-.03-.03-.03h-.03l-.03-.03-.03-.03-.03-.03-.07-.03h-.03l-.03-.03-.03-.03-.03-.03-.07-.03h-.03l-.03-.03-.03-.03-.03-.03h-.07l-.03-.03-.03-.03-.03-.03h-.03l-.03-.03-.07-.03-.03-.03-.03-.03h-.03l-.03-.03-.07-.03-.03-.03h-.03l-.03-.03-.03-.03-.03-.03h-.07l-.03-.03-.03-.03h-.03l-.03-.03-.07-.03-.03-.03h-.03l-.03-.03-.03-.03-.03-.03h-.07l-.03-.03-.03-.03h-.03l-.03-.03-.07-.03-.03-.03h-.03l-.03-.03-.03-.03h-.03l-.07-.03-.03-.03h-.03l-.03-.03-.03-.03-.07-.03h-.03l-.03-.03-.03-.03h-.03l-.03-.03-.07-.03h-.03l-.03-.03-.03-.03h-.03l-.07-.03-.03-.03h-.03l-.03-.03-.03-.03h-.03l-.07-.03h-.03l-.03-.03-.03-.03h-.03l-.07-.03-.03-.03h-.03l-.03-.03-.03-.03h-.07l-.03-.03h-.03l-.03-.03-.03-.03h-.03l-.07-.03-.03-.03h-.03l-.03-.03h-.03l-.07-.03-.03-.03h-.03l-.03-.03h-.03l-.03-.03h-.07l-.03-.03-.03-.03h-.03l-.03-.03h-.07l-.03-.03-.03-.03h-.03l-.03-.03h-.03l-.07-.03h-.03l-.03-.03h-.03l-.03-.03-.07-.03h-.03l-.03-.03h-.03l-.03-.03h-.03l-.07-.03h-.03l-.03-.03h-.03l-.03-.03h-.07l-.03-.03h-.03l-.03-.03h-.03l-.03-.03h-.07l-.03-.03h-.03l-.03-.03h-.03l-.07-.03h-.03l-.03-.03h-.03l-.03-.03h-.07l-.03-.03h-.03l-.03-.03h-.03l-.03-.03h-.07l-.03-.03h-.03l-.03-.03h-.1l-.03-.03h-.03l-.03-.03h-.03l-.03-.03h-.07l-.03-.03h-.07l-.03-.03h-.07l-.03-.03h-.03l-.03-.03h-.07l-.07-.03h-.03l-.03-.03h-.07l-.07-.03h-.03l-.03-.03h-.07l-.03-.03h-.1l-.03-.03h-.03l-.03-.03h-.1l-.03-.03h-.07l-.03-.03h-.1l-.03-.03h-.07l-.07-.03h-.07l-.03-.03h-.07l-.07-.03h-.07l-.03-.03h-.1l-.03-.03h-.1l-.07-.03h-.07l-.03-.03h-.13l-.03-.03h-.1l-.07-.03h-.1l-.03-.03h-.13l-.03-.03h-.13l-.03-.03h-.13l-.07-.03h-.13l-.07-.03h-.13l-.03-.03h-.17l-.03-.03h-.23l-.07-.03h-.07s-.17,0-.17,0l-.03-.03h-.3l-.07-.03h-.13s-.07,0-.07,0h-.17l-.07-.03h-.07s-.03,0-.03,0h-.17s-.03,0-.03,0h-.17s-.03,0-.03,0h-.17s-.03,0-.03,0h-.2s-.03,0-.03,0h-.03s-.03,0-.03,0h-.23s-.07,0-.07,0h-.13s-.07,0-.07,0h-.23s-.1,0-.1,0l-.03.03h-.2s-.07,0-.07,0h-.17s-.07.03-.07.03h-.27s-.03.03-.03.03h-.07s-.07,0-.07,0h-.13s-.07.03-.07.03h-.17s-.07.03-.07.03h-.2s-.03.03-.03.03h-.13s-.07.03-.07.03h-.13s-.07.03-.07.03h-.1s-.03.03-.03.03h-.17s-.03.03-.03.03h-.13s-.03.03-.03.03h-.13l-.03.03h-.1s-.03.03-.03.03h-.1s-.03.03-.03.03h-.13s-.03.03-.03.03h-.07l-.03.03h-.1s-.03.03-.03.03h-.1s-.07.03-.07.03h-.07l-.03.03h-.07l-.07.03h-.07s-.03.03-.03.03h-.1s-.03.03-.03.03h-.03l-.03.03h-.07s-.07.03-.07.03h-.07l-.03.03h-.1l-.03.03h-.03l-.03.03h-.07l-.07.03h-.03s-.03.03-.03.03h-.07l-.07.03h-.03l-.03.03h-.07s-.03.03-.03.03h-.07l-.03.03h-.03l-.03.03h-.03l-.07.03h-.07l-.03.03h-.03l-.07.03h-.03l-.03.03h-.03l-.03.03h-.1l-.03.03h-.03l-.03.03h-.03l-.07.03h-.03l-.03.03h-.03l-.03.03h-.03l-.07.03h-.03l-.03.03h-.03s-.03.03-.03.03h-.07l-.03.03h-.03l-.03.03h-.03s-.03.03-.03.03h-.07s-.03.03-.03.03h-.03l-.03.03h-.03l-.07.03-.03.03h-.03l-.03.03h-.03s-.03.03-.03.03h-.07l-.03.03h-.03l-.03.03h-.03l-.07.03-.03.03h-.03l-.03.03h-.03l-.03.03h-.07l-.03.03-.03.03h-.03l-.03.03h-.07s-.03.03-.03.03l-.03.03h-.03l-.03.03h-.07l-.03.03-.03.03h-.03l-.03.03h-.03l-.07.03-.03.03h-.03l-.03.03h-.03l-.07.03-.03.03h-.03s-.03.03-.03.03l-.03.03h-.03l-.07.03-.03.03h-.03l-.03.03h-.03l-.07.03-.03.03h-.03l-.03.03-.03.03h-.03l-.07.03-.03.03h-.03l-.03.03-.03.03h-.07l-.03.03-.03.03h-.03l-.03.03-.03.03-.07.03h-.03l-.03.03-.03.03h-.03l-.07.03-.03.03h-.03l-.03.03-.03.03h-.03l-.07.03-.03.03-.03.03h-.03s-.03.03-.03.03l-.07.03h-.03l-.03.03-.03.03-.03.03h-.03l-.07.03-.03.03-.03.03h-.03s-.03.03-.03.03l-.07.03-.03.03h-.03l-.03.03-.03.03-.07.03h-.03l-.03.03-.03.03-.03.03h-.03l-.07.03-.03.03-.03.03h-.03l-.03.03-.07.03-.03.03-.03.03h-.03l-.03.03-.03.03-.07.03h-.03s-.03.03-.03.03l-.03.03-.03.03-.07.03h-.03l-.03.03-.03.03-.03.03-.03.03h-.07s-.03.03-.03.03l-.03.03-.03.03-.03.03h-.07s-.03.03-.03.03l-.03.03-.03.03-.03.03-.03.03h-.07l-.03.03-.03.03-.03.03-.03.03-.07.03h-.03l-.03.03-.03.03-.03.03-.03.03-.07.03h-.03l-.03.03-.03.03-.03.03-.07.03-.03.03h-.03s-.03.03-.03.03l-.03.03-.07.03-.03.03-.03.03-.03.03-.03.03h-.03l-.07.03-.03.03-.03.03-.03.03-.03.03-.07.03h-.03l-.03.03-.03.03-.03.03-.03.03-.07.03-.03.03-.03.03-.03.03h-.03l-.07.03-.03.03-.03.03-.03.03-.03.03-.03.03-.07.03-.03.03h-.03l-.03.03-.03.03-.07.03-.03.03-.03.03-.03.03-.03.03-.03.03-.07.03-.03.03h-.03l-.03.03-.03.03-.07.03-.03.03-.03.03-.03.03-.03.03-.03.03-.07.03-.03.03-.03.03-.03.03-.03.03h-.07s-.03.03-.03.03l-.03.03-.03.03-.03.03-.03.03-.07.03-.03.03-.03.03-.03.03-.03.03-.07.03-.03.03-.03.03-.03.03-.03.03-.07.03h-.03l-.03.03-.03.03-.03.03-.03.03-.07.03-.03.03-.03.03-.03.03-.03.03-.07.03-.03.03-.03.03-.03.03-.03.03-.03.03-.07.03-.03.03-.03.03-.03.03-.03.03-.07.03-.03.03-.03.03-.03.03-.03.03-.03.03-.07.03-.03.03-.03.03h-.03l-.03.03-.07.03-.03.03-.03.03-.03.03-.03.03-.03.03-.07.03-.03.03-.03.03-.03.03-.03.03-.07.03-.03.03-.03.03-.03.03-.03.03-.03.03-.07.03-.03.03-.03.03-.03.03-.03.03-.07.03-.03.03-.03.03-.03.03-.03.03-.07.03-.03.03-.03.03-.03.03-.03.03-.03.03-.07.03-.03.03-.03.03-.03.03-.03.03-.07.03-.03.03-.03.03-.03.03-.03.03-.03.03-.07.03-.03.03-.03.03-.03.03-.03.03-.07.03-.03.03-.03.03-.03.03-.03.03-.03.03-.07.03-.03.03-.03.03-.03.03-.03.03-.07.03-.03.03-.03.03-.03.03-.03.03-.03.03-.07.06-.03.03-.03.03-.03.03-.03.03-.07.03-.03.03-.03.03-.03.03-.03.03-.03.03-.07.03-.03.03-.03.03-.03.03-.03.03-.07.03-.03.03-.03.03-.03.03-.03.03-.03.03-.07.03-.03.03-.03.03-.03.03-.03.03-.07.03-.03.03-.04.03"/>
  <line class="cls-4" x1="640.8" y1="172.8" x2="655.2" y2="158.4"/>
  <g>
    <path class="cls-1" d="m317.16,82.8v-2.46h3.36v-20.39h-3.36v-2.46h9.88v2.46h-3.36v20.39h3.36v2.46h-9.88Z"/>
    <path class="cls-1" d="m331.33,82.8v-18.98h2.78v4.29l-.12-.77c.5-1.09,1.3-2.02,2.39-2.79s2.41-1.15,3.97-1.15c1.35,0,2.51.3,3.48.9s1.72,1.45,2.25,2.56.79,2.44.79,4v11.95h-2.95v-11.72c0-1.56-.32-2.82-.96-3.78s-1.69-1.44-3.16-1.44c-1.58,0-2.9.6-3.95,1.8s-1.57,2.94-1.57,5.21v9.93h-2.95Z"/>
    <path class="cls-1" d="m352.25,89.66v-25.84h2.78v3.96l-.09-.28c.52-1.38,1.37-2.41,2.57-3.08s2.47-1.01,3.81-1.01c1.55,0,2.91.4,4.08,1.21s2.09,1.96,2.74,3.45.98,3.25.98,5.27-.33,3.78-.99,5.26-1.58,2.62-2.75,3.43-2.53,1.2-4.06,1.2c-1.24,0-2.47-.31-3.69-.93s-2.14-1.67-2.76-3.15l.26-.14v10.65h-2.88Zm8.26-8.89c1.57,0,2.86-.65,3.87-1.94s1.51-3.15,1.51-5.56-.49-4.16-1.46-5.46-2.27-1.94-3.88-1.94c-.98,0-1.89.26-2.72.77s-1.49,1.32-1.98,2.41-.74,2.5-.74,4.22c0,2.54.53,4.43,1.58,5.66s2.33,1.85,3.81,1.85Z"/>
    <path class="cls-1" d="m379.95,83.22c-1.32,0-2.47-.3-3.45-.9s-1.72-1.45-2.25-2.57-.79-2.44-.79-3.99v-11.95h2.95v11.72c0,1.55.29,2.8.88,3.77s1.64,1.45,3.16,1.45c1.14,0,2.12-.29,2.95-.88s1.48-1.46,1.94-2.64.69-2.64.69-4.39v-9.04h2.95v18.98h-2.78v-4.46l.12.77c-.49,1.17-1.29,2.15-2.38,2.94s-2.43,1.18-4.02,1.18Z"/>
    <path class="cls-1" d="m398.95,82.8c-.75,0-1.41-.25-1.97-.75s-.84-1.13-.84-1.89v-13.89h-3.06v-2.46h3.06v-3.97l2.95-.63v4.61h3.76v2.46h-3.76v13.1c0,.39.06.64.17.77s.35.19.71.19h2.9v2.46h-3.92Z"/>
  </g>
  <g>
    <path class="cls-1" d="m570.01,82.8v-25.31h3.16v22.71h12.66v2.6h-15.82Z"/>
    <path class="cls-1" d="m595.84,83.22c-1.78,0-3.35-.42-4.71-1.26s-2.42-2-3.18-3.49-1.14-3.21-1.14-5.17.38-3.68,1.14-5.17,1.82-2.65,3.18-3.49,2.93-1.26,4.71-1.26,3.35.42,4.71,1.26,2.42,2,3.18,3.49,1.14,3.21,1.14,5.17-.38,3.68-1.14,5.17-1.82,2.65-3.18,3.49-2.93,1.26-4.71,1.26Zm0-2.46c1.79,0,3.21-.67,4.25-2s1.56-3.15,1.56-5.45-.52-4.13-1.56-5.46-2.45-2-4.25-2-3.21.67-4.25,2-1.56,3.15-1.56,5.46.52,4.11,1.56,5.45,2.45,2,4.25,2Z"/>
    <path class="cls-1" d="m612.62,82.8l-5.27-18.98h3.13l4.52,17.54h-.54l4.5-17.54h3.8l4.59,17.68h-.63l4.55-17.68h3.13l-5.27,18.98h-4.15l-4.36-16.98h.53l-4.36,16.98h-4.15Z"/>
    <path class="cls-1" d="m636.93,73.1v-2.74h11.79v2.74h-11.79Z"/>
    <path class="cls-1" d="m653.05,89.66v-25.84h2.78v3.96l-.09-.28c.52-1.38,1.37-2.41,2.57-3.08s2.47-1.01,3.81-1.01c1.55,0,2.91.4,4.08,1.21s2.09,1.96,2.74,3.45.98,3.25.98,5.27-.33,3.78-.99,5.26-1.58,2.62-2.75,3.43-2.53,1.2-4.06,1.2c-1.24,0-2.47-.31-3.69-.93s-2.14-1.67-2.76-3.15l.26-.14v10.65h-2.88Zm8.26-8.89c1.57,0,2.86-.65,3.87-1.94s1.51-3.15,1.51-5.56-.49-4.16-1.46-5.46-2.27-1.94-3.88-1.94c-.98,0-1.89.26-2.72.77s-1.49,1.32-1.98,2.41-.74,2.5-.74,4.22c0,2.54.53,4.43,1.58,5.66s2.33,1.85,3.81,1.85Z"/>
    <path class="cls-1" d="m679.65,83.22c-1.27,0-2.36-.24-3.3-.73s-1.65-1.15-2.15-2-.76-1.8-.76-2.87c0-1.14.33-2.19,1-3.15s1.7-1.73,3.1-2.31,3.2-.87,5.39-.87h3.16l-.32.32v-1.04c0-1.52-.3-2.69-.91-3.51s-1.63-1.22-3.06-1.22c-1.35,0-2.38.35-3.11,1.05s-1.11,1.63-1.16,2.8l-3.32-.76c.11-1.02.5-1.95,1.17-2.79s1.58-1.51,2.71-2.01,2.44-.76,3.93-.76,2.79.29,3.75.87,1.68,1.42,2.14,2.5.69,2.4.69,3.94v8.67c0,.39.06.64.17.77s.35.19.71.19h1.07v2.46h-1.88c-.8,0-1.46-.25-2-.75s-.81-1.13-.81-1.89v-1.34h.44c-.19.49-.46.99-.81,1.5s-.8.98-1.34,1.42-1.18.79-1.92,1.06-1.6.4-2.58.4Zm.67-2.46c.97,0,1.88-.24,2.71-.72s1.5-1.23,2.01-2.26.76-2.36.76-4v-.16h-2.97c-1.56,0-2.79.21-3.68.62s-1.53.92-1.91,1.52-.56,1.2-.56,1.8.13,1.14.4,1.62.67.86,1.21,1.15,1.21.43,2.02.43Z"/>
    <path class="cls-1" d="m701.11,83.22c-1.37,0-2.62-.23-3.74-.68s-2.05-1.14-2.79-2.06-1.23-2.09-1.48-3.51l3.09-.6c.13,1.49.64,2.6,1.52,3.32s2,1.09,3.33,1.09,2.38-.33,3.16-1,1.18-1.48,1.18-2.44c0-.82-.28-1.47-.83-1.95s-1.36-.82-2.42-1.02l-2.3-.44c-.62-.12-1.27-.28-1.93-.49s-1.29-.5-1.87-.88-1.05-.87-1.41-1.48-.54-1.38-.54-2.3c0-1.24.33-2.26.98-3.05s1.51-1.38,2.58-1.77,2.23-.58,3.47-.58c1.36,0,2.54.21,3.55.63s1.83,1.03,2.46,1.81,1.05,1.73,1.27,2.85l-3.25.65c-.08-.71-.27-1.34-.57-1.86s-.73-.93-1.3-1.22-1.3-.43-2.21-.43c-1.09,0-2.03.23-2.81.69s-1.18,1.15-1.18,2.07c0,.52.13.96.4,1.32s.66.67,1.2.91,1.2.45,2.01.62l2.34.49c.98.2,1.89.5,2.72.89s1.5.93,2,1.63.76,1.61.76,2.74c0,1.25-.31,2.33-.94,3.24s-1.49,1.6-2.6,2.08-2.39.72-3.86.72Z"/>
    <path class="cls-1" d="m719.76,83.22c-1.37,0-2.62-.23-3.74-.68s-2.05-1.14-2.79-2.06-1.23-2.09-1.48-3.51l3.09-.6c.13,1.49.64,2.6,1.52,3.32s2,1.09,3.33,1.09,2.38-.33,3.16-1,1.18-1.48,1.18-2.44c0-.82-.28-1.47-.83-1.95s-1.36-.82-2.42-1.02l-2.3-.44c-.62-.12-1.27-.28-1.93-.49s-1.29-.5-1.87-.88-1.05-.87-1.41-1.48-.54-1.38-.54-2.3c0-1.24.33-2.26.98-3.05s1.51-1.38,2.58-1.77,2.23-.58,3.47-.58c1.36,0,2.54.21,3.55.63s1.83,1.03,2.46,1.81,1.05,1.73,1.27,2.85l-3.25.65c-.08-.71-.27-1.34-.57-1.86s-.73-.93-1.3-1.22-1.3-.43-2.21-.43c-1.09,0-2.03.23-2.81.69s-1.18,1.15-1.18,2.07c0,.52.13.96.4,1.32s.66.67,1.2.91,1.2.45,2.01.62l2.34.49c.98.2,1.89.5,2.72.89s1.5.93,2,1.63.76,1.61.76,2.74c0,1.25-.31,2.33-.94,3.24s-1.49,1.6-2.6,2.08-2.39.72-3.86.72Z"/>
  </g>
  <rect class="cls-7" x="864" y="104.4" width="144" height="144"/>
  <g>
    <path class="cls-2" d="m910.65,187.89c-1.95,0-3.64-.33-5.09-.98s-2.62-1.59-3.51-2.83-1.48-2.73-1.78-4.47l3.76-.77c.08,2.07.69,3.67,1.81,4.78s2.7,1.67,4.71,1.67c1.22,0,2.25-.2,3.1-.6s1.5-.96,1.95-1.69.68-1.58.68-2.57c0-1.31-.38-2.29-1.13-2.93s-1.79-1.1-3.1-1.4l-3.3-.74c-.61-.14-1.32-.33-2.12-.58s-1.58-.61-2.33-1.09-1.37-1.13-1.87-1.95-.75-1.87-.75-3.15c0-1.63.42-2.95,1.26-3.96s1.93-1.75,3.27-2.21,2.77-.7,4.28-.7c1.75,0,3.24.28,4.49.83s2.26,1.34,3.02,2.36,1.29,2.24,1.56,3.66l-3.71.77c-.09-1.08-.36-1.99-.79-2.73s-1.04-1.31-1.83-1.71-1.76-.59-2.94-.59c-.95,0-1.84.14-2.66.42s-1.5.72-2.01,1.32-.77,1.38-.77,2.34.35,1.81,1.05,2.42,1.86,1.09,3.49,1.47l3.34.77c1.18.27,2.3.67,3.36,1.21s1.91,1.29,2.57,2.26.98,2.24.98,3.82-.36,2.94-1.08,4.06-1.75,1.98-3.09,2.58-2.94.89-4.81.89Z"/>
    <path class="cls-2" d="m932.43,187.89c-1.88,0-3.48-.31-4.82-.92s-2.36-1.47-3.07-2.56-1.06-2.35-1.06-3.78c0-1.5.42-2.85,1.25-4.06s2.12-2.2,3.85-2.99l3.2-1.46c1.62-.74,2.77-1.48,3.46-2.23s1.04-1.56,1.04-2.43c0-.93-.32-1.69-.97-2.3s-1.48-.91-2.5-.91c-1.12,0-2.04.33-2.74.98s-1.05,1.47-1.05,2.44c0,.43.1.86.29,1.27s.51.88.95,1.41,1.03,1.2,1.78,2.02l10.69,11.76c.29.32.54.53.74.65s.43.18.69.18h1.72v2.51h-2.72c-.68,0-1.2-.13-1.55-.4s-.71-.61-1.09-1.03l-10.72-12.13c-.98-1.11-1.75-2.04-2.3-2.77s-.94-1.37-1.16-1.92-.33-1.11-.33-1.69c0-1.09.29-2.07.88-2.95s1.39-1.57,2.42-2.08,2.19-.76,3.51-.76c1.24,0,2.35.25,3.32.74s1.74,1.17,2.29,2.03.83,1.85.83,2.96c0,1.21-.41,2.31-1.22,3.3s-2.24,1.99-4.26,3l-3.36,1.67c-1.21.6-2.14,1.33-2.79,2.19s-.98,1.83-.98,2.91c0,1.38.52,2.51,1.56,3.38s2.48,1.31,4.32,1.31c1.65,0,3.04-.35,4.17-1.04s2.02-1.6,2.7-2.73,1.16-2.37,1.46-3.71.45-2.66.45-3.96v-.44h2.95v.46c0,1.93-.23,3.75-.69,5.45s-1.17,3.2-2.13,4.49-2.19,2.31-3.67,3.05-3.27,1.11-5.34,1.11Z"/>
    <path class="cls-2" d="m949.82,187.47v-25.31h3.16v10.93h13.82v-10.93h3.16v25.31h-3.16v-11.78h-13.82v11.78h-3.16Z"/>
  </g>
  <g>
    <path class="cls-1" d="m805.79,83.22c-1.95,0-3.64-.33-5.09-.98s-2.62-1.59-3.51-2.83-1.48-2.73-1.78-4.47l3.76-.77c.08,2.07.69,3.67,1.81,4.78s2.7,1.67,4.71,1.67c1.22,0,2.25-.2,3.1-.6s1.5-.96,1.95-1.69.68-1.58.68-2.57c0-1.31-.38-2.29-1.13-2.93s-1.79-1.1-3.1-1.4l-3.3-.74c-.61-.14-1.32-.33-2.12-.58s-1.58-.61-2.33-1.09-1.37-1.13-1.87-1.95-.75-1.87-.75-3.15c0-1.63.42-2.95,1.26-3.96s1.93-1.75,3.27-2.21,2.77-.7,4.28-.7c1.75,0,3.24.28,4.49.83s2.26,1.34,3.02,2.36,1.29,2.24,1.56,3.66l-3.71.77c-.09-1.08-.36-1.99-.79-2.73s-1.04-1.31-1.83-1.71-1.76-.59-2.94-.59c-.95,0-1.84.14-2.66.42s-1.5.72-2.01,1.32-.77,1.38-.77,2.34.35,1.81,1.05,2.42,1.86,1.09,3.49,1.47l3.34.77c1.18.27,2.3.67,3.36,1.21s1.91,1.29,2.57,2.26.98,2.24.98,3.82-.36,2.94-1.08,4.06-1.75,1.98-3.09,2.58-2.94.89-4.81.89Z"/>
    <path class="cls-1" d="m824.48,83.22c-1.27,0-2.36-.24-3.3-.73s-1.65-1.15-2.15-2-.76-1.8-.76-2.87c0-1.14.33-2.19,1-3.15s1.7-1.73,3.1-2.31,3.2-.87,5.39-.87h3.16l-.32.32v-1.04c0-1.52-.3-2.69-.91-3.51s-1.63-1.22-3.06-1.22c-1.35,0-2.38.35-3.11,1.05s-1.11,1.63-1.16,2.8l-3.32-.76c.11-1.02.5-1.95,1.17-2.79s1.58-1.51,2.71-2.01,2.44-.76,3.93-.76,2.79.29,3.75.87,1.68,1.42,2.14,2.5.69,2.4.69,3.94v8.67c0,.39.06.64.17.77s.35.19.71.19h1.07v2.46h-1.88c-.8,0-1.46-.25-2-.75s-.81-1.13-.81-1.89v-1.34h.44c-.19.49-.46.99-.81,1.5s-.8.98-1.34,1.42-1.18.79-1.92,1.06-1.6.4-2.58.4Zm.67-2.46c.97,0,1.88-.24,2.71-.72s1.5-1.23,2.01-2.26.76-2.36.76-4v-.16h-2.97c-1.56,0-2.79.21-3.68.62s-1.53.92-1.91,1.52-.56,1.2-.56,1.8.13,1.14.4,1.62.67.86,1.21,1.15,1.21.43,2.02.43Z"/>
    <path class="cls-1" d="m839.45,82.8v-18.98h2.78v3.25c.45-.98,1.18-1.84,2.21-2.58s2.26-1.1,3.67-1.1c1.25,0,2.35.34,3.28,1.03s1.63,1.66,2.08,2.91c.6-1.16,1.42-2.11,2.45-2.84s2.25-1.1,3.63-1.1c1.82,0,3.25.66,4.32,1.98s1.59,3.14,1.59,5.48v11.95h-2.95v-11.72c0-1.08-.11-2.01-.33-2.79s-.59-1.38-1.1-1.8-1.2-.63-2.08-.63c-.96,0-1.83.27-2.59.82s-1.37,1.34-1.81,2.38-.66,2.31-.66,3.81v9.93h-2.95v-11.72c0-1.08-.11-2.01-.33-2.79s-.59-1.38-1.09-1.8-1.19-.63-2.06-.63c-.96,0-1.83.27-2.6.81s-1.38,1.33-1.83,2.37-.67,2.32-.67,3.83v9.93h-2.95Z"/>
    <path class="cls-1" d="m870.86,89.66v-25.84h2.78v3.96l-.09-.28c.52-1.38,1.37-2.41,2.57-3.08s2.47-1.01,3.81-1.01c1.55,0,2.91.4,4.08,1.21s2.09,1.96,2.74,3.45.98,3.25.98,5.27-.33,3.78-.99,5.26-1.58,2.62-2.75,3.43-2.53,1.2-4.06,1.2c-1.24,0-2.47-.31-3.69-.93s-2.14-1.67-2.76-3.15l.26-.14v10.65h-2.88Zm8.26-8.89c1.57,0,2.86-.65,3.87-1.94s1.51-3.15,1.51-5.56-.49-4.16-1.46-5.46-2.27-1.94-3.88-1.94c-.98,0-1.89.26-2.72.77s-1.49,1.32-1.98,2.41-.74,2.5-.74,4.22c0,2.54.53,4.43,1.58,5.66s2.33,1.85,3.81,1.85Z"/>
    <path class="cls-1" d="m894.93,82.8c-.75,0-1.41-.25-1.97-.75s-.84-1.13-.84-1.89v-23.73h2.95v22.94c0,.39.06.64.17.77s.35.19.71.19h1.85v2.46h-2.87Z"/>
    <path class="cls-1" d="m909.17,83.22c-1.8,0-3.37-.4-4.68-1.21s-2.33-1.95-3.05-3.44-1.07-3.23-1.07-5.25.36-3.79,1.07-5.27,1.72-2.64,3.02-3.45,2.83-1.21,4.59-1.21c1.01,0,2.02.16,3.03.48s1.94.88,2.78,1.67,1.51,1.88,2.02,3.25.76,3.11.76,5.21h-15.38v-2.39h12.81l-.84,1.11c-.06-1.66-.33-3-.81-4.01s-1.1-1.74-1.87-2.19-1.62-.68-2.56-.68c-1.11,0-2.07.29-2.88.87s-1.43,1.43-1.86,2.54-.65,2.47-.65,4.08c0,2.37.48,4.2,1.45,5.48s2.34,1.93,4.12,1.93c1.28,0,2.35-.32,3.23-.97s1.51-1.58,1.92-2.79l2.9.98c-.46,1.1-1.07,2.04-1.83,2.82s-1.67,1.38-2.72,1.79-2.22.62-3.51.62Z"/>
    <path class="cls-1" d="m936.11,83.22c-1.27,0-2.36-.24-3.3-.73s-1.65-1.15-2.15-2-.76-1.8-.76-2.87c0-1.14.33-2.19,1-3.15s1.7-1.73,3.1-2.31,3.2-.87,5.39-.87h3.16l-.32.32v-1.04c0-1.52-.3-2.69-.91-3.51s-1.63-1.22-3.06-1.22c-1.35,0-2.38.35-3.11,1.05s-1.11,1.63-1.16,2.8l-3.32-.76c.11-1.02.5-1.95,1.17-2.79s1.58-1.51,2.71-2.01,2.44-.76,3.93-.76,2.79.29,3.75.87,1.68,1.42,2.14,2.5.69,2.4.69,3.94v8.67c0,.39.06.64.17.77s.35.19.71.19h1.07v2.46h-1.88c-.8,0-1.46-.25-2-.75s-.81-1.13-.81-1.89v-1.34h.44c-.19.49-.46.99-.81,1.5s-.8.98-1.34,1.42-1.18.79-1.92,1.06-1.6.4-2.58.4Zm.67-2.46c.97,0,1.88-.24,2.71-.72s1.5-1.23,2.01-2.26.76-2.36.76-4v-.16h-2.97c-1.56,0-2.79.21-3.68.62s-1.53.92-1.91,1.52-.56,1.2-.56,1.8.13,1.14.4,1.62.67.86,1.21,1.15,1.21.43,2.02.43Z"/>
    <path class="cls-1" d="m951.09,82.8v-18.98h2.78v4.29l-.12-.77c.5-1.09,1.3-2.02,2.39-2.79s2.41-1.15,3.97-1.15c1.35,0,2.51.3,3.48.9s1.72,1.45,2.25,2.56.79,2.44.79,4v11.95h-2.95v-11.72c0-1.56-.32-2.82-.96-3.78s-1.69-1.44-3.16-1.44c-1.58,0-2.9.6-3.95,1.8s-1.57,2.94-1.57,5.21v9.93h-2.95Z"/>
    <path class="cls-1" d="m978.79,83.22c-1.54,0-2.89-.4-4.07-1.21s-2.09-1.96-2.75-3.45-.98-3.25-.98-5.27.33-3.78.99-5.26,1.58-2.62,2.75-3.43,2.53-1.2,4.06-1.2c1.24,0,2.47.31,3.69.93s2.14,1.67,2.76,3.15l-.33.14v-11.18h2.95v26.37h-2.78v-3.96l.09.28c-.52,1.38-1.37,2.41-2.57,3.08s-2.47,1.01-3.81,1.01Zm.77-2.46c1,0,1.9-.26,2.72-.77s1.48-1.32,1.97-2.42.74-2.5.74-4.21c0-2.55-.53-4.44-1.58-5.67s-2.33-1.84-3.81-1.84c-1.57,0-2.86.65-3.87,1.94s-1.51,3.15-1.51,5.56.49,4.16,1.46,5.46,2.27,1.94,3.88,1.94Z"/>
    <path class="cls-1" d="m1002.75,82.8v-25.31h3.16v10.93h13.82v-10.93h3.16v25.31h-3.16v-11.78h-13.82v11.78h-3.16Z"/>
    <path class="cls-1" d="m1036.42,83.22c-1.78,0-3.35-.42-4.71-1.26s-2.42-2-3.18-3.49-1.14-3.21-1.14-5.17.38-3.68,1.14-5.17,1.82-2.65,3.18-3.49,2.93-1.26,4.71-1.26,3.35.42,4.71,1.26,2.42,2,3.18,3.49,1.14,3.21,1.14,5.17-.38,3.68-1.14,5.17-1.82,2.65-3.18,3.49-2.93,1.26-4.71,1.26Zm0-2.46c1.79,0,3.21-.67,4.25-2s1.56-3.15,1.56-5.45-.52-4.13-1.56-5.46-2.45-2-4.25-2-3.21.67-4.25,2-1.56,3.15-1.56,5.46.52,4.11,1.56,5.45,2.45,2,4.25,2Z"/>
    <path class="cls-1" d="m1052.71,82.8c-.75,0-1.41-.25-1.97-.75s-.84-1.13-.84-1.89v-23.73h2.95v22.94c0,.39.06.64.17.77s.35.19.71.19h1.85v2.46h-2.87Z"/>
    <path class="cls-1" d="m1065.77,83.22c-1.54,0-2.89-.4-4.07-1.21s-2.09-1.96-2.75-3.45-.98-3.25-.98-5.27.33-3.78.99-5.26,1.58-2.62,2.75-3.43,2.53-1.2,4.06-1.2c1.24,0,2.47.31,3.69.93s2.14,1.67,2.76,3.15l-.33.14v-11.18h2.95v26.37h-2.78v-3.96l.09.28c-.52,1.38-1.37,2.41-2.57,3.08s-2.47,1.01-3.81,1.01Zm.77-2.46c1,0,1.9-.26,2.72-.77s1.48-1.32,1.97-2.42.74-2.5.74-4.21c0-2.55-.53-4.44-1.58-5.67s-2.33-1.84-3.81-1.84c-1.57,0-2.86.65-3.87,1.94s-1.51,3.15-1.51,5.56.49,4.16,1.46,5.46,2.27,1.94,3.88,1.94Z"/>
  </g>
  <polygon class="cls-7" points="1468.8 248.4 1656 248.4 1656 104.4 1468.8 104.4 1368 176.4 1468.8 248.4"/>
  <g>
    <line class="cls-9" x1="720" y1="176.4" x2="838.94" y2="176.4"/>
    <polygon class="cls-1" points="833.33 184.62 864 176.41 833.33 168.18 833.33 184.62"/>
  </g>
  <rect class="cls-7" x="648" y="392.4" width="144" height="144"/>
  <polyline class="cls-8" points="779.4 480.6 779.4 448.2 757.8 448.2 757.8 480.6 736.2 480.6 736.2 448.2 714.6 448.2 714.6 480.6 693 480.6 693 448.2 671.4 448.2 671.4 480.6 660.6 480.6"/>
  <g>
    <path class="cls-1" d="m685.35,371.22c-2.39,0-4.49-.56-6.28-1.69s-3.2-2.68-4.19-4.67-1.49-4.27-1.49-6.85.48-4.73,1.43-6.68,2.32-3.48,4.1-4.6,3.91-1.68,6.4-1.68,4.72.65,6.61,1.95,3.14,3.28,3.76,5.94l-3.36.79c-.5-2.09-1.38-3.62-2.63-4.61s-2.73-1.48-4.44-1.48-3.3.45-4.56,1.35-2.22,2.14-2.89,3.71-1,3.37-1,5.4.34,3.88,1.03,5.47,1.65,2.82,2.89,3.7,2.71,1.33,4.39,1.33c1.84,0,3.43-.56,4.76-1.67s2.19-2.66,2.55-4.64l3.46.95c-.69,2.6-1.99,4.58-3.88,5.93s-4.12,2.03-6.66,2.03Z"/>
    <path class="cls-1" d="m702.76,370.8c-.75,0-1.41-.25-1.97-.75s-.84-1.13-.84-1.89v-23.73h2.95v22.94c0,.39.06.64.17.77s.35.19.71.19h1.85v2.46h-2.87Z"/>
    <path class="cls-1" d="m717.06,371.22c-1.78,0-3.35-.42-4.71-1.26s-2.42-2-3.18-3.49-1.14-3.21-1.14-5.17.38-3.68,1.14-5.17,1.82-2.65,3.18-3.49,2.93-1.26,4.71-1.26,3.35.42,4.71,1.26,2.42,2,3.18,3.49,1.14,3.21,1.14,5.17-.38,3.68-1.14,5.17-1.82,2.65-3.18,3.49-2.93,1.26-4.71,1.26Zm0-2.46c1.79,0,3.21-.67,4.25-2s1.56-3.15,1.56-5.45-.52-4.13-1.56-5.46-2.45-2-4.25-2-3.21.67-4.25,2-1.56,3.15-1.56,5.46.52,4.11,1.56,5.45,2.45,2,4.25,2Z"/>
    <path class="cls-1" d="m738.93,371.22c-1.78,0-3.32-.4-4.62-1.21s-2.3-1.95-3.01-3.44-1.05-3.24-1.05-5.26.35-3.78,1.05-5.26,1.71-2.63,3.01-3.44,2.84-1.21,4.62-1.21c1.36,0,2.58.25,3.65.75s1.98,1.21,2.72,2.14,1.29,2.05,1.64,3.37l-3.01.79c-.33-1.48-.92-2.61-1.77-3.4s-1.93-1.19-3.24-1.19c-1.75,0-3.09.65-4.03,1.94s-1.42,3.13-1.42,5.51.47,4.23,1.42,5.52,2.29,1.93,4.03,1.93c1.3,0,2.37-.38,3.22-1.15s1.44-1.88,1.78-3.33l2.99.84c-.28.96-.67,1.82-1.16,2.57s-1.08,1.39-1.75,1.92-1.44.93-2.29,1.2-1.78.41-2.79.41Z"/>
    <path class="cls-1" d="m751.22,370.8v-26.37h2.95v15.87l8.91-8.49h4.03l-7.84,7.21,8,11.78h-3.5l-6.64-9.81-2.95,2.72v7.08h-2.95Z"/>
  </g>
  <polygon class="cls-8" points="322.5 176.4 322.5 133.1 360 154.75 397.5 176.4 360 198.05 322.5 219.7 322.5 176.4"/>
  <g>
    <path class="cls-1" d="m1474.06,187.47l10.69-25.31h3.16l10.65,25.31h-3.38l-8.86-22.01-8.89,22.01h-3.38Zm5.48-8.3v-2.6h13.54v2.6h-13.54Z"/>
    <path class="cls-1" d="m1501.8,187.47v-25.31h7.65c2.98,0,5.42.5,7.32,1.51s3.31,2.45,4.23,4.32,1.37,4.09,1.37,6.65c0,2.91-.54,5.31-1.62,7.21s-2.6,3.31-4.57,4.24-4.29,1.39-6.96,1.39h-7.42Zm3.16-2.6h3.94c6.69,0,10.04-3.35,10.04-10.05,0-2.05-.33-3.83-.99-5.33s-1.71-2.67-3.15-3.49-3.33-1.23-5.67-1.23h-4.17v20.11Z"/>
    <path class="cls-1" d="m1538.53,187.89c-2.39,0-4.49-.56-6.28-1.69s-3.2-2.68-4.19-4.67-1.49-4.27-1.49-6.85.48-4.73,1.43-6.68,2.32-3.48,4.1-4.6,3.91-1.68,6.4-1.68,4.72.65,6.61,1.95,3.14,3.28,3.76,5.94l-3.36.79c-.5-2.09-1.38-3.62-2.63-4.61s-2.73-1.48-4.44-1.48-3.3.45-4.56,1.35-2.22,2.14-2.89,3.71-1,3.37-1,5.4.34,3.88,1.03,5.47,1.65,2.82,2.89,3.7,2.71,1.33,4.39,1.33c1.84,0,3.43-.56,4.76-1.67s2.19-2.66,2.55-4.64l3.46.95c-.69,2.6-1.99,4.58-3.88,5.93s-4.12,2.03-6.66,2.03Z"/>
  </g>
  <g>
    <line class="cls-9" x1="1008" y1="176.4" x2="1054.94" y2="176.4"/>
    <polygon class="cls-1" points="1049.33 184.62 1080 176.41 1049.33 168.18 1049.33 184.62"/>
  </g>
  <line class="cls-9" x1="1584" y1="464.4" x2="792" y2="464.4"/>
  <g>
    <line class="cls-9" x1="1584" y1="464.4" x2="1584" y2="273.46"/>
    <polygon class="cls-1" points="1592.22 279.07 1584.01 248.4 1575.78 279.07 1592.22 279.07"/>
  </g>
  <g>
    <line class="cls-9" x1="936" y1="464.4" x2="936" y2="273.46"/>
    <polygon class="cls-1" points="944.22 279.07 936.01 248.4 927.78 279.07 944.22 279.07"/>
  </g>
  <g>
    <path id="m6d34ec28a4" class="cls-3" d="m1096.39,173.7c.46,0,.91-.18,1.23-.51s.51-.77.51-1.23-.18-.91-.51-1.23-.77-.51-1.23-.51-.91.18-1.23.51-.51.77-.51,1.23.18.91.51,1.23.77.51,1.23.51Z"/>
    <path id="m6d34ec28a4-2" data-name="m6d34ec28a4" class="cls-3" d="m1100.46,164.81c.46,0,.91-.18,1.23-.51s.51-.77.51-1.23-.18-.91-.51-1.23-.77-.51-1.23-.51-.91.18-1.23.51-.51.77-.51,1.23.18.91.51,1.23.77.51,1.23.51Z"/>
    <path id="m6d34ec28a4-3" data-name="m6d34ec28a4" class="cls-3" d="m1104.53,155.93c.46,0,.91-.18,1.23-.51s.51-.77.51-1.23-.18-.91-.51-1.23-.77-.51-1.23-.51-.91.18-1.23.51-.51.77-.51,1.23.18.91.51,1.23.77.51,1.23.51Z"/>
    <path id="m6d34ec28a4-4" data-name="m6d34ec28a4" class="cls-3" d="m1108.6,147.04c.46,0,.91-.18,1.23-.51s.51-.77.51-1.23-.18-.91-.51-1.23-.77-.51-1.23-.51-.91.18-1.23.51-.51.77-.51,1.23.18.91.51,1.23.77.51,1.23.51Z"/>
    <path id="m6d34ec28a4-5" data-name="m6d34ec28a4" class="cls-3" d="m1112.67,138.15c.46,0,.91-.18,1.23-.51s.51-.77.51-1.23-.18-.91-.51-1.23-.77-.51-1.23-.51-.91.18-1.23.51-.51.77-.51,1.23.18.91.51,1.23.77.51,1.23.51Z"/>
    <path id="m6d34ec28a4-6" data-name="m6d34ec28a4" class="cls-3" d="m1116.75,138.15c.46,0,.91-.18,1.23-.51s.51-.77.51-1.23-.18-.91-.51-1.23-.77-.51-1.23-.51-.91.18-1.23.51-.51.77-.51,1.23.18.91.51,1.23.77.51,1.23.51Z"/>
    <path id="m6d34ec28a4-7" data-name="m6d34ec28a4" class="cls-3" d="m1120.82,129.26c.46,0,.91-.18,1.23-.51s.51-.77.51-1.23-.18-.91-.51-1.23-.77-.51-1.23-.51-.91.18-1.23.51-.51.77-.51,1.23.18.91.51,1.23.77.51,1.23.51Z"/>
    <path id="m6d34ec28a4-8" data-name="m6d34ec28a4" class="cls-3" d="m1124.89,120.38c.46,0,.91-.18,1.23-.51s.51-.77.51-1.23-.18-.91-.51-1.23-.77-.51-1.23-.51-.91.18-1.23.51-.51.77-.51,1.23.18.91.51,1.23.77.51,1.23.51Z"/>
    <path id="m6d34ec28a4-9" data-name="m6d34ec28a4" class="cls-3" d="m1128.96,120.38c.46,0,.91-.18,1.23-.51s.51-.77.51-1.23-.18-.91-.51-1.23-.77-.51-1.23-.51-.91.18-1.23.51-.51.77-.51,1.23.18.91.51,1.23.77.51,1.23.51Z"/>
    <path id="m6d34ec28a4-10" data-name="m6d34ec28a4" class="cls-3" d="m1133.03,111.49c.46,0,.91-.18,1.23-.51s.51-.77.51-1.23-.18-.91-.51-1.23-.77-.51-1.23-.51-.91.18-1.23.51-.51.77-.51,1.23.18.91.51,1.23.77.51,1.23.51Z"/>
    <path id="m6d34ec28a4-11" data-name="m6d34ec28a4" class="cls-3" d="m1137.1,111.49c.46,0,.91-.18,1.23-.51s.51-.77.51-1.23-.18-.91-.51-1.23-.77-.51-1.23-.51-.91.18-1.23.51-.51.77-.51,1.23.18.91.51,1.23.77.51,1.23.51Z"/>
    <path id="m6d34ec28a4-12" data-name="m6d34ec28a4" class="cls-3" d="m1141.18,111.49c.46,0,.91-.18,1.23-.51s.51-.77.51-1.23-.18-.91-.51-1.23-.77-.51-1.23-.51-.91.18-1.23.51-.51.77-.51,1.23.18.91.51,1.23.77.51,1.23.51Z"/>
    <path id="m6d34ec28a4-13" data-name="m6d34ec28a4" class="cls-3" d="m1145.25,111.49c.46,0,.91-.18,1.23-.51s.51-.77.51-1.23-.18-.91-.51-1.23-.77-.51-1.23-.51-.91.18-1.23.51-.51.77-.51,1.23.18.91.51,1.23.77.51,1.23.51Z"/>
    <path id="m6d34ec28a4-14" data-name="m6d34ec28a4" class="cls-3" d="m1149.32,111.49c.46,0,.91-.18,1.23-.51s.51-.77.51-1.23-.18-.91-.51-1.23-.77-.51-1.23-.51-.91.18-1.23.51-.51.77-.51,1.23.18.91.51,1.23.77.51,1.23.51Z"/>
    <path id="m6d34ec28a4-15" data-name="m6d34ec28a4" class="cls-3" d="m1153.39,120.38c.46,0,.91-.18,1.23-.51s.51-.77.51-1.23-.18-.91-.51-1.23-.77-.51-1.23-.51-.91.18-1.23.51-.51.77-.51,1.23.18.91.51,1.23.77.51,1.23.51Z"/>
    <path id="m6d34ec28a4-16" data-name="m6d34ec28a4" class="cls-3" d="m1157.46,120.38c.46,0,.91-.18,1.23-.51s.51-.77.51-1.23-.18-.91-.51-1.23-.77-.51-1.23-.51-.91.18-1.23.51-.51.77-.51,1.23.18.91.51,1.23.77.51,1.23.51Z"/>
    <path id="m6d34ec28a4-17" data-name="m6d34ec28a4" class="cls-3" d="m1161.53,129.26c.46,0,.91-.18,1.23-.51s.51-.77.51-1.23-.18-.91-.51-1.23-.77-.51-1.23-.51-.91.18-1.23.51-.51.77-.51,1.23.18.91.51,1.23.77.51,1.23.51Z"/>
    <path id="m6d34ec28a4-18" data-name="m6d34ec28a4" class="cls-3" d="m1165.61,138.15c.46,0,.91-.18,1.23-.51s.51-.77.51-1.23-.18-.91-.51-1.23-.77-.51-1.23-.51-.91.18-1.23.51-.51.77-.51,1.23.18.91.51,1.23.77.51,1.23.51Z"/>
    <path id="m6d34ec28a4-19" data-name="m6d34ec28a4" class="cls-3" d="m1169.68,138.15c.46,0,.91-.18,1.23-.51s.51-.77.51-1.23-.18-.91-.51-1.23-.77-.51-1.23-.51-.91.18-1.23.51-.51.77-.51,1.23.18.91.51,1.23.77.51,1.23.51Z"/>
    <path id="m6d34ec28a4-20" data-name="m6d34ec28a4" class="cls-3" d="m1173.75,147.04c.46,0,.91-.18,1.23-.51s.51-.77.51-1.23-.18-.91-.51-1.23-.77-.51-1.23-.51-.91.18-1.23.51-.51.77-.51,1.23.18.91.51,1.23.77.51,1.23.51Z"/>
    <path id="m6d34ec28a4-21" data-name="m6d34ec28a4" class="cls-3" d="m1177.82,155.93c.46,0,.91-.18,1.23-.51s.51-.77.51-1.23-.18-.91-.51-1.23-.77-.51-1.23-.51-.91.18-1.23.51-.51.77-.51,1.23.18.91.51,1.23.77.51,1.23.51Z"/>
    <path id="m6d34ec28a4-22" data-name="m6d34ec28a4" class="cls-3" d="m1181.89,164.81c.46,0,.91-.18,1.23-.51s.51-.77.51-1.23-.18-.91-.51-1.23-.77-.51-1.23-.51-.91.18-1.23.51-.51.77-.51,1.23.18.91.51,1.23.77.51,1.23.51Z"/>
    <path id="m6d34ec28a4-23" data-name="m6d34ec28a4" class="cls-3" d="m1185.96,173.7c.46,0,.91-.18,1.23-.51s.51-.77.51-1.23-.18-.91-.51-1.23-.77-.51-1.23-.51-.91.18-1.23.51-.51.77-.51,1.23.18.91.51,1.23.77.51,1.23.51Z"/>
    <path id="m6d34ec28a4-24" data-name="m6d34ec28a4" class="cls-3" d="m1190.04,191.47c.46,0,.91-.18,1.23-.51s.51-.77.51-1.23-.18-.91-.51-1.23-.77-.51-1.23-.51-.91.18-1.23.51-.51.77-.51,1.23.18.91.51,1.23.77.51,1.23.51Z"/>
    <path id="m6d34ec28a4-25" data-name="m6d34ec28a4" class="cls-3" d="m1194.11,200.36c.46,0,.91-.18,1.23-.51s.51-.77.51-1.23-.18-.91-.51-1.23-.77-.51-1.23-.51-.91.18-1.23.51-.51.77-.51,1.23.18.91.51,1.23.77.51,1.23.51Z"/>
    <path id="m6d34ec28a4-26" data-name="m6d34ec28a4" class="cls-3" d="m1198.18,209.25c.46,0,.91-.18,1.23-.51s.51-.77.51-1.23-.18-.91-.51-1.23-.77-.51-1.23-.51-.91.18-1.23.51-.51.77-.51,1.23.18.91.51,1.23.77.51,1.23.51Z"/>
    <path id="m6d34ec28a4-27" data-name="m6d34ec28a4" class="cls-3" d="m1202.25,218.14c.46,0,.91-.18,1.23-.51s.51-.77.51-1.23-.18-.91-.51-1.23-.77-.51-1.23-.51-.91.18-1.23.51-.51.77-.51,1.23.18.91.51,1.23.77.51,1.23.51Z"/>
    <path id="m6d34ec28a4-28" data-name="m6d34ec28a4" class="cls-3" d="m1206.32,218.14c.46,0,.91-.18,1.23-.51s.51-.77.51-1.23-.18-.91-.51-1.23-.77-.51-1.23-.51-.91.18-1.23.51-.51.77-.51,1.23.18.91.51,1.23.77.51,1.23.51Z"/>
    <path id="m6d34ec28a4-29" data-name="m6d34ec28a4" class="cls-3" d="m1210.39,227.02c.46,0,.91-.18,1.23-.51s.51-.77.51-1.23-.18-.91-.51-1.23-.77-.51-1.23-.51-.91.18-1.23.51-.51.77-.51,1.23.18.91.51,1.23.77.51,1.23.51Z"/>
    <path id="m6d34ec28a4-30" data-name="m6d34ec28a4" class="cls-3" d="m1214.47,235.91c.46,0,.91-.18,1.23-.51s.51-.77.51-1.23-.18-.91-.51-1.23-.77-.51-1.23-.51-.91.18-1.23.51-.51.77-.51,1.23.18.91.51,1.23.77.51,1.23.51Z"/>
    <path id="m6d34ec28a4-31" data-name="m6d34ec28a4" class="cls-3" d="m1218.54,235.91c.46,0,.91-.18,1.23-.51s.51-.77.51-1.23-.18-.91-.51-1.23-.77-.51-1.23-.51-.91.18-1.23.51-.51.77-.51,1.23.18.91.51,1.23.77.51,1.23.51Z"/>
    <path id="m6d34ec28a4-32" data-name="m6d34ec28a4" class="cls-3" d="m1222.61,244.8c.46,0,.91-.18,1.23-.51s.51-.77.51-1.23-.18-.91-.51-1.23-.77-.51-1.23-.51-.91.18-1.23.51-.51.77-.51,1.23.18.91.51,1.23.77.51,1.23.51Z"/>
    <path id="m6d34ec28a4-33" data-name="m6d34ec28a4" class="cls-3" d="m1226.68,244.8c.46,0,.91-.18,1.23-.51s.51-.77.51-1.23-.18-.91-.51-1.23-.77-.51-1.23-.51-.91.18-1.23.51-.51.77-.51,1.23.18.91.51,1.23.77.51,1.23.51Z"/>
    <path id="m6d34ec28a4-34" data-name="m6d34ec28a4" class="cls-3" d="m1230.75,244.8c.46,0,.91-.18,1.23-.51s.51-.77.51-1.23-.18-.91-.51-1.23-.77-.51-1.23-.51-.91.18-1.23.51-.51.77-.51,1.23.18.91.51,1.23.77.51,1.23.51Z"/>
    <path id="m6d34ec28a4-35" data-name="m6d34ec28a4" class="cls-3" d="m1234.82,244.8c.46,0,.91-.18,1.23-.51s.51-.77.51-1.23-.18-.91-.51-1.23-.77-.51-1.23-.51-.91.18-1.23.51-.51.77-.51,1.23.18.91.51,1.23.77.51,1.23.51Z"/>
    <path id="m6d34ec28a4-36" data-name="m6d34ec28a4" class="cls-3" d="m1238.9,244.8c.46,0,.91-.18,1.23-.51s.51-.77.51-1.23-.18-.91-.51-1.23-.77-.51-1.23-.51-.91.18-1.23.51-.51.77-.51,1.23.18.91.51,1.23.77.51,1.23.51Z"/>
    <path id="m6d34ec28a4-37" data-name="m6d34ec28a4" class="cls-3" d="m1242.97,235.91c.46,0,.91-.18,1.23-.51s.51-.77.51-1.23-.18-.91-.51-1.23-.77-.51-1.23-.51-.91.18-1.23.51-.51.77-.51,1.23.18.91.51,1.23.77.51,1.23.51Z"/>
    <path id="m6d34ec28a4-38" data-name="m6d34ec28a4" class="cls-3" d="m1247.04,235.91c.46,0,.91-.18,1.23-.51s.51-.77.51-1.23-.18-.91-.51-1.23-.77-.51-1.23-.51-.91.18-1.23.51-.51.77-.51,1.23.18.91.51,1.23.77.51,1.23.51Z"/>
    <path id="m6d34ec28a4-39" data-name="m6d34ec28a4" class="cls-3" d="m1251.11,227.02c.46,0,.91-.18,1.23-.51s.51-.77.51-1.23-.18-.91-.51-1.23-.77-.51-1.23-.51-.91.18-1.23.51-.51.77-.51,1.23.18.91.51,1.23.77.51,1.23.51Z"/>
    <path id="m6d34ec28a4-40" data-name="m6d34ec28a4" class="cls-3" d="m1255.18,218.14c.46,0,.91-.18,1.23-.51s.51-.77.51-1.23-.18-.91-.51-1.23-.77-.51-1.23-.51-.91.18-1.23.51-.51.77-.51,1.23.18.91.51,1.23.77.51,1.23.51Z"/>
    <path id="m6d34ec28a4-41" data-name="m6d34ec28a4" class="cls-3" d="m1259.25,218.14c.46,0,.91-.18,1.23-.51s.51-.77.51-1.23-.18-.91-.51-1.23-.77-.51-1.23-.51-.91.18-1.23.51-.51.77-.51,1.23.18.91.51,1.23.77.51,1.23.51Z"/>
    <path id="m6d34ec28a4-42" data-name="m6d34ec28a4" class="cls-3" d="m1263.33,209.25c.46,0,.91-.18,1.23-.51s.51-.77.51-1.23-.18-.91-.51-1.23-.77-.51-1.23-.51-.91.18-1.23.51-.51.77-.51,1.23.18.91.51,1.23.77.51,1.23.51Z"/>
    <path id="m6d34ec28a4-43" data-name="m6d34ec28a4" class="cls-3" d="m1267.4,200.36c.46,0,.91-.18,1.23-.51s.51-.77.51-1.23-.18-.91-.51-1.23-.77-.51-1.23-.51-.91.18-1.23.51-.51.77-.51,1.23.18.91.51,1.23.77.51,1.23.51Z"/>
    <path id="m6d34ec28a4-44" data-name="m6d34ec28a4" class="cls-3" d="m1271.47,191.47c.46,0,.91-.18,1.23-.51s.51-.77.51-1.23-.18-.91-.51-1.23-.77-.51-1.23-.51-.91.18-1.23.51-.51.77-.51,1.23.18.91.51,1.23.77.51,1.23.51Z"/>
    <path id="m6d34ec28a4-45" data-name="m6d34ec28a4" class="cls-3" d="m1275.54,182.59c.46,0,.91-.18,1.23-.51s.51-.77.51-1.23-.18-.91-.51-1.23-.77-.51-1.23-.51-.91.18-1.23.51-.51.77-.51,1.23.18.91.51,1.23.77.51,1.23.51Z"/>
    <path id="m6d34ec28a4-46" data-name="m6d34ec28a4" class="cls-3" d="m1279.61,173.7c.46,0,.91-.18,1.23-.51s.51-.77.51-1.23-.18-.91-.51-1.23-.77-.51-1.23-.51-.91.18-1.23.51-.51.77-.51,1.23.18.91.51,1.23.77.51,1.23.51Z"/>
  </g>
  <g>
    <path class="cls-5" d="m7.2,176.4c.05-.13.08-.19.08-.19l10.79-24.91,5.77-12.29,4.83-9.36,4.28-7.38,3.91-5.86,3.54-4.52,3.35-3.53,3.16-2.64,2.79-1.72,2.6-1.1,2.42-.57,2.23-.15,2.23.24,2.23.6,2.42,1.06,2.6,1.62,2.79,2.28,3.16,3.22,3.54,4.37,3.72,5.43,3.91,6.54,4.46,8.38,5.03,10.39,6.14,13.71s3.59,8.39,6.99,16.36"/>
    <path class="cls-5" d="m106.17,176.4c.05.13.08.19.08.19l10.79,24.91,5.77,12.29,4.83,9.36,4.28,7.38,3.91,5.86,3.54,4.52,3.35,3.53,3.16,2.64,2.79,1.72,2.6,1.1,2.42.57,2.23.15,2.23-.24,2.23-.6,2.42-1.06,2.6-1.62,2.79-2.28,3.16-3.22,3.54-4.37,3.72-5.43,3.91-6.54,4.46-8.38,5.03-10.39,6.14-13.71s3.59-8.39,6.99-16.36"/>
  </g>
  <g>
    <path class="cls-1" d="m1376.46,36.16l10.69-25.31h3.16l10.65,25.31h-3.38l-8.86-22.01-8.89,22.01h-3.38Zm5.48-8.3v-2.6h13.54v2.6h-13.54Z"/>
    <path class="cls-1" d="m1404.18,36.16v-18.98h2.78v4.29l-.12-.77c.5-1.09,1.3-2.02,2.39-2.79s2.41-1.15,3.97-1.15c1.35,0,2.51.3,3.48.9s1.72,1.45,2.25,2.56.79,2.44.79,4v11.95h-2.95v-11.72c0-1.56-.32-2.82-.96-3.78s-1.69-1.44-3.16-1.44c-1.58,0-2.9.6-3.95,1.8s-1.57,2.94-1.57,5.21v9.93h-2.95Z"/>
    <path class="cls-1" d="m1430.05,36.58c-1.27,0-2.36-.24-3.3-.73s-1.65-1.15-2.15-2-.76-1.8-.76-2.87c0-1.14.33-2.19,1-3.15s1.7-1.73,3.1-2.31,3.2-.87,5.39-.87h3.16l-.32.32v-1.04c0-1.52-.3-2.69-.91-3.51s-1.63-1.22-3.06-1.22c-1.35,0-2.38.35-3.11,1.05s-1.11,1.63-1.16,2.8l-3.32-.76c.11-1.02.5-1.95,1.17-2.79s1.58-1.51,2.71-2.01,2.44-.76,3.93-.76,2.79.29,3.75.87,1.68,1.42,2.14,2.5.69,2.4.69,3.94v8.67c0,.39.06.64.17.77s.35.19.71.19h1.07v2.46h-1.88c-.8,0-1.46-.25-2-.75s-.81-1.13-.81-1.89v-1.34h.44c-.19.49-.46.99-.81,1.5s-.8.98-1.34,1.42-1.18.79-1.92,1.06-1.6.4-2.58.4Zm.67-2.46c.97,0,1.88-.24,2.71-.72s1.5-1.23,2.01-2.26.76-2.36.76-4v-.16h-2.97c-1.56,0-2.79.21-3.68.62s-1.53.92-1.91,1.52-.56,1.2-.56,1.8.13,1.14.4,1.62.67.86,1.21,1.15,1.21.43,2.02.43Z"/>
    <path class="cls-1" d="m1447.8,36.16c-.75,0-1.41-.25-1.97-.75s-.84-1.13-.84-1.89V9.79h2.95v22.94c0,.39.06.64.17.77s.35.19.71.19h1.85v2.46h-2.87Z"/>
    <path class="cls-1" d="m1462.11,36.58c-1.78,0-3.35-.42-4.71-1.26s-2.42-2-3.18-3.49-1.14-3.21-1.14-5.17.38-3.68,1.14-5.17,1.82-2.65,3.18-3.49,2.93-1.26,4.71-1.26,3.35.42,4.71,1.26,2.42,2,3.18,3.49,1.14,3.21,1.14,5.17-.38,3.68-1.14,5.17-1.82,2.65-3.18,3.49-2.93,1.26-4.71,1.26Zm0-2.46c1.79,0,3.21-.67,4.25-2s1.56-3.15,1.56-5.45-.52-4.13-1.56-5.46-2.45-2-4.25-2-3.21.67-4.25,2-1.56,3.15-1.56,5.46.52,4.11,1.56,5.45,2.45,2,4.25,2Z"/>
    <path class="cls-1" d="m1482.4,43.44c-2.82,0-4.9-.4-6.24-1.19s-2-2.01-2-3.67c0-.94.24-1.78.72-2.51s1.31-1.31,2.5-1.71c-.45-.27-.81-.63-1.09-1.07s-.42-.94-.42-1.49c0-.66.21-1.25.62-1.77s1-.89,1.76-1.12c-.94-.55-1.67-1.3-2.19-2.24s-.78-2.04-.78-3.3c0-1.36.3-2.53.91-3.52s1.46-1.75,2.58-2.29,2.45-.81,4-.81,2.89.27,4.02.81,2,1.31,2.62,2.3.92,2.18.92,3.55-.31,2.51-.92,3.49-1.49,1.73-2.63,2.27-2.49.8-4.06.8h-1.63c-1.48,0-2.21.44-2.21,1.32,0,.83.71,1.25,2.14,1.25h3.8c1.5,0,2.71.17,3.63.52s1.62.79,2.11,1.34.82,1.13.99,1.77.26,1.24.26,1.81c0,1.86-.67,3.24-2.02,4.13s-3.44,1.34-6.28,1.34h-1.09Zm0-2.36h1.09c3.49,0,5.24-1.04,5.24-3.13,0-.87-.31-1.58-.94-2.13s-1.7-.83-3.21-.83h-3.27c-1.17,0-2.15.24-2.94.71s-1.18,1.25-1.18,2.33.42,1.8,1.27,2.29,2.16.75,3.93.75Zm.35-13.18c1.49,0,2.63-.38,3.43-1.15s1.2-1.88,1.2-3.33-.4-2.56-1.2-3.36-1.94-1.2-3.43-1.2-2.61.4-3.39,1.19-1.18,1.91-1.18,3.37.39,2.56,1.18,3.33,1.92,1.15,3.39,1.15Zm3.13-9.16v-1.88c0-.76.28-1.39.84-1.89s1.22-.75,1.97-.75h2.29v2.46h-1.88c-.36,0-.6.06-.71.19s-.17.39-.17.77v1.09h-2.34Z"/>
    <path class="cls-1" d="m1508.91,36.16c-.75,0-1.41-.25-1.97-.75s-.84-1.13-.84-1.89v-13.89h-3.06v-2.46h3.06v-3.97l2.95-.63v4.61h3.76v2.46h-3.76v13.1c0,.39.06.64.17.77s.35.19.71.19h2.9v2.46h-3.92Z"/>
    <path class="cls-1" d="m1524.2,36.58c-1.78,0-3.35-.42-4.71-1.26s-2.42-2-3.18-3.49-1.14-3.21-1.14-5.17.38-3.68,1.14-5.17,1.82-2.65,3.18-3.49,2.93-1.26,4.71-1.26,3.35.42,4.71,1.26,2.42,2,3.18,3.49,1.14,3.21,1.14,5.17-.38,3.68-1.14,5.17-1.82,2.65-3.18,3.49-2.93,1.26-4.71,1.26Zm0-2.46c1.79,0,3.21-.67,4.25-2s1.56-3.15,1.56-5.45-.52-4.13-1.56-5.46-2.45-2-4.25-2-3.21.67-4.25,2-1.56,3.15-1.56,5.46.52,4.11,1.56,5.45,2.45,2,4.25,2Z"/>
    <path class="cls-1" d="m1546.96,36.16V10.85h7.65c2.98,0,5.42.5,7.32,1.51s3.31,2.45,4.23,4.32,1.37,4.09,1.37,6.65c0,2.91-.54,5.31-1.62,7.21s-2.6,3.31-4.57,4.24-4.29,1.39-6.96,1.39h-7.42Zm3.16-2.6h3.94c6.69,0,10.04-3.35,10.04-10.05,0-2.05-.33-3.83-.99-5.33s-1.71-2.67-3.15-3.49-3.33-1.23-5.67-1.23h-4.17v20.11Z"/>
    <path class="cls-1" d="m1573.52,13.99c-.68,0-1.26-.24-1.74-.72s-.72-1.06-.72-1.74.24-1.27.72-1.75,1.06-.71,1.74-.71,1.27.24,1.75.71.71,1.06.71,1.75-.24,1.26-.71,1.74-1.06.72-1.75.72Zm-1.48,22.17v-18.98h2.95v18.98h-2.95Z"/>
    <path class="cls-1" d="m1587.43,43.44c-2.82,0-4.9-.4-6.24-1.19s-2-2.01-2-3.67c0-.94.24-1.78.72-2.51s1.31-1.31,2.5-1.71c-.45-.27-.81-.63-1.09-1.07s-.42-.94-.42-1.49c0-.66.21-1.25.62-1.77s1-.89,1.76-1.12c-.94-.55-1.67-1.3-2.19-2.24s-.78-2.04-.78-3.3c0-1.36.3-2.53.91-3.52s1.46-1.75,2.58-2.29,2.45-.81,4-.81,2.89.27,4.02.81,2,1.31,2.62,2.3.92,2.18.92,3.55-.31,2.51-.92,3.49-1.49,1.73-2.63,2.27-2.49.8-4.06.8h-1.63c-1.48,0-2.21.44-2.21,1.32,0,.83.71,1.25,2.14,1.25h3.8c1.5,0,2.71.17,3.63.52s1.62.79,2.11,1.34.82,1.13.99,1.77.26,1.24.26,1.81c0,1.86-.67,3.24-2.02,4.13s-3.44,1.34-6.28,1.34h-1.09Zm0-2.36h1.09c3.49,0,5.24-1.04,5.24-3.13,0-.87-.31-1.58-.94-2.13s-1.7-.83-3.21-.83h-3.27c-1.17,0-2.15.24-2.94.71s-1.18,1.25-1.18,2.33.42,1.8,1.27,2.29,2.16.75,3.93.75Zm.35-13.18c1.49,0,2.63-.38,3.43-1.15s1.2-1.88,1.2-3.33-.4-2.56-1.2-3.36-1.94-1.2-3.43-1.2-2.61.4-3.39,1.19-1.18,1.91-1.18,3.37.39,2.56,1.18,3.33,1.92,1.15,3.39,1.15Zm3.13-9.16v-1.88c0-.76.28-1.39.84-1.89s1.22-.75,1.97-.75h2.29v2.46h-1.88c-.36,0-.6.06-.71.19s-.17.39-.17.77v1.09h-2.34Z"/>
    <path class="cls-1" d="m1602.09,13.99c-.68,0-1.26-.24-1.74-.72s-.72-1.06-.72-1.74.24-1.27.72-1.75,1.06-.71,1.74-.71,1.27.24,1.75.71.71,1.06.71,1.75-.24,1.26-.71,1.74-1.06.72-1.75.72Zm-1.48,22.17v-18.98h2.95v18.98h-2.95Z"/>
    <path class="cls-1" d="m1613.51,36.16c-.75,0-1.41-.25-1.97-.75s-.84-1.13-.84-1.89v-13.89h-3.06v-2.46h3.06v-3.97l2.95-.63v4.61h3.76v2.46h-3.76v13.1c0,.39.06.64.17.77s.35.19.71.19h2.9v2.46h-3.92Z"/>
    <path class="cls-1" d="m1626.36,36.58c-1.27,0-2.36-.24-3.3-.73s-1.65-1.15-2.15-2-.76-1.8-.76-2.87c0-1.14.33-2.19,1-3.15s1.7-1.73,3.1-2.31,3.2-.87,5.39-.87h3.16l-.32.32v-1.04c0-1.52-.3-2.69-.91-3.51s-1.63-1.22-3.06-1.22c-1.35,0-2.38.35-3.11,1.05s-1.11,1.63-1.16,2.8l-3.32-.76c.11-1.02.5-1.95,1.17-2.79s1.58-1.51,2.71-2.01,2.44-.76,3.93-.76,2.79.29,3.75.87,1.68,1.42,2.14,2.5.69,2.4.69,3.94v8.67c0,.39.06.64.17.77s.35.19.71.19h1.07v2.46h-1.88c-.8,0-1.46-.25-2-.75s-.81-1.13-.81-1.89v-1.34h.44c-.19.49-.46.99-.81,1.5s-.8.98-1.34,1.42-1.18.79-1.92,1.06-1.6.4-2.58.4Zm.67-2.46c.97,0,1.88-.24,2.71-.72s1.5-1.23,2.01-2.26.76-2.36.76-4v-.16h-2.97c-1.56,0-2.79.21-3.68.62s-1.53.92-1.91,1.52-.56,1.2-.56,1.8.13,1.14.4,1.62.67.86,1.21,1.15,1.21.43,2.02.43Z"/>
    <path class="cls-1" d="m1644.12,36.16c-.75,0-1.41-.25-1.97-.75s-.84-1.13-.84-1.89V9.79h2.95v22.94c0,.39.06.64.17.77s.35.19.71.19h1.85v2.46h-2.87Z"/>
    <path class="cls-1" d="m1430.85,79.78c-2.39,0-4.49-.56-6.28-1.69s-3.2-2.68-4.19-4.67-1.49-4.27-1.49-6.85.48-4.73,1.43-6.68,2.32-3.48,4.1-4.6,3.91-1.68,6.4-1.68,4.72.65,6.61,1.95,3.14,3.28,3.76,5.94l-3.36.79c-.5-2.09-1.38-3.62-2.63-4.61s-2.73-1.48-4.44-1.48-3.3.45-4.56,1.35-2.22,2.14-2.89,3.71-1,3.37-1,5.4.34,3.88,1.03,5.47,1.65,2.82,2.89,3.7,2.71,1.33,4.39,1.33c1.84,0,3.43-.56,4.76-1.67s2.19-2.66,2.55-4.64l3.46.95c-.69,2.6-1.99,4.58-3.88,5.93s-4.12,2.03-6.66,2.03Z"/>
    <path class="cls-1" d="m1453.35,79.78c-1.78,0-3.35-.42-4.71-1.26s-2.42-2-3.18-3.49-1.14-3.21-1.14-5.17.38-3.68,1.14-5.17,1.82-2.65,3.18-3.49,2.93-1.26,4.71-1.26,3.35.42,4.71,1.26,2.42,2,3.18,3.49,1.14,3.21,1.14,5.17-.38,3.68-1.14,5.17-1.82,2.65-3.18,3.49-2.93,1.26-4.71,1.26Zm0-2.46c1.79,0,3.21-.67,4.25-2s1.56-3.15,1.56-5.45-.52-4.13-1.56-5.46-2.45-2-4.25-2-3.21.67-4.25,2-1.56,3.15-1.56,5.46.52,4.11,1.56,5.45,2.45,2,4.25,2Z"/>
    <path class="cls-1" d="m1466.8,79.36v-18.98h2.78v4.29l-.12-.77c.5-1.09,1.3-2.02,2.39-2.79s2.41-1.15,3.97-1.15c1.35,0,2.51.3,3.48.9s1.72,1.45,2.25,2.56.79,2.44.79,4v11.95h-2.95v-11.72c0-1.56-.32-2.82-.96-3.78s-1.69-1.44-3.16-1.44c-1.58,0-2.9.6-3.95,1.8s-1.57,2.94-1.57,5.21v9.93h-2.95Z"/>
    <path class="cls-1" d="m1492.16,79.36l-7.14-18.98h3.27l6.03,17.31h-.56l5.99-17.31h3.27l-7.1,18.98h-3.76Z"/>
    <path class="cls-1" d="m1513.92,79.78c-1.8,0-3.37-.4-4.68-1.21s-2.33-1.95-3.05-3.44-1.07-3.23-1.07-5.25.36-3.79,1.07-5.27,1.72-2.64,3.02-3.45,2.83-1.21,4.59-1.21c1.01,0,2.02.16,3.03.48s1.94.88,2.78,1.67,1.51,1.88,2.02,3.25.76,3.11.76,5.21h-15.38v-2.39h12.81l-.84,1.11c-.06-1.66-.33-3-.81-4.01s-1.1-1.74-1.87-2.19-1.62-.68-2.56-.68c-1.11,0-2.07.29-2.88.87s-1.43,1.43-1.86,2.54-.65,2.47-.65,4.08c0,2.37.48,4.2,1.45,5.48s2.34,1.93,4.12,1.93c1.28,0,2.35-.32,3.23-.97s1.51-1.58,1.92-2.79l2.9.98c-.46,1.1-1.07,2.04-1.83,2.82s-1.67,1.38-2.72,1.79-2.22.62-3.51.62Z"/>
    <path class="cls-1" d="m1526.86,79.36v-18.98h2.78v4.03l-.11-.46c.56-1.31,1.41-2.31,2.54-2.98s2.28-1.01,3.44-1.01c.34,0,.67.03.99.09s.62.16.91.3l-.39,2.78c-.64-.2-1.28-.3-1.92-.3-.4,0-.89.08-1.49.24s-1.18.47-1.76.95-1.07,1.18-1.46,2.12-.59,2.19-.59,3.74v9.49h-2.95Z"/>
    <path class="cls-1" d="m1546.87,79.78c-1.37,0-2.62-.23-3.74-.68s-2.05-1.14-2.79-2.06-1.23-2.09-1.48-3.51l3.09-.6c.13,1.49.64,2.6,1.52,3.32s2,1.09,3.33,1.09,2.38-.33,3.16-1,1.18-1.48,1.18-2.44c0-.82-.28-1.47-.83-1.95s-1.36-.82-2.42-1.02l-2.3-.44c-.62-.12-1.27-.28-1.93-.49s-1.29-.5-1.87-.88-1.05-.87-1.41-1.48-.54-1.38-.54-2.3c0-1.24.33-2.26.98-3.05s1.51-1.38,2.58-1.77,2.23-.58,3.47-.58c1.36,0,2.54.21,3.55.63s1.83,1.03,2.46,1.81,1.05,1.73,1.27,2.85l-3.25.65c-.08-.71-.27-1.34-.57-1.86s-.73-.93-1.3-1.22-1.3-.43-2.21-.43c-1.09,0-2.03.23-2.81.69s-1.18,1.15-1.18,2.07c0,.52.13.96.4,1.32s.66.67,1.2.91,1.2.45,2.01.62l2.34.49c.98.2,1.89.5,2.72.89s1.5.93,2,1.63.76,1.61.76,2.74c0,1.25-.31,2.33-.94,3.24s-1.49,1.6-2.6,2.08-2.39.72-3.86.72Z"/>
    <path class="cls-1" d="m1560.28,57.19c-.68,0-1.26-.24-1.74-.72s-.72-1.06-.72-1.74.24-1.27.72-1.75,1.06-.71,1.74-.71,1.27.24,1.75.71.71,1.06.71,1.75-.24,1.26-.71,1.74-1.06.72-1.75.72Zm-1.48,22.17v-18.98h2.95v18.98h-2.95Z"/>
    <path class="cls-1" d="m1575.2,79.78c-1.78,0-3.35-.42-4.71-1.26s-2.42-2-3.18-3.49-1.14-3.21-1.14-5.17.38-3.68,1.14-5.17,1.82-2.65,3.18-3.49,2.93-1.26,4.71-1.26,3.35.42,4.71,1.26,2.42,2,3.18,3.49,1.14,3.21,1.14,5.17-.38,3.68-1.14,5.17-1.82,2.65-3.18,3.49-2.93,1.26-4.71,1.26Zm0-2.46c1.79,0,3.21-.67,4.25-2s1.56-3.15,1.56-5.45-.52-4.13-1.56-5.46-2.45-2-4.25-2-3.21.67-4.25,2-1.56,3.15-1.56,5.46.52,4.11,1.56,5.45,2.45,2,4.25,2Z"/>
    <path class="cls-1" d="m1588.65,79.36v-18.98h2.78v4.29l-.12-.77c.5-1.09,1.3-2.02,2.39-2.79s2.41-1.15,3.97-1.15c1.35,0,2.51.3,3.48.9s1.72,1.45,2.25,2.56.79,2.44.79,4v11.95h-2.95v-11.72c0-1.56-.32-2.82-.96-3.78s-1.69-1.44-3.16-1.44c-1.58,0-2.9.6-3.95,1.8s-1.57,2.94-1.57,5.21v9.93h-2.95Z"/>
  </g>
  <circle class="cls-1" cx="936" cy="464.4" r="7.2"/>
  <g>
    <line class="cls-9" x1="1296" y1="176.4" x2="1342.94" y2="176.4"/>
    <polygon class="cls-1" points="1337.33 184.62 1368 176.41 1337.33 168.18 1337.33 184.62"/>
  </g>
  <g>
    <line class="cls-9" x1="1656" y1="176.4" x2="1702.94" y2="176.4"/>
    <polygon class="cls-1" points="1697.33 184.62 1728 176.41 1697.33 168.18 1697.33 184.62"/>
  </g>
  <g>
    <path class="cls-1" d="m1735.32,28.68v-11.76c-.54.46-1.05.86-1.52,1.17-.47.32-1,.59-1.58.8v-1.74c.3-.14.62-.32.95-.54.33-.22.72-.53,1.14-.95.43-.42.92-1,1.48-1.75h1.32v14.77h-1.8Z"/>
    <path class="cls-1" d="m1750.56,28.93c-1.71,0-3.04-.67-3.98-2-.94-1.34-1.42-3.21-1.42-5.62s.47-4.29,1.42-5.62,2.27-2,3.98-2,3.04.67,3.98,2c.94,1.34,1.41,3.21,1.41,5.62s-.47,4.29-1.41,5.62c-.94,1.34-2.27,2-3.98,2Zm0-1.48c1.13,0,1.99-.52,2.57-1.57s.87-2.57.87-4.58-.29-3.54-.87-4.58-1.44-1.57-2.57-1.57-1.99.52-2.57,1.57c-.58,1.05-.87,2.57-.87,4.58s.29,3.54.87,4.58c.58,1.05,1.44,1.57,2.57,1.57Z"/>
    <path class="cls-1" d="m1768.73,28.93c-1.71,0-3.04-.67-3.98-2-.94-1.34-1.42-3.21-1.42-5.62s.47-4.29,1.42-5.62,2.27-2,3.98-2,3.04.67,3.98,2c.94,1.34,1.41,3.21,1.41,5.62s-.47,4.29-1.41,5.62c-.94,1.34-2.27,2-3.98,2Zm0-1.48c1.13,0,1.99-.52,2.57-1.57s.87-2.57.87-4.58-.29-3.54-.87-4.58-1.44-1.57-2.57-1.57-1.99.52-2.57,1.57c-.58,1.05-.87,2.57-.87,4.58s.29,3.54.87,4.58c.58,1.05,1.44,1.57,2.57,1.57Z"/>
    <path class="cls-1" d="m1784.2,28.68v-11.76c-.54.46-1.05.86-1.52,1.17-.47.32-1,.59-1.58.8v-1.74c.3-.14.62-.32.95-.54.33-.22.72-.53,1.14-.95.43-.42.92-1,1.48-1.75h1.32v14.77h-1.8Z"/>
    <path class="cls-1" d="m1796.74,28.68v-11.76c-.54.46-1.05.86-1.52,1.17-.47.32-1,.59-1.58.8v-1.74c.3-.14.62-.32.95-.54.33-.22.72-.53,1.14-.95.43-.42.92-1,1.48-1.75h1.32v14.77h-1.8Z"/>
    <path class="cls-1" d="m1811.98,28.93c-1.71,0-3.04-.67-3.98-2-.94-1.34-1.42-3.21-1.42-5.62s.47-4.29,1.42-5.62,2.27-2,3.98-2,3.04.67,3.98,2c.94,1.34,1.41,3.21,1.41,5.62s-.47,4.29-1.41,5.62c-.94,1.34-2.27,2-3.98,2Zm0-1.48c1.13,0,1.99-.52,2.57-1.57s.87-2.57.87-4.58-.29-3.54-.87-4.58-1.44-1.57-2.57-1.57-1.99.52-2.57,1.57c-.58,1.05-.87,2.57-.87,4.58s.29,3.54.87,4.58c.58,1.05,1.44,1.57,2.57,1.57Z"/>
    <path class="cls-1" d="m1738.02,54.13c-1.71,0-3.04-.67-3.98-2-.94-1.34-1.42-3.21-1.42-5.62s.47-4.29,1.42-5.62,2.27-2,3.98-2,3.04.67,3.98,2c.94,1.34,1.41,3.21,1.41,5.62s-.47,4.29-1.41,5.62c-.94,1.34-2.27,2-3.98,2Zm0-1.48c1.13,0,1.99-.52,2.57-1.57s.87-2.57.87-4.58-.29-3.54-.87-4.58-1.44-1.57-2.57-1.57-1.99.52-2.57,1.57c-.58,1.05-.87,2.57-.87,4.58s.29,3.54.87,4.58c.58,1.05,1.44,1.57,2.57,1.57Z"/>
    <path class="cls-1" d="m1756.19,54.13c-1.71,0-3.04-.67-3.98-2-.94-1.34-1.42-3.21-1.42-5.62s.47-4.29,1.42-5.62,2.27-2,3.98-2,3.04.67,3.98,2c.94,1.34,1.41,3.21,1.41,5.62s-.47,4.29-1.41,5.62c-.94,1.34-2.27,2-3.98,2Zm0-1.48c1.13,0,1.99-.52,2.57-1.57s.87-2.57.87-4.58-.29-3.54-.87-4.58-1.44-1.57-2.57-1.57-1.99.52-2.57,1.57c-.58,1.05-.87,2.57-.87,4.58s.29,3.54.87,4.58c.58,1.05,1.44,1.57,2.57,1.57Z"/>
    <path class="cls-1" d="m1771.66,53.88v-11.76c-.54.46-1.05.86-1.52,1.17-.47.32-1,.59-1.58.8v-1.74c.3-.14.62-.32.95-.54.33-.22.72-.53,1.14-.95.43-.42.92-1,1.48-1.75h1.32v14.77h-1.8Z"/>
    <path class="cls-1" d="m1784.2,53.88v-11.76c-.54.46-1.05.86-1.52,1.17-.47.32-1,.59-1.58.8v-1.74c.3-.14.62-.32.95-.54.33-.22.72-.53,1.14-.95.43-.42.92-1,1.48-1.75h1.32v14.77h-1.8Z"/>
    <path class="cls-1" d="m1796.74,53.88v-11.76c-.54.46-1.05.86-1.52,1.17-.47.32-1,.59-1.58.8v-1.74c.3-.14.62-.32.95-.54.33-.22.72-.53,1.14-.95.43-.42.92-1,1.48-1.75h1.32v14.77h-1.8Z"/>
    <path class="cls-1" d="m1811.98,54.13c-1.71,0-3.04-.67-3.98-2-.94-1.34-1.42-3.21-1.42-5.62s.47-4.29,1.42-5.62,2.27-2,3.98-2,3.04.67,3.98,2c.94,1.34,1.41,3.21,1.41,5.62s-.47,4.29-1.41,5.62c-.94,1.34-2.27,2-3.98,2Zm0-1.48c1.13,0,1.99-.52,2.57-1.57s.87-2.57.87-4.58-.29-3.54-.87-4.58-1.44-1.57-2.57-1.57-1.99.52-2.57,1.57c-.58,1.05-.87,2.57-.87,4.58s.29,3.54.87,4.58c.58,1.05,1.44,1.57,2.57,1.57Z"/>
    <path class="cls-1" d="m1827.46,53.88v-11.76c-.54.46-1.05.86-1.52,1.17-.47.32-1,.59-1.58.8v-1.74c.3-.14.62-.32.95-.54.33-.22.72-.53,1.14-.95.43-.42.92-1,1.48-1.75h1.32v14.77h-1.8Z"/>
    <path class="cls-1" d="m1735.32,79.08v-11.76c-.54.46-1.05.86-1.52,1.17-.47.32-1,.59-1.58.8v-1.74c.3-.14.62-.32.95-.54.33-.22.72-.53,1.14-.95.43-.42.92-1,1.48-1.75h1.32v14.77h-1.8Z"/>
    <path class="cls-1" d="m1750.56,79.33c-1.71,0-3.04-.67-3.98-2-.94-1.34-1.42-3.21-1.42-5.62s.47-4.29,1.42-5.62,2.27-2,3.98-2,3.04.67,3.98,2c.94,1.34,1.41,3.21,1.41,5.62s-.47,4.29-1.41,5.62c-.94,1.34-2.27,2-3.98,2Zm0-1.48c1.13,0,1.99-.52,2.57-1.57.58-1.05.87-2.57.87-4.58s-.29-3.54-.87-4.58-1.44-1.57-2.57-1.57-1.99.52-2.57,1.57c-.58,1.05-.87,2.57-.87,4.58s.29,3.54.87,4.58c.58,1.04,1.44,1.57,2.57,1.57Z"/>
    <path class="cls-1" d="m1766.03,79.08v-11.76c-.54.46-1.05.86-1.52,1.17-.47.32-1,.59-1.58.8v-1.74c.3-.14.62-.32.95-.54.33-.22.72-.53,1.14-.95.43-.42.92-1,1.48-1.75h1.32v14.77h-1.8Z"/>
    <path class="cls-1" d="m1778.57,79.08v-11.76c-.54.46-1.05.86-1.52,1.17-.47.32-1,.59-1.58.8v-1.74c.3-.14.62-.32.95-.54.33-.22.72-.53,1.14-.95.43-.42.92-1,1.48-1.75h1.32v14.77h-1.8Z"/>
    <path class="cls-1" d="m1791.12,79.08v-11.76c-.54.46-1.05.86-1.52,1.17-.47.32-1,.59-1.58.8v-1.74c.3-.14.62-.32.95-.54.33-.22.72-.53,1.14-.95.43-.42.92-1,1.48-1.75h1.32v14.77h-1.8Z"/>
    <path class="cls-1" d="m1806.35,79.33c-1.71,0-3.04-.67-3.98-2-.94-1.34-1.42-3.21-1.42-5.62s.47-4.29,1.42-5.62,2.27-2,3.98-2,3.04.67,3.98,2c.94,1.34,1.41,3.21,1.41,5.62s-.47,4.29-1.41,5.62c-.94,1.34-2.27,2-3.98,2Zm0-1.48c1.13,0,1.99-.52,2.57-1.57.58-1.05.87-2.57.87-4.58s-.29-3.54-.87-4.58-1.44-1.57-2.57-1.57-1.99.52-2.57,1.57c-.58,1.05-.87,2.57-.87,4.58s.29,3.54.87,4.58c.58,1.04,1.44,1.57,2.57,1.57Z"/>
    <path class="cls-1" d="m1821.83,79.08v-11.76c-.54.46-1.05.86-1.52,1.17-.47.32-1,.59-1.58.8v-1.74c.3-.14.62-.32.95-.54.33-.22.72-.53,1.14-.95.43-.42.92-1,1.48-1.75h1.32v14.77h-1.8Z"/>
    <path class="cls-1" d="m1735.32,104.28v-11.76c-.54.47-1.05.86-1.52,1.17-.47.32-1,.59-1.58.8v-1.74c.3-.14.62-.32.95-.54.33-.22.72-.53,1.14-.95.43-.42.92-1,1.48-1.75h1.32v14.77h-1.8Z"/>
    <path class="cls-1" d="m1747.86,104.28v-11.76c-.54.47-1.05.86-1.52,1.17-.47.32-1,.59-1.58.8v-1.74c.3-.14.62-.32.95-.54.33-.22.72-.53,1.14-.95.43-.42.92-1,1.48-1.75h1.32v14.77h-1.8Z"/>
    <path class="cls-1" d="m1763.1,104.53c-1.71,0-3.04-.67-3.98-2-.94-1.34-1.42-3.21-1.42-5.62s.47-4.29,1.42-5.62c.94-1.34,2.27-2,3.98-2s3.04.67,3.98,2c.94,1.34,1.41,3.21,1.41,5.62s-.47,4.29-1.41,5.62c-.94,1.34-2.27,2-3.98,2Zm0-1.48c1.13,0,1.99-.52,2.57-1.57.58-1.05.87-2.57.87-4.58s-.29-3.54-.87-4.58c-.58-1.04-1.44-1.57-2.57-1.57s-1.99.52-2.57,1.57c-.58,1.05-.87,2.57-.87,4.58s.29,3.54.87,4.58c.58,1.04,1.44,1.57,2.57,1.57Z"/>
    <path class="cls-1" d="m1778.57,104.28v-11.76c-.54.47-1.05.86-1.52,1.17-.47.32-1,.59-1.58.8v-1.74c.3-.14.62-.32.95-.54.33-.22.72-.53,1.14-.95.43-.42.92-1,1.48-1.75h1.32v14.77h-1.8Z"/>
    <path class="cls-1" d="m1793.81,104.53c-1.71,0-3.04-.67-3.98-2-.94-1.34-1.42-3.21-1.42-5.62s.47-4.29,1.42-5.62c.94-1.34,2.27-2,3.98-2s3.04.67,3.98,2c.94,1.34,1.41,3.21,1.41,5.62s-.47,4.29-1.41,5.62c-.94,1.34-2.27,2-3.98,2Zm0-1.48c1.13,0,1.99-.52,2.57-1.57.58-1.05.87-2.57.87-4.58s-.29-3.54-.87-4.58c-.58-1.04-1.44-1.57-2.57-1.57s-1.99.52-2.57,1.57c-.58,1.05-.87,2.57-.87,4.58s.29,3.54.87,4.58c.58,1.04,1.44,1.57,2.57,1.57Z"/>
    <path class="cls-1" d="m1811.98,104.53c-1.71,0-3.04-.67-3.98-2-.94-1.34-1.42-3.21-1.42-5.62s.47-4.29,1.42-5.62c.94-1.34,2.27-2,3.98-2s3.04.67,3.98,2c.94,1.34,1.41,3.21,1.41,5.62s-.47,4.29-1.41,5.62c-.94,1.34-2.27,2-3.98,2Zm0-1.48c1.13,0,1.99-.52,2.57-1.57.58-1.05.87-2.57.87-4.58s-.29-3.54-.87-4.58c-.58-1.04-1.44-1.57-2.57-1.57s-1.99.52-2.57,1.57c-.58,1.05-.87,2.57-.87,4.58s.29,3.54.87,4.58c.58,1.04,1.44,1.57,2.57,1.57Z"/>
    <path class="cls-1" d="m1827.46,104.28v-11.76c-.54.47-1.05.86-1.52,1.17-.47.32-1,.59-1.58.8v-1.74c.3-.14.62-.32.95-.54.33-.22.72-.53,1.14-.95.43-.42.92-1,1.48-1.75h1.32v14.77h-1.8Z"/>
    <path class="cls-1" d="m1738.02,129.73c-1.71,0-3.04-.67-3.98-2-.94-1.34-1.42-3.21-1.42-5.62s.47-4.29,1.42-5.62c.94-1.34,2.27-2,3.98-2s3.04.67,3.98,2c.94,1.34,1.41,3.21,1.41,5.62s-.47,4.29-1.41,5.62c-.94,1.34-2.27,2-3.98,2Zm0-1.48c1.13,0,1.99-.52,2.57-1.57.58-1.05.87-2.57.87-4.58s-.29-3.54-.87-4.58c-.58-1.04-1.44-1.57-2.57-1.57s-1.99.52-2.57,1.57c-.58,1.05-.87,2.57-.87,4.58s.29,3.54.87,4.58c.58,1.04,1.44,1.57,2.57,1.57Z"/>
    <path class="cls-1" d="m1753.49,129.48v-11.76c-.54.47-1.05.86-1.52,1.17-.47.32-1,.59-1.58.8v-1.74c.3-.14.62-.32.95-.54.33-.22.72-.53,1.14-.95.43-.42.92-1,1.48-1.75h1.32v14.77h-1.8Z"/>
    <path class="cls-1" d="m1768.73,129.73c-1.71,0-3.04-.67-3.98-2-.94-1.34-1.42-3.21-1.42-5.62s.47-4.29,1.42-5.62c.94-1.34,2.27-2,3.98-2s3.04.67,3.98,2c.94,1.34,1.41,3.21,1.41,5.62s-.47,4.29-1.41,5.62c-.94,1.34-2.27,2-3.98,2Zm0-1.48c1.13,0,1.99-.52,2.57-1.57.58-1.05.87-2.57.87-4.58s-.29-3.54-.87-4.58c-.58-1.04-1.44-1.57-2.57-1.57s-1.99.52-2.57,1.57c-.58,1.05-.87,2.57-.87,4.58s.29,3.54.87,4.58c.58,1.04,1.44,1.57,2.57,1.57Z"/>
    <path class="cls-1" d="m1786.9,129.73c-1.71,0-3.04-.67-3.98-2-.94-1.34-1.42-3.21-1.42-5.62s.47-4.29,1.42-5.62c.94-1.34,2.27-2,3.98-2s3.04.67,3.98,2c.94,1.34,1.41,3.21,1.41,5.62s-.47,4.29-1.41,5.62c-.94,1.34-2.27,2-3.98,2Zm0-1.48c1.13,0,1.99-.52,2.57-1.57.58-1.05.87-2.57.87-4.58s-.29-3.54-.87-4.58c-.58-1.04-1.44-1.57-2.57-1.57s-1.99.52-2.57,1.57c-.58,1.05-.87,2.57-.87,4.58s.29,3.54.87,4.58c.58,1.04,1.44,1.57,2.57,1.57Z"/>
    <path class="cls-1" d="m1802.37,129.48v-11.76c-.54.47-1.05.86-1.52,1.17-.47.32-1,.59-1.58.8v-1.74c.3-.14.62-.32.95-.54.33-.22.72-.53,1.14-.95.43-.42.92-1,1.48-1.75h1.32v14.77h-1.8Z"/>
    <path class="cls-1" d="m1814.91,129.48v-11.76c-.54.47-1.05.86-1.52,1.17-.47.32-1,.59-1.58.8v-1.74c.3-.14.62-.32.95-.54.33-.22.72-.53,1.14-.95.43-.42.92-1,1.48-1.75h1.32v14.77h-1.8Z"/>
    <path class="cls-1" d="m1738.02,154.93c-1.71,0-3.04-.67-3.98-2-.94-1.34-1.42-3.21-1.42-5.62s.47-4.29,1.42-5.62c.94-1.34,2.27-2.01,3.98-2.01s3.04.67,3.98,2.01c.94,1.34,1.41,3.21,1.41,5.62s-.47,4.29-1.41,5.62c-.94,1.34-2.27,2-3.98,2Zm0-1.48c1.13,0,1.99-.52,2.57-1.57.58-1.05.87-2.57.87-4.58s-.29-3.54-.87-4.58c-.58-1.04-1.44-1.57-2.57-1.57s-1.99.52-2.57,1.57c-.58,1.05-.87,2.57-.87,4.58s.29,3.54.87,4.58c.58,1.04,1.44,1.57,2.57,1.57Z"/>
    <path class="cls-1" d="m1756.19,154.93c-1.71,0-3.04-.67-3.98-2-.94-1.34-1.42-3.21-1.42-5.62s.47-4.29,1.42-5.62c.94-1.34,2.27-2.01,3.98-2.01s3.04.67,3.98,2.01c.94,1.34,1.41,3.21,1.41,5.62s-.47,4.29-1.41,5.62c-.94,1.34-2.27,2-3.98,2Zm0-1.48c1.13,0,1.99-.52,2.57-1.57.58-1.05.87-2.57.87-4.58s-.29-3.54-.87-4.58c-.58-1.04-1.44-1.57-2.57-1.57s-1.99.52-2.57,1.57c-.58,1.05-.87,2.57-.87,4.58s.29,3.54.87,4.58c.58,1.04,1.44,1.57,2.57,1.57Z"/>
    <path class="cls-1" d="m1774.36,154.93c-1.71,0-3.04-.67-3.98-2-.94-1.34-1.42-3.21-1.42-5.62s.47-4.29,1.42-5.62c.94-1.34,2.27-2.01,3.98-2.01s3.04.67,3.98,2.01c.94,1.34,1.41,3.21,1.41,5.62s-.47,4.29-1.41,5.62c-.94,1.34-2.27,2-3.98,2Zm0-1.48c1.13,0,1.99-.52,2.57-1.57.58-1.05.87-2.57.87-4.58s-.29-3.54-.87-4.58c-.58-1.04-1.44-1.57-2.57-1.57s-1.99.52-2.57,1.57c-.58,1.05-.87,2.57-.87,4.58s.29,3.54.87,4.58c.58,1.04,1.44,1.57,2.57,1.57Z"/>
    <path class="cls-1" d="m1789.83,154.68v-11.76c-.54.47-1.05.86-1.52,1.17-.47.32-1,.59-1.58.8v-1.74c.3-.14.62-.32.95-.54.33-.22.72-.53,1.14-.95.43-.42.92-1,1.48-1.75h1.32v14.77h-1.8Z"/>
    <path class="cls-1" d="m1802.37,154.68v-11.76c-.54.47-1.05.86-1.52,1.17-.47.32-1,.59-1.58.8v-1.74c.3-.14.62-.32.95-.54.33-.22.72-.53,1.14-.95.43-.42.92-1,1.48-1.75h1.32v14.77h-1.8Z"/>
    <path class="cls-1" d="m1817.61,154.93c-1.71,0-3.04-.67-3.98-2-.94-1.34-1.42-3.21-1.42-5.62s.47-4.29,1.42-5.62c.94-1.34,2.27-2.01,3.98-2.01s3.04.67,3.98,2.01c.94,1.34,1.41,3.21,1.41,5.62s-.47,4.29-1.41,5.62c-.94,1.34-2.27,2-3.98,2Zm0-1.48c1.13,0,1.99-.52,2.57-1.57.58-1.05.87-2.57.87-4.58s-.29-3.54-.87-4.58c-.58-1.04-1.44-1.57-2.57-1.57s-1.99.52-2.57,1.57c-.58,1.05-.87,2.57-.87,4.58s.29,3.54.87,4.58c.58,1.04,1.44,1.57,2.57,1.57Z"/>
    <path class="cls-1" d="m1738.02,180.13c-1.71,0-3.04-.67-3.98-2-.94-1.34-1.42-3.21-1.42-5.62s.47-4.29,1.42-5.62c.94-1.34,2.27-2,3.98-2s3.04.67,3.98,2c.94,1.34,1.41,3.21,1.41,5.62s-.47,4.29-1.41,5.62c-.94,1.34-2.27,2-3.98,2Zm0-1.48c1.13,0,1.99-.52,2.57-1.57.58-1.05.87-2.57.87-4.58s-.29-3.54-.87-4.58c-.58-1.04-1.44-1.57-2.57-1.57s-1.99.52-2.57,1.57c-.58,1.05-.87,2.57-.87,4.58s.29,3.54.87,4.58c.58,1.04,1.44,1.57,2.57,1.57Z"/>
    <path class="cls-1" d="m1753.49,179.88v-11.76c-.54.47-1.05.86-1.52,1.17-.47.32-1,.59-1.58.8v-1.74c.3-.14.62-.32.95-.54.33-.22.72-.53,1.14-.95.43-.42.92-1,1.48-1.75h1.32v14.77h-1.8Z"/>
    <path class="cls-1" d="m1768.73,180.13c-1.71,0-3.04-.67-3.98-2-.94-1.34-1.42-3.21-1.42-5.62s.47-4.29,1.42-5.62c.94-1.34,2.27-2,3.98-2s3.04.67,3.98,2c.94,1.34,1.41,3.21,1.41,5.62s-.47,4.29-1.41,5.62c-.94,1.34-2.27,2-3.98,2Zm0-1.48c1.13,0,1.99-.52,2.57-1.57.58-1.05.87-2.57.87-4.58s-.29-3.54-.87-4.58c-.58-1.04-1.44-1.57-2.57-1.57s-1.99.52-2.57,1.57c-.58,1.05-.87,2.57-.87,4.58s.29,3.54.87,4.58c.58,1.04,1.44,1.57,2.57,1.57Z"/>
    <path class="cls-1" d="m1786.9,180.13c-1.71,0-3.04-.67-3.98-2-.94-1.34-1.42-3.21-1.42-5.62s.47-4.29,1.42-5.62c.94-1.34,2.27-2,3.98-2s3.04.67,3.98,2c.94,1.34,1.41,3.21,1.41,5.62s-.47,4.29-1.41,5.62c-.94,1.34-2.27,2-3.98,2Zm0-1.48c1.13,0,1.99-.52,2.57-1.57.58-1.05.87-2.57.87-4.58s-.29-3.54-.87-4.58c-.58-1.04-1.44-1.57-2.57-1.57s-1.99.52-2.57,1.57c-.58,1.05-.87,2.57-.87,4.58s.29,3.54.87,4.58c.58,1.04,1.44,1.57,2.57,1.57Z"/>
    <path class="cls-1" d="m1805.07,180.13c-1.71,0-3.04-.67-3.98-2-.94-1.34-1.42-3.21-1.42-5.62s.47-4.29,1.42-5.62c.94-1.34,2.27-2,3.98-2s3.04.67,3.98,2c.94,1.34,1.41,3.21,1.41,5.62s-.47,4.29-1.41,5.62c-.94,1.34-2.27,2-3.98,2Zm0-1.48c1.13,0,1.99-.52,2.57-1.57.58-1.05.87-2.57.87-4.58s-.29-3.54-.87-4.58c-.58-1.04-1.44-1.57-2.57-1.57s-1.99.52-2.57,1.57c-.58,1.05-.87,2.57-.87,4.58s.29,3.54.87,4.58c.58,1.04,1.44,1.57,2.57,1.57Z"/>
    <path class="cls-1" d="m1820.54,179.88v-11.76c-.54.47-1.05.86-1.52,1.17-.47.32-1,.59-1.58.8v-1.74c.3-.14.62-.32.95-.54.33-.22.72-.53,1.14-.95.43-.42.92-1,1.48-1.75h1.32v14.77h-1.8Z"/>
    <path class="cls-1" d="m1735.32,205.08v-11.76c-.54.47-1.05.86-1.52,1.17-.47.32-1,.59-1.58.8v-1.74c.3-.14.62-.32.95-.54.33-.22.72-.53,1.14-.95.43-.42.92-1,1.48-1.75h1.32v14.77h-1.8Z"/>
    <path class="cls-1" d="m1750.56,205.33c-1.71,0-3.04-.67-3.98-2-.94-1.34-1.42-3.21-1.42-5.62s.47-4.29,1.42-5.62c.94-1.34,2.27-2,3.98-2s3.04.67,3.98,2c.94,1.34,1.41,3.21,1.41,5.62s-.47,4.29-1.41,5.62c-.94,1.34-2.27,2-3.98,2Zm0-1.48c1.13,0,1.99-.52,2.57-1.57.58-1.05.87-2.57.87-4.58s-.29-3.54-.87-4.58c-.58-1.04-1.44-1.57-2.57-1.57s-1.99.52-2.57,1.57c-.58,1.05-.87,2.57-.87,4.58s.29,3.54.87,4.58c.58,1.04,1.44,1.57,2.57,1.57Z"/>
    <path class="cls-1" d="m1768.73,205.33c-1.71,0-3.04-.67-3.98-2-.94-1.34-1.42-3.21-1.42-5.62s.47-4.29,1.42-5.62c.94-1.34,2.27-2,3.98-2s3.04.67,3.98,2c.94,1.34,1.41,3.21,1.41,5.62s-.47,4.29-1.41,5.62c-.94,1.34-2.27,2-3.98,2Zm0-1.48c1.13,0,1.99-.52,2.57-1.57.58-1.05.87-2.57.87-4.58s-.29-3.54-.87-4.58c-.58-1.04-1.44-1.57-2.57-1.57s-1.99.52-2.57,1.57c-.58,1.05-.87,2.57-.87,4.58s.29,3.54.87,4.58c.58,1.04,1.44,1.57,2.57,1.57Z"/>
    <path class="cls-1" d="m1784.2,205.08v-11.76c-.54.47-1.05.86-1.52,1.17-.47.32-1,.59-1.58.8v-1.74c.3-.14.62-.32.95-.54.33-.22.72-.53,1.14-.95.43-.42.92-1,1.48-1.75h1.32v14.77h-1.8Z"/>
    <path class="cls-1" d="m1796.74,205.08v-11.76c-.54.47-1.05.86-1.52,1.17-.47.32-1,.59-1.58.8v-1.74c.3-.14.62-.32.95-.54.33-.22.72-.53,1.14-.95.43-.42.92-1,1.48-1.75h1.32v14.77h-1.8Z"/>
    <path class="cls-1" d="m1811.98,205.33c-1.71,0-3.04-.67-3.98-2-.94-1.34-1.42-3.21-1.42-5.62s.47-4.29,1.42-5.62c.94-1.34,2.27-2,3.98-2s3.04.67,3.98,2c.94,1.34,1.41,3.21,1.41,5.62s-.47,4.29-1.41,5.62c-.94,1.34-2.27,2-3.98,2Zm0-1.48c1.13,0,1.99-.52,2.57-1.57.58-1.05.87-2.57.87-4.58s-.29-3.54-.87-4.58c-.58-1.04-1.44-1.57-2.57-1.57s-1.99.52-2.57,1.57c-.58,1.05-.87,2.57-.87,4.58s.29,3.54.87,4.58c.58,1.04,1.44,1.57,2.57,1.57Z"/>
    <path class="cls-1" d="m1827.46,205.08v-11.76c-.54.47-1.05.86-1.52,1.17-.47.32-1,.59-1.58.8v-1.74c.3-.14.62-.32.95-.54.33-.22.72-.53,1.14-.95.43-.42.92-1,1.48-1.75h1.32v14.77h-1.8Z"/>
    <path class="cls-1" d="m1738.02,230.53c-1.71,0-3.04-.67-3.98-2-.94-1.34-1.42-3.21-1.42-5.62s.47-4.29,1.42-5.62c.94-1.34,2.27-2,3.98-2s3.04.67,3.98,2c.94,1.34,1.41,3.21,1.41,5.62s-.47,4.29-1.41,5.62c-.94,1.34-2.27,2-3.98,2Zm0-1.48c1.13,0,1.99-.52,2.57-1.57.58-1.05.87-2.57.87-4.58s-.29-3.54-.87-4.58c-.58-1.04-1.44-1.57-2.57-1.57s-1.99.52-2.57,1.57c-.58,1.05-.87,2.57-.87,4.58s.29,3.54.87,4.58c.58,1.04,1.44,1.57,2.57,1.57Z"/>
    <path class="cls-1" d="m1756.19,230.53c-1.71,0-3.04-.67-3.98-2-.94-1.34-1.42-3.21-1.42-5.62s.47-4.29,1.42-5.62c.94-1.34,2.27-2,3.98-2s3.04.67,3.98,2c.94,1.34,1.41,3.21,1.41,5.62s-.47,4.29-1.41,5.62c-.94,1.34-2.27,2-3.98,2Zm0-1.48c1.13,0,1.99-.52,2.57-1.57.58-1.05.87-2.57.87-4.58s-.29-3.54-.87-4.58c-.58-1.04-1.44-1.57-2.57-1.57s-1.99.52-2.57,1.57c-.58,1.05-.87,2.57-.87,4.58s.29,3.54.87,4.58c.58,1.04,1.44,1.57,2.57,1.57Z"/>
    <path class="cls-1" d="m1774.36,230.53c-1.71,0-3.04-.67-3.98-2-.94-1.34-1.42-3.21-1.42-5.62s.47-4.29,1.42-5.62c.94-1.34,2.27-2,3.98-2s3.04.67,3.98,2c.94,1.34,1.41,3.21,1.41,5.62s-.47,4.29-1.41,5.62c-.94,1.34-2.27,2-3.98,2Zm0-1.48c1.13,0,1.99-.52,2.57-1.57.58-1.05.87-2.57.87-4.58s-.29-3.54-.87-4.58c-.58-1.04-1.44-1.57-2.57-1.57s-1.99.52-2.57,1.57c-.58,1.05-.87,2.57-.87,4.58s.29,3.54.87,4.58c.58,1.04,1.44,1.57,2.57,1.57Z"/>
    <path class="cls-1" d="m1789.83,230.28v-11.76c-.54.47-1.05.86-1.52,1.17-.47.32-1,.59-1.58.8v-1.74c.3-.14.62-.32.95-.54.33-.22.72-.53,1.14-.95.43-.42.92-1,1.48-1.75h1.32v14.77h-1.8Z"/>
    <path class="cls-1" d="m1805.07,230.53c-1.71,0-3.04-.67-3.98-2-.94-1.34-1.42-3.21-1.42-5.62s.47-4.29,1.42-5.62c.94-1.34,2.27-2,3.98-2s3.04.67,3.98,2c.94,1.34,1.41,3.21,1.41,5.62s-.47,4.29-1.41,5.62c-.94,1.34-2.27,2-3.98,2Zm0-1.48c1.13,0,1.99-.52,2.57-1.57.58-1.05.87-2.57.87-4.58s-.29-3.54-.87-4.58c-.58-1.04-1.44-1.57-2.57-1.57s-1.99.52-2.57,1.57c-.58,1.05-.87,2.57-.87,4.58s.29,3.54.87,4.58c.58,1.04,1.44,1.57,2.57,1.57Z"/>
    <path class="cls-1" d="m1820.54,230.28v-11.76c-.54.47-1.05.86-1.52,1.17-.47.32-1,.59-1.58.8v-1.74c.3-.14.62-.32.95-.54.33-.22.72-.53,1.14-.95.43-.42.92-1,1.48-1.75h1.32v14.77h-1.8Z"/>
    <path class="cls-1" d="m1735.32,255.48v-11.76c-.54.47-1.05.86-1.52,1.17-.47.32-1,.59-1.58.8v-1.74c.3-.14.62-.32.95-.54.33-.22.72-.53,1.14-.95.43-.42.92-1,1.48-1.75h1.32v14.77h-1.8Z"/>
    <path class="cls-1" d="m1750.56,255.73c-1.71,0-3.04-.67-3.98-2-.94-1.34-1.42-3.21-1.42-5.62s.47-4.29,1.42-5.62c.94-1.34,2.27-2,3.98-2s3.04.67,3.98,2c.94,1.34,1.41,3.21,1.41,5.62s-.47,4.29-1.41,5.62c-.94,1.34-2.27,2-3.98,2Zm0-1.48c1.13,0,1.99-.52,2.57-1.57.58-1.05.87-2.57.87-4.58s-.29-3.54-.87-4.58c-.58-1.04-1.44-1.57-2.57-1.57s-1.99.52-2.57,1.57c-.58,1.05-.87,2.57-.87,4.58s.29,3.54.87,4.58c.58,1.04,1.44,1.57,2.57,1.57Z"/>
    <path class="cls-1" d="m1766.03,255.48v-11.76c-.54.47-1.05.86-1.52,1.17-.47.32-1,.59-1.58.8v-1.74c.3-.14.62-.32.95-.54.33-.22.72-.53,1.14-.95.43-.42.92-1,1.48-1.75h1.32v14.77h-1.8Z"/>
    <path class="cls-1" d="m1781.27,255.73c-1.71,0-3.04-.67-3.98-2-.94-1.34-1.42-3.21-1.42-5.62s.47-4.29,1.42-5.62c.94-1.34,2.27-2,3.98-2s3.04.67,3.98,2c.94,1.34,1.41,3.21,1.41,5.62s-.47,4.29-1.41,5.62c-.94,1.34-2.27,2-3.98,2Zm0-1.48c1.13,0,1.99-.52,2.57-1.57.58-1.05.87-2.57.87-4.58s-.29-3.54-.87-4.58c-.58-1.04-1.44-1.57-2.57-1.57s-1.99.52-2.57,1.57c-.58,1.05-.87,2.57-.87,4.58s.29,3.54.87,4.58c.58,1.04,1.44,1.57,2.57,1.57Z"/>
    <path class="cls-1" d="m1799.44,255.73c-1.71,0-3.04-.67-3.98-2-.94-1.34-1.42-3.21-1.42-5.62s.47-4.29,1.42-5.62c.94-1.34,2.27-2,3.98-2s3.04.67,3.98,2c.94,1.34,1.41,3.21,1.41,5.62s-.47,4.29-1.41,5.62c-.94,1.34-2.27,2-3.98,2Zm0-1.48c1.13,0,1.99-.52,2.57-1.57.58-1.05.87-2.57.87-4.58s-.29-3.54-.87-4.58c-.58-1.04-1.44-1.57-2.57-1.57s-1.99.52-2.57,1.57c-.58,1.05-.87,2.57-.87,4.58s.29,3.54.87,4.58c.58,1.04,1.44,1.57,2.57,1.57Z"/>
    <path class="cls-1" d="m1817.61,255.73c-1.71,0-3.04-.67-3.98-2-.94-1.34-1.42-3.21-1.42-5.62s.47-4.29,1.42-5.62c.94-1.34,2.27-2,3.98-2s3.04.67,3.98,2c.94,1.34,1.41,3.21,1.41,5.62s-.47,4.29-1.41,5.62c-.94,1.34-2.27,2-3.98,2Zm0-1.48c1.13,0,1.99-.52,2.57-1.57.58-1.05.87-2.57.87-4.58s-.29-3.54-.87-4.58c-.58-1.04-1.44-1.57-2.57-1.57s-1.99.52-2.57,1.57c-.58,1.05-.87,2.57-.87,4.58s.29,3.54.87,4.58c.58,1.04,1.44,1.57,2.57,1.57Z"/>
    <path class="cls-1" d="m1735.32,280.68v-11.76c-.54.47-1.05.86-1.52,1.17-.47.32-1,.59-1.58.8v-1.74c.3-.14.62-.32.95-.54.33-.22.72-.53,1.14-.95.43-.42.92-1,1.48-1.75h1.32v14.77h-1.8Z"/>
    <path class="cls-1" d="m1747.86,280.68v-11.76c-.54.47-1.05.86-1.52,1.17-.47.32-1,.59-1.58.8v-1.74c.3-.14.62-.32.95-.54.33-.22.72-.53,1.14-.95.43-.42.92-1,1.48-1.75h1.32v14.77h-1.8Z"/>
    <path class="cls-1" d="m1760.4,280.68v-11.76c-.54.47-1.05.86-1.52,1.17-.47.32-1,.59-1.58.8v-1.74c.3-.14.62-.32.95-.54.33-.22.72-.53,1.14-.95.43-.42.92-1,1.48-1.75h1.32v14.77h-1.8Z"/>
    <path class="cls-1" d="m1775.64,280.93c-1.71,0-3.04-.67-3.98-2-.94-1.34-1.42-3.21-1.42-5.62s.47-4.29,1.42-5.62c.94-1.34,2.27-2,3.98-2s3.04.67,3.98,2c.94,1.34,1.41,3.21,1.41,5.62s-.47,4.29-1.41,5.62c-.94,1.34-2.27,2-3.98,2Zm0-1.48c1.13,0,1.99-.52,2.57-1.57.58-1.05.87-2.57.87-4.58s-.29-3.54-.87-4.58c-.58-1.04-1.44-1.57-2.57-1.57s-1.99.52-2.57,1.57c-.58,1.05-.87,2.57-.87,4.58s.29,3.54.87,4.58c.58,1.04,1.44,1.57,2.57,1.57Z"/>
    <path class="cls-1" d="m1793.81,280.93c-1.71,0-3.04-.67-3.98-2-.94-1.34-1.42-3.21-1.42-5.62s.47-4.29,1.42-5.62c.94-1.34,2.27-2,3.98-2s3.04.67,3.98,2c.94,1.34,1.41,3.21,1.41,5.62s-.47,4.29-1.41,5.62c-.94,1.34-2.27,2-3.98,2Zm0-1.48c1.13,0,1.99-.52,2.57-1.57.58-1.05.87-2.57.87-4.58s-.29-3.54-.87-4.58c-.58-1.04-1.44-1.57-2.57-1.57s-1.99.52-2.57,1.57c-.58,1.05-.87,2.57-.87,4.58s.29,3.54.87,4.58c.58,1.04,1.44,1.57,2.57,1.57Z"/>
    <path class="cls-1" d="m1811.98,280.93c-1.71,0-3.04-.67-3.98-2-.94-1.34-1.42-3.21-1.42-5.62s.47-4.29,1.42-5.62c.94-1.34,2.27-2,3.98-2s3.04.67,3.98,2c.94,1.34,1.41,3.21,1.41,5.62s-.47,4.29-1.41,5.62c-.94,1.34-2.27,2-3.98,2Zm0-1.48c1.13,0,1.99-.52,2.57-1.57.58-1.05.87-2.57.87-4.58s-.29-3.54-.87-4.58c-.58-1.04-1.44-1.57-2.57-1.57s-1.99.52-2.57,1.57c-.58,1.05-.87,2.57-.87,4.58s.29,3.54.87,4.58c.58,1.04,1.44,1.57,2.57,1.57Z"/>
    <path class="cls-1" d="m1738.02,306.13c-1.71,0-3.04-.67-3.98-2-.94-1.34-1.42-3.21-1.42-5.62s.47-4.29,1.42-5.62c.94-1.34,2.27-2,3.98-2s3.04.67,3.98,2c.94,1.34,1.41,3.21,1.41,5.62s-.47,4.29-1.41,5.62c-.94,1.34-2.27,2-3.98,2Zm0-1.48c1.13,0,1.99-.52,2.57-1.57.58-1.05.87-2.57.87-4.58s-.29-3.54-.87-4.58c-.58-1.04-1.44-1.57-2.57-1.57s-1.99.52-2.57,1.57c-.58,1.05-.87,2.57-.87,4.58s.29,3.54.87,4.58c.58,1.04,1.44,1.57,2.57,1.57Z"/>
    <path class="cls-1" d="m1756.19,306.13c-1.71,0-3.04-.67-3.98-2-.94-1.34-1.42-3.21-1.42-5.62s.47-4.29,1.42-5.62c.94-1.34,2.27-2,3.98-2s3.04.67,3.98,2c.94,1.34,1.41,3.21,1.41,5.62s-.47,4.29-1.41,5.62c-.94,1.34-2.27,2-3.98,2Zm0-1.48c1.13,0,1.99-.52,2.57-1.57.58-1.05.87-2.57.87-4.58s-.29-3.54-.87-4.58c-.58-1.04-1.44-1.57-2.57-1.57s-1.99.52-2.57,1.57c-.58,1.05-.87,2.57-.87,4.58s.29,3.54.87,4.58c.58,1.04,1.44,1.57,2.57,1.57Z"/>
    <path class="cls-1" d="m1771.66,305.88v-11.76c-.54.47-1.05.86-1.52,1.17-.47.32-1,.59-1.58.8v-1.74c.3-.14.62-.32.95-.54.33-.22.72-.53,1.14-.95.43-.42.92-1,1.48-1.75h1.32v14.77h-1.8Z"/>
    <path class="cls-1" d="m1786.9,306.13c-1.71,0-3.04-.67-3.98-2-.94-1.34-1.42-3.21-1.42-5.62s.47-4.29,1.42-5.62c.94-1.34,2.27-2,3.98-2s3.04.67,3.98,2c.94,1.34,1.41,3.21,1.41,5.62s-.47,4.29-1.41,5.62c-.94,1.34-2.27,2-3.98,2Zm0-1.48c1.13,0,1.99-.52,2.57-1.57.58-1.05.87-2.57.87-4.58s-.29-3.54-.87-4.58c-.58-1.04-1.44-1.57-2.57-1.57s-1.99.52-2.57,1.57c-.58,1.05-.87,2.57-.87,4.58s.29,3.54.87,4.58c.58,1.04,1.44,1.57,2.57,1.57Z"/>
    <path class="cls-1" d="m1802.37,305.88v-11.76c-.54.47-1.05.86-1.52,1.17-.47.32-1,.59-1.58.8v-1.74c.3-.14.62-.32.95-.54.33-.22.72-.53,1.14-.95.43-.42.92-1,1.48-1.75h1.32v14.77h-1.8Z"/>
    <path class="cls-1" d="m1814.91,305.88v-11.76c-.54.47-1.05.86-1.52,1.17-.47.32-1,.59-1.58.8v-1.74c.3-.14.62-.32.95-.54.33-.22.72-.53,1.14-.95.43-.42.92-1,1.48-1.75h1.32v14.77h-1.8Z"/>
    <path class="cls-1" d="m1827.46,305.88v-11.76c-.54.47-1.05.86-1.52,1.17-.47.32-1,.59-1.58.8v-1.74c.3-.14.62-.32.95-.54.33-.22.72-.53,1.14-.95.43-.42.92-1,1.48-1.75h1.32v14.77h-1.8Z"/>
    <path class="cls-1" d="m1735.32,331.08v-11.76c-.54.47-1.05.86-1.52,1.17-.47.32-1,.59-1.58.8v-1.74c.3-.14.62-.32.95-.54.33-.22.72-.53,1.14-.95.43-.42.92-1,1.48-1.75h1.32v14.77h-1.8Z"/>
    <path class="cls-1" d="m1747.86,331.08v-11.76c-.54.47-1.05.86-1.52,1.17-.47.32-1,.59-1.58.8v-1.74c.3-.14.62-.32.95-.54.33-.22.72-.53,1.14-.95.43-.42.92-1,1.48-1.75h1.32v14.77h-1.8Z"/>
    <path class="cls-1" d="m1760.4,331.08v-11.76c-.54.47-1.05.86-1.52,1.17-.47.32-1,.59-1.58.8v-1.74c.3-.14.62-.32.95-.54.33-.22.72-.53,1.14-.95.43-.42.92-1,1.48-1.75h1.32v14.77h-1.8Z"/>
    <path class="cls-1" d="m1775.64,331.33c-1.71,0-3.04-.67-3.98-2-.94-1.34-1.42-3.21-1.42-5.62s.47-4.29,1.42-5.62c.94-1.34,2.27-2,3.98-2s3.04.67,3.98,2c.94,1.34,1.41,3.21,1.41,5.62s-.47,4.29-1.41,5.62c-.94,1.34-2.27,2-3.98,2Zm0-1.48c1.13,0,1.99-.52,2.57-1.57.58-1.05.87-2.57.87-4.58s-.29-3.54-.87-4.58c-.58-1.04-1.44-1.57-2.57-1.57s-1.99.52-2.57,1.57c-.58,1.05-.87,2.57-.87,4.58s.29,3.54.87,4.58c.58,1.04,1.44,1.57,2.57,1.57Z"/>
    <path class="cls-1" d="m1791.12,331.08v-11.76c-.54.47-1.05.86-1.52,1.17-.47.32-1,.59-1.58.8v-1.74c.3-.14.62-.32.95-.54.33-.22.72-.53,1.14-.95.43-.42.92-1,1.48-1.75h1.32v14.77h-1.8Z"/>
    <path class="cls-1" d="m1803.66,331.08v-11.76c-.54.47-1.05.86-1.52,1.17-.47.32-1,.59-1.58.8v-1.74c.3-.14.62-.32.95-.54.33-.22.72-.53,1.14-.95.43-.42.92-1,1.48-1.75h1.32v14.77h-1.8Z"/>
    <path class="cls-1" d="m1818.89,331.33c-1.71,0-3.04-.67-3.98-2-.94-1.34-1.42-3.21-1.42-5.62s.47-4.29,1.42-5.62c.94-1.34,2.27-2,3.98-2s3.04.67,3.98,2c.94,1.34,1.41,3.21,1.41,5.62s-.47,4.29-1.41,5.62c-.94,1.34-2.27,2-3.98,2Zm0-1.48c1.13,0,1.99-.52,2.57-1.57.58-1.05.87-2.57.87-4.58s-.29-3.54-.87-4.58c-.58-1.04-1.44-1.57-2.57-1.57s-1.99.52-2.57,1.57c-.58,1.05-.87,2.57-.87,4.58s.29,3.54.87,4.58c.58,1.04,1.44,1.57,2.57,1.57Z"/>
  </g>
  <rect class="cls-6" x="1728" y="7.2" width="108" height="338.4"/>
  <rect class="cls-6" x="1080" y="104.4" width="216" height="144"/>
</svg>