<?xml version="1.0" encoding="utf-8"?>
<!-- Generator: Adobe Illustrator 27.4.1, SVG Export Plug-In . SVG Version: 6.00 Build 0)  -->
<svg version="1.1" id="Template" xmlns="http://www.w3.org/2000/svg" xmlns:xlink="http://www.w3.org/1999/xlink" x="0px" y="0px"
	 viewBox="0 0 1048.6 274" style="enable-background:new 0 0 1048.6 274;" xml:space="preserve">
<style type="text/css">
	.st0{fill:none;stroke:#307EEF;stroke-width:4.11;stroke-miterlimit:10;}
	.st1{fill:#C9D1D9;}
	.st2{fill:none;stroke:#C9D1D9;stroke-width:2;stroke-miterlimit:10;}
</style>
<g>
	<path class="st0" d="M184.6,238.2c0.1-0.1,0.1-0.1,0.1-0.1l16.9-10.6l9-5.3l7.6-4l6.7-3.2l6.1-2.5l5.5-1.9l5.2-1.5l5-1.1l4.4-0.7
		l4.1-0.5l3.8-0.2l3.5-0.1l3.5,0.1l3.5,0.3l3.8,0.5l4.1,0.7l4.4,1l5,1.4l5.5,1.9l5.8,2.3l6.1,2.8l7,3.6l7.9,4.4l9.6,5.9
		c0,0,5.6,3.6,10.9,7"/>
	<path class="st0" d="M339.4,238.2c0.1,0.1,0.1,0.1,0.1,0.1l16.9,10.6l9,5.3l7.6,4l6.7,3.1l6.1,2.5l5.5,1.9l5.2,1.5l5,1.1l4.4,0.7
		l4.1,0.5l3.8,0.2l3.5,0.1l3.5-0.1l3.5-0.3l3.8-0.5l4.1-0.7l4.4-1l5-1.4l5.5-1.9l5.8-2.3l6.1-2.8l7-3.6l7.9-4.4l9.6-5.9
		c0,0,5.6-3.6,10.9-7"/>
</g>
<g>
	<path class="st0" d="M494.2,238.2c0.1-0.1,0.1-0.1,0.1-0.1l16.9-10.6l9-5.3l7.6-4l6.7-3.2l6.1-2.5l5.5-1.9l5.2-1.5l5-1.1l4.4-0.7
		l4.1-0.5l3.8-0.2l3.5-0.1l3.5,0.1l3.5,0.3l3.8,0.5l4.1,0.7l4.4,1l5,1.4l5.5,1.9l5.8,2.3l6.1,2.8l7,3.6l7.9,4.4l9.6,5.9
		c0,0,5.6,3.6,10.9,7"/>
	<path class="st0" d="M649,238.2c0.1,0.1,0.1,0.1,0.1,0.1l16.9,10.6l9,5.3l7.6,4l6.7,3.1l6.1,2.5l5.5,1.9l5.2,1.5l5,1.1l4.4,0.7
		l4.1,0.5l3.8,0.2l3.5,0.1l3.5-0.1l3.5-0.3l3.8-0.5l4.1-0.7l4.4-1l5-1.4l5.5-1.9l5.8-2.3l6.1-2.8l7-3.6l7.9-4.4l9.6-5.9
		c0,0,5.6-3.6,10.9-7"/>
</g>
<g>
	<g>
		<ellipse class="st1" cx="178.5" cy="86.8" rx="0.1" ry="0"/>
		<polygon class="st1" points="178.5,87.6 177.5,87.6 177.4,86.8 177.4,86 179.5,86 179.6,86.8 179.6,87.6 		"/>
	</g>
	<g>
		<ellipse class="st1" cx="178.5" cy="93.8" rx="0.1" ry="0"/>
		<polygon class="st1" points="178.5,94.7 177.5,94.7 177.4,93.8 177.4,93 179.5,93 179.6,93.8 179.6,94.7 		"/>
	</g>
	<g>
		<ellipse class="st1" cx="178.5" cy="100.9" rx="0.1" ry="0"/>
		<polygon class="st1" points="178.5,101.7 177.5,101.7 177.4,100.9 177.4,100.1 179.5,100 179.6,100.9 179.6,101.7 		"/>
	</g>
	<g>
		<ellipse class="st1" cx="178.5" cy="107.9" rx="0.1" ry="0"/>
		<polygon class="st1" points="178.5,108.7 177.5,108.7 177.4,107.9 177.4,107.1 179.5,107.1 179.6,107.9 179.6,108.7 		"/>
	</g>
	<g>
		<ellipse class="st1" cx="178.5" cy="114.9" rx="0.1" ry="0"/>
		<polygon class="st1" points="178.5,115.7 177.5,115.7 177.4,114.9 177.4,114.1 179.5,114.1 179.6,114.9 179.6,115.7 		"/>
	</g>
	<g>
		<ellipse class="st1" cx="178.5" cy="121.9" rx="0.1" ry="0"/>
		<polygon class="st1" points="178.5,122.8 177.5,122.8 177.4,121.9 177.4,121.1 179.5,121.1 179.6,121.9 179.6,122.7 		"/>
	</g>
	<g>
		<ellipse class="st1" cx="178.5" cy="129" rx="0.1" ry="0"/>
		<polygon class="st1" points="178.5,129.8 177.5,129.8 177.4,129 177.4,128.1 179.5,128.1 179.6,129 179.6,129.8 		"/>
	</g>
	<g>
		<ellipse class="st1" cx="178.5" cy="136" rx="0.1" ry="0"/>
		<polygon class="st1" points="178.5,136.8 177.5,136.8 177.4,136 177.4,135.2 179.5,135.2 179.6,136 179.6,136.8 		"/>
	</g>
	<g>
		<ellipse class="st1" cx="178.5" cy="143" rx="0.1" ry="0"/>
		<polygon class="st1" points="178.5,143.8 177.5,143.8 177.4,143 177.4,142.2 179.5,142.2 179.6,143 179.6,143.8 		"/>
	</g>
	<g>
		<ellipse class="st1" cx="178.5" cy="150" rx="0.1" ry="0"/>
		<polygon class="st1" points="178.5,150.8 177.5,150.8 177.4,150 177.4,149.2 179.5,149.2 179.6,150 179.6,150.8 		"/>
	</g>
	<g>
		<ellipse class="st1" cx="178.5" cy="157" rx="0.1" ry="0"/>
		<polygon class="st1" points="178.5,157.9 177.5,157.9 177.4,157 177.4,156.2 179.5,156.2 179.6,157 179.6,157.8 		"/>
	</g>
	<g>
		<ellipse class="st1" cx="178.5" cy="164.1" rx="0.1" ry="0"/>
		<polygon class="st1" points="178.5,164.9 177.5,164.9 177.4,164.1 177.4,163.3 179.5,163.2 179.6,164.1 179.6,164.9 		"/>
	</g>
</g>
<g>
	<ellipse class="st1" cx="203.7" cy="86.8" rx="0.1" ry="0"/>
	<polygon class="st1" points="203.7,87.6 202.7,87.6 202.6,86.8 202.6,86 204.7,86 204.7,86.8 204.7,87.6 	"/>
</g>
<g>
	<ellipse class="st1" cx="203.7" cy="93.8" rx="0.1" ry="0"/>
	<polygon class="st1" points="203.7,94.7 202.7,94.7 202.6,93.8 202.6,93 204.7,93 204.7,93.8 204.7,94.7 	"/>
</g>
<g>
	<ellipse class="st1" cx="203.7" cy="100.9" rx="0.1" ry="0"/>
	<polygon class="st1" points="203.7,101.7 202.7,101.7 202.6,100.9 202.6,100.1 204.7,100 204.7,100.9 204.7,101.7 	"/>
</g>
<g>
	<ellipse class="st1" cx="203.7" cy="107.9" rx="0.1" ry="0"/>
	<polygon class="st1" points="203.7,108.7 202.7,108.7 202.6,107.9 202.6,107.1 204.7,107.1 204.7,107.9 204.7,108.7 	"/>
</g>
<g>
	<ellipse class="st1" cx="203.7" cy="114.9" rx="0.1" ry="0"/>
	<polygon class="st1" points="203.7,115.7 202.7,115.7 202.6,114.9 202.6,114.1 204.7,114.1 204.7,114.9 204.7,115.7 	"/>
</g>
<g>
	<ellipse class="st1" cx="203.7" cy="121.9" rx="0.1" ry="0"/>
	<polygon class="st1" points="203.7,122.8 202.7,122.8 202.6,121.9 202.6,121.1 204.7,121.1 204.7,121.9 204.7,122.7 	"/>
</g>
<g>
	<ellipse class="st1" cx="203.7" cy="129" rx="0.1" ry="0"/>
	<polygon class="st1" points="203.7,129.8 202.7,129.8 202.6,129 202.6,128.1 204.7,128.1 204.7,129 204.7,129.8 	"/>
</g>
<g>
	<ellipse class="st1" cx="203.7" cy="136" rx="0.1" ry="0"/>
	<polygon class="st1" points="203.7,136.8 202.7,136.8 202.6,136 202.6,135.2 204.7,135.2 204.7,136 204.7,136.8 	"/>
</g>
<g>
	<ellipse class="st1" cx="203.7" cy="143" rx="0.1" ry="0"/>
	<polygon class="st1" points="203.7,143.8 202.7,143.8 202.6,143 202.6,142.2 204.7,142.2 204.7,143 204.7,143.8 	"/>
</g>
<g>
	<ellipse class="st1" cx="203.7" cy="150" rx="0.1" ry="0"/>
	<polygon class="st1" points="203.7,150.8 202.7,150.8 202.6,150 202.6,149.2 204.7,149.2 204.7,150 204.7,150.8 	"/>
</g>
<g>
	<ellipse class="st1" cx="203.7" cy="157" rx="0.1" ry="0"/>
	<polygon class="st1" points="203.7,157.9 202.7,157.9 202.6,157 202.6,156.2 204.7,156.2 204.7,157 204.7,157.8 	"/>
</g>
<g>
	<ellipse class="st1" cx="203.7" cy="164.1" rx="0.1" ry="0"/>
	<polygon class="st1" points="203.7,164.9 202.7,164.9 202.6,164.1 202.6,163.3 204.7,163.2 204.7,164.1 204.7,164.9 	"/>
</g>
<g>
	<ellipse class="st1" cx="224.6" cy="86.8" rx="0" ry="0"/>
	<polygon class="st1" points="224.6,87.6 223.6,87.6 223.6,86.8 223.6,86 225.7,86 225.7,86.8 225.7,87.6 	"/>
</g>
<g>
	<ellipse class="st1" cx="224.6" cy="93.8" rx="0" ry="0"/>
	<polygon class="st1" points="224.6,94.7 223.6,94.7 223.6,93.8 223.6,93 225.7,93 225.7,93.8 225.7,94.7 	"/>
</g>
<g>
	<ellipse class="st1" cx="224.6" cy="100.9" rx="0" ry="0"/>
	<polygon class="st1" points="224.6,101.7 223.6,101.7 223.6,100.9 223.6,100.1 225.7,100 225.7,100.9 225.7,101.7 	"/>
</g>
<g>
	<ellipse class="st1" cx="224.6" cy="107.9" rx="0" ry="0"/>
	<polygon class="st1" points="224.6,108.7 223.6,108.7 223.6,107.9 223.6,107.1 225.7,107.1 225.7,107.9 225.7,108.7 	"/>
</g>
<g>
	<ellipse class="st1" cx="224.6" cy="114.9" rx="0" ry="0"/>
	<polygon class="st1" points="224.6,115.7 223.6,115.7 223.6,114.9 223.6,114.1 225.7,114.1 225.7,114.9 225.7,115.7 	"/>
</g>
<g>
	<ellipse class="st1" cx="224.6" cy="121.9" rx="0" ry="0"/>
	<polygon class="st1" points="224.6,122.8 223.6,122.8 223.6,121.9 223.6,121.1 225.7,121.1 225.7,121.9 225.7,122.7 	"/>
</g>
<g>
	<ellipse class="st1" cx="224.6" cy="129" rx="0" ry="0"/>
	<polygon class="st1" points="224.6,129.8 223.6,129.8 223.6,129 223.6,128.1 225.7,128.1 225.7,129 225.7,129.8 	"/>
</g>
<g>
	<ellipse class="st1" cx="224.6" cy="136" rx="0" ry="0"/>
	<polygon class="st1" points="224.6,136.8 223.6,136.8 223.6,136 223.6,135.2 225.7,135.2 225.7,136 225.7,136.8 	"/>
</g>
<g>
	<ellipse class="st1" cx="224.6" cy="143" rx="0" ry="0"/>
	<polygon class="st1" points="224.6,143.8 223.6,143.8 223.6,143 223.6,142.2 225.7,142.2 225.7,143 225.7,143.8 	"/>
</g>
<g>
	<ellipse class="st1" cx="224.6" cy="150" rx="0" ry="0"/>
	<polygon class="st1" points="224.6,150.8 223.6,150.8 223.6,150 223.6,149.2 225.7,149.2 225.7,150 225.7,150.8 	"/>
</g>
<g>
	<ellipse class="st1" cx="224.6" cy="157" rx="0" ry="0"/>
	<polygon class="st1" points="224.6,157.9 223.6,157.9 223.6,157 223.6,156.2 225.7,156.2 225.7,157 225.7,157.8 	"/>
</g>
<g>
	<ellipse class="st1" cx="224.6" cy="164.1" rx="0" ry="0"/>
	<polygon class="st1" points="224.6,164.9 223.6,164.9 223.6,164.1 223.6,163.3 225.7,163.2 225.7,164.1 225.7,164.9 	"/>
</g>
<g>
	<ellipse class="st1" cx="242.3" cy="86.8" rx="0" ry="0"/>
	<polygon class="st1" points="242.3,87.6 241.3,87.6 241.2,86.8 241.2,86 243.3,86 243.4,86.8 243.4,87.6 	"/>
</g>
<g>
	<ellipse class="st1" cx="242.3" cy="93.8" rx="0" ry="0"/>
	<polygon class="st1" points="242.3,94.7 241.3,94.7 241.2,93.8 241.2,93 243.3,93 243.4,93.8 243.4,94.7 	"/>
</g>
<g>
	<ellipse class="st1" cx="242.3" cy="100.9" rx="0" ry="0"/>
	<polygon class="st1" points="242.3,101.7 241.3,101.7 241.2,100.9 241.2,100.1 243.3,100 243.4,100.9 243.4,101.7 	"/>
</g>
<g>
	<ellipse class="st1" cx="242.3" cy="107.9" rx="0" ry="0"/>
	<polygon class="st1" points="242.3,108.7 241.3,108.7 241.2,107.9 241.2,107.1 243.3,107.1 243.4,107.9 243.4,108.7 	"/>
</g>
<g>
	<ellipse class="st1" cx="242.3" cy="114.9" rx="0" ry="0"/>
	<polygon class="st1" points="242.3,115.7 241.3,115.7 241.2,114.9 241.2,114.1 243.3,114.1 243.4,114.9 243.4,115.7 	"/>
</g>
<g>
	<ellipse class="st1" cx="242.3" cy="121.9" rx="0" ry="0"/>
	<polygon class="st1" points="242.3,122.8 241.3,122.8 241.2,121.9 241.2,121.1 243.3,121.1 243.4,121.9 243.4,122.7 	"/>
</g>
<g>
	<ellipse class="st1" cx="242.3" cy="129" rx="0" ry="0"/>
	<polygon class="st1" points="242.3,129.8 241.3,129.8 241.2,129 241.2,128.1 243.3,128.1 243.4,129 243.4,129.8 	"/>
</g>
<g>
	<ellipse class="st1" cx="242.3" cy="136" rx="0" ry="0"/>
	<polygon class="st1" points="242.3,136.8 241.3,136.8 241.2,136 241.2,135.2 243.3,135.2 243.4,136 243.4,136.8 	"/>
</g>
<g>
	<ellipse class="st1" cx="242.3" cy="143" rx="0" ry="0"/>
	<polygon class="st1" points="242.3,143.8 241.3,143.8 241.2,143 241.2,142.2 243.3,142.2 243.4,143 243.4,143.8 	"/>
</g>
<g>
	<ellipse class="st1" cx="242.3" cy="150" rx="0" ry="0"/>
	<polygon class="st1" points="242.3,150.8 241.3,150.8 241.2,150 241.2,149.2 243.3,149.2 243.4,150 243.4,150.8 	"/>
</g>
<g>
	<ellipse class="st1" cx="242.3" cy="157" rx="0" ry="0"/>
	<polygon class="st1" points="242.3,157.9 241.3,157.9 241.2,157 241.2,156.2 243.3,156.2 243.4,157 243.4,157.8 	"/>
</g>
<g>
	<ellipse class="st1" cx="242.3" cy="164.1" rx="0" ry="0"/>
	<polygon class="st1" points="242.3,164.9 241.3,164.9 241.2,164.1 241.2,163.3 243.3,163.2 243.4,164.1 243.4,164.9 	"/>
</g>
<g>
	<ellipse class="st1" cx="255.8" cy="86.8" rx="0" ry="0"/>
	<polygon class="st1" points="255.8,87.6 254.8,87.6 254.7,86.8 254.7,86 256.8,86 256.9,86.8 256.9,87.6 	"/>
</g>
<g>
	<ellipse class="st1" cx="255.8" cy="93.8" rx="0" ry="0"/>
	<polygon class="st1" points="255.8,94.7 254.8,94.7 254.7,93.8 254.7,93 256.8,93 256.9,93.8 256.9,94.7 	"/>
</g>
<g>
	<ellipse class="st1" cx="255.8" cy="100.9" rx="0" ry="0"/>
	<polygon class="st1" points="255.8,101.7 254.8,101.7 254.7,100.9 254.7,100.1 256.8,100 256.9,100.9 256.9,101.7 	"/>
</g>
<g>
	<ellipse class="st1" cx="255.8" cy="107.9" rx="0" ry="0"/>
	<polygon class="st1" points="255.8,108.7 254.8,108.7 254.7,107.9 254.7,107.1 256.8,107.1 256.9,107.9 256.9,108.7 	"/>
</g>
<g>
	<ellipse class="st1" cx="255.8" cy="114.9" rx="0" ry="0"/>
	<polygon class="st1" points="255.8,115.7 254.8,115.7 254.7,114.9 254.7,114.1 256.8,114.1 256.9,114.9 256.9,115.7 	"/>
</g>
<g>
	<ellipse class="st1" cx="255.8" cy="121.9" rx="0" ry="0"/>
	<polygon class="st1" points="255.8,122.8 254.8,122.8 254.7,121.9 254.7,121.1 256.8,121.1 256.9,121.9 256.9,122.7 	"/>
</g>
<g>
	<ellipse class="st1" cx="255.8" cy="129" rx="0" ry="0"/>
	<polygon class="st1" points="255.8,129.8 254.8,129.8 254.7,129 254.7,128.1 256.8,128.1 256.9,129 256.9,129.8 	"/>
</g>
<g>
	<ellipse class="st1" cx="255.8" cy="136" rx="0" ry="0"/>
	<polygon class="st1" points="255.8,136.8 254.8,136.8 254.7,136 254.7,135.2 256.8,135.2 256.9,136 256.9,136.8 	"/>
</g>
<g>
	<ellipse class="st1" cx="255.8" cy="143" rx="0" ry="0"/>
	<polygon class="st1" points="255.8,143.8 254.8,143.8 254.7,143 254.7,142.2 256.8,142.2 256.9,143 256.9,143.8 	"/>
</g>
<g>
	<ellipse class="st1" cx="255.8" cy="150" rx="0" ry="0"/>
	<polygon class="st1" points="255.8,150.8 254.8,150.8 254.7,150 254.7,149.2 256.8,149.2 256.9,150 256.9,150.8 	"/>
</g>
<g>
	<ellipse class="st1" cx="255.8" cy="157" rx="0" ry="0"/>
	<polygon class="st1" points="255.8,157.9 254.8,157.9 254.7,157 254.7,156.2 256.8,156.2 256.9,157 256.9,157.8 	"/>
</g>
<g>
	<ellipse class="st1" cx="255.8" cy="164.1" rx="0" ry="0"/>
	<polygon class="st1" points="255.8,164.9 254.8,164.9 254.7,164.1 254.7,163.3 256.8,163.2 256.9,164.1 256.9,164.9 	"/>
</g>
<g>
	<ellipse class="st1" cx="263.7" cy="86.8" rx="0" ry="0"/>
	<polygon class="st1" points="263.7,87.6 262.7,87.6 262.6,86.8 262.6,86 264.7,86 264.8,86.8 264.8,87.6 	"/>
</g>
<g>
	<ellipse class="st1" cx="263.7" cy="93.8" rx="0" ry="0"/>
	<polygon class="st1" points="263.7,94.7 262.7,94.7 262.6,93.8 262.6,93 264.7,93 264.8,93.8 264.8,94.7 	"/>
</g>
<g>
	<ellipse class="st1" cx="263.7" cy="100.9" rx="0" ry="0"/>
	<polygon class="st1" points="263.7,101.7 262.7,101.7 262.6,100.9 262.6,100.1 264.7,100 264.8,100.9 264.8,101.7 	"/>
</g>
<g>
	<ellipse class="st1" cx="263.7" cy="107.9" rx="0" ry="0"/>
	<polygon class="st1" points="263.7,108.7 262.7,108.7 262.6,107.9 262.6,107.1 264.7,107.1 264.8,107.9 264.8,108.7 	"/>
</g>
<g>
	<ellipse class="st1" cx="263.7" cy="114.9" rx="0" ry="0"/>
	<polygon class="st1" points="263.7,115.7 262.7,115.7 262.6,114.9 262.6,114.1 264.7,114.1 264.8,114.9 264.8,115.7 	"/>
</g>
<g>
	<ellipse class="st1" cx="263.7" cy="121.9" rx="0" ry="0"/>
	<polygon class="st1" points="263.7,122.8 262.7,122.8 262.6,121.9 262.6,121.1 264.7,121.1 264.8,121.9 264.8,122.7 	"/>
</g>
<g>
	<ellipse class="st1" cx="263.7" cy="129" rx="0" ry="0"/>
	<polygon class="st1" points="263.7,129.8 262.7,129.8 262.6,129 262.6,128.1 264.7,128.1 264.8,129 264.8,129.8 	"/>
</g>
<g>
	<ellipse class="st1" cx="263.7" cy="136" rx="0" ry="0"/>
	<polygon class="st1" points="263.7,136.8 262.7,136.8 262.6,136 262.6,135.2 264.7,135.2 264.8,136 264.8,136.8 	"/>
</g>
<g>
	<ellipse class="st1" cx="263.7" cy="143" rx="0" ry="0"/>
	<polygon class="st1" points="263.7,143.8 262.7,143.8 262.6,143 262.6,142.2 264.7,142.2 264.8,143 264.8,143.8 	"/>
</g>
<g>
	<ellipse class="st1" cx="263.7" cy="150" rx="0" ry="0"/>
	<polygon class="st1" points="263.7,150.8 262.7,150.8 262.6,150 262.6,149.2 264.7,149.2 264.8,150 264.8,150.8 	"/>
</g>
<g>
	<ellipse class="st1" cx="263.7" cy="157" rx="0" ry="0"/>
	<polygon class="st1" points="263.7,157.9 262.7,157.9 262.6,157 262.6,156.2 264.7,156.2 264.8,157 264.8,157.8 	"/>
</g>
<g>
	<ellipse class="st1" cx="263.7" cy="164.1" rx="0" ry="0"/>
	<polygon class="st1" points="263.7,164.9 262.7,164.9 262.6,164.1 262.6,163.3 264.7,163.2 264.8,164.1 264.8,164.9 	"/>
</g>
<g>
	<ellipse class="st1" cx="266.5" cy="86.8" rx="0" ry="0"/>
	<polygon class="st1" points="266.5,87.7 265.5,87.7 265.4,86.8 265.4,86 267.5,86 267.5,86.8 267.5,87.6 	"/>
</g>
<g>
	<ellipse class="st1" cx="266.5" cy="93.9" rx="0" ry="0"/>
	<polygon class="st1" points="266.5,94.7 265.5,94.7 265.4,93.9 265.4,93.1 267.5,93 267.5,93.9 267.5,94.7 	"/>
</g>
<g>
	<ellipse class="st1" cx="266.5" cy="100.9" rx="0" ry="0"/>
	<polygon class="st1" points="266.5,101.7 265.5,101.7 265.4,100.9 265.4,100.1 267.5,100.1 267.5,100.9 267.5,101.7 	"/>
</g>
<g>
	<ellipse class="st1" cx="266.5" cy="107.9" rx="0" ry="0"/>
	<polygon class="st1" points="266.5,108.7 265.5,108.7 265.4,107.9 265.4,107.1 267.5,107.1 267.5,107.9 267.5,108.7 	"/>
</g>
<g>
	<ellipse class="st1" cx="266.5" cy="114.9" rx="0" ry="0"/>
	<polygon class="st1" points="266.5,115.7 265.5,115.7 265.4,114.9 265.4,114.1 267.5,114.1 267.5,114.9 267.5,115.7 	"/>
</g>
<g>
	<ellipse class="st1" cx="266.5" cy="121.9" rx="0" ry="0"/>
	<polygon class="st1" points="266.5,122.8 265.5,122.8 265.4,121.9 265.4,121.1 267.5,121.1 267.5,121.9 267.5,122.8 	"/>
</g>
<g>
	<ellipse class="st1" cx="266.5" cy="129" rx="0" ry="0"/>
	<polygon class="st1" points="266.5,129.8 265.5,129.8 265.4,129 265.4,128.2 267.5,128.1 267.5,129 267.5,129.8 	"/>
</g>
<g>
	<ellipse class="st1" cx="266.5" cy="136" rx="0" ry="0"/>
	<polygon class="st1" points="266.5,136.8 265.5,136.8 265.4,136 265.4,135.2 267.5,135.2 267.5,136 267.5,136.8 	"/>
</g>
<g>
	<ellipse class="st1" cx="266.5" cy="143" rx="0" ry="0"/>
	<polygon class="st1" points="266.5,143.8 265.5,143.8 265.4,143 265.4,142.2 267.5,142.2 267.5,143 267.5,143.8 	"/>
</g>
<g>
	<ellipse class="st1" cx="266.5" cy="150" rx="0" ry="0"/>
	<polygon class="st1" points="266.5,150.9 265.5,150.9 265.4,150 265.4,149.2 267.5,149.2 267.5,150 267.5,150.8 	"/>
</g>
<g>
	<ellipse class="st1" cx="266.5" cy="157.1" rx="0" ry="0"/>
	<polygon class="st1" points="266.5,157.9 265.5,157.9 265.4,157.1 265.4,156.2 267.5,156.2 267.5,157.1 267.5,157.9 	"/>
</g>
<g>
	<ellipse class="st1" cx="266.5" cy="164.1" rx="0" ry="0"/>
	<polygon class="st1" points="266.5,164.9 265.5,164.9 265.4,164.1 265.4,163.3 267.5,163.3 267.5,164.1 267.5,164.9 	"/>
</g>
<g>
	<ellipse class="st1" cx="270.2" cy="86.8" rx="0" ry="0"/>
	<polygon class="st1" points="270.2,87.6 269.2,87.6 269.1,86.8 269.1,86 271.2,86 271.3,86.8 271.3,87.6 	"/>
</g>
<g>
	<ellipse class="st1" cx="270.2" cy="93.8" rx="0" ry="0"/>
	<polygon class="st1" points="270.2,94.7 269.2,94.7 269.1,93.8 269.1,93 271.2,93 271.3,93.8 271.3,94.7 	"/>
</g>
<g>
	<ellipse class="st1" cx="270.2" cy="100.9" rx="0" ry="0"/>
	<polygon class="st1" points="270.2,101.7 269.2,101.7 269.1,100.9 269.1,100.1 271.2,100 271.3,100.9 271.3,101.7 	"/>
</g>
<g>
	<ellipse class="st1" cx="270.2" cy="107.9" rx="0" ry="0"/>
	<polygon class="st1" points="270.2,108.7 269.2,108.7 269.1,107.9 269.1,107.1 271.2,107.1 271.3,107.9 271.3,108.7 	"/>
</g>
<g>
	<ellipse class="st1" cx="270.2" cy="114.9" rx="0" ry="0"/>
	<polygon class="st1" points="270.2,115.7 269.2,115.7 269.1,114.9 269.1,114.1 271.2,114.1 271.3,114.9 271.3,115.7 	"/>
</g>
<g>
	<ellipse class="st1" cx="270.2" cy="121.9" rx="0" ry="0"/>
	<polygon class="st1" points="270.2,122.8 269.2,122.8 269.1,121.9 269.1,121.1 271.2,121.1 271.3,121.9 271.3,122.7 	"/>
</g>
<g>
	<ellipse class="st1" cx="270.2" cy="129" rx="0" ry="0"/>
	<polygon class="st1" points="270.2,129.8 269.2,129.8 269.1,129 269.1,128.1 271.2,128.1 271.3,129 271.3,129.8 	"/>
</g>
<g>
	<ellipse class="st1" cx="270.2" cy="136" rx="0" ry="0"/>
	<polygon class="st1" points="270.2,136.8 269.2,136.8 269.1,136 269.1,135.2 271.2,135.2 271.3,136 271.3,136.8 	"/>
</g>
<g>
	<ellipse class="st1" cx="270.2" cy="143" rx="0" ry="0"/>
	<polygon class="st1" points="270.2,143.8 269.2,143.8 269.1,143 269.1,142.2 271.2,142.2 271.3,143 271.3,143.8 	"/>
</g>
<g>
	<ellipse class="st1" cx="270.2" cy="150" rx="0" ry="0"/>
	<polygon class="st1" points="270.2,150.8 269.2,150.8 269.1,150 269.1,149.2 271.2,149.2 271.3,150 271.3,150.8 	"/>
</g>
<g>
	<ellipse class="st1" cx="270.2" cy="157" rx="0" ry="0"/>
	<polygon class="st1" points="270.2,157.9 269.2,157.9 269.1,157 269.1,156.2 271.2,156.2 271.3,157 271.3,157.8 	"/>
</g>
<g>
	<ellipse class="st1" cx="270.2" cy="164.1" rx="0" ry="0"/>
	<polygon class="st1" points="270.2,164.9 269.2,164.9 269.1,164.1 269.1,163.3 271.2,163.2 271.3,164.1 271.3,164.9 	"/>
</g>
<g>
	<ellipse class="st1" cx="278.1" cy="86.8" rx="0" ry="0"/>
	<polygon class="st1" points="278.1,87.6 277.1,87.6 277,86.8 277,86 279.1,86 279.2,86.8 279.2,87.6 	"/>
</g>
<g>
	<ellipse class="st1" cx="278.1" cy="93.8" rx="0" ry="0"/>
	<polygon class="st1" points="278.1,94.7 277.1,94.7 277,93.8 277,93 279.1,93 279.2,93.8 279.2,94.7 	"/>
</g>
<g>
	<ellipse class="st1" cx="278.1" cy="100.9" rx="0" ry="0"/>
	<polygon class="st1" points="278.1,101.7 277.1,101.7 277,100.9 277,100.1 279.1,100 279.2,100.9 279.2,101.7 	"/>
</g>
<g>
	<ellipse class="st1" cx="278.1" cy="107.9" rx="0" ry="0"/>
	<polygon class="st1" points="278.1,108.7 277.1,108.7 277,107.9 277,107.1 279.1,107.1 279.2,107.9 279.2,108.7 	"/>
</g>
<g>
	<ellipse class="st1" cx="278.1" cy="114.9" rx="0" ry="0"/>
	<polygon class="st1" points="278.1,115.7 277.1,115.7 277,114.9 277,114.1 279.1,114.1 279.2,114.9 279.2,115.7 	"/>
</g>
<g>
	<ellipse class="st1" cx="278.1" cy="121.9" rx="0" ry="0"/>
	<polygon class="st1" points="278.1,122.8 277.1,122.8 277,121.9 277,121.1 279.1,121.1 279.2,121.9 279.2,122.7 	"/>
</g>
<g>
	<ellipse class="st1" cx="278.1" cy="129" rx="0" ry="0"/>
	<polygon class="st1" points="278.1,129.8 277.1,129.8 277,129 277,128.1 279.1,128.1 279.2,129 279.2,129.8 	"/>
</g>
<g>
	<ellipse class="st1" cx="278.1" cy="136" rx="0" ry="0"/>
	<polygon class="st1" points="278.1,136.8 277.1,136.8 277,136 277,135.2 279.1,135.2 279.2,136 279.2,136.8 	"/>
</g>
<g>
	<ellipse class="st1" cx="278.1" cy="143" rx="0" ry="0"/>
	<polygon class="st1" points="278.1,143.8 277.1,143.8 277,143 277,142.2 279.1,142.2 279.2,143 279.2,143.8 	"/>
</g>
<g>
	<ellipse class="st1" cx="278.1" cy="150" rx="0" ry="0"/>
	<polygon class="st1" points="278.1,150.8 277.1,150.8 277,150 277,149.2 279.1,149.2 279.2,150 279.2,150.8 	"/>
</g>
<g>
	<ellipse class="st1" cx="278.1" cy="157" rx="0" ry="0"/>
	<polygon class="st1" points="278.1,157.9 277.1,157.9 277,157 277,156.2 279.1,156.2 279.2,157 279.2,157.8 	"/>
</g>
<g>
	<ellipse class="st1" cx="278.1" cy="164.1" rx="0" ry="0"/>
	<polygon class="st1" points="278.1,164.9 277.1,164.9 277,164.1 277,163.3 279.1,163.2 279.2,164.1 279.2,164.9 	"/>
</g>
<g>
	<ellipse class="st1" cx="291.6" cy="86.8" rx="0" ry="0"/>
	<polygon class="st1" points="291.6,87.6 290.6,87.6 290.5,86.8 290.5,86 292.6,86 292.6,86.8 292.6,87.6 	"/>
</g>
<g>
	<ellipse class="st1" cx="291.6" cy="93.8" rx="0" ry="0"/>
	<polygon class="st1" points="291.6,94.7 290.6,94.7 290.5,93.8 290.5,93 292.6,93 292.6,93.8 292.6,94.7 	"/>
</g>
<g>
	<ellipse class="st1" cx="291.6" cy="100.9" rx="0" ry="0"/>
	<polygon class="st1" points="291.6,101.7 290.6,101.7 290.5,100.9 290.5,100.1 292.6,100 292.6,100.9 292.6,101.7 	"/>
</g>
<g>
	<ellipse class="st1" cx="291.6" cy="107.9" rx="0" ry="0"/>
	<polygon class="st1" points="291.6,108.7 290.6,108.7 290.5,107.9 290.5,107.1 292.6,107.1 292.6,107.9 292.6,108.7 	"/>
</g>
<g>
	<ellipse class="st1" cx="291.6" cy="114.9" rx="0" ry="0"/>
	<polygon class="st1" points="291.6,115.7 290.6,115.7 290.5,114.9 290.5,114.1 292.6,114.1 292.6,114.9 292.6,115.7 	"/>
</g>
<g>
	<ellipse class="st1" cx="291.6" cy="121.9" rx="0" ry="0"/>
	<polygon class="st1" points="291.6,122.8 290.6,122.8 290.5,121.9 290.5,121.1 292.6,121.1 292.6,121.9 292.6,122.7 	"/>
</g>
<g>
	<ellipse class="st1" cx="291.6" cy="129" rx="0" ry="0"/>
	<polygon class="st1" points="291.6,129.8 290.6,129.8 290.5,129 290.5,128.1 292.6,128.1 292.6,129 292.6,129.8 	"/>
</g>
<g>
	<ellipse class="st1" cx="291.6" cy="136" rx="0" ry="0"/>
	<polygon class="st1" points="291.6,136.8 290.6,136.8 290.5,136 290.5,135.2 292.6,135.2 292.6,136 292.6,136.8 	"/>
</g>
<g>
	<ellipse class="st1" cx="291.6" cy="143" rx="0" ry="0"/>
	<polygon class="st1" points="291.6,143.8 290.6,143.8 290.5,143 290.5,142.2 292.6,142.2 292.6,143 292.6,143.8 	"/>
</g>
<g>
	<ellipse class="st1" cx="291.6" cy="150" rx="0" ry="0"/>
	<polygon class="st1" points="291.6,150.8 290.6,150.8 290.5,150 290.5,149.2 292.6,149.2 292.6,150 292.6,150.8 	"/>
</g>
<g>
	<ellipse class="st1" cx="291.6" cy="157" rx="0" ry="0"/>
	<polygon class="st1" points="291.6,157.9 290.6,157.9 290.5,157 290.5,156.2 292.6,156.2 292.6,157 292.6,157.8 	"/>
</g>
<g>
	<ellipse class="st1" cx="291.6" cy="164.1" rx="0" ry="0"/>
	<polygon class="st1" points="291.6,164.9 290.6,164.9 290.5,164.1 290.5,163.3 292.6,163.2 292.6,164.1 292.6,164.9 	"/>
</g>
<g>
	<ellipse class="st1" cx="309.2" cy="86.8" rx="0" ry="0"/>
	<polygon class="st1" points="309.2,87.6 308.2,87.6 308.2,86.8 308.2,86 310.3,86 310.3,86.8 310.3,87.6 	"/>
</g>
<g>
	<ellipse class="st1" cx="309.2" cy="93.8" rx="0" ry="0"/>
	<polygon class="st1" points="309.2,94.7 308.2,94.7 308.2,93.8 308.2,93 310.3,93 310.3,93.8 310.3,94.7 	"/>
</g>
<g>
	<ellipse class="st1" cx="309.2" cy="100.9" rx="0" ry="0"/>
	<polygon class="st1" points="309.2,101.7 308.2,101.7 308.2,100.9 308.2,100.1 310.3,100 310.3,100.9 310.3,101.7 	"/>
</g>
<g>
	<ellipse class="st1" cx="309.2" cy="107.9" rx="0" ry="0"/>
	<polygon class="st1" points="309.2,108.7 308.2,108.7 308.2,107.9 308.2,107.1 310.3,107.1 310.3,107.9 310.3,108.7 	"/>
</g>
<g>
	<ellipse class="st1" cx="309.2" cy="114.9" rx="0" ry="0"/>
	<polygon class="st1" points="309.2,115.7 308.2,115.7 308.2,114.9 308.2,114.1 310.3,114.1 310.3,114.9 310.3,115.7 	"/>
</g>
<g>
	<ellipse class="st1" cx="309.2" cy="121.9" rx="0" ry="0"/>
	<polygon class="st1" points="309.2,122.8 308.2,122.8 308.2,121.9 308.2,121.1 310.3,121.1 310.3,121.9 310.3,122.7 	"/>
</g>
<g>
	<ellipse class="st1" cx="309.2" cy="129" rx="0" ry="0"/>
	<polygon class="st1" points="309.2,129.8 308.2,129.8 308.2,129 308.2,128.1 310.3,128.1 310.3,129 310.3,129.8 	"/>
</g>
<g>
	<ellipse class="st1" cx="309.2" cy="136" rx="0" ry="0"/>
	<polygon class="st1" points="309.2,136.8 308.2,136.8 308.2,136 308.2,135.2 310.3,135.2 310.3,136 310.3,136.8 	"/>
</g>
<g>
	<ellipse class="st1" cx="309.2" cy="143" rx="0" ry="0"/>
	<polygon class="st1" points="309.2,143.8 308.2,143.8 308.2,143 308.2,142.2 310.3,142.2 310.3,143 310.3,143.8 	"/>
</g>
<g>
	<ellipse class="st1" cx="309.2" cy="150" rx="0" ry="0"/>
	<polygon class="st1" points="309.2,150.8 308.2,150.8 308.2,150 308.2,149.2 310.3,149.2 310.3,150 310.3,150.8 	"/>
</g>
<g>
	<ellipse class="st1" cx="309.2" cy="157" rx="0" ry="0"/>
	<polygon class="st1" points="309.2,157.9 308.2,157.9 308.2,157 308.2,156.2 310.3,156.2 310.3,157 310.3,157.8 	"/>
</g>
<g>
	<ellipse class="st1" cx="309.2" cy="164.1" rx="0" ry="0"/>
	<polygon class="st1" points="309.2,164.9 308.2,164.9 308.2,164.1 308.2,163.3 310.3,163.2 310.3,164.1 310.3,164.9 	"/>
</g>
<g>
	<ellipse class="st1" cx="330.2" cy="86.8" rx="0" ry="0"/>
	<polygon class="st1" points="330.2,87.6 329.2,87.6 329.1,86.8 329.1,86 331.2,86 331.3,86.8 331.3,87.6 	"/>
</g>
<g>
	<ellipse class="st1" cx="330.2" cy="93.8" rx="0" ry="0"/>
	<polygon class="st1" points="330.2,94.7 329.2,94.7 329.1,93.8 329.1,93 331.2,93 331.3,93.8 331.3,94.7 	"/>
</g>
<g>
	<ellipse class="st1" cx="330.2" cy="100.9" rx="0" ry="0"/>
	<polygon class="st1" points="330.2,101.7 329.2,101.7 329.1,100.9 329.1,100.1 331.2,100 331.3,100.9 331.3,101.7 	"/>
</g>
<g>
	<ellipse class="st1" cx="330.2" cy="107.9" rx="0" ry="0"/>
	<polygon class="st1" points="330.2,108.7 329.2,108.7 329.1,107.9 329.1,107.1 331.2,107.1 331.3,107.9 331.3,108.7 	"/>
</g>
<g>
	<ellipse class="st1" cx="330.2" cy="114.9" rx="0" ry="0"/>
	<polygon class="st1" points="330.2,115.7 329.2,115.7 329.1,114.9 329.1,114.1 331.2,114.1 331.3,114.9 331.3,115.7 	"/>
</g>
<g>
	<ellipse class="st1" cx="330.2" cy="121.9" rx="0" ry="0"/>
	<polygon class="st1" points="330.2,122.8 329.2,122.8 329.1,121.9 329.1,121.1 331.2,121.1 331.3,121.9 331.3,122.7 	"/>
</g>
<g>
	<ellipse class="st1" cx="330.2" cy="129" rx="0" ry="0"/>
	<polygon class="st1" points="330.2,129.8 329.2,129.8 329.1,129 329.1,128.1 331.2,128.1 331.3,129 331.3,129.8 	"/>
</g>
<g>
	<ellipse class="st1" cx="330.2" cy="136" rx="0" ry="0"/>
	<polygon class="st1" points="330.2,136.8 329.2,136.8 329.1,136 329.1,135.2 331.2,135.2 331.3,136 331.3,136.8 	"/>
</g>
<g>
	<ellipse class="st1" cx="330.2" cy="143" rx="0" ry="0"/>
	<polygon class="st1" points="330.2,143.8 329.2,143.8 329.1,143 329.1,142.2 331.2,142.2 331.3,143 331.3,143.8 	"/>
</g>
<g>
	<ellipse class="st1" cx="330.2" cy="150" rx="0" ry="0"/>
	<polygon class="st1" points="330.2,150.8 329.2,150.8 329.1,150 329.1,149.2 331.2,149.2 331.3,150 331.3,150.8 	"/>
</g>
<g>
	<ellipse class="st1" cx="330.2" cy="157" rx="0" ry="0"/>
	<polygon class="st1" points="330.2,157.9 329.2,157.9 329.1,157 329.1,156.2 331.2,156.2 331.3,157 331.3,157.8 	"/>
</g>
<g>
	<ellipse class="st1" cx="330.2" cy="164.1" rx="0" ry="0"/>
	<polygon class="st1" points="330.2,164.9 329.2,164.9 329.1,164.1 329.1,163.3 331.2,163.2 331.3,164.1 331.3,164.9 	"/>
</g>
<g>
	<ellipse class="st1" cx="355.4" cy="86.8" rx="0" ry="0"/>
	<polygon class="st1" points="355.4,87.6 354.4,87.6 354.3,86.8 354.3,86 356.4,86 356.5,86.8 356.5,87.6 	"/>
</g>
<g>
	<ellipse class="st1" cx="355.4" cy="93.8" rx="0" ry="0"/>
	<polygon class="st1" points="355.4,94.7 354.4,94.7 354.3,93.8 354.3,93 356.4,93 356.5,93.8 356.5,94.7 	"/>
</g>
<g>
	<ellipse class="st1" cx="355.4" cy="100.9" rx="0" ry="0"/>
	<polygon class="st1" points="355.4,101.7 354.4,101.7 354.3,100.9 354.3,100.1 356.4,100 356.5,100.9 356.5,101.7 	"/>
</g>
<g>
	<ellipse class="st1" cx="355.4" cy="107.9" rx="0" ry="0"/>
	<polygon class="st1" points="355.4,108.7 354.4,108.7 354.3,107.9 354.3,107.1 356.4,107.1 356.5,107.9 356.5,108.7 	"/>
</g>
<g>
	<ellipse class="st1" cx="355.4" cy="114.9" rx="0" ry="0"/>
	<polygon class="st1" points="355.4,115.7 354.4,115.7 354.3,114.9 354.3,114.1 356.4,114.1 356.5,114.9 356.5,115.7 	"/>
</g>
<g>
	<ellipse class="st1" cx="355.4" cy="121.9" rx="0" ry="0"/>
	<polygon class="st1" points="355.4,122.8 354.4,122.8 354.3,121.9 354.3,121.1 356.4,121.1 356.5,121.9 356.5,122.7 	"/>
</g>
<g>
	<ellipse class="st1" cx="355.4" cy="129" rx="0" ry="0"/>
	<polygon class="st1" points="355.4,129.8 354.4,129.8 354.3,129 354.3,128.1 356.4,128.1 356.5,129 356.5,129.8 	"/>
</g>
<g>
	<ellipse class="st1" cx="355.4" cy="136" rx="0" ry="0"/>
	<polygon class="st1" points="355.4,136.8 354.4,136.8 354.3,136 354.3,135.2 356.4,135.2 356.5,136 356.5,136.8 	"/>
</g>
<g>
	<ellipse class="st1" cx="355.4" cy="143" rx="0" ry="0"/>
	<polygon class="st1" points="355.4,143.8 354.4,143.8 354.3,143 354.3,142.2 356.4,142.2 356.5,143 356.5,143.8 	"/>
</g>
<g>
	<ellipse class="st1" cx="355.4" cy="150" rx="0" ry="0"/>
	<polygon class="st1" points="355.4,150.8 354.4,150.8 354.3,150 354.3,149.2 356.4,149.2 356.5,150 356.5,150.8 	"/>
</g>
<g>
	<ellipse class="st1" cx="355.4" cy="157" rx="0" ry="0"/>
	<polygon class="st1" points="355.4,157.9 354.4,157.9 354.3,157 354.3,156.2 356.4,156.2 356.5,157 356.5,157.8 	"/>
</g>
<g>
	<ellipse class="st1" cx="355.4" cy="164.1" rx="0" ry="0"/>
	<polygon class="st1" points="355.4,164.9 354.4,164.9 354.3,164.1 354.3,163.3 356.4,163.2 356.5,164.1 356.5,164.9 	"/>
</g>
<g>
	<ellipse class="st1" cx="386.1" cy="86.8" rx="0" ry="0"/>
	<polygon class="st1" points="386.1,87.6 385.1,87.6 385.1,86.8 385.1,86 387.1,86 387.2,86.8 387.2,87.6 	"/>
</g>
<g>
	<ellipse class="st1" cx="386.1" cy="93.8" rx="0" ry="0"/>
	<polygon class="st1" points="386.1,94.7 385.1,94.7 385.1,93.8 385.1,93 387.1,93 387.2,93.8 387.2,94.7 	"/>
</g>
<g>
	<ellipse class="st1" cx="386.1" cy="100.9" rx="0" ry="0"/>
	<polygon class="st1" points="386.1,101.7 385.1,101.7 385.1,100.9 385.1,100.1 387.1,100 387.2,100.9 387.2,101.7 	"/>
</g>
<g>
	<ellipse class="st1" cx="386.1" cy="107.9" rx="0" ry="0"/>
	<polygon class="st1" points="386.1,108.7 385.1,108.7 385.1,107.9 385.1,107.1 387.1,107.1 387.2,107.9 387.2,108.7 	"/>
</g>
<g>
	<ellipse class="st1" cx="386.1" cy="114.9" rx="0" ry="0"/>
	<polygon class="st1" points="386.1,115.7 385.1,115.7 385.1,114.9 385.1,114.1 387.1,114.1 387.2,114.9 387.2,115.7 	"/>
</g>
<g>
	<ellipse class="st1" cx="386.1" cy="121.9" rx="0" ry="0"/>
	<polygon class="st1" points="386.1,122.8 385.1,122.8 385.1,121.9 385.1,121.1 387.1,121.1 387.2,121.9 387.2,122.7 	"/>
</g>
<g>
	<ellipse class="st1" cx="386.1" cy="129" rx="0" ry="0"/>
	<polygon class="st1" points="386.1,129.8 385.1,129.8 385.1,129 385.1,128.1 387.1,128.1 387.2,129 387.2,129.8 	"/>
</g>
<g>
	<ellipse class="st1" cx="386.1" cy="136" rx="0" ry="0"/>
	<polygon class="st1" points="386.1,136.8 385.1,136.8 385.1,136 385.1,135.2 387.1,135.2 387.2,136 387.2,136.8 	"/>
</g>
<g>
	<ellipse class="st1" cx="386.1" cy="143" rx="0" ry="0"/>
	<polygon class="st1" points="386.1,143.8 385.1,143.8 385.1,143 385.1,142.2 387.1,142.2 387.2,143 387.2,143.8 	"/>
</g>
<g>
	<ellipse class="st1" cx="386.1" cy="150" rx="0" ry="0"/>
	<polygon class="st1" points="386.1,150.8 385.1,150.8 385.1,150 385.1,149.2 387.1,149.2 387.2,150 387.2,150.8 	"/>
</g>
<g>
	<ellipse class="st1" cx="386.1" cy="157" rx="0" ry="0"/>
	<polygon class="st1" points="386.1,157.9 385.1,157.9 385.1,157 385.1,156.2 387.1,156.2 387.2,157 387.2,157.8 	"/>
</g>
<g>
	<ellipse class="st1" cx="386.1" cy="164.1" rx="0" ry="0"/>
	<polygon class="st1" points="386.1,164.9 385.1,164.9 385.1,164.1 385.1,163.3 387.1,163.2 387.2,164.1 387.2,164.9 	"/>
</g>
<g>
	<ellipse class="st1" cx="421.5" cy="86.8" rx="0" ry="0"/>
	<polygon class="st1" points="421.5,87.6 420.5,87.6 420.5,86.8 420.5,86 422.5,86 422.6,86.8 422.6,87.6 	"/>
</g>
<g>
	<ellipse class="st1" cx="421.5" cy="93.8" rx="0" ry="0"/>
	<polygon class="st1" points="421.5,94.7 420.5,94.7 420.5,93.8 420.5,93 422.5,93 422.6,93.8 422.6,94.7 	"/>
</g>
<g>
	<ellipse class="st1" cx="421.5" cy="100.9" rx="0" ry="0"/>
	<polygon class="st1" points="421.5,101.7 420.5,101.7 420.5,100.9 420.5,100.1 422.5,100 422.6,100.9 422.6,101.7 	"/>
</g>
<g>
	<ellipse class="st1" cx="421.5" cy="107.9" rx="0" ry="0"/>
	<polygon class="st1" points="421.5,108.7 420.5,108.7 420.5,107.9 420.5,107.1 422.5,107.1 422.6,107.9 422.6,108.7 	"/>
</g>
<g>
	<ellipse class="st1" cx="421.5" cy="114.9" rx="0" ry="0"/>
	<polygon class="st1" points="421.5,115.7 420.5,115.7 420.5,114.9 420.5,114.1 422.5,114.1 422.6,114.9 422.6,115.7 	"/>
</g>
<g>
	<ellipse class="st1" cx="421.5" cy="121.9" rx="0" ry="0"/>
	<polygon class="st1" points="421.5,122.8 420.5,122.8 420.5,121.9 420.5,121.1 422.5,121.1 422.6,121.9 422.6,122.7 	"/>
</g>
<g>
	<ellipse class="st1" cx="421.5" cy="129" rx="0" ry="0"/>
	<polygon class="st1" points="421.5,129.8 420.5,129.8 420.5,129 420.5,128.1 422.5,128.1 422.6,129 422.6,129.8 	"/>
</g>
<g>
	<ellipse class="st1" cx="421.5" cy="136" rx="0" ry="0"/>
	<polygon class="st1" points="421.5,136.8 420.5,136.8 420.5,136 420.5,135.2 422.5,135.2 422.6,136 422.6,136.8 	"/>
</g>
<g>
	<ellipse class="st1" cx="421.5" cy="143" rx="0" ry="0"/>
	<polygon class="st1" points="421.5,143.8 420.5,143.8 420.5,143 420.5,142.2 422.5,142.2 422.6,143 422.6,143.8 	"/>
</g>
<g>
	<ellipse class="st1" cx="421.5" cy="150" rx="0" ry="0"/>
	<polygon class="st1" points="421.5,150.8 420.5,150.8 420.5,150 420.5,149.2 422.5,149.2 422.6,150 422.6,150.8 	"/>
</g>
<g>
	<ellipse class="st1" cx="421.5" cy="157" rx="0" ry="0"/>
	<polygon class="st1" points="421.5,157.9 420.5,157.9 420.5,157 420.5,156.2 422.5,156.2 422.6,157 422.6,157.8 	"/>
</g>
<g>
	<ellipse class="st1" cx="421.5" cy="164.1" rx="0" ry="0"/>
	<polygon class="st1" points="421.5,164.9 420.5,164.9 420.5,164.1 420.5,163.3 422.5,163.2 422.6,164.1 422.6,164.9 	"/>
</g>
<g>
	<ellipse class="st1" cx="456.9" cy="86.8" rx="0" ry="0"/>
	<polygon class="st1" points="456.9,87.6 455.9,87.6 455.8,86.8 455.8,86 457.9,86 458,86.8 458,87.6 	"/>
</g>
<g>
	<ellipse class="st1" cx="456.9" cy="93.8" rx="0" ry="0"/>
	<polygon class="st1" points="456.9,94.7 455.9,94.7 455.8,93.8 455.8,93 457.9,93 458,93.8 458,94.7 	"/>
</g>
<g>
	<ellipse class="st1" cx="456.9" cy="100.9" rx="0" ry="0"/>
	<polygon class="st1" points="456.9,101.7 455.9,101.7 455.8,100.9 455.8,100.1 457.9,100 458,100.9 458,101.7 	"/>
</g>
<g>
	<ellipse class="st1" cx="456.9" cy="107.9" rx="0" ry="0"/>
	<polygon class="st1" points="456.9,108.7 455.9,108.7 455.8,107.9 455.8,107.1 457.9,107.1 458,107.9 458,108.7 	"/>
</g>
<g>
	<ellipse class="st1" cx="456.9" cy="114.9" rx="0" ry="0"/>
	<polygon class="st1" points="456.9,115.7 455.9,115.7 455.8,114.9 455.8,114.1 457.9,114.1 458,114.9 458,115.7 	"/>
</g>
<g>
	<ellipse class="st1" cx="456.9" cy="121.9" rx="0" ry="0"/>
	<polygon class="st1" points="456.9,122.8 455.9,122.8 455.8,121.9 455.8,121.1 457.9,121.1 458,121.9 458,122.7 	"/>
</g>
<g>
	<ellipse class="st1" cx="456.9" cy="129" rx="0" ry="0"/>
	<polygon class="st1" points="456.9,129.8 455.9,129.8 455.8,129 455.8,128.1 457.9,128.1 458,129 458,129.8 	"/>
</g>
<g>
	<ellipse class="st1" cx="456.9" cy="136" rx="0" ry="0"/>
	<polygon class="st1" points="456.9,136.8 455.9,136.8 455.8,136 455.8,135.2 457.9,135.2 458,136 458,136.8 	"/>
</g>
<g>
	<ellipse class="st1" cx="456.9" cy="143" rx="0" ry="0"/>
	<polygon class="st1" points="456.9,143.8 455.9,143.8 455.8,143 455.8,142.2 457.9,142.2 458,143 458,143.8 	"/>
</g>
<g>
	<ellipse class="st1" cx="456.9" cy="150" rx="0" ry="0"/>
	<polygon class="st1" points="456.9,150.8 455.9,150.8 455.8,150 455.8,149.2 457.9,149.2 458,150 458,150.8 	"/>
</g>
<g>
	<ellipse class="st1" cx="456.9" cy="157" rx="0" ry="0"/>
	<polygon class="st1" points="456.9,157.9 455.9,157.9 455.8,157 455.8,156.2 457.9,156.2 458,157 458,157.8 	"/>
</g>
<g>
	<ellipse class="st1" cx="456.9" cy="164.1" rx="0" ry="0"/>
	<polygon class="st1" points="456.9,164.9 455.9,164.9 455.8,164.1 455.8,163.3 457.9,163.2 458,164.1 458,164.9 	"/>
</g>
<g>
	<ellipse class="st1" cx="487.6" cy="86.8" rx="0" ry="0"/>
	<polygon class="st1" points="487.6,87.6 486.6,87.6 486.6,86.8 486.6,86 488.7,86 488.7,86.8 488.7,87.6 	"/>
</g>
<g>
	<ellipse class="st1" cx="487.6" cy="93.8" rx="0" ry="0"/>
	<polygon class="st1" points="487.6,94.7 486.6,94.7 486.6,93.8 486.6,93 488.7,93 488.7,93.8 488.7,94.7 	"/>
</g>
<g>
	<ellipse class="st1" cx="487.6" cy="100.9" rx="0" ry="0"/>
	<polygon class="st1" points="487.6,101.7 486.6,101.7 486.6,100.9 486.6,100.1 488.7,100 488.7,100.9 488.7,101.7 	"/>
</g>
<g>
	<ellipse class="st1" cx="487.6" cy="107.9" rx="0" ry="0"/>
	<polygon class="st1" points="487.6,108.7 486.6,108.7 486.6,107.9 486.6,107.1 488.7,107.1 488.7,107.9 488.7,108.7 	"/>
</g>
<g>
	<ellipse class="st1" cx="487.6" cy="114.9" rx="0" ry="0"/>
	<polygon class="st1" points="487.6,115.7 486.6,115.7 486.6,114.9 486.6,114.1 488.7,114.1 488.7,114.9 488.7,115.7 	"/>
</g>
<g>
	<ellipse class="st1" cx="487.6" cy="121.9" rx="0" ry="0"/>
	<polygon class="st1" points="487.6,122.8 486.6,122.8 486.6,121.9 486.6,121.1 488.7,121.1 488.7,121.9 488.7,122.7 	"/>
</g>
<g>
	<ellipse class="st1" cx="487.6" cy="129" rx="0" ry="0"/>
	<polygon class="st1" points="487.6,129.8 486.6,129.8 486.6,129 486.6,128.1 488.7,128.1 488.7,129 488.7,129.8 	"/>
</g>
<g>
	<ellipse class="st1" cx="487.6" cy="136" rx="0" ry="0"/>
	<polygon class="st1" points="487.6,136.8 486.6,136.8 486.6,136 486.6,135.2 488.7,135.2 488.7,136 488.7,136.8 	"/>
</g>
<g>
	<ellipse class="st1" cx="487.6" cy="143" rx="0" ry="0"/>
	<polygon class="st1" points="487.6,143.8 486.6,143.8 486.6,143 486.6,142.2 488.7,142.2 488.7,143 488.7,143.8 	"/>
</g>
<g>
	<ellipse class="st1" cx="487.6" cy="150" rx="0" ry="0"/>
	<polygon class="st1" points="487.6,150.8 486.6,150.8 486.6,150 486.6,149.2 488.7,149.2 488.7,150 488.7,150.8 	"/>
</g>
<g>
	<ellipse class="st1" cx="487.6" cy="157" rx="0" ry="0"/>
	<polygon class="st1" points="487.6,157.9 486.6,157.9 486.6,157 486.6,156.2 488.7,156.2 488.7,157 488.7,157.8 	"/>
</g>
<g>
	<ellipse class="st1" cx="487.6" cy="164.1" rx="0" ry="0"/>
	<polygon class="st1" points="487.6,164.9 486.6,164.9 486.6,164.1 486.6,163.3 488.7,163.2 488.7,164.1 488.7,164.9 	"/>
</g>
<g>
	<ellipse class="st1" cx="512.8" cy="86.8" rx="0" ry="0"/>
	<polygon class="st1" points="512.8,87.6 511.8,87.6 511.8,86.8 511.8,86 513.8,86 513.9,86.8 513.9,87.6 	"/>
</g>
<g>
	<ellipse class="st1" cx="512.8" cy="93.8" rx="0" ry="0"/>
	<polygon class="st1" points="512.8,94.7 511.8,94.7 511.8,93.8 511.8,93 513.8,93 513.9,93.8 513.9,94.7 	"/>
</g>
<g>
	<ellipse class="st1" cx="512.8" cy="100.9" rx="0" ry="0"/>
	<polygon class="st1" points="512.8,101.7 511.8,101.7 511.8,100.9 511.8,100.1 513.8,100 513.9,100.9 513.9,101.7 	"/>
</g>
<g>
	<ellipse class="st1" cx="512.8" cy="107.9" rx="0" ry="0"/>
	<polygon class="st1" points="512.8,108.7 511.8,108.7 511.8,107.9 511.8,107.1 513.8,107.1 513.9,107.9 513.9,108.7 	"/>
</g>
<g>
	<ellipse class="st1" cx="512.8" cy="114.9" rx="0" ry="0"/>
	<polygon class="st1" points="512.8,115.7 511.8,115.7 511.8,114.9 511.8,114.1 513.8,114.1 513.9,114.9 513.9,115.7 	"/>
</g>
<g>
	<ellipse class="st1" cx="512.8" cy="121.9" rx="0" ry="0"/>
	<polygon class="st1" points="512.8,122.8 511.8,122.8 511.8,121.9 511.8,121.1 513.8,121.1 513.9,121.9 513.9,122.7 	"/>
</g>
<g>
	<ellipse class="st1" cx="512.8" cy="129" rx="0" ry="0"/>
	<polygon class="st1" points="512.8,129.8 511.8,129.8 511.8,129 511.8,128.1 513.8,128.1 513.9,129 513.9,129.8 	"/>
</g>
<g>
	<ellipse class="st1" cx="512.8" cy="136" rx="0" ry="0"/>
	<polygon class="st1" points="512.8,136.8 511.8,136.8 511.8,136 511.8,135.2 513.8,135.2 513.9,136 513.9,136.8 	"/>
</g>
<g>
	<ellipse class="st1" cx="512.8" cy="143" rx="0" ry="0"/>
	<polygon class="st1" points="512.8,143.8 511.8,143.8 511.8,143 511.8,142.2 513.8,142.2 513.9,143 513.9,143.8 	"/>
</g>
<g>
	<ellipse class="st1" cx="512.8" cy="150" rx="0" ry="0"/>
	<polygon class="st1" points="512.8,150.8 511.8,150.8 511.8,150 511.8,149.2 513.8,149.2 513.9,150 513.9,150.8 	"/>
</g>
<g>
	<ellipse class="st1" cx="512.8" cy="157" rx="0" ry="0"/>
	<polygon class="st1" points="512.8,157.9 511.8,157.9 511.8,157 511.8,156.2 513.8,156.2 513.9,157 513.9,157.8 	"/>
</g>
<g>
	<ellipse class="st1" cx="512.8" cy="164.1" rx="0" ry="0"/>
	<polygon class="st1" points="512.8,164.9 511.8,164.9 511.8,164.1 511.8,163.3 513.8,163.2 513.9,164.1 513.9,164.9 	"/>
</g>
<g>
	<ellipse class="st1" cx="533.8" cy="86.8" rx="0" ry="0"/>
	<polygon class="st1" points="533.8,87.6 532.8,87.6 532.7,86.8 532.7,86 534.8,86 534.9,86.8 534.9,87.6 	"/>
</g>
<g>
	<ellipse class="st1" cx="533.8" cy="93.8" rx="0" ry="0"/>
	<polygon class="st1" points="533.8,94.7 532.8,94.7 532.7,93.8 532.7,93 534.8,93 534.9,93.8 534.9,94.7 	"/>
</g>
<g>
	<ellipse class="st1" cx="533.8" cy="100.9" rx="0" ry="0"/>
	<polygon class="st1" points="533.8,101.7 532.8,101.7 532.7,100.9 532.7,100.1 534.8,100 534.9,100.9 534.9,101.7 	"/>
</g>
<g>
	<ellipse class="st1" cx="533.8" cy="107.9" rx="0" ry="0"/>
	<polygon class="st1" points="533.8,108.7 532.8,108.7 532.7,107.9 532.7,107.1 534.8,107.1 534.9,107.9 534.9,108.7 	"/>
</g>
<g>
	<ellipse class="st1" cx="533.8" cy="114.9" rx="0" ry="0"/>
	<polygon class="st1" points="533.8,115.7 532.8,115.7 532.7,114.9 532.7,114.1 534.8,114.1 534.9,114.9 534.9,115.7 	"/>
</g>
<g>
	<ellipse class="st1" cx="533.8" cy="121.9" rx="0" ry="0"/>
	<polygon class="st1" points="533.8,122.8 532.8,122.8 532.7,121.9 532.7,121.1 534.8,121.1 534.9,121.9 534.9,122.7 	"/>
</g>
<g>
	<ellipse class="st1" cx="533.8" cy="129" rx="0" ry="0"/>
	<polygon class="st1" points="533.8,129.8 532.8,129.8 532.7,129 532.7,128.1 534.8,128.1 534.9,129 534.9,129.8 	"/>
</g>
<g>
	<ellipse class="st1" cx="533.8" cy="136" rx="0" ry="0"/>
	<polygon class="st1" points="533.8,136.8 532.8,136.8 532.7,136 532.7,135.2 534.8,135.2 534.9,136 534.9,136.8 	"/>
</g>
<g>
	<ellipse class="st1" cx="533.8" cy="143" rx="0" ry="0"/>
	<polygon class="st1" points="533.8,143.8 532.8,143.8 532.7,143 532.7,142.2 534.8,142.2 534.9,143 534.9,143.8 	"/>
</g>
<g>
	<ellipse class="st1" cx="533.8" cy="150" rx="0" ry="0"/>
	<polygon class="st1" points="533.8,150.8 532.8,150.8 532.7,150 532.7,149.2 534.8,149.2 534.9,150 534.9,150.8 	"/>
</g>
<g>
	<ellipse class="st1" cx="533.8" cy="157" rx="0" ry="0"/>
	<polygon class="st1" points="533.8,157.9 532.8,157.9 532.7,157 532.7,156.2 534.8,156.2 534.9,157 534.9,157.8 	"/>
</g>
<g>
	<ellipse class="st1" cx="533.8" cy="164.1" rx="0" ry="0"/>
	<polygon class="st1" points="533.8,164.9 532.8,164.9 532.7,164.1 532.7,163.3 534.8,163.2 534.9,164.1 534.9,164.9 	"/>
</g>
<g>
	<ellipse class="st1" cx="551.5" cy="86.8" rx="0" ry="0"/>
	<polygon class="st1" points="551.5,87.6 550.4,87.6 550.4,86.8 550.4,86 552.5,86 552.5,86.8 552.5,87.6 	"/>
</g>
<g>
	<ellipse class="st1" cx="551.5" cy="93.8" rx="0" ry="0"/>
	<polygon class="st1" points="551.5,94.7 550.4,94.7 550.4,93.8 550.4,93 552.5,93 552.5,93.8 552.5,94.7 	"/>
</g>
<g>
	<ellipse class="st1" cx="551.5" cy="100.9" rx="0" ry="0"/>
	<polygon class="st1" points="551.5,101.7 550.4,101.7 550.4,100.9 550.4,100.1 552.5,100 552.5,100.9 552.5,101.7 	"/>
</g>
<g>
	<ellipse class="st1" cx="551.5" cy="107.9" rx="0" ry="0"/>
	<polygon class="st1" points="551.5,108.7 550.4,108.7 550.4,107.9 550.4,107.1 552.5,107.1 552.5,107.9 552.5,108.7 	"/>
</g>
<g>
	<ellipse class="st1" cx="551.5" cy="114.9" rx="0" ry="0"/>
	<polygon class="st1" points="551.5,115.7 550.4,115.7 550.4,114.9 550.4,114.1 552.5,114.1 552.5,114.9 552.5,115.7 	"/>
</g>
<g>
	<ellipse class="st1" cx="551.5" cy="121.9" rx="0" ry="0"/>
	<polygon class="st1" points="551.5,122.8 550.4,122.8 550.4,121.9 550.4,121.1 552.5,121.1 552.5,121.9 552.5,122.7 	"/>
</g>
<g>
	<ellipse class="st1" cx="551.5" cy="129" rx="0" ry="0"/>
	<polygon class="st1" points="551.5,129.8 550.4,129.8 550.4,129 550.4,128.1 552.5,128.1 552.5,129 552.5,129.8 	"/>
</g>
<g>
	<ellipse class="st1" cx="551.5" cy="136" rx="0" ry="0"/>
	<polygon class="st1" points="551.5,136.8 550.4,136.8 550.4,136 550.4,135.2 552.5,135.2 552.5,136 552.5,136.8 	"/>
</g>
<g>
	<ellipse class="st1" cx="551.5" cy="143" rx="0" ry="0"/>
	<polygon class="st1" points="551.5,143.8 550.4,143.8 550.4,143 550.4,142.2 552.5,142.2 552.5,143 552.5,143.8 	"/>
</g>
<g>
	<ellipse class="st1" cx="551.5" cy="150" rx="0" ry="0"/>
	<polygon class="st1" points="551.5,150.8 550.4,150.8 550.4,150 550.4,149.2 552.5,149.2 552.5,150 552.5,150.8 	"/>
</g>
<g>
	<ellipse class="st1" cx="551.5" cy="157" rx="0" ry="0"/>
	<polygon class="st1" points="551.5,157.9 550.4,157.9 550.4,157 550.4,156.2 552.5,156.2 552.5,157 552.5,157.8 	"/>
</g>
<g>
	<ellipse class="st1" cx="551.5" cy="164.1" rx="0" ry="0"/>
	<polygon class="st1" points="551.5,164.9 550.4,164.9 550.4,164.1 550.4,163.3 552.5,163.2 552.5,164.1 552.5,164.9 	"/>
</g>
<g>
	<ellipse class="st1" cx="564.9" cy="86.8" rx="0" ry="0"/>
	<polygon class="st1" points="564.9,87.6 563.9,87.6 563.9,86.8 563.9,86 566,86 566,86.8 566,87.6 	"/>
</g>
<g>
	<ellipse class="st1" cx="564.9" cy="93.8" rx="0" ry="0"/>
	<polygon class="st1" points="564.9,94.7 563.9,94.7 563.9,93.8 563.9,93 566,93 566,93.8 566,94.7 	"/>
</g>
<g>
	<ellipse class="st1" cx="564.9" cy="100.9" rx="0" ry="0"/>
	<polygon class="st1" points="564.9,101.7 563.9,101.7 563.9,100.9 563.9,100.1 566,100 566,100.9 566,101.7 	"/>
</g>
<g>
	<ellipse class="st1" cx="564.9" cy="107.9" rx="0" ry="0"/>
	<polygon class="st1" points="564.9,108.7 563.9,108.7 563.9,107.9 563.9,107.1 566,107.1 566,107.9 566,108.7 	"/>
</g>
<g>
	<ellipse class="st1" cx="564.9" cy="114.9" rx="0" ry="0"/>
	<polygon class="st1" points="564.9,115.7 563.9,115.7 563.9,114.9 563.9,114.1 566,114.1 566,114.9 566,115.7 	"/>
</g>
<g>
	<ellipse class="st1" cx="564.9" cy="121.9" rx="0" ry="0"/>
	<polygon class="st1" points="564.9,122.8 563.9,122.8 563.9,121.9 563.9,121.1 566,121.1 566,121.9 566,122.7 	"/>
</g>
<g>
	<ellipse class="st1" cx="564.9" cy="129" rx="0" ry="0"/>
	<polygon class="st1" points="564.9,129.8 563.9,129.8 563.9,129 563.9,128.1 566,128.1 566,129 566,129.8 	"/>
</g>
<g>
	<ellipse class="st1" cx="564.9" cy="136" rx="0" ry="0"/>
	<polygon class="st1" points="564.9,136.8 563.9,136.8 563.9,136 563.9,135.2 566,135.2 566,136 566,136.8 	"/>
</g>
<g>
	<ellipse class="st1" cx="564.9" cy="143" rx="0" ry="0"/>
	<polygon class="st1" points="564.9,143.8 563.9,143.8 563.9,143 563.9,142.2 566,142.2 566,143 566,143.8 	"/>
</g>
<g>
	<ellipse class="st1" cx="564.9" cy="150" rx="0" ry="0"/>
	<polygon class="st1" points="564.9,150.8 563.9,150.8 563.9,150 563.9,149.2 566,149.2 566,150 566,150.8 	"/>
</g>
<g>
	<ellipse class="st1" cx="564.9" cy="157" rx="0" ry="0"/>
	<polygon class="st1" points="564.9,157.9 563.9,157.9 563.9,157 563.9,156.2 566,156.2 566,157 566,157.8 	"/>
</g>
<g>
	<ellipse class="st1" cx="564.9" cy="164.1" rx="0" ry="0"/>
	<polygon class="st1" points="564.9,164.9 563.9,164.9 563.9,164.1 563.9,163.3 566,163.2 566,164.1 566,164.9 	"/>
</g>
<g>
	<ellipse class="st1" cx="572.8" cy="86.8" rx="0" ry="0"/>
	<polygon class="st1" points="572.8,87.6 571.8,87.6 571.8,86.8 571.8,86 573.9,86 573.9,86.8 573.9,87.6 	"/>
</g>
<g>
	<ellipse class="st1" cx="572.8" cy="93.8" rx="0" ry="0"/>
	<polygon class="st1" points="572.8,94.7 571.8,94.7 571.8,93.8 571.8,93 573.9,93 573.9,93.8 573.9,94.7 	"/>
</g>
<g>
	<ellipse class="st1" cx="572.8" cy="100.9" rx="0" ry="0"/>
	<polygon class="st1" points="572.8,101.7 571.8,101.7 571.8,100.9 571.8,100.1 573.9,100 573.9,100.9 573.9,101.7 	"/>
</g>
<g>
	<ellipse class="st1" cx="572.8" cy="107.9" rx="0" ry="0"/>
	<polygon class="st1" points="572.8,108.7 571.8,108.7 571.8,107.9 571.8,107.1 573.9,107.1 573.9,107.9 573.9,108.7 	"/>
</g>
<g>
	<ellipse class="st1" cx="572.8" cy="114.9" rx="0" ry="0"/>
	<polygon class="st1" points="572.8,115.7 571.8,115.7 571.8,114.9 571.8,114.1 573.9,114.1 573.9,114.9 573.9,115.7 	"/>
</g>
<g>
	<ellipse class="st1" cx="572.8" cy="121.9" rx="0" ry="0"/>
	<polygon class="st1" points="572.8,122.8 571.8,122.8 571.8,121.9 571.8,121.1 573.9,121.1 573.9,121.9 573.9,122.7 	"/>
</g>
<g>
	<ellipse class="st1" cx="572.8" cy="129" rx="0" ry="0"/>
	<polygon class="st1" points="572.8,129.8 571.8,129.8 571.8,129 571.8,128.1 573.9,128.1 573.9,129 573.9,129.8 	"/>
</g>
<g>
	<ellipse class="st1" cx="572.8" cy="136" rx="0" ry="0"/>
	<polygon class="st1" points="572.8,136.8 571.8,136.8 571.8,136 571.8,135.2 573.9,135.2 573.9,136 573.9,136.8 	"/>
</g>
<g>
	<ellipse class="st1" cx="572.8" cy="143" rx="0" ry="0"/>
	<polygon class="st1" points="572.8,143.8 571.8,143.8 571.8,143 571.8,142.2 573.9,142.2 573.9,143 573.9,143.8 	"/>
</g>
<g>
	<ellipse class="st1" cx="572.8" cy="150" rx="0" ry="0"/>
	<polygon class="st1" points="572.8,150.8 571.8,150.8 571.8,150 571.8,149.2 573.9,149.2 573.9,150 573.9,150.8 	"/>
</g>
<g>
	<ellipse class="st1" cx="572.8" cy="157" rx="0" ry="0"/>
	<polygon class="st1" points="572.8,157.9 571.8,157.9 571.8,157 571.8,156.2 573.9,156.2 573.9,157 573.9,157.8 	"/>
</g>
<g>
	<ellipse class="st1" cx="572.8" cy="164.1" rx="0" ry="0"/>
	<polygon class="st1" points="572.8,164.9 571.8,164.9 571.8,164.1 571.8,163.3 573.9,163.2 573.9,164.1 573.9,164.9 	"/>
</g>
<g>
	<ellipse class="st1" cx="575.6" cy="86.8" rx="0" ry="0"/>
	<polygon class="st1" points="575.6,87.7 574.6,87.7 574.5,86.8 574.5,86 576.6,86 576.7,86.8 576.7,87.6 	"/>
</g>
<g>
	<ellipse class="st1" cx="575.6" cy="93.9" rx="0" ry="0"/>
	<polygon class="st1" points="575.6,94.7 574.6,94.7 574.5,93.9 574.5,93.1 576.6,93 576.7,93.9 576.7,94.7 	"/>
</g>
<g>
	<ellipse class="st1" cx="575.6" cy="100.9" rx="0" ry="0"/>
	<polygon class="st1" points="575.6,101.7 574.6,101.7 574.5,100.9 574.5,100.1 576.6,100.1 576.7,100.9 576.7,101.7 	"/>
</g>
<g>
	<ellipse class="st1" cx="575.6" cy="107.9" rx="0" ry="0"/>
	<polygon class="st1" points="575.6,108.7 574.6,108.7 574.5,107.9 574.5,107.1 576.6,107.1 576.7,107.9 576.7,108.7 	"/>
</g>
<g>
	<ellipse class="st1" cx="575.6" cy="114.9" rx="0" ry="0"/>
	<polygon class="st1" points="575.6,115.7 574.6,115.7 574.5,114.9 574.5,114.1 576.6,114.1 576.7,114.9 576.7,115.7 	"/>
</g>
<g>
	<ellipse class="st1" cx="575.6" cy="121.9" rx="0" ry="0"/>
	<polygon class="st1" points="575.6,122.8 574.6,122.8 574.5,121.9 574.5,121.1 576.6,121.1 576.7,121.9 576.7,122.8 	"/>
</g>
<g>
	<ellipse class="st1" cx="575.6" cy="129" rx="0" ry="0"/>
	<polygon class="st1" points="575.6,129.8 574.6,129.8 574.5,129 574.5,128.2 576.6,128.1 576.7,129 576.7,129.8 	"/>
</g>
<g>
	<ellipse class="st1" cx="575.6" cy="136" rx="0" ry="0"/>
	<polygon class="st1" points="575.6,136.8 574.6,136.8 574.5,136 574.5,135.2 576.6,135.2 576.7,136 576.7,136.8 	"/>
</g>
<g>
	<ellipse class="st1" cx="575.6" cy="143" rx="0" ry="0"/>
	<polygon class="st1" points="575.6,143.8 574.6,143.8 574.5,143 574.5,142.2 576.6,142.2 576.7,143 576.7,143.8 	"/>
</g>
<g>
	<ellipse class="st1" cx="575.6" cy="150" rx="0" ry="0"/>
	<polygon class="st1" points="575.6,150.9 574.6,150.9 574.5,150 574.5,149.2 576.6,149.2 576.7,150 576.7,150.8 	"/>
</g>
<g>
	<ellipse class="st1" cx="575.6" cy="157.1" rx="0" ry="0"/>
	<polygon class="st1" points="575.6,157.9 574.6,157.9 574.5,157.1 574.5,156.2 576.6,156.2 576.7,157.1 576.7,157.9 	"/>
</g>
<g>
	<ellipse class="st1" cx="575.6" cy="164.1" rx="0" ry="0"/>
	<polygon class="st1" points="575.6,164.9 574.6,164.9 574.5,164.1 574.5,163.3 576.6,163.3 576.7,164.1 576.7,164.9 	"/>
</g>
<g>
	<ellipse class="st1" cx="579.3" cy="86.8" rx="0" ry="0"/>
	<polygon class="st1" points="579.3,87.6 578.3,87.6 578.3,86.8 578.3,86 580.4,86 580.4,86.8 580.4,87.6 	"/>
</g>
<g>
	<ellipse class="st1" cx="579.3" cy="93.8" rx="0" ry="0"/>
	<polygon class="st1" points="579.3,94.7 578.3,94.7 578.3,93.8 578.3,93 580.4,93 580.4,93.8 580.4,94.7 	"/>
</g>
<g>
	<ellipse class="st1" cx="579.3" cy="100.9" rx="0" ry="0"/>
	<polygon class="st1" points="579.3,101.7 578.3,101.7 578.3,100.9 578.3,100.1 580.4,100 580.4,100.9 580.4,101.7 	"/>
</g>
<g>
	<ellipse class="st1" cx="579.3" cy="107.9" rx="0" ry="0"/>
	<polygon class="st1" points="579.3,108.7 578.3,108.7 578.3,107.9 578.3,107.1 580.4,107.1 580.4,107.9 580.4,108.7 	"/>
</g>
<g>
	<ellipse class="st1" cx="579.3" cy="114.9" rx="0" ry="0"/>
	<polygon class="st1" points="579.3,115.7 578.3,115.7 578.3,114.9 578.3,114.1 580.4,114.1 580.4,114.9 580.4,115.7 	"/>
</g>
<g>
	<ellipse class="st1" cx="579.3" cy="121.9" rx="0" ry="0"/>
	<polygon class="st1" points="579.3,122.8 578.3,122.8 578.3,121.9 578.3,121.1 580.4,121.1 580.4,121.9 580.4,122.7 	"/>
</g>
<g>
	<ellipse class="st1" cx="579.3" cy="129" rx="0" ry="0"/>
	<polygon class="st1" points="579.3,129.8 578.3,129.8 578.3,129 578.3,128.1 580.4,128.1 580.4,129 580.4,129.8 	"/>
</g>
<g>
	<ellipse class="st1" cx="579.3" cy="136" rx="0" ry="0"/>
	<polygon class="st1" points="579.3,136.8 578.3,136.8 578.3,136 578.3,135.2 580.4,135.2 580.4,136 580.4,136.8 	"/>
</g>
<g>
	<ellipse class="st1" cx="579.3" cy="143" rx="0" ry="0"/>
	<polygon class="st1" points="579.3,143.8 578.3,143.8 578.3,143 578.3,142.2 580.4,142.2 580.4,143 580.4,143.8 	"/>
</g>
<g>
	<ellipse class="st1" cx="579.3" cy="150" rx="0" ry="0"/>
	<polygon class="st1" points="579.3,150.8 578.3,150.8 578.3,150 578.3,149.2 580.4,149.2 580.4,150 580.4,150.8 	"/>
</g>
<g>
	<ellipse class="st1" cx="579.3" cy="157" rx="0" ry="0"/>
	<polygon class="st1" points="579.3,157.9 578.3,157.9 578.3,157 578.3,156.2 580.4,156.2 580.4,157 580.4,157.8 	"/>
</g>
<g>
	<ellipse class="st1" cx="579.3" cy="164.1" rx="0" ry="0"/>
	<polygon class="st1" points="579.3,164.9 578.3,164.9 578.3,164.1 578.3,163.3 580.4,163.2 580.4,164.1 580.4,164.9 	"/>
</g>
<g>
	<ellipse class="st1" cx="587.3" cy="86.8" rx="0" ry="0"/>
	<polygon class="st1" points="587.3,87.6 586.2,87.6 586.2,86.8 586.2,86 588.3,86 588.3,86.8 588.3,87.6 	"/>
</g>
<g>
	<ellipse class="st1" cx="587.3" cy="93.8" rx="0" ry="0"/>
	<polygon class="st1" points="587.3,94.7 586.2,94.7 586.2,93.8 586.2,93 588.3,93 588.3,93.8 588.3,94.7 	"/>
</g>
<g>
	<ellipse class="st1" cx="587.3" cy="100.9" rx="0" ry="0"/>
	<polygon class="st1" points="587.3,101.7 586.2,101.7 586.2,100.9 586.2,100.1 588.3,100 588.3,100.9 588.3,101.7 	"/>
</g>
<g>
	<ellipse class="st1" cx="587.3" cy="107.9" rx="0" ry="0"/>
	<polygon class="st1" points="587.3,108.7 586.2,108.7 586.2,107.9 586.2,107.1 588.3,107.1 588.3,107.9 588.3,108.7 	"/>
</g>
<g>
	<ellipse class="st1" cx="587.3" cy="114.9" rx="0" ry="0"/>
	<polygon class="st1" points="587.3,115.7 586.2,115.7 586.2,114.9 586.2,114.1 588.3,114.1 588.3,114.9 588.3,115.7 	"/>
</g>
<g>
	<ellipse class="st1" cx="587.3" cy="121.9" rx="0" ry="0"/>
	<polygon class="st1" points="587.3,122.8 586.2,122.8 586.2,121.9 586.2,121.1 588.3,121.1 588.3,121.9 588.3,122.7 	"/>
</g>
<g>
	<ellipse class="st1" cx="587.3" cy="129" rx="0" ry="0"/>
	<polygon class="st1" points="587.3,129.8 586.2,129.8 586.2,129 586.2,128.1 588.3,128.1 588.3,129 588.3,129.8 	"/>
</g>
<g>
	<ellipse class="st1" cx="587.3" cy="136" rx="0" ry="0"/>
	<polygon class="st1" points="587.3,136.8 586.2,136.8 586.2,136 586.2,135.2 588.3,135.2 588.3,136 588.3,136.8 	"/>
</g>
<g>
	<ellipse class="st1" cx="587.3" cy="143" rx="0" ry="0"/>
	<polygon class="st1" points="587.3,143.8 586.2,143.8 586.2,143 586.2,142.2 588.3,142.2 588.3,143 588.3,143.8 	"/>
</g>
<g>
	<ellipse class="st1" cx="587.3" cy="150" rx="0" ry="0"/>
	<polygon class="st1" points="587.3,150.8 586.2,150.8 586.2,150 586.2,149.2 588.3,149.2 588.3,150 588.3,150.8 	"/>
</g>
<g>
	<ellipse class="st1" cx="587.3" cy="157" rx="0" ry="0"/>
	<polygon class="st1" points="587.3,157.9 586.2,157.9 586.2,157 586.2,156.2 588.3,156.2 588.3,157 588.3,157.8 	"/>
</g>
<g>
	<ellipse class="st1" cx="587.3" cy="164.1" rx="0" ry="0"/>
	<polygon class="st1" points="587.3,164.9 586.2,164.9 586.2,164.1 586.2,163.3 588.3,163.2 588.3,164.1 588.3,164.9 	"/>
</g>
<g>
	<ellipse class="st1" cx="600.7" cy="86.8" rx="0" ry="0"/>
	<polygon class="st1" points="600.7,87.6 599.7,87.6 599.7,86.8 599.7,86 601.7,86 601.8,86.8 601.8,87.6 	"/>
</g>
<g>
	<ellipse class="st1" cx="600.7" cy="93.8" rx="0" ry="0"/>
	<polygon class="st1" points="600.7,94.7 599.7,94.7 599.7,93.8 599.7,93 601.7,93 601.8,93.8 601.8,94.7 	"/>
</g>
<g>
	<ellipse class="st1" cx="600.7" cy="100.9" rx="0" ry="0"/>
	<polygon class="st1" points="600.7,101.7 599.7,101.7 599.7,100.9 599.7,100.1 601.7,100 601.8,100.9 601.8,101.7 	"/>
</g>
<g>
	<ellipse class="st1" cx="600.7" cy="107.9" rx="0" ry="0"/>
	<polygon class="st1" points="600.7,108.7 599.7,108.7 599.7,107.9 599.7,107.1 601.7,107.1 601.8,107.9 601.8,108.7 	"/>
</g>
<g>
	<ellipse class="st1" cx="600.7" cy="114.9" rx="0" ry="0"/>
	<polygon class="st1" points="600.7,115.7 599.7,115.7 599.7,114.9 599.7,114.1 601.7,114.1 601.8,114.9 601.8,115.7 	"/>
</g>
<g>
	<ellipse class="st1" cx="600.7" cy="121.9" rx="0" ry="0"/>
	<polygon class="st1" points="600.7,122.8 599.7,122.8 599.7,121.9 599.7,121.1 601.7,121.1 601.8,121.9 601.8,122.7 	"/>
</g>
<g>
	<ellipse class="st1" cx="600.7" cy="129" rx="0" ry="0"/>
	<polygon class="st1" points="600.7,129.8 599.7,129.8 599.7,129 599.7,128.1 601.7,128.1 601.8,129 601.8,129.8 	"/>
</g>
<g>
	<ellipse class="st1" cx="600.7" cy="136" rx="0" ry="0"/>
	<polygon class="st1" points="600.7,136.8 599.7,136.8 599.7,136 599.7,135.2 601.7,135.2 601.8,136 601.8,136.8 	"/>
</g>
<g>
	<ellipse class="st1" cx="600.7" cy="143" rx="0" ry="0"/>
	<polygon class="st1" points="600.7,143.8 599.7,143.8 599.7,143 599.7,142.2 601.7,142.2 601.8,143 601.8,143.8 	"/>
</g>
<g>
	<ellipse class="st1" cx="600.7" cy="150" rx="0" ry="0"/>
	<polygon class="st1" points="600.7,150.8 599.7,150.8 599.7,150 599.7,149.2 601.7,149.2 601.8,150 601.8,150.8 	"/>
</g>
<g>
	<ellipse class="st1" cx="600.7" cy="157" rx="0" ry="0"/>
	<polygon class="st1" points="600.7,157.9 599.7,157.9 599.7,157 599.7,156.2 601.7,156.2 601.8,157 601.8,157.8 	"/>
</g>
<g>
	<ellipse class="st1" cx="600.7" cy="164.1" rx="0" ry="0"/>
	<polygon class="st1" points="600.7,164.9 599.7,164.9 599.7,164.1 599.7,163.3 601.7,163.2 601.8,164.1 601.8,164.9 	"/>
</g>
<g>
	<ellipse class="st1" cx="618.4" cy="86.8" rx="0" ry="0"/>
	<polygon class="st1" points="618.4,87.6 617.4,87.6 617.3,86.8 617.3,86 619.4,86 619.5,86.8 619.5,87.6 	"/>
</g>
<g>
	<ellipse class="st1" cx="618.4" cy="93.8" rx="0" ry="0"/>
	<polygon class="st1" points="618.4,94.7 617.4,94.7 617.3,93.8 617.3,93 619.4,93 619.5,93.8 619.5,94.7 	"/>
</g>
<g>
	<ellipse class="st1" cx="618.4" cy="100.9" rx="0" ry="0"/>
	<polygon class="st1" points="618.4,101.7 617.4,101.7 617.3,100.9 617.3,100.1 619.4,100 619.5,100.9 619.5,101.7 	"/>
</g>
<g>
	<ellipse class="st1" cx="618.4" cy="107.9" rx="0" ry="0"/>
	<polygon class="st1" points="618.4,108.7 617.4,108.7 617.3,107.9 617.3,107.1 619.4,107.1 619.5,107.9 619.5,108.7 	"/>
</g>
<g>
	<ellipse class="st1" cx="618.4" cy="114.9" rx="0" ry="0"/>
	<polygon class="st1" points="618.4,115.7 617.4,115.7 617.3,114.9 617.3,114.1 619.4,114.1 619.5,114.9 619.5,115.7 	"/>
</g>
<g>
	<ellipse class="st1" cx="618.4" cy="121.9" rx="0" ry="0"/>
	<polygon class="st1" points="618.4,122.8 617.4,122.8 617.3,121.9 617.3,121.1 619.4,121.1 619.5,121.9 619.5,122.7 	"/>
</g>
<g>
	<ellipse class="st1" cx="618.4" cy="129" rx="0" ry="0"/>
	<polygon class="st1" points="618.4,129.8 617.4,129.8 617.3,129 617.3,128.1 619.4,128.1 619.5,129 619.5,129.8 	"/>
</g>
<g>
	<ellipse class="st1" cx="618.4" cy="136" rx="0" ry="0"/>
	<polygon class="st1" points="618.4,136.8 617.4,136.8 617.3,136 617.3,135.2 619.4,135.2 619.5,136 619.5,136.8 	"/>
</g>
<g>
	<ellipse class="st1" cx="618.4" cy="143" rx="0" ry="0"/>
	<polygon class="st1" points="618.4,143.8 617.4,143.8 617.3,143 617.3,142.2 619.4,142.2 619.5,143 619.5,143.8 	"/>
</g>
<g>
	<ellipse class="st1" cx="618.4" cy="150" rx="0" ry="0"/>
	<polygon class="st1" points="618.4,150.8 617.4,150.8 617.3,150 617.3,149.2 619.4,149.2 619.5,150 619.5,150.8 	"/>
</g>
<g>
	<ellipse class="st1" cx="618.4" cy="157" rx="0" ry="0"/>
	<polygon class="st1" points="618.4,157.9 617.4,157.9 617.3,157 617.3,156.2 619.4,156.2 619.5,157 619.5,157.8 	"/>
</g>
<g>
	<ellipse class="st1" cx="618.4" cy="164.1" rx="0" ry="0"/>
	<polygon class="st1" points="618.4,164.9 617.4,164.9 617.3,164.1 617.3,163.3 619.4,163.2 619.5,164.1 619.5,164.9 	"/>
</g>
<g>
	<ellipse class="st1" cx="639.4" cy="86.8" rx="0" ry="0"/>
	<polygon class="st1" points="639.4,87.6 638.3,87.6 638.3,86.8 638.3,86 640.4,86 640.4,86.8 640.4,87.6 	"/>
</g>
<g>
	<ellipse class="st1" cx="639.4" cy="93.8" rx="0" ry="0"/>
	<polygon class="st1" points="639.4,94.7 638.3,94.7 638.3,93.8 638.3,93 640.4,93 640.4,93.8 640.4,94.7 	"/>
</g>
<g>
	<ellipse class="st1" cx="639.4" cy="100.9" rx="0" ry="0"/>
	<polygon class="st1" points="639.4,101.7 638.3,101.7 638.3,100.9 638.3,100.1 640.4,100 640.4,100.9 640.4,101.7 	"/>
</g>
<g>
	<ellipse class="st1" cx="639.4" cy="107.9" rx="0" ry="0"/>
	<polygon class="st1" points="639.4,108.7 638.3,108.7 638.3,107.9 638.3,107.1 640.4,107.1 640.4,107.9 640.4,108.7 	"/>
</g>
<g>
	<ellipse class="st1" cx="639.4" cy="114.9" rx="0" ry="0"/>
	<polygon class="st1" points="639.4,115.7 638.3,115.7 638.3,114.9 638.3,114.1 640.4,114.1 640.4,114.9 640.4,115.7 	"/>
</g>
<g>
	<ellipse class="st1" cx="639.4" cy="121.9" rx="0" ry="0"/>
	<polygon class="st1" points="639.4,122.8 638.3,122.8 638.3,121.9 638.3,121.1 640.4,121.1 640.4,121.9 640.4,122.7 	"/>
</g>
<g>
	<ellipse class="st1" cx="639.4" cy="129" rx="0" ry="0"/>
	<polygon class="st1" points="639.4,129.8 638.3,129.8 638.3,129 638.3,128.1 640.4,128.1 640.4,129 640.4,129.8 	"/>
</g>
<g>
	<ellipse class="st1" cx="639.4" cy="136" rx="0" ry="0"/>
	<polygon class="st1" points="639.4,136.8 638.3,136.8 638.3,136 638.3,135.2 640.4,135.2 640.4,136 640.4,136.8 	"/>
</g>
<g>
	<ellipse class="st1" cx="639.4" cy="143" rx="0" ry="0"/>
	<polygon class="st1" points="639.4,143.8 638.3,143.8 638.3,143 638.3,142.2 640.4,142.2 640.4,143 640.4,143.8 	"/>
</g>
<g>
	<ellipse class="st1" cx="639.4" cy="150" rx="0" ry="0"/>
	<polygon class="st1" points="639.4,150.8 638.3,150.8 638.3,150 638.3,149.2 640.4,149.2 640.4,150 640.4,150.8 	"/>
</g>
<g>
	<ellipse class="st1" cx="639.4" cy="157" rx="0" ry="0"/>
	<polygon class="st1" points="639.4,157.9 638.3,157.9 638.3,157 638.3,156.2 640.4,156.2 640.4,157 640.4,157.8 	"/>
</g>
<g>
	<ellipse class="st1" cx="639.4" cy="164.1" rx="0" ry="0"/>
	<polygon class="st1" points="639.4,164.9 638.3,164.9 638.3,164.1 638.3,163.3 640.4,163.2 640.4,164.1 640.4,164.9 	"/>
</g>
<g>
	<ellipse class="st1" cx="664.5" cy="86.8" rx="0" ry="0"/>
	<polygon class="st1" points="664.5,87.6 663.5,87.6 663.5,86.8 663.5,86 665.6,86 665.6,86.8 665.6,87.6 	"/>
</g>
<g>
	<ellipse class="st1" cx="664.5" cy="93.8" rx="0" ry="0"/>
	<polygon class="st1" points="664.5,94.7 663.5,94.7 663.5,93.8 663.5,93 665.6,93 665.6,93.8 665.6,94.7 	"/>
</g>
<g>
	<ellipse class="st1" cx="664.5" cy="100.9" rx="0" ry="0"/>
	<polygon class="st1" points="664.5,101.7 663.5,101.7 663.5,100.9 663.5,100.1 665.6,100 665.6,100.9 665.6,101.7 	"/>
</g>
<g>
	<ellipse class="st1" cx="664.5" cy="107.9" rx="0" ry="0"/>
	<polygon class="st1" points="664.5,108.7 663.5,108.7 663.5,107.9 663.5,107.1 665.6,107.1 665.6,107.9 665.6,108.7 	"/>
</g>
<g>
	<ellipse class="st1" cx="664.5" cy="114.9" rx="0" ry="0"/>
	<polygon class="st1" points="664.5,115.7 663.5,115.7 663.5,114.9 663.5,114.1 665.6,114.1 665.6,114.9 665.6,115.7 	"/>
</g>
<g>
	<ellipse class="st1" cx="664.5" cy="121.9" rx="0" ry="0"/>
	<polygon class="st1" points="664.5,122.8 663.5,122.8 663.5,121.9 663.5,121.1 665.6,121.1 665.6,121.9 665.6,122.7 	"/>
</g>
<g>
	<ellipse class="st1" cx="664.5" cy="129" rx="0" ry="0"/>
	<polygon class="st1" points="664.5,129.8 663.5,129.8 663.5,129 663.5,128.1 665.6,128.1 665.6,129 665.6,129.8 	"/>
</g>
<g>
	<ellipse class="st1" cx="664.5" cy="136" rx="0" ry="0"/>
	<polygon class="st1" points="664.5,136.8 663.5,136.8 663.5,136 663.5,135.2 665.6,135.2 665.6,136 665.6,136.8 	"/>
</g>
<g>
	<ellipse class="st1" cx="664.5" cy="143" rx="0" ry="0"/>
	<polygon class="st1" points="664.5,143.8 663.5,143.8 663.5,143 663.5,142.2 665.6,142.2 665.6,143 665.6,143.8 	"/>
</g>
<g>
	<ellipse class="st1" cx="664.5" cy="150" rx="0" ry="0"/>
	<polygon class="st1" points="664.5,150.8 663.5,150.8 663.5,150 663.5,149.2 665.6,149.2 665.6,150 665.6,150.8 	"/>
</g>
<g>
	<ellipse class="st1" cx="664.5" cy="157" rx="0" ry="0"/>
	<polygon class="st1" points="664.5,157.9 663.5,157.9 663.5,157 663.5,156.2 665.6,156.2 665.6,157 665.6,157.8 	"/>
</g>
<g>
	<ellipse class="st1" cx="664.5" cy="164.1" rx="0" ry="0"/>
	<polygon class="st1" points="664.5,164.9 663.5,164.9 663.5,164.1 663.5,163.3 665.6,163.2 665.6,164.1 665.6,164.9 	"/>
</g>
<g>
	<ellipse class="st1" cx="695.3" cy="86.8" rx="0" ry="0"/>
	<polygon class="st1" points="695.3,87.6 694.3,87.6 694.2,86.8 694.2,86 696.3,86 696.3,86.8 696.3,87.6 	"/>
</g>
<g>
	<ellipse class="st1" cx="695.3" cy="93.8" rx="0" ry="0"/>
	<polygon class="st1" points="695.3,94.7 694.3,94.7 694.2,93.8 694.2,93 696.3,93 696.3,93.8 696.3,94.7 	"/>
</g>
<g>
	<ellipse class="st1" cx="695.3" cy="100.9" rx="0" ry="0"/>
	<polygon class="st1" points="695.3,101.7 694.3,101.7 694.2,100.9 694.2,100.1 696.3,100 696.3,100.9 696.3,101.7 	"/>
</g>
<g>
	<ellipse class="st1" cx="695.3" cy="107.9" rx="0" ry="0"/>
	<polygon class="st1" points="695.3,108.7 694.3,108.7 694.2,107.9 694.2,107.1 696.3,107.1 696.3,107.9 696.3,108.7 	"/>
</g>
<g>
	<ellipse class="st1" cx="695.3" cy="114.9" rx="0" ry="0"/>
	<polygon class="st1" points="695.3,115.7 694.3,115.7 694.2,114.9 694.2,114.1 696.3,114.1 696.3,114.9 696.3,115.7 	"/>
</g>
<g>
	<ellipse class="st1" cx="695.3" cy="121.9" rx="0" ry="0"/>
	<polygon class="st1" points="695.3,122.8 694.3,122.8 694.2,121.9 694.2,121.1 696.3,121.1 696.3,121.9 696.3,122.7 	"/>
</g>
<g>
	<ellipse class="st1" cx="695.3" cy="129" rx="0" ry="0"/>
	<polygon class="st1" points="695.3,129.8 694.3,129.8 694.2,129 694.2,128.1 696.3,128.1 696.3,129 696.3,129.8 	"/>
</g>
<g>
	<ellipse class="st1" cx="695.3" cy="136" rx="0" ry="0"/>
	<polygon class="st1" points="695.3,136.8 694.3,136.8 694.2,136 694.2,135.2 696.3,135.2 696.3,136 696.3,136.8 	"/>
</g>
<g>
	<ellipse class="st1" cx="695.3" cy="143" rx="0" ry="0"/>
	<polygon class="st1" points="695.3,143.8 694.3,143.8 694.2,143 694.2,142.2 696.3,142.2 696.3,143 696.3,143.8 	"/>
</g>
<g>
	<ellipse class="st1" cx="695.3" cy="150" rx="0" ry="0"/>
	<polygon class="st1" points="695.3,150.8 694.3,150.8 694.2,150 694.2,149.2 696.3,149.2 696.3,150 696.3,150.8 	"/>
</g>
<g>
	<ellipse class="st1" cx="695.3" cy="157" rx="0" ry="0"/>
	<polygon class="st1" points="695.3,157.9 694.3,157.9 694.2,157 694.2,156.2 696.3,156.2 696.3,157 696.3,157.8 	"/>
</g>
<g>
	<ellipse class="st1" cx="695.3" cy="164.1" rx="0" ry="0"/>
	<polygon class="st1" points="695.3,164.9 694.3,164.9 694.2,164.1 694.2,163.3 696.3,163.2 696.3,164.1 696.3,164.9 	"/>
</g>
<g>
	<ellipse class="st1" cx="730.7" cy="86.8" rx="0" ry="0"/>
	<polygon class="st1" points="730.7,87.6 729.7,87.6 729.7,86.8 729.7,86 731.7,86 731.8,86.8 731.8,87.6 	"/>
</g>
<g>
	<ellipse class="st1" cx="730.7" cy="93.8" rx="0" ry="0"/>
	<polygon class="st1" points="730.7,94.7 729.7,94.7 729.7,93.8 729.7,93 731.7,93 731.8,93.8 731.8,94.7 	"/>
</g>
<g>
	<ellipse class="st1" cx="730.7" cy="100.9" rx="0" ry="0"/>
	<polygon class="st1" points="730.7,101.7 729.7,101.7 729.7,100.9 729.7,100.1 731.7,100 731.8,100.9 731.8,101.7 	"/>
</g>
<g>
	<ellipse class="st1" cx="730.7" cy="107.9" rx="0" ry="0"/>
	<polygon class="st1" points="730.7,108.7 729.7,108.7 729.7,107.9 729.7,107.1 731.7,107.1 731.8,107.9 731.8,108.7 	"/>
</g>
<g>
	<ellipse class="st1" cx="730.7" cy="114.9" rx="0" ry="0"/>
	<polygon class="st1" points="730.7,115.7 729.7,115.7 729.7,114.9 729.7,114.1 731.7,114.1 731.8,114.9 731.8,115.7 	"/>
</g>
<g>
	<ellipse class="st1" cx="730.7" cy="121.9" rx="0" ry="0"/>
	<polygon class="st1" points="730.7,122.8 729.7,122.8 729.7,121.9 729.7,121.1 731.7,121.1 731.8,121.9 731.8,122.7 	"/>
</g>
<g>
	<ellipse class="st1" cx="730.7" cy="129" rx="0" ry="0"/>
	<polygon class="st1" points="730.7,129.8 729.7,129.8 729.7,129 729.7,128.1 731.7,128.1 731.8,129 731.8,129.8 	"/>
</g>
<g>
	<ellipse class="st1" cx="730.7" cy="136" rx="0" ry="0"/>
	<polygon class="st1" points="730.7,136.8 729.7,136.8 729.7,136 729.7,135.2 731.7,135.2 731.8,136 731.8,136.8 	"/>
</g>
<g>
	<ellipse class="st1" cx="730.7" cy="143" rx="0" ry="0"/>
	<polygon class="st1" points="730.7,143.8 729.7,143.8 729.7,143 729.7,142.2 731.7,142.2 731.8,143 731.8,143.8 	"/>
</g>
<g>
	<ellipse class="st1" cx="730.7" cy="150" rx="0" ry="0"/>
	<polygon class="st1" points="730.7,150.8 729.7,150.8 729.7,150 729.7,149.2 731.7,149.2 731.8,150 731.8,150.8 	"/>
</g>
<g>
	<ellipse class="st1" cx="730.7" cy="157" rx="0" ry="0"/>
	<polygon class="st1" points="730.7,157.9 729.7,157.9 729.7,157 729.7,156.2 731.7,156.2 731.8,157 731.8,157.8 	"/>
</g>
<g>
	<ellipse class="st1" cx="730.7" cy="164.1" rx="0" ry="0"/>
	<polygon class="st1" points="730.7,164.9 729.7,164.9 729.7,164.1 729.7,163.3 731.7,163.2 731.8,164.1 731.8,164.9 	"/>
</g>
<g>
	<ellipse class="st1" cx="766.1" cy="86.8" rx="0" ry="0"/>
	<polygon class="st1" points="766.1,87.6 765,87.6 765,86.8 765,86 767.1,86 767.1,86.8 767.1,87.6 	"/>
</g>
<g>
	<ellipse class="st1" cx="766.1" cy="93.8" rx="0" ry="0"/>
	<polygon class="st1" points="766.1,94.7 765,94.7 765,93.8 765,93 767.1,93 767.1,93.8 767.1,94.7 	"/>
</g>
<g>
	<ellipse class="st1" cx="766.1" cy="100.9" rx="0" ry="0"/>
	<polygon class="st1" points="766.1,101.7 765,101.7 765,100.9 765,100.1 767.1,100 767.1,100.9 767.1,101.7 	"/>
</g>
<g>
	<ellipse class="st1" cx="766.1" cy="107.9" rx="0" ry="0"/>
	<polygon class="st1" points="766.1,108.7 765,108.7 765,107.9 765,107.1 767.1,107.1 767.1,107.9 767.1,108.7 	"/>
</g>
<g>
	<ellipse class="st1" cx="766.1" cy="114.9" rx="0" ry="0"/>
	<polygon class="st1" points="766.1,115.7 765,115.7 765,114.9 765,114.1 767.1,114.1 767.1,114.9 767.1,115.7 	"/>
</g>
<g>
	<ellipse class="st1" cx="766.1" cy="121.9" rx="0" ry="0"/>
	<polygon class="st1" points="766.1,122.8 765,122.8 765,121.9 765,121.1 767.1,121.1 767.1,121.9 767.1,122.7 	"/>
</g>
<g>
	<ellipse class="st1" cx="766.1" cy="129" rx="0" ry="0"/>
	<polygon class="st1" points="766.1,129.8 765,129.8 765,129 765,128.1 767.1,128.1 767.1,129 767.1,129.8 	"/>
</g>
<g>
	<ellipse class="st1" cx="766.1" cy="136" rx="0" ry="0"/>
	<polygon class="st1" points="766.1,136.8 765,136.8 765,136 765,135.2 767.1,135.2 767.1,136 767.1,136.8 	"/>
</g>
<g>
	<ellipse class="st1" cx="766.1" cy="143" rx="0" ry="0"/>
	<polygon class="st1" points="766.1,143.8 765,143.8 765,143 765,142.2 767.1,142.2 767.1,143 767.1,143.8 	"/>
</g>
<g>
	<ellipse class="st1" cx="766.1" cy="150" rx="0" ry="0"/>
	<polygon class="st1" points="766.1,150.8 765,150.8 765,150 765,149.2 767.1,149.2 767.1,150 767.1,150.8 	"/>
</g>
<g>
	<ellipse class="st1" cx="766.1" cy="157" rx="0" ry="0"/>
	<polygon class="st1" points="766.1,157.9 765,157.9 765,157 765,156.2 767.1,156.2 767.1,157 767.1,157.8 	"/>
</g>
<g>
	<ellipse class="st1" cx="766.1" cy="164.1" rx="0" ry="0"/>
	<polygon class="st1" points="766.1,164.9 765,164.9 765,164.1 765,163.3 767.1,163.2 767.1,164.1 767.1,164.9 	"/>
</g>
<g>
	<ellipse class="st1" cx="796.7" cy="86.8" rx="0" ry="0"/>
	<polygon class="st1" points="796.7,87.6 795.7,87.6 795.7,86.8 795.7,86 797.8,86 797.8,86.8 797.8,87.6 	"/>
</g>
<g>
	<ellipse class="st1" cx="796.7" cy="93.8" rx="0" ry="0"/>
	<polygon class="st1" points="796.7,94.7 795.7,94.7 795.7,93.8 795.7,93 797.8,93 797.8,93.8 797.8,94.7 	"/>
</g>
<g>
	<ellipse class="st1" cx="796.7" cy="100.9" rx="0" ry="0"/>
	<polygon class="st1" points="796.7,101.7 795.7,101.7 795.7,100.9 795.7,100.1 797.8,100 797.8,100.9 797.8,101.7 	"/>
</g>
<g>
	<ellipse class="st1" cx="796.7" cy="107.9" rx="0" ry="0"/>
	<polygon class="st1" points="796.7,108.7 795.7,108.7 795.7,107.9 795.7,107.1 797.8,107.1 797.8,107.9 797.8,108.7 	"/>
</g>
<g>
	<ellipse class="st1" cx="796.7" cy="114.9" rx="0" ry="0"/>
	<polygon class="st1" points="796.7,115.7 795.7,115.7 795.7,114.9 795.7,114.1 797.8,114.1 797.8,114.9 797.8,115.7 	"/>
</g>
<g>
	<ellipse class="st1" cx="796.7" cy="121.9" rx="0" ry="0"/>
	<polygon class="st1" points="796.7,122.8 795.7,122.8 795.7,121.9 795.7,121.1 797.8,121.1 797.8,121.9 797.8,122.7 	"/>
</g>
<g>
	<ellipse class="st1" cx="796.7" cy="129" rx="0" ry="0"/>
	<polygon class="st1" points="796.7,129.8 795.7,129.8 795.7,129 795.7,128.1 797.8,128.1 797.8,129 797.8,129.8 	"/>
</g>
<g>
	<ellipse class="st1" cx="796.7" cy="136" rx="0" ry="0"/>
	<polygon class="st1" points="796.7,136.8 795.7,136.8 795.7,136 795.7,135.2 797.8,135.2 797.8,136 797.8,136.8 	"/>
</g>
<g>
	<ellipse class="st1" cx="796.7" cy="143" rx="0" ry="0"/>
	<polygon class="st1" points="796.7,143.8 795.7,143.8 795.7,143 795.7,142.2 797.8,142.2 797.8,143 797.8,143.8 	"/>
</g>
<g>
	<ellipse class="st1" cx="796.7" cy="150" rx="0" ry="0"/>
	<polygon class="st1" points="796.7,150.8 795.7,150.8 795.7,150 795.7,149.2 797.8,149.2 797.8,150 797.8,150.8 	"/>
</g>
<g>
	<ellipse class="st1" cx="796.7" cy="157" rx="0" ry="0"/>
	<polygon class="st1" points="796.7,157.9 795.7,157.9 795.7,157 795.7,156.2 797.8,156.2 797.8,157 797.8,157.8 	"/>
</g>
<g>
	<ellipse class="st1" cx="796.7" cy="164.1" rx="0" ry="0"/>
	<polygon class="st1" points="796.7,164.9 795.7,164.9 795.7,164.1 795.7,163.3 797.8,163.2 797.8,164.1 797.8,164.9 	"/>
</g>
<g>
	<line class="st2" x1="263.8" y1="30.8" x2="263.8" y2="58.6"/>
	<polygon class="st1" points="258,54.6 263.8,76.3 269.6,54.6 	"/>
</g>
<g>
	<line class="st2" x1="417.8" y1="30.8" x2="417.8" y2="58.6"/>
	<polygon class="st1" points="412,54.6 417.8,76.3 423.6,54.6 	"/>
</g>
<g>
	<line class="st2" x1="264" y1="176.6" x2="263.9" y2="194.3"/>
	<polygon class="st1" points="258.2,179.1 264.1,165.4 269.8,179.1 	"/>
	<polygon class="st1" points="258.1,191.8 263.8,205.5 269.7,191.8 	"/>
</g>
<g>
	<line class="st2" x1="417.3" y1="180.4" x2="417.3" y2="257.7"/>
	<polygon class="st1" points="411.4,182.9 417.3,169.2 423.1,182.9 	"/>
	<polygon class="st1" points="411.4,255.2 417.3,268.8 423.1,255.2 	"/>
</g>
<g>
	<path class="st1" d="M199.1,19c-1.6,0-3-0.4-4.2-1.1s-2.1-1.8-2.8-3.1s-1-2.9-1-4.6s0.3-3.2,1-4.4s1.6-2.3,2.7-3.1s2.6-1.1,4.3-1.1
		s3.1,0.4,4.4,1.3s2.1,2.2,2.5,4l-2.2,0.5c-0.3-1.4-0.9-2.4-1.8-3.1s-1.8-1-3-1s-2.2,0.3-3,0.9s-1.5,1.4-1.9,2.5s-0.7,2.2-0.7,3.6
		s0.2,2.6,0.7,3.6s1.1,1.9,1.9,2.5c0.8,0.6,1.8,0.9,2.9,0.9c1.2,0,2.3-0.4,3.2-1.1c0.9-0.7,1.5-1.8,1.7-3.1l2.3,0.6
		c-0.5,1.7-1.3,3-2.6,4S200.9,19,199.1,19L199.1,19z"/>
	<path class="st1" d="M214.1,19c-1.2,0-2.2-0.3-3.1-0.8s-1.6-1.3-2.1-2.3s-0.8-2.1-0.8-3.4s0.2-2.4,0.8-3.4s1.2-1.8,2.1-2.3
		s1.9-0.8,3.1-0.8s2.2,0.3,3.1,0.8s1.6,1.3,2.1,2.3s0.8,2.1,0.8,3.4s-0.2,2.4-0.8,3.4s-1.2,1.8-2.1,2.3S215.3,19,214.1,19z
		 M214.1,17.3c1.2,0,2.1-0.5,2.8-1.3c0.7-0.9,1-2.1,1-3.6s-0.4-2.8-1-3.6s-1.6-1.3-2.8-1.3s-2.1,0.4-2.8,1.3s-1,2.1-1,3.6
		s0.4,2.7,1,3.6C212,16.9,212.9,17.3,214.1,17.3L214.1,17.3z"/>
	<path class="st1" d="M223.1,18.7V6h1.9v2.2c0.3-0.7,0.8-1.2,1.5-1.7s1.5-0.7,2.5-0.7c0.8,0,1.6,0.2,2.2,0.7s1.1,1.1,1.4,1.9
		c0.4-0.8,0.9-1.4,1.6-1.9s1.5-0.7,2.4-0.7c1.2,0,2.2,0.4,2.9,1.3s1.1,2.1,1.1,3.6v8h-2v-7.8c0-0.7-0.1-1.3-0.2-1.9
		s-0.4-0.9-0.7-1.2s-0.8-0.4-1.4-0.4c-0.6,0-1.2,0.2-1.7,0.5s-0.9,0.9-1.2,1.6s-0.4,1.5-0.4,2.5v6.6h-2v-7.8c0-0.7-0.1-1.3-0.2-1.9
		s-0.4-0.9-0.7-1.2s-0.8-0.4-1.4-0.4c-0.6,0-1.2,0.2-1.7,0.5s-0.9,0.9-1.2,1.6s-0.5,1.6-0.5,2.6v6.6L223.1,18.7L223.1,18.7z"/>
	<path class="st1" d="M244,23.3V6h1.9v2.6l-0.1-0.2c0.3-0.9,0.9-1.6,1.7-2.1s1.6-0.7,2.5-0.7c1,0,1.9,0.3,2.7,0.8s1.4,1.3,1.8,2.3
		s0.7,2.2,0.7,3.5s-0.2,2.5-0.7,3.5s-1,1.7-1.8,2.3s-1.7,0.8-2.7,0.8c-0.8,0-1.6-0.2-2.5-0.6s-1.4-1.1-1.8-2.1l0.2-0.1v7.1L244,23.3
		L244,23.3z M249.5,17.3c1,0,1.9-0.4,2.6-1.3c0.7-0.9,1-2.1,1-3.7s-0.3-2.8-1-3.6s-1.5-1.3-2.6-1.3c-0.7,0-1.3,0.2-1.8,0.5
		s-1,0.9-1.3,1.6s-0.5,1.7-0.5,2.8c0,1.7,0.4,3,1,3.8C247.7,16.9,248.6,17.3,249.5,17.3L249.5,17.3z"/>
	<path class="st1" d="M258.2,18.7V6h1.9v2.7L260,8.4c0.4-0.9,0.9-1.5,1.7-2s1.5-0.7,2.3-0.7c0.2,0,0.5,0,0.7,0.1s0.4,0.1,0.6,0.2
		L265,7.9c-0.4-0.1-0.9-0.2-1.3-0.2c-0.3,0-0.6,0.1-1,0.2s-0.8,0.3-1.2,0.6s-0.7,0.8-1,1.4s-0.4,1.5-0.4,2.5v6.3L258.2,18.7
		L258.2,18.7z"/>
	<path class="st1" d="M272.3,19c-1.2,0-2.2-0.3-3.1-0.8s-1.6-1.3-2-2.3s-0.7-2.1-0.7-3.5s0.2-2.5,0.7-3.5s1.1-1.8,2-2.3
		s1.9-0.8,3.1-0.8c0.7,0,1.4,0.1,2,0.3s1.3,0.6,1.9,1.1s1,1.2,1.4,2.2s0.5,2.1,0.5,3.5h-10.2v-1.6h8.5l-0.6,0.7c0-1.1-0.2-2-0.5-2.7
		s-0.7-1.2-1.2-1.5s-1.1-0.4-1.7-0.4c-0.7,0-1.4,0.2-1.9,0.6s-1,0.9-1.2,1.7s-0.4,1.6-0.4,2.7c0,1.6,0.3,2.8,1,3.7
		c0.6,0.9,1.6,1.3,2.8,1.3c0.9,0,1.6-0.2,2.1-0.6s1-1,1.3-1.9l1.9,0.7c-0.3,0.7-0.7,1.4-1.2,1.9s-1.1,0.9-1.8,1.2S273.2,19,272.3,19
		L272.3,19z"/>
	<path class="st1" d="M285.2,19c-0.9,0-1.7-0.1-2.5-0.5s-1.4-0.8-1.9-1.4s-0.8-1.4-1-2.3l2.1-0.4c0.1,1,0.4,1.7,1,2.2
		s1.3,0.7,2.2,0.7s1.6-0.2,2.1-0.7s0.8-1,0.8-1.6c0-0.5-0.2-1-0.6-1.3s-0.9-0.5-1.6-0.7l-1.5-0.3c-0.4-0.1-0.8-0.2-1.3-0.3
		s-0.9-0.3-1.2-0.6s-0.7-0.6-0.9-1s-0.4-0.9-0.4-1.5c0-0.8,0.2-1.5,0.6-2s1-0.9,1.7-1.2s1.5-0.4,2.3-0.4c0.9,0,1.7,0.1,2.4,0.4
		s1.2,0.7,1.6,1.2s0.7,1.2,0.8,1.9l-2.2,0.4c0-0.5-0.2-0.9-0.4-1.2s-0.5-0.6-0.9-0.8s-0.9-0.3-1.5-0.3c-0.7,0-1.4,0.1-1.9,0.5
		s-0.8,0.8-0.8,1.4c0,0.3,0.1,0.6,0.3,0.9s0.4,0.4,0.8,0.6s0.8,0.3,1.3,0.4l1.6,0.3c0.7,0.1,1.3,0.3,1.8,0.6s1,0.6,1.3,1.1
		s0.5,1.1,0.5,1.8c0,0.8-0.2,1.6-0.6,2.2s-1,1.1-1.7,1.4S286.2,19,285.2,19L285.2,19z"/>
	<path class="st1" d="M297.7,19c-0.9,0-1.7-0.1-2.5-0.5s-1.4-0.8-1.9-1.4s-0.8-1.4-1-2.3l2.1-0.4c0.1,1,0.4,1.7,1,2.2
		s1.3,0.7,2.2,0.7s1.6-0.2,2.1-0.7s0.8-1,0.8-1.6c0-0.5-0.2-1-0.6-1.3s-0.9-0.5-1.6-0.7l-1.5-0.3c-0.4-0.1-0.8-0.2-1.3-0.3
		s-0.9-0.3-1.2-0.6s-0.7-0.6-0.9-1S293,10,293,9.3c0-0.8,0.2-1.5,0.6-2s1-0.9,1.7-1.2s1.5-0.4,2.3-0.4c0.9,0,1.7,0.1,2.4,0.4
		s1.2,0.7,1.6,1.2s0.7,1.2,0.8,1.9l-2.2,0.4c0-0.5-0.2-0.9-0.4-1.2s-0.5-0.6-0.9-0.8s-0.9-0.3-1.5-0.3c-0.7,0-1.4,0.1-1.9,0.5
		s-0.8,0.8-0.8,1.4c0,0.3,0.1,0.6,0.3,0.9s0.4,0.4,0.8,0.6s0.8,0.3,1.3,0.4l1.6,0.3c0.7,0.1,1.3,0.3,1.8,0.6s1,0.6,1.3,1.1
		s0.5,1.1,0.5,1.8c0,0.8-0.2,1.6-0.6,2.2s-1,1.1-1.7,1.4S298.6,19,297.7,19L297.7,19z"/>
	<path class="st1" d="M306.6,3.9c-0.5,0-0.8-0.2-1.2-0.5S305,2.7,305,2.3s0.2-0.8,0.5-1.2s0.7-0.5,1.2-0.5s0.9,0.2,1.2,0.5
		s0.5,0.7,0.5,1.2s-0.2,0.8-0.5,1.2S307.1,3.9,306.6,3.9z M305.6,18.7V6h2v12.7H305.6z"/>
	<path class="st1" d="M316.6,19c-1.2,0-2.2-0.3-3.1-0.8s-1.6-1.3-2.1-2.3s-0.8-2.1-0.8-3.4s0.2-2.4,0.8-3.4s1.2-1.8,2.1-2.3
		s2-0.8,3.1-0.8s2.2,0.3,3.1,0.8s1.6,1.3,2.1,2.3s0.8,2.1,0.8,3.4s-0.2,2.4-0.8,3.4s-1.2,1.8-2.1,2.3S317.7,19,316.6,19z
		 M316.6,17.3c1.2,0,2.1-0.5,2.8-1.3c0.7-0.9,1-2.1,1-3.6s-0.4-2.8-1-3.6s-1.6-1.3-2.8-1.3s-2.1,0.4-2.8,1.3s-1,2.1-1,3.6
		s0.4,2.7,1,3.6C314.4,16.9,315.4,17.3,316.6,17.3z"/>
	<path class="st1" d="M325.5,18.7V6h1.9v2.9l-0.1-0.5c0.3-0.7,0.9-1.4,1.6-1.9s1.6-0.8,2.6-0.8c0.9,0,1.7,0.2,2.3,0.6s1.1,1,1.5,1.7
		s0.5,1.6,0.5,2.7v8h-2v-7.8c0-1-0.2-1.9-0.6-2.5s-1.1-1-2.1-1c-1,0-1.9,0.4-2.6,1.2s-1,2-1,3.5v6.6L325.5,18.7L325.5,18.7z"/>
</g>
<g>
	<path class="st1" d="M356.4,18.7V1.8h6.4c3.9,0,5.9,1.5,5.9,4.4s-2,4.5-5.9,4.5h-4.3v8L356.4,18.7L356.4,18.7z M358.5,9h4.3
		c1.2,0,2.1-0.2,2.7-0.7s1-1.1,1-2s-0.3-1.6-1-2s-1.5-0.7-2.7-0.7h-4.3V9z M366.3,18.7l-4.5-8.5h2.4l4.5,8.5H366.3z"/>
	<path class="st1" d="M374.8,19c-0.8,0-1.6-0.2-2.2-0.5s-1.1-0.8-1.4-1.3s-0.5-1.2-0.5-1.9c0-0.8,0.2-1.5,0.7-2.1s1.1-1.1,2.1-1.5
		s2.1-0.6,3.6-0.6h2.1l-0.2,0.2v-0.7c0-1-0.2-1.8-0.6-2.3s-1.1-0.8-2-0.8c-0.9,0-1.6,0.2-2.1,0.7s-0.7,1.1-0.8,1.9l-2.2-0.5
		c0.1-0.7,0.3-1.3,0.8-1.9s1-1,1.8-1.3s1.6-0.5,2.6-0.5s1.9,0.2,2.5,0.6s1.1,0.9,1.4,1.7s0.5,1.6,0.5,2.6v5.8c0,0.3,0,0.4,0.1,0.5
		s0.2,0.1,0.5,0.1h0.7v1.6h-1.2c-0.5,0-1-0.2-1.3-0.5s-0.5-0.8-0.5-1.3v-0.9h0.3c-0.1,0.3-0.3,0.7-0.5,1s-0.5,0.7-0.9,1
		s-0.8,0.5-1.3,0.7S375.4,19,374.8,19L374.8,19z M375.2,17.3c0.6,0,1.2-0.2,1.8-0.5s1-0.8,1.3-1.5c0.3-0.7,0.5-1.6,0.5-2.7v-0.1h-2
		c-1,0-1.9,0.1-2.5,0.4s-1,0.6-1.3,1s-0.4,0.8-0.4,1.2s0.1,0.8,0.3,1.1c0.2,0.3,0.5,0.6,0.8,0.8S374.7,17.3,375.2,17.3L375.2,17.3z"
		/>
	<path class="st1" d="M384.7,18.7V6h1.9v2.7l-0.1-0.3c0.4-0.9,0.9-1.5,1.7-2s1.5-0.7,2.3-0.7c0.2,0,0.5,0,0.7,0.1s0.4,0.1,0.6,0.2
		l-0.3,1.9c-0.4-0.1-0.9-0.2-1.3-0.2c-0.3,0-0.6,0.1-1,0.2s-0.8,0.3-1.2,0.6s-0.7,0.8-1,1.4s-0.4,1.5-0.4,2.5v6.3L384.7,18.7
		L384.7,18.7z"/>
	<path class="st1" d="M398.8,19c-1.2,0-2.2-0.3-3.1-0.8s-1.6-1.3-2-2.3s-0.7-2.1-0.7-3.5s0.2-2.5,0.7-3.5s1.1-1.8,2-2.3
		s1.9-0.8,3.1-0.8c0.7,0,1.4,0.1,2,0.3s1.3,0.6,1.9,1.1s1,1.2,1.4,2.2s0.5,2.1,0.5,3.5h-10.2v-1.6h8.5l-0.6,0.7c0-1.1-0.2-2-0.5-2.7
		s-0.7-1.2-1.2-1.5s-1.1-0.4-1.7-0.4c-0.7,0-1.4,0.2-1.9,0.6s-1,0.9-1.2,1.7s-0.4,1.6-0.4,2.7c0,1.6,0.3,2.8,1,3.7
		c0.6,0.9,1.6,1.3,2.8,1.3c0.9,0,1.6-0.2,2.1-0.6s1-1,1.3-1.9l1.9,0.7c-0.3,0.7-0.7,1.4-1.2,1.9s-1.1,0.9-1.8,1.2S399.7,19,398.8,19
		L398.8,19z"/>
	<path class="st1" d="M405.9,7.7V6h6.7v1.6H405.9z M407.8,18.7V3.7c0-0.9,0.2-1.6,0.7-2s1.2-0.6,2.2-0.6h1.6v1.6h-1.9
		c-0.2,0-0.4,0.1-0.5,0.2s-0.1,0.3-0.1,0.5v15.3H407.8L407.8,18.7z"/>
	<path class="st1" d="M418,19c-0.8,0-1.6-0.2-2.2-0.5s-1.1-0.8-1.4-1.3s-0.5-1.2-0.5-1.9c0-0.8,0.2-1.5,0.7-2.1s1.1-1.1,2.1-1.5
		s2.1-0.6,3.6-0.6h2.1l-0.2,0.2v-0.7c0-1-0.2-1.8-0.6-2.3s-1.1-0.8-2-0.8c-0.9,0-1.6,0.2-2.1,0.7s-0.7,1.1-0.8,1.9l-2.2-0.5
		c0.1-0.7,0.3-1.3,0.8-1.9s1-1,1.8-1.3s1.6-0.5,2.6-0.5s1.9,0.2,2.5,0.6s1.1,0.9,1.4,1.7s0.5,1.6,0.5,2.6v5.8c0,0.3,0,0.4,0.1,0.5
		s0.2,0.1,0.5,0.1h0.7v1.6H424c-0.5,0-1-0.2-1.3-0.5s-0.5-0.8-0.5-1.3v-0.9h0.3c-0.1,0.3-0.3,0.7-0.5,1s-0.5,0.7-0.9,1
		s-0.8,0.5-1.3,0.7S418.7,19,418,19L418,19z M418.5,17.3c0.6,0,1.2-0.2,1.8-0.5s1-0.8,1.3-1.5c0.3-0.7,0.5-1.6,0.5-2.7v-0.1h-2
		c-1,0-1.9,0.1-2.5,0.4s-1,0.6-1.3,1s-0.4,0.8-0.4,1.2s0.1,0.8,0.3,1.1c0.2,0.3,0.5,0.6,0.8,0.8S417.9,17.3,418.5,17.3L418.5,17.3z"
		/>
	<path class="st1" d="M433.1,19c-1.2,0-2.2-0.3-3.1-0.8s-1.5-1.3-2-2.3s-0.7-2.2-0.7-3.5s0.2-2.5,0.7-3.5s1.1-1.8,2-2.3
		s1.9-0.8,3.1-0.8c0.9,0,1.7,0.2,2.4,0.5s1.3,0.8,1.8,1.4s0.9,1.4,1.1,2.2l-2,0.5c-0.2-1-0.6-1.7-1.2-2.3s-1.3-0.8-2.2-0.8
		c-1.2,0-2.1,0.4-2.7,1.3s-0.9,2.1-0.9,3.7s0.3,2.8,0.9,3.7c0.6,0.9,1.5,1.3,2.7,1.3c0.9,0,1.6-0.3,2.1-0.8s1-1.2,1.2-2.2l2,0.6
		c-0.2,0.6-0.5,1.2-0.8,1.7s-0.7,0.9-1.2,1.3s-1,0.6-1.5,0.8S433.7,19,433.1,19L433.1,19z"/>
	<path class="st1" d="M443.7,18.7c-0.5,0-0.9-0.2-1.3-0.5s-0.6-0.8-0.6-1.3V7.7h-2V6h2V3.4l2-0.4V6h2.5v1.6h-2.5v8.7
		c0,0.3,0,0.4,0.1,0.5s0.2,0.1,0.5,0.1h1.9v1.6C446.3,18.7,443.7,18.7,443.7,18.7z"/>
	<path class="st1" d="M450.2,3.9c-0.5,0-0.8-0.2-1.2-0.5s-0.5-0.7-0.5-1.2s0.2-0.8,0.5-1.2s0.7-0.5,1.2-0.5s0.9,0.2,1.2,0.5
		s0.5,0.7,0.5,1.2s-0.2,0.8-0.5,1.2S450.6,3.9,450.2,3.9z M449.2,18.7V6h2v12.7H449.2z"/>
	<path class="st1" d="M460.1,19c-1.2,0-2.2-0.3-3.1-0.8s-1.6-1.3-2.1-2.3s-0.8-2.1-0.8-3.4s0.2-2.4,0.8-3.4s1.2-1.8,2.1-2.3
		s2-0.8,3.1-0.8s2.2,0.3,3.1,0.8s1.6,1.3,2.1,2.3s0.8,2.1,0.8,3.4s-0.2,2.4-0.8,3.4s-1.2,1.8-2.1,2.3S461.3,19,460.1,19z
		 M460.1,17.3c1.2,0,2.1-0.5,2.8-1.3c0.7-0.9,1-2.1,1-3.6s-0.4-2.8-1-3.6s-1.6-1.3-2.8-1.3s-2.1,0.4-2.8,1.3s-1,2.1-1,3.6
		s0.4,2.7,1,3.6C458,16.9,458.9,17.3,460.1,17.3z"/>
	<path class="st1" d="M469.1,18.7V6h1.9v2.9l-0.1-0.5c0.3-0.7,0.9-1.4,1.6-1.9s1.6-0.8,2.7-0.8c0.9,0,1.7,0.2,2.3,0.6s1.2,1,1.5,1.7
		s0.5,1.6,0.5,2.7v8h-2v-7.8c0-1-0.2-1.9-0.6-2.5s-1.1-1-2.1-1c-1,0-1.9,0.4-2.6,1.2s-1,2-1,3.5v6.6L469.1,18.7L469.1,18.7z"/>
</g>
<g>
	<path class="st1" d="M4.9,244.8l7.1-16.9h2.1l7.1,16.9h-2.2L13,230.1l-5.9,14.7H4.9L4.9,244.8z M8.5,239.2v-1.7h9v1.7H8.5z"/>
	<path class="st1" d="M23.3,244.8v-12.7h1.8v2.9l-0.1-0.5c0.3-0.7,0.9-1.4,1.6-1.9s1.6-0.8,2.7-0.8c0.9,0,1.7,0.2,2.3,0.6
		c0.6,0.4,1.1,1,1.5,1.7s0.5,1.6,0.5,2.7v8h-2v-7.8c0-1-0.2-1.9-0.6-2.5s-1.1-1-2.1-1c-1.1,0-1.9,0.4-2.6,1.2s-1,2-1,3.5v6.6
		L23.3,244.8L23.3,244.8z"/>
	<path class="st1" d="M40.6,245c-0.8,0-1.6-0.2-2.2-0.5s-1.1-0.8-1.4-1.3s-0.5-1.2-0.5-1.9c0-0.8,0.2-1.5,0.7-2.1s1.1-1.1,2.1-1.5
		s2.1-0.6,3.6-0.6h2.1l-0.2,0.2v-0.7c0-1-0.2-1.8-0.6-2.3s-1.1-0.8-2-0.8c-0.9,0-1.6,0.2-2.1,0.7s-0.7,1.1-0.8,1.9l-2.2-0.5
		c0.1-0.7,0.3-1.3,0.8-1.9s1.1-1,1.8-1.3s1.6-0.5,2.6-0.5s1.9,0.2,2.5,0.6s1.1,0.9,1.4,1.7s0.5,1.6,0.5,2.6v5.8c0,0.3,0,0.4,0.1,0.5
		s0.2,0.1,0.5,0.1h0.7v1.6h-1.2c-0.5,0-1-0.2-1.3-0.5s-0.5-0.8-0.5-1.3v-0.9H45c-0.1,0.3-0.3,0.7-0.5,1s-0.5,0.7-0.9,1
		s-0.8,0.5-1.3,0.7S41.2,245,40.6,245L40.6,245z M41,243.4c0.7,0,1.2-0.2,1.8-0.5s1-0.8,1.3-1.5s0.5-1.6,0.5-2.7v-0.1h-2
		c-1,0-1.9,0.1-2.5,0.4s-1,0.6-1.3,1s-0.4,0.8-0.4,1.2s0.1,0.8,0.3,1.1s0.4,0.6,0.8,0.8S40.5,243.4,41,243.4L41,243.4z"/>
	<path class="st1" d="M52.4,244.8c-0.5,0-0.9-0.2-1.3-0.5s-0.6-0.8-0.6-1.3v-15.8h2v15.3c0,0.3,0,0.4,0.1,0.5s0.2,0.1,0.5,0.1h1.2
		v1.6C54.3,244.8,52.4,244.8,52.4,244.8z"/>
	<path class="st1" d="M62,245c-1.2,0-2.2-0.3-3.1-0.8s-1.6-1.3-2.1-2.3s-0.8-2.1-0.8-3.5s0.2-2.5,0.8-3.5s1.2-1.8,2.1-2.3
		s1.9-0.8,3.1-0.8s2.2,0.3,3.1,0.8s1.6,1.3,2.1,2.3s0.8,2.1,0.8,3.5s-0.2,2.5-0.8,3.5s-1.2,1.8-2.1,2.3S63.2,245,62,245z M62,243.4
		c1.2,0,2.1-0.5,2.8-1.3s1-2.1,1-3.6s-0.3-2.8-1-3.6s-1.6-1.3-2.8-1.3s-2.1,0.4-2.8,1.3s-1,2.1-1,3.6s0.3,2.7,1,3.6
		S60.8,243.4,62,243.4z"/>
	<path class="st1" d="M75.5,249.6c-1.9,0-3.3-0.3-4.2-0.8s-1.3-1.3-1.3-2.4c0-0.6,0.2-1.2,0.5-1.7s0.9-0.9,1.7-1.1
		c-0.3-0.2-0.5-0.4-0.7-0.7s-0.3-0.6-0.3-1c0-0.4,0.1-0.8,0.4-1.2s0.7-0.6,1.2-0.7c-0.6-0.4-1.1-0.9-1.5-1.5s-0.5-1.4-0.5-2.2
		c0-0.9,0.2-1.7,0.6-2.4s1-1.2,1.7-1.5s1.6-0.5,2.7-0.5s1.9,0.2,2.7,0.5s1.3,0.9,1.8,1.5s0.6,1.5,0.6,2.4s-0.2,1.7-0.6,2.3
		s-1,1.2-1.8,1.5s-1.7,0.5-2.7,0.5h-1.1c-1,0-1.5,0.3-1.5,0.9c0,0.5,0.5,0.8,1.4,0.8h2.5c1,0,1.8,0.1,2.4,0.4s1.1,0.5,1.4,0.9
		s0.5,0.8,0.7,1.2s0.2,0.8,0.2,1.2c0,1.2-0.4,2.2-1.3,2.8s-2.3,0.9-4.2,0.9L75.5,249.6L75.5,249.6z M75.5,248h0.7
		c2.3,0,3.5-0.7,3.5-2.1c0-0.6-0.2-1-0.6-1.4s-1.1-0.5-2.1-0.5h-2.2c-0.8,0-1.4,0.2-2,0.5S72,245.3,72,246s0.3,1.2,0.8,1.5
		S74.3,248,75.5,248L75.5,248z M75.7,239.2c1,0,1.8-0.3,2.3-0.8s0.8-1.2,0.8-2.2s-0.3-1.7-0.8-2.2s-1.3-0.8-2.3-0.8
		s-1.7,0.3-2.3,0.8s-0.8,1.3-0.8,2.2s0.3,1.7,0.8,2.2S74.7,239.2,75.7,239.2L75.7,239.2z M77.8,233.1v-1.2c0-0.5,0.2-0.9,0.6-1.3
		s0.8-0.5,1.3-0.5h1.5v1.6h-1.2c-0.2,0-0.4,0-0.5,0.1s-0.1,0.3-0.1,0.5v0.7L77.8,233.1L77.8,233.1z"/>
	<path class="st1" d="M94.8,245c-0.9,0-1.7-0.1-2.5-0.5s-1.4-0.8-1.9-1.4s-0.8-1.4-1-2.3l2.1-0.4c0.1,1,0.4,1.7,1,2.2
		s1.3,0.7,2.2,0.7s1.6-0.2,2.1-0.7s0.8-1,0.8-1.6c0-0.5-0.2-1-0.6-1.3s-0.9-0.5-1.6-0.7l-1.5-0.3c-0.4-0.1-0.8-0.2-1.3-0.3
		s-0.9-0.3-1.2-0.6s-0.7-0.6-0.9-1s-0.4-0.9-0.4-1.5c0-0.8,0.2-1.5,0.6-2s1-0.9,1.7-1.2s1.5-0.4,2.3-0.4c0.9,0,1.7,0.1,2.4,0.4
		s1.2,0.7,1.6,1.2s0.7,1.2,0.8,1.9l-2.2,0.4c-0.1-0.5-0.2-0.9-0.4-1.2s-0.5-0.6-0.9-0.8s-0.9-0.3-1.5-0.3c-0.7,0-1.4,0.1-1.9,0.5
		s-0.8,0.8-0.8,1.4c0,0.3,0.1,0.6,0.3,0.9s0.4,0.4,0.8,0.6s0.8,0.3,1.3,0.4l1.6,0.3c0.7,0.1,1.3,0.3,1.8,0.6s1,0.6,1.3,1.1
		s0.5,1.1,0.5,1.8c0,0.8-0.2,1.6-0.6,2.2s-1,1.1-1.7,1.4S95.7,245,94.8,245L94.8,245z"/>
	<path class="st1" d="M103.7,230c-0.4,0-0.8-0.2-1.2-0.5s-0.5-0.7-0.5-1.2s0.2-0.9,0.5-1.2s0.7-0.5,1.2-0.5s0.9,0.2,1.2,0.5
		s0.5,0.7,0.5,1.2s-0.2,0.8-0.5,1.2S104.2,230,103.7,230z M102.7,244.8v-12.7h2v12.7H102.7z"/>
	<path class="st1" d="M113,249.6c-1.9,0-3.3-0.3-4.2-0.8s-1.3-1.3-1.3-2.4c0-0.6,0.2-1.2,0.5-1.7s0.9-0.9,1.7-1.1
		c-0.3-0.2-0.5-0.4-0.7-0.7s-0.3-0.6-0.3-1c0-0.4,0.1-0.8,0.4-1.2s0.7-0.6,1.2-0.7c-0.6-0.4-1.1-0.9-1.5-1.5s-0.5-1.4-0.5-2.2
		c0-0.9,0.2-1.7,0.6-2.4s1-1.2,1.7-1.5s1.6-0.5,2.7-0.5s1.9,0.2,2.7,0.5s1.3,0.9,1.8,1.5s0.6,1.5,0.6,2.4s-0.2,1.7-0.6,2.3
		s-1,1.2-1.8,1.5s-1.7,0.5-2.7,0.5h-1.1c-1,0-1.5,0.3-1.5,0.9c0,0.5,0.5,0.8,1.4,0.8h2.5c1,0,1.8,0.1,2.4,0.4s1.1,0.5,1.4,0.9
		s0.5,0.8,0.7,1.2s0.2,0.8,0.2,1.2c0,1.2-0.4,2.2-1.4,2.8s-2.3,0.9-4.2,0.9L113,249.6L113,249.6z M113,248h0.7
		c2.3,0,3.5-0.7,3.5-2.1c0-0.6-0.2-1-0.6-1.4s-1.1-0.5-2.1-0.5h-2.2c-0.8,0-1.4,0.2-2,0.5s-0.8,0.8-0.8,1.5s0.3,1.2,0.9,1.5
		S111.8,248,113,248L113,248z M113.2,239.2c1,0,1.8-0.3,2.3-0.8s0.8-1.2,0.8-2.2s-0.3-1.7-0.8-2.2s-1.3-0.8-2.3-0.8
		s-1.7,0.3-2.3,0.8s-0.8,1.3-0.8,2.2s0.3,1.7,0.8,2.2S112.2,239.2,113.2,239.2L113.2,239.2z M115.3,233.1v-1.2
		c0-0.5,0.2-0.9,0.6-1.3s0.8-0.5,1.3-0.5h1.5v1.6h-1.2c-0.2,0-0.4,0-0.5,0.1s-0.1,0.3-0.1,0.5v0.7L115.3,233.1L115.3,233.1z"/>
	<path class="st1" d="M121.7,244.8v-12.7h1.9v2.9l-0.1-0.5c0.3-0.7,0.9-1.4,1.6-1.9s1.6-0.8,2.6-0.8c0.9,0,1.7,0.2,2.3,0.6
		s1.1,1,1.5,1.7s0.5,1.6,0.5,2.7v8h-2v-7.8c0-1-0.2-1.9-0.6-2.5s-1.1-1-2.1-1c-1.1,0-1.9,0.4-2.6,1.2s-1.1,2-1.1,3.5v6.6
		L121.7,244.8L121.7,244.8z"/>
	<path class="st1" d="M139,245c-0.8,0-1.6-0.2-2.2-0.5s-1.1-0.8-1.4-1.3s-0.5-1.2-0.5-1.9c0-0.8,0.2-1.5,0.7-2.1s1.1-1.1,2.1-1.5
		s2.1-0.6,3.6-0.6h2.1l-0.2,0.2v-0.7c0-1-0.2-1.8-0.6-2.3s-1.1-0.8-2-0.8c-0.9,0-1.6,0.2-2.1,0.7s-0.7,1.1-0.8,1.9l-2.2-0.5
		c0.1-0.7,0.3-1.3,0.8-1.9s1.1-1,1.8-1.3s1.6-0.5,2.6-0.5s1.9,0.2,2.5,0.6s1.1,0.9,1.4,1.7s0.5,1.6,0.5,2.6v5.8c0,0.3,0,0.4,0.1,0.5
		s0.2,0.1,0.5,0.1h0.7v1.6H145c-0.5,0-1-0.2-1.3-0.5s-0.5-0.8-0.5-1.3v-0.9h0.3c-0.1,0.3-0.3,0.7-0.5,1s-0.5,0.7-0.9,1
		s-0.8,0.5-1.3,0.7S139.6,245,139,245L139,245z M139.4,243.4c0.6,0,1.2-0.2,1.8-0.5s1-0.8,1.3-1.5s0.5-1.6,0.5-2.7v-0.1h-2
		c-1,0-1.9,0.1-2.5,0.4s-1,0.6-1.3,1s-0.4,0.8-0.4,1.2s0.1,0.8,0.3,1.1s0.4,0.6,0.8,0.8S138.9,243.4,139.4,243.4L139.4,243.4z"/>
	<path class="st1" d="M150.8,244.8c-0.5,0-0.9-0.2-1.3-0.5s-0.6-0.8-0.6-1.3v-15.8h2v15.3c0,0.3,0,0.4,0.1,0.5s0.2,0.1,0.5,0.1h1.2
		v1.6H150.8z"/>
</g>
<g>
	<g>
		<path class="st1" d="M0.4,132.8l7.1-16.9h2.1l7.1,16.9h-2.2l-5.9-14.7l-5.9,14.7H0.4z M4.1,127.3v-1.7h9v1.7H4.1z"/>
		<path class="st1" d="M19.9,118c-0.5,0-0.8-0.2-1.2-0.5s-0.5-0.7-0.5-1.2c0-0.5,0.2-0.8,0.5-1.2s0.7-0.5,1.2-0.5
			c0.5,0,0.8,0.2,1.2,0.5s0.5,0.7,0.5,1.2c0,0.5-0.2,0.8-0.5,1.2S20.3,118,19.9,118z M18.9,132.8v-12.7h2v12.7H18.9z"/>
		<path class="st1" d="M24.7,132.8v-12.7h1.9v2.7l-0.1-0.3c0.4-0.9,0.9-1.5,1.7-2s1.5-0.7,2.3-0.7c0.2,0,0.4,0,0.7,0.1
			s0.4,0.1,0.6,0.2l-0.3,1.9c-0.4-0.1-0.9-0.2-1.3-0.2c-0.3,0-0.6,0.1-1,0.2s-0.8,0.3-1.2,0.6s-0.7,0.8-1,1.4s-0.4,1.5-0.4,2.5v6.3
			H24.7z"/>
		<path class="st1" d="M40.4,132.8v-12.7h1.9v2.2c0.3-0.7,0.8-1.2,1.5-1.7s1.5-0.7,2.4-0.7c0.8,0,1.6,0.2,2.2,0.7s1.1,1.1,1.4,1.9
			c0.4-0.8,0.9-1.4,1.6-1.9s1.5-0.7,2.4-0.7c1.2,0,2.2,0.4,2.9,1.3s1.1,2.1,1.1,3.7v8h-2V125c0-0.7-0.1-1.3-0.2-1.9
			s-0.4-0.9-0.7-1.2s-0.8-0.4-1.4-0.4c-0.6,0-1.2,0.2-1.7,0.5s-0.9,0.9-1.2,1.6s-0.4,1.5-0.4,2.5v6.6h-2V125c0-0.7-0.1-1.3-0.2-1.9
			s-0.4-0.9-0.7-1.2s-0.8-0.4-1.4-0.4c-0.6,0-1.2,0.2-1.7,0.5s-0.9,0.9-1.2,1.6s-0.4,1.5-0.4,2.6v6.6H40.4z"/>
		<path class="st1" d="M66.6,133.1c-1.2,0-2.2-0.3-3.1-0.8c-0.9-0.6-1.6-1.3-2.1-2.3s-0.8-2.1-0.8-3.4s0.3-2.5,0.8-3.4
			s1.2-1.8,2.1-2.3c0.9-0.6,2-0.8,3.1-0.8s2.2,0.3,3.1,0.8s1.6,1.3,2.1,2.3s0.8,2.1,0.8,3.4s-0.3,2.5-0.8,3.4s-1.2,1.8-2.1,2.3
			S67.8,133.1,66.6,133.1z M66.6,131.5c1.2,0,2.1-0.4,2.8-1.3s1-2.1,1-3.6c0-1.5-0.3-2.8-1-3.6s-1.6-1.3-2.8-1.3s-2.1,0.4-2.8,1.3
			c-0.7,0.9-1,2.1-1,3.6c0,1.5,0.3,2.7,1,3.6C64.5,131,65.4,131.5,66.6,131.5z"/>
		<path class="st1" d="M77.5,132.8c-0.5,0-0.9-0.2-1.3-0.5s-0.6-0.8-0.6-1.3v-15.8h2v15.3c0,0.3,0,0.4,0.1,0.5s0.2,0.1,0.5,0.1h1.2
			v1.6H77.5z"/>
		<path class="st1" d="M87.1,133.1c-1.2,0-2.2-0.3-3.1-0.8s-1.6-1.3-2-2.3s-0.7-2.2-0.7-3.5c0-1.4,0.2-2.5,0.7-3.5s1.1-1.8,2-2.3
			s1.9-0.8,3.1-0.8c0.7,0,1.3,0.1,2,0.3s1.3,0.6,1.9,1.1s1,1.2,1.3,2.2s0.5,2.1,0.5,3.5H82.5v-1.6H91l-0.6,0.7c0-1.1-0.2-2-0.5-2.7
			s-0.7-1.2-1.2-1.5s-1.1-0.5-1.7-0.5c-0.7,0-1.4,0.2-1.9,0.6s-1,1-1.2,1.7s-0.4,1.6-0.4,2.7c0,1.6,0.3,2.8,1,3.7s1.6,1.3,2.7,1.3
			c0.9,0,1.6-0.2,2.2-0.6s1-1.1,1.3-1.9l1.9,0.7c-0.3,0.7-0.7,1.4-1.2,1.9s-1.1,0.9-1.8,1.2S88,133.1,87.1,133.1z"/>
		<path class="st1" d="M100.8,133.1c-1.2,0-2.2-0.3-3.1-0.8s-1.5-1.3-2-2.3s-0.7-2.2-0.7-3.5s0.2-2.5,0.7-3.5s1.1-1.8,2-2.3
			s1.9-0.8,3.1-0.8c0.9,0,1.7,0.2,2.4,0.5s1.3,0.8,1.8,1.4s0.9,1.4,1.1,2.2l-2,0.5c-0.2-1-0.6-1.7-1.2-2.3s-1.3-0.8-2.2-0.8
			c-1.2,0-2.1,0.4-2.7,1.3s-0.9,2.1-0.9,3.7c0,1.6,0.3,2.8,0.9,3.7s1.5,1.3,2.7,1.3c0.9,0,1.6-0.3,2.1-0.8s1-1.3,1.2-2.2l2,0.6
			c-0.2,0.6-0.4,1.2-0.8,1.7s-0.7,0.9-1.2,1.3s-1,0.6-1.5,0.8S101.4,133.1,100.8,133.1z"/>
		<path class="st1" d="M113,133.1c-0.9,0-1.6-0.2-2.3-0.6s-1.1-1-1.5-1.7s-0.5-1.6-0.5-2.7v-8h2v7.8c0,1,0.2,1.9,0.6,2.5
			s1.1,1,2.1,1c0.8,0,1.4-0.2,2-0.6s1-1,1.3-1.8s0.5-1.8,0.5-2.9v-6h2v12.7h-1.9v-3l0.1,0.5c-0.3,0.8-0.9,1.4-1.6,2
			S114.1,133.1,113,133.1z"/>
		<path class="st1" d="M124.7,132.8c-0.5,0-0.9-0.2-1.3-0.5s-0.6-0.8-0.6-1.3v-15.8h2v15.3c0,0.3,0,0.4,0.1,0.5s0.2,0.1,0.5,0.1h1.2
			v1.6H124.7z"/>
		<path class="st1" d="M134.3,133.1c-1.2,0-2.2-0.3-3.1-0.8s-1.6-1.3-2-2.3s-0.7-2.2-0.7-3.5c0-1.4,0.2-2.5,0.7-3.5s1.1-1.8,2-2.3
			s1.9-0.8,3.1-0.8c0.7,0,1.3,0.1,2,0.3s1.3,0.6,1.9,1.1s1,1.2,1.3,2.2s0.5,2.1,0.5,3.5h-10.3v-1.6h8.5l-0.6,0.7
			c0-1.1-0.2-2-0.5-2.7s-0.7-1.2-1.2-1.5s-1.1-0.5-1.7-0.5c-0.7,0-1.4,0.2-1.9,0.6s-1,1-1.2,1.7s-0.4,1.6-0.4,2.7
			c0,1.6,0.3,2.8,1,3.7s1.6,1.3,2.7,1.3c0.9,0,1.6-0.2,2.2-0.6s1-1.1,1.3-1.9l1.9,0.7c-0.3,0.7-0.7,1.4-1.2,1.9s-1.1,0.9-1.8,1.2
			S135.2,133.1,134.3,133.1z"/>
		<path class="st1" d="M147.3,133.1c-0.9,0-1.7-0.2-2.5-0.5s-1.4-0.8-1.9-1.4s-0.8-1.4-1-2.3l2.1-0.4c0.1,1,0.4,1.7,1,2.2
			s1.3,0.7,2.2,0.7c0.9,0,1.6-0.2,2.1-0.7s0.8-1,0.8-1.6c0-0.5-0.2-1-0.6-1.3c-0.4-0.3-0.9-0.5-1.6-0.7l-1.5-0.3
			c-0.4-0.1-0.8-0.2-1.3-0.3s-0.9-0.3-1.2-0.6s-0.7-0.6-0.9-1s-0.4-0.9-0.4-1.5c0-0.8,0.2-1.5,0.7-2s1-0.9,1.7-1.2s1.5-0.4,2.3-0.4
			c0.9,0,1.7,0.1,2.4,0.4s1.2,0.7,1.6,1.2s0.7,1.2,0.8,1.9l-2.2,0.4c-0.1-0.5-0.2-0.9-0.4-1.2s-0.5-0.6-0.9-0.8s-0.9-0.3-1.5-0.3
			c-0.7,0-1.4,0.2-1.9,0.5s-0.8,0.8-0.8,1.4c0,0.3,0.1,0.6,0.3,0.9s0.4,0.4,0.8,0.6s0.8,0.3,1.3,0.4l1.6,0.3
			c0.7,0.1,1.3,0.3,1.8,0.6s1,0.6,1.3,1.1s0.5,1.1,0.5,1.8c0,0.8-0.2,1.6-0.6,2.2s-1,1.1-1.7,1.4S148.2,133.1,147.3,133.1z"/>
	</g>
</g>
</svg>
