<?xml version="1.0" encoding="UTF-8"?>
<svg id="uuid-1a7533f9-df73-4dc1-bc95-9bf4da0880ae" xmlns="http://www.w3.org/2000/svg" width="1821.6" height="511.2" viewBox="0 0 1821.6 511.2">
  <line x1="165.6" y1="252" x2="292.98" y2="252" fill="none" stroke="#7f7f7f" stroke-miterlimit="10" stroke-width="4.99"/>
  <line x1="292.98" y1="63" x2="292.98" y2="252" fill="none" stroke="#7f7f7f" stroke-miterlimit="10" stroke-width="4.99"/>
  <line x1="547.75" y1="63" x2="292.98" y2="63" fill="none" stroke="#7f7f7f" stroke-miterlimit="10" stroke-width="4.99"/>
  <line x1="547.75" y1="252" x2="547.75" y2="63" fill="none" stroke="#7f7f7f" stroke-miterlimit="10" stroke-width="4.99"/>
  <line x1="802.52" y1="252" x2="547.75" y2="252" fill="none" stroke="#7f7f7f" stroke-miterlimit="10" stroke-width="4.99"/>
  <line x1="802.52" y1="63" x2="802.52" y2="252" fill="none" stroke="#7f7f7f" stroke-miterlimit="10" stroke-width="4.99"/>
  <line x1="1057.29" y1="63" x2="802.52" y2="63" fill="none" stroke="#7f7f7f" stroke-miterlimit="10" stroke-width="4.99"/>
  <line x1="1057.29" y1="252" x2="1057.29" y2="63" fill="none" stroke="#7f7f7f" stroke-miterlimit="10" stroke-width="4.99"/>
  <line x1="1312.06" y1="252" x2="1057.29" y2="252" fill="none" stroke="#7f7f7f" stroke-miterlimit="10" stroke-width="4.99"/>
  <line x1="1312.06" y1="63" x2="1312.06" y2="252" fill="none" stroke="#7f7f7f" stroke-miterlimit="10" stroke-width="4.99"/>
  <line x1="1566.83" y1="63" x2="1312.06" y2="63" fill="none" stroke="#7f7f7f" stroke-miterlimit="10" stroke-width="4.99"/>
  <line x1="1566.83" y1="252" x2="1566.83" y2="63" fill="none" stroke="#7f7f7f" stroke-miterlimit="10" stroke-width="4.99"/>
  <line x1="1821.6" y1="252" x2="1566.83" y2="252" fill="none" stroke="#7f7f7f" stroke-miterlimit="10" stroke-width="4.99"/>
  <line x1="165.6" y1="504" x2="318.46" y2="504" fill="none" stroke="#7f7f7f" stroke-miterlimit="10" stroke-width="4.99"/>
  <line x1="318.46" y1="315" x2="318.46" y2="504" fill="none" stroke="#7f7f7f" stroke-miterlimit="10" stroke-width="4.99"/>
  <line x1="560.49" y1="315" x2="318.46" y2="315" fill="none" stroke="#7f7f7f" stroke-miterlimit="10" stroke-width="4.99"/>
  <line x1="560.49" y1="504" x2="560.49" y2="315" fill="none" stroke="#7f7f7f" stroke-miterlimit="10" stroke-width="4.99"/>
  <line x1="789.78" y1="504" x2="560.49" y2="504" fill="none" stroke="#7f7f7f" stroke-miterlimit="10" stroke-width="4.99"/>
  <line x1="789.78" y1="315" x2="789.78" y2="504" fill="none" stroke="#7f7f7f" stroke-miterlimit="10" stroke-width="4.99"/>
  <line x1="1050.92" y1="315" x2="789.78" y2="315" fill="none" stroke="#7f7f7f" stroke-miterlimit="10" stroke-width="4.99"/>
  <line x1="1050.92" y1="504" x2="1050.92" y2="315" fill="none" stroke="#7f7f7f" stroke-miterlimit="10" stroke-width="4.99"/>
  <line x1="1299.32" y1="504" x2="1050.92" y2="504" fill="none" stroke="#7f7f7f" stroke-miterlimit="10" stroke-width="4.99"/>
  <line x1="1299.32" y1="315" x2="1299.32" y2="504" fill="none" stroke="#7f7f7f" stroke-miterlimit="10" stroke-width="4.99"/>
  <line x1="1547.72" y1="315" x2="1299.32" y2="315" fill="none" stroke="#7f7f7f" stroke-miterlimit="10" stroke-width="4.99"/>
  <line x1="1547.72" y1="504" x2="1547.72" y2="315" fill="none" stroke="#7f7f7f" stroke-miterlimit="10" stroke-width="4.99"/>
  <line x1="1821.6" y1="504" x2="1547.72" y2="504" fill="none" stroke="#7f7f7f" stroke-miterlimit="10" stroke-width="4.99"/>
  <line x1="292.98" x2="292.98" y2="396.9" fill="none" stroke="#d85648" stroke-dasharray="0 0 0 0 0 0 4.99 7.48" stroke-miterlimit="10" stroke-width="2.49"/>
  <line x1="318.46" x2="318.46" y2="396.9" fill="none" stroke="#d85648" stroke-dasharray="0 0 0 0 0 0 4.99 7.48" stroke-miterlimit="10" stroke-width="2.49"/>
  <line x1="547.75" x2="547.75" y2="396.9" fill="none" stroke="#d85648" stroke-dasharray="0 0 0 0 0 0 4.99 7.48" stroke-miterlimit="10" stroke-width="2.49"/>
  <line x1="560.49" x2="560.49" y2="396.9" fill="none" stroke="#d85648" stroke-dasharray="0 0 0 0 0 0 4.99 7.48" stroke-miterlimit="10" stroke-width="2.49"/>
  <line x1="789.78" x2="789.78" y2="396.9" fill="none" stroke="#d85648" stroke-dasharray="0 0 0 0 0 0 4.99 7.48" stroke-miterlimit="10" stroke-width="2.49"/>
  <line x1="802.52" x2="802.52" y2="396.9" fill="none" stroke="#d85648" stroke-dasharray="0 0 0 0 0 0 4.99 7.48" stroke-miterlimit="10" stroke-width="2.49"/>
  <line x1="1050.92" x2="1050.92" y2="396.9" fill="none" stroke="#d85648" stroke-dasharray="0 0 0 0 0 0 4.99 7.48" stroke-miterlimit="10" stroke-width="2.49"/>
  <line x1="1057.29" x2="1057.29" y2="396.9" fill="none" stroke="#d85648" stroke-dasharray="0 0 0 0 0 0 4.99 7.48" stroke-miterlimit="10" stroke-width="2.49"/>
  <line x1="1299.32" x2="1299.32" y2="396.9" fill="none" stroke="#d85648" stroke-dasharray="0 0 0 0 0 0 4.99 7.48" stroke-miterlimit="10" stroke-width="2.49"/>
  <line x1="1312.06" x2="1312.06" y2="396.9" fill="none" stroke="#d85648" stroke-dasharray="0 0 0 0 0 0 4.99 7.48" stroke-miterlimit="10" stroke-width="2.49"/>
  <line x1="1547.72" x2="1547.72" y2="396.9" fill="none" stroke="#d85648" stroke-dasharray="0 0 0 0 0 0 4.99 7.48" stroke-miterlimit="10" stroke-width="2.49"/>
  <line x1="1566.83" x2="1566.83" y2="396.9" fill="none" stroke="#d85648" stroke-dasharray="0 0 0 0 0 0 4.99 7.48" stroke-miterlimit="10" stroke-width="2.49"/>
  <line x1="270.89" y1="378" x2="235.66" y2="378" fill="none" stroke="#d85648" stroke-miterlimit="10" stroke-width="2.49"/>
  <polygon points="265.95 370.75 292.98 378 265.95 385.25 265.95 370.75" fill="#d85648"/>
  <line x1="340.56" y1="378" x2="375.78" y2="378" fill="none" stroke="#d85648" stroke-miterlimit="10" stroke-width="2.49"/>
  <polygon points="345.5 385.25 318.46 378 345.5 370.75 345.5 385.25" fill="#d85648"/>
  <line x1="525.66" y1="378" x2="490.43" y2="378" fill="none" stroke="#d85648" stroke-miterlimit="10" stroke-width="2.49"/>
  <polygon points="520.72 370.75 547.75 378 520.72 385.25 520.72 370.75" fill="#d85648"/>
  <line x1="595.33" y1="378" x2="630.55" y2="378" fill="none" stroke="#d85648" stroke-miterlimit="10" stroke-width="2.49"/>
  <polygon points="600.27 385.25 573.23 378 600.27 370.75 600.27 385.25" fill="#d85648"/>
  <line x1="767.69" y1="378" x2="732.46" y2="378" fill="none" stroke="#d85648" stroke-miterlimit="10" stroke-width="2.49"/>
  <polygon points="762.75 370.75 789.78 378 762.75 385.25 762.75 370.75" fill="#d85648"/>
  <line x1="824.62" y1="378" x2="859.85" y2="378" fill="none" stroke="#d85648" stroke-miterlimit="10" stroke-width="2.49"/>
  <polygon points="829.56 385.25 802.52 378 829.56 370.75 829.56 385.25" fill="#d85648"/>
  <line x1="1028.83" y1="378" x2="993.6" y2="378" fill="none" stroke="#d85648" stroke-miterlimit="10" stroke-width="2.49"/>
  <polygon points="1023.89 370.75 1050.92 378 1023.89 385.25 1023.89 370.75" fill="#d85648"/>
  <line x1="1079.39" y1="378" x2="1114.62" y2="378" fill="none" stroke="#d85648" stroke-miterlimit="10" stroke-width="2.49"/>
  <polygon points="1084.33 385.25 1057.29 378 1084.33 370.75 1084.33 385.25" fill="#d85648"/>
  <line x1="1277.23" y1="378" x2="1242" y2="378" fill="none" stroke="#d85648" stroke-miterlimit="10" stroke-width="2.49"/>
  <polygon points="1272.29 370.75 1299.32 378 1272.29 385.25 1272.29 370.75" fill="#d85648"/>
  <line x1="1334.16" y1="378" x2="1369.38" y2="378" fill="none" stroke="#d85648" stroke-miterlimit="10" stroke-width="2.49"/>
  <polygon points="1339.1 385.25 1312.06 378 1339.1 370.75 1339.1 385.25" fill="#d85648"/>
  <line x1="1525.63" y1="378" x2="1490.4" y2="378" fill="none" stroke="#d85648" stroke-miterlimit="10" stroke-width="2.49"/>
  <polygon points="1520.69 370.75 1547.72 378 1520.69 385.25 1520.69 370.75" fill="#d85648"/>
  <line x1="1588.93" y1="378" x2="1624.15" y2="378" fill="none" stroke="#d85648" stroke-miterlimit="10" stroke-width="2.49"/>
  <polygon points="1593.87 385.25 1566.83 378 1593.87 370.75 1593.87 385.25" fill="#d85648"/>
  <g isolation="isolate">
    <g isolation="isolate">
      <path d="m15.989,158.4h-4.5v-34.125h4.5v34.125Z" fill="#c9d1d9"/>
      <path d="m22.481,145.509c0-3.891.922-7.02,2.766-9.387s4.258-3.551,7.242-3.551c2.969,0,5.32,1.016,7.055,3.047v-13.219h4.336v36h-3.984l-.211-2.719c-1.734,2.125-4.148,3.188-7.242,3.188-2.938,0-5.332-1.203-7.184-3.609s-2.777-5.547-2.777-9.422v-.328Zm4.336.492c0,2.875.594,5.125,1.781,6.75s2.828,2.438,4.922,2.438c2.75,0,4.758-1.234,6.023-3.703v-11.648c-1.297-2.391-3.289-3.586-5.977-3.586-2.125,0-3.781.82-4.969,2.461s-1.781,4.07-1.781,7.289Z" fill="#c9d1d9"/>
      <path d="m61.13,158.869c-3.438,0-6.234-1.129-8.391-3.387s-3.234-5.277-3.234-9.059v-.797c0-2.516.48-4.762,1.441-6.738s2.305-3.523,4.031-4.641,3.598-1.676,5.613-1.676c3.297,0,5.859,1.086,7.688,3.258s2.742,5.281,2.742,9.328v1.805h-17.18c.062,2.5.793,4.52,2.191,6.059s3.176,2.309,5.332,2.309c1.531,0,2.828-.312,3.891-.938s1.992-1.453,2.789-2.484l2.648,2.062c-2.125,3.266-5.312,4.898-9.562,4.898Zm-.539-22.734c-1.75,0-3.219.637-4.406,1.91s-1.922,3.059-2.203,5.355h12.703v-.328c-.125-2.203-.719-3.91-1.781-5.121s-2.5-1.816-4.312-1.816Z" fill="#c9d1d9"/>
      <path d="m91.692,158.4c-.25-.5-.453-1.391-.609-2.672-2.016,2.094-4.422,3.141-7.219,3.141-2.5,0-4.551-.707-6.152-2.121s-2.402-3.207-2.402-5.379c0-2.641,1.004-4.691,3.012-6.152s4.832-2.191,8.473-2.191h4.219v-1.992c0-1.516-.453-2.723-1.359-3.621s-2.242-1.348-4.008-1.348c-1.547,0-2.844.391-3.891,1.172s-1.57,1.727-1.57,2.836h-4.359c0-1.266.449-2.488,1.348-3.668s2.117-2.113,3.656-2.801,3.23-1.031,5.074-1.031c2.922,0,5.211.73,6.867,2.191s2.516,3.473,2.578,6.035v11.672c0,2.328.297,4.18.891,5.555v.375h-4.547Zm-7.195-3.305c1.359,0,2.648-.352,3.867-1.055s2.102-1.617,2.648-2.742v-5.203h-3.398c-5.312,0-7.969,1.555-7.969,4.664,0,1.359.453,2.422,1.359,3.188s2.07,1.148,3.492,1.148Z" fill="#c9d1d9"/>
      <path d="m106.856,158.4h-4.336v-36h4.336v36Z" fill="#c9d1d9"/>
      <path d="m135.849,155.33c1.547,0,2.898-.469,4.055-1.406s1.797-2.109,1.922-3.516h4.102c-.078,1.453-.578,2.836-1.5,4.148s-2.152,2.359-3.691,3.141-3.168,1.172-4.887,1.172c-3.453,0-6.199-1.152-8.238-3.457s-3.059-5.457-3.059-9.457v-.727c0-2.469.453-4.664,1.359-6.586s2.207-3.414,3.902-4.477,3.699-1.594,6.012-1.594c2.844,0,5.207.852,7.09,2.555s2.887,3.914,3.012,6.633h-4.102c-.125-1.641-.746-2.988-1.863-4.043s-2.496-1.582-4.137-1.582c-2.203,0-3.91.793-5.121,2.379s-1.816,3.879-1.816,6.879v.82c0,2.922.602,5.172,1.805,6.75s2.922,2.367,5.156,2.367Z" fill="#c9d1d9"/>
      <path d="m155.513,158.4h-4.336v-36h4.336v36Z" fill="#c9d1d9"/>
      <path d="m161.302,145.486c0-2.484.488-4.719,1.465-6.703s2.336-3.516,4.078-4.594,3.73-1.617,5.965-1.617c3.453,0,6.246,1.195,8.379,3.586s3.199,5.57,3.199,9.539v.305c0,2.469-.473,4.684-1.418,6.645s-2.297,3.488-4.055,4.582-3.777,1.641-6.059,1.641c-3.438,0-6.223-1.195-8.355-3.586s-3.199-5.555-3.199-9.492v-.305Zm4.359.516c0,2.812.652,5.07,1.957,6.773s3.051,2.555,5.238,2.555c2.203,0,3.953-.863,5.25-2.59s1.945-4.145,1.945-7.254c0-2.781-.66-5.035-1.98-6.762s-3.074-2.59-5.262-2.59c-2.141,0-3.867.852-5.18,2.555s-1.969,4.141-1.969,7.312Z" fill="#c9d1d9"/>
      <path d="m199.997,155.33c1.547,0,2.898-.469,4.055-1.406s1.797-2.109,1.922-3.516h4.102c-.078,1.453-.578,2.836-1.5,4.148s-2.152,2.359-3.691,3.141-3.168,1.172-4.887,1.172c-3.453,0-6.199-1.152-8.238-3.457s-3.059-5.457-3.059-9.457v-.727c0-2.469.453-4.664,1.359-6.586s2.207-3.414,3.902-4.477,3.699-1.594,6.012-1.594c2.844,0,5.207.852,7.09,2.555s2.887,3.914,3.012,6.633h-4.102c-.125-1.641-.746-2.988-1.863-4.043s-2.496-1.582-4.137-1.582c-2.203,0-3.91.793-5.121,2.379s-1.816,3.879-1.816,6.879v.82c0,2.922.602,5.172,1.805,6.75s2.922,2.367,5.156,2.367Z" fill="#c9d1d9"/>
      <path d="m222.028,146.658l-2.719,2.836v8.906h-4.336v-36h4.336v21.773l2.32-2.789,7.898-8.344h5.273l-9.867,10.594,11.016,14.766h-5.086l-8.836-11.742Z" fill="#c9d1d9"/>
    </g>
  </g>
  <path d="m36.26,399.57c-.42,3.61-1.75,6.39-4,8.36s-5.22,2.94-8.94,2.94c-4.03,0-7.26-1.45-9.69-4.34s-3.64-6.76-3.64-11.6v-3.28c0-3.17.57-5.96,1.7-8.37s2.74-4.25,4.82-5.54c2.08-1.29,4.48-1.93,7.22-1.93,3.62,0,6.53,1.01,8.72,3.04,2.19,2.03,3.46,4.82,3.82,8.4h-4.52c-.39-2.73-1.24-4.7-2.54-5.92-1.3-1.22-3.13-1.83-5.47-1.83-2.88,0-5.13,1.06-6.76,3.19s-2.45,5.15-2.45,9.08v3.31c0,3.71.77,6.65,2.32,8.84s3.71,3.28,6.49,3.28c2.5,0,4.42-.57,5.75-1.7s2.22-3.11,2.66-5.92h4.52l-.01-.01Z" fill="#c9d1d9"/>
  <path d="m46.43,410.4h-4.34v-36h4.34v36Z" fill="#c9d1d9"/>
  <path d="m52.22,397.49c0-2.48.49-4.72,1.46-6.7s2.34-3.52,4.08-4.59,3.73-1.62,5.96-1.62c3.45,0,6.25,1.2,8.38,3.59s3.2,5.57,3.2,9.54v.3c0,2.47-.47,4.68-1.42,6.64s-2.3,3.49-4.05,4.58-3.78,1.64-6.06,1.64c-3.44,0-6.22-1.2-8.36-3.59s-3.2-5.55-3.2-9.49v-.3h.01Zm4.36.51c0,2.81.65,5.07,1.96,6.77s3.05,2.55,5.24,2.55,3.95-.86,5.25-2.59,1.95-4.14,1.95-7.25c0-2.78-.66-5.04-1.98-6.76s-3.07-2.59-5.26-2.59-3.87.85-5.18,2.55-1.97,4.14-1.97,7.31l-.01.01Z" fill="#c9d1d9"/>
  <path d="m90.92,407.33c1.55,0,2.9-.47,4.05-1.41s1.8-2.11,1.92-3.52h4.1c-.08,1.45-.58,2.84-1.5,4.15s-2.15,2.36-3.69,3.14-3.17,1.17-4.89,1.17c-3.45,0-6.2-1.15-8.24-3.46s-3.06-5.46-3.06-9.46v-.73c0-2.47.45-4.66,1.36-6.59s2.21-3.41,3.9-4.48,3.7-1.59,6.01-1.59c2.84,0,5.21.85,7.09,2.55s2.89,3.91,3.01,6.63h-4.1c-.12-1.64-.75-2.99-1.86-4.04s-2.5-1.58-4.14-1.58c-2.2,0-3.91.79-5.12,2.38s-1.82,3.88-1.82,6.88v.82c0,2.92.6,5.17,1.8,6.75s2.92,2.37,5.16,2.37l.02.02Z" fill="#c9d1d9"/>
  <path d="m112.95,398.66l-2.72,2.84v8.91h-4.34v-36h4.34v21.77l2.32-2.79,7.9-8.34h5.27l-9.87,10.59,11.02,14.77h-5.09l-8.84-11.74.01-.01Z" fill="#c9d1d9"/>
  <path d="m164.54,404.42l4.88-19.38h4.34l-7.38,25.36h-3.52l-6.16-19.22-6,19.22h-3.52l-7.36-25.36h4.31l4.99,18.98,5.91-18.98h3.49l6.02,19.38h0Z" fill="#c9d1d9"/>
  <path d="m178.18,378.31c0-.7.21-1.3.64-1.78s1.07-.73,1.91-.73,1.48.24,1.92.73.66,1.08.66,1.78-.22,1.29-.66,1.76-1.08.7-1.92.7-1.48-.23-1.91-.7-.64-1.05-.64-1.76Zm4.68,32.09h-4.34v-25.36h4.34v25.36h0Z" fill="#c9d1d9"/>
  <path d="m195.68,378.9v6.14h4.73v3.35h-4.73v15.75c0,1.02.21,1.78.63,2.29s1.14.76,2.16.76c.5,0,1.19-.09,2.06-.28v3.5c-1.14.31-2.25.47-3.33.47-1.94,0-3.4-.59-4.38-1.76s-1.48-2.84-1.48-4.99v-15.73h-4.62v-3.35h4.62v-6.14h4.34v-.01Z" fill="#c9d1d9"/>
  <path d="m209.82,388.11c1.92-2.36,4.42-3.54,7.5-3.54,5.36,0,8.06,3.02,8.11,9.07v16.76h-4.34v-16.78c-.02-1.83-.43-3.18-1.25-4.05s-2.1-1.31-3.83-1.31c-1.41,0-2.64.38-3.7,1.12s-1.89,1.73-2.48,2.95v18.07h-4.34v-36h4.34v13.71h-.01Z" fill="#c9d1d9"/>
  <path d="m14.96,442.64v28.29c0,4.88-2.21,7.31-6.63,7.31-.95,0-1.84-.14-2.65-.42v-3.45c.5.12,1.16.19,1.97.19.97,0,1.71-.26,2.21-.79.51-.52.76-1.44.76-2.73v-28.4h4.34Zm-4.78-6.73c0-.69.21-1.28.64-1.77s1.06-.74,1.89-.74,1.48.24,1.92.73.66,1.08.66,1.78-.22,1.29-.66,1.76-1.08.7-1.92.7-1.48-.23-1.9-.7-.63-1.05-.63-1.76h0Z" fill="#c9d1d9"/>
  <path d="m21.97,435.91c0-.7.21-1.3.64-1.78s1.07-.73,1.91-.73,1.48.24,1.92.73.66,1.08.66,1.78-.22,1.29-.66,1.76-1.08.7-1.92.7-1.48-.23-1.91-.7-.64-1.05-.64-1.76Zm4.68,32.09h-4.34v-25.36h4.34v25.36Z" fill="#c9d1d9"/>
  <path d="m39.47,436.5v6.14h4.73v3.35h-4.73v15.75c0,1.02.21,1.78.63,2.29.42.51,1.14.76,2.16.76.5,0,1.19-.09,2.06-.28v3.5c-1.14.31-2.25.47-3.33.47-1.94,0-3.4-.59-4.38-1.76s-1.48-2.84-1.48-4.99v-15.73h-4.62v-3.35h4.62v-6.14h4.34v-.01Z" fill="#c9d1d9"/>
  <path d="m55.15,436.5v6.14h4.73v3.35h-4.73v15.75c0,1.02.21,1.78.63,2.29.42.51,1.14.76,2.16.76.5,0,1.19-.09,2.06-.28v3.5c-1.14.31-2.25.47-3.33.47-1.94,0-3.4-.59-4.38-1.76s-1.48-2.84-1.48-4.99v-15.73h-4.62v-3.35h4.62v-6.14h4.34v-.01Z" fill="#c9d1d9"/>
  <path d="m75.47,468.47c-3.44,0-6.23-1.13-8.39-3.39s-3.23-5.28-3.23-9.06v-.8c0-2.52.48-4.76,1.44-6.74s2.3-3.52,4.03-4.64,3.6-1.68,5.61-1.68c3.3,0,5.86,1.09,7.69,3.26s2.74,5.28,2.74,9.33v1.8h-17.18c.06,2.5.79,4.52,2.19,6.06s3.18,2.31,5.33,2.31c1.53,0,2.83-.31,3.89-.94s1.99-1.45,2.79-2.48l2.65,2.06c-2.12,3.27-5.31,4.9-9.56,4.9v.01Zm-.54-22.74c-1.75,0-3.22.64-4.41,1.91s-1.92,3.06-2.2,5.36h12.7v-.33c-.12-2.2-.72-3.91-1.78-5.12s-2.5-1.82-4.31-1.82Z" fill="#c9d1d9"/>
  <path d="m102.64,446.53c-.66-.11-1.37-.16-2.13-.16-2.84,0-4.77,1.21-5.79,3.63v18h-4.34v-25.36h4.22l.07,2.93c1.42-2.27,3.44-3.4,6.05-3.4.84,0,1.48.11,1.92.33,0,0,0,4.03,0,4.03Z" fill="#c9d1d9"/>
</svg>