<?xml version="1.0" encoding="UTF-8"?><svg id="uuid-1a7533f9-df73-4dc1-bc95-9bf4da0880ae" xmlns="http://www.w3.org/2000/svg" viewBox="0 0 1821.6 511.2"><defs><style>.uuid-986e1136-81d9-4eb6-9a7f-0828e2bb50fb,.uuid-82bf82ea-05fe-48b1-b223-b5ef94a2706e,.uuid-557377a6-4646-4eb1-99ac-8a25187e96d0{fill:none;stroke-miterlimit:10;}.uuid-986e1136-81d9-4eb6-9a7f-0828e2bb50fb,.uuid-557377a6-4646-4eb1-99ac-8a25187e96d0{stroke:#d85648;stroke-width:2.49px;}.uuid-82bf82ea-05fe-48b1-b223-b5ef94a2706e{stroke:#7f7f7f;stroke-width:4.99px;}.uuid-557377a6-4646-4eb1-99ac-8a25187e96d0{stroke-dasharray:0 0 4.99 7.48;}.uuid-5baddd39-ff64-4c0d-b652-f68e6c062d7d,.uuid-d9b578bd-67df-45d9-a6de-c04b3220a09f{stroke-width:0px;}.uuid-5baddd39-ff64-4c0d-b652-f68e6c062d7d,.uuid-96496205-2e8f-44e7-8425-e53be9dfc45a{fill:#c9d1d9;}.uuid-d9b578bd-67df-45d9-a6de-c04b3220a09f{fill:#d85648;}.uuid-96496205-2e8f-44e7-8425-e53be9dfc45a{font-family:Roboto-Regular, Roboto;font-size:48px;}</style></defs><line class="uuid-82bf82ea-05fe-48b1-b223-b5ef94a2706e" x1="165.6" y1="252" x2="292.98" y2="252"/><line class="uuid-82bf82ea-05fe-48b1-b223-b5ef94a2706e" x1="292.98" y1="63" x2="292.98" y2="252"/><line class="uuid-82bf82ea-05fe-48b1-b223-b5ef94a2706e" x1="547.75" y1="63" x2="292.98" y2="63"/><line class="uuid-82bf82ea-05fe-48b1-b223-b5ef94a2706e" x1="547.75" y1="252" x2="547.75" y2="63"/><line class="uuid-82bf82ea-05fe-48b1-b223-b5ef94a2706e" x1="802.52" y1="252" x2="547.75" y2="252"/><line class="uuid-82bf82ea-05fe-48b1-b223-b5ef94a2706e" x1="802.52" y1="63" x2="802.52" y2="252"/><line class="uuid-82bf82ea-05fe-48b1-b223-b5ef94a2706e" x1="1057.29" y1="63" x2="802.52" y2="63"/><line class="uuid-82bf82ea-05fe-48b1-b223-b5ef94a2706e" x1="1057.29" y1="252" x2="1057.29" y2="63"/><line class="uuid-82bf82ea-05fe-48b1-b223-b5ef94a2706e" x1="1312.06" y1="252" x2="1057.29" y2="252"/><line class="uuid-82bf82ea-05fe-48b1-b223-b5ef94a2706e" x1="1312.06" y1="63" x2="1312.06" y2="252"/><line class="uuid-82bf82ea-05fe-48b1-b223-b5ef94a2706e" x1="1566.83" y1="63" x2="1312.06" y2="63"/><line class="uuid-82bf82ea-05fe-48b1-b223-b5ef94a2706e" x1="1566.83" y1="252" x2="1566.83" y2="63"/><line class="uuid-82bf82ea-05fe-48b1-b223-b5ef94a2706e" x1="1821.6" y1="252" x2="1566.83" y2="252"/><line class="uuid-82bf82ea-05fe-48b1-b223-b5ef94a2706e" x1="165.6" y1="504" x2="318.46" y2="504"/><line class="uuid-82bf82ea-05fe-48b1-b223-b5ef94a2706e" x1="318.46" y1="315" x2="318.46" y2="504"/><line class="uuid-82bf82ea-05fe-48b1-b223-b5ef94a2706e" x1="560.49" y1="315" x2="318.46" y2="315"/><line class="uuid-82bf82ea-05fe-48b1-b223-b5ef94a2706e" x1="560.49" y1="504" x2="560.49" y2="315"/><line class="uuid-82bf82ea-05fe-48b1-b223-b5ef94a2706e" x1="789.78" y1="504" x2="560.49" y2="504"/><line class="uuid-82bf82ea-05fe-48b1-b223-b5ef94a2706e" x1="789.78" y1="315" x2="789.78" y2="504"/><line class="uuid-82bf82ea-05fe-48b1-b223-b5ef94a2706e" x1="1050.92" y1="315" x2="789.78" y2="315"/><line class="uuid-82bf82ea-05fe-48b1-b223-b5ef94a2706e" x1="1050.92" y1="504" x2="1050.92" y2="315"/><line class="uuid-82bf82ea-05fe-48b1-b223-b5ef94a2706e" x1="1299.32" y1="504" x2="1050.92" y2="504"/><line class="uuid-82bf82ea-05fe-48b1-b223-b5ef94a2706e" x1="1299.32" y1="315" x2="1299.32" y2="504"/><line class="uuid-82bf82ea-05fe-48b1-b223-b5ef94a2706e" x1="1547.72" y1="315" x2="1299.32" y2="315"/><line class="uuid-82bf82ea-05fe-48b1-b223-b5ef94a2706e" x1="1547.72" y1="504" x2="1547.72" y2="315"/><line class="uuid-82bf82ea-05fe-48b1-b223-b5ef94a2706e" x1="1821.6" y1="504" x2="1547.72" y2="504"/><line class="uuid-557377a6-4646-4eb1-99ac-8a25187e96d0" x1="292.98" y1="0" x2="292.98" y2="396.9"/><line class="uuid-557377a6-4646-4eb1-99ac-8a25187e96d0" x1="318.46" y1="0" x2="318.46" y2="396.9"/><line class="uuid-557377a6-4646-4eb1-99ac-8a25187e96d0" x1="547.75" y1="0" x2="547.75" y2="396.9"/><line class="uuid-557377a6-4646-4eb1-99ac-8a25187e96d0" x1="560.49" x2="560.49" y2="396.9"/><line class="uuid-557377a6-4646-4eb1-99ac-8a25187e96d0" x1="789.78" y1="0" x2="789.78" y2="396.9"/><line class="uuid-557377a6-4646-4eb1-99ac-8a25187e96d0" x1="802.52" y1="0" x2="802.52" y2="396.9"/><line class="uuid-557377a6-4646-4eb1-99ac-8a25187e96d0" x1="1050.92" x2="1050.92" y2="396.9"/><line class="uuid-557377a6-4646-4eb1-99ac-8a25187e96d0" x1="1057.29" y1="0" x2="1057.29" y2="396.9"/><line class="uuid-557377a6-4646-4eb1-99ac-8a25187e96d0" x1="1299.32" y1="0" x2="1299.32" y2="396.9"/><line class="uuid-557377a6-4646-4eb1-99ac-8a25187e96d0" x1="1312.06" y1="0" x2="1312.06" y2="396.9"/><line class="uuid-557377a6-4646-4eb1-99ac-8a25187e96d0" x1="1547.72" y1="0" x2="1547.72" y2="396.9"/><line class="uuid-557377a6-4646-4eb1-99ac-8a25187e96d0" x1="1566.83" y1="0" x2="1566.83" y2="396.9"/><line class="uuid-986e1136-81d9-4eb6-9a7f-0828e2bb50fb" x1="270.89" y1="378" x2="235.66" y2="378"/><polygon class="uuid-d9b578bd-67df-45d9-a6de-c04b3220a09f" points="265.95 370.75 292.98 378 265.95 385.25 265.95 370.75"/><line class="uuid-986e1136-81d9-4eb6-9a7f-0828e2bb50fb" x1="340.56" y1="378" x2="375.78" y2="378"/><polygon class="uuid-d9b578bd-67df-45d9-a6de-c04b3220a09f" points="345.5 385.25 318.46 378 345.5 370.75 345.5 385.25"/><line class="uuid-986e1136-81d9-4eb6-9a7f-0828e2bb50fb" x1="525.66" y1="378" x2="490.43" y2="378"/><polygon class="uuid-d9b578bd-67df-45d9-a6de-c04b3220a09f" points="520.72 370.75 547.75 378 520.72 385.25 520.72 370.75"/><line class="uuid-986e1136-81d9-4eb6-9a7f-0828e2bb50fb" x1="595.33" y1="378" x2="630.55" y2="378"/><polygon class="uuid-d9b578bd-67df-45d9-a6de-c04b3220a09f" points="600.27 385.25 573.23 378 600.27 370.75 600.27 385.25"/><line class="uuid-986e1136-81d9-4eb6-9a7f-0828e2bb50fb" x1="767.69" y1="378" x2="732.46" y2="378"/><polygon class="uuid-d9b578bd-67df-45d9-a6de-c04b3220a09f" points="762.75 370.75 789.78 378 762.75 385.25 762.75 370.75"/><line class="uuid-986e1136-81d9-4eb6-9a7f-0828e2bb50fb" x1="824.62" y1="378" x2="859.85" y2="378"/><polygon class="uuid-d9b578bd-67df-45d9-a6de-c04b3220a09f" points="829.56 385.25 802.52 378 829.56 370.75 829.56 385.25"/><line class="uuid-986e1136-81d9-4eb6-9a7f-0828e2bb50fb" x1="1028.83" y1="378" x2="993.6" y2="378"/><polygon class="uuid-d9b578bd-67df-45d9-a6de-c04b3220a09f" points="1023.89 370.75 1050.92 378 1023.89 385.25 1023.89 370.75"/><line class="uuid-986e1136-81d9-4eb6-9a7f-0828e2bb50fb" x1="1079.39" y1="378" x2="1114.62" y2="378"/><polygon class="uuid-d9b578bd-67df-45d9-a6de-c04b3220a09f" points="1084.33 385.25 1057.29 378 1084.33 370.75 1084.33 385.25"/><line class="uuid-986e1136-81d9-4eb6-9a7f-0828e2bb50fb" x1="1277.23" y1="378" x2="1242" y2="378"/><polygon class="uuid-d9b578bd-67df-45d9-a6de-c04b3220a09f" points="1272.29 370.75 1299.32 378 1272.29 385.25 1272.29 370.75"/><line class="uuid-986e1136-81d9-4eb6-9a7f-0828e2bb50fb" x1="1334.16" y1="378" x2="1369.38" y2="378"/><polygon class="uuid-d9b578bd-67df-45d9-a6de-c04b3220a09f" points="1339.1 385.25 1312.06 378 1339.1 370.75 1339.1 385.25"/><line class="uuid-986e1136-81d9-4eb6-9a7f-0828e2bb50fb" x1="1525.63" y1="378" x2="1490.4" y2="378"/><polygon class="uuid-d9b578bd-67df-45d9-a6de-c04b3220a09f" points="1520.69 370.75 1547.72 378 1520.69 385.25 1520.69 370.75"/><line class="uuid-986e1136-81d9-4eb6-9a7f-0828e2bb50fb" x1="1588.93" y1="378" x2="1624.15" y2="378"/><polygon class="uuid-d9b578bd-67df-45d9-a6de-c04b3220a09f" points="1593.87 385.25 1566.83 378 1593.87 370.75 1593.87 385.25"/><text class="uuid-96496205-2e8f-44e7-8425-e53be9dfc45a" transform="translate(7.2 158.4)"><tspan x="0" y="0">Ideal clock</tspan></text><path class="uuid-5baddd39-ff64-4c0d-b652-f68e6c062d7d" d="M36.26,399.57c-.42,3.61-1.75,6.39-4,8.36s-5.22,2.94-8.94,2.94c-4.03,0-7.26-1.45-9.69-4.34s-3.64-6.76-3.64-11.6v-3.28c0-3.17.57-5.96,1.7-8.37s2.74-4.25,4.82-5.54,4.48-1.93,7.22-1.93c3.62,0,6.53,1.01,8.72,3.04s3.46,4.82,3.82,8.4h-4.52c-.39-2.73-1.24-4.7-2.54-5.92-1.3-1.22-3.13-1.83-5.47-1.83-2.88,0-5.13,1.06-6.76,3.19s-2.45,5.15-2.45,9.08v3.31c0,3.71.77,6.65,2.32,8.84s3.71,3.28,6.49,3.28c2.5,0,4.42-.57,5.75-1.7s2.22-3.11,2.66-5.92h4.52Z"/><path class="uuid-5baddd39-ff64-4c0d-b652-f68e6c062d7d" d="M46.43,410.4h-4.34v-36h4.34v36Z"/><path class="uuid-5baddd39-ff64-4c0d-b652-f68e6c062d7d" d="M52.22,397.49c0-2.48.49-4.72,1.46-6.7s2.34-3.52,4.08-4.59,3.73-1.62,5.96-1.62c3.45,0,6.25,1.2,8.38,3.59s3.2,5.57,3.2,9.54v.3c0,2.47-.47,4.68-1.42,6.64s-2.3,3.49-4.05,4.58-3.78,1.64-6.06,1.64c-3.44,0-6.22-1.2-8.36-3.59s-3.2-5.55-3.2-9.49v-.3ZM56.58,398c0,2.81.65,5.07,1.96,6.77s3.05,2.55,5.24,2.55,3.95-.86,5.25-2.59,1.95-4.14,1.95-7.25c0-2.78-.66-5.04-1.98-6.76s-3.07-2.59-5.26-2.59-3.87.85-5.18,2.55-1.97,4.14-1.97,7.31Z"/><path class="uuid-5baddd39-ff64-4c0d-b652-f68e6c062d7d" d="M90.92,407.33c1.55,0,2.9-.47,4.05-1.41s1.8-2.11,1.92-3.52h4.1c-.08,1.45-.58,2.84-1.5,4.15s-2.15,2.36-3.69,3.14-3.17,1.17-4.89,1.17c-3.45,0-6.2-1.15-8.24-3.46s-3.06-5.46-3.06-9.46v-.73c0-2.47.45-4.66,1.36-6.59s2.21-3.41,3.9-4.48,3.7-1.59,6.01-1.59c2.84,0,5.21.85,7.09,2.55s2.89,3.91,3.01,6.63h-4.1c-.12-1.64-.75-2.99-1.86-4.04s-2.5-1.58-4.14-1.58c-2.2,0-3.91.79-5.12,2.38s-1.82,3.88-1.82,6.88v.82c0,2.92.6,5.17,1.8,6.75s2.92,2.37,5.16,2.37Z"/><path class="uuid-5baddd39-ff64-4c0d-b652-f68e6c062d7d" d="M112.95,398.66l-2.72,2.84v8.91h-4.34v-36h4.34v21.77l2.32-2.79,7.9-8.34h5.27l-9.87,10.59,11.02,14.77h-5.09l-8.84-11.74Z"/><path class="uuid-5baddd39-ff64-4c0d-b652-f68e6c062d7d" d="M164.54,404.42l4.88-19.38h4.34l-7.38,25.36h-3.52l-6.16-19.22-6,19.22h-3.52l-7.36-25.36h4.31l4.99,18.98,5.91-18.98h3.49l6.02,19.38Z"/><path class="uuid-5baddd39-ff64-4c0d-b652-f68e6c062d7d" d="M178.18,378.31c0-.7.21-1.3.64-1.78s1.07-.73,1.91-.73,1.48.24,1.92.73.66,1.08.66,1.78-.22,1.29-.66,1.76-1.08.7-1.92.7-1.48-.23-1.91-.7-.64-1.05-.64-1.76ZM182.86,410.4h-4.34v-25.36h4.34v25.36Z"/><path class="uuid-5baddd39-ff64-4c0d-b652-f68e6c062d7d" d="M195.68,378.9v6.14h4.73v3.35h-4.73v15.75c0,1.02.21,1.78.63,2.29.42.51,1.14.76,2.16.76.5,0,1.19-.09,2.06-.28v3.5c-1.14.31-2.25.47-3.33.47-1.94,0-3.4-.59-4.38-1.76s-1.48-2.84-1.48-4.99v-15.73h-4.62v-3.35h4.62v-6.14h4.34Z"/><path class="uuid-5baddd39-ff64-4c0d-b652-f68e6c062d7d" d="M209.82,388.11c1.92-2.36,4.42-3.54,7.5-3.54,5.36,0,8.06,3.02,8.11,9.07v16.76h-4.34v-16.78c-.02-1.83-.43-3.18-1.25-4.05s-2.1-1.31-3.83-1.31c-1.41,0-2.64.38-3.7,1.12s-1.89,1.73-2.48,2.95v18.07h-4.34v-36h4.34v13.71Z"/><path class="uuid-5baddd39-ff64-4c0d-b652-f68e6c062d7d" d="M14.96,442.64v28.29c0,4.88-2.21,7.31-6.63,7.31-.95,0-1.84-.14-2.65-.42v-3.45c.5.12,1.16.19,1.97.19.97,0,1.71-.26,2.21-.79.51-.52.76-1.44.76-2.73v-28.4h4.34ZM10.18,435.91c0-.69.21-1.28.64-1.77s1.06-.74,1.89-.74,1.48.24,1.92.73.66,1.08.66,1.78-.22,1.29-.66,1.76-1.08.7-1.92.7-1.48-.23-1.9-.7-.63-1.05-.63-1.76Z"/><path class="uuid-5baddd39-ff64-4c0d-b652-f68e6c062d7d" d="M21.97,435.91c0-.7.21-1.3.64-1.78s1.07-.73,1.91-.73,1.48.24,1.92.73.66,1.08.66,1.78-.22,1.29-.66,1.76-1.08.7-1.92.7-1.48-.23-1.91-.7-.64-1.05-.64-1.76ZM26.65,468h-4.34v-25.36h4.34v25.36Z"/><path class="uuid-5baddd39-ff64-4c0d-b652-f68e6c062d7d" d="M39.47,436.5v6.14h4.73v3.35h-4.73v15.75c0,1.02.21,1.78.63,2.29.42.51,1.14.76,2.16.76.5,0,1.19-.09,2.06-.28v3.5c-1.14.31-2.25.47-3.33.47-1.94,0-3.4-.59-4.38-1.76s-1.48-2.84-1.48-4.99v-15.73h-4.62v-3.35h4.62v-6.14h4.34Z"/><path class="uuid-5baddd39-ff64-4c0d-b652-f68e6c062d7d" d="M55.15,436.5v6.14h4.73v3.35h-4.73v15.75c0,1.02.21,1.78.63,2.29.42.51,1.14.76,2.16.76.5,0,1.19-.09,2.06-.28v3.5c-1.14.31-2.25.47-3.33.47-1.94,0-3.4-.59-4.38-1.76s-1.48-2.84-1.48-4.99v-15.73h-4.62v-3.35h4.62v-6.14h4.34Z"/><path class="uuid-5baddd39-ff64-4c0d-b652-f68e6c062d7d" d="M75.47,468.47c-3.44,0-6.23-1.13-8.39-3.39s-3.23-5.28-3.23-9.06v-.8c0-2.52.48-4.76,1.44-6.74s2.3-3.52,4.03-4.64,3.6-1.68,5.61-1.68c3.3,0,5.86,1.09,7.69,3.26s2.74,5.28,2.74,9.33v1.8h-17.18c.06,2.5.79,4.52,2.19,6.06s3.18,2.31,5.33,2.31c1.53,0,2.83-.31,3.89-.94s1.99-1.45,2.79-2.48l2.65,2.06c-2.12,3.27-5.31,4.9-9.56,4.9ZM74.93,445.73c-1.75,0-3.22.64-4.41,1.91s-1.92,3.06-2.2,5.36h12.7v-.33c-.12-2.2-.72-3.91-1.78-5.12s-2.5-1.82-4.31-1.82Z"/><path class="uuid-5baddd39-ff64-4c0d-b652-f68e6c062d7d" d="M102.64,446.53c-.66-.11-1.37-.16-2.13-.16-2.84,0-4.77,1.21-5.79,3.63v18h-4.34v-25.36h4.22l.07,2.93c1.42-2.27,3.44-3.4,6.05-3.4.84,0,1.48.11,1.92.33v4.03Z"/></svg>