<?xml version="1.0" encoding="UTF-8"?>
<svg xmlns="http://www.w3.org/2000/svg" viewBox="0 0 1166.4 446.4">
  <defs>
    <style>
      .cls-1 {
        fill: #c9d1d9;
      }

      .cls-2, .cls-3, .cls-4 {
        stroke-width: 8.5px;
      }

      .cls-2, .cls-3, .cls-4, .cls-5, .cls-6, .cls-7, .cls-8, .cls-9 {
        fill: none;
      }

      .cls-2, .cls-3, .cls-4, .cls-8, .cls-9 {
        stroke-miterlimit: 10;
      }

      .cls-2, .cls-7 {
        stroke: #d85648;
      }

      .cls-3 {
        stroke: #307eef;
      }

      .cls-4, .cls-6 {
        stroke: #1da37d;
      }

      .cls-5 {
        stroke: #4472c4;
      }

      .cls-5, .cls-6, .cls-7 {
        stroke-linecap: round;
        stroke-linejoin: round;
        stroke-width: 5.04px;
      }

      .cls-8 {
        stroke-width: 5.67px;
      }

      .cls-8, .cls-9 {
        stroke: #c9d1d9;
      }

      .cls-9 {
        stroke-width: 5.67px;
      }
    </style>
  </defs>
  <g id="Scale">
    <g>
      <line class="cls-8" x1="64.8" y1="223.2" x2="1108.97" y2="223.2"/>
      <polygon class="cls-1" points="1097.74 239.67 1159.2 223.21 1097.74 206.73 1097.74 239.67"/>
    </g>
  </g>
  <g id="NEU">
    <path class="cls-6" d="m64.8,223.21l.41-.6.39-.6.77-.6.39-.6.39-.6.39-.6.39-.6.77-.6.39-.6.39-.6.39-.6.39-.6.39-.6.77-.6.39-.6.39-.6.39-.6.39-.6.77-.6.39-.6.39-.6.39-.6.39-.6.39-.6.77-.6.39-.6.39-.6.39-.6.39-.6.77-1.21.39-.6.39-.6.39-.6.39-.6.39-.6.77-.6.39-.6.39-.6.39-.6.39-.6.77-.6.39-.6.39-.6.39-.6.39-.6.39-.6.77-.6.39-.6.39-.6.39-.6.39-.6.77-.6.39-.6.39-.6.39-.6.39-.6.39-.6.77-.6.39-.6.39-.6.39-.6.39-.6.77-.6.39-.6.39-.6.39-.6.39-.6.39-.6.77-.6.39-.6.39-.6.39-.6.39-.6.77-.6.39-.6.39-.6.39-.6.39-.6.77-.6.39-.6.39-.6.39-.6.39-.6.39-.6.77-.6.39-.6.39-.6.39-.6.39-.6.77-.6.39-.6.39-.6.39-.6.39-.6.39-.6.77-.6.39-.6h.39l.39-.6.39-.6.77-.6.39-.6.39-.6.39-.6.39-.6.39-.6.77-.6.39-.6.39-.6.39-.6.39-.6.77-.6.39-.6.39-.6.39-.6.39-.6.39-.6.77-.6.39-.6.39-.6.39-.6.39-.6.77-.6.39-.6.39-.6.39-.6.39-.6h.39l.77-.6.39-.6.39-.6.39-.6.39-.6.77-.6.39-.6.39-.61.39-.6.39-.6.77-.6.39-.6.39-.6.39-.6.39-.6.39-.6h.77l.39-.6.39-.6.39-.6.39-.6.77-.6.39-.6.39-.6.39-.6.39-.6.39-.6.77-.6.39-.6.39-.6h.39l.39-.6.77-.6.39-.6.39-.6.39-.6.39-.6.39-.6.77-.6.39-.6.39-.6h.39l.39-.6.77-.6.39-.6.39-.6.39-.6.39-.6.39-.6.78-.6h.39l.39-.6.39-.6.39-.6.77-.6.39-.6.39-.6.39-.6.39-.6h.39l.77-.6.39-.6.39-.6.39-.6.39-.6.77-.6h.39l.39-.6.39-.6.39-.6.39-.6.77-.6.39-.6.39-.6h.39l.39-.6.77-.6.39-.6.39-.6.39-.6h.39l.77-.6.39-.6.39-.6.39-.6.39-.6h.39l.77-.6.39-.6.39-.6.39-.6.39-.61h.77l.39-.6.39-.6.39-.6.39-.6.39-.6h.77l.39-.6.39-.6.39-.6.39-.6h.77l.39-.6.39-.6.39-.6.39-.6h.39l.77-.6.39-.6.39-.6.39-.6h.39l.77-.6.39-.6.39-.6h.39l.39-.6.39-.6.77-.6.39-.6h.39l.39-.6.39-.6.77-.6h.39l.39-.6.39-.6.39-.61h.39l.77-.6.39-.6.39-.6h.39l.39-.6.77-.6.39-.6h.39l.39-.6.39-.6.77-.6h.39l.39-.6.39-.6.39-.6h.39l.77-.6.39-.6h.39l.39-.6.39-.6.77-.6h.39l.39-.6.39-.6h.39l.39-.6.77-.6h.39l.39-.6.39-.6h.39l.77-.6.39-.6.39-.6h.39l.39-.6.39-.6h.77l.39-.6.39-.6h.39l.39-.6.77-.61h.39l.39-.6.39-.6h.39l.39-.6.77-.6h.39l.39-.6h.39l.39-.6.77-.6h.39l.39-.6.39-.6h.39l.39-.6.77-.6h.39l.39-.6h.39l.39-.6.77-.6h.39l.39-.6h.39l.39-.6.39-.6h.77l.39-.6h.39l.39-.6.39-.6h.77l.39-.6h.39l.39-.6.39-.6h.77l.39-.6h.39l.39-.6h.39l.39-.6.77-.6h.39l.39-.6h.39l.39-.61h.77l.39-.6h.39l.39-.6h.39l.39-.6.77-.6h.39l.39-.6h.39l.39-.6h.77l.39-.6h.39l.39-.6h.39l.39-.6h.77l.39-.6h.39l.39-.6h.39l.77-.6h.39l.39-.6h.39l.39-.6h.39l.77-.6h.39l.39-.6h.39l.39-.6h1.16l.39-.6h.39l.39-.6h.39l.77-.6h.39l.39-.6h.77l.77-.6h.39l.39-.6h.39l.39-.6h.77l.39-.6h.77l.39-.6h.39l.77-.6h.77l.39-.6h.39l.77-.6h.77l.39-.6h.39l.39-.6h1.16l.39-.61h.77l.77-.6h.77l.39-.6h.39l.39-.6h1.16l.39-.6h.77l.77-.6h.78l.39-.6h.77l.77-.6h1.16l.39-.6h1.16l.39-.6h.77l.39-.6h1.55l.39-.6h1.16l.39-.6h1.16l.39-.6h1.55l.39-.6h1.55l.39-.6h1.93l.39-.6h1.16l.77-.6h1.55l.77-.6h1.55l.39-.6h2.32l.77-.6h1.93l.77-.6h3.09l.39-.6h3.09l.77-.6h5.02l.39-.6h9.66l.39-.02h.77l.39.02h10.05l.77.6h4.25l.77.6h3.48l.39.6h2.71l.77.6h2.71l.39.6h1.93l.39.6h1.55l.77.6h1.55l.77.6h1.55l.39.6h1.55l.39.6h1.55l.39.6h1.16l.77.6h1.16l.39.6h1.55l.39.6h.77l.77.6h1.16l.39.6h1.16l.39.6h.77l.77.6h.77l.39.6h.77l.77.6h.77l.39.6h1.16l.39.6h.77l.39.6h1.16l.39.6h.39l.39.61h1.16l.39.6h.77l.39.6h.39l.77.6h.78l.39.6h.39l.77.6h.77l.39.6h.39l.39.6h.77l.39.6h.77l.39.6h.77l.39.6h.39l.39.6h.39l.39.6h1.16l.39.6h.39l.39.6h.77l.39.6h.39l.39.6h.39l.39.6h.77l.39.6h.39l.39.6h.39l.77.6h.39l.39.6h.39l.39.6h.77l.39.6h.39l.39.6h.39l.39.6h.77l.39.6h.39l.39.6h.39l.77.6h.39l.39.6h.39l.39.6h.39l.77.6.39.61h.39l.39.6h.39l.77.6h.39l.39.6h.39l.39.6.39.6h.77l.39.6h.39l.39.6.39.6h.77l.39.6h.39l.39.6h.39l.39.6.77.6h.39l.39.6h.39l.39.6.77.6h.39l.39.6.39.6h.39l.39.6h.77l.39.6.39.6h.39l.39.6.77.6h.39l.39.6.39.6h.39l.77.6h.39l.39.6.39.6h.39l.39.6.77.61h.39l.39.6.39.6h.39l.77.6.39.6h.39l.39.6.39.6h.39l.77.6.39.6.39.6h.39l.39.6.77.6h.39l.39.6.39.6h.39l.39.6.77.6.39.6h.39l.39.6.39.6h.77l.39.6.39.6.39.6h.39l.39.6.77.6.39.6h.39l.39.6.39.6h.77l.39.6.39.6.39.6h.39l.39.6.77.6.39.61h.39l.39.6.39.6.77.6.39.6h.39l.39.6.39.6.39.6h.77l.39.6.39.6.39.6h.39l.77.6.39.6.39.6.39.6h.39l.77.6.39.6.39.6.39.6h.39l.39.6.77.6.39.6.39.6h.39l.39.6.77.6.39.6.39.6.39.6h.39l.39.6.77.6.39.61.39.6h.39l.39.6.77.6.39.6.39.6.39.6h.39l.39.6.77.6.39.6.39.6.39.6.39.6h.77l.39.6.39.6.39.6.39.6.39.6h.77l.39.6.39.6.39.6.39.6.77.6.39.6.39.6h.39l.39.6.39.6.77.6.39.6.39.6.39.6.39.6h.77l.39.6.39.6.39.6.39.6.77.6.39.6.39.6.39.6h.39l.39.6.77.6.39.6.39.6.39.6.39.6.77.6.39.6.39.6h.39l.39.6.39.6.77.6.39.6.39.6.39.6.39.6.77.6.39.6.39.6.39.6h.39l.39.6.77.6.39.6.39.6.39.6.39.6.77.6.39.6.39.6.39.6.39.6.39.6.77.6.39.6h.39l.39.6.39.61.77.6.39.6.39.6.39.6.39.6.39.6.77.6.39.6.39.6.39.6.39.6.77.6.39.6.39.6.39.6.39.6.39.6.77.6.39.6h.39l.39.6.39.6.77.6.39.6.39.6.39.6.39.6.77.6.39.6.39.6.39.6.39.6.39.6.77.6.39.6.39.6.39.6.39.6.77.6.39.6.39.6.39.6.39.6.39.6.77.6.39.6.39.6.39.6.39.6.77.6.39.6.39.6.39.6.39.6.39.6.77.6.39.6.39.6.39.6.39.6.77.6.39.6.39.6.39.6.39.6.39.6.77.6.39.6.39.6.39.6.39.6.77.6.39.6.39.6.39.6.39.6.39.6.77.6.39.6.39.6.39.6.39.6.77.6.39.6.39.6.39.6.39.6.77.6.39.6.39.6.39.6.39.6.39.6.77.6.39.6.39.6.39.6.39.6.77.6.39.6.39.6.39.6.39.6.39.6.77.6.39.6.39.6.39.6.39.6.77.6.39.6.39.6.39.6.39.6.39.6.77.6.39.6.39.6.39.6.39.6.77.6.39.6.39.6.39.6.39.6.39.6.77.6.39.6.39.6.39.6.39.6.77.6.39.6.39.6.39,1.21.39.6.39.6.77.6.39.6.39.6.39.6.39.6.77.6.39.6.39.6.39.6.39.6.39.6.77.6.39.6.39.6.39.6.39.6.77.6.39.6.39.6.39.6.39.6.77.6.39.6.39.6.39.6.39.6.39.6.77.6.39.6.39.6.39.6.39.6.77.6.39.6.39.6.39.6.39.6.39.6.77.6.39.6.39.6.39.6.39.6.77.6.39.6.39.6.39.6.39.6.39.6.77.6.39.6.39.6.39.6.39.6.77.6.39.6.39.6.39.6.39.6.39.6.77.6.39.6.39.6.39.6.39.6.77.6.39.6.39.6.39.6.39.6.39.6.77.6.39.6.39.6.39.6.39.6.77.6.39.6.39.6.39.6.39.6.77.6.39.6.39.6.39.6.39.6.39.6.77.6.39.6.39.6.39.6.39.6.77.6.39.6.39.6.39.6.39.6.39.6.77.6.39.6.39.6.39.6.39.6.78.6.39.6.39.6.39.6.39.6.39.6.77.6.39.6.39.6h.39l.39.6.77.6.39.6.39.6.39.6.39.6.39.6.77.6.39.6.39.6.39.6.39.6.77.6.39.6.39.6.39.6.39.6.39.6.77.6.39.6.39.6h.39l.39.6.77.6.39.6.39.6.39.6.39.6.39.6.77.6.39.6.39.6.39.6.39.6.77.6.39.6h.39l.39.6.39.6.77.6.39.6.39.6.39.6.39.6.39.6.77.6.39.6.39.6h.39l.39.6.77.6.39.6.39.6.39.6.39.6.39.6.77.6.39.6h.39l.39.61.39.6.77.6.39.6.39.6.39.6.39.6.39.6h.77l.39.6.39.6.39.6.39.6.77.6.39.6.39.6h.39l.39.6.39.6.77.6.39.6.39.6.39.6.39.6h.77l.39.6.39.6.39.6.39.6.39.6h.77l.39.6.39.6.39.6.39.6.77.6.39.6h.39l.39.6.39.6.77.6.39.6.39.6h.39l.39.6.39.6.77.6.39.6h.39l.39.6.39.6.77.6.39.6.39.6h.39l.39.6.39.6.77.6.39.6h.39l.39.6.39.6.77.6.39.6h.39l.39.6.39.6.39.6.77.6h.39l.39.6.39.6.39.6h.77l.39.6.39.6.39.6h.39l.39.6.77.6.39.6.39.6h.39l.39.6.77.6.39.6h.39l.39.6.39.6.39.6h.77l.39.6.39.6h.39l.39.6.77.6.39.6h.39l.39.6.39.6.39.6h.77l.39.6.39.6h.39l.39.6.77.6.39.6h.39l.39.6.39.6h.77l.39.6.39.6h.39l.39.6.39.6.77.6h.39l.39.6.39.6h.39l.77.6.39.6h.39l.39.6.39.6h.39l.77.6.39.6h.39l.39.6.39.6h.77l.39.6h.39l.39.6.39.6h.39l.77.6.39.6h.39l.39.6.39.6h.77l.39.6h.39l.39.6.39.6h.39l.77.6.39.6h.39l.39.6h.39l.77.6.39.6h.39l.39.6h.39l.39.6h.77l.39.6.39.6h.39l.39.6h.77l.39.6.39.6h.39l.39.6h.77l.39.6h.39l.39.6h.39l.39.6.77.6h.39l.39.6h.39l.39.6h.77l.39.6h.39l.39.6h.39l.39.6h.78l.39.6h.39l.39.6h.39l.77.6h.39l.39.6h.39l.39.6h.39l.77.6h.39l.39.6h.39l.39.6h.77l.39.6h.39l.39.6h.39l.39.6h.77l.39.6h.39l.39.6h1.16l.39.6h.39l.39.6h.39l.39.6h.77l.39.6h.77l.39.6h.77l.39.6h.39l.39.6h.77l.77.6h.39l.39.6h.77l.77.6h.39l.39.6h.77l.77.6h.77l.39.6h.39l.39.6h1.16l.39.6h.77l.77.6h.77l.39.6h.77l.77.6h.77l.39.6h1.16l.39.6h.77l.39.6h1.16l.39.6h1.16l.77.6h.77l.39.6h1.55l.39.6h1.16l.77.6h1.16l.39.6h1.55l.39.6h1.55l.39.6h1.93l.39.6h1.55l.77.6h1.55l.77.6h1.55l.39.6h3.09l.39.6h2.71l.39.6h3.48l.77.6h4.25l.77.6h10.05l.39-.03h.77l.39.03h9.66l.39-.6h5.02l.77-.6h3.09l.39-.6h3.09l.77-.6h2.32l.39-.6h2.32l.39-.6h1.94l.39-.6h1.55l.77-.6h1.16l.39-.6h1.93l.39-.6h1.55l.39-.6h1.55l.39-.6h1.16l.39-.6h1.16l.39-.6h1.55l.39-.6h.77l.39-.6h1.16l.39-.6h1.16l.77-.6h.77l.39-.6h.77l.77-.6h.77l.39-.6h1.16l.39-.6h.39l.39-.6h1.16l.39-.6h.77l.39-.6h1.16l.39-.6h.39l.39-.6h1.16l.39-.6h.39l.39-.6h.77l.77-.6h.39l.39-.6h.77l.77-.6h.39l.39-.6h.39l.39-.6h.39l.77-.6h.77l.39-.6h.39l.77-.6h.39l.39-.6h.39l.39-.6h1.16l.39-.6h.39l.39-.6h.39l.77-.6h.39l.39-.6h.39l.39-.6h.39l.77-.6h.39l.39-.6h.39l.39-.6h.77l.39-.6h.39l.39-.6h.39l.77-.6h.39l.39-.6h.39l.39-.6h.39l.77-.6.39-.6h.39l.39-.6h.39l.77-.6h.39l.39-.6h.39l.39-.6h.39l.77-.6.39-.6h.39l.39-.6h.39l.77-.6h.39l.39-.6.39-.6h.39l.39-.6h.77l.39-.6.39-.6h.39l.39-.6h.77l.39-.6.39-.6h.39l.39-.6h.39l.77-.6.39-.6h.39l.39-.6h.39l.77-.6.39-.6h.39l.39-.6.39-.6h.39l.77-.6.39-.6h.39l.39-.6h.39l.77-.6.39-.6h.39l.39-.6.39-.6h.39l.77-.6.39-.6h.39l.39-.6.39-.6h.77l.39-.6.39-.6h.39l.39-.6.77-.6.39-.6h.39l.39-.6.39-.6h.39l.77-.6.39-.6h.39l.39-.6.39-.6h.77l.39-.6.39-.6.39-.6h.39l.39-.6.77-.6h.39l.39-.6.39-.6.39-.6h.77l.39-.6.39-.6.39-.6h.39l.39-.6.77-.6.39-.6h.39l.39-.6.39-.6.77-.6h.39l.39-.6.39-.6.39-.6h.39l.77-.6.39-.6.39-.6h.39l.39-.6.77-.6.39-.6.39-.6h.39l.39-.6.39-.6.77-.6h.39l.39-.6.39-.6.39-.6.77-.6h.39l.39-.6.39-.6.39-.6.78-.6h.39l.39-.6.39-.6.39-.6.39-.6h.77l.39-.6.39-.6.39-.6.39-.6.77-.6h.39l.39-.6.39-.6.39-.6.39-.6.77-.6h.39l.39-.6.39-.6.39-.6.77-.6.39-.6h.39l.39-.6.39-.6.39-.6.77-.6.39-.6h.39l.39-.6.39-.6.77-.6.39-.6.39-.6.39-.6.39-.6h.39l.77-.6.39-.6.39-.6.39-.6.39-.6.77-.6h.39l.39-.6.39-.6.39-.6.39-.6.77-.6.39-.6.39-.6.39-.6h.39l.77-.6.39-.6.39-.6.39-.61.39-.6.39-.6.77-.6.39-.6h.39l.39-.6.39-.6.77-.6.39-.6.39-.6.39-.6.39-.6.77-.6.39-.6.39-.6h.39l.39-.6.39-.6.77-.6.39-.6.39-.6.39-.6.39-.6.77-.6.39-.6.39-.6.39-.6.39-.6.39-.6h.77l.39-.6.39-.6.39-.6.39-.6.77-.6.39-.6.39-.6.39-.6.39-.6.39-.6.77-.6.39-.6.39-.6.39-.6.39-.6.77-.6h.39l.39-.6.39-.6.39-.6.39-.6.77-.6.39-.6.39-.6.39-.6.39-.6.77-.6.39-.6.39-.6.39-.6.39-.6.39-.6.77-.6.39-.6.39-.6.39-.6.39-.6.77-.6.39-.6.39-.6.39-.6.39-.6.77-.6.39-.6.39-.6.39-.6h.39l.39-.6.77-.6.39-.6.39-.6.39-.6.39-.6.77-.6.39-.6.39-.6.39-.6.39-.6.39-.6.77-.6.39-.6.39-.6.39-.6.39-.6.77-.6.39-.6.39-.6.39-.6.39-.6.39-.6.77-.6.39-.6.39-.6.39-.6.39-.6.77-.6.39-.6.39-.6.39-.6.39-.6.39-.6.77-.6.39-.6.39-.6.39-.6.39-.6.77-.6.39-.6.39-.6.39-.6.39-.6.39-.6.77-.6.39-.6.39-.6.39-.6.39-.6.77-.6.39-.6.39-.6.39-.6.39-.6.39-.6.77-.6.39-.6.39-.6.39-.6.39-.6.77-.6.39-.6.39-.6.39-.6.39-.6.77-.6.39-1.21.39-.6.39-.6.39-.6.39-.6.77-.6.39-.6.39-.6.39-.6.39-.6.77-.6.39-.6.39-.6.39-.6.39-.6.39-.6.77-.6.39-.6.39-.6.39-.6.39-.6.77-.6.39-.6.39-.6.39-.6.39-.6.39-.6.77-.6.33-.6"/>
    <path class="cls-5" d="m64.8,223.21l.41-.45.39-.9.77-.45.39-.45.39-.9.39-.45.39-.9.77-.45.39-.45.39-.9.39-.45.39-.45.39-.9.77-.45.39-.9.39-.45.39-.45.39-.9.77-.45.39-.45.39-.9.39-.45.39-.9.39-.45.77-.45.39-.9.39-.45.39-.45.39-.9.77-.45.39-.9.39-.45.39-.45.39-.9.39-.45.77-.45.39-.9.39-.45.39-.45.39-.9.77-.45.39-.9.39-.45.39-.45.39-.9.39-.45.77-.45.39-.9.39-.45.39-.45.39-.9.77-.45.39-.45.39-.9.39-.45.39-.9.39-.45.77-.45.39-.9.39-.45.39-.45.39-.9.77-.45.39-.45.39-.9.39-.45.39-.45.39-.9.77-.45.39-.45.39-.9.39-.45.39-.9.77-.45.39-.45.39-.9.39-.45.39-.45.77-.9.39-.45.39-.45.39-.9.39-.45.39-.45.77-.9.39-.45.39-.45.39-.9.39-.45.77-.45.39-.9.39-.45.39-.45.39-.9.39-.45.77-.45.39-.45.39-.9.39-.45.39-.45.77-.91.39-.45.39-.45.39-.9.39-.45.39-.45.77-.9.39-.45.39-.45.39-.9.39-.45.77-.45.39-.45.39-.9.39-.45.39-.45.39-.9.77-.45.39-.45.39-.9.39-.45.39-.45.77-.45.39-.9.39-.45.39-.45.39-.9.39-.45.77-.45.39-.45.39-.9.39-.45.39-.45.77-.9.39-.45.39-.45.39-.45.39-.9.77-.45.39-.45.39-.45.39-.9.39-.45.39-.45.77-.45.39-.9.39-.45.39-.45.39-.9.77-.45.39-.45.39-.45.39-.45.39-.9.39-.45.77-.45.39-.45.39-.9.39-.45.39-.45.77-.45.39-.9.39-.45.39-.45.39-.45.39-.9.77-.45.39-.45.39-.45.39-.45.39-.9.77-.45.39-.45.39-.45.39-.45.39-.9.39-.45.78-.45.39-.45.39-.45.39-.9.39-.45.77-.45.39-.45.39-.45.39-.9.39-.45.39-.45.77-.45.39-.45.39-.9.39-.45.39-.45.77-.45.39-.45.39-.45.39-.9.39-.45.39-.45.77-.45.39-.45.39-.45.39-.45.39-.9.77-.45.39-.45.39-.45.39-.45.39-.45.77-.45.39-.9.39-.45.39-.45.39-.45.39-.45.77-.45.39-.45.39-.45.39-.9.39-.45.77-.45.39-.45.39-.45.39-.45.39-.45.39-.45.77-.45.39-.9.39-.45.39-.45.39-.45.77-.45.39-.45.39-.45.39-.45.39-.45.39-.45.77-.45.39-.45.39-.45.39-.9.39-.45.77-.45.39-.45.39-.45.39-.45.39-.45.39-.45.77-.45.39-.45.39-.45.39-.45.39-.45.77-.45.39-.45.39-.45.39-.45.39-.45.39-.45.77-.45.39-.45.39-.45.39-.45.39-.45.77-.45.39-.45h.39l.39-.45.39-.45.77-.45.39-.45h.39l.39-.45.39-.45.39-.45h.77l.39-.45.39-.45h.39l.39-.45.77-.45h.39l.39-.45h.39l.39-.45.39-.45h.77l.39-.45h.39l.39-.45h.39l.77-.45h.39l.39-.45h.39l.39-.45h.39l.77-.45h.77l.39-.45h.39l.77-.45h.39l.39-.45h.77l.39-.45h1.16l.39-.45h.77l.77-.45h.77l.39-.45h.77l.77-.45h.77l.39-.45h1.55l.39-.45h1.16l.77-.45h1.16l.39-.45h1.93l.39-.45h1.93l.39-.45h1.93l.39-.45h2.32l.39-.45h2.71l.77-.45h2.71l.39-.45h3.48l.39-.45h4.25l.39-.45h5.8l.39-.45h6.18l.39-.45h9.28l.39-.45h13.91l.39-.45h35.17s.39-.01.39-.01h4.64s.39.01.39.01h34.4l.39.45h14.3l.39.45h8.89l.39.45h6.57l.77.45h5.02l.39.45h3.87l.77.45h3.48l.39.45h3.48l.39.45h2.32l.39.45h2.32l.39.45h2.32l.39.45h1.93l.39.45h1.55l.39.45h1.55l.77.45h1.16l.39.45h1.16l.39.45h1.16l.77.45h.77l.39.45h1.16l.39.45h.77l.39.45h1.16l.39.45h.39l.39.45h1.16l.39.45h.39l.39.45h.39l.77.45h.39l.39.45h.39l.39.45h.39l.77.45h.39l.39.45h.39l.39.45h.77l.39.45h.39l.39.45.39.45h.39l.77.45h.39l.39.45.39.45h.39l.77.45.39.45.39.45h.39l.39.45.39.45.77.45h.39l.39.45.39.45.39.45.77.45.39.45.39.45h.39l.39.45.39.45.77.45.39.45.39.45.39.45.39.45.77.45.39.45.39.45.39.9.39.45.39.45.77.45.39.45.39.45.39.45.39.45.77.45.39.45.39.45.39.45.39.45.77.45.39.45.39.45.39.45.39.9.39.45.77.45.39.45.39.45.39.45.39.45.77.45.39.45.39.45.39.45.39.9.39.45.77.45.39.45.39.45.39.45.39.45.77.45.39.45.39.9.39.45.39.45.39.45.77.45.39.45.39.45.39.9.39.45.77.45.39.45.39.45.39.45.39.45.39.9.77.45.39.45.39.45.39.45.39.45.77.9.39.45.39.45.39.45.39.45.39.45.77.9.39.45.39.45.39.45.39.45.77.9.39.45.39.45.39.45.39.45.77.9.39.45.39.45.39.45.39.45.39.9.77.45.39.45.39.45.39.45.39.9.77.45.39.45.39.45.39.9.39.45.39.45.77.45.39.45.39.9.39.45.39.45.77.45.39.9.39.45.39.45.39.45.39.9.77.45.39.45.39.45.39.9.39.45.77.45.39.45.39.9.39.45.39.45.39.45.77.9.39.45.39.45.39.9.39.45.77.45.39.45.39.9.39.45.39.45.39.45.77.9.39.45.39.45.39.9.39.45.77.45.39.45.39.9.39.45.39.45.39.9.77.45.39.45.39.9.39.45.39.45.77.45.39.9.39.45.39.45.39.9.77.45.39.45.39.9.39.45.39.45.39.9.77.45.39.46.39.9.39.45.39.45.77.45.39.9.39.45.39.45.39.9.39.45.77.45.39.9.39.45.39.45.39.9.77.45.39.45.39.9.39.45.39.45.39.9.77.45.39.45.39.9.39.45.39.45.77.9.39.45.39.9.39.45.39.45.39.9.77.45.39.45.39.9.39.45.39.45.77.9.39.45.39.45.39.9.39.45.39.45.77.9.39.45.39.45.39.9.39.45.77.9.39.45.39.45.39.9.39.45.77.45.39.9.39.45.39.45.39.9.39.45.77.9.39.45.39.45.39.9.39.45.77.45.39.9.39.45.39.45.39.9.39.45.77.9.39.45.39.45.39.9.39.45.77.45.39.9.39.45.39.45.39.9.39.45.77.9.39.45.39.45.39.9.39.45.77.45.39.9.39.45.39.9.39.45.39.45.77.9.39.45.39.45.39.9.39.45.77.9.39.45.39.45.39.9.39.45.39.45.77.9.39.45.39.9.39.45.39.45.77.9.39.45.39.45.39.9.39.45.39.9.77.45.39.45.39.9.39.45.39.45.77.9.39.45.39.9.39.45.39.45.77.9.39.45.39.45.39.9.39.45.39.45.77.9.39.45.39.9.39.45.39.45.77.9.39.45.39.45.39.9.39.45.39.45.77.9.39.45.39.9.39.45.39.45.77.9.39.45.39.45.39.9.39.45.39.45.77.9.39.45.39.9.39.45.39.45.77.9.39.45.39.45.39.9.39.45.39.45.77.9.39.45.39.45.39.9.39.45.77.45.39.9.39.45.39.45.39.9.39.45.77.9.39.45.39.45.39.9.39.45.77.45.39.9.39.45.39.45.39.9.77.45.39.45.39.9.39.45.39.45.39.9.77.45.39.45.39.9.39.45.39.45.77.9.39.45.39.45.39.45.39.9.39.45.77.45.39.9.39.45.39.45.39.9.78.45.39.45.39.9.39.45.39.45.39.9.77.45.39.45.39.45.39.9.39.45.77.45.39.9.39.45.39.45.39.9.39.45.77.45.39.45.39.9.39.46.39.45.77.9.39.45.39.45.39.45.39.9.39.45.77.45.39.45.39.9.39.45.39.45.77.9.39.45.39.45.39.45.39.9.39.45.77.45.39.45.39.9.39.45.39.45.77.45.39.9.39.45.39.45.39.45.77.9.39.45.39.45.39.45.39.9.39.45.77.45.39.45.39.45.39.9.39.45.77.45.39.45.39.9.39.45.39.45.39.45.77.45.39.9.39.45.39.45.39.45.77.45.39.9.39.45.39.45.39.45.39.45.77.9.39.45.39.45.39.45.39.45.77.9.39.45.39.45.39.45.39.45.39.45.77.9.39.45.39.45.39.45.39.45.77.45.39.9.39.45.39.45.39.45.39.45.77.45.39.45.39.9.39.45.39.45.77.45.39.45.39.45.39.45.39.9.77.45.39.45.39.45.39.45.39.45.39.45.77.45.39.45.39.9.39.45.39.45.77.45.39.45.39.45.39.45.39.45.39.45.77.45.39.45.39.9.39.45.39.45.77.45.39.45.39.45.39.45.39.45.39.45.77.45.39.45.39.45.39.45.39.45.77.45.39.45.39.45.39.9.39.45.39.45.77.45.39.45.39.45.39.45.39.45.77.45.39.45.39.45h.39l.39.45.39.45.77.45.39.45.39.45.39.45h.39l.77.45.39.45.39.45h.39l.39.45.39.45.77.45h.39l.39.45.39.45h.39l.77.45h.39l.39.45.39.45h.39l.77.45h.39l.39.45h.39l.39.45h.39l.77.45h.39l.39.45h.39l.39.45h.77l.39.45h.39l.39.45h.39l.39.45h1.16l.39.45h.39l.39.45h1.16l.39.45h.77l.39.45h1.16l.39.45h.77l.77.45h1.16l.39.45h1.16l.39.45h1.16l.77.45h1.55l.39.45h1.55l.39.45h1.93l.39.45h2.32l.39.45h2.32l.39.45h2.32l.39.45h3.48l.39.45h3.48l.77.45h3.87l.39.45h5.02l.77.45h6.57l.77.45h8.5l.39.45h14.3l.39.45h34.79l.39-.02h4.64l.39.02h34.79l.39-.45h13.91l.39-.45h9.28l.39-.45h6.18l.77-.45h5.41l.39-.45h4.25l.39-.45h3.48l.39-.45h3.09l.39-.45h2.71l.39-.45h2.32l.39-.45h1.93l.39-.45h1.93l.39-.45h1.93l.39-.45h1.16l.77-.45h1.16l.39-.45h1.55l.39-.45h.77l.77-.45h.77l.39-.45h.77l.77-.45h.77l.39-.45h1.16l.39-.45h.77l.39-.45h.39l.77-.45h.39l.39-.45h.77l.77-.45h.39l.39-.45h.39l.39-.45h.77l.39-.45h.39l.39-.45h.39l.39-.45h.77l.39-.45.39-.45h.39l.39-.45h.77l.39-.45.39-.45h.39l.39-.45.39-.45h.77l.39-.45.39-.45.39-.45h.39l.77-.45.39-.45.39-.45.39-.45h.39l.39-.45.77-.45.39-.45.39-.45.39-.45.39-.45.77-.45.39-.45.39-.45.39-.45.39-.45.39-.45.77-.45.39-.45.39-.45.39-.45.39-.45.77-.45.39-.45.39-.45.39-.45.39-.45.39-.45.77-.45.39-.45.39-.9.39-.45.39-.45.77-.45.39-.45.39-.45.39-.45.39-.45.78-.45.39-.45.39-.45.39-.45.39-.45.39-.9.77-.45.39-.45.39-.45.39-.45.39-.45.77-.45.39-.45.39-.45.39-.9.39-.45.39-.45.77-.45.39-.45.39-.45.39-.45.39-.45.77-.9.39-.45.39-.45.39-.45.39-.45.39-.45.77-.45.39-.9.39-.45.39-.45.39-.45.77-.45.39-.45.39-.45.39-.9.39-.45.39-.45.77-.45.39-.45.39-.45.39-.9.39-.45.77-.45.39-.45.39-.45.39-.9.39-.45.39-.45.77-.45.39-.45.39-.9.39-.45.39-.45.77-.45.39-.45.39-.9.39-.45.39-.45.39-.45.77-.45.39-.9.39-.45.39-.45.39-.45.77-.45.39-.9.39-.45.39-.45.39-.45.77-.9.39-.45.39-.45.39-.45.39-.9.39-.45.77-.45.39-.45.39-.9.39-.45.39-.45.77-.45.39-.45.39-.9.39-.45.39-.45.39-.9.77-.45.39-.45.39-.45.39-.9.39-.45.77-.45.39-.45.39-.9.39-.45.39-.45.39-.45.77-.9.39-.45.39-.45.39-.9.39-.45.77-.45.39-.45.39-.91.39-.45.39-.45.39-.9.77-.45.39-.45.39-.45.39-.9.39-.45.77-.45.39-.9.39-.45.39-.45.39-.9.39-.45.77-.45.39-.45.39-.9.39-.45.39-.45.77-.9.39-.45.39-.45.39-.9.39-.45.77-.45.39-.9.39-.45.39-.45.39-.9.39-.45.77-.45.39-.45.39-.9.39-.45.39-.45.77-.9.39-.45.39-.45.39-.9.39-.45.39-.45.77-.9.39-.45.39-.45.39-.9.39-.45.77-.45.39-.9.39-.45.39-.45.39-.9.39-.45.77-.45.39-.9.39-.45.39-.9.39-.45.77-.45.39-.9.39-.45.39-.45.39-.9.39-.45.77-.45.39-.9.39-.45.39-.45.39-.9.77-.45.39-.45.39-.9.39-.45.39-.9.39-.45.77-.45.39-.9.39-.45.39-.45.39-.9.77-.45.39-.45.39-.9.39-.45.39-.45.39-.9.77-.45.39-.9.39-.45.39-.45.39-.9.77-.45.39-.45.39-.9.39-.45.39-.45.77-.9.39-.45.39-.9.39-.45.39-.45.39-.9.77-.45.39-.45.39-.9.39-.45.39-.9.77-.45.39-.45.39-.9.39-.45.39-.45.39-.9.77-.45.39-.9.39-.45.39-.45.39-.9.77-.45.39-.45.39-.9.39-.45.39-.9.39-.45.77-.45.33-.9"/>
    <path class="cls-7" d="m64.8,223.21l.41-.55.39-.83.77-.55.39-.55.39-.55.39-.83.39-.55.77-.55.39-.83.39-.55.39-.55.39-.55.39-.83.77-.55.39-.55.39-.83.39-.55.39-.55.77-.55.39-.83.39-.55.39-.55.39-.83.39-.55.77-.55.39-.55.39-.83.39-.55.39-.55.77-.83.39-.55.39-.55.39-.55.39-.83.39-.55.77-.55.39-.55.39-.83.39-.55.39-.55.77-.83.39-.55.39-.55.39-.55.39-.83.39-.55.77-.55.39-.55.39-.83.39-.55.39-.55.77-.83.39-.55.39-.55.39-.55.39-.83.39-.55.77-.55.39-.55.39-.83.39-.55.39-.55.77-.55.39-.83.39-.55.39-.55.39-.55.39-.83.77-.55.39-.55.39-.55.39-.83.39-.55.77-.55.39-.55.39-.55.39-.83.39-.55.77-.55.39-.55.39-.83.39-.55.39-.55.39-.55.77-.83.39-.55.39-.55.39-.55.39-.55.77-.83.39-.55.39-.55.39-.55.39-.55.39-.83.77-.55.39-.55.39-.55.39-.55.39-.83.77-.55.39-.55.39-.55.39-.55.39-.83.39-.55.77-.55.39-.55.39-.55.39-.83.39-.55.77-.55.39-.55.39-.55.39-.55.39-.83.39-.55.77-.55.39-.55.39-.55.39-.55.39-.55.77-.83.39-.55.39-.55.39-.55.39-.55.39-.55.77-.55.39-.83.39-.55.39-.55.39-.55.77-.55.39-.55.39-.55.39-.55.39-.83.77-.55.39-.55.39-.55.39-.55.39-.55.39-.55.77-.55.39-.55.39-.55.39-.83.39-.55.77-.55.39-.55.39-.55.39-.55.39-.55.39-.55.77-.55.39-.55.39-.55.39-.55.39-.55.77-.55.39-.55.39-.28h355.21l.39.28.77.83.39.55.39.55.39.55.39.55.77.55.39.55.39.55.39.55.39.55.39.55.77.55.39.55.39.55.39.83.39.55.77.55.39.55.39.55.39.55.39.55.39.55.77.55.39.55.39.83.39.55.39.55.77.55.39.55.39.55.39.55.39.55.39.83.77.55.39.55.39.55.39.55.39.55.77.55.39.83.39.55.39.55.39.55.39.55.77.55.39.83.39.55.39.55.39.55.77.55.39.55.39.83.39.55.39.55.77.55.39.55.39.55.39.83.39.55.39.55.77.55.39.55.39.83.39.55.39.55.77.55.39.55.39.83.39.55.39.55.39.55.77.55.39.83.39.55.39.55.39.55.77.83.39.55.39.55.39.55.39.55.39.83.77.55.39.55.39.55.39.83.39.55.77.55.39.55.39.83.39.55.39.55.39.55.77.83.39.55.39.55.39.55.39.83.77.55.39.55.39.55.39.83.39.55.39.55.77.55.39.83.39.55.39.55.39.55.77.83.39.55.39.55.39.55.39.83.77.55.39.55.39.55.39.83.39.55.39.55.77.83.39.55.39.55.39.55.39.83.77.55.39.55.39.55.39.83.39.55.39.55.77.83.39.55.39.55.39.55.39.83.77.55.39.55.39.83.39.55.39.55.39.55.77.83.39.55.39.55.39.83.39.55.77.55.39.55.39.83.39.55.39.55.39.83.77.55.39.55.39.55.39.83.39.55.77.55.39.83.39.55.39.55.39.55.39.83.77.55.39.55.39.83.39.55.39.55.77.55.39.83.39.55.39.55.39.83.39.55.77.55.39.55.39.83.39.55.39.55.77.83.39.55.39.55.39.55.39.83.77.55.39.55.39.83.39.55.39.55.39.55.77.83.39.55.39.55.39.83.39.55.77.55.39.55.39.83.39.55.39.55.39.55.77.83.39.55.39.55.39.83.39.55.77.55.39.55.39.83.39.55.39.55.39.55.77.83.39.55.39.55.39.55.39.83.77.55.39.55.39.55.39.83.39.55.39.55.77.55.39.83.39.55.39.55.39.55.77.83.39.55.39.55.39.55.39.83.39.55.77.55.39.56.39.83.39.55.39.55.77.55.39.83.39.55.39.55.39.55.77.55.39.83.39.55.39.55.39.55.39.83.77.55.39.55.39.55.39.55.39.83.77.55.39.55.39.55.39.55.39.83.39.55.77.55.39.55.39.55.39.83.39.55.78.55.39.55.39.55.39.55.39.83.39.55.77.55.39.55.39.55.39.55.39.83.77.55.39.55.39.55.39.55.39.55.39.83.77.55.39.55.39.55.39.55.39.55.77.55.39.83.39.55.39.55.39.55.39.55.77.55.39.55.39.55.39.83.39.55.77.55.39.55.39.55.39.55.39.55.39.55.77.55.39.55.39.83.39.55.39.55.77.55.39.55.39.55.39.55.39.55.77.55.39.55.39.55.39.55.39.55.39.55.77.83.39.26h355.21l.39-.26.77-.55.39-.55.39-.55.39-.55.39-.55.39-.55.77-.55.39-.55.39-.55.39-.55.39-.55.77-.55.39-.55.39-.55.39-.83.39-.55.39-.55.77-.55.39-.55.39-.55.39-.55.39-.55.77-.55.39-.55.39-.83.39-.55.39-.55.39-.55.77-.55.39-.55.39-.55.39-.55.39-.83.77-.55.39-.55.39-.55.39-.55.39-.55.39-.55.77-.83.39-.55.39-.55.39-.55.39-.55.77-.55.39-.55.39-.83.39-.55.39-.55.39-.55.77-.55.39-.55.39-.83.39-.55.39-.55.77-.55.39-.55.39-.83.39-.55.39-.55.77-.55.39-.55.39-.83.39-.55.39-.55.39-.55.77-.55.39-.83.39-.55.39-.55.39-.55.77-.55.39-.83.39-.55.39-.55.39-.55.39-.55.77-.83.39-.55.39-.55.39-.55.39-.83.77-.55.39-.55.39-.55.39-.83.39-.55.39-.56.77-.55.39-.55.39-.83.39-.55.39-.55.77-.55.39-.83.39-.55.39-.55.39-.55.39-.83.77-.55.39-.55.39-.55.39-.83.39-.55.77-.55.39-.55.39-.83.39-.55.39-.55.39-.55.77-.83.39-.55.39-.55.39-.83.39-.55.77-.55.39-.55.39-.83.39-.55.39-.55.39-.55.77-.83.39-.55.39-.55.39-.83.39-.55.77-.55.39-.55.39-.83.39-.55.39-.55.77-.55.39-.83.39-.55.39-.55.39-.83.39-.55.77-.55.39-.55.39-.83.39-.55.39-.55.77-.83.39-.55.39-.55.39-.55.39-.83.39-.55.77-.55.39-.83.39-.55.39-.55.39-.55.77-.83.39-.55.39-.55.39-.83.39-.55.39-.55.77-.55.33-.83"/>
  </g>
  <g id="Text">
    <g>
      <path class="cls-1" d="m774.24,180v-33.75h4.22v14.58h18.42v-14.58h4.22v33.75h-4.22v-15.7h-18.42v15.7h-4.22Z"/>
      <path class="cls-1" d="m815.26,180.56c-1.69,0-3.15-.32-4.39-.97s-2.2-1.54-2.87-2.66-1.01-2.4-1.01-3.82c0-1.52.45-2.91,1.34-4.2s2.27-2.31,4.14-3.08,4.26-1.16,7.18-1.16h4.22l-.42.42v-1.38c0-2.03-.41-3.59-1.22-4.68s-2.17-1.63-4.08-1.63c-1.8,0-3.18.46-4.15,1.39s-1.48,2.18-1.55,3.74l-4.43-1.01c.14-1.36.66-2.6,1.56-3.71s2.1-2.01,3.61-2.68,3.25-1.01,5.24-1.01,3.71.39,5,1.16,2.24,1.89,2.85,3.34.91,3.2.91,5.25v11.55c0,.52.07.86.22,1.03s.46.26.95.26h1.43v3.28h-2.51c-1.06,0-1.95-.33-2.67-1s-1.08-1.5-1.08-2.52v-1.78h.59c-.25.66-.61,1.32-1.08,2s-1.06,1.31-1.78,1.9-1.57,1.06-2.57,1.42-2.14.54-3.43.54Zm.89-3.28c1.3,0,2.5-.32,3.61-.96s2-1.64,2.68-3.01,1.02-3.14,1.02-5.33v-.21h-3.96c-2.08,0-3.71.27-4.91.82s-2.04,1.22-2.54,2.03-.75,1.61-.75,2.4.18,1.52.54,2.16.9,1.15,1.62,1.54,1.62.57,2.7.57Z"/>
      <path class="cls-1" d="m835.23,180v-25.31h3.7v5.37l-.14-.61c.75-1.75,1.88-3.07,3.39-3.97s3.04-1.35,4.58-1.35c.45,0,.89.04,1.32.12s.83.21,1.21.4l-.52,3.7c-.86-.27-1.71-.4-2.55-.4-.53,0-1.19.11-1.98.32s-1.57.63-2.34,1.27-1.42,1.57-1.95,2.82-.79,2.91-.79,4.99v12.66h-3.94Z"/>
      <path class="cls-1" d="m861.97,180.56c-2.05,0-3.86-.54-5.43-1.62s-2.79-2.61-3.67-4.59-1.31-4.33-1.31-7.03.44-5.04,1.32-7.02,2.11-3.5,3.67-4.57,3.37-1.61,5.41-1.61c1.66,0,3.3.41,4.92,1.24s2.85,2.23,3.68,4.2l-.45.19v-14.91h3.94v35.16h-3.7v-5.27l.12.38c-.69,1.84-1.83,3.21-3.42,4.11s-3.29,1.35-5.09,1.35Zm1.03-3.28c1.33,0,2.54-.34,3.63-1.03s1.97-1.76,2.62-3.22.98-3.33.98-5.61c0-3.41-.7-5.93-2.11-7.56s-3.1-2.45-5.09-2.45c-2.09,0-3.81.86-5.16,2.59s-2.02,4.2-2.02,7.42.65,5.55,1.95,7.28,3.02,2.59,5.18,2.59Z"/>
      <path class="cls-1" d="m903.99,180.56c-2.38,0-4.43-.54-6.16-1.62s-3.07-2.61-4.01-4.58-1.41-4.32-1.41-7.02.47-5.04,1.41-7.02,2.27-3.5,4.01-4.58,3.79-1.62,6.16-1.62c1.81,0,3.43.33,4.86,1s2.64,1.62,3.63,2.86,1.72,2.74,2.19,4.49l-4.01,1.05c-.44-1.97-1.22-3.48-2.36-4.54s-2.57-1.58-4.32-1.58c-2.33,0-4.12.86-5.38,2.59s-1.89,4.18-1.89,7.35.63,5.64,1.89,7.36,3.05,2.58,5.38,2.58c1.73,0,3.16-.51,4.29-1.54s1.91-2.5,2.37-4.44l3.98,1.12c-.38,1.28-.89,2.42-1.55,3.42s-1.43,1.85-2.33,2.55-1.91,1.24-3.05,1.61-2.37.55-3.71.55Z"/>
      <path class="cls-1" d="m924.06,180c-1,0-1.88-.33-2.62-1s-1.12-1.5-1.12-2.52v-31.64h3.94v30.59c0,.52.07.86.22,1.03s.46.26.95.26h2.46v3.28h-3.82Z"/>
      <path class="cls-1" d="m935.07,150.45c-.91,0-1.68-.32-2.32-.96s-.96-1.41-.96-2.32.32-1.7.96-2.33,1.41-.95,2.32-.95,1.7.32,2.33.95.95,1.41.95,2.33-.32,1.68-.95,2.32-1.41.96-2.33.96Zm-1.97,29.55v-25.31h3.94v25.31h-3.94Z"/>
      <path class="cls-1" d="m944.7,189.14v-34.45h3.7v5.27l-.12-.38c.69-1.84,1.83-3.21,3.42-4.11s3.29-1.35,5.09-1.35c2.06,0,3.88.54,5.44,1.62s2.78,2.61,3.66,4.59,1.31,4.33,1.31,7.03-.44,5.04-1.32,7.02-2.11,3.5-3.67,4.57-3.37,1.61-5.41,1.61c-1.66,0-3.3-.41-4.92-1.24s-2.85-2.23-3.68-4.2l.35-.19v14.2h-3.84Zm11.02-11.86c2.09,0,3.81-.86,5.16-2.59s2.02-4.2,2.02-7.42-.65-5.55-1.95-7.28-3.02-2.59-5.18-2.59c-1.31,0-2.52.34-3.62,1.03s-1.98,1.76-2.64,3.21-.98,3.33-.98,5.62c0,3.39.7,5.91,2.11,7.55s3.1,2.46,5.09,2.46Z"/>
      <path class="cls-1" d="m973.06,189.14v-34.45h3.7v5.27l-.12-.38c.69-1.84,1.83-3.21,3.42-4.11s3.29-1.35,5.09-1.35c2.06,0,3.88.54,5.44,1.62s2.78,2.61,3.66,4.59,1.31,4.33,1.31,7.03-.44,5.04-1.32,7.02-2.11,3.5-3.67,4.57-3.37,1.61-5.41,1.61c-1.66,0-3.3-.41-4.92-1.24s-2.85-2.23-3.68-4.2l.35-.19v14.2h-3.84Zm11.02-11.86c2.09,0,3.81-.86,5.16-2.59s2.02-4.2,2.02-7.42-.65-5.55-1.95-7.28-3.02-2.59-5.18-2.59c-1.31,0-2.52.34-3.62,1.03s-1.98,1.76-2.64,3.21-.98,3.33-.98,5.62c0,3.39.7,5.91,2.11,7.55s3.1,2.46,5.09,2.46Z"/>
      <path class="cls-1" d="m1003.37,150.45c-.91,0-1.68-.32-2.32-.96s-.96-1.41-.96-2.32.32-1.7.96-2.33,1.41-.95,2.32-.95,1.7.32,2.33.95.95,1.41.95,2.33-.32,1.68-.95,2.32-1.41.96-2.33.96Zm-1.97,29.55v-25.31h3.94v25.31h-3.94Z"/>
      <path class="cls-1" d="m1013,180v-25.31h3.7v5.72l-.16-1.03c.67-1.45,1.73-2.69,3.19-3.71s3.22-1.54,5.3-1.54c1.8,0,3.34.4,4.64,1.2s2.3,1.93,3,3.41,1.05,3.25,1.05,5.33v15.94h-3.94v-15.63c0-2.08-.43-3.76-1.28-5.04s-2.25-1.92-4.21-1.92c-2.11,0-3.86.8-5.26,2.4s-2.1,3.92-2.1,6.95v13.24h-3.94Z"/>
      <path class="cls-1" d="m1050.27,189.7c-3.77,0-6.54-.53-8.32-1.58s-2.67-2.68-2.67-4.89c0-1.25.32-2.37.96-3.35s1.75-1.74,3.33-2.27c-.59-.36-1.08-.84-1.45-1.43s-.56-1.26-.56-1.99c0-.88.27-1.66.82-2.36s1.33-1.19,2.34-1.49c-1.25-.73-2.22-1.73-2.92-2.99s-1.04-2.72-1.04-4.39c0-1.81.4-3.38,1.21-4.7s1.95-2.34,3.45-3.06,3.27-1.08,5.33-1.08,3.85.36,5.36,1.08,2.67,1.74,3.49,3.07,1.23,2.91,1.23,4.73-.41,3.35-1.23,4.65-1.99,2.31-3.5,3.02-3.32,1.07-5.41,1.07h-2.18c-1.97,0-2.95.59-2.95,1.76,0,1.11.95,1.66,2.86,1.66h5.06c2,0,3.61.23,4.84.69s2.16,1.05,2.81,1.78,1.09,1.51,1.32,2.36.35,1.65.35,2.41c0,2.48-.9,4.32-2.7,5.51s-4.59,1.78-8.37,1.78h-1.45Zm0-3.14h1.45c4.66,0,6.98-1.39,6.98-4.17,0-1.16-.42-2.1-1.25-2.84s-2.26-1.1-4.28-1.1h-4.36c-1.56,0-2.87.32-3.91.95s-1.57,1.67-1.57,3.11.57,2.39,1.7,3.06,2.88,1,5.24,1Zm.47-17.58c1.98,0,3.51-.51,4.57-1.54s1.59-2.5,1.59-4.44-.53-3.41-1.59-4.48-2.59-1.59-4.57-1.59-3.48.53-4.52,1.58-1.57,2.55-1.57,4.49.52,3.42,1.57,4.44,2.55,1.54,4.52,1.54Zm4.17-12.21v-2.51c0-1.02.38-1.86,1.12-2.52s1.62-1,2.62-1h3.05v3.28h-2.51c-.48,0-.8.09-.95.26s-.22.52-.22,1.03v1.45h-3.12Z"/>
    </g>
    <g>
      <path class="cls-1" d="m785.73,108.56c-2.59,0-4.86-.43-6.79-1.3s-3.49-2.12-4.68-3.77-1.98-3.64-2.37-5.96l5.02-1.03c.11,2.77.91,4.89,2.41,6.38s3.59,2.23,6.28,2.23c1.62,0,3-.27,4.14-.8s2-1.28,2.6-2.25.9-2.11.9-3.42c0-1.75-.5-3.05-1.51-3.9s-2.39-1.47-4.14-1.86l-4.41-.98c-.81-.19-1.75-.45-2.82-.77s-2.11-.81-3.11-1.45-1.83-1.51-2.5-2.6-1-2.49-1-4.2c0-2.17.56-3.93,1.68-5.27s2.57-2.33,4.36-2.95,3.69-.94,5.71-.94c2.33,0,4.32.37,5.99,1.11s3.01,1.79,4.03,3.15,1.71,2.98,2.07,4.88l-4.95,1.03c-.12-1.44-.48-2.65-1.05-3.64s-1.39-1.75-2.44-2.27-2.35-.79-3.91-.79c-1.27,0-2.45.19-3.55.56s-2,.96-2.68,1.76-1.03,1.84-1.03,3.12.46,2.42,1.39,3.22,2.48,1.46,4.65,1.96l4.45,1.03c1.58.36,3.07.9,4.48,1.62s2.55,1.72,3.42,3.01,1.31,2.99,1.31,5.1-.48,3.91-1.44,5.41-2.34,2.64-4.12,3.43-3.93,1.18-6.41,1.18Z"/>
      <path class="cls-1" d="m814.95,108.56c-2.38,0-4.47-.56-6.28-1.68s-3.23-2.67-4.24-4.65-1.52-4.28-1.52-6.89.51-4.91,1.52-6.89,2.43-3.54,4.24-4.65,3.91-1.68,6.28-1.68,4.47.56,6.28,1.68,3.23,2.67,4.24,4.65,1.52,4.28,1.52,6.89-.51,4.91-1.52,6.89-2.43,3.54-4.24,4.65-3.91,1.68-6.28,1.68Zm0-3.28c2.39,0,4.28-.89,5.66-2.67s2.07-4.2,2.07-7.27-.69-5.5-2.07-7.28-3.27-2.66-5.66-2.66-4.28.89-5.66,2.66-2.07,4.2-2.07,7.28.69,5.48,2.07,7.27,3.27,2.67,5.66,2.67Z"/>
      <path class="cls-1" d="m830.19,85.97v-3.28h13.38v3.28h-13.38Zm3.77,22.03v-29.91c0-1.89.45-3.24,1.34-4.04s2.38-1.21,4.48-1.21h3.16v3.28h-3.73c-.47,0-.8.1-1.01.3s-.3.54-.3,1.01v30.56h-3.94Z"/>
      <path class="cls-1" d="m854.4,108c-1,0-1.88-.33-2.62-1s-1.12-1.5-1.12-2.52v-18.52h-4.08v-3.28h4.08v-5.3l3.94-.84v6.14h5.02v3.28h-5.02v17.46c0,.52.07.86.22,1.03s.46.26.95.26h3.87v3.28h-5.23Z"/>
      <path class="cls-1" d="m887.59,108.56c-2.38,0-4.43-.54-6.16-1.62s-3.07-2.61-4.01-4.58-1.41-4.32-1.41-7.02.47-5.04,1.41-7.02,2.27-3.5,4.01-4.58,3.79-1.62,6.16-1.62c1.81,0,3.43.33,4.86,1s2.64,1.62,3.63,2.86,1.72,2.74,2.19,4.49l-4.01,1.05c-.44-1.97-1.22-3.48-2.36-4.54s-2.57-1.58-4.32-1.58c-2.33,0-4.12.86-5.38,2.59s-1.89,4.18-1.89,7.35.63,5.64,1.89,7.36,3.05,2.58,5.38,2.58c1.73,0,3.16-.51,4.29-1.54s1.91-2.5,2.37-4.44l3.98,1.12c-.38,1.28-.89,2.42-1.55,3.42s-1.43,1.85-2.33,2.55-1.91,1.24-3.05,1.61-2.37.55-3.71.55Z"/>
      <path class="cls-1" d="m907.65,108c-1,0-1.88-.33-2.62-1s-1.12-1.5-1.12-2.52v-31.64h3.94v30.59c0,.52.07.86.22,1.03s.46.26.95.26h2.46v3.28h-3.82Z"/>
      <path class="cls-1" d="m918.67,78.45c-.91,0-1.68-.32-2.32-.96s-.96-1.41-.96-2.32.32-1.7.96-2.33,1.41-.95,2.32-.95,1.7.32,2.33.95.95,1.41.95,2.33-.32,1.68-.95,2.32-1.41.96-2.33.96Zm-1.97,29.55v-25.31h3.94v25.31h-3.94Z"/>
      <path class="cls-1" d="m928.3,117.14v-34.45h3.7v5.27l-.12-.38c.69-1.84,1.83-3.21,3.42-4.11s3.29-1.35,5.09-1.35c2.06,0,3.88.54,5.44,1.62s2.78,2.61,3.66,4.59,1.31,4.33,1.31,7.03-.44,5.04-1.32,7.02-2.11,3.5-3.67,4.57-3.37,1.61-5.41,1.61c-1.66,0-3.3-.41-4.92-1.24s-2.85-2.23-3.68-4.2l.35-.19v14.2h-3.84Zm11.02-11.86c2.09,0,3.81-.86,5.16-2.59s2.02-4.2,2.02-7.42-.65-5.55-1.95-7.28-3.02-2.59-5.18-2.59c-1.31,0-2.52.34-3.62,1.03s-1.98,1.76-2.64,3.21-.98,3.33-.98,5.62c0,3.39.7,5.91,2.11,7.55s3.1,2.46,5.09,2.46Z"/>
      <path class="cls-1" d="m956.66,117.14v-34.45h3.7v5.27l-.12-.38c.69-1.84,1.83-3.21,3.42-4.11s3.29-1.35,5.09-1.35c2.06,0,3.88.54,5.44,1.62s2.78,2.61,3.66,4.59,1.31,4.33,1.31,7.03-.44,5.04-1.32,7.02-2.11,3.5-3.67,4.57-3.37,1.61-5.41,1.61c-1.66,0-3.3-.41-4.92-1.24s-2.85-2.23-3.68-4.2l.35-.19v14.2h-3.84Zm11.02-11.86c2.09,0,3.81-.86,5.16-2.59s2.02-4.2,2.02-7.42-.65-5.55-1.95-7.28-3.02-2.59-5.18-2.59c-1.31,0-2.52.34-3.62,1.03s-1.98,1.76-2.64,3.21-.98,3.33-.98,5.62c0,3.39.7,5.91,2.11,7.55s3.1,2.46,5.09,2.46Z"/>
      <path class="cls-1" d="m986.96,78.45c-.91,0-1.68-.32-2.32-.96s-.96-1.41-.96-2.32.32-1.7.96-2.33,1.41-.95,2.32-.95,1.7.32,2.33.95.95,1.41.95,2.33-.32,1.68-.95,2.32-1.41.96-2.33.96Zm-1.97,29.55v-25.31h3.94v25.31h-3.94Z"/>
      <path class="cls-1" d="m996.6,108v-25.31h3.7v5.72l-.16-1.03c.67-1.45,1.73-2.69,3.19-3.71s3.22-1.54,5.3-1.54c1.8,0,3.34.4,4.64,1.2s2.3,1.93,3,3.41,1.05,3.25,1.05,5.33v15.94h-3.94v-15.63c0-2.08-.43-3.76-1.28-5.04s-2.25-1.92-4.21-1.92c-2.11,0-3.86.8-5.26,2.4s-2.1,3.92-2.1,6.95v13.24h-3.94Z"/>
      <path class="cls-1" d="m1033.86,117.7c-3.77,0-6.54-.53-8.32-1.58-1.78-1.05-2.67-2.68-2.67-4.89,0-1.25.32-2.37.96-3.35s1.75-1.74,3.33-2.27c-.59-.36-1.08-.84-1.45-1.43-.38-.59-.56-1.26-.56-1.99,0-.88.27-1.66.82-2.36.55-.7,1.33-1.19,2.34-1.49-1.25-.73-2.22-1.73-2.92-2.99-.7-1.26-1.04-2.72-1.04-4.39,0-1.81.4-3.38,1.21-4.7.8-1.32,1.95-2.34,3.44-3.06s3.27-1.08,5.33-1.08,3.85.36,5.36,1.08,2.67,1.74,3.49,3.07,1.23,2.91,1.23,4.73-.41,3.35-1.23,4.65-1.99,2.31-3.5,3.02-3.32,1.07-5.41,1.07h-2.18c-1.97,0-2.95.59-2.95,1.76,0,1.11.95,1.66,2.86,1.66h5.06c2,0,3.61.23,4.84.69s2.16,1.05,2.81,1.78,1.09,1.51,1.32,2.36.35,1.65.35,2.41c0,2.48-.9,4.32-2.7,5.51s-4.59,1.78-8.37,1.78h-1.45Zm0-3.14h1.45c4.66,0,6.98-1.39,6.98-4.17,0-1.16-.42-2.1-1.25-2.84s-2.26-1.1-4.28-1.1h-4.36c-1.56,0-2.87.32-3.91.95s-1.57,1.67-1.57,3.11.57,2.39,1.7,3.06,2.88,1,5.24,1Zm.47-17.58c1.98,0,3.51-.51,4.57-1.54s1.59-2.5,1.59-4.44-.53-3.41-1.59-4.48-2.59-1.59-4.57-1.59-3.48.53-4.52,1.58-1.57,2.55-1.57,4.49.52,3.42,1.57,4.44,2.55,1.54,4.52,1.54Zm4.17-12.21v-2.51c0-1.02.38-1.86,1.12-2.52s1.62-1,2.62-1h3.05v3.28h-2.51c-.48,0-.8.09-.95.26s-.22.52-.22,1.03v1.45h-3.12Z"/>
    </g>
    <g>
      <path class="cls-1" d="m774.24,36V2.25h5.86l18.07,30.16-.73.14V2.25h4.08v33.75h-5.39l-18.54-30.33.73-.16v30.49h-4.08Z"/>
      <path class="cls-1" d="m819.55,36.56c-2.38,0-4.47-.56-6.28-1.68s-3.23-2.67-4.24-4.65-1.52-4.28-1.52-6.89.51-4.91,1.52-6.89,2.43-3.54,4.24-4.65,3.91-1.68,6.28-1.68,4.47.56,6.28,1.68,3.23,2.67,4.24,4.65,1.52,4.28,1.52,6.89-.51,4.91-1.52,6.89-2.43,3.54-4.24,4.65-3.91,1.68-6.28,1.68Zm0-3.28c2.39,0,4.28-.89,5.66-2.67s2.07-4.2,2.07-7.27-.69-5.5-2.07-7.28-3.27-2.66-5.66-2.66-4.28.89-5.66,2.66-2.07,4.2-2.07,7.28.69,5.48,2.07,7.27,3.27,2.67,5.66,2.67Z"/>
      <path class="cls-1" d="m837.48,36V10.69h3.7v5.37l-.14-.61c.75-1.75,1.88-3.07,3.39-3.97s3.04-1.35,4.58-1.35c.45,0,.89.04,1.32.12s.83.21,1.21.4l-.52,3.7c-.86-.27-1.71-.4-2.55-.4-.53,0-1.19.11-1.98.32s-1.57.63-2.34,1.27-1.42,1.57-1.95,2.82-.79,2.91-.79,4.99v12.66h-3.94Z"/>
      <path class="cls-1" d="m855.57,36V10.69h3.7v4.34c.59-1.31,1.58-2.46,2.95-3.43s3.01-1.46,4.9-1.46c1.67,0,3.13.46,4.37,1.37s2.17,2.21,2.78,3.88c.8-1.55,1.89-2.81,3.27-3.79s3-1.46,4.84-1.46c2.42,0,4.34.88,5.75,2.64s2.12,4.19,2.12,7.3v15.94h-3.94v-15.63c0-1.44-.15-2.68-.45-3.71s-.79-1.84-1.46-2.4-1.61-.84-2.78-.84c-1.28,0-2.43.36-3.46,1.09s-1.83,1.79-2.41,3.18-.88,3.09-.88,5.09v13.24h-3.94v-15.63c0-1.44-.15-2.68-.45-3.71s-.78-1.84-1.45-2.4-1.59-.84-2.74-.84c-1.28,0-2.44.36-3.47,1.08s-1.84,1.77-2.44,3.16-.89,3.09-.89,5.11v13.24h-3.94Z"/>
      <path class="cls-1" d="m904.06,36.56c-1.69,0-3.15-.32-4.39-.97s-2.2-1.54-2.87-2.66-1.01-2.4-1.01-3.82c0-1.52.45-2.91,1.34-4.2s2.27-2.31,4.14-3.08,4.26-1.16,7.18-1.16h4.22l-.42.42v-1.38c0-2.03-.41-3.59-1.22-4.68s-2.17-1.63-4.08-1.63c-1.8,0-3.18.46-4.15,1.39s-1.48,2.18-1.55,3.74l-4.43-1.01c.14-1.36.66-2.6,1.56-3.71s2.1-2.01,3.61-2.68,3.25-1.01,5.24-1.01,3.71.39,5,1.16,2.24,1.89,2.85,3.34.91,3.2.91,5.25v11.55c0,.52.07.86.22,1.03s.46.26.95.26h1.43v3.28h-2.51c-1.06,0-1.95-.33-2.67-1s-1.08-1.5-1.08-2.52v-1.78h.59c-.25.66-.61,1.32-1.08,2s-1.06,1.31-1.78,1.9-1.57,1.06-2.57,1.42-2.14.54-3.43.54Zm.89-3.28c1.3,0,2.5-.32,3.61-.96s2-1.64,2.68-3.01,1.02-3.14,1.02-5.33v-.21h-3.96c-2.08,0-3.71.27-4.91.82s-2.04,1.22-2.54,2.03-.75,1.61-.75,2.4.18,1.52.54,2.16.9,1.15,1.62,1.54,1.62.57,2.7.57Z"/>
      <path class="cls-1" d="m927.74,36c-1,0-1.88-.33-2.62-1s-1.12-1.5-1.12-2.52V.84h3.94v30.59c0,.52.07.86.22,1.03s.46.26.95.26h2.46v3.28h-3.82Z"/>
    </g>
    <line class="cls-4" x1="705.6" y1="21.6" x2="748.8" y2="21.6"/>
    <line class="cls-2" x1="705.6" y1="165.6" x2="748.8" y2="165.6"/>
    <line class="cls-3" x1="705.6" y1="93.6" x2="748.8" y2="93.6"/>
    <g>
      <path class="cls-1" d="m43.2,336.83l-33.75-14.25v-4.22l33.75-14.2v4.5l-29.34,11.81,29.34,11.86v4.5Zm-11.06-7.31h-3.47v-18.05h3.47v18.05Z"/>
      <path class="cls-1" d="m43.2,299.86h-25.31v-3.7h4.34c-1.31-.59-2.46-1.58-3.43-2.95s-1.46-3.01-1.46-4.9c0-1.67.46-3.13,1.37-4.37s2.21-2.17,3.88-2.78c-1.55-.8-2.81-1.89-3.79-3.27s-1.46-3-1.46-4.84c0-2.42.88-4.34,2.64-5.75s4.19-2.12,7.3-2.12h15.94v3.94h-15.63c-1.44,0-2.68.15-3.71.45s-1.84.79-2.4,1.46-.84,1.61-.84,2.78c0,1.28.36,2.43,1.09,3.46s1.79,1.83,3.18,2.41,3.09.88,5.09.88h13.24v3.94h-15.63c-1.44,0-2.68.15-3.71.45s-1.84.78-2.4,1.45-.84,1.59-.84,2.74c0,1.28.36,2.44,1.08,3.47s1.77,1.84,3.16,2.44,3.09.89,5.11.89h13.24v3.94Z"/>
      <path class="cls-1" d="m52.34,257.98H17.89v-3.7h5.27l-.38.12c-1.84-.69-3.21-1.83-4.11-3.42s-1.35-3.29-1.35-5.09c0-2.06.54-3.88,1.62-5.44s2.61-2.78,4.59-3.66,4.33-1.31,7.03-1.31,5.04.44,7.02,1.32,3.5,2.11,4.57,3.67,1.61,3.37,1.61,5.41c0,1.66-.41,3.3-1.24,4.92s-2.23,2.85-4.2,3.68l-.19-.35h14.2v3.84Zm-11.86-11.02c0-2.09-.86-3.81-2.59-5.16s-4.2-2.02-7.42-2.02-5.55.65-7.28,1.95-2.59,3.02-2.59,5.18c0,1.31.34,2.52,1.03,3.62s1.76,1.98,3.21,2.64,3.33.98,5.62.98c3.39,0,5.91-.7,7.55-2.11s2.46-3.1,2.46-5.09Z"/>
      <path class="cls-1" d="m43.2,225.9c0,1-.33,1.88-1,2.62s-1.5,1.12-2.52,1.12H8.04v-3.94h30.59c.52,0,.86-.07,1.03-.22s.26-.46.26-.95v-2.46h3.28v3.82Z"/>
      <path class="cls-1" d="m13.65,214.88c0,.91-.32,1.68-.96,2.32s-1.41.96-2.32.96-1.7-.32-2.33-.96-.95-1.41-.95-2.32.32-1.7.95-2.33,1.41-.95,2.33-.95,1.68.32,2.32.95.96,1.41.96,2.33Zm29.55,1.97h-25.31v-3.94h25.31v3.94Z"/>
      <path class="cls-1" d="m43.2,199.65c0,1-.33,1.88-1,2.62s-1.5,1.12-2.52,1.12h-18.52v4.08h-3.28v-4.08h-5.3l-.84-3.94h6.14v-5.02h3.28v5.02h17.46c.52,0,.86-.07,1.03-.22s.26-.46.26-.95v-3.87h3.28v5.23Z"/>
      <path class="cls-1" d="m43.76,180.73c0,1.77-.4,3.3-1.2,4.59s-1.94,2.3-3.42,3-3.26,1.05-5.32,1.05h-15.94v-3.94h15.63c2.06,0,3.74-.39,5.03-1.17s1.93-2.19,1.93-4.22c0-1.52-.39-2.83-1.17-3.94s-1.95-1.97-3.52-2.59-3.52-.93-5.86-.93h-12.05v-3.94h25.31v3.7h-5.95l1.03-.16c1.56.66,2.87,1.71,3.91,3.18s1.57,3.25,1.57,5.36Z"/>
      <path class="cls-1" d="m43.76,152.42c0,2.05-.54,3.86-1.62,5.43s-2.61,2.79-4.59,3.67-4.33,1.31-7.03,1.31-5.04-.44-7.02-1.32-3.5-2.11-4.57-3.67-1.61-3.37-1.61-5.41c0-1.66.41-3.3,1.24-4.92s2.23-2.85,4.2-3.68l.19.45h-14.91v-3.94h35.16v3.7h-5.27l.38-.12c1.84.69,3.21,1.83,4.11,3.42s1.35,3.29,1.35,5.09Zm-3.28-1.03c0-1.33-.34-2.54-1.03-3.63s-1.76-1.97-3.22-2.62-3.33-.98-5.61-.98c-3.41,0-5.93.7-7.56,2.11s-2.45,3.1-2.45,5.09c0,2.09.86,3.81,2.59,5.16s4.2,2.02,7.42,2.02,5.55-.65,7.28-1.95,2.59-3.02,2.59-5.18Z"/>
      <path class="cls-1" d="m43.76,122.54c0,2.41-.54,4.49-1.62,6.25s-2.61,3.11-4.58,4.07-4.31,1.43-7,1.43-5.05-.48-7.03-1.43-3.52-2.3-4.59-4.03-1.62-3.77-1.62-6.12c0-1.34.21-2.69.64-4.04s1.17-2.59,2.23-3.7,2.5-2.02,4.34-2.7,4.15-1.02,6.95-1.02v20.51h-3.19v-17.09l1.48,1.12c-2.22.08-4,.44-5.34,1.08s-2.32,1.47-2.92,2.5-.9,2.16-.9,3.41c0,1.48.39,2.77,1.16,3.84s1.9,1.91,3.39,2.48,3.3.87,5.44.87c3.16,0,5.59-.64,7.31-1.93s2.58-3.12,2.58-5.5c0-1.7-.43-3.14-1.29-4.3s-2.1-2.02-3.73-2.57l1.31-3.87c1.47.61,2.72,1.42,3.76,2.44s1.84,2.22,2.39,3.62.83,2.96.83,4.68Z"/>
    </g>
    <polyline class="cls-9" points="100.8 439.2 64.8 439.2 64.8 7.2 100.8 7.2"/>
  </g>
</svg>