<?xml version="1.0" encoding="UTF-8"?>
<svg id="Ebene_1" data-name="Ebene 1" xmlns="http://www.w3.org/2000/svg" width="997.2" height="507.6" viewBox="0 0 997.2 507.6">
  <polyline points="147.6 446.3 125.6 446.3 125.6 230.5 147.6 230.5" fill="none" stroke="#c9d1d9"/>
  <g>
    <line x1="198" y1="230.5" x2="198" y2="231.2" fill="none" stroke="#c9d1d9" stroke-miterlimit="10" stroke-width=".43"/>
    <line x1="198" y1="232.6" x2="198" y2="444.9" fill="none" stroke="#c9d1d9" stroke-dasharray="0 0 0 0 0 0 1.44 1.44" stroke-miterlimit="10" stroke-width=".43"/>
    <line x1="198" y1="445.6" x2="198" y2="446.3" fill="none" stroke="#c9d1d9" stroke-miterlimit="10" stroke-width=".43"/>
  </g>
  <g>
    <line x1="270" y1="230.5" x2="270" y2="231.2" fill="none" stroke="#c9d1d9" stroke-miterlimit="10" stroke-width=".43"/>
    <line x1="270" y1="232.6" x2="270" y2="444.9" fill="none" stroke="#c9d1d9" stroke-dasharray="0 0 0 0 0 0 1.44 1.44" stroke-miterlimit="10" stroke-width=".43"/>
    <line x1="270" y1="445.6" x2="270" y2="446.3" fill="none" stroke="#c9d1d9" stroke-miterlimit="10" stroke-width=".43"/>
  </g>
  <g>
    <line x1="342" y1="230.5" x2="342" y2="231.2" fill="none" stroke="#c9d1d9" stroke-miterlimit="10" stroke-width=".43"/>
    <line x1="342" y1="232.6" x2="342" y2="444.9" fill="none" stroke="#c9d1d9" stroke-dasharray="0 0 0 0 0 0 1.44 1.44" stroke-miterlimit="10" stroke-width=".43"/>
    <line x1="342" y1="445.6" x2="342" y2="446.3" fill="none" stroke="#c9d1d9" stroke-miterlimit="10" stroke-width=".43"/>
  </g>
  <g>
    <line x1="414" y1="230.5" x2="414" y2="231.2" fill="none" stroke="#c9d1d9" stroke-miterlimit="10" stroke-width=".43"/>
    <line x1="414" y1="232.6" x2="414" y2="444.9" fill="none" stroke="#c9d1d9" stroke-dasharray="0 0 0 0 0 0 1.44 1.44" stroke-miterlimit="10" stroke-width=".43"/>
    <line x1="414" y1="445.6" x2="414" y2="446.3" fill="none" stroke="#c9d1d9" stroke-miterlimit="10" stroke-width=".43"/>
  </g>
  <g>
    <line x1="486" y1="230.5" x2="486" y2="231.2" fill="none" stroke="#c9d1d9" stroke-miterlimit="10" stroke-width=".43"/>
    <line x1="486" y1="232.6" x2="486" y2="444.9" fill="none" stroke="#c9d1d9" stroke-dasharray="0 0 0 0 0 0 1.44 1.44" stroke-miterlimit="10" stroke-width=".43"/>
    <line x1="486" y1="445.6" x2="486" y2="446.3" fill="none" stroke="#c9d1d9" stroke-miterlimit="10" stroke-width=".43"/>
  </g>
  <g>
    <line x1="558" y1="230.5" x2="558" y2="231.2" fill="none" stroke="#c9d1d9" stroke-miterlimit="10" stroke-width=".43"/>
    <line x1="558" y1="232.6" x2="558" y2="444.9" fill="none" stroke="#c9d1d9" stroke-dasharray="0 0 0 0 0 0 1.44 1.44" stroke-miterlimit="10" stroke-width=".43"/>
    <line x1="558" y1="445.6" x2="558" y2="446.3" fill="none" stroke="#c9d1d9" stroke-miterlimit="10" stroke-width=".43"/>
  </g>
  <g>
    <line x1="630" y1="230.5" x2="630" y2="231.2" fill="none" stroke="#c9d1d9" stroke-miterlimit="10" stroke-width=".43"/>
    <line x1="630" y1="232.6" x2="630" y2="444.9" fill="none" stroke="#c9d1d9" stroke-dasharray="0 0 0 0 0 0 1.44 1.44" stroke-miterlimit="10" stroke-width=".43"/>
    <line x1="630" y1="445.6" x2="630" y2="446.3" fill="none" stroke="#c9d1d9" stroke-miterlimit="10" stroke-width=".43"/>
  </g>
  <g>
    <line x1="702" y1="230.5" x2="702" y2="231.2" fill="none" stroke="#c9d1d9" stroke-miterlimit="10" stroke-width=".43"/>
    <line x1="702" y1="232.6" x2="702" y2="444.9" fill="none" stroke="#c9d1d9" stroke-dasharray="0 0 0 0 0 0 1.44 1.44" stroke-miterlimit="10" stroke-width=".43"/>
    <line x1="702" y1="445.6" x2="702" y2="446.3" fill="none" stroke="#c9d1d9" stroke-miterlimit="10" stroke-width=".43"/>
  </g>
  <g>
    <line x1="774" y1="230.5" x2="774" y2="231.3" fill="none" stroke="#c9d1d9" stroke-miterlimit="10" stroke-width=".43"/>
    <line x1="774" y1="232.7" x2="774" y2="445" fill="none" stroke="#c9d1d9" stroke-dasharray="0 0 0 0 0 0 1.44 1.44" stroke-miterlimit="10" stroke-width=".43"/>
    <line x1="774" y1="445.7" x2="774" y2="446.4" fill="none" stroke="#c9d1d9" stroke-miterlimit="10" stroke-width=".43"/>
  </g>
  <g>
    <line x1="846" y1="230.5" x2="846" y2="231.3" fill="none" stroke="#c9d1d9" stroke-miterlimit="10" stroke-width=".43"/>
    <line x1="846" y1="232.7" x2="846" y2="445" fill="none" stroke="#c9d1d9" stroke-dasharray="0 0 0 0 0 0 1.44 1.44" stroke-miterlimit="10" stroke-width=".43"/>
    <line x1="846" y1="445.7" x2="846" y2="446.4" fill="none" stroke="#c9d1d9" stroke-miterlimit="10" stroke-width=".43"/>
  </g>
  <g>
    <line x1="990" y1="230.4" x2="989.3" y2="230.4" fill="none" stroke="#c9d1d9" stroke-miterlimit="10" stroke-width=".43"/>
    <line x1="987.8" y1="230.4" x2="127.1" y2="230.4" fill="none" stroke="#c9d1d9" stroke-dasharray="0 0 0 0 0 0 1.44 1.44" stroke-miterlimit="10" stroke-width=".43"/>
    <line x1="126.3" y1="230.4" x2="125.6" y2="230.4" fill="none" stroke="#c9d1d9" stroke-miterlimit="10" stroke-width=".43"/>
  </g>
  <g>
    <line x1="990" y1="252" x2="989.3" y2="252" fill="none" stroke="#c9d1d9" stroke-miterlimit="10" stroke-width=".43"/>
    <line x1="987.8" y1="252" x2="127.1" y2="252" fill="none" stroke="#c9d1d9" stroke-dasharray="0 0 0 0 0 0 1.44 1.44" stroke-miterlimit="10" stroke-width=".43"/>
    <line x1="126.3" y1="252" x2="125.6" y2="252" fill="none" stroke="#c9d1d9" stroke-miterlimit="10" stroke-width=".43"/>
  </g>
  <g>
    <line x1="990" y1="316.8" x2="989.3" y2="316.8" fill="none" stroke="#c9d1d9" stroke-miterlimit="10" stroke-width=".43"/>
    <line x1="987.8" y1="316.8" x2="127.1" y2="316.8" fill="none" stroke="#c9d1d9" stroke-dasharray="0 0 0 0 0 0 1.44 1.44" stroke-miterlimit="10" stroke-width=".43"/>
    <line x1="126.3" y1="316.8" x2="125.6" y2="316.8" fill="none" stroke="#c9d1d9" stroke-miterlimit="10" stroke-width=".43"/>
  </g>
  <line x1="990" y1="338.4" x2="125.6" y2="338.4" fill="none" stroke="#c9d1d9" stroke-miterlimit="10"/>
  <g>
    <line x1="990" y1="273.6" x2="989.3" y2="273.6" fill="none" stroke="#c9d1d9" stroke-miterlimit="10" stroke-width=".43"/>
    <line x1="987.8" y1="273.6" x2="127.1" y2="273.6" fill="none" stroke="#c9d1d9" stroke-dasharray="0 0 0 0 0 0 1.44 1.44" stroke-miterlimit="10" stroke-width=".43"/>
    <line x1="126.3" y1="273.6" x2="125.6" y2="273.6" fill="none" stroke="#c9d1d9" stroke-miterlimit="10" stroke-width=".43"/>
  </g>
  <g>
    <line x1="990" y1="295.2" x2="989.3" y2="295.2" fill="none" stroke="#c9d1d9" stroke-miterlimit="10" stroke-width=".43"/>
    <line x1="987.8" y1="295.2" x2="127.1" y2="295.2" fill="none" stroke="#c9d1d9" stroke-dasharray="0 0 0 0 0 0 1.44 1.44" stroke-miterlimit="10" stroke-width=".43"/>
    <line x1="126.3" y1="295.2" x2="125.6" y2="295.2" fill="none" stroke="#c9d1d9" stroke-miterlimit="10" stroke-width=".43"/>
  </g>
  <g>
    <line x1="990" y1="360" x2="989.3" y2="360" fill="none" stroke="#c9d1d9" stroke-miterlimit="10" stroke-width=".43"/>
    <line x1="987.8" y1="360" x2="127.1" y2="360" fill="none" stroke="#c9d1d9" stroke-dasharray="0 0 0 0 0 0 1.44 1.44" stroke-miterlimit="10" stroke-width=".43"/>
    <line x1="126.3" y1="360" x2="125.6" y2="360" fill="none" stroke="#c9d1d9" stroke-miterlimit="10" stroke-width=".43"/>
  </g>
  <g>
    <line x1="990" y1="381.6" x2="989.3" y2="381.6" fill="none" stroke="#c9d1d9" stroke-miterlimit="10" stroke-width=".43"/>
    <line x1="987.8" y1="381.6" x2="127.1" y2="381.6" fill="none" stroke="#c9d1d9" stroke-dasharray="0 0 0 0 0 0 1.44 1.44" stroke-miterlimit="10" stroke-width=".43"/>
    <line x1="126.3" y1="381.6" x2="125.6" y2="381.6" fill="none" stroke="#c9d1d9" stroke-miterlimit="10" stroke-width=".43"/>
  </g>
  <g>
    <line x1="990" y1="446.4" x2="989.3" y2="446.4" fill="none" stroke="#c9d1d9" stroke-miterlimit="10" stroke-width=".43"/>
    <line x1="987.8" y1="446.4" x2="127.1" y2="446.4" fill="none" stroke="#c9d1d9" stroke-dasharray="0 0 0 0 0 0 1.44 1.44" stroke-miterlimit="10" stroke-width=".43"/>
    <line x1="126.3" y1="446.4" x2="125.6" y2="446.4" fill="none" stroke="#c9d1d9" stroke-miterlimit="10" stroke-width=".43"/>
  </g>
  <g>
    <line x1="990" y1="403.2" x2="989.3" y2="403.2" fill="none" stroke="#c9d1d9" stroke-miterlimit="10" stroke-width=".43"/>
    <line x1="987.8" y1="403.2" x2="127.1" y2="403.2" fill="none" stroke="#c9d1d9" stroke-dasharray="0 0 0 0 0 0 1.44 1.44" stroke-miterlimit="10" stroke-width=".43"/>
    <line x1="126.3" y1="403.2" x2="125.6" y2="403.2" fill="none" stroke="#c9d1d9" stroke-miterlimit="10" stroke-width=".43"/>
  </g>
  <g>
    <line x1="990" y1="424.8" x2="989.3" y2="424.8" fill="none" stroke="#c9d1d9" stroke-miterlimit="10" stroke-width=".43"/>
    <line x1="987.8" y1="424.8" x2="127.1" y2="424.8" fill="none" stroke="#c9d1d9" stroke-dasharray="0 0 0 0 0 0 1.44 1.44" stroke-miterlimit="10" stroke-width=".43"/>
    <line x1="126.3" y1="424.8" x2="125.6" y2="424.8" fill="none" stroke="#c9d1d9" stroke-miterlimit="10" stroke-width=".43"/>
  </g>
  <g>
    <line x1="918" y1="230.4" x2="918" y2="231.1" fill="none" stroke="#c9d1d9" stroke-miterlimit="10" stroke-width=".43"/>
    <line x1="918" y1="232.6" x2="918" y2="444.8" fill="none" stroke="#c9d1d9" stroke-dasharray="0 0 0 0 0 0 1.44 1.44" stroke-miterlimit="10" stroke-width=".43"/>
    <line x1="918" y1="445.5" x2="918" y2="446.3" fill="none" stroke="#c9d1d9" stroke-miterlimit="10" stroke-width=".43"/>
  </g>
  <g>
    <line x1="990" y1="230.5" x2="990" y2="231.2" fill="none" stroke="#c9d1d9" stroke-miterlimit="10" stroke-width=".43"/>
    <line x1="990" y1="232.6" x2="990" y2="444.9" fill="none" stroke="#c9d1d9" stroke-dasharray="0 0 0 0 0 0 1.44 1.44" stroke-miterlimit="10" stroke-width=".43"/>
    <line x1="990" y1="445.6" x2="990" y2="446.3" fill="none" stroke="#c9d1d9" stroke-miterlimit="10" stroke-width=".43"/>
  </g>
  <g id="linien">
    <g>
      <line x1="198" y1="183.5" x2="198" y2="338.4" fill="none" stroke="#c9d1d9" stroke-miterlimit="10" stroke-width="2.83"/>
      <polygon points="189.8 189.1 198 158.4 206.2 189.1 189.8 189.1" fill="#c9d1d9"/>
    </g>
    <g>
      <line x1="270" y1="183.5" x2="270" y2="274.7" fill="none" stroke="#c9d1d9" stroke-miterlimit="10" stroke-width="2.83"/>
      <polygon points="261.8 189.1 270 158.4 278.2 189.1 261.8 189.1" fill="#c9d1d9"/>
    </g>
    <g>
      <line x1="342" y1="183.5" x2="342" y2="235.7" fill="none" stroke="#c9d1d9" stroke-miterlimit="10" stroke-width="2.83"/>
      <polygon points="333.8 189.1 342 158.4 350.2 189.1 333.8 189.1" fill="#c9d1d9"/>
    </g>
    <g>
      <line x1="414" y1="183.5" x2="414" y2="235.7" fill="none" stroke="#c9d1d9" stroke-miterlimit="10" stroke-width="2.83"/>
      <polygon points="405.8 189.1 414 158.4 422.2 189.1 405.8 189.1" fill="#c9d1d9"/>
    </g>
    <g>
      <line x1="486" y1="183.5" x2="486" y2="274.7" fill="none" stroke="#c9d1d9" stroke-miterlimit="10" stroke-width="2.83"/>
      <polygon points="477.8 189.1 486 158.4 494.2 189.1 477.8 189.1" fill="#c9d1d9"/>
    </g>
    <g>
      <line x1="558" y1="183.5" x2="558" y2="338.4" fill="none" stroke="#c9d1d9" stroke-miterlimit="10" stroke-width="2.83"/>
      <polygon points="549.8 189.1 558 158.4 566.2 189.1 549.8 189.1" fill="#c9d1d9"/>
    </g>
    <g>
      <line x1="630" y1="183.5" x2="630" y2="403.2" fill="none" stroke="#c9d1d9" stroke-miterlimit="10" stroke-width="2.83"/>
      <polygon points="621.8 189.1 630 158.4 638.2 189.1 621.8 189.1" fill="#c9d1d9"/>
    </g>
    <g>
      <line x1="702" y1="183.5" x2="702" y2="442.8" fill="none" stroke="#c9d1d9" stroke-miterlimit="10" stroke-width="2.83"/>
      <polygon points="693.8 189.1 702 158.4 710.2 189.1 693.8 189.1" fill="#c9d1d9"/>
    </g>
    <g>
      <line x1="774" y1="183.5" x2="774" y2="442.8" fill="none" stroke="#c9d1d9" stroke-miterlimit="10" stroke-width="2.83"/>
      <polygon points="765.8 189.1 774 158.4 782.2 189.1 765.8 189.1" fill="#c9d1d9"/>
    </g>
    <g>
      <line x1="846" y1="183.5" x2="846" y2="403.2" fill="none" stroke="#c9d1d9" stroke-miterlimit="10" stroke-width="2.83"/>
      <polygon points="837.8 189.1 846 158.4 854.2 189.1 837.8 189.1" fill="#c9d1d9"/>
    </g>
    <g>
      <line x1="918" y1="183.5" x2="918" y2="338.4" fill="none" stroke="#c9d1d9" stroke-miterlimit="10" stroke-width="2.83"/>
      <polygon points="909.8 189.1 918 158.4 926.2 189.1 909.8 189.1" fill="#c9d1d9"/>
    </g>
  </g>
  <g id="text">
    <g>
      <path d="m209.5,139.9c0,2.9-1.1,5.2-3.4,6.8s-5.5,2.4-9.6,2.4-7.4-.8-9.6-2.4-3.4-3.9-3.4-6.8,1.1-5.2,3.4-6.8,5.5-2.4,9.6-2.4,7.4.8,9.6,2.4,3.4,3.9,3.4,6.8Zm-2.5,0c0-1.9-.9-3.4-2.7-4.4s-4.4-1.5-7.9-1.5-6.1.5-7.9,1.5-2.7,2.5-2.7,4.4.9,3.4,2.7,4.4,4.4,1.5,7.9,1.5,6.1-.5,7.9-1.5,2.7-2.4,2.7-4.4Z" fill="#c9d1d9"/>
      <path d="m209.5,125c0,.8-.3,1.4-.8,1.9s-1.1.8-1.9.8-1.4-.3-1.9-.8-.8-1.2-.8-1.9.3-1.4.8-1.9,1.1-.8,1.9-.8,1.4.3,1.9.8.8,1.2.8,1.9Z" fill="#c9d1d9"/>
      <path d="m209.5,110.1c0,2.9-1.1,5.2-3.4,6.8s-5.5,2.4-9.6,2.4-7.4-.8-9.6-2.4-3.4-3.9-3.4-6.8,1.1-5.2,3.4-6.8,5.5-2.4,9.6-2.4,7.4.8,9.6,2.4,3.4,3.8,3.4,6.8Zm-2.5,0c0-1.9-.9-3.4-2.7-4.4s-4.4-1.5-7.9-1.5-6.1.5-7.9,1.5-2.7,2.5-2.7,4.4.9,3.4,2.7,4.4,4.4,1.5,7.9,1.5,6.1-.5,7.9-1.5,2.7-2.5,2.7-4.4Z" fill="#c9d1d9"/>
      <path d="m209.5,87.2c0,2.9-1.1,5.2-3.4,6.8s-5.5,2.4-9.6,2.4-7.4-.8-9.6-2.4-3.4-3.9-3.4-6.8,1.1-5.2,3.4-6.8,5.5-2.4,9.6-2.4,7.4.8,9.6,2.4,3.4,3.9,3.4,6.8Zm-2.5,0c0-1.9-.9-3.4-2.7-4.4s-4.4-1.5-7.9-1.5-6.1.5-7.9,1.5-2.7,2.5-2.7,4.4.9,3.4,2.7,4.4,4.4,1.5,7.9,1.5,6.1-.5,7.9-1.5,2.7-2.4,2.7-4.4Z" fill="#c9d1d9"/>
      <path d="m209.5,64.4c0,2.9-1.1,5.2-3.4,6.8s-5.5,2.4-9.6,2.4-7.4-.8-9.6-2.4-3.4-3.9-3.4-6.8,1.1-5.2,3.4-6.8,5.5-2.4,9.6-2.4,7.4.8,9.6,2.4,3.4,3.9,3.4,6.8Zm-2.5,0c0-2-.9-3.4-2.7-4.4s-4.4-1.5-7.9-1.5-6.1.5-7.9,1.5-2.7,2.5-2.7,4.4.9,3.4,2.7,4.4,4.4,1.5,7.9,1.5,6.1-.5,7.9-1.5,2.7-2.4,2.7-4.4Z" fill="#c9d1d9"/>
      <path d="m209.5,41.6c0,2.9-1.1,5.2-3.4,6.8s-5.5,2.4-9.6,2.4-7.4-.8-9.6-2.4-3.4-3.9-3.4-6.8,1.1-5.2,3.4-6.8,5.5-2.4,9.6-2.4,7.4.8,9.6,2.4,3.4,3.9,3.4,6.8Zm-2.5,0c0-2-.9-3.4-2.7-4.4s-4.4-1.5-7.9-1.5-6.1.5-7.9,1.5-2.7,2.5-2.7,4.4.9,3.4,2.7,4.4,4.4,1.5,7.9,1.5,6.1-.5,7.9-1.5,2.7-2.4,2.7-4.4Z" fill="#c9d1d9"/>
      <path d="m209.5,18.8c0,2.9-1.1,5.2-3.4,6.8s-5.5,2.4-9.6,2.4-7.4-.8-9.6-2.4-3.4-3.9-3.4-6.8,1.1-5.2,3.4-6.8,5.5-2.4,9.6-2.4,7.4.8,9.6,2.4,3.4,3.9,3.4,6.8Zm-2.5,0c0-2-.9-3.4-2.7-4.4s-4.4-1.5-7.9-1.5-6.1.5-7.9,1.5-2.7,2.5-2.7,4.4.9,3.4,2.7,4.4,4.4,1.5,7.9,1.5,6.1-.5,7.9-1.5,2.7-2.5,2.7-4.4Z" fill="#c9d1d9"/>
    </g>
    <g>
      <path d="m281.5,139.9c0,2.9-1.1,5.2-3.4,6.8s-5.5,2.4-9.6,2.4-7.4-.8-9.6-2.4-3.4-3.9-3.4-6.8,1.1-5.2,3.4-6.8,5.5-2.4,9.6-2.4,7.4.8,9.6,2.4,3.4,3.9,3.4,6.8Zm-2.5,0c0-1.9-.9-3.4-2.7-4.4s-4.4-1.5-7.9-1.5-6.1.5-7.9,1.5-2.7,2.5-2.7,4.4.9,3.4,2.7,4.4,4.4,1.5,7.9,1.5,6.1-.5,7.9-1.5,2.7-2.4,2.7-4.4Z" fill="#c9d1d9"/>
      <path d="m281.5,125c0,.8-.3,1.4-.8,1.9s-1.1.8-1.9.8-1.4-.3-1.9-.8-.8-1.2-.8-1.9.3-1.4.8-1.9,1.1-.8,1.9-.8,1.4.3,1.9.8.8,1.2.8,1.9Z" fill="#c9d1d9"/>
      <path d="m281.5,109.9c0,1.5-.3,2.9-.9,4.2s-1.5,2.4-2.6,3.3-2.6,1.4-4.3,1.6l-1-3.2c1.8-.1,3.3-.7,4.5-1.6s1.8-2.3,1.8-4.2c0-1.1-.3-2.1-.8-3s-1.3-1.5-2.3-2-2.1-.7-3.3-.7c-1.9,0-3.3.5-4.3,1.6s-1.5,2.4-1.5,4c0,1.4.4,2.5,1.1,3.3s1.5,1.4,2.4,1.8l-.3,3.1-14.1-1v-14.5h2.7v11.9l9.6.7-.1.9c-1.1-.6-2-1.5-2.7-2.6s-1.1-2.5-1.1-4.1.4-2.9,1-4.2,1.7-2.2,2.9-2.9,2.7-1.1,4.4-1.1c1.8,0,3.4.4,4.8,1.2s2.4,1.9,3.1,3.2,1,2.7,1,4.3h0Z" fill="#c9d1d9"/>
      <path d="m281.5,88.2c0,1.7-.3,3.3-1,4.6s-1.5,2.4-2.7,3.2-2.5,1.1-4,1.1c-1.6,0-3-.5-4.3-1.4s-2.1-2.4-2.4-4.2c-.2,1-.6,1.8-1.1,2.6s-1.1,1.3-1.9,1.7-1.5.6-2.5.6c-1.2,0-2.3-.3-3.3-1s-1.7-1.6-2.3-2.8-.8-2.6-.8-4.2.3-3,.8-4.2c.6-1.2,1.3-2.1,2.3-2.8s2.1-1,3.3-1c.9,0,1.7.2,2.5.6s1.4.9,1.9,1.7.9,1.6,1.1,2.5c.3-1.8,1.1-3.3,2.4-4.2s2.7-1.4,4.3-1.4c1.5,0,2.8.4,4,1.1s2,1.8,2.7,3.2,1,2.6,1,4.3Zm-15.5,0c0-1.5-.4-2.7-1-3.6s-1.6-1.3-2.9-1.3-2.3.4-3,1.3-1.1,2.1-1.1,3.6.4,2.7,1.1,3.6,1.8,1.3,3,1.3,2.2-.4,2.9-1.3,1-2,1-3.6Zm12.7,0c0-1.8-.5-3.1-1.4-4.1s-2.1-1.5-3.7-1.5-2.8.5-3.7,1.5-1.4,2.4-1.4,4.1.5,3.1,1.4,4.1,2.1,1.5,3.7,1.5,2.8-.5,3.7-1.5,1.4-2.3,1.4-4.1Z" fill="#c9d1d9"/>
      <path d="m281.1,74.1c-4.4-.9-8.4-2.3-12-4s-7.2-4-10.6-6.6v14.1h-2.7v-17.2h2.4c1.8,1.2,3.6,2.3,5.4,3.4,1.8,1.1,3.6,2,5.5,2.9s3.8,1.6,5.8,2.3,4.1,1.1,6.2,1.5v3.6h0Z" fill="#c9d1d9"/>
      <path d="m281.1,54.5c-4.4-.9-8.4-2.3-12-4s-7.2-4-10.6-6.6v14.1h-2.7v-17.2h2.4c1.8,1.2,3.6,2.3,5.4,3.4s3.6,2,5.5,2.9,3.8,1.6,5.8,2.3,4.1,1.1,6.2,1.5v3.6h0Z" fill="#c9d1d9"/>
      <path d="m281.5,29.5c0,1.7-.3,3.2-1,4.4s-1.5,2.2-2.6,2.9-2.1,1.1-3.1,1.2l-.8-3.2c1.5-.1,2.8-.5,3.7-1.4s1.4-2.2,1.4-3.9c0-1.1-.3-2.1-.8-2.9s-1.2-1.3-2-1.8-1.8-.8-2.8-1-2-.4-3-.4-1.9-.1-2.6-.1l.5-.3c1.1.5,2.1,1.3,3,2.5s1.3,2.6,1.3,4.4c0,1.5-.3,2.9-1,4.1s-1.7,2.2-3,3-2.8,1.1-4.7,1.1-3.3-.4-4.6-1.1-2.3-1.8-3-3.1-1.1-2.9-1.1-4.6.3-3.2,1-4.3c.7-1.2,1.6-2.1,2.8-2.8s2.6-1.2,4.1-1.5,3.2-.5,4.9-.5,3.4.2,5,.5,3,.9,4.3,1.6,2.2,1.7,3,2.9,1.1,2.6,1.1,4.3h0Zm-11.4.1c0-1.7-.6-3.1-1.7-4.1s-2.7-1.6-4.6-1.6c-1.8,0-3.3.5-4.4,1.5s-1.6,2.3-1.6,4,.5,3.1,1.6,4.1,2.6,1.5,4.5,1.5,3.4-.5,4.5-1.4,1.7-2.4,1.7-4h0Z" fill="#c9d1d9"/>
    </g>
    <g>
      <path d="m353.5,139.9c0,2.9-1.1,5.2-3.4,6.8s-5.5,2.4-9.6,2.4-7.4-.8-9.6-2.4-3.4-3.9-3.4-6.8,1.1-5.2,3.4-6.8,5.5-2.4,9.6-2.4,7.4.8,9.6,2.4,3.4,3.9,3.4,6.8Zm-2.5,0c0-1.9-.9-3.4-2.7-4.4s-4.4-1.5-7.9-1.5-6.1.5-7.9,1.5-2.7,2.5-2.7,4.4.9,3.4,2.7,4.4,4.4,1.5,7.9,1.5,6.1-.5,7.9-1.5,2.7-2.4,2.7-4.4Z" fill="#c9d1d9"/>
      <path d="m353.5,125c0,.8-.3,1.4-.8,1.9s-1.1.8-1.9.8-1.4-.3-1.9-.8-.8-1.2-.8-1.9.3-1.4.8-1.9,1.1-.8,1.9-.8,1.4.3,1.9.8.8,1.2.8,1.9Z" fill="#c9d1d9"/>
      <path d="m353.5,110.2c0,1.7-.3,3.2-1,4.4s-1.5,2.2-2.6,2.9-2.1,1.1-3.1,1.2l-.8-3.2c1.5-.1,2.8-.5,3.7-1.4s1.4-2.2,1.4-3.9c0-1.2-.3-2.1-.8-2.8s-1.2-1.3-2-1.8-1.8-.8-2.8-1-2-.3-3-.4-1.9-.1-2.6-.1l.5-.3c1.1.5,2.1,1.3,3,2.4s1.3,2.6,1.3,4.4c0,1.5-.3,2.9-1,4.1s-1.7,2.2-3,3-2.8,1.1-4.7,1.1-3.3-.4-4.6-1.1-2.3-1.8-3-3.1-1-2.8-1-4.6.3-3.2,1-4.3,1.6-2.1,2.8-2.8,2.6-1.2,4.1-1.5,3.2-.5,4.9-.5,3.4.2,5,.5,3,.9,4.3,1.6,2.2,1.7,3,2.9,1,2.6,1,4.3h0Zm-11.4.1c0-1.7-.6-3.1-1.7-4.1s-2.7-1.6-4.6-1.6c-1.8,0-3.3.5-4.4,1.5s-1.6,2.3-1.6,4,.5,3.1,1.6,4.1,2.6,1.5,4.5,1.5,3.4-.5,4.5-1.4,1.7-2.4,1.7-4h0Z" fill="#c9d1d9"/>
      <path d="m353.5,87.8c0,1.5-.3,2.9-.9,4.2s-1.5,2.4-2.6,3.3-2.6,1.4-4.3,1.6l-1-3.2c1.8-.1,3.3-.7,4.5-1.6s1.8-2.3,1.8-4.2c0-1.1-.3-2.1-.8-3s-1.3-1.5-2.3-2-2.1-.7-3.3-.7c-1.9,0-3.3.5-4.3,1.6s-1.5,2.4-1.5,4c0,1.4.4,2.5,1.1,3.3s1.5,1.4,2.4,1.8l-.3,3.1-14.1-1v-14.5h2.7v11.9l9.4.6-.1.9c-1.1-.6-2-1.5-2.7-2.6s-1.1-2.5-1.1-4.1.4-2.9,1-4.2,1.7-2.2,2.9-2.9,2.7-1.1,4.4-1.1c1.8,0,3.4.4,4.8,1.2s2.4,1.9,3.1,3.2,1.2,2.9,1.2,4.4h0Z" fill="#c9d1d9"/>
      <path d="m353.1,72.3h-20.2c.8.9,1.5,1.8,2,2.6s1,1.7,1.4,2.7h-3c-.2-.5-.5-1.1-.9-1.6s-.9-1.2-1.6-2-1.7-1.6-3-2.5v-2.3h25.3v3.1h0Z" fill="#c9d1d9"/>
      <path d="m353.5,55.3c0,2.9-1.1,5.2-3.4,6.8s-5.5,2.4-9.6,2.4-7.4-.8-9.6-2.4-3.4-3.9-3.4-6.8,1.1-5.2,3.4-6.8,5.5-2.4,9.6-2.4,7.4.8,9.6,2.4,3.4,3.8,3.4,6.8Zm-2.5,0c0-2-.9-3.4-2.7-4.4s-4.4-1.5-7.9-1.5-6.1.5-7.9,1.5-2.7,2.5-2.7,4.4.9,3.4,2.7,4.4,4.4,1.5,7.9,1.5,6.1-.5,7.9-1.5,2.7-2.5,2.7-4.4Z" fill="#c9d1d9"/>
      <path d="m353.5,32.4c0,3.1-1.1,5.4-3.4,7s-5.3,2.4-9.2,2.4c-1.9,0-3.7-.2-5.3-.6s-3.1-1-4.3-1.8-2.2-1.8-2.9-3-1-2.6-1-4.2.3-3.1,1-4.3,1.5-2.2,2.6-2.9,2.1-1.1,3.1-1.2l.8,3.2c-1.5.1-2.7.6-3.7,1.5s-1.4,2.1-1.4,3.7c0,1.2.3,2.2.8,3s1.2,1.4,2,1.9,1.8.8,2.8,1.1,2,.4,3,.5,1.9.1,2.6.1l-.3.3c-1.1-.5-2.2-1.3-3.1-2.5s-1.3-2.6-1.3-4.5c0-1.5.3-2.8,1-4.1s1.6-2.2,2.9-3,2.8-1.1,4.6-1.1,3.2.4,4.5,1.1,2.3,1.7,3,3,1.2,2.7,1.2,4.4h0Zm-2.5,0c0-1.7-.5-3.1-1.6-4s-2.6-1.4-4.4-1.4-3.4.5-4.4,1.4-1.6,2.2-1.6,3.9.5,3.1,1.6,4.1,2.6,1.6,4.4,1.6,3.3-.5,4.4-1.5,1.6-2.4,1.6-4.1h0Z" fill="#c9d1d9"/>
    </g>
    <g>
      <path d="m425.5,139.9c0,2.9-1.1,5.2-3.4,6.8s-5.5,2.4-9.6,2.4-7.4-.8-9.6-2.4-3.4-3.9-3.4-6.8,1.1-5.2,3.4-6.8,5.5-2.4,9.6-2.4,7.4.8,9.6,2.4,3.4,3.9,3.4,6.8Zm-2.5,0c0-1.9-.9-3.4-2.7-4.4s-4.4-1.5-7.9-1.5-6.1.5-7.9,1.5-2.7,2.5-2.7,4.4.9,3.4,2.7,4.4,4.4,1.5,7.9,1.5,6.1-.5,7.9-1.5,2.7-2.4,2.7-4.4Z" fill="#c9d1d9"/>
      <path d="m425.5,125c0,.8-.3,1.4-.8,1.9s-1.1.8-1.9.8-1.4-.3-1.9-.8-.8-1.2-.8-1.9.3-1.4.8-1.9,1.1-.8,1.9-.8,1.4.3,1.9.8.8,1.2.8,1.9Z" fill="#c9d1d9"/>
      <path d="m425.5,110.2c0,1.7-.3,3.2-1,4.4s-1.5,2.2-2.6,2.9-2.1,1.1-3.1,1.2l-.8-3.2c1.5-.1,2.8-.5,3.7-1.4s1.4-2.2,1.4-3.9c0-1.2-.3-2.1-.8-2.8s-1.2-1.3-2-1.8-1.8-.8-2.8-1-2-.3-3-.4-1.9-.1-2.6-.1l.5-.3c1.1.5,2.1,1.3,3,2.4s1.3,2.6,1.3,4.4c0,1.5-.3,2.9-1,4.1s-1.7,2.2-3,3-2.8,1.1-4.7,1.1-3.3-.4-4.6-1.1-2.3-1.8-3-3.1-1-2.8-1-4.6.3-3.2,1-4.3,1.6-2.1,2.8-2.8,2.6-1.2,4.1-1.5,3.2-.5,4.9-.5,3.4.2,5,.5,3,.9,4.3,1.6,2.2,1.7,3,2.9,1,2.6,1,4.3h0Zm-11.4.1c0-1.7-.6-3.1-1.7-4.1s-2.7-1.6-4.6-1.6c-1.8,0-3.3.5-4.4,1.5s-1.6,2.3-1.6,4,.5,3.1,1.6,4.1,2.6,1.5,4.5,1.5,3.4-.5,4.5-1.4,1.7-2.4,1.7-4h0Z" fill="#c9d1d9"/>
      <path d="m425.5,87.8c0,1.5-.3,2.9-.9,4.2s-1.5,2.4-2.6,3.3-2.6,1.4-4.3,1.6l-1-3.2c1.8-.1,3.3-.7,4.5-1.6s1.8-2.3,1.8-4.2c0-1.1-.3-2.1-.8-3s-1.3-1.5-2.3-2-2.1-.7-3.3-.7c-1.9,0-3.3.5-4.3,1.6s-1.5,2.4-1.5,4c0,1.4.4,2.5,1.1,3.3s1.5,1.4,2.4,1.8l-.3,3.1-14.1-1v-14.5h2.7v11.9l9.4.6-.1.9c-1.1-.6-2-1.5-2.7-2.6s-1.1-2.5-1.1-4.1.4-2.9,1-4.2,1.7-2.2,2.9-2.9,2.7-1.1,4.4-1.1c1.8,0,3.4.4,4.8,1.2s2.4,1.9,3.1,3.2,1.2,2.9,1.2,4.4h0Z" fill="#c9d1d9"/>
      <path d="m425.1,72.3h-20.2c.8.9,1.5,1.8,2,2.6s1,1.7,1.4,2.7h-3c-.2-.5-.5-1.1-.9-1.6s-.9-1.2-1.6-2-1.7-1.6-3-2.5v-2.3h25.3v3.1h0Z" fill="#c9d1d9"/>
      <path d="m425.5,55.3c0,2.9-1.1,5.2-3.4,6.8s-5.5,2.4-9.6,2.4-7.4-.8-9.6-2.4-3.4-3.9-3.4-6.8,1.1-5.2,3.4-6.8,5.5-2.4,9.6-2.4,7.4.8,9.6,2.4,3.4,3.8,3.4,6.8Zm-2.5,0c0-2-.9-3.4-2.7-4.4s-4.4-1.5-7.9-1.5-6.1.5-7.9,1.5-2.7,2.5-2.7,4.4.9,3.4,2.7,4.4,4.4,1.5,7.9,1.5,6.1-.5,7.9-1.5,2.7-2.5,2.7-4.4Z" fill="#c9d1d9"/>
      <path d="m425.5,32.4c0,3.1-1.1,5.4-3.4,7s-5.3,2.4-9.2,2.4c-1.9,0-3.7-.2-5.3-.6s-3.1-1-4.3-1.8-2.2-1.8-2.9-3-1-2.6-1-4.2.3-3.1,1-4.3,1.5-2.2,2.6-2.9,2.1-1.1,3.1-1.2l.8,3.2c-1.5.1-2.7.6-3.7,1.5s-1.4,2.1-1.4,3.7c0,1.2.3,2.2.8,3s1.2,1.4,2,1.9,1.8.8,2.8,1.1,2,.4,3,.5,1.9.1,2.6.1l-.3.3c-1.1-.5-2.2-1.3-3.1-2.5s-1.3-2.6-1.3-4.5c0-1.5.3-2.8,1-4.1s1.6-2.2,2.9-3,2.8-1.1,4.6-1.1,3.2.4,4.5,1.1,2.3,1.7,3,3,1.2,2.7,1.2,4.4h0Zm-2.5,0c0-1.7-.5-3.1-1.6-4s-2.6-1.4-4.4-1.4-3.4.5-4.4,1.4-1.6,2.2-1.6,3.9.5,3.1,1.6,4.1,2.6,1.6,4.4,1.6,3.3-.5,4.4-1.5,1.6-2.4,1.6-4.1h0Z" fill="#c9d1d9"/>
    </g>
    <g>
      <path d="m497.5,139.9c0,2.9-1.1,5.2-3.4,6.8s-5.5,2.4-9.6,2.4-7.4-.8-9.6-2.4-3.4-3.9-3.4-6.8,1.1-5.2,3.4-6.8,5.5-2.4,9.6-2.4,7.4.8,9.6,2.4,3.4,3.9,3.4,6.8Zm-2.5,0c0-1.9-.9-3.4-2.7-4.4s-4.4-1.5-7.9-1.5-6.1.5-7.9,1.5-2.7,2.5-2.7,4.4.9,3.4,2.7,4.4,4.4,1.5,7.9,1.5,6.1-.5,7.9-1.5,2.7-2.4,2.7-4.4Z" fill="#c9d1d9"/>
      <path d="m497.5,125c0,.8-.3,1.4-.8,1.9s-1.1.8-1.9.8-1.4-.3-1.9-.8-.8-1.2-.8-1.9.3-1.4.8-1.9,1.1-.8,1.9-.8,1.4.3,1.9.8.8,1.2.8,1.9Z" fill="#c9d1d9"/>
      <path d="m497.5,109.9c0,1.5-.3,2.9-.9,4.2s-1.5,2.4-2.6,3.3-2.6,1.4-4.3,1.6l-1-3.2c1.8-.1,3.3-.7,4.5-1.6s1.8-2.3,1.8-4.2c0-1.1-.3-2.1-.8-3s-1.3-1.5-2.3-2-2.1-.7-3.3-.7c-1.9,0-3.3.5-4.3,1.6s-1.5,2.4-1.5,4c0,1.4.4,2.5,1.1,3.3s1.5,1.4,2.4,1.8l-.3,3.1-14.1-1v-14.5h2.7v11.9l9.6.7-.1.9c-1.1-.6-2-1.5-2.7-2.6s-1.1-2.5-1.1-4.1.4-2.9,1-4.2,1.7-2.2,2.9-2.9,2.7-1.1,4.4-1.1c1.8,0,3.4.4,4.8,1.2s2.4,1.9,3.1,3.2,1,2.7,1,4.3h0Z" fill="#c9d1d9"/>
      <path d="m497.5,88.2c0,1.7-.3,3.3-1,4.6s-1.5,2.4-2.7,3.2-2.5,1.1-4,1.1c-1.6,0-3-.5-4.3-1.4s-2.1-2.4-2.4-4.2c-.2,1-.6,1.8-1.1,2.6s-1.1,1.3-1.9,1.7-1.5.6-2.5.6c-1.2,0-2.3-.3-3.3-1s-1.7-1.6-2.3-2.8-.8-2.6-.8-4.2.3-3,.8-4.2,1.3-2.1,2.3-2.8,2.1-1,3.3-1c.9,0,1.7.2,2.5.6s1.4.9,1.9,1.7.9,1.6,1.1,2.5c.3-1.8,1.1-3.3,2.4-4.2s2.7-1.4,4.3-1.4c1.5,0,2.8.4,4,1.1s2,1.8,2.7,3.2,1,2.6,1,4.3Zm-15.5,0c0-1.5-.4-2.7-1-3.6s-1.6-1.3-2.9-1.3-2.3.4-3,1.3-1.1,2.1-1.1,3.6.4,2.7,1.1,3.6,1.8,1.3,3,1.3,2.2-.4,2.9-1.3,1-2,1-3.6Zm12.7,0c0-1.8-.5-3.1-1.4-4.1s-2.1-1.5-3.7-1.5-2.8.5-3.7,1.5-1.4,2.4-1.4,4.1.5,3.1,1.4,4.1,2.1,1.5,3.7,1.5,2.8-.5,3.7-1.5,1.4-2.3,1.4-4.1Z" fill="#c9d1d9"/>
      <path d="m497.1,74.1c-4.4-.9-8.4-2.3-12-4s-7.2-4-10.6-6.6v14.1h-2.7v-17.2h2.4c1.8,1.2,3.6,2.3,5.4,3.4,1.8,1.1,3.6,2,5.5,2.9s3.8,1.6,5.8,2.3,4.1,1.1,6.2,1.5v3.6h0Z" fill="#c9d1d9"/>
      <path d="m497.1,54.5c-4.4-.9-8.4-2.3-12-4s-7.2-4-10.6-6.6v14.1h-2.7v-17.2h2.4c1.8,1.2,3.6,2.3,5.4,3.4s3.6,2,5.5,2.9,3.8,1.6,5.8,2.3,4.1,1.1,6.2,1.5v3.6h0Z" fill="#c9d1d9"/>
      <path d="m497.5,29.5c0,1.7-.3,3.2-1,4.4s-1.5,2.2-2.6,2.9-2.1,1.1-3.1,1.2l-.8-3.2c1.5-.1,2.8-.5,3.7-1.4s1.4-2.2,1.4-3.9c0-1.1-.3-2.1-.8-2.9s-1.2-1.3-2-1.8-1.8-.8-2.8-1-2-.4-3-.4-1.9-.1-2.6-.1l.5-.3c1.1.5,2.1,1.3,3,2.5s1.3,2.6,1.3,4.4c0,1.5-.3,2.9-1,4.1s-1.7,2.2-3,3-2.8,1.1-4.7,1.1-3.3-.4-4.6-1.1-2.3-1.8-3-3.1-1-2.9-1-4.6.3-3.2,1-4.3,1.6-2.1,2.8-2.8,2.6-1.2,4.1-1.5,3.2-.5,4.9-.5,3.4.2,5,.5,3,.9,4.3,1.6,2.2,1.7,3,2.9,1,2.6,1,4.3h0Zm-11.4.1c0-1.7-.6-3.1-1.7-4.1s-2.7-1.6-4.6-1.6c-1.8,0-3.3.5-4.4,1.5s-1.6,2.3-1.6,4,.5,3.1,1.6,4.1,2.6,1.5,4.5,1.5,3.4-.5,4.5-1.4,1.7-2.4,1.7-4h0Z" fill="#c9d1d9"/>
    </g>
    <g>
      <path d="m631.4,148.1h-2.7v-11.8h2.7v11.8Z" fill="#c9d1d9"/>
      <path d="m641.5,122.7c0,2.9-1.2,5.2-3.4,6.8s-5.5,2.4-9.6,2.4-7.3-.8-9.6-2.4-3.4-3.9-3.4-6.8,1.2-5.2,3.4-6.8,5.5-2.4,9.6-2.4,7.3.8,9.6,2.4,3.4,3.8,3.4,6.8Zm-2.5,0c0-1.9-.9-3.4-2.7-4.4s-4.4-1.5-7.9-1.5-6.1.5-7.9,1.5-2.7,2.5-2.7,4.4.9,3.4,2.7,4.4c1.8,1,4.4,1.5,7.9,1.5s6.1-.5,7.9-1.5,2.7-2.5,2.7-4.4h0Z" fill="#c9d1d9"/>
      <path d="m641.5,107.8c0,.8-.3,1.4-.8,1.9s-1.2.8-1.9.8-1.4-.3-1.9-.8-.8-1.2-.8-1.9.3-1.4.8-1.9,1.2-.8,1.9-.8,1.4.3,1.9.8.8,1.1.8,1.9Z" fill="#c9d1d9"/>
      <path d="m641.5,92.6c0,1.5-.3,2.9-.9,4.2s-1.5,2.4-2.7,3.3-2.6,1.4-4.3,1.6l-1-3.2c1.8-.1,3.3-.7,4.5-1.6s1.8-2.3,1.8-4.2c0-1.1-.3-2.1-.8-3s-1.3-1.5-2.3-2-2.1-.7-3.3-.7c-1.9,0-3.3.5-4.3,1.6s-1.5,2.4-1.5,4c0,1.4.3,2.5,1.1,3.3s1.5,1.4,2.4,1.8l-.3,3.1-14.1-1v-14.5h2.7v11.9l9.6.7-.1.9c-1.1-.6-2-1.5-2.7-2.6s-1.1-2.5-1.1-4.1.3-2.9,1-4.2,1.7-2.2,2.9-2.9,2.7-1.1,4.4-1.1c1.8,0,3.4.4,4.8,1.2s2.4,1.9,3.1,3.2,1.1,2.7,1.1,4.3Z" fill="#c9d1d9"/>
      <path d="m641.5,71c0,1.7-.3,3.3-1,4.6s-1.5,2.4-2.7,3.2-2.5,1.1-4,1.1c-1.6,0-3-.5-4.3-1.4s-2.1-2.4-2.4-4.2c-.2,1-.6,1.8-1.1,2.6s-1.1,1.3-1.8,1.7-1.5.6-2.5.6c-1.2,0-2.3-.3-3.3-1s-1.7-1.6-2.3-2.8-.8-2.6-.8-4.2.3-3,.8-4.2,1.3-2.1,2.3-2.8,2.1-1,3.3-1c.9,0,1.7.2,2.5.6.8.4,1.3.9,1.8,1.7s.9,1.6,1.1,2.5c.3-1.8,1.2-3.3,2.4-4.2s2.7-1.4,4.3-1.4c1.5,0,2.8.4,4,1.1,1.2.7,2,1.8,2.7,3.2s1,2.5,1,4.3Zm-15.5,0c0-1.5-.3-2.7-1-3.6s-1.7-1.3-2.9-1.3-2.3.4-3,1.3-1.1,2.1-1.1,3.6.4,2.7,1.1,3.6,1.8,1.3,3,1.3,2.2-.4,2.9-1.3,1-2.1,1-3.6Zm12.7,0c0-1.8-.5-3.1-1.3-4.1s-2.1-1.5-3.7-1.5-2.8.5-3.7,1.5-1.4,2.4-1.4,4.1.5,3.1,1.4,4.1,2.2,1.5,3.7,1.5,2.8-.5,3.7-1.5,1.3-2.4,1.3-4.1Z" fill="#c9d1d9"/>
      <path d="m641.1,56.8c-4.4-.9-8.4-2.3-12-4s-7.2-4-10.6-6.6v14.1h-2.7v-17.2h2.4c1.8,1.2,3.6,2.3,5.4,3.4s3.6,2,5.5,2.9,3.8,1.6,5.8,2.3,4.1,1.1,6.2,1.5v3.6h0Z" fill="#c9d1d9"/>
      <path d="m641.1,37.2c-4.4-.9-8.4-2.3-12-4s-7.2-4-10.6-6.6v14.1h-2.7v-17.2h2.4c1.8,1.2,3.6,2.3,5.4,3.4s3.6,2,5.5,2.9,3.8,1.6,5.8,2.3c2,.7,4.1,1.1,6.2,1.5v3.6h0Z" fill="#c9d1d9"/>
      <path d="m641.5,12.2c0,1.7-.3,3.2-1,4.4s-1.5,2.2-2.6,2.9-2.1,1.1-3.1,1.2l-.8-3.2c1.5-.1,2.8-.5,3.7-1.4s1.4-2.2,1.4-3.9c0-1.1-.3-2.1-.8-2.9s-1.2-1.3-2-1.8-1.8-.8-2.8-1-2-.3-3-.4-1.9-.1-2.7-.1l.5-.3c1.1.5,2.2,1.3,3,2.4s1.3,2.6,1.3,4.4c0,1.5-.3,2.9-1,4.1s-1.7,2.2-3,3-2.8,1.1-4.7,1.1-3.3-.4-4.6-1.1-2.3-1.8-3-3.1-1-2.9-1-4.6.3-3.2,1-4.3,1.6-2.1,2.8-2.8,2.6-1.2,4.1-1.5,3.2-.5,4.9-.5,3.4.2,5,.5,3,.9,4.3,1.6,2.2,1.7,3,2.9,1.1,2.7,1.1,4.4h0Zm-11.4.1c0-1.7-.6-3.1-1.7-4.1s-2.7-1.6-4.6-1.6c-1.8,0-3.3.5-4.3,1.5-1,1-1.6,2.3-1.6,4s.5,3.1,1.6,4.1,2.6,1.5,4.5,1.5,3.4-.5,4.5-1.4,1.6-2.4,1.6-4h0Z" fill="#c9d1d9"/>
    </g>
    <g>
      <path d="m703.4,148.1h-2.7v-11.8h2.7v11.8Z" fill="#c9d1d9"/>
      <path d="m713.5,122.7c0,2.9-1.2,5.2-3.4,6.8s-5.5,2.4-9.6,2.4-7.3-.8-9.6-2.4-3.4-3.9-3.4-6.8,1.2-5.2,3.4-6.8,5.5-2.4,9.6-2.4,7.3.8,9.6,2.4,3.4,3.8,3.4,6.8Zm-2.5,0c0-1.9-.9-3.4-2.7-4.4s-4.4-1.5-7.9-1.5-6.1.5-7.9,1.5-2.7,2.5-2.7,4.4.9,3.4,2.7,4.4c1.8,1,4.4,1.5,7.9,1.5s6.1-.5,7.9-1.5,2.7-2.5,2.7-4.4h0Z" fill="#c9d1d9"/>
      <path d="m713.5,107.8c0,.8-.3,1.4-.8,1.9s-1.2.8-1.9.8-1.4-.3-1.9-.8-.8-1.2-.8-1.9.3-1.4.8-1.9,1.2-.8,1.9-.8,1.4.3,1.9.8.8,1.1.8,1.9Z" fill="#c9d1d9"/>
      <path d="m713.5,92.9c0,1.7-.3,3.2-1,4.4s-1.5,2.2-2.6,2.9-2.1,1.1-3.1,1.2l-.8-3.2c1.5-.1,2.8-.5,3.7-1.4s1.4-2.2,1.4-3.9c0-1.2-.3-2.1-.8-2.8s-1.2-1.3-2-1.8-1.8-.8-2.8-1-2-.3-3-.4-1.9-.1-2.7-.1l.5-.3c1.1.5,2.2,1.3,3,2.4s1.3,2.6,1.3,4.4c0,1.5-.3,2.9-1,4.1s-1.7,2.2-3,3-2.8,1.1-4.7,1.1-3.3-.4-4.6-1.1-2.3-1.8-3-3.1-1-2.8-1-4.6.3-3.2,1-4.3,1.6-2.1,2.8-2.8,2.6-1.2,4.1-1.5,3.2-.5,4.9-.5,3.4.2,5,.5,3,.9,4.3,1.6,2.2,1.7,3,2.9,1.1,2.6,1.1,4.3h0Zm-11.4.1c0-1.7-.6-3.1-1.7-4.1s-2.7-1.6-4.6-1.6c-1.8,0-3.3.5-4.3,1.5s-1.6,2.3-1.6,4,.5,3.1,1.6,4.1,2.6,1.5,4.5,1.5,3.4-.5,4.5-1.4,1.6-2.4,1.6-4h0Z" fill="#c9d1d9"/>
      <path d="m713.5,70.6c0,1.5-.3,2.9-.9,4.2s-1.5,2.4-2.7,3.3-2.6,1.4-4.3,1.6l-1-3.2c1.8-.1,3.3-.7,4.5-1.6s1.8-2.3,1.8-4.2c0-1.1-.3-2.1-.8-3s-1.3-1.5-2.3-2-2.1-.7-3.3-.7c-1.9,0-3.3.5-4.3,1.6s-1.5,2.4-1.5,4c0,1.4.3,2.5,1.1,3.3s1.5,1.4,2.4,1.8l-.3,3.1-14.1-1v-14.6h2.7v11.9l9.6.7-.1.9c-1.1-.6-2-1.5-2.7-2.6s-1.1-2.5-1.1-4.1.3-2.9,1-4.2,1.7-2.2,2.9-2.9,2.7-1.1,4.4-1.1c1.8,0,3.4.4,4.8,1.2s2.4,1.9,3.1,3.3,1.1,2.7,1.1,4.3Z" fill="#c9d1d9"/>
      <path d="m713.1,55h-20.2c.8.9,1.5,1.8,2,2.6s1,1.7,1.4,2.7h-3c-.2-.5-.5-1.1-.9-1.6s-.9-1.2-1.6-2-1.7-1.6-3-2.5v-2.3h25.3v3.1h0Z" fill="#c9d1d9"/>
      <path d="m713.5,38c0,2.9-1.2,5.2-3.4,6.8s-5.5,2.4-9.6,2.4-7.3-.8-9.6-2.4-3.4-3.9-3.4-6.8,1.2-5.2,3.4-6.8,5.5-2.4,9.6-2.4,7.3.8,9.6,2.4c2.2,1.6,3.4,3.9,3.4,6.8Zm-2.5,0c0-2-.9-3.4-2.7-4.4s-4.4-1.5-7.9-1.5-6.1.5-7.9,1.5-2.7,2.5-2.7,4.4.9,3.4,2.7,4.4,4.4,1.5,7.9,1.5,6.1-.5,7.9-1.5,2.7-2.5,2.7-4.4Z" fill="#c9d1d9"/>
      <path d="m713.5,15.1c0,3.1-1.1,5.4-3.4,7s-5.3,2.4-9.2,2.4c-1.9,0-3.7-.2-5.3-.6s-3.1-1-4.3-1.8-2.2-1.8-2.9-3-1-2.6-1-4.2.3-3.1,1-4.3,1.5-2.2,2.6-2.9,2.1-1.1,3.2-1.2l.8,3.2c-1.5.1-2.7.6-3.7,1.5s-1.4,2.1-1.4,3.7c0,1.2.3,2.2.8,2.9s1.2,1.4,2,1.9,1.8.8,2.8,1.1,2,.4,3,.5,1.9.1,2.7.1l-.3.3c-1.2-.5-2.2-1.3-3.1-2.5s-1.3-2.6-1.3-4.5c0-1.5.3-2.8,1-4.1s1.6-2.2,2.9-3,2.8-1.1,4.7-1.1,3.2.4,4.5,1.1,2.3,1.7,3,3,.9,2.8.9,4.5h0Zm-2.5,0c0-1.7-.5-3.1-1.6-4s-2.6-1.4-4.4-1.4-3.3.5-4.4,1.4-1.6,2.2-1.6,3.9.5,3.1,1.6,4.1,2.6,1.6,4.4,1.6,3.3-.5,4.3-1.5,1.7-2.4,1.7-4.1h0Z" fill="#c9d1d9"/>
    </g>
    <g>
      <path d="m775.4,148.1h-2.7v-11.8h2.7v11.8Z" fill="#c9d1d9"/>
      <path d="m785.5,122.7c0,2.9-1.2,5.2-3.4,6.8s-5.5,2.4-9.6,2.4-7.3-.8-9.6-2.4-3.4-3.9-3.4-6.8,1.2-5.2,3.4-6.8,5.5-2.4,9.6-2.4,7.3.8,9.6,2.4,3.4,3.8,3.4,6.8Zm-2.5,0c0-1.9-.9-3.4-2.7-4.4s-4.4-1.5-7.9-1.5-6.1.5-7.9,1.5-2.7,2.5-2.7,4.4.9,3.4,2.7,4.4c1.8,1,4.4,1.5,7.9,1.5s6.1-.5,7.9-1.5,2.7-2.5,2.7-4.4h0Z" fill="#c9d1d9"/>
      <path d="m785.5,107.8c0,.8-.3,1.4-.8,1.9s-1.2.8-1.9.8-1.4-.3-1.9-.8-.8-1.2-.8-1.9.3-1.4.8-1.9,1.2-.8,1.9-.8,1.4.3,1.9.8.8,1.1.8,1.9Z" fill="#c9d1d9"/>
      <path d="m785.5,92.9c0,1.7-.3,3.2-1,4.4s-1.5,2.2-2.6,2.9-2.1,1.1-3.1,1.2l-.8-3.2c1.5-.1,2.8-.5,3.7-1.4s1.4-2.2,1.4-3.9c0-1.2-.3-2.1-.8-2.8s-1.2-1.3-2-1.8-1.8-.8-2.8-1-2-.3-3-.4-1.9-.1-2.7-.1l.5-.3c1.1.5,2.2,1.3,3,2.4s1.3,2.6,1.3,4.4c0,1.5-.3,2.9-1,4.1s-1.7,2.2-3,3-2.8,1.1-4.7,1.1-3.3-.4-4.6-1.1-2.3-1.8-3-3.1-1-2.8-1-4.6.3-3.2,1-4.3,1.6-2.1,2.8-2.8,2.6-1.2,4.1-1.5,3.2-.5,4.9-.5,3.4.2,5,.5,3,.9,4.3,1.6,2.2,1.7,3,2.9,1.1,2.6,1.1,4.3h0Zm-11.4.1c0-1.7-.6-3.1-1.7-4.1s-2.7-1.6-4.6-1.6c-1.8,0-3.3.5-4.3,1.5s-1.6,2.3-1.6,4,.5,3.1,1.6,4.1,2.6,1.5,4.5,1.5,3.4-.5,4.5-1.4,1.6-2.4,1.6-4h0Z" fill="#c9d1d9"/>
      <path d="m785.5,70.6c0,1.5-.3,2.9-.9,4.2s-1.5,2.4-2.7,3.3-2.6,1.4-4.3,1.6l-1-3.2c1.8-.1,3.3-.7,4.5-1.6s1.8-2.3,1.8-4.2c0-1.1-.3-2.1-.8-3s-1.3-1.5-2.3-2-2.1-.7-3.3-.7c-1.9,0-3.3.5-4.3,1.6s-1.5,2.4-1.5,4c0,1.4.3,2.5,1.1,3.3s1.5,1.4,2.4,1.8l-.3,3.1-14.1-1v-14.6h2.7v11.9l9.6.7-.1.9c-1.1-.6-2-1.5-2.7-2.6s-1.1-2.5-1.1-4.1.3-2.9,1-4.2,1.7-2.2,2.9-2.9,2.7-1.1,4.4-1.1c1.8,0,3.4.4,4.8,1.2s2.4,1.9,3.1,3.3,1.1,2.7,1.1,4.3Z" fill="#c9d1d9"/>
      <path d="m785.1,55h-20.2c.8.9,1.5,1.8,2,2.6s1,1.7,1.4,2.7h-3c-.2-.5-.5-1.1-.9-1.6s-.9-1.2-1.6-2-1.7-1.6-3-2.5v-2.3h25.3v3.1h0Z" fill="#c9d1d9"/>
      <path d="m785.5,38c0,2.9-1.2,5.2-3.4,6.8s-5.5,2.4-9.6,2.4-7.3-.8-9.6-2.4-3.4-3.9-3.4-6.8,1.2-5.2,3.4-6.8,5.5-2.4,9.6-2.4,7.3.8,9.6,2.4c2.2,1.6,3.4,3.9,3.4,6.8Zm-2.5,0c0-2-.9-3.4-2.7-4.4s-4.4-1.5-7.9-1.5-6.1.5-7.9,1.5-2.7,2.5-2.7,4.4.9,3.4,2.7,4.4,4.4,1.5,7.9,1.5,6.1-.5,7.9-1.5,2.7-2.5,2.7-4.4Z" fill="#c9d1d9"/>
      <path d="m785.5,15.1c0,3.1-1.1,5.4-3.4,7s-5.3,2.4-9.2,2.4c-1.9,0-3.7-.2-5.3-.6s-3.1-1-4.3-1.8-2.2-1.8-2.9-3-1-2.6-1-4.2.3-3.1,1-4.3,1.5-2.2,2.6-2.9,2.1-1.1,3.2-1.2l.8,3.2c-1.5.1-2.7.6-3.7,1.5s-1.4,2.1-1.4,3.7c0,1.2.3,2.2.8,2.9s1.2,1.4,2,1.9,1.8.8,2.8,1.1,2,.4,3,.5,1.9.1,2.7.1l-.3.3c-1.2-.5-2.2-1.3-3.1-2.5s-1.3-2.6-1.3-4.5c0-1.5.3-2.8,1-4.1s1.6-2.2,2.9-3,2.8-1.1,4.7-1.1,3.2.4,4.5,1.1,2.3,1.7,3,3,.9,2.8.9,4.5h0Zm-2.5,0c0-1.7-.5-3.1-1.6-4s-2.6-1.4-4.4-1.4-3.3.5-4.4,1.4-1.6,2.2-1.6,3.9.5,3.1,1.6,4.1,2.6,1.6,4.4,1.6,3.3-.5,4.3-1.5,1.7-2.4,1.7-4.1h0Z" fill="#c9d1d9"/>
    </g>
    <g>
      <path d="m847.4,148.1h-2.7v-11.8h2.7v11.8Z" fill="#c9d1d9"/>
      <path d="m857.5,122.7c0,2.9-1.2,5.2-3.4,6.8s-5.5,2.4-9.6,2.4-7.3-.8-9.6-2.4-3.4-3.9-3.4-6.8,1.2-5.2,3.4-6.8,5.5-2.4,9.6-2.4,7.3.8,9.6,2.4,3.4,3.8,3.4,6.8Zm-2.5,0c0-1.9-.9-3.4-2.7-4.4s-4.4-1.5-7.9-1.5-6.1.5-7.9,1.5-2.7,2.5-2.7,4.4.9,3.4,2.7,4.4c1.8,1,4.4,1.5,7.9,1.5s6.1-.5,7.9-1.5,2.7-2.5,2.7-4.4h0Z" fill="#c9d1d9"/>
      <path d="m857.5,107.8c0,.8-.3,1.4-.8,1.9s-1.2.8-1.9.8-1.4-.3-1.9-.8-.8-1.2-.8-1.9.3-1.4.8-1.9,1.2-.8,1.9-.8,1.4.3,1.9.8.8,1.1.8,1.9Z" fill="#c9d1d9"/>
      <path d="m857.5,92.6c0,1.5-.3,2.9-.9,4.2s-1.5,2.4-2.7,3.3-2.6,1.4-4.3,1.6l-1-3.2c1.8-.1,3.3-.7,4.5-1.6s1.8-2.3,1.8-4.2c0-1.1-.3-2.1-.8-3s-1.3-1.5-2.3-2-2.1-.7-3.3-.7c-1.9,0-3.3.5-4.3,1.6s-1.5,2.4-1.5,4c0,1.4.3,2.5,1.1,3.3s1.5,1.4,2.4,1.8l-.3,3.1-14.1-1v-14.5h2.7v11.9l9.6.7-.1.9c-1.1-.6-2-1.5-2.7-2.6s-1.1-2.5-1.1-4.1.3-2.9,1-4.2,1.7-2.2,2.9-2.9,2.7-1.1,4.4-1.1c1.8,0,3.4.4,4.8,1.2s2.4,1.9,3.1,3.2,1.1,2.7,1.1,4.3Z" fill="#c9d1d9"/>
      <path d="m857.5,71c0,1.7-.3,3.3-1,4.6s-1.5,2.4-2.7,3.2-2.5,1.1-4,1.1c-1.6,0-3-.5-4.3-1.4s-2.1-2.4-2.4-4.2c-.2,1-.6,1.8-1.1,2.6s-1.1,1.3-1.8,1.7-1.5.6-2.5.6c-1.2,0-2.3-.3-3.3-1s-1.7-1.6-2.3-2.8-.8-2.6-.8-4.2.3-3,.8-4.2,1.3-2.1,2.3-2.8,2.1-1,3.3-1c.9,0,1.7.2,2.5.6.8.4,1.3.9,1.8,1.7s.9,1.6,1.1,2.5c.3-1.8,1.2-3.3,2.4-4.2s2.7-1.4,4.3-1.4c1.5,0,2.8.4,4,1.1,1.2.7,2,1.8,2.7,3.2s1,2.5,1,4.3Zm-15.5,0c0-1.5-.3-2.7-1-3.6s-1.7-1.3-2.9-1.3-2.3.4-3,1.3-1.1,2.1-1.1,3.6.4,2.7,1.1,3.6,1.8,1.3,3,1.3,2.2-.4,2.9-1.3,1-2.1,1-3.6Zm12.7,0c0-1.8-.5-3.1-1.3-4.1s-2.1-1.5-3.7-1.5-2.8.5-3.7,1.5-1.4,2.4-1.4,4.1.5,3.1,1.4,4.1,2.2,1.5,3.7,1.5,2.8-.5,3.7-1.5,1.3-2.4,1.3-4.1Z" fill="#c9d1d9"/>
      <path d="m857.1,56.8c-4.4-.9-8.4-2.3-12-4s-7.2-4-10.6-6.6v14.1h-2.7v-17.2h2.4c1.8,1.2,3.6,2.3,5.4,3.4s3.6,2,5.5,2.9,3.8,1.6,5.8,2.3,4.1,1.1,6.2,1.5v3.6h0Z" fill="#c9d1d9"/>
      <path d="m857.1,37.2c-4.4-.9-8.4-2.3-12-4s-7.2-4-10.6-6.6v14.1h-2.7v-17.2h2.4c1.8,1.2,3.6,2.3,5.4,3.4s3.6,2,5.5,2.9,3.8,1.6,5.8,2.3c2,.7,4.1,1.1,6.2,1.5v3.6h0Z" fill="#c9d1d9"/>
      <path d="m857.5,12.2c0,1.7-.3,3.2-1,4.4s-1.5,2.2-2.6,2.9-2.1,1.1-3.1,1.2l-.8-3.2c1.5-.1,2.8-.5,3.7-1.4s1.4-2.2,1.4-3.9c0-1.1-.3-2.1-.8-2.9s-1.2-1.3-2-1.8-1.8-.8-2.8-1-2-.3-3-.4-1.9-.1-2.7-.1l.5-.3c1.1.5,2.2,1.3,3,2.4s1.3,2.6,1.3,4.4c0,1.5-.3,2.9-1,4.1s-1.7,2.2-3,3-2.8,1.1-4.7,1.1-3.3-.4-4.6-1.1-2.3-1.8-3-3.1-1-2.9-1-4.6.3-3.2,1-4.3,1.6-2.1,2.8-2.8,2.6-1.2,4.1-1.5,3.2-.5,4.9-.5,3.4.2,5,.5,3,.9,4.3,1.6,2.2,1.7,3,2.9,1.1,2.7,1.1,4.4h0Zm-11.4.1c0-1.7-.6-3.1-1.7-4.1s-2.7-1.6-4.6-1.6c-1.8,0-3.3.5-4.3,1.5-1,1-1.6,2.3-1.6,4s.5,3.1,1.6,4.1,2.6,1.5,4.5,1.5,3.4-.5,4.5-1.4,1.6-2.4,1.6-4h0Z" fill="#c9d1d9"/>
    </g>
    <g>
      <path d="m569.5,139.9c0,2.9-1.2,5.2-3.4,6.8s-5.5,2.4-9.6,2.4-7.3-.8-9.6-2.4-3.4-3.9-3.4-6.8,1.2-5.2,3.4-6.8,5.5-2.4,9.6-2.4,7.3.8,9.6,2.4,3.4,3.9,3.4,6.8Zm-2.5,0c0-1.9-.9-3.4-2.7-4.4s-4.4-1.5-7.9-1.5-6.1.5-7.9,1.5-2.7,2.5-2.7,4.4.9,3.4,2.7,4.4,4.4,1.5,7.9,1.5,6.1-.5,7.9-1.5,2.7-2.4,2.7-4.4Z" fill="#c9d1d9"/>
      <path d="m569.5,125c0,.8-.3,1.4-.8,1.9s-1.2.8-1.9.8-1.4-.3-1.9-.8-.8-1.2-.8-1.9.3-1.4.8-1.9,1.2-.8,1.9-.8,1.4.3,1.9.8.8,1.2.8,1.9Z" fill="#c9d1d9"/>
      <path d="m569.5,110.1c0,2.9-1.2,5.2-3.4,6.8s-5.5,2.4-9.6,2.4-7.3-.8-9.6-2.4-3.4-3.9-3.4-6.8,1.2-5.2,3.4-6.8,5.5-2.4,9.6-2.4,7.3.8,9.6,2.4,3.4,3.8,3.4,6.8Zm-2.5,0c0-1.9-.9-3.4-2.7-4.4s-4.4-1.5-7.9-1.5-6.1.5-7.9,1.5-2.7,2.5-2.7,4.4.9,3.4,2.7,4.4,4.4,1.5,7.9,1.5,6.1-.5,7.9-1.5,2.7-2.5,2.7-4.4Z" fill="#c9d1d9"/>
      <path d="m569.5,87.2c0,2.9-1.2,5.2-3.4,6.8s-5.5,2.4-9.6,2.4-7.3-.8-9.6-2.4-3.4-3.9-3.4-6.8,1.2-5.2,3.4-6.8,5.5-2.4,9.6-2.4,7.3.8,9.6,2.4,3.4,3.9,3.4,6.8Zm-2.5,0c0-1.9-.9-3.4-2.7-4.4s-4.4-1.5-7.9-1.5-6.1.5-7.9,1.5-2.7,2.5-2.7,4.4.9,3.4,2.7,4.4,4.4,1.5,7.9,1.5,6.1-.5,7.9-1.5,2.7-2.4,2.7-4.4Z" fill="#c9d1d9"/>
      <path d="m569.5,64.4c0,2.9-1.2,5.2-3.4,6.8s-5.5,2.4-9.6,2.4-7.3-.8-9.6-2.4-3.4-3.9-3.4-6.8,1.2-5.2,3.4-6.8,5.5-2.4,9.6-2.4,7.3.8,9.6,2.4,3.4,3.9,3.4,6.8Zm-2.5,0c0-2-.9-3.4-2.7-4.4s-4.4-1.5-7.9-1.5-6.1.5-7.9,1.5-2.7,2.5-2.7,4.4.9,3.4,2.7,4.4,4.4,1.5,7.9,1.5,6.1-.5,7.9-1.5,2.7-2.4,2.7-4.4Z" fill="#c9d1d9"/>
      <path d="m569.5,41.6c0,2.9-1.2,5.2-3.4,6.8s-5.5,2.4-9.6,2.4-7.3-.8-9.6-2.4-3.4-3.9-3.4-6.8,1.2-5.2,3.4-6.8,5.5-2.4,9.6-2.4,7.3.8,9.6,2.4,3.4,3.9,3.4,6.8Zm-2.5,0c0-2-.9-3.4-2.7-4.4s-4.4-1.5-7.9-1.5-6.1.5-7.9,1.5-2.7,2.5-2.7,4.4.9,3.4,2.7,4.4,4.4,1.5,7.9,1.5,6.1-.5,7.9-1.5,2.7-2.4,2.7-4.4Z" fill="#c9d1d9"/>
      <path d="m569.5,18.8c0,2.9-1.2,5.2-3.4,6.8s-5.5,2.4-9.6,2.4-7.3-.8-9.6-2.4-3.4-3.9-3.4-6.8,1.2-5.2,3.4-6.8,5.5-2.4,9.6-2.4,7.3.8,9.6,2.4,3.4,3.9,3.4,6.8Zm-2.5,0c0-2-.9-3.4-2.7-4.4s-4.4-1.5-7.9-1.5-6.1.5-7.9,1.5-2.7,2.5-2.7,4.4.9,3.4,2.7,4.4,4.4,1.5,7.9,1.5,6.1-.5,7.9-1.5,2.7-2.5,2.7-4.4Z" fill="#c9d1d9"/>
    </g>
    <g>
      <path d="m929.5,139.9c0,2.9-1.2,5.2-3.4,6.8s-5.5,2.4-9.6,2.4-7.3-.8-9.6-2.4-3.4-3.9-3.4-6.8,1.2-5.2,3.4-6.8,5.5-2.4,9.6-2.4,7.3.8,9.6,2.4,3.4,3.9,3.4,6.8Zm-2.5,0c0-1.9-.9-3.4-2.7-4.4s-4.4-1.5-7.9-1.5-6.1.5-7.9,1.5-2.7,2.5-2.7,4.4.9,3.4,2.7,4.4,4.4,1.5,7.9,1.5,6.1-.5,7.9-1.5,2.7-2.4,2.7-4.4Z" fill="#c9d1d9"/>
      <path d="m929.5,125c0,.8-.3,1.4-.8,1.9s-1.2.8-1.9.8-1.4-.3-1.9-.8-.8-1.2-.8-1.9.3-1.4.8-1.9,1.2-.8,1.9-.8,1.4.3,1.9.8.8,1.2.8,1.9Z" fill="#c9d1d9"/>
      <path d="m929.5,110.1c0,2.9-1.2,5.2-3.4,6.8s-5.5,2.4-9.6,2.4-7.3-.8-9.6-2.4-3.4-3.9-3.4-6.8,1.2-5.2,3.4-6.8,5.5-2.4,9.6-2.4,7.3.8,9.6,2.4,3.4,3.8,3.4,6.8Zm-2.5,0c0-1.9-.9-3.4-2.7-4.4s-4.4-1.5-7.9-1.5-6.1.5-7.9,1.5-2.7,2.5-2.7,4.4.9,3.4,2.7,4.4,4.4,1.5,7.9,1.5,6.1-.5,7.9-1.5,2.7-2.5,2.7-4.4Z" fill="#c9d1d9"/>
      <path d="m929.5,87.2c0,2.9-1.2,5.2-3.4,6.8s-5.5,2.4-9.6,2.4-7.3-.8-9.6-2.4-3.4-3.9-3.4-6.8,1.2-5.2,3.4-6.8,5.5-2.4,9.6-2.4,7.3.8,9.6,2.4,3.4,3.9,3.4,6.8Zm-2.5,0c0-1.9-.9-3.4-2.7-4.4s-4.4-1.5-7.9-1.5-6.1.5-7.9,1.5-2.7,2.5-2.7,4.4.9,3.4,2.7,4.4,4.4,1.5,7.9,1.5,6.1-.5,7.9-1.5,2.7-2.4,2.7-4.4Z" fill="#c9d1d9"/>
      <path d="m929.5,64.4c0,2.9-1.2,5.2-3.4,6.8s-5.5,2.4-9.6,2.4-7.3-.8-9.6-2.4-3.4-3.9-3.4-6.8,1.2-5.2,3.4-6.8,5.5-2.4,9.6-2.4,7.3.8,9.6,2.4,3.4,3.9,3.4,6.8Zm-2.5,0c0-2-.9-3.4-2.7-4.4s-4.4-1.5-7.9-1.5-6.1.5-7.9,1.5-2.7,2.5-2.7,4.4.9,3.4,2.7,4.4,4.4,1.5,7.9,1.5,6.1-.5,7.9-1.5,2.7-2.4,2.7-4.4Z" fill="#c9d1d9"/>
      <path d="m929.5,41.6c0,2.9-1.2,5.2-3.4,6.8s-5.5,2.4-9.6,2.4-7.3-.8-9.6-2.4-3.4-3.9-3.4-6.8,1.2-5.2,3.4-6.8,5.5-2.4,9.6-2.4,7.3.8,9.6,2.4,3.4,3.9,3.4,6.8Zm-2.5,0c0-2-.9-3.4-2.7-4.4s-4.4-1.5-7.9-1.5-6.1.5-7.9,1.5-2.7,2.5-2.7,4.4.9,3.4,2.7,4.4,4.4,1.5,7.9,1.5,6.1-.5,7.9-1.5,2.7-2.4,2.7-4.4Z" fill="#c9d1d9"/>
      <path d="m929.5,18.8c0,2.9-1.2,5.2-3.4,6.8s-5.5,2.4-9.6,2.4-7.3-.8-9.6-2.4-3.4-3.9-3.4-6.8,1.2-5.2,3.4-6.8,5.5-2.4,9.6-2.4,7.3.8,9.6,2.4,3.4,3.9,3.4,6.8Zm-2.5,0c0-2-.9-3.4-2.7-4.4s-4.4-1.5-7.9-1.5-6.1.5-7.9,1.5-2.7,2.5-2.7,4.4.9,3.4,2.7,4.4,4.4,1.5,7.9,1.5,6.1-.5,7.9-1.5,2.7-2.5,2.7-4.4Z" fill="#c9d1d9"/>
    </g>
    <g>
      <path d="m71,241.5v-20.2c-.9.8-1.8,1.5-2.6,2s-1.7,1-2.7,1.4v-3c.5-.2,1.1-.6,1.6-.9s1.2-.9,2-1.6,1.6-1.7,2.5-3h2.3v25.3h-3.1Z" fill="#c9d1d9"/>
      <path d="m82,241.9c-.8,0-1.4-.3-1.9-.8s-.8-1.1-.8-1.9.3-1.4.8-1.9,1.2-.8,1.9-.8,1.4.3,1.9.8.8,1.1.8,1.9-.3,1.4-.8,1.9-1.1.8-1.9.8Z" fill="#c9d1d9"/>
      <path d="m97,241.9c-2.9,0-5.2-1.1-6.8-3.4s-2.4-5.5-2.4-9.6.8-7.4,2.4-9.6,3.9-3.4,6.8-3.4,5.2,1.1,6.8,3.4,2.4,5.5,2.4,9.6-.8,7.4-2.4,9.6-3.9,3.4-6.8,3.4Zm0-2.5c1.9,0,3.4-.9,4.4-2.7s1.5-4.4,1.5-7.9-.5-6.1-1.5-7.9-2.5-2.7-4.4-2.7-3.4.9-4.4,2.7-1.5,4.4-1.5,7.9.5,6.1,1.5,7.9,2.5,2.7,4.4,2.7Z" fill="#c9d1d9"/>
    </g>
    <g>
      <path d="m52.6,447.8v-2.8h11.8v2.7c0,.1-11.8.1-11.8.1Z" fill="#c9d1d9"/>
      <path d="m71,457.5v-20.2c-.9.8-1.8,1.5-2.6,2s-1.7,1-2.7,1.4v-3c.5-.2,1.1-.5,1.6-.9s1.2-.9,2-1.6,1.6-1.7,2.5-3h2.3v25.3h-3.1Z" fill="#c9d1d9"/>
      <path d="m82,457.9c-.8,0-1.4-.3-1.9-.8s-.8-1.1-.8-1.9.3-1.4.8-1.9,1.2-.8,1.9-.8,1.4.3,1.9.8.8,1.1.8,1.9-.3,1.4-.8,1.9-1.1.8-1.9.8Z" fill="#c9d1d9"/>
      <path d="m97,457.9c-2.9,0-5.2-1.1-6.8-3.4s-2.4-5.5-2.4-9.6.8-7.4,2.4-9.6,3.9-3.4,6.8-3.4,5.2,1.1,6.8,3.4,2.4,5.5,2.4,9.6-.8,7.4-2.4,9.6-3.9,3.4-6.8,3.4Zm0-2.5c1.9,0,3.4-.9,4.4-2.7s1.5-4.4,1.5-7.9-.5-6.1-1.5-7.9-2.5-2.7-4.4-2.7-3.4.9-4.4,2.7-1.5,4.4-1.5,7.9.5,6.1,1.5,7.9,2.5,2.7,4.4,2.7Z" fill="#c9d1d9"/>
    </g>
    <g>
      <path d="m67.1,349.9c-2.9,0-5.2-1.1-6.8-3.4s-2.4-5.5-2.4-9.6.8-7.4,2.4-9.6,3.9-3.4,6.8-3.4,5.2,1.1,6.8,3.4,2.4,5.5,2.4,9.6-.8,7.4-2.4,9.6-3.8,3.4-6.8,3.4Zm0-2.5c1.9,0,3.4-.9,4.4-2.7s1.5-4.4,1.5-7.9-.5-6.1-1.5-7.9-2.5-2.7-4.4-2.7-3.4.9-4.4,2.7-1.5,4.4-1.5,7.9.5,6.1,1.5,7.9,2.5,2.7,4.4,2.7Z" fill="#c9d1d9"/>
      <path d="m82,349.9c-.8,0-1.4-.3-1.9-.8s-.8-1.1-.8-1.9.3-1.4.8-1.9,1.2-.8,1.9-.8,1.4.3,1.9.8.8,1.1.8,1.9-.3,1.4-.8,1.9-1.1.8-1.9.8Z" fill="#c9d1d9"/>
      <path d="m97,349.9c-2.9,0-5.2-1.1-6.8-3.4s-2.4-5.5-2.4-9.6.8-7.4,2.4-9.6,3.9-3.4,6.8-3.4,5.2,1.1,6.8,3.4,2.4,5.5,2.4,9.6-.8,7.4-2.4,9.6-3.9,3.4-6.8,3.4Zm0-2.5c1.9,0,3.4-.9,4.4-2.7s1.5-4.4,1.5-7.9-.5-6.1-1.5-7.9-2.5-2.7-4.4-2.7-3.4.9-4.4,2.7-1.5,4.4-1.5,7.9.5,6.1,1.5,7.9,2.5,2.7,4.4,2.7Z" fill="#c9d1d9"/>
    </g>
    <g>
      <path d="m32.4,423.6l-25.3-10.7v-3.2l25.3-10.6v3.4l-22,8.9,22,8.9v3.3h0Zm-8.3-5.5h-2.6v-13.5h2.6v13.5Z" fill="#c9d1d9"/>
      <path d="m32.4,395.9H13.4v-2.8h3.2c-1-.5-1.8-1.2-2.6-2.2s-1.1-2.3-1.1-3.7c0-1.2.3-2.4,1-3.3s1.7-1.6,2.9-2.1c-1.2-.6-2.1-1.4-2.8-2.5s-1.1-2.2-1.1-3.6c0-1.8.7-3.2,2-4.3s3.1-1.6,5.5-1.6h11.9v3h-11.6c-1.1,0-2,.1-2.8.3s-1.4.6-1.8,1.1-.6,1.2-.6,2.1c0,1,.3,1.8.8,2.6.6.8,1.3,1.4,2.4,1.8s2.3.7,3.8.7h9.9v3h-11.7c-1.1,0-2,.1-2.8.3s-1.4.6-1.8,1.1-.6,1.2-.6,2.1c0,1,.3,1.8.8,2.6.5.8,1.3,1.4,2.4,1.8s2.3.7,3.8.7h9.9v2.9h0Z" fill="#c9d1d9"/>
      <path d="m39.3,364.5H13.4v-2.8h4l-.3.1c-1.4-.5-2.4-1.4-3.1-2.6s-1-2.5-1-3.8c0-1.5.4-2.9,1.2-4.1s2-2.1,3.4-2.7,3.2-1,5.3-1,3.8.3,5.3,1,2.6,1.6,3.4,2.8c.8,1.2,1.2,2.5,1.2,4.1,0,1.2-.3,2.5-.9,3.7s-1.7,2.1-3.1,2.8l-.1-.3h10.6c0-.1,0,2.8,0,2.8Zm-8.9-8.3c0-1.6-.6-2.9-1.9-3.9s-3.1-1.5-5.6-1.5-4.2.5-5.5,1.5-1.9,2.3-1.9,3.9c0,1,.3,1.9.8,2.7.5.8,1.3,1.5,2.4,2s2.5.7,4.2.7c2.5,0,4.4-.5,5.7-1.6s1.8-2.3,1.8-3.8h0Z" fill="#c9d1d9"/>
      <path d="m32.4,340.4c0,.8-.2,1.4-.8,2s-1.1.8-1.9.8H6v-3h23c.4,0,.6-.1.8-.2s.2-.4.2-.7v-1.9h2.5l-.1,3h0Z" fill="#c9d1d9"/>
      <path d="m10.2,332.2c0,.7-.2,1.3-.7,1.7s-1.1.7-1.7.7-1.3-.2-1.8-.7-.7-1.1-.7-1.7.2-1.3.7-1.8,1.1-.7,1.8-.7,1.3.2,1.7.7.7,1.1.7,1.8Zm22.2,1.4H13.4v-3h19v3Z" fill="#c9d1d9"/>
      <path d="m32.4,320.7c0,.8-.2,1.4-.8,2s-1.1.8-1.9.8h-13.8v3.1h-2.5v-3.1h-4l-.6-3h4.6v-3.8h2.5v3.8h13.1c.4,0,.6-.1.8-.2s.2-.4.2-.7v-2.9h2.5c-.1.1-.1,4-.1,4Z" fill="#c9d1d9"/>
      <path d="m32.8,306.5c0,1.3-.3,2.5-.9,3.5s-1.5,1.7-2.6,2.2-2.4.8-4,.8h-11.9v-3h11.7c1.5,0,2.8-.3,3.8-.9s1.5-1.6,1.5-3.2c0-1.1-.3-2.1-.9-3s-1.5-1.5-2.6-1.9-2.6-.7-4.4-.7h-9v-3h19v2.8h-4.5l.8-.1c1.2.5,2.1,1.3,2.9,2.4.7,1.2,1.1,2.6,1.1,4.1h0Z" fill="#c9d1d9"/>
      <path d="m32.8,285.3c0,1.5-.4,2.9-1.2,4.1s-2,2.1-3.5,2.8-3.2,1-5.3,1-3.8-.3-5.3-1-2.6-1.6-3.4-2.8-1.2-2.5-1.2-4.1c0-1.2.3-2.5.9-3.7s1.7-2.1,3.2-2.8l.1.3H6v-3h26.4v2.8h-4l.3-.1c1.4.5,2.4,1.4,3.1,2.6.7,1.3,1,2.6,1,3.9h0Zm-2.4-.8c0-1-.3-1.9-.8-2.7s-1.3-1.5-2.4-2-2.5-.7-4.2-.7c-2.5,0-4.4.5-5.7,1.6s-1.8,2.3-1.8,3.8c0,1.6.6,2.9,1.9,3.9s3.1,1.5,5.6,1.5,4.2-.5,5.5-1.5,1.9-2.2,1.9-3.9h0Z" fill="#c9d1d9"/>
      <path d="m32.8,262.9c0,1.8-.4,3.4-1.2,4.7s-2,2.3-3.4,3-3.2,1.1-5.2,1.1-3.8-.4-5.3-1.1-2.6-1.7-3.4-3-1.3-2.8-1.3-4.6c0-1,.2-2,.5-3s.9-1.9,1.7-2.8,1.9-1.5,3.2-2,3.1-.8,5.2-.8v15.4h-2.4v-12.8l1.1.8c-1.7.1-3,.3-4,.8s-1.7,1.1-2.2,1.9-.7,1.6-.7,2.6c0,1.1.3,2.1.9,2.9s1.4,1.4,2.5,1.9,2.5.6,4.1.6c2.4,0,4.2-.5,5.5-1.5s1.9-2.3,1.9-4.1c0-1.3-.3-2.4-1-3.2s-1.6-1.5-2.8-1.9l1-2.9c1.1.5,2,1.1,2.8,1.8s1.4,1.7,1.8,2.7c.5,1,.7,2.2.7,3.5h0Z" fill="#c9d1d9"/>
    </g>
    <g>
      <path d="m526,504v-22.7h-9v-2.6h21.3v2.6h-9.1v22.7h-3.2Z" fill="#c9d1d9"/>
      <path d="m543.2,481.8c-.7,0-1.3-.2-1.7-.7s-.7-1.1-.7-1.7.2-1.3.7-1.8,1.1-.7,1.7-.7,1.3.2,1.8.7.7,1.1.7,1.8-.2,1.3-.7,1.7-1.1.7-1.8.7Zm-1.5,22.2v-19h3v19h-3Z" fill="#c9d1d9"/>
      <path d="m550.4,504v-19h2.8v3.2c.5-1,1.2-1.8,2.2-2.6s2.3-1.1,3.7-1.1c1.2,0,2.3.3,3.3,1s1.6,1.7,2.1,2.9c.6-1.2,1.4-2.1,2.5-2.8s2.2-1.1,3.6-1.1c1.8,0,3.2.7,4.3,2s1.6,3.1,1.6,5.5v12h-3v-11.7c0-1.1-.1-2-.3-2.8s-.6-1.4-1.1-1.8-1.2-.6-2.1-.6c-1,0-1.8.3-2.6.8s-1.4,1.3-1.8,2.4-.7,2.3-.7,3.8v9.9h-3v-11.7c0-1.1-.1-2-.3-2.8s-.6-1.4-1.1-1.8-1.2-.6-2.1-.6c-1,0-1.8.3-2.6.8s-1.4,1.3-1.8,2.4-.7,2.3-.7,3.8v9.9h-2.9Z" fill="#c9d1d9"/>
      <path d="m589.5,504.4c-1.8,0-3.4-.4-4.7-1.2s-2.3-2-3-3.4-1.1-3.2-1.1-5.2.4-3.8,1.1-5.3,1.7-2.6,3-3.5,2.8-1.2,4.6-1.2c1,0,2,.2,3,.5s1.9.9,2.8,1.7,1.5,1.9,2,3.2.8,3.1.8,5.2h-15.4v-2.4h12.8l-.8,1.1c-.1-1.7-.3-3-.8-4s-1.1-1.7-1.9-2.2-1.6-.7-2.6-.7c-1.1,0-2.1.3-2.9.9s-1.4,1.4-1.9,2.5-.7,2.5-.7,4.1c0,2.4.5,4.2,1.5,5.5s2.3,1.9,4.1,1.9c1.3,0,2.3-.3,3.2-1s1.5-1.6,1.9-2.8l2.9,1c-.5,1.1-1.1,2-1.8,2.8s-1.7,1.4-2.7,1.8-2.1.7-3.4.7h0Z" fill="#c9d1d9"/>
    </g>
  </g>
  <g id="Ebene_5" data-name="Ebene 5">
    <circle cx="198" cy="338.4" r="3.6" fill="none" stroke="#307eef" stroke-miterlimit="10" stroke-width="5.67"/>
    <circle cx="270" cy="274.7" r="3.6" fill="none" stroke="#307eef" stroke-miterlimit="10" stroke-width="5.67"/>
    <circle cx="342" cy="235.7" r="3.6" fill="none" stroke="#307eef" stroke-miterlimit="10" stroke-width="5.67"/>
    <circle cx="414" cy="235.7" r="3.6" fill="none" stroke="#307eef" stroke-miterlimit="10" stroke-width="5.67"/>
    <circle cx="486" cy="274.7" r="3.6" fill="none" stroke="#307eef" stroke-miterlimit="10" stroke-width="5.67"/>
    <g>
      <circle cx="918" cy="338.4" r="3.6" fill="none" stroke="#307eef" stroke-miterlimit="10" stroke-width="5.67"/>
      <circle cx="846" cy="402.1" r="3.6" fill="none" stroke="#307eef" stroke-miterlimit="10" stroke-width="5.67"/>
      <circle cx="774" cy="441.1" r="3.6" fill="none" stroke="#307eef" stroke-miterlimit="10" stroke-width="5.67"/>
      <circle cx="702" cy="441.1" r="3.6" fill="none" stroke="#307eef" stroke-miterlimit="10" stroke-width="5.67"/>
      <circle cx="630" cy="402.1" r="3.6" fill="none" stroke="#307eef" stroke-miterlimit="10" stroke-width="5.67"/>
      <circle cx="558" cy="338.4" r="3.6" fill="none" stroke="#307eef" stroke-miterlimit="10" stroke-width="5.67"/>
    </g>
  </g>
  <g opacity=".5">
    <path d="m378,230.5c-65.3,0-122.9,54-180,107.9" fill="none" stroke="#307eef" stroke-linecap="round" stroke-width="2.836"/>
    <path d="m558,338.4c-57.1-54-114.7-107.9-180-107.9" fill="none" stroke="#307eef" stroke-linecap="round" stroke-width="2.836"/>
    <path d="m738,446.3c65.3,0,122.9-54,180-107.9" fill="none" stroke="#307eef" stroke-linecap="round" stroke-width="2.836"/>
    <path d="m558,338.4c57.1,54,114.7,107.9,180,107.9" fill="none" stroke="#307eef" stroke-linecap="round" stroke-width="2.836"/>
  </g>
</svg>