<?xml version="1.0" encoding="utf-8"?>
<!-- Generator: Adobe Illustrator 27.4.1, SVG Export Plug-In . SVG Version: 6.00 Build 0)  -->
<svg version="1.1" id="Ebene_1" xmlns="http://www.w3.org/2000/svg" xmlns:xlink="http://www.w3.org/1999/xlink" x="0px" y="0px"
	 viewBox="0 0 997.2 507.6" style="enable-background:new 0 0 997.2 507.6;" xml:space="preserve">
<style type="text/css">
	.st0{fill:none;stroke:#C9D1D9;}
	.st1{fill:none;stroke:#C9D1D9;stroke-width:0.43;stroke-miterlimit:10;}
	.st2{fill:none;stroke:#C9D1D9;stroke-width:0.43;stroke-miterlimit:10;stroke-dasharray:0,0,1.44,1.44;}
	.st3{fill:none;stroke:#C9D1D9;stroke-miterlimit:10;}
	.st4{fill:none;stroke:#C9D1D9;stroke-width:2.83;stroke-miterlimit:10;}
	.st5{fill:#C9D1D9;}
	.st6{fill:none;stroke:#307EEF;stroke-width:5.67;stroke-miterlimit:10;}
	.st7{opacity:0.5;}
	.st8{fill:none;stroke:#307EEF;stroke-width:2.8355;stroke-linecap:round;}
</style>
<polyline class="st0" points="147.6,446.3 125.6,446.3 125.6,230.5 147.6,230.5 "/>
<g>
	<line class="st1" x1="198" y1="230.5" x2="198" y2="231.2"/>
	<line class="st2" x1="198" y1="232.6" x2="198" y2="444.9"/>
	<line class="st1" x1="198" y1="445.6" x2="198" y2="446.3"/>
</g>
<g>
	<line class="st1" x1="270" y1="230.5" x2="270" y2="231.2"/>
	<line class="st2" x1="270" y1="232.6" x2="270" y2="444.9"/>
	<line class="st1" x1="270" y1="445.6" x2="270" y2="446.3"/>
</g>
<g>
	<line class="st1" x1="342" y1="230.5" x2="342" y2="231.2"/>
	<line class="st2" x1="342" y1="232.6" x2="342" y2="444.9"/>
	<line class="st1" x1="342" y1="445.6" x2="342" y2="446.3"/>
</g>
<g>
	<line class="st1" x1="414" y1="230.5" x2="414" y2="231.2"/>
	<line class="st2" x1="414" y1="232.6" x2="414" y2="444.9"/>
	<line class="st1" x1="414" y1="445.6" x2="414" y2="446.3"/>
</g>
<g>
	<line class="st1" x1="486" y1="230.5" x2="486" y2="231.2"/>
	<line class="st2" x1="486" y1="232.6" x2="486" y2="444.9"/>
	<line class="st1" x1="486" y1="445.6" x2="486" y2="446.3"/>
</g>
<g>
	<line class="st1" x1="558" y1="230.5" x2="558" y2="231.2"/>
	<line class="st2" x1="558" y1="232.6" x2="558" y2="444.9"/>
	<line class="st1" x1="558" y1="445.6" x2="558" y2="446.3"/>
</g>
<g>
	<line class="st1" x1="630" y1="230.5" x2="630" y2="231.2"/>
	<line class="st2" x1="630" y1="232.6" x2="630" y2="444.9"/>
	<line class="st1" x1="630" y1="445.6" x2="630" y2="446.3"/>
</g>
<g>
	<line class="st1" x1="702" y1="230.5" x2="702" y2="231.2"/>
	<line class="st2" x1="702" y1="232.6" x2="702" y2="444.9"/>
	<line class="st1" x1="702" y1="445.6" x2="702" y2="446.3"/>
</g>
<g>
	<line class="st1" x1="774" y1="230.5" x2="774" y2="231.3"/>
	<line class="st2" x1="774" y1="232.7" x2="774" y2="445"/>
	<line class="st1" x1="774" y1="445.7" x2="774" y2="446.4"/>
</g>
<g>
	<line class="st1" x1="846" y1="230.5" x2="846" y2="231.3"/>
	<line class="st2" x1="846" y1="232.7" x2="846" y2="445"/>
	<line class="st1" x1="846" y1="445.7" x2="846" y2="446.4"/>
</g>
<g>
	<line class="st1" x1="990" y1="230.4" x2="989.3" y2="230.4"/>
	<line class="st2" x1="987.8" y1="230.4" x2="127.1" y2="230.4"/>
	<line class="st1" x1="126.3" y1="230.4" x2="125.6" y2="230.4"/>
</g>
<g>
	<line class="st1" x1="990" y1="252" x2="989.3" y2="252"/>
	<line class="st2" x1="987.8" y1="252" x2="127.1" y2="252"/>
	<line class="st1" x1="126.3" y1="252" x2="125.6" y2="252"/>
</g>
<g>
	<line class="st1" x1="990" y1="316.8" x2="989.3" y2="316.8"/>
	<line class="st2" x1="987.8" y1="316.8" x2="127.1" y2="316.8"/>
	<line class="st1" x1="126.3" y1="316.8" x2="125.6" y2="316.8"/>
</g>
<line class="st3" x1="990" y1="338.4" x2="125.6" y2="338.4"/>
<g>
	<line class="st1" x1="990" y1="273.6" x2="989.3" y2="273.6"/>
	<line class="st2" x1="987.8" y1="273.6" x2="127.1" y2="273.6"/>
	<line class="st1" x1="126.3" y1="273.6" x2="125.6" y2="273.6"/>
</g>
<g>
	<line class="st1" x1="990" y1="295.2" x2="989.3" y2="295.2"/>
	<line class="st2" x1="987.8" y1="295.2" x2="127.1" y2="295.2"/>
	<line class="st1" x1="126.3" y1="295.2" x2="125.6" y2="295.2"/>
</g>
<g>
	<line class="st1" x1="990" y1="360" x2="989.3" y2="360"/>
	<line class="st2" x1="987.8" y1="360" x2="127.1" y2="360"/>
	<line class="st1" x1="126.3" y1="360" x2="125.6" y2="360"/>
</g>
<g>
	<line class="st1" x1="990" y1="381.6" x2="989.3" y2="381.6"/>
	<line class="st2" x1="987.8" y1="381.6" x2="127.1" y2="381.6"/>
	<line class="st1" x1="126.3" y1="381.6" x2="125.6" y2="381.6"/>
</g>
<g>
	<line class="st1" x1="990" y1="446.4" x2="989.3" y2="446.4"/>
	<line class="st2" x1="987.8" y1="446.4" x2="127.1" y2="446.4"/>
	<line class="st1" x1="126.3" y1="446.4" x2="125.6" y2="446.4"/>
</g>
<g>
	<line class="st1" x1="990" y1="403.2" x2="989.3" y2="403.2"/>
	<line class="st2" x1="987.8" y1="403.2" x2="127.1" y2="403.2"/>
	<line class="st1" x1="126.3" y1="403.2" x2="125.6" y2="403.2"/>
</g>
<g>
	<line class="st1" x1="990" y1="424.8" x2="989.3" y2="424.8"/>
	<line class="st2" x1="987.8" y1="424.8" x2="127.1" y2="424.8"/>
	<line class="st1" x1="126.3" y1="424.8" x2="125.6" y2="424.8"/>
</g>
<g>
	<line class="st1" x1="918" y1="230.4" x2="918" y2="231.1"/>
	<line class="st2" x1="918" y1="232.6" x2="918" y2="444.8"/>
	<line class="st1" x1="918" y1="445.5" x2="918" y2="446.3"/>
</g>
<g>
	<line class="st1" x1="990" y1="230.5" x2="990" y2="231.2"/>
	<line class="st2" x1="990" y1="232.6" x2="990" y2="444.9"/>
	<line class="st1" x1="990" y1="445.6" x2="990" y2="446.3"/>
</g>
<g id="linien">
	<g>
		<line class="st4" x1="198" y1="183.5" x2="198" y2="338.4"/>
		<polygon class="st5" points="189.8,189.1 198,158.4 206.2,189.1 		"/>
	</g>
	<g>
		<line class="st4" x1="270" y1="183.5" x2="270" y2="274.7"/>
		<polygon class="st5" points="261.8,189.1 270,158.4 278.2,189.1 		"/>
	</g>
	<g>
		<line class="st4" x1="342" y1="183.5" x2="342" y2="235.7"/>
		<polygon class="st5" points="333.8,189.1 342,158.4 350.2,189.1 		"/>
	</g>
	<g>
		<line class="st4" x1="414" y1="183.5" x2="414" y2="235.7"/>
		<polygon class="st5" points="405.8,189.1 414,158.4 422.2,189.1 		"/>
	</g>
	<g>
		<line class="st4" x1="486" y1="183.5" x2="486" y2="274.7"/>
		<polygon class="st5" points="477.8,189.1 486,158.4 494.2,189.1 		"/>
	</g>
	<g>
		<line class="st4" x1="558" y1="183.5" x2="558" y2="338.4"/>
		<polygon class="st5" points="549.8,189.1 558,158.4 566.2,189.1 		"/>
	</g>
	<g>
		<line class="st4" x1="630" y1="183.5" x2="630" y2="403.2"/>
		<polygon class="st5" points="621.8,189.1 630,158.4 638.2,189.1 		"/>
	</g>
	<g>
		<line class="st4" x1="702" y1="183.5" x2="702" y2="442.8"/>
		<polygon class="st5" points="693.8,189.1 702,158.4 710.2,189.1 		"/>
	</g>
	<g>
		<line class="st4" x1="774" y1="183.5" x2="774" y2="442.8"/>
		<polygon class="st5" points="765.8,189.1 774,158.4 782.2,189.1 		"/>
	</g>
	<g>
		<line class="st4" x1="846" y1="183.5" x2="846" y2="403.2"/>
		<polygon class="st5" points="837.8,189.1 846,158.4 854.2,189.1 		"/>
	</g>
	<g>
		<line class="st4" x1="918" y1="183.5" x2="918" y2="338.4"/>
		<polygon class="st5" points="909.8,189.1 918,158.4 926.2,189.1 		"/>
	</g>
</g>
<g id="text">
	<g>
		<path class="st5" d="M209.5,139.9c0,2.9-1.1,5.2-3.4,6.8s-5.5,2.4-9.6,2.4s-7.4-0.8-9.6-2.4s-3.4-3.9-3.4-6.8s1.1-5.2,3.4-6.8
			s5.5-2.4,9.6-2.4s7.4,0.8,9.6,2.4S209.5,137,209.5,139.9z M207,139.9c0-1.9-0.9-3.4-2.7-4.4s-4.4-1.5-7.9-1.5s-6.1,0.5-7.9,1.5
			s-2.7,2.5-2.7,4.4s0.9,3.4,2.7,4.4s4.4,1.5,7.9,1.5s6.1-0.5,7.9-1.5S207,141.9,207,139.9z"/>
		<path class="st5" d="M209.5,125c0,0.8-0.3,1.4-0.8,1.9s-1.1,0.8-1.9,0.8s-1.4-0.3-1.9-0.8s-0.8-1.2-0.8-1.9s0.3-1.4,0.8-1.9
			s1.1-0.8,1.9-0.8s1.4,0.3,1.9,0.8S209.5,124.3,209.5,125z"/>
		<path class="st5" d="M209.5,110.1c0,2.9-1.1,5.2-3.4,6.8s-5.5,2.4-9.6,2.4s-7.4-0.8-9.6-2.4s-3.4-3.9-3.4-6.8s1.1-5.2,3.4-6.8
			s5.5-2.4,9.6-2.4s7.4,0.8,9.6,2.4S209.5,107.1,209.5,110.1z M207,110.1c0-1.9-0.9-3.4-2.7-4.4s-4.4-1.5-7.9-1.5s-6.1,0.5-7.9,1.5
			s-2.7,2.5-2.7,4.4s0.9,3.4,2.7,4.4s4.4,1.5,7.9,1.5s6.1-0.5,7.9-1.5S207,112,207,110.1z"/>
		<path class="st5" d="M209.5,87.2c0,2.9-1.1,5.2-3.4,6.8s-5.5,2.4-9.6,2.4s-7.4-0.8-9.6-2.4s-3.4-3.9-3.4-6.8s1.1-5.2,3.4-6.8
			s5.5-2.4,9.6-2.4s7.4,0.8,9.6,2.4S209.5,84.3,209.5,87.2z M207,87.2c0-1.9-0.9-3.4-2.7-4.4s-4.4-1.5-7.9-1.5s-6.1,0.5-7.9,1.5
			s-2.7,2.5-2.7,4.4s0.9,3.4,2.7,4.4s4.4,1.5,7.9,1.5s6.1-0.5,7.9-1.5S207,89.2,207,87.2z"/>
		<path class="st5" d="M209.5,64.4c0,2.9-1.1,5.2-3.4,6.8s-5.5,2.4-9.6,2.4s-7.4-0.8-9.6-2.4s-3.4-3.9-3.4-6.8s1.1-5.2,3.4-6.8
			s5.5-2.4,9.6-2.4s7.4,0.8,9.6,2.4S209.5,61.5,209.5,64.4z M207,64.4c0-2-0.9-3.4-2.7-4.4s-4.4-1.5-7.9-1.5s-6.1,0.5-7.9,1.5
			s-2.7,2.5-2.7,4.4c0,1.9,0.9,3.4,2.7,4.4s4.4,1.5,7.9,1.5s6.1-0.5,7.9-1.5S207,66.4,207,64.4z"/>
		<path class="st5" d="M209.5,41.6c0,2.9-1.1,5.2-3.4,6.8s-5.5,2.4-9.6,2.4s-7.4-0.8-9.6-2.4s-3.4-3.9-3.4-6.8s1.1-5.2,3.4-6.8
			s5.5-2.4,9.6-2.4s7.4,0.8,9.6,2.4S209.5,38.7,209.5,41.6z M207,41.6c0-2-0.9-3.4-2.7-4.4s-4.4-1.5-7.9-1.5s-6.1,0.5-7.9,1.5
			s-2.7,2.5-2.7,4.4s0.9,3.4,2.7,4.4s4.4,1.5,7.9,1.5s6.1-0.5,7.9-1.5S207,43.6,207,41.6z"/>
		<path class="st5" d="M209.5,18.8c0,2.9-1.1,5.2-3.4,6.8s-5.5,2.4-9.6,2.4s-7.4-0.8-9.6-2.4s-3.4-3.9-3.4-6.8s1.1-5.2,3.4-6.8
			s5.5-2.4,9.6-2.4s7.4,0.8,9.6,2.4S209.5,15.9,209.5,18.8z M207,18.8c0-2-0.9-3.4-2.7-4.4s-4.4-1.5-7.9-1.5s-6.1,0.5-7.9,1.5
			s-2.7,2.5-2.7,4.4s0.9,3.4,2.7,4.4s4.4,1.5,7.9,1.5s6.1-0.5,7.9-1.5S207,20.7,207,18.8z"/>
	</g>
	<g>
		<path class="st5" d="M281.5,139.9c0,2.9-1.1,5.2-3.4,6.8s-5.5,2.4-9.6,2.4s-7.4-0.8-9.6-2.4s-3.4-3.9-3.4-6.8s1.1-5.2,3.4-6.8
			s5.5-2.4,9.6-2.4s7.4,0.8,9.6,2.4S281.5,137,281.5,139.9z M279,139.9c0-1.9-0.9-3.4-2.7-4.4s-4.4-1.5-7.9-1.5s-6.1,0.5-7.9,1.5
			s-2.7,2.5-2.7,4.4s0.9,3.4,2.7,4.4s4.4,1.5,7.9,1.5s6.1-0.5,7.9-1.5S279,141.9,279,139.9z"/>
		<path class="st5" d="M281.5,125c0,0.8-0.3,1.4-0.8,1.9s-1.1,0.8-1.9,0.8s-1.4-0.3-1.9-0.8s-0.8-1.2-0.8-1.9s0.3-1.4,0.8-1.9
			s1.1-0.8,1.9-0.8s1.4,0.3,1.9,0.8S281.5,124.3,281.5,125z"/>
		<path class="st5" d="M281.5,109.9c0,1.5-0.3,2.9-0.9,4.2s-1.5,2.4-2.6,3.3s-2.6,1.4-4.3,1.6l-1-3.2c1.8-0.1,3.3-0.7,4.5-1.6
			s1.8-2.3,1.8-4.2c0-1.1-0.3-2.1-0.8-3s-1.3-1.5-2.3-2s-2.1-0.7-3.3-0.7c-1.9,0-3.3,0.5-4.3,1.6s-1.5,2.4-1.5,4
			c0,1.4,0.4,2.5,1.1,3.3s1.5,1.4,2.4,1.8l-0.3,3.1l-14.1-1v-14.5h2.7v11.9l9.6,0.7l-0.1,0.9c-1.1-0.6-2-1.5-2.7-2.6
			s-1.1-2.5-1.1-4.1s0.4-2.9,1-4.2s1.7-2.2,2.9-2.9s2.7-1.1,4.4-1.1c1.8,0,3.4,0.4,4.8,1.2s2.4,1.9,3.1,3.2S281.5,108.3,281.5,109.9
			L281.5,109.9z"/>
		<path class="st5" d="M281.5,88.2c0,1.7-0.3,3.3-1,4.6s-1.5,2.4-2.7,3.2s-2.5,1.1-4,1.1c-1.6,0-3-0.5-4.3-1.4s-2.1-2.4-2.4-4.2
			c-0.2,1-0.6,1.8-1.1,2.6s-1.1,1.3-1.9,1.7s-1.5,0.6-2.5,0.6c-1.2,0-2.3-0.3-3.3-1s-1.7-1.6-2.3-2.8s-0.8-2.6-0.8-4.2
			s0.3-3,0.8-4.2c0.6-1.2,1.3-2.1,2.3-2.8s2.1-1,3.3-1c0.9,0,1.7,0.2,2.5,0.6s1.4,0.9,1.9,1.7s0.9,1.6,1.1,2.5
			c0.3-1.8,1.1-3.3,2.4-4.2s2.7-1.4,4.3-1.4c1.5,0,2.8,0.4,4,1.1s2,1.8,2.7,3.2S281.5,86.5,281.5,88.2z M266,88.2
			c0-1.5-0.4-2.7-1-3.6s-1.6-1.3-2.9-1.3s-2.3,0.4-3,1.3s-1.1,2.1-1.1,3.6s0.4,2.7,1.1,3.6s1.8,1.3,3,1.3s2.2-0.4,2.9-1.3
			S266,89.8,266,88.2z M278.7,88.2c0-1.8-0.5-3.1-1.4-4.1s-2.1-1.5-3.7-1.5s-2.8,0.5-3.7,1.5s-1.4,2.4-1.4,4.1s0.5,3.1,1.4,4.1
			s2.1,1.5,3.7,1.5s2.8-0.5,3.7-1.5S278.7,90,278.7,88.2z"/>
		<path class="st5" d="M281.1,74.1c-4.4-0.9-8.4-2.3-12-4s-7.2-4-10.6-6.6v14.1h-2.7V60.4h2.4c1.8,1.2,3.6,2.3,5.4,3.4
			s3.6,2,5.5,2.9s3.8,1.6,5.8,2.3s4.1,1.1,6.2,1.5V74.1L281.1,74.1z"/>
		<path class="st5" d="M281.1,54.5c-4.4-0.9-8.4-2.3-12-4s-7.2-4-10.6-6.6V58h-2.7V40.8h2.4c1.8,1.2,3.6,2.3,5.4,3.4s3.6,2,5.5,2.9
			s3.8,1.6,5.8,2.3s4.1,1.1,6.2,1.5V54.5L281.1,54.5z"/>
		<path class="st5" d="M281.5,29.5c0,1.7-0.3,3.2-1,4.4s-1.5,2.2-2.6,2.9s-2.1,1.1-3.1,1.2l-0.8-3.2c1.5-0.1,2.8-0.5,3.7-1.4
			s1.4-2.2,1.4-3.9c0-1.1-0.3-2.1-0.8-2.9s-1.2-1.3-2-1.8s-1.8-0.8-2.8-1s-2-0.4-3-0.4s-1.9-0.1-2.6-0.1l0.5-0.3
			c1.1,0.5,2.1,1.3,3,2.5s1.3,2.6,1.3,4.4c0,1.5-0.3,2.9-1,4.1s-1.7,2.2-3,3s-2.8,1.1-4.7,1.1s-3.3-0.4-4.6-1.1s-2.3-1.8-3-3.1
			s-1.1-2.9-1.1-4.6s0.3-3.2,1-4.3c0.7-1.2,1.6-2.1,2.8-2.8s2.6-1.2,4.1-1.5s3.2-0.5,4.9-0.5s3.4,0.2,5,0.5s3,0.9,4.3,1.6
			s2.2,1.7,3,2.9S281.5,27.8,281.5,29.5L281.5,29.5z M270.1,29.6c0-1.7-0.6-3.1-1.7-4.1s-2.7-1.6-4.6-1.6c-1.8,0-3.3,0.5-4.4,1.5
			s-1.6,2.3-1.6,4s0.5,3.1,1.6,4.1s2.6,1.5,4.5,1.5s3.4-0.5,4.5-1.4S270.1,31.2,270.1,29.6L270.1,29.6z"/>
	</g>
	<g>
		<path class="st5" d="M353.5,139.9c0,2.9-1.1,5.2-3.4,6.8s-5.5,2.4-9.6,2.4s-7.4-0.8-9.6-2.4s-3.4-3.9-3.4-6.8s1.1-5.2,3.4-6.8
			s5.5-2.4,9.6-2.4s7.4,0.8,9.6,2.4S353.5,137,353.5,139.9z M351,139.9c0-1.9-0.9-3.4-2.7-4.4s-4.4-1.5-7.9-1.5s-6.1,0.5-7.9,1.5
			s-2.7,2.5-2.7,4.4s0.9,3.4,2.7,4.4s4.4,1.5,7.9,1.5s6.1-0.5,7.9-1.5S351,141.9,351,139.9z"/>
		<path class="st5" d="M353.5,125c0,0.8-0.3,1.4-0.8,1.9s-1.1,0.8-1.9,0.8s-1.4-0.3-1.9-0.8s-0.8-1.2-0.8-1.9s0.3-1.4,0.8-1.9
			s1.1-0.8,1.9-0.8s1.4,0.3,1.9,0.8S353.5,124.3,353.5,125z"/>
		<path class="st5" d="M353.5,110.2c0,1.7-0.3,3.2-1,4.4s-1.5,2.2-2.6,2.9s-2.1,1.1-3.1,1.2l-0.8-3.2c1.5-0.1,2.8-0.5,3.7-1.4
			s1.4-2.2,1.4-3.9c0-1.2-0.3-2.1-0.8-2.8s-1.2-1.3-2-1.8s-1.8-0.8-2.8-1s-2-0.3-3-0.4s-1.9-0.1-2.6-0.1l0.5-0.3
			c1.1,0.5,2.1,1.3,3,2.4s1.3,2.6,1.3,4.4c0,1.5-0.3,2.9-1,4.1s-1.7,2.2-3,3s-2.8,1.1-4.7,1.1s-3.3-0.4-4.6-1.1s-2.3-1.8-3-3.1
			s-1-2.8-1-4.6s0.3-3.2,1-4.3s1.6-2.1,2.8-2.8s2.6-1.2,4.1-1.5s3.2-0.5,4.9-0.5s3.4,0.2,5,0.5s3,0.9,4.3,1.6s2.2,1.7,3,2.9
			S353.5,108.5,353.5,110.2L353.5,110.2z M342.1,110.3c0-1.7-0.6-3.1-1.7-4.1s-2.7-1.6-4.6-1.6c-1.8,0-3.3,0.5-4.4,1.5
			s-1.6,2.3-1.6,4s0.5,3.1,1.6,4.1s2.6,1.5,4.5,1.5s3.4-0.5,4.5-1.4S342.1,111.9,342.1,110.3L342.1,110.3z"/>
		<path class="st5" d="M353.5,87.8c0,1.5-0.3,2.9-0.9,4.2s-1.5,2.4-2.6,3.3s-2.6,1.4-4.3,1.6l-1-3.2c1.8-0.1,3.3-0.7,4.5-1.6
			s1.8-2.3,1.8-4.2c0-1.1-0.3-2.1-0.8-3s-1.3-1.5-2.3-2s-2.1-0.7-3.3-0.7c-1.9,0-3.3,0.5-4.3,1.6s-1.5,2.4-1.5,4
			c0,1.4,0.4,2.5,1.1,3.3s1.5,1.4,2.4,1.8l-0.3,3.1l-14.1-1V80.5h2.7v11.9L340,93l-0.1,0.9c-1.1-0.6-2-1.5-2.7-2.6s-1.1-2.5-1.1-4.1
			s0.4-2.9,1-4.2s1.7-2.2,2.9-2.9s2.7-1.1,4.4-1.1c1.8,0,3.4,0.4,4.8,1.2s2.4,1.9,3.1,3.2S353.5,86.3,353.5,87.8L353.5,87.8z"/>
		<path class="st5" d="M353.1,72.3h-20.2c0.8,0.9,1.5,1.8,2,2.6s1,1.7,1.4,2.7h-3c-0.2-0.5-0.5-1.1-0.9-1.6s-0.9-1.2-1.6-2
			s-1.7-1.6-3-2.5v-2.3h25.3V72.3z"/>
		<path class="st5" d="M353.5,55.3c0,2.9-1.1,5.2-3.4,6.8s-5.5,2.4-9.6,2.4s-7.4-0.8-9.6-2.4s-3.4-3.9-3.4-6.8s1.1-5.2,3.4-6.8
			s5.5-2.4,9.6-2.4s7.4,0.8,9.6,2.4S353.5,52.3,353.5,55.3z M351,55.3c0-2-0.9-3.4-2.7-4.4s-4.4-1.5-7.9-1.5s-6.1,0.5-7.9,1.5
			s-2.7,2.5-2.7,4.4s0.9,3.4,2.7,4.4s4.4,1.5,7.9,1.5s6.1-0.5,7.9-1.5S351,57.2,351,55.3z"/>
		<path class="st5" d="M353.5,32.4c0,3.1-1.1,5.4-3.4,7s-5.3,2.4-9.2,2.4c-1.9,0-3.7-0.2-5.3-0.6s-3.1-1-4.3-1.8s-2.2-1.8-2.9-3
			s-1-2.6-1-4.2s0.3-3.1,1-4.3s1.5-2.2,2.6-2.9s2.1-1.1,3.1-1.2l0.8,3.2c-1.5,0.1-2.7,0.6-3.7,1.5s-1.4,2.1-1.4,3.7
			c0,1.2,0.3,2.2,0.8,3s1.2,1.4,2,1.9s1.8,0.8,2.8,1.1s2,0.4,3,0.5s1.9,0.1,2.6,0.1l-0.3,0.3c-1.1-0.5-2.2-1.3-3.1-2.5
			s-1.3-2.6-1.3-4.5c0-1.5,0.3-2.8,1-4.1s1.6-2.2,2.9-3s2.8-1.1,4.6-1.1s3.2,0.4,4.5,1.1s2.3,1.7,3,3S353.5,30.7,353.5,32.4
			L353.5,32.4z M351,32.4c0-1.7-0.5-3.1-1.6-4s-2.6-1.4-4.4-1.4s-3.4,0.5-4.4,1.4s-1.6,2.2-1.6,3.9s0.5,3.1,1.6,4.1s2.6,1.6,4.4,1.6
			s3.3-0.5,4.4-1.5S351,34.1,351,32.4L351,32.4z"/>
	</g>
	<g>
		<path class="st5" d="M425.5,139.9c0,2.9-1.1,5.2-3.4,6.8s-5.5,2.4-9.6,2.4s-7.4-0.8-9.6-2.4s-3.4-3.9-3.4-6.8s1.1-5.2,3.4-6.8
			s5.5-2.4,9.6-2.4s7.4,0.8,9.6,2.4S425.5,137,425.5,139.9z M423,139.9c0-1.9-0.9-3.4-2.7-4.4s-4.4-1.5-7.9-1.5s-6.1,0.5-7.9,1.5
			s-2.7,2.5-2.7,4.4s0.9,3.4,2.7,4.4s4.4,1.5,7.9,1.5s6.1-0.5,7.9-1.5S423,141.9,423,139.9z"/>
		<path class="st5" d="M425.5,125c0,0.8-0.3,1.4-0.8,1.9s-1.1,0.8-1.9,0.8s-1.4-0.3-1.9-0.8s-0.8-1.2-0.8-1.9s0.3-1.4,0.8-1.9
			s1.1-0.8,1.9-0.8s1.4,0.3,1.9,0.8S425.5,124.3,425.5,125z"/>
		<path class="st5" d="M425.5,110.2c0,1.7-0.3,3.2-1,4.4s-1.5,2.2-2.6,2.9s-2.1,1.1-3.1,1.2l-0.8-3.2c1.5-0.1,2.8-0.5,3.7-1.4
			s1.4-2.2,1.4-3.9c0-1.2-0.3-2.1-0.8-2.8s-1.2-1.3-2-1.8s-1.8-0.8-2.8-1s-2-0.3-3-0.4s-1.9-0.1-2.6-0.1l0.5-0.3
			c1.1,0.5,2.1,1.3,3,2.4s1.3,2.6,1.3,4.4c0,1.5-0.3,2.9-1,4.1s-1.7,2.2-3,3s-2.8,1.1-4.7,1.1s-3.3-0.4-4.6-1.1s-2.3-1.8-3-3.1
			s-1-2.8-1-4.6s0.3-3.2,1-4.3s1.6-2.1,2.8-2.8s2.6-1.2,4.1-1.5s3.2-0.5,4.9-0.5s3.4,0.2,5,0.5s3,0.9,4.3,1.6s2.2,1.7,3,2.9
			S425.5,108.5,425.5,110.2L425.5,110.2z M414.1,110.3c0-1.7-0.6-3.1-1.7-4.1s-2.7-1.6-4.6-1.6c-1.8,0-3.3,0.5-4.4,1.5
			s-1.6,2.3-1.6,4s0.5,3.1,1.6,4.1s2.6,1.5,4.5,1.5s3.4-0.5,4.5-1.4S414.1,111.9,414.1,110.3L414.1,110.3z"/>
		<path class="st5" d="M425.5,87.8c0,1.5-0.3,2.9-0.9,4.2s-1.5,2.4-2.6,3.3s-2.6,1.4-4.3,1.6l-1-3.2c1.8-0.1,3.3-0.7,4.5-1.6
			s1.8-2.3,1.8-4.2c0-1.1-0.3-2.1-0.8-3s-1.3-1.5-2.3-2s-2.1-0.7-3.3-0.7c-1.9,0-3.3,0.5-4.3,1.6s-1.5,2.4-1.5,4
			c0,1.4,0.4,2.5,1.1,3.3s1.5,1.4,2.4,1.8l-0.3,3.1l-14.1-1V80.5h2.7v11.9L412,93l-0.1,0.9c-1.1-0.6-2-1.5-2.7-2.6s-1.1-2.5-1.1-4.1
			s0.4-2.9,1-4.2s1.7-2.2,2.9-2.9s2.7-1.1,4.4-1.1c1.8,0,3.4,0.4,4.8,1.2s2.4,1.9,3.1,3.2S425.5,86.3,425.5,87.8L425.5,87.8z"/>
		<path class="st5" d="M425.1,72.3h-20.2c0.8,0.9,1.5,1.8,2,2.6s1,1.7,1.4,2.7h-3c-0.2-0.5-0.5-1.1-0.9-1.6s-0.9-1.2-1.6-2
			s-1.7-1.6-3-2.5v-2.3h25.3V72.3z"/>
		<path class="st5" d="M425.5,55.3c0,2.9-1.1,5.2-3.4,6.8s-5.5,2.4-9.6,2.4s-7.4-0.8-9.6-2.4s-3.4-3.9-3.4-6.8s1.1-5.2,3.4-6.8
			s5.5-2.4,9.6-2.4s7.4,0.8,9.6,2.4S425.5,52.3,425.5,55.3z M423,55.3c0-2-0.9-3.4-2.7-4.4s-4.4-1.5-7.9-1.5s-6.1,0.5-7.9,1.5
			s-2.7,2.5-2.7,4.4s0.9,3.4,2.7,4.4s4.4,1.5,7.9,1.5s6.1-0.5,7.9-1.5S423,57.2,423,55.3z"/>
		<path class="st5" d="M425.5,32.4c0,3.1-1.1,5.4-3.4,7s-5.3,2.4-9.2,2.4c-1.9,0-3.7-0.2-5.3-0.6s-3.1-1-4.3-1.8s-2.2-1.8-2.9-3
			s-1-2.6-1-4.2s0.3-3.1,1-4.3s1.5-2.2,2.6-2.9s2.1-1.1,3.1-1.2l0.8,3.2c-1.5,0.1-2.7,0.6-3.7,1.5s-1.4,2.1-1.4,3.7
			c0,1.2,0.3,2.2,0.8,3s1.2,1.4,2,1.9s1.8,0.8,2.8,1.1s2,0.4,3,0.5s1.9,0.1,2.6,0.1l-0.3,0.3c-1.1-0.5-2.2-1.3-3.1-2.5
			s-1.3-2.6-1.3-4.5c0-1.5,0.3-2.8,1-4.1s1.6-2.2,2.9-3s2.8-1.1,4.6-1.1s3.2,0.4,4.5,1.1s2.3,1.7,3,3S425.5,30.7,425.5,32.4
			L425.5,32.4z M423,32.4c0-1.7-0.5-3.1-1.6-4s-2.6-1.4-4.4-1.4s-3.4,0.5-4.4,1.4s-1.6,2.2-1.6,3.9s0.5,3.1,1.6,4.1s2.6,1.6,4.4,1.6
			s3.3-0.5,4.4-1.5S423,34.1,423,32.4L423,32.4z"/>
	</g>
	<g>
		<path class="st5" d="M497.5,139.9c0,2.9-1.1,5.2-3.4,6.8s-5.5,2.4-9.6,2.4s-7.4-0.8-9.6-2.4s-3.4-3.9-3.4-6.8s1.1-5.2,3.4-6.8
			s5.5-2.4,9.6-2.4s7.4,0.8,9.6,2.4S497.5,137,497.5,139.9z M495,139.9c0-1.9-0.9-3.4-2.7-4.4s-4.4-1.5-7.9-1.5s-6.1,0.5-7.9,1.5
			s-2.7,2.5-2.7,4.4s0.9,3.4,2.7,4.4s4.4,1.5,7.9,1.5s6.1-0.5,7.9-1.5S495,141.9,495,139.9z"/>
		<path class="st5" d="M497.5,125c0,0.8-0.3,1.4-0.8,1.9s-1.1,0.8-1.9,0.8s-1.4-0.3-1.9-0.8s-0.8-1.2-0.8-1.9s0.3-1.4,0.8-1.9
			s1.1-0.8,1.9-0.8s1.4,0.3,1.9,0.8S497.5,124.3,497.5,125z"/>
		<path class="st5" d="M497.5,109.9c0,1.5-0.3,2.9-0.9,4.2s-1.5,2.4-2.6,3.3s-2.6,1.4-4.3,1.6l-1-3.2c1.8-0.1,3.3-0.7,4.5-1.6
			s1.8-2.3,1.8-4.2c0-1.1-0.3-2.1-0.8-3s-1.3-1.5-2.3-2s-2.1-0.7-3.3-0.7c-1.9,0-3.3,0.5-4.3,1.6s-1.5,2.4-1.5,4
			c0,1.4,0.4,2.5,1.1,3.3s1.5,1.4,2.4,1.8l-0.3,3.1l-14.1-1v-14.5h2.7v11.9l9.6,0.7l-0.1,0.9c-1.1-0.6-2-1.5-2.7-2.6
			s-1.1-2.5-1.1-4.1s0.4-2.9,1-4.2s1.7-2.2,2.9-2.9s2.7-1.1,4.4-1.1c1.8,0,3.4,0.4,4.8,1.2s2.4,1.9,3.1,3.2S497.5,108.3,497.5,109.9
			L497.5,109.9z"/>
		<path class="st5" d="M497.5,88.2c0,1.7-0.3,3.3-1,4.6s-1.5,2.4-2.7,3.2s-2.5,1.1-4,1.1c-1.6,0-3-0.5-4.3-1.4s-2.1-2.4-2.4-4.2
			c-0.2,1-0.6,1.8-1.1,2.6s-1.1,1.3-1.9,1.7s-1.5,0.6-2.5,0.6c-1.2,0-2.3-0.3-3.3-1s-1.7-1.6-2.3-2.8s-0.8-2.6-0.8-4.2
			s0.3-3,0.8-4.2s1.3-2.1,2.3-2.8s2.1-1,3.3-1c0.9,0,1.7,0.2,2.5,0.6s1.4,0.9,1.9,1.7s0.9,1.6,1.1,2.5c0.3-1.8,1.1-3.3,2.4-4.2
			s2.7-1.4,4.3-1.4c1.5,0,2.8,0.4,4,1.1s2,1.8,2.7,3.2S497.5,86.5,497.5,88.2z M482,88.2c0-1.5-0.4-2.7-1-3.6s-1.6-1.3-2.9-1.3
			s-2.3,0.4-3,1.3s-1.1,2.1-1.1,3.6s0.4,2.7,1.1,3.6s1.8,1.3,3,1.3s2.2-0.4,2.9-1.3S482,89.8,482,88.2z M494.7,88.2
			c0-1.8-0.5-3.1-1.4-4.1s-2.1-1.5-3.7-1.5s-2.8,0.5-3.7,1.5s-1.4,2.4-1.4,4.1s0.5,3.1,1.4,4.1s2.1,1.5,3.7,1.5s2.8-0.5,3.7-1.5
			S494.7,90,494.7,88.2z"/>
		<path class="st5" d="M497.1,74.1c-4.4-0.9-8.4-2.3-12-4s-7.2-4-10.6-6.6v14.1h-2.7V60.4h2.4c1.8,1.2,3.6,2.3,5.4,3.4
			s3.6,2,5.5,2.9s3.8,1.6,5.8,2.3s4.1,1.1,6.2,1.5V74.1L497.1,74.1z"/>
		<path class="st5" d="M497.1,54.5c-4.4-0.9-8.4-2.3-12-4s-7.2-4-10.6-6.6V58h-2.7V40.8h2.4c1.8,1.2,3.6,2.3,5.4,3.4s3.6,2,5.5,2.9
			s3.8,1.6,5.8,2.3s4.1,1.1,6.2,1.5V54.5L497.1,54.5z"/>
		<path class="st5" d="M497.5,29.5c0,1.7-0.3,3.2-1,4.4s-1.5,2.2-2.6,2.9s-2.1,1.1-3.1,1.2l-0.8-3.2c1.5-0.1,2.8-0.5,3.7-1.4
			s1.4-2.2,1.4-3.9c0-1.1-0.3-2.1-0.8-2.9s-1.2-1.3-2-1.8s-1.8-0.8-2.8-1s-2-0.4-3-0.4s-1.9-0.1-2.6-0.1l0.5-0.3
			c1.1,0.5,2.1,1.3,3,2.5s1.3,2.6,1.3,4.4c0,1.5-0.3,2.9-1,4.1s-1.7,2.2-3,3s-2.8,1.1-4.7,1.1s-3.3-0.4-4.6-1.1s-2.3-1.8-3-3.1
			s-1-2.9-1-4.6s0.3-3.2,1-4.3s1.6-2.1,2.8-2.8s2.6-1.2,4.1-1.5s3.2-0.5,4.9-0.5s3.4,0.2,5,0.5s3,0.9,4.3,1.6s2.2,1.7,3,2.9
			S497.5,27.8,497.5,29.5L497.5,29.5z M486.1,29.6c0-1.7-0.6-3.1-1.7-4.1s-2.7-1.6-4.6-1.6c-1.8,0-3.3,0.5-4.4,1.5s-1.6,2.3-1.6,4
			s0.5,3.1,1.6,4.1s2.6,1.5,4.5,1.5s3.4-0.5,4.5-1.4S486.1,31.2,486.1,29.6L486.1,29.6z"/>
	</g>
	<g>
		<path class="st5" d="M631.4,148.1h-2.7v-11.8h2.7V148.1z"/>
		<path class="st5" d="M641.5,122.7c0,2.9-1.2,5.2-3.4,6.8s-5.5,2.4-9.6,2.4s-7.3-0.8-9.6-2.4s-3.4-3.9-3.4-6.8s1.2-5.2,3.4-6.8
			s5.5-2.4,9.6-2.4s7.3,0.8,9.6,2.4S641.5,119.7,641.5,122.7z M639,122.7c0-1.9-0.9-3.4-2.7-4.4s-4.4-1.5-7.9-1.5s-6.1,0.5-7.9,1.5
			s-2.7,2.5-2.7,4.4s0.9,3.4,2.7,4.4s4.4,1.5,7.9,1.5s6.1-0.5,7.9-1.5S639,124.6,639,122.7L639,122.7z"/>
		<path class="st5" d="M641.5,107.8c0,0.8-0.3,1.4-0.8,1.9s-1.2,0.8-1.9,0.8s-1.4-0.3-1.9-0.8s-0.8-1.2-0.8-1.9s0.3-1.4,0.8-1.9
			s1.2-0.8,1.9-0.8s1.4,0.3,1.9,0.8S641.5,107,641.5,107.8z"/>
		<path class="st5" d="M641.5,92.6c0,1.5-0.3,2.9-0.9,4.2s-1.5,2.4-2.7,3.3s-2.6,1.4-4.3,1.6l-1-3.2c1.8-0.1,3.3-0.7,4.5-1.6
			s1.8-2.3,1.8-4.2c0-1.1-0.3-2.1-0.8-3s-1.3-1.5-2.3-2s-2.1-0.7-3.3-0.7c-1.9,0-3.3,0.5-4.3,1.6s-1.5,2.4-1.5,4
			c0,1.4,0.3,2.5,1.1,3.3s1.5,1.4,2.4,1.8l-0.3,3.1l-14.1-1V85.3h2.7v11.9l9.6,0.7l-0.1,0.9c-1.1-0.6-2-1.5-2.7-2.6
			s-1.1-2.5-1.1-4.1s0.3-2.9,1-4.2s1.7-2.2,2.9-2.9s2.7-1.1,4.4-1.1c1.8,0,3.4,0.4,4.8,1.2s2.4,1.9,3.1,3.2S641.5,91,641.5,92.6z"/>
		<path class="st5" d="M641.5,71c0,1.7-0.3,3.3-1,4.6s-1.5,2.4-2.7,3.2s-2.5,1.1-4,1.1c-1.6,0-3-0.5-4.3-1.4s-2.1-2.4-2.4-4.2
			c-0.2,1-0.6,1.8-1.1,2.6s-1.1,1.3-1.8,1.7s-1.5,0.6-2.5,0.6c-1.2,0-2.3-0.3-3.3-1s-1.7-1.6-2.3-2.8s-0.8-2.6-0.8-4.2
			s0.3-3,0.8-4.2s1.3-2.1,2.3-2.8s2.1-1,3.3-1c0.9,0,1.7,0.2,2.5,0.6s1.3,0.9,1.8,1.7s0.9,1.6,1.1,2.5c0.3-1.8,1.2-3.3,2.4-4.2
			s2.7-1.4,4.3-1.4c1.5,0,2.8,0.4,4,1.1s2,1.8,2.7,3.2S641.5,69.2,641.5,71z M626,71c0-1.5-0.3-2.7-1-3.6s-1.7-1.3-2.9-1.3
			s-2.3,0.4-3,1.3s-1.1,2.1-1.1,3.6s0.4,2.7,1.1,3.6s1.8,1.3,3,1.3s2.2-0.4,2.9-1.3S626,72.5,626,71z M638.7,71
			c0-1.8-0.5-3.1-1.3-4.1s-2.1-1.5-3.7-1.5s-2.8,0.5-3.7,1.5s-1.4,2.4-1.4,4.1s0.5,3.1,1.4,4.1s2.2,1.5,3.7,1.5s2.8-0.5,3.7-1.5
			S638.7,72.7,638.7,71z"/>
		<path class="st5" d="M641.1,56.8c-4.4-0.9-8.4-2.3-12-4s-7.2-4-10.6-6.6v14.1h-2.7V43.1h2.4c1.8,1.2,3.6,2.3,5.4,3.4
			s3.6,2,5.5,2.9s3.8,1.6,5.8,2.3s4.1,1.1,6.2,1.5L641.1,56.8L641.1,56.8z"/>
		<path class="st5" d="M641.1,37.2c-4.4-0.9-8.4-2.3-12-4s-7.2-4-10.6-6.6v14.1h-2.7V23.5h2.4c1.8,1.2,3.6,2.3,5.4,3.4
			s3.6,2,5.5,2.9s3.8,1.6,5.8,2.3s4.1,1.1,6.2,1.5L641.1,37.2L641.1,37.2z"/>
		<path class="st5" d="M641.5,12.2c0,1.7-0.3,3.2-1,4.4s-1.5,2.2-2.6,2.9s-2.1,1.1-3.1,1.2l-0.8-3.2c1.5-0.1,2.8-0.5,3.7-1.4
			s1.4-2.2,1.4-3.9c0-1.1-0.3-2.1-0.8-2.9s-1.2-1.3-2-1.8s-1.8-0.8-2.8-1s-2-0.3-3-0.4s-1.9-0.1-2.7-0.1l0.5-0.3
			c1.1,0.5,2.2,1.3,3,2.4s1.3,2.6,1.3,4.4c0,1.5-0.3,2.9-1,4.1s-1.7,2.2-3,3s-2.8,1.1-4.7,1.1s-3.3-0.4-4.6-1.1s-2.3-1.8-3-3.1
			s-1-2.9-1-4.6s0.3-3.2,1-4.3s1.6-2.1,2.8-2.8s2.6-1.2,4.1-1.5s3.2-0.5,4.9-0.5s3.4,0.2,5,0.5s3,0.9,4.3,1.6s2.2,1.7,3,2.9
			S641.5,10.5,641.5,12.2L641.5,12.2z M630.1,12.3c0-1.7-0.6-3.1-1.7-4.1s-2.7-1.6-4.6-1.6c-1.8,0-3.3,0.5-4.3,1.5s-1.6,2.3-1.6,4
			s0.5,3.1,1.6,4.1s2.6,1.5,4.5,1.5s3.4-0.5,4.5-1.4S630.1,13.9,630.1,12.3L630.1,12.3z"/>
	</g>
	<g>
		<path class="st5" d="M703.4,148.1h-2.7v-11.8h2.7V148.1z"/>
		<path class="st5" d="M713.5,122.7c0,2.9-1.2,5.2-3.4,6.8s-5.5,2.4-9.6,2.4s-7.3-0.8-9.6-2.4s-3.4-3.9-3.4-6.8s1.2-5.2,3.4-6.8
			s5.5-2.4,9.6-2.4s7.3,0.8,9.6,2.4S713.5,119.7,713.5,122.7z M711,122.7c0-1.9-0.9-3.4-2.7-4.4s-4.4-1.5-7.9-1.5s-6.1,0.5-7.9,1.5
			s-2.7,2.5-2.7,4.4s0.9,3.4,2.7,4.4s4.4,1.5,7.9,1.5s6.1-0.5,7.9-1.5S711,124.6,711,122.7L711,122.7z"/>
		<path class="st5" d="M713.5,107.8c0,0.8-0.3,1.4-0.8,1.9s-1.2,0.8-1.9,0.8s-1.4-0.3-1.9-0.8s-0.8-1.2-0.8-1.9s0.3-1.4,0.8-1.9
			s1.2-0.8,1.9-0.8s1.4,0.3,1.9,0.8S713.5,107,713.5,107.8z"/>
		<path class="st5" d="M713.5,92.9c0,1.7-0.3,3.2-1,4.4s-1.5,2.2-2.6,2.9s-2.1,1.1-3.1,1.2l-0.8-3.2c1.5-0.1,2.8-0.5,3.7-1.4
			s1.4-2.2,1.4-3.9c0-1.2-0.3-2.1-0.8-2.8s-1.2-1.3-2-1.8s-1.8-0.8-2.8-1s-2-0.3-3-0.4s-1.9-0.1-2.7-0.1l0.5-0.3
			c1.1,0.5,2.2,1.3,3,2.4s1.3,2.6,1.3,4.4c0,1.5-0.3,2.9-1,4.1s-1.7,2.2-3,3s-2.8,1.1-4.7,1.1s-3.3-0.4-4.6-1.1s-2.3-1.8-3-3.1
			s-1-2.8-1-4.6s0.3-3.2,1-4.3s1.6-2.1,2.8-2.8s2.6-1.2,4.1-1.5s3.2-0.5,4.9-0.5s3.4,0.2,5,0.5s3,0.9,4.3,1.6s2.2,1.7,3,2.9
			S713.5,91.2,713.5,92.9L713.5,92.9z M702.1,93c0-1.7-0.6-3.1-1.7-4.1s-2.7-1.6-4.6-1.6c-1.8,0-3.3,0.5-4.3,1.5s-1.6,2.3-1.6,4
			s0.5,3.1,1.6,4.1s2.6,1.5,4.5,1.5s3.4-0.5,4.5-1.4S702.1,94.6,702.1,93L702.1,93z"/>
		<path class="st5" d="M713.5,70.6c0,1.5-0.3,2.9-0.9,4.2s-1.5,2.4-2.7,3.3s-2.6,1.4-4.3,1.6l-1-3.2c1.8-0.1,3.3-0.7,4.5-1.6
			s1.8-2.3,1.8-4.2c0-1.1-0.3-2.1-0.8-3s-1.3-1.5-2.3-2s-2.1-0.7-3.3-0.7c-1.9,0-3.3,0.5-4.3,1.6s-1.5,2.4-1.5,4
			c0,1.4,0.3,2.5,1.1,3.3s1.5,1.4,2.4,1.8l-0.3,3.1l-14.1-1V63.2h2.7v11.9l9.6,0.7l-0.1,0.9c-1.1-0.6-2-1.5-2.7-2.6
			s-1.1-2.5-1.1-4.1s0.3-2.9,1-4.2s1.7-2.2,2.9-2.9s2.7-1.1,4.4-1.1c1.8,0,3.4,0.4,4.8,1.2s2.4,1.9,3.1,3.3S713.5,69,713.5,70.6z"/>
		<path class="st5" d="M713.1,55h-20.2c0.8,0.9,1.5,1.8,2,2.6s1,1.7,1.4,2.7h-3c-0.2-0.5-0.5-1.1-0.9-1.6s-0.9-1.2-1.6-2
			s-1.7-1.6-3-2.5v-2.3h25.3L713.1,55L713.1,55z"/>
		<path class="st5" d="M713.5,38c0,2.9-1.2,5.2-3.4,6.8s-5.5,2.4-9.6,2.4s-7.3-0.8-9.6-2.4s-3.4-3.9-3.4-6.8s1.2-5.2,3.4-6.8
			s5.5-2.4,9.6-2.4s7.3,0.8,9.6,2.4C712.3,32.8,713.5,35.1,713.5,38z M711,38c0-2-0.9-3.4-2.7-4.4s-4.4-1.5-7.9-1.5
			s-6.1,0.5-7.9,1.5s-2.7,2.5-2.7,4.4s0.9,3.4,2.7,4.4s4.4,1.5,7.9,1.5s6.1-0.5,7.9-1.5S711,39.9,711,38z"/>
		<path class="st5" d="M713.5,15.1c0,3.1-1.1,5.4-3.4,7s-5.3,2.4-9.2,2.4c-1.9,0-3.7-0.2-5.3-0.6s-3.1-1-4.3-1.8s-2.2-1.8-2.9-3
			s-1-2.6-1-4.2s0.3-3.1,1-4.3s1.5-2.2,2.6-2.9s2.1-1.1,3.2-1.2l0.8,3.2c-1.5,0.1-2.7,0.6-3.7,1.5s-1.4,2.1-1.4,3.7
			c0,1.2,0.3,2.2,0.8,2.9s1.2,1.4,2,1.9s1.8,0.8,2.8,1.1s2,0.4,3,0.5s1.9,0.1,2.7,0.1l-0.3,0.3c-1.2-0.5-2.2-1.3-3.1-2.5
			s-1.3-2.6-1.3-4.5c0-1.5,0.3-2.8,1-4.1s1.6-2.2,2.9-3s2.8-1.1,4.7-1.1s3.2,0.4,4.5,1.1s2.3,1.7,3,3S713.5,13.4,713.5,15.1
			L713.5,15.1z M711,15.1c0-1.7-0.5-3.1-1.6-4s-2.6-1.4-4.4-1.4s-3.3,0.5-4.4,1.4s-1.6,2.2-1.6,3.9s0.5,3.1,1.6,4.1s2.6,1.6,4.4,1.6
			s3.3-0.5,4.3-1.5S711,16.8,711,15.1L711,15.1z"/>
	</g>
	<g>
		<path class="st5" d="M775.4,148.1h-2.7v-11.8h2.7V148.1z"/>
		<path class="st5" d="M785.5,122.7c0,2.9-1.2,5.2-3.4,6.8s-5.5,2.4-9.6,2.4s-7.3-0.8-9.6-2.4s-3.4-3.9-3.4-6.8s1.2-5.2,3.4-6.8
			s5.5-2.4,9.6-2.4s7.3,0.8,9.6,2.4S785.5,119.7,785.5,122.7z M783,122.7c0-1.9-0.9-3.4-2.7-4.4s-4.4-1.5-7.9-1.5s-6.1,0.5-7.9,1.5
			s-2.7,2.5-2.7,4.4s0.9,3.4,2.7,4.4s4.4,1.5,7.9,1.5s6.1-0.5,7.9-1.5S783,124.6,783,122.7L783,122.7z"/>
		<path class="st5" d="M785.5,107.8c0,0.8-0.3,1.4-0.8,1.9s-1.2,0.8-1.9,0.8s-1.4-0.3-1.9-0.8s-0.8-1.2-0.8-1.9s0.3-1.4,0.8-1.9
			s1.2-0.8,1.9-0.8s1.4,0.3,1.9,0.8S785.5,107,785.5,107.8z"/>
		<path class="st5" d="M785.5,92.9c0,1.7-0.3,3.2-1,4.4s-1.5,2.2-2.6,2.9s-2.1,1.1-3.1,1.2l-0.8-3.2c1.5-0.1,2.8-0.5,3.7-1.4
			s1.4-2.2,1.4-3.9c0-1.2-0.3-2.1-0.8-2.8s-1.2-1.3-2-1.8s-1.8-0.8-2.8-1s-2-0.3-3-0.4s-1.9-0.1-2.7-0.1l0.5-0.3
			c1.1,0.5,2.2,1.3,3,2.4s1.3,2.6,1.3,4.4c0,1.5-0.3,2.9-1,4.1s-1.7,2.2-3,3s-2.8,1.1-4.7,1.1s-3.3-0.4-4.6-1.1s-2.3-1.8-3-3.1
			s-1-2.8-1-4.6s0.3-3.2,1-4.3s1.6-2.1,2.8-2.8s2.6-1.2,4.1-1.5s3.2-0.5,4.9-0.5s3.4,0.2,5,0.5s3,0.9,4.3,1.6s2.2,1.7,3,2.9
			S785.5,91.2,785.5,92.9L785.5,92.9z M774.1,93c0-1.7-0.6-3.1-1.7-4.1s-2.7-1.6-4.6-1.6c-1.8,0-3.3,0.5-4.3,1.5s-1.6,2.3-1.6,4
			s0.5,3.1,1.6,4.1s2.6,1.5,4.5,1.5s3.4-0.5,4.5-1.4S774.1,94.6,774.1,93L774.1,93z"/>
		<path class="st5" d="M785.5,70.6c0,1.5-0.3,2.9-0.9,4.2s-1.5,2.4-2.7,3.3s-2.6,1.4-4.3,1.6l-1-3.2c1.8-0.1,3.3-0.7,4.5-1.6
			s1.8-2.3,1.8-4.2c0-1.1-0.3-2.1-0.8-3s-1.3-1.5-2.3-2s-2.1-0.7-3.3-0.7c-1.9,0-3.3,0.5-4.3,1.6s-1.5,2.4-1.5,4
			c0,1.4,0.3,2.5,1.1,3.3s1.5,1.4,2.4,1.8l-0.3,3.1l-14.1-1V63.2h2.7v11.9l9.6,0.7l-0.1,0.9c-1.1-0.6-2-1.5-2.7-2.6
			s-1.1-2.5-1.1-4.1s0.3-2.9,1-4.2s1.7-2.2,2.9-2.9s2.7-1.1,4.4-1.1c1.8,0,3.4,0.4,4.8,1.2s2.4,1.9,3.1,3.3S785.5,69,785.5,70.6z"/>
		<path class="st5" d="M785.1,55h-20.2c0.8,0.9,1.5,1.8,2,2.6s1,1.7,1.4,2.7h-3c-0.2-0.5-0.5-1.1-0.9-1.6s-0.9-1.2-1.6-2
			s-1.7-1.6-3-2.5v-2.3h25.3L785.1,55L785.1,55z"/>
		<path class="st5" d="M785.5,38c0,2.9-1.2,5.2-3.4,6.8s-5.5,2.4-9.6,2.4s-7.3-0.8-9.6-2.4s-3.4-3.9-3.4-6.8s1.2-5.2,3.4-6.8
			s5.5-2.4,9.6-2.4s7.3,0.8,9.6,2.4C784.3,32.8,785.5,35.1,785.5,38z M783,38c0-2-0.9-3.4-2.7-4.4s-4.4-1.5-7.9-1.5
			s-6.1,0.5-7.9,1.5s-2.7,2.5-2.7,4.4s0.9,3.4,2.7,4.4s4.4,1.5,7.9,1.5s6.1-0.5,7.9-1.5S783,39.9,783,38z"/>
		<path class="st5" d="M785.5,15.1c0,3.1-1.1,5.4-3.4,7s-5.3,2.4-9.2,2.4c-1.9,0-3.7-0.2-5.3-0.6s-3.1-1-4.3-1.8s-2.2-1.8-2.9-3
			s-1-2.6-1-4.2s0.3-3.1,1-4.3s1.5-2.2,2.6-2.9s2.1-1.1,3.2-1.2l0.8,3.2c-1.5,0.1-2.7,0.6-3.7,1.5s-1.4,2.1-1.4,3.7
			c0,1.2,0.3,2.2,0.8,2.9s1.2,1.4,2,1.9s1.8,0.8,2.8,1.1s2,0.4,3,0.5s1.9,0.1,2.7,0.1l-0.3,0.3c-1.2-0.5-2.2-1.3-3.1-2.5
			s-1.3-2.6-1.3-4.5c0-1.5,0.3-2.8,1-4.1s1.6-2.2,2.9-3s2.8-1.1,4.7-1.1s3.2,0.4,4.5,1.1s2.3,1.7,3,3S785.5,13.4,785.5,15.1
			L785.5,15.1z M783,15.1c0-1.7-0.5-3.1-1.6-4s-2.6-1.4-4.4-1.4s-3.3,0.5-4.4,1.4s-1.6,2.2-1.6,3.9s0.5,3.1,1.6,4.1s2.6,1.6,4.4,1.6
			s3.3-0.5,4.3-1.5S783,16.8,783,15.1L783,15.1z"/>
	</g>
	<g>
		<path class="st5" d="M847.4,148.1h-2.7v-11.8h2.7V148.1z"/>
		<path class="st5" d="M857.5,122.7c0,2.9-1.2,5.2-3.4,6.8s-5.5,2.4-9.6,2.4s-7.3-0.8-9.6-2.4s-3.4-3.9-3.4-6.8s1.2-5.2,3.4-6.8
			s5.5-2.4,9.6-2.4s7.3,0.8,9.6,2.4S857.5,119.7,857.5,122.7z M855,122.7c0-1.9-0.9-3.4-2.7-4.4s-4.4-1.5-7.9-1.5s-6.1,0.5-7.9,1.5
			s-2.7,2.5-2.7,4.4s0.9,3.4,2.7,4.4s4.4,1.5,7.9,1.5s6.1-0.5,7.9-1.5S855,124.6,855,122.7L855,122.7z"/>
		<path class="st5" d="M857.5,107.8c0,0.8-0.3,1.4-0.8,1.9s-1.2,0.8-1.9,0.8s-1.4-0.3-1.9-0.8s-0.8-1.2-0.8-1.9s0.3-1.4,0.8-1.9
			s1.2-0.8,1.9-0.8s1.4,0.3,1.9,0.8S857.5,107,857.5,107.8z"/>
		<path class="st5" d="M857.5,92.6c0,1.5-0.3,2.9-0.9,4.2s-1.5,2.4-2.7,3.3s-2.6,1.4-4.3,1.6l-1-3.2c1.8-0.1,3.3-0.7,4.5-1.6
			s1.8-2.3,1.8-4.2c0-1.1-0.3-2.1-0.8-3s-1.3-1.5-2.3-2s-2.1-0.7-3.3-0.7c-1.9,0-3.3,0.5-4.3,1.6s-1.5,2.4-1.5,4
			c0,1.4,0.3,2.5,1.1,3.3s1.5,1.4,2.4,1.8l-0.3,3.1l-14.1-1V85.3h2.7v11.9l9.6,0.7l-0.1,0.9c-1.1-0.6-2-1.5-2.7-2.6
			s-1.1-2.5-1.1-4.1s0.3-2.9,1-4.2s1.7-2.2,2.9-2.9s2.7-1.1,4.4-1.1c1.8,0,3.4,0.4,4.8,1.2s2.4,1.9,3.1,3.2S857.5,91,857.5,92.6z"/>
		<path class="st5" d="M857.5,71c0,1.7-0.3,3.3-1,4.6s-1.5,2.4-2.7,3.2s-2.5,1.1-4,1.1c-1.6,0-3-0.5-4.3-1.4s-2.1-2.4-2.4-4.2
			c-0.2,1-0.6,1.8-1.1,2.6s-1.1,1.3-1.8,1.7s-1.5,0.6-2.5,0.6c-1.2,0-2.3-0.3-3.3-1s-1.7-1.6-2.3-2.8s-0.8-2.6-0.8-4.2
			s0.3-3,0.8-4.2s1.3-2.1,2.3-2.8s2.1-1,3.3-1c0.9,0,1.7,0.2,2.5,0.6s1.3,0.9,1.8,1.7s0.9,1.6,1.1,2.5c0.3-1.8,1.2-3.3,2.4-4.2
			s2.7-1.4,4.3-1.4c1.5,0,2.8,0.4,4,1.1s2,1.8,2.7,3.2S857.5,69.2,857.5,71z M842,71c0-1.5-0.3-2.7-1-3.6s-1.7-1.3-2.9-1.3
			s-2.3,0.4-3,1.3s-1.1,2.1-1.1,3.6s0.4,2.7,1.1,3.6s1.8,1.3,3,1.3s2.2-0.4,2.9-1.3S842,72.5,842,71z M854.7,71
			c0-1.8-0.5-3.1-1.3-4.1s-2.1-1.5-3.7-1.5s-2.8,0.5-3.7,1.5s-1.4,2.4-1.4,4.1s0.5,3.1,1.4,4.1s2.2,1.5,3.7,1.5s2.8-0.5,3.7-1.5
			S854.7,72.7,854.7,71z"/>
		<path class="st5" d="M857.1,56.8c-4.4-0.9-8.4-2.3-12-4s-7.2-4-10.6-6.6v14.1h-2.7V43.1h2.4c1.8,1.2,3.6,2.3,5.4,3.4
			s3.6,2,5.5,2.9s3.8,1.6,5.8,2.3s4.1,1.1,6.2,1.5L857.1,56.8L857.1,56.8z"/>
		<path class="st5" d="M857.1,37.2c-4.4-0.9-8.4-2.3-12-4s-7.2-4-10.6-6.6v14.1h-2.7V23.5h2.4c1.8,1.2,3.6,2.3,5.4,3.4
			s3.6,2,5.5,2.9s3.8,1.6,5.8,2.3s4.1,1.1,6.2,1.5L857.1,37.2L857.1,37.2z"/>
		<path class="st5" d="M857.5,12.2c0,1.7-0.3,3.2-1,4.4s-1.5,2.2-2.6,2.9s-2.1,1.1-3.1,1.2l-0.8-3.2c1.5-0.1,2.8-0.5,3.7-1.4
			s1.4-2.2,1.4-3.9c0-1.1-0.3-2.1-0.8-2.9s-1.2-1.3-2-1.8s-1.8-0.8-2.8-1s-2-0.3-3-0.4s-1.9-0.1-2.7-0.1l0.5-0.3
			c1.1,0.5,2.2,1.3,3,2.4s1.3,2.6,1.3,4.4c0,1.5-0.3,2.9-1,4.1s-1.7,2.2-3,3s-2.8,1.1-4.7,1.1s-3.3-0.4-4.6-1.1s-2.3-1.8-3-3.1
			s-1-2.9-1-4.6s0.3-3.2,1-4.3s1.6-2.1,2.8-2.8s2.6-1.2,4.1-1.5s3.2-0.5,4.9-0.5s3.4,0.2,5,0.5s3,0.9,4.3,1.6s2.2,1.7,3,2.9
			S857.5,10.5,857.5,12.2L857.5,12.2z M846.1,12.3c0-1.7-0.6-3.1-1.7-4.1s-2.7-1.6-4.6-1.6c-1.8,0-3.3,0.5-4.3,1.5s-1.6,2.3-1.6,4
			s0.5,3.1,1.6,4.1s2.6,1.5,4.5,1.5s3.4-0.5,4.5-1.4S846.1,13.9,846.1,12.3L846.1,12.3z"/>
	</g>
	<g>
		<path class="st5" d="M569.5,139.9c0,2.9-1.2,5.2-3.4,6.8s-5.5,2.4-9.6,2.4s-7.3-0.8-9.6-2.4s-3.4-3.9-3.4-6.8s1.2-5.2,3.4-6.8
			s5.5-2.4,9.6-2.4s7.3,0.8,9.6,2.4S569.5,137,569.5,139.9z M567,139.9c0-1.9-0.9-3.4-2.7-4.4s-4.4-1.5-7.9-1.5s-6.1,0.5-7.9,1.5
			s-2.7,2.5-2.7,4.4s0.9,3.4,2.7,4.4s4.4,1.5,7.9,1.5s6.1-0.5,7.9-1.5S567,141.9,567,139.9z"/>
		<path class="st5" d="M569.5,125c0,0.8-0.3,1.4-0.8,1.9s-1.2,0.8-1.9,0.8s-1.4-0.3-1.9-0.8s-0.8-1.2-0.8-1.9s0.3-1.4,0.8-1.9
			s1.2-0.8,1.9-0.8s1.4,0.3,1.9,0.8S569.5,124.3,569.5,125z"/>
		<path class="st5" d="M569.5,110.1c0,2.9-1.2,5.2-3.4,6.8s-5.5,2.4-9.6,2.4s-7.3-0.8-9.6-2.4s-3.4-3.9-3.4-6.8s1.2-5.2,3.4-6.8
			s5.5-2.4,9.6-2.4s7.3,0.8,9.6,2.4S569.5,107.1,569.5,110.1z M567,110.1c0-1.9-0.9-3.4-2.7-4.4s-4.4-1.5-7.9-1.5s-6.1,0.5-7.9,1.5
			s-2.7,2.5-2.7,4.4s0.9,3.4,2.7,4.4s4.4,1.5,7.9,1.5s6.1-0.5,7.9-1.5S567,112,567,110.1z"/>
		<path class="st5" d="M569.5,87.2c0,2.9-1.2,5.2-3.4,6.8s-5.5,2.4-9.6,2.4s-7.3-0.8-9.6-2.4s-3.4-3.9-3.4-6.8s1.2-5.2,3.4-6.8
			s5.5-2.4,9.6-2.4s7.3,0.8,9.6,2.4S569.5,84.3,569.5,87.2z M567,87.2c0-1.9-0.9-3.4-2.7-4.4s-4.4-1.5-7.9-1.5s-6.1,0.5-7.9,1.5
			s-2.7,2.5-2.7,4.4s0.9,3.4,2.7,4.4s4.4,1.5,7.9,1.5s6.1-0.5,7.9-1.5S567,89.2,567,87.2z"/>
		<path class="st5" d="M569.5,64.4c0,2.9-1.2,5.2-3.4,6.8s-5.5,2.4-9.6,2.4s-7.3-0.8-9.6-2.4s-3.4-3.9-3.4-6.8s1.2-5.2,3.4-6.8
			s5.5-2.4,9.6-2.4s7.3,0.8,9.6,2.4S569.5,61.5,569.5,64.4z M567,64.4c0-2-0.9-3.4-2.7-4.4s-4.4-1.5-7.9-1.5s-6.1,0.5-7.9,1.5
			s-2.7,2.5-2.7,4.4c0,1.9,0.9,3.4,2.7,4.4s4.4,1.5,7.9,1.5s6.1-0.5,7.9-1.5S567,66.4,567,64.4z"/>
		<path class="st5" d="M569.5,41.6c0,2.9-1.2,5.2-3.4,6.8s-5.5,2.4-9.6,2.4s-7.3-0.8-9.6-2.4s-3.4-3.9-3.4-6.8s1.2-5.2,3.4-6.8
			s5.5-2.4,9.6-2.4s7.3,0.8,9.6,2.4S569.5,38.7,569.5,41.6z M567,41.6c0-2-0.9-3.4-2.7-4.4s-4.4-1.5-7.9-1.5s-6.1,0.5-7.9,1.5
			s-2.7,2.5-2.7,4.4s0.9,3.4,2.7,4.4s4.4,1.5,7.9,1.5s6.1-0.5,7.9-1.5S567,43.6,567,41.6z"/>
		<path class="st5" d="M569.5,18.8c0,2.9-1.2,5.2-3.4,6.8s-5.5,2.4-9.6,2.4s-7.3-0.8-9.6-2.4s-3.4-3.9-3.4-6.8s1.2-5.2,3.4-6.8
			s5.5-2.4,9.6-2.4s7.3,0.8,9.6,2.4S569.5,15.9,569.5,18.8z M567,18.8c0-2-0.9-3.4-2.7-4.4s-4.4-1.5-7.9-1.5s-6.1,0.5-7.9,1.5
			s-2.7,2.5-2.7,4.4s0.9,3.4,2.7,4.4s4.4,1.5,7.9,1.5s6.1-0.5,7.9-1.5S567,20.7,567,18.8z"/>
	</g>
	<g>
		<path class="st5" d="M929.5,139.9c0,2.9-1.2,5.2-3.4,6.8s-5.5,2.4-9.6,2.4s-7.3-0.8-9.6-2.4s-3.4-3.9-3.4-6.8s1.2-5.2,3.4-6.8
			s5.5-2.4,9.6-2.4s7.3,0.8,9.6,2.4S929.5,137,929.5,139.9z M927,139.9c0-1.9-0.9-3.4-2.7-4.4s-4.4-1.5-7.9-1.5s-6.1,0.5-7.9,1.5
			s-2.7,2.5-2.7,4.4s0.9,3.4,2.7,4.4s4.4,1.5,7.9,1.5s6.1-0.5,7.9-1.5S927,141.9,927,139.9z"/>
		<path class="st5" d="M929.5,125c0,0.8-0.3,1.4-0.8,1.9s-1.2,0.8-1.9,0.8s-1.4-0.3-1.9-0.8s-0.8-1.2-0.8-1.9s0.3-1.4,0.8-1.9
			s1.2-0.8,1.9-0.8s1.4,0.3,1.9,0.8S929.5,124.3,929.5,125z"/>
		<path class="st5" d="M929.5,110.1c0,2.9-1.2,5.2-3.4,6.8s-5.5,2.4-9.6,2.4s-7.3-0.8-9.6-2.4s-3.4-3.9-3.4-6.8s1.2-5.2,3.4-6.8
			s5.5-2.4,9.6-2.4s7.3,0.8,9.6,2.4S929.5,107.1,929.5,110.1z M927,110.1c0-1.9-0.9-3.4-2.7-4.4s-4.4-1.5-7.9-1.5s-6.1,0.5-7.9,1.5
			s-2.7,2.5-2.7,4.4s0.9,3.4,2.7,4.4s4.4,1.5,7.9,1.5s6.1-0.5,7.9-1.5S927,112,927,110.1z"/>
		<path class="st5" d="M929.5,87.2c0,2.9-1.2,5.2-3.4,6.8s-5.5,2.4-9.6,2.4s-7.3-0.8-9.6-2.4s-3.4-3.9-3.4-6.8s1.2-5.2,3.4-6.8
			s5.5-2.4,9.6-2.4s7.3,0.8,9.6,2.4S929.5,84.3,929.5,87.2z M927,87.2c0-1.9-0.9-3.4-2.7-4.4s-4.4-1.5-7.9-1.5s-6.1,0.5-7.9,1.5
			s-2.7,2.5-2.7,4.4s0.9,3.4,2.7,4.4s4.4,1.5,7.9,1.5s6.1-0.5,7.9-1.5S927,89.2,927,87.2z"/>
		<path class="st5" d="M929.5,64.4c0,2.9-1.2,5.2-3.4,6.8s-5.5,2.4-9.6,2.4s-7.3-0.8-9.6-2.4s-3.4-3.9-3.4-6.8s1.2-5.2,3.4-6.8
			s5.5-2.4,9.6-2.4s7.3,0.8,9.6,2.4S929.5,61.5,929.5,64.4z M927,64.4c0-2-0.9-3.4-2.7-4.4s-4.4-1.5-7.9-1.5s-6.1,0.5-7.9,1.5
			s-2.7,2.5-2.7,4.4c0,1.9,0.9,3.4,2.7,4.4s4.4,1.5,7.9,1.5s6.1-0.5,7.9-1.5S927,66.4,927,64.4z"/>
		<path class="st5" d="M929.5,41.6c0,2.9-1.2,5.2-3.4,6.8s-5.5,2.4-9.6,2.4s-7.3-0.8-9.6-2.4s-3.4-3.9-3.4-6.8s1.2-5.2,3.4-6.8
			s5.5-2.4,9.6-2.4s7.3,0.8,9.6,2.4S929.5,38.7,929.5,41.6z M927,41.6c0-2-0.9-3.4-2.7-4.4s-4.4-1.5-7.9-1.5s-6.1,0.5-7.9,1.5
			s-2.7,2.5-2.7,4.4s0.9,3.4,2.7,4.4s4.4,1.5,7.9,1.5s6.1-0.5,7.9-1.5S927,43.6,927,41.6z"/>
		<path class="st5" d="M929.5,18.8c0,2.9-1.2,5.2-3.4,6.8s-5.5,2.4-9.6,2.4s-7.3-0.8-9.6-2.4s-3.4-3.9-3.4-6.8s1.2-5.2,3.4-6.8
			s5.5-2.4,9.6-2.4s7.3,0.8,9.6,2.4S929.5,15.9,929.5,18.8z M927,18.8c0-2-0.9-3.4-2.7-4.4s-4.4-1.5-7.9-1.5s-6.1,0.5-7.9,1.5
			s-2.7,2.5-2.7,4.4s0.9,3.4,2.7,4.4s4.4,1.5,7.9,1.5s6.1-0.5,7.9-1.5S927,20.7,927,18.8z"/>
	</g>
	<g>
		<path class="st5" d="M71,241.5v-20.2c-0.9,0.8-1.8,1.5-2.6,2s-1.7,1-2.7,1.4v-3c0.5-0.2,1.1-0.6,1.6-0.9s1.2-0.9,2-1.6
			s1.6-1.7,2.5-3h2.3v25.3L71,241.5L71,241.5z"/>
		<path class="st5" d="M82,241.9c-0.8,0-1.4-0.3-1.9-0.8s-0.8-1.1-0.8-1.9s0.3-1.4,0.8-1.9s1.2-0.8,1.9-0.8s1.4,0.3,1.9,0.8
			s0.8,1.1,0.8,1.9s-0.3,1.4-0.8,1.9S82.8,241.9,82,241.9z"/>
		<path class="st5" d="M97,241.9c-2.9,0-5.2-1.1-6.8-3.4s-2.4-5.5-2.4-9.6s0.8-7.4,2.4-9.6s3.9-3.4,6.8-3.4s5.2,1.1,6.8,3.4
			s2.4,5.5,2.4,9.6s-0.8,7.4-2.4,9.6S99.9,241.9,97,241.9z M97,239.4c1.9,0,3.4-0.9,4.4-2.7s1.5-4.4,1.5-7.9s-0.5-6.1-1.5-7.9
			s-2.5-2.7-4.4-2.7s-3.4,0.9-4.4,2.7s-1.5,4.4-1.5,7.9s0.5,6.1,1.5,7.9S95.1,239.4,97,239.4z"/>
	</g>
	<g>
		<path class="st5" d="M52.6,447.8V445h11.8v2.7C64.4,447.8,52.6,447.8,52.6,447.8z"/>
		<path class="st5" d="M71,457.5v-20.2c-0.9,0.8-1.8,1.5-2.6,2s-1.7,1-2.7,1.4v-3c0.5-0.2,1.1-0.5,1.6-0.9s1.2-0.9,2-1.6
			s1.6-1.7,2.5-3h2.3v25.3H71z"/>
		<path class="st5" d="M82,457.9c-0.8,0-1.4-0.3-1.9-0.8s-0.8-1.1-0.8-1.9s0.3-1.4,0.8-1.9s1.2-0.8,1.9-0.8s1.4,0.3,1.9,0.8
			s0.8,1.1,0.8,1.9s-0.3,1.4-0.8,1.9S82.8,457.9,82,457.9z"/>
		<path class="st5" d="M97,457.9c-2.9,0-5.2-1.1-6.8-3.4s-2.4-5.5-2.4-9.6s0.8-7.4,2.4-9.6s3.9-3.4,6.8-3.4s5.2,1.1,6.8,3.4
			s2.4,5.5,2.4,9.6s-0.8,7.4-2.4,9.6S99.9,457.9,97,457.9z M97,455.4c1.9,0,3.4-0.9,4.4-2.7s1.5-4.4,1.5-7.9s-0.5-6.1-1.5-7.9
			s-2.5-2.7-4.4-2.7s-3.4,0.9-4.4,2.7s-1.5,4.4-1.5,7.9s0.5,6.1,1.5,7.9S95.1,455.4,97,455.4z"/>
	</g>
	<g>
		<path class="st5" d="M67.1,349.9c-2.9,0-5.2-1.1-6.8-3.4s-2.4-5.5-2.4-9.6s0.8-7.4,2.4-9.6s3.9-3.4,6.8-3.4s5.2,1.1,6.8,3.4
			s2.4,5.5,2.4,9.6s-0.8,7.4-2.4,9.6S70.1,349.9,67.1,349.9z M67.1,347.4c1.9,0,3.4-0.9,4.4-2.7s1.5-4.4,1.5-7.9s-0.5-6.1-1.5-7.9
			s-2.5-2.7-4.4-2.7s-3.4,0.9-4.4,2.7s-1.5,4.4-1.5,7.9s0.5,6.1,1.5,7.9S65.2,347.4,67.1,347.4z"/>
		<path class="st5" d="M82,349.9c-0.8,0-1.4-0.3-1.9-0.8s-0.8-1.1-0.8-1.9s0.3-1.4,0.8-1.9s1.2-0.8,1.9-0.8s1.4,0.3,1.9,0.8
			s0.8,1.1,0.8,1.9s-0.3,1.4-0.8,1.9S82.8,349.9,82,349.9z"/>
		<path class="st5" d="M97,349.9c-2.9,0-5.2-1.1-6.8-3.4s-2.4-5.5-2.4-9.6s0.8-7.4,2.4-9.6s3.9-3.4,6.8-3.4s5.2,1.1,6.8,3.4
			s2.4,5.5,2.4,9.6s-0.8,7.4-2.4,9.6S99.9,349.9,97,349.9z M97,347.4c1.9,0,3.4-0.9,4.4-2.7s1.5-4.4,1.5-7.9s-0.5-6.1-1.5-7.9
			s-2.5-2.7-4.4-2.7s-3.4,0.9-4.4,2.7s-1.5,4.4-1.5,7.9s0.5,6.1,1.5,7.9S95.1,347.4,97,347.4z"/>
	</g>
	<g>
		<path class="st5" d="M32.4,423.6L7.1,412.9v-3.2l25.3-10.6v3.4l-22,8.9l22,8.9V423.6L32.4,423.6z M24.1,418.1h-2.6v-13.5h2.6
			V418.1z"/>
		<path class="st5" d="M32.4,395.9h-19v-2.8h3.2c-1-0.5-1.8-1.2-2.6-2.2s-1.1-2.3-1.1-3.7c0-1.2,0.3-2.4,1-3.3s1.7-1.6,2.9-2.1
			c-1.2-0.6-2.1-1.4-2.8-2.5s-1.1-2.2-1.1-3.6c0-1.8,0.7-3.2,2-4.3s3.1-1.6,5.5-1.6h11.9v3H20.7c-1.1,0-2,0.1-2.8,0.3
			s-1.4,0.6-1.8,1.1s-0.6,1.2-0.6,2.1c0,1,0.3,1.8,0.8,2.6c0.6,0.8,1.3,1.4,2.4,1.8s2.3,0.7,3.8,0.7h9.9v3H20.7
			c-1.1,0-2,0.1-2.8,0.3s-1.4,0.6-1.8,1.1s-0.6,1.2-0.6,2.1c0,1,0.3,1.8,0.8,2.6c0.5,0.8,1.3,1.4,2.4,1.8s2.3,0.7,3.8,0.7h9.9
			L32.4,395.9L32.4,395.9z"/>
		<path class="st5" d="M39.3,364.5H13.4v-2.8h4l-0.3,0.1c-1.4-0.5-2.4-1.4-3.1-2.6s-1-2.5-1-3.8c0-1.5,0.4-2.9,1.2-4.1
			s2-2.1,3.4-2.7s3.2-1,5.3-1s3.8,0.3,5.3,1s2.6,1.6,3.4,2.8s1.2,2.5,1.2,4.1c0,1.2-0.3,2.5-0.9,3.7s-1.7,2.1-3.1,2.8l-0.1-0.3h10.6
			C39.3,361.6,39.3,364.5,39.3,364.5z M30.4,356.2c0-1.6-0.6-2.9-1.9-3.9s-3.1-1.5-5.6-1.5s-4.2,0.5-5.5,1.5s-1.9,2.3-1.9,3.9
			c0,1,0.3,1.9,0.8,2.7s1.3,1.5,2.4,2s2.5,0.7,4.2,0.7c2.5,0,4.4-0.5,5.7-1.6S30.4,357.7,30.4,356.2L30.4,356.2z"/>
		<path class="st5" d="M32.4,340.4c0,0.8-0.2,1.4-0.8,2s-1.1,0.8-1.9,0.8H6v-3H29c0.4,0,0.6-0.1,0.8-0.2s0.2-0.4,0.2-0.7v-1.9h2.5
			L32.4,340.4L32.4,340.4z"/>
		<path class="st5" d="M10.2,332.2c0,0.7-0.2,1.3-0.7,1.7s-1.1,0.7-1.7,0.7s-1.3-0.2-1.8-0.7s-0.7-1.1-0.7-1.7s0.2-1.3,0.7-1.8
			s1.1-0.7,1.8-0.7s1.3,0.2,1.7,0.7S10.2,331.5,10.2,332.2z M32.4,333.6h-19v-3h19V333.6z"/>
		<path class="st5" d="M32.4,320.7c0,0.8-0.2,1.4-0.8,2s-1.1,0.8-1.9,0.8H15.9v3.1h-2.5v-3.1h-4l-0.6-3h4.6v-3.8h2.5v3.8H29
			c0.4,0,0.6-0.1,0.8-0.2s0.2-0.4,0.2-0.7v-2.9h2.5C32.4,316.8,32.4,320.7,32.4,320.7z"/>
		<path class="st5" d="M32.8,306.5c0,1.3-0.3,2.5-0.9,3.5s-1.5,1.7-2.6,2.2s-2.4,0.8-4,0.8H13.4v-3h11.7c1.5,0,2.8-0.3,3.8-0.9
			s1.5-1.6,1.5-3.2c0-1.1-0.3-2.1-0.9-3s-1.5-1.5-2.6-1.9s-2.6-0.7-4.4-0.7h-9v-3h19v2.8h-4.5l0.8-0.1c1.2,0.5,2.1,1.3,2.9,2.4
			C32.4,303.6,32.8,305,32.8,306.5L32.8,306.5z"/>
		<path class="st5" d="M32.8,285.3c0,1.5-0.4,2.9-1.2,4.1s-2,2.1-3.5,2.8s-3.2,1-5.3,1s-3.8-0.3-5.3-1s-2.6-1.6-3.4-2.8
			s-1.2-2.5-1.2-4.1c0-1.2,0.3-2.5,0.9-3.7s1.7-2.1,3.2-2.8l0.1,0.3H6v-3h26.4v2.8h-4l0.3-0.1c1.4,0.5,2.4,1.4,3.1,2.6
			C32.5,282.7,32.8,284,32.8,285.3L32.8,285.3z M30.4,284.5c0-1-0.3-1.9-0.8-2.7s-1.3-1.5-2.4-2s-2.5-0.7-4.2-0.7
			c-2.5,0-4.4,0.5-5.7,1.6s-1.8,2.3-1.8,3.8c0,1.6,0.6,2.9,1.9,3.9s3.1,1.5,5.6,1.5s4.2-0.5,5.5-1.5S30.4,286.2,30.4,284.5
			L30.4,284.5z"/>
		<path class="st5" d="M32.8,262.9c0,1.8-0.4,3.4-1.2,4.7s-2,2.3-3.4,3s-3.2,1.1-5.2,1.1s-3.8-0.4-5.3-1.1s-2.6-1.7-3.4-3
			S13,264.8,13,263c0-1,0.2-2,0.5-3s0.9-1.9,1.7-2.8s1.9-1.5,3.2-2s3.1-0.8,5.2-0.8v15.4h-2.4V257l1.1,0.8c-1.7,0.1-3,0.3-4,0.8
			s-1.7,1.1-2.2,1.9s-0.7,1.6-0.7,2.6c0,1.1,0.3,2.1,0.9,2.9c0.6,0.8,1.4,1.4,2.5,1.9s2.5,0.6,4.1,0.6c2.4,0,4.2-0.5,5.5-1.5
			s1.9-2.3,1.9-4.1c0-1.3-0.3-2.4-1-3.2s-1.6-1.5-2.8-1.9l1-2.9c1.1,0.5,2,1.1,2.8,1.8s1.4,1.7,1.8,2.7
			C32.6,260.4,32.8,261.6,32.8,262.9L32.8,262.9z"/>
	</g>
	<g>
		<path class="st5" d="M526,504v-22.7h-9v-2.6h21.3v2.6h-9.1V504H526z"/>
		<path class="st5" d="M543.2,481.8c-0.7,0-1.3-0.2-1.7-0.7s-0.7-1.1-0.7-1.7s0.2-1.3,0.7-1.8s1.1-0.7,1.7-0.7s1.3,0.2,1.8,0.7
			s0.7,1.1,0.7,1.8s-0.2,1.3-0.7,1.7S543.9,481.8,543.2,481.8z M541.7,504v-19h3v19H541.7z"/>
		<path class="st5" d="M550.4,504v-19h2.8v3.2c0.5-1,1.2-1.8,2.2-2.6s2.3-1.1,3.7-1.1c1.2,0,2.3,0.3,3.3,1s1.6,1.7,2.1,2.9
			c0.6-1.2,1.4-2.1,2.5-2.8s2.2-1.1,3.6-1.1c1.8,0,3.2,0.7,4.3,2s1.6,3.1,1.6,5.5v12h-3v-11.7c0-1.1-0.1-2-0.3-2.8s-0.6-1.4-1.1-1.8
			s-1.2-0.6-2.1-0.6c-1,0-1.8,0.3-2.6,0.8s-1.4,1.3-1.8,2.4s-0.7,2.3-0.7,3.8v9.9h-3v-11.7c0-1.1-0.1-2-0.3-2.8s-0.6-1.4-1.1-1.8
			s-1.2-0.6-2.1-0.6c-1,0-1.8,0.3-2.6,0.8s-1.4,1.3-1.8,2.4s-0.7,2.3-0.7,3.8v9.9H550.4L550.4,504z"/>
		<path class="st5" d="M589.5,504.4c-1.8,0-3.4-0.4-4.7-1.2s-2.3-2-3-3.4s-1.1-3.2-1.1-5.2s0.4-3.8,1.1-5.3s1.7-2.6,3-3.5
			s2.8-1.2,4.6-1.2c1,0,2,0.2,3,0.5s1.9,0.9,2.8,1.7s1.5,1.9,2,3.2s0.8,3.1,0.8,5.2h-15.4v-2.4h12.8l-0.8,1.1c-0.1-1.7-0.3-3-0.8-4
			s-1.1-1.7-1.9-2.2s-1.6-0.7-2.6-0.7c-1.1,0-2.1,0.3-2.9,0.9s-1.4,1.4-1.9,2.5s-0.7,2.5-0.7,4.1c0,2.4,0.5,4.2,1.5,5.5
			s2.3,1.9,4.1,1.9c1.3,0,2.3-0.3,3.2-1s1.5-1.6,1.9-2.8l2.9,1c-0.5,1.1-1.1,2-1.8,2.8s-1.7,1.4-2.7,1.8S590.8,504.4,589.5,504.4
			L589.5,504.4z"/>
	</g>
</g>
<g id="Ebene_5">
	<circle class="st6" cx="198" cy="338.4" r="3.6"/>
	<circle class="st6" cx="270" cy="274.7" r="3.6"/>
	<circle class="st6" cx="342" cy="235.7" r="3.6"/>
	<circle class="st6" cx="414" cy="235.7" r="3.6"/>
	<circle class="st6" cx="486" cy="274.7" r="3.6"/>
	<g>
		<circle class="st6" cx="918" cy="338.4" r="3.6"/>
		<circle class="st6" cx="846" cy="402.1" r="3.6"/>
		<circle class="st6" cx="774" cy="441.1" r="3.6"/>
		<circle class="st6" cx="702" cy="441.1" r="3.6"/>
		<circle class="st6" cx="630" cy="402.1" r="3.6"/>
		<circle class="st6" cx="558" cy="338.4" r="3.6"/>
	</g>
</g>
<g class="st7">
	<path class="st8" d="M378,230.5c-65.3,0-122.9,54-180,107.9"/>
	<path class="st8" d="M558,338.4c-57.1-54-114.7-107.9-180-107.9"/>
	<path class="st8" d="M738,446.3c65.3,0,122.9-54,180-107.9"/>
	<path class="st8" d="M558,338.4c57.1,54,114.7,107.9,180,107.9"/>
</g>
</svg>
