<?xml version="1.0" encoding="UTF-8"?>
<svg id="Ebene_5" data-name="Ebene 5" xmlns="http://www.w3.org/2000/svg" viewBox="0 0 1676.09 206">
  <defs>
    <style>
      .cls-1 {
        fill: none;
        stroke-width: 1.5px;
      }

      .cls-1, .cls-2 {
        stroke: #307eef;
        stroke-linejoin: round;
      }

      .cls-2 {
        fill: #307eef;
      }
    </style>
  </defs>
  <g>
    <path class="cls-1" d="m5.09,103.45V7.93"/>
    <path class="cls-1" d="m10.93,103.45V7.93"/>
    <path class="cls-1" d="m16.76,103.45V7.93"/>
    <path class="cls-1" d="m22.6,103.45V7.93"/>
    <path class="cls-1" d="m28.43,103.45V7.93"/>
    <path class="cls-1" d="m34.27,103.45V7.93"/>
    <path class="cls-1" d="m40.1,103.45V7.93"/>
    <path class="cls-1" d="m45.94,103.45V7.93"/>
    <path class="cls-1" d="m51.77,103.45V7.93"/>
    <path class="cls-1" d="m57.61,103.45V7.93"/>
    <path class="cls-1" d="m63.44,103.45V7.93"/>
    <path class="cls-1" d="m69.28,103.45V7.93"/>
    <path class="cls-1" d="m75.11,103.45V7.93"/>
    <path class="cls-1" d="m80.95,103.45V7.93"/>
    <path class="cls-1" d="m86.78,103.45V7.93"/>
    <path class="cls-1" d="m92.62,103.45V7.93"/>
    <path class="cls-1" d="m98.45,103.45V7.93"/>
    <path class="cls-1" d="m104.29,103.45V7.93"/>
    <path class="cls-1" d="m110.12,103.45V7.93"/>
    <path class="cls-1" d="m115.96,103.45V7.93"/>
    <path class="cls-1" d="m121.79,103.45V7.93"/>
    <path class="cls-1" d="m127.63,103.45V7.93"/>
    <path class="cls-1" d="m133.46,103.45v95.52"/>
    <path class="cls-1" d="m139.3,103.45v95.52"/>
    <path class="cls-1" d="m145.13,103.45v95.52"/>
    <path class="cls-1" d="m150.97,103.45v95.52"/>
    <path class="cls-1" d="m156.8,103.45v95.52"/>
    <path class="cls-1" d="m162.64,103.45v95.52"/>
    <path class="cls-1" d="m168.47,103.45v95.52"/>
    <path class="cls-1" d="m174.31,103.45v95.52"/>
    <path class="cls-1" d="m180.14,103.45v95.52"/>
    <path class="cls-1" d="m185.98,103.45v95.52"/>
    <path class="cls-1" d="m191.81,103.45v95.52"/>
    <path class="cls-1" d="m197.65,103.45v95.52"/>
    <path class="cls-1" d="m203.48,103.45v95.52"/>
    <path class="cls-1" d="m209.32,103.45v95.52"/>
    <path class="cls-1" d="m215.16,103.45v95.52"/>
    <path class="cls-1" d="m220.99,103.45v95.52"/>
    <path class="cls-1" d="m226.83,103.45v95.52"/>
    <path class="cls-1" d="m232.66,103.45v95.52"/>
    <path class="cls-1" d="m238.5,103.45v95.52"/>
    <path class="cls-1" d="m244.33,103.45v95.52"/>
    <path class="cls-1" d="m250.17,103.45v95.52"/>
    <path class="cls-1" d="m256,103.45v95.52"/>
    <path id="m2bef0d38de" class="cls-2" d="m5.09,10.43c.66,0,1.3-.26,1.77-.73s.73-1.1.73-1.77-.26-1.3-.73-1.77-1.1-.73-1.77-.73-1.3.26-1.77.73-.73,1.1-.73,1.77.26,1.3.73,1.77,1.1.73,1.77.73Z"/>
    <path id="m2bef0d38de-2" data-name="m2bef0d38de" class="cls-2" d="m10.93,10.43c.66,0,1.3-.26,1.77-.73s.73-1.1.73-1.77-.26-1.3-.73-1.77-1.1-.73-1.77-.73-1.3.26-1.77.73-.73,1.1-.73,1.77.26,1.3.73,1.77,1.1.73,1.77.73Z"/>
    <path id="m2bef0d38de-3" data-name="m2bef0d38de" class="cls-2" d="m16.76,10.43c.66,0,1.3-.26,1.77-.73s.73-1.1.73-1.77-.26-1.3-.73-1.77-1.1-.73-1.77-.73-1.3.26-1.77.73-.73,1.1-.73,1.77.26,1.3.73,1.77,1.1.73,1.77.73Z"/>
    <path id="m2bef0d38de-4" data-name="m2bef0d38de" class="cls-2" d="m22.6,10.43c.66,0,1.3-.26,1.77-.73s.73-1.1.73-1.77-.26-1.3-.73-1.77-1.1-.73-1.77-.73-1.3.26-1.77.73-.73,1.1-.73,1.77.26,1.3.73,1.77,1.1.73,1.77.73Z"/>
    <path id="m2bef0d38de-5" data-name="m2bef0d38de" class="cls-2" d="m28.43,10.43c.66,0,1.3-.26,1.77-.73s.73-1.1.73-1.77-.26-1.3-.73-1.77-1.1-.73-1.77-.73-1.3.26-1.77.73-.73,1.1-.73,1.77.26,1.3.73,1.77,1.1.73,1.77.73Z"/>
    <path id="m2bef0d38de-6" data-name="m2bef0d38de" class="cls-2" d="m34.27,10.43c.66,0,1.3-.26,1.77-.73s.73-1.1.73-1.77-.26-1.3-.73-1.77-1.1-.73-1.77-.73-1.3.26-1.77.73-.73,1.1-.73,1.77.26,1.3.73,1.77,1.1.73,1.77.73Z"/>
    <path id="m2bef0d38de-7" data-name="m2bef0d38de" class="cls-2" d="m40.1,10.43c.66,0,1.3-.26,1.77-.73s.73-1.1.73-1.77-.26-1.3-.73-1.77-1.1-.73-1.77-.73-1.3.26-1.77.73-.73,1.1-.73,1.77.26,1.3.73,1.77,1.1.73,1.77.73Z"/>
    <path id="m2bef0d38de-8" data-name="m2bef0d38de" class="cls-2" d="m45.94,10.43c.66,0,1.3-.26,1.77-.73s.73-1.1.73-1.77-.26-1.3-.73-1.77-1.1-.73-1.77-.73-1.3.26-1.77.73-.73,1.1-.73,1.77.26,1.3.73,1.77,1.1.73,1.77.73Z"/>
    <path id="m2bef0d38de-9" data-name="m2bef0d38de" class="cls-2" d="m51.77,10.43c.66,0,1.3-.26,1.77-.73s.73-1.1.73-1.77-.26-1.3-.73-1.77-1.1-.73-1.77-.73-1.3.26-1.77.73-.73,1.1-.73,1.77.26,1.3.73,1.77,1.1.73,1.77.73Z"/>
    <path id="m2bef0d38de-10" data-name="m2bef0d38de" class="cls-2" d="m57.61,10.43c.66,0,1.3-.26,1.77-.73s.73-1.1.73-1.77-.26-1.3-.73-1.77-1.1-.73-1.77-.73-1.3.26-1.77.73-.73,1.1-.73,1.77.26,1.3.73,1.77,1.1.73,1.77.73Z"/>
    <path id="m2bef0d38de-11" data-name="m2bef0d38de" class="cls-2" d="m63.44,10.43c.66,0,1.3-.26,1.77-.73s.73-1.1.73-1.77-.26-1.3-.73-1.77-1.1-.73-1.77-.73-1.3.26-1.77.73-.73,1.1-.73,1.77.26,1.3.73,1.77,1.1.73,1.77.73Z"/>
    <path id="m2bef0d38de-12" data-name="m2bef0d38de" class="cls-2" d="m69.28,10.43c.66,0,1.3-.26,1.77-.73s.73-1.1.73-1.77-.26-1.3-.73-1.77-1.1-.73-1.77-.73-1.3.26-1.77.73-.73,1.1-.73,1.77.26,1.3.73,1.77,1.1.73,1.77.73Z"/>
    <path id="m2bef0d38de-13" data-name="m2bef0d38de" class="cls-2" d="m75.11,10.43c.66,0,1.3-.26,1.77-.73s.73-1.1.73-1.77-.26-1.3-.73-1.77-1.1-.73-1.77-.73-1.3.26-1.77.73-.73,1.1-.73,1.77.26,1.3.73,1.77,1.1.73,1.77.73Z"/>
    <path id="m2bef0d38de-14" data-name="m2bef0d38de" class="cls-2" d="m80.95,10.43c.66,0,1.3-.26,1.77-.73s.73-1.1.73-1.77-.26-1.3-.73-1.77-1.1-.73-1.77-.73-1.3.26-1.77.73-.73,1.1-.73,1.77.26,1.3.73,1.77,1.1.73,1.77.73Z"/>
    <path id="m2bef0d38de-15" data-name="m2bef0d38de" class="cls-2" d="m86.78,10.43c.66,0,1.3-.26,1.77-.73s.73-1.1.73-1.77-.26-1.3-.73-1.77-1.1-.73-1.77-.73-1.3.26-1.77.73-.73,1.1-.73,1.77.26,1.3.73,1.77,1.1.73,1.77.73Z"/>
    <path id="m2bef0d38de-16" data-name="m2bef0d38de" class="cls-2" d="m92.62,10.43c.66,0,1.3-.26,1.77-.73s.73-1.1.73-1.77-.26-1.3-.73-1.77-1.1-.73-1.77-.73-1.3.26-1.77.73-.73,1.1-.73,1.77.26,1.3.73,1.77,1.1.73,1.77.73Z"/>
    <path id="m2bef0d38de-17" data-name="m2bef0d38de" class="cls-2" d="m98.45,10.43c.66,0,1.3-.26,1.77-.73s.73-1.1.73-1.77-.26-1.3-.73-1.77-1.1-.73-1.77-.73-1.3.26-1.77.73-.73,1.1-.73,1.77.26,1.3.73,1.77,1.1.73,1.77.73Z"/>
    <path id="m2bef0d38de-18" data-name="m2bef0d38de" class="cls-2" d="m104.29,10.43c.66,0,1.3-.26,1.77-.73s.73-1.1.73-1.77-.26-1.3-.73-1.77-1.1-.73-1.77-.73-1.3.26-1.77.73-.73,1.1-.73,1.77.26,1.3.73,1.77,1.1.73,1.77.73Z"/>
    <path id="m2bef0d38de-19" data-name="m2bef0d38de" class="cls-2" d="m110.12,10.43c.66,0,1.3-.26,1.77-.73s.73-1.1.73-1.77-.26-1.3-.73-1.77-1.1-.73-1.77-.73-1.3.26-1.77.73-.73,1.1-.73,1.77.26,1.3.73,1.77,1.1.73,1.77.73Z"/>
    <path id="m2bef0d38de-20" data-name="m2bef0d38de" class="cls-2" d="m115.96,10.43c.66,0,1.3-.26,1.77-.73s.73-1.1.73-1.77-.26-1.3-.73-1.77-1.1-.73-1.77-.73-1.3.26-1.77.73-.73,1.1-.73,1.77.26,1.3.73,1.77,1.1.73,1.77.73Z"/>
    <path id="m2bef0d38de-21" data-name="m2bef0d38de" class="cls-2" d="m121.79,10.43c.66,0,1.3-.26,1.77-.73s.73-1.1.73-1.77-.26-1.3-.73-1.77-1.1-.73-1.77-.73-1.3.26-1.77.73-.73,1.1-.73,1.77.26,1.3.73,1.77,1.1.73,1.77.73Z"/>
    <path id="m2bef0d38de-22" data-name="m2bef0d38de" class="cls-2" d="m127.63,10.43c.66,0,1.3-.26,1.77-.73s.73-1.1.73-1.77-.26-1.3-.73-1.77-1.1-.73-1.77-.73-1.3.26-1.77.73-.73,1.1-.73,1.77.26,1.3.73,1.77,1.1.73,1.77.73Z"/>
    <path id="m2bef0d38de-23" data-name="m2bef0d38de" class="cls-2" d="m133.46,201.47c.66,0,1.3-.26,1.77-.73s.73-1.1.73-1.77-.26-1.3-.73-1.77-1.1-.73-1.77-.73-1.3.26-1.77.73-.73,1.1-.73,1.77.26,1.3.73,1.77,1.1.73,1.77.73Z"/>
    <path id="m2bef0d38de-24" data-name="m2bef0d38de" class="cls-2" d="m139.3,201.47c.66,0,1.3-.26,1.77-.73s.73-1.1.73-1.77-.26-1.3-.73-1.77-1.1-.73-1.77-.73-1.3.26-1.77.73-.73,1.1-.73,1.77.26,1.3.73,1.77,1.1.73,1.77.73Z"/>
    <path id="m2bef0d38de-25" data-name="m2bef0d38de" class="cls-2" d="m145.13,201.47c.66,0,1.3-.26,1.77-.73s.73-1.1.73-1.77-.26-1.3-.73-1.77-1.1-.73-1.77-.73-1.3.26-1.77.73-.73,1.1-.73,1.77.26,1.3.73,1.77,1.1.73,1.77.73Z"/>
    <path id="m2bef0d38de-26" data-name="m2bef0d38de" class="cls-2" d="m150.97,201.47c.66,0,1.3-.26,1.77-.73s.73-1.1.73-1.77-.26-1.3-.73-1.77-1.1-.73-1.77-.73-1.3.26-1.77.73-.73,1.1-.73,1.77.26,1.3.73,1.77,1.1.73,1.77.73Z"/>
    <path id="m2bef0d38de-27" data-name="m2bef0d38de" class="cls-2" d="m156.8,201.47c.66,0,1.3-.26,1.77-.73s.73-1.1.73-1.77-.26-1.3-.73-1.77-1.1-.73-1.77-.73-1.3.26-1.77.73-.73,1.1-.73,1.77.26,1.3.73,1.77,1.1.73,1.77.73Z"/>
    <path id="m2bef0d38de-28" data-name="m2bef0d38de" class="cls-2" d="m162.64,201.47c.66,0,1.3-.26,1.77-.73s.73-1.1.73-1.77-.26-1.3-.73-1.77-1.1-.73-1.77-.73-1.3.26-1.77.73-.73,1.1-.73,1.77.26,1.3.73,1.77,1.1.73,1.77.73Z"/>
    <path id="m2bef0d38de-29" data-name="m2bef0d38de" class="cls-2" d="m168.47,201.47c.66,0,1.3-.26,1.77-.73s.73-1.1.73-1.77-.26-1.3-.73-1.77-1.1-.73-1.77-.73-1.3.26-1.77.73-.73,1.1-.73,1.77.26,1.3.73,1.77,1.1.73,1.77.73Z"/>
    <path id="m2bef0d38de-30" data-name="m2bef0d38de" class="cls-2" d="m174.31,201.47c.66,0,1.3-.26,1.77-.73s.73-1.1.73-1.77-.26-1.3-.73-1.77-1.1-.73-1.77-.73-1.3.26-1.77.73-.73,1.1-.73,1.77.26,1.3.73,1.77,1.1.73,1.77.73Z"/>
    <path id="m2bef0d38de-31" data-name="m2bef0d38de" class="cls-2" d="m180.14,201.47c.66,0,1.3-.26,1.77-.73s.73-1.1.73-1.77-.26-1.3-.73-1.77-1.1-.73-1.77-.73-1.3.26-1.77.73-.73,1.1-.73,1.77.26,1.3.73,1.77,1.1.73,1.77.73Z"/>
    <path id="m2bef0d38de-32" data-name="m2bef0d38de" class="cls-2" d="m185.98,201.47c.66,0,1.3-.26,1.77-.73s.73-1.1.73-1.77-.26-1.3-.73-1.77-1.1-.73-1.77-.73-1.3.26-1.77.73-.73,1.1-.73,1.77.26,1.3.73,1.77,1.1.73,1.77.73Z"/>
    <path id="m2bef0d38de-33" data-name="m2bef0d38de" class="cls-2" d="m191.81,201.47c.66,0,1.3-.26,1.77-.73s.73-1.1.73-1.77-.26-1.3-.73-1.77-1.1-.73-1.77-.73-1.3.26-1.77.73-.73,1.1-.73,1.77.26,1.3.73,1.77,1.1.73,1.77.73Z"/>
    <path id="m2bef0d38de-34" data-name="m2bef0d38de" class="cls-2" d="m197.65,201.47c.66,0,1.3-.26,1.77-.73s.73-1.1.73-1.77-.26-1.3-.73-1.77-1.1-.73-1.77-.73-1.3.26-1.77.73-.73,1.1-.73,1.77.26,1.3.73,1.77,1.1.73,1.77.73Z"/>
    <path id="m2bef0d38de-35" data-name="m2bef0d38de" class="cls-2" d="m203.48,201.47c.66,0,1.3-.26,1.77-.73s.73-1.1.73-1.77-.26-1.3-.73-1.77-1.1-.73-1.77-.73-1.3.26-1.77.73-.73,1.1-.73,1.77.26,1.3.73,1.77,1.1.73,1.77.73Z"/>
    <path id="m2bef0d38de-36" data-name="m2bef0d38de" class="cls-2" d="m209.32,201.47c.66,0,1.3-.26,1.77-.73s.73-1.1.73-1.77-.26-1.3-.73-1.77-1.1-.73-1.77-.73-1.3.26-1.77.73-.73,1.1-.73,1.77.26,1.3.73,1.77,1.1.73,1.77.73Z"/>
    <path id="m2bef0d38de-37" data-name="m2bef0d38de" class="cls-2" d="m215.16,201.47c.66,0,1.3-.26,1.77-.73s.73-1.1.73-1.77-.26-1.3-.73-1.77-1.1-.73-1.77-.73-1.3.26-1.77.73-.73,1.1-.73,1.77.26,1.3.73,1.77,1.1.73,1.77.73Z"/>
    <path id="m2bef0d38de-38" data-name="m2bef0d38de" class="cls-2" d="m220.99,201.47c.66,0,1.3-.26,1.77-.73s.73-1.1.73-1.77-.26-1.3-.73-1.77-1.1-.73-1.77-.73-1.3.26-1.77.73-.73,1.1-.73,1.77.26,1.3.73,1.77,1.1.73,1.77.73Z"/>
    <path id="m2bef0d38de-39" data-name="m2bef0d38de" class="cls-2" d="m226.83,201.47c.66,0,1.3-.26,1.77-.73s.73-1.1.73-1.77-.26-1.3-.73-1.77-1.1-.73-1.77-.73-1.3.26-1.77.73-.73,1.1-.73,1.77.26,1.3.73,1.77,1.1.73,1.77.73Z"/>
    <path id="m2bef0d38de-40" data-name="m2bef0d38de" class="cls-2" d="m232.66,201.47c.66,0,1.3-.26,1.77-.73s.73-1.1.73-1.77-.26-1.3-.73-1.77-1.1-.73-1.77-.73-1.3.26-1.77.73-.73,1.1-.73,1.77.26,1.3.73,1.77,1.1.73,1.77.73Z"/>
    <path id="m2bef0d38de-41" data-name="m2bef0d38de" class="cls-2" d="m238.5,201.47c.66,0,1.3-.26,1.77-.73s.73-1.1.73-1.77-.26-1.3-.73-1.77-1.1-.73-1.77-.73-1.3.26-1.77.73-.73,1.1-.73,1.77.26,1.3.73,1.77,1.1.73,1.77.73Z"/>
    <path id="m2bef0d38de-42" data-name="m2bef0d38de" class="cls-2" d="m244.33,201.47c.66,0,1.3-.26,1.77-.73s.73-1.1.73-1.77-.26-1.3-.73-1.77-1.1-.73-1.77-.73-1.3.26-1.77.73-.73,1.1-.73,1.77.26,1.3.73,1.77,1.1.73,1.77.73Z"/>
    <path id="m2bef0d38de-43" data-name="m2bef0d38de" class="cls-2" d="m250.17,201.47c.66,0,1.3-.26,1.77-.73s.73-1.1.73-1.77-.26-1.3-.73-1.77-1.1-.73-1.77-.73-1.3.26-1.77.73-.73,1.1-.73,1.77.26,1.3.73,1.77,1.1.73,1.77.73Z"/>
    <path id="m2bef0d38de-44" data-name="m2bef0d38de" class="cls-2" d="m256,201.47c.66,0,1.3-.26,1.77-.73s.73-1.1.73-1.77-.26-1.3-.73-1.77-1.1-.73-1.77-.73-1.3.26-1.77.73-.73,1.1-.73,1.77.26,1.3.73,1.77,1.1.73,1.77.73Z"/>
  </g>
  <g>
    <path class="cls-1" d="m355.32,103.45v-31.84"/>
    <path class="cls-1" d="m361.15,103.45v-31.84"/>
    <path class="cls-1" d="m366.99,103.45v-31.84"/>
    <path class="cls-1" d="m372.82,103.45v-31.84"/>
    <path class="cls-1" d="m378.66,103.45v-31.84"/>
    <path class="cls-1" d="m384.49,103.45v-31.84"/>
    <path class="cls-1" d="m390.33,103.45V7.93"/>
    <path class="cls-1" d="m396.16,103.45V7.93"/>
    <path class="cls-1" d="m402,103.45V7.93"/>
    <path class="cls-1" d="m407.83,103.45V7.93"/>
    <path class="cls-1" d="m413.67,103.45V7.93"/>
    <path class="cls-1" d="m419.5,103.45V7.93"/>
    <path class="cls-1" d="m425.34,103.45V7.93"/>
    <path class="cls-1" d="m431.17,103.45V7.93"/>
    <path class="cls-1" d="m437.01,103.45V7.93"/>
    <path class="cls-1" d="m442.85,103.45V7.93"/>
    <path class="cls-1" d="m448.68,103.45V7.93"/>
    <path class="cls-1" d="m454.52,103.45v-31.84"/>
    <path class="cls-1" d="m460.35,103.45v-31.84"/>
    <path class="cls-1" d="m466.19,103.45v-31.84"/>
    <path class="cls-1" d="m472.02,103.45v-31.84"/>
    <path class="cls-1" d="m477.86,103.45v-31.84"/>
    <path class="cls-1" d="m483.69,103.45v-31.84"/>
    <path class="cls-1" d="m489.53,103.45v31.84"/>
    <path class="cls-1" d="m495.36,103.45v31.84"/>
    <path class="cls-1" d="m501.2,103.45v31.84"/>
    <path class="cls-1" d="m507.03,103.45v31.84"/>
    <path class="cls-1" d="m512.87,103.45v31.84"/>
    <path class="cls-1" d="m518.7,103.45v95.52"/>
    <path class="cls-1" d="m524.54,103.45v95.52"/>
    <path class="cls-1" d="m530.37,103.45v95.52"/>
    <path class="cls-1" d="m536.21,103.45v95.52"/>
    <path class="cls-1" d="m542.04,103.45v95.52"/>
    <path class="cls-1" d="m547.88,103.45v95.52"/>
    <path class="cls-1" d="m553.71,103.45v95.52"/>
    <path class="cls-1" d="m559.55,103.45v95.52"/>
    <path class="cls-1" d="m565.38,103.45v95.52"/>
    <path class="cls-1" d="m571.22,103.45v95.52"/>
    <path class="cls-1" d="m577.05,103.45v95.52"/>
    <path class="cls-1" d="m582.89,103.45v31.84"/>
    <path class="cls-1" d="m588.72,103.45v31.84"/>
    <path class="cls-1" d="m594.56,103.45v31.84"/>
    <path class="cls-1" d="m600.39,103.45v31.84"/>
    <path class="cls-1" d="m606.23,103.45v31.84"/>
    <path class="cls-1" d="m612.06,103.45v31.84"/>
    <path id="mc58a39e785" class="cls-2" d="m355.32,74.11c.66,0,1.3-.26,1.77-.73s.73-1.1.73-1.77-.26-1.3-.73-1.77-1.1-.73-1.77-.73-1.3.26-1.77.73-.73,1.1-.73,1.77.26,1.3.73,1.77,1.1.73,1.77.73Z"/>
    <path id="mc58a39e785-2" data-name="mc58a39e785" class="cls-2" d="m361.15,74.11c.66,0,1.3-.26,1.77-.73s.73-1.1.73-1.77-.26-1.3-.73-1.77-1.1-.73-1.77-.73-1.3.26-1.77.73-.73,1.1-.73,1.77.26,1.3.73,1.77,1.1.73,1.77.73Z"/>
    <path id="mc58a39e785-3" data-name="mc58a39e785" class="cls-2" d="m366.99,74.11c.66,0,1.3-.26,1.77-.73s.73-1.1.73-1.77-.26-1.3-.73-1.77-1.1-.73-1.77-.73-1.3.26-1.77.73-.73,1.1-.73,1.77.26,1.3.73,1.77,1.1.73,1.77.73Z"/>
    <path id="mc58a39e785-4" data-name="mc58a39e785" class="cls-2" d="m372.82,74.11c.66,0,1.3-.26,1.77-.73s.73-1.1.73-1.77-.26-1.3-.73-1.77-1.1-.73-1.77-.73-1.3.26-1.77.73-.73,1.1-.73,1.77.26,1.3.73,1.77,1.1.73,1.77.73Z"/>
    <path id="mc58a39e785-5" data-name="mc58a39e785" class="cls-2" d="m378.66,74.11c.66,0,1.3-.26,1.77-.73s.73-1.1.73-1.77-.26-1.3-.73-1.77-1.1-.73-1.77-.73-1.3.26-1.77.73-.73,1.1-.73,1.77.26,1.3.73,1.77,1.1.73,1.77.73Z"/>
    <path id="mc58a39e785-6" data-name="mc58a39e785" class="cls-2" d="m384.49,74.11c.66,0,1.3-.26,1.77-.73s.73-1.1.73-1.77-.26-1.3-.73-1.77-1.1-.73-1.77-.73-1.3.26-1.77.73-.73,1.1-.73,1.77.26,1.3.73,1.77,1.1.73,1.77.73Z"/>
    <path id="mc58a39e785-7" data-name="mc58a39e785" class="cls-2" d="m390.33,10.43c.66,0,1.3-.26,1.77-.73s.73-1.1.73-1.77-.26-1.3-.73-1.77-1.1-.73-1.77-.73-1.3.26-1.77.73-.73,1.1-.73,1.77.26,1.3.73,1.77,1.1.73,1.77.73Z"/>
    <path id="mc58a39e785-8" data-name="mc58a39e785" class="cls-2" d="m396.16,10.43c.66,0,1.3-.26,1.77-.73s.73-1.1.73-1.77-.26-1.3-.73-1.77-1.1-.73-1.77-.73-1.3.26-1.77.73-.73,1.1-.73,1.77.26,1.3.73,1.77,1.1.73,1.77.73Z"/>
    <path id="mc58a39e785-9" data-name="mc58a39e785" class="cls-2" d="m402,10.43c.66,0,1.3-.26,1.77-.73s.73-1.1.73-1.77-.26-1.3-.73-1.77-1.1-.73-1.77-.73-1.3.26-1.77.73-.73,1.1-.73,1.77.26,1.3.73,1.77,1.1.73,1.77.73Z"/>
    <path id="mc58a39e785-10" data-name="mc58a39e785" class="cls-2" d="m407.83,10.43c.66,0,1.3-.26,1.77-.73s.73-1.1.73-1.77-.26-1.3-.73-1.77-1.1-.73-1.77-.73-1.3.26-1.77.73-.73,1.1-.73,1.77.26,1.3.73,1.77,1.1.73,1.77.73Z"/>
    <path id="mc58a39e785-11" data-name="mc58a39e785" class="cls-2" d="m413.67,10.43c.66,0,1.3-.26,1.77-.73s.73-1.1.73-1.77-.26-1.3-.73-1.77-1.1-.73-1.77-.73-1.3.26-1.77.73-.73,1.1-.73,1.77.26,1.3.73,1.77,1.1.73,1.77.73Z"/>
    <path id="mc58a39e785-12" data-name="mc58a39e785" class="cls-2" d="m419.5,10.43c.66,0,1.3-.26,1.77-.73s.73-1.1.73-1.77-.26-1.3-.73-1.77-1.1-.73-1.77-.73-1.3.26-1.77.73-.73,1.1-.73,1.77.26,1.3.73,1.77,1.1.73,1.77.73Z"/>
    <path id="mc58a39e785-13" data-name="mc58a39e785" class="cls-2" d="m425.34,10.43c.66,0,1.3-.26,1.77-.73s.73-1.1.73-1.77-.26-1.3-.73-1.77-1.1-.73-1.77-.73-1.3.26-1.77.73-.73,1.1-.73,1.77.26,1.3.73,1.77,1.1.73,1.77.73Z"/>
    <path id="mc58a39e785-14" data-name="mc58a39e785" class="cls-2" d="m431.17,10.43c.66,0,1.3-.26,1.77-.73s.73-1.1.73-1.77-.26-1.3-.73-1.77-1.1-.73-1.77-.73-1.3.26-1.77.73-.73,1.1-.73,1.77.26,1.3.73,1.77,1.1.73,1.77.73Z"/>
    <path id="mc58a39e785-15" data-name="mc58a39e785" class="cls-2" d="m437.01,10.43c.66,0,1.3-.26,1.77-.73s.73-1.1.73-1.77-.26-1.3-.73-1.77-1.1-.73-1.77-.73-1.3.26-1.77.73-.73,1.1-.73,1.77.26,1.3.73,1.77,1.1.73,1.77.73Z"/>
    <path id="mc58a39e785-16" data-name="mc58a39e785" class="cls-2" d="m442.85,10.43c.66,0,1.3-.26,1.77-.73s.73-1.1.73-1.77-.26-1.3-.73-1.77-1.1-.73-1.77-.73-1.3.26-1.77.73-.73,1.1-.73,1.77.26,1.3.73,1.77,1.1.73,1.77.73Z"/>
    <path id="mc58a39e785-17" data-name="mc58a39e785" class="cls-2" d="m448.68,10.43c.66,0,1.3-.26,1.77-.73s.73-1.1.73-1.77-.26-1.3-.73-1.77-1.1-.73-1.77-.73-1.3.26-1.77.73-.73,1.1-.73,1.77.26,1.3.73,1.77,1.1.73,1.77.73Z"/>
    <path id="mc58a39e785-18" data-name="mc58a39e785" class="cls-2" d="m454.52,74.11c.66,0,1.3-.26,1.77-.73s.73-1.1.73-1.77-.26-1.3-.73-1.77-1.1-.73-1.77-.73-1.3.26-1.77.73-.73,1.1-.73,1.77.26,1.3.73,1.77,1.1.73,1.77.73Z"/>
    <path id="mc58a39e785-19" data-name="mc58a39e785" class="cls-2" d="m460.35,74.11c.66,0,1.3-.26,1.77-.73s.73-1.1.73-1.77-.26-1.3-.73-1.77-1.1-.73-1.77-.73-1.3.26-1.77.73-.73,1.1-.73,1.77.26,1.3.73,1.77,1.1.73,1.77.73Z"/>
    <path id="mc58a39e785-20" data-name="mc58a39e785" class="cls-2" d="m466.19,74.11c.66,0,1.3-.26,1.77-.73s.73-1.1.73-1.77-.26-1.3-.73-1.77-1.1-.73-1.77-.73-1.3.26-1.77.73-.73,1.1-.73,1.77.26,1.3.73,1.77,1.1.73,1.77.73Z"/>
    <path id="mc58a39e785-21" data-name="mc58a39e785" class="cls-2" d="m472.02,74.11c.66,0,1.3-.26,1.77-.73s.73-1.1.73-1.77-.26-1.3-.73-1.77-1.1-.73-1.77-.73-1.3.26-1.77.73-.73,1.1-.73,1.77.26,1.3.73,1.77,1.1.73,1.77.73Z"/>
    <path id="mc58a39e785-22" data-name="mc58a39e785" class="cls-2" d="m477.86,74.11c.66,0,1.3-.26,1.77-.73s.73-1.1.73-1.77-.26-1.3-.73-1.77-1.1-.73-1.77-.73-1.3.26-1.77.73-.73,1.1-.73,1.77.26,1.3.73,1.77,1.1.73,1.77.73Z"/>
    <path id="mc58a39e785-23" data-name="mc58a39e785" class="cls-2" d="m483.69,74.11c.66,0,1.3-.26,1.77-.73s.73-1.1.73-1.77-.26-1.3-.73-1.77-1.1-.73-1.77-.73-1.3.26-1.77.73-.73,1.1-.73,1.77.26,1.3.73,1.77,1.1.73,1.77.73Z"/>
    <path id="mc58a39e785-24" data-name="mc58a39e785" class="cls-2" d="m489.53,137.79c.66,0,1.3-.26,1.77-.73s.73-1.1.73-1.77-.26-1.3-.73-1.77-1.1-.73-1.77-.73-1.3.26-1.77.73-.73,1.1-.73,1.77.26,1.3.73,1.77,1.1.73,1.77.73Z"/>
    <path id="mc58a39e785-25" data-name="mc58a39e785" class="cls-2" d="m495.36,137.79c.66,0,1.3-.26,1.77-.73s.73-1.1.73-1.77-.26-1.3-.73-1.77-1.1-.73-1.77-.73-1.3.26-1.77.73-.73,1.1-.73,1.77.26,1.3.73,1.77,1.1.73,1.77.73Z"/>
    <path id="mc58a39e785-26" data-name="mc58a39e785" class="cls-2" d="m501.2,137.79c.66,0,1.3-.26,1.77-.73s.73-1.1.73-1.77-.26-1.3-.73-1.77-1.1-.73-1.77-.73-1.3.26-1.77.73-.73,1.1-.73,1.77.26,1.3.73,1.77,1.1.73,1.77.73Z"/>
    <path id="mc58a39e785-27" data-name="mc58a39e785" class="cls-2" d="m507.03,137.79c.66,0,1.3-.26,1.77-.73s.73-1.1.73-1.77-.26-1.3-.73-1.77-1.1-.73-1.77-.73-1.3.26-1.77.73-.73,1.1-.73,1.77.26,1.3.73,1.77,1.1.73,1.77.73Z"/>
    <path id="mc58a39e785-28" data-name="mc58a39e785" class="cls-2" d="m512.87,137.79c.66,0,1.3-.26,1.77-.73s.73-1.1.73-1.77-.26-1.3-.73-1.77-1.1-.73-1.77-.73-1.3.26-1.77.73-.73,1.1-.73,1.77.26,1.3.73,1.77,1.1.73,1.77.73Z"/>
    <path id="mc58a39e785-29" data-name="mc58a39e785" class="cls-2" d="m518.7,201.47c.66,0,1.3-.26,1.77-.73s.73-1.1.73-1.77-.26-1.3-.73-1.77-1.1-.73-1.77-.73-1.3.26-1.77.73-.73,1.1-.73,1.77.26,1.3.73,1.77,1.1.73,1.77.73Z"/>
    <path id="mc58a39e785-30" data-name="mc58a39e785" class="cls-2" d="m524.54,201.47c.66,0,1.3-.26,1.77-.73s.73-1.1.73-1.77-.26-1.3-.73-1.77-1.1-.73-1.77-.73-1.3.26-1.77.73-.73,1.1-.73,1.77.26,1.3.73,1.77,1.1.73,1.77.73Z"/>
    <path id="mc58a39e785-31" data-name="mc58a39e785" class="cls-2" d="m530.37,201.47c.66,0,1.3-.26,1.77-.73s.73-1.1.73-1.77-.26-1.3-.73-1.77-1.1-.73-1.77-.73-1.3.26-1.77.73-.73,1.1-.73,1.77.26,1.3.73,1.77,1.1.73,1.77.73Z"/>
    <path id="mc58a39e785-32" data-name="mc58a39e785" class="cls-2" d="m536.21,201.47c.66,0,1.3-.26,1.77-.73s.73-1.1.73-1.77-.26-1.3-.73-1.77-1.1-.73-1.77-.73-1.3.26-1.77.73-.73,1.1-.73,1.77.26,1.3.73,1.77,1.1.73,1.77.73Z"/>
    <path id="mc58a39e785-33" data-name="mc58a39e785" class="cls-2" d="m542.04,201.47c.66,0,1.3-.26,1.77-.73s.73-1.1.73-1.77-.26-1.3-.73-1.77-1.1-.73-1.77-.73-1.3.26-1.77.73-.73,1.1-.73,1.77.26,1.3.73,1.77,1.1.73,1.77.73Z"/>
    <path id="mc58a39e785-34" data-name="mc58a39e785" class="cls-2" d="m547.88,201.47c.66,0,1.3-.26,1.77-.73s.73-1.1.73-1.77-.26-1.3-.73-1.77-1.1-.73-1.77-.73-1.3.26-1.77.73-.73,1.1-.73,1.77.26,1.3.73,1.77,1.1.73,1.77.73Z"/>
    <path id="mc58a39e785-35" data-name="mc58a39e785" class="cls-2" d="m553.71,201.47c.66,0,1.3-.26,1.77-.73s.73-1.1.73-1.77-.26-1.3-.73-1.77-1.1-.73-1.77-.73-1.3.26-1.77.73-.73,1.1-.73,1.77.26,1.3.73,1.77,1.1.73,1.77.73Z"/>
    <path id="mc58a39e785-36" data-name="mc58a39e785" class="cls-2" d="m559.55,201.47c.66,0,1.3-.26,1.77-.73s.73-1.1.73-1.77-.26-1.3-.73-1.77-1.1-.73-1.77-.73-1.3.26-1.77.73-.73,1.1-.73,1.77.26,1.3.73,1.77,1.1.73,1.77.73Z"/>
    <path id="mc58a39e785-37" data-name="mc58a39e785" class="cls-2" d="m565.38,201.47c.66,0,1.3-.26,1.77-.73s.73-1.1.73-1.77-.26-1.3-.73-1.77-1.1-.73-1.77-.73-1.3.26-1.77.73-.73,1.1-.73,1.77.26,1.3.73,1.77,1.1.73,1.77.73Z"/>
    <path id="mc58a39e785-38" data-name="mc58a39e785" class="cls-2" d="m571.22,201.47c.66,0,1.3-.26,1.77-.73s.73-1.1.73-1.77-.26-1.3-.73-1.77-1.1-.73-1.77-.73-1.3.26-1.77.73-.73,1.1-.73,1.77.26,1.3.73,1.77,1.1.73,1.77.73Z"/>
    <path id="mc58a39e785-39" data-name="mc58a39e785" class="cls-2" d="m577.05,201.47c.66,0,1.3-.26,1.77-.73s.73-1.1.73-1.77-.26-1.3-.73-1.77-1.1-.73-1.77-.73-1.3.26-1.77.73-.73,1.1-.73,1.77.26,1.3.73,1.77,1.1.73,1.77.73Z"/>
    <path id="mc58a39e785-40" data-name="mc58a39e785" class="cls-2" d="m582.89,137.79c.66,0,1.3-.26,1.77-.73s.73-1.1.73-1.77-.26-1.3-.73-1.77-1.1-.73-1.77-.73-1.3.26-1.77.73-.73,1.1-.73,1.77.26,1.3.73,1.77,1.1.73,1.77.73Z"/>
    <path id="mc58a39e785-41" data-name="mc58a39e785" class="cls-2" d="m588.72,137.79c.66,0,1.3-.26,1.77-.73s.73-1.1.73-1.77-.26-1.3-.73-1.77-1.1-.73-1.77-.73-1.3.26-1.77.73-.73,1.1-.73,1.77.26,1.3.73,1.77,1.1.73,1.77.73Z"/>
    <path id="mc58a39e785-42" data-name="mc58a39e785" class="cls-2" d="m594.56,137.79c.66,0,1.3-.26,1.77-.73s.73-1.1.73-1.77-.26-1.3-.73-1.77-1.1-.73-1.77-.73-1.3.26-1.77.73-.73,1.1-.73,1.77.26,1.3.73,1.77,1.1.73,1.77.73Z"/>
    <path id="mc58a39e785-43" data-name="mc58a39e785" class="cls-2" d="m600.39,137.79c.66,0,1.3-.26,1.77-.73s.73-1.1.73-1.77-.26-1.3-.73-1.77-1.1-.73-1.77-.73-1.3.26-1.77.73-.73,1.1-.73,1.77.26,1.3.73,1.77,1.1.73,1.77.73Z"/>
    <path id="mc58a39e785-44" data-name="mc58a39e785" class="cls-2" d="m606.23,137.79c.66,0,1.3-.26,1.77-.73s.73-1.1.73-1.77-.26-1.3-.73-1.77-1.1-.73-1.77-.73-1.3.26-1.77.73-.73,1.1-.73,1.77.26,1.3.73,1.77,1.1.73,1.77.73Z"/>
    <path id="mc58a39e785-45" data-name="mc58a39e785" class="cls-2" d="m612.06,137.79c.66,0,1.3-.26,1.77-.73s.73-1.1.73-1.77-.26-1.3-.73-1.77-1.1-.73-1.77-.73-1.3.26-1.77.73-.73,1.1-.73,1.77.26,1.3.73,1.77,1.1.73,1.77.73Z"/>
  </g>
  <g>
    <path class="cls-1" d="m1061.61,103.45v-6.37"/>
    <path class="cls-1" d="m1067.44,103.45v-19.1"/>
    <path class="cls-1" d="m1073.28,103.45v-31.84"/>
    <path class="cls-1" d="m1079.11,103.45v-44.58"/>
    <path class="cls-1" d="m1084.95,103.45v-57.31"/>
    <path class="cls-1" d="m1090.78,103.45v-57.31"/>
    <path class="cls-1" d="m1096.62,103.45V33.4"/>
    <path class="cls-1" d="m1102.45,103.45V20.66"/>
    <path class="cls-1" d="m1108.29,103.45V20.66"/>
    <path class="cls-1" d="m1114.12,103.45V7.93"/>
    <path class="cls-1" d="m1119.96,103.45V7.93"/>
    <path class="cls-1" d="m1125.8,103.45V7.93"/>
    <path class="cls-1" d="m1131.63,103.45V7.93"/>
    <path class="cls-1" d="m1137.47,103.45V7.93"/>
    <path class="cls-1" d="m1143.3,103.45V20.66"/>
    <path class="cls-1" d="m1149.14,103.45V20.66"/>
    <path class="cls-1" d="m1154.97,103.45V33.4"/>
    <path class="cls-1" d="m1160.81,103.45v-57.31"/>
    <path class="cls-1" d="m1166.64,103.45v-57.31"/>
    <path class="cls-1" d="m1172.48,103.45v-44.58"/>
    <path class="cls-1" d="m1178.31,103.45v-31.84"/>
    <path class="cls-1" d="m1184.15,103.45v-19.1"/>
    <path class="cls-1" d="m1189.98,103.45v-6.37"/>
    <path class="cls-1" d="m1195.82,103.45v19.1"/>
    <path class="cls-1" d="m1201.65,103.45v31.84"/>
    <path class="cls-1" d="m1207.49,103.45v44.58"/>
    <path class="cls-1" d="m1213.32,103.45v57.31"/>
    <path class="cls-1" d="m1219.16,103.45v57.31"/>
    <path class="cls-1" d="m1224.99,103.45v70.05"/>
    <path class="cls-1" d="m1230.83,103.45v82.79"/>
    <path class="cls-1" d="m1236.66,103.45v82.79"/>
    <path class="cls-1" d="m1242.5,103.45v95.52"/>
    <path class="cls-1" d="m1248.33,103.45v95.52"/>
    <path class="cls-1" d="m1254.17,103.45v95.52"/>
    <path class="cls-1" d="m1260,103.45v95.52"/>
    <path class="cls-1" d="m1265.84,103.45v95.52"/>
    <path class="cls-1" d="m1271.67,103.45v82.79"/>
    <path class="cls-1" d="m1277.51,103.45v82.79"/>
    <path class="cls-1" d="m1283.34,103.45v70.05"/>
    <path class="cls-1" d="m1289.18,103.45v57.31"/>
    <path class="cls-1" d="m1295.01,103.45v57.31"/>
    <path class="cls-1" d="m1300.85,103.45v44.58"/>
    <path class="cls-1" d="m1306.68,103.45v31.84"/>
    <path class="cls-1" d="m1312.52,103.45v19.1"/>
    <path class="cls-1" d="m1318.35,103.45v6.37"/>
    <path id="m6d34ec28a4" class="cls-2" d="m1061.61,99.58c.66,0,1.3-.26,1.77-.73s.73-1.1.73-1.77-.26-1.3-.73-1.77-1.1-.73-1.77-.73-1.3.26-1.77.73-.73,1.1-.73,1.77.26,1.3.73,1.77,1.1.73,1.77.73Z"/>
    <path id="m6d34ec28a4-2" data-name="m6d34ec28a4" class="cls-2" d="m1067.44,86.85c.66,0,1.3-.26,1.77-.73s.73-1.1.73-1.77-.26-1.3-.73-1.77-1.1-.73-1.77-.73-1.3.26-1.77.73-.73,1.1-.73,1.77.26,1.3.73,1.77,1.1.73,1.77.73Z"/>
    <path id="m6d34ec28a4-3" data-name="m6d34ec28a4" class="cls-2" d="m1073.28,74.11c.66,0,1.3-.26,1.77-.73s.73-1.1.73-1.77-.26-1.3-.73-1.77-1.1-.73-1.77-.73-1.3.26-1.77.73-.73,1.1-.73,1.77.26,1.3.73,1.77,1.1.73,1.77.73Z"/>
    <path id="m6d34ec28a4-4" data-name="m6d34ec28a4" class="cls-2" d="m1079.11,61.37c.66,0,1.3-.26,1.77-.73s.73-1.1.73-1.77-.26-1.3-.73-1.77-1.1-.73-1.77-.73-1.3.26-1.77.73-.73,1.1-.73,1.77.26,1.3.73,1.77,1.1.73,1.77.73Z"/>
    <path id="m6d34ec28a4-5" data-name="m6d34ec28a4" class="cls-2" d="m1084.95,48.64c.66,0,1.3-.26,1.77-.73s.73-1.1.73-1.77-.26-1.3-.73-1.77-1.1-.73-1.77-.73-1.3.26-1.77.73-.73,1.1-.73,1.77.26,1.3.73,1.77,1.1.73,1.77.73Z"/>
    <path id="m6d34ec28a4-6" data-name="m6d34ec28a4" class="cls-2" d="m1090.78,48.64c.66,0,1.3-.26,1.77-.73s.73-1.1.73-1.77-.26-1.3-.73-1.77-1.1-.73-1.77-.73-1.3.26-1.77.73-.73,1.1-.73,1.77.26,1.3.73,1.77,1.1.73,1.77.73Z"/>
    <path id="m6d34ec28a4-7" data-name="m6d34ec28a4" class="cls-2" d="m1096.62,35.9c.66,0,1.3-.26,1.77-.73s.73-1.1.73-1.77-.26-1.3-.73-1.77-1.1-.73-1.77-.73-1.3.26-1.77.73-.73,1.1-.73,1.77.26,1.3.73,1.77,1.1.73,1.77.73Z"/>
    <path id="m6d34ec28a4-8" data-name="m6d34ec28a4" class="cls-2" d="m1102.45,23.16c.66,0,1.3-.26,1.77-.73s.73-1.1.73-1.77-.26-1.3-.73-1.77-1.1-.73-1.77-.73-1.3.26-1.77.73-.73,1.1-.73,1.77.26,1.3.73,1.77,1.1.73,1.77.73Z"/>
    <path id="m6d34ec28a4-9" data-name="m6d34ec28a4" class="cls-2" d="m1108.29,23.16c.66,0,1.3-.26,1.77-.73s.73-1.1.73-1.77-.26-1.3-.73-1.77-1.1-.73-1.77-.73-1.3.26-1.77.73-.73,1.1-.73,1.77.26,1.3.73,1.77,1.1.73,1.77.73Z"/>
    <path id="m6d34ec28a4-10" data-name="m6d34ec28a4" class="cls-2" d="m1114.12,10.43c.66,0,1.3-.26,1.77-.73s.73-1.1.73-1.77-.26-1.3-.73-1.77-1.1-.73-1.77-.73-1.3.26-1.77.73-.73,1.1-.73,1.77.26,1.3.73,1.77,1.1.73,1.77.73Z"/>
    <path id="m6d34ec28a4-11" data-name="m6d34ec28a4" class="cls-2" d="m1119.96,10.43c.66,0,1.3-.26,1.77-.73s.73-1.1.73-1.77-.26-1.3-.73-1.77-1.1-.73-1.77-.73-1.3.26-1.77.73-.73,1.1-.73,1.77.26,1.3.73,1.77,1.1.73,1.77.73Z"/>
    <path id="m6d34ec28a4-12" data-name="m6d34ec28a4" class="cls-2" d="m1125.8,10.43c.66,0,1.3-.26,1.77-.73s.73-1.1.73-1.77-.26-1.3-.73-1.77-1.1-.73-1.77-.73-1.3.26-1.77.73-.73,1.1-.73,1.77.26,1.3.73,1.77,1.1.73,1.77.73Z"/>
    <path id="m6d34ec28a4-13" data-name="m6d34ec28a4" class="cls-2" d="m1131.63,10.43c.66,0,1.3-.26,1.77-.73s.73-1.1.73-1.77-.26-1.3-.73-1.77-1.1-.73-1.77-.73-1.3.26-1.77.73-.73,1.1-.73,1.77.26,1.3.73,1.77,1.1.73,1.77.73Z"/>
    <path id="m6d34ec28a4-14" data-name="m6d34ec28a4" class="cls-2" d="m1137.47,10.43c.66,0,1.3-.26,1.77-.73s.73-1.1.73-1.77-.26-1.3-.73-1.77-1.1-.73-1.77-.73-1.3.26-1.77.73-.73,1.1-.73,1.77.26,1.3.73,1.77,1.1.73,1.77.73Z"/>
    <path id="m6d34ec28a4-15" data-name="m6d34ec28a4" class="cls-2" d="m1143.3,23.16c.66,0,1.3-.26,1.77-.73s.73-1.1.73-1.77-.26-1.3-.73-1.77-1.1-.73-1.77-.73-1.3.26-1.77.73-.73,1.1-.73,1.77.26,1.3.73,1.77,1.1.73,1.77.73Z"/>
    <path id="m6d34ec28a4-16" data-name="m6d34ec28a4" class="cls-2" d="m1149.14,23.16c.66,0,1.3-.26,1.77-.73s.73-1.1.73-1.77-.26-1.3-.73-1.77-1.1-.73-1.77-.73-1.3.26-1.77.73-.73,1.1-.73,1.77.26,1.3.73,1.77,1.1.73,1.77.73Z"/>
    <path id="m6d34ec28a4-17" data-name="m6d34ec28a4" class="cls-2" d="m1154.97,35.9c.66,0,1.3-.26,1.77-.73s.73-1.1.73-1.77-.26-1.3-.73-1.77-1.1-.73-1.77-.73-1.3.26-1.77.73-.73,1.1-.73,1.77.26,1.3.73,1.77,1.1.73,1.77.73Z"/>
    <path id="m6d34ec28a4-18" data-name="m6d34ec28a4" class="cls-2" d="m1160.81,48.64c.66,0,1.3-.26,1.77-.73s.73-1.1.73-1.77-.26-1.3-.73-1.77-1.1-.73-1.77-.73-1.3.26-1.77.73-.73,1.1-.73,1.77.26,1.3.73,1.77,1.1.73,1.77.73Z"/>
    <path id="m6d34ec28a4-19" data-name="m6d34ec28a4" class="cls-2" d="m1166.64,48.64c.66,0,1.3-.26,1.77-.73s.73-1.1.73-1.77-.26-1.3-.73-1.77-1.1-.73-1.77-.73-1.3.26-1.77.73-.73,1.1-.73,1.77.26,1.3.73,1.77,1.1.73,1.77.73Z"/>
    <path id="m6d34ec28a4-20" data-name="m6d34ec28a4" class="cls-2" d="m1172.48,61.37c.66,0,1.3-.26,1.77-.73s.73-1.1.73-1.77-.26-1.3-.73-1.77-1.1-.73-1.77-.73-1.3.26-1.77.73-.73,1.1-.73,1.77.26,1.3.73,1.77,1.1.73,1.77.73Z"/>
    <path id="m6d34ec28a4-21" data-name="m6d34ec28a4" class="cls-2" d="m1178.31,74.11c.66,0,1.3-.26,1.77-.73s.73-1.1.73-1.77-.26-1.3-.73-1.77-1.1-.73-1.77-.73-1.3.26-1.77.73-.73,1.1-.73,1.77.26,1.3.73,1.77,1.1.73,1.77.73Z"/>
    <path id="m6d34ec28a4-22" data-name="m6d34ec28a4" class="cls-2" d="m1184.15,86.85c.66,0,1.3-.26,1.77-.73s.73-1.1.73-1.77-.26-1.3-.73-1.77-1.1-.73-1.77-.73-1.3.26-1.77.73-.73,1.1-.73,1.77.26,1.3.73,1.77,1.1.73,1.77.73Z"/>
    <path id="m6d34ec28a4-23" data-name="m6d34ec28a4" class="cls-2" d="m1189.98,99.58c.66,0,1.3-.26,1.77-.73s.73-1.1.73-1.77-.26-1.3-.73-1.77-1.1-.73-1.77-.73-1.3.26-1.77.73-.73,1.1-.73,1.77.26,1.3.73,1.77,1.1.73,1.77.73Z"/>
    <path id="m6d34ec28a4-24" data-name="m6d34ec28a4" class="cls-2" d="m1195.82,125.05c.66,0,1.3-.26,1.77-.73s.73-1.1.73-1.77-.26-1.3-.73-1.77-1.1-.73-1.77-.73-1.3.26-1.77.73-.73,1.1-.73,1.77.26,1.3.73,1.77,1.1.73,1.77.73Z"/>
    <path id="m6d34ec28a4-25" data-name="m6d34ec28a4" class="cls-2" d="m1201.65,137.79c.66,0,1.3-.26,1.77-.73s.73-1.1.73-1.77-.26-1.3-.73-1.77-1.1-.73-1.77-.73-1.3.26-1.77.73-.73,1.1-.73,1.77.26,1.3.73,1.77,1.1.73,1.77.73Z"/>
    <path id="m6d34ec28a4-26" data-name="m6d34ec28a4" class="cls-2" d="m1207.49,150.53c.66,0,1.3-.26,1.77-.73s.73-1.1.73-1.77-.26-1.3-.73-1.77-1.1-.73-1.77-.73-1.3.26-1.77.73-.73,1.1-.73,1.77.26,1.3.73,1.77,1.1.73,1.77.73Z"/>
    <path id="m6d34ec28a4-27" data-name="m6d34ec28a4" class="cls-2" d="m1213.32,163.26c.66,0,1.3-.26,1.77-.73s.73-1.1.73-1.77-.26-1.3-.73-1.77-1.1-.73-1.77-.73-1.3.26-1.77.73-.73,1.1-.73,1.77.26,1.3.73,1.77,1.1.73,1.77.73Z"/>
    <path id="m6d34ec28a4-28" data-name="m6d34ec28a4" class="cls-2" d="m1219.16,163.26c.66,0,1.3-.26,1.77-.73s.73-1.1.73-1.77-.26-1.3-.73-1.77-1.1-.73-1.77-.73-1.3.26-1.77.73-.73,1.1-.73,1.77.26,1.3.73,1.77,1.1.73,1.77.73Z"/>
    <path id="m6d34ec28a4-29" data-name="m6d34ec28a4" class="cls-2" d="m1224.99,176c.66,0,1.3-.26,1.77-.73s.73-1.1.73-1.77-.26-1.3-.73-1.77-1.1-.73-1.77-.73-1.3.26-1.77.73-.73,1.1-.73,1.77.26,1.3.73,1.77,1.1.73,1.77.73Z"/>
    <path id="m6d34ec28a4-30" data-name="m6d34ec28a4" class="cls-2" d="m1230.83,188.74c.66,0,1.3-.26,1.77-.73s.73-1.1.73-1.77-.26-1.3-.73-1.77-1.1-.73-1.77-.73-1.3.26-1.77.73-.73,1.1-.73,1.77.26,1.3.73,1.77,1.1.73,1.77.73Z"/>
    <path id="m6d34ec28a4-31" data-name="m6d34ec28a4" class="cls-2" d="m1236.66,188.74c.66,0,1.3-.26,1.77-.73s.73-1.1.73-1.77-.26-1.3-.73-1.77-1.1-.73-1.77-.73-1.3.26-1.77.73-.73,1.1-.73,1.77.26,1.3.73,1.77,1.1.73,1.77.73Z"/>
    <path id="m6d34ec28a4-32" data-name="m6d34ec28a4" class="cls-2" d="m1242.5,201.47c.66,0,1.3-.26,1.77-.73s.73-1.1.73-1.77-.26-1.3-.73-1.77-1.1-.73-1.77-.73-1.3.26-1.77.73-.73,1.1-.73,1.77.26,1.3.73,1.77,1.1.73,1.77.73Z"/>
    <path id="m6d34ec28a4-33" data-name="m6d34ec28a4" class="cls-2" d="m1248.33,201.47c.66,0,1.3-.26,1.77-.73s.73-1.1.73-1.77-.26-1.3-.73-1.77-1.1-.73-1.77-.73-1.3.26-1.77.73-.73,1.1-.73,1.77.26,1.3.73,1.77,1.1.73,1.77.73Z"/>
    <path id="m6d34ec28a4-34" data-name="m6d34ec28a4" class="cls-2" d="m1254.17,201.47c.66,0,1.3-.26,1.77-.73s.73-1.1.73-1.77-.26-1.3-.73-1.77-1.1-.73-1.77-.73-1.3.26-1.77.73-.73,1.1-.73,1.77.26,1.3.73,1.77,1.1.73,1.77.73Z"/>
    <path id="m6d34ec28a4-35" data-name="m6d34ec28a4" class="cls-2" d="m1260,201.47c.66,0,1.3-.26,1.77-.73s.73-1.1.73-1.77-.26-1.3-.73-1.77-1.1-.73-1.77-.73-1.3.26-1.77.73-.73,1.1-.73,1.77.26,1.3.73,1.77,1.1.73,1.77.73Z"/>
    <path id="m6d34ec28a4-36" data-name="m6d34ec28a4" class="cls-2" d="m1265.84,201.47c.66,0,1.3-.26,1.77-.73s.73-1.1.73-1.77-.26-1.3-.73-1.77-1.1-.73-1.77-.73-1.3.26-1.77.73-.73,1.1-.73,1.77.26,1.3.73,1.77,1.1.73,1.77.73Z"/>
    <path id="m6d34ec28a4-37" data-name="m6d34ec28a4" class="cls-2" d="m1271.67,188.74c.66,0,1.3-.26,1.77-.73s.73-1.1.73-1.77-.26-1.3-.73-1.77-1.1-.73-1.77-.73-1.3.26-1.77.73-.73,1.1-.73,1.77.26,1.3.73,1.77,1.1.73,1.77.73Z"/>
    <path id="m6d34ec28a4-38" data-name="m6d34ec28a4" class="cls-2" d="m1277.51,188.74c.66,0,1.3-.26,1.77-.73s.73-1.1.73-1.77-.26-1.3-.73-1.77-1.1-.73-1.77-.73-1.3.26-1.77.73-.73,1.1-.73,1.77.26,1.3.73,1.77,1.1.73,1.77.73Z"/>
    <path id="m6d34ec28a4-39" data-name="m6d34ec28a4" class="cls-2" d="m1283.34,176c.66,0,1.3-.26,1.77-.73s.73-1.1.73-1.77-.26-1.3-.73-1.77-1.1-.73-1.77-.73-1.3.26-1.77.73-.73,1.1-.73,1.77.26,1.3.73,1.77,1.1.73,1.77.73Z"/>
    <path id="m6d34ec28a4-40" data-name="m6d34ec28a4" class="cls-2" d="m1289.18,163.26c.66,0,1.3-.26,1.77-.73s.73-1.1.73-1.77-.26-1.3-.73-1.77-1.1-.73-1.77-.73-1.3.26-1.77.73-.73,1.1-.73,1.77.26,1.3.73,1.77,1.1.73,1.77.73Z"/>
    <path id="m6d34ec28a4-41" data-name="m6d34ec28a4" class="cls-2" d="m1295.01,163.26c.66,0,1.3-.26,1.77-.73s.73-1.1.73-1.77-.26-1.3-.73-1.77-1.1-.73-1.77-.73-1.3.26-1.77.73-.73,1.1-.73,1.77.26,1.3.73,1.77,1.1.73,1.77.73Z"/>
    <path id="m6d34ec28a4-42" data-name="m6d34ec28a4" class="cls-2" d="m1300.85,150.53c.66,0,1.3-.26,1.77-.73s.73-1.1.73-1.77-.26-1.3-.73-1.77-1.1-.73-1.77-.73-1.3.26-1.77.73-.73,1.1-.73,1.77.26,1.3.73,1.77,1.1.73,1.77.73Z"/>
    <path id="m6d34ec28a4-43" data-name="m6d34ec28a4" class="cls-2" d="m1306.68,137.79c.66,0,1.3-.26,1.77-.73s.73-1.1.73-1.77-.26-1.3-.73-1.77-1.1-.73-1.77-.73-1.3.26-1.77.73-.73,1.1-.73,1.77.26,1.3.73,1.77,1.1.73,1.77.73Z"/>
    <path id="m6d34ec28a4-44" data-name="m6d34ec28a4" class="cls-2" d="m1312.52,125.05c.66,0,1.3-.26,1.77-.73s.73-1.1.73-1.77-.26-1.3-.73-1.77-1.1-.73-1.77-.73-1.3.26-1.77.73-.73,1.1-.73,1.77.26,1.3.73,1.77,1.1.73,1.77.73Z"/>
    <path id="m6d34ec28a4-45" data-name="m6d34ec28a4" class="cls-2" d="m1318.35,112.32c.66,0,1.3-.26,1.77-.73s.73-1.1.73-1.77-.26-1.3-.73-1.77-1.1-.73-1.77-.73-1.3.26-1.77.73-.73,1.1-.73,1.77.26,1.3.73,1.77,1.1.73,1.77.73Z"/>
  </g>
  <g>
    <path class="cls-1" d="m1414.75,103.45v-.37"/>
    <path class="cls-1" d="m1420.59,103.45v-13.86"/>
    <path class="cls-1" d="m1426.42,103.45v-26.6"/>
    <path class="cls-1" d="m1432.26,103.45v-39.33"/>
    <path class="cls-1" d="m1438.09,103.45v-51.32"/>
    <path class="cls-1" d="m1443.93,103.45v-62.56"/>
    <path class="cls-1" d="m1449.76,103.45V31.15"/>
    <path class="cls-1" d="m1455.6,103.45V22.91"/>
    <path class="cls-1" d="m1461.43,103.45V16.92"/>
    <path class="cls-1" d="m1467.27,103.45V11.67"/>
    <path class="cls-1" d="m1473.11,103.45V8.67"/>
    <path class="cls-1" d="m1478.94,103.45V7.93"/>
    <path class="cls-1" d="m1484.78,103.45V8.67"/>
    <path class="cls-1" d="m1490.61,103.45V11.67"/>
    <path class="cls-1" d="m1496.45,103.45V16.17"/>
    <path class="cls-1" d="m1502.28,103.45V22.91"/>
    <path class="cls-1" d="m1508.12,103.45V31.15"/>
    <path class="cls-1" d="m1513.95,103.45v-63.31"/>
    <path class="cls-1" d="m1519.79,103.45v-52.07"/>
    <path class="cls-1" d="m1525.62,103.45v-40.08"/>
    <path class="cls-1" d="m1531.46,103.45v-27.35"/>
    <path class="cls-1" d="m1537.29,103.45v-14.61"/>
    <path class="cls-1" d="m1543.13,103.45v-.37"/>
    <path class="cls-1" d="m1548.96,103.45v13.11"/>
    <path class="cls-1" d="m1554.8,103.45v25.85"/>
    <path class="cls-1" d="m1560.63,103.45v39.33"/>
    <path class="cls-1" d="m1566.47,103.45v51.32"/>
    <path class="cls-1" d="m1572.3,103.45v61.81"/>
    <path class="cls-1" d="m1578.14,103.45v71.55"/>
    <path class="cls-1" d="m1583.97,103.45v79.79"/>
    <path class="cls-1" d="m1589.81,103.45v86.53"/>
    <path class="cls-1" d="m1595.64,103.45v91.03"/>
    <path class="cls-1" d="m1601.48,103.45v94.78"/>
    <path class="cls-1" d="m1607.31,103.45v95.52"/>
    <path class="cls-1" d="m1613.15,103.45v94.78"/>
    <path class="cls-1" d="m1618.98,103.45v91.78"/>
    <path class="cls-1" d="m1624.82,103.45v87.28"/>
    <path class="cls-1" d="m1630.65,103.45v81.29"/>
    <path class="cls-1" d="m1636.49,103.45v73.05"/>
    <path class="cls-1" d="m1642.32,103.45v63.31"/>
    <path class="cls-1" d="m1648.16,103.45v52.82"/>
    <path class="cls-1" d="m1653.99,103.45v40.83"/>
    <path class="cls-1" d="m1659.83,103.45v28.09"/>
    <path class="cls-1" d="m1665.66,103.45v14.61"/>
    <path class="cls-1" d="m1671.5,103.45v1.12"/>
    <path id="m50aab59654" class="cls-2" d="m1414.75,105.58c.66,0,1.3-.26,1.77-.73s.73-1.1.73-1.77-.26-1.3-.73-1.77-1.1-.73-1.77-.73-1.3.26-1.77.73-.73,1.1-.73,1.77.26,1.3.73,1.77,1.1.73,1.77.73Z"/>
    <path id="m50aab59654-2" data-name="m50aab59654" class="cls-2" d="m1420.59,92.09c.66,0,1.3-.26,1.77-.73s.73-1.1.73-1.77-.26-1.3-.73-1.77-1.1-.73-1.77-.73-1.3.26-1.77.73-.73,1.1-.73,1.77.26,1.3.73,1.77,1.1.73,1.77.73Z"/>
    <path id="m50aab59654-3" data-name="m50aab59654" class="cls-2" d="m1426.42,79.35c.66,0,1.3-.26,1.77-.73s.73-1.1.73-1.77-.26-1.3-.73-1.77-1.1-.73-1.77-.73-1.3.26-1.77.73-.73,1.1-.73,1.77.26,1.3.73,1.77,1.1.73,1.77.73Z"/>
    <path id="m50aab59654-4" data-name="m50aab59654" class="cls-2" d="m1432.26,66.62c.66,0,1.3-.26,1.77-.73s.73-1.1.73-1.77-.26-1.3-.73-1.77-1.1-.73-1.77-.73-1.3.26-1.77.73-.73,1.1-.73,1.77.26,1.3.73,1.77,1.1.73,1.77.73Z"/>
    <path id="m50aab59654-5" data-name="m50aab59654" class="cls-2" d="m1438.09,54.63c.66,0,1.3-.26,1.77-.73s.73-1.1.73-1.77-.26-1.3-.73-1.77-1.1-.73-1.77-.73-1.3.26-1.77.73-.73,1.1-.73,1.77.26,1.3.73,1.77,1.1.73,1.77.73Z"/>
    <path id="m50aab59654-6" data-name="m50aab59654" class="cls-2" d="m1443.93,43.39c.66,0,1.3-.26,1.77-.73s.73-1.1.73-1.77-.26-1.3-.73-1.77-1.1-.73-1.77-.73-1.3.26-1.77.73-.73,1.1-.73,1.77.26,1.3.73,1.77,1.1.73,1.77.73Z"/>
    <path id="m50aab59654-7" data-name="m50aab59654" class="cls-2" d="m1449.76,33.65c.66,0,1.3-.26,1.77-.73s.73-1.1.73-1.77-.26-1.3-.73-1.77-1.1-.73-1.77-.73-1.3.26-1.77.73-.73,1.1-.73,1.77.26,1.3.73,1.77,1.1.73,1.77.73Z"/>
    <path id="m50aab59654-8" data-name="m50aab59654" class="cls-2" d="m1455.6,25.41c.66,0,1.3-.26,1.77-.73s.73-1.1.73-1.77-.26-1.3-.73-1.77-1.1-.73-1.77-.73-1.3.26-1.77.73-.73,1.1-.73,1.77.26,1.3.73,1.77,1.1.73,1.77.73Z"/>
    <path id="m50aab59654-9" data-name="m50aab59654" class="cls-2" d="m1461.43,19.42c.66,0,1.3-.26,1.77-.73s.73-1.1.73-1.77-.26-1.3-.73-1.77-1.1-.73-1.77-.73-1.3.26-1.77.73-.73,1.1-.73,1.77.26,1.3.73,1.77,1.1.73,1.77.73Z"/>
    <path id="m50aab59654-10" data-name="m50aab59654" class="cls-2" d="m1467.27,14.17c.66,0,1.3-.26,1.77-.73s.73-1.1.73-1.77-.26-1.3-.73-1.77-1.1-.73-1.77-.73-1.3.26-1.77.73-.73,1.1-.73,1.77.26,1.3.73,1.77,1.1.73,1.77.73Z"/>
    <path id="m50aab59654-11" data-name="m50aab59654" class="cls-2" d="m1473.11,11.17c.66,0,1.3-.26,1.77-.73s.73-1.1.73-1.77-.26-1.3-.73-1.77-1.1-.73-1.77-.73-1.3.26-1.77.73-.73,1.1-.73,1.77.26,1.3.73,1.77,1.1.73,1.77.73Z"/>
    <path id="m50aab59654-12" data-name="m50aab59654" class="cls-2" d="m1478.94,10.43c.66,0,1.3-.26,1.77-.73s.73-1.1.73-1.77-.26-1.3-.73-1.77-1.1-.73-1.77-.73-1.3.26-1.77.73-.73,1.1-.73,1.77.26,1.3.73,1.77,1.1.73,1.77.73Z"/>
    <path id="m50aab59654-13" data-name="m50aab59654" class="cls-2" d="m1484.78,11.17c.66,0,1.3-.26,1.77-.73s.73-1.1.73-1.77-.26-1.3-.73-1.77-1.1-.73-1.77-.73-1.3.26-1.77.73-.73,1.1-.73,1.77.26,1.3.73,1.77,1.1.73,1.77.73Z"/>
    <path id="m50aab59654-14" data-name="m50aab59654" class="cls-2" d="m1490.61,14.17c.66,0,1.3-.26,1.77-.73s.73-1.1.73-1.77-.26-1.3-.73-1.77-1.1-.73-1.77-.73-1.3.26-1.77.73-.73,1.1-.73,1.77.26,1.3.73,1.77,1.1.73,1.77.73Z"/>
    <path id="m50aab59654-15" data-name="m50aab59654" class="cls-2" d="m1496.45,18.67c.66,0,1.3-.26,1.77-.73s.73-1.1.73-1.77-.26-1.3-.73-1.77-1.1-.73-1.77-.73-1.3.26-1.77.73-.73,1.1-.73,1.77.26,1.3.73,1.77,1.1.73,1.77.73Z"/>
    <path id="m50aab59654-16" data-name="m50aab59654" class="cls-2" d="m1502.28,25.41c.66,0,1.3-.26,1.77-.73s.73-1.1.73-1.77-.26-1.3-.73-1.77-1.1-.73-1.77-.73-1.3.26-1.77.73-.73,1.1-.73,1.77.26,1.3.73,1.77,1.1.73,1.77.73Z"/>
    <path id="m50aab59654-17" data-name="m50aab59654" class="cls-2" d="m1508.12,33.65c.66,0,1.3-.26,1.77-.73s.73-1.1.73-1.77-.26-1.3-.73-1.77-1.1-.73-1.77-.73-1.3.26-1.77.73-.73,1.1-.73,1.77.26,1.3.73,1.77,1.1.73,1.77.73Z"/>
    <path id="m50aab59654-18" data-name="m50aab59654" class="cls-2" d="m1513.95,42.64c.66,0,1.3-.26,1.77-.73s.73-1.1.73-1.77-.26-1.3-.73-1.77-1.1-.73-1.77-.73-1.3.26-1.77.73-.73,1.1-.73,1.77.26,1.3.73,1.77,1.1.73,1.77.73Z"/>
    <path id="m50aab59654-19" data-name="m50aab59654" class="cls-2" d="m1519.79,53.88c.66,0,1.3-.26,1.77-.73s.73-1.1.73-1.77-.26-1.3-.73-1.77-1.1-.73-1.77-.73-1.3.26-1.77.73-.73,1.1-.73,1.77.26,1.3.73,1.77,1.1.73,1.77.73Z"/>
    <path id="m50aab59654-20" data-name="m50aab59654" class="cls-2" d="m1525.62,65.87c.66,0,1.3-.26,1.77-.73s.73-1.1.73-1.77-.26-1.3-.73-1.77-1.1-.73-1.77-.73-1.3.26-1.77.73-.73,1.1-.73,1.77.26,1.3.73,1.77,1.1.73,1.77.73Z"/>
    <path id="m50aab59654-21" data-name="m50aab59654" class="cls-2" d="m1531.46,78.6c.66,0,1.3-.26,1.77-.73s.73-1.1.73-1.77-.26-1.3-.73-1.77-1.1-.73-1.77-.73-1.3.26-1.77.73-.73,1.1-.73,1.77.26,1.3.73,1.77,1.1.73,1.77.73Z"/>
    <path id="m50aab59654-22" data-name="m50aab59654" class="cls-2" d="m1537.29,91.34c.66,0,1.3-.26,1.77-.73s.73-1.1.73-1.77-.26-1.3-.73-1.77-1.1-.73-1.77-.73-1.3.26-1.77.73-.73,1.1-.73,1.77.26,1.3.73,1.77,1.1.73,1.77.73Z"/>
    <path id="m50aab59654-23" data-name="m50aab59654" class="cls-2" d="m1543.13,105.58c.66,0,1.3-.26,1.77-.73s.73-1.1.73-1.77-.26-1.3-.73-1.77-1.1-.73-1.77-.73-1.3.26-1.77.73-.73,1.1-.73,1.77.26,1.3.73,1.77,1.1.73,1.77.73Z"/>
    <path id="m50aab59654-24" data-name="m50aab59654" class="cls-2" d="m1548.96,119.06c.66,0,1.3-.26,1.77-.73s.73-1.1.73-1.77-.26-1.3-.73-1.77-1.1-.73-1.77-.73-1.3.26-1.77.73-.73,1.1-.73,1.77.26,1.3.73,1.77,1.1.73,1.77.73Z"/>
    <path id="m50aab59654-25" data-name="m50aab59654" class="cls-2" d="m1554.8,131.8c.66,0,1.3-.26,1.77-.73s.73-1.1.73-1.77-.26-1.3-.73-1.77-1.1-.73-1.77-.73-1.3.26-1.77.73-.73,1.1-.73,1.77.26,1.3.73,1.77,1.1.73,1.77.73Z"/>
    <path id="m50aab59654-26" data-name="m50aab59654" class="cls-2" d="m1560.63,145.28c.66,0,1.3-.26,1.77-.73s.73-1.1.73-1.77-.26-1.3-.73-1.77-1.1-.73-1.77-.73-1.3.26-1.77.73-.73,1.1-.73,1.77.26,1.3.73,1.77,1.1.73,1.77.73Z"/>
    <path id="m50aab59654-27" data-name="m50aab59654" class="cls-2" d="m1566.47,157.27c.66,0,1.3-.26,1.77-.73s.73-1.1.73-1.77-.26-1.3-.73-1.77-1.1-.73-1.77-.73-1.3.26-1.77.73-.73,1.1-.73,1.77.26,1.3.73,1.77,1.1.73,1.77.73Z"/>
    <path id="m50aab59654-28" data-name="m50aab59654" class="cls-2" d="m1572.3,167.76c.66,0,1.3-.26,1.77-.73s.73-1.1.73-1.77-.26-1.3-.73-1.77-1.1-.73-1.77-.73-1.3.26-1.77.73-.73,1.1-.73,1.77.26,1.3.73,1.77,1.1.73,1.77.73Z"/>
    <path id="m50aab59654-29" data-name="m50aab59654" class="cls-2" d="m1578.14,177.5c.66,0,1.3-.26,1.77-.73s.73-1.1.73-1.77-.26-1.3-.73-1.77-1.1-.73-1.77-.73-1.3.26-1.77.73-.73,1.1-.73,1.77.26,1.3.73,1.77,1.1.73,1.77.73Z"/>
    <path id="m50aab59654-30" data-name="m50aab59654" class="cls-2" d="m1583.97,185.74c.66,0,1.3-.26,1.77-.73s.73-1.1.73-1.77-.26-1.3-.73-1.77-1.1-.73-1.77-.73-1.3.26-1.77.73-.73,1.1-.73,1.77.26,1.3.73,1.77,1.1.73,1.77.73Z"/>
    <path id="m50aab59654-31" data-name="m50aab59654" class="cls-2" d="m1589.81,192.48c.66,0,1.3-.26,1.77-.73s.73-1.1.73-1.77-.26-1.3-.73-1.77-1.1-.73-1.77-.73-1.3.26-1.77.73-.73,1.1-.73,1.77.26,1.3.73,1.77,1.1.73,1.77.73Z"/>
    <path id="m50aab59654-32" data-name="m50aab59654" class="cls-2" d="m1595.64,196.98c.66,0,1.3-.26,1.77-.73s.73-1.1.73-1.77-.26-1.3-.73-1.77-1.1-.73-1.77-.73-1.3.26-1.77.73-.73,1.1-.73,1.77.26,1.3.73,1.77,1.1.73,1.77.73Z"/>
    <path id="m50aab59654-33" data-name="m50aab59654" class="cls-2" d="m1601.48,200.72c.66,0,1.3-.26,1.77-.73s.73-1.1.73-1.77-.26-1.3-.73-1.77-1.1-.73-1.77-.73-1.3.26-1.77.73-.73,1.1-.73,1.77.26,1.3.73,1.77,1.1.73,1.77.73Z"/>
    <path id="m50aab59654-34" data-name="m50aab59654" class="cls-2" d="m1607.31,201.47c.66,0,1.3-.26,1.77-.73s.73-1.1.73-1.77-.26-1.3-.73-1.77-1.1-.73-1.77-.73-1.3.26-1.77.73-.73,1.1-.73,1.77.26,1.3.73,1.77,1.1.73,1.77.73Z"/>
    <path id="m50aab59654-35" data-name="m50aab59654" class="cls-2" d="m1613.15,200.72c.66,0,1.3-.26,1.77-.73s.73-1.1.73-1.77-.26-1.3-.73-1.77-1.1-.73-1.77-.73-1.3.26-1.77.73-.73,1.1-.73,1.77.26,1.3.73,1.77,1.1.73,1.77.73Z"/>
    <path id="m50aab59654-36" data-name="m50aab59654" class="cls-2" d="m1618.98,197.73c.66,0,1.3-.26,1.77-.73s.73-1.1.73-1.77-.26-1.3-.73-1.77-1.1-.73-1.77-.73-1.3.26-1.77.73-.73,1.1-.73,1.77.26,1.3.73,1.77,1.1.73,1.77.73Z"/>
    <path id="m50aab59654-37" data-name="m50aab59654" class="cls-2" d="m1624.82,193.23c.66,0,1.3-.26,1.77-.73s.73-1.1.73-1.77-.26-1.3-.73-1.77-1.1-.73-1.77-.73-1.3.26-1.77.73-.73,1.1-.73,1.77.26,1.3.73,1.77,1.1.73,1.77.73Z"/>
    <path id="m50aab59654-38" data-name="m50aab59654" class="cls-2" d="m1630.65,187.24c.66,0,1.3-.26,1.77-.73s.73-1.1.73-1.77-.26-1.3-.73-1.77-1.1-.73-1.77-.73-1.3.26-1.77.73-.73,1.1-.73,1.77.26,1.3.73,1.77,1.1.73,1.77.73Z"/>
    <path id="m50aab59654-39" data-name="m50aab59654" class="cls-2" d="m1636.49,179c.66,0,1.3-.26,1.77-.73s.73-1.1.73-1.77-.26-1.3-.73-1.77-1.1-.73-1.77-.73-1.3.26-1.77.73-.73,1.1-.73,1.77.26,1.3.73,1.77,1.1.73,1.77.73Z"/>
    <path id="m50aab59654-40" data-name="m50aab59654" class="cls-2" d="m1642.32,169.26c.66,0,1.3-.26,1.77-.73s.73-1.1.73-1.77-.26-1.3-.73-1.77-1.1-.73-1.77-.73-1.3.26-1.77.73-.73,1.1-.73,1.77.26,1.3.73,1.77,1.1.73,1.77.73Z"/>
    <path id="m50aab59654-41" data-name="m50aab59654" class="cls-2" d="m1648.16,158.77c.66,0,1.3-.26,1.77-.73s.73-1.1.73-1.77-.26-1.3-.73-1.77-1.1-.73-1.77-.73-1.3.26-1.77.73-.73,1.1-.73,1.77.26,1.3.73,1.77,1.1.73,1.77.73Z"/>
    <path id="m50aab59654-42" data-name="m50aab59654" class="cls-2" d="m1653.99,146.78c.66,0,1.3-.26,1.77-.73s.73-1.1.73-1.77-.26-1.3-.73-1.77-1.1-.73-1.77-.73-1.3.26-1.77.73-.73,1.1-.73,1.77.26,1.3.73,1.77,1.1.73,1.77.73Z"/>
    <path id="m50aab59654-43" data-name="m50aab59654" class="cls-2" d="m1659.83,134.04c.66,0,1.3-.26,1.77-.73s.73-1.1.73-1.77-.26-1.3-.73-1.77-1.1-.73-1.77-.73-1.3.26-1.77.73-.73,1.1-.73,1.77.26,1.3.73,1.77,1.1.73,1.77.73Z"/>
    <path id="m50aab59654-44" data-name="m50aab59654" class="cls-2" d="m1665.66,120.56c.66,0,1.3-.26,1.77-.73s.73-1.1.73-1.77-.26-1.3-.73-1.77-1.1-.73-1.77-.73-1.3.26-1.77.73-.73,1.1-.73,1.77.26,1.3.73,1.77,1.1.73,1.77.73Z"/>
    <path id="m50aab59654-45" data-name="m50aab59654" class="cls-2" d="m1671.5,107.07c.66,0,1.3-.26,1.77-.73s.73-1.1.73-1.77-.26-1.3-.73-1.77-1.1-.73-1.77-.73-1.3.26-1.77.73-.73,1.1-.73,1.77.26,1.3.73,1.77,1.1.73,1.77.73Z"/>
  </g>
  <g>
    <path class="cls-1" d="m714.3,103.45v-13.64"/>
    <path class="cls-1" d="m720.13,103.45v-13.64"/>
    <path class="cls-1" d="m725.97,103.45v-40.94"/>
    <path class="cls-1" d="m731.8,103.45v-40.94"/>
    <path class="cls-1" d="m737.64,103.45V35.22"/>
    <path class="cls-1" d="m743.47,103.45V35.22"/>
    <path class="cls-1" d="m749.31,103.45V35.22"/>
    <path class="cls-1" d="m755.14,103.45V7.93"/>
    <path class="cls-1" d="m760.98,103.45V7.93"/>
    <path class="cls-1" d="m766.81,103.45V7.93"/>
    <path class="cls-1" d="m772.65,103.45V7.93"/>
    <path class="cls-1" d="m778.49,103.45V7.93"/>
    <path class="cls-1" d="m784.32,103.45V7.93"/>
    <path class="cls-1" d="m790.16,103.45V7.93"/>
    <path class="cls-1" d="m795.99,103.45V35.22"/>
    <path class="cls-1" d="m801.83,103.45V35.22"/>
    <path class="cls-1" d="m807.66,103.45V35.22"/>
    <path class="cls-1" d="m813.5,103.45v-40.94"/>
    <path class="cls-1" d="m819.33,103.45v-40.94"/>
    <path class="cls-1" d="m825.17,103.45v-40.94"/>
    <path class="cls-1" d="m831,103.45v-13.64"/>
    <path class="cls-1" d="m836.84,103.45v-13.64"/>
    <path class="cls-1" d="m842.67,103.45v13.65"/>
    <path class="cls-1" d="m848.51,103.45v13.65"/>
    <path class="cls-1" d="m854.34,103.45v40.94"/>
    <path class="cls-1" d="m860.18,103.45v40.94"/>
    <path class="cls-1" d="m866.01,103.45v68.23"/>
    <path class="cls-1" d="m871.85,103.45v68.23"/>
    <path class="cls-1" d="m877.68,103.45v68.23"/>
    <path class="cls-1" d="m883.52,103.45v95.52"/>
    <path class="cls-1" d="m889.35,103.45v95.52"/>
    <path class="cls-1" d="m895.19,103.45v95.52"/>
    <path class="cls-1" d="m901.02,103.45v95.52"/>
    <path class="cls-1" d="m906.86,103.45v95.52"/>
    <path class="cls-1" d="m912.69,103.45v95.52"/>
    <path class="cls-1" d="m918.53,103.45v95.52"/>
    <path class="cls-1" d="m924.36,103.45v68.23"/>
    <path class="cls-1" d="m930.2,103.45v68.23"/>
    <path class="cls-1" d="m936.03,103.45v68.23"/>
    <path class="cls-1" d="m941.87,103.45v40.94"/>
    <path class="cls-1" d="m947.7,103.45v40.94"/>
    <path class="cls-1" d="m953.54,103.45v40.94"/>
    <path class="cls-1" d="m959.37,103.45v13.65"/>
    <path class="cls-1" d="m965.21,103.45v13.65"/>
    <path id="m41e9bc0e9b" class="cls-2" d="m708.46,92.31c.66,0,1.3-.26,1.77-.73s.73-1.1.73-1.77-.26-1.3-.73-1.77-1.1-.73-1.77-.73-1.3.26-1.77.73-.73,1.1-.73,1.77.26,1.3.73,1.77,1.1.73,1.77.73Z"/>
    <path id="m41e9bc0e9b-2" data-name="m41e9bc0e9b" class="cls-2" d="m714.3,92.31c.66,0,1.3-.26,1.77-.73s.73-1.1.73-1.77-.26-1.3-.73-1.77-1.1-.73-1.77-.73-1.3.26-1.77.73-.73,1.1-.73,1.77.26,1.3.73,1.77,1.1.73,1.77.73Z"/>
    <path id="m41e9bc0e9b-3" data-name="m41e9bc0e9b" class="cls-2" d="m720.13,92.31c.66,0,1.3-.26,1.77-.73s.73-1.1.73-1.77-.26-1.3-.73-1.77-1.1-.73-1.77-.73-1.3.26-1.77.73-.73,1.1-.73,1.77.26,1.3.73,1.77,1.1.73,1.77.73Z"/>
    <path id="m41e9bc0e9b-4" data-name="m41e9bc0e9b" class="cls-2" d="m725.97,65.01c.66,0,1.3-.26,1.77-.73s.73-1.1.73-1.77-.26-1.3-.73-1.77-1.1-.73-1.77-.73-1.3.26-1.77.73-.73,1.1-.73,1.77.26,1.3.73,1.77,1.1.73,1.77.73Z"/>
    <path id="m41e9bc0e9b-5" data-name="m41e9bc0e9b" class="cls-2" d="m731.8,65.01c.66,0,1.3-.26,1.77-.73s.73-1.1.73-1.77-.26-1.3-.73-1.77-1.1-.73-1.77-.73-1.3.26-1.77.73-.73,1.1-.73,1.77.26,1.3.73,1.77,1.1.73,1.77.73Z"/>
    <path id="m41e9bc0e9b-6" data-name="m41e9bc0e9b" class="cls-2" d="m737.64,37.72c.66,0,1.3-.26,1.77-.73s.73-1.1.73-1.77-.26-1.3-.73-1.77-1.1-.73-1.77-.73-1.3.26-1.77.73-.73,1.1-.73,1.77.26,1.3.73,1.77,1.1.73,1.77.73Z"/>
    <path id="m41e9bc0e9b-7" data-name="m41e9bc0e9b" class="cls-2" d="m743.47,37.72c.66,0,1.3-.26,1.77-.73s.73-1.1.73-1.77-.26-1.3-.73-1.77-1.1-.73-1.77-.73-1.3.26-1.77.73-.73,1.1-.73,1.77.26,1.3.73,1.77,1.1.73,1.77.73Z"/>
    <path id="m41e9bc0e9b-8" data-name="m41e9bc0e9b" class="cls-2" d="m749.31,37.72c.66,0,1.3-.26,1.77-.73s.73-1.1.73-1.77-.26-1.3-.73-1.77-1.1-.73-1.77-.73-1.3.26-1.77.73-.73,1.1-.73,1.77.26,1.3.73,1.77,1.1.73,1.77.73Z"/>
    <path id="m41e9bc0e9b-9" data-name="m41e9bc0e9b" class="cls-2" d="m755.14,10.43c.66,0,1.3-.26,1.77-.73s.73-1.1.73-1.77-.26-1.3-.73-1.77-1.1-.73-1.77-.73-1.3.26-1.77.73-.73,1.1-.73,1.77.26,1.3.73,1.77,1.1.73,1.77.73Z"/>
    <path id="m41e9bc0e9b-10" data-name="m41e9bc0e9b" class="cls-2" d="m760.98,10.43c.66,0,1.3-.26,1.77-.73s.73-1.1.73-1.77-.26-1.3-.73-1.77-1.1-.73-1.77-.73-1.3.26-1.77.73-.73,1.1-.73,1.77.26,1.3.73,1.77,1.1.73,1.77.73Z"/>
    <path id="m41e9bc0e9b-11" data-name="m41e9bc0e9b" class="cls-2" d="m766.81,10.43c.66,0,1.3-.26,1.77-.73s.73-1.1.73-1.77-.26-1.3-.73-1.77-1.1-.73-1.77-.73-1.3.26-1.77.73-.73,1.1-.73,1.77.26,1.3.73,1.77,1.1.73,1.77.73Z"/>
    <path id="m41e9bc0e9b-12" data-name="m41e9bc0e9b" class="cls-2" d="m772.65,10.43c.66,0,1.3-.26,1.77-.73s.73-1.1.73-1.77-.26-1.3-.73-1.77-1.1-.73-1.77-.73-1.3.26-1.77.73-.73,1.1-.73,1.77.26,1.3.73,1.77,1.1.73,1.77.73Z"/>
    <path id="m41e9bc0e9b-13" data-name="m41e9bc0e9b" class="cls-2" d="m778.49,10.43c.66,0,1.3-.26,1.77-.73s.73-1.1.73-1.77-.26-1.3-.73-1.77-1.1-.73-1.77-.73-1.3.26-1.77.73-.73,1.1-.73,1.77.26,1.3.73,1.77,1.1.73,1.77.73Z"/>
    <path id="m41e9bc0e9b-14" data-name="m41e9bc0e9b" class="cls-2" d="m784.32,10.43c.66,0,1.3-.26,1.77-.73s.73-1.1.73-1.77-.26-1.3-.73-1.77-1.1-.73-1.77-.73-1.3.26-1.77.73-.73,1.1-.73,1.77.26,1.3.73,1.77,1.1.73,1.77.73Z"/>
    <path id="m41e9bc0e9b-15" data-name="m41e9bc0e9b" class="cls-2" d="m790.16,10.43c.66,0,1.3-.26,1.77-.73s.73-1.1.73-1.77-.26-1.3-.73-1.77-1.1-.73-1.77-.73-1.3.26-1.77.73-.73,1.1-.73,1.77.26,1.3.73,1.77,1.1.73,1.77.73Z"/>
    <path id="m41e9bc0e9b-16" data-name="m41e9bc0e9b" class="cls-2" d="m795.99,37.72c.66,0,1.3-.26,1.77-.73s.73-1.1.73-1.77-.26-1.3-.73-1.77-1.1-.73-1.77-.73-1.3.26-1.77.73-.73,1.1-.73,1.77.26,1.3.73,1.77,1.1.73,1.77.73Z"/>
    <path id="m41e9bc0e9b-17" data-name="m41e9bc0e9b" class="cls-2" d="m801.83,37.72c.66,0,1.3-.26,1.77-.73s.73-1.1.73-1.77-.26-1.3-.73-1.77-1.1-.73-1.77-.73-1.3.26-1.77.73-.73,1.1-.73,1.77.26,1.3.73,1.77,1.1.73,1.77.73Z"/>
    <path id="m41e9bc0e9b-18" data-name="m41e9bc0e9b" class="cls-2" d="m807.66,37.72c.66,0,1.3-.26,1.77-.73s.73-1.1.73-1.77-.26-1.3-.73-1.77-1.1-.73-1.77-.73-1.3.26-1.77.73-.73,1.1-.73,1.77.26,1.3.73,1.77,1.1.73,1.77.73Z"/>
    <path id="m41e9bc0e9b-19" data-name="m41e9bc0e9b" class="cls-2" d="m813.5,65.01c.66,0,1.3-.26,1.77-.73s.73-1.1.73-1.77-.26-1.3-.73-1.77-1.1-.73-1.77-.73-1.3.26-1.77.73-.73,1.1-.73,1.77.26,1.3.73,1.77,1.1.73,1.77.73Z"/>
    <path id="m41e9bc0e9b-20" data-name="m41e9bc0e9b" class="cls-2" d="m819.33,65.01c.66,0,1.3-.26,1.77-.73s.73-1.1.73-1.77-.26-1.3-.73-1.77-1.1-.73-1.77-.73-1.3.26-1.77.73-.73,1.1-.73,1.77.26,1.3.73,1.77,1.1.73,1.77.73Z"/>
    <path id="m41e9bc0e9b-21" data-name="m41e9bc0e9b" class="cls-2" d="m825.17,65.01c.66,0,1.3-.26,1.77-.73s.73-1.1.73-1.77-.26-1.3-.73-1.77-1.1-.73-1.77-.73-1.3.26-1.77.73-.73,1.1-.73,1.77.26,1.3.73,1.77,1.1.73,1.77.73Z"/>
    <path id="m41e9bc0e9b-22" data-name="m41e9bc0e9b" class="cls-2" d="m831,92.31c.66,0,1.3-.26,1.77-.73s.73-1.1.73-1.77-.26-1.3-.73-1.77-1.1-.73-1.77-.73-1.3.26-1.77.73-.73,1.1-.73,1.77.26,1.3.73,1.77,1.1.73,1.77.73Z"/>
    <path id="m41e9bc0e9b-23" data-name="m41e9bc0e9b" class="cls-2" d="m836.84,92.31c.66,0,1.3-.26,1.77-.73s.73-1.1.73-1.77-.26-1.3-.73-1.77-1.1-.73-1.77-.73-1.3.26-1.77.73-.73,1.1-.73,1.77.26,1.3.73,1.77,1.1.73,1.77.73Z"/>
    <path id="m41e9bc0e9b-24" data-name="m41e9bc0e9b" class="cls-2" d="m842.67,119.6c.66,0,1.3-.26,1.77-.73s.73-1.1.73-1.77-.26-1.3-.73-1.77-1.1-.73-1.77-.73-1.3.26-1.77.73-.73,1.1-.73,1.77.26,1.3.73,1.77,1.1.73,1.77.73Z"/>
    <path id="m41e9bc0e9b-25" data-name="m41e9bc0e9b" class="cls-2" d="m848.51,119.6c.66,0,1.3-.26,1.77-.73s.73-1.1.73-1.77-.26-1.3-.73-1.77-1.1-.73-1.77-.73-1.3.26-1.77.73-.73,1.1-.73,1.77.26,1.3.73,1.77,1.1.73,1.77.73Z"/>
    <path id="m41e9bc0e9b-26" data-name="m41e9bc0e9b" class="cls-2" d="m854.34,146.89c.66,0,1.3-.26,1.77-.73s.73-1.1.73-1.77-.26-1.3-.73-1.77-1.1-.73-1.77-.73-1.3.26-1.77.73-.73,1.1-.73,1.77.26,1.3.73,1.77,1.1.73,1.77.73Z"/>
    <path id="m41e9bc0e9b-27" data-name="m41e9bc0e9b" class="cls-2" d="m860.18,146.89c.66,0,1.3-.26,1.77-.73s.73-1.1.73-1.77-.26-1.3-.73-1.77-1.1-.73-1.77-.73-1.3.26-1.77.73-.73,1.1-.73,1.77.26,1.3.73,1.77,1.1.73,1.77.73Z"/>
    <path id="m41e9bc0e9b-28" data-name="m41e9bc0e9b" class="cls-2" d="m866.01,174.18c.66,0,1.3-.26,1.77-.73s.73-1.1.73-1.77-.26-1.3-.73-1.77-1.1-.73-1.77-.73-1.3.26-1.77.73-.73,1.1-.73,1.77.26,1.3.73,1.77,1.1.73,1.77.73Z"/>
    <path id="m41e9bc0e9b-29" data-name="m41e9bc0e9b" class="cls-2" d="m871.85,174.18c.66,0,1.3-.26,1.77-.73s.73-1.1.73-1.77-.26-1.3-.73-1.77-1.1-.73-1.77-.73-1.3.26-1.77.73-.73,1.1-.73,1.77.26,1.3.73,1.77,1.1.73,1.77.73Z"/>
    <path id="m41e9bc0e9b-30" data-name="m41e9bc0e9b" class="cls-2" d="m877.68,174.18c.66,0,1.3-.26,1.77-.73s.73-1.1.73-1.77-.26-1.3-.73-1.77-1.1-.73-1.77-.73-1.3.26-1.77.73-.73,1.1-.73,1.77.26,1.3.73,1.77,1.1.73,1.77.73Z"/>
    <path id="m41e9bc0e9b-31" data-name="m41e9bc0e9b" class="cls-2" d="m883.52,201.47c.66,0,1.3-.26,1.77-.73s.73-1.1.73-1.77-.26-1.3-.73-1.77-1.1-.73-1.77-.73-1.3.26-1.77.73-.73,1.1-.73,1.77.26,1.3.73,1.77,1.1.73,1.77.73Z"/>
    <path id="m41e9bc0e9b-32" data-name="m41e9bc0e9b" class="cls-2" d="m889.35,201.47c.66,0,1.3-.26,1.77-.73s.73-1.1.73-1.77-.26-1.3-.73-1.77-1.1-.73-1.77-.73-1.3.26-1.77.73-.73,1.1-.73,1.77.26,1.3.73,1.77,1.1.73,1.77.73Z"/>
    <path id="m41e9bc0e9b-33" data-name="m41e9bc0e9b" class="cls-2" d="m895.19,201.47c.66,0,1.3-.26,1.77-.73s.73-1.1.73-1.77-.26-1.3-.73-1.77-1.1-.73-1.77-.73-1.3.26-1.77.73-.73,1.1-.73,1.77.26,1.3.73,1.77,1.1.73,1.77.73Z"/>
    <path id="m41e9bc0e9b-34" data-name="m41e9bc0e9b" class="cls-2" d="m901.02,201.47c.66,0,1.3-.26,1.77-.73s.73-1.1.73-1.77-.26-1.3-.73-1.77-1.1-.73-1.77-.73-1.3.26-1.77.73-.73,1.1-.73,1.77.26,1.3.73,1.77,1.1.73,1.77.73Z"/>
    <path id="m41e9bc0e9b-35" data-name="m41e9bc0e9b" class="cls-2" d="m906.86,201.47c.66,0,1.3-.26,1.77-.73s.73-1.1.73-1.77-.26-1.3-.73-1.77-1.1-.73-1.77-.73-1.3.26-1.77.73-.73,1.1-.73,1.77.26,1.3.73,1.77,1.1.73,1.77.73Z"/>
    <path id="m41e9bc0e9b-36" data-name="m41e9bc0e9b" class="cls-2" d="m912.69,201.47c.66,0,1.3-.26,1.77-.73s.73-1.1.73-1.77-.26-1.3-.73-1.77-1.1-.73-1.77-.73-1.3.26-1.77.73-.73,1.1-.73,1.77.26,1.3.73,1.77,1.1.73,1.77.73Z"/>
    <path id="m41e9bc0e9b-37" data-name="m41e9bc0e9b" class="cls-2" d="m918.53,201.47c.66,0,1.3-.26,1.77-.73s.73-1.1.73-1.77-.26-1.3-.73-1.77-1.1-.73-1.77-.73-1.3.26-1.77.73-.73,1.1-.73,1.77.26,1.3.73,1.77,1.1.73,1.77.73Z"/>
    <path id="m41e9bc0e9b-38" data-name="m41e9bc0e9b" class="cls-2" d="m924.36,174.18c.66,0,1.3-.26,1.77-.73s.73-1.1.73-1.77-.26-1.3-.73-1.77-1.1-.73-1.77-.73-1.3.26-1.77.73-.73,1.1-.73,1.77.26,1.3.73,1.77,1.1.73,1.77.73Z"/>
    <path id="m41e9bc0e9b-39" data-name="m41e9bc0e9b" class="cls-2" d="m930.2,174.18c.66,0,1.3-.26,1.77-.73s.73-1.1.73-1.77-.26-1.3-.73-1.77-1.1-.73-1.77-.73-1.3.26-1.77.73-.73,1.1-.73,1.77.26,1.3.73,1.77,1.1.73,1.77.73Z"/>
    <path id="m41e9bc0e9b-40" data-name="m41e9bc0e9b" class="cls-2" d="m936.03,174.18c.66,0,1.3-.26,1.77-.73s.73-1.1.73-1.77-.26-1.3-.73-1.77-1.1-.73-1.77-.73-1.3.26-1.77.73-.73,1.1-.73,1.77.26,1.3.73,1.77,1.1.73,1.77.73Z"/>
    <path id="m41e9bc0e9b-41" data-name="m41e9bc0e9b" class="cls-2" d="m941.87,146.89c.66,0,1.3-.26,1.77-.73s.73-1.1.73-1.77-.26-1.3-.73-1.77-1.1-.73-1.77-.73-1.3.26-1.77.73-.73,1.1-.73,1.77.26,1.3.73,1.77,1.1.73,1.77.73Z"/>
    <path id="m41e9bc0e9b-42" data-name="m41e9bc0e9b" class="cls-2" d="m947.7,146.89c.66,0,1.3-.26,1.77-.73s.73-1.1.73-1.77-.26-1.3-.73-1.77-1.1-.73-1.77-.73-1.3.26-1.77.73-.73,1.1-.73,1.77.26,1.3.73,1.77,1.1.73,1.77.73Z"/>
    <path id="m41e9bc0e9b-43" data-name="m41e9bc0e9b" class="cls-2" d="m953.54,146.89c.66,0,1.3-.26,1.77-.73s.73-1.1.73-1.77-.26-1.3-.73-1.77-1.1-.73-1.77-.73-1.3.26-1.77.73-.73,1.1-.73,1.77.26,1.3.73,1.77,1.1.73,1.77.73Z"/>
    <path id="m41e9bc0e9b-44" data-name="m41e9bc0e9b" class="cls-2" d="m959.37,119.6c.66,0,1.3-.26,1.77-.73s.73-1.1.73-1.77-.26-1.3-.73-1.77-1.1-.73-1.77-.73-1.3.26-1.77.73-.73,1.1-.73,1.77.26,1.3.73,1.77,1.1.73,1.77.73Z"/>
    <path id="m41e9bc0e9b-45" data-name="m41e9bc0e9b" class="cls-2" d="m965.21,119.6c.66,0,1.3-.26,1.77-.73s.73-1.1.73-1.77-.26-1.3-.73-1.77-1.1-.73-1.77-.73-1.3.26-1.77.73-.73,1.1-.73,1.77.26,1.3.73,1.77,1.1.73,1.77.73Z"/>
    <path class="cls-1" d="m708.46,103.45v-13.64"/>
  </g>
</svg>