<?xml version="1.0" encoding="utf-8"?>
<!-- Generator: Adobe Illustrator 27.4.1, SVG Export Plug-In . SVG Version: 6.00 Build 0)  -->
<svg version="1.1" id="Ebene_1" xmlns="http://www.w3.org/2000/svg" xmlns:xlink="http://www.w3.org/1999/xlink" x="0px" y="0px"
	 viewBox="0 0 2231.8 514.9" style="enable-background:new 0 0 2231.8 514.9;" xml:space="preserve">
<style type="text/css">
	.st0{fill:none;stroke:#307EEF;stroke-width:5.67;stroke-linecap:round;}
	.st1{fill:none;stroke:#C9D1D9;stroke-width:2.83;}
	.st2{fill:#C9D1D9;}
	.st3{fill:none;stroke:#C9D1D9;stroke-width:2.83;stroke-linecap:round;}
	.st4{fill:none;stroke:#C9D1D9;stroke-width:0.85;stroke-linecap:round;}
	.st5{fill:none;stroke:#C9D1D9;stroke-width:0.85;stroke-linecap:round;stroke-dasharray:0,0,12.17,12.17;}
	.st6{fill:#C9D1D9;stroke:#C9D1D9;stroke-width:2.83;stroke-linecap:round;}
</style>
<g>
	<path class="st0" d="M593.8,15.8c-78.3,0-147.5,90-216,180"/>
	<path class="st0" d="M809.8,195.8c-68.5-90-137.7-180-216-180"/>
	<path class="st0" d="M1025.8,375.8c78.3,0,147.5-90,216-180"/>
	<path class="st0" d="M809.8,195.8c68.5,90,137.7,180,216,180"/>
</g>
<g>
	<path class="st0" d="M1457.8,15.8c-78.3,0-147.5,90-216,180"/>
	<path class="st0" d="M1673.8,195.8c-68.5-90-137.7-180-216-180"/>
	<path class="st0" d="M1889.8,375.8c78.3,0,147.5-90,216-180"/>
	<path class="st0" d="M1673.8,195.8c68.5,90,137.7,180,216,180"/>
</g>
<line class="st1" x1="377.8" y1="385.7" x2="377.8" y2="5.9"/>
<g>
	<line class="st1" x1="2174.4" y1="195.8" x2="377.8" y2="195.8"/>
	<path class="st2" d="M2155.1,182.2c-0.4,0.7-0.2,1.5,0.4,2l18.3,11.6l-18.3,11.6c-0.7,0.4-0.9,1.3-0.4,2c0.4,0.7,1.3,0.9,2,0.4
		l20.2-12.8c0.4-0.3,0.7-0.7,0.7-1.2s-0.2-0.9-0.7-1.2l-20.2-12.8c-0.2-0.1-0.5-0.2-0.8-0.2C2155.8,181.5,2155.3,181.8,2155.1,182.2
		L2155.1,182.2z"/>
</g>
<line class="st1" x1="2120.2" y1="511.8" x2="377.8" y2="511.8"/>
<g>
	<line class="st3" x1="449.8" y1="511.8" x2="449.8" y2="403.4"/>
	<polygon class="st2" points="454.6,409.1 449.8,404.3 445,409.1 445,405 449.8,400.2 454.6,405 	"/>
</g>
<g>
	<line class="st3" x1="485.8" y1="511.8" x2="485.8" y2="403.4"/>
	<polygon class="st2" points="490.6,409.1 485.8,404.3 481,409.1 481,405 485.8,400.2 490.6,405 	"/>
</g>
<g>
	<line class="st3" x1="521.8" y1="511.8" x2="521.8" y2="403.4"/>
	<polygon class="st2" points="526.6,409.1 521.8,404.3 517,409.1 517,405 521.8,400.2 526.6,405 	"/>
</g>
<g>
	<line class="st3" x1="557.8" y1="511.8" x2="557.8" y2="403.4"/>
	<polygon class="st2" points="562.6,409.1 557.8,404.3 553,409.1 553,405 557.8,400.2 562.6,405 	"/>
</g>
<g>
	<line class="st3" x1="593.8" y1="511.8" x2="593.8" y2="403.4"/>
	<polygon class="st2" points="598.6,409.1 593.8,404.3 589,409.1 589,405 593.8,400.2 598.6,405 	"/>
</g>
<g>
	<line class="st3" x1="629.8" y1="511.8" x2="629.8" y2="403.4"/>
	<polygon class="st2" points="634.6,409.1 629.8,404.3 625,409.1 625,405 629.8,400.2 634.6,405 	"/>
</g>
<g>
	<line class="st3" x1="665.8" y1="511.8" x2="665.8" y2="403.4"/>
	<polygon class="st2" points="670.6,409.1 665.8,404.3 661,409.1 661,405 665.8,400.2 670.6,405 	"/>
</g>
<g>
	<line class="st3" x1="701.8" y1="511.8" x2="701.8" y2="403.4"/>
	<polygon class="st2" points="706.6,409.1 701.8,404.3 697,409.1 697,405 701.8,400.2 706.6,405 	"/>
</g>
<g>
	<line class="st3" x1="737.8" y1="511.8" x2="737.8" y2="403.4"/>
	<polygon class="st2" points="742.6,409.1 737.8,404.3 733,409.1 733,405 737.8,400.2 742.6,405 	"/>
</g>
<g>
	<line class="st3" x1="773.8" y1="511.8" x2="773.8" y2="403.4"/>
	<polygon class="st2" points="778.6,409.1 773.8,404.3 769,409.1 769,405 773.8,400.2 778.6,405 	"/>
</g>
<g>
	<line class="st3" x1="809.8" y1="511.8" x2="809.8" y2="403.4"/>
	<polygon class="st2" points="814.6,409.1 809.8,404.3 805,409.1 805,405 809.8,400.2 814.6,405 	"/>
</g>
<g>
	<line class="st3" x1="845.8" y1="511.8" x2="845.8" y2="403.4"/>
	<polygon class="st2" points="850.6,409.1 845.8,404.3 841,409.1 841,405 845.8,400.2 850.6,405 	"/>
</g>
<g>
	<line class="st3" x1="881.8" y1="511.8" x2="881.8" y2="403.4"/>
	<polygon class="st2" points="886.6,409.1 881.8,404.3 877,409.1 877,405 881.8,400.2 886.6,405 	"/>
</g>
<g>
	<line class="st3" x1="917.8" y1="511.8" x2="917.8" y2="403.4"/>
	<polygon class="st2" points="922.6,409.1 917.8,404.3 913,409.1 913,405 917.8,400.2 922.6,405 	"/>
</g>
<g>
	<line class="st3" x1="953.8" y1="511.8" x2="953.8" y2="403.4"/>
	<polygon class="st2" points="958.6,409.1 953.8,404.3 949,409.1 949,405 953.8,400.2 958.6,405 	"/>
</g>
<g>
	<line class="st3" x1="989.8" y1="511.8" x2="989.8" y2="403.4"/>
	<polygon class="st2" points="994.6,409.1 989.8,404.3 985,409.1 985,405 989.8,400.2 994.6,405 	"/>
</g>
<g>
	<line class="st3" x1="1025.8" y1="511.8" x2="1025.8" y2="403.4"/>
	<polygon class="st2" points="1030.6,409.1 1025.8,404.3 1021,409.1 1021,405 1025.8,400.2 1030.6,405 	"/>
</g>
<g>
	<line class="st3" x1="1097.8" y1="511.8" x2="1097.8" y2="403.4"/>
	<polygon class="st2" points="1102.6,409.1 1097.8,404.3 1093,409.1 1093,405 1097.8,400.2 1102.6,405 	"/>
</g>
<g>
	<line class="st3" x1="1061.8" y1="511.8" x2="1061.8" y2="403.4"/>
	<polygon class="st2" points="1066.6,409.1 1061.8,404.3 1057,409.1 1057,405 1061.8,400.2 1066.6,405 	"/>
</g>
<g>
	<line class="st3" x1="1169.8" y1="511.8" x2="1169.8" y2="403.4"/>
	<polygon class="st2" points="1174.6,409.1 1169.8,404.3 1165,409.1 1165,405 1169.8,400.2 1174.6,405 	"/>
</g>
<g>
	<line class="st3" x1="1133.8" y1="511.8" x2="1133.8" y2="403.4"/>
	<polygon class="st2" points="1138.6,409.1 1133.8,404.3 1129,409.1 1129,405 1133.8,400.2 1138.6,405 	"/>
</g>
<g>
	<line class="st3" x1="1241.8" y1="511.8" x2="1241.8" y2="403.4"/>
	<polygon class="st2" points="1246.6,409.1 1241.8,404.3 1237,409.1 1237,405 1241.8,400.2 1246.6,405 	"/>
</g>
<g>
	<line class="st3" x1="1205.8" y1="511.8" x2="1205.8" y2="403.4"/>
	<polygon class="st2" points="1210.6,409.1 1205.8,404.3 1201,409.1 1201,405 1205.8,400.2 1210.6,405 	"/>
</g>
<g>
	<line class="st3" x1="1313.8" y1="511.8" x2="1313.8" y2="403.4"/>
	<polygon class="st2" points="1318.6,409.1 1313.8,404.3 1309,409.1 1309,405 1313.8,400.2 1318.6,405 	"/>
</g>
<g>
	<line class="st3" x1="1277.8" y1="511.8" x2="1277.8" y2="403.4"/>
	<polygon class="st2" points="1282.6,409.1 1277.8,404.3 1273,409.1 1273,405 1277.8,400.2 1282.6,405 	"/>
</g>
<g>
	<line class="st3" x1="1385.8" y1="511.8" x2="1385.8" y2="403.4"/>
	<polygon class="st2" points="1390.6,409.1 1385.8,404.3 1381,409.1 1381,405 1385.8,400.2 1390.6,405 	"/>
</g>
<g>
	<line class="st3" x1="1349.8" y1="511.8" x2="1349.8" y2="403.4"/>
	<polygon class="st2" points="1354.6,409.1 1349.8,404.3 1345,409.1 1345,405 1349.8,400.2 1354.6,405 	"/>
</g>
<g>
	<line class="st3" x1="1457.8" y1="511.8" x2="1457.8" y2="403.4"/>
	<polygon class="st2" points="1462.6,409.1 1457.8,404.3 1453,409.1 1453,405 1457.8,400.2 1462.6,405 	"/>
</g>
<g>
	<line class="st3" x1="1421.8" y1="511.8" x2="1421.8" y2="403.4"/>
	<polygon class="st2" points="1426.6,409.1 1421.8,404.3 1417,409.1 1417,405 1421.8,400.2 1426.6,405 	"/>
</g>
<g>
	<line class="st3" x1="1529.8" y1="511.8" x2="1529.8" y2="403.4"/>
	<polygon class="st2" points="1534.6,409.1 1529.8,404.3 1525,409.1 1525,405 1529.8,400.2 1534.6,405 	"/>
</g>
<g>
	<line class="st3" x1="1493.8" y1="511.8" x2="1493.8" y2="403.4"/>
	<polygon class="st2" points="1498.6,409.1 1493.8,404.3 1489,409.1 1489,405 1493.8,400.2 1498.6,405 	"/>
</g>
<g>
	<line class="st3" x1="1565.8" y1="511.8" x2="1565.8" y2="403.4"/>
	<polygon class="st2" points="1570.6,409.1 1565.8,404.3 1561,409.1 1561,405 1565.8,400.2 1570.6,405 	"/>
</g>
<g>
	<line class="st3" x1="1601.8" y1="511.8" x2="1601.8" y2="403.4"/>
	<polygon class="st2" points="1606.6,409.1 1601.8,404.3 1597,409.1 1597,405 1601.8,400.2 1606.6,405 	"/>
</g>
<g>
	<line class="st3" x1="1673.8" y1="511.8" x2="1673.8" y2="403.4"/>
	<polygon class="st2" points="1678.6,409.1 1673.8,404.3 1669,409.1 1669,405 1673.8,400.2 1678.6,405 	"/>
</g>
<g>
	<line class="st3" x1="1637.8" y1="511.8" x2="1637.8" y2="403.4"/>
	<polygon class="st2" points="1642.6,409.1 1637.8,404.3 1633,409.1 1633,405 1637.8,400.2 1642.6,405 	"/>
</g>
<g>
	<line class="st3" x1="1745.8" y1="511.8" x2="1745.8" y2="403.4"/>
	<polygon class="st2" points="1750.6,409.1 1745.8,404.3 1741,409.1 1741,405 1745.8,400.2 1750.6,405 	"/>
</g>
<g>
	<line class="st3" x1="1709.8" y1="511.8" x2="1709.8" y2="403.4"/>
	<polygon class="st2" points="1714.6,409.1 1709.8,404.3 1705,409.1 1705,405 1709.8,400.2 1714.6,405 	"/>
</g>
<g>
	<line class="st3" x1="1817.8" y1="511.8" x2="1817.8" y2="403.4"/>
	<polygon class="st2" points="1822.6,409.1 1817.8,404.3 1813,409.1 1813,405 1817.8,400.2 1822.6,405 	"/>
</g>
<g>
	<line class="st3" x1="1781.8" y1="511.8" x2="1781.8" y2="403.4"/>
	<polygon class="st2" points="1786.6,409.1 1781.8,404.3 1777,409.1 1777,405 1781.8,400.2 1786.6,405 	"/>
</g>
<g>
	<line class="st3" x1="1889.8" y1="511.8" x2="1889.8" y2="403.4"/>
	<polygon class="st2" points="1894.6,409.1 1889.8,404.3 1885,409.1 1885,405 1889.8,400.2 1894.6,405 	"/>
</g>
<g>
	<line class="st3" x1="1853.8" y1="511.8" x2="1853.8" y2="403.4"/>
	<polygon class="st2" points="1858.6,409.1 1853.8,404.3 1849,409.1 1849,405 1853.8,400.2 1858.6,405 	"/>
</g>
<g>
	<line class="st3" x1="1961.8" y1="511.8" x2="1961.8" y2="403.4"/>
	<polygon class="st2" points="1966.6,409.1 1961.8,404.3 1957,409.1 1957,405 1961.8,400.2 1966.6,405 	"/>
</g>
<g>
	<line class="st3" x1="1925.8" y1="511.8" x2="1925.8" y2="403.4"/>
	<polygon class="st2" points="1930.6,409.1 1925.8,404.3 1921,409.1 1921,405 1925.8,400.2 1930.6,405 	"/>
</g>
<g>
	<line class="st3" x1="2033.8" y1="511.8" x2="2033.8" y2="403.4"/>
	<polygon class="st2" points="2038.6,409.1 2033.8,404.3 2029,409.1 2029,405 2033.8,400.2 2038.6,405 	"/>
</g>
<g>
	<line class="st3" x1="1997.8" y1="511.8" x2="1997.8" y2="403.4"/>
	<polygon class="st2" points="2002.6,409.1 1997.8,404.3 1993,409.1 1993,405 1997.8,400.2 2002.6,405 	"/>
</g>
<g>
	<line class="st3" x1="2105.8" y1="511.8" x2="2105.8" y2="403.4"/>
	<polygon class="st2" points="2110.6,409.1 2105.8,404.3 2101,409.1 2101,405 2105.8,400.2 2110.6,405 	"/>
</g>
<g>
	<line class="st3" x1="2069.8" y1="511.8" x2="2069.8" y2="403.4"/>
	<polygon class="st2" points="2074.6,409.1 2069.8,404.3 2065,409.1 2065,405 2069.8,400.2 2074.6,405 	"/>
</g>
<g>
	<line class="st3" x1="413.8" y1="511.8" x2="413.8" y2="403.4"/>
	<polygon class="st2" points="418.6,409.1 413.8,404.3 409,409.1 409,405 413.8,400.2 418.6,405 	"/>
</g>
<g>
	<line class="st3" x1="377.8" y1="511.8" x2="377.8" y2="403.4"/>
	<polygon class="st2" points="382.6,409.1 377.8,404.3 373,409.1 373,405 377.8,400.2 382.6,405 	"/>
</g>
<g>
	<line class="st4" x1="449.8" y1="512.1" x2="449.8" y2="507.1"/>
	<line class="st5" x1="449.8" y1="496.8" x2="449.8" y2="11"/>
	<line class="st4" x1="449.8" y1="5.8" x2="449.8" y2="0.8"/>
</g>
<g>
	<line class="st4" x1="485.8" y1="512.1" x2="485.8" y2="507.1"/>
	<line class="st5" x1="485.8" y1="496.8" x2="485.8" y2="11"/>
	<line class="st4" x1="485.8" y1="5.8" x2="485.8" y2="0.8"/>
</g>
<g>
	<line class="st4" x1="521.8" y1="512.1" x2="521.8" y2="507.1"/>
	<line class="st5" x1="521.8" y1="496.8" x2="521.8" y2="11"/>
	<line class="st4" x1="521.8" y1="5.8" x2="521.8" y2="0.8"/>
</g>
<g>
	<line class="st4" x1="557.8" y1="512.1" x2="557.8" y2="507.1"/>
	<line class="st5" x1="557.8" y1="496.8" x2="557.8" y2="11"/>
	<line class="st4" x1="557.8" y1="5.8" x2="557.8" y2="0.8"/>
</g>
<g>
	<line class="st4" x1="593.8" y1="512.1" x2="593.8" y2="507.1"/>
	<line class="st5" x1="593.8" y1="496.8" x2="593.8" y2="11"/>
	<line class="st4" x1="593.8" y1="5.8" x2="593.8" y2="0.8"/>
</g>
<g>
	<line class="st4" x1="629.8" y1="512.1" x2="629.8" y2="507.1"/>
	<line class="st5" x1="629.8" y1="496.8" x2="629.8" y2="11"/>
	<line class="st4" x1="629.8" y1="5.8" x2="629.8" y2="0.8"/>
</g>
<g>
	<line class="st4" x1="665.8" y1="512.1" x2="665.8" y2="507.1"/>
	<line class="st5" x1="665.8" y1="496.8" x2="665.8" y2="11"/>
	<line class="st4" x1="665.8" y1="5.8" x2="665.8" y2="0.8"/>
</g>
<g>
	<line class="st4" x1="701.8" y1="512.1" x2="701.8" y2="507.1"/>
	<line class="st5" x1="701.8" y1="496.8" x2="701.8" y2="11"/>
	<line class="st4" x1="701.8" y1="5.8" x2="701.8" y2="0.8"/>
</g>
<g>
	<line class="st4" x1="737.8" y1="512.1" x2="737.8" y2="507.1"/>
	<line class="st5" x1="737.8" y1="496.8" x2="737.8" y2="11"/>
	<line class="st4" x1="737.8" y1="5.8" x2="737.8" y2="0.8"/>
</g>
<g>
	<line class="st4" x1="773.8" y1="512.1" x2="773.8" y2="507.1"/>
	<line class="st5" x1="773.8" y1="496.8" x2="773.8" y2="11"/>
	<line class="st4" x1="773.8" y1="5.8" x2="773.8" y2="0.8"/>
</g>
<g>
	<line class="st4" x1="809.8" y1="512.1" x2="809.8" y2="507.1"/>
	<line class="st5" x1="809.8" y1="496.8" x2="809.8" y2="11"/>
	<line class="st4" x1="809.8" y1="5.8" x2="809.8" y2="0.8"/>
</g>
<g>
	<line class="st4" x1="845.8" y1="512.1" x2="845.8" y2="507.1"/>
	<line class="st5" x1="845.8" y1="496.8" x2="845.8" y2="11"/>
	<line class="st4" x1="845.8" y1="5.8" x2="845.8" y2="0.8"/>
</g>
<g>
	<line class="st4" x1="881.8" y1="512.1" x2="881.8" y2="507.1"/>
	<line class="st5" x1="881.8" y1="496.8" x2="881.8" y2="11"/>
	<line class="st4" x1="881.8" y1="5.8" x2="881.8" y2="0.8"/>
</g>
<g>
	<line class="st4" x1="917.8" y1="512.1" x2="917.8" y2="507.1"/>
	<line class="st5" x1="917.8" y1="496.8" x2="917.8" y2="11"/>
	<line class="st4" x1="917.8" y1="5.8" x2="917.8" y2="0.8"/>
</g>
<g>
	<line class="st4" x1="953.8" y1="512.1" x2="953.8" y2="507.1"/>
	<line class="st5" x1="953.8" y1="496.8" x2="953.8" y2="11"/>
	<line class="st4" x1="953.8" y1="5.8" x2="953.8" y2="0.8"/>
</g>
<g>
	<line class="st4" x1="989.8" y1="512.1" x2="989.8" y2="507.1"/>
	<line class="st5" x1="989.8" y1="496.8" x2="989.8" y2="11"/>
	<line class="st4" x1="989.8" y1="5.8" x2="989.8" y2="0.8"/>
</g>
<g>
	<line class="st4" x1="1025.8" y1="512.1" x2="1025.8" y2="507.1"/>
	<line class="st5" x1="1025.8" y1="496.8" x2="1025.8" y2="11"/>
	<line class="st4" x1="1025.8" y1="5.8" x2="1025.8" y2="0.8"/>
</g>
<g>
	<line class="st4" x1="1097.8" y1="512.1" x2="1097.8" y2="507.1"/>
	<line class="st5" x1="1097.8" y1="496.8" x2="1097.8" y2="11"/>
	<line class="st4" x1="1097.8" y1="5.8" x2="1097.8" y2="0.8"/>
</g>
<g>
	<line class="st4" x1="1061.8" y1="512.1" x2="1061.8" y2="507.1"/>
	<line class="st5" x1="1061.8" y1="496.8" x2="1061.8" y2="11"/>
	<line class="st4" x1="1061.8" y1="5.8" x2="1061.8" y2="0.8"/>
</g>
<g>
	<line class="st4" x1="1169.8" y1="512.1" x2="1169.8" y2="507.1"/>
	<line class="st5" x1="1169.8" y1="496.8" x2="1169.8" y2="11"/>
	<line class="st4" x1="1169.8" y1="5.8" x2="1169.8" y2="0.8"/>
</g>
<g>
	<line class="st4" x1="1133.8" y1="512.1" x2="1133.8" y2="507.1"/>
	<line class="st5" x1="1133.8" y1="496.8" x2="1133.8" y2="11"/>
	<line class="st4" x1="1133.8" y1="5.8" x2="1133.8" y2="0.8"/>
</g>
<g>
	<line class="st4" x1="1241.8" y1="512.1" x2="1241.8" y2="507.1"/>
	<line class="st5" x1="1241.8" y1="496.8" x2="1241.8" y2="11"/>
	<line class="st4" x1="1241.8" y1="5.8" x2="1241.8" y2="0.8"/>
</g>
<g>
	<line class="st4" x1="1205.8" y1="512.1" x2="1205.8" y2="507.1"/>
	<line class="st5" x1="1205.8" y1="496.8" x2="1205.8" y2="11"/>
	<line class="st4" x1="1205.8" y1="5.8" x2="1205.8" y2="0.8"/>
</g>
<g>
	<line class="st4" x1="1313.8" y1="512.1" x2="1313.8" y2="507.1"/>
	<line class="st5" x1="1313.8" y1="496.8" x2="1313.8" y2="11"/>
	<line class="st4" x1="1313.8" y1="5.8" x2="1313.8" y2="0.8"/>
</g>
<g>
	<line class="st4" x1="1277.8" y1="512.1" x2="1277.8" y2="507.1"/>
	<line class="st5" x1="1277.8" y1="496.8" x2="1277.8" y2="11"/>
	<line class="st4" x1="1277.8" y1="5.8" x2="1277.8" y2="0.8"/>
</g>
<g>
	<line class="st4" x1="1385.8" y1="512.1" x2="1385.8" y2="507.1"/>
	<line class="st5" x1="1385.8" y1="496.8" x2="1385.8" y2="11"/>
	<line class="st4" x1="1385.8" y1="5.8" x2="1385.8" y2="0.8"/>
</g>
<g>
	<line class="st4" x1="1349.8" y1="512.1" x2="1349.8" y2="507.1"/>
	<line class="st5" x1="1349.8" y1="496.8" x2="1349.8" y2="11"/>
	<line class="st4" x1="1349.8" y1="5.8" x2="1349.8" y2="0.8"/>
</g>
<g>
	<line class="st4" x1="1457.8" y1="512.1" x2="1457.8" y2="507.1"/>
	<line class="st5" x1="1457.8" y1="496.8" x2="1457.8" y2="11"/>
	<line class="st4" x1="1457.8" y1="5.8" x2="1457.8" y2="0.8"/>
</g>
<g>
	<line class="st4" x1="1421.8" y1="512.1" x2="1421.8" y2="507.1"/>
	<line class="st5" x1="1421.8" y1="496.8" x2="1421.8" y2="11"/>
	<line class="st4" x1="1421.8" y1="5.8" x2="1421.8" y2="0.8"/>
</g>
<g>
	<line class="st4" x1="1529.8" y1="512.1" x2="1529.8" y2="507.1"/>
	<line class="st5" x1="1529.8" y1="496.8" x2="1529.8" y2="11"/>
	<line class="st4" x1="1529.8" y1="5.8" x2="1529.8" y2="0.8"/>
</g>
<g>
	<line class="st4" x1="1493.8" y1="512.1" x2="1493.8" y2="507.1"/>
	<line class="st5" x1="1493.8" y1="496.8" x2="1493.8" y2="11"/>
	<line class="st4" x1="1493.8" y1="5.8" x2="1493.8" y2="0.8"/>
</g>
<g>
	<line class="st4" x1="1565.8" y1="512.1" x2="1565.8" y2="507.1"/>
	<line class="st5" x1="1565.8" y1="496.8" x2="1565.8" y2="11"/>
	<line class="st4" x1="1565.8" y1="5.8" x2="1565.8" y2="0.8"/>
</g>
<g>
	<line class="st4" x1="1601.8" y1="512.1" x2="1601.8" y2="507.1"/>
	<line class="st5" x1="1601.8" y1="496.8" x2="1601.8" y2="11"/>
	<line class="st4" x1="1601.8" y1="5.8" x2="1601.8" y2="0.8"/>
</g>
<g>
	<line class="st4" x1="1673.8" y1="512.1" x2="1673.8" y2="507.1"/>
	<line class="st5" x1="1673.8" y1="496.8" x2="1673.8" y2="11"/>
	<line class="st4" x1="1673.8" y1="5.8" x2="1673.8" y2="0.8"/>
</g>
<g>
	<line class="st4" x1="1637.8" y1="512.1" x2="1637.8" y2="507.1"/>
	<line class="st5" x1="1637.8" y1="496.8" x2="1637.8" y2="11"/>
	<line class="st4" x1="1637.8" y1="5.8" x2="1637.8" y2="0.8"/>
</g>
<g>
	<line class="st4" x1="1745.8" y1="512.1" x2="1745.8" y2="507.1"/>
	<line class="st5" x1="1745.8" y1="496.8" x2="1745.8" y2="11"/>
	<line class="st4" x1="1745.8" y1="5.8" x2="1745.8" y2="0.8"/>
</g>
<g>
	<line class="st4" x1="1709.8" y1="512.1" x2="1709.8" y2="507.1"/>
	<line class="st5" x1="1709.8" y1="496.8" x2="1709.8" y2="11"/>
	<line class="st4" x1="1709.8" y1="5.8" x2="1709.8" y2="0.8"/>
</g>
<g>
	<line class="st4" x1="1817.8" y1="512.1" x2="1817.8" y2="507.1"/>
	<line class="st5" x1="1817.8" y1="496.8" x2="1817.8" y2="11"/>
	<line class="st4" x1="1817.8" y1="5.8" x2="1817.8" y2="0.8"/>
</g>
<g>
	<line class="st4" x1="1781.8" y1="512.1" x2="1781.8" y2="507.1"/>
	<line class="st5" x1="1781.8" y1="496.8" x2="1781.8" y2="11"/>
	<line class="st4" x1="1781.8" y1="5.8" x2="1781.8" y2="0.8"/>
</g>
<g>
	<line class="st4" x1="1889.8" y1="512.1" x2="1889.8" y2="507.1"/>
	<line class="st5" x1="1889.8" y1="496.8" x2="1889.8" y2="11"/>
	<line class="st4" x1="1889.8" y1="5.8" x2="1889.8" y2="0.8"/>
</g>
<g>
	<line class="st4" x1="1853.8" y1="512.1" x2="1853.8" y2="507.1"/>
	<line class="st5" x1="1853.8" y1="496.8" x2="1853.8" y2="11"/>
	<line class="st4" x1="1853.8" y1="5.8" x2="1853.8" y2="0.8"/>
</g>
<g>
	<line class="st4" x1="1961.8" y1="512.1" x2="1961.8" y2="507.1"/>
	<line class="st5" x1="1961.8" y1="496.8" x2="1961.8" y2="11"/>
	<line class="st4" x1="1961.8" y1="5.8" x2="1961.8" y2="0.8"/>
</g>
<g>
	<line class="st4" x1="1925.8" y1="512.1" x2="1925.8" y2="507.1"/>
	<line class="st5" x1="1925.8" y1="496.8" x2="1925.8" y2="11"/>
	<line class="st4" x1="1925.8" y1="5.8" x2="1925.8" y2="0.8"/>
</g>
<g>
	<line class="st4" x1="2033.8" y1="512.1" x2="2033.8" y2="507.1"/>
	<line class="st5" x1="2033.8" y1="496.8" x2="2033.8" y2="11"/>
	<line class="st4" x1="2033.8" y1="5.8" x2="2033.8" y2="0.8"/>
</g>
<g>
	<line class="st4" x1="1997.8" y1="512.1" x2="1997.8" y2="507.1"/>
	<line class="st5" x1="1997.8" y1="496.8" x2="1997.8" y2="11"/>
	<line class="st4" x1="1997.8" y1="5.8" x2="1997.8" y2="0.8"/>
</g>
<g>
	<line class="st4" x1="2105.8" y1="512.1" x2="2105.8" y2="507.1"/>
	<line class="st5" x1="2105.8" y1="496.8" x2="2105.8" y2="11"/>
	<line class="st4" x1="2105.8" y1="5.8" x2="2105.8" y2="0.8"/>
</g>
<g>
	<line class="st4" x1="2069.8" y1="512.1" x2="2069.8" y2="507.1"/>
	<line class="st5" x1="2069.8" y1="496.8" x2="2069.8" y2="11"/>
	<line class="st4" x1="2069.8" y1="5.8" x2="2069.8" y2="0.8"/>
</g>
<g>
	<line class="st4" x1="413.8" y1="512.1" x2="413.8" y2="507.1"/>
	<line class="st5" x1="413.8" y1="496.8" x2="413.8" y2="11"/>
	<line class="st4" x1="413.8" y1="5.8" x2="413.8" y2="0.8"/>
</g>
<g id="Ebene_2_00000001638766731312150940000004099744470755285951_">
	<circle class="st6" cx="413.8" cy="149.1" r="5.4"/>
	<circle class="st6" cx="449.8" cy="105.7" r="5.4"/>
	<circle class="st6" cx="485.8" cy="68.6" r="5.4"/>
	<circle class="st6" cx="521.8" cy="40.1" r="5.4"/>
	<circle class="st6" cx="557.8" cy="22" r="5.4"/>
	<circle class="st6" cx="377.8" cy="195.8" r="5.4"/>
	<circle class="st6" cx="773.8" cy="149.1" r="5.4"/>
	<circle class="st6" cx="737.8" cy="105.7" r="5.4"/>
	<circle class="st6" cx="701.8" cy="68.6" r="5.4"/>
	<circle class="st6" cx="665.8" cy="40.1" r="5.4"/>
	<circle class="st6" cx="629.8" cy="22" r="5.4"/>
	<circle class="st6" cx="593.8" cy="15.8" r="5.4"/>
	<circle class="st6" cx="1205.8" cy="242.5" r="5.4"/>
	<circle class="st6" cx="1169.8" cy="285.9" r="5.4"/>
	<circle class="st6" cx="1133.8" cy="323" r="5.4"/>
	<circle class="st6" cx="1097.8" cy="351.5" r="5.4"/>
	<circle class="st6" cx="1061.8" cy="369.6" r="5.4"/>
	<circle class="st6" cx="1241.8" cy="195.8" r="5.4"/>
	<circle class="st6" cx="845.8" cy="242.5" r="5.4"/>
	<circle class="st6" cx="881.8" cy="285.9" r="5.4"/>
	<circle class="st6" cx="917.8" cy="323" r="5.4"/>
	<circle class="st6" cx="953.8" cy="351.5" r="5.4"/>
	<circle class="st6" cx="989.8" cy="369.6" r="5.4"/>
	<circle class="st6" cx="1025.8" cy="375.8" r="5.4"/>
	<circle class="st6" cx="809.8" cy="195.8" r="5.4"/>
	<circle class="st6" cx="1277.8" cy="149.1" r="5.4"/>
	<circle class="st6" cx="1313.8" cy="105.7" r="5.4"/>
	<circle class="st6" cx="1349.8" cy="68.6" r="5.4"/>
	<circle class="st6" cx="1385.8" cy="40.1" r="5.4"/>
	<circle class="st6" cx="1421.8" cy="22" r="5.4"/>
	<circle class="st6" cx="1637.8" cy="149.1" r="5.4"/>
	<circle class="st6" cx="1601.8" cy="105.7" r="5.4"/>
	<circle class="st6" cx="1565.8" cy="68.6" r="5.4"/>
	<circle class="st6" cx="1529.8" cy="40.1" r="5.4"/>
	<circle class="st6" cx="1493.8" cy="22" r="5.4"/>
	<circle class="st6" cx="1457.8" cy="15.8" r="5.4"/>
	<circle class="st6" cx="2069.8" cy="242.5" r="5.4"/>
	<circle class="st6" cx="2033.8" cy="285.9" r="5.4"/>
	<circle class="st6" cx="1997.8" cy="323" r="5.4"/>
	<circle class="st6" cx="1961.8" cy="351.5" r="5.4"/>
	<circle class="st6" cx="1925.8" cy="369.6" r="5.4"/>
	<path class="st6" d="M2105.8,190.4c3,0,5.4,2.4,5.4,5.4s-2.4,5.4-5.4,5.4s-5.4-2.4-5.4-5.4S2102.9,190.4,2105.8,190.4z"/>
	<circle class="st6" cx="1709.8" cy="242.5" r="5.4"/>
	<circle class="st6" cx="1745.8" cy="285.9" r="5.4"/>
	<circle class="st6" cx="1781.8" cy="323" r="5.4"/>
	<circle class="st6" cx="1817.8" cy="351.5" r="5.4"/>
	<circle class="st6" cx="1853.8" cy="369.6" r="5.4"/>
	<circle class="st6" cx="1889.8" cy="375.8" r="5.4"/>
	<circle class="st6" cx="1673.8" cy="195.8" r="5.4"/>
</g>
<g>
	<g>
		<path class="st2" d="M4.3,214.2l17.8-42.2h5.3l17.8,42.2h-5.6l-14.8-36.7L10,214.2H4.3z M13.5,200.4v-4.3H36v4.3H13.5z"/>
		<path class="st2" d="M60.8,214.9c-2.2,0-4.1-0.5-5.7-1.5c-1.6-1-2.9-2.4-3.8-4.3c-0.9-1.9-1.3-4.1-1.3-6.7v-19.9h4.9v19.5
			c0,2.6,0.5,4.7,1.5,6.3c1,1.6,2.7,2.4,5.3,2.4c1.9,0,3.5-0.5,4.9-1.5c1.4-1,2.5-2.4,3.2-4.4c0.8-2,1.2-4.4,1.2-7.3v-15.1h4.9v31.6
			h-4.6v-7.4l0.2,1.3c-0.8,2-2.1,3.6-4,4.9C65.6,214.3,63.4,214.9,60.8,214.9z"/>
		<path class="st2" d="M96.1,214.9c-2.6,0-4.8-0.7-6.8-2s-3.5-3.3-4.6-5.7c-1.1-2.5-1.6-5.4-1.6-8.8c0-3.4,0.6-6.3,1.7-8.8
			c1.1-2.5,2.6-4.4,4.6-5.7c2-1.3,4.2-2,6.8-2c2.1,0,4.1,0.5,6.2,1.6c2,1,3.6,2.8,4.6,5.2l-0.6,0.2v-18.6h4.9v43.9h-4.6v-6.6
			l0.1,0.5c-0.9,2.3-2.3,4-4.3,5.1S98.3,214.9,96.1,214.9z M97.4,210.8c1.7,0,3.2-0.4,4.5-1.3c1.4-0.9,2.5-2.2,3.3-4
			c0.8-1.8,1.2-4.2,1.2-7c0-4.3-0.9-7.4-2.6-9.4c-1.8-2-3.9-3.1-6.4-3.1c-2.6,0-4.8,1.1-6.4,3.2c-1.7,2.2-2.5,5.2-2.5,9.3
			c0,3.9,0.8,6.9,2.4,9.1C92.5,209.8,94.7,210.8,97.4,210.8z"/>
		<path class="st2" d="M123.2,177.3c-1.1,0-2.1-0.4-2.9-1.2c-0.8-0.8-1.2-1.8-1.2-2.9c0-1.2,0.4-2.1,1.2-2.9
			c0.8-0.8,1.8-1.2,2.9-1.2c1.2,0,2.1,0.4,2.9,1.2s1.2,1.8,1.2,2.9c0,1.1-0.4,2.1-1.2,2.9C125.4,176.9,124.4,177.3,123.2,177.3z
			 M120.8,214.2v-31.6h4.9v31.6H120.8z"/>
		<path class="st2" d="M148.4,214.9c-3,0-5.6-0.7-7.9-2.1c-2.3-1.4-4-3.3-5.3-5.8c-1.3-2.5-1.9-5.4-1.9-8.6c0-3.3,0.6-6.1,1.9-8.6
			c1.3-2.5,3-4.4,5.3-5.8c2.3-1.4,4.9-2.1,7.9-2.1c3,0,5.6,0.7,7.9,2.1c2.3,1.4,4,3.3,5.3,5.8c1.3,2.5,1.9,5.4,1.9,8.6
			c0,3.3-0.6,6.1-1.9,8.6c-1.3,2.5-3,4.4-5.3,5.8C154,214.2,151.4,214.9,148.4,214.9z M148.4,210.8c3,0,5.3-1.1,7.1-3.3
			s2.6-5.3,2.6-9.1c0-3.8-0.9-6.9-2.6-9.1c-1.7-2.2-4.1-3.3-7.1-3.3s-5.3,1.1-7.1,3.3c-1.7,2.2-2.6,5.2-2.6,9.1
			c0,3.8,0.9,6.9,2.6,9.1S145.4,210.8,148.4,210.8z"/>
		<path class="st2" d="M197.1,214.9c-2.3,0-4.4-0.4-6.2-1.1c-1.9-0.8-3.4-1.9-4.6-3.4c-1.2-1.5-2.1-3.5-2.5-5.8l5.2-1
			c0.2,2.5,1.1,4.3,2.5,5.5c1.5,1.2,3.3,1.8,5.6,1.8c2.2,0,4-0.6,5.3-1.7c1.3-1.1,2-2.5,2-4.1c0-1.4-0.5-2.5-1.4-3.3
			c-0.9-0.8-2.3-1.4-4-1.7l-3.8-0.7c-1-0.2-2.1-0.5-3.2-0.8s-2.2-0.8-3.1-1.5c-1-0.6-1.7-1.4-2.3-2.5c-0.6-1-0.9-2.3-0.9-3.8
			c0-2.1,0.5-3.8,1.6-5.1s2.5-2.3,4.3-2.9s3.7-1,5.8-1c2.3,0,4.2,0.4,5.9,1.1c1.7,0.7,3,1.7,4.1,3c1.1,1.3,1.8,2.9,2.1,4.7l-5.4,1.1
			c-0.1-1.2-0.5-2.2-1-3.1s-1.2-1.6-2.2-2c-0.9-0.5-2.2-0.7-3.7-0.7c-1.8,0-3.4,0.4-4.7,1.1c-1.3,0.8-2,1.9-2,3.5
			c0,0.9,0.2,1.6,0.7,2.2c0.4,0.6,1.1,1.1,2,1.5c0.9,0.4,2,0.7,3.4,1l3.9,0.8c1.6,0.3,3.2,0.8,4.5,1.5c1.4,0.7,2.5,1.6,3.3,2.7
			c0.8,1.2,1.3,2.7,1.3,4.6c0,2.1-0.5,3.9-1.6,5.4c-1,1.5-2.5,2.7-4.3,3.5S199.6,214.9,197.1,214.9z"/>
		<path class="st2" d="M219.6,177.3c-1.1,0-2.1-0.4-2.9-1.2c-0.8-0.8-1.2-1.8-1.2-2.9c0-1.2,0.4-2.1,1.2-2.9
			c0.8-0.8,1.8-1.2,2.9-1.2c1.2,0,2.1,0.4,2.9,1.2s1.2,1.8,1.2,2.9c0,1.1-0.4,2.1-1.2,2.9C221.7,176.9,220.7,177.3,219.6,177.3z
			 M217.1,214.2v-31.6h4.9v31.6H217.1z"/>
		<path class="st2" d="M242.7,226.4c-4.7,0-8.2-0.7-10.4-2s-3.3-3.4-3.3-6.1c0-1.6,0.4-3,1.2-4.2c0.8-1.2,2.2-2.2,4.2-2.8
			c-0.7-0.4-1.3-1-1.8-1.8c-0.5-0.7-0.7-1.6-0.7-2.5c0-1.1,0.3-2.1,1-2.9c0.7-0.9,1.7-1.5,2.9-1.9c-1.6-0.9-2.8-2.2-3.6-3.7
			c-0.9-1.6-1.3-3.4-1.3-5.5c0-2.3,0.5-4.2,1.5-5.9c1-1.7,2.4-2.9,4.3-3.8c1.9-0.9,4.1-1.3,6.7-1.3s4.8,0.4,6.7,1.3
			c1.9,0.9,3.3,2.2,4.4,3.8c1,1.7,1.5,3.6,1.5,5.9c0,2.2-0.5,4.2-1.5,5.8c-1,1.6-2.5,2.9-4.4,3.8c-1.9,0.9-4.2,1.3-6.8,1.3h-2.7
			c-2.5,0-3.7,0.7-3.7,2.2c0,1.4,1.2,2.1,3.6,2.1h6.3c2.5,0,4.5,0.3,6,0.9c1.5,0.6,2.7,1.3,3.5,2.2c0.8,0.9,1.4,1.9,1.7,2.9
			s0.4,2.1,0.4,3c0,3.1-1.1,5.4-3.4,6.9c-2.2,1.5-5.7,2.2-10.5,2.2H242.7z M242.7,222.4h1.8c5.8,0,8.7-1.7,8.7-5.2
			c0-1.4-0.5-2.6-1.6-3.5c-1-0.9-2.8-1.4-5.3-1.4h-5.4c-2,0-3.6,0.4-4.9,1.2c-1.3,0.8-2,2.1-2,3.9c0,1.7,0.7,3,2.1,3.8
			C237.6,222,239.8,222.4,242.7,222.4z M243.3,200.5c2.5,0,4.4-0.6,5.7-1.9c1.3-1.3,2-3.1,2-5.6c0-2.4-0.7-4.3-2-5.6
			c-1.3-1.3-3.2-2-5.7-2c-2.5,0-4.3,0.7-5.7,2c-1.3,1.3-2,3.2-2,5.6c0,2.4,0.7,4.3,2,5.6C239,199.8,240.9,200.5,243.3,200.5z
			 M248.5,185.2v-3.1c0-1.3,0.5-2.3,1.4-3.1c0.9-0.8,2-1.2,3.3-1.2h3.8v4.1h-3.1c-0.6,0-1,0.1-1.2,0.3c-0.2,0.2-0.3,0.6-0.3,1.3v1.8
			H248.5z"/>
		<path class="st2" d="M264.9,214.2v-31.6h4.6v7.1l-0.2-1.3c0.8-1.8,2.2-3.4,4-4.6c1.8-1.3,4-1.9,6.6-1.9c2.2,0,4.2,0.5,5.8,1.5
			c1.6,1,2.9,2.4,3.8,4.3s1.3,4.1,1.3,6.7v19.9h-4.9v-19.5c0-2.6-0.5-4.7-1.6-6.3c-1.1-1.6-2.8-2.4-5.3-2.4c-2.6,0-4.8,1-6.6,3
			c-1.7,2-2.6,4.9-2.6,8.7v16.6H264.9z"/>
		<path class="st2" d="M307.9,214.9c-2.1,0-3.9-0.4-5.5-1.2s-2.7-1.9-3.6-3.3c-0.8-1.4-1.3-3-1.3-4.8c0-1.9,0.6-3.6,1.7-5.2
			c1.1-1.6,2.8-2.9,5.2-3.9c2.3-1,5.3-1.5,9-1.5h5.3l-0.5,0.5v-1.7c0-2.5-0.5-4.5-1.5-5.8c-1-1.4-2.7-2-5.1-2c-2.2,0-4,0.6-5.2,1.7
			c-1.2,1.2-1.9,2.7-1.9,4.7l-5.5-1.3c0.2-1.7,0.8-3.2,1.9-4.6c1.1-1.4,2.6-2.5,4.5-3.4c1.9-0.8,4.1-1.3,6.5-1.3
			c2.6,0,4.6,0.5,6.3,1.5s2.8,2.4,3.6,4.2s1.1,4,1.1,6.6v14.4c0,0.6,0.1,1.1,0.3,1.3c0.2,0.2,0.6,0.3,1.2,0.3h1.8v4.1h-3.1
			c-1.3,0-2.4-0.4-3.3-1.2c-0.9-0.8-1.3-1.9-1.3-3.1v-2.2h0.7c-0.3,0.8-0.8,1.7-1.3,2.5s-1.3,1.6-2.2,2.4c-0.9,0.7-2,1.3-3.2,1.8
			C311,214.7,309.5,214.9,307.9,214.9z M309,210.8c1.6,0,3.1-0.4,4.5-1.2c1.4-0.8,2.5-2.1,3.4-3.8c0.8-1.7,1.3-3.9,1.3-6.7v-0.3h-5
			c-2.6,0-4.6,0.3-6.1,1c-1.5,0.7-2.6,1.5-3.2,2.5c-0.6,1-0.9,2-0.9,3s0.2,1.9,0.7,2.7c0.4,0.8,1.1,1.4,2,1.9
			C306.5,210.6,307.7,210.8,309,210.8z"/>
		<path class="st2" d="M337.5,214.2c-1.2,0-2.3-0.4-3.3-1.2c-0.9-0.8-1.4-1.9-1.4-3.1v-39.6h4.9v38.2c0,0.6,0.1,1.1,0.3,1.3
			c0.2,0.2,0.6,0.3,1.2,0.3h3.1v4.1H337.5z"/>
	</g>
</g>
<g>
	<g>
		<path class="st2" d="M30.6,475.1c-3.2,0-6.1-0.5-8.5-1.6c-2.4-1.1-4.4-2.7-5.8-4.7c-1.5-2.1-2.5-4.5-3-7.5l6.3-1.3
			c0.1,3.5,1.1,6.1,3,8s4.5,2.8,7.9,2.8c2,0,3.8-0.3,5.2-1c1.4-0.7,2.5-1.6,3.3-2.8c0.8-1.2,1.1-2.6,1.1-4.3c0-2.2-0.6-3.8-1.9-4.9
			s-3-1.8-5.2-2.3l-5.5-1.2c-1-0.2-2.2-0.6-3.5-1c-1.3-0.4-2.6-1-3.9-1.8c-1.2-0.8-2.3-1.9-3.1-3.3c-0.8-1.4-1.2-3.1-1.2-5.2
			c0-2.7,0.7-4.9,2.1-6.6c1.4-1.7,3.2-2.9,5.4-3.7c2.2-0.8,4.6-1.2,7.1-1.2c2.9,0,5.4,0.5,7.5,1.4s3.8,2.2,5,3.9
			c1.3,1.7,2.1,3.7,2.6,6.1l-6.2,1.3c-0.2-1.8-0.6-3.3-1.3-4.6c-0.7-1.2-1.7-2.2-3-2.8c-1.3-0.7-2.9-1-4.9-1c-1.6,0-3.1,0.2-4.4,0.7
			s-2.5,1.2-3.4,2.2c-0.9,1-1.3,2.3-1.3,3.9c0,1.7,0.6,3,1.7,4c1.2,1,3.1,1.8,5.8,2.4l5.6,1.3c2,0.4,3.8,1.1,5.6,2s3.2,2.2,4.3,3.8
			c1.1,1.6,1.6,3.7,1.6,6.4s-0.6,4.9-1.8,6.8s-2.9,3.3-5.2,4.3C36.4,474.6,33.7,475.1,30.6,475.1z"/>
		<path class="st2" d="M61.1,475.1c-2.1,0-3.9-0.4-5.5-1.2c-1.6-0.8-2.7-1.9-3.6-3.3c-0.8-1.4-1.3-3-1.3-4.8c0-1.9,0.6-3.6,1.7-5.2
			s2.8-2.9,5.2-3.9c2.3-1,5.3-1.5,9-1.5h5.3l-0.5,0.5v-1.7c0-2.5-0.5-4.5-1.5-5.8c-1-1.4-2.7-2-5.1-2c-2.2,0-4,0.6-5.2,1.7
			c-1.2,1.2-1.9,2.7-1.9,4.7l-5.5-1.3c0.2-1.7,0.8-3.2,1.9-4.6c1.1-1.4,2.6-2.5,4.5-3.4c1.9-0.8,4.1-1.3,6.5-1.3
			c2.6,0,4.6,0.5,6.3,1.5s2.8,2.4,3.6,4.2s1.1,4,1.1,6.6v14.4c0,0.6,0.1,1.1,0.3,1.3c0.2,0.2,0.6,0.3,1.2,0.3h1.8v4.1h-3.1
			c-1.3,0-2.4-0.4-3.3-1.2c-0.9-0.8-1.3-1.9-1.3-3.1v-2.2h0.7c-0.3,0.8-0.8,1.7-1.3,2.5s-1.3,1.6-2.2,2.4c-0.9,0.7-2,1.3-3.2,1.8
			C64.1,474.9,62.7,475.1,61.1,475.1z M62.2,471c1.6,0,3.1-0.4,4.5-1.2c1.4-0.8,2.5-2.1,3.4-3.8s1.3-3.9,1.3-6.7v-0.3h-5
			c-2.6,0-4.6,0.3-6.1,1s-2.6,1.5-3.2,2.5c-0.6,1-0.9,2-0.9,3s0.2,1.9,0.7,2.7c0.4,0.8,1.1,1.4,2,1.9C59.7,470.8,60.8,471,62.2,471z
			"/>
		<path class="st2" d="M86,474.4v-31.6h4.6v5.4c0.7-1.6,2-3.1,3.7-4.3c1.7-1.2,3.8-1.8,6.1-1.8c2.1,0,3.9,0.6,5.5,1.7
			s2.7,2.8,3.5,4.8c1-1.9,2.4-3.5,4.1-4.7s3.7-1.8,6-1.8c3,0,5.4,1.1,7.2,3.3c1.8,2.2,2.7,5.2,2.7,9.1v19.9h-4.9v-19.5
			c0-1.8-0.2-3.3-0.6-4.6c-0.4-1.3-1-2.3-1.8-3s-2-1.1-3.5-1.1c-1.6,0-3,0.5-4.3,1.4c-1.3,0.9-2.3,2.2-3,4s-1.1,3.9-1.1,6.4v16.6
			h-4.9v-19.5c0-1.8-0.2-3.3-0.6-4.6c-0.4-1.3-1-2.3-1.8-3c-0.8-0.7-2-1.1-3.4-1.1c-1.6,0-3,0.4-4.3,1.3s-2.3,2.2-3,4
			c-0.7,1.7-1.1,3.9-1.1,6.4v16.6H86z"/>
		<path class="st2" d="M138.4,485.9v-43.1h4.6v6.6l-0.1-0.5c0.9-2.3,2.3-4,4.3-5.1s4.1-1.7,6.4-1.7c2.6,0,4.8,0.7,6.8,2
			c2,1.3,3.5,3.3,4.6,5.7c1.1,2.5,1.6,5.4,1.6,8.8s-0.6,6.3-1.7,8.8c-1.1,2.5-2.6,4.4-4.6,5.7c-2,1.3-4.2,2-6.8,2
			c-2.1,0-4.1-0.5-6.2-1.6c-2-1-3.6-2.8-4.6-5.2l0.4-0.2v17.8H138.4z M152.2,471c2.6,0,4.8-1.1,6.4-3.2c1.7-2.2,2.5-5.2,2.5-9.3
			c0-3.9-0.8-6.9-2.4-9.1c-1.6-2.2-3.8-3.2-6.5-3.2c-1.6,0-3.1,0.4-4.5,1.3s-2.5,2.2-3.3,4s-1.2,4.2-1.2,7c0,4.2,0.9,7.4,2.6,9.4
			S149.7,471,152.2,471z"/>
		<path class="st2" d="M178.4,474.4c-1.2,0-2.3-0.4-3.3-1.2s-1.4-1.9-1.4-3.1v-39.6h4.9v38.2c0,0.6,0.1,1.1,0.3,1.3
			c0.2,0.2,0.6,0.3,1.2,0.3h3.1v4.1H178.4z"/>
		<path class="st2" d="M202.3,475.1c-3,0-5.6-0.7-7.8-2s-3.9-3.3-5.1-5.7c-1.2-2.5-1.8-5.4-1.8-8.7c0-3.4,0.6-6.3,1.8-8.8
			c1.2-2.5,2.9-4.4,5-5.7s4.7-2,7.6-2c1.7,0,3.4,0.3,5.1,0.8c1.7,0.5,3.2,1.5,4.6,2.8c1.4,1.3,2.5,3.1,3.4,5.4s1.3,5.2,1.3,8.7
			h-25.6v-4h21.4l-1.4,1.8c-0.1-2.8-0.5-5-1.3-6.7c-0.8-1.7-1.8-2.9-3.1-3.6c-1.3-0.8-2.7-1.1-4.3-1.1c-1.9,0-3.5,0.5-4.8,1.5
			s-2.4,2.4-3.1,4.2c-0.7,1.9-1.1,4.1-1.1,6.8c0,3.9,0.8,7,2.4,9.1s3.9,3.2,6.9,3.2c2.1,0,3.9-0.5,5.4-1.6c1.5-1.1,2.5-2.6,3.2-4.7
			l4.8,1.6c-0.8,1.8-1.8,3.4-3,4.7c-1.3,1.3-2.8,2.3-4.5,3C206.4,474.8,204.5,475.1,202.3,475.1z"/>
		<path class="st2" d="M239.1,474.4v-31.6h4.6v6.7l-0.2-0.8c0.9-2.2,2.3-3.8,4.2-5c1.9-1.1,3.8-1.7,5.7-1.7c0.6,0,1.1,0,1.7,0.1
			c0.5,0.1,1,0.3,1.5,0.5l-0.6,4.6c-1.1-0.3-2.1-0.5-3.2-0.5c-0.7,0-1.5,0.1-2.5,0.4c-1,0.3-2,0.8-2.9,1.6s-1.8,2-2.4,3.5
			c-0.7,1.6-1,3.6-1,6.2v15.8H239.1z"/>
		<path class="st2" d="M271.3,475.1c-2.1,0-3.9-0.4-5.5-1.2c-1.6-0.8-2.7-1.9-3.6-3.3c-0.8-1.4-1.3-3-1.3-4.8c0-1.9,0.6-3.6,1.7-5.2
			s2.8-2.9,5.2-3.9c2.3-1,5.3-1.5,9-1.5h5.3l-0.5,0.5v-1.7c0-2.5-0.5-4.5-1.5-5.8c-1-1.4-2.7-2-5.1-2c-2.2,0-4,0.6-5.2,1.7
			c-1.2,1.2-1.9,2.7-1.9,4.7l-5.5-1.3c0.2-1.7,0.8-3.2,1.9-4.6c1.1-1.4,2.6-2.5,4.5-3.4c1.9-0.8,4.1-1.3,6.5-1.3
			c2.6,0,4.6,0.5,6.3,1.5s2.8,2.4,3.6,4.2s1.1,4,1.1,6.6v14.4c0,0.6,0.1,1.1,0.3,1.3c0.2,0.2,0.6,0.3,1.2,0.3h1.8v4.1h-3.1
			c-1.3,0-2.4-0.4-3.3-1.2c-0.9-0.8-1.3-1.9-1.3-3.1v-2.2h0.7c-0.3,0.8-0.8,1.7-1.3,2.5s-1.3,1.6-2.2,2.4c-0.9,0.7-2,1.3-3.2,1.8
			C274.4,474.9,272.9,475.1,271.3,475.1z M272.4,471c1.6,0,3.1-0.4,4.5-1.2c1.4-0.8,2.5-2.1,3.4-3.8s1.3-3.9,1.3-6.7v-0.3h-5
			c-2.6,0-4.6,0.3-6.1,1s-2.6,1.5-3.2,2.5c-0.6,1-0.9,2-0.9,3s0.2,1.9,0.7,2.7c0.4,0.8,1.1,1.4,2,1.9C270,470.8,271.1,471,272.4,471
			z"/>
		<path class="st2" d="M303,474.4c-1.2,0-2.3-0.4-3.3-1.2s-1.4-1.9-1.4-3.1v-23.1h-5.1v-4.1h5.1v-6.6l4.9-1.1v7.7h6.3v4.1h-6.3v21.8
			c0,0.6,0.1,1.1,0.3,1.3c0.2,0.2,0.6,0.3,1.2,0.3h4.8v4.1H303z"/>
		<path class="st2" d="M329.5,475.1c-3,0-5.6-0.7-7.8-2s-3.9-3.3-5.1-5.7c-1.2-2.5-1.8-5.4-1.8-8.7c0-3.4,0.6-6.3,1.8-8.8
			c1.2-2.5,2.9-4.4,5-5.7s4.7-2,7.6-2c1.7,0,3.4,0.3,5.1,0.8c1.7,0.5,3.2,1.5,4.6,2.8c1.4,1.3,2.5,3.1,3.4,5.4s1.3,5.2,1.3,8.7H318
			v-4h21.4l-1.4,1.8c-0.1-2.8-0.5-5-1.3-6.7c-0.8-1.7-1.8-2.9-3.1-3.6c-1.3-0.8-2.7-1.1-4.3-1.1c-1.9,0-3.5,0.5-4.8,1.5
			s-2.4,2.4-3.1,4.2c-0.7,1.9-1.1,4.1-1.1,6.8c0,3.9,0.8,7,2.4,9.1s3.9,3.2,6.9,3.2c2.1,0,3.9-0.5,5.4-1.6c1.5-1.1,2.5-2.6,3.2-4.7
			l4.8,1.6c-0.8,1.8-1.8,3.4-3,4.7c-1.3,1.3-2.8,2.3-4.5,3C333.6,474.8,331.6,475.1,329.5,475.1z"/>
	</g>
</g>
</svg>
