<?xml version="1.0" encoding="UTF-8"?>
<svg id="Ebene_5" data-name="Ebene 5" xmlns="http://www.w3.org/2000/svg" width="1634.4" height="605.8" viewBox="0 0 1634.4 605.8">
  <g>
    <path d="m223.2,147.2c-.1.2-.1.4-.1.4l-11.8,48.3-6.3,23.8-5.3,18.2-4.7,14.3-4.3,11.4-3.9,8.8-3.6,6.8-3.4,5.1-3,3.4-2.8,2.1-2.6,1.1-2.4.3-2.4-.4-2.4-1.2-2.6-2.1-2.8-3.2-3-4.4-3.4-6.3-3.9-8.5-4.1-10.5-4.3-12.7-4.9-16.3-5.5-20.2-6.7-26.6s-3.9-16.3-7.6-31.8" fill="none" stroke="#307eef" stroke-miterlimit="10" stroke-width="2.83"/>
    <path d="m7.2,147.2c.1-.2.1-.4.1-.4l11.8-48.3,6.3-23.9,5.3-18.2,4.7-14.3,4.3-11.4,3.9-8.8,3.7-6.9,3.5-5.1,3-3.4,2.8-2.1,2.4-.9,2.4-.3,2.4.4,2.4,1.2,2.8,2.1,2.8,3.1,3,4.4,3.4,6.3,3.9,8.5,4.1,10.5,4.3,12.7,4.9,16.3,5.5,20.2,6.7,26.6s3.9,16.3,7.6,31.8" fill="none" stroke="#307eef" stroke-miterlimit="10" stroke-width="2.83"/>
  </g>
  <g>
    <path d="m439.2,147.2c-.1.2-.1.4-.1.4l-11.8,48.3-6.3,23.8-5.3,18.2-4.7,14.3-4.3,11.4-3.9,8.8-3.6,6.8-3.5,5.1-3,3.4-2.8,2.1-2.6,1.1-2.4.3-2.4-.4-2.4-1.2-2.6-2.1-2.8-3.2-3-4.4-3.5-6.3-3.9-8.5-4.1-10.5-4.3-12.7-4.9-16.3-5.5-20.2-6.7-26.6s-3.9-16.3-7.6-31.8" fill="none" stroke="#307eef" stroke-miterlimit="10" stroke-width="2.83"/>
    <path d="m223.2,147.2c.1-.2.1-.4.1-.4l11.8-48.3,6.3-23.9,5.3-18.2,4.7-14.3,4.3-11.4,3.9-8.8,3.6-6.9,3.5-5.1,3-3.4,2.8-2.1,2.6-1.1,2.4-.3,2.4.4,2.4,1.2,2.6,2.1,2.8,3.1,3,4.4,3.5,6.3,3.9,8.5,4.1,10.5,4.3,12.7,4.9,16.3,5.5,20.2,6.7,26.6s3.9,16.3,7.6,31.8" fill="none" stroke="#307eef" stroke-miterlimit="10" stroke-width="2.83"/>
  </g>
  <g>
    <path d="m655.2,147.2c-.1.2-.1.4-.1.4l-11.8,48.3-6.3,23.8-5.3,18.2-4.7,14.3-4.3,11.4-3.9,8.8-3.7,6.8-3.5,5.1-3,3.4-2.8,2.1-2.6,1.1-2.4.3-2.4-.4-2.4-1.2-2.6-2.1-2.8-3.2-3-4.4-3.5-6.3-3.9-8.5-4.1-10.5-4.3-12.7-4.9-16.3-5.5-20.2-6.7-26.6s-3.9-16.3-7.6-31.8" fill="none" stroke="#307eef" stroke-miterlimit="10" stroke-width="2.83"/>
    <path d="m439.2,147.2c.1-.2.1-.4.1-.4l11.8-48.3,6.3-23.9,5.3-18.2,4.7-14.3,4.3-11.4,3.9-8.8,3.6-6.9,3.5-5.1,3-3.4,2.8-2.1,2.6-1.1,2.4-.3,2.4.4,2.4,1.2,2.6,2.1,2.8,3.1,3,4.4,3.5,6.3,3.9,8.5,4.1,10.5,4.3,12.7,4.9,16.3,5.5,20.2,6.7,26.6s3.9,16.3,7.6,31.8" fill="none" stroke="#307eef" stroke-miterlimit="10" stroke-width="2.83"/>
  </g>
  <g>
    <path d="m871.2,147.2c-.1.2-.1.4-.1.4l-11.8,48.3-6.3,23.8-5.3,18.2-4.7,14.3-4.3,11.4-3.9,8.8-3.7,6.8-3.5,5.1-3,3.4-2.8,2.1-2.6,1.1-2.4.3-2.4-.4-2.4-1.2-2.6-2.1-2.8-3.2-3-4.4-3.5-6.3-3.9-8.5-4.1-10.5-4.3-12.7-4.9-16.3-5.5-20.2-6.7-26.6s-3.9-16.3-7.6-31.8" fill="none" stroke="#307eef" stroke-miterlimit="10" stroke-width="2.83"/>
    <path d="m655.2,147.2c.1-.2.1-.4.1-.4l11.8-48.3,6.3-23.9,5.3-18.2,4.7-14.3,4.3-11.4,3.9-8.8,3.7-6.9,3.5-5.1,3-3.4,2.8-2.1,2.6-1.1,2.4-.3,2.4.4,2.4,1.2,2.6,2.1,2.8,3.1,3,4.4,3.5,6.3,3.9,8.5,4.1,10.5,4.3,12.7,4.9,16.3,5.5,20.2,6.7,26.6s3.9,16.3,7.6,31.8" fill="none" stroke="#307eef" stroke-miterlimit="10" stroke-width="2.83"/>
  </g>
  <g>
    <path d="m1087.2,147.2c-.1.2-.1.4-.1.4l-11.8,48.3-6.3,23.8-5.3,18.2-4.7,14.3-4.3,11.4-3.9,8.8-3.7,6.8-3.4,5.1-3,3.4-2.8,2.1-2.6,1.1-2.4.3-2.4-.4-2.4-1.2-2.6-2.1-2.8-3.2-3-4.4-3.5-6.3-3.9-8.5-4.1-10.5-4.3-12.7-4.9-16.3-5.5-20.2-6.7-26.6s-3.9-16.3-7.6-31.8" fill="none" stroke="#307eef" stroke-miterlimit="10" stroke-width="2.83"/>
    <path d="m871.2,147.2c.1-.2.1-.4.1-.4l11.8-48.3,6.3-23.9,5.3-18.2,4.7-14.3,4.3-11.4,3.9-8.8,3.7-6.9,3.5-5.1,3-3.4,2.8-2.1,2.6-1.1,2.4-.3,2.4.4,2.4,1.2,2.6,2.1,2.8,3.1,3,4.4,3.5,6.3,3.9,8.5,4.1,10.5,4.3,12.7,4.9,16.3,5.5,20.2,6.7,26.6s3.9,16.3,7.6,31.8" fill="none" stroke="#307eef" stroke-miterlimit="10" stroke-width="2.83"/>
  </g>
  <g>
    <path d="m1303.2,147.2c-.1.2-.1.4-.1.4l-11.8,48.3-6.3,23.8-5.3,18.2-4.7,14.3-4.3,11.4-3.9,8.8-3.7,6.8-3.4,5.1-3,3.4-2.8,2.1-2.6,1.1-2.4.3-2.4-.4-2.4-1.2-2.6-2.1-2.8-3.2-3-4.4-3.4-6.3-3.9-8.5-4.1-10.5-4.3-12.7-4.9-16.3-5.5-20.2-6.7-26.6s-3.9-16.3-7.6-31.8" fill="none" stroke="#307eef" stroke-miterlimit="10" stroke-width="2.83"/>
    <path d="m1087.2,147.2c.1-.2.1-.4.1-.4l11.8-48.3,6.3-23.9,5.3-18.2,4.7-14.3,4.3-11.4,3.9-8.8,3.7-6.9,3.4-5.1,3-3.4,2.8-2.1,2.6-1.1,2.4-.3,2.4.4,2.4,1.2,2.6,2.1,2.8,3.1,3,4.4,3.4,6.3,3.9,8.5,4.1,10.5,4.3,12.7,4.9,16.3,5.5,20.2,6.7,26.6s3.9,16.3,7.6,31.8" fill="none" stroke="#307eef" stroke-miterlimit="10" stroke-width="2.83"/>
  </g>
  <g>
    <path d="m1519.2,147.2c-.1.2-.1.4-.1.4l-11.8,48.3-6.3,23.8-5.3,18.2-4.7,14.3-4.3,11.4-3.9,8.8-3.7,6.8-3.4,5.1-3,3.4-2.8,2.1-2.6,1.1-2.4.3-2.4-.4-2.4-1.2-2.6-2.1-2.8-3.2-3-4.4-3.4-6.3-3.9-8.5-4.1-10.5-4.3-12.7-4.9-16.3-5.5-20.2-6.7-26.6s-3.9-16.3-7.6-31.8" fill="none" stroke="#307eef" stroke-miterlimit="10" stroke-width="2.83"/>
    <path d="m1303.2,147.2c.1-.2.1-.4.1-.4l11.8-48.3,6.3-23.9,5.3-18.2,4.7-14.3,4.3-11.4,3.9-8.8,3.7-6.9,3.4-5.1,3-3.4,2.8-2.1,2.6-1.1,2.4-.3,2.4.4,2.4,1.2,2.6,2.1,2.8,3.1,3,4.4,3.4,6.3,3.9,8.5,4.1,10.5,4.3,12.7,4.9,16.3,5.5,20.2,6.7,26.6s3.9,16.3,7.6,31.8" fill="none" stroke="#307eef" stroke-miterlimit="10" stroke-width="2.83"/>
  </g>
  <path d="m1519.2,147.2c.1-.2.1-.4.1-.4l11.8-48.3,6.3-23.9,5.3-18.2,4.7-14.3,4.3-11.4,3.9-8.8,3.7-6.9,3.4-5.1,3-3.4,2.8-2.1,2.6-1.1,2.4-.3,2.4.4,2.4,1.2,2.6,2.1,2.8,3.1,3,4.4,3.4,6.3,3.9,8.5,4.1,10.5,4.3,12.7,4.9,16.3,5.5,20.2,6.7,26.6s3.9,16.3,7.6,31.8" fill="none" stroke="#307eef" stroke-miterlimit="10" stroke-width="2.83"/>
  <path d="m655.2,147.2c.2-.2.3-.4.3-.4l35.3-48.3,18.9-23.9,15.8-18.2,14-14.3,12.8-11.4,11.6-8.8,11-6.9,10.3-5.1,9.1-3.4,8.5-2.1,7.9-1.1,7.3-.3,7.3.4,7.3,1.2,7.9,2.1,8.5,3.1,9.1,4.4,10.3,6.3,11.6,8.5,12.2,10.5,12.8,12.7,14.6,16.3,16.4,20.2,20.1,26.6s11.8,16.3,22.9,31.8" fill="none" stroke="#d85648" stroke-miterlimit="10" stroke-width="2.83"/>
  <path d="m979.2,147.2c.2.2.3.4.3.4l35.3,48.3,18.9,23.8,15.8,18.2,14,14.3,12.8,11.4,11.6,8.8,11,6.8,10.3,5.1,9.1,3.4,8.5,2.1,7.9,1.1,7.3.3,7.3-.4,7.3-1.2,7.9-2.1,8.5-3.2,9.1-4.4,10.3-6.3,11.6-8.5,12.2-10.5,12.8-12.7,14.6-16.3,16.4-20.2,20.1-26.6s11.8-16.3,22.9-31.8" fill="none" stroke="#d85648" stroke-miterlimit="10" stroke-width="2.83"/>
  <path d="m1303.2,147.2c.2-.2.3-.4.3-.4l35.3-48.3,18.9-23.9,15.8-18.2,14-14.3,12.8-11.4,11.6-8.8,11-6.9,10.3-5.1,9.1-3.4,8.5-2.1,7.9-1.1,7.3-.3,7.3.4,7.3,1.2,7.9,2.1,8.5,3.1,9.1,4.4,10.3,6.3,11.6,8.5,12.2,10.5,12.8,12.7,14.6,16.3,16.4,20.2,20.1,26.6s11.8,16.3,22.9,31.8" fill="none" stroke="#d85648" stroke-miterlimit="10" stroke-width="2.83"/>
  <path d="m223.2,457.2c-.1.2-.1.4-.1.4l-11.8,48.3-6.3,23.9-5.3,18.2-4.7,14.3-4.3,11.4-3.9,8.8-3.6,6.9-3.4,5.1-3,3.4-2.8,2.1-2.6,1.1-2.4.3-2.4-.4-2.4-1.2-2.6-2.1-2.8-3.2-3-4.4-3.4-6.3-3.9-8.5-4.1-10.5-4.3-12.7-4.9-16.3-5.5-20.2-6.7-26.6s-3.9-16.3-7.6-31.8" fill="none" stroke="#307eef" stroke-miterlimit="10" stroke-width="2.83"/>
  <path d="m7.2,457.2c.1-.2.1-.4.1-.4l11.8-48.3,6.3-23.9,5.3-18.2,4.7-14.3,4.3-11.4,3.9-8.8,3.7-6.9,3.5-5.1,3-3.4,2.8-2.1,2.6-1.1,2.4-.3,2.4.4,2.4,1.2,2.6,2.1,2.8,3.1,3,4.4,3.4,6.3,3.9,8.5,4.1,10.5,4.3,12.7,4.9,16.3,5.5,20.2,6.7,26.6s3.9,16.3,7.6,31.8" fill="none" stroke="#307eef" stroke-miterlimit="10" stroke-width="2.83"/>
  <circle cx="7.2" cy="457.2" r="3.6" fill="#c9d1d9"/>
  <circle cx="20.7" cy="402.3" r="3.6" fill="#c9d1d9"/>
  <circle cx="34.2" cy="355.5" r="3.6" fill="#c9d1d9"/>
  <circle cx="47.7" cy="324" r="3.6" fill="#c9d1d9"/>
  <circle cx="115.2" cy="457.2" r="3.6" fill="#c9d1d9"/>
  <circle cx="101.7" cy="402.3" r="3.6" fill="#c9d1d9"/>
  <circle cx="88.2" cy="355.5" r="3.6" fill="#c9d1d9"/>
  <circle cx="74.7" cy="324" r="3.6" fill="#c9d1d9"/>
  <circle cx="61.2" cy="313.2" r="3.6" fill="#c9d1d9"/>
  <circle cx="209.7" cy="512.1" r="3.6" fill="#c9d1d9"/>
  <circle cx="196.2" cy="558.8" r="3.6" fill="#c9d1d9"/>
  <circle cx="182.7" cy="590.4" r="3.6" fill="#c9d1d9"/>
  <circle cx="128.7" cy="512.1" r="3.6" transform="translate(-388.706 617.462) rotate(-87.403)" fill="#c9d1d9"/>
  <circle cx="142.2" cy="558.8" r="3.6" fill="#c9d1d9"/>
  <circle cx="155.7" cy="590.4" r="3.6" fill="#c9d1d9"/>
  <circle cx="169.2" cy="601.2" r="3.6" fill="#c9d1d9"/>
  <path d="m439.2,457.2c-.1.2-.1.4-.1.4l-11.8,48.3-6.3,23.9-5.3,18.2-4.7,14.3-4.3,11.4-3.9,8.8-3.6,6.9-3.5,5.1-3,3.4-2.8,2.1-2.6,1.1-2.4.3-2.4-.4-2.4-1.2-2.6-2.1-2.8-3.2-3-4.4-3.5-6.3-3.9-8.5-4.1-10.5-4.3-12.7-4.9-16.3-5.5-20.2-6.7-26.6s-3.9-16.3-7.6-31.8" fill="none" stroke="#307eef" stroke-miterlimit="10" stroke-width="2.83"/>
  <path d="m223.2,457.2c.1-.2.1-.4.1-.4l11.8-48.3,6.3-23.9,5.3-18.2,4.7-14.3,4.3-11.4,3.9-8.8,3.6-6.9,3.5-5.1,3-3.4,2.8-2.1,2.6-1.1,2.4-.3,2.4.4,2.4,1.2,2.6,2.1,2.8,3.1,3,4.4,3.5,6.3,3.9,8.5,4.1,10.5,4.3,12.7,4.9,16.3,5.5,20.2,6.7,26.6s3.9,16.3,7.6,31.8" fill="none" stroke="#307eef" stroke-miterlimit="10" stroke-width="2.83"/>
  <circle cx="223.2" cy="457.2" r="3.6" fill="#c9d1d9"/>
  <circle cx="236.7" cy="402.3" r="3.6" fill="#c9d1d9"/>
  <circle cx="250.2" cy="355.5" r="3.6" fill="#c9d1d9"/>
  <circle cx="263.7" cy="324" r="3.6" fill="#c9d1d9"/>
  <circle cx="331.2" cy="457.2" r="3.6" fill="#c9d1d9"/>
  <circle cx="317.7" cy="402.3" r="3.6" fill="#c9d1d9"/>
  <circle cx="304.2" cy="355.5" r="3.6" fill="#c9d1d9"/>
  <circle cx="290.7" cy="324" r="3.6" fill="#c9d1d9"/>
  <circle cx="277.2" cy="313.2" r="3.6" fill="#c9d1d9"/>
  <circle cx="425.7" cy="512.1" r="3.6" fill="#c9d1d9"/>
  <circle cx="412.2" cy="558.8" r="3.6" fill="#c9d1d9"/>
  <circle cx="398.7" cy="590.4" r="3.6" fill="#c9d1d9"/>
  <circle cx="344.7" cy="512.1" r="3.6" fill="#c9d1d9"/>
  <circle cx="358.2" cy="558.8" r="3.6" fill="#c9d1d9"/>
  <circle cx="371.7" cy="590.4" r="3.6" fill="#c9d1d9"/>
  <circle cx="385.2" cy="601.2" r="3.6" fill="#c9d1d9"/>
  <path d="m655.2,457.2c-.1.2-.1.4-.1.4l-11.8,48.3-6.3,23.9-5.3,18.2-4.7,14.3-4.3,11.4-3.9,8.8-3.7,6.9-3.5,5.1-3,3.4-2.8,2.1-2.6,1.1-2.4.3-2.4-.4-2.4-1.2-2.6-2.1-2.8-3.2-3-4.4-3.5-6.3-3.9-8.5-4.1-10.5-4.3-12.7-4.9-16.3-5.5-20.2-6.7-26.6s-3.9-16.3-7.6-31.8" fill="none" stroke="#307eef" stroke-miterlimit="10" stroke-width="2.83"/>
  <path d="m439.2,457.2c.1-.2.1-.4.1-.4l11.8-48.3,6.3-23.9,5.3-18.2,4.7-14.3,4.3-11.4,3.9-8.8,3.6-6.9,3.5-5.1,3-3.4,2.8-2.1,2.6-1.1,2.4-.3,2.4.4,2.4,1.2,2.6,2.1,2.8,3.1,3,4.4,3.5,6.3,3.9,8.5,4.1,10.5,4.3,12.7,4.9,16.3,5.5,20.2,6.7,26.6s3.9,16.3,7.6,31.8" fill="none" stroke="#307eef" stroke-miterlimit="10" stroke-width="2.83"/>
  <circle cx="439.2" cy="457.2" r="3.6" fill="#c9d1d9"/>
  <circle cx="452.7" cy="402.3" r="3.6" fill="#c9d1d9"/>
  <circle cx="466.2" cy="355.5" r="3.6" fill="#c9d1d9"/>
  <circle cx="479.7" cy="324" r="3.6" fill="#c9d1d9"/>
  <g>
    <circle cx="547.2" cy="457.2" r="3.6" fill="#c9d1d9"/>
    <circle cx="533.7" cy="402.3" r="3.6" fill="#c9d1d9"/>
    <circle cx="520.2" cy="355.5" r="3.6" fill="#c9d1d9"/>
    <circle cx="506.7" cy="324" r="3.6" fill="#c9d1d9"/>
    <circle cx="493.2" cy="313.2" r="3.6" fill="#c9d1d9"/>
  </g>
  <circle cx="641.7" cy="512.1" r="3.6" fill="#c9d1d9"/>
  <circle cx="628.2" cy="558.8" r="3.6" fill="#c9d1d9"/>
  <circle cx="614.7" cy="590.4" r="3.6" fill="#c9d1d9"/>
  <circle cx="560.7" cy="512.1" r="3.6" fill="#c9d1d9"/>
  <circle cx="574.2" cy="558.8" r="3.6" fill="#c9d1d9"/>
  <circle cx="587.7" cy="590.4" r="3.6" fill="#c9d1d9"/>
  <circle cx="601.2" cy="601.2" r="3.6" fill="#c9d1d9"/>
  <path d="m871.2,457.2c-.1.2-.1.4-.1.4l-11.8,48.3-6.3,23.9-5.3,18.2-4.7,14.3-4.3,11.4-3.9,8.8-3.7,6.9-3.5,5.1-3,3.4-2.8,2.1-2.6,1.1-2.4.3-2.4-.4-2.4-1.2-2.6-2.1-2.8-3.2-3-4.4-3.5-6.3-3.9-8.5-4.1-10.5-4.3-12.7-4.9-16.3-5.5-20.2-6.7-26.6s-3.9-16.3-7.6-31.8" fill="none" stroke="#307eef" stroke-miterlimit="10" stroke-width="2.83"/>
  <path d="m655.2,457.2c.1-.2.1-.4.1-.4l11.8-48.3,6.3-23.9,5.3-18.2,4.7-14.3,4.3-11.4,3.9-8.8,3.7-6.9,3.5-5.1,3-3.4,2.8-2.1,2.6-1.1,2.4-.3,2.4.4,2.4,1.2,2.6,2.1,2.8,3.1,3,4.4,3.5,6.3,3.9,8.5,4.1,10.5,4.3,12.7,4.9,16.3,5.5,20.2,6.7,26.6s3.9,16.3,7.6,31.8" fill="none" stroke="#307eef" stroke-miterlimit="10" stroke-width="2.83"/>
  <circle cx="655.2" cy="457.2" r="3.6" fill="#c9d1d9"/>
  <circle cx="668.7" cy="402.3" r="3.6" fill="#c9d1d9"/>
  <circle cx="682.2" cy="355.5" r="3.6" fill="#c9d1d9"/>
  <circle cx="695.7" cy="324" r="3.6" fill="#c9d1d9"/>
  <g>
    <circle cx="763.2" cy="457.2" r="3.6" fill="#c9d1d9"/>
    <circle cx="749.7" cy="402.3" r="3.6" fill="#c9d1d9"/>
    <circle cx="736.2" cy="355.5" r="3.6" fill="#c9d1d9"/>
    <circle cx="722.7" cy="324" r="3.6" fill="#c9d1d9"/>
    <circle cx="709.2" cy="313.2" r="3.6" fill="#c9d1d9"/>
  </g>
  <circle cx="857.7" cy="512.1" r="3.6" fill="#c9d1d9"/>
  <circle cx="844.2" cy="558.8" r="3.6" fill="#c9d1d9"/>
  <circle cx="830.7" cy="590.4" r="3.6" fill="#c9d1d9"/>
  <circle cx="776.7" cy="512.1" r="3.6" fill="#c9d1d9"/>
  <circle cx="790.2" cy="558.8" r="3.6" fill="#c9d1d9"/>
  <circle cx="803.7" cy="590.4" r="3.6" fill="#c9d1d9"/>
  <circle cx="817.2" cy="601.2" r="3.6" fill="#c9d1d9"/>
  <g>
    <path d="m1087.2,457.2c-.1.2-.1.4-.1.4l-11.8,48.3-6.3,23.9-5.3,18.2-4.7,14.3-4.3,11.4-3.9,8.8-3.7,6.9-3.4,5.1-3,3.4-2.8,2.1-2.6,1.1-2.4.3-2.4-.4-2.4-1.2-2.6-2.1-2.8-3.2-3-4.4-3.5-6.3-3.9-8.5-4.1-10.5-4.3-12.7-4.9-16.3-5.5-20.2-6.7-26.6s-3.9-16.3-7.6-31.8" fill="none" stroke="#307eef" stroke-miterlimit="10" stroke-width="2.83"/>
    <path d="m871.2,457.2c.1-.2.1-.4.1-.4l11.8-48.3,6.3-23.9,5.3-18.2,4.7-14.3,4.3-11.4,3.9-8.8,3.7-6.9,3.5-5.1,3-3.4,2.8-2.1,2.6-1.1,2.4-.3,2.4.4,2.4,1.2,2.6,2.1,2.8,3.1,3,4.4,3.5,6.3,3.9,8.5,4.1,10.5,4.3,12.7,4.9,16.3,5.5,20.2,6.7,26.6s3.9,16.3,7.6,31.8" fill="none" stroke="#307eef" stroke-miterlimit="10" stroke-width="2.83"/>
    <circle cx="871.2" cy="457.2" r="3.6" fill="#c9d1d9"/>
    <circle cx="884.7" cy="402.3" r="3.6" fill="#c9d1d9"/>
    <circle cx="898.2" cy="355.5" r="3.6" fill="#c9d1d9"/>
    <circle cx="911.7" cy="324" r="3.6" fill="#c9d1d9"/>
    <g>
      <circle cx="979.2" cy="457.2" r="3.6" fill="#c9d1d9"/>
      <circle cx="965.7" cy="402.3" r="3.6" fill="#c9d1d9"/>
      <circle cx="952.2" cy="355.5" r="3.6" fill="#c9d1d9"/>
      <circle cx="938.7" cy="324" r="3.6" fill="#c9d1d9"/>
      <circle cx="925.2" cy="313.2" r="3.6" fill="#c9d1d9"/>
    </g>
    <circle cx="1073.7" cy="512.1" r="3.6" fill="#c9d1d9"/>
    <circle cx="1060.2" cy="558.8" r="3.6" fill="#c9d1d9"/>
    <circle cx="1046.7" cy="590.4" r="3.6" fill="#c9d1d9"/>
    <circle cx="992.7" cy="512.1" r="3.6" fill="#c9d1d9"/>
    <circle cx="1006.2" cy="558.8" r="3.6" fill="#c9d1d9"/>
    <circle cx="1019.7" cy="590.4" r="3.6" fill="#c9d1d9"/>
    <circle cx="1033.2" cy="601.2" r="3.6" fill="#c9d1d9"/>
    <g>
      <path d="m1303.2,457.2c-.1.2-.1.4-.1.4l-11.8,48.3-6.3,23.9-5.3,18.2-4.7,14.3-4.3,11.4-3.9,8.8-3.7,6.9-3.4,5.1-3,3.4-2.8,2.1-2.6,1.1-2.4.3-2.4-.4-2.4-1.2-2.6-2.1-2.8-3.2-3-4.4-3.4-6.3-3.9-8.5-4.1-10.5-4.3-12.7-4.9-16.3-5.5-20.2-6.7-26.6s-3.9-16.3-7.6-31.8" fill="none" stroke="#307eef" stroke-miterlimit="10" stroke-width="2.83"/>
      <path d="m1087.2,457.2c.1-.2.1-.4.1-.4l11.8-48.3,6.3-23.9,5.3-18.2,4.7-14.3,4.3-11.4,3.9-8.8,3.7-6.9,3.4-5.1,3-3.4,2.8-2.1,2.6-1.1,2.4-.3,2.4.4,2.4,1.2,2.6,2.1,2.8,3.1,3,4.4,3.4,6.3,3.9,8.5,4.1,10.5,4.3,12.7,4.9,16.3,5.5,20.2,6.7,26.6s3.9,16.3,7.6,31.8" fill="none" stroke="#307eef" stroke-miterlimit="10" stroke-width="2.83"/>
      <circle cx="1087.2" cy="457.2" r="3.6" fill="#c9d1d9"/>
      <circle cx="1100.7" cy="402.3" r="3.6" fill="#c9d1d9"/>
      <circle cx="1114.2" cy="355.5" r="3.6" fill="#c9d1d9"/>
      <circle cx="1127.7" cy="324" r="3.6" fill="#c9d1d9"/>
      <g>
        <circle cx="1195.2" cy="457.2" r="3.6" fill="#c9d1d9"/>
        <circle cx="1181.7" cy="402.3" r="3.6" fill="#c9d1d9"/>
        <circle cx="1168.2" cy="355.5" r="3.6" fill="#c9d1d9"/>
        <circle cx="1154.7" cy="324" r="3.6" fill="#c9d1d9"/>
        <circle cx="1141.2" cy="313.2" r="3.6" fill="#c9d1d9"/>
      </g>
      <circle cx="1289.7" cy="512.1" r="3.6" fill="#c9d1d9"/>
      <circle cx="1276.2" cy="558.8" r="3.6" fill="#c9d1d9"/>
      <circle cx="1262.7" cy="590.4" r="3.6" fill="#c9d1d9"/>
      <circle cx="1208.7" cy="512.1" r="3.6" fill="#c9d1d9"/>
      <circle cx="1222.2" cy="558.8" r="3.6" fill="#c9d1d9"/>
      <circle cx="1235.7" cy="590.4" r="3.6" fill="#c9d1d9"/>
      <circle cx="1249.2" cy="601.2" r="3.6" fill="#c9d1d9"/>
    </g>
  </g>
  <path d="m1519.2,457.2c-.1.2-.1.4-.1.4l-11.8,48.3-6.3,23.9-5.3,18.2-4.7,14.3-4.3,11.4-3.9,8.8-3.7,6.9-3.4,5.1-3,3.4-2.8,2.1-2.6,1.1-2.4.3-2.4-.4-2.4-1.2-2.6-2.1-2.8-3.2-3-4.4-3.4-6.3-3.9-8.5-4.1-10.5-4.3-12.7-4.9-16.3-5.5-20.2-6.7-26.6s-3.9-16.3-7.6-31.8" fill="none" stroke="#307eef" stroke-miterlimit="10" stroke-width="2.83"/>
  <path d="m1303.2,457.2c.1-.2.1-.4.1-.4l11.8-48.3,6.3-23.9,5.3-18.2,4.7-14.3,4.3-11.4,3.9-8.8,3.7-6.9,3.4-5.1,3-3.4,2.8-2.1,2.6-1.1,2.4-.3,2.4.4,2.4,1.2,2.6,2.1,2.8,3.1,3,4.4,3.4,6.3,3.9,8.5,4.1,10.5,4.3,12.7,4.9,16.3,5.5,20.2,6.7,26.6s3.9,16.3,7.6,31.8" fill="none" stroke="#307eef" stroke-miterlimit="10" stroke-width="2.83"/>
  <circle cx="1303.2" cy="457.2" r="3.6" fill="#c9d1d9"/>
  <circle cx="1316.7" cy="402.3" r="3.6" fill="#c9d1d9"/>
  <circle cx="1330.2" cy="355.5" r="3.6" fill="#c9d1d9"/>
  <circle cx="1343.7" cy="324" r="3.6" fill="#c9d1d9"/>
  <g>
    <circle cx="1411.2" cy="457.2" r="3.6" fill="#c9d1d9"/>
    <circle cx="1397.7" cy="402.3" r="3.6" fill="#c9d1d9"/>
    <circle cx="1384.2" cy="355.5" r="3.6" fill="#c9d1d9"/>
    <circle cx="1370.7" cy="324" r="3.6" fill="#c9d1d9"/>
    <circle cx="1357.2" cy="313.2" r="3.6" fill="#c9d1d9"/>
  </g>
  <circle cx="1505.7" cy="512.1" r="3.6" fill="#c9d1d9"/>
  <circle cx="1492.2" cy="558.8" r="3.6" fill="#c9d1d9"/>
  <circle cx="1478.7" cy="590.4" r="3.6" fill="#c9d1d9"/>
  <circle cx="1424.7" cy="512.1" r="3.6" fill="#c9d1d9"/>
  <circle cx="1438.2" cy="558.8" r="3.6" fill="#c9d1d9"/>
  <circle cx="1451.7" cy="590.4" r="3.6" fill="#c9d1d9"/>
  <circle cx="1465.2" cy="601.2" r="3.6" fill="#c9d1d9"/>
  <path d="m1519.2,457.2c.1-.2.1-.4.1-.4l11.8-48.3,6.3-23.9,5.3-18.2,4.7-14.3,4.3-11.4,3.9-8.8,3.7-6.9,3.4-5.1,3-3.4,2.8-2.1,2.6-1.1,2.4-.3,2.4.4,2.4,1.2,2.6,2.1,2.8,3.1,3,4.4,3.4,6.3,3.9,8.5,4.1,10.5,4.3,12.7,4.9,16.3,5.5,20.2,6.7,26.6s3.9,16.3,7.6,31.8" fill="none" stroke="#307eef" stroke-miterlimit="10" stroke-width="2.83"/>
  <circle cx="1519.2" cy="457.2" r="3.6" fill="#c9d1d9"/>
  <circle cx="1532.7" cy="402.3" r="3.6" fill="#c9d1d9"/>
  <circle cx="1546.2" cy="355.5" r="3.6" fill="#c9d1d9"/>
  <circle cx="1559.7" cy="324" r="3.6" fill="#c9d1d9"/>
  <g>
    <circle cx="1627.2" cy="457.2" r="3.6" fill="#c9d1d9"/>
    <circle cx="1613.7" cy="402.3" r="3.6" fill="#c9d1d9"/>
    <circle cx="1600.2" cy="355.5" r="3.6" fill="#c9d1d9"/>
    <circle cx="1586.7" cy="324" r="3.6" fill="#c9d1d9"/>
    <circle cx="1573.2" cy="313.2" r="3.6" fill="#c9d1d9"/>
  </g>
  <g>
    <path d="m7.2,147.2c.2-.2.3-.4.3-.4l35.3-48.3,18.9-23.9,15.8-18.2,14-14.3,12.8-11.4,11.6-8.8,11-6.9,10.4-5.1,9.1-3.4,8.5-2.1,7.9-1.1,7.3-.3,7.3.4,7.3,1.2,7.9,2.1,8.5,3.1,9.1,4.4,10.4,6.3,11.6,8.5,12.2,10.5,12.8,12.7,14.6,16.3,16.4,20.2,20.1,26.6s11.8,16.3,22.9,31.8" fill="none" stroke="#d85648" stroke-miterlimit="10" stroke-width="2.83"/>
    <path d="m331.2,147.2c.2.2.3.4.3.4l35.3,48.3,18.9,23.8,15.8,18.2,14,14.3,12.8,11.4,11.6,8.8,11,6.8,10.4,5.1,9.1,3.4,8.5,2.1,7.9,1.1,7.3.3,7.3-.4,7.3-1.2,7.9-2.1,8.5-3.2,9.1-4.4,10.3-6.3,11.6-8.5,12.2-10.5,12.8-12.7,14.6-16.3,16.4-20.2,20.1-26.6s11.8-16.3,22.9-31.8" fill="none" stroke="#d85648" stroke-miterlimit="10" stroke-width="2.83"/>
  </g>
  <circle cx="7.2" cy="147.201" r="3.6" fill="#c9d1d9"/>
  <circle cx="88.2" cy="45.5" r="3.6" fill="#c9d1d9"/>
  <circle cx="250.2" cy="45.5" r="3.6" fill="#c9d1d9"/>
  <circle cx="331.2" cy="147.2" r="3.6" fill="#c9d1d9"/>
  <circle cx="412.2" cy="248.8" r="3.6" fill="#c9d1d9"/>
  <circle cx="574.2" cy="248.8" r="3.6" fill="#c9d1d9"/>
  <circle cx="655.2" cy="147.2" r="3.6" fill="#c9d1d9"/>
  <circle cx="736.2" cy="45.5" r="3.6" fill="#c9d1d9"/>
  <circle cx="898.2" cy="45.5" r="3.6" fill="#c9d1d9"/>
  <circle cx="979.2" cy="147.2" r="3.6" fill="#c9d1d9"/>
  <circle cx="1060.2" cy="248.8" r="3.6" fill="#c9d1d9"/>
  <circle cx="1222.2" cy="248.8" r="3.6" fill="#c9d1d9"/>
  <circle cx="1303.2" cy="147.2" r="3.6" fill="#c9d1d9"/>
  <circle cx="1384.2" cy="45.5" r="3.6" fill="#c9d1d9"/>
  <circle cx="1546.2" cy="45.5" r="3.6" fill="#c9d1d9"/>
  <circle cx="1627.2" cy="147.2" r="3.6" fill="#c9d1d9"/>
</svg>