<?xml version="1.0" encoding="UTF-8"?>
<svg xmlns="http://www.w3.org/2000/svg" viewBox="0 0 1126.8 864">
  <defs>
    <style>
      .cls-1, .cls-2, .cls-3, .cls-4, .cls-5, .cls-6, .cls-7, .cls-8, .cls-9 {
        fill: none;
      }

      .cls-1, .cls-2, .cls-3, .cls-4, .cls-6, .cls-7, .cls-8, .cls-9 {
        stroke: #c9d1d9;
      }

      .cls-1, .cls-3, .cls-6, .cls-7, .cls-8, .cls-9 {
        stroke-miterlimit: 10;
      }

      .cls-1, .cls-6, .cls-7, .cls-8 {
        stroke-width: 3px;
      }

      .cls-10, .cls-11 {
        fill: #c9d1d9;
      }

      .cls-2 {
        stroke-dasharray: 0 0 1 11.96;
      }

      .cls-2, .cls-3, .cls-4, .cls-5 {
        stroke-width: 4px;
      }

      .cls-2, .cls-4, .cls-5 {
        stroke-linecap: round;
        stroke-linejoin: round;
      }

      .cls-12 {
        letter-spacing: -.02em;
      }

      .cls-5 {
        stroke: #d85648;
      }

      .cls-6 {
        stroke-dasharray: 0 0 12.03 12.03;
      }

      .cls-7 {
        stroke-dasharray: 0 0 12.03 12.03;
      }

      .cls-8 {
        stroke-dasharray: 0 0 12 12;
      }

      .cls-11 {
        font-family: Roboto-Regular, Roboto;
        font-size: 48px;
      }

      .cls-9 {
        stroke-width: 5.67px;
      }
    </style>
  </defs>
  <g id="Graph">
    <g>
      <line class="cls-9" x1="118.8" y1="50.22" x2="118.8" y2="813.78"/>
      <polygon class="cls-10" points="102.33 61.46 118.79 0 135.27 61.46 102.33 61.46"/>
      <polygon class="cls-10" points="102.33 802.54 118.79 864 135.27 802.54 102.33 802.54"/>
    </g>
    <g>
      <line class="cls-9" x1="1072.98" y1="432" x2="108" y2="432"/>
      <polygon class="cls-10" points="1061.74 415.53 1123.2 431.99 1061.74 448.47 1061.74 415.53"/>
    </g>
    <g>
      <line class="cls-4" x1="118.8" y1="176.88" x2="119.3" y2="176.88"/>
      <line class="cls-2" x1="131.26" y1="176.88" x2="760.32" y2="176.88"/>
      <line class="cls-4" x1="766.3" y1="176.88" x2="766.8" y2="176.88"/>
    </g>
    <g>
      <line class="cls-3" x1="766.8" y1="212.32" x2="766.8" y2="396.56"/>
      <polygon class="cls-10" points="755.18 220.25 766.79 176.88 778.42 220.25 755.18 220.25"/>
      <polygon class="cls-10" points="755.18 388.64 766.79 432 778.42 388.64 755.18 388.64"/>
    </g>
    <g>
      <line class="cls-1" x1="108" y1="72" x2="114" y2="72"/>
      <line class="cls-6" x1="126.03" y1="72" x2="1010.38" y2="72"/>
      <line class="cls-1" x1="1016.4" y1="72" x2="1022.4" y2="72"/>
    </g>
    <g>
      <line class="cls-3" x1="910.8" y1="107.44" x2="910.8" y2="396.56"/>
      <polygon class="cls-10" points="899.18 115.36 910.79 72 922.42 115.36 899.18 115.36"/>
      <polygon class="cls-10" points="899.18 388.64 910.79 432 922.42 388.64 899.18 388.64"/>
    </g>
    <g>
      <line class="cls-3" x1="1022.4" y1="107.44" x2="1022.4" y2="756.56"/>
      <polygon class="cls-10" points="1010.78 115.36 1022.39 72 1034.02 115.36 1010.78 115.36"/>
      <polygon class="cls-10" points="1010.78 748.64 1022.39 792 1034.02 748.64 1010.78 748.64"/>
    </g>
    <g>
      <line class="cls-1" x1="118.8" y1="202.42" x2="124.8" y2="202.42"/>
      <line class="cls-8" x1="136.8" y1="202.42" x2="610.8" y2="202.42"/>
      <line class="cls-1" x1="616.8" y1="202.42" x2="622.8" y2="202.42"/>
    </g>
    <g>
      <line class="cls-1" x1="1022.4" y1="791.99" x2="1016.4" y2="791.99"/>
      <line class="cls-7" x1="1004.37" y1="791.99" x2="120.02" y2="792"/>
      <line class="cls-1" x1="114" y1="792" x2="108" y2="792"/>
    </g>
    <path class="cls-5" d="m118.8,432.02l.35-1.01.33-1.01.66-1.01.33-1.01.33-1.01.33-1.01.33-1.01.66-1.01.33-1.01.33-1.01.33-1.01.33-1.01.33-1.01.66-1.01.33-1.01.33-1.01.33-1.01.33-1.01.66-1.01.33-1.01.33-1.01.33-1.01.33-1.01.33-1.01.66-1.01.33-1.01.33-1.01.33-1.01.33-1.01.66-2.02.33-1.01.33-1.01.33-1.01.33-1.01.33-1.01.66-1.01.33-1.01.33-1.01.33-1.01.33-1.01.66-1.01.33-1.01.33-1.01.33-1.01.33-1.01.33-1.01.66-1.01.33-1.01.33-1.01.33-1.01.33-1.01.66-1.01.33-1.01.33-1.01.33-1.01.33-1.01.33-1.01.66-1.01.33-1.01.33-1.01.33-1.01.33-1.01.66-1.01.33-1.01.33-1.01.33-1.01.33-1.01.33-1.01.66-1.01.33-1.01.33-1.01.33-1.01.33-1.01.66-1.01.33-1.01.33-1.01.33-1.01.33-1.01.66-1.01.33-1.01.33-1.01.33-1.01.33-1.01.33-1.01.66-1.01.33-1.01.33-1.01.33-1.01.33-1.01.66-1.01.33-1.01.33-1.01.33-1.01.33-1.01.33-1.01.66-1.01.33-1.01h.33l.33-1.01.33-1.01.66-1.01.33-1.01.33-1.01.33-1.01.33-1.01.33-1.01.66-1.01.33-1.01.33-1.01.33-1.01.33-1.01.66-1.01.33-1.01.33-1.01.33-1.01.33-1.01.33-1.01.66-1.01.33-1.01.33-1.01.33-1.01.33-1.01.66-1.01.33-1.01.33-1.01.33-1.01.33-1.01h.33l.66-1.01.33-1.01.33-1.01.33-1.01.33-1.01.66-1.01.33-1.01.33-1.02.33-1.01.33-1.01.66-1.01.33-1.01.33-1.01.33-1.01.33-1.01.33-1.01h.66l.33-1.01.33-1.01.33-1.01.33-1.01.66-1.01.33-1.01.33-1.01.33-1.01.33-1.01.33-1.01.66-1.01.33-1.01.33-1.01h.33l.33-1.01.66-1.01.33-1.01.33-1.01.33-1.01.33-1.01.33-1.01.66-1.01.33-1.01.33-1.01h.33l.33-1.01.66-1.01.33-1.01.33-1.01.33-1.01.33-1.01.33-1.01.67-1.01h.33l.33-1.01.33-1.01.33-1.01.66-1.01.33-1.01.33-1.01.33-1.01.33-1.01h.33l.66-1.01.33-1.01.33-1.01.33-1.01.33-1.01.66-1.01h.33l.33-1.01.33-1.01.33-1.01.33-1.01.66-1.01.33-1.01.33-1.01h.33l.33-1.01.66-1.01.33-1.01.33-1.01.33-1.01h.33l.66-1.01.33-1.01.33-1.01.33-1.01.33-1.01h.33l.66-1.01.33-1.01.33-1.01.33-1.01.33-1.01h.66l.33-1.01.33-1.01.33-1.01.33-1.01.33-1.01h.66l.33-1.01.33-1.01.33-1.01.33-1.01h.66l.33-1.01.33-1.01.33-1.01.33-1.01h.33l.66-1.01.33-1.01.33-1.01.33-1.01h.33l.66-1.01.33-1.01.33-1.01h.33l.33-1.01.33-1.01.66-1.01.33-1.01h.33l.33-1.01.33-1.01.66-1.01h.33l.33-1.01.33-1.01.33-1.01h.33l.66-1.01.33-1.01.33-1.01h.33l.33-1.01.66-1.01.33-1.01h.33l.33-1.01.33-1.01.66-1.01h.33l.33-1.01.33-1.01.33-1.01h.33l.66-1.01.33-1.01h.33l.33-1.01.33-1.01.66-1.01h.33l.33-1.01.33-1.01h.33l.33-1.01.66-1.01h.33l.33-1.01.33-1.01h.33l.66-1.01.33-1.01.33-1.01h.33l.33-1.01.33-1.01h.66l.33-1.01.33-1.01h.33l.33-1.01.66-1.01h.33l.33-1.01.33-1.01h.33l.33-1.01.66-1.01h.33l.33-1.01h.33l.33-1.01.66-1.01h.33l.33-1.01.33-1.01h.33l.33-1.01.66-1.01h.33l.33-1.01h.33l.33-1.01.66-1.01h.33l.33-1.01h.33l.33-1.01.33-1.01h.66l.33-1.01h.33l.33-1.01.33-1.01h.66l.33-1.01h.33l.33-1.01.33-1.01h.66l.33-1.01h.33l.33-1.01h.33l.33-1.01.66-1.01h.33l.33-1.01h.33l.33-1.01h.66l.33-1.01h.33l.33-1.01h.33l.33-1.01.66-1.01h.33l.33-1.01h.33l.33-1.01h.66l.33-1.01h.33l.33-1.01h.33l.33-1.01h.66l.33-1.01h.33l.33-1.01h.33l.66-1.01h.33l.33-1.01h.33l.33-1.01h.33l.66-1.01h.33l.33-1.01h.33l.33-1.01h.99l.33-1.01h.33l.33-1.01h.33l.66-1.01h.33l.33-1.01h.66l.66-1.01h.33l.33-1.01h.33l.33-1.01h.66l.33-1.01h.66l.33-1.01h.33l.66-1.01h.66l.33-1.01h.33l.66-1.01h.66l.33-1.01h.33l.33-1.01h.99l.33-1.01h.66l.66-1.01h.66l.33-1.01h.33l.33-1.01h.99l.33-1.01h.66l.66-1.01h.67l.33-1.01h.66l.66-1.01h.99l.33-1.01h.99l.33-1.01h.66l.33-1.01h1.33l.33-1.01h.99l.33-1.01h.99l.33-1.01h1.33l.33-1.01h1.33l.33-1.01h1.66l.33-1.01h.99l.66-1.01h1.33l.66-1.01h1.33l.33-1.01h1.99l.66-1.01h1.66l.66-1.01h2.65l.33-1.01h2.65l.66-1.01h4.31l.33-1.01h8.28l.33-.03h.66l.33.03h8.61l.66,1.01h3.64l.66,1.01h2.98l.33,1.01h2.32l.66,1.01h2.32l.33,1.01h1.66l.33,1.01h1.33l.66,1.01h1.33l.66,1.01h1.33l.33,1.01h1.33l.33,1.01h1.33l.33,1.01h.99l.66,1.01h.99l.33,1.01h1.33l.33,1.01h.66l.66,1.01h.99l.33,1.01h.99l.33,1.01h.66l.66,1.01h.66l.33,1.01h.66l.66,1.01h.66l.33,1.01h.99l.33,1.01h.66l.33,1.01h.99l.33,1.01h.33l.33,1.01h.99l.33,1.01h.66l.33,1.01h.33l.66,1.01h.67l.33,1.01h.33l.66,1.01h.66l.33,1.01h.33l.33,1.01h.66l.33,1.01h.66l.33,1.01h.66l.33,1.01h.33l.33,1.01h.33l.33,1.01h.99l.33,1.01h.33l.33,1.01h.66l.33,1.01h.33l.33,1.01h.33l.33,1.01h.66l.33,1.01h.33l.33,1.01h.33l.66,1.01h.33l.33,1.01h.33l.33,1.01h.66l.33,1.01h.33l.33,1.01h.33l.33,1.01h.66l.33,1.01h.33l.33,1.01h.33l.66,1.01h.33l.33,1.01h.33l.33,1.01h.33l.66,1.01.33,1.01h.33l.33,1.01h.33l.66,1.01h.33l.33,1.01h.33l.33,1.01.33,1.01h.66l.33,1.01h.33l.33,1.01.33,1.01h.66l.33,1.01h.33l.33,1.01h.33l.33,1.01.66,1.01h.33l.33,1.01h.33l.33,1.01.66,1.01h.33l.33,1.01.33,1.01h.33l.33,1.01h.66l.33,1.01.33,1.01h.33l.33,1.01.66,1.01h.33l.33,1.01.33,1.01h.33l.66,1.01h.33l.33,1.01.33,1.01h.33l.33,1.01.66,1.01h.33l.33,1.01.33,1.01h.33l.66,1.01.33,1.01h.33l.33,1.01.33,1.01h.33l.66,1.01.33,1.01.33,1.01h.33l.33,1.01.66,1.01h.33l.33,1.01.33,1.01h.33l.33,1.01.66,1.01.33,1.01h.33l.33,1.01.33,1.01h.66l.33,1.01.33,1.01.33,1.01h.33l.33,1.01.66,1.01.33,1.01h.33l.33,1.01.33,1.01h.66l.33,1.01.33,1.01.33,1.01h.33l.33,1.01.66,1.01.33,1.01h.33l.33,1.01.33,1.01.66,1.01.33,1.01h.33l.33,1.01.33,1.01.33,1.01h.66l.33,1.01.33,1.01.33,1.01h.33l.66,1.01.33,1.01.33,1.01.33,1.01h.33l.66,1.01.33,1.01.33,1.01.33,1.01h.33l.33,1.01.66,1.01.33,1.01.33,1.01h.33l.33,1.01.66,1.01.33,1.01.33,1.01.33,1.01h.33l.33,1.01.66,1.01.33,1.01.33,1.01h.33l.33,1.01.66,1.01.33,1.01.33,1.01.33,1.01h.33l.33,1.01.66,1.01.33,1.01.33,1.01.33,1.01.33,1.01h.66l.33,1.01.33,1.01.33,1.01.33,1.01.33,1.01h.66l.33,1.01.33,1.01.33,1.01.33,1.01.66,1.01.33,1.01.33,1.01h.33l.33,1.01.33,1.01.66,1.01.33,1.01.33,1.01.33,1.01.33,1.01h.66l.33,1.01.33,1.01.33,1.01.33,1.01.66,1.01.33,1.01.33,1.01.33,1.01h.33l.33,1.01.66,1.01.33,1.01.33,1.01.33,1.01.33,1.01.66,1.01.33,1.01.33,1.01h.33l.33,1.01.33,1.01.66,1.01.33,1.01.33,1.01.33,1.01.33,1.01.66,1.01.33,1.01.33,1.01.33,1.01h.33l.33,1.01.66,1.01.33,1.01.33,1.01.33,1.01.33,1.01.66,1.01.33,1.01.33,1.01.33,1.01.33,1.01.33,1.01.66,1.01.33,1.01h.33l.33,1.01.33,1.02.66,1.01.33,1.01.33,1.01.33,1.01.33,1.01.33,1.01.66,1.01.33,1.01.33,1.01.33,1.01.33,1.01.66,1.01.33,1.01.33,1.01.33,1.01.33,1.01.33,1.01.66,1.01.33,1.01h.33l.33,1.01.33,1.01.66,1.01.33,1.01.33,1.01.33,1.01.33,1.01.66,1.01.33,1.01.33,1.01.33,1.01.33,1.01.33,1.01.66,1.01.33,1.01.33,1.01.33,1.01.33,1.01.66,1.01.33,1.01.33,1.01.33,1.01.33,1.01.33,1.01.66,1.01.33,1.01.33,1.01.33,1.01.33,1.01.66,1.01.33,1.01.33,1.01.33,1.01.33,1.01.33,1.01.66,1.01.33,1.01.33,1.01.33,1.01.33,1.01.66,1.01.33,1.01.33,1.01.33,1.01.33,1.01.33,1.01.66,1.01.33,1.01.33,1.01.33,1.01.33,1.01.66,1.01.33,1.01.33,1.01.33,1.01.33,1.01.33,1.01.66,1.01.33,1.01.33,1.01.33,1.01.33,1.01.66,1.01.33,1.01.33,1.01.33,1.01.33,1.01.66,1.01.33,1.01.33,1.01.33,1.01.33,1.01.33,1.01.66,1.01.33,1.01.33,1.01.33,1.01.33,1.01.66,1.01.33,1.01.33,1.01.33,1.01.33,1.01.33,1.01.66,1.01.33,1.01.33,1.01.33,1.01.33,1.01.66,1.01.33,1.01.33,1.01.33,1.01.33,1.01.33,1.01.66,1.01.33,1.01.33,1.01.33,1.01.33,1.01.66,1.01.33,1.01.33,1.01.33,1.01.33,1.01.33,1.01.66,1.01.33,1.01.33,1.01.33,1.01.33,1.01.66,1.01.33,1.01.33,1.01.33,2.02.33,1.01.33,1.01.66,1.01.33,1.01.33,1.01.33,1.01.33,1.01.66,1.01.33,1.01.33,1.01.33,1.01.33,1.01.33,1.01.66,1.01.33,1.01.33,1.01.33,1.01.33,1.01.66,1.01.33,1.01.33,1.01.33,1.01.33,1.01.66,1.01.33,1.01.33,1.01.33,1.01.33,1.01.33,1.01.66,1.01.33,1.01.33,1.01.33,1.01.33,1.01.66,1.01.33,1.01.33,1.01.33,1.01.33,1.01.33,1.01.66,1.01.33,1.01.33,1.01.33,1.01.33,1.01.66,1.01.33,1.01.33,1.01.33,1.01.33,1.01.33,1.01.66,1.01.33,1.01.33,1.01.33,1.01.33,1.01.66,1.01.33,1.01.33,1.01.33,1.01.33,1.01.33,1.01.66,1.01.33,1.01.33,1.01.33,1.01.33,1.01.66,1.01.33,1.01.33,1.01.33,1.01.33,1.01.33,1.01.66,1.01.33,1.01.33,1.01.33,1.01.33,1.01.66,1.01.33,1.01.33,1.01.33,1.01.33,1.01.66,1.01.33,1.01.33,1.01.33,1.01.33,1.01.33,1.01.66,1.01.33,1.01.33,1.01.33,1.01.33,1.01.66,1.01.33,1.01.33,1.01.33,1.01.33,1.01.33,1.01.66,1.01.33,1.01.33,1.01.33,1.01.33,1.01.67,1.01.33,1.01.33,1.01.33,1.01.33,1.01.33,1.01.66,1.01.33,1.01.33,1.01h.33l.33,1.01.66,1.01.33,1.01.33,1.01.33,1.01.33,1.01.33,1.01.66,1.01.33,1.01.33,1.01.33,1.01.33,1.01.66,1.01.33,1.01.33,1.01.33,1.01.33,1.01.33,1.01.66,1.01.33,1.01.33,1.01h.33l.33,1.01.66,1.01.33,1.01.33,1.01.33,1.01.33,1.01.33,1.01.66,1.01.33,1.01.33,1.01.33,1.01.33,1.01.66,1.01.33,1.01h.33l.33,1.01.33,1.01.66,1.01.33,1.01.33,1.01.33,1.01.33,1.01.33,1.01.66,1.01.33,1.01.33,1.01h.33l.33,1.01.66,1.01.33,1.01.33,1.01.33,1.01.33,1.01.33,1.01.66,1.01.33,1.01h.33l.33,1.02.33,1.01.66,1.01.33,1.01.33,1.01.33,1.01.33,1.01.33,1.01h.66l.33,1.01.33,1.01.33,1.01.33,1.01.66,1.01.33,1.01.33,1.01h.33l.33,1.01.33,1.01.66,1.01.33,1.01.33,1.01.33,1.01.33,1.01h.66l.33,1.01.33,1.01.33,1.01.33,1.01.33,1.01h.66l.33,1.01.33,1.01.33,1.01.33,1.01.66,1.01.33,1.01h.33l.33,1.01.33,1.01.66,1.01.33,1.01.33,1.01h.33l.33,1.01.33,1.01.66,1.01.33,1.01h.33l.33,1.01.33,1.01.66,1.01.33,1.01.33,1.01h.33l.33,1.01.33,1.01.66,1.01.33,1.01h.33l.33,1.01.33,1.01.66,1.01.33,1.01h.33l.33,1.01.33,1.01.33,1.01.66,1.01h.33l.33,1.01.33,1.01.33,1.01h.66l.33,1.01.33,1.01.33,1.01h.33l.33,1.01.66,1.01.33,1.01.33,1.01h.33l.33,1.01.66,1.01.33,1.01h.33l.33,1.01.33,1.01.33,1.01h.66l.33,1.01.33,1.01h.33l.33,1.01.66,1.01.33,1.01h.33l.33,1.01.33,1.01.33,1.01h.66l.33,1.01.33,1.01h.33l.33,1.01.66,1.01.33,1.01h.33l.33,1.01.33,1.01h.66l.33,1.01.33,1.01h.33l.33,1.01.33,1.01.66,1.01h.33l.33,1.01.33,1.01h.33l.66,1.01.33,1.01h.33l.33,1.01.33,1.01h.33l.66,1.01.33,1.01h.33l.33,1.01.33,1.01h.66l.33,1.01h.33l.33,1.01.33,1.01h.33l.66,1.01.33,1.01h.33l.33,1.01.33,1.01h.66l.33,1.01h.33l.33,1.01.33,1.01h.33l.66,1.01.33,1.01h.33l.33,1.01h.33l.66,1.01.33,1.01h.33l.33,1.01h.33l.33,1.01h.66l.33,1.01.33,1.01h.33l.33,1.01h.66l.33,1.01.33,1.01h.33l.33,1.01h.66l.33,1.01h.33l.33,1.01h.33l.33,1.01.66,1.01h.33l.33,1.01h.33l.33,1.01h.66l.33,1.01h.33l.33,1.01h.33l.33,1.01h.67l.33,1.01h.33l.33,1.01h.33l.66,1.01h.33l.33,1.01h.33l.33,1.01h.33l.66,1.01h.33l.33,1.01h.33l.33,1.01h.66l.33,1.01h.33l.33,1.01h.33l.33,1.01h.66l.33,1.01h.33l.33,1.01h.99l.33,1.01h.33l.33,1.01h.33l.33,1.01h.66l.33,1.01h.66l.33,1.01h.66l.33,1.01h.33l.33,1.01h.66l.66,1.01h.33l.33,1.01h.66l.66,1.01h.33l.33,1.01h.66l.66,1.01h.66l.33,1.01h.33l.33,1.01h.99l.33,1.01h.66l.66,1.01h.66l.33,1.01h.66l.66,1.01h.66l.33,1.01h.99l.33,1.01h.66l.33,1.01h.99l.33,1.01h.99l.66,1.01h.66l.33,1.01h1.33l.33,1.01h.99l.66,1.01h.99l.33,1.01h1.33l.33,1.01h1.33l.33,1.01h1.66l.33,1.01h1.33l.66,1.01h1.33l.66,1.01h1.33l.33,1.01h2.65l.33,1.01h2.32l.33,1.01h2.98l.66,1.01h3.64l.66,1.01h8.61l.33-.05h.66l.33.05h8.28l.33-1.01h4.31l.66-1.01h2.65l.33-1.01h2.65l.66-1.01h1.99l.33-1.01h1.99l.33-1.01h1.66l.33-1.01h1.33l.66-1.01h.99l.33-1.01h1.66l.33-1.01h1.33l.33-1.01h1.33l.33-1.01h.99l.33-1.01h.99l.33-1.01h1.33l.33-1.01h.66l.33-1.01h.99l.33-1.01h.99l.66-1.01h.66l.33-1.01h.66l.66-1.01h.66l.33-1.01h.99l.33-1.01h.33l.33-1.01h.99l.33-1.01h.66l.33-1.01h.99l.33-1.01h.33l.33-1.01h.99l.33-1.01h.33l.33-1.01h.66l.66-1.01h.33l.33-1.01h.66l.66-1.01h.33l.33-1.01h.33l.33-1.01h.33l.66-1.01h.66l.33-1.01h.33l.66-1.01h.33l.33-1.01h.33l.33-1.01h.99l.33-1.01h.33l.33-1.01h.33l.66-1.01h.33l.33-1.01h.33l.33-1.01h.33l.66-1.01h.33l.33-1.01h.33l.33-1.01h.66l.33-1.01h.33l.33-1.01h.33l.66-1.01h.33l.33-1.01h.33l.33-1.01h.33l.66-1.01.33-1.01h.33l.33-1.01h.33l.66-1.01h.33l.33-1.01h.33l.33-1.01h.33l.66-1.01.33-1.01h.33l.33-1.01h.33l.66-1.01h.33l.33-1.01.33-1.01h.33l.33-1.01h.66l.33-1.01.33-1.01h.33l.33-1.01h.66l.33-1.01.33-1.01h.33l.33-1.01h.33l.66-1.01.33-1.01h.33l.33-1.01h.33l.66-1.01.33-1.01h.33l.33-1.01.33-1.01h.33l.66-1.01.33-1.01h.33l.33-1.01h.33l.66-1.01.33-1.01h.33l.33-1.01.33-1.01h.33l.66-1.01.33-1.01h.33l.33-1.01.33-1.01h.66l.33-1.01.33-1.01h.33l.33-1.01.66-1.01.33-1.01h.33l.33-1.01.33-1.01h.33l.66-1.01.33-1.01h.33l.33-1.01.33-1.01h.66l.33-1.01.33-1.01.33-1.01h.33l.33-1.01.66-1.01h.33l.33-1.01.33-1.01.33-1.01h.66l.33-1.01.33-1.01.33-1.01h.33l.33-1.01.66-1.01.33-1.01h.33l.33-1.01.33-1.01.66-1.01h.33l.33-1.01.33-1.01.33-1.01h.33l.66-1.01.33-1.01.33-1.01h.33l.33-1.01.66-1.01.33-1.01.33-1.01h.33l.33-1.01.33-1.01.66-1.01h.33l.33-1.01.33-1.01.33-1.01.66-1.01h.33l.33-1.01.33-1.01.33-1.01.67-1.01h.33l.33-1.01.33-1.01.33-1.01.33-1.01h.66l.33-1.01.33-1.01.33-1.01.33-1.01.66-1.01h.33l.33-1.01.33-1.01.33-1.01.33-1.01.66-1.01h.33l.33-1.01.33-1.01.33-1.01.66-1.01.33-1.01h.33l.33-1.01.33-1.01.33-1.01.66-1.01.33-1.01h.33l.33-1.01.33-1.01.66-1.01.33-1.01.33-1.01.33-1.01.33-1.01h.33l.66-1.01.33-1.01.33-1.01.33-1.01.33-1.01.66-1.01h.33l.33-1.01.33-1.01.33-1.01.33-1.01.66-1.01.33-1.01.33-1.01.33-1.01h.33l.66-1.01.33-1.01.33-1.01.33-1.02.33-1.01.33-1.01.66-1.01.33-1.01h.33l.33-1.01.33-1.01.66-1.01.33-1.01.33-1.01.33-1.01.33-1.01.66-1.01.33-1.01.33-1.01h.33l.33-1.01.33-1.01.66-1.01.33-1.01.33-1.01.33-1.01.33-1.01.66-1.01.33-1.01.33-1.01.33-1.01.33-1.01.33-1.01h.66l.33-1.01.33-1.01.33-1.01.33-1.01.66-1.01.33-1.01.33-1.01.33-1.01.33-1.01.33-1.01.66-1.01.33-1.01.33-1.01.33-1.01.33-1.01.66-1.01h.33l.33-1.01.33-1.01.33-1.01.33-1.01.66-1.01.33-1.01.33-1.01.33-1.01.33-1.01.66-1.01.33-1.01.33-1.01.33-1.01.33-1.01.33-1.01.66-1.01.33-1.01.33-1.01.33-1.01.33-1.01.66-1.01.33-1.01.33-1.01.33-1.01.33-1.01.66-1.01.33-1.01.33-1.01.33-1.01h.33l.33-1.01.66-1.01.33-1.01.33-1.01.33-1.01.33-1.01.66-1.01.33-1.01.33-1.01.33-1.01.33-1.01.33-1.01.66-1.01.33-1.01.33-1.01.33-1.01.33-1.01.66-1.01.33-1.01.33-1.01.33-1.01.33-1.01.33-1.01.66-1.01.33-1.01.33-1.01.33-1.01.33-1.01.66-1.01.33-1.01.33-1.01.33-1.01.33-1.01.33-1.01.66-1.01.33-1.01.33-1.01.33-1.01.33-1.01.66-1.01.33-1.01.33-1.01.33-1.01.33-1.01.33-1.01.66-1.01.33-1.01.33-1.01.33-1.01.33-1.01.66-1.01.33-1.01.33-1.01.33-1.01.33-1.01.33-1.01.66-1.01.33-1.01.33-1.01.33-1.01.33-1.01.66-1.01.33-1.01.33-1.01.33-1.01.33-1.01.66-1.01.33-2.02.33-1.01.33-1.01.33-1.01.33-1.01.66-1.01.33-1.01.33-1.01.33-1.01.33-1.01.66-1.01.33-1.01.33-1.01.33-1.01.33-1.01.33-1.01.66-1.01.33-1.01.33-1.01.33-1.01.33-1.01.66-1.01.33-1.01.33-1.01.33-1.01.33-1.01.33-1.01.66-1.01.28-1.01"/>
  </g>
  <g id="Text">
    <text class="cls-11" transform="translate(66.07 87.07)"><tspan x="0" y="0">Û</tspan></text>
    <text class="cls-11" transform="translate(52.83 807.07)"><tspan x="0" y="0">-Û</tspan></text>
    <text class="cls-11" transform="translate(70.25 446.03)"><tspan x="0" y="0">0</tspan></text>
    <text class="cls-11" transform="translate(1098 496.8)"><tspan x="0" y="0">t</tspan></text>
    <text class="cls-11" transform="translate(871.2 313.2)"><tspan x="0" y="0">3</tspan></text>
    <text class="cls-11" transform="translate(982.8 313.2)"><tspan x="0" y="0">4</tspan></text>
    <text class="cls-11" transform="translate(727.2 313.2)"><tspan x="0" y="0">2</tspan></text>
    <text class="cls-11" transform="translate(39.6 513.32) rotate(-90)"><tspan class="cls-12" x="0" y="0">V</tspan><tspan x="29.46" y="0">oltage</tspan></text>
    <g>
      <path class="cls-10" d="m26.87,614.6v11.44h-3.54v-11.44h3.54Z"/>
      <path class="cls-10" d="m21.3,248.6v-9.52h4.1v9.52h10.78v4.36h-10.78v9.52h-4.1v-9.52h-9.96v-4.36h9.96Z"/>
    </g>
    <g>
      <line class="cls-3" x1="622.8" y1="237.86" x2="622.8" y2="396.56"/>
      <polygon class="cls-10" points="611.18 245.78 622.79 202.42 634.42 245.78 611.18 245.78"/>
      <polygon class="cls-10" points="611.18 388.64 622.79 432 634.42 388.64 611.18 388.64"/>
    </g>
    <text class="cls-11" transform="translate(583.2 313.2)"><tspan x="0" y="0">1</tspan></text>
  </g>
</svg>