<?xml version="1.0" encoding="UTF-8"?>
<svg xmlns="http://www.w3.org/2000/svg" viewBox="0 0 525.6 532.8">
  <defs>
    <style>
      .cls-1, .cls-2, .cls-3 {
        fill: none;
        stroke: #c9d1d9;
        stroke-miterlimit: 10;
      }

      .cls-1, .cls-3 {
        stroke-width: 3px;
      }

      .cls-4, .cls-5 {
        fill: #c9d1d9;
      }

      .cls-2 {
        stroke-width: 2px;
      }

      .cls-3 {
        stroke-dasharray: 0 0 2.54 2.54;
      }

      .cls-5 {
        font-family: Roboto-Regular, Roboto;
        font-size: 48px;
      }
    </style>
  </defs>
  <g id="Circle">
    <g>
      <line class="cls-1" x1="21.6" y1="475.2" x2="514.79" y2="475.2"/>
      <path class="cls-4" d="m494.29,489.6c-.45-.7-.24-1.63.46-2.07l19.36-12.33-19.36-12.33c-.7-.45-.91-1.37-.46-2.07s1.38-.9,2.07-.46l21.34,13.59c.43.28.69.75.69,1.27s-.26.99-.69,1.27l-21.34,13.59c-.25.16-.53.23-.81.23-.5,0-.98-.25-1.27-.69Z"/>
    </g>
    <g>
      <line class="cls-1" x1="50.4" y1="504" x2="50.4" y2="10.81"/>
      <path class="cls-4" d="m64.8,31.31c-.7.45-1.63.24-2.07-.46l-12.33-19.36-12.33,19.36c-.45.7-1.37.91-2.07.46-.7-.45-.9-1.38-.46-2.07l13.59-21.34c.28-.43.75-.69,1.27-.69s.99.26,1.27.69l13.59,21.34c.16.25.23.53.23.81,0,.5-.25.98-.69,1.27Z"/>
    </g>
  </g>
  <g id="triangles">
    <path class="cls-4" d="m392.03,224v247.2H62.4l329.63-247.2m4-8L50.4,475.2h345.63V216h0Z"/>
    <g>
      <path class="cls-1" d="m7.2,45.35c.42-.04.84-.08,1.26-.12"/>
      <path class="cls-3" d="m10.99,44.99c123.3-11.23,250.49,30.35,344.88,124.74,91.04,91.04,132.95,212.6,125.74,331.74"/>
      <path class="cls-1" d="m481.53,502.73c-.03.42-.05.84-.08,1.27"/>
    </g>
    <path class="cls-2" d="m331.2,475.2c0-35.79,29.01-64.8,64.8-64.8"/>
    <circle class="cls-1" cx="367.21" cy="446.4" r="1.08"/>
  </g>
  <g id="Beschriftung">
    <text class="cls-5" transform="translate(145.19 518.03)"><tspan x="0" y="0">cos (φ)</tspan></text>
    <g>
      <line class="cls-2" x1="302.4" y1="504" x2="378.28" y2="504"/>
      <polygon class="cls-4" points="374.32 509.81 396 504 374.32 498.19 374.32 509.81"/>
    </g>
    <g>
      <line class="cls-2" x1="144" y1="504" x2="68.12" y2="504"/>
      <polygon class="cls-4" points="72.08 498.19 50.4 504 72.08 509.81 72.08 498.19"/>
    </g>
    <text class="cls-5" transform="translate(438.83 416.44) rotate(-90)"><tspan x="0" y="0">sin (φ)</tspan></text>
    <text class="cls-5" transform="translate(151.2 446.4)"><tspan x="0" y="0">φ(t)</tspan></text>
    <g>
      <line class="cls-2" x1="424.8" y1="417.6" x2="424.8" y2="457.48"/>
      <polygon class="cls-4" points="418.99 453.52 424.8 475.2 430.61 453.52 418.99 453.52"/>
    </g>
    <g>
      <line class="cls-2" x1="424.8" y1="273.6" x2="424.8" y2="233.72"/>
      <polygon class="cls-4" points="430.61 237.68 424.8 216 418.99 237.68 430.61 237.68"/>
    </g>
    <g>
      <path class="cls-2" d="m136.8,475.2c0-16.46-4.67-32.92-14.02-47.22"/>
      <polygon class="cls-4" points="134.21 434.77 132.98 436.35 122.64 428.31 125.39 441.12 123.44 441.54 119.53 423.36 134.21 434.77"/>
    </g>
    <line class="cls-2" x1="396" y1="504" x2="396" y2="475.2"/>
    <line class="cls-2" x1="396" y1="216" x2="424.8" y2="216"/>
    <g>
      <path class="cls-2" d="m439.69,202.61c-31.35-44.7-70.21-83.74-114.74-115.32"/>
      <path class="cls-4" d="m341.62,87.68c-.04.55-.51.97-1.07.93l-15.27-1.02,5.53,14.26c.2.52-.05,1.1-.57,1.3s-1.1-.06-1.3-.57l-6.1-15.73c-.12-.32-.08-.68.13-.95.2-.28.53-.43.87-.41l16.83,1.12c.2.01.38.08.53.19.27.2.43.52.41.87Z"/>
    </g>
    <text class="cls-5" transform="translate(396 122.4)"><tspan x="0" y="0">t</tspan></text>
  </g>
</svg>