<?xml version="1.0" encoding="UTF-8"?>
<svg id="Ebene_1" data-name="Ebene 1" xmlns="http://www.w3.org/2000/svg" width="959.6" height="792" viewBox="0 0 959.6 792">
  <g id="Ebene_6" data-name="Ebene 6">
    <path d="m900.39,567.77c-15.16,0-17.98-.47-39.23,2.72-48.81-30.69-106.44-47.16-164.09-46.9-28.28.13-58.22,4.71-82.43,19.32-16.65,4.12-35.92-3.69-50.55,5.26-10.75,6.58-9.12,5.79-10.67,6.63l2.35.77c-11.38-2.68-23.83,1.88-31.84,10.4s-11.79,20.5-11.57,32.19c.09,4.86.85,9.78,2.97,14.15,7.2,14.84,26.34,14.56,42.8,15.69l-1.81-.84c7.37,2.98,12.2,4.54,19.07-2.27,14.36,36.11,39.58,57.23,73.09,79.87-2.47,19.73,14.14,40.16,33.08,46.23s39.53,2.67,58.85-2.05c8.93-2.18,18.02-4.75,25.37-10.27,8.34-6.26,13.62-15.69,20.6-23.44,19.92-22.08,51.3-28.47,79.45-38.06s58.19-27.96,61.98-57.46c2.88-22.36-11.75-51.96-27.42-51.96v.02Zm-223.22,95.15c-6.21-1.33-14.3-3.69-23.12-8.06-8.63-4.27-15.3-9.14-20.08-13.2,3.08-16.66,7.24-33.12,22.43-40.64,7.8-3.86,15.08-4.12,20.58-4.2,62.11-.92,69.94,11.63,71.18,10.98-21.74,11.37-48.53,33.86-71,55.12h.01Z" fill="#c9d1d9" isolation="isolate" opacity=".17" stroke="#c9d1d9" stroke-miterlimit="10" stroke-width="4"/>
  </g>
  <g id="flaeche1">
    <path d="m329.12,602.02c-33.89-39.62-84.42-76.43-83.48-128.56.89-49.5,30.17-97.93,34.27-100.49,15.24-10.39,41.38-9.44,53.79-26,11.46-15.3,15.58-34.72,19.4-53.45,2.82-13.83,5.65-27.66,8.47-41.49,1.37-3.99,2.19-8.14,2.52-12.34.21-1.04.43-2.09.64-3.13l-.52,1.09c.52-13.13-3.67-26.66-10.97-37.74-10.91-16.57-27.86-28.31-45.68-37.03-35.62-17.43-76.38-24.19-115.71-19.18-13.41,1.71-27.01,4.91-38.11,12.63-25.28,17.59-30.35,52.4-31.82,83.17-.19,4.02-.33,8.22,1.34,11.88,2.02,4.44,6.33,7.33,10.48,9.91,9.89,6.16,20.04,11.89,30.4,17.19l-.09-.04c1.48,16.15,3.9,38.75,5.38,54.9.63,6.89,1.18,14.23-2.03,20.36-7.52,14.37-28.33,12.38-44.13,8.77-15.81-3.62-37.18-4-42.95,11.15-5.09,13.37,6.98,26.48,17.04,36.65,36.61,36.98,59.57,85.19,92.32,125.64,36.41,44.98,87.3,85.34,93.21,142.91,2.92,28.42-6,57.86,1.81,85.35,1.2,4.21,2.84,8.41,5.77,11.66,4.04,4.46,10.13,6.6,16.12,7.15,18.53,1.71,36.24-10.61,45.64-26.66s11.89-35.2,12.53-53.79c.6-17.49-.29-35.29-5.83-51.89-6.05-18.15-17.39-34.07-29.82-48.61l.01-.01Z" fill="#c9d1d9" isolation="isolate" opacity=".2" stroke="#c9d1d9" stroke-miterlimit="10"/>
  </g>
  <g id="flaeche2" opacity=".7">
    <path d="m359.78,256.51c8.35-17.99,4.37-40.03-6.54-56.6s-27.86-28.31-45.68-37.03c-35.62-17.43-16.25-8.16-57.4-18.16l1.09-13.15,14.7-13.72,10.67-4.69c22.43-19.88,40.79-29.15,70.76-29.71,19.35-.36,38.02,6.37,56.88,10.74,83.07,19.25,169.45-7.18,254.71-6.13,4.95.06,10.28.35,14.16,3.42,9.66,7.64,2.24,22.98-5.6,32.49-42.09,51.08-82.48,99.43-125.29,149.91,3.04,8.1,2.08-.82,4.53,22.61,2.45,23.42-1.02,47.03-4.99,70.25-4.61,26.96-9.91,53.8-15.89,80.5-4.35,19.43-9.09,39.04-8.6,58.94.49,19.9,4.21,37.91,18.97,51.27l-7.59,4.13-7.23,7.04-6.38,12.2-2.35,12.67.19,8.92,2.41,9.92c-24.63,1.52-43.38-18.79-53.2-41.43s-11.32-47.87-16.61-71.98c-4.81-21.92-12.84-43.14-23.75-62.75-6.84-12.28-15-24.16-26.2-32.65s-16.92-18.59-30.62-15.43l11.07-4c-13.21,7.87-27.64,3.56-42.75.75-8.87-3.8-10.96-16.87-13.2-24.48,13.8-12.29-.19,1.29,13.65-13.37,13.12-13.9,15.58-34.72,19.4-53.45,3.88-18.99,7.75-37.97,11.63-56.96" fill="#c9d1d9" isolation="isolate" opacity=".25" stroke="#c9d1d9" stroke-miterlimit="10" stroke-width="3"/>
  </g>
  <path d="m164.06,278.45c1.48,16.15,3.9,38.75,5.38,54.9.63,6.89,1.18,14.23-2.03,20.36-7.52,14.37-28.33,12.38-44.13,8.77-15.81-3.62-37.18-4-42.95,11.15-5.09,13.37,6.98,26.48,17.04,36.65,36.61,36.98,59.57,85.19,92.32,125.64,36.41,44.98,87.3,85.34,93.21,142.91,2.92,28.42-6,57.86,1.81,85.35,1.2,4.21,2.84,8.41,5.77,11.66,4.04,4.46,10.13,6.6,16.12,7.15,18.53,1.71,36.24-10.61,45.64-26.66s11.89-35.2,12.53-53.79c.6-17.49-.29-35.29-5.83-51.89-6.05-18.15-17.39-34.07-29.82-48.61-33.89-39.62-84.42-76.43-83.48-128.56.89-49.5,30.17-97.93,34.27-100.49,15.24-10.39,41.38-9.44,53.79-26,11.46-15.3,15.58-34.72,19.4-53.45,3.88-18.99,7.75-37.97,11.63-56.96" fill="none" stroke="#c9d1d9" stroke-miterlimit="10" stroke-width="4"/>
  <path d="m221.01,302.44c-32.2-10.12-63.23-24.11-91.83-42.09-4.4-2.82-8.56-7.71-9.04-13.32-.7-15.35,1.1-30.7,4.14-45.86,9.14-41.11,32.62-57.61,73.55-61.02,46.77-4.51,97.89,7.27,135.96,35.36,10.88,8.41,20.58,18.89,26.5,31.66,9.11,18.83,9.06,43.03-4.31,59.86-12.77,16.49-32.91,24.6-50.75,33.7-4.5,2.24-8.95,4.55-13.28,7.09-2.84,1.61-5.38,3.62-7.45,6.12-3.07,3.42-4.6,8.96-.28,12.03,2.52,1.82,5.94,2.32,9.21,2.76,9.97,1.23,20.21-.22,29.45-4.27-10.61,5.22-23,7.07-34.67,4.79-5.89-1.04-10.18-5.86-7.96-11.93,1.85-5.02,6.02-8.82,10.43-11.58,20.81-13.41,46.45-21.16,61.83-41.31,12.05-15.73,11.5-37.75,3.02-55.01-11.73-23.99-35.85-38.52-59.75-48.62-30.61-12.76-64.38-17.95-97.41-14.89-39,3.22-59.97,17.23-69.56,56.32-3.08,12.87-4.31,26.27-5.03,39.58-.5,7.07,1.5,11.71,7.37,15.75,27.92,18.55,58.34,33.42,89.85,44.89h0l.01-.01Z" fill="#c9d1d9"/>
  <path d="m247.73,145.26c-3.66-16.48,9.74-27.94,24.25-31.83,23.24-7.06,46.57,4.67,64.87,18.17,14.83,10.72,28.61,23.14,39.6,37.83,10.93,14.58,18.91,31.86,20.36,50.17-4.03-36.98-32.09-65.74-61.4-85.96-17.9-12.51-40.3-23.51-62.28-16.32-12,3.51-24.01,13.11-20.52,26.85l-4.88,1.08h0v.01Z" fill="#c9d1d9"/>
  <path d="m322.45,359.64c2.14,8.39,4.27,19.56,11.18,23.18,18.47,3.97,36.26,9.17,50.46-7.19,6.93-7.92,10.81-17.98,14.36-27.8,1.76-5.09,10.92-32.04,12.85-37.67-3.39,10.79-10.54,35.36-14.2,45.64-5.26,15.22-14.84,31.08-32.1,33.78-10.74,1.84-21.64-1.04-32.11-2.76-10.3-4.07-12.32-16.47-15.23-25.78l4.8-1.41h0l-.01.01Z" fill="#c9d1d9"/>
  <path d="m274.82,114.76c22.43-19.88,42.6-30.74,72.57-31.29,19.35-.36,38.02,6.37,56.88,10.74,83.07,19.25,169.45-7.18,254.71-6.13,4.95.06,10.28.35,14.16,3.42,9.66,7.64,2.24,22.98-5.6,32.49-42.09,51.08-82.48,99.43-125.29,149.91" fill="none" stroke="#c9d1d9" stroke-miterlimit="10" stroke-width="4"/>
  <path d="m517.86,233.76c17.49,15.77,26.47,39.31,28.92,62.73,2.45,23.42-1.02,47.03-5,70.25-4.61,26.96-9.91,53.8-15.89,80.5-4.35,19.43-9.09,39.04-8.6,58.94.49,19.9,4.21,37.91,18.97,51.27" fill="none" stroke="#c9d1d9" stroke-miterlimit="10" stroke-width="3"/>
  <path d="m364.94,388.07c13.7-3.16,19.42,6.94,30.62,15.43,11.2,8.5,19.36,20.37,26.2,32.65,10.92,19.61,18.95,40.83,23.75,62.75,5.29,24.11,6.78,49.34,16.61,71.98s28.57,42.95,53.2,41.43" fill="none" stroke="#c9d1d9" stroke-miterlimit="10" stroke-width="3"/>
  <path d="m555.76,555.57c-11.38-2.68-23.83,1.88-31.84,10.4s-11.79,20.5-11.57,32.19c.09,4.86.85,9.78,2.97,14.15,7.2,14.84,26.34,14.56,42.8,15.69" fill="none" stroke="#c9d1d9" stroke-miterlimit="10" stroke-width="4"/>
  <path d="m614.62,542.91c-16.65,4.12-35.92-3.69-50.55,5.26-10.75,6.58-14.91,19.92-17.82,32.19-1.99,8.38-3.81,16.99-2.82,25.55,1,8.56,4.88,18.03,12.87,21.26,7.37,2.98,12.2,4.54,19.07-2.27" fill="none" stroke="#c9d1d9" stroke-miterlimit="10" stroke-width="4"/>
  <path d="m861.15,570.49c-48.81-30.69-106.44-47.16-164.09-46.9-28.28.13-57.38,4.5-81.6,19.11s-42.66,41.04-41.76,69.3c1.29,40.43,41.25,70.12,74.76,92.77" fill="none" stroke="#c9d1d9" stroke-miterlimit="10" stroke-width="4"/>
  <path d="m748.16,607.8c-22-7.15-48.07-12.02-71.18-10.98-7.05.32-14.26,1.07-20.58,4.2-15.19,7.51-19.36,23.97-22.43,40.64" fill="none" stroke="#c9d1d9" stroke-miterlimit="10" stroke-width="4"/>
  <path d="m816.59,579.26c-34.05-14.58-71.26-22.19-108.15-25.57-18.69-1.71-37.95-2.87-55.86,2.74s-34.41,19.42-37.98,37.84c-3.07,15.85,4.03,32.48,15.47,43.87,11.44,11.39,31.6,20.25,47.1,24.78" fill="none" stroke="#c9d1d9" stroke-miterlimit="10" stroke-width="4"/>
  <path d="m900.39,567.77c-89.61-.67-178.65,40.64-236,109.49-7.25,8.71-14.26,18.39-15.67,29.64-2.47,19.73,13.89,38.03,32.83,44.1,18.94,6.07,39.53,2.67,58.85-2.05,8.93-2.18,18.02-4.75,25.37-10.27,8.34-6.26,13.62-15.69,20.6-23.44,19.92-22.08,51.3-28.47,79.45-38.06s58.19-27.96,61.98-57.46c2.88-22.36-11.75-51.84-27.42-51.96l.01.01Z" fill="none" stroke="#c9d1d9" stroke-miterlimit="10" stroke-width="5"/>
  <path d="m881.35,648.62c9.01-6.96,18.99-14.72,21.77-26.29,3.01-12.26-3.75-22.12-16.2-24.07-7.4-1.25-15.17-.39-22.62,1.3-45.47,10.66-88.28,32.22-124.03,62.26-11.96,9.96-23.05,20.95-33.3,32.68-2.62,2.9-5.15,5.84-7.04,8.98-2.17,3.54-3.09,7.5-2.37,11.48l.33,1.29.16.65c3.39,9.49,13.47,15.71,23.42,15.83,11.78.28,22.71-4.95,33.2-9.88-13.41,7.5-29.68,16.05-45.13,9.53-8.49-3.58-15.99-11.93-15.58-21.59.4-7.44,5.43-13.42,10.01-18.82,30.24-36.57,70.03-65.08,114.1-82.58,14.72-5.78,29.88-10.44,45.37-13.63,7.9-1.57,16.08-2.36,24.08-.71,8.29,1.59,15.88,6.97,17.9,15.57,3.63,17.57-11.01,29.56-24.1,37.99h0l.03.01Z" fill="#c9d1d9"/>
  <path d="m142.08,410.73c-6.4.66-13.1-1.41-17.82-5.9-5.16-4.93-3.76-13.48.39-18.62,2.14-2.67,4.84-4.66,7.45-6.5,2.54-1.9,5.5-3.55,8.29-4.97,5.23-3.02,9.23-7.8,12.7-12.73l4,2.99c-4.15,5.14-8.9,10.07-14.95,13.05-2.17,1.03-4.29,1.79-6.31,3.05-6,3.44-12.01,7.31-13.04,14.63-1.45,9.91,10.91,15.38,19.28,15h.01Z" fill="#c9d1d9"/>
  <g isolation="isolate">
    <g isolation="isolate">
      <path d="m40.693,604.805l11.156,27.844,11.156-27.844h5.836v34.125h-4.5v-13.289l.422-14.344-11.203,27.633h-3.445l-11.18-27.562.445,14.273v13.289h-4.5v-34.125h5.812Z" fill="#c9d1d9"/>
      <path d="m91.764,638.93c-.25-.5-.453-1.391-.609-2.672-2.016,2.094-4.422,3.141-7.219,3.141-2.5,0-4.551-.707-6.152-2.121s-2.402-3.207-2.402-5.379c0-2.641,1.004-4.691,3.012-6.152s4.832-2.191,8.473-2.191h4.219v-1.992c0-1.516-.453-2.723-1.359-3.621s-2.242-1.348-4.008-1.348c-1.547,0-2.844.391-3.891,1.172s-1.57,1.727-1.57,2.836h-4.359c0-1.266.449-2.488,1.348-3.668s2.117-2.113,3.656-2.801,3.23-1.031,5.074-1.031c2.922,0,5.211.73,6.867,2.191s2.516,3.473,2.578,6.035v11.672c0,2.328.297,4.18.891,5.555v.375h-4.547Zm-7.195-3.305c1.359,0,2.648-.352,3.867-1.055s2.102-1.617,2.648-2.742v-5.203h-3.398c-5.312,0-7.969,1.555-7.969,4.664,0,1.359.453,2.422,1.359,3.188s2.07,1.148,3.492,1.148Z" fill="#c9d1d9"/>
      <path d="m106.928,638.93h-4.336v-36h4.336v36Z" fill="#c9d1d9"/>
      <path d="m118.576,638.93h-4.336v-36h4.336v36Z" fill="#c9d1d9"/>
      <path d="m136.037,639.398c-3.438,0-6.234-1.129-8.391-3.387s-3.234-5.277-3.234-9.059v-.797c0-2.516.48-4.762,1.441-6.738s2.305-3.523,4.031-4.641,3.598-1.676,5.613-1.676c3.297,0,5.859,1.086,7.688,3.258s2.742,5.281,2.742,9.328v1.805h-17.18c.062,2.5.793,4.52,2.191,6.059s3.176,2.309,5.332,2.309c1.531,0,2.828-.312,3.891-.938s1.992-1.453,2.789-2.484l2.648,2.062c-2.125,3.266-5.312,4.898-9.562,4.898Zm-.539-22.734c-1.75,0-3.219.637-4.406,1.91s-1.922,3.059-2.203,5.355h12.703v-.328c-.125-2.203-.719-3.91-1.781-5.121s-2.5-1.816-4.312-1.816Z" fill="#c9d1d9"/>
      <path d="m166.6,636.422c-1.688,1.984-4.164,2.977-7.43,2.977-2.703,0-4.762-.785-6.176-2.355s-2.129-3.895-2.145-6.973v-16.5h4.336v16.383c0,3.844,1.562,5.766,4.688,5.766,3.312,0,5.516-1.234,6.609-3.703v-18.445h4.336v25.359h-4.125l-.094-2.508Z" fill="#c9d1d9"/>
      <path d="m192.17,632.203c0-1.172-.441-2.082-1.324-2.73s-2.422-1.207-4.617-1.676-3.938-1.031-5.227-1.688-2.242-1.438-2.859-2.344-.926-1.984-.926-3.234c0-2.078.879-3.836,2.637-5.273s4.004-2.156,6.738-2.156c2.875,0,5.207.742,6.996,2.227s2.684,3.383,2.684,5.695h-4.359c0-1.188-.504-2.211-1.512-3.07s-2.277-1.289-3.809-1.289c-1.578,0-2.812.344-3.703,1.031s-1.336,1.586-1.336,2.695c0,1.047.414,1.836,1.242,2.367s2.324,1.039,4.488,1.523,3.918,1.062,5.262,1.734,2.34,1.48,2.988,2.426.973,2.098.973,3.457c0,2.266-.906,4.082-2.719,5.449s-4.164,2.051-7.055,2.051c-2.031,0-3.828-.359-5.391-1.078s-2.785-1.723-3.668-3.012-1.324-2.684-1.324-4.184h4.336c.078,1.453.66,2.605,1.746,3.457s2.52,1.277,4.301,1.277c1.641,0,2.957-.332,3.949-.996s1.488-1.551,1.488-2.66Z" fill="#c9d1d9"/>
    </g>
  </g>
  <g isolation="isolate">
    <g isolation="isolate">
      <path d="m420.079,44.11h-4.5V9.985h4.5v34.125Z" fill="#c9d1d9"/>
      <path d="m431.728,18.75l.141,3.188c1.938-2.438,4.469-3.656,7.594-3.656,5.359,0,8.062,3.023,8.109,9.07v16.758h-4.336v-16.781c-.016-1.828-.434-3.18-1.254-4.055s-2.098-1.312-3.832-1.312c-1.406,0-2.641.375-3.703,1.125s-1.891,1.734-2.484,2.953v18.07h-4.336v-25.359h4.102Z" fill="#c9d1d9"/>
      <path d="m464.282,41.04c1.547,0,2.898-.469,4.055-1.406s1.797-2.109,1.922-3.516h4.102c-.078,1.453-.578,2.836-1.5,4.148s-2.152,2.359-3.691,3.141-3.168,1.172-4.887,1.172c-3.453,0-6.199-1.152-8.238-3.457s-3.059-5.457-3.059-9.457v-.727c0-2.469.453-4.664,1.359-6.586s2.207-3.414,3.902-4.477,3.699-1.594,6.012-1.594c2.844,0,5.207.852,7.09,2.555s2.887,3.914,3.012,6.633h-4.102c-.125-1.641-.746-2.988-1.863-4.043s-2.496-1.582-4.137-1.582c-2.203,0-3.91.793-5.121,2.379s-1.816,3.879-1.816,6.879v.82c0,2.922.602,5.172,1.805,6.75s2.922,2.367,5.156,2.367Z" fill="#c9d1d9"/>
      <path d="m494.892,41.602c-1.688,1.984-4.164,2.977-7.43,2.977-2.703,0-4.762-.785-6.176-2.355s-2.129-3.895-2.145-6.973v-16.5h4.336v16.383c0,3.844,1.562,5.766,4.688,5.766,3.312,0,5.516-1.234,6.609-3.703v-18.445h4.336v25.359h-4.125l-.094-2.508Z" fill="#c9d1d9"/>
      <path d="m520.462,37.383c0-1.172-.441-2.082-1.324-2.73s-2.422-1.207-4.617-1.676-3.938-1.031-5.227-1.688-2.242-1.438-2.859-2.344-.926-1.984-.926-3.234c0-2.078.879-3.836,2.637-5.273s4.004-2.156,6.738-2.156c2.875,0,5.207.742,6.996,2.227s2.684,3.383,2.684,5.695h-4.359c0-1.188-.504-2.211-1.512-3.07s-2.277-1.289-3.809-1.289c-1.578,0-2.812.344-3.703,1.031s-1.336,1.586-1.336,2.695c0,1.047.414,1.836,1.242,2.367s2.324,1.039,4.488,1.523,3.918,1.062,5.262,1.734,2.34,1.48,2.988,2.426.973,2.098.973,3.457c0,2.266-.906,4.082-2.719,5.449s-4.164,2.051-7.055,2.051c-2.031,0-3.828-.359-5.391-1.078s-2.785-1.723-3.668-3.012-1.324-2.684-1.324-4.184h4.336c.078,1.453.66,2.605,1.746,3.457s2.52,1.277,4.301,1.277c1.641,0,2.957-.332,3.949-.996s1.488-1.551,1.488-2.66Z" fill="#c9d1d9"/>
    </g>
  </g>
  <g isolation="isolate">
    <g isolation="isolate">
      <path d="m774.896,494.639c-3.859-1.109-6.668-2.473-8.426-4.09s-2.637-3.613-2.637-5.988c0-2.688,1.074-4.91,3.223-6.668s4.941-2.637,8.379-2.637c2.344,0,4.434.453,6.27,1.359s3.258,2.156,4.266,3.75,1.512,3.336,1.512,5.227h-4.523c0-2.07-.656-3.696-1.969-4.881-1.312-1.184-3.164-1.775-5.555-1.775-2.219,0-3.949.489-5.191,1.468s-1.863,2.336-1.863,4.073c0,1.394.59,2.571,1.77,3.534s3.188,1.843,6.023,2.642c2.836.798,5.055,1.678,6.656,2.639s2.789,2.082,3.562,3.363,1.16,2.789,1.16,4.523c0,2.766-1.078,4.98-3.234,6.645s-5.039,2.496-8.648,2.496c-2.344,0-4.531-.449-6.562-1.348s-3.598-2.129-4.699-3.691-1.652-3.336-1.652-5.32h4.523c0,2.062.762,3.691,2.285,4.887s3.559,1.793,6.105,1.793c2.375,0,4.195-.484,5.461-1.453s1.898-2.289,1.898-3.961-.586-2.965-1.758-3.879-3.297-1.816-6.375-2.707Z" fill="#c9d1d9"/>
      <path d="m798.521,478.35v6.141h4.734v3.352h-4.734v15.746c0,1.018.211,1.78.633,2.288.422.509,1.141.763,2.156.763.5,0,1.188-.094,2.062-.281v3.495c-1.141.311-2.25.466-3.328.466-1.938,0-3.398-.586-4.383-1.758s-1.477-2.836-1.477-4.992v-15.727h-4.617v-3.352h4.617v-6.141h4.336Z" fill="#c9d1d9"/>
      <path d="m823.974,509.85c-.25-.5-.453-1.391-.609-2.672-2.016,2.094-4.422,3.141-7.219,3.141-2.5,0-4.551-.707-6.152-2.121s-2.402-3.207-2.402-5.379c0-2.641,1.004-4.691,3.012-6.152s4.832-2.191,8.473-2.191h4.219v-1.992c0-1.516-.453-2.723-1.359-3.621s-2.242-1.348-4.008-1.348c-1.547,0-2.844.391-3.891,1.172s-1.57,1.727-1.57,2.836h-4.359c0-1.266.449-2.488,1.348-3.668s2.117-2.113,3.656-2.801,3.23-1.031,5.074-1.031c2.922,0,5.211.73,6.867,2.191s2.516,3.473,2.578,6.035v11.672c0,2.328.297,4.18.891,5.555v.375h-4.547Zm-7.195-3.305c1.359,0,2.648-.352,3.867-1.055s2.102-1.617,2.648-2.742v-5.203h-3.398c-5.312,0-7.969,1.555-7.969,4.664,0,1.359.453,2.422,1.359,3.188s2.07,1.148,3.492,1.148Z" fill="#c9d1d9"/>
      <path d="m855.849,497.451c0,3.859-.883,6.969-2.648,9.328s-4.156,3.539-7.172,3.539c-3.078,0-5.5-.977-7.266-2.93v12.211h-4.336v-35.109h3.961l.211,2.812c1.766-2.188,4.219-3.281,7.359-3.281,3.047,0,5.457,1.148,7.23,3.445s2.66,5.492,2.66,9.586v.398Zm-4.336-.492c0-2.859-.609-5.117-1.828-6.773s-2.891-2.484-5.016-2.484c-2.625,0-4.594,1.164-5.906,3.492v12.117c1.297,2.312,3.281,3.469,5.953,3.469,2.078,0,3.73-.824,4.957-2.473s1.84-4.098,1.84-7.348Z" fill="#c9d1d9"/>
      <path d="m871.88,510.318c-3.438,0-6.234-1.129-8.391-3.387s-3.234-5.277-3.234-9.059v-.797c0-2.516.48-4.762,1.441-6.738s2.305-3.523,4.031-4.641,3.598-1.676,5.613-1.676c3.297,0,5.859,1.086,7.688,3.258s2.742,5.281,2.742,9.328v1.805h-17.18c.062,2.5.793,4.52,2.191,6.059s3.176,2.309,5.332,2.309c1.531,0,2.828-.312,3.891-.938s1.992-1.453,2.789-2.484l2.648,2.062c-2.125,3.266-5.312,4.898-9.562,4.898Zm-.539-22.734c-1.75,0-3.219.637-4.406,1.91s-1.922,3.059-2.203,5.355h12.703v-.328c-.125-2.203-.719-3.91-1.781-5.121s-2.5-1.816-4.312-1.816Z" fill="#c9d1d9"/>
      <path d="m901.552,503.123c0-1.172-.441-2.082-1.324-2.73s-2.422-1.207-4.617-1.676-3.938-1.031-5.227-1.688-2.242-1.438-2.859-2.344-.926-1.984-.926-3.234c0-2.078.879-3.836,2.637-5.273s4.004-2.156,6.738-2.156c2.875,0,5.207.742,6.996,2.227s2.684,3.383,2.684,5.695h-4.359c0-1.188-.504-2.211-1.512-3.07s-2.277-1.289-3.809-1.289c-1.578,0-2.812.344-3.703,1.031s-1.336,1.586-1.336,2.695c0,1.047.414,1.836,1.242,2.367s2.324,1.039,4.488,1.523,3.918,1.062,5.262,1.734,2.34,1.48,2.988,2.426.973,2.098.973,3.457c0,2.266-.906,4.082-2.719,5.449s-4.164,2.051-7.055,2.051c-2.031,0-3.828-.359-5.391-1.078s-2.785-1.723-3.668-3.012-1.324-2.684-1.324-4.184h4.336c.078,1.453.66,2.605,1.746,3.457s2.52,1.277,4.301,1.277c1.641,0,2.957-.332,3.949-.996s1.488-1.551,1.488-2.66Z" fill="#c9d1d9"/>
    </g>
  </g>
</svg>