<?xml version="1.0" encoding="UTF-8"?>
<svg id="uuid-8472cefa-4c93-4c17-a938-3cc4845b0ddf" xmlns="http://www.w3.org/2000/svg" width="1396.8" height="540" viewBox="0 0 1396.8 540">
  <line x1="113.46" y1="540" x2="113.46" y2="235.66" fill="none" stroke="#307eef" stroke-miterlimit="10" stroke-width="5.67"/>
  <line x1="220.67" y1="540" x2="220.67" y2="163.78" fill="none" stroke="#307eef" stroke-miterlimit="10" stroke-width="5.67"/>
  <line x1="334.4" y1="540" x2="334.4" y2="107.88" fill="none" stroke="#307eef" stroke-miterlimit="10" stroke-width="5.67"/>
  <line x1="453.01" y1="540" x2="453.01" y2="67.95" fill="none" stroke="#307eef" stroke-miterlimit="10" stroke-width="5.67"/>
  <line x1="574.89" y1="540" x2="574.89" y2="43.99" fill="none" stroke="#307eef" stroke-miterlimit="10" stroke-width="5.67"/>
  <line x1="821.91" y1="540" x2="821.91" y2="43.99" fill="none" stroke="#307eef" stroke-miterlimit="10" stroke-width="5.67"/>
  <line x1="943.79" y1="540" x2="943.79" y2="67.95" fill="none" stroke="#307eef" stroke-miterlimit="10" stroke-width="5.67"/>
  <line x1="1062.4" y1="540" x2="1062.4" y2="107.88" fill="none" stroke="#307eef" stroke-miterlimit="10" stroke-width="5.67"/>
  <line x1="1176.13" y1="540" x2="1176.13" y2="163.78" fill="none" stroke="#307eef" stroke-miterlimit="10" stroke-width="5.67"/>
  <line x1="1283.34" y1="540" x2="1283.34" y2="235.66" fill="none" stroke="#307eef" stroke-miterlimit="10" stroke-width="5.67"/>
  <path d="m1023.53,436.54c50.87-90.92,101.74-181.84,152.61-272.76" fill="none" stroke="#d85648" stroke-miterlimit="10" stroke-width="5.67"/>
  <polygon points="1043.38 434.78 999.01 480.38 1014.64 418.69 1043.38 434.78" fill="#d85648"/>
  <path d="m1283.34,235.66c-62.27,83.24-124.53,166.48-186.8,249.72" fill="none" stroke="#d85648" stroke-miterlimit="10" stroke-width="5.67"/>
  <polygon points="1090.08 466.52 1066.45 525.59 1116.46 486.25 1090.08 466.52" fill="#d85648"/>
  <path d="m300.26,485.38c-62.27-83.24-124.53-166.48-186.8-249.72" fill="none" stroke="#d85648" stroke-miterlimit="10" stroke-width="5.67"/>
  <polygon points="306.72 466.52 330.35 525.59 280.34 486.25 306.72 466.52" fill="#d85648"/>
  <path d="m220.67,163.78c50.87,90.92,101.74,181.84,152.61,272.76" fill="none" stroke="#d85648" stroke-miterlimit="10" stroke-width="5.67"/>
  <polygon points="353.42 434.78 397.79 480.38 382.16 418.69 353.42 434.78" fill="#d85648"/>
  <path d="m450.7,398.56c-38.77-96.89-77.54-193.79-116.31-290.68" fill="none" stroke="#d85648" stroke-miterlimit="10" stroke-width="5.67"/>
  <polygon points="461.82 382.01 469.37 445.19 431.24 394.25 461.82 382.01" fill="#d85648"/>
  <path d="m453.01,67.95c26.14,101.16,52.28,202.33,78.42,303.49" fill="none" stroke="#d85648" stroke-miterlimit="10" stroke-width="5.67"/>
  <polygon points="512.67 364.68 543.99 420.07 544.57 356.44 512.67 364.68" fill="#d85648"/>
  <path d="m614.37,355.16c-13.16-103.73-26.32-207.45-39.47-311.18" fill="none" stroke="#d85648" stroke-miterlimit="10" stroke-width="5.67"/>
  <polygon points="629.29 341.95 620.7 404.99 596.61 346.09 629.29 341.95" fill="#d85648"/>
  <path d="m698.4,36v363.97" fill="none" stroke="#d85648" stroke-miterlimit="10" stroke-width="5.67"/>
  <path d="m782.43,355.16c13.16-103.73,26.32-207.45,39.47-311.18" fill="none" stroke="#d85648" stroke-miterlimit="10" stroke-width="5.67"/>
  <polygon points="800.19 346.09 776.13 404.99 767.51 341.95 800.19 346.09" fill="#d85648"/>
  <path d="m943.79,67.95c-26.14,101.16-52.28,202.33-78.42,303.49" fill="none" stroke="#d85648" stroke-miterlimit="10" stroke-width="5.67"/>
  <polygon points="852.23 356.44 852.79 420.07 884.13 364.68 852.23 356.44" fill="#d85648"/>
  <path d="m946.1,398.56c38.77-96.89,77.54-193.79,116.31-290.68" fill="none" stroke="#d85648" stroke-miterlimit="10" stroke-width="5.67"/>
  <polygon points="965.56 394.25 927.45 445.2 934.98 382.01 965.56 394.25" fill="#d85648"/>
  <path d="m113.91,221.26c-34.47,26.62-67.58,55.91-99.06,87.85,377.76-383.35,990.24-383.35,1368,0-31.48-31.95-64.59-61.23-99.06-87.85" fill="none" stroke="#7f7f7f" stroke-linecap="square" stroke-miterlimit="10" stroke-width="28.35"/>
  <line x1="698.4" y1="540" x2="698.4" y2="36" fill="none" stroke="#307eef" stroke-miterlimit="10" stroke-width="5.67"/>
  <path d="m698.4,36v316.97" fill="none" stroke="#d85648" stroke-miterlimit="10" stroke-width="5.67"/>
  <polygon points="681.93 341.74 698.39 403.2 714.87 341.74 681.93 341.74" fill="#d85648"/>
</svg>