<?xml version="1.0" encoding="UTF-8"?><svg xmlns="http://www.w3.org/2000/svg" viewBox="0 0 1468.8 784.8"><defs><style>.uuid-edbead67-9aa3-429f-a874-dfd3458687e9{stroke:#307eef;}.uuid-edbead67-9aa3-429f-a874-dfd3458687e9,.uuid-1b1b8381-343b-4bfc-84c3-45b53d5810f0,.uuid-94475c42-e391-491f-8773-2f5932178890{fill:none;stroke-miterlimit:10;}.uuid-edbead67-9aa3-429f-a874-dfd3458687e9,.uuid-94475c42-e391-491f-8773-2f5932178890{stroke-width:5.67px;}.uuid-59e9daab-ea08-4f2f-974a-169f9ddf22cf{fill:#d85648;}.uuid-59e9daab-ea08-4f2f-974a-169f9ddf22cf,.uuid-d7649097-824e-46e0-8f6c-7e75b160bb25{stroke-width:0px;}.uuid-1b1b8381-343b-4bfc-84c3-45b53d5810f0{stroke:#7f7f7f;stroke-width:28.35px;}.uuid-d7649097-824e-46e0-8f6c-7e75b160bb25{fill:#307eef;}.uuid-94475c42-e391-491f-8773-2f5932178890{stroke:#d85648;}</style></defs><g id="uuid-f9efbe59-4613-4d29-b18b-bab04aa289b3"><path class="uuid-94475c42-e391-491f-8773-2f5932178890" d="M1112.61,83.6c106.19,139.62,212.39,279.24,318.58,418.87"/><polygon class="uuid-59e9daab-ea08-4f2f-974a-169f9ddf22cf" points="1411.28 503.5 1461.59 542.45 1437.5 483.56 1411.28 503.5"/><path class="uuid-94475c42-e391-491f-8773-2f5932178890" d="M52.01,502.47c106.19-139.62,212.39-279.24,318.58-418.87"/><polygon class="uuid-59e9daab-ea08-4f2f-974a-169f9ddf22cf" points="71.92 503.5 21.61 542.45 45.7 483.56 71.92 503.5"/><path class="uuid-94475c42-e391-491f-8773-2f5932178890" d="M438.59,128.44c-86.73,152.45-173.46,304.91-260.19,457.36"/><polygon class="uuid-59e9daab-ea08-4f2f-974a-169f9ddf22cf" points="169.64 567.9 153.55 629.46 198.27 584.19 169.64 567.9"/><path class="uuid-94475c42-e391-491f-8773-2f5932178890" d="M312.48,650.62c66.08-162.43,132.16-324.87,198.24-487.3"/><polygon class="uuid-59e9daab-ea08-4f2f-974a-169f9ddf22cf" points="331.97 646.42 293.56 697.14 301.45 634 331.97 646.42"/><path class="uuid-94475c42-e391-491f-8773-2f5932178890" d="M585.96,188.23c-44.55,169.56-89.09,339.12-133.64,508.68"/><polygon class="uuid-59e9daab-ea08-4f2f-974a-169f9ddf22cf" points="439.24 681.85 439.55 745.48 471.1 690.22 439.24 681.85"/><path class="uuid-94475c42-e391-491f-8773-2f5932178890" d="M596,724.67c22.42-173.83,44.84-347.67,67.26-521.5"/><polygon class="uuid-59e9daab-ea08-4f2f-974a-169f9ddf22cf" points="613.77 715.64 589.59 774.49 581.1 711.43 613.77 715.64"/><path class="uuid-94475c42-e391-491f-8773-2f5932178890" d="M741.6,208.16v525.77"/><polygon class="uuid-59e9daab-ea08-4f2f-974a-169f9ddf22cf" points="725.13 722.7 741.59 784.16 758.07 722.7 725.13 722.7"/><path class="uuid-94475c42-e391-491f-8773-2f5932178890" d="M887.2,724.67c-22.42-173.83-44.84-347.67-67.26-521.5"/><polygon class="uuid-59e9daab-ea08-4f2f-974a-169f9ddf22cf" points="902.1 711.43 893.64 774.49 869.43 715.64 902.1 711.43"/><path class="uuid-94475c42-e391-491f-8773-2f5932178890" d="M897.24,188.23c44.55,169.56,89.09,339.12,133.64,508.68"/><polygon class="uuid-59e9daab-ea08-4f2f-974a-169f9ddf22cf" points="1012.1 690.22 1043.63 745.48 1043.96 681.85 1012.1 690.22"/><path class="uuid-94475c42-e391-491f-8773-2f5932178890" d="M1170.72,650.62c-66.08-162.43-132.16-324.87-198.24-487.3"/><polygon class="uuid-59e9daab-ea08-4f2f-974a-169f9ddf22cf" points="1181.75 634 1189.66 697.14 1151.23 646.42 1181.75 634"/><path class="uuid-94475c42-e391-491f-8773-2f5932178890" d="M1044.61,128.44c86.73,152.45,173.46,304.91,260.19,457.36"/><polygon class="uuid-59e9daab-ea08-4f2f-974a-169f9ddf22cf" points="1284.93 584.19 1329.63 629.47 1313.56 567.9 1284.93 584.19"/><line class="uuid-edbead67-9aa3-429f-a874-dfd3458687e9" x1="370.59" y1="133.83" x2="370.59" y2="604.8"/><polygon class="uuid-d7649097-824e-46e0-8f6c-7e75b160bb25" points="354.12 145.06 370.57 83.6 387.06 145.06 354.12 145.06"/><line class="uuid-edbead67-9aa3-429f-a874-dfd3458687e9" x1="438.59" y1="178.67" x2="438.59" y2="604.8"/><polygon class="uuid-d7649097-824e-46e0-8f6c-7e75b160bb25" points="422.11 189.9 438.57 128.44 455.06 189.9 422.11 189.9"/><line class="uuid-edbead67-9aa3-429f-a874-dfd3458687e9" x1="510.72" y1="213.54" x2="510.72" y2="604.8"/><polygon class="uuid-d7649097-824e-46e0-8f6c-7e75b160bb25" points="494.25 224.78 510.71 163.32 527.19 224.78 494.25 224.78"/><line class="uuid-edbead67-9aa3-429f-a874-dfd3458687e9" x1="585.96" y1="238.45" x2="585.96" y2="604.8"/><polygon class="uuid-d7649097-824e-46e0-8f6c-7e75b160bb25" points="569.49 249.69 585.95 188.23 602.43 249.69 569.49 249.69"/><line class="uuid-edbead67-9aa3-429f-a874-dfd3458687e9" x1="663.26" y1="253.4" x2="663.26" y2="604.8"/><polygon class="uuid-d7649097-824e-46e0-8f6c-7e75b160bb25" points="646.79 264.63 663.25 203.17 679.73 264.63 646.79 264.63"/><line class="uuid-edbead67-9aa3-429f-a874-dfd3458687e9" x1="741.6" y1="258.38" x2="741.6" y2="604.8"/><polygon class="uuid-d7649097-824e-46e0-8f6c-7e75b160bb25" points="725.13 269.62 741.59 208.16 758.07 269.62 725.13 269.62"/><line class="uuid-edbead67-9aa3-429f-a874-dfd3458687e9" x1="819.94" y1="253.4" x2="819.94" y2="604.8"/><polygon class="uuid-d7649097-824e-46e0-8f6c-7e75b160bb25" points="803.47 264.63 819.93 203.17 836.41 264.63 803.47 264.63"/><line class="uuid-edbead67-9aa3-429f-a874-dfd3458687e9" x1="897.24" y1="238.45" x2="897.24" y2="604.8"/><polygon class="uuid-d7649097-824e-46e0-8f6c-7e75b160bb25" points="880.77 249.69 897.23 188.23 913.71 249.69 880.77 249.69"/><line class="uuid-edbead67-9aa3-429f-a874-dfd3458687e9" x1="972.48" y1="213.54" x2="972.48" y2="604.8"/><polygon class="uuid-d7649097-824e-46e0-8f6c-7e75b160bb25" points="956.01 224.78 972.47 163.32 988.95 224.78 956.01 224.78"/><line class="uuid-edbead67-9aa3-429f-a874-dfd3458687e9" x1="1044.61" y1="178.67" x2="1044.61" y2="604.8"/><polygon class="uuid-d7649097-824e-46e0-8f6c-7e75b160bb25" points="1028.14 189.9 1044.6 128.44 1061.09 189.9 1028.14 189.9"/><line class="uuid-edbead67-9aa3-429f-a874-dfd3458687e9" x1="1112.61" y1="133.83" x2="1112.61" y2="604.8"/><polygon class="uuid-d7649097-824e-46e0-8f6c-7e75b160bb25" points="1096.14 145.06 1112.6 83.6 1129.08 145.06 1096.14 145.06"/></g><g id="uuid-73f6e7e0-0db1-4db3-a364-fa93621b3667"><path class="uuid-1b1b8381-343b-4bfc-84c3-45b53d5810f0" d="M370.59,69.85c-21.86-16.61-42.86-34.87-62.83-54.8,239.61,239.14,628.08,239.14,867.69,0-19.97,19.93-40.97,38.2-62.83,54.8"/><path class="uuid-1b1b8381-343b-4bfc-84c3-45b53d5810f0" d="M510.72,149.56c-24.62-9.96-48.72-21.59-72.14-34.87"/><path class="uuid-1b1b8381-343b-4bfc-84c3-45b53d5810f0" d="M663.26,189.42c-26-3.32-51.82-8.3-77.3-14.95"/><path class="uuid-1b1b8381-343b-4bfc-84c3-45b53d5810f0" d="M819.94,189.42c-26,3.32-52.17,4.98-78.34,4.98"/><path class="uuid-1b1b8381-343b-4bfc-84c3-45b53d5810f0" d="M972.48,149.56c-24.62,9.96-49.76,18.27-75.24,24.91"/></g></svg>