<?xml version="1.0" encoding="UTF-8"?>
<svg id="Ebene_5" data-name="Ebene 5" xmlns="http://www.w3.org/2000/svg" viewBox="0 0 540 540">
  <defs>
    <style>
      .cls-1 {
        stroke-width: 5.95px;
      }

      .cls-1, .cls-2, .cls-3, .cls-4, .cls-5, .cls-6, .cls-7, .cls-8, .cls-9, .cls-10, .cls-11, .cls-12, .cls-13, .cls-14, .cls-15, .cls-16, .cls-17, .cls-18, .cls-19, .cls-20, .cls-21, .cls-22, .cls-23, .cls-24, .cls-25, .cls-26, .cls-27, .cls-28 {
        stroke: #c9d1d9;
      }

      .cls-1, .cls-2, .cls-3, .cls-4, .cls-5, .cls-6, .cls-7, .cls-8, .cls-9, .cls-10, .cls-11, .cls-12, .cls-13, .cls-14, .cls-15, .cls-16, .cls-17, .cls-18, .cls-19, .cls-20, .cls-21, .cls-22, .cls-23, .cls-24, .cls-25, .cls-26, .cls-27, .cls-28, .cls-29 {
        fill: none;
        stroke-miterlimit: 10;
      }

      .cls-2 {
        stroke-width: .28px;
      }

      .cls-3 {
        stroke-width: 7.65px;
      }

      .cls-4 {
        stroke-width: .85px;
      }

      .cls-30 {
        fill: #307eef;
      }

      .cls-5 {
        stroke-width: 1.7px;
      }

      .cls-6 {
        stroke-width: 4.54px;
      }

      .cls-7 {
        stroke-width: 2.27px;
      }

      .cls-8 {
        stroke-width: 6.24px;
      }

      .cls-9 {
        stroke-width: 5.1px;
      }

      .cls-10 {
        stroke-width: 2.55px;
      }

      .cls-11 {
        stroke-width: 3.4px;
      }

      .cls-12 {
        stroke-width: 1.42px;
      }

      .cls-13 {
        stroke-width: 7.37px;
      }

      .cls-14 {
        stroke-width: 3.69px;
      }

      .cls-15 {
        stroke-width: 6.8px;
      }

      .cls-16 {
        stroke-width: 3.97px;
      }

      .cls-17 {
        stroke-width: 7.94px;
      }

      .cls-18 {
        stroke-width: .57px;
      }

      .cls-19 {
        stroke-width: 1.13px;
      }

      .cls-20 {
        stroke-width: 3.12px;
      }

      .cls-21 {
        stroke-width: 6.52px;
      }

      .cls-22 {
        stroke-width: 2.83px;
      }

      .cls-23 {
        stroke-width: 7.09px;
      }

      .cls-24 {
        stroke-width: 4.25px;
      }

      .cls-25 {
        stroke-width: 4.82px;
      }

      .cls-26 {
        stroke-width: 1.98px;
      }

      .cls-27 {
        stroke-width: 5.39px;
      }

      .cls-28 {
        stroke-width: 5.67px;
      }

      .cls-29 {
        stroke: #307eef;
        stroke-width: 5.67px;
      }
    </style>
  </defs>
  <rect class="cls-22" x="18" y="18" width="504" height="504"/>
  <rect class="cls-22" x="3.6" y="3.6" width="532.8" height="532.8"/>
  <circle class="cls-17" cx="270" cy="270" r="18"/>
  <circle class="cls-3" cx="270" cy="270" r="36"/>
  <circle class="cls-13" cx="270" cy="270" r="54"/>
  <circle class="cls-23" cx="270" cy="270" r="72"/>
  <circle class="cls-15" cx="270" cy="270" r="90"/>
  <circle class="cls-21" cx="270" cy="270" r="108"/>
  <circle class="cls-8" cx="270" cy="270" r="126"/>
  <circle class="cls-1" cx="270" cy="270" r="144"/>
  <circle class="cls-28" cx="270" cy="270" r="162"/>
  <circle class="cls-27" cx="270" cy="270" r="180"/>
  <circle class="cls-9" cx="270" cy="270" r="198"/>
  <circle class="cls-25" cx="270" cy="270" r="216"/>
  <circle class="cls-6" cx="270" cy="270" r="234"/>
  <circle class="cls-24" cx="270" cy="270" r="252"/>
  <path class="cls-16" d="m522,288c-9.94,0-18-8.06-18-18s8.06-18,18-18"/>
  <path class="cls-14" d="m522,306c-19.88,0-36-16.12-36-36s16.12-36,36-36"/>
  <path class="cls-11" d="m522,324c-29.82,0-54-24.18-54-54s24.18-54,54-54"/>
  <path class="cls-20" d="m522,342c-39.76,0-72-32.24-72-72s32.24-72,72-72"/>
  <path class="cls-22" d="m522,360c-49.71,0-90-40.29-90-90s40.29-90,90-90"/>
  <path class="cls-10" d="m522,378c-59.65,0-108-48.35-108-108s48.35-108,108-108"/>
  <path class="cls-7" d="m522,396c-69.59,0-126-56.41-126-126s56.41-126,126-126"/>
  <path class="cls-26" d="m522,414c-79.53,0-144-64.47-144-144s64.47-144,144-144"/>
  <path class="cls-5" d="m522,432c-89.47,0-162-72.53-162-162s72.53-162,162-162"/>
  <path class="cls-12" d="m522,450c-99.41,0-180-80.59-180-180s80.59-180,180-180"/>
  <path class="cls-19" d="m522,468c-109.35,0-198-88.65-198-198s88.65-198,198-198"/>
  <path class="cls-4" d="m522,486c-119.29,0-216-96.71-216-216s96.71-216,216-216"/>
  <path class="cls-18" d="m522,504c-129.23,0-234-104.77-234-234s104.77-234,234-234"/>
  <path class="cls-2" d="m522,522c-139.18,0-252-112.82-252-252S382.82,18,522,18"/>
  <path class="cls-16" d="m252,522c0-9.94,8.06-18,18-18s18,8.06,18,18"/>
  <path class="cls-14" d="m234,522c0-19.88,16.12-36,36-36s36,16.12,36,36"/>
  <path class="cls-11" d="m216,522c0-29.82,24.18-54,54-54s54,24.18,54,54"/>
  <path class="cls-20" d="m198,522c0-39.76,32.24-72,72-72s72,32.24,72,72"/>
  <path class="cls-22" d="m180,522c0-49.71,40.29-90,90-90s90,40.29,90,90"/>
  <path class="cls-10" d="m162,522c0-59.65,48.35-108,108-108s108,48.35,108,108"/>
  <path class="cls-7" d="m144,522c0-69.59,56.41-126,126-126s126,56.41,126,126"/>
  <path class="cls-26" d="m126,522c0-79.53,64.47-144,144-144s144,64.47,144,144"/>
  <path class="cls-5" d="m108,522c0-89.47,72.53-162,162-162s162,72.53,162,162"/>
  <path class="cls-12" d="m90,522c0-99.41,80.59-180,180-180s180,80.59,180,180"/>
  <path class="cls-19" d="m72,522c0-109.35,88.65-198,198-198s198,88.65,198,198"/>
  <path class="cls-4" d="m54,522c0-119.29,96.71-216,216-216s216,96.71,216,216"/>
  <path class="cls-18" d="m36,522c0-129.23,104.77-234,234-234s234,104.77,234,234"/>
  <path class="cls-2" d="m18,522c0-139.18,112.82-252,252-252s252,112.82,252,252"/>
  <path class="cls-16" d="m18,252c9.94,0,18,8.06,18,18s-8.06,18-18,18"/>
  <path class="cls-14" d="m18,234c19.88,0,36,16.12,36,36s-16.12,36-36,36"/>
  <path class="cls-11" d="m18,216c29.82,0,54,24.18,54,54s-24.18,54-54,54"/>
  <path class="cls-20" d="m18,198c39.76,0,72,32.24,72,72s-32.24,72-72,72"/>
  <path class="cls-22" d="m18,180c49.71,0,90,40.29,90,90s-40.29,90-90,90"/>
  <path class="cls-10" d="m18,162c59.65,0,108,48.35,108,108s-48.35,108-108,108"/>
  <path class="cls-7" d="m18,144c69.59,0,126,56.41,126,126s-56.41,126-126,126"/>
  <path class="cls-26" d="m18,126c79.53,0,144,64.47,144,144S97.53,414,18,414"/>
  <path class="cls-5" d="m18,108c89.47,0,162,72.53,162,162S107.47,432,18,432"/>
  <path class="cls-12" d="m18,90c99.41,0,180,80.59,180,180S117.41,450,18,450"/>
  <path class="cls-19" d="m18,72c109.35,0,198,88.65,198,198S127.35,468,18,468"/>
  <path class="cls-4" d="m18,54c119.29,0,216,96.71,216,216s-96.71,216-216,216"/>
  <path class="cls-18" d="m18,36c129.23,0,234,104.77,234,234s-104.77,234-234,234"/>
  <path class="cls-2" d="m18,18c139.18,0,252,112.82,252,252s-112.82,252-252,252"/>
  <path class="cls-16" d="m288,18c0,9.94-8.06,18-18,18s-18-8.06-18-18"/>
  <path class="cls-14" d="m306,18c0,19.88-16.12,36-36,36s-36-16.12-36-36"/>
  <path class="cls-11" d="m324,18c0,29.82-24.18,54-54,54s-54-24.18-54-54"/>
  <path class="cls-20" d="m342,18c0,39.76-32.24,72-72,72s-72-32.24-72-72"/>
  <path class="cls-22" d="m360,18c0,49.71-40.29,90-90,90s-90-40.29-90-90"/>
  <path class="cls-10" d="m378,18c0,59.65-48.35,108-108,108s-108-48.35-108-108"/>
  <path class="cls-7" d="m396,18c0,69.59-56.41,126-126,126s-126-56.41-126-126"/>
  <path class="cls-26" d="m414,18c0,79.53-64.47,144-144,144S126,97.53,126,18"/>
  <path class="cls-5" d="m432,18c0,89.47-72.53,162-162,162S108,107.47,108,18"/>
  <path class="cls-12" d="m450,18c0,99.41-80.59,180-180,180S90,117.41,90,18"/>
  <path class="cls-19" d="m468,18c0,109.35-88.65,198-198,198S72,127.35,72,18"/>
  <path class="cls-4" d="m486,18c0,119.29-96.71,216-216,216S54,137.29,54,18"/>
  <path class="cls-18" d="m504,18c0,129.23-104.77,234-234,234S36,147.23,36,18"/>
  <path class="cls-2" d="m522,18c0,139.18-112.82,252-252,252S18,157.18,18,18"/>
  <path class="cls-12" d="m522,36c-9.94,0-18-8.06-18-18"/>
  <path class="cls-19" d="m522,54c-19.88,0-36-16.12-36-36"/>
  <path class="cls-4" d="m522,72c-29.82,0-54-24.18-54-54"/>
  <path class="cls-18" d="m522,90c-39.76,0-72-32.24-72-72"/>
  <path class="cls-2" d="m522,108c-49.71,0-90-40.29-90-90"/>
  <path class="cls-12" d="m504,522c0-9.94,8.06-18,18-18"/>
  <path class="cls-19" d="m486,522c0-19.88,16.12-36,36-36"/>
  <path class="cls-4" d="m468,522c0-29.82,24.18-54,54-54"/>
  <path class="cls-18" d="m450,522c0-39.76,32.24-72,72-72"/>
  <path class="cls-2" d="m432,522c0-49.71,40.29-90,90-90"/>
  <path class="cls-12" d="m18,504c9.94,0,18,8.06,18,18"/>
  <path class="cls-19" d="m18,486c19.88,0,36,16.12,36,36"/>
  <path class="cls-4" d="m18,468c29.82,0,54,24.18,54,54"/>
  <path class="cls-18" d="m18,450c39.76,0,72,32.24,72,72"/>
  <path class="cls-2" d="m18,432c49.71,0,90,40.29,90,90"/>
  <path class="cls-12" d="m36,18c0,9.94-8.06,18-18,18"/>
  <path class="cls-19" d="m54,18c0,19.88-16.12,36-36,36"/>
  <path class="cls-4" d="m72,18c0,29.82-24.18,54-54,54"/>
  <path class="cls-18" d="m90,18c0,39.76-32.24,72-72,72"/>
  <path class="cls-2" d="m108,18c0,49.71-40.29,90-90,90"/>
  <g>
    <g>
      <line class="cls-29" x1="187.11" y1="270" x2="352.89" y2="270"/>
      <polygon class="cls-30" points="192.73 278.24 162 270.01 192.73 261.76 192.73 278.24"/>
      <polygon class="cls-30" points="347.27 278.24 378 270.01 347.27 261.76 347.27 278.24"/>
    </g>
    <g>
      <line class="cls-29" x1="270" y1="352.89" x2="270" y2="187.11"/>
      <polygon class="cls-30" points="278.24 347.27 270.01 378 261.76 347.27 278.24 347.27"/>
      <polygon class="cls-30" points="278.24 192.73 270.01 162 261.76 192.73 278.24 192.73"/>
    </g>
    <g>
      <line class="cls-29" x1="211.39" y1="328.61" x2="328.61" y2="211.39"/>
      <polygon class="cls-30" points="221.19 330.46 193.64 346.37 209.54 318.81 221.19 330.46"/>
      <polygon class="cls-30" points="330.46 221.19 346.37 193.64 318.81 209.54 330.46 221.19"/>
    </g>
    <g>
      <line class="cls-29" x1="328.61" y1="328.61" x2="211.39" y2="211.39"/>
      <polygon class="cls-30" points="330.46 318.81 346.37 346.36 318.81 330.46 330.46 318.81"/>
      <polygon class="cls-30" points="221.19 209.54 193.64 193.63 209.54 221.19 221.19 209.54"/>
    </g>
  </g>
</svg>