<?xml version="1.0" encoding="UTF-8"?><svg xmlns="http://www.w3.org/2000/svg" viewBox="0 0 806.4 504"><defs><style>.uuid-3051c16e-a3b1-4963-a37d-d63dfbd5369e{stroke:#307eef;}.uuid-3051c16e-a3b1-4963-a37d-d63dfbd5369e,.uuid-ac745436-a06c-49ec-a3cb-4bff188af13d,.uuid-5e880a1a-b4f9-4cc1-a9ee-91e218bddb79{fill:none;stroke-miterlimit:10;}.uuid-3051c16e-a3b1-4963-a37d-d63dfbd5369e,.uuid-5e880a1a-b4f9-4cc1-a9ee-91e218bddb79{stroke-width:5.67px;}.uuid-715b81a6-330b-48c7-be75-6b2e0fcf38c9{fill:#d85648;}.uuid-715b81a6-330b-48c7-be75-6b2e0fcf38c9,.uuid-4dfea4de-9867-4730-a705-6eda4b49c9cc,.uuid-1ef03f17-917d-46c0-8562-98191eabc2e8{stroke-width:0px;}.uuid-ac745436-a06c-49ec-a3cb-4bff188af13d{stroke:#7f7f7f;stroke-width:2.83px;}.uuid-4dfea4de-9867-4730-a705-6eda4b49c9cc{fill:#c9d1d9;}.uuid-1ef03f17-917d-46c0-8562-98191eabc2e8{fill:#307eef;}.uuid-5e880a1a-b4f9-4cc1-a9ee-91e218bddb79{stroke:#d85648;}</style></defs><g id="uuid-45c77c2b-a06a-4155-8ebd-20188679cdb4"><line class="uuid-5e880a1a-b4f9-4cc1-a9ee-91e218bddb79" x1="403.2" y1="144" x2="403.2" y2="309.77"/><polygon class="uuid-715b81a6-330b-48c7-be75-6b2e0fcf38c9" points="386.73 298.54 403.19 360 419.67 298.54 386.73 298.54"/><polygon class="uuid-ac745436-a06c-49ec-a3cb-4bff188af13d" points="161.28 14.4 106.3 106.04 135.9 106.04 135.9 92.95 145.8 92.95 145.8 102.87 198.88 14.4 161.28 14.4"/><polygon class="uuid-ac745436-a06c-49ec-a3cb-4bff188af13d" points="126.88 14.4 95.46 66.76 96.3 66.76 96.3 79.85 106.2 79.85 106.2 106.04 106.3 106.04 161.28 14.4 126.88 14.4"/><polygon class="uuid-ac745436-a06c-49ec-a3cb-4bff188af13d" points="54.88 14.4 7.75 92.95 17.1 92.95 17.1 119.13 26.44 119.13 27 118.2 27 79.85 50.01 79.85 89.28 14.4 54.88 14.4"/><polyline class="uuid-ac745436-a06c-49ec-a3cb-4bff188af13d" points="95.46 66.76 86.4 66.76 86.4 81.87"/><polygon class="uuid-ac745436-a06c-49ec-a3cb-4bff188af13d" points="89.28 14.4 50.01 79.85 56.7 79.85 56.7 131.37 86.4 81.87 86.4 66.76 95.46 66.76 126.88 14.4 89.28 14.4"/><polyline class="uuid-ac745436-a06c-49ec-a3cb-4bff188af13d" points="201.86 66.76 185.4 66.76 185.4 94.2"/><polygon class="uuid-ac745436-a06c-49ec-a3cb-4bff188af13d" points="233.28 14.4 201.86 66.76 205.2 66.76 205.2 123.87 270.88 14.4 233.28 14.4"/><polygon class="uuid-ac745436-a06c-49ec-a3cb-4bff188af13d" points="270.88 14.4 205.2 123.87 205.2 145.31 215.1 145.31 215.1 132.22 225 132.22 225 145.31 226.73 145.31 305.28 14.4 270.88 14.4"/><polygon class="uuid-ac745436-a06c-49ec-a3cb-4bff188af13d" points="198.88 14.4 145.8 102.87 145.8 106.04 145.8 119.13 165.6 119.13 170.44 119.13 185.4 94.2 185.4 66.76 201.86 66.76 233.28 14.4 198.88 14.4"/><polygon class="uuid-ac745436-a06c-49ec-a3cb-4bff188af13d" points="413.1 79.85 413.1 74.7 410.01 79.85 413.1 79.85"/><path class="uuid-ac745436-a06c-49ec-a3cb-4bff188af13d" d="M403.2,145.31v-54.11l-32.47,54.11h32.47Z"/><polygon class="uuid-ac745436-a06c-49ec-a3cb-4bff188af13d" points="541.8 119.13 551.7 119.13 551.7 83.7 541.8 100.2 541.8 119.13"/><polygon class="uuid-ac745436-a06c-49ec-a3cb-4bff188af13d" points="175.5 119.13 185.4 119.13 185.4 94.2 170.44 119.13 175.5 119.13"/><polygon class="uuid-ac745436-a06c-49ec-a3cb-4bff188af13d" points="56.7 132.22 76.5 132.22 76.5 119.13 86.4 119.13 86.4 106.04 86.4 81.87 56.7 131.37 56.7 132.22"/><polyline class="uuid-ac745436-a06c-49ec-a3cb-4bff188af13d" points="50.01 79.85 27 79.85 27 118.2"/><polygon class="uuid-ac745436-a06c-49ec-a3cb-4bff188af13d" points="17.28 14.4 7.2 31.2 7.2 92.95 7.75 92.95 54.88 14.4 17.28 14.4"/><polygon class="uuid-ac745436-a06c-49ec-a3cb-4bff188af13d" points="7.2 14.4 7.2 31.2 17.28 14.4 7.2 14.4"/><polygon class="uuid-ac745436-a06c-49ec-a3cb-4bff188af13d" points="27 119.13 27 118.2 26.44 119.13 27 119.13"/><path class="uuid-ac745436-a06c-49ec-a3cb-4bff188af13d" d="M342.88,14.4l-78.55,130.91h29.97v-39.27h28l54.98-91.64h-34.4Z"/><polygon class="uuid-ac745436-a06c-49ec-a3cb-4bff188af13d" points="305.28 14.4 226.73 145.31 234.9 145.31 234.9 132.22 254.7 132.22 254.7 145.31 264.33 145.31 342.88 14.4 305.28 14.4"/><path class="uuid-ac745436-a06c-49ec-a3cb-4bff188af13d" d="M558.88,14.4l-36.88,61.47v17.08h9.9v-13.09h9.9v20.35l9.9-16.5v-30.03h18.02l23.56-39.27h-34.4Z"/><polygon class="uuid-ac745436-a06c-49ec-a3cb-4bff188af13d" points="702.06 14.4 631.37 132.22 660.6 132.22 660.6 106.04 670.5 106.04 670.5 92.95 689.33 92.95 736.46 14.4 702.06 14.4"/><path class="uuid-ac745436-a06c-49ec-a3cb-4bff188af13d" d="M593.28,14.4l-23.56,39.27h1.78v59.69l59.38-98.97h-37.6Z"/><polygon class="uuid-ac745436-a06c-49ec-a3cb-4bff188af13d" points="664.46 14.4 585.91 145.31 591.3 145.31 591.3 158.4 611.1 158.4 611.1 132.22 631.37 132.22 702.06 14.4 664.46 14.4"/><polyline class="uuid-ac745436-a06c-49ec-a3cb-4bff188af13d" points="799.2 92.5 799.2 29.83 749.7 112.33 749.7 158.4 779.4 158.4 779.4 132.22 799.2 132.22 799.2 92.5"/><polygon class="uuid-ac745436-a06c-49ec-a3cb-4bff188af13d" points="799.2 14.4 774.06 14.4 711.22 119.13 720 119.13 720 132.22 729.9 132.22 729.9 106.04 749.7 106.04 749.7 112.33 799.2 29.83 799.2 14.4"/><polygon class="uuid-ac745436-a06c-49ec-a3cb-4bff188af13d" points="736.46 14.4 689.33 92.95 700.2 92.95 700.2 106.04 700.2 119.13 711.22 119.13 774.06 14.4 736.46 14.4"/><path class="uuid-ac745436-a06c-49ec-a3cb-4bff188af13d" d="M630.88,14.4l-59.38,98.97v31.94h14.41L664.46,14.4h-33.58Z"/><polyline class="uuid-ac745436-a06c-49ec-a3cb-4bff188af13d" points="417.86 66.76 413.1 66.76 413.1 74.7"/><path class="uuid-ac745436-a06c-49ec-a3cb-4bff188af13d" d="M414.88,14.4l-62.84,104.73h11.56v26.18h7.13l32.47-54.11v-11.35h6.81l3.09-5.15v-7.94h4.76l31.42-52.36h-34.4Z"/><path class="uuid-ac745436-a06c-49ec-a3cb-4bff188af13d" d="M410.01,79.85h-6.81v11.35"/><path class="uuid-ac745436-a06c-49ec-a3cb-4bff188af13d" d="M377.28,14.4l-54.98,91.64h11.6v13.09h18.14l62.84-104.73h-37.6Z"/><polygon class="uuid-ac745436-a06c-49ec-a3cb-4bff188af13d" points="486.88 14.4 439.75 92.95 442.8 92.95 442.8 106.04 452.7 106.04 452.7 92.95 462.6 92.95 462.6 79.85 472.5 79.85 472.5 66.76 489.86 66.76 521.28 14.4 486.88 14.4"/><polygon class="uuid-ac745436-a06c-49ec-a3cb-4bff188af13d" points="521.28 14.4 489.86 66.76 522 66.76 522 75.87 558.88 14.4 521.28 14.4"/><polygon class="uuid-ac745436-a06c-49ec-a3cb-4bff188af13d" points="449.28 14.4 417.86 66.76 432.9 66.76 432.9 92.95 439.75 92.95 486.88 14.4 449.28 14.4"/><path class="uuid-ac745436-a06c-49ec-a3cb-4bff188af13d" d="M569.72,53.67h-18.02v30.03"/><line class="uuid-5e880a1a-b4f9-4cc1-a9ee-91e218bddb79" x1="403.2" y1="144" x2="320.31" y2="287.56"/><polygon class="uuid-715b81a6-330b-48c7-be75-6b2e0fcf38c9" points="311.67 269.6 295.19 331.06 340.19 286.07 311.67 269.6"/><line class="uuid-5e880a1a-b4f9-4cc1-a9ee-91e218bddb79" x1="403.2" y1="144" x2="486.09" y2="287.56"/><polygon class="uuid-715b81a6-330b-48c7-be75-6b2e0fcf38c9" points="466.21 286.07 511.19 331.07 494.73 269.6 466.21 286.07"/><line class="uuid-5e880a1a-b4f9-4cc1-a9ee-91e218bddb79" x1="403.2" y1="144" x2="546.76" y2="226.89"/><polygon class="uuid-715b81a6-330b-48c7-be75-6b2e0fcf38c9" points="528.8 235.53 590.26 252.01 545.27 207.01 528.8 235.53"/><line class="uuid-5e880a1a-b4f9-4cc1-a9ee-91e218bddb79" x1="403.2" y1="144" x2="259.64" y2="226.89"/><polygon class="uuid-715b81a6-330b-48c7-be75-6b2e0fcf38c9" points="261.13 207.01 216.13 251.99 277.6 235.53 261.13 207.01"/><line class="uuid-3051c16e-a3b1-4963-a37d-d63dfbd5369e" x1="79.2" y1="410.4" x2="364.4" y2="175.9"/><polygon class="uuid-1ef03f17-917d-46c0-8562-98191eabc2e8" points="366.19 195.76 403.21 144.01 345.27 170.31 366.19 195.76"/></g><g id="uuid-116c1ca0-cce4-4db6-93a3-0989b4875462"><path class="uuid-4dfea4de-9867-4730-a705-6eda4b49c9cc" d="M347.19,388.8h-4.5v-34.12h4.5v34.12Z"/><path class="uuid-4dfea4de-9867-4730-a705-6eda4b49c9cc" d="M358.84,363.44l.14,3.19c1.94-2.44,4.47-3.66,7.59-3.66,5.36,0,8.06,3.02,8.11,9.07v16.76h-4.34v-16.78c-.02-1.83-.43-3.18-1.25-4.05s-2.1-1.31-3.83-1.31c-1.41,0-2.64.38-3.7,1.12s-1.89,1.73-2.48,2.95v18.07h-4.34v-25.36h4.1Z"/><path class="uuid-4dfea4de-9867-4730-a705-6eda4b49c9cc" d="M391.39,385.73c1.55,0,2.9-.47,4.05-1.41s1.8-2.11,1.92-3.52h4.1c-.08,1.45-.58,2.84-1.5,4.15s-2.15,2.36-3.69,3.14-3.17,1.17-4.89,1.17c-3.45,0-6.2-1.15-8.24-3.46s-3.06-5.46-3.06-9.46v-.73c0-2.47.45-4.66,1.36-6.59s2.21-3.41,3.9-4.48,3.7-1.59,6.01-1.59c2.84,0,5.21.85,7.09,2.55s2.89,3.91,3.01,6.63h-4.1c-.12-1.64-.75-2.99-1.86-4.04s-2.5-1.58-4.14-1.58c-2.2,0-3.91.79-5.12,2.38s-1.82,3.88-1.82,6.88v.82c0,2.92.6,5.17,1.8,6.75s2.92,2.37,5.16,2.37Z"/><path class="uuid-4dfea4de-9867-4730-a705-6eda4b49c9cc" d="M406.37,356.71c0-.7.21-1.3.64-1.78s1.07-.73,1.91-.73,1.48.24,1.92.73.66,1.08.66,1.78-.22,1.29-.66,1.76-1.08.7-1.92.7-1.48-.23-1.91-.7-.64-1.05-.64-1.76ZM411.06,388.8h-4.34v-25.36h4.34v25.36Z"/><path class="uuid-4dfea4de-9867-4730-a705-6eda4b49c9cc" d="M416.94,375.91c0-3.89.92-7.02,2.77-9.39s4.26-3.55,7.24-3.55,5.32,1.02,7.05,3.05v-13.22h4.34v36h-3.98l-.21-2.72c-1.73,2.12-4.15,3.19-7.24,3.19s-5.33-1.2-7.18-3.61-2.78-5.55-2.78-9.42v-.33ZM421.27,376.4c0,2.88.59,5.12,1.78,6.75s2.83,2.44,4.92,2.44c2.75,0,4.76-1.23,6.02-3.7v-11.65c-1.3-2.39-3.29-3.59-5.98-3.59-2.12,0-3.78.82-4.97,2.46s-1.78,4.07-1.78,7.29Z"/><path class="uuid-4dfea4de-9867-4730-a705-6eda4b49c9cc" d="M455.59,389.27c-3.44,0-6.23-1.13-8.39-3.39s-3.23-5.28-3.23-9.06v-.8c0-2.52.48-4.76,1.44-6.74s2.3-3.52,4.03-4.64,3.6-1.68,5.61-1.68c3.3,0,5.86,1.09,7.69,3.26s2.74,5.28,2.74,9.33v1.8h-17.18c.06,2.5.79,4.52,2.19,6.06s3.18,2.31,5.33,2.31c1.53,0,2.83-.31,3.89-.94s1.99-1.45,2.79-2.48l2.65,2.06c-2.12,3.27-5.31,4.9-9.56,4.9ZM455.05,366.53c-1.75,0-3.22.64-4.41,1.91s-1.92,3.06-2.2,5.36h12.7v-.33c-.12-2.2-.72-3.91-1.78-5.12s-2.5-1.82-4.31-1.82Z"/><path class="uuid-4dfea4de-9867-4730-a705-6eda4b49c9cc" d="M474.59,363.44l.14,3.19c1.94-2.44,4.47-3.66,7.59-3.66,5.36,0,8.06,3.02,8.11,9.07v16.76h-4.34v-16.78c-.02-1.83-.43-3.18-1.25-4.05s-2.1-1.31-3.83-1.31c-1.41,0-2.64.38-3.7,1.12s-1.89,1.73-2.48,2.95v18.07h-4.34v-25.36h4.1Z"/><path class="uuid-4dfea4de-9867-4730-a705-6eda4b49c9cc" d="M502.86,357.3v6.14h4.73v3.35h-4.73v15.75c0,1.02.21,1.78.63,2.29.42.51,1.14.76,2.16.76.5,0,1.19-.09,2.06-.28v3.5c-1.14.31-2.25.47-3.33.47-1.94,0-3.4-.59-4.38-1.76s-1.48-2.84-1.48-4.99v-15.73h-4.62v-3.35h4.62v-6.14h4.34Z"/><path class="uuid-4dfea4de-9867-4730-a705-6eda4b49c9cc" d="M546.99,382.82l4.88-19.38h4.34l-7.38,25.36h-3.52l-6.16-19.22-6,19.22h-3.52l-7.36-25.36h4.31l4.99,18.98,5.91-18.98h3.49l6.02,19.38Z"/><path class="uuid-4dfea4de-9867-4730-a705-6eda4b49c9cc" d="M576.27,388.8c-.25-.5-.45-1.39-.61-2.67-2.02,2.09-4.42,3.14-7.22,3.14-2.5,0-4.55-.71-6.15-2.12s-2.4-3.21-2.4-5.38c0-2.64,1-4.69,3.01-6.15s4.83-2.19,8.47-2.19h4.22v-1.99c0-1.52-.45-2.72-1.36-3.62s-2.24-1.35-4.01-1.35c-1.55,0-2.84.39-3.89,1.17s-1.57,1.73-1.57,2.84h-4.36c0-1.27.45-2.49,1.35-3.67s2.12-2.11,3.66-2.8,3.23-1.03,5.07-1.03c2.92,0,5.21.73,6.87,2.19s2.52,3.47,2.58,6.04v11.67c0,2.33.3,4.18.89,5.55v.38h-4.55ZM569.07,385.5c1.36,0,2.65-.35,3.87-1.05s2.1-1.62,2.65-2.74v-5.2h-3.4c-5.31,0-7.97,1.55-7.97,4.66,0,1.36.45,2.42,1.36,3.19s2.07,1.15,3.49,1.15Z"/><path class="uuid-4dfea4de-9867-4730-a705-6eda4b49c9cc" d="M594.74,382.92l6.28-19.48h4.43l-9.09,25.36h-3.3l-9.19-25.36h4.43l6.45,19.48Z"/><path class="uuid-4dfea4de-9867-4730-a705-6eda4b49c9cc" d="M619.84,389.27c-3.44,0-6.23-1.13-8.39-3.39s-3.23-5.28-3.23-9.06v-.8c0-2.52.48-4.76,1.44-6.74s2.3-3.52,4.03-4.64,3.6-1.68,5.61-1.68c3.3,0,5.86,1.09,7.69,3.26s2.74,5.28,2.74,9.33v1.8h-17.18c.06,2.5.79,4.52,2.19,6.06s3.18,2.31,5.33,2.31c1.53,0,2.83-.31,3.89-.94s1.99-1.45,2.79-2.48l2.65,2.06c-2.12,3.27-5.31,4.9-9.56,4.9ZM619.3,366.53c-1.75,0-3.22.64-4.41,1.91s-1.92,3.06-2.2,5.36h12.7v-.33c-.12-2.2-.72-3.91-1.78-5.12s-2.5-1.82-4.31-1.82Z"/><path class="uuid-4dfea4de-9867-4730-a705-6eda4b49c9cc" d="M646.65,356.71c0-.7.21-1.3.64-1.78s1.07-.73,1.91-.73,1.48.24,1.92.73.66,1.08.66,1.78-.22,1.29-.66,1.76-1.08.7-1.92.7-1.48-.23-1.91-.7-.64-1.05-.64-1.76ZM651.34,388.8h-4.34v-25.36h4.34v25.36Z"/><path class="uuid-4dfea4de-9867-4730-a705-6eda4b49c9cc" d="M673.04,382.07c0-1.17-.44-2.08-1.32-2.73s-2.42-1.21-4.62-1.68-3.94-1.03-5.23-1.69-2.24-1.44-2.86-2.34-.93-1.98-.93-3.23c0-2.08.88-3.84,2.64-5.27s4-2.16,6.74-2.16c2.88,0,5.21.74,7,2.23s2.68,3.38,2.68,5.7h-4.36c0-1.19-.5-2.21-1.51-3.07s-2.28-1.29-3.81-1.29-2.81.34-3.7,1.03-1.34,1.59-1.34,2.7c0,1.05.41,1.84,1.24,2.37s2.32,1.04,4.49,1.52,3.92,1.06,5.26,1.73,2.34,1.48,2.99,2.43.97,2.1.97,3.46c0,2.27-.91,4.08-2.72,5.45s-4.16,2.05-7.05,2.05c-2.03,0-3.83-.36-5.39-1.08s-2.79-1.72-3.67-3.01-1.32-2.68-1.32-4.18h4.34c.08,1.45.66,2.61,1.75,3.46s2.52,1.28,4.3,1.28c1.64,0,2.96-.33,3.95-1s1.49-1.55,1.49-2.66Z"/><path class="uuid-4dfea4de-9867-4730-a705-6eda4b49c9cc" d="M353.94,424.93c-.66-.11-1.37-.16-2.13-.16-2.84,0-4.77,1.21-5.79,3.63v18h-4.34v-25.36h4.22l.07,2.93c1.42-2.27,3.44-3.4,6.05-3.4.84,0,1.48.11,1.92.33v4.03Z"/><path class="uuid-4dfea4de-9867-4730-a705-6eda4b49c9cc" d="M372.64,446.4c-.25-.5-.45-1.39-.61-2.67-2.02,2.09-4.42,3.14-7.22,3.14-2.5,0-4.55-.71-6.15-2.12s-2.4-3.21-2.4-5.38c0-2.64,1-4.69,3.01-6.15s4.83-2.19,8.47-2.19h4.22v-1.99c0-1.52-.45-2.72-1.36-3.62s-2.24-1.35-4.01-1.35c-1.55,0-2.84.39-3.89,1.17s-1.57,1.73-1.57,2.84h-4.36c0-1.27.45-2.49,1.35-3.67s2.12-2.11,3.66-2.8,3.23-1.03,5.07-1.03c2.92,0,5.21.73,6.87,2.19s2.52,3.47,2.58,6.04v11.67c0,2.33.3,4.18.89,5.55v.38h-4.55ZM365.45,443.09c1.36,0,2.65-.35,3.87-1.05s2.1-1.62,2.65-2.74v-5.2h-3.4c-5.31,0-7.97,1.55-7.97,4.66,0,1.36.45,2.42,1.36,3.19s2.07,1.15,3.49,1.15Z"/><path class="uuid-4dfea4de-9867-4730-a705-6eda4b49c9cc" d="M387.2,421.04l.14,3.19c1.94-2.44,4.47-3.66,7.59-3.66,5.36,0,8.06,3.02,8.11,9.07v16.76h-4.34v-16.78c-.02-1.83-.43-3.18-1.25-4.05s-2.1-1.31-3.83-1.31c-1.41,0-2.64.38-3.7,1.12s-1.89,1.73-2.48,2.95v18.07h-4.34v-25.36h4.1Z"/><path class="uuid-4dfea4de-9867-4730-a705-6eda4b49c9cc" d="M408.52,433.51c0-3.89.92-7.02,2.77-9.39s4.26-3.55,7.24-3.55,5.32,1.02,7.05,3.05v-13.22h4.34v36h-3.98l-.21-2.72c-1.73,2.12-4.15,3.19-7.24,3.19s-5.33-1.2-7.18-3.61-2.78-5.55-2.78-9.42v-.33ZM412.86,434c0,2.88.59,5.12,1.78,6.75s2.83,2.44,4.92,2.44c2.75,0,4.76-1.23,6.02-3.7v-11.65c-1.3-2.39-3.29-3.59-5.98-3.59-2.12,0-3.78.82-4.97,2.46s-1.78,4.07-1.78,7.29Z"/><path class="uuid-4dfea4de-9867-4730-a705-6eda4b49c9cc" d="M435.5,433.49c0-2.48.49-4.72,1.46-6.7s2.34-3.52,4.08-4.59,3.73-1.62,5.96-1.62c3.45,0,6.25,1.2,8.38,3.59s3.2,5.57,3.2,9.54v.3c0,2.47-.47,4.68-1.42,6.64s-2.3,3.49-4.05,4.58-3.78,1.64-6.06,1.64c-3.44,0-6.22-1.2-8.36-3.59s-3.2-5.55-3.2-9.49v-.3ZM439.86,434c0,2.81.65,5.07,1.96,6.77s3.05,2.55,5.24,2.55,3.95-.86,5.25-2.59,1.95-4.14,1.95-7.25c0-2.78-.66-5.04-1.98-6.76s-3.07-2.59-5.26-2.59-3.87.85-5.18,2.55-1.97,4.14-1.97,7.31Z"/><path class="uuid-4dfea4de-9867-4730-a705-6eda4b49c9cc" d="M468.1,421.04l.12,2.81c1.86-2.19,4.37-3.28,7.52-3.28,3.55,0,5.96,1.36,7.24,4.08.84-1.22,1.94-2.2,3.29-2.95s2.95-1.12,4.79-1.12c5.56,0,8.39,2.95,8.48,8.84v16.99h-4.34v-16.73c0-1.81-.41-3.17-1.24-4.07s-2.22-1.35-4.17-1.35c-1.61,0-2.95.48-4.01,1.44s-1.68,2.25-1.85,3.88v16.83h-4.36v-16.62c0-3.69-1.8-5.53-5.41-5.53-2.84,0-4.79,1.21-5.84,3.63v18.52h-4.34v-25.36h4.1Z"/><path class="uuid-4dfea4de-9867-4730-a705-6eda4b49c9cc" d="M510.81,446.4h-4.34v-36h4.34v36Z"/><path class="uuid-4dfea4de-9867-4730-a705-6eda4b49c9cc" d="M526.04,440.05l5.91-19.01h4.64l-10.2,29.27c-1.58,4.22-4.09,6.33-7.52,6.33l-.82-.07-1.62-.3v-3.52l1.17.09c1.47,0,2.61-.3,3.43-.89s1.5-1.68,2.03-3.26l.96-2.58-9.05-25.08h4.73l6.33,19.01Z"/><path class="uuid-4dfea4de-9867-4730-a705-6eda4b49c9cc" d="M567.1,439.67c0-1.17-.44-2.08-1.32-2.73s-2.42-1.21-4.62-1.68-3.94-1.03-5.23-1.69-2.24-1.44-2.86-2.34-.93-1.98-.93-3.23c0-2.08.88-3.84,2.64-5.27s4-2.16,6.74-2.16c2.88,0,5.21.74,7,2.23s2.68,3.38,2.68,5.7h-4.36c0-1.19-.5-2.21-1.51-3.07s-2.28-1.29-3.81-1.29-2.81.34-3.7,1.03-1.34,1.59-1.34,2.7c0,1.05.41,1.84,1.24,2.37s2.32,1.04,4.49,1.52,3.92,1.06,5.26,1.73,2.34,1.48,2.99,2.43.97,2.1.97,3.46c0,2.27-.91,4.08-2.72,5.45s-4.16,2.05-7.05,2.05c-2.03,0-3.83-.36-5.39-1.08s-2.79-1.72-3.67-3.01-1.32-2.68-1.32-4.18h4.34c.08,1.45.66,2.61,1.75,3.46s2.52,1.28,4.3,1.28c1.64,0,2.96-.33,3.95-1s1.49-1.55,1.49-2.66Z"/><path class="uuid-4dfea4de-9867-4730-a705-6eda4b49c9cc" d="M587.26,443.33c1.55,0,2.9-.47,4.05-1.41s1.8-2.11,1.92-3.52h4.1c-.08,1.45-.58,2.84-1.5,4.15s-2.15,2.36-3.69,3.14-3.17,1.17-4.89,1.17c-3.45,0-6.2-1.15-8.24-3.46s-3.06-5.46-3.06-9.46v-.73c0-2.47.45-4.66,1.36-6.59s2.21-3.41,3.9-4.48,3.7-1.59,6.01-1.59c2.84,0,5.21.85,7.09,2.55s2.89,3.91,3.01,6.63h-4.1c-.12-1.64-.75-2.99-1.86-4.04s-2.5-1.58-4.14-1.58c-2.2,0-3.91.79-5.12,2.38s-1.82,3.88-1.82,6.88v.82c0,2.92.6,5.17,1.8,6.75s2.92,2.37,5.16,2.37Z"/><path class="uuid-4dfea4de-9867-4730-a705-6eda4b49c9cc" d="M617.87,446.4c-.25-.5-.45-1.39-.61-2.67-2.02,2.09-4.42,3.14-7.22,3.14-2.5,0-4.55-.71-6.15-2.12s-2.4-3.21-2.4-5.38c0-2.64,1-4.69,3.01-6.15s4.83-2.19,8.47-2.19h4.22v-1.99c0-1.52-.45-2.72-1.36-3.62s-2.24-1.35-4.01-1.35c-1.55,0-2.84.39-3.89,1.17s-1.57,1.73-1.57,2.84h-4.36c0-1.27.45-2.49,1.35-3.67s2.12-2.11,3.66-2.8,3.23-1.03,5.07-1.03c2.92,0,5.21.73,6.87,2.19s2.52,3.47,2.58,6.04v11.67c0,2.33.3,4.18.89,5.55v.38h-4.55ZM610.67,443.09c1.36,0,2.65-.35,3.87-1.05s2.1-1.62,2.65-2.74v-5.2h-3.4c-5.31,0-7.97,1.55-7.97,4.66,0,1.36.45,2.42,1.36,3.19s2.07,1.15,3.49,1.15Z"/><path class="uuid-4dfea4de-9867-4730-a705-6eda4b49c9cc" d="M634.2,414.9v6.14h4.73v3.35h-4.73v15.75c0,1.02.21,1.78.63,2.29.42.51,1.14.76,2.16.76.5,0,1.19-.09,2.06-.28v3.5c-1.14.31-2.25.47-3.33.47-1.94,0-3.4-.59-4.38-1.76s-1.48-2.84-1.48-4.99v-15.73h-4.62v-3.35h4.62v-6.14h4.34Z"/><path class="uuid-4dfea4de-9867-4730-a705-6eda4b49c9cc" d="M649.88,414.9v6.14h4.73v3.35h-4.73v15.75c0,1.02.21,1.78.63,2.29.42.51,1.14.76,2.16.76.5,0,1.19-.09,2.06-.28v3.5c-1.14.31-2.25.47-3.33.47-1.94,0-3.4-.59-4.38-1.76s-1.48-2.84-1.48-4.99v-15.73h-4.62v-3.35h4.62v-6.14h4.34Z"/><path class="uuid-4dfea4de-9867-4730-a705-6eda4b49c9cc" d="M670.2,446.87c-3.44,0-6.23-1.13-8.39-3.39s-3.23-5.28-3.23-9.06v-.8c0-2.52.48-4.76,1.44-6.74s2.3-3.52,4.03-4.64,3.6-1.68,5.61-1.68c3.3,0,5.86,1.09,7.69,3.26s2.74,5.28,2.74,9.33v1.8h-17.18c.06,2.5.79,4.52,2.19,6.06s3.18,2.31,5.33,2.31c1.53,0,2.83-.31,3.89-.94s1.99-1.45,2.79-2.48l2.65,2.06c-2.12,3.27-5.31,4.9-9.56,4.9ZM669.66,424.13c-1.75,0-3.22.64-4.41,1.91s-1.92,3.06-2.2,5.36h12.7v-.33c-.12-2.2-.72-3.91-1.78-5.12s-2.5-1.82-4.31-1.82Z"/><path class="uuid-4dfea4de-9867-4730-a705-6eda4b49c9cc" d="M697.37,424.93c-.66-.11-1.37-.16-2.13-.16-2.84,0-4.77,1.21-5.79,3.63v18h-4.34v-25.36h4.22l.07,2.93c1.42-2.27,3.44-3.4,6.05-3.4.84,0,1.48.11,1.92.33v4.03Z"/><path class="uuid-4dfea4de-9867-4730-a705-6eda4b49c9cc" d="M711.43,446.87c-3.44,0-6.23-1.13-8.39-3.39s-3.23-5.28-3.23-9.06v-.8c0-2.52.48-4.76,1.44-6.74s2.3-3.52,4.03-4.64,3.6-1.68,5.61-1.68c3.3,0,5.86,1.09,7.69,3.26s2.74,5.28,2.74,9.33v1.8h-17.18c.06,2.5.79,4.52,2.19,6.06s3.18,2.31,5.33,2.31c1.53,0,2.83-.31,3.89-.94s1.99-1.45,2.79-2.48l2.65,2.06c-2.12,3.27-5.31,4.9-9.56,4.9ZM710.89,424.13c-1.75,0-3.22.64-4.41,1.91s-1.92,3.06-2.2,5.36h12.7v-.33c-.12-2.2-.72-3.91-1.78-5.12s-2.5-1.82-4.31-1.82Z"/><path class="uuid-4dfea4de-9867-4730-a705-6eda4b49c9cc" d="M725.28,433.51c0-3.89.92-7.02,2.77-9.39s4.26-3.55,7.24-3.55,5.32,1.02,7.05,3.05v-13.22h4.34v36h-3.98l-.21-2.72c-1.73,2.12-4.15,3.19-7.24,3.19s-5.33-1.2-7.18-3.61-2.78-5.55-2.78-9.42v-.33ZM729.62,434c0,2.88.59,5.12,1.78,6.75s2.83,2.44,4.92,2.44c2.75,0,4.76-1.23,6.02-3.7v-11.65c-1.3-2.39-3.29-3.59-5.98-3.59-2.12,0-3.78.82-4.97,2.46s-1.78,4.07-1.78,7.29Z"/><path class="uuid-4dfea4de-9867-4730-a705-6eda4b49c9cc" d="M753.5,444.13c0-.75.22-1.38.67-1.88s1.11-.75,2-.75,1.57.25,2.03.75.69,1.12.69,1.88-.23,1.32-.69,1.8-1.14.73-2.03.73-1.56-.24-2-.73-.67-1.09-.67-1.8Z"/></g></svg>