<?xml version="1.0" encoding="UTF-8"?>
<svg id="Ebene_5" data-name="Ebene 5" xmlns="http://www.w3.org/2000/svg" width="511.2" height="511.2" viewBox="0 0 511.2 511.2">
  <g>
    <circle cx="255.6" cy="255.6" r="18" fill="none" stroke="#c9d1d9" stroke-miterlimit="10" stroke-width="3.97"/>
    <circle cx="255.6" cy="255.6" r="36" fill="none" stroke="#c9d1d9" stroke-miterlimit="10" stroke-width="3.69"/>
    <circle cx="255.6" cy="255.6" r="54" fill="none" stroke="#c9d1d9" stroke-miterlimit="10" stroke-width="3.4"/>
    <circle cx="255.6" cy="255.6" r="72" fill="none" stroke="#c9d1d9" stroke-miterlimit="10" stroke-width="3.12"/>
    <circle cx="255.6" cy="255.6" r="90" fill="none" stroke="#c9d1d9" stroke-miterlimit="10" stroke-width="2.83"/>
    <circle cx="255.6" cy="255.6" r="108" fill="none" stroke="#c9d1d9" stroke-miterlimit="10" stroke-width="2.55"/>
    <circle cx="255.6" cy="255.6" r="126" fill="none" stroke="#c9d1d9" stroke-miterlimit="10" stroke-width="2.27"/>
    <circle cx="255.6" cy="255.6" r="144" fill="none" stroke="#c9d1d9" stroke-miterlimit="10" stroke-width="1.98"/>
    <circle cx="255.6" cy="255.6" r="162" fill="none" stroke="#c9d1d9" stroke-miterlimit="10" stroke-width="1.7"/>
    <circle cx="255.6" cy="255.6" r="180" fill="none" stroke="#c9d1d9" stroke-miterlimit="10" stroke-width="1.42"/>
    <circle cx="255.6" cy="255.6" r="198" fill="none" stroke="#c9d1d9" stroke-miterlimit="10" stroke-width="1.13"/>
    <circle cx="255.6" cy="255.6" r="216" fill="none" stroke="#c9d1d9" stroke-miterlimit="10" stroke-width=".85"/>
    <circle cx="255.6" cy="255.6" r="234" fill="none" stroke="#c9d1d9" stroke-miterlimit="10" stroke-width=".57"/>
    <circle cx="255.6" cy="255.6" r="252" fill="none" stroke="#c9d1d9" stroke-miterlimit="10" stroke-width=".28"/>
  </g>
  <g>
    <g>
      <line x1="172.71" y1="255.6" x2="338.49" y2="255.6" fill="none" stroke="#307eef" stroke-miterlimit="10" stroke-width="5.67"/>
      <polygon points="178.33 263.84 147.6 255.61 178.33 247.36 178.33 263.84" fill="#307eef"/>
      <polygon points="332.87 263.84 363.6 255.61 332.87 247.36 332.87 263.84" fill="#307eef"/>
    </g>
    <g>
      <line x1="255.6" y1="338.49" x2="255.6" y2="172.71" fill="none" stroke="#307eef" stroke-miterlimit="10" stroke-width="5.67"/>
      <polygon points="263.84 332.87 255.61 363.6 247.36 332.87 263.84 332.87" fill="#307eef"/>
      <polygon points="263.84 178.33 255.61 147.6 247.36 178.33 263.84 178.33" fill="#307eef"/>
    </g>
    <g>
      <line x1="196.99" y1="314.21" x2="314.21" y2="196.99" fill="none" stroke="#307eef" stroke-miterlimit="10" stroke-width="5.67"/>
      <polygon points="206.79 316.06 179.24 331.97 195.14 304.41 206.79 316.06" fill="#307eef"/>
      <polygon points="316.06 206.79 331.97 179.24 304.41 195.14 316.06 206.79" fill="#307eef"/>
    </g>
    <g>
      <line x1="314.21" y1="314.21" x2="196.99" y2="196.99" fill="none" stroke="#307eef" stroke-miterlimit="10" stroke-width="5.67"/>
      <polygon points="316.06 304.41 331.97 331.96 304.41 316.06 316.06 304.41" fill="#307eef"/>
      <polygon points="206.79 195.14 179.24 179.23 195.14 206.79 206.79 195.14" fill="#307eef"/>
    </g>
  </g>
</svg>