<?xml version="1.0" encoding="UTF-8"?>
<svg id="Ebene_1" data-name="Ebene 1" xmlns="http://www.w3.org/2000/svg" width="851.4" height="750.6" viewBox="0 0 851.4 750.6">
  <g id="Text">
    <g isolation="isolate">
      <path d="m109.9,730.8v-3.3h4.5v-27.2h-4.5v-3.3h13.2v3.3h-4.5v27.2h4.5v3.3h-13.2Z" fill="#c9d1d9"/>
    </g>
    <g isolation="isolate">
      <path d="m122.2,746.8v-1.9h2.6v-15.8h-2.6v-1.9h7.6v1.9h-2.6v15.8h2.6v1.9h-7.6Z" fill="#c9d1d9"/>
      <path d="m133.1,746.8v-14.7h2.1v3.3l-.1-.6c.4-.8,1-1.6,1.8-2.2s1.9-.9,3.1-.9c1,0,1.9.2,2.7.7s1.3,1.1,1.7,2,.6,1.9.6,3.1v9.2h-2.3v-9.1c0-1.2-.2-2.2-.7-2.9s-1.3-1.1-2.4-1.1c-1.2,0-2.2.5-3.1,1.4-.8.9-1.2,2.3-1.2,4v7.7h-2.2v.1Z" fill="#c9d1d9"/>
    </g>
    <g isolation="isolate">
      <path d="m486.1,538.2v-3.3h4.5v-27.2h-4.5v-3.3h13.2v3.3h-4.5v27.2h4.5v3.3h-13.2Z" fill="#c9d1d9"/>
    </g>
    <g isolation="isolate">
      <path d="m499.5,554.2v-19.6h5.9c2.3,0,4.2.4,5.7,1.2,1.5.8,2.6,1.9,3.3,3.3s1.1,3.2,1.1,5.1c0,2.2-.4,4.1-1.3,5.6-.8,1.5-2,2.6-3.5,3.3s-3.3,1.1-5.4,1.1h-5.8Zm2.4-2h3c5.2,0,7.8-2.6,7.8-7.8,0-1.6-.3-3-.8-4.1s-1.3-2.1-2.4-2.7c-1.1-.6-2.6-1-4.4-1h-3.2v15.6h0Z" fill="#c9d1d9"/>
      <path d="m520,537c-.5,0-1-.2-1.3-.6-.4-.4-.6-.8-.6-1.3s.2-1,.6-1.4.8-.6,1.3-.6,1,.2,1.4.6c.4.4.6.8.6,1.4,0,.5-.2,1-.6,1.3-.4.5-.8.6-1.4.6Zm-1.1,17.2v-14.7h2.3v14.7h-2.3Z" fill="#c9d1d9"/>
      <path d="m530.5,554.5c-1.1,0-2-.2-2.9-.5s-1.6-.9-2.2-1.6c-.6-.7-1-1.6-1.1-2.7l2.4-.5c.1,1.2.5,2,1.2,2.6s1.5.8,2.6.8c1,0,1.8-.3,2.4-.8s.9-1.1.9-1.9c0-.6-.2-1.1-.6-1.5-.4-.4-1.1-.6-1.9-.8l-1.8-.3c-.5-.1-1-.2-1.5-.4s-1-.4-1.4-.7-.8-.7-1.1-1.1c-.3-.5-.4-1.1-.4-1.8,0-1,.3-1.7.8-2.4.5-.6,1.2-1.1,2-1.4.8-.3,1.7-.4,2.7-.4,1.1,0,2,.2,2.7.5.8.3,1.4.8,1.9,1.4.5.6.8,1.3,1,2.2l-2.5.5c-.1-.6-.2-1-.4-1.4s-.6-.7-1-.9-1-.3-1.7-.3c-.8,0-1.6.2-2.2.5-.6.4-.9.9-.9,1.6,0,.4.1.7.3,1s.5.5.9.7.9.3,1.6.5l1.8.4c.8.2,1.5.4,2.1.7s1.2.7,1.5,1.3c.4.5.6,1.2.6,2.1,0,1-.2,1.8-.7,2.5s-1.2,1.2-2,1.6c-1,.3-2,.5-3.1.5Z" fill="#c9d1d9"/>
    </g>
    <g isolation="isolate">
      <path d="m694.9,457.2v-3.3h4.5v-27.2h-4.5v-3.3h13.2v3.3h-4.5v27.2h4.5v3.3h-13.2Z" fill="#c9d1d9"/>
    </g>
    <g isolation="isolate">
      <path d="m713.8,473.2v-17.6h-7v-2h16.5v2h-7v17.6h-2.5Z" fill="#c9d1d9"/>
    </g>
    <g isolation="isolate">
      <path d="m723.9,473.2v-14.7h2.1v3.1l-.1-.4c.4-1,1.1-1.8,2-2.3s1.8-.8,2.7-.8c.3,0,.5,0,.8.1s.5.1.7.2l-.3,2.1c-.5-.2-1-.2-1.5-.2-.3,0-.7.1-1.1.2s-.9.4-1.4.7c-.4.4-.8.9-1.1,1.6s-.5,1.7-.5,2.9v7.3h-2.3v.2Z" fill="#c9d1d9"/>
    </g>
    <g isolation="isolate">
      <path d="m736.5,473.5c-1,0-1.8-.2-2.5-.6s-1.3-.9-1.7-1.5c-.4-.7-.6-1.4-.6-2.2,0-.9.3-1.7.8-2.4.5-.7,1.3-1.3,2.4-1.8,1.1-.4,2.5-.7,4.2-.7h2.4l-.2.2v-.8c0-1.2-.2-2.1-.7-2.7s-1.3-.9-2.4-.9c-1,0-1.8.3-2.4.8-.6.5-.9,1.3-.9,2.2l-2.6-.6c.1-.8.4-1.5.9-2.2.5-.6,1.2-1.2,2.1-1.6.9-.4,1.9-.6,3-.6,1.2,0,2.2.2,2.9.7.7.4,1.3,1.1,1.7,1.9s.5,1.9.5,3v6.7c0,.3,0,.5.1.6s.3.1.6.1h.8v1.9h-1.5c-.6,0-1.1-.2-1.5-.6s-.6-.9-.6-1.5v-1h.3c-.1.4-.4.8-.6,1.2-.3.4-.6.8-1,1.1s-.9.6-1.5.8-1.2.5-2,.5Zm.5-1.9c.8,0,1.4-.2,2.1-.6.6-.4,1.2-1,1.6-1.7.4-.8.6-1.8.6-3.1v-.1h-2.3c-1.2,0-2.2.2-2.8.5s-1.2.7-1.5,1.2-.4.9-.4,1.4.1.9.3,1.2c.2.4.5.7.9.9.4.2.9.3,1.5.3Z" fill="#c9d1d9"/>
      <path d="m748.1,473.2v-14.7h2.1v3.3l-.1-.6c.4-.8,1-1.6,1.8-2.2s1.9-.9,3.1-.9c1,0,1.9.2,2.7.7s1.3,1.1,1.7,2,.6,1.9.6,3.1v9.2h-2.3v-9.1c0-1.2-.2-2.2-.7-2.9s-1.3-1.1-2.4-1.1c-1.2,0-2.2.5-3.1,1.4-.8.9-1.2,2.3-1.2,4v7.7h-2.2v.1Z" fill="#c9d1d9"/>
      <path d="m769.2,473.5c-1.1,0-2-.2-2.9-.5s-1.6-.9-2.2-1.6c-.6-.7-1-1.6-1.1-2.7l2.4-.5c.1,1.2.5,2,1.2,2.6s1.5.8,2.6.8c1,0,1.8-.3,2.4-.8s.9-1.1.9-1.9c0-.6-.2-1.1-.6-1.5-.4-.4-1.1-.6-1.9-.8l-1.8-.3c-.5-.1-1-.2-1.5-.4s-1-.4-1.4-.7c-.4-.3-.8-.7-1.1-1.1-.3-.5-.4-1.1-.4-1.8,0-1,.3-1.7.8-2.4.5-.6,1.2-1.1,2-1.4s1.7-.4,2.7-.4c1.1,0,2,.2,2.7.5.8.3,1.4.8,1.9,1.4s.8,1.3,1,2.2l-2.5.5c-.1-.6-.2-1-.4-1.4s-.6-.7-1-.9c-.4-.2-1-.3-1.7-.3-.8,0-1.6.2-2.2.5-.6.4-.9.9-.9,1.6,0,.4.1.7.3,1s.5.5.9.7.9.3,1.6.5l1.8.4c.8.2,1.5.4,2.1.7.6.3,1.2.7,1.5,1.3.4.5.6,1.2.6,2.1,0,1-.2,1.8-.7,2.5s-1.2,1.2-2,1.6c-.9.3-1.9.5-3.1.5Z" fill="#c9d1d9"/>
    </g>
    <g isolation="isolate">
      <path d="m72.1,37.8v-3.3h4.5V7.3h-4.5v-3.3h13.2v3.3h-4.5v27.2h4.5v3.3h-13.2Z" fill="#c9d1d9"/>
    </g>
    <g isolation="isolate">
      <path d="m85.5,53.8v-19.6h7.5c4.5,0,6.8,1.7,6.8,5.2s-2.3,5.2-6.8,5.2h-5v9.2s-2.5,0-2.5,0Zm2.4-11.3h5c1.4,0,2.4-.3,3.2-.8s1.1-1.3,1.1-2.3-.4-1.8-1.1-2.4-1.8-.8-3.2-.8h-5v6.3Zm9.1,11.3l-5.2-9.9h2.8l5.2,9.9s-2.8,0-2.8,0Z" fill="#c9d1d9"/>
      <path d="m108.7,54.1c-1.4,0-2.6-.3-3.6-.9-1-.6-1.8-1.5-2.4-2.7-.6-1.1-.8-2.5-.8-4.1s.3-2.9.8-4.1c.6-1.2,1.3-2,2.3-2.7,1-.6,2.2-.9,3.5-.9.8,0,1.6.1,2.3.4.8.2,1.5.7,2.1,1.3s1.2,1.5,1.6,2.5c.4,1.1.6,2.4.6,4h-11.9v-1.8h9.9l-.7.9c0-1.3-.3-2.3-.6-3.1-.4-.8-.9-1.3-1.4-1.7-.6-.3-1.3-.5-2-.5-.9,0-1.6.2-2.2.7-.6.4-1.1,1.1-1.4,2s-.5,1.9-.5,3.2c0,1.8.4,3.2,1.1,4.2s1.8,1.5,3.2,1.5c1,0,1.8-.2,2.5-.7s1.2-1.2,1.5-2.2l2.2.8c-.4.9-.8,1.6-1.4,2.2-.6.6-1.3,1.1-2.1,1.4-.7.1-1.6.3-2.6.3Z" fill="#c9d1d9"/>
      <path d="m116.9,41v-1.9h7.8v1.9h-7.8Zm2.2,12.8v-17.4c0-1.1.3-1.9.8-2.3s1.4-.7,2.6-.7h1.8v1.9h-2.2c-.3,0-.5.1-.6.2s-.2.3-.2.6v17.7s-2.2,0-2.2,0Z" fill="#c9d1d9"/>
    </g>
    <g isolation="isolate">
      <path d="m447.7,92.4c-1.7,0-3.2-.3-4.4-1s-2.2-1.5-2.9-2.7-1-2.4-1-3.8c0-1.5.4-2.9,1.3-4.2s2.3-2.3,4.1-3.1,4.3-1.2,7.2-1.2h4.2l-.4.4v-1.4c0-2-.4-3.6-1.2-4.7s-2.2-1.6-4.1-1.6c-1.8,0-3.2.5-4.1,1.4s-1.5,2.2-1.5,3.7l-4.4-1c.1-1.4.7-2.6,1.6-3.7s2.1-2,3.6-2.7,3.3-1,5.2-1c2,0,3.7.4,5,1.2s2.2,1.9,2.8,3.3.9,3.2.9,5.2v11.6c0,.5.1.9.2,1s.5.3.9.3h1.4v3.3h-2.5c-1.1,0-2-.3-2.7-1s-1.1-1.5-1.1-2.5v-1.8h.6c-.2.7-.6,1.3-1.1,2s-1.1,1.3-1.8,1.9-1.6,1.1-2.6,1.4-1.9.7-3.2.7Zm.9-3.3c1.3,0,2.5-.3,3.6-1s2-1.6,2.7-3,1-3.1,1-5.3v-.2h-4c-2.1,0-3.7.3-4.9.8s-2,1.2-2.5,2-.8,1.6-.8,2.4.2,1.5.5,2.2.9,1.2,1.6,1.5,1.7.6,2.8.6Z" fill="#c9d1d9"/>
      <path d="m477.8,92.4c-2.4,0-4.4-.5-6.2-1.6s-3.1-2.6-4-4.6-1.4-4.3-1.4-7,.5-5,1.4-7,2.3-3.5,4-4.6,3.8-1.6,6.2-1.6c1.8,0,3.4.3,4.9,1s2.6,1.6,3.6,2.9,1.7,2.7,2.2,4.5l-4,1.1c-.4-2-1.2-3.5-2.4-4.5s-2.6-1.6-4.3-1.6c-2.3,0-4.1.9-5.4,2.6s-1.9,4.2-1.9,7.3c0,3.2.6,5.6,1.9,7.4s3.1,2.6,5.4,2.6c1.7,0,3.2-.5,4.3-1.5s1.9-2.5,2.4-4.4l4,1.1c-.4,1.3-.9,2.4-1.5,3.4s-1.4,1.9-2.3,2.6-1.9,1.2-3,1.6-2.6.3-3.9.3Z" fill="#c9d1d9"/>
      <path d="m504.6,92.4c-2.4,0-4.5-.6-6.3-1.7s-3.2-2.7-4.2-4.7-1.5-4.3-1.5-6.9.5-4.9,1.5-6.9,2.4-3.5,4.2-4.7,3.9-1.7,6.3-1.7,4.5.6,6.3,1.7c1.8,1.1,3.2,2.7,4.2,4.7s1.5,4.3,1.5,6.9-.5,4.9-1.5,6.9-2.4,3.5-4.2,4.7-3.9,1.7-6.3,1.7Zm0-3.3c2.4,0,4.3-.9,5.7-2.7s2.1-4.2,2.1-7.3-.7-5.5-2.1-7.3-3.3-2.7-5.7-2.7-4.3.9-5.7,2.7-2.1,4.2-2.1,7.3.7,5.5,2.1,7.3,3.4,2.7,5.7,2.7Z" fill="#c9d1d9"/>
      <path d="m531,92.4c-1.8,0-3.3-.4-4.6-1.2s-2.3-1.9-3-3.4-1.1-3.3-1.1-5.3v-16h3.9v15.6c0,2.1.4,3.7,1.2,5s2.2,1.9,4.2,1.9c1.5,0,2.8-.4,3.9-1.2s2-2,2.6-3.5.9-3.5.9-5.9v-12h3.9v25.3h-3.7v-6l.2,1c-.7,1.6-1.7,2.9-3.2,3.9s-3.1,1.8-5.2,1.8Z" fill="#c9d1d9"/>
      <path d="m559.1,92.4c-1.8,0-3.5-.3-5-.9s-2.7-1.5-3.7-2.7-1.6-2.8-2-4.7l4.1-.8c.2,2,.8,3.5,2,4.4s2.7,1.5,4.4,1.5c1.8,0,3.2-.4,4.2-1.3s1.6-2,1.6-3.3c0-1.1-.4-2-1.1-2.6s-1.8-1.1-3.2-1.4l-3.1-.6c-.8-.2-1.7-.4-2.6-.7s-1.7-.7-2.5-1.2-1.4-1.2-1.9-2-.7-1.8-.7-3.1c0-1.7.4-3,1.3-4.1s2-1.8,3.4-2.4,3-.8,4.6-.8c1.8,0,3.4.3,4.7.8s2.4,1.4,3.3,2.4,1.4,2.3,1.7,3.8l-4.3.9c-.1-1-.4-1.8-.8-2.5s-1-1.2-1.7-1.6-1.7-.6-2.9-.6c-1.5,0-2.7.3-3.8.9s-1.6,1.5-1.6,2.8c0,.7.2,1.3.5,1.8s.9.9,1.6,1.2,1.6.6,2.7.8l3.1.7c1.3.3,2.5.7,3.6,1.2s2,1.2,2.7,2.2,1,2.1,1,3.7c0,1.7-.4,3.1-1.3,4.3s-2,2.1-3.5,2.8-2.9,1.1-4.8,1.1Z" fill="#c9d1d9"/>
      <path d="m580.1,91.8c-1,0-1.9-.3-2.6-1s-1.1-1.5-1.1-2.5v-18.5h-4.1v-3.3h4.1v-5.3l3.9-.8v6.1h5v3.3h-5v17.5c0,.5.1.9.2,1s.5.3.9.3h3.9v3.3h-5.2v-.1Z" fill="#c9d1d9"/>
      <path d="m593,62.2c-.9,0-1.7-.3-2.3-1s-1-1.4-1-2.3.3-1.7,1-2.3,1.4-.9,2.3-.9,1.7.3,2.3.9.9,1.4.9,2.3-.3,1.7-.9,2.3-1.4,1-2.3,1Zm-1.9,29.6v-25.3h3.9v25.3h-3.9Z" fill="#c9d1d9"/>
      <path d="m612.6,92.4c-2.4,0-4.4-.5-6.2-1.6s-3.1-2.6-4-4.6-1.4-4.3-1.4-7,.5-5,1.4-7,2.3-3.5,4-4.6,3.8-1.6,6.2-1.6c1.8,0,3.4.3,4.9,1s2.6,1.6,3.6,2.9,1.7,2.7,2.2,4.5l-4,1.1c-.4-2-1.2-3.5-2.4-4.5s-2.6-1.6-4.3-1.6c-2.3,0-4.1.9-5.4,2.6s-1.9,4.2-1.9,7.3c0,3.2.6,5.6,1.9,7.4s3.1,2.6,5.4,2.6c1.7,0,3.2-.5,4.3-1.5s1.9-2.5,2.4-4.4l4,1.1c-.4,1.3-.9,2.4-1.5,3.4s-1.4,1.9-2.3,2.6-1.9,1.2-3,1.6-2.5.3-3.9.3Z" fill="#c9d1d9"/>
      <path d="m653.3,92.4c-1.7,0-3.3-.4-4.9-1.2s-2.9-2.2-3.7-4.2l.2-.2v5.1h-3.7v-35.3h3.9v15.1l-.4-.4c.7-1.8,1.8-3.2,3.4-4.1s3.3-1.3,5.1-1.3c2.1,0,3.9.5,5.4,1.6s2.8,2.6,3.7,4.6,1.3,4.3,1.3,7-.4,5-1.3,7-2.1,3.5-3.7,4.6-3.3,1.7-5.3,1.7Zm-1.1-3.3c2.1,0,3.8-.9,5.2-2.6s2-4.2,2-7.4c0-3.1-.6-5.6-1.9-7.3s-3-2.6-5.2-2.6c-1.3,0-2.5.3-3.6,1s-2,1.8-2.6,3.2-1,3.3-1,5.6c0,3.4.7,5.9,2.1,7.5s3,2.6,5,2.6Z" fill="#c9d1d9"/>
      <path d="m676.6,92.4c-1.7,0-3.2-.3-4.4-1s-2.2-1.5-2.9-2.7-1-2.4-1-3.8c0-1.5.4-2.9,1.3-4.2s2.3-2.3,4.1-3.1,4.3-1.2,7.2-1.2h4.2l-.4.4v-1.4c0-2-.4-3.6-1.2-4.7s-2.2-1.6-4.1-1.6c-1.8,0-3.2.5-4.1,1.4s-1.5,2.2-1.5,3.7l-4.4-1c.1-1.4.7-2.6,1.6-3.7s2.1-2,3.6-2.7,3.3-1,5.2-1c2,0,3.7.4,5,1.2s2.2,1.9,2.8,3.3.9,3.2.9,5.2v11.6c0,.5.1.9.2,1s.5.3.9.3h1.4v3.3h-2.5c-1.1,0-2-.3-2.7-1s-1.1-1.5-1.1-2.5v-1.8h.6c-.2.7-.6,1.3-1.1,2s-1.1,1.3-1.8,1.9-1.6,1.1-2.6,1.4-1.9.7-3.2.7Zm.9-3.3c1.3,0,2.5-.3,3.6-1s2-1.6,2.7-3,1-3.1,1-5.3v-.2h-4c-2.1,0-3.7.3-4.9.8s-2,1.2-2.5,2-.8,1.6-.8,2.4.2,1.5.5,2.2.9,1.2,1.6,1.5,1.7.6,2.8.6Z" fill="#c9d1d9"/>
      <path d="m696.6,91.8v-25.3h3.7v5.4l-.1-.6c.8-1.8,1.9-3.1,3.4-4s3-1.3,4.6-1.3c.5,0,.9,0,1.3.1s.8.2,1.2.4l-.5,3.7c-.9-.3-1.7-.4-2.6-.4-.5,0-1.2.1-2,.3s-1.6.6-2.3,1.3-1.4,1.6-1.9,2.8-.8,2.9-.8,5v12.7h-4v-.1Z" fill="#c9d1d9"/>
      <path d="m714.7,91.8v-25.3h3.7v5.4l-.1-.6c.8-1.8,1.9-3.1,3.4-4s3-1.3,4.6-1.3c.5,0,.9,0,1.3.1s.8.2,1.2.4l-.5,3.7c-.9-.3-1.7-.4-2.6-.4-.5,0-1.2.1-2,.3s-1.6.6-2.3,1.3-1.4,1.6-1.9,2.8-.8,2.9-.8,5v12.7h-4v-.1Z" fill="#c9d1d9"/>
      <path d="m735.5,62.2c-.9,0-1.7-.3-2.3-1s-1-1.4-1-2.3.3-1.7,1-2.3,1.4-.9,2.3-.9,1.7.3,2.3.9.9,1.4.9,2.3-.3,1.7-.9,2.3-1.4,1-2.3,1Zm-2,29.6v-25.3h3.9v25.3h-3.9Z" fill="#c9d1d9"/>
      <path d="m755.2,92.4c-2.4,0-4.5-.5-6.2-1.6s-3.1-2.6-4.1-4.6-1.4-4.3-1.4-7,.5-5,1.4-7,2.3-3.5,4-4.6,3.8-1.6,6.1-1.6c1.3,0,2.7.2,4,.6s2.6,1.2,3.7,2.2,2,2.5,2.7,4.3,1,4.2,1,6.9h-20.4v-3.2h17.1l-1.1,1.5c-.1-2.2-.4-4-1.1-5.3s-1.5-2.3-2.5-2.9-2.2-.9-3.4-.9c-1.5,0-2.8.4-3.8,1.2s-1.9,1.9-2.5,3.4-.9,3.3-.9,5.4c0,3.2.6,5.6,1.9,7.3s3.1,2.6,5.5,2.6c1.7,0,3.1-.4,4.3-1.3s2-2.1,2.6-3.7l3.9,1.3c-.6,1.5-1.4,2.7-2.4,3.8s-2.2,1.8-3.6,2.4-3.1.8-4.8.8Z" fill="#c9d1d9"/>
      <path d="m772.5,91.8v-25.3h3.7v5.4l-.1-.6c.8-1.8,1.9-3.1,3.4-4s3-1.3,4.6-1.3c.5,0,.9,0,1.3.1s.8.2,1.2.4l-.5,3.7c-.9-.3-1.7-.4-2.6-.4-.5,0-1.2.1-2,.3s-1.6.6-2.3,1.3-1.4,1.6-1.9,2.8-.8,2.9-.8,5v12.7h-4v-.1Z" fill="#c9d1d9"/>
    </g>
  </g>
  <g id="components">
    <g>
      <line x1="5.4" y1="747" x2="345" y2="409" fill="none" stroke="#c9d1d9" stroke-miterlimit="10" stroke-width="4"/>
      <polygon points="355 427.3 365.4 388.8 326.9 399 355 427.3" fill="#c9d1d9"/>
    </g>
    <g>
      <line x1="365.4" y1="388.8" x2="27.5" y2="49.2" fill="none" stroke="#c9d1d9" stroke-miterlimit="10" stroke-width="4"/>
      <polygon points="45.7 39.2 7.2 28.8 17.4 67.3 45.7 39.2" fill="#c9d1d9"/>
    </g>
    <g>
      <line x1="365.4" y1="388.8" x2="696.7" y2="388.8" fill="none" stroke="#c9d1d9" stroke-miterlimit="10" stroke-width="4"/>
      <polygon points="690.9 408.8 725.4 388.8 690.9 368.9 690.9 408.8" fill="#c9d1d9"/>
    </g>
    <g>
      <line x1="417.5" y1="389.2" x2="417.5" y2="257.7" fill="none" stroke="#c9d1d9" stroke-miterlimit="10" stroke-width="4"/>
      <polygon points="437.5 263.5 417.5 229 397.6 263.5 437.5 263.5" fill="#c9d1d9"/>
    </g>
    <g>
      <line x1="417.6" y1="388.8" x2="417.6" y2="520.3" fill="none" stroke="#c9d1d9" stroke-miterlimit="10" stroke-width="4"/>
      <polygon points="397.6 514.5 417.6 549 437.5 514.5 397.6 514.5" fill="#c9d1d9"/>
    </g>
  </g>
  <g id="Ebene_4" data-name="Ebene 4">
    <line x1="365.4" y1="646.2" x2="379.8" y2="660.6" fill="none" stroke="#7f7f7f" stroke-miterlimit="10" stroke-width="3"/>
    <line x1="365.4" y1="610.2" x2="415.8" y2="660.6" fill="none" stroke="#7f7f7f" stroke-miterlimit="10" stroke-width="3"/>
    <line x1="365.4" y1="570.6" x2="451.8" y2="660.6" fill="none" stroke="#7f7f7f" stroke-miterlimit="10" stroke-width="3"/>
    <line x1="365.4" y1="495" x2="469.8" y2="603" fill="none" stroke="#7f7f7f" stroke-miterlimit="10" stroke-width="3"/>
    <line x1="365.4" y1="531" x2="469.8" y2="639" fill="none" stroke="#7f7f7f" stroke-miterlimit="10" stroke-width="3"/>
    <line x1="365.4" y1="459" x2="469.8" y2="567" fill="none" stroke="#7f7f7f" stroke-miterlimit="10" stroke-width="3"/>
    <line x1="365.4" y1="423" x2="469.8" y2="531" fill="none" stroke="#7f7f7f" stroke-miterlimit="10" stroke-width="3"/>
    <line x1="365.4" y1="387" x2="469.8" y2="495" fill="none" stroke="#7f7f7f" stroke-miterlimit="10" stroke-width="3"/>
    <line x1="365.4" y1="351" x2="469.8" y2="459" fill="none" stroke="#7f7f7f" stroke-miterlimit="10" stroke-width="3"/>
    <line x1="365.4" y1="315" x2="469.8" y2="423" fill="none" stroke="#7f7f7f" stroke-miterlimit="10" stroke-width="3"/>
    <line x1="365.4" y1="279" x2="469.8" y2="387" fill="none" stroke="#7f7f7f" stroke-miterlimit="10" stroke-width="3"/>
    <line x1="365.4" y1="243" x2="469.8" y2="351" fill="none" stroke="#7f7f7f" stroke-miterlimit="10" stroke-width="3"/>
    <line x1="365.4" y1="207" x2="469.8" y2="315" fill="none" stroke="#7f7f7f" stroke-miterlimit="10" stroke-width="3"/>
    <line x1="365.4" y1="171" x2="469.8" y2="279" fill="none" stroke="#7f7f7f" stroke-miterlimit="10" stroke-width="3"/>
    <line x1="365.4" y1="135" x2="469.8" y2="243" fill="none" stroke="#7f7f7f" stroke-miterlimit="10" stroke-width="3"/>
    <line x1="469.8" y1="131.4" x2="455.4" y2="117" fill="none" stroke="#7f7f7f" stroke-miterlimit="10" stroke-width="3"/>
    <line x1="469.8" y1="167.4" x2="419.4" y2="117" fill="none" stroke="#7f7f7f" stroke-miterlimit="10" stroke-width="3"/>
    <line x1="469.8" y1="207" x2="383.4" y2="117" fill="none" stroke="#7f7f7f" stroke-miterlimit="10" stroke-width="3"/>
    <line x1="365.4" y1="660.6" x2="365.4" y2="117" fill="none" stroke="#7f7f7f" stroke-miterlimit="10" stroke-width="3"/>
    <line x1="469.8" y1="660.6" x2="469.8" y2="117" fill="none" stroke="#7f7f7f" stroke-miterlimit="10" stroke-width="3"/>
  </g>
</svg>