<?xml version="1.0" encoding="UTF-8"?>
<svg xmlns="http://www.w3.org/2000/svg" viewBox="0 0 851.4 750.6">
  <defs>
    <style>
      .cls-1 {
        letter-spacing: -.04em;
      }

      .cls-2 {
        stroke: #7f7f7f;
        stroke-width: 3px;
      }

      .cls-2, .cls-3 {
        fill: none;
        stroke-miterlimit: 10;
      }

      .cls-4, .cls-5 {
        fill: #c9d1d9;
      }

      .cls-3 {
        stroke: #c9d1d9;
        stroke-width: 4px;
      }

      .cls-6 {
        letter-spacing: -.02em;
      }

      .cls-5 {
        font-family: Roboto-Regular, Roboto;
        font-size: 48px;
      }
    </style>
  </defs>
  <g id="Text">
    <text class="cls-5" transform="translate(108 730.8)"><tspan x="0" y="0">I</tspan></text>
    <text class="cls-5" transform="translate(121.05 746.78) scale(.58)"><tspan x="0" y="0">In</tspan></text>
    <text class="cls-5" transform="translate(484.2 538.2)"><tspan x="0" y="0">I</tspan></text>
    <text class="cls-5" transform="translate(497.25 554.18) scale(.58)"><tspan x="0" y="0">Dis</tspan></text>
    <text class="cls-5" transform="translate(693 457.2)"><tspan x="0" y="0">I</tspan></text>
    <text class="cls-5" transform="translate(706.05 473.18) scale(.58)"><tspan class="cls-1" x="0" y="0">T</tspan><tspan class="cls-6" x="26.88" y="0">r</tspan><tspan x="42.19" y="0">ans</tspan></text>
    <text class="cls-5" transform="translate(70.2 37.8)"><tspan x="0" y="0">I</tspan></text>
    <text class="cls-5" transform="translate(83.25 53.78) scale(.58)"><tspan x="0" y="0">Ref</tspan></text>
    <text class="cls-5" transform="translate(437.4 91.8)"><tspan x="0" y="0">acoustic barrier</tspan></text>
  </g>
  <g id="components">
    <g>
      <line class="cls-3" x1="5.4" y1="747" x2="345.05" y2="409.05"/>
      <polygon class="cls-4" points="354.98 427.3 365.4 388.8 326.85 399.02 354.98 427.3"/>
    </g>
    <g>
      <line class="cls-3" x1="365.4" y1="388.8" x2="27.45" y2="49.15"/>
      <polygon class="cls-4" points="45.7 39.22 7.2 28.8 17.42 67.35 45.7 39.22"/>
    </g>
    <g>
      <line class="cls-3" x1="365.4" y1="388.8" x2="696.7" y2="388.8"/>
      <polygon class="cls-4" points="690.86 408.75 725.4 388.8 690.86 368.86 690.86 408.75"/>
    </g>
    <g>
      <line class="cls-3" x1="417.54" y1="389.19" x2="417.54" y2="257.69"/>
      <polygon class="cls-4" points="437.49 263.53 417.54 228.99 397.6 263.53 437.49 263.53"/>
    </g>
    <g>
      <line class="cls-3" x1="417.6" y1="388.8" x2="417.6" y2="520.3"/>
      <polygon class="cls-4" points="397.65 514.46 417.6 549 437.55 514.46 397.65 514.46"/>
    </g>
  </g>
  <g id="Ebene_4" data-name="Ebene 4">
    <line class="cls-2" x1="365.4" y1="646.2" x2="379.8" y2="660.6"/>
    <line class="cls-2" x1="365.4" y1="610.2" x2="415.8" y2="660.6"/>
    <line class="cls-2" x1="365.4" y1="570.6" x2="451.8" y2="660.6"/>
    <line class="cls-2" x1="365.4" y1="495" x2="469.8" y2="603"/>
    <line class="cls-2" x1="365.4" y1="531" x2="469.8" y2="639"/>
    <line class="cls-2" x1="365.4" y1="459" x2="469.8" y2="567"/>
    <line class="cls-2" x1="365.4" y1="423" x2="469.8" y2="531"/>
    <line class="cls-2" x1="365.4" y1="387" x2="469.8" y2="495"/>
    <line class="cls-2" x1="365.4" y1="351" x2="469.8" y2="459"/>
    <line class="cls-2" x1="365.4" y1="315" x2="469.8" y2="423"/>
    <line class="cls-2" x1="365.4" y1="279" x2="469.8" y2="387"/>
    <line class="cls-2" x1="365.4" y1="243" x2="469.8" y2="351"/>
    <line class="cls-2" x1="365.4" y1="207" x2="469.8" y2="315"/>
    <line class="cls-2" x1="365.4" y1="171" x2="469.8" y2="279"/>
    <line class="cls-2" x1="365.4" y1="135" x2="469.8" y2="243"/>
    <line class="cls-2" x1="469.8" y1="131.4" x2="455.4" y2="117"/>
    <line class="cls-2" x1="469.8" y1="167.4" x2="419.4" y2="117"/>
    <line class="cls-2" x1="469.8" y1="207" x2="383.4" y2="117"/>
    <line class="cls-2" x1="365.4" y1="660.6" x2="365.4" y2="117"/>
    <line class="cls-2" x1="469.8" y1="660.6" x2="469.8" y2="117"/>
  </g>
</svg>