<?xml version="1.0" encoding="UTF-8"?><svg xmlns="http://www.w3.org/2000/svg" viewBox="0 0 1920 763.2"><defs><style>.uuid-604f19d3-0523-4171-9966-37bbacb7de1a{stroke-dasharray:0 0 13.19 13.19;}.uuid-604f19d3-0523-4171-9966-37bbacb7de1a,.uuid-f7036b0e-00f1-44db-a9ec-1999987e233c,.uuid-b67f40a8-b177-4320-befb-311c440fee6b,.uuid-17e045bc-145b-475f-a076-6cbd3828d9fd,.uuid-316d3d0b-7f77-4738-968f-47e4c4b359f2,.uuid-fc625743-ec20-4859-aeb0-79e014a569fc,.uuid-343f4664-2c7f-4bdd-9cb1-27d1ee432e5b,.uuid-31b46c04-a0c6-4adf-9d9f-4e11521ed9c5,.uuid-d61aaef3-0937-47e9-a0b5-51b3c610db2b,.uuid-ffaa32d3-2889-44c1-b53c-0839655c7809,.uuid-1b8ddc9b-799d-4ff8-8a52-d0dd58ba20fa,.uuid-d8314d53-f959-4acc-aedb-3f7778457f65,.uuid-250d7d37-9847-4233-bf49-6b6acc007c66,.uuid-79553ff4-2097-4701-831a-c2e2bf973c7a{stroke-miterlimit:10;}.uuid-604f19d3-0523-4171-9966-37bbacb7de1a,.uuid-f7036b0e-00f1-44db-a9ec-1999987e233c,.uuid-b67f40a8-b177-4320-befb-311c440fee6b,.uuid-316d3d0b-7f77-4738-968f-47e4c4b359f2,.uuid-fc625743-ec20-4859-aeb0-79e014a569fc,.uuid-343f4664-2c7f-4bdd-9cb1-27d1ee432e5b,.uuid-d61aaef3-0937-47e9-a0b5-51b3c610db2b,.uuid-ffaa32d3-2889-44c1-b53c-0839655c7809,.uuid-1b8ddc9b-799d-4ff8-8a52-d0dd58ba20fa,.uuid-250d7d37-9847-4233-bf49-6b6acc007c66{fill:none;}.uuid-604f19d3-0523-4171-9966-37bbacb7de1a,.uuid-17e045bc-145b-475f-a076-6cbd3828d9fd,.uuid-343f4664-2c7f-4bdd-9cb1-27d1ee432e5b,.uuid-d61aaef3-0937-47e9-a0b5-51b3c610db2b,.uuid-ffaa32d3-2889-44c1-b53c-0839655c7809,.uuid-d8314d53-f959-4acc-aedb-3f7778457f65{stroke:#c9d1d9;}.uuid-604f19d3-0523-4171-9966-37bbacb7de1a,.uuid-343f4664-2c7f-4bdd-9cb1-27d1ee432e5b,.uuid-ffaa32d3-2889-44c1-b53c-0839655c7809{stroke-width:5.67px;}.uuid-4a1da07b-1ae3-430f-8966-43602f219b15,.uuid-1ff1351c-bd4a-48f1-8041-5b65cc6fc096,.uuid-2867165e-8aa9-4499-8105-3708d0082d32,.uuid-12f43917-67c2-4c67-b215-8cdb3470d12c{stroke-width:0px;}.uuid-4a1da07b-1ae3-430f-8966-43602f219b15,.uuid-79553ff4-2097-4701-831a-c2e2bf973c7a{fill:#9b48cc;}.uuid-1ff1351c-bd4a-48f1-8041-5b65cc6fc096,.uuid-17e045bc-145b-475f-a076-6cbd3828d9fd,.uuid-5358de5e-1d9e-4437-be3a-2e17b85c3e04,.uuid-d8314d53-f959-4acc-aedb-3f7778457f65{fill:#c9d1d9;}.uuid-f7036b0e-00f1-44db-a9ec-1999987e233c,.uuid-b67f40a8-b177-4320-befb-311c440fee6b,.uuid-316d3d0b-7f77-4738-968f-47e4c4b359f2,.uuid-fc625743-ec20-4859-aeb0-79e014a569fc,.uuid-d61aaef3-0937-47e9-a0b5-51b3c610db2b{stroke-width:2.83px;}.uuid-f7036b0e-00f1-44db-a9ec-1999987e233c,.uuid-b67f40a8-b177-4320-befb-311c440fee6b,.uuid-31b46c04-a0c6-4adf-9d9f-4e11521ed9c5,.uuid-250d7d37-9847-4233-bf49-6b6acc007c66{stroke:#1da37d;}.uuid-2867165e-8aa9-4499-8105-3708d0082d32{fill:#7f7f7f;}.uuid-b67f40a8-b177-4320-befb-311c440fee6b{stroke-dasharray:0 0 12.23 12.23;}.uuid-17e045bc-145b-475f-a076-6cbd3828d9fd{stroke-linecap:round;}.uuid-17e045bc-145b-475f-a076-6cbd3828d9fd,.uuid-d8314d53-f959-4acc-aedb-3f7778457f65{stroke-width:4.23px;}.uuid-12f43917-67c2-4c67-b215-8cdb3470d12c,.uuid-31b46c04-a0c6-4adf-9d9f-4e11521ed9c5{fill:#1da37d;}.uuid-316d3d0b-7f77-4738-968f-47e4c4b359f2,.uuid-fc625743-ec20-4859-aeb0-79e014a569fc,.uuid-1b8ddc9b-799d-4ff8-8a52-d0dd58ba20fa,.uuid-79553ff4-2097-4701-831a-c2e2bf973c7a{stroke:#9b48cc;}.uuid-5358de5e-1d9e-4437-be3a-2e17b85c3e04{font-family:Roboto-Regular, Roboto;font-size:48px;}.uuid-fc625743-ec20-4859-aeb0-79e014a569fc{stroke-dasharray:0 0 12.03 12.03;}.uuid-ea148ecf-239e-4e43-a65e-640b4bf9e3f7{opacity:.6;}.uuid-343f4664-2c7f-4bdd-9cb1-27d1ee432e5b{stroke-dasharray:0 0 13.19 13.19;}.uuid-31b46c04-a0c6-4adf-9d9f-4e11521ed9c5,.uuid-79553ff4-2097-4701-831a-c2e2bf973c7a{stroke-width:19.84px;}.uuid-1b8ddc9b-799d-4ff8-8a52-d0dd58ba20fa,.uuid-250d7d37-9847-4233-bf49-6b6acc007c66{stroke-width:8.5px;}.uuid-798e17c6-ca5c-411b-81cf-103bec000e94{letter-spacing:0em;}.uuid-2b16f031-df2a-4579-9a14-69cc613fe8d3{letter-spacing:-.02em;}</style></defs><g id="uuid-d3b80043-f063-42fa-a272-97f266a74812"><line class="uuid-d61aaef3-0937-47e9-a0b5-51b3c610db2b" x1="85" y1="583.2" x2="1748.2" y2="583.2"/><line class="uuid-250d7d37-9847-4233-bf49-6b6acc007c66" x1="85" y1="583.2" x2="916.6" y2="295.2"/><line class="uuid-f7036b0e-00f1-44db-a9ec-1999987e233c" x1="916.6" y1="295.2" x2="922.31" y2="293.22"/><line class="uuid-b67f40a8-b177-4320-befb-311c440fee6b" x1="933.86" y1="289.22" x2="1736.72" y2="11.18"/><line class="uuid-f7036b0e-00f1-44db-a9ec-1999987e233c" x1="1742.49" y1="9.18" x2="1748.2" y2="7.2"/><line class="uuid-250d7d37-9847-4233-bf49-6b6acc007c66" x1="1748.2" y1="583.2" x2="952.2" y2="307.53"/><polygon class="uuid-12f43917-67c2-4c67-b215-8cdb3470d12c" points="964.2 298.61 916.6 295.19 956.11 321.96 964.2 298.61"/><line class="uuid-ffaa32d3-2889-44c1-b53c-0839655c7809" x1="1845.4" y1="583.2" x2="85" y2="583.2"/><line class="uuid-ffaa32d3-2889-44c1-b53c-0839655c7809" x1="596.2" y1="583.2" x2="596.2" y2="589.24"/><line class="uuid-604f19d3-0523-4171-9966-37bbacb7de1a" x1="596.2" y1="602.43" x2="596.2" y2="674.97"/><line class="uuid-ffaa32d3-2889-44c1-b53c-0839655c7809" x1="596.2" y1="681.56" x2="596.2" y2="687.6"/><line class="uuid-ffaa32d3-2889-44c1-b53c-0839655c7809" x1="855.13" y1="583.2" x2="855.15" y2="589.24"/><line class="uuid-343f4664-2c7f-4bdd-9cb1-27d1ee432e5b" x1="855.18" y1="602.43" x2="855.37" y2="674.97"/><line class="uuid-ffaa32d3-2889-44c1-b53c-0839655c7809" x1="855.38" y1="681.56" x2="855.4" y2="687.6"/><line class="uuid-ffaa32d3-2889-44c1-b53c-0839655c7809" x1="1748.2" y1="583.2" x2="1748.2" y2="589.24"/><line class="uuid-604f19d3-0523-4171-9966-37bbacb7de1a" x1="1748.2" y1="602.43" x2="1748.2" y2="674.97"/><line class="uuid-ffaa32d3-2889-44c1-b53c-0839655c7809" x1="1748.2" y1="681.56" x2="1748.2" y2="687.6"/><line class="uuid-ffaa32d3-2889-44c1-b53c-0839655c7809" x1="1845.4" y1="583.2" x2="1845.4" y2="589.24"/><line class="uuid-604f19d3-0523-4171-9966-37bbacb7de1a" x1="1845.4" y1="602.43" x2="1845.4" y2="674.97"/><line class="uuid-ffaa32d3-2889-44c1-b53c-0839655c7809" x1="1845.4" y1="681.56" x2="1845.4" y2="687.6"/></g><g id="uuid-0b645fa5-ead5-4534-be35-1ac44df2befa"><line class="uuid-1b8ddc9b-799d-4ff8-8a52-d0dd58ba20fa" x1="340.6" y1="295.2" x2="85" y2="583.2"/><line class="uuid-1b8ddc9b-799d-4ff8-8a52-d0dd58ba20fa" x1="365.6" y1="323.37" x2="596.2" y2="583.2"/><polygon class="uuid-4a1da07b-1ae3-430f-8966-43602f219b15" points="361.96 337.88 340.59 295.21 380.44 321.48 361.96 337.88"/><line class="uuid-316d3d0b-7f77-4738-968f-47e4c4b359f2" x1="596.2" y1="7.2" x2="592.19" y2="11.72"/><line class="uuid-fc625743-ec20-4859-aeb0-79e014a569fc" x1="584.2" y1="20.72" x2="348.6" y2="286.18"/><line class="uuid-316d3d0b-7f77-4738-968f-47e4c4b359f2" x1="344.61" y1="290.68" x2="340.6" y2="295.2"/><line class="uuid-ffaa32d3-2889-44c1-b53c-0839655c7809" x1="603.02" y1="687.6" x2="848.58" y2="687.6"/><path class="uuid-1ff1351c-bd4a-48f1-8041-5b65cc6fc096" d="M641.76,714.81c.84-1.32.45-3.07-.87-3.91l-36.58-23.3,36.58-23.3c1.32-.84,1.72-2.6.87-3.91s-2.61-1.7-3.92-.87l-40.33,25.69c-.81.52-1.31,1.42-1.31,2.39s.5,1.87,1.31,2.39l40.33,25.69c.48.3,1,.44,1.52.44.94,0,1.85-.47,2.4-1.31Z"/><path class="uuid-1ff1351c-bd4a-48f1-8041-5b65cc6fc096" d="M809.84,714.81c-.84-1.32-.45-3.07.87-3.91l36.58-23.3-36.58-23.3c-1.32-.84-1.72-2.6-.87-3.91s2.61-1.7,3.92-.87l40.33,25.69c.81.52,1.31,1.42,1.31,2.39s-.5,1.87-1.31,2.39l-40.33,25.69c-.48.3-1,.44-1.52.44-.94,0-1.85-.47-2.4-1.31Z"/><line class="uuid-ffaa32d3-2889-44c1-b53c-0839655c7809" x1="1852.22" y1="687.6" x2="1913.8" y2="687.6"/><path class="uuid-1ff1351c-bd4a-48f1-8041-5b65cc6fc096" d="M1890.96,714.81c.84-1.32.45-3.07-.87-3.91l-36.58-23.3,36.58-23.3c1.32-.84,1.72-2.6.87-3.91s-2.61-1.7-3.92-.87l-40.33,25.69c-.81.52-1.31,1.42-1.31,2.39s.5,1.87,1.31,2.39l40.33,25.69c.48.3,1,.44,1.52.44.94,0,1.85-.47,2.4-1.31Z"/><line class="uuid-ffaa32d3-2889-44c1-b53c-0839655c7809" x1="1741.38" y1="687.6" x2="1679.8" y2="687.6"/><path class="uuid-1ff1351c-bd4a-48f1-8041-5b65cc6fc096" d="M1702.64,660.39c-.84,1.32-.45,3.07.87,3.91l36.58,23.3-36.58,23.3c-1.32.84-1.72,2.6-.87,3.91s2.61,1.7,3.92.87l40.33-25.69c.81-.52,1.31-1.42,1.31-2.39s-.5-1.87-1.31-2.39l-40.33-25.69c-.48-.3-1-.44-1.52-.44-.94,0-1.85.47-2.4,1.31Z"/><circle class="uuid-31b46c04-a0c6-4adf-9d9f-4e11521ed9c5" cx="1748.2" cy="583.2" r="7.2"/><circle class="uuid-79553ff4-2097-4701-831a-c2e2bf973c7a" cx="596.2" cy="583.2" r="7.2"/></g><g id="uuid-0a0524be-0a0c-438b-88ba-984ebe0725af"><path class="uuid-f7036b0e-00f1-44db-a9ec-1999987e233c" d="M1845.12,583.2c0-201.78-33.96-395.64-96.47-576.16"/><path class="uuid-316d3d0b-7f77-4738-968f-47e4c4b359f2" d="M855.13,583.2c0-229.15-100.08-434.93-258.93-576"/><text class="uuid-5358de5e-1d9e-4437-be3a-2e17b85c3e04" transform="translate(693.38 741.6)"><tspan class="uuid-798e17c6-ca5c-411b-81cf-103bec000e94" x="0" y="0">Δ</tspan><tspan x="33.45" y="0">t</tspan></text><text class="uuid-5358de5e-1d9e-4437-be3a-2e17b85c3e04" transform="translate(742.51 757.58) scale(.58)"><tspan x="0" y="0">1</tspan></text><text class="uuid-5358de5e-1d9e-4437-be3a-2e17b85c3e04" transform="translate(1763.98 741.6)"><tspan class="uuid-798e17c6-ca5c-411b-81cf-103bec000e94" x="0" y="0">Δ</tspan><tspan x="33.45" y="0">t</tspan></text><text class="uuid-5358de5e-1d9e-4437-be3a-2e17b85c3e04" transform="translate(1813.11 757.58) scale(.58)"><tspan x="0" y="0">2</tspan></text><path class="uuid-1ff1351c-bd4a-48f1-8041-5b65cc6fc096" d="M600.82,463.59c-3.86-1.11-6.67-2.47-8.43-4.09s-2.64-3.61-2.64-5.99c0-2.69,1.07-4.91,3.22-6.67s4.94-2.64,8.38-2.64c2.34,0,4.43.45,6.27,1.36s3.26,2.16,4.27,3.75,1.51,3.34,1.51,5.23h-4.52c0-2.07-.66-3.7-1.97-4.88-1.31-1.18-3.16-1.78-5.55-1.78-2.22,0-3.95.49-5.19,1.47s-1.86,2.34-1.86,4.07c0,1.39.59,2.57,1.77,3.53s3.19,1.84,6.02,2.64c2.84.8,5.05,1.68,6.66,2.64s2.79,2.08,3.56,3.36,1.16,2.79,1.16,4.52c0,2.77-1.08,4.98-3.23,6.64s-5.04,2.5-8.65,2.5c-2.34,0-4.53-.45-6.56-1.35s-3.6-2.13-4.7-3.69-1.65-3.34-1.65-5.32h4.52c0,2.06.76,3.69,2.29,4.89s3.56,1.79,6.11,1.79c2.38,0,4.2-.48,5.46-1.45s1.9-2.29,1.9-3.96-.59-2.96-1.76-3.88-3.3-1.82-6.38-2.71Z"/><path class="uuid-1ff1351c-bd4a-48f1-8041-5b65cc6fc096" d="M617.41,465.89c0-2.48.49-4.72,1.46-6.7s2.34-3.52,4.08-4.59,3.73-1.62,5.96-1.62c3.45,0,6.25,1.2,8.38,3.59s3.2,5.57,3.2,9.54v.3c0,2.47-.47,4.68-1.42,6.64s-2.3,3.49-4.05,4.58-3.78,1.64-6.06,1.64c-3.44,0-6.22-1.2-8.36-3.59s-3.2-5.55-3.2-9.49v-.3ZM621.77,466.4c0,2.81.65,5.07,1.96,6.77s3.05,2.55,5.24,2.55,3.95-.86,5.25-2.59,1.95-4.14,1.95-7.25c0-2.78-.66-5.04-1.98-6.76s-3.07-2.59-5.26-2.59-3.87.85-5.18,2.55-1.97,4.14-1.97,7.31Z"/><path class="uuid-1ff1351c-bd4a-48f1-8041-5b65cc6fc096" d="M661.59,476.29c-1.69,1.98-4.16,2.98-7.43,2.98-2.7,0-4.76-.79-6.18-2.36s-2.13-3.89-2.14-6.97v-16.5h4.34v16.38c0,3.84,1.56,5.77,4.69,5.77,3.31,0,5.52-1.23,6.61-3.7v-18.45h4.34v25.36h-4.12l-.09-2.51Z"/><path class="uuid-1ff1351c-bd4a-48f1-8041-5b65cc6fc096" d="M676.5,453.44l.14,3.19c1.94-2.44,4.47-3.66,7.59-3.66,5.36,0,8.06,3.02,8.11,9.07v16.76h-4.34v-16.78c-.02-1.83-.43-3.18-1.25-4.05s-2.1-1.31-3.83-1.31c-1.41,0-2.64.38-3.7,1.12s-1.89,1.73-2.48,2.95v18.07h-4.34v-25.36h4.1Z"/><path class="uuid-1ff1351c-bd4a-48f1-8041-5b65cc6fc096" d="M697.82,465.91c0-3.89.92-7.02,2.77-9.39s4.26-3.55,7.24-3.55,5.32,1.02,7.05,3.05v-13.22h4.34v36h-3.98l-.21-2.72c-1.73,2.12-4.15,3.19-7.24,3.19s-5.33-1.2-7.18-3.61-2.78-5.55-2.78-9.42v-.33ZM702.16,466.4c0,2.88.59,5.12,1.78,6.75s2.83,2.44,4.92,2.44c2.75,0,4.76-1.23,6.02-3.7v-11.65c-1.3-2.39-3.29-3.59-5.98-3.59-2.12,0-3.78.82-4.97,2.46s-1.78,4.07-1.78,7.29Z"/><path class="uuid-1ff1351c-bd4a-48f1-8041-5b65cc6fc096" d="M604.85,529.67c0-1.17-.44-2.08-1.32-2.73s-2.42-1.21-4.62-1.68-3.94-1.03-5.23-1.69-2.24-1.44-2.86-2.34-.93-1.98-.93-3.23c0-2.08.88-3.84,2.64-5.27s4-2.16,6.74-2.16c2.88,0,5.21.74,7,2.23s2.68,3.38,2.68,5.7h-4.36c0-1.19-.5-2.21-1.51-3.07s-2.28-1.29-3.81-1.29-2.81.34-3.7,1.03-1.34,1.59-1.34,2.7c0,1.05.41,1.84,1.24,2.37s2.32,1.04,4.49,1.52,3.92,1.06,5.26,1.73,2.34,1.48,2.99,2.43.97,2.1.97,3.46c0,2.27-.91,4.08-2.72,5.45s-4.16,2.05-7.05,2.05c-2.03,0-3.83-.36-5.39-1.08s-2.79-1.72-3.67-3.01-1.32-2.68-1.32-4.18h4.34c.08,1.45.66,2.61,1.75,3.46s2.52,1.28,4.3,1.28c1.64,0,2.96-.33,3.95-1s1.49-1.55,1.49-2.66Z"/><path class="uuid-1ff1351c-bd4a-48f1-8041-5b65cc6fc096" d="M613.68,523.49c0-2.48.49-4.72,1.46-6.7s2.34-3.52,4.08-4.59,3.73-1.62,5.96-1.62c3.45,0,6.25,1.2,8.38,3.59s3.2,5.57,3.2,9.54v.3c0,2.47-.47,4.68-1.42,6.64s-2.3,3.49-4.05,4.58-3.78,1.64-6.06,1.64c-3.44,0-6.22-1.2-8.36-3.59s-3.2-5.55-3.2-9.49v-.3ZM618.04,524c0,2.81.65,5.07,1.96,6.77s3.05,2.55,5.24,2.55,3.95-.86,5.25-2.59,1.95-4.14,1.95-7.25c0-2.78-.66-5.04-1.98-6.76s-3.07-2.59-5.26-2.59-3.87.85-5.18,2.55-1.97,4.14-1.97,7.31Z"/><path class="uuid-1ff1351c-bd4a-48f1-8041-5b65cc6fc096" d="M657.86,533.89c-1.69,1.98-4.16,2.98-7.43,2.98-2.7,0-4.76-.79-6.18-2.36s-2.13-3.89-2.14-6.97v-16.5h4.34v16.38c0,3.84,1.56,5.77,4.69,5.77,3.31,0,5.52-1.23,6.61-3.7v-18.45h4.34v25.36h-4.12l-.09-2.51Z"/><path class="uuid-1ff1351c-bd4a-48f1-8041-5b65cc6fc096" d="M680.93,514.93c-.66-.11-1.37-.16-2.13-.16-2.84,0-4.77,1.21-5.79,3.63v18h-4.34v-25.36h4.22l.07,2.93c1.42-2.27,3.44-3.4,6.05-3.4.84,0,1.48.11,1.92.33v4.03Z"/><path class="uuid-1ff1351c-bd4a-48f1-8041-5b65cc6fc096" d="M694.64,533.33c1.55,0,2.9-.47,4.05-1.41s1.8-2.11,1.92-3.52h4.1c-.08,1.45-.58,2.84-1.5,4.15s-2.15,2.36-3.69,3.14-3.17,1.17-4.89,1.17c-3.45,0-6.2-1.15-8.24-3.46s-3.06-5.46-3.06-9.46v-.73c0-2.47.45-4.66,1.36-6.59s2.21-3.41,3.9-4.48,3.7-1.59,6.01-1.59c2.84,0,5.21.85,7.09,2.55s2.89,3.91,3.01,6.63h-4.1c-.12-1.64-.75-2.99-1.86-4.04s-2.5-1.58-4.14-1.58c-2.2,0-3.91.79-5.12,2.38s-1.82,3.88-1.82,6.88v.82c0,2.92.6,5.17,1.8,6.75s2.92,2.37,5.16,2.37Z"/><path class="uuid-1ff1351c-bd4a-48f1-8041-5b65cc6fc096" d="M720.11,536.87c-3.44,0-6.23-1.13-8.39-3.39s-3.23-5.28-3.23-9.06v-.8c0-2.52.48-4.76,1.44-6.74s2.3-3.52,4.03-4.64,3.6-1.68,5.61-1.68c3.3,0,5.86,1.09,7.69,3.26s2.74,5.28,2.74,9.33v1.8h-17.18c.06,2.5.79,4.52,2.19,6.06s3.18,2.31,5.33,2.31c1.53,0,2.83-.31,3.89-.94s1.99-1.45,2.79-2.48l2.65,2.06c-2.12,3.27-5.31,4.9-9.56,4.9ZM719.57,514.13c-1.75,0-3.22.64-4.41,1.91s-1.92,3.06-2.2,5.36h12.7v-.33c-.12-2.2-.72-3.91-1.78-5.12s-2.5-1.82-4.31-1.82Z"/><path class="uuid-1ff1351c-bd4a-48f1-8041-5b65cc6fc096" d="M760.71,536.4h-4.36v-28.9l-8.74,3.21v-3.94l12.42-4.66h.68v34.29Z"/><path class="uuid-1ff1351c-bd4a-48f1-8041-5b65cc6fc096" d="M1637.62,441.99c-3.86-1.11-6.67-2.47-8.43-4.09s-2.64-3.61-2.64-5.99c0-2.69,1.07-4.91,3.22-6.67s4.94-2.64,8.38-2.64c2.34,0,4.43.45,6.27,1.36s3.26,2.16,4.27,3.75,1.51,3.34,1.51,5.23h-4.52c0-2.07-.66-3.7-1.97-4.88-1.31-1.18-3.16-1.78-5.55-1.78-2.22,0-3.95.49-5.19,1.47s-1.86,2.34-1.86,4.07c0,1.39.59,2.57,1.77,3.53s3.19,1.84,6.02,2.64c2.84.8,5.05,1.68,6.66,2.64s2.79,2.08,3.56,3.36,1.16,2.79,1.16,4.52c0,2.77-1.08,4.98-3.23,6.64s-5.04,2.5-8.65,2.5c-2.34,0-4.53-.45-6.56-1.35s-3.6-2.13-4.7-3.69-1.65-3.34-1.65-5.32h4.52c0,2.06.76,3.69,2.29,4.89s3.56,1.79,6.11,1.79c2.38,0,4.2-.48,5.46-1.45s1.9-2.29,1.9-3.96-.59-2.96-1.76-3.88-3.3-1.82-6.38-2.71Z"/><path class="uuid-1ff1351c-bd4a-48f1-8041-5b65cc6fc096" d="M1654.21,444.29c0-2.48.49-4.72,1.46-6.7s2.34-3.52,4.08-4.59,3.73-1.62,5.96-1.62c3.45,0,6.25,1.2,8.38,3.59s3.2,5.57,3.2,9.54v.3c0,2.47-.47,4.68-1.42,6.64s-2.3,3.49-4.05,4.58-3.78,1.64-6.06,1.64c-3.44,0-6.22-1.2-8.36-3.59s-3.2-5.55-3.2-9.49v-.3ZM1658.57,444.8c0,2.81.65,5.07,1.96,6.77s3.05,2.55,5.24,2.55,3.95-.86,5.25-2.59,1.95-4.14,1.95-7.25c0-2.78-.66-5.04-1.98-6.76s-3.07-2.59-5.26-2.59-3.87.85-5.18,2.55-1.97,4.14-1.97,7.31Z"/><path class="uuid-1ff1351c-bd4a-48f1-8041-5b65cc6fc096" d="M1698.39,454.69c-1.69,1.98-4.16,2.98-7.43,2.98-2.7,0-4.76-.79-6.18-2.36s-2.13-3.89-2.14-6.97v-16.5h4.34v16.38c0,3.84,1.56,5.77,4.69,5.77,3.31,0,5.52-1.23,6.61-3.7v-18.45h4.34v25.36h-4.12l-.09-2.51Z"/><path class="uuid-1ff1351c-bd4a-48f1-8041-5b65cc6fc096" d="M1713.29,431.84l.14,3.19c1.94-2.44,4.47-3.66,7.59-3.66,5.36,0,8.06,3.02,8.11,9.07v16.76h-4.34v-16.78c-.02-1.83-.43-3.18-1.25-4.05s-2.1-1.31-3.83-1.31c-1.41,0-2.64.38-3.7,1.12s-1.89,1.73-2.48,2.95v18.07h-4.34v-25.36h4.1Z"/><path class="uuid-1ff1351c-bd4a-48f1-8041-5b65cc6fc096" d="M1734.62,444.31c0-3.89.92-7.02,2.77-9.39s4.26-3.55,7.24-3.55,5.32,1.02,7.05,3.05v-13.22h4.34v36h-3.98l-.21-2.72c-1.73,2.12-4.15,3.19-7.24,3.19s-5.33-1.2-7.18-3.61-2.78-5.55-2.78-9.42v-.33ZM1738.96,444.8c0,2.88.59,5.12,1.78,6.75s2.83,2.44,4.92,2.44c2.75,0,4.76-1.23,6.02-3.7v-11.65c-1.3-2.39-3.29-3.59-5.98-3.59-2.12,0-3.78.82-4.97,2.46s-1.78,4.07-1.78,7.29Z"/><path class="uuid-1ff1351c-bd4a-48f1-8041-5b65cc6fc096" d="M1641.65,508.07c0-1.17-.44-2.08-1.32-2.73s-2.42-1.21-4.62-1.68-3.94-1.03-5.23-1.69-2.24-1.44-2.86-2.34-.93-1.98-.93-3.23c0-2.08.88-3.84,2.64-5.27s4-2.16,6.74-2.16c2.88,0,5.21.74,7,2.23s2.68,3.38,2.68,5.7h-4.36c0-1.19-.5-2.21-1.51-3.07s-2.28-1.29-3.81-1.29-2.81.34-3.7,1.03-1.34,1.59-1.34,2.7c0,1.05.41,1.84,1.24,2.37s2.32,1.04,4.49,1.52,3.92,1.06,5.26,1.73,2.34,1.48,2.99,2.43.97,2.1.97,3.46c0,2.27-.91,4.08-2.72,5.45s-4.16,2.05-7.05,2.05c-2.03,0-3.83-.36-5.39-1.08s-2.79-1.72-3.67-3.01-1.32-2.68-1.32-4.18h4.34c.08,1.45.66,2.61,1.75,3.46s2.52,1.28,4.3,1.28c1.64,0,2.96-.33,3.95-1s1.49-1.55,1.49-2.66Z"/><path class="uuid-1ff1351c-bd4a-48f1-8041-5b65cc6fc096" d="M1650.48,501.89c0-2.48.49-4.72,1.46-6.7s2.34-3.52,4.08-4.59,3.73-1.62,5.96-1.62c3.45,0,6.25,1.2,8.38,3.59s3.2,5.57,3.2,9.54v.3c0,2.47-.47,4.68-1.42,6.64s-2.3,3.49-4.05,4.58-3.78,1.64-6.06,1.64c-3.44,0-6.22-1.2-8.36-3.59s-3.2-5.55-3.2-9.49v-.3ZM1654.84,502.4c0,2.81.65,5.07,1.96,6.77s3.05,2.55,5.24,2.55,3.95-.86,5.25-2.59,1.95-4.14,1.95-7.25c0-2.78-.66-5.04-1.98-6.76s-3.07-2.59-5.26-2.59-3.87.85-5.18,2.55-1.97,4.14-1.97,7.31Z"/><path class="uuid-1ff1351c-bd4a-48f1-8041-5b65cc6fc096" d="M1694.66,512.29c-1.69,1.98-4.16,2.98-7.43,2.98-2.7,0-4.76-.79-6.18-2.36s-2.13-3.89-2.14-6.97v-16.5h4.34v16.38c0,3.84,1.56,5.77,4.69,5.77,3.31,0,5.52-1.23,6.61-3.7v-18.45h4.34v25.36h-4.12l-.09-2.51Z"/><path class="uuid-1ff1351c-bd4a-48f1-8041-5b65cc6fc096" d="M1717.72,493.33c-.66-.11-1.37-.16-2.13-.16-2.84,0-4.77,1.21-5.79,3.63v18h-4.34v-25.36h4.22l.07,2.93c1.42-2.27,3.44-3.4,6.05-3.4.84,0,1.48.11,1.92.33v4.03Z"/><path class="uuid-1ff1351c-bd4a-48f1-8041-5b65cc6fc096" d="M1731.44,511.73c1.55,0,2.9-.47,4.05-1.41s1.8-2.11,1.92-3.52h4.1c-.08,1.45-.58,2.84-1.5,4.15s-2.15,2.36-3.69,3.14-3.17,1.17-4.89,1.17c-3.45,0-6.2-1.15-8.24-3.46s-3.06-5.46-3.06-9.46v-.73c0-2.47.45-4.66,1.36-6.59s2.21-3.41,3.9-4.48,3.7-1.59,6.01-1.59c2.84,0,5.21.85,7.09,2.55s2.89,3.91,3.01,6.63h-4.1c-.12-1.64-.75-2.99-1.86-4.04s-2.5-1.58-4.14-1.58c-2.2,0-3.91.79-5.12,2.38s-1.82,3.88-1.82,6.88v.82c0,2.92.6,5.17,1.8,6.75s2.92,2.37,5.16,2.37Z"/><path class="uuid-1ff1351c-bd4a-48f1-8041-5b65cc6fc096" d="M1756.91,515.27c-3.44,0-6.23-1.13-8.39-3.39s-3.23-5.28-3.23-9.06v-.8c0-2.52.48-4.76,1.44-6.74s2.3-3.52,4.03-4.64,3.6-1.68,5.61-1.68c3.3,0,5.86,1.09,7.69,3.26s2.74,5.28,2.74,9.33v1.8h-17.18c.06,2.5.79,4.52,2.19,6.06s3.18,2.31,5.33,2.31c1.53,0,2.83-.31,3.89-.94s1.99-1.45,2.79-2.48l2.65,2.06c-2.12,3.27-5.31,4.9-9.56,4.9ZM1756.37,492.53c-1.75,0-3.22.64-4.41,1.91s-1.92,3.06-2.2,5.36h12.7v-.33c-.12-2.2-.72-3.91-1.78-5.12s-2.5-1.82-4.31-1.82Z"/><path class="uuid-1ff1351c-bd4a-48f1-8041-5b65cc6fc096" d="M1805.62,514.8h-22.36v-3.12l11.81-13.12c1.75-1.98,2.96-3.6,3.62-4.84s1-2.53,1-3.86c0-1.78-.54-3.24-1.62-4.38s-2.52-1.71-4.31-1.71c-2.16,0-3.83.61-5.03,1.84s-1.79,2.93-1.79,5.12h-4.34c0-3.14,1.01-5.68,3.04-7.62s4.73-2.91,8.12-2.91c3.17,0,5.68.83,7.52,2.5s2.77,3.88,2.77,6.64c0,3.36-2.14,7.36-6.42,12l-9.14,9.91h17.13v3.54Z"/><text class="uuid-5358de5e-1d9e-4437-be3a-2e17b85c3e04" transform="translate(-.75 727.2)"><tspan x="0" y="0">Listener</tspan></text><text class="uuid-5358de5e-1d9e-4437-be3a-2e17b85c3e04" transform="translate(39.6 255.6)"><tspan x="0" y="0">Reflecting </tspan><tspan class="uuid-2b16f031-df2a-4579-9a14-69cc613fe8d3" x="226.48" y="0">W</tspan><tspan x="268.29" y="0">all</tspan></text></g><g id="uuid-65cbde16-d050-4f55-84d0-44cfb6302a98"><rect class="uuid-2867165e-8aa9-4499-8105-3708d0082d32" x="3.6" y="266.4" width="1911.6" height="28.8"/><g class="uuid-ea148ecf-239e-4e43-a65e-640b4bf9e3f7"><path class="uuid-d8314d53-f959-4acc-aedb-3f7778457f65" d="M172.75,592.76c23.86-6.37,14.08-15.43-.03-19.3-5.4-36.53-40.78-64.73-83.63-64.73-46.58,0-84.35,33.34-84.35,74.47s37.76,74.47,84.35,74.47c42.91,0,78.34-28.3,83.65-64.91Z"/><path class="uuid-17e045bc-145b-475f-a076-6cbd3828d9fd" d="M101.14,501.28c-8.65,5.33-21.86,4.6-27.54,0"/><path class="uuid-17e045bc-145b-475f-a076-6cbd3828d9fd" d="M73.6,665.12c8.65-5.33,21.86-4.6,27.54,0"/></g></g></svg>