<?xml version="1.0" encoding="UTF-8"?>
<svg id="Ebene_1" data-name="Ebene 1" xmlns="http://www.w3.org/2000/svg" width="1920" height="763.2" viewBox="0 0 1920 763.2">
  <g id="uuid-d3b80043-f063-42fa-a272-97f266a74812">
    <line x1="85" y1="583.2" x2="1748.2" y2="583.2" fill="none" stroke="#c9d1d9" stroke-miterlimit="10" stroke-width="2.83"/>
    <line x1="85" y1="583.2" x2="916.6" y2="295.2" fill="none" stroke="#1da37d" stroke-miterlimit="10" stroke-width="8.5"/>
    <line x1="916.6" y1="295.2" x2="922.31" y2="293.22" fill="none" stroke="#1da37d" stroke-miterlimit="10" stroke-width="2.83"/>
    <line x1="933.86" y1="289.22" x2="1736.72" y2="11.18" fill="none" stroke="#1da37d" stroke-dasharray="0 0 0 0 0 0 12.23 12.23" stroke-miterlimit="10" stroke-width="2.83"/>
    <line x1="1742.49" y1="9.18" x2="1748.2" y2="7.2" fill="none" stroke="#1da37d" stroke-miterlimit="10" stroke-width="2.83"/>
    <line x1="1748.2" y1="583.2" x2="952.2" y2="307.53" fill="none" stroke="#1da37d" stroke-miterlimit="10" stroke-width="8.5"/>
    <polygon points="964.2 298.61 916.6 295.19 956.11 321.96 964.2 298.61" fill="#1da37d"/>
    <line x1="1845.4" y1="583.2" x2="85" y2="583.2" fill="none" stroke="#c9d1d9" stroke-miterlimit="10" stroke-width="5.67"/>
    <line x1="596.2" y1="583.2" x2="596.2" y2="589.24" fill="none" stroke="#c9d1d9" stroke-miterlimit="10" stroke-width="5.67"/>
    <line x1="596.2" y1="602.43" x2="596.2" y2="674.97" fill="none" stroke="#c9d1d9" stroke-dasharray="0 0 0 0 0 0 13.19 13.19" stroke-miterlimit="10" stroke-width="5.67"/>
    <line x1="596.2" y1="681.56" x2="596.2" y2="687.6" fill="none" stroke="#c9d1d9" stroke-miterlimit="10" stroke-width="5.67"/>
    <line x1="855.13" y1="583.2" x2="855.15" y2="589.24" fill="none" stroke="#c9d1d9" stroke-miterlimit="10" stroke-width="5.67"/>
    <line x1="855.18" y1="602.43" x2="855.37" y2="674.97" fill="none" stroke="#c9d1d9" stroke-dasharray="0 0 0 0 0 0 13.19 13.19" stroke-miterlimit="10" stroke-width="5.67"/>
    <line x1="855.38" y1="681.56" x2="855.4" y2="687.6" fill="none" stroke="#c9d1d9" stroke-miterlimit="10" stroke-width="5.67"/>
    <line x1="1748.2" y1="583.2" x2="1748.2" y2="589.24" fill="none" stroke="#c9d1d9" stroke-miterlimit="10" stroke-width="5.67"/>
    <line x1="1748.2" y1="602.43" x2="1748.2" y2="674.97" fill="none" stroke="#c9d1d9" stroke-dasharray="0 0 0 0 0 0 13.19 13.19" stroke-miterlimit="10" stroke-width="5.67"/>
    <line x1="1748.2" y1="681.56" x2="1748.2" y2="687.6" fill="none" stroke="#c9d1d9" stroke-miterlimit="10" stroke-width="5.67"/>
    <line x1="1845.4" y1="583.2" x2="1845.4" y2="589.24" fill="none" stroke="#c9d1d9" stroke-miterlimit="10" stroke-width="5.67"/>
    <line x1="1845.4" y1="602.43" x2="1845.4" y2="674.97" fill="none" stroke="#c9d1d9" stroke-dasharray="0 0 0 0 0 0 13.19 13.19" stroke-miterlimit="10" stroke-width="5.67"/>
    <line x1="1845.4" y1="681.56" x2="1845.4" y2="687.6" fill="none" stroke="#c9d1d9" stroke-miterlimit="10" stroke-width="5.67"/>
  </g>
  <g id="uuid-0b645fa5-ead5-4534-be35-1ac44df2befa">
    <line x1="340.6" y1="295.2" x2="85" y2="583.2" fill="none" stroke="#9b48cc" stroke-miterlimit="10" stroke-width="8.5"/>
    <line x1="365.6" y1="323.37" x2="596.2" y2="583.2" fill="none" stroke="#9b48cc" stroke-miterlimit="10" stroke-width="8.5"/>
    <polygon points="361.96 337.88 340.59 295.21 380.44 321.48 361.96 337.88" fill="#9b48cc"/>
    <line x1="596.2" y1="7.2" x2="592.19" y2="11.72" fill="none" stroke="#9b48cc" stroke-miterlimit="10" stroke-width="2.83"/>
    <line x1="584.2" y1="20.72" x2="348.6" y2="286.18" fill="none" stroke="#9b48cc" stroke-dasharray="0 0 0 0 0 0 12.03 12.03" stroke-miterlimit="10" stroke-width="2.83"/>
    <line x1="344.61" y1="290.68" x2="340.6" y2="295.2" fill="none" stroke="#9b48cc" stroke-miterlimit="10" stroke-width="2.83"/>
    <line x1="603.02" y1="687.6" x2="848.58" y2="687.6" fill="none" stroke="#c9d1d9" stroke-miterlimit="10" stroke-width="5.67"/>
    <path d="m641.76,714.81c.84-1.32.45-3.07-.87-3.91l-36.58-23.3,36.58-23.3c1.32-.84,1.72-2.6.87-3.91s-2.61-1.7-3.92-.87l-40.33,25.69c-.81.52-1.31,1.42-1.31,2.39s.5,1.87,1.31,2.39l40.33,25.69c.48.3,1,.44,1.52.44.94,0,1.85-.47,2.4-1.31h0Z" fill="#c9d1d9"/>
    <path d="m809.84,714.81c-.84-1.32-.45-3.07.87-3.91l36.58-23.3-36.58-23.3c-1.32-.84-1.72-2.6-.87-3.91s2.61-1.7,3.92-.87l40.33,25.69c.81.52,1.31,1.42,1.31,2.39s-.5,1.87-1.31,2.39l-40.33,25.69c-.48.3-1,.44-1.52.44-.94,0-1.85-.47-2.4-1.31h0Z" fill="#c9d1d9"/>
    <line x1="1852.22" y1="687.6" x2="1913.8" y2="687.6" fill="none" stroke="#c9d1d9" stroke-miterlimit="10" stroke-width="5.67"/>
    <path d="m1890.96,714.81c.84-1.32.45-3.07-.87-3.91l-36.58-23.3,36.58-23.3c1.32-.84,1.72-2.6.87-3.91s-2.61-1.7-3.92-.87l-40.33,25.69c-.81.52-1.31,1.42-1.31,2.39s.5,1.87,1.31,2.39l40.33,25.69c.48.3,1,.44,1.52.44.94,0,1.85-.47,2.4-1.31h0Z" fill="#c9d1d9"/>
    <line x1="1741.38" y1="687.6" x2="1679.8" y2="687.6" fill="none" stroke="#c9d1d9" stroke-miterlimit="10" stroke-width="5.67"/>
    <path d="m1702.64,660.39c-.84,1.32-.45,3.07.87,3.91l36.58,23.3-36.58,23.3c-1.32.84-1.72,2.6-.87,3.91s2.61,1.7,3.92.87l40.33-25.69c.81-.52,1.31-1.42,1.31-2.39s-.5-1.87-1.31-2.39l-40.33-25.69c-.48-.3-1-.44-1.52-.44-.94,0-1.85.47-2.4,1.31h0Z" fill="#c9d1d9"/>
    <circle cx="1748.2" cy="583.2" r="7.2" fill="#1da37d" stroke="#1da37d" stroke-miterlimit="10" stroke-width="19.84"/>
    <circle cx="596.2" cy="583.2" r="7.2" fill="#9b48cc" stroke="#9b48cc" stroke-miterlimit="10" stroke-width="19.84"/>
  </g>
  <g id="uuid-0a0524be-0a0c-438b-88ba-984ebe0725af">
    <path d="m1845.12,583.2c0-201.78-33.96-395.64-96.47-576.16" fill="none" stroke="#1da37d" stroke-miterlimit="10" stroke-width="2.83"/>
    <path d="m855.13,583.2c0-229.15-100.08-434.93-258.93-576" fill="none" stroke="#9b48cc" stroke-miterlimit="10" stroke-width="2.83"/>
    <g isolation="isolate">
      <g isolation="isolate">
        <path d="m708.521,707.475h3.984l13.57,34.125h-31.969l14.414-34.125Zm-8.273,30.445h19.781l-9.586-24.938-10.195,24.938Z" fill="#c9d1d9"/>
      </g>
      <g isolation="isolate">
        <path d="m735.994,710.1v6.141h4.734v3.352h-4.734v15.746c0,1.018.211,1.78.633,2.288.422.509,1.141.763,2.156.763.5,0,1.188-.094,2.062-.281v3.495c-1.141.311-2.25.466-3.328.466-1.938,0-3.398-.586-4.383-1.758s-1.477-2.836-1.477-4.992v-15.727h-4.617v-3.352h4.617v-6.141h4.336Z" fill="#c9d1d9"/>
      </g>
    </g>
    <g isolation="isolate">
      <g isolation="isolate">
        <path d="m752.42,757.58h-2.528v-16.761l-5.071,1.862v-2.284l7.205-2.705h.395v19.888Z" fill="#c9d1d9"/>
      </g>
    </g>
    <g isolation="isolate">
      <g isolation="isolate">
        <path d="m1779.121,707.475h3.984l13.57,34.125h-31.969l14.414-34.125Zm-8.273,30.445h19.781l-9.586-24.938-10.195,24.938Z" fill="#c9d1d9"/>
      </g>
      <g isolation="isolate">
        <path d="m1806.594,710.1v6.141h4.734v3.352h-4.734v15.746c0,1.018.211,1.78.633,2.288.422.509,1.141.763,2.156.763.5,0,1.188-.094,2.062-.281v3.495c-1.141.311-2.25.466-3.328.466-1.938,0-3.398-.586-4.383-1.758s-1.477-2.836-1.477-4.992v-15.727h-4.617v-3.352h4.617v-6.141h4.336Z" fill="#c9d1d9"/>
      </g>
    </g>
    <g isolation="isolate">
      <g isolation="isolate">
        <path d="m1827.723,757.58h-12.969v-1.808l6.852-7.613c1.015-1.15,1.715-2.086,2.101-2.807.385-.721.577-1.466.577-2.236,0-1.033-.312-1.88-.938-2.542-.626-.661-1.459-.992-2.502-.992-1.25,0-2.222.355-2.915,1.067-.693.711-1.04,1.701-1.04,2.97h-2.515c0-1.821.586-3.294,1.76-4.418,1.174-1.123,2.744-1.686,4.71-1.686,1.84,0,3.295.482,4.364,1.448,1.069.965,1.604,2.249,1.604,3.854,0,1.948-1.241,4.269-3.725,6.96l-5.302,5.75h9.938v2.053Z" fill="#c9d1d9"/>
      </g>
    </g>
    <path d="m600.82,463.59c-3.86-1.11-6.67-2.47-8.43-4.09s-2.64-3.61-2.64-5.99c0-2.69,1.07-4.91,3.22-6.67s4.94-2.64,8.38-2.64c2.34,0,4.43.45,6.27,1.36s3.26,2.16,4.27,3.75,1.51,3.34,1.51,5.23h-4.52c0-2.07-.66-3.7-1.97-4.88s-3.16-1.78-5.55-1.78c-2.22,0-3.95.49-5.19,1.47s-1.86,2.34-1.86,4.07c0,1.39.59,2.57,1.77,3.53s3.19,1.84,6.02,2.64c2.84.8,5.05,1.68,6.66,2.64s2.79,2.08,3.56,3.36,1.16,2.79,1.16,4.52c0,2.77-1.08,4.98-3.23,6.64s-5.04,2.5-8.65,2.5c-2.34,0-4.53-.45-6.56-1.35s-3.6-2.13-4.7-3.69-1.65-3.34-1.65-5.32h4.52c0,2.06.76,3.69,2.29,4.89s3.56,1.79,6.11,1.79c2.38,0,4.2-.48,5.46-1.45s1.9-2.29,1.9-3.96-.59-2.96-1.76-3.88-3.3-1.82-6.38-2.71l-.01.02Z" fill="#c9d1d9"/>
    <path d="m617.41,465.89c0-2.48.49-4.72,1.46-6.7s2.34-3.52,4.08-4.59,3.73-1.62,5.96-1.62c3.45,0,6.25,1.2,8.38,3.59s3.2,5.57,3.2,9.54v.3c0,2.47-.47,4.68-1.42,6.64s-2.3,3.49-4.05,4.58-3.78,1.64-6.06,1.64c-3.44,0-6.22-1.2-8.36-3.59s-3.2-5.55-3.2-9.49v-.3h.01Zm4.36.51c0,2.81.65,5.07,1.96,6.77s3.05,2.55,5.24,2.55,3.95-.86,5.25-2.59,1.95-4.14,1.95-7.25c0-2.78-.66-5.04-1.98-6.76s-3.07-2.59-5.26-2.59-3.87.85-5.18,2.55-1.97,4.14-1.97,7.31l-.01.01Z" fill="#c9d1d9"/>
    <path d="m661.59,476.29c-1.69,1.98-4.16,2.98-7.43,2.98-2.7,0-4.76-.79-6.18-2.36s-2.13-3.89-2.14-6.97v-16.5h4.34v16.38c0,3.84,1.56,5.77,4.69,5.77,3.31,0,5.52-1.23,6.61-3.7v-18.45h4.34v25.36h-4.12l-.09-2.51h-.02Z" fill="#c9d1d9"/>
    <path d="m676.5,453.44l.14,3.19c1.94-2.44,4.47-3.66,7.59-3.66,5.36,0,8.06,3.02,8.11,9.07v16.76h-4.34v-16.78c-.02-1.83-.43-3.18-1.25-4.05s-2.1-1.31-3.83-1.31c-1.41,0-2.64.38-3.7,1.12s-1.89,1.73-2.48,2.95v18.07h-4.34v-25.36h4.1Z" fill="#c9d1d9"/>
    <path d="m697.82,465.91c0-3.89.92-7.02,2.77-9.39s4.26-3.55,7.24-3.55,5.32,1.02,7.05,3.05v-13.22h4.34v36h-3.98l-.21-2.72c-1.73,2.12-4.15,3.19-7.24,3.19s-5.33-1.2-7.18-3.61-2.78-5.55-2.78-9.42v-.33h-.01Zm4.34.49c0,2.88.59,5.12,1.78,6.75s2.83,2.44,4.92,2.44c2.75,0,4.76-1.23,6.02-3.7v-11.65c-1.3-2.39-3.29-3.59-5.98-3.59-2.12,0-3.78.82-4.97,2.46s-1.78,4.07-1.78,7.29h.01Z" fill="#c9d1d9"/>
    <path d="m604.85,529.67c0-1.17-.44-2.08-1.32-2.73s-2.42-1.21-4.62-1.68-3.94-1.03-5.23-1.69-2.24-1.44-2.86-2.34-.93-1.98-.93-3.23c0-2.08.88-3.84,2.64-5.27s4-2.16,6.74-2.16c2.88,0,5.21.74,7,2.23,1.79,1.49,2.68,3.38,2.68,5.7h-4.36c0-1.19-.5-2.21-1.51-3.07s-2.28-1.29-3.81-1.29-2.81.34-3.7,1.03-1.34,1.59-1.34,2.7c0,1.05.41,1.84,1.24,2.37s2.32,1.04,4.49,1.52,3.92,1.06,5.26,1.73,2.34,1.48,2.99,2.43.97,2.1.97,3.46c0,2.27-.91,4.08-2.72,5.45s-4.16,2.05-7.05,2.05c-2.03,0-3.83-.36-5.39-1.08s-2.79-1.72-3.67-3.01-1.32-2.68-1.32-4.18h4.34c.08,1.45.66,2.61,1.75,3.46s2.52,1.28,4.3,1.28c1.64,0,2.96-.33,3.95-1s1.49-1.55,1.49-2.66l-.01-.02Z" fill="#c9d1d9"/>
    <path d="m613.68,523.49c0-2.48.49-4.72,1.46-6.7s2.34-3.52,4.08-4.59,3.73-1.62,5.96-1.62c3.45,0,6.25,1.2,8.38,3.59s3.2,5.57,3.2,9.54v.3c0,2.47-.47,4.68-1.42,6.64s-2.3,3.49-4.05,4.58-3.78,1.64-6.06,1.64c-3.44,0-6.22-1.2-8.36-3.59s-3.2-5.55-3.2-9.49v-.3h.01Zm4.36.51c0,2.81.65,5.07,1.96,6.77s3.05,2.55,5.24,2.55,3.95-.86,5.25-2.59,1.95-4.14,1.95-7.25c0-2.78-.66-5.04-1.98-6.76s-3.07-2.59-5.26-2.59-3.87.85-5.18,2.55-1.97,4.14-1.97,7.31l-.01.01Z" fill="#c9d1d9"/>
    <path d="m657.86,533.89c-1.69,1.98-4.16,2.98-7.43,2.98-2.7,0-4.76-.79-6.18-2.36s-2.13-3.89-2.14-6.97v-16.5h4.34v16.38c0,3.84,1.56,5.77,4.69,5.77,3.31,0,5.52-1.23,6.61-3.7v-18.45h4.34v25.36h-4.12l-.09-2.51h-.02Z" fill="#c9d1d9"/>
    <path d="m680.93,514.93c-.66-.11-1.37-.16-2.13-.16-2.84,0-4.77,1.21-5.79,3.63v18h-4.34v-25.36h4.22l.07,2.93c1.42-2.27,3.44-3.4,6.05-3.4.84,0,1.48.11,1.92.33v4.03h0Z" fill="#c9d1d9"/>
    <path d="m694.64,533.33c1.55,0,2.9-.47,4.05-1.41s1.8-2.11,1.92-3.52h4.1c-.08,1.45-.58,2.84-1.5,4.15s-2.15,2.36-3.69,3.14-3.17,1.17-4.89,1.17c-3.45,0-6.2-1.15-8.24-3.46s-3.06-5.46-3.06-9.46v-.73c0-2.47.45-4.66,1.36-6.59s2.21-3.41,3.9-4.48,3.7-1.59,6.01-1.59c2.84,0,5.21.85,7.09,2.55s2.89,3.91,3.01,6.63h-4.1c-.12-1.64-.75-2.99-1.86-4.04s-2.5-1.58-4.14-1.58c-2.2,0-3.91.79-5.12,2.38s-1.82,3.88-1.82,6.88v.82c0,2.92.6,5.17,1.8,6.75s2.92,2.37,5.16,2.37l.02.02Z" fill="#c9d1d9"/>
    <path d="m720.11,536.87c-3.44,0-6.23-1.13-8.39-3.39s-3.23-5.28-3.23-9.06v-.8c0-2.52.48-4.76,1.44-6.74s2.3-3.52,4.03-4.64,3.6-1.68,5.61-1.68c3.3,0,5.86,1.09,7.69,3.26,1.83,2.17,2.74,5.28,2.74,9.33v1.8h-17.18c.06,2.5.79,4.52,2.19,6.06s3.18,2.31,5.33,2.31c1.53,0,2.83-.31,3.89-.94s1.99-1.45,2.79-2.48l2.65,2.06c-2.12,3.27-5.31,4.9-9.56,4.9v.01Zm-.54-22.74c-1.75,0-3.22.64-4.41,1.91s-1.92,3.06-2.2,5.36h12.7v-.33c-.12-2.2-.72-3.91-1.78-5.12s-2.5-1.82-4.31-1.82h0Z" fill="#c9d1d9"/>
    <path d="m760.71,536.4h-4.36v-28.9l-8.74,3.21v-3.94l12.42-4.66h.68v34.29Z" fill="#c9d1d9"/>
    <path d="m1637.62,441.99c-3.86-1.11-6.67-2.47-8.43-4.09s-2.64-3.61-2.64-5.99c0-2.69,1.07-4.91,3.22-6.67s4.94-2.64,8.38-2.64c2.34,0,4.43.45,6.27,1.36s3.26,2.16,4.27,3.75,1.51,3.34,1.51,5.23h-4.52c0-2.07-.66-3.7-1.97-4.88-1.31-1.18-3.16-1.78-5.55-1.78-2.22,0-3.95.49-5.19,1.47s-1.86,2.34-1.86,4.07c0,1.39.59,2.57,1.77,3.53s3.19,1.84,6.02,2.64c2.84.8,5.05,1.68,6.66,2.64s2.79,2.08,3.56,3.36,1.16,2.79,1.16,4.52c0,2.77-1.08,4.98-3.23,6.64s-5.04,2.5-8.65,2.5c-2.34,0-4.53-.45-6.56-1.35s-3.6-2.13-4.7-3.69-1.65-3.34-1.65-5.32h4.52c0,2.06.76,3.69,2.29,4.89s3.56,1.79,6.11,1.79c2.38,0,4.2-.48,5.46-1.45s1.9-2.29,1.9-3.96-.59-2.96-1.76-3.88-3.3-1.82-6.38-2.71l-.01.02Z" fill="#c9d1d9"/>
    <path d="m1654.21,444.29c0-2.48.49-4.72,1.46-6.7s2.34-3.52,4.08-4.59,3.73-1.62,5.96-1.62c3.45,0,6.25,1.2,8.38,3.59s3.2,5.57,3.2,9.54v.3c0,2.47-.47,4.68-1.42,6.64s-2.3,3.49-4.05,4.58-3.78,1.64-6.06,1.64c-3.44,0-6.22-1.2-8.36-3.59s-3.2-5.55-3.2-9.49v-.3h.01Zm4.36.51c0,2.81.65,5.07,1.96,6.77s3.05,2.55,5.24,2.55,3.95-.86,5.25-2.59,1.95-4.14,1.95-7.25c0-2.78-.66-5.04-1.98-6.76s-3.07-2.59-5.26-2.59-3.87.85-5.18,2.55-1.97,4.14-1.97,7.31l-.01.01Z" fill="#c9d1d9"/>
    <path d="m1698.39,454.69c-1.69,1.98-4.16,2.98-7.43,2.98-2.7,0-4.76-.79-6.18-2.36s-2.13-3.89-2.14-6.97v-16.5h4.34v16.38c0,3.84,1.56,5.77,4.69,5.77,3.31,0,5.52-1.23,6.61-3.7v-18.45h4.34v25.36h-4.12l-.09-2.51h-.02Z" fill="#c9d1d9"/>
    <path d="m1713.29,431.84l.14,3.19c1.94-2.44,4.47-3.66,7.59-3.66,5.36,0,8.06,3.02,8.11,9.07v16.76h-4.34v-16.78c-.02-1.83-.43-3.18-1.25-4.05s-2.1-1.31-3.83-1.31c-1.41,0-2.64.38-3.7,1.12s-1.89,1.73-2.48,2.95v18.07h-4.34v-25.36h4.1,0Z" fill="#c9d1d9"/>
    <path d="m1734.62,444.31c0-3.89.92-7.02,2.77-9.39s4.26-3.55,7.24-3.55,5.32,1.02,7.05,3.05v-13.22h4.34v36h-3.98l-.21-2.72c-1.73,2.12-4.15,3.19-7.24,3.19s-5.33-1.2-7.18-3.61-2.78-5.55-2.78-9.42v-.33h-.01Zm4.34.49c0,2.88.59,5.12,1.78,6.75s2.83,2.44,4.92,2.44c2.75,0,4.76-1.23,6.02-3.7v-11.65c-1.3-2.39-3.29-3.59-5.98-3.59-2.12,0-3.78.82-4.97,2.46s-1.78,4.07-1.78,7.29h.01Z" fill="#c9d1d9"/>
    <path d="m1641.65,508.07c0-1.17-.44-2.08-1.32-2.73s-2.42-1.21-4.62-1.68-3.94-1.03-5.23-1.69-2.24-1.44-2.86-2.34-.93-1.98-.93-3.23c0-2.08.88-3.84,2.64-5.27s4-2.16,6.74-2.16c2.88,0,5.21.74,7,2.23s2.68,3.38,2.68,5.7h-4.36c0-1.19-.5-2.21-1.51-3.07s-2.28-1.29-3.81-1.29-2.81.34-3.7,1.03-1.34,1.59-1.34,2.7c0,1.05.41,1.84,1.24,2.37s2.32,1.04,4.49,1.52,3.92,1.06,5.26,1.73,2.34,1.48,2.99,2.43.97,2.1.97,3.46c0,2.27-.91,4.08-2.72,5.45s-4.16,2.05-7.05,2.05c-2.03,0-3.83-.36-5.39-1.08s-2.79-1.72-3.67-3.01-1.32-2.68-1.32-4.18h4.34c.08,1.45.66,2.61,1.75,3.46s2.52,1.28,4.3,1.28c1.64,0,2.96-.33,3.95-1s1.49-1.55,1.49-2.66l-.01-.02Z" fill="#c9d1d9"/>
    <path d="m1650.48,501.89c0-2.48.49-4.72,1.46-6.7s2.34-3.52,4.08-4.59,3.73-1.62,5.96-1.62c3.45,0,6.25,1.2,8.38,3.59s3.2,5.57,3.2,9.54v.3c0,2.47-.47,4.68-1.42,6.64s-2.3,3.49-4.05,4.58-3.78,1.64-6.06,1.64c-3.44,0-6.22-1.2-8.36-3.59s-3.2-5.55-3.2-9.49v-.3h.01Zm4.36.51c0,2.81.65,5.07,1.96,6.77s3.05,2.55,5.24,2.55,3.95-.86,5.25-2.59,1.95-4.14,1.95-7.25c0-2.78-.66-5.04-1.98-6.76s-3.07-2.59-5.26-2.59-3.87.85-5.18,2.55-1.97,4.14-1.97,7.31l-.01.01Z" fill="#c9d1d9"/>
    <path d="m1694.66,512.29c-1.69,1.98-4.16,2.98-7.43,2.98-2.7,0-4.76-.79-6.18-2.36s-2.13-3.89-2.14-6.97v-16.5h4.34v16.38c0,3.84,1.56,5.77,4.69,5.77,3.31,0,5.52-1.23,6.61-3.7v-18.45h4.34v25.36h-4.12l-.09-2.51h-.02Z" fill="#c9d1d9"/>
    <path d="m1717.72,493.33c-.66-.11-1.37-.16-2.13-.16-2.84,0-4.77,1.21-5.79,3.63v18h-4.34v-25.36h4.22l.07,2.93c1.42-2.27,3.44-3.4,6.05-3.4.84,0,1.48.11,1.92.33v4.03Z" fill="#c9d1d9"/>
    <path d="m1731.44,511.73c1.55,0,2.9-.47,4.05-1.41s1.8-2.11,1.92-3.52h4.1c-.08,1.45-.58,2.84-1.5,4.15s-2.15,2.36-3.69,3.14-3.17,1.17-4.89,1.17c-3.45,0-6.2-1.15-8.24-3.46s-3.06-5.46-3.06-9.46v-.73c0-2.47.45-4.66,1.36-6.59s2.21-3.41,3.9-4.48,3.7-1.59,6.01-1.59c2.84,0,5.21.85,7.09,2.55s2.89,3.91,3.01,6.63h-4.1c-.12-1.64-.75-2.99-1.86-4.04s-2.5-1.58-4.14-1.58c-2.2,0-3.91.79-5.12,2.38s-1.82,3.88-1.82,6.88v.82c0,2.92.6,5.17,1.8,6.75s2.92,2.37,5.16,2.37l.02.02Z" fill="#c9d1d9"/>
    <path d="m1756.91,515.27c-3.44,0-6.23-1.13-8.39-3.39s-3.23-5.28-3.23-9.06v-.8c0-2.52.48-4.76,1.44-6.74s2.3-3.52,4.03-4.64,3.6-1.68,5.61-1.68c3.3,0,5.86,1.09,7.69,3.26s2.74,5.28,2.74,9.33v1.8h-17.18c.06,2.5.79,4.52,2.19,6.06s3.18,2.31,5.33,2.31c1.53,0,2.83-.31,3.89-.94s1.99-1.45,2.79-2.48l2.65,2.06c-2.12,3.27-5.31,4.9-9.56,4.9v.01Zm-.54-22.74c-1.75,0-3.22.64-4.41,1.91s-1.92,3.06-2.2,5.36h12.7v-.33c-.12-2.2-.72-3.91-1.78-5.12s-2.5-1.82-4.31-1.82h0Z" fill="#c9d1d9"/>
    <path d="m1805.62,514.8h-22.36v-3.12l11.81-13.12c1.75-1.98,2.96-3.6,3.62-4.84s1-2.53,1-3.86c0-1.78-.54-3.24-1.62-4.38s-2.52-1.71-4.31-1.71c-2.16,0-3.83.61-5.03,1.84s-1.79,2.93-1.79,5.12h-4.34c0-3.14,1.01-5.68,3.04-7.62s4.73-2.91,8.12-2.91c3.17,0,5.68.83,7.52,2.5s2.77,3.88,2.77,6.64c0,3.36-2.14,7.36-6.42,12l-9.14,9.91h17.13v3.55Z" fill="#c9d1d9"/>
    <g isolation="isolate">
      <g isolation="isolate">
        <path d="m7.734,723.521h16.172v3.68H3.211v-34.125h4.523v30.445Z" fill="#c9d1d9"/>
        <path d="m28.383,695.114c0-.703.215-1.297.645-1.781s1.066-.727,1.91-.727,1.484.242,1.922.727.656,1.078.656,1.781-.219,1.289-.656,1.758-1.078.703-1.922.703-1.48-.234-1.91-.703-.645-1.055-.645-1.758Zm4.688,32.086h-4.336v-25.359h4.336v25.359Z" fill="#c9d1d9"/>
        <path d="m54.773,720.474c0-1.172-.441-2.082-1.324-2.73s-2.422-1.207-4.617-1.676-3.938-1.031-5.227-1.688-2.242-1.438-2.859-2.344-.926-1.984-.926-3.234c0-2.078.879-3.836,2.637-5.273s4.004-2.156,6.738-2.156c2.875,0,5.207.742,6.996,2.227s2.684,3.383,2.684,5.695h-4.359c0-1.188-.504-2.211-1.512-3.07s-2.277-1.289-3.809-1.289c-1.578,0-2.812.344-3.703,1.031s-1.336,1.586-1.336,2.695c0,1.047.414,1.836,1.242,2.367s2.324,1.039,4.488,1.523,3.918,1.062,5.262,1.734,2.34,1.48,2.988,2.426.973,2.098.973,3.457c0,2.266-.906,4.082-2.719,5.449s-4.164,2.051-7.055,2.051c-2.031,0-3.828-.359-5.391-1.078s-2.785-1.723-3.668-3.012-1.324-2.684-1.324-4.184h4.336c.078,1.453.66,2.605,1.746,3.457s2.52,1.277,4.301,1.277c1.641,0,2.957-.332,3.949-.996s1.488-1.551,1.488-2.66Z" fill="#c9d1d9"/>
        <path d="m70.641,695.7v6.141h4.734v3.352h-4.734v15.746c0,1.018.211,1.78.633,2.288.422.509,1.141.763,2.156.763.5,0,1.188-.094,2.062-.281v3.495c-1.141.311-2.25.466-3.328.466-1.938,0-3.398-.586-4.383-1.758s-1.477-2.836-1.477-4.992v-15.727h-4.617v-3.352h4.617v-6.141h4.336Z" fill="#c9d1d9"/>
        <path d="m90.961,727.669c-3.438,0-6.234-1.129-8.391-3.387s-3.234-5.277-3.234-9.059v-.797c0-2.516.48-4.762,1.441-6.738s2.305-3.523,4.031-4.641,3.598-1.676,5.613-1.676c3.297,0,5.859,1.086,7.688,3.258s2.742,5.281,2.742,9.328v1.805h-17.18c.062,2.5.793,4.52,2.191,6.059s3.176,2.309,5.332,2.309c1.531,0,2.828-.312,3.891-.938s1.992-1.453,2.789-2.484l2.648,2.062c-2.125,3.266-5.312,4.898-9.562,4.898Zm-.539-22.734c-1.75,0-3.219.637-4.406,1.91s-1.922,3.059-2.203,5.355h12.703v-.328c-.125-2.203-.719-3.91-1.781-5.121s-2.5-1.816-4.312-1.816Z" fill="#c9d1d9"/>
        <path d="m109.969,701.841l.141,3.188c1.938-2.438,4.469-3.656,7.594-3.656,5.359,0,8.062,3.023,8.109,9.07v16.758h-4.336v-16.781c-.016-1.828-.434-3.18-1.254-4.055s-2.098-1.312-3.832-1.312c-1.406,0-2.641.375-3.703,1.125s-1.891,1.734-2.484,2.953v18.07h-4.336v-25.359h4.102Z" fill="#c9d1d9"/>
        <path d="m142.875,727.669c-3.438,0-6.234-1.129-8.391-3.387s-3.234-5.277-3.234-9.059v-.797c0-2.516.48-4.762,1.441-6.738s2.305-3.523,4.031-4.641,3.598-1.676,5.613-1.676c3.297,0,5.859,1.086,7.688,3.258s2.742,5.281,2.742,9.328v1.805h-17.18c.062,2.5.793,4.52,2.191,6.059s3.176,2.309,5.332,2.309c1.531,0,2.828-.312,3.891-.938s1.992-1.453,2.789-2.484l2.648,2.062c-2.125,3.266-5.312,4.898-9.562,4.898Zm-.539-22.734c-1.75,0-3.219.637-4.406,1.91s-1.922,3.059-2.203,5.355h12.703v-.328c-.125-2.203-.719-3.91-1.781-5.121s-2.5-1.816-4.312-1.816Z" fill="#c9d1d9"/>
        <path d="m170.039,705.731c-.656-.109-1.367-.164-2.133-.164-2.844,0-4.773,1.211-5.789,3.633v18h-4.336v-25.359h4.219l.07,2.93c1.422-2.266,3.438-3.398,6.047-3.398.844,0,1.484.109,1.922.328v4.031Z" fill="#c9d1d9"/>
      </g>
    </g>
    <g isolation="isolate">
      <g isolation="isolate">
        <path d="m56.077,241.795h-8.016v13.805h-4.523v-34.125h11.297c3.844,0,6.801.875,8.871,2.625s3.105,4.297,3.105,7.641c0,2.125-.574,3.977-1.723,5.555s-2.746,2.758-4.793,3.539l8.016,14.484v.281h-4.828l-7.406-13.805Zm-8.016-3.68h6.914c2.234,0,4.012-.579,5.332-1.737s1.98-2.708,1.98-4.649c0-2.113-.629-3.732-1.887-4.86-1.258-1.127-3.074-1.698-5.449-1.714h-6.891v12.961Z" fill="#c9d1d9"/>
        <path d="m82.959,256.069c-3.438,0-6.234-1.129-8.391-3.387s-3.234-5.277-3.234-9.059v-.797c0-2.516.48-4.762,1.441-6.738s2.305-3.523,4.031-4.641,3.598-1.676,5.613-1.676c3.297,0,5.859,1.086,7.688,3.258s2.742,5.281,2.742,9.328v1.805h-17.18c.062,2.5.793,4.52,2.191,6.059s3.176,2.309,5.332,2.309c1.531,0,2.828-.312,3.891-.938s1.992-1.453,2.789-2.484l2.648,2.062c-2.125,3.266-5.312,4.898-9.562,4.898Zm-.539-22.734c-1.75,0-3.219.637-4.406,1.91s-1.922,3.059-2.203,5.355h12.703v-.328c-.125-2.203-.719-3.91-1.781-5.121s-2.5-1.816-4.312-1.816Z" fill="#c9d1d9"/>
        <path d="m99.999,255.6v-22.008h-4.008v-3.352h4.008v-2.602c0-2.719.727-4.82,2.18-6.305s3.508-2.227,6.164-2.227c1,0,1.992.132,2.977.396l-.234,3.495c-.734-.141-1.516-.211-2.344-.211-1.406,0-2.492.412-3.258,1.234-.766.823-1.148,2.003-1.148,3.538v2.681h5.414v3.352h-5.414v22.008h-4.336Z" fill="#c9d1d9"/>
        <path d="m119.241,255.6h-4.336v-36h4.336v36Z" fill="#c9d1d9"/>
        <path d="m136.702,256.069c-3.438,0-6.234-1.129-8.391-3.387s-3.234-5.277-3.234-9.059v-.797c0-2.516.48-4.762,1.441-6.738s2.305-3.523,4.031-4.641,3.598-1.676,5.613-1.676c3.297,0,5.859,1.086,7.688,3.258s2.742,5.281,2.742,9.328v1.805h-17.18c.062,2.5.793,4.52,2.191,6.059s3.176,2.309,5.332,2.309c1.531,0,2.828-.312,3.891-.938s1.992-1.453,2.789-2.484l2.648,2.062c-2.125,3.266-5.312,4.898-9.562,4.898Zm-.539-22.734c-1.75,0-3.219.637-4.406,1.91s-1.922,3.059-2.203,5.355h12.703v-.328c-.125-2.203-.719-3.91-1.781-5.121s-2.5-1.816-4.312-1.816Z" fill="#c9d1d9"/>
        <path d="m161.78,252.53c1.547,0,2.898-.469,4.055-1.406s1.797-2.109,1.922-3.516h4.102c-.078,1.453-.578,2.836-1.5,4.148s-2.152,2.359-3.691,3.141-3.168,1.172-4.887,1.172c-3.453,0-6.199-1.152-8.238-3.457s-3.059-5.457-3.059-9.457v-.727c0-2.469.453-4.664,1.359-6.586s2.207-3.414,3.902-4.477,3.699-1.594,6.012-1.594c2.844,0,5.207.852,7.09,2.555s2.887,3.914,3.012,6.633h-4.102c-.125-1.641-.746-2.988-1.863-4.043s-2.496-1.582-4.137-1.582c-2.203,0-3.91.793-5.121,2.379s-1.816,3.879-1.816,6.879v.82c0,2.922.602,5.172,1.805,6.75s2.922,2.367,5.156,2.367Z" fill="#c9d1d9"/>
        <path d="m182.616,224.1v6.141h4.734v3.352h-4.734v15.746c0,1.018.211,1.78.633,2.288.422.509,1.141.763,2.156.763.5,0,1.188-.094,2.062-.281v3.495c-1.141.311-2.25.466-3.328.466-1.938,0-3.398-.586-4.383-1.758s-1.477-2.836-1.477-4.992v-15.727h-4.617v-3.352h4.617v-6.141h4.336Z" fill="#c9d1d9"/>
        <path d="m192.436,223.514c0-.703.215-1.297.645-1.781s1.066-.727,1.91-.727,1.484.242,1.922.727.656,1.078.656,1.781-.219,1.289-.656,1.758-1.078.703-1.922.703-1.48-.234-1.91-.703-.645-1.055-.645-1.758Zm4.688,32.086h-4.336v-25.359h4.336v25.359Z" fill="#c9d1d9"/>
        <path d="m208.163,230.241l.141,3.188c1.938-2.438,4.469-3.656,7.594-3.656,5.359,0,8.062,3.023,8.109,9.07v16.758h-4.336v-16.781c-.016-1.828-.434-3.18-1.254-4.055s-2.098-1.312-3.832-1.312c-1.406,0-2.641.375-3.703,1.125s-1.891,1.734-2.484,2.953v18.07h-4.336v-25.359h4.102Z" fill="#c9d1d9"/>
        <path d="m229.514,242.709c0-3.953.914-7.098,2.742-9.434s4.25-3.504,7.266-3.504c3.094,0,5.508,1.094,7.242,3.281l.211-2.812h3.961v24.75c0,3.281-.973,5.867-2.918,7.758s-4.559,2.836-7.84,2.836c-1.828,0-3.617-.391-5.367-1.172s-3.086-1.852-4.008-3.211l2.25-2.602c1.859,2.297,4.133,3.445,6.82,3.445,2.109,0,3.754-.594,4.934-1.781s1.77-2.859,1.77-5.016v-2.18c-1.734,2-4.102,3-7.102,3-2.969,0-5.371-1.195-7.207-3.586s-2.754-5.648-2.754-9.773Zm4.359.492c0,2.859.586,5.105,1.758,6.738s2.812,2.449,4.922,2.449c2.734,0,4.742-1.242,6.023-3.727v-11.578c-1.328-2.422-3.32-3.633-5.977-3.633-2.109,0-3.758.82-4.945,2.461s-1.781,4.07-1.781,7.289Z" fill="#c9d1d9"/>
      </g>
      <g isolation="isolate">
        <path d="m277.4,244.842l.656,4.5.961-4.055,6.75-23.812h3.797l6.586,23.812.938,4.125.727-4.594,5.297-23.344h4.523l-8.273,34.125h-4.102l-7.031-24.867-.539-2.602-.539,2.602-7.289,24.867h-4.102l-8.25-34.125h4.5l5.391,23.367Z" fill="#c9d1d9"/>
      </g>
      <g isolation="isolate">
        <path d="m326.828,255.6c-.25-.5-.453-1.391-.609-2.672-2.016,2.094-4.422,3.141-7.219,3.141-2.5,0-4.551-.707-6.152-2.121s-2.402-3.207-2.402-5.379c0-2.641,1.004-4.691,3.012-6.152s4.832-2.191,8.473-2.191h4.219v-1.992c0-1.516-.453-2.723-1.359-3.621s-2.242-1.348-4.008-1.348c-1.547,0-2.844.391-3.891,1.172s-1.57,1.727-1.57,2.836h-4.359c0-1.266.449-2.488,1.348-3.668s2.117-2.113,3.656-2.801,3.23-1.031,5.074-1.031c2.922,0,5.211.73,6.867,2.191s2.516,3.473,2.578,6.035v11.672c0,2.328.297,4.18.891,5.555v.375h-4.547Zm-7.195-3.305c1.359,0,2.648-.352,3.867-1.055s2.102-1.617,2.648-2.742v-5.203h-3.398c-5.312,0-7.969,1.555-7.969,4.664,0,1.359.453,2.422,1.359,3.188s2.07,1.148,3.492,1.148Z" fill="#c9d1d9"/>
        <path d="m341.992,255.6h-4.336v-36h4.336v36Z" fill="#c9d1d9"/>
        <path d="m353.64,255.6h-4.336v-36h4.336v36Z" fill="#c9d1d9"/>
      </g>
    </g>
  </g>
  <g id="uuid-65cbde16-d050-4f55-84d0-44cfb6302a98">
    <rect x="3.6" y="266.4" width="1911.6" height="28.8" fill="#7f7f7f"/>
    <g opacity=".6">
      <path d="m172.75,592.76c23.86-6.37,14.08-15.43-.03-19.3-5.4-36.53-40.78-64.73-83.63-64.73-46.58,0-84.35,33.34-84.35,74.47s37.76,74.47,84.35,74.47c42.91,0,78.34-28.3,83.65-64.91h.01Z" fill="#c9d1d9" stroke="#c9d1d9" stroke-miterlimit="10" stroke-width="4.23"/>
      <path d="m101.14,501.28c-8.65,5.33-21.86,4.6-27.54,0" fill="#c9d1d9" stroke="#c9d1d9" stroke-linecap="round" stroke-miterlimit="10" stroke-width="4.23"/>
      <path d="m73.6,665.12c8.65-5.33,21.86-4.6,27.54,0" fill="#c9d1d9" stroke="#c9d1d9" stroke-linecap="round" stroke-miterlimit="10" stroke-width="4.23"/>
    </g>
  </g>
</svg>