<?xml version="1.0" encoding="utf-8"?>
<!-- Generator: Adobe Illustrator 28.3.0, SVG Export Plug-In . SVG Version: 6.00 Build 0)  -->
<svg version="1.1" xmlns="http://www.w3.org/2000/svg" xmlns:xlink="http://www.w3.org/1999/xlink" x="0px" y="0px"
	 viewBox="0 0 1285.2 1008" style="enable-background:new 0 0 1285.2 1008;" xml:space="preserve">
<style type="text/css">
	.st0{fill:none;stroke:#7F7F7F;stroke-width:5.6693;stroke-miterlimit:10;}
	.st1{fill:#7F7F7F;}
	.st2{fill:none;stroke:#C9D1D9;stroke-width:5.6693;stroke-miterlimit:10;}
	.st3{fill:#C9D1D9;}
	.st4{fill:none;stroke:#7F7F7F;stroke-width:5.6693;stroke-miterlimit:10;stroke-dasharray:8.5039;}
	.st5{fill:none;stroke:#307EEF;stroke-width:8.5039;stroke-miterlimit:10;}
	.st6{font-family:'Roboto-Regular';}
	.st7{font-size:48px;}
</style>
<g id="Ebene_1">
	<g>
		<g>
			<polyline class="st0" points="1075.8,918 108,918 108,94.2 			"/>
			<g>
				<polygon class="st1" points="1066.8,904.8 1116,918 1066.8,931.2 				"/>
			</g>
			<g>
				<polygon class="st1" points="121.2,103.2 108,54 94.8,103.2 				"/>
			</g>
		</g>
	</g>
	<g>
		<g>
			<line class="st2" x1="903" y1="950.4" x2="580.2" y2="950.4"/>
			<g>
				<polygon class="st3" points="894,937.2 943.2,950.4 894,963.6 				"/>
			</g>
			<g>
				<polygon class="st3" points="589.2,937.2 540,950.4 589.2,963.6 				"/>
			</g>
		</g>
	</g>
	<line class="st4" x1="972" y1="774" x2="108" y2="774"/>
	<line class="st4" x1="540" y1="198" x2="540" y2="918"/>
	<line class="st4" x1="972" y1="198" x2="540" y2="198"/>
	<line class="st4" x1="943.2" y1="774" x2="943.2" y2="918"/>
	<g>
		<g>
			<line class="st2" x1="943.2" y1="238.2" x2="943.2" y2="733.8"/>
			<g>
				<polygon class="st3" points="930,247.2 943.2,198 956.4,247.2 				"/>
			</g>
			<g>
				<polygon class="st3" points="930,724.8 943.2,774 956.4,724.8 				"/>
			</g>
		</g>
	</g>
	<polyline class="st5" points="1044,918 540,198 108,198 	"/>
	<line class="st2" x1="572.4" y1="151.2" x2="543.6" y2="194.4"/>
	<line class="st2" x1="540" y1="936" x2="540" y2="964.8"/>
	<line class="st2" x1="943.2" y1="936" x2="943.2" y2="964.8"/>
</g>
<g id="Text">
	<text transform="matrix(1 0 0 1 37.7529 788.0272)" class="st3 st6 st7">40</text>
	<text transform="matrix(1 0 0 1 10.7999 212.0273)" class="st3 st6 st7">100</text>
	<text transform="matrix(1 0 0 1 18.5625 43.2001)" class="st3 st6 st7">SPL [dB]</text>
	<text transform="matrix(1 0 0 1 681.0137 1004.3999)" class="st3 st6 st7">RT 60</text>
	<text transform="matrix(1 0 0 1 1116.0001 932.027)" class="st3 st6 st7">Time [s]</text>
	<text transform="matrix(1 0 0 1 961.1995 471.2275)"><tspan x="0" y="0" class="st3 st6 st7">60 dB </tspan><tspan x="0" y="57.6" class="st3 st6 st7">decay</tspan></text>
	<text transform="matrix(1 0 0 1 572.4 79.2)"><tspan x="0" y="0" class="st3 st6 st7">Sound source </tspan><tspan x="0" y="57.6" class="st3 st6 st7">switched off</tspan></text>
</g>
</svg>
