<?xml version="1.0" encoding="UTF-8"?>
<svg id="Ebene_1" data-name="Ebene 1" xmlns="http://www.w3.org/2000/svg" width="1285.2" height="1008" viewBox="0 0 1285.2 1008">
  <g id="Ebene_1-2" data-name="Ebene 1">
    <g>
      <polyline points="1075.8 918 108 918 108 94.2" fill="none" stroke="#7f7f7f" stroke-miterlimit="10" stroke-width="5.669"/>
      <polygon points="1066.8 904.8 1116 918 1066.8 931.2 1066.8 904.8" fill="#7f7f7f"/>
      <polygon points="121.2 103.2 108 54 94.8 103.2 121.2 103.2" fill="#7f7f7f"/>
    </g>
    <g>
      <line x1="903" y1="950.4" x2="580.2" y2="950.4" fill="none" stroke="#c9d1d9" stroke-miterlimit="10" stroke-width="5.669"/>
      <polygon points="894 937.2 943.2 950.4 894 963.6 894 937.2" fill="#c9d1d9"/>
      <polygon points="589.2 937.2 540 950.4 589.2 963.6 589.2 937.2" fill="#c9d1d9"/>
    </g>
    <line x1="972" y1="774" x2="108" y2="774" fill="none" stroke="#7f7f7f" stroke-dasharray="0 8.504" stroke-miterlimit="10" stroke-width="5.669"/>
    <line x1="540" y1="198" x2="540" y2="918" fill="none" stroke="#7f7f7f" stroke-dasharray="0 8.504" stroke-miterlimit="10" stroke-width="5.669"/>
    <line x1="972" y1="198" x2="540" y2="198" fill="none" stroke="#7f7f7f" stroke-dasharray="0 8.504" stroke-miterlimit="10" stroke-width="5.669"/>
    <line x1="943.2" y1="774" x2="943.2" y2="918" fill="none" stroke="#7f7f7f" stroke-dasharray="0 8.504" stroke-miterlimit="10" stroke-width="5.669"/>
    <g>
      <line x1="943.2" y1="238.2" x2="943.2" y2="733.8" fill="none" stroke="#c9d1d9" stroke-miterlimit="10" stroke-width="5.669"/>
      <polygon points="930 247.2 943.2 198 956.4 247.2 930 247.2" fill="#c9d1d9"/>
      <polygon points="930 724.8 943.2 774 956.4 724.8 930 724.8" fill="#c9d1d9"/>
    </g>
    <polyline points="1044 918 540 198 108 198" fill="none" stroke="#307eef" stroke-miterlimit="10" stroke-width="8.504"/>
    <line x1="572.4" y1="151.2" x2="543.6" y2="194.4" fill="none" stroke="#c9d1d9" stroke-miterlimit="10" stroke-width="5.669"/>
    <line x1="540" y1="936" x2="540" y2="964.8" fill="none" stroke="#c9d1d9" stroke-miterlimit="10" stroke-width="5.669"/>
    <line x1="943.2" y1="936" x2="943.2" y2="964.8" fill="none" stroke="#c9d1d9" stroke-miterlimit="10" stroke-width="5.669"/>
  </g>
  <g id="Text">
    <g isolation="isolate">
      <path d="m56.362,788.027v-11.156h.047v-19.969l1.031,2.25-14.953,17.766-1.406-1.219h23.344v3.609h-25.219v-4.031l17.789-21h3.492v33.75h-4.125Z" fill="#c9d1d9"/>
      <path d="m80.69,788.59c-3.906,0-6.938-1.527-9.094-4.582s-3.234-7.34-3.234-12.855,1.078-9.801,3.234-12.855,5.188-4.582,9.094-4.582,6.957,1.527,9.105,4.582,3.223,7.34,3.223,12.855-1.074,9.801-3.223,12.855-5.184,4.582-9.105,4.582Zm0-3.375c2.594,0,4.555-1.195,5.883-3.586s1.992-5.883,1.992-10.477-.664-8.086-1.992-10.477-3.289-3.586-5.883-3.586-4.555,1.195-5.883,3.586-1.992,5.883-1.992,10.477.664,8.086,1.992,10.477,3.289,3.586,5.883,3.586Z" fill="#c9d1d9"/>
    </g>
    <g isolation="isolate">
      <path d="m19.308,212.027v-26.883c-1.234,1.062-2.391,1.957-3.469,2.684s-2.281,1.34-3.609,1.84v-3.984c.688-.328,1.414-.738,2.18-1.23s1.637-1.219,2.613-2.18,2.105-2.293,3.387-3.996h3.023v33.75h-4.125Z" fill="#c9d1d9"/>
      <path d="m41.948,212.59c-3.906,0-6.938-1.527-9.094-4.582s-3.234-7.34-3.234-12.855,1.078-9.801,3.234-12.855,5.188-4.582,9.094-4.582,6.957,1.527,9.105,4.582,3.223,7.34,3.223,12.855-1.074,9.801-3.223,12.855-5.184,4.582-9.105,4.582Zm0-3.375c2.594,0,4.555-1.195,5.883-3.586s1.992-5.883,1.992-10.477-.664-8.086-1.992-10.477-3.289-3.586-5.883-3.586-4.555,1.195-5.883,3.586-1.992,5.883-1.992,10.477.664,8.086,1.992,10.477,3.289,3.586,5.883,3.586Z" fill="#c9d1d9"/>
      <path d="m72.37,212.59c-3.906,0-6.938-1.527-9.094-4.582s-3.234-7.34-3.234-12.855,1.078-9.801,3.234-12.855,5.188-4.582,9.094-4.582,6.957,1.527,9.105,4.582,3.223,7.34,3.223,12.855-1.074,9.801-3.223,12.855-5.184,4.582-9.105,4.582Zm0-3.375c2.594,0,4.555-1.195,5.883-3.586s1.992-5.883,1.992-10.477-.664-8.086-1.992-10.477-3.289-3.586-5.883-3.586-4.555,1.195-5.883,3.586-1.992,5.883-1.992,10.477.664,8.086,1.992,10.477,3.289,3.586,5.883,3.586Z" fill="#c9d1d9"/>
    </g>
    <g isolation="isolate">
      <path d="m33.891,43.763c-2.594,0-4.855-.434-6.785-1.301s-3.488-2.125-4.676-3.773-1.977-3.637-2.367-5.965l5.016-1.031c.109,2.766.914,4.891,2.414,6.375s3.594,2.227,6.281,2.227c1.625,0,3.004-.266,4.137-.797s2-1.281,2.602-2.25.902-2.109.902-3.422c0-1.75-.504-3.051-1.512-3.902s-2.387-1.473-4.137-1.863l-4.406-.984c-.812-.188-1.754-.445-2.824-.773s-2.105-.812-3.105-1.453-1.832-1.508-2.496-2.602-.996-2.492-.996-4.195c0-2.172.559-3.93,1.676-5.273s2.57-2.328,4.359-2.953,3.691-.938,5.707-.938c2.328,0,4.324.371,5.988,1.113s3.008,1.793,4.031,3.152,1.715,2.984,2.074,4.875l-4.945,1.031c-.125-1.438-.477-2.652-1.055-3.645s-1.391-1.75-2.438-2.273-2.352-.785-3.914-.785c-1.266,0-2.449.188-3.551.562s-1.996.961-2.684,1.758-1.031,1.836-1.031,3.117c0,1.344.465,2.418,1.395,3.223s2.48,1.457,4.652,1.957l4.453,1.031c1.578.359,3.07.898,4.477,1.617s2.547,1.723,3.422,3.012,1.312,2.988,1.312,5.098-.48,3.914-1.441,5.414-2.336,2.645-4.125,3.434-3.926,1.184-6.41,1.184Z" fill="#c9d1d9"/>
      <path d="m52.078,43.2V9.45h12.164c3.922,0,6.867.805,8.836,2.414s2.953,3.938,2.953,6.984c0,2.984-.98,5.297-2.941,6.938s-4.934,2.461-8.918,2.461h-7.875v14.953h-4.219Zm4.219-18.422h7.945c2.438,0,4.293-.523,5.566-1.57s1.91-2.477,1.91-4.289c0-1.625-.57-3.031-1.711-4.219s-3.062-1.781-5.766-1.781h-7.945v11.859Z" fill="#c9d1d9"/>
      <path d="m81.633,43.2V9.45h4.219v30.281h16.875v3.469h-21.094Z" fill="#c9d1d9"/>
      <path d="m120,51.122V8.044h9.562v3.281h-6v36.516h6v3.281h-9.562Z" fill="#c9d1d9"/>
      <path d="m141,43.763c-2.047,0-3.855-.539-5.426-1.617s-2.793-2.609-3.668-4.594-1.312-4.328-1.312-7.031.441-5.043,1.324-7.02,2.105-3.5,3.668-4.57,3.367-1.605,5.414-1.605c1.656,0,3.297.414,4.922,1.242s2.852,2.227,3.68,4.195l-.445.188v-14.906h3.938v35.156h-3.703v-5.273l.117.375c-.688,1.844-1.828,3.215-3.422,4.113s-3.289,1.348-5.086,1.348Zm1.031-3.281c1.328,0,2.539-.344,3.633-1.031s1.969-1.762,2.625-3.223.984-3.332.984-5.613c0-3.406-.703-5.926-2.109-7.559s-3.102-2.449-5.086-2.449c-2.094,0-3.812.863-5.156,2.59s-2.016,4.199-2.016,7.418c0,3.125.648,5.551,1.945,7.277s3.023,2.59,5.18,2.59Z" fill="#c9d1d9"/>
      <path d="m160.758,43.2V9.45h12.867c3.297,0,5.938.676,7.922,2.027s2.977,3.332,2.977,5.941c0,1.594-.352,2.918-1.055,3.973s-1.605,1.867-2.707,2.438-2.262.926-3.48,1.066l.07-.094c2.469.406,4.496,1.375,6.082,2.906s2.379,3.672,2.379,6.422c0,2.234-.52,4.016-1.559,5.344s-2.418,2.281-4.137,2.859-3.602.867-5.648.867h-13.711Zm4.219-20.062h8.438c1.844,0,3.422-.395,4.734-1.184s1.969-2.113,1.969-3.973c0-1.484-.504-2.699-1.512-3.645s-2.66-1.418-4.957-1.418h-8.672v10.219Zm0,16.594h9.492c1.828,0,3.258-.316,4.289-.949s1.754-1.441,2.168-2.426.621-2.008.621-3.07c0-1.516-.352-2.766-1.055-3.75s-1.695-1.719-2.977-2.203-2.797-.727-4.547-.727h-7.992v13.125Z" fill="#c9d1d9"/>
      <path d="m197.648,51.122h-9.562v-3.281h6V11.325h-6v-3.281h9.562v43.078Z" fill="#c9d1d9"/>
    </g>
    <g isolation="isolate">
      <path d="m684.857,1004.4v-33.75h12.867c7.812,0,11.719,2.961,11.719,8.883,0,5.969-3.93,8.953-11.789,8.953h-8.578v15.914h-4.219Zm4.219-19.383h8.648c2.375,0,4.203-.465,5.484-1.395s1.922-2.27,1.922-4.02c0-1.766-.641-3.121-1.922-4.066s-3.109-1.418-5.484-1.418h-8.648v10.898Zm15.586,19.383l-8.953-17.086h4.781l8.953,17.086h-4.781Z" fill="#c9d1d9"/>
      <path d="m723.857,1004.4v-30.281h-12.07v-3.469h28.406v3.469h-12.117v30.281h-4.219Z" fill="#c9d1d9"/>
      <path d="m768.436,1004.963c-4.094,0-7.199-1.5-9.316-4.5s-3.176-7.086-3.176-12.258c0-2.531.258-4.895.773-7.09s1.301-4.117,2.355-5.766,2.379-2.938,3.973-3.867,3.469-1.395,5.625-1.395c2.219,0,4.145.457,5.777,1.371s2.918,2.059,3.855,3.434,1.484,2.773,1.641,4.195l-4.289,1.102c-.094-2.016-.746-3.641-1.957-4.875s-2.863-1.852-4.957-1.852c-1.578,0-2.891.344-3.938,1.031s-1.887,1.594-2.52,2.719-1.109,2.355-1.43,3.691-.531,2.66-.633,3.973-.152,2.492-.152,3.539l-.375-.375c.656-1.531,1.746-2.891,3.27-4.078s3.512-1.781,5.965-1.781c1.969,0,3.785.441,5.449,1.324s2.996,2.172,3.996,3.867,1.5,3.762,1.5,6.199c0,2.312-.477,4.324-1.43,6.035s-2.289,3.031-4.008,3.961-3.719,1.395-6,1.395Zm0-3.375c2.297,0,4.074-.723,5.332-2.168s1.887-3.418,1.887-5.918c0-2.516-.625-4.469-1.875-5.859s-2.984-2.086-5.203-2.086c-2.281,0-4.121.723-5.52,2.168s-2.098,3.418-2.098,5.918c0,2.438.676,4.371,2.027,5.801s3.168,2.145,5.449,2.145Z" fill="#c9d1d9"/>
      <path d="m797.873,1004.963c-3.906,0-6.938-1.527-9.094-4.582s-3.234-7.34-3.234-12.855,1.078-9.801,3.234-12.855,5.188-4.582,9.094-4.582,6.957,1.527,9.105,4.582,3.223,7.34,3.223,12.855-1.074,9.801-3.223,12.855-5.184,4.582-9.105,4.582Zm0-3.375c2.594,0,4.555-1.195,5.883-3.586s1.992-5.883,1.992-10.477-.664-8.086-1.992-10.477-3.289-3.586-5.883-3.586-4.555,1.195-5.883,3.586-1.992,5.883-1.992,10.477.664,8.086,1.992,10.477,3.289,3.586,5.883,3.586Z" fill="#c9d1d9"/>
    </g>
    <g isolation="isolate">
      <path d="m1129.312,932.027v-30.281h-12.07v-3.469h28.406v3.469h-12.117v30.281h-4.219Z" fill="#c9d1d9"/>
      <path d="m1152.258,902.473c-.906,0-1.68-.32-2.32-.961s-.961-1.414-.961-2.32c0-.922.32-1.699.961-2.332s1.414-.949,2.32-.949c.922,0,1.699.316,2.332.949s.949,1.41.949,2.332c0,.906-.316,1.68-.949,2.32s-1.41.961-2.332.961Zm-1.969,29.555v-25.312h3.938v25.312h-3.938Z" fill="#c9d1d9"/>
      <path d="m1161.891,932.027v-25.312h3.703v4.336c.594-1.312,1.578-2.457,2.953-3.434s3.008-1.465,4.898-1.465c1.672,0,3.129.457,4.371,1.371s2.168,2.207,2.777,3.879c.797-1.547,1.887-2.809,3.27-3.785s2.996-1.465,4.84-1.465c2.422,0,4.34.879,5.754,2.637s2.121,4.191,2.121,7.301v15.938h-3.938v-15.633c0-1.438-.148-2.676-.445-3.715s-.785-1.84-1.465-2.402-1.605-.844-2.777-.844c-1.281,0-2.434.363-3.457,1.09s-1.828,1.785-2.414,3.176-.879,3.086-.879,5.086v13.242h-3.938v-15.633c0-1.438-.148-2.676-.445-3.715s-.781-1.84-1.453-2.402-1.586-.844-2.742-.844c-1.281,0-2.438.359-3.469,1.078s-1.844,1.773-2.438,3.164-.891,3.094-.891,5.109v13.242h-3.938Z" fill="#c9d1d9"/>
      <path d="m1214.039,932.59c-2.406,0-4.488-.539-6.246-1.617s-3.113-2.605-4.066-4.582-1.43-4.309-1.43-6.996c0-2.703.477-5.047,1.43-7.031s2.297-3.516,4.031-4.594,3.773-1.617,6.117-1.617c1.344,0,2.691.215,4.043.645s2.586,1.172,3.703,2.227,2.016,2.5,2.695,4.336,1.02,4.152,1.02,6.949h-20.508v-3.188h17.086l-1.125,1.477c-.078-2.219-.438-4-1.078-5.344s-1.473-2.316-2.496-2.918-2.16-.902-3.41-.902c-1.484,0-2.766.387-3.844,1.16s-1.906,1.902-2.484,3.387-.867,3.297-.867,5.438c0,3.156.645,5.594,1.934,7.312s3.121,2.578,5.496,2.578c1.703,0,3.137-.43,4.301-1.289s2.02-2.102,2.566-3.727l3.867,1.312c-.609,1.469-1.422,2.723-2.438,3.762s-2.223,1.836-3.621,2.391-2.957.832-4.676.832Z" fill="#c9d1d9"/>
      <path d="m1243.5,939.949v-43.078h9.562v3.281h-6v36.516h6v3.281h-9.562Z" fill="#c9d1d9"/>
      <path d="m1264.336,932.59c-1.828,0-3.488-.301-4.98-.902s-2.73-1.516-3.715-2.742-1.641-2.785-1.969-4.676l4.125-.797c.172,1.984.848,3.461,2.027,4.43s2.66,1.453,4.441,1.453c1.766,0,3.172-.445,4.219-1.336s1.57-1.977,1.57-3.258c0-1.094-.371-1.961-1.113-2.602s-1.816-1.094-3.223-1.359l-3.07-.586c-.828-.156-1.688-.375-2.578-.656s-1.723-.672-2.496-1.172-1.398-1.156-1.875-1.969-.715-1.836-.715-3.07c0-1.656.434-3.012,1.301-4.066s2.016-1.84,3.445-2.355,2.973-.773,4.629-.773c1.812,0,3.391.281,4.734.844s2.438,1.367,3.281,2.414,1.406,2.312,1.688,3.797l-4.336.867c-.109-.953-.363-1.781-.762-2.484s-.977-1.246-1.734-1.629-1.738-.574-2.941-.574c-1.453,0-2.703.305-3.75.914s-1.57,1.531-1.57,2.766c0,.688.176,1.273.527,1.758s.883.887,1.594,1.207,1.605.598,2.684.832l3.117.656c1.312.266,2.523.66,3.633,1.184s2,1.246,2.672,2.168,1.008,2.141,1.008,3.656c0,1.672-.418,3.113-1.254,4.324s-1.992,2.137-3.469,2.777-3.191.961-5.145.961Z" fill="#c9d1d9"/>
      <path d="m1284.844,939.949h-9.562v-3.281h6v-36.516h-6v-3.281h9.562v43.078Z" fill="#c9d1d9"/>
    </g>
    <g isolation="isolate">
      <g isolation="isolate">
        <path d="m976.012,471.79c-4.094,0-7.199-1.5-9.316-4.5s-3.176-7.086-3.176-12.258c0-2.531.258-4.895.773-7.09s1.301-4.117,2.355-5.766,2.379-2.938,3.973-3.867,3.469-1.395,5.625-1.395c2.219,0,4.145.457,5.777,1.371s2.918,2.059,3.855,3.434,1.484,2.773,1.641,4.195l-4.289,1.102c-.094-2.016-.746-3.641-1.957-4.875s-2.863-1.852-4.957-1.852c-1.578,0-2.891.344-3.938,1.031s-1.887,1.594-2.52,2.719-1.109,2.355-1.43,3.691-.531,2.66-.633,3.973-.152,2.492-.152,3.539l-.375-.375c.656-1.531,1.746-2.891,3.27-4.078s3.512-1.781,5.965-1.781c1.969,0,3.785.441,5.449,1.324s2.996,2.172,3.996,3.867,1.5,3.762,1.5,6.199c0,2.312-.477,4.324-1.43,6.035s-2.289,3.031-4.008,3.961-3.719,1.395-6,1.395Zm0-3.375c2.297,0,4.074-.723,5.332-2.168s1.887-3.418,1.887-5.918c0-2.516-.625-4.469-1.875-5.859s-2.984-2.086-5.203-2.086c-2.281,0-4.121.723-5.52,2.168s-2.098,3.418-2.098,5.918c0,2.438.676,4.371,2.027,5.801s3.168,2.145,5.449,2.145Z" fill="#c9d1d9"/>
        <path d="m1005.449,471.79c-3.906,0-6.938-1.527-9.094-4.582s-3.234-7.34-3.234-12.855,1.078-9.801,3.234-12.855,5.188-4.582,9.094-4.582,6.957,1.527,9.105,4.582,3.223,7.34,3.223,12.855-1.074,9.801-3.223,12.855-5.184,4.582-9.105,4.582Zm0-3.375c2.594,0,4.555-1.195,5.883-3.586s1.992-5.883,1.992-10.477-.664-8.086-1.992-10.477-3.289-3.586-5.883-3.586-4.555,1.195-5.883,3.586-1.992,5.883-1.992,10.477.664,8.086,1.992,10.477,3.289,3.586,5.883,3.586Z" fill="#c9d1d9"/>
        <path d="m1044.684,471.79c-2.047,0-3.855-.539-5.426-1.617s-2.793-2.609-3.668-4.594-1.312-4.328-1.312-7.031.441-5.043,1.324-7.02,2.105-3.5,3.668-4.57,3.367-1.605,5.414-1.605c1.656,0,3.297.414,4.922,1.242s2.852,2.227,3.68,4.195l-.445.188v-14.906h3.938v35.156h-3.703v-5.273l.117.375c-.688,1.844-1.828,3.215-3.422,4.113s-3.289,1.348-5.086,1.348Zm1.031-3.281c1.328,0,2.539-.344,3.633-1.031s1.969-1.762,2.625-3.223.984-3.332.984-5.613c0-3.406-.703-5.926-2.109-7.559s-3.102-2.449-5.086-2.449c-2.094,0-3.812.863-5.156,2.59s-2.016,4.199-2.016,7.418c0,3.125.648,5.551,1.945,7.277s3.023,2.59,5.18,2.59Z" fill="#c9d1d9"/>
        <path d="m1064.441,471.228v-33.75h12.867c3.297,0,5.938.676,7.922,2.027s2.977,3.332,2.977,5.941c0,1.594-.352,2.918-1.055,3.973s-1.605,1.867-2.707,2.438-2.262.926-3.48,1.066l.07-.094c2.469.406,4.496,1.375,6.082,2.906s2.379,3.672,2.379,6.422c0,2.234-.52,4.016-1.559,5.344s-2.418,2.281-4.137,2.859-3.602.867-5.648.867h-13.711Zm4.219-20.062h8.438c1.844,0,3.422-.395,4.734-1.184s1.969-2.113,1.969-3.973c0-1.484-.504-2.699-1.512-3.645s-2.66-1.418-4.957-1.418h-8.672v10.219Zm0,16.594h9.492c1.828,0,3.258-.316,4.289-.949s1.754-1.441,2.168-2.426.621-2.008.621-3.07c0-1.516-.352-2.766-1.055-3.75s-1.695-1.719-2.977-2.203-2.797-.727-4.547-.727h-7.992v13.125Z" fill="#c9d1d9"/>
      </g>
      <g isolation="isolate">
        <path d="m973.574,529.39c-2.047,0-3.855-.539-5.426-1.617s-2.793-2.609-3.668-4.594-1.312-4.328-1.312-7.031.441-5.043,1.324-7.02,2.105-3.5,3.668-4.57c1.562-1.07,3.367-1.605,5.414-1.605,1.656,0,3.297.414,4.922,1.242,1.625.828,2.852,2.227,3.68,4.195l-.445.188v-14.906h3.938v35.156h-3.703v-5.273l.117.375c-.688,1.844-1.828,3.215-3.422,4.113s-3.289,1.348-5.086,1.348Zm1.031-3.281c1.328,0,2.539-.344,3.633-1.031s1.969-1.762,2.625-3.223.984-3.332.984-5.613c0-3.406-.703-5.926-2.109-7.559s-3.102-2.449-5.086-2.449c-2.094,0-3.812.863-5.156,2.59s-2.016,4.199-2.016,7.418c0,3.125.648,5.551,1.945,7.277s3.023,2.59,5.18,2.59Z" fill="#c9d1d9"/>
        <path d="m1003.457,529.39c-2.406,0-4.488-.539-6.246-1.617s-3.113-2.605-4.066-4.582-1.43-4.309-1.43-6.996c0-2.703.477-5.047,1.43-7.031s2.297-3.516,4.031-4.594c1.734-1.078,3.773-1.617,6.117-1.617,1.344,0,2.691.215,4.043.645,1.352.429,2.586,1.171,3.703,2.226s2.016,2.5,2.695,4.336,1.02,4.152,1.02,6.949h-20.508v-3.188h17.086l-1.125,1.477c-.078-2.219-.438-4-1.078-5.344s-1.473-2.316-2.496-2.918-2.16-.902-3.41-.902c-1.484,0-2.766.387-3.844,1.16s-1.906,1.902-2.484,3.387-.867,3.297-.867,5.438c0,3.156.645,5.594,1.934,7.312s3.121,2.578,5.496,2.578c1.703,0,3.137-.43,4.301-1.289s2.02-2.102,2.566-3.727l3.867,1.312c-.609,1.469-1.422,2.723-2.438,3.762s-2.223,1.836-3.621,2.391-2.957.832-4.676.832Z" fill="#c9d1d9"/>
        <path d="m1031.512,529.39c-2.375,0-4.43-.539-6.164-1.617s-3.07-2.605-4.008-4.582-1.406-4.316-1.406-7.02.469-5.043,1.406-7.02,2.273-3.504,4.008-4.582c1.734-1.078,3.789-1.617,6.164-1.617,1.812,0,3.434.332,4.863.996,1.43.664,2.641,1.617,3.633,2.859s1.723,2.738,2.191,4.488l-4.008,1.055c-.438-1.969-1.223-3.48-2.355-4.535s-2.574-1.582-4.324-1.582c-2.328,0-4.121.863-5.379,2.59s-1.887,4.176-1.887,7.348.629,5.641,1.887,7.359,3.051,2.578,5.379,2.578c1.734,0,3.164-.512,4.289-1.535s1.914-2.504,2.367-4.441l3.984,1.125c-.375,1.281-.891,2.422-1.547,3.422s-1.434,1.852-2.332,2.555-1.914,1.238-3.047,1.605-2.371.551-3.715.551Z" fill="#c9d1d9"/>
        <path d="m1054.715,529.39c-1.688,0-3.152-.324-4.395-.973s-2.199-1.535-2.871-2.66-1.008-2.398-1.008-3.82c0-1.516.445-2.914,1.336-4.195s2.27-2.309,4.137-3.082,4.262-1.16,7.184-1.16h4.219l-.422.422v-1.383c0-2.031-.406-3.59-1.219-4.676s-2.172-1.629-4.078-1.629c-1.797,0-3.18.465-4.148,1.395s-1.484,2.176-1.547,3.738l-4.43-1.008c.141-1.359.66-2.598,1.559-3.715s2.102-2.012,3.609-2.683c1.508-.672,3.254-1.008,5.238-1.008,2.047,0,3.715.387,5.004,1.16,1.289.773,2.238,1.887,2.848,3.34s.914,3.203.914,5.25v11.555c0,.516.074.859.223,1.031s.465.258.949.258h1.43v3.281h-2.508c-1.062,0-1.953-.332-2.672-.996s-1.078-1.504-1.078-2.52v-1.781h.586c-.25.656-.609,1.324-1.078,2.004s-1.062,1.312-1.781,1.898-1.574,1.059-2.566,1.418-2.137.539-3.434.539Zm.891-3.281c1.297,0,2.5-.32,3.609-.961s2.004-1.645,2.684-3.012,1.02-3.145,1.02-5.332v-.211h-3.961c-2.078,0-3.715.273-4.91.82s-2.043,1.223-2.543,2.027-.75,1.605-.75,2.402.18,1.516.539,2.156.898,1.152,1.617,1.535,1.617.574,2.695.574Z" fill="#c9d1d9"/>
        <path d="m1074.332,537.968v-3.281h3.844c.281,0,.5-.09.656-.27s.305-.465.445-.855l1.828-5.227-.398,1.805-10.172-26.625h4.406l8.062,23.32-.867-.211,8.039-23.109h4.359l-12.07,31.617c-.328.859-.883,1.547-1.664,2.062s-1.594.773-2.438.773h-4.031Z" fill="#c9d1d9"/>
      </g>
    </g>
    <g isolation="isolate">
      <g isolation="isolate">
        <path d="m587.728,79.763c-2.594,0-4.855-.434-6.785-1.301s-3.488-2.125-4.676-3.773-1.977-3.637-2.367-5.965l5.016-1.031c.109,2.766.914,4.891,2.414,6.375s3.594,2.227,6.281,2.227c1.625,0,3.004-.266,4.137-.797s2-1.281,2.602-2.25.902-2.109.902-3.422c0-1.75-.504-3.051-1.512-3.902s-2.387-1.473-4.137-1.863l-4.406-.984c-.812-.188-1.754-.445-2.824-.773s-2.105-.812-3.105-1.453-1.832-1.508-2.496-2.602-.996-2.492-.996-4.195c0-2.172.559-3.93,1.676-5.273s2.57-2.328,4.359-2.953,3.691-.938,5.707-.938c2.328,0,4.324.371,5.988,1.113s3.008,1.793,4.031,3.152,1.715,2.984,2.074,4.875l-4.945,1.031c-.125-1.438-.477-2.652-1.055-3.645s-1.391-1.75-2.438-2.273-2.352-.785-3.914-.785c-1.266,0-2.449.188-3.551.562s-1.996.961-2.684,1.758-1.031,1.836-1.031,3.117c0,1.344.465,2.418,1.395,3.223s2.48,1.457,4.652,1.957l4.453,1.031c1.578.359,3.07.898,4.477,1.617s2.547,1.723,3.422,3.012,1.312,2.988,1.312,5.098-.48,3.914-1.441,5.414-2.336,2.645-4.125,3.434-3.926,1.184-6.41,1.184Z" fill="#c9d1d9"/>
        <path d="m616.955,79.763c-2.375,0-4.469-.559-6.281-1.676s-3.227-2.668-4.242-4.652-1.523-4.281-1.523-6.891.508-4.906,1.523-6.891,2.43-3.535,4.242-4.652,3.906-1.676,6.281-1.676,4.469.559,6.281,1.676,3.227,2.668,4.242,4.652,1.523,4.281,1.523,6.891-.508,4.906-1.523,6.891-2.43,3.535-4.242,4.652-3.906,1.676-6.281,1.676Zm0-3.281c2.391,0,4.277-.891,5.66-2.672s2.074-4.203,2.074-7.266c0-3.078-.691-5.504-2.074-7.277s-3.27-2.66-5.66-2.66-4.277.887-5.66,2.66-2.074,4.199-2.074,7.277c0,3.062.691,5.484,2.074,7.266s3.27,2.672,5.66,2.672Z" fill="#c9d1d9"/>
        <path d="m643.275,79.763c-1.766,0-3.297-.398-4.594-1.195s-2.297-1.938-3-3.422-1.055-3.258-1.055-5.32v-15.938h3.938v15.633c0,2.062.391,3.738,1.172,5.027s2.188,1.934,4.219,1.934c1.516,0,2.829-.391,3.938-1.172s1.973-1.953,2.59-3.516.926-3.516.926-5.859v-12.047h3.938v25.312h-3.703v-5.953l.164,1.031c-.656,1.562-1.715,2.867-3.176,3.914s-3.246,1.57-5.356,1.57Z" fill="#c9d1d9"/>
        <path d="m662.986,79.2v-25.312h3.703v5.719l-.164-1.031c.672-1.453,1.734-2.691,3.188-3.715s3.219-1.535,5.297-1.535c1.797,0,3.344.398,4.641,1.195s2.297,1.934,3,3.41,1.055,3.254,1.055,5.332v15.938h-3.938v-15.633c0-2.078-.426-3.758-1.277-5.039s-2.254-1.922-4.207-1.922c-2.109,0-3.863.801-5.262,2.402s-2.098,3.918-2.098,6.949v13.242h-3.938Z" fill="#c9d1d9"/>
        <path d="m699.924,79.763c-2.047,0-3.855-.539-5.426-1.617s-2.793-2.609-3.668-4.594-1.312-4.328-1.312-7.031.441-5.043,1.324-7.02,2.105-3.5,3.668-4.57,3.367-1.605,5.414-1.605c1.656,0,3.297.414,4.922,1.242s2.852,2.227,3.68,4.195l-.445.188v-14.906h3.938v35.156h-3.703v-5.273l.117.375c-.688,1.844-1.828,3.215-3.422,4.113s-3.289,1.348-5.086,1.348Zm1.031-3.281c1.328,0,2.539-.344,3.633-1.031s1.969-1.762,2.625-3.223.984-3.332.984-5.613c0-3.406-.703-5.926-2.109-7.559s-3.102-2.449-5.086-2.449c-2.094,0-3.812.863-5.156,2.59s-2.016,4.199-2.016,7.418c0,3.125.648,5.551,1.945,7.277s3.023,2.59,5.18,2.59Z" fill="#c9d1d9"/>
        <path d="m740.494,79.763c-1.828,0-3.488-.301-4.98-.902s-2.73-1.516-3.715-2.742-1.641-2.785-1.969-4.676l4.125-.797c.172,1.984.848,3.461,2.027,4.43s2.66,1.453,4.441,1.453c1.766,0,3.172-.445,4.219-1.336s1.57-1.977,1.57-3.258c0-1.094-.371-1.961-1.113-2.602s-1.816-1.094-3.223-1.359l-3.07-.586c-.828-.156-1.688-.375-2.578-.656s-1.723-.672-2.496-1.172-1.398-1.156-1.875-1.969-.715-1.836-.715-3.07c0-1.656.434-3.012,1.301-4.066s2.016-1.84,3.445-2.355,2.973-.773,4.629-.773c1.812,0,3.391.281,4.734.844s2.438,1.367,3.281,2.414,1.406,2.312,1.688,3.797l-4.336.867c-.109-.953-.363-1.781-.762-2.484s-.977-1.246-1.734-1.629-1.738-.574-2.941-.574c-1.453,0-2.703.305-3.75.914s-1.57,1.531-1.57,2.766c0,.688.176,1.273.527,1.758s.883.887,1.594,1.207,1.605.598,2.684.832l3.117.656c1.312.266,2.523.66,3.633,1.184s2,1.246,2.672,2.168,1.008,2.141,1.008,3.656c0,1.672-.418,3.113-1.254,4.324s-1.992,2.137-3.469,2.777-3.191.961-5.145.961Z" fill="#c9d1d9"/>
        <path d="m767.307,79.763c-2.375,0-4.469-.559-6.281-1.676s-3.227-2.668-4.242-4.652-1.523-4.281-1.523-6.891.508-4.906,1.523-6.891,2.43-3.535,4.242-4.652,3.906-1.676,6.281-1.676,4.469.559,6.281,1.676,3.227,2.668,4.242,4.652,1.523,4.281,1.523,6.891-.508,4.906-1.523,6.891-2.43,3.535-4.242,4.652-3.906,1.676-6.281,1.676Zm0-3.281c2.391,0,4.277-.891,5.66-2.672s2.074-4.203,2.074-7.266c0-3.078-.691-5.504-2.074-7.277s-3.27-2.66-5.66-2.66-4.277.887-5.66,2.66-2.074,4.199-2.074,7.277c0,3.062.691,5.484,2.074,7.266s3.27,2.672,5.66,2.672Z" fill="#c9d1d9"/>
        <path d="m793.627,79.763c-1.766,0-3.297-.398-4.594-1.195s-2.297-1.938-3-3.422-1.055-3.258-1.055-5.32v-15.938h3.938v15.633c0,2.062.391,3.738,1.172,5.027s2.188,1.934,4.219,1.934c1.516,0,2.828-.391,3.938-1.172s1.973-1.953,2.59-3.516.926-3.516.926-5.859v-12.047h3.938v25.312h-3.703v-5.953l.164,1.031c-.656,1.562-1.715,2.867-3.176,3.914s-3.246,1.57-5.355,1.57Z" fill="#c9d1d9"/>
        <path d="m813.338,79.2v-25.312h3.703v5.367l-.141-.609c.75-1.75,1.879-3.074,3.387-3.973s3.035-1.348,4.582-1.348c.453,0,.895.039,1.324.117s.832.211,1.207.398l-.516,3.703c-.859-.266-1.711-.398-2.555-.398-.531,0-1.191.105-1.98.316s-1.57.633-2.344,1.266-1.422,1.574-1.945,2.824-.785,2.914-.785,4.992v12.656h-3.938Z" fill="#c9d1d9"/>
        <path d="m841.299,79.763c-2.375,0-4.43-.539-6.164-1.617s-3.07-2.605-4.008-4.582-1.406-4.316-1.406-7.02.469-5.043,1.406-7.02,2.273-3.504,4.008-4.582,3.789-1.617,6.164-1.617c1.812,0,3.434.332,4.863.996s2.641,1.617,3.633,2.859,1.723,2.738,2.191,4.488l-4.008,1.055c-.438-1.969-1.223-3.48-2.355-4.535s-2.574-1.582-4.324-1.582c-2.328,0-4.121.863-5.379,2.59s-1.887,4.176-1.887,7.348.629,5.641,1.887,7.359,3.051,2.578,5.379,2.578c1.734,0,3.164-.512,4.289-1.535s1.914-2.504,2.367-4.441l3.984,1.125c-.375,1.281-.891,2.422-1.547,3.422s-1.434,1.852-2.332,2.555-1.914,1.238-3.047,1.605-2.371.551-3.715.551Z" fill="#c9d1d9"/>
        <path d="m867.924,79.763c-2.406,0-4.488-.539-6.246-1.617s-3.113-2.605-4.066-4.582-1.43-4.309-1.43-6.996c0-2.703.477-5.047,1.43-7.031s2.297-3.516,4.031-4.594,3.773-1.617,6.117-1.617c1.344,0,2.691.215,4.043.645s2.586,1.172,3.703,2.227,2.016,2.5,2.695,4.336,1.02,4.152,1.02,6.949h-20.508v-3.188h17.086l-1.125,1.477c-.078-2.219-.438-4-1.078-5.344s-1.473-2.316-2.496-2.918-2.16-.902-3.41-.902c-1.484,0-2.766.387-3.844,1.16s-1.906,1.902-2.484,3.387-.867,3.297-.867,5.438c0,3.156.645,5.594,1.934,7.312s3.121,2.578,5.496,2.578c1.703,0,3.137-.43,4.301-1.289s2.02-2.102,2.566-3.727l3.867,1.312c-.609,1.469-1.422,2.723-2.438,3.762s-2.223,1.836-3.621,2.391-2.957.832-4.676.832Z" fill="#c9d1d9"/>
      </g>
      <g isolation="isolate">
        <path d="m584.869,137.362c-1.828,0-3.488-.301-4.98-.902s-2.73-1.516-3.715-2.742-1.641-2.785-1.969-4.676l4.125-.797c.172,1.984.848,3.461,2.027,4.43s2.66,1.453,4.441,1.453c1.766,0,3.172-.445,4.219-1.336s1.57-1.977,1.57-3.258c0-1.094-.371-1.961-1.113-2.602s-1.816-1.094-3.223-1.359l-3.07-.586c-.828-.156-1.688-.375-2.578-.656s-1.723-.672-2.496-1.172-1.398-1.156-1.875-1.969-.715-1.836-.715-3.07c0-1.656.434-3.012,1.301-4.066s2.016-1.84,3.445-2.355,2.973-.773,4.629-.773c1.812,0,3.391.281,4.734.844s2.438,1.367,3.281,2.414,1.406,2.312,1.688,3.797l-4.336.867c-.109-.953-.363-1.781-.762-2.484s-.977-1.246-1.734-1.629-1.738-.574-2.941-.574c-1.453,0-2.703.305-3.75.914s-1.57,1.531-1.57,2.766c0,.688.176,1.273.527,1.758s.883.887,1.594,1.207,1.605.598,2.684.832l3.117.656c1.312.266,2.523.66,3.633,1.184s2,1.246,2.672,2.168,1.008,2.141,1.008,3.656c0,1.672-.418,3.113-1.254,4.324s-1.992,2.137-3.469,2.777-3.191.961-5.145.961Z" fill="#c9d1d9"/>
        <path d="m605.447,136.8l-7.031-25.312h4.172l6.023,23.391h-.727l6-23.391h5.062l6.117,23.578h-.844l6.07-23.578h4.172l-7.031,25.312h-5.531l-5.812-22.641h.703l-5.812,22.641h-5.531Z" fill="#c9d1d9"/>
        <path d="m641.728,107.245c-.906,0-1.68-.32-2.32-.961s-.961-1.414-.961-2.32c0-.922.32-1.699.961-2.332s1.414-.949,2.32-.949c.922,0,1.699.316,2.333.949.633.633.949,1.41.949,2.332,0,.906-.316,1.68-.949,2.32-.633.641-1.411.961-2.333.961Zm-1.969,29.555v-25.312h3.938v25.312h-3.938Z" fill="#c9d1d9"/>
        <path d="m656.963,136.8c-1,0-1.875-.332-2.625-.996s-1.125-1.504-1.125-2.52v-18.516h-4.078v-3.281h4.078v-5.297l3.938-.844v6.141h5.016v3.281h-5.016v17.461c0,.516.074.859.223,1.031s.465.258.949.258h3.867v3.281h-5.227Z" fill="#c9d1d9"/>
        <path d="m677.002,137.362c-2.375,0-4.43-.539-6.164-1.617s-3.07-2.605-4.008-4.582-1.406-4.316-1.406-7.02.469-5.043,1.406-7.02,2.273-3.504,4.008-4.582,3.789-1.617,6.164-1.617c1.812,0,3.434.332,4.863.996s2.641,1.617,3.633,2.859,1.723,2.738,2.191,4.488l-4.008,1.055c-.438-1.969-1.223-3.48-2.355-4.535s-2.574-1.582-4.324-1.582c-2.328,0-4.121.863-5.379,2.59s-1.887,4.176-1.887,7.348.629,5.641,1.887,7.359,3.051,2.578,5.379,2.578c1.734,0,3.164-.512,4.289-1.535s1.914-2.504,2.367-4.441l3.984,1.125c-.375,1.281-.891,2.422-1.547,3.422s-1.434,1.852-2.332,2.555-1.914,1.238-3.047,1.605-2.371.551-3.715.551Z" fill="#c9d1d9"/>
        <path d="m693.385,136.8v-35.156h3.938v15.797l-.398-1.031c.656-1.578,1.715-2.887,3.176-3.926s3.246-1.559,5.355-1.559c1.781,0,3.316.398,4.605,1.195s2.285,1.934,2.988,3.41,1.055,3.254,1.055,5.332v15.938h-3.938v-15.633c0-2.141-.402-3.836-1.207-5.086s-2.23-1.875-4.277-1.875c-2.188,0-3.961.777-5.32,2.332s-2.039,3.895-2.039,7.02v13.242h-3.938Z" fill="#c9d1d9"/>
        <path d="m731.494,137.362c-2.406,0-4.488-.539-6.246-1.617s-3.113-2.605-4.066-4.582-1.43-4.309-1.43-6.996c0-2.703.477-5.047,1.43-7.031s2.297-3.516,4.031-4.594,3.773-1.617,6.117-1.617c1.344,0,2.691.215,4.043.645s2.586,1.172,3.703,2.227,2.016,2.5,2.695,4.336,1.02,4.152,1.02,6.949h-20.508v-3.188h17.086l-1.125,1.477c-.078-2.219-.438-4-1.078-5.344s-1.473-2.316-2.496-2.918-2.16-.902-3.41-.902c-1.484,0-2.766.387-3.844,1.16s-1.906,1.902-2.484,3.387-.867,3.297-.867,5.438c0,3.156.645,5.594,1.934,7.312s3.121,2.578,5.496,2.578c1.703,0,3.137-.43,4.301-1.289s2.02-2.102,2.566-3.727l3.867,1.312c-.609,1.469-1.422,2.723-2.438,3.762s-2.223,1.836-3.621,2.391-2.957.832-4.676.832Z" fill="#c9d1d9"/>
        <path d="m758.377,137.362c-2.047,0-3.855-.539-5.426-1.617s-2.793-2.609-3.668-4.594-1.312-4.328-1.312-7.031.441-5.043,1.324-7.02,2.105-3.5,3.668-4.57,3.367-1.605,5.414-1.605c1.656,0,3.297.414,4.922,1.242s2.852,2.227,3.68,4.195l-.445.188v-14.906h3.938v35.156h-3.703v-5.273l.117.375c-.688,1.844-1.828,3.215-3.422,4.113s-3.289,1.348-5.086,1.348Zm1.031-3.281c1.328,0,2.539-.344,3.633-1.031s1.969-1.762,2.625-3.223.984-3.332.984-5.613c0-3.406-.703-5.926-2.109-7.559s-3.102-2.449-5.086-2.449c-2.094,0-3.812.863-5.156,2.59s-2.016,4.199-2.016,7.418c0,3.125.648,5.551,1.945,7.277s3.023,2.59,5.18,2.59Z" fill="#c9d1d9"/>
        <path d="m800.799,137.362c-2.375,0-4.469-.559-6.281-1.676s-3.227-2.668-4.242-4.652-1.523-4.281-1.523-6.891.508-4.906,1.523-6.891,2.43-3.535,4.242-4.652,3.906-1.676,6.281-1.676,4.469.559,6.281,1.676,3.227,2.668,4.242,4.652,1.523,4.281,1.523,6.891-.508,4.906-1.523,6.891-2.43,3.535-4.242,4.652-3.906,1.676-6.281,1.676Zm0-3.281c2.391,0,4.277-.891,5.66-2.672s2.074-4.203,2.074-7.266c0-3.078-.691-5.504-2.074-7.277s-3.27-2.66-5.66-2.66-4.277.887-5.66,2.66-2.074,4.199-2.074,7.277c0,3.062.691,5.484,2.074,7.266s3.27,2.672,5.66,2.672Z" fill="#c9d1d9"/>
        <path d="m816.033,114.769v-3.281h13.383v3.281h-13.383Zm3.773,22.031v-29.906c0-1.891.445-3.238,1.336-4.043s2.383-1.207,4.477-1.207h3.164v3.281h-3.727c-.469,0-.805.102-1.008.305s-.305.539-.305,1.008v30.562h-3.938Zm12.586-22.031v-3.281h13.383v3.281h-13.383Zm3.773,22.031v-29.906c0-1.891.445-3.238,1.336-4.043s2.383-1.207,4.477-1.207h3.164v3.281h-3.727c-.469,0-.805.102-1.008.305s-.305.539-.305,1.008v30.562h-3.938Z" fill="#c9d1d9"/>
      </g>
    </g>
  </g>
</svg>