<?xml version="1.0" encoding="UTF-8"?>
<svg xmlns="http://www.w3.org/2000/svg" viewBox="0 0 832.32 188.64">
  <defs>
    <style>
      .cls-1 {
        stroke-dasharray: 0 0 12.08 12.08;
      }

      .cls-1, .cls-2, .cls-3 {
        fill: none;
        stroke-linecap: round;
        stroke-linejoin: round;
        stroke-width: 2.83px;
      }

      .cls-1, .cls-3 {
        stroke: #c9d1d9;
      }

      .cls-4 {
        letter-spacing: -.02em;
      }

      .cls-5 {
        letter-spacing: 0em;
      }

      .cls-6 {
        letter-spacing: .02em;
      }

      .cls-7 {
        letter-spacing: 0em;
      }

      .cls-8 {
        letter-spacing: -.03em;
      }

      .cls-9 {
        letter-spacing: .02em;
      }

      .cls-10 {
        letter-spacing: 0em;
      }

      .cls-11 {
        letter-spacing: 0em;
      }

      .cls-2 {
        stroke: #d85749;
      }

      .cls-12 {
        letter-spacing: .02em;
      }

      .cls-13 {
        letter-spacing: .02em;
      }

      .cls-14 {
        letter-spacing: -.02em;
      }

      .cls-15 {
        fill: #c9d1d9;
        font-family: SchibstedGrotesk-Medium, 'Schibsted Grotesk';
        font-size: 21px;
        font-variation-settings: 'wght' 500;
        font-weight: 500;
      }

      .cls-16 {
        letter-spacing: -.02em;
      }

      .cls-17 {
        letter-spacing: -.02em;
      }

      .cls-18 {
        letter-spacing: 0em;
      }

      .cls-19 {
        letter-spacing: 0em;
      }

      .cls-20 {
        letter-spacing: 0em;
      }

      .cls-21 {
        letter-spacing: .02em;
      }

      .cls-22 {
        letter-spacing: -.03em;
      }

      .cls-23 {
        letter-spacing: 0em;
      }
    </style>
  </defs>
  <g id="Ebene_5" data-name="Ebene 5">
    <g id="expressions-ed48fbf3">
      <g id="sketch-ed48fbf3">
        <path class="cls-2" d="m427.55,144h0l-9.33-.14-1.85-.34-1.44-.55-1.33-.83-1.23-1.1-1.33-1.61-1.44-2.27-1.44-2.83-1.54-3.65-1.64-4.55-1.95-6.15-2.36-8.28-3.8-14.29-4.31-15.99-2.67-9.03-2.26-6.86-2.05-5.51-1.95-4.56-1.85-3.69-1.85-3.07-1.85-2.47-1.74-1.8-1.54-1.18-1.54-.82-1.44-.46-1.44-.18-1.54.1-1.64.4-1.74.74-1.85,1.09-2.16,1.63-2.46,2.26-2.87,3.07-3.59,4.33-4.82,6.35-19.29,25.96-5.34,6.37-5.03,5.51-4.82,4.83-4.72,4.29-4.62,3.8-4.72,3.5-4.72,3.14-4.82,2.86-5.03,2.65-5.23,2.42-5.44,2.2-5.75,2.02-6.05,1.83-6.57,1.68-7.08,1.52-7.8,1.38-8.62,1.23-9.65,1.09-10.98.95-12.83.82-15.29.68-18.98.55-24.83.43-31.5.28"/>
      </g>
    </g>
    <g id="expressions-144a1496">
      <g id="sketch-144a1496">
        <path class="cls-2" d="m524.03,144h0l-11.69-.17-2.36-.42-1.85-.67-1.64-.95-1.64-1.35-1.64-1.81-1.74-2.46-1.85-3.22-2.05-4.28-2.16-5.21-2.57-6.99-3.28-9.79-9.54-28.97-2.98-7.95-2.67-6.37-2.46-5.16-2.36-4.27-2.36-3.6-2.16-2.7-2.05-2.07-1.95-1.53-1.95-1.13-1.95-.74-1.95-.38-2.05-.04-2.16.32-2.26.69-2.46,1.13-2.67,1.61-2.98,2.2-3.49,3.02-4.1,4-5.34,5.69-9.75,11-9.75,10.8-6.88,7.12-6.16,5.91-5.85,5.17-5.75,4.64-5.75,4.22-5.75,3.81-5.85,3.49-6.05,3.22-6.26,2.95-6.57,2.72-6.88,2.49-7.29,2.27-7.8,2.08-8.52,1.91-9.24,1.72-10.16,1.53-11.39,1.37-12.93,1.2-14.98,1.03-17.75.87-21.86.71-14.06.32"/>
      </g>
    </g>
    <g id="expressions-9e8b7fe7">
      <g id="sketch-9e8b7fe7">
        <path class="cls-2" d="m643.95,144h0l-14.67-.2-2.98-.5-2.36-.8-2.16-1.17-2.05-1.58-2.05-2.08-2.16-2.75-2.26-3.49-2.46-4.49-2.87-6.01-3.49-8.18-3.98-11.5-7.7-19.47-4-9.19-3.49-7.17-3.18-5.74-2.98-4.64-2.77-3.67-2.67-2.94-2.57-2.29-2.57-1.79-2.57-1.3-2.57-.85-2.67-.43h-2.77s-2.87.43-2.87.43l-3.08.9-3.28,1.4-3.69,2.04-4.1,2.73-4.82,3.71-5.95,5.09-8.62,7.93-18.37,16.99-8.41,7.2-7.7,6.09-7.39,5.37-7.29,4.82-7.39,4.42-7.49,4.02-7.7,3.68-8,3.38-8.41,3.11-8.93,2.86-9.54,2.62-10.26,2.37-11.19,2.15-12.31,1.93-13.75,1.72-15.5,1.5-17.96,1.3-8.52.49"/>
      </g>
    </g>
    <g id="expressions-ddb26739">
      <g id="sketch-ddb26739">
        <path class="cls-2" d="m773.03,144h0l-18.47-.27-3.9-.67-3.08-1.07-2.77-1.52-2.67-2.05-2.67-2.67-2.67-3.3-2.87-4.24-3.18-5.44-3.69-7.14-4.72-10.02-14.65-27.72-4.31-8.05-3.9-6.48-3.59-5.22-3.49-4.36-3.39-3.55-3.28-2.81-3.28-2.21-3.28-1.64-3.39-1.13-3.49-.6-3.69-.07-3.9.49-4.1,1.08-4.52,1.76-4.93,2.49-5.64,3.43-6.67,4.65-8.72,6.71-38.38,30.27-10.06,6.93-9.65,6.06-9.65,5.48-9.75,4.96-10.06,4.54-10.47,4.15-10.98,3.78-11.6,3.43-12.52,3.14-13.55,2.83-14.88,2.55-13.55,1.89"/>
      </g>
    </g>
  </g>
  <g id="Ebene_4" data-name="Ebene 4">
    <g>
      <line class="cls-3" x1="2.88" y1="144" x2="8.88" y2="144"/>
      <line class="cls-1" x1="20.96" y1="144" x2="764.12" y2="144"/>
      <line class="cls-3" x1="770.16" y1="144" x2="776.16" y2="144"/>
    </g>
    <line class="cls-3" x1="218.88" y1="144" x2="218.88" y2="164.16"/>
    <text class="cls-15" transform="translate(190.07 186.36)"><tspan class="cls-19" x="0" y="0">1</tspan><tspan x="7.57" y="0">0mm</tspan></text>
    <text class="cls-15" transform="translate(403.71 186.36)"><tspan class="cls-18" x="0" y="0">2</tspan><tspan x="12.29" y="0">0mm</tspan></text>
    <text class="cls-15" transform="translate(619.52 186.36)"><tspan class="cls-12" x="0" y="0">3</tspan><tspan x="12.67" y="0">0mm</tspan></text>
    <line class="cls-3" x1="434.88" y1="144" x2="434.88" y2="164.16"/>
    <line class="cls-3" x1="650.88" y1="144" x2="650.88" y2="164.16"/>
    <text class="cls-15" transform="translate(331.2 16.63)"><tspan class="cls-19" x="0" y="0">1</tspan><tspan class="cls-9" x="7.57" y="0">6</tspan><tspan class="cls-6" x="20.62" y="0">0</tspan><tspan class="cls-19" x="34.04" y="0">0</tspan><tspan x="47" y="0">Hz</tspan></text>
    <text class="cls-15" transform="translate(416.16 16.63)"><tspan class="cls-12" x="0" y="0">8</tspan><tspan class="cls-6" x="12.79" y="0">0</tspan><tspan class="cls-19" x="26.21" y="0">0</tspan><tspan x="39.17" y="0">Hz</tspan></text>
    <text class="cls-15" transform="translate(527.04 16.63)"><tspan class="cls-23" x="0" y="0">4</tspan><tspan class="cls-6" x="12.61" y="0">0</tspan><tspan class="cls-19" x="26.03" y="0">0</tspan><tspan x="39" y="0">Hz</tspan></text>
    <text class="cls-15" transform="translate(652.32 16.63)"><tspan class="cls-21" x="0" y="0">5</tspan><tspan class="cls-19" x="12.8" y="0">0</tspan><tspan x="25.76" y="0">Hz</tspan></text>
    <text class="cls-15" transform="translate(5.76 131.83)"><tspan class="cls-14" x="0" y="0">f</tspan><tspan class="cls-22" x="7" y="0">r</tspan><tspan class="cls-10" x="15.13" y="0">o</tspan><tspan x="27.65" y="0">m </tspan><tspan class="cls-17" x="51.29" y="0">o</tspan><tspan class="cls-4" x="63.49" y="0">v</tspan><tspan x="74.99" y="0">al w</tspan><tspan class="cls-5" x="115.04" y="0">i</tspan><tspan class="cls-20" x="120.33" y="0">n</tspan><tspan class="cls-10" x="132.94" y="0">d</tspan><tspan class="cls-7" x="145.44" y="0">o</tspan><tspan x="157.87" y="0">w</tspan></text>
    <text class="cls-15" transform="translate(758.88 131.83)"><tspan class="cls-16" x="0" y="0">t</tspan><tspan x="6.96" y="0">o </tspan><tspan class="cls-11" x="24.66" y="0">a</tspan><tspan class="cls-13" x="36.52" y="0">p</tspan><tspan class="cls-8" x="49.61" y="0">e</tspan><tspan x="61.12" y="0">x</tspan></text>
  </g>
</svg>