<?xml version="1.0" encoding="UTF-8"?>
<svg id="Ebene_1" data-name="Ebene 1" xmlns="http://www.w3.org/2000/svg" width="2149.2" height="781.2" viewBox="0 0 2149.2 781.2">
  <g id="Ebene_1-2" data-name="Ebene 1">
    <line x1="64.8" y1="133.2" x2="64.8" y2="61.2" fill="none" stroke="#c9d1d9" stroke-miterlimit="10" stroke-width="3"/>
    <line x1="1864.8" y1="133.2" x2="1864.8" y2="61.2" fill="none" stroke="#c9d1d9" stroke-miterlimit="10" stroke-width="3"/>
    <line x1="64.8" y1="61.2" x2="1864.8" y2="61.2" fill="none" stroke="#c9d1d9" stroke-miterlimit="10" stroke-width="3"/>
    <line x1="136.8" y1="133.2" x2="136.8" y2="61.2" fill="none" stroke="#c9d1d9" stroke-miterlimit="10" stroke-width="3"/>
    <line x1="208.8" y1="133.2" x2="208.8" y2="61.2" fill="none" stroke="#c9d1d9" stroke-miterlimit="10" stroke-width="3"/>
    <line x1="280.8" y1="133.2" x2="280.8" y2="61.2" fill="none" stroke="#c9d1d9" stroke-miterlimit="10" stroke-width="3"/>
    <line x1="352.8" y1="133.2" x2="352.8" y2="61.2" fill="none" stroke="#c9d1d9" stroke-miterlimit="10" stroke-width="3"/>
    <line x1="424.8" y1="133.2" x2="424.8" y2="61.2" fill="none" stroke="#c9d1d9" stroke-miterlimit="10" stroke-width="3"/>
    <line x1="496.8" y1="133.2" x2="496.8" y2="61.2" fill="none" stroke="#c9d1d9" stroke-miterlimit="10" stroke-width="3"/>
    <line x1="568.8" y1="133.2" x2="568.8" y2="61.2" fill="none" stroke="#c9d1d9" stroke-miterlimit="10" stroke-width="3"/>
    <line x1="640.8" y1="133.2" x2="640.8" y2="61.2" fill="none" stroke="#c9d1d9" stroke-miterlimit="10" stroke-width="3"/>
    <line x1="712.8" y1="133.2" x2="712.8" y2="61.2" fill="none" stroke="#c9d1d9" stroke-miterlimit="10" stroke-width="3"/>
    <line x1="784.8" y1="133.2" x2="784.8" y2="61.2" fill="none" stroke="#c9d1d9" stroke-miterlimit="10" stroke-width="3"/>
    <line x1="856.8" y1="133.2" x2="856.8" y2="61.2" fill="none" stroke="#c9d1d9" stroke-miterlimit="10" stroke-width="3"/>
    <line x1="928.8" y1="133.2" x2="928.8" y2="61.2" fill="none" stroke="#c9d1d9" stroke-miterlimit="10" stroke-width="3"/>
    <line x1="1000.8" y1="133.2" x2="1000.8" y2="61.2" fill="none" stroke="#c9d1d9" stroke-miterlimit="10" stroke-width="3"/>
    <line x1="1072.8" y1="133.2" x2="1072.8" y2="61.2" fill="none" stroke="#c9d1d9" stroke-miterlimit="10" stroke-width="3"/>
    <line x1="1144.8" y1="133.2" x2="1144.8" y2="61.2" fill="none" stroke="#c9d1d9" stroke-miterlimit="10" stroke-width="3"/>
    <line x1="1216.8" y1="133.2" x2="1216.8" y2="61.2" fill="none" stroke="#c9d1d9" stroke-miterlimit="10" stroke-width="3"/>
    <line x1="1288.8" y1="133.2" x2="1288.8" y2="61.2" fill="none" stroke="#c9d1d9" stroke-miterlimit="10" stroke-width="3"/>
    <line x1="1360.8" y1="133.2" x2="1360.8" y2="61.2" fill="none" stroke="#c9d1d9" stroke-miterlimit="10" stroke-width="3"/>
    <line x1="1432.8" y1="133.2" x2="1432.8" y2="61.2" fill="none" stroke="#c9d1d9" stroke-miterlimit="10" stroke-width="3"/>
    <line x1="1504.8" y1="133.2" x2="1504.8" y2="61.2" fill="none" stroke="#c9d1d9" stroke-miterlimit="10" stroke-width="3"/>
    <line x1="1576.8" y1="133.2" x2="1576.8" y2="61.2" fill="none" stroke="#c9d1d9" stroke-miterlimit="10" stroke-width="3"/>
    <line x1="1648.8" y1="133.2" x2="1648.8" y2="61.2" fill="none" stroke="#c9d1d9" stroke-miterlimit="10" stroke-width="3"/>
    <line x1="1720.8" y1="133.2" x2="1720.8" y2="61.2" fill="none" stroke="#c9d1d9" stroke-miterlimit="10" stroke-width="3"/>
    <line x1="1792.8" y1="133.2" x2="1792.8" y2="61.2" fill="none" stroke="#c9d1d9" stroke-miterlimit="10" stroke-width="3"/>
    <line x1="64.8" y1="583.2" x2="64.8" y2="637.2" fill="none" stroke="#c9d1d9" stroke-miterlimit="10" stroke-width="6"/>
    <line x1="1792.8" y1="583.2" x2="1792.8" y2="637.2" fill="none" stroke="#c9d1d9" stroke-miterlimit="10" stroke-width="6"/>
    <line x1="1522.8" y1="583.2" x2="1522.8" y2="637.2" fill="none" stroke="#c9d1d9" stroke-miterlimit="10" stroke-width="6"/>
    <line x1="1252.8" y1="583.2" x2="1252.8" y2="637.2" fill="none" stroke="#c9d1d9" stroke-miterlimit="10" stroke-width="6"/>
    <line x1="694.8" y1="583.2" x2="694.8" y2="637.2" fill="none" stroke="#c9d1d9" stroke-miterlimit="10" stroke-width="6"/>
    <line x1="979.2" y1="583.2" x2="979.2" y2="637.2" fill="none" stroke="#c9d1d9" stroke-miterlimit="10" stroke-width="6"/>
    <line x1="406.8" y1="583.2" x2="406.8" y2="637.2" fill="none" stroke="#c9d1d9" stroke-miterlimit="10" stroke-width="6"/>
    <line x1="244.8" y1="594" x2="244.8" y2="622.8" fill="none" stroke="#c9d1d9" stroke-miterlimit="10" stroke-width="6"/>
    <line x1="154.8" y1="594" x2="154.8" y2="622.8" fill="none" stroke="#c9d1d9" stroke-miterlimit="10" stroke-width="6"/>
    <line x1="1915.2" y1="608.4" x2="64.8" y2="608.4" fill="none" stroke="#c9d1d9" stroke-miterlimit="10" stroke-width="3"/>
    <line x1="61.2" y1="349.2" x2="1936.8" y2="349.2" fill="none" stroke="#c9d1d9" stroke-miterlimit="10" stroke-width="3"/>
    <line x1="496.8" y1="320.4" x2="496.8" y2="378" fill="none" stroke="#c9d1d9" stroke-miterlimit="10" stroke-width="3"/>
    <line x1="928.8" y1="320.4" x2="928.8" y2="378" fill="none" stroke="#c9d1d9" stroke-miterlimit="10" stroke-width="3"/>
    <line x1="1360.8" y1="320.4" x2="1360.8" y2="378" fill="none" stroke="#c9d1d9" stroke-miterlimit="10" stroke-width="3"/>
    <line x1="1792.8" y1="320.4" x2="1792.8" y2="378" fill="none" stroke="#c9d1d9" stroke-miterlimit="10" stroke-width="3"/>
    <ellipse cx="1953" cy="349.2" rx="16.2" ry="118.8" fill="#7f7f7f" isolation="isolate" opacity=".1" stroke="#c9d1d9" stroke-miterlimit="10" stroke-width="6"/>
    <g>
      <line x1="915.78" y1="230.4" x2="1915.2" y2="230.4" fill="none" stroke="#c9d1d9" stroke-miterlimit="10" stroke-width="3"/>
      <polygon points="921.72 239.12 889.2 230.41 921.72 221.68 921.72 239.12" fill="#c9d1d9"/>
    </g>
    <polygon points="61.2 230.4 61.2 468 1936.8 388.8 1936.8 309.6 61.2 230.4" fill="#7f7f7f" isolation="isolate" opacity=".2" stroke="#c9d1d9" stroke-miterlimit="10" stroke-width="6"/>
    <ellipse cx="1953" cy="349.2" rx="16.2" ry="118.8" fill="none" stroke="#c9d1d9" stroke-miterlimit="10" stroke-width="6"/>
    <polygon points="61.2 230.4 61.2 468 1936.8 388.8 1936.8 309.6 61.2 230.4" fill="none" stroke="#c9d1d9" stroke-miterlimit="10" stroke-width="6"/>
  </g>
  <g isolation="isolate">
    <g isolation="isolate">
      <path d="m74.634,688.695c0,5.078-.867,8.852-2.602,11.32s-4.445,3.703-8.133,3.703c-3.641,0-6.336-1.207-8.086-3.621s-2.656-6.02-2.719-10.816v-5.789c0-5.016.867-8.742,2.602-11.18s4.453-3.656,8.156-3.656c3.672,0,6.375,1.176,8.109,3.527s2.625,5.98,2.672,10.887v5.625Zm-4.336-5.93c0-3.672-.516-6.348-1.547-8.027s-2.664-2.52-4.898-2.52c-2.219,0-3.836.836-4.852,2.508s-1.539,4.242-1.57,7.711v6.938c0,3.688.535,6.41,1.605,8.168s2.691,2.637,4.863,2.637c2.141,0,3.73-.828,4.77-2.484s1.582-4.266,1.629-7.828v-7.102Z" fill="#c9d1d9"/>
    </g>
  </g>
  <g isolation="isolate">
    <g isolation="isolate">
      <path d="m222.284,683.275c0,5.078-.867,8.852-2.602,11.32s-4.445,3.703-8.133,3.703c-3.641,0-6.336-1.207-8.086-3.621s-2.656-6.02-2.719-10.816v-5.789c0-5.016.867-8.742,2.602-11.18s4.453-3.656,8.156-3.656c3.672,0,6.375,1.176,8.109,3.527s2.625,5.98,2.672,10.887v5.625Zm-4.336-5.93c0-3.672-.516-6.348-1.547-8.027s-2.664-2.52-4.898-2.52c-2.219,0-3.836.836-4.852,2.508s-1.539,4.242-1.57,7.711v6.938c0,3.688.535,6.41,1.605,8.168s2.691,2.637,4.863,2.637c2.141,0,3.73-.828,4.77-2.484s1.582-4.266,1.629-7.828v-7.102Z" fill="#c9d1d9"/>
      <path d="m228.378,695.557c0-.75.223-1.375.668-1.875s1.113-.75,2.004-.75,1.566.25,2.027.75.691,1.125.691,1.875c0,.719-.23,1.32-.691,1.805s-1.137.727-2.027.727-1.559-.242-2.004-.727-.668-1.086-.668-1.805Z" fill="#c9d1d9"/>
      <path d="m262.831,697.83h-22.359v-3.117l11.812-13.125c1.75-1.984,2.957-3.598,3.621-4.84s.996-2.527.996-3.855c0-1.781-.539-3.242-1.617-4.383s-2.516-1.711-4.312-1.711c-2.156,0-3.832.613-5.027,1.84s-1.793,2.934-1.793,5.121h-4.336c0-3.141,1.012-5.68,3.035-7.617s4.73-2.906,8.121-2.906c3.172,0,5.68.832,7.523,2.496s2.766,3.879,2.766,6.645c0,3.359-2.141,7.359-6.422,12l-9.141,9.914h17.133v3.539Z" fill="#c9d1d9"/>
      <path d="m269.417,680.721l1.734-17.016h17.484v4.008h-13.805l-1.031,9.305c1.672-.984,3.57-1.477,5.695-1.477,3.109,0,5.578,1.027,7.406,3.082s2.742,4.832,2.742,8.332-.949,6.285-2.848,8.309-4.551,3.035-7.957,3.035c-3.016,0-5.477-.836-7.383-2.508s-2.992-3.984-3.258-6.938h4.102c.266,1.953.961,3.426,2.086,4.418s2.609,1.488,4.453,1.488c2.016,0,3.598-.688,4.746-2.062s1.723-3.273,1.723-5.695c0-2.281-.621-4.113-1.863-5.496s-2.895-2.074-4.957-2.074c-1.891,0-3.375.414-4.453,1.242l-1.148.938-3.469-.891Z" fill="#c9d1d9"/>
    </g>
  </g>
  <g isolation="isolate">
    <g isolation="isolate">
      <path d="m397.764,685.096c0,5.078-.867,8.852-2.602,11.32s-4.445,3.703-8.133,3.703c-3.641,0-6.336-1.207-8.086-3.621s-2.656-6.02-2.719-10.816v-5.789c0-5.016.867-8.742,2.602-11.18s4.453-3.656,8.156-3.656c3.672,0,6.375,1.176,8.109,3.527s2.625,5.98,2.672,10.887v5.625Zm-4.336-5.93c0-3.672-.516-6.348-1.547-8.027s-2.664-2.52-4.898-2.52c-2.219,0-3.836.836-4.852,2.508s-1.539,4.242-1.57,7.711v6.938c0,3.688.535,6.41,1.605,8.168s2.691,2.637,4.863,2.637c2.141,0,3.73-.828,4.77-2.484s1.582-4.266,1.629-7.828v-7.102Z" fill="#c9d1d9"/>
      <path d="m403.858,697.377c0-.75.223-1.375.668-1.875s1.113-.75,2.004-.75,1.566.25,2.027.75.691,1.125.691,1.875c0,.719-.23,1.32-.691,1.805s-1.137.727-2.027.727-1.559-.242-2.004-.727-.668-1.086-.668-1.805Z" fill="#c9d1d9"/>
      <path d="m417.944,682.541l1.734-17.016h17.484v4.008h-13.805l-1.031,9.305c1.672-.984,3.57-1.477,5.695-1.477,3.109,0,5.578,1.027,7.406,3.082s2.742,4.832,2.742,8.332-.949,6.285-2.848,8.309-4.551,3.035-7.957,3.035c-3.016,0-5.477-.836-7.383-2.508s-2.992-3.984-3.258-6.938h4.102c.266,1.953.961,3.426,2.086,4.418s2.609,1.488,4.453,1.488c2.016,0,3.598-.688,4.746-2.062s1.723-3.273,1.723-5.695c0-2.281-.621-4.113-1.863-5.496s-2.895-2.074-4.957-2.074c-1.891,0-3.375.414-4.453,1.242l-1.148.938-3.469-.891Z" fill="#c9d1d9"/>
    </g>
  </g>
  <g isolation="isolate">
    <g isolation="isolate">
      <path d="m698.406,699.65h-4.359v-28.898l-8.742,3.211v-3.938l12.422-4.664h.68v34.289Z" fill="#c9d1d9"/>
    </g>
  </g>
  <g isolation="isolate">
    <g isolation="isolate">
      <path d="m990.915,699.65h-22.359v-3.117l11.812-13.125c1.75-1.984,2.957-3.598,3.621-4.84s.996-2.527.996-3.855c0-1.781-.539-3.242-1.617-4.383s-2.516-1.711-4.312-1.711c-2.156,0-3.832.613-5.027,1.84s-1.793,2.934-1.793,5.121h-4.336c0-3.141,1.012-5.68,3.035-7.617s4.73-2.906,8.121-2.906c3.172,0,5.68.832,7.523,2.496s2.766,3.879,2.766,6.645c0,3.359-2.141,7.359-6.422,12l-9.141,9.914h17.133v3.539Z" fill="#c9d1d9"/>
    </g>
  </g>
  <g isolation="isolate">
    <g isolation="isolate">
      <path d="m1260.461,691.789h4.734v3.539h-4.734v7.922h-4.359v-7.922h-15.539v-2.555l15.281-23.648h4.617v22.664Zm-14.977,0h10.617v-16.734l-.516.938-10.102,15.797Z" fill="#c9d1d9"/>
    </g>
  </g>
  <g isolation="isolate">
    <g isolation="isolate">
      <path d="m1532.852,674.432c0,1.703-.449,3.219-1.348,4.547s-2.113,2.367-3.645,3.117c1.781.766,3.191,1.883,4.23,3.352s1.559,3.133,1.559,4.992c0,2.953-.996,5.305-2.988,7.055s-4.613,2.625-7.863,2.625c-3.281,0-5.91-.879-7.887-2.637s-2.965-4.105-2.965-7.043c0-1.844.504-3.508,1.512-4.992s2.402-2.609,4.184-3.375c-1.516-.75-2.711-1.789-3.586-3.117s-1.312-2.836-1.312-4.523c0-2.875.922-5.156,2.766-6.844s4.273-2.531,7.289-2.531c3,0,5.426.844,7.277,2.531s2.777,3.969,2.777,6.844Zm-3.539,15.914c0-1.906-.605-3.461-1.816-4.664s-2.793-1.805-4.746-1.805-3.52.594-4.699,1.781-1.77,2.75-1.77,4.688.574,3.461,1.723,4.57,2.746,1.664,4.793,1.664c2.031,0,3.625-.559,4.781-1.676s1.734-2.637,1.734-4.559Zm-6.516-21.727c-1.703,0-3.082.527-4.137,1.582s-1.582,2.488-1.582,4.301c0,1.734.52,3.137,1.559,4.207s2.426,1.605,4.16,1.605,3.121-.535,4.16-1.605,1.559-2.473,1.559-4.207-.539-3.148-1.617-4.242-2.445-1.641-4.102-1.641Z" fill="#c9d1d9"/>
    </g>
  </g>
  <g isolation="isolate">
    <g isolation="isolate">
      <path d="m1782.936,699.65h-4.359v-28.898l-8.742,3.211v-3.938l12.422-4.664h.68v34.289Z" fill="#c9d1d9"/>
      <path d="m1812.654,665.502v3.68h-.797c-3.375.062-6.062,1.062-8.062,3s-3.156,4.664-3.469,8.18c1.797-2.062,4.25-3.094,7.359-3.094,2.969,0,5.34,1.047,7.113,3.141s2.66,4.797,2.66,8.109c0,3.516-.957,6.328-2.871,8.438s-4.48,3.164-7.699,3.164c-3.266,0-5.914-1.254-7.945-3.762s-3.047-5.738-3.047-9.691v-1.664c0-6.281,1.34-11.082,4.02-14.402s6.668-5.02,11.965-5.098h.773Zm-5.695,15.375c-1.484,0-2.852.445-4.102,1.336s-2.117,2.008-2.602,3.352v1.594c0,2.812.633,5.078,1.898,6.797s2.844,2.578,4.734,2.578c1.953,0,3.488-.719,4.605-2.156s1.676-3.32,1.676-5.648c0-2.344-.566-4.238-1.699-5.684s-2.637-2.168-4.512-2.168Z" fill="#c9d1d9"/>
    </g>
  </g>
  <g isolation="isolate">
    <g isolation="isolate">
      <path d="m110.634,96.675c0,5.078-.867,8.852-2.602,11.32s-4.445,3.703-8.133,3.703c-3.641,0-6.336-1.207-8.086-3.621s-2.656-6.02-2.719-10.816v-5.789c0-5.016.867-8.742,2.602-11.18s4.453-3.656,8.156-3.656c3.672,0,6.375,1.176,8.109,3.527s2.625,5.98,2.672,10.887v5.625Zm-4.336-5.93c0-3.672-.516-6.348-1.547-8.027s-2.664-2.52-4.898-2.52c-2.219,0-3.836.836-4.852,2.508s-1.539,4.242-1.57,7.711v6.938c0,3.688.535,6.41,1.605,8.168s2.691,2.637,4.863,2.637c2.141,0,3.73-.828,4.77-2.484s1.582-4.266,1.629-7.828v-7.102Z" fill="#c9d1d9"/>
    </g>
  </g>
  <g isolation="isolate">
    <g isolation="isolate">
      <path d="m182.686,111.23h-4.359v-28.898l-8.742,3.211v-3.938l12.422-4.664h.68v34.289Z" fill="#c9d1d9"/>
    </g>
  </g>
  <g isolation="isolate">
    <g isolation="isolate">
      <path d="m255.595,111.23h-22.359v-3.117l11.812-13.125c1.75-1.984,2.957-3.598,3.621-4.84s.996-2.527.996-3.855c0-1.781-.539-3.242-1.617-4.383s-2.516-1.711-4.312-1.711c-2.156,0-3.832.613-5.027,1.84s-1.793,2.934-1.793,5.121h-4.336c0-3.141,1.012-5.68,3.035-7.617s4.73-2.906,8.121-2.906c3.172,0,5.68.832,7.523,2.496s2.766,3.879,2.766,6.645c0,3.359-2.141,7.359-6.422,12l-9.141,9.914h17.133v3.539Z" fill="#c9d1d9"/>
    </g>
  </g>
  <g isolation="isolate">
    <g isolation="isolate">
      <path d="m312.801,92.058h3.258c2.047-.031,3.656-.57,4.828-1.617s1.758-2.461,1.758-4.242c0-4-1.992-6-5.977-6-1.875,0-3.371.535-4.488,1.605s-1.676,2.488-1.676,4.254h-4.336c0-2.703.988-4.949,2.965-6.738s4.488-2.684,7.535-2.684c3.219,0,5.742.852,7.57,2.555s2.742,4.07,2.742,7.102c0,1.484-.48,2.922-1.441,4.312s-2.27,2.43-3.926,3.117c1.875.594,3.324,1.578,4.348,2.953s1.535,3.055,1.535,5.039c0,3.062-1,5.492-3,7.289s-4.602,2.695-7.805,2.695-5.809-.867-7.816-2.602-3.012-4.023-3.012-6.867h4.359c0,1.797.586,3.234,1.758,4.312s2.742,1.617,4.711,1.617c2.094,0,3.695-.547,4.805-1.641s1.664-2.664,1.664-4.711c0-1.984-.609-3.508-1.828-4.57s-2.977-1.609-5.273-1.641h-3.258v-3.539Z" fill="#c9d1d9"/>
    </g>
  </g>
  <g isolation="isolate">
    <g isolation="isolate">
      <path d="m391.94,99.769h4.734v3.539h-4.734v7.922h-4.359v-7.922h-15.539v-2.555l15.281-23.648h4.617v22.664Zm-14.977,0h10.617v-16.734l-.516.938-10.102,15.797Z" fill="#c9d1d9"/>
    </g>
  </g>
  <g isolation="isolate">
    <g isolation="isolate">
      <path d="m450.898,94.121l1.734-17.016h17.484v4.008h-13.805l-1.031,9.305c1.672-.984,3.57-1.477,5.695-1.477,3.109,0,5.578,1.027,7.406,3.082s2.742,4.832,2.742,8.332-.949,6.285-2.848,8.309-4.551,3.035-7.957,3.035c-3.016,0-5.477-.836-7.383-2.508s-2.992-3.984-3.258-6.938h4.102c.266,1.953.961,3.426,2.086,4.418s2.609,1.488,4.453,1.488c2.016,0,3.598-.688,4.746-2.062s1.723-3.273,1.723-5.695c0-2.281-.621-4.113-1.863-5.496s-2.895-2.074-4.957-2.074c-1.891,0-3.375.414-4.453,1.242l-1.148.938-3.469-.891Z" fill="#c9d1d9"/>
    </g>
  </g>
  <g isolation="isolate">
    <g isolation="isolate">
      <path d="m531.052,77.082v3.68h-.797c-3.375.062-6.062,1.062-8.062,3s-3.156,4.664-3.469,8.18c1.797-2.062,4.25-3.094,7.359-3.094,2.969,0,5.34,1.047,7.113,3.141s2.66,4.797,2.66,8.109c0,3.516-.957,6.328-2.871,8.438s-4.48,3.164-7.699,3.164c-3.266,0-5.914-1.254-7.945-3.762s-3.047-5.738-3.047-9.691v-1.664c0-6.281,1.34-11.082,4.02-14.402s6.668-5.02,11.965-5.098h.773Zm-5.695,15.375c-1.484,0-2.852.445-4.102,1.336s-2.117,2.008-2.602,3.352v1.594c0,2.812.633,5.078,1.898,6.797s2.844,2.578,4.734,2.578c1.953,0,3.488-.719,4.605-2.156s1.676-3.32,1.676-5.648c0-2.344-.566-4.238-1.699-5.684s-2.637-2.168-4.512-2.168Z" fill="#c9d1d9"/>
    </g>
  </g>
  <g isolation="isolate">
    <g isolation="isolate">
      <path d="m615.267,79.542l-14.133,31.688h-4.547l14.086-30.562h-18.469v-3.562h23.062v2.438Z" fill="#c9d1d9"/>
    </g>
  </g>
  <g isolation="isolate">
    <g isolation="isolate">
      <path d="m685.931,86.011c0,1.703-.449,3.219-1.348,4.547s-2.113,2.367-3.645,3.117c1.781.766,3.191,1.883,4.23,3.352s1.559,3.133,1.559,4.992c0,2.953-.996,5.305-2.988,7.055s-4.613,2.625-7.863,2.625c-3.281,0-5.91-.879-7.887-2.637s-2.965-4.105-2.965-7.043c0-1.844.504-3.508,1.512-4.992s2.402-2.609,4.184-3.375c-1.516-.75-2.711-1.789-3.586-3.117s-1.312-2.836-1.312-4.523c0-2.875.922-5.156,2.766-6.844s4.273-2.531,7.289-2.531c3,0,5.426.844,7.277,2.531s2.777,3.969,2.777,6.844Zm-3.539,15.914c0-1.906-.605-3.461-1.816-4.664s-2.793-1.805-4.746-1.805-3.52.594-4.699,1.781-1.77,2.75-1.77,4.688.574,3.461,1.723,4.57,2.746,1.664,4.793,1.664c2.031,0,3.625-.559,4.781-1.676s1.734-2.637,1.734-4.559Zm-6.516-21.727c-1.703,0-3.082.527-4.137,1.582s-1.582,2.488-1.582,4.301c0,1.734.52,3.137,1.559,4.207s2.426,1.605,4.16,1.605,3.121-.535,4.16-1.605,1.559-2.473,1.559-4.207-.539-3.148-1.617-4.242-2.445-1.641-4.102-1.641Z" fill="#c9d1d9"/>
    </g>
  </g>
  <g isolation="isolate">
    <g isolation="isolate">
      <path d="m753.853,96.23c-.906,1.078-1.988,1.945-3.246,2.602s-2.637.984-4.137.984c-1.969,0-3.684-.484-5.145-1.453s-2.59-2.332-3.387-4.09-1.195-3.699-1.195-5.824c0-2.281.434-4.336,1.301-6.164s2.098-3.227,3.691-4.195,3.453-1.453,5.578-1.453c3.375,0,6.035,1.262,7.98,3.785s2.918,5.965,2.918,10.324v1.266c0,6.641-1.312,11.488-3.938,14.543s-6.586,4.621-11.883,4.699h-.844v-3.68h.914c3.578-.062,6.328-.994,8.25-2.795s2.969-4.65,3.141-8.549Zm-6.68,0c1.453,0,2.793-.445,4.02-1.336s2.121-1.992,2.684-3.305v-1.734c0-2.844-.617-5.156-1.852-6.938s-2.797-2.672-4.688-2.672c-1.906,0-3.438.73-4.594,2.191s-1.734,3.387-1.734,5.777c0,2.328.559,4.246,1.676,5.754s2.613,2.262,4.488,2.262Z" fill="#c9d1d9"/>
    </g>
  </g>
  <g isolation="isolate">
    <g isolation="isolate">
      <path d="m809.086,111.23h-4.359v-28.898l-8.742,3.211v-3.938l12.422-4.664h.68v34.289Z" fill="#c9d1d9"/>
      <path d="m843.188,96.675c0,5.078-.867,8.852-2.602,11.32s-4.445,3.703-8.133,3.703c-3.641,0-6.336-1.207-8.086-3.621s-2.656-6.02-2.719-10.816v-5.789c0-5.016.867-8.742,2.602-11.18s4.453-3.656,8.156-3.656c3.672,0,6.375,1.176,8.109,3.527s2.625,5.98,2.672,10.887v5.625Zm-4.336-5.93c0-3.672-.516-6.348-1.547-8.027s-2.664-2.52-4.898-2.52c-2.219,0-3.836.836-4.852,2.508s-1.539,4.242-1.57,7.711v6.938c0,3.688.535,6.41,1.605,8.168s2.691,2.637,4.863,2.637c2.141,0,3.73-.828,4.77-2.484s1.582-4.266,1.629-7.828v-7.102Z" fill="#c9d1d9"/>
    </g>
  </g>
  <g isolation="isolate">
    <g isolation="isolate">
      <path d="m881.086,111.23h-4.359v-28.898l-8.742,3.211v-3.938l12.422-4.664h.68v34.289Z" fill="#c9d1d9"/>
      <path d="m908.039,111.23h-4.359v-28.898l-8.742,3.211v-3.938l12.422-4.664h.68v34.289Z" fill="#c9d1d9"/>
    </g>
  </g>
  <g isolation="isolate">
    <g isolation="isolate">
      <path d="m956.686,111.23h-4.359v-28.898l-8.742,3.211v-3.938l12.422-4.664h.68v34.289Z" fill="#c9d1d9"/>
      <path d="m991.749,111.23h-22.359v-3.117l11.812-13.125c1.75-1.984,2.957-3.598,3.621-4.84s.996-2.527.996-3.855c0-1.781-.539-3.242-1.617-4.383s-2.516-1.711-4.312-1.711c-2.156,0-3.832.613-5.027,1.84s-1.793,2.934-1.793,5.121h-4.336c0-3.141,1.012-5.68,3.035-7.617s4.73-2.906,8.121-2.906c3.172,0,5.68.832,7.523,2.496s2.766,3.879,2.766,6.645c0,3.359-2.141,7.359-6.422,12l-9.141,9.914h17.133v3.539Z" fill="#c9d1d9"/>
    </g>
  </g>
  <g isolation="isolate">
    <g isolation="isolate">
      <path d="m1025.086,111.23h-4.359v-28.898l-8.742,3.211v-3.938l12.422-4.664h.68v34.289Z" fill="#c9d1d9"/>
      <path d="m1044.094,92.058h3.258c2.047-.031,3.656-.57,4.828-1.617s1.758-2.461,1.758-4.242c0-4-1.992-6-5.977-6-1.875,0-3.371.535-4.488,1.605s-1.676,2.488-1.676,4.254h-4.336c0-2.703.988-4.949,2.965-6.738s4.488-2.684,7.535-2.684c3.219,0,5.742.852,7.57,2.555s2.742,4.07,2.742,7.102c0,1.484-.48,2.922-1.441,4.312s-2.27,2.43-3.926,3.117c1.875.594,3.324,1.578,4.348,2.953s1.535,3.055,1.535,5.039c0,3.062-1,5.492-3,7.289s-4.602,2.695-7.805,2.695-5.809-.867-7.816-2.602-3.012-4.023-3.012-6.867h4.359c0,1.797.586,3.234,1.758,4.312s2.742,1.617,4.711,1.617c2.094,0,3.695-.547,4.805-1.641s1.664-2.664,1.664-4.711c0-1.984-.609-3.508-1.828-4.57s-2.977-1.609-5.273-1.641h-3.258v-3.539Z" fill="#c9d1d9"/>
    </g>
  </g>
  <g isolation="isolate">
    <g isolation="isolate">
      <path d="m1097.086,111.23h-4.359v-28.898l-8.742,3.211v-3.938l12.422-4.664h.68v34.289Z" fill="#c9d1d9"/>
      <path d="m1128.094,99.769h4.734v3.539h-4.734v7.922h-4.359v-7.922h-15.539v-2.555l15.281-23.648h4.617v22.664Zm-14.977,0h10.617v-16.734l-.516.938-10.102,15.797Z" fill="#c9d1d9"/>
    </g>
  </g>
  <g isolation="isolate">
    <g isolation="isolate">
      <path d="m1169.086,111.23h-4.359v-28.898l-8.742,3.211v-3.938l12.422-4.664h.68v34.289Z" fill="#c9d1d9"/>
      <path d="m1183.781,94.121l1.734-17.016h17.484v4.008h-13.805l-1.031,9.305c1.672-.984,3.57-1.477,5.695-1.477,3.109,0,5.578,1.027,7.406,3.082s2.742,4.832,2.742,8.332-.949,6.285-2.848,8.309-4.551,3.035-7.957,3.035c-3.016,0-5.477-.836-7.383-2.508s-2.992-3.984-3.258-6.938h4.102c.266,1.953.961,3.426,2.086,4.418s2.609,1.488,4.453,1.488c2.016,0,3.598-.688,4.746-2.062s1.723-3.273,1.723-5.695c0-2.281-.621-4.113-1.863-5.496s-2.895-2.074-4.957-2.074c-1.891,0-3.375.414-4.453,1.242l-1.148.938-3.469-.891Z" fill="#c9d1d9"/>
    </g>
  </g>
  <g isolation="isolate">
    <g isolation="isolate">
      <path d="m1237.486,111.23h-4.359v-28.898l-8.742,3.211v-3.938l12.422-4.664h.68v34.289Z" fill="#c9d1d9"/>
      <path d="m1267.205,77.082v3.68h-.797c-3.375.062-6.062,1.062-8.062,3s-3.156,4.664-3.469,8.18c1.797-2.062,4.25-3.094,7.359-3.094,2.969,0,5.34,1.047,7.113,3.141s2.66,4.797,2.66,8.109c0,3.516-.957,6.328-2.871,8.438s-4.48,3.164-7.699,3.164c-3.266,0-5.914-1.254-7.945-3.762s-3.047-5.738-3.047-9.691v-1.664c0-6.281,1.34-11.082,4.02-14.402s6.668-5.02,11.965-5.098h.773Zm-5.695,15.375c-1.484,0-2.852.445-4.102,1.336s-2.117,2.008-2.602,3.352v1.594c0,2.812.633,5.078,1.898,6.797s2.844,2.578,4.734,2.578c1.953,0,3.488-.719,4.605-2.156s1.676-3.32,1.676-5.648c0-2.344-.566-4.238-1.699-5.684s-2.637-2.168-4.512-2.168Z" fill="#c9d1d9"/>
    </g>
  </g>
  <g isolation="isolate">
    <g isolation="isolate">
      <path d="m1313.086,111.23h-4.359v-28.898l-8.742,3.211v-3.938l12.422-4.664h.68v34.289Z" fill="#c9d1d9"/>
      <path d="m1347.82,79.542l-14.133,31.688h-4.547l14.086-30.562h-18.469v-3.562h23.062v2.438Z" fill="#c9d1d9"/>
    </g>
  </g>
  <g isolation="isolate">
    <g isolation="isolate">
      <path d="m1388.686,111.23h-4.359v-28.898l-8.742,3.211v-3.938l12.422-4.664h.68v34.289Z" fill="#c9d1d9"/>
      <path d="m1422.084,86.011c0,1.703-.449,3.219-1.348,4.547s-2.113,2.367-3.645,3.117c1.781.766,3.191,1.883,4.23,3.352s1.559,3.133,1.559,4.992c0,2.953-.996,5.305-2.988,7.055s-4.613,2.625-7.863,2.625c-3.281,0-5.91-.879-7.887-2.637s-2.965-4.105-2.965-7.043c0-1.844.504-3.508,1.512-4.992s2.402-2.609,4.184-3.375c-1.516-.75-2.711-1.789-3.586-3.117s-1.312-2.836-1.312-4.523c0-2.875.922-5.156,2.766-6.844s4.273-2.531,7.289-2.531c3,0,5.426.844,7.277,2.531s2.777,3.969,2.777,6.844Zm-3.539,15.914c0-1.906-.605-3.461-1.816-4.664s-2.793-1.805-4.746-1.805-3.52.594-4.699,1.781-1.77,2.75-1.77,4.688.574,3.461,1.723,4.57,2.746,1.664,4.793,1.664c2.031,0,3.625-.559,4.781-1.676s1.734-2.637,1.734-4.559Zm-6.516-21.727c-1.703,0-3.082.527-4.137,1.582s-1.582,2.488-1.582,4.301c0,1.734.52,3.137,1.559,4.207s2.426,1.605,4.16,1.605,3.121-.535,4.16-1.605,1.559-2.473,1.559-4.207-.539-3.148-1.617-4.242-2.445-1.641-4.102-1.641Z" fill="#c9d1d9"/>
    </g>
  </g>
  <g isolation="isolate">
    <g isolation="isolate">
      <path d="m1457.086,111.23h-4.359v-28.898l-8.742,3.211v-3.938l12.422-4.664h.68v34.289Z" fill="#c9d1d9"/>
      <path d="m1486.406,96.23c-.906,1.078-1.988,1.945-3.246,2.602s-2.637.984-4.137.984c-1.969,0-3.684-.484-5.145-1.453s-2.59-2.332-3.387-4.09-1.195-3.699-1.195-5.824c0-2.281.434-4.336,1.301-6.164s2.098-3.227,3.691-4.195,3.453-1.453,5.578-1.453c3.375,0,6.035,1.262,7.98,3.785s2.918,5.965,2.918,10.324v1.266c0,6.641-1.312,11.488-3.938,14.543s-6.586,4.621-11.883,4.699h-.844v-3.68h.914c3.578-.062,6.328-.994,8.25-2.795s2.969-4.65,3.141-8.549Zm-6.68,0c1.453,0,2.793-.445,4.02-1.336s2.121-1.992,2.684-3.305v-1.734c0-2.844-.617-5.156-1.852-6.938s-2.797-2.672-4.688-2.672c-1.906,0-3.438.73-4.594,2.191s-1.734,3.387-1.734,5.777c0,2.328.559,4.246,1.676,5.754s2.613,2.262,4.488,2.262Z" fill="#c9d1d9"/>
    </g>
  </g>
  <g isolation="isolate">
    <g isolation="isolate">
      <path d="m1537.195,111.23h-22.359v-3.117l11.812-13.125c1.75-1.984,2.957-3.598,3.621-4.84s.996-2.527.996-3.855c0-1.781-.539-3.242-1.617-4.383s-2.516-1.711-4.312-1.711c-2.156,0-3.832.613-5.027,1.84s-1.793,2.934-1.793,5.121h-4.336c0-3.141,1.012-5.68,3.035-7.617s4.73-2.906,8.121-2.906c3.172,0,5.68.832,7.523,2.496s2.766,3.879,2.766,6.645c0,3.359-2.141,7.359-6.422,12l-9.141,9.914h17.133v3.539Z" fill="#c9d1d9"/>
      <path d="m1563.188,96.675c0,5.078-.867,8.852-2.602,11.32s-4.445,3.703-8.133,3.703c-3.641,0-6.336-1.207-8.086-3.621s-2.656-6.02-2.719-10.816v-5.789c0-5.016.867-8.742,2.602-11.18s4.453-3.656,8.156-3.656c3.672,0,6.375,1.176,8.109,3.527s2.625,5.98,2.672,10.887v5.625Zm-4.336-5.93c0-3.672-.516-6.348-1.547-8.027s-2.664-2.52-4.898-2.52c-2.219,0-3.836.836-4.852,2.508s-1.539,4.242-1.57,7.711v6.938c0,3.688.535,6.41,1.605,8.168s2.691,2.637,4.863,2.637c2.141,0,3.73-.828,4.77-2.484s1.582-4.266,1.629-7.828v-7.102Z" fill="#c9d1d9"/>
    </g>
  </g>
  <g isolation="isolate">
    <g isolation="isolate">
      <path d="m1609.195,111.23h-22.359v-3.117l11.812-13.125c1.75-1.984,2.957-3.598,3.621-4.84s.996-2.527.996-3.855c0-1.781-.539-3.242-1.617-4.383s-2.516-1.711-4.312-1.711c-2.156,0-3.832.613-5.027,1.84s-1.793,2.934-1.793,5.121h-4.336c0-3.141,1.012-5.68,3.035-7.617s4.73-2.906,8.121-2.906c3.172,0,5.68.832,7.523,2.496s2.766,3.879,2.766,6.645c0,3.359-2.141,7.359-6.422,12l-9.141,9.914h17.133v3.539Z" fill="#c9d1d9"/>
      <path d="m1628.039,111.23h-4.359v-28.898l-8.742,3.211v-3.938l12.422-4.664h.68v34.289Z" fill="#c9d1d9"/>
    </g>
  </g>
  <g isolation="isolate">
    <g isolation="isolate">
      <path d="m1681.195,111.23h-22.359v-3.117l11.812-13.125c1.75-1.984,2.957-3.598,3.621-4.84s.996-2.527.996-3.855c0-1.781-.539-3.242-1.617-4.383s-2.516-1.711-4.312-1.711c-2.156,0-3.832.613-5.027,1.84s-1.793,2.934-1.793,5.121h-4.336c0-3.141,1.012-5.68,3.035-7.617s4.73-2.906,8.121-2.906c3.172,0,5.68.832,7.523,2.496s2.766,3.879,2.766,6.645c0,3.359-2.141,7.359-6.422,12l-9.141,9.914h17.133v3.539Z" fill="#c9d1d9"/>
      <path d="m1708.148,111.23h-22.359v-3.117l11.812-13.125c1.75-1.984,2.957-3.598,3.621-4.84s.996-2.527.996-3.855c0-1.781-.539-3.242-1.617-4.383s-2.516-1.711-4.312-1.711c-2.156,0-3.832.613-5.027,1.84s-1.793,2.934-1.793,5.121h-4.336c0-3.141,1.012-5.68,3.035-7.617s4.73-2.906,8.121-2.906c3.172,0,5.68.832,7.523,2.496s2.766,3.879,2.766,6.645c0,3.359-2.141,7.359-6.422,12l-9.141,9.914h17.133v3.539Z" fill="#c9d1d9"/>
    </g>
  </g>
  <g isolation="isolate">
    <g isolation="isolate">
      <path d="m1753.195,111.23h-22.359v-3.117l11.812-13.125c1.75-1.984,2.957-3.598,3.621-4.84s.996-2.527.996-3.855c0-1.781-.539-3.242-1.617-4.383s-2.516-1.711-4.312-1.711c-2.156,0-3.832.613-5.027,1.84s-1.793,2.934-1.793,5.121h-4.336c0-3.141,1.012-5.68,3.035-7.617s4.73-2.906,8.121-2.906c3.172,0,5.68.832,7.523,2.496s2.766,3.879,2.766,6.645c0,3.359-2.141,7.359-6.422,12l-9.141,9.914h17.133v3.539Z" fill="#c9d1d9"/>
      <path d="m1764.094,92.058h3.258c2.047-.031,3.656-.57,4.828-1.617s1.758-2.461,1.758-4.242c0-4-1.992-6-5.977-6-1.875,0-3.371.535-4.488,1.605s-1.676,2.488-1.676,4.254h-4.336c0-2.703.988-4.949,2.965-6.738s4.488-2.684,7.535-2.684c3.219,0,5.742.852,7.57,2.555s2.742,4.07,2.742,7.102c0,1.484-.48,2.922-1.441,4.312s-2.27,2.43-3.926,3.117c1.875.594,3.324,1.578,4.348,2.953s1.535,3.055,1.535,5.039c0,3.062-1,5.492-3,7.289s-4.602,2.695-7.805,2.695-5.809-.867-7.816-2.602-3.012-4.023-3.012-6.867h4.359c0,1.797.586,3.234,1.758,4.312s2.742,1.617,4.711,1.617c2.094,0,3.695-.547,4.805-1.641s1.664-2.664,1.664-4.711c0-1.984-.609-3.508-1.828-4.57s-2.977-1.609-5.273-1.641h-3.258v-3.539Z" fill="#c9d1d9"/>
    </g>
  </g>
  <g isolation="isolate">
    <g isolation="isolate">
      <path d="m1828.795,111.23h-22.359v-3.117l11.812-13.125c1.75-1.984,2.957-3.598,3.621-4.84s.996-2.527.996-3.855c0-1.781-.539-3.242-1.617-4.383s-2.516-1.711-4.312-1.711c-2.156,0-3.832.613-5.027,1.84s-1.793,2.934-1.793,5.121h-4.336c0-3.141,1.012-5.68,3.035-7.617s4.73-2.906,8.121-2.906c3.172,0,5.68.832,7.523,2.496s2.766,3.879,2.766,6.645c0,3.359-2.141,7.359-6.422,12l-9.141,9.914h17.133v3.539Z" fill="#c9d1d9"/>
      <path d="m1851.693,99.769h4.734v3.539h-4.734v7.922h-4.359v-7.922h-15.539v-2.555l15.281-23.648h4.617v22.664Zm-14.977,0h10.617v-16.734l-.516.938-10.102,15.797Z" fill="#c9d1d9"/>
    </g>
  </g>
  <g isolation="isolate">
    <g isolation="isolate">
      <path d="m1915.561,111.23v-34.125h11.156c3.703,0,6.488.766,8.355,2.297s2.801,3.797,2.801,6.797c0,1.594-.453,3.004-1.359,4.23s-2.141,2.176-3.703,2.848c1.844.516,3.301,1.496,4.371,2.941s1.605,3.168,1.605,5.168c0,3.062-.992,5.469-2.977,7.219s-4.789,2.625-8.414,2.625h-11.836Zm4.5-19.57h6.797c1.969,0,3.543-.493,4.723-1.479s1.77-2.325,1.77-4.017c0-1.879-.547-3.245-1.641-4.099s-2.758-1.28-4.992-1.28h-6.656v10.875Zm0,3.609v12.281h7.43c2.094,0,3.746-.543,4.957-1.629s1.816-2.582,1.816-4.488c0-4.109-2.234-6.164-6.703-6.164h-7.5Z" fill="#c9d1d9"/>
      <path d="m1960.42,111.23c-.25-.5-.453-1.391-.609-2.672-2.016,2.094-4.422,3.141-7.219,3.141-2.5,0-4.551-.707-6.152-2.121s-2.402-3.207-2.402-5.379c0-2.641,1.004-4.691,3.012-6.152s4.832-2.191,8.473-2.191h4.219v-1.992c0-1.516-.453-2.723-1.359-3.621s-2.242-1.348-4.008-1.348c-1.547,0-2.844.391-3.891,1.172s-1.57,1.727-1.57,2.836h-4.359c0-1.266.449-2.488,1.348-3.668s2.117-2.113,3.656-2.801,3.23-1.031,5.074-1.031c2.922,0,5.211.73,6.867,2.191s2.516,3.473,2.578,6.035v11.672c0,2.328.297,4.18.891,5.555v.375h-4.547Zm-7.195-3.305c1.359,0,2.648-.352,3.867-1.055s2.102-1.617,2.648-2.742v-5.203h-3.398c-5.312,0-7.969,1.555-7.969,4.664,0,1.359.453,2.422,1.359,3.188s2.07,1.148,3.492,1.148Z" fill="#c9d1d9"/>
      <path d="m1983.131,89.761c-.656-.109-1.367-.164-2.133-.164-2.844,0-4.773,1.211-5.789,3.633v18h-4.336v-25.359h4.219l.07,2.93c1.422-2.266,3.438-3.398,6.047-3.398.844,0,1.484.109,1.922.328v4.031Z" fill="#c9d1d9"/>
      <path d="m1994.193,99.488l-2.719,2.836v8.906h-4.336v-36h4.336v21.773l2.32-2.789,7.898-8.344h5.273l-9.867,10.594,11.016,14.766h-5.086l-8.836-11.742Z" fill="#c9d1d9"/>
    </g>
  </g>
  <g isolation="isolate">
    <g isolation="isolate">
      <path d="m39.6,449.282v4.523h-15.773v17.203h15.773v4.5H5.475v-4.5h14.672v-17.203H5.475v-4.523h34.125Z" fill="#c9d1d9"/>
      <path d="m40.069,431.446c0,3.438-1.129,6.234-3.387,8.391s-5.277,3.234-9.059,3.234h-.797c-2.516,0-4.762-.48-6.738-1.441s-3.523-2.305-4.641-4.031-1.676-3.598-1.676-5.613c0-3.297,1.086-5.859,3.258-7.688s5.281-2.742,9.328-2.742h1.805v17.18c2.5-.062,4.52-.793,6.059-2.191s2.309-3.176,2.309-5.332c0-1.531-.312-2.828-.938-3.891s-1.453-1.992-2.484-2.789l2.062-2.648c3.266,2.125,4.898,5.312,4.898,9.562Zm-22.734.539c0,1.75.637,3.219,1.91,4.406s3.059,1.922,5.355,2.203v-12.703h-.328c-2.203.125-3.91.719-5.121,1.781s-1.816,2.5-1.816,4.312Z" fill="#c9d1d9"/>
      <path d="m39.6,411.829v4.336H3.6v-4.336h36Z" fill="#c9d1d9"/>
      <path d="m7.514,404.868c-.703,0-1.297-.215-1.781-.645s-.727-1.066-.727-1.91.242-1.484.727-1.922,1.078-.656,1.781-.656,1.289.219,1.758.656.703,1.078.703,1.922-.234,1.48-.703,1.91-1.055.645-1.758.645Zm32.086-4.688v4.336H14.241v-4.336h25.359Z" fill="#c9d1d9"/>
      <path d="m36.53,383.071c0-1.547-.469-2.898-1.406-4.055s-2.109-1.797-3.516-1.922v-4.102c1.453.078,2.836.578,4.148,1.5s2.359,2.152,3.141,3.691,1.172,3.168,1.172,4.887c0,3.453-1.152,6.199-3.457,8.238s-5.457,3.059-9.457,3.059h-.727c-2.469,0-4.664-.453-6.586-1.359s-3.414-2.207-4.477-3.902-1.594-3.699-1.594-6.012c0-2.844.852-5.207,2.555-7.09s3.914-2.887,6.633-3.012v4.102c-1.641.125-2.988.746-4.043,1.863s-1.582,2.496-1.582,4.137c0,2.203.793,3.91,2.379,5.121s3.879,1.816,6.879,1.816h.82c2.922,0,5.172-.602,6.75-1.805s2.367-2.922,2.367-5.156Z" fill="#c9d1d9"/>
      <path d="m26.686,369.267c-2.484,0-4.719-.488-6.703-1.465s-3.516-2.336-4.594-4.078-1.617-3.73-1.617-5.965c0-3.453,1.195-6.246,3.586-8.379s5.57-3.199,9.539-3.199h.305c2.469,0,4.684.473,6.645,1.418s3.488,2.297,4.582,4.055,1.641,3.777,1.641,6.059c0,3.438-1.195,6.223-3.586,8.355s-5.555,3.199-9.492,3.199h-.305Zm.516-4.359c2.812,0,5.07-.652,6.773-1.957s2.555-3.051,2.555-5.238c0-2.203-.863-3.953-2.59-5.25s-4.145-1.945-7.254-1.945c-2.781,0-5.035.66-6.762,1.98s-2.59,3.074-2.59,5.262c0,2.141.852,3.867,2.555,5.18s4.141,1.969,7.312,1.969Z" fill="#c9d1d9"/>
      <path d="m8.1,334.86h6.141v-4.734h3.352v4.734h15.746c1.018,0,1.78-.211,2.288-.633.509-.422.763-1.141.763-2.156,0-.5-.094-1.188-.281-2.062h3.495c.311,1.141.466,2.25.466,3.328,0,1.938-.586,3.398-1.758,4.383s-2.836,1.477-4.992,1.477h-15.727v4.617h-3.352v-4.617h-6.141v-4.336Z" fill="#c9d1d9"/>
    </g>
    <g isolation="isolate">
      <path d="m18.131,312.811c-.109.656-.164,1.367-.164,2.133,0,2.844,1.211,4.773,3.633,5.789h18v4.336H14.241v-4.219l2.93-.07c-2.266-1.422-3.398-3.438-3.398-6.047,0-.844.109-1.484.328-1.922h4.031Z" fill="#c9d1d9"/>
    </g>
    <g isolation="isolate">
      <path d="m40.069,298.745c0,3.438-1.129,6.234-3.387,8.391s-5.277,3.234-9.059,3.234h-.797c-2.516,0-4.762-.48-6.738-1.441s-3.523-2.305-4.641-4.031-1.676-3.598-1.676-5.613c0-3.297,1.086-5.859,3.258-7.688s5.281-2.742,9.328-2.742h1.805v17.18c2.5-.062,4.52-.793,6.059-2.191s2.309-3.176,2.309-5.332c0-1.531-.312-2.828-.938-3.891s-1.453-1.992-2.484-2.789l2.062-2.648c3.266,2.125,4.898,5.312,4.898,9.562Zm-22.734.539c0,1.75.637,3.219,1.91,4.406s3.059,1.922,5.355,2.203v-12.703h-.328c-2.203.125-3.91.719-5.121,1.781s-1.816,2.5-1.816,4.312Z" fill="#c9d1d9"/>
      <path d="m14.241,279.761l2.812-.117c-2.188-1.859-3.281-4.367-3.281-7.523,0-3.547,1.359-5.961,4.078-7.242-1.219-.844-2.203-1.941-2.953-3.293s-1.125-2.949-1.125-4.793c0-5.562,2.945-8.391,8.836-8.484h16.992v4.336h-16.734c-1.812,0-3.168.414-4.066,1.242s-1.348,2.219-1.348,4.172c0,1.609.48,2.945,1.441,4.008s2.254,1.68,3.879,1.852h16.828v4.359h-16.617c-3.688,0-5.531,1.805-5.531,5.414,0,2.844,1.211,4.789,3.633,5.836h18.516v4.336H14.241v-4.102Z" fill="#c9d1d9"/>
      <path d="m39.6,226.112c-.5.25-1.391.453-2.672.609,2.094,2.016,3.141,4.422,3.141,7.219,0,2.5-.707,4.551-2.121,6.152s-3.207,2.402-5.379,2.402c-2.641,0-4.691-1.004-6.152-3.012s-2.191-4.832-2.191-8.473v-4.219h-1.992c-1.516,0-2.723.453-3.621,1.359s-1.348,2.242-1.348,4.008c0,1.547.391,2.844,1.172,3.891s1.727,1.57,2.836,1.57v4.359c-1.266,0-2.488-.449-3.668-1.348s-2.113-2.117-2.801-3.656-1.031-3.23-1.031-5.074c0-2.922.73-5.211,2.191-6.867s3.473-2.516,6.035-2.578h11.672c2.328,0,4.18-.297,5.555-.891h.375v4.547Zm-3.305,7.195c0-1.359-.352-2.648-1.055-3.867s-1.617-2.102-2.742-2.648h-5.203v3.398c0,5.312,1.555,7.969,4.664,7.969,1.359,0,2.422-.453,3.188-1.359s1.148-2.07,1.148-3.492Z" fill="#c9d1d9"/>
    </g>
  </g>
  <g>
    <path d="m2013.81,318.47c0,3.34-.56,6.26-1.69,8.75s-2.72,4.39-4.78,5.71-4.47,1.97-7.22,1.97-5.07-.66-7.15-1.98-3.69-3.2-4.84-5.65-1.74-5.28-1.77-8.5v-2.46c0-3.28.57-6.18,1.71-8.7s2.75-4.44,4.84-5.78,4.47-2,7.16-2,5.14.66,7.23,1.98,3.69,3.23,4.82,5.74,1.69,5.43,1.69,8.75v2.17Zm-4.48-2.2c0-4.05-.81-7.15-2.44-9.32s-3.9-3.25-6.82-3.25-5.08,1.08-6.71,3.25-2.47,5.17-2.52,9.01v2.51c0,3.92.82,7,2.47,9.25s3.92,3.36,6.81,3.36,5.16-1.06,6.75-3.18,2.41-5.15,2.46-9.11v-2.53.01Z" fill="#c9d1d9"/>
    <path d="m2028.25,328.54l6.28-19.48h4.43l-9.09,25.36h-3.3l-9.19-25.36h4.43l6.45,19.48h-.01Z" fill="#c9d1d9"/>
    <path d="m2058.44,334.43c-.25-.5-.45-1.39-.61-2.67-2.02,2.09-4.42,3.14-7.22,3.14-2.5,0-4.55-.71-6.15-2.12s-2.4-3.21-2.4-5.38c0-2.64,1-4.69,3.01-6.15s4.83-2.19,8.47-2.19h4.22v-1.99c0-1.52-.45-2.72-1.36-3.62s-2.24-1.35-4.01-1.35c-1.55,0-2.84.39-3.89,1.17s-1.57,1.73-1.57,2.84h-4.36c0-1.27.45-2.49,1.35-3.67s2.12-2.11,3.66-2.8,3.23-1.03,5.07-1.03c2.92,0,5.21.73,6.87,2.19s2.52,3.47,2.58,6.04v11.67c0,2.33.3,4.18.89,5.55v.38h-4.55v-.01Zm-7.2-3.3c1.36,0,2.65-.35,3.87-1.05s2.1-1.62,2.65-2.74v-5.2h-3.4c-5.31,0-7.97,1.55-7.97,4.66,0,1.36.45,2.42,1.36,3.19s2.07,1.15,3.49,1.15v-.01Z" fill="#c9d1d9"/>
    <path d="m2073.6,334.43h-4.34v-36h4.34v36Z" fill="#c9d1d9"/>
    <path d="m2009.33,386.05l4.88-19.38h4.34l-7.38,25.36h-3.52l-6.16-19.22-6,19.22h-3.52l-7.36-25.36h4.31l4.99,18.98,5.91-18.98h3.49l6.02,19.38Z" fill="#c9d1d9"/>
    <path d="m2022.97,359.94c0-.7.21-1.3.64-1.78s1.07-.73,1.91-.73,1.48.24,1.92.73.66,1.08.66,1.78-.22,1.29-.66,1.76-1.08.7-1.92.7-1.48-.23-1.91-.7-.64-1.05-.64-1.76Zm4.69,32.09h-4.34v-25.36h4.34v25.36h0Z" fill="#c9d1d9"/>
    <path d="m2038.7,366.67l.14,3.19c1.94-2.44,4.47-3.66,7.59-3.66,5.36,0,8.06,3.02,8.11,9.07v16.76h-4.34v-16.78c-.02-1.83-.43-3.18-1.25-4.05s-2.1-1.31-3.83-1.31c-1.41,0-2.64.38-3.7,1.12s-1.89,1.73-2.48,2.95v18.07h-4.34v-25.36h4.1,0Z" fill="#c9d1d9"/>
    <path d="m2060.03,379.14c0-3.89.92-7.02,2.77-9.39s4.26-3.55,7.24-3.55,5.32,1.02,7.05,3.05v-13.22h4.34v36h-3.98l-.21-2.72c-1.73,2.12-4.15,3.19-7.24,3.19s-5.33-1.2-7.18-3.61-2.78-5.55-2.78-9.42v-.33h-.01Zm4.34.49c0,2.88.59,5.12,1.78,6.75s2.83,2.44,4.92,2.44c2.75,0,4.76-1.23,6.02-3.7v-11.65c-1.3-2.39-3.29-3.59-5.98-3.59-2.12,0-3.78.82-4.97,2.46s-1.78,4.07-1.78,7.29h.01Z" fill="#c9d1d9"/>
    <path d="m2087.01,379.11c0-2.48.49-4.72,1.46-6.7s2.34-3.52,4.08-4.59,3.73-1.62,5.96-1.62c3.45,0,6.25,1.2,8.38,3.59s3.2,5.57,3.2,9.54v.3c0,2.47-.47,4.68-1.42,6.64s-2.3,3.49-4.05,4.58-3.78,1.64-6.06,1.64c-3.44,0-6.22-1.2-8.36-3.59s-3.2-5.55-3.2-9.49v-.3h.01Zm4.36.52c0,2.81.65,5.07,1.96,6.77s3.05,2.55,5.24,2.55,3.95-.86,5.25-2.59,1.95-4.14,1.95-7.25c0-2.78-.66-5.04-1.98-6.76s-3.07-2.59-5.26-2.59-3.87.85-5.18,2.55-1.97,4.14-1.97,7.31l-.01.01Z" fill="#c9d1d9"/>
    <path d="m2137.98,386.05l4.88-19.38h4.34l-7.38,25.36h-3.52l-6.16-19.22-6,19.22h-3.52l-7.36-25.36h4.31l4.99,18.98,5.91-18.98h3.49l6.02,19.38Z" fill="#c9d1d9"/>
  </g>
  <g isolation="isolate">
    <g isolation="isolate">
      <path d="m1726.971,441.628h3.258c2.047-.031,3.656-.57,4.828-1.617s1.758-2.461,1.758-4.242c0-4-1.992-6-5.977-6-1.875,0-3.371.535-4.488,1.605s-1.676,2.488-1.676,4.254h-4.336c0-2.703.988-4.949,2.965-6.738s4.488-2.684,7.535-2.684c3.219,0,5.742.852,7.57,2.555s2.742,4.07,2.742,7.102c0,1.484-.48,2.922-1.441,4.312s-2.27,2.43-3.926,3.117c1.875.594,3.324,1.578,4.348,2.953s1.535,3.055,1.535,5.039c0,3.062-1,5.492-3,7.289s-4.602,2.695-7.805,2.695-5.809-.867-7.816-2.602-3.012-4.023-3.012-6.867h4.359c0,1.797.586,3.234,1.758,4.312s2.742,1.617,4.711,1.617c2.094,0,3.695-.547,4.805-1.641s1.664-2.664,1.664-4.711c0-1.984-.609-3.508-1.828-4.57s-2.977-1.609-5.273-1.641h-3.258v-3.539Z" fill="#c9d1d9"/>
      <path d="m1765.924,449.339h4.734v3.539h-4.734v7.922h-4.359v-7.922h-15.539v-2.555l15.281-23.648h4.617v22.664Zm-14.977,0h10.617v-16.734l-.516.938-10.102,15.797Z" fill="#c9d1d9"/>
      <path d="m1790.979,435.44l.117,2.812c1.859-2.188,4.367-3.281,7.523-3.281,3.547,0,5.961,1.359,7.242,4.078.844-1.219,1.941-2.203,3.293-2.953s2.949-1.125,4.793-1.125c5.562,0,8.391,2.945,8.484,8.836v16.992h-4.336v-16.734c0-1.812-.414-3.168-1.242-4.066s-2.219-1.348-4.172-1.348c-1.609,0-2.945.48-4.008,1.441s-1.68,2.254-1.852,3.879v16.828h-4.359v-16.617c0-3.688-1.805-5.531-5.414-5.531-2.844,0-4.789,1.211-5.836,3.633v18.516h-4.336v-25.359h4.102Z" fill="#c9d1d9"/>
      <path d="m1833.049,435.44l.117,2.812c1.859-2.188,4.367-3.281,7.523-3.281,3.547,0,5.961,1.359,7.242,4.078.844-1.219,1.941-2.203,3.293-2.953s2.949-1.125,4.793-1.125c5.562,0,8.391,2.945,8.484,8.836v16.992h-4.336v-16.734c0-1.812-.414-3.168-1.242-4.066s-2.219-1.348-4.172-1.348c-1.609,0-2.945.48-4.008,1.441s-1.68,2.254-1.852,3.879v16.828h-4.359v-16.617c0-3.688-1.805-5.531-5.414-5.531-2.844,0-4.789,1.211-5.836,3.633v18.516h-4.336v-25.359h4.102Z" fill="#c9d1d9"/>
    </g>
  </g>
  <g isolation="isolate">
    <g isolation="isolate">
      <path d="m1339.245,460.8h-22.359v-3.117l11.812-13.125c1.75-1.984,2.957-3.598,3.621-4.84s.996-2.527.996-3.855c0-1.781-.539-3.242-1.617-4.383s-2.516-1.711-4.312-1.711c-2.156,0-3.832.613-5.027,1.84s-1.793,2.934-1.793,5.121h-4.336c0-3.141,1.012-5.68,3.035-7.617s4.73-2.906,8.121-2.906c3.172,0,5.68.832,7.523,2.496s2.766,3.879,2.766,6.645c0,3.359-2.141,7.359-6.422,12l-9.141,9.914h17.133v3.539Z" fill="#c9d1d9"/>
      <path d="m1345.831,443.69l1.734-17.016h17.484v4.008h-13.805l-1.031,9.305c1.672-.984,3.57-1.477,5.695-1.477,3.109,0,5.578,1.027,7.406,3.082s2.742,4.832,2.742,8.332-.949,6.285-2.848,8.309-4.551,3.035-7.957,3.035c-3.016,0-5.477-.836-7.383-2.508s-2.992-3.984-3.258-6.938h4.102c.266,1.953.961,3.426,2.086,4.418s2.609,1.488,4.453,1.488c2.016,0,3.598-.688,4.746-2.062s1.723-3.273,1.723-5.695c0-2.281-.621-4.113-1.863-5.496s-2.895-2.074-4.957-2.074c-1.891,0-3.375.414-4.453,1.242l-1.148.938-3.469-.891Z" fill="#c9d1d9"/>
      <path d="m1371.331,458.526c0-.75.223-1.375.668-1.875s1.113-.75,2.004-.75,1.566.25,2.027.75.691,1.125.691,1.875c0,.719-.23,1.32-.691,1.805s-1.137.727-2.027.727-1.559-.242-2.004-.727-.668-1.086-.668-1.805Z" fill="#c9d1d9"/>
      <path d="m1385.417,443.69l1.734-17.016h17.484v4.008h-13.805l-1.031,9.305c1.672-.984,3.57-1.477,5.695-1.477,3.109,0,5.578,1.027,7.406,3.082s2.742,4.832,2.742,8.332-.949,6.285-2.848,8.309-4.551,3.035-7.957,3.035c-3.016,0-5.477-.836-7.383-2.508s-2.992-3.984-3.258-6.938h4.102c.266,1.953.961,3.426,2.086,4.418s2.609,1.488,4.453,1.488c2.016,0,3.598-.688,4.746-2.062s1.723-3.273,1.723-5.695c0-2.281-.621-4.113-1.863-5.496s-2.895-2.074-4.957-2.074c-1.891,0-3.375.414-4.453,1.242l-1.148.938-3.469-.891Z" fill="#c9d1d9"/>
    </g>
  </g>
  <g isolation="isolate">
    <g isolation="isolate">
      <path d="m918.936,421.2h-4.359v-28.898l-8.742,3.211v-3.938l12.422-4.664h.68v34.289Z" fill="#c9d1d9"/>
      <path d="m953.67,389.513l-14.133,31.688h-4.547l14.086-30.562h-18.469v-3.562h23.062v2.438Z" fill="#c9d1d9"/>
    </g>
  </g>
  <g isolation="isolate">
    <g isolation="isolate">
      <path d="m487.061,395.981c0,1.703-.449,3.219-1.348,4.547s-2.113,2.367-3.645,3.117c1.781.766,3.191,1.883,4.23,3.352s1.559,3.133,1.559,4.992c0,2.953-.996,5.305-2.988,7.055s-4.613,2.625-7.863,2.625c-3.281,0-5.91-.879-7.887-2.637s-2.965-4.105-2.965-7.043c0-1.844.504-3.508,1.512-4.992s2.402-2.609,4.184-3.375c-1.516-.75-2.711-1.789-3.586-3.117s-1.312-2.836-1.312-4.523c0-2.875.922-5.156,2.766-6.844s4.273-2.531,7.289-2.531c3,0,5.426.844,7.277,2.531s2.777,3.969,2.777,6.844Zm-3.539,15.914c0-1.906-.605-3.461-1.816-4.664s-2.793-1.805-4.746-1.805-3.52.594-4.699,1.781-1.77,2.75-1.77,4.688.574,3.461,1.723,4.57,2.746,1.664,4.793,1.664c2.031,0,3.625-.559,4.781-1.676s1.734-2.637,1.734-4.559Zm-6.516-21.727c-1.703,0-3.082.527-4.137,1.582s-1.582,2.488-1.582,4.301c0,1.734.52,3.137,1.559,4.207s2.426,1.605,4.16,1.605,3.121-.535,4.16-1.605,1.559-2.473,1.559-4.207-.539-3.148-1.617-4.242-2.445-1.641-4.102-1.641Z" fill="#c9d1d9"/>
      <path d="m493.858,418.927c0-.75.223-1.375.668-1.875s1.113-.75,2.004-.75,1.566.25,2.027.75.691,1.125.691,1.875c0,.719-.23,1.32-.691,1.805s-1.137.727-2.027.727-1.559-.242-2.004-.727-.668-1.086-.668-1.805Z" fill="#c9d1d9"/>
      <path d="m507.944,404.091l1.734-17.016h17.484v4.008h-13.805l-1.031,9.305c1.672-.984,3.57-1.477,5.695-1.477,3.109,0,5.578,1.027,7.406,3.082s2.742,4.832,2.742,8.332-.949,6.285-2.848,8.309-4.551,3.035-7.957,3.035c-3.016,0-5.477-.836-7.383-2.508s-2.992-3.984-3.258-6.938h4.102c.266,1.953.961,3.426,2.086,4.418s2.609,1.488,4.453,1.488c2.016,0,3.598-.688,4.746-2.062s1.723-3.273,1.723-5.695c0-2.281-.621-4.113-1.863-5.496s-2.895-2.074-4.957-2.074c-1.891,0-3.375.414-4.453,1.242l-1.148.938-3.469-.891Z" fill="#c9d1d9"/>
    </g>
  </g>
  <g isolation="isolate">
    <g isolation="isolate">
      <path d="m805.651,24.53h-14.32v15.07h-4.5V5.475h21.141v3.68h-16.641v11.695h14.32v3.68Z" fill="#c9d1d9"/>
    </g>
    <g isolation="isolate">
      <path d="m824.329,18.131c-.656-.109-1.367-.164-2.133-.164-2.844,0-4.773,1.211-5.789,3.633v18h-4.336V14.241h4.219l.07,2.93c1.422-2.266,3.438-3.398,6.047-3.398.844,0,1.484.109,1.922.328v4.031Z" fill="#c9d1d9"/>
    </g>
    <g isolation="isolate">
      <path d="m838.395,40.069c-3.438,0-6.234-1.129-8.391-3.387s-3.234-5.277-3.234-9.059v-.797c0-2.516.48-4.762,1.441-6.738s2.305-3.523,4.031-4.641,3.598-1.676,5.613-1.676c3.297,0,5.859,1.086,7.688,3.258s2.742,5.281,2.742,9.328v1.805h-17.18c.062,2.5.793,4.52,2.191,6.059s3.176,2.309,5.332,2.309c1.531,0,2.828-.312,3.891-.938s1.992-1.453,2.789-2.484l2.648,2.062c-2.125,3.266-5.312,4.898-9.562,4.898Zm-.539-22.734c-1.75,0-3.219.637-4.406,1.91s-1.922,3.059-2.203,5.355h12.703v-.328c-.125-2.203-.719-3.91-1.781-5.121s-2.5-1.816-4.312-1.816Z" fill="#c9d1d9"/>
      <path d="m852.246,26.709c0-3.984.914-7.137,2.742-9.457s4.281-3.48,7.359-3.48c3,0,5.367,1.008,7.102,3.023l.188-2.555h3.984v35.109h-4.336v-12.094c-1.75,1.875-4.078,2.812-6.984,2.812-3.062,0-5.504-1.191-7.324-3.574s-2.73-5.543-2.73-9.48v-.305Zm4.336.492c0,2.906.613,5.188,1.84,6.844s2.879,2.484,4.957,2.484c2.578,0,4.547-1.141,5.906-3.422v-12.422c-1.375-2.234-3.328-3.352-5.859-3.352-2.094,0-3.758.832-4.992,2.496s-1.852,4.121-1.852,7.371Z" fill="#c9d1d9"/>
      <path d="m896.238,37.092c-1.688,1.984-4.164,2.977-7.43,2.977-2.703,0-4.762-.785-6.176-2.355s-2.129-3.895-2.145-6.973V14.241h4.336v16.383c0,3.844,1.562,5.766,4.688,5.766,3.312,0,5.516-1.234,6.609-3.703V14.241h4.336v25.359h-4.125l-.094-2.508Z" fill="#c9d1d9"/>
      <path d="m917.566,40.069c-3.438,0-6.234-1.129-8.391-3.387s-3.234-5.277-3.234-9.059v-.797c0-2.516.48-4.762,1.441-6.738s2.305-3.523,4.031-4.641,3.598-1.676,5.613-1.676c3.297,0,5.859,1.086,7.688,3.258s2.742,5.281,2.742,9.328v1.805h-17.18c.062,2.5.793,4.52,2.191,6.059s3.176,2.309,5.332,2.309c1.531,0,2.828-.312,3.891-.938s1.992-1.453,2.789-2.484l2.648,2.062c-2.125,3.266-5.312,4.898-9.562,4.898Zm-.539-22.734c-1.75,0-3.219.637-4.406,1.91s-1.922,3.059-2.203,5.355h12.703v-.328c-.125-2.203-.719-3.91-1.781-5.121s-2.5-1.816-4.312-1.816Z" fill="#c9d1d9"/>
      <path d="m936.574,14.241l.141,3.188c1.938-2.438,4.469-3.656,7.594-3.656,5.359,0,8.062,3.023,8.109,9.07v16.758h-4.336v-16.781c-.016-1.828-.434-3.18-1.254-4.055s-2.098-1.312-3.832-1.312c-1.406,0-2.641.375-3.703,1.125s-1.891,1.734-2.484,2.953v18.07h-4.336V14.241h4.102Z" fill="#c9d1d9"/>
      <path d="m969.129,36.53c1.547,0,2.898-.469,4.055-1.406s1.797-2.109,1.922-3.516h4.102c-.078,1.453-.578,2.836-1.5,4.148s-2.152,2.359-3.691,3.141-3.168,1.172-4.887,1.172c-3.453,0-6.199-1.152-8.238-3.457s-3.059-5.457-3.059-9.457v-.727c0-2.469.453-4.664,1.359-6.586s2.207-3.414,3.902-4.477,3.699-1.594,6.012-1.594c2.844,0,5.207.852,7.09,2.555s2.887,3.914,3.012,6.633h-4.102c-.125-1.641-.746-2.988-1.863-4.043s-2.496-1.582-4.137-1.582c-2.203,0-3.91.793-5.121,2.379s-1.816,3.879-1.816,6.879v.82c0,2.922.602,5.172,1.805,6.75s2.922,2.367,5.156,2.367Z" fill="#c9d1d9"/>
      <path d="m992.379,33.249l5.906-19.008h4.641l-10.195,29.273c-1.578,4.219-4.086,6.328-7.523,6.328l-.82-.07-1.617-.305v-3.516l1.172.094c1.469,0,2.613-.297,3.434-.891s1.496-1.68,2.027-3.258l.961-2.578-9.047-25.078h4.734l6.328,19.008Z" fill="#c9d1d9"/>
      <path d="m1040.145,27.202c0,3.875-.891,6.988-2.672,9.34s-4.172,3.527-7.172,3.527c-3.203,0-5.68-1.133-7.43-3.398l-.211,2.93h-3.984V3.6h4.336v13.43c1.75-2.172,4.164-3.258,7.242-3.258s5.496,1.164,7.254,3.492,2.637,5.516,2.637,9.562v.375Zm-4.336-.492c0-2.953-.57-5.234-1.711-6.844s-2.781-2.414-4.922-2.414c-2.859,0-4.914,1.328-6.164,3.984v10.969c1.328,2.656,3.398,3.984,6.211,3.984,2.078,0,3.695-.805,4.852-2.414s1.734-4.031,1.734-7.266Z" fill="#c9d1d9"/>
      <path d="m1061.262,39.6c-.25-.5-.453-1.391-.609-2.672-2.016,2.094-4.422,3.141-7.219,3.141-2.5,0-4.551-.707-6.152-2.121s-2.402-3.207-2.402-5.379c0-2.641,1.004-4.691,3.012-6.152s4.832-2.191,8.473-2.191h4.219v-1.992c0-1.516-.453-2.723-1.359-3.621s-2.242-1.348-4.008-1.348c-1.547,0-2.844.391-3.891,1.172s-1.57,1.727-1.57,2.836h-4.359c0-1.266.449-2.488,1.348-3.668s2.117-2.113,3.656-2.801,3.23-1.031,5.074-1.031c2.922,0,5.211.73,6.867,2.191s2.516,3.473,2.578,6.035v11.672c0,2.328.297,4.18.891,5.555v.375h-4.547Zm-7.195-3.305c1.359,0,2.648-.352,3.867-1.055s2.102-1.617,2.648-2.742v-5.203h-3.398c-5.312,0-7.969,1.555-7.969,4.664,0,1.359.453,2.422,1.359,3.188s2.07,1.148,3.492,1.148Z" fill="#c9d1d9"/>
      <path d="m1075.816,14.241l.141,3.188c1.938-2.438,4.469-3.656,7.594-3.656,5.359,0,8.062,3.023,8.109,9.07v16.758h-4.336v-16.781c-.016-1.828-.434-3.18-1.254-4.055s-2.098-1.312-3.832-1.312c-1.406,0-2.641.375-3.703,1.125s-1.891,1.734-2.484,2.953v18.07h-4.336V14.241h4.102Z" fill="#c9d1d9"/>
      <path d="m1097.145,26.709c0-3.891.922-7.02,2.766-9.387s4.258-3.551,7.242-3.551c2.969,0,5.32,1.016,7.055,3.047V3.6h4.336v36h-3.984l-.211-2.719c-1.734,2.125-4.148,3.188-7.242,3.188-2.938,0-5.332-1.203-7.184-3.609s-2.777-5.547-2.777-9.422v-.328Zm4.336.492c0,2.875.594,5.125,1.781,6.75s2.828,2.438,4.922,2.438c2.75,0,4.758-1.234,6.023-3.703v-11.648c-1.297-2.391-3.289-3.586-5.977-3.586-2.125,0-3.781.82-4.969,2.461s-1.781,4.07-1.781,7.289Z" fill="#c9d1d9"/>
      <path d="m1140.035,32.874c0-1.172-.441-2.082-1.324-2.73s-2.422-1.207-4.617-1.676-3.938-1.031-5.227-1.688-2.242-1.438-2.859-2.344-.926-1.984-.926-3.234c0-2.078.879-3.836,2.637-5.273s4.004-2.156,6.738-2.156c2.875,0,5.207.742,6.996,2.227s2.684,3.383,2.684,5.695h-4.359c0-1.188-.504-2.211-1.512-3.07s-2.277-1.289-3.809-1.289c-1.578,0-2.812.344-3.703,1.031s-1.336,1.586-1.336,2.695c0,1.047.414,1.836,1.242,2.367s2.324,1.039,4.488,1.523,3.918,1.062,5.262,1.734,2.34,1.48,2.988,2.426.973,2.098.973,3.457c0,2.266-.906,4.082-2.719,5.449s-4.164,2.051-7.055,2.051c-2.031,0-3.828-.359-5.391-1.078s-2.785-1.723-3.668-3.012-1.324-2.684-1.324-4.184h4.336c.078,1.453.66,2.605,1.746,3.457s2.52,1.277,4.301,1.277c1.641,0,2.957-.332,3.949-.996s1.488-1.551,1.488-2.66Z" fill="#c9d1d9"/>
    </g>
  </g>
  <g isolation="isolate">
    <g isolation="isolate">
      <path d="m947.161,212.4v-34.125h9.633c2.969,0,5.594.656,7.875,1.969s4.043,3.18,5.285,5.602,1.871,5.203,1.887,8.344v2.18c0,3.219-.621,6.039-1.863,8.461s-3.016,4.281-5.32,5.578-4.988,1.961-8.051,1.992h-9.445Zm4.5-30.445v26.766h4.734c3.469,0,6.168-1.079,8.098-3.237,1.93-2.157,2.895-5.231,2.895-9.219v-1.994c0-3.878-.91-6.893-2.73-9.043s-4.402-3.241-7.746-3.272h-5.25Z" fill="#c9d1d9"/>
      <path d="m977.981,180.314c0-.703.215-1.297.645-1.781s1.066-.727,1.91-.727,1.484.242,1.922.727.656,1.078.656,1.781-.219,1.289-.656,1.758-1.078.703-1.922.703-1.48-.234-1.91-.703-.645-1.055-.645-1.758Zm4.688,32.086h-4.336v-25.359h4.336v25.359Z" fill="#c9d1d9"/>
    </g>
    <g isolation="isolate">
      <path d="m1001.859,190.931c-.656-.109-1.367-.164-2.133-.164-2.844,0-4.773,1.211-5.789,3.633v18h-4.336v-25.359h4.219l.07,2.93c1.422-2.266,3.438-3.398,6.047-3.398.844,0,1.484.109,1.922.328v4.031Z" fill="#c9d1d9"/>
    </g>
    <g isolation="isolate">
      <path d="m1015.925,212.869c-3.438,0-6.234-1.129-8.391-3.387s-3.234-5.277-3.234-9.059v-.797c0-2.516.48-4.762,1.441-6.738s2.305-3.523,4.031-4.641,3.598-1.676,5.613-1.676c3.297,0,5.859,1.086,7.688,3.258s2.742,5.281,2.742,9.328v1.805h-17.18c.062,2.5.793,4.52,2.191,6.059s3.176,2.309,5.332,2.309c1.531,0,2.828-.312,3.891-.938s1.992-1.453,2.789-2.484l2.648,2.062c-2.125,3.266-5.312,4.898-9.562,4.898Zm-.539-22.734c-1.75,0-3.219.637-4.406,1.91s-1.922,3.059-2.203,5.355h12.703v-.328c-.125-2.203-.719-3.91-1.781-5.121s-2.5-1.816-4.312-1.816Z" fill="#c9d1d9"/>
      <path d="m1041.003,209.33c1.547,0,2.898-.469,4.055-1.406s1.797-2.109,1.922-3.516h4.102c-.078,1.453-.578,2.836-1.5,4.148s-2.152,2.359-3.691,3.141-3.168,1.172-4.887,1.172c-3.453,0-6.199-1.152-8.238-3.457s-3.059-5.457-3.059-9.457v-.727c0-2.469.453-4.664,1.359-6.586s2.207-3.414,3.902-4.477,3.699-1.594,6.012-1.594c2.844,0,5.207.852,7.09,2.555s2.887,3.914,3.012,6.633h-4.102c-.125-1.641-.746-2.988-1.863-4.043s-2.496-1.582-4.137-1.582c-2.203,0-3.91.793-5.121,2.379s-1.816,3.879-1.816,6.879v.82c0,2.922.602,5.172,1.805,6.75s2.922,2.367,5.156,2.367Z" fill="#c9d1d9"/>
      <path d="m1061.839,180.9v6.141h4.734v3.352h-4.734v15.746c0,1.018.211,1.78.633,2.288.422.509,1.141.763,2.156.763.5,0,1.188-.094,2.062-.281v3.495c-1.141.311-2.25.466-3.328.466-1.938,0-3.398-.586-4.383-1.758s-1.477-2.836-1.477-4.992v-15.727h-4.617v-3.352h4.617v-6.141h4.336Z" fill="#c9d1d9"/>
      <path d="m1071.659,180.314c0-.703.215-1.297.645-1.781s1.066-.727,1.91-.727,1.484.242,1.922.727.656,1.078.656,1.781-.219,1.289-.656,1.758-1.078.703-1.922.703-1.48-.234-1.91-.703-.645-1.055-.645-1.758Zm4.688,32.086h-4.336v-25.359h4.336v25.359Z" fill="#c9d1d9"/>
      <path d="m1082.136,199.486c0-2.484.488-4.719,1.465-6.703s2.336-3.516,4.078-4.594,3.73-1.617,5.965-1.617c3.453,0,6.246,1.195,8.379,3.586s3.199,5.57,3.199,9.539v.305c0,2.469-.473,4.684-1.418,6.645s-2.297,3.488-4.055,4.582-3.777,1.641-6.059,1.641c-3.438,0-6.223-1.195-8.355-3.586s-3.199-5.555-3.199-9.492v-.305Zm4.359.516c0,2.812.652,5.07,1.957,6.773s3.051,2.555,5.238,2.555c2.203,0,3.953-.863,5.25-2.59s1.945-4.145,1.945-7.254c0-2.781-.66-5.035-1.98-6.762s-3.074-2.59-5.262-2.59c-2.141,0-3.867.852-5.18,2.555s-1.969,4.141-1.969,7.312Z" fill="#c9d1d9"/>
      <path d="m1114.761,187.041l.141,3.188c1.938-2.438,4.469-3.656,7.594-3.656,5.359,0,8.062,3.023,8.109,9.07v16.758h-4.336v-16.781c-.016-1.828-.434-3.18-1.254-4.055s-2.098-1.312-3.832-1.312c-1.406,0-2.641.375-3.703,1.125s-1.891,1.734-2.484,2.953v18.07h-4.336v-25.359h4.102Z" fill="#c9d1d9"/>
      <path d="m1147.878,199.486c0-2.484.488-4.719,1.465-6.703s2.336-3.516,4.078-4.594,3.73-1.617,5.965-1.617c3.453,0,6.246,1.195,8.379,3.586s3.199,5.57,3.199,9.539v.305c0,2.469-.473,4.684-1.418,6.645s-2.297,3.488-4.055,4.582-3.777,1.641-6.059,1.641c-3.438,0-6.223-1.195-8.355-3.586s-3.199-5.555-3.199-9.492v-.305Zm4.359.516c0,2.812.652,5.07,1.957,6.773s3.051,2.555,5.238,2.555c2.203,0,3.953-.863,5.25-2.59s1.945-4.145,1.945-7.254c0-2.781-.66-5.035-1.98-6.762s-3.074-2.59-5.262-2.59c-2.141,0-3.867.852-5.18,2.555s-1.969,4.141-1.969,7.312Z" fill="#c9d1d9"/>
      <path d="m1178.534,212.4v-22.008h-4.008v-3.352h4.008v-2.602c0-2.719.727-4.82,2.18-6.305s3.508-2.227,6.164-2.227c1,0,1.992.132,2.977.396l-.234,3.495c-.734-.141-1.516-.211-2.344-.211-1.406,0-2.492.412-3.258,1.234-.766.823-1.148,2.003-1.148,3.538v2.681h5.414v3.352h-5.414v22.008h-4.336Z" fill="#c9d1d9"/>
      <path d="m1226.37,200.001c0,3.859-.883,6.969-2.648,9.328s-4.156,3.539-7.172,3.539c-3.078,0-5.5-.977-7.266-2.93v12.211h-4.336v-35.109h3.961l.211,2.812c1.766-2.188,4.219-3.281,7.359-3.281,3.047,0,5.457,1.148,7.23,3.445s2.66,5.492,2.66,9.586v.398Zm-4.336-.492c0-2.859-.609-5.117-1.828-6.773s-2.891-2.484-5.016-2.484c-2.625,0-4.594,1.164-5.906,3.492v12.117c1.297,2.312,3.281,3.469,5.953,3.469,2.078,0,3.73-.824,4.957-2.473s1.84-4.098,1.84-7.348Z" fill="#c9d1d9"/>
    </g>
    <g isolation="isolate">
      <path d="m1244.139,190.931c-.656-.109-1.367-.164-2.133-.164-2.844,0-4.773,1.211-5.789,3.633v18h-4.336v-25.359h4.219l.07,2.93c1.422-2.266,3.438-3.398,6.047-3.398.844,0,1.484.109,1.922.328v4.031Z" fill="#c9d1d9"/>
    </g>
    <g isolation="isolate">
      <path d="m1246.503,199.486c0-2.484.488-4.719,1.465-6.703s2.336-3.516,4.078-4.594,3.73-1.617,5.965-1.617c3.453,0,6.246,1.195,8.379,3.586s3.199,5.57,3.199,9.539v.305c0,2.469-.473,4.684-1.418,6.645s-2.297,3.488-4.055,4.582-3.777,1.641-6.059,1.641c-3.438,0-6.223-1.195-8.355-3.586s-3.199-5.555-3.199-9.492v-.305Zm4.359.516c0,2.812.652,5.07,1.957,6.773s3.051,2.555,5.238,2.555c2.203,0,3.953-.863,5.25-2.59s1.945-4.145,1.945-7.254c0-2.781-.66-5.035-1.98-6.762s-3.074-2.59-5.262-2.59c-2.141,0-3.867.852-5.18,2.555s-1.969,4.141-1.969,7.312Z" fill="#c9d1d9"/>
      <path d="m1296.448,200.001c0,3.859-.883,6.969-2.648,9.328s-4.156,3.539-7.172,3.539c-3.078,0-5.5-.977-7.266-2.93v12.211h-4.336v-35.109h3.961l.211,2.812c1.766-2.188,4.219-3.281,7.359-3.281,3.047,0,5.457,1.148,7.23,3.445s2.66,5.492,2.66,9.586v.398Zm-4.336-.492c0-2.859-.609-5.117-1.828-6.773s-2.891-2.484-5.016-2.484c-2.625,0-4.594,1.164-5.906,3.492v12.117c1.297,2.312,3.281,3.469,5.953,3.469,2.078,0,3.73-.824,4.957-2.473s1.84-4.098,1.84-7.348Z" fill="#c9d1d9"/>
      <path d="m1317.612,212.4c-.25-.5-.453-1.391-.609-2.672-2.016,2.094-4.422,3.141-7.219,3.141-2.5,0-4.551-.707-6.152-2.121s-2.402-3.207-2.402-5.379c0-2.641,1.004-4.691,3.012-6.152s4.832-2.191,8.473-2.191h4.219v-1.992c0-1.516-.453-2.723-1.359-3.621s-2.242-1.348-4.008-1.348c-1.547,0-2.844.391-3.891,1.172s-1.57,1.727-1.57,2.836h-4.359c0-1.266.449-2.488,1.348-3.668s2.117-2.113,3.656-2.801,3.23-1.031,5.074-1.031c2.922,0,5.211.73,6.867,2.191s2.516,3.473,2.578,6.035v11.672c0,2.328.297,4.18.891,5.555v.375h-4.547Zm-7.195-3.305c1.359,0,2.648-.352,3.867-1.055s2.102-1.617,2.648-2.742v-5.203h-3.398c-5.312,0-7.969,1.555-7.969,4.664,0,1.359.453,2.422,1.359,3.188s2.07,1.148,3.492,1.148Z" fill="#c9d1d9"/>
      <path d="m1327.034,199.509c0-3.953.914-7.098,2.742-9.434s4.25-3.504,7.266-3.504c3.094,0,5.508,1.094,7.242,3.281l.211-2.812h3.961v24.75c0,3.281-.973,5.867-2.918,7.758s-4.559,2.836-7.84,2.836c-1.828,0-3.617-.391-5.367-1.172s-3.086-1.852-4.008-3.211l2.25-2.602c1.859,2.297,4.133,3.445,6.82,3.445,2.109,0,3.754-.594,4.934-1.781s1.77-2.859,1.77-5.016v-2.18c-1.734,2-4.102,3-7.102,3-2.969,0-5.371-1.195-7.207-3.586s-2.754-5.648-2.754-9.773Zm4.359.492c0,2.859.586,5.105,1.758,6.738s2.812,2.449,4.922,2.449c2.734,0,4.742-1.242,6.023-3.727v-11.578c-1.328-2.422-3.32-3.633-5.977-3.633-2.109,0-3.758.82-4.945,2.461s-1.781,4.07-1.781,7.289Z" fill="#c9d1d9"/>
      <path d="m1370.651,212.4c-.25-.5-.453-1.391-.609-2.672-2.016,2.094-4.422,3.141-7.219,3.141-2.5,0-4.551-.707-6.152-2.121s-2.402-3.207-2.402-5.379c0-2.641,1.004-4.691,3.012-6.152s4.832-2.191,8.473-2.191h4.219v-1.992c0-1.516-.453-2.723-1.359-3.621s-2.242-1.348-4.008-1.348c-1.547,0-2.844.391-3.891,1.172s-1.57,1.727-1.57,2.836h-4.359c0-1.266.449-2.488,1.348-3.668s2.117-2.113,3.656-2.801,3.23-1.031,5.074-1.031c2.922,0,5.211.73,6.867,2.191s2.516,3.473,2.578,6.035v11.672c0,2.328.297,4.18.891,5.555v.375h-4.547Zm-7.195-3.305c1.359,0,2.648-.352,3.867-1.055s2.102-1.617,2.648-2.742v-5.203h-3.398c-5.312,0-7.969,1.555-7.969,4.664,0,1.359.453,2.422,1.359,3.188s2.07,1.148,3.492,1.148Z" fill="#c9d1d9"/>
      <path d="m1386.987,180.9v6.141h4.734v3.352h-4.734v15.746c0,1.018.211,1.78.633,2.288.422.509,1.141.763,2.156.763.5,0,1.188-.094,2.062-.281v3.495c-1.141.311-2.25.466-3.328.466-1.938,0-3.398-.586-4.383-1.758s-1.477-2.836-1.477-4.992v-15.727h-4.617v-3.352h4.617v-6.141h4.336Z" fill="#c9d1d9"/>
      <path d="m1396.808,180.314c0-.703.215-1.297.645-1.781s1.066-.727,1.91-.727,1.484.242,1.922.727.656,1.078.656,1.781-.219,1.289-.656,1.758-1.078.703-1.922.703-1.48-.234-1.91-.703-.645-1.055-.645-1.758Zm4.688,32.086h-4.336v-25.359h4.336v25.359Z" fill="#c9d1d9"/>
      <path d="m1407.284,199.486c0-2.484.488-4.719,1.465-6.703s2.336-3.516,4.078-4.594,3.73-1.617,5.965-1.617c3.453,0,6.246,1.195,8.379,3.586s3.199,5.57,3.199,9.539v.305c0,2.469-.473,4.684-1.418,6.645s-2.297,3.488-4.055,4.582-3.777,1.641-6.059,1.641c-3.438,0-6.223-1.195-8.355-3.586s-3.199-5.555-3.199-9.492v-.305Zm4.359.516c0,2.812.652,5.07,1.957,6.773s3.051,2.555,5.238,2.555c2.203,0,3.953-.863,5.25-2.59s1.945-4.145,1.945-7.254c0-2.781-.66-5.035-1.98-6.762s-3.074-2.59-5.262-2.59c-2.141,0-3.867.852-5.18,2.555s-1.969,4.141-1.969,7.312Z" fill="#c9d1d9"/>
      <path d="m1439.909,187.041l.141,3.188c1.938-2.438,4.469-3.656,7.594-3.656,5.359,0,8.062,3.023,8.109,9.07v16.758h-4.336v-16.781c-.016-1.828-.434-3.18-1.254-4.055s-2.098-1.312-3.832-1.312c-1.406,0-2.641.375-3.703,1.125s-1.891,1.734-2.484,2.953v18.07h-4.336v-25.359h4.102Z" fill="#c9d1d9"/>
      <path d="m1473.026,199.486c0-2.484.488-4.719,1.465-6.703s2.336-3.516,4.078-4.594,3.73-1.617,5.965-1.617c3.453,0,6.246,1.195,8.379,3.586s3.199,5.57,3.199,9.539v.305c0,2.469-.473,4.684-1.418,6.645s-2.297,3.488-4.055,4.582-3.777,1.641-6.059,1.641c-3.438,0-6.223-1.195-8.355-3.586s-3.199-5.555-3.199-9.492v-.305Zm4.359.516c0,2.812.652,5.07,1.957,6.773s3.051,2.555,5.238,2.555c2.203,0,3.953-.863,5.25-2.59s1.945-4.145,1.945-7.254c0-2.781-.66-5.035-1.98-6.762s-3.074-2.59-5.262-2.59c-2.141,0-3.867.852-5.18,2.555s-1.969,4.141-1.969,7.312Z" fill="#c9d1d9"/>
      <path d="m1503.683,212.4v-22.008h-4.008v-3.352h4.008v-2.602c0-2.719.727-4.82,2.18-6.305s3.508-2.227,6.164-2.227c1,0,1.992.132,2.977.396l-.234,3.495c-.734-.141-1.516-.211-2.344-.211-1.406,0-2.492.412-3.258,1.234-.766.823-1.148,2.003-1.148,3.538v2.681h5.414v3.352h-5.414v22.008h-4.336Z" fill="#c9d1d9"/>
      <path d="m1535.979,180.9v6.141h4.734v3.352h-4.734v15.746c0,1.018.211,1.78.633,2.288.422.509,1.141.763,2.156.763.5,0,1.188-.094,2.062-.281v3.495c-1.141.311-2.25.466-3.328.466-1.938,0-3.398-.586-4.383-1.758s-1.477-2.836-1.477-4.992v-15.727h-4.617v-3.352h4.617v-6.141h4.336Z" fill="#c9d1d9"/>
      <path d="m1550.112,190.111c1.922-2.359,4.422-3.539,7.5-3.539,5.359,0,8.062,3.023,8.109,9.07v16.758h-4.336v-16.781c-.016-1.828-.434-3.18-1.254-4.055s-2.098-1.312-3.832-1.312c-1.406,0-2.641.375-3.703,1.125s-1.891,1.734-2.484,2.953v18.07h-4.336v-36h4.336v13.711Z" fill="#c9d1d9"/>
      <path d="m1582.737,212.869c-3.438,0-6.234-1.129-8.391-3.387s-3.234-5.277-3.234-9.059v-.797c0-2.516.48-4.762,1.441-6.738s2.305-3.523,4.031-4.641,3.598-1.676,5.613-1.676c3.297,0,5.859,1.086,7.688,3.258s2.742,5.281,2.742,9.328v1.805h-17.18c.062,2.5.793,4.52,2.191,6.059s3.176,2.309,5.332,2.309c1.531,0,2.828-.312,3.891-.938s1.992-1.453,2.789-2.484l2.648,2.062c-2.125,3.266-5.312,4.898-9.562,4.898Zm-.539-22.734c-1.75,0-3.219.637-4.406,1.91s-1.922,3.059-2.203,5.355h12.703v-.328c-.125-2.203-.719-3.91-1.781-5.121s-2.5-1.816-4.312-1.816Z" fill="#c9d1d9"/>
      <path d="m1615.409,180.9v6.141h4.734v3.352h-4.734v15.746c0,1.018.211,1.78.633,2.288.422.509,1.141.763,2.156.763.5,0,1.188-.094,2.062-.281v3.495c-1.141.311-2.25.466-3.328.466-1.938,0-3.398-.586-4.383-1.758s-1.477-2.836-1.477-4.992v-15.727h-4.617v-3.352h4.617v-6.141h4.336Z" fill="#c9d1d9"/>
    </g>
    <g isolation="isolate">
      <path d="m1637.469,190.931c-.656-.109-1.367-.164-2.133-.164-2.844,0-4.773,1.211-5.789,3.633v18h-4.336v-25.359h4.219l.07,2.93c1.422-2.266,3.438-3.398,6.047-3.398.844,0,1.484.109,1.922.328v4.031Z" fill="#c9d1d9"/>
    </g>
    <g isolation="isolate">
      <path d="m1656.168,212.4c-.25-.5-.453-1.391-.609-2.672-2.016,2.094-4.422,3.141-7.219,3.141-2.5,0-4.551-.707-6.152-2.121s-2.402-3.207-2.402-5.379c0-2.641,1.004-4.691,3.012-6.152s4.832-2.191,8.473-2.191h4.219v-1.992c0-1.516-.453-2.723-1.359-3.621s-2.242-1.348-4.008-1.348c-1.547,0-2.844.391-3.891,1.172s-1.57,1.727-1.57,2.836h-4.359c0-1.266.449-2.488,1.348-3.668s2.117-2.113,3.656-2.801,3.23-1.031,5.074-1.031c2.922,0,5.211.73,6.867,2.191s2.516,3.473,2.578,6.035v11.672c0,2.328.297,4.18.891,5.555v.375h-4.547Zm-7.195-3.305c1.359,0,2.648-.352,3.867-1.055s2.102-1.617,2.648-2.742v-5.203h-3.398c-5.312,0-7.969,1.555-7.969,4.664,0,1.359.453,2.422,1.359,3.188s2.07,1.148,3.492,1.148Z" fill="#c9d1d9"/>
    </g>
    <g isolation="isolate">
      <path d="m1674.639,206.517l6.281-19.477h4.43l-9.094,25.359h-3.305l-9.188-25.359h4.43l6.445,19.477Z" fill="#c9d1d9"/>
    </g>
    <g isolation="isolate">
      <path d="m1699.734,212.869c-3.438,0-6.234-1.129-8.391-3.387s-3.234-5.277-3.234-9.059v-.797c0-2.516.48-4.762,1.441-6.738s2.305-3.523,4.031-4.641,3.598-1.676,5.613-1.676c3.297,0,5.859,1.086,7.688,3.258s2.742,5.281,2.742,9.328v1.805h-17.18c.062,2.5.793,4.52,2.191,6.059s3.176,2.309,5.332,2.309c1.531,0,2.828-.312,3.891-.938s1.992-1.453,2.789-2.484l2.648,2.062c-2.125,3.266-5.312,4.898-9.562,4.898Zm-.539-22.734c-1.75,0-3.219.637-4.406,1.91s-1.922,3.059-2.203,5.355h12.703v-.328c-.125-2.203-.719-3.91-1.781-5.121s-2.5-1.816-4.312-1.816Z" fill="#c9d1d9"/>
      <path d="m1719.352,212.4h-4.336v-36h4.336v36Z" fill="#c9d1d9"/>
      <path d="m1726.312,180.314c0-.703.215-1.297.645-1.781s1.066-.727,1.91-.727,1.484.242,1.922.727.656,1.078.656,1.781-.219,1.289-.656,1.758-1.078.703-1.922.703-1.48-.234-1.91-.703-.645-1.055-.645-1.758Zm4.688,32.086h-4.336v-25.359h4.336v25.359Z" fill="#c9d1d9"/>
      <path d="m1742.039,187.041l.141,3.188c1.938-2.438,4.469-3.656,7.594-3.656,5.359,0,8.062,3.023,8.109,9.07v16.758h-4.336v-16.781c-.016-1.828-.434-3.18-1.254-4.055s-2.098-1.312-3.832-1.312c-1.406,0-2.641.375-3.703,1.125s-1.891,1.734-2.484,2.953v18.07h-4.336v-25.359h4.102Z" fill="#c9d1d9"/>
      <path d="m1763.391,199.509c0-3.953.914-7.098,2.742-9.434s4.25-3.504,7.266-3.504c3.094,0,5.508,1.094,7.242,3.281l.211-2.812h3.961v24.75c0,3.281-.973,5.867-2.918,7.758s-4.559,2.836-7.84,2.836c-1.828,0-3.617-.391-5.367-1.172s-3.086-1.852-4.008-3.211l2.25-2.602c1.859,2.297,4.133,3.445,6.82,3.445,2.109,0,3.754-.594,4.934-1.781s1.77-2.859,1.77-5.016v-2.18c-1.734,2-4.102,3-7.102,3-2.969,0-5.371-1.195-7.207-3.586s-2.754-5.648-2.754-9.773Zm4.359.492c0,2.859.586,5.105,1.758,6.738s2.812,2.449,4.922,2.449c2.734,0,4.742-1.242,6.023-3.727v-11.578c-1.328-2.422-3.32-3.633-5.977-3.633-2.109,0-3.758.82-4.945,2.461s-1.781,4.07-1.781,7.289Z" fill="#c9d1d9"/>
      <path d="m1825.688,206.423l4.875-19.383h4.336l-7.383,25.359h-3.516l-6.164-19.219-6,19.219h-3.516l-7.359-25.359h4.312l4.992,18.984,5.906-18.984h3.492l6.023,19.383Z" fill="#c9d1d9"/>
    </g>
    <g isolation="isolate">
      <path d="m1854.968,212.4c-.25-.5-.453-1.391-.609-2.672-2.016,2.094-4.422,3.141-7.219,3.141-2.5,0-4.551-.707-6.152-2.121s-2.402-3.207-2.402-5.379c0-2.641,1.004-4.691,3.012-6.152s4.832-2.191,8.473-2.191h4.219v-1.992c0-1.516-.453-2.723-1.359-3.621s-2.242-1.348-4.008-1.348c-1.547,0-2.844.391-3.891,1.172s-1.57,1.727-1.57,2.836h-4.359c0-1.266.449-2.488,1.348-3.668s2.117-2.113,3.656-2.801,3.23-1.031,5.074-1.031c2.922,0,5.211.73,6.867,2.191s2.516,3.473,2.578,6.035v11.672c0,2.328.297,4.18.891,5.555v.375h-4.547Zm-7.195-3.305c1.359,0,2.648-.352,3.867-1.055s2.102-1.617,2.648-2.742v-5.203h-3.398c-5.312,0-7.969,1.555-7.969,4.664,0,1.359.453,2.422,1.359,3.188s2.07,1.148,3.492,1.148Z" fill="#c9d1d9"/>
    </g>
    <g isolation="isolate">
      <path d="m1873.438,206.517l6.281-19.477h4.43l-9.094,25.359h-3.305l-9.188-25.359h4.43l6.445,19.477Z" fill="#c9d1d9"/>
    </g>
    <g isolation="isolate">
      <path d="m1898.535,212.869c-3.438,0-6.234-1.129-8.391-3.387s-3.234-5.277-3.234-9.059v-.797c0-2.516.48-4.762,1.441-6.738s2.305-3.523,4.031-4.641,3.598-1.676,5.613-1.676c3.297,0,5.859,1.086,7.688,3.258s2.742,5.281,2.742,9.328v1.805h-17.18c.062,2.5.793,4.52,2.191,6.059s3.176,2.309,5.332,2.309c1.531,0,2.828-.312,3.891-.938s1.992-1.453,2.789-2.484l2.648,2.062c-2.125,3.266-5.312,4.898-9.562,4.898Zm-.539-22.734c-1.75,0-3.219.637-4.406,1.91s-1.922,3.059-2.203,5.355h12.703v-.328c-.125-2.203-.719-3.91-1.781-5.121s-2.5-1.816-4.312-1.816Z" fill="#c9d1d9"/>
    </g>
  </g>
  <g isolation="isolate">
    <g isolation="isolate">
      <path d="m818.447,518.4v-34.125h11.953c4.141,0,7.281.793,9.422,2.379s3.211,3.91,3.211,6.973c0,1.672-.43,3.145-1.289,4.418s-2.055,2.207-3.586,2.801c1.75.438,3.129,1.32,4.137,2.648s1.512,2.953,1.512,4.875c0,3.281-1.047,5.766-3.141,7.453s-5.078,2.547-8.953,2.578h-13.266Zm7.031-19.828h5.203c3.547-.062,5.32-1.477,5.32-4.242,0-1.547-.449-2.66-1.348-3.34s-2.316-1.02-4.254-1.02h-4.922v8.602Zm0,4.969v9.211h6.023c1.656,0,2.949-.395,3.879-1.184s1.395-1.879,1.395-3.27c0-3.125-1.617-4.711-4.852-4.758h-6.445Z" fill="#c9d1d9"/>
      <path d="m863.33,518.4c-.312-.609-.539-1.367-.68-2.273-1.641,1.828-3.773,2.742-6.398,2.742-2.484,0-4.543-.719-6.176-2.156s-2.449-3.25-2.449-5.438c0-2.688.996-4.75,2.988-6.188s4.871-2.164,8.637-2.18h3.117v-1.453c0-1.172-.301-2.109-.902-2.812s-1.551-1.055-2.848-1.055c-1.141,0-2.035.273-2.684.82s-.973,1.297-.973,2.25h-6.773c0-1.469.453-2.828,1.359-4.078s2.188-2.23,3.844-2.941,3.516-1.066,5.578-1.066c3.125,0,5.605.785,7.441,2.355s2.754,3.777,2.754,6.621v10.992c.016,2.406.352,4.227,1.008,5.461v.398h-6.844Zm-5.602-4.711c1,0,1.922-.223,2.766-.668s1.469-1.043,1.875-1.793v-4.359h-2.531c-3.391,0-5.195,1.172-5.414,3.516l-.023.398c0,.844.297,1.539.891,2.086s1.406.82,2.438.82Z" fill="#c9d1d9"/>
      <path d="m888.103,511.393c0-.828-.41-1.48-1.23-1.957s-2.137-.902-3.949-1.277c-6.031-1.266-9.047-3.828-9.047-7.688,0-2.25.934-4.129,2.801-5.637s4.309-2.262,7.324-2.262c3.219,0,5.793.758,7.723,2.273s2.895,3.484,2.895,5.906h-6.773c0-.969-.312-1.77-.938-2.402s-1.602-.949-2.93-.949c-1.141,0-2.023.258-2.648.773s-.938,1.172-.938,1.969c0,.75.355,1.355,1.066,1.816s1.91.859,3.598,1.195,3.109.715,4.266,1.137c3.578,1.312,5.367,3.586,5.367,6.82,0,2.312-.992,4.184-2.977,5.613s-4.547,2.145-7.688,2.145c-2.125,0-4.012-.379-5.66-1.137s-2.941-1.797-3.879-3.117-1.406-2.746-1.406-4.277h6.422c.062,1.203.508,2.125,1.336,2.766s1.938.961,3.328.961c1.297,0,2.277-.246,2.941-.738s.996-1.137.996-1.934Z" fill="#c9d1d9"/>
      <path d="m899.001,486.479c0-1.016.34-1.852,1.02-2.508s1.605-.984,2.777-.984c1.156,0,2.078.328,2.766.984s1.031,1.492,1.031,2.508c0,1.031-.348,1.875-1.043,2.531s-1.613.984-2.754.984-2.059-.328-2.754-.984-1.043-1.5-1.043-2.531Zm7.195,31.922h-6.797v-25.359h6.797v25.359Z" fill="#c9d1d9"/>
      <path d="m918.923,518.4h-6.797v-36h6.797v36Z" fill="#c9d1d9"/>
      <path d="m939.197,518.4c-.312-.609-.539-1.367-.68-2.273-1.641,1.828-3.773,2.742-6.398,2.742-2.484,0-4.543-.719-6.176-2.156s-2.449-3.25-2.449-5.438c0-2.688.996-4.75,2.988-6.188s4.871-2.164,8.637-2.18h3.117v-1.453c0-1.172-.301-2.109-.902-2.812s-1.551-1.055-2.848-1.055c-1.141,0-2.035.273-2.684.82s-.973,1.297-.973,2.25h-6.773c0-1.469.453-2.828,1.359-4.078s2.188-2.23,3.844-2.941,3.516-1.066,5.578-1.066c3.125,0,5.605.785,7.441,2.355s2.754,3.777,2.754,6.621v10.992c.016,2.406.352,4.227,1.008,5.461v.398h-6.844Zm-5.602-4.711c1,0,1.922-.223,2.766-.668s1.469-1.043,1.875-1.793v-4.359h-2.531c-3.391,0-5.195,1.172-5.414,3.516l-.023.398c0,.844.297,1.539.891,2.086s1.406.82,2.438.82Z" fill="#c9d1d9"/>
      <path d="m964.486,499.393c-.922-.125-1.734-.188-2.438-.188-2.562,0-4.242.867-5.039,2.602v16.594h-6.773v-25.359h6.398l.188,3.023c1.359-2.328,3.242-3.492,5.648-3.492.75,0,1.453.102,2.109.305l-.094,6.516Z" fill="#c9d1d9"/>
      <path d="m986.048,493.041l.211,2.836c1.797-2.203,4.227-3.305,7.289-3.305,3.266,0,5.508,1.289,6.727,3.867,1.781-2.578,4.32-3.867,7.617-3.867,2.75,0,4.797.801,6.141,2.402s2.016,4.012,2.016,7.23v16.195h-6.797v-16.172c0-1.438-.281-2.488-.844-3.152s-1.555-.996-2.977-.996c-2.031,0-3.438.969-4.219,2.906l.023,17.414h-6.773v-16.148c0-1.469-.289-2.531-.867-3.188s-1.562-.984-2.953-.984c-1.922,0-3.312.797-4.172,2.391v17.93h-6.773v-25.359h6.352Z" fill="#c9d1d9"/>
      <path d="m1032.923,518.869c-3.719,0-6.746-1.141-9.082-3.422s-3.504-5.32-3.504-9.117v-.656c0-2.547.492-4.824,1.477-6.832s2.379-3.555,4.184-4.641,3.863-1.629,6.176-1.629c3.469,0,6.199,1.094,8.191,3.281s2.988,5.289,2.988,9.305v2.766h-16.148c.219,1.656.879,2.984,1.98,3.984s2.496,1.5,4.184,1.5c2.609,0,4.648-.945,6.117-2.836l3.328,3.727c-1.016,1.438-2.391,2.559-4.125,3.363s-3.656,1.207-5.766,1.207Zm-.773-20.836c-1.344,0-2.434.455-3.27,1.365-.836.911-1.371,2.213-1.605,3.908h9.422v-.542c-.031-1.506-.438-2.672-1.219-3.495-.781-.824-1.891-1.236-3.328-1.236Z" fill="#c9d1d9"/>
      <path d="m1053.548,493.041l.211,2.836c1.797-2.203,4.227-3.305,7.289-3.305,3.266,0,5.508,1.289,6.727,3.867,1.781-2.578,4.32-3.867,7.618-3.867,2.75,0,4.797.801,6.141,2.402s2.016,4.012,2.016,7.23v16.195h-6.797v-16.172c0-1.438-.281-2.488-.844-3.152s-1.555-.996-2.977-.996c-2.031,0-3.438.969-4.219,2.906l.023,17.414h-6.773v-16.148c0-1.469-.289-2.531-.867-3.188s-1.562-.984-2.953-.984c-1.922,0-3.312.797-4.172,2.391v17.93h-6.773v-25.359h6.352Z" fill="#c9d1d9"/>
      <path d="m1111.604,505.955c0,4.062-.867,7.23-2.602,9.504s-4.156,3.41-7.266,3.41c-2.75,0-4.945-1.055-6.586-3.164l-.305,2.695h-6.094v-36h6.773v12.914c1.562-1.828,3.617-2.742,6.164-2.742,3.094,0,5.52,1.137,7.277,3.41s2.637,5.473,2.637,9.598v.375Zm-6.773-.492c0-2.562-.406-4.434-1.219-5.613s-2.023-1.77-3.633-1.77c-2.156,0-3.641.883-4.453,2.648v10.008c.828,1.781,2.328,2.672,4.5,2.672,2.188,0,3.625-1.078,4.312-3.234.328-1.031.492-2.602.492-4.711Z" fill="#c9d1d9"/>
    </g>
    <g isolation="isolate">
      <path d="m1130.021,499.393c-.922-.125-1.734-.188-2.438-.188-2.562,0-4.242.867-5.039,2.602v16.594h-6.773v-25.359h6.398l.188,3.023c1.359-2.328,3.242-3.492,5.648-3.492.75,0,1.453.102,2.109.305l-.094,6.516Z" fill="#c9d1d9"/>
    </g>
    <g isolation="isolate">
      <path d="m1147.277,518.4c-.312-.609-.539-1.367-.68-2.273-1.641,1.828-3.773,2.742-6.398,2.742-2.484,0-4.543-.719-6.176-2.156s-2.449-3.25-2.449-5.438c0-2.688.996-4.75,2.988-6.188s4.871-2.164,8.637-2.18h3.117v-1.453c0-1.172-.301-2.109-.902-2.812s-1.551-1.055-2.848-1.055c-1.141,0-2.035.273-2.684.82s-.973,1.297-.973,2.25h-6.773c0-1.469.453-2.828,1.359-4.078s2.188-2.23,3.844-2.941,3.516-1.066,5.578-1.066c3.125,0,5.605.785,7.441,2.355s2.754,3.777,2.754,6.621v10.992c.016,2.406.352,4.227,1.008,5.461v.398h-6.844Zm-5.602-4.711c1,0,1.922-.223,2.766-.668s1.469-1.043,1.875-1.793v-4.359h-2.531c-3.391,0-5.195,1.172-5.414,3.516l-.023.398c0,.844.297,1.539.891,2.086s1.406.82,2.438.82Z" fill="#c9d1d9"/>
      <path d="m1164.551,493.041l.211,2.93c1.812-2.266,4.242-3.398,7.289-3.398,2.688,0,4.688.789,6,2.367s1.984,3.938,2.016,7.078v16.383h-6.773v-16.219c0-1.438-.312-2.48-.938-3.129s-1.664-.973-3.117-.973c-1.906,0-3.336.812-4.289,2.438v17.883h-6.773v-25.359h6.375Z" fill="#c9d1d9"/>
      <path d="m1196.871,518.869c-3.719,0-6.746-1.141-9.082-3.422s-3.504-5.32-3.504-9.117v-.656c0-2.547.492-4.824,1.477-6.832s2.379-3.555,4.184-4.641,3.863-1.629,6.176-1.629c3.469,0,6.199,1.094,8.191,3.281s2.988,5.289,2.988,9.305v2.766h-16.148c.219,1.656.879,2.984,1.98,3.984s2.496,1.5,4.184,1.5c2.609,0,4.648-.945,6.117-2.836l3.328,3.727c-1.016,1.438-2.391,2.559-4.125,3.363s-3.656,1.207-5.766,1.207Zm-.773-20.836c-1.344,0-2.434.455-3.27,1.365-.836.911-1.371,2.213-1.605,3.908h9.422v-.542c-.031-1.506-.438-2.672-1.219-3.495-.781-.824-1.891-1.236-3.328-1.236Z" fill="#c9d1d9"/>
    </g>
  </g>
  <g isolation="isolate">
    <g isolation="isolate">
      <path d="m830.341,751.729h-14.32v15.07h-4.5v-34.125h21.141v3.68h-16.641v11.695h14.32v3.68Z" fill="#c9d1d9"/>
    </g>
    <g isolation="isolate">
      <path d="m849.019,745.331c-.656-.109-1.367-.164-2.133-.164-2.844,0-4.773,1.211-5.789,3.633v18h-4.336v-25.359h4.219l.07,2.93c1.422-2.266,3.438-3.398,6.047-3.398.844,0,1.484.109,1.922.328v4.031Z" fill="#c9d1d9"/>
    </g>
    <g isolation="isolate">
      <path d="m863.085,767.269c-3.438,0-6.234-1.129-8.391-3.387s-3.234-5.277-3.234-9.059v-.797c0-2.516.48-4.762,1.441-6.738s2.305-3.523,4.031-4.641,3.598-1.676,5.613-1.676c3.297,0,5.859,1.086,7.688,3.258s2.742,5.281,2.742,9.328v1.805h-17.18c.062,2.5.793,4.52,2.191,6.059s3.176,2.309,5.332,2.309c1.531,0,2.828-.312,3.891-.938s1.992-1.453,2.789-2.484l2.648,2.062c-2.125,3.266-5.312,4.898-9.562,4.898Zm-.539-22.734c-1.75,0-3.219.637-4.406,1.91s-1.922,3.059-2.203,5.355h12.703v-.328c-.125-2.203-.719-3.91-1.781-5.121s-2.5-1.816-4.312-1.816Z" fill="#c9d1d9"/>
      <path d="m876.937,753.909c0-3.984.914-7.137,2.742-9.457s4.281-3.48,7.359-3.48c3,0,5.367,1.008,7.102,3.023l.188-2.555h3.984v35.109h-4.336v-12.094c-1.75,1.875-4.078,2.812-6.984,2.812-3.062,0-5.504-1.191-7.324-3.574s-2.73-5.543-2.73-9.48v-.305Zm4.336.492c0,2.906.613,5.188,1.84,6.844s2.879,2.484,4.957,2.484c2.578,0,4.547-1.141,5.906-3.422v-12.422c-1.375-2.234-3.328-3.352-5.859-3.352-2.094,0-3.758.832-4.992,2.496s-1.852,4.121-1.852,7.371Z" fill="#c9d1d9"/>
      <path d="m920.929,764.292c-1.688,1.984-4.164,2.977-7.43,2.977-2.703,0-4.762-.785-6.176-2.355s-2.129-3.895-2.145-6.973v-16.5h4.336v16.383c0,3.844,1.562,5.766,4.688,5.766,3.312,0,5.516-1.234,6.609-3.703v-18.445h4.336v25.359h-4.125l-.094-2.508Z" fill="#c9d1d9"/>
      <path d="m942.257,767.269c-3.438,0-6.234-1.129-8.391-3.387s-3.234-5.277-3.234-9.059v-.797c0-2.516.48-4.762,1.441-6.738s2.305-3.523,4.031-4.641,3.598-1.676,5.613-1.676c3.297,0,5.859,1.086,7.688,3.258s2.742,5.281,2.742,9.328v1.805h-17.18c.062,2.5.793,4.52,2.191,6.059s3.176,2.309,5.332,2.309c1.531,0,2.828-.312,3.891-.938s1.992-1.453,2.789-2.484l2.648,2.062c-2.125,3.266-5.312,4.898-9.562,4.898Zm-.539-22.734c-1.75,0-3.219.637-4.406,1.91s-1.922,3.059-2.203,5.355h12.703v-.328c-.125-2.203-.719-3.91-1.781-5.121s-2.5-1.816-4.312-1.816Z" fill="#c9d1d9"/>
      <path d="m961.265,741.44l.141,3.188c1.938-2.438,4.469-3.656,7.594-3.656,5.359,0,8.062,3.023,8.109,9.07v16.758h-4.336v-16.781c-.016-1.828-.434-3.18-1.254-4.055s-2.098-1.312-3.832-1.312c-1.406,0-2.641.375-3.703,1.125s-1.891,1.734-2.484,2.953v18.07h-4.336v-25.359h4.102Z" fill="#c9d1d9"/>
      <path d="m993.819,763.729c1.547,0,2.898-.469,4.055-1.406s1.797-2.109,1.922-3.516h4.102c-.078,1.453-.578,2.836-1.5,4.148s-2.152,2.359-3.691,3.141-3.168,1.172-4.887,1.172c-3.453,0-6.199-1.152-8.238-3.457s-3.059-5.457-3.059-9.457v-.727c0-2.469.453-4.664,1.359-6.586s2.207-3.414,3.902-4.477,3.699-1.594,6.012-1.594c2.844,0,5.207.852,7.09,2.555s2.887,3.914,3.012,6.633h-4.102c-.125-1.641-.746-2.988-1.863-4.043s-2.496-1.582-4.137-1.582c-2.203,0-3.91.793-5.121,2.379s-1.816,3.879-1.816,6.879v.82c0,2.922.602,5.172,1.805,6.75s2.922,2.367,5.156,2.367Z" fill="#c9d1d9"/>
      <path d="m1017.069,760.448l5.906-19.008h4.641l-10.195,29.273c-1.578,4.219-4.086,6.328-7.523,6.328l-.82-.07-1.617-.305v-3.516l1.172.094c1.469,0,2.613-.297,3.434-.891s1.496-1.68,2.027-3.258l.961-2.578-9.047-25.078h4.734l6.328,19.008Z" fill="#c9d1d9"/>
      <path d="m1043.39,734.714c0-.703.215-1.297.645-1.781s1.066-.727,1.91-.727,1.484.242,1.922.727.656,1.078.656,1.781-.219,1.289-.656,1.758-1.078.703-1.922.703-1.48-.234-1.91-.703-.645-1.055-.645-1.758Zm4.688,32.086h-4.336v-25.359h4.336v25.359Z" fill="#c9d1d9"/>
      <path d="m1059.116,741.44l.141,3.188c1.938-2.438,4.469-3.656,7.594-3.656,5.359,0,8.062,3.023,8.109,9.07v16.758h-4.336v-16.781c-.016-1.828-.434-3.18-1.254-4.055s-2.098-1.312-3.832-1.312c-1.406,0-2.641.375-3.703,1.125s-1.891,1.734-2.484,2.953v18.07h-4.336v-25.359h4.102Z" fill="#c9d1d9"/>
      <path d="m1100.46,755.058l-2.719,2.836v8.906h-4.336v-36h4.336v21.773l2.32-2.789,7.898-8.344h5.273l-9.867,10.594,11.016,14.766h-5.086l-8.836-11.742Z" fill="#c9d1d9"/>
      <path d="m1144.616,766.8h-4.523v-15.773h-17.203v15.773h-4.5v-34.125h4.5v14.672h17.203v-14.672h4.523v34.125Z" fill="#c9d1d9"/>
      <path d="m1156.007,763.261h14.836v3.539h-20.133v-3.188l13.992-18.586h-13.781v-3.586h19.219v3.07l-14.133,18.75Z" fill="#c9d1d9"/>
    </g>
  </g>
</svg>