<?xml version="1.0" encoding="UTF-8"?>
<svg xmlns="http://www.w3.org/2000/svg" viewBox="0 0 2149.2 781.2">
  <defs>
    <style>
      .cls-1 {
        letter-spacing: 0em;
      }

      .cls-2 {
        stroke-width: 3px;
      }

      .cls-2, .cls-3 {
        fill: none;
      }

      .cls-2, .cls-3, .cls-4, .cls-5 {
        stroke: #c9d1d9;
        stroke-miterlimit: 10;
      }

      .cls-3, .cls-4, .cls-5 {
        stroke-width: 6px;
      }

      .cls-4 {
        opacity: .1;
      }

      .cls-4, .cls-5 {
        fill: #7f7f7f;
      }

      .cls-6 {
        letter-spacing: 0em;
      }

      .cls-7, .cls-8, .cls-9 {
        fill: #c9d1d9;
      }

      .cls-10 {
        letter-spacing: -.01em;
      }

      .cls-11 {
        letter-spacing: 0em;
      }

      .cls-12 {
        letter-spacing: -.02em;
      }

      .cls-5 {
        opacity: .2;
      }

      .cls-8 {
        font-family: Roboto-Bold, Roboto;
        font-weight: 700;
      }

      .cls-8, .cls-9 {
        font-size: 48px;
      }

      .cls-13 {
        letter-spacing: 0em;
      }

      .cls-14 {
        letter-spacing: -.01em;
      }

      .cls-9 {
        font-family: Roboto-Regular, Roboto;
      }
    </style>
  </defs>
  <g id="Ebene_1" data-name="Ebene 1">
    <line class="cls-2" x1="64.8" y1="133.2" x2="64.8" y2="61.2"/>
    <line class="cls-2" x1="1864.8" y1="133.2" x2="1864.8" y2="61.2"/>
    <line class="cls-2" x1="64.8" y1="61.2" x2="1864.8" y2="61.2"/>
    <line class="cls-2" x1="136.8" y1="133.2" x2="136.8" y2="61.2"/>
    <line class="cls-2" x1="208.8" y1="133.2" x2="208.8" y2="61.2"/>
    <line class="cls-2" x1="280.8" y1="133.2" x2="280.8" y2="61.2"/>
    <line class="cls-2" x1="352.8" y1="133.2" x2="352.8" y2="61.2"/>
    <line class="cls-2" x1="424.8" y1="133.2" x2="424.8" y2="61.2"/>
    <line class="cls-2" x1="496.8" y1="133.2" x2="496.8" y2="61.2"/>
    <line class="cls-2" x1="568.8" y1="133.2" x2="568.8" y2="61.2"/>
    <line class="cls-2" x1="640.8" y1="133.2" x2="640.8" y2="61.2"/>
    <line class="cls-2" x1="712.8" y1="133.2" x2="712.8" y2="61.2"/>
    <line class="cls-2" x1="784.8" y1="133.2" x2="784.8" y2="61.2"/>
    <line class="cls-2" x1="856.8" y1="133.2" x2="856.8" y2="61.2"/>
    <line class="cls-2" x1="928.8" y1="133.2" x2="928.8" y2="61.2"/>
    <line class="cls-2" x1="1000.8" y1="133.2" x2="1000.8" y2="61.2"/>
    <line class="cls-2" x1="1072.8" y1="133.2" x2="1072.8" y2="61.2"/>
    <line class="cls-2" x1="1144.8" y1="133.2" x2="1144.8" y2="61.2"/>
    <line class="cls-2" x1="1216.8" y1="133.2" x2="1216.8" y2="61.2"/>
    <line class="cls-2" x1="1288.8" y1="133.2" x2="1288.8" y2="61.2"/>
    <line class="cls-2" x1="1360.8" y1="133.2" x2="1360.8" y2="61.2"/>
    <line class="cls-2" x1="1432.8" y1="133.2" x2="1432.8" y2="61.2"/>
    <line class="cls-2" x1="1504.8" y1="133.2" x2="1504.8" y2="61.2"/>
    <line class="cls-2" x1="1576.8" y1="133.2" x2="1576.8" y2="61.2"/>
    <line class="cls-2" x1="1648.8" y1="133.2" x2="1648.8" y2="61.2"/>
    <line class="cls-2" x1="1720.8" y1="133.2" x2="1720.8" y2="61.2"/>
    <line class="cls-2" x1="1792.8" y1="133.2" x2="1792.8" y2="61.2"/>
    <line class="cls-3" x1="64.8" y1="583.2" x2="64.8" y2="637.2"/>
    <line class="cls-3" x1="1792.8" y1="583.2" x2="1792.8" y2="637.2"/>
    <line class="cls-3" x1="1522.8" y1="583.2" x2="1522.8" y2="637.2"/>
    <line class="cls-3" x1="1252.8" y1="583.2" x2="1252.8" y2="637.2"/>
    <line class="cls-3" x1="694.8" y1="583.2" x2="694.8" y2="637.2"/>
    <line class="cls-3" x1="979.2" y1="583.2" x2="979.2" y2="637.2"/>
    <line class="cls-3" x1="406.8" y1="583.2" x2="406.8" y2="637.2"/>
    <line class="cls-3" x1="244.8" y1="594" x2="244.8" y2="622.8"/>
    <line class="cls-3" x1="154.8" y1="594" x2="154.8" y2="622.8"/>
    <line class="cls-2" x1="1915.2" y1="608.4" x2="64.8" y2="608.4"/>
    <line class="cls-2" x1="61.2" y1="349.2" x2="1936.8" y2="349.2"/>
    <line class="cls-2" x1="496.8" y1="320.4" x2="496.8" y2="378"/>
    <line class="cls-2" x1="928.8" y1="320.4" x2="928.8" y2="378"/>
    <line class="cls-2" x1="1360.8" y1="320.4" x2="1360.8" y2="378"/>
    <line class="cls-2" x1="1792.8" y1="320.4" x2="1792.8" y2="378"/>
    <ellipse class="cls-4" cx="1953" cy="349.2" rx="16.2" ry="118.8"/>
    <g>
      <line class="cls-2" x1="915.78" y1="230.4" x2="1915.2" y2="230.4"/>
      <polygon class="cls-7" points="921.72 239.12 889.2 230.41 921.72 221.68 921.72 239.12"/>
    </g>
    <polygon class="cls-5" points="61.2 230.4 61.2 468 1936.8 388.8 1936.8 309.6 61.2 230.4"/>
    <ellipse class="cls-3" cx="1953" cy="349.2" rx="16.2" ry="118.8"/>
    <polygon class="cls-3" points="61.2 230.4 61.2 468 1936.8 388.8 1936.8 309.6 61.2 230.4"/>
  </g>
  <g id="TEXT">
    <text class="cls-9" transform="translate(50.4 703.25)"><tspan x="0" y="0">0</tspan></text>
    <text class="cls-9" transform="translate(198.05 697.83)"><tspan x="0" y="0">0.25</tspan></text>
    <text class="cls-9" transform="translate(373.53 699.65)"><tspan x="0" y="0">0.5</tspan></text>
    <text class="cls-9" transform="translate(681.32 699.65)"><tspan x="0" y="0">1</tspan></text>
    <text class="cls-9" transform="translate(965.72 699.65)"><tspan x="0" y="0">2</tspan></text>
    <text class="cls-9" transform="translate(1239.32 703.25)"><tspan x="0" y="0">4</tspan></text>
    <text class="cls-9" transform="translate(1509.32 699.65)"><tspan x="0" y="0">8</tspan></text>
    <text class="cls-9" transform="translate(1765.85 699.65)"><tspan x="0" y="0">16</tspan></text>
    <text class="cls-9" transform="translate(86.4 111.23)"><tspan x="0" y="0">0</tspan></text>
    <text class="cls-9" transform="translate(165.6 111.23)"><tspan x="0" y="0">1</tspan></text>
    <text class="cls-9" transform="translate(230.4 111.23)"><tspan x="0" y="0">2</tspan></text>
    <text class="cls-9" transform="translate(303.66 111.23)"><tspan x="0" y="0">3</tspan></text>
    <text class="cls-9" transform="translate(370.8 111.23)"><tspan x="0" y="0">4</tspan></text>
    <text class="cls-9" transform="translate(446.07 111.23)"><tspan x="0" y="0">5</tspan></text>
    <text class="cls-9" transform="translate(511.2 111.23)"><tspan x="0" y="0">6</tspan></text>
    <text class="cls-9" transform="translate(590.4 111.23)"><tspan x="0" y="0">7</tspan></text>
    <text class="cls-9" transform="translate(662.4 111.23)"><tspan x="0" y="0">8</tspan></text>
    <text class="cls-9" transform="translate(734.4 111.23)"><tspan x="0" y="0">9</tspan></text>
    <text class="cls-9" transform="translate(792 111.23)"><tspan x="0" y="0">10</tspan></text>
    <text class="cls-9" transform="translate(864 111.23)"><tspan x="0" y="0">11</tspan></text>
    <text class="cls-9" transform="translate(939.6 111.23)"><tspan x="0" y="0">12</tspan></text>
    <text class="cls-9" transform="translate(1008 111.23)"><tspan x="0" y="0">13</tspan></text>
    <text class="cls-9" transform="translate(1080 111.23)"><tspan x="0" y="0">14</tspan></text>
    <text class="cls-9" transform="translate(1152 111.23)"><tspan x="0" y="0">15</tspan></text>
    <text class="cls-9" transform="translate(1220.4 111.23)"><tspan x="0" y="0">16</tspan></text>
    <text class="cls-9" transform="translate(1296 111.23)"><tspan x="0" y="0">17</tspan></text>
    <text class="cls-9" transform="translate(1371.6 111.23)"><tspan x="0" y="0">18</tspan></text>
    <text class="cls-9" transform="translate(1440 111.23)"><tspan x="0" y="0">19</tspan></text>
    <text class="cls-9" transform="translate(1512 111.23)"><tspan x="0" y="0">20</tspan></text>
    <text class="cls-9" transform="translate(1584 111.23)"><tspan x="0" y="0">21</tspan></text>
    <text class="cls-9" transform="translate(1656 111.23)"><tspan x="0" y="0">22</tspan></text>
    <text class="cls-9" transform="translate(1728 111.23)"><tspan x="0" y="0">23</tspan></text>
    <text class="cls-9" transform="translate(1803.6 111.23)"><tspan x="0" y="0">24</tspan></text>
    <text class="cls-9" transform="translate(1911.6 111.23)"><tspan x="0" y="0">Bark</tspan></text>
    <text class="cls-9" transform="translate(39.6 479.47) rotate(-90)"><tspan x="0" y="0">Helicot</tspan><tspan class="cls-1" x="151.12" y="0">r</tspan><tspan x="166.92" y="0">ema</tspan></text>
    <g>
      <path class="cls-7" d="m2013.81,318.47c0,3.34-.56,6.26-1.69,8.75s-2.72,4.39-4.78,5.71-4.47,1.97-7.22,1.97-5.07-.66-7.15-1.98-3.69-3.2-4.84-5.65-1.74-5.28-1.77-8.5v-2.46c0-3.28.57-6.18,1.71-8.7s2.75-4.44,4.84-5.78,4.47-2,7.16-2,5.14.66,7.23,1.98,3.69,3.23,4.82,5.74,1.69,5.43,1.69,8.75v2.16Zm-4.48-2.2c0-4.05-.81-7.15-2.44-9.32s-3.9-3.25-6.82-3.25-5.08,1.08-6.71,3.25-2.47,5.17-2.52,9.01v2.51c0,3.92.82,7,2.47,9.25s3.92,3.36,6.81,3.36,5.16-1.06,6.75-3.18,2.41-5.15,2.46-9.11v-2.53Z"/>
      <path class="cls-7" d="m2028.25,328.54l6.28-19.48h4.43l-9.09,25.36h-3.3l-9.19-25.36h4.43l6.45,19.48Z"/>
      <path class="cls-7" d="m2058.44,334.43c-.25-.5-.45-1.39-.61-2.67-2.02,2.09-4.42,3.14-7.22,3.14-2.5,0-4.55-.71-6.15-2.12s-2.4-3.21-2.4-5.38c0-2.64,1-4.69,3.01-6.15s4.83-2.19,8.47-2.19h4.22v-1.99c0-1.52-.45-2.72-1.36-3.62s-2.24-1.35-4.01-1.35c-1.55,0-2.84.39-3.89,1.17s-1.57,1.73-1.57,2.84h-4.36c0-1.27.45-2.49,1.35-3.67s2.12-2.11,3.66-2.8,3.23-1.03,5.07-1.03c2.92,0,5.21.73,6.87,2.19s2.52,3.47,2.58,6.04v11.67c0,2.33.3,4.18.89,5.55v.38h-4.55Zm-7.2-3.3c1.36,0,2.65-.35,3.87-1.05s2.1-1.62,2.65-2.74v-5.2h-3.4c-5.31,0-7.97,1.55-7.97,4.66,0,1.36.45,2.42,1.36,3.19s2.07,1.15,3.49,1.15Z"/>
      <path class="cls-7" d="m2073.6,334.43h-4.34v-36h4.34v36Z"/>
      <path class="cls-7" d="m2009.33,386.05l4.88-19.38h4.34l-7.38,25.36h-3.52l-6.16-19.22-6,19.22h-3.52l-7.36-25.36h4.31l4.99,18.98,5.91-18.98h3.49l6.02,19.38Z"/>
      <path class="cls-7" d="m2022.97,359.94c0-.7.21-1.3.64-1.78s1.07-.73,1.91-.73,1.48.24,1.92.73.66,1.08.66,1.78-.22,1.29-.66,1.76-1.08.7-1.92.7-1.48-.23-1.91-.7-.64-1.05-.64-1.76Zm4.69,32.09h-4.34v-25.36h4.34v25.36Z"/>
      <path class="cls-7" d="m2038.7,366.67l.14,3.19c1.94-2.44,4.47-3.66,7.59-3.66,5.36,0,8.06,3.02,8.11,9.07v16.76h-4.34v-16.78c-.02-1.83-.43-3.18-1.25-4.05s-2.1-1.31-3.83-1.31c-1.41,0-2.64.38-3.7,1.12s-1.89,1.73-2.48,2.95v18.07h-4.34v-25.36h4.1Z"/>
      <path class="cls-7" d="m2060.03,379.14c0-3.89.92-7.02,2.77-9.39s4.26-3.55,7.24-3.55,5.32,1.02,7.05,3.05v-13.22h4.34v36h-3.98l-.21-2.72c-1.73,2.12-4.15,3.19-7.24,3.19s-5.33-1.2-7.18-3.61-2.78-5.55-2.78-9.42v-.33Zm4.34.49c0,2.88.59,5.12,1.78,6.75s2.83,2.44,4.92,2.44c2.75,0,4.76-1.23,6.02-3.7v-11.65c-1.3-2.39-3.29-3.59-5.98-3.59-2.12,0-3.78.82-4.97,2.46s-1.78,4.07-1.78,7.29Z"/>
      <path class="cls-7" d="m2087.01,379.11c0-2.48.49-4.72,1.46-6.7s2.34-3.52,4.08-4.59,3.73-1.62,5.96-1.62c3.45,0,6.25,1.2,8.38,3.59s3.2,5.57,3.2,9.54v.3c0,2.47-.47,4.68-1.42,6.64s-2.3,3.49-4.05,4.58-3.78,1.64-6.06,1.64c-3.44,0-6.22-1.2-8.36-3.59s-3.2-5.55-3.2-9.49v-.3Zm4.36.52c0,2.81.65,5.07,1.96,6.77s3.05,2.55,5.24,2.55,3.95-.86,5.25-2.59,1.95-4.14,1.95-7.25c0-2.78-.66-5.04-1.98-6.76s-3.07-2.59-5.26-2.59-3.87.85-5.18,2.55-1.97,4.14-1.97,7.31Z"/>
      <path class="cls-7" d="m2137.98,386.05l4.88-19.38h4.34l-7.38,25.36h-3.52l-6.16-19.22-6,19.22h-3.52l-7.36-25.36h4.31l4.99,18.98,5.91-18.98h3.49l6.02,19.38Z"/>
    </g>
    <text class="cls-9" transform="translate(1717.83 460.8)"><tspan x="0" y="0">34 mm</tspan></text>
    <text class="cls-9" transform="translate(1314.05 460.8)"><tspan x="0" y="0">25.5</tspan></text>
    <text class="cls-9" transform="translate(901.85 421.2)"><tspan x="0" y="0">17</tspan></text>
    <text class="cls-9" transform="translate(463.53 421.2)"><tspan x="0" y="0">8.5</tspan></text>
    <text class="cls-9" transform="translate(782.87 39.6)"><tspan class="cls-10" x="0" y="0">F</tspan><tspan class="cls-1" x="25.92" y="0">r</tspan><tspan x="41.72" y="0">equency bands</tspan></text>
    <text class="cls-9" transform="translate(943.2 212.4)"><tspan x="0" y="0">Di</tspan><tspan class="cls-1" x="43.12" y="0">r</tspan><tspan x="58.92" y="0">ection of p</tspan><tspan class="cls-11" x="285.4" y="0">r</tspan><tspan x="301.17" y="0">opagation of the t</tspan><tspan class="cls-12" x="678.73" y="0">r</tspan><tspan class="cls-6" x="694.03" y="0">a</tspan><tspan class="cls-13" x="719.79" y="0">v</tspan><tspan x="742.73" y="0">eling w</tspan><tspan class="cls-6" x="892.83" y="0">a</tspan><tspan class="cls-13" x="918.59" y="0">v</tspan><tspan x="941.53" y="0">e</tspan></text>
    <text class="cls-8" transform="translate(815.4 518.4)"><tspan x="0" y="0">Basilar memb</tspan><tspan class="cls-14" x="297.77" y="0">r</tspan><tspan x="314.58" y="0">ane</tspan></text>
    <text class="cls-9" transform="translate(807.56 766.8)"><tspan class="cls-10" x="0" y="0">F</tspan><tspan class="cls-1" x="25.92" y="0">r</tspan><tspan x="41.72" y="0">equency in kHz</tspan></text>
  </g>
</svg>