<?xml version="1.0" encoding="UTF-8"?>
<svg xmlns="http://www.w3.org/2000/svg" xmlns:xlink="http://www.w3.org/1999/xlink" viewBox="0 0 1496.4 1076.4">
  <defs>
    <style>
      .cls-1, .cls-2, .cls-3, .cls-4 {
        fill: none;
      }

      .cls-1, .cls-2, .cls-3, .cls-4, .cls-5 {
        stroke: #c9d1d9;
        stroke-miterlimit: 10;
      }

      .cls-1, .cls-5 {
        stroke-width: 3px;
      }

      .cls-2 {
        stroke-width: 6px;
      }

      .cls-6, .cls-7, .cls-5, .cls-8, .cls-9, .cls-10 {
        fill: #c9d1d9;
      }

      .cls-11 {
        fill: url(#Unbenannter_Verlauf_4);
      }

      .cls-11, .cls-12 {
        opacity: .3;
      }

      .cls-13 {
        letter-spacing: 0em;
      }

      .cls-7, .cls-5 {
        opacity: .2;
      }

      .cls-3 {
        stroke-width: 2px;
      }

      .cls-4 {
        stroke-width: 4px;
      }

      .cls-14 {
        letter-spacing: 0em;
      }

      .cls-15 {
        letter-spacing: 0em;
      }

      .cls-12 {
        fill: url(#Unbenannter_Verlauf_4-2);
      }

      .cls-16 {
        letter-spacing: 0em;
      }

      .cls-17 {
        letter-spacing: 0em;
      }

      .cls-8 {
        opacity: .5;
      }

      .cls-9 {
        opacity: .4;
      }

      .cls-10 {
        font-family: Roboto-Regular, Roboto;
        font-size: 48px;
      }
    </style>
    <linearGradient id="Unbenannter_Verlauf_4" data-name="Unbenannter Verlauf 4" x1="180.46" y1="432.87" x2="1207.29" y2="432.87" gradientUnits="userSpaceOnUse">
      <stop offset="0" stop-color="#7f7f7f"/>
      <stop offset="1" stop-color="#fff" stop-opacity="0"/>
    </linearGradient>
    <linearGradient id="Unbenannter_Verlauf_4-2" data-name="Unbenannter Verlauf 4" x1="202.11" y1="779.9" x2="901.16" y2="779.9" xlink:href="#Unbenannter_Verlauf_4"/>
  </defs>
  <g id="Ebene_19" data-name="Ebene 19">
    <path class="cls-11" d="m214.08,33.08c1.87-1.16,3.09-1.83,6.75-2.39,20.06-1.73,38.22-7.17,58.28-8.9,13.82-1.19,28.82-2.11,40.43,5.48,20.58,13.45,18.42,43.41,17.65,67.98-2.46,78.85,37.35,157.78,102.21,202.69,9.11,6.31,18.91,12.08,29.77,14.27,13.19,2.66,26.79-.15,39.97-2.89,96.61-20.09,193.9-36.75,291.16-53.4,37.66-6.45,75.32-12.9,112.98-19.34,9.65-1.65,19.82-3.26,29.01.1,10.14,3.71,17.21,12.76,23.52,21.52,42.78,59.35,77.02,125.25,126.96,178.72,40.91,43.8,93.86,81.96,109.56,139.8,8.77,32.29,4.42,66.61-1.86,99.47-5.45,28.49-13.26,58.41-34.32,78.35-23.75,22.49-58.76,27.23-88.24,41.39-35.94,17.26-67.5,49.96-107.35,48.8-33.74-.98-61.26-26.35-84.09-51.22-33.68-36.69-62.44-77.79-90.65-118.84-2.41-3.51-5.75-8.31-6.52-12.5-1.83-9.94,7.22-10.07,12.66-18.59,20.21-31.67,15.06-72.72,3.96-108.61-2.55-8.24-12.62-26.55-20.23-30.59-6.36-3.38-14.46-2.18-21.55-3.45-15.17-2.72-25.92-15.24-30.15-30.06-4.23-14.82-6.5-29.12-4.53-44.41,1.53-11.9,5.6-24.3-.74-34.49-5.53-8.89-15.78-13.46-25.43-17.54-21.31-8.99-60.25-24.04-69.79-23.06-16.71,1.7-40.88,17.02-45.05,39.77-6.11,33.34,33.23,62.17,31.54,99.99-.18,4.1,4.67,14.56,2.06,17.74-4.41,5.37-22.31,2.14-29.07.58-12.08-2.79-75.63-11.19-118.84-8.27-22.28,1.51-43.1,1.4-65.11,5.2-18.27,3.16-37.45,5.52-55.15,11.04-34.39,10.72-47.58,15.28-83.48,18.26-3.07.25-19.62-2.49-22.3-4-3.59-2.02-9.72-6.86-11.44-10.6-15.17-33.03,6.32-138.99-32.87-209.15-11.23-20.1-20.81-47.12-22.91-70.04-1.86-20.24,2.51-34.46,10.45-52.51,3.32-7.56,12.05-13.53,19.02-17.97,6.31-4.01,14.01-5.43,20.4-9.32,9.28-5.66.69-22.35-.56-33.69s-2.96-21.65-5.54-32.76c-6.42-27.67-6.19-36.64-10.57-62.54Z"/>
    <text class="cls-10" transform="translate(1179.73 476.55)"><tspan class="cls-14" x="0" y="0">A</tspan><tspan x="31.05" y="0">udi</tspan><tspan class="cls-15" x="96.23" y="0">t</tspan><tspan x="111.45" y="0">o</tspan><tspan class="cls-13" x="138.82" y="0">r</tspan><tspan x="155.48" y="0">y ne</tspan><tspan class="cls-13" x="241.99" y="0">r</tspan><tspan class="cls-17" x="258.66" y="0">v</tspan><tspan x="281.6" y="0">e</tspan></text>
    <text class="cls-10" transform="translate(1054.22 868.14)"><tspan x="0" y="0">Cochlea</tspan></text>
    <text class="cls-10" transform="translate(876.36 971.19)"><tspan class="cls-16" x="0" y="0">E</tspan><tspan x="26.88" y="0">ustachian tube</tspan></text>
    <text class="cls-10" transform="translate(437.58 832.66)"><tspan x="0" y="0">Ear drum</tspan></text>
    <text class="cls-10" transform="translate(486.6 187.33)"><tspan x="0" y="0">Ossicles</tspan></text>
    <text class="cls-10" transform="translate(177.16 604.9)"><tspan x="0" y="0">Ear canal</tspan></text>
    <text class="cls-10" transform="translate(29.22 356.03)"><tspan x="0" y="0">Pinna</tspan></text>
    <line class="cls-3" x1="970.54" y1="686.87" x2="1095.55" y2="832.66"/>
    <line class="cls-3" x1="881.01" y1="812.72" x2="978.14" y2="930.13"/>
    <line class="cls-3" x1="604.79" y1="792.73" x2="674.62" y2="604.9"/>
    <line class="cls-3" x1="603.1" y1="205.4" x2="643.65" y2="428.52"/>
  </g>
  <g id="Zusammen">
    <path class="cls-7" d="m723.35,533.24c-5.26-1.99-10.65-5-12.87-10.16-1.09-2.54-1.29-5.36-1.48-8.11-.83-12.1-1.66-24.27-.45-36.34,1.03-10.28,3.53-20.37,4.46-30.66.92-10.29.13-21.12-4.96-30.11-6.58-11.6-27.71-26.16-35.48-8.68-7.71,17.35-6.11,38.66-4.43,57.04.14,1.5.29,3.04.95,4.4.83,1.72,2.37,2.95,3.79,4.23,10.47,9.43,15.86,23.43,17.77,37.38,1.34,9.84,1.44,20.65,7.78,28.29,4.21,5.06,10.57,7.86,16.95,9.47,4.01,1.01,10.52,3.43,13.86,1,3.75-2.73,3.38-6.86,3.74-10.81.37-4.08-5.79-5.48-9.62-6.92Z"/>
    <path class="cls-7" d="m691.8,558.1c-17.22-16.76-28.5-39.52-31.42-63.37-.56-4.6-.81-9.36.53-13.8s4.54-8.55,8.98-9.89c-3.14-22.54-.99-45.81,6.24-67.39.51-1.51,1.04-3.15.52-4.65-.84-2.42-3.84-3.18-6.39-3.5-7.19-.89-14.45-1.18-21.68-.88-2.96.13-5.97.36-8.7,1.5-3.2,1.33-5.8,3.8-8.01,6.47-12.55,15.18-13.44,38.85-2.07,54.93,4.35,6.15,10.37,11.46,12.41,18.72,2.68,9.5-2.25,18.97-7.5,26.6-6.26,9.11-4.49,13.35,2.55,21.66,15.19,17.95,30.41,35.48,47.26,52.94,3.07,3.18,6.45,7.07,10.85,6.64,5.53-.54,8.25-7.68,6.56-12.97s-6.16-9.13-10.14-13Z"/>
    <path class="cls-8" d="m685.74,581.98c-2.52-3.45-5.78-6.27-8.94-9.14-20.67-18.7-37.14-38.04-51.46-61.96-3.12,19.63-5.1,38.16-1.76,57.75,1.19,6.94,2.78,13.83,5.04,20.49,13.28,39.06,51.44,68.36,92.6,71.1-12.59-17.41-20.93-37.65-27.24-58.19-2.13-6.95-3.97-14.19-8.25-20.06Z"/>
  </g>
  <g id="Ebene_14" data-name="Ebene 14">
    <path class="cls-12" d="m273.47,909.27c-1.65-5.65-4.53-12.9-9.74-10.17-2.67,1.4-8.02,5.06-8.58,8.02-2.5,13.2-5.67,29.41-18.49,33.44-13.53,4.25-27.65-7.85-29.81-21.87s-1-30.57-1.16-44.75c-.18-15.73-1.66-30.75-1.74-46.48-.17-32.49,23.8-65.28,11.16-95.2-4.57-10.82-15.57-21.14-12.45-32.46,2.99-10.85,17.41-13.84,28.64-13.08,11.23.75,22.5,5.26,33.75,5.46,15.87.28,32.4-8.31,46.36-15.84,57.97-31.28,98.85-54.08,161.56-74.26,13.48-4.34,29.88-7.45,43.86-5.17,10.56,1.73,36.64,9.2,46.14,14.11,40.89,21.12,87.85,47.69,132.68,54.36,26.7,3.97,32.1-5.08,51.56-2.82,2.58.3,32.18,36.65,45.37,58.54,59.98,99.51,102.78,125.13,108.58,138.12-8.54,1.44-26.92,5.68-35.46,7.12-2.52.42-5.14.84-7.59.13-2.96-.86-5.22-3.23-7.08-5.69-9.8-12.96-12.21-30.11-20.66-43.97-5.71-9.37-13.97-16.89-22.2-24.15-26.29-23.21-53.55-45.32-81.69-66.26-5.12-3.81-10.4-7.65-16.49-9.56-7.88-2.47-16.36-1.5-24.59-.86-51.85,4.04-104.76-6.39-151.21-29.79-10.55-5.31-21.09-11.39-32.81-12.85-11.37-1.42-22.78,1.64-33.83,4.68-15.85,4.35-32.17,8.94-45.09,19.11-19.42,15.29-27.78,40.3-36.13,63.56-13.79,38.4-30.17,75.87-48.99,112.07-9.16,17.63-39.26,90.24-59.74,90.9-3.98-17.25,1.13-36.37-4.13-54.39Z"/>
  </g>
  <g id="Ebene_5" data-name="Ebene 5">
    <path class="cls-6" d="m173.57,334.46c4.68,33.43-24.9,61.14-35.57,90.7-1.53,4.58-3.58,10.01-4.96,14.59-.59,2.07-3.07,10.53-3.58,12.34-.36,1.47-1.4,5.94-1.78,7.5-2.83,11.34-4.71,23.85-6.15,35.44-.38,4.99-.95,10.42-1.25,15.38-.44,9.37-.53,18.91-.24,28.3.11,1.79.71,10.89.83,12.85.37,4.76,1.2,10.58,1.7,15.36,1.78,11.59,4.08,24,7.32,35.29,0,0,1.37,4.97,1.37,4.97l.69,2.49c.75,2.42,3.32,9.86,4.08,12.23,1.56,4.58,3.88,9.89,5.6,14.42,1.58,3.76,4.8,10.41,6.44,14.07-1.66-3.6-5.12-10.56-6.61-14-1.8-4.52-4.16-9.83-5.78-14.37-.75-2.13-3.59-10.31-4.23-12.2-.42-1.42-1.7-5.92-2.15-7.44-2.85-9.51-5.23-20.42-6.88-30.21-.95-4.66-1.57-10.61-2.2-15.35-1.86-15.24-2.22-31.16-1.68-46.48.23-4.98.74-10.48,1.07-15.49.63-4.96,1.22-10.49,1.91-15.42,1.05-5.93,2.39-14.57,3.86-20.35.32-1.38,1.38-6.17,1.7-7.59,1.84-6.72,4.31-15.81,6.65-22.35.91-2.7,2.33-7.18,3.52-9.8,9.29-22.15,25.35-41.19,31.41-64.51,1.59-6.48,2.12-13.2.98-19.66l3.94-.68h0Z"/>
    <path class="cls-4" d="m218.62,149.09c-14.57-42.11-37.16-89.25-80.64-98.98-32.65-7.31-67.23,11-86.6,38.28-19.37,27.28-25.79,61.78-26.65,95.22-.86,33.44,3.3,66.85,2.77,100.3-.5,31.42-5.13,63.07-.26,94.11,3,19.1,9.54,37.48,13.15,56.48,9.94,52.33-2.72,106.37,1.6,159.45,6.56,80.45,51.65,154.45,55.09,235.1,1.08,25.32-2,50.63-1.85,75.97.14,22,2.72,43.98,7.7,65.41,5.17,22.25,13.3,44.54,28.77,61.35,15.47,16.81,39.56,27.12,61.64,21.26,21.98-5.83,37.63-26.32,44.08-48.13s5.29-45.04,4.07-67.75"/>
  </g>
  <g id="Ebene_4" data-name="Ebene 4">
    <path class="cls-4" d="m275.65,981.19c2.58-27.08,1.29-54.52-3.8-81.23-4.14-3.49-10.86-.37-13.53,4.34s-2.83,10.38-4.29,15.59c-2.66,9.51-10.36,17.75-19.99,19.92-9.64,2.17-20.72-2.53-24.89-11.49-2.3-4.94-2.47-10.58-2.59-16.03-.53-23.35-1.06-46.7-1.59-70.05-.23-9.94-.45-19.93.84-29.79,3.77-28.91,20.02-59.59,6.27-85.31-4.34-8.11-11.67-15.94-10.05-24.99,1.87-10.4,14.48-14.94,25.04-14.82,17.48.19,34.89,7.53,52.02,4.09,9.13-1.83,17.36-6.6,25.46-11.2,44.26-25.14,90.11-47.47,137.2-66.79,22.86-9.38,46.86-18.19,71.53-16.79,22.08,1.26,42.83,10.62,62.51,20.71,25.31,12.99,49.97,27.51,76.64,37.42s56,15.04,83.68,8.45c3.66-.87,7.55-1.93,11.09-.67,2.9,1.04,5.05,3.47,7.03,5.83,45.49,54.25,74.56,122.44,128.29,168.54,8.25,7.08,17.65,14.61,19.35,25.35"/>
    <path class="cls-4" d="m210.51,30.1c6.57,38.88,13.14,77.77,19.71,116.65.55,3.27,1.09,6.75-.18,9.82-2.33,5.65-9.32,7.28-15.09,9.32-32.27,11.4-42.95,53.41-35.54,86.82s27.26,62.76,37.44,95.44c14.65,47.07,8.41,97.71,10.98,146.93.47,9,1.4,18.47,6.56,25.87,11.39,16.34,35.81,14.32,55.26,9.99,88.43-19.67,149.97-38.73,267.54-28.11,56.41,5.1,63.75,9.08,62.75,2.14-2.91-20.07-4.59-42.69-15.28-60.5-10.69-17.81-24.73-37.33-19.03-57.31,3.98-13.97,16.67-23.44,28.83-31.39,4.27-2.79,8.79-5.61,13.87-6.14,4.82-.51,9.59,1.11,14.17,2.69,21.28,7.38,42.56,14.76,63.84,22.14,5.7,1.98,11.64,4.11,15.73,8.54,7.67,8.31,6.16,21.2,4.89,32.43-2.33,20.56-2.06,42.15,6.61,60.94,8.67,18.79,25.82,25.23,46.51,24.71,22.95,13.46,30.11,56.17,33.47,83.14,3.36,26.97-6.58,57.38-30.38,70.52,37.58,76.78,94.19,144.15,163.33,194.42"/>
  </g>
  <g id="Ebene_6" data-name="Ebene 6">
    <path class="cls-6" d="m58.75,310.46c1.51-28.05,3.69-78.27,5.13-105.8.77-15.13,1.69-30.59,7.79-44.74,7.42-18.62,29.32-34.61,49.6-26.53,27.44,11.45,31.53,55.28,34.13,81.24,1.79,20.14,2.61,40.32,6.39,59.96,1.95,9.85,4.04,19.76,6.09,29.61,4.05,19.75,8.79,39.19,14.94,58.38,3,9.6,6.13,19.19,9.26,28.77,0,0-5.72,1.82-5.72,1.82-2.98-9.64-5.95-19.29-8.81-29-5.86-19.35-10.37-39.23-14.09-59.08-1.9-9.93-3.8-19.8-5.63-29.77-3.63-20.08-4.21-40.37-5.77-60.42-2.22-24.84-5.65-68.13-31.66-79.34-19.21-7.78-39.89,7.42-47.18,25.03-6.13,13.76-7.24,29.21-8.16,44.12-1.75,27.33-4.56,77.95-6.3,105.74h0Z"/>
    <path class="cls-6" d="m58.75,310.46c-.01-34.52.23-69,2.58-103.43.62-11.46,1.23-23.17,3.97-34.74,2.75-11.63,8.04-23.23,17.15-31.31,9.04-8.29,21.79-13.65,34.24-10.9,18.84,4.1,28.52,23.41,33.13,40.4,7.41,28.06,8.88,57.34,11.34,85.87,3.05,39.91,11.3,79.27,24.33,117.09,9.44,27.01,19.27,53.86,33.56,78.89-16.22-23.65-29.91-49.67-39.24-76.94-9.38-27.34-16.41-55.51-20.73-84.1-6.12-39.64-4.86-80.44-15.05-119.23-4.2-15-12.1-32.38-28.62-36.13-15.95-3.27-31.7,8.43-38.67,22.26-7.73,15.13-8.46,32.22-9.43,49.15-1.37,34.49-4.84,68.79-8.57,103.11h0Z"/>
  </g>
  <g id="Ebene_7" data-name="Ebene 7">
    <path class="cls-1" d="m637.26,524.5c15.19,17.95,30.41,35.48,47.26,52.94,3.07,3.18,6.45,7.07,10.85,6.64,5.53-.54,8.25-7.68,6.56-12.97s-6.16-9.13-10.14-13c-17.22-16.76-28.5-39.52-31.42-63.37-.56-4.6-.81-9.36.53-13.8s4.54-8.55,8.98-9.89c-3.14-22.54-.99-45.81,6.24-67.39.51-1.51,1.04-3.15.52-4.65-.84-2.42-3.84-3.18-6.39-3.5-7.19-.89-14.45-1.18-21.68-.88-2.96.13-5.97.36-8.7,1.5-3.2,1.33-5.8,3.8-8.01,6.47-12.55,15.18-13.44,38.85-2.07,54.93,4.35,6.15,10.37,11.46,12.41,18.72,2.68,9.5-2.25,18.97-7.5,26.6-6.26,9.11-4.49,13.35,2.55,21.66Z"/>
  </g>
  <g id="Ebene_8" data-name="Ebene 8">
    <path class="cls-1" d="m708.04,417.85c5.1,8.99,5.89,19.82,4.96,30.11s-3.43,20.38-4.46,30.66c-1.21,12.07-.38,24.24.45,36.34.19,2.76.39,5.57,1.48,8.11,2.22,5.16,7.61,8.17,12.87,10.16,3.83,1.45,9.99,2.85,9.62,6.92s.02,8.08-3.74,10.81c-3.34,2.43-9.85.01-13.86-1-6.38-1.61-12.75-4.41-16.95-9.47-6.34-7.64-6.44-18.45-7.78-28.29-1.91-13.96-7.3-27.96-17.77-37.38-1.42-1.28-2.96-2.51-3.79-4.23-.66-1.36-.81-2.9-.95-4.4-1.69-18.38-3.28-39.69,4.43-57.04,7.77-17.48,28.9-2.92,35.48,8.68Z"/>
  </g>
  <g id="Ebene_9" data-name="Ebene 9">
    <path class="cls-5" d="m785.47,505.27c-2.15-2.46-5.23-4.95-8.33-3.95-4.33,1.4-4.05,7.48-5.68,11.72-1.17,3.05-3.63,5.4-6.01,7.63-6.84,6.43-14.3,13.15-23.75,15.17-3.59.77-6.55-.4-8.72,2.9-1.34,2.04-1.24,11.07.67,12.52.9.68,2.14.58,3.27.52,13.44-.61,26.1,10.99,39.09,7.48,3.85-1.04,7.31-3.36,11.25-4,4.59-.74,17.2,9.78,21.1,8.14,3.98-19.09-10.05-43.45-22.89-58.14Zm7.13,46.89c-2.47-1.54-3.78-4.67-3.29-7.51-.76,1.26-2.86,1.74-4.53,1.75-6.97.05-13.95-.66-20.78-2.11-3.14-.67-6.89-2.2-7.15-5.4-.28-3.47,3.75-5.53,7.12-6.37,3.84-.95,9.11-1.33,12.36-3.76,4.85-3.62,1.92-4.95,3.77-10.36,1.82-.66,3.63.94,4.81,2.47,6.73,8.76,9.59,20.4,7.69,31.29Z"/>
    <path class="cls-4" d="m780.11,518.39c1.82-.66,3.63.94,4.81,2.47,6.73,8.76,9.59,20.4,7.69,31.29-2.8-1.74-4.11-5.54-2.99-8.64.06,2.1-2.73,2.86-4.83,2.87-6.97.05-13.95-.66-20.78-2.11-3.14-.67-6.89-2.2-7.15-5.4-.28-3.47,3.75-5.53,7.12-6.37,3.84-.95,9.11-1.33,12.36-3.76,4.85-3.62,1.92-4.95,3.77-10.36Z"/>
    <path class="cls-1" d="m785.47,505.27c-2.15-2.46-5.23-4.95-8.33-3.95-4.33,1.4-4.05,7.48-5.68,11.72-1.17,3.05-3.63,5.4-6.01,7.63-6.84,6.43-14.3,13.15-23.75,15.17-3.59.77-6.55-.4-8.72,2.9-1.34,2.04-1.24,11.07.67,12.52.9.68,2.14.58,3.27.52,13.44-.61,26.1,10.99,39.09,7.48,3.85-1.04,7.31-3.36,11.25-4,4.59-.74,17.2,9.78,21.1,8.14,3.98-19.09-10.05-43.45-22.89-58.14Zm7.13,46.89c-2.47-1.54-3.78-4.67-3.29-7.51-.76,1.26-2.86,1.74-4.53,1.75-6.97.05-13.95-.66-20.78-2.11-3.14-.67-6.89-2.2-7.15-5.4-.28-3.47,3.75-5.53,7.12-6.37,3.84-.95,9.11-1.33,12.36-3.76,4.85-3.62,1.92-4.95,3.77-10.36,1.82-.66,3.63.94,4.81,2.47,6.73,8.76,9.59,20.4,7.69,31.29Z"/>
  </g>
  <g id="Ebene_20" data-name="Ebene 20">
    <path class="cls-9" d="m776.01,559.27c3.85-1.04,7.31-3.36,11.25-4"/>
    <path class="cls-4" d="m784.78,546.39c-6.97.05-13.95-.66-20.78-2.11"/>
  </g>
  <g id="Ebene_10" data-name="Ebene 10">
    <path class="cls-3" d="m624.5,507.98c-7.51,22.15-4.26,41.07-.91,60.66,1.19,6.94,2.78,13.83,5.04,20.49,13.28,39.06,51.44,68.36,92.6,71.1-12.59-17.41-20.93-37.65-27.24-58.19-2.13-6.95-3.97-14.19-8.25-20.06-2.52-3.45-5.78-6.27-8.94-9.14-20.67-18.7-37.99-40.95-52.3-64.86Z"/>
  </g>
  <g id="Ebene_11" data-name="Ebene 11">
    <path class="cls-6" d="m848.77,451.7c-7.5-7.71-17.53-12.8-27.22-17.52-5-2.51-9.51-4.66-15.05-4.16-3.48.19-12.94.73-16.55.94-6.11.6-15.86.03-21.29,3.05-2.93,1.58-5.51,4.44-5.8,7.83-.49,3.7,2.5,6.04,5.78,7.03,6.94,2.19,14.35,2.84,21.62,2.46,11.02-.55,21.85-3.2,32.54-5.86,3.55-.89,7.21-1.84,10.19-4.07-2.93,2.3-6.59,3.34-10.12,4.31-3.56.97-7.12,1.93-10.7,2.82-14.28,3.55-29.56,5.98-43.99,1.75-10.21-2.73-8.48-13.59-.49-18.03,6-3.46,15.47-3.01,22.09-3.8,0,0,11.03-.88,11.03-.88,3.42-.19,7.95-.89,11.39-.26,3.97.67,7.42,2.42,10.75,3.92,10.21,4.7,20.43,9.58,28.67,17.63,0,0-2.84,2.82-2.84,2.82h0Z"/>
    <path class="cls-6" d="m804.09,479c-5.5-9.41-15.33-7.4-24.48-6.97,0,0-13.62.78-13.62.78-9.07.5-18.97.97-26.97-4.27-8.12-5.27-11.74-15.42-11.11-24.8.96-14.6,12.76-26.03,25.72-31.3,26.15-10.75,54.69-.45,81.59-3.71,0,0,.65,5.96.65,5.96-9.41.9-18.71.21-27.79-.68-17.7-1.73-36.14-4.51-53.05,1.9-14.22,5.2-26.75,18.6-24.39,34.56,1.51,11.92,9.86,19.67,21.78,20.86,7.75,1.01,19.24,0,27.16-.06,9.17-.21,19.32-1.85,24.51,7.71h0Z"/>
    <path class="cls-4" d="m957.8,647.98c-2.49-2.65-.79-7.16,1.94-9.56,4.48-3.96,11.4-4.87,16.76-2.22,5.36,2.65,8.82,8.71,8.39,14.67-.53,7.35-6.63,13.53-13.69,15.64s-14.79.7-21.53-2.3c-4.68-2.08-9.14-5.03-11.93-9.33-3.89-6-3.92-13.99-1.12-20.57s8.12-11.84,14.13-15.7c14.86-9.54,34.66-10.84,50.64-3.34,4.65,2.18,9.06,5.13,12.14,9.24,3.58,4.77,5.13,10.78,5.72,16.71,1.69,17.15-4.43,34.92-16.34,47.39-11.9,12.46-29.38,19.4-46.59,18.5-5.45-.29-10.87-1.32-15.99-3.22-6.31-2.33-12.08-5.92-17.44-9.99-22.34-16.97-38.08-44.53-35.15-72.43.95-9,7.97-19.18,7.35-27.75-.71-9.81-7.03-18.79-7.15-29.4-.04-3.38.21-6.85,1.58-9.95,2.49-5.63,8.16-9.03,12.71-13.19,10.18-9.29,15.2-23.2,16.24-36.94s-1.51-27.48-4.44-40.94c-1.68-7.71-3.49-15.55-2.82-23.41.54-6.24,2.63-12.23,4.71-18.14,7.63-21.74,15.26-43.48,22.89-65.22,2.6-7.42,5.22-14.88,6.69-22.6,3.47-18.21.29-37.61-8.82-53.75-3.57-6.32-8.25-12.35-14.76-15.56-9.23-4.54-20.66-2.48-29.43,2.9-8.77,5.38-15.35,13.64-21.34,22-8.56,11.96-16.31,24.5-23.17,37.52-3.86,7.32-7.47,14.87-9.18,22.96-1.9,8.96-1.41,18.23-.91,27.38,1.16,21.22,2.11,44.35,3.27,65.56"/>
    <path class="cls-6" d="m888.95,432.87c-1.96-18.24-17.41-30.68-22.81-47.76-4.7-16.13-4.89-37.43,2.44-52.84,3.89-8.25,10.37-14.96,17.26-20.75,5.3-4.25,10.34-8.83,16.48-11.93,7.24-3.88,16.41-2.8,19.16,5.96,1.42,4.77.68,9.56-.24,14.21,0,0-5.46,26.06-5.46,26.06,0,0-.33,1.6-.33,1.6,0,0-1.7.31-1.7.31-5.2.94-8.67-4.41-10.74-8.1-3.51-5.92-10.04-9.77-16.49-11.96-3.35-1.14-6.86-1.8-10.27-1.91l.2-6c8.24.52,16,3.34,22.69,8.12,3.37,2.41,6.35,5.52,8.38,9.16.91,1.64,1.79,3.19,2.78,4.32.83.9,1.55,1.59,2.68,1.48,0,0-2.03,1.91-2.03,1.91l6.06-25.92c.89-3.95,1.67-8.28.62-12.12-.94-3.57-4.25-5.98-8.05-5.54-4.01.33-7.88,2.54-11.25,4.8-3.52,2.5-7.14,5.22-10.53,7.93-6.81,5.48-13.12,11.71-17.01,19.46-7.42,14.72-7.68,35.58-3.47,51.38,4.92,16.9,20.15,30,21.63,48.12h0Z"/>
    <path class="cls-4" d="m813.5,411.82c2.75-18.74,12.18-50.29,24.39-55.78"/>
    <path class="cls-4" d="m787.24,409.67c2.46-13.02,7.21-24.04,10.66-33.26,4.08-10.92,8.25-22,15.13-31.41,6.88-9.41,13.78-17.96,34.98-17.96"/>
    <path class="cls-4" d="m864.94,347.64c7.23.57,12.45,2.94,16.22,6.27,7.32,6.48,15.18,13.98,15.88,23.73.41,5.68-1.73,11.2-3.84,16.5-1.89,4.76-8.61,13.63-12.42,17.06"/>
    <path class="cls-4" d="m780.1,471.64c5.23,17.47,15.73,39.1,20.96,56.57,2.73,9.13,5.16,16.4,7.84,27.54,1.46,6.04,2.7,11.95,4.47,17.9,3.18,10.71,3.48,22.04,3.49,33.21.01,14.77-.43,29.55-1.32,44.29-.18,2.97.67,4.34,1.82,7.09,1.04,2.47,4.77,11.09,6.38,13.23,8.35,11.07,12.92,15.24,21.24,24.98,17.22,20.15,41.79,33.47,67.75,38.82s53.22,2.97,78.52-4.92c32.81-10.23,64.34-31.88,75.83-64.26,10.61-29.91,1.98-64.35-16.89-89.87-4.46-6.04-9.55-11.75-15.83-15.87-4.78-3.13-10.14-5.27-15.61-6.94-22.8-6.99-47.97-5.99-70.14,2.79-22.17,8.78-42.89,25.19-54.73,45.89"/>
  </g>
  <g id="Ebene_12" data-name="Ebene 12">
    <path class="cls-4" d="m1057.47,587.37c-5.73-13.49-4.03-30.06,6.33-40.42,4.61-4.61,10.34-7.91,16-11.16,21.58-12.39,73.47-38.69,99.94-45.73"/>
  </g>
  <g id="Ebene_13" data-name="Ebene 13">
    <path class="cls-4" d="m941.61,559.29c11.83-10.32,30.33-14.09,45.41-18.49,24.38-7.11,46.4-20.47,67.74-34.22,10.01-6.45,19.98-13.04,30.79-18.02,15.02-6.92,44.11-13.39,80.66-29.75"/>
  </g>
  <g id="Ebene_23" data-name="Ebene 23">
    <path class="cls-2" d="m863.76,435.15c103.69,34.14,155.2,52.29,154.54,54.46-.63,2.05-42.62-21.12-153.37-47.32"/>
    <path class="cls-2" d="m830.88,471.64c136.18,7.36,189.54,18.14,187.42,17.97-29.46-2.37-74.89.13-160.48,6.36"/>
  </g>
  <g id="Ebene_21" data-name="Ebene 21">
    <g>
      <path class="cls-7" d="m1129.66,475.16c-15.05,3.33-30.12,6.95-44.11,13.39-10.81,4.98-20.79,11.57-30.79,18.02-21.34,13.75-43.37,27.12-67.74,34.22-15.07,4.39-33.55,8.16-45.38,18.47,0,0-.02.01-.02.02l-46.5,34.44c-.71-9.81-7.03-18.79-7.15-29.4-.04-3.38.21-6.85,1.58-9.95,2.49-5.63,8.16-9.03,12.71-13.19,10.18-9.29,15.2-23.2,16.24-36.94,1.04-13.74-1.51-27.48-4.44-40.94-1.68-7.71-3.49-15.55-2.82-23.41.54-6.24,2.63-12.23,4.71-18.14,7.63-21.74,15.26-43.48,22.89-65.22,2.6-7.42,5.22-14.88,6.69-22.6,3.47-18.21.29-37.61-8.82-53.75-3.57-6.32-8.25-12.35-14.76-15.56-9.23-4.54-20.66-2.48-29.43,2.9-8.77,5.38-15.35,13.64-21.34,22-8.56,11.96-16.31,24.5-23.17,37.52-21.21,0-28.1,8.55-34.98,17.96-6.88,9.41-11.05,20.49-15.13,31.41-3.44,9.21-8.19,20.23-10.66,33.26l.21.13c-9.17-.38-18.36-.02-27.18,2.38-12.16,3.3-23.7,11.01-28.77,22.54-5.08,11.53-1.99,26.91,8.73,33.52,7.5,4.62,16.9,4.39,25.69,4.01,4.73-.2,9.45-.41,14.18-.61,5.23,17.47,15.73,39.1,20.96,56.57.51,1.7,1.01,3.33,1.5,4.93-.05-.16-.11-.33-.16-.5.06.17.11.34.16.5,2.3,7.43,4.34,15.09,5.95,22.84-1.62-7.75-3.65-15.4-5.95-22.83,2.15,7.03,4.16,13.54,6.35,22.61,1.46,6.04,2.7,11.95,4.47,17.9,3.18,10.71,3.48,22.04,3.49,33.21.01,14.77-.43,29.55-1.32,44.29-.18,2.97.67,4.34,1.82,7.09,1.04,2.47,4.77,11.09,6.38,13.23,8.35,11.07,12.92,15.24,21.24,24.98,17.22,20.15,41.79,33.47,67.75,38.82s53.22,2.97,78.52-4.92c32.81-10.23,64.34-31.88,75.83-64.26,9.13-25.74,4-54.84-9.63-78.72h0c-5.73-13.5-4.03-30.06,6.33-40.43,4.61-4.61,10.34-7.91,16-11.16,21.58-12.39,43.32-24.85,66.86-32.88l6.37-2m-330.37-55.25c-17.4,4.55-35.78,9.11-53.11,4.28-2.71-.76-5.6-1.94-6.89-4.44-.53-1.02-.73-2.19-.7-3.34.12-4.16,3.35-7.72,7.13-9.49s8.04-2.08,12.19-2.36c7.77-.53,15.54-1.07,23.31-1.6,2.17-.15,4.36-.3,6.52-.02,3.49.44,6.73,1.96,9.91,3.46,1.3.62,2.61,1.23,3.91,1.86l9.58,6.18c-3.22,2.15-8.61,4.61-11.87,5.46Zm-9.12-34.09c2.8-18.77,12.19-50.05,24.35-55.52h.02c-.74,7.05-.38,49.34.01,56.46-1.39-.05-23-.87-24.38-.94Zm82.27-105.84c6.02-4.55,14.51-9.15,20.47-4.52,5.14,4,4.23,11.87,2.82,18.23-1.91,8.62-3.82,17.25-5.74,25.87-3.87.61-6.31-3.83-8.26-7.23-5.16-8.99-18.38-14.94-28.75-15.29,5.55-6.52,12.57-11.86,19.45-17.06Zm-15.03,105.48c-4.66-7.8-10.14-15.39-13.24-23.85-2.37-6.47-3.3-13.38-3.64-20.26-.32-6.46-.1-13.07,1.04-19.44,7.23.57,12.45,2.94,16.22,6.27,7.32,6.48,15.18,13.98,15.88,23.73.41,5.68-1.73,11.2-3.84,16.5-1.89,4.76-8.61,13.63-12.42,17.06h0Z"/>
      <path class="cls-7" d="m792.87,513.98s.01.02.02.03c0-.01-.01-.02-.02-.03Z"/>
    </g>
  </g>
</svg>