<?xml version="1.0" encoding="UTF-8"?>
<svg xmlns="http://www.w3.org/2000/svg" viewBox="0 0 432.09 913">
  <defs>
    <style>
      .cls-1 {
        fill: #c9d1d9;
      }

      .cls-2 {
        stroke-width: 1.42px;
      }

      .cls-2, .cls-3, .cls-4 {
        stroke: #c9d1d9;
        stroke-miterlimit: 10;
      }

      .cls-2, .cls-4 {
        fill: none;
      }

      .cls-3 {
        opacity: .6;
        stroke-width: 5.67px;
      }

      .cls-3, .cls-5, .cls-6 {
        fill: #7f7f7f;
      }

      .cls-4 {
        stroke-width: 2.83px;
      }

      .cls-5 {
        opacity: .3;
      }

      .cls-6 {
        opacity: .4;
      }
    </style>
  </defs>
  <g id="Ebene_2" data-name="Ebene 2">
    <path class="cls-5" d="m115.91,485.05c83.33-.32,166.67-.64,250-.96.99-.25,2.65-.51,4.55,0,4.18,1.12,7.89,5.51,7.27,8.68-.51,2.59-3.62,2.87-10,6.75,0,0-2.27,1.38-9.09,6.75-19.17,15.1-8.18,71.39-8.18,71.4,3.18,16.27,30.69,157.18,1.82,238.31-8.86,24.91-28.81,73.16-73.64,88.76-46.99,16.35-101.18-10.87-129.09-47.28-13.07-17.04-18.71-33.93-22.73-46.31-7.44-22.9-9.83-44.95-5.45-110.95,5.62-84.75,4.8-185.1,0-191.03-3.02-3.72-7.66-5.59-8.18-5.79-4.78-1.86-6.44-.36-10-1.93-5.1-2.26-9.37-8.76-8.18-12.54,1.33-4.2,9.82-6.38,20.91-3.86Z"/>
    <path class="cls-6" d="m176.03,483.6v-199.72c-.22-1.54-.39-3.82,0-6.53.43-2.96.79-5.48,2.88-7.83.39-.44,3.76-4.12,8.64-3.92.82.03,2.73.11,4.32,1.31.71.53,1.32,1.26,2.88,5.22.63,1.59,1.1,2.93,1.44,3.92.96,69.18,1.92,138.37,2.88,207.55h-23.05Z"/>
    <path class="cls-6" d="m250.35,483.6V222.5c-.22-2.02-.38-4.99,0-8.53.42-3.86.77-7.17,2.81-10.24.38-.58,3.67-5.38,8.42-5.12.79.04,2.66.15,4.21,1.71.69.7,1.29,1.65,2.81,6.83.61,2.07,1.08,3.83,1.4,5.12.94,90.45,1.87,180.89,2.81,271.34h-22.45Z"/>
    <path class="cls-6" d="m287.81,483.6V192.27c-.22-2.25-.39-5.57,0-9.52.43-4.31.79-7.99,2.87-11.42.39-.64,3.75-6.01,8.62-5.71.81.05,2.73.16,4.31,1.9.71.78,1.32,1.85,2.87,7.62.62,2.31,1.1,4.28,1.44,5.71.96,100.92,1.92,201.84,2.87,302.76h-22.99Z"/>
    <path class="cls-6" d="m324.78,483.6V90.58c-.2-3.03-.36-7.51,0-12.84.39-5.82.72-10.79,2.63-15.41.36-.87,3.43-8.1,7.88-7.71.74.07,2.49.22,3.94,2.57.65,1.05,1.2,2.49,2.63,10.28.57,3.12,1.01,5.77,1.31,7.71.88,136.14,1.75,272.29,2.63,408.43h-21.02Z"/>
    <path class="cls-6" d="m137.04,483.6v-161.24c-.22-1.24-.39-3.08,0-5.27.43-2.39.8-4.42,2.9-6.32.39-.36,3.78-3.32,8.69-3.16.82.03,2.75.09,4.35,1.05.71.43,1.33,1.02,2.9,4.22.63,1.28,1.11,2.37,1.45,3.16.97,55.85,1.93,111.71,2.9,167.56h-23.18Z"/>
    <path class="cls-6" d="m213.04,483.6v-233.61c-.23-1.8-.4-4.47,0-7.63.44-3.46.82-6.41,2.97-9.16.4-.51,3.88-4.82,8.91-4.58.84.04,2.82.13,4.45,1.53.73.62,1.36,1.48,2.97,6.11.65,1.86,1.14,3.43,1.48,4.58.99,80.93,1.98,161.85,2.97,242.78h-23.76Z"/>
  </g>
  <g id="Ebene_3" data-name="Ebene 3">
    <path class="cls-4" d="m115.91,485.05c83.33-.32,166.67-.64,250-.96.99-.25,2.65-.51,4.55,0,4.18,1.12,7.89,5.51,7.27,8.68-.51,2.59-3.62,2.87-10,6.75,0,0-2.27,1.38-9.09,6.75-19.17,15.1-8.18,71.39-8.18,71.4,3.18,16.27,30.69,157.18,1.82,238.31-8.86,24.91-28.81,73.16-73.64,88.76-46.99,16.35-101.18-10.87-129.09-47.28-13.07-17.04-18.71-33.93-22.73-46.31-7.44-22.9-9.83-44.95-5.45-110.95,5.62-84.75,4.8-185.1,0-191.03-3.02-3.72-7.66-5.59-8.18-5.79-4.78-1.86-6.44-.36-10-1.93-5.1-2.26-9.37-8.76-8.18-12.54,1.33-4.2,9.82-6.38,20.91-3.86Z"/>
    <path class="cls-2" d="m176.03,483.6v-199.72c-.22-1.54-.39-3.82,0-6.53.43-2.96.79-5.48,2.88-7.83.39-.44,3.76-4.12,8.64-3.92.82.03,2.73.11,4.32,1.31.71.53,1.32,1.26,2.88,5.22.63,1.59,1.1,2.93,1.44,3.92.96,69.18,1.92,138.37,2.88,207.55h-23.05Z"/>
    <path class="cls-2" d="m250.35,483.6V222.5c-.22-2.02-.38-4.99,0-8.53.42-3.86.77-7.17,2.81-10.24.38-.58,3.67-5.38,8.42-5.12.79.04,2.66.15,4.21,1.71.69.7,1.29,1.65,2.81,6.83.61,2.07,1.08,3.83,1.4,5.12.94,90.45,1.87,180.89,2.81,271.34h-22.45Z"/>
    <path class="cls-2" d="m287.81,483.6V192.27c-.22-2.25-.39-5.57,0-9.52.43-4.31.79-7.99,2.87-11.42.39-.64,3.75-6.01,8.62-5.71.81.05,2.73.16,4.31,1.9.71.78,1.32,1.85,2.87,7.62.62,2.31,1.1,4.28,1.44,5.71.96,100.92,1.92,201.84,2.87,302.76h-22.99Z"/>
    <path class="cls-2" d="m324.78,483.6V90.58c-.2-3.03-.36-7.51,0-12.84.39-5.82.72-10.79,2.63-15.41.36-.87,3.43-8.1,7.88-7.71.74.07,2.49.22,3.94,2.57.65,1.05,1.2,2.49,2.63,10.28.57,3.12,1.01,5.77,1.31,7.71.88,136.14,1.75,272.29,2.63,408.43h-21.02Z"/>
    <path class="cls-2" d="m137.04,483.6v-161.24c-.22-1.24-.39-3.08,0-5.27.43-2.39.8-4.42,2.9-6.32.39-.36,3.78-3.32,8.69-3.16.82.03,2.75.09,4.35,1.05.71.43,1.33,1.02,2.9,4.22.63,1.28,1.11,2.37,1.45,3.16.97,55.85,1.93,111.71,2.9,167.56h-23.18Z"/>
    <path class="cls-2" d="m213.04,483.6v-233.61c-.23-1.8-.4-4.47,0-7.63.44-3.46.82-6.41,2.97-9.16.4-.51,3.88-4.82,8.91-4.58.84.04,2.82.13,4.45,1.53.73.62,1.36,1.48,2.97,6.11.65,1.86,1.14,3.43,1.48,4.58.99,80.93,1.98,161.85,2.97,242.78h-23.76Z"/>
    <g>
      <path class="cls-1" d="m14.89,162.11c-2.59,0-4.86-.43-6.79-1.3s-3.49-2.12-4.68-3.77-1.98-3.64-2.37-5.96l5.02-1.03c.11,2.77.91,4.89,2.41,6.38s3.59,2.23,6.28,2.23c1.62,0,3-.27,4.14-.8s2-1.28,2.6-2.25.9-2.11.9-3.42c0-1.75-.5-3.05-1.51-3.9s-2.39-1.47-4.14-1.86l-4.41-.98c-.81-.19-1.75-.45-2.82-.77s-2.11-.81-3.11-1.45-1.83-1.51-2.5-2.6-1-2.49-1-4.2c0-2.17.56-3.93,1.68-5.27s2.57-2.33,4.36-2.95,3.69-.94,5.71-.94c2.33,0,4.32.37,5.99,1.11s3.01,1.79,4.03,3.15,1.71,2.98,2.07,4.88l-4.95,1.03c-.12-1.44-.48-2.65-1.05-3.64s-1.39-1.75-2.44-2.27-2.35-.79-3.91-.79c-1.27,0-2.45.19-3.55.56s-2,.96-2.68,1.76-1.03,1.84-1.03,3.12.46,2.42,1.39,3.22,2.48,1.46,4.65,1.96l4.45,1.03c1.58.36,3.07.9,4.48,1.62s2.55,1.72,3.42,3.01,1.31,2.99,1.31,5.1-.48,3.91-1.44,5.41-2.34,2.64-4.12,3.43-3.93,1.18-6.41,1.18Z"/>
      <path class="cls-1" d="m38.21,161.55c-1,0-1.88-.33-2.62-1s-1.12-1.5-1.12-2.52v-18.52h-4.08v-3.28h4.08v-5.3l3.94-.84v6.14h5.02v3.28h-5.02v17.46c0,.52.07.86.22,1.03s.46.26.95.26h3.87v3.28h-5.23Z"/>
      <path class="cls-1" d="m58.42,162.11c-2.41,0-4.49-.54-6.25-1.62s-3.11-2.61-4.07-4.58-1.43-4.31-1.43-7,.48-5.05,1.43-7.03,2.3-3.52,4.03-4.59,3.77-1.62,6.12-1.62c1.34,0,2.69.21,4.04.64s2.59,1.17,3.7,2.23,2.02,2.5,2.7,4.34,1.02,4.15,1.02,6.95h-20.51v-3.19h17.09l-1.12,1.48c-.08-2.22-.44-4-1.08-5.34s-1.47-2.32-2.5-2.92-2.16-.9-3.41-.9c-1.48,0-2.77.39-3.84,1.16s-1.91,1.9-2.48,3.39-.87,3.3-.87,5.44c0,3.16.64,5.59,1.93,7.31s3.12,2.58,5.5,2.58c1.7,0,3.14-.43,4.3-1.29s2.02-2.1,2.57-3.73l3.87,1.31c-.61,1.47-1.42,2.72-2.44,3.76s-2.22,1.84-3.62,2.39-2.96.83-4.68.83Z"/>
      <path class="cls-1" d="m75.67,161.55v-25.31h3.7v5.37l-.14-.61c.75-1.75,1.88-3.07,3.39-3.97s3.04-1.35,4.58-1.35c.45,0,.89.04,1.32.12s.83.21,1.21.4l-.52,3.7c-.86-.27-1.71-.4-2.55-.4-.53,0-1.19.11-1.98.32s-1.57.63-2.34,1.27-1.42,1.57-1.95,2.82-.79,2.91-.79,4.99v12.66h-3.94Z"/>
      <path class="cls-1" d="m103.79,162.11c-2.41,0-4.49-.54-6.25-1.62s-3.11-2.61-4.07-4.58-1.43-4.31-1.43-7,.48-5.05,1.43-7.03,2.3-3.52,4.03-4.59,3.77-1.62,6.12-1.62c1.34,0,2.69.21,4.04.64s2.59,1.17,3.7,2.23,2.02,2.5,2.7,4.34,1.02,4.15,1.02,6.95h-20.51v-3.19h17.09l-1.12,1.48c-.08-2.22-.44-4-1.08-5.34s-1.47-2.32-2.5-2.92-2.16-.9-3.41-.9c-1.48,0-2.77.39-3.84,1.16s-1.91,1.9-2.48,3.39-.87,3.3-.87,5.44c0,3.16.64,5.59,1.93,7.31s3.12,2.58,5.5,2.58c1.7,0,3.14-.43,4.3-1.29s2.02-2.1,2.57-3.73l3.87,1.31c-.61,1.47-1.42,2.72-2.44,3.76s-2.22,1.84-3.62,2.39-2.96.83-4.68.83Z"/>
      <path class="cls-1" d="m132.17,162.11c-2.38,0-4.47-.56-6.28-1.68s-3.23-2.67-4.24-4.65-1.52-4.28-1.52-6.89.51-4.91,1.52-6.89,2.43-3.54,4.24-4.65,3.91-1.68,6.28-1.68,4.47.56,6.28,1.68,3.23,2.67,4.24,4.65,1.52,4.28,1.52,6.89-.51,4.91-1.52,6.89-2.43,3.54-4.24,4.65-3.91,1.68-6.28,1.68Zm0-3.28c2.39,0,4.28-.89,5.66-2.67s2.07-4.2,2.07-7.27-.69-5.5-2.07-7.28-3.27-2.66-5.66-2.66-4.28.89-5.66,2.66-2.07,4.2-2.07,7.28.69,5.48,2.07,7.27,3.27,2.67,5.66,2.67Z"/>
      <path class="cls-1" d="m161.33,162.11c-2.38,0-4.43-.54-6.16-1.62s-3.07-2.61-4.01-4.58-1.41-4.32-1.41-7.02.47-5.04,1.41-7.02,2.27-3.5,4.01-4.58,3.79-1.62,6.16-1.62c1.81,0,3.43.33,4.86,1s2.64,1.62,3.63,2.86,1.72,2.74,2.19,4.49l-4.01,1.05c-.44-1.97-1.22-3.48-2.36-4.54s-2.57-1.58-4.32-1.58c-2.33,0-4.12.86-5.38,2.59s-1.89,4.18-1.89,7.35.63,5.64,1.89,7.36,3.05,2.58,5.38,2.58c1.73,0,3.16-.51,4.29-1.54s1.91-2.5,2.37-4.44l3.98,1.12c-.38,1.28-.89,2.42-1.55,3.42s-1.43,1.85-2.33,2.55-1.91,1.24-3.05,1.61-2.37.55-3.71.55Z"/>
      <path class="cls-1" d="m179.68,131.99c-.91,0-1.68-.32-2.32-.96s-.96-1.41-.96-2.32.32-1.7.96-2.33,1.41-.95,2.32-.95,1.7.32,2.33.95.95,1.41.95,2.33-.32,1.68-.95,2.32-1.41.96-2.33.96Zm-1.97,29.55v-25.31h3.94v25.31h-3.94Z"/>
      <path class="cls-1" d="m193.02,161.55c-1,0-1.88-.33-2.62-1s-1.12-1.5-1.12-2.52v-31.64h3.94v30.59c0,.52.07.86.22,1.03s.46.26.95.26h2.46v3.28h-3.82Z"/>
      <path class="cls-1" d="m204.03,131.99c-.91,0-1.68-.32-2.32-.96s-.96-1.41-.96-2.32.32-1.7.96-2.33,1.41-.95,2.32-.95,1.7.32,2.33.95.95,1.41.95,2.33-.32,1.68-.95,2.32-1.41.96-2.33.96Zm-1.97,29.55v-25.31h3.94v25.31h-3.94Z"/>
      <path class="cls-1" d="m220.16,162.11c-1.69,0-3.15-.32-4.39-.97s-2.2-1.54-2.87-2.66-1.01-2.4-1.01-3.82c0-1.52.45-2.91,1.34-4.2s2.27-2.31,4.14-3.08,4.26-1.16,7.18-1.16h4.22l-.42.42v-1.38c0-2.03-.41-3.59-1.22-4.68s-2.17-1.63-4.08-1.63c-1.8,0-3.18.46-4.15,1.39s-1.48,2.18-1.55,3.74l-4.43-1.01c.14-1.36.66-2.6,1.56-3.71s2.1-2.01,3.61-2.68,3.25-1.01,5.24-1.01,3.71.39,5,1.16,2.24,1.89,2.85,3.34.91,3.2.91,5.25v11.55c0,.52.07.86.22,1.03s.46.26.95.26h1.43v3.28h-2.51c-1.06,0-1.95-.33-2.67-1s-1.08-1.5-1.08-2.52v-1.78h.59c-.25.66-.61,1.32-1.08,2s-1.06,1.31-1.78,1.9-1.57,1.06-2.57,1.42-2.14.54-3.43.54Zm.89-3.28c1.3,0,2.5-.32,3.61-.96s2-1.64,2.68-3.01,1.02-3.14,1.02-5.33v-.21h-3.96c-2.08,0-3.71.27-4.91.82s-2.04,1.22-2.54,2.03-.75,1.61-.75,2.4.18,1.52.54,2.16.9,1.15,1.62,1.54,1.62.57,2.7.57Z"/>
    </g>
    <g>
      <path class="cls-1" d="m202.83,38.58V4.83h4.22v15.66l16.43-15.66h5.74l-12.94,12.35,13.22,21.4h-5.11l-11.34-18.3-6,5.72v12.59h-4.22Z"/>
      <path class="cls-1" d="m236.46,9.03c-.91,0-1.68-.32-2.32-.96s-.96-1.41-.96-2.32.32-1.7.96-2.33,1.41-.95,2.32-.95,1.7.32,2.33.95.95,1.41.95,2.33-.32,1.68-.95,2.32-1.41.96-2.33.96Zm-1.97,29.55V13.27h3.94v25.31h-3.94Z"/>
      <path class="cls-1" d="m246.1,38.58V13.27h3.7v5.72l-.16-1.03c.67-1.45,1.73-2.69,3.19-3.71s3.22-1.54,5.3-1.54c1.8,0,3.34.4,4.64,1.2s2.3,1.93,3,3.41,1.05,3.25,1.05,5.33v15.94h-3.94v-15.63c0-2.08-.43-3.76-1.28-5.04s-2.25-1.92-4.21-1.92c-2.11,0-3.86.8-5.26,2.4s-2.1,3.92-2.1,6.95v13.24h-3.94Z"/>
      <path class="cls-1" d="m284.49,39.15c-2.38,0-4.47-.56-6.28-1.68s-3.23-2.67-4.24-4.65-1.52-4.28-1.52-6.89.51-4.91,1.52-6.89,2.43-3.54,4.24-4.65,3.91-1.68,6.28-1.68,4.47.56,6.28,1.68,3.23,2.67,4.24,4.65,1.52,4.28,1.52,6.89-.51,4.91-1.52,6.89-2.43,3.54-4.24,4.65-3.91,1.68-6.28,1.68Zm0-3.28c2.39,0,4.28-.89,5.66-2.67s2.07-4.2,2.07-7.27-.69-5.5-2.07-7.28-3.27-2.66-5.66-2.66-4.28.89-5.66,2.66-2.07,4.2-2.07,7.28.69,5.48,2.07,7.27,3.27,2.67,5.66,2.67Z"/>
      <path class="cls-1" d="m313.64,39.15c-2.38,0-4.43-.54-6.16-1.62s-3.07-2.61-4.01-4.58-1.41-4.32-1.41-7.02.47-5.04,1.41-7.02,2.27-3.5,4.01-4.58,3.79-1.62,6.16-1.62c1.81,0,3.43.33,4.86,1s2.64,1.62,3.63,2.86,1.72,2.74,2.19,4.49l-4.01,1.05c-.44-1.97-1.22-3.48-2.36-4.54s-2.57-1.58-4.32-1.58c-2.33,0-4.12.86-5.38,2.59s-1.89,4.18-1.89,7.35.63,5.64,1.89,7.36,3.05,2.58,5.38,2.58c1.73,0,3.16-.51,4.29-1.54s1.91-2.5,2.37-4.44l3.98,1.12c-.38,1.28-.89,2.42-1.55,3.42s-1.43,1.85-2.33,2.55-1.91,1.24-3.05,1.61-2.37.55-3.71.55Z"/>
      <path class="cls-1" d="m331.99,9.03c-.91,0-1.68-.32-2.32-.96s-.96-1.41-.96-2.32.32-1.7.96-2.33,1.41-.95,2.32-.95,1.7.32,2.33.95.95,1.41.95,2.33-.32,1.68-.95,2.32-1.41.96-2.33.96Zm-1.97,29.55V13.27h3.94v25.31h-3.94Z"/>
      <path class="cls-1" d="m345.33,38.58c-1,0-1.88-.33-2.62-1s-1.12-1.5-1.12-2.52V3.43h3.94v30.59c0,.52.07.86.22,1.03s.46.26.95.26h2.46v3.28h-3.82Z"/>
      <path class="cls-1" d="m356.35,9.03c-.91,0-1.68-.32-2.32-.96s-.96-1.41-.96-2.32.32-1.7.96-2.33,1.41-.95,2.32-.95,1.7.32,2.33.95.95,1.41.95,2.33-.32,1.68-.95,2.32-1.41.96-2.33.96Zm-1.97,29.55V13.27h3.94v25.31h-3.94Z"/>
      <path class="cls-1" d="m374.16,39.15c-1.77,0-3.3-.4-4.59-1.2s-2.3-1.94-3-3.42-1.05-3.26-1.05-5.32v-15.94h3.94v15.63c0,2.06.39,3.74,1.17,5.03s2.19,1.93,4.22,1.93c1.52,0,2.83-.39,3.94-1.17s1.97-1.95,2.59-3.52.93-3.52.93-5.86v-12.05h3.94v25.31h-3.7v-5.95l.16,1.03c-.66,1.56-1.71,2.87-3.18,3.91s-3.25,1.57-5.36,1.57Z"/>
      <path class="cls-1" d="m393.87,38.58V13.27h3.7v4.34c.59-1.31,1.58-2.46,2.95-3.43s3.01-1.46,4.9-1.46c1.67,0,3.13.46,4.37,1.37s2.17,2.21,2.78,3.88c.8-1.55,1.89-2.81,3.27-3.79s3-1.46,4.84-1.46c2.42,0,4.34.88,5.75,2.64s2.12,4.19,2.12,7.3v15.94h-3.94v-15.63c0-1.44-.15-2.68-.45-3.71s-.79-1.84-1.46-2.4-1.61-.84-2.78-.84c-1.28,0-2.43.36-3.46,1.09s-1.83,1.79-2.41,3.18-.88,3.09-.88,5.09v13.24h-3.94v-15.63c0-1.44-.15-2.68-.45-3.71s-.78-1.84-1.45-2.4-1.59-.84-2.74-.84c-1.28,0-2.44.36-3.47,1.08s-1.84,1.77-2.44,3.16-.89,3.09-.89,5.11v13.24h-3.94Z"/>
    </g>
    <line class="cls-4" x1="285.8" y1="54.6" x2="317.8" y2="93.6"/>
    <line class="cls-4" x1="277.8" y1="176.6" x2="212.8" y2="170.6"/>
    <line class="cls-4" x1="150.3" y1="281.1" x2="213.3" y2="170.1"/>
    <line class="cls-4" x1="190.3" y1="254.1" x2="213.3" y2="170.1"/>
    <line class="cls-4" x1="225.3" y1="219.1" x2="213.3" y2="170.1"/>
    <line class="cls-4" x1="258.3" y1="195.1" x2="213.3" y2="170.1"/>
  </g>
  <g id="Ebene_4" data-name="Ebene 4">
    <path class="cls-3" d="m165.8,773.6c-3.42-14.57-5.63-24.67,0-34,8.31-13.78,27.1-14.91,29-15,20.3-.93,35.12,14.58,47,27,5.47,5.72,17.93,19.97,25,42,4.62,14.42,8.15,25.39,3,37-5.63,12.69-19.29,20.9-32,22-22.25,1.93-38.67-18.15-50-32-15.07-18.43-19.51-36.41-22-47Z"/>
  </g>
</svg>