<?xml version="1.0" encoding="UTF-8"?>
<svg id="Ebene_1" data-name="Ebene 1" xmlns="http://www.w3.org/2000/svg" width="847.69" height="941.54" viewBox="0 0 847.69 941.54">
  <g id="Ebene_3" data-name="Ebene 3">
    <path d="m220.67,619.3c14.75-2.82,25.1-16.2,24.2-30.74-.95-15.27-14.04-27.61-29.83-27.56,5.14,20.24,6.62,36.04,5.64,58.31l-.01-.01Z" fill="#7f7f7f" stroke="#c9d1d9" stroke-miterlimit="10" stroke-width="3"/>
  </g>
  <g id="Ebene_2" data-name="Ebene 2">
    <path d="m12.11,408.99c10.86-47.68,25.6-94.47,43.98-139.78,12.36-30.1,25.27-60.86,46.66-85.85,43.23-50.36,115.86-69.89,179.77-55.79,48.37,10.41,92.05,37.91,125.64,73.81,49.36,52.75,75.95,122.88,87.32,193.32,4.18,26.23,6.31,52.79,7.54,79.29,1.78,40.57,4.11,83.49-13.95,121.18-10.32,22.36-24.91,42.43-38.58,62.68l-55.12,80.72c-9.65,13.96-60.28,88.25-68.98,100.85-4.61,6.72-9.3,13.45-14.6,19.76-16.64,20.61-38.65,31.19-65.42,27.87-42.77-4.96-72.75-38.28-90.74-75.07-7.35-14.57-13.47-29.69-19.5-44.82,6.27,15.03,12.62,30.06,20.17,44.47,18.21,36.09,48.07,68.87,90.31,73.26,25.86,2.88,47.03-7.39,63.01-27.52,5.14-6.21,9.74-12.9,14.29-19.64,8.04-12.37,58.93-87.15,68.26-101.33l54.67-81.02c13.56-20.24,27.84-40,37.98-62.15,17.52-37.07,15.05-79.03,13.29-119.02-1.26-26.36-3.4-52.68-7.58-78.73-11.21-69.54-37.32-138.77-85.85-190.88-66.67-73.17-174.76-104.21-262.98-50.52-44.16,26.32-64.9,70.16-83.91,115.83-18.88,45.05-34.07,91.63-45.71,139.07h0l.03.01Z" fill="#c9d1d9"/>
    <path d="m129.53,449.58c-7.35,10.93-6.55,25.25-1.93,37.04,4.72,12.07,12.99,22.18,20.65,32.55,15.67,20.75,28.92,45.73,27.73,72.51-.98,26.33-11.08,50.79-12.06,76.99-1.32,25.83,3.16,51.86,12.98,75.85-2.07-4.41-4.1-8.87-5.75-13.46-12.54-33.44-13.05-66.87-4.99-101.37,5.9-26.55,9.89-49.49-1.27-75.31-4.9-11.89-11.75-22.88-19.17-33.39-3.73-5.3-7.62-10.54-11.13-16.08-3.5-5.54-6.67-11.37-8.84-17.62-4.15-12.26-4.45-27.07,3.76-37.71h.02Z" fill="#c9d1d9"/>
    <path d="m131.89,364.54c53.18-22.59,112.42-30.83,169.77-23.74,28.19,3.95,60.26,8.69,79.4,32.05,17.48,22,19.53,57.27,17.07,84.34-4.52,44.88-25.89,85.73-66.15,108.05-47.04,26.25-67.25,37.94-71.6,95.64-2.36,28.6-1.53,60.57-19.08,85.06-1.01.8-2.1,1.78-3.47,2.27-2.87.99-5,.71-7.69.69-3.64-.09-7.42-.55-10.74-2.18-19.25-9.64-21.74-38.24-18.53-57.04,2.85-18.03,9.49-35.02,14.13-52.48,9.88-34.36,4.69-72.52-14.09-102.97-6.93-11.47-16.83-21.49-22.51-33.93-6.71-13.87-3.44-28.89,10.77-36.25,8.19-4.28,17.41-5.68,26.46-6.53,17.11-1.32,63.34-4.66,81.05-5.94-17.88,1.65-63.62,5.86-80.9,7.42-4.47.47-8.91,1.12-13.25,2.16-19.77,4.27-31.25,18.27-21.81,38.08,5.77,12.24,15.61,21.96,22.69,33.44,14.58,23.25,21.62,51.07,19.94,78.49-.98,18.27-6.91,35.78-11.97,53.13-6.14,20.81-11.56,44.04-2.28,64.62,3.55,7.98,10.46,15.2,19.59,15.18,2.26.15,5.44.29,7.44-.33.55-.19,1.25-.76,2.12-1.49l-.44.49c20.61-30.63,13.72-69.29,20.41-103.99,3.99-22.84,14.97-41.86,34.08-55.28,33.4-23.19,59.51-27.83,82.3-66.31,17.94-30.79,23.37-67.97,18.53-103.05-2-13.87-6.11-27.89-14.86-39.05-13.36-17-35.22-23.84-55.7-28-63.46-12.75-130.51-6.62-190.65,17.46h0l-.03-.01Z" fill="#c9d1d9"/>
    <path d="m288.99,417.01c-49.83,5.77-105.14,11.42-149.83-16.15-41.66-25.75-64.27-80.47-48.41-127.59,6.83-21.34,19.19-40.38,33.24-57.62,13.92-17.47,32.72-31.61,54.36-37.86,16.02-5.05,32.61-7.13,49.19-8.86,11.06-1.1,22.16-2.37,33.34-1.82,16.96.46,33.02,7.84,47.56,15.68,9.77,5.17,19.56,10.41,28.95,16.41,19.44,11.86,34.66,28.18,46.22,47.68,53.04,86.35,89.73,189.8,72.26,292-4.73,30.53-15.96,59.19-38.55,80.95,23.7-24.07,33.27-52.49,37.82-85.26,11.31-78.19-9.03-157.54-42.85-227.88-9.55-19.84-20.17-39.18-31.77-57.88-5.83-9.29-12.12-18.3-19.66-26.11-15.27-15.78-34.93-26.28-54.25-36.45-9.74-5.11-19.57-10-30.01-12.77-15.73-4.26-32.55-2.3-48.69-.72-16.32,1.66-32.82,3.68-48.47,8.58-21.16,6.1-39.04,19.52-52.75,36.57-17.21,20.98-32.07,45.13-36.71,72.2-7.62,46.19,19.17,94.71,61,115.01,42.76,20.93,92.05,16.3,137.98,11.89h.03Z" fill="#c9d1d9"/>
    <path d="m291.75,195.97c-1.54,2.41.19,5.09,1.34,7.3,1.28,2.33,2.57,4.65,3.96,6.91,8.19,13.62,18.56,25.72,29.78,36.94,14.8,14.87,31.43,29.29,45.9,44.49-16.93-13.1-33.52-26.61-48.74-41.68-11.34-11.46-21.63-24.23-28.66-38.82-1.16-2.43-2.26-4.88-3.24-7.38-.91-2.34-2.3-5.57-.34-7.76h0Z" fill="#c9d1d9"/>
    <path d="m262.21,214.82c-1.11,11.32,3.38,22.13,8.77,31.82,4.75,8.45,12.01,20.58,17.02,29.07,2.37,4.41,5.9,8.55,6.47,13.74.7,7.44-6.42,12.38-12.65,14.42-5.47,1.92-11.18,2.33-16.85,3.11-5.61.65-11.23,1.14-16.86,1.53-33.45,2.21-67.71.75-99.9,11.35-10.67,3.36-20.84,8.29-30.13,14.61,8.92-6.89,19.06-12.15,29.65-16,32.03-11.59,66.79-10.77,100.18-12.95,5.59-.36,11.17-.82,16.72-1.44,5.43-.72,11.07-1.13,16.26-2.88,4.72-1.64,10.02-4.4,10.92-9.71.63-5.23-3.58-10.03-5.81-14.62-4.86-8.69-11.75-20.83-16.32-29.54-5.01-9.98-9.25-21.17-7.47-32.5h0v-.01Z" fill="#c9d1d9"/>
    <path d="m220.67,619.3c14.75-2.82,25.1-16.2,24.2-30.74-.95-15.27-14.04-27.61-29.83-27.56" fill="none" stroke="#c9d1d9" stroke-miterlimit="10" stroke-width="4"/>
    <line x1="250.79" y1="815.01" x2="388.19" y2="886.48" fill="none" stroke="#c9d1d9" stroke-miterlimit="10" stroke-width="3"/>
    <line x1="530.58" y1="679.72" x2="229.98" y2="590.15" fill="none" stroke="#c9d1d9" stroke-miterlimit="10" stroke-width="3"/>
    <line x1="389.31" y1="66.63" x2="298.09" y2="155.04" fill="none" stroke="#c9d1d9" stroke-miterlimit="10" stroke-width="3"/>
  </g>
  <g isolation="isolate">
    <g isolation="isolate">
      <path d="m413.564,917.761h16.172v3.68h-20.695v-34.125h4.523v30.445Z" fill="#c9d1d9"/>
      <path d="m433.041,908.526c0-2.484.488-4.719,1.465-6.703s2.336-3.516,4.078-4.594,3.73-1.617,5.965-1.617c3.453,0,6.246,1.195,8.379,3.586s3.199,5.57,3.199,9.539v.305c0,2.469-.473,4.684-1.418,6.645s-2.297,3.488-4.055,4.582-3.777,1.641-6.059,1.641c-3.438,0-6.223-1.195-8.355-3.586s-3.199-5.555-3.199-9.492v-.305Zm4.359.516c0,2.812.652,5.07,1.957,6.773s3.051,2.555,5.238,2.555c2.203,0,3.953-.863,5.25-2.59s1.945-4.145,1.945-7.254c0-2.781-.66-5.035-1.98-6.762s-3.074-2.59-5.262-2.59c-2.141,0-3.867.852-5.18,2.555s-1.969,4.141-1.969,7.312Z" fill="#c9d1d9"/>
      <path d="m483.033,909.042c0,3.875-.891,6.988-2.672,9.34s-4.172,3.527-7.172,3.527c-3.203,0-5.68-1.133-7.43-3.398l-.211,2.93h-3.984v-36h4.336v13.43c1.75-2.172,4.164-3.258,7.242-3.258s5.496,1.164,7.254,3.492,2.637,5.516,2.637,9.562v.375Zm-4.336-.492c0-2.953-.57-5.234-1.711-6.844s-2.781-2.414-4.922-2.414c-2.859,0-4.914,1.328-6.164,3.984v10.969c1.328,2.656,3.398,3.984,6.211,3.984,2.078,0,3.695-.805,4.852-2.414s1.734-4.031,1.734-7.266Z" fill="#c9d1d9"/>
      <path d="m504.15,918.933c-1.688,1.984-4.164,2.977-7.43,2.977-2.703,0-4.762-.785-6.176-2.355s-2.129-3.895-2.145-6.973v-16.5h4.336v16.383c0,3.844,1.562,5.766,4.688,5.766,3.312,0,5.516-1.234,6.609-3.703v-18.445h4.336v25.359h-4.125l-.094-2.508Z" fill="#c9d1d9"/>
      <path d="m519.666,921.44h-4.336v-36h4.336v36Z" fill="#c9d1d9"/>
      <path d="m537.127,921.909c-3.438,0-6.234-1.129-8.391-3.387s-3.234-5.277-3.234-9.059v-.797c0-2.516.48-4.762,1.441-6.738s2.305-3.523,4.031-4.641,3.598-1.676,5.613-1.676c3.297,0,5.859,1.086,7.688,3.258s2.742,5.281,2.742,9.328v1.805h-17.18c.062,2.5.793,4.52,2.191,6.059s3.176,2.309,5.332,2.309c1.531,0,2.828-.312,3.891-.938s1.992-1.453,2.789-2.484l2.648,2.062c-2.125,3.266-5.312,4.898-9.562,4.898Zm-.539-22.734c-1.75,0-3.219.637-4.406,1.91s-1.922,3.059-2.203,5.355h12.703v-.328c-.125-2.203-.719-3.91-1.781-5.121s-2.5-1.816-4.312-1.816Z" fill="#c9d1d9"/>
    </g>
  </g>
  <g isolation="isolate">
    <g isolation="isolate">
      <path d="m389.228,54.47h-4.523v-15.773h-17.203v15.773h-4.5V20.345h4.5v14.672h17.203v-14.672h4.523v34.125Z" fill="#c9d1d9"/>
      <path d="m407.063,54.938c-3.438,0-6.234-1.129-8.391-3.387s-3.234-5.277-3.234-9.059v-.797c0-2.516.48-4.762,1.441-6.738s2.305-3.523,4.031-4.641,3.598-1.676,5.613-1.676c3.297,0,5.859,1.086,7.688,3.258s2.742,5.281,2.742,9.328v1.805h-17.18c.062,2.5.793,4.52,2.191,6.059s3.176,2.309,5.332,2.309c1.531,0,2.828-.312,3.891-.938s1.992-1.453,2.789-2.484l2.648,2.062c-2.125,3.266-5.312,4.898-9.562,4.898Zm-.539-22.734c-1.75,0-3.219.637-4.406,1.91s-1.922,3.059-2.203,5.355h12.703v-.328c-.125-2.203-.719-3.91-1.781-5.121s-2.5-1.816-4.312-1.816Z" fill="#c9d1d9"/>
      <path d="m426.681,54.47h-4.336V18.47h4.336v36Z" fill="#c9d1d9"/>
      <path d="m433.642,22.384c0-.703.215-1.297.645-1.781s1.066-.727,1.91-.727,1.484.242,1.922.727.656,1.078.656,1.781-.219,1.289-.656,1.758-1.078.703-1.922.703-1.48-.234-1.91-.703-.645-1.055-.645-1.758Zm4.688,32.086h-4.336v-25.359h4.336v25.359Z" fill="#c9d1d9"/>
      <path d="m453.774,38.368l5.625-9.258h5.062l-8.297,12.539,8.555,12.82h-5.016l-5.859-9.492-5.859,9.492h-5.039l8.555-12.82-8.297-12.539h5.016l5.555,9.258Z" fill="#c9d1d9"/>
    </g>
  </g>
  <g>
    <path d="m510.56,708.53h-14.79v12.09h17.18v3.68h-21.68v-34.12h21.45v3.68h-16.95v10.99h14.79v3.68h0Z" fill="#c9d1d9"/>
    <path d="m526.38,708.21l5.62-9.26h5.06l-8.3,12.54,8.55,12.82h-5.02l-5.86-9.49-5.86,9.49h-5.04l8.55-12.82-8.3-12.54h5.02l5.55,9.26h.03Z" fill="#c9d1d9"/>
    <path d="m547.55,692.81v6.14h4.73v3.35h-4.73v15.75c0,1.02.21,1.78.63,2.29.42.51,1.14.76,2.16.76.5,0,1.19-.09,2.06-.28v3.5c-1.14.31-2.25.47-3.33.47-1.94,0-3.4-.59-4.38-1.76s-1.48-2.84-1.48-4.99v-15.73h-4.62v-3.35h4.62v-6.14h4.34v-.01Z" fill="#c9d1d9"/>
    <path d="m567.87,724.78c-3.44,0-6.23-1.13-8.39-3.39s-3.23-5.28-3.23-9.06v-.8c0-2.52.48-4.76,1.44-6.74s2.3-3.52,4.03-4.64,3.6-1.68,5.61-1.68c3.3,0,5.86,1.09,7.69,3.26s2.74,5.28,2.74,9.33v1.8h-17.18c.06,2.5.79,4.52,2.19,6.06s3.18,2.31,5.33,2.31c1.53,0,2.83-.31,3.89-.94s1.99-1.45,2.79-2.48l2.65,2.06c-2.12,3.27-5.31,4.9-9.56,4.9v.01Zm-.54-22.73c-1.75,0-3.22.64-4.41,1.91s-1.92,3.06-2.2,5.36h12.7v-.33c-.12-2.2-.72-3.91-1.78-5.12s-2.5-1.82-4.31-1.82h0Z" fill="#c9d1d9"/>
    <path d="m595.03,702.84c-.66-.11-1.37-.16-2.13-.16-2.84,0-4.77,1.21-5.79,3.63v18h-4.34v-25.36h4.22l.07,2.93c1.42-2.27,3.44-3.4,6.05-3.4.84,0,1.48.11,1.92.33v4.03h0Z" fill="#c9d1d9"/>
    <path d="m603.12,698.95l.14,3.19c1.94-2.44,4.47-3.66,7.59-3.66,5.36,0,8.06,3.02,8.11,9.07v16.76h-4.34v-16.78c-.02-1.83-.43-3.18-1.25-4.05s-2.1-1.31-3.83-1.31c-1.41,0-2.64.38-3.7,1.12s-1.89,1.73-2.48,2.95v18.07h-4.34v-25.36h4.1Z" fill="#c9d1d9"/>
    <path d="m641.16,724.31c-.25-.5-.45-1.39-.61-2.67-2.02,2.09-4.42,3.14-7.22,3.14-2.5,0-4.55-.71-6.15-2.12s-2.4-3.21-2.4-5.38c0-2.64,1-4.69,3.01-6.15s4.83-2.19,8.47-2.19h4.22v-1.99c0-1.52-.45-2.72-1.36-3.62s-2.24-1.35-4.01-1.35c-1.55,0-2.84.39-3.89,1.17s-1.57,1.73-1.57,2.84h-4.36c0-1.27.45-2.49,1.35-3.67s2.12-2.11,3.66-2.8,3.23-1.03,5.07-1.03c2.92,0,5.21.73,6.87,2.19s2.52,3.47,2.58,6.04v11.67c0,2.33.3,4.18.89,5.55v.38h-4.55v-.01Zm-7.2-3.3c1.36,0,2.65-.35,3.87-1.05s2.1-1.62,2.65-2.74v-5.2h-3.4c-5.31,0-7.97,1.55-7.97,4.66,0,1.36.45,2.42,1.36,3.19s2.07,1.15,3.49,1.15v-.01Z" fill="#c9d1d9"/>
    <path d="m656.32,724.31h-4.34v-36h4.34v36Z" fill="#c9d1d9"/>
    <path d="m506.25,781.91c-.25-.5-.45-1.39-.61-2.67-2.02,2.09-4.42,3.14-7.22,3.14-2.5,0-4.55-.71-6.15-2.12s-2.4-3.21-2.4-5.38c0-2.64,1-4.69,3.01-6.15s4.83-2.19,8.47-2.19h4.22v-1.99c0-1.52-.45-2.72-1.36-3.62s-2.24-1.35-4.01-1.35c-1.55,0-2.84.39-3.89,1.17s-1.57,1.73-1.57,2.84h-4.36c0-1.27.45-2.49,1.35-3.67s2.12-2.11,3.66-2.8,3.23-1.03,5.07-1.03c2.92,0,5.21.73,6.87,2.19s2.52,3.47,2.58,6.04v11.67c0,2.33.3,4.18.89,5.55v.38h-4.55v-.01Zm-7.2-3.3c1.36,0,2.65-.35,3.87-1.05s2.1-1.62,2.65-2.74v-5.2h-3.4c-5.31,0-7.97,1.55-7.97,4.66,0,1.36.45,2.42,1.36,3.19s2.07,1.15,3.49,1.15v-.01Z" fill="#c9d1d9"/>
    <path d="m532.36,779.4c-1.69,1.98-4.16,2.98-7.43,2.98-2.7,0-4.76-.79-6.18-2.36s-2.13-3.89-2.14-6.97v-16.5h4.34v16.38c0,3.84,1.56,5.77,4.69,5.77,3.31,0,5.52-1.23,6.61-3.7v-18.45h4.34v25.36h-4.12l-.09-2.51h-.02Z" fill="#c9d1d9"/>
    <path d="m542.11,769.02c0-3.89.92-7.02,2.77-9.39s4.26-3.55,7.24-3.55,5.32,1.02,7.05,3.05v-13.22h4.34v36h-3.98l-.21-2.72c-1.73,2.12-4.15,3.19-7.24,3.19s-5.33-1.2-7.18-3.61-2.78-5.55-2.78-9.42v-.33h-.01Zm4.34.49c0,2.88.59,5.12,1.78,6.75s2.83,2.44,4.92,2.44c2.75,0,4.76-1.23,6.02-3.7v-11.65c-1.3-2.39-3.29-3.59-5.98-3.59-2.12,0-3.78.82-4.97,2.46s-1.78,4.07-1.78,7.29h.01Z" fill="#c9d1d9"/>
    <path d="m570.26,749.82c0-.7.21-1.3.64-1.78s1.07-.73,1.91-.73,1.48.24,1.92.73.66,1.08.66,1.78-.22,1.29-.66,1.76-1.08.7-1.92.7-1.48-.23-1.91-.7-.64-1.05-.64-1.76Zm4.69,32.09h-4.34v-25.36h4.34v25.36Z" fill="#c9d1d9"/>
    <path d="m587.77,750.41v6.14h4.73v3.35h-4.73v15.75c0,1.02.21,1.78.63,2.29.42.51,1.14.76,2.16.76.5,0,1.19-.09,2.06-.28v3.5c-1.14.31-2.25.47-3.33.47-1.94,0-3.4-.59-4.38-1.76s-1.48-2.84-1.48-4.99v-15.73h-4.62v-3.35h4.62v-6.14h4.34v-.01Z" fill="#c9d1d9"/>
    <path d="m595.94,768.99c0-2.48.49-4.72,1.46-6.7s2.34-3.52,4.08-4.59,3.73-1.62,5.96-1.62c3.45,0,6.25,1.2,8.38,3.59s3.2,5.57,3.2,9.54v.3c0,2.47-.47,4.68-1.42,6.64s-2.3,3.49-4.05,4.58-3.78,1.64-6.06,1.64c-3.44,0-6.22-1.2-8.36-3.59s-3.2-5.55-3.2-9.49v-.3h.01Zm4.36.52c0,2.81.65,5.07,1.96,6.77s3.05,2.55,5.24,2.55,3.95-.86,5.25-2.59,1.95-4.14,1.95-7.25c0-2.78-.66-5.04-1.98-6.76s-3.07-2.59-5.26-2.59-3.87.85-5.18,2.55-1.97,4.14-1.97,7.31l-.01.01Z" fill="#c9d1d9"/>
    <path d="m636.73,760.44c-.66-.11-1.37-.16-2.13-.16-2.84,0-4.77,1.21-5.79,3.63v18h-4.34v-25.36h4.22l.07,2.93c1.42-2.27,3.44-3.4,6.05-3.4.84,0,1.48.11,1.92.33v4.03h0Z" fill="#c9d1d9"/>
    <path d="m649.43,775.55l5.91-19.01h4.64l-10.2,29.27c-1.58,4.22-4.09,6.33-7.52,6.33l-.82-.07-1.62-.3v-3.52l1.17.09c1.47,0,2.61-.3,3.43-.89s1.5-1.68,2.03-3.26l.96-2.58-9.05-25.08h4.73l6.33,19.01.01.01Z" fill="#c9d1d9"/>
    <path d="m679.8,756.55l.12,2.81c1.86-2.19,4.37-3.28,7.52-3.28,3.55,0,5.96,1.36,7.24,4.08.84-1.22,1.94-2.2,3.29-2.95s2.95-1.12,4.79-1.12c5.56,0,8.39,2.95,8.48,8.84v16.99h-4.34v-16.73c0-1.81-.41-3.17-1.24-4.07s-2.22-1.35-4.17-1.35c-1.61,0-2.95.48-4.01,1.44s-1.68,2.25-1.85,3.88v16.83h-4.36v-16.62c0-3.69-1.8-5.53-5.41-5.53-2.84,0-4.79,1.21-5.84,3.63v18.52h-4.34v-25.36h4.1l.02-.01Z" fill="#c9d1d9"/>
    <path d="m728.32,782.38c-3.44,0-6.23-1.13-8.39-3.39s-3.23-5.28-3.23-9.06v-.8c0-2.52.48-4.76,1.44-6.74s2.3-3.52,4.03-4.64,3.6-1.68,5.61-1.68c3.3,0,5.86,1.09,7.69,3.26s2.74,5.28,2.74,9.33v1.8h-17.18c.06,2.5.79,4.52,2.19,6.06s3.18,2.31,5.33,2.31c1.53,0,2.83-.31,3.89-.94s1.99-1.45,2.79-2.48l2.65,2.06c-2.12,3.27-5.31,4.9-9.56,4.9v.01Zm-.54-22.73c-1.75,0-3.22.64-4.41,1.91s-1.92,3.06-2.2,5.36h12.7v-.33c-.12-2.2-.72-3.91-1.78-5.12s-2.5-1.82-4.31-1.82h0Z" fill="#c9d1d9"/>
    <path d="m758.88,781.91c-.25-.5-.45-1.39-.61-2.67-2.02,2.09-4.42,3.14-7.22,3.14-2.5,0-4.55-.71-6.15-2.12s-2.4-3.21-2.4-5.38c0-2.64,1-4.69,3.01-6.15s4.83-2.19,8.47-2.19h4.22v-1.99c0-1.52-.45-2.72-1.36-3.62s-2.24-1.35-4.01-1.35c-1.55,0-2.84.39-3.89,1.17s-1.57,1.73-1.57,2.84h-4.36c0-1.27.45-2.49,1.35-3.67s2.12-2.11,3.66-2.8,3.23-1.03,5.07-1.03c2.92,0,5.21.73,6.87,2.19s2.52,3.47,2.58,6.04v11.67c0,2.33.3,4.18.89,5.55v.38h-4.55v-.01Zm-7.2-3.3c1.36,0,2.65-.35,3.87-1.05s2.1-1.62,2.65-2.74v-5.2h-3.4c-5.31,0-7.97,1.55-7.97,4.66,0,1.36.45,2.42,1.36,3.19s2.07,1.15,3.49,1.15v-.01Z" fill="#c9d1d9"/>
    <path d="m775.22,750.41v6.14h4.73v3.35h-4.73v15.75c0,1.02.21,1.78.63,2.29.42.51,1.14.76,2.16.76.5,0,1.19-.09,2.06-.28v3.5c-1.14.31-2.25.47-3.33.47-1.94,0-3.4-.59-4.38-1.76s-1.48-2.84-1.48-4.99v-15.73h-4.62v-3.35h4.62v-6.14h4.34v-.01Z" fill="#c9d1d9"/>
    <path d="m800.67,779.4c-1.69,1.98-4.16,2.98-7.43,2.98-2.7,0-4.76-.79-6.18-2.36s-2.13-3.89-2.14-6.97v-16.5h4.34v16.38c0,3.84,1.56,5.77,4.69,5.77,3.31,0,5.52-1.23,6.61-3.7v-18.45h4.34v25.36h-4.12l-.09-2.51h-.02Z" fill="#c9d1d9"/>
    <path d="m826.24,775.18c0-1.17-.44-2.08-1.32-2.73s-2.42-1.21-4.62-1.68-3.94-1.03-5.23-1.69-2.24-1.44-2.86-2.34-.93-1.98-.93-3.23c0-2.08.88-3.84,2.64-5.27s4-2.16,6.74-2.16c2.88,0,5.21.74,7,2.23s2.68,3.38,2.68,5.7h-4.36c0-1.19-.5-2.21-1.51-3.07s-2.28-1.29-3.81-1.29-2.81.34-3.7,1.03-1.34,1.59-1.34,2.7c0,1.05.41,1.84,1.24,2.37s2.32,1.04,4.49,1.52,3.92,1.06,5.26,1.73,2.34,1.48,2.99,2.43.97,2.1.97,3.46c0,2.27-.91,4.08-2.72,5.45s-4.16,2.05-7.05,2.05c-2.03,0-3.83-.36-5.39-1.08s-2.79-1.72-3.67-3.01-1.32-2.68-1.32-4.18h4.34c.08,1.45.66,2.61,1.75,3.46s2.52,1.28,4.3,1.28c1.64,0,2.96-.33,3.95-1s1.49-1.55,1.49-2.66l-.01-.02Z" fill="#c9d1d9"/>
  </g>
</svg>