<?xml version="1.0" encoding="UTF-8"?>
<svg id="Ebene_7_Kopie" data-name="Ebene 7 Kopie" xmlns="http://www.w3.org/2000/svg" viewBox="0 0 1061.28 218.88">
  <defs>
    <style>
      .cls-1 {
        fill: #c9d1d9;
      }
    </style>
  </defs>
  <path class="cls-1" d="m950.89,125.43c2.35-.24,4.08-.68,5.77-1.64,2.12-1.2,5.51-1.93,8.05-2.77,5.81-.06,10.23.61,13.45,2.74.83.55,3,.77,4.65.94,1.51.15,3.15.03,4.6.03,3.44-.79,6.76-1.55,10.52-2.42h6.6c2.03.69,4.35,1.47,7.15,2.41,4.97.12,9.36-1.29,14.22-2.25,3.44.5,7.55.52,10.3,2.27-.02.16-.06.56-.11,1.02-.72.08-1.43.28-1.94.2-1.85-.29-3.63-.66-6.87-1.27-5.49-.61-11.64,1.87-18.6,1.24-2.49-.59-5.02-1.19-7.6-1.8-2.21,0-4.47,0-6.73,0-3.85.88-7.7,1.77-11.13,2.56-5.02-.71-9.6-1.19-12.49-3.1h-6.47c-2.71.82-5.39,1.54-7.8,2.4-1.99.72-3.52,1.7-5.49,2.42-2.91,1.07-6.03,2.02-9.3,3.1h-6.26c-3.27-1.13-7.74-1.72-10.54-3.63-3.76-2.56-7.93-5.06-14.96-6.22h-6.75c-5.54,1.91-10.84,3.72-16.1,5.56-1.58.55-3.09,1.16-4.58,1.76-4.34,1.76-8.61,3.55-13.01,5.28-1.13.44-2.64.71-4.03.99-2.75.57-5.53,1.09-9.5,1.86h-5.74c-2.8-1.03-6.62-2.12-9.52-3.59-2.58-1.31-4.74-2.95-5.98-4.61-1.67-2.25-4.71-4.24-5.47-6.66-.63-2.01-4.26-3.44-5.37-5.36-.77-1.23-1.48-2.48-2.32-3.7-2.58-3.78-6.31-7.36-9.11-11.09-1.04-1.4-2.99-2.61-3.05-4.24-.05-1.34-3.86-2.11-3.97-3.7-.07-.96-1.11-1.9-1.05-2.97-.86-.46-2.31-.89-2.47-1.4-.96-3.03-4.86-5.48-7.41-8.19-2.39-2.54-4.54-5.13-6.44-7.76-1.19-1.65-3.38-3.01-4.99-4.51-1.46-1.36-1.46-3.06-3.15-4.49-5.17-4.39-10.53-8.73-16.63-12.85-3.92-2.65-10.3-3.66-17.07-4.01-2.68-.14-5.42-.02-8.54-.02-3.22.83-6.89,1.63-10.48,3.4,2.2.15,3.2.28,4.19.26.74-.01,1.48-.33,2.2-.31,1.05.02,2.45.47,3.08.29,4.67-1.33,8.92-.26,13.28.33,1.04.14,2.07.29,3.25.46,2.95,1.08,6.4,2.07,9.1,3.39,3.29,1.61,6.42,3.36,8.79,5.27,4.09,3.28,8.69,6.57,10.93,10.13,1.96,3.12,6.11,5.69,7.93,8.79,1.78,3.04,4.68,5.94,6.98,8.92,1.22,1.58,1.99,3.24,3.4,4.78,1.07,1.17,1.37,2.48,3.59,3.49,1.21.55,1.36,1.64,1.72,2.51.56,1.37,1.47,2.63,2.98,3.88,2.84,2.35,3.84,5.01,5.2,7.6.5.96.94,1.94,1.74,2.85,1.54,1.75,3.35,3.44,5.01,5.17,1.57,1.63,3.4,3.21,4.91,4.86,1.55,1.71,3.07,3.47,5.05,5.14,2.64,2.24,5.18,4.56,7.61,6.88,3.02,2.88,4.56,3.83,10.65,5.32,1.99-.25,3.87-.48,5.74-.71,2.67-.36,3.79-2,7.33-1.79.31.02.71-.23,1.04-.37,7.58-3.2,16.53-5.7,23.24-9.36,4.2-2.29,10.02-3.23,16.16-3.76,1.33-.12,2.92.28,4.35.49,1.85.27,3.67.6,6.64,1.09,1.53.73,3.93,1.82,6.17,2.98,1.3.67,2.37,1.44,3.47,2.19.73.49,1.14,1.13,2.07,1.52,1.78.74,3.78,1.39,5.8,1.99.67.2,1.87.32,2.52.18,2.34-.5,5.14-.2,7.32-1.15,2.01-.88,4.29-1.51,5.96-2.67,2.19-1.52,5.55-2.69,8.25-3.95,2.35-.24,4.45-.45,7.41-.75,4.4,1.2,10.36,1.84,15.36,3.52,2.09.7,5.36.68,8.29,1.01-2.51,1.33-5.71,1.74-10.2,1.51-2.71-.77-6.05-1.72-10.36-2.95-1.31-.1-3.87-.29-7.57-.57-1.7.64-4.28,1.56-6.74,2.54-4.51,1.81-7.91,4.21-14.39,5.53-3.88-.23-8.44-.5-12.46-.74-4.24-2.52-6.44-5.23-11.26-7.14-4.79-1.91-8.61-2.75-16.02-2.79-6.65,2.88-13.24,6.07-20.63,8.81-5.57,2.07-11,4.32-17.68,5.73-1.96.42-3.73,1.03-6.09,1.69-3.92-.67-8.66-1.06-12.28-2.2-3.54-1.11-5.94-2.98-8.81-4.5.19-2.01-3-3.1-5.01-4.07-1.75-2.73-3.49-5.05-6.24-7.21-.63-.5-.77-1.12-1.22-1.67-1.72-2.13-3.24-4.31-5.28-6.37-2.86-2.9-3.95-6.04-6.61-8.98-4.47-4.93-7.4-10.12-12.33-14.99-1.98-1.95-2.91-4.12-4.24-6.2-1.34-2.08-5-3.74-5.25-6.01-7.52-5.18-8.69-11.72-17.12-16.7-1.88-3.45-7.44-5.83-11.92-8.53-.78-.47-1.27-1.04-1.78-1.47-2.89-.53-5.51-1-8.92-1.62-5.99-.16-12.81-.07-19.46,1.41-.54.57-1.19,1.27-1.9,2.02,4.13-.13,7.8-.4,11.43-.33,4.82.09,9.3.93,13.67,1.84,2.07.43,1.87,1.88,4.5,2.02,3.57,2.54,8.59,4.54,12.03,7.18,2.77,2.13,5.19,4.36,7.94,6.48,3.54,2.74,6.83,5.66,8.97,8.79,2.75,4.04,6.41,7.94,9.8,11.87,1.11,1.29,2.62,2.54,2.36,4-.05.29-.03.66.32.88,3.39,2.07,3.65,4.6,5.16,6.96.83,1.29,3,2.45,3.29,3.74.32,1.4,1.36,2.59,2.72,3.75,2.04,1.74,3.02,3.67,4.83,5.47,1.74,1.73,3.6,3.57,4.16,5.6.36,1.33,2.03,2.6,3.28,3.86,3.76,3.79,7.44,7.59,10.56,11.51,1.32,1.66,3.79,3.14,5.93,4.65.53.37,1.79.53,2.75.8.3.55.62,1.12,1.05,1.9,3.32.39,6.65.78,9.29,1.09,7.69-1.46,13.44-3.47,18.4-5.98,1.81-.92,3.76-1.78,5.75-2.63,5.4-2.3,10.85-4.57,15.9-6.69,5.96-1.18,11.5-1.31,17.06-.16,6.4,2.12,11.84,4.69,15.1,8.08,2.65.6,5.18,1.18,7.98,1.81,5.06-1.48,11.66-1.91,14.48-4.82,4.27-1.17,8.11-2.72,13.02-3.35,3.41-.44,6.52.37,9.56.87,3.87.63,7.53,1.53,11.74,2.41,2.97-.68,6.36-1.19,9.02-2.13,2.57-.91,5.47-1.15,8.93-1.54,2.61.42,5.79.98,9.04,1.44,1.24.17,2.98.38,3.9.12,5.75-1.6,12.05-1.1,18.78-1.2,1.47.38,3.34.88,5.58,1.46-.79.81-1.47,1.51-2.14,2.2-4.65-.85-9.2-1.68-13.49-2.46-4.57.81-8.77,1.55-13.64,2.41-4.15-.9-9.05-2.1-14.47-1.7-3.57,1.06-6.88,2.05-10.22,3.05h-9.1c-2.56-.71-5.17-1.83-8.21-2.18-2.97-.35-6.38.08-8.17.13-7.21,2.62-13.29,4.83-19.79,7.19-4.04-.26-8.4-.54-12.16-.77-7.94-2.68-10.9-6.87-16.76-9.89h-10.06c-4.68,1.6-9.94,3.36-15.08,5.19-.97.34-1.26,1.06-2.13,1.48-6.56,3.19-13.87,5.99-22.26,8.11-3.81.96-8.07,1.65-12.95,1.22-8.3-2.03-12.68-5.84-17.96-9.28-.2-2.16-4.53-3.5-5.04-5.76-.42-1.88-3.16-3.66-5.05-5.45-3.37-3.2-4.95-6.73-8.8-9.85-1.13-.92-1.44-2.06-2.01-3.11-.94-1.73-3.51-3.26-2.93-5.17.02-.07-.26-.16-.37-.25-1.76-1.36-3.98-2.63-4.05-4.32-3.87-.9-1.14-2.86-3.2-4.15-1.59-1-2.21-2.35-3-3.58-.79-1.23-1.27-2.51-1.88-3.74-.75-.71-1.68-1.38-2.2-2.12-1.61-2.25-2.65-4.6-4.66-6.77-3.04-3.28-6.06-6.56-9.8-9.71-1.61-1.36-2.31-3.03-4.37-4.3-3.54-2.18-5.34-4.76-8.32-7.06-.78-.6-1.71-1.18-2.76-1.68-3.6-1.71-7.29-3.38-10.51-4.86-10.38-1.85-19.25-.98-27.85,1.85.76.52,1.24.84,1.83,1.24,5.85-.89,11.83-.14,17.95-.51,3.8,1.12,7.79,2.16,11.45,3.42,1.69.58,2.84,1.52,4.02,2.36,3.88,2.77,9.01,5.17,11.64,8.32,2.01,2.4,3.5,5.03,6.71,7.06,3.44,2.17,4.28,4.75,7.12,6.99,1.97,1.55,2.98,3.47,4.63,5.2,2.4,2.53,4.23,5.19,6.21,7.79,1.54,2.03,4.2,3.85,4.99,6.05.72,2.02,2.46,3.98,3.96,5.94,2.73,3.55,4.73,7.24,8.67,10.55,1.16,1.69,2.21,3.4,3.51,5.07,2.55,3.26,5.1,6.51,8.06,9.71,4.17,4.49,8.52,8.93,14.08,13.1,1.25.94,3.49,1.6,5.57,2.52,0,0,.38.1.8.15,6.94.85,8.89.71,15.34-1.8,5.79-2.25,11.38-4.61,16.8-7.05,5.25-2.36,10.24-4.83,18.66-5.94,2.06.16,5.27-.25,8.66.43,1.75.35,2.51.92,3.82,1.29,4.91,1.4,8.59,3.24,11.79,5.43,1.63,1.12,4.7,1.8,7.09,2.67,5.04.26,9.32-.81,12.54-2.2,5.08-2.18,11.13-3.57,16.86-5.24,1.13-.33,2.09-.77,3.18-1.19h6.16c4.66,1.57,10.14,2.42,15.83,3.17,4.5-1.27,8.93-2.51,13.52-3.8h8.89c1.33.56,2.82,1.18,4.35,1.82h5.14c4.19-1.7,10.12-1.69,15.72-2.47,1.67.51,3.46,1.06,5.79,1.76-.56.63-1.18,1.32-2,2.25-6.68-2-12.76-2.08-18.13.37h-10.13c-1.43-.34-3.18-.76-5.15-1.23h-7.35c-1.94.61-4.45,1.4-7.76,2.43.1,0-.93-.12-1.62.06-5.22,1.31-10.05.3-14.16-.89-4.68-1.35-8.84-1.04-12.88.06-7.15,1.94-14.02,4.09-21.64,6.34h-10.96c-2.71-.57-4.97-1.47-7.15-2.72-1.8-1.03-4.15-1.7-5.33-3.16-2.05-2.53-7.18-3.56-13.27-4.01-4.32,1.24-8.93,2.57-13.32,3.83-2.69,1.3-5.55,2.45-7.78,3.82-4.47,2.74-10.93,4.4-16.45,6.56-4.08,1.6-9.21,2.32-16.09,1.71-.52-.14-2.26-.56-3.85-1.08-1.42-.46-2.68-1.02-4.35-1.67-3.08-2.28-6.72-4.7-9.73-7.27-2.82-2.41-6.13-4.76-6.99-7.59-.23-.75-1.5-1.43-2.17-2.16-3.51-3.84-7.19-7.65-10.39-11.54-1.53-1.86-2.44-3.82-4.96-5.48.39-2.6-2.51-4.83-4.26-7.14-1.89-2.49-2.84-5.18-6.18-7.43-.13-.09-.4-.18-.37-.25,1.11-2.67-4.95-4.47-4.15-7.1-2.16-.96-2.25-2.31-3.27-3.5-2.71-3.13-5.97-6.17-8.83-9.28-1.17-1.27-1.89-2.63-2.79-3.94-.26-.38-.28-.8-.69-1.14-1.89-1.55-4.53-2.99-5.69-4.64-2.46-3.5-7.71-6.21-11.58-9.3-1.5-1.2-4.49-2.01-7.59-3.33-6.2-1.02-13.54-1.13-20.85,0-2.42,1.15-4.87,2.32-7.42,3.53.3.13.79.35,1.28.56,2.27-.37,4.57-1.11,6.63-1,2.34.13,4.83-.34,6.63,0,2.42.45,4.75.39,7.11.57.95.07,1.65.68,2.6.94,8.86,2.47,15.64,5.67,18.92,10.32.98,1.39,3.48,2.54,5.06,3.86,1.47,1.22,2.64,2.52,4.3,4.13v2.05c.27-.04.53-.08.8-.12,4.04,4.49,8.11,8.98,12.11,13.48,2.44,2.75,5.47,5.45,6.89,8.3.87,1.76,3.38,3.15,3.72,5.02.29,1.61,2.29,3.17,3.6,4.73.85,1.02,1.76,2.03,2.74,3.02,1.44,1.46,2.36,2.94,2.84,4.57.54,1.83,2.12,3.61,3.44,5.39,1.88,2.52,3.87,5.03,5.96,7.52,1.17,1.39,2.66,2.72,3.99,4.08,2.04,2.08,4.13,4.13,5.65,6.32,1.36,1.95,4.65,3.61,6.48,5.52,1.97,2.05,4.94,3.78,7.7,5.57,2.33,1.51,5.91,2.08,10.35,1.79,2.01-.47,4.27-1.11,6.69-1.55,2.85-.52,4.91-1.45,6.39-2.58,1.54-1.16,3.23-2.11,6.04-2.68,1.17-.24,2.32-.73,2.94-1.25,3.82-3.19,10.24-4.91,17.01-6.47.2-.05.37-.12.91-.29,3.23.48,6.65-.27,10.37-.11,3.9.17,6.89.89,9.34,1.93,3.18,1.35,6.79,2.5,9.47,4.14,1.81,1.1,4.56,1.89,6.57,2.69h7.7c2.08-.8,4.65-1.9,7.47-2.86,4.4-1.49,8.88-2.94,13.48-4.29,1.59-.47,3.65-.59,5.5-.87,1.23-.18,2.46-.36,4.35-.63,3.9.92,8.32,1.96,13.09,3.09,1.14,0,2.53-1.21,4.32-.11,5.46-1.13,10.32-2.87,17.27-3.37,2,.51,4.79,1.22,8.76,2.23.27.02,1.98.14,4.94.35,1.33-.28,3.79-.8,7.3-1.54,4.27.02,9.87-.38,15.41.94.05.25.14.64.24,1.1-1.11.31-2.2.61-3.29.91-1.93-.41-3.83-.87-5.83-1.22-1.4-.24-3.41-.69-4.32-.43-4.79,1.36-10.63,1.06-15.83,2.25-3.46-.91-7.16-1.89-10.6-2.8-5.34,1.16-10.44,2.27-16.43,3.57h-3.84c-5.44-1.21-9.92-2.2-14.57-3.23-10.21,2.91-18.77,6.76-29.51,9.4h-7.17c-2.08-.66-4.48-1.23-6.34-2.05-2.37-1.05-4.3-2.3-6.42-3.47-2.27-1.24-4.51-2.5-6.84-3.72-1.28-.67-2.88-.86-4.95-.94-2.31-.08-4.28-.3-6.6.26-4.15.99-8.17,1.98-11.29,3.64-4.81,2.56-10.47,4.74-15.25,7.35-3.45,1.89-8.85,3.03-13.34,4.49h-10.35c-2.05-.65-4.41-1.23-6.31-2.03-1.91-.81-3.42-1.83-5-2.8-4.18-2.55-7.06-5.47-10.65-8.18-3.04-2.29-5.61-4.91-7.49-7.45-2.01-2.72-5.04-5.25-6.62-8.04-1.13-2-3.39-3.87-4.46-5.87-1.09-2.03-3.39-3.83-4.52-5.88-.97-1.75-2.56-3.56-3.93-5.32-2.88-3.72-5.28-7.51-7.94-11.26-1.06-1.5-2.18-3-3.46-4.46-2.16-2.48-4.5-4.94-6.69-7.42-.4-.45-.29-1-.72-1.44-1.12-1.16-2.04-2.38-3.11-3.54-2.69-2.9-5.77-5.75-7.7-8.8-.18-.29-.11-.62-.42-.87-3.27-2.57-6.39-5.19-9.98-7.66-2.19-1.51-4.89-2.91-7.84-4.12-2.05-.84-4.9-1.28-7.9-2.02h-6.71c-3.15,1.48-8.32.9-12.39,1.9-1.09.73-2.18,1.46-3.35,2.24,4.71-.34,9.44-1.1,13.94-.88,4.59.23,8.94,1.42,13.04,2.44,2.33,1.01,4.66,2.02,7.11,3.08,2.57,1.83,5.29,3.77,8,5.7l.56-.16c.65.84.81,1.89,2.04,2.48,3.04,1.45,2.86,3.47,5.14,5.08,2.2,1.54,3.52,3.41,4.57,5.21,1.09,1.87,4.21,3.32,4.96,5.16.85,2.07,2.42,3.99,4.11,5.93,1.61,1.83,3.04,3.7,4.5,5.56,2.62,3.35,5.47,6.66,7.74,10.06,3.09,4.62,5.87,9.29,9.54,13.83,2.99,3.69,5.87,7.4,9.45,10.99,1.07,1.07,1.43,2.29,2.54,3.35,4.33,4.1,8.65,8.21,13.33,12.22,2.64,2.26,5.98,4.36,9.13,6.61,2.25.39,4.67.82,7.61,1.33.31-.08,1.02-.38,1.81-.43,8.49-.59,14.23-2.92,18.71-6.07.48-.34,1.15-.64,1.83-.91,2.7-1.05,5.82-1.93,8.05-3.16,2.11-1.16,4.6-2.1,7.04-3.05,1.41-.55,3.5-.74,5.63-1.16.13.49.25.96.35,1.37-5.97,2.88-13.57,4.88-18.09,8.29-2.42.26-3.11,1.25-4.46,2.03-4.64,2.7-11.21,4.09-18.31,4.94-1.56.19-3.42-.13-5.56.19-4.01-1.19-8.05-2.37-12.02-3.6-.91-.28-2.07-.69-2.27-1.11-1.09-2.34-5.31-3.85-7.27-5.97-1.96-2.11-4.81-4.05-6.62-6.18-2.82-3.32-6.86-6.41-8.93-9.88-1.07-1.79-3.2-3.41-5.35-5.01-1.33-.98-2.2-2.09-3.28-3.15-.6-.59.74-1.49-1.39-1.84-.4-2.69-3.18-5.02-5.43-7.43.94-2.9-3.29-5.41-2.96-8.26-.98-.76-2.39-1.27-2.84-2.33-.84-2.01-2.96-3.9-4.55-5.85-.2.03-.4.05-.61.08v-2.34c-.43-.27-.78-.42-.95-.6-1.08-1.19-2.2-2.37-3.14-3.58-1.01-1.3-2.12-2.6-2.65-3.95-.51-1.29-3.5-1.99-3.05-3.58.25-.89-1.93-1.91-2.91-2.89-1.7-1.71-3.93-3.38-4.82-5.17-1.37-2.75-4.09-5.04-7.93-6.93-1.15-2.85-5.97-4.56-8.01-6.64-3.18-.87-5.8-1.59-8.77-2.41-4.86.06-10.2-.2-15.39.61-4.25.66-8.31,1.5-10.9,3.21-1.19.79-3.24,1.76-.99,3.1,3.27-.84,6.48-1.66,10.13-2.6h11.98c1.27.26,2.3.43,3.26.67,4.85,1.21,9.88,2.31,12.25,4.84.33.35,1.17.62,1.87.88,3,1.12,4.75,2.62,6.44,4.17,1.26,1.16,3.07,2.19,4.37,3.34,2.88,2.55,5.81,5.1,8.27,7.74,1.17,1.25,1.31,2.7,1.62,3.41,1.7,1.65,3.14,2.67,3.86,3.79,2.18,3.41,5.9,6.57,7.47,10.09.59,1.34,1.88,2.62,2.96,3.91,1.14,1.37,1.95,2.86,3.76,4.02,1.72,1.1-.83,2.54,1.95,3.38.82,2.63,1.62,5.26,5.43,7.43.47.61.93,1.22,1.4,1.83-1.34,1.15.28,1.98,1.51,2.88v2.72c1.8,1.74,4.75,3.26,4.08,5.35,3.92,3.32,4.5,7.29,9.57,10.37,2,1.21,1.22,2.86,3.84,4.06,2.05.94,2.91,2.43,4.2,3.69,2.1,2.05,3.62,4.27,6.29,6.14,2.81,1.97,6.69,3.63,9.91,5.31,2.18.33,4.02.61,6.06.92,1.69-.25,3.54-.53,5.84-.87,3.66-1.59,7.69-3.35,12.21-5.32-.64-2.18,6.9-2.28,7.15-4.57,5.08-1.29,8.2-3.51,12.95-5.31,3.81-.26,8.13-.56,11.62-.8,5.92.86,9.79,2.33,13.28,4.07,2.78,1.4,6,2.59,8.82,3.99,2.39,1.18,5.36,2.11,8.08,3.15h6.67c1.06-.28,2.73-.58,4.04-1.09,2.06-.8,3.68-1.85,5.84-2.58,4.35-1.47,8.45-3.17,13.8-3.89,2.3-.31,4.73-.41,7.04-.6,3.49,1.1,6.83,2.06,9.96,3.15,3.62,1.26,6.75,2.01,11.14.32,2.27-.88,6.06-.94,10.03-1.49,3.4.92,7.45,2.02,11.35,3.08,7.46-1.76,14.57-3.96,22.24-.57h3.71c1.03.45,2.16.94,4.11,1.78-.89.21-1.62.44-2.44.56-3.47.51-6.63.07-9.27-.93-2.32-.89-4.71-1.49-7.56-1.39-3.89,1.06-7.6,2.06-11.35,3.08-4.01-1.06-7.74-2.05-11.29-3-5.05-.55-9.35.6-13.43,1.33-4.24.77-7.36.39-10.5-.6-2.61-.83-4.84-1.91-7.69-3.07-1,.04-2.52.78-4.68.1-.91-.28-3.09.28-4.66.45-5.26,3.1-12.7,4.95-19.07,7.27h-11.5c-4.95-1.22-9.19-3.05-13-5.12-2.43-1.32-4.86-2.63-7.28-3.95-1.11-.61-2.2-1.23-3.58-2h-9.13c-.65.29-1.43.66-2.29.99-3.2,1.23-7.47,1.75-10.14,3.36-2.54,1.53-5.45,2.94-8.21,4.4-2.9,1.54-5.7,3.12-8.75,4.59-4.77,2.3-10.49,3.66-17.05,3.3-9.64-1.49-14.23-5.02-19.14-8.37-2.05-1.4-3.65-2.95-5.81-4.31-3.99-2.52-6.3-5.38-8.43-8.28-1-1.37-2.32-2.6-4.87-3.45v-2.85c-4.64-4.9-9.08-9.82-11.6-15.43-.18-.07-1.02-.4-1.87-.73-.18-.56-.36-1.13-.61-1.93-1.11.93-1.54,1.57.34,2.05.08,1.63.17,3.26,2.78,4.61v3.36c.24-.02.48-.04.73-.07,1.34,2.49,2.21,5.05,4.15,7.44,1.89,2.33,3.14,4.72,4.72,7.08,1.64,2.45,5.98,4.49,5.51,6.85,2.01,1.95,3.91,3.52,5.28,5.18,2.24,2.72,5.23,5.25,8.94,7.57,2.75,1.72,6.11,3.23,9.26,4.81.4.2,1.31.17,1.77.36,3.42,1.37,7.68,1.85,11.92,2.13,2.2.15,4.6-.33,7.59-.58,4.42-2.3,9.23-4.71,13.81-7.22,1.94-1.07,3.08-2.45,5.11-3.47,3.74-1.87,7.4-3.86,13.11-4.85,3.46.26,6.92.51,10.23.76,4.17,1.66,8.78,3.05,12.07,4.92,2.86,1.64,6.37,2.83,9.66,4.19,1.43.59,3.31.96,5.06,1.45h7.66c3.35-1.19,7.36-2.59,11.3-4.02,2.66-.97,5.09-2.08,7.88-2.96,3.39-1.07,7.08-1.67,11.07-.47.48.14,1.31.05,1.82.06,4.22,1.61,8.33,3.17,12.96,4.94,5.19,0,10.18-1.45,15.94-1.89,4.97.99,10.14,2.02,15.53,3.09,2.8-.51,5.82-1.06,9.78-1.79h5.65c.57.22,1.56.61,3.04,1.19h5.95c-.4,1.33,1.03,2.56-2.08,3.66-3.51.43-6.76-.51-10.14-1.13-3.07.7-6.81.58-9.56,1.77-.61.26-2.62.02-3.79-.19-4.63-.86-9.18-1.8-14.08-2.78-2.63.48-5.65,1.03-9.54,1.74-1.63.05-4.24.13-7.69.23-1.87-.45-4.67-1.13-8.09-1.96-1.85-1.84-6.19-2.65-10.85-3.5-4.31,1.73-8.35,3.21-12.05,4.85-4.43,1.96-10.1,2.67-15.67,3.48-1.08.16-2.63-.09-3.78-.33-6.05-1.25-11.7-2.74-16.43-4.96-4.82-2.27-10.1-4.33-14.97-6.39h-7.53c-1.38.81-2.87,1.68-4.35,2.56-.27.16-.39.43-.72.5-7.28,1.49-7.96,5.47-13.69,7.54-2.32,2.55-7.7,3.47-12.29,4.81-.91.27-1.98.41-3.75.77-2.53-.14-5.81-.43-9.11-.49-5.63-.1-9.51-1.91-14.12-2.95-2.09-.48-4.15-1.36-4.84-2.77-.67-1.38-3.09-2.66-5.02-3.68-2.64-1.4-4.3-2.89-5.57-4.52-1.85-2.36-4.31-4.54-8.09-6.56v-2.17c-1.26-.78-2.64-1.61-3.25-2.74-1.34-2.48-3.39-4.89-5.1-7.33-.92-1.31-1.93-2.62-2.56-3.97-1.85-3.97-5.23-7.73-7.25-11.68-2.8-5.48-7.66-10.69-10.54-16.17-.65-1.23-2.36-2.35-3.88-3.81v-2.37c-5.38-4.87-8.62-9.68-11.75-14.96-4.19-1.24-4.86-3.94-7.1-6.18-1.19-1.19-2.13-2.35-4-3.38-1.52-.83-2.53-1.86-4.09-3.04-4.86-.66-7.1-4.04-14.49-3.48-.87.38-2,.87-2.67,1.16-.77,1.52-1.58,2.76-2.01,4.03-.61,1.78-.66,3.61-1.49,5.37-.67,1.43-1.91,2.84-3.31,4.17-1.33,1.25-3.2,2.39-4.74,3.51v2.86c-.13.11-.21.21-.36.28-5.5,2.86-7.59,6.4-9.67,9.96-.94,1.62-2.14,3.26-5.29,4.42-1.11.41-1.55,1.19-2.2,1.72-.02,4.37-2.58,8.13-10.72,11.05v2.74c-4.13,2.37-2.93,6.13-9.99,7.25-2.34,3-4.41,5.81-6.76,8.56-.7.82-1.91,1.64-3.35,2.22-4.41,1.74-6.52,3.98-7.58,6.62-3.38,1.34-6.03,3.19-10.51,4.23v2.39c-2.12,2.6-6.18,4.79-6.98,7.66-.34,1.2-3.29,2.28-3.38,3.45-.21,2.52-5.26,4.25-4.65,6.8-5.77,3.57-8.38,7.95-13.77,11.57-3.35,2.25-7.13,4.43-10.84,6.6-1.08.63-2.07,1.29-3,1.97-5.83,4.25-14.73,6.21-24.98,7.6-12.34,1.68-24.78,1-37.2,1.09-3.1.02-6.3-.67-9.32-1.2-10.21-1.78-19.72-4.23-28.92-6.89-5.2-1.5-9.73-3.49-14.57-5.25-.85-.31-1.81-.56-2.69-.85-3.31-1.12-7.28-1.87-9.05-3.83-.64-.71-2.26-1.33-3.76-1.75-5.85-1.63-10.06-4.06-14.8-6.22-4.58-2.09-9.54-4.14-12.88-6.61-3.72-2.75-8.85-4.81-13.28-7.21-4.19-2.27-8.02-4.66-12.38-6.88-4.41-2.25-8.26-4.72-12.36-7.1-.37-.22-.72-.46-1.21-.61-6.91-2.17-11.04-5.5-16.46-8.29-.45-.23-.83-.48-1.28-.71-5.3-2.63-10.65-5.25-15.9-7.9-2.22-1.12-4.53-2.25-6.29-3.52-1.71-1.23-6.03-1.12-6.51-2.85-5.55-1.19-7.11-4.38-13.01-5.4-5.56-2.9-11.04-5.84-16.73-8.7-1.9-.95-4.07-1.93-6.57-2.48-4.89-1.06-7.14-3.72-12.83-4.21-1.13-1.6-4.47-2.27-7.14-2.94-7.16-1.82-14.23-3.85-22.59-4.45-6.03-1.92-13.43-1.51-20.03-2.47-1.74-.25-3.44-.55-5.05-1.06,4.4.08,8.86-.81,13.02.41,7.49-.19,13.91,1.48,20.71,2.48,1.44.21,2.97.35,4.31.66,9.74,2.24,19.08,4.79,27.96,7.68,1.82.59,3.18,1.47,4.86,2.15,1.58.64,3.12,1.27,4.56,2,2.81,1.42,5.37,3.02,9.42,3.86,1.15.24,1.99.83,2.84,1.3,1.4.77,2.55,1.64,4.06,2.37,10.65,5.11,21.76,10.02,31.89,15.33,6.06,3.18,12.71,6.06,18.93,9.15,2.09,1.04,4.2,2.11,5.76,3.32,1.39,1.08,3.01,1.83,5.34,2.53,2.28.68,3.75,1.95,5.52,2.98,3.13,1.82,6.12,3.69,9.36,5.47,4.69,2.57,9.24,5.23,14.44,7.58,6.32,2.85,11.73,6.06,17.63,9.07,4.91,2.5,10.76,4.5,15.69,6.97,2.31,1.16,4.13,2.57,7.24,3.39,3.08.82,4.82,2.26,7.35,3.34.33.14.6.32.97.43,8.6,2.66,15.77,6.2,25.3,8.31,3.86.85,7.03,2.28,11.35,2.87,6.03.82,12.02,1.66,18.29,2.06,3.64.23,7.21.66,10.81,1,2.68-.13,5.48-.36,8.29-.38,3.34-.02,6.64,0,9.75-.65,2.6-.54,5.32-.76,8.14-.99,4.72-.4,8.85-1.69,12.43-3.14,5.5-2.23,10.05-4.85,13.09-7.98-2.36-.62-4.52-.12-6.65.39-3.68.87-7.29,1.77-11.62,1.9-1.35.04-2.61.68-4.27,1.14-4.53.25-9.52.52-14.68.81-.16-.57-.23-.85-.38-1.37,3.5.24,6.65-.62,10.45-.24,2.08-.53,4.51-1.25,7.58-1.05,3.39-1.61,8.38-1.57,12.41-2.51,1.92-.45,3.91-.9,5.99-1.13,1.09-.12,2.43.2,4.4.4,2.47-2.62,5.11-5.43,7.89-8.38-1.05-.04-2.25-.25-2.72-.07-4.33,1.69-9.79,2.04-14.94,2.81-7.16,1.07-14.48.89-21.8.83-.77,0-1.53-.36-2.06-.5-1.87.16-3.79.62-5.15.4-5.14-.86-10.48-1.26-15.73-1.86-5.37-.61-10.31-2.14-15.19-3.46-5.08-1.37-9.89-2.95-14.76-4.47-1.46-.46-2.73-1.05-4.05-1.59-1-.41-1.86-1.16-2.95-1.23-4.41-.3-5.86-2.01-8.37-3.25-1.95-.96-4.33-1.73-6.5-2.59-1.18-.47-2.45-.9-3.49-1.43-2.98-1.5-5.46-3.29-8.91-4.51-3.57-1.25-7.03-2.43-9.17-4.27-9.17-2.63-13.15-7.47-21.42-10.48-3.78-3.12-10.68-5.05-14.48-8.27-2.46-2.09-7.47-3.54-11.2-5.34-1.81-.87-3.26-1.9-4.94-2.83-2.44-1.35-4.87-2.71-7.44-4.02-5.09-2.58-10.19-5.16-15.46-7.66-2.85-1.36-4.83-3.07-8.64-4.07-1.22-.32-1.57-1.34-2.38-2.11-2.2-.85-4.66-1.71-6.9-2.68-3.13-1.34-5.98-2.82-9.17-4.13-3.09-1.27-5.71-2.74-8.77-4.01-2.79-1.16-5.76-2.22-8.66-3.32-2.38-.9-4.77-1.8-7.18-2.69-2.01-.74-3.49-1.61-6.44-2-3.14-.42-5.59-1.91-8.39-2.9-.85-.3-1.87-.5-2.81-.75-5.46-1.43-10.85-2.92-16.38-4.29-5.69-1.41-11.66-2.51-18.06-3.08-1.03-.09-1.97-.41-2.53-.53-8.36.66-16.38,1.1-24.33,1.69-7.97.59-15.87,1.41-23.83,1.85-7.83.44-15.71.64-23.7,1.44,3.58.72,3.57.69,5.88.58,2.22-.1,4.74.17,6.63-.22,3.94-.81,8.27-.3,12.21-1.04,1.72-.32,3.77-.11,5.75-.55,1.45-.32,3.73.13,5.58.47.23,0,.53.04.67,0,2.56-.99,5.55-.45,8.49-.58.68.28,1.35.55,2.23.9-7.02,1.11-14,1.24-20.68,2.07-4.3.54-8.91.72-13.39,1.26-4.45.53-9.44.05-14.17.15-2.81.06-5.59.41-8.4.58-2.81.17-5.58-.12-8.5.52-2.21.48-5.33.1-8.35.1-1.51.36-3.26.77-5.24,1.24-5.21.11-10.85-.36-16.71,1.04,3.73.34,7.28.53,10.04.07,2.7-.45,5.2-.4,7.81-.49,7.09-.25,14.17-.49,22.4-.78.73-.17,2.47-.58,4.36-1.02,7.24-.25,14.61-.81,21.96-1.14,8.06-.36,16.18-1.48,24.49-.55,2.11.24,4.56-.24,6.84-.21,7.33.12,14.65.33,21.21.49,7.01,1.72,13.5,3.14,19.58,4.86,6.32,1.79,12.41,3.78,18.3,5.86,5.59,1.98,11.88,3.48,17.19,5.59,1.41.76,2.54,1.71,4.28,2.25,6.96,2.16,12.3,5.09,18.14,7.76,7.01,3.21,14.1,6.43,20.29,9.96,4.95,2.82,10.86,5.17,16.04,7.85,4.09,2.12,7.84,4.37,11.82,6.54,1.3.71,2.79,1.35,4.24,2,6.08,2.7,11.54,5.63,16.57,8.75,3.03,1.88,6.69,3.54,10.1,5.29,4.01,2.05,8.8,3.88,11.94,6.18,7.75,5.67,19.61,9.54,29.1,14.43,1.75.9,3.38,1.86,5.52,3.04,4.71.38,8.07,2.29,11.99,3.77,5.97,2.24,12.83,3.8,19.25,5.71,4.02,1.19,7.92,2.44,13.09,2.52,1.74.03,3.41.77,5.13,1.17,4.17.97,8.62,1.4,14.2,1.22-1.02.87-1.66,1.41-2.52,2.13-2.55-.9-4.98-1.38-6.8-.32-5.23-.8-9.96-1.48-14.64-2.24-8.73-1.42-17.85-2.54-24.11-6.02-4.95-.47-8.14-2.25-12.13-3.43-1.11-.33-2.11-.74-3.11-1.13-3.69-1.47-7.5-2.89-11.01-4.44-2.37-1.05-4.29-2.31-6.45-3.46-1.03-.55-2.21-1.03-3.27-1.57-3.75-1.88-8.28-3.43-11.22-5.67-1.08-.82-3.16-1.37-5.05-2.15-1.39-.88-2.8-2.04-4.74-2.96-4.6-2.21-8.66-4.6-12.85-6.95-5.37-3.02-10.44-6.24-17.23-8.73-1.31-.48-1.93-1.33-3.05-1.94-3.22-1.73-6.47-3.45-9.82-5.12-6.11-3.04-12.41-5.99-18.41-9.07-3.81-1.96-7.22-4.07-10.83-6.11-.42-.24-.85-.58-1.41-.65-3.81-.51-4.84-2.26-7.29-3.36-2.58-1.16-5.19-2.3-7.66-3.51-5.94-2.89-11.76-5.84-18.92-8.13-4.47-3.57-12.89-5.15-19.15-7.83-5.35-2.29-12.03-3.99-18.43-5.71-5.98-1.61-12.26-3.02-18.6-4.31-3.95-.81-8.2-1.37-12.69-1.3-3.16.05-6.33,0-9.49.01-2.86.01-5.62.02-8.45.55-2.55.48-5.51,0-8.48.49-2.38.39-5.5.71-8.65.29-2.04-.27-4.94.08-6.91.59-2.61.67-5.18.53-7.8.54-4.87.02-9.46.72-14.2,1.07-4.99.36-10.04.55-15.07.8-3.96.2-8.02-.39-11.94.4-3.68.74-7.79-.13-11.76.71-2.14.45-5.81.73-8.07-.66-1.54.55-2.74.99-4.12,1.48-3.65-.55-7.41-1.23-11.27-.11-.65.19-1.78,0-2.68.04-4.62.14-9.37-.42-13.85.59-.73.16-1.79.06-2.69.02-2.08-.09-4.15-.3-6.23-.29-2.19,0-4.37.23-6.57.29-2.25.05-4.52-.03-6.78.02-2.17.05-4.4-.26-6.49.49-.86.31-2.8.3-3.91.08-4.27-.83-9.07,1.11-12.43-.46-3.44.19-6.24.47-9.06.48-10.62.05-21.25.05-31.87,0-2.58-.01-5.16-.29-8.74-.51-.09.02-.97.34-1.98.49-.78.12-1.7.02-3.18.02,3.71,1.09,7.11,1.36,10.73,1.24,1.12-.04,2.26-.02,3.39,0,11.39.2,22.78.41,34.17.62,6.46.11,12.73-1.06,19.25-.62,2.15.15,4.43-.28,6.49.48.7.26,2.41.31,3.22.1,3.81-.98,7.89-.45,11.83-.57,4.4-.13,8.64-.99,13.14-.62,1.68.14,3.35.32,5.56.53.28-.08.97-.45,1.75-.49,4.82-.26,9.67-.42,14.49-.67,2.81-.15,5.59-.43,8.4-.6,2.81-.17,5.6.14,8.5-.52,1.81-.41,4.62.11,8.03.26-.46.13.07-.12.66-.16,4.56-.3,9.12-.59,13.7-.82,3.49-.18,7.09.32,10.5-.57.79-.21,2.42.25,4.31.49.16-.05.86-.39,1.64-.43,5.26-.28,10.53-.48,15.79-.75,3.04-.16,6.05-.41,9.08-.61,3.03-.2,6.32.47,9.12-.55,6.67.09,13.38-.5,20.03.34,1.89.24,3.98.12,5.97.22,3.93.2,7.87.38,11.76.68,1.23.09,2.58.44,3.44.85,3.1,1.5,7.52,1.49,11.15,2.28,6.06,2.01,12.11,4.02,18.19,6.02,4.44,1.46,8.93,2.89,13.39,4.34.36.12.79.26.94.44,1.37,1.61,4.56,2.35,7.26,3.37,3.8,1.45,6.86,3.31,10.69,4.74,3.79,1.41,6.43,3.29,10.12,4.72.78.3,1.02.88,1.73,1.25,1.5.77,2.89,1.67,4.77,2.16,3.21.83,5.49,1.95,7.46,3.34,1.15.81,3.03,1.4,5.5,2.49,1.21,1.19,3.42,2.62,7.21,3.77,3.58,1.08,6.29,2.87,8.9,4.5,2.49,1.57,4.83,3.13,8.53,4.08,1.62,1.07,2.96,2.26,4.89,3.18,6.62,3.17,12.55,6.61,18.98,9.83,6.14,3.08,11.72,6.31,17.11,9.66,2.39,1.48,5.66,2.74,8.59,4.07,6.24,2.84,12.01,5.9,18.19,8.74,8,3.67,15.73,7.58,25.74,10.25,1.51.4,2.67,1.09,4.01,1.63,1.16.48,2.19,1.1,3.55,1.38,11.64,2.4,22.62,5.5,35.1,7.03,1.25.15,2.5.35,3.77.43,2.38.14,4.8-.19,7.13.56,1.06.34,3.17.21,4.64.03,6.08-.75,12.14-1.51,18.43-1.86,1.44-.08,2.78-.55,4.18-.82,2.68-.52,5.36-1.02,8.69-1.65-1.43,2.49-5.81,3.01-9.16,3.54-3.41.54-7.01.99-10.55,1.44-4.28.55-8.66.8-13.14.66-1.48-.05-2.99.14-4.47.31-3.66-.03-6.93-1.77-10.88-.53-5.9-.97-11.77-1.93-17.64-2.88-.41-.07-1.03.06-1.33-.04-6.15-2.09-13.66-2.99-19.97-5.08-9.89-3.28-19.07-6.88-28.38-10.47-7.64-2.95-13.16-6.68-20.36-9.75-4.35-1.85-8.26-3.93-12.25-5.95-2.22-1.12-4.17-2.36-6.33-3.51-5.39-2.87-9.71-6.16-16.14-8.64-1.22-.47-1.76-1.31-2.65-2.01-1.78-.75-3.84-1.52-5.63-2.4-1.95-.96-3.62-2.03-5.45-3.04-2.41-1.32-4.39-2.97-7.43-3.85-3.25-.94-4.47-2.38-6.69-3.56-2.82-1.5-5.82-2.93-8.9-4.32-4.93-2.21-9.26-4.63-13.22-7.22-1.53-1-3.83-1.75-5.64-2.67-2.21-1.13-3.79-2.76-6.52-3.37-3.24-.72-3.88-2.14-6.13-3.06-7.66-3.15-14.71-6.64-22.76-9.56-4.41-1.6-8.19-3.59-13.66-4.73-4.27-.89-7.37-2.9-11.22-4.28-5.7-2.04-12.4-3.28-18.93-4.64-1.52-.32-3.54-.09-5.22-.3-1.45-.18-2.73-.63-4.15-.98-3.54,0-7.24-.23-10.76.05-6.26.49-12.77.13-18.86,1.17-.4.07-.9,0-1.35.02-5.51.2-11.04.35-16.53.64-2.73.15-5.39.56-8.49.9,2.53.27,4.61.49,7.31.77,2.84-.49,12.21-.35,22.55.46-.16.07-.32.2-.47.2-7.34-.06-14.48,1.09-21.87.77-1.31-.06-3.05-.17-3.92.14-2.95,1.05-5.46.18-7.87-.19-3.66.41-6.9,1.34-10.6.65-4.87,1.2-10.52.06-15.54,1.11-1.69.35-4,.04-6.01.14-4.81.22-9.61.49-14.41.77-.59.04-1.11.3-1.03.28-2.8-.18-5.23-.67-7-.37-5.28.9-10.63.35-15.91.56-2.36.09-4.7.31-7.75.52-3.31-.55-7.27-.98-11.47-.07-1.31.28-3.07.16-4.63.16-7.01.01-14.02-.01-21.02.02-1.48,0-2.95.21-4.39.47-2.43-.08-4.71-1.09-7.47-.17-.8.26-2.23.41-3.14.27-4.51-.67-9.33-.26-13.71-.81-2.47-.31-4.79-.35-7.18-.37-2-.02-3.76-.4-6.06-.12-4.31.52-8.58-.58-12.94-.77-1.06-.05-2.08-.34-3.13-.36-3.3-.07-6.51-.04-9.81-.56-2.79-.44-5.97-.16-9.1-.57-3.23-.43-7.03-.07-10.35-.76-1.15-.24-2.18-.6-3.11-.86.2-1.6,2.71-1.55,4.78-1.76.69-.52,1.36-1.02,2.17-1.63,2.15-.07,4.29-.14,7.04-.23-1.54-.41-2.4-.64-4.2-1.13,2.55-.47,4.21-.78,5.92-1.09.46.14,1.01.45,1.57.46,6.73.03,13.47.02,20.22-.18-2.79-.61-5.77-.31-8.66-.37-2.93-.06-5.88-.01-9.1-.01-.73-.36-1.57-.79-3.05-1.52,2.49-.21,4.09-.35,6.06-.51.56-.38,1.29-.87,2.17-1.46,2.8-.4,5.77-1.17,9.22-.84,1.9.18,3.76.52,5.66.57,1.69.04,3.42-.32,5.13-.32,1.85,0,3.69.32,5.54.34,5.2.05,10.58.41,15.55-.07,7.58-.75,15.13-.31,22.83-.59.19-.24.4-.51.74-.94-8.15-.92-16.31,1.64-23.39.03-11.42.75-22.18.15-32.88.41-.85-.41-1.6-.76-2.23-1.07.24-.34.25-.61.53-.7,6.44-2.15,12.22-4.68,19.21-6.52,2.98-.79,4.96-2.37,7.31-3.55,8.36-.43,16.4-.47,23.99-1.34,6.81-.78,14.25.16,20.51-1.73,3.61.96,7.11-.21,10.66-.26,3.71-.05,7.42-1,11.44-1.03,1.45,0,2.86-.46,4.34-.57,4.57-.33,9.16-.58,14.43-.91.41-.16,1.43-.56,2.1-.83,7.89.76,14.59-1.12,21.74-1.45,1.03-.05,2.03-.55,3-.52,8.73.25,16.84-1.24,25.15-2.01,3.54-.33,7.27-.5,10.77-1.08,3.44-.57,7.06-.96,10.68-1.24,3.44-.27,6.74-.73,10.3-.9,5.69-.27,11.09-1.61,16.76-2.16,6.15-.6,12.13-1.5,18.38-1.97,5.53-.41,10.89-1.27,16.34-1.91,8.42-.98,16.69-2.29,25.52-2.41,1.89-.03,4.01-.26,5.57-.73,1.71-.51,3.38-.51,5.13-.46,1.65.05,3.28.34,4.91.33,1.72,0,3.46-.36,5.16-.33,7.55.15,15.1.36,22.64.62,1.69.06,3.41.32,5,.62,6.01,1.14,12.03,2.28,17.92,3.54,2.34.5,4.3,1.37,6.52,2.01,2.67.77,6.06,1.05,7.77,2.45,9.02,1.95,15.66,5.48,24.35,7.65,2.29,1.64,6.07,2.47,9.28,3.61.99.35,1.59.94,1.63.96,4.63,1.78,8.43,3.21,12.13,4.68,5.23,2.07,9.42,4.63,15.26,6.46,3.04.95,4.96,2.64,7.56,3.91,1.82.89,3.92,1.67,5.94,2.47.99.39,2.45.63,3.09,1.11,3.85,2.88,11.54,4.1,14.82,7.22.21.2,1.2.21,1.7.38,4.73,1.7,8.99,3.59,12.93,5.69,2.99,1.6,7,2.8,10.6,4.15.66.25,1.93.31,2.2.6,2.66,2.86,9.76,3.73,13.27,6.26,1.69,1.22,4.46,2.29,7.26,2.99,5.68,1.43,8.86,4.22,15.22,5.33,3.33.59,5.97,2.06,8.73,3.24,3.27,1.39,7.31,2.22,10.84,3.37,5.2,1.69,10.7,3.12,16.09,4.64,1.54.44,3.01.7,4.67.98,3,.5,5.73,1.34,9.33,2.22,1.64.19,4.27.36,6.68.79,7.62,1.36,15.27,1.75,23.19.59,4.53-.66,9.14-1.22,13.64-1.81,2.58-3.66,4.92-7.25,7.66-10.77,1.83-2.35,2.14-4.85,3.96-7.18.22-.28-.18-.7.15-.9,4.89-2.98,4.51-6.8,7.76-10.06,1.41-1.41,1.44-3.11,2.3-5.15,3.15-1.46,2.9-4.02,4.67-6.25,2.44-3.06,3.9-6.32,7.07-9.2,2.58-2.34,4.81-4.8,8.38-6.99,2.88-1.76,5.78-3.7,7.01-6.02,1.21-2.29,3.52-4.44,6.12-6.51,1.74-1.38,3.51-2.72,4.31-4.34.5-1.01,2.68-1.82,3.73-2.81,2.39-2.23,5.07-4.44,6.61-6.8.88-1.34,2.87-2.22,4.08-3.38,4.9-4.68,10.05-9.31,15.11-13.96,2.02-1.86,3.73-3.86,6.22-5.53,4.47-2.99,7.58-6.3,11.84-9.32,2.83-2.01,4.74-4.31,7.89-6.2,2.15-1.29,3.29-2.61,4.3-4.11,3.68-.51,4.58-2.21,6.39-3.53,3.84-2.79,7.44-5.64,11.39-8.39,1.34-.93,3.49-1.61,5.16-2.45,1.77-.89,3.4-1.85,5.56-3.03,3.12-.06,4.64-2.08,8.52-2.23.19,0,.36-.16.56-.17,4.04-.23,8.11-.68,12.13-.6,3.61.07,7.49.44,10.66,1.19,5.64,1.35,10.3,3.38,13.81,5.83,3.22,2.24,5.53,4.64,7.49,7.22,2.24,2.94,4.45,5.94,7.32,8.82,4.56,4.58,8.2,9.36,12.19,14.06,1.78,2.1,3.4,4.22,4.85,6.38,1.46,2.17,3.72,4.24,5.37,6.36,2.46,3.16,4.87,6.33,7.63,9.45.48.54,1.19,1.04,1.8,1.55.74.61,2.15,1.23,2.11,1.84-.13,1.87,2.48,3.18,3.95,4.72,1.86,1.96,3.84,3.85,7.54,5.26.61.23.82.69,1.2,1.04,5.03.57,9.67,2.04,16.19,1.23,4.68-2.52,9.92-5.35,15.42-8.31.79-.54,1.75-1.28,2.91-1.94,1.17-.68,2.43-1.34,3.85-1.9,1.66-.65,3.48-1.24,5.36-1.76,1.67-.47,3.45-.9,5.3-1.17,1.81-.27,3.78-.32,6.1-.51,8.95.94,13.89,4.46,20.72,7.85.79.18,2.74.64,4.96,1.15h7.51c3.21-1.37,6.57-2.87,10.16-4.26,9.08-3.51,13.84-2.99,20.89-.78,2.43.76,4.71,1.5,7.83,1.33,3.74-1,6.98-2.73,11.72-2.41,3.76.25,8,.23,10.83,1.79,2.04,0,4.07,0,6.08,0,1.57-.39,3.12-.77,4.37-1.08,3.43.23,6.64.45,10.09.68v1.46c-3.18.56-6.06.06-8.43-.44-3.56.75-6.68,1.41-9.64,2.04-3.92-.9-7.43-1.7-10.85-2.48-4.16.93-9.82.46-13.18,3.05,1.8-.33,2.86-.58,3.98-.72,2.5-.31,5.03-.58,6.78-.77,3.21.76,5.56,1.31,8.98,2.11,4.34-.28,9.71-.63,16.02-1.05,1.21.4,3.31,1.1,5.77,1.91-1.04.61-1.82,1.07-2.75,1.62-3.35-.52-6.6-1.03-9.78-1.53-1.55.55-2.76.99-3.9,1.39-5.51.15-10.76.03-14.93-1.83h-6.02c-2.18.53-4.25,1.03-7.03,1.7h12.59c2.29.67,4.32,1.26,6.69,1.95h6.3c2.84-.47,5.09-1.14,7.32-1.12,2.65.02,5.29.62,8.01.97v2.44c-.53.07-1.28.3-1.72.21-1.58-.31-3.06-.74-5.2-1.27-5.69.26-12.09.55-18.55.84-2.67-.85-5.19-1.66-7.78-2.48-4.57.21-9.38.42-13.25.6-4.09-1.07-7.3-1.91-10.41-2.72-2.35.37-4.38.69-7,1.11,5.09.35,9.47.75,12.91,2.41,1.54.75,4.2,1.01,6.29,1.48,2.52-.36,4.95-.92,7.46-1,2.26-.07,4.6.39,7.44.68.27.05,1.08.21,1.87.38q6.46,1.46,12.31.59c5.79-.86,6.1-.86,11.28.16.68.62,1.35,1.23,2.18,1.99-1.49.53-2.86,1.02-4.24,1.52-.61-.61-1.22-1.23-1.81-1.82-4.89.19-9.33-.31-13.64.6-1.23.26-3.35.18-4.53-.15-4.16-1.15-8.72-1.69-12.6-2.14-3.08.35-5.51.62-8.33.94-3.76-.92-7.76-1.9-12.05-2.95-2.42.3-5.92-.67-8.01,1.01,2.94.32,5.67.61,8.16.88,3.15,1.08,6.14,2.1,8.8,3.01,6.1-.25,11.78-.48,17.69-.72,1.26.76,2.35,1.42,3.01,1.81,2.69.22,4.57.37,6.58.53,3.64-.32,7.24-1.85,10.59-.56,2.51-.13,4.19-.22,5.87-.31.97.55,1.93,1.1,3.16,1.8-.69.39-1.35.76-2.36,1.33-6.91-1.92-13.98-1.22-21.63-.05-3.12-.93-6.6-1.96-10.76-3.19-1.33.16-3.56.28-5.46.71-5.87,1.32-10.59.22-15.14-1.33-.88-.3-1.48-.77-2.1-1.11h-7.46c-1.77.59-3.84,1.29-7.18,2.42,2.63-.08,3.87.04,4.69-.17,4.2-1.11,7.6-.35,10.93.81,1.75.61,3.54,1.19,5.68,1.9,5.85-.25,11.97-.51,18.04-.78,3.14.83,6.17,1.63,9.59,2.53h5.67c.97-.38,1.99-.78,3.01-1.18,4.54-.41,7.71,1.21,11.68,1.65.58.06.9.61,1.91,1.34-5.14-.21-9.39-.54-13.61-.5-3.9.04-7.79.49-11.48.74-3.96-1.22-7.56-2.33-11.34-3.49-4.65,1.48-9.52,2.24-14.35,2.09-4.14-1.36-7.88-2.6-11.57-3.81-2.64.55-5.45.7-6.5,2.38,7.17-.09,12.11,1.65,16.81,3.65.76.32,1.95.44,3.15.69,5.64-1.57,12.17-.94,18.69-1.1,1.42.59,2.9,1.21,4.86,2.03,5.3-.26,10.98-.55,16.5-.82,2.3.8,6.18.84,5.2,2.96-1.29.09-2.75.2-4.16.3-1.17-.45-2.19-.85-3.84-1.49-3.29.36-7.05.76-11.34,1.23-1.41-.16-3.51-.39-6.15-.69-2.68-1.36-6.08-2.64-11.34-2.15-8.37,2.81-12.06,2.53-21.67-1.7-2.28-.25-4.38-.48-6.86-.75-4.09.63-7.04,1.97-7.87,4.18-.44.21-.88.41-1.33.62-2.83,0-4.03,1-5.46,1.86l-1.33.62c-3.77.42-7.55.84-10.89,1.21-1.99-.31-3.61-.56-5.23-.82-7.88-3.17-11.67-8.19-22.74-10.37-3.74.97-7.88,2.03-11.87,3.06-1.08,1.13-2.04,2.13-3.51,3.66,4.6-1.18,7.99-2.05,11.15-2.87,2.98.27,5.75.52,8.39.75,3.13,1.13,6.34,2.22,9.33,3.41,1.47.59,2.61,1.36,3.8,2.08,2.37,1.44,4.66,2.91,6.72,4.2h7.71c2.44-1.39,4.93-2.8,7.41-4.21.44-.21.87-.42,1.31-.62,2.79-.02,3.99-1.02,5.47-1.85.44-.21.87-.42,1.31-.62,2.88-.44,5.76-.88,9.04-1.38.7.18,1.59.49,2.6.64.8.13,1.74.07,3.02.11,1.56.77,3.13,1.65,4.96,2.42,3.02,1.26,6.37,1.73,10.2.62,1.65-.48,3.47-.83,4.28-1.02,3.72.2,6.52.36,10.13.56,2.08.59,4.87,1.38,7.63,2.16,6.86-1.01,13.68-2.04,20.45.73-1.1.53-1.96.95-3.13,1.51-2.24-.45-4.42-.89-7.51-1.51-4.05.24-9.07.53-14.24.84-2.63-.84-5.14-1.64-8.12-2.59h-5.88c-2.12.51-4.51,1.43-7.17,1.64-2.61.21-5.5-.3-7.41-.44-3.97-1.43-7.27-2.62-10.92-3.94-1.93.45-4.11.74-5.7,1.36-5.1,1.98-10.07,4.04-14.89,6.16-3.04,1.34-6.19,2.32-11.04,1.88-1.54-.57-3.4-1.27-5.98-2.23-4.29-3.54-10.24-7-18.48-9.38-2.33.25-4.43.47-7.18.76-3.33,1.75-7.13,3.74-11.11,5.83v1.41c2.28-.81,4.12-1.47,7.08-2.53,2.87-.2,7.19-.5,10.95-.76,5.35,1.31,9.12,2.86,12.22,4.92,2.46,1.64,5.41,3.22,9.21,4.37.82.25,1.15.82,1.61,1.17,1.78.28,3.41.55,5.04.81.36-.08.86-.12,1.12-.25,4.29-2.21,9.54-3.99,13.26-6.5,1.69-1.14,5.16-1.91,8.17-2.43,2.99-.51,5.88.48,8.71.96.79.13,1.61.81,2.02.74,2.98-.5,2.94,1.29,5.26,1.34,1.91.04,3.79.38,5.91.61,4.01-.87,8.11-1.99,13.05-1.33,2.19-.92,3.56.19,4.99.54,2.28.56,4.23,1.4,5.83,1.95,1.97-.19,3.28-.32,5.69-.56-3.19,2.22-7.06,1.83-10.92,1.87-1.63-.71-3.42-1.49-5.75-2.5-5.19.11-10.13,1.63-17.43,1.79-4.12-.95-9.72-2.25-15.95-3.69-2.94,1.06-6.22,2.25-10.58,3.82-.23.16-1.28.88-2.35,1.61.55.06,1.1.21,1.36.14,1.85-.5,3.55-1.02,5.68-1.39,2.85-.49,4.95-.48,7.46.17,2.66.69,5.5,1.23,8.17,1.91.84.21,1.39.67,2.42,1.18,5.43.23,9.91-1.32,15.45-2.5,1.28.08,3.43,0,5.14.37,4.1.87,7.99,1.96,12.93,3.2-1.83.43-3.37.8-5.61,1.33-2.52-.72-6.03-1.72-10.5-2.99-5.16-.03-10.19,1.86-16.34,2.53-4.51-.51-8.6-1.61-12.38-3.09h-6.09c-.87.18-1.99.31-2.83.61-3.31,1.18-6.88,2.27-9.71,3.67-3.9,1.93-8.36,3.23-13.97,3.73-7-.92-9.92-3.89-14.33-6.08-3.17-1.58-6.41-3.09-10.41-4.55-5.47.58-11.35.78-14.47,3.75-1.2,1.14-4.05,1.91-6.05,2.89-.65.32-.97.77-1.1,1.34,5.05-2.67,11.68-3.4,18.51-3.62,3.43.78,6.55,1.49,9.98,2.27,3.17,2.68,7.39,5.18,13.08,7.01,1.83.59,4.52.63,6.29.85,4.53-1.16,7.82-2.32,10.3-4.13,3.13-2.28,8.52-3.51,13.89-4.49,4.18-.76,7.83.01,10.73,1.46,2.87,1.43,6.17,2.31,10.94,1.97,2.2-.51,4.73-1.11,7.54-1.77h7.45c2.72.76,5.7,1.6,8.71,2.45h5.81c2.24-.66,4.28-1.25,6.3-1.85h7.92c1.09.55,2.38,1.2,3.6,1.82-.56.33-.82.62-1.07.62-2.18-.01-4.32.21-6.52-.37-1.39-.37-3.48-.18-3.97-.2-4.6.97-8.12,1.72-12.4,2.63-4.29-1.15-8.95-2.41-13.89-3.73-2.9.69-6.15,1.46-9.83,2.33h-7.07c-2.06-.89-5.18-.97-7.26-2.24-1.98-1.21-6.03-.99-9.64-.74-4.04,2.29-10.39,3.66-14.69,6.58,4.65-.36,6.56-1.78,9.05-2.76,1.91-.29,3.76-.56,5.24-.79,7.66.17,11.86,3.11,17.67,4.01,5.82-.97,11.3-1.88,16.72-2.78,2.95.77,5.79,1.51,9.46,2.47,7-.74,14.89-1.89,23.98-1.02.39.39,1.06,1.08,2,2.04-2.24.11-3.73.18-5.12.25-1.16-.46-2.19-.86-3.17-1.25-5.59-.33-10.15,1.05-15.69,1.77-1.57-.29-3.72-1.18-5.47-.26-3.42-.73-6.55-1.39-9.45-2.01-4.41.78-8.53,1.67-12.84,2.24-4.44.59-8.09-.62-11.62-1.64-1.1-.32-1.79-.92-2.53-1.32h-5.83c-7.18,1.42-11.5,4.72-17.27,7.29-4.54.43-9.03,1.05-14.31.54-3.06-.69-5.92-1.78-7.99-3.47-1.83-1.5-4.37-2.98-7.38-3.96-3.22-1.05-6.21-2.71-10.69-2.31-3.09.82-5.77,1.74-8.78,2.27-4.29.76-7.32,2.1-10.24,3.64,4.93,1.08,7.06-1.37,10.84-1.6,7.14-.12,13.91.47,19.15,1.9,5.93,3.25,10.11,6.65,20.17,7.39,2.92-1.31,6.21-2.79,9.5-4.28Zm-450.53-2.48c.29.15.58.3.87.46.12-.05.24-.11.36-.16-.33-.14-.66-.27-.99-.41-.45-.21-.9-.41-1.36-.62-.31-.15-.61-.31-.92-.46-.12.05-.23.11-.35.16.34.14.68.28,1.02.41.45.21.91.41,1.36.62Zm-14.92-6.19c.29.15.58.3.87.46.12-.05.24-.11.36-.16-.33-.14-.66-.27-.99-.41-.31-.15-.61-.31-.92-.46-.12.05-.23.11-.35.16.34.14.68.28,1.02.41Zm-8.14-3.72c.45.2.9.4,1.35.61-.07.86.85,1.27,2.72,1.25.29.15.58.3.87.46.12-.05.24-.11.36-.16-.33-.14-.66-.27-.99-.41-.9-.42-1.8-.84-2.7-1.26-.46-.2-.91-.4-1.37-.6-.46-.2-.92-.41-1.38-.61-3.86-3.33-11.56-5.09-16.08-8.15-4.71-1.06-7.58-3.08-11.42-4.58-2.49-.98-5.15-1.86-7.73-2.78-.46-.2-.91-.4-1.37-.6-.45-.21-.9-.41-1.36-.62-.45-.21-.9-.41-1.36-.62-.7-2.07-4.89-2.46-7.79-3.48.6,2.06,4.44,2.67,7.54,3.6.45.21.9.41,1.36.62.45.21.9.41,1.36.62.45.2.9.4,1.35.61-.05,1.22,2.03,1.75,3.72,2.39,1.85.71,4.04,1.28,5.59,2.1,4.07,2.17,7.7,4.5,13.21,6.03,1.3.36,2.42.96,3.24,1.56,2.29,1.67,5.67,2.66,9.46,3.43.46.2.93.4,1.39.6Zm474.94-44.7c-.45-.2-.9-.4-1.35-.61-.1-.3-.21-.6-.32-.92-2.03-.46-4.08-.92-5.91-1.34-1.18.27-2.13.49-3.08.71,2.48.68,4.95,1.35,7.28,1.99.63-.12,1.21-.22,1.78-.32l1.37.6c.31.15.61.31.92.46.12-.05.23-.11.35-.16-.34-.14-.68-.28-1.02-.42Zm-54.46,37.16c-.35.13-.69.27-1.04.4.27.13.54.26.81.38.16-.22.33-.45.49-.67.44-.21.87-.42,1.31-.62.44-.21.89-.42,1.33-.63.35-.13.69-.27,1.04-.4-.27-.13-.54-.26-.81-.38-.16.22-.33.45-.49.67-.44.21-.88.42-1.32.63-.44.21-.88.41-1.33.62Zm-714.56-13.51c.34-.14.67-.28,1.01-.42-.12-.05-.24-.11-.35-.16-.3.16-.6.31-.91.47-.33.13-.67.27-1,.4l.36.17.9-.45Zm-54.25-1.24c.34-.14.67-.28,1.01-.42-.12-.05-.24-.11-.35-.16-.3.16-.6.31-.91.47-.33.13-.67.27-1,.4.12.06.24.11.36.17.3-.15.6-.3.9-.45Zm773.1-.62c.34-.14.67-.28,1.01-.42-.12-.05-.24-.11-.35-.16-.3.16-.61.31-.91.47-.44.21-.88.41-1.33.62-2.94-.05-3.93,1.23-5.94,1.82-.34-.1-.85-.34-1.03-.3-2.99.69-6.1.58-8.44-.34-2.24-.88-5.08-1.3-6.76-2.72-2.27-1.92-4.44-3.82-6.42-5.81-1.73-1.74-1.95-4-6.42-5.04-.39-1.87.47-4.01-5.93-5.11,2.22,2.05,3.94,3.64,5.66,5.23,2.28,6.27,7.13,11.99,16.71,16.62h8.89c3.2-1.35,6.58-2.79,9.97-4.22.44-.21.87-.42,1.31-.62Zm-17.88,35.17c-.34.14-.67.28-1.01.42.12.05.24.11.35.16.3-.16.6-.31.91-.47.33-.13.67-.27,1-.4-.12-.06-.24-.11-.36-.17-.3.15-.6.3-.9.45Zm-66.45-98.34c.29.15.58.3.87.46.12-.05.24-.11.36-.16-.33-.14-.66-.27-.99-.41l-.67-1.03c-.3.06-.61.13-.91.19.44.32.89.63,1.33.95Zm-9.25,41.37c-.16-.36-.32-.73-.48-1.09l-.97.16c.39.35.78.7,1.17,1.04l1.38,1.23c.21.35.42.69.63,1.04.3-.06.59-.13.89-.19-.41-.32-.82-.65-1.24-.97-.46-.41-.93-.81-1.39-1.22Zm-155.99,67c.35-.34.7-.69,1.06-1.03-.29-.05-.59-.09-.88-.14-.14.35-.28.7-.42,1.05-.33.13-.67.27-1,.4.12.06.24.11.36.17.3-.15.6-.3.9-.45Zm176.09-98.46c.29.15.58.3.87.46.12-.05.24-.11.36-.16-.33-.14-.66-.27-.99-.41-.46-.41-.92-.82-1.38-1.23-.54-.61.75-1.49-1.33-1.87-.03-.88-1.02-1.48-2.71-1.86-.16-.36-.32-.73-.48-1.09-.32.05-.64.11-.97.16.39.35.78.7,1.17,1.04.03.88,1.02,1.48,2.7,1.86.44.62.88,1.25,1.32,1.87.47.41.95.81,1.42,1.22Zm4.35-15.62c-.47-.4-.93-.81-1.4-1.21.05-1.72-2.09-3.02-4.09-4.34-.29-.15-.58-.3-.87-.46-.12.05-.24.11-.37.16.33.14.66.27,1,.41.09.69.18,1.38.27,2.02,1.3.79,2.55,1.56,3.79,2.32.46.41.93.81,1.39,1.22.21.35.42.69.63,1.04.3-.06.59-.13.89-.19-.41-.32-.82-.65-1.24-.97Zm2.65,16.12c-.29-.15-.58-.3-.87-.46l-.36.16c.33.14.66.27.99.41.22.34.44.68.67,1.03.3-.06.61-.13.91-.19-.44-.32-.89-.63-1.33-.95Zm6.56-4.84c.29.15.58.3.87.46.12-.05.24-.11.36-.16-.33-.14-.66-.27-.99-.41-.22-.34-.44-.68-.67-1.03-.3.06-.61.13-.91.19.44.32.89.63,1.33.95Zm7.03,18.46c-.16-.36-.32-.73-.48-1.09-.32.05-.64.11-.97.16.39.35.78.7,1.17,1.04.22.34.44.68.66,1.03.3-.07.59-.13.89-.2-.43-.31-.85-.63-1.28-.94Zm-12.49-24.65c.16.36.32.73.48,1.09.32-.05.64-.11.97-.16-.39-.35-.78-.7-1.17-1.04-.22-.34-.44-.68-.66-1.03-.3.07-.59.13-.89.2.43.31.85.63,1.28.94Zm17.91,30.84c-.16-.36-.32-.73-.48-1.09-.34.04-.67.09-1.01.13.4.36.81.72,1.21,1.08.17.57.35,1.14.59,1.94,1.14-.93,1.53-1.57-.32-2.06Zm-48.79,7.41c-.47-.4-.93-.81-1.4-1.21-.11-1.18-.64-2.28-2.74-3.08-.38-.67-.48-1.41-1.18-2-5.21-4.34-8.29-9.12-13.67-13.45-3.37-2.71-7.45-5.14-11.19-7.71-3.72-.63-5.79-2.31-9.89-2.88-6.05-.83-11.58-.66-17.34.43-.73.6-1.47,1.21-2.18,1.83-.02.02.29.12.65.26,1.35,0,3.15.23,4.43-.04,7.53-1.61,13.77.3,19.31,1.9,4.92,1.42,9.15,3.57,12.18,6,.84.67,1.06,1.54,2.11,2.12,1.97,1.09,3.84,2.07,4.67,3.56.78,1.39,3.42,2.54,4.6,3.91,1.89,2.2,4.07,4.3,7.21,6.18.17,1.17.77,2.25,2.75,3.08.46.41.93.81,1.39,1.22.17.57.34,1.15.58,1.92,1.17-.9,1.45-1.54-.29-2.05Zm49.87,10.67c.16.36.32.73.48,1.09.32-.05.64-.11.97-.16-.39-.35-.78-.7-1.17-1.04-.17-.57-.35-1.14-.59-1.94-1.14.93-1.53,1.57.32,2.06Zm152.16-5.08c-.29-.15-.58-.3-.87-.46-.12.05-.24.11-.36.16.33.14.66.27.99.41,1.36.21,2.73.41,4.09.62.29.15.58.3.87.46.12-.05.24-.11.36-.16-.33-.14-.66-.27-.99-.41-1.36-.21-2.73-.41-4.09-.62Zm-803.16,19.2c-1.16.22-1.7.64-.76,1.07.94.43,1.85.2,2.34-.34,2.16-.06,4.33-.12,6.49-.18,0-.12,0-.24,0-.37-2.17-.06-4.33-.12-6.5-.18-.19-.14-.37-.28-.56-.42-.34.14-.67.28-1.01.41Zm-22.84,0c-.29-.15-.58-.3-.87-.46-.12.05-.24.11-.37.16.33.14.66.27,1,.41,1.08.88,2.44.59,4.98.15-2.32-.13-3.53-.2-4.73-.27Zm49.95-11.77c-1.69.07-3.39.14-5.08.21,1.83.21,3.81,1.01,5.34-.09,1.24-.08,2.47-.16,4.24-.28-2.04-.51-3.45-.7-4.49.16Zm-91.99,14.98c2.15-.07,4.3-.14,6.44-.21-2.3-.31-4.66-.91-6.7.08-1.69.07-3.37.14-5.06.22,1.88.39,3.79.94,5.32-.09Zm481.23,87.19c-1.51.67-2.41,1.43-2.34,2.49,2.69-.53,2.43-1.5,2.61-2.38.8-.34,1.59-.68,3.35-1.42-2.1.22-2.69.29-3.21.34-.16.38-.28.67-.4.97Zm205.12-138.72c-.47-.61-.93-1.22-1.4-1.83-.38-.85-.46-1.76-1.2-2.54-1.26-1.32-2.84-2.6-4.48-3.83-1.09-.82-2.53-1.54-3.81-2.31-2.07-1.9-2.1-4.33-6.81-5.55-1.19-2.1-3.26-4.02-7.18-5.25-3.7-1.16-7.43-2.21-12.5-2.29-5.13-.08-5.1-.45-13.22.67h10.95c8.94,1.21,14.17,3.52,19.17,5.98.76.37,1.66.68,2.5,1.02,1.89,1.95,2.97,4.1,6.83,5.55.06.41-.17.89.22,1.21,3.02,2.5,6.16,4.98,9.27,7.46.6.59-.74,1.49,1.39,1.84.9.83,1.79,1.66,2.69,2.49.41.66.72,1.33,1.25,1.96.38.45,1.52.84,1.53,1.26.01,1.64.64,3.19,2.78,4.51,2.26,1.38,2.34,3.13,4.13,4.57.62.5,1.67.89,2.52,1.33,1.01,1.61.75,3.43,3.78,4.96,1.21-2.23-1.37-3.62-3.51-5.08-.12-.5.12-1.11-.42-1.48-3.26-2.23-3.13-5.01-6.3-7.32-2.05-1.5-2.68-3.44-5.48-4.83-.1-.49-.2-.98-.32-1.55-.73-.29-1.55-.62-2.36-.94Zm-548.01,32.34c1.14.1,2.27.2,3.7.33.78-.24,1.93-.59,3.08-.95.22,0,.53-.04.66.01,3.49,1.45,6.51-.17,9.76-.3-.06-.08-.13-.16-.32-.41-.22-.1-.69-.32-.58-.27-2.54.12-4.45.16-6.32.31-1.18.09-2.3.35-3.45.53-1.56.02-3.14,0-4.67.1-.74.05-1.41.34-2.11.52-1.24.08-2.47.16-4.24.28,2.04.51,3.45.7,4.49-.16Zm401.49,40.87c.94-.71,1.89-1.42,3.05-2.29-1.32-.11-1.91-.15-2.92-.24-.14.85-.27,1.63-.4,2.41-2.26.69-1.07,1.57-.21,2.43.16-.77.32-1.54.47-2.32Zm-424.79-25.51c-2.16.06-4.31.11-6.5.17.72.52,1.29.94,1.92,1.4,2.07-.62,3.46-1.03,4.84-1.44,2.14-.07,4.28-.14,6.42-.21-2.3-.3-4.65-.91-6.68.09Zm255.25,38.39c-.37-1.03-1.12-1.86-4.67-1.65,1.81.73,3.1,1.25,4.4,1.77.42,1.5,2.81,1.56,5.63,1.28-1.79-.47-3.57-.93-5.36-1.4Zm-268.81-47.68c-3.05.06-6.1.12-9.14.18,3.17.25,6.43,1.11,9.4-.06,1.25-.08,2.51-.15,3.88-.24-.15-.42-.24-.69-.36-1.01-1.37.41-2.57.76-3.78,1.12Zm293.2,56.97c-.29-.15-.58-.3-.87-.46-.12.05-.24.11-.36.16.33.14.66.27.99.41,1.48.84,1.81,2.38,6.18,1.96-1.91-1.03-3.02-2.05-5.94-2.08Zm-7-2.36c.29.15.58.3.88.46.12-.05.24-.11.36-.16-.33-.14-.66-.27-.99-.41-.11-.29-.22-.58-.28-.76-1.82-.61-3.5-1.17-5.17-1.72-.29-.15-.58-.3-.88-.46-.12.05-.24.11-.36.16.33.14.66.27.99.41.47,1.44,2.27,2.28,5.45,2.48Zm306.75-91.76c-.29-.15-.58-.3-.87-.46-.12.05-.24.11-.36.16.33.14.66.27.99.41,1.37,1.45,1.36,3.16,4.09,4.34.29.15.58.3.87.46.12-.05.24-.11.36-.16-.33-.14-.66-.27-.99-.41-.9-1.54-.43-3.34-4.09-4.34Zm-561.75,39.63c-3.97.27-7.93.54-11.9.81,4.4.75,8.31.14,12.15-.68,1.24-.08,2.47-.16,4.24-.28-2.04-.51-3.44-.7-4.49.16Zm-71.64,5.69c3.52-.06,7.04-.12,10.76-.18-.25-.48-.38-.76-.52-1.04-1.73-.05-3.28-.09-4.83-.13.62-.19,1.21-.54,1.85-.55,2.01-.05,4.03.02,6.05.05.28.15.52.43.83.44,6.85.31,13.57.13,19.99-1.12,3.43,1.51,6.62-.16,9.9-.22,3.24-.06,6.41-.82,9.62-1.27-5.6-.13-11.03.1-16.45.36-.39.02-.7.29-1.11.33-2.51.29-5.02.57-7.56.8-2.52.22-5.24.69-7.58.46-2.64-.27-4.94.64-7.4.1-1.14-.18-2.31-.55-3.42-.52-6.59.16-13.17.42-20.31.67-.92.27-2.26.67-4.85,1.43,2.54.12,3.91.39,4.74.19,4.9-1.18,10.08-1.26,15.39-1.01-.74.18-1.45.39-2.22.55-1.02.21-2.08.37-3.13.55-1.24.08-2.47.16-4.24.28,2.04.51,3.45.7,4.49-.16Zm691.71-6.93c-.29-.15-.58-.3-.87-.46-.12.05-.24.11-.36.16.33.14.66.27.99.41,1.15.6,2.31,1.2,3.38,1.76h6.97c.59-.3,1.18-.61,2.25-1.16-4.76-.07-8.76.21-12.36-.71Zm-345.86,60.07c-.74-.36-1.48-.73-3.11-1.53.49.96.62,1.23.75,1.47.82.07,1.47.13,2.12.18,2.77,1.76,6.64,2.84,10.88,3.7.65.52,1.3,1.04,1.58,1.27,5.35,1.94,11.28,3.02,16.11,4.69,10.18,3.51,21.8,5.17,34.68,6.87-2.82.06-4.72.12-6.63.14-2.25.02-4.51,0-6.72,0-.59-.2-1.08-.47-1.69-.55-7.86-1.04-14.58-3.1-21.55-4.93-4.53-1.19-9.22-2.31-13.35-3.75-4.55-1.59-10.08-2.62-13.56-4.83-12.12-3.21-21.79-7.79-32.2-11.96-3.94-1.58-8.07-3.05-12.07-4.6-3.21-1.24-6.45-2.48-9.48-3.81-1.72-.76-2.85-1.8-4.59-2.55-2.89-1.25-5.84-2.51-9.14-3.52-3.38-1.04-5.22-2.66-8.18-3.85-6.54-2.63-12.91-5.36-19.19-8.12-6.18-2.72-12.07-5.57-18.25-8.28-5.04-2.22-10.18-4.4-15.55-6.44-3.63-1.38-8.4-2.15-10.65-4.28-.37-.35-1.17-.69-1.95-.83-4.79-.85-7.65-2.81-11.57-4.15-3.01-1.03-5.79-2.2-8.72-3.28-1.53-.56-3.38-.98-4.7-1.63-5.72-2.79-13.54-4.03-20.48-5.92-.69-.19-1.77-.07-2.67-.1-.93-.39-1.74-.9-2.83-1.14-3.59-.77-7.56-1.18-11.09-1.96-3.29-.73-6.1-.67-9.15,0-.69-.18-1.37-.51-2.08-.53-5.26-.13-10.48-.04-15.53.91,2.99.29,5.91.57,8.71.84,2.93-.37,5.79-.74,8.65-1.1.47.18.89.47,1.43.53,5.34.65,10.71,1.25,16.06,1.88,1.86.22,3.71.46,5.57.69,10.92,3,20.05,7.14,30.98,10.37.75.35,1.7.89,2.86,1.3,2.6.92,5.53,1.66,7.95,2.66,7.31,3.03,14.44,6.14,21.63,9.22.99.42,1.8.96,2.92,1.29,1.24.36,2.75.53,3.57.68,2.16,1.29,4,2.38,5.85,3.47,3.49.97,7.4,1.93,9.36,3.43,2.93,2.24,8.29,3.13,11.51,5.2,2.34,1.5,6.38,2.44,8.43,4.22.68.59,2.24.97,3.43,1.42,1.35.52,2.69,1.05,4.15,1.5,2.16.67,2.71,1.96,5.32,2.56,2.11.48,3.6,1.53,5.36,2.34,1.92.87,3.8,1.77,5.77,2.62,1.72.74,3.65,1.39,5.32,2.16,1.89.87,3.46,1.88,5.41,2.71,3.12,1.33,6.84,2.41,9.6,3.87,5,2.64,10.71,4.99,16.43,7.2,6.37,2.46,12.93,4.87,19.55,7.23,2.15.77,3.97,1.73,6.13,2.49,3.78,1.33,7.52,2.63,12.05,3.53,3.93.78,7.11,2.33,10.69,3.49,3.19,1.04,6.63,1.83,10.48,2.3,4.59.56,9.08,1.29,13.59,1.98.8.12,1.5.39,2.44.64-1.19.5-1.69.7-2.2.92-5.68-.59-11.32-1.17-16.67-1.73-1.58-.68-2.89-1.25-3.86-1.67-1.48-.19-2.6-.25-3.56-.46-8.22-1.79-15.31-4.39-22.78-6.72-3.65-1.14-6.7-2.67-10.2-3.92-5.02-1.79-10.48-3.34-15.27-5.24-7.37-2.93-14.32-6.08-21.48-9.12-1.62-.69-3.49-1.26-5.05-1.98-1.68-.77-2.85-1.82-4.75-2.43-2.72-.87-5.02-1.8-7.05-3.03-1.96-1.19-5.04-1.98-7.41-3.05-8.05-3.62-15.97-7.3-24.02-10.92-2.03-.91-5.04-1.49-6.49-2.54-2.57-1.87-6.24-3.15-9.58-4.63-3.31-1.46-6.4-3.04-9.59-4.56-.16-.07-.32-.17-.51-.2-3.4-.39-4.7-1.73-5.98-2.8-2.44-.65-4.79-1.06-6.55-1.77-6.41-2.6-12.6-5.32-18.93-7.96-1.78-.74-3.68-1.46-5.73-2.03-2.3-.64-3.42-1.75-5.23-2.57-3.91-1.77-9.07-2.64-13.1-4.34-3.95-1.67-8.99-2.8-13.61-4.12-3.68-1.06-7.42-2.08-11.18-3.08-4.8-1.28-10.47-.13-15.5-1.18-2.05-.43-4.75.38-6.99.46-9.14.29-17.71,1.78-26.76,2.24.64.19,1.28.32,1.89.3,4.4-.12,8.84.31,13.2-.55,1.72-.34,4.05.04,6.04-.09,1.85-.12,3.28.6,5.36.26,1.4-.23,3.35.39,5.02.36,9.17-.2,17.32,1.55,24.72,3.47,8.12,2.1,17.3,3.71,23.34,7.28.36.22,1.15.27,1.69.44,6.99,2.12,12.38,5.19,19.91,6.99.57.14.95.44,1.45.64,5.28,2.21,10.47,4.45,15.87,6.6,3.14,1.25,6.61,2.32,9.59,3.36,1.04.81,1.55,1.75,2.84,2.12,6.19,1.82,9.97,4.97,16.96,6.32.37.07.68.23.95.38,2.51,1.29,4.87,2.65,7.53,3.87,2.77,1.27,5.65,2.51,8.08,3.89,2.24,1.27,5.44,1.99,7.58,3.27,2.15,1.28,4.66,2.44,6.84,3.71,2.15,1.26,5.37,1.98,7.36,3.35,1.94,1.34,4.38,2.56,6.88,3.7,2.55,1.16,5.53,2.13,8.18,3.25,2.81,1.19,5.35,2.53,8.21,3.69,2.43,1,5.15,1.85,8.43,3,.81.43,2.07,1.28,3.73,1.92,2.33.9,5.07,1.58,7.44,2.47,3.86,1.44,7.56,2.97,13.13,5.18,2.71.81,7.93,1.99,12.06,3.72,3.05,1.28,6.67,1.91,10.02,2.76,5.08,1.3,10.79,2.06,16.1,3.19,6.94,1.47,14.1,2.56,21.65,3.13.6.05,1.02.56,1.66.93-8.13,1.09-14.92-.6-21.77-1.37-6.18-.7-11.98-2.25-17.69-3.65-7.3-1.79-14.34-3.8-22.5-5.99-.15-.11-.68-.85-1.79-1.28-4.23-1.62-8.45-3.26-13.04-4.65-6.23-1.89-11.8-4.06-16.92-6.54-3.81-1.85-8.48-3.32-12.37-5.13-13.29-6.18-26.4-12.44-39.61-18.66-3.78-1.78-7.7-3.49-11.48-5.27-1.04-.49-1.8-1.1-2.7-1.65-.68-.02-1.35-.04-1.79-.05-1.69-.89-3.13-1.78-4.87-2.52-4.07-1.74-8.27-3.42-12.47-5.09-2.16-.86-4.57-1.6-6.65-2.49-2.9-1.25-6.09-2.4-7.98-4.07-5.12-1.12-5.07-1.14-8.67-3.11-1.59-.87-3.11-2.11-5.18-2.4-4.99-.7-7.78-2.6-11.61-3.88-5.37-1.8-10.01-4.06-15-6.1-.64-.26-1.45-.44-2.18-.66-5.84-1.76-12.52-2.76-18.67-4.26-4.35-1.06-9.25-1.66-14.41-2.56-8.81.11-18.19-.18-27.53.57-3.19.26-6.43.2-10.05,1.38,5.11-.12,9.44.03,13.5-.39,4.5-.46,8.67-.51,12.7.22,1.36-.24,2.57-.44,3.66-.63,1.99.47,3.73.89,5.56,1.33h5.66c1.46.34,2.58.74,3.83.86,5.38.52,9.98,1.81,14.62,3.04,3.4.9,6.64,1.93,9.95,2.9,2.77-.51,2.52,1.09,4.51,1.34,2,.26,3.69,1.06,5.42,1.68,2.61.93,5.1,1.95,7.72,2.87,3.48,1.23,7.15,2.34,10.52,3.63,2.01.77,3.59,1.77,5.61,2.78,5.19,1.1,7.55,3.96,12.53,5.38,5.32,1.52,7.37,4.54,13.3,5.58-.32,2.26,4.05,2.19,6.53,3.01.24.28.31.65.75.82,5.11,1.94,8.24,4.77,13.94,6.44.74.22,1.46.53,1.9.87,3.49,2.69,8.73,4.68,13.64,6.74,5.05,2.12,8.13,5.05,14.27,6.76,2.93.81,4.76,2.45,7.11,3.7.59.31,1.26.59,1.96.86,2.21.83,4.71,1.55,6.62,2.5,3.56,1.78,7.83,3.18,11.43,4.96,4.84,2.38,10.8,4.29,16.28,6.4,2.76,1.06,5.45,2.17,8.35,3.16,1.91.65,4.93.88,6.03,1.7,1.68,1.24,4.59,1.42,6.52,2.28,2.29,1.01,4.88,1.69,7.71,2.29,2.36.51,5.18,1.01,6.55,1.9,1.43.94,3.27,1.19,5.12,1.63,2.92.69,5.84,1.37,8.77,2.04,2.73.63,5.35,1.56,8.24,1.8,3.19.27,5.43,1.17,8.23,1.59,3.05.17,6.03.46,9.02.74,3.13.3,6.13-.37,9.44-.1,2.79.23,5.94-.47,10.32-.89.52-.17,1.87-.86,4.51-.93,4.57-.12,6.94-2.01,10.55-3.18-3.02-.89-5.18-.28-7.35.19-2.96.64-2.95.65-5.55.25,4.46-1.25,9.25-2.6,14.04-3.94.33-.13.67-.27,1-.4-.12-.06-.24-.11-.36-.17-.3.15-.6.3-.9.45-2.22.25-3.23-.34-3.94-1.12.35-.42.66-.8,1.22-1.49-1.95.39-3.11.61-4.43.88-.72-.35-1.41-.68-1.96-.94,3.73-1.18,7.23-2.3,10.72-3.41.33-.13.67-.27,1-.4-.12-.06-.24-.11-.36-.17-.3.15-.6.3-.9.45-5.92.07-11.41,1.3-17.54,1.13-2.35-.06-4.31-.72-6.83-.49-3.55.34-6.79-.44-10.04-1.07-5.16-1-10.28-2.06-15.39-3.08-5.91-1.19-11.15-2.67-15.62-4.24-2.46-.37-4.31-.65-6.16-.93-.04-1.06-1.64-1.72-3.31-2.16-2.38-.63-5.06-1.03-7.61-1.53Zm402.61-64.9c.29.15.58.3.87.46.12-.05.24-.11.36-.16-.33-.14-.66-.27-.99-.41-1.27-.79-2.54-1.58-3.62-2.25h-9.96c5.39.96,9.36,1.66,13.34,2.36Zm-731.07,2.98c-3.06-.06-6.41.22-9.11-.26-3.38-.6-5.52,0-9.47.93,6.82,0,12.12.01,17.42-.02.48,0,.95-.34,1.43-.52,1.69-.07,3.37-.14,5.06-.22-1.88-.39-3.79-.94-5.32.09Zm623.92-40.75c.29.15.58.3.87.46.12-.05.24-.11.36-.16-.33-.14-.66-.27-.99-.41-.39-2.27-4.46-3.88-4.77-6.2-2.78.33-2.64,1.23-1.72,1.65,2.76,1.28,2.91,3,4.29,4.51.65.05,1.3.1,1.96.15Zm11.1,25.27c-.16-.36-.32-.73-.48-1.09-.32.05-.64.11-.97.16.39.35.78.7,1.17,1.04,1.03,2.78,3.21,5.37,6.54,8.17-.19-2.24-3.03-5.84-6.26-8.29Zm154.37,10.03c.29.15.58.3.87.46l.36-.16c-.33-.14-.66-.27-.99-.41-1.88-1.34-4.52-2.15-8.42-2.52-1.14,1.11-5.27.14-6.3,2.07,2.47-.31,4.5-.56,5.36-.66,3.76.51,6.44.87,9.12,1.23Zm-812.17,8.05c4.84-.42,9.67-1.42,13.94-.08,2.85-.35,5.11-.62,8.68-1.06h-23.75c.29.35.57.68.84,1.01-.79.07-1.57.14-2.56.22,1.91,1.32,4.12,1.21,6.47.88-.67-.88-3.34.15-3.62-.98Zm758.14-3.84c-.29-.15-.58-.3-.87-.46-.12.05-.24.11-.36.16.33.14.66.27.99.41.44,1.74,4.63,2.37,5.24,3.94,2.83.61,5.36,1.15,7.87,1.69,2.53-.57,4.95-1.01,7.12-1.64.82-.23,1.07-.88,1.59-1.33-4.91,1.63-9.47,1.13-13.8-.04-2.79-.76-5.2-1.81-7.78-2.73Zm-100.34,3.09c-.58-1.49-.89-3.03-4.01-4.38-.48,2.05.4,3.49,3.74,4.5-.15,1.71.88,3.31,2.17,4.89,1.41,1.73,2.71,3.47,4.44,5.69.52.26,1.85.93,3.02,1.52.01,1.55.1,2.94,3.93,3.38.17,3.12,5.2,5.14,7.81,7.39,3.96,1.67,7.65,1.43,11.21.29,2.51-.81,4.6-1.95,7.29-2.56,3.72-.85,5.1-2.32,6.51-3.88.83-.07,1.65-.15,2.59-.23-.21-.44-.33-.71-.53-1.15-.92.5-1.62.88-2.31,1.25-3.01,1-6.02,1.99-9.3,3.07-2.37.34-5.15.75-7.98,1.16-3.36-.66-6.7-1.32-9.63-1.9-1.99-1.32-3.69-2.45-5.38-3.57-1.27-3.19-5.46-5.79-8.41-8.93v-1.87c-1.28-.73-1.87-1.56-2.63-2.36-.75-.79-1.68-1.55-2.53-2.33Zm100.09,1.98c.69,1.54,2.33,2.79,4.33,3.37,3.58.33,6.12.56,8.81.81.94-.46,2.26-.89,3.42-1.75h-9.1c-2.37-.84-4.78-1.7-7.19-2.55.1-1.08-1.8-1.57-3.14-2.23-3.01-1.46-6.06-2.92-9.22-4.43-2.37-.1-5.12-.22-8.07-.34-1.67.46-5.39.01-5.27,2.09,4.45-.5,8.9-1.06,12.95.32,3.06,1.13,6.25,2.27,9.24,3.52,1.04.43,1.25,1.29,3.25,1.19Zm-565.31-6.32c-.16-.38-.32-.75-.5-1.18-.97.09-1.56.15-2.51.24,1.09.42,1.92.74,2.75,1.06,2.8,1.91,7.11,3.03,11.13,4.24,6.13,1.85,11.81,3.93,16.93,6.32.57.27.78.7,1.14,1.04,3,.33,4.76,1.28,6.45,2.33.76.47,1.78,1.38,4.1.31-1.26-.65-2.29-1.5-3.87-1.92-4.74-1.27-8.01-3.24-11.95-4.9-.83-.35-1.55-.76-2.45-1.07-5.09-1.74-10.16-3.5-15.37-5.17-1.75-.56-3.89-.87-5.85-1.3Zm542.51-4.83c2.58-.2,5.15-.4,8.09-.63,3.15.4,7.04.57,10.13,1.37,3.13.82,5.46,2.27,9.25,3.94-2.56-3.67-6.22-5.98-12.66-7.2h-7.34c-2.39.74-5.06,1.58-7.73,2.41-.33.13-.67.27-1,.4.12.06.24.11.36.17.3-.15.6-.3.9-.45Zm-116.88-35.3c.29.15.58.3.87.46.12-.05.24-.11.36-.16-.33-.14-.66-.27-.99-.41-.06-.41.13-.87-.21-1.22-4.24-4.33-8.68-8.64-16.28-11.97-3.07-1.34-6.52-2.63-11.28-2.88-3.62-.18-7.15-.74-11.09-1.17-1.44.53-3.12,1.15-4.8,1.77-.33.13-.67.27-1,.4.12.06.24.11.36.17.3-.15.6-.3.9-.45h9.89c3.36.81,6.72,1.52,9.86,2.4,2.94.83,6.46,1.59,8.19,2.83,1.81,1.29,4.07,2.41,5.92,3.67,1.08.73,3.19,1.18,2.68,2.3,3.03,1.16,2.52,3.47,6.63,4.28Zm50.43,49.42c-1.15-2.95-3.56-5.7-6.45-8.38-.9,3.29,2.59,5.9,6.17,8.5,2.53,4.88,6.63,9.45,13.84,13.79,2.77.15,6.25.34,9.42.52,2.83-1.14,5.3-2.15,8.04-3.25-.02-.19-.07-.58-.13-1.04-4.32.63-8.3,1.53-11.58,1.12-7.22-1.56-10.49-4.02-13.17-6.71-1.09-1.09-2.3-2.16-3.62-3.19-.64-.5-1.67-.9-2.52-1.35Zm-16.53-11.03c.29.15.58.3.87.46.12-.05.24-.11.36-.16-.33-.14-.66-.27-.99-.41.41-.45.81-.89.96-1.05-.97-1.03-1.75-1.83-2.49-2.64-1.08-1.19-2.2-2.37-3.19-3.57-2.36-2.87-3.54-5.96-7.55-8.52.67-1.64-2.39-2.78-2.76-4.25-.57-2.25-3.3-4.1-5.33-6.03-2.54-2.41-5.92-4.65-7.49-7.26-.83-1.37-2.36-2.49-4.79-3.41,1.16,1.89,2.59,3.74,4.24,5.54,3.42,3.73,7.28,7.38,10.34,11.16,1.81,2.24,2.87,4.59,6.35,6.48.39.21.64.53.71.82.92,3.61,5.53,6.6,7.95,9.96.72,1,1.85,1.94,2.8,2.91Zm17.88-5.69c.29-2.85-4.21-4.82-6.25-7.5-.81,1.14-.82,1.91.25,2.81,1.42,1.19,2.13,2.55,3.38,3.78.42.42,1.54.69,2.34,1.03v3.31c4.09,4.04,8.19,7.66,11.43,11.42,2.79,3.25,7.63,5.54,13.73,7.78,2.35-.71,4.39-1.49,6.72-1.98,2.56-.54,2.87-1.67,4.78-2.42-4.09.21-7.56.38-10.45.53-2.72-.65-4.86-1.15-6-1.42-6.47-3.28-9.36-6.93-12.65-10.48-1.86-2-3.45-4.05-5.3-6.05-.31-.33-1.3-.54-1.98-.8Zm-198.3,50.16c-.83.57-2.14,1.09-2.41,1.71-1.05,2.42-2.14,4.8-3.91,7.16-.96,1.28-3.02,2.51-2.89,3.88.12,1.23-1.57,1.83-2.86,2.6.21,2.16-.47,4.14-2.4,6.17-1.68,1.76-3.66,3.61-3.49,5.66.05.61.61,1.4-.02,1.78-2.5,1.55-3.41,3.38-4.99,5.1-.28.3-1.29.46-2.5.87.27-2.18,2.75-3.8,2.08-6.16-3.26,2.52-4.05,4.85-5.09,7.15-2.24,1.04-3.17,2.22-2.02,3.92.91-.45,1.5-.75,1.98-.99.11-1.02.21-1.92.31-2.82h3.85c.35,2.25-3.83,3.9-2.1,6.21,5.12-3.19,5.71-7.12,9.72-10.31-2.45-2.4,3.79-4.38,1.7-6.84,3.19-.68,2.64-2.03,3.36-3.17,1.07-1.7,3.18-3.34,3.43-5.05.21-1.45,1.34-2.73,1.83-4.1.49-1.35,1.73-2.64,2.42-3.98,1.5-2.89,4.47-5.63,4.27-8.69,1.93-.47,1.51-1.11.32-2.01-.24.77-.42,1.34-.59,1.9Zm237.62-12.88c3.58-.13,4.75-1.76,8.01-2.64,3.21-.21,7.1-.46,10.95-.71,2.98.89,6.04,1.55,8.37,2.56,3.2,1.38,6.43,2.88,8.54,4.61,1.61,1.33,3.81,1.79,6.19,2.05,3.78.17,6.65-.58,10.72-1.76-4.28-.55-7.28-.93-10.99-1.4-5.36-2.99-11.2-6.25-16.86-9.41-2.15-.5-4.08-.95-5.9-1.37-1.95.32-4.27.39-5.49.95-4.83,2.23-10.58,4.11-13.79,7.01-.33.13-.67.27-1,.4.12.06.24.11.36.17.3-.15.6-.3.9-.45Zm-107.45-40.85c.47.61.93,1.22,1.4,1.83.26.59.42,1.19.8,1.76,1.93,2.93,4.61,5.71,7.36,8.51,3.89,3.96,5.33,8.37,10.48,12.14,1.1.81,1.3,1.87,1.86,2.83.22.38,0,.91.49,1.16,4,2.03,3.98,4.79,6.04,7.15,2.2,2.53,2.77,5.36,6.11,7.74.35.25.87.53.87.79.08,2.68,4.25,4.71,5.47,7.22,1.1,2.27,4.46,4.08,6.53,6.14,2.49,2.47,5.72,4.54,10.26,6.26,1.85.15,3.75.31,5.87.49,5.55-.34,10.69-1.55,15.31-3.34-.07-.36-.14-.76-.24-1.31-5.94,1.68-12.16,1.17-18.45,1.24-2.88-1.49-6.06-2.83-8.39-4.43-2.88-1.97-5.15-4.1-7.11-6.34-2.71-3.11-6.29-6.05-8.86-9.21-2.56-3.13-5.6-6.18-8.07-9.32-2.12-2.7-3.96-5.43-6.6-8.06-1.56-1.56-3.82-3.15-3.63-5.06.06-.64-.61-1.41-1.47-1.93-3.34-2.04-4.28-4.52-6.42-6.78-2.49-2.62-5.27-5.18-7.93-7.76-.6-.59.74-1.49-1.39-1.84.52-1.27-2.48-2.03-2.6-2.96-.3-2.15-3.31-3.68-4.79-5.53-1.56-1.95-2.88-3.97-5.05-5.77-4.21-3.49-8.93-6.84-13.62-10.38-3.98.41-4.99-1.69-8.63-2.04-3.77-.36-7.01-.31-10.77-.03-3.63.27-6.62.95-9.81,1.56-.25.27-.48.55-.74.82-.22.22-.47.43-.87.78h19.06c5.93,1.73,12.1,3.09,15.87,5.83,2.21,1.6,4.63,3.15,6.94,4.72.49.33,1.21.68,1.27,1.05.29,1.68,2.59,2.94,4.12,4.37,1.72,1.59,3.96,3.11,5.03,4.79.81,1.28,2.03,2.19,4.31,2.9Zm80.08,56.21c-.9.03-1.85-.02-2.69.09-8.52,1.15-15.03.16-19.6-3.17-2.67-1.94-5.19-3.93-7.35-6-4.77-4.55-8.56-9.29-12.33-14.03-.65-.82-2.01-1.53-2.63-2.35-2.17-2.89-4.24-5.79-6.62-8.66-4.46-5.37-8.86-10.73-14.71-15.87.31,1.63.26,3.41,1.84,4.79,2.03,1.77,3.31,3.63,4.94,5.45,1.78,1.99,3.46,4.01,5.18,6.01,1.5,1.75,3.45,3.44,4.39,5.25,1.01,1.93,3.17,3.62,4.3,5.52,1.52,2.56,3.94,5.01,6.13,7.48,2.68,3.03,5.42,6.05,8.33,9.03.97.99,3.17,1.8,3.7,2.81,1.55,2.95,5.82,4.91,10.63,6.83,1-.22,1.97-.43,3.35-.73,3.52,1.67,6.68.39,9.76-.56,1.44-.44,2.44-1.19,3.63-1.8.33-.13.67-.27,1-.4l-.36-.17c-.3.15-.6.3-.9.45Zm-18.73-25.39c-.4-.67-.83-1.33-1.2-2.01-1.42-2.6-5.17-4.74-6.73-7.34-1.7-2.85-4.14-5.6-6.24-8.4-.91-1.21-1.61-2.46-2.63-3.65-1.88-2.19-4.01-4.33-5.88-6.52-.62-.73-.24-1.76-1.24-2.27-4.25-2.19-3.62-5.33-7.43-7.56.45-1.41-4.13-2.01-2.74-3.57-2.7-3.96-5.39-7.91-10.96-11.16v-1.86c-2.5-2.1-5.41-3.74-6.41-5.6-1.09-2.03-6.61-2.91-5.62-5.21-3.14-1.67-6.24-3.27-9.19-4.92-3.04-1.7-7.02-2.73-11.36-3.54h-12.41c-1.19.36-2.53.77-3.86,1.18,2.57.47,4.91.42,7.18.64,9.64.95,17.42,3.12,22.9,6.94,4.41,3.08,8.62,6.2,12.09,9.52,2.61,2.5,5.64,4.92,8.06,7.45,2.23,2.35,3.89,4.81,6.06,7.55.85.41,2.24,1.09,3.43,1.67.18.53.18.95.47,1.32,1.69,2.12,4.6,4,5.57,6.27.45,1.05,1.41,2.06,2.21,3.08,1.74,2.23,2.99,4.58,5.43,6.64,2.5,2.1,3,4.48,5.43,6.56.79.68.91,1.51,1.4,2.27.55.85.67,1.91,1.87,2.49,2.88,1.4,3.31,3.22,4.94,4.83,1.89,1.85,2.02,4.17,6.58,5.34.5.96-.45,2.05,1.44,2.91,1.07.49,2.24,1.09,2.57,1.72,1.22,2.39,4.11,4.36,6.9,6.39.94.68,2.65,1.5.65,2.57-2.46-1.21-5.31-2.28-7.25-3.63-2.83-1.97-4.84-4.18-7.52-6.21-1.92-1.45-2.9-3.07-4.6-4.51-1.37-1.17-2.6-2.21-3.1-3.56-.49-1.33-2.18-2.56-3.32-3.84-2.92-3.28-5.85-6.55-8.73-9.83-1.77-2.01-3.21-4.08-4.79-6.12-2.34-3.03-5.69-5.89-8.61-8.83-1.77-2.33-3.46-4.68-5.33-7-1.8-2.22-3.69-4.44-5.73-6.62-2.12-2.26-4.11-4.58-6.81-6.7-4.15-3.26-6.69-6.87-11.86-9.94-3.13-1.86-5.87-3.71-10.32-4.93-2.06-.57-3.99-1.24-5.4-1.69-2.54-.23-4.58-.66-6.37-.51-2.16.19-3.95-.02-5.33-.27-2.07.34-3.68.6-5.07.83-.51.53-.92.96-1.33,1.38q3.02.87,6.32.24c1.33.2,2.57.37,3.78.57,5.94,1,11.81,2.02,16.09,4.34,4.02,2.18,8.27,4.27,12.42,6.41.87,1.24,2.24,2.34,3.67,3.43.67.51,1.6.96,2.17,1.49,2.75,2.57,3.6,5.56,8.08,7.76.12.06,0,.2.03.3,1.41,3.78,6.37,6.91,9.15,10.45.19.24,1.02.38,1.55.56.35,2.51,2.43,4.81,4.18,7.15,2.28,3.05,6.01,5.84,7.67,9,.66,1.25.75,2.63,2.01,3.73,2.83,2.48,4.25,5.18,6.61,7.73,3.47,3.73,6.41,7.56,10.13,11.24,4.27,4.21,9.15,8.29,13.82,12.46,2.75.44,5.61.9,8.14,1.3,4.74-.62,7.02-2.4,10.34-3.56,3.39-1.18,5.69-2.64,6.75-4.59-3.29,1.12-6.58,2.25-9.51,3.25-3.17-.21-5.76.16-9.68-.6,5.43-.04,8.92-.56,11.42-2,2.15-1.23,6.76-1.49,6.91-3.94-2.75.52-5.09.97-7.89,1.5h-5.57c-6-.79-9.34-2.8-12.01-5.23-1.82-1.65-4.26-3.17-6.42-4.74Zm-272.92,93.63c-.59.4-1.19.8-1.63,1.09-3.12.3-6.03-.22-8.81.63-1.25.38-3.79.34-5.28.02-4.31-.91-8.8-.37-11.49-.52-4.79-.81-7.95-1.59-11.31-1.85-5.77-.44-10.55-1.91-15.53-3.02-4.14-.92-7.48-2.62-11.99-3.55-3.12-.64-5.22-2.46-8.36-2.9-3.88-.54-5.61-2.02-8.57-2.9-3.13-.94-5.96-2.11-8.67-3.3-5.53-2.43-10.86-4.96-16.34-7.42-2.31-1.03-4.24-2.21-6.73-3.19-2.41-.95-3.94-2.37-6.01-3.67-1.45-.54-3.45-1.06-4.8-1.82-4.55-2.56-10.51-4.62-13.31-7.8-4.34-1.04-6.52-3.05-9.77-4.57-4.35-2.05-9.38-3.81-12.64-6.33-.67-.52-1.8-.93-2.86-1.31-3.64-1.3-6.42-2.96-9.34-4.56-2.97-1.62-5.73-3.33-8.74-4.94-1.64-.88-3.9-1.37-5.59-2.39-5.16-3.14-11.18-5.98-16.96-8.89-1.29-.65-3.31-1.03-4.38-1.72-1.65-1.07-3.76-1.89-5.62-2.81-2.1-1.03-4.35-1.88-6.66-2.78-7.92-3.09-15.32-6.45-24.07-9.08-7.12-2.14-14.03-4.46-21.42-6.39-5.78-1.51-12.14-2.55-18.14-3.77-1.98.26-3.89.12-8.32-.55-.81.22-1.56.41-.93.25-4.03-.14-6.78-.53-9.18-.26-6.19.7-12.5.9-18.93,1.35-.41.22-.92.49-2.06,1.1,2.45-.1,3.96-.14,5.44-.24,1.72-.12,3.42-.42,5.12-.41,1.89.01,4.18.67,5.57.36,2.03-.45,3.91-.33,5.86-.38,2.44-.07,4.71.3,7.07.53,6.24.61,11.8,1.96,17.68,2.94,3.01.5,5.9,1.14,8.85,1.72,1.28.79,2.8,1.48,4.62,1.92,5.45,1.31,10.58,2.81,15.41,4.56,4.98,1.81,10.28,3.43,15.29,5.23,3.67,1.31,7.14,2.75,10.62,4.17,3.99,1.63,7.46,3.47,11.92,4.92,4.24,1.37,7.29,3.43,11.02,5.12,3.24,1.47,5.59,3.34,9.85,4.37.96.23,1.84.64,2.41,1.07.9.67,1.67,1.41,2.21,2.16.69.95,3.9.65,4.03,1.81,6.25,2.28,10.37,5.43,15.7,8.09,9.41,4.7,18.02,9.73,27.69,14.33,1.11.53,1.41,1.41,2.11,2.15,4.35.94,7.75,2.54,10.36,4.24,3.41,2.22,8.27,3.76,11.68,5.89,3.38,2.1,7.29,3.93,11.33,5.75,6.52,2.93,13.59,5.55,20.62,8.2,9.17,3.47,18.82,6.63,28.53,9.76,2.43.79,5.33,1.29,8.08,1.85,2.94.61,5.95,1.13,8.93,1.7-.08.1-.17.2-.25.3h7.49c1.02.4,2.04.81,3.08,1.22h15.59c1.71-.41,3.45-.82,5.28-1.26.59.17,1.3.51,1.67.45,4.99-.88,10.03-1.72,14.85-2.77,1.89-.41,3.1-1.23,5.56-1.49,2.18-.24,4.77-1.28,3.13-2.95-3.5.95-6.68,2.16-10.32,2.68-2.82.4-6.44,1.1-9.36-.25,2.41-1.21,5.15-2.01,9.01-1.86,1.16.05,2.47-.35,3.62-.62,3.88-.91,7.72-1.85,11.47-2.75,1-1.53,4.25-2.76,2.01-4.78-1.89.53-3.73,1.02-5.51,1.55-1.84.55-3.53,1.21-5.47,1.67-1.9.46-4.04.7-6.05,1.07-2.23.41-4.28.92-6.91.88-2.1-.04-4.23.5-6.36.53-2.1.03-4.74-.71-6.22-.34-2.52.62-4.17.18-6.08-.23-1.03.23-2,.45-2.97.68-3.9-.39-7.26-1.49-11.44-1.38-1.52.04-3.16-.6-4.69-.97-.96-.23-1.74-.65-2.73-.8-4.62-.69-8.95-1.6-12.71-3.04-2.35-.9-4.7-1.85-7.37-2.53-11.56-2.92-21.57-6.74-31.18-10.81-1.61-.68-3.62-1.17-5.16-1.87-1.7-.78-2.9-1.79-4.63-2.55-2.22-.98-4.97-1.71-7.1-2.72-4.65-2.2-9-4.54-13.58-6.77-8.3-4.04-16.67-8.04-25.02-12.05-.31-.15-.68-.28-.94-.45-6.35-4.01-13.66-7.62-21.45-11.05-2.05-.9-3.58-2.05-5.45-3.04-3.49-1.85-6.72-3.85-10.71-5.44-3.33-1.33-5.82-2.98-9.12-4.3-3.45-1.38-6.66-2.91-9.64-4.48-2.34-1.24-5.29-1.96-7.86-2.96-2.83-1.1-4.96-2.58-7.39-3.89-.15-.08-.31-.15-.48-.22-5.94-2.07-11.67-4.28-18.11-6.02-2.34-.63-3-1.82-5.57-2.38-4.7-1.03-8.93-2.49-13.54-3.62-6.32-1.55-12.69-3.09-19.28-4.38-6.85-1.33-14.45-1.34-21.67-2.04-1.08-.1-2.49-.2-3.34.02-3.37.88-7.08.27-10.45.64-4.12.44-8.78.15-13.53,1.92,6.32-.41,11.49.41,15.75-.64,2.96.19,5.3.38,7.66.49,1.57.07,3.55-.25,4.66.08,2.12.64,4.26.45,6.44.57,2.37.12,4.7.57,7.05.56,4.35-.02,8.19.65,11.85,1.56,3.33.82,7.29,1.22,9.59,2.8,7.01,1.42,13.21,3.43,19.57,5.37,11.53,3.52,21.24,7.97,31.48,12.14,6.66,2.71,12.33,5.93,18.42,8.93,5.17,2.55,10.56,5.02,15.3,7.72,1.68.96,4.33,1.38,5.52,2.43,1.81,1.61,4.25,2.85,7.13,4.15,4.8,2.15,8.6,4.78,14,6.71.53.19,1,.42,1.44.66,2.76,1.46,5.49,2.93,8.26,4.38,2.13,1.12,4.85,2,6.78,3.16,6.5,3.91,13.78,7.48,21.34,10.95,3.97,1.83,7.64,3.79,11.26,5.77,1.51.83,2.63,1.66,4.83,2.31,4.25,1.27,8.12,2.88,11.49,4.62,1.3.67,2.76,1.18,4.17,1.74,2.5,1,5.04,1.98,7.69,2.89,4.92,1.68,9.73,3.46,14.96,4.92,4.98,1.39,9.95,2.85,15.7,3.61,2.48.32,5.17.69,7.14,1.4,7.53,2.7,16.86,1.65,25.18,2.7.97-.38,1.99-.79,3.42-1.35,1.65.27,3.45.57,5.26.87Zm-291.32-108.99c.98.18,1.94.5,2.94.52,7.31.2,14.63.33,21.34.48,1.63.61,2.55,1.24,3.73,1.36,9.68,1.02,16.78,4.2,25.25,6.23,4.42,1.06,9.25,1.91,12.74,3.7,1.37.7,2.85,1.48,4.64,1.85,3.17.66,5.42,1.74,7.87,2.78,1.93.82,4.09,1.53,6.15,2.29,2.41.89,5.7,1.57,7.03,2.72,2.79,2.43,8.11,3.44,12.16,5.11,4.12,1.7,8.27,3.27,11.56,5.36,2.97,1.89,6.57,3.59,10.12,5.26,2.3,1.08,5.29,1.87,7.5,2.98,6.44,3.23,12.6,6.58,18.97,9.84,4.92,2.51,10.44,4.74,15.1,7.4,5.25,3,11.61,5.6,17.59,8.34,4.83,2.21,9.76,4.37,14.72,6.52,2.02.88,3.36,2,5.82,2.75,3.3,1.01,6.21,2.29,9.17,3.51,2.34.97,4.2,2.25,6.81,3.01,10.92,3.18,20.21,7.4,31.68,10.23,5.38,1.32,10.63,2.77,15.99,4.11.91.23,2.33.1,3.11.37,1.92.68,5.12.59,6.21,2.18-2.32.06-4.27.12-4.72.13-4.26-.86-7.22-1.46-10.17-2.06-12.03-2.46-23.05-5.71-33.76-9.18-3.04-.99-6.14-1.93-9.13-2.95-2.98-1.01-5.87-2.08-10.13-3.6-1.16-1.02-3.88-2.36-7.63-3.42-3.72-1.06-7.21-2.44-10.01-3.98-2.9-1.59-5.3-3.28-8.97-4.63-4.9-1.8-9.21-3.96-13.49-6.09-4.12-2.05-9.83-3.44-12.31-6.18-.16-.17-.58-.35-.97-.42-2.87-.5-3.6-1.94-5.81-2.75-2.28-.83-4.53-1.77-6.22-2.84-5.65-3.59-12.71-6.61-19.1-9.89-2.1-1.08-4.37-2.09-6.71-3.06-2.39-.99-3.17-2.66-6.55-3.22-.32-1.41-4.17-1.16-5.08-2.2-.81-.92-1.9-1.52-4.01-1.81-1.94-.27-2.11-1.32-3.84-1.9-5.38-1.8-10.71-3.78-14.88-6.13-2.85-1.6-6.15-2.83-9.45-4.12-1.32-.52-3.18-.8-4.26-1.39-6.12-3.32-14.48-5.26-22.19-7.59-3.81-1.15-8.43-1.8-11.89-3.12-5.09-1.94-10.75-2.94-17.09-3.5-2.94-.26-5.75-.85-8.41-1.25-6.39,1.42-13.08.17-19.47.88.07.32.13.59.2.97,5.63.16,11.2-.18,16.59.64,4.3.65,8.89.94,13.08,1.7,5.27.95,10.56,2,15.29,3.4,4.65,1.38,10.37,2.05,13.95,4.17,8.6,1.9,15.43,4.96,23.07,7.48,1.87.62,2.98,1.76,4.93,2.27,7.05,1.83,11.8,4.82,17.82,7.16,3.94,1.53,6.58,3.7,11.1,5.13,3.37,1.07,5.34,3.02,8.57,4.22,3.45,1.29,5.21,3.16,8.92,4.4,4.05,1.36,7.01,3.39,10.41,5.14,3.3,1.7,6.45,3.45,9.86,5.1,6.63,3.19,12.31,6.76,19.44,9.77,5.07,2.14,8.77,4.96,13.75,7.16,5.18,2.29,9.95,4.75,15.74,6.81,7.81,2.77,14.53,6.17,21.92,9.21,4.26,1.75,9.22,3.16,13.27,5,4.21,1.91,9.81,2.65,14.46,4.15,4.64,1.5,9.61,2.79,14.81,4.28,1.15.19,3.09.28,4.34.75,2.06.78,4.46.77,6.77,1,2.98.29,5.99.78,8.96.73,4.11-.07,8.18-.56,12.27-.86,3.47-.25,6.53-1.14,9.83-1.48,5.97-.63,10.75-2.06,15.68-3.76,1.85-.07,4.34.23,5.69-1.19-.06-.48-.15-1.17-.31-2.36-1.54.75-2.32,1.13-3.38,1.64-.92.02-2.25.05-2.51.06-2.47.77-4.04,1.53-5.93,1.77-1.59.2-3.07.34-3.96.96-1.66,1.17-4.68,1.28-6.98,1.49-3.39.31-6.98.16-10.43.67-.75.11-2.02-.52-3.22-.85.99-.41,1.65-.69,2.28-.96h5.59c7.55-1.38,14.58-2.68,22.25-4.08,1.38-.42,2.52-1.4,5.43-1.61,2.35-.18,4.74-1.2,3.6-2.76-2.54.34-4.98.67-7.43,1-.15-.16-.3-.31-.45-.47,3.66-1.33,7.33-2.67,10.99-4-2.87-.26-5.38-.22-7.72.31-7.19,1.63-15.09,1.82-22.83,2.33-1.31.09-2.81.13-4.01-.07-6.72-1.1-13.28-2.42-20.09-3.38-7.21-1.01-12.83-3.27-19.45-4.74-5.06-1.12-9.28-3.01-14.08-4.41-3.73-1.08-7.83-1.68-11-3.4-4.25-2.3-9.86-4.07-14.98-6.02-4.41-1.68-9.04-3.24-13.41-4.93-4.59-1.78-9.13-3.6-13.43-5.52-3.21-1.44-5.58-3.33-9.11-4.53-3.8-1.29-6.95-2.74-9.7-4.45-2.66-1.65-6.48-2.79-9.31-4.39-3.5-1.98-6.84-4.14-11.22-5.63-4.78-1.62-7.75-3.75-11.22-5.79-1.65-.97-3.69-1.81-5.7-2.64-1.79-.74-4.1-1.25-5.63-2.08-3.42-1.84-6.82-3.65-11.17-5.09-3.41-1.13-5.5-2.97-9.6-3.78-.7-.14-1.18-.59-1.57-.94-2.78-2.5-7.72-4-12.41-5.62-3.17-1.1-6.24-2.26-9.33-3.4-2.58-.95-4.99-2.02-7.72-2.87-6.14-1.9-12.47-3.68-18.67-5.55-8.32-2.51-18.15-3.23-27.25-4.8-.99-.17-2.33-.21-3.32-.05-5.24.84-10.77.78-16.13,1.22-4.91.4-9.79.89-14.68,1.35,1.22.47,2.51.64,3.36.44,3.15-.76,6.49-.58,9.79-.58,5.32,0,10.61.31,15.88.48,5.84.19,11.48.76,16.49,1.75,7.28,1.45,14.76,2.72,21.39,5,8.43,2.89,17.34,5.45,25.38,8.62,4.58,1.81,8.9,3.71,13.37,5.56,1.75.72,3.99,1.21,5.26,1.58,1.99,1.01,3.35,1.81,4.96,2.48,2.12.88,5.17,1.46,6.52,2.52,2.46,1.93,6.41,3.13,9.38,4.78,1.25.69,2.26,1.49,3.61,2.14,4.62,2.22,9.02,4.56,14.65,6.42,1.94,1.89,5.28,3.43,8.64,4.95,3.52,1.6,7.12,3.17,10.52,4.83,3.35,1.63,6.21,3.49,9.79,4.99,3.55,1.49,5.83,3.46,10,4.76,4.03,1.26,6.99,3.22,10.7,4.72,3.62,1.47,6.41,3.36,10.28,4.62,4.04,1.32,7.64,2.72,10,4.52,1.83.44,3.55.71,4.9,1.2,7.11,2.56,14.09,5.21,21.21,7.76,3.67,1.32,7.79,2.34,11.64,3.55,4.58,1.44,10,2.32,14.79,3.64,4.29,1.18,8.51,2.38,13.15,3.26.66.12,1.17.4,3.12,1.11-2.84,0-4.13.15-5.14-.02-10.33-1.82-20.57-3.82-29.61-6.72-7-2.24-14.96-3.91-20.83-6.88-.52-.26-1.63-.26-2.32-.48-3.12-.98-6.78-1.77-9.11-3.06-2.46-1.35-5.84-2-8.42-3.14-2.69-1.19-4.92-2.6-7.36-3.92-.14-.08-.33-.14-.51-.2-4.95-1.86-10.02-3.67-14.82-5.6-3.21-1.29-6.64-2.6-8.91-4.22-2.39-1.7-6.73-2.26-9.03-3.9-.83-.6-2.35-.99-3.21-1.58-2.28-1.56-3.96-3.19-7.78-4.32-3.41-1.01-5.66-2.83-8.53-4.24-.71-.35-1.83-.52-2.46-.69-.57-.66-.69-1.46-1.57-1.71-2.29-.66-3.45-1.74-5.33-2.54-2.15-.91-4.3-1.84-6.22-2.85-2.73-1.43-5.25-2.95-7.86-4.43-1.24-.65-2.92-1.15-4.35-1.76-4.03-1.72-7.93-3.5-11.94-5.23-1.08-.47-2.95-.72-3.48-1.27-2.43-2.53-8.01-3.54-11.87-5.38-3.21-1.53-7.07-2.78-10.61-4.17-3.55-1.39-6.65-3.16-10.68-4.11-5.14-1.21-8.81-3.07-12.97-4.77-5.16.46-6.89-2.31-11.59-2.54-1.65-.08-3.08-1.11-4.04-1.49-2.76-.29-5.1-.33-6.96-.77-7.95-1.9-16.49-2.27-25.11-1.89-3.24.14-6.91.12-9.87,1.08-4.02-.63-7.95-.83-11.52.49,4.15,1.43,7.99.72,11.78-.37Zm519.29,10.2c-1.33-.92-3.6-1.79-3.83-2.76-.64-2.68-4.31-4.76-6-7.22-2.13-3.1-4.62-6.21-7.94-9.07-3.29-2.84-4.84-5.96-8.03-8.79-1.69-1.5-4.42-2.9-4.98-4.47-.59-1.67-2.46-2.97-3.56-4.47-1.2-1.62-4.76-2.57-5.93-4.09-2.17-2.82-7.01-4.45-12.08-5.81-4.09-1.1-9.09-1.66-13.94-1.27-2.1.17-4.22.42-6.37.6-2.43.2-5.2.54-6.05,2.1,4.41.48,8.53,1.17,13,.92,3.19-.18,6.03.43,8.82.97,1.99.38,3.93.91,5.59,1.53,4.28,1.62,8.89,3.16,11.3,5.55,1.8,1.79,4.19,3.32,6.98,4.41,1.64,2.12,2.87,4.02,4.55,5.83,3.45,3.73,7.23,7.39,10.69,11.12,1.26,1.36,1.52,2.95,3.11,4.2,2.75,2.16,3.86,4.59,6.43,6.79,2.9,2.49,3.92,5.38,6.81,7.95,1.65,1.46,2.64,3.13,3.96,4.69,1.29,1.53,2.22,3.18,3.15,4.81.54.95,2.48,1.84,2.39,2.73-.22,2.03,3.81,3.45,3.18,5.46,4.34,2.1,3.12,5.41,7.76,7.44,3.26,4.75,9.51,8.88,12.85,13.27,2.49.73,4.33,1.27,6.03,1.78h5.6c3.6-1.06,6.52-2.23,9.93-2.84,5.65-1,8.81-3.12,12.72-4.99-1.27-.11-3.12-.09-3.19.08-.52,1.25-3.22,1.45-4.82,1.91-9.76,2.79-19.76,1.62-25.28-1.12-5.25-2.6-8.21-5.83-11.04-9.04-2.91-3.3-4.84-6.77-8.71-9.91-2.01-1.63-3.85-3.38-4.8-5.19-1.89-3.59-4.01-7.11-8.3-10.26v-2.83Zm46.9,28.13c5.82,2.08,11.18,2.41,16.66.15.23-1.24,3.09-1.5,5.11-1.92,3.69-.77,5.44-2.1,6.54-3.82-3.55,1.27-7.1,2.53-9.91,3.53-1.9-.18-2.94-.44-3.49-.31-4.77,1.21-8.59.41-11.85-1.19-1.94-.95-3.79-2-5.06-3.15-1.94-1.76-4.3-3.41-5.79-5.31-1.37-1.74-4.32-3.2-6.06-4.89-1.83-1.78-3.07-3.69-4.52-5.55-1.53-1.95-2.3-4.12-4.68-5.82-3.22-2.31-3.46-5.16-7.27-7.29.89-1.84-2.53-3.07-3.3-4.75-1.3-2.84-2.71-5.81-6.58-8.29-.5-.32-1.01-.68-1.2-1.06-1.17-2.31-2.55-4.57-5.39-6.61-.79-.56-.96-1.3-1.44-1.96-.54-.75-.63-1.78-1.77-2.18-2.42-.86-3.01-2.2-3.32-3.2-.37-1.19-3.05-1.7-2.89-2.62.23-1.33-1.45-2.05-2.77-2.98-.79-.56-1-1.3-1.46-1.96-.32-.47-.38-1.02-.99-1.39-3-1.83-5.76-3.69-7.63-5.87-1.25-1.45-3.88-2.65-5.72-4.01-3.96-2.93-9.62-4.82-16.51-6.15-4.39-.85-8.75-.41-12.96-.58-1.36.54-2.53,1-4.21,1.66,4.89.38,8.98.69,14.13,1.08.15.04,1.27.39,2.51.56,5.03.69,8.82,2.16,12.47,3.8,4.47,2.01,7.57,4.46,10.61,6.89,2.1,1.69,3.84,3.5,5.52,5.31,2.43,2.61,5.06,5.22,7.98,7.77,4.5,3.91,6.33,8.39,11.29,12.25.34.26.99.48,1.12.76,1.34,2.73,3.69,5.26,6.32,7.78,2.59,2.49,3.25,5.3,5.76,7.86,1.4,1.42,1.99,3.02,4.23,4.28,1.18,4.92,7.65,9.01,10.37,13.71.97,1.68,3.34,3.2,5.01,4.8,3.72,3.55,7.41,7.12,11.1,10.67Zm-109.27-16.43c-3.07-2.78-5.83-5.03-8.06-7.38-2.5-2.64-4.89-5.28-8.63-7.62-4.6-2.87-9.98-5.35-17.02-6.93h-9.62c-6.27,1.43-13.49,1.91-16.26,5.16,6.08,1.5,12.01-1.49,17.53.35,1.32-.25,2.5-.48,3.25-.62,4.11.75,7.9,1.26,11.31,2.1,4.93,1.21,7.9,3.4,11.26,5.36,1.47.86,3.12,1.72,4.01,2.71,1.97,2.2,3.66,4.44,6.95,6.34.64.37,1.37.94,1.18,1.32-.58,1.2,1.69,1.61,2.42,2.4.52,1.27,1.1,2.54,2.11,3.73,1.55,1.82,3.57,3.55,4.83,5.44,1.26,1.88,3.27,3.68,4.2,5.59,1.66,3.39,5,6.51,7.11,9.83.97,1.52,2.56,2.94,2.58,4.59,0,.27,1.08.53,2.51,1.19.22-5.46-6.88-9.57-6.88-14.5-3.14-.56-2.17-2-3.03-3.1-.8-1.02-1.81-2.01-2.56-3.04-.74-1.02-1.61-2.1-2.06-3.08-1.35-2.88-4.21-5.41-7.13-8.29v-1.55Zm210.02-11.64c1.59-.31,3.41-.63,5.14-1.03.75-.17,1.33-.5,2.96-1.13h-10.19c-3.77-.85-5.95-1.64-7.68-2.96-3.03-2.32-7.02-4.37-10.37-6.4h-11.42c-1.88.62-4.14,1.38-6.33,2.1.7.77,1.18,1.3,1.81,1.99-1.29.51-2.55.95-3.66,1.47-1.1.51-2.54.94-3.39,1.96,3.42-.55,6.04-.97,8.61-1.39,2.51,1.17,5.72.3,8.9.82,4.56,2.51,10.94,4.52,15.09,7.52,1.66,1.2,4.38,1.98,7.98,2.27,3.88-1.06,8.77-1.64,11.11-4.05-1.56-.37-2.78-.52-4.31-.03-1.24.39-2.7.64-3.75.88h-7.05c-5.9-3.14-12.02-6.4-18.2-9.68-1.55-.16-3.23-.44-4.94-.49-1.7-.04-3.43.16-5.29.26.1-.51.14-.71.19-.98,4.88-.82,9.45.31,14.25.53,6.8,2.65,10.36,6.96,20.54,8.34Zm-21.78,29.09c-.43-.23-1.21-1.05-2.5-1.29-3.41-.62-5.12-1.86-6.59-3.21-2.2-2.02-5.23-3.72-8.99-5.13h-9.21c-5.46,2.12-10.73,4.16-16.01,6.21.23.15.46.29.69.44,2.07-.58,4.14-1.16,6.3-1.76h15.37c7.48,1.76,12.17,4.79,17.99,8.03,1.94.21,4.86.52,6.51.69,4.8-.73,7.23-1.82,9.11-3.15-2.35-1.59-4.11.14-5.99-.27-1.89-.16-3.77-.33-6.67-.58Zm-858.53-14.7c-1.78.86-4.1,1.01-5.72.55-3.37-.95-5.79-.36-8.78.54,5.22.58,10.3-.41,14.88.79,3.3-1.06,6.63-.67,9.33-.05,2.5-.58,4.53-1.06,6.54-1.52-.84-.21-1.7-.43-2.79-.71q4.28-1.4,8-1.41c7.34-.05,14.78.38,21.83-1.13-12.04.43-24.07.93-37.71.25,2.55-.77,3.81-1.15,4.65-1.4,1.33.21,2.12.34,2.88.46.78-.39,1.37-.68,1.99-.99-3.88-.77-7.01.23-10.37.53.49.55.81.91,1.25,1.4-2.41.43-4.59.82-7.11,1.26.74.29,1.42.55,2.33.91,3.12-.87,6.46-.86,10.11-.44-3.25,1.91-5.23,2.08-11.32.96ZM835.3,31.72c-.39-2.94-3.11-4.85-4.94-6.88-1.57-1.73-2.56-3.68-5-5.11-1.86-1.08-1.74-2.22-2.24-2.98-3.64-2.01-7.85-3.27-10.28-5.23-3.42-.64-6.81-1.27-10.47-1.95-.72.24-1.53.51-3.06,1.01,7.03.42,11.05,2.2,14.89,3.48,8.76,5.39,13.2,11.6,21.1,17.66ZM99.08,105.81c.67.32,1.28.62,2.1,1.02,8.85-.34,17.8-.69,26.66-1.03,1.42.1,3.55.52,4.2.24,2.06-.91,4.29.16,6.51-.4,2.09-.53,5.45-.83,7.44-.42,2.61.54,4.13-.07,6.16-.25,1.94-.17,4.02-.04,5.98-.19,1.9-.15,3.72-.48,5.58-.73-2.55-.32-5.28-.64-7.37-.25-4.38.82-8.78.52-13.16.52-8.4,0-16.74.1-24.85,1.23-3.32-.69-6.62-.15-9.96-.02-.9.04-1.9-.41-2.02-.44-2.95.3-5.04.51-7.25.74ZM779.32,15.63c7.07.4,13.58-.2,19.79,1.57,5.61,1.6,10.12,3.55,14.64,5.7-.65-.92-1.29-1.83-1.56-2.22-4.14-3.2-10.79-4.2-15.88-6.14-5.43.06-11.05-.35-16.99,1.09Zm104.04,64.17c-.19.83-.65,1.31-.3,1.58,2.19,1.69,4.56,3.34,6.68,4.85,7.65.12,10.12-.32,12.19-2.21h-8.13c-3.58-1.45-6.7-2.71-10.43-4.22Zm-83.74-66.09c.14-.18.28-.35.43-.53,4.23,1.61,8.46,3.22,12.72,4.82.14.05.62-.09,1.18-.17-.76-.72-1.51-1.43-2.06-1.95-2.67-.92-4.95-1.72-6.13-2.12-3.59-.71-5.96-1.19-7.73-1.54h-11.36c2.95.5,5.52,1.01,8.19,1.36,1.5.19,3.17.1,4.76.14Zm-1.42-6.48c2.68.48,4.41,1.06,6.09,1.04,6.69-.09,10.91,1.82,15.31,3.64,1.51.62,2.94,1.29,5.44,2.39-2.54-4.6-10.85-5.22-15.93-7.07h-10.92Zm169.18,67.27c-3.01-1.39-5.64-2.65-8.42-3.84-.53-.23-1.67-.16-2.53-.23-.24.18-.49.35-.73.53,3.6,1.62,7.1,3.28,10.52,4.76,2.57.29,4.78.53,7.36.82v-1.52c-2.1-.17-4.02-.33-6.21-.51Zm-695.93,2.05c.18.2.36.41.54.61,2.73-.24,5.44-.58,8.19-.69,2.91-.12,5.87.02,8.79-.06,1.01-.03,2-.37,2.96-.61.27-.07.42-.24.64-.36-1.4-.31-2.76-.62-3.76-.84-6.08.68-11.72,1.32-17.36,1.95Zm-98.32,33.31c-4.23.16-8.56.66-12.65.39-4.4-.29-8.25.49-12.6.35,1.55,1.36,3.8,1.24,6.02,1.04,1.03-.09,2.03-.53,2.99-.49,5.55.22,10.84-.49,16.24-1.29Zm8.82-10.3c7.22.95,14.09-.65,21.39-.23-.13-.52-.2-.78-.35-1.34-7.15.53-14.09,1.05-21.04,1.57Zm-17.67-8.73c.2.2.39.39.59.59,5.1-.31,10.21-.62,15.55-.94-.77-.37-1.37-.66-2.01-.98-5.06-.18-9.77.22-14.13,1.33Zm685.61-31.92c-2.27-2.6-3.32-5.42-7.53-8.3-.31,3.77,4.52,5.89,7.53,8.3ZM166.56,98.14c5.9-.15,11.23.44,16.26-1.17h-14.21c-.56.32-1.06.6-2.05,1.17Zm-137.54,8.04l-.17.46h26.82c-.66-.24-.96-.45-1.26-.45-8.46-.02-16.92-.01-25.38-.01Zm82.87-7.65c-2.49-.42-4.24-1.03-5.2-.83-4.61.95-9.54,0-14.27.59.05.35.1.62.13.81,6.16-.18,12.16-.36,19.34-.57Zm515.95,72c-5.15,1.5-2.91,4.03-5.21,5.79-.26.2.24.6.5,1.12,1.25-1.13,2.21-2.01,3.04-2.76.55-1.35,1.04-2.59,1.67-4.15ZM142.46,101.19c-5.25.32-9.92.61-15.08.92,1.67.39,2.81.65,3.07.72,4.43-.22,8.02-.39,11.57-.56.1-.24.18-.43.44-1.07Zm123.03-23.68c-.08-.19-.16-.38-.24-.57-5.16.5-10.33,1-15.49,1.5,4.95.85,9.47-.46,14.25-.33.47.01.98-.39,1.47-.59Zm-117.69,14.6c1.03.14,2.18.48,3.07.37,3.87-.47,7.66-1.07,11.36-1.61-4.7-.71-9.31.3-14.43,1.23Zm79.59-8.24c0-.17,0-.34,0-.51h-12.63c-.54.29-1.08.57-1.64.87,2.69.72,4.75-.18,7.03-.33,2.37-.15,4.82-.03,7.24-.03Zm-103.25,15.42q6.6,1.36,12.19-.02c-2.25.21-4.5.42-5.27.49-3.21-.22-5.06-.34-6.92-.47Zm64.27-9c2-.41,3.15-.6,4.2-.87.92-.24,1.74-.56,3.3-1.07h-8.89c1.18.36,1.9.58,2.56.78-.3.3-.52.52-1.17,1.16Zm-75.61,21.7c8.29.52,11.59.48,17.11-.3-6.29.14-11-.11-17.11.3Zm100.44-29.71c2.53-.04,5.68,1.04,7.85-.99-3.08.33-5.87-.36-7.85.99Zm789.55-14.7c-2.76.43-4.83.75-6.91,1.07,3.03.27,5.96.5,9.45.12-1.04-.49-1.66-.78-2.55-1.2ZM138.15,111.59h8.06c.06-.34.1-.54.15-.86-2.93-.54-5.41-.05-8.22.86Zm10.73-12.71h-7.36c-.46.22-1.07.51-1.74.83,3.53.84,6.1-.49,9.1-.83Zm-5.86-8.87c4.72-.33,8.06-.57,11.4-.8v-.22h-9.12c-.22.1-.85.38-2.28,1.02Zm-102.1,13.84c3.86.29,7.72.72,11.54,0h-11.54Zm218.05-23.26c-.2-.13-.4-.26-.6-.4-1.37.17-2.73.38-4.13.49-.67.05-1.46-.18-2.12-.11-.76.07-1.44.32-3.27.77h8.49c.38-.17,1.01-.46,1.63-.75Zm412.57,50.07c-2.62,1.11-3.61,2.4-1.97,4.37.3-1.21.36-1.9.68-2.56.29-.62.85-1.21,1.3-1.82ZM125.38,97.42c-4.01.22-6.91-.16-10.64.44,3.42.25,5.89.43,8.52.62.31-.15.76-.38,2.12-1.05Zm64.12-1.63c-1.76.28-3.25.52-5.13.82,2.09.28,3.67.49,5.22.69.54-.26,1-.48,1.48-.72-.47-.23-.92-.46-1.57-.79Zm57.24-19.74c-2.69-.62-4.4.31-6.47.74q3.89.19,6.47-.74Zm438.17,28.75c-3.63,1.21-2.69,2.47-2.18,4.27.85-1.66,1.42-2.77,2.18-4.27Zm-510.86-17.52q-3.58-.13-6.41,1.37c2.65-.8,4.81.07,6.41-1.37Zm63.37,6.18c2.82.91,4.36-.38,6.61-.59-2.83-.91-4.36.38-6.61.59Zm393.15,72.41c2.5-.33,3.71-.98,2.09-2.06-.73.72-1.41,1.39-2.09,2.06Zm1.04-8.74c-1.36-.46-1.8-.72-2.21-.71-.45,0-.87.27-1.3.43.49.22.9.54,1.49.63.42.07,1.07-.17,2.03-.34Zm-402.66-62.87c-.02-.08-.04-.16-.06-.25h-4.61c.01.14.02.27.03.41,1.55-.05,3.09-.11,4.64-.16Zm-102.69-.92l.76.52c.96-.32,1.93-.65,2.89-.97-.19-.13-.38-.26-.56-.39-1.03.28-2.06.56-3.09.84Zm5.04,4.02c-.02-.08-.04-.16-.06-.25h-4.61c.01.14.02.27.03.41,1.55-.05,3.09-.11,4.64-.16Zm541.18,28.77c.38.15.75.3,1.13.45.61-.52,1.23-1.04,1.84-1.56-.26-.07-.52-.14-.78-.21-.73.44-1.46.88-2.19,1.33Zm-475.29-37.3c-.05.16-.11.32-.16.48h4.76c0-.11.02-.21.03-.32-1.54-.05-3.09-.11-4.63-.16Zm181.5-15.45c-.97-1.73-2.6-1.18-4.59-1,1.61.35,2.72.59,4.59,1ZM12.75,108.02c-.05.16-.11.32-.16.48h4.76c0-.11.02-.21.03-.32-1.54-.05-3.09-.11-4.63-.16Zm142.83-19.6c1.89.41,2.96.64,4.43.96-.16-1.41-1.82-1.21-4.43-.96Zm695.39-18.82c.23-.04.45-.07.68-.11-.16-.34-.16-.72-.51-1.01-.3-.26-.99-.42-1.51-.62-.26.12-.51.24-.77.36.7.46,1.41.92,2.11,1.38Zm-180.67,44.49c.68-.83.84-1.1,1.12-1.34.32-.27.76-.52,1.71-1.16-1.77.24-2.35.32-3.08.43.06.53.12,1.01.25,2.07Zm149.98-91.42c-.4.1-.79.2-1.19.3l2.1,1.35c.29-.08.57-.16.86-.24-.59-.47-1.18-.94-1.77-1.41ZM238.24,87.57c-.03-.2-.07-.4-.1-.6-1.1.06-2.19.12-3.29.18,0,.11.02.22.03.34,1.12.03,2.24.06,3.36.09Zm-2.71,6.19c-.03-.2-.07-.4-.1-.6-1.1.06-2.19.12-3.29.18l.03.34c1.12.03,2.24.06,3.36.09Zm-21.96-6.8c-.1.17-.2.33-.3.5h3.41c.02-.1.03-.2.05-.29-1.05-.07-2.11-.14-3.16-.2Zm12.47,1.84c-.03-.2-.07-.4-.1-.6-1.1.06-2.19.12-3.29.18,0,.11.02.22.03.34,1.12.03,2.24.06,3.36.09Zm-94.01,22.35c.03.2.07.4.1.6,1.1-.06,2.19-.12,3.29-.18,0-.11-.02-.22-.03-.34l-3.36-.09Zm83.9-22.18c0,.09,0,.19,0,.28h3.42c0-.09,0-.19,0-.28h-3.41Zm723.53-21.85c-.03-.2-.07-.4-.1-.6-1.1.06-2.19.12-3.29.18l.02.34c1.12.03,2.25.06,3.37.09Zm-700.56,22.46c0,.09.02.19.03.28h3.44l-.05-.4c-1.14.04-2.28.08-3.41.12Zm608.87-22.64c.44-.01.88-.03,1.32-.04-.13-.5-.26-1-.39-1.5-.25,0-.49,0-.74,0-.06.51-.13,1.03-.19,1.54Zm-644.78,17.52c-.03-.2-.07-.4-.1-.6-1.1.06-2.19.12-3.29.18,0,.11.02.22.03.34,1.12.03,2.24.06,3.36.09Zm-96.91,16.28c0,.09,0,.19,0,.28h3.42c0-.09,0-.19,0-.28h-3.41Zm31.65-10.04c.1-.17.2-.33.3-.5h-3.41c-.02.1-.03.2-.05.29,1.05.07,2.11.14,3.16.2Zm34.72-7.93c0,.09.02.19.03.28h3.44l-.05-.4c-1.14.04-2.28.08-3.41.12Zm43.21,9.51c-.76-.33-1.41-.61-2.6-1.12-.05,1.18.4,1.58,2.6,1.12Zm33.19-16.47c-.1.17-.2.33-.3.5h3.41c.02-.1.03-.2.05-.29-1.05-.07-2.11-.14-3.16-.2Zm5.69,16.7c-.03-.2-.07-.4-.1-.6-1.1.06-2.19.12-3.29.18,0,.11.02.22.03.34,1.12.03,2.24.06,3.36.09Zm-95.1,3.76c.1-.17.2-.33.3-.5h-3.41c-.02.1-.03.2-.05.29,1.05.07,2.11.14,3.16.2Zm70.88-15.64c0-.09,0-.19,0-.28h-3.42c0,.09,0,.19,0,.28h3.41Zm737.38-2.35c-.1.17-.2.33-.3.5h3.41c.02-.1.03-.2.05-.29-1.05-.07-2.11-.14-3.16-.2Zm-847.25,15.35c0-.09,0-.19,0-.28h-3.42c0,.09,0,.19,0,.28h3.41Zm100.18,1.36c-.03-.2-.07-.4-.1-.6-1.1.06-2.19.12-3.29.18,0,.11.02.22.03.34,1.12.03,2.24.06,3.36.09Zm92.52-26.77c-.03-.11-.05-.22-.08-.34-.69.03-1.39.06-2.08.1.03.12.06.24.09.36.69-.04,1.38-.08,2.07-.12Zm534.22-4.69c-.26.01-.51.03-.77.04.08.31.15.62.23.93.26-.01.51-.02.77-.04-.08-.31-.15-.62-.23-.93Zm3.43-2.03l.73-.04-.21-.95c-.26.01-.53.03-.79.04.09.32.18.63.27.95Zm-172.99,56.51l-.73.04.21.95c.26-.01.53-.03.79-.04-.09-.32-.18-.63-.27-.95Zm-430.08-25.52c0-.18-.01-.36-.02-.54l-2.01.14c0,.09,0,.18,0,.27.68.04,1.35.09,2.03.13Zm-61.69-10.94l.09.35,2.04-.1c-.03-.12-.05-.23-.08-.35-.68.03-1.36.07-2.04.1Zm461.29,60.44c.26-.01.51-.03.77-.04-.08-.31-.15-.62-.23-.93-.26.01-.51.02-.77.04l.23.93Zm-479.62-41.44c0-.18-.01-.36-.02-.54l-2.01.14c0,.09,0,.18,0,.27.68.04,1.35.09,2.03.13Zm30.54-10.32c.03.12.06.23.09.35.68-.03,1.36-.07,2.04-.1-.03-.12-.05-.23-.08-.35-.68.03-1.36.07-2.04.1Zm62.69-15.59c0,.18.01.36.02.54.67-.05,1.34-.09,2.01-.14,0-.09,0-.18,0-.27-.68-.04-1.35-.09-2.03-.13Zm-64.75,9.81l-.02-.54c-.67.05-1.34.09-2.01.14,0,.09,0,.18,0,.27.68.04,1.35.09,2.03.13Zm-120.71,19.82l-.02-.54c-.67.05-1.34.09-2.01.14,0,.09,0,.18,0,.27.68.04,1.36.09,2.03.13Zm96.97-18.98c.03.11.05.22.08.34.69-.03,1.39-.06,2.08-.1l-.09-.36c-.69.04-1.38.08-2.07.12ZM24.3,108.26c-.39,0-.78,0-1.17,0,.1.31.2.61.31.92.19,0,.39,0,.58,0,.1-.31.19-.62.29-.93Zm816.24-60.21c-.24.01-.49.02-.73.04.07.32.14.63.21.95.26-.01.53-.03.79-.04-.09-.32-.18-.63-.27-.95ZM147.63,87.44l-.09-.35-2.04.1c.03.12.05.23.08.35.68-.03,1.36-.07,2.04-.1Zm-51.16,24.48c.03.11.05.22.08.34.69-.03,1.39-.06,2.08-.1l-.09-.36c-.69.04-1.38.08-2.07.12Zm6.4.29c-.03-.12-.06-.23-.09-.35l-2.04.1c.03.12.05.23.08.35.68-.03,1.36-.07,2.04-.1Zm14.27-12.18c0,.18.01.36.02.54l2.01-.14c0-.09,0-.18,0-.27-.68-.04-1.35-.09-2.03-.13Zm2.7-9.17c-.07.06-.21.13-.18.17.06.08.23.13.35.2.08-.12.16-.24.24-.36-.14,0-.27,0-.41,0Zm111.22-3.1c-.07.06-.21.13-.18.17.06.08.23.13.35.2.08-.12.16-.24.24-.36-.14,0-.27,0-.41,0Zm-49.67-.56c-.13-.03-.29-.1-.38-.08-.16.03-.29.1-.43.16.26.04.53.07.79.11,0-.06.01-.12.02-.19Zm27.13,1.24c-.13-.03-.29-.1-.38-.08-.16.03-.29.1-.43.16.26.04.53.07.79.11,0-.06.01-.12.02-.19Zm-89.44-1.8c-.12-.06-.25-.13-.37-.19-.14.06-.27.12-.41.18.19.06.39.13.58.19.07-.06.13-.12.2-.18Zm20.34-1.24c-.12-.06-.25-.13-.37-.19-.14.06-.27.12-.41.18.19.06.39.13.58.19.07-.06.13-.12.2-.18Zm93.59-3.1c-.12-.06-.25-.13-.37-.19-.14.06-.27.12-.41.18.19.06.39.13.58.19.07-.06.13-.12.2-.18Zm-36.62,8.67c-.12-.06-.25-.13-.37-.19-.14.06-.27.12-.41.18.19.06.39.13.58.19.07-.06.13-.12.2-.18Zm50.95-9.4c-.07.06-.21.13-.18.17.06.08.23.13.35.2.08-.12.16-.24.24-.36-.14,0-.27,0-.41,0Zm-8.91.11c-.12-.06-.25-.13-.37-.19-.14.06-.27.12-.41.18.19.06.39.13.58.19.07-.06.13-.12.2-.18ZM815.89,19.97c.14-.06.28-.11.43-.17-.13-.06-.26-.12-.39-.19-.14.09-.28.18-.42.27.13.03.26.06.38.09ZM220.46,80.65c.14-.06.28-.11.43-.17-.13-.06-.26-.12-.39-.19-.14.09-.28.18-.42.27.13.03.26.06.38.09Zm-55.36,14.59c-.13-.03-.29-.1-.38-.08-.16.03-.29.1-.43.16l.79.11c0-.06.01-.12.02-.19Zm6.86.06c-.12-.06-.25-.13-.37-.19l-.41.18c.19.06.39.13.58.19.07-.06.13-.12.2-.18Zm40.69,0c-.12-.06-.25-.13-.37-.19-.14.06-.27.12-.41.18.19.06.39.13.58.19.07-.06.13-.12.2-.18Zm-15.24.83c.14-.06.28-.11.43-.17-.13-.06-.26-.12-.39-.19-.14.09-.28.18-.42.27.13.03.26.06.38.09Zm490.99,0c.14-.06.28-.11.43-.17-.13-.06-.26-.12-.39-.19-.14.09-.28.18-.42.27.13.03.26.06.38.09Zm-555,.92c-.07.06-.21.13-.18.17.06.08.23.13.35.2l.24-.36c-.14,0-.27,0-.41,0Zm42.63,3.21c-.12-.06-.25-.13-.37-.19-.14.06-.27.12-.41.18.19.06.39.13.58.19.07-.06.13-.12.2-.18Zm-98.24,3.6c-.07.06-.21.13-.18.17.06.08.23.13.35.2.08-.12.16-.24.24-.36-.14,0-.27,0-.41,0Zm935.09-29.61c-.12-.06-.25-.13-.37-.19-.14.06-.27.12-.41.18.19.06.39.13.58.19.07-.06.13-.12.2-.18ZM16.75,105.72c-.07.06-.21.13-.18.17.06.08.23.13.35.2.08-.12.16-.24.24-.36-.14,0-.27,0-.41,0Zm5.94.06c-.13-.03-.29-.1-.38-.08-.16.03-.29.1-.43.16.26.04.53.07.79.11,0-.06.01-.12.02-.19Zm966.54-35.35c-.07.06-.21.13-.18.17.06.08.23.13.35.2l.24-.36c-.14,0-.27,0-.41,0Zm-360.19,98.57l-.37-.19c-.14.06-.27.12-.41.18.19.06.39.13.58.19.07-.06.13-.12.2-.18Zm1.36-1.86l-.37-.19c-.14.06-.27.12-.41.18.19.06.39.13.58.19.07-.06.13-.12.2-.18Zm-136.99-47.06c-.12-.06-.25-.13-.37-.19-.14.06-.27.12-.41.18l.58.19.2-.18ZM784.94,12.89c-.13-.03-.29-.1-.38-.08-.16.03-.29.1-.43.16.26.04.53.07.79.11,0-.06.01-.12.02-.19Zm-134.52,142.07c.14-.06.28-.11.43-.17-.13-.06-.26-.12-.39-.19-.14.09-.28.18-.42.27.13.03.26.06.38.09Zm.25-1.51c-.13-.03-.29-.1-.38-.08-.16.03-.29.1-.43.16.26.04.53.07.79.11,0-.06.01-.12.02-.19Zm202.09-98.46c-.13-.03-.29-.1-.38-.08-.16.03-.29.1-.43.16.26.04.53.07.79.11,0-.06.01-.12.02-.19Zm-1.28-1.18c-.12-.06-.25-.13-.37-.19-.14.06-.27.12-.41.18.19.06.39.13.58.19.07-.06.13-.12.2-.18Zm1.36-4.95c-.12-.06-.25-.13-.37-.19-.14.06-.27.12-.41.18.19.06.39.13.58.19.07-.06.13-.12.2-.18Zm-8.14-2.48c-.12-.06-.25-.13-.37-.19-.14.06-.27.12-.41.18.19.06.39.13.58.19.07-.06.13-.12.2-.18Zm0-5.57c-.12-.06-.25-.13-.37-.19-.14.06-.27.12-.41.18.19.06.39.13.58.19.07-.06.13-.12.2-.18Z"/>
  <path class="cls-1" d="m587.43,198.51c-.97.39-1.82.86-2.92,1.15-1.66.43-3.49.74-6.04,1.26-3.5-.05-7.71.16-11.98.97-2.92.55-6.61.27-10.06.36-1.73-.4-3.46-.81-4.51-1.06-2.71,0-4.9.22-6.77-.04-5.78-.8-11.44-1.79-17.14-2.71-1.02-.17-2.02-.37-2.97-.61-4.95-1.23-9.88-2.47-14.82-3.7-.57-.14-1.28-.21-1.73-.4-2.28-1-4.15-2.41-6.85-2.94-2.63-.51-4.58-1.28-6.66-2.02-3.51-1.24-7.01-2.53-10.05-3.99-2.85-1.37-6.19-2.51-8.85-3.97-1.98-1.09-3.93-2.18-5.89-3.27-.29-.16-.55-.35-.92-.45-3.94-1.01-6.09-2.84-9.2-4.22-8.35-3.71-15.65-7.83-22.61-12.1-3.18-1.95-6.98-3.69-10.57-5.5-3.91-1.97-8.22-3.78-10.96-6.18-.5-.44-1.51-.76-2.31-1.12-6.5-2.97-12.25-6.25-18.34-9.38-6.42-3.3-12.26-6.87-19.55-9.85-4.19-1.71-7.54-3.84-11.43-5.71-1.98-.95-4.31-1.75-6.49-2.6-.67-.26-1.49-.46-2.07-.76-4.57-2.34-9.8-4.37-14.5-6.64-.57-.28-.8-.7-.78-.68-5.52-1.72-10.56-3.14-15.2-4.79-4.86-1.73-10.49-2.89-15.19-4.8-3.39-1.38-8.4-2.15-12.97-2.64-2.52-.27-4.32-.87-6.48-1.27-3.58-.66-7.47-1.03-11.31-1.28-3.1-.2-6.31-.04-9.86-.04-.6-.26-1.39-.59-2.23-.95,7.21-1.59,14.44-1.11,21.34-.06,10.2,1.55,17.77,3.01,30.68,7.05,7.26,2.27,14.28,4.68,21.3,7.09,3.93,1.35,7.76,2.75,11.48,4.21,3.89,1.52,7.39,3.29,11.59,4.59,7.36,2.27,11.84,5.76,18.09,8.49,2.96,1.29,5.45,2.78,8.8,3.97,3.09,1.1,5.29,2.71,7.87,4.1,5.01,2.71,10,5.42,15,8.13,1.74.95,3.08,2.28,5.3,2.76,4.42.96,5.98,2.95,8.95,4.39,4.68,2.28,9.2,4.67,13.14,7.22,7.56,4.89,18.03,8.66,24.97,13.77.58.43,1.52.76,2.34,1.11,9.16,3.98,18.11,8.08,27.56,11.91,11.02,4.47,23.1,8.3,36.57,11.12,5.14,1.07,10.38,2.04,16.94,3.33,6.68.21,14.89.47,22.54.71,2.83-.81,5.05-1.44,7.33-2.09h8.13s.3.14.3.14Z"/>
  <path class="cls-1" d="m913.04,166.22h6.71c2.92-.88,6.61-1.58,8.9-2.82,1.88-1.02,4.43-1.55,6.26-2.55,1.8-.99,4.78-1.53,6.52-2.53,2.18-1.26,5.83-.23,7.67-1.38,4.8.71,9.21,1.5,12.49,3.31,1.01.56,2.99.76,4.73,1.17,3.82-1.05,9.29-.75,10.93-3.23h7.16c3.72.26,5.72,1.56,7.33,3.01h7.11c.19-.06.53-.21.92-.3q7.56-1.77,15.45-.77c1.86.24,3.7.52,5.84.82v1.44h-8.57c-1.17-.27-2.92-.68-5.09-1.2-4.8.72-9.92,1.49-15.52,2.34-1.4-.31-3.3-.73-5.09-1.13-.91-.59-1.78-1.16-2.61-1.7h-6.11c-3.14.83-6.17,1.63-9.21,2.43h-7.78c-3.91-1.76-8.06-3.61-14.01-3.76-2.54.68-4.89,1.23-7,1.92-1.5.5-2.49,1.32-4.01,1.79-6.36,1.98-12.16,4.39-19.44,5.64-3.38-.53-6.64-1.03-10.73-1.67-3-1.38-6.65-3.06-10.49-4.83-.25-2.4-4.34-3.74-8.18-5.45h-8.26c.05-.39.08-.59.12-.96,5.91-.46,11.22.21,15.81,1.94,2.79,1.05,5.21,2.22,7.35,3.65,2.81,1.88,7.22,3.26,10.8,4.79Z"/>
  <path class="cls-1" d="m1033.59,129.18c-.1.71-.16,1.11-.21,1.47-1.12.26-2.09.49-3.25.76.06,0-.15.03-.29,0-2.52-.59-5.03-1.18-7.75-1.82-2.74.8-6.13.79-8.61,2.04-1.43.72-4.23.88-6.4,1.29-3.36-.61-6.58-1.19-10.83-1.96-.62.02-2.41,0-4.15.13-1.39.1-2.71.37-4.49.63-.35-1.97,2.44-1.86,4.61-2.15,2.05-.28,4.01-.71,6.3-1.12,6.32,1.95,12.92,2.68,20-.17,4.76.29,9.91.6,15.08.91Z"/>
  <path class="cls-1" d="m1042.92,108.33v1.4c-1.47.05-3.74.4-4.31.1-3.17-1.69-6.58-1.2-10.22-.57-.74.13-1.69.02-2.77.02-.14-.57-.23-.95-.33-1.39,3.44-1.11,7.27-1.22,11.18-1.08,2.15.51,4.27,1.01,6.46,1.53Z"/>
  <path class="cls-1" d="m1029.74,103.83c-.13-.61-.17-.8-.21-1,.14-.07.28-.21.43-.21,4.41-.01,8.82,0,13.57,0q2.81,1.28.04,2.96c-3.28-.31-5.67-1.29-7.91-2.44-1.83.22-3.62.43-5.91.7Z"/>
  <path class="cls-1" d="m587.13,198.37c.03-.91.96-1.51,2.89-1.81,2.15-.34,4.26-.72,6.64-1.13.06.54.1.93.15,1.31-2.88.94-5.43,2.13-9.38,1.78l-.3-.14Z"/>
  <path class="cls-1" d="m591.87,174.89c-.71-.4-1.21-.68-2.22-1.24,3.95.09,7.02-.17,10.01-.9,1.73-.42,4.14-.27,6.98-.41-.59.72-.66,1.17-1.18,1.35-3.93,1.36-8.55,1.28-13.6,1.2Z"/>
  <path class="cls-1" d="m623.14,159.1c-2.85,2.39-8.84,1.2-10.83,2.67-5.13-.25-9.46-.46-13.93-.68v-1.05c6.05,1.03,11.5.15,16.92-.78,2.37-.41,2.34-.45,7.85-.16Z"/>
  <path class="cls-1" d="m608.29,164.87c-2.45.06-4.06.1-6.71.17,1.68-.81,2.65-1.28,3.97-1.92.83.53,1.55.99,2.74,1.75Z"/>
  <path class="cls-1" d="m615.61,157.42c-.71.04-1.42.08-2.13.12-.03-.13-.06-.25-.09-.38.71-.04,1.41-.08,2.12-.11.03.12.06.25.1.37Z"/>
  <path class="cls-1" d="m611.23,164.35c-.71-.05-1.41-.09-2.12-.14,0-.09,0-.19,0-.28.7-.05,1.4-.1,2.09-.15.01.19.02.38.03.57Z"/>
  <path class="cls-1" d="m204.95,89.52c.36-.08.71-.08,1.07,0,.18.16.18.33,0,.49-.36-.16-.71-.32-1.07-.49Z"/>
  <path class="cls-1" d="m267.19,105.24c-2.49-.1-4.97-.21-7.46-.31"/>
  <path class="cls-1" d="m576.43,184.51c-.68.1-1.36.21-2.03.31"/>
  <path class="cls-1" d="m82.05,107.72c-.9-.1-1.81-.21-2.71-.31"/>
  <path class="cls-1" d="m571,200.61c1.13-.1,2.26-.21,3.39-.31"/>
  <path class="cls-1" d="m257.69,100.91c-.68-.1-1.36-.21-2.03-.31"/>
  <path class="cls-1" d="m571,184.51c-.68-.1-1.36-.21-2.03-.31"/>
  <path class="cls-1" d="m891.09,149.83c-.68.1-1.36.21-2.03.31"/>
  <path class="cls-1" d="m606.27,160.97c-2.26-.1-4.52-.21-6.78-.31"/>
  <path class="cls-1" d="m292.28,89.14c.9.1,1.81.21,2.71.31"/>
  <path class="cls-1" d="m325.51,68.71c.68-.1,1.36-.21,2.03-.31"/>
  <path class="cls-1" d="m874.82,116.39c.68-.1,1.36-.21,2.03-.31"/>
  <path class="cls-1" d="m301.1,89.76c.68.1,1.36.21,2.03.31"/>
  <path class="cls-1" d="m888.38,149.83c-1.36-.09-3.53.05-4.75.31"/>
  <path class="cls-1" d="m927.71,86.67c1.13.1,2.26.21,3.39.31"/>
  <path class="cls-1" d="m611.69,167.79c-.68.1-1.36.21-2.03.31"/>
  <path class="cls-1" d="m192.59,80.78c2.16.46,4.17,1.15,6.78.93"/>
  <path class="cls-1" d="m994.17,123.82c-1.58.31-3.16.62-4.75.93"/>
  <path class="cls-1" d="m321.44,75.52c-1.13-.1-2.26-.21-3.39-.31"/>
  <path class="cls-1" d="m576.43,190.7c.68-.1,1.36-.21,2.03-.31"/>
  <path class="cls-1" d="m317.37,79.24c-1.58-.1-3.16-.21-4.75-.31"/>
  <path class="cls-1" d="m219.72,82.95c-2.03.1-4.07.21-6.1.31"/>
  <path class="cls-1" d="m585.24,190.08c.83-.23,1.32-1.11,2.71-.31"/>
  <path class="cls-1" d="m937.21,82.95c-.68-.1-1.36-.21-2.03-.31"/>
  <path class="cls-1" d="m911.44,121.34c-.68-.1-1.36-.21-2.03-.31"/>
  <path class="cls-1" d="m931.78,82.33c-.68.1-1.36.21-2.03.31"/>
  <path class="cls-1" d="m1036.22,102.77c-1.13.1-2.26.21-3.39.31"/>
  <path class="cls-1" d="m887.02,156.64c.68.1,1.36.21,2.03.31"/>
  <path class="cls-1" d="m610.34,175.84c-.68.1-1.36.21-2.03.31"/>
  <path class="cls-1" d="m217,79.85c-5.65-.1-11.3-.21-16.95-.31"/>
  <path class="cls-1" d="m572.36,204.94c-.68.1-1.36.21-2.03.31"/>
  <path class="cls-1" d="m147.15,92.24c-.23-.31-.45-.62-.68-.93"/>
  <path class="cls-1" d="m217.68,86.98c-1.36-.21-2.71-.41-4.07-.62"/>
  <path class="cls-1" d="m214.29,84.81c-.68-.1-1.36-.21-2.03-.31"/>
  <path class="cls-1" d="m212.93,86.36c-1.81-.1-4.36-.6-5.28-.23-2.4.95-5.39.09-7.6.85"/>
  <path class="cls-1" d="m624.58,178.62c-.23.31-.45.62-.68.93"/>
  <path class="cls-1" d="m888.38,100.29c-.68.1-1.36.21-2.03.31"/>
  <path class="cls-1" d="m621.86,181.1c-.23.31-.45.62-.68.93"/>
  <path class="cls-1" d="m218.36,80.78c-1.36.1-2.74.16-4.06.33-.96.12-1.82.4-2.72.6"/>
  <path class="cls-1" d="m81.37,105.24c.68.1,1.36.21,2.03.31"/>
  <path class="cls-1" d="m654.42,134.35c-.23.41-.45.83-.68,1.24"/>
  <path class="cls-1" d="m774.45,18.24c1.13.21,2.26.41,3.39.62"/>
  <path class="cls-1" d="m914.15,115.77c-2.03.1-4.07.21-6.1.31"/>
  <path class="cls-1" d="m204.12,84.5c-1.36.21-2.71.41-4.07.62"/>
  <path class="cls-1" d="m794.8,14.22c1.13.1,2.26.21,3.39.31"/>
  <path class="cls-1" d="m927.71,91.62c-.68-.1-1.36-.21-2.03-.31"/>
  <path class="cls-1" d="m604.91,164.38c-.68.1-1.36.21-2.03.31"/>
  <path class="cls-1" d="m920.93,92.24c-.68.1-1.36.21-2.03.31"/>
  <path class="cls-1" d="m206.15,88.52c.98.45,1.89,1.05,3.39.31"/>
  <path class="cls-1" d="m212.93,86.67c-.23.21-.48.41-.67.62-.08.09-.01.2-.01.31"/>
</svg>