<?xml version="1.0" encoding="utf-8"?>
<!-- Generator: Adobe Illustrator 27.4.1, SVG Export Plug-In . SVG Version: 6.00 Build 0)  -->
<svg version="1.1" id="Ebene_1" xmlns="http://www.w3.org/2000/svg" xmlns:xlink="http://www.w3.org/1999/xlink" x="0px" y="0px"
	 viewBox="0 0 1728 878.4" style="enable-background:new 0 0 1728 878.4;" xml:space="preserve">
<style type="text/css">
	.st0{fill:none;stroke:#C9D1D9;stroke-width:6;stroke-miterlimit:10;}
	.st1{fill:none;stroke:#D85648;stroke-width:10.59;stroke-miterlimit:10;}
	.st2{fill:none;stroke:#D85648;stroke-width:10;stroke-miterlimit:10;}
	.st3{fill:#C9D1D9;}
</style>
<line class="st0" x1="14.4" y1="176.4" x2="727.2" y2="176.4"/>
<line class="st0" x1="14.4" y1="608.4" x2="727.2" y2="608.4"/>
<line class="st0" x1="1011.6" y1="608.4" x2="1724.4" y2="608.4"/>
<line class="st0" x1="1011.6" y1="176.4" x2="1724.4" y2="176.4"/>
<path class="st1" d="M46.8,176.4c0.2-0.3,0.3-0.4,0.3-0.4l35.3-55.6L101.3,93l15.8-20.9l14-16.5l12.8-13.1l11.6-10.1l11-7.9
	l10.4-5.9l9.1-3.9l8.5-2.5l7.9-1.3l7.3-0.3l7.3,0.5l7.3,1.3l7.9,2.4l8.5,3.6l9.1,5.1l10.3,7.2l11.6,9.8L284,52.8l12.8,14.6
	l14.6,18.7l16.4,23.2l20.1,30.6c0,0,11.8,18.7,22.9,36.5"/>
<path class="st1" d="M370.8,176.4c0.2,0.3,0.3,0.4,0.3,0.4l35.3,55.6l18.9,27.4l15.8,20.9l14,16.5l12.8,13.1l11.6,10.1l11,7.9
	l10.4,5.9l9.1,3.9l8.5,2.5l7.9,1.3l7.3,0.3l7.3-0.5l7.3-1.3l7.9-2.4l8.5-3.6l9.1-5.1l10.3-7.2l11.6-9.8L608,300l12.8-14.6l14.6-18.7
	l16.4-23.2l20.1-30.6c0,0,11.8-18.7,22.9-36.5"/>
<polyline class="st1" points="50.4,608.4 50.4,442.8 46.8,442.8 370.8,442.8 370.8,774 694.8,774 694.8,608.4 "/>
<polyline class="st1" points="1692,608.4 1692,442.8 1044,774 1044,608.4 "/>
<polyline class="st2" points="1044,176.4 1206,342 1530,10.8 1692,176.4 "/>
<g>
	<path class="st3" d="M330.8,373.1c-4.8-1.4-8.3-3.1-10.5-5.1s-3.3-4.5-3.3-7.5c0-3.4,1.3-6.1,4-8.3c2.7-2.2,6.2-3.3,10.5-3.3
		c2.9,0,5.5,0.6,7.8,1.7c2.3,1.1,4.1,2.7,5.3,4.7s1.9,4.2,1.9,6.5h-5.7c0-2.6-0.8-4.6-2.5-6.1c-1.6-1.5-4-2.2-6.9-2.2
		c-2.8,0-4.9,0.6-6.5,1.8c-1.6,1.2-2.3,2.9-2.3,5.1c0,1.7,0.7,3.2,2.2,4.4c1.5,1.2,4,2.3,7.5,3.3c3.5,1,6.3,2.1,8.3,3.3
		c2,1.2,3.5,2.6,4.5,4.2c1,1.6,1.5,3.5,1.5,5.7c0,3.5-1.3,6.2-4,8.3s-6.3,3.1-10.8,3.1c-2.9,0-5.7-0.6-8.2-1.7
		c-2.5-1.1-4.5-2.7-5.9-4.6c-1.4-2-2.1-4.2-2.1-6.7h5.7c0,2.6,1,4.6,2.9,6.1s4.4,2.2,7.6,2.2c3,0,5.2-0.6,6.8-1.8
		c1.6-1.2,2.4-2.9,2.4-5c0-2.1-0.7-3.7-2.2-4.8S334.6,374.2,330.8,373.1z"/>
	<path class="st3" d="M353,352c0-0.9,0.3-1.6,0.8-2.2c0.5-0.6,1.3-0.9,2.4-0.9s1.9,0.3,2.4,0.9c0.5,0.6,0.8,1.3,0.8,2.2
		s-0.3,1.6-0.8,2.2c-0.5,0.6-1.3,0.9-2.4,0.9s-1.9-0.3-2.4-0.9C353.3,353.6,353,352.9,353,352z M358.9,392.1h-5.4v-31.7h5.4V392.1z"
		/>
	<path class="st3" d="M372.7,360.4l0.2,4c2.4-3,5.6-4.6,9.5-4.6c6.7,0,10.1,3.8,10.1,11.3v20.9H387v-21c0-2.3-0.5-4-1.6-5.1
		c-1-1.1-2.6-1.6-4.8-1.6c-1.8,0-3.3,0.5-4.6,1.4c-1.3,0.9-2.4,2.2-3.1,3.7v22.6h-5.4v-31.7H372.7z"/>
	<path class="st3" d="M413.8,392.7c-4.3,0-7.8-1.4-10.5-4.2c-2.7-2.8-4-6.6-4-11.3v-1c0-3.1,0.6-6,1.8-8.4c1.2-2.5,2.9-4.4,5-5.8
		c2.2-1.4,4.5-2.1,7-2.1c4.1,0,7.3,1.4,9.6,4.1c2.3,2.7,3.4,6.6,3.4,11.7v2.3h-21.5c0.1,3.1,1,5.6,2.7,7.6c1.7,1.9,4,2.9,6.7,2.9
		c1.9,0,3.5-0.4,4.9-1.2c1.3-0.8,2.5-1.8,3.5-3.1l3.3,2.6C423.1,390.7,419.1,392.7,413.8,392.7z M413.1,364.3c-2.2,0-4,0.8-5.5,2.4
		c-1.5,1.6-2.4,3.8-2.8,6.7h15.9V373c-0.2-2.8-0.9-4.9-2.2-6.4C417.2,365,415.4,364.3,413.1,364.3z"/>
</g>
<g>
	<path class="st3" d="M1295.3,354.1h-13.7v38.1h-5.6v-38.1h-13.7v-4.6h33V354.1z"/>
	<path class="st3" d="M1313.9,365.3c-0.8-0.1-1.7-0.2-2.7-0.2c-3.6,0-6,1.5-7.2,4.5v22.5h-5.4v-31.7h5.3l0.1,3.7
		c1.8-2.8,4.3-4.2,7.6-4.2c1.1,0,1.9,0.1,2.4,0.4V365.3z"/>
	<path class="st3" d="M1318.9,352c0-0.9,0.3-1.6,0.8-2.2c0.5-0.6,1.3-0.9,2.4-0.9s1.9,0.3,2.4,0.9c0.5,0.6,0.8,1.3,0.8,2.2
		s-0.3,1.6-0.8,2.2c-0.5,0.6-1.3,0.9-2.4,0.9s-1.9-0.3-2.4-0.9C1319.2,353.6,1318.9,352.9,1318.9,352z M1324.8,392.1h-5.4v-31.7h5.4
		V392.1z"/>
	<path class="st3" d="M1353,392.1c-0.3-0.6-0.6-1.7-0.8-3.3c-2.5,2.6-5.5,3.9-9,3.9c-3.1,0-5.7-0.9-7.7-2.7c-2-1.8-3-4-3-6.7
		c0-3.3,1.3-5.9,3.8-7.7c2.5-1.8,6-2.7,10.6-2.7h5.3v-2.5c0-1.9-0.6-3.4-1.7-4.5c-1.1-1.1-2.8-1.7-5-1.7c-1.9,0-3.6,0.5-4.9,1.5
		c-1.3,1-2,2.2-2,3.5h-5.4c0-1.6,0.6-3.1,1.7-4.6c1.1-1.5,2.6-2.6,4.6-3.5c1.9-0.9,4-1.3,6.3-1.3c3.7,0,6.5,0.9,8.6,2.7
		c2.1,1.8,3.1,4.3,3.2,7.5v14.6c0,2.9,0.4,5.2,1.1,6.9v0.5H1353z M1344,388c1.7,0,3.3-0.4,4.8-1.3s2.6-2,3.3-3.4v-6.5h-4.2
		c-6.6,0-10,1.9-10,5.8c0,1.7,0.6,3,1.7,4C1340.8,387.5,1342.3,388,1344,388z"/>
	<path class="st3" d="M1371.2,360.4l0.2,4c2.4-3,5.6-4.6,9.5-4.6c6.7,0,10.1,3.8,10.1,11.3v20.9h-5.4v-21c0-2.3-0.5-4-1.6-5.1
		c-1-1.1-2.6-1.6-4.8-1.6c-1.8,0-3.3,0.5-4.6,1.4c-1.3,0.9-2.4,2.2-3.1,3.7v22.6h-5.4v-31.7H1371.2z"/>
	<path class="st3" d="M1397.9,376c0-4.9,1.1-8.9,3.4-11.8c2.3-2.9,5.3-4.4,9.1-4.4c3.9,0,6.9,1.4,9.1,4.1l0.3-3.5h5v30.9
		c0,4.1-1.2,7.3-3.6,9.7c-2.4,2.4-5.7,3.5-9.8,3.5c-2.3,0-4.5-0.5-6.7-1.5c-2.2-1-3.9-2.3-5-4l2.8-3.3c2.3,2.9,5.2,4.3,8.5,4.3
		c2.6,0,4.7-0.7,6.2-2.2c1.5-1.5,2.2-3.6,2.2-6.3V389c-2.2,2.5-5.1,3.8-8.9,3.8c-3.7,0-6.7-1.5-9-4.5S1397.9,381.2,1397.9,376z
		 M1403.4,376.6c0,3.6,0.7,6.4,2.2,8.4c1.5,2,3.5,3.1,6.2,3.1c3.4,0,5.9-1.6,7.5-4.7V369c-1.7-3-4.2-4.5-7.5-4.5
		c-2.6,0-4.7,1-6.2,3.1S1403.4,372.6,1403.4,376.6z"/>
	<path class="st3" d="M1438.8,392.1h-5.4v-45h5.4V392.1z"/>
	<path class="st3" d="M1460.6,392.7c-4.3,0-7.8-1.4-10.5-4.2c-2.7-2.8-4-6.6-4-11.3v-1c0-3.1,0.6-6,1.8-8.4c1.2-2.5,2.9-4.4,5-5.8
		c2.2-1.4,4.5-2.1,7-2.1c4.1,0,7.3,1.4,9.6,4.1c2.3,2.7,3.4,6.6,3.4,11.7v2.3h-21.5c0.1,3.1,1,5.6,2.7,7.6c1.7,1.9,4,2.9,6.7,2.9
		c1.9,0,3.5-0.4,4.9-1.2c1.3-0.8,2.5-1.8,3.5-3.1l3.3,2.6C1469.9,390.7,1465.9,392.7,1460.6,392.7z M1459.9,364.3
		c-2.2,0-4,0.8-5.5,2.4c-1.5,1.6-2.4,3.8-2.8,6.7h15.9V373c-0.2-2.8-0.9-4.9-2.2-6.4C1464,365,1462.2,364.3,1459.9,364.3z"/>
</g>
<g>
	<path class="st3" d="M294.8,819c-4.8-1.4-8.3-3.1-10.5-5.1s-3.3-4.5-3.3-7.5c0-3.4,1.3-6.1,4-8.3c2.7-2.2,6.2-3.3,10.5-3.3
		c2.9,0,5.5,0.6,7.8,1.7c2.3,1.1,4.1,2.7,5.3,4.7s1.9,4.2,1.9,6.5h-5.7c0-2.6-0.8-4.6-2.5-6.1c-1.6-1.5-4-2.2-6.9-2.2
		c-2.8,0-4.9,0.6-6.5,1.8c-1.6,1.2-2.3,2.9-2.3,5.1c0,1.7,0.7,3.2,2.2,4.4c1.5,1.2,4,2.3,7.5,3.3c3.5,1,6.3,2.1,8.3,3.3
		c2,1.2,3.5,2.6,4.5,4.2c1,1.6,1.5,3.5,1.5,5.7c0,3.5-1.3,6.2-4,8.3s-6.3,3.1-10.8,3.1c-2.9,0-5.7-0.6-8.2-1.7
		c-2.5-1.1-4.5-2.7-5.9-4.6c-1.4-2-2.1-4.2-2.1-6.7h5.7c0,2.6,1,4.6,2.9,6.1s4.4,2.2,7.6,2.2c3,0,5.2-0.6,6.8-1.8
		c1.6-1.2,2.4-2.9,2.4-5c0-2.1-0.7-3.7-2.2-4.8S298.7,820.1,294.8,819z"/>
	<path class="st3" d="M315.7,821.9c0-5,1.1-8.9,3.4-11.8s5.4-4.4,9.2-4.4c3.8,0,6.7,1.3,8.9,3.8l0.2-3.2h5v43.9H337v-15.1
		c-2.2,2.3-5.1,3.5-8.7,3.5c-3.8,0-6.9-1.5-9.2-4.5c-2.3-3-3.4-6.9-3.4-11.9V821.9z M321.1,822.5c0,3.6,0.8,6.5,2.3,8.6
		c1.5,2.1,3.6,3.1,6.2,3.1c3.2,0,5.7-1.4,7.4-4.3v-15.5c-1.7-2.8-4.2-4.2-7.3-4.2c-2.6,0-4.7,1-6.2,3.1
		C321.9,815.4,321.1,818.5,321.1,822.5z"/>
	<path class="st3" d="M370.7,834.9c-2.1,2.5-5.2,3.7-9.3,3.7c-3.4,0-6-1-7.7-2.9c-1.8-2-2.7-4.9-2.7-8.7v-20.6h5.4v20.5
		c0,4.8,2,7.2,5.9,7.2c4.1,0,6.9-1.5,8.3-4.6v-23.1h5.4V838h-5.2L370.7,834.9z"/>
	<path class="st3" d="M403.8,838c-0.3-0.6-0.6-1.7-0.8-3.3c-2.5,2.6-5.5,3.9-9,3.9c-3.1,0-5.7-0.9-7.7-2.7c-2-1.8-3-4-3-6.7
		c0-3.3,1.3-5.9,3.8-7.7c2.5-1.8,6-2.7,10.6-2.7h5.3v-2.5c0-1.9-0.6-3.4-1.7-4.5c-1.1-1.1-2.8-1.7-5-1.7c-1.9,0-3.6,0.5-4.9,1.5
		c-1.3,1-2,2.2-2,3.5h-5.4c0-1.6,0.6-3.1,1.7-4.6c1.1-1.5,2.6-2.6,4.6-3.5c1.9-0.9,4-1.3,6.3-1.3c3.7,0,6.5,0.9,8.6,2.7
		c2.1,1.8,3.1,4.3,3.2,7.5v14.6c0,2.9,0.4,5.2,1.1,6.9v0.5H403.8z M394.8,833.9c1.7,0,3.3-0.4,4.8-1.3s2.6-2,3.3-3.4v-6.5h-4.2
		c-6.6,0-10,1.9-10,5.8c0,1.7,0.6,3,1.7,4C391.5,833.4,393,833.9,394.8,833.9z"/>
	<path class="st3" d="M432.2,811.2c-0.8-0.1-1.7-0.2-2.7-0.2c-3.6,0-6,1.5-7.2,4.5V838h-5.4v-31.7h5.3l0.1,3.7
		c1.8-2.8,4.3-4.2,7.6-4.2c1.1,0,1.9,0.1,2.4,0.4V811.2z"/>
	<path class="st3" d="M449.7,838.6c-4.3,0-7.8-1.4-10.5-4.2c-2.7-2.8-4-6.6-4-11.3v-1c0-3.1,0.6-6,1.8-8.4c1.2-2.5,2.9-4.4,5-5.8
		c2.2-1.4,4.5-2.1,7-2.1c4.1,0,7.3,1.4,9.6,4.1c2.3,2.7,3.4,6.6,3.4,11.7v2.3h-21.5c0.1,3.1,1,5.7,2.7,7.6c1.7,1.9,4,2.9,6.7,2.9
		c1.9,0,3.5-0.4,4.9-1.2c1.3-0.8,2.5-1.8,3.5-3.1l3.3,2.6C459,836.6,455.1,838.6,449.7,838.6z M449.1,810.2c-2.2,0-4,0.8-5.5,2.4
		c-1.5,1.6-2.4,3.8-2.8,6.7h15.9v-0.4c-0.2-2.8-0.9-4.9-2.2-6.4C453.1,811,451.3,810.2,449.1,810.2z"/>
</g>
<g>
	<path class="st3" d="M1258.8,819c-4.8-1.4-8.3-3.1-10.5-5.1s-3.3-4.5-3.3-7.5c0-3.4,1.3-6.1,4-8.3c2.7-2.2,6.2-3.3,10.5-3.3
		c2.9,0,5.5,0.6,7.8,1.7c2.3,1.1,4.1,2.7,5.3,4.7s1.9,4.2,1.9,6.5h-5.7c0-2.6-0.8-4.6-2.5-6.1c-1.6-1.5-4-2.2-6.9-2.2
		c-2.8,0-4.9,0.6-6.5,1.8c-1.6,1.2-2.3,2.9-2.3,5.1c0,1.7,0.7,3.2,2.2,4.4c1.5,1.2,4,2.3,7.5,3.3c3.5,1,6.3,2.1,8.3,3.3
		c2,1.2,3.5,2.6,4.5,4.2c1,1.6,1.5,3.5,1.5,5.7c0,3.5-1.3,6.2-4,8.3s-6.3,3.1-10.8,3.1c-2.9,0-5.7-0.6-8.2-1.7
		c-2.5-1.1-4.5-2.7-5.9-4.6c-1.4-2-2.1-4.2-2.1-6.7h5.7c0,2.6,1,4.6,2.9,6.1s4.4,2.2,7.6,2.2c3,0,5.2-0.6,6.8-1.8
		c1.6-1.2,2.4-2.9,2.4-5c0-2.1-0.7-3.7-2.2-4.8S1262.7,820.1,1258.8,819z"/>
	<path class="st3" d="M1300.6,838c-0.3-0.6-0.6-1.7-0.8-3.3c-2.5,2.6-5.5,3.9-9,3.9c-3.1,0-5.7-0.9-7.7-2.7c-2-1.8-3-4-3-6.7
		c0-3.3,1.3-5.9,3.8-7.7c2.5-1.8,6-2.7,10.6-2.7h5.3v-2.5c0-1.9-0.6-3.4-1.7-4.5c-1.1-1.1-2.8-1.7-5-1.7c-1.9,0-3.6,0.5-4.9,1.5
		c-1.3,1-2,2.2-2,3.5h-5.4c0-1.6,0.6-3.1,1.7-4.6c1.1-1.5,2.6-2.6,4.6-3.5c1.9-0.9,4-1.3,6.3-1.3c3.7,0,6.5,0.9,8.6,2.7
		c2.1,1.8,3.1,4.3,3.2,7.5v14.6c0,2.9,0.4,5.2,1.1,6.9v0.5H1300.6z M1291.6,833.9c1.7,0,3.3-0.4,4.8-1.3s2.6-2,3.3-3.4v-6.5h-4.2
		c-6.6,0-10,1.9-10,5.8c0,1.7,0.6,3,1.7,4C1288.3,833.4,1289.8,833.9,1291.6,833.9z"/>
	<path class="st3" d="M1341.7,830.6l6.1-24.2h5.4L1344,838h-4.4l-7.7-24l-7.5,24h-4.4l-9.2-31.7h5.4l6.2,23.7l7.4-23.7h4.4
		L1341.7,830.6z"/>
	<path class="st3" d="M1366.1,798.7v7.7h5.9v4.2h-5.9v19.7c0,1.3,0.3,2.2,0.8,2.9c0.5,0.6,1.4,1,2.7,1c0.6,0,1.5-0.1,2.6-0.4v4.4
		c-1.4,0.4-2.8,0.6-4.2,0.6c-2.4,0-4.2-0.7-5.5-2.2s-1.8-3.5-1.8-6.2v-19.7h-5.8v-4.2h5.8v-7.7H1366.1z"/>
	<path class="st3" d="M1376.3,821.9c0-3.1,0.6-5.9,1.8-8.4c1.2-2.5,2.9-4.4,5.1-5.7s4.7-2,7.5-2c4.3,0,7.8,1.5,10.5,4.5s4,7,4,11.9
		v0.4c0,3.1-0.6,5.9-1.8,8.3c-1.2,2.5-2.9,4.4-5.1,5.7c-2.2,1.4-4.7,2.1-7.6,2.1c-4.3,0-7.8-1.5-10.4-4.5s-4-6.9-4-11.9V821.9z
		 M1381.7,822.5c0,3.5,0.8,6.3,2.4,8.5c1.6,2.1,3.8,3.2,6.5,3.2c2.8,0,4.9-1.1,6.6-3.2c1.6-2.2,2.4-5.2,2.4-9.1
		c0-3.5-0.8-6.3-2.5-8.5c-1.7-2.2-3.8-3.2-6.6-3.2c-2.7,0-4.8,1.1-6.5,3.2C1382.6,815.5,1381.7,818.6,1381.7,822.5z"/>
	<path class="st3" d="M1410.5,821.9c0-3.1,0.6-5.9,1.8-8.4c1.2-2.5,2.9-4.4,5.1-5.7s4.7-2,7.5-2c4.3,0,7.8,1.5,10.5,4.5s4,7,4,11.9
		v0.4c0,3.1-0.6,5.9-1.8,8.3c-1.2,2.5-2.9,4.4-5.1,5.7c-2.2,1.4-4.7,2.1-7.6,2.1c-4.3,0-7.8-1.5-10.4-4.5s-4-6.9-4-11.9V821.9z
		 M1416,822.5c0,3.5,0.8,6.3,2.4,8.5c1.6,2.1,3.8,3.2,6.5,3.2c2.8,0,4.9-1.1,6.6-3.2c1.6-2.2,2.4-5.2,2.4-9.1c0-3.5-0.8-6.3-2.5-8.5
		c-1.7-2.2-3.8-3.2-6.6-3.2c-2.7,0-4.8,1.1-6.5,3.2C1416.8,815.5,1416,818.6,1416,822.5z"/>
	<path class="st3" d="M1453.5,798.7v7.7h5.9v4.2h-5.9v19.7c0,1.3,0.3,2.2,0.8,2.9c0.5,0.6,1.4,1,2.7,1c0.6,0,1.5-0.1,2.6-0.4v4.4
		c-1.4,0.4-2.8,0.6-4.2,0.6c-2.4,0-4.2-0.7-5.5-2.2s-1.8-3.5-1.8-6.2v-19.7h-5.8v-4.2h5.8v-7.7H1453.5z"/>
	<path class="st3" d="M1471.2,810.2c2.4-2.9,5.5-4.4,9.4-4.4c6.7,0,10.1,3.8,10.1,11.3V838h-5.4v-21c0-2.3-0.5-4-1.6-5.1
		c-1-1.1-2.6-1.6-4.8-1.6c-1.8,0-3.3,0.5-4.6,1.4s-2.4,2.2-3.1,3.7V838h-5.4v-45h5.4V810.2z"/>
</g>
</svg>
