<?xml version="1.0" encoding="UTF-8"?><svg id="uuid-549986de-150e-473e-8f52-879e107c4e41" xmlns="http://www.w3.org/2000/svg" viewBox="0 0 1287 637.2"><defs><style>.uuid-d881e83b-e7b6-4cd3-b794-7a2ab6b9df5b,.uuid-d1efc084-38d0-46b0-8d85-16875741d13f{stroke-width:0px;}.uuid-d881e83b-e7b6-4cd3-b794-7a2ab6b9df5b,.uuid-182459dc-e5c2-44df-bdf0-d759f1452c49{fill:#c9d1d9;}.uuid-1c96f4cb-9991-4d3e-bb32-6165033414ee{stroke-width:1.97px;}.uuid-1c96f4cb-9991-4d3e-bb32-6165033414ee,.uuid-9f219886-672c-4b4e-bebf-ef4453c35885,.uuid-636d602e-82a2-4afe-af02-a60593eeb611,.uuid-561bdbd1-1bdc-4c07-b01f-d2dcd624e88a,.uuid-b0f00519-1dc4-4553-84b3-3e9f4c916025,.uuid-c323e3ab-2d94-402c-ac4a-8c8ca3c729f5,.uuid-7ba8d045-b7c4-491e-99cf-1a6a9f78ad44,.uuid-fd1cd407-7cbb-4d4f-acd6-2aac92a00832,.uuid-951553e9-3d1f-4b01-929d-06190383c56a,.uuid-3f3c1ebb-cf79-4bae-a168-ee280c1a0855{fill:none;}.uuid-1c96f4cb-9991-4d3e-bb32-6165033414ee,.uuid-9f219886-672c-4b4e-bebf-ef4453c35885,.uuid-636d602e-82a2-4afe-af02-a60593eeb611,.uuid-c323e3ab-2d94-402c-ac4a-8c8ca3c729f5,.uuid-3f3c1ebb-cf79-4bae-a168-ee280c1a0855{stroke-linecap:round;stroke-linejoin:round;}.uuid-1c96f4cb-9991-4d3e-bb32-6165033414ee,.uuid-b0f00519-1dc4-4553-84b3-3e9f4c916025,.uuid-fd1cd407-7cbb-4d4f-acd6-2aac92a00832{stroke:#c9d1d9;}.uuid-9f219886-672c-4b4e-bebf-ef4453c35885{stroke-width:1.52px;}.uuid-9f219886-672c-4b4e-bebf-ef4453c35885,.uuid-561bdbd1-1bdc-4c07-b01f-d2dcd624e88a,.uuid-7ba8d045-b7c4-491e-99cf-1a6a9f78ad44,.uuid-951553e9-3d1f-4b01-929d-06190383c56a,.uuid-3f3c1ebb-cf79-4bae-a168-ee280c1a0855{stroke:#7f7f7f;}.uuid-d1efc084-38d0-46b0-8d85-16875741d13f{fill:#7f7f7f;opacity:.1;}.uuid-636d602e-82a2-4afe-af02-a60593eeb611{stroke:rgba(199,68,64,.9);stroke-width:2.9px;}.uuid-561bdbd1-1bdc-4c07-b01f-d2dcd624e88a,.uuid-fd1cd407-7cbb-4d4f-acd6-2aac92a00832{stroke-width:2.83px;}.uuid-561bdbd1-1bdc-4c07-b01f-d2dcd624e88a,.uuid-951553e9-3d1f-4b01-929d-06190383c56a{stroke-miterlimit:20;}.uuid-b0f00519-1dc4-4553-84b3-3e9f4c916025{stroke-width:1.42px;}.uuid-b0f00519-1dc4-4553-84b3-3e9f4c916025,.uuid-7ba8d045-b7c4-491e-99cf-1a6a9f78ad44,.uuid-fd1cd407-7cbb-4d4f-acd6-2aac92a00832{stroke-miterlimit:10;}.uuid-182459dc-e5c2-44df-bdf0-d759f1452c49{font-family:Roboto-Regular, Roboto;font-size:48px;}.uuid-c323e3ab-2d94-402c-ac4a-8c8ca3c729f5{stroke:#c74440;}.uuid-c323e3ab-2d94-402c-ac4a-8c8ca3c729f5,.uuid-7ba8d045-b7c4-491e-99cf-1a6a9f78ad44{stroke-width:7.54px;}.uuid-951553e9-3d1f-4b01-929d-06190383c56a{stroke-linecap:square;stroke-width:2.41px;}.uuid-3f3c1ebb-cf79-4bae-a168-ee280c1a0855{stroke-width:2.14px;}</style></defs><line class="uuid-9f219886-672c-4b4e-bebf-ef4453c35885" x1="534.6" y1="360" x2="1254.6" y2="360"/><path class="uuid-636d602e-82a2-4afe-af02-a60593eeb611" d="M536.64,464.08l2.05,2.33,2.07,2.29,1.62-1.48,2.5-2.84,5.8,2.67,2.43-2.47,4.95,3.38,3.29-3.26,5.01,3.14,3.23-3.07,5.07,2.98,3.69-2.83,4.61,2.77,3.69-2.76,4.61,2.73,3.69-2.75,3.47,3.4,2.06-1.86,2.77-1.6,3.41,3.61,2.13-2.12,1.99-1.95,1.7,1.55,2.42,2.77,2.19-2.51,1.93-2.11,1.76,1.9,2.36,3.1,5.02-4.81,3.69,5.23,4.61-5.75,3.15,7.12.53-.37,3.58-9.45,1.03,1.66,3.09,10.87.6-.76,3.52-16.74,1.09,3.87,3.03,25.6.66-3.01,1.84-45.81,4.61-193.18,1.12-9.1.72,2.87,2.77,25.31.63,1.29,2.14-9.9,1.98-7.6.79,1.22,3.33,11.32,2.2-5.62,1.92-4.19,1.77,3.29,1.84,4.54.5.27,5.03-6.2,3.69,5.17,4.61-4.61,3.69,4.11,4.61-3.76,3.69,3.44,4.61-3.2,3.69,2.99,3.45-3.49,5.78,2.38,2.46-2.29,5.84,2.18,2.4-2.14,4.98,3.04,3.26-3.04,5.04,3,3.69-2.93,4.61,2.92,3.69-2.97,4.61,2.99,3.69-3.09,4.61,3.14,3.01-3.6,1.6,1.5,2.51,3.12,2.1-2.53,2.02-2.46,1.67,1.89,2.45,3.59,2.16-3.22,1.96-2.88,1.73,2.53,1.84,4.1.54.31,2.22-4.43,1.9-3.67,1.79,3.74,1.84,5.72.48.36,2.29-7.03,1.83-5.5.93,1.86,3.18,15.65.5-.83,1.84-15.34,1.77-13.3,1,7.11,1.84,55.79,4.61,183.89.78,4.3,1.98-15.69,2.14-13.78.63,1.17,3.49,16.34,2.05-6.52,2.07-6.02,1.62,3.45,1.84,5.8.66.56,2.11-4.33,2.01-3.78,1.68,2.56,1.84,4.05.6.33,4.94-5.57,3.3,4.94,5-4.48,3.24,4.1,5.06-3.8,3.69,3.41,4.61-3.2,3.69,3.03,4.61-2.88,3.69,2.76,4.61-2.65,3.69,2.57,3.41-3.15,5.81,2.16,2.43-2.18,5.87,2.11,2.37-2.18,5.01,3.2,3.69-3.2,4.61,3.26,3.69-3.4,4.61,3.5,3.69-3.73,3.53,4.76,2-2.57,2.11-2.9,1.57,1.89,2.54,4.21,2.07-3.4,2.05-3.54,1.64,2.66,2.48,5.45,2.13-4.98,1.99-4.83.78.97,3.34,11.57,1.27-3.38,2.85-14.13.84,2.31,3.28,27.16,1.33-13.12,1.84-65.18,3.69-158.92,1.37-13.88,4.12,29.47.97-2.62,3.15-14.89.54.59,3.58,11.95,1.95-4.7,2.17-5.12,1.52,2.55,2.6,5.56,2.02-3.44,2.1-3.5,1.59,2.03,2.53,4.07,2.08-2.83,2.04-2.65,1.65,1.76,2.47,3.23,5.83-3,2.41,2.7,4.97-3.67,3.27,3.48,5.03-3.31,3.69,3.07,4.61-2.94,3.69,2.85,4.61-2.76,3.69,2.7,4.61-2.64,3.69,2.62,3.44-3.23,3.01,2.93,1.84.32,3.38-3.34,5.84,2.3,2.4-2.45,4.98,3.64,3.26-3.88,5.04,4.04,3.69-4.23,4.61,4.5,3.69-5.01,3.56,6.65,1.97-3.67,2.14-4.44.62.5,3.5,9.31,2.04-5.84,2.08-6.69.69,1.01,3.43,16.5,1.18-4.51,2.94-24.96.75,3.9,1.84,48.46,4.61,191.07,1.03,7.66.81-3.55,2.77-24.97.54-.95,2.23,10.48,1.89,7.03,1.8-5.33,1.84-6.84.48-.37,2.29,5.95,1.83,3.87,1.86-3.56,2.26-4.55,1.43,1.94,2.69,5,1.92-2.8,2.2-3.31,1.49,1.63,2.63,3.84,1.99-2.4,2.13-2.6,1.56,1.47,2.56,3.15,2.05-2.16,2.07-2.15,1.62,1.38,2.5,2.69,5.8-2.54,2.44,2.39,5.86-2.26,2.37,2.17,5-3.08,3.23,3.04,5.07-2.97,3.69,2.84,4.61-2.8,3.69,2.8,4.61-2.79"/><line class="uuid-1c96f4cb-9991-4d3e-bb32-6165033414ee" x1="659.65" y1="466.23" x2="659.65" y2="253.1"/><line class="uuid-1c96f4cb-9991-4d3e-bb32-6165033414ee" x1="659.65" y1="253.1" x2="824.2" y2="253.1"/><line class="uuid-1c96f4cb-9991-4d3e-bb32-6165033414ee" x1="824.2" y1="466.23" x2="824.2" y2="253.1"/><line class="uuid-1c96f4cb-9991-4d3e-bb32-6165033414ee" x1="824.2" y1="466.23" x2="988.76" y2="466.23"/><line class="uuid-1c96f4cb-9991-4d3e-bb32-6165033414ee" x1="988.76" y1="253.1" x2="988.76" y2="466.23"/><line class="uuid-1c96f4cb-9991-4d3e-bb32-6165033414ee" x1="988.76" y1="253.1" x2="1153.31" y2="253.1"/><line class="uuid-1c96f4cb-9991-4d3e-bb32-6165033414ee" x1="1153.32" y1="466.23" x2="1153.32" y2="253.1"/><line class="uuid-1c96f4cb-9991-4d3e-bb32-6165033414ee" x1="1153.8" y1="466.2" x2="1254.6" y2="466.2"/><line class="uuid-1c96f4cb-9991-4d3e-bb32-6165033414ee" x1="534.6" y1="466.2" x2="658.8" y2="466.2"/><rect class="uuid-3f3c1ebb-cf79-4bae-a168-ee280c1a0855" x="534.6" y="144" width="720" height="432"/><line class="uuid-561bdbd1-1bdc-4c07-b01f-d2dcd624e88a" x1="541.8" y1="216" x2="534.6" y2="216"/><line class="uuid-561bdbd1-1bdc-4c07-b01f-d2dcd624e88a" x1="541.8" y1="288" x2="534.6" y2="288"/><line class="uuid-561bdbd1-1bdc-4c07-b01f-d2dcd624e88a" x1="541.8" y1="360" x2="534.6" y2="360"/><line class="uuid-561bdbd1-1bdc-4c07-b01f-d2dcd624e88a" x1="541.8" y1="432" x2="534.6" y2="432"/><line class="uuid-561bdbd1-1bdc-4c07-b01f-d2dcd624e88a" x1="541.8" y1="504" x2="534.6" y2="504"/><line class="uuid-561bdbd1-1bdc-4c07-b01f-d2dcd624e88a" x1="894.6" y1="151.2" x2="894.6" y2="144"/><line class="uuid-561bdbd1-1bdc-4c07-b01f-d2dcd624e88a" x1="822.6" y1="151.2" x2="822.6" y2="144"/><line class="uuid-561bdbd1-1bdc-4c07-b01f-d2dcd624e88a" x1="750.6" y1="151.2" x2="750.6" y2="144"/><line class="uuid-561bdbd1-1bdc-4c07-b01f-d2dcd624e88a" x1="678.6" y1="151.2" x2="678.6" y2="144"/><line class="uuid-561bdbd1-1bdc-4c07-b01f-d2dcd624e88a" x1="606.6" y1="151.2" x2="606.6" y2="144"/><line class="uuid-561bdbd1-1bdc-4c07-b01f-d2dcd624e88a" x1="1182.6" y1="151.2" x2="1182.6" y2="144"/><line class="uuid-561bdbd1-1bdc-4c07-b01f-d2dcd624e88a" x1="1110.6" y1="151.2" x2="1110.6" y2="144"/><line class="uuid-561bdbd1-1bdc-4c07-b01f-d2dcd624e88a" x1="1038.6" y1="151.2" x2="1038.6" y2="144"/><line class="uuid-561bdbd1-1bdc-4c07-b01f-d2dcd624e88a" x1="966.6" y1="151.2" x2="966.6" y2="144"/><line class="uuid-561bdbd1-1bdc-4c07-b01f-d2dcd624e88a" x1="894.6" y1="576" x2="894.6" y2="568.8"/><line class="uuid-561bdbd1-1bdc-4c07-b01f-d2dcd624e88a" x1="822.6" y1="576" x2="822.6" y2="568.8"/><line class="uuid-561bdbd1-1bdc-4c07-b01f-d2dcd624e88a" x1="750.6" y1="576" x2="750.6" y2="568.8"/><line class="uuid-561bdbd1-1bdc-4c07-b01f-d2dcd624e88a" x1="678.6" y1="576" x2="678.6" y2="568.8"/><line class="uuid-561bdbd1-1bdc-4c07-b01f-d2dcd624e88a" x1="606.6" y1="576" x2="606.6" y2="568.8"/><line class="uuid-561bdbd1-1bdc-4c07-b01f-d2dcd624e88a" x1="1182.6" y1="576" x2="1182.6" y2="568.8"/><line class="uuid-561bdbd1-1bdc-4c07-b01f-d2dcd624e88a" x1="1110.6" y1="576" x2="1110.6" y2="568.8"/><line class="uuid-561bdbd1-1bdc-4c07-b01f-d2dcd624e88a" x1="1038.6" y1="576" x2="1038.6" y2="568.8"/><line class="uuid-561bdbd1-1bdc-4c07-b01f-d2dcd624e88a" x1="966.6" y1="576" x2="966.6" y2="568.8"/><line class="uuid-561bdbd1-1bdc-4c07-b01f-d2dcd624e88a" x1="1254.6" y1="216" x2="1247.4" y2="216"/><line class="uuid-561bdbd1-1bdc-4c07-b01f-d2dcd624e88a" x1="1254.6" y1="288" x2="1247.4" y2="288"/><line class="uuid-561bdbd1-1bdc-4c07-b01f-d2dcd624e88a" x1="1254.6" y1="360" x2="1247.4" y2="360"/><line class="uuid-561bdbd1-1bdc-4c07-b01f-d2dcd624e88a" x1="1254.6" y1="432" x2="1247.4" y2="432"/><line class="uuid-561bdbd1-1bdc-4c07-b01f-d2dcd624e88a" x1="1254.6" y1="504" x2="1247.4" y2="504"/><rect class="uuid-d1efc084-38d0-46b0-8d85-16875741d13f" x="635.49" y="214.2" width="152.91" height="91.75"/><rect class="uuid-951553e9-3d1f-4b01-929d-06190383c56a" x="635.49" y="214.2" width="152.91" height="91.75"/><path class="uuid-c323e3ab-2d94-402c-ac4a-8c8ca3c729f5" d="M75.2,247.69c2.17-90.74,3.9-163.48,3.9-163.48l2.98-24.22,1.92,7.65,7.36,67.33,1.67,3.42,5.69-26.35,5.27-20.22,2.09,3.24,8.87,30.11,5.86-14.96,5.1-11.15,4.71,8.76,4.91,12.08,1.34.73,13.38-16.5,9.81,13.76,12.27-12.26,9.81,10.94,12.27-10,9.81,9.15,12.27-8.52,9.81,7.95,9.17-9.28,15.36,6.33,6.55-6.08,15.53,5.81,6.38-5.7,13.25,8.09,8.67-8.09,13.41,7.99,9.81-7.78,12.27,7.76,9.81-7.89,12.27,7.95,9.81-8.21,12.27,8.36,8-9.58,4.27,3.98,6.69,8.3,5.58-6.73,5.38-6.56"/><polyline class="uuid-b0f00519-1dc4-4553-84b3-3e9f4c916025" points="71.29 247.61 71.29 110.81 411.49 110.81"/><rect class="uuid-7ba8d045-b7c4-491e-99cf-1a6a9f78ad44" x="5.4" y="6.12" width="406.8" height="244.08"/><rect class="uuid-d1efc084-38d0-46b0-8d85-16875741d13f" x="5.4" y="6.12" width="406.8" height="244.08"/><text class="uuid-182459dc-e5c2-44df-bdf0-d759f1452c49" transform="translate(486.05 374.03)"><tspan x="0" y="0">0</tspan></text><text class="uuid-182459dc-e5c2-44df-bdf0-d759f1452c49" transform="translate(472.8 518.03)"><tspan x="0" y="0">-1</tspan></text><text class="uuid-182459dc-e5c2-44df-bdf0-d759f1452c49" transform="translate(486.05 230.03)"><tspan x="0" y="0">1</tspan></text><text class="uuid-182459dc-e5c2-44df-bdf0-d759f1452c49" transform="translate(501.33 634.99)"><tspan x="0" y="0">0.0</tspan></text><text class="uuid-182459dc-e5c2-44df-bdf0-d759f1452c49" transform="translate(861.33 634.99)"><tspan x="0" y="0">0.5</tspan></text><text class="uuid-182459dc-e5c2-44df-bdf0-d759f1452c49" transform="translate(1221.33 634.99)"><tspan x="0" y="0">1.0</tspan></text><line class="uuid-fd1cd407-7cbb-4d4f-acd6-2aac92a00832" x1="421.2" y1="142.2" x2="607.77" y2="240.31"/><polygon class="uuid-d881e83b-e7b6-4cd3-b794-7a2ab6b9df5b" points="598.97 244.99 630 252 606.63 230.41 598.97 244.99"/></svg>