<?xml version="1.0" encoding="utf-8"?>
<!-- Generator: Adobe Illustrator 27.4.1, SVG Export Plug-In . SVG Version: 6.00 Build 0)  -->
<svg version="1.1" id="uuid-549986de-150e-473e-8f52-879e107c4e41"
	 xmlns="http://www.w3.org/2000/svg" xmlns:xlink="http://www.w3.org/1999/xlink" x="0px" y="0px" viewBox="0 0 1287 637.2"
	 style="enable-background:new 0 0 1287 637.2;" xml:space="preserve">
<style type="text/css">
	.st0{fill:none;stroke:#7F7F7F;stroke-width:1.52;stroke-linecap:round;stroke-linejoin:round;}
	.st1{fill:none;}
	.st2{fill:none;stroke:#C9D1D9;stroke-width:1.97;stroke-linecap:round;stroke-linejoin:round;}
	.st3{fill:none;stroke:#7F7F7F;stroke-width:2.14;stroke-linecap:round;stroke-linejoin:round;}
	.st4{fill:none;stroke:#7F7F7F;stroke-width:2.83;stroke-miterlimit:20;}
	.st5{opacity:0.1;fill:#7F7F7F;enable-background:new    ;}
	.st6{fill:none;stroke:#7F7F7F;stroke-width:2.41;stroke-linecap:square;stroke-miterlimit:20;}
	.st7{fill:none;stroke:#C74440;stroke-width:7.54;stroke-linecap:round;stroke-linejoin:round;}
	.st8{fill:none;stroke:#C9D1D9;stroke-width:1.42;stroke-miterlimit:10;}
	.st9{fill:none;stroke:#7F7F7F;stroke-width:7.54;stroke-miterlimit:10;}
	.st10{enable-background:new    ;}
	.st11{fill:#C9D1D9;}
	.st12{fill:none;stroke:#C9D1D9;stroke-width:2.83;stroke-miterlimit:10;}
</style>
<line class="st0" x1="534.6" y1="360" x2="1254.6" y2="360"/>
<path class="st1" d="M536.6,464.1l2,2.3l2.1,2.3l1.6-1.5l2.5-2.8l5.8,2.7l2.4-2.5l5,3.4l3.3-3.3l5,3.1l3.2-3.1l5.1,3l3.7-2.8
	l4.6,2.8l3.7-2.8l4.6,2.7l3.7-2.8l3.5,3.4l2.1-1.9l2.8-1.6l3.4,3.6l2.1-2.1l2-2l1.7,1.5l2.4,2.8l2.2-2.5l1.9-2.1l1.8,1.9l2.4,3.1
	l5-4.8l3.7,5.2l4.6-5.8l3.2,7.1l0.5-0.4l3.6-9.5l1,1.7l3.1,10.9l0.6-0.8l3.5-16.7l1.1,3.9l3,25.6l0.7-3l1.8-45.8l4.6-193.2l1.1-9.1
	l0.7,2.9l2.8,25.3l0.6,1.3l2.1-9.9l2-7.6l0.8,1.2l3.3,11.3l2.2-5.6l1.9-4.2l1.8,3.3l1.8,4.5l0.5,0.3l5-6.2l3.7,5.2l4.6-4.6l3.7,4.1
	l4.6-3.8l3.7,3.4l4.6-3.2l3.7,3l3.5-3.5l5.8,2.4l2.5-2.3l5.8,2.2l2.4-2.1l5,3l3.3-3l5,3l3.7-2.9l4.6,2.9l3.7-3l4.6,3l3.7-3.1
	l4.6,3.1l3-3.6l1.6,1.5l2.5,3.1l2.1-2.5l2-2.5l1.7,1.9l2.5,3.6l2.2-3.2l2-2.9l1.7,2.5l1.8,4.1l0.5,0.3l2.2-4.4l1.9-3.7l1.8,3.7
	l1.8,5.7l0.5,0.4l2.3-7l1.8-5.5l0.9,1.9l3.2,15.7l0.5-0.8l1.8-15.3l1.8-13.3l1,7.1l1.8,55.8l4.6,183.9l0.8,4.3l2-15.7l2.1-13.8
	l0.6,1.2l3.5,16.3l2-6.5l2.1-6l1.6,3.5l1.8,5.8l0.7,0.6l2.1-4.3l2-3.8l1.7,2.6l1.8,4l0.6,0.3l4.9-5.6l3.3,4.9l5-4.5l3.2,4.1l5.1-3.8
	l3.7,3.4l4.6-3.2l3.7,3l4.6-2.9l3.7,2.8l4.6-2.6l3.7,2.6l3.4-3.1l5.8,2.2l2.4-2.2l5.9,2.1l2.4-2.2l5,3.2l3.7-3.2l4.6,3.3l3.7-3.4
	l4.6,3.5l3.7-3.7l3.5,4.8l2-2.6l2.1-2.9l1.6,1.9l2.5,4.2l2.1-3.4l2-3.5l1.6,2.7l2.5,5.5l2.1-5l2-4.8l0.8,1l3.3,11.6l1.3-3.4
	l2.8-14.1l0.8,2.3l3.3,27.2l1.3-13.1l1.8-65.2l3.7-158.9l1.4-13.9l4.1,29.5l1-2.6l3.2-14.9l0.5,0.6l3.6,11.9l2-4.7l2.2-5.1l1.5,2.6
	l2.6,5.6l2-3.4l2.1-3.5l1.6,2l2.5,4.1l2.1-2.8l2-2.6l1.7,1.8l2.5,3.2l5.8-3l2.4,2.7l5-3.7l3.3,3.5l5-3.3l3.7,3.1l4.6-2.9l3.7,2.9
	l4.6-2.8l3.7,2.7l4.6-2.6l3.7,2.6l3.4-3.2l3,2.9l1.8,0.3l3.4-3.3l5.8,2.3l2.4-2.4l5,3.6l3.3-3.9l5,4l3.7-4.2l4.6,4.5l3.7-5l3.6,6.6
	l2-3.7l2.1-4.4l0.6,0.5l3.5,9.3l2-5.8l2.1-6.7l0.7,1l3.4,16.5l1.2-4.5l2.9-25l0.8,3.9l1.8,48.5l4.6,191.1l1,7.7l0.8-3.5l2.8-25
	l0.5-1l2.2,10.5l1.9,7l1.8-5.3l1.8-6.8l0.5-0.4l2.3,6l1.8,3.9l1.9-3.6l2.3-4.5l1.4,1.9l2.7,5l1.9-2.8l2.2-3.3l1.5,1.6l2.6,3.8l2-2.4
	l2.1-2.6l1.6,1.5l2.6,3.1l2.1-2.2l2.1-2.1l1.6,1.4l2.5,2.7l5.8-2.5l2.4,2.4l5.9-2.3l2.4,2.2l5-3.1l3.2,3l5.1-3l3.7,2.8l4.6-2.8
	l3.7,2.8l4.6-2.8"/>
<line class="st2" x1="659.7" y1="466.2" x2="659.7" y2="253.1"/>
<line class="st2" x1="659.7" y1="253.1" x2="824.2" y2="253.1"/>
<line class="st2" x1="824.2" y1="466.2" x2="824.2" y2="253.1"/>
<line class="st2" x1="824.2" y1="466.2" x2="988.8" y2="466.2"/>
<line class="st2" x1="988.8" y1="253.1" x2="988.8" y2="466.2"/>
<line class="st2" x1="988.8" y1="253.1" x2="1153.3" y2="253.1"/>
<line class="st2" x1="1153.3" y1="466.2" x2="1153.3" y2="253.1"/>
<line class="st2" x1="1153.8" y1="466.2" x2="1254.6" y2="466.2"/>
<line class="st2" x1="534.6" y1="466.2" x2="658.8" y2="466.2"/>
<rect x="534.6" y="144" class="st3" width="720" height="432"/>
<line class="st4" x1="541.8" y1="216" x2="534.6" y2="216"/>
<line class="st4" x1="541.8" y1="288" x2="534.6" y2="288"/>
<line class="st4" x1="541.8" y1="360" x2="534.6" y2="360"/>
<line class="st4" x1="541.8" y1="432" x2="534.6" y2="432"/>
<line class="st4" x1="541.8" y1="504" x2="534.6" y2="504"/>
<line class="st4" x1="894.6" y1="151.2" x2="894.6" y2="144"/>
<line class="st4" x1="822.6" y1="151.2" x2="822.6" y2="144"/>
<line class="st4" x1="750.6" y1="151.2" x2="750.6" y2="144"/>
<line class="st4" x1="678.6" y1="151.2" x2="678.6" y2="144"/>
<line class="st4" x1="606.6" y1="151.2" x2="606.6" y2="144"/>
<line class="st4" x1="1182.6" y1="151.2" x2="1182.6" y2="144"/>
<line class="st4" x1="1110.6" y1="151.2" x2="1110.6" y2="144"/>
<line class="st4" x1="1038.6" y1="151.2" x2="1038.6" y2="144"/>
<line class="st4" x1="966.6" y1="151.2" x2="966.6" y2="144"/>
<line class="st4" x1="894.6" y1="576" x2="894.6" y2="568.8"/>
<line class="st4" x1="822.6" y1="576" x2="822.6" y2="568.8"/>
<line class="st4" x1="750.6" y1="576" x2="750.6" y2="568.8"/>
<line class="st4" x1="678.6" y1="576" x2="678.6" y2="568.8"/>
<line class="st4" x1="606.6" y1="576" x2="606.6" y2="568.8"/>
<line class="st4" x1="1182.6" y1="576" x2="1182.6" y2="568.8"/>
<line class="st4" x1="1110.6" y1="576" x2="1110.6" y2="568.8"/>
<line class="st4" x1="1038.6" y1="576" x2="1038.6" y2="568.8"/>
<line class="st4" x1="966.6" y1="576" x2="966.6" y2="568.8"/>
<line class="st4" x1="1254.6" y1="216" x2="1247.4" y2="216"/>
<line class="st4" x1="1254.6" y1="288" x2="1247.4" y2="288"/>
<line class="st4" x1="1254.6" y1="360" x2="1247.4" y2="360"/>
<line class="st4" x1="1254.6" y1="432" x2="1247.4" y2="432"/>
<line class="st4" x1="1254.6" y1="504" x2="1247.4" y2="504"/>
<rect x="635.5" y="214.2" class="st5" width="152.9" height="91.8"/>
<rect x="635.5" y="214.2" class="st6" width="152.9" height="91.8"/>
<path class="st7" d="M75.2,247.7c2.2-90.7,3.9-163.5,3.9-163.5l3-24.2l1.9,7.7l7.4,67.3l1.7,3.4l5.7-26.3l5.3-20.2l2.1,3.2l8.9,30.1
	l5.9-15l5.1-11.2l4.7,8.8l4.9,12.1l1.3,0.7l13.4-16.5l9.8,13.8l12.3-12.3l9.8,10.9l12.3-10l9.8,9.2l12.3-8.5l9.8,7.9l9.2-9.3
	l15.4,6.3l6.6-6.1l15.5,5.8l6.4-5.7l13.2,8.1l8.7-8.1l13.4,8l9.8-7.8l12.3,7.8l9.8-7.9l12.3,7.9l9.8-8.2l12.3,8.4l8-9.6l4.3,4
	l6.7,8.3l5.6-6.7l5.4-6.6"/>
<polyline class="st8" points="71.3,247.6 71.3,110.8 411.5,110.8 "/>
<rect x="5.4" y="6.1" class="st9" width="406.8" height="244.1"/>
<rect x="5.4" y="6.1" class="st5" width="406.8" height="244.1"/>
<g class="st10">
	<path class="st11" d="M510.3,359.5c0,5.1-0.9,8.9-2.6,11.3s-4.4,3.7-8.1,3.7c-3.6,0-6.3-1.2-8.1-3.6s-2.7-6-2.7-10.8v-5.8
		c0-5,0.9-8.7,2.6-11.2s4.5-3.7,8.2-3.7c3.7,0,6.4,1.2,8.1,3.5s2.6,6,2.7,10.9V359.5z M505.9,353.5c0-3.7-0.5-6.3-1.5-8
		s-2.7-2.5-4.9-2.5c-2.2,0-3.8,0.8-4.9,2.5s-1.5,4.2-1.6,7.7v6.9c0,3.7,0.5,6.4,1.6,8.2s2.7,2.6,4.9,2.6c2.1,0,3.7-0.8,4.8-2.5
		s1.6-4.3,1.6-7.8V353.5z"/>
</g>
<g class="st10">
	<path class="st11" d="M485.1,505.3h-11.4v-3.5h11.4V505.3z"/>
	<path class="st11" d="M503.1,518h-4.4v-28.9l-8.7,3.2v-3.9l12.4-4.7h0.7V518z"/>
</g>
<g class="st10">
	<path class="st11" d="M503.1,230h-4.4v-28.9l-8.7,3.2v-3.9l12.4-4.7h0.7V230z"/>
</g>
<g class="st10">
	<path class="st11" d="M525.6,620.4c0,5.1-0.9,8.9-2.6,11.3s-4.4,3.7-8.1,3.7c-3.6,0-6.3-1.2-8.1-3.6s-2.7-6-2.7-10.8v-5.8
		c0-5,0.9-8.7,2.6-11.2s4.5-3.7,8.2-3.7c3.7,0,6.4,1.2,8.1,3.5s2.6,6,2.7,10.9V620.4z M521.2,614.5c0-3.7-0.5-6.3-1.5-8
		s-2.7-2.5-4.9-2.5c-2.2,0-3.8,0.8-4.9,2.5s-1.5,4.2-1.6,7.7v6.9c0,3.7,0.5,6.4,1.6,8.2s2.7,2.6,4.9,2.6c2.1,0,3.7-0.8,4.8-2.5
		s1.6-4.3,1.6-7.8V614.5z"/>
	<path class="st11" d="M531.7,632.7c0-0.8,0.2-1.4,0.7-1.9s1.1-0.8,2-0.8s1.6,0.2,2,0.8s0.7,1.1,0.7,1.9c0,0.7-0.2,1.3-0.7,1.8
		s-1.1,0.7-2,0.7s-1.6-0.2-2-0.7S531.7,633.4,531.7,632.7z"/>
	<path class="st11" d="M565.2,620.4c0,5.1-0.9,8.9-2.6,11.3s-4.4,3.7-8.1,3.7c-3.6,0-6.3-1.2-8.1-3.6s-2.7-6-2.7-10.8v-5.8
		c0-5,0.9-8.7,2.6-11.2s4.5-3.7,8.2-3.7c3.7,0,6.4,1.2,8.1,3.5s2.6,6,2.7,10.9V620.4z M560.8,614.5c0-3.7-0.5-6.3-1.5-8
		s-2.7-2.5-4.9-2.5c-2.2,0-3.8,0.8-4.9,2.5s-1.5,4.2-1.6,7.7v6.9c0,3.7,0.5,6.4,1.6,8.2s2.7,2.6,4.9,2.6c2.1,0,3.7-0.8,4.8-2.5
		s1.6-4.3,1.6-7.8V614.5z"/>
</g>
<g class="st10">
	<path class="st11" d="M885.6,620.4c0,5.1-0.9,8.9-2.6,11.3s-4.4,3.7-8.1,3.7c-3.6,0-6.3-1.2-8.1-3.6s-2.7-6-2.7-10.8v-5.8
		c0-5,0.9-8.7,2.6-11.2s4.5-3.7,8.2-3.7c3.7,0,6.4,1.2,8.1,3.5s2.6,6,2.7,10.9V620.4z M881.2,614.5c0-3.7-0.5-6.3-1.5-8
		s-2.7-2.5-4.9-2.5c-2.2,0-3.8,0.8-4.9,2.5s-1.5,4.2-1.6,7.7v6.9c0,3.7,0.5,6.4,1.6,8.2s2.7,2.6,4.9,2.6c2.1,0,3.7-0.8,4.8-2.5
		s1.6-4.3,1.6-7.8V614.5z"/>
	<path class="st11" d="M891.7,632.7c0-0.8,0.2-1.4,0.7-1.9s1.1-0.8,2-0.8s1.6,0.2,2,0.8s0.7,1.1,0.7,1.9c0,0.7-0.2,1.3-0.7,1.8
		s-1.1,0.7-2,0.7s-1.6-0.2-2-0.7S891.7,633.4,891.7,632.7z"/>
	<path class="st11" d="M905.7,617.9l1.7-17H925v4h-13.8l-1,9.3c1.7-1,3.6-1.5,5.7-1.5c3.1,0,5.6,1,7.4,3.1s2.7,4.8,2.7,8.3
		c0,3.5-0.9,6.3-2.8,8.3s-4.6,3-8,3c-3,0-5.5-0.8-7.4-2.5s-3-4-3.3-6.9h4.1c0.3,2,1,3.4,2.1,4.4s2.6,1.5,4.5,1.5
		c2,0,3.6-0.7,4.7-2.1s1.7-3.3,1.7-5.7c0-2.3-0.6-4.1-1.9-5.5s-2.9-2.1-5-2.1c-1.9,0-3.4,0.4-4.5,1.2l-1.1,0.9L905.7,617.9z"/>
</g>
<g class="st10">
	<path class="st11" d="M1238.4,635h-4.4v-28.9l-8.7,3.2v-3.9l12.4-4.7h0.7V635z"/>
	<path class="st11" d="M1251.7,632.7c0-0.8,0.2-1.4,0.7-1.9s1.1-0.8,2-0.8s1.6,0.2,2,0.8s0.7,1.1,0.7,1.9c0,0.7-0.2,1.3-0.7,1.8
		s-1.1,0.7-2,0.7s-1.6-0.2-2-0.7S1251.7,633.4,1251.7,632.7z"/>
	<path class="st11" d="M1285.2,620.4c0,5.1-0.9,8.9-2.6,11.3s-4.4,3.7-8.1,3.7c-3.6,0-6.3-1.2-8.1-3.6s-2.7-6-2.7-10.8v-5.8
		c0-5,0.9-8.7,2.6-11.2s4.5-3.7,8.2-3.7c3.7,0,6.4,1.2,8.1,3.5s2.6,6,2.7,10.9V620.4z M1280.8,614.5c0-3.7-0.5-6.3-1.5-8
		s-2.7-2.5-4.9-2.5c-2.2,0-3.8,0.8-4.9,2.5s-1.5,4.2-1.6,7.7v6.9c0,3.7,0.5,6.4,1.6,8.2s2.7,2.6,4.9,2.6c2.1,0,3.7-0.8,4.8-2.5
		s1.6-4.3,1.6-7.8V614.5z"/>
</g>
<line class="st12" x1="421.2" y1="142.2" x2="607.8" y2="240.3"/>
<polygon class="st11" points="599,245 630,252 606.6,230.4 "/>
</svg>
