<?xml version="1.0" encoding="UTF-8"?>
<svg id="Ebene_5" data-name="Ebene 5" xmlns="http://www.w3.org/2000/svg" viewBox="0 0 1638 741.6">
  <defs>
    <style>
      .cls-1, .cls-2, .cls-3, .cls-4, .cls-5, .cls-6 {
        stroke: #c9d1d9;
      }

      .cls-1, .cls-2, .cls-4, .cls-5, .cls-6 {
        fill: none;
      }

      .cls-1, .cls-6 {
        stroke-width: 2.83px;
      }

      .cls-7 {
        letter-spacing: 0em;
      }

      .cls-8, .cls-9, .cls-3 {
        fill: #c9d1d9;
      }

      .cls-10 {
        letter-spacing: 0em;
      }

      .cls-2, .cls-4 {
        stroke-width: 1.98px;
      }

      .cls-9 {
        font-family: SchibstedGrotesk-Regular, 'Schibsted Grotesk';
        font-size: 48px;
        font-variation-settings: 'wght' 400;
      }

      .cls-3, .cls-5 {
        stroke-miterlimit: 10;
      }

      .cls-11 {
        letter-spacing: -.04em;
      }

      .cls-12 {
        letter-spacing: 0em;
      }

      .cls-4 {
        stroke-dasharray: 0 0 4 4;
      }

      .cls-13 {
        letter-spacing: 0em;
      }

      .cls-5 {
        stroke-dasharray: 0 0 12 12;
        stroke-width: 2.83px;
      }

      .cls-14 {
        letter-spacing: .01em;
      }

      .cls-15 {
        letter-spacing: 0em;
      }

      .cls-6 {
        stroke-dasharray: 0 0 4 4;
      }
    </style>
  </defs>
  <line class="cls-4" x1="43.2" y1="140.4" x2="1627.2" y2="140.4"/>
  <path class="cls-1" d="m43.2,140.4h0l7.92-1.42,7.92-1.4,7.92-1.42,7.92-1.42,7.92-1.4,7.92-1.42,7.92-1.4,7.92-1.42,7.92-1.4,7.92-1.4,7.92-1.4,7.92-1.4,7.92-1.37,7.92-1.4,7.92-1.37,7.92-1.37,7.92-1.37,7.92-1.35,7.92-1.37,7.92-1.35,7.92-1.32,7.92-1.35,7.92-1.32,7.92-1.32,7.92-1.3,7.92-1.32,7.92-1.27,7.92-1.3,7.92-1.27,7.92-1.25,7.92-1.27,7.92-1.22,7.92-1.25,7.92-1.22,7.92-1.2,7.92-1.2,7.92-1.2,7.92-1.18,7.92-1.15,7.92-1.15,7.92-1.15,7.92-1.1,7.92-1.13,7.92-1.1,7.92-1.08,7.92-1.05,7.92-1.05,7.92-1.05,7.92-1,7.92-1.03,7.92-.98,7.92-.98,7.92-.96,7.92-.96,7.92-.91,7.92-.93,7.92-.88,7.92-.88,7.92-.86,7.92-.83,7.92-.83,7.92-.81,7.92-.78,7.92-.76,7.92-.73,7.92-.73,7.92-.71,7.92-.69,7.92-.69,7.92-.64,7.92-.64,7.92-.61,7.92-.59,7.92-.59,7.92-.54,7.92-.54,7.92-.51,7.92-.49,7.92-.47,7.92-.44,7.92-.44,7.92-.39,7.92-.39,7.92-.37,7.92-.32,7.92-.32,7.92-.32,7.92-.27,7.92-.24,7.92-.24,7.92-.2,7.92-.2,7.92-.17,7.92-.15,7.92-.12,7.92-.1,7.92-.07,7.92-.05,7.92-.05h15.84l7.92.05,7.92.05,7.92.07,7.92.1,7.92.12,7.92.15,7.92.17,7.92.2,7.92.2,7.92.24,7.92.24,7.92.27,7.92.32,7.92.32,7.92.32,7.92.37,7.92.39,7.92.39,7.92.44,7.92.44,7.92.47,7.92.49,7.92.51,7.92.54,7.92.54,7.92.59,7.92.59,7.92.61,7.92.64,7.92.64,7.92.69,7.92.69,7.92.71,7.92.73,7.92.73,7.92.76,7.92.78,7.92.81,7.92.83,7.92.83,7.92.86,7.92.88,7.92.88,7.92.93,7.92.91,7.92.96,7.92.96,7.92.98,7.92.98,7.92,1.03,7.92,1,7.92,1.05,7.92,1.05,7.92,1.05,7.92,1.08,7.92,1.1,7.92,1.13,7.92,1.1,7.92,1.15,7.92,1.15,7.92,1.15,7.92,1.18,7.92,1.2,7.92,1.2,7.92,1.2,7.92,1.22,7.92,1.25,7.92,1.22,7.92,1.27,7.92,1.25,7.92,1.27,7.92,1.3,7.92,1.27,7.92,1.32,7.92,1.3,7.92,1.32,7.92,1.32,7.92,1.35,7.92,1.32,7.92,1.35,7.92,1.37,7.92,1.35,7.92,1.37,7.92,1.37,7.92,1.37,7.92,1.4,7.92,1.37,7.92,1.4,7.92,1.4,7.92,1.4,7.92,1.4,7.92,1.42,7.92,1.4,7.92,1.42,7.92,1.4,7.92,1.42,7.92,1.42,7.92,1.4,7.92,1.42h0"/>
  <line class="cls-4" x1="43.2" y1="356.4" x2="1627.2" y2="356.4"/>
  <circle class="cls-3" cx="43.2" cy="356.4" r="7.2"/>
  <path class="cls-1" d="m43.2,356.4h0l7.92-2.82,7.92-2.84,7.92-2.82,7.92-2.82,7.92-2.79,7.92-2.79,7.92-2.77,7.92-2.74,7.92-2.72,7.92-2.72,7.92-2.67,7.92-2.64,7.92-2.62,7.92-2.57,7.92-2.52,7.92-2.5,7.92-2.47,7.92-2.4,7.92-2.38,7.92-2.3,7.92-2.25,7.92-2.23,7.92-2.13,7.92-2.11,7.92-2.03,7.92-1.96,7.92-1.91,7.92-1.84,7.92-1.76,7.92-1.69,7.92-1.64,7.92-1.54,7.92-1.47,7.92-1.4,7.92-1.32,7.92-1.25,7.92-1.18,7.92-1.08,7.92-1,7.92-.91,7.92-.83,7.92-.76,7.92-.64,7.92-.59,7.92-.49,7.92-.39,7.92-.32,7.92-.22,7.92-.12,7.92-.05,7.92.05,7.92.12,7.92.22,7.92.32,7.92.39,7.92.49,7.92.59,7.92.64,7.92.76,7.92.83,7.92.91,7.92,1,7.92,1.08,7.92,1.18,7.92,1.25,7.92,1.32,7.92,1.4,7.92,1.47,7.92,1.54,7.92,1.64,7.92,1.69,7.92,1.76,7.92,1.84,7.92,1.91,7.92,1.96,7.92,2.03,7.92,2.11,7.92,2.13,7.92,2.23,7.92,2.25,7.92,2.3,7.92,2.38,7.92,2.4,7.92,2.47,7.92,2.5,7.92,2.52,7.92,2.57,7.92,2.62,7.92,2.64,7.92,2.67,7.92,2.72,7.92,2.72,7.92,2.74,7.92,2.77,7.92,2.79,7.92,2.79,7.92,2.82,7.92,2.82,7.92,2.84,7.92,2.82,7.92,2.82,7.92,2.84,7.92,2.82,7.92,2.82,7.92,2.79,7.92,2.79,7.92,2.77,7.92,2.74,7.92,2.72,7.92,2.72,7.92,2.67,7.92,2.64,7.92,2.62,7.92,2.57,7.92,2.52,7.92,2.5,7.92,2.47,7.92,2.4,7.92,2.38,7.92,2.3,7.92,2.25,7.92,2.23,7.92,2.13,7.92,2.11,7.92,2.03,7.92,1.96,7.92,1.91,7.92,1.84,7.92,1.76,7.92,1.69,7.92,1.64,7.92,1.54,7.92,1.47,7.92,1.4,7.92,1.32,7.92,1.25,7.92,1.18,7.92,1.08,7.92,1,7.92.91,7.92.83,7.92.76,7.92.64,7.92.59,7.92.49,7.92.39,7.92.32,7.92.22,7.92.12,7.92.05,7.92-.05,7.92-.12,7.92-.22,7.92-.32,7.92-.39,7.92-.49,7.92-.59,7.92-.64,7.92-.76,7.92-.83,7.92-.91,7.92-1,7.92-1.08,7.92-1.18,7.92-1.25,7.92-1.32,7.92-1.4,7.92-1.47,7.92-1.54,7.92-1.64,7.92-1.69,7.92-1.76,7.92-1.84,7.92-1.91,7.92-1.96,7.92-2.03,7.92-2.11,7.92-2.13,7.92-2.23,7.92-2.25,7.92-2.3,7.92-2.38,7.92-2.4,7.92-2.47,7.92-2.5,7.92-2.52,7.92-2.57,7.92-2.62,7.92-2.64,7.92-2.67,7.92-2.72,7.92-2.72,7.92-2.74,7.92-2.77,7.92-2.79,7.92-2.79,7.92-2.82,7.92-2.82,7.92-2.84,7.92-2.82h0"/>
  <line class="cls-2" x1="835.2" y1="338.4" x2="835.2" y2="374.4"/>
  <line class="cls-4" x1="43.2" y1="572.4" x2="1627.2" y2="572.4"/>
  <circle class="cls-3" cx="1627.2" cy="572.4" r="7.2"/>
  <path class="cls-1" d="m43.2,572.4h0l7.92-4.24,7.92-4.24,7.92-4.21,7.92-4.19,7.92-4.14,7.92-4.09,7.92-4.04,7.92-3.99,7.92-3.89,7.92-3.82,7.92-3.75,7.92-3.62,7.92-3.53,7.92-3.4,7.92-3.31,7.92-3.16,7.92-3.01,7.92-2.89,7.92-2.72,7.92-2.57,7.92-2.42,7.92-2.23,7.92-2.08,7.92-1.89,7.92-1.71,7.92-1.54,7.92-1.35,7.92-1.15,7.92-.96,7.92-.76,7.92-.56,7.92-.37,7.92-.17,7.92.05,7.92.22,7.92.44,7.92.64,7.92.83,7.92,1,7.92,1.22,7.92,1.4,7.92,1.59,7.92,1.79,7.92,1.96,7.92,2.13,7.92,2.28,7.92,2.47,7.92,2.62,7.92,2.79,7.92,2.91,7.92,3.09,7.92,3.18,7.92,3.33,7.92,3.45,7.92,3.58,7.92,3.67,7.92,3.75,7.92,3.84,7.92,3.94,7.92,3.99,7.92,4.07,7.92,4.11,7.92,4.16,7.92,4.19,7.92,4.24,7.92,4.24,7.92,4.24,7.92,4.24,7.92,4.21,7.92,4.21,7.92,4.16,7.92,4.14,7.92,4.09,7.92,4.02,7.92,3.94,7.92,3.89,7.92,3.8,7.92,3.7,7.92,3.6,7.92,3.48,7.92,3.38,7.92,3.23,7.92,3.11,7.92,2.99,7.92,2.82,7.92,2.69,7.92,2.52,7.92,2.35,7.92,2.18,7.92,2.01,7.92,1.84,7.92,1.67,7.92,1.47,7.92,1.27,7.92,1.08,7.92.91,7.92.69,7.92.51,7.92.29,7.92.1,7.92-.1,7.92-.29,7.92-.51,7.92-.69,7.92-.91,7.92-1.08,7.92-1.27,7.92-1.47,7.92-1.67,7.92-1.84,7.92-2.01,7.92-2.18,7.92-2.35,7.92-2.52,7.92-2.69,7.92-2.82,7.92-2.99,7.92-3.11,7.92-3.23,7.92-3.38,7.92-3.48,7.92-3.6,7.92-3.7,7.92-3.8,7.92-3.89,7.92-3.94,7.92-4.02,7.92-4.09,7.92-4.14,7.92-4.16,7.92-4.21,7.92-4.21,7.92-4.24,7.92-4.24,7.92-4.24,7.92-4.24,7.92-4.19,7.92-4.16,7.92-4.11,7.92-4.07,7.92-3.99,7.92-3.94,7.92-3.84,7.92-3.75,7.92-3.67,7.92-3.58,7.92-3.45,7.92-3.33,7.92-3.18,7.92-3.09,7.92-2.91,7.92-2.79,7.92-2.62,7.92-2.47,7.92-2.28,7.92-2.13,7.92-1.96,7.92-1.79,7.92-1.59,7.92-1.4,7.92-1.22,7.92-1,7.92-.83,7.92-.64,7.92-.44,7.92-.22,7.92-.05,7.92.17,7.92.37,7.92.56,7.92.76,7.92.96,7.92,1.15,7.92,1.35,7.92,1.54,7.92,1.71,7.92,1.89,7.92,2.08,7.92,2.23,7.92,2.42,7.92,2.57,7.92,2.72,7.92,2.89,7.92,3.01,7.92,3.16,7.92,3.31,7.92,3.4,7.92,3.53,7.92,3.62,7.92,3.75,7.92,3.82,7.92,3.89,7.92,3.99,7.92,4.04,7.92,4.09,7.92,4.14,7.92,4.19,7.92,4.21,7.92,4.24,7.92,4.24h0"/>
  <circle class="cls-3" cx="1627.2" cy="356.4" r="7.2"/>
  <circle class="cls-3" cx="43.2" cy="572.38" r="7.2"/>
  <circle class="cls-3" cx="43.2" cy="140.4" r="7.2"/>
  <circle class="cls-3" cx="1627.2" cy="140.4" r="7.2"/>
  <line class="cls-2" x1="571.18" y1="554.4" x2="571.18" y2="590.4"/>
  <line class="cls-2" x1="1099.22" y1="554.4" x2="1099.22" y2="590.4"/>
  <text class="cls-9" transform="translate(6 38.27)"><tspan x="0" y="0">n = 1</tspan></text>
  <text class="cls-9" transform="translate(1.87 257.87)"><tspan x="0" y="0">n = 2</tspan></text>
  <text class="cls-9" transform="translate(1.81 473.87)"><tspan x="0" y="0">n = 3</tspan></text>
  <path class="cls-6" d="m43.2,140.4h0l7.92,1.42,7.92,1.4,7.92,1.42,7.92,1.42,7.92,1.4,7.92,1.42,7.92,1.4,7.92,1.42,7.92,1.4,7.92,1.4,7.92,1.4,7.92,1.4,7.92,1.37,7.92,1.4,7.92,1.37,7.92,1.37,7.92,1.37,7.92,1.35,7.92,1.37,7.92,1.35,7.92,1.32,7.92,1.35,7.92,1.32,7.92,1.32,7.92,1.3,7.92,1.32,7.92,1.27,7.92,1.3,7.92,1.27,7.92,1.25,7.92,1.27,7.92,1.22,7.92,1.25,7.92,1.22,7.92,1.2,7.92,1.2,7.92,1.2,7.92,1.18,7.92,1.15,7.92,1.15,7.92,1.15,7.92,1.1,7.92,1.13,7.92,1.1,7.92,1.08,7.92,1.05,7.92,1.05,7.92,1.05,7.92,1,7.92,1.03,7.92.98,7.92.98,7.92.96,7.92.96,7.92.91,7.92.93,7.92.88,7.92.88,7.92.86,7.92.83,7.92.83,7.92.81,7.92.78,7.92.76,7.92.73,7.92.73,7.92.71,7.92.69,7.92.69,7.92.64,7.92.64,7.92.61,7.92.59,7.92.59,7.92.54,7.92.54,7.92.51,7.92.49,7.92.47,7.92.44,7.92.44,7.92.39,7.92.39,7.92.37,7.92.32,7.92.32,7.92.32,7.92.27,7.92.24,7.92.24,7.92.2,7.92.2,7.92.17,7.92.15,7.92.12,7.92.1,7.92.07,7.92.05,7.92.05h15.84l7.92-.05,7.92-.05,7.92-.07,7.92-.1,7.92-.12,7.92-.15,7.92-.17,7.92-.2,7.92-.2,7.92-.24,7.92-.24,7.92-.27,7.92-.32,7.92-.32,7.92-.32,7.92-.37,7.92-.39,7.92-.39,7.92-.44,7.92-.44,7.92-.47,7.92-.49,7.92-.51,7.92-.54,7.92-.54,7.92-.59,7.92-.59,7.92-.61,7.92-.64,7.92-.64,7.92-.69,7.92-.69,7.92-.71,7.92-.73,7.92-.73,7.92-.76,7.92-.78,7.92-.81,7.92-.83,7.92-.83,7.92-.86,7.92-.88,7.92-.88,7.92-.93,7.92-.91,7.92-.96,7.92-.96,7.92-.98,7.92-.98,7.92-1.03,7.92-1,7.92-1.05,7.92-1.05,7.92-1.05,7.92-1.08,7.92-1.1,7.92-1.13,7.92-1.1,7.92-1.15,7.92-1.15,7.92-1.15,7.92-1.18,7.92-1.2,7.92-1.2,7.92-1.2,7.92-1.22,7.92-1.25,7.92-1.22,7.92-1.27,7.92-1.25,7.92-1.27,7.92-1.3,7.92-1.27,7.92-1.32,7.92-1.3,7.92-1.32,7.92-1.32,7.92-1.35,7.92-1.32,7.92-1.35,7.92-1.37,7.92-1.35,7.92-1.37,7.92-1.37,7.92-1.37,7.92-1.4,7.92-1.37,7.92-1.4,7.92-1.4,7.92-1.4,7.92-1.4,7.92-1.42,7.92-1.4,7.92-1.42,7.92-1.4,7.92-1.42,7.92-1.42,7.92-1.4,7.92-1.42h0"/>
  <path class="cls-6" d="m43.2,356.4h0l7.92,2.82,7.92,2.84,7.92,2.82,7.92,2.82,7.92,2.79,7.92,2.79,7.92,2.77,7.92,2.74,7.92,2.72,7.92,2.72,7.92,2.67,7.92,2.64,7.92,2.62,7.92,2.57,7.92,2.52,7.92,2.5,7.92,2.47,7.92,2.4,7.92,2.38,7.92,2.3,7.92,2.25,7.92,2.23,7.92,2.13,7.92,2.11,7.92,2.03,7.92,1.96,7.92,1.91,7.92,1.84,7.92,1.76,7.92,1.69,7.92,1.64,7.92,1.54,7.92,1.47,7.92,1.4,7.92,1.32,7.92,1.25,7.92,1.18,7.92,1.08,7.92,1,7.92.91,7.92.83,7.92.76,7.92.64,7.92.59,7.92.49,7.92.39,7.92.32,7.92.22,7.92.12,7.92.05,7.92-.05,7.92-.12,7.92-.22,7.92-.32,7.92-.39,7.92-.49,7.92-.59,7.92-.64,7.92-.76,7.92-.83,7.92-.91,7.92-1,7.92-1.08,7.92-1.18,7.92-1.25,7.92-1.32,7.92-1.4,7.92-1.47,7.92-1.54,7.92-1.64,7.92-1.69,7.92-1.76,7.92-1.84,7.92-1.91,7.92-1.96,7.92-2.03,7.92-2.11,7.92-2.13,7.92-2.23,7.92-2.25,7.92-2.3,7.92-2.38,7.92-2.4,7.92-2.47,7.92-2.5,7.92-2.52,7.92-2.57,7.92-2.62,7.92-2.64,7.92-2.67,7.92-2.72,7.92-2.72,7.92-2.74,7.92-2.77,7.92-2.79,7.92-2.79,7.92-2.82,7.92-2.82,7.92-2.84,7.92-2.82,7.92-2.82,7.92-2.84,7.92-2.82,7.92-2.82,7.92-2.79,7.92-2.79,7.92-2.77,7.92-2.74,7.92-2.72,7.92-2.72,7.92-2.67,7.92-2.64,7.92-2.62,7.92-2.57,7.92-2.52,7.92-2.5,7.92-2.47,7.92-2.4,7.92-2.38,7.92-2.3,7.92-2.25,7.92-2.23,7.92-2.13,7.92-2.11,7.92-2.03,7.92-1.96,7.92-1.91,7.92-1.84,7.92-1.76,7.92-1.69,7.92-1.64,7.92-1.54,7.92-1.47,7.92-1.4,7.92-1.32,7.92-1.25,7.92-1.18,7.92-1.08,7.92-1,7.92-.91,7.92-.83,7.92-.76,7.92-.64,7.92-.59,7.92-.49,7.92-.39,7.92-.32,7.92-.22,7.92-.12,7.92-.05,7.92.05,7.92.12,7.92.22,7.92.32,7.92.39,7.92.49,7.92.59,7.92.64,7.92.76,7.92.83,7.92.91,7.92,1,7.92,1.08,7.92,1.18,7.92,1.25,7.92,1.32,7.92,1.4,7.92,1.47,7.92,1.54,7.92,1.64,7.92,1.69,7.92,1.76,7.92,1.84,7.92,1.91,7.92,1.96,7.92,2.03,7.92,2.11,7.92,2.13,7.92,2.23,7.92,2.25,7.92,2.3,7.92,2.38,7.92,2.4,7.92,2.47,7.92,2.5,7.92,2.52,7.92,2.57,7.92,2.62,7.92,2.64,7.92,2.67,7.92,2.72,7.92,2.72,7.92,2.74,7.92,2.77,7.92,2.79,7.92,2.79,7.92,2.82,7.92,2.82,7.92,2.84,7.92,2.82h0"/>
  <path class="cls-6" d="m43.2,572.4h0l7.92,4.24,7.92,4.24,7.92,4.21,7.92,4.19,7.92,4.14,7.92,4.09,7.92,4.04,7.92,3.99,7.92,3.89,7.92,3.82,7.92,3.75,7.92,3.62,7.92,3.53,7.92,3.4,7.92,3.31,7.92,3.16,7.92,3.01,7.92,2.89,7.92,2.72,7.92,2.57,7.92,2.42,7.92,2.23,7.92,2.08,7.92,1.89,7.92,1.71,7.92,1.54,7.92,1.35,7.92,1.15,7.92.96,7.92.76,7.92.56,7.92.37,7.92.17,7.92-.05,7.92-.22,7.92-.44,7.92-.64,7.92-.83,7.92-1,7.92-1.22,7.92-1.4,7.92-1.59,7.92-1.79,7.92-1.96,7.92-2.13,7.92-2.28,7.92-2.47,7.92-2.62,7.92-2.79,7.92-2.91,7.92-3.09,7.92-3.18,7.92-3.33,7.92-3.45,7.92-3.58,7.92-3.67,7.92-3.75,7.92-3.84,7.92-3.94,7.92-3.99,7.92-4.07,7.92-4.11,7.92-4.16,7.92-4.19,7.92-4.24,7.92-4.24,7.92-4.24,7.92-4.24,7.92-4.21,7.92-4.21,7.92-4.16,7.92-4.14,7.92-4.09,7.92-4.02,7.92-3.94,7.92-3.89,7.92-3.8,7.92-3.7,7.92-3.6,7.92-3.48,7.92-3.38,7.92-3.23,7.92-3.11,7.92-2.99,7.92-2.82,7.92-2.69,7.92-2.52,7.92-2.35,7.92-2.18,7.92-2.01,7.92-1.84,7.92-1.67,7.92-1.47,7.92-1.27,7.92-1.08,7.92-.91,7.92-.69,7.92-.51,7.92-.29,7.92-.1,7.92.1,7.92.29,7.92.51,7.92.69,7.92.91,7.92,1.08,7.92,1.27,7.92,1.47,7.92,1.67,7.92,1.84,7.92,2.01,7.92,2.18,7.92,2.35,7.92,2.52,7.92,2.69,7.92,2.82,7.92,2.99,7.92,3.11,7.92,3.23,7.92,3.38,7.92,3.48,7.92,3.6,7.92,3.7,7.92,3.8,7.92,3.89,7.92,3.94,7.92,4.02,7.92,4.09,7.92,4.14,7.92,4.16,7.92,4.21,7.92,4.21,7.92,4.24,7.92,4.24,7.92,4.24,7.92,4.24,7.92,4.19,7.92,4.16,7.92,4.11,7.92,4.07,7.92,3.99,7.92,3.94,7.92,3.84,7.92,3.75,7.92,3.67,7.92,3.58,7.92,3.45,7.92,3.33,7.92,3.18,7.92,3.09,7.92,2.91,7.92,2.79,7.92,2.62,7.92,2.47,7.92,2.28,7.92,2.13,7.92,1.96,7.92,1.79,7.92,1.59,7.92,1.4,7.92,1.22,7.92,1,7.92.83,7.92.64,7.92.44,7.92.22,7.92.05,7.92-.17,7.92-.37,7.92-.56,7.92-.76,7.92-.96,7.92-1.15,7.92-1.35,7.92-1.54,7.92-1.71,7.92-1.89,7.92-2.08,7.92-2.23,7.92-2.42,7.92-2.57,7.92-2.72,7.92-2.89,7.92-3.01,7.92-3.16,7.92-3.31,7.92-3.4,7.92-3.53,7.92-3.62,7.92-3.75,7.92-3.82,7.92-3.89,7.92-3.99,7.92-4.04,7.92-4.09,7.92-4.14,7.92-4.19,7.92-4.21,7.92-4.24,7.92-4.24h0"/>
  <g>
    <line class="cls-5" x1="63.54" y1="716.4" x2="493.2" y2="716.4"/>
    <polygon class="cls-8" points="67.68 730.53 43.2 716.4 67.68 702.27 67.68 730.53"/>
  </g>
  <g>
    <line class="cls-5" x1="1606.86" y1="716.4" x2="1177.2" y2="716.4"/>
    <polygon class="cls-8" points="1602.72 702.27 1627.2 716.4 1602.72 730.53 1602.72 702.27"/>
  </g>
  <text class="cls-9" transform="translate(620.85 730.8)"><tspan class="cls-11" x="0" y="0">L</tspan><tspan x="24.02" y="0">e</tspan><tspan class="cls-15" x="51.54" y="0">n</tspan><tspan class="cls-12" x="79.9" y="0">g</tspan><tspan x="106.29" y="0">th </tspan><tspan class="cls-7" x="162.02" y="0">o</tspan><tspan x="190.24" y="0">f t</tspan><tspan class="cls-14" x="235.1" y="0">h</tspan><tspan x="262.97" y="0">e </tspan><tspan class="cls-10" x="302.67" y="0">s</tspan><tspan x="326.95" y="0">t</tspan><tspan class="cls-13" x="343.27" y="0">r</tspan><tspan x="362.06" y="0">i</tspan><tspan class="cls-15" x="373.69" y="0">n</tspan><tspan x="402.05" y="0">g</tspan></text>
</svg>