<?xml version="1.0" encoding="UTF-8"?>
<svg id="Ebene_4" data-name="Ebene 4" xmlns="http://www.w3.org/2000/svg" viewBox="0 0 669.6 352.8">
  <defs>
    <style>
      .cls-1 {
        fill: none;
        stroke: #d85648;
        stroke-miterlimit: 10;
        stroke-width: 17px;
      }
    </style>
  </defs>
  <path class="cls-1" d="m10.8,176.4c.18-.28.27-.43.27-.43l35.32-55.58,18.88-27.43,15.83-20.89,14.01-16.45,12.79-13.08,11.57-10.07,10.96-7.87,10.35-5.87,9.13-3.86,8.53-2.46,7.92-1.28,7.31-.32,7.31.51,7.31,1.34,7.92,2.38,8.53,3.62,9.13,5.08,10.35,7.2,11.57,9.77,12.18,12.13,12.79,14.58,14.61,18.7,16.44,23.18,20.1,30.58s11.75,18.73,22.91,36.52"/>
  <path class="cls-1" d="m334.8,176.4c.18.28.27.43.27.43l35.32,55.58,18.88,27.43,15.83,20.89,14.01,16.45,12.79,13.08,11.57,10.07,10.96,7.87,10.35,5.87,9.13,3.86,8.53,2.46,7.92,1.28,7.31.32,7.31-.51,7.31-1.34,7.92-2.38,8.53-3.62,9.13-5.08,10.35-7.2,11.57-9.77,12.18-12.13,12.79-14.58,14.61-18.7,16.44-23.18,20.1-30.58s11.75-18.73,22.91-36.52"/>
</svg>