<?xml version="1.0" encoding="utf-8"?>
<!-- Generator: Adobe Illustrator 27.4.1, SVG Export Plug-In . SVG Version: 6.00 Build 0)  -->
<svg version="1.1" id="Ebene_1" xmlns="http://www.w3.org/2000/svg" xmlns:xlink="http://www.w3.org/1999/xlink" x="0px" y="0px"
	 viewBox="0 0 1991.7 743.4" style="enable-background:new 0 0 1991.7 743.4;" xml:space="preserve">
<style type="text/css">
	.st0{fill:none;stroke:#C9D1D9;stroke-width:2;stroke-miterlimit:10;}
	.st1{enable-background:new    ;}
	.st2{fill:#C9D1D9;}
	.st3{fill:none;stroke:#D85648;stroke-width:6;stroke-miterlimit:10;}
	.st4{fill:none;stroke:#D85648;stroke-width:6;stroke-linecap:round;stroke-miterlimit:10;}
	.st5{opacity:0.89;fill:none;stroke:#D85648;stroke-width:6;stroke-linecap:round;stroke-miterlimit:10;enable-background:new    ;}
	.st6{fill:none;stroke:#D85648;stroke-width:6;stroke-linecap:round;stroke-linejoin:round;}
</style>
<g id="Ebene_5">
	<line class="st0" x1="2.7" y1="546.3" x2="456.3" y2="546.3"/>
	<line class="st0" x1="506.7" y1="546.3" x2="960.3" y2="546.3"/>
	<line class="st0" x1="1010.7" y1="546.3" x2="1464.3" y2="546.3"/>
	<line class="st0" x1="1514.7" y1="546.3" x2="1968.3" y2="546.3"/>
</g>
<g class="st1">
	<path class="st2" d="M1644.3,727.2v-2.8l11.9-10.1c1.6-1.4,2.9-2.6,3.9-3.8s1.8-2.3,2.3-3.4s0.7-2.4,0.7-3.9c0-1.5-0.3-2.8-0.8-3.9
		s-1.3-1.8-2.3-2.4s-2.3-0.8-3.7-0.8c-1.7,0-3.1,0.3-4.1,1s-1.8,1.6-2.3,2.7s-0.8,2.4-0.9,3.8l-4.5-1.4c0.1-1.5,0.6-3,1.6-4.4
		s2.4-2.7,4.1-3.6s3.8-1.4,6.1-1.4c1.3,0,2.6,0.2,4,0.6s2.6,1,3.7,1.8s2,1.9,2.7,3.2s1,2.9,1,4.8c0,2.7-0.7,5.1-2.2,7.2
		s-3.5,4.2-6.1,6.3l-9.2,7.4l-3-0.6h21.1v3.6H1644.3z"/>
	<path class="st2" d="M1685.1,727.8c-3.9,0-6.9-1.5-9.1-4.6s-3.2-7.3-3.2-12.9s1.1-9.8,3.2-12.9s5.2-4.6,9.1-4.6
		c3.9,0,7,1.5,9.1,4.6s3.2,7.3,3.2,12.9s-1.1,9.8-3.2,12.9S1689,727.8,1685.1,727.8z M1685.1,724.4c2.6,0,4.6-1.2,5.9-3.6
		s2-5.9,2-10.5s-0.7-8.1-2-10.5s-3.3-3.6-5.9-3.6s-4.6,1.2-5.9,3.6s-2,5.9-2,10.5s0.7,8.1,2,10.5S1682.5,724.4,1685.1,724.4z"/>
	<path class="st2" d="M1710.7,714.1c-2.5,0-4.3-0.9-5.7-2.8s-2-4.4-2-7.7s0.7-5.9,2-7.7s3.2-2.8,5.7-2.8s4.3,0.9,5.7,2.7
		s2,4.4,2,7.7s-0.7,5.9-2,7.7S1713.2,714.1,1710.7,714.1z M1710.7,711.4c2.8,0,4.2-2.6,4.2-7.8s-1.4-7.8-4.2-7.8s-4.2,2.6-4.2,7.8
		S1707.9,711.4,1710.7,711.4z M1711.2,728.1l-2.3-1.6l24.2-33.8l2.3,1.6L1711.2,728.1z M1733.7,727.6c-2.5,0-4.3-0.9-5.7-2.8
		s-2-4.4-2-7.7s0.7-5.9,2-7.7s3.2-2.8,5.7-2.8s4.3,0.9,5.7,2.7s2,4.4,2,7.7s-0.7,5.9-2,7.7S1736.1,727.6,1733.7,727.6z
		 M1733.7,724.9c2.8,0,4.2-2.6,4.2-7.8s-1.4-7.8-4.2-7.8s-4.2,2.6-4.2,7.8S1730.9,724.9,1733.7,724.9z"/>
	<path class="st2" d="M1764.3,735.1c-2.4-3.1-4.3-6.5-5.5-10.1s-1.9-7.4-1.9-11.4c0-3.9,0.6-7.7,1.9-11.4s3.1-7,5.5-10.2h4.2
		c-2.7,3.6-4.7,7.1-5.9,10.5s-1.9,7.1-1.9,11.1c0,4,0.6,7.7,1.8,11.1s3.2,6.9,6,10.4H1764.3z"/>
	<path class="st2" d="M1776.1,727.2v-26.9c-1.2,1.1-2.4,2-3.5,2.7s-2.3,1.3-3.6,1.8v-4c0.7-0.3,1.4-0.7,2.2-1.2s1.6-1.2,2.6-2.2
		s2.1-2.3,3.4-4h3v33.8H1776.1z"/>
	<path class="st2" d="M1790.8,708.5c-1,0-1.8-0.3-2.5-1s-1-1.5-1-2.5s0.3-1.8,1-2.5s1.5-1,2.5-1s1.8,0.3,2.5,1s1,1.5,1,2.5
		s-0.3,1.8-1,2.5S1791.8,708.5,1790.8,708.5z M1790.8,727.8c-1,0-1.8-0.3-2.5-1s-1-1.5-1-2.5s0.3-1.8,1-2.5s1.5-1,2.5-1
		s1.8,0.3,2.5,1s1,1.5,1,2.5s-0.3,1.8-1,2.5S1791.8,727.8,1790.8,727.8z"/>
	<path class="st2" d="M1811.6,727.8c-2,0-3.8-0.4-5.6-1.2s-3.3-2-4.5-3.5s-1.9-3.5-2.1-5.7l4.3-1.3c0.2,2.4,0.9,4.4,2.2,6
		s3.1,2.4,5.6,2.4c1.5,0,2.8-0.4,4-1.1s2.1-1.7,2.7-3s1-2.8,1-4.4c0-2.5-0.7-4.4-2.2-5.8s-3.2-2-5.4-2c-1.9,0-3.4,0.5-4.4,1.4
		s-1.9,2-2.4,3.2l-4.1-0.4l1.4-18.8h19.3v3.6h-15.8l-0.9,12.8l-1.1-0.1c0.8-1.4,2-2.6,3.5-3.6s3.3-1.5,5.5-1.5
		c2.1,0,3.9,0.5,5.6,1.4s2.9,2.2,3.9,3.9s1.4,3.6,1.4,5.8c0,2.4-0.5,4.6-1.6,6.4s-2.5,3.2-4.3,4.2S1813.7,727.8,1811.6,727.8z"/>
	<path class="st2" d="M1825.5,735.1c2.8-3.5,4.8-7,6-10.4s1.8-7.1,1.8-11.1c0-3.9-0.6-7.6-1.9-11.1s-3.2-6.9-5.9-10.5h4.2
		c2.4,3.1,4.2,6.5,5.5,10.2s1.9,7.5,1.9,11.4c0,4-0.6,7.8-1.9,11.4s-3.1,7-5.5,10.1H1825.5z"/>
</g>
<g class="st1">
	<path class="st2" d="M1140.3,727.2v-2.8l11.9-10.1c1.6-1.4,2.9-2.6,3.9-3.8s1.8-2.3,2.3-3.4s0.7-2.4,0.7-3.9c0-1.5-0.3-2.8-0.8-3.9
		s-1.3-1.8-2.3-2.4s-2.3-0.8-3.7-0.8c-1.7,0-3.1,0.3-4.1,1s-1.8,1.6-2.3,2.7s-0.8,2.4-0.9,3.8l-4.5-1.4c0.1-1.5,0.6-3,1.6-4.4
		s2.4-2.7,4.1-3.6s3.8-1.4,6.1-1.4c1.3,0,2.6,0.2,4,0.6s2.6,1,3.7,1.8s2,1.9,2.7,3.2s1,2.9,1,4.8c0,2.7-0.7,5.1-2.2,7.2
		s-3.5,4.2-6.1,6.3l-9.2,7.4l-3-0.6h21.1v3.6H1140.3z"/>
	<path class="st2" d="M1180.2,727.8c-2,0-3.8-0.4-5.6-1.2s-3.3-2-4.5-3.5s-1.9-3.5-2.1-5.7l4.3-1.3c0.2,2.4,0.9,4.4,2.2,6
		s3.1,2.4,5.6,2.4c1.5,0,2.8-0.4,4-1.1s2.1-1.7,2.7-3s1-2.8,1-4.4c0-2.5-0.7-4.4-2.2-5.8s-3.2-2-5.4-2c-1.9,0-3.4,0.5-4.4,1.4
		s-1.9,2-2.4,3.2l-4.1-0.4l1.4-18.8h19.3v3.6h-15.8l-0.9,12.8l-1.1-0.1c0.8-1.4,2-2.6,3.5-3.6s3.3-1.5,5.5-1.5
		c2.1,0,3.9,0.5,5.6,1.4s2.9,2.2,3.9,3.9s1.4,3.6,1.4,5.8c0,2.4-0.5,4.6-1.6,6.4s-2.5,3.2-4.3,4.2S1182.3,727.8,1180.2,727.8z"/>
	<path class="st2" d="M1203.4,714.1c-2.5,0-4.3-0.9-5.7-2.8s-2-4.4-2-7.7s0.7-5.9,2-7.7s3.2-2.8,5.7-2.8s4.3,0.9,5.7,2.7
		s2,4.4,2,7.7s-0.7,5.9-2,7.7S1205.8,714.1,1203.4,714.1z M1203.4,711.4c2.8,0,4.2-2.6,4.2-7.8s-1.4-7.8-4.2-7.8s-4.2,2.6-4.2,7.8
		S1200.6,711.4,1203.4,711.4z M1203.9,728.1l-2.3-1.6l24.2-33.8l2.3,1.6L1203.9,728.1z M1226.3,727.6c-2.5,0-4.3-0.9-5.7-2.8
		s-2-4.4-2-7.7s0.7-5.9,2-7.7s3.2-2.8,5.7-2.8s4.3,0.9,5.7,2.7s2,4.4,2,7.7s-0.7,5.9-2,7.7S1228.8,727.6,1226.3,727.6z
		 M1226.3,724.9c2.8,0,4.2-2.6,4.2-7.8s-1.4-7.8-4.2-7.8s-4.2,2.6-4.2,7.8S1223.5,724.9,1226.3,724.9z"/>
	<path class="st2" d="M1257,735.1c-2.4-3.1-4.3-6.5-5.5-10.1s-1.9-7.4-1.9-11.4c0-3.9,0.6-7.7,1.9-11.4s3.1-7,5.5-10.2h4.2
		c-2.7,3.6-4.7,7.1-5.9,10.5s-1.9,7.1-1.9,11.1c0,4,0.6,7.7,1.8,11.1s3.2,6.9,6,10.4H1257z"/>
	<path class="st2" d="M1268.7,727.2v-26.9c-1.2,1.1-2.4,2-3.5,2.7s-2.3,1.3-3.6,1.8v-4c0.7-0.3,1.4-0.7,2.2-1.2s1.6-1.2,2.6-2.2
		s2.1-2.3,3.4-4h3v33.8H1268.7z"/>
	<path class="st2" d="M1283.4,708.5c-1,0-1.8-0.3-2.5-1s-1-1.5-1-2.5s0.3-1.8,1-2.5s1.5-1,2.5-1s1.8,0.3,2.5,1s1,1.5,1,2.5
		s-0.3,1.8-1,2.5S1284.4,708.5,1283.4,708.5z M1283.4,727.8c-1,0-1.8-0.3-2.5-1s-1-1.5-1-2.5s0.3-1.8,1-2.5s1.5-1,2.5-1
		s1.8,0.3,2.5,1s1,1.5,1,2.5s-0.3,1.8-1,2.5S1284.4,727.8,1283.4,727.8z"/>
	<path class="st2" d="M1306.7,727.2V716h0v-20l1,2.2l-15,17.8l-1.4-1.2h23.3v3.6h-25.2v-4l17.8-21h3.5v33.8H1306.7z"/>
	<path class="st2" d="M1315.8,735.1c2.8-3.5,4.8-7,6-10.4s1.8-7.1,1.8-11.1c0-3.9-0.6-7.6-1.9-11.1s-3.2-6.9-5.9-10.5h4.2
		c2.4,3.1,4.2,6.5,5.5,10.2s1.9,7.5,1.9,11.4c0,4-0.6,7.8-1.9,11.4s-3.1,7-5.5,10.1H1315.8z"/>
</g>
<g class="st1">
	<path class="st2" d="M616.8,727.8c-2.1,0-4-0.4-5.8-1.2s-3.2-2-4.4-3.6s-1.8-3.5-2-5.7l4.3-1.3c0.2,2.5,0.9,4.6,2.3,6.1
		s3.2,2.3,5.6,2.3c2.1,0,3.9-0.6,5.3-1.8s2.1-3,2.1-5.3c0-0.9-0.2-1.9-0.6-2.9s-1.1-1.9-2.1-2.6s-2.4-1.1-4.2-1.1h-4.6v-3.6h4.3
		c2,0,3.5-0.5,4.6-1.6s1.6-2.2,1.6-3.6c0-1.6-0.5-2.9-1.6-4s-2.6-1.7-4.6-1.7c-2.5,0-4.3,0.7-5.4,2.1s-1.8,3.4-2,5.9l-4.3-1.3
		c0.1-1.6,0.6-3.2,1.6-4.7s2.3-2.8,4.1-3.8s3.8-1.5,6.1-1.5c1.9,0,3.7,0.4,5.2,1.1s2.8,1.8,3.7,3.1s1.4,2.8,1.4,4.5
		c0,1.1-0.2,2.2-0.7,3.1s-1.2,1.8-2.1,2.4s-2.1,1.2-3.6,1.5c2.4,0.4,4.2,1.4,5.6,3s2.1,3.4,2.1,5.5c0,1.9-0.3,3.5-1,4.8
		s-1.6,2.4-2.7,3.3s-2.4,1.5-3.8,1.9S618.3,727.8,616.8,727.8z"/>
	<path class="st2" d="M645.4,727.8c-2.1,0-4-0.4-5.8-1.2s-3.2-2-4.4-3.6s-1.8-3.5-2-5.7l4.3-1.3c0.2,2.5,0.9,4.6,2.3,6.1
		s3.2,2.3,5.6,2.3c2.1,0,3.9-0.6,5.3-1.8s2.1-3,2.1-5.3c0-0.9-0.2-1.9-0.6-2.9s-1.1-1.9-2.1-2.6s-2.4-1.1-4.2-1.1h-4.6v-3.6h4.3
		c2,0,3.5-0.5,4.6-1.6s1.6-2.2,1.6-3.6c0-1.6-0.5-2.9-1.6-4s-2.6-1.7-4.6-1.7c-2.5,0-4.3,0.7-5.4,2.1s-1.8,3.4-2,5.9l-4.3-1.3
		c0.1-1.6,0.6-3.2,1.6-4.7s2.3-2.8,4.1-3.8s3.8-1.5,6.1-1.5c1.9,0,3.7,0.4,5.2,1.1s2.8,1.8,3.7,3.1s1.4,2.8,1.4,4.5
		c0,1.1-0.2,2.2-0.7,3.1s-1.2,1.8-2.1,2.4s-2.1,1.2-3.6,1.5c2.4,0.4,4.2,1.4,5.6,3s2.1,3.4,2.1,5.5c0,1.9-0.3,3.5-1,4.8
		s-1.6,2.4-2.7,3.3s-2.4,1.5-3.8,1.9S646.9,727.8,645.4,727.8z"/>
	<path class="st2" d="M662.8,734.7l-1.4-2l0.8-0.6c0.9-0.6,1.5-1.3,1.9-1.9s0.6-1.4,0.6-2.2v-1.1l0.6,0.8c-1,0-1.8-0.3-2.5-1
		s-1-1.5-1-2.5c0-1,0.3-1.9,1-2.5s1.5-1,2.5-1c0.6,0,1.1,0.1,1.7,0.4s1,0.7,1.4,1.4s0.6,1.5,0.6,2.6c0,1.5-0.4,3-1.2,4.5
		s-2.1,2.9-3.8,4.1L662.8,734.7z"/>
	<path class="st2" d="M686.1,727.8c-2.1,0-4-0.4-5.8-1.2s-3.2-2-4.4-3.6s-1.8-3.5-2-5.7l4.3-1.3c0.2,2.5,0.9,4.6,2.3,6.1
		s3.2,2.3,5.6,2.3c2.1,0,3.9-0.6,5.3-1.8s2.1-3,2.1-5.3c0-0.9-0.2-1.9-0.6-2.9s-1.1-1.9-2.1-2.6s-2.4-1.1-4.2-1.1H682v-3.6h4.3
		c2,0,3.5-0.5,4.6-1.6s1.6-2.2,1.6-3.6c0-1.6-0.5-2.9-1.6-4s-2.6-1.7-4.6-1.7c-2.5,0-4.3,0.7-5.4,2.1s-1.8,3.4-2,5.9l-4.3-1.3
		c0.1-1.6,0.6-3.2,1.6-4.7s2.3-2.8,4.1-3.8s3.8-1.5,6.1-1.5c1.9,0,3.7,0.4,5.2,1.1s2.8,1.8,3.7,3.1s1.4,2.8,1.4,4.5
		c0,1.1-0.2,2.2-0.7,3.1s-1.2,1.8-2.1,2.4s-2.1,1.2-3.6,1.5c2.4,0.4,4.2,1.4,5.6,3s2.1,3.4,2.1,5.5c0,1.9-0.3,3.5-1,4.8
		s-1.6,2.4-2.7,3.3s-2.4,1.5-3.8,1.9S687.6,727.8,686.1,727.8z"/>
	<path class="st2" d="M714.7,727.8c-2.1,0-4-0.4-5.8-1.2s-3.2-2-4.4-3.6s-1.8-3.5-2-5.7l4.3-1.3c0.2,2.5,0.9,4.6,2.3,6.1
		s3.2,2.3,5.6,2.3c2.1,0,3.9-0.6,5.3-1.8s2.1-3,2.1-5.3c0-0.9-0.2-1.9-0.6-2.9s-1.1-1.9-2.1-2.6s-2.4-1.1-4.2-1.1h-4.6v-3.6h4.3
		c2,0,3.5-0.5,4.6-1.6s1.6-2.2,1.6-3.6c0-1.6-0.5-2.9-1.6-4s-2.6-1.7-4.6-1.7c-2.5,0-4.3,0.7-5.4,2.1s-1.8,3.4-2,5.9l-4.3-1.3
		c0.1-1.6,0.6-3.2,1.6-4.7s2.3-2.8,4.1-3.8s3.8-1.5,6.1-1.5c1.9,0,3.7,0.4,5.2,1.1s2.8,1.8,3.7,3.1s1.4,2.8,1.4,4.5
		c0,1.1-0.2,2.2-0.7,3.1s-1.2,1.8-2.1,2.4s-2.1,1.2-3.6,1.5c2.4,0.4,4.2,1.4,5.6,3s2.1,3.4,2.1,5.5c0,1.9-0.3,3.5-1,4.8
		s-1.6,2.4-2.7,3.3s-2.4,1.5-3.8,1.9S716.1,727.8,714.7,727.8z"/>
	<path class="st2" d="M738.9,714.1c-2.5,0-4.3-0.9-5.7-2.8s-2-4.4-2-7.7s0.7-5.9,2-7.7s3.2-2.8,5.7-2.8s4.3,0.9,5.7,2.7s2,4.4,2,7.7
		s-0.7,5.9-2,7.7S741.3,714.1,738.9,714.1z M738.9,711.4c2.8,0,4.2-2.6,4.2-7.8s-1.4-7.8-4.2-7.8s-4.2,2.6-4.2,7.8
		S736.1,711.4,738.9,711.4z M739.4,728.1l-2.3-1.6l24.2-33.8l2.3,1.6L739.4,728.1z M761.8,727.6c-2.5,0-4.3-0.9-5.7-2.8
		s-2-4.4-2-7.7s0.7-5.9,2-7.7s3.2-2.8,5.7-2.8s4.3,0.9,5.7,2.7s2,4.4,2,7.7s-0.7,5.9-2,7.7S764.3,727.6,761.8,727.6z M761.8,724.9
		c2.8,0,4.2-2.6,4.2-7.8s-1.4-7.8-4.2-7.8s-4.2,2.6-4.2,7.8S759,724.9,761.8,724.9z"/>
	<path class="st2" d="M792.5,735.1c-2.4-3.1-4.3-6.5-5.5-10.1s-1.9-7.4-1.9-11.4c0-3.9,0.6-7.7,1.9-11.4s3.1-7,5.5-10.2h4.2
		c-2.7,3.6-4.7,7.1-5.9,10.5s-1.9,7.1-1.9,11.1c0,4,0.6,7.7,1.8,11.1s3.2,6.9,6,10.4H792.5z"/>
	<path class="st2" d="M804.2,727.2v-26.9c-1.2,1.1-2.4,2-3.5,2.7s-2.3,1.3-3.6,1.8v-4c0.7-0.3,1.4-0.7,2.2-1.2s1.6-1.2,2.6-2.2
		s2.1-2.3,3.4-4h3v33.8H804.2z"/>
	<path class="st2" d="M818.9,708.5c-1,0-1.8-0.3-2.5-1s-1-1.5-1-2.5s0.3-1.8,1-2.5s1.5-1,2.5-1s1.8,0.3,2.5,1s1,1.5,1,2.5
		s-0.3,1.8-1,2.5S819.9,708.5,818.9,708.5z M818.9,727.8c-1,0-1.8-0.3-2.5-1s-1-1.5-1-2.5s0.3-1.8,1-2.5s1.5-1,2.5-1s1.8,0.3,2.5,1
		s1,1.5,1,2.5s-0.3,1.8-1,2.5S819.9,727.8,818.9,727.8z"/>
	<path class="st2" d="M839.6,727.8c-2.1,0-4-0.4-5.8-1.2s-3.2-2-4.4-3.6s-1.8-3.5-2-5.7l4.3-1.3c0.2,2.5,0.9,4.6,2.3,6.1
		s3.2,2.3,5.6,2.3c2.1,0,3.9-0.6,5.3-1.8s2.1-3,2.1-5.3c0-0.9-0.2-1.9-0.6-2.9s-1.1-1.9-2.1-2.6s-2.4-1.1-4.2-1.1h-4.6v-3.6h4.3
		c2,0,3.5-0.5,4.6-1.6s1.6-2.2,1.6-3.6c0-1.6-0.5-2.9-1.6-4s-2.6-1.7-4.6-1.7c-2.5,0-4.3,0.7-5.4,2.1s-1.8,3.4-2,5.9l-4.3-1.3
		c0.1-1.6,0.6-3.2,1.6-4.7s2.3-2.8,4.1-3.8s3.8-1.5,6.1-1.5c1.9,0,3.7,0.4,5.2,1.1s2.8,1.8,3.7,3.1s1.4,2.8,1.4,4.5
		c0,1.1-0.2,2.2-0.7,3.1s-1.2,1.8-2.1,2.4s-2.1,1.2-3.6,1.5c2.4,0.4,4.2,1.4,5.6,3s2.1,3.4,2.1,5.5c0,1.9-0.3,3.5-1,4.8
		s-1.6,2.4-2.7,3.3s-2.4,1.5-3.8,1.9S841,727.8,839.6,727.8z"/>
	<path class="st2" d="M852.8,735.1c2.8-3.5,4.8-7,6-10.4s1.8-7.1,1.8-11.1c0-3.9-0.6-7.6-1.9-11.1s-3.2-6.9-5.9-10.5h4.2
		c2.4,3.1,4.2,6.5,5.5,10.2s1.9,7.5,1.9,11.4c0,4-0.6,7.8-1.9,11.4s-3.1,7-5.5,10.1H852.8z"/>
</g>
<g class="st1">
	<path class="st2" d="M144.7,727.8c-2,0-3.8-0.4-5.6-1.2s-3.3-2-4.5-3.5s-1.9-3.5-2.1-5.7l4.3-1.3c0.2,2.4,0.9,4.4,2.2,6
		s3.1,2.4,5.6,2.4c1.5,0,2.8-0.4,4-1.1s2.1-1.7,2.7-3s1-2.8,1-4.4c0-2.5-0.7-4.4-2.2-5.8s-3.2-2-5.4-2c-1.9,0-3.4,0.5-4.4,1.4
		s-1.9,2-2.4,3.2l-4.1-0.4l1.4-18.8h19.3v3.6h-15.8l-0.9,12.8l-1.1-0.1c0.8-1.4,2-2.6,3.5-3.6s3.3-1.5,5.5-1.5
		c2.1,0,3.9,0.5,5.6,1.4s2.9,2.2,3.9,3.9s1.4,3.6,1.4,5.8c0,2.4-0.5,4.6-1.6,6.4s-2.5,3.2-4.3,4.2S146.8,727.8,144.7,727.8z"/>
	<path class="st2" d="M174.1,727.8c-3.9,0-6.9-1.5-9.1-4.6s-3.2-7.3-3.2-12.9s1.1-9.8,3.2-12.9s5.2-4.6,9.1-4.6c3.9,0,7,1.5,9.1,4.6
		s3.2,7.3,3.2,12.9s-1.1,9.8-3.2,12.9S178,727.8,174.1,727.8z M174.1,724.4c2.6,0,4.6-1.2,5.9-3.6s2-5.9,2-10.5s-0.7-8.1-2-10.5
		s-3.3-3.6-5.9-3.6s-4.6,1.2-5.9,3.6s-2,5.9-2,10.5s0.7,8.1,2,10.5S171.5,724.4,174.1,724.4z"/>
	<path class="st2" d="M199.8,714.1c-2.5,0-4.3-0.9-5.7-2.8s-2-4.4-2-7.7s0.7-5.9,2-7.7s3.2-2.8,5.7-2.8s4.3,0.9,5.7,2.7s2,4.4,2,7.7
		s-0.7,5.9-2,7.7S202.2,714.1,199.8,714.1z M199.8,711.4c2.8,0,4.2-2.6,4.2-7.8s-1.4-7.8-4.2-7.8s-4.2,2.6-4.2,7.8
		S197,711.4,199.8,711.4z M200.3,728.1l-2.3-1.6l24.2-33.8l2.3,1.6L200.3,728.1z M222.7,727.6c-2.5,0-4.3-0.9-5.7-2.8s-2-4.4-2-7.7
		s0.7-5.9,2-7.7s3.2-2.8,5.7-2.8s4.3,0.9,5.7,2.7s2,4.4,2,7.7s-0.7,5.9-2,7.7S225.2,727.6,222.7,727.6z M222.7,724.9
		c2.8,0,4.2-2.6,4.2-7.8s-1.4-7.8-4.2-7.8s-4.2,2.6-4.2,7.8S219.9,724.9,222.7,724.9z"/>
	<path class="st2" d="M253.4,735.1c-2.4-3.1-4.3-6.5-5.5-10.1s-1.9-7.4-1.9-11.4c0-3.9,0.6-7.7,1.9-11.4s3.1-7,5.5-10.2h4.2
		c-2.7,3.6-4.7,7.1-5.9,10.5s-1.9,7.1-1.9,11.1c0,4,0.6,7.7,1.8,11.1s3.2,6.9,6,10.4H253.4z"/>
	<path class="st2" d="M265.1,727.2v-26.9c-1.2,1.1-2.4,2-3.5,2.7s-2.3,1.3-3.6,1.8v-4c0.7-0.3,1.4-0.7,2.2-1.2s1.6-1.2,2.6-2.2
		s2.1-2.3,3.4-4h3v33.8H265.1z"/>
	<path class="st2" d="M279.8,708.5c-1,0-1.8-0.3-2.5-1s-1-1.5-1-2.5s0.3-1.8,1-2.5s1.5-1,2.5-1s1.8,0.3,2.5,1s1,1.5,1,2.5
		s-0.3,1.8-1,2.5S280.8,708.5,279.8,708.5z M279.8,727.8c-1,0-1.8-0.3-2.5-1s-1-1.5-1-2.5s0.3-1.8,1-2.5s1.5-1,2.5-1s1.8,0.3,2.5,1
		s1,1.5,1,2.5s-0.3,1.8-1,2.5S280.8,727.8,279.8,727.8z"/>
	<path class="st2" d="M288.2,727.2v-2.8l11.9-10.1c1.6-1.4,2.9-2.6,3.9-3.8s1.8-2.3,2.3-3.4s0.7-2.4,0.7-3.9c0-1.5-0.3-2.8-0.8-3.9
		s-1.3-1.8-2.3-2.4s-2.3-0.8-3.7-0.8c-1.7,0-3.1,0.3-4.1,1s-1.8,1.6-2.3,2.7s-0.8,2.4-0.9,3.8l-4.5-1.4c0.1-1.5,0.6-3,1.6-4.4
		s2.4-2.7,4.1-3.6s3.8-1.4,6.1-1.4c1.3,0,2.6,0.2,4,0.6s2.6,1,3.7,1.8s2,1.9,2.7,3.2s1,2.9,1,4.8c0,2.7-0.7,5.1-2.2,7.2
		s-3.5,4.2-6.1,6.3l-9.2,7.4l-3-0.6h21.1v3.6H288.2z"/>
	<path class="st2" d="M313.7,735.1c2.8-3.5,4.8-7,6-10.4s1.8-7.1,1.8-11.1c0-3.9-0.6-7.6-1.9-11.1s-3.2-6.9-5.9-10.5h4.2
		c2.4,3.1,4.2,6.5,5.5,10.2s1.9,7.5,1.9,11.4c0,4-0.6,7.8-1.9,11.4s-3.1,7-5.5,10.1H313.7z"/>
</g>
<polyline class="st3" points="1956.6,653 1612.4,653 1612.4,438.3 1526.4,438.3 1526.4,654.3 "/>
<polyline class="st3" points="444.6,652.5 229.5,652.5 229.5,438.3 14.4,438.3 14.4,652.5 "/>
<polyline class="st4" points="518.4,652.5 518.4,438.3 661.8,438.3 661.8,652.5 948.6,652.5 "/>
<polyline class="st5" points="1022.4,652.5 1022.4,438.3 1129.9,438.3 1129.9,652.5 1452.6,652.5 "/>
<g>
	<line class="st6" x1="905.2" y1="138.7" x2="905.2" y2="294.3"/>
	<line class="st6" x1="890.3" y1="131.9" x2="890.3" y2="294.3"/>
	<line class="st6" x1="860.4" y1="124.7" x2="860.4" y2="294.3"/>
	<line class="st6" x1="845.5" y1="121.2" x2="845.5" y2="294.3"/>
	<line class="st6" x1="815.6" y1="117" x2="815.6" y2="294.3"/>
	<line class="st6" x1="800.7" y1="115.7" x2="800.7" y2="294.3"/>
	<line class="st6" x1="770.8" y1="114.4" x2="770.8" y2="294.3"/>
	<line class="st6" x1="755.9" y1="113.1" x2="755.9" y2="294.3"/>
	<line class="st6" x1="726" y1="111.6" x2="726" y2="294.3"/>
	<line class="st6" x1="711.1" y1="110.4" x2="711.1" y2="294.3"/>
	<line class="st6" x1="681.2" y1="109" x2="681.2" y2="294.3"/>
	<line class="st6" x1="666.3" y1="108" x2="666.3" y2="294.3"/>
	<line class="st6" x1="636.4" y1="106.9" x2="636.4" y2="294.3"/>
	<line class="st6" x1="621.5" y1="104" x2="621.5" y2="294.3"/>
	<line class="st6" x1="591.6" y1="99.5" x2="591.6" y2="294.3"/>
	<line class="st6" x1="576.7" y1="95.4" x2="576.7" y2="294.3"/>
	<line class="st6" x1="546.8" y1="85.9" x2="546.8" y2="294.3"/>
	<line class="st6" x1="531.9" y1="77" x2="531.9" y2="294.3"/>
</g>
<g>
	<polyline class="st0" points="963.3,297 514.8,297 514.8,56.4 	"/>
	<polygon class="st2" points="959.3,291.2 981,297 959.3,302.8 	"/>
	<polygon class="st2" points="520.6,60.4 514.8,38.7 509,60.4 	"/>
</g>
<g>
	<line class="st6" x1="1035.9" y1="77" x2="1035.9" y2="294.3"/>
	<line class="st6" x1="1050.8" y1="82.8" x2="1050.8" y2="294.3"/>
	<line class="st6" x1="1065.7" y1="95.7" x2="1065.7" y2="294.3"/>
	<line class="st6" x1="1095.7" y1="105.1" x2="1095.7" y2="294.3"/>
	<line class="st6" x1="1110.5" y1="102.9" x2="1110.5" y2="294.3"/>
	<line class="st6" x1="1125.5" y1="111.5" x2="1125.5" y2="294.3"/>
	<line class="st6" x1="1155.3" y1="115.2" x2="1155.3" y2="294.3"/>
	<line class="st6" x1="1170.3" y1="110.7" x2="1170.3" y2="294.3"/>
	<line class="st6" x1="1185.2" y1="117.7" x2="1185.2" y2="294.3"/>
	<line class="st6" x1="1215.1" y1="119.5" x2="1215.1" y2="294.3"/>
	<line class="st6" x1="1230" y1="114.9" x2="1230" y2="294.3"/>
	<line class="st6" x1="1244.9" y1="122" x2="1244.9" y2="294.3"/>
	<line class="st6" x1="1274.8" y1="124.5" x2="1274.8" y2="294.3"/>
	<line class="st6" x1="1289.7" y1="119.7" x2="1289.7" y2="294.3"/>
	<line class="st6" x1="1304.7" y1="126.4" x2="1304.7" y2="294.3"/>
	<line class="st6" x1="1334.5" y1="130.2" x2="1334.5" y2="294.3"/>
	<line class="st6" x1="1349.5" y1="127.8" x2="1349.5" y2="294.3"/>
	<line class="st6" x1="1364.4" y1="137.2" x2="1364.4" y2="294.3"/>
	<line class="st6" x1="1394.3" y1="147.1" x2="1394.3" y2="294.3"/>
	<line class="st6" x1="1409.3" y1="150" x2="1409.3" y2="294.3"/>
	<line class="st6" x1="1424.1" y1="168.3" x2="1424.1" y2="294.3"/>
</g>
<g>
	<polyline class="st0" points="1467.3,297 1018.8,297 1018.8,56.4 	"/>
	<polygon class="st2" points="1463.3,291.2 1485,297 1463.3,302.8 	"/>
	<polygon class="st2" points="1024.6,60.4 1018.8,38.7 1013,60.4 	"/>
</g>
<g>
	<line class="st6" x1="1539.9" y1="77" x2="1539.9" y2="294.3"/>
	<line class="st6" x1="1569.8" y1="85.5" x2="1569.8" y2="294.3"/>
	<line class="st6" x1="1554.8" y1="79.3" x2="1554.8" y2="294.3"/>
	<line class="st6" x1="1584.7" y1="99.2" x2="1584.7" y2="294.3"/>
	<line class="st6" x1="1614.6" y1="104.7" x2="1614.6" y2="294.3"/>
	<line class="st6" x1="1644.4" y1="100.6" x2="1644.4" y2="294.3"/>
	<line class="st6" x1="1659.4" y1="112.2" x2="1659.4" y2="294.3"/>
	<line class="st6" x1="1629.5" y1="99.4" x2="1629.5" y2="294.3"/>
	<line class="st6" x1="1689.2" y1="113.8" x2="1689.2" y2="294.3"/>
	<line class="st6" x1="1704.2" y1="108.5" x2="1704.2" y2="294.3"/>
	<line class="st6" x1="1719.1" y1="108.5" x2="1719.1" y2="294.3"/>
	<line class="st6" x1="1734" y1="118.7" x2="1734" y2="294.3"/>
	<line class="st6" x1="1763.9" y1="119.3" x2="1763.9" y2="294.3"/>
	<line class="st6" x1="1778.8" y1="114.1" x2="1778.8" y2="294.3"/>
	<line class="st6" x1="1794" y1="113.3" x2="1794" y2="294.3"/>
	<line class="st6" x1="1808.7" y1="123" x2="1808.7" y2="294.3"/>
	<line class="st6" x1="1838.6" y1="123.4" x2="1838.6" y2="294.3"/>
	<line class="st6" x1="1853.5" y1="118.9" x2="1853.5" y2="294.3"/>
	<line class="st6" x1="1868.4" y1="117.2" x2="1868.4" y2="294.3"/>
	<line class="st6" x1="1883.2" y1="126.2" x2="1883.2" y2="294.3"/>
	<line class="st6" x1="1913.2" y1="126.5" x2="1913.2" y2="294.3"/>
	<line class="st6" x1="1928.2" y1="121.5" x2="1928.2" y2="294.3"/>
</g>
<g>
	<polyline class="st0" points="1971.3,297 1522.8,297 1522.8,56.4 	"/>
	<polygon class="st2" points="1967.3,291.2 1989,297 1967.3,302.8 	"/>
	<polygon class="st2" points="1528.6,60.4 1522.8,38.7 1517,60.4 	"/>
</g>
<line class="st6" x1="27.9" y1="77" x2="27.9" y2="294.3"/>
<line class="st6" x1="57.8" y1="91.3" x2="57.8" y2="294.3"/>
<line class="st6" x1="87.7" y1="99.3" x2="87.7" y2="294.3"/>
<line class="st6" x1="117.5" y1="105.8" x2="117.5" y2="294.3"/>
<line class="st6" x1="147.4" y1="111.6" x2="147.4" y2="294.3"/>
<line class="st6" x1="177.3" y1="112.8" x2="177.3" y2="294.3"/>
<line class="st6" x1="207.1" y1="115.2" x2="207.1" y2="294.3"/>
<line class="st6" x1="237" y1="117.6" x2="237" y2="294.3"/>
<line class="st6" x1="266.9" y1="121.1" x2="266.9" y2="294.3"/>
<line class="st6" x1="296.8" y1="122.4" x2="296.8" y2="294.3"/>
<line class="st6" x1="326.6" y1="122.9" x2="326.6" y2="294.3"/>
<line class="st6" x1="356.5" y1="124.3" x2="356.5" y2="294.3"/>
<line class="st6" x1="386.4" y1="126.7" x2="386.4" y2="294.3"/>
<line class="st6" x1="416.2" y1="128.8" x2="416.2" y2="294.3"/>
<g>
	<polyline class="st0" points="459.3,297 10.8,297 10.8,56.4 	"/>
	<polygon class="st2" points="455.3,291.2 477,297 455.3,302.8 	"/>
	<polygon class="st2" points="16.6,60.4 10.8,38.7 5,60.4 	"/>
</g>
</svg>
