<?xml version="1.0" encoding="UTF-8"?><svg xmlns="http://www.w3.org/2000/svg" viewBox="0 0 1411.2 705.6"><defs><style>.uuid-fceeed30-c8e8-434b-b2b8-9f7876b8ff74{stroke:#307eef;}.uuid-fceeed30-c8e8-434b-b2b8-9f7876b8ff74,.uuid-83682010-3128-4f17-a457-c860b69c8f82,.uuid-797bc8b9-f289-4a3e-a957-22c1ae1c2490,.uuid-026daaa3-ca1c-4579-9cf4-d705008c59f1,.uuid-ea013975-102b-4eb8-8452-85b5742a8601,.uuid-f29205f4-a6d3-4114-95e0-6e8471dbf4d3{fill:none;stroke-miterlimit:10;}.uuid-fceeed30-c8e8-434b-b2b8-9f7876b8ff74,.uuid-026daaa3-ca1c-4579-9cf4-d705008c59f1{stroke-width:4.25px;}.uuid-dbaf051b-ce64-40af-9693-cd1cdcd06ab7{fill:#c5cdd5;}.uuid-dbaf051b-ce64-40af-9693-cd1cdcd06ab7,.uuid-9b04730b-5994-4d62-b7da-2cfdea99f88e,.uuid-813cf79f-6b74-48a4-a9e6-c64f3aa7dd5b{font-family:Roboto-Regular, Roboto;}.uuid-dbaf051b-ce64-40af-9693-cd1cdcd06ab7,.uuid-813cf79f-6b74-48a4-a9e6-c64f3aa7dd5b{font-size:36px;}.uuid-69c0bd38-d29f-4689-9e11-593d5f4e08a1{fill:#307eef;}.uuid-83682010-3128-4f17-a457-c860b69c8f82,.uuid-797bc8b9-f289-4a3e-a957-22c1ae1c2490,.uuid-026daaa3-ca1c-4579-9cf4-d705008c59f1,.uuid-ea013975-102b-4eb8-8452-85b5742a8601,.uuid-f29205f4-a6d3-4114-95e0-6e8471dbf4d3{stroke:#c9d1d9;}.uuid-83682010-3128-4f17-a457-c860b69c8f82,.uuid-f29205f4-a6d3-4114-95e0-6e8471dbf4d3{stroke-width:1.98px;}.uuid-797bc8b9-f289-4a3e-a957-22c1ae1c2490,.uuid-ea013975-102b-4eb8-8452-85b5742a8601{stroke-width:2.83px;}.uuid-ec96103f-0965-4208-abdf-0f7cbbb3d468{opacity:.3;}.uuid-9b04730b-5994-4d62-b7da-2cfdea99f88e{font-size:48px;}.uuid-9b04730b-5994-4d62-b7da-2cfdea99f88e,.uuid-813cf79f-6b74-48a4-a9e6-c64f3aa7dd5b{fill:#c6ced6;}.uuid-026daaa3-ca1c-4579-9cf4-d705008c59f1,.uuid-ea013975-102b-4eb8-8452-85b5742a8601,.uuid-f29205f4-a6d3-4114-95e0-6e8471dbf4d3{opacity:.8;}</style></defs><g id="uuid-da9f21e9-4ee8-4508-a672-7aeaf11f655d"><g class="uuid-ec96103f-0965-4208-abdf-0f7cbbb3d468"><path class="uuid-69c0bd38-d29f-4689-9e11-593d5f4e08a1" d="M1402.67,94.55c-.23,1.29-.44,2.5-.67,2.64-.23.13-.45-1.32-.68-1.82-.21-.51-.44-.76-.67-1.23-.23-.47-.45-1.47-.68-1.58-.23-.1-.44.49-.67.95-.23.47-.45,1.78-.68,1.85-.23.07-.45-1.4-.68-1.43-.23-.02-.46,1-.69,1.28-.23.28-.45.25-.68.4-.23.14-.45.24-.69.46-.23.22-.45.85-.68.86-.24,0-.46-.5-.69-.85-.24-.35-.46-.76-.69-1.27-.24-.51-.46-1.61-.7-1.79-.2-.17-.48-.05-.69.68-.23.79-.46,2.94-.7,4.09-.23,1.15-.46,2.33-.69,2.81-.24.48-.48.29-.7.07-.24-.23-.48-.82-.7-1.4-.24-.59-.48-1.93-.7-2.1-.24-.17-.48.38-.71,1.06-.24.68-.48,3.08-.7,3.04-.24-.04-.48-2.52-.71-3.25-.24-.73-.48-1.27-.71-1.14-.24.13-.48,1.32-.71,1.94-.24.62-.48,1.1-.72,1.79-.24.69-.48,2.31-.71,2.34-.24.03-.48-1.44-.72-2.16-.24-.73-.48-1.59-.71-2.2-.25-.61-.49-1.34-.73-1.46-.25-.12-.49.2-.74.74-.24.54-.49,1.67-.73,2.52-.25.85-.49,2.07-.74,2.58-.21.45-.51-.23-.73.5-.25.82-.5,3.97-.74,4.43-.25.46-.5-1.41-.74-1.68-.25-.28-.5.04-.75.03-.25,0-.49.06-.74-.09-.25-.16-.5-.59-.75-.84-.25-.25-.5-.97-.75-.64-.25.33-.5,1.86-.75,2.6-.25.74-.5,1.89-.75,1.82-.25-.06-.5-1.48-.76-2.2-.25-.72-.5-1.87-.75-2.12-.25-.25-.51.54-.76.62-.25.08-.51.05-.76-.14-.26-.19-.51-.65-.76-1.01-.26-.37-.51-1.45-.77-1.19-.25.26-.51,2.24-.77,2.76-.25.52-.51.92-.76.34-.26-.57-.52-2.7-.78-3.79-.25-1.09-.51-3.47-.77-2.74-.26.74-.51,5.87-.77,7.17-.18.86-.61.39-.78.6-.26.32-.52,1.41-.78,1.32-.26-.1-.52-1.43-.78-1.89s-.52-.79-.78-.9c-.27-.11-.53-.25-.8.24-.26.49-.52,2.07-.8,2.69-.26.63-.52,1.43-.8,1.07-.26-.35-.52-2.8-.8-3.18-.26-.39-.53.15-.8.86-.27.71-.53,3.08-.81,3.38-.27.3-.53-1.12-.81-1.58-.27-.46-.53-1.14-.81-1.18-.27-.05-.55.85-.81.9-.27.04-.55-.58-.82-.63-.27-.05-.55.22-.82.33-.21.09-.59-.51-.82.32-.27,1.03-.55,4.56-.82,5.87-.26,1.22-.57,1.92-.83,1.95-.27.04-.55-1.42-.82-1.74-.29-.32-.56.05-.83-.18-.29-.24-.56-.91-.83-1.23-.29-.32-.56-.97-.84-.72-.27.25-.56,1.83-.84,2.2-.27.37-.56.39-.84,0-.27-.38-.56-1.92-.84-2.31-.29-.39-.56.08-.84-.04-.29-.12-.57-.9-.86-.68-.29.22-.57,1.66-.86,2.02-.29.36-.57-.61-.86.13-.29.74-.57,3.32-.86,4.31-.3.99-.58,1.98-.87,1.62-.29-.36-.58-2.93-.87-3.77-.3-.84-.58-.89-.87-1.27-.3-.38-.58-.99-.88-1.02-.29-.04-.58.37-.88.79-.29.41-.58,1.45-.88,1.7-.29.25-.58-.74-.88-.21-.3.52-.59,2.99-.88,3.35-.3.37-.59-.73-.89-1.16-.3-.43-.59-.9-.89-1.43-.31-.53-.61-1.53-.9-1.77-.3-.24-.59-.21-.89.32-.31.53-.61,2.19-.9,2.88-.31.69-.61.94-.92,1.23-.3.29-.61.45-.9.51-.31.06-.61-.47-.92-.15-.31.32-.61,1.21-.92,2.08-.31.88-.62,2.62-.92,3.18-.31.56-.62.18-.93.17-.31-.01-.62.12-.93-.24-.31-.36-.62-1.5-.93-1.93-.32-.43-.63-.51-.94-.66-.31-.16-.62-.18-.94-.27-.31-.1-.63-.36-.94-.29-.31.07-.63.13-.94.68-.32.56-.64,1.8-.95,2.67-.32.88-.64,2.01-.95,2.59-.32.57-.64.24-.96.85-.32.6-.64,2.6-.96,2.75-.32.15-.64-1.72-.96-1.83-.32-.11-.64,1-.96,1.17-.32.17-.64-.71-.97-.15-.32.55-.64,2.32-.97,3.48-.32,1.16-.65,3.05-.97,3.49-.33.43-.65-.15-.99-.89-.32-.74-.65-2.83-.99-3.53-.33-.71-.65-1.09-.99-.71-.33.38-.67,2.99-1,2.99s-.67-2.46-1-2.99c-.33-.54-.67-.37-1-.24-.34.13-.68,1.33-1.01,1.04-.33-.29-.68-2.68-1.01-2.78-.34-.1-.68,1.39-1.02,2.16-.33.77-.68,1.69-1.01,2.47-.34.78-.69,1.99-1.03,2.2-.33.21-.68-.83-1.02-.91s-.69.83-1.03.4c-.34-.43-.69-2.97-1.03-3-.36-.03-.7,2.25-1.05,2.8s-.7.56-1.05.54c-.36-.02-.7-.42-1.05-.66-.36-.23-.71-.83-1.06-.73-.36.1-.71.76-1.06,1.31-.36.56-.71,1.8-1.07,2.03-.36.23-.71-1.35-1.07-.66-.36.7-.71,4.27-1.07,4.84-.37.57-.73-1.14-1.08-1.44-.37-.3-.72-.1-1.08-.37-.37-.28-.73-1.25-1.09-1.28-.36-.03-.73.26-1.09,1.1-.37.84-.72,3.75-1.09,3.94-.37.18-.74-3.03-1.11-2.85-.37.18-.74,2.87-1.11,3.93-.38,1.06-.75,2.57-1.12,2.44-.37-.13-.75-2.44-1.12-3.21-.38-.77-.75-1.37-1.13-1.43-.37-.07-.75.76-1.13,1.03-.37.27-.75.51-1.13.63-.38.12-.76.4-1.14.11-.38-.29-.76-1.54-1.14-1.84-.38-.3-.77.1-1.15.05-.38-.06-.77-.93-1.15-.38-.39.55-.77,3.04-1.16,3.69-.39.65-.77-.17-1.16.18-.39.34-.78,2.17-1.18,1.87-.39-.3-.78-3.63-1.18-3.69-.39-.06-.78,2.32-1.18,3.32-.4,1-.8,2.64-1.2,2.66-.39.02-.8-1.8-1.19-2.56-.4-.76-.8-2.49-1.2-2.02-.4.47-.81,3.99-1.21,4.86-.4.86-.81.27-1.21.33-.4.06-.81.34-1.21.02-.42-.32-.82-1.3-1.24-1.94-.4-.64-.82-1.51-1.22-1.9-.42-.4-.83-1.18-1.24-.47-.42.71-.83,3.59-1.25,4.72-.42,1.13-.83,2.02-1.25,2.08-.42.05-.84-1.35-1.26-1.74-.42-.4-.84-.18-1.26-.63-.43-.45-.86-1.99-1.27-2.08-.43-.09-.86.63-1.28,1.54-.43.91-.86,2.96-1.28,3.9-.43.94-.86,1.57-1.28,1.75-.44.19-.87-.43-1.3-.63-.44-.2-.88-.68-1.31-.57-.44.11-.88.75-1.32,1.22-.43.47-.87.86-1.31,1.59-.45.72-.89,2.63-1.33,2.76-.44.12-.89-1.43-1.33-2.01-.45-.59-.89-1.47-1.34-1.5-.45-.04-.89.93-1.34,1.28-.45.35-.9.33-1.35.82-.46.49-.92,1.47-1.37,2.13-.45.65-.92,1.84-1.37,1.8-.46-.04-.93-1.64-1.38-2.02-.46-.38-.93-.67-1.39-.25-.46.41-.93,1.83-1.39,2.74-.46.9-.94,2.31-1.4,2.68-.48.37-.94-.53-1.41-.45-.48.08-.94.15-1.41.94-.48.8-.95,3.15-1.43,3.84-.48.69-.96.82-1.44.3-.48-.52-.96-3.37-1.44-3.43-.49-.05-.97,2.27-1.46,3.09s-.96,1.46-1.46,1.84c-.49.37-.97.67-1.46.4-.5-.27-.99-1.62-1.49-1.99-.49-.38-.99-.47-1.49-.28-.5.2-1,.88-1.5,1.44-.5.55-1,1.75-1.51,1.9-.5.15-1-.92-1.51-1.01-.51-.1-1.01-.21-1.52.45-.51.66-1.02,3.04-1.54,3.49-.51.46-1.02-.38-1.53-.76-.52-.39-1.05-1.94-1.56-1.57-.52.36-1.05,2.49-1.57,3.76-.52,1.27-1.05,3.47-1.57,3.84-.53.37-1.06-1.4-1.59-1.62-.52-.22-1.06-.37-1.59.3-.53.67-1.07,3.21-1.6,3.74-.53.52-1.08-.31-1.62-.59-.53-.28-1.08-.69-1.63-1.1-.55-.41-1.09-.8-1.64-1.38-.55-.57-1.09-2.07-1.64-2.06-.56.01-1.11,1.33-1.66,2.13-.56.79-1.12,2.26-1.68,2.64-.56.38-1.12-.8-1.69-.39-.56.41-1.12,2.19-1.69,2.88-.57.69-1.14.8-1.71,1.25-.57.45-1.14.97-1.71,1.46-.58.49-1.15,1.39-1.74,1.47-.58.08-1.16-.97-1.75-.99-.58-.02-1.16.73-1.76.88-.58.16-1.18-.24-1.76.05-.59.29-1.19,1.77-1.78,1.7-.61-.08-1.2-2.83-1.79-2.16-.61.66-1.21,4.77-1.82,6.15-.61,1.37-1.21,2.03-1.82,2.08-.61.05-1.22-1.2-1.83-1.76-.62-.57-1.24-1.87-1.85-1.62-.62.26-1.24,2.97-1.87,3.14-.62.18-1.25-1.81-1.88-2.07-.63-.27-1.26.08-1.89.46-.64.38-1.27,1.21-1.91,1.83-.64.63-1.27,1.25-1.93,1.94-.64.69-1.28,2.03-1.94,2.2-.64.17-1.3-.84-1.95-1.15-.65-.31-1.31-.93-1.97-.7-.65.23-1.32,1.02-1.98,2.1-.67,1.08-1.33,3.73-2,4.37-.68.64-1.34-.07-2.02-.52s-1.35-2.19-2.03-2.18c-.69.02-1.37,1.37-2.06,2.29-.69.92-1.38,2.68-2.07,3.24-.7.56-1.39.33-2.09.13-.7-.2-1.4-1.65-2.1-1.35-.71.3-1.41,2.5-2.13,3.17-.71.67-1.43,0-2.14.84-.72.82-1.44,3.46-2.16,4.11-.72.65-1.45.13-2.19-.23-.73-.36-1.46-1.99-2.2-1.91-.74.08-1.47,1.3-2.22,2.42-.75,1.12-1.49,3.76-2.25,4.28-.75.52-1.5-1.48-2.26-1.17-.76.31-1.52,2.99-2.28,3.02-.77.03-1.53-1.99-2.31-2.85-.77-.85-1.55-2.42-2.33-2.28-.78.13-1.57,2.46-2.35,3.11-.78.65-1.58.11-2.38.79-.78.68-1.59,2.41-2.39,3.28-.81.88-1.62,1.16-2.42,1.98-.81.82-1.63,2.84-2.45,2.95-.81.11-1.64-1.88-2.46-2.31-.83-.43-1.66-.34-2.5-.24-.84.09-1.68.55-2.52.8-.84.25-1.7-.01-2.56.73-.86.74-1.71,3.12-2.57,3.71-.87.59-1.74-.17-2.6-.19-.88-.02-1.75-.2-2.63.07-.89.27-1.77.57-2.66,1.55-.89.98-1.78,3.17-2.69,4.32-.9,1.14-1.81,1.8-2.72,2.54-.92.74-1.83,1.5-2.75,1.92-.93.42-1.85.54-2.78.6-.94.06-1.87-1.17-2.82-.25-.94.93-1.89,5.02-2.84,5.8-.95.78-1.91-.67-2.88-1.1-.97-.43-1.94-1.56-2.92-1.47-.97.09-1.95,1.36-2.95,2-.99.64-1.99,1.59-2.98,1.84-1,.24-2.01-.63-3.02-.37-1.01.26-2.03,1.51-3.05,1.92-1.03.41-2.07-.05-3.1.52-1.05.58-2.09,1.89-3.14,2.93-1.06,1.04-2.12,3.03-3.19,3.32-1.07.28-2.14-1.82-3.22-1.61-1.08.21-2.18,1.7-3.27,2.86-1.09,1.16-2.2,3.32-3.3,4.12-1.12.81-2.23.71-3.35.73-1.13.02-2.27-1.11-3.41-.59-1.14.51-2.29,2.7-3.45,3.68-1.16.98-2.33,2.14-3.51,2.18-1.16.04-2.35-2.05-3.54-1.94-1.2.11-2.4,1.71-3.61,2.61-1.2.9-2.42,1.9-3.65,2.8-1.24.89-2.47,2.08-3.72,2.57-1.25.49-2.51-.32-3.77.38-1.27.7-2.54,3.44-3.84,3.83-1.28.38-2.58-1.18-3.89-1.51-1.31-.33-2.63-1.12-3.96-.48-1.33.64-2.66,3.39-4.02,4.32-1.35.93-2.72.73-4.09,1.27-1.38.54-2.76.99-4.16,1.99-1.4,1-2.8,3.05-4.23,4.02-1.43.97-2.85,1.1-4.3,1.78-1.45.68-2.91,1.09-4.39,2.31-1.47,1.21-2.96,3.76-4.47,4.98-1.5,1.22-3.01,2.27-4.54,2.34-1.53.07-3.08-1.77-4.64-1.9-1.56-.13-3.14.35-4.72,1.12-1.59.77-3.2,2.4-4.83,3.49-1.62,1.08-3.26,2.86-4.91,3.03-1.66.16-3.33-2.31-5.02-2.05-1.69.26-3.4,2.77-5.12,3.6-1.72.84-3.47.62-5.23,1.41-1.77.8-3.55,1.82-5.35,3.39-1.81,1.57-3.62,4.14-5.47,6.04-1.84,1.91-3.71,4.38-5.6,5.4-1.88,1.02-3.79.58-5.72.7-1.94.12-3.89-.54-5.87,0-1.97.54-3.97,1.72-6,3.22-2.03,1.49-4.08,4.16-6.16,5.74-2.08,1.58-4.18,2.72-6.32,3.74-2.13,1.01-4.29,1.58-6.49,2.32-2.19.73-4.41,1.57-6.66,2.1-2.26.52-4.54,0-6.86,1.05-2.32,1.04-4.67,3.49-7.05,5.18-2.39,1.69-4.81,3.31-7.26,4.98-2.46,1.67-4.96,3.78-7.49,5.03-2.53,1.24-5.11,1.6-7.73,2.44-2.61.85-5.28,1.23-7.97,2.64-2.71,1.41-5.46,4.34-8.25,5.8-2.79,1.46-5.63,2.07-8.53,2.96-2.9.9-5.85,1.24-8.85,2.43-3,1.19-6.05,2.98-9.18,4.73-3.13,1.75-6.3,3.87-9.54,5.77-3.24,1.9-6.55,4.47-9.92,5.61-3.39,1.14-6.83.22-10.35,1.22-3.53.99-7.13,2.79-10.82,4.74-3.7,1.95-7.45,5.19-11.31,6.96-3.86,1.76-7.82,2.65-11.87,3.63-4.05.98-8.2.53-12.48,2.24-4.27,1.71-8.64,5.28-13.15,8.05-4.52,2.76-9.14,6.11-13.91,8.54-4.78,2.43-9.67,3.91-14.75,6.02-5.07,2.11-10.29,4.36-15.7,6.63-5.42,2.27-10.98,4.11-16.78,6.98-5.8,2.87-11.78,6.6-18.03,10.22-6.25,3.62-12.69,7.9-19.47,11.51-6.77,3.6-13.77,7.28-21.17,10.12-7.39,2.83-15.05,3.52-23.19,6.9-8.13,3.38-16.58,8.85-25.62,13.37-9.06,4.52-18.47,9.12-28.66,13.75-10.19,4.63-20.82,8.84-32.48,14.03-11.67,5.18-23.85,10.27-37.5,17.07-13.64,6.8-27.92,15.4-44.36,23.76-8.98,4.56-18.18,9.22-28.04,14.04h1073.06V92.66c-.06-1.78-.62-3.3-.67-3.22-.23.32-.44,3.82-.67,5.11Z"/><path class="uuid-69c0bd38-d29f-4689-9e11-593d5f4e08a1" d="M330.94,583.2c9.87-4.81,19.06-9.47,28.04-14.04,16.44-8.36,30.71-16.95,44.36-23.76,13.64-6.81,25.83-11.89,37.5-17.07,11.66-5.18,22.3-9.4,32.48-14.03,10.19-4.63,19.6-9.23,28.66-13.75,9.04-4.52,17.49-9.99,25.62-13.37,8.14-3.38,15.8-4.06,23.19-6.9,7.39-2.84,14.39-6.52,21.17-10.12,6.77-3.61,13.22-7.89,19.47-11.51,6.25-3.62,12.23-7.35,18.03-10.22,5.8-2.86,11.36-4.71,16.78-6.98,5.41-2.27,10.63-4.52,15.7-6.63,5.07-2.11,9.97-3.6,14.75-6.02,4.77-2.43,9.39-5.77,13.91-8.54,4.5-2.76,8.88-6.33,13.15-8.05,4.28-1.71,8.43-1.26,12.48-2.24,4.05-.98,8.01-1.87,11.87-3.63,3.86-1.77,7.62-5.01,11.31-6.96,3.68-1.95,7.29-3.75,10.82-4.74,3.52-.99,6.96-.08,10.35-1.22,3.38-1.14,6.68-3.72,9.92-5.61,3.24-1.9,6.42-4.02,9.54-5.77,3.13-1.75,6.18-3.53,9.18-4.73,3.01-1.19,5.95-1.53,8.85-2.43,2.9-.9,5.74-1.5,8.53-2.96,2.79-1.46,5.54-4.4,8.25-5.8,2.7-1.41,5.36-1.79,7.97-2.64,2.61-.85,5.19-1.2,7.73-2.44,2.53-1.25,5.03-3.36,7.49-5.03,2.45-1.67,4.87-3.28,7.26-4.98,2.38-1.69,4.73-4.14,7.05-5.18,2.32-1.04,4.6-.52,6.86-1.05,2.25-.52,4.47-1.36,6.66-2.1,2.2-.74,4.36-1.31,6.49-2.32,2.14-1.01,4.24-2.16,6.32-3.74,2.08-1.58,4.12-4.24,6.16-5.74,2.03-1.49,4.03-2.68,6-3.22,1.98-.54,3.93.12,5.87,0,1.93-.12,3.84.32,5.72-.7,1.89-1.02,3.76-3.49,5.6-5.4,1.84-1.91,3.66-4.47,5.47-6.04,1.79-1.57,3.58-2.58,5.35-3.39,1.76-.8,3.51-.58,5.23-1.41,1.72-.83,3.43-3.34,5.12-3.6,1.69-.26,3.35,2.21,5.02,2.05,1.65-.16,3.29-1.94,4.91-3.03,1.63-1.09,3.23-2.72,4.83-3.49,1.58-.77,3.16-1.25,4.72-1.12,1.56.13,3.1,1.97,4.64,1.9,1.53-.07,3.04-1.12,4.54-2.34,1.51-1.22,3-3.76,4.47-4.98,1.47-1.22,2.94-1.63,4.39-2.31,1.45-.68,2.88-.81,4.3-1.78,1.43-.96,2.83-3.01,4.23-4.02,1.4-1,2.78-1.44,4.16-1.99,1.37-.54,2.73-.34,4.09-1.27,1.35-.93,2.69-3.68,4.02-4.32,1.33-.64,2.65.14,3.96.48,1.31.33,2.6,1.9,3.89,1.51,1.3-.39,2.57-3.13,3.84-3.83,1.26-.7,2.52.11,3.77-.38,1.25-.49,2.48-1.68,3.72-2.57,1.22-.9,2.45-1.9,3.65-2.8,1.21-.9,2.41-2.5,3.61-2.61,1.19-.11,2.38,1.98,3.54,1.94,1.18-.04,2.34-1.2,3.51-2.18,1.15-.98,2.31-3.16,3.45-3.68,1.14-.51,2.28.62,3.41.59,1.12-.02,2.23.08,3.35-.73,1.11-.81,2.21-2.96,3.3-4.12,1.09-1.16,2.19-2.65,3.27-2.86,1.08-.21,2.15,1.89,3.22,1.61,1.07-.29,2.13-2.27,3.19-3.32,1.05-1.04,2.09-2.36,3.14-2.93,1.03-.58,2.07-.12,3.1-.52,1.02-.41,2.04-1.66,3.05-1.92,1.01-.26,2.02.61,3.02.37,1-.24,2-1.2,2.98-1.84,1-.64,1.97-1.91,2.95-2,.99-.09,1.95,1.04,2.92,1.47.96.43,1.93,1.88,2.88,1.1.95-.78,1.9-4.88,2.84-5.8.95-.93,1.88.31,2.82.25.93-.06,1.85-.18,2.78-.6.92-.42,1.83-1.18,2.75-1.92.92-.74,1.82-1.4,2.72-2.54.9-1.15,1.79-3.34,2.69-4.32.89-.98,1.77-1.28,2.66-1.55.88-.27,1.75-.09,2.63-.07.87.02,1.74.78,2.6.19.86-.59,1.71-2.97,2.57-3.71.86-.74,1.71-.48,2.56-.73.84-.26,1.68-.71,2.52-.8.83-.09,1.66-.18,2.5.24.82.43,1.65,2.42,2.46,2.31.82-.11,1.64-2.13,2.45-2.95.81-.82,1.62-1.1,2.42-1.98.8-.88,1.6-2.6,2.39-3.28.8-.68,1.59-.14,2.38-.79.78-.65,1.57-2.97,2.35-3.11.78-.14,1.56,1.43,2.33,2.28.77.85,1.53,2.88,2.31,2.85.76-.03,1.52-2.72,2.28-3.02.76-.31,1.51,1.69,2.26,1.17.76-.52,1.5-3.16,2.25-4.28.75-1.11,1.49-2.33,2.22-2.42.74-.09,1.47,1.55,2.2,1.91.74.35,1.46.88,2.19.23.73-.65,1.44-3.28,2.16-4.11.71-.83,1.43-.17,2.14-.84.71-.67,1.41-2.87,2.13-3.17.7-.3,1.4,1.15,2.1,1.35.7.2,1.39.43,2.09-.13.69-.56,1.38-2.32,2.07-3.24.69-.92,1.37-2.27,2.06-2.29.68-.02,1.35,1.72,2.03,2.18s1.34,1.16,2.02.52c.67-.64,1.33-3.3,2-4.37.67-1.08,1.33-1.87,1.98-2.1.67-.23,1.32.39,1.97.7.65.31,1.31,1.32,1.95,1.15.65-.18,1.3-1.51,1.94-2.2.65-.69,1.28-1.31,1.93-1.94.64-.63,1.27-1.45,1.91-1.83.63-.38,1.26-.73,1.89-.46.63.27,1.26,2.25,1.88,2.07.63-.18,1.25-2.89,1.87-3.14.62-.26,1.24,1.05,1.85,1.62.61.56,1.22,1.82,1.83,1.76.61-.05,1.21-.71,1.82-2.08.61-1.37,1.21-5.49,1.82-6.15.59-.66,1.19,2.08,1.79,2.16.59.08,1.19-1.41,1.78-1.7.58-.29,1.18.1,1.76-.05.59-.16,1.18-.9,1.76-.88.58.02,1.16,1.07,1.75.99.58-.08,1.15-.98,1.74-1.47.57-.49,1.14-1.01,1.71-1.46.57-.45,1.14-.56,1.71-1.25.57-.69,1.13-2.47,1.69-2.88.57-.41,1.13.76,1.69.39.56-.37,1.12-1.84,1.68-2.64.56-.8,1.11-2.12,1.66-2.13.55-.01,1.09,1.49,1.64,2.06.55.57,1.09.96,1.64,1.38.55.41,1.09.82,1.63,1.1.53.28,1.08,1.12,1.62.59.53-.52,1.07-3.07,1.6-3.74.54-.67,1.07-.52,1.59-.3.53.22,1.06,1.99,1.59,1.62.52-.37,1.05-2.57,1.57-3.84.52-1.27,1.05-3.4,1.57-3.76.51-.37,1.03,1.18,1.56,1.57.51.39,1.02,1.22,1.53.76.52-.45,1.03-2.83,1.54-3.49.51-.66,1.01-.55,1.52-.45.51.09,1.01,1.16,1.51,1.01.51-.15,1.01-1.34,1.51-1.9.5-.56,1-1.25,1.5-1.44.5-.19,1-.1,1.49.28.5.38.99,1.73,1.49,1.99.49.27.97-.03,1.46-.4.5-.37.97-1.02,1.46-1.84s.97-3.14,1.46-3.09c.48.05.96,2.9,1.44,3.43.48.52.96.39,1.44-.3.48-.69.95-3.04,1.43-3.84.48-.8.94-.86,1.41-.94.48-.08.94.82,1.41.45.46-.37.94-1.78,1.4-2.68.46-.9.93-2.32,1.39-2.74.46-.41.93-.12,1.39.25.45.38.92,1.98,1.38,2.02.45.04.92-1.15,1.37-1.8.45-.66.9-1.64,1.37-2.13.45-.49.9-.47,1.35-.82.45-.35.89-1.32,1.34-1.28.45.04.89.91,1.34,1.5.44.58.89,2.14,1.33,2.01.44-.12.88-2.04,1.33-2.76.44-.73.88-1.12,1.31-1.59.44-.47.88-1.11,1.32-1.22.43-.11.87.37,1.31.57.43.2.86.82,1.3.63.43-.19.86-.81,1.28-1.75.43-.94.86-2.99,1.28-3.9.43-.91.86-1.63,1.28-1.54.42.09.84,1.63,1.27,2.08.42.45.84.24,1.26.63.42.4.84,1.8,1.26,1.74.42-.06.83-.94,1.25-2.08.42-1.13.83-4.02,1.25-4.72.4-.71.82.08,1.24.47.4.39.82,1.26,1.22,1.9.42.64.82,1.62,1.24,1.94.4.32.81.04,1.21-.02.4-.06.81.53,1.21-.33.4-.87.81-4.38,1.21-4.86.4-.47.8,1.26,1.2,2.02.39.76.8,2.57,1.19,2.56.4-.02.8-1.66,1.2-2.66.39-.99.78-3.38,1.18-3.32.39.06.78,3.38,1.18,3.69.39.3.78-1.53,1.18-1.87.39-.34.77.47,1.16-.18.39-.64.77-3.14,1.16-3.69.38-.55.77.32,1.15.38.38.05.77-.35,1.15-.05.38.3.76,1.55,1.14,1.84.38.29.76.01,1.14-.11.38-.12.76-.35,1.13-.63.38-.28.76-1.1,1.13-1.03.38.07.75.66,1.13,1.43.37.77.75,3.08,1.12,3.21.37.13.74-1.38,1.12-2.44.37-1.06.74-3.75,1.11-3.93.37-.18.74,3.03,1.11,2.85.37-.18.73-3.1,1.09-3.94.37-.84.74-1.13,1.09-1.1.37.03.73,1.01,1.09,1.28.36.27.71.07,1.08.37.36.3.71,2.01,1.08,1.44.36-.57.71-4.14,1.07-4.84.36-.7.71.89,1.07.66.36-.23.71-1.48,1.07-2.03.34-.56.7-1.22,1.06-1.31.34-.1.7.5,1.06.73.34.23.69.64,1.05.66.34.02.7.01,1.05-.54s.69-2.84,1.05-2.8c.34.03.69,2.57,1.03,3,.34.43.69-.49,1.03-.4s.69,1.13,1.02.91c.34-.21.69-1.42,1.03-2.2.33-.78.68-1.7,1.01-2.47.34-.77.68-2.26,1.02-2.16.33.1.68,2.49,1.01,2.78.33.29.67-.91,1.01-1.04.33-.13.67-.3,1,.24.33.54.67,2.99,1,2.99s.67-2.61,1-2.99c.33-.38.65,0,.99.71.33.71.67,2.8.99,3.53.33.74.65,1.32.99.89.32-.43.65-2.33.97-3.49.33-1.16.65-2.92.97-3.48.33-.55.65.32.97.15.32-.17.64-1.28.96-1.17.32.11.64,1.98.96,1.83.32-.16.64-2.16.96-2.75.32-.6.64-.27.96-.85.31-.57.63-1.71.95-2.59.31-.88.63-2.11.95-2.67.31-.56.63-.62.94-.68.31-.07.63.2.94.29.32.09.63.12.94.27.31.16.62.23.94.66.31.43.62,1.57.93,1.93.31.36.62.23.93.24.31.01.62.39.93-.17.3-.56.61-2.31.92-3.18.31-.88.61-1.76.92-2.08.31-.32.61.21.92.15.3-.06.61-.22.9-.51.31-.29.61-.55.92-1.23.3-.69.59-2.35.9-2.88.3-.54.59-.57.89-.32.3.24.59,1.23.9,1.77.3.53.59,1,.89,1.43.3.43.59,1.52.89,1.16.29-.37.58-2.83.88-3.35.3-.52.59.46.88.21.3-.25.59-1.29.88-1.7.3-.42.59-.83.88-.79.3.04.58.64.88,1.02.29.38.57.43.87,1.27.29.84.58,3.41.87,3.77.29.36.57-.63.87-1.62.29-.99.57-3.57.86-4.31.29-.74.57.23.86-.13.29-.36.57-1.8.86-2.02.29-.23.57.55.86.68.29.12.56-.35.84.04.29.39.57,1.92.84,2.31.29.38.57.36.84,0,.29-.37.57-1.96.84-2.2.29-.25.56.4.84.72.27.32.55.99.83,1.23.27.23.55-.14.83.18.27.32.55,1.78.82,1.74.26-.03.57-.73.83-1.95.27-1.3.55-4.84.82-5.87.23-.82.61-.23.82-.32.27-.11.55-.38.82-.33.27.05.55.68.82.63.26-.04.53-.94.81-.9.27.05.53.72.81,1.18.27.46.53,1.88.81,1.58.27-.3.54-2.68.81-3.38.26-.71.53-1.25.8-.86.27.39.53,2.83.8,3.18.27.35.53-.44.8-1.07.27-.63.53-2.21.8-2.69.26-.49.52-.35.8-.24.26.11.52.43.78.9s.52,1.79.78,1.89c.26.09.52-1,.78-1.32.18-.21.61.26.78-.6.26-1.3.51-6.43.77-7.17.26-.74.52,1.65.77,2.74.26,1.08.52,3.21.78,3.79.25.57.51.17.76-.34.26-.52.52-2.5.77-2.76.26-.26.51.82.77,1.19.25.37.5.82.76,1.01.25.19.51.22.76.14.25-.08.51-.87.76-.62.25.25.5,1.4.75,2.12.26.72.51,2.14.76,2.2.25.06.5-1.08.75-1.82.25-.74.5-2.28.75-2.6.25-.33.5.39.75.64.25.25.5.68.75.84.25.16.49.09.74.09.25.01.5-.3.75-.03.24.27.49,2.14.74,1.68.24-.46.49-3.61.74-4.43.21-.73.51-.04.73-.5.25-.51.49-1.73.74-2.58.24-.85.49-1.98.73-2.52.25-.55.49-.86.74-.74.24.12.48.85.73,1.46.24.61.48,1.47.71,2.2.25.73.49,2.19.72,2.16.24-.03.48-1.66.71-2.34.25-.69.49-1.16.72-1.79.24-.62.48-1.81.71-1.94.24-.13.48.4.71,1.14.24.73.48,3.22.71,3.25.23.03.46-2.36.7-3.04.24-.69.48-1.24.71-1.06.23.17.46,1.51.7,2.1.23.58.46,1.18.7,1.4.23.22.46.41.7-.07.23-.48.46-1.66.69-2.81.24-1.15.48-3.29.7-4.09.21-.72.49-.85.69-.68.24.19.46,1.28.7,1.79.23.51.45.91.69,1.27.23.35.45.85.69.85.23,0,.45-.64.68-.86.24-.22.46-.32.69-.46.23-.15.45-.12.68-.4.23-.28.46-1.3.69-1.28.23.02.45,1.5.68,1.43.23-.07.45-1.38.68-1.85.23-.47.44-1.06.67-.95.23.1.45,1.11.68,1.58.23.47.45.72.67,1.23.23.51.45,1.96.68,1.82.23-.13.44-1.35.67-2.64.23-1.29.44-4.8.67-5.11.05-.08.61,1.44.67,3.22"/></g></g><g id="uuid-55bfa246-40a9-4820-8053-3a75667e8488"><path class="uuid-fceeed30-c8e8-434b-b2b8-9f7876b8ff74" d="M1404,92.66c-.06-1.78-.62-3.3-.67-3.22-.23.32-.44,3.82-.67,5.11-.23,1.29-.44,2.5-.67,2.64-.23.13-.45-1.32-.68-1.82-.21-.51-.44-.76-.67-1.23-.23-.47-.45-1.47-.68-1.58-.23-.1-.44.49-.67.95-.23.47-.45,1.78-.68,1.85-.23.07-.45-1.4-.68-1.43-.23-.02-.46,1-.69,1.28-.23.28-.45.25-.68.4-.23.14-.45.24-.69.46-.23.22-.45.85-.68.86-.24,0-.46-.5-.69-.85-.24-.35-.46-.76-.69-1.27-.24-.51-.46-1.61-.7-1.79-.2-.17-.48-.05-.69.68-.23.79-.46,2.94-.7,4.09-.23,1.15-.46,2.33-.69,2.81-.24.48-.48.29-.7.07-.24-.23-.48-.82-.7-1.4-.24-.59-.48-1.93-.7-2.1-.24-.17-.48.38-.71,1.06-.24.68-.48,3.08-.7,3.04-.24-.04-.48-2.52-.71-3.25-.24-.73-.48-1.27-.71-1.14-.24.13-.48,1.32-.71,1.94-.24.62-.48,1.1-.72,1.79-.24.69-.48,2.31-.71,2.34-.24.03-.48-1.44-.72-2.16-.24-.73-.48-1.59-.71-2.2-.25-.61-.49-1.34-.73-1.46-.25-.12-.49.2-.74.74-.24.54-.49,1.67-.73,2.52-.25.85-.49,2.07-.74,2.58-.21.45-.51-.23-.73.5-.25.82-.5,3.97-.74,4.43-.25.46-.5-1.41-.74-1.68-.25-.28-.5.04-.75.03-.25,0-.49.06-.74-.09-.25-.16-.5-.59-.75-.84-.25-.25-.5-.97-.75-.64-.25.33-.5,1.86-.75,2.6-.25.74-.5,1.89-.75,1.82-.25-.06-.5-1.48-.76-2.2-.25-.72-.5-1.87-.75-2.12-.25-.25-.51.54-.76.62-.25.08-.51.05-.76-.14-.26-.19-.51-.65-.76-1.01-.26-.37-.51-1.45-.77-1.19-.25.26-.51,2.24-.77,2.76-.25.52-.51.92-.76.34-.26-.57-.52-2.7-.78-3.79-.25-1.09-.51-3.47-.77-2.74-.26.74-.51,5.88-.77,7.17-.18.86-.61.39-.78.6-.26.32-.52,1.41-.78,1.32-.26-.1-.52-1.43-.78-1.89-.26-.46-.52-.79-.78-.9-.27-.11-.53-.25-.8.24-.26.49-.52,2.07-.8,2.69-.26.63-.52,1.43-.8,1.07-.26-.35-.52-2.8-.8-3.18-.26-.39-.53.15-.8.86-.27.71-.54,3.08-.81,3.38-.27.3-.53-1.12-.81-1.58-.27-.46-.53-1.14-.81-1.18-.27-.05-.55.85-.81.9-.27.04-.55-.58-.82-.63-.27-.05-.55.22-.82.33-.21.09-.59-.51-.82.32-.27,1.03-.55,4.56-.82,5.87-.26,1.22-.57,1.92-.83,1.95-.27.04-.55-1.42-.82-1.74-.29-.32-.56.05-.83-.18-.29-.24-.56-.91-.83-1.23-.29-.32-.56-.97-.84-.72-.27.25-.56,1.83-.84,2.2-.27.37-.56.39-.84,0-.27-.38-.56-1.92-.84-2.31-.29-.39-.56.08-.84-.04s-.57-.9-.86-.68c-.29.22-.57,1.66-.86,2.02-.29.36-.57-.61-.86.13-.29.74-.57,3.32-.86,4.31-.3.99-.58,1.98-.87,1.62-.29-.36-.58-2.93-.87-3.77-.3-.84-.58-.89-.87-1.27-.3-.38-.58-.99-.88-1.02-.29-.04-.58.37-.88.79-.29.41-.58,1.45-.88,1.7-.29.25-.58-.74-.88-.21-.3.52-.59,2.99-.88,3.35-.3.37-.59-.73-.89-1.16-.3-.43-.59-.9-.89-1.43-.31-.53-.61-1.53-.9-1.77-.3-.24-.59-.21-.89.32-.31.53-.61,2.19-.9,2.88-.31.69-.61.94-.92,1.23-.3.29-.61.45-.9.51-.31.06-.61-.47-.92-.15-.31.32-.61,1.21-.92,2.08-.31.88-.62,2.62-.92,3.18-.31.56-.62.18-.93.17-.31-.01-.62.12-.93-.24-.31-.36-.62-1.5-.93-1.93-.32-.43-.63-.51-.94-.66-.31-.16-.62-.18-.94-.27-.31-.1-.63-.36-.94-.29-.31.07-.63.13-.94.68-.32.56-.64,1.8-.95,2.67-.32.88-.64,2.01-.95,2.59-.32.57-.64.24-.96.85-.32.6-.64,2.6-.96,2.75-.32.15-.64-1.72-.96-1.83s-.64,1-.96,1.17c-.32.17-.64-.71-.97-.15-.32.55-.64,2.32-.98,3.48-.32,1.16-.65,3.05-.97,3.49-.33.43-.65-.15-.99-.89-.32-.74-.65-2.83-.99-3.53-.33-.71-.65-1.09-.99-.71s-.67,2.99-1,2.99-.67-2.46-1-2.99c-.33-.54-.67-.37-1-.24-.34.13-.68,1.33-1.01,1.04-.33-.29-.68-2.68-1.01-2.78-.34-.1-.68,1.39-1.02,2.16-.33.77-.68,1.69-1.01,2.47-.34.78-.69,1.99-1.03,2.2-.33.21-.68-.83-1.02-.91s-.69.83-1.03.4c-.34-.43-.69-2.97-1.03-3-.36-.03-.7,2.25-1.05,2.8s-.7.56-1.05.54c-.36-.02-.7-.42-1.05-.66-.36-.23-.71-.83-1.06-.73-.36.1-.71.76-1.06,1.31-.36.56-.71,1.8-1.07,2.03-.36.23-.71-1.35-1.07-.66-.36.7-.71,4.27-1.07,4.84-.37.57-.73-1.14-1.08-1.44-.37-.3-.72-.1-1.08-.37-.37-.28-.73-1.25-1.09-1.28-.36-.03-.73.26-1.09,1.1-.37.84-.72,3.75-1.09,3.94-.37.18-.74-3.03-1.1-2.85-.37.18-.74,2.87-1.11,3.93-.38,1.06-.75,2.57-1.12,2.44-.37-.13-.75-2.44-1.12-3.21-.38-.77-.75-1.37-1.13-1.43-.37-.07-.75.76-1.13,1.03-.37.27-.75.51-1.13.63-.38.12-.76.4-1.14.11-.38-.29-.76-1.54-1.14-1.84-.38-.3-.77.1-1.15.05-.38-.06-.77-.93-1.15-.38-.39.55-.77,3.04-1.17,3.69-.39.65-.77-.17-1.16.18-.39.34-.78,2.17-1.18,1.87-.39-.3-.78-3.63-1.18-3.69-.39-.06-.78,2.32-1.18,3.32-.4,1-.8,2.64-1.2,2.66-.39.02-.8-1.8-1.19-2.56-.4-.76-.8-2.49-1.2-2.02-.4.47-.81,3.99-1.21,4.86-.4.86-.81.27-1.21.33-.4.06-.81.34-1.21.02-.42-.32-.82-1.3-1.24-1.94-.4-.64-.82-1.51-1.22-1.9-.42-.4-.83-1.18-1.24-.47-.42.71-.83,3.59-1.25,4.72-.42,1.13-.83,2.02-1.25,2.08-.42.05-.84-1.35-1.26-1.74-.42-.4-.84-.18-1.26-.63-.43-.45-.86-1.99-1.27-2.08-.43-.09-.86.63-1.28,1.54-.43.91-.86,2.96-1.28,3.9-.43.94-.86,1.57-1.28,1.75-.44.19-.87-.43-1.3-.63-.44-.2-.88-.68-1.31-.57-.44.11-.88.75-1.32,1.22-.43.47-.87.86-1.31,1.59-.45.72-.89,2.63-1.33,2.76-.44.12-.89-1.43-1.33-2.01-.45-.59-.89-1.47-1.34-1.5-.45-.04-.89.93-1.34,1.28-.45.35-.9.33-1.35.82-.46.49-.92,1.47-1.37,2.13-.45.65-.92,1.84-1.37,1.8-.46-.04-.93-1.64-1.38-2.02-.46-.38-.93-.67-1.39-.25-.46.41-.93,1.83-1.39,2.74-.46.9-.94,2.31-1.4,2.68-.48.37-.94-.53-1.41-.45-.48.08-.94.15-1.41.94-.48.8-.95,3.15-1.43,3.84-.48.69-.96.82-1.44.3-.48-.52-.96-3.37-1.44-3.43-.49-.05-.97,2.27-1.46,3.09-.49.82-.96,1.46-1.46,1.84-.49.37-.97.67-1.46.4-.5-.27-.99-1.62-1.49-1.99-.49-.38-.99-.47-1.49-.28-.5.2-1,.88-1.5,1.44-.5.55-1,1.75-1.51,1.9-.5.15-1-.92-1.51-1.01-.51-.1-1.01-.21-1.52.45-.51.66-1.02,3.04-1.54,3.49-.51.46-1.02-.38-1.53-.76-.52-.39-1.05-1.94-1.56-1.57-.52.36-1.05,2.49-1.57,3.76-.52,1.27-1.05,3.47-1.57,3.84-.53.37-1.06-1.4-1.59-1.62-.52-.22-1.06-.37-1.59.3-.54.67-1.07,3.21-1.6,3.74-.53.52-1.08-.31-1.62-.59-.53-.28-1.08-.69-1.63-1.1-.55-.41-1.09-.8-1.64-1.38-.55-.57-1.09-2.07-1.64-2.06-.56.01-1.11,1.33-1.66,2.13-.56.79-1.12,2.26-1.68,2.64-.56.38-1.12-.8-1.69-.39-.56.41-1.12,2.19-1.69,2.88-.57.69-1.14.8-1.71,1.25-.57.45-1.14.97-1.71,1.46-.58.49-1.15,1.39-1.73,1.47-.58.08-1.17-.97-1.75-.99-.58-.02-1.17.73-1.76.88-.58.16-1.18-.24-1.76.05-.59.29-1.19,1.77-1.78,1.7-.61-.08-1.2-2.83-1.79-2.16-.61.66-1.21,4.77-1.82,6.15-.61,1.37-1.21,2.03-1.82,2.08-.61.05-1.22-1.2-1.83-1.76-.62-.57-1.24-1.87-1.85-1.62-.62.26-1.24,2.97-1.87,3.14-.62.18-1.25-1.81-1.88-2.07-.63-.27-1.26.08-1.89.46-.64.38-1.27,1.21-1.91,1.83-.64.63-1.27,1.25-1.93,1.94-.64.69-1.28,2.03-1.94,2.2-.64.17-1.3-.84-1.95-1.15-.65-.31-1.31-.93-1.97-.7-.65.23-1.32,1.02-1.98,2.1-.67,1.08-1.33,3.73-2,4.37-.68.64-1.34-.07-2.02-.52-.68-.45-1.35-2.19-2.03-2.18-.69.02-1.37,1.37-2.06,2.29-.69.92-1.38,2.68-2.07,3.24-.7.56-1.39.33-2.09.13-.7-.2-1.4-1.65-2.1-1.35-.71.3-1.41,2.5-2.13,3.17-.71.67-1.43,0-2.14.84-.73.82-1.44,3.46-2.16,4.11-.73.65-1.45.13-2.19-.23-.73-.36-1.46-1.99-2.2-1.91-.74.08-1.47,1.3-2.22,2.42-.75,1.12-1.49,3.76-2.25,4.28-.75.52-1.5-1.48-2.26-1.17-.76.31-1.52,2.99-2.28,3.02-.77.03-1.53-1.99-2.31-2.85-.77-.85-1.55-2.42-2.33-2.28-.78.13-1.57,2.46-2.35,3.11-.78.65-1.58.11-2.38.79-.78.68-1.59,2.41-2.39,3.28-.81.88-1.62,1.16-2.42,1.98-.81.82-1.63,2.84-2.45,2.95-.81.11-1.64-1.88-2.46-2.31-.83-.43-1.66-.34-2.5-.24-.84.09-1.68.55-2.52.8-.84.25-1.7-.01-2.56.73-.86.74-1.71,3.12-2.57,3.71-.87.59-1.74-.17-2.6-.19-.88-.02-1.75-.2-2.63.07-.89.27-1.77.57-2.66,1.55-.89.98-1.78,3.17-2.69,4.32-.9,1.14-1.81,1.8-2.72,2.54-.92.74-1.83,1.5-2.75,1.92-.93.42-1.85.54-2.78.6-.94.06-1.87-1.17-2.82-.25-.94.93-1.89,5.02-2.84,5.8-.95.78-1.91-.67-2.88-1.1-.97-.43-1.94-1.56-2.92-1.47-.97.09-1.95,1.36-2.95,2-.99.64-1.98,1.59-2.98,1.84-1,.24-2.01-.63-3.02-.37-1.01.26-2.03,1.51-3.05,1.92-1.03.41-2.07-.05-3.1.52-1.05.58-2.09,1.89-3.14,2.93-1.06,1.04-2.12,3.03-3.19,3.32-1.07.28-2.14-1.82-3.22-1.61-1.08.21-2.17,1.7-3.27,2.86-1.09,1.16-2.2,3.32-3.3,4.12-1.12.81-2.23.71-3.35.73-1.13.02-2.27-1.11-3.41-.59-1.14.51-2.29,2.7-3.45,3.68-1.16.97-2.33,2.14-3.51,2.18-1.17.04-2.35-2.05-3.54-1.94-1.2.11-2.4,1.71-3.61,2.61-1.2.9-2.42,1.9-3.65,2.8-1.24.89-2.47,2.08-3.72,2.57-1.25.49-2.51-.32-3.77.38-1.27.7-2.54,3.44-3.84,3.83-1.28.38-2.58-1.18-3.89-1.51-1.31-.33-2.63-1.12-3.96-.48-1.33.64-2.66,3.39-4.02,4.32-1.35.93-2.72.73-4.09,1.27-1.38.54-2.76.99-4.16,1.99-1.4,1-2.8,3.05-4.23,4.02-1.43.97-2.85,1.1-4.3,1.78-1.45.68-2.91,1.09-4.39,2.31-1.47,1.21-2.96,3.76-4.47,4.98-1.5,1.22-3.01,2.27-4.54,2.34s-3.08-1.77-4.64-1.9c-1.56-.13-3.14.35-4.72,1.12-1.59.77-3.2,2.4-4.83,3.49-1.62,1.08-3.26,2.86-4.91,3.03-1.66.16-3.33-2.31-5.02-2.05-1.69.26-3.4,2.77-5.12,3.6-1.72.84-3.47.62-5.23,1.41-1.77.8-3.55,1.82-5.35,3.39-1.81,1.57-3.62,4.14-5.47,6.04-1.84,1.91-3.71,4.38-5.6,5.4-1.88,1.02-3.79.59-5.72.7-1.94.12-3.89-.54-5.87,0-1.97.54-3.97,1.72-6,3.22-2.03,1.49-4.08,4.16-6.16,5.74-2.08,1.58-4.18,2.72-6.32,3.74-2.13,1.01-4.29,1.58-6.49,2.32-2.19.73-4.41,1.57-6.66,2.1-2.26.52-4.54,0-6.86,1.05-2.32,1.04-4.67,3.49-7.05,5.18-2.39,1.69-4.81,3.31-7.26,4.98-2.46,1.67-4.96,3.78-7.49,5.03-2.53,1.24-5.11,1.6-7.73,2.44-2.61.85-5.28,1.23-7.97,2.64-2.71,1.41-5.46,4.34-8.25,5.8-2.79,1.46-5.63,2.07-8.53,2.96-2.9.9-5.85,1.24-8.85,2.43-3,1.19-6.05,2.98-9.18,4.73-3.13,1.75-6.3,3.87-9.54,5.77-3.24,1.9-6.55,4.47-9.92,5.61-3.39,1.14-6.83.22-10.35,1.22-3.53.99-7.13,2.79-10.82,4.74-3.7,1.95-7.45,5.19-11.31,6.96-3.86,1.76-7.82,2.65-11.87,3.63s-8.2.53-12.48,2.24c-4.27,1.71-8.64,5.28-13.15,8.05-4.52,2.76-9.14,6.11-13.91,8.54-4.78,2.43-9.67,3.91-14.75,6.02-5.07,2.11-10.29,4.36-15.7,6.63-5.42,2.27-10.98,4.11-16.78,6.98-5.8,2.87-11.78,6.6-18.03,10.22-6.25,3.62-12.69,7.9-19.47,11.51-6.77,3.6-13.77,7.28-21.17,10.12-7.39,2.83-15.05,3.52-23.19,6.9-8.13,3.38-16.58,8.85-25.62,13.37-9.06,4.52-18.47,9.12-28.66,13.75-10.19,4.63-20.82,8.84-32.48,14.03-11.67,5.18-23.85,10.27-37.5,17.07-13.64,6.8-27.92,15.4-44.35,23.76-8.98,4.56-18.18,9.22-28.04,14.04"/></g><g id="uuid-8f46e650-0946-4c9d-b548-f2a417570b98"><line class="uuid-f29205f4-a6d3-4114-95e0-6e8471dbf4d3" x1="301.47" y1="6.88" x2="301.47" y2="583.2"/><line class="uuid-f29205f4-a6d3-4114-95e0-6e8471dbf4d3" x1="397.94" y1="6.88" x2="397.94" y2="583.2"/><line class="uuid-f29205f4-a6d3-4114-95e0-6e8471dbf4d3" x1="466.85" y1="6.88" x2="466.85" y2="583.2"/><line class="uuid-f29205f4-a6d3-4114-95e0-6e8471dbf4d3" x1="519.22" y1="6.88" x2="519.22" y2="583.2"/><line class="uuid-f29205f4-a6d3-4114-95e0-6e8471dbf4d3" x1="563.32" y1="6.88" x2="563.32" y2="583.2"/><line class="uuid-f29205f4-a6d3-4114-95e0-6e8471dbf4d3" x1="601.91" y1="6.88" x2="601.91" y2="583.2"/><line class="uuid-f29205f4-a6d3-4114-95e0-6e8471dbf4d3" x1="632.23" y1="6.88" x2="632.23" y2="583.2"/><line class="uuid-f29205f4-a6d3-4114-95e0-6e8471dbf4d3" x1="659.79" y1="6.88" x2="659.79" y2="583.2"/><line class="uuid-83682010-3128-4f17-a457-c860b69c8f82" x1="687.35" y1="6.88" x2="687.35" y2="583.2"/><line class="uuid-f29205f4-a6d3-4114-95e0-6e8471dbf4d3" x1="852.73" y1="6.88" x2="852.73" y2="583.2"/><line class="uuid-f29205f4-a6d3-4114-95e0-6e8471dbf4d3" x1="949.21" y1="6.88" x2="949.21" y2="583.2"/><line class="uuid-f29205f4-a6d3-4114-95e0-6e8471dbf4d3" x1="1018.11" y1="6.88" x2="1018.11" y2="583.2"/><line class="uuid-f29205f4-a6d3-4114-95e0-6e8471dbf4d3" x1="1070.48" y1="6.88" x2="1070.48" y2="583.2"/><line class="uuid-f29205f4-a6d3-4114-95e0-6e8471dbf4d3" x1="1114.59" y1="6.88" x2="1114.59" y2="583.2"/><line class="uuid-f29205f4-a6d3-4114-95e0-6e8471dbf4d3" x1="1153.17" y1="6.88" x2="1153.17" y2="583.2"/><line class="uuid-f29205f4-a6d3-4114-95e0-6e8471dbf4d3" x1="1183.49" y1="6.88" x2="1183.49" y2="583.2"/><line class="uuid-f29205f4-a6d3-4114-95e0-6e8471dbf4d3" x1="1211.06" y1="6.88" x2="1211.06" y2="583.2"/><line class="uuid-83682010-3128-4f17-a457-c860b69c8f82" x1="1238.62" y1="6.88" x2="1238.62" y2="583.2"/><line class="uuid-797bc8b9-f289-4a3e-a957-22c1ae1c2490" x1="136.09" y1="150.96" x2="1404" y2="150.96"/><line class="uuid-797bc8b9-f289-4a3e-a957-22c1ae1c2490" x1="136.09" y1="295.04" x2="1404" y2="295.04"/><line class="uuid-797bc8b9-f289-4a3e-a957-22c1ae1c2490" x1="136.09" y1="439.12" x2="1404" y2="439.12"/><line class="uuid-ea013975-102b-4eb8-8452-85b5742a8601" x1="136.09" y1="223.05" x2="1404" y2="223.05"/><line class="uuid-ea013975-102b-4eb8-8452-85b5742a8601" x1="136.09" y1="367.13" x2="1404" y2="367.13"/><line class="uuid-ea013975-102b-4eb8-8452-85b5742a8601" x1="136.09" y1="511.21" x2="1404" y2="511.21"/><line class="uuid-ea013975-102b-4eb8-8452-85b5742a8601" x1="136.09" y1="78.92" x2="1404" y2="78.92"/><rect class="uuid-026daaa3-ca1c-4579-9cf4-d705008c59f1" x="136.09" y="6.88" width="1267.91" height="576.32"/></g><g id="uuid-b450770e-d642-425d-b511-a9fffdce82e7"><text class="uuid-9b04730b-5994-4d62-b7da-2cfdea99f88e" transform="translate(701.76 702)"><tspan x="0" y="0">f in Hz</tspan></text><text class="uuid-813cf79f-6b74-48a4-a9e6-c64f3aa7dd5b" transform="translate(109.98 635.57)"><tspan x="0" y="0">10</tspan></text><text class="uuid-813cf79f-6b74-48a4-a9e6-c64f3aa7dd5b" transform="translate(150.41 623.58) scale(.58)"><tspan x="0" y="0">2</tspan></text><text class="uuid-813cf79f-6b74-48a4-a9e6-c64f3aa7dd5b" transform="translate(661.25 635.57)"><tspan x="0" y="0">10</tspan></text><text class="uuid-813cf79f-6b74-48a4-a9e6-c64f3aa7dd5b" transform="translate(701.68 623.58) scale(.58)"><tspan x="0" y="0">3</tspan></text><text class="uuid-813cf79f-6b74-48a4-a9e6-c64f3aa7dd5b" transform="translate(1212.51 635.57)"><tspan x="0" y="0">10</tspan></text><text class="uuid-813cf79f-6b74-48a4-a9e6-c64f3aa7dd5b" transform="translate(1252.94 623.58) scale(.58)"><tspan x="0" y="0">4</tspan></text><text class="uuid-813cf79f-6b74-48a4-a9e6-c64f3aa7dd5b" transform="translate(31.48 419.5) rotate(-90)"><tspan x="0" y="0">amplitude in dB</tspan></text><text class="uuid-dbaf051b-ce64-40af-9693-cd1cdcd06ab7" transform="translate(65.73 233.57)"><tspan x="0" y="0">-12</tspan></text><text class="uuid-dbaf051b-ce64-40af-9693-cd1cdcd06ab7" transform="translate(95.87 89.44)"><tspan x="0" y="0">0</tspan></text><text class="uuid-dbaf051b-ce64-40af-9693-cd1cdcd06ab7" transform="translate(65.73 377.65)"><tspan x="0" y="0">-24</tspan></text><text class="uuid-dbaf051b-ce64-40af-9693-cd1cdcd06ab7" transform="translate(65.73 521.73)"><tspan x="0" y="0">-36</tspan></text></g></svg>