<?xml version="1.0" encoding="UTF-8"?><svg xmlns="http://www.w3.org/2000/svg" viewBox="0 0 1908 532.8"><defs><style>.uuid-35aeef12-7987-40b8-9ef1-e6343c302c9e{stroke-width:1.42px;}.uuid-35aeef12-7987-40b8-9ef1-e6343c302c9e,.uuid-696b89d7-91a5-402e-be3d-77ffceb17f25,.uuid-1acd6719-dc12-4239-94cf-781fae8b4fbd,.uuid-71fd94bd-9629-442e-bb1e-3abc763f8927,.uuid-2c41be9c-3a5e-4677-9180-0b0661d72360,.uuid-b547d4ec-681a-4782-aaaf-21dc441b89fb,.uuid-6c6f5161-1cdf-4032-ba57-e4c339e1b44a,.uuid-b5ec3e57-c833-4a8a-89b5-1816e7721f05,.uuid-c234a109-a043-4235-aede-7831f5338920{fill:none;}.uuid-35aeef12-7987-40b8-9ef1-e6343c302c9e,.uuid-696b89d7-91a5-402e-be3d-77ffceb17f25,.uuid-71fd94bd-9629-442e-bb1e-3abc763f8927,.uuid-6c6f5161-1cdf-4032-ba57-e4c339e1b44a,.uuid-b5ec3e57-c833-4a8a-89b5-1816e7721f05,.uuid-c234a109-a043-4235-aede-7831f5338920{stroke:#c9d1d9;stroke-miterlimit:10;}.uuid-35aeef12-7987-40b8-9ef1-e6343c302c9e,.uuid-696b89d7-91a5-402e-be3d-77ffceb17f25,.uuid-c234a109-a043-4235-aede-7831f5338920{opacity:.8;}.uuid-696b89d7-91a5-402e-be3d-77ffceb17f25{stroke-width:1.53px;}.uuid-1acd6719-dc12-4239-94cf-781fae8b4fbd{stroke-width:3.02px;}.uuid-1acd6719-dc12-4239-94cf-781fae8b4fbd,.uuid-2c41be9c-3a5e-4677-9180-0b0661d72360{stroke:#307eef;stroke-linecap:round;stroke-linejoin:round;}.uuid-71fd94bd-9629-442e-bb1e-3abc763f8927{stroke-width:2.14px;}.uuid-2c41be9c-3a5e-4677-9180-0b0661d72360,.uuid-c234a109-a043-4235-aede-7831f5338920{stroke-width:2.83px;}.uuid-b547d4ec-681a-4782-aaaf-21dc441b89fb{stroke:rgba(201,209,217,.2);stroke-miterlimit:20;}.uuid-b547d4ec-681a-4782-aaaf-21dc441b89fb,.uuid-6c6f5161-1cdf-4032-ba57-e4c339e1b44a{stroke-width:1.98px;}.uuid-81d6ec5b-6dee-474a-b42f-bb9ad576c6a4{fill:#c5cdd5;}.uuid-81d6ec5b-6dee-474a-b42f-bb9ad576c6a4,.uuid-522b6a32-d964-4224-8c78-bb5ef4eb84de,.uuid-e78b5401-933c-4031-b9cb-c5b061e03c71{font-family:Roboto-Regular, Roboto;}.uuid-81d6ec5b-6dee-474a-b42f-bb9ad576c6a4,.uuid-e78b5401-933c-4031-b9cb-c5b061e03c71{font-size:36px;}.uuid-b5ec3e57-c833-4a8a-89b5-1816e7721f05{stroke-width:2.83px;}.uuid-522b6a32-d964-4224-8c78-bb5ef4eb84de{font-size:48px;}.uuid-522b6a32-d964-4224-8c78-bb5ef4eb84de,.uuid-e78b5401-933c-4031-b9cb-c5b061e03c71{fill:#c6ced6;}</style></defs><g id="uuid-faebbb6f-8e6c-43cd-a199-b63e0f9bdbd0"><path class="uuid-2c41be9c-3a5e-4677-9180-0b0661d72360" d="M115.25,177.14c.11-.14,1.07,1.54,1.19.95.39-2.04.79-9.22,1.19-13.2.39-3.98.79-8,1.18-10.65.4-2.64.8-2.62,1.19-5.24.4-2.64.79-11.87,1.19-10.58.39,1.29.79,17.89,1.19,18.33.39.44.79-13.73,1.18-15.69.4-1.96.8,2.19,1.19,3.96.37,1.66.82,3.31,1.19,6.65.39,3.54.79,10.02,1.19,14.59.39,4.57.79,9.53,1.18,12.83.4,3.29.8,7.9,1.19,6.95.4-.95.79-11.82,1.19-12.65.4-.83.79,5.71,1.19,7.67.39,1.97.79,5.24,1.18,4.12.4-1.11.8-8.61,1.19-10.79.22-1.18.98-1.53,1.19-2.26.28-.95.91-2.87,1.19-5.77.39-4.08.79-18.28,1.19-18.69.39-.4.79,14.05,1.18,16.25.28,1.55.91-3.18,1.19-3.03.33.17.86,2.12,1.19,4.28.39,2.58.79,10.47,1.19,11.24.39.76.79-8.07,1.18-6.66.4,1.41.8,12.26,1.19,15.12.15,1.09,1.04,1.46,1.19,2.07.39,1.62.79,9.29,1.19,7.65.39-1.65.79-17.36,1.18-17.51.4-.15.8,12.19,1.19,16.6.4,4.41.79,11.47,1.19,9.88.4-1.58.79-13.64,1.19-19.4.39-5.76.79-15.33,1.19-15.18.39.14.79,14.31,1.18,16.05.4,1.74.79-7.45,1.19-5.6.4,1.85.79,12.64,1.19,16.68.37,3.81.81,6.62,1.19,7.6.11.3,1.07-2.15,1.18-1.38.4,2.67.8,17.11,1.19,17.43.4.32.79-14.94,1.19-15.53.39-.59.79,10.49,1.19,12.01.38,1.48.8-4.1,1.18-2.9.4,1.24.8,8.52,1.19,10.31.09.41,1.1.3,1.19.46.24.4.95,1.78,1.19,3.61.39,3.06.79,12.19,1.19,14.73.06.43,1.12.69,1.18.5.35-.96.84-3.48,1.19-7,.4-3.96.79-14.65,1.19-16.77.38-2.03.81,3.69,1.19,4.04.39.37.79-1.95,1.18-1.82.4.13.8,2.22,1.19,2.59.36.33.83-.37,1.19-.37.17,0,1.02,0,1.19.39.39.92.79,5.27,1.18,5.18.4-.09.8-6.56,1.19-5.72.4.84.79,10.69,1.19,10.74.4.05.79-7.8,1.19-10.42.35-2.35.83-2.63,1.19-5.29.39-2.96.79-8.01,1.18-12.48.4-4.47.79-13.77,1.19-14.34.4-.57.79,8.67,1.19,10.9.23,1.27.96,2.82,1.19,2.47.39-.61.79-3.05,1.18-6.12.4-3.09.8-7.25,1.19-12.38.4-5.14.79-16.12,1.19-18.42.34-2.01.84,6.88,1.19,4.58.39-2.65.79-18.6,1.18-20.45.4-1.84.8,5.36,1.19,9.37.4,4.01.79,10.34,1.19,14.69.4,4.34.79,9.08,1.19,11.39.21,1.26.97,3.6,1.19,2.44.39-2.12.79-9.48,1.18-15.16.4-5.67.79-18.43,1.19-18.89.4-.46.79,14.12,1.19,16.13.39,2.01.79-3.6,1.19-4.06.39-.46.79,1.79,1.18,1.29.4-.5.8-5.02,1.19-4.29.4.72.79,5.26,1.19,8.65.39,3.39.79,11.9,1.19,11.67.39-.23.79-14.27,1.18-13.03.4,1.24.8,13.9,1.19,20.45.4,6.55.79,18.83,1.19,18.86.4.04.79-17.42,1.19-18.66.39-1.23.79,10.75,1.19,11.27.39.52.79-7.84,1.18-8.15.4-.31.79,4.43,1.19,6.29.4,1.87.79,6.26,1.19,4.89.39-1.37.79-8.81,1.19-13.14.39-4.32.79-11.17,1.18-12.79.33-1.34.86,4.66,1.19,3.09.4-1.89.79-12.11,1.19-14.41.07-.4,1.12.15,1.19.62.39,2.65.79,16.14,1.18,15.26.4-.89.8-18.62,1.19-20.59.37-1.84.82,4.37,1.19,8.75.4,4.7.79,13.09,1.19,19.5.39,6.4.79,17.5,1.19,18.93.39,1.42.79-7.84,1.18-10.38.38-2.44.81-6.35,1.19-4.85.4,1.55.79,12.19,1.19,14.18.23,1.17.95-2.72,1.19-2.26.34.69.84,3.48,1.18,6.99.4,3.99.8,14.35,1.19,16.95.1.68,1.09-.58,1.19-1.33.39-2.9.79-16.75,1.19-16.04.39.72.79,16.2,1.18,20.33.22,2.25.98,4.31,1.19,4.45.36.23.83-1.46,1.19-2.96.38-1.63.8-3.53,1.19-7.06.39-3.64.79-10.18,1.18-14.8.4-4.62.8-7.35,1.19-12.94.4-5.6.79-14.25,1.19-20.64.4-6.38.79-18.18,1.19-17.67.39.5.79,19.38,1.19,20.68.39,1.3.79-11.81,1.18-12.88.4-1.07.8,3.38,1.19,6.43.4,3.06.79,10.44,1.19,11.91.39,1.48.79-2.85,1.19-3.08.13-.08,1.05.78,1.18,1.69.4,2.67.8,12.9,1.19,14.32.4,1.42.79-5.81,1.19-5.81s.79,5.18,1.19,5.81c.15.25,1.03-3.15,1.18-2.06.4,2.73.8,11.96,1.19,18.43.4,6.47.79,19.81,1.19,20.39.4.59.79-11.32,1.19-16.88.39-5.57.79-12.22,1.19-16.51.39-4.3.79-10.61,1.18-9.25.4,1.37.79,13.28,1.19,17.44.36,3.76.83,7.96,1.19,7.51.39-.51.79-8.03,1.19-10.56.36-2.33.82-4.6,1.18-4.63.4-.04.8,5.01,1.19,4.43.4-.58.79-7.65,1.19-7.91.39-.25.79,4.56,1.19,6.37.23,1.07.95,2.22,1.18,4.47.4,3.8.8,14.49,1.19,18.32.24,2.34.95,6.09,1.19,4.64.4-2.36.79-15.35,1.19-18.81.12-1.04,1.07-2.38,1.19-1.96.39,1.37.79,7.65,1.18,10.18.39,2.49.8,4.52,1.19,4.96.2.22.99-3.48,1.19-2.29.39,2.38.79,11.77,1.19,16.56.39,4.78.79,7.28,1.18,12.15.4,4.88.8,14.23,1.19,17.11.05.37,1.14.26,1.19.22.39-.34.79-2.41,1.19-2.27.24.09.94,4.72,1.18,3.13.4-2.6.8-14.26,1.19-18.71.36-4.01.83-7.91,1.19-7.99.4-.1.79,8.03,1.19,7.41.39-.63.79-12.31,1.19-11.16.39,1.16.79,17.28,1.18,18.11.4.82.79-12.76,1.19-13.16.4-.4.79,9.5,1.19,10.76.25.82.93-4.8,1.19-3.18.39,2.51.79,16.57,1.18,18.23.4,1.66.8-7.06,1.19-8.25.1-.28,1.09.45,1.19,1.1.39,2.71.79,13.47,1.19,15.17.39,1.69.79-3.89,1.18-4.99.31-.85.88-1.87,1.19-1.59.2.18.99,1.84,1.19,3.74.4,3.86.79,14.74,1.19,19.39.36,4.25.82,4.86,1.19,8.48.39,3.96.79,15.07,1.18,15.3.4.23.79-8.19,1.19-13.93.4-5.74.79-18.91,1.19-20.54.39-1.62.79,11.69,1.19,10.82.39-.86.79-11.82,1.18-16.02.4-4.19.8-5.11,1.19-9.15.4-4.03.79-12.57,1.19-15.06.06-.36,1.13-.2,1.19.16.39,2.48.79,13.08,1.18,14.74.33,1.38.86-2.36,1.19-4.76.4-2.9.79-8.18,1.19-12.63.4-4.46.79-12.08,1.19-14.08.21-1.1.97,1.04,1.19,2.08.39,1.9.79,8.03,1.18,9.33.21.68.98-2.45,1.19-1.59.4,1.62.79,12.68,1.19,11.35.39-1.33.79-14.85,1.19-19.33.33-3.79.85-4.49,1.18-7.55.4-3.63.79-8.62,1.19-14.21.4-5.59.79-13.77,1.19-19.34.39-5.57.79-13.32,1.19-14.09.39-.76.79,10.27,1.18,9.52.4-.75.8-11.13,1.19-14.02.23-1.7.96-2.78,1.19-3.34.4-.94.79-3.14,1.19-2.32.39.82.79,8.8,1.18,7.23.4-1.56.8-15.78,1.19-16.62.4-.83.79,10.49,1.19,11.63.29.85.89-2.37,1.19-4.78.39-3.25.79-15.52,1.19-14.7.39.82.79,18.99,1.18,19.63.4.64.8-13.6,1.19-15.79.25-1.37.94,1.82,1.19,2.66.39,1.33.79,2.74,1.19,5.34.39,2.61.79,5.44,1.18,10.3.4,4.86.8,19.17,1.19,18.88.4-.3.79-15.49,1.19-20.66.4-5.17.79-10.28,1.19-10.37.39-.09.79,10.04,1.18,9.82.4-.22.8-12.5,1.19-11.11.4,1.38.79,16.28,1.19,19.39.06.51,1.12-1.04,1.19-.73.39,1.89.79,12.96,1.19,12.07.39-.9.79-12.51,1.18-17.46.4-4.96.8-12.47,1.19-12.28.4.18.79,13.45,1.19,13.38.39-.08.79-8.41,1.19-13.84.39-5.42.79-13.24,1.18-18.69.4-5.46.8-9.7,1.19-14.07.4-4.36.79-6.93,1.19-12.1.39-5.17.79-16.8,1.19-18.91.39-2.1.79,6.07,1.18,6.29.4.22.8-4.72,1.19-4.95.29-.16.9,1.78,1.19,3.61.4,2.53.79,12.55,1.19,11.56.39-.99.79-17.33,1.19-17.5.39-.17.79,13.6,1.18,16.46.07.49,1.12.96,1.19.7.4-1.53.79-8.14,1.19-9.89.1-.47,1.08-.79,1.19-.65.39.55.79,3.23,1.18,3.94.12.2,1.08-.08,1.19.3.33,1.09.86,3.79,1.19,7.6.39,4.61.79,13.48,1.19,20.08.39,6.59.79,13.28,1.18,19.52.4,6.23.8,13.08,1.19,17.9.4,4.82.79,6.78,1.19,11.04.4,4.26.79,14.87,1.19,14.52.39-.36.79-13.46,1.19-16.64.15-1.27,1.03-1.8,1.18-2.44.4-1.62.79-7.15,1.19-7.26.32-.09.87,3.29,1.19,6.61.39,4.15.79,14.92,1.19,18.27.11.97,1.07,1.24,1.18,1.82.4,1.97.8,5.17,1.19,10.04.4,4.86.79,12.98,1.19,19.18.39,6.2.79,15.89,1.19,18.01.39,2.11.79-7.36,1.18-5.33.4,2.04.8,15.78,1.19,17.56.4,1.78.79-7.67,1.19-6.9.4.77.79,8.72,1.19,11.52.37,2.66.81,4.19,1.19,5.29.22.65.96.74,1.18,1.62.4,1.55.79,7.13,1.19,7.68.4.55.79-3.64,1.19-4.37.12-.22,1.07.34,1.19,0,.39-1.16.79-5.79,1.18-6.92.13-.36,1.07-.17,1.19.17.4,1.05.79,7.04,1.19,6.11.39-.92.79-6.76,1.19-11.67.39-4.9.79-14.16,1.18-17.75.21-1.91.98-4.35,1.19-3.77.4,1.1.79,5.9,1.19,10.33.4,4.43.79,14.39,1.19,16.22.3,1.42.88-2.58,1.18-5.18.4-3.37.8-14.78,1.19-15.04.4-.27.79,11.27,1.19,13.43.07.38,1.12-.92,1.19-.5.39,2.41.79,12.6,1.19,14.94.08.48,1.1-.33,1.18-.91.4-2.8.8-10.75,1.19-15.89.4-5.15.79-14.76,1.19-14.99.39-.23.79,9.86,1.19,13.59.39,3.73.79,7.15,1.18,8.81.09.36,1.11,1.8,1.19,1.13.4-3.09.79-19.58,1.19-19.69.4-.12.79,15.23,1.19,18.97.18,1.77,1,4.17,1.19,3.48.39-1.48.79-13.35,1.18-12.32.4,1.04.79,17.76,1.19,18.56.4.8.79-9.26,1.19-13.77.39-4.51.79-11.54,1.19-13.28.3-1.36.87,4.32,1.18,2.86.4-1.87.79-8.85,1.19-14.11.4-5.25.79-15.82,1.19-17.41.39-1.59.79,7.84,1.19,7.88.39.03.79-4.76,1.18-7.68.4-2.91.8-4.93,1.19-9.87.4-4.96.79-15.07,1.19-19.91.37-4.57.81-4.81,1.19-9.12.39-4.56.79-13.88,1.18-18.24.37-3.98.83-4.86,1.19-7.93.4-3.37.79-6.97,1.19-12.3s.79-16.45,1.19-19.7c.04-.36,1.14.1,1.19.19.39.76.79,3.24,1.18,4.41.4,1.16.79,1.54,1.19,2.57.2.51.99,1.77,1.19,3.61.39,3.72.79,14.59,1.19,18.7.28,2.99.9,5.63,1.18,5.95.4.44.8-4.78,1.19-3.31.4,1.47.79,9.57,1.19,12.13.25,1.64.93,3.39,1.19,3.21.39-.3.79-3.63,1.18-4.96.37-1.23.83-1.5,1.19-3.05.4-1.68.79-5.51,1.19-7.06.3-1.16.89-1.76,1.19-2.23.14-.23,1.05-2.44,1.19-1.58.39,2.45.79,12.16,1.18,16.27.39,4.04.8,4.18,1.19,8.37.4,4.26.79,12.58,1.19,17.19.39,4.61.79,5.52,1.19,10.46.39,4.95.79,17.74,1.18,19.25.4,1.5.8-7.05,1.19-10.2.4-3.16.79-6.79,1.19-8.72.3-1.46.89-3.01,1.19-2.87.39.19.79,5.39,1.18,3.99.4-1.39.8-7.68,1.19-12.35.4-4.67.79-13.24,1.19-15.64.12-.73,1.07,1.77,1.19,1.29.39-1.59.79-12.21,1.19-10.81.39,1.4.79,16.63,1.18,19.21.29,1.88.9-5.23,1.19-3.73.4,2.06.79,16.37,1.19,16.08.39-.3.79-13.27,1.19-17.85.39-4.58.79-6.04,1.18-9.63.4-3.6.8-12.04,1.19-11.94.4.11.79,7.65,1.19,12.58.39,4.94.79,13.11,1.19,17.04.33,3.28.85,7.8,1.18,6.53.4-1.52.8-9.73,1.19-15.65.4-5.92.79-14.07,1.19-19.88.4-5.81.79-15.75,1.19-14.99.39.76.79,19.18,1.19,19.58.39.4.79-16.26,1.18-17.21.4-.95.79,10.97,1.19,11.51.4.53.79-4.88,1.19-8.29.39-3.41.79-11.71,1.19-12.18.39-.47.79,8.87,1.18,9.37.4.5.8-4.52,1.19-6.38.4-1.85.79-4.43,1.19-4.77.15-.13,1.04,1.32,1.19,2.73.39,3.8.79,19.69,1.18,20.1.4.4.8-11.59,1.19-17.67.4-6.08.79-17.34,1.19-18.79.4-1.45.79,5.52,1.19,10.07.39,4.56.79,16.79,1.19,17.26.39.47.79-11.1,1.18-14.45.34-2.83.86-6,1.19-5.63.4.43.79,7.61,1.19,8.19.39.59.79-2.66,1.19-4.69.36-1.87.82-3.72,1.18-7.47.4-4.05.8-12.54,1.19-16.81.4-4.27.79-10.27,1.19-8.81.39,1.46.79,17.75,1.19,17.58.39-.17.79-14.37,1.18-18.62.33-3.46.87-6.47,1.19-6.9.4-.53.79,4.28,1.19,3.7.33-.48.86-3.57,1.19-7.17.39-4.37.79-18.84,1.18-19.04.4-.2.8,11.43,1.19,17.82.4,6.39.79,18.94,1.19,20.51.4,1.57.79-6.69,1.19-11.08.39-4.39.79-11.53,1.19-15.25.37-3.55.81-7.54,1.18-7.08.4.48.79,5.18,1.19,9.97.4,4.8.79,13.05,1.19,18.82.39,5.76.79,11.38,1.19,15.77.39,4.39.79,9.89,1.18,10.58.4.69.8-7.66,1.19-6.45.4,1.21.79,10.68,1.19,13.7.29,2.27.89,5.39,1.19,4.49.39-1.21.79-13.11,1.18-11.72.4,1.38.8,17.57,1.19,20,.38,2.32.81-2.71,1.19-5.45.4-2.86.79-12.58,1.19-11.7.39.89.79,12.86,1.19,17.05.38,4.05.8,8.1,1.18,8.08.4-.02.79-10.08,1.19-8.19.4,1.89.79,14,1.19,19.53.39,5.53.79,13.19,1.19,13.66.39.47.79-8.23,1.18-10.82.24-1.56.95-2.35,1.19-4.73.4-3.98.79-18.59,1.19-19.13.4-.55.79,15.64,1.19,15.86.39.23.79-8.98,1.18-14.52.4-5.53.8-18.6,1.19-18.68.4-.08.79,17.61,1.19,18.19.4.58.79-10.93,1.19-14.71.39-3.77.79-9.01,1.19-7.95.39,1.07.79,12.99,1.18,14.34.31,1.04.89-3.11,1.19-6.25.4-4.09.79-14.93,1.19-18.31.12-1.05,1.06-1.31,1.19-1.98.39-2.14.79-9.6,1.18-10.87.33-1.05.86,1.58,1.19,3.22.4,1.98.79,9.81,1.19,8.67.39-1.14.79-14.64,1.19-15.48.39-.84.79,5.65,1.18,10.42.4,4.77.8,16.45,1.19,18.22.4,1.76.79-6.99,1.19-7.64.26-.43.93,1.81,1.19,3.69.39,2.87.79,13.3,1.19,13.57.39.27.79-8.63,1.18-11.94.4-3.32.79-4.79,1.19-7.96.4-3.17.79-11.52,1.19-11.03.39.49.79,9.97,1.19,13.95.39,3.98.79,5.07,1.18,9.94.4,4.87.8,18.51,1.19,19.26.4.75.79-15.43,1.19-14.75.39.68.79,13.27,1.19,18.83.39,5.57.79,10.84,1.18,14.58.4,3.74.8,8.51,1.19,7.85.4-.66.79-12.54,1.19-11.8.4.74.79,11.19,1.19,16.25.39,5.07.79,13.11,1.19,14.12.39,1.01.79-7.41,1.18-8.05.4-.63.79,6.14,1.19,4.24.4-1.9.79-15,1.19-15.65.39-.65.79,10.85,1.19,11.75.39.9.79-7.37,1.18-6.33.4,1.04.8,8.26,1.19,12.55.4,4.29.79,11.56,1.19,13.19.33,1.35.86-5.12,1.19-3.39.39,2.08.79,11.57,1.18,15.88.4,4.32.8,10.09,1.19,10.01.4-.08.79-7.59,1.19-10.49.4-2.91.79-7.17,1.19-6.95.39.22.79,8.67,1.19,8.28.39-.39.79-6.27,1.18-10.59.4-4.32.79-14.53,1.19-15.32.4-.79.79,9.99,1.19,10.59.32.48.87-3.51,1.19-7.04.39-4.36.79-17.33,1.18-19.13.4-1.8.8,7.89,1.19,8.35.4.47.79-7.46,1.19-5.55.39,1.91.79,14.94,1.19,17.03.24,1.3.94-2.23,1.18-4.51.4-3.67.8-15.17,1.19-17.47.32-1.85.87,3,1.19,3.66.09.18,1.1.53,1.19,1.23.39,3.26.79,17.2,1.18,18.3.4,1.1.8-11.8,1.19-11.7.4.11.79,11.57,1.19,12.32.38.73.81-3.89,1.19-7.8.39-4.05.79-11.83,1.19-16.49.39-4.67.79-6.22,1.18-11.51.4-5.29.8-16.29,1.19-20.23.18-1.77,1.01-3.34,1.19-3.47.39-.31.79,1.73,1.19,1.59.39-.13.79-1.37,1.18-2.41.32-.83.87-1.87,1.19-3.78.4-2.38.79-10.74,1.19-10.52.4.21.79,11.43,1.19,11.83.39.39.79-9.96,1.18-9.47.4.49.8,12.26,1.19,12.43.4.17.79-7.74,1.19-11.43.4-3.7.79-8.58,1.19-10.74.21-1.17.97-2.86,1.19-2.24.39,1.16.79,5.96,1.18,9.19.4,3.22.8,5.74,1.19,10.17.4,4.42.79,14.63,1.19,16.36.39,1.72.79-4.23,1.19-6,.28-1.27.9-2.28,1.18-4.59.4-3.22.8-12.26,1.19-14.7.06-.36,1.13-.07,1.19.07.39.94.79,4.06,1.19,5.56.3,1.16.88,1.68,1.18,3.42.4,2.24.8,5.84,1.19,10.02.4,4.19.79,13.39,1.19,15.13.4,1.74.79-2.63,1.19-4.68.39-2.05.79-5.95,1.19-7.62.29-1.24.89-3.45,1.18-2.4.4,1.43.79,8.4,1.19,10.95.23,1.47.96,2.16,1.19,4.37.39,3.85.79,18.32,1.19,18.75.39.43.79-11.76,1.18-16.18.4-4.43.8-9.24,1.19-10.37.32-.92.87,1.75,1.19,3.54.39,2.2.79,7.96,1.19,9.7.11.51,1.07.81,1.18.75.16-.08,1.04-.92,1.19-1.96.4-2.64.79-10.68,1.19-13.92.34-2.79.85-3.21,1.19-5.56.39-2.73.79-6.83,1.19-10.85.39-4.02.79-10.66,1.18-13.25.18-1.17,1.01-2.63,1.19-2.26.4.83.79,5.13,1.19,7.21.25,1.33.93,2.62,1.19,5.29.39,4.18.79,19.85,1.18,19.81.4-.04.8-17.32,1.19-20.05.27-1.87.92,2.4,1.19,3.69.39,1.87.79,7.61,1.19,7.56.39-.05.79-7.97,1.18-7.87.4.1.8,9.01,1.19,8.5.4-.52.79-6.43,1.19-11.57.4-5.14.79-15.73,1.19-19.28.12-1.06,1.07-2.52,1.19-2,.39,1.77.79,11.93,1.18,12.61.4.69.79-6.59,1.19-8.48.19-.91,1-4.29,1.19-2.84.39,3.03.79,18.75,1.19,21.01.39,2.26.79-6.22,1.18-7.44.12-.36,1.08,0,1.19.11.4.41.79,3.27,1.19,2.37.39-.89.79-4.64,1.19-7.76.39-3.11.79-10.32,1.18-10.9.4-.58.8,5.58,1.19,7.41.39,1.8.8,2.97,1.19,3.57.06.09,1.13.44,1.19.09.39-2.44.79-12.28,1.19-14.73.05-.35,1.13.04,1.18,0,.1-.05,1.09-.54,1.19-1.26.4-2.85.79-15.13,1.19-15.85.39-.72.79,9.05,1.19,11.54.27,1.74.91,3.44,1.18,3.43.4-.02.8-2.21,1.19-3.55.4-1.34.79-6.72,1.19-4.5.39,2.22.79,14.54,1.19,17.81.11.95,1.07,1.43,1.18,1.78.27.8.92,2.66,1.19,5.36.4,3.99.79,18.29,1.19,18.62.4.33.79-11.47,1.19-16.64.39-5.17.79-9.69,1.18-14.37.4-4.68.8-8.26,1.19-13.71.4-5.46.79-16.27,1.19-19.02.19-1.31,1,3.27,1.19,2.53.39-1.54.79-9.94,1.19-11.78.1-.51,1.07,1.16,1.18.74.4-1.53.8-8.15,1.19-9.89.1-.45,1.09-.63,1.19-.59.13.05,1.05.68,1.19,1.51.39,2.45.79,7.5,1.18,13.21.4,5.71.8,17.09,1.19,21.07.15,1.44,1.05,2.22,1.19,2.8.4,1.6.79,8.09,1.19,6.82.39-1.28.79-13.05,1.18-14.47.4-1.43.8,5.22,1.19,5.91.19.32,1.01-.83,1.19-1.78.4-2.05.79-12.08,1.19-10.52.39,1.56.79,18.27,1.19,19.87.39,1.6.79-5.29,1.18-10.29.4-4.99.8-18.15,1.19-19.66.4-1.51.79,8.02,1.19,10.58.37,2.39.82,5.3,1.19,4.76.39-.57.79-4.12,1.18-8.25.4-4.19.8-15.99,1.19-16.89.4-.9.79,10.2,1.19,11.47.37,1.18.82-5.81,1.19-3.86.39,2.09.79,16.93,1.18,16.37.4-.56.8-16.56,1.19-19.71.07-.53,1.12.55,1.19.79.4,1.46.79,6.48,1.19,7.99.16.63,1.02,1.08,1.19,1.07.15-.01,1.03-.57,1.18-1.3.4-1.87.79-6.47,1.19-9.94.4-3.47.79-8.15,1.19-10.86.39-2.71.79-8.06,1.19-5.42.39,2.64.79,15.01,1.18,21.28.4,6.27.8,16.93,1.19,16.32.4-.6.79-16.38,1.19-19.92.08-.75,1.1-2,1.19-1.32.39,3.22.79,16.79,1.18,20.64.13,1.27,1.06,3.27,1.19,2.44.4-2.49.79-13,1.19-17.4.4-4.4.79-6.47,1.19-9,.39-2.53.79-7.76,1.19-6.19.39,1.57.79,14.9,1.18,15.6.4.69.79-9.76,1.19-11.44.08-.35,1.11.58,1.19,1.33.39,3.58.79,15.57,1.19,20.18.32,3.74.86,5.7,1.18,7.46.4,2.17.8,5.98,1.19,5.55.4-.43.79-6.17,1.19-8.13.37-1.84.82-4.74,1.19-3.64.39,1.17.79,9.6,1.18,10.67.35.92.85-6.45,1.19-4.29.4,2.5.79,19.14,1.19,19.28.4.14.79-12.21,1.19-18.42.39-6.21.79-12.81,1.19-18.82.39-6.01.79-16.41,1.18-17.25.4-.84.79,13.44,1.19,12.22.4-1.22.79-19.66,1.19-19.54.39.12.79,17.89,1.19,20.26.39,2.37.79-3.02,1.18-6.04.4-3.01.8-8.49,1.19-12.04.4-3.55.79-8.06,1.19-9.24.26-.77.93,3.33,1.19,2.19.39-1.73.79-10.32,1.18-12.6.12-.65,1.08-1.41,1.19-1.1.4,1.07.79,5.14,1.19,7.52.4,2.38.79,3.71,1.19,6.78.39,3.07.79,10.1,1.18,11.63.33,1.27.86-1.78,1.19-2.46.18-.37,1.01-3.76,1.19-2.48.4,2.85.79,18.79,1.19,19.58.39.79.79-13.28,1.19-14.82.39-1.54.79,4.11,1.18,5.56.4,1.45.8,2.1,1.19,3.16.4,1.05.79,4,1.19,3.17.39-.83.79-8.22,1.19-8.15.37.07.81,4.29,1.18,8.59.4,4.52.8,16.93,1.19,18.55.4,1.62.79-10.82,1.19-8.82.4,2,.79,20.43,1.19,20.83.39.4.79-16.81,1.18-18.44.4-1.62.8,8.61,1.19,8.71.4.1.79-8.71,1.19-8.13.4.58.79,12.7,1.19,11.61.39-1.09.79-12.89,1.19-18.15.39-5.27.79-13.42,1.18-13.45.4-.03.8,8.13,1.19,13.27.4,5.15.79,13.22,1.19,17.61.39,4.38.79,9.59,1.19,8.75.39-.84.79-14.69,1.18-13.78.4.91.8,17.8,1.19,19.25.4,1.45.79-11.3,1.19-10.54.4.76.79,12.84,1.19,15.1.14.83,1.04-1.57,1.19-1.52.15.05,1.02,3.39,1.18,2.23.4-2.92.79-17.39,1.19-19.75.4-2.36.79,6.05,1.19,5.59.39-.46.79-6.48,1.19-8.35.31-1.47.87-4.26,1.18-2.87.4,1.76.79,9.88,1.19,13.44.4,3.56.79,5.23,1.19,7.93.39,2.7.79,7.2,1.19,8.26.19.52.99-.89,1.18-1.9.4-2.04.8-10.96,1.19-10.34.4.63.79,8.67,1.19,14.11.4,5.45.79,17.03,1.19,18.57.39,1.54.79-5.37,1.18-9.36.4-3.97.8-8.73,1.19-14.51.4-5.78.79-18.04,1.19-20.15s.79,4.54,1.19,7.47c.39,2.93.79,10.86,1.19,10.09.39-.76.79-15.1,1.18-14.68.4.43.79,13.88,1.19,17.23.18,1.48,1.01,3.92,1.19,2.88.39-2.38.79-11.88,1.19-17.13.39-5.24.79-8.65,1.18-14.34.4-5.69.8-18.56,1.19-19.82.4-1.26.79,12.21,1.19,12.27.39.06.79-6.66,1.19-11.93.39-5.27.79-18.01,1.18-19.67.4-1.66.8,5.44,1.19,9.71.4,4.27.79,15.02,1.19,15.88.4.87.79-5.72,1.19-10.69.39-4.97.79-19.31,1.19-19.14.39.17.79,13.97,1.18,20.18.4,6.2.79,12.17,1.19,17.03.4,4.86.79,12.07,1.19,12.1.39.03.79-13.34,1.19-11.94.39,1.4.79,19.24,1.18,20.35.4,1.11.8-12.88,1.19-13.68.4-.8.79,5.93,1.19,8.89.39,2.96.79,9.5,1.19,8.86.39-.65.79-13.36,1.18-12.74.4.62.8,12.82,1.19,16.46.3,2.73.89,3.61,1.19,5.42.4,2.42.79,6.13,1.19,9.08.39,2.95.79,7.38,1.19,8.6.23.72.95-1.33,1.18-1.27.12.04,1.07.9,1.19,1.92.4,3.44.79,14.89,1.19,18.72.22,2.12.97,5.13,1.19,4.19.39-1.71.79-8.82,1.18-14.42.4-5.6.8-16.37,1.19-19.22.16-1.12,1.03,2.18,1.19,2.14.39-.1.79-2.31,1.19-2.72"/></g><g id="uuid-61cb8d47-ac14-418a-a9c9-9a607dc4dc51"><path class="uuid-b547d4ec-681a-4782-aaaf-21dc441b89fb" d="M748.8,27.99v360"/><path class="uuid-b547d4ec-681a-4782-aaaf-21dc441b89fb" d="M590.4,27.99v360"/><path class="uuid-b547d4ec-681a-4782-aaaf-21dc441b89fb" d="M432,27.99v360"/><path class="uuid-b547d4ec-681a-4782-aaaf-21dc441b89fb" d="M273.6,27.99v360"/><path class="uuid-b547d4ec-681a-4782-aaaf-21dc441b89fb" d="M907.2,118H115.2"/><path class="uuid-b547d4ec-681a-4782-aaaf-21dc441b89fb" d="M907.2,207.99H115.2"/><path class="uuid-b547d4ec-681a-4782-aaaf-21dc441b89fb" d="M907.2,297.99H115.2"/><rect class="uuid-b5ec3e57-c833-4a8a-89b5-1816e7721f05" x="115.2" y="27.99" width="792" height="360"/><line class="uuid-696b89d7-91a5-402e-be3d-77ffceb17f25" x1="1183.3" y1="28" x2="1183.3" y2="388"/><line class="uuid-696b89d7-91a5-402e-be3d-77ffceb17f25" x1="1243.56" y1="28" x2="1243.56" y2="388"/><line class="uuid-696b89d7-91a5-402e-be3d-77ffceb17f25" x1="1286.61" y1="28" x2="1286.61" y2="388"/><line class="uuid-696b89d7-91a5-402e-be3d-77ffceb17f25" x1="1319.32" y1="28" x2="1319.32" y2="388"/><line class="uuid-696b89d7-91a5-402e-be3d-77ffceb17f25" x1="1346.87" y1="28" x2="1346.87" y2="388"/><line class="uuid-696b89d7-91a5-402e-be3d-77ffceb17f25" x1="1370.97" y1="28" x2="1370.97" y2="388"/><line class="uuid-696b89d7-91a5-402e-be3d-77ffceb17f25" x1="1389.91" y1="28" x2="1389.91" y2="388"/><line class="uuid-696b89d7-91a5-402e-be3d-77ffceb17f25" x1="1407.13" y1="28" x2="1407.13" y2="388"/><line class="uuid-71fd94bd-9629-442e-bb1e-3abc763f8927" x1="1424.35" y1="28" x2="1424.35" y2="388"/><line class="uuid-696b89d7-91a5-402e-be3d-77ffceb17f25" x1="1527.65" y1="28" x2="1527.65" y2="388"/><line class="uuid-696b89d7-91a5-402e-be3d-77ffceb17f25" x1="1587.91" y1="28" x2="1587.91" y2="388"/><line class="uuid-696b89d7-91a5-402e-be3d-77ffceb17f25" x1="1630.96" y1="28" x2="1630.96" y2="388"/><line class="uuid-696b89d7-91a5-402e-be3d-77ffceb17f25" x1="1663.67" y1="28" x2="1663.67" y2="388"/><line class="uuid-696b89d7-91a5-402e-be3d-77ffceb17f25" x1="1691.22" y1="28" x2="1691.22" y2="388"/><line class="uuid-696b89d7-91a5-402e-be3d-77ffceb17f25" x1="1715.32" y1="28" x2="1715.32" y2="388"/><line class="uuid-696b89d7-91a5-402e-be3d-77ffceb17f25" x1="1734.26" y1="28" x2="1734.26" y2="388"/><line class="uuid-696b89d7-91a5-402e-be3d-77ffceb17f25" x1="1751.48" y1="28" x2="1751.48" y2="388"/><line class="uuid-71fd94bd-9629-442e-bb1e-3abc763f8927" x1="1768.69" y1="28" x2="1768.69" y2="388"/><line class="uuid-6c6f5161-1cdf-4032-ba57-e4c339e1b44a" x1="1080" y1="117.99" x2="1872" y2="117.99"/><line class="uuid-6c6f5161-1cdf-4032-ba57-e4c339e1b44a" x1="1080" y1="207.99" x2="1872" y2="207.99"/><line class="uuid-6c6f5161-1cdf-4032-ba57-e4c339e1b44a" x1="1080" y1="297.99" x2="1872" y2="297.99"/><line class="uuid-35aeef12-7987-40b8-9ef1-e6343c302c9e" x1="1080" y1="163.03" x2="1872" y2="163.03"/><line class="uuid-35aeef12-7987-40b8-9ef1-e6343c302c9e" x1="1080" y1="253.03" x2="1872" y2="253.03"/><line class="uuid-35aeef12-7987-40b8-9ef1-e6343c302c9e" x1="1080" y1="343.03" x2="1872" y2="343.03"/><line class="uuid-35aeef12-7987-40b8-9ef1-e6343c302c9e" x1="1080" y1="72.99" x2="1872" y2="72.99"/><rect class="uuid-c234a109-a043-4235-aede-7831f5338920" x="1080" y="27.99" width="792" height="360"/><path class="uuid-1acd6719-dc12-4239-94cf-781fae8b4fbd" d="M1080,112.59c5.2,2.09,21.61,8.45,31.21,12.51,9.6,4.06,18.18,7.89,26.38,11.84,8.21,3.94,15.69,8.42,22.86,11.82,7.17,3.39,13.8,6.21,20.16,8.53,6.37,2.32,12.31,3.01,18.03,5.41,5.72,2.39,11.12,6.08,16.32,8.96,5.2,2.88,10.13,5.91,14.89,8.32,4.77,2.41,9.31,4.48,13.71,6.15,4.39,1.67,8.6,2.55,12.68,3.86,4.08,1.32,8,2.44,11.8,4.03,3.81,1.6,7.48,3.95,11.05,5.55,3.57,1.59,7.01,2.29,10.37,4.01,3.36,1.73,6.61,4.75,9.79,6.34,3.17,1.6,6.25,2.09,9.26,3.25,3.01,1.15,5.92,2.66,8.78,3.67,2.85,1.01,5.63,1.54,8.35,2.38s5.36,1.15,7.96,2.63c2.59,1.48,5.13,4.57,7.61,6.28,2.48,1.71,4.91,2.71,7.29,3.99,2.37,1.27,4.7,2.8,6.98,3.65,2.28.85,4.51.29,6.71,1.45,2.19,1.16,4.35,4.52,6.46,5.49,2.12.97,4.18-.11,6.23.31,2.03.43,4.04,1.52,6,2.25,1.97.73,3.9,1.71,5.81,2.13,1.9.42,3.77-.84,5.61.4,1.85,1.24,3.65,5.67,5.44,7.03,1.78,1.36,3.53.88,5.26,1.12,1.73.25,3.43-.1,5.12.35,1.68.45,3.33,1.37,4.96,2.36,1.63.99,3.24,2.6,4.83,3.6,1.58,1,3.15,1.69,4.69,2.42,1.54.72,3.06,1.57,4.56,1.93,1.5.37,2.98-.36,4.45.28,1.47.65,2.91,2.52,4.33,3.57,1.43,1.04,2.83,2.06,4.23,2.71,1.39.64,2.77.59,4.13,1.14,1.36.56,2.7,1.59,4.03,2.17,1.33.59,2.64.9,3.94,1.36,1.29.46,2.58.92,3.85,1.4,1.27.47,2.52,1.23,3.76,1.47,1.24.23,2.47-.09,3.68-.08,1.22,0,2.42-.31,3.61.11,1.19.41,2.36,1.52,3.53,2.38,1.17.86,2.32,1.94,3.46,2.73,1.14.79,2.27,1.44,3.39,2.01,1.12.58,2.22,1.07,3.32,1.48,1.1.41,2.18.36,3.26,1.01,1.08.65,2.14,2.1,3.2,2.88,1.05.79,2.1,1.51,3.14,1.84,1.04.34,2.07.06,3.08.16,1.02.09,2.03-.08,3.03.39,1,.47,1.99,1.79,2.98,2.44.98.67,1.95,1.05,2.92,1.54.96.49,1.93,1.14,2.87,1.42.96.28,1.89,0,2.83.26.93.26,1.86.98,2.78,1.31.92.33,1.84.29,2.74.66.91.36,1.8,1.14,2.69,1.5.9.36,1.78.28,2.65.69.88.4,1.75,1.18,2.62,1.75.86.57,1.72.99,2.57,1.67.86.67,1.7,1.84,2.54,2.37.84.54,1.67.59,2.5.85.83.25,1.66.05,2.47.64.81.58,1.62,2.42,2.42,2.87.81.44,1.61-.16,2.4-.21.79-.05,1.58.1,2.36-.06.77-.16,1.56-1.36,2.32-.91.77.45,1.54,2.78,2.3,3.58.77.81,1.52,1.1,2.27,1.26.76.15,1.5-.44,2.24-.33s1.47.36,2.21.97c.73.61,1.46,2.42,2.18,2.65.72.22,1.44-1.34,2.15-1.29.72.05,1.42.85,2.13,1.58.7.73,1.4,2.09,2.1,2.8.69.71,1.38,1.57,2.07,1.45.69-.11,1.38-1.74,2.05-2.14.68-.4,1.36-.5,2.03-.26.68.25,1.34,1.03,2,1.7.67.67,1.33,2.06,1.99,2.36.65.29,1.3-.52,1.95-.57.65-.05,1.29-.22,1.94.25s1.28,1.44,1.91,2.54c.63,1.11,1.27,3.61,1.89,4.1.63.49,1.25-.86,1.87-1.17.62-.31,1.24-.59,1.85-.69.62-.1,1.23.04,1.84.09.6.05,1.21-.02,1.81.23.6.25,1.19,1,1.79,1.25s1.19.03,1.78.23c.58.2,1.17.76,1.75.96.58.2,1.16-.24,1.74.24.58.48,1.15,1.78,1.72,2.63.57.86,1.14,1.85,1.7,2.49.57.65,1.13,1.31,1.69,1.37.56.05,1.12-.95,1.67-1.02.55-.06,1.1.76,1.66.61.54-.15,1.1-1.35,1.64-1.49.54-.15,1.08.22,1.62.64.54.42,1.07,1.32,1.61,1.87.53.54,1.06.55,1.59,1.39.53.83,1.05,2.78,1.57,3.61.53.83,1.05,1.13,1.57,1.38.52.24,1.04.26,1.55.06.52-.19,1.03-.8,1.54-1.2.51-.4,1.01-1.21,1.52-1.19.51,0,1.01.86,1.51,1.27.5.41,1,.87,1.5,1.2.49.33.99.91,1.48.77.49-.13.98-1.38,1.47-1.57.49-.2.97-.03,1.46.4.49.43.96,1.57,1.45,2.16.48.6.96.68,1.42,1.42.48.74.96,2.73,1.42,3,.47.28.94-.9,1.41-1.31.47-.41.93-.9,1.4-1.15.46-.25.92-.38,1.38-.33.46.05.91.13,1.38.64.45.52.91,2.12,1.36,2.46s.91-.33,1.36-.42c.44-.1.89-.3,1.34-.15.4.14.92.26,1.33,1.04.44.87.89,3.63,1.33,4.12.44.5.87-.53,1.31-1.16.44-.63.87-2.64,1.3-2.6.44.04.86,1.91,1.29,2.83.43.92.86,2.45,1.29,2.67.42.21.85-1.08,1.27-1.39.42-.31.85-.43,1.26-.51.42-.08.84-.24,1.26.03.41.27.83,1.17,1.24,1.59.41.41.82.45,1.24.92.41.48.82,1.92,1.23,1.93.4,0,.82-1.55,1.22-1.89s.81-.55,1.21-.15c.4.39.8,1.76,1.19,2.51.4.76.8,1.81,1.19,2.01.4.18.79-.59,1.19-.89.4-.29.78-.55,1.18-.9.39-.35.78-.99,1.17-1.19.39-.21.77-.39,1.16-.04.38.35.77,1.66,1.15,2.12.38.46.76.57,1.15.67.38.1.76-.26,1.14-.06.38.2.75.86,1.13,1.24.37.37.75.87,1.12,1.04.37.17.74-.15,1.12,0,.36.16.73.4,1.1.94.37.55.73,2.11,1.1,2.3.36.2.72-1.1,1.09-1.13.37-.02.73.83,1.09.98.36.16.72-.16,1.09-.04.35.13.71.58,1.07.81.35.22.71.68,1.06.54s.71-1.31,1.06-1.42c.35-.11.7.41,1.05.79.35.37.7,1.21,1.05,1.48.35.26.69.28,1.04.12.35-.17.69-1.17,1.04-1.13.35.04.68,1.13,1.03,1.34.34.21.68-.23,1.02-.08.34.14.68.78,1.01.94.34.16.68.1,1.01.02.33-.08.67-.74,1-.5.33.24.66,1.26,1,1.91.33.67.66,1.39.99,2.05.33.67.66,2.01.99,1.95.33-.06.65-1.7.98-2.33.33-.63.65-1.47.97-1.45.33.03.65,1.09.97,1.6.32.5.64,1.29.96,1.43.32.14.64-.72.96-.61.31.12.63.94.95,1.29.32.36.63.77.96.81.31.05.63-.26.94-.51.31-.24.63-.72.94-.93.31-.2.63-.57.93-.27.31.3.62,1.72.93,2.11.3.38.62,0,.92.2.3.21.61.55.91,1.04.3.49.61,1.57.91,1.9.3.34.61.26.91.1.3-.15.61-.74.91-.98.3-.24.6-.6.9-.47.3.12.6.84.9,1.21.3.38.59.62.89,1.04.29.42.58,1.32.88,1.49.3.17.58-.21.88-.49.29-.27.58-1.11.87-1.18.29-.05.58.4.87.82"/></g><g id="uuid-63f1b43b-29bb-4e84-9b0a-fe714776dd67"><text class="uuid-522b6a32-d964-4224-8c78-bb5ef4eb84de" transform="translate(460.04 512.03)"><tspan x="0" y="0">t in s</tspan></text><text class="uuid-e78b5401-933c-4031-b9cb-c5b061e03c71" transform="translate(32.4 287.19) rotate(-90)"><tspan x="0" y="0">amplitude</tspan></text><text class="uuid-e78b5401-933c-4031-b9cb-c5b061e03c71" transform="translate(46.8 398.79)"><tspan x="0" y="0">-1.0</tspan></text><text class="uuid-e78b5401-933c-4031-b9cb-c5b061e03c71" transform="translate(57.6 38.79)"><tspan x="0" y="0">1.0</tspan></text><text class="uuid-e78b5401-933c-4031-b9cb-c5b061e03c71" transform="translate(57.6 218.79)"><tspan x="0" y="0">0.0</tspan></text><text class="uuid-e78b5401-933c-4031-b9cb-c5b061e03c71" transform="translate(486.25 445.59)"><tspan x="0" y="0">0.5</tspan></text><text class="uuid-e78b5401-933c-4031-b9cb-c5b061e03c71" transform="translate(882.25 445.59)"><tspan x="0" y="0">1</tspan></text><text class="uuid-522b6a32-d964-4224-8c78-bb5ef4eb84de" transform="translate(1407.71 512.03)"><tspan x="0" y="0">f in Hz</tspan></text><text class="uuid-e78b5401-933c-4031-b9cb-c5b061e03c71" transform="translate(1053.89 445.59)"><tspan x="0" y="0">10</tspan></text><text class="uuid-e78b5401-933c-4031-b9cb-c5b061e03c71" transform="translate(1094.32 433.61) scale(.58)"><tspan x="0" y="0">2</tspan></text><text class="uuid-e78b5401-933c-4031-b9cb-c5b061e03c71" transform="translate(1398.24 445.59)"><tspan x="0" y="0">10</tspan></text><text class="uuid-e78b5401-933c-4031-b9cb-c5b061e03c71" transform="translate(1438.67 433.61) scale(.58)"><tspan x="0" y="0">3</tspan></text><text class="uuid-e78b5401-933c-4031-b9cb-c5b061e03c71" transform="translate(1742.59 445.59)"><tspan x="0" y="0">10</tspan></text><text class="uuid-e78b5401-933c-4031-b9cb-c5b061e03c71" transform="translate(1783.02 433.61) scale(.58)"><tspan x="0" y="0">4</tspan></text><text class="uuid-e78b5401-933c-4031-b9cb-c5b061e03c71" transform="translate(46.8 308.79)"><tspan x="0" y="0">-0.5</tspan></text><text class="uuid-e78b5401-933c-4031-b9cb-c5b061e03c71" transform="translate(57.6 128.8)"><tspan x="0" y="0">0.5</tspan></text><text class="uuid-e78b5401-933c-4031-b9cb-c5b061e03c71" transform="translate(990 332.46) rotate(-90)"><tspan x="0" y="0">amplitude in dB</tspan></text><text class="uuid-e78b5401-933c-4031-b9cb-c5b061e03c71" transform="translate(90.25 445.59)"><tspan x="0" y="0">0.0</tspan></text><text class="uuid-81d6ec5b-6dee-474a-b42f-bb9ad576c6a4" transform="translate(1009.64 173.55)"><tspan x="0" y="0">-12</tspan></text><text class="uuid-81d6ec5b-6dee-474a-b42f-bb9ad576c6a4" transform="translate(1039.78 83.52)"><tspan x="0" y="0">0</tspan></text><text class="uuid-81d6ec5b-6dee-474a-b42f-bb9ad576c6a4" transform="translate(1009.64 263.55)"><tspan x="0" y="0">-24</tspan></text><text class="uuid-81d6ec5b-6dee-474a-b42f-bb9ad576c6a4" transform="translate(1009.64 353.55)"><tspan x="0" y="0">-36</tspan></text></g></svg>