<?xml version="1.0" encoding="UTF-8"?>
<svg xmlns="http://www.w3.org/2000/svg" viewBox="0 0 1908 532.8">
  <defs>
    <style>
      .cls-1, .cls-2, .cls-3, .cls-4, .cls-5, .cls-6, .cls-7, .cls-8, .cls-9 {
        fill: none;
      }

      .cls-1, .cls-3, .cls-5 {
        opacity: .8;
      }

      .cls-1, .cls-3, .cls-5, .cls-6, .cls-7, .cls-8, .cls-9 {
        stroke-miterlimit: 10;
      }

      .cls-1, .cls-3, .cls-5, .cls-6, .cls-8, .cls-9 {
        stroke: #c9d1d9;
      }

      .cls-1, .cls-4, .cls-7 {
        stroke-width: 2.83px;
      }

      .cls-10 {
        fill: #c5cdd5;
      }

      .cls-11 {
        fill: #c6ced6;
      }

      .cls-2 {
        stroke: rgba(201, 209, 217, .2);
        stroke-miterlimit: 20;
      }

      .cls-2, .cls-9 {
        stroke-width: 1.98px;
      }

      .cls-3 {
        stroke-width: 1.53px;
      }

      .cls-4 {
        stroke-linecap: round;
        stroke-linejoin: round;
      }

      .cls-4, .cls-7 {
        stroke: #307eef;
      }

      .cls-5 {
        stroke-width: 1.42px;
      }

      .cls-6 {
        stroke-width: 2.14px;
      }

      .cls-8 {
        stroke-width: 4.25px;
      }
    </style>
  </defs>
  <g id="Graph">
    <path class="cls-7" d="m115.02,304.99c.06.04,1.12-1.64,1.18-3.35.4-11,.79-48.8,1.19-62.64.29-10.21.9-17.66,1.19-20.41.11-1.03,1.08-.95,1.19-1.94.39-3.59.79-15.21,1.18-19.6.27-2.92.93-3.37,1.19-6.77.4-5.12.79-14.9,1.19-23.98.39-9.07.79-36.26,1.19-30.46.39,5.8.79,61.63,1.18,65.25.4,3.62.8-44.21,1.19-43.55.4.66.79,33.64,1.19,47.54.4,13.89.79,24.09,1.19,35.82.39,11.72.79,42.5,1.19,34.51.39-7.99.79-77.42,1.18-82.46.4-5.04.79,42.7,1.19,52.22.1,2.49,1.08,6.79,1.19,4.92.39-7.18.79-39.35,1.19-47.99.09-1.96,1.09-4.77,1.18-3.86.4,4,.8,22.84,1.19,27.85.05.66,1.14,1.06,1.19,2.22.39,8.84.79,57.5,1.19,50.8.39-6.71.79-72.67,1.18-91.03.21-9.57.99-20.18,1.19-19.14.4,2,.79,21.24,1.19,31.14.4,9.91.79,36.57,1.19,28.29.39-8.28.79-76.63,1.19-77.96.39-1.33.79,64.11,1.18,69.96.4,5.85.79-26.4,1.19-34.86.37-7.98.81-9.53,1.19-15.96.39-6.82.79-21.98,1.19-24.95.18-1.39,1,10.74,1.18,7.15.4-7.64.8-48.01,1.19-53.01.4-5,.79,22.51,1.19,23.03.37.49.82-29.85,1.19-19.9.39,10.64.79,62.52,1.18,83.75.4,21.23.8,45.42,1.19,43.64.4-1.79.79-34.58,1.19-54.38.4-19.8.79-58.63,1.19-64.41.39-5.78.79,30.64,1.19,29.71.39-.93.79-26,1.18-35.3.4-9.3.79-26.34,1.19-20.5.4,5.84.79,51.99,1.19,55.54.39,3.54.79-31.63,1.19-34.26.39-2.63.79,12.73,1.18,18.46.4,5.73.8,16.5,1.19,15.91.4-.59.79-25.44,1.19-19.45.39,5.99.79,53.52,1.19,55.4.39,1.88.79-43.05,1.18-44.11.4-1.07.8,32.74,1.19,37.72.31,3.93.88-8.69,1.19-7.83.39,1.09.79,7.84,1.19,14.38.39,6.54.79,25.33,1.18,24.89.4-.44.8-18.64,1.19-27.53.4-8.89.79-26.19,1.19-25.79.4.39.79,35.1,1.19,28.14.39-6.95.79-59.33,1.19-69.88.12-3.31,1.06,5.2,1.18,6.59.4,4.41.79,18.11,1.19,19.89.4,1.77.79-5.8,1.19-9.24.23-2.04.95-17.14,1.19-11.42.39,9.64.79,57.36,1.18,69.26.04,1.11,1.15,1.82,1.19,2.11.4,3.15.79,23.28,1.19,16.82.39-6.46.79-56.91,1.19-55.6.39,1.31.79,44.31,1.18,63.45.4,19.14.8,43.1,1.19,51.39.05.9,1.15-1.05,1.19-1.65.4-5.57.79-25.4,1.19-31.79.2-3.31.98-7.77,1.19-6.6.33,1.92.85,10.07,1.18,20.15.4,11.83.79,54.31,1.19,50.8.4-3.5.79-52.74,1.19-71.84.39-19.09.79-36.18,1.19-42.71.05-.89,1.13,1.73,1.18,3.52.4,13.19.8,75.46,1.19,75.64.4.18.79-70.84,1.19-74.57.4-3.73.79,36.21,1.19,52.19.39,15.99.79,42.99,1.18,43.71.4.73.8-40.65,1.19-39.32.4,1.33.79,53.48,1.19,47.29.4-6.19.79-65.19,1.19-84.41.32-15.47.87-35.79,1.19-30.94.39,6.02.79,47.74,1.18,67.1.4,19.37.79,35.92,1.19,49.08.4,13.15.79,31.45,1.19,29.85.39-1.6.79-21.52,1.19-39.45.39-17.93.79-67.58,1.18-68.11.4-.53.8,60.94,1.19,64.95.4,4.01.79-27.02,1.19-40.89.39-13.87.79-36.99,1.19-42.34.32-4.37.86,5.1,1.18,10.21.4,6.27.8,27.57,1.19,27.4.4-.18.79-18.99,1.19-28.47s.79-30.29,1.19-28.4c.39,1.89.79,31.73,1.19,39.73.2,4.12.98,9.13,1.18,8.22.28-1.24.91-9.35,1.19-18.73.4-13.22.79-61.9,1.19-60.63.39,1.27.79,46.94,1.19,68.24.39,21.3.79,55.3,1.18,59.55.4,4.25.8-33.15,1.19-34.05.4-.91.79,19.05,1.19,28.64.39,9.6.79,17.41,1.19,28.93.39,11.51.79,48.96,1.18,40.15.4-8.8.8-69.77,1.19-92.97.4-23.12.8-33.09,1.19-46.24.4-13.19.79-31.94,1.19-32.92.39-.98.79,28.24,1.19,27.02.39-1.22.79-42.65,1.18-34.32.4,8.33.79,80.42,1.19,84.28.4,3.85.79-62.4,1.19-61.14.39,1.25.79,57.85,1.19,68.68.06,1.88,1.12-4.27,1.18-3.67.4,3.45.8,29.36,1.19,24.38.4-4.99.79-52.25,1.19-54.3.39-2.05.79,44.09,1.19,42,.39-2.09.79-36.54,1.18-54.54.4-17.99.8-38.69,1.19-53.45.4-14.77.79-26.5,1.19-35.14.38-8.35.8-21.75,1.19-16.7.39,5.23.79,47.37,1.19,48.07.39.7.79-33.84,1.18-43.88.32-8.18.87-24.14,1.19-16.34.4,9.57.79,55.56,1.19,73.78.38,17.78.8,37.73,1.19,35.55.39-2.22.79-41.32,1.18-48.9.09-1.73,1.1,5.22,1.19,3.46.4-7.73.79-37.47,1.19-49.86.39-12.22.8-15.84,1.19-24.44.39-8.71.79-30.71,1.18-27.85.4,2.86.8,22.91,1.19,45,.4,22.1.79,65.25,1.19,87.58.4,22.32.79,36.27,1.19,46.39.28,7.19.9,18.47,1.18,14.36.4-5.8.8-31.85,1.19-49.14.4-17.29.79-38.95,1.19-54.61.4-15.66.79-49.16,1.19-39.36.39,9.8.79,79.2,1.19,98.17.16,7.81,1.02,18.04,1.18,15.6.4-5.91.8-32.37,1.19-51.03.4-18.66.79-60.98,1.19-60.91.39.07.79,42.67,1.19,61.34.39,18.67.79,51.13,1.18,50.66.4-.47.8-36.57,1.19-53.48.4-16.91.79-41.93,1.19-47.99.33-5.12.85,5.81,1.19,11.64.39,6.9.79,30.04,1.18,29.77.4-.27.8-27.36,1.19-31.39.17-1.74,1.02,10.86,1.19,7.23.4-8.41.79-56.04,1.19-57.68.39-1.64.79,49.37,1.19,47.85.39-1.51.79-49.32,1.18-56.92.3-5.64.9,5.65,1.19,11.31.4,7.63.79,19.05,1.19,34.49.39,15.44.79,45.4,1.19,58.14.28,9.14.9,10.8,1.18,18.28.4,10.42.8,50.17,1.19,44.25.4-5.92.79-57.73,1.19-79.77.39-22.04.79-46.48,1.19-52.45.39-5.97.79,16.12,1.18,16.64.4.51.8-15.24,1.19-13.55.4,1.69.79,27.16,1.19,23.69.4-3.47.79-45.7,1.19-44.52.39,1.18.79,54.37,1.19,51.63.39-2.74.79-63.11,1.18-68.07.4-4.96.79,21.03,1.19,38.32.4,17.29.79,49.86,1.19,65.4.35,13.92.83,30.88,1.19,27.84.39-3.41.79-45.31,1.18-48.25.4-2.95.8,30.46,1.19,30.56.4.1.79-20.67,1.19-29.94.39-9.27.79-34.38,1.19-25.69.39,8.68.79,69.34,1.18,77.8.4,8.46.8-24.24,1.19-27.05.18-1.29,1.01,15.26,1.19,10.17.4-11.15.79-79.69,1.19-77.06.39,2.63.79,90.35,1.19,92.84.39,2.49.79-68.26,1.18-77.88.4-9.62.79,23.13,1.19,20.15.4-2.97.79-45.26,1.19-38,.39,7.26.79,61.8,1.19,81.54.37,18.47.81,30.14,1.18,36.93.19,3.34,1.01,4.29,1.19,6.66.4,5.14.79,14.02,1.19,24.16.39,10.15.79,25.24,1.19,36.71.39,11.47.79,41.01,1.18,32.11.4-8.9.8-72.7,1.19-85.5.14-4.37,1.05,5.59,1.19,8.7.4,9.15.79,34.41,1.19,46.19.39,11.77.79,26.66,1.19,24.47.39-2.2.79-24.76,1.18-37.62.4-12.86.79-28.6,1.19-39.56.4-10.95.79-29.76,1.19-26.16.39,3.59.79,47.87,1.19,47.72.39-.15.79-34.37,1.18-48.61.4-14.24.8-41.35,1.19-36.83.4,4.53.79,53.97,1.19,63.97.08,2.02,1.11-5.31,1.19-3.99.39,6.51.79,35.71,1.18,43.03.04.59,1.16,1,1.19.94.16-.31,1.03-2.77,1.19-5.58.4-7.01.79-21,1.19-36.46.39-15.46.79-57,1.19-56.31.39.69.79,49.25,1.18,60.45.12,3.4,1.07,6.76,1.19,6.75.12,0,1.07-3.41,1.19-6.85.39-11.27.79-60.05,1.19-60.75.39-.7.79,44.72,1.18,56.57.25,7.27.95,10.13,1.19,14.53.4,7.17.79,28.14,1.19,28.5.39.37.79-15.02,1.19-26.3.39-11.28.79-37.94,1.18-41.39.4-3.45.8,12.43,1.19,20.69.4,8.25.79,38.06,1.19,28.85.4-9.21.79-85.75,1.19-84.1.39,1.65.79,83.27,1.18,94.01.39,10.5.81-14.79,1.19-29.59.4-15.13.79-54.83,1.19-61.18.4-6.35.79,19.61,1.19,23.06.05.43,1.14-1.12,1.19-2.35.39-9.88.79-57.15,1.18-56.91.4.24.8,40.57,1.19,58.34.4,17.77.79,36.13,1.19,48.28.39,12.16.79,25.31,1.19,24.66.39-.66.79-18.77,1.18-28.56.4-9.79.8-22.82,1.19-30.19.38-7.05.81-20.7,1.19-14.09.4,6.92.79,50.76,1.19,55.57.39,4.82.79-22.32,1.18-26.67.02-.21,1.17.11,1.19.55.4,9.23.79,49.6,1.19,54.8.4,5.21.79-25.08,1.19-23.56.39,1.51.79,24.88,1.19,32.66.21,4.3.96,21.11,1.18,14.07.4-12.75.8-89.26,1.19-90.55.4-1.28.79,68.46,1.19,82.85.05,1.78,1.14,3.15,1.19,3.49.39,2.69.79,12.23,1.18,12.7.16.19,1.03-4.93,1.19-9.9.4-12.33.79-52.05,1.19-64.08.13-4.05,1.05-10.36,1.19-8.06.39,6.83.79,51.34,1.18,49.02.4-2.32.8-54.54,1.19-62.95.22-4.57.97,6.27,1.19,12.55.4,11.54.79,54.79,1.19,56.71.39,1.91.79-35.42,1.19-45.22.26-6.47.92-20.37,1.18-13.57.4,10.3.79,77.01,1.19,75.34.4-1.67.79-66.22,1.19-85.38.3-14.8.88-27.63,1.19-29.6.39-2.56.79,20.99,1.18,14.28.4-6.71.8-44.01,1.19-54.55.17-4.36,1.03-7.25,1.19-8.69.32-2.8.87-18.34,1.19-12.22.39,7.61.79,35.8,1.18,57.91.4,22.11.8,66.51,1.19,74.71.4,8.21.79-27.64,1.19-25.48.4,2.17.79,32.5,1.19,38.49.08,1.32,1.1-2.56,1.19-2.54.05.01,1.12,4.55,1.18,3.01.4-10.39.79-55.11,1.19-65.35.08-1.97,1.11,4.16,1.19,3.88.22-.79.97-6.27,1.19-12.57.39-11.45.79-50.53,1.18-56.15.4-5.61.8,26.12,1.19,22.47.4-3.66.79-47.61,1.19-44.42.39,3.19.79,48.27,1.19,63.54.36,14.03.82,25.49,1.18,28.05.31,2.18.88-16.96,1.19-11.3.4,7.28.79,60.88,1.19,54.95.4-5.93.79-78.61,1.19-90.54.31-9.37.87,9.46,1.19,18.94.39,12.06.79,41.71,1.18,53.45.29,8.48.9,14.46,1.19,16.95.07.56,1.12,5.5,1.19,3.64.39-11.33.79-70.62,1.19-71.65.39-1.03.79,60.46,1.18,65.47.4,5.01.8-32.09,1.19-35.4.4-3.3.79,13.94,1.19,15.56.39,1.62.79-7.33,1.19-5.85.32,1.2.86,7.34,1.18,14.69.4,9.06.8,39.21,1.19,39.69.4.48.79-25.34,1.19-36.8.4-11.46.79-24.57,1.19-31.95.23-4.39.95-18.54,1.18-12.35.4,10.4.8,64.41,1.19,74.77.24,6.31.95-7.72,1.19-12.61.4-8.02.79-40.85,1.19-35.5.39,5.34.79,56.29,1.19,67.56.01.36,1.17.28,1.18.05.4-7.36.8-34.53,1.19-44.21.29-6.95.9-8.35,1.19-13.88.39-7.7.79-39.11,1.19-32.33.39,6.78.79,67.83,1.18,73,.4,5.18.8-32.66,1.19-41.93.23-5.4.96-6.85,1.19-13.7.4-11.77.79-44,1.19-56.92.31-10.29.87-26.17,1.18-20.57.4,7.03.8,63.43,1.19,62.74.4-.69.79-50.9,1.19-66.87.36-14.48.83-24.73,1.19-28.95.03-.33,1.16.41,1.19,1.04.39,8.95.79,52.39,1.18,52.64.4.25.8-46.81,1.19-51.14.32-3.46.87,12.58,1.19,25.16.39,15.74.79,48.93,1.19,69.29.39,20.36.79,50.12,1.18,52.87.4,2.75.8-32.86,1.19-36.36.4-3.5.79,11.09,1.19,15.37.4,4.28.79,8.3,1.19,10.3.07.35,1.12,2.61,1.19,1.69.39-5.25.79-38.1,1.18-33.21.4,4.89.79,57.21,1.19,62.55.4,5.34.79-17.83,1.19-30.5.39-12.66.79-51.73,1.19-45.49.39,6.24.79,70.69,1.18,82.94.16,4.72,1.04-9.31,1.19-9.43.25-.19.94,3.77,1.19,7.57.39,6.08.79,28.26,1.19,28.95.39.68.79-29.15,1.18-24.85.4,4.3.8,50.95,1.19,50.66.4-.29.79-40.12,1.19-52.38.3-9.28.89-10.56,1.19-21.12.39-13.95.79-49.61,1.18-62.57.24-7.62.96-21.32,1.19-15.22.4,10.4.79,76.83,1.19,77.59.4.76.79-58.65,1.19-73.04.18-6.67,1-17.19,1.19-13.32.39,8.37.79,48.53,1.18,63.49.35,13.16.84,29.95,1.19,26.31.4-4.14.79-39.56,1.19-51.16.31-9.25.87-19.31,1.19-18.5.39,1.02.79,30.01,1.18,24.61.4-5.4.8-40.13,1.19-57.01.4-16.88.79-49.44,1.19-44.27.39,5.17.79,68.05,1.19,75.29.39,7.23.79-37.36,1.18-31.89.4,5.47.8,57.18,1.19,64.73.4,7.55.79-14.82,1.19-19.42.15-1.78,1.03-12.31,1.19-8.2.39,10.62.79,62.5,1.19,71.92.32,7.71.86-11.97,1.18-15.4.4-4.2.79-8.08,1.19-9.78.02-.09,1.17,0,1.19-.41.39-7.79.79-48.95,1.19-46.32.39,2.63.79,63.03,1.18,62.09.4-.95.8-69.23,1.19-67.74.4,1.49.79,65.51,1.19,76.65.17,4.89,1.01-4.89,1.19-9.8.39-11.19.79-59.25,1.18-57.31.4,1.93.8,51.76,1.19,68.92.4,17.04.8,36.57,1.19,34.06.4-2.53.79-37.38,1.19-49.25.36-11,.82-11.73,1.19-21.99.39-11.08.79-42.41,1.18-44.44.4-2.04.79,20.71,1.19,32.25.4,11.53.79,26.43,1.19,36.96.39,10.54.79,30.92,1.19,26.27.39-4.66.79-36.7,1.18-54.21.4-17.51.8-36.37,1.19-50.84.4-14.48.79-35.72,1.19-36.01.39-.28.79,17.18,1.19,34.3.39,17.12.79,65.44,1.18,68.4.4,2.96.8-33.06,1.19-50.61.4-17.54.79-46.58,1.19-54.68.15-3.08,1.04,5.74,1.19,6.12.09.24,1.09-.43,1.19-.08.27.99.91,13.13,1.18,8.75.4-6.38.79-34.25,1.19-47.03.4-12.78.79-31.81,1.19-29.63.39,2.18.79,27.35,1.19,42.69.39,15.34.79,31.31,1.18,49.33.4,18.02.8,48.69,1.19,58.78.04.95,1.15,2.69,1.19,1.76.39-9.93.79-47.66,1.19-61.32.3-10.33.88-19.98,1.18-20.65.4-.88.8,13.03,1.19,15.36.03.17,1.16-2.16,1.19-1.38.4,10.48.79,67.82,1.19,64.24.39-3.57.79-78.35,1.19-85.71.39-7.36.79,38.43,1.18,41.57.4,3.14.79-15.57,1.19-22.75.4-7.17.79-26.45,1.19-20.29.39,6.16.79,46.57,1.19,57.28.12,3.49,1.05,9.06,1.18,6.95.4-6.49.8-31.33,1.19-45.84.4-14.51.79-38.49,1.19-41.23.28-1.97.9,12.38,1.19,24.78.39,17.23.79,73.03,1.18,78.58.4,5.55.8-30.56,1.19-45.28.4-14.73.79-38.39,1.19-43.06.39-4.67.79,9.66,1.19,15.03.39,5.37.79,24.15,1.18,17.2.4-6.95.8-63.25,1.19-58.92.4,4.32.79,76.82,1.19,84.85.4,8.03.79-36.3,1.19-36.67.39-.38.79,36.35,1.19,34.42.39-1.93.79-36.08,1.18-46.01.27-6.78.92-7.24,1.19-13.55.4-9.23.79-51.07,1.19-41.86.39,9.21.79,86.31,1.19,97.12.39,10.82.79-37.28,1.18-32.25.4,5.03.8,66.67,1.19,62.45.4-4.21.79-74.47,1.19-87.73.12-4.1,1.06,4.77,1.19,8.16.39,10.98.79,42.72,1.18,57.69.4,14.98.8,41.26,1.19,32.16.4-9.11.79-66.59,1.19-86.78.34-17.19.85-34.21,1.19-34.38.39-.21.79,37.34,1.19,33.14.39-4.2.79-46.08,1.18-58.32.25-7.57.95-21.28,1.19-15.13.4,9.96.79,69.52,1.19,74.87.39,5.35.79-37.71,1.19-42.79.16-2.14,1.02,6.14,1.18,12.3.4,14.64.8,59.41,1.19,75.54.26,10.63.93,20.77,1.19,21.25.27.49.92-8.46,1.19-16.93.39-12.46.79-49.29,1.18-57.83.16-3.31,1.04,4.51,1.19,6.58.34,4.56.85,12.72,1.19,25.44.4,14.89.79,46.05,1.19,63.93.39,17.88.79,33.27,1.19,43.35.33,8.6.85,12.49,1.18,17.18.4,5.51.79,17.04,1.19,15.87.4-1.18.79-11.73,1.19-22.91.39-11.17.79-36.74,1.19-44.13.02-.37,1.16-.42,1.18-.24.4,3.66.8,25.49,1.19,22.18.4-3.31.79-32.95,1.19-42.03.27-6.24.91-11.62,1.19-12.46.12-.37,1.06,7.7,1.18,5.12.4-8.41.8-48.68,1.19-55.53.4-6.85.79,10.61,1.19,14.42.19,1.87.99,4.22,1.19,8.47.39,8.67.79,34,1.19,43.54.24,5.92.94,20.56,1.18,13.7.4-11.05.79-64.04,1.19-80.01.2-7.91.99-18.62,1.19-15.8.39,5.68.79,45.32,1.19,49.87.39,4.56.79-28.85,1.18-22.57.4,6.29.8,44.87,1.19,60.29.4,15.41.79,43.05,1.19,32.2.39-10.85.79-87.78,1.19-97.28.39-9.5.79,30.73,1.18,40.26.36,8.47.84,12.15,1.19,16.92.39,5.21.8,7.63,1.19,15.27.4,7.86.79,28.74,1.19,31.9.39,3.16.79-16.65,1.19-12.96.39,3.69.79,41.68,1.18,35.11.4-6.57.79-68.17,1.19-74.54.4-6.37.79,29.9,1.19,36.34.04.66,1.15,3.53,1.19,2.32.39-11.8.79-73.13,1.18-73.09.4.05.8,58.67,1.19,73.35.2,7.36.99,9.58,1.19,14.71.39,10.22.79,34.44,1.19,46.65.39,12.2.79,25.16,1.18,26.58.29,1.03.9-9.04,1.19-18.08.4-12.44.79-46.13,1.19-56.53.11-2.95,1.07-3.81,1.19-5.86.39-7.23.79-32.19,1.18-37.51.14-1.86,1.05,8.44,1.19,5.62.4-8.08.79-38.37,1.19-54.11.4-15.73.79-37.78,1.19-40.3.38-2.43.8,12.57,1.19,25.16.39,13.08.79,47.55,1.18,53.31.4,5.76.8-25.34,1.19-18.77.4,6.56.79,55.33,1.19,58.16.39,2.83.79-31.47,1.19-41.18.34-8.53.84-16.63,1.18-17.05.4-.48.8,14.83,1.19,14.15.4-.67.79-25.59,1.19-18.22.4,7.36.79,55.82,1.19,62.42.39,6.6.79-27.59,1.18-22.8.4,4.79.8,57.48,1.19,51.55.4-5.92.79-80.05,1.19-87.12.4-7.06.79,42.19,1.19,44.71.39,2.52.79-37.14,1.19-29.57.39,7.56.79,74.9,1.18,74.96.4.07.8-62.05,1.19-74.59.02-.47,1.17-.7,1.19-.62.21,1.12.98,6.73,1.19,13.47.39,12.88.79,47.97,1.18,63.81.39,15.61.8,22.74,1.19,31.22.4,8.62.79,26,1.19,20.44.39-5.56.79-49.26,1.19-53.79.39-4.53.79,22.92,1.18,26.6.11.96,1.09-2.21,1.19-4.48.4-8.67.79-51.67,1.19-47.58.4,4.09.79,66.63,1.19,72.09.39,5.46.79-20.24,1.19-39.32.39-19.08.79-75.73,1.18-75.15.4.57.79,69.61,1.19,78.6.4,8.98.79-29.16,1.19-24.71.39,4.46.79,41.29,1.19,51.47.18,4.79,1,7.68,1.18,9.56.35,3.44.85,21.54,1.19,14.36.4-8.33.79-45.41,1.19-64.36.39-18.95.79-52.32,1.19-49.35.39,2.97.79,69.17,1.18,67.17.4-2,.8-68.03,1.19-79.16.22-6.21.97,13.24,1.19,12.39.4-1.52.79-18.84,1.19-21.49.12-.8,1.07,2.77,1.19,5.58.39,9.28.79,32.5,1.18,50.09.4,17.59.79,58.21,1.19,55.46.4-2.76.79-69.66,1.19-71.97.39-2.31.79,61.6,1.19,58.09.39-3.51.79-56.25,1.18-79.18.4-22.93.8-62.37,1.19-58.4.4,3.97.79,57.87,1.19,82.22.39,24.35.79,56.76,1.19,63.89.39,7.14.79-22.08,1.18-21.1.4.98.8,26.95,1.19,26.99.4.04.79-20.77,1.19-26.74.3-4.53.89-6.76,1.19-9.04.17-1.34,1.01-4.47,1.19-8.95.39-10.08.79-35.82,1.18-51.54.4-15.72.79-38.98,1.19-42.77.4-3.8.79,18.72,1.19,19.99.39,1.28.79-18.21,1.19-12.33.39,5.88.79,37.27,1.18,47.6.28,7.2.92,20.46,1.19,14.39.4-8.7.79-56.6,1.19-66.61.13-3.29,1.06,4.28,1.19,6.54.39,6.89.79,30.12,1.18,34.8.13,1.46,1.07-3.34,1.19-6.72.4-10.88.79-47.54,1.19-58.56.14-3.8,1.05-9.14,1.19-7.58.39,4.52.79,32.57,1.19,34.71.39,2.14.79-31.34,1.18-21.9.4,9.44.79,62.87,1.19,78.56.2,7.81.99,17.05,1.19,15.61.39-2.88.79-31.55,1.19-32.87.39-1.33.79,13.2,1.18,24.93.4,11.73.8,48.51,1.19,45.46.4-3.05.79-55.21,1.19-63.78.28-6.18.9,8.14,1.19,12.36.39,5.85.79,16.96,1.18,22.74.23,3.34.96,17.93,1.19,11.95.4-10.36.79-52.65,1.19-74.12.4-21.46.79-55.98,1.19-54.66.39,1.32.79,47.92,1.19,62.59.34,12.7.84,30.32,1.18,25.4.4-5.7.79-56.11,1.19-59.56.4-3.46.79,41.63,1.19,38.83.39-2.8.79-51.57,1.19-55.65.39-4.09.79,23.39,1.18,31.13.39,7.65.8,13.64,1.19,15.29.09.37,1.1-2.62,1.19-5.28.39-11.91.79-55.71,1.19-66.14.06-1.79,1.12,4.76,1.18,3.52.4-7.2.8-52.74,1.19-46.73.4,6.01.79,58.23,1.19,82.82.4,24.59.79,59.45,1.19,64.7.39,5.26.79-20.81,1.18-33.15.4-12.34.8-28.66,1.19-40.9.4-12.25.79-28.47,1.19-32.58.38-3.97.81,4.46,1.19,7.92.2,1.85.98,6.78,1.19,13.57.39,13.13.79,53.68,1.18,65.21.07,2.04,1.12,4.69,1.19,4.01.4-3.85.79-28.04,1.19-27.1.39.93.79,33.54,1.19,32.72.39-.82.79-22.77,1.18-37.65.4-14.88.8-40.06,1.19-51.64.3-8.68.89-26.71,1.19-17.8.39,11.88.79,73.44,1.19,89.11.06,2.47,1.12,4.09,1.18,4.88.4,5.06.8,16.47,1.19,25.49.4,9.01.79,25.37,1.19,28.6.25,2.01.94-13.85,1.19-9.22.39,7.41.79,59.75,1.19,53.68.39-6.06.79-78.16,1.18-90.08.29-8.5.91,9.3,1.19,18.61.4,13.04.79,65.22,1.19,59.67.39-5.56.79-89.18,1.19-93.03.39-3.85.79,55.5,1.18,69.94.23,8.36.96,11.24,1.19,16.72.4,9.46.79,39.4,1.19,40.04.39.64.79-26.13,1.19-36.19.39-10.05.79-16.7,1.18-24.14.4-7.45.8-17.57,1.19-20.53.06-.4,1.14,1.33,1.19,2.74.4,10.39.79,61.08,1.19,59.61.39-1.46.79-53.51,1.19-68.37.27-10.4.91-27.33,1.18-20.78.4,9.36.79,76.13,1.19,76.94.4.81.79-71.85,1.19-72.09.39-.24.79,66.68,1.19,70.64.39,3.95.79-39.68,1.18-46.92.08-1.34,1.12,1.72,1.19,3.51.4,9.62.79,60.61,1.19,54.18.39-6.44.79-85.54,1.19-92.83.39-7.28.79,49.32,1.18,49.11.4-.21.8-54.87,1.19-50.35.4,4.52.79,70.05,1.19,77.48.4,7.43.79-18.45,1.19-32.9.39-14.44.79-48.44,1.19-53.77.39-5.33.79,11.1,1.18,21.79.4,10.69.79,42.86,1.19,42.34.4-.51.79-40.89,1.19-45.45.31-3.6.87,9.04,1.19,18.08.39,11.47.79,46.96,1.18,50.74.4,3.78.8-16.34,1.19-28.09.4-11.74.79-35.77,1.19-42.38.07-1.27,1.11,1.35,1.19,2.78.39,7.44.79,25.98,1.18,41.89.4,15.91.8,38.81,1.19,53.58.4,14.77.79,48.19,1.19,35.05.4-13.15.79-97.07,1.19-113.92.15-6.43,1.03,14.14,1.18,12.85.4-3.37.8-21.1,1.19-33.09.4-11.99.79-39,1.19-38.85.4.15.79,36.22,1.19,39.74.39,3.52.79-27.41,1.19-18.6.39,8.8.79,64.92,1.18,71.45.4,6.54.8-18.5,1.19-32.25.4-13.75.79-47.87,1.19-50.27.39-2.4.79,22.15,1.19,35.87.39,13.71.79,30.84,1.18,46.41.4,15.56.8,43.65,1.19,46.97.4,3.31.79-30.27,1.19-27.08.4,3.19.79,33.24,1.19,46.24.39,13,.79,41.95,1.18,31.76.4-10.19.8-83.86,1.19-92.9.4-9.04.79,38.61,1.19,38.66.4.06.79-39.82,1.19-38.33.39,1.49.79,54.8,1.19,47.25.39-7.55.79-83.23,1.18-92.53.4-9.3.8,36.24,1.19,36.73.4.49.79-35.81,1.19-33.77.39,2.04.79,49.02,1.19,46.01.39-3,.79-65.18,1.18-64.02.4,1.17.8,65.04,1.19,71.02.4,5.97.79-28.85,1.19-35.18.06-.95,1.13-1.37,1.19-2.82.39-9.7.79-46.36,1.19-55.39.03-.69,1.15,1.75,1.18,1.19.4-7.35.79-45.94,1.19-45.29.4.65.79,33.68,1.19,49.19.39,15.51.79,49.08,1.19,43.87.39-5.21.79-64.9,1.18-75.15.27-6.85.93,16.96,1.19,13.67.4-4.92.79-47.5,1.19-43.23.39,4.27.79,56.8,1.19,68.85.05,1.75,1.13,2.09,1.18,3.42.4,9.21.8,53.74,1.19,51.81.4-1.93.79-52.58,1.19-63.38.03-.76,1.16-.65,1.19-1.35.39-9.95.79-59.11,1.19-58.32.39.8.79,46.11,1.18,63.09.4,16.98.79,23.73,1.19,38.8.4,15.06.79,45.09,1.19,51.59.38,6.3.8-16.64,1.19-12.57.39,4.2.79,35.38,1.18,37.79.4,2.41.8-11.66,1.19-23.34.4-11.69.79-42.11,1.19-46.76.39-4.56.8,28.33,1.19,18.88.39-9.63.79-71.85,1.18-76.7.4-4.85.8,48.7,1.19,47.6.4-1.1.79-40.28,1.19-54.19s.79-32.47,1.19-29.27c.39,3.2.79,37.78,1.18,48.46.29,7.81.9,13.48,1.19,15.61.13.97,1.06,1.62,1.19,1.82"/>
  </g>
  <g id="Fenster_Neu">
    <path class="cls-2" d="m748.8,27.99v360"/>
    <path class="cls-2" d="m511.2,27.99v360"/>
    <path class="cls-2" d="m432,27.99v360"/>
    <path class="cls-2" d="m273.6,27.99v360"/>
    <path class="cls-2" d="m907.2,118H115.2"/>
    <path class="cls-2" d="m907.2,207.99H115.2"/>
    <path class="cls-2" d="m907.2,297.99H115.2"/>
    <rect class="cls-8" x="115.2" y="27.99" width="792" height="360"/>
    <line class="cls-3" x1="1183.3" y1="28" x2="1183.3" y2="388"/>
    <line class="cls-3" x1="1243.56" y1="28" x2="1243.56" y2="388"/>
    <line class="cls-3" x1="1286.61" y1="28" x2="1286.61" y2="388"/>
    <line class="cls-3" x1="1319.32" y1="28" x2="1319.32" y2="388"/>
    <line class="cls-3" x1="1346.87" y1="28" x2="1346.87" y2="388"/>
    <line class="cls-3" x1="1370.97" y1="28" x2="1370.97" y2="388"/>
    <line class="cls-3" x1="1389.91" y1="28" x2="1389.91" y2="388"/>
    <line class="cls-3" x1="1407.13" y1="28" x2="1407.13" y2="388"/>
    <line class="cls-6" x1="1424.35" y1="28" x2="1424.35" y2="388"/>
    <line class="cls-3" x1="1527.65" y1="28" x2="1527.65" y2="388"/>
    <line class="cls-3" x1="1587.91" y1="28" x2="1587.91" y2="388"/>
    <line class="cls-3" x1="1630.96" y1="28" x2="1630.96" y2="388"/>
    <line class="cls-3" x1="1663.67" y1="28" x2="1663.67" y2="388"/>
    <line class="cls-3" x1="1691.22" y1="28" x2="1691.22" y2="388"/>
    <line class="cls-3" x1="1715.32" y1="28" x2="1715.32" y2="388"/>
    <line class="cls-3" x1="1734.26" y1="28" x2="1734.26" y2="388"/>
    <line class="cls-3" x1="1751.48" y1="28" x2="1751.48" y2="388"/>
    <line class="cls-6" x1="1768.69" y1="28" x2="1768.69" y2="388"/>
    <line class="cls-9" x1="1080" y1="117.99" x2="1872" y2="117.99"/>
    <line class="cls-9" x1="1080" y1="207.99" x2="1872" y2="207.99"/>
    <line class="cls-9" x1="1080" y1="297.99" x2="1872" y2="297.99"/>
    <line class="cls-5" x1="1080" y1="163.03" x2="1872" y2="163.03"/>
    <line class="cls-5" x1="1080" y1="253.03" x2="1872" y2="253.03"/>
    <line class="cls-5" x1="1080" y1="343.03" x2="1872" y2="343.03"/>
    <line class="cls-5" x1="1080" y1="72.99" x2="1872" y2="72.99"/>
    <rect class="cls-1" x="1080" y="27.99" width="792" height="360"/>
    <path class="cls-4" d="m1080,87.85c5.2,1.23,21.61,5,31.21,7.39,9.6,2.4,18.18,4.6,26.38,6.99,8.21,2.39,15.69,5.01,22.86,7.34,7.17,2.34,13.8,5.05,20.16,6.67,6.37,1.63,12.31,1.78,18.03,3.09,5.72,1.32,11.12,3.37,16.32,4.81,5.2,1.43,10.13,2.85,14.89,3.8,4.77.95,9.31,1.16,13.71,1.88,4.39.72,8.6,1.28,12.68,2.44,4.08,1.16,8,3.4,11.8,4.53,3.81,1.13,7.48,1.48,11.05,2.26,3.57.78,7.01,1.3,10.37,2.42,3.36,1.12,6.61,3.06,9.79,4.27,3.17,1.21,6.25,2.25,9.26,2.99,3.01.74,5.92,1.15,8.78,1.48,2.85.33,5.63.28,8.35.51,2.72.23,5.36.73,7.96.89,2.59.16,5.13-.8,7.61.09,2.48.9,4.91,4.4,7.29,5.29,2.37.9,4.7-.63,6.98.09,2.28.72,4.51,3.18,6.71,4.25,2.19,1.07,4.35,2.1,6.46,2.16,2.12.06,4.18-1.55,6.23-1.8,2.03-.25,4.04-.22,6,.31,1.97.53,3.9,1.86,5.81,2.87,1.9,1.01,3.77,2.02,5.61,3.2,1.85,1.19,3.65,3.27,5.44,3.91,1.78.64,3.53.05,5.26-.08,1.73-.13,3.43-.79,5.12-.69,1.68.11,3.33.54,4.96,1.33,1.63.79,3.24,3.12,4.83,3.42,1.58.29,3.15-1.21,4.69-1.65,1.54-.44,3.06-.97,4.56-1,1.5-.04,2.98.03,4.45.79,1.47.76,2.91,2.71,4.33,3.76,1.43,1.05,2.83,2.15,4.23,2.52,1.39.37,2.77-.72,4.13-.28s2.7,2.26,4.03,2.89c1.33.63,2.64,1.14,3.94.9,1.29-.24,2.58-2.63,3.85-2.32,1.27.3,2.52,2.9,3.76,4.15,1.24,1.25,2.47,2.55,3.68,3.35,1.22.8,2.42,1.39,3.61,1.42,1.19.03,2.36-.87,3.53-1.24,1.17-.37,2.32-.99,3.46-.97,1.14.01,2.27.69,3.39,1.06,1.12.37,2.22.99,3.32,1.13,1.1.14,2.18-.97,3.26-.3,1.08.67,2.14,3.44,3.2,4.34,1.05.9,2.1,1.03,3.14,1.06,1.04.03,2.07-.81,3.08-.89,1.02-.08,2.03-.1,3.03.42,1,.51,1.99,2.47,2.98,2.66.98.19,1.95-1.19,2.92-1.5.96-.31,1.93-.09,2.87-.36.96-.27,1.89-1.21,2.83-1.24.93-.03,1.86.28,2.78,1.04.92.76,1.84,2.66,2.74,3.53.91.87,1.8,1.24,2.69,1.7.9.46,1.78.76,2.65,1.07.88.31,1.75.68,2.62.79s1.72-.43,2.57-.13c.86.3,1.7,1.51,2.54,1.91.84.38,1.67.4,2.5.42.83.02,1.66-.53,2.47-.28.81.25,1.62,1.51,2.42,1.76.81.25,1.61.25,2.4-.26.79-.5,1.58-2.72,2.36-2.76.77-.03,1.56,2,2.32,2.53.77.53,1.54.46,2.3.68.77.22,1.52.15,2.27.63.76.47,1.5,1.72,2.24,2.22.74.51,1.47.86,2.21.78.73-.07,1.46-1.14,2.18-1.23.72-.08,1.44.34,2.15.71.72.38,1.42.86,2.13,1.56.7.71,1.4,2.31,2.1,2.67.69.36,1.38-.18,2.07-.5.69-.32,1.38-1.15,2.05-1.39.68-.25,1.36-.1,2.03-.08.68.02,1.34.21,2,.22.67.02,1.33-.59,1.99-.13.65.45,1.3,2.65,1.95,2.85s1.29-1.68,1.94-1.69c.64-.02,1.28,1.19,1.91,1.62.63.42,1.27,1.08,1.89.93.63-.16,1.25-1.9,1.87-1.87.62.03,1.24,1.51,1.85,2.06.62.55,1.23.87,1.84,1.27.6.4,1.21,1.07,1.81,1.15.6.06,1.19-.71,1.79-.75s1.19-.02,1.78.51c.58.53,1.17,1.84,1.75,2.64.58.8,1.16,2.11,1.74,2.18.58.06,1.15-1.23,1.72-1.76.57-.51,1.14-1.46,1.7-1.35.57.1,1.13,1.63,1.69,2,.56.37,1.12-.1,1.67.23.55.33,1.1,1.58,1.66,1.72.54.15,1.1-.51,1.64-.83.54-.32,1.08-1.02,1.62-1.08.54-.07,1.07.29,1.61.66.53.37,1.06,1.51,1.59,1.55.53.04,1.05-.95,1.57-1.3.53-.34,1.05-.83,1.57-.77.52.06,1.04.71,1.55,1.13.52.41,1.03.55,1.54,1.35.51.79,1.01,2.39,1.52,3.41.51,1.02,1.01,2.69,1.51,2.72.5.03,1-1.49,1.5-2.51.49-1.03.99-3.06,1.48-3.61.49-.55.98.17,1.47.31.49.15.97.25,1.46.58.49.33.96.93,1.45,1.4.48.47.96,1.25,1.42,1.43.48.18.96-.45,1.42-.37.47.09.94.54,1.41.87.47.34.93,1.08,1.4,1.15.46.07.92-.61,1.38-.72s.91.31,1.38.05c.45-.26.91-1.63,1.36-1.65.45-.02.91.91,1.36,1.52.44.61.89,1.48,1.34,2.13.44.66.89,1.65,1.33,1.8.44.15.89-1.03,1.33-.9.44.13.87,1.47,1.31,1.65.44.19.87-.05,1.3-.51.44-.46.86-2.07,1.29-2.29.34-.18.95.23,1.29.95.42.91.85,3.75,1.27,4.53.3.55.97.4,1.26.15.42-.35.84-1.78,1.26-2.27.41-.49.83-.44,1.24-.66s.82-.81,1.24-.64c.41.16.82,1.07,1.23,1.63.4.55.82,1.22,1.22,1.71.4.49.81,1.35,1.21,1.22.4-.13.8-1.72,1.19-2,.4-.27.8.35,1.19.36.4.02.79-.48,1.19-.3.4.19.78.78,1.18,1.44.39.65.78,2.16,1.17,2.51.39.34.77-.23,1.16-.46.38-.24.77-.86,1.15-.95.38-.1.76.34,1.15.36.38.03.76-.35,1.14-.19.38.15.75.81,1.13,1.15.37.34.75.68,1.12.89.37.21.74.76,1.12.36.36-.4.73-2.71,1.1-2.78.37-.07.73,1.64,1.1,2.35.36.71.72,1.73,1.09,1.88.37.16.73-.66,1.09-.96.36-.3.72-.57,1.09-.84.35-.27.71-.78,1.07-.79.35-.02.71.27,1.06.71.35.42.71,1.45,1.06,1.86s.7.59,1.05.59c.35,0,.7-.12,1.05-.56.35-.44.69-1.84,1.04-2.09.35-.25.69.3,1.04.58.35.28.68.54,1.03,1.07.34.54.68,1.59,1.02,2.16.34.56.68,1.55,1.01,1.23.34-.31.68-3.13,1.01-3.13.33,0,.67,2.51,1,3.19.29.59.71.81,1,.87.33.07.66-.11.99-.45.33-.34.66-1.29.99-1.58.33-.3.65-.32.98-.17.33.15.65.52.97,1.07.33.55.65,1.96.97,2.24.32.28.64-.66.96-.57.32.09.64,1.15.96,1.08.31-.08.63-1.31.95-1.52.32-.22.63-.02.96.22.31.23.63,1.01.94,1.18.3.15.63-.56.94-.2.31.37.63,2.01.93,2.43.27.37.66.22.93.08.3-.16.62-.67.92-1.03.3-.37.61-.95.91-1.15.3-.2.61-.18.91-.06.3.12.61.34.91.79.3.44.61,1.85.91,1.89.3.04.6-.98.9-1.65.3-.68.6-2.08.9-2.41.28-.31.61,0,.89.4.29.42.58,1.68.88,2.09.21.29.67-.09.88.32.29.56.58,2.6.87,3.04.26.39.62-.12.87-.38.29-.3.58-1.56.86-1.4.29.16.58,1.96.86,2.34.25.34.61-.06.86,0,.29.06.57.59.86.39.28-.19.56-1.1.85-1.56.28-.46.56-1.07.84-1.23.28-.16.57.34.84.29.28-.05.56-.38.84-.6.28-.21.56-.83.83-.67.28.15.55,1.07.83,1.61.27.54.55,1.36.82,1.63s.55.26.82-.04c.27-.3.54-1.78.82-1.77.27.02.54,1.27.82,1.84.26.57.54,1.14.81,1.59.26.46.54,1.24.81,1.13.26-.12.54-1.65.8-1.83.26-.17.54.74.8.79.26.06.53-.73.79-.46.26.26.53,1.64.79,2.06.24.37.55.73.79.42.26-.35.52-1.6.78-2.52.26-.92.52-3.12.78-3,.26.12.51,3.05.77,3.7.14.37.63.28.77.2.26-.15.51-1.15.77-1.07.26.08.51.82.77,1.54.26.72.51,2.2.77,2.77.2.46.55.63.76.7.25.07.5-.21.76-.23.25-.02.49.08.75.07.25,0,.5-.34.75-.13.25.21.49,1.31.74,1.38.2.04.55-.43.75-1.03.24-.76.49-3.13.73-3.52.23-.36.51.52.74,1.17.24.71.49,2.09.73,3.05.24.97.49,2.04.72,2.77.25.72.49,2.07.73,1.58.24-.49.48-3.26.72-4.54.25-1.27.49-2.63.72-3.07.19-.34.53.08.72.46.24.48.48,2.12.72,2.41s.47-.33.71-.64c.24-.31.48-1.64.71-1.24.24.38.47,3.24.71,3.58.23.34.47-.89.7-1.56.24-.67.47-2.23.7-2.46.24-.24.47.49.7,1.07.23.57.46,1.96.69,2.39.16.31.53.23.69.18.23-.09.46-.82.69-.67.23.15.45,1.27.68,1.59.21.3.47.3.68.32.23.02.45-.34.68-.16.22.19.45.89.68,1.28s.45,1.18.68,1.08.44-1.52.68-1.66c.22-.14.44.94.67.82.22-.12.44-1.24.67-1.54.21-.29.45-.52.67-.26.22.27.44,1.48.66,1.9.21.42.44.83.66.67.22-.18.44-1.26.66-1.69.21-.44.44-1.25.65-.93.22.31.44,1.99.66,2.83.21.83.43,2.16.64,2.2.22.04.44-1.13.65-1.96.21-.84.43-2.93.64-3.04.21-.12.43,1.71.64,2.33.21.61.43,1.3.64,1.36.21.06.43-.93.63-.99.21-.05.43.7.63.67.21-.02.43-.9.63-.8.21.1.42,1.23.63,1.41.21.18.42-.16.63-.3.21-.14.42-.64.63-.52.21.12.42.95.63,1.25.21.31.41.42.62.62.21.21.41.44.62.62s.41.42.62.46c.21.03.41-.32.62-.25.21.07.4.88.61.68.21-.21.41-1.49.61-1.92.2-.42.42-.83.61-.7.21.14.4,1.25.61,1.53.17.26.42,0,.6.18.2.22.4.64.6,1.1s.4,1.46.6,1.65c.2.19.4-.28.59-.51.2-.22.4-.4.6-.86.2-.46.4-1.51.59-1.87.16-.28.44-.47.58-.29.2.24.4,1.39.59,1.72.16.27.43.28.58.27.2,0,.4-.3.58-.34.07-.02.51-.19.58.09.2.73.39,3.99.58,4.29.19.3.39-1.87.58-2.49.19-.63.39-1.44.58-1.25.19.18.39,2.09.58,2.33.19.23.38-.64.58-.91.19-.28.38-.71.57-.76.19-.05.38.63.57.47.19-.18.38-1.56.57-1.48.19.07.38,1.72.57,1.95.19.22.37-.83.56-.57.19.26.38,1.7.56,2.13.15.33.42.62.56.47.19-.21.38-1.51.56-1.68.19-.17.37.55.56.66.13.07.42-.24.55,0,.19.32.37,1.92.55,1.94.19.03.37-1.5.55-1.78.15-.23.4-.09.55.06.16.18.38.51.55,1.1.18.64.36,2.48.54,2.73.15.22.39-.56.54-1.2.18-.76.36-3.1.54-3.34.18-.25.36,1.23.54,1.88.18.64.36,1.8.54,2,.16.17.37-.38.54-.87.18-.53.35-1.67.54-2.3.18-.63.35-1.53.54-1.47.18.06.35,1.33.54,1.84.17.5.35.93.53,1.16.17.22.36.15.53.19.16.04.37.28.53.07.18-.22.35-.78.53-1.44.17-.66.35-2.69.53-2.53.17.17.35,2.36.52,3.53.17,1.18.35,3.09.53,3.54.14.35.38-.39.52-.87.17-.6.35-2.28.51-2.71.11-.25.42.09.52.16.17.13.35.57.52.59.16.02.34-.35.51-.44.06-.03.45-.32.51-.08.17.67.34,3.7.51,4.13.17.42.34-1.24.51-1.58.15-.3.35-.36.5-.43.17-.09.34-.2.51-.06.16.13.34.4.5.85.16.46.34,1.92.5,1.86.16-.06.34-1.56.5-2.2.16-.65.33-1.64.5-1.68.16-.04.33.99.49,1.43.16.42.33,1.08.49,1.15.16.06.33-.64.5-.8.16-.15.33-.31.49-.13.16.18.33.84.49,1.23s.33,1.19.49,1.13c.16-.07.33-1.31.49-1.52.16-.21.33.1.49.28.16.17.32.64.49.76.16.11.32.09.49-.07.16-.17.32-.74.49-.91.1-.11.38-.38.48-.15.16.37.32,1.81.49,2.33.13.44.34,1.12.48.79.16-.38.32-2.6.48-3.08.08-.24.4.14.48.18.1.06.38.08.48.36.16.45.31,2.12.47,2.35.16.22.32-.69.48-1,.16-.3.31-.95.47-.85.16.1.31,1.61.47,1.47.16-.14.31-2,.47-2.33.07-.15.4.07.47.35.16.62.31,3.08.47,3.37.16.3.31-1.46.47-1.62.15-.16.3.47.46.67.16.19.3.52.46.48.16-.03.31-.59.46-.7.11-.08.35-.16.46.04.16.28.3,1.69.46,1.64.16-.04.3-1.65.46-1.92.13-.24.32.1.45.32.16.25.3,1.11.45,1.17.16.06.3-.86.46-.79.15.06.3.89.45,1.2.15.3.3.49.45.65.15.15.3.3.44.29.16,0,.3-.18.45-.36.15-.17.3-.73.44-.68.16.05.3,1,.45.98.15-.02.3-.74.44-1.11.15-.38.3-1.48.44-1.13.15.34.3,2.54.44,3.15.08.34.36.61.44.53.15-.14.29-.97.44-1.4.15-.43.3-1.23.44-1.19.15.06.29,1.08.44,1.49.15.4.3.55.44.95.15.41.3,1.07.44,1.51.15.44.3,1.7.44,1.14.15-.56.3-3.54.44-4.51.11-.69.34-1.38.44-1.32.14.06.29,1.32.43,1.74.15.42.29.69.44.79.14.1.29-.15.43-.21.12-.05.32.04.43-.16.15-.25.29-1.67.43-1.35.15.31.29,2.22.43,3.25.14,1.02.29,2.67.43,2.89.14.22.28-1.11.43-1.56.14-.45.28-.84.42-1.12.14-.28.28-.77.42-.55.15.22.29,1.67.43,1.84.14.18.28-.54.42-.78.14-.25.28-.71.42-.67s.28.67.42.85c.14.18.28.26.41.23.14-.03.28-.33.42-.42s.28-.1.42-.14c.09-.02.32.09.41-.1.14-.28.27-1.55.41-1.6.14-.06.28.85.41,1.25.14.41.28,1.07.41,1.18.13.1.29-.23.41-.55.14-.34.27-1.46.41-1.45.14.02.27,1.35.41,1.55.13.19.27-.22.4-.38.11-.11.3-.81.41-.51.13.4.27,2.24.4,2.89.11.53.3.64.4,1,.13.46.27,2.07.4,1.7.14-.36.27-3.08.4-3.9.09-.55.31-1.03.4-1.03.13,0,.26.87.4,1.02.09.1.3.04.4-.14.14-.26.27-1.23.4-1.44.11-.18.29.33.4.15.13-.22.26-1.7.4-1.44.14.26.27,2.54.4,2.98.07.25.31-.22.4-.37.13-.25.26-1.03.4-1.14.13-.1.26.31.39.53.13.22.26.5.4.77.13.27.26,1.07.4.87s.26-1.91.39-2.07c.13-.16.26.8.4,1.1.12.3.26.75.39.71.13-.03.26-.82.39-.91.13-.09.26.59.39.36.13-.22.26-1.63.39-1.7.13-.06.26,1.11.39,1.31.11.16.28.05.39-.13.12-.21.26-1.42.38-1.13.13.29.26,2.21.39,2.87.11.57.27.91.38,1.1.09.15.3.04.39.25.12.3.26,1.51.38,1.53.12.03.26-1.15.38-1.36.1-.17.28.14.38.08.12-.07.26-.37.38-.53.12-.16.26-.69.38-.43.12.25.25,1.33.38,1.96.12.63.25,1.6.37,1.82.11.19.27-.18.38-.45.12-.33.25-1.24.37-1.48.09-.17.29-.09.37.07.13.23.26,1.32.38,1.31.12-.02.25-1.1.37-1.4.1-.24.27-.27.37-.38.12-.12.26-.13.37-.36.12-.24.25-1.15.37-1.1.12.06.24,1.38.36,1.45.12.06.25-1,.37-1.03.12-.04.25.38.37.8.12.44.24,1.56.36,1.84.08.18.28-.02.36-.2.12-.28.25-1.04.37-1.48.12-.44.24-1.11.36-1.17.12-.06.24.68.36.81.03.04.32-.23.36-.06.12.55.24,2.65.36,3.38.08.51.27,1.07.36.99.12-.1.24-1.19.35-1.65.12-.46.24-1.11.36-1.08.12.03.24.99.35,1.29.12.28.25.66.36.51.12-.16.24-1.33.35-1.47.12-.14.24.8.35.66.12-.14.24-1.48.36-1.51.12-.02.23.95.35,1.37.12.42.23,1.11.35,1.17.12.06.23-.51.35-.8.12-.3.23-1.1.35-.99.12.1.24,1.11.35,1.63.12.51.23,1.28.35,1.44.06.08.29-.2.35-.5.12-.58.24-2.5.35-2.96.05-.2.3.24.35.23.09,0,.26-.52.35-.3.12.26.23,1.34.35,1.87.12.54.24,1.31.35,1.31s.23-1.19.35-1.27c.12-.07.23,1.09.35.81.12-.28.22-2.04.34-2.49.05-.18.3-.34.35-.18.12.38.23,1.56.35,2.45.12.9.23,3.15.34,2.95.12-.21.23-3.52.35-4.18.03-.2.3.18.34.24.12.17.23.81.35.78.12-.03.22-1.03.34-.98.12.06.23,1.01.34,1.33.12.32.23.61.34.6.12,0,.23-.52.34-.63.12-.1.23-.11.34,0,.12.11.23.41.34.67.12.26.22.59.34.88,0,0,.34,1.39.34.91"/>
  </g>
  <g id="Schrift">
    <g>
      <path class="cls-11" d="m469.2,480.53v6.14h4.73v3.35h-4.73v15.75c0,1.02.21,1.78.63,2.29.42.51,1.14.76,2.16.76.5,0,1.19-.09,2.06-.28v3.5c-1.14.31-2.25.47-3.33.47-1.94,0-3.4-.59-4.38-1.76s-1.48-2.84-1.48-4.99v-15.73h-4.62v-3.35h4.62v-6.14h4.34Z"/>
      <path class="cls-11" d="m490.9,479.94c0-.7.21-1.3.64-1.78s1.07-.73,1.91-.73,1.48.24,1.92.73.66,1.08.66,1.78-.22,1.29-.66,1.76-1.08.7-1.92.7-1.48-.23-1.91-.7-.64-1.05-.64-1.76Zm4.69,32.09h-4.34v-25.36h4.34v25.36Z"/>
      <path class="cls-11" d="m506.63,486.67l.14,3.19c1.94-2.44,4.47-3.66,7.59-3.66,5.36,0,8.06,3.02,8.11,9.07v16.76h-4.34v-16.78c-.02-1.83-.43-3.18-1.25-4.05s-2.1-1.31-3.83-1.31c-1.41,0-2.64.38-3.7,1.12s-1.89,1.73-2.48,2.95v18.07h-4.34v-25.36h4.1Z"/>
      <path class="cls-11" d="m555.66,505.3c0-1.17-.44-2.08-1.32-2.73s-2.42-1.21-4.62-1.68-3.94-1.03-5.23-1.69-2.24-1.44-2.86-2.34-.93-1.98-.93-3.23c0-2.08.88-3.84,2.64-5.27s4-2.16,6.74-2.16c2.88,0,5.21.74,7,2.23s2.68,3.38,2.68,5.7h-4.36c0-1.19-.5-2.21-1.51-3.07s-2.28-1.29-3.81-1.29-2.81.34-3.7,1.03-1.34,1.59-1.34,2.7c0,1.05.41,1.84,1.24,2.37s2.32,1.04,4.49,1.52,3.92,1.06,5.26,1.73,2.34,1.48,2.99,2.43.97,2.1.97,3.46c0,2.27-.91,4.08-2.72,5.45s-4.16,2.05-7.05,2.05c-2.03,0-3.83-.36-5.39-1.08s-2.79-1.72-3.67-3.01-1.32-2.68-1.32-4.18h4.34c.08,1.45.66,2.61,1.75,3.46s2.52,1.28,4.3,1.28c1.64,0,2.96-.33,3.95-1s1.49-1.55,1.49-2.66Z"/>
    </g>
    <g>
      <path class="cls-11" d="m32.4,272.99c-.38.19-1.04.34-2,.46,1.57,1.51,2.36,3.32,2.36,5.41,0,1.88-.53,3.41-1.59,4.61s-2.41,1.8-4.03,1.8c-1.98,0-3.52-.75-4.61-2.26s-1.64-3.62-1.64-6.35v-3.16h-1.49c-1.14,0-2.04.34-2.72,1.02s-1.01,1.68-1.01,3.01c0,1.16.29,2.13.88,2.92s1.29,1.18,2.13,1.18v3.27c-.95,0-1.87-.34-2.75-1.01s-1.58-1.59-2.1-2.74-.77-2.42-.77-3.81c0-2.19.55-3.91,1.64-5.15s2.6-1.89,4.53-1.93h8.75c1.75,0,3.13-.22,4.17-.67h.28v3.41Zm-2.48,5.4c0-1.02-.26-1.99-.79-2.9s-1.21-1.58-2.06-1.99h-3.9v2.55c0,3.98,1.17,5.98,3.5,5.98,1.02,0,1.82-.34,2.39-1.02s.86-1.55.86-2.62Z"/>
      <path class="cls-11" d="m13.38,262.09l2.11-.09c-1.64-1.39-2.46-3.28-2.46-5.64,0-2.66,1.02-4.47,3.06-5.43-.91-.63-1.65-1.46-2.21-2.47s-.84-2.21-.84-3.59c0-4.17,2.21-6.29,6.63-6.36h12.74v3.25h-12.55c-1.36,0-2.38.31-3.05.93s-1.01,1.66-1.01,3.13c0,1.21.36,2.21,1.08,3.01s1.69,1.26,2.91,1.39h12.62v3.27h-12.46c-2.77,0-4.15,1.35-4.15,4.06,0,2.13.91,3.59,2.72,4.38h13.89v3.25H13.38v-3.08Z"/>
      <path class="cls-11" d="m23.1,217.53c2.89,0,5.23.66,7,1.99s2.65,3.12,2.65,5.38-.73,4.12-2.2,5.45h9.16v3.25H13.38v-2.97l2.11-.16c-1.64-1.32-2.46-3.16-2.46-5.52s.86-4.09,2.58-5.42,4.12-2,7.19-2h.3Zm-.37,3.25c-2.14,0-3.84.46-5.08,1.37s-1.86,2.17-1.86,3.76c0,1.97.87,3.45,2.62,4.43h9.09c1.73-.97,2.6-2.46,2.6-4.46,0-1.56-.62-2.8-1.85-3.72s-3.07-1.38-5.51-1.38Z"/>
      <path class="cls-11" d="m32.4,209.87v3.25H5.4v-3.25h27Z"/>
      <path class="cls-11" d="m8.34,204.65c-.53,0-.97-.16-1.34-.48s-.54-.8-.54-1.43.18-1.11.54-1.44.81-.49,1.34-.49.97.16,1.32.49.53.81.53,1.44-.18,1.11-.53,1.43-.79.48-1.32.48Zm24.06-3.52v3.25H13.38v-3.25h19.02Z"/>
      <path class="cls-11" d="m8.77,191.52h4.61v-3.55h2.51v3.55h11.81c.76,0,1.33-.16,1.72-.47.38-.32.57-.86.57-1.62,0-.38-.07-.89-.21-1.55h2.62c.23.86.35,1.69.35,2.5,0,1.45-.44,2.55-1.32,3.29s-2.13,1.11-3.74,1.11h-11.79v3.46h-2.51v-3.46h-4.61v-3.25Z"/>
      <path class="cls-11" d="m30.52,172.43c1.49,1.27,2.23,3.12,2.23,5.57,0,2.03-.59,3.57-1.77,4.63s-2.92,1.6-5.23,1.61h-12.38v-3.25h12.29c2.88,0,4.32-1.17,4.32-3.52,0-2.48-.93-4.14-2.78-4.96h-13.83v-3.25h19.02v3.09l-1.88.07Z"/>
      <path class="cls-11" d="m22.73,165.11c-2.92,0-5.26-.69-7.04-2.07s-2.66-3.19-2.66-5.43.76-3.99,2.29-5.29H5.4v-3.25h27v2.99l-2.04.16c1.59,1.3,2.39,3.11,2.39,5.43s-.9,4-2.71,5.39-4.16,2.08-7.07,2.08h-.25Zm.37-3.25c2.16,0,3.84-.45,5.06-1.34s1.83-2.12,1.83-3.69c0-2.06-.93-3.57-2.78-4.52h-8.74c-1.79.97-2.69,2.47-2.69,4.48,0,1.59.62,2.84,1.85,3.73s3.05,1.34,5.47,1.34Z"/>
      <path class="cls-11" d="m32.75,136.13c0,2.58-.85,4.68-2.54,6.29s-3.96,2.43-6.79,2.43h-.6c-1.89,0-3.57-.36-5.05-1.08s-2.64-1.73-3.48-3.02-1.26-2.7-1.26-4.21c0-2.47.81-4.39,2.44-5.77s3.96-2.06,7-2.06h1.35v12.88c1.88-.05,3.39-.59,4.54-1.64s1.73-2.38,1.73-4c0-1.15-.23-2.12-.7-2.92s-1.09-1.49-1.86-2.09l1.55-1.99c2.45,1.59,3.67,3.98,3.67,7.17Zm-17.05.4c0,1.31.48,2.41,1.43,3.3s2.29,1.44,4.02,1.65v-9.53h-.25c-1.65.09-2.93.54-3.84,1.34s-1.36,1.88-1.36,3.23Z"/>
    </g>
    <g>
      <path class="cls-11" d="m56.03,389.25h-8.58v-2.65h8.58v2.65Z"/>
      <path class="cls-11" d="m69.55,398.79h-3.27v-21.67l-6.56,2.41v-2.95l9.32-3.5h.51v25.72Z"/>
      <path class="cls-11" d="m79.48,397.09c0-.56.17-1.03.5-1.41s.83-.56,1.5-.56,1.17.19,1.52.56.52.84.52,1.41-.17.99-.52,1.35-.85.54-1.52.54-1.17-.18-1.5-.54-.5-.81-.5-1.35Z"/>
      <path class="cls-11" d="m104.6,387.88c0,3.81-.65,6.64-1.95,8.49s-3.33,2.78-6.1,2.78-4.75-.91-6.06-2.72-1.99-4.51-2.04-8.11v-4.34c0-3.76.65-6.56,1.95-8.38s3.34-2.74,6.12-2.74,4.78.88,6.08,2.65,1.97,4.49,2,8.17v4.22Zm-3.25-4.45c0-2.75-.39-4.76-1.16-6.02s-2-1.89-3.67-1.89-2.88.63-3.64,1.88-1.15,3.18-1.18,5.78v5.2c0,2.77.4,4.81,1.2,6.13s2.02,1.98,3.65,1.98,2.8-.62,3.58-1.86,1.19-3.2,1.22-5.87v-5.33Z"/>
    </g>
    <g>
      <path class="cls-11" d="m70.41,38.79h-3.27v-21.67l-6.56,2.41v-2.95l9.32-3.5h.51v25.72Z"/>
      <path class="cls-11" d="m80.35,37.09c0-.56.17-1.03.5-1.41s.83-.56,1.5-.56,1.17.19,1.52.56.52.84.52,1.41-.17.99-.52,1.35-.85.54-1.52.54-1.17-.18-1.5-.54-.5-.81-.5-1.35Z"/>
      <path class="cls-11" d="m105.47,27.88c0,3.81-.65,6.64-1.95,8.49s-3.33,2.78-6.1,2.78-4.75-.91-6.06-2.72-1.99-4.51-2.04-8.11v-4.34c0-3.76.65-6.56,1.95-8.38s3.34-2.74,6.12-2.74,4.78.88,6.08,2.65,1.97,4.49,2,8.17v4.22Zm-3.25-4.45c0-2.75-.39-4.76-1.16-6.02s-2-1.89-3.67-1.89-2.88.63-3.64,1.88-1.15,3.18-1.18,5.78v5.2c0,2.77.4,4.81,1.2,6.13s2.02,1.98,3.65,1.98,2.8-.62,3.58-1.86,1.19-3.2,1.22-5.87v-5.33Z"/>
    </g>
    <g>
      <path class="cls-11" d="m75.78,207.88c0,3.81-.65,6.64-1.95,8.49s-3.33,2.78-6.1,2.78-4.75-.91-6.06-2.72-1.99-4.51-2.04-8.11v-4.34c0-3.76.65-6.56,1.95-8.38s3.34-2.74,6.12-2.74,4.78.88,6.08,2.65,1.97,4.49,2,8.17v4.22Zm-3.25-4.45c0-2.75-.39-4.76-1.16-6.02s-2-1.89-3.67-1.89-2.88.63-3.64,1.88-1.15,3.18-1.18,5.78v5.2c0,2.77.4,4.81,1.2,6.13s2.02,1.98,3.65,1.98,2.8-.62,3.58-1.86,1.19-3.2,1.22-5.87v-5.33Z"/>
      <path class="cls-11" d="m80.35,217.09c0-.56.17-1.03.5-1.41s.84-.56,1.5-.56,1.17.19,1.52.56.52.84.52,1.41-.17.99-.52,1.35-.85.54-1.52.54-1.17-.18-1.5-.54-.5-.81-.5-1.35Z"/>
      <path class="cls-11" d="m105.47,207.88c0,3.81-.65,6.64-1.95,8.49s-3.33,2.78-6.1,2.78-4.75-.91-6.06-2.72-1.99-4.51-2.04-8.11v-4.34c0-3.76.65-6.56,1.95-8.38s3.34-2.74,6.12-2.74,4.78.88,6.08,2.65,1.97,4.49,2,8.17v4.22Zm-3.25-4.45c0-2.75-.39-4.76-1.16-6.02s-2-1.89-3.67-1.89-2.88.63-3.64,1.88-1.15,3.18-1.18,5.78v5.2c0,2.77.4,4.81,1.2,6.13s2.02,1.98,3.65,1.98,2.8-.62,3.58-1.86,1.19-3.2,1.22-5.87v-5.33Z"/>
    </g>
    <g>
      <path class="cls-11" d="m504.42,434.68c0,3.81-.65,6.64-1.95,8.49s-3.33,2.78-6.1,2.78-4.75-.91-6.06-2.72-1.99-4.51-2.04-8.11v-4.34c0-3.76.65-6.56,1.95-8.38s3.34-2.74,6.12-2.74,4.78.88,6.08,2.65,1.97,4.49,2,8.17v4.22Zm-3.25-4.45c0-2.75-.39-4.76-1.16-6.02s-2-1.89-3.67-1.89-2.88.63-3.64,1.88-1.15,3.18-1.18,5.78v5.2c0,2.77.4,4.81,1.2,6.13s2.02,1.98,3.65,1.98,2.8-.62,3.58-1.86,1.19-3.2,1.22-5.87v-5.33Z"/>
      <path class="cls-11" d="m508.99,443.89c0-.56.17-1.03.5-1.41s.83-.56,1.5-.56,1.17.19,1.52.56.52.84.52,1.41-.17.99-.52,1.35-.85.54-1.52.54-1.17-.18-1.5-.54-.5-.81-.5-1.35Z"/>
      <path class="cls-11" d="m519.56,432.76l1.3-12.76h13.11v3.01h-10.35l-.77,6.98c1.25-.74,2.68-1.11,4.27-1.11,2.33,0,4.18.77,5.55,2.31s2.06,3.62,2.06,6.25-.71,4.71-2.14,6.23-3.41,2.28-5.97,2.28c-2.26,0-4.11-.63-5.54-1.88s-2.24-2.99-2.44-5.2h3.08c.2,1.46.72,2.57,1.56,3.31s1.96,1.12,3.34,1.12c1.51,0,2.7-.52,3.56-1.55s1.29-2.46,1.29-4.27c0-1.71-.47-3.08-1.4-4.12s-2.17-1.56-3.72-1.56c-1.42,0-2.53.31-3.34.93l-.86.7-2.6-.67Z"/>
    </g>
    <path class="cls-11" d="m895.06,445.59h-3.27v-21.67l-6.56,2.41v-2.95l9.32-3.5h.51v25.72Z"/>
    <g>
      <path class="cls-11" d="m1413.13,512.03v-22.01h-4.01v-3.35h4.01v-2.6c0-2.72.73-4.82,2.18-6.3s3.51-2.23,6.16-2.23c1,0,1.99.13,2.98.4l-.23,3.5c-.73-.14-1.52-.21-2.34-.21-1.41,0-2.49.41-3.26,1.23-.77.82-1.15,2-1.15,3.54v2.68h5.41v3.35h-5.41v22.01h-4.34Z"/>
      <path class="cls-11" d="m1439.57,479.94c0-.7.21-1.3.64-1.78s1.07-.73,1.91-.73,1.48.24,1.92.73.66,1.08.66,1.78-.22,1.29-.66,1.76-1.08.7-1.92.7-1.48-.23-1.91-.7-.64-1.05-.64-1.76Zm4.69,32.09h-4.34v-25.36h4.34v25.36Z"/>
      <path class="cls-11" d="m1455.29,486.67l.14,3.19c1.94-2.44,4.47-3.66,7.59-3.66,5.36,0,8.06,3.02,8.11,9.07v16.76h-4.34v-16.78c-.02-1.83-.43-3.18-1.25-4.05s-2.1-1.31-3.83-1.31c-1.41,0-2.64.38-3.7,1.12s-1.89,1.73-2.48,2.95v18.07h-4.34v-25.36h4.1Z"/>
      <path class="cls-11" d="m1516.46,512.03h-4.52v-15.77h-17.2v15.77h-4.5v-34.12h4.5v14.67h17.2v-14.67h4.52v34.12Z"/>
      <path class="cls-11" d="m1527.85,508.49h14.84v3.54h-20.13v-3.19l13.99-18.59h-13.78v-3.59h19.22v3.07l-14.13,18.75Z"/>
    </g>
    <g>
      <path class="cls-11" d="m1066.71,445.59h-3.27v-21.67l-6.56,2.41v-2.95l9.32-3.5h.51v25.72Z"/>
      <path class="cls-11" d="m1092.28,434.68c0,3.81-.65,6.64-1.95,8.49s-3.33,2.78-6.1,2.78-4.75-.91-6.06-2.72-1.99-4.51-2.04-8.11v-4.34c0-3.76.65-6.56,1.95-8.38s3.34-2.74,6.12-2.74,4.78.88,6.08,2.65,1.97,4.49,2,8.17v4.22Zm-3.25-4.45c0-2.75-.39-4.76-1.16-6.02s-2-1.89-3.67-1.89-2.88.63-3.64,1.88-1.15,3.18-1.18,5.78v5.2c0,2.77.4,4.81,1.2,6.13s2.02,1.98,3.65,1.98,2.8-.62,3.58-1.86,1.19-3.2,1.22-5.87v-5.33Z"/>
      <path class="cls-11" d="m1105.34,433.61h-9.78v-1.36l5.17-5.74c.76-.87,1.29-1.57,1.58-2.12.29-.54.44-1.11.44-1.69,0-.78-.24-1.42-.71-1.92s-1.1-.75-1.89-.75c-.94,0-1.68.27-2.2.8s-.78,1.28-.78,2.24h-1.9c0-1.37.44-2.48,1.33-3.33.88-.85,2.07-1.27,3.55-1.27,1.39,0,2.48.36,3.29,1.09.81.73,1.21,1.7,1.21,2.91,0,1.47-.94,3.22-2.81,5.25l-4,4.33h7.49v1.55Z"/>
    </g>
    <g>
      <path class="cls-11" d="m1411.05,445.59h-3.27v-21.67l-6.56,2.41v-2.95l9.32-3.5h.51v25.72Z"/>
      <path class="cls-11" d="m1436.63,434.68c0,3.81-.65,6.64-1.95,8.49s-3.33,2.78-6.1,2.78-4.75-.91-6.06-2.72-1.99-4.51-2.04-8.11v-4.34c0-3.76.65-6.56,1.95-8.38s3.34-2.74,6.12-2.74,4.78.88,6.08,2.65,1.97,4.49,2,8.17v4.22Zm-3.25-4.45c0-2.75-.39-4.76-1.16-6.02s-2-1.89-3.67-1.89-2.88.63-3.64,1.88-1.15,3.18-1.18,5.78v5.2c0,2.77.4,4.81,1.2,6.13s2.02,1.98,3.65,1.98,2.8-.62,3.58-1.86,1.19-3.2,1.22-5.87v-5.33Z"/>
      <path class="cls-11" d="m1442.67,425.22h1.42c.9-.01,1.6-.25,2.11-.71s.77-1.08.77-1.86c0-1.75-.87-2.62-2.61-2.62-.82,0-1.47.23-1.96.7-.49.47-.73,1.09-.73,1.86h-1.9c0-1.18.43-2.16,1.3-2.95.86-.78,1.96-1.17,3.29-1.17,1.41,0,2.51.37,3.31,1.12.8.74,1.2,1.78,1.2,3.1,0,.65-.21,1.28-.63,1.89-.42.61-.99,1.06-1.72,1.36.82.26,1.45.69,1.9,1.29.45.6.67,1.34.67,2.2,0,1.34-.44,2.4-1.31,3.19-.87.79-2.01,1.18-3.41,1.18s-2.54-.38-3.42-1.14-1.32-1.76-1.32-3h1.91c0,.79.26,1.41.77,1.89.51.47,1.2.71,2.06.71.92,0,1.62-.24,2.1-.72.49-.48.73-1.17.73-2.06s-.27-1.53-.8-2c-.53-.46-1.3-.7-2.31-.72h-1.42v-1.55Z"/>
    </g>
    <g>
      <path class="cls-11" d="m1755.4,445.59h-3.27v-21.67l-6.56,2.41v-2.95l9.32-3.5h.51v25.72Z"/>
      <path class="cls-11" d="m1780.98,434.68c0,3.81-.65,6.64-1.95,8.49s-3.33,2.78-6.1,2.78-4.75-.91-6.06-2.72-1.99-4.51-2.04-8.11v-4.34c0-3.76.65-6.56,1.95-8.38s3.34-2.74,6.12-2.74,4.78.88,6.08,2.65,1.97,4.49,2,8.17v4.22Zm-3.25-4.45c0-2.75-.39-4.76-1.16-6.02s-2-1.89-3.67-1.89-2.88.63-3.64,1.88-1.15,3.18-1.18,5.78v5.2c0,2.77.4,4.81,1.2,6.13s2.02,1.98,3.65,1.98,2.8-.62,3.58-1.86,1.19-3.2,1.22-5.87v-5.33Z"/>
      <path class="cls-11" d="m1792.26,428.59h2.07v1.55h-2.07v3.46h-1.91v-3.46h-6.79v-1.12l6.68-10.34h2.02v9.91Zm-6.55,0h4.64v-7.32l-.23.41-4.42,6.91Z"/>
    </g>
    <g>
      <path class="cls-11" d="m56.03,299.25h-8.58v-2.65h8.58v2.65Z"/>
      <path class="cls-11" d="m74.91,297.88c0,3.81-.65,6.64-1.95,8.49s-3.33,2.78-6.1,2.78-4.75-.91-6.06-2.72-1.99-4.51-2.04-8.11v-4.34c0-3.76.65-6.56,1.95-8.38s3.34-2.74,6.12-2.74,4.78.88,6.08,2.65,1.97,4.49,2,8.17v4.22Zm-3.25-4.45c0-2.75-.39-4.76-1.16-6.02s-2-1.89-3.67-1.89-2.88.63-3.64,1.88-1.15,3.18-1.18,5.78v5.2c0,2.77.4,4.81,1.2,6.13s2.02,1.98,3.65,1.98,2.8-.62,3.58-1.86,1.19-3.2,1.22-5.87v-5.33Z"/>
      <path class="cls-11" d="m79.48,307.09c0-.56.17-1.03.5-1.41s.83-.56,1.5-.56,1.17.19,1.52.56.52.84.52,1.41-.17.99-.52,1.35-.85.54-1.52.54-1.17-.18-1.5-.54-.5-.81-.5-1.35Z"/>
      <path class="cls-11" d="m90.04,295.96l1.3-12.76h13.11v3.01h-10.35l-.77,6.98c1.25-.74,2.68-1.11,4.27-1.11,2.33,0,4.18.77,5.55,2.31s2.06,3.62,2.06,6.25-.71,4.71-2.14,6.23-3.41,2.28-5.97,2.28c-2.26,0-4.11-.63-5.54-1.88s-2.24-2.99-2.44-5.2h3.08c.2,1.46.72,2.57,1.56,3.31s1.96,1.12,3.34,1.12c1.51,0,2.7-.52,3.56-1.55s1.29-2.46,1.29-4.27c0-1.71-.47-3.08-1.4-4.12s-2.17-1.56-3.72-1.56c-1.42,0-2.53.31-3.34.93l-.86.7-2.6-.67Z"/>
    </g>
    <g>
      <path class="cls-11" d="m75.78,117.88c0,3.81-.65,6.64-1.95,8.49s-3.33,2.78-6.1,2.78-4.75-.91-6.06-2.72-1.99-4.51-2.04-8.11v-4.34c0-3.76.65-6.56,1.95-8.38s3.34-2.74,6.12-2.74,4.78.88,6.08,2.65,1.97,4.49,2,8.17v4.22Zm-3.25-4.45c0-2.75-.39-4.76-1.16-6.02s-2-1.89-3.67-1.89-2.88.63-3.64,1.88-1.15,3.18-1.18,5.78v5.2c0,2.77.4,4.81,1.2,6.13s2.02,1.98,3.65,1.98,2.8-.62,3.58-1.86,1.19-3.2,1.22-5.87v-5.33Z"/>
      <path class="cls-11" d="m80.35,127.09c0-.56.17-1.03.5-1.41s.83-.56,1.5-.56,1.17.19,1.52.56.52.84.52,1.41-.17.99-.52,1.35-.85.54-1.52.54-1.17-.18-1.5-.54-.5-.81-.5-1.35Z"/>
      <path class="cls-11" d="m90.91,115.96l1.3-12.76h13.11v3.01h-10.35l-.77,6.98c1.25-.74,2.68-1.11,4.27-1.11,2.33,0,4.18.77,5.55,2.31s2.06,3.62,2.06,6.25-.71,4.71-2.14,6.23-3.41,2.28-5.97,2.28c-2.26,0-4.11-.63-5.54-1.88s-2.24-2.99-2.44-5.2h3.08c.2,1.46.72,2.57,1.56,3.31s1.96,1.12,3.34,1.12c1.51,0,2.7-.52,3.56-1.55s1.29-2.46,1.29-4.27c0-1.71-.47-3.08-1.4-4.12s-2.17-1.56-3.72-1.56c-1.42,0-2.53.31-3.34.93l-.86.7-2.6-.67Z"/>
    </g>
    <g>
      <path class="cls-11" d="m990,272.99c-.38.19-1.04.34-2,.46,1.57,1.51,2.36,3.32,2.36,5.41,0,1.88-.53,3.41-1.59,4.61s-2.41,1.8-4.03,1.8c-1.98,0-3.52-.75-4.61-2.26s-1.64-3.62-1.64-6.35v-3.16h-1.49c-1.14,0-2.04.34-2.72,1.02s-1.01,1.68-1.01,3.01c0,1.16.29,2.13.88,2.92s1.29,1.18,2.13,1.18v3.27c-.95,0-1.87-.34-2.75-1.01s-1.58-1.59-2.1-2.74-.77-2.42-.77-3.81c0-2.19.55-3.91,1.64-5.15s2.6-1.89,4.53-1.93h8.75c1.75,0,3.13-.22,4.17-.67h.28v3.41Zm-2.48,5.4c0-1.02-.26-1.99-.79-2.9s-1.21-1.58-2.06-1.99h-3.9v2.55c0,3.98,1.17,5.98,3.5,5.98,1.02,0,1.82-.34,2.39-1.02s.86-1.55.86-2.62Z"/>
      <path class="cls-11" d="m970.98,262.09l2.11-.09c-1.64-1.39-2.46-3.28-2.46-5.64,0-2.66,1.02-4.47,3.06-5.43-.91-.63-1.65-1.46-2.21-2.47s-.84-2.21-.84-3.59c0-4.17,2.21-6.29,6.63-6.36h12.74v3.25h-12.55c-1.36,0-2.38.31-3.05.93s-1.01,1.66-1.01,3.13c0,1.21.36,2.21,1.08,3.01s1.69,1.26,2.91,1.39h12.62v3.27h-12.46c-2.77,0-4.15,1.35-4.15,4.06,0,2.13.91,3.59,2.72,4.38h13.89v3.25h-19.02v-3.08Z"/>
      <path class="cls-11" d="m980.7,217.53c2.89,0,5.23.66,7,1.99s2.65,3.12,2.65,5.38-.73,4.12-2.2,5.45h9.16v3.25h-26.33v-2.97l2.11-.16c-1.64-1.32-2.46-3.16-2.46-5.52s.86-4.09,2.58-5.42,4.12-2,7.19-2h.3Zm-.37,3.25c-2.14,0-3.84.46-5.08,1.37s-1.86,2.17-1.86,3.76c0,1.97.87,3.45,2.62,4.43h9.09c1.73-.97,2.6-2.46,2.6-4.46,0-1.56-.62-2.8-1.85-3.72s-3.07-1.38-5.51-1.38Z"/>
      <path class="cls-11" d="m990,209.87v3.25h-27v-3.25h27Z"/>
      <path class="cls-11" d="m965.94,204.65c-.53,0-.97-.16-1.34-.48s-.54-.8-.54-1.43.18-1.11.54-1.44.81-.49,1.34-.49.97.16,1.32.49.53.81.53,1.44-.18,1.11-.53,1.43-.79.48-1.32.48Zm24.06-3.52v3.25h-19.02v-3.25h19.02Z"/>
      <path class="cls-11" d="m966.38,191.52h4.61v-3.55h2.51v3.55h11.81c.76,0,1.33-.16,1.72-.47.38-.32.57-.86.57-1.62,0-.38-.07-.89-.21-1.55h2.62c.23.86.35,1.69.35,2.5,0,1.45-.44,2.55-1.32,3.29s-2.13,1.11-3.74,1.11h-11.79v3.46h-2.51v-3.46h-4.61v-3.25Z"/>
      <path class="cls-11" d="m988.12,172.43c1.49,1.27,2.23,3.12,2.23,5.57,0,2.03-.59,3.57-1.77,4.63s-2.92,1.6-5.23,1.61h-12.38v-3.25h12.29c2.88,0,4.32-1.17,4.32-3.52,0-2.48-.93-4.14-2.78-4.96h-13.83v-3.25h19.02v3.09l-1.88.07Z"/>
      <path class="cls-11" d="m980.33,165.11c-2.92,0-5.26-.69-7.04-2.07s-2.66-3.19-2.66-5.43.76-3.99,2.29-5.29h-9.91v-3.25h27v2.99l-2.04.16c1.59,1.3,2.39,3.11,2.39,5.43s-.9,4-2.71,5.39-4.16,2.08-7.07,2.08h-.25Zm.37-3.25c2.16,0,3.84-.45,5.06-1.34s1.83-2.12,1.83-3.69c0-2.06-.93-3.57-2.78-4.52h-8.74c-1.79.97-2.69,2.47-2.69,4.48,0,1.59.62,2.84,1.85,3.73s3.05,1.34,5.47,1.34Z"/>
      <path class="cls-11" d="m990.35,136.13c0,2.58-.85,4.68-2.54,6.29s-3.96,2.43-6.79,2.43h-.6c-1.89,0-3.57-.36-5.05-1.08s-2.64-1.73-3.48-3.02-1.26-2.7-1.26-4.21c0-2.47.81-4.39,2.44-5.77s3.96-2.06,7-2.06h1.35v12.88c1.88-.05,3.39-.59,4.54-1.64s1.73-2.38,1.73-4c0-1.15-.23-2.12-.7-2.92s-1.09-1.49-1.86-2.09l1.55-1.99c2.45,1.59,3.67,3.98,3.67,7.17Zm-17.05.4c0,1.31.48,2.41,1.43,3.3s2.29,1.44,4.02,1.65v-9.53h-.25c-1.65.09-2.93.54-3.84,1.34s-1.36,1.88-1.36,3.23Z"/>
    </g>
    <path class="cls-11" d="m108.42,434.68c0,3.81-.65,6.64-1.95,8.49s-3.33,2.78-6.1,2.78-4.75-.91-6.06-2.72-1.99-4.51-2.04-8.11v-4.34c0-3.76.65-6.56,1.95-8.38s3.34-2.74,6.12-2.74,4.78.88,6.08,2.65,1.97,4.49,2,8.17v4.22Zm-3.25-4.45c0-2.75-.39-4.76-1.16-6.02s-2-1.89-3.67-1.89-2.88.63-3.64,1.88-1.15,3.18-1.18,5.78v5.2c0,2.77.4,4.81,1.21,6.13s2.02,1.98,3.65,1.98,2.8-.62,3.58-1.86,1.19-3.2,1.22-5.87v-5.33Z"/>
    <g>
      <path class="cls-10" d="m1018.86,164h-8.58v-2.65h8.58v2.65Z"/>
      <path class="cls-10" d="m1032.38,173.55h-3.27v-21.67l-6.56,2.41v-2.95l9.32-3.5h.51v25.72Z"/>
      <path class="cls-10" d="m1058.68,173.55h-16.77v-2.34l8.86-9.84c1.31-1.49,2.22-2.7,2.72-3.63s.75-1.9.75-2.89c0-1.34-.4-2.43-1.21-3.29s-1.89-1.28-3.23-1.28c-1.62,0-2.87.46-3.77,1.38s-1.34,2.2-1.34,3.84h-3.25c0-2.36.76-4.26,2.28-5.71s3.55-2.18,6.09-2.18c2.38,0,4.26.62,5.64,1.87s2.07,2.91,2.07,4.98c0,2.52-1.61,5.52-4.82,9l-6.86,7.44h12.85v2.65Z"/>
    </g>
    <path class="cls-10" d="m1057.96,72.6c0,3.81-.65,6.64-1.95,8.49s-3.33,2.78-6.1,2.78-4.75-.91-6.06-2.72-1.99-4.51-2.04-8.11v-4.34c0-3.76.65-6.56,1.95-8.38s3.34-2.74,6.12-2.74,4.78.88,6.08,2.65,1.97,4.49,2,8.17v4.22Zm-3.25-4.45c0-2.75-.39-4.76-1.16-6.02s-2-1.89-3.67-1.89-2.88.63-3.64,1.88-1.15,3.18-1.18,5.78v5.2c0,2.77.4,4.81,1.2,6.13s2.02,1.98,3.65,1.98,2.8-.62,3.58-1.86,1.19-3.2,1.22-5.87v-5.33Z"/>
    <g>
      <path class="cls-10" d="m1018.87,254h-8.58v-2.65h8.58v2.65Z"/>
      <path class="cls-10" d="m1038.47,263.55h-16.77v-2.34l8.86-9.84c1.31-1.49,2.22-2.7,2.72-3.63s.75-1.9.75-2.89c0-1.34-.4-2.43-1.21-3.29s-1.89-1.28-3.23-1.28c-1.62,0-2.87.46-3.77,1.38s-1.34,2.2-1.34,3.84h-3.25c0-2.36.76-4.26,2.28-5.71s3.55-2.18,6.09-2.18c2.38,0,4.26.62,5.64,1.87s2.07,2.91,2.07,4.98c0,2.52-1.61,5.52-4.82,9l-6.86,7.44h12.85v2.65Z"/>
      <path class="cls-10" d="m1055.64,254.95h3.55v2.65h-3.55v5.94h-3.27v-5.94h-11.65v-1.92l11.46-17.74h3.46v17Zm-11.23,0h7.96v-12.55l-.39.7-7.58,11.85Z"/>
    </g>
    <g>
      <path class="cls-10" d="m1018.86,344h-8.58v-2.65h8.58v2.65Z"/>
      <path class="cls-10" d="m1026.42,339.17h2.44c1.54-.02,2.74-.43,3.62-1.21s1.32-1.85,1.32-3.18c0-3-1.49-4.5-4.48-4.5-1.41,0-2.53.4-3.37,1.2s-1.26,1.87-1.26,3.19h-3.25c0-2.03.74-3.71,2.22-5.05s3.37-2.01,5.65-2.01c2.41,0,4.31.64,5.68,1.92s2.06,3.05,2.06,5.33c0,1.11-.36,2.19-1.08,3.23s-1.7,1.82-2.95,2.34c1.41.45,2.49,1.18,3.26,2.21s1.15,2.29,1.15,3.78c0,2.3-.75,4.12-2.25,5.47s-3.45,2.02-5.85,2.02-4.36-.65-5.86-1.95-2.26-3.02-2.26-5.15h3.27c0,1.35.44,2.43,1.32,3.23s2.06,1.21,3.53,1.21c1.57,0,2.77-.41,3.6-1.23s1.25-2,1.25-3.53-.46-2.63-1.37-3.43-2.23-1.21-3.96-1.23h-2.44v-2.65Z"/>
      <path class="cls-10" d="m1054.67,327.94v2.76h-.6c-2.53.05-4.55.8-6.05,2.25s-2.37,3.5-2.6,6.13c1.35-1.55,3.19-2.32,5.52-2.32s4.01.79,5.34,2.36,1.99,3.6,1.99,6.08c0,2.64-.72,4.75-2.15,6.33s-3.36,2.37-5.78,2.37-4.44-.94-5.96-2.82-2.29-4.3-2.29-7.27v-1.25c0-4.71,1.01-8.31,3.02-10.8s5-3.76,8.97-3.82h.58Zm-4.27,11.53c-1.11,0-2.14.33-3.08,1s-1.59,1.51-1.95,2.51v1.2c0,2.11.47,3.81,1.42,5.1s2.13,1.93,3.55,1.93,2.62-.54,3.46-1.62,1.26-2.49,1.26-4.24-.42-3.18-1.27-4.26-1.98-1.63-3.38-1.63Z"/>
    </g>
  </g>
</svg>