<?xml version="1.0" encoding="UTF-8"?><svg xmlns="http://www.w3.org/2000/svg" viewBox="0 0 1908 532.8"><defs><style>.uuid-9ae29938-c7d3-4762-8d41-80f200a9f95e,.uuid-358c2641-ccc0-445e-b34d-2fb666e84ee3,.uuid-d79cc9eb-dcba-43f1-8ccc-6a8203862d40,.uuid-6d2b8c92-35c7-41d6-b5ca-a39a96bf21cb,.uuid-a1be1879-85a6-45af-87bd-c31eca90b874,.uuid-f4b52fb8-1941-48db-abaf-05a573a04e24,.uuid-6837e32a-011f-466d-b68c-277100da0b8b,.uuid-76ef2816-1c79-4e36-971b-b750dddda9e8,.uuid-7fe7dbf3-b14e-4f9f-8b96-d59dbda76e19{fill:none;}.uuid-9ae29938-c7d3-4762-8d41-80f200a9f95e,.uuid-358c2641-ccc0-445e-b34d-2fb666e84ee3,.uuid-d79cc9eb-dcba-43f1-8ccc-6a8203862d40,.uuid-a1be1879-85a6-45af-87bd-c31eca90b874,.uuid-6837e32a-011f-466d-b68c-277100da0b8b,.uuid-76ef2816-1c79-4e36-971b-b750dddda9e8,.uuid-7fe7dbf3-b14e-4f9f-8b96-d59dbda76e19{stroke-miterlimit:10;}.uuid-9ae29938-c7d3-4762-8d41-80f200a9f95e,.uuid-6d2b8c92-35c7-41d6-b5ca-a39a96bf21cb{stroke:#307eef;}.uuid-9ae29938-c7d3-4762-8d41-80f200a9f95e,.uuid-7fe7dbf3-b14e-4f9f-8b96-d59dbda76e19{stroke-width:2.83px;}.uuid-358c2641-ccc0-445e-b34d-2fb666e84ee3{stroke-width:1.42px;}.uuid-358c2641-ccc0-445e-b34d-2fb666e84ee3,.uuid-d79cc9eb-dcba-43f1-8ccc-6a8203862d40,.uuid-a1be1879-85a6-45af-87bd-c31eca90b874,.uuid-6837e32a-011f-466d-b68c-277100da0b8b,.uuid-76ef2816-1c79-4e36-971b-b750dddda9e8,.uuid-7fe7dbf3-b14e-4f9f-8b96-d59dbda76e19{stroke:#c9d1d9;}.uuid-358c2641-ccc0-445e-b34d-2fb666e84ee3,.uuid-d79cc9eb-dcba-43f1-8ccc-6a8203862d40,.uuid-7fe7dbf3-b14e-4f9f-8b96-d59dbda76e19{opacity:.8;}.uuid-d79cc9eb-dcba-43f1-8ccc-6a8203862d40{stroke-width:1.53px;}.uuid-6d2b8c92-35c7-41d6-b5ca-a39a96bf21cb{stroke-linecap:round;stroke-linejoin:round;stroke-width:3.02px;}.uuid-a1be1879-85a6-45af-87bd-c31eca90b874{stroke-width:2.14px;}.uuid-f4b52fb8-1941-48db-abaf-05a573a04e24{stroke:rgba(201,209,217,.2);stroke-miterlimit:20;}.uuid-f4b52fb8-1941-48db-abaf-05a573a04e24,.uuid-6837e32a-011f-466d-b68c-277100da0b8b{stroke-width:1.98px;}.uuid-0a89ae34-c2a8-4c65-9502-5bed34c54677{fill:#c5cdd5;}.uuid-0a89ae34-c2a8-4c65-9502-5bed34c54677,.uuid-4fd00695-e423-4707-83ec-230132b8de96,.uuid-4f253692-f23f-41c2-af1a-e5657a242b23{font-family:Roboto-Regular, Roboto;}.uuid-0a89ae34-c2a8-4c65-9502-5bed34c54677,.uuid-4f253692-f23f-41c2-af1a-e5657a242b23{font-size:36px;}.uuid-76ef2816-1c79-4e36-971b-b750dddda9e8{stroke-width:2.83px;}.uuid-4fd00695-e423-4707-83ec-230132b8de96{font-size:48px;}.uuid-4fd00695-e423-4707-83ec-230132b8de96,.uuid-4f253692-f23f-41c2-af1a-e5657a242b23{fill:#c6ced6;}</style></defs><g id="uuid-3dce8418-04b6-4996-bc3c-faa59c6c4152"><path class="uuid-9ae29938-c7d3-4762-8d41-80f200a9f95e" d="M115.2,174.29c.4,68.54.79,202.24,1.19,205.62,2.11-26.77.15-252.13,2.37-301.21.14-8.27,1.05-41.06,1.19-27.37.4,39.51.79,227.52,1.19,264.43.23,21.45.96-33.94,1.19-42.9.39-15.42.79-64.38,1.18-49.63.4,14.76.8,150.74,1.19,138.16.75-22.39.28-241.2,2.38-269.94.39,22.08.79,192.84,1.18,188.81.4-4.04.8-226.4,1.19-213.01.4,13.39.79,292.31,1.19,293.36.4,1.04.79-245.94,1.19-287.09,3.35,7.44.71,212.73,2.37,223.35.86-119.06,2.46-114.79,3.57-212.13.39,21.03.79,243.28,1.18,243.13.4-.16.8-209.46,1.19-244.07.21-18.21.98,30.67,1.19,36.41,1.92,34.99,1.91,210.81,2.37,208.16.4-10.94.8-250.06,1.19-244.81.4,5.26.79,262.33,1.19,276.34.4,14.01.79-179.41,1.19-192.29-2.61-5.36,3.4,166.8,2.36,180.03,1.15-19.35,2.03-222.59,2.39-213.71.39,17.17.79,211.64,1.19,250.16.09,9.51,1.09-10.78,1.18-19,.4-33.31.8-178.45,1.19-180.87.4-2.43.79,149.27,1.19,166.31,2.76-10.34.9-226.82,2.37-230.02.4,2.89.8,174.24,1.19,183.26.4,9.01.79-111.74,1.19-129.18.28-12.24.91,12.26,1.19,24.52,1.93,252.39,1.59-176.6,2.37-156.76.4,17.15.79,330.56,1.19,340.04.4,9.48.79-278.7,1.19-283.18.39-4.48.79,211.86,1.19,256.3.04,5.17,1.14,15.2,1.18,10.3.4-42.08.8-253.43,1.19-262.79.4-9.37.79,200.6,1.19,206.61.39,6,.79-138.26,1.19-170.61.14-11.77,1.04-33.68,1.18-23.52.27,141.05,2.99,223,3.57,216.28.39-29.9.79-211.15,1.19-243.67.29-24.29.89,51.51,1.18,48.56.4-3.95.79-59.72,1.19-72.27,4.81,14.6.09,193.67,2.38,202.22.39,13.53.79-114.29,1.18-124.1.4-9.81.8,67.66,1.19,65.23.4-2.42.79-93.29,1.19-79.79,1.19,10.93-1.23,142.62,2.37,159.4.4-9.18.8-46.57,1.19-53.69,1.34-5.08,2.11,66.15,2.38,46.7.39-25.76.79-186.5,1.18-190.34,2.77,9-1.16,176.55,2.38,212.27.03.64,1.16,9.08,1.19,6.03.39-40.42.79-232.36,1.19-248.56.63-12.76.85,215.23,2.37,218.53.4-14.11.79-129.59,1.19-151.85.16-9.16,1.02,9.47,1.19,18.31.6,42.61,1.4,152.1,2.37,192.53.09,2.92,1.1-3.6,1.19-7.25.39-15.6.79-93.54,1.19-86.37.39,7.17.79,116.17,1.18,129.4.4,13.23.8-47.14,1.19-50.03,1.08-2.97.95,56.45,2.38,49.92,1.01-43.86,1.29-152.67,2.37-201.91,1.83-170.61,1.7,117.5,2.38,137.78.39,21.4.79-66.31,1.19-63.63.39,2.67.79,60.92,1.18,79.7,1.18,18.69-.67,29,2.38,35.68,1.53-200.88-.13-165.73,4.75-251.6.99,36.06.47,268.22,2.38,98.99.39-38.38.79-179.69,1.18-167.43.4,12.26.79,191.52,1.19,240.97,2.08,188,1.66-211.42,3.56-229.17,1.45,38.99,1.8,322.9,2.38,332.94.4-7.79.79-231.42,1.19-277.33.01-1.04,1.18,1.91,1.18,1.86.17-.9,1.03-22.46,1.19-14.96.29,34.7,2.21,281.49,2.38,288.3.39-17.93.79-246.31,1.19-271.7.04-21.46.82,135.43,2.37,153.6.19.96,1-10.93,1.19-21.89.39-23.49.79-122.79,1.19-119.05.39,3.74.79,135.26,1.18,141.48.4,6.22.8-84.49,1.19-104.2.14-7.05,1.05-20.43,1.19-14.06.39,17.81.79,97.29,1.19,120.95.17,10.52,1.01,27.01,1.18,21.03.4-13.44.8-96.79,1.19-101.66.4-4.88.79,51.35,1.19,72.43.31,16.75.87,81.19,1.19,54.13.39-34.08.79-244.95,1.19-258.61.39-13.66.79,170.62,1.18,176.67.4,6.05.79-129,1.19-140.39.4-11.39.79,71.04,1.19,72.08.39,1.04.79-51.09,1.19-65.84.11-4.2,1.07-34.03,1.18-22.68.4,39.9.8,228.11,1.19,262.09.33,28.56.86-29.11,1.19-58.23.39-34.64.79-135.95,1.19-149.62.39-13.67.79,67.87,1.18,67.58.4-.29.8-43.72,1.19-69.3.4-25.58.79-90.89,1.19-84.18,1.19,9.98-.49,127.18,2.38,141.25.39-22.36.79-172.26,1.18-150.97,1.04,39.77-.04,288.8,2.38,347.58.12-19.48,2-234.01,2.37-236.78.4,17.02.8,196,1.19,216.39.4,20.39.79-93.82,1.19-94.08.39-.27.79,104.82,1.19,92.5.38-15.52,1.03-237.18,2.37-238.58.4,23.25.79,179.91,1.19,211.64.13,10.63,1.05-20.11,1.19-21.22.09-.76,1.09,1.97,1.19,1.23.39-3.18.79-19.63,1.18-20.3.09-.14,1.11,24.39,1.19,16.25.4-38.72.79-242.07,1.19-248.58.39-6.51.79,202.33,1.19,209.54.39,7.21.79-129.16,1.18-166.3,1.88-166.79,1.5,114.19,3.57,148.74,1.73,269.56,1.58-80.57,2.37-129.81.89-27.43.21,196.24,2.38,88.95.39-8.07.79-13.76,1.18-18.95.08-1.01,1.11-18.28,1.19-12.17.4,31.09.79,173.03,1.19,198.7.34,22.32.84-43.3,1.19-44.63.39-1.53.79,34.77,1.19,35.46,2.52-46.07,1.49-192.23,2.37-229.82,1.33-4.44,1.77,129.81,2.38,160.5,1.86,218.93,1.73-196.51,2.37-210.68-3.96-18.81,5.27,278.53,2.37,284.6,2.39-190.84,4.45-260.14,5.95-276.14.39,8.12.79,132.59,1.18,134.55.4,1.96.79-118.25,1.19-122.8.4-4.55.79,92.09,1.19,95.48.39,3.4.79-94.28,1.19-75.08.39,19.2.79,175.09,1.18,190.26-2.16,7.07,3.39-163.79,2.37-174.58,1.33,13.61,1.86,206.45,2.38,193.52.4-18.83.8-196.18,1.19-244.01.7-29.22.35-42.26,2.38-55.21,2.85,64.61,1.36,285.47,2.37,331.96,1.02-25.19,3.14-181.89,3.57-245.63.39-4.79.79,106.58,1.18,129.88.06,3.15,1.14,14.92,1.19,9.93.4-36.82.79-217.62,1.19-230.85.24,23.16,2.7,200.47,4.75,245.38.4,4.53.79-51.89,1.19-49.07.39,2.83.79,76.4,1.19,66,.88-38.97,1.53-220.63,2.37-260.49,2.26,38.48,1.55,281.08,2.38,288.15.39-3.69.79-244.78,1.18-257.18.07-4.61,1.27,250.1,2.38,266.19.39-9.26.79-145.15,1.19-139.03.39,6.13.79,178.71,1.18,175.81.4-2.89.8-158.48,1.19-193.19.09-7.58,1.1-20.71,1.19-15.13.4,25.6.79,148.02,1.19,168.7.39,20.68.79-49.3,1.19-44.63.39,4.66.79,72.11,1.18,72.64.54-.46,1.48-126.41,2.38-117.53.39,13.61.79,154.29,1.19,129.79.67-56.95.71-473.67,2.37-153.51.4,42.14.79,126.08,1.19,129.5,2.11-34.18-.11-210.44,3.56-246.79.4,32.71.79,220.43,1.19,211.58.4-8.85.79-226.86,1.19-264.67.19-18.91.99,19.57,1.19,37.8.7,67.29.87,248.47,3.56,286.9.66-49.54.97-235.02,2.37-288.88,4.44,33.99,3.07,261.43,4.75,264,.4-32.72.8-257.96,1.19-300.43.83-28.26-.05,72.16,2.38,37.56,3.32,45.35,1.1,246.25,2.37,258.03.26-121.67,2.95-228.89,4.75-301.34.4,34.93.8,270.83,1.19,283.21.4,12.37.79-183.67,1.19-208.98.39-25.31.79,31.65,1.19,57.12.39,25.47.79,108.99,1.18,95.69.4-13.29.8-163.37,1.19-175.45,1.67,25.55,1.45,248.9,2.38,284.02,2.58-20.62.56-173.89,3.56-215.18.24-2.06.94,18.98,1.19,12.64,1.99-232.87,1.6,174.12,2.37,180.91,1.8-7.12-.49-212.47,2.38-255.86.35-11.01.83-20.61,1.19-22,3,32.27,1.25,83.27,2.37,138.2.4,46.81.79,164.41,1.19,155.28.39-9.13.79-194.75,1.19-210.06.78-13.29.02,129.28,2.37,141.37.4-12.35.79-95.05,1.19-97.23.76,10.8.71,151.15,2.38,40.89,1.9-169.69,1.59,103.78,2.37,109.34.4,2.34.79-129.11,1.19-151.62,2.83,14.48,1.32,182.41,2.37,161.45.4-21.86.8-254.37,1.19-276.09.4-21.72.79,129.39,1.19,145.77.6,18.6,1.38-93.25,2.37-81.63.4,11.12.8,99.82,1.19,100.87.4,1.04.79-87.79,1.19-94.6.4-6.81.79,50.74,1.19,53.74.39,3,.79-38.31,1.19-35.74.39,2.57.79,56.36,1.18,51.19.4-5.18.79-88.38,1.19-82.23,1.24,9.89-.68,113.13,2.38,131.91.39-14.68.79-108.41,1.18-100.86.4,7.55.8,143.54,1.19,146.16.4,2.62.79-126.3,1.19-130.44.39-4.15.79,78.52,1.19,105.56,1.92,198.2,1.73-198.08,2.37-212.65.4-31.14.79,81.6,1.19,82.44,1.99-219.68,1.55,109.29,2.38,158.6.08,9.02,1.1,22.06,1.18,18.02.4-18.94.79-110.27,1.19-131.66,2.81,11.99,1.37-34.3,2.38-41.82.78-26.27,1.36-34.87,2.37-3.93.4,14.16.79,58.93,1.19,64.11,1.27,3.65,1.65-99.02,2.37-75.77.4,22.64.8,167.42,1.19,178.51,1.02-2.57,1.59-253.21,2.38-247.26.39,16.18.79,229.64,1.18,232.38,1.37-213.48,1.49-143.95,3.57-256.8.39,32.87.79,313.14,1.19,318.08.39,4.94.79-250.76,1.18-288.47.33-31.11.86,67.73,1.19,62.21.4-6.67.79-90.84,1.19-102.29.94-11.47-.45,30.93,2.37,35.5.4,41.92.8,209.34,1.19,249.62.04,4,1.15-7.85,1.19-7.95,3.93-20.42.73-176.72,2.38-175.46.39-1.04.79,152.56,1.18,170.41.82,13.77,1.59-135.27,2.38-134.95.39,3.78.79,108.93,1.19,94.37.39-14.56.79-166.6,1.18-181.72,1,3.26,1.56,183.03,2.38,198.52.68,3.36,1.06-115.29,2.37-113.49.4,8.65.8,100.86,1.19,91.9.4-8.97.79-158.33,1.19-145.69.4,12.64.79,207.29,1.19,221.53.39,14.24.79-120.03,1.18-136.09.4-16.05.8,54.07,1.19,39.77.4-14.31.79-112.85,1.19-125.59,2.07,14.32,2.7,229.64,3.56,227.19.4-24.9.79-242.04,1.19-258.69.51,97.25,2.78,172,3.56,266.51.72-13.22,1.12-330.73,2.38-316.37.77,61.08.61,537.37,2.37,191.13.4-47.49.8-173.34,1.19-156.56.4,16.77.79,236.07,1.19,257.21.4,21.14.79-99.99,1.19-130.37,1.76-152.59,1.72,83.84,2.37,116.41.07,5.13,1.12,24.54,1.19,16.36.4-49.14.79-268.5,1.19-311.17,1.47,2.51,1.79,172.67,2.37,208.21.99,14.49,2.03,76.9,2.38,64.19.39-26.37.79-182.93,1.19-196.71.39-13.77.79,74.09,1.18,114.06.4,39.98.8,143.25,1.19,125.79.4-17.46.79-230.98,1.19-230.55.4.42.79,221.65,1.19,233.09,1.04,3.21,1.13-294.3,2.37-287.78.98,35.59-.38,233.01,2.38,288.83.98-20.1,1.77-54.53,2.37-85.3.4-23.18.8-91.21,1.19-89.3.4,1.9.79,103.94,1.19,100.69.39-3.25.79-117.29,1.19-120.21.39-2.91.79,108.51,1.18,102.72.4-5.78.8-102.19,1.19-137.4.97-43.13.04-72.13,2.38-91.2.39,48.67.79,295.22,1.19,309.33,1.51,12.13-1.24-196.34,2.37-232.59.4,22.14.79,133.06,1.19,140.79.39,7.72.79-67.57,1.19-94.44.39-26.88.79-86.33,1.18-66.82.4,19.52.8,186.24,1.19,183.9.4-2.33.79-207.42,1.19-197.91,1.07,16.92-.63,235.85,2.37,278.1.4-28.05.8-191.34,1.19-191.44.75,7.37-.12,189.11,2.38,220.8.39-14.52.79-115.61,1.19-117.13.39-1.52.79,109.85,1.18,108,.4-1.85.79-120.83,1.19-119.07.4,1.76.79,144.59,1.19,129.64.39-14.95.79-206.8,1.19-219.34.39-12.54.79,122.3,1.18,144.1,5.19-47.98,2.84-241.85,5.94-260.14.4,42.3.79,285.63,1.19,320,1.25-48.57,3.27-183.04,3.56-302.63.4-14.44.79,116.16,1.19,136.75.13,6.64,1.06-12.79,1.19-13.25.08-.31,1.1,7.04,1.19,4.66.39-10.94.79-70.56,1.18-70.28,1.62,35.78,1.72,216.13,2.38,242.57-.61-9.98,2.03-119.58,2.37-156.84.4-35,.8-144.9,1.19-153.56.4-8.66.79,94.25,1.19,101.62.39,7.36.79-54.55,1.19-57.45.39-2.9.79,28.2,1.18,40.06.39,11.6.8,46.59,1.19,31.06.4-15.86.79-150.94,1.19-126.23.4,24.71.79,235.57,1.19,274.51.21,20.46.98-46.02,1.19-40.93.39,9.69.79,122.44,1.18,99.08.4-23.37.79-231.37,1.19-239.31.4-7.94.79,186.85,1.19,191.68.96-2.99.41-281.38,2.37-102.16.82,23.14.42,135.43,2.38,65.74.83-23.62.99-151.62,2.37-155.64.4,14.2.8,159.77,1.19,142.24.4-17.52.79-257.98,1.19-247.38.4,10.6.79,308.03,1.19,310.98.39,2.96.79-246.56,1.19-293.22.05-6.65,1.13,7.39,1.18,13.27.4,41.21.79,204.22,1.19,234.02,1.53,22.92,1.64-206.4,2.38-188.98.39,15.21.79,229.26,1.18,224.96.4-4.3.8-255.34,1.19-250.75.4,4.59.79,238.54,1.19,278.32,2.65-37.19,1.36-250.45,2.37-295.1,1.9,19.36,1.74,226.31,2.38,256.92.4,23.04.79-70.1,1.19-69.03,2.15,221.95,2.5-184.88,3.56-206.5.4-6.13.79,109.72,1.19,121.49.39,11.76.79-60.9,1.19-50.93.39,9.97.79,111.05,1.18,110.72.4-.33.8-107.36,1.19-112.71.4-5.35.79,61.53,1.19,80.63,2.53,28.73,1.35,190.56,2.37,178.74.4-20.17.8-218.29,1.19-265.76.08-9.56,1.11-23.04,1.19-19.11.4,19.55.79,132.44,1.19,136.39.65,11.33.42-182.32,2.37-81.99.4,41.14.79,213.77,1.19,216.17,1.56,1.56-.13-261.15,2.38-261.16.39,33.99.79,236.6,1.18,263.3.94-6.73,1.73-212.64,2.38-247.65.92-6.04,1.82,42.41,2.37,32.32.4-8.5.8-84.12,1.19-69.77.4,14.35.79,135.23,1.19,155.84.31,16.08.88-28.93,1.19-32.16.06-.64,1.12,3.63,1.19,7.31.39,24.01.79,148,1.18,136.7.45-36.41,1.11-257.69,2.38-307.99,1.06-8.21,1.64,41.82,2.37,44.03,3.54,5.05.96,21.68,2.38,36.91.39,14.92.79,55.17,1.19,53.19.39-1.97.79-68.26,1.18-65.04,1.45,81.03,3.15,79.21,3.57,193.93,1.19-11.22,1.58-261.96,2.37-257,.4,16.77.79,228.2,1.19,248.39.4,20.2.79-141.19,1.19-127.21.39,13.98.79,229.55,1.19,211.09.39-18.45.79-303.55,1.18-321.79.4-18.24.8,181.79,1.19,212.33.19,14.54,1-31.73,1.19-29.08.39,5.57.79,73.05,1.19,62.49.39-10.57.79-108.09,1.18-125.88.22-9.56.98,18.82,1.19,19.11.26.35.93-23.78,1.19-15.84.4,12.33.79,87.76,1.19,89.85.39,2.08.79-84.2,1.18-77.36.4,6.85.8,102.99,1.19,118.41,4.11-47.02,1.6-180.34,4.75-241.19.4-8.87.8-32.24,1.19-24.03,1.13,41.98,1.86,154.19,2.38,202.29,1.32,25.55,1.73,134.87,2.37,128.33,1.48-210.08,1.55-119.94,3.56-222.54.4,10.68.8,181.65,1.19,166.92.4-14.73.79-247.27,1.19-255.3.73-21.96.25,319.18,2.38,163.15.12-1.74,1.06,15.52,1.18,10.34.4-16.72.79-134.01,1.19-110.67.4,23.33.79,260.97,1.19,250.67.39-10.3.79-311.4,1.19-312.47.39-1.07.79,262.45,1.18,306.03,3.31-43.53-.29-256.56,3.57-317.03.39,19.64.79,97.85,1.18,132.27,1.25,123.55,1.49,59.73,2.38-15.23.4-23.3.79-73.1,1.19-50.3,1.08,29.35-.12,206.06,2.37,225.22.4-32.89.79-193.07,1.19-235.39.09-9.26,1.1-23.96,1.19-18.5.39,24.97.79,136.87,1.19,168.35.12,10.26,1.05,24.84,1.18,20.51.4-13.26.8-88.07,1.19-100.09,1.26-12.52,1.31,67.59,2.38,63.2,2.11-8.6.76-142.26,2.37-130.32,2.27,13.49-2.02,166.33,2.38,176.45.39-10.2.79-62.92,1.19-58.16.39,4.76.79,74.52,1.18,86.71,3.61-50.09.89-250.31,2.38-281.13,3.89-13.03-.82,215.5,2.37,228.9.39,5.14.79-72.28,1.18-77.64,2.69-1.74-.52,60.42,2.38,68.08,4.23-50.67.54-341.18,3.56-131.62,1.7,139.45,1.69-81.11,2.38-78.38.39,6.06.79,159.21,1.18,160.94.4,1.73.79-176.68,1.19-150.57.4,26.11.79,297.41,1.19,307.25.39,9.85.79-234.64,1.19-248.18,1.58-13.37-1.41,143.06,2.37,168.81.4-36.26.79-231.74,1.19-219.41.39,12.33.79,272,1.19,293.36.39,21.37.79-119.26,1.18-165.16,1.91-312.49,2.18,170.29,3.57,190.77.39-14.63.79-234.38,1.18-235.69.4-1.3.8,219.4,1.19,227.9,1.92-.49.29-283.7,2.38-288.09.39,16.26.79,189.15,1.19,208.75.39,19.59.79-93.36,1.18-91.15.4,2.21.8,120.7,1.19,104.39.4-16.3.79-175.2,1.19-202.21.29-20.08.89,32.36,1.19,40.16,2.74,16.76,1.12,109.08,2.37,105.01.4-9.66.79-152.52,1.19-140.26.4,12.26.79,213.15,1.19,213.8.39.66.79-214.32,1.18-209.89.4,4.43.8,240.9,1.19,236.48.4-4.43.79-209.98,1.19-263.06.21-27.71.98-80.02,1.19-55.42.39,47.12.79,306.36,1.19,338.12,3.54-2.19-.9-258.31,3.57-284.4.38,12.79.78,124.44,1.18,123.38.39-1.06.79-118.82,1.18-129.74.4-10.91.8,61.42,1.19,64.25.25,1.78.94-70.92,1.19-47.28.39,37.72.79,238.02,1.19,273.61,2.52,18.47,1.02-237.61,2.37-228.17.4,7.78.79,199.61,1.19,214.87.4,15.26.79-110.99,1.19-123.31.38-12.05.8,74.13,1.19,49.42.39-25.25.79-210.85,1.18-200.91.4,9.94.79,210.99,1.19,260.55.15,18.4,1.04,54.38,1.19,36.78.39-47.4.79-315.86,1.19-321.22.39-5.35.79,272.57,1.18,289.09.4,16.52.8-192.73,1.19-189.98.4,2.76.79,222.6,1.19,206.49.39-16.11.79-271.03,1.19-303.12,1.57-27.68.73,200.18,2.37,203.89.4-3.83.79-129.15,1.19-116.33.4,12.83.79,195.55,1.19,193.27-.17,5,1.09-332.25,2.37-155.8.4,22.49.79,77.43,1.19,83.83,1.36-23.7,1.97-144.63,2.38-168.81,2.98,47.59,1.35,198.47,3.56,250.76,2.29-27.48,1.5-156.65,2.37-175.13.4-9.87.8,79.26,1.19,81.06,1.3-30.04,1.91-204.01,2.38-226.67.39-9.96.79,92.65,1.19,96.7.39,4.04.79-66.7,1.18-72.44,3.15,58.23,1.08,276.72,2.38,311.99.39,21.36.79-97.12,1.19-145.81.39-48.68.79-144.38,1.18-146.27.4-1.89.8,119.77,1.19,134.95.4,15.18.79-63.53,1.19-43.89,1.24,26.85.08,193.97,2.37,211.6.56-36.55.44-182.32,2.38-226.37,2.41,11.32,3.39,126.37,3.56,140.48.4-2.23.79-112.41,1.19-127.9.25-9.72.94,17.48,1.19,34.97,1.19,25.4.13,204.76,2.37,94.62.4-39.59.8-209.78,1.19-199.92.4,9.86.79,258.89,1.19,259.09-1.12-3.57.69-228.54,2.36-268.22.41,45.37.81,268.91,1.2,282.54.4,13.63.79-194.31,1.19-200.76.4-6.45.79,133.51,1.19,162.06.06,4.65,1.12,12.87,1.18,9.27.66-43.79,1.13-183.48,2.38-227.18.3-8.54.89,19.67,1.19,17.06.39-3.48.79-31.51,1.19-37.94,4.2,36.79.16,181.25,3.56,220.17,1.17-33.99,1.64-207.38,2.37-234.84.77,27.36,2.18,267.47,2.38,288.37,3.83,4.3-.91-266.81,2.38-251.74"/></g><g id="uuid-8d432348-6c73-427f-866c-81495d4069f0"><line class="uuid-d79cc9eb-dcba-43f1-8ccc-6a8203862d40" x1="1183.3" y1="28" x2="1183.3" y2="388"/><line class="uuid-d79cc9eb-dcba-43f1-8ccc-6a8203862d40" x1="1243.57" y1="28" x2="1243.57" y2="388"/><line class="uuid-d79cc9eb-dcba-43f1-8ccc-6a8203862d40" x1="1286.61" y1="28" x2="1286.61" y2="388"/><line class="uuid-d79cc9eb-dcba-43f1-8ccc-6a8203862d40" x1="1319.32" y1="28" x2="1319.32" y2="388"/><line class="uuid-d79cc9eb-dcba-43f1-8ccc-6a8203862d40" x1="1346.87" y1="28" x2="1346.87" y2="388"/><line class="uuid-d79cc9eb-dcba-43f1-8ccc-6a8203862d40" x1="1370.97" y1="28" x2="1370.97" y2="388"/><line class="uuid-d79cc9eb-dcba-43f1-8ccc-6a8203862d40" x1="1389.91" y1="28" x2="1389.91" y2="388"/><line class="uuid-d79cc9eb-dcba-43f1-8ccc-6a8203862d40" x1="1407.13" y1="28" x2="1407.13" y2="388"/><line class="uuid-a1be1879-85a6-45af-87bd-c31eca90b874" x1="1424.35" y1="28" x2="1424.35" y2="388"/><line class="uuid-d79cc9eb-dcba-43f1-8ccc-6a8203862d40" x1="1527.65" y1="28" x2="1527.65" y2="388"/><line class="uuid-d79cc9eb-dcba-43f1-8ccc-6a8203862d40" x1="1587.91" y1="28" x2="1587.91" y2="388"/><line class="uuid-d79cc9eb-dcba-43f1-8ccc-6a8203862d40" x1="1630.96" y1="28" x2="1630.96" y2="388"/><line class="uuid-d79cc9eb-dcba-43f1-8ccc-6a8203862d40" x1="1663.67" y1="28" x2="1663.67" y2="388"/><line class="uuid-d79cc9eb-dcba-43f1-8ccc-6a8203862d40" x1="1691.22" y1="28" x2="1691.22" y2="388"/><line class="uuid-d79cc9eb-dcba-43f1-8ccc-6a8203862d40" x1="1715.32" y1="28" x2="1715.32" y2="388"/><line class="uuid-d79cc9eb-dcba-43f1-8ccc-6a8203862d40" x1="1734.26" y1="28" x2="1734.26" y2="388"/><line class="uuid-d79cc9eb-dcba-43f1-8ccc-6a8203862d40" x1="1751.48" y1="28" x2="1751.48" y2="388"/><line class="uuid-a1be1879-85a6-45af-87bd-c31eca90b874" x1="1768.7" y1="28" x2="1768.7" y2="388"/><line class="uuid-6837e32a-011f-466d-b68c-277100da0b8b" x1="1080" y1="117.99" x2="1872" y2="117.99"/><line class="uuid-6837e32a-011f-466d-b68c-277100da0b8b" x1="1080" y1="207.99" x2="1872" y2="207.99"/><line class="uuid-6837e32a-011f-466d-b68c-277100da0b8b" x1="1080" y1="297.99" x2="1872" y2="297.99"/><line class="uuid-358c2641-ccc0-445e-b34d-2fb666e84ee3" x1="1080" y1="163.03" x2="1872" y2="163.03"/><line class="uuid-358c2641-ccc0-445e-b34d-2fb666e84ee3" x1="1080" y1="253.03" x2="1872" y2="253.03"/><line class="uuid-358c2641-ccc0-445e-b34d-2fb666e84ee3" x1="1080" y1="343.03" x2="1872" y2="343.03"/><line class="uuid-358c2641-ccc0-445e-b34d-2fb666e84ee3" x1="1080" y1="72.99" x2="1872" y2="72.99"/><rect class="uuid-7fe7dbf3-b14e-4f9f-8b96-d59dbda76e19" x="1080" y="27.99" width="792" height="360"/><path class="uuid-f4b52fb8-1941-48db-abaf-05a573a04e24" d="M748.8,27.99v360"/><path class="uuid-f4b52fb8-1941-48db-abaf-05a573a04e24" d="M590.4,27.99v360"/><path class="uuid-f4b52fb8-1941-48db-abaf-05a573a04e24" d="M432,27.99v360"/><path class="uuid-f4b52fb8-1941-48db-abaf-05a573a04e24" d="M273.6,27.99v360"/><path class="uuid-f4b52fb8-1941-48db-abaf-05a573a04e24" d="M907.2,118H115.2"/><path class="uuid-f4b52fb8-1941-48db-abaf-05a573a04e24" d="M907.2,207.99H115.2"/><path class="uuid-f4b52fb8-1941-48db-abaf-05a573a04e24" d="M907.2,297.99H115.2"/><rect class="uuid-76ef2816-1c79-4e36-971b-b750dddda9e8" x="115.2" y="27.99" width="792" height="360"/><path class="uuid-6d2b8c92-35c7-41d6-b5ca-a39a96bf21cb" d="M1080,70.73c5.2,0,21.61,1.09,31.21-.02,9.6-1.1,18.18-6.5,26.38-6.62,8.21-.11,15.69,5.13,22.86,5.94,7.17.8,13.8-.75,20.16-1.11s12.31-1.55,18.03-1.08c5.72.46,11.12,3.45,16.32,3.87,5.2.44,10.13-.69,14.89-1.29,4.77-.59,9.31-2.1,13.71-2.26,4.39-.17,8.6.26,12.68,1.26,4.08.99,8,4.48,11.8,4.71,3.81.23,7.48-1.65,11.05-3.34,3.57-1.7,7.01-6.08,10.37-6.81,3.36-.73,6.61,1.1,9.79,2.44,3.17,1.34,6.25,4.58,9.26,5.59,3.01,1.01,5.92.22,8.78.47,2.85.26,5.63,1.62,8.35,1.06,2.72-.57,5.36-3.19,7.96-4.43,2.59-1.24,5.13-2.37,7.61-3,2.48-.63,4.91-1.33,7.29-.78,2.37.55,4.7,2.79,6.98,4.08,2.28,1.29,4.51,3.3,6.71,3.63,2.19.34,4.35-2.19,6.46-1.65,2.12.53,4.18,4.31,6.23,4.83,2.03.51,4.04-.9,6-1.76,1.97-.85,3.9-2.83,5.81-3.34,1.9-.52,3.77.99,5.61.25,1.85-.75,3.65-4.09,5.44-4.75,1.78-.66,3.53.39,5.26.79,1.73.41,3.43,1.41,5.12,1.65,1.68.23,3.33-.22,4.96-.25,1.63-.03,3.24.81,4.83.08,1.58-.73,3.15-2.95,4.69-4.46,1.54-1.51,3.06-4.6,4.56-4.59s2.98,3.46,4.45,4.65c1.47,1.18,2.91,2.01,4.33,2.47,1.43.46,2.83.33,4.23.32s2.77.95,4.13-.39c1.36-1.33,2.7-6.62,4.03-7.6,1.33-.98,2.64.6,3.94,1.72,1.29,1.12,2.58,3.65,3.85,5.01,1.27,1.36,2.52,2.7,3.76,3.13,1.24.42,2.47-.27,3.68-.58,1.22-.32,2.42-1.21,3.61-1.29,1.19-.07,2.36.67,3.53.83,1.17.16,2.32-.15,3.46.14,1.14.29,2.27,2.18,3.39,1.59,1.12-.59,2.22-3.71,3.32-5.16,1.1-1.44,2.18-4.03,3.26-3.53,1.08.51,2.14,5.48,3.2,6.56,1.05,1.09,2.1.57,3.14-.04,1.04-.6,2.07-4.19,3.08-3.58,1.02.61,2.03,6.35,3.03,7.26,1,.91,1.99-.76,2.98-1.8.98-1.04,1.95-3.68,2.92-4.45.96-.76,1.93-.85,2.87-.1.96.74,1.89,3.69,2.83,4.55.93.86,1.86.71,2.78.61.92-.1,1.84-1.03,2.74-1.19.91-.16,1.8.18,2.69.19.9,0,1.78-.33,2.65-.15.88.18,1.75.28,2.62,1.24.86.97,1.72,4.14,2.57,4.54.86.4,1.7-.98,2.54-2.12.84-1.16,1.67-3.46,2.5-4.79.83-1.32,1.66-2.82,2.47-3.16.81-.35,1.62.87,2.42,1.08.81.19,1.61.1,2.4.09s1.58-1.11,2.36-.16c.77.95,1.56,4.55,2.32,5.85.77,1.3,1.54,1.72,2.3,1.97.77.25,1.52.17,2.27-.48.76-.65,1.5-2.23,2.24-3.44.74-1.2,1.47-2.88,2.21-3.76.73-.88,1.46-1.39,2.18-1.52.68-.12,1.49-.26,2.15.75.72,1.09,1.42,4.37,2.13,5.78.7,1.4,1.4,2.21,2.1,2.64.69.44,1.38-.04,2.07,0,.45.02,1.61,1.2,2.05.17.68-1.59,1.36-8.21,2.03-9.69.49-1.06,1.53.46,2,.83.67.51,1.33,1.4,1.99,2.21.65.8,1.3,1.73,1.95,2.62.65.89,1.29,2.62,1.94,2.71.64.09,1.28-2.22,1.91-2.19.63.05,1.27,2.07,1.89,2.43s1.25.04,1.87-.24c.55-.24,1.3-.3,1.85-1.38.62-1.2,1.23-4.86,1.84-5.82.51-.83,1.3,0,1.81.03.6.05,1.19-.15,1.79.2.59.36,1.19.87,1.78,1.96.58,1.08,1.17,3.58,1.75,4.57.58.98,1.16,1.9,1.74,1.34.58-.57,1.15-3.66,1.72-4.68.56-1.01,1.14-1.55,1.7-1.46.57.1,1.13,1.78,1.69,2.05.56.28,1.12.06,1.67-.36.55-.44,1.1-1.8,1.66-2.23.54-.44,1.1.05,1.64-.36.54-.42,1.08-1.7,1.62-2.13.45-.36,1.15-1.2,1.61-.43.53.9,1.06,4.92,1.59,5.85.43.75,1.15-1.03,1.57-.28.53.93,1.05,4.97,1.57,5.85.44.76,1.11,0,1.55-.51.52-.62,1.03-2.73,1.54-3.16.51-.43,1.01.59,1.52.59s1.01-.16,1.51-.59c.5-.43,1-1.48,1.5-1.98.48-.48,1.01-.23,1.48-1.05.49-.86.98-4.05,1.47-4.11.49-.06.97,2.99,1.46,3.71.46.69.99.34,1.45.64.48.31.96,1.7,1.42,1.23.48-.47.96-3.96,1.42-4.07.47-.11.94,2.93,1.41,3.41.47.47.93-.32,1.4-.54.46-.23.92-.64,1.38-.79.46-.15.91.2,1.38-.11.45-.3.91-2.37,1.36-1.7.45.66.91,4.7,1.36,5.68.24.53,1.1.85,1.34.15.44-1.28.89-6.62,1.33-7.82.27-.74,1.05.05,1.33.62.44.93.87,4.31,1.31,4.97.28.42,1.03-.18,1.3-1,.44-1.29.86-5.71,1.29-6.72.3-.71.98.31,1.28.67.42.52.85,1.66,1.27,2.42.42.77.85,2.52,1.26,2.16.42-.36.84-4.17,1.26-4.36.41-.17.83,2.16,1.24,3.29.41,1.12.82,3.49,1.24,3.46.41-.03.82-3.28,1.23-3.64.4-.36.82,1.03,1.22,1.49.4.46.81,1.35,1.21,1.29.4-.06.8-.94,1.19-1.67.4-.74.8-3.04,1.19-2.73.4.29.79,3.8,1.19,4.51.31.57.86-.13,1.18-.24.39-.15.78-1.18,1.17-.61.39.57.77,3.17,1.16,3.98.32.68.82,1.25,1.15.88.38-.45.76-2.91,1.15-3.52.24-.4.9-.78,1.14-.2.38.91.75,4.73,1.13,5.69.22.57.9.38,1.12.05.37-.57.74-2.41,1.12-3.44.36-1.04.73-1.32,1.1-2.77.37-1.45.73-5.45,1.1-5.92.36-.46.72,1.74,1.09,3.14.37,1.39.73,4.62,1.09,5.2.36.58.72-.98,1.09-1.69.35-.71.71-2.32,1.07-2.58.35-.26.71,1.17,1.06,1.01s.71-1.62,1.06-1.92c.35-.31.7.22,1.05.06.29-.12.76-1.65,1.05-.97.35.84.69,5.54,1.04,6,.35.46.69-2.6,1.04-3.27.3-.61.72-.45,1.03-.81.34-.4.68-1.9,1.02-1.61.34.28.68,2.33,1.01,3.3.34.97.68,2.66,1.01,2.51.33-.15.67-2.79,1-3.44.26-.51.73-.79,1-.42.33.47.66,2.01.99,3.23.33,1.2.66,2.93.99,4.02.33,1.08.65,3.14.98,2.49.33-.65.65-4.55.97-6.38.33-1.83.65-4.06.97-4.62.32-.56.64,1.03.96,1.28.32.24.64.35.96.2.31-.15.63-1.08.95-1.08.23,0,.72.37.96,1.08.31.99.63,4.46.94,4.88.26.34.68-1.1.94-2.35.31-1.55.63-5.98.93-6.92.25-.74.68.51.93,1.29.3.99.62,3.93.92,4.67.2.47.72-.17.91-.27.18-.09.74-.1.91-.67.3-.99.61-4.84.91-5.25.3-.42.61,1.6.91,2.77.3,1.17.6,3.53.9,4.21.16.36.73.31.9-.16.3-.85.59-4.56.89-4.93.29-.38.58,1.78.88,2.65.3.87.58,2.47.88,2.61.29.14.58-1.59.87-1.8.16-.11.72,1.03.87.51.29-.98.58-5.51.86-6.35.23-.68.63.51.86,1.27.29.94.57,2.77.86,4.37.29,1.6.57,4.71.86,5.24.28.53.56-1.7.85-2.08.12-.16.72-.67.84-.2.28,1.07.57,6.01.84,6.61.28.59.56-1.63.84-3.03.28-1.39.56-5.58.83-5.33.28.25.55,6.68.83,6.8.27.13.55-4.37.82-6.04.27-1.68.55-3.35.82-3.98.18-.42.63-.18.82.19.27.57.54,2.89.82,3.21.2.24.61-.55.81-1.3.26-1.04.54-4.59.81-4.92.26-.33.54,3.17.8,2.95.26-.21.54-3.85.8-4.22.21-.31.58.93.79,2,.26,1.29.53,4.78.79,5.73.12.42.68.11.79.02.26-.2.52-.57.78-1.28.26-.71.52-2.26.78-2.96.26-.71.51-1.7.77-1.27.26.44.51,2.98.77,3.89.24.85.53,1.18.77,1.56.26.4.51,1.07.77.86.26-.21.51-1.36.77-2.11.25-.75.5-1.65.76-2.39.25-.75.5-2.16.76-2.06.25.11.49,1.85.75,2.68.25.83.5,1.66.75,2.29.25.63.49,1.47.74,1.48.25,0,.5-.81.75-1.41.24-.61.49-1.73.73-2.24.25-.5.49-1.11.74-.8.24.32.49,1.72.73,2.69.24.97.49,3.74.72,3.11.25-.63.49-5.67.73-6.9.08-.46.63-.43.72-.5.17-.13.55-1.08.72-.61.24.66.48,3.33.72,4.52.24,1.19.48,2.11.72,2.67.14.33.57.15.71.64.24.8.48,4.4.71,4.15.24-.26.47-4.08.71-5.69.23-1.61.47-4.34.7-3.98.24.36.47,4.86.7,6.12.15.81.55,1.44.7,1.48.23.05.46-1.54.69-1.13.23.4.46,3.14.69,3.56.16.29.54-.39.69-.99.23-.87.45-3.86.68-4.25.23-.4.45,1.2.68,1.87s.45,2.38.68,2.11c.22-.27.45-2.57.68-3.73.22-1.16.45-2.65.68-3.21.14-.35.54,0,.68-.13.22-.22.44-1.48.67-1.2.22.27.44,2.67.67,2.83.22.17.44-1.13.67-1.84.22-.7.44-1.99.66-2.41.12-.22.54-.45.66-.1.22.64.44,3.38.66,3.94.16.43.49-.56.65-.57.18-.02.48.07.66.45.21.46.43,3.04.64,2.31.22-.72.44-6.15.65-6.64.21-.47.43,2.16.64,3.75.21,1.59.43,5.18.64,5.78.21.6.43-1.75.64-2.17.17-.34.46-.41.63-.33.21.1.43,1.45.63.95.21-.49.43-2.68.63-3.93.21-1.24.42-2.68.63-3.53.21-.83.42-1.98.63-1.57s.42,3.18.63,4.07c.16.7.46,1.18.63,1.28.21.14.41-.32.62-.46.11-.07.51-.04.62-.42.21-.74.41-3.56.62-4.01.13-.29.49.59.62,1.32.21,1.14.4,5.25.61,5.51.21.27.41-2.43.61-3.89.21-1.46.41-4.17.61-4.86.09-.32.51.25.61.74.2,1.04.4,3.37.6,5.54.2,2.17.4,6.84.6,7.48s.4-2.62.6-3.6c.2-.98.4-2.83.59-2.25s.4,5.33.6,5.7c.2.36.4-2.25.59-3.52.2-1.27.4-3.99.58-4.07.2-.08.4,3.55.59,3.59.2.04.4-3,.58-3.34.2-.36.4,1.01.58,1.24.2.22.4.04.58.1.2.06.39.36.58.27.08-.04.49-.28.58-.77.19-1.17.39-5.47.58-6.21.19-.74.39,1.04.58,1.8.19.75.38,2.83.58,2.7.19-.15.38-3.64.57-3.55.19.08.38,3.4.57,4.07.09.3.49-.2.57-.06.19.29.38,1.72.57,1.83s.37-1.18.56-1.18c.19,0,.38,1.02.56,1.2.1.1.47.19.56-.1.19-.56.38-2.92.56-3.25.19-.35.37,1.17.56,1.19.18.02.37-1.61.55-1.05.19.57.37,4.26.55,4.49.19.23.37-3.16.55-3.1.19.05.37,2.89.55,3.46.09.29.45,0,.55-.02.1-.04.44,0,.54-.34.18-.58.36-2.46.54-3.17.16-.62.39-1.4.54-1.13.18.32.36,2.53.54,3.03.11.27.44-.18.54-.05.18.23.35,1.41.54,1.45.12.02.42-.57.54-1.26.18-1.05.35-4.23.54-5.03.05-.2.49-.07.54.24.17,1.21.35,5.41.53,7.02.15,1.34.38,2.92.53,2.64.18-.34.35-3.73.53-4.62.09-.45.44-.3.53-.77.17-.95.35-5.13.53-4.91s.35,5.13.52,6.22c.05.32.47.39.53.3.17-.32.35-1.18.52-2.19.17-1.02.35-2.45.51-3.9.17-1.46.35-4.89.52-4.82.17.05.35,3.67.52,5.17.16,1.5.34,2.68.51,3.82.17,1.13.34,3.44.51,2.97.17-.46.34-5.18.51-5.75.17-.57.34,1.4.51,2.35.16.95.34,3.39.5,3.32.17-.07.34-2.52.51-3.75.16-1.22.34-3.32.5-3.58.13-.21.37.98.5,2.01.16,1.29.34,3.83.5,5.72.16,1.9.33,5.35.5,5.66.16.31.33-2.07.49-3.8s.33-4.98.49-6.59c.16-1.56.34-2.69.5-3.09.1-.26.39.24.49.64.16.62.33,2.34.49,3.08.16.72.34,1.51.49,1.38.16-.14.33-2.83.49-2.2.16.63.33,4.55.49,6.01.15,1.39.33,2.55.49,2.73.12.15.36-.76.49-1.59.16-1.07.32-4.32.49-4.81.16-.48.32,2.28.48,1.89.16-.38.32-3.12.49-4.21.16-1.09.31-2.69.48-2.35.16.34.32,3.82.48,4.37.16.56.32-.75.48-1.02.16-.28.32-.29.48-.65.16-.36.31-1.49.47-1.5.16-.02.32.82.48,1.37.16.56.31,2.47.47,1.94.16-.53.31-4.2.47-5.13.06-.35.41-.83.47-.48.16.95.31,5.15.47,6.18.04.26.43.06.47,0,.16-.27.31-1.05.47-1.63.15-.58.3-2.13.46-1.87.16.26.3,3.5.46,3.45.16-.06.31-4.38.46-3.8.16.57.31,5.89.46,7.28.07.56.4,1.65.46,1.07.16-1.46.3-7.85.46-9.82.07-1.04.37-2.21.45-2.01.16.37.3,3.43.45,4.29.08.43.38,1.4.46.89.15-1.01.3-5.14.45-6.96.15-1.81.3-3.91.45-3.95.15-.03.3,2.99.44,3.75.09.46.36.44.45.8.15.61.3,1.94.44,2.84.16.91.3,1.64.45,2.59.15.95.3,2.39.44,3.1.13.61.32,1.22.44,1.16.15-.07.3-.86.44-1.62.15-.76.3-3.49.44-2.95.15.54.29,5.69.44,6.19.15.51.3-1.59.44-3.14.15-1.56.29-5.21.44-6.21.03-.22.4-.02.44.26.15,1.21.3,6.08.44,7.03.11.69.34-1.25.44-1.3.15-.06.3.6.44.89.15.29.29.99.44.87.14-.13.29-1.62.43-1.62.15,0,.29,1.74.44,1.63.14-.11.29-1.29.43-2.3.15-1.02.29-3.56.43-3.8.15-.25.29,2.31.43,2.34.15.03.29-2.09.43-2.18.14-.1.29,1.17.43,1.6.14.44.28.61.43,1,.14.4.28,2,.42,1.39.14-.61.28-4.38.42-5.02.14-.63.29.69.43,1.21.14.51.28,2.13.42,1.89s.28-3.44.42-3.35c.14.08.28,2.41.42,3.86.14,1.45.28,4.61.41,4.83.14.21.28-2.64.42-3.55s.28-2.11.42-1.88c.13.23.27,2,.41,3.23.14,1.23.27,4.55.41,4.17s.28-5.88.41-6.47c.14-.59.28,2.61.41,2.91.14.3.28-.97.41-1.12.07-.08.35.43.41.19.14-.49.27-2.59.41-3.12.06-.23.35-.16.4-.09.14.18.27,1.2.41,1.18.13-.04.27-1.21.4-1.37.09-.11.31.13.4.42.13.42.27,1.89.4,2.09.11.17.3-.38.4-.84.13-.57.27-2.31.4-2.59.12-.25.29.4.4.88.13.57.26,2.26.4,2.53.12.23.29-.42.4-.91.13-.56.26-3.48.4-2.45.13,1.03.26,7.15.4,8.64.02.26.38.46.4.26.13-1.15.26-6.43.4-7.17.13-.76.26,2.48.4,2.69.13.2.26-1.59.39-1.46.13.13.26,2.01.4,2.21.13.21.26-1.4.4-.95.13.45.26,3.34.39,3.67.11.28.29-.8.4-1.65.12-1.03.26-3.83.39-4.53.05-.26.34.15.39.35.13.49.26,2.05.39,2.59.09.37.3.72.39.65.13-.1.26-.95.39-1.27.1-.25.29-.3.39-.69.12-.52.26-2.26.38-2.44.13-.17.26,1.82.39,1.39.12-.45.26-4.65.38-4.02.13.63.26,5.87.39,7.79.12,1.86.26,2.94.38,3.71.09.54.3,1.54.38,1.01.12-.77.26-4.05.38-5.61.12-1.56.26-2.74.38-3.76s.26-2.44.38-2.33c.12.11.25,2.54.38,2.97.08.28.29-.36.37-.45.12-.14.26-.16.38-.39.12-.22.25-1.16.37-.94.12.21.25,1.86.37,2.24.04.1.34-.19.38,0,.12.73.25,3.64.37,4.35.03.21.33-.02.37-.08.12-.24.25-.66.37-1.35.12-.69.25-2.67.37-2.8.12-.13.24,2.09.36,2.03.12-.05.25-1.23.37-2.38.12-1.14.25-3.12.37-4.48.12-1.37.24-4,.36-3.73.12.27.25,4.15.36,5.36.1.98.27,2.25.37,1.94.12-.38.24-3.97.36-4.26.12-.27.24,2.35.36,2.59.12.25.24-1.3.36-1.12.12.17.24,2.36.36,2.2.12-.17.24-3.63.36-3.23.12.4.24,4.64.35,5.64.03.28.33.47.36.41.12-.25.24-1.09.35-1.86.12-.76.24-2.11.36-2.72.09-.48.26-.8.35-.91.12-.14.24,0,.35.09.07.05.3.15.36.44.12.5.23,2.21.35,2.61.07.22.28-.39.35-.26.12.23.23.9.35,1.66.12.75.23,2.56.35,2.85.12.29.24-1.08.35-1.1.12-.02.23,1.01.35.98.12-.03.23-1.18.35-1.17.12.02.24,1.85.35,1.26.12-.59.23-3.66.35-4.81.11-1.07.24-2.93.35-2.11.12.88.23,6.4.35,7.41.07.63.28-.66.35-1.36.12-1.11.23-4.95.35-5.3.12-.35.23,2.63.35,3.2.04.21.3.05.34.2.12.38.23,1.79.35,2.1.07.19.28,0,.35-.2.12-.35.23-1.68.34-1.87.12-.18.23,1.01.35.77.12-.24.23-1.48.34-2.23.12-.76.23-2.33.35-2.32s.22,2.11.34,2.42c.1.27.24-.88.34-.57.12.37.23,2.43.34,2.81.04.13.3-.22.34-.55.12-.98.23-4.8.34-5.3.12-.5.23,1.93.34,2.3.03.11.3-.3.34-.11,0,0,.33,5.66.34,3.76"/></g><g id="uuid-a71f4c43-fce8-42d6-a737-8c24693da11b"><text class="uuid-4fd00695-e423-4707-83ec-230132b8de96" transform="translate(460.04 512.03)"><tspan x="0" y="0">t in s</tspan></text><text class="uuid-4f253692-f23f-41c2-af1a-e5657a242b23" transform="translate(32.4 287.19) rotate(-90)"><tspan x="0" y="0">amplitude</tspan></text><text class="uuid-4f253692-f23f-41c2-af1a-e5657a242b23" transform="translate(46.8 398.79)"><tspan x="0" y="0">-1.0</tspan></text><text class="uuid-4f253692-f23f-41c2-af1a-e5657a242b23" transform="translate(57.6 38.79)"><tspan x="0" y="0">1.0</tspan></text><text class="uuid-4f253692-f23f-41c2-af1a-e5657a242b23" transform="translate(57.6 218.79)"><tspan x="0" y="0">0.0</tspan></text><text class="uuid-4f253692-f23f-41c2-af1a-e5657a242b23" transform="translate(486.25 445.59)"><tspan x="0" y="0">0.5</tspan></text><text class="uuid-4f253692-f23f-41c2-af1a-e5657a242b23" transform="translate(897.09 445.59)"><tspan x="0" y="0">1</tspan></text><text class="uuid-4fd00695-e423-4707-83ec-230132b8de96" transform="translate(1407.71 512.03)"><tspan x="0" y="0">f in Hz</tspan></text><text class="uuid-4f253692-f23f-41c2-af1a-e5657a242b23" transform="translate(1053.89 445.59)"><tspan x="0" y="0">10</tspan></text><text class="uuid-4f253692-f23f-41c2-af1a-e5657a242b23" transform="translate(1094.32 433.61) scale(.58)"><tspan x="0" y="0">2</tspan></text><text class="uuid-4f253692-f23f-41c2-af1a-e5657a242b23" transform="translate(1398.24 445.59)"><tspan x="0" y="0">10</tspan></text><text class="uuid-4f253692-f23f-41c2-af1a-e5657a242b23" transform="translate(1438.67 433.61) scale(.58)"><tspan x="0" y="0">3</tspan></text><text class="uuid-4f253692-f23f-41c2-af1a-e5657a242b23" transform="translate(1742.59 445.59)"><tspan x="0" y="0">10</tspan></text><text class="uuid-4f253692-f23f-41c2-af1a-e5657a242b23" transform="translate(1783.02 433.61) scale(.58)"><tspan x="0" y="0">4</tspan></text><text class="uuid-4f253692-f23f-41c2-af1a-e5657a242b23" transform="translate(46.8 308.79)"><tspan x="0" y="0">-0.5</tspan></text><text class="uuid-4f253692-f23f-41c2-af1a-e5657a242b23" transform="translate(57.6 128.8)"><tspan x="0" y="0">0.5</tspan></text><text class="uuid-4f253692-f23f-41c2-af1a-e5657a242b23" transform="translate(990 332.46) rotate(-90)"><tspan x="0" y="0">amplitude in dB</tspan></text><text class="uuid-4f253692-f23f-41c2-af1a-e5657a242b23" transform="translate(105.09 445.59)"><tspan x="0" y="0">0</tspan></text><text class="uuid-0a89ae34-c2a8-4c65-9502-5bed34c54677" transform="translate(1009.64 173.55)"><tspan x="0" y="0">-12</tspan></text><text class="uuid-0a89ae34-c2a8-4c65-9502-5bed34c54677" transform="translate(1039.78 83.52)"><tspan x="0" y="0">0</tspan></text><text class="uuid-0a89ae34-c2a8-4c65-9502-5bed34c54677" transform="translate(1009.64 263.55)"><tspan x="0" y="0">-24</tspan></text><text class="uuid-0a89ae34-c2a8-4c65-9502-5bed34c54677" transform="translate(1009.64 353.55)"><tspan x="0" y="0">-36</tspan></text></g></svg>