<?xml version="1.0" encoding="UTF-8"?>
<svg xmlns="http://www.w3.org/2000/svg" viewBox="0 0 1908 532.8">
  <defs>
    <style>
      .cls-1, .cls-2, .cls-3, .cls-4, .cls-5, .cls-6, .cls-7, .cls-8 {
        fill: none;
      }

      .cls-1, .cls-3, .cls-5 {
        opacity: .8;
      }

      .cls-1, .cls-3, .cls-5, .cls-6, .cls-7, .cls-8 {
        stroke: #c9d1d9;
        stroke-miterlimit: 10;
      }

      .cls-1, .cls-4 {
        stroke-width: 2.83px;
      }

      .cls-9 {
        fill: #c5cdd5;
      }

      .cls-10 {
        fill: #c6ced6;
      }

      .cls-2 {
        stroke: rgba(201, 209, 217, .2);
        stroke-miterlimit: 20;
      }

      .cls-2, .cls-8 {
        stroke-width: 1.98px;
      }

      .cls-3 {
        stroke-width: 1.53px;
      }

      .cls-4 {
        stroke: #307eef;
        stroke-linecap: round;
        stroke-linejoin: round;
      }

      .cls-5 {
        stroke-width: 1.42px;
      }

      .cls-6 {
        stroke-width: 2.14px;
      }

      .cls-7 {
        stroke-width: 4.25px;
      }
    </style>
  </defs>
  <g id="Graph">
    <path class="cls-4" d="m115.25,177.14c.11-.14,1.07,1.54,1.19.95.39-2.04.79-9.22,1.19-13.2.39-3.98.79-8,1.18-10.65.4-2.64.8-2.62,1.19-5.24.4-2.64.79-11.87,1.19-10.58.39,1.29.79,17.89,1.19,18.33.39.44.79-13.73,1.18-15.69.4-1.96.8,2.19,1.19,3.96.37,1.66.82,3.31,1.19,6.65.39,3.54.79,10.02,1.19,14.59.39,4.57.79,9.53,1.18,12.83.4,3.29.8,7.9,1.19,6.95.4-.95.79-11.82,1.19-12.65.4-.83.79,5.71,1.19,7.67.39,1.97.79,5.24,1.18,4.12.4-1.11.8-8.61,1.19-10.79.22-1.18.98-1.53,1.19-2.26.28-.95.91-2.87,1.19-5.77.39-4.08.79-18.28,1.19-18.69.39-.4.79,14.05,1.18,16.25.28,1.55.91-3.18,1.19-3.03.33.17.86,2.12,1.19,4.28.39,2.58.79,10.47,1.19,11.24.39.76.79-8.07,1.18-6.66.4,1.41.8,12.26,1.19,15.12.15,1.09,1.04,1.46,1.19,2.07.39,1.62.79,9.29,1.19,7.65.39-1.65.79-17.36,1.18-17.51.4-.15.8,12.19,1.19,16.6.4,4.41.79,11.47,1.19,9.88.4-1.58.79-13.64,1.19-19.4.39-5.76.79-15.33,1.19-15.18.39.14.79,14.31,1.18,16.05.4,1.74.79-7.45,1.19-5.6.4,1.85.79,12.64,1.19,16.68.37,3.81.81,6.62,1.19,7.6.11.3,1.07-2.15,1.18-1.38.4,2.67.8,17.11,1.19,17.43.4.32.79-14.94,1.19-15.53.39-.59.79,10.49,1.19,12.01.38,1.48.8-4.1,1.18-2.9.4,1.24.8,8.52,1.19,10.31.09.41,1.1.3,1.19.46.24.4.95,1.78,1.19,3.61.39,3.06.79,12.19,1.19,14.73.06.43,1.12.69,1.18.5.35-.96.84-3.48,1.19-7,.4-3.96.79-14.65,1.19-16.77.38-2.03.81,3.69,1.19,4.04.39.37.79-1.95,1.18-1.82.4.13.8,2.22,1.19,2.59.36.33.83-.37,1.19-.37.17,0,1.02,0,1.19.39.39.92.79,5.27,1.18,5.18.4-.09.8-6.56,1.19-5.72.4.84.79,10.69,1.19,10.74.4.05.79-7.8,1.19-10.42.35-2.35.83-2.63,1.19-5.29.39-2.96.79-8.01,1.18-12.48.4-4.47.79-13.77,1.19-14.34.4-.57.79,8.67,1.19,10.9.23,1.27.96,2.82,1.19,2.47.39-.61.79-3.05,1.18-6.12.4-3.09.8-7.25,1.19-12.38.4-5.14.79-16.12,1.19-18.42.34-2.01.84,6.88,1.19,4.58.39-2.65.79-18.6,1.18-20.45.4-1.84.8,5.36,1.19,9.37.4,4.01.79,10.34,1.19,14.69.4,4.34.79,9.08,1.19,11.39.21,1.26.97,3.6,1.19,2.44.39-2.12.79-9.48,1.18-15.16.4-5.67.79-18.43,1.19-18.89.4-.46.79,14.12,1.19,16.13.39,2.01.79-3.6,1.19-4.06.39-.46.79,1.79,1.18,1.29.4-.5.8-5.02,1.19-4.29.4.72.79,5.26,1.19,8.65.39,3.39.79,11.9,1.19,11.67.39-.23.79-14.27,1.18-13.03.4,1.24.8,13.9,1.19,20.45.4,6.55.79,18.83,1.19,18.86.4.04.79-17.42,1.19-18.66.39-1.23.79,10.75,1.19,11.27.39.52.79-7.84,1.18-8.15.4-.31.79,4.43,1.19,6.29.4,1.87.79,6.26,1.19,4.89.39-1.37.79-8.81,1.19-13.14.39-4.32.79-11.17,1.18-12.79.33-1.34.86,4.66,1.19,3.09.4-1.89.79-12.11,1.19-14.41.07-.4,1.12.15,1.19.62.39,2.65.79,16.14,1.18,15.26.4-.89.8-18.62,1.19-20.59.37-1.84.82,4.37,1.19,8.75.4,4.7.79,13.09,1.19,19.5.39,6.4.79,17.5,1.19,18.93.39,1.42.79-7.84,1.18-10.38.38-2.44.81-6.35,1.19-4.85.4,1.55.79,12.19,1.19,14.18.23,1.17.95-2.72,1.19-2.26.34.69.84,3.48,1.18,6.99.4,3.99.8,14.35,1.19,16.95.1.68,1.09-.58,1.19-1.33.39-2.9.79-16.75,1.19-16.04.39.72.79,16.2,1.18,20.33.22,2.25.98,4.31,1.19,4.45.36.23.83-1.46,1.19-2.96.38-1.63.8-3.53,1.19-7.06.39-3.64.79-10.18,1.18-14.8.4-4.62.8-7.35,1.19-12.94.4-5.6.79-14.25,1.19-20.64.4-6.38.79-18.18,1.19-17.67.39.5.79,19.38,1.19,20.68.39,1.3.79-11.81,1.18-12.88.4-1.07.8,3.38,1.19,6.43.4,3.06.79,10.44,1.19,11.91.39,1.48.79-2.85,1.19-3.08.13-.08,1.05.78,1.18,1.69.4,2.67.8,12.9,1.19,14.32.4,1.42.79-5.81,1.19-5.81s.79,5.18,1.19,5.81c.15.25,1.03-3.15,1.18-2.06.4,2.73.8,11.96,1.19,18.43.4,6.47.79,19.81,1.19,20.39.4.59.79-11.32,1.19-16.88.39-5.57.79-12.22,1.19-16.51.39-4.3.79-10.61,1.18-9.25.4,1.37.79,13.28,1.19,17.44.36,3.76.83,7.96,1.19,7.51.39-.51.79-8.03,1.19-10.56.36-2.33.82-4.6,1.18-4.63.4-.04.8,5.01,1.19,4.43.4-.58.79-7.65,1.19-7.91.39-.25.79,4.56,1.19,6.37.23,1.07.95,2.22,1.18,4.47.4,3.8.8,14.49,1.19,18.32.24,2.34.95,6.09,1.19,4.64.4-2.36.79-15.35,1.19-18.81.12-1.04,1.07-2.38,1.19-1.96.39,1.37.79,7.65,1.18,10.18.39,2.49.8,4.52,1.19,4.96.2.22.99-3.48,1.19-2.29.39,2.38.79,11.77,1.19,16.56.39,4.78.79,7.28,1.18,12.15.4,4.88.8,14.23,1.19,17.11.05.37,1.14.26,1.19.22.39-.34.79-2.41,1.19-2.27.24.09.94,4.72,1.18,3.13.4-2.6.8-14.26,1.19-18.71.36-4.01.83-7.91,1.19-7.99.4-.1.79,8.03,1.19,7.41.39-.63.79-12.31,1.19-11.16.39,1.16.79,17.28,1.18,18.11.4.82.79-12.76,1.19-13.16.4-.4.79,9.5,1.19,10.76.25.82.93-4.8,1.19-3.18.39,2.51.79,16.57,1.18,18.23.4,1.66.8-7.06,1.19-8.25.1-.28,1.09.45,1.19,1.1.39,2.71.79,13.47,1.19,15.17.39,1.69.79-3.89,1.18-4.99.31-.85.88-1.87,1.19-1.59.2.18.99,1.84,1.19,3.74.4,3.86.79,14.74,1.19,19.39.36,4.25.82,4.86,1.19,8.48.39,3.96.79,15.07,1.18,15.3.4.23.79-8.19,1.19-13.93.4-5.74.79-18.91,1.19-20.54.39-1.62.79,11.69,1.19,10.82.39-.86.79-11.82,1.18-16.02.4-4.19.8-5.11,1.19-9.15.4-4.03.79-12.57,1.19-15.06.06-.36,1.13-.2,1.19.16.39,2.48.79,13.08,1.18,14.74.33,1.38.86-2.36,1.19-4.76.4-2.9.79-8.18,1.19-12.63.4-4.46.79-12.08,1.19-14.08.21-1.1.97,1.04,1.19,2.08.39,1.9.79,8.03,1.18,9.33.21.68.98-2.45,1.19-1.59.4,1.62.79,12.68,1.19,11.35.39-1.33.79-14.85,1.19-19.33.33-3.79.85-4.49,1.18-7.55.4-3.63.79-8.62,1.19-14.21.4-5.59.79-13.77,1.19-19.34.39-5.57.79-13.32,1.19-14.09.39-.76.79,10.27,1.18,9.52.4-.75.8-11.13,1.19-14.02.23-1.7.96-2.78,1.19-3.34.4-.94.79-3.14,1.19-2.32.39.82.79,8.8,1.18,7.23.4-1.56.8-15.78,1.19-16.62.4-.83.79,10.49,1.19,11.63.29.85.89-2.37,1.19-4.78.39-3.25.79-15.52,1.19-14.7.39.82.79,18.99,1.18,19.63.4.64.8-13.6,1.19-15.79.25-1.37.94,1.82,1.19,2.66.39,1.33.79,2.74,1.19,5.34.39,2.61.79,5.44,1.18,10.3.4,4.86.8,19.17,1.19,18.88.4-.3.79-15.49,1.19-20.66.4-5.17.79-10.28,1.19-10.37.39-.09.79,10.04,1.18,9.82.4-.22.8-12.5,1.19-11.11.4,1.38.79,16.28,1.19,19.39.06.51,1.12-1.04,1.19-.73.39,1.89.79,12.96,1.19,12.07.39-.9.79-12.51,1.18-17.46.4-4.96.8-12.47,1.19-12.28.4.18.79,13.45,1.19,13.38.39-.08.79-8.41,1.19-13.84.39-5.42.79-13.24,1.18-18.69.4-5.46.8-9.7,1.19-14.07.4-4.36.79-6.93,1.19-12.1.39-5.17.79-16.8,1.19-18.91.39-2.1.79,6.07,1.18,6.29.4.22.8-4.72,1.19-4.95.29-.16.9,1.78,1.19,3.61.4,2.53.79,12.55,1.19,11.56.39-.99.79-17.33,1.19-17.5.39-.17.79,13.6,1.18,16.46.07.49,1.12.96,1.19.7.4-1.53.79-8.14,1.19-9.89.1-.47,1.08-.79,1.19-.65.39.55.79,3.23,1.18,3.94.12.2,1.08-.08,1.19.3.33,1.09.86,3.79,1.19,7.6.39,4.61.79,13.48,1.19,20.08.39,6.59.79,13.28,1.18,19.52.4,6.23.8,13.08,1.19,17.9.4,4.82.79,6.78,1.19,11.04.4,4.26.79,14.87,1.19,14.52.39-.36.79-13.46,1.19-16.64.15-1.27,1.03-1.8,1.18-2.44.4-1.62.79-7.15,1.19-7.26.32-.09.87,3.29,1.19,6.61.39,4.15.79,14.92,1.19,18.27.11.97,1.07,1.24,1.18,1.82.4,1.97.8,5.17,1.19,10.04.4,4.86.79,12.98,1.19,19.18.39,6.2.79,15.89,1.19,18.01.39,2.11.79-7.36,1.18-5.33.4,2.04.8,15.78,1.19,17.56.4,1.78.79-7.67,1.19-6.9.4.77.79,8.72,1.19,11.52.37,2.66.81,4.19,1.19,5.29.22.65.96.74,1.18,1.62.4,1.55.79,7.13,1.19,7.68.4.55.79-3.64,1.19-4.37.12-.22,1.07.34,1.19,0,.39-1.16.79-5.79,1.18-6.92.13-.36,1.07-.17,1.19.17.4,1.05.79,7.04,1.19,6.11.39-.92.79-6.76,1.19-11.67.39-4.9.79-14.16,1.18-17.75.21-1.91.98-4.35,1.19-3.77.4,1.1.79,5.9,1.19,10.33.4,4.43.79,14.39,1.19,16.22.3,1.42.88-2.58,1.18-5.18.4-3.37.8-14.78,1.19-15.04.4-.27.79,11.27,1.19,13.43.07.38,1.12-.92,1.19-.5.39,2.41.79,12.6,1.19,14.94.08.48,1.1-.33,1.18-.91.4-2.8.8-10.75,1.19-15.89.4-5.15.79-14.76,1.19-14.99.39-.23.79,9.86,1.19,13.59.39,3.73.79,7.15,1.18,8.81.09.36,1.11,1.8,1.19,1.13.4-3.09.79-19.58,1.19-19.69.4-.12.79,15.23,1.19,18.97.18,1.77,1,4.17,1.19,3.48.39-1.48.79-13.35,1.18-12.32.4,1.04.79,17.76,1.19,18.56.4.8.79-9.26,1.19-13.77.39-4.51.79-11.54,1.19-13.28.3-1.36.87,4.32,1.18,2.86.4-1.87.79-8.85,1.19-14.11.4-5.25.79-15.82,1.19-17.41.39-1.59.79,7.84,1.19,7.88.39.03.79-4.76,1.18-7.68.4-2.91.8-4.93,1.19-9.87.4-4.96.79-15.07,1.19-19.91.37-4.57.81-4.81,1.19-9.12.39-4.56.79-13.88,1.18-18.24.37-3.98.83-4.86,1.19-7.93.4-3.37.79-6.97,1.19-12.3s.79-16.45,1.19-19.7c.04-.36,1.14.1,1.19.19.39.76.79,3.24,1.18,4.41.4,1.16.79,1.54,1.19,2.57.2.51.99,1.77,1.19,3.61.39,3.72.79,14.59,1.19,18.7.28,2.99.9,5.63,1.18,5.95.4.44.8-4.78,1.19-3.31.4,1.47.79,9.57,1.19,12.13.25,1.64.93,3.39,1.19,3.21.39-.3.79-3.63,1.18-4.96.37-1.23.83-1.5,1.19-3.05.4-1.68.79-5.51,1.19-7.06.3-1.16.89-1.76,1.19-2.23.14-.23,1.05-2.44,1.19-1.58.39,2.45.79,12.16,1.18,16.27.39,4.04.8,4.18,1.19,8.37.4,4.26.79,12.58,1.19,17.19.39,4.61.79,5.52,1.19,10.46.39,4.95.79,17.74,1.18,19.25.4,1.5.8-7.05,1.19-10.2.4-3.16.79-6.79,1.19-8.72.3-1.46.89-3.01,1.19-2.87.39.19.79,5.39,1.18,3.99.4-1.39.8-7.68,1.19-12.35.4-4.67.79-13.24,1.19-15.64.12-.73,1.07,1.77,1.19,1.29.39-1.59.79-12.21,1.19-10.81.39,1.4.79,16.63,1.18,19.21.29,1.88.9-5.23,1.19-3.73.4,2.06.79,16.37,1.19,16.08.39-.3.79-13.27,1.19-17.85.39-4.58.79-6.04,1.18-9.63.4-3.6.8-12.04,1.19-11.94.4.11.79,7.65,1.19,12.58.39,4.94.79,13.11,1.19,17.04.33,3.28.85,7.8,1.18,6.53.4-1.52.8-9.73,1.19-15.65.4-5.92.79-14.07,1.19-19.88.4-5.81.79-15.75,1.19-14.99.39.76.79,19.18,1.19,19.58.39.4.79-16.26,1.18-17.21.4-.95.79,10.97,1.19,11.51.4.53.79-4.88,1.19-8.29.39-3.41.79-11.71,1.19-12.18.39-.47.79,8.87,1.18,9.37.4.5.8-4.52,1.19-6.38.4-1.85.79-4.43,1.19-4.77.15-.13,1.04,1.32,1.19,2.73.39,3.8.79,19.69,1.18,20.1.4.4.8-11.59,1.19-17.67.4-6.08.79-17.34,1.19-18.79.4-1.45.79,5.52,1.19,10.07.39,4.56.79,16.79,1.19,17.26.39.47.79-11.1,1.18-14.45.34-2.83.86-6,1.19-5.63.4.43.79,7.61,1.19,8.19.39.59.79-2.66,1.19-4.69.36-1.87.82-3.72,1.18-7.47.4-4.05.8-12.54,1.19-16.81.4-4.27.79-10.27,1.19-8.81.39,1.46.79,17.75,1.19,17.58.39-.17.79-14.37,1.18-18.62.33-3.46.87-6.47,1.19-6.9.4-.53.79,4.28,1.19,3.7.33-.48.86-3.57,1.19-7.17.39-4.37.79-18.84,1.18-19.04.4-.2.8,11.43,1.19,17.82.4,6.39.79,18.94,1.19,20.51.4,1.57.79-6.69,1.19-11.08.39-4.39.79-11.53,1.19-15.25.37-3.55.81-7.54,1.18-7.08.4.48.79,5.18,1.19,9.97.4,4.8.79,13.05,1.19,18.82.39,5.76.79,11.38,1.19,15.77.39,4.39.79,9.89,1.18,10.58.4.69.8-7.66,1.19-6.45.4,1.21.79,10.68,1.19,13.7.29,2.27.89,5.39,1.19,4.49.39-1.21.79-13.11,1.18-11.72.4,1.38.8,17.57,1.19,20,.38,2.32.81-2.71,1.19-5.45.4-2.86.79-12.58,1.19-11.7.39.89.79,12.86,1.19,17.05.38,4.05.8,8.1,1.18,8.08.4-.02.79-10.08,1.19-8.19.4,1.89.79,14,1.19,19.53.39,5.53.79,13.19,1.19,13.66.39.47.79-8.23,1.18-10.82.24-1.56.95-2.35,1.19-4.73.4-3.98.79-18.59,1.19-19.13.4-.55.79,15.64,1.19,15.86.39.23.79-8.98,1.18-14.52.4-5.53.8-18.6,1.19-18.68.4-.08.79,17.61,1.19,18.19.4.58.79-10.93,1.19-14.71.39-3.77.79-9.01,1.19-7.95.39,1.07.79,12.99,1.18,14.34.31,1.04.89-3.11,1.19-6.25.4-4.09.79-14.93,1.19-18.31.12-1.05,1.06-1.31,1.19-1.98.39-2.14.79-9.6,1.18-10.87.33-1.05.86,1.58,1.19,3.22.4,1.98.79,9.81,1.19,8.67.39-1.14.79-14.64,1.19-15.48.39-.84.79,5.65,1.18,10.42.4,4.77.8,16.45,1.19,18.22.4,1.76.79-6.99,1.19-7.64.26-.43.93,1.81,1.19,3.69.39,2.87.79,13.3,1.19,13.57.39.27.79-8.63,1.18-11.94.4-3.32.79-4.79,1.19-7.96.4-3.17.79-11.52,1.19-11.03.39.49.79,9.97,1.19,13.95.39,3.98.79,5.07,1.18,9.94.4,4.87.8,18.51,1.19,19.26.4.75.79-15.43,1.19-14.75.39.68.79,13.27,1.19,18.83.39,5.57.79,10.84,1.18,14.58.4,3.74.8,8.51,1.19,7.85.4-.66.79-12.54,1.19-11.8.4.74.79,11.19,1.19,16.25.39,5.07.79,13.11,1.19,14.12.39,1.01.79-7.41,1.18-8.05.4-.63.79,6.14,1.19,4.24.4-1.9.79-15,1.19-15.65.39-.65.79,10.85,1.19,11.75.39.9.79-7.37,1.18-6.33.4,1.04.8,8.26,1.19,12.55.4,4.29.79,11.56,1.19,13.19.33,1.35.86-5.12,1.19-3.39.39,2.08.79,11.57,1.18,15.88.4,4.32.8,10.09,1.19,10.01.4-.08.79-7.59,1.19-10.49.4-2.91.79-7.17,1.19-6.95.39.22.79,8.67,1.19,8.28.39-.39.79-6.27,1.18-10.59.4-4.32.79-14.53,1.19-15.32.4-.79.79,9.99,1.19,10.59.32.48.87-3.51,1.19-7.04.39-4.36.79-17.33,1.18-19.13.4-1.8.8,7.89,1.19,8.35.4.47.79-7.46,1.19-5.55.39,1.91.79,14.94,1.19,17.03.24,1.3.94-2.23,1.18-4.51.4-3.67.8-15.17,1.19-17.47.32-1.85.87,3,1.19,3.66.09.18,1.1.53,1.19,1.23.39,3.26.79,17.2,1.18,18.3.4,1.1.8-11.8,1.19-11.7.4.11.79,11.57,1.19,12.32.38.73.81-3.89,1.19-7.8.39-4.05.79-11.83,1.19-16.49.39-4.67.79-6.22,1.18-11.51.4-5.29.8-16.29,1.19-20.23.18-1.77,1.01-3.34,1.19-3.47.39-.31.79,1.73,1.19,1.59.39-.13.79-1.37,1.18-2.41.32-.83.87-1.87,1.19-3.78.4-2.38.79-10.74,1.19-10.52.4.21.79,11.43,1.19,11.83.39.39.79-9.96,1.18-9.47.4.49.8,12.26,1.19,12.43.4.17.79-7.74,1.19-11.43.4-3.7.79-8.58,1.19-10.74.21-1.17.97-2.86,1.19-2.24.39,1.16.79,5.96,1.18,9.19.4,3.22.8,5.74,1.19,10.17.4,4.42.79,14.63,1.19,16.36.39,1.72.79-4.23,1.19-6,.28-1.27.9-2.28,1.18-4.59.4-3.22.8-12.26,1.19-14.7.06-.36,1.13-.07,1.19.07.39.94.79,4.06,1.19,5.56.3,1.16.88,1.68,1.18,3.42.4,2.24.8,5.84,1.19,10.02.4,4.19.79,13.39,1.19,15.13.4,1.74.79-2.63,1.19-4.68.39-2.05.79-5.95,1.19-7.62.29-1.24.89-3.45,1.18-2.4.4,1.43.79,8.4,1.19,10.95.23,1.47.96,2.16,1.19,4.37.39,3.85.79,18.32,1.19,18.75.39.43.79-11.76,1.18-16.18.4-4.43.8-9.24,1.19-10.37.32-.92.87,1.75,1.19,3.54.39,2.2.79,7.96,1.19,9.7.11.51,1.07.81,1.18.75.16-.08,1.04-.92,1.19-1.96.4-2.64.79-10.68,1.19-13.92.34-2.79.85-3.21,1.19-5.56.39-2.73.79-6.83,1.19-10.85.39-4.02.79-10.66,1.18-13.25.18-1.17,1.01-2.63,1.19-2.26.4.83.79,5.13,1.19,7.21.25,1.33.93,2.62,1.19,5.29.39,4.18.79,19.85,1.18,19.81.4-.04.8-17.32,1.19-20.05.27-1.87.92,2.4,1.19,3.69.39,1.87.79,7.61,1.19,7.56.39-.05.79-7.97,1.18-7.87.4.1.8,9.01,1.19,8.5.4-.52.79-6.43,1.19-11.57.4-5.14.79-15.73,1.19-19.28.12-1.06,1.07-2.52,1.19-2,.39,1.77.79,11.93,1.18,12.61.4.69.79-6.59,1.19-8.48.19-.91,1-4.29,1.19-2.84.39,3.03.79,18.75,1.19,21.01.39,2.26.79-6.22,1.18-7.44.12-.36,1.08,0,1.19.11.4.41.79,3.27,1.19,2.37.39-.89.79-4.64,1.19-7.76.39-3.11.79-10.32,1.18-10.9.4-.58.8,5.58,1.19,7.41.39,1.8.8,2.97,1.19,3.57.06.09,1.13.44,1.19.09.39-2.44.79-12.28,1.19-14.73.05-.35,1.13.04,1.18,0,.1-.05,1.09-.54,1.19-1.26.4-2.85.79-15.13,1.19-15.85.39-.72.79,9.05,1.19,11.54.27,1.74.91,3.44,1.18,3.43.4-.02.8-2.21,1.19-3.55.4-1.34.79-6.72,1.19-4.5.39,2.22.79,14.54,1.19,17.81.11.95,1.07,1.43,1.18,1.78.27.8.92,2.66,1.19,5.36.4,3.99.79,18.29,1.19,18.62.4.33.79-11.47,1.19-16.64.39-5.17.79-9.69,1.18-14.37.4-4.68.8-8.26,1.19-13.71.4-5.46.79-16.27,1.19-19.02.19-1.31,1,3.27,1.19,2.53.39-1.54.79-9.94,1.19-11.78.1-.51,1.07,1.16,1.18.74.4-1.53.8-8.15,1.19-9.89.1-.45,1.09-.63,1.19-.59.13.05,1.05.68,1.19,1.51.39,2.45.79,7.5,1.18,13.21.4,5.71.8,17.09,1.19,21.07.15,1.44,1.05,2.22,1.19,2.8.4,1.6.79,8.09,1.19,6.82.39-1.28.79-13.05,1.18-14.47.4-1.43.8,5.22,1.19,5.91.19.32,1.01-.83,1.19-1.78.4-2.05.79-12.08,1.19-10.52.39,1.56.79,18.27,1.19,19.87.39,1.6.79-5.29,1.18-10.29.4-4.99.8-18.15,1.19-19.66.4-1.51.79,8.02,1.19,10.58.37,2.39.82,5.3,1.19,4.76.39-.57.79-4.12,1.18-8.25.4-4.19.8-15.99,1.19-16.89.4-.9.79,10.2,1.19,11.47.37,1.18.82-5.81,1.19-3.86.39,2.09.79,16.93,1.18,16.37.4-.56.8-16.56,1.19-19.71.07-.53,1.12.55,1.19.79.4,1.46.79,6.48,1.19,7.99.16.63,1.02,1.08,1.19,1.07.15-.01,1.03-.57,1.18-1.3.4-1.87.79-6.47,1.19-9.94.4-3.47.79-8.15,1.19-10.86.39-2.71.79-8.06,1.19-5.42.39,2.64.79,15.01,1.18,21.28.4,6.27.8,16.93,1.19,16.32.4-.6.79-16.38,1.19-19.92.08-.75,1.1-2,1.19-1.32.39,3.22.79,16.79,1.18,20.64.13,1.27,1.06,3.27,1.19,2.44.4-2.49.79-13,1.19-17.4.4-4.4.79-6.47,1.19-9,.39-2.53.79-7.76,1.19-6.19.39,1.57.79,14.9,1.18,15.6.4.69.79-9.76,1.19-11.44.08-.35,1.11.58,1.19,1.33.39,3.58.79,15.57,1.19,20.18.32,3.74.86,5.7,1.18,7.46.4,2.17.8,5.98,1.19,5.55.4-.43.79-6.17,1.19-8.13.37-1.84.82-4.74,1.19-3.64.39,1.17.79,9.6,1.18,10.67.35.92.85-6.45,1.19-4.29.4,2.5.79,19.14,1.19,19.28.4.14.79-12.21,1.19-18.42.39-6.21.79-12.81,1.19-18.82.39-6.01.79-16.41,1.18-17.25.4-.84.79,13.44,1.19,12.22.4-1.22.79-19.66,1.19-19.54.39.12.79,17.89,1.19,20.26.39,2.37.79-3.02,1.18-6.04.4-3.01.8-8.49,1.19-12.04.4-3.55.79-8.06,1.19-9.24.26-.77.93,3.33,1.19,2.19.39-1.73.79-10.32,1.18-12.6.12-.65,1.08-1.41,1.19-1.1.4,1.07.79,5.14,1.19,7.52.4,2.38.79,3.71,1.19,6.78.39,3.07.79,10.1,1.18,11.63.33,1.27.86-1.78,1.19-2.46.18-.37,1.01-3.76,1.19-2.48.4,2.85.79,18.79,1.19,19.58.39.79.79-13.28,1.19-14.82.39-1.54.79,4.11,1.18,5.56.4,1.45.8,2.1,1.19,3.16.4,1.05.79,4,1.19,3.17.39-.83.79-8.22,1.19-8.15.37.07.81,4.29,1.18,8.59.4,4.52.8,16.93,1.19,18.55.4,1.62.79-10.82,1.19-8.82.4,2,.79,20.43,1.19,20.83.39.4.79-16.81,1.18-18.44.4-1.62.8,8.61,1.19,8.71.4.1.79-8.71,1.19-8.13.4.58.79,12.7,1.19,11.61.39-1.09.79-12.89,1.19-18.15.39-5.27.79-13.42,1.18-13.45.4-.03.8,8.13,1.19,13.27.4,5.15.79,13.22,1.19,17.61.39,4.38.79,9.59,1.19,8.75.39-.84.79-14.69,1.18-13.78.4.91.8,17.8,1.19,19.25.4,1.45.79-11.3,1.19-10.54.4.76.79,12.84,1.19,15.1.14.83,1.04-1.57,1.19-1.52.15.05,1.02,3.39,1.18,2.23.4-2.92.79-17.39,1.19-19.75.4-2.36.79,6.05,1.19,5.59.39-.46.79-6.48,1.19-8.35.31-1.47.87-4.26,1.18-2.87.4,1.76.79,9.88,1.19,13.44.4,3.56.79,5.23,1.19,7.93.39,2.7.79,7.2,1.19,8.26.19.52.99-.89,1.18-1.9.4-2.04.8-10.96,1.19-10.34.4.63.79,8.67,1.19,14.11.4,5.45.79,17.03,1.19,18.57.39,1.54.79-5.37,1.18-9.36.4-3.97.8-8.73,1.19-14.51.4-5.78.79-18.04,1.19-20.15s.79,4.54,1.19,7.47c.39,2.93.79,10.86,1.19,10.09.39-.76.79-15.1,1.18-14.68.4.43.79,13.88,1.19,17.23.18,1.48,1.01,3.92,1.19,2.88.39-2.38.79-11.88,1.19-17.13.39-5.24.79-8.65,1.18-14.34.4-5.69.8-18.56,1.19-19.82.4-1.26.79,12.21,1.19,12.27.39.06.79-6.66,1.19-11.93.39-5.27.79-18.01,1.18-19.67.4-1.66.8,5.44,1.19,9.71.4,4.27.79,15.02,1.19,15.88.4.87.79-5.72,1.19-10.69.39-4.97.79-19.31,1.19-19.14.39.17.79,13.97,1.18,20.18.4,6.2.79,12.17,1.19,17.03.4,4.86.79,12.07,1.19,12.1.39.03.79-13.34,1.19-11.94.39,1.4.79,19.24,1.18,20.35.4,1.11.8-12.88,1.19-13.68.4-.8.79,5.93,1.19,8.89.39,2.96.79,9.5,1.19,8.86.39-.65.79-13.36,1.18-12.74.4.62.8,12.82,1.19,16.46.3,2.73.89,3.61,1.19,5.42.4,2.42.79,6.13,1.19,9.08.39,2.95.79,7.38,1.19,8.6.23.72.95-1.33,1.18-1.27.12.04,1.07.9,1.19,1.92.4,3.44.79,14.89,1.19,18.72.22,2.12.97,5.13,1.19,4.19.39-1.71.79-8.82,1.18-14.42.4-5.6.8-16.37,1.19-19.22.16-1.12,1.03,2.18,1.19,2.14.39-.1.79-2.31,1.19-2.72"/>
  </g>
  <g id="Fenster_Neu">
    <path class="cls-2" d="m748.8,27.99v360"/>
    <path class="cls-2" d="m590.4,27.99v360"/>
    <path class="cls-2" d="m432,27.99v360"/>
    <path class="cls-2" d="m273.6,27.99v360"/>
    <path class="cls-2" d="m907.2,118H115.2"/>
    <path class="cls-2" d="m907.2,207.99H115.2"/>
    <path class="cls-2" d="m907.2,297.99H115.2"/>
    <rect class="cls-7" x="115.2" y="27.99" width="792" height="360"/>
    <line class="cls-3" x1="1183.3" y1="28" x2="1183.3" y2="388"/>
    <line class="cls-3" x1="1243.56" y1="28" x2="1243.56" y2="388"/>
    <line class="cls-3" x1="1286.61" y1="28" x2="1286.61" y2="388"/>
    <line class="cls-3" x1="1319.32" y1="28" x2="1319.32" y2="388"/>
    <line class="cls-3" x1="1346.87" y1="28" x2="1346.87" y2="388"/>
    <line class="cls-3" x1="1370.97" y1="28" x2="1370.97" y2="388"/>
    <line class="cls-3" x1="1389.91" y1="28" x2="1389.91" y2="388"/>
    <line class="cls-3" x1="1407.13" y1="28" x2="1407.13" y2="388"/>
    <line class="cls-6" x1="1424.35" y1="28" x2="1424.35" y2="388"/>
    <line class="cls-3" x1="1527.65" y1="28" x2="1527.65" y2="388"/>
    <line class="cls-3" x1="1587.91" y1="28" x2="1587.91" y2="388"/>
    <line class="cls-3" x1="1630.96" y1="28" x2="1630.96" y2="388"/>
    <line class="cls-3" x1="1663.67" y1="28" x2="1663.67" y2="388"/>
    <line class="cls-3" x1="1691.22" y1="28" x2="1691.22" y2="388"/>
    <line class="cls-3" x1="1715.32" y1="28" x2="1715.32" y2="388"/>
    <line class="cls-3" x1="1734.26" y1="28" x2="1734.26" y2="388"/>
    <line class="cls-3" x1="1751.48" y1="28" x2="1751.48" y2="388"/>
    <line class="cls-6" x1="1768.69" y1="28" x2="1768.69" y2="388"/>
    <line class="cls-8" x1="1080" y1="117.99" x2="1872" y2="117.99"/>
    <line class="cls-8" x1="1080" y1="207.99" x2="1872" y2="207.99"/>
    <line class="cls-8" x1="1080" y1="297.99" x2="1872" y2="297.99"/>
    <line class="cls-5" x1="1080" y1="163.03" x2="1872" y2="163.03"/>
    <line class="cls-5" x1="1080" y1="253.03" x2="1872" y2="253.03"/>
    <line class="cls-5" x1="1080" y1="343.03" x2="1872" y2="343.03"/>
    <line class="cls-5" x1="1080" y1="72.99" x2="1872" y2="72.99"/>
    <rect class="cls-1" x="1080" y="27.99" width="792" height="360"/>
    <path class="cls-4" d="m1080,105.9c5.2,1.83,21.61,7.44,31.21,11.01,9.6,3.57,18.18,6.94,26.38,10.41,8.21,3.47,15.69,7.41,22.86,10.39,7.17,2.98,13.8,5.46,20.16,7.51,6.37,2.04,12.31,2.65,18.03,4.76,5.72,2.11,11.12,5.34,16.32,7.88,5.2,2.53,10.13,5.2,14.89,7.32,4.77,2.12,9.31,3.94,13.71,5.41,4.39,1.47,8.6,2.24,12.68,3.4,4.08,1.16,8,2.14,11.8,3.55,3.81,1.4,7.48,3.48,11.05,4.88,3.57,1.4,7.01,2.01,10.37,3.53,3.36,1.52,6.61,4.18,9.79,5.58,3.17,1.41,6.25,1.84,9.26,2.86,3.01,1.01,5.92,2.34,8.78,3.23,2.85.89,5.63,1.36,8.35,2.09s5.36,1.01,7.96,2.32c2.59,1.31,5.13,4.02,7.61,5.52,2.48,1.5,4.91,2.39,7.29,3.51,2.37,1.12,4.7,2.47,6.98,3.21,2.28.75,4.51.26,6.71,1.27,2.19,1.02,4.35,3.98,6.46,4.83,2.12.85,4.18-.1,6.23.28,2.03.38,4.04,1.34,6,1.98,1.97.64,3.9,1.5,5.81,1.87,1.9.37,3.77-.74,5.61.35,1.85,1.09,3.65,4.99,5.44,6.18,1.78,1.19,3.53.77,5.26.99,1.73.22,3.43-.09,5.12.31,1.68.4,3.33,1.2,4.96,2.08,1.63.87,3.24,2.28,4.83,3.16,1.58.88,3.15,1.48,4.69,2.13,1.54.63,3.06,1.38,4.56,1.7,1.5.33,2.98-.31,4.45.25,1.47.57,2.91,2.22,4.33,3.14,1.43.91,2.83,1.81,4.23,2.38,1.39.56,2.77.52,4.13,1,1.36.49,2.7,1.4,4.03,1.91,1.33.52,2.64.79,3.94,1.19,1.29.4,2.58.81,3.85,1.23,1.27.42,2.52,1.08,3.76,1.29,1.24.2,2.47-.08,3.68-.07,1.22,0,2.42-.27,3.61.1,1.19.36,2.36,1.34,3.53,2.09,1.17.75,2.32,1.71,3.46,2.41,1.14.7,2.27,1.27,3.39,1.77,1.12.51,2.22.94,3.32,1.3,1.1.36,2.18.31,3.26.89,1.08.57,2.14,1.84,3.2,2.53,1.05.7,2.1,1.33,3.14,1.62,1.04.3,2.07.06,3.08.14,1.02.08,2.03-.07,3.03.34,1,.42,1.99,1.57,2.98,2.15.98.59,1.95.92,2.92,1.35.96.43,1.93,1,2.87,1.25.96.25,1.89,0,2.83.23.93.22,1.86.87,2.78,1.15.92.29,1.84.26,2.74.58.91.31,1.8,1,2.69,1.32.9.32,1.78.25,2.65.61.88.35,1.75,1.04,2.62,1.54.86.51,1.72.87,2.57,1.47.86.59,1.7,1.62,2.54,2.08.84.47,1.67.52,2.5.75.83.22,1.66.05,2.47.56.81.51,1.62,2.13,2.42,2.53.81.38,1.61-.14,2.4-.18.79-.04,1.58.09,2.36-.06.77-.14,1.56-1.19,2.32-.8.77.39,1.54,2.45,2.3,3.15.77.71,1.52.97,2.27,1.11.76.14,1.5-.38,2.24-.29s1.47.32,2.21.85c.73.54,1.46,2.13,2.18,2.33.72.19,1.44-1.18,2.15-1.14.72.05,1.42.75,2.13,1.39.7.64,1.4,1.84,2.1,2.46.69.63,1.38,1.38,2.07,1.27.69-.1,1.38-1.53,2.05-1.88.68-.35,1.36-.44,2.03-.23.68.22,1.34.91,2,1.5.67.59,1.33,1.81,1.99,2.08.65.26,1.3-.46,1.95-.51.65-.05,1.29-.19,1.94.22s1.28,1.27,1.91,2.24c.63.98,1.27,3.18,1.89,3.61.63.43,1.25-.75,1.87-1.03.62-.27,1.24-.52,1.85-.61.62-.09,1.23.03,1.84.08.6.05,1.21-.02,1.81.2.6.22,1.19.88,1.79,1.1s1.19.02,1.78.2c.58.18,1.17.67,1.75.84.58.18,1.16-.21,1.74.21.58.42,1.15,1.56,1.72,2.32.57.75,1.14,1.63,1.7,2.19.57.57,1.13,1.15,1.69,1.2.56.05,1.12-.83,1.67-.9.55-.06,1.1.67,1.66.54.54-.13,1.1-1.19,1.64-1.31.54-.13,1.08.19,1.62.56.54.37,1.07,1.16,1.61,1.64.53.47,1.06.48,1.59,1.22.53.73,1.05,2.45,1.57,3.17.53.73,1.05.99,1.57,1.21.52.21,1.04.22,1.55.06.52-.17,1.03-.71,1.54-1.06.51-.35,1.01-1.07,1.52-1.05.51,0,1.01.75,1.51,1.11.5.36,1,.77,1.5,1.06.49.29.99.8,1.48.68.49-.11.98-1.21,1.47-1.38.49-.18.97-.02,1.46.35.49.38.96,1.38,1.45,1.9.48.53.96.6,1.42,1.25.48.65.96,2.4,1.42,2.64.47.25.94-.79,1.41-1.15.47-.36.93-.79,1.4-1.01.46-.22.92-.34,1.38-.29.46.05.91.11,1.38.56.45.46.91,1.87,1.36,2.16s.91-.29,1.36-.37c.44-.09.89-.26,1.34-.13.4.12.92.22,1.33.91.44.76.89,3.19,1.33,3.62.44.44.87-.47,1.31-1.02.44-.55.87-2.33,1.3-2.28.44.03.86,1.68,1.29,2.49s.86,2.16,1.29,2.35c.42.18.85-.95,1.27-1.23.42-.27.85-.38,1.26-.45.42-.07.84-.21,1.26.02.41.24.83,1.03,1.24,1.4.41.36.82.39,1.24.81.41.42.82,1.69,1.23,1.7.4,0,.82-1.36,1.22-1.66s.81-.48,1.21-.14c.4.34.8,1.55,1.19,2.2.4.67.8,1.6,1.19,1.76.4.16.79-.52,1.19-.79.4-.26.78-.48,1.18-.79.39-.3.78-.87,1.17-1.05.39-.18.77-.34,1.16-.03.38.3.77,1.46,1.15,1.87.38.41.76.5,1.15.59.38.09.76-.22,1.14-.06.38.18.75.75,1.13,1.09.37.33.75.76,1.12.91.37.15.74-.13,1.12,0,.36.14.73.35,1.1.83.37.48.73,1.85,1.1,2.02.36.18.72-.97,1.09-.99.37-.02.73.73,1.09.87.36.14.72-.14,1.09-.03.35.11.71.51,1.07.71.35.19.71.6,1.06.47s.71-1.15,1.06-1.25c.35-.1.7.36,1.05.7.35.33.7,1.07,1.05,1.3.35.23.69.25,1.04.1.35-.15.69-1.03,1.04-.99.35.03.68.99,1.03,1.18.34.18.68-.2,1.02-.07.34.12.68.69,1.01.83.34.14.68.09,1.01.02.33-.07.67-.65,1-.44.33.21.66,1.11,1,1.68.33.59.66,1.22.99,1.8.33.59.66,1.77.99,1.72.33-.06.65-1.5.98-2.05.33-.55.65-1.29.97-1.27.33.02.65.96.97,1.4.32.44.64,1.14.96,1.26.32.12.64-.63.96-.54.31.1.63.83.95,1.13.32.31.63.67.96.71.31.05.63-.23.94-.45.31-.21.63-.63.94-.82.31-.18.63-.51.93-.24.31.26.62,1.52.93,1.85.3.34.62,0,.92.18.3.18.61.48.91.91.3.43.61,1.38.91,1.68.3.3.61.22.91.09.3-.13.61-.65.91-.87.3-.21.6-.53.9-.42.3.1.6.74.9,1.07.3.34.59.55.89.91.29.37.58,1.16.88,1.31.3.15.58-.18.88-.43.29-.24.58-.98.87-1.03.29-.05.58.35.87.72.29.37.58,1.3.86,1.51.29.22.58-.57.86-.25.29.32.57,1.82.86,2.17.26.33.59.14.86-.05.28-.2.56-1.01.85-1.16.28-.15.56.13.84.25.28.13.57.26.84.51.28.24.56.64.84.95.28.3.56.83.83.89.28.06.55-.26.83-.52.27-.25.55-.54.82-.99.27-.46.55-1.76.82-1.73.27.04.54,1.43.82,1.94.27.51.54.83.82,1.15.26.32.54.89.81.77.26-.13.54-1.35.81-1.52.26-.16.54.54.8.56.26.02.54-.28.8-.41.26-.13.53-.47.79-.38.26.1.53.62.79.96.26.34.53,1.02.79,1.11.26.1.52-.56.78-.51.26.05.52.75.78.83.26.08.51-.24.77-.33.26-.1.51-.29.77-.22.26.07.51.49.77.62s.51.03.77.17c.26.13.51.36.77.63.25.27.5.87.76.99.25.11.5-.34.76-.32.19.02.56.06.75.45.25.51.5,2.34.75,2.58.25.24.49-.98.74-1.13.25-.16.5-.02.75.18.24.2.49,1.05.73,1,.25-.05.49-1.03.74-1.27.24-.24.49-.35.73-.18.24.17.49,1.08.72,1.22.25.13.49-.13.73-.42.24-.29.48-1.19.72-1.32.18-.1.54.08.72.47.24.52.48,2.53.72,2.65.24.13.48-1.44.72-1.88.24-.44.47-1.03.71-.79.24.24.48,1.93.71,2.24.24.3.47-.23.71-.39.23-.16.47-.91.7-.58.24.34.47,1.83.7,2.58.24.76.47,1.74.7,1.97.23.23.46-.6.69-.59s.46.99.69.67.46-2.21.69-2.61c.17-.3.51.14.68.21.23.08.45.17.68.27s.45.11.68.35c.22.23.45.87.68,1.08s.45.24.68.14c.22-.1.44-.71.68-.73.22-.02.44.63.67.59.22-.04.44-.63.67-.82.21-.18.45-.58.67-.29.22.3.44,1.6.66,2.12.22.54.44.95.66,1.06.22.1.44-.31.66-.44.21-.13.44-.1.65-.34.22-.23.44-.94.66-1.07.1-.06.54-.02.64.33.22.75.44,3.47.65,4.17.09.3.55.09.64.02.21-.18.43-.79.64-1.07.21-.28.43-.47.64-.6.21-.13.43-.27.63-.19.21.09.43.7.63.71.21,0,.43-.52.63-.69.21-.17.42-.53.63-.31.21.21.42,1.11.63,1.6.21.49.42,1.28.63,1.34.21.06.42-.99.63-1.01s.41.97.62.86.41-1.43.62-1.54.41.55.62.87.41,1.24.62,1.02c.21-.23.4-2.24.61-2.38.21-.14.41,1.11.61,1.5.21.38.41.78.61.81.21.03.4-.41.61-.64.2-.22.4-.53.6-.71.19-.18.41-.68.6-.38.2.3.4,2.07.6,2.23.2.16.4-1.34.59-1.27.2.06.4,1.14.6,1.67.2.54.4,1.45.59,1.54.2.1.4-.48.58-.99.2-.5.4-1.85.59-2.03.2-.18.4.68.58.97.2.28.4.46.58.74.2.27.4.63.58.88.2.26.39.73.58.71.19-.03.39-.82.58-.87.19-.06.39.51.58.55.19.04.39-.48.58-.3.19.18.38,1.3.58,1.37.19.07.38-.7.57-.95.19-.24.38-.54.57-.52.19,0,.38.55.57.61.19.06.38-.22.57-.24.19,0,.37,0,.56.18.19.18.38.57.56.91.19.35.38,1.05.56,1.18.19.13.38-.28.56-.41.19-.13.37-.31.56-.34.18-.04.37.14.55.14s.37-.11.55-.16c.19-.05.37-.04.55-.13.19-.09.37-.22.55-.38s.36-.78.55-.63c.18.14.36,1.18.54,1.5.16.28.38.66.54.38.18-.3.36-2.36.54-2.22.18.14.36,2.57.54,3.04.1.26.44-.14.54-.16.12-.04.42-.4.54-.15.18.37.35,2.01.54,2.37.13.26.4-.15.54-.25.18-.13.35-.39.54-.54.15-.13.37-.06.53-.34.18-.31.35-1.25.53-1.52.15-.22.39-.08.53-.07.12,0,.4-.14.53.09.17.33.35,1.68.53,1.88s.35-.88.52-.63c.17.24.35,1.86.53,2.11.17.25.35-.47.52-.63.17-.17.35-.67.51-.39.17.27.35,1.92.52,2.03.17.11.35-1.06.52-1.38.16-.31.34-.54.51-.51.17.04.34.45.51.72.17.27.34.99.51.93.17-.06.34-.8.51-1.27.16-.47.34-1.33.5-1.52.12-.13.4.09.51.38.16.44.34,1.95.5,2.28.12.25.38-.27.5-.28.16-.02.34.11.5.19.16.09.33.25.5.31.16.06.33.23.49.06.16-.16.33-.85.49-1.07.16-.21.34-.24.5-.21.16.04.33.44.49.42.16-.02.33-.72.49-.53s.33,1.14.49,1.7.33,1.47.49,1.64c.16.18.33-.37.49-.57.16-.21.32-.51.49-.65.16-.14.32-.34.49-.22.16.12.32.55.49.93.16.38.32,1.19.48,1.35.1.1.39-.12.49-.42.16-.5.31-2.1.48-2.57.08-.25.4-.27.48-.24.12.04.36.22.48.58.16.48.32,1.77.48,2.28.13.42.34.91.47.77.16-.17.32-1.39.48-1.76.12-.3.35-.44.47-.46.12-.02.35.07.47.33.16.34.31,1.31.47,1.68.14.33.34.93.47.59.16-.4.31-2.56.47-2.97.12-.32.35.49.47.52.15.04.3-.26.46-.29.16-.02.3.08.46.18.16.1.31.36.46.42.16.06.31.11.46-.06.15-.16.31-.46.46-.98.16-.55.3-2.43.46-2.32.15.11.3,2.21.45,2.99.16.78.3,1.38.45,1.67.11.2.35.14.46.05.15-.13.3-.71.45-.83.15-.13.3.18.45.09.15-.1.3-.59.44-.68.08-.04.37-.03.45.19.15.41.3,1.84.44,2.26.09.23.37.3.45.22.15-.13.3-.79.44-1,.15-.22.3-.26.44-.3.09-.02.35-.12.44.08.15.33.3,1.44.44,1.89.15.46.29.93.44.87.15-.05.3-1.13.44-1.18.15-.06.29.98.44.88.15-.1.3-1.09.44-1.5.15-.42.3-.99.44-.98.15,0,.3.69.44,1.03.15.33.3,1.02.44.96.15-.05.29-1.13.44-1.28.14-.14.29.25.43.4.15.15.29.63.44.51.14-.12.29-.92.43-1.23.15-.3.29-.77.43-.6.15.17.29,1.62.43,1.62.15,0,.29-1.32.43-1.62.1-.21.33-.24.43-.18.11.06.32.3.43.7.14.54.28,2.08.42,2.53.07.22.35.32.42.2.15-.25.29-1.41.43-1.68.1-.18.31.22.42.14.14-.12.28-.55.42-.83.14-.28.28-1.11.42-.86.14.26.28,1.84.41,2.37.12.46.3.99.42.84.14-.16.28-1.81.42-1.84.13-.02.27,1.73.41,1.7.14-.03.27-1.59.41-1.9.06-.14.35-.17.41.02.14.44.28,2.45.41,2.64.14.18.28-1.11.41-1.55.14-.44.27-1.08.41-1.11.14-.03.27.55.41.93.13.39.27.96.4,1.41.14.45.27,1.3.41,1.27.13-.03.27-1.15.4-1.47.12-.27.29-.48.4-.43.12.05.28.34.4.75.14.43.27,1.79.4,1.85.13.06.27-.97.4-1.47s.26-1.34.4-1.52c.13-.18.26.26.4.42.11.12.3.21.4.51.13.39.26,1.45.4,1.85.11.31.3.61.4.54.14-.09.27-1.08.4-1.07.13.02.26,1.15.4,1.16.13.02.26-.84.4-1.06.12-.2.27-.14.39-.26.13-.14.26-.6.4-.6s.26.42.4.58c.12.16.26.14.39.37.13.24.26,1.15.4,1.07.12-.08.26-1.03.39-1.53.13-.5.26-1.39.39-1.45.13-.06.26.99.39,1.07.13.07.26-.4.39-.61.13-.2.26-.66.39-.63.13.02.26.42.39.78.12.35.26,1.24.38,1.33.13.08.26-.92.39-.83.12.1.26,1.19.38,1.41.07.12.31.06.39-.11.12-.32.26-1.72.38-1.82.12-.1.26,1.05.38,1.19.12.15.26-.1.38-.3.12-.21.26-.71.38-.95.12-.23.26-.79.38-.5.12.29.25,1.72.38,2.23.11.45.26.91.37.84.12-.08.26-1.2.38-1.34.07-.09.3.21.37.51.12.49.25,2.38.37,2.41.13.03.26-1.54.38-2.21.12-.67.25-1.56.37-1.83.08-.18.29.17.37.19.12.04.25.03.37.06.1.02.26.22.37.07.12-.19.24-1.44.36-1.23.12.22.25,1.87.37,2.49.12.63.25,1.14.37,1.28.12.15.24-.3.36-.38.12-.08.25.02.36-.14.12-.16.25-.96.37-.83.12.14.24,1.31.36,1.64.08.23.27.35.36.35.12,0,.24-.3.36-.32.12-.03.25.32.36.16.12-.17.24-.92.36-1.19.11-.25.25-.38.35-.42.12-.03.24.27.36.22.12-.06.24-.54.35-.55.12-.02.24.27.36.44.12.17.24.5.35.58.12.07.24-.05.35-.11.12-.06.24-.22.36-.25.08-.02.27.21.35.05.12-.22.23-1.05.35-1.37.11-.3.24-.65.35-.54.12.11.23.78.35,1.23.12.45.24,1.19.35,1.51.09.24.26.16.35.41.12.33.23,1.74.35,1.56.12-.19.24-1.99.35-2.69.12-.71.23-1.4.35-1.54.11-.11.25.35.35.76.12.44.23,1.5.35,1.93.1.35.26.61.35.64.12.03.23-.35.35-.42.09-.06.25.14.35,0,.12-.18.22-.85.34-1.07.11-.2.25-.27.35-.29.06,0,.29,0,.35.19.12.38.23,1.66.34,2.04.05.16.3.46.35.26.12-.49.23-2.76.34-3.2.08-.32.26.36.35.57.12.29.22,1.07.34,1.14.12.08.23-.46.34-.66.12-.2.23-.51.34-.52.12,0,.23.42.34.48.12.06.23-.13.34-.12.1,0,.25.02.34.19.12.19.22,1,.34.99,0,0,.34-.54.34-1.12"/>
  </g>
  <g id="Schrift">
    <g>
      <path class="cls-10" d="m469.2,480.53v6.14h4.73v3.35h-4.73v15.75c0,1.02.21,1.78.63,2.29.42.51,1.14.76,2.16.76.5,0,1.19-.09,2.06-.28v3.5c-1.14.31-2.25.47-3.33.47-1.94,0-3.4-.59-4.38-1.76s-1.48-2.84-1.48-4.99v-15.73h-4.62v-3.35h4.62v-6.14h4.34Z"/>
      <path class="cls-10" d="m490.9,479.94c0-.7.21-1.3.64-1.78s1.07-.73,1.91-.73,1.48.24,1.92.73.66,1.08.66,1.78-.22,1.29-.66,1.76-1.08.7-1.92.7-1.48-.23-1.91-.7-.64-1.05-.64-1.76Zm4.69,32.09h-4.34v-25.36h4.34v25.36Z"/>
      <path class="cls-10" d="m506.63,486.67l.14,3.19c1.94-2.44,4.47-3.66,7.59-3.66,5.36,0,8.06,3.02,8.11,9.07v16.76h-4.34v-16.78c-.02-1.83-.43-3.18-1.25-4.05s-2.1-1.31-3.83-1.31c-1.41,0-2.64.38-3.7,1.12s-1.89,1.73-2.48,2.95v18.07h-4.34v-25.36h4.1Z"/>
      <path class="cls-10" d="m555.66,505.3c0-1.17-.44-2.08-1.32-2.73s-2.42-1.21-4.62-1.68-3.94-1.03-5.23-1.69-2.24-1.44-2.86-2.34-.93-1.98-.93-3.23c0-2.08.88-3.84,2.64-5.27s4-2.16,6.74-2.16c2.88,0,5.21.74,7,2.23s2.68,3.38,2.68,5.7h-4.36c0-1.19-.5-2.21-1.51-3.07s-2.28-1.29-3.81-1.29-2.81.34-3.7,1.03-1.34,1.59-1.34,2.7c0,1.05.41,1.84,1.24,2.37s2.32,1.04,4.49,1.52,3.92,1.06,5.26,1.73,2.34,1.48,2.99,2.43.97,2.1.97,3.46c0,2.27-.91,4.08-2.72,5.45s-4.16,2.05-7.05,2.05c-2.03,0-3.83-.36-5.39-1.08s-2.79-1.72-3.67-3.01-1.32-2.68-1.32-4.18h4.34c.08,1.45.66,2.61,1.75,3.46s2.52,1.28,4.3,1.28c1.64,0,2.96-.33,3.95-1s1.49-1.55,1.49-2.66Z"/>
    </g>
    <g>
      <path class="cls-10" d="m32.4,272.99c-.38.19-1.04.34-2,.46,1.57,1.51,2.36,3.32,2.36,5.41,0,1.88-.53,3.41-1.59,4.61s-2.41,1.8-4.04,1.8c-1.98,0-3.52-.75-4.61-2.26s-1.64-3.62-1.64-6.35v-3.16h-1.49c-1.14,0-2.04.34-2.71,1.02s-1.01,1.68-1.01,3.01c0,1.16.29,2.13.88,2.92s1.29,1.18,2.13,1.18v3.27c-.95,0-1.87-.34-2.75-1.01s-1.59-1.59-2.1-2.74-.77-2.42-.77-3.81c0-2.19.55-3.91,1.64-5.15s2.6-1.89,4.53-1.93h8.75c1.75,0,3.13-.22,4.17-.67h.28v3.41Zm-2.48,5.4c0-1.02-.26-1.99-.79-2.9s-1.21-1.58-2.06-1.99h-3.9v2.55c0,3.98,1.17,5.98,3.5,5.98,1.02,0,1.82-.34,2.39-1.02s.86-1.55.86-2.62Z"/>
      <path class="cls-10" d="m13.38,262.09l2.11-.09c-1.64-1.39-2.46-3.28-2.46-5.64,0-2.66,1.02-4.47,3.06-5.43-.91-.63-1.65-1.46-2.21-2.47s-.84-2.21-.84-3.59c0-4.17,2.21-6.29,6.63-6.36h12.74v3.25h-12.55c-1.36,0-2.38.31-3.05.93s-1.01,1.66-1.01,3.13c0,1.21.36,2.21,1.08,3.01s1.69,1.26,2.91,1.39h12.62v3.27h-12.46c-2.77,0-4.15,1.35-4.15,4.06,0,2.13.91,3.59,2.72,4.38h13.89v3.25H13.38v-3.08Z"/>
      <path class="cls-10" d="m23.1,217.53c2.89,0,5.23.66,7,1.99s2.65,3.12,2.65,5.38-.73,4.12-2.2,5.45h9.16v3.25H13.38v-2.97l2.11-.16c-1.64-1.32-2.46-3.16-2.46-5.52s.86-4.09,2.58-5.42,4.12-2,7.19-2h.3Zm-.37,3.25c-2.14,0-3.84.46-5.08,1.37s-1.86,2.17-1.86,3.76c0,1.97.87,3.45,2.62,4.43h9.09c1.73-.97,2.6-2.46,2.6-4.46,0-1.56-.62-2.8-1.85-3.72s-3.07-1.38-5.51-1.38Z"/>
      <path class="cls-10" d="m32.4,209.87v3.25H5.4v-3.25h27Z"/>
      <path class="cls-10" d="m8.34,204.65c-.53,0-.97-.16-1.34-.48s-.54-.8-.54-1.43.18-1.11.54-1.44.81-.49,1.34-.49.97.16,1.32.49.53.81.53,1.44-.18,1.11-.53,1.43-.79.48-1.32.48Zm24.06-3.52v3.25H13.38v-3.25h19.02Z"/>
      <path class="cls-10" d="m8.77,191.52h4.61v-3.55h2.51v3.55h11.81c.76,0,1.33-.16,1.71-.47.38-.32.57-.86.57-1.62,0-.38-.07-.89-.21-1.55h2.62c.23.86.35,1.69.35,2.5,0,1.45-.44,2.55-1.32,3.29s-2.13,1.11-3.74,1.11h-11.79v3.46h-2.51v-3.46h-4.61v-3.25Z"/>
      <path class="cls-10" d="m30.52,172.43c1.49,1.27,2.23,3.12,2.23,5.57,0,2.03-.59,3.57-1.77,4.63s-2.92,1.6-5.23,1.61h-12.38v-3.25h12.29c2.88,0,4.32-1.17,4.32-3.52,0-2.48-.93-4.14-2.78-4.96h-13.83v-3.25h19.02v3.09l-1.88.07Z"/>
      <path class="cls-10" d="m22.73,165.11c-2.92,0-5.26-.69-7.04-2.07s-2.66-3.19-2.66-5.43.76-3.99,2.29-5.29H5.4v-3.25h27v2.99l-2.04.16c1.59,1.3,2.39,3.11,2.39,5.43s-.9,4-2.71,5.39-4.16,2.08-7.07,2.08h-.25Zm.37-3.25c2.16,0,3.84-.45,5.06-1.34s1.83-2.12,1.83-3.69c0-2.06-.93-3.57-2.78-4.52h-8.74c-1.79.97-2.69,2.47-2.69,4.48,0,1.59.62,2.84,1.85,3.73s3.05,1.34,5.47,1.34Z"/>
      <path class="cls-10" d="m32.75,136.13c0,2.58-.85,4.68-2.54,6.29s-3.96,2.43-6.79,2.43h-.6c-1.89,0-3.57-.36-5.05-1.08s-2.64-1.73-3.48-3.02-1.26-2.7-1.26-4.21c0-2.47.81-4.39,2.44-5.77s3.96-2.06,7-2.06h1.35v12.88c1.88-.05,3.39-.59,4.54-1.64s1.73-2.38,1.73-4c0-1.15-.23-2.12-.7-2.92s-1.09-1.49-1.86-2.09l1.55-1.99c2.45,1.59,3.67,3.98,3.67,7.17Zm-17.05.4c0,1.31.48,2.41,1.43,3.3s2.29,1.44,4.02,1.65v-9.53h-.25c-1.65.09-2.93.54-3.84,1.34s-1.36,1.88-1.36,3.23Z"/>
    </g>
    <g>
      <path class="cls-10" d="m56.03,389.25h-8.58v-2.65h8.58v2.65Z"/>
      <path class="cls-10" d="m69.55,398.79h-3.27v-21.67l-6.56,2.41v-2.95l9.32-3.5h.51v25.72Z"/>
      <path class="cls-10" d="m79.48,397.09c0-.56.17-1.03.5-1.41s.83-.56,1.5-.56,1.17.19,1.52.56.52.84.52,1.41-.17.99-.52,1.35-.85.54-1.52.54-1.17-.18-1.5-.54-.5-.81-.5-1.35Z"/>
      <path class="cls-10" d="m104.6,387.88c0,3.81-.65,6.64-1.95,8.49s-3.33,2.78-6.1,2.78-4.75-.91-6.06-2.72-1.99-4.51-2.04-8.11v-4.34c0-3.76.65-6.56,1.95-8.38s3.34-2.74,6.12-2.74,4.78.88,6.08,2.65,1.97,4.49,2,8.17v4.22Zm-3.25-4.45c0-2.75-.39-4.76-1.16-6.02s-2-1.89-3.67-1.89-2.88.63-3.64,1.88-1.15,3.18-1.18,5.78v5.2c0,2.77.4,4.81,1.2,6.13s2.02,1.98,3.65,1.98,2.8-.62,3.58-1.86,1.19-3.2,1.22-5.87v-5.33Z"/>
    </g>
    <g>
      <path class="cls-10" d="m70.41,38.79h-3.27v-21.67l-6.56,2.41v-2.95l9.32-3.5h.51v25.72Z"/>
      <path class="cls-10" d="m80.35,37.09c0-.56.17-1.03.5-1.41s.83-.56,1.5-.56,1.17.19,1.52.56.52.84.52,1.41-.17.99-.52,1.35-.85.54-1.52.54-1.17-.18-1.5-.54-.5-.81-.5-1.35Z"/>
      <path class="cls-10" d="m105.47,27.88c0,3.81-.65,6.64-1.95,8.49s-3.33,2.78-6.1,2.78-4.75-.91-6.06-2.72-1.99-4.51-2.04-8.11v-4.34c0-3.76.65-6.56,1.95-8.38s3.34-2.74,6.12-2.74,4.78.88,6.08,2.65,1.97,4.49,2,8.17v4.22Zm-3.25-4.45c0-2.75-.39-4.76-1.16-6.02s-2-1.89-3.67-1.89-2.88.63-3.64,1.88-1.15,3.18-1.18,5.78v5.2c0,2.77.4,4.81,1.2,6.13s2.02,1.98,3.65,1.98,2.8-.62,3.58-1.86,1.19-3.2,1.22-5.87v-5.33Z"/>
    </g>
    <g>
      <path class="cls-10" d="m75.78,207.88c0,3.81-.65,6.64-1.95,8.49s-3.33,2.78-6.1,2.78-4.75-.91-6.06-2.72-1.99-4.51-2.04-8.11v-4.34c0-3.76.65-6.56,1.95-8.38s3.34-2.74,6.12-2.74,4.78.88,6.08,2.65,1.97,4.49,2,8.17v4.22Zm-3.25-4.45c0-2.75-.39-4.76-1.16-6.02s-2-1.89-3.67-1.89-2.88.63-3.64,1.88-1.15,3.18-1.18,5.78v5.2c0,2.77.4,4.81,1.2,6.13s2.02,1.98,3.65,1.98,2.8-.62,3.58-1.86,1.19-3.2,1.22-5.87v-5.33Z"/>
      <path class="cls-10" d="m80.35,217.09c0-.56.17-1.03.5-1.41s.84-.56,1.5-.56,1.17.19,1.52.56.52.84.52,1.41-.17.99-.52,1.35-.85.54-1.52.54-1.17-.18-1.5-.54-.5-.81-.5-1.35Z"/>
      <path class="cls-10" d="m105.47,207.88c0,3.81-.65,6.64-1.95,8.49s-3.33,2.78-6.1,2.78-4.75-.91-6.06-2.72-1.99-4.51-2.04-8.11v-4.34c0-3.76.65-6.56,1.95-8.38s3.34-2.74,6.12-2.74,4.78.88,6.08,2.65,1.97,4.49,2,8.17v4.22Zm-3.25-4.45c0-2.75-.39-4.76-1.16-6.02s-2-1.89-3.67-1.89-2.88.63-3.64,1.88-1.15,3.18-1.18,5.78v5.2c0,2.77.4,4.81,1.2,6.13s2.02,1.98,3.65,1.98,2.8-.62,3.58-1.86,1.19-3.2,1.22-5.87v-5.33Z"/>
    </g>
    <g>
      <path class="cls-10" d="m504.42,434.68c0,3.81-.65,6.64-1.95,8.49s-3.33,2.78-6.1,2.78-4.75-.91-6.06-2.72-1.99-4.51-2.04-8.11v-4.34c0-3.76.65-6.56,1.95-8.38s3.34-2.74,6.12-2.74,4.78.88,6.08,2.65,1.97,4.49,2,8.17v4.22Zm-3.25-4.45c0-2.75-.39-4.76-1.16-6.02s-2-1.89-3.67-1.89-2.88.63-3.64,1.88-1.15,3.18-1.18,5.78v5.2c0,2.77.4,4.81,1.2,6.13s2.02,1.98,3.65,1.98,2.8-.62,3.58-1.86,1.19-3.2,1.22-5.87v-5.33Z"/>
      <path class="cls-10" d="m508.99,443.89c0-.56.17-1.03.5-1.41s.83-.56,1.5-.56,1.17.19,1.52.56.52.84.52,1.41-.17.99-.52,1.35-.85.54-1.52.54-1.17-.18-1.5-.54-.5-.81-.5-1.35Z"/>
      <path class="cls-10" d="m519.56,432.76l1.3-12.76h13.11v3.01h-10.35l-.77,6.98c1.25-.74,2.68-1.11,4.27-1.11,2.33,0,4.18.77,5.55,2.31s2.06,3.62,2.06,6.25-.71,4.71-2.14,6.23-3.41,2.28-5.97,2.28c-2.26,0-4.11-.63-5.54-1.88s-2.24-2.99-2.44-5.2h3.08c.2,1.46.72,2.57,1.56,3.31s1.96,1.12,3.34,1.12c1.51,0,2.7-.52,3.56-1.55s1.29-2.46,1.29-4.27c0-1.71-.47-3.08-1.4-4.12s-2.17-1.56-3.72-1.56c-1.42,0-2.53.31-3.34.93l-.86.7-2.6-.67Z"/>
    </g>
    <path class="cls-10" d="m895.06,445.59h-3.27v-21.67l-6.56,2.41v-2.95l9.32-3.5h.51v25.72Z"/>
    <g>
      <path class="cls-10" d="m1413.13,512.03v-22.01h-4.01v-3.35h4.01v-2.6c0-2.72.73-4.82,2.18-6.3s3.51-2.23,6.16-2.23c1,0,1.99.13,2.98.4l-.23,3.5c-.73-.14-1.52-.21-2.34-.21-1.41,0-2.49.41-3.26,1.23-.77.82-1.15,2-1.15,3.54v2.68h5.41v3.35h-5.41v22.01h-4.34Z"/>
      <path class="cls-10" d="m1439.57,479.94c0-.7.21-1.3.64-1.78s1.07-.73,1.91-.73,1.48.24,1.92.73.66,1.08.66,1.78-.22,1.29-.66,1.76-1.08.7-1.92.7-1.48-.23-1.91-.7-.64-1.05-.64-1.76Zm4.69,32.09h-4.34v-25.36h4.34v25.36Z"/>
      <path class="cls-10" d="m1455.29,486.67l.14,3.19c1.94-2.44,4.47-3.66,7.59-3.66,5.36,0,8.06,3.02,8.11,9.07v16.76h-4.34v-16.78c-.02-1.83-.43-3.18-1.25-4.05s-2.1-1.31-3.83-1.31c-1.41,0-2.64.38-3.7,1.12s-1.89,1.73-2.48,2.95v18.07h-4.34v-25.36h4.1Z"/>
      <path class="cls-10" d="m1516.46,512.03h-4.52v-15.77h-17.2v15.77h-4.5v-34.12h4.5v14.67h17.2v-14.67h4.52v34.12Z"/>
      <path class="cls-10" d="m1527.85,508.49h14.84v3.54h-20.13v-3.19l13.99-18.59h-13.78v-3.59h19.22v3.07l-14.13,18.75Z"/>
    </g>
    <g>
      <path class="cls-10" d="m1066.71,445.59h-3.27v-21.67l-6.56,2.41v-2.95l9.32-3.5h.51v25.72Z"/>
      <path class="cls-10" d="m1092.28,434.68c0,3.81-.65,6.64-1.95,8.49s-3.33,2.78-6.1,2.78-4.75-.91-6.06-2.72-1.99-4.51-2.04-8.11v-4.34c0-3.76.65-6.56,1.95-8.38s3.34-2.74,6.12-2.74,4.78.88,6.08,2.65,1.97,4.49,2,8.17v4.22Zm-3.25-4.45c0-2.75-.39-4.76-1.16-6.02s-2-1.89-3.67-1.89-2.88.63-3.64,1.88-1.15,3.18-1.18,5.78v5.2c0,2.77.4,4.81,1.2,6.13s2.02,1.98,3.65,1.98,2.8-.62,3.58-1.86,1.19-3.2,1.22-5.87v-5.33Z"/>
      <path class="cls-10" d="m1105.34,433.61h-9.78v-1.36l5.16-5.74c.77-.87,1.29-1.57,1.58-2.12.29-.54.44-1.11.44-1.69,0-.78-.24-1.42-.71-1.92-.47-.5-1.1-.75-1.89-.75-.94,0-1.68.27-2.2.8-.52.54-.79,1.28-.79,2.24h-1.89c0-1.37.44-2.48,1.33-3.33.88-.85,2.07-1.27,3.55-1.27,1.39,0,2.48.36,3.29,1.09.8.73,1.21,1.7,1.21,2.91,0,1.47-.94,3.22-2.81,5.25l-4,4.33h7.49v1.55Z"/>
    </g>
    <g>
      <path class="cls-10" d="m1411.05,445.59h-3.27v-21.67l-6.56,2.41v-2.95l9.32-3.5h.51v25.72Z"/>
      <path class="cls-10" d="m1436.63,434.68c0,3.81-.65,6.64-1.95,8.49s-3.33,2.78-6.1,2.78-4.75-.91-6.06-2.72-1.99-4.51-2.04-8.11v-4.34c0-3.76.65-6.56,1.95-8.38s3.34-2.74,6.12-2.74,4.78.88,6.08,2.65,1.97,4.49,2,8.17v4.22Zm-3.25-4.45c0-2.75-.39-4.76-1.16-6.02s-2-1.89-3.67-1.89-2.88.63-3.64,1.88-1.15,3.18-1.18,5.78v5.2c0,2.77.4,4.81,1.2,6.13s2.02,1.98,3.65,1.98,2.8-.62,3.58-1.86,1.19-3.2,1.22-5.87v-5.33Z"/>
      <path class="cls-10" d="m1442.67,425.22h1.42c.9-.01,1.6-.25,2.11-.71s.77-1.08.77-1.86c0-1.75-.87-2.62-2.61-2.62-.82,0-1.47.23-1.96.7-.49.47-.73,1.09-.73,1.86h-1.9c0-1.18.43-2.16,1.3-2.95.86-.78,1.96-1.17,3.29-1.17,1.41,0,2.51.37,3.31,1.12.8.74,1.2,1.78,1.2,3.1,0,.65-.21,1.28-.63,1.89-.42.61-.99,1.06-1.72,1.36.82.26,1.45.69,1.9,1.29.45.6.67,1.34.67,2.2,0,1.34-.44,2.4-1.31,3.19-.87.79-2.01,1.18-3.41,1.18s-2.54-.38-3.42-1.14-1.32-1.76-1.32-3h1.91c0,.79.26,1.41.77,1.89.51.47,1.2.71,2.06.71.92,0,1.62-.24,2.1-.72.49-.48.73-1.17.73-2.06s-.27-1.53-.8-2c-.53-.46-1.3-.7-2.31-.72h-1.42v-1.55Z"/>
    </g>
    <g>
      <path class="cls-10" d="m1755.4,445.59h-3.27v-21.67l-6.56,2.41v-2.95l9.32-3.5h.51v25.72Z"/>
      <path class="cls-10" d="m1780.98,434.68c0,3.81-.65,6.64-1.95,8.49s-3.33,2.78-6.1,2.78-4.75-.91-6.06-2.72-1.99-4.51-2.04-8.11v-4.34c0-3.76.65-6.56,1.95-8.38s3.34-2.74,6.12-2.74,4.78.88,6.08,2.65,1.97,4.49,2,8.17v4.22Zm-3.25-4.45c0-2.75-.39-4.76-1.16-6.02s-2-1.89-3.67-1.89-2.88.63-3.64,1.88-1.15,3.18-1.18,5.78v5.2c0,2.77.4,4.81,1.2,6.13s2.02,1.98,3.65,1.98,2.8-.62,3.58-1.86,1.19-3.2,1.22-5.87v-5.33Z"/>
      <path class="cls-10" d="m1792.26,428.59h2.07v1.55h-2.07v3.46h-1.91v-3.46h-6.79v-1.12l6.68-10.34h2.02v9.91Zm-6.55,0h4.64v-7.32l-.23.41-4.42,6.91Z"/>
    </g>
    <g>
      <path class="cls-10" d="m56.03,299.25h-8.58v-2.65h8.58v2.65Z"/>
      <path class="cls-10" d="m74.91,297.88c0,3.81-.65,6.64-1.95,8.49s-3.33,2.78-6.1,2.78-4.75-.91-6.06-2.72-1.99-4.51-2.04-8.11v-4.34c0-3.76.65-6.56,1.95-8.38s3.34-2.74,6.12-2.74,4.78.88,6.08,2.65,1.97,4.49,2,8.17v4.22Zm-3.25-4.45c0-2.75-.39-4.76-1.16-6.02s-2-1.89-3.67-1.89-2.88.63-3.64,1.88-1.15,3.18-1.18,5.78v5.2c0,2.77.4,4.81,1.2,6.13s2.02,1.98,3.65,1.98,2.8-.62,3.58-1.86,1.19-3.2,1.22-5.87v-5.33Z"/>
      <path class="cls-10" d="m79.48,307.09c0-.56.17-1.03.5-1.41s.83-.56,1.5-.56,1.17.19,1.52.56.52.84.52,1.41-.17.99-.52,1.35-.85.54-1.52.54-1.17-.18-1.5-.54-.5-.81-.5-1.35Z"/>
      <path class="cls-10" d="m90.04,295.96l1.3-12.76h13.11v3.01h-10.35l-.77,6.98c1.25-.74,2.68-1.11,4.27-1.11,2.33,0,4.18.77,5.55,2.31s2.06,3.62,2.06,6.25-.71,4.71-2.14,6.23-3.41,2.28-5.97,2.28c-2.26,0-4.11-.63-5.54-1.88s-2.24-2.99-2.44-5.2h3.08c.2,1.46.72,2.57,1.56,3.31s1.96,1.12,3.34,1.12c1.51,0,2.7-.52,3.56-1.55s1.29-2.46,1.29-4.27c0-1.71-.47-3.08-1.4-4.12s-2.17-1.56-3.72-1.56c-1.42,0-2.53.31-3.34.93l-.86.7-2.6-.67Z"/>
    </g>
    <g>
      <path class="cls-10" d="m75.78,117.88c0,3.81-.65,6.64-1.95,8.49s-3.33,2.78-6.1,2.78-4.75-.91-6.06-2.72-1.99-4.51-2.04-8.11v-4.34c0-3.76.65-6.56,1.95-8.38s3.34-2.74,6.12-2.74,4.78.88,6.08,2.65,1.97,4.49,2,8.17v4.22Zm-3.25-4.45c0-2.75-.39-4.76-1.16-6.02s-2-1.89-3.67-1.89-2.88.63-3.64,1.88-1.15,3.18-1.18,5.78v5.2c0,2.77.4,4.81,1.2,6.13s2.02,1.98,3.65,1.98,2.8-.62,3.58-1.86,1.19-3.2,1.22-5.87v-5.33Z"/>
      <path class="cls-10" d="m80.35,127.09c0-.56.17-1.03.5-1.41s.84-.56,1.5-.56,1.17.19,1.52.56.52.84.52,1.41-.17.99-.52,1.35-.85.54-1.52.54-1.17-.18-1.5-.54-.5-.81-.5-1.35Z"/>
      <path class="cls-10" d="m90.91,115.96l1.3-12.76h13.11v3.01h-10.35l-.77,6.98c1.25-.74,2.68-1.11,4.27-1.11,2.33,0,4.18.77,5.55,2.31s2.06,3.62,2.06,6.25-.71,4.71-2.14,6.23-3.41,2.28-5.97,2.28c-2.26,0-4.11-.63-5.54-1.88s-2.24-2.99-2.44-5.2h3.08c.2,1.46.72,2.57,1.56,3.31s1.96,1.12,3.34,1.12c1.51,0,2.7-.52,3.56-1.55s1.29-2.46,1.29-4.27c0-1.71-.47-3.08-1.4-4.12s-2.17-1.56-3.72-1.56c-1.42,0-2.53.31-3.34.93l-.86.7-2.6-.67Z"/>
    </g>
    <g>
      <path class="cls-10" d="m990,272.99c-.38.19-1.04.34-2,.46,1.57,1.51,2.36,3.32,2.36,5.41,0,1.88-.53,3.41-1.59,4.61s-2.41,1.8-4.03,1.8c-1.98,0-3.52-.75-4.61-2.26s-1.64-3.62-1.64-6.35v-3.16h-1.49c-1.14,0-2.04.34-2.72,1.02s-1.01,1.68-1.01,3.01c0,1.16.29,2.13.88,2.92s1.29,1.18,2.13,1.18v3.27c-.95,0-1.87-.34-2.75-1.01s-1.58-1.59-2.1-2.74-.77-2.42-.77-3.81c0-2.19.55-3.91,1.64-5.15s2.6-1.89,4.53-1.93h8.75c1.75,0,3.13-.22,4.17-.67h.28v3.41Zm-2.48,5.4c0-1.02-.26-1.99-.79-2.9s-1.21-1.58-2.06-1.99h-3.9v2.55c0,3.98,1.17,5.98,3.5,5.98,1.02,0,1.82-.34,2.39-1.02s.86-1.55.86-2.62Z"/>
      <path class="cls-10" d="m970.98,262.09l2.11-.09c-1.64-1.39-2.46-3.28-2.46-5.64,0-2.66,1.02-4.47,3.06-5.43-.91-.63-1.65-1.46-2.21-2.47s-.84-2.21-.84-3.59c0-4.17,2.21-6.29,6.63-6.36h12.74v3.25h-12.55c-1.36,0-2.38.31-3.05.93s-1.01,1.66-1.01,3.13c0,1.21.36,2.21,1.08,3.01s1.69,1.26,2.91,1.39h12.62v3.27h-12.46c-2.77,0-4.15,1.35-4.15,4.06,0,2.13.91,3.59,2.72,4.38h13.89v3.25h-19.02v-3.08Z"/>
      <path class="cls-10" d="m980.7,217.53c2.89,0,5.23.66,7,1.99s2.65,3.12,2.65,5.38-.73,4.12-2.2,5.45h9.16v3.25h-26.33v-2.97l2.11-.16c-1.64-1.32-2.46-3.16-2.46-5.52s.86-4.09,2.58-5.42,4.12-2,7.19-2h.3Zm-.37,3.25c-2.14,0-3.84.46-5.08,1.37s-1.86,2.17-1.86,3.76c0,1.97.87,3.45,2.62,4.43h9.09c1.73-.97,2.6-2.46,2.6-4.46,0-1.56-.62-2.8-1.85-3.72s-3.07-1.38-5.51-1.38Z"/>
      <path class="cls-10" d="m990,209.87v3.25h-27v-3.25h27Z"/>
      <path class="cls-10" d="m965.94,204.65c-.53,0-.97-.16-1.34-.48s-.54-.8-.54-1.43.18-1.11.54-1.44.81-.49,1.34-.49.97.16,1.32.49.53.81.53,1.44-.18,1.11-.53,1.43-.79.48-1.32.48Zm24.06-3.52v3.25h-19.02v-3.25h19.02Z"/>
      <path class="cls-10" d="m966.38,191.52h4.61v-3.55h2.51v3.55h11.81c.76,0,1.33-.16,1.72-.47.38-.32.57-.86.57-1.62,0-.38-.07-.89-.21-1.55h2.62c.23.86.35,1.69.35,2.5,0,1.45-.44,2.55-1.32,3.29s-2.13,1.11-3.74,1.11h-11.79v3.46h-2.51v-3.46h-4.61v-3.25Z"/>
      <path class="cls-10" d="m988.12,172.43c1.49,1.27,2.23,3.12,2.23,5.57,0,2.03-.59,3.57-1.77,4.63s-2.92,1.6-5.23,1.61h-12.38v-3.25h12.29c2.88,0,4.32-1.17,4.32-3.52,0-2.48-.93-4.14-2.78-4.96h-13.83v-3.25h19.02v3.09l-1.88.07Z"/>
      <path class="cls-10" d="m980.33,165.11c-2.92,0-5.26-.69-7.04-2.07s-2.66-3.19-2.66-5.43.76-3.99,2.29-5.29h-9.91v-3.25h27v2.99l-2.04.16c1.59,1.3,2.39,3.11,2.39,5.43s-.9,4-2.71,5.39-4.16,2.08-7.07,2.08h-.25Zm.37-3.25c2.16,0,3.84-.45,5.06-1.34s1.83-2.12,1.83-3.69c0-2.06-.93-3.57-2.78-4.52h-8.74c-1.79.97-2.69,2.47-2.69,4.48,0,1.59.62,2.84,1.85,3.73s3.05,1.34,5.47,1.34Z"/>
      <path class="cls-10" d="m990.35,136.13c0,2.58-.85,4.68-2.54,6.29s-3.96,2.43-6.79,2.43h-.6c-1.89,0-3.57-.36-5.05-1.08s-2.64-1.73-3.48-3.02-1.26-2.7-1.26-4.21c0-2.47.81-4.39,2.44-5.77s3.96-2.06,7-2.06h1.35v12.88c1.88-.05,3.39-.59,4.54-1.64s1.73-2.38,1.73-4c0-1.15-.23-2.12-.7-2.92s-1.09-1.49-1.86-2.09l1.55-1.99c2.45,1.59,3.67,3.98,3.67,7.17Zm-17.05.4c0,1.31.48,2.41,1.43,3.3s2.29,1.44,4.02,1.65v-9.53h-.25c-1.65.09-2.93.54-3.84,1.34s-1.36,1.88-1.36,3.23Z"/>
    </g>
    <g>
      <path class="cls-10" d="m108.42,434.68c0,3.81-.65,6.64-1.95,8.49s-3.33,2.78-6.1,2.78-4.75-.91-6.06-2.72-1.99-4.51-2.04-8.11v-4.34c0-3.76.65-6.56,1.95-8.38s3.34-2.74,6.12-2.74,4.78.88,6.08,2.65,1.97,4.49,2,8.17v4.22Zm-3.25-4.45c0-2.75-.39-4.76-1.16-6.02s-2-1.89-3.67-1.89-2.88.63-3.64,1.88-1.15,3.18-1.18,5.78v5.2c0,2.77.4,4.81,1.21,6.13s2.02,1.98,3.65,1.98,2.8-.62,3.58-1.86,1.19-3.2,1.22-5.87v-5.33Z"/>
      <path class="cls-10" d="m112.99,443.89c0-.56.17-1.03.5-1.41s.83-.56,1.5-.56,1.18.19,1.52.56.52.84.52,1.41-.17.99-.52,1.35-.85.54-1.52.54-1.17-.18-1.5-.54-.5-.81-.5-1.35Z"/>
      <path class="cls-10" d="m138.11,434.68c0,3.81-.65,6.64-1.95,8.49s-3.33,2.78-6.1,2.78-4.75-.91-6.06-2.72-1.99-4.51-2.04-8.11v-4.34c0-3.76.65-6.56,1.95-8.38s3.34-2.74,6.12-2.74,4.78.88,6.08,2.65,1.97,4.49,2,8.17v4.22Zm-3.25-4.45c0-2.75-.39-4.76-1.16-6.02s-2-1.89-3.67-1.89-2.88.63-3.64,1.88-1.15,3.18-1.18,5.78v5.2c0,2.77.4,4.81,1.21,6.13s2.02,1.98,3.65,1.98,2.8-.62,3.58-1.86,1.19-3.2,1.22-5.87v-5.33Z"/>
    </g>
    <g>
      <path class="cls-9" d="m1018.86,164h-8.58v-2.65h8.58v2.65Z"/>
      <path class="cls-9" d="m1032.38,173.55h-3.27v-21.67l-6.56,2.41v-2.95l9.32-3.5h.51v25.72Z"/>
      <path class="cls-9" d="m1058.68,173.55h-16.77v-2.34l8.86-9.84c1.31-1.49,2.22-2.7,2.72-3.63s.75-1.9.75-2.89c0-1.34-.4-2.43-1.21-3.29s-1.89-1.28-3.23-1.28c-1.62,0-2.87.46-3.77,1.38s-1.34,2.2-1.34,3.84h-3.25c0-2.36.76-4.26,2.28-5.71s3.55-2.18,6.09-2.18c2.38,0,4.26.62,5.64,1.87s2.07,2.91,2.07,4.98c0,2.52-1.61,5.52-4.82,9l-6.86,7.44h12.85v2.65Z"/>
    </g>
    <path class="cls-9" d="m1057.96,72.6c0,3.81-.65,6.64-1.95,8.49s-3.33,2.78-6.1,2.78-4.75-.91-6.06-2.72-1.99-4.51-2.04-8.11v-4.34c0-3.76.65-6.56,1.95-8.38s3.34-2.74,6.12-2.74,4.78.88,6.08,2.65,1.97,4.49,2,8.17v4.22Zm-3.25-4.45c0-2.75-.39-4.76-1.16-6.02s-2-1.89-3.67-1.89-2.88.63-3.64,1.88-1.15,3.18-1.18,5.78v5.2c0,2.77.4,4.81,1.2,6.13s2.02,1.98,3.65,1.98,2.8-.62,3.58-1.86,1.19-3.2,1.22-5.87v-5.33Z"/>
    <g>
      <path class="cls-9" d="m1018.86,254h-8.58v-2.65h8.58v2.65Z"/>
      <path class="cls-9" d="m1038.46,263.55h-16.77v-2.34l8.86-9.84c1.31-1.49,2.22-2.7,2.71-3.63s.75-1.9.75-2.89c0-1.34-.4-2.43-1.21-3.29s-1.89-1.28-3.23-1.28c-1.62,0-2.88.46-3.77,1.38s-1.34,2.2-1.34,3.84h-3.25c0-2.36.76-4.26,2.28-5.71s3.55-2.18,6.09-2.18c2.38,0,4.26.62,5.64,1.87s2.07,2.91,2.07,4.98c0,2.52-1.61,5.52-4.82,9l-6.86,7.44h12.85v2.65Z"/>
      <path class="cls-9" d="m1055.64,254.95h3.55v2.65h-3.55v5.94h-3.27v-5.94h-11.65v-1.92l11.46-17.74h3.46v17Zm-11.23,0h7.96v-12.55l-.39.7-7.58,11.85Z"/>
    </g>
    <g>
      <path class="cls-9" d="m1018.86,344h-8.58v-2.65h8.58v2.65Z"/>
      <path class="cls-9" d="m1026.42,339.17h2.44c1.54-.02,2.74-.43,3.62-1.21s1.32-1.85,1.32-3.18c0-3-1.49-4.5-4.48-4.5-1.41,0-2.53.4-3.37,1.2s-1.26,1.87-1.26,3.19h-3.25c0-2.03.74-3.71,2.22-5.05s3.37-2.01,5.65-2.01c2.41,0,4.31.64,5.68,1.92s2.06,3.05,2.06,5.33c0,1.11-.36,2.19-1.08,3.23s-1.7,1.82-2.94,2.34c1.41.45,2.49,1.18,3.26,2.21s1.15,2.29,1.15,3.78c0,2.3-.75,4.12-2.25,5.47s-3.45,2.02-5.85,2.02-4.36-.65-5.86-1.95-2.26-3.02-2.26-5.15h3.27c0,1.35.44,2.43,1.32,3.23s2.06,1.21,3.53,1.21c1.57,0,2.77-.41,3.6-1.23s1.25-2,1.25-3.53-.46-2.63-1.37-3.43-2.23-1.21-3.96-1.23h-2.44v-2.65Z"/>
      <path class="cls-9" d="m1054.67,327.93v2.76h-.6c-2.53.05-4.55.8-6.05,2.25s-2.37,3.5-2.6,6.13c1.35-1.55,3.19-2.32,5.52-2.32s4,.79,5.33,2.36,2,3.6,2,6.08c0,2.64-.72,4.75-2.15,6.33s-3.36,2.37-5.77,2.37-4.44-.94-5.96-2.82-2.29-4.3-2.29-7.27v-1.25c0-4.71,1-8.31,3.01-10.8s5-3.76,8.97-3.82h.58Zm-4.27,11.53c-1.11,0-2.14.33-3.08,1s-1.59,1.51-1.95,2.51v1.2c0,2.11.47,3.81,1.42,5.1s2.13,1.93,3.55,1.93,2.62-.54,3.45-1.62,1.26-2.49,1.26-4.24-.42-3.18-1.27-4.26-1.98-1.63-3.38-1.63Z"/>
    </g>
  </g>
</svg>