<?xml version="1.0" encoding="utf-8"?>
<!-- Generator: Adobe Illustrator 27.4.1, SVG Export Plug-In . SVG Version: 6.00 Build 0)  -->
<svg version="1.1" id="uuid-5f27e872-674a-4512-8ef5-6b11a5f0e68d"
	 xmlns="http://www.w3.org/2000/svg" xmlns:xlink="http://www.w3.org/1999/xlink" x="0px" y="0px" viewBox="0 0 939.7 867.6"
	 style="enable-background:new 0 0 939.7 867.6;" xml:space="preserve">
<style type="text/css">
	.st0{fill:none;stroke:#C9D1D9;stroke-width:5.67;stroke-miterlimit:10;}
	.st1{fill:none;stroke:#307EEF;stroke-width:8.5;stroke-miterlimit:10;}
	.st2{fill:#307EEF;}
	.st3{enable-background:new    ;}
	.st4{fill:#C9D1D9;}
</style>
<rect x="72" y="3.6" class="st0" width="864" height="792"/>
<line class="st0" x1="72" y1="723.6" x2="81" y2="723.6"/>
<line class="st0" x1="72" y1="651.6" x2="81" y2="651.6"/>
<line class="st0" x1="72" y1="579.6" x2="81" y2="579.6"/>
<line class="st0" x1="72" y1="507.6" x2="81" y2="507.6"/>
<line class="st0" x1="72" y1="435.6" x2="81" y2="435.6"/>
<line class="st0" x1="72" y1="363.6" x2="81" y2="363.6"/>
<line class="st0" x1="72" y1="291.6" x2="81" y2="291.6"/>
<line class="st0" x1="72" y1="219.6" x2="81" y2="219.6"/>
<line class="st0" x1="72" y1="147.6" x2="81" y2="147.6"/>
<line class="st0" x1="720" y1="795.6" x2="720" y2="786.6"/>
<line class="st0" x1="648" y1="795.6" x2="648" y2="786.6"/>
<line class="st0" x1="576" y1="795.6" x2="576" y2="786.6"/>
<line class="st0" x1="504" y1="795.6" x2="504" y2="786.6"/>
<line class="st0" x1="432" y1="795.6" x2="432" y2="786.6"/>
<line class="st0" x1="360" y1="795.6" x2="360" y2="786.6"/>
<line class="st0" x1="288" y1="795.6" x2="288" y2="786.6"/>
<line class="st0" x1="216" y1="795.6" x2="216" y2="786.6"/>
<line class="st0" x1="144" y1="795.6" x2="144" y2="786.6"/>
<line class="st0" x1="792" y1="795.6" x2="792" y2="786.6"/>
<line class="st0" x1="720" y1="12.6" x2="720" y2="3.6"/>
<line class="st0" x1="648" y1="12.6" x2="648" y2="3.6"/>
<line class="st0" x1="576" y1="12.6" x2="576" y2="3.6"/>
<line class="st0" x1="504" y1="12.6" x2="504" y2="3.6"/>
<line class="st0" x1="432" y1="12.6" x2="432" y2="3.6"/>
<line class="st0" x1="360" y1="12.6" x2="360" y2="3.6"/>
<line class="st0" x1="288" y1="12.6" x2="288" y2="3.6"/>
<line class="st0" x1="216" y1="12.6" x2="216" y2="3.6"/>
<line class="st0" x1="144" y1="12.6" x2="144" y2="3.6"/>
<line class="st0" x1="792" y1="12.6" x2="792" y2="3.6"/>
<line class="st0" x1="927" y1="723.6" x2="936" y2="723.6"/>
<line class="st0" x1="927" y1="651.6" x2="936" y2="651.6"/>
<line class="st0" x1="927" y1="579.6" x2="936" y2="579.6"/>
<line class="st0" x1="927" y1="507.6" x2="936" y2="507.6"/>
<line class="st0" x1="927" y1="435.6" x2="936" y2="435.6"/>
<line class="st0" x1="927" y1="363.6" x2="936" y2="363.6"/>
<line class="st0" x1="927" y1="291.6" x2="936" y2="291.6"/>
<line class="st0" x1="927" y1="219.6" x2="936" y2="219.6"/>
<line class="st0" x1="927" y1="147.6" x2="936" y2="147.6"/>
<line class="st0" x1="864" y1="12.6" x2="864" y2="3.6"/>
<line class="st0" x1="927" y1="75.6" x2="936" y2="75.6"/>
<line class="st0" x1="864" y1="795.6" x2="864" y2="786.6"/>
<line class="st1" x1="288" y1="795.6" x2="288" y2="147.3"/>
<polygon class="st2" points="312.7,164.2 288,72 263.3,164.2 "/>
<line class="st0" x1="72" y1="75.6" x2="81" y2="75.6"/>
<g class="st3">
	<path class="st4" d="M8.5,89.6V62.7c-1.2,1.1-2.4,2-3.5,2.7s-2.3,1.3-3.6,1.8v-4c0.7-0.3,1.4-0.7,2.2-1.2s1.6-1.2,2.6-2.2
		s2.1-2.3,3.4-4h3v33.8H8.5z"/>
</g>
<g class="st3">
	<path class="st4" d="M288,855.2c-3.9,0-6.9-1.5-9.1-4.6s-3.2-7.3-3.2-12.9s1.1-9.8,3.2-12.9s5.2-4.6,9.1-4.6c3.9,0,7,1.5,9.1,4.6
		s3.2,7.3,3.2,12.9s-1.1,9.8-3.2,12.9S291.9,855.2,288,855.2z M288,851.8c2.6,0,4.6-1.2,5.9-3.6s2-5.9,2-10.5s-0.7-8.1-2-10.5
		s-3.3-3.6-5.9-3.6s-4.6,1.2-5.9,3.6s-2,5.9-2,10.5s0.7,8.1,2,10.5S285.4,851.8,288,851.8z"/>
</g>
</svg>
