<?xml version="1.0" encoding="UTF-8"?>
<svg xmlns="http://www.w3.org/2000/svg" viewBox="0 0 1908 532.8">
  <defs>
    <style>
      .cls-1 {
        stroke-width: 1.5px;
      }

      .cls-1, .cls-2, .cls-3, .cls-4, .cls-5, .cls-6, .cls-7 {
        fill: none;
      }

      .cls-1, .cls-2, .cls-3, .cls-4, .cls-7 {
        stroke-miterlimit: 10;
      }

      .cls-1, .cls-2, .cls-4, .cls-7 {
        stroke: #c9d1d9;
      }

      .cls-2, .cls-4 {
        stroke-width: 3px;
      }

      .cls-3 {
        stroke-width: 5.67px;
      }

      .cls-3, .cls-4, .cls-7 {
        opacity: .8;
      }

      .cls-3, .cls-6 {
        stroke: #d85648;
      }

      .cls-8 {
        fill: #c5cdd5;
      }

      .cls-9 {
        fill: #c6ced6;
      }

      .cls-5 {
        stroke: rgba(201, 209, 217, .2);
        stroke-miterlimit: 20;
        stroke-width: 1.98px;
      }

      .cls-6 {
        stroke-linecap: round;
        stroke-linejoin: round;
        stroke-width: 3.97px;
      }
    </style>
  </defs>
  <g id="Fenster">
    <path class="cls-5" d="m748.8,108v360"/>
    <path class="cls-5" d="m590.4,108v360"/>
    <path class="cls-5" d="m432,108v360"/>
    <path class="cls-5" d="m273.6,108v360"/>
    <path class="cls-5" d="m907.2,198H115.2"/>
    <path class="cls-5" d="m907.2,288H115.2"/>
    <path class="cls-5" d="m907.2,378H115.2"/>
    <rect class="cls-2" x="115.2" y="108" width="792" height="360"/>
  </g>
  <g id="Graph">
    <path class="cls-6" d="m903.6,288.5l-.13.49-.3.49-.15.49-.15.49-.15.49-.15.49-.15.49-.3.49-.15.49-.15.49-.15.49-.15.49-.3.49-.15.49-.15.49-.15.49-.15.49-.15.49-.3.49-.15.49-.15.49-.15.49-.15.49-.3.49-.15.49-.15.49-.15.49-.15.49-.15.99-.3.49-.15.49-.15.49-.15.49-.15.49-.3.49-.15.49-.15.49-.15.49-.15.49-.3.49-.15.49-.15.49-.15.49-.15.49-.15.49-.3.49-.15.49-.15.49-.15.49-.15.49-.3.49-.15.49-.15.49-.15.49-.15.49-.15.49-.3.49-.15.49-.15.49-.15.49-.15.49-.3.49-.15.49-.15.49-.15.49-.15.49-.15.49-.3.49-.15.49-.15.49-.15.49-.15.49-.3.49-.15.49-.15.49-.15.49-.15.49-.15.49-.3.49-.15.49-.15.49-.15.49-.15.49-.3.49-.15.49-.15.49-.15.49-.15.49-.15.49-.3.49-.15.49-.15.49-.15.49-.15.49-.3.49-.15.49h-.15l-.15.49-.15.49-.15.49-.3.49-.15.49-.15.49-.15.49-.15.49-.3.49-.15.49-.15.49-.15.49-.15.49-.3.49-.15.49-.15.49-.15.49-.15.49-.15.49-.3.49-.15.49-.15.49-.15.49-.15.49-.3.49-.15.49-.15.49-.15.49-.15.49h-.15l-.3.49-.15.49-.15.49-.15.49-.15.49-.3.49-.15.49-.15.49-.15.49-.15.49-.15.49-.3.49-.15.49-.15.49-.15.49-.15.49h-.3l-.15.49-.15.49-.15.49-.15.49-.15.49-.3.49-.15.49-.15.49-.15.49-.15.49-.3.49-.15.49-.15.49h-.15l-.15.49-.15.49-.3.49-.15.49-.15.49-.15.49-.15.49-.3.49-.15.49-.15.49h-.15l-.15.49-.3.49-.15.49-.15.49-.15.5-.15.49-.15.49-.3.49h-.15l-.15.49-.15.49-.15.49-.3.49-.15.49-.15.49-.15.49-.15.49h-.15l-.3.49-.15.49-.15.49-.15.49-.15.49-.3.49h-.15l-.15.49-.15.49-.15.49-.15.49-.3.49-.15.49-.15.49h-.15l-.15.49-.3.49-.15.49-.15.49-.15.49h-.15l-.15.49-.3.49-.15.49-.15.49-.15.49h-.15l-.3.49-.15.49-.15.49-.15.49-.15.49h-.15l-.3.49-.15.49-.15.49-.15.49-.15.49h-.3l-.15.49-.15.49-.15.49-.15.49h-.15l-.3.49-.15.49-.15.49-.15.49h-.15l-.3.49-.15.49-.15.49-.15.49h-.15l-.3.49-.15.49-.15.49h-.15l-.15.49-.15.49-.3.49-.15.49h-.15l-.15.49-.15.49-.3.49h-.15l-.15.49-.15.49-.15.49h-.15l-.3.49-.15.49-.15.49h-.15l-.15.49-.3.49-.15.49h-.15l-.15.49-.15.49-.15.49h-.3l-.15.49-.15.49-.15.49h-.15l-.3.49-.15.49h-.15l-.15.49-.15.49-.15.49h-.3l-.15.49-.15.49h-.15l-.15.49-.3.49h-.15l-.15.49-.15.49h-.15l-.15.49-.3.49-.15.49h-.15l-.15.49-.15.49h-.3l-.15.49-.15.49h-.15l-.15.49-.3.49h-.15l-.15.49-.15.49h-.15l-.15.49-.3.49h-.15l-.15.49h-.15l-.15.49-.3.49h-.15l-.15.49-.15.49h-.15l-.15.49-.3.49h-.15l-.15.49h-.15l-.15.49-.3.49h-.15l-.15.49h-.15l-.15.49-.15.49h-.3l-.15.49h-.15l-.15.49-.15.49h-.3l-.15.49h-.15l-.15.49-.15.49h-.15l-.3.49h-.15l-.15.49h-.15l-.15.49-.3.49h-.15l-.15.49h-.15l-.15.49h-.15l-.3.49h-.15l-.15.49h-.15l-.15.49-.3.49h-.15l-.15.49h-.15l-.15.49h-.15l-.3.49h-.15l-.15.49h-.15l-.15.49h-.3l-.15.49h-.15l-.15.49h-.15l-.3.49h-.15l-.15.49h-.15l-.15.49h-.15l-.3.49h-.15l-.15.49h-.15l-.15.49h-.45l-.15.49h-.15l-.15.49h-.15l-.3.49h-.15l-.15.49h-.3l-.3.49h-.15l-.15.49h-.15l-.15.49h-.15l-.3.49h-.3l-.15.49h-.15l-.3.49h-.3l-.15.49h-.15l-.15.49h-.45l-.15.49h-.15l-.15.49h-.45l-.15.49h-.3l-.15.49h-.45l-.15.49h-.15l-.15.49h-.45l-.15.49h-.3l-.3.49h-.3l-.15.49h-.3l-.3.49h-.45l-.15.49h-.45l-.15.49h-.3l-.15.49h-.6l-.15.49h-.45l-.15.49h-.45l-.15.49h-.6l-.15.49h-.6l-.15.49h-.75l-.15.49h-.45l-.3.49h-.6l-.15.49h-.75l-.15.49h-.9l-.15.49h-.9l-.3.49h-1.2l-.15.49h-1.2l-.3.49h-1.96l-.15.49h-3.76l-.15-.02h-.3l-.15.02h-3.91l-.3-.49h-1.66l-.3-.49h-1.35l-.15-.49h-1.05l-.15-.49h-1.2l-.15-.49h-.6l-.3-.49h-.6l-.3-.49h-.6l-.15-.49h-.75l-.15-.49h-.6l-.15-.49h-.6l-.15-.49h-.45l-.3-.49h-.45l-.15-.49h-.6l-.15-.49h-.3l-.3-.49h-.45l-.15-.49h-.45l-.15-.49h-.3l-.15-.49h-.45l-.15-.49h-.3l-.3-.49h-.3l-.15-.49h-.3l-.3-.49h-.3l-.15-.49h-.45l-.15-.49h-.15l-.15-.49h-.3l-.3-.49h-.3l-.15-.49h-.15l-.3-.49h-.3l-.15-.49h-.15l-.3-.49h-.3l-.15-.49h-.15l-.15-.49h-.3l-.15-.49h-.3l-.15-.49h-.3l-.15-.49h-.15l-.15-.49h-.15l-.15-.49h-.45l-.15-.49h-.15l-.15-.49h-.3l-.15-.49h-.15l-.15-.49h-.15l-.15-.49h-.3l-.15-.49h-.15l-.15-.49h-.15l-.3-.49h-.15l-.15-.49h-.15l-.15-.49h-.15l-.3-.49h-.15l-.15-.49h-.15l-.15-.49h-.3l-.15-.49h-.15l-.15-.49h-.15l-.15-.49h-.3l-.15-.49h-.15l-.15-.49h-.15l-.3-.49-.15-.49h-.15l-.15-.49h-.15l-.15-.49h-.3l-.15-.49h-.15l-.15-.49-.15-.49h-.3l-.15-.49h-.15l-.15-.49-.15-.49h-.3l-.15-.49h-.15l-.15-.49h-.15l-.15-.49-.3-.49h-.15l-.15-.49h-.15l-.15-.49-.3-.49h-.15l-.15-.49-.15-.49h-.15l-.15-.49h-.3l-.15-.49-.15-.49h-.15l-.15-.49-.3-.49h-.15l-.15-.49-.15-.49h-.15l-.15-.49h-.3l-.15-.49-.15-.49h-.15l-.15-.49-.3-.49h-.15l-.15-.49-.15-.49h-.15l-.15-.49-.3-.49h-.15l-.15-.49-.15-.49h-.15l-.3-.49-.15-.49-.15-.49h-.15l-.15-.49-.15-.49h-.3l-.15-.49-.15-.49h-.15l-.15-.49-.3-.49-.15-.49h-.15l-.15-.49-.15-.49h-.3l-.15-.49-.15-.49-.15-.49h-.15l-.15-.49-.3-.49-.15-.49h-.15l-.15-.49-.15-.49h-.3l-.15-.49-.15-.49-.15-.49h-.15l-.15-.49-.3-.49-.15-.49h-.15l-.15-.49-.15-.49-.3-.49-.15-.49h-.15l-.15-.49-.15-.49-.15-.49h-.3l-.15-.49-.15-.49-.15-.49h-.15l-.3-.49-.15-.49-.15-.49-.15-.49h-.15l-.15-.49-.3-.49-.15-.49-.15-.49h-.15l-.15-.49-.3-.49-.15-.49-.15-.49h-.15l-.15-.49-.15-.49-.3-.49-.15-.49-.15-.49h-.15l-.15-.49-.3-.49-.15-.49-.15-.49h-.15l-.15-.49-.15-.49-.3-.49-.15-.49-.15-.49h-.15l-.15-.49-.3-.49-.15-.49-.15-.49-.15-.49-.15-.49h-.3l-.15-.49-.15-.49-.15-.49-.15-.49-.15-.49h-.3l-.15-.49-.15-.49-.15-.49-.15-.49-.3-.49-.15-.49-.15-.49h-.15l-.15-.49-.15-.49-.3-.49-.15-.49-.15-.49-.15-.49-.15-.49h-.3l-.15-.49-.15-.49-.15-.49-.15-.49-.15-.49-.3-.49-.15-.49-.15-.5h-.15l-.15-.49-.3-.49-.15-.49-.15-.49-.15-.49-.15-.49-.15-.49-.3-.49-.15-.49h-.15l-.15-.49-.15-.49-.3-.49-.15-.49-.15-.49-.15-.49-.15-.49-.15-.49-.3-.49-.15-.49-.15-.49h-.15l-.15-.49-.3-.49-.15-.49-.15-.49-.15-.49-.15-.49-.3-.49-.15-.49-.15-.49-.15-.49-.15-.49-.15-.49-.3-.49-.15-.49h-.15l-.15-.49-.15-.49-.3-.49-.15-.49-.15-.49-.15-.49-.15-.49-.15-.49-.3-.49-.15-.49-.15-.49-.15-.49-.15-.49-.3-.49-.15-.49-.15-.49-.15-.49-.15-.49-.15-.49-.3-.49-.15-.49h-.15l-.15-.49-.15-.49-.3-.49-.15-.49-.15-.49-.15-.49-.15-.49-.15-.49-.3-.49-.15-.49-.15-.49-.15-.49-.15-.49-.3-.49-.15-.49-.15-.49-.15-.49-.15-.49-.15-.49-.3-.49-.15-.49-.15-.49-.15-.49-.15-.49-.3-.49-.15-.49-.15-.49-.15-.49-.15-.49-.15-.49-.3-.49-.15-.49-.15-.49-.15-.49-.15-.49-.3-.49-.15-.49-.15-.49-.15-.49-.15-.49-.3-.49-.15-.49-.15-.49-.15-.49-.15-.49-.15-.49-.3-.49-.15-.49-.15-.49-.15-.49-.15-.49-.3-.49-.15-.49-.15-.49-.15-.49-.15-.49-.15-.49-.3-.49-.15-.49-.15-.49-.15-.49-.15-.49-.3-.49-.15-.49-.15-.49-.15-.49-.15-.49-.15-.49-.3-.49-.15-.49-.15-.49-.15-.49-.15-.49-.3-.49-.15-.49-.15-.49-.15-.49-.15-.49-.15-.49-.3-.49-.15-.49-.15-.49-.15-.49-.15-.49-.3-.49-.15-.49-.15-.49-.15-.49-.15-.49-.15-.49-.3-.49-.15-.49-.15-.49-.15-.49-.15-.49-.3-.49-.15-.49-.15-.49-.15-.49-.15-.49-.3-.49-.15-.49-.15-.49-.15-.49-.15-.49-.15-.49-.3-.49-.15-.49-.15-.49-.15-.49-.15-.49-.3-.49-.15-.49-.15-.49-.15-.99-.15-.49-.15-.49-.3-.49-.15-.49-.15-.49-.15-.49-.15-.49-.3-.49-.15-.49-.15-.49-.15-.49-.15-.49-.15-.49-.3-.49-.15-.49-.15-.49-.15-.49-.15-.49-.3-.49-.15-.49-.15-.49-.15-.49-.15-.49-.15-.49-.3-.49-.15-.49-.15-.49-.15-.49-.15-.49-.3-.49-.15-.49-.15-.49-.15-.49-.15-.49-.15-.49-.3-.49-.15-.49-.15-.49-.15-.49-.15-.49-.3-.49-.15-.49-.15-.49-.15-.49-.15-.49-.15-.49-.3-.49-.15-.49-.15-.49-.15-.49-.15-.49-.3-.49-.15-.49-.15-.49-.15-.49-.15-.49-.3-.49-.15-.49-.15-.49-.15-.49-.15-.49-.15-.49-.3-.49-.15-.49-.15-.49-.15-.49-.15-.49-.3-.49-.15-.49-.15-.49-.15-.49-.15-.49-.15-.49-.3-.49-.15-.49-.15-.49-.15-.49-.15-.49-.3-.49-.15-.49-.15-.49-.15-.49-.15-.49-.15-.49-.3-.49-.15-.49-.15-.49-.15-.49-.15-.49-.3-.49-.15-.49-.15-.49-.15-.49-.15-.49-.15-.49-.3-.49-.15-.49-.15-.49-.15-.49-.15-.49-.3-.49-.15-.49-.15-.49-.15-.49-.15-.49-.15-.49-.3-.49-.15-.49-.15-.49-.15-.49-.15-.49-.3-.49-.15-.49-.15-.49h-.15l-.15-.49-.3-.49-.15-.49-.15-.49-.15-.49-.15-.49-.15-.49-.3-.49-.15-.49-.15-.49-.15-.49-.15-.49-.3-.49-.15-.49-.15-.49-.15-.49-.15-.49-.15-.49-.3-.49-.15-.5-.15-.49h-.15l-.15-.49-.3-.49-.15-.49-.15-.49-.15-.49-.15-.49-.15-.49-.3-.49-.15-.49-.15-.49-.15-.49-.15-.49-.3-.49-.15-.49h-.15l-.15-.49-.15-.49-.15-.49-.3-.49-.15-.49-.15-.49-.15-.49-.15-.49-.3-.49-.15-.49-.15-.49h-.15l-.15-.49-.15-.49-.3-.49-.15-.49-.15-.49-.15-.49-.15-.49-.3-.49-.15-.49h-.15l-.15-.49-.15-.49-.15-.49-.3-.49-.15-.49-.15-.49-.15-.49-.15-.49h-.3l-.15-.49-.15-.49-.15-.49-.15-.49-.3-.49-.15-.49-.15-.49h-.15l-.15-.49-.15-.49-.3-.49-.15-.49-.15-.49-.15-.49-.15-.49h-.3l-.15-.49-.15-.49-.15-.49-.15-.49-.15-.49h-.3l-.15-.49-.15-.49-.15-.49-.15-.49-.3-.49-.15-.49h-.15l-.15-.49-.15-.49-.15-.49-.3-.49-.15-.49h-.15l-.15-.49-.15-.49-.3-.49-.15-.49h-.15l-.15-.49-.15-.49-.15-.49-.3-.49-.15-.49h-.15l-.15-.49-.15-.49-.3-.49-.15-.49h-.15l-.15-.49-.15-.49-.15-.49-.3-.49h-.15l-.15-.49-.15-.49-.15-.49-.3-.49h-.15l-.15-.49-.15-.49-.15-.49h-.3l-.15-.49-.15-.49-.15-.49h-.15l-.15-.49-.3-.49-.15-.49-.15-.49h-.15l-.15-.49-.3-.49-.15-.49h-.15l-.15-.49-.15-.49-.15-.49h-.3l-.15-.49-.15-.49h-.15l-.15-.49-.3-.49-.15-.49h-.15l-.15-.49-.15-.49-.15-.49h-.3l-.15-.49-.15-.49h-.15l-.15-.49-.3-.49-.15-.49h-.15l-.15-.49-.15-.49h-.15l-.3-.49-.15-.49h-.15l-.15-.49-.15-.49-.3-.49h-.15l-.15-.49-.15-.49h-.15l-.15-.49-.3-.49h-.15l-.15-.49-.15-.49h-.15l-.3-.49-.15-.49h-.15l-.15-.49-.15-.49h-.15l-.3-.49h-.15l-.15-.49-.15-.49h-.15l-.3-.49-.15-.49h-.15l-.15-.49-.15-.49h-.3l-.15-.49h-.15l-.15-.49-.15-.49h-.15l-.3-.49-.15-.49h-.15l-.15-.49h-.15l-.3-.49-.15-.49h-.15l-.15-.49h-.15l-.15-.49h-.3l-.15-.49-.15-.49h-.15l-.15-.49h-.3l-.15-.49-.15-.49h-.15l-.15-.49h-.15l-.3-.49h-.15l-.15-.49h-.15l-.15-.49-.3-.49h-.15l-.15-.49h-.15l-.15-.49h-.15l-.3-.49h-.15l-.15-.49h-.15l-.15-.49h-.3l-.15-.49h-.15l-.15-.49h-.15l-.15-.49h-.3l-.15-.49h-.15l-.15-.49h-.15l-.3-.49h-.15l-.15-.49h-.15l-.15-.49h-.3l-.15-.49h-.15l-.15-.49h-.15l-.15-.49h-.3l-.15-.49h-.15l-.15-.49h-.45l-.15-.49h-.15l-.15-.49h-.15l-.15-.49h-.3l-.15-.49h-.3l-.15-.49h-.3l-.15-.49h-.15l-.15-.49h-.3l-.3-.49h-.15l-.15-.49h-.3l-.3-.49h-.15l-.15-.49h-.3l-.15-.49h-.45l-.15-.49h-.15l-.15-.49h-.45l-.15-.49h-.3l-.15-.49h-.45l-.15-.49h-.3l-.3-.49h-.3l-.15-.49h-.3l-.3-.49h-.3l-.15-.49h-.45l-.15-.49h-.45l-.3-.49h-.3l-.15-.49h-.6l-.15-.49h-.45l-.3-.49h-.45l-.15-.49h-.6l-.15-.49h-.6l-.15-.49h-.6l-.3-.49h-.6l-.3-.49h-.6l-.15-.49h-.75l-.15-.49h-1.05l-.3-.49h-1.05l-.15-.49h-1.35l-.3-.49h-1.66l-.3-.49h-4.06s-.15-.01-.15-.01h-.3s-.3.01-.3.01h-3.46l-.15.49h-1.96l-.3.49h-1.2l-.15.49h-1.2l-.3.49h-.75l-.3.49h-.9l-.15.49h-.6l-.3.49h-.6l-.3.49h-.45l-.15.49h-.75l-.15.49h-.6l-.15.49h-.6l-.15.49h-.45l-.15.49h-.45l-.15.49h-.6l-.15.49h-.3l-.15.49h-.45l-.15.49h-.45l-.3.49h-.3l-.15.49h-.3l-.3.49h-.3l-.15.49h-.45l-.15.49h-.15l-.15.49h-.3l-.3.49h-.3l-.15.49h-.45l-.15.49h-.15l-.15.49h-.3l-.3.49h-.15l-.15.49h-.3l-.3.49h-.15l-.15.49h-.3l-.15.49h-.3l-.15.49h-.15l-.15.49h-.15l-.3.49h-.3l-.15.49h-.15l-.3.49h-.15l-.15.49h-.15l-.15.49h-.45l-.15.49h-.15l-.15.49h-.15l-.3.49h-.15l-.15.49h-.15l-.15.49h-.15l-.3.49h-.15l-.15.49h-.15l-.15.49h-.3l-.15.49h-.15l-.15.49h-.15l-.15.49h-.3l-.15.49h-.15l-.15.49h-.15l-.3.49-.15.49h-.15l-.15.49h-.15l-.15.49h-.3l-.15.49h-.15l-.15.49h-.15l-.3.49-.15.49h-.15l-.15.49h-.15l-.15.49h-.3l-.15.49-.15.49h-.15l-.15.49h-.3l-.15.49-.15.49h-.15l-.15.49h-.3l-.15.49-.15.49h-.15l-.15.49h-.15l-.3.49-.15.49h-.15l-.15.49h-.15l-.3.49-.15.49h-.15l-.15.49-.15.49h-.15l-.3.49-.15.49h-.15l-.15.49h-.15l-.3.49-.15.49h-.15l-.15.49-.15.49h-.15l-.3.49-.15.49h-.15l-.15.49-.15.49h-.3l-.15.49-.15.49h-.15l-.15.49-.15.49-.3.49h-.15l-.15.49-.15.49h-.15l-.3.49-.15.49h-.15l-.15.49-.15.49h-.15l-.3.49-.15.49-.15.49h-.15l-.15.49-.3.49h-.15l-.15.49-.15.49-.15.49h-.15l-.3.49-.15.49-.15.49h-.15l-.15.49-.3.49-.15.49h-.15l-.15.49-.15.49-.3.49h-.15l-.15.49-.15.49-.15.49h-.15l-.3.49-.15.49-.15.49h-.15l-.15.49-.3.49-.15.49-.15.49h-.15l-.15.49-.15.49-.3.49h-.15l-.15.49-.15.49-.15.49-.3.49h-.15l-.15.49-.15.49-.15.49-.15.49h-.3l-.15.49-.15.49-.15.49-.15.49h-.3l-.15.49-.15.49-.15.49-.15.49-.15.49h-.3l-.15.49-.15.49-.15.49-.15.49-.3.49h-.15l-.15.49-.15.49-.15.49-.15.49-.3.49h-.15l-.15.49-.15.49-.15.49-.3.49-.15.49h-.15l-.15.49-.15.49-.3.49-.15.49-.15.49-.15.49-.15.49h-.15l-.3.49-.15.49-.15.49-.15.49-.15.49-.3.49h-.15l-.15.49-.15.49-.15.49-.15.49-.3.49-.15.49-.15.49-.15.49h-.15l-.3.49-.15.49-.15.49-.15.49-.15.49-.15.49-.3.49-.15.49h-.15l-.15.49-.15.49-.3.49-.15.49-.15.49-.15.49-.15.49-.15.49-.3.49-.15.49h-.15l-.15.49-.15.49-.3.49-.15.49-.15.49-.15.49-.15.49-.15.49-.3.49-.15.49-.15.49-.15.49-.15.49h-.3l-.15.49-.15.49-.15.49-.15.49-.15.49-.3.49-.15.49-.15.49-.15.5-.15.49-.3.49-.15.49-.15.49-.15.49-.15.49-.3.49h-.15l-.15.49-.15.49-.15.49-.15.49-.3.49-.15.49-.15.49-.15.49-.15.49-.3.49-.15.49-.15.49-.15.49-.15.49-.15.49-.3.49-.15.49-.15.49-.15.49-.15.49-.3.49-.15.49-.15.49-.15.49-.15.49-.15.49-.3.49-.15.49-.15.49h-.15l-.15.49-.3.49-.15.49-.15.49-.15.49-.15.49-.15.49-.3.49-.15.49-.15.49-.15.49-.15.49-.3.49-.15.49-.15.49-.15.49-.15.49-.15.49-.3.49-.15.49-.15.49-.15.49-.15.49-.3.49-.15.49-.15.49-.15.49-.15.49-.3.49-.15.49-.15.49-.15.49-.15.49-.15.49-.3.49-.15.49-.15.49-.15.49-.15.49-.3.49-.15.49-.15.49-.15.49-.15.49-.15.49-.3.49-.15.49-.15.49-.15.49-.15.49-.3.49-.15.49-.15.49-.15.49-.15.49-.15.49-.3.49-.15.49-.15.49-.15.49-.15.49-.3.49-.15.49-.15.49-.15.49-.15.49-.15.49-.3.99-.15.49-.15.49-.15.49-.15.49-.3.49-.15.49-.15.49-.15.49-.15.49-.15.49-.3.49-.15.49-.15.49-.15.49-.15.49-.3.49-.15.49-.15.49-.15.49-.15.49-.15.49-.3.49-.15.49-.15.49-.15.49-.15.49-.3.49-.15.49-.16.49v.49l-.13.49-.3.49-.15.49-.15.49-.15.49-.15.49-.15.49-.3.49-.15.49-.15.49-.15.49-.15.49-.3.49-.15.49-.15.49-.15.49-.15.49-.15.49-.3.49-.15.49-.15.49-.15.49-.15.49-.3.49-.15.49-.15.49-.15.49-.15.49-.15.99-.3.49-.15.49-.15.49-.15.49-.15.49-.3.49-.15.49-.15.49-.15.49-.15.49-.3.49-.15.49-.15.49-.15.49-.15.49-.15.49-.3.49-.15.49-.15.49-.15.49-.15.49-.3.49-.15.49-.15.49-.15.49-.15.49-.15.49-.3.49-.15.49-.15.49-.15.49-.15.49-.3.49-.15.49-.15.49-.15.49-.15.49-.15.49-.3.49-.15.49-.15.49-.15.49-.15.49-.3.49-.15.49-.15.49-.15.49-.15.49-.15.49-.3.49-.15.49-.15.49-.15.49-.15.49-.3.49-.15.49-.15.49-.15.49-.15.49-.15.49-.3.49-.15.49-.15.49-.15.49-.15.49-.3.49-.15.49h-.15l-.15.49-.15.49-.15.49-.3.49-.15.49-.15.49-.15.49-.15.49-.3.49-.15.49-.15.49-.15.49-.15.49-.3.49-.15.49-.15.49-.15.49-.15.49-.15.49-.3.49-.15.49-.15.49-.15.49-.15.49-.3.49-.15.49-.15.49-.15.49-.15.49h-.15l-.3.49-.15.49-.15.49-.15.49-.15.49-.3.49-.15.49-.15.49-.15.49-.15.49-.15.49-.3.49-.15.49-.15.49-.15.49-.15.49h-.3l-.15.49-.15.49-.15.49-.15.49-.15.49-.3.49-.15.49-.15.49-.15.49-.15.49-.3.49-.15.49-.15.49h-.15l-.15.49-.15.49-.3.49-.15.49-.15.49-.15.49-.15.49-.3.49-.15.49-.15.49h-.15l-.15.49-.3.49-.15.49-.15.49-.15.5-.15.49-.15.49-.3.49h-.15l-.15.49-.15.49-.15.49-.3.49-.15.49-.15.49-.15.49-.15.49h-.15l-.3.49-.15.49-.15.49-.15.49-.15.49-.3.49h-.15l-.15.49-.15.49-.15.49-.15.49-.3.49-.15.49-.15.49h-.15l-.15.49-.3.49-.15.49-.15.49-.15.49h-.15l-.15.49-.3.49-.15.49-.15.49-.15.49h-.15l-.3.49-.15.49-.15.49-.15.49-.15.49h-.15l-.3.49-.15.49-.15.49-.15.49-.15.49h-.3l-.15.49-.15.49-.15.49-.15.49h-.15l-.3.49-.15.49-.15.49-.15.49h-.15l-.3.49-.15.49-.15.49-.15.49h-.15l-.3.49-.15.49-.15.49h-.15l-.15.49-.15.49-.3.49-.15.49h-.15l-.15.49-.15.49-.3.49h-.15l-.15.49-.15.49-.15.49h-.15l-.3.49-.15.49-.15.49h-.15l-.15.49-.3.49-.15.49h-.15l-.15.49-.15.49-.15.49h-.3l-.15.49-.15.49-.15.49h-.15l-.3.49-.15.49h-.15l-.15.49-.15.49-.15.49h-.3l-.15.49-.15.49h-.15l-.15.49-.3.49h-.15l-.15.49-.15.49h-.15l-.15.49-.3.49-.15.49h-.15l-.15.49-.15.49h-.3l-.15.49-.15.49h-.15l-.15.49-.3.49h-.15l-.15.49-.15.49h-.15l-.15.49-.3.49h-.15l-.15.49h-.15l-.15.49-.3.49h-.15l-.15.49-.15.49h-.15l-.15.49-.3.49h-.15l-.15.49h-.15l-.15.49-.3.49h-.15l-.15.49h-.15l-.15.49-.15.49h-.3l-.15.49h-.15l-.15.49-.15.49h-.3l-.15.49h-.15l-.15.49-.15.49h-.15l-.3.49h-.15l-.15.49h-.15l-.15.49-.3.49h-.15l-.15.49h-.15l-.15.49h-.15l-.3.49h-.15l-.15.49h-.15l-.15.49-.3.49h-.15l-.15.49h-.15l-.15.49h-.15l-.3.49h-.15l-.15.49h-.15l-.15.49h-.3l-.15.49h-.15l-.15.49h-.15l-.3.49h-.15l-.15.49h-.15l-.15.49h-.15l-.3.49h-.15l-.15.49h-.15l-.15.49h-.45l-.15.49h-.15l-.15.49h-.15l-.3.49h-.15l-.15.49h-.3l-.3.49h-.15l-.15.49h-.15l-.15.49h-.15l-.3.49h-.3l-.15.49h-.15l-.3.49h-.3l-.15.49h-.15l-.15.49h-.45l-.15.49h-.15l-.15.49h-.45l-.15.49h-.3l-.15.49h-.45l-.15.49h-.15l-.15.49h-.45l-.15.49h-.3l-.3.49h-.3l-.15.49h-.3l-.3.49h-.45l-.15.49h-.45l-.15.49h-.3l-.15.49h-.6l-.15.49h-.45l-.15.49h-.45l-.15.49h-.6l-.15.49h-.6l-.15.49h-.75l-.15.49h-.45l-.3.49h-.6l-.15.49h-.75l-.15.49h-.9l-.15.49h-.9l-.3.49h-1.2l-.15.49h-1.2l-.3.49h-1.96l-.15.49h-3.76l-.15-.02h-.3l-.15.02h-3.91l-.3-.49h-1.66l-.3-.49h-1.35l-.15-.49h-1.05l-.15-.49h-1.2l-.15-.49h-.6l-.3-.49h-.6l-.3-.49h-.6l-.15-.49h-.75l-.15-.49h-.6l-.15-.49h-.6l-.15-.49h-.45l-.3-.49h-.45l-.15-.49h-.6l-.15-.49h-.3l-.3-.49h-.45l-.15-.49h-.45l-.15-.49h-.3l-.15-.49h-.45l-.15-.49h-.3l-.3-.49h-.3l-.15-.49h-.3l-.3-.49h-.3l-.15-.49h-.45l-.15-.49h-.15l-.15-.49h-.3l-.3-.49h-.3l-.15-.49h-.15l-.3-.49h-.3l-.15-.49h-.15l-.3-.49h-.3l-.15-.49h-.15l-.15-.49h-.3l-.15-.49h-.3l-.15-.49h-.3l-.15-.49h-.15l-.15-.49h-.15l-.15-.49h-.45l-.15-.49h-.15l-.15-.49h-.3l-.15-.49h-.15l-.15-.49h-.15l-.15-.49h-.3l-.15-.49h-.15l-.15-.49h-.15l-.3-.49h-.15l-.15-.49h-.15l-.15-.49h-.15l-.3-.49h-.15l-.15-.49h-.15l-.15-.49h-.3l-.15-.49h-.15l-.15-.49h-.15l-.15-.49h-.3l-.15-.49h-.15l-.15-.49h-.15l-.3-.49-.15-.49h-.15l-.15-.49h-.15l-.15-.49h-.3l-.15-.49h-.15l-.15-.49-.15-.49h-.3l-.15-.49h-.15l-.15-.49-.15-.49h-.3l-.15-.49h-.15l-.15-.49h-.15l-.15-.49-.3-.49h-.15l-.15-.49h-.15l-.15-.49-.3-.49h-.15l-.15-.49-.15-.49h-.15l-.15-.49h-.3l-.15-.49-.15-.49h-.15l-.15-.49-.3-.49h-.15l-.15-.49-.15-.49h-.15l-.15-.49h-.3l-.15-.49-.15-.49h-.15l-.15-.49-.3-.49h-.15l-.15-.49-.15-.49h-.15l-.15-.49-.3-.49h-.15l-.15-.49-.15-.49h-.15l-.3-.49-.15-.49-.15-.49h-.15l-.15-.49-.15-.49h-.3l-.15-.49-.15-.49h-.15l-.15-.49-.3-.49-.15-.49h-.15l-.15-.49-.15-.49h-.3l-.15-.49-.15-.49-.15-.49h-.15l-.15-.49-.3-.49-.15-.49h-.15l-.15-.49-.15-.49h-.3l-.15-.49-.15-.49-.15-.49h-.15l-.15-.49-.3-.49-.15-.49h-.15l-.15-.49-.15-.49-.3-.49-.15-.49h-.15l-.15-.49-.15-.49-.15-.49h-.3l-.15-.49-.15-.49-.15-.49h-.15l-.3-.49-.15-.49-.15-.49-.15-.49h-.15l-.15-.49-.3-.49-.15-.49-.15-.49h-.15l-.15-.49-.3-.49-.15-.49-.15-.49h-.15l-.15-.49-.15-.49-.3-.49-.15-.49-.15-.49h-.15l-.15-.49-.3-.49-.15-.49-.15-.49h-.15l-.15-.49-.15-.49-.3-.49-.15-.49-.15-.49h-.15l-.15-.49-.3-.49-.15-.49-.15-.49-.15-.49-.15-.49h-.3l-.15-.49-.15-.49-.15-.49-.15-.49-.15-.49h-.3l-.15-.49-.15-.49-.15-.49-.15-.49-.3-.49-.15-.49-.15-.49h-.15l-.15-.49-.15-.49-.3-.49-.15-.49-.15-.49-.15-.49-.15-.49h-.3l-.15-.49-.15-.49-.15-.49-.15-.49-.15-.49-.3-.49-.15-.49-.15-.5h-.15l-.15-.49-.3-.49-.15-.49-.15-.49-.15-.49-.15-.49-.15-.49-.3-.49-.15-.49h-.15l-.15-.49-.15-.49-.3-.49-.15-.49-.15-.49-.15-.49-.15-.49-.15-.49-.3-.49-.15-.49-.15-.49h-.15l-.15-.49-.3-.49-.15-.49-.15-.49-.15-.49-.15-.49-.3-.49-.15-.49-.15-.49-.15-.49-.15-.49-.15-.49-.3-.49-.15-.49h-.15l-.15-.49-.15-.49-.3-.49-.15-.49-.15-.49-.15-.49-.15-.49-.15-.49-.3-.49-.15-.49-.15-.49-.15-.49-.15-.49-.3-.49-.15-.49-.15-.49-.15-.49-.15-.49-.15-.49-.3-.49-.15-.49h-.15l-.15-.49-.15-.49-.3-.49-.15-.49-.15-.49-.15-.49-.15-.49-.15-.49-.3-.49-.15-.49-.15-.49-.15-.49-.15-.49-.3-.49-.15-.49-.15-.49-.15-.49-.15-.49-.15-.49-.3-.49-.15-.49-.15-.49-.15-.49-.15-.49-.3-.49-.15-.49-.15-.49-.15-.49-.15-.49-.15-.49-.3-.49-.15-.49-.15-.49-.15-.49-.15-.49-.3-.49-.15-.49-.15-.49-.15-.49-.15-.49-.3-.49-.15-.49-.15-.49-.15-.49-.15-.49-.15-.49-.3-.49-.15-.49-.15-.49-.15-.49-.15-.49-.3-.49-.15-.49-.15-.49-.15-.49-.15-.49-.15-.49-.3-.49-.15-.49-.15-.49-.15-.49-.15-.49-.3-.49-.15-.49-.15-.49-.15-.49-.15-.49-.15-.49-.3-.49-.15-.49-.15-.49-.15-.49-.15-.49-.3-.49-.15-.49-.15-.49-.15-.49-.15-.49-.15-.49-.3-.49-.15-.49-.15-.49-.15-.49-.15-.49-.3-.49-.15-.49-.15-.49-.15-.49-.15-.49-.15-.49-.3-.49-.15-.49-.15-.49-.15-.49-.15-.49-.3-.49-.15-.49-.15-.49-.15-.49-.15-.49-.3-.49-.15-.49-.15-.49-.15-.49-.15-.49-.15-.49-.3-.49-.15-.49-.15-.49-.15-.49-.15-.49-.3-.49-.15-.49-.15-.49-.15-.99-.15-.49-.15-.49-.3-.49-.15-.49-.15-.49-.15-.49-.15-.49-.3-.49-.15-.49-.15-.49-.15-.49-.15-.49-.15-.49-.3-.49-.15-.49-.15-.49-.15-.49-.15-.49-.3-.49-.15-.49-.15-.49-.15-.49-.15-.49-.15-.49-.3-.49-.15-.49-.15-.49-.15-.49-.15-.49-.3-.49-.15-.49-.15-.49-.15-.49-.15-.49-.15-.49-.3-.49-.15-.49-.15-.49-.15-.49-.15-.49-.3-.49-.15-.49-.15-.49-.15-.49-.15-.49-.15-.49-.3-.49-.15-.49-.15-.49-.15-.49-.15-.49-.3-.49-.15-.49-.15-.49-.15-.49-.15-.49-.3-.49-.15-.49-.15-.49-.15-.49-.15-.49-.15-.49-.3-.49-.15-.49-.15-.49-.15-.49-.15-.49-.3-.49-.15-.49-.15-.49-.15-.49-.15-.49-.15-.49-.3-.49-.15-.49-.15-.49-.15-.49-.15-.49-.3-.49-.15-.49-.15-.49-.15-.49-.15-.49-.15-.49-.3-.49-.15-.49-.15-.49-.15-.49-.15-.49-.3-.49-.15-.49-.15-.49-.15-.49-.15-.49-.15-.49-.3-.49-.15-.49-.15-.49-.15-.49-.15-.49-.3-.49-.15-.49-.15-.49-.15-.49-.15-.49-.15-.49-.3-.49-.15-.49-.15-.49-.15-.49-.15-.49-.3-.49-.15-.49-.15-.49h-.15l-.15-.49-.3-.49-.15-.49-.15-.49-.15-.49-.15-.49-.15-.49-.3-.49-.15-.49-.15-.49-.15-.49-.15-.49-.3-.49-.15-.49-.15-.49-.15-.49-.15-.49-.15-.49-.3-.49-.15-.5-.15-.49h-.15l-.15-.49-.3-.49-.15-.49-.15-.49-.15-.49-.15-.49-.15-.49-.3-.49-.15-.49-.15-.49-.15-.49-.15-.49-.3-.49-.15-.49h-.15l-.15-.49-.15-.49-.15-.49-.3-.49-.15-.49-.15-.49-.15-.49-.15-.49-.3-.49-.15-.49-.15-.49h-.15l-.15-.49-.15-.49-.3-.49-.15-.49-.15-.49-.15-.49-.15-.49-.3-.49-.15-.49h-.15l-.15-.49-.15-.49-.15-.49-.3-.49-.15-.49-.15-.49-.15-.49-.15-.49h-.3l-.15-.49-.15-.49-.15-.49-.15-.49-.3-.49-.15-.49-.15-.49h-.15l-.15-.49-.15-.49-.3-.49-.15-.49-.15-.49-.15-.49-.15-.49h-.3l-.15-.49-.15-.49-.15-.49-.15-.49-.15-.49h-.3l-.15-.49-.15-.49-.15-.49-.15-.49-.3-.49-.15-.49h-.15l-.15-.49-.15-.49-.15-.49-.3-.49-.15-.49h-.15l-.15-.49-.15-.49-.3-.49-.15-.49h-.15l-.15-.49-.15-.49-.15-.49-.3-.49-.15-.49h-.15l-.15-.49-.15-.49-.3-.49-.15-.49h-.15l-.15-.49-.15-.49-.15-.49-.3-.49h-.15l-.15-.49-.15-.49-.15-.49-.3-.49h-.15l-.15-.49-.15-.49-.15-.49h-.3l-.15-.49-.15-.49-.15-.49h-.15l-.15-.49-.3-.49-.15-.49-.15-.49h-.15l-.15-.49-.3-.49-.15-.49h-.15l-.15-.49-.15-.49-.15-.49h-.3l-.15-.49-.15-.49h-.15l-.15-.49-.3-.49-.15-.49h-.15l-.15-.49-.15-.49-.15-.49h-.3l-.15-.49-.15-.49h-.15l-.15-.49-.3-.49-.15-.49h-.15l-.15-.49-.15-.49h-.15l-.3-.49-.15-.49h-.15l-.15-.49-.15-.49-.3-.49h-.15l-.15-.49-.15-.49h-.15l-.15-.49-.3-.49h-.15l-.15-.49-.15-.49h-.15l-.3-.49-.15-.49h-.15l-.15-.49-.15-.49h-.15l-.3-.49h-.15l-.15-.49-.15-.49h-.15l-.3-.49-.15-.49h-.15l-.15-.49-.15-.49h-.3l-.15-.49h-.15l-.15-.49-.15-.49h-.15l-.3-.49-.15-.49h-.15l-.15-.49h-.15l-.3-.49-.15-.49h-.15l-.15-.49h-.15l-.15-.49h-.3l-.15-.49-.15-.49h-.15l-.15-.49h-.3l-.15-.49-.15-.49h-.15l-.15-.49h-.15l-.3-.49h-.15l-.15-.49h-.15l-.15-.49-.3-.49h-.15l-.15-.49h-.15l-.15-.49h-.15l-.3-.49h-.15l-.15-.49h-.15l-.15-.49h-.3l-.15-.49h-.15l-.15-.49h-.15l-.15-.49h-.3l-.15-.49h-.15l-.15-.49h-.15l-.3-.49h-.15l-.15-.49h-.15l-.15-.49h-.3l-.15-.49h-.15l-.15-.49h-.15l-.15-.49h-.3l-.15-.49h-.15l-.15-.49h-.45l-.15-.49h-.15l-.15-.49h-.15l-.15-.49h-.3l-.15-.49h-.3l-.15-.49h-.3l-.15-.49h-.15l-.15-.49h-.3l-.3-.49h-.15l-.15-.49h-.3l-.3-.49h-.15l-.15-.49h-.3l-.15-.49h-.45l-.15-.49h-.15l-.15-.49h-.45l-.15-.49h-.3l-.15-.49h-.45l-.15-.49h-.3l-.3-.49h-.3l-.15-.49h-.3l-.3-.49h-.3l-.15-.49h-.45l-.15-.49h-.45l-.3-.49h-.3l-.15-.49h-.6l-.15-.49h-.45l-.3-.49h-.45l-.15-.49h-.6l-.15-.49h-.6l-.15-.49h-.6l-.3-.49h-.6l-.3-.49h-.6l-.15-.49h-.75l-.15-.49h-1.05l-.3-.49h-1.05l-.15-.49h-1.35l-.3-.49h-1.66l-.3-.49h-4.06s-.15-.01-.15-.01h-.3s-.3.01-.3.01h-3.46l-.15.49h-1.96l-.3.49h-1.2l-.15.49h-1.2l-.3.49h-.75l-.3.49h-.9l-.15.49h-.6l-.3.49h-.6l-.3.49h-.45l-.15.49h-.75l-.15.49h-.6l-.15.49h-.6l-.15.49h-.45l-.15.49h-.45l-.15.49h-.6l-.15.49h-.3l-.15.49h-.45l-.15.49h-.45l-.3.49h-.3l-.15.49h-.3l-.3.49h-.3l-.15.49h-.45l-.15.49h-.15l-.15.49h-.3l-.3.49h-.3l-.15.49h-.45l-.15.49h-.15l-.15.49h-.3l-.3.49h-.15l-.15.49h-.3l-.3.49h-.15l-.15.49h-.3l-.15.49h-.3l-.15.49h-.15l-.15.49h-.15l-.3.49h-.3l-.15.49h-.15l-.3.49h-.15l-.15.49h-.15l-.15.49h-.45l-.15.49h-.15l-.15.49h-.15l-.3.49h-.15l-.15.49h-.15l-.15.49h-.15l-.3.49h-.15l-.15.49h-.15l-.15.49h-.3l-.15.49h-.15l-.15.49h-.15l-.15.49h-.3l-.15.49h-.15l-.15.49h-.15l-.3.49-.15.49h-.15l-.15.49h-.15l-.15.49h-.3l-.15.49h-.15l-.15.49h-.15l-.3.49-.15.49h-.15l-.15.49h-.15l-.15.49h-.3l-.15.49-.15.49h-.15l-.15.49h-.3l-.15.49-.15.49h-.15l-.15.49h-.3l-.15.49-.15.49h-.15l-.15.49h-.15l-.3.49-.15.49h-.15l-.15.49h-.15l-.3.49-.15.49h-.15l-.15.49-.15.49h-.15l-.3.49-.15.49h-.15l-.15.49h-.15l-.3.49-.15.49h-.15l-.15.49-.15.49h-.15l-.3.49-.15.49h-.15l-.15.49-.15.49h-.3l-.15.49-.15.49h-.15l-.15.49-.15.49-.3.49h-.15l-.15.49-.15.49h-.15l-.3.49-.15.49h-.15l-.15.49-.15.49h-.15l-.3.49-.15.49-.15.49h-.15l-.15.49-.3.49h-.15l-.15.49-.15.49-.15.49h-.15l-.3.49-.15.49-.15.49h-.15l-.15.49-.3.49-.15.49h-.15l-.15.49-.15.49-.3.49h-.15l-.15.49-.15.49-.15.49h-.15l-.3.49-.15.49-.15.49h-.15l-.15.49-.3.49-.15.49-.15.49h-.15l-.15.49-.15.49-.3.49h-.15l-.15.49-.15.49-.15.49-.3.49h-.15l-.15.49-.15.49-.15.49-.15.49h-.3l-.15.49-.15.49-.15.49-.15.49h-.3l-.15.49-.15.49-.15.49-.15.49-.15.49h-.3l-.15.49-.15.49-.15.49-.15.49-.3.49h-.15l-.15.49-.15.49-.15.49-.15.49-.3.49h-.15l-.15.49-.15.49-.15.49-.3.49-.15.49h-.15l-.15.49-.15.49-.3.49-.15.49-.15.49-.15.49-.15.49h-.15l-.3.49-.15.49-.15.49-.15.49-.15.49-.3.49h-.15l-.15.49-.15.49-.15.49-.15.49-.3.49-.15.49-.15.49-.15.49h-.15l-.3.49-.15.49-.15.49-.15.49-.15.49-.15.49-.3.49-.15.49h-.15l-.15.49-.15.49-.3.49-.15.49-.15.49-.15.49-.15.49-.15.49-.3.49-.15.49h-.15l-.15.49-.15.49-.3.49-.15.49-.15.49-.15.49-.15.49-.15.49-.3.49-.15.49-.15.49-.15.49-.15.49h-.3l-.15.49-.15.49-.15.49-.15.49-.15.49-.3.49-.15.49-.15.49-.15.5-.15.49-.3.49-.15.49-.15.49-.15.49-.15.49-.3.49h-.15l-.15.49-.15.49-.15.49-.15.49-.3.49-.15.49-.15.49-.15.49-.15.49-.3.49-.15.49-.15.49-.15.49-.15.49-.15.49-.3.49-.15.49-.15.49-.15.49-.15.49-.3.49-.15.49-.15.49-.15.49-.15.49-.15.49-.3.49-.15.49-.15.49h-.15l-.15.49-.3.49-.15.49-.15.49-.15.49-.15.49-.15.49-.3.49-.15.49-.15.49-.15.49-.15.49-.3.49-.15.49-.15.49-.15.49-.15.49-.15.49-.3.49-.15.49-.15.49-.15.49-.15.49-.3.49-.15.49-.15.49-.15.49-.15.49-.3.49-.15.49-.15.49-.15.49-.15.49-.15.49-.3.49-.15.49-.15.49-.15.49-.15.49-.3.49-.15.49-.15.49-.15.49-.15.49-.15.49-.3.49-.15.49-.15.49-.15.49-.15.49-.3.49-.15.49-.15.49-.15.49-.15.49-.15.49-.3.49-.15.49-.15.49-.15.49-.15.49-.3.49-.15.49-.15.49-.15.49-.15.49-.15.49-.3.99-.15.49-.15.49-.15.49-.15.49-.3.49-.15.49-.15.49-.15.49-.15.49-.15.49-.3.49-.15.49-.15.49-.15.49-.15.49-.3.49-.15.49-.15.49-.15.49-.15.49-.15.49-.3.49-.15.49-.15.49-.15.49-.15.49-.3.49-.15.49-.16.49"/>
  </g>
  <g id="Fenster_Neu">
    <line class="cls-7" x1="1088.53" y1="108" x2="1088.53" y2="468"/>
    <line class="cls-7" x1="1112.3" y1="108" x2="1112.3" y2="468"/>
    <line class="cls-7" x1="1133.1" y1="108" x2="1133.1" y2="468"/>
    <line class="cls-7" x1="1149.44" y1="108" x2="1149.44" y2="468"/>
    <line class="cls-7" x1="1164.3" y1="108" x2="1164.3" y2="468"/>
    <line class="cls-1" x1="1179.16" y1="108" x2="1179.16" y2="468"/>
    <line class="cls-7" x1="1268.31" y1="108" x2="1268.31" y2="468"/>
    <line class="cls-7" x1="1320.31" y1="108" x2="1320.31" y2="468"/>
    <line class="cls-7" x1="1357.45" y1="108" x2="1357.45" y2="468"/>
    <line class="cls-7" x1="1385.68" y1="108" x2="1385.68" y2="468"/>
    <line class="cls-7" x1="1409.46" y1="108" x2="1409.46" y2="468"/>
    <line class="cls-7" x1="1430.26" y1="108" x2="1430.26" y2="468"/>
    <line class="cls-7" x1="1446.6" y1="108" x2="1446.6" y2="468"/>
    <line class="cls-7" x1="1461.46" y1="108" x2="1461.46" y2="468"/>
    <line class="cls-1" x1="1476.32" y1="108" x2="1476.32" y2="468"/>
    <line class="cls-7" x1="1565.46" y1="108" x2="1565.46" y2="468"/>
    <line class="cls-7" x1="1617.47" y1="108" x2="1617.47" y2="468"/>
    <line class="cls-7" x1="1654.61" y1="108" x2="1654.61" y2="468"/>
    <line class="cls-7" x1="1682.84" y1="108" x2="1682.84" y2="468"/>
    <line class="cls-7" x1="1706.61" y1="108" x2="1706.61" y2="468"/>
    <line class="cls-7" x1="1727.42" y1="108" x2="1727.42" y2="468"/>
    <line class="cls-7" x1="1743.76" y1="108" x2="1743.76" y2="468"/>
    <line class="cls-7" x1="1758.62" y1="108" x2="1758.62" y2="468"/>
    <line class="cls-1" x1="1773.47" y1="108" x2="1773.47" y2="468"/>
    <line class="cls-7" x1="1862.62" y1="108" x2="1862.62" y2="468"/>
    <line class="cls-1" x1="1080" y1="198" x2="1872" y2="198"/>
    <line class="cls-1" x1="1080" y1="288" x2="1872" y2="288"/>
    <line class="cls-1" x1="1080" y1="378" x2="1872" y2="378"/>
    <line class="cls-7" x1="1080" y1="243.03" x2="1872" y2="243.03"/>
    <line class="cls-7" x1="1080" y1="333.03" x2="1872" y2="333.03"/>
    <line class="cls-7" x1="1080" y1="423.03" x2="1872" y2="423.03"/>
    <line class="cls-7" x1="1080" y1="153" x2="1872" y2="153"/>
    <rect class="cls-4" x="1080" y="108" width="792" height="360"/>
  </g>
  <g id="Spectrum">
    <path class="cls-3" d="m1427.29,468c-2.05-6.4-4.14-13.16-6.3-20.58-3-10.32-6.1-21.1-9.34-34.01-3.23-12.91-6.57-26.06-10.08-43.43-3.51-17.37-7.13-32.41-10.96-60.79-3.83-28.38-7.79-77.32-12.01-109.47-4.21-32.16-8.58-69.96-13.27-83.47-2.47-7.12-12.05-5.88-14.83,2.42-5.28,15.77-10.78,59.63-16.82,92.19-6.05,32.57-12.36,76.14-19.42,103.2-7.07,27.06-14.46,42.19-22.97,59.14-8.51,16.95-17.38,29.94-28.11,42.58-10.72,12.64-21.68,23.3-36.23,33.27-9.96,6.82-19.41,13.16-31.76,18.93"/>
  </g>
  <g id="Schrift">
    <g>
      <path class="cls-9" d="m380.44,72v-30.28h-12.07v-3.47h28.41v3.47h-12.12v30.28h-4.22Z"/>
      <path class="cls-9" d="m403.39,42.45c-.91,0-1.68-.32-2.32-.96s-.96-1.41-.96-2.32.32-1.7.96-2.33,1.41-.95,2.32-.95,1.7.32,2.33.95.95,1.41.95,2.33-.32,1.68-.95,2.32-1.41.96-2.33.96Zm-1.97,29.55v-25.31h3.94v25.31h-3.94Z"/>
      <path class="cls-9" d="m413.02,72v-25.31h3.7v4.34c.59-1.31,1.58-2.46,2.95-3.43s3.01-1.46,4.9-1.46c1.67,0,3.13.46,4.37,1.37s2.17,2.21,2.78,3.88c.8-1.55,1.89-2.81,3.27-3.79s3-1.46,4.84-1.46c2.42,0,4.34.88,5.75,2.64s2.12,4.19,2.12,7.3v15.94h-3.94v-15.63c0-1.44-.15-2.68-.45-3.71s-.79-1.84-1.46-2.4-1.61-.84-2.78-.84c-1.28,0-2.43.36-3.46,1.09s-1.83,1.79-2.41,3.18-.88,3.09-.88,5.09v13.24h-3.94v-15.63c0-1.44-.15-2.68-.45-3.71s-.78-1.84-1.45-2.4-1.59-.84-2.74-.84c-1.28,0-2.44.36-3.47,1.08s-1.84,1.77-2.44,3.16-.89,3.09-.89,5.11v13.24h-3.94Z"/>
      <path class="cls-9" d="m465.17,72.56c-2.41,0-4.49-.54-6.25-1.62s-3.11-2.61-4.07-4.58-1.43-4.31-1.43-7,.48-5.05,1.43-7.03,2.3-3.52,4.03-4.59,3.77-1.62,6.12-1.62c1.34,0,2.69.21,4.04.64s2.59,1.17,3.7,2.23,2.02,2.5,2.7,4.34,1.02,4.15,1.02,6.95h-20.51v-3.19h17.09l-1.12,1.48c-.08-2.22-.44-4-1.08-5.34s-1.47-2.32-2.5-2.92-2.16-.9-3.41-.9c-1.48,0-2.77.39-3.84,1.16s-1.91,1.9-2.48,3.39-.87,3.3-.87,5.44c0,3.16.64,5.59,1.93,7.31s3.12,2.58,5.5,2.58c1.7,0,3.14-.43,4.3-1.29s2.02-2.1,2.57-3.73l3.87,1.31c-.61,1.47-1.42,2.72-2.44,3.76s-2.22,1.84-3.62,2.39-2.96.83-4.68.83Z"/>
      <path class="cls-9" d="m503.16,72.56c-2.05,0-3.86-.54-5.43-1.62s-2.79-2.61-3.67-4.59-1.31-4.33-1.31-7.03.44-5.04,1.32-7.02,2.11-3.5,3.67-4.57,3.37-1.61,5.41-1.61c1.66,0,3.3.41,4.92,1.24s2.85,2.23,3.68,4.2l-.45.19v-14.91h3.94v35.16h-3.7v-5.27l.12.38c-.69,1.84-1.83,3.21-3.42,4.11s-3.29,1.35-5.09,1.35Zm1.03-3.28c1.33,0,2.54-.34,3.63-1.03s1.97-1.76,2.62-3.22.98-3.33.98-5.61c0-3.41-.7-5.93-2.11-7.56s-3.1-2.45-5.09-2.45c-2.09,0-3.81.86-5.16,2.59s-2.02,4.2-2.02,7.42.65,5.55,1.95,7.28,3.02,2.59,5.18,2.59Z"/>
      <path class="cls-9" d="m533.18,72.56c-2.38,0-4.47-.56-6.28-1.68s-3.23-2.67-4.24-4.65-1.52-4.28-1.52-6.89.51-4.91,1.52-6.89,2.43-3.54,4.24-4.65,3.91-1.68,6.28-1.68,4.47.56,6.28,1.68,3.23,2.67,4.24,4.65,1.52,4.28,1.52,6.89-.51,4.91-1.52,6.89-2.43,3.54-4.24,4.65-3.91,1.68-6.28,1.68Zm0-3.28c2.39,0,4.28-.89,5.66-2.67s2.07-4.2,2.07-7.27-.69-5.5-2.07-7.28-3.27-2.66-5.66-2.66-4.28.89-5.66,2.66-2.07,4.2-2.07,7.28.69,5.48,2.07,7.27,3.27,2.67,5.66,2.67Z"/>
      <path class="cls-9" d="m551.11,72v-25.31h3.7v4.34c.59-1.31,1.58-2.46,2.95-3.43s3.01-1.46,4.9-1.46c1.67,0,3.13.46,4.37,1.37s2.17,2.21,2.78,3.88c.8-1.55,1.89-2.81,3.27-3.79s3-1.46,4.84-1.46c2.42,0,4.34.88,5.75,2.64s2.12,4.19,2.12,7.3v15.94h-3.94v-15.63c0-1.44-.15-2.68-.45-3.71s-.79-1.84-1.46-2.4-1.61-.84-2.78-.84c-1.28,0-2.43.36-3.46,1.09s-1.83,1.79-2.41,3.18-.88,3.09-.88,5.09v13.24h-3.94v-15.63c0-1.44-.15-2.68-.45-3.71s-.78-1.84-1.45-2.4-1.59-.84-2.74-.84c-1.28,0-2.44.36-3.47,1.08s-1.84,1.77-2.44,3.16-.89,3.09-.89,5.11v13.24h-3.94Z"/>
      <path class="cls-9" d="m599.61,72.56c-1.69,0-3.15-.32-4.39-.97s-2.2-1.54-2.87-2.66-1.01-2.4-1.01-3.82c0-1.52.45-2.91,1.34-4.2s2.27-2.31,4.14-3.08,4.26-1.16,7.18-1.16h4.22l-.42.42v-1.38c0-2.03-.41-3.59-1.22-4.68s-2.17-1.63-4.08-1.63c-1.8,0-3.18.46-4.15,1.39s-1.48,2.18-1.55,3.74l-4.43-1.01c.14-1.36.66-2.6,1.56-3.71s2.1-2.01,3.61-2.68,3.25-1.01,5.24-1.01,3.71.39,5,1.16,2.24,1.89,2.85,3.34.91,3.2.91,5.25v11.55c0,.52.07.86.22,1.03s.46.26.95.26h1.43v3.28h-2.51c-1.06,0-1.95-.33-2.67-1s-1.08-1.5-1.08-2.52v-1.78h.59c-.25.66-.61,1.32-1.08,2s-1.06,1.31-1.78,1.9-1.57,1.06-2.57,1.42-2.14.54-3.43.54Zm.89-3.28c1.3,0,2.5-.32,3.61-.96s2-1.64,2.68-3.01,1.02-3.14,1.02-5.33v-.21h-3.96c-2.08,0-3.71.27-4.91.82s-2.04,1.22-2.54,2.03-.75,1.61-.75,2.4.18,1.52.54,2.16.9,1.15,1.62,1.54,1.62.57,2.7.57Z"/>
      <path class="cls-9" d="m621.57,42.45c-.91,0-1.68-.32-2.32-.96s-.96-1.41-.96-2.32.32-1.7.96-2.33,1.41-.95,2.32-.95,1.7.32,2.33.95.95,1.41.95,2.33-.32,1.68-.95,2.32-1.41.96-2.33.96Zm-1.97,29.55v-25.31h3.94v25.31h-3.94Z"/>
      <path class="cls-9" d="m631.2,72v-25.31h3.7v5.72l-.16-1.03c.67-1.45,1.73-2.69,3.19-3.71s3.22-1.54,5.3-1.54c1.8,0,3.34.4,4.64,1.2s2.3,1.93,3,3.41,1.05,3.25,1.05,5.33v15.94h-3.94v-15.63c0-2.08-.43-3.76-1.28-5.04s-2.25-1.92-4.21-1.92c-2.11,0-3.86.8-5.26,2.4s-2.1,3.92-2.1,6.95v13.24h-3.94Z"/>
    </g>
    <g>
      <path class="cls-9" d="m28.8,369.49l-25.31-10.69v-3.16l25.31-10.65v3.38l-22.01,8.86,22.01,8.89v3.38Zm-8.3-5.48h-2.6v-13.54h2.6v13.54Z"/>
      <path class="cls-9" d="m28.8,341.77H9.82v-2.78h3.25c-.98-.45-1.84-1.18-2.58-2.21s-1.1-2.26-1.1-3.67c0-1.25.34-2.35,1.03-3.28s1.66-1.63,2.91-2.08c-1.16-.6-2.11-1.42-2.84-2.45s-1.1-2.25-1.1-3.63c0-1.82.66-3.25,1.98-4.32s3.14-1.59,5.48-1.59h11.95v2.95h-11.72c-1.08,0-2.01.11-2.79.33s-1.38.59-1.8,1.1-.63,1.2-.63,2.08c0,.96.27,1.83.82,2.59s1.34,1.37,2.38,1.81,2.31.66,3.81.66h9.93v2.95h-11.72c-1.08,0-2.01.11-2.79.33s-1.38.59-1.8,1.09-.63,1.19-.63,2.06c0,.96.27,1.83.81,2.6s1.33,1.38,2.37,1.83,2.32.67,3.83.67h9.93v2.95Z"/>
      <path class="cls-9" d="m35.66,310.36H9.82v-2.78h3.96l-.28.09c-1.38-.52-2.41-1.37-3.08-2.57s-1.01-2.47-1.01-3.81c0-1.55.4-2.91,1.21-4.08s1.96-2.09,3.45-2.74,3.25-.98,5.27-.98,3.78.33,5.26.99,2.62,1.58,3.43,2.75,1.2,2.53,1.2,4.06c0,1.24-.31,2.47-.93,3.69s-1.67,2.14-3.15,2.76l-.14-.26h10.65v2.88Zm-8.89-8.26c0-1.57-.65-2.86-1.94-3.87s-3.15-1.51-5.56-1.51-4.16.49-5.46,1.46-1.94,2.27-1.94,3.88c0,.98.26,1.89.77,2.72s1.32,1.49,2.41,1.98,2.5.74,4.22.74c2.54,0,4.43-.53,5.66-1.58s1.85-2.33,1.85-3.81Z"/>
      <path class="cls-9" d="m28.8,286.29c0,.75-.25,1.41-.75,1.97s-1.13.84-1.89.84H2.43v-2.95h22.94c.39,0,.64-.06.77-.17s.19-.35.19-.71v-1.85h2.46v2.87Z"/>
      <path class="cls-9" d="m6.63,278.03c0,.68-.24,1.26-.72,1.74s-1.06.72-1.74.72-1.27-.24-1.75-.72-.71-1.06-.71-1.74.24-1.27.71-1.75,1.06-.71,1.75-.71,1.26.24,1.74.71.72,1.06.72,1.75Zm22.17,1.48H9.82v-2.95h18.98v2.95Z"/>
      <path class="cls-9" d="m28.8,266.61c0,.75-.25,1.41-.75,1.97s-1.13.84-1.89.84h-13.89v3.06h-2.46v-3.06h-3.97l-.63-2.95h4.61v-3.76h2.46v3.76h13.1c.39,0,.64-.06.77-.17s.19-.35.19-.71v-2.9h2.46v3.92Z"/>
      <path class="cls-9" d="m29.22,252.42c0,1.32-.3,2.47-.9,3.45s-1.45,1.72-2.57,2.25-2.44.79-3.99.79h-11.95v-2.95h11.72c1.55,0,2.8-.29,3.77-.88s1.45-1.64,1.45-3.16c0-1.14-.29-2.12-.88-2.95s-1.46-1.48-2.64-1.94-2.64-.69-4.39-.69h-9.04v-2.95h18.98v2.78h-4.46l.77-.12c1.17.49,2.15,1.29,2.94,2.38s1.18,2.43,1.18,4.02Z"/>
      <path class="cls-9" d="m29.22,231.19c0,1.54-.4,2.89-1.21,4.07s-1.96,2.09-3.45,2.75-3.25.98-5.27.98-3.78-.33-5.26-.99-2.62-1.58-3.43-2.75-1.2-2.53-1.2-4.06c0-1.24.31-2.47.93-3.69s1.67-2.14,3.15-2.76l.14.33H2.43v-2.95h26.37v2.78h-3.96l.28-.09c1.38.52,2.41,1.37,3.08,2.57s1.01,2.47,1.01,3.81Zm-2.46-.77c0-1-.26-1.9-.77-2.72s-1.32-1.48-2.42-1.97-2.5-.74-4.21-.74c-2.55,0-4.44.53-5.67,1.58s-1.84,2.33-1.84,3.81c0,1.57.65,2.86,1.94,3.87s3.15,1.51,5.56,1.51,4.16-.49,5.46-1.46,1.94-2.27,1.94-3.88Z"/>
      <path class="cls-9" d="m29.22,208.78c0,1.8-.4,3.37-1.21,4.68s-1.95,2.33-3.44,3.05-3.23,1.07-5.25,1.07-3.79-.36-5.27-1.07-2.64-1.72-3.45-3.02-1.21-2.83-1.21-4.59c0-1.01.16-2.02.48-3.03s.88-1.94,1.67-2.78,1.88-1.51,3.25-2.02,3.11-.76,5.21-.76v15.38h-2.39v-12.81l1.11.84c-1.66.06-3,.33-4.01.81s-1.74,1.1-2.19,1.87-.68,1.62-.68,2.56c0,1.11.29,2.07.87,2.88s1.43,1.43,2.54,1.86,2.47.65,4.08.65c2.37,0,4.2-.48,5.48-1.45s1.93-2.34,1.93-4.12c0-1.28-.32-2.35-.97-3.23s-1.58-1.51-2.79-1.92l.98-2.9c1.1.46,2.04,1.07,2.82,1.83s1.38,1.67,1.79,2.72.62,2.22.62,3.51Z"/>
    </g>
    <g>
      <path class="cls-9" d="m46.08,469.36v-2.74h11.79v2.74h-11.79Z"/>
      <path class="cls-9" d="m64.5,479.07v-20.16c-.93.8-1.79,1.47-2.6,2.01s-1.71,1-2.71,1.38v-2.99c.52-.25,1.06-.55,1.63-.92s1.23-.91,1.96-1.63,1.58-1.72,2.54-3h2.27v25.31h-3.09Z"/>
      <path class="cls-9" d="m75.53,479.49c-.75,0-1.38-.26-1.9-.77s-.77-1.15-.77-1.9.26-1.38.77-1.9,1.15-.77,1.9-.77,1.38.26,1.9.77.77,1.15.77,1.9-.26,1.38-.77,1.9-1.15.77-1.9.77Z"/>
      <path class="cls-9" d="m90.49,479.49c-2.93,0-5.2-1.15-6.82-3.44s-2.43-5.5-2.43-9.64.81-7.35,2.43-9.64,3.89-3.44,6.82-3.44,5.22,1.15,6.83,3.44,2.42,5.5,2.42,9.64-.81,7.35-2.42,9.64-3.89,3.44-6.83,3.44Zm0-2.53c1.95,0,3.42-.9,4.41-2.69s1.49-4.41,1.49-7.86-.5-6.06-1.49-7.86-2.47-2.69-4.41-2.69-3.42.9-4.41,2.69-1.49,4.41-1.49,7.86.5,6.06,1.49,7.86,2.47,2.69,4.41,2.69Z"/>
    </g>
    <g>
      <path class="cls-9" d="m60.38,119.07v-20.16c-.93.8-1.79,1.47-2.6,2.01s-1.71,1-2.71,1.38v-2.99c.52-.25,1.06-.55,1.63-.92s1.23-.91,1.96-1.63,1.58-1.72,2.54-3h2.27v25.31h-3.09Z"/>
      <path class="cls-9" d="m71.4,119.49c-.75,0-1.38-.26-1.9-.77s-.77-1.15-.77-1.9.26-1.38.77-1.9,1.15-.77,1.9-.77,1.38.26,1.9.77.77,1.15.77,1.9-.26,1.38-.77,1.9-1.15.77-1.9.77Z"/>
      <path class="cls-9" d="m86.36,119.49c-2.93,0-5.2-1.15-6.82-3.44s-2.43-5.5-2.43-9.64.81-7.35,2.43-9.64,3.89-3.44,6.82-3.44,5.22,1.15,6.83,3.44,2.42,5.5,2.42,9.64-.81,7.35-2.42,9.64-3.89,3.44-6.83,3.44Zm0-2.53c1.95,0,3.42-.9,4.41-2.69s1.49-4.41,1.49-7.86-.5-6.06-1.49-7.86-2.47-2.69-4.41-2.69-3.42.9-4.41,2.69-1.49,4.41-1.49,7.86.5,6.06,1.49,7.86,2.47,2.69,4.41,2.69Z"/>
    </g>
    <g>
      <path class="cls-9" d="m65,299.49c-2.93,0-5.2-1.15-6.82-3.44s-2.43-5.5-2.43-9.64.81-7.35,2.43-9.64,3.89-3.44,6.82-3.44,5.22,1.15,6.83,3.44,2.42,5.5,2.42,9.64-.81,7.35-2.42,9.64-3.89,3.44-6.83,3.44Zm0-2.53c1.95,0,3.42-.9,4.41-2.69s1.49-4.41,1.49-7.86-.5-6.06-1.49-7.86-2.47-2.69-4.41-2.69-3.42.9-4.41,2.69-1.49,4.41-1.49,7.86.5,6.06,1.49,7.86,2.47,2.69,4.41,2.69Z"/>
      <path class="cls-9" d="m79.93,299.49c-.75,0-1.38-.26-1.9-.77s-.77-1.15-.77-1.9.26-1.38.77-1.9,1.15-.77,1.9-.77,1.38.26,1.9.77.77,1.15.77,1.9-.26,1.38-.77,1.9-1.15.77-1.9.77Z"/>
      <path class="cls-9" d="m94.89,299.49c-2.93,0-5.2-1.15-6.82-3.44s-2.43-5.5-2.43-9.64.81-7.35,2.43-9.64,3.89-3.44,6.82-3.44,5.22,1.15,6.83,3.44,2.42,5.5,2.42,9.64-.81,7.35-2.42,9.64-3.89,3.44-6.83,3.44Zm0-2.53c1.95,0,3.42-.9,4.41-2.69s1.49-4.41,1.49-7.86-.5-6.06-1.49-7.86-2.47-2.69-4.41-2.69-3.42.9-4.41,2.69-1.49,4.41-1.49,7.86.5,6.06,1.49,7.86,2.47,2.69,4.41,2.69Z"/>
    </g>
    <g>
      <path class="cls-9" d="m264.35,526.02c-2.93,0-5.2-1.15-6.82-3.44s-2.43-5.5-2.43-9.64.81-7.35,2.43-9.64,3.89-3.44,6.82-3.44,5.22,1.15,6.83,3.44,2.42,5.5,2.42,9.64-.81,7.35-2.42,9.64-3.89,3.44-6.83,3.44Zm0-2.53c1.95,0,3.42-.9,4.41-2.69s1.49-4.41,1.49-7.86-.5-6.06-1.49-7.86-2.47-2.69-4.41-2.69-3.42.9-4.41,2.69-1.49,4.41-1.49,7.86.5,6.06,1.49,7.86,2.47,2.69,4.41,2.69Z"/>
      <path class="cls-9" d="m279.27,526.02c-.75,0-1.38-.26-1.9-.77s-.77-1.15-.77-1.9.26-1.38.77-1.9,1.15-.77,1.9-.77,1.38.26,1.9.77.77,1.15.77,1.9-.26,1.38-.77,1.9-1.15.77-1.9.77Z"/>
      <path class="cls-9" d="m287.88,525.6v-20.16c-.93.8-1.79,1.47-2.6,2.01s-1.71,1-2.71,1.38v-2.99c.52-.25,1.06-.55,1.63-.92s1.23-.91,1.96-1.63,1.58-1.72,2.54-3h2.27v25.31h-3.09Z"/>
    </g>
    <g>
      <path class="cls-9" d="m417.22,526.02c-2.93,0-5.2-1.15-6.82-3.44s-2.43-5.5-2.43-9.64.81-7.35,2.43-9.64,3.89-3.44,6.82-3.44,5.22,1.15,6.83,3.44,2.42,5.5,2.42,9.64-.81,7.35-2.42,9.64-3.89,3.44-6.83,3.44Zm0-2.53c1.95,0,3.42-.9,4.41-2.69s1.49-4.41,1.49-7.86-.5-6.06-1.49-7.86-2.47-2.69-4.41-2.69-3.42.9-4.41,2.69-1.49,4.41-1.49,7.86.5,6.06,1.49,7.86,2.47,2.69,4.41,2.69Z"/>
      <path class="cls-9" d="m432.14,526.02c-.75,0-1.38-.26-1.9-.77s-.77-1.15-.77-1.9.26-1.38.77-1.9,1.15-.77,1.9-.77,1.38.26,1.9.77.77,1.15.77,1.9-.26,1.38-.77,1.9-1.15.77-1.9.77Z"/>
      <path class="cls-9" d="m438.42,525.6v-2.07l8.89-7.54c1.21-1.03,2.19-1.97,2.96-2.81s1.33-1.7,1.7-2.57.54-1.83.54-2.9c0-1.16-.2-2.14-.61-2.93s-.99-1.39-1.75-1.78-1.69-.6-2.79-.6c-1.27,0-2.29.25-3.07.75s-1.36,1.17-1.74,2.01-.61,1.79-.68,2.85l-3.38-1.04c.07-1.12.48-2.23,1.22-3.32s1.77-1.99,3.07-2.71,2.82-1.07,4.55-1.07c.98,0,1.97.14,2.97.42s1.91.73,2.75,1.34,1.51,1.42,2.02,2.41.76,2.19.76,3.59c0,2-.54,3.79-1.63,5.37s-2.61,3.16-4.57,4.74l-6.87,5.57-2.23-.42h15.8v2.71h-17.93Z"/>
    </g>
    <g>
      <path class="cls-9" d="m575.74,526.02c-2.93,0-5.2-1.15-6.82-3.44s-2.43-5.5-2.43-9.64.81-7.35,2.43-9.64,3.89-3.44,6.82-3.44,5.22,1.15,6.83,3.44,2.42,5.5,2.42,9.64-.81,7.35-2.42,9.64-3.89,3.44-6.83,3.44Zm0-2.53c1.95,0,3.42-.9,4.41-2.69s1.49-4.41,1.49-7.86-.5-6.06-1.49-7.86-2.47-2.69-4.41-2.69-3.42.9-4.41,2.69-1.49,4.41-1.49,7.86.5,6.06,1.49,7.86,2.47,2.69,4.41,2.69Z"/>
      <path class="cls-9" d="m590.66,526.02c-.75,0-1.38-.26-1.9-.77s-.77-1.15-.77-1.9.26-1.38.77-1.9,1.15-.77,1.9-.77,1.38.26,1.9.77.77,1.15.77,1.9-.26,1.38-.77,1.9-1.15.77-1.9.77Z"/>
      <path class="cls-9" d="m605.76,526.02c-1.57,0-3.02-.3-4.35-.91s-2.42-1.5-3.28-2.66-1.36-2.59-1.51-4.28l3.2-1c.13,1.89.7,3.41,1.72,4.58s2.41,1.75,4.17,1.75c1.58,0,2.9-.46,3.95-1.38s1.57-2.25,1.57-3.98c0-.68-.14-1.4-.43-2.17s-.8-1.42-1.54-1.96-1.79-.81-3.15-.81h-3.48v-2.67h3.2c1.49,0,2.63-.4,3.42-1.19s1.19-1.68,1.19-2.68c0-1.17-.41-2.17-1.23-3.01s-1.98-1.25-3.48-1.25c-1.85,0-3.21.53-4.07,1.58s-1.36,2.52-1.49,4.39l-3.2-1c.07-1.21.47-2.38,1.21-3.53s1.76-2.1,3.06-2.85,2.83-1.12,4.59-1.12c1.44,0,2.75.28,3.93.84s2.11,1.33,2.8,2.31,1.04,2.11,1.04,3.38c0,.84-.18,1.62-.53,2.33s-.88,1.32-1.58,1.82-1.59.88-2.67,1.12c1.78.32,3.18,1.07,4.21,2.26s1.54,2.56,1.54,4.12c0,1.41-.25,2.61-.75,3.62s-1.17,1.83-2.01,2.47-1.79,1.11-2.83,1.42-2.12.46-3.22.46Z"/>
    </g>
    <g>
      <path class="cls-9" d="m734.4,526.02c-2.93,0-5.2-1.15-6.82-3.44s-2.43-5.5-2.43-9.64.81-7.35,2.43-9.64,3.89-3.44,6.82-3.44,5.22,1.15,6.83,3.44,2.42,5.5,2.42,9.64-.81,7.35-2.42,9.64-3.89,3.44-6.83,3.44Zm0-2.53c1.95,0,3.42-.9,4.41-2.69s1.49-4.41,1.49-7.86-.5-6.06-1.49-7.86-2.47-2.69-4.41-2.69-3.42.9-4.41,2.69-1.49,4.41-1.49,7.86.5,6.06,1.49,7.86,2.47,2.69,4.41,2.69Z"/>
      <path class="cls-9" d="m749.33,526.02c-.75,0-1.38-.26-1.9-.77s-.77-1.15-.77-1.9.26-1.38.77-1.9,1.15-.77,1.9-.77,1.38.26,1.9.77.77,1.15.77,1.9-.26,1.38-.77,1.9-1.15.77-1.9.77Z"/>
      <path class="cls-9" d="m767.12,525.6v-8.37h.04v-14.98l.77,1.69-11.21,13.32-1.05-.91h17.51v2.71h-18.91v-3.02l13.34-15.75h2.62v25.31h-3.09Z"/>
    </g>
    <g>
      <path class="cls-9" d="m892.52,526.02c-2.93,0-5.2-1.15-6.82-3.44s-2.43-5.5-2.43-9.64.81-7.35,2.43-9.64,3.89-3.44,6.82-3.44,5.22,1.15,6.83,3.44,2.42,5.5,2.42,9.64-.81,7.35-2.42,9.64-3.89,3.44-6.83,3.44Zm0-2.53c1.95,0,3.42-.9,4.41-2.69s1.49-4.41,1.49-7.86-.5-6.06-1.49-7.86-2.47-2.69-4.41-2.69-3.42.9-4.41,2.69-1.49,4.41-1.49,7.86.5,6.06,1.49,7.86,2.47,2.69,4.41,2.69Z"/>
      <path class="cls-9" d="m907.45,526.02c-.75,0-1.38-.26-1.9-.77s-.77-1.15-.77-1.9.26-1.38.77-1.9,1.15-.77,1.9-.77,1.38.26,1.9.77.77,1.15.77,1.9-.26,1.38-.77,1.9-1.15.77-1.9.77Z"/>
      <path class="cls-9" d="m922.58,526.02c-1.46,0-2.87-.3-4.2-.91s-2.45-1.49-3.35-2.65-1.42-2.59-1.57-4.28l3.2-1c.13,1.78.67,3.28,1.63,4.49s2.35,1.82,4.19,1.82c1.14,0,2.14-.27,3-.82s1.54-1.3,2.03-2.26.74-2.06.74-3.3c0-1.89-.54-3.33-1.63-4.34s-2.43-1.51-4.03-1.51c-1.42,0-2.53.35-3.33,1.06s-1.39,1.5-1.77,2.38l-3.06-.32,1.02-14.1h14.48v2.71h-11.87l-.67,9.56-.86-.07c.63-1.08,1.51-1.99,2.64-2.72s2.5-1.11,4.11-1.11,2.94.35,4.17,1.05,2.2,1.68,2.92,2.94,1.07,2.71,1.07,4.36c0,1.83-.41,3.42-1.23,4.77s-1.9,2.4-3.25,3.14-2.81,1.11-4.38,1.11Z"/>
    </g>
    <g>
      <path class="cls-9" d="m1274.31,72v-33.75h21.63v3.47h-17.41v10.41h15.68v3.47h-15.68v16.41h-4.22Z"/>
      <path class="cls-9" d="m1299.04,72v-25.31h3.7v5.37l-.14-.61c.75-1.75,1.88-3.07,3.39-3.97s3.04-1.35,4.58-1.35c.45,0,.89.04,1.32.12s.83.21,1.21.4l-.52,3.7c-.86-.27-1.71-.4-2.55-.4-.53,0-1.19.11-1.98.32s-1.57.63-2.34,1.27-1.42,1.57-1.95,2.82-.79,2.91-.79,4.99v12.66h-3.94Z"/>
      <path class="cls-9" d="m1327.16,72.56c-2.41,0-4.49-.54-6.25-1.62s-3.11-2.61-4.07-4.58-1.43-4.31-1.43-7,.48-5.05,1.43-7.03,2.3-3.52,4.03-4.59,3.77-1.62,6.12-1.62c1.34,0,2.69.21,4.04.64s2.59,1.17,3.7,2.23,2.02,2.5,2.7,4.34,1.02,4.15,1.02,6.95h-20.51v-3.19h17.09l-1.12,1.48c-.08-2.22-.44-4-1.08-5.34s-1.47-2.32-2.5-2.92-2.16-.9-3.41-.9c-1.48,0-2.77.39-3.84,1.16s-1.91,1.9-2.48,3.39-.87,3.3-.87,5.44c0,3.16.64,5.59,1.93,7.31s3.12,2.58,5.5,2.58c1.7,0,3.14-.43,4.3-1.29s2.02-2.1,2.57-3.73l3.87,1.31c-.61,1.47-1.42,2.72-2.44,3.76s-2.22,1.84-3.62,2.39-2.96.83-4.68.83Z"/>
      <path class="cls-9" d="m1362.2,81.14v-14.41l.35.38c-.69,1.84-1.83,3.21-3.42,4.11s-3.29,1.35-5.09,1.35c-2.05,0-3.86-.54-5.43-1.62s-2.79-2.61-3.67-4.59-1.31-4.33-1.31-7.03.44-5.04,1.32-7.02,2.11-3.5,3.67-4.57,3.37-1.61,5.41-1.61c1.66,0,3.3.41,4.92,1.24s2.85,2.23,3.68,4.2l-.21.19v-5.06h3.7v34.45h-3.94Zm-7.12-11.86c1.33,0,2.54-.34,3.63-1.03s1.97-1.76,2.62-3.22.98-3.33.98-5.61c0-3.41-.7-5.93-2.11-7.56s-3.1-2.45-5.09-2.45c-2.09,0-3.81.86-5.16,2.59s-2.02,4.2-2.02,7.42.65,5.55,1.95,7.28,3.02,2.59,5.18,2.59Z"/>
      <path class="cls-9" d="m1381.96,72.56c-1.77,0-3.3-.4-4.59-1.2s-2.3-1.94-3-3.42-1.05-3.26-1.05-5.32v-15.94h3.94v15.63c0,2.06.39,3.74,1.17,5.03s2.19,1.93,4.22,1.93c1.52,0,2.83-.39,3.94-1.17s1.97-1.95,2.59-3.52.93-3.52.93-5.86v-12.05h3.94v25.31h-3.7v-5.95l.16,1.03c-.66,1.56-1.71,2.87-3.18,3.91s-3.25,1.57-5.36,1.57Z"/>
      <path class="cls-9" d="m1411.82,72.56c-2.41,0-4.49-.54-6.25-1.62s-3.11-2.61-4.07-4.58-1.43-4.31-1.43-7,.48-5.05,1.43-7.03,2.3-3.52,4.03-4.59,3.77-1.62,6.12-1.62c1.34,0,2.69.21,4.04.64s2.59,1.17,3.7,2.23,2.02,2.5,2.7,4.34,1.02,4.15,1.02,6.95h-20.51v-3.19h17.09l-1.12,1.48c-.08-2.22-.44-4-1.08-5.34s-1.47-2.32-2.5-2.92-2.16-.9-3.41-.9c-1.48,0-2.77.39-3.84,1.16s-1.91,1.9-2.48,3.39-.87,3.3-.87,5.44c0,3.16.64,5.59,1.93,7.31s3.12,2.58,5.5,2.58c1.7,0,3.14-.43,4.3-1.29s2.02-2.1,2.57-3.73l3.87,1.31c-.61,1.47-1.42,2.72-2.44,3.76s-2.22,1.84-3.62,2.39-2.96.83-4.68.83Z"/>
      <path class="cls-9" d="m1429.07,72v-25.31h3.7v5.72l-.16-1.03c.67-1.45,1.73-2.69,3.19-3.71s3.22-1.54,5.3-1.54c1.8,0,3.34.4,4.64,1.2s2.3,1.93,3,3.41,1.05,3.25,1.05,5.33v15.94h-3.94v-15.63c0-2.08-.43-3.76-1.28-5.04s-2.25-1.92-4.21-1.92c-2.11,0-3.86.8-5.26,2.4s-2.1,3.92-2.1,6.95v13.24h-3.94Z"/>
      <path class="cls-9" d="m1467.06,72.56c-2.38,0-4.43-.54-6.16-1.62s-3.07-2.61-4.01-4.58-1.41-4.32-1.41-7.02.47-5.04,1.41-7.02,2.27-3.5,4.01-4.58,3.79-1.62,6.16-1.62c1.81,0,3.43.33,4.86,1s2.64,1.62,3.63,2.86,1.72,2.74,2.19,4.49l-4.01,1.05c-.44-1.97-1.22-3.48-2.36-4.54s-2.57-1.58-4.32-1.58c-2.33,0-4.12.86-5.38,2.59s-1.89,4.18-1.89,7.35.63,5.64,1.89,7.36,3.05,2.58,5.38,2.58c1.73,0,3.16-.51,4.29-1.54s1.91-2.5,2.37-4.44l3.98,1.12c-.38,1.28-.89,2.42-1.55,3.42s-1.43,1.85-2.33,2.55-1.91,1.24-3.05,1.61-2.37.55-3.71.55Z"/>
      <path class="cls-9" d="m1484.14,81.14v-3.28h3.84c.28,0,.5-.09.66-.27s.3-.46.45-.86l1.83-5.23-.4,1.8-10.17-26.62h4.41l8.06,23.32-.87-.21,8.04-23.11h4.36l-12.07,31.62c-.33.86-.88,1.55-1.66,2.06s-1.59.77-2.44.77h-4.03Z"/>
      <path class="cls-9" d="m1530.06,72.56c-2.05,0-3.86-.54-5.43-1.62s-2.79-2.61-3.67-4.59-1.31-4.33-1.31-7.03.44-5.04,1.32-7.02,2.11-3.5,3.67-4.57,3.37-1.61,5.41-1.61c1.66,0,3.3.41,4.92,1.24s2.85,2.23,3.68,4.2l-.45.19v-14.91h3.94v35.16h-3.7v-5.27l.12.38c-.69,1.84-1.83,3.21-3.42,4.11s-3.29,1.35-5.09,1.35Zm1.03-3.28c1.33,0,2.54-.34,3.63-1.03s1.97-1.76,2.62-3.22.98-3.33.98-5.61c0-3.41-.7-5.93-2.11-7.56s-3.1-2.45-5.09-2.45c-2.09,0-3.81.86-5.16,2.59s-2.02,4.2-2.02,7.42.65,5.55,1.95,7.28,3.02,2.59,5.18,2.59Z"/>
      <path class="cls-9" d="m1560.08,72.56c-2.38,0-4.47-.56-6.28-1.68s-3.23-2.67-4.24-4.65-1.52-4.28-1.52-6.89.51-4.91,1.52-6.89,2.43-3.54,4.24-4.65,3.91-1.68,6.28-1.68,4.47.56,6.28,1.68,3.23,2.67,4.24,4.65,1.52,4.28,1.52,6.89-.51,4.91-1.52,6.89-2.43,3.54-4.24,4.65-3.91,1.68-6.28,1.68Zm0-3.28c2.39,0,4.28-.89,5.66-2.67s2.07-4.2,2.07-7.27-.69-5.5-2.07-7.28-3.27-2.66-5.66-2.66-4.28.89-5.66,2.66-2.07,4.2-2.07,7.28.69,5.48,2.07,7.27,3.27,2.67,5.66,2.67Z"/>
      <path class="cls-9" d="m1578.01,72v-25.31h3.7v4.34c.59-1.31,1.58-2.46,2.95-3.43s3.01-1.46,4.9-1.46c1.67,0,3.13.46,4.37,1.37s2.17,2.21,2.78,3.88c.8-1.55,1.89-2.81,3.27-3.79s3-1.46,4.84-1.46c2.42,0,4.34.88,5.75,2.64s2.12,4.19,2.12,7.3v15.94h-3.94v-15.63c0-1.44-.15-2.68-.45-3.71s-.79-1.84-1.46-2.4-1.61-.84-2.78-.84c-1.28,0-2.43.36-3.46,1.09s-1.83,1.79-2.41,3.18-.88,3.09-.88,5.09v13.24h-3.94v-15.63c0-1.44-.15-2.68-.45-3.71s-.78-1.84-1.45-2.4-1.59-.84-2.74-.84c-1.28,0-2.44.36-3.47,1.08s-1.84,1.77-2.44,3.16-.89,3.09-.89,5.11v13.24h-3.94Z"/>
      <path class="cls-9" d="m1626.5,72.56c-1.69,0-3.15-.32-4.39-.97s-2.2-1.54-2.87-2.66-1.01-2.4-1.01-3.82c0-1.52.45-2.91,1.34-4.2s2.27-2.31,4.14-3.08,4.26-1.16,7.18-1.16h4.22l-.42.42v-1.38c0-2.03-.41-3.59-1.22-4.68s-2.17-1.63-4.08-1.63c-1.8,0-3.18.46-4.15,1.39s-1.48,2.18-1.55,3.74l-4.43-1.01c.14-1.36.66-2.6,1.56-3.71s2.1-2.01,3.61-2.68,3.25-1.01,5.24-1.01,3.71.39,5,1.16,2.24,1.89,2.85,3.34.91,3.2.91,5.25v11.55c0,.52.07.86.22,1.03s.46.26.95.26h1.43v3.28h-2.51c-1.06,0-1.95-.33-2.67-1s-1.08-1.5-1.08-2.52v-1.78h.59c-.25.66-.61,1.32-1.08,2s-1.06,1.31-1.78,1.9-1.57,1.06-2.57,1.42-2.14.54-3.43.54Zm.89-3.28c1.3,0,2.5-.32,3.61-.96s2-1.64,2.68-3.01,1.02-3.14,1.02-5.33v-.21h-3.96c-2.08,0-3.71.27-4.91.82s-2.04,1.22-2.54,2.03-.75,1.61-.75,2.4.18,1.52.54,2.16.9,1.15,1.62,1.54,1.62.57,2.7.57Z"/>
      <path class="cls-9" d="m1648.47,42.45c-.91,0-1.68-.32-2.32-.96s-.96-1.41-.96-2.32.32-1.7.96-2.33,1.41-.95,2.32-.95,1.7.32,2.33.95.95,1.41.95,2.33-.32,1.68-.95,2.32-1.41.96-2.33.96Zm-1.97,29.55v-25.31h3.94v25.31h-3.94Z"/>
      <path class="cls-9" d="m1658.1,72v-25.31h3.7v5.72l-.16-1.03c.67-1.45,1.73-2.69,3.19-3.71s3.22-1.54,5.3-1.54c1.8,0,3.34.4,4.64,1.2s2.3,1.93,3,3.41,1.05,3.25,1.05,5.33v15.94h-3.94v-15.63c0-2.08-.43-3.76-1.28-5.04s-2.25-1.92-4.21-1.92c-2.11,0-3.86.8-5.26,2.4s-2.1,3.92-2.1,6.95v13.24h-3.94Z"/>
    </g>
    <g>
      <path class="cls-9" d="m1162.35,525.6v-20.16c-.93.8-1.79,1.47-2.6,2.01s-1.71,1-2.71,1.38v-2.99c.52-.25,1.06-.55,1.63-.92s1.23-.91,1.96-1.63,1.58-1.72,2.54-3h2.27v25.31h-3.09Z"/>
      <path class="cls-9" d="m1179.33,526.02c-2.93,0-5.2-1.15-6.82-3.44s-2.43-5.5-2.43-9.64.81-7.35,2.43-9.64,3.89-3.44,6.82-3.44,5.22,1.15,6.83,3.44,2.42,5.5,2.42,9.64-.81,7.35-2.42,9.64-3.89,3.44-6.83,3.44Zm0-2.53c1.95,0,3.42-.9,4.41-2.69s1.49-4.41,1.49-7.86-.5-6.06-1.49-7.86-2.47-2.69-4.41-2.69-3.42.9-4.41,2.69-1.49,4.41-1.49,7.86.5,6.06,1.49,7.86,2.47,2.69,4.41,2.69Z"/>
      <path class="cls-9" d="m1191.05,513.61v-1.21l5.19-4.4c.7-.6,1.28-1.15,1.73-1.64.45-.49.78-.99.99-1.5.21-.51.32-1.07.32-1.69,0-.68-.12-1.25-.35-1.71-.24-.46-.58-.81-1.02-1.04-.44-.23-.99-.35-1.63-.35-.74,0-1.33.15-1.79.44-.46.29-.79.68-1.01,1.17-.22.49-.35,1.05-.39,1.66l-1.97-.61c.04-.66.28-1.3.71-1.94.43-.64,1.03-1.16,1.79-1.58.76-.42,1.64-.62,2.65-.62.57,0,1.15.08,1.73.25s1.12.42,1.6.78c.49.36.88.83,1.18,1.4s.45,1.28.45,2.1c0,1.17-.32,2.21-.95,3.13-.64.92-1.52,1.84-2.67,2.76l-4.01,3.25-1.3-.25h9.21v1.58h-10.45Z"/>
    </g>
    <g>
      <path class="cls-9" d="m1459.47,525.6v-20.16c-.93.8-1.79,1.47-2.6,2.01s-1.71,1-2.71,1.38v-2.99c.52-.25,1.06-.55,1.63-.92s1.23-.91,1.96-1.63,1.58-1.72,2.54-3h2.27v25.31h-3.09Z"/>
      <path class="cls-9" d="m1476.45,526.02c-2.93,0-5.2-1.15-6.82-3.44s-2.43-5.5-2.43-9.64.81-7.35,2.43-9.64,3.89-3.44,6.82-3.44,5.22,1.15,6.83,3.44,2.42,5.5,2.42,9.64-.81,7.35-2.42,9.64-3.89,3.44-6.83,3.44Zm0-2.53c1.95,0,3.42-.9,4.41-2.69s1.49-4.41,1.49-7.86-.5-6.06-1.49-7.86-2.47-2.69-4.41-2.69-3.42.9-4.41,2.69-1.49,4.41-1.49,7.86.5,6.06,1.49,7.86,2.47,2.69,4.41,2.69Z"/>
      <path class="cls-9" d="m1493.54,513.86c-.92,0-1.76-.18-2.54-.53s-1.41-.87-1.91-1.55c-.5-.68-.79-1.51-.88-2.5l1.87-.58c.08,1.1.41,1.99,1,2.67.59.68,1.4,1.02,2.43,1.02.92,0,1.69-.27,2.3-.8s.92-1.31.92-2.32c0-.4-.08-.82-.25-1.27-.17-.45-.47-.83-.9-1.14-.43-.31-1.04-.47-1.83-.47h-2.03v-1.56h1.87c.87,0,1.53-.23,1.99-.69s.69-.98.69-1.56c0-.68-.24-1.27-.72-1.75-.48-.49-1.16-.73-2.03-.73-1.08,0-1.87.31-2.37.92-.5.62-.79,1.47-.87,2.56l-1.87-.58c.04-.7.28-1.39.71-2.06.43-.67,1.02-1.22,1.78-1.66.76-.44,1.65-.66,2.67-.66.84,0,1.6.16,2.29.49.69.33,1.23.78,1.63,1.35.4.57.6,1.23.6,1.97,0,.49-.1.94-.31,1.36-.2.41-.51.77-.92,1.06s-.93.51-1.56.66c1.04.18,1.86.62,2.45,1.32s.9,1.5.9,2.4c0,.82-.14,1.52-.44,2.11-.29.59-.68,1.07-1.17,1.44-.49.37-1.04.65-1.65.83-.61.18-1.23.27-1.88.27Z"/>
    </g>
    <g>
      <path class="cls-9" d="m1756.54,525.6v-20.16c-.93.8-1.79,1.47-2.6,2.01s-1.71,1-2.71,1.38v-2.99c.52-.25,1.06-.55,1.63-.92s1.23-.91,1.96-1.63,1.58-1.72,2.54-3h2.27v25.31h-3.09Z"/>
      <path class="cls-9" d="m1773.52,526.02c-2.93,0-5.2-1.15-6.82-3.44s-2.43-5.5-2.43-9.64.81-7.35,2.43-9.64,3.89-3.44,6.82-3.44,5.22,1.15,6.83,3.44,2.42,5.5,2.42,9.64-.81,7.35-2.42,9.64-3.89,3.44-6.83,3.44Zm0-2.53c1.95,0,3.42-.9,4.41-2.69s1.49-4.41,1.49-7.86-.5-6.06-1.49-7.86-2.47-2.69-4.41-2.69-3.42.9-4.41,2.69-1.49,4.41-1.49,7.86.5,6.06,1.49,7.86,2.47,2.69,4.41,2.69Z"/>
      <path class="cls-9" d="m1792.66,513.61v-4.88h.02v-8.73l.45.98-6.54,7.77-.62-.53h10.21v1.58h-11.03v-1.76l7.78-9.18h1.53v14.76h-1.8Z"/>
    </g>
    <g>
      <path class="cls-9" d="m46.08,379.36v-2.74h11.79v2.74h-11.79Z"/>
      <path class="cls-9" d="m71.48,389.49c-2.93,0-5.2-1.15-6.82-3.44s-2.43-5.5-2.43-9.64.81-7.35,2.43-9.64,3.89-3.44,6.82-3.44,5.22,1.15,6.83,3.44,2.42,5.5,2.42,9.64-.81,7.35-2.42,9.64-3.89,3.44-6.83,3.44Zm0-2.53c1.95,0,3.42-.9,4.41-2.69s1.49-4.41,1.49-7.86-.5-6.06-1.49-7.86-2.47-2.69-4.41-2.69-3.42.9-4.41,2.69-1.49,4.41-1.49,7.86.5,6.06,1.49,7.86,2.47,2.69,4.41,2.69Z"/>
      <path class="cls-9" d="m86.41,389.49c-.75,0-1.38-.26-1.9-.77s-.77-1.15-.77-1.9.26-1.38.77-1.9,1.15-.77,1.9-.77,1.38.26,1.9.77.77,1.15.77,1.9-.26,1.38-.77,1.9-1.15.77-1.9.77Z"/>
      <path class="cls-9" d="m101.54,389.49c-1.46,0-2.87-.3-4.2-.91s-2.45-1.49-3.35-2.65-1.42-2.59-1.57-4.28l3.2-1c.13,1.78.67,3.28,1.63,4.49s2.35,1.82,4.19,1.82c1.14,0,2.14-.27,3-.82s1.54-1.3,2.03-2.26.74-2.06.74-3.3c0-1.89-.54-3.33-1.63-4.34s-2.43-1.51-4.03-1.51c-1.42,0-2.53.35-3.33,1.06s-1.39,1.5-1.77,2.38l-3.06-.32,1.02-14.1h14.48v2.71h-11.87l-.67,9.56-.86-.07c.63-1.08,1.51-1.99,2.64-2.72s2.5-1.11,4.11-1.11,2.94.35,4.17,1.05,2.2,1.68,2.92,2.94,1.07,2.71,1.07,4.36c0,1.83-.41,3.42-1.23,4.77s-1.9,2.4-3.25,3.14-2.81,1.11-4.38,1.11Z"/>
    </g>
    <g>
      <path class="cls-9" d="m65,209.49c-2.93,0-5.2-1.15-6.82-3.44s-2.43-5.5-2.43-9.64.81-7.35,2.43-9.64,3.89-3.44,6.82-3.44,5.22,1.15,6.83,3.44,2.42,5.5,2.42,9.64-.81,7.35-2.42,9.64-3.89,3.44-6.83,3.44Zm0-2.53c1.95,0,3.42-.9,4.41-2.69s1.49-4.41,1.49-7.86-.5-6.06-1.49-7.86-2.47-2.69-4.41-2.69-3.42.9-4.41,2.69-1.49,4.41-1.49,7.86.5,6.06,1.49,7.86,2.47,2.69,4.41,2.69Z"/>
      <path class="cls-9" d="m79.93,209.49c-.75,0-1.38-.26-1.9-.77s-.77-1.15-.77-1.9.26-1.38.77-1.9,1.15-.77,1.9-.77,1.38.26,1.9.77.77,1.15.77,1.9-.26,1.38-.77,1.9-1.15.77-1.9.77Z"/>
      <path class="cls-9" d="m95.06,209.49c-1.46,0-2.87-.3-4.2-.91s-2.45-1.49-3.35-2.65-1.42-2.59-1.57-4.28l3.2-1c.13,1.78.67,3.28,1.63,4.49s2.35,1.82,4.19,1.82c1.14,0,2.14-.27,3-.82s1.54-1.3,2.03-2.26.74-2.06.74-3.3c0-1.89-.54-3.33-1.63-4.34s-2.43-1.51-4.03-1.51c-1.42,0-2.53.35-3.33,1.06s-1.39,1.5-1.77,2.38l-3.06-.32,1.02-14.1h14.48v2.71h-11.87l-.67,9.56-.86-.07c.63-1.08,1.51-1.99,2.64-2.72s2.5-1.11,4.11-1.11,2.94.35,4.17,1.05,2.2,1.68,2.92,2.94,1.07,2.71,1.07,4.36c0,1.83-.41,3.42-1.23,4.77s-1.9,2.4-3.25,3.14-2.81,1.11-4.38,1.11Z"/>
    </g>
    <g>
      <path class="cls-9" d="m100.26,526.02c-2.93,0-5.2-1.15-6.82-3.44s-2.43-5.5-2.43-9.64.81-7.35,2.43-9.64,3.89-3.44,6.82-3.44,5.22,1.15,6.83,3.44,2.42,5.5,2.42,9.64-.81,7.35-2.42,9.64-3.89,3.44-6.83,3.44Zm0-2.53c1.95,0,3.42-.9,4.41-2.69s1.49-4.41,1.49-7.86-.5-6.06-1.49-7.86-2.47-2.69-4.41-2.69-3.42.9-4.41,2.69-1.49,4.41-1.49,7.86.5,6.06,1.49,7.86,2.47,2.69,4.41,2.69Z"/>
      <path class="cls-9" d="m115.18,526.02c-.75,0-1.38-.26-1.9-.77s-.77-1.15-.77-1.9.26-1.38.77-1.9,1.15-.77,1.9-.77,1.38.26,1.9.77.77,1.15.77,1.9-.26,1.38-.77,1.9-1.15.77-1.9.77Z"/>
      <path class="cls-9" d="m130.14,526.02c-2.93,0-5.2-1.15-6.82-3.44s-2.43-5.5-2.43-9.64.81-7.35,2.43-9.64,3.89-3.44,6.82-3.44,5.22,1.15,6.83,3.44,2.42,5.5,2.42,9.64-.81,7.35-2.42,9.64-3.89,3.44-6.83,3.44Zm0-2.53c1.95,0,3.42-.9,4.41-2.69s1.49-4.41,1.49-7.86-.5-6.06-1.49-7.86-2.47-2.69-4.41-2.69-3.42.9-4.41,2.69-1.49,4.41-1.49,7.86.5,6.06,1.49,7.86,2.47,2.69,4.41,2.69Z"/>
    </g>
    <g>
      <path class="cls-8" d="m970.99,469.36v-2.74h11.79v2.74h-11.79Z"/>
      <path class="cls-8" d="m999.06,479.07v-8.37h.04v-14.98l.77,1.69-11.21,13.32-1.05-.91h17.51v2.71h-18.91v-3.02l13.34-15.75h2.62v25.31h-3.09Z"/>
      <path class="cls-8" d="m1016.97,479.49c-1.73,0-3.27-.32-4.61-.96s-2.39-1.53-3.15-2.68-1.13-2.47-1.13-3.97c0-1.61.48-3.04,1.44-4.32s2.37-2.08,4.22-2.42c-.97-.23-1.82-.6-2.55-1.11s-1.29-1.12-1.68-1.85-.59-1.55-.59-2.45c0-1.23.34-2.33,1.03-3.3s1.63-1.73,2.85-2.28,2.61-.83,4.19-.83,2.99.28,4.19.83,2.14,1.31,2.82,2.28,1.02,2.07,1.02,3.3c0,.9-.2,1.72-.59,2.45s-.95,1.35-1.66,1.85-1.56.87-2.53,1.11c1.85.34,3.26,1.15,4.22,2.42s1.44,2.71,1.44,4.32c0,1.5-.38,2.82-1.14,3.97s-1.81,2.04-3.16,2.68-2.89.96-4.63.96Zm.02-2.78c1.75,0,3.12-.45,4.13-1.35s1.51-2.14,1.51-3.71-.5-2.76-1.51-3.68-2.38-1.38-4.13-1.38-3.11.46-4.14,1.38-1.54,2.15-1.54,3.68.51,2.82,1.54,3.72,2.41,1.34,4.14,1.34Zm0-12.73c1.51,0,2.7-.35,3.57-1.04s1.3-1.65,1.3-2.88-.43-2.29-1.3-3.05-2.06-1.13-3.57-1.13-2.71.38-3.59,1.13-1.32,1.77-1.32,3.05.44,2.19,1.32,2.88,2.07,1.04,3.59,1.04Z"/>
      <path class="cls-8" d="m1037.66,479.49c-1.54,0-2.89-.4-4.07-1.21s-2.09-1.96-2.75-3.45-.98-3.25-.98-5.27.33-3.78.99-5.26,1.58-2.62,2.75-3.43,2.53-1.2,4.06-1.2c1.24,0,2.47.31,3.69.93s2.14,1.67,2.76,3.15l-.33.14v-11.18h2.95v26.37h-2.78v-3.96l.09.28c-.52,1.38-1.37,2.41-2.57,3.08s-2.47,1.01-3.81,1.01Zm.77-2.46c1,0,1.9-.26,2.72-.77s1.48-1.32,1.97-2.42.74-2.5.74-4.21c0-2.55-.53-4.44-1.58-5.67s-2.33-1.84-3.81-1.84c-1.57,0-2.86.65-3.87,1.94s-1.51,3.15-1.51,5.56.49,4.16,1.46,5.46,2.27,1.94,3.88,1.94Z"/>
      <path class="cls-8" d="m1052.48,479.07v-25.31h9.65c2.47,0,4.45.51,5.94,1.52s2.23,2.5,2.23,4.46c0,1.2-.26,2.19-.79,2.98s-1.2,1.4-2.03,1.83-1.7.69-2.61.8l.05-.07c1.85.3,3.37,1.03,4.56,2.18s1.78,2.75,1.78,4.82c0,1.68-.39,3.01-1.17,4.01s-1.81,1.71-3.1,2.14-2.7.65-4.24.65h-10.28Zm3.16-15.05h6.33c1.38,0,2.57-.3,3.55-.89s1.48-1.58,1.48-2.98c0-1.11-.38-2.02-1.13-2.73s-2-1.06-3.72-1.06h-6.5v7.66Zm0,12.45h7.12c1.37,0,2.44-.24,3.22-.71s1.32-1.08,1.63-1.82.47-1.51.47-2.3c0-1.14-.26-2.07-.79-2.81s-1.27-1.29-2.23-1.65-2.1-.54-3.41-.54h-5.99v9.84Z"/>
    </g>
    <g>
      <path class="cls-8" d="m983.29,199.36v-2.74h11.79v2.74h-11.79Z"/>
      <path class="cls-8" d="m1001.71,209.07v-20.16c-.93.8-1.79,1.47-2.6,2.01s-1.71,1-2.71,1.38v-2.99c.52-.25,1.06-.55,1.63-.92s1.23-.91,1.96-1.63,1.58-1.72,2.54-3h2.27v25.31h-3.09Z"/>
      <path class="cls-8" d="m1009.01,209.07v-2.07l8.89-7.54c1.21-1.03,2.19-1.97,2.96-2.81s1.33-1.7,1.7-2.57.54-1.83.54-2.9c0-1.16-.2-2.14-.61-2.93s-.99-1.39-1.75-1.78-1.69-.6-2.79-.6c-1.27,0-2.29.25-3.07.75s-1.36,1.17-1.74,2.01-.61,1.79-.68,2.85l-3.38-1.04c.07-1.12.48-2.23,1.22-3.32s1.77-1.99,3.07-2.71,2.82-1.07,4.55-1.07c.98,0,1.97.14,2.97.42s1.91.73,2.75,1.34,1.51,1.42,2.02,2.41.76,2.19.76,3.59c0,2-.54,3.79-1.63,5.37s-2.61,3.16-4.57,4.74l-6.87,5.57-2.23-.42h15.8v2.71h-17.93Z"/>
      <path class="cls-8" d="m1037.66,209.49c-1.54,0-2.89-.4-4.07-1.21s-2.09-1.96-2.75-3.45-.98-3.25-.98-5.27.33-3.78.99-5.26,1.58-2.62,2.75-3.43,2.53-1.2,4.06-1.2c1.24,0,2.47.31,3.69.93s2.14,1.67,2.76,3.15l-.33.14v-11.18h2.95v26.37h-2.78v-3.96l.09.28c-.52,1.38-1.37,2.41-2.57,3.08s-2.47,1.01-3.81,1.01Zm.77-2.46c1,0,1.9-.26,2.72-.77s1.48-1.32,1.97-2.42.74-2.5.74-4.21c0-2.55-.53-4.44-1.58-5.67s-2.33-1.84-3.81-1.84c-1.57,0-2.86.65-3.87,1.94s-1.51,3.15-1.51,5.56.49,4.16,1.46,5.46,2.27,1.94,3.88,1.94Z"/>
      <path class="cls-8" d="m1052.48,209.07v-25.31h9.65c2.47,0,4.45.51,5.94,1.52s2.23,2.5,2.23,4.46c0,1.2-.26,2.19-.79,2.98s-1.2,1.4-2.03,1.83-1.7.69-2.61.8l.05-.07c1.85.3,3.37,1.03,4.56,2.18s1.78,2.75,1.78,4.82c0,1.68-.39,3.01-1.17,4.01s-1.81,1.71-3.1,2.14-2.7.65-4.24.65h-10.28Zm3.16-15.05h6.33c1.38,0,2.57-.3,3.55-.89s1.48-1.58,1.48-2.98c0-1.11-.38-2.02-1.13-2.73s-2-1.06-3.72-1.06h-6.5v7.66Zm0,12.45h7.12c1.37,0,2.44-.24,3.22-.71s1.32-1.08,1.63-1.82.47-1.51.47-2.3c0-1.14-.26-2.07-.79-2.81s-1.27-1.29-2.23-1.65-2.1-.54-3.41-.54h-5.99v9.84Z"/>
    </g>
    <g>
      <path class="cls-8" d="m1016.57,119.49c-2.93,0-5.2-1.15-6.82-3.44s-2.43-5.5-2.43-9.64.81-7.35,2.43-9.64,3.89-3.44,6.82-3.44,5.22,1.15,6.83,3.44,2.42,5.5,2.42,9.64-.81,7.35-2.42,9.64-3.89,3.44-6.83,3.44Zm0-2.53c1.95,0,3.42-.9,4.41-2.69s1.49-4.41,1.49-7.86-.5-6.06-1.49-7.86-2.47-2.69-4.41-2.69-3.42.9-4.41,2.69-1.49,4.41-1.49,7.86.5,6.06,1.49,7.86,2.47,2.69,4.41,2.69Z"/>
      <path class="cls-8" d="m1037.66,119.49c-1.54,0-2.89-.4-4.07-1.21s-2.09-1.96-2.75-3.45-.98-3.25-.98-5.27.33-3.78.99-5.26,1.58-2.62,2.75-3.43,2.53-1.2,4.06-1.2c1.24,0,2.47.31,3.69.93s2.14,1.67,2.76,3.15l-.33.14v-11.18h2.95v26.37h-2.78v-3.96l.09.28c-.52,1.38-1.37,2.41-2.57,3.08s-2.47,1.01-3.81,1.01Zm.77-2.46c1,0,1.9-.26,2.72-.77s1.48-1.32,1.97-2.42.74-2.5.74-4.21c0-2.55-.53-4.44-1.58-5.67s-2.33-1.84-3.81-1.84c-1.57,0-2.86.65-3.87,1.94s-1.51,3.15-1.51,5.56.49,4.16,1.46,5.46,2.27,1.94,3.88,1.94Z"/>
      <path class="cls-8" d="m1052.48,119.07v-25.31h9.65c2.47,0,4.45.51,5.94,1.52s2.23,2.5,2.23,4.46c0,1.2-.26,2.19-.79,2.98s-1.2,1.4-2.03,1.83-1.7.69-2.61.8l.05-.07c1.85.3,3.37,1.03,4.56,2.18s1.78,2.75,1.78,4.82c0,1.68-.39,3.01-1.17,4.01s-1.81,1.71-3.1,2.14-2.7.65-4.24.65h-10.28Zm3.16-15.05h6.33c1.38,0,2.57-.3,3.55-.89s1.48-1.58,1.48-2.98c0-1.11-.38-2.02-1.13-2.73s-2-1.06-3.72-1.06h-6.5v7.66Zm0,12.45h7.12c1.37,0,2.44-.24,3.22-.71s1.32-1.08,1.63-1.82.47-1.51.47-2.3c0-1.14-.26-2.07-.79-2.81s-1.27-1.29-2.23-1.65-2.1-.54-3.41-.54h-5.99v9.84Z"/>
    </g>
    <g>
      <path class="cls-8" d="m977.46,289.36v-2.74h11.79v2.74h-11.79Z"/>
      <path class="cls-8" d="m988.97,299.07v-2.07l8.89-7.54c1.21-1.03,2.19-1.97,2.96-2.81s1.33-1.7,1.7-2.57.54-1.83.54-2.9c0-1.16-.2-2.14-.61-2.93s-.99-1.39-1.75-1.78-1.69-.6-2.79-.6c-1.27,0-2.29.25-3.07.75s-1.36,1.17-1.74,2.01-.61,1.79-.68,2.85l-3.38-1.04c.07-1.12.48-2.23,1.22-3.32s1.77-1.99,3.07-2.71,2.82-1.07,4.55-1.07c.98,0,1.97.14,2.97.42s1.91.73,2.75,1.34,1.51,1.42,2.02,2.41.76,2.19.76,3.59c0,2-.54,3.79-1.63,5.37s-2.61,3.16-4.57,4.74l-6.87,5.57-2.23-.42h15.8v2.71h-17.93Z"/>
      <path class="cls-8" d="m1021.3,299.07v-8.37h.04v-14.98l.77,1.69-11.21,13.32-1.05-.91h17.51v2.71h-18.91v-3.02l13.34-15.75h2.62v25.31h-3.09Z"/>
      <path class="cls-8" d="m1037.66,299.49c-1.54,0-2.89-.4-4.07-1.21s-2.09-1.96-2.75-3.45-.98-3.25-.98-5.27.33-3.78.99-5.26,1.58-2.62,2.75-3.43,2.53-1.2,4.06-1.2c1.24,0,2.47.31,3.69.93s2.14,1.67,2.76,3.15l-.33.14v-11.18h2.95v26.37h-2.78v-3.96l.09.28c-.52,1.38-1.37,2.41-2.57,3.08s-2.47,1.01-3.81,1.01Zm.77-2.46c1,0,1.9-.26,2.72-.77s1.48-1.32,1.97-2.42.74-2.5.74-4.21c0-2.55-.53-4.44-1.58-5.67s-2.33-1.84-3.81-1.84c-1.57,0-2.86.65-3.87,1.94s-1.51,3.15-1.51,5.56.49,4.16,1.46,5.46,2.27,1.94,3.88,1.94Z"/>
      <path class="cls-8" d="m1052.48,299.07v-25.31h9.65c2.47,0,4.45.51,5.94,1.52s2.23,2.5,2.23,4.46c0,1.2-.26,2.19-.79,2.98s-1.2,1.4-2.03,1.83-1.7.69-2.61.8l.05-.07c1.85.3,3.37,1.03,4.56,2.18s1.78,2.75,1.78,4.82c0,1.68-.39,3.01-1.17,4.01s-1.81,1.71-3.1,2.14-2.7.65-4.24.65h-10.28Zm3.16-15.05h6.33c1.38,0,2.57-.3,3.55-.89s1.48-1.58,1.48-2.98c0-1.11-.38-2.02-1.13-2.73s-2-1.06-3.72-1.06h-6.5v7.66Zm0,12.45h7.12c1.37,0,2.44-.24,3.22-.71s1.32-1.08,1.63-1.82.47-1.51.47-2.3c0-1.14-.26-2.07-.79-2.81s-1.27-1.29-2.23-1.65-2.1-.54-3.41-.54h-5.99v9.84Z"/>
    </g>
    <g>
      <path class="cls-8" d="m971.51,379.36v-2.74h11.79v2.74h-11.79Z"/>
      <path class="cls-8" d="m995.02,389.49c-1.57,0-3.02-.3-4.35-.91s-2.42-1.5-3.28-2.66-1.36-2.59-1.51-4.28l3.2-1c.13,1.89.7,3.41,1.72,4.58s2.41,1.75,4.17,1.75c1.58,0,2.9-.46,3.95-1.38s1.57-2.25,1.57-3.98c0-.68-.14-1.4-.43-2.17s-.8-1.42-1.54-1.96-1.79-.81-3.15-.81h-3.48v-2.67h3.2c1.49,0,2.63-.4,3.42-1.19s1.19-1.68,1.19-2.68c0-1.17-.41-2.17-1.23-3.01s-1.98-1.25-3.48-1.25c-1.85,0-3.21.53-4.07,1.58s-1.36,2.52-1.49,4.39l-3.2-1c.07-1.21.47-2.38,1.21-3.53s1.76-2.1,3.06-2.85,2.83-1.12,4.59-1.12c1.44,0,2.75.28,3.93.84s2.11,1.33,2.8,2.31,1.04,2.11,1.04,3.38c0,.84-.18,1.62-.53,2.33s-.88,1.32-1.58,1.82-1.59.88-2.67,1.12c1.78.32,3.18,1.07,4.21,2.26s1.54,2.56,1.54,4.12c0,1.41-.25,2.61-.75,3.62s-1.17,1.83-2.01,2.47-1.79,1.11-2.83,1.42-2.12.46-3.22.46Z"/>
      <path class="cls-8" d="m1017.17,389.49c-3.07,0-5.4-1.12-6.99-3.38s-2.38-5.31-2.38-9.19c0-1.9.19-3.67.58-5.32s.98-3.09,1.77-4.32,1.78-2.2,2.98-2.9,2.6-1.05,4.22-1.05,3.11.34,4.33,1.03,2.19,1.54,2.89,2.58,1.11,2.08,1.23,3.15l-3.22.83c-.07-1.51-.56-2.73-1.47-3.66s-2.15-1.39-3.72-1.39c-1.18,0-2.17.26-2.95.77s-1.42,1.2-1.89,2.04-.83,1.77-1.07,2.77-.4,2-.47,2.98-.11,1.87-.11,2.65l-.28-.28c.49-1.15,1.31-2.17,2.45-3.06s2.63-1.34,4.47-1.34c1.48,0,2.84.33,4.09.99s2.25,1.63,3,2.9,1.12,2.82,1.12,4.65-.36,3.24-1.07,4.53-1.72,2.27-3.01,2.97-2.79,1.05-4.5,1.05Zm0-2.53c1.72,0,3.06-.54,4-1.63s1.42-2.56,1.42-4.44-.47-3.35-1.41-4.39-2.24-1.56-3.9-1.56-3.09.54-4.14,1.63-1.57,2.56-1.57,4.44.51,3.28,1.52,4.35,2.38,1.61,4.09,1.61Z"/>
      <path class="cls-8" d="m1037.66,389.49c-1.54,0-2.89-.4-4.07-1.21s-2.09-1.96-2.75-3.45-.98-3.25-.98-5.27.33-3.78.99-5.26,1.58-2.62,2.75-3.43,2.53-1.2,4.06-1.2c1.24,0,2.47.31,3.69.93s2.14,1.67,2.76,3.15l-.33.14v-11.18h2.95v26.37h-2.78v-3.96l.09.28c-.52,1.38-1.37,2.41-2.57,3.08s-2.47,1.01-3.81,1.01Zm.77-2.46c1,0,1.9-.26,2.72-.77s1.48-1.32,1.97-2.42.74-2.5.74-4.21c0-2.55-.53-4.44-1.58-5.67s-2.33-1.84-3.81-1.84c-1.57,0-2.86.65-3.87,1.94s-1.51,3.15-1.51,5.56.49,4.16,1.46,5.46,2.27,1.94,3.88,1.94Z"/>
      <path class="cls-8" d="m1052.48,389.07v-25.31h9.65c2.47,0,4.45.51,5.94,1.52s2.23,2.5,2.23,4.46c0,1.2-.26,2.19-.79,2.98s-1.2,1.4-2.03,1.83-1.7.69-2.61.8l.05-.07c1.85.3,3.37,1.03,4.56,2.18s1.78,2.75,1.78,4.82c0,1.68-.39,3.01-1.17,4.01s-1.81,1.71-3.1,2.14-2.7.65-4.24.65h-10.28Zm3.16-15.05h6.33c1.38,0,2.57-.3,3.55-.89s1.48-1.58,1.48-2.98c0-1.11-.38-2.02-1.13-2.73s-2-1.06-3.72-1.06h-6.5v7.66Zm0,12.45h7.12c1.37,0,2.44-.24,3.22-.71s1.32-1.08,1.63-1.82.47-1.51.47-2.3c0-1.14-.26-2.07-.79-2.81s-1.27-1.29-2.23-1.65-2.1-.54-3.41-.54h-5.99v9.84Z"/>
    </g>
  </g>
</svg>