<?xml version="1.0" encoding="UTF-8"?>
<svg xmlns="http://www.w3.org/2000/svg" viewBox="0 0 612 388.8">
  <defs>
    <style>
      .cls-1 {
        stroke-width: 12px;
      }

      .cls-1, .cls-2 {
        stroke: #d85648;
      }

      .cls-1, .cls-2, .cls-3, .cls-4, .cls-5 {
        stroke-miterlimit: 10;
      }

      .cls-1, .cls-2, .cls-4, .cls-5 {
        fill: none;
      }

      .cls-2 {
        stroke-width: 5px;
      }

      .cls-3 {
        fill: #0d1117;
      }

      .cls-3, .cls-4, .cls-5 {
        stroke: #c9d1d9;
      }

      .cls-4 {
        stroke-width: 2px;
      }

      .cls-6 {
        font-size: 24px;
      }

      .cls-6, .cls-7 {
        fill: #c9d1d9;
        font-family: Roboto-Regular, Roboto;
      }

      .cls-8 {
        letter-spacing: 0em;
      }

      .cls-7 {
        font-size: 18px;
      }
    </style>
  </defs>
  <g id="Saw_tooth">
    <line class="cls-1" x1="57.6" y1="324" x2="57.6" y2="36"/>
    <line class="cls-1" x1="86.4" y1="324" x2="86.4" y2="180"/>
    <line class="cls-1" x1="115.2" y1="324" x2="115.2" y2="228"/>
    <line class="cls-1" x1="144" y1="324" x2="144" y2="252"/>
    <line class="cls-1" x1="172.8" y1="324" x2="172.8" y2="266.4"/>
    <line class="cls-1" x1="201.6" y1="324" x2="201.6" y2="276"/>
    <line class="cls-1" x1="230.4" y1="324" x2="230.4" y2="282.86"/>
    <line class="cls-1" x1="259.2" y1="324" x2="259.2" y2="288"/>
    <line class="cls-1" x1="288" y1="324" x2="288" y2="292"/>
    <line class="cls-1" x1="316.8" y1="324" x2="316.8" y2="295.2"/>
    <line class="cls-1" x1="345.6" y1="324" x2="345.6" y2="297.82"/>
    <line class="cls-1" x1="374.4" y1="324" x2="374.4" y2="300"/>
    <line class="cls-1" x1="403.2" y1="324" x2="403.2" y2="301.85"/>
    <line class="cls-1" x1="432" y1="324" x2="432" y2="303.43"/>
    <line class="cls-1" x1="460.8" y1="324" x2="460.8" y2="304.8"/>
    <line class="cls-1" x1="489.6" y1="324" x2="489.6" y2="306"/>
    <line class="cls-1" x1="518.4" y1="324" x2="518.4" y2="307.06"/>
    <line class="cls-1" x1="547.2" y1="324" x2="547.2" y2="308"/>
    <line class="cls-1" x1="576" y1="324" x2="576" y2="308.84"/>
  </g>
  <g id="Frame">
    <rect class="cls-4" x="28.8" y="36" width="576" height="288"/>
    <line class="cls-5" x1="28.8" y1="252" x2="604.8" y2="252"/>
    <line class="cls-5" x1="28.8" y1="180" x2="604.8" y2="180"/>
    <line class="cls-5" x1="28.8" y1="108" x2="604.8" y2="108"/>
    <line class="cls-5" x1="57.6" y1="36" x2="57.6" y2="324"/>
    <line class="cls-5" x1="86.4" y1="36" x2="86.4" y2="324"/>
    <line class="cls-5" x1="115.2" y1="36" x2="115.2" y2="324"/>
    <line class="cls-5" x1="144" y1="36" x2="144" y2="324"/>
    <line class="cls-5" x1="172.8" y1="36" x2="172.8" y2="324"/>
    <line class="cls-5" x1="201.6" y1="36" x2="201.6" y2="324"/>
    <line class="cls-5" x1="230.4" y1="36" x2="230.4" y2="324"/>
    <line class="cls-5" x1="259.2" y1="36" x2="259.2" y2="324"/>
    <line class="cls-5" x1="288" y1="36" x2="288" y2="324"/>
    <line class="cls-5" x1="316.8" y1="36" x2="316.8" y2="324"/>
    <line class="cls-5" x1="345.6" y1="36" x2="345.6" y2="324"/>
    <line class="cls-5" x1="374.4" y1="36" x2="374.4" y2="324"/>
    <line class="cls-5" x1="403.2" y1="36" x2="403.2" y2="324"/>
    <line class="cls-5" x1="432" y1="36" x2="432" y2="324"/>
    <line class="cls-5" x1="460.8" y1="36" x2="460.8" y2="324"/>
    <line class="cls-5" x1="489.6" y1="36" x2="489.6" y2="324"/>
    <line class="cls-5" x1="518.4" y1="36" x2="518.4" y2="324"/>
    <line class="cls-5" x1="547.2" y1="36" x2="547.2" y2="324"/>
    <line class="cls-5" x1="576" y1="36" x2="576" y2="324"/>
    <rect class="cls-3" x="360" y="86.4" width="201.6" height="115.2"/>
    <polyline class="cls-2" points="547.2 144 547.2 100.8 374.4 187.2 374.4 144"/>
  </g>
  <g id="TEXT">
    <text class="cls-6" transform="translate(266.12 22.99)"><tspan x="0" y="0">Saw</tspan><tspan class="cls-8" x="45.33" y="0">t</tspan><tspan x="52.93" y="0">ooth</tspan></text>
    <g>
      <text class="cls-7" transform="translate(52.55 347.92)"><tspan x="0" y="0">1</tspan></text>
      <text class="cls-7" transform="translate(81.35 347.92)"><tspan x="0" y="0">2</tspan></text>
      <text class="cls-7" transform="translate(110.15 347.92)"><tspan x="0" y="0">3</tspan></text>
      <text class="cls-7" transform="translate(138.95 347.92)"><tspan x="0" y="0">4</tspan></text>
      <text class="cls-7" transform="translate(167.75 347.92)"><tspan x="0" y="0">5</tspan></text>
      <text class="cls-7" transform="translate(196.55 347.92)"><tspan x="0" y="0">6</tspan></text>
      <text class="cls-7" transform="translate(225.35 347.92)"><tspan x="0" y="0">7</tspan></text>
      <text class="cls-7" transform="translate(254.15 347.92)"><tspan x="0" y="0">8</tspan></text>
      <text class="cls-7" transform="translate(282.95 347.92)"><tspan x="0" y="0">9</tspan></text>
      <text class="cls-7" transform="translate(306.69 347.92)"><tspan x="0" y="0">10</tspan></text>
      <text class="cls-7" transform="translate(335.49 347.92)"><tspan x="0" y="0">11</tspan></text>
      <text class="cls-7" transform="translate(364.29 347.92)"><tspan x="0" y="0">12</tspan></text>
      <text class="cls-7" transform="translate(393.09 347.92)"><tspan x="0" y="0">13</tspan></text>
      <text class="cls-7" transform="translate(421.89 347.92)"><tspan x="0" y="0">14</tspan></text>
      <text class="cls-7" transform="translate(450.69 347.92)"><tspan x="0" y="0">15</tspan></text>
      <text class="cls-7" transform="translate(479.49 347.92)"><tspan x="0" y="0">16</tspan></text>
      <text class="cls-7" transform="translate(508.29 347.92)"><tspan x="0" y="0">17</tspan></text>
      <text class="cls-7" transform="translate(537.09 347.92)"><tspan x="0" y="0">18</tspan></text>
      <text class="cls-7" transform="translate(565.89 347.92)"><tspan x="0" y="0">19</tspan></text>
    </g>
    <text class="cls-6" transform="translate(19.04 234.56) rotate(-90)"><tspan x="0" y="0">Amplitude</tspan></text>
    <text class="cls-6" transform="translate(258.29 381.6)"><tspan x="0" y="0">Harmonics</tspan></text>
  </g>
</svg>