<?xml version="1.0" encoding="utf-8"?>
<!-- Generator: Adobe Illustrator 27.4.1, SVG Export Plug-In . SVG Version: 6.00 Build 0)  -->
<svg version="1.1" id="Ebene_1" xmlns="http://www.w3.org/2000/svg" xmlns:xlink="http://www.w3.org/1999/xlink" x="0px" y="0px"
	 viewBox="0 0 612 388.8" style="enable-background:new 0 0 612 388.8;" xml:space="preserve">
<style type="text/css">
	.st0{fill:none;stroke:#D85648;stroke-width:12;stroke-miterlimit:10;}
	.st1{fill:#FFFFFF;stroke:#D85648;stroke-width:12;stroke-miterlimit:10;}
	.st2{fill:none;stroke:#C9D1D9;stroke-width:2;stroke-miterlimit:10;}
	.st3{fill:none;stroke:#C9D1D9;stroke-miterlimit:10;}
	.st4{fill:#0D1117;stroke:#C9D1D9;stroke-miterlimit:10;}
	.st5{fill:none;stroke:#D85648;stroke-width:5;stroke-miterlimit:10;}
	.st6{fill:#C9D1D9;}
	.st7{font-family:'Roboto-Regular';}
	.st8{font-size:24px;}
	.st9{font-size:18px;}
</style>
<line class="st0" x1="576" y1="308.8" x2="576" y2="324"/>
<line class="st0" x1="57.6" y1="36" x2="57.6" y2="324"/>
<line class="st0" x1="115.2" y1="228" x2="115.2" y2="324"/>
<line class="st0" x1="172.8" y1="266.4" x2="172.8" y2="324"/>
<line class="st1" x1="230.4" y1="282.9" x2="230.4" y2="324"/>
<line class="st0" x1="288" y1="292" x2="288" y2="324"/>
<line class="st0" x1="345.6" y1="297.8" x2="345.6" y2="324"/>
<line class="st0" x1="403.2" y1="301.9" x2="403.2" y2="324"/>
<line class="st0" x1="460.8" y1="304.8" x2="460.8" y2="324"/>
<line class="st0" x1="518.4" y1="307" x2="518.4" y2="324"/>
<rect x="28.8" y="36" class="st2" width="576" height="288"/>
<line class="st3" x1="28.8" y1="252" x2="604.8" y2="252"/>
<line class="st3" x1="28.8" y1="180" x2="604.8" y2="180"/>
<line class="st3" x1="28.8" y1="108" x2="604.8" y2="108"/>
<line class="st3" x1="57.6" y1="36" x2="57.6" y2="324"/>
<line class="st3" x1="86.4" y1="36" x2="86.4" y2="324"/>
<line class="st3" x1="115.2" y1="36" x2="115.2" y2="324"/>
<line class="st3" x1="144" y1="36" x2="144" y2="324"/>
<line class="st3" x1="172.8" y1="36" x2="172.8" y2="324"/>
<line class="st3" x1="201.6" y1="36" x2="201.6" y2="324"/>
<line class="st3" x1="230.4" y1="36" x2="230.4" y2="324"/>
<line class="st3" x1="259.2" y1="36" x2="259.2" y2="324"/>
<line class="st3" x1="288" y1="36" x2="288" y2="324"/>
<line class="st3" x1="316.8" y1="36" x2="316.8" y2="324"/>
<line class="st3" x1="345.6" y1="36" x2="345.6" y2="324"/>
<line class="st3" x1="374.4" y1="36" x2="374.4" y2="324"/>
<line class="st3" x1="403.2" y1="36" x2="403.2" y2="324"/>
<line class="st3" x1="432" y1="36" x2="432" y2="324"/>
<line class="st3" x1="460.8" y1="36" x2="460.8" y2="324"/>
<line class="st3" x1="489.6" y1="36" x2="489.6" y2="324"/>
<line class="st3" x1="518.4" y1="36" x2="518.4" y2="324"/>
<line class="st3" x1="547.2" y1="36" x2="547.2" y2="324"/>
<line class="st3" x1="576" y1="36" x2="576" y2="324"/>
<rect x="360" y="86.4" class="st4" width="201.6" height="115.2"/>
<polyline class="st5" points="374.4,144 374.4,100.8 374.4,100.8 460.8,100.8 460.8,187.2 547.2,187.2 547.2,144 "/>
<g id="TEXT">
	<text transform="matrix(1 0 0 1 279.41 22.99)" class="st6 st7 st8">Squa</text>
	<text transform="matrix(1 0 0 1 333.57 22.99)" class="st6 st7 st8">r</text>
	<text transform="matrix(1 0 0 1 341.47 22.99)" class="st6 st7 st8">e</text>
	<g>
		<text transform="matrix(1 0 0 1 52.55 347.92)" class="st6 st7 st9">1</text>
		<text transform="matrix(1 0 0 1 81.35 347.92)" class="st6 st7 st9">2</text>
		<text transform="matrix(1 0 0 1 110.15 347.92)" class="st6 st7 st9">3</text>
		<text transform="matrix(1 0 0 1 138.95 347.92)" class="st6 st7 st9">4</text>
		<text transform="matrix(1 0 0 1 167.75 347.92)" class="st6 st7 st9">5</text>
		<text transform="matrix(1 0 0 1 196.55 347.92)" class="st6 st7 st9">6</text>
		<text transform="matrix(1 0 0 1 225.35 347.92)" class="st6 st7 st9">7</text>
		<text transform="matrix(1 0 0 1 254.15 347.92)" class="st6 st7 st9">8</text>
		<text transform="matrix(1 0 0 1 282.95 347.92)" class="st6 st7 st9">9</text>
		<text transform="matrix(1 0 0 1 306.69 347.92)" class="st6 st7 st9">10</text>
		<text transform="matrix(1 0 0 1 335.49 347.92)" class="st6 st7 st9">11</text>
		<text transform="matrix(1 0 0 1 364.29 347.92)" class="st6 st7 st9">12</text>
		<text transform="matrix(1 0 0 1 393.09 347.92)" class="st6 st7 st9">13</text>
		<text transform="matrix(1 0 0 1 421.89 347.92)" class="st6 st7 st9">14</text>
		<text transform="matrix(1 0 0 1 450.6899 347.92)" class="st6 st7 st9">15</text>
		<text transform="matrix(1 0 0 1 479.49 347.92)" class="st6 st7 st9">16</text>
		<text transform="matrix(1 0 0 1 508.29 347.92)" class="st6 st7 st9">17</text>
		<text transform="matrix(1 0 0 1 537.0901 347.92)" class="st6 st7 st9">18</text>
		<text transform="matrix(1 0 0 1 565.89 347.92)" class="st6 st7 st9">19</text>
	</g>
	<text transform="matrix(1 0 0 1 258.29 381.6)" class="st6 st7 st8">Harmonics</text>
	<text transform="matrix(6.123234e-17 -1 1 6.123234e-17 19.04 234.5596)" class="st6 st7 st8">Amplitude</text>
</g>
</svg>
