<?xml version="1.0" encoding="utf-8"?>
<!-- Generator: Adobe Illustrator 27.4.1, SVG Export Plug-In . SVG Version: 6.00 Build 0)  -->
<svg version="1.1" id="Ebene_1" xmlns="http://www.w3.org/2000/svg" xmlns:xlink="http://www.w3.org/1999/xlink" x="0px" y="0px"
	 viewBox="0 0 612 388.8" style="enable-background:new 0 0 612 388.8;" xml:space="preserve">
<style type="text/css">
	.st0{fill:none;stroke:#D85648;stroke-width:12;stroke-miterlimit:10;}
	.st1{fill:none;stroke:#C9D1D9;stroke-width:2;stroke-miterlimit:10;}
	.st2{fill:none;stroke:#C9D1D9;stroke-miterlimit:10;}
	.st3{fill:#0D1117;stroke:#C9D1D9;stroke-miterlimit:10;}
	.st4{fill:none;stroke:#D85648;stroke-width:5;stroke-miterlimit:10;}
	.st5{enable-background:new    ;}
	.st6{fill:#C9D1D9;}
</style>
<line class="st0" x1="57.6" y1="324" x2="57.6" y2="36"/>
<line class="st0" x1="172.8" y1="323" x2="172.8" y2="311.5"/>
<line class="st0" x1="115.2" y1="323" x2="115.2" y2="291"/>
<line class="st0" x1="230.4" y1="323" x2="230.4" y2="317.1"/>
<line class="st0" x1="288" y1="323" x2="288" y2="319.5"/>
<line class="st0" x1="345.6" y1="323" x2="345.6" y2="320.7"/>
<line class="st0" x1="403.2" y1="323" x2="403.2" y2="321.3"/>
<line class="st0" x1="460.8" y1="323" x2="460.8" y2="321.7"/>
<line class="st0" x1="518.4" y1="323" x2="518.4" y2="322"/>
<line class="st0" x1="576" y1="323" x2="576" y2="322.2"/>
<rect x="28.8" y="36" class="st1" width="576" height="288"/>
<line class="st2" x1="28.8" y1="252" x2="604.8" y2="252"/>
<line class="st2" x1="28.8" y1="180" x2="604.8" y2="180"/>
<line class="st2" x1="28.8" y1="108" x2="604.8" y2="108"/>
<line class="st2" x1="57.6" y1="35" x2="57.6" y2="323"/>
<line class="st2" x1="86.4" y1="36" x2="86.4" y2="324"/>
<line class="st2" x1="115.2" y1="36" x2="115.2" y2="324"/>
<line class="st2" x1="144" y1="36" x2="144" y2="324"/>
<line class="st2" x1="172.8" y1="36" x2="172.8" y2="324"/>
<line class="st2" x1="201.6" y1="36" x2="201.6" y2="324"/>
<line class="st2" x1="230.4" y1="36" x2="230.4" y2="324"/>
<line class="st2" x1="259.2" y1="36" x2="259.2" y2="324"/>
<line class="st2" x1="288" y1="36" x2="288" y2="324"/>
<line class="st2" x1="316.8" y1="36" x2="316.8" y2="324"/>
<line class="st2" x1="345.6" y1="36" x2="345.6" y2="324"/>
<line class="st2" x1="374.4" y1="36" x2="374.4" y2="324"/>
<line class="st2" x1="403.2" y1="36" x2="403.2" y2="324"/>
<line class="st2" x1="432" y1="36" x2="432" y2="324"/>
<line class="st2" x1="460.8" y1="36" x2="460.8" y2="324"/>
<line class="st2" x1="489.6" y1="36" x2="489.6" y2="324"/>
<line class="st2" x1="518.4" y1="36" x2="518.4" y2="324"/>
<line class="st2" x1="547.2" y1="36" x2="547.2" y2="324"/>
<line class="st2" x1="576" y1="36" x2="576" y2="324"/>
<rect x="360" y="86.4" class="st3" width="201.6" height="115.2"/>
<polyline class="st4" points="374.4,144 417.6,187.2 504,100.8 547.2,144 "/>
<g id="TEXT">
	<g class="st5">
		<path class="st6" d="M287.7,7.8h-5.5V23H280V7.8h-5.5V5.9h13.2V7.8z"/>
	</g>
	<g class="st5">
		<path class="st6" d="M295.2,12.3c-0.3-0.1-0.7-0.1-1.1-0.1c-1.4,0-2.4,0.6-2.9,1.8v9H289V10.3h2.1l0,1.5c0.7-1.1,1.7-1.7,3-1.7
			c0.4,0,0.7,0.1,1,0.2V12.3z"/>
		<path class="st6" d="M297.2,6.9c0-0.4,0.1-0.6,0.3-0.9s0.5-0.4,1-0.4s0.7,0.1,1,0.4s0.3,0.5,0.3,0.9s-0.1,0.6-0.3,0.9
			s-0.5,0.4-1,0.4s-0.7-0.1-1-0.4S297.2,7.3,297.2,6.9z M299.5,23h-2.2V10.3h2.2V23z"/>
		<path class="st6" d="M310.8,23c-0.1-0.2-0.2-0.7-0.3-1.3c-1,1-2.2,1.6-3.6,1.6c-1.2,0-2.3-0.4-3.1-1.1s-1.2-1.6-1.2-2.7
			c0-1.3,0.5-2.3,1.5-3.1s2.4-1.1,4.2-1.1h2.1v-1c0-0.8-0.2-1.4-0.7-1.8s-1.1-0.7-2-0.7c-0.8,0-1.4,0.2-1.9,0.6s-0.8,0.9-0.8,1.4
			h-2.2c0-0.6,0.2-1.2,0.7-1.8s1.1-1.1,1.8-1.4s1.6-0.5,2.5-0.5c1.5,0,2.6,0.4,3.4,1.1s1.3,1.7,1.3,3V20c0,1.2,0.1,2.1,0.4,2.8V23
			H310.8z M307.2,21.3c0.7,0,1.3-0.2,1.9-0.5s1.1-0.8,1.3-1.4v-2.6h-1.7c-2.7,0-4,0.8-4,2.3c0,0.7,0.2,1.2,0.7,1.6
			S306.5,21.3,307.2,21.3z"/>
		<path class="st6" d="M318.1,10.3l0.1,1.6c1-1.2,2.2-1.8,3.8-1.8c2.7,0,4,1.5,4.1,4.5V23h-2.2v-8.4c0-0.9-0.2-1.6-0.6-2
			s-1-0.7-1.9-0.7c-0.7,0-1.3,0.2-1.9,0.6s-0.9,0.9-1.2,1.5v9H316V10.3H318.1z"/>
		<path class="st6" d="M328.8,16.5c0-2,0.5-3.5,1.4-4.7s2.1-1.8,3.6-1.8c1.5,0,2.8,0.5,3.6,1.6l0.1-1.4h2v12.4
			c0,1.6-0.5,2.9-1.5,3.9s-2.3,1.4-3.9,1.4c-0.9,0-1.8-0.2-2.7-0.6s-1.5-0.9-2-1.6l1.1-1.3c0.9,1.1,2.1,1.7,3.4,1.7
			c1.1,0,1.9-0.3,2.5-0.9s0.9-1.4,0.9-2.5v-1.1c-0.9,1-2.1,1.5-3.6,1.5c-1.5,0-2.7-0.6-3.6-1.8S328.8,18.6,328.8,16.5z M330.9,16.8
			c0,1.4,0.3,2.6,0.9,3.4s1.4,1.2,2.5,1.2c1.4,0,2.4-0.6,3-1.9v-5.8c-0.7-1.2-1.7-1.8-3-1.8c-1.1,0-1.9,0.4-2.5,1.2
			S330.9,15.2,330.9,16.8z"/>
		<path class="st6" d="M345.1,23h-2.2V5h2.2V23z"/>
		<path class="st6" d="M353.8,23.2c-1.7,0-3.1-0.6-4.2-1.7S348,18.9,348,17v-0.4c0-1.3,0.2-2.4,0.7-3.4s1.2-1.8,2-2.3
			s1.8-0.8,2.8-0.8c1.6,0,2.9,0.5,3.8,1.6s1.4,2.6,1.4,4.7v0.9h-8.6c0,1.2,0.4,2.3,1.1,3s1.6,1.2,2.7,1.2c0.8,0,1.4-0.2,1.9-0.5
			s1-0.7,1.4-1.2l1.3,1C357.6,22.4,356,23.2,353.8,23.2z M353.6,11.9c-0.9,0-1.6,0.3-2.2,1s-1,1.5-1.1,2.7h6.4v-0.2
			c-0.1-1.1-0.4-2-0.9-2.6S354.5,11.9,353.6,11.9z"/>
	</g>
	<g>
		<g class="st5">
			<path class="st6" d="M59,347.9h-1.6v-10.8l-3.3,1.2v-1.5l4.7-1.7H59V347.9z"/>
		</g>
		<g class="st5">
			<path class="st6" d="M90.8,347.9h-8.4v-1.2l4.4-4.9c0.7-0.7,1.1-1.3,1.4-1.8c0.2-0.5,0.4-0.9,0.4-1.4c0-0.7-0.2-1.2-0.6-1.6
				s-0.9-0.6-1.6-0.6c-0.8,0-1.4,0.2-1.9,0.7c-0.4,0.5-0.7,1.1-0.7,1.9h-1.6c0-1.2,0.4-2.1,1.1-2.9s1.8-1.1,3-1.1
				c1.2,0,2.1,0.3,2.8,0.9c0.7,0.6,1,1.5,1,2.5c0,1.3-0.8,2.8-2.4,4.5l-3.4,3.7h6.4V347.9z"/>
		</g>
		<g class="st5">
			<path class="st6" d="M113.6,340.7h1.2c0.8,0,1.4-0.2,1.8-0.6s0.7-0.9,0.7-1.6c0-1.5-0.7-2.2-2.2-2.2c-0.7,0-1.3,0.2-1.7,0.6
				c-0.4,0.4-0.6,0.9-0.6,1.6h-1.6c0-1,0.4-1.9,1.1-2.5c0.7-0.7,1.7-1,2.8-1c1.2,0,2.2,0.3,2.8,1s1,1.5,1,2.7c0,0.6-0.2,1.1-0.5,1.6
				s-0.9,0.9-1.5,1.2c0.7,0.2,1.2,0.6,1.6,1.1s0.6,1.1,0.6,1.9c0,1.1-0.4,2.1-1.1,2.7s-1.7,1-2.9,1s-2.2-0.3-2.9-1s-1.1-1.5-1.1-2.6
				h1.6c0,0.7,0.2,1.2,0.7,1.6s1,0.6,1.8,0.6c0.8,0,1.4-0.2,1.8-0.6s0.6-1,0.6-1.8c0-0.7-0.2-1.3-0.7-1.7s-1.1-0.6-2-0.6h-1.2V340.7
				z"/>
		</g>
		<g class="st5">
			<path class="st6" d="M146.9,343.6h1.8v1.3h-1.8v3h-1.6v-3h-5.8v-1l5.7-8.9h1.7V343.6z M141.3,343.6h4v-6.3l-0.2,0.4L141.3,343.6z
				"/>
		</g>
		<g class="st5">
			<path class="st6" d="M169.6,341.5l0.7-6.4h6.6v1.5h-5.2l-0.4,3.5c0.6-0.4,1.3-0.6,2.1-0.6c1.2,0,2.1,0.4,2.8,1.2
				c0.7,0.8,1,1.8,1,3.1c0,1.3-0.4,2.4-1.1,3.1c-0.7,0.8-1.7,1.1-3,1.1c-1.1,0-2.1-0.3-2.8-0.9s-1.1-1.5-1.2-2.6h1.5
				c0.1,0.7,0.4,1.3,0.8,1.7s1,0.6,1.7,0.6c0.8,0,1.3-0.3,1.8-0.8s0.6-1.2,0.6-2.1c0-0.9-0.2-1.5-0.7-2.1c-0.5-0.5-1.1-0.8-1.9-0.8
				c-0.7,0-1.3,0.2-1.7,0.5l-0.4,0.4L169.6,341.5z"/>
		</g>
		<g class="st5">
			<path class="st6" d="M204,335.1v1.4h-0.3c-1.3,0-2.3,0.4-3,1.1s-1.2,1.7-1.3,3.1c0.7-0.8,1.6-1.2,2.8-1.2c1.1,0,2,0.4,2.7,1.2
				s1,1.8,1,3c0,1.3-0.4,2.4-1.1,3.2s-1.7,1.2-2.9,1.2c-1.2,0-2.2-0.5-3-1.4c-0.8-0.9-1.1-2.2-1.1-3.6v-0.6c0-2.4,0.5-4.2,1.5-5.4
				c1-1.2,2.5-1.9,4.5-1.9H204z M201.9,340.9c-0.6,0-1.1,0.2-1.5,0.5s-0.8,0.8-1,1.3v0.6c0,1.1,0.2,1.9,0.7,2.5s1.1,1,1.8,1
				c0.7,0,1.3-0.3,1.7-0.8s0.6-1.2,0.6-2.1c0-0.9-0.2-1.6-0.6-2.1S202.6,340.9,201.9,340.9z"/>
		</g>
		<g class="st5">
			<path class="st6" d="M234.7,336l-5.3,11.9h-1.7l5.3-11.5H226v-1.3h8.6V336z"/>
		</g>
		<g class="st5">
			<path class="st6" d="M263,338.5c0,0.6-0.2,1.2-0.5,1.7s-0.8,0.9-1.4,1.2c0.7,0.3,1.2,0.7,1.6,1.3s0.6,1.2,0.6,1.9
				c0,1.1-0.4,2-1.1,2.6s-1.7,1-2.9,1c-1.2,0-2.2-0.3-3-1c-0.7-0.7-1.1-1.5-1.1-2.6c0-0.7,0.2-1.3,0.6-1.9s0.9-1,1.6-1.3
				c-0.6-0.3-1-0.7-1.3-1.2s-0.5-1.1-0.5-1.7c0-1.1,0.3-1.9,1-2.6s1.6-0.9,2.7-0.9c1.1,0,2,0.3,2.7,0.9S263,337.4,263,338.5z
				 M261.6,344.4c0-0.7-0.2-1.3-0.7-1.7s-1-0.7-1.8-0.7s-1.3,0.2-1.8,0.7s-0.7,1-0.7,1.8s0.2,1.3,0.6,1.7s1,0.6,1.8,0.6
				c0.8,0,1.4-0.2,1.8-0.6S261.6,345.2,261.6,344.4z M259.2,336.3c-0.6,0-1.2,0.2-1.6,0.6c-0.4,0.4-0.6,0.9-0.6,1.6
				c0,0.7,0.2,1.2,0.6,1.6c0.4,0.4,0.9,0.6,1.6,0.6s1.2-0.2,1.6-0.6c0.4-0.4,0.6-0.9,0.6-1.6s-0.2-1.2-0.6-1.6
				S259.8,336.3,259.2,336.3z"/>
		</g>
		<g class="st5">
			<path class="st6" d="M290.2,342.3c-0.3,0.4-0.7,0.7-1.2,1s-1,0.4-1.6,0.4c-0.7,0-1.4-0.2-1.9-0.5s-1-0.9-1.3-1.5
				c-0.3-0.7-0.4-1.4-0.4-2.2c0-0.9,0.2-1.6,0.5-2.3s0.8-1.2,1.4-1.6s1.3-0.5,2.1-0.5c1.3,0,2.3,0.5,3,1.4s1.1,2.2,1.1,3.9v0.5
				c0,2.5-0.5,4.3-1.5,5.5c-1,1.1-2.5,1.7-4.5,1.8h-0.3v-1.4h0.3c1.3,0,2.4-0.4,3.1-1C289.8,344.8,290.2,343.8,290.2,342.3z
				 M287.7,342.3c0.5,0,1-0.2,1.5-0.5s0.8-0.7,1-1.2v-0.7c0-1.1-0.2-1.9-0.7-2.6s-1-1-1.8-1c-0.7,0-1.3,0.3-1.7,0.8
				s-0.7,1.3-0.7,2.2c0,0.9,0.2,1.6,0.6,2.2S287,342.3,287.7,342.3z"/>
		</g>
		<g class="st5">
			<path class="st6" d="M313.1,347.9h-1.6v-10.8l-3.3,1.2v-1.5l4.7-1.7h0.3V347.9z"/>
			<path class="st6" d="M325.9,342.5c0,1.9-0.3,3.3-1,4.2s-1.7,1.4-3,1.4c-1.4,0-2.4-0.5-3-1.4c-0.7-0.9-1-2.3-1-4.1v-2.2
				c0-1.9,0.3-3.3,1-4.2s1.7-1.4,3.1-1.4c1.4,0,2.4,0.4,3,1.3c0.7,0.9,1,2.2,1,4.1V342.5z M324.3,340.2c0-1.4-0.2-2.4-0.6-3
				s-1-0.9-1.8-0.9c-0.8,0-1.4,0.3-1.8,0.9s-0.6,1.6-0.6,2.9v2.6c0,1.4,0.2,2.4,0.6,3.1c0.4,0.7,1,1,1.8,1c0.8,0,1.4-0.3,1.8-0.9
				s0.6-1.6,0.6-2.9V340.2z"/>
		</g>
		<g class="st5">
			<path class="st6" d="M341.9,347.9h-1.6v-10.8l-3.3,1.2v-1.5l4.7-1.7h0.3V347.9z"/>
			<path class="st6" d="M352,347.9h-1.6v-10.8l-3.3,1.2v-1.5l4.7-1.7h0.3V347.9z"/>
		</g>
		<g class="st5">
			<path class="st6" d="M370.7,347.9h-1.6v-10.8l-3.3,1.2v-1.5l4.7-1.7h0.3V347.9z"/>
			<path class="st6" d="M383.8,347.9h-8.4v-1.2l4.4-4.9c0.7-0.7,1.1-1.3,1.4-1.8c0.2-0.5,0.4-0.9,0.4-1.4c0-0.7-0.2-1.2-0.6-1.6
				s-0.9-0.6-1.6-0.6c-0.8,0-1.4,0.2-1.9,0.7c-0.4,0.5-0.7,1.1-0.7,1.9h-1.6c0-1.2,0.4-2.1,1.1-2.9c0.8-0.7,1.8-1.1,3-1.1
				c1.2,0,2.1,0.3,2.8,0.9c0.7,0.6,1,1.5,1,2.5c0,1.3-0.8,2.8-2.4,4.5l-3.4,3.7h6.4V347.9z"/>
		</g>
		<g class="st5">
			<path class="st6" d="M399.5,347.9h-1.6v-10.8l-3.3,1.2v-1.5l4.7-1.7h0.3V347.9z"/>
			<path class="st6" d="M406.6,340.7h1.2c0.8,0,1.4-0.2,1.8-0.6s0.7-0.9,0.7-1.6c0-1.5-0.7-2.2-2.2-2.2c-0.7,0-1.3,0.2-1.7,0.6
				c-0.4,0.4-0.6,0.9-0.6,1.6h-1.6c0-1,0.4-1.9,1.1-2.5c0.7-0.7,1.7-1,2.8-1c1.2,0,2.2,0.3,2.8,1s1,1.5,1,2.7c0,0.6-0.2,1.1-0.5,1.6
				s-0.9,0.9-1.5,1.2c0.7,0.2,1.2,0.6,1.6,1.1s0.6,1.1,0.6,1.9c0,1.1-0.4,2.1-1.1,2.7s-1.7,1-2.9,1s-2.2-0.3-2.9-1s-1.1-1.5-1.1-2.6
				h1.6c0,0.7,0.2,1.2,0.7,1.6s1,0.6,1.8,0.6c0.8,0,1.4-0.2,1.8-0.6s0.6-1,0.6-1.8c0-0.7-0.2-1.3-0.7-1.7s-1.1-0.6-2-0.6h-1.2V340.7
				z"/>
		</g>
		<g class="st5">
			<path class="st6" d="M428.3,347.9h-1.6v-10.8l-3.3,1.2v-1.5l4.7-1.7h0.3V347.9z"/>
			<path class="st6" d="M439.9,343.6h1.8v1.3h-1.8v3h-1.6v-3h-5.8v-1l5.7-8.9h1.7V343.6z M434.3,343.6h4v-6.3l-0.2,0.4L434.3,343.6z
				"/>
		</g>
		<g class="st5">
			<path class="st6" d="M457.1,347.9h-1.6v-10.8l-3.3,1.2v-1.5l4.7-1.7h0.3V347.9z"/>
			<path class="st6" d="M462.6,341.5l0.7-6.4h6.6v1.5h-5.2l-0.4,3.5c0.6-0.4,1.3-0.6,2.1-0.6c1.2,0,2.1,0.4,2.8,1.2
				c0.7,0.8,1,1.8,1,3.1c0,1.3-0.4,2.4-1.1,3.1c-0.7,0.8-1.7,1.1-3,1.1c-1.1,0-2.1-0.3-2.8-0.9s-1.1-1.5-1.2-2.6h1.5
				c0.1,0.7,0.4,1.3,0.8,1.7s1,0.6,1.7,0.6c0.8,0,1.3-0.3,1.8-0.8s0.6-1.2,0.6-2.1c0-0.9-0.2-1.5-0.7-2.1c-0.5-0.5-1.1-0.8-1.9-0.8
				c-0.7,0-1.3,0.2-1.7,0.5l-0.4,0.4L462.6,341.5z"/>
		</g>
		<g class="st5">
			<path class="st6" d="M485.9,347.9h-1.6v-10.8l-3.3,1.2v-1.5l4.7-1.7h0.3V347.9z"/>
			<path class="st6" d="M497,335.1v1.4h-0.3c-1.3,0-2.3,0.4-3,1.1s-1.2,1.7-1.3,3.1c0.7-0.8,1.6-1.2,2.8-1.2c1.1,0,2,0.4,2.7,1.2
				s1,1.8,1,3c0,1.3-0.4,2.4-1.1,3.2s-1.7,1.2-2.9,1.2c-1.2,0-2.2-0.5-3-1.4c-0.8-0.9-1.1-2.2-1.1-3.6v-0.6c0-2.4,0.5-4.2,1.5-5.4
				c1-1.2,2.5-1.9,4.5-1.9H497z M494.9,340.9c-0.6,0-1.1,0.2-1.5,0.5s-0.8,0.8-1,1.3v0.6c0,1.1,0.2,1.9,0.7,2.5s1.1,1,1.8,1
				c0.7,0,1.3-0.3,1.7-0.8s0.6-1.2,0.6-2.1c0-0.9-0.2-1.6-0.6-2.1S495.6,340.9,494.9,340.9z"/>
		</g>
		<g class="st5">
			<path class="st6" d="M514.7,347.9h-1.6v-10.8l-3.3,1.2v-1.5l4.7-1.7h0.3V347.9z"/>
			<path class="st6" d="M527.7,336l-5.3,11.9h-1.7l5.3-11.5h-6.9v-1.3h8.6V336z"/>
		</g>
		<g class="st5">
			<path class="st6" d="M543.5,347.9h-1.6v-10.8l-3.3,1.2v-1.5l4.7-1.7h0.3V347.9z"/>
			<path class="st6" d="M556,338.5c0,0.6-0.2,1.2-0.5,1.7s-0.8,0.9-1.4,1.2c0.7,0.3,1.2,0.7,1.6,1.3s0.6,1.2,0.6,1.9
				c0,1.1-0.4,2-1.1,2.6s-1.7,1-2.9,1c-1.2,0-2.2-0.3-3-1c-0.7-0.7-1.1-1.5-1.1-2.6c0-0.7,0.2-1.3,0.6-1.9s0.9-1,1.6-1.3
				c-0.6-0.3-1-0.7-1.3-1.2s-0.5-1.1-0.5-1.7c0-1.1,0.3-1.9,1-2.6s1.6-0.9,2.7-0.9c1.1,0,2,0.3,2.7,0.9S556,337.4,556,338.5z
				 M554.7,344.4c0-0.7-0.2-1.3-0.7-1.7s-1-0.7-1.8-0.7s-1.3,0.2-1.8,0.7s-0.7,1-0.7,1.8s0.2,1.3,0.6,1.7s1,0.6,1.8,0.6
				c0.8,0,1.4-0.2,1.8-0.6S554.7,345.2,554.7,344.4z M552.3,336.3c-0.6,0-1.2,0.2-1.6,0.6c-0.4,0.4-0.6,0.9-0.6,1.6
				c0,0.7,0.2,1.2,0.6,1.6c0.4,0.4,0.9,0.6,1.6,0.6s1.2-0.2,1.6-0.6c0.4-0.4,0.6-0.9,0.6-1.6s-0.2-1.2-0.6-1.6
				S552.9,336.3,552.3,336.3z"/>
		</g>
		<g class="st5">
			<path class="st6" d="M572.3,347.9h-1.6v-10.8l-3.3,1.2v-1.5l4.7-1.7h0.3V347.9z"/>
			<path class="st6" d="M583.3,342.3c-0.3,0.4-0.7,0.7-1.2,1s-1,0.4-1.6,0.4c-0.7,0-1.4-0.2-1.9-0.5s-1-0.9-1.3-1.5
				c-0.3-0.7-0.4-1.4-0.4-2.2c0-0.9,0.2-1.6,0.5-2.3s0.8-1.2,1.4-1.6s1.3-0.5,2.1-0.5c1.3,0,2.3,0.5,3,1.4s1.1,2.2,1.1,3.9v0.5
				c0,2.5-0.5,4.3-1.5,5.5c-1,1.1-2.5,1.7-4.5,1.8h-0.3v-1.4h0.3c1.3,0,2.4-0.4,3.1-1C582.8,344.8,583.2,343.8,583.3,342.3z
				 M580.8,342.3c0.5,0,1-0.2,1.5-0.5s0.8-0.7,1-1.2v-0.7c0-1.1-0.2-1.9-0.7-2.6s-1-1-1.8-1c-0.7,0-1.3,0.3-1.7,0.8
				s-0.7,1.3-0.7,2.2c0,0.9,0.2,1.6,0.6,2.2S580.1,342.3,580.8,342.3z"/>
		</g>
	</g>
	<g class="st5">
		<path class="st6" d="M14.6,223.2v7.1l4.5,1.6v2.3L2,227.7v-2l17.1-6.5v2.3L14.6,223.2z M12.7,229.6v-5.8l-8,2.9L12.7,229.6z"/>
		<path class="st6" d="M6.4,215.2l1.4-0.1c-1.1-0.9-1.6-2.2-1.6-3.8c0-1.8,0.7-3,2-3.6c-0.6-0.4-1.1-1-1.5-1.6s-0.6-1.5-0.6-2.4
			c0-2.8,1.5-4.2,4.4-4.2H19v2.2h-8.4c-0.9,0-1.6,0.2-2,0.6S8,203.4,8,204.4c0,0.8,0.2,1.5,0.7,2s1.1,0.8,1.9,0.9H19v2.2h-8.3
			c-1.8,0-2.8,0.9-2.8,2.7c0,1.4,0.6,2.4,1.8,2.9H19v2.2H6.4V215.2z"/>
		<path class="st6" d="M12.8,185.5c1.9,0,3.5,0.4,4.7,1.3s1.8,2.1,1.8,3.6c0,1.5-0.5,2.8-1.5,3.6h6.1v2.2H6.4v-2l1.4-0.1
			c-1.1-0.9-1.6-2.1-1.6-3.7c0-1.5,0.6-2.7,1.7-3.6s2.7-1.3,4.8-1.3H12.8z M12.6,187.7c-1.4,0-2.6,0.3-3.4,0.9S8,190,8,191.1
			c0,1.3,0.6,2.3,1.7,3h6.1c1.2-0.6,1.7-1.6,1.7-3c0-1-0.4-1.9-1.2-2.5S14.2,187.7,12.6,187.7z"/>
		<path class="st6" d="M19,180.4v2.2H1v-2.2H19z"/>
		<path class="st6" d="M3,176.9c-0.4,0-0.6-0.1-0.9-0.3s-0.4-0.5-0.4-1s0.1-0.7,0.4-1s0.5-0.3,0.9-0.3s0.6,0.1,0.9,0.3
			s0.4,0.5,0.4,1s-0.1,0.7-0.4,1S3.3,176.9,3,176.9z M19,174.6v2.2H6.4v-2.2H19z"/>
		<path class="st6" d="M3.3,168.2h3.1v-2.4H8v2.4h7.9c0.5,0,0.9-0.1,1.1-0.3c0.3-0.2,0.4-0.6,0.4-1.1c0-0.2,0-0.6-0.1-1H19
			c0.2,0.6,0.2,1.1,0.2,1.7c0,1-0.3,1.7-0.9,2.2s-1.4,0.7-2.5,0.7H8v2.3H6.4v-2.3H3.3V168.2z"/>
		<path class="st6" d="M17.8,155.4c1,0.8,1.5,2.1,1.5,3.7c0,1.4-0.4,2.4-1.2,3.1s-1.9,1.1-3.5,1.1H6.4v-2.2h8.2
			c1.9,0,2.9-0.8,2.9-2.3c0-1.7-0.6-2.8-1.9-3.3H6.4v-2.2H19v2.1L17.8,155.4z"/>
		<path class="st6" d="M12.6,150.6c-1.9,0-3.5-0.5-4.7-1.4s-1.8-2.1-1.8-3.6c0-1.5,0.5-2.7,1.5-3.5H1v-2.2h18v2l-1.4,0.1
			c1.1,0.9,1.6,2.1,1.6,3.6c0,1.5-0.6,2.7-1.8,3.6s-2.8,1.4-4.7,1.4H12.6z M12.8,148.4c1.4,0,2.6-0.3,3.4-0.9s1.2-1.4,1.2-2.5
			c0-1.4-0.6-2.4-1.9-3H9.8c-1.2,0.6-1.8,1.6-1.8,3c0,1.1,0.4,1.9,1.2,2.5S11.2,148.4,12.8,148.4z"/>
		<path class="st6" d="M19.3,131.2c0,1.7-0.6,3.1-1.7,4.2s-2.6,1.6-4.5,1.6h-0.4c-1.3,0-2.4-0.2-3.4-0.7s-1.8-1.2-2.3-2
			s-0.8-1.8-0.8-2.8c0-1.6,0.5-2.9,1.6-3.8s2.6-1.4,4.7-1.4h0.9v8.6c1.2,0,2.3-0.4,3-1.1s1.2-1.6,1.2-2.7c0-0.8-0.2-1.4-0.5-1.9
			s-0.7-1-1.2-1.4l1-1.3C18.5,127.5,19.3,129.1,19.3,131.2z M7.9,131.5c0,0.9,0.3,1.6,1,2.2s1.5,1,2.7,1.1v-6.4h-0.2
			c-1.1,0.1-2,0.4-2.6,0.9S7.9,130.6,7.9,131.5z"/>
	</g>
	<g class="st5">
		<path class="st6" d="M273.4,381.6h-2.3v-7.9h-8.6v7.9h-2.2v-17.1h2.2v7.3h8.6v-7.3h2.3V381.6z"/>
		<path class="st6" d="M284.9,381.6c-0.1-0.2-0.2-0.7-0.3-1.3c-1,1-2.2,1.6-3.6,1.6c-1.2,0-2.3-0.4-3.1-1.1s-1.2-1.6-1.2-2.7
			c0-1.3,0.5-2.3,1.5-3.1s2.4-1.1,4.2-1.1h2.1v-1c0-0.8-0.2-1.4-0.7-1.8s-1.1-0.7-2-0.7c-0.8,0-1.4,0.2-1.9,0.6s-0.8,0.9-0.8,1.4
			h-2.2c0-0.6,0.2-1.2,0.7-1.8s1.1-1.1,1.8-1.4s1.6-0.5,2.5-0.5c1.5,0,2.6,0.4,3.4,1.1s1.3,1.7,1.3,3v5.8c0,1.2,0.1,2.1,0.4,2.8v0.2
			H284.9z M281.3,379.9c0.7,0,1.3-0.2,1.9-0.5s1.1-0.8,1.3-1.4v-2.6h-1.7c-2.7,0-4,0.8-4,2.3c0,0.7,0.2,1.2,0.7,1.6
			S280.6,379.9,281.3,379.9z"/>
		<path class="st6" d="M296.2,370.9c-0.3-0.1-0.7-0.1-1.1-0.1c-1.4,0-2.4,0.6-2.9,1.8v9h-2.2v-12.7h2.1l0,1.5c0.7-1.1,1.7-1.7,3-1.7
			c0.4,0,0.7,0.1,1,0.2V370.9z"/>
		<path class="st6" d="M300.3,368.9l0.1,1.4c0.9-1.1,2.2-1.6,3.8-1.6c1.8,0,3,0.7,3.6,2c0.4-0.6,1-1.1,1.6-1.5s1.5-0.6,2.4-0.6
			c2.8,0,4.2,1.5,4.2,4.4v8.5h-2.2v-8.4c0-0.9-0.2-1.6-0.6-2s-1.1-0.7-2.1-0.7c-0.8,0-1.5,0.2-2,0.7s-0.8,1.1-0.9,1.9v8.4H306v-8.3
			c0-1.8-0.9-2.8-2.7-2.8c-1.4,0-2.4,0.6-2.9,1.8v9.3h-2.2v-12.7H300.3z"/>
		<path class="st6" d="M318.7,375.1c0-1.2,0.2-2.4,0.7-3.4s1.2-1.8,2-2.3s1.9-0.8,3-0.8c1.7,0,3.1,0.6,4.2,1.8s1.6,2.8,1.6,4.8v0.2
			c0,1.2-0.2,2.3-0.7,3.3s-1.1,1.7-2,2.3s-1.9,0.8-3,0.8c-1.7,0-3.1-0.6-4.2-1.8s-1.6-2.8-1.6-4.7V375.1z M320.9,375.4
			c0,1.4,0.3,2.5,1,3.4s1.5,1.3,2.6,1.3c1.1,0,2-0.4,2.6-1.3s1-2.1,1-3.6c0-1.4-0.3-2.5-1-3.4s-1.5-1.3-2.6-1.3
			c-1.1,0-1.9,0.4-2.6,1.3S320.9,373.8,320.9,375.4z"/>
		<path class="st6" d="M335,368.9l0.1,1.6c1-1.2,2.2-1.8,3.8-1.8c2.7,0,4,1.5,4.1,4.5v8.4h-2.2v-8.4c0-0.9-0.2-1.6-0.6-2
			s-1-0.7-1.9-0.7c-0.7,0-1.3,0.2-1.9,0.6s-0.9,0.9-1.2,1.5v9h-2.2v-12.7H335z"/>
		<path class="st6" d="M346.2,365.6c0-0.4,0.1-0.6,0.3-0.9s0.5-0.4,1-0.4s0.7,0.1,1,0.4s0.3,0.5,0.3,0.9s-0.1,0.6-0.3,0.9
			s-0.5,0.4-1,0.4s-0.7-0.1-1-0.4S346.2,365.9,346.2,365.6z M348.5,381.6h-2.2v-12.7h2.2V381.6z"/>
		<path class="st6" d="M357.1,380.1c0.8,0,1.4-0.2,2-0.7s0.9-1.1,1-1.8h2.1c0,0.7-0.3,1.4-0.8,2.1s-1.1,1.2-1.8,1.6
			s-1.6,0.6-2.4,0.6c-1.7,0-3.1-0.6-4.1-1.7s-1.5-2.7-1.5-4.7V375c0-1.2,0.2-2.3,0.7-3.3s1.1-1.7,2-2.2s1.8-0.8,3-0.8
			c1.4,0,2.6,0.4,3.5,1.3s1.4,2,1.5,3.3h-2.1c-0.1-0.8-0.4-1.5-0.9-2s-1.2-0.8-2.1-0.8c-1.1,0-2,0.4-2.6,1.2s-0.9,1.9-0.9,3.4v0.4
			c0,1.5,0.3,2.6,0.9,3.4S356,380.1,357.1,380.1z"/>
		<path class="st6" d="M372,378.2c0-0.6-0.2-1-0.7-1.4s-1.2-0.6-2.3-0.8s-2-0.5-2.6-0.8s-1.1-0.7-1.4-1.2s-0.5-1-0.5-1.6
			c0-1,0.4-1.9,1.3-2.6s2-1.1,3.4-1.1c1.4,0,2.6,0.4,3.5,1.1s1.3,1.7,1.3,2.8h-2.2c0-0.6-0.3-1.1-0.8-1.5s-1.1-0.6-1.9-0.6
			c-0.8,0-1.4,0.2-1.9,0.5s-0.7,0.8-0.7,1.3c0,0.5,0.2,0.9,0.6,1.2s1.2,0.5,2.2,0.8s2,0.5,2.6,0.9s1.2,0.7,1.5,1.2s0.5,1,0.5,1.7
			c0,1.1-0.5,2-1.4,2.7s-2.1,1-3.5,1c-1,0-1.9-0.2-2.7-0.5s-1.4-0.9-1.8-1.5s-0.7-1.3-0.7-2.1h2.2c0,0.7,0.3,1.3,0.9,1.7
			s1.3,0.6,2.2,0.6c0.8,0,1.5-0.2,2-0.5S372,378.8,372,378.2z"/>
	</g>
</g>
</svg>
