<?xml version="1.0" encoding="UTF-8"?>
<svg xmlns="http://www.w3.org/2000/svg" viewBox="0 0 1991.7 743.4">
  <defs>
    <style>
      .cls-1, .cls-2, .cls-3, .cls-4 {
        stroke: #d85648;
        stroke-width: 6px;
      }

      .cls-1, .cls-2, .cls-3, .cls-4, .cls-5 {
        fill: none;
      }

      .cls-1, .cls-2, .cls-4, .cls-5 {
        stroke-miterlimit: 10;
      }

      .cls-1, .cls-3, .cls-4 {
        stroke-linecap: round;
      }

      .cls-3 {
        stroke-linejoin: round;
      }

      .cls-6, .cls-7 {
        fill: #c9d1d9;
      }

      .cls-4 {
        opacity: .89;
      }

      .cls-5 {
        stroke: #c9d1d9;
        stroke-width: 2px;
      }

      .cls-7 {
        font-family: Roboto-Regular, Roboto;
        font-size: 48px;
      }
    </style>
  </defs>
  <g id="Ebene_5" data-name="Ebene 5">
    <line class="cls-5" x1="2.7" y1="546.3" x2="456.3" y2="546.3"/>
    <line class="cls-5" x1="506.7" y1="546.3" x2="960.3" y2="546.3"/>
    <line class="cls-5" x1="1010.7" y1="546.3" x2="1464.3" y2="546.3"/>
    <line class="cls-5" x1="1514.7" y1="546.3" x2="1968.3" y2="546.3"/>
  </g>
  <g id="Ebene_4" data-name="Ebene 4">
    <text class="cls-7" transform="translate(1642.61 727.2)"><tspan x="0" y="0">20% (1:5)</tspan></text>
    <text class="cls-7" transform="translate(1138.62 727.2)"><tspan x="0" y="0">25% (1:4)</tspan></text>
    <text class="cls-7" transform="translate(602.95 727.2)"><tspan x="0" y="0">33,33% (1:3)</tspan></text>
    <text class="cls-7" transform="translate(130.61 727.2)"><tspan x="0" y="0">50% (1:2)</tspan></text>
    <polyline class="cls-2" points="1956.6 652.96 1612.44 652.96 1612.44 438.32 1526.4 438.32 1526.4 654.3"/>
    <polyline class="cls-2" points="444.6 652.51 229.5 652.51 229.5 438.32 14.4 438.32 14.4 652.51"/>
    <polyline class="cls-1" points="518.4 652.51 518.4 438.32 661.8 438.32 661.8 652.51 948.6 652.51"/>
    <polyline class="cls-4" points="1022.4 652.51 1022.4 438.32 1129.95 438.32 1129.95 652.51 1452.6 652.51"/>
    <g>
      <line class="cls-3" x1="905.21" y1="138.69" x2="905.21" y2="294.3"/>
      <line class="cls-3" x1="890.27" y1="131.91" x2="890.27" y2="294.3"/>
      <line class="cls-3" x1="860.41" y1="124.72" x2="860.41" y2="294.3"/>
      <line class="cls-3" x1="845.47" y1="121.21" x2="845.47" y2="294.3"/>
      <line class="cls-3" x1="815.61" y1="117.01" x2="815.61" y2="294.3"/>
      <line class="cls-3" x1="800.67" y1="115.74" x2="800.67" y2="294.3"/>
      <line class="cls-3" x1="770.81" y1="114.39" x2="770.81" y2="294.3"/>
      <line class="cls-3" x1="755.87" y1="113.14" x2="755.87" y2="294.3"/>
      <line class="cls-3" x1="726.01" y1="111.62" x2="726.01" y2="294.3"/>
      <line class="cls-3" x1="711.07" y1="110.37" x2="711.07" y2="294.3"/>
      <line class="cls-3" x1="681.21" y1="108.99" x2="681.21" y2="294.3"/>
      <line class="cls-3" x1="666.27" y1="107.98" x2="666.27" y2="294.3"/>
      <line class="cls-3" x1="636.41" y1="106.93" x2="636.41" y2="294.3"/>
      <line class="cls-3" x1="621.47" y1="104.04" x2="621.47" y2="294.3"/>
      <line class="cls-3" x1="591.61" y1="99.54" x2="591.61" y2="294.3"/>
      <line class="cls-3" x1="576.67" y1="95.4" x2="576.67" y2="294.3"/>
      <line class="cls-3" x1="546.81" y1="85.94" x2="546.81" y2="294.3"/>
      <line class="cls-3" x1="531.9" y1="76.97" x2="531.9" y2="294.3"/>
    </g>
    <g>
      <polyline class="cls-5" points="963.28 297 514.8 297 514.8 56.42"/>
      <polygon class="cls-6" points="959.32 291.19 981 297 959.32 302.81 959.32 291.19"/>
      <polygon class="cls-6" points="520.61 60.38 514.8 38.7 508.99 60.38 520.61 60.38"/>
    </g>
    <g>
      <line class="cls-3" x1="1035.9" y1="76.97" x2="1035.9" y2="294.3"/>
      <line class="cls-3" x1="1050.81" y1="82.76" x2="1050.81" y2="294.3"/>
      <line class="cls-3" x1="1065.74" y1="95.7" x2="1065.74" y2="294.3"/>
      <line class="cls-3" x1="1095.68" y1="105.14" x2="1095.68" y2="294.3"/>
      <line class="cls-3" x1="1110.54" y1="102.93" x2="1110.54" y2="294.3"/>
      <line class="cls-3" x1="1125.47" y1="111.47" x2="1125.47" y2="294.3"/>
      <line class="cls-3" x1="1155.34" y1="115.16" x2="1155.34" y2="294.3"/>
      <line class="cls-3" x1="1170.27" y1="110.68" x2="1170.27" y2="294.3"/>
      <line class="cls-3" x1="1185.21" y1="117.67" x2="1185.21" y2="294.3"/>
      <line class="cls-3" x1="1215.07" y1="119.53" x2="1215.07" y2="294.3"/>
      <line class="cls-3" x1="1230.01" y1="114.94" x2="1230.01" y2="294.3"/>
      <line class="cls-3" x1="1244.94" y1="122.04" x2="1244.94" y2="294.3"/>
      <line class="cls-3" x1="1274.81" y1="124.52" x2="1274.81" y2="294.3"/>
      <line class="cls-3" x1="1289.74" y1="119.67" x2="1289.74" y2="294.3"/>
      <line class="cls-3" x1="1304.67" y1="126.45" x2="1304.67" y2="294.3"/>
      <line class="cls-3" x1="1334.54" y1="130.22" x2="1334.54" y2="294.3"/>
      <line class="cls-3" x1="1349.47" y1="127.8" x2="1349.47" y2="294.3"/>
      <line class="cls-3" x1="1364.41" y1="137.24" x2="1364.41" y2="294.3"/>
      <line class="cls-3" x1="1394.27" y1="147.13" x2="1394.27" y2="294.3"/>
      <line class="cls-3" x1="1409.28" y1="150.02" x2="1409.28" y2="294.3"/>
      <line class="cls-3" x1="1424.14" y1="168.31" x2="1424.14" y2="294.3"/>
    </g>
    <g>
      <polyline class="cls-5" points="1467.28 297 1018.8 297 1018.8 56.42"/>
      <polygon class="cls-6" points="1463.32 291.19 1485 297 1463.32 302.81 1463.32 291.19"/>
      <polygon class="cls-6" points="1024.61 60.38 1018.8 38.7 1012.99 60.38 1024.61 60.38"/>
    </g>
    <g>
      <line class="cls-3" x1="1539.9" y1="76.97" x2="1539.9" y2="294.3"/>
      <line class="cls-3" x1="1569.77" y1="85.54" x2="1569.77" y2="294.3"/>
      <line class="cls-3" x1="1554.83" y1="79.35" x2="1554.83" y2="294.3"/>
      <line class="cls-3" x1="1584.7" y1="99.25" x2="1584.7" y2="294.3"/>
      <line class="cls-3" x1="1614.57" y1="104.65" x2="1614.57" y2="294.3"/>
      <line class="cls-3" x1="1644.43" y1="100.62" x2="1644.43" y2="294.3"/>
      <line class="cls-3" x1="1659.37" y1="112.17" x2="1659.37" y2="294.3"/>
      <line class="cls-3" x1="1629.5" y1="99.38" x2="1629.5" y2="294.3"/>
      <line class="cls-3" x1="1689.23" y1="113.75" x2="1689.23" y2="294.3"/>
      <line class="cls-3" x1="1704.17" y1="108.47" x2="1704.17" y2="294.3"/>
      <line class="cls-3" x1="1719.1" y1="108.47" x2="1719.1" y2="294.3"/>
      <line class="cls-3" x1="1734.03" y1="118.69" x2="1734.03" y2="294.3"/>
      <line class="cls-3" x1="1763.9" y1="119.27" x2="1763.9" y2="294.3"/>
      <line class="cls-3" x1="1778.83" y1="114.12" x2="1778.83" y2="294.3"/>
      <line class="cls-3" x1="1793.96" y1="113.28" x2="1793.96" y2="294.3"/>
      <line class="cls-3" x1="1808.7" y1="122.96" x2="1808.7" y2="294.3"/>
      <line class="cls-3" x1="1838.57" y1="123.45" x2="1838.57" y2="294.3"/>
      <line class="cls-3" x1="1853.5" y1="118.95" x2="1853.5" y2="294.3"/>
      <line class="cls-3" x1="1868.43" y1="117.25" x2="1868.43" y2="294.3"/>
      <line class="cls-3" x1="1883.2" y1="126.16" x2="1883.2" y2="294.3"/>
      <line class="cls-3" x1="1913.23" y1="126.53" x2="1913.23" y2="294.3"/>
      <line class="cls-3" x1="1928.17" y1="121.47" x2="1928.17" y2="294.3"/>
    </g>
    <g>
      <polyline class="cls-5" points="1971.28 297 1522.8 297 1522.8 56.42"/>
      <polygon class="cls-6" points="1967.32 291.19 1989 297 1967.32 302.81 1967.32 291.19"/>
      <polygon class="cls-6" points="1528.61 60.38 1522.8 38.7 1516.99 60.38 1528.61 60.38"/>
    </g>
    <line class="cls-3" x1="27.9" y1="76.97" x2="27.9" y2="294.3"/>
    <line class="cls-3" x1="57.77" y1="91.3" x2="57.77" y2="294.3"/>
    <line class="cls-3" x1="87.65" y1="99.34" x2="87.65" y2="294.3"/>
    <line class="cls-3" x1="117.52" y1="105.76" x2="117.52" y2="294.3"/>
    <line class="cls-3" x1="147.4" y1="111.63" x2="147.4" y2="294.3"/>
    <line class="cls-3" x1="177.27" y1="112.75" x2="177.27" y2="294.3"/>
    <line class="cls-3" x1="207.14" y1="115.22" x2="207.14" y2="294.3"/>
    <line class="cls-3" x1="237.02" y1="117.59" x2="237.02" y2="294.3"/>
    <line class="cls-3" x1="266.89" y1="121.09" x2="266.89" y2="294.3"/>
    <line class="cls-3" x1="296.77" y1="122.44" x2="296.77" y2="294.3"/>
    <line class="cls-3" x1="326.64" y1="122.93" x2="326.64" y2="294.3"/>
    <line class="cls-3" x1="356.51" y1="124.29" x2="356.51" y2="294.3"/>
    <line class="cls-3" x1="386.39" y1="126.72" x2="386.39" y2="294.3"/>
    <line class="cls-3" x1="416.17" y1="128.75" x2="416.17" y2="294.3"/>
    <g>
      <polyline class="cls-5" points="459.28 297 10.8 297 10.8 56.42"/>
      <polygon class="cls-6" points="455.32 291.19 477 297 455.32 302.81 455.32 291.19"/>
      <polygon class="cls-6" points="16.61 60.38 10.8 38.7 4.99 60.38 16.61 60.38"/>
    </g>
  </g>
</svg>