<?xml version="1.0" encoding="UTF-8"?>
<svg xmlns="http://www.w3.org/2000/svg" viewBox="0 0 1908 532.8">
  <defs>
    <style>
      .cls-1 {
        letter-spacing: 0em;
      }

      .cls-2 {
        letter-spacing: -.08em;
      }

      .cls-3 {
        letter-spacing: -.07em;
      }

      .cls-4 {
        fill: #c5cdd5;
      }

      .cls-4, .cls-5 {
        font-size: 36px;
      }

      .cls-4, .cls-5, .cls-6 {
        font-family: SchibstedGrotesk-Regular, 'Schibsted Grotesk';
        font-variation-settings: 'wght' 400;
      }

      .cls-5, .cls-6 {
        fill: #c6ced6;
      }

      .cls-7 {
        stroke-width: 1.5px;
      }

      .cls-7, .cls-8, .cls-9, .cls-10, .cls-11, .cls-12, .cls-13 {
        fill: none;
      }

      .cls-7, .cls-8, .cls-9, .cls-10, .cls-12, .cls-13 {
        stroke-miterlimit: 10;
      }

      .cls-7, .cls-8, .cls-10, .cls-13 {
        stroke: #c9d1d9;
      }

      .cls-8, .cls-10 {
        stroke-width: 3px;
      }

      .cls-14 {
        letter-spacing: .02em;
      }

      .cls-15 {
        letter-spacing: -.01em;
      }

      .cls-16 {
        letter-spacing: 0em;
      }

      .cls-17 {
        letter-spacing: .03em;
      }

      .cls-18 {
        letter-spacing: 0em;
      }

      .cls-19 {
        letter-spacing: .02em;
      }

      .cls-9 {
        stroke-width: 5.67px;
      }

      .cls-9, .cls-10, .cls-13 {
        opacity: .8;
      }

      .cls-9, .cls-12 {
        stroke: #d85648;
      }

      .cls-20 {
        letter-spacing: -.12em;
      }

      .cls-21 {
        letter-spacing: -.03em;
      }

      .cls-22 {
        letter-spacing: -.03em;
      }

      .cls-23 {
        letter-spacing: -.04em;
      }

      .cls-11 {
        stroke: rgba(201, 209, 217, .2);
        stroke-miterlimit: 20;
        stroke-width: 1.98px;
      }

      .cls-24 {
        letter-spacing: -.01em;
      }

      .cls-25 {
        letter-spacing: 0em;
      }

      .cls-26 {
        letter-spacing: .03em;
      }

      .cls-27 {
        letter-spacing: 0em;
      }

      .cls-6 {
        font-size: 48px;
      }

      .cls-28 {
        letter-spacing: -.02em;
      }

      .cls-12 {
        stroke-width: 3.97px;
      }

      .cls-29 {
        letter-spacing: 0em;
      }

      .cls-30 {
        letter-spacing: 0em;
      }

      .cls-31 {
        letter-spacing: -.03em;
      }

      .cls-32 {
        letter-spacing: 0em;
      }

      .cls-33 {
        letter-spacing: .01em;
      }

      .cls-34 {
        letter-spacing: -.04em;
      }

      .cls-35 {
        letter-spacing: .02em;
      }

      .cls-36 {
        letter-spacing: 0em;
      }

      .cls-37 {
        letter-spacing: 0em;
      }

      .cls-38 {
        letter-spacing: 0em;
      }

      .cls-39 {
        letter-spacing: -.03em;
      }

      .cls-40 {
        letter-spacing: -.03em;
      }
    </style>
  </defs>
  <g id="Fenster">
    <path class="cls-11" d="m748.8,108v360"/>
    <path class="cls-11" d="m590.4,108v360"/>
    <path class="cls-11" d="m432,108v360"/>
    <path class="cls-11" d="m273.6,108v360"/>
    <path class="cls-11" d="m907.2,198H115.2"/>
    <path class="cls-11" d="m907.2,288H115.2"/>
    <path class="cls-11" d="m907.2,378H115.2"/>
    <rect class="cls-8" x="115.2" y="108" width="792" height="360"/>
  </g>
  <g id="Graph">
    <polyline class="cls-12" points="903.6 464.4 705.62 464.4 707.4 464.4 707.4 111.6 511.2 111.6 511.2 464.4 313.22 464.4 315 464.4 315 111.6 118.8 111.6 118.8 464.4"/>
  </g>
  <g id="Fenster_Neu">
    <line class="cls-13" x1="1088.53" y1="108" x2="1088.53" y2="468"/>
    <line class="cls-13" x1="1112.3" y1="108" x2="1112.3" y2="468"/>
    <line class="cls-13" x1="1133.1" y1="108" x2="1133.1" y2="468"/>
    <line class="cls-13" x1="1149.44" y1="108" x2="1149.44" y2="468"/>
    <line class="cls-13" x1="1164.3" y1="108" x2="1164.3" y2="468"/>
    <line class="cls-7" x1="1179.16" y1="108" x2="1179.16" y2="468"/>
    <line class="cls-13" x1="1268.31" y1="108" x2="1268.31" y2="468"/>
    <line class="cls-13" x1="1320.31" y1="108" x2="1320.31" y2="468"/>
    <line class="cls-13" x1="1357.45" y1="108" x2="1357.45" y2="468"/>
    <line class="cls-13" x1="1385.68" y1="108" x2="1385.68" y2="468"/>
    <line class="cls-13" x1="1409.46" y1="108" x2="1409.46" y2="468"/>
    <line class="cls-13" x1="1430.26" y1="108" x2="1430.26" y2="468"/>
    <line class="cls-13" x1="1446.6" y1="108" x2="1446.6" y2="468"/>
    <line class="cls-13" x1="1461.46" y1="108" x2="1461.46" y2="468"/>
    <line class="cls-7" x1="1476.32" y1="108" x2="1476.32" y2="468"/>
    <line class="cls-13" x1="1565.46" y1="108" x2="1565.46" y2="468"/>
    <line class="cls-13" x1="1617.47" y1="108" x2="1617.47" y2="468"/>
    <line class="cls-13" x1="1654.61" y1="108" x2="1654.61" y2="468"/>
    <line class="cls-13" x1="1682.84" y1="108" x2="1682.84" y2="468"/>
    <line class="cls-13" x1="1706.61" y1="108" x2="1706.61" y2="468"/>
    <line class="cls-13" x1="1727.42" y1="108" x2="1727.42" y2="468"/>
    <line class="cls-13" x1="1743.76" y1="108" x2="1743.76" y2="468"/>
    <line class="cls-13" x1="1758.62" y1="108" x2="1758.62" y2="468"/>
    <line class="cls-7" x1="1773.47" y1="108" x2="1773.47" y2="468"/>
    <line class="cls-13" x1="1862.62" y1="108" x2="1862.62" y2="468"/>
    <line class="cls-7" x1="1080" y1="198" x2="1872" y2="198"/>
    <line class="cls-7" x1="1080" y1="288" x2="1872" y2="288"/>
    <line class="cls-7" x1="1080" y1="378" x2="1872" y2="378"/>
    <line class="cls-13" x1="1080" y1="243.03" x2="1872" y2="243.03"/>
    <line class="cls-13" x1="1080" y1="333.03" x2="1872" y2="333.03"/>
    <line class="cls-13" x1="1080" y1="423.03" x2="1872" y2="423.03"/>
    <line class="cls-13" x1="1080" y1="153" x2="1872" y2="153"/>
    <rect class="cls-10" x="1080" y="108" width="792" height="360"/>
  </g>
  <g id="Spectrum">
    <g>
      <path class="cls-9" d="m1821.02,468c-.1-31.9-.21-71.47-.31-95.2-.15-32.34-.3-58.93-.44-68.28-.04-2.72-.39,6.08-.44,12.16-.15,20.91-.29,78.92-.44,113.3-.06,12.91-.11,25.73-.17,38.02"/>
      <path class="cls-9" d="m1787.67,468c-.12-20.96-.24-44.48-.36-65.84-.19-33.29-.37-83.79-.56-102-.03-3.65-.52-9.56-.56-7.28-.19,11.38-.37,43.49-.56,75.56-.16,26.59-.32,68.85-.47,99.56"/>
      <path class="cls-9" d="m1796.86,468c-.12-24.05-.25-52.04-.36-74.69-.17-32.57-.35-76.42-.52-92.19-.01-1.25-.51-3.49-.52-2.42-.18,13.51-.35,51.31-.53,83.47-.13,24.39-.26,58.44-.4,85.84"/>
      <path class="cls-9" d="m1834.9,468c-.09-37.64-.18-82.09-.26-105.43-.11-27.57-.29-50.73-.38-55.14-.05-2.2-.34,11.05-.39,22.1-.12,26.42-.25,98.85-.38,138.47"/>
      <path class="cls-9" d="m1805.43,468c-.12-26.77-.23-59.01-.36-82.39-.16-32.16-.32-69.96-.49-83.47-.01-1.07-.48,1.18-.49,2.42-.16,15.77-.33,59.62-.49,92.19-.11,21.58-.22,48-.33,71.24"/>
      <path class="cls-9" d="m1813.46,468c-.11-29.33-.22-65.48-.33-89.17-.16-32.07-.31-64.18-.47-75.56-.03-2.28-.43,3.63-.46,7.28-.16,18.21-.31,68.7-.47,102-.08,17.89-.16,37.3-.25,55.45"/>
      <path class="cls-9" d="m1864.31,468c-.07-44.45-.15-99.69-.22-123.1-.04-13.6-.27-28.74-.31-27.2-.07,2.42-.24,24.55-.32,49.1-.06,21.47-.11,62.57-.18,101.2"/>
      <path class="cls-9" d="m1869.5,468c-.08-40.85-.17-101.8-.26-125.56-.03-11.05-.26-24.31-.3-22.1-.07,4.41-.21,27.57-.3,55.14-.06,20.72-.12,58.06-.18,92.52"/>
      <path class="cls-9" d="m1858.89,468c-.06-47.09-.13-97.16-.19-120.32-.04-16.21-.28-33.16-.32-32.42-.05.93-.27,21.67-.33,43.33-.06,22.18-.11,65.99-.17,109.41"/>
      <path class="cls-9" d="m1841.32,468c-.08-40.98-.15-86.71-.23-109.78-.08-24.55-.29-46.68-.37-49.1-.05-1.53-.32,13.6-.37,27.2-.09,24.94-.19,86.02-.28,131.68"/>
      <path class="cls-9" d="m1853.2,468c-.03-50.08-.07-92.92-.1-117.19-.03-18.89-.31-37.79-.34-37.79s-.31,18.89-.34,37.79c-.03,24.27-.07,67.11-.1,117.19"/>
      <path class="cls-9" d="m1847.42,468c-.06-44.79-.13-90.78-.2-113.69-.05-21.67-.29-42.4-.35-43.33-.04-.74-.31,16.21-.35,32.42-.07,23.86-.14,76.3-.21,124.6"/>
      <path class="cls-9" d="m1828.15,468c-.1-34.64-.2-77-.3-100.59-.13-30.76-.28-54.63-.4-61.51-.05-2.64-.36,8.55-.42,17.1-.14,23.98-.28,90.86-.41,126.78-.02,6.29-.05,12.35-.07,18.22"/>
      <path class="cls-9" d="m1617.51,468c-.51-13.35-1.04-27.86-1.55-52.5-.7-33.87-1.4-103.81-2.12-136.88-.66-30.77-1.48-54.62-2.15-61.51-.26-2.67-1.91,8.46-2.18,17.1-.73,23.98-1.47,90.86-2.21,126.78-.76,35.92-1.5,64.84-2.27,88.75-.21,6.73-.43,12.73-.64,18.26"/>
      <path class="cls-9" d="m1577.69,468c-.17-2.99-.34-6.11-.5-9.38-.95-18.25-1.89-32.68-2.85-64.37-.97-31.69-1.94-93.42-2.93-125.76-.98-32.34-1.98-58.93-2.98-68.28-.31-2.83-2.74,5.84-3.06,12.16-1.02,20.91-2.06,78.92-3.13,113.3-1.05,34.38-2.12,68.15-3.2,93-.93,21.36-1.87,35.51-2.82,49.33"/>
      <path class="cls-9" d="m1648.02,468c-.21-8.75-.41-18.97-.61-31.66-.54-36.67-1.1-117.08-1.65-151.52-.45-27.58-1.22-50.73-1.68-55.14-.22-2.21-1.47,11.01-1.69,22.1-.57,27.64-1.15,105.62-1.72,143.73-.47,31.34-.95,52.98-1.43,72.5"/>
      <path class="cls-9" d="m1672.81,468c-.03-2.09-.05-4.25-.08-6.48-.46-40.57-.9-135.68-1.36-172.64-.31-24.56-1.07-46.68-1.37-49.1-.2-1.54-1.2,13.58-1.39,27.2-.47,32.37-.94,125.6-1.4,167-.15,13.42-.31,24.46-.46,34.02"/>
      <path class="cls-9" d="m1521.1,468c-1.26-11.48-2.52-23.55-3.82-38.96-1.49-17.8-3.01-32.62-4.55-62.52-1.54-29.89-3.12-84.79-4.72-116.85-1.61-32.07-3.23-64.18-4.9-75.56-.43-2.91-4.65,2.62-5.09,7.28-1.73,18.21-3.5,68.7-5.31,102-1.8,33.29-3.64,71.89-5.52,97.77-1.88,25.88-3.81,41.06-5.78,57.53-1.33,11.14-2.68,20.63-4.05,29.31"/>
      <path class="cls-9" d="m1429.21,468c-2.11-6.4-4.27-13.16-6.5-20.58-3.1-10.32-6.29-21.1-9.63-34.01-3.33-12.91-6.78-26.06-10.39-43.43-3.62-17.37-7.35-32.41-11.3-60.79-3.95-28.38-8.03-77.32-12.38-109.47-4.34-32.16-8.85-69.96-13.68-83.47-2.54-7.12-12.43-5.88-15.29,2.42-5.45,15.77-11.12,59.63-17.34,92.19-6.23,32.57-12.74,76.14-20.02,103.2-7.29,27.06-14.9,42.19-23.68,59.14-8.78,16.95-17.91,29.94-28.98,42.58-11.05,12.64-22.35,23.3-37.35,33.27-10.27,6.82-20.01,13.16-32.75,18.93"/>
      <path class="cls-9" d="m1767.02,468c-.1-13.08-.19-27.3-.29-42.84-.21-35.92-.44-102.8-.65-126.78-.08-8.56-.58-19.74-.66-17.1-.21,6.89-.47,30.75-.67,61.51-.2,29.63-.4,88.85-.6,125.21"/>
      <path class="cls-9" d="m1755.27,468c-.06-8.15-.12-17.01-.18-26.82-.24-38.11-.48-116.09-.72-143.73-.1-11.06-.63-24.31-.72-22.1-.19,4.41-.53,27.57-.72,55.14-.22,30.54-.43,97.23-.65,137.51"/>
      <path class="cls-9" d="m1742.31,468c0-1.5-.02-3.01-.03-4.57-.27-41.41-.53-134.63-.8-167-.12-13.61-.69-28.74-.8-27.2-.18,2.43-.63,24.55-.81,49.1-.22,31.1-.45,103.36-.68,149.67"/>
      <path class="cls-9" d="m1693.69,468c-.31-56.31-.62-142.08-.94-176.32-.19-21.68-.96-42.4-1.16-43.33-.16-.74-1.02,16.2-1.18,32.42-.35,35.22-.7,132.69-1.05,187.23"/>
      <path class="cls-9" d="m1777.77,468c-.11-17.33-.23-36.29-.34-55.44-.2-34.38-.4-92.39-.61-113.3-.06-6.09-.55-14.89-.61-12.16-.2,9.35-.4,35.94-.62,68.28-.18,28.31-.35,79.13-.53,112.62"/>
      <path class="cls-9" d="m1727.9,468c-.24-55.89-.48-140.49-.73-172.78-.12-16.22-.77-33.16-.88-32.42-.16.93-.74,21.66-.9,43.33-.22,31.42-.45,106.24-.67,161.87"/>
      <path class="cls-9" d="m1711.52,468c-.14-73.5-.28-141.18-.42-174.3-.07-18.9-.93-37.78-1.01-37.78-.07,0-.94,18.88-1.01,37.78-.14,33.11-.29,100.8-.43,174.3"/>
    </g>
  </g>
  <g id="Schrift">
    <text class="cls-6" transform="translate(367.13 72)"><tspan class="cls-1" x="0" y="0">T</tspan><tspan x="30.45" y="0">ime </tspan><tspan class="cls-27" x="123.66" y="0">do</tspan><tspan class="cls-29" x="180.16" y="0">m</tspan><tspan x="222.16" y="0">ain</tspan></text>
    <text class="cls-6" transform="translate(1270.47 72)"><tspan class="cls-34" x="0" y="0">F</tspan><tspan class="cls-40" x="24.75" y="0">r</tspan><tspan class="cls-19" x="42.61" y="0">e</tspan><tspan x="71.18" y="0">q</tspan><tspan class="cls-36" x="99.49" y="0">u</tspan><tspan x="127.27" y="0">en</tspan><tspan class="cls-38" x="182.67" y="0">c</tspan><tspan x="208.73" y="0">y </tspan><tspan class="cls-27" x="247.22" y="0">do</tspan><tspan class="cls-29" x="303.73" y="0">m</tspan><tspan x="345.73" y="0">ain</tspan></text>
    <text class="cls-5" transform="translate(32.4 369.84) rotate(-90)"><tspan x="0" y="0">Am</tspan><tspan class="cls-32" x="56.62" y="0">p</tspan><tspan class="cls-16" x="77.91" y="0">l</tspan><tspan class="cls-37" x="87.45" y="0">i</tspan><tspan class="cls-25" x="96.31" y="0">t</tspan><tspan class="cls-18" x="108.42" y="0">u</tspan><tspan class="cls-36" x="129.38" y="0">d</tspan><tspan x="150.5" y="0">e</tspan></text>
    <text class="cls-5" transform="translate(46.8 479.07)"><tspan class="cls-3" x="0" y="0">-</tspan><tspan x="14.92" y="0">1</tspan><tspan class="cls-22" x="27.28" y="0">.</tspan><tspan x="36.28" y="0">0</tspan></text>
    <text class="cls-5" transform="translate(57.6 119.07)"><tspan x="0" y="0">1</tspan><tspan class="cls-22" x="12.36" y="0">.</tspan><tspan x="21.36" y="0">0</tspan></text>
    <text class="cls-5" transform="translate(57.6 299.07)"><tspan class="cls-21" x="0" y="0">0</tspan><tspan class="cls-22" x="20.88" y="0">.</tspan><tspan x="29.88" y="0">0</tspan></text>
    <text class="cls-5" transform="translate(253.34 525.6)"><tspan class="cls-21" x="0" y="0">0</tspan><tspan class="cls-2" x="20.88" y="0">.</tspan><tspan x="28.16" y="0">1</tspan></text>
    <text class="cls-5" transform="translate(406.21 525.6)"><tspan class="cls-21" x="0" y="0">0</tspan><tspan x="20.88" y="0">.2</tspan></text>
    <text class="cls-5" transform="translate(564.74 525.6)"><tspan class="cls-21" x="0" y="0">0</tspan><tspan class="cls-15" x="20.88" y="0">.</tspan><tspan x="30.6" y="0">3</tspan></text>
    <text class="cls-5" transform="translate(723.4 525.6)"><tspan class="cls-21" x="0" y="0">0</tspan><tspan class="cls-39" x="20.88" y="0">.</tspan><tspan x="29.76" y="0">4</tspan></text>
    <text class="cls-5" transform="translate(881.52 525.6)"><tspan class="cls-21" x="0" y="0">0</tspan><tspan class="cls-24" x="20.88" y="0">.</tspan><tspan x="30.48" y="0">5</tspan></text>
    <text class="cls-5" transform="translate(1155.97 525.6)"><tspan x="0" y="0">10</tspan></text>
    <text class="cls-5" transform="translate(1190.34 513.61) scale(.58)"><tspan x="0" y="0">2</tspan></text>
    <text class="cls-5" transform="translate(1453.09 525.6)"><tspan x="0" y="0">10</tspan></text>
    <text class="cls-5" transform="translate(1487.46 513.61) scale(.58)"><tspan x="0" y="0">3</tspan></text>
    <text class="cls-5" transform="translate(1750.16 525.6)"><tspan x="0" y="0">10</tspan></text>
    <text class="cls-5" transform="translate(1784.52 513.61) scale(.58)"><tspan x="0" y="0">4</tspan></text>
    <text class="cls-5" transform="translate(46.8 389.07)"><tspan class="cls-30" x="0" y="0">-</tspan><tspan class="cls-21" x="17.28" y="0">0</tspan><tspan class="cls-24" x="38.16" y="0">.</tspan><tspan x="47.76" y="0">5</tspan></text>
    <text class="cls-5" transform="translate(57.6 209.07)"><tspan class="cls-21" x="0" y="0">0</tspan><tspan class="cls-24" x="20.88" y="0">.</tspan><tspan x="30.48" y="0">5</tspan></text>
    <text class="cls-5" transform="translate(89.25 525.6)"><tspan class="cls-21" x="0" y="0">0</tspan><tspan class="cls-22" x="20.88" y="0">.</tspan><tspan x="29.88" y="0">0</tspan></text>
    <text class="cls-4" transform="translate(968.1 479.07)"><tspan class="cls-28" x="0" y="0">-</tspan><tspan class="cls-33" x="17" y="0">4</tspan><tspan class="cls-26" x="38.46" y="0">8</tspan><tspan x="60.28" y="0">dB</tspan></text>
    <text class="cls-4" transform="translate(980.41 209.07)"><tspan class="cls-3" x="0" y="0">-</tspan><tspan class="cls-29" x="14.92" y="0">1</tspan><tspan x="27.37" y="0">2dB</tspan></text>
    <text class="cls-4" transform="translate(1005.56 119.07)"><tspan class="cls-14" x="0" y="0">0</tspan><tspan x="22.82" y="0">dB</tspan></text>
    <text class="cls-4" transform="translate(974.57 299.07)"><tspan class="cls-20" x="0" y="0">-</tspan><tspan class="cls-31" x="13.17" y="0">2</tspan><tspan x="32.77" y="0">4dB</tspan></text>
    <text class="cls-4" transform="translate(968.63 389.07)"><tspan class="cls-23" x="0" y="0">-</tspan><tspan class="cls-35" x="15.96" y="0">3</tspan><tspan class="cls-17" x="37.42" y="0">6</tspan><tspan x="59.75" y="0">dB</tspan></text>
  </g>
</svg>