<?xml version="1.0" encoding="utf-8"?>
<!-- Generator: Adobe Illustrator 27.4.1, SVG Export Plug-In . SVG Version: 6.00 Build 0)  -->
<svg version="1.1" id="Ebene_1" xmlns="http://www.w3.org/2000/svg" xmlns:xlink="http://www.w3.org/1999/xlink" x="0px" y="0px"
	 viewBox="0 0 612 388.8" style="enable-background:new 0 0 612 388.8;" xml:space="preserve">
<style type="text/css">
	.st0{fill:none;stroke:#D85648;stroke-width:12;stroke-miterlimit:10;}
	.st1{fill:none;stroke:#C9D1D9;stroke-width:2;stroke-miterlimit:10;}
	.st2{fill:none;stroke:#C9D1D9;stroke-miterlimit:10;}
	.st3{fill:#0D1117;stroke:#C9D1D9;stroke-miterlimit:10;}
	.st4{fill:none;stroke:#D85648;stroke-width:5;stroke-miterlimit:10;}
	.st5{fill:#C9D1D9;}
	.st6{font-family:'Roboto-Regular';}
	.st7{font-size:24px;}
	.st8{font-size:18px;}
</style>
<line class="st0" x1="57.6" y1="324" x2="57.6" y2="36"/>
<line class="st0" x1="172.8" y1="323" x2="172.8" y2="311.5"/>
<line class="st0" x1="115.2" y1="323" x2="115.2" y2="291"/>
<line class="st0" x1="230.4" y1="323" x2="230.4" y2="317.1"/>
<line class="st0" x1="288" y1="323" x2="288" y2="319.5"/>
<line class="st0" x1="345.6" y1="323" x2="345.6" y2="320.7"/>
<line class="st0" x1="403.2" y1="323" x2="403.2" y2="321.3"/>
<line class="st0" x1="460.8" y1="323" x2="460.8" y2="321.7"/>
<line class="st0" x1="518.4" y1="323" x2="518.4" y2="322"/>
<line class="st0" x1="576" y1="323" x2="576" y2="322.2"/>
<rect x="28.8" y="36" class="st1" width="576" height="288"/>
<line class="st2" x1="28.8" y1="252" x2="604.8" y2="252"/>
<line class="st2" x1="28.8" y1="180" x2="604.8" y2="180"/>
<line class="st2" x1="28.8" y1="108" x2="604.8" y2="108"/>
<line class="st2" x1="57.6" y1="35" x2="57.6" y2="323"/>
<line class="st2" x1="86.4" y1="36" x2="86.4" y2="324"/>
<line class="st2" x1="115.2" y1="36" x2="115.2" y2="324"/>
<line class="st2" x1="144" y1="36" x2="144" y2="324"/>
<line class="st2" x1="172.8" y1="36" x2="172.8" y2="324"/>
<line class="st2" x1="201.6" y1="36" x2="201.6" y2="324"/>
<line class="st2" x1="230.4" y1="36" x2="230.4" y2="324"/>
<line class="st2" x1="259.2" y1="36" x2="259.2" y2="324"/>
<line class="st2" x1="288" y1="36" x2="288" y2="324"/>
<line class="st2" x1="316.8" y1="36" x2="316.8" y2="324"/>
<line class="st2" x1="345.6" y1="36" x2="345.6" y2="324"/>
<line class="st2" x1="374.4" y1="36" x2="374.4" y2="324"/>
<line class="st2" x1="403.2" y1="36" x2="403.2" y2="324"/>
<line class="st2" x1="432" y1="36" x2="432" y2="324"/>
<line class="st2" x1="460.8" y1="36" x2="460.8" y2="324"/>
<line class="st2" x1="489.6" y1="36" x2="489.6" y2="324"/>
<line class="st2" x1="518.4" y1="36" x2="518.4" y2="324"/>
<line class="st2" x1="547.2" y1="36" x2="547.2" y2="324"/>
<line class="st2" x1="576" y1="36" x2="576" y2="324"/>
<rect x="360" y="86.4" class="st3" width="201.6" height="115.2"/>
<polyline class="st4" points="374.4,144 417.6,187.2 504,100.8 547.2,144 "/>
<g id="TEXT">
	<text transform="matrix(1 0 0 1 273.96 22.99)" class="st5 st6 st7">T</text>
	<text transform="matrix(1 0 0 1 287.4 22.99)" class="st5 st6 st7">riangle</text>
	<g>
		<text transform="matrix(1 0 0 1 52.55 347.92)" class="st5 st6 st8">1</text>
		<text transform="matrix(1 0 0 1 81.35 347.92)" class="st5 st6 st8">2</text>
		<text transform="matrix(1 0 0 1 110.15 347.92)" class="st5 st6 st8">3</text>
		<text transform="matrix(1 0 0 1 138.95 347.92)" class="st5 st6 st8">4</text>
		<text transform="matrix(1 0 0 1 167.75 347.92)" class="st5 st6 st8">5</text>
		<text transform="matrix(1 0 0 1 196.55 347.92)" class="st5 st6 st8">6</text>
		<text transform="matrix(1 0 0 1 225.35 347.92)" class="st5 st6 st8">7</text>
		<text transform="matrix(1 0 0 1 254.15 347.92)" class="st5 st6 st8">8</text>
		<text transform="matrix(1 0 0 1 282.95 347.92)" class="st5 st6 st8">9</text>
		<text transform="matrix(1 0 0 1 306.69 347.92)" class="st5 st6 st8">10</text>
		<text transform="matrix(1 0 0 1 335.49 347.92)" class="st5 st6 st8">11</text>
		<text transform="matrix(1 0 0 1 364.29 347.92)" class="st5 st6 st8">12</text>
		<text transform="matrix(1 0 0 1 393.09 347.92)" class="st5 st6 st8">13</text>
		<text transform="matrix(1 0 0 1 421.89 347.92)" class="st5 st6 st8">14</text>
		<text transform="matrix(1 0 0 1 450.6899 347.92)" class="st5 st6 st8">15</text>
		<text transform="matrix(1 0 0 1 479.49 347.92)" class="st5 st6 st8">16</text>
		<text transform="matrix(1 0 0 1 508.29 347.92)" class="st5 st6 st8">17</text>
		<text transform="matrix(1 0 0 1 537.0901 347.92)" class="st5 st6 st8">18</text>
		<text transform="matrix(1 0 0 1 565.89 347.92)" class="st5 st6 st8">19</text>
	</g>
	<text transform="matrix(6.123234e-17 -1 1 6.123234e-17 19.04 234.5596)" class="st5 st6 st7">Amplitude</text>
	<text transform="matrix(1 0 0 1 258.29 381.6)" class="st5 st6 st7">Harmonics</text>
</g>
</svg>
