<?xml version="1.0" encoding="UTF-8"?>
<svg xmlns="http://www.w3.org/2000/svg" viewBox="0 0 614.9 333.05">
  <defs>
    <style>
      .cls-1 {
        stroke: #307eef;
        stroke-linecap: round;
        stroke-linejoin: round;
        stroke-width: 3px;
      }

      .cls-1, .cls-2 {
        fill: none;
      }

      .cls-3 {
        fill: #c9d1d9;
      }

      .cls-2 {
        stroke: #c9d1d9;
        stroke-miterlimit: 10;
        stroke-width: 4px;
      }
    </style>
  </defs>
  <g id="Ebene_4" data-name="Ebene 4">
    <g id="expressions-2a3dc3f5">
      <g id="sketch-2a3dc3f5">
        <path class="cls-1" d="m611.87,8.36h0l-9.68-4.42-11.27-6.19-22.53-14.09-22.53-13.17-11.27-5.11-11.27-3.69-11.27-2.1-11.27-.48-22.53,3.29-45.07,13.1-11.27,1.94-11.27.61-11.27-.94-11.27-2.56-22.53-9.57-45.07-27.36-22.53-10.58-11.27-3.2-11.27-1.6h-11.27s-11.27,1.41-11.27,1.41l-45.07,12.75-22.53,4.3-11.27.24-11.27-1.31-11.27-2.9-11.27-4.38-22.53-12.14-22.53-13.96-22.53-12.16-11.27-4.43-11.27-3-11.27-1.47h-11.27s-22.53,3.68-22.53,3.68l-45.07,12.15-22.53,2.86-22.53-.78-22.53-2.66-22.53-1.12-45.07,4.4-22.53-.19-22.53-3.87-45.07-12.08-22.53-2.32-11.27.87-11.27,2.39-22.53,9.07-45.07,26.91-22.53,10.99-11.27,3.54-11.27,1.98-11.27.4-11.27-1.06-22.53-5.39-22.53-6.96-22.53-4.79-11.27-.59-11.27.95-11.27,2.57-11.27,4.12-22.53,11.92-22.53,14.19-22.53,12.69-11.27,4.71-11.27,3.23-11.27,1.62-11.27.02-22.53-3.97-45.07-12.87-11.27-1.56-11.27-.14-11.27,1.45-11.27,3.07-22.53,10.41-45.07,27.53-14.26,6.85"/>
        <path class="cls-1" d="m611.98,22.62h0l-8.1-3.74-45.07-27.23-22.53-11.43-11.27-3.74-11.27-2.14-11.27-.51-11.27,1-22.53,5.39-22.53,7.06-22.53,4.89-11.27.61-11.27-.95-11.27-2.58-11.27-4.14-22.53-11.99-22.53-14.22-22.53-12.64-11.27-4.65-11.27-3.15-11.27-1.52-11.27.08-22.53,4.13-45.07,12.89-11.27,1.49-11.27.07-11.27-1.53-11.27-3.15-22.53-10.51-45.07-27.37-22.53-9.64-11.27-2.62-11.27-1.01-11.27.53-11.27,1.85-45.07,12.89-22.53,3.58-11.27-.11-11.27-1.51-45.07-13.66-11.27-1-11.27,1.79-22.53,7.59-22.53,5.94-11.27,1.12-11.27-.28-22.53-4.18-22.53-6.79-22.53-5.83-11.27-1.47-11.27-.07-11.27,1.5-11.27,3.1-22.53,10.43-45.07,27.45-22.53,9.8-11.27,2.69-11.27,1.07-11.27-.49-11.27-1.84-45.07-13.02-22.53-3.41-11.27.4-11.27,2.02-11.27,3.63-11.27,5.06-45.07,27.3-22.53,11.4-11.27,3.72-11.27,2.12-11.27.49-11.27-1.02-22.53-5.4-22.53-7.02-22.53-4.81-11.27-.56-11.27,1-11.27,2.64-11.27,4.2-22.53,12.08-22.53,14.27-27.29,14.75"/>
        <path class="cls-1" d="m611.91,37.15h0l-6.34-2.91-11.27-6.06L549.24.76l-22.53-9.2-11.27-2.32-11.27-.68-90.14,18.97-11.27-.79-11.27-2.43-22.53-9.39-45.07-27.47-22.53-10.76-11.27-3.29-11.27-1.66-11.27-.05-11.27,1.41-22.53,5.88-22.53,6.98-22.53,4.27-11.27.16-11.27-1.44-11.27-3.07-11.27-4.59-22.53-12.58-22.53-14.25-22.53-12.08-11.27-4.21-11.27-2.64-11.27-1.01-11.27.56-22.53,4.82-22.53,7.06-22.53,5.45-11.27,1.04-11.27-.47-11.27-2.1-11.27-3.7-22.53-11.38-22.53-14.15-22.53,14.18-22.53,11.41-11.27,3.72-11.27,2.11-11.27.48-11.27-1.03-22.53-5.41-22.53-7.02-22.53-4.79-11.27-.54-11.27,1.02-11.27,2.66-11.27,4.22-22.53,12.11-22.53,14.28-22.53,12.61-11.27,4.61-11.27,3.09-11.27,1.46-11.27-.14-22.53-4.23-22.53-6.94-22.53-5.84-11.27-1.39-11.27.06-11.27,1.68-11.27,3.3-22.53,10.8-45.07,27.53-22.53,9.42-11.27,2.44-11.27.81-90.14-18.84-11.27.7-11.27,2.33-22.53,9.24-45.07,27.49-17.61,8.99"/>
        <path class="cls-1" d="m612.02,52.09h0l-4.75-2.12-22.53-12.6-22.53-14.24-22.53-12.05-11.27-4.18-11.27-2.62-11.27-.99-11.27.58-22.53,4.84-22.53,7.05-22.53,5.43-11.27,1.04-11.27-.47-11.27-2.1-11.27-3.7-22.53-11.36-45.07-27.24-11.27-5.05-11.27-3.61-11.27-2.01-11.27-.38-22.53,3.44-45.07,13.09-11.27,1.86-11.27.51-11.27-1.05-11.27-2.68-22.53-9.76-45.07-27.38-22.53-10.39-11.27-3.09-11.27-1.48-11.27.09-11.27,1.49L-1.17-63.15l-22.53,6.82-22.53,4.21-11.27.3-11.27-1.1-22.53-5.91-22.53-7.56-11.27-1.78-11.27,1.02-45.07,13.73-11.27,1.52-11.27.13-22.53-3.55-45.07-12.82-11.27-1.83-11.27-.51-11.27,1.02-11.27,2.63-22.53,9.67-45.07,27.44-22.53,10.54-11.27,3.16-11.27,1.55-11.27-.05-11.27-1.48-45.07-12.83-22.53-4.1-11.27-.06-11.27,1.54-11.27,3.16-11.27,4.67-22.53,12.67-22.53,14.26-22.53,12.02-11.27,4.16-11.27,2.6-11.27.96-11.27-.6-22.53-4.85-22.53-7.02-22.53-5.36-11.27-.98-11.27.53-11.27,2.16-11.27,3.76-22.53,11.46-50.7,29.97-2.46,1.07"/>
        <path class="cls-1" d="m611.95,67.3h0l-2.99-1.27-11.27-5.56-45.07-27.46-22.53-10.38-11.27-3.05-11.27-1.43-11.27.16-11.27,1.57-45.07,12.94-22.53,4h-11.27s-11.27-1.6-11.27-1.6l-11.27-3.21-11.27-4.7-22.53-12.66L327.28.49l-22.53-11.88-11.27-4.1-11.27-2.55-11.27-.93-11.27.6-22.53,4.82-22.53,6.99-22.53,5.42L180.8-.05l-11.27-.38-11.27-1.97-11.27-3.53-22.53-10.96-45.07-26.84-22.53-9.04-11.27-2.37-11.27-.85-22.53,2.36-45.07,12.14-22.53,3.91-22.53.23-45.07-4.34-22.53,1.15-22.53,2.69-22.53.81-22.53-2.83-45.07-12.08-22.53-3.64h-11.27s-11.27,1.49-11.27,1.49l-11.27,3.01-11.27,4.45-22.53,12.19-22.53,13.99-22.53,12.17-11.27,4.4-11.27,2.92-11.27,1.33-11.27-.22-22.53-4.27-45.07-12.68-11.27-1.4-11.27.02-11.27,1.61-11.27,3.22-22.53,10.61-45.07,27.43-22.53,9.6-11.27,2.58-11.27.95-11.27-.59-11.27-1.92-45.07-13.03-22.53-3.26-11.27.49-11.27,2.12-11.27,3.71-11.27,5.13-22.53,13.2-22.53,14.12-19.72,10.13-1.23.51"/>
        <path class="cls-1" d="m612.06,82.88h0l-1.41-.55-22.53-11.38-22.53-14.08-22.53-13.03-11.27-5.02-11.27-3.59-11.27-2.01-11.27-.4-22.53,3.38-45.07,13.04-11.27,1.91-11.27.59-11.27-.94-11.27-2.55-22.53-9.49-45.07-27.18-22.53-10.61-11.27-3.27-11.27-1.69-11.27-.13-11.27,1.29-45.07,12.49-22.53,4.56-11.27.49-11.27-.99-11.27-2.52-11.27-3.97-22.53-11.38-45.07-25.87-22.53-8.32-11.27-2.15-11.27-.77-22.53,2.03-67.6,14.82-22.53,1.86-67.6.29-22.53-.98-22.53-3.08-45.07-10.7-22.53-3.64-22.53.61-11.27,2.33-11.27,3.7-22.53,10.87-45.07,26.21-22.53,8.94-11.27,2.36-11.27.83-22.53-2.53L-493.54-.18l-22.53-3.42-11.27.32-11.27,1.89-11.27,3.46-11.27,4.88-45.07,26.89-22.53,11.61-11.27,3.93-11.27,2.38-11.27.78-11.27-.74-22.53-4.99-22.53-6.98-22.53-5.22-11.27-.91-11.27.6-11.27,2.21-11.27,3.79-22.53,11.46-22.53,14.12-22.53,13.04-11.44,5.08"/>
        <path class="cls-1" d="m611.99,98.63h0l-10.92-4.46-22.53-12.48-22.53-14.11-22.53-12.01-11.27-4.22-11.27-2.7-11.27-1.1-11.27.44-22.53,4.57-45.07,12.56-11.27,1.27-11.27-.16-11.27-1.72-11.27-3.28-22.53-10.58-45.07-26.93-22.53-9.48-11.27-2.62-11.27-1.07-22.53,2.11-45.07,12.61-22.53,3.96-11.27.18-11.27-1.25-22.53-6.73-22.53-11.16L60.25-14.58l-22.53-8.24-22.53-3.53-22.53.8-22.53,3.62-45.07,8.32-22.53,2.4-22.53.99-45.07-1.73-90.14-14.18-22.53.87-22.53,5.53-22.53,9.96-45.07,25.32-22.53,9.63-11.27,2.96-11.27,1.53-11.27.09-11.27-1.23-22.53-5.39-22.53-6.75-22.53-4.69-11.27-.64-11.27.81-11.27,2.36-11.27,3.86-22.53,11.4-45.07,26.73-22.53,8.53-11.27,2.02-11.27.45-22.53-3.23-45.07-12.93-22.53-2.65-11.27.83-11.27,2.43-22.53,9.3-45.07,27.26-24.3,11.49"/>
        <path class="cls-1" d="m612.1,114.6h0l-9.33-3.32-11.27-5.23-45.07-27.03-22.53-10.92-11.27-3.49-11.27-1.93-11.27-.37-11.27,1.08-22.53,5.35-22.53,6.91-22.53,4.87-11.27.72-11.27-.75-11.27-2.3-11.27-3.79-22.53-11.22-22.53-13.69-22.53-12.7-22.53-8.64-11.27-2.2-11.27-.71-22.53,2.57-45.07,12.44-22.53,3.73-11.27.15-11.27-1.18-22.53-6.28-22.53-10.38L50.67,2.64,28.14-5.94,5.61-10.67l-22.53-1.04-22.53,1.56-45.07,5.35-45.07,2.24-45.07-2.79-45.07-5.23-22.53-.98-22.53,1.96-22.53,5.8-22.53,9.52-45.07,23.93-22.53,9.53-22.53,4.98-22.53-.31-22.53-4.66-45.07-11.95-11.27-1.27-11.27.04-11.27,1.51-11.27,3-22.53,9.97-45.07,26.72-22.53,10.1-11.27,3.04-11.27,1.5-11.27-.02-11.27-1.39-45.07-12.52-22.53-4.35-11.27-.33-11.27,1.2-11.27,2.78-11.27,4.27-22.53,12.03-22.53,14.07-22.53,12.43-14.61,5.66"/>
        <path class="cls-1" d="m612.21,130.6h0l-7.75-2.25-22.53-10.18-45.07-26.97-22.53-9.9-11.27-2.87-11.27-1.32-11.27.19-11.27,1.53-22.53,5.82-22.53,6.75-22.53,4.23-11.27.31-11.27-1.16-11.27-2.67-11.27-4.09-22.53-11.49-22.53-13.53-22.53-12.25-22.53-8.15-11.27-2.01-11.27-.59-22.53,2.6-45.07,12.1-22.53,3.87-22.53-.41-22.53-5.2-22.53-9.09-45.07-22.03-22.53-8.98L-3.97,6.82l-22.53-3.06-22.53-.74-45.07,1.54-45.07.61-67.6-2.03-22.53.99-22.53,3.41-22.53,6.43-90.14,40.16-22.53,4.71-22.53-.1-22.53-4.23-22.53-6.33-22.53-5.58-22.53-2.04-11.27.93-11.27,2.36-22.53,8.76-45.07,26.09-22.53,11.1-11.27,3.79-11.27,2.34-11.27.83-11.27-.61-22.53-4.64-45.07-12.26-11.27-1.23-11.27.16-11.27,1.7-11.27,3.24-22.53,10.48-45.07,27.01-26.76,10.85-.88.22"/>
        <path class="cls-1" d="m612.14,146.45h0l-5.99-1.28-11.27-3.57-22.53-10.93-45.07-26.62-22.53-9.03-11.27-2.39-11.27-.87-22.53,2.39-45.07,12.61-22.53,3.77-11.27.06-11.27-1.38-22.53-7.02-22.53-11.47-22.53-13.28-22.53-11.96-22.53-8.01-11.27-2.05-11.27-.69-22.53,2.23-45.07,11.59-22.53,4.28-22.53.64-22.53-3.61-22.53-7.28-45.07-19.52-22.53-8.96-22.53-6.96-22.53-4.68-22.53-2.69-45.07-1.72-45.07.03-45.07,1.74-22.53,2.66-22.53,4.64-22.53,6.92-22.53,8.94-45.07,19.62-22.53,7.41-22.53,3.78-22.53-.47-22.53-4.15-45.07-11.56-22.53-2.34-11.27.62-11.27,1.97-22.53,7.88-22.53,11.9-22.53,13.32-22.53,11.61-22.53,7.23-11.27,1.49-11.27.05-22.53-3.6-45.07-12.57-22.53-2.52-11.27.79-11.27,2.31-22.53,8.89-45.07,26.64-22.53,11.1-17.61,5.1-.35.06"/>
        <path class="cls-1" d="m612.25,162.06h0l-4.4-.56-11.27-2.5-11.27-3.95-22.53-11.39-45.07-26.15-22.53-8.36-11.27-2.06-11.27-.58-22.53,2.77-45.07,12.51-22.53,3.54-11.27-.02-11.27-1.41-22.53-6.91-22.53-11.17-22.53-12.96-22.53-11.81-22.53-8.2-22.53-3.28-22.53,1.48-67.6,15.51-22.53,1.94-22.53-1.66-22.53-5.02L-23.12,50.76l-22.53-5.41-22.53-3.74-45.07-3.36-45.07.85-22.53,2.07-22.53,3.49-22.53,5.13-22.53,6.79-67.6,24.29-22.53,5.57-22.53,2.34-22.53-1.28-22.53-4.34-22.53-5.84-22.53-5.15-22.53-2.19-22.53,2.4-22.53,7.4-22.53,11.35-22.53,13-22.53,11.74-22.53,7.85-11.27,1.94-11.27.53-22.53-2.72-45.07-12.43-22.53-3.54-11.27.08-11.27,1.54-11.27,3.02-11.27,4.41-22.53,11.98-22.53,13.73-22.53,12.07-11.27,4.46-16.9,4.02-2.82.34"/>
        <path class="cls-1" d="m612.18,177.21h0l-2.64-.09-11.27-1.31-11.27-2.8-11.27-4.2-22.53-11.63-45.07-25.67-22.53-7.94-11.27-1.88-11.27-.44-90.14,18.77-11.27.06-11.27-1.26-22.53-6.45-22.53-10.63-22.53-12.55-22.53-11.77-22.53-8.65-22.53-4.18-22.53.37-90.14,17.67-22.53.4-22.53-2.49-22.53-4.82-67.6-18.8-45.07-8.69-22.53-2.28-22.53-.89-22.53.47-22.53,1.85-22.53,3.26-22.53,4.63-90.14,24.16-22.53,3.38-22.53.61-22.53-2.32-22.53-4.63-45.07-10.1-22.53-1.63-22.53,2.67-22.53,7.31-22.53,11-45.07,24.2-22.53,8.04-11.27,2.16-11.27.82-22.53-2.11-22.53-5.64-22.53-6.45-22.53-4.18-11.27-.43-11.27.95-11.27,2.4-11.27,3.8-22.53,11.05-22.53,13.47-22.53,12.64-22.53,8.77-16.9,2.9-4.4.2"/>
        <path class="cls-1" d="m612.29,191.76h0l-1.06.06-11.27-.06-11.27-1.51-22.53-7.27-22.53-11.67-45.07-25.26-22.53-7.75-11.27-1.85-11.27-.45-22.53,2.75-45.07,12.11-22.53,3.77-22.53-.65-22.53-5.66-90.14-42.79-22.53-5.34-22.53-1.09-22.53,2.47-67.6,13.92-22.53,2.24-22.53-.02-22.53-2.07-22.53-3.53-45.07-8.5-45.07-6.41-45.07-1.85-45.07,3.23-45.07,7.37-45.07,8.36-22.53,2.89-22.53,1.09-22.53-1.14-22.53-3.3-45.07-9.83-22.53-3.66-22.53-.71-22.53,3.33-22.53,7.54-67.6,34.21-22.53,7.86-22.53,3.08-22.53-1.8-45.07-11.72-22.53-4.52-22.53-.22-11.27,1.93-11.27,3.32-22.53,10.22-45.07,25.99-22.53,9.66-11.27,2.91-11.27,1.45-11.8-.02"/>
        <path class="cls-1" d="m612.22,205.59h0l-10.56,1.03-11.27-.17-11.27-1.58-22.53-7.29-22.53-11.53-45.07-24.94-22.53-7.81-11.27-1.96-11.27-.61-22.53,2.38-45.07,11.78-22.53,4.16-22.53.17-22.53-4.55-22.53-8.7-45.07-22.8-22.53-9.85-22.53-6.63-22.53-2.81-22.53.71-22.53,3.27-45.07,9.01-22.53,3.5-22.53,1.98-22.53.39-22.53-.93-90.14-7.23-45.07-.49-45.07,2.69-45.07,4.15-45.07,2.06-22.53-.94-22.53-2.55-67.6-12.7-22.53-2.42-22.53.57-22.53,4.3-22.53,8-22.53,10.75-45.07,22.28-22.53,7.32-22.53,2.8-22.53-1.8-22.53-5.17-22.53-6.26-22.53-4.62-22.53-.62-11.27,1.64-11.27,2.99-90.14,45.41-11.27,3.35-11.27,1.95-11.27.53-13.38-1.1"/>
        <path class="cls-1" d="m612.33,218.59h0l-8.98,1.66-11.27,1.12-11.27-.15-11.27-1.53-22.53-7.07-22.53-11.24-45.07-24.7-22.53-8.08-22.53-3.08-22.53,1.77-22.53,5.13-22.53,6.13-22.53,4.64-22.53,1.2-22.53-3.17-22.53-7.28-22.53-10.13-45.07-21.42-22.53-7.87-22.53-4.65-22.53-1.34-22.53,1.41-90.14,14.17-45.07,3.18-45.07.07-90.14-.62-90.14.56-45.07-3.58-90.14-13.93-22.53-.81-22.53,2.1-22.53,5.45-22.53,8.56-45.07,21.79-22.53,9.66-22.53,6.45-22.53,2.18-22.53-2.08-45.07-11.25-22.53-4.51-22.53-.71-22.53,4.31-22.53,9.13-45.07,25.16-22.53,10.5-22.53,5.92-11.27.9-11.27-.43-15.14-2.4"/>
        <path class="cls-1" d="m612.27,230.86h0l-7.22,1.81-22.53,3.39-11.27-.02-11.27-1.35-22.53-6.62-22.53-10.78-45.07-24.48-22.53-8.54-22.53-3.85-22.53.91-22.53,4.46-45.07,11.06-22.53,2.33-22.53-1.56-22.53-5.54-22.53-8.67-45.07-20.64-22.53-8.83-22.53-6.35-22.53-3.5-22.53-.82-22.53,1.29-22.53,2.63-45.07,6.37-45.07,4.83-45.07,2.39-45.07.75-90.14-1.65-45.07-3.61-90.14-11.56-22.53-1.11-22.53,1.05-22.53,3.77-22.53,6.61-90.14,38.21-22.53,5.27-22.53,1.26-22.53-2.58-67.6-15.32-22.53-.52-22.53,4.29-22.53,8.91-45.07,24.67-22.53,10.55-22.53,6.24-11.27,1.14-11.27-.17-27.99-5.06"/>
        <path class="cls-1" d="m612.37,242.47h0l-16.9,4.55-22.53,3.65-22.53-.84-22.53-5.93-22.53-10.14-45.07-24.19-22.53-9.12-22.53-4.82-22.53-.2-22.53,3.55-45.07,11.01-22.53,3.45-22.53.16-22.53-3.54-22.53-6.8-67.6-28.03-22.53-7.65-22.53-5.45-22.53-3.1-22.53-.99-22.53.63-135.21,10.96-45.07.97-45.07-.84-45.07-2.69-90.14-8.04-22.53-.68-22.53.9-22.53,2.98-22.53,5.32-22.53,7.55-67.6,28.16-22.53,7.01-22.53,3.81-22.53.11-22.53-3.23-45.07-10.92-22.53-3.71-22.53-.05-22.53,4.55-22.53,8.9-45.07,24.2-22.53,10.39-22.53,6.29-22.53,1.21-22.53-3.37-18.31-4.85"/>
        <path class="cls-1" d="m612.48,253.78h0l-26.58,7.34-22.53,4.04-22.53-.12-22.53-5.03-22.53-9.3-45.07-23.71-22.53-9.75-22.53-5.95-22.53-1.55-22.53,2.34-45.07,10.38-22.53,4.38-22.53,1.84-22.53-1.39-22.53-4.59-22.53-7.12-67.6-25.8-22.53-6.83-22.53-5.04-22.53-3.21-22.53-1.59-45.07.17-45.07,2.07-90.14,2.27-135.21-4.59-45.07,1.48-22.53,2.87-22.53,4.67-22.53,6.5-22.53,8.03-45.07,17.71-22.53,7.57-22.53,5.23-22.53,2.13-22.53-1.15-22.53-3.9-45.07-10.52-22.53-2.98-22.53.68-22.53,5.06-90.14,42.85-22.53,6.07-22.53,1.18-22.53-3.25-31.34-8.41"/>
        <path class="cls-1" d="m612.41,265.29h0l-13.56,3.47-22.53,6.2-22.53,4.49-22.53.76-22.53-3.9-22.53-8.22-45.07-22.89-22.53-10.34-22.53-7.15-22.53-3.09-22.53.84-90.14,17.23-22.53.71-22.53-2.18-22.53-4.81-22.53-6.75-45.07-15.74-45.07-13.57-22.53-4.87-22.53-3.5-45.07-3.58-180.28-.67-45.07.55-45.07,2.98-22.53,3.07-22.53,4.4-45.07,12.81-67.6,23.09-22.53,5.64-22.53,3.22-22.53.36-22.53-2.4-22.53-4.47-45.07-9.72-22.53-2.01-22.53,1.64-22.53,5.77-22.53,9.38-45.07,23.19-22.53,9.5-22.53,5.6-22.53.91-22.53-3.3-44.19-11.53"/>
        <path class="cls-1" d="m612.52,277.47h0l-.7.1-67.6,15.87-22.53,1.75-22.53-2.59-22.53-6.91-67.6-32.36-22.53-8.31-22.53-4.74-22.53-.94-22.53,2.3-67.6,13.68-22.53,2.52-22.53.17-22.53-2.27-22.53-4.38-90.14-25.79-45.07-10.23-45.07-6.3-45.07-3.14-45.07-1.13-45.07.18-45.07,1.6-45.07,3.87-45.07,7.31-45.07,11.22-45.07,13.56-45.07,11.68-22.53,3.43-22.53,1.12-22.53-1.33-22.53-3.46-45.07-9.62-22.53-3.49-22.53-.79-22.53,2.82-22.53,6.62-22.53,9.74-45.07,22.5-22.53,8.77-22.53,4.9-22.53.42-22.53-3.51-45.07-11.53-12.15-2.2"/>
        <path class="cls-1" d="m612.46,291h0l-10.21.7-22.53,4.08-45.07,11.28-22.53,2.79-22.53-1.14-22.53-5.36-22.53-8.84-45.07-21.75-22.53-9.3-22.53-6.38-22.53-2.89-22.53.44-22.53,3-45.07,9.08-22.53,3.78-22.53,2.16-22.53.18-22.53-1.79-45.07-8.12-45.07-10.81-45.07-9.95-45.07-7.26-45.07-4.25-45.07-1.58-45.07.84-45.07,3.4-45.07,6.33-45.07,9.25-45.07,10.91-45.07,9.53-22.53,2.96-22.53,1.16-22.53-.85-22.53-2.75-67.6-12.87-22.53-2.2-22.53.68-22.53,4.14-22.53,7.52-22.53,10.07-45.07,21.51-22.53,7.81-22.53,3.97-22.53-.27-22.53-3.84-45.07-11.28-25-3.02"/>
        <path class="cls-1" d="m612.56,306.42h0l-8.63-.64-11.27.16-22.53,3.16-45.07,11.13-22.53,3.77-22.53.39-22.53-3.6-22.53-7.25-22.53-9.77-45.07-20.65-22.53-7.83-22.53-4.87-22.53-1.68-22.53,1.14-90.14,15.11-22.53,2.16-22.53.6-45.07-3.15-90.14-14.63-45.07-6.36-45.07-3.95-45.07-1.22-45.07,1.56-45.07,4.27-45.07,6.62-90.14,14.56-22.53,2.03-22.53.67-22.53-.88-22.53-2.42-90.14-14.79-22.53-.6-22.53,2.33-22.53,5.52-22.53,8.37-45.07,20.93-22.53,9.42-22.53,6.63-22.53,2.85-22.53-1.1-22.53-4.25-45.07-10.91-22.53-2.45-15.49.69"/>
        <path class="cls-1" d="m612.5,324.12h0l-6.87-1.54-22.53-2.11-22.53,2-22.53,4.8-45.07,10.3-22.53,1.9-22.53-1.71-22.53-5.37-22.53-8.3-45.07-20.08-22.53-8.9-22.53-6.65-22.53-3.87-22.53-1.08-22.53,1.3-22.53,2.96-45.07,7.68-45.07,5.69-45.07,1.32-45.07-2.48-90.14-8.42-45.07-2.63-45.07-.51-45.07,1.73-45.07,3.6-90.14,8.17-45.07.75-45.07-3.63-90.14-13.8-22.53-1.16-22.53,1.24-22.53,4.04-22.53,6.81-90.14,37.36-22.53,5.23-22.53,1.56-22.53-2.03-22.53-4.67-45.07-10.33-22.53-1.79-22.53,2.36-5.81,1.34"/>
        <path class="cls-1" d="m612.61,344.28h0l-5.28-1.91-11.27-3.36-22.53-3.55-22.53.59-22.53,3.8-45.07,10.58-22.53,3.25-22.53.2-22.53-3.26-22.53-6.41-45.07-18.34-45.07-17.4-22.53-5.85-22.53-3.37-22.53-.97-22.53,1.04-45.07,5.73-45.07,6.6-45.07,4.34-45.07,1.35-45.07-.76-90.14-2.53-90.14,1.08-90.14,2.45-45.07-1.15-45.07-4.13-90.14-12.28-22.53-1.18-22.53.78-22.53,3.16-22.53,5.65-90.14,35.78-22.53,6.71-22.53,3.63-22.53.16-22.53-2.96-45.07-10.45-22.53-4.01-22.53-.93-22.53,3.16-18.84,5.87"/>
        <path class="cls-1" d="m612.54,366.56h0l-3.52-1.62-22.53-8.74-22.53-5.08-22.53-1.03-22.53,2.48-45.07,10.07-22.53,4.31-22.53,1.99-22.53-1.07-22.53-4.21-22.53-6.84-22.53-8.56-45.07-17.85-22.53-7.34-22.53-5.43-22.53-3.3-22.53-1.26-45.07,2.2-90.14,10.67-45.07,3.64-90.14,2.45-90.14.15-90.14-1.11-45.07-2.4-45.07-4.29-90.14-10.09-22.53-.79-22.53.83-22.53,2.81-22.53,4.95-22.53,6.94-22.53,8.46-45.07,18.02-22.53,7.39-22.53,4.95-22.53,1.89-22.53-1.24-90.14-17.15-22.53.12-22.53,4.12-28.17,10.44-3.52,1.63"/>
        <path class="cls-1" d="m612.65,390.45h0l-13.2-6.53-22.53-9.67-22.53-6.6-22.53-2.82-22.53.83-90.14,17.02-22.53,1.02-22.53-1.84-22.53-4.59-22.53-6.79-45.07-16.67-45.07-14.95-22.53-5.3-22.53-3.53-22.53-1.83-22.53-.36-45.07,2.35-45.07,4.15-90.14,6.81-90.14,2.22-90.14-1.68-90.14-6.25-45.07-4.17-45.07-2.84-22.53-.1-22.53,1.25-22.53,2.88-22.53,4.64-45.07,14.04-45.07,16.91-22.53,7.46-22.53,5.58-22.53,3-22.53.12-22.53-2.55-67.6-13.91-22.53-2.03-22.53,1.35-22.53,5.18-22.53,8.63-22.01,10.62"/>
      </g>
    </g>
  </g>
  <g id="Ebene_5" data-name="Ebene 5">
    <g>
      <g>
        <line class="cls-2" x1="235.74" y1="127.64" x2="365.86" y2="199.67"/>
        <polygon class="cls-3" points="237.04 141.65 204.73 110.49 248.3 121.31 237.04 141.65"/>
        <polygon class="cls-3" points="353.29 206 396.86 216.84 364.55 185.66 353.29 206"/>
      </g>
      <line class="cls-2" x1="209.96" y1="101.03" x2="199.5" y2="119.93"/>
      <line class="cls-2" x1="402.09" y1="207.38" x2="391.63" y2="226.28"/>
    </g>
  </g>
</svg>