<?xml version="1.0" encoding="utf-8"?>
<!-- Generator: Adobe Illustrator 27.4.1, SVG Export Plug-In . SVG Version: 6.00 Build 0)  -->
<svg version="1.1" id="Ebene_1" xmlns="http://www.w3.org/2000/svg" xmlns:xlink="http://www.w3.org/1999/xlink" x="0px" y="0px"
	 viewBox="0 0 1728 864" style="enable-background:new 0 0 1728 864;" xml:space="preserve">
<style type="text/css">
	.st0{fill:none;stroke:#C9D1D9;stroke-width:5;stroke-miterlimit:10;}
	.st1{fill:#C9D1D9;}
	.st2{enable-background:new    ;}
	.st3{fill:none;stroke:#C9D1D9;stroke-width:4;stroke-miterlimit:10;}
	.st4{fill:none;stroke:#307EEF;stroke-width:4;stroke-linecap:round;stroke-linejoin:round;}
	.st5{fill:none;stroke:#D85648;stroke-width:4;stroke-linecap:round;stroke-linejoin:round;}
</style>
<g>
	<line class="st0" x1="144" y1="432" x2="1611.7" y2="432"/>
	<polygon class="st1" points="1601.8,446.5 1656,432 1601.8,417.5 	"/>
</g>
<g>
	<line class="st0" x1="144" y1="44.3" x2="144" y2="819.7"/>
	<polygon class="st1" points="129.5,54.2 144,0 158.5,54.2 	"/>
	<polygon class="st1" points="129.5,809.8 144,864 158.5,809.8 	"/>
</g>
<g class="st2">
	<path class="st1" d="M1524.8,536.4c-1,0-1.9-0.3-2.6-1s-1.1-1.5-1.1-2.5v-18.5h-4.1v-3.3h4.1v-5.3l3.9-0.8v6.1h5v3.3h-5v17.5
		c0,0.5,0.1,0.9,0.2,1s0.5,0.3,0.9,0.3h3.9v3.3H1524.8z"/>
	<path class="st1" d="M1537.7,506.8c-0.9,0-1.7-0.3-2.3-1s-1-1.4-1-2.3c0-0.9,0.3-1.7,1-2.3s1.4-0.9,2.3-0.9c0.9,0,1.7,0.3,2.3,0.9
		s0.9,1.4,0.9,2.3c0,0.9-0.3,1.7-0.9,2.3S1538.6,506.8,1537.7,506.8z M1535.8,536.4v-25.3h3.9v25.3H1535.8z"/>
	<path class="st1" d="M1547.4,536.4v-25.3h3.7v4.3c0.6-1.3,1.6-2.5,3-3.4s3-1.5,4.9-1.5c1.7,0,3.1,0.5,4.4,1.4s2.2,2.2,2.8,3.9
		c0.8-1.5,1.9-2.8,3.3-3.8s3-1.5,4.8-1.5c2.4,0,4.3,0.9,5.8,2.6s2.1,4.2,2.1,7.3v15.9h-3.9v-15.6c0-1.4-0.1-2.7-0.4-3.7
		s-0.8-1.8-1.5-2.4s-1.6-0.8-2.8-0.8c-1.3,0-2.4,0.4-3.5,1.1s-1.8,1.8-2.4,3.2s-0.9,3.1-0.9,5.1v13.2h-3.9v-15.6
		c0-1.4-0.1-2.7-0.4-3.7s-0.8-1.8-1.5-2.4s-1.6-0.8-2.7-0.8c-1.3,0-2.4,0.4-3.5,1.1s-1.8,1.8-2.4,3.2s-0.9,3.1-0.9,5.1v13.2H1547.4z
		"/>
	<path class="st1" d="M1599.5,537c-2.4,0-4.5-0.5-6.2-1.6s-3.1-2.6-4.1-4.6s-1.4-4.3-1.4-7c0-2.7,0.5-5,1.4-7s2.3-3.5,4-4.6
		s3.8-1.6,6.1-1.6c1.3,0,2.7,0.2,4,0.6s2.6,1.2,3.7,2.2s2,2.5,2.7,4.3s1,4.2,1,6.9h-20.5v-3.2h17.1l-1.1,1.5c-0.1-2.2-0.4-4-1.1-5.3
		s-1.5-2.3-2.5-2.9s-2.2-0.9-3.4-0.9c-1.5,0-2.8,0.4-3.8,1.2s-1.9,1.9-2.5,3.4s-0.9,3.3-0.9,5.4c0,3.2,0.6,5.6,1.9,7.3
		s3.1,2.6,5.5,2.6c1.7,0,3.1-0.4,4.3-1.3s2-2.1,2.6-3.7l3.9,1.3c-0.6,1.5-1.4,2.7-2.4,3.8s-2.2,1.8-3.6,2.4S1601.2,537,1599.5,537z"
		/>
</g>
<g class="st2">
	<path class="st1" d="M1631.5,536.4c-1,0-1.9-0.3-2.6-1s-1.1-1.5-1.1-2.5v-18.5h-4.1v-3.3h4.1v-5.3l3.9-0.8v6.1h5v3.3h-5v17.5
		c0,0.5,0.1,0.9,0.2,1s0.5,0.3,0.9,0.3h3.9v3.3H1631.5z"/>
</g>
<g class="st2">
	<path class="st1" d="M1655.8,506.8c-0.9,0-1.7-0.3-2.3-1s-1-1.4-1-2.3c0-0.9,0.3-1.7,1-2.3s1.4-0.9,2.3-0.9c0.9,0,1.7,0.3,2.3,0.9
		s0.9,1.4,0.9,2.3c0,0.9-0.3,1.7-0.9,2.3S1656.7,506.8,1655.8,506.8z M1653.8,536.4v-25.3h3.9v25.3H1653.8z"/>
	<path class="st1" d="M1665.4,536.4v-25.3h3.7v5.7l-0.2-1c0.7-1.5,1.7-2.7,3.2-3.7s3.2-1.5,5.3-1.5c1.8,0,3.3,0.4,4.6,1.2
		s2.3,1.9,3,3.4s1.1,3.3,1.1,5.3v15.9h-3.9v-15.6c0-2.1-0.4-3.8-1.3-5s-2.3-1.9-4.2-1.9c-2.1,0-3.9,0.8-5.3,2.4s-2.1,3.9-2.1,6.9
		v13.2H1665.4z"/>
	<path class="st1" d="M1714.1,537c-1.8,0-3.5-0.3-5-0.9s-2.7-1.5-3.7-2.7s-1.6-2.8-2-4.7l4.1-0.8c0.2,2,0.8,3.5,2,4.4
		s2.7,1.5,4.4,1.5c1.8,0,3.2-0.4,4.2-1.3s1.6-2,1.6-3.3c0-1.1-0.4-2-1.1-2.6s-1.8-1.1-3.2-1.4l-3.1-0.6c-0.8-0.2-1.7-0.4-2.6-0.7
		s-1.7-0.7-2.5-1.2s-1.4-1.2-1.9-2s-0.7-1.8-0.7-3.1c0-1.7,0.4-3,1.3-4.1s2-1.8,3.4-2.4s3-0.8,4.6-0.8c1.8,0,3.4,0.3,4.7,0.8
		s2.4,1.4,3.3,2.4s1.4,2.3,1.7,3.8l-4.3,0.9c-0.1-1-0.4-1.8-0.8-2.5s-1-1.2-1.7-1.6s-1.7-0.6-2.9-0.6c-1.5,0-2.7,0.3-3.8,0.9
		s-1.6,1.5-1.6,2.8c0,0.7,0.2,1.3,0.5,1.8s0.9,0.9,1.6,1.2s1.6,0.6,2.7,0.8l3.1,0.7c1.3,0.3,2.5,0.7,3.6,1.2s2,1.2,2.7,2.2
		s1,2.1,1,3.7c0,1.7-0.4,3.1-1.3,4.3s-2,2.1-3.5,2.8S1716.1,537,1714.1,537z"/>
</g>
<line class="st3" x1="124.2" y1="342" x2="144" y2="342"/>
<line class="st3" x1="124.2" y1="432" x2="144" y2="432"/>
<line class="st3" x1="124.2" y1="252" x2="144" y2="252"/>
<line class="st3" x1="124.2" y1="162" x2="144" y2="162"/>
<line class="st3" x1="124.2" y1="72" x2="144" y2="72"/>
<line class="st3" x1="124.2" y1="792" x2="144" y2="792"/>
<line class="st3" x1="124.2" y1="702" x2="144" y2="702"/>
<line class="st3" x1="124.2" y1="612" x2="144" y2="612"/>
<line class="st3" x1="124.2" y1="522" x2="144" y2="522"/>
<g class="st2">
	<path class="st1" d="M32.5,86.8V59.9c-1.2,1.1-2.4,2-3.5,2.7s-2.3,1.3-3.6,1.8v-4c0.7-0.3,1.4-0.7,2.2-1.2s1.6-1.2,2.6-2.2
		s2.1-2.3,3.4-4h3v33.8H32.5z"/>
	<path class="st1" d="M47.2,87.3c-1,0-1.8-0.3-2.5-1s-1-1.5-1-2.5s0.3-1.8,1-2.5s1.5-1,2.5-1s1.8,0.3,2.5,1s1,1.5,1,2.5
		s-0.3,1.8-1,2.5S48.2,87.3,47.2,87.3z"/>
	<path class="st1" d="M67.2,87.3c-3.9,0-6.9-1.5-9.1-4.6s-3.2-7.3-3.2-12.9s1.1-9.8,3.2-12.9s5.2-4.6,9.1-4.6c3.9,0,7,1.5,9.1,4.6
		s3.2,7.3,3.2,12.9s-1.1,9.8-3.2,12.9S71.1,87.3,67.2,87.3z M67.2,83.9c2.6,0,4.6-1.2,5.9-3.6s2-5.9,2-10.5s-0.7-8.1-2-10.5
		s-3.3-3.6-5.9-3.6s-4.6,1.2-5.9,3.6s-2,5.9-2,10.5s0.7,8.1,2,10.5S64.6,83.9,67.2,83.9z"/>
</g>
<g class="st2">
	<path class="st1" d="M38.7,267.3c-3.9,0-6.9-1.5-9.1-4.6s-3.2-7.3-3.2-12.9s1.1-9.8,3.2-12.9s5.2-4.6,9.1-4.6c3.9,0,7,1.5,9.1,4.6
		s3.2,7.3,3.2,12.9s-1.1,9.8-3.2,12.9S42.6,267.3,38.7,267.3z M38.7,263.9c2.6,0,4.6-1.2,5.9-3.6s2-5.9,2-10.5s-0.7-8.1-2-10.5
		s-3.3-3.6-5.9-3.6s-4.6,1.2-5.9,3.6s-2,5.9-2,10.5s0.7,8.1,2,10.5S36.1,263.9,38.7,263.9z"/>
	<path class="st1" d="M58.6,267.3c-1,0-1.8-0.3-2.5-1s-1-1.5-1-2.5s0.3-1.8,1-2.5s1.5-1,2.5-1s1.8,0.3,2.5,1s1,1.5,1,2.5
		s-0.3,1.8-1,2.5S59.6,267.3,58.6,267.3z"/>
	<path class="st1" d="M78.8,267.3c-2,0-3.8-0.4-5.6-1.2s-3.3-2-4.5-3.5s-1.9-3.5-2.1-5.7l4.3-1.3c0.2,2.4,0.9,4.4,2.2,6
		s3.1,2.4,5.6,2.4c1.5,0,2.8-0.4,4-1.1s2.1-1.7,2.7-3s1-2.8,1-4.4c0-2.5-0.7-4.4-2.2-5.8s-3.2-2-5.4-2c-1.9,0-3.4,0.5-4.4,1.4
		s-1.9,2-2.4,3.2l-4.1-0.4l1.4-18.8h19.3v3.6H72.8l-0.9,12.8l-1.1-0.1c0.8-1.4,2-2.6,3.5-3.6s3.3-1.5,5.5-1.5c2.1,0,3.9,0.5,5.6,1.4
		s2.9,2.2,3.9,3.9s1.4,3.6,1.4,5.8c0,2.4-0.5,4.6-1.6,6.4s-2.5,3.2-4.3,4.2S80.9,267.3,78.8,267.3z"/>
</g>
<g class="st2">
	<path class="st1" d="M38.7,447.3c-3.9,0-6.9-1.5-9.1-4.6s-3.2-7.3-3.2-12.9s1.1-9.8,3.2-12.9s5.2-4.6,9.1-4.6c3.9,0,7,1.5,9.1,4.6
		s3.2,7.3,3.2,12.9s-1.1,9.8-3.2,12.9S42.6,447.3,38.7,447.3z M38.7,443.9c2.6,0,4.6-1.2,5.9-3.6s2-5.9,2-10.5s-0.7-8.1-2-10.5
		s-3.3-3.6-5.9-3.6s-4.6,1.2-5.9,3.6s-2,5.9-2,10.5s0.7,8.1,2,10.5S36.1,443.9,38.7,443.9z"/>
	<path class="st1" d="M58.6,447.3c-1,0-1.8-0.3-2.5-1s-1-1.5-1-2.5s0.3-1.8,1-2.5s1.5-1,2.5-1s1.8,0.3,2.5,1s1,1.5,1,2.5
		s-0.3,1.8-1,2.5S59.6,447.3,58.6,447.3z"/>
	<path class="st1" d="M78.6,447.3c-3.9,0-6.9-1.5-9.1-4.6s-3.2-7.3-3.2-12.9s1.1-9.8,3.2-12.9s5.2-4.6,9.1-4.6c3.9,0,7,1.5,9.1,4.6
		s3.2,7.3,3.2,12.9s-1.1,9.8-3.2,12.9S82.5,447.3,78.6,447.3z M78.6,443.9c2.6,0,4.6-1.2,5.9-3.6s2-5.9,2-10.5s-0.7-8.1-2-10.5
		s-3.3-3.6-5.9-3.6s-4.6,1.2-5.9,3.6s-2,5.9-2,10.5s0.7,8.1,2,10.5S76,443.9,78.6,443.9z"/>
</g>
<g class="st2">
	<path class="st1" d="M14.6,613.8v-3.7h15.7v3.7H14.6z"/>
	<path class="st1" d="M48.5,627.3c-3.9,0-6.9-1.5-9.1-4.6s-3.2-7.3-3.2-12.9s1.1-9.8,3.2-12.9s5.2-4.6,9.1-4.6c3.9,0,7,1.5,9.1,4.6
		s3.2,7.3,3.2,12.9s-1.1,9.8-3.2,12.9S52.4,627.3,48.5,627.3z M48.5,623.9c2.6,0,4.6-1.2,5.9-3.6s2-5.9,2-10.5s-0.7-8.1-2-10.5
		s-3.3-3.6-5.9-3.6s-4.6,1.2-5.9,3.6s-2,5.9-2,10.5s0.7,8.1,2,10.5S45.9,623.9,48.5,623.9z"/>
	<path class="st1" d="M68.4,627.3c-1,0-1.8-0.3-2.5-1s-1-1.5-1-2.5s0.3-1.8,1-2.5s1.5-1,2.5-1s1.8,0.3,2.5,1s1,1.5,1,2.5
		s-0.3,1.8-1,2.5S69.4,627.3,68.4,627.3z"/>
	<path class="st1" d="M88.6,627.3c-2,0-3.8-0.4-5.6-1.2s-3.3-2-4.5-3.5s-1.9-3.5-2.1-5.7l4.3-1.3c0.2,2.4,0.9,4.4,2.2,6
		s3.1,2.4,5.6,2.4c1.5,0,2.8-0.4,4-1.1s2.1-1.7,2.7-3s1-2.8,1-4.4c0-2.5-0.7-4.4-2.2-5.8s-3.2-2-5.4-2c-1.9,0-3.4,0.5-4.4,1.4
		s-1.9,2-2.4,3.2l-4.1-0.4l1.4-18.8h19.3v3.6H82.6l-0.9,12.8l-1.1-0.1c0.8-1.4,2-2.6,3.5-3.6s3.3-1.5,5.5-1.5c2.1,0,3.9,0.5,5.6,1.4
		s2.9,2.2,3.9,3.9s1.4,3.6,1.4,5.8c0,2.4-0.5,4.6-1.6,6.4s-2.5,3.2-4.3,4.2S90.7,627.3,88.6,627.3z"/>
</g>
<g class="st2">
	<path class="st1" d="M14.6,793.8v-3.7h15.7v3.7H14.6z"/>
	<path class="st1" d="M39.2,806.8v-26.9c-1.2,1.1-2.4,2-3.5,2.7s-2.3,1.3-3.6,1.8v-4c0.7-0.3,1.4-0.7,2.2-1.2s1.6-1.2,2.6-2.2
		s2.1-2.3,3.4-4h3v33.8H39.2z"/>
	<path class="st1" d="M53.9,807.3c-1,0-1.8-0.3-2.5-1s-1-1.5-1-2.5s0.3-1.8,1-2.5s1.5-1,2.5-1s1.8,0.3,2.5,1s1,1.5,1,2.5
		s-0.3,1.8-1,2.5S54.9,807.3,53.9,807.3z"/>
	<path class="st1" d="M73.8,807.3c-3.9,0-6.9-1.5-9.1-4.6s-3.2-7.3-3.2-12.9s1.1-9.8,3.2-12.9s5.2-4.6,9.1-4.6c3.9,0,7,1.5,9.1,4.6
		s3.2,7.3,3.2,12.9s-1.1,9.8-3.2,12.9S77.8,807.3,73.8,807.3z M73.8,803.9c2.6,0,4.6-1.2,5.9-3.6s2-5.9,2-10.5s-0.7-8.1-2-10.5
		s-3.3-3.6-5.9-3.6s-4.6,1.2-5.9,3.6s-2,5.9-2,10.5s0.7,8.1,2,10.5S71.3,803.9,73.8,803.9z"/>
</g>
<g id="sine">
	<g id="sketch-10c01151">
		<path class="st4" d="M144,432L144,432l219,0.4l40.8,1.5l12-0.6l11.2-1.4l13.4-2.5l21.1-4.1l8.1-0.6l7,0.2l6.3,1l6.3,1.9l6.7,2.9
			l7.4,4.1l10.9,7.2l12,7.7l6.3,3l4.9,1.4l4.3,0.4l4.2-0.4l3.9-1.2l4.2-2.3l4.2-3.3l4.9-5.1l5.6-7.4l6.7-10.5l12.3-21.6l7.7-12.5
			l5.3-6.9l4.2-4l3.5-2.1l2.8-0.8l2.8,0.1l2.8,1.1l2.8,2l3.2,3.5l3.5,5.4l3.9,7.7l4.2,10.4l4.9,14.5l6,20.3l12,44.4l6.7,23l4.6,13.4
			l3.9,9.1l3.2,5.6l2.8,3.5l2.5,1.7l2,0.4l1.9-0.4l2.1-1.4l2.5-2.9l2.8-5.1l2.8-6.9l3.2-10l3.5-13.6l4.2-19.6l4.9-26.7l6.3-38.6
			l15.8-98.7l4.6-23.5l3.9-16.4l3.2-10.5l2.8-6.9l2.5-4l2.1-1.9l1.8-0.4l1.4,0.5l1.8,1.6l2.1,3.3l2.5,5.9l2.5,8l2.8,11.7l3.2,16.3
			l3.9,24l4.6,33.3l5.6,46.7l21.1,181.4l4.2,27.6l3.5,18.6l3.2,12.8l2.5,7.2l2.1,4.2l2.1,2.2l1.4,0.4l1.5-0.5l1.8-1.8l2.1-4l2.1-6
			l2.5-9.4l2.8-13.8l3.2-19.2l3.9-28.3l4.6-39.2l6-58.1l18.3-182.8l4.6-36.7l3.9-25.7l3.2-16.8l2.8-11.4l2.5-7.1l2.1-3.9l1.8-1.7
			l1.4-0.3l1.4,0.6l1.8,2l2.1,4.3l2.1,6.2l2.5,9.7l2.8,14.1l3.5,21.7L915,284l4.9,42.3l7.4,70.3l11.2,107l5.3,43.5l4.2,29.5
			l3.5,20.2l3.2,14.5l2.8,9.7l2.5,6l2.1,3.2l1.8,1.3l1.4,0.2l1.4-0.6l1.8-1.8l2.1-3.7l2.5-6.3l2.8-9.8l3.2-13.9l3.9-20.8l4.6-28.8
			l6.3-45l15.5-112.3l4.9-30l4.2-21.7l3.5-14.7l3.2-10.5l2.8-7l2.5-4.3l2.5-2.6l2.1-0.9l1.8,0.2l1.8,1l2.1,2.2l2.8,4.6l2.8,6.4
			l3.5,10.2l4.2,15.1l5.3,22l8.4,39l9.5,43l5.6,22.1l4.6,15l3.9,10.4l3.5,7.4l3.2,4.9l3.2,3.3l2.8,1.6l2.5,0.4l2.5-0.5l2.5-1.4
			l3.2-3l3.9-5.2l4.2-7.3l5.3-11l8.4-19.8l10.6-24.4l6-11.8l4.9-8l4.6-5.8l4.6-4.2l3.9-2.3l3.5-1.1l3.5-0.2l3.5,0.6l3.9,1.5l4.6,2.8
			l6,4.8l9.5,9.2l12.7,12l7,5.4l6,3.5l5.6,2.2l5.3,1.2l5.6,0.4l6-0.4l7-1.4l9.5-2.8l22.5-7l9.5-1.9l9.1-1l9.8-0.2l12.3,0.7l45.7,3.2
			l20,0l81.2-0.8L1584,432"/>
	</g>
	<g id="sketch-10c01151-2">
		<path class="st5" d="M144,432L144,432l181.8-0.4l52.4-0.9l35.2-1.4l27.8-1.9l23.2-2.4l20.4-2.9l18.6-3.5l17.2-4l16.2-4.6l15.5-5.3
			l15.1-6.1l14.8-6.9l14.8-7.8l14.8-8.8l15.5-10.3l16.2-11.9l17.2-13.8l19.3-16.8l24.6-22.7L761,247l17.2-14.4l14.4-10.9l12.7-8.4
			l11.6-6.7l10.9-5.3l10.2-4l9.5-2.8l9.1-1.9l9.1-1l9.1-0.2l9.1,0.7l9.1,1.5l9.1,2.4l9.5,3.3l10.2,4.4l10.5,5.6l11.6,7.1l12.7,8.9
			l14.4,11.3l16.9,14.5l22.2,20.3l61.9,57.5l19.7,16.6l17.2,13.3l16.2,11.3l15.5,9.7l15.1,8.5l15.1,7.4l15.1,6.5l15.5,5.7l15.8,4.9
			l16.5,4.2l17.6,3.6l19,3.1l21.1,2.5l23.9,2l28.5,1.6l35.9,1.1l50.3,0.7l91.1,0.3l62.9,0"/>
	</g>
</g>
</svg>
