<?xml version="1.0" encoding="UTF-8"?>
<svg id="Ebene_1" data-name="Ebene 1" xmlns="http://www.w3.org/2000/svg" width="1126.8" height="864" viewBox="0 0 1126.8 864">
  <g>
    <line x1="118.8" y1="50.2" x2="118.8" y2="813.8" fill="none" stroke="#c9d1d9" stroke-miterlimit="10" stroke-width="5.67"/>
    <polygon points="102.3 61.5 118.8 0 135.3 61.5 102.3 61.5" fill="#c9d1d9"/>
    <polygon points="102.3 802.5 118.8 864 135.3 802.5 102.3 802.5" fill="#c9d1d9"/>
  </g>
  <g>
    <line x1="1073" y1="432" x2="108" y2="432" fill="none" stroke="#c9d1d9" stroke-miterlimit="10" stroke-width="5.67"/>
    <polygon points="1061.7 415.5 1123.2 432 1061.7 448.5 1061.7 415.5" fill="#c9d1d9"/>
  </g>
  <g>
    <line x1="118.8" y1="176.9" x2="119.3" y2="176.9" fill="none" stroke="#c9d1d9" stroke-linecap="round" stroke-linejoin="round" stroke-width="4"/>
    <line x1="131.3" y1="176.9" x2="760.3" y2="176.9" fill="none" stroke="#c9d1d9" stroke-dasharray="0 0 0 0 0 0 1 11.96" stroke-linecap="round" stroke-linejoin="round" stroke-width="4"/>
    <line x1="766.3" y1="176.9" x2="766.8" y2="176.9" fill="none" stroke="#c9d1d9" stroke-linecap="round" stroke-linejoin="round" stroke-width="4"/>
  </g>
  <g>
    <line x1="766.8" y1="212.3" x2="766.8" y2="396.6" fill="none" stroke="#c9d1d9" stroke-miterlimit="10" stroke-width="4"/>
    <polygon points="755.2 220.2 766.8 176.9 778.4 220.2 755.2 220.2" fill="#c9d1d9"/>
    <polygon points="755.2 388.6 766.8 432 778.4 388.6 755.2 388.6" fill="#c9d1d9"/>
  </g>
  <g>
    <line x1="108" y1="72" x2="114" y2="72" fill="none" stroke="#c9d1d9" stroke-miterlimit="10" stroke-width="3"/>
    <line x1="126" y1="72" x2="1010.4" y2="72" fill="none" stroke="#c9d1d9" stroke-dasharray="0 0 0 0 0 0 12.03 12.03" stroke-miterlimit="10" stroke-width="3"/>
    <line x1="1016.4" y1="72" x2="1022.4" y2="72" fill="none" stroke="#c9d1d9" stroke-miterlimit="10" stroke-width="3"/>
  </g>
  <g>
    <line x1="910.8" y1="107.4" x2="910.8" y2="396.6" fill="none" stroke="#c9d1d9" stroke-miterlimit="10" stroke-width="4"/>
    <polygon points="899.2 115.4 910.8 72 922.4 115.4 899.2 115.4" fill="#c9d1d9"/>
    <polygon points="899.2 388.6 910.8 432 922.4 388.6 899.2 388.6" fill="#c9d1d9"/>
  </g>
  <g>
    <line x1="1022.4" y1="107.4" x2="1022.4" y2="756.6" fill="none" stroke="#c9d1d9" stroke-miterlimit="10" stroke-width="4"/>
    <polygon points="1010.8 115.4 1022.4 72 1034 115.4 1010.8 115.4" fill="#c9d1d9"/>
    <polygon points="1010.8 748.6 1022.4 792 1034 748.6 1010.8 748.6" fill="#c9d1d9"/>
  </g>
  <g>
    <line x1="118.8" y1="202.4" x2="124.8" y2="202.4" fill="none" stroke="#c9d1d9" stroke-miterlimit="10" stroke-width="3"/>
    <line x1="136.8" y1="202.4" x2="610.8" y2="202.4" fill="none" stroke="#c9d1d9" stroke-dasharray="0 0 0 0 0 0 12 12" stroke-miterlimit="10" stroke-width="3"/>
    <line x1="616.8" y1="202.4" x2="622.8" y2="202.4" fill="none" stroke="#c9d1d9" stroke-miterlimit="10" stroke-width="3"/>
  </g>
  <g>
    <line x1="1022.4" y1="792" x2="1016.4" y2="792" fill="none" stroke="#c9d1d9" stroke-miterlimit="10" stroke-width="3"/>
    <line x1="1004.4" y1="792" x2="120" y2="792" fill="none" stroke="#c9d1d9" stroke-dasharray="0 0 0 0 0 0 12.03 12.03" stroke-miterlimit="10" stroke-width="3"/>
    <line x1="114" y1="792" x2="108" y2="792" fill="none" stroke="#c9d1d9" stroke-miterlimit="10" stroke-width="3"/>
  </g>
  <path d="m118.8,432l.3-1,.3-1,.7-1,.3-1,.3-1,.3-1,.3-1,.7-1,.3-1,.3-1,.3-1,.3-1,.3-1,.7-1,.3-1,.3-1,.3-1,.3-1,.7-1,.3-1,.3-1,.3-1,.3-1,.3-1,.7-1,.3-1,.3-1,.3-1,.3-1,.7-2,.3-1,.3-1,.3-1,.3-1,.3-1,.7-1,.3-1,.3-1,.3-1,.3-1,.7-1,.3-1,.3-1,.3-1,.3-1,.3-1,.7-1,.3-1,.3-1,.3-1,.3-1,.7-1,.3-1,.3-1,.3-1,.3-1,.3-1,.7-1,.3-1,.3-1,.3-1,.3-1,.7-1,.3-1,.3-1,.3-1,.3-1,.3-1,.7-1,.3-1,.3-1,.3-1,.3-1,.7-1,.3-1,.3-1,.3-1,.3-1,.7-1,.3-1,.3-1,.3-1,.3-1,.3-1,.7-1,.3-1,.3-1,.3-1,.3-1,.7-1,.3-1,.3-1,.3-1,.3-1,.3-1,.7-1,.3-1h.3l.3-1,.3-1,.7-1,.3-1,.3-1,.3-1,.3-1,.3-1,.7-1,.3-1,.3-1,.3-1,.3-1,.7-1,.3-1,.3-1,.3-1,.3-1,.3-1,.7-1,.3-1,.3-1,.3-1,.3-1,.7-1,.3-1,.3-1,.3-1,.3-1h.3l.7-1,.3-1,.3-1,.3-1,.3-1,.7-1,.3-1,.3-1,.3-1,.3-1,.7-1,.3-1,.3-1,.3-1,.3-1,.3-1h.7l.3-1,.3-1,.3-1,.3-1,.7-1,.3-1,.3-1,.3-1,.3-1,.3-1,.7-1,.3-1,.3-1h.3l.3-1,.7-1,.3-1,.3-1,.3-1,.3-1,.3-1,.7-1,.3-1,.3-1h.3l.3-1,.7-1,.3-1,.3-1,.3-1,.3-1,.3-1,.7-1h.3l.3-1,.3-1,.3-1,.7-1,.3-1,.3-1,.3-1,.3-1h.3l.7-1,.3-1,.3-1,.3-1,.3-1,.7-1h.3l.3-1,.3-1,.3-1,.3-1,.7-1,.3-1,.3-1h.3l.3-1,.7-1,.3-1,.3-1,.3-1h.3l.7-1,.3-1,.3-1,.3-1,.3-1h.3l.7-1,.3-1,.3-1,.3-1,.3-1h.7l.3-1,.3-1,.3-1,.3-1,.3-1h.7l.3-1,.3-1,.3-1,.3-1h.7l.3-1,.3-1,.3-1,.3-1h.3l.7-1,.3-1,.3-1,.3-1h.3l.7-1,.3-1,.3-1h.3l.3-1,.3-1,.7-1,.3-1h.3l.3-1,.3-1,.7-1h.3l.3-1,.3-1,.3-1h.3l.7-1,.3-1,.3-1h.3l.3-1,.7-1,.3-1h.3l.3-1,.3-1,.7-1h.3l.3-1,.3-1,.3-1h.3l.7-1,.3-1h.3l.3-1,.3-1,.7-1h.3l.3-1,.3-1h.3l.3-1,.7-1h.3l.3-1,.3-1h.3l.7-1,.3-1,.3-1h.3l.3-1,.3-1h.7l.3-1,.3-1h.3l.3-1,.7-1h.3l.3-1,.3-1h.3l.3-1,.7-1h.3l.3-1h.3l.3-1,.7-1h.3l.3-1,.3-1h.3l.3-1,.7-1h.3l.3-1h.3l.3-1,.7-1h.3l.3-1h.3l.3-1,.3-1h.7l.3-1h.3l.3-1,.3-1h.7l.3-1h.3l.3-1,.3-1h.7l.3-1h.3l.3-1h.3l.3-1,.7-1h.3l.3-1h.3l.3-1h.7l.3-1h.3l.3-1h.3l.3-1,.7-1h.3l.3-1h.3l.3-1h.7l.3-1h.3l.3-1h.3l.3-1h.7l.3-1h.3l.3-1h.3l.7-1h.3l.3-1h.3l.3-1h.3l.7-1h.3l.3-1h.3l.3-1h1l.3-1h.3l.3-1h.3l.7-1h.3l.3-1h.7l.7-1h.3l.3-1h.3l.3-1h.7l.3-1h.7l.3-1h.3l.7-1h.7l.3-1h.3l.7-1h.7l.3-1h.3l.3-1h1l.3-1h.7l.7-1h.7l.3-1h.3l.3-1h1l.3-1h.7l.7-1h.7l.3-1h.7l.7-1h1l.3-1h1l.3-1h.7l.3-1h1.3l.3-1h1l.3-1h1l.3-1h1.3l.3-1h1.3l.3-1h1.7l.3-1h1l.7-1h1.3l.7-1h1.3l.3-1h2l.7-1h1.7l.7-1h2.6l.3-1h2.6l.7-1h4.3l.3-1h18.2l.7,1h3.6l.7,1h3l.3,1h2.3l.7,1h2.3l.3,1h1.7l.3,1h1.3l.7,1h1.3l.7,1h1.3l.3,1h1.3l.3,1h1.3l.3,1h1l.7,1h1l.3,1h1.3l.3,1h.7l.7,1h1l.3,1h1l.3,1h.7l.7,1h.7l.3,1h.7l.7,1h.7l.3,1h1l.3,1h.7l.3,1h1l.3,1h.3l.3,1h1l.3,1h.7l.3,1h.3l.7,1h.7l.3,1h.3l.7,1h.7l.3,1h.3l.3,1h.7l.3,1h.7l.3,1h.7l.3,1h.3l.3,1h.3l.3,1h1l.3,1h.3l.3,1h.7l.3,1h.3l.3,1h.3l.3,1h.7l.3,1h.3l.3,1h.3l.7,1h.3l.3,1h.3l.3,1h.7l.3,1h.3l.3,1h.3l.3,1h.7l.3,1h.3l.3,1h.3l.7,1h.3l.3,1h.3l.3,1h.3l.7,1,.3,1h.3l.3,1h.3l.7,1h.3l.3,1h.3l.3,1,.3,1h.7l.3,1h.3l.3,1,.3,1h.7l.3,1h.3l.3,1h.3l.3,1,.7,1h.3l.3,1h.3l.3,1,.7,1h.3l.3,1,.3,1h.3l.3,1h.7l.3,1,.3,1h.3l.3,1,.7,1h.3l.3,1,.3,1h.3l.7,1h.3l.3,1,.3,1h.3l.3,1,.7,1h.3l.3,1,.3,1h.3l.7,1,.3,1h.3l.3,1,.3,1h.3l.7,1,.3,1,.3,1h.3l.3,1,.7,1h.3l.3,1,.3,1h.3l.3,1,.7,1,.3,1h.3l.3,1,.3,1h.7l.3,1,.3,1,.3,1h.3l.3,1,.7,1,.3,1h.3l.3,1,.3,1h.7l.3,1,.3,1,.3,1h.3l.3,1,.7,1,.3,1h.3l.3,1,.3,1,.7,1,.3,1h.3l.3,1,.3,1,.3,1h.7l.3,1,.3,1,.3,1h.3l.7,1,.3,1,.3,1,.3,1h.3l.7,1,.3,1,.3,1,.3,1h.3l.3,1,.7,1,.3,1,.3,1h.3l.3,1,.7,1,.3,1,.3,1,.3,1h.3l.3,1,.7,1,.3,1,.3,1h.3l.3,1,.7,1,.3,1,.3,1,.3,1h.3l.3,1,.7,1,.3,1,.3,1,.3,1,.3,1h.7l.3,1,.3,1,.3,1,.3,1,.3,1h.7l.3,1,.3,1,.3,1,.3,1,.7,1,.3,1,.3,1h.3l.3,1,.3,1,.7,1,.3,1,.3,1,.3,1,.3,1h.7l.3,1,.3,1,.3,1,.3,1,.7,1,.3,1,.3,1,.3,1h.3l.3,1,.7,1,.3,1,.3,1,.3,1,.3,1,.7,1,.3,1,.3,1h.3l.3,1,.3,1,.7,1,.3,1,.3,1,.3,1,.3,1,.7,1,.3,1,.3,1,.3,1h.3l.3,1,.7,1,.3,1,.3,1,.3,1,.3,1,.7,1,.3,1,.3,1,.3,1,.3,1,.3,1,.7,1,.3,1h.3l.3,1,.3,1,.7,1,.3,1,.3,1,.3,1,.3,1,.3,1,.7,1,.3,1,.3,1,.3,1,.3,1,.7,1,.3,1,.3,1,.3,1,.3,1,.3,1,.7,1,.3,1h.3l.3,1,.3,1,.7,1,.3,1,.3,1,.3,1,.3,1,.7,1,.3,1,.3,1,.3,1,.3,1,.3,1,.7,1,.3,1,.3,1,.3,1,.3,1,.7,1,.3,1,.3,1,.3,1,.3,1,.3,1,.7,1,.3,1,.3,1,.3,1,.3,1,.7,1,.3,1,.3,1,.3,1,.3,1,.3,1,.7,1,.3,1,.3,1,.3,1,.3,1,.7,1,.3,1,.3,1,.3,1,.3,1,.3,1,.7,1,.3,1,.3,1,.3,1,.3,1,.7,1,.3,1,.3,1,.3,1,.3,1,.3,1,.7,1,.3,1,.3,1,.3,1,.3,1,.7,1,.3,1,.3,1,.3,1,.3,1,.7,1,.3,1,.3,1,.3,1,.3,1,.3,1,.7,1,.3,1,.3,1,.3,1,.3,1,.7,1,.3,1,.3,1,.3,1,.3,1,.3,1,.7,1,.3,1,.3,1,.3,1,.3,1,.7,1,.3,1,.3,1,.3,1,.3,1,.3,1,.7,1,.3,1,.3,1,.3,1,.3,1,.7,1,.3,1,.3,1,.3,1,.3,1,.3,1,.7,1,.3,1,.3,1,.3,1,.3,1,.7,1,.3,1,.3,1,.3,2,.3,1,.3,1,.7,1,.3,1,.3,1,.3,1,.3,1,.7,1,.3,1,.3,1,.3,1,.3,1,.3,1,.7,1,.3,1,.3,1,.3,1,.3,1,.7,1,.3,1,.3,1,.3,1,.3,1,.7,1,.3,1,.3,1,.3,1,.3,1,.3,1,.7,1,.3,1,.3,1,.3,1,.3,1,.7,1,.3,1,.3,1,.3,1,.3,1,.3,1,.7,1,.3,1,.3,1,.3,1,.3,1,.7,1,.3,1,.3,1,.3,1,.3,1,.3,1,.7,1,.3,1,.3,1,.3,1,.3,1,.7,1,.3,1,.3,1,.3,1,.3,1,.3,1,.7,1,.3,1,.3,1,.3,1,.3,1,.7,1,.3,1,.3,1,.3,1,.3,1,.3,1,.7,1,.3,1,.3,1,.3,1,.3,1,.7,1,.3,1,.3,1,.3,1,.3,1,.7,1,.3,1,.3,1,.3,1,.3,1,.3,1,.7,1,.3,1,.3,1,.3,1,.3,1,.7,1,.3,1,.3,1,.3,1,.3,1,.3,1,.7,1,.3,1,.3,1,.3,1,.3,1,.7,1,.3,1,.3,1,.3,1,.3,1,.3,1,.7,1,.3,1,.3,1h.3l.3,1,.7,1,.3,1,.3,1,.3,1,.3,1,.3,1,.7,1,.3,1,.3,1,.3,1,.3,1,.7,1,.3,1,.3,1,.3,1,.3,1,.3,1,.7,1,.3,1,.3,1h.3l.3,1,.7,1,.3,1,.3,1,.3,1,.3,1,.3,1,.7,1,.3,1,.3,1,.3,1,.3,1,.7,1,.3,1h.3l.3,1,.3,1,.7,1,.3,1,.3,1,.3,1,.3,1,.3,1,.7,1,.3,1,.3,1h.3l.3,1,.7,1,.3,1,.3,1,.3,1,.3,1,.3,1,.7,1,.3,1h.3l.3,1,.3,1,.7,1,.3,1,.3,1,.3,1,.3,1,.3,1h.7l.3,1,.3,1,.3,1,.3,1,.7,1,.3,1,.3,1h.3l.3,1,.3,1,.7,1,.3,1,.3,1,.3,1,.3,1h.7l.3,1,.3,1,.3,1,.3,1,.3,1h.7l.3,1,.3,1,.3,1,.3,1,.7,1,.3,1h.3l.3,1,.3,1,.7,1,.3,1,.3,1h.3l.3,1,.3,1,.7,1,.3,1h.3l.3,1,.3,1,.7,1,.3,1,.3,1h.3l.3,1,.3,1,.7,1,.3,1h.3l.3,1,.3,1,.7,1,.3,1h.3l.3,1,.3,1,.3,1,.7,1h.3l.3,1,.3,1,.3,1h.7l.3,1,.3,1,.3,1h.3l.3,1,.7,1,.3,1,.3,1h.3l.3,1,.7,1,.3,1h.3l.3,1,.3,1,.3,1h.7l.3,1,.3,1h.3l.3,1,.7,1,.3,1h.3l.3,1,.3,1,.3,1h.7l.3,1,.3,1h.3l.3,1,.7,1,.3,1h.3l.3,1,.3,1h.7l.3,1,.3,1h.3l.3,1,.3,1,.7,1h.3l.3,1,.3,1h.3l.7,1,.3,1h.3l.3,1,.3,1h.3l.7,1,.3,1h.3l.3,1,.3,1h.7l.3,1h.3l.3,1,.3,1h.3l.7,1,.3,1h.3l.3,1,.3,1h.7l.3,1h.3l.3,1,.3,1h.3l.7,1,.3,1h.3l.3,1h.3l.7,1,.3,1h.3l.3,1h.3l.3,1h.7l.3,1,.3,1h.3l.3,1h.7l.3,1,.3,1h.3l.3,1h.7l.3,1h.3l.3,1h.3l.3,1,.7,1h.3l.3,1h.3l.3,1h.7l.3,1h.3l.3,1h.3l.3,1h.7l.3,1h.3l.3,1h.3l.7,1h.3l.3,1h.3l.3,1h.3l.7,1h.3l.3,1h.3l.3,1h.7l.3,1h.3l.3,1h.3l.3,1h.7l.3,1h.3l.3,1h1l.3,1h.3l.3,1h.3l.3,1h.7l.3,1h.7l.3,1h.7l.3,1h.3l.3,1h.7l.7,1h.3l.3,1h.7l.7,1h.3l.3,1h.7l.7,1h.7l.3,1h.3l.3,1h1l.3,1h.7l.7,1h.7l.3,1h.7l.7,1h.7l.3,1h1l.3,1h.7l.3,1h1l.3,1h1l.7,1h.7l.3,1h1.3l.3,1h1l.7,1h1l.3,1h1.3l.3,1h1.3l.3,1h1.7l.3,1h1.3l.7,1h1.3l.7,1h1.3l.3,1h2.7l.3,1h2.3l.3,1h3l.7,1h3.6l.7,1h18.2l.3-1h4.3l.7-1h2.7l.3-1h2.7l.7-1h2l.3-1h2l.3-1h1.7l.3-1h1.3l.7-1h1l.3-1h1.7l.3-1h1.3l.3-1h1.3l.3-1h1l.3-1h1l.3-1h1.3l.3-1h.7l.3-1h1l.3-1h1l.7-1h.7l.3-1h.7l.7-1h.7l.3-1h1l.3-1h.3l.3-1h1l.3-1h.7l.3-1h1l.3-1h.3l.3-1h1l.3-1h.3l.3-1h.7l.7-1h.3l.3-1h.7l.7-1h.3l.3-1h.3l.3-1h.3l.7-1h.7l.3-1h.3l.7-1h.3l.3-1h.3l.3-1h1l.3-1h.3l.3-1h.3l.7-1h.3l.3-1h.3l.3-1h.3l.7-1h.3l.3-1h.3l.3-1h.7l.3-1h.3l.3-1h.3l.7-1h.3l.3-1h.3l.3-1h.3l.7-1,.3-1h.3l.3-1h.3l.7-1h.3l.3-1h.3l.3-1h.3l.7-1,.3-1h.3l.3-1h.3l.7-1h.3l.3-1,.3-1h.3l.3-1h.7l.3-1,.3-1h.3l.3-1h.7l.3-1,.3-1h.3l.3-1h.3l.7-1,.3-1h.3l.3-1h.3l.7-1,.3-1h.3l.3-1,.3-1h.3l.7-1,.3-1h.3l.3-1h.3l.7-1,.3-1h.3l.3-1,.3-1h.3l.7-1,.3-1h.3l.3-1,.3-1h.7l.3-1,.3-1h.3l.3-1,.7-1,.3-1h.3l.3-1,.3-1h.3l.7-1,.3-1h.3l.3-1,.3-1h.7l.3-1,.3-1,.3-1h.3l.3-1,.7-1h.3l.3-1,.3-1,.3-1h.7l.3-1,.3-1,.3-1h.3l.3-1,.7-1,.3-1h.3l.3-1,.3-1,.7-1h.3l.3-1,.3-1,.3-1h.3l.7-1,.3-1,.3-1h.3l.3-1,.7-1,.3-1,.3-1h.3l.3-1,.3-1,.7-1h.3l.3-1,.3-1,.3-1,.7-1h.3l.3-1,.3-1,.3-1,.7-1h.3l.3-1,.3-1,.3-1,.3-1h.7l.3-1,.3-1,.3-1,.3-1,.7-1h.3l.3-1,.3-1,.3-1,.3-1,.7-1h.3l.3-1,.3-1,.3-1,.7-1,.3-1h.3l.3-1,.3-1,.3-1,.7-1,.3-1h.3l.3-1,.3-1,.7-1,.3-1,.3-1,.3-1,.3-1h.3l.7-1,.3-1,.3-1,.3-1,.3-1,.7-1h.3l.3-1,.3-1,.3-1,.3-1,.7-1,.3-1,.3-1,.3-1h.3l.7-1,.3-1,.3-1,.3-1,.3-1,.3-1,.7-1,.3-1h.3l.3-1,.3-1,.7-1,.3-1,.3-1,.3-1,.3-1,.7-1,.3-1,.3-1h.3l.3-1,.3-1,.7-1,.3-1,.3-1,.3-1,.3-1,.7-1,.3-1,.3-1,.3-1,.3-1,.3-1h.7l.3-1,.3-1,.3-1,.3-1,.7-1,.3-1,.3-1,.3-1,.3-1,.3-1,.7-1,.3-1,.3-1,.3-1,.3-1,.7-1h.3l.3-1,.3-1,.3-1,.3-1,.7-1,.3-1,.3-1,.3-1,.3-1,.7-1,.3-1,.3-1,.3-1,.3-1,.3-1,.7-1,.3-1,.3-1,.3-1,.3-1,.7-1,.3-1,.3-1,.3-1,.3-1,.7-1,.3-1,.3-1,.3-1h.3l.3-1,.7-1,.3-1,.3-1,.3-1,.3-1,.7-1,.3-1,.3-1,.3-1,.3-1,.3-1,.7-1,.3-1,.3-1,.3-1,.3-1,.7-1,.3-1,.3-1,.3-1,.3-1,.3-1,.7-1,.3-1,.3-1,.3-1,.3-1,.7-1,.3-1,.3-1,.3-1,.3-1,.3-1,.7-1,.3-1,.3-1,.3-1,.3-1,.7-1,.3-1,.3-1,.3-1,.3-1,.3-1,.7-1,.3-1,.3-1,.3-1,.3-1,.7-1,.3-1,.3-1,.3-1,.3-1,.3-1,.7-1,.3-1,.3-1,.3-1,.3-1,.7-1,.3-1,.3-1,.3-1,.3-1,.7-1,.3-2,.3-1,.3-1,.3-1,.3-1,.7-1,.3-1,.3-1,.3-1,.3-1,.7-1,.3-1,.3-1,.3-1,.3-1,.3-1,.7-1,.3-1,.3-1,.3-1,.3-1,.7-1,.3-1,.3-1,.3-1,.3-1,.3-1,.7-1,.3-1" fill="none" stroke="#d85648" stroke-linecap="round" stroke-linejoin="round" stroke-width="4"/>
  <g isolation="isolate">
    <path d="m82.2,87.6c-2.6,0-4.9-.5-6.8-1.5s-3.4-2.4-4.5-4.2-1.6-4-1.6-6.4v-22.2h4.2v21.8c0,2.8.8,5,2.3,6.6s3.7,2.4,6.3,2.4,4.8-.8,6.3-2.4,2.3-3.8,2.3-6.6v-21.8h4.2v22.2c0,2.5-.5,4.6-1.6,6.4s-2.5,3.2-4.5,4.2-4,1.5-6.6,1.5Zm-4-37.9l-3.2-1.5,4.8-6.7h4.9l4.8,6.7-3.2,1.6-4-5.9-4.1,5.8Z" fill="#c9d1d9"/>
  </g>
  <g isolation="isolate">
    <path d="m56.7,794.1v-3.7h15.7v3.7h-15.7Z" fill="#c9d1d9"/>
    <path d="m91,807.6c-2.6,0-4.9-.5-6.8-1.5s-3.4-2.4-4.5-4.2-1.6-4-1.6-6.4v-22.2h4.2v21.8c0,2.8.8,5,2.3,6.6s3.7,2.4,6.3,2.4,4.8-.8,6.3-2.4,2.3-3.8,2.3-6.6v-21.8h4.2v22.2c0,2.5-.5,4.6-1.6,6.4s-2.5,3.2-4.5,4.2-4,1.5-6.6,1.5Zm-4-37.9l-3.2-1.6,4.8-6.7h4.9l4.8,6.7-3.2,1.6-4-5.9-4.1,5.9Z" fill="#c9d1d9"/>
  </g>
  <g isolation="isolate">
    <path d="m84.9,447.3c-3.9,0-6.9-1.5-9.1-4.6s-3.2-7.3-3.2-12.9,1.1-9.8,3.2-12.9,5.2-4.6,9.1-4.6,7,1.5,9.1,4.6,3.2,7.3,3.2,12.9-1.1,9.8-3.2,12.9-5.2,4.6-9.1,4.6Zm0-3.4c2.6,0,4.6-1.2,5.9-3.6s2-5.9,2-10.5-.7-8.1-2-10.5-3.3-3.6-5.9-3.6-4.6,1.2-5.9,3.6-2,5.9-2,10.5.7,8.1,2,10.5,3.3,3.6,5.9,3.6Z" fill="#c9d1d9"/>
  </g>
  <g isolation="isolate">
    <path d="m1107.2,496.8c-1,0-1.9-.3-2.6-1s-1.1-1.5-1.1-2.5v-18.5h-4.1v-3.3h4.1v-5.3l3.9-.8v6.1h5v3.3h-5v17.5c0,.5.1.9.2,1s.5.3.9.3h3.9v3.3h-5.2v-.1Z" fill="#c9d1d9"/>
  </g>
  <g isolation="isolate">
    <path d="m885.1,319.8c-2.1,0-4-.4-5.8-1.2s-3.2-2-4.4-3.6-1.8-3.5-2-5.7l4.3-1.3c.2,2.5.9,4.6,2.3,6.1s3.2,2.3,5.6,2.3c2.1,0,3.9-.6,5.3-1.8s2.1-3,2.1-5.3c0-.9-.2-1.9-.6-2.9s-1.1-1.9-2.1-2.6-2.4-1.1-4.2-1.1h-4.6v-3.6h4.3c2,0,3.5-.5,4.6-1.6s1.6-2.2,1.6-3.6c0-1.6-.5-2.9-1.6-4s-2.6-1.7-4.6-1.7c-2.5,0-4.3.7-5.4,2.1s-1.8,3.4-2,5.9l-4.3-1.3c.1-1.6.6-3.2,1.6-4.7s2.3-2.8,4.1-3.8,3.8-1.5,6.1-1.5c1.9,0,3.7.4,5.2,1.1s2.8,1.8,3.7,3.1,1.4,2.8,1.4,4.5c0,1.1-.2,2.2-.7,3.1s-1.2,1.8-2.1,2.4-2.1,1.2-3.6,1.5c2.4.4,4.2,1.4,5.6,3s2.1,3.4,2.1,5.5c0,1.9-.3,3.5-1,4.8s-1.6,2.4-2.7,3.3-2.4,1.5-3.8,1.9-2.9.7-4.4.7Z" fill="#c9d1d9"/>
  </g>
  <g isolation="isolate">
    <path d="m1001.4,319.2v-11.2h0v-20l1,2.2-15,17.8-1.4-1.2h23.3v3.6h-25.2v-4l17.8-21h3.5v33.8h-4Z" fill="#c9d1d9"/>
  </g>
  <g isolation="isolate">
    <path d="m728.8,319.2v-2.8l11.9-10.1c1.6-1.4,2.9-2.6,3.9-3.8s1.8-2.3,2.3-3.4.7-2.4.7-3.9-.3-2.8-.8-3.9-1.3-1.8-2.3-2.4-2.3-.8-3.7-.8c-1.7,0-3.1.3-4.1,1s-1.8,1.6-2.3,2.7-.8,2.4-.9,3.8l-4.5-1.4c.1-1.5.6-3,1.6-4.4s2.4-2.7,4.1-3.6,3.8-1.4,6.1-1.4c1.3,0,2.6.2,4,.6s2.6,1,3.7,1.8,2,1.9,2.7,3.2,1,2.9,1,4.8c0,2.7-.7,5.1-2.2,7.2s-3.5,4.2-6.1,6.3l-9.2,7.4-3-.6h21.1v3.6h-24v.1Z" fill="#c9d1d9"/>
  </g>
  <g isolation="isolate">
    <path d="m39.6,501.3l-33.7,12.8v-4.5l30.8-11.1v.9l-30.8-11v-4.5l33.8,12.8v4.6h-.1Z" fill="#c9d1d9"/>
  </g>
  <g isolation="isolate">
    <path d="m40.2,471.5c0,2.4-.6,4.5-1.7,6.3s-2.7,3.2-4.7,4.2-4.3,1.5-6.9,1.5-4.9-.5-6.8-1.5-3.5-2.4-4.7-4.2-1.7-3.9-1.7-6.3.6-4.5,1.7-6.3,2.7-3.2,4.7-4.2,4.3-1.5,6.9-1.5,4.9.5,6.9,1.5c2,1,3.5,2.4,4.7,4.2s1.6,3.9,1.6,6.3Zm-3.3,0c0-2.4-.9-4.3-2.7-5.7s-4.2-2.1-7.3-2.1-5.5.7-7.3,2.1-2.7,3.3-2.7,5.7.9,4.3,2.7,5.7,4.2,2.1,7.3,2.1,5.5-.7,7.3-2.1,2.7-3.3,2.7-5.7Z" fill="#c9d1d9"/>
    <path d="m39.6,449.8c0,1-.3,1.9-1,2.6s-1.5,1.1-2.5,1.1H4.4v-3.9h30.6c.5,0,.9-.1,1-.2s.3-.5.3-.9v-2.5h3.3v3.8Z" fill="#c9d1d9"/>
    <path d="m39.6,436c0,1-.3,1.9-1,2.6s-1.5,1.1-2.5,1.1h-18.5v4.1h-3.3v-4.1h-5.3l-.8-3.9h6.1v-5h3.3v5h17.4c.5,0,.9-.1,1-.2s.3-.5.3-.9v-3.9h3.3v5.2Z" fill="#c9d1d9"/>
    <path d="m40.2,418.9c0,1.7-.3,3.2-1,4.4s-1.5,2.2-2.7,2.9-2.4,1-3.8,1c-1.5,0-2.9-.4-4.2-1.3s-2.3-2.3-3.1-4.1-1.2-4.3-1.2-7.2v-4.2l.4.4h-1.4c-2,0-3.6.4-4.7,1.2s-1.5,2.1-1.5,4c0,1.8.5,3.2,1.4,4.1s2.2,1.5,3.7,1.5l-1,4.4c-1.4-.1-2.6-.7-3.7-1.6s-2-2.1-2.7-3.6-1-3.3-1-5.2c0-2,.4-3.7,1.2-5s1.9-2.2,3.3-2.8,3.2-.9,5.2-.9h11.6c.5,0,.9-.1,1-.2s.3-.5.3-.9v-1.4h3.3v2.5c0,1.1-.3,2-1,2.7s-1.5,1.1-2.5,1.1h-1.8v-.7c.7.2,1.3.6,2,1.1s1.3,1.1,1.9,1.8,1.1,1.6,1.4,2.6.6,2.1.6,3.4Zm-3.3-.9c0-1.3-.3-2.5-1-3.6s-1.6-2-3-2.7-3.1-1-5.3-1h-.2v4c0,2.1.3,3.7.8,4.9s1.2,2,2,2.5,1.6.8,2.4.8,1.5-.2,2.2-.5,1.2-.9,1.5-1.6.6-1.8.6-2.8Z" fill="#c9d1d9"/>
    <path d="m16.4,385.4h-2.5c-1,0-1.9-.4-2.5-1.1s-1-1.6-1-2.6v-3h3.3v2.5c0,.5.1.8.3.9s.5.2,1,.2h1.5v3.1h-.1Zm32.9,4.6c0,3.8-.5,6.5-1.6,8.3s-2.7,2.7-4.9,2.7c-1.2,0-2.4-.3-3.4-1s-1.7-1.8-2.3-3.3c-.4.6-.8,1.1-1.4,1.5s-1.3.6-2,.6c-.9,0-1.7-.3-2.4-.8s-1.2-1.3-1.5-2.3c-.7,1.2-1.7,2.2-3,2.9s-2.7,1-4.4,1c-1.8,0-3.4-.4-4.7-1.2s-2.3-2-3.1-3.4-1.1-3.3-1.1-5.3.4-3.8,1.1-5.4,1.7-2.7,3.1-3.5,2.9-1.2,4.7-1.2,3.3.4,4.7,1.2,2.3,2,3,3.5,1.1,3.3,1.1,5.4v2.2c0,2,.6,3,1.8,3,1.1,0,1.7-1,1.7-2.9v-5.1c0-2,.2-3.6.7-4.8s1.1-2.2,1.8-2.8,1.5-1.1,2.4-1.3,1.6-.4,2.4-.4c2.5,0,4.3.9,5.5,2.7s1.8,4.6,1.8,8.4c0,0,0,1.3,0,1.3Zm-20.7-.4c0-2-.5-3.5-1.5-4.6s-2.5-1.6-4.4-1.6-3.4.5-4.5,1.6-1.6,2.6-1.6,4.6.5,3.5,1.6,4.5,2.6,1.6,4.5,1.6,3.4-.5,4.4-1.6,1.5-2.6,1.5-4.5Zm17.6.4v-1.5c0-4.7-1.4-7-4.2-7-1.2,0-2.1.4-2.8,1.3s-1.1,2.3-1.1,4.3v4.4c0,1.6.3,2.9.9,3.9s1.7,1.6,3.1,1.6,2.4-.6,3.1-1.7,1-2.9,1-5.3Z" fill="#c9d1d9"/>
    <path d="m40.2,362.2c0,2.4-.5,4.5-1.6,6.2s-2.6,3.1-4.6,4.1-4.3,1.4-7,1.4-5-.5-7-1.4-3.5-2.3-4.6-4-1.6-3.8-1.6-6.1c0-1.3.2-2.7.6-4s1.2-2.6,2.2-3.7c1-1.1,2.5-2,4.3-2.7s4.2-1,6.9-1v20.5h-3.2v-17.1l1.5,1.1c-2.2.1-4,.4-5.3,1.1s-2.3,1.5-2.9,2.5-.9,2.2-.9,3.4c0,1.5.4,2.8,1.2,3.8s1.9,1.9,3.4,2.5,3.3.9,5.4.9c3.2,0,5.6-.6,7.3-1.9s2.6-3.1,2.6-5.5c0-1.7-.4-3.1-1.3-4.3s-2.1-2-3.7-2.6l1.3-3.9c1.5.6,2.7,1.4,3.8,2.4s1.8,2.2,2.4,3.6.8,2.9.8,4.7Z" fill="#c9d1d9"/>
  </g>
  <g>
    <path d="m26.9,614.6v11.4h-3.5v-11.4c-.1,0,3.5,0,3.5,0Z" fill="#c9d1d9"/>
    <path d="m21.3,248.6v-9.5h4.1v9.5h10.8v4.4h-10.8v9.5h-4.1v-9.5h-10v-4.4h10Z" fill="#c9d1d9"/>
  </g>
  <g>
    <line x1="622.8" y1="237.9" x2="622.8" y2="396.6" fill="none" stroke="#c9d1d9" stroke-miterlimit="10" stroke-width="4"/>
    <polygon points="611.2 245.8 622.8 202.4 634.4 245.8 611.2 245.8" fill="#c9d1d9"/>
    <polygon points="611.2 388.6 622.8 432 634.4 388.6 611.2 388.6" fill="#c9d1d9"/>
  </g>
  <g isolation="isolate">
    <path d="m591.7,319.2v-26.9c-1.2,1.1-2.4,2-3.5,2.7s-2.3,1.3-3.6,1.8v-4c.7-.3,1.4-.7,2.2-1.2s1.6-1.2,2.6-2.2,2.1-2.3,3.4-4h3v33.8h-4.1Z" fill="#c9d1d9"/>
  </g>
</svg>