<?xml version="1.0" encoding="UTF-8"?>
<svg id="Ebene_1" data-name="Ebene 1" xmlns="http://www.w3.org/2000/svg" width="525.6" height="532.8" viewBox="0 0 525.6 532.8">
  <g id="Circle">
    <g>
      <line x1="21.6" y1="475.2" x2="514.8" y2="475.2" fill="none" stroke="#c9d1d9" stroke-miterlimit="10" stroke-width="3"/>
      <path d="m494.3,489.6c-.5-.7-.2-1.6.5-2.1l19.4-12.3-19.4-12.3c-.7-.5-.9-1.4-.5-2.1s1.4-.9,2.1-.5l21.3,13.6c.4.3.7.8.7,1.3s-.3,1-.7,1.3l-21.3,13.6c-.2.2-.5.2-.8.2-.5,0-1-.3-1.3-.7h0Z" fill="#c9d1d9"/>
    </g>
    <g>
      <line x1="50.4" y1="504" x2="50.4" y2="10.8" fill="none" stroke="#c9d1d9" stroke-miterlimit="10" stroke-width="3"/>
      <path d="m64.8,31.3c-.7.5-1.6.2-2.1-.5l-12.3-19.3-12.3,19.4c-.5.7-1.4.9-2.1.5s-.9-1.4-.5-2.1l13.6-21.4c.3-.4.8-.7,1.3-.7s1,.3,1.3.7l13.6,21.3c.2.2.2.5.2.8,0,.5-.3,1-.7,1.3h0Z" fill="#c9d1d9"/>
    </g>
  </g>
  <path d="m392,224v247.2H62.4l329.6-247.2m4-8L50.4,475.2h345.6V216h0Z" fill="#c9d1d9"/>
  <g>
    <path d="m7.2,45.3c.4,0,.8-.1,1.3-.1" fill="none" stroke="#c9d1d9" stroke-miterlimit="10" stroke-width="3"/>
    <path d="m11,45c123.3-11.2,250.5,30.4,344.9,124.7,91,91,133,212.6,125.7,331.7" fill="none" stroke="#c9d1d9" stroke-dasharray="0 0 0 0 0 0 2.54 2.54" stroke-miterlimit="10" stroke-width="3"/>
    <path d="m481.5,502.7c0,.4,0,.8-.1,1.3" fill="none" stroke="#c9d1d9" stroke-miterlimit="10" stroke-width="3"/>
  </g>
  <path d="m331.2,475.2c0-35.8,29-64.8,64.8-64.8" fill="none" stroke="#c9d1d9" stroke-miterlimit="10" stroke-width="2"/>
  <circle cx="367.2" cy="446.4" r="1.1" fill="none" stroke="#c9d1d9" stroke-miterlimit="10" stroke-width="3"/>
  <g isolation="isolate">
    <path d="m159.1,518.6c-2.4,0-4.4-.5-6.2-1.6s-3.1-2.6-4-4.6-1.4-4.3-1.4-7,.5-5,1.4-7,2.3-3.5,4-4.6,3.8-1.6,6.2-1.6c1.8,0,3.4.3,4.9,1s2.6,1.6,3.6,2.9,1.7,2.7,2.2,4.5l-4,1.1c-.4-2-1.2-3.5-2.4-4.5s-2.6-1.6-4.3-1.6c-2.3,0-4.1.9-5.4,2.6s-1.9,4.2-1.9,7.3c0,3.2.6,5.6,1.9,7.4,1.3,1.8,3.1,2.6,5.4,2.6,1.7,0,3.2-.5,4.3-1.5s1.9-2.5,2.4-4.4l4,1.1c-.4,1.3-.9,2.4-1.5,3.4s-1.4,1.9-2.3,2.6-1.9,1.2-3,1.6-2.5.3-3.9.3Z" fill="#c9d1d9"/>
    <path d="m186,518.6c-2.4,0-4.5-.6-6.3-1.7s-3.2-2.7-4.2-4.7-1.5-4.3-1.5-6.9.5-4.9,1.5-6.9,2.4-3.5,4.2-4.7,3.9-1.7,6.3-1.7,4.5.6,6.3,1.7,3.2,2.7,4.2,4.7,1.5,4.3,1.5,6.9-.5,4.9-1.5,6.9-2.4,3.5-4.2,4.7-4,1.7-6.3,1.7Zm0-3.3c2.4,0,4.3-.9,5.7-2.7s2.1-4.2,2.1-7.3-.7-5.5-2.1-7.3-3.3-2.7-5.7-2.7-4.3.9-5.7,2.7-2.1,4.2-2.1,7.3.7,5.5,2.1,7.3,3.3,2.7,5.7,2.7Z" fill="#c9d1d9"/>
    <path d="m212.8,518.6c-1.8,0-3.5-.3-5-.9s-2.7-1.5-3.7-2.7-1.6-2.8-2-4.7l4.1-.8c.2,2,.8,3.5,2,4.4s2.7,1.5,4.4,1.5c1.8,0,3.2-.4,4.2-1.3s1.6-2,1.6-3.3c0-1.1-.4-2-1.1-2.6s-1.8-1.1-3.2-1.4l-3.1-.6c-.8-.2-1.7-.4-2.6-.7s-1.7-.7-2.5-1.2-1.4-1.2-1.9-2-.7-1.8-.7-3.1c0-1.7.4-3,1.3-4.1s2-1.8,3.4-2.4,3-.8,4.6-.8c1.8,0,3.4.3,4.7.8s2.4,1.4,3.3,2.4,1.4,2.3,1.7,3.8l-4.3.9c-.1-1-.4-1.8-.8-2.5s-1-1.2-1.7-1.6-1.7-.6-2.9-.6c-1.5,0-2.7.3-3.8.9s-1.6,1.5-1.6,2.8c0,.7.2,1.3.5,1.8s.9.9,1.6,1.2,1.6.6,2.7.8l3.1.7c1.3.3,2.5.7,3.6,1.2s2,1.2,2.7,2.2,1,2.1,1,3.7c0,1.7-.4,3.1-1.3,4.3s-2,2.1-3.5,2.8-2.9,1.1-4.8,1.1Z" fill="#c9d1d9"/>
    <path d="m246.6,526c-2.4-3.1-4.3-6.5-5.5-10.1s-1.9-7.4-1.9-11.4c0-3.9.6-7.7,1.9-11.4s3.1-7,5.5-10.2h4.2c-2.7,3.6-4.7,7.1-5.9,10.5s-1.9,7.1-1.9,11.1.6,7.7,1.8,11.1,3.2,6.9,6,10.4h-4.2Z" fill="#c9d1d9"/>
    <path d="m266.4,518.4c-4-.4-7.1-1.7-9.2-4.1s-3.2-5.6-3.2-9.5c0-2.6.5-5,1.5-7,1-2,2.5-3.8,4.5-5.1l2.4,3.1c-2.5,2.2-3.9,5.2-4,9,0,2.7.7,4.9,2.1,6.7,1.4,1.8,3.4,2.9,6,3.3v-16.8c0-1.6.5-2.9,1.6-3.9s2.5-1.5,4.3-1.5c2,0,3.9.6,5.7,1.7s3.1,2.6,4.2,4.6,1.5,4.1,1.5,6.4c0,3.8-1.1,6.9-3.4,9.2s-5.4,3.6-9.5,4v10.8h-4.3v-10.9h-.2Zm4.4-3.6c2.7-.3,4.8-1.4,6.3-3.1s2.3-3.9,2.3-6.4c-.1-2.6-.8-4.8-2.1-6.5s-2.9-2.5-5-2.5c-1,0-1.5.6-1.5,1.9v16.6h0Z" fill="#c9d1d9"/>
    <path d="m286.8,526c2.8-3.5,4.8-7,6-10.4s1.8-7.1,1.8-11.1c0-3.9-.6-7.6-1.9-11.1s-3.2-6.9-5.9-10.5h4.2c2.4,3.1,4.2,6.5,5.5,10.2s1.9,7.5,1.9,11.4c0,4-.6,7.8-1.9,11.4s-3.1,7-5.5,10.1h-4.2Z" fill="#c9d1d9"/>
  </g>
  <g>
    <line x1="302.4" y1="504" x2="378.3" y2="504" fill="none" stroke="#c9d1d9" stroke-miterlimit="10" stroke-width="2"/>
    <polygon points="374.3 509.8 396 504 374.3 498.2 374.3 509.8" fill="#c9d1d9"/>
  </g>
  <g>
    <line x1="144" y1="504" x2="68.1" y2="504" fill="none" stroke="#c9d1d9" stroke-miterlimit="10" stroke-width="2"/>
    <polygon points="72.1 498.2 50.4 504 72.1 509.8 72.1 498.2" fill="#c9d1d9"/>
  </g>
  <g isolation="isolate">
    <path d="m439.4,404c0,1.8-.3,3.5-.9,5s-1.5,2.7-2.7,3.7-2.8,1.6-4.7,2l-.8-4.1c2-.2,3.5-.8,4.4-2s1.5-2.7,1.5-4.4c0-1.8-.4-3.2-1.3-4.2s-2-1.6-3.3-1.6c-1.1,0-2,.4-2.6,1.1s-1.1,1.8-1.4,3.2l-.6,3.1c-.2.8-.4,1.7-.7,2.6s-.7,1.7-1.2,2.5-1.2,1.4-2,1.9-1.8.7-3.1.7c-1.7,0-3-.4-4.1-1.3s-1.8-2-2.4-3.4-.8-3-.8-4.6c0-1.8.3-3.4.8-4.7s1.4-2.4,2.4-3.3,2.3-1.4,3.8-1.7l.9,4.3c-1,.1-1.8.4-2.5.8s-1.2,1-1.6,1.7-.6,1.7-.6,2.9c0,1.5.3,2.7.9,3.8s1.5,1.6,2.8,1.6c.7,0,1.3-.2,1.8-.5s.9-.9,1.2-1.6.6-1.6.8-2.7l.7-3.1c.3-1.3.7-2.5,1.2-3.6s1.2-2,2.2-2.7,2.1-1,3.7-1c1.7,0,3.1.4,4.3,1.3s2.1,2,2.8,3.5,1.1,2.8,1.1,4.8Z" fill="#c9d1d9"/>
    <path d="m409.3,386.1c0,.9-.3,1.7-1,2.3s-1.4,1-2.3,1-1.7-.3-2.3-1-.9-1.4-.9-2.3.3-1.7.9-2.3,1.4-.9,2.3-.9,1.7.3,2.3.9,1,1.4,1,2.3Zm29.5,2h-25.3v-3.9h25.3v3.9Z" fill="#c9d1d9"/>
    <path d="m438.8,376.5h-25.3v-3.7h5.7l-1,.2c-1.5-.7-2.7-1.7-3.7-3.2s-1.5-3.2-1.5-5.3c0-1.8.4-3.3,1.2-4.6s1.9-2.3,3.4-3,3.3-1.1,5.3-1.1h15.9v3.9h-15.6c-2.1,0-3.8.4-5,1.3s-1.9,2.3-1.9,4.2c0,2.1.8,3.9,2.4,5.3s3.9,2.1,6.9,2.1h13.2v3.9Z" fill="#c9d1d9"/>
    <path d="m446.8,330.7c-3.1,2.4-6.5,4.3-10.1,5.5s-7.4,1.9-11.4,1.9c-3.9,0-7.7-.6-11.4-1.9s-7-3.1-10.2-5.5v-4.2c3.6,2.7,7.1,4.7,10.5,5.9s7.1,1.9,11.1,1.9,7.7-.6,11.1-1.8,6.9-3.2,10.4-6v4.2Z" fill="#c9d1d9"/>
    <path d="m439.2,310.9c-.4,4-1.7,7.1-4.1,9.2s-5.6,3.2-9.5,3.2c-2.6,0-5-.5-7-1.5s-3.8-2.5-5.1-4.5l3.1-2.4c2.2,2.5,5.2,3.9,9,4,2.7,0,4.9-.7,6.7-2.1s2.9-3.4,3.3-6h-16.8c-1.6,0-2.9-.5-3.9-1.6s-1.5-2.5-1.5-4.3c0-2,.6-3.9,1.7-5.7s2.6-3.1,4.6-4.2,4.1-1.5,6.4-1.5c3.8,0,6.9,1.1,9.2,3.4s3.6,5.4,4,9.5h10.7v4.3h-10.8v.2Zm-3.6-4.4c-.3-2.7-1.4-4.8-3.1-6.3s-3.9-2.3-6.4-2.3c-2.6.1-4.8.8-6.5,2.1s-2.5,2.9-2.5,5c0,1,.6,1.5,1.9,1.5h16.6Z" fill="#c9d1d9"/>
    <path d="m446.8,290.5c-3.5-2.8-7-4.8-10.4-6s-7.1-1.8-11.1-1.8c-3.9,0-7.6.6-11.1,1.9s-6.9,3.2-10.5,5.9v-4.2c3.1-2.4,6.5-4.2,10.2-5.5s7.5-1.9,11.4-1.9c4,0,7.8.6,11.4,1.9s7,3.1,10.1,5.5v4.2Z" fill="#c9d1d9"/>
  </g>
  <g isolation="isolate">
    <path d="m165.7,446.8c-4-.4-7.1-1.7-9.2-4.1s-3.2-5.6-3.2-9.5c0-2.6.5-5,1.5-7s2.5-3.8,4.5-5.1l2.4,3.1c-2.5,2.2-3.9,5.2-4,9,0,2.7.7,4.9,2.1,6.7s3.4,2.9,6,3.3v-16.8c0-1.6.5-2.9,1.6-3.9s2.5-1.5,4.3-1.5c2,0,3.9.6,5.7,1.7s3.1,2.6,4.2,4.6,1.5,4.1,1.5,6.4c0,3.8-1.1,6.9-3.4,9.2s-5.4,3.6-9.5,4v10.8h-4.3v-10.9h-.2Zm4.4-3.6c2.7-.3,4.8-1.4,6.3-3.1s2.3-3.9,2.3-6.4c-.1-2.6-.8-4.8-2.1-6.5s-2.9-2.5-5-2.5c-1,0-1.5.6-1.5,1.9v16.6Z" fill="#c9d1d9"/>
    <path d="m194.6,454.3c-2.4-3.1-4.3-6.5-5.5-10.1s-1.9-7.4-1.9-11.4c0-3.9.6-7.7,1.9-11.4s3.1-7,5.5-10.2h4.2c-2.7,3.6-4.7,7.1-5.9,10.5s-1.9,7.1-1.9,11.1.6,7.7,1.8,11.1,3.2,6.9,6,10.4h-4.2Z" fill="#c9d1d9"/>
    <path d="m206.7,446.4c-1,0-1.9-.3-2.6-1s-1.1-1.5-1.1-2.5v-18.5h-4.1v-3.3h4.1v-5.3l3.9-.8v6.1h5v3.3h-5v17.5c0,.5.1.9.2,1s.5.3.9.3h3.9v3.3h-5.2v-.1Z" fill="#c9d1d9"/>
    <path d="m214.4,454.3c2.8-3.5,4.8-7,6-10.4s1.8-7.1,1.8-11.1c0-3.9-.6-7.6-1.9-11.1s-3.2-6.9-5.9-10.5h4.2c2.4,3.1,4.2,6.5,5.5,10.2s1.9,7.5,1.9,11.4c0,4-.6,7.8-1.9,11.4s-3.1,7-5.5,10.1h-4.2Z" fill="#c9d1d9"/>
  </g>
  <g>
    <line x1="424.8" y1="417.6" x2="424.8" y2="457.5" fill="none" stroke="#c9d1d9" stroke-miterlimit="10" stroke-width="2"/>
    <polygon points="419 453.5 424.8 475.2 430.6 453.5 419 453.5" fill="#c9d1d9"/>
  </g>
  <g>
    <line x1="424.8" y1="273.6" x2="424.8" y2="233.7" fill="none" stroke="#c9d1d9" stroke-miterlimit="10" stroke-width="2"/>
    <polygon points="430.6 237.7 424.8 216 419 237.7 430.6 237.7" fill="#c9d1d9"/>
  </g>
  <g>
    <path d="m136.8,475.2c0-16.5-4.7-32.9-14-47.2" fill="none" stroke="#c9d1d9" stroke-miterlimit="10" stroke-width="2"/>
    <polygon points="134.2 434.8 133 436.4 122.6 428.3 125.4 441.1 123.4 441.5 119.5 423.4 134.2 434.8" fill="#c9d1d9"/>
  </g>
  <line x1="396" y1="504" x2="396" y2="475.2" fill="none" stroke="#c9d1d9" stroke-miterlimit="10" stroke-width="2"/>
  <line x1="396" y1="216" x2="424.8" y2="216" fill="none" stroke="#c9d1d9" stroke-miterlimit="10" stroke-width="2"/>
  <g>
    <path d="m439.7,202.6c-31.4-44.7-70.2-83.7-114.7-115.3" fill="none" stroke="#c9d1d9" stroke-miterlimit="10" stroke-width="2"/>
    <path d="m341.6,87.7c0,.6-.5,1-1.1.9l-15.3-1,5.5,14.3c.2.5,0,1.1-.6,1.3s-1.1-.1-1.3-.6l-6.1-15.7c-.1-.3-.1-.7.1-.9.2-.3.5-.4.9-.4l16.8,1.1c.2,0,.4.1.5.2.5.1.6.4.6.8h0Z" fill="#c9d1d9"/>
  </g>
  <g isolation="isolate">
    <path d="m405.2,122.4c-1,0-1.9-.3-2.6-1s-1.1-1.5-1.1-2.5v-18.5h-4.1v-3.3h4.1v-5.3l3.9-.8v6.1h5v3.3h-5v17.5c0,.5.1.9.2,1s.5.3.9.3h3.9v3.3h-5.2v-.1Z" fill="#c9d1d9"/>
  </g>
</svg>