<?xml version="1.0" encoding="UTF-8"?>
<svg xmlns="http://www.w3.org/2000/svg" viewBox="0 0 1339.2 792">
  <defs>
    <style>
      .cls-1, .cls-2, .cls-3, .cls-4, .cls-5, .cls-6 {
        fill: none;
      }

      .cls-1, .cls-2, .cls-3, .cls-5, .cls-6 {
        stroke: #c9d1d9;
      }

      .cls-1, .cls-2, .cls-5, .cls-6 {
        stroke-miterlimit: 10;
      }

      .cls-1, .cls-5, .cls-6 {
        stroke-width: 3px;
      }

      .cls-7 {
        font-family: Roboto-Italic, Roboto;
        font-style: italic;
        letter-spacing: -.02em;
      }

      .cls-8, .cls-9 {
        font-family: Roboto-Regular, Roboto;
      }

      .cls-10, .cls-11, .cls-9 {
        fill: #c9d1d9;
      }

      .cls-2, .cls-3, .cls-4 {
        stroke-width: 4px;
      }

      .cls-3, .cls-4 {
        stroke-linecap: round;
        stroke-linejoin: round;
      }

      .cls-4 {
        stroke: #d85648;
      }

      .cls-5 {
        stroke-dasharray: 0 0 10.2 10.2;
      }

      .cls-6 {
        stroke-dasharray: 0 0 10.2 10.2;
      }

      .cls-11, .cls-9 {
        font-size: 48px;
      }
    </style>
  </defs>
  <g id="Scale">
    <line class="cls-2" x1="187.2" y1="460.8" x2="187.2" y2="432"/>
    <line class="cls-2" x1="295.2" y1="460.8" x2="295.2" y2="432"/>
    <line class="cls-2" x1="511.2" y1="460.8" x2="511.2" y2="432"/>
    <line class="cls-2" x1="403.2" y1="460.8" x2="403.2" y2="432"/>
    <line class="cls-2" x1="619.2" y1="460.8" x2="619.2" y2="432"/>
    <line class="cls-2" x1="727.2" y1="460.8" x2="727.2" y2="432"/>
    <line class="cls-2" x1="835.2" y1="460.8" x2="835.2" y2="432"/>
    <line class="cls-2" x1="943.2" y1="460.8" x2="943.2" y2="432"/>
    <line class="cls-2" x1="1051.2" y1="460.8" x2="1051.2" y2="432"/>
    <line class="cls-2" x1="1159.2" y1="460.8" x2="1159.2" y2="432"/>
    <g>
      <line class="cls-3" x1="79.2" y1="432" x2="1202.96" y2="432"/>
      <polygon class="cls-10" points="1195.04 443.62 1238.4 432.01 1195.04 420.38 1195.04 443.62"/>
    </g>
    <g>
      <line class="cls-3" x1="79.2" y1="114.64" x2="79.2" y2="749.36"/>
      <polygon class="cls-10" points="67.58 122.56 79.19 79.2 90.82 122.56 67.58 122.56"/>
      <polygon class="cls-10" points="67.58 741.44 79.19 784.8 90.82 741.44 67.58 741.44"/>
    </g>
    <line class="cls-2" x1="57.6" y1="144" x2="79.2" y2="144"/>
    <line class="cls-2" x1="57.6" y1="432" x2="79.2" y2="432"/>
    <line class="cls-2" x1="57.6" y1="720" x2="79.2" y2="720"/>
    <line class="cls-2" x1="187.2" y1="460.8" x2="187.2" y2="432"/>
  </g>
  <g id="Graph">
    <path class="cls-4" d="m79.2,432.01l.09-.81.08-.81.17-.81.08-.81.08-.81.08-.81.08-.81.17-.81.08-.81.08-.81.08-.81.08-.81.08-.81.17-.81.08-.81.08-.81.08-.81.08-.81.17-.81.08-.81.08-.81.08-.81.08-.81.08-.81.17-.81.08-.81.08-.81.08-.81.08-.81.17-1.61.08-.81.08-.81.08-.81.08-.81.08-.81.17-.81.08-.81.08-.81.08-.81.08-.81.17-.81.08-.81.08-.81.08-.81.08-.81.08-.81.17-.81.08-.81.08-.81.08-.81.08-.81.17-.81.08-.81.08-.81.08-.81.08-.81.08-.81.17-.81.08-.81.08-.81.08-.81.08-.81.17-.81.08-.81.08-.81.08-.81.08-.81.08-.81.17-.81.08-.81.08-.81.08-.81.08-.81.17-.81.08-.81.08-.81.08-.81.08-.81.17-.81.08-.81.08-.81.08-.81.08-.81.08-.81.17-.81.08-.81.08-.81.08-.81.08-.81.17-.81.08-.81.08-.81.08-.81.08-.81.08-.81.17-.81.08-.81h.08l.08-.81.08-.81.17-.81.08-.81.08-.81.08-.81.08-.81.08-.81.17-.81.08-.81.08-.81.08-.81.08-.81.17-.81.08-.81.08-.81.08-.81.08-.81.08-.81.17-.81.08-.81.08-.81.08-.81.08-.81.17-.81.08-.81.08-.81.08-.81.08-.81h.08l.17-.81.08-.81.08-.81.08-.81.08-.81.17-.81.08-.81.08-.81.08-.81.08-.81.17-.81.08-.81.08-.81.08-.81.08-.81.08-.81h.17l.08-.81.08-.81.08-.81.08-.81.17-.81.08-.81.08-.81.08-.81.08-.81.08-.81.17-.81.08-.81.08-.81h.08l.08-.81.17-.81.08-.81.08-.81.08-.81.08-.81.08-.81.17-.81.08-.81.08-.81h.08l.08-.81.17-.81.08-.81.08-.81.08-.81.08-.81.08-.81.17-.81h.08l.08-.81.08-.81.08-.81.17-.81.08-.81.08-.81.08-.81.08-.81h.08l.17-.81.08-.81.08-.81.08-.81.08-.81.17-.81h.08l.08-.81.08-.81.08-.81.08-.81.17-.81.08-.81.08-.81h.08l.08-.81.17-.81.08-.81.08-.81.08-.81h.08l.17-.81.08-.8.08-.81.08-.81.08-.81h.08l.17-.81.08-.81.08-.81.08-.81.08-.81h.17l.08-.81.08-.81.08-.81.08-.81.08-.81h.17l.08-.81.08-.81.08-.81.08-.81h.17l.08-.81.08-.81.08-.81.08-.81h.08l.17-.81.08-.81.08-.81.08-.81h.08l.17-.81.08-.81.08-.81h.08l.08-.81.08-.81.17-.81.08-.81h.08l.08-.81.08-.81.17-.81h.08l.08-.81.08-.81.08-.81h.08l.17-.81.08-.81.08-.81h.08l.08-.81.17-.81.08-.81h.08l.08-.81.08-.81.17-.81h.08l.08-.81.08-.81.08-.81h.08l.17-.81.08-.81h.08l.08-.81.08-.81.17-.81h.08l.08-.81.08-.81h.08l.08-.81.17-.81h.08l.08-.81.08-.81h.08l.17-.81.08-.81.08-.81h.08l.08-.81.08-.81h.17l.08-.81.08-.81h.08l.08-.81.17-.81h.08l.08-.81.08-.81h.08l.08-.81.17-.81h.08l.08-.81h.08l.08-.81.17-.81h.08l.08-.81.08-.81h.08l.08-.81.17-.81h.08l.08-.81h.08l.08-.81.17-.81h.08l.08-.81h.08l.08-.81.08-.81h.17l.08-.81h.08l.08-.81.08-.81h.17l.08-.81h.08l.08-.81.08-.81h.17l.08-.81h.08l.08-.81h.08l.08-.81.17-.81h.08l.08-.81h.08l.08-.81h.17l.08-.81h.08l.08-.81h.08l.08-.81.17-.81h.08l.08-.81h.08l.08-.81h.17l.08-.81h.08l.08-.81h.08l.08-.81h.17l.08-.81h.08l.08-.81h.08l.17-.81h.08l.08-.81h.08l.08-.81h.08l.17-.81h.08l.08-.81h.08l.08-.81h.25l.08-.81h.08l.08-.81h.08l.17-.81h.08l.08-.81h.17l.17-.81h.08l.08-.81h.08l.08-.81h.17l.08-.81h.17l.08-.81h.08l.17-.81h.17l.08-.81h.08l.17-.81h.17l.08-.81h.08l.08-.81h.25l.08-.81h.17l.17-.81h.17l.08-.81h.08l.08-.81h.25l.08-.81h.17l.17-.81h.17l.08-.81h.17l.17-.81h.25l.08-.81h.25l.08-.81h.17l.08-.81h.33l.08-.81h.25l.08-.81h.25l.08-.81h.33l.08-.81h.33l.08-.81h.41l.08-.81h.25l.17-.81h.33l.17-.81h.33l.08-.81h.5l.17-.81h.41l.17-.81h.66l.08-.81h.66l.17-.81h1.08l.08-.81h2.07l.08-.02h.17l.08.02h2.15l.17.81h.91l.17.81h.75l.08.81h.58l.17.81h.58l.08.81h.41l.08.81h.33l.17.81h.33l.17.81h.33l.08.81h.33l.08.81h.33l.08.81h.25l.17.81h.25l.08.81h.33l.08.81h.17l.17.81h.25l.08.81h.25l.08.81h.17l.17.81h.17l.08.81h.17l.17.81h.17l.08.81h.25l.08.81h.17l.08.81h.25l.08.81h.08l.08.81h.25l.08.81h.17l.08.81h.08l.17.81h.17l.08.81h.08l.17.81h.17l.08.81h.08l.08.81h.17l.08.81h.17l.08.81h.17l.08.81h.08l.08.81h.08l.08.81h.25l.08.81h.08l.08.81h.17l.08.81h.08l.08.81h.08l.08.81h.17l.08.81h.08l.08.81h.08l.17.81h.08l.08.81h.08l.08.81h.17l.08.81h.08l.08.81h.08l.08.81h.17l.08.81h.08l.08.81h.08l.17.81h.08l.08.81h.08l.08.81h.08l.17.81.08.81h.08l.08.81h.08l.17.81h.08l.08.81h.08l.08.81.08.81h.17l.08.81h.08l.08.81.08.81h.17l.08.81h.08l.08.81h.08l.08.81.17.81h.08l.08.81h.08l.08.81.17.81h.08l.08.81.08.81h.08l.08.81h.17l.08.81.08.81h.08l.08.81.17.81h.08l.08.81.08.81h.08l.17.81h.08l.08.81.08.81h.08l.08.81.17.81h.08l.08.81.08.81h.08l.17.81.08.81h.08l.08.81.08.81h.08l.17.81.08.81.08.81h.08l.08.81.17.81h.08l.08.81.08.81h.08l.08.81.17.81.08.81h.08l.08.81.08.81h.17l.08.81.08.81.08.81h.08l.08.81.17.81.08.81h.08l.08.81.08.81h.17l.08.81.08.81.08.81h.08l.08.81.17.81.08.81h.08l.08.81.08.81.17.81.08.81h.08l.08.81.08.81.08.81h.17l.08.81.08.81.08.81h.08l.17.81.08.81.08.81.08.81h.08l.17.81.08.81.08.81.08.81h.08l.08.81.17.81.08.81.08.81h.08l.08.81.17.81.08.81.08.81.08.81h.08l.08.81.17.81.08.81.08.81h.08l.08.81.17.81.08.81.08.81.08.81h.08l.08.81.17.8.08.81.08.81.08.81.08.81h.17l.08.81.08.81.08.81.08.81.08.81h.17l.08.81.08.81.08.81.08.81.17.81.08.81.08.81h.08l.08.81.08.81.17.81.08.81.08.81.08.81.08.81h.17l.08.81.08.81.08.81.08.81.17.81.08.81.08.81.08.81h.08l.08.81.17.81.08.81.08.81.08.81.08.81.17.81.08.81.08.81h.08l.08.81.08.81.17.81.08.81.08.81.08.81.08.81.17.81.08.81.08.81.08.81h.08l.08.81.17.81.08.81.08.81.08.81.08.81.17.81.08.81.08.81.08.81.08.81.08.81.17.81.08.81h.08l.08.81.08.81.17.81.08.81.08.81.08.81.08.81.08.81.17.81.08.81.08.81.08.81.08.81.17.81.08.81.08.81.08.81.08.81.08.81.17.81.08.81h.08l.08.81.08.81.17.81.08.81.08.81.08.81.08.81.17.81.08.81.08.81.08.81.08.81.08.81.17.81.08.81.08.81.08.81.08.81.17.81.08.81.08.81.08.81.08.81.08.81.17.81.08.81.08.81.08.81.08.81.17.81.08.81.08.81.08.81.08.81.08.81.17.81.08.81.08.81.08.81.08.81.17.81.08.81.08.81.08.81.08.81.08.81.17.81.08.81.08.81.08.81.08.81.17.81.08.81.08.81.08.81.08.81.08.81.17.81.08.81.08.81.08.81.08.81.17.81.08.81.08.81.08.81.08.81.17.81.08.81.08.81.08.81.08.81.08.81.17.81.08.81.08.81.08.81.08.81.17.81.08.81.08.81.08.81.08.81.08.81.17.81.08.81.08.81.08.81.08.81.17.81.08.81.08.81.08.81.08.81.08.81.17.81.08.81.08.81.08.81.08.81.17.81.08.81.08.81.08.81.08.81.08.81.17.81.08.81.08.81.08.81.08.81.17.81.08.81.08.81.08,1.61.08.81.08.81.17.81.08.81.08.81.08.81.08.81.17.81.08.81.08.81.08.81.08.81.08.81.17.81.08.81.08.81.08.81.08.81.17.81.08.81.08.81.08.81.08.81.17.81.08.81.08.81.08.81.08.81.08.81.17.81.08.81.08.81.08.81.08.81.17.81.08.81.08.81.08.81.08.81.08.81.17.81.08.81.08.81.08.81.08.81.17.81.08.81.08.81.08.81.08.81.08.81.17.81.08.81.08.81.08.81.08.81.17.81.08.81.08.81.08.81.08.81.08.81.17.81.08.81.08.81.08.81.08.81.17.81.08.81.08.81.08.81.08.81.08.81.17.81.08.81.08.81.08.81.08.81.17.81.08.81.08.81.08.81.08.81.17.81.08.81.08.81.08.81.08.81.08.81.17.81.08.81.08.81.08.81.08.81.17.81.08.81.08.81.08.81.08.81.08.81.17.81.08.81.08.81.08.81.08.81.17.81.08.81.08.81.08.81.08.81.08.81.17.81.08.81.08.81h.08l.08.81.17.81.08.81.08.81.08.81.08.81.08.81.17.81.08.81.08.81.08.81.08.81.17.81.08.81.08.81.08.81.08.81.08.81.17.81.08.81.08.81h.08l.08.81.17.81.08.81.08.81.08.81.08.81.08.81.17.81.08.81.08.81.08.81.08.81.17.81.08.81h.08l.08.81.08.81.17.81.08.81.08.81.08.81.08.81.08.81.17.81.08.81.08.81h.08l.08.81.17.81.08.81.08.81.08.81.08.81.08.81.17.81.08.81h.08l.08.81.08.81.17.81.08.81.08.81.08.81.08.81.08.81h.17l.08.81.08.81.08.81.08.81.17.81.08.81.08.81h.08l.08.81.08.81.17.81.08.81.08.81.08.81.08.81h.17l.08.81.08.81.08.81.08.81.08.81h.17l.08.81.08.81.08.81.08.81.17.81.08.81h.08l.08.81.08.81.17.81.08.81.08.81h.08l.08.81.08.81.17.81.08.81h.08l.08.81.08.81.17.81.08.81.08.81h.08l.08.81.08.81.17.81.08.81h.08l.08.81.08.81.17.81.08.81h.08l.08.81.08.81.08.81.17.81h.08l.08.81.08.81.08.81h.17l.08.81.08.81.08.81h.08l.08.81.17.81.08.81.08.81h.08l.08.81.17.81.08.81h.08l.08.81.08.81.08.81h.17l.08.81.08.81h.08l.08.81.17.81.08.81h.08l.08.81.08.81.08.81h.17l.08.81.08.81h.08l.08.81.17.81.08.81h.08l.08.81.08.81h.17l.08.81.08.81h.08l.08.81.08.81.17.81h.08l.08.81.08.81h.08l.17.81.08.81h.08l.08.81.08.81h.08l.17.81.08.81h.08l.08.81.08.81h.17l.08.81h.08l.08.81.08.81h.08l.17.81.08.81h.08l.08.81.08.81h.17l.08.81h.08l.08.81.08.81h.08l.17.81.08.81h.08l.08.81h.08l.17.81.08.81h.08l.08.81h.08l.08.81h.17l.08.81.08.81h.08l.08.81h.17l.08.81.08.81h.08l.08.81h.17l.08.81h.08l.08.81h.08l.08.81.17.81h.08l.08.81h.08l.08.81h.17l.08.81h.08l.08.81h.08l.08.81h.17l.08.81h.08l.08.81h.08l.17.81h.08l.08.81h.08l.08.81h.08l.17.81h.08l.08.81h.08l.08.81h.17l.08.81h.08l.08.81h.08l.08.81h.17l.08.81h.08l.08.81h.25l.08.81h.08l.08.81h.08l.08.81h.17l.08.81h.17l.08.81h.17l.08.81h.08l.08.81h.17l.17.81h.08l.08.81h.17l.17.81h.08l.08.81h.17l.17.81h.17l.08.81h.08l.08.81h.25l.08.81h.17l.17.81h.17l.08.81h.17l.17.81h.17l.08.81h.25l.08.81h.17l.08.81h.25l.08.81h.25l.17.81h.17l.08.81h.33l.08.81h.25l.17.81h.25l.08.81h.33l.08.81h.33l.08.81h.41l.08.81h.33l.17.81h.33l.17.81h.33l.08.81h.66l.08.81h.58l.08.81h.75l.17.81h.91l.17.81h2.15l.08-.04h.17l.08.04h2.07l.08-.81h1.08l.17-.81h.66l.08-.81h.66l.17-.81h.5l.08-.81h.5l.08-.81h.41l.08-.81h.33l.17-.81h.25l.08-.81h.41l.08-.81h.33l.08-.81h.33l.08-.81h.25l.08-.81h.25l.08-.81h.33l.08-.81h.17l.08-.81h.25l.08-.81h.25l.17-.81h.17l.08-.81h.17l.17-.81h.17l.08-.81h.25l.08-.81h.08l.08-.81h.25l.08-.81h.17l.08-.81h.25l.08-.81h.08l.08-.81h.25l.08-.81h.08l.08-.81h.17l.17-.81h.08l.08-.81h.17l.17-.81h.08l.08-.81h.08l.08-.81h.08l.17-.81h.17l.08-.81h.08l.17-.81h.08l.08-.81h.08l.08-.81h.25l.08-.81h.08l.08-.81h.08l.17-.81h.08l.08-.81h.08l.08-.81h.08l.17-.81h.08l.08-.81h.08l.08-.81h.17l.08-.81h.08l.08-.81h.08l.17-.81h.08l.08-.81h.08l.08-.81h.08l.17-.81.08-.81h.08l.08-.81h.08l.17-.81h.08l.08-.81h.08l.08-.81h.08l.17-.81.08-.81h.08l.08-.81h.08l.17-.81h.08l.08-.81.08-.81h.08l.08-.81h.17l.08-.81.08-.81h.08l.08-.81h.17l.08-.81.08-.81h.08l.08-.81h.08l.17-.81.08-.81h.08l.08-.81h.08l.17-.81.08-.81h.08l.08-.81.08-.81h.08l.17-.81.08-.81h.08l.08-.81h.08l.17-.81.08-.81h.08l.08-.81.08-.81h.08l.17-.81.08-.81h.08l.08-.81.08-.81h.17l.08-.81.08-.81h.08l.08-.81.17-.81.08-.81h.08l.08-.81.08-.81h.08l.17-.81.08-.81h.08l.08-.81.08-.81h.17l.08-.81.08-.81.08-.81h.08l.08-.81.17-.81h.08l.08-.81.08-.81.08-.81h.17l.08-.81.08-.81.08-.81h.08l.08-.81.17-.81.08-.81h.08l.08-.81.08-.81.17-.81h.08l.08-.81.08-.81.08-.81h.08l.17-.81.08-.81.08-.81h.08l.08-.81.17-.81.08-.81.08-.81h.08l.08-.81.08-.81.17-.81h.08l.08-.81.08-.81.08-.81.17-.81h.08l.08-.81.08-.81.08-.81.17-.81h.08l.08-.81.08-.81.08-.81.08-.81h.17l.08-.81.08-.81.08-.81.08-.81.17-.81h.08l.08-.81.08-.81.08-.81.08-.81.17-.81h.08l.08-.81.08-.81.08-.81.17-.81.08-.81h.08l.08-.81.08-.81.08-.81.17-.81.08-.81h.08l.08-.81.08-.81.17-.81.08-.81.08-.81.08-.81.08-.81h.08l.17-.81.08-.81.08-.81.08-.81.08-.81.17-.81h.08l.08-.81.08-.81.08-.81.08-.81.17-.81.08-.81.08-.81.08-.81h.08l.17-.81.08-.81.08-.81.08-.81.08-.81.08-.81.17-.81.08-.81h.08l.08-.81.08-.81.17-.81.08-.81.08-.81.08-.81.08-.81.17-.81.08-.81.08-.81h.08l.08-.81.08-.81.17-.81.08-.81.08-.81.08-.81.08-.81.17-.81.08-.81.08-.81.08-.81.08-.81.08-.81h.17l.08-.81.08-.81.08-.81.08-.81.17-.81.08-.81.08-.81.08-.81.08-.81.08-.81.17-.81.08-.81.08-.81.08-.81.08-.81.17-.81h.08l.08-.81.08-.81.08-.81.08-.81.17-.81.08-.81.08-.81.08-.81.08-.81.17-.81.08-.81.08-.81.08-.81.08-.81.08-.81.17-.81.08-.81.08-.81.08-.81.08-.81.17-.81.08-.81.08-.81.08-.81.08-.81.17-.81.08-.81.08-.81.08-.81h.08l.08-.81.17-.81.08-.81.08-.81.08-.81.08-.81.17-.81.08-.81.08-.81.08-.81.08-.81.08-.81.17-.81.08-.81.08-.81.08-.81.08-.81.17-.81.08-.81.08-.81.08-.81.08-.81.08-.81.17-.81.08-.81.08-.81.08-.81.08-.81.17-.81.08-.81.08-.81.08-.81.08-.81.08-.81.17-.81.08-.81.08-.81.08-.81.08-.81.17-.81.08-.81.08-.81.08-.81.08-.81.08-.81.17-.81.08-.81.08-.81.08-.81.08-.81.17-.81.08-.81.08-.81.08-.81.08-.81.08-.81.17-.81.08-.81.08-.81.08-.81.08-.81.17-.81.08-.81.08-.81.08-.81.08-.81.17-.81.08-1.61.08-.81.08-.81.08-.81.08-.81.17-.81.08-.81.08-.81.08-.81.08-.81.17-.81.08-.81.08-.81.08-.81.08-.81.08-.81.17-.81.08-.81.08-.81.08-.81.08-.81.17-.81.08-.81.08-.81.08-.81.08-.81.08-.81.17-.81.07-.81"/>
    <path class="cls-4" d="m295.2,432.01l.09-.81.08-.81.17-.81.08-.81.08-.81.08-.81.08-.81.17-.81.08-.81.08-.81.08-.81.08-.81.08-.81.17-.81.08-.81.08-.81.08-.81.08-.81.17-.81.08-.81.08-.81.08-.81.08-.81.08-.81.17-.81.08-.81.08-.81.08-.81.08-.81.17-1.61.08-.81.08-.81.08-.81.08-.81.08-.81.17-.81.08-.81.08-.81.08-.81.08-.81.17-.81.08-.81.08-.81.08-.81.08-.81.08-.81.17-.81.08-.81.08-.81.08-.81.08-.81.17-.81.08-.81.08-.81.08-.81.08-.81.08-.81.17-.81.08-.81.08-.81.08-.81.08-.81.17-.81.08-.81.08-.81.08-.81.08-.81.08-.81.17-.81.08-.81.08-.81.08-.81.08-.81.17-.81.08-.81.08-.81.08-.81.08-.81.17-.81.08-.81.08-.81.08-.81.08-.81.08-.81.17-.81.08-.81.08-.81.08-.81.08-.81.17-.81.08-.81.08-.81.08-.81.08-.81.08-.81.17-.81.08-.81h.08l.08-.81.08-.81.17-.81.08-.81.08-.81.08-.81.08-.81.08-.81.17-.81.08-.81.08-.81.08-.81.08-.81.17-.81.08-.81.08-.81.08-.81.08-.81.08-.81.17-.81.08-.81.08-.81.08-.81.08-.81.17-.81.08-.81.08-.81.08-.81.08-.81h.08l.17-.81.08-.81.08-.81.08-.81.08-.81.17-.81.08-.81.08-.81.08-.81.08-.81.17-.81.08-.81.08-.81.08-.81.08-.81.08-.81h.17l.08-.81.08-.81.08-.81.08-.81.17-.81.08-.81.08-.81.08-.81.08-.81.08-.81.17-.81.08-.81.08-.81h.08l.08-.81.17-.81.08-.81.08-.81.08-.81.08-.81.08-.81.17-.81.08-.81.08-.81h.08l.08-.81.17-.81.08-.81.08-.81.08-.81.08-.81.08-.81.17-.81h.08l.08-.81.08-.81.08-.81.17-.81.08-.81.08-.81.08-.81.08-.81h.08l.17-.81.08-.81.08-.81.08-.81.08-.81.17-.81h.08l.08-.81.08-.81.08-.81.08-.81.17-.81.08-.81.08-.81h.08l.08-.81.17-.81.08-.81.08-.81.08-.81h.08l.17-.81.08-.8.08-.81.08-.81.08-.81h.08l.17-.81.08-.81.08-.81.08-.81.08-.81h.17l.08-.81.08-.81.08-.81.08-.81.08-.81h.17l.08-.81.08-.81.08-.81.08-.81h.17l.08-.81.08-.81.08-.81.08-.81h.08l.17-.81.08-.81.08-.81.08-.81h.08l.17-.81.08-.81.08-.81h.08l.08-.81.08-.81.17-.81.08-.81h.08l.08-.81.08-.81.17-.81h.08l.08-.81.08-.81.08-.81h.08l.17-.81.08-.81.08-.81h.08l.08-.81.17-.81.08-.81h.08l.08-.81.08-.81.17-.81h.08l.08-.81.08-.81.08-.81h.08l.17-.81.08-.81h.08l.08-.81.08-.81.17-.81h.08l.08-.81.08-.81h.08l.08-.81.17-.81h.08l.08-.81.08-.81h.08l.17-.81.08-.81.08-.81h.08l.08-.81.08-.81h.17l.08-.81.08-.81h.08l.08-.81.17-.81h.08l.08-.81.08-.81h.08l.08-.81.17-.81h.08l.08-.81h.08l.08-.81.17-.81h.08l.08-.81.08-.81h.08l.08-.81.17-.81h.08l.08-.81h.08l.08-.81.17-.81h.08l.08-.81h.08l.08-.81.08-.81h.17l.08-.81h.08l.08-.81.08-.81h.17l.08-.81h.08l.08-.81.08-.81h.17l.08-.81h.08l.08-.81h.08l.08-.81.17-.81h.08l.08-.81h.08l.08-.81h.17l.08-.81h.08l.08-.81h.08l.08-.81.17-.81h.08l.08-.81h.08l.08-.81h.17l.08-.81h.08l.08-.81h.08l.08-.81h.17l.08-.81h.08l.08-.81h.08l.17-.81h.08l.08-.81h.08l.08-.81h.08l.17-.81h.08l.08-.81h.08l.08-.81h.25l.08-.81h.08l.08-.81h.08l.17-.81h.08l.08-.81h.17l.17-.81h.08l.08-.81h.08l.08-.81h.17l.08-.81h.17l.08-.81h.08l.17-.81h.17l.08-.81h.08l.17-.81h.17l.08-.81h.08l.08-.81h.25l.08-.81h.17l.17-.81h.17l.08-.81h.08l.08-.81h.25l.08-.81h.17l.17-.81h.17l.08-.81h.17l.17-.81h.25l.08-.81h.25l.08-.81h.17l.08-.81h.33l.08-.81h.25l.08-.81h.25l.08-.81h.33l.08-.81h.33l.08-.81h.41l.08-.81h.25l.17-.81h.33l.17-.81h.33l.08-.81h.5l.17-.81h.41l.17-.81h.66l.08-.81h.66l.17-.81h1.08l.08-.81h2.07l.08-.02h.17l.08.02h2.15l.17.81h.91l.17.81h.75l.08.81h.58l.17.81h.58l.08.81h.41l.08.81h.33l.17.81h.33l.17.81h.33l.08.81h.33l.08.81h.33l.08.81h.25l.17.81h.25l.08.81h.33l.08.81h.17l.17.81h.25l.08.81h.25l.08.81h.17l.17.81h.17l.08.81h.17l.17.81h.17l.08.81h.25l.08.81h.17l.08.81h.25l.08.81h.08l.08.81h.25l.08.81h.17l.08.81h.08l.17.81h.17l.08.81h.08l.17.81h.17l.08.81h.08l.08.81h.17l.08.81h.17l.08.81h.17l.08.81h.08l.08.81h.08l.08.81h.25l.08.81h.08l.08.81h.17l.08.81h.08l.08.81h.08l.08.81h.17l.08.81h.08l.08.81h.08l.17.81h.08l.08.81h.08l.08.81h.17l.08.81h.08l.08.81h.08l.08.81h.17l.08.81h.08l.08.81h.08l.17.81h.08l.08.81h.08l.08.81h.08l.17.81.08.81h.08l.08.81h.08l.17.81h.08l.08.81h.08l.08.81.08.81h.17l.08.81h.08l.08.81.08.81h.17l.08.81h.08l.08.81h.08l.08.81.17.81h.08l.08.81h.08l.08.81.17.81h.08l.08.81.08.81h.08l.08.81h.17l.08.81.08.81h.08l.08.81.17.81h.08l.08.81.08.81h.08l.17.81h.08l.08.81.08.81h.08l.08.81.17.81h.08l.08.81.08.81h.08l.17.81.08.81h.08l.08.81.08.81h.08l.17.81.08.81.08.81h.08l.08.81.17.81h.08l.08.81.08.81h.08l.08.81.17.81.08.81h.08l.08.81.08.81h.17l.08.81.08.81.08.81h.08l.08.81.17.81.08.81h.08l.08.81.08.81h.17l.08.81.08.81.08.81h.08l.08.81.17.81.08.81h.08l.08.81.08.81.17.81.08.81h.08l.08.81.08.81.08.81h.17l.08.81.08.81.08.81h.08l.17.81.08.81.08.81.08.81h.08l.17.81.08.81.08.81.08.81h.08l.08.81.17.81.08.81.08.81h.08l.08.81.17.81.08.81.08.81.08.81h.08l.08.81.17.81.08.81.08.81h.08l.08.81.17.81.08.81.08.81.08.81h.08l.08.81.17.8.08.81.08.81.08.81.08.81h.17l.08.81.08.81.08.81.08.81.08.81h.17l.08.81.08.81.08.81.08.81.17.81.08.81.08.81h.08l.08.81.08.81.17.81.08.81.08.81.08.81.08.81h.17l.08.81.08.81.08.81.08.81.17.81.08.81.08.81.08.81h.08l.08.81.17.81.08.81.08.81.08.81.08.81.17.81.08.81.08.81h.08l.08.81.08.81.17.81.08.81.08.81.08.81.08.81.17.81.08.81.08.81.08.81h.08l.08.81.17.81.08.81.08.81.08.81.08.81.17.81.08.81.08.81.08.81.08.81.08.81.17.81.08.81h.08l.08.81.08.81.17.81.08.81.08.81.08.81.08.81.08.81.17.81.08.81.08.81.08.81.08.81.17.81.08.81.08.81.08.81.08.81.08.81.17.81.08.81h.08l.08.81.08.81.17.81.08.81.08.81.08.81.08.81.17.81.08.81.08.81.08.81.08.81.08.81.17.81.08.81.08.81.08.81.08.81.17.81.08.81.08.81.08.81.08.81.08.81.17.81.08.81.08.81.08.81.08.81.17.81.08.81.08.81.08.81.08.81.08.81.17.81.08.81.08.81.08.81.08.81.17.81.08.81.08.81.08.81.08.81.08.81.17.81.08.81.08.81.08.81.08.81.17.81.08.81.08.81.08.81.08.81.08.81.17.81.08.81.08.81.08.81.08.81.17.81.08.81.08.81.08.81.08.81.17.81.08.81.08.81.08.81.08.81.08.81.17.81.08.81.08.81.08.81.08.81.17.81.08.81.08.81.08.81.08.81.08.81.17.81.08.81.08.81.08.81.08.81.17.81.08.81.08.81.08.81.08.81.08.81.17.81.08.81.08.81.08.81.08.81.17.81.08.81.08.81.08.81.08.81.08.81.17.81.08.81.08.81.08.81.08.81.17.81.08.81.08.81.08,1.61.08.81.08.81.17.81.08.81.08.81.08.81.08.81.17.81.08.81.08.81.08.81.08.81.08.81.17.81.08.81.08.81.08.81.08.81.17.81.08.81.08.81.08.81.08.81.17.81.08.81.08.81.08.81.08.81.08.81.17.81.08.81.08.81.08.81.08.81.17.81.08.81.08.81.08.81.08.81.08.81.17.81.08.81.08.81.08.81.08.81.17.81.08.81.08.81.08.81.08.81.08.81.17.81.08.81.08.81.08.81.08.81.17.81.08.81.08.81.08.81.08.81.08.81.17.81.08.81.08.81.08.81.08.81.17.81.08.81.08.81.08.81.08.81.08.81.17.81.08.81.08.81.08.81.08.81.17.81.08.81.08.81.08.81.08.81.17.81.08.81.08.81.08.81.08.81.08.81.17.81.08.81.08.81.08.81.08.81.17.81.08.81.08.81.08.81.08.81.08.81.17.81.08.81.08.81.08.81.08.81.17.81.08.81.08.81.08.81.08.81.08.81.17.81.08.81.08.81h.08l.08.81.17.81.08.81.08.81.08.81.08.81.08.81.17.81.08.81.08.81.08.81.08.81.17.81.08.81.08.81.08.81.08.81.08.81.17.81.08.81.08.81h.08l.08.81.17.81.08.81.08.81.08.81.08.81.08.81.17.81.08.81.08.81.08.81.08.81.17.81.08.81h.08l.08.81.08.81.17.81.08.81.08.81.08.81.08.81.08.81.17.81.08.81.08.81h.08l.08.81.17.81.08.81.08.81.08.81.08.81.08.81.17.81.08.81h.08l.08.81.08.81.17.81.08.81.08.81.08.81.08.81.08.81h.17l.08.81.08.81.08.81.08.81.17.81.08.81.08.81h.08l.08.81.08.81.17.81.08.81.08.81.08.81.08.81h.17l.08.81.08.81.08.81.08.81.08.81h.17l.08.81.08.81.08.81.08.81.17.81.08.81h.08l.08.81.08.81.17.81.08.81.08.81h.08l.08.81.08.81.17.81.08.81h.08l.08.81.08.81.17.81.08.81.08.81h.08l.08.81.08.81.17.81.08.81h.08l.08.81.08.81.17.81.08.81h.08l.08.81.08.81.08.81.17.81h.08l.08.81.08.81.08.81h.17l.08.81.08.81.08.81h.08l.08.81.17.81.08.81.08.81h.08l.08.81.17.81.08.81h.08l.08.81.08.81.08.81h.17l.08.81.08.81h.08l.08.81.17.81.08.81h.08l.08.81.08.81.08.81h.17l.08.81.08.81h.08l.08.81.17.81.08.81h.08l.08.81.08.81h.17l.08.81.08.81h.08l.08.81.08.81.17.81h.08l.08.81.08.81h.08l.17.81.08.81h.08l.08.81.08.81h.08l.17.81.08.81h.08l.08.81.08.81h.17l.08.81h.08l.08.81.08.81h.08l.17.81.08.81h.08l.08.81.08.81h.17l.08.81h.08l.08.81.08.81h.08l.17.81.08.81h.08l.08.81h.08l.17.81.08.81h.08l.08.81h.08l.08.81h.17l.08.81.08.81h.08l.08.81h.17l.08.81.08.81h.08l.08.81h.17l.08.81h.08l.08.81h.08l.08.81.17.81h.08l.08.81h.08l.08.81h.17l.08.81h.08l.08.81h.08l.08.81h.17l.08.81h.08l.08.81h.08l.17.81h.08l.08.81h.08l.08.81h.08l.17.81h.08l.08.81h.08l.08.81h.17l.08.81h.08l.08.81h.08l.08.81h.17l.08.81h.08l.08.81h.25l.08.81h.08l.08.81h.08l.08.81h.17l.08.81h.17l.08.81h.17l.08.81h.08l.08.81h.17l.17.81h.08l.08.81h.17l.17.81h.08l.08.81h.17l.17.81h.17l.08.81h.08l.08.81h.25l.08.81h.17l.17.81h.17l.08.81h.17l.17.81h.17l.08.81h.25l.08.81h.17l.08.81h.25l.08.81h.25l.17.81h.17l.08.81h.33l.08.81h.25l.17.81h.25l.08.81h.33l.08.81h.33l.08.81h.41l.08.81h.33l.17.81h.33l.17.81h.33l.08.81h.66l.08.81h.58l.08.81h.75l.17.81h.91l.17.81h2.15l.08-.04h.17l.08.04h2.07l.08-.81h1.08l.17-.81h.66l.08-.81h.66l.17-.81h.5l.08-.81h.5l.08-.81h.41l.08-.81h.33l.17-.81h.25l.08-.81h.41l.08-.81h.33l.08-.81h.33l.08-.81h.25l.08-.81h.25l.08-.81h.33l.08-.81h.17l.08-.81h.25l.08-.81h.25l.17-.81h.17l.08-.81h.17l.17-.81h.17l.08-.81h.25l.08-.81h.08l.08-.81h.25l.08-.81h.17l.08-.81h.25l.08-.81h.08l.08-.81h.25l.08-.81h.08l.08-.81h.17l.17-.81h.08l.08-.81h.17l.17-.81h.08l.08-.81h.08l.08-.81h.08l.17-.81h.17l.08-.81h.08l.17-.81h.08l.08-.81h.08l.08-.81h.25l.08-.81h.08l.08-.81h.08l.17-.81h.08l.08-.81h.08l.08-.81h.08l.17-.81h.08l.08-.81h.08l.08-.81h.17l.08-.81h.08l.08-.81h.08l.17-.81h.08l.08-.81h.08l.08-.81h.08l.17-.81.08-.81h.08l.08-.81h.08l.17-.81h.08l.08-.81h.08l.08-.81h.08l.17-.81.08-.81h.08l.08-.81h.08l.17-.81h.08l.08-.81.08-.81h.08l.08-.81h.17l.08-.81.08-.81h.08l.08-.81h.17l.08-.81.08-.81h.08l.08-.81h.08l.17-.81.08-.81h.08l.08-.81h.08l.17-.81.08-.81h.08l.08-.81.08-.81h.08l.17-.81.08-.81h.08l.08-.81h.08l.17-.81.08-.81h.08l.08-.81.08-.81h.08l.17-.81.08-.81h.08l.08-.81.08-.81h.17l.08-.81.08-.81h.08l.08-.81.17-.81.08-.81h.08l.08-.81.08-.81h.08l.17-.81.08-.81h.08l.08-.81.08-.81h.17l.08-.81.08-.81.08-.81h.08l.08-.81.17-.81h.08l.08-.81.08-.81.08-.81h.17l.08-.81.08-.81.08-.81h.08l.08-.81.17-.81.08-.81h.08l.08-.81.08-.81.17-.81h.08l.08-.81.08-.81.08-.81h.08l.17-.81.08-.81.08-.81h.08l.08-.81.17-.81.08-.81.08-.81h.08l.08-.81.08-.81.17-.81h.08l.08-.81.08-.81.08-.81.17-.81h.08l.08-.81.08-.81.08-.81.17-.81h.08l.08-.81.08-.81.08-.81.08-.81h.17l.08-.81.08-.81.08-.81.08-.81.17-.81h.08l.08-.81.08-.81.08-.81.08-.81.17-.81h.08l.08-.81.08-.81.08-.81.17-.81.08-.81h.08l.08-.81.08-.81.08-.81.17-.81.08-.81h.08l.08-.81.08-.81.17-.81.08-.81.08-.81.08-.81.08-.81h.08l.17-.81.08-.81.08-.81.08-.81.08-.81.17-.81h.08l.08-.81.08-.81.08-.81.08-.81.17-.81.08-.81.08-.81.08-.81h.08l.17-.81.08-.81.08-.81.08-.81.08-.81.08-.81.17-.81.08-.81h.08l.08-.81.08-.81.17-.81.08-.81.08-.81.08-.81.08-.81.17-.81.08-.81.08-.81h.08l.08-.81.08-.81.17-.81.08-.81.08-.81.08-.81.08-.81.17-.81.08-.81.08-.81.08-.81.08-.81.08-.81h.17l.08-.81.08-.81.08-.81.08-.81.17-.81.08-.81.08-.81.08-.81.08-.81.08-.81.17-.81.08-.81.08-.81.08-.81.08-.81.17-.81h.08l.08-.81.08-.81.08-.81.08-.81.17-.81.08-.81.08-.81.08-.81.08-.81.17-.81.08-.81.08-.81.08-.81.08-.81.08-.81.17-.81.08-.81.08-.81.08-.81.08-.81.17-.81.08-.81.08-.81.08-.81.08-.81.17-.81.08-.81.08-.81.08-.81h.08l.08-.81.17-.81.08-.81.08-.81.08-.81.08-.81.17-.81.08-.81.08-.81.08-.81.08-.81.08-.81.17-.81.08-.81.08-.81.08-.81.08-.81.17-.81.08-.81.08-.81.08-.81.08-.81.08-.81.17-.81.08-.81.08-.81.08-.81.08-.81.17-.81.08-.81.08-.81.08-.81.08-.81.08-.81.17-.81.08-.81.08-.81.08-.81.08-.81.17-.81.08-.81.08-.81.08-.81.08-.81.08-.81.17-.81.08-.81.08-.81.08-.81.08-.81.17-.81.08-.81.08-.81.08-.81.08-.81.08-.81.17-.81.08-.81.08-.81.08-.81.08-.81.17-.81.08-.81.08-.81.08-.81.08-.81.17-.81.08-1.61.08-.81.08-.81.08-.81.08-.81.17-.81.08-.81.08-.81.08-.81.08-.81.17-.81.08-.81.08-.81.08-.81.08-.81.08-.81.17-.81.08-.81.08-.81.08-.81.08-.81.17-.81.08-.81.08-.81.08-.81.08-.81.08-.81.17-.81.07-.81"/>
    <path class="cls-4" d="m511.2,432.01l.09-.81.08-.81.17-.81.08-.81.08-.81.08-.81.08-.81.17-.81.08-.81.08-.81.08-.81.08-.81.08-.81.17-.81.08-.81.08-.81.08-.81.08-.81.17-.81.08-.81.08-.81.08-.81.08-.81.08-.81.17-.81.08-.81.08-.81.08-.81.08-.81.17-1.61.08-.81.08-.81.08-.81.08-.81.08-.81.17-.81.08-.81.08-.81.08-.81.08-.81.17-.81.08-.81.08-.81.08-.81.08-.81.08-.81.17-.81.08-.81.08-.81.08-.81.08-.81.17-.81.08-.81.08-.81.08-.81.08-.81.08-.81.17-.81.08-.81.08-.81.08-.81.08-.81.17-.81.08-.81.08-.81.08-.81.08-.81.08-.81.17-.81.08-.81.08-.81.08-.81.08-.81.17-.81.08-.81.08-.81.08-.81.08-.81.17-.81.08-.81.08-.81.08-.81.08-.81.08-.81.17-.81.08-.81.08-.81.08-.81.08-.81.17-.81.08-.81.08-.81.08-.81.08-.81.08-.81.17-.81.08-.81h.08l.08-.81.08-.81.17-.81.08-.81.08-.81.08-.81.08-.81.08-.81.17-.81.08-.81.08-.81.08-.81.08-.81.17-.81.08-.81.08-.81.08-.81.08-.81.08-.81.17-.81.08-.81.08-.81.08-.81.08-.81.17-.81.08-.81.08-.81.08-.81.08-.81h.08l.17-.81.08-.81.08-.81.08-.81.08-.81.17-.81.08-.81.08-.81.08-.81.08-.81.17-.81.08-.81.08-.81.08-.81.08-.81.08-.81h.17l.08-.81.08-.81.08-.81.08-.81.17-.81.08-.81.08-.81.08-.81.08-.81.08-.81.17-.81.08-.81.08-.81h.08l.08-.81.17-.81.08-.81.08-.81.08-.81.08-.81.08-.81.17-.81.08-.81.08-.81h.08l.08-.81.17-.81.08-.81.08-.81.08-.81.08-.81.08-.81.17-.81h.08l.08-.81.08-.81.08-.81.17-.81.08-.81.08-.81.08-.81.08-.81h.08l.17-.81.08-.81.08-.81.08-.81.08-.81.17-.81h.08l.08-.81.08-.81.08-.81.08-.81.17-.81.08-.81.08-.81h.08l.08-.81.17-.81.08-.81.08-.81.08-.81h.08l.17-.81.08-.8.08-.81.08-.81.08-.81h.08l.17-.81.08-.81.08-.81.08-.81.08-.81h.17l.08-.81.08-.81.08-.81.08-.81.08-.81h.17l.08-.81.08-.81.08-.81.08-.81h.17l.08-.81.08-.81.08-.81.08-.81h.08l.17-.81.08-.81.08-.81.08-.81h.08l.17-.81.08-.81.08-.81h.08l.08-.81.08-.81.17-.81.08-.81h.08l.08-.81.08-.81.17-.81h.08l.08-.81.08-.81.08-.81h.08l.17-.81.08-.81.08-.81h.08l.08-.81.17-.81.08-.81h.08l.08-.81.08-.81.17-.81h.08l.08-.81.08-.81.08-.81h.08l.17-.81.08-.81h.08l.08-.81.08-.81.17-.81h.08l.08-.81.08-.81h.08l.08-.81.17-.81h.08l.08-.81.08-.81h.08l.17-.81.08-.81.08-.81h.08l.08-.81.08-.81h.17l.08-.81.08-.81h.08l.08-.81.17-.81h.08l.08-.81.08-.81h.08l.08-.81.17-.81h.08l.08-.81h.08l.08-.81.17-.81h.08l.08-.81.08-.81h.08l.08-.81.17-.81h.08l.08-.81h.08l.08-.81.17-.81h.08l.08-.81h.08l.08-.81.08-.81h.17l.08-.81h.08l.08-.81.08-.81h.17l.08-.81h.08l.08-.81.08-.81h.17l.08-.81h.08l.08-.81h.08l.08-.81.17-.81h.08l.08-.81h.08l.08-.81h.17l.08-.81h.08l.08-.81h.08l.08-.81.17-.81h.08l.08-.81h.08l.08-.81h.17l.08-.81h.08l.08-.81h.08l.08-.81h.17l.08-.81h.08l.08-.81h.08l.17-.81h.08l.08-.81h.08l.08-.81h.08l.17-.81h.08l.08-.81h.08l.08-.81h.25l.08-.81h.08l.08-.81h.08l.17-.81h.08l.08-.81h.17l.17-.81h.08l.08-.81h.08l.08-.81h.17l.08-.81h.17l.08-.81h.08l.17-.81h.17l.08-.81h.08l.17-.81h.17l.08-.81h.08l.08-.81h.25l.08-.81h.17l.17-.81h.17l.08-.81h.08l.08-.81h.25l.08-.81h.17l.17-.81h.17l.08-.81h.17l.17-.81h.25l.08-.81h.25l.08-.81h.17l.08-.81h.33l.08-.81h.25l.08-.81h.25l.08-.81h.33l.08-.81h.33l.08-.81h.41l.08-.81h.25l.17-.81h.33l.17-.81h.33l.08-.81h.5l.17-.81h.41l.17-.81h.66l.08-.81h.66l.17-.81h1.08l.08-.81h2.07l.08-.02h.17l.08.02h2.15l.17.81h.91l.17.81h.75l.08.81h.58l.17.81h.58l.08.81h.41l.08.81h.33l.17.81h.33l.17.81h.33l.08.81h.33l.08.81h.33l.08.81h.25l.17.81h.25l.08.81h.33l.08.81h.17l.17.81h.25l.08.81h.25l.08.81h.17l.17.81h.17l.08.81h.17l.17.81h.17l.08.81h.25l.08.81h.17l.08.81h.25l.08.81h.08l.08.81h.25l.08.81h.17l.08.81h.08l.17.81h.17l.08.81h.08l.17.81h.17l.08.81h.08l.08.81h.17l.08.81h.17l.08.81h.17l.08.81h.08l.08.81h.08l.08.81h.25l.08.81h.08l.08.81h.17l.08.81h.08l.08.81h.08l.08.81h.17l.08.81h.08l.08.81h.08l.17.81h.08l.08.81h.08l.08.81h.17l.08.81h.08l.08.81h.08l.08.81h.17l.08.81h.08l.08.81h.08l.17.81h.08l.08.81h.08l.08.81h.08l.17.81.08.81h.08l.08.81h.08l.17.81h.08l.08.81h.08l.08.81.08.81h.17l.08.81h.08l.08.81.08.81h.17l.08.81h.08l.08.81h.08l.08.81.17.81h.08l.08.81h.08l.08.81.17.81h.08l.08.81.08.81h.08l.08.81h.17l.08.81.08.81h.08l.08.81.17.81h.08l.08.81.08.81h.08l.17.81h.08l.08.81.08.81h.08l.08.81.17.81h.08l.08.81.08.81h.08l.17.81.08.81h.08l.08.81.08.81h.08l.17.81.08.81.08.81h.08l.08.81.17.81h.08l.08.81.08.81h.08l.08.81.17.81.08.81h.08l.08.81.08.81h.17l.08.81.08.81.08.81h.08l.08.81.17.81.08.81h.08l.08.81.08.81h.17l.08.81.08.81.08.81h.08l.08.81.17.81.08.81h.08l.08.81.08.81.17.81.08.81h.08l.08.81.08.81.08.81h.17l.08.81.08.81.08.81h.08l.17.81.08.81.08.81.08.81h.08l.17.81.08.81.08.81.08.81h.08l.08.81.17.81.08.81.08.81h.08l.08.81.17.81.08.81.08.81.08.81h.08l.08.81.17.81.08.81.08.81h.08l.08.81.17.81.08.81.08.81.08.81h.08l.08.81.17.8.08.81.08.81.08.81.08.81h.17l.08.81.08.81.08.81.08.81.08.81h.17l.08.81.08.81.08.81.08.81.17.81.08.81.08.81h.08l.08.81.08.81.17.81.08.81.08.81.08.81.08.81h.17l.08.81.08.81.08.81.08.81.17.81.08.81.08.81.08.81h.08l.08.81.17.81.08.81.08.81.08.81.08.81.17.81.08.81.08.81h.08l.08.81.08.81.17.81.08.81.08.81.08.81.08.81.17.81.08.81.08.81.08.81h.08l.08.81.17.81.08.81.08.81.08.81.08.81.17.81.08.81.08.81.08.81.08.81.08.81.17.81.08.81h.08l.08.81.08.81.17.81.08.81.08.81.08.81.08.81.08.81.17.81.08.81.08.81.08.81.08.81.17.81.08.81.08.81.08.81.08.81.08.81.17.81.08.81h.08l.08.81.08.81.17.81.08.81.08.81.08.81.08.81.17.81.08.81.08.81.08.81.08.81.08.81.17.81.08.81.08.81.08.81.08.81.17.81.08.81.08.81.08.81.08.81.08.81.17.81.08.81.08.81.08.81.08.81.17.81.08.81.08.81.08.81.08.81.08.81.17.81.08.81.08.81.08.81.08.81.17.81.08.81.08.81.08.81.08.81.08.81.17.81.08.81.08.81.08.81.08.81.17.81.08.81.08.81.08.81.08.81.08.81.17.81.08.81.08.81.08.81.08.81.17.81.08.81.08.81.08.81.08.81.17.81.08.81.08.81.08.81.08.81.08.81.17.81.08.81.08.81.08.81.08.81.17.81.08.81.08.81.08.81.08.81.08.81.17.81.08.81.08.81.08.81.08.81.17.81.08.81.08.81.08.81.08.81.08.81.17.81.08.81.08.81.08.81.08.81.17.81.08.81.08.81.08.81.08.81.08.81.17.81.08.81.08.81.08.81.08.81.17.81.08.81.08.81.08,1.61.08.81.08.81.17.81.08.81.08.81.08.81.08.81.17.81.08.81.08.81.08.81.08.81.08.81.17.81.08.81.08.81.08.81.08.81.17.81.08.81.08.81.08.81.08.81.17.81.08.81.08.81.08.81.08.81.08.81.17.81.08.81.08.81.08.81.08.81.17.81.08.81.08.81.08.81.08.81.08.81.17.81.08.81.08.81.08.81.08.81.17.81.08.81.08.81.08.81.08.81.08.81.17.81.08.81.08.81.08.81.08.81.17.81.08.81.08.81.08.81.08.81.08.81.17.81.08.81.08.81.08.81.08.81.17.81.08.81.08.81.08.81.08.81.08.81.17.81.08.81.08.81.08.81.08.81.17.81.08.81.08.81.08.81.08.81.17.81.08.81.08.81.08.81.08.81.08.81.17.81.08.81.08.81.08.81.08.81.17.81.08.81.08.81.08.81.08.81.08.81.17.81.08.81.08.81.08.81.08.81.17.81.08.81.08.81.08.81.08.81.08.81.17.81.08.81.08.81h.08l.08.81.17.81.08.81.08.81.08.81.08.81.08.81.17.81.08.81.08.81.08.81.08.81.17.81.08.81.08.81.08.81.08.81.08.81.17.81.08.81.08.81h.08l.08.81.17.81.08.81.08.81.08.81.08.81.08.81.17.81.08.81.08.81.08.81.08.81.17.81.08.81h.08l.08.81.08.81.17.81.08.81.08.81.08.81.08.81.08.81.17.81.08.81.08.81h.08l.08.81.17.81.08.81.08.81.08.81.08.81.08.81.17.81.08.81h.08l.08.81.08.81.17.81.08.81.08.81.08.81.08.81.08.81h.17l.08.81.08.81.08.81.08.81.17.81.08.81.08.81h.08l.08.81.08.81.17.81.08.81.08.81.08.81.08.81h.17l.08.81.08.81.08.81.08.81.08.81h.17l.08.81.08.81.08.81.08.81.17.81.08.81h.08l.08.81.08.81.17.81.08.81.08.81h.08l.08.81.08.81.17.81.08.81h.08l.08.81.08.81.17.81.08.81.08.81h.08l.08.81.08.81.17.81.08.81h.08l.08.81.08.81.17.81.08.81h.08l.08.81.08.81.08.81.17.81h.08l.08.81.08.81.08.81h.17l.08.81.08.81.08.81h.08l.08.81.17.81.08.81.08.81h.08l.08.81.17.81.08.81h.08l.08.81.08.81.08.81h.17l.08.81.08.81h.08l.08.81.17.81.08.81h.08l.08.81.08.81.08.81h.17l.08.81.08.81h.08l.08.81.17.81.08.81h.08l.08.81.08.81h.17l.08.81.08.81h.08l.08.81.08.81.17.81h.08l.08.81.08.81h.08l.17.81.08.81h.08l.08.81.08.81h.08l.17.81.08.81h.08l.08.81.08.81h.17l.08.81h.08l.08.81.08.81h.08l.17.81.08.81h.08l.08.81.08.81h.17l.08.81h.08l.08.81.08.81h.08l.17.81.08.81h.08l.08.81h.08l.17.81.08.81h.08l.08.81h.08l.08.81h.17l.08.81.08.81h.08l.08.81h.17l.08.81.08.81h.08l.08.81h.17l.08.81h.08l.08.81h.08l.08.81.17.81h.08l.08.81h.08l.08.81h.17l.08.81h.08l.08.81h.08l.08.81h.17l.08.81h.08l.08.81h.08l.17.81h.08l.08.81h.08l.08.81h.08l.17.81h.08l.08.81h.08l.08.81h.17l.08.81h.08l.08.81h.08l.08.81h.17l.08.81h.08l.08.81h.25l.08.81h.08l.08.81h.08l.08.81h.17l.08.81h.17l.08.81h.17l.08.81h.08l.08.81h.17l.17.81h.08l.08.81h.17l.17.81h.08l.08.81h.17l.17.81h.17l.08.81h.08l.08.81h.25l.08.81h.17l.17.81h.17l.08.81h.17l.17.81h.17l.08.81h.25l.08.81h.17l.08.81h.25l.08.81h.25l.17.81h.17l.08.81h.33l.08.81h.25l.17.81h.25l.08.81h.33l.08.81h.33l.08.81h.41l.08.81h.33l.17.81h.33l.17.81h.33l.08.81h.66l.08.81h.58l.08.81h.75l.17.81h.91l.17.81h2.15l.08-.04h.17l.08.04h2.07l.08-.81h1.08l.17-.81h.66l.08-.81h.66l.17-.81h.5l.08-.81h.5l.08-.81h.41l.08-.81h.33l.17-.81h.25l.08-.81h.41l.08-.81h.33l.08-.81h.33l.08-.81h.25l.08-.81h.25l.08-.81h.33l.08-.81h.17l.08-.81h.25l.08-.81h.25l.17-.81h.17l.08-.81h.17l.17-.81h.17l.08-.81h.25l.08-.81h.08l.08-.81h.25l.08-.81h.17l.08-.81h.25l.08-.81h.08l.08-.81h.25l.08-.81h.08l.08-.81h.17l.17-.81h.08l.08-.81h.17l.17-.81h.08l.08-.81h.08l.08-.81h.08l.17-.81h.17l.08-.81h.08l.17-.81h.08l.08-.81h.08l.08-.81h.25l.08-.81h.08l.08-.81h.08l.17-.81h.08l.08-.81h.08l.08-.81h.08l.17-.81h.08l.08-.81h.08l.08-.81h.17l.08-.81h.08l.08-.81h.08l.17-.81h.08l.08-.81h.08l.08-.81h.08l.17-.81.08-.81h.08l.08-.81h.08l.17-.81h.08l.08-.81h.08l.08-.81h.08l.17-.81.08-.81h.08l.08-.81h.08l.17-.81h.08l.08-.81.08-.81h.08l.08-.81h.17l.08-.81.08-.81h.08l.08-.81h.17l.08-.81.08-.81h.08l.08-.81h.08l.17-.81.08-.81h.08l.08-.81h.08l.17-.81.08-.81h.08l.08-.81.08-.81h.08l.17-.81.08-.81h.08l.08-.81h.08l.17-.81.08-.81h.08l.08-.81.08-.81h.08l.17-.81.08-.81h.08l.08-.81.08-.81h.17l.08-.81.08-.81h.08l.08-.81.17-.81.08-.81h.08l.08-.81.08-.81h.08l.17-.81.08-.81h.08l.08-.81.08-.81h.17l.08-.81.08-.81.08-.81h.08l.08-.81.17-.81h.08l.08-.81.08-.81.08-.81h.17l.08-.81.08-.81.08-.81h.08l.08-.81.17-.81.08-.81h.08l.08-.81.08-.81.17-.81h.08l.08-.81.08-.81.08-.81h.08l.17-.81.08-.81.08-.81h.08l.08-.81.17-.81.08-.81.08-.81h.08l.08-.81.08-.81.17-.81h.08l.08-.81.08-.81.08-.81.17-.81h.08l.08-.81.08-.81.08-.81.17-.81h.08l.08-.81.08-.81.08-.81.08-.81h.17l.08-.81.08-.81.08-.81.08-.81.17-.81h.08l.08-.81.08-.81.08-.81.08-.81.17-.81h.08l.08-.81.08-.81.08-.81.17-.81.08-.81h.08l.08-.81.08-.81.08-.81.17-.81.08-.81h.08l.08-.81.08-.81.17-.81.08-.81.08-.81.08-.81.08-.81h.08l.17-.81.08-.81.08-.81.08-.81.08-.81.17-.81h.08l.08-.81.08-.81.08-.81.08-.81.17-.81.08-.81.08-.81.08-.81h.08l.17-.81.08-.81.08-.81.08-.81.08-.81.08-.81.17-.81.08-.81h.08l.08-.81.08-.81.17-.81.08-.81.08-.81.08-.81.08-.81.17-.81.08-.81.08-.81h.08l.08-.81.08-.81.17-.81.08-.81.08-.81.08-.81.08-.81.17-.81.08-.81.08-.81.08-.81.08-.81.08-.81h.17l.08-.81.08-.81.08-.81.08-.81.17-.81.08-.81.08-.81.08-.81.08-.81.08-.81.17-.81.08-.81.08-.81.08-.81.08-.81.17-.81h.08l.08-.81.08-.81.08-.81.08-.81.17-.81.08-.81.08-.81.08-.81.08-.81.17-.81.08-.81.08-.81.08-.81.08-.81.08-.81.17-.81.08-.81.08-.81.08-.81.08-.81.17-.81.08-.81.08-.81.08-.81.08-.81.17-.81.08-.81.08-.81.08-.81h.08l.08-.81.17-.81.08-.81.08-.81.08-.81.08-.81.17-.81.08-.81.08-.81.08-.81.08-.81.08-.81.17-.81.08-.81.08-.81.08-.81.08-.81.17-.81.08-.81.08-.81.08-.81.08-.81.08-.81.17-.81.08-.81.08-.81.08-.81.08-.81.17-.81.08-.81.08-.81.08-.81.08-.81.08-.81.17-.81.08-.81.08-.81.08-.81.08-.81.17-.81.08-.81.08-.81.08-.81.08-.81.08-.81.17-.81.08-.81.08-.81.08-.81.08-.81.17-.81.08-.81.08-.81.08-.81.08-.81.08-.81.17-.81.08-.81.08-.81.08-.81.08-.81.17-.81.08-.81.08-.81.08-.81.08-.81.17-.81.08-1.61.08-.81.08-.81.08-.81.08-.81.17-.81.08-.81.08-.81.08-.81.08-.81.17-.81.08-.81.08-.81.08-.81.08-.81.08-.81.17-.81.08-.81.08-.81.08-.81.08-.81.17-.81.08-.81.08-.81.08-.81.08-.81.08-.81.17-.81.07-.81"/>
    <path class="cls-4" d="m727.2,432.01l.09-.81.08-.81.17-.81.08-.81.08-.81.08-.81.08-.81.17-.81.08-.81.08-.81.08-.81.08-.81.08-.81.17-.81.08-.81.08-.81.08-.81.08-.81.17-.81.08-.81.08-.81.08-.81.08-.81.08-.81.17-.81.08-.81.08-.81.08-.81.08-.81.17-1.61.08-.81.08-.81.08-.81.08-.81.08-.81.17-.81.08-.81.08-.81.08-.81.08-.81.17-.81.08-.81.08-.81.08-.81.08-.81.08-.81.17-.81.08-.81.08-.81.08-.81.08-.81.17-.81.08-.81.08-.81.08-.81.08-.81.08-.81.17-.81.08-.81.08-.81.08-.81.08-.81.17-.81.08-.81.08-.81.08-.81.08-.81.08-.81.17-.81.08-.81.08-.81.08-.81.08-.81.17-.81.08-.81.08-.81.08-.81.08-.81.17-.81.08-.81.08-.81.08-.81.08-.81.08-.81.17-.81.08-.81.08-.81.08-.81.08-.81.17-.81.08-.81.08-.81.08-.81.08-.81.08-.81.17-.81.08-.81h.08l.08-.81.08-.81.17-.81.08-.81.08-.81.08-.81.08-.81.08-.81.17-.81.08-.81.08-.81.08-.81.08-.81.17-.81.08-.81.08-.81.08-.81.08-.81.08-.81.17-.81.08-.81.08-.81.08-.81.08-.81.17-.81.08-.81.08-.81.08-.81.08-.81h.08l.17-.81.08-.81.08-.81.08-.81.08-.81.17-.81.08-.81.08-.81.08-.81.08-.81.17-.81.08-.81.08-.81.08-.81.08-.81.08-.81h.17l.08-.81.08-.81.08-.81.08-.81.17-.81.08-.81.08-.81.08-.81.08-.81.08-.81.17-.81.08-.81.08-.81h.08l.08-.81.17-.81.08-.81.08-.81.08-.81.08-.81.08-.81.17-.81.08-.81.08-.81h.08l.08-.81.17-.81.08-.81.08-.81.08-.81.08-.81.08-.81.17-.81h.08l.08-.81.08-.81.08-.81.17-.81.08-.81.08-.81.08-.81.08-.81h.08l.17-.81.08-.81.08-.81.08-.81.08-.81.17-.81h.08l.08-.81.08-.81.08-.81.08-.81.17-.81.08-.81.08-.81h.08l.08-.81.17-.81.08-.81.08-.81.08-.81h.08l.17-.81.08-.8.08-.81.08-.81.08-.81h.08l.17-.81.08-.81.08-.81.08-.81.08-.81h.17l.08-.81.08-.81.08-.81.08-.81.08-.81h.17l.08-.81.08-.81.08-.81.08-.81h.17l.08-.81.08-.81.08-.81.08-.81h.08l.17-.81.08-.81.08-.81.08-.81h.08l.17-.81.08-.81.08-.81h.08l.08-.81.08-.81.17-.81.08-.81h.08l.08-.81.08-.81.17-.81h.08l.08-.81.08-.81.08-.81h.08l.17-.81.08-.81.08-.81h.08l.08-.81.17-.81.08-.81h.08l.08-.81.08-.81.17-.81h.08l.08-.81.08-.81.08-.81h.08l.17-.81.08-.81h.08l.08-.81.08-.81.17-.81h.08l.08-.81.08-.81h.08l.08-.81.17-.81h.08l.08-.81.08-.81h.08l.17-.81.08-.81.08-.81h.08l.08-.81.08-.81h.17l.08-.81.08-.81h.08l.08-.81.17-.81h.08l.08-.81.08-.81h.08l.08-.81.17-.81h.08l.08-.81h.08l.08-.81.17-.81h.08l.08-.81.08-.81h.08l.08-.81.17-.81h.08l.08-.81h.08l.08-.81.17-.81h.08l.08-.81h.08l.08-.81.08-.81h.17l.08-.81h.08l.08-.81.08-.81h.17l.08-.81h.08l.08-.81.08-.81h.17l.08-.81h.08l.08-.81h.08l.08-.81.17-.81h.08l.08-.81h.08l.08-.81h.17l.08-.81h.08l.08-.81h.08l.08-.81.17-.81h.08l.08-.81h.08l.08-.81h.17l.08-.81h.08l.08-.81h.08l.08-.81h.17l.08-.81h.08l.08-.81h.08l.17-.81h.08l.08-.81h.08l.08-.81h.08l.17-.81h.08l.08-.81h.08l.08-.81h.25l.08-.81h.08l.08-.81h.08l.17-.81h.08l.08-.81h.17l.17-.81h.08l.08-.81h.08l.08-.81h.17l.08-.81h.17l.08-.81h.08l.17-.81h.17l.08-.81h.08l.17-.81h.17l.08-.81h.08l.08-.81h.25l.08-.81h.17l.17-.81h.17l.08-.81h.08l.08-.81h.25l.08-.81h.17l.17-.81h.17l.08-.81h.17l.17-.81h.25l.08-.81h.25l.08-.81h.17l.08-.81h.33l.08-.81h.25l.08-.81h.25l.08-.81h.33l.08-.81h.33l.08-.81h.41l.08-.81h.25l.17-.81h.33l.17-.81h.33l.08-.81h.5l.17-.81h.41l.17-.81h.66l.08-.81h.66l.17-.81h1.08l.08-.81h2.07l.08-.02h.17l.08.02h2.15l.17.81h.91l.17.81h.75l.08.81h.58l.17.81h.58l.08.81h.41l.08.81h.33l.17.81h.33l.17.81h.33l.08.81h.33l.08.81h.33l.08.81h.25l.17.81h.25l.08.81h.33l.08.81h.17l.17.81h.25l.08.81h.25l.08.81h.17l.17.81h.17l.08.81h.17l.17.81h.17l.08.81h.25l.08.81h.17l.08.81h.25l.08.81h.08l.08.81h.25l.08.81h.17l.08.81h.08l.17.81h.17l.08.81h.08l.17.81h.17l.08.81h.08l.08.81h.17l.08.81h.17l.08.81h.17l.08.81h.08l.08.81h.08l.08.81h.25l.08.81h.08l.08.81h.17l.08.81h.08l.08.81h.08l.08.81h.17l.08.81h.08l.08.81h.08l.17.81h.08l.08.81h.08l.08.81h.17l.08.81h.08l.08.81h.08l.08.81h.17l.08.81h.08l.08.81h.08l.17.81h.08l.08.81h.08l.08.81h.08l.17.81.08.81h.08l.08.81h.08l.17.81h.08l.08.81h.08l.08.81.08.81h.17l.08.81h.08l.08.81.08.81h.17l.08.81h.08l.08.81h.08l.08.81.17.81h.08l.08.81h.08l.08.81.17.81h.08l.08.81.08.81h.08l.08.81h.17l.08.81.08.81h.08l.08.81.17.81h.08l.08.81.08.81h.08l.17.81h.08l.08.81.08.81h.08l.08.81.17.81h.08l.08.81.08.81h.08l.17.81.08.81h.08l.08.81.08.81h.08l.17.81.08.81.08.81h.08l.08.81.17.81h.08l.08.81.08.81h.08l.08.81.17.81.08.81h.08l.08.81.08.81h.17l.08.81.08.81.08.81h.08l.08.81.17.81.08.81h.08l.08.81.08.81h.17l.08.81.08.81.08.81h.08l.08.81.17.81.08.81h.08l.08.81.08.81.17.81.08.81h.08l.08.81.08.81.08.81h.17l.08.81.08.81.08.81h.08l.17.81.08.81.08.81.08.81h.08l.17.81.08.81.08.81.08.81h.08l.08.81.17.81.08.81.08.81h.08l.08.81.17.81.08.81.08.81.08.81h.08l.08.81.17.81.08.81.08.81h.08l.08.81.17.81.08.81.08.81.08.81h.08l.08.81.17.8.08.81.08.81.08.81.08.81h.17l.08.81.08.81.08.81.08.81.08.81h.17l.08.81.08.81.08.81.08.81.17.81.08.81.08.81h.08l.08.81.08.81.17.81.08.81.08.81.08.81.08.81h.17l.08.81.08.81.08.81.08.81.17.81.08.81.08.81.08.81h.08l.08.81.17.81.08.81.08.81.08.81.08.81.17.81.08.81.08.81h.08l.08.81.08.81.17.81.08.81.08.81.08.81.08.81.17.81.08.81.08.81.08.81h.08l.08.81.17.81.08.81.08.81.08.81.08.81.17.81.08.81.08.81.08.81.08.81.08.81.17.81.08.81h.08l.08.81.08.81.17.81.08.81.08.81.08.81.08.81.08.81.17.81.08.81.08.81.08.81.08.81.17.81.08.81.08.81.08.81.08.81.08.81.17.81.08.81h.08l.08.81.08.81.17.81.08.81.08.81.08.81.08.81.17.81.08.81.08.81.08.81.08.81.08.81.17.81.08.81.08.81.08.81.08.81.17.81.08.81.08.81.08.81.08.81.08.81.17.81.08.81.08.81.08.81.08.81.17.81.08.81.08.81.08.81.08.81.08.81.17.81.08.81.08.81.08.81.08.81.17.81.08.81.08.81.08.81.08.81.08.81.17.81.08.81.08.81.08.81.08.81.17.81.08.81.08.81.08.81.08.81.08.81.17.81.08.81.08.81.08.81.08.81.17.81.08.81.08.81.08.81.08.81.17.81.08.81.08.81.08.81.08.81.08.81.17.81.08.81.08.81.08.81.08.81.17.81.08.81.08.81.08.81.08.81.08.81.17.81.08.81.08.81.08.81.08.81.17.81.08.81.08.81.08.81.08.81.08.81.17.81.08.81.08.81.08.81.08.81.17.81.08.81.08.81.08.81.08.81.08.81.17.81.08.81.08.81.08.81.08.81.17.81.08.81.08.81.08,1.61.08.81.08.81.17.81.08.81.08.81.08.81.08.81.17.81.08.81.08.81.08.81.08.81.08.81.17.81.08.81.08.81.08.81.08.81.17.81.08.81.08.81.08.81.08.81.17.81.08.81.08.81.08.81.08.81.08.81.17.81.08.81.08.81.08.81.08.81.17.81.08.81.08.81.08.81.08.81.08.81.17.81.08.81.08.81.08.81.08.81.17.81.08.81.08.81.08.81.08.81.08.81.17.81.08.81.08.81.08.81.08.81.17.81.08.81.08.81.08.81.08.81.08.81.17.81.08.81.08.81.08.81.08.81.17.81.08.81.08.81.08.81.08.81.08.81.17.81.08.81.08.81.08.81.08.81.17.81.08.81.08.81.08.81.08.81.17.81.08.81.08.81.08.81.08.81.08.81.17.81.08.81.08.81.08.81.08.81.17.81.08.81.08.81.08.81.08.81.08.81.17.81.08.81.08.81.08.81.08.81.17.81.08.81.08.81.08.81.08.81.08.81.17.81.08.81.08.81h.08l.08.81.17.81.08.81.08.81.08.81.08.81.08.81.17.81.08.81.08.81.08.81.08.81.17.81.08.81.08.81.08.81.08.81.08.81.17.81.08.81.08.81h.08l.08.81.17.81.08.81.08.81.08.81.08.81.08.81.17.81.08.81.08.81.08.81.08.81.17.81.08.81h.08l.08.81.08.81.17.81.08.81.08.81.08.81.08.81.08.81.17.81.08.81.08.81h.08l.08.81.17.81.08.81.08.81.08.81.08.81.08.81.17.81.08.81h.08l.08.81.08.81.17.81.08.81.08.81.08.81.08.81.08.81h.17l.08.81.08.81.08.81.08.81.17.81.08.81.08.81h.08l.08.81.08.81.17.81.08.81.08.81.08.81.08.81h.17l.08.81.08.81.08.81.08.81.08.81h.17l.08.81.08.81.08.81.08.81.17.81.08.81h.08l.08.81.08.81.17.81.08.81.08.81h.08l.08.81.08.81.17.81.08.81h.08l.08.81.08.81.17.81.08.81.08.81h.08l.08.81.08.81.17.81.08.81h.08l.08.81.08.81.17.81.08.81h.08l.08.81.08.81.08.81.17.81h.08l.08.81.08.81.08.81h.17l.08.81.08.81.08.81h.08l.08.81.17.81.08.81.08.81h.08l.08.81.17.81.08.81h.08l.08.81.08.81.08.81h.17l.08.81.08.81h.08l.08.81.17.81.08.81h.08l.08.81.08.81.08.81h.17l.08.81.08.81h.08l.08.81.17.81.08.81h.08l.08.81.08.81h.17l.08.81.08.81h.08l.08.81.08.81.17.81h.08l.08.81.08.81h.08l.17.81.08.81h.08l.08.81.08.81h.08l.17.81.08.81h.08l.08.81.08.81h.17l.08.81h.08l.08.81.08.81h.08l.17.81.08.81h.08l.08.81.08.81h.17l.08.81h.08l.08.81.08.81h.08l.17.81.08.81h.08l.08.81h.08l.17.81.08.81h.08l.08.81h.08l.08.81h.17l.08.81.08.81h.08l.08.81h.17l.08.81.08.81h.08l.08.81h.17l.08.81h.08l.08.81h.08l.08.81.17.81h.08l.08.81h.08l.08.81h.17l.08.81h.08l.08.81h.08l.08.81h.17l.08.81h.08l.08.81h.08l.17.81h.08l.08.81h.08l.08.81h.08l.17.81h.08l.08.81h.08l.08.81h.17l.08.81h.08l.08.81h.08l.08.81h.17l.08.81h.08l.08.81h.25l.08.81h.08l.08.81h.08l.08.81h.17l.08.81h.17l.08.81h.17l.08.81h.08l.08.81h.17l.17.81h.08l.08.81h.17l.17.81h.08l.08.81h.17l.17.81h.17l.08.81h.08l.08.81h.25l.08.81h.17l.17.81h.17l.08.81h.17l.17.81h.17l.08.81h.25l.08.81h.17l.08.81h.25l.08.81h.25l.17.81h.17l.08.81h.33l.08.81h.25l.17.81h.25l.08.81h.33l.08.81h.33l.08.81h.41l.08.81h.33l.17.81h.33l.17.81h.33l.08.81h.66l.08.81h.58l.08.81h.75l.17.81h.91l.17.81h2.15l.08-.04h.17l.08.04h2.07l.08-.81h1.08l.17-.81h.66l.08-.81h.66l.17-.81h.5l.08-.81h.5l.08-.81h.41l.08-.81h.33l.17-.81h.25l.08-.81h.41l.08-.81h.33l.08-.81h.33l.08-.81h.25l.08-.81h.25l.08-.81h.33l.08-.81h.17l.08-.81h.25l.08-.81h.25l.17-.81h.17l.08-.81h.17l.17-.81h.17l.08-.81h.25l.08-.81h.08l.08-.81h.25l.08-.81h.17l.08-.81h.25l.08-.81h.08l.08-.81h.25l.08-.81h.08l.08-.81h.17l.17-.81h.08l.08-.81h.17l.17-.81h.08l.08-.81h.08l.08-.81h.08l.17-.81h.17l.08-.81h.08l.17-.81h.08l.08-.81h.08l.08-.81h.25l.08-.81h.08l.08-.81h.08l.17-.81h.08l.08-.81h.08l.08-.81h.08l.17-.81h.08l.08-.81h.08l.08-.81h.17l.08-.81h.08l.08-.81h.08l.17-.81h.08l.08-.81h.08l.08-.81h.08l.17-.81.08-.81h.08l.08-.81h.08l.17-.81h.08l.08-.81h.08l.08-.81h.08l.17-.81.08-.81h.08l.08-.81h.08l.17-.81h.08l.08-.81.08-.81h.08l.08-.81h.17l.08-.81.08-.81h.08l.08-.81h.17l.08-.81.08-.81h.08l.08-.81h.08l.17-.81.08-.81h.08l.08-.81h.08l.17-.81.08-.81h.08l.08-.81.08-.81h.08l.17-.81.08-.81h.08l.08-.81h.08l.17-.81.08-.81h.08l.08-.81.08-.81h.08l.17-.81.08-.81h.08l.08-.81.08-.81h.17l.08-.81.08-.81h.08l.08-.81.17-.81.08-.81h.08l.08-.81.08-.81h.08l.17-.81.08-.81h.08l.08-.81.08-.81h.17l.08-.81.08-.81.08-.81h.08l.08-.81.17-.81h.08l.08-.81.08-.81.08-.81h.17l.08-.81.08-.81.08-.81h.08l.08-.81.17-.81.08-.81h.08l.08-.81.08-.81.17-.81h.08l.08-.81.08-.81.08-.81h.08l.17-.81.08-.81.08-.81h.08l.08-.81.17-.81.08-.81.08-.81h.08l.08-.81.08-.81.17-.81h.08l.08-.81.08-.81.08-.81.17-.81h.08l.08-.81.08-.81.08-.81.17-.81h.08l.08-.81.08-.81.08-.81.08-.81h.17l.08-.81.08-.81.08-.81.08-.81.17-.81h.08l.08-.81.08-.81.08-.81.08-.81.17-.81h.08l.08-.81.08-.81.08-.81.17-.81.08-.81h.08l.08-.81.08-.81.08-.81.17-.81.08-.81h.08l.08-.81.08-.81.17-.81.08-.81.08-.81.08-.81.08-.81h.08l.17-.81.08-.81.08-.81.08-.81.08-.81.17-.81h.08l.08-.81.08-.81.08-.81.08-.81.17-.81.08-.81.08-.81.08-.81h.08l.17-.81.08-.81.08-.81.08-.81.08-.81.08-.81.17-.81.08-.81h.08l.08-.81.08-.81.17-.81.08-.81.08-.81.08-.81.08-.81.17-.81.08-.81.08-.81h.08l.08-.81.08-.81.17-.81.08-.81.08-.81.08-.81.08-.81.17-.81.08-.81.08-.81.08-.81.08-.81.08-.81h.17l.08-.81.08-.81.08-.81.08-.81.17-.81.08-.81.08-.81.08-.81.08-.81.08-.81.17-.81.08-.81.08-.81.08-.81.08-.81.17-.81h.08l.08-.81.08-.81.08-.81.08-.81.17-.81.08-.81.08-.81.08-.81.08-.81.17-.81.08-.81.08-.81.08-.81.08-.81.08-.81.17-.81.08-.81.08-.81.08-.81.08-.81.17-.81.08-.81.08-.81.08-.81.08-.81.17-.81.08-.81.08-.81.08-.81h.08l.08-.81.17-.81.08-.81.08-.81.08-.81.08-.81.17-.81.08-.81.08-.81.08-.81.08-.81.08-.81.17-.81.08-.81.08-.81.08-.81.08-.81.17-.81.08-.81.08-.81.08-.81.08-.81.08-.81.17-.81.08-.81.08-.81.08-.81.08-.81.17-.81.08-.81.08-.81.08-.81.08-.81.08-.81.17-.81.08-.81.08-.81.08-.81.08-.81.17-.81.08-.81.08-.81.08-.81.08-.81.08-.81.17-.81.08-.81.08-.81.08-.81.08-.81.17-.81.08-.81.08-.81.08-.81.08-.81.08-.81.17-.81.08-.81.08-.81.08-.81.08-.81.17-.81.08-.81.08-.81.08-.81.08-.81.17-.81.08-1.61.08-.81.08-.81.08-.81.08-.81.17-.81.08-.81.08-.81.08-.81.08-.81.17-.81.08-.81.08-.81.08-.81.08-.81.08-.81.17-.81.08-.81.08-.81.08-.81.08-.81.17-.81.08-.81.08-.81.08-.81.08-.81.08-.81.17-.81.07-.81"/>
    <path class="cls-4" d="m943.2,432.01l.09-.81.08-.81.17-.81.08-.81.08-.81.08-.81.08-.81.17-.81.08-.81.08-.81.08-.81.08-.81.08-.81.17-.81.08-.81.08-.81.08-.81.08-.81.17-.81.08-.81.08-.81.08-.81.08-.81.08-.81.17-.81.08-.81.08-.81.08-.81.08-.81.17-1.61.08-.81.08-.81.08-.81.08-.81.08-.81.17-.81.08-.81.08-.81.08-.81.08-.81.17-.81.08-.81.08-.81.08-.81.08-.81.08-.81.17-.81.08-.81.08-.81.08-.81.08-.81.17-.81.08-.81.08-.81.08-.81.08-.81.08-.81.17-.81.08-.81.08-.81.08-.81.08-.81.17-.81.08-.81.08-.81.08-.81.08-.81.08-.81.17-.81.08-.81.08-.81.08-.81.08-.81.17-.81.08-.81.08-.81.08-.81.08-.81.17-.81.08-.81.08-.81.08-.81.08-.81.08-.81.17-.81.08-.81.08-.81.08-.81.08-.81.17-.81.08-.81.08-.81.08-.81.08-.81.08-.81.17-.81.08-.81h.08l.08-.81.08-.81.17-.81.08-.81.08-.81.08-.81.08-.81.08-.81.17-.81.08-.81.08-.81.08-.81.08-.81.17-.81.08-.81.08-.81.08-.81.08-.81.08-.81.17-.81.08-.81.08-.81.08-.81.08-.81.17-.81.08-.81.08-.81.08-.81.08-.81h.08l.17-.81.08-.81.08-.81.08-.81.08-.81.17-.81.08-.81.08-.81.08-.81.08-.81.17-.81.08-.81.08-.81.08-.81.08-.81.08-.81h.17l.08-.81.08-.81.08-.81.08-.81.17-.81.08-.81.08-.81.08-.81.08-.81.08-.81.17-.81.08-.81.08-.81h.08l.08-.81.17-.81.08-.81.08-.81.08-.81.08-.81.08-.81.17-.81.08-.81.08-.81h.08l.08-.81.17-.81.08-.81.08-.81.08-.81.08-.81.08-.81.17-.81h.08l.08-.81.08-.81.08-.81.17-.81.08-.81.08-.81.08-.81.08-.81h.08l.17-.81.08-.81.08-.81.08-.81.08-.81.17-.81h.08l.08-.81.08-.81.08-.81.08-.81.17-.81.08-.81.08-.81h.08l.08-.81.17-.81.08-.81.08-.81.08-.81h.08l.17-.81.08-.8.08-.81.08-.81.08-.81h.08l.17-.81.08-.81.08-.81.08-.81.08-.81h.17l.08-.81.08-.81.08-.81.08-.81.08-.81h.17l.08-.81.08-.81.08-.81.08-.81h.17l.08-.81.08-.81.08-.81.08-.81h.08l.17-.81.08-.81.08-.81.08-.81h.08l.17-.81.08-.81.08-.81h.08l.08-.81.08-.81.17-.81.08-.81h.08l.08-.81.08-.81.17-.81h.08l.08-.81.08-.81.08-.81h.08l.17-.81.08-.81.08-.81h.08l.08-.81.17-.81.08-.81h.08l.08-.81.08-.81.17-.81h.08l.08-.81.08-.81.08-.81h.08l.17-.81.08-.81h.08l.08-.81.08-.81.17-.81h.08l.08-.81.08-.81h.08l.08-.81.17-.81h.08l.08-.81.08-.81h.08l.17-.81.08-.81.08-.81h.08l.08-.81.08-.81h.17l.08-.81.08-.81h.08l.08-.81.17-.81h.08l.08-.81.08-.81h.08l.08-.81.17-.81h.08l.08-.81h.08l.08-.81.17-.81h.08l.08-.81.08-.81h.08l.08-.81.17-.81h.08l.08-.81h.08l.08-.81.17-.81h.08l.08-.81h.08l.08-.81.08-.81h.17l.08-.81h.08l.08-.81.08-.81h.17l.08-.81h.08l.08-.81.08-.81h.17l.08-.81h.08l.08-.81h.08l.08-.81.17-.81h.08l.08-.81h.08l.08-.81h.17l.08-.81h.08l.08-.81h.08l.08-.81.17-.81h.08l.08-.81h.08l.08-.81h.17l.08-.81h.08l.08-.81h.08l.08-.81h.17l.08-.81h.08l.08-.81h.08l.17-.81h.08l.08-.81h.08l.08-.81h.08l.17-.81h.08l.08-.81h.08l.08-.81h.25l.08-.81h.08l.08-.81h.08l.17-.81h.08l.08-.81h.17l.17-.81h.08l.08-.81h.08l.08-.81h.17l.08-.81h.17l.08-.81h.08l.17-.81h.17l.08-.81h.08l.17-.81h.17l.08-.81h.08l.08-.81h.25l.08-.81h.17l.17-.81h.17l.08-.81h.08l.08-.81h.25l.08-.81h.17l.17-.81h.17l.08-.81h.17l.17-.81h.25l.08-.81h.25l.08-.81h.17l.08-.81h.33l.08-.81h.25l.08-.81h.25l.08-.81h.33l.08-.81h.33l.08-.81h.41l.08-.81h.25l.17-.81h.33l.17-.81h.33l.08-.81h.5l.17-.81h.41l.17-.81h.66l.08-.81h.66l.17-.81h1.08l.08-.81h2.07l.08-.02h.17l.08.02h2.15l.17.81h.91l.17.81h.75l.08.81h.58l.17.81h.58l.08.81h.41l.08.81h.33l.17.81h.33l.17.81h.33l.08.81h.33l.08.81h.33l.08.81h.25l.17.81h.25l.08.81h.33l.08.81h.17l.17.81h.25l.08.81h.25l.08.81h.17l.17.81h.17l.08.81h.17l.17.81h.17l.08.81h.25l.08.81h.17l.08.81h.25l.08.81h.08l.08.81h.25l.08.81h.17l.08.81h.08l.17.81h.17l.08.81h.08l.17.81h.17l.08.81h.08l.08.81h.17l.08.81h.17l.08.81h.17l.08.81h.08l.08.81h.08l.08.81h.25l.08.81h.08l.08.81h.17l.08.81h.08l.08.81h.08l.08.81h.17l.08.81h.08l.08.81h.08l.17.81h.08l.08.81h.08l.08.81h.17l.08.81h.08l.08.81h.08l.08.81h.17l.08.81h.08l.08.81h.08l.17.81h.08l.08.81h.08l.08.81h.08l.17.81.08.81h.08l.08.81h.08l.17.81h.08l.08.81h.08l.08.81.08.81h.17l.08.81h.08l.08.81.08.81h.17l.08.81h.08l.08.81h.08l.08.81.17.81h.08l.08.81h.08l.08.81.17.81h.08l.08.81.08.81h.08l.08.81h.17l.08.81.08.81h.08l.08.81.17.81h.08l.08.81.08.81h.08l.17.81h.08l.08.81.08.81h.08l.08.81.17.81h.08l.08.81.08.81h.08l.17.81.08.81h.08l.08.81.08.81h.08l.17.81.08.81.08.81h.08l.08.81.17.81h.08l.08.81.08.81h.08l.08.81.17.81.08.81h.08l.08.81.08.81h.17l.08.81.08.81.08.81h.08l.08.81.17.81.08.81h.08l.08.81.08.81h.17l.08.81.08.81.08.81h.08l.08.81.17.81.08.81h.08l.08.81.08.81.17.81.08.81h.08l.08.81.08.81.08.81h.17l.08.81.08.81.08.81h.08l.17.81.08.81.08.81.08.81h.08l.17.81.08.81.08.81.08.81h.08l.08.81.17.81.08.81.08.81h.08l.08.81.17.81.08.81.08.81.08.81h.08l.08.81.17.81.08.81.08.81h.08l.08.81.17.81.08.81.08.81.08.81h.08l.08.81.17.8.08.81.08.81.08.81.08.81h.17l.08.81.08.81.08.81.08.81.08.81h.17l.08.81.08.81.08.81.08.81.17.81.08.81.08.81h.08l.08.81.08.81.17.81.08.81.08.81.08.81.08.81h.17l.08.81.08.81.08.81.08.81.17.81.08.81.08.81.08.81h.08l.08.81.17.81.08.81.08.81.08.81.08.81.17.81.08.81.08.81h.08l.08.81.08.81.17.81.08.81.08.81.08.81.08.81.17.81.08.81.08.81.08.81h.08l.08.81.17.81.08.81.08.81.08.81.08.81.17.81.08.81.08.81.08.81.08.81.08.81.17.81.08.81h.08l.08.81.08.81.17.81.08.81.08.81.08.81.08.81.08.81.17.81.08.81.08.81.08.81.08.81.17.81.08.81.08.81.08.81.08.81.08.81.17.81.08.81h.08l.08.81.08.81.17.81.08.81.08.81.08.81.08.81.17.81.08.81.08.81.08.81.08.81.08.81.17.81.08.81.08.81.08.81.08.81.17.81.08.81.08.81.08.81.08.81.08.81.17.81.08.81.08.81.08.81.08.81.17.81.08.81.08.81.08.81.08.81.08.81.17.81.08.81.08.81.08.81.08.81.17.81.08.81.08.81.08.81.08.81.08.81.17.81.08.81.08.81.08.81.08.81.17.81.08.81.08.81.08.81.08.81.08.81.17.81.08.81.08.81.08.81.08.81.17.81.08.81.08.81.08.81.08.81.17.81.08.81.08.81.08.81.08.81.08.81.17.81.08.81.08.81.08.81.08.81.17.81.08.81.08.81.08.81.08.81.08.81.17.81.08.81.08.81.08.81.08.81.17.81.08.81.08.81.08.81.08.81.08.81.17.81.08.81.08.81.08.81.08.81.17.81.08.81.08.81.08.81.08.81.08.81.17.81.08.81.08.81.08.81.08.81.17.81.08.81.08.81.08,1.61.08.81.08.81.17.81.08.81.08.81.08.81.08.81.17.81.08.81.08.81.08.81.08.81.08.81.17.81.08.81.08.81.08.81.08.81.17.81.08.81.08.81.08.81.08.81.17.81.08.81.08.81.08.81.08.81.08.81.17.81.08.81.08.81.08.81.08.81.17.81.08.81.08.81.08.81.08.81.08.81.17.81.08.81.08.81.08.81.08.81.17.81.08.81.08.81.08.81.08.81.08.81.17.81.08.81.08.81.08.81.08.81.17.81.08.81.08.81.08.81.08.81.08.81.17.81.08.81.08.81.08.81.08.81.17.81.08.81.08.81.08.81.08.81.08.81.17.81.08.81.08.81.08.81.08.81.17.81.08.81.08.81.08.81.08.81.17.81.08.81.08.81.08.81.08.81.08.81.17.81.08.81.08.81.08.81.08.81.17.81.08.81.08.81.08.81.08.81.08.81.17.81.08.81.08.81.08.81.08.81.17.81.08.81.08.81.08.81.08.81.08.81.17.81.08.81.08.81h.08l.08.81.17.81.08.81.08.81.08.81.08.81.08.81.17.81.08.81.08.81.08.81.08.81.17.81.08.81.08.81.08.81.08.81.08.81.17.81.08.81.08.81h.08l.08.81.17.81.08.81.08.81.08.81.08.81.08.81.17.81.08.81.08.81.08.81.08.81.17.81.08.81h.08l.08.81.08.81.17.81.08.81.08.81.08.81.08.81.08.81.17.81.08.81.08.81h.08l.08.81.17.81.08.81.08.81.08.81.08.81.08.81.17.81.08.81h.08l.08.81.08.81.17.81.08.81.08.81.08.81.08.81.08.81h.17l.08.81.08.81.08.81.08.81.17.81.08.81.08.81h.08l.08.81.08.81.17.81.08.81.08.81.08.81.08.81h.17l.08.81.08.81.08.81.08.81.08.81h.17l.08.81.08.81.08.81.08.81.17.81.08.81h.08l.08.81.08.81.17.81.08.81.08.81h.08l.08.81.08.81.17.81.08.81h.08l.08.81.08.81.17.81.08.81.08.81h.08l.08.81.08.81.17.81.08.81h.08l.08.81.08.81.17.81.08.81h.08l.08.81.08.81.08.81.17.81h.08l.08.81.08.81.08.81h.17l.08.81.08.81.08.81h.08l.08.81.17.81.08.81.08.81h.08l.08.81.17.81.08.81h.08l.08.81.08.81.08.81h.17l.08.81.08.81h.08l.08.81.17.81.08.81h.08l.08.81.08.81.08.81h.17l.08.81.08.81h.08l.08.81.17.81.08.81h.08l.08.81.08.81h.17l.08.81.08.81h.08l.08.81.08.81.17.81h.08l.08.81.08.81h.08l.17.81.08.81h.08l.08.81.08.81h.08l.17.81.08.81h.08l.08.81.08.81h.17l.08.81h.08l.08.81.08.81h.08l.17.81.08.81h.08l.08.81.08.81h.17l.08.81h.08l.08.81.08.81h.08l.17.81.08.81h.08l.08.81h.08l.17.81.08.81h.08l.08.81h.08l.08.81h.17l.08.81.08.81h.08l.08.81h.17l.08.81.08.81h.08l.08.81h.17l.08.81h.08l.08.81h.08l.08.81.17.81h.08l.08.81h.08l.08.81h.17l.08.81h.08l.08.81h.08l.08.81h.17l.08.81h.08l.08.81h.08l.17.81h.08l.08.81h.08l.08.81h.08l.17.81h.08l.08.81h.08l.08.81h.17l.08.81h.08l.08.81h.08l.08.81h.17l.08.81h.08l.08.81h.25l.08.81h.08l.08.81h.08l.08.81h.17l.08.81h.17l.08.81h.17l.08.81h.08l.08.81h.17l.17.81h.08l.08.81h.17l.17.81h.08l.08.81h.17l.17.81h.17l.08.81h.08l.08.81h.25l.08.81h.17l.17.81h.17l.08.81h.17l.17.81h.17l.08.81h.25l.08.81h.17l.08.81h.25l.08.81h.25l.17.81h.17l.08.81h.33l.08.81h.25l.17.81h.25l.08.81h.33l.08.81h.33l.08.81h.41l.08.81h.33l.17.81h.33l.17.81h.33l.08.81h.66l.08.81h.58l.08.81h.75l.17.81h.91l.17.81h2.15l.08-.04h.17l.08.04h2.07l.08-.81h1.08l.17-.81h.66l.08-.81h.66l.17-.81h.5l.08-.81h.5l.08-.81h.41l.08-.81h.33l.17-.81h.25l.08-.81h.41l.08-.81h.33l.08-.81h.33l.08-.81h.25l.08-.81h.25l.08-.81h.33l.08-.81h.17l.08-.81h.25l.08-.81h.25l.17-.81h.17l.08-.81h.17l.17-.81h.17l.08-.81h.25l.08-.81h.08l.08-.81h.25l.08-.81h.17l.08-.81h.25l.08-.81h.08l.08-.81h.25l.08-.81h.08l.08-.81h.17l.17-.81h.08l.08-.81h.17l.17-.81h.08l.08-.81h.08l.08-.81h.08l.17-.81h.17l.08-.81h.08l.17-.81h.08l.08-.81h.08l.08-.81h.25l.08-.81h.08l.08-.81h.08l.17-.81h.08l.08-.81h.08l.08-.81h.08l.17-.81h.08l.08-.81h.08l.08-.81h.17l.08-.81h.08l.08-.81h.08l.17-.81h.08l.08-.81h.08l.08-.81h.08l.17-.81.08-.81h.08l.08-.81h.08l.17-.81h.08l.08-.81h.08l.08-.81h.08l.17-.81.08-.81h.08l.08-.81h.08l.17-.81h.08l.08-.81.08-.81h.08l.08-.81h.17l.08-.81.08-.81h.08l.08-.81h.17l.08-.81.08-.81h.08l.08-.81h.08l.17-.81.08-.81h.08l.08-.81h.08l.17-.81.08-.81h.08l.08-.81.08-.81h.08l.17-.81.08-.81h.08l.08-.81h.08l.17-.81.08-.81h.08l.08-.81.08-.81h.08l.17-.81.08-.81h.08l.08-.81.08-.81h.17l.08-.81.08-.81h.08l.08-.81.17-.81.08-.81h.08l.08-.81.08-.81h.08l.17-.81.08-.81h.08l.08-.81.08-.81h.17l.08-.81.08-.81.08-.81h.08l.08-.81.17-.81h.08l.08-.81.08-.81.08-.81h.17l.08-.81.08-.81.08-.81h.08l.08-.81.17-.81.08-.81h.08l.08-.81.08-.81.17-.81h.08l.08-.81.08-.81.08-.81h.08l.17-.81.08-.81.08-.81h.08l.08-.81.17-.81.08-.81.08-.81h.08l.08-.81.08-.81.17-.81h.08l.08-.81.08-.81.08-.81.17-.81h.08l.08-.81.08-.81.08-.81.17-.81h.08l.08-.81.08-.81.08-.81.08-.81h.17l.08-.81.08-.81.08-.81.08-.81.17-.81h.08l.08-.81.08-.81.08-.81.08-.81.17-.81h.08l.08-.81.08-.81.08-.81.17-.81.08-.81h.08l.08-.81.08-.81.08-.81.17-.81.08-.81h.08l.08-.81.08-.81.17-.81.08-.81.08-.81.08-.81.08-.81h.08l.17-.81.08-.81.08-.81.08-.81.08-.81.17-.81h.08l.08-.81.08-.81.08-.81.08-.81.17-.81.08-.81.08-.81.08-.81h.08l.17-.81.08-.81.08-.81.08-.81.08-.81.08-.81.17-.81.08-.81h.08l.08-.81.08-.81.17-.81.08-.81.08-.81.08-.81.08-.81.17-.81.08-.81.08-.81h.08l.08-.81.08-.81.17-.81.08-.81.08-.81.08-.81.08-.81.17-.81.08-.81.08-.81.08-.81.08-.81.08-.81h.17l.08-.81.08-.81.08-.81.08-.81.17-.81.08-.81.08-.81.08-.81.08-.81.08-.81.17-.81.08-.81.08-.81.08-.81.08-.81.17-.81h.08l.08-.81.08-.81.08-.81.08-.81.17-.81.08-.81.08-.81.08-.81.08-.81.17-.81.08-.81.08-.81.08-.81.08-.81.08-.81.17-.81.08-.81.08-.81.08-.81.08-.81.17-.81.08-.81.08-.81.08-.81.08-.81.17-.81.08-.81.08-.81.08-.81h.08l.08-.81.17-.81.08-.81.08-.81.08-.81.08-.81.17-.81.08-.81.08-.81.08-.81.08-.81.08-.81.17-.81.08-.81.08-.81.08-.81.08-.81.17-.81.08-.81.08-.81.08-.81.08-.81.08-.81.17-.81.08-.81.08-.81.08-.81.08-.81.17-.81.08-.81.08-.81.08-.81.08-.81.08-.81.17-.81.08-.81.08-.81.08-.81.08-.81.17-.81.08-.81.08-.81.08-.81.08-.81.08-.81.17-.81.08-.81.08-.81.08-.81.08-.81.17-.81.08-.81.08-.81.08-.81.08-.81.08-.81.17-.81.08-.81.08-.81.08-.81.08-.81.17-.81.08-.81.08-.81.08-.81.08-.81.17-.81.08-1.61.08-.81.08-.81.08-.81.08-.81.17-.81.08-.81.08-.81.08-.81.08-.81.17-.81.08-.81.08-.81.08-.81.08-.81.08-.81.17-.81.08-.81.08-.81.08-.81.08-.81.17-.81.08-.81.08-.81.08-.81.08-.81.08-.81.17-.81.07-.81"/>
  </g>
  <g id="Text">
    <g>
      <line class="cls-1" x1="295.2" y1="64.8" x2="295.2" y2="69.88"/>
      <line class="cls-5" x1="295.2" y1="80.08" x2="295.2" y2="421.82"/>
      <line class="cls-1" x1="295.2" y1="426.92" x2="295.2" y2="432"/>
    </g>
    <g>
      <line class="cls-2" x1="107.55" y1="64.8" x2="266.85" y2="64.8"/>
      <polygon class="cls-10" points="113.89 74.1 79.2 64.81 113.89 55.5 113.89 74.1"/>
      <polygon class="cls-10" points="260.51 74.1 295.2 64.81 260.51 55.5 260.51 74.1"/>
    </g>
    <g>
      <line class="cls-1" x1="511.2" y1="64.8" x2="511.2" y2="69.88"/>
      <line class="cls-5" x1="511.2" y1="80.08" x2="511.2" y2="421.82"/>
      <line class="cls-1" x1="511.2" y1="426.92" x2="511.2" y2="432"/>
    </g>
    <g>
      <line class="cls-2" x1="323.55" y1="64.8" x2="482.85" y2="64.8"/>
      <polygon class="cls-10" points="329.89 74.1 295.2 64.81 329.89 55.5 329.89 74.1"/>
      <polygon class="cls-10" points="476.51 74.1 511.2 64.81 476.51 55.5 476.51 74.1"/>
    </g>
    <g>
      <line class="cls-1" x1="727.2" y1="64.8" x2="727.2" y2="69.88"/>
      <line class="cls-6" x1="727.2" y1="80.08" x2="727.2" y2="421.82"/>
      <line class="cls-1" x1="727.2" y1="426.92" x2="727.2" y2="432"/>
    </g>
    <g>
      <line class="cls-2" x1="539.55" y1="64.8" x2="698.85" y2="64.8"/>
      <polygon class="cls-10" points="545.89 74.1 511.2 64.81 545.89 55.5 545.89 74.1"/>
      <polygon class="cls-10" points="692.51 74.1 727.2 64.81 692.51 55.5 692.51 74.1"/>
    </g>
    <g>
      <line class="cls-1" x1="943.2" y1="64.8" x2="943.2" y2="69.88"/>
      <line class="cls-6" x1="943.2" y1="80.08" x2="943.2" y2="421.82"/>
      <line class="cls-1" x1="943.2" y1="426.92" x2="943.2" y2="432"/>
    </g>
    <g>
      <line class="cls-2" x1="755.55" y1="64.8" x2="914.85" y2="64.8"/>
      <polygon class="cls-10" points="761.89 74.1 727.2 64.81 761.89 55.5 761.89 74.1"/>
      <polygon class="cls-10" points="908.51 74.1 943.2 64.81 908.51 55.5 908.51 74.1"/>
    </g>
    <g>
      <line class="cls-1" x1="1159.2" y1="64.8" x2="1159.2" y2="69.88"/>
      <line class="cls-5" x1="1159.2" y1="80.08" x2="1159.2" y2="421.82"/>
      <line class="cls-1" x1="1159.2" y1="426.92" x2="1159.2" y2="432"/>
    </g>
    <g>
      <line class="cls-2" x1="971.55" y1="64.8" x2="1130.85" y2="64.8"/>
      <polygon class="cls-10" points="977.89 74.1 943.2 64.81 977.89 55.5 977.89 74.1"/>
      <polygon class="cls-10" points="1124.51 74.1 1159.2 64.81 1124.51 55.5 1124.51 74.1"/>
    </g>
  </g>
  <g id="schrift">
    <text class="cls-9" transform="translate(22.52 158.03)"><tspan x="0" y="0">1</tspan></text>
    <text class="cls-9" transform="translate(22.52 446.03)"><tspan x="0" y="0">0</tspan></text>
    <text class="cls-9" transform="translate(9.28 734.03)"><tspan x="0" y="0">-1</tspan></text>
    <text class="cls-9" transform="translate(1227.71 505.39)"><tspan x="0" y="0">Time</tspan></text>
    <text class="cls-9" transform="translate(261.93 505.39)"><tspan x="0" y="0">0.2</tspan></text>
    <text class="cls-9" transform="translate(477.93 505.39)"><tspan x="0" y="0">0.4</tspan></text>
    <text class="cls-9" transform="translate(693.93 505.39)"><tspan x="0" y="0">0.6</tspan></text>
    <text class="cls-9" transform="translate(909.93 505.39)"><tspan x="0" y="0">0.8</tspan></text>
    <text class="cls-9" transform="translate(1125.93 505.39)"><tspan x="0" y="0">1.0</tspan></text>
    <text class="cls-11" transform="translate(158.62 36)"><tspan class="cls-8" x="0" y="0">1</tspan><tspan class="cls-7" x="26.95" y="0">T</tspan></text>
    <text class="cls-11" transform="translate(374.62 36)"><tspan class="cls-8" x="0" y="0">2</tspan><tspan class="cls-7" x="26.95" y="0">T</tspan></text>
    <text class="cls-11" transform="translate(590.62 36)"><tspan class="cls-8" x="0" y="0">3</tspan><tspan class="cls-7" x="26.95" y="0">T</tspan></text>
    <text class="cls-11" transform="translate(806.62 36)"><tspan class="cls-8" x="0" y="0">4</tspan><tspan class="cls-7" x="26.95" y="0">T</tspan></text>
    <text class="cls-11" transform="translate(1022.62 36)"><tspan class="cls-8" x="0" y="0">5</tspan><tspan class="cls-7" x="26.95" y="0">T</tspan></text>
  </g>
</svg>