<?xml version="1.0" encoding="UTF-8"?>
<svg xmlns="http://www.w3.org/2000/svg" viewBox="0 0 1918.8 1076.4">
  <defs>
    <style>
      .cls-1 {
        stroke-width: 3px;
      }

      .cls-1, .cls-2, .cls-3, .cls-4 {
        fill: none;
        stroke-miterlimit: 10;
      }

      .cls-1, .cls-4 {
        stroke: #c9d1d9;
      }

      .cls-2 {
        stroke: #d85648;
      }

      .cls-2, .cls-3 {
        stroke-width: 5px;
      }

      .cls-3 {
        stroke: #307eef;
      }

      .cls-4 {
        stroke-width: 2px;
      }

      .cls-5 {
        font-size: 24px;
      }

      .cls-5, .cls-6 {
        fill: #c9d1d9;
        font-family: Roboto-Regular, Roboto;
      }

      .cls-6 {
        font-size: 48px;
      }
    </style>
  </defs>
  <g id="Ebene_4" data-name="Ebene 4">
    <path class="cls-2" d="m64.8,878.4c.04-.24.07-.37.07-.37l8.83-48.33,4.72-23.85,3.96-18.17,3.5-14.3,3.2-11.38,2.89-8.76,2.74-6.85,2.59-5.1,2.28-3.36,2.13-2.14,1.98-1.11,1.83-.28,1.83.44,1.83,1.17,1.98,2.07,2.13,3.15,2.28,4.41,2.59,6.26,2.89,8.5,3.04,10.55,3.2,12.68,3.65,16.26,4.11,20.16,5.02,26.59s2.94,16.28,5.73,31.75"/>
    <path class="cls-2" d="m145.8,878.4c.04.24.07.37.07.37l8.83,48.33,4.72,23.85,3.96,18.17,3.5,14.3,3.2,11.38,2.89,8.76,2.74,6.85,2.59,5.1,2.28,3.36,2.13,2.14,1.98,1.11,1.83.28,1.83-.44,1.83-1.17,1.98-2.07,2.13-3.15,2.28-4.41,2.59-6.26,2.89-8.5,3.04-10.55,3.2-12.68,3.65-16.26,4.11-20.16,5.02-26.59s2.94-16.28,5.73-31.75"/>
    <path class="cls-2" d="m226.8,878.4c.04-.24.07-.37.07-.37l8.83-48.33,4.72-23.85,3.96-18.17,3.5-14.3,3.2-11.38,2.89-8.76,2.74-6.85,2.59-5.1,2.28-3.36,2.13-2.14,1.98-1.11,1.83-.28,1.83.44,1.83,1.17,1.98,2.07,2.13,3.15,2.28,4.41,2.59,6.26,2.89,8.5,3.04,10.55,3.2,12.68,3.65,16.26,4.11,20.16,5.02,26.59s2.94,16.28,5.73,31.75"/>
    <path class="cls-2" d="m307.8,878.4c.04.24.07.37.07.37l8.83,48.33,4.72,23.85,3.96,18.17,3.5,14.3,3.2,11.38,2.89,8.76,2.74,6.85,2.59,5.1,2.28,3.36,2.13,2.14,1.98,1.11,1.83.28,1.83-.44,1.83-1.17,1.98-2.07,2.13-3.15,2.28-4.41,2.59-6.26,2.89-8.5,3.04-10.55,3.2-12.68,3.65-16.26,4.11-20.16,5.02-26.59s2.94-16.28,5.73-31.75"/>
    <path class="cls-2" d="m388.8,878.4c.04-.24.07-.37.07-.37l8.83-48.33,4.72-23.85,3.96-18.17,3.5-14.3,3.2-11.38,2.89-8.76,2.74-6.85,2.59-5.1,2.28-3.36,2.13-2.14,1.98-1.11,1.83-.28,1.83.44,1.83,1.17,1.98,2.07,2.13,3.15,2.28,4.41,2.59,6.26,2.89,8.5,3.04,10.55,3.2,12.68,3.65,16.26,4.11,20.16,5.02,26.59s2.94,16.28,5.73,31.75"/>
    <path class="cls-2" d="m469.8,878.4c.04.24.07.37.07.37l8.83,48.33,4.72,23.85,3.96,18.17,3.5,14.3,3.2,11.38,2.89,8.76,2.74,6.85,2.59,5.1,2.28,3.36,2.13,2.14,1.98,1.11,1.83.28,1.83-.44,1.83-1.17,1.98-2.07,2.13-3.15,2.28-4.41,2.59-6.26,2.89-8.5,3.04-10.55,3.2-12.68,3.65-16.26,4.11-20.16,5.02-26.59s2.94-16.28,5.73-31.75"/>
    <path class="cls-2" d="m550.8,878.4c.04-.24.07-.37.07-.37l8.83-48.33,4.72-23.85,3.96-18.17,3.5-14.3,3.2-11.38,2.89-8.76,2.74-6.85,2.59-5.1,2.28-3.36,2.13-2.14,1.98-1.11,1.83-.28,1.83.44,1.83,1.17,1.98,2.07,2.13,3.15,2.28,4.41,2.59,6.26,2.89,8.5,3.04,10.55,3.2,12.68,3.65,16.26,4.11,20.16,5.02,26.59s2.94,16.28,5.73,31.75"/>
    <path class="cls-2" d="m631.8,878.4c.04.24.07.37.07.37l8.83,48.33,4.72,23.85,3.96,18.17,3.5,14.3,3.2,11.38,2.89,8.76,2.74,6.85,2.59,5.1,2.28,3.36,2.13,2.14,1.98,1.11,1.83.28,1.83-.44,1.83-1.17,1.98-2.07,2.13-3.15,2.28-4.41,2.59-6.26,2.89-8.5,3.04-10.55,3.2-12.68,3.65-16.26,4.11-20.16,5.02-26.59s2.94-16.28,5.73-31.75"/>
    <path class="cls-3" d="m64.8,518.4c.04-.12.07-.19.07-.19l8.83-24.17,4.72-11.93,3.96-9.08,3.5-7.15,3.2-5.69,2.89-4.38,2.74-3.42,2.59-2.55,2.28-1.68,2.13-1.07,1.98-.56,1.83-.14,1.83.22,1.83.58,1.98,1.03,2.13,1.58,2.28,2.21,2.59,3.13,2.89,4.25,3.04,5.27,3.2,6.34,3.65,8.13,4.11,10.08,5.02,13.3s2.94,8.14,5.73,15.88"/>
    <path class="cls-3" d="m145.8,518.4c.04.12.07.19.07.19l8.83,24.17,4.72,11.93,3.96,9.08,3.5,7.15,3.2,5.69,2.89,4.38,2.74,3.42,2.59,2.55,2.28,1.68,2.13,1.07,1.98.56,1.83.14,1.83-.22,1.83-.58,1.98-1.03,2.13-1.58,2.28-2.21,2.59-3.13,2.89-4.25,3.04-5.27,3.2-6.34,3.65-8.13,4.11-10.08,5.02-13.3s2.94-8.14,5.73-15.88"/>
    <path class="cls-3" d="m226.8,518.4c.04-.12.07-.19.07-.19l8.83-24.17,4.72-11.93,3.96-9.08,3.5-7.15,3.2-5.69,2.89-4.38,2.74-3.42,2.59-2.55,2.28-1.68,2.13-1.07,1.98-.56,1.83-.14,1.83.22,1.83.58,1.98,1.03,2.13,1.58,2.28,2.21,2.59,3.13,2.89,4.25,3.04,5.27,3.2,6.34,3.65,8.13,4.11,10.08,5.02,13.3s2.94,8.14,5.73,15.88"/>
    <path class="cls-3" d="m307.8,518.4c.04.12.07.19.07.19l8.83,24.17,4.72,11.93,3.96,9.08,3.5,7.15,3.2,5.69,2.89,4.38,2.74,3.42,2.59,2.55,2.28,1.68,2.13,1.07,1.98.56,1.83.14,1.83-.22,1.83-.58,1.98-1.03,2.13-1.58,2.28-2.21,2.59-3.13,2.89-4.25,3.04-5.27,3.2-6.34,3.65-8.13,4.11-10.08,5.02-13.3s2.94-8.14,5.73-15.88"/>
    <path class="cls-3" d="m388.8,518.4c.04-.12.07-.19.07-.19l8.83-24.17,4.72-11.93,3.96-9.08,3.5-7.15,3.2-5.69,2.89-4.38,2.74-3.42,2.59-2.55,2.28-1.68,2.13-1.07,1.98-.56,1.83-.14,1.83.22,1.83.58,1.98,1.03,2.13,1.58,2.28,2.21,2.59,3.13,2.89,4.25,3.04,5.27,3.2,6.34,3.65,8.13,4.11,10.08,5.02,13.3s2.94,8.14,5.73,15.88"/>
    <path class="cls-3" d="m469.8,518.4c.04.12.07.19.07.19l8.83,24.17,4.72,11.93,3.96,9.08,3.5,7.15,3.2,5.69,2.89,4.38,2.74,3.42,2.59,2.55,2.28,1.68,2.13,1.07,1.98.56,1.83.14,1.83-.22,1.83-.58,1.98-1.03,2.13-1.58,2.28-2.21,2.59-3.13,2.89-4.25,3.04-5.27,3.2-6.34,3.65-8.13,4.11-10.08,5.02-13.3s2.94-8.14,5.73-15.88"/>
    <path class="cls-3" d="m550.8,518.4c.04-.12.07-.19.07-.19l8.83-24.17,4.72-11.93,3.96-9.08,3.5-7.15,3.2-5.69,2.89-4.38,2.74-3.42,2.59-2.55,2.28-1.68,2.13-1.07,1.98-.56,1.83-.14,1.83.22,1.83.58,1.98,1.03,2.13,1.58,2.28,2.21,2.59,3.13,2.89,4.25,3.04,5.27,3.2,6.34,3.65,8.13,4.11,10.08,5.02,13.3s2.94,8.14,5.73,15.88"/>
    <path class="cls-3" d="m631.8,518.4c.04.12.07.19.07.19l8.83,24.17,4.72,11.93,3.96,9.08,3.5,7.15,3.2,5.69,2.89,4.38,2.74,3.42,2.59,2.55,2.28,1.68,2.13,1.07,1.98.56,1.83.14,1.83-.22,1.83-.58,1.98-1.03,2.13-1.58,2.28-2.21,2.59-3.13,2.89-4.25,3.04-5.27,3.2-6.34,3.65-8.13,4.11-10.08,5.02-13.3s2.94-8.14,5.73-15.88"/>
    <path class="cls-3" d="m64.8,158.4c.04-.12.07-.19.07-.19l8.83-24.17,4.72-11.93,3.96-9.08,3.5-7.15,3.2-5.69,2.89-4.38,2.74-3.42,2.59-2.55,2.28-1.68,2.13-1.07,1.98-.56,1.83-.14,1.83.22,1.83.58,1.98,1.03,2.13,1.58,2.28,2.21,2.59,3.13,2.89,4.25,3.04,5.27,3.2,6.34,3.65,8.13,4.11,10.08,5.02,13.3s2.94,8.14,5.73,15.88"/>
    <path class="cls-3" d="m145.8,158.4c.04.12.07.19.07.19l8.83,24.17,4.72,11.93,3.96,9.08,3.5,7.15,3.2,5.69,2.89,4.38,2.74,3.42,2.59,2.55,2.28,1.68,2.13,1.07,1.98.56,1.83.14,1.83-.22,1.83-.58,1.98-1.03,2.13-1.58,2.28-2.21,2.59-3.13,2.89-4.25,3.04-5.27,3.2-6.34,3.65-8.13,4.11-10.08,5.02-13.3s2.94-8.14,5.73-15.88"/>
    <path class="cls-3" d="m226.8,158.4c.04-.12.07-.19.07-.19l8.83-24.17,4.72-11.93,3.96-9.08,3.5-7.15,3.2-5.69,2.89-4.38,2.74-3.42,2.59-2.55,2.28-1.68,2.13-1.07,1.98-.56,1.83-.14,1.83.22,1.83.58,1.98,1.03,2.13,1.58,2.28,2.21,2.59,3.13,2.89,4.25,3.04,5.27,3.2,6.34,3.65,8.13,4.11,10.08,5.02,13.3s2.94,8.14,5.73,15.88"/>
    <path class="cls-3" d="m307.8,158.4c.04.12.07.19.07.19l8.83,24.17,4.72,11.93,3.96,9.08,3.5,7.15,3.2,5.69,2.89,4.38,2.74,3.42,2.59,2.55,2.28,1.68,2.13,1.07,1.98.56,1.83.14,1.83-.22,1.83-.58,1.98-1.03,2.13-1.58,2.28-2.21,2.59-3.13,2.89-4.25,3.04-5.27,3.2-6.34,3.65-8.13,4.11-10.08,5.02-13.3s2.94-8.14,5.73-15.88"/>
    <path class="cls-3" d="m388.8,158.4c.04-.12.07-.19.07-.19l8.83-24.17,4.72-11.93,3.96-9.08,3.5-7.15,3.2-5.69,2.89-4.38,2.74-3.42,2.59-2.55,2.28-1.68,2.13-1.07,1.98-.56,1.83-.14,1.83.22,1.83.58,1.98,1.03,2.13,1.58,2.28,2.21,2.59,3.13,2.89,4.25,3.04,5.27,3.2,6.34,3.65,8.13,4.11,10.08,5.02,13.3s2.94,8.14,5.73,15.88"/>
    <path class="cls-3" d="m469.8,158.4c.04.12.07.19.07.19l8.83,24.17,4.72,11.93,3.96,9.08,3.5,7.15,3.2,5.69,2.89,4.38,2.74,3.42,2.59,2.55,2.28,1.68,2.13,1.07,1.98.56,1.83.14,1.83-.22,1.83-.58,1.98-1.03,2.13-1.58,2.28-2.21,2.59-3.13,2.89-4.25,3.04-5.27,3.2-6.34,3.65-8.13,4.11-10.08,5.02-13.3s2.94-8.14,5.73-15.88"/>
    <path class="cls-3" d="m550.8,158.4c.04-.12.07-.19.07-.19l8.83-24.17,4.72-11.93,3.96-9.08,3.5-7.15,3.2-5.69,2.89-4.38,2.74-3.42,2.59-2.55,2.28-1.68,2.13-1.07,1.98-.56,1.83-.14,1.83.22,1.83.58,1.98,1.03,2.13,1.58,2.28,2.21,2.59,3.13,2.89,4.25,3.04,5.27,3.2,6.34,3.65,8.13,4.11,10.08,5.02,13.3s2.94,8.14,5.73,15.88"/>
    <path class="cls-3" d="m631.8,158.4c.04.12.07.19.07.19l8.83,24.17,4.72,11.93,3.96,9.08,3.5,7.15,3.2,5.69,2.89,4.38,2.74,3.42,2.59,2.55,2.28,1.68,2.13,1.07,1.98.56,1.83.14,1.83-.22,1.83-.58,1.98-1.03,2.13-1.58,2.28-2.21,2.59-3.13,2.89-4.25,3.04-5.27,3.2-6.34,3.65-8.13,4.11-10.08,5.02-13.3s2.94-8.14,5.73-15.88"/>
    <path class="cls-3" d="m1072.8,158.4c.04-.12.07-.19.07-.19l8.83-24.17,4.72-11.93,3.96-9.08,3.5-7.15,3.2-5.69,2.89-4.38,2.74-3.42,2.59-2.55,2.28-1.68,2.13-1.07,1.98-.56,1.83-.14,1.83.22,1.83.58,1.98,1.03,2.13,1.58,2.28,2.21,2.59,3.13,2.89,4.25,3.04,5.27,3.2,6.34,3.65,8.13,4.11,10.08,5.02,13.3s2.94,8.14,5.73,15.88"/>
    <path class="cls-3" d="m1153.8,158.4c.04.12.07.19.07.19l8.83,24.17,4.72,11.93,3.96,9.08,3.5,7.15,3.2,5.69,2.89,4.38,2.74,3.42,2.59,2.55,2.28,1.68,2.13,1.07,1.98.56,1.83.14,1.83-.22,1.83-.58,1.98-1.03,2.13-1.58,2.28-2.21,2.59-3.13,2.89-4.25,3.04-5.27,3.2-6.34,3.65-8.13,4.11-10.08,5.02-13.3s2.94-8.14,5.73-15.88"/>
    <path class="cls-3" d="m1234.8,158.4c.04-.12.07-.19.07-.19l8.83-24.17,4.72-11.93,3.96-9.08,3.5-7.15,3.2-5.69,2.89-4.38,2.74-3.42,2.59-2.55,2.28-1.68,2.13-1.07,1.98-.56,1.83-.14,1.83.22,1.83.58,1.98,1.03,2.13,1.58,2.28,2.21,2.59,3.13,2.89,4.25,3.04,5.27,3.2,6.34,3.65,8.13,4.11,10.08,5.02,13.3s2.94,8.14,5.73,15.88"/>
    <path class="cls-3" d="m1315.8,158.4c.04.12.07.19.07.19l8.83,24.17,4.72,11.93,3.96,9.08,3.5,7.15,3.2,5.69,2.89,4.38,2.74,3.42,2.59,2.55,2.28,1.68,2.13,1.07,1.98.56,1.83.14,1.83-.22,1.83-.58,1.98-1.03,2.13-1.58,2.28-2.21,2.59-3.13,2.89-4.25,3.04-5.27,3.2-6.34,3.65-8.13,4.11-10.08,5.02-13.3s2.94-8.14,5.73-15.88"/>
    <path class="cls-3" d="m1396.8,158.4c.04-.12.07-.19.07-.19l8.83-24.17,4.72-11.93,3.96-9.08,3.5-7.15,3.2-5.69,2.89-4.38,2.74-3.42,2.59-2.55,2.28-1.68,2.13-1.07,1.98-.56,1.83-.14,1.83.22,1.83.58,1.98,1.03,2.13,1.58,2.28,2.21,2.59,3.13,2.89,4.25,3.04,5.27,3.2,6.34,3.65,8.13,4.11,10.08,5.02,13.3s2.94,8.14,5.73,15.88"/>
    <path class="cls-3" d="m1477.8,158.4c.04.12.07.19.07.19l8.83,24.17,4.72,11.93,3.96,9.08,3.5,7.15,3.2,5.69,2.89,4.38,2.74,3.42,2.59,2.55,2.28,1.68,2.13,1.07,1.98.56,1.83.14,1.83-.22,1.83-.58,1.98-1.03,2.13-1.58,2.28-2.21,2.59-3.13,2.89-4.25,3.04-5.27,3.2-6.34,3.65-8.13,4.11-10.08,5.02-13.3s2.94-8.14,5.73-15.88"/>
    <path class="cls-3" d="m1558.8,158.4c.04-.12.07-.19.07-.19l8.83-24.17,4.72-11.93,3.96-9.08,3.5-7.15,3.2-5.69,2.89-4.38,2.74-3.42,2.59-2.55,2.28-1.68,2.13-1.07,1.98-.56,1.83-.14,1.83.22,1.83.58,1.98,1.03,2.13,1.58,2.28,2.21,2.59,3.13,2.89,4.25,3.04,5.27,3.2,6.34,3.65,8.13,4.11,10.08,5.02,13.3s2.94,8.14,5.73,15.88"/>
    <path class="cls-3" d="m1639.8,158.4c.04.12.07.19.07.19l8.83,24.17,4.72,11.93,3.96,9.08,3.5,7.15,3.2,5.69,2.89,4.38,2.74,3.42,2.59,2.55,2.28,1.68,2.13,1.07,1.98.56,1.83.14,1.83-.22,1.83-.58,1.98-1.03,2.13-1.58,2.28-2.21,2.59-3.13,2.89-4.25,3.04-5.27,3.2-6.34,3.65-8.13,4.11-10.08,5.02-13.3s2.94-8.14,5.73-15.88"/>
    <path class="cls-3" d="m1072.8,518.4c.04.12.07.19.07.19l8.83,24.17,4.72,11.93,3.96,9.08,3.5,7.15,3.2,5.69,2.89,4.38,2.74,3.42,2.59,2.55,2.28,1.68,2.13,1.07,1.98.56,1.83.14,1.83-.22,1.83-.58,1.98-1.03,2.13-1.58,2.28-2.21,2.59-3.13,2.89-4.25,3.04-5.27,3.2-6.34,3.65-8.13,4.11-10.08,5.02-13.3s2.94-8.14,5.73-15.88"/>
    <path class="cls-3" d="m1153.8,518.4c.04-.12.07-.19.07-.19l8.83-24.17,4.72-11.93,3.96-9.08,3.5-7.15,3.2-5.69,2.89-4.38,2.74-3.42,2.59-2.55,2.28-1.68,2.13-1.07,1.98-.56,1.83-.14,1.83.22,1.83.58,1.98,1.03,2.13,1.58,2.28,2.21,2.59,3.13,2.89,4.25,3.04,5.27,3.2,6.34,3.65,8.13,4.11,10.08,5.02,13.3s2.94,8.14,5.73,15.88"/>
    <path class="cls-3" d="m1234.8,518.4c.04.12.07.19.07.19l8.83,24.17,4.72,11.93,3.96,9.08,3.5,7.15,3.2,5.69,2.89,4.38,2.74,3.42,2.59,2.55,2.28,1.68,2.13,1.07,1.98.56,1.83.14,1.83-.22,1.83-.58,1.98-1.03,2.13-1.58,2.28-2.21,2.59-3.13,2.89-4.25,3.04-5.27,3.2-6.34,3.65-8.13,4.11-10.08,5.02-13.3s2.94-8.14,5.73-15.88"/>
    <path class="cls-3" d="m1315.8,518.4c.04-.12.07-.19.07-.19l8.83-24.17,4.72-11.93,3.96-9.08,3.5-7.15,3.2-5.69,2.89-4.38,2.74-3.42,2.59-2.55,2.28-1.68,2.13-1.07,1.98-.56,1.83-.14,1.83.22,1.83.58,1.98,1.03,2.13,1.58,2.28,2.21,2.59,3.13,2.89,4.25,3.04,5.27,3.2,6.34,3.65,8.13,4.11,10.08,5.02,13.3s2.94,8.14,5.73,15.88"/>
    <path class="cls-3" d="m1396.8,518.4c.04.12.07.19.07.19l8.83,24.17,4.72,11.93,3.96,9.08,3.5,7.15,3.2,5.69,2.89,4.38,2.74,3.42,2.59,2.55,2.28,1.68,2.13,1.07,1.98.56,1.83.14,1.83-.22,1.83-.58,1.98-1.03,2.13-1.58,2.28-2.21,2.59-3.13,2.89-4.25,3.04-5.27,3.2-6.34,3.65-8.13,4.11-10.08,5.02-13.3s2.94-8.14,5.73-15.88"/>
    <path class="cls-3" d="m1477.8,518.4c.04-.12.07-.19.07-.19l8.83-24.17,4.72-11.93,3.96-9.08,3.5-7.15,3.2-5.69,2.89-4.38,2.74-3.42,2.59-2.55,2.28-1.68,2.13-1.07,1.98-.56,1.83-.14,1.83.22,1.83.58,1.98,1.03,2.13,1.58,2.28,2.21,2.59,3.13,2.89,4.25,3.04,5.27,3.2,6.34,3.65,8.13,4.11,10.08,5.02,13.3s2.94,8.14,5.73,15.88"/>
    <path class="cls-3" d="m1558.8,518.4c.04.12.07.19.07.19l8.83,24.17,4.72,11.93,3.96,9.08,3.5,7.15,3.2,5.69,2.89,4.38,2.74,3.42,2.59,2.55,2.28,1.68,2.13,1.07,1.98.56,1.83.14,1.83-.22,1.83-.58,1.98-1.03,2.13-1.58,2.28-2.21,2.59-3.13,2.89-4.25,3.04-5.27,3.2-6.34,3.65-8.13,4.11-10.08,5.02-13.3s2.94-8.14,5.73-15.88"/>
    <path class="cls-3" d="m1639.8,518.4c.04-.12.07-.19.07-.19l8.83-24.17,4.72-11.93,3.96-9.08,3.5-7.15,3.2-5.69,2.89-4.38,2.74-3.42,2.59-2.55,2.28-1.68,2.13-1.07,1.98-.56,1.83-.14,1.83.22,1.83.58,1.98,1.03,2.13,1.58,2.28,2.21,2.59,3.13,2.89,4.25,3.04,5.27,3.2,6.34,3.65,8.13,4.11,10.08,5.02,13.3s2.94,8.14,5.73,15.88"/>
  </g>
  <g id="Frame">
    <line class="cls-1" x1="64.8" y1="309.6" x2="64.8" y2="7.2"/>
    <line class="cls-1" x1="64.8" y1="158.4" x2="784.8" y2="158.4"/>
    <line class="cls-2" x1="1072.8" y1="878.4" x2="1792.8" y2="878.4"/>
    <text class="cls-6" transform="translate(897.23 172.43)"><tspan x="0" y="0">A</tspan></text>
    <text class="cls-6" transform="translate(897.23 172.43)"><tspan x="0" y="0">A</tspan></text>
    <text class="cls-6" transform="translate(897.94 532.43)"><tspan x="0" y="0">B</tspan></text>
    <text class="cls-6" transform="translate(856.8 892.43)"><tspan x="0" y="0">A + B</tspan></text>
    <line class="cls-4" x1="57.6" y1="302.4" x2="72" y2="302.4"/>
    <line class="cls-4" x1="57.6" y1="230.4" x2="72" y2="230.4"/>
    <line class="cls-4" x1="57.6" y1="158.4" x2="72" y2="158.4"/>
    <line class="cls-4" x1="57.6" y1="86.4" x2="72" y2="86.4"/>
    <line class="cls-4" x1="57.6" y1="14.4" x2="72" y2="14.4"/>
    <text class="cls-5" transform="translate(22.18 309.41)"><tspan x="0" y="0">-1</tspan></text>
    <text class="cls-5" transform="translate(2.39 237.41)"><tspan x="0" y="0">-0.5</tspan></text>
    <text class="cls-5" transform="translate(28.8 165.41)"><tspan x="0" y="0">0</tspan></text>
    <text class="cls-5" transform="translate(28.8 21.41)"><tspan x="0" y="0">1</tspan></text>
    <text class="cls-5" transform="translate(9.01 93.41)"><tspan x="0" y="0">0.5</tspan></text>
    <line class="cls-1" x1="64.8" y1="669.6" x2="64.8" y2="367.2"/>
    <line class="cls-1" x1="64.8" y1="518.4" x2="784.8" y2="518.4"/>
    <line class="cls-4" x1="57.6" y1="662.4" x2="72" y2="662.4"/>
    <line class="cls-4" x1="57.6" y1="590.4" x2="72" y2="590.4"/>
    <line class="cls-4" x1="57.6" y1="518.4" x2="72" y2="518.4"/>
    <line class="cls-4" x1="57.6" y1="446.4" x2="72" y2="446.4"/>
    <line class="cls-4" x1="57.6" y1="374.4" x2="72" y2="374.4"/>
    <text class="cls-5" transform="translate(22.18 669.41)"><tspan x="0" y="0">-1</tspan></text>
    <text class="cls-5" transform="translate(2.39 597.41)"><tspan x="0" y="0">-0.5</tspan></text>
    <text class="cls-5" transform="translate(28.8 525.41)"><tspan x="0" y="0">0</tspan></text>
    <text class="cls-5" transform="translate(28.8 381.41)"><tspan x="0" y="0">1</tspan></text>
    <text class="cls-5" transform="translate(9.01 453.41)"><tspan x="0" y="0">0.5</tspan></text>
    <line class="cls-1" x1="64.8" y1="1029.6" x2="64.8" y2="727.2"/>
    <line class="cls-1" x1="64.8" y1="878.4" x2="784.8" y2="878.4"/>
    <line class="cls-4" x1="57.6" y1="1022.4" x2="72" y2="1022.4"/>
    <line class="cls-4" x1="57.6" y1="950.4" x2="72" y2="950.4"/>
    <line class="cls-4" x1="57.6" y1="878.4" x2="72" y2="878.4"/>
    <line class="cls-4" x1="57.6" y1="806.4" x2="72" y2="806.4"/>
    <line class="cls-4" x1="57.6" y1="734.4" x2="72" y2="734.4"/>
    <text class="cls-5" transform="translate(22.18 1029.41)"><tspan x="0" y="0">-1</tspan></text>
    <text class="cls-5" transform="translate(2.39 957.41)"><tspan x="0" y="0">-0.5</tspan></text>
    <text class="cls-5" transform="translate(28.8 885.41)"><tspan x="0" y="0">0</tspan></text>
    <text class="cls-5" transform="translate(28.8 741.41)"><tspan x="0" y="0">1</tspan></text>
    <text class="cls-5" transform="translate(9.01 813.41)"><tspan x="0" y="0">0.5</tspan></text>
    <line class="cls-1" x1="1072.8" y1="1029.6" x2="1072.8" y2="727.2"/>
    <line class="cls-1" x1="1072.8" y1="878.4" x2="1792.8" y2="878.4"/>
    <line class="cls-4" x1="1065.6" y1="1022.4" x2="1080" y2="1022.4"/>
    <line class="cls-4" x1="1065.6" y1="950.4" x2="1080" y2="950.4"/>
    <line class="cls-4" x1="1065.6" y1="878.4" x2="1080" y2="878.4"/>
    <line class="cls-4" x1="1065.6" y1="806.4" x2="1080" y2="806.4"/>
    <line class="cls-4" x1="1065.6" y1="734.4" x2="1080" y2="734.4"/>
    <text class="cls-5" transform="translate(1030.18 1029.41)"><tspan x="0" y="0">-1</tspan></text>
    <text class="cls-5" transform="translate(1010.39 957.41)"><tspan x="0" y="0">-0.5</tspan></text>
    <text class="cls-5" transform="translate(1036.8 885.41)"><tspan x="0" y="0">0</tspan></text>
    <text class="cls-5" transform="translate(1036.8 741.41)"><tspan x="0" y="0">1</tspan></text>
    <text class="cls-5" transform="translate(1017.01 813.41)"><tspan x="0" y="0">0.5</tspan></text>
    <line class="cls-1" x1="1072.8" y1="669.6" x2="1072.8" y2="367.2"/>
    <line class="cls-1" x1="1072.8" y1="518.4" x2="1792.8" y2="518.4"/>
    <line class="cls-4" x1="1065.6" y1="662.4" x2="1080" y2="662.4"/>
    <line class="cls-4" x1="1065.6" y1="590.4" x2="1080" y2="590.4"/>
    <line class="cls-4" x1="1065.6" y1="518.4" x2="1080" y2="518.4"/>
    <line class="cls-4" x1="1065.6" y1="446.4" x2="1080" y2="446.4"/>
    <line class="cls-4" x1="1065.6" y1="374.4" x2="1080" y2="374.4"/>
    <text class="cls-5" transform="translate(1030.18 669.41)"><tspan x="0" y="0">-1</tspan></text>
    <text class="cls-5" transform="translate(1010.39 597.41)"><tspan x="0" y="0">-0.5</tspan></text>
    <text class="cls-5" transform="translate(1036.8 525.41)"><tspan x="0" y="0">0</tspan></text>
    <text class="cls-5" transform="translate(1036.8 381.41)"><tspan x="0" y="0">1</tspan></text>
    <text class="cls-5" transform="translate(1017.01 453.41)"><tspan x="0" y="0">0.5</tspan></text>
    <line class="cls-1" x1="1072.8" y1="309.6" x2="1072.8" y2="7.2"/>
    <line class="cls-1" x1="1072.8" y1="158.4" x2="1792.8" y2="158.4"/>
    <line class="cls-4" x1="1065.6" y1="302.4" x2="1080" y2="302.4"/>
    <line class="cls-4" x1="1065.6" y1="230.4" x2="1080" y2="230.4"/>
    <line class="cls-4" x1="1065.6" y1="158.4" x2="1080" y2="158.4"/>
    <line class="cls-4" x1="1065.6" y1="86.4" x2="1080" y2="86.4"/>
    <line class="cls-4" x1="1065.6" y1="14.4" x2="1080" y2="14.4"/>
    <text class="cls-5" transform="translate(1030.18 309.41)"><tspan x="0" y="0">-1</tspan></text>
    <text class="cls-5" transform="translate(1010.39 237.41)"><tspan x="0" y="0">-0.5</tspan></text>
    <text class="cls-5" transform="translate(1036.8 165.41)"><tspan x="0" y="0">0</tspan></text>
    <text class="cls-5" transform="translate(1036.8 21.41)"><tspan x="0" y="0">1</tspan></text>
    <text class="cls-5" transform="translate(1017.01 93.41)"><tspan x="0" y="0">0.5</tspan></text>
    <line class="cls-4" x1="208.8" y1="165.6" x2="208.8" y2="151.2"/>
    <line class="cls-4" x1="352.8" y1="165.6" x2="352.8" y2="151.2"/>
    <line class="cls-4" x1="496.8" y1="165.6" x2="496.8" y2="151.2"/>
    <line class="cls-4" x1="640.8" y1="165.6" x2="640.8" y2="151.2"/>
    <line class="cls-4" x1="208.8" y1="525.6" x2="208.8" y2="511.2"/>
    <line class="cls-4" x1="352.8" y1="525.6" x2="352.8" y2="511.2"/>
    <line class="cls-4" x1="496.8" y1="525.6" x2="496.8" y2="511.2"/>
    <line class="cls-4" x1="640.8" y1="525.6" x2="640.8" y2="511.2"/>
    <line class="cls-4" x1="208.8" y1="885.6" x2="208.8" y2="871.2"/>
    <line class="cls-4" x1="352.8" y1="885.6" x2="352.8" y2="871.2"/>
    <line class="cls-4" x1="496.8" y1="885.6" x2="496.8" y2="871.2"/>
    <line class="cls-4" x1="640.8" y1="885.6" x2="640.8" y2="871.2"/>
    <line class="cls-4" x1="1216.8" y1="885.6" x2="1216.8" y2="871.2"/>
    <line class="cls-4" x1="1360.8" y1="885.6" x2="1360.8" y2="871.2"/>
    <line class="cls-4" x1="1504.8" y1="885.6" x2="1504.8" y2="871.2"/>
    <line class="cls-4" x1="1648.8" y1="885.6" x2="1648.8" y2="871.2"/>
    <line class="cls-4" x1="1216.8" y1="525.6" x2="1216.8" y2="511.2"/>
    <line class="cls-4" x1="1360.8" y1="525.6" x2="1360.8" y2="511.2"/>
    <line class="cls-4" x1="1504.8" y1="525.6" x2="1504.8" y2="511.2"/>
    <line class="cls-4" x1="1648.8" y1="525.6" x2="1648.8" y2="511.2"/>
    <line class="cls-4" x1="1216.8" y1="165.6" x2="1216.8" y2="151.2"/>
    <line class="cls-4" x1="1360.8" y1="165.6" x2="1360.8" y2="151.2"/>
    <line class="cls-4" x1="1504.8" y1="165.6" x2="1504.8" y2="151.2"/>
    <line class="cls-4" x1="1648.8" y1="165.6" x2="1648.8" y2="151.2"/>
  </g>
</svg>