<?xml version="1.0" encoding="utf-8"?>
<!-- Generator: Adobe Illustrator 27.4.1, SVG Export Plug-In . SVG Version: 6.00 Build 0)  -->
<svg version="1.1" id="Ebene_1" xmlns="http://www.w3.org/2000/svg" xmlns:xlink="http://www.w3.org/1999/xlink" x="0px" y="0px"
	 viewBox="0 0 1918.8 1076.4" style="enable-background:new 0 0 1918.8 1076.4;" xml:space="preserve">
<style type="text/css">
	.st0{fill:none;stroke:#D85648;stroke-width:5;stroke-miterlimit:10;}
	.st1{fill:none;stroke:#307EEF;stroke-width:5;stroke-miterlimit:10;}
	.st2{fill:none;stroke:#C9D1D9;stroke-width:3;stroke-miterlimit:10;}
	.st3{enable-background:new    ;}
	.st4{fill:#C9D1D9;}
	.st5{fill:none;stroke:#C9D1D9;stroke-width:2;stroke-miterlimit:10;}
</style>
<g id="Ebene_4">
	<path class="st0" d="M64.8,878.4c0-0.2,0.1-0.4,0.1-0.4l8.8-48.3l4.7-23.8l4-18.2l3.5-14.3l3.2-11.4l2.9-8.8l2.7-6.8l2.6-5.1
		l2.3-3.4l2.1-2.1l2-1.1l1.8-0.3l1.8,0.4l1.8,1.2l2,2.1l2.1,3.2l2.3,4.4l2.6,6.3l2.9,8.5l3,10.5l3.2,12.7l3.6,16.3l4.1,20.2l5,26.6
		c0,0,2.9,16.3,5.7,31.8"/>
	<path class="st0" d="M145.8,878.4c0,0.2,0.1,0.4,0.1,0.4l8.8,48.3l4.7,23.8l4,18.2l3.5,14.3l3.2,11.4l2.9,8.8l2.7,6.8l2.6,5.1
		l2.3,3.4l2.1,2.1l2,1.1l1.8,0.3l1.8-0.4l1.8-1.2l2-2.1l2.1-3.2l2.3-4.4l2.6-6.3l2.9-8.5l3-10.5l3.2-12.7l3.6-16.3l4.1-20.2l5-26.6
		c0,0,2.9-16.3,5.7-31.8"/>
	<path class="st0" d="M226.8,878.4c0-0.2,0.1-0.4,0.1-0.4l8.8-48.3l4.7-23.8l4-18.2l3.5-14.3l3.2-11.4l2.9-8.8l2.7-6.8l2.6-5.1
		l2.3-3.4l2.1-2.1l2-1.1l1.8-0.3l1.8,0.4l1.8,1.2l2,2.1l2.1,3.2l2.3,4.4l2.6,6.3l2.9,8.5l3,10.5l3.2,12.7l3.6,16.3l4.1,20.2l5,26.6
		c0,0,2.9,16.3,5.7,31.8"/>
	<path class="st0" d="M307.8,878.4c0,0.2,0.1,0.4,0.1,0.4l8.8,48.3l4.7,23.8l4,18.2l3.5,14.3l3.2,11.4l2.9,8.8l2.7,6.8l2.6,5.1
		l2.3,3.4l2.1,2.1l2,1.1l1.8,0.3l1.8-0.4l1.8-1.2l2-2.1l2.1-3.2l2.3-4.4l2.6-6.3l2.9-8.5l3-10.5l3.2-12.7l3.6-16.3l4.1-20.2l5-26.6
		c0,0,2.9-16.3,5.7-31.8"/>
	<path class="st0" d="M388.8,878.4c0-0.2,0.1-0.4,0.1-0.4l8.8-48.3l4.7-23.8l4-18.2l3.5-14.3l3.2-11.4l2.9-8.8l2.7-6.8l2.6-5.1
		l2.3-3.4l2.1-2.1l2-1.1l1.8-0.3l1.8,0.4l1.8,1.2l2,2.1l2.1,3.2l2.3,4.4l2.6,6.3l2.9,8.5l3,10.5l3.2,12.7l3.6,16.3l4.1,20.2l5,26.6
		c0,0,2.9,16.3,5.7,31.8"/>
	<path class="st0" d="M469.8,878.4c0,0.2,0.1,0.4,0.1,0.4l8.8,48.3l4.7,23.8l4,18.2l3.5,14.3l3.2,11.4l2.9,8.8l2.7,6.8l2.6,5.1
		l2.3,3.4l2.1,2.1l2,1.1l1.8,0.3l1.8-0.4l1.8-1.2l2-2.1l2.1-3.2l2.3-4.4l2.6-6.3l2.9-8.5l3-10.5l3.2-12.7l3.7-16.3l4.1-20.2l5-26.6
		c0,0,2.9-16.3,5.7-31.8"/>
	<path class="st0" d="M550.8,878.4c0-0.2,0.1-0.4,0.1-0.4l8.8-48.3l4.7-23.8l4-18.2l3.5-14.3l3.2-11.4l2.9-8.8l2.7-6.8l2.6-5.1
		l2.3-3.4l2.1-2.1l2-1.1l1.8-0.3l1.8,0.4l1.8,1.2l2,2.1l2.1,3.2l2.3,4.4l2.6,6.3l2.9,8.5l3,10.5l3.2,12.7l3.7,16.3l4.1,20.2l5,26.6
		c0,0,2.9,16.3,5.7,31.8"/>
	<path class="st0" d="M631.8,878.4c0,0.2,0.1,0.4,0.1,0.4l8.8,48.3l4.7,23.8l4,18.2l3.5,14.3l3.2,11.4l2.9,8.8l2.7,6.8l2.6,5.1
		l2.3,3.4l2.1,2.1l2,1.1l1.8,0.3l1.8-0.4l1.8-1.2l2-2.1l2.1-3.2l2.3-4.4l2.6-6.3l2.9-8.5l3-10.5l3.2-12.7l3.7-16.3l4.1-20.2l5-26.6
		c0,0,2.9-16.3,5.7-31.8"/>
	<path class="st1" d="M64.8,518.4c0-0.1,0.1-0.2,0.1-0.2l8.8-24.2l4.7-11.9l4-9.1l3.5-7.1l3.2-5.7l2.9-4.4l2.7-3.4l2.6-2.5l2.3-1.7
		l2.1-1.1l2-0.6l1.8-0.1l1.8,0.2l1.8,0.6l2,1l2.1,1.6l2.3,2.2l2.6,3.1l2.9,4.2l3,5.3l3.2,6.3l3.6,8.1l4.1,10.1l5,13.3
		c0,0,2.9,8.1,5.7,15.9"/>
	<path class="st1" d="M145.8,518.4c0,0.1,0.1,0.2,0.1,0.2l8.8,24.2l4.7,11.9l4,9.1l3.5,7.2l3.2,5.7l2.9,4.4l2.7,3.4l2.6,2.5l2.3,1.7
		l2.1,1.1l2,0.6l1.8,0.1l1.8-0.2l1.8-0.6l2-1l2.1-1.6l2.3-2.2l2.6-3.1l2.9-4.2l3-5.3l3.2-6.3l3.6-8.1l4.1-10.1l5-13.3
		c0,0,2.9-8.1,5.7-15.9"/>
	<path class="st1" d="M226.8,518.4c0-0.1,0.1-0.2,0.1-0.2l8.8-24.2l4.7-11.9l4-9.1l3.5-7.1l3.2-5.7l2.9-4.4l2.7-3.4l2.6-2.5l2.3-1.7
		l2.1-1.1l2-0.6l1.8-0.1l1.8,0.2l1.8,0.6l2,1l2.1,1.6l2.3,2.2l2.6,3.1l2.9,4.2l3,5.3l3.2,6.3l3.6,8.1l4.1,10.1l5,13.3
		c0,0,2.9,8.1,5.7,15.9"/>
	<path class="st1" d="M307.8,518.4c0,0.1,0.1,0.2,0.1,0.2l8.8,24.2l4.7,11.9l4,9.1l3.5,7.2l3.2,5.7l2.9,4.4l2.7,3.4l2.6,2.5l2.3,1.7
		l2.1,1.1l2,0.6l1.8,0.1l1.8-0.2l1.8-0.6l2-1l2.1-1.6l2.3-2.2l2.6-3.1l2.9-4.2l3-5.3l3.2-6.3l3.6-8.1l4.1-10.1l5-13.3
		c0,0,2.9-8.1,5.7-15.9"/>
	<path class="st1" d="M388.8,518.4c0-0.1,0.1-0.2,0.1-0.2l8.8-24.2l4.7-11.9l4-9.1l3.5-7.1l3.2-5.7l2.9-4.4l2.7-3.4l2.6-2.5l2.3-1.7
		l2.1-1.1l2-0.6l1.8-0.1l1.8,0.2l1.8,0.6l2,1l2.1,1.6l2.3,2.2l2.6,3.1l2.9,4.2l3,5.3l3.2,6.3l3.6,8.1l4.1,10.1l5,13.3
		c0,0,2.9,8.1,5.7,15.9"/>
	<path class="st1" d="M469.8,518.4c0,0.1,0.1,0.2,0.1,0.2l8.8,24.2l4.7,11.9l4,9.1l3.5,7.2l3.2,5.7l2.9,4.4l2.7,3.4l2.6,2.5l2.3,1.7
		l2.1,1.1l2,0.6l1.8,0.1l1.8-0.2l1.8-0.6l2-1l2.1-1.6l2.3-2.2l2.6-3.1l2.9-4.2l3-5.3l3.2-6.3l3.7-8.1l4.1-10.1l5-13.3
		c0,0,2.9-8.1,5.7-15.9"/>
	<path class="st1" d="M550.8,518.4c0-0.1,0.1-0.2,0.1-0.2l8.8-24.2l4.7-11.9l4-9.1l3.5-7.1l3.2-5.7l2.9-4.4l2.7-3.4l2.6-2.5l2.3-1.7
		l2.1-1.1l2-0.6l1.8-0.1l1.8,0.2l1.8,0.6l2,1l2.1,1.6l2.3,2.2l2.6,3.1l2.9,4.2l3,5.3l3.2,6.3l3.7,8.1l4.1,10.1l5,13.3
		c0,0,2.9,8.1,5.7,15.9"/>
	<path class="st1" d="M631.8,518.4c0,0.1,0.1,0.2,0.1,0.2l8.8,24.2l4.7,11.9l4,9.1l3.5,7.2l3.2,5.7l2.9,4.4l2.7,3.4l2.6,2.5l2.3,1.7
		l2.1,1.1l2,0.6l1.8,0.1l1.8-0.2l1.8-0.6l2-1l2.1-1.6l2.3-2.2l2.6-3.1l2.9-4.2l3-5.3l3.2-6.3l3.7-8.1l4.1-10.1l5-13.3
		c0,0,2.9-8.1,5.7-15.9"/>
	<path class="st1" d="M64.8,158.4c0-0.1,0.1-0.2,0.1-0.2l8.8-24.2l4.7-11.9l4-9.1l3.5-7.2l3.2-5.7l2.9-4.4l2.7-3.4l2.6-2.6l2.3-1.7
		l2.1-1.1l2-0.6l1.8-0.1l1.8,0.2l1.8,0.6l2,1l2.1,1.6l2.3,2.2l2.6,3.1l2.9,4.2l3,5.3l3.2,6.3l3.6,8.1l4.1,10.1l5,13.3
		c0,0,2.9,8.1,5.7,15.9"/>
	<path class="st1" d="M145.8,158.4c0,0.1,0.1,0.2,0.1,0.2l8.8,24.2l4.7,11.9l4,9.1l3.5,7.1l3.2,5.7l2.9,4.4l2.7,3.4l2.6,2.6l2.3,1.7
		l2.1,1.1l2,0.6l1.8,0.1l1.8-0.2l1.8-0.6l2-1l2.1-1.6l2.3-2.2l2.6-3.1l2.9-4.2l3-5.3l3.2-6.3l3.6-8.1l4.1-10.1l5-13.3
		c0,0,2.9-8.1,5.7-15.9"/>
	<path class="st1" d="M226.8,158.4c0-0.1,0.1-0.2,0.1-0.2l8.8-24.2l4.7-11.9l4-9.1l3.5-7.2l3.2-5.7l2.9-4.4l2.7-3.4l2.6-2.6l2.3-1.7
		l2.1-1.1l2-0.6l1.8-0.1l1.8,0.2l1.8,0.6l2,1l2.1,1.6l2.3,2.2l2.6,3.1l2.9,4.2l3,5.3l3.2,6.3l3.6,8.1l4.1,10.1l5,13.3
		c0,0,2.9,8.1,5.7,15.9"/>
	<path class="st1" d="M307.8,158.4c0,0.1,0.1,0.2,0.1,0.2l8.8,24.2l4.7,11.9l4,9.1l3.5,7.1l3.2,5.7l2.9,4.4l2.7,3.4l2.6,2.6l2.3,1.7
		l2.1,1.1l2,0.6l1.8,0.1l1.8-0.2l1.8-0.6l2-1l2.1-1.6l2.3-2.2l2.6-3.1l2.9-4.2l3-5.3l3.2-6.3l3.6-8.1l4.1-10.1l5-13.3
		c0,0,2.9-8.1,5.7-15.9"/>
	<path class="st1" d="M388.8,158.4c0-0.1,0.1-0.2,0.1-0.2l8.8-24.2l4.7-11.9l4-9.1l3.5-7.2l3.2-5.7l2.9-4.4l2.7-3.4l2.6-2.6l2.3-1.7
		l2.1-1.1l2-0.6l1.8-0.1l1.8,0.2l1.8,0.6l2,1l2.1,1.6l2.3,2.2l2.6,3.1l2.9,4.2l3,5.3l3.2,6.3l3.6,8.1l4.1,10.1l5,13.3
		c0,0,2.9,8.1,5.7,15.9"/>
	<path class="st1" d="M469.8,158.4c0,0.1,0.1,0.2,0.1,0.2l8.8,24.2l4.7,11.9l4,9.1l3.5,7.1l3.2,5.7l2.9,4.4l2.7,3.4l2.6,2.6l2.3,1.7
		l2.1,1.1l2,0.6l1.8,0.1l1.8-0.2l1.8-0.6l2-1l2.1-1.6l2.3-2.2l2.6-3.1l2.9-4.2l3-5.3l3.2-6.3l3.7-8.1l4.1-10.1l5-13.3
		c0,0,2.9-8.1,5.7-15.9"/>
	<path class="st1" d="M550.8,158.4c0-0.1,0.1-0.2,0.1-0.2l8.8-24.2l4.7-11.9l4-9.1l3.5-7.2l3.2-5.7l2.9-4.4l2.7-3.4l2.6-2.6l2.3-1.7
		l2.1-1.1l2-0.6l1.8-0.1l1.8,0.2l1.8,0.6l2,1l2.1,1.6l2.3,2.2l2.6,3.1l2.9,4.2l3,5.3l3.2,6.3l3.7,8.1l4.1,10.1l5,13.3
		c0,0,2.9,8.1,5.7,15.9"/>
	<path class="st1" d="M631.8,158.4c0,0.1,0.1,0.2,0.1,0.2l8.8,24.2l4.7,11.9l4,9.1l3.5,7.1l3.2,5.7l2.9,4.4l2.7,3.4l2.6,2.6l2.3,1.7
		l2.1,1.1l2,0.6l1.8,0.1l1.8-0.2l1.8-0.6l2-1l2.1-1.6l2.3-2.2l2.6-3.1l2.9-4.2l3-5.3l3.2-6.3l3.7-8.1l4.1-10.1l5-13.3
		c0,0,2.9-8.1,5.7-15.9"/>
	<path class="st1" d="M1072.8,158.4c0-0.1,0.1-0.2,0.1-0.2l8.8-24.2l4.7-11.9l4-9.1l3.5-7.2l3.2-5.7l2.9-4.4l2.7-3.4l2.6-2.6
		l2.3-1.7l2.1-1.1l2-0.6l1.8-0.1l1.8,0.2l1.8,0.6l2,1l2.1,1.6l2.3,2.2l2.6,3.1l2.9,4.2l3,5.3l3.2,6.3l3.7,8.1l4.1,10.1l5,13.3
		c0,0,2.9,8.1,5.7,15.9"/>
	<path class="st1" d="M1153.8,158.4c0,0.1,0.1,0.2,0.1,0.2l8.8,24.2l4.7,11.9l4,9.1l3.5,7.1l3.2,5.7l2.9,4.4l2.7,3.4l2.6,2.6
		l2.3,1.7l2.1,1.1l2,0.6l1.8,0.1l1.8-0.2l1.8-0.6l2-1l2.1-1.6l2.3-2.2l2.6-3.1l2.9-4.2l3-5.3l3.2-6.3l3.7-8.1l4.1-10.1l5-13.3
		c0,0,2.9-8.1,5.7-15.9"/>
	<path class="st1" d="M1234.8,158.4c0-0.1,0.1-0.2,0.1-0.2l8.8-24.2l4.7-11.9l4-9.1l3.5-7.2l3.2-5.7l2.9-4.4l2.7-3.4l2.6-2.6
		l2.3-1.7l2.1-1.1l2-0.6l1.8-0.1l1.8,0.2l1.8,0.6l2,1l2.1,1.6l2.3,2.2l2.6,3.1l2.9,4.2l3,5.3l3.2,6.3l3.7,8.1l4.1,10.1l5,13.3
		c0,0,2.9,8.1,5.7,15.9"/>
	<path class="st1" d="M1315.8,158.4c0,0.1,0.1,0.2,0.1,0.2l8.8,24.2l4.7,11.9l4,9.1l3.5,7.1l3.2,5.7l2.9,4.4l2.7,3.4l2.6,2.6
		l2.3,1.7l2.1,1.1l2,0.6l1.8,0.1l1.8-0.2l1.8-0.6l2-1l2.1-1.6l2.3-2.2l2.6-3.1l2.9-4.2l3-5.3l3.2-6.3l3.7-8.1l4.1-10.1l5-13.3
		c0,0,2.9-8.1,5.7-15.9"/>
	<path class="st1" d="M1396.8,158.4c0-0.1,0.1-0.2,0.1-0.2l8.8-24.2l4.7-11.9l4-9.1l3.5-7.2l3.2-5.7l2.9-4.4l2.7-3.4l2.6-2.6
		l2.3-1.7l2.1-1.1l2-0.6l1.8-0.1l1.8,0.2l1.8,0.6l2,1l2.1,1.6l2.3,2.2l2.6,3.1l2.9,4.2l3,5.3l3.2,6.3l3.7,8.1l4.1,10.1l5,13.3
		c0,0,2.9,8.1,5.7,15.9"/>
	<path class="st1" d="M1477.8,158.4c0,0.1,0.1,0.2,0.1,0.2l8.8,24.2l4.7,11.9l4,9.1l3.5,7.1l3.2,5.7l2.9,4.4l2.7,3.4l2.6,2.6
		l2.3,1.7l2.1,1.1l2,0.6l1.8,0.1l1.8-0.2l1.8-0.6l2-1l2.1-1.6l2.3-2.2l2.6-3.1l2.9-4.2l3-5.3l3.2-6.3l3.7-8.1l4.1-10.1l5-13.3
		c0,0,2.9-8.1,5.7-15.9"/>
	<path class="st1" d="M1558.8,158.4c0-0.1,0.1-0.2,0.1-0.2l8.8-24.2l4.7-11.9l4-9.1l3.5-7.2l3.2-5.7l2.9-4.4l2.7-3.4l2.6-2.6
		l2.3-1.7l2.1-1.1l2-0.6l1.8-0.1l1.8,0.2l1.8,0.6l2,1l2.1,1.6l2.3,2.2l2.6,3.1l2.9,4.2l3,5.3l3.2,6.3l3.7,8.1l4.1,10.1l5,13.3
		c0,0,2.9,8.1,5.7,15.9"/>
	<path class="st1" d="M1639.8,158.4c0,0.1,0.1,0.2,0.1,0.2l8.8,24.2l4.7,11.9l4,9.1l3.5,7.1l3.2,5.7l2.9,4.4l2.7,3.4l2.6,2.6
		l2.3,1.7l2.1,1.1l2,0.6l1.8,0.1l1.8-0.2l1.8-0.6l2-1l2.1-1.6l2.3-2.2l2.6-3.1l2.9-4.2l3-5.3l3.2-6.3l3.7-8.1l4.1-10.1l5-13.3
		c0,0,2.9-8.1,5.7-15.9"/>
	<path class="st1" d="M1072.8,518.4c0,0.1,0.1,0.2,0.1,0.2l8.8,24.2l4.7,11.9l4,9.1l3.5,7.2l3.2,5.7l2.9,4.4l2.7,3.4l2.6,2.5
		l2.3,1.7l2.1,1.1l2,0.6l1.8,0.1l1.8-0.2l1.8-0.6l2-1l2.1-1.6l2.3-2.2l2.6-3.1l2.9-4.2l3-5.3l3.2-6.3l3.7-8.1l4.1-10.1l5-13.3
		c0,0,2.9-8.1,5.7-15.9"/>
	<path class="st1" d="M1153.8,518.4c0-0.1,0.1-0.2,0.1-0.2l8.8-24.2l4.7-11.9l4-9.1l3.5-7.1l3.2-5.7l2.9-4.4l2.7-3.4l2.6-2.5
		l2.3-1.7l2.1-1.1l2-0.6l1.8-0.1l1.8,0.2l1.8,0.6l2,1l2.1,1.6l2.3,2.2l2.6,3.1l2.9,4.2l3,5.3l3.2,6.3l3.7,8.1l4.1,10.1l5,13.3
		c0,0,2.9,8.1,5.7,15.9"/>
	<path class="st1" d="M1234.8,518.4c0,0.1,0.1,0.2,0.1,0.2l8.8,24.2l4.7,11.9l4,9.1l3.5,7.2l3.2,5.7l2.9,4.4l2.7,3.4l2.6,2.5
		l2.3,1.7l2.1,1.1l2,0.6l1.8,0.1l1.8-0.2l1.8-0.6l2-1l2.1-1.6l2.3-2.2l2.6-3.1l2.9-4.2l3-5.3l3.2-6.3l3.7-8.1l4.1-10.1l5-13.3
		c0,0,2.9-8.1,5.7-15.9"/>
	<path class="st1" d="M1315.8,518.4c0-0.1,0.1-0.2,0.1-0.2l8.8-24.2l4.7-11.9l4-9.1l3.5-7.1l3.2-5.7l2.9-4.4l2.7-3.4l2.6-2.5
		l2.3-1.7l2.1-1.1l2-0.6l1.8-0.1l1.8,0.2l1.8,0.6l2,1l2.1,1.6l2.3,2.2l2.6,3.1l2.9,4.2l3,5.3l3.2,6.3l3.7,8.1l4.1,10.1l5,13.3
		c0,0,2.9,8.1,5.7,15.9"/>
	<path class="st1" d="M1396.8,518.4c0,0.1,0.1,0.2,0.1,0.2l8.8,24.2l4.7,11.9l4,9.1l3.5,7.2l3.2,5.7l2.9,4.4l2.7,3.4l2.6,2.5
		l2.3,1.7l2.1,1.1l2,0.6l1.8,0.1l1.8-0.2l1.8-0.6l2-1l2.1-1.6l2.3-2.2l2.6-3.1l2.9-4.2l3-5.3l3.2-6.3l3.7-8.1l4.1-10.1l5-13.3
		c0,0,2.9-8.1,5.7-15.9"/>
	<path class="st1" d="M1477.8,518.4c0-0.1,0.1-0.2,0.1-0.2l8.8-24.2l4.7-11.9l4-9.1l3.5-7.1l3.2-5.7l2.9-4.4l2.7-3.4l2.6-2.5
		l2.3-1.7l2.1-1.1l2-0.6l1.8-0.1l1.8,0.2l1.8,0.6l2,1l2.1,1.6l2.3,2.2l2.6,3.1l2.9,4.2l3,5.3l3.2,6.3l3.7,8.1l4.1,10.1l5,13.3
		c0,0,2.9,8.1,5.7,15.9"/>
	<path class="st1" d="M1558.8,518.4c0,0.1,0.1,0.2,0.1,0.2l8.8,24.2l4.7,11.9l4,9.1l3.5,7.2l3.2,5.7l2.9,4.4l2.7,3.4l2.6,2.5
		l2.3,1.7l2.1,1.1l2,0.6l1.8,0.1l1.8-0.2l1.8-0.6l2-1l2.1-1.6l2.3-2.2l2.6-3.1l2.9-4.2l3-5.3l3.2-6.3l3.7-8.1l4.1-10.1l5-13.3
		c0,0,2.9-8.1,5.7-15.9"/>
	<path class="st1" d="M1639.8,518.4c0-0.1,0.1-0.2,0.1-0.2l8.8-24.2l4.7-11.9l4-9.1l3.5-7.1l3.2-5.7l2.9-4.4l2.7-3.4l2.6-2.5
		l2.3-1.7l2.1-1.1l2-0.6l1.8-0.1l1.8,0.2l1.8,0.6l2,1l2.1,1.6l2.3,2.2l2.6,3.1l2.9,4.2l3,5.3l3.2,6.3l3.7,8.1l4.1,10.1l5,13.3
		c0,0,2.9,8.1,5.7,15.9"/>
</g>
<line class="st2" x1="64.8" y1="309.6" x2="64.8" y2="7.2"/>
<line class="st2" x1="64.8" y1="158.4" x2="784.8" y2="158.4"/>
<line class="st0" x1="1072.8" y1="878.4" x2="1792.8" y2="878.4"/>
<g class="st3">
	<path class="st4" d="M897.1,172.4l14.2-33.8h4.2l14.2,33.8h-4.5l-11.8-29.3l-11.9,29.3H897.1z M904.4,161.4v-3.5h18v3.5H904.4z"/>
</g>
<g class="st3">
	<path class="st4" d="M897.1,173.2l14.2-33.8h4.2l14.2,33.8h-4.5l-11.8-29.3l-11.9,29.3H897.1z M904.4,162.1v-3.5h18v3.5H904.4z"/>
</g>
<g class="st3">
	<path class="st4" d="M901.8,533.2v-33.8h12.9c3.3,0,5.9,0.7,7.9,2s3,3.3,3,5.9c0,1.6-0.4,2.9-1.1,4s-1.6,1.9-2.7,2.4
		s-2.3,0.9-3.5,1.1l0.1-0.1c2.5,0.4,4.5,1.4,6.1,2.9s2.4,3.7,2.4,6.4c0,2.2-0.5,4-1.6,5.3s-2.4,2.3-4.1,2.9s-3.6,0.9-5.6,0.9H901.8z
		 M906,513.1h8.4c1.8,0,3.4-0.4,4.7-1.2s2-2.1,2-4c0-1.5-0.5-2.7-1.5-3.6s-2.7-1.4-5-1.4H906V513.1z M906,529.7h9.5
		c1.8,0,3.3-0.3,4.3-0.9s1.8-1.4,2.2-2.4s0.6-2,0.6-3.1c0-1.5-0.4-2.8-1.1-3.8s-1.7-1.7-3-2.2s-2.8-0.7-4.5-0.7h-8V529.7z"/>
</g>
<g class="st3">
	<path class="st4" d="M854.2,893.2l14.2-33.8h4.2l14.2,33.8h-4.5l-11.8-29.3l-11.9,29.3H854.2z M861.5,882.1v-3.5h18v3.5H861.5z"/>
	<path class="st4" d="M912.9,889.2V879h-10.1v-3.7h10.1v-10.1h3.7v10.1h10.1v3.7h-10.1v10.1H912.9z"/>
	<path class="st4" d="M946,893.2v-33.8h12.9c3.3,0,5.9,0.7,7.9,2s3,3.3,3,5.9c0,1.6-0.4,2.9-1.1,4s-1.6,1.9-2.7,2.4
		s-2.3,0.9-3.5,1.1l0.1-0.1c2.5,0.4,4.5,1.4,6.1,2.9s2.4,3.7,2.4,6.4c0,2.2-0.5,4-1.6,5.3s-2.4,2.3-4.1,2.9s-3.6,0.9-5.6,0.9H946z
		 M950.2,873.1h8.4c1.8,0,3.4-0.4,4.7-1.2s2-2.1,2-4c0-1.5-0.5-2.7-1.5-3.6s-2.7-1.4-5-1.4h-8.7V873.1z M950.2,889.7h9.5
		c1.8,0,3.3-0.3,4.3-0.9s1.8-1.4,2.2-2.4s0.6-2,0.6-3.1c0-1.5-0.4-2.8-1.1-3.8s-1.7-1.7-3-2.2s-2.8-0.7-4.5-0.7h-8V889.7z"/>
</g>
<line class="st5" x1="57.6" y1="302.4" x2="72" y2="302.4"/>
<line class="st5" x1="57.6" y1="230.4" x2="72" y2="230.4"/>
<line class="st5" x1="57.6" y1="158.4" x2="72" y2="158.4"/>
<line class="st5" x1="57.6" y1="86.4" x2="72" y2="86.4"/>
<line class="st5" x1="57.6" y1="14.4" x2="72" y2="14.4"/>
<g class="st3">
	<path class="st4" d="M28.3,303h-5.7v-1.8h5.7V303z"/>
	<path class="st4" d="M37.3,309.4h-2.2V295l-4.4,1.6v-2l6.2-2.3h0.3V309.4z"/>
</g>
<g class="st3">
	<path class="st4" d="M8.5,231H2.8v-1.8h5.7V231z"/>
	<path class="st4" d="M21.1,230.1c0,2.5-0.4,4.4-1.3,5.7s-2.2,1.9-4.1,1.9c-1.8,0-3.2-0.6-4-1.8s-1.3-3-1.4-5.4v-2.9
		c0-2.5,0.4-4.4,1.3-5.6s2.2-1.8,4.1-1.8c1.8,0,3.2,0.6,4.1,1.8s1.3,3,1.3,5.4V230.1z M19,227.2c0-1.8-0.3-3.2-0.8-4
		s-1.3-1.3-2.4-1.3c-1.1,0-1.9,0.4-2.4,1.3s-0.8,2.1-0.8,3.9v3.5c0,1.8,0.3,3.2,0.8,4.1s1.3,1.3,2.4,1.3c1.1,0,1.9-0.4,2.4-1.2
		s0.8-2.1,0.8-3.9V227.2z"/>
	<path class="st4" d="M24.2,236.3c0-0.4,0.1-0.7,0.3-0.9s0.6-0.4,1-0.4s0.8,0.1,1,0.4s0.3,0.6,0.3,0.9c0,0.4-0.1,0.7-0.3,0.9
		s-0.6,0.4-1,0.4s-0.8-0.1-1-0.4S24.2,236.6,24.2,236.3z"/>
	<path class="st4" d="M31.2,228.9l0.9-8.5h8.7v2h-6.9l-0.5,4.7c0.8-0.5,1.8-0.7,2.8-0.7c1.6,0,2.8,0.5,3.7,1.5s1.4,2.4,1.4,4.2
		c0,1.8-0.5,3.1-1.4,4.2s-2.3,1.5-4,1.5c-1.5,0-2.7-0.4-3.7-1.3s-1.5-2-1.6-3.5h2.1c0.1,1,0.5,1.7,1,2.2s1.3,0.7,2.2,0.7
		c1,0,1.8-0.3,2.4-1s0.9-1.6,0.9-2.8c0-1.1-0.3-2.1-0.9-2.7s-1.4-1-2.5-1c-0.9,0-1.7,0.2-2.2,0.6l-0.6,0.5L31.2,228.9z"/>
</g>
<g class="st3">
	<path class="st4" d="M40.9,158.1c0,2.5-0.4,4.4-1.3,5.7s-2.2,1.9-4.1,1.9c-1.8,0-3.2-0.6-4-1.8s-1.3-3-1.4-5.4v-2.9
		c0-2.5,0.4-4.4,1.3-5.6s2.2-1.8,4.1-1.8c1.8,0,3.2,0.6,4.1,1.8s1.3,3,1.3,5.4V158.1z M38.7,155.2c0-1.8-0.3-3.2-0.8-4
		s-1.3-1.3-2.4-1.3c-1.1,0-1.9,0.4-2.4,1.3s-0.8,2.1-0.8,3.9v3.5c0,1.8,0.3,3.2,0.8,4.1s1.3,1.3,2.4,1.3c1.1,0,1.9-0.4,2.4-1.2
		s0.8-2.1,0.8-3.9V155.2z"/>
</g>
<g class="st3">
	<path class="st4" d="M37.3,21.4h-2.2V7l-4.4,1.6v-2L37,4.3h0.3V21.4z"/>
</g>
<g class="st3">
	<path class="st4" d="M21.1,86.1c0,2.5-0.4,4.4-1.3,5.7s-2.2,1.9-4.1,1.9c-1.8,0-3.2-0.6-4-1.8s-1.3-3-1.4-5.4v-2.9
		c0-2.5,0.4-4.4,1.3-5.6s2.2-1.8,4.1-1.8c1.8,0,3.2,0.6,4.1,1.8s1.3,3,1.3,5.4V86.1z M19,83.2c0-1.8-0.3-3.2-0.8-4s-1.3-1.3-2.4-1.3
		c-1.1,0-1.9,0.4-2.4,1.3s-0.8,2.1-0.8,3.9v3.5c0,1.8,0.3,3.2,0.8,4.1s1.3,1.3,2.4,1.3c1.1,0,1.9-0.4,2.4-1.2s0.8-2.1,0.8-3.9V83.2z
		"/>
	<path class="st4" d="M24.2,92.3c0-0.4,0.1-0.7,0.3-0.9s0.6-0.4,1-0.4s0.8,0.1,1,0.4s0.3,0.6,0.3,0.9c0,0.4-0.1,0.7-0.3,0.9
		s-0.6,0.4-1,0.4s-0.8-0.1-1-0.4S24.2,92.6,24.2,92.3z"/>
	<path class="st4" d="M31.2,84.9l0.9-8.5h8.7v2h-6.9L33.4,83c0.8-0.5,1.8-0.7,2.8-0.7c1.6,0,2.8,0.5,3.7,1.5s1.4,2.4,1.4,4.2
		c0,1.8-0.5,3.1-1.4,4.2s-2.3,1.5-4,1.5c-1.5,0-2.7-0.4-3.7-1.3s-1.5-2-1.6-3.5h2.1c0.1,1,0.5,1.7,1,2.2s1.3,0.7,2.2,0.7
		c1,0,1.8-0.3,2.4-1s0.9-1.6,0.9-2.8c0-1.1-0.3-2.1-0.9-2.7s-1.4-1-2.5-1c-0.9,0-1.7,0.2-2.2,0.6L33,85.3L31.2,84.9z"/>
</g>
<line class="st2" x1="64.8" y1="669.6" x2="64.8" y2="367.2"/>
<line class="st2" x1="64.8" y1="518.4" x2="784.8" y2="518.4"/>
<line class="st5" x1="57.6" y1="662.4" x2="72" y2="662.4"/>
<line class="st5" x1="57.6" y1="590.4" x2="72" y2="590.4"/>
<line class="st5" x1="57.6" y1="518.4" x2="72" y2="518.4"/>
<line class="st5" x1="57.6" y1="446.4" x2="72" y2="446.4"/>
<line class="st5" x1="57.6" y1="374.4" x2="72" y2="374.4"/>
<g class="st3">
	<path class="st4" d="M28.3,663h-5.7v-1.8h5.7V663z"/>
	<path class="st4" d="M37.3,669.4h-2.2V655l-4.4,1.6v-2l6.2-2.3h0.3V669.4z"/>
</g>
<g class="st3">
	<path class="st4" d="M8.5,591H2.8v-1.8h5.7V591z"/>
	<path class="st4" d="M21.1,590.1c0,2.5-0.4,4.4-1.3,5.7s-2.2,1.9-4.1,1.9c-1.8,0-3.2-0.6-4-1.8s-1.3-3-1.4-5.4v-2.9
		c0-2.5,0.4-4.4,1.3-5.6s2.2-1.8,4.1-1.8c1.8,0,3.2,0.6,4.1,1.8s1.3,3,1.3,5.4V590.1z M19,587.2c0-1.8-0.3-3.2-0.8-4
		s-1.3-1.3-2.4-1.3c-1.1,0-1.9,0.4-2.4,1.3s-0.8,2.1-0.8,3.9v3.5c0,1.8,0.3,3.2,0.8,4.1s1.3,1.3,2.4,1.3c1.1,0,1.9-0.4,2.4-1.2
		s0.8-2.1,0.8-3.9V587.2z"/>
	<path class="st4" d="M24.2,596.3c0-0.4,0.1-0.7,0.3-0.9s0.6-0.4,1-0.4s0.8,0.1,1,0.4s0.3,0.6,0.3,0.9c0,0.4-0.1,0.7-0.3,0.9
		s-0.6,0.4-1,0.4s-0.8-0.1-1-0.4S24.2,596.6,24.2,596.3z"/>
	<path class="st4" d="M31.2,588.9l0.9-8.5h8.7v2h-6.9l-0.5,4.7c0.8-0.5,1.8-0.7,2.8-0.7c1.6,0,2.8,0.5,3.7,1.5s1.4,2.4,1.4,4.2
		c0,1.8-0.5,3.1-1.4,4.2s-2.3,1.5-4,1.5c-1.5,0-2.7-0.4-3.7-1.3s-1.5-2-1.6-3.5h2.1c0.1,1,0.5,1.7,1,2.2s1.3,0.7,2.2,0.7
		c1,0,1.8-0.3,2.4-1s0.9-1.6,0.9-2.8c0-1.1-0.3-2.1-0.9-2.7s-1.4-1-2.5-1c-0.9,0-1.7,0.2-2.2,0.6l-0.6,0.5L31.2,588.9z"/>
</g>
<g class="st3">
	<path class="st4" d="M40.9,518.1c0,2.5-0.4,4.4-1.3,5.7s-2.2,1.9-4.1,1.9c-1.8,0-3.2-0.6-4-1.8s-1.3-3-1.4-5.4v-2.9
		c0-2.5,0.4-4.4,1.3-5.6s2.2-1.8,4.1-1.8c1.8,0,3.2,0.6,4.1,1.8s1.3,3,1.3,5.4V518.1z M38.7,515.2c0-1.8-0.3-3.2-0.8-4
		s-1.3-1.3-2.4-1.3c-1.1,0-1.9,0.4-2.4,1.3s-0.8,2.1-0.8,3.9v3.5c0,1.8,0.3,3.2,0.8,4.1s1.3,1.3,2.4,1.3c1.1,0,1.9-0.4,2.4-1.2
		s0.8-2.1,0.8-3.9V515.2z"/>
</g>
<g class="st3">
	<path class="st4" d="M37.3,381.4h-2.2V367l-4.4,1.6v-2l6.2-2.3h0.3V381.4z"/>
</g>
<g class="st3">
	<path class="st4" d="M21.1,446.1c0,2.5-0.4,4.4-1.3,5.7s-2.2,1.9-4.1,1.9c-1.8,0-3.2-0.6-4-1.8s-1.3-3-1.4-5.4v-2.9
		c0-2.5,0.4-4.4,1.3-5.6s2.2-1.8,4.1-1.8c1.8,0,3.2,0.6,4.1,1.8s1.3,3,1.3,5.4V446.1z M19,443.2c0-1.8-0.3-3.2-0.8-4
		s-1.3-1.3-2.4-1.3c-1.1,0-1.9,0.4-2.4,1.3s-0.8,2.1-0.8,3.9v3.5c0,1.8,0.3,3.2,0.8,4.1s1.3,1.3,2.4,1.3c1.1,0,1.9-0.4,2.4-1.2
		s0.8-2.1,0.8-3.9V443.2z"/>
	<path class="st4" d="M24.2,452.3c0-0.4,0.1-0.7,0.3-0.9s0.6-0.4,1-0.4s0.8,0.1,1,0.4s0.3,0.6,0.3,0.9c0,0.4-0.1,0.7-0.3,0.9
		s-0.6,0.4-1,0.4s-0.8-0.1-1-0.4S24.2,452.6,24.2,452.3z"/>
	<path class="st4" d="M31.2,444.9l0.9-8.5h8.7v2h-6.9l-0.5,4.7c0.8-0.5,1.8-0.7,2.8-0.7c1.6,0,2.8,0.5,3.7,1.5s1.4,2.4,1.4,4.2
		c0,1.8-0.5,3.1-1.4,4.2s-2.3,1.5-4,1.5c-1.5,0-2.7-0.4-3.7-1.3s-1.5-2-1.6-3.5h2.1c0.1,1,0.5,1.7,1,2.2s1.3,0.7,2.2,0.7
		c1,0,1.8-0.3,2.4-1s0.9-1.6,0.9-2.8c0-1.1-0.3-2.1-0.9-2.7s-1.4-1-2.5-1c-0.9,0-1.7,0.2-2.2,0.6l-0.6,0.5L31.2,444.9z"/>
</g>
<line class="st2" x1="64.8" y1="1029.6" x2="64.8" y2="727.2"/>
<line class="st2" x1="64.8" y1="878.4" x2="784.8" y2="878.4"/>
<line class="st5" x1="57.6" y1="1022.4" x2="72" y2="1022.4"/>
<line class="st5" x1="57.6" y1="950.4" x2="72" y2="950.4"/>
<line class="st5" x1="57.6" y1="878.4" x2="72" y2="878.4"/>
<line class="st5" x1="57.6" y1="806.4" x2="72" y2="806.4"/>
<line class="st5" x1="57.6" y1="734.4" x2="72" y2="734.4"/>
<g class="st3">
	<path class="st4" d="M28.3,1023h-5.7v-1.8h5.7V1023z"/>
	<path class="st4" d="M37.3,1029.4h-2.2V1015l-4.4,1.6v-2l6.2-2.3h0.3V1029.4z"/>
</g>
<g class="st3">
	<path class="st4" d="M8.5,951H2.8v-1.8h5.7V951z"/>
	<path class="st4" d="M21.1,950.1c0,2.5-0.4,4.4-1.3,5.7s-2.2,1.9-4.1,1.9c-1.8,0-3.2-0.6-4-1.8s-1.3-3-1.4-5.4v-2.9
		c0-2.5,0.4-4.4,1.3-5.6s2.2-1.8,4.1-1.8c1.8,0,3.2,0.6,4.1,1.8s1.3,3,1.3,5.4V950.1z M19,947.2c0-1.8-0.3-3.2-0.8-4
		s-1.3-1.3-2.4-1.3c-1.1,0-1.9,0.4-2.4,1.3s-0.8,2.1-0.8,3.9v3.5c0,1.8,0.3,3.2,0.8,4.1s1.3,1.3,2.4,1.3c1.1,0,1.9-0.4,2.4-1.2
		s0.8-2.1,0.8-3.9V947.2z"/>
	<path class="st4" d="M24.2,956.3c0-0.4,0.1-0.7,0.3-0.9s0.6-0.4,1-0.4s0.8,0.1,1,0.4s0.3,0.6,0.3,0.9c0,0.4-0.1,0.7-0.3,0.9
		s-0.6,0.4-1,0.4s-0.8-0.1-1-0.4S24.2,956.6,24.2,956.3z"/>
	<path class="st4" d="M31.2,948.9l0.9-8.5h8.7v2h-6.9l-0.5,4.7c0.8-0.5,1.8-0.7,2.8-0.7c1.6,0,2.8,0.5,3.7,1.5s1.4,2.4,1.4,4.2
		c0,1.8-0.5,3.1-1.4,4.2s-2.3,1.5-4,1.5c-1.5,0-2.7-0.4-3.7-1.3s-1.5-2-1.6-3.5h2.1c0.1,1,0.5,1.7,1,2.2s1.3,0.7,2.2,0.7
		c1,0,1.8-0.3,2.4-1s0.9-1.6,0.9-2.8c0-1.1-0.3-2.1-0.9-2.7s-1.4-1-2.5-1c-0.9,0-1.7,0.2-2.2,0.6l-0.6,0.5L31.2,948.9z"/>
</g>
<g class="st3">
	<path class="st4" d="M40.9,878.1c0,2.5-0.4,4.4-1.3,5.7s-2.2,1.9-4.1,1.9c-1.8,0-3.2-0.6-4-1.8s-1.3-3-1.4-5.4v-2.9
		c0-2.5,0.4-4.4,1.3-5.6s2.2-1.8,4.1-1.8c1.8,0,3.2,0.6,4.1,1.8s1.3,3,1.3,5.4V878.1z M38.7,875.2c0-1.8-0.3-3.2-0.8-4
		s-1.3-1.3-2.4-1.3c-1.1,0-1.9,0.4-2.4,1.3s-0.8,2.1-0.8,3.9v3.5c0,1.8,0.3,3.2,0.8,4.1s1.3,1.3,2.4,1.3c1.1,0,1.9-0.4,2.4-1.2
		s0.8-2.1,0.8-3.9V875.2z"/>
</g>
<g class="st3">
	<path class="st4" d="M37.3,741.4h-2.2V727l-4.4,1.6v-2l6.2-2.3h0.3V741.4z"/>
</g>
<g class="st3">
	<path class="st4" d="M21.1,806.1c0,2.5-0.4,4.4-1.3,5.7s-2.2,1.9-4.1,1.9c-1.8,0-3.2-0.6-4-1.8s-1.3-3-1.4-5.4v-2.9
		c0-2.5,0.4-4.4,1.3-5.6s2.2-1.8,4.1-1.8c1.8,0,3.2,0.6,4.1,1.8s1.3,3,1.3,5.4V806.1z M19,803.2c0-1.8-0.3-3.2-0.8-4
		s-1.3-1.3-2.4-1.3c-1.1,0-1.9,0.4-2.4,1.3s-0.8,2.1-0.8,3.9v3.5c0,1.8,0.3,3.2,0.8,4.1s1.3,1.3,2.4,1.3c1.1,0,1.9-0.4,2.4-1.2
		s0.8-2.1,0.8-3.9V803.2z"/>
	<path class="st4" d="M24.2,812.3c0-0.4,0.1-0.7,0.3-0.9s0.6-0.4,1-0.4s0.8,0.1,1,0.4s0.3,0.6,0.3,0.9c0,0.4-0.1,0.7-0.3,0.9
		s-0.6,0.4-1,0.4s-0.8-0.1-1-0.4S24.2,812.6,24.2,812.3z"/>
	<path class="st4" d="M31.2,804.9l0.9-8.5h8.7v2h-6.9l-0.5,4.7c0.8-0.5,1.8-0.7,2.8-0.7c1.6,0,2.8,0.5,3.7,1.5s1.4,2.4,1.4,4.2
		c0,1.8-0.5,3.1-1.4,4.2s-2.3,1.5-4,1.5c-1.5,0-2.7-0.4-3.7-1.3s-1.5-2-1.6-3.5h2.1c0.1,1,0.5,1.7,1,2.2s1.3,0.7,2.2,0.7
		c1,0,1.8-0.3,2.4-1s0.9-1.6,0.9-2.8c0-1.1-0.3-2.1-0.9-2.7s-1.4-1-2.5-1c-0.9,0-1.7,0.2-2.2,0.6l-0.6,0.5L31.2,804.9z"/>
</g>
<line class="st2" x1="1072.8" y1="1029.6" x2="1072.8" y2="727.2"/>
<line class="st2" x1="1072.8" y1="878.4" x2="1792.8" y2="878.4"/>
<line class="st5" x1="1065.6" y1="1022.4" x2="1080" y2="1022.4"/>
<line class="st5" x1="1065.6" y1="950.4" x2="1080" y2="950.4"/>
<line class="st5" x1="1065.6" y1="878.4" x2="1080" y2="878.4"/>
<line class="st5" x1="1065.6" y1="806.4" x2="1080" y2="806.4"/>
<line class="st5" x1="1065.6" y1="734.4" x2="1080" y2="734.4"/>
<g class="st3">
	<path class="st4" d="M1036.3,1023h-5.7v-1.8h5.7V1023z"/>
	<path class="st4" d="M1045.3,1029.4h-2.2V1015l-4.4,1.6v-2l6.2-2.3h0.3V1029.4z"/>
</g>
<g class="st3">
	<path class="st4" d="M1016.5,951h-5.7v-1.8h5.7V951z"/>
	<path class="st4" d="M1029.1,950.1c0,2.5-0.4,4.4-1.3,5.7s-2.2,1.9-4.1,1.9c-1.8,0-3.2-0.6-4-1.8s-1.3-3-1.4-5.4v-2.9
		c0-2.5,0.4-4.4,1.3-5.6s2.2-1.8,4.1-1.8c1.8,0,3.2,0.6,4.1,1.8s1.3,3,1.3,5.4V950.1z M1027,947.2c0-1.8-0.3-3.2-0.8-4
		s-1.3-1.3-2.4-1.3c-1.1,0-1.9,0.4-2.4,1.3s-0.8,2.1-0.8,3.9v3.5c0,1.8,0.3,3.2,0.8,4.1s1.3,1.3,2.4,1.3c1.1,0,1.9-0.4,2.4-1.2
		s0.8-2.1,0.8-3.9V947.2z"/>
	<path class="st4" d="M1032.2,956.3c0-0.4,0.1-0.7,0.3-0.9s0.6-0.4,1-0.4s0.8,0.1,1,0.4s0.3,0.6,0.3,0.9c0,0.4-0.1,0.7-0.3,0.9
		s-0.6,0.4-1,0.4s-0.8-0.1-1-0.4S1032.2,956.6,1032.2,956.3z"/>
	<path class="st4" d="M1039.2,948.9l0.9-8.5h8.7v2h-6.9l-0.5,4.7c0.8-0.5,1.8-0.7,2.8-0.7c1.6,0,2.8,0.5,3.7,1.5s1.4,2.4,1.4,4.2
		c0,1.8-0.5,3.1-1.4,4.2s-2.3,1.5-4,1.5c-1.5,0-2.7-0.4-3.7-1.3s-1.5-2-1.6-3.5h2.1c0.1,1,0.5,1.7,1,2.2s1.3,0.7,2.2,0.7
		c1,0,1.8-0.3,2.4-1s0.9-1.6,0.9-2.8c0-1.1-0.3-2.1-0.9-2.7s-1.4-1-2.5-1c-0.9,0-1.7,0.2-2.2,0.6l-0.6,0.5L1039.2,948.9z"/>
</g>
<g class="st3">
	<path class="st4" d="M1048.9,878.1c0,2.5-0.4,4.4-1.3,5.7s-2.2,1.9-4.1,1.9c-1.8,0-3.2-0.6-4-1.8s-1.3-3-1.4-5.4v-2.9
		c0-2.5,0.4-4.4,1.3-5.6s2.2-1.8,4.1-1.8c1.8,0,3.2,0.6,4.1,1.8s1.3,3,1.3,5.4V878.1z M1046.7,875.2c0-1.8-0.3-3.2-0.8-4
		s-1.3-1.3-2.4-1.3c-1.1,0-1.9,0.4-2.4,1.3s-0.8,2.1-0.8,3.9v3.5c0,1.8,0.3,3.2,0.8,4.1s1.3,1.3,2.4,1.3c1.1,0,1.9-0.4,2.4-1.2
		s0.8-2.1,0.8-3.9V875.2z"/>
</g>
<g class="st3">
	<path class="st4" d="M1045.3,741.4h-2.2V727l-4.4,1.6v-2l6.2-2.3h0.3V741.4z"/>
</g>
<g class="st3">
	<path class="st4" d="M1029.1,806.1c0,2.5-0.4,4.4-1.3,5.7s-2.2,1.9-4.1,1.9c-1.8,0-3.2-0.6-4-1.8s-1.3-3-1.4-5.4v-2.9
		c0-2.5,0.4-4.4,1.3-5.6s2.2-1.8,4.1-1.8c1.8,0,3.2,0.6,4.1,1.8s1.3,3,1.3,5.4V806.1z M1027,803.2c0-1.8-0.3-3.2-0.8-4
		s-1.3-1.3-2.4-1.3c-1.1,0-1.9,0.4-2.4,1.3s-0.8,2.1-0.8,3.9v3.5c0,1.8,0.3,3.2,0.8,4.1s1.3,1.3,2.4,1.3c1.1,0,1.9-0.4,2.4-1.2
		s0.8-2.1,0.8-3.9V803.2z"/>
	<path class="st4" d="M1032.2,812.3c0-0.4,0.1-0.7,0.3-0.9s0.6-0.4,1-0.4s0.8,0.1,1,0.4s0.3,0.6,0.3,0.9c0,0.4-0.1,0.7-0.3,0.9
		s-0.6,0.4-1,0.4s-0.8-0.1-1-0.4S1032.2,812.6,1032.2,812.3z"/>
	<path class="st4" d="M1039.2,804.9l0.9-8.5h8.7v2h-6.9l-0.5,4.7c0.8-0.5,1.8-0.7,2.8-0.7c1.6,0,2.8,0.5,3.7,1.5s1.4,2.4,1.4,4.2
		c0,1.8-0.5,3.1-1.4,4.2s-2.3,1.5-4,1.5c-1.5,0-2.7-0.4-3.7-1.3s-1.5-2-1.6-3.5h2.1c0.1,1,0.5,1.7,1,2.2s1.3,0.7,2.2,0.7
		c1,0,1.8-0.3,2.4-1s0.9-1.6,0.9-2.8c0-1.1-0.3-2.1-0.9-2.7s-1.4-1-2.5-1c-0.9,0-1.7,0.2-2.2,0.6l-0.6,0.5L1039.2,804.9z"/>
</g>
<line class="st2" x1="1072.8" y1="669.6" x2="1072.8" y2="367.2"/>
<line class="st2" x1="1072.8" y1="518.4" x2="1792.8" y2="518.4"/>
<line class="st5" x1="1065.6" y1="662.4" x2="1080" y2="662.4"/>
<line class="st5" x1="1065.6" y1="590.4" x2="1080" y2="590.4"/>
<line class="st5" x1="1065.6" y1="518.4" x2="1080" y2="518.4"/>
<line class="st5" x1="1065.6" y1="446.4" x2="1080" y2="446.4"/>
<line class="st5" x1="1065.6" y1="374.4" x2="1080" y2="374.4"/>
<g class="st3">
	<path class="st4" d="M1036.3,663h-5.7v-1.8h5.7V663z"/>
	<path class="st4" d="M1045.3,669.4h-2.2V655l-4.4,1.6v-2l6.2-2.3h0.3V669.4z"/>
</g>
<g class="st3">
	<path class="st4" d="M1016.5,591h-5.7v-1.8h5.7V591z"/>
	<path class="st4" d="M1029.1,590.1c0,2.5-0.4,4.4-1.3,5.7s-2.2,1.9-4.1,1.9c-1.8,0-3.2-0.6-4-1.8s-1.3-3-1.4-5.4v-2.9
		c0-2.5,0.4-4.4,1.3-5.6s2.2-1.8,4.1-1.8c1.8,0,3.2,0.6,4.1,1.8s1.3,3,1.3,5.4V590.1z M1027,587.2c0-1.8-0.3-3.2-0.8-4
		s-1.3-1.3-2.4-1.3c-1.1,0-1.9,0.4-2.4,1.3s-0.8,2.1-0.8,3.9v3.5c0,1.8,0.3,3.2,0.8,4.1s1.3,1.3,2.4,1.3c1.1,0,1.9-0.4,2.4-1.2
		s0.8-2.1,0.8-3.9V587.2z"/>
	<path class="st4" d="M1032.2,596.3c0-0.4,0.1-0.7,0.3-0.9s0.6-0.4,1-0.4s0.8,0.1,1,0.4s0.3,0.6,0.3,0.9c0,0.4-0.1,0.7-0.3,0.9
		s-0.6,0.4-1,0.4s-0.8-0.1-1-0.4S1032.2,596.6,1032.2,596.3z"/>
	<path class="st4" d="M1039.2,588.9l0.9-8.5h8.7v2h-6.9l-0.5,4.7c0.8-0.5,1.8-0.7,2.8-0.7c1.6,0,2.8,0.5,3.7,1.5s1.4,2.4,1.4,4.2
		c0,1.8-0.5,3.1-1.4,4.2s-2.3,1.5-4,1.5c-1.5,0-2.7-0.4-3.7-1.3s-1.5-2-1.6-3.5h2.1c0.1,1,0.5,1.7,1,2.2s1.3,0.7,2.2,0.7
		c1,0,1.8-0.3,2.4-1s0.9-1.6,0.9-2.8c0-1.1-0.3-2.1-0.9-2.7s-1.4-1-2.5-1c-0.9,0-1.7,0.2-2.2,0.6l-0.6,0.5L1039.2,588.9z"/>
</g>
<g class="st3">
	<path class="st4" d="M1048.9,518.1c0,2.5-0.4,4.4-1.3,5.7s-2.2,1.9-4.1,1.9c-1.8,0-3.2-0.6-4-1.8s-1.3-3-1.4-5.4v-2.9
		c0-2.5,0.4-4.4,1.3-5.6s2.2-1.8,4.1-1.8c1.8,0,3.2,0.6,4.1,1.8s1.3,3,1.3,5.4V518.1z M1046.7,515.2c0-1.8-0.3-3.2-0.8-4
		s-1.3-1.3-2.4-1.3c-1.1,0-1.9,0.4-2.4,1.3s-0.8,2.1-0.8,3.9v3.5c0,1.8,0.3,3.2,0.8,4.1s1.3,1.3,2.4,1.3c1.1,0,1.9-0.4,2.4-1.2
		s0.8-2.1,0.8-3.9V515.2z"/>
</g>
<g class="st3">
	<path class="st4" d="M1045.3,381.4h-2.2V367l-4.4,1.6v-2l6.2-2.3h0.3V381.4z"/>
</g>
<g class="st3">
	<path class="st4" d="M1029.1,446.1c0,2.5-0.4,4.4-1.3,5.7s-2.2,1.9-4.1,1.9c-1.8,0-3.2-0.6-4-1.8s-1.3-3-1.4-5.4v-2.9
		c0-2.5,0.4-4.4,1.3-5.6s2.2-1.8,4.1-1.8c1.8,0,3.2,0.6,4.1,1.8s1.3,3,1.3,5.4V446.1z M1027,443.2c0-1.8-0.3-3.2-0.8-4
		s-1.3-1.3-2.4-1.3c-1.1,0-1.9,0.4-2.4,1.3s-0.8,2.1-0.8,3.9v3.5c0,1.8,0.3,3.2,0.8,4.1s1.3,1.3,2.4,1.3c1.1,0,1.9-0.4,2.4-1.2
		s0.8-2.1,0.8-3.9V443.2z"/>
	<path class="st4" d="M1032.2,452.3c0-0.4,0.1-0.7,0.3-0.9s0.6-0.4,1-0.4s0.8,0.1,1,0.4s0.3,0.6,0.3,0.9c0,0.4-0.1,0.7-0.3,0.9
		s-0.6,0.4-1,0.4s-0.8-0.1-1-0.4S1032.2,452.6,1032.2,452.3z"/>
	<path class="st4" d="M1039.2,444.9l0.9-8.5h8.7v2h-6.9l-0.5,4.7c0.8-0.5,1.8-0.7,2.8-0.7c1.6,0,2.8,0.5,3.7,1.5s1.4,2.4,1.4,4.2
		c0,1.8-0.5,3.1-1.4,4.2s-2.3,1.5-4,1.5c-1.5,0-2.7-0.4-3.7-1.3s-1.5-2-1.6-3.5h2.1c0.1,1,0.5,1.7,1,2.2s1.3,0.7,2.2,0.7
		c1,0,1.8-0.3,2.4-1s0.9-1.6,0.9-2.8c0-1.1-0.3-2.1-0.9-2.7s-1.4-1-2.5-1c-0.9,0-1.7,0.2-2.2,0.6l-0.6,0.5L1039.2,444.9z"/>
</g>
<line class="st2" x1="1072.8" y1="309.6" x2="1072.8" y2="7.2"/>
<line class="st2" x1="1072.8" y1="158.4" x2="1792.8" y2="158.4"/>
<line class="st5" x1="1065.6" y1="302.4" x2="1080" y2="302.4"/>
<line class="st5" x1="1065.6" y1="230.4" x2="1080" y2="230.4"/>
<line class="st5" x1="1065.6" y1="158.4" x2="1080" y2="158.4"/>
<line class="st5" x1="1065.6" y1="86.4" x2="1080" y2="86.4"/>
<line class="st5" x1="1065.6" y1="14.4" x2="1080" y2="14.4"/>
<g class="st3">
	<path class="st4" d="M1036.3,303h-5.7v-1.8h5.7V303z"/>
	<path class="st4" d="M1045.3,309.4h-2.2V295l-4.4,1.6v-2l6.2-2.3h0.3V309.4z"/>
</g>
<g class="st3">
	<path class="st4" d="M1016.5,231h-5.7v-1.8h5.7V231z"/>
	<path class="st4" d="M1029.1,230.1c0,2.5-0.4,4.4-1.3,5.7s-2.2,1.9-4.1,1.9c-1.8,0-3.2-0.6-4-1.8s-1.3-3-1.4-5.4v-2.9
		c0-2.5,0.4-4.4,1.3-5.6s2.2-1.8,4.1-1.8c1.8,0,3.2,0.6,4.1,1.8s1.3,3,1.3,5.4V230.1z M1027,227.2c0-1.8-0.3-3.2-0.8-4
		s-1.3-1.3-2.4-1.3c-1.1,0-1.9,0.4-2.4,1.3s-0.8,2.1-0.8,3.9v3.5c0,1.8,0.3,3.2,0.8,4.1s1.3,1.3,2.4,1.3c1.1,0,1.9-0.4,2.4-1.2
		s0.8-2.1,0.8-3.9V227.2z"/>
	<path class="st4" d="M1032.2,236.3c0-0.4,0.1-0.7,0.3-0.9s0.6-0.4,1-0.4s0.8,0.1,1,0.4s0.3,0.6,0.3,0.9c0,0.4-0.1,0.7-0.3,0.9
		s-0.6,0.4-1,0.4s-0.8-0.1-1-0.4S1032.2,236.6,1032.2,236.3z"/>
	<path class="st4" d="M1039.2,228.9l0.9-8.5h8.7v2h-6.9l-0.5,4.7c0.8-0.5,1.8-0.7,2.8-0.7c1.6,0,2.8,0.5,3.7,1.5s1.4,2.4,1.4,4.2
		c0,1.8-0.5,3.1-1.4,4.2s-2.3,1.5-4,1.5c-1.5,0-2.7-0.4-3.7-1.3s-1.5-2-1.6-3.5h2.1c0.1,1,0.5,1.7,1,2.2s1.3,0.7,2.2,0.7
		c1,0,1.8-0.3,2.4-1s0.9-1.6,0.9-2.8c0-1.1-0.3-2.1-0.9-2.7s-1.4-1-2.5-1c-0.9,0-1.7,0.2-2.2,0.6l-0.6,0.5L1039.2,228.9z"/>
</g>
<g class="st3">
	<path class="st4" d="M1048.9,158.1c0,2.5-0.4,4.4-1.3,5.7s-2.2,1.9-4.1,1.9c-1.8,0-3.2-0.6-4-1.8s-1.3-3-1.4-5.4v-2.9
		c0-2.5,0.4-4.4,1.3-5.6s2.2-1.8,4.1-1.8c1.8,0,3.2,0.6,4.1,1.8s1.3,3,1.3,5.4V158.1z M1046.7,155.2c0-1.8-0.3-3.2-0.8-4
		s-1.3-1.3-2.4-1.3c-1.1,0-1.9,0.4-2.4,1.3s-0.8,2.1-0.8,3.9v3.5c0,1.8,0.3,3.2,0.8,4.1s1.3,1.3,2.4,1.3c1.1,0,1.9-0.4,2.4-1.2
		s0.8-2.1,0.8-3.9V155.2z"/>
</g>
<g class="st3">
	<path class="st4" d="M1045.3,21.4h-2.2V7l-4.4,1.6v-2l6.2-2.3h0.3V21.4z"/>
</g>
<g class="st3">
	<path class="st4" d="M1029.1,86.1c0,2.5-0.4,4.4-1.3,5.7s-2.2,1.9-4.1,1.9c-1.8,0-3.2-0.6-4-1.8s-1.3-3-1.4-5.4v-2.9
		c0-2.5,0.4-4.4,1.3-5.6s2.2-1.8,4.1-1.8c1.8,0,3.2,0.6,4.1,1.8s1.3,3,1.3,5.4V86.1z M1027,83.2c0-1.8-0.3-3.2-0.8-4
		s-1.3-1.3-2.4-1.3c-1.1,0-1.9,0.4-2.4,1.3s-0.8,2.1-0.8,3.9v3.5c0,1.8,0.3,3.2,0.8,4.1s1.3,1.3,2.4,1.3c1.1,0,1.9-0.4,2.4-1.2
		s0.8-2.1,0.8-3.9V83.2z"/>
	<path class="st4" d="M1032.2,92.3c0-0.4,0.1-0.7,0.3-0.9s0.6-0.4,1-0.4s0.8,0.1,1,0.4s0.3,0.6,0.3,0.9c0,0.4-0.1,0.7-0.3,0.9
		s-0.6,0.4-1,0.4s-0.8-0.1-1-0.4S1032.2,92.6,1032.2,92.3z"/>
	<path class="st4" d="M1039.2,84.9l0.9-8.5h8.7v2h-6.9l-0.5,4.7c0.8-0.5,1.8-0.7,2.8-0.7c1.6,0,2.8,0.5,3.7,1.5s1.4,2.4,1.4,4.2
		c0,1.8-0.5,3.1-1.4,4.2s-2.3,1.5-4,1.5c-1.5,0-2.7-0.4-3.7-1.3s-1.5-2-1.6-3.5h2.1c0.1,1,0.5,1.7,1,2.2s1.3,0.7,2.2,0.7
		c1,0,1.8-0.3,2.4-1s0.9-1.6,0.9-2.8c0-1.1-0.3-2.1-0.9-2.7s-1.4-1-2.5-1c-0.9,0-1.7,0.2-2.2,0.6l-0.6,0.5L1039.2,84.9z"/>
</g>
<line class="st5" x1="208.8" y1="165.6" x2="208.8" y2="151.2"/>
<line class="st5" x1="352.8" y1="165.6" x2="352.8" y2="151.2"/>
<line class="st5" x1="496.8" y1="165.6" x2="496.8" y2="151.2"/>
<line class="st5" x1="640.8" y1="165.6" x2="640.8" y2="151.2"/>
<line class="st5" x1="208.8" y1="525.6" x2="208.8" y2="511.2"/>
<line class="st5" x1="352.8" y1="525.6" x2="352.8" y2="511.2"/>
<line class="st5" x1="496.8" y1="525.6" x2="496.8" y2="511.2"/>
<line class="st5" x1="640.8" y1="525.6" x2="640.8" y2="511.2"/>
<line class="st5" x1="208.8" y1="885.6" x2="208.8" y2="871.2"/>
<line class="st5" x1="352.8" y1="885.6" x2="352.8" y2="871.2"/>
<line class="st5" x1="496.8" y1="885.6" x2="496.8" y2="871.2"/>
<line class="st5" x1="640.8" y1="885.6" x2="640.8" y2="871.2"/>
<line class="st5" x1="1216.8" y1="885.6" x2="1216.8" y2="871.2"/>
<line class="st5" x1="1360.8" y1="885.6" x2="1360.8" y2="871.2"/>
<line class="st5" x1="1504.8" y1="885.6" x2="1504.8" y2="871.2"/>
<line class="st5" x1="1648.8" y1="885.6" x2="1648.8" y2="871.2"/>
<line class="st5" x1="1216.8" y1="525.6" x2="1216.8" y2="511.2"/>
<line class="st5" x1="1360.8" y1="525.6" x2="1360.8" y2="511.2"/>
<line class="st5" x1="1504.8" y1="525.6" x2="1504.8" y2="511.2"/>
<line class="st5" x1="1648.8" y1="525.6" x2="1648.8" y2="511.2"/>
<line class="st5" x1="1216.8" y1="165.6" x2="1216.8" y2="151.2"/>
<line class="st5" x1="1360.8" y1="165.6" x2="1360.8" y2="151.2"/>
<line class="st5" x1="1504.8" y1="165.6" x2="1504.8" y2="151.2"/>
<line class="st5" x1="1648.8" y1="165.6" x2="1648.8" y2="151.2"/>
</svg>
