<?xml version="1.0" encoding="UTF-8"?>
<svg id="Ebene_1" data-name="Ebene 1" xmlns="http://www.w3.org/2000/svg" width="1918.8" height="1076.4" viewBox="0 0 1918.8 1076.4">
  <g id="Ebene_4" data-name="Ebene 4">
    <path d="m64.8,878.4c0-.2.1-.4.1-.4l8.8-48.3,4.7-23.8,4-18.2,3.5-14.3,3.2-11.4,2.9-8.8,2.7-6.8,2.6-5.1,2.3-3.4,2.1-2.1,2-1.1,1.8-.3,1.8.4,1.8,1.2,2,2.1,2.1,3.2,2.3,4.4,2.6,6.3,2.9,8.5,3,10.5,3.2,12.7,3.6,16.3,4.1,20.2,5,26.6s2.9,16.3,5.7,31.8" fill="none" stroke="#d85648" stroke-miterlimit="10" stroke-width="5"/>
    <path d="m145.8,878.4c0,.2.1.4.1.4l8.8,48.3,4.7,23.8,4,18.2,3.5,14.3,3.2,11.4,2.9,8.8,2.7,6.8,2.6,5.1,2.3,3.4,2.1,2.1,2,1.1,1.8.3,1.8-.4,1.8-1.2,2-2.1,2.1-3.2,2.3-4.4,2.6-6.3,2.9-8.5,3-10.5,3.2-12.7,3.6-16.3,4.1-20.2,5-26.6s2.9-16.3,5.7-31.8" fill="none" stroke="#d85648" stroke-miterlimit="10" stroke-width="5"/>
    <path d="m226.8,878.4c0-.2.1-.4.1-.4l8.8-48.3,4.7-23.8,4-18.2,3.5-14.3,3.2-11.4,2.9-8.8,2.7-6.8,2.6-5.1,2.3-3.4,2.1-2.1,2-1.1,1.8-.3,1.8.4,1.8,1.2,2,2.1,2.1,3.2,2.3,4.4,2.6,6.3,2.9,8.5,3,10.5,3.2,12.7,3.6,16.3,4.1,20.2,5,26.6s2.9,16.3,5.7,31.8" fill="none" stroke="#d85648" stroke-miterlimit="10" stroke-width="5"/>
    <path d="m307.8,878.4c0,.2.1.4.1.4l8.8,48.3,4.7,23.8,4,18.2,3.5,14.3,3.2,11.4,2.9,8.8,2.7,6.8,2.6,5.1,2.3,3.4,2.1,2.1,2,1.1,1.8.3,1.8-.4,1.8-1.2,2-2.1,2.1-3.2,2.3-4.4,2.6-6.3,2.9-8.5,3-10.5,3.2-12.7,3.6-16.3,4.1-20.2,5-26.6s2.9-16.3,5.7-31.8" fill="none" stroke="#d85648" stroke-miterlimit="10" stroke-width="5"/>
    <path d="m388.8,878.4c0-.2.1-.4.1-.4l8.8-48.3,4.7-23.8,4-18.2,3.5-14.3,3.2-11.4,2.9-8.8,2.7-6.8,2.6-5.1,2.3-3.4,2.1-2.1,2-1.1,1.8-.3,1.8.4,1.8,1.2,2,2.1,2.1,3.2,2.3,4.4,2.6,6.3,2.9,8.5,3,10.5,3.2,12.7,3.6,16.3,4.1,20.2,5,26.6s2.9,16.3,5.7,31.8" fill="none" stroke="#d85648" stroke-miterlimit="10" stroke-width="5"/>
    <path d="m469.8,878.4c0,.2.1.4.1.4l8.8,48.3,4.7,23.8,4,18.2,3.5,14.3,3.2,11.4,2.9,8.8,2.7,6.8,2.6,5.1,2.3,3.4,2.1,2.1,2,1.1,1.8.3,1.8-.4,1.8-1.2,2-2.1,2.1-3.2,2.3-4.4,2.6-6.3,2.9-8.5,3-10.5,3.2-12.7,3.7-16.3,4.1-20.2,5-26.6s2.9-16.3,5.7-31.8" fill="none" stroke="#d85648" stroke-miterlimit="10" stroke-width="5"/>
    <path d="m550.8,878.4c0-.2.1-.4.1-.4l8.8-48.3,4.7-23.8,4-18.2,3.5-14.3,3.2-11.4,2.9-8.8,2.7-6.8,2.6-5.1,2.3-3.4,2.1-2.1,2-1.1,1.8-.3,1.8.4,1.8,1.2,2,2.1,2.1,3.2,2.3,4.4,2.6,6.3,2.9,8.5,3,10.5,3.2,12.7,3.7,16.3,4.1,20.2,5,26.6s2.9,16.3,5.7,31.8" fill="none" stroke="#d85648" stroke-miterlimit="10" stroke-width="5"/>
    <path d="m631.8,878.4c0,.2.1.4.1.4l8.8,48.3,4.7,23.8,4,18.2,3.5,14.3,3.2,11.4,2.9,8.8,2.7,6.8,2.6,5.1,2.3,3.4,2.1,2.1,2,1.1,1.8.3,1.8-.4,1.8-1.2,2-2.1,2.1-3.2,2.3-4.4,2.6-6.3,2.9-8.5,3-10.5,3.2-12.7,3.7-16.3,4.1-20.2,5-26.6s2.9-16.3,5.7-31.8" fill="none" stroke="#d85648" stroke-miterlimit="10" stroke-width="5"/>
    <path d="m64.8,518.4c0-.1.1-.2.1-.2l8.8-24.2,4.7-11.9,4-9.1,3.5-7.1,3.2-5.7,2.9-4.4,2.7-3.4,2.6-2.5,2.3-1.7,2.1-1.1,2-.6,1.8-.1,1.8.2,1.8.6,2,1,2.1,1.6,2.3,2.2,2.6,3.1,2.9,4.2,3,5.3,3.2,6.3,3.6,8.1,4.1,10.1,5,13.3s2.9,8.1,5.7,15.9" fill="none" stroke="#307eef" stroke-miterlimit="10" stroke-width="5"/>
    <path d="m145.8,518.4c0,.1.1.2.1.2l8.8,24.2,4.7,11.9,4,9.1,3.5,7.2,3.2,5.7,2.9,4.4,2.7,3.4,2.6,2.5,2.3,1.7,2.1,1.1,2,.6,1.8.1,1.8-.2,1.8-.6,2-1,2.1-1.6,2.3-2.2,2.6-3.1,2.9-4.2,3-5.3,3.2-6.3,3.6-8.1,4.1-10.1,5-13.3s2.9-8.1,5.7-15.9" fill="none" stroke="#307eef" stroke-miterlimit="10" stroke-width="5"/>
    <path d="m226.8,518.4c0-.1.1-.2.1-.2l8.8-24.2,4.7-11.9,4-9.1,3.5-7.1,3.2-5.7,2.9-4.4,2.7-3.4,2.6-2.5,2.3-1.7,2.1-1.1,2-.6,1.8-.1,1.8.2,1.8.6,2,1,2.1,1.6,2.3,2.2,2.6,3.1,2.9,4.2,3,5.3,3.2,6.3,3.6,8.1,4.1,10.1,5,13.3s2.9,8.1,5.7,15.9" fill="none" stroke="#307eef" stroke-miterlimit="10" stroke-width="5"/>
    <path d="m307.8,518.4c0,.1.1.2.1.2l8.8,24.2,4.7,11.9,4,9.1,3.5,7.2,3.2,5.7,2.9,4.4,2.7,3.4,2.6,2.5,2.3,1.7,2.1,1.1,2,.6,1.8.1,1.8-.2,1.8-.6,2-1,2.1-1.6,2.3-2.2,2.6-3.1,2.9-4.2,3-5.3,3.2-6.3,3.6-8.1,4.1-10.1,5-13.3s2.9-8.1,5.7-15.9" fill="none" stroke="#307eef" stroke-miterlimit="10" stroke-width="5"/>
    <path d="m388.8,518.4c0-.1.1-.2.1-.2l8.8-24.2,4.7-11.9,4-9.1,3.5-7.1,3.2-5.7,2.9-4.4,2.7-3.4,2.6-2.5,2.3-1.7,2.1-1.1,2-.6,1.8-.1,1.8.2,1.8.6,2,1,2.1,1.6,2.3,2.2,2.6,3.1,2.9,4.2,3,5.3,3.2,6.3,3.6,8.1,4.1,10.1,5,13.3s2.9,8.1,5.7,15.9" fill="none" stroke="#307eef" stroke-miterlimit="10" stroke-width="5"/>
    <path d="m469.8,518.4c0,.1.1.2.1.2l8.8,24.2,4.7,11.9,4,9.1,3.5,7.2,3.2,5.7,2.9,4.4,2.7,3.4,2.6,2.5,2.3,1.7,2.1,1.1,2,.6,1.8.1,1.8-.2,1.8-.6,2-1,2.1-1.6,2.3-2.2,2.6-3.1,2.9-4.2,3-5.3,3.2-6.3,3.7-8.1,4.1-10.1,5-13.3s2.9-8.1,5.7-15.9" fill="none" stroke="#307eef" stroke-miterlimit="10" stroke-width="5"/>
    <path d="m550.8,518.4c0-.1.1-.2.1-.2l8.8-24.2,4.7-11.9,4-9.1,3.5-7.1,3.2-5.7,2.9-4.4,2.7-3.4,2.6-2.5,2.3-1.7,2.1-1.1,2-.6,1.8-.1,1.8.2,1.8.6,2,1,2.1,1.6,2.3,2.2,2.6,3.1,2.9,4.2,3,5.3,3.2,6.3,3.7,8.1,4.1,10.1,5,13.3s2.9,8.1,5.7,15.9" fill="none" stroke="#307eef" stroke-miterlimit="10" stroke-width="5"/>
    <path d="m631.8,518.4c0,.1.1.2.1.2l8.8,24.2,4.7,11.9,4,9.1,3.5,7.2,3.2,5.7,2.9,4.4,2.7,3.4,2.6,2.5,2.3,1.7,2.1,1.1,2,.6,1.8.1,1.8-.2,1.8-.6,2-1,2.1-1.6,2.3-2.2,2.6-3.1,2.9-4.2,3-5.3,3.2-6.3,3.7-8.1,4.1-10.1,5-13.3s2.9-8.1,5.7-15.9" fill="none" stroke="#307eef" stroke-miterlimit="10" stroke-width="5"/>
    <path d="m64.8,158.4c0-.1.1-.2.1-.2l8.8-24.2,4.7-11.9,4-9.1,3.5-7.2,3.2-5.7,2.9-4.4,2.7-3.4,2.6-2.6,2.3-1.7,2.1-1.1,2-.6,1.8-.1,1.8.2,1.8.6,2,1,2.1,1.6,2.3,2.2,2.6,3.1,2.9,4.2,3,5.3,3.2,6.3,3.6,8.1,4.1,10.1,5,13.3s2.9,8.1,5.7,15.9" fill="none" stroke="#307eef" stroke-miterlimit="10" stroke-width="5"/>
    <path d="m145.8,158.4c0,.1.1.2.1.2l8.8,24.2,4.7,11.9,4,9.1,3.5,7.1,3.2,5.7,2.9,4.4,2.7,3.4,2.6,2.6,2.3,1.7,2.1,1.1,2,.6,1.8.1,1.8-.2,1.8-.6,2-1,2.1-1.6,2.3-2.2,2.6-3.1,2.9-4.2,3-5.3,3.2-6.3,3.6-8.1,4.1-10.1,5-13.3s2.9-8.1,5.7-15.9" fill="none" stroke="#307eef" stroke-miterlimit="10" stroke-width="5"/>
    <path d="m226.8,158.4c0-.1.1-.2.1-.2l8.8-24.2,4.7-11.9,4-9.1,3.5-7.2,3.2-5.7,2.9-4.4,2.7-3.4,2.6-2.6,2.3-1.7,2.1-1.1,2-.6,1.8-.1,1.8.2,1.8.6,2,1,2.1,1.6,2.3,2.2,2.6,3.1,2.9,4.2,3,5.3,3.2,6.3,3.6,8.1,4.1,10.1,5,13.3s2.9,8.1,5.7,15.9" fill="none" stroke="#307eef" stroke-miterlimit="10" stroke-width="5"/>
    <path d="m307.8,158.4c0,.1.1.2.1.2l8.8,24.2,4.7,11.9,4,9.1,3.5,7.1,3.2,5.7,2.9,4.4,2.7,3.4,2.6,2.6,2.3,1.7,2.1,1.1,2,.6,1.8.1,1.8-.2,1.8-.6,2-1,2.1-1.6,2.3-2.2,2.6-3.1,2.9-4.2,3-5.3,3.2-6.3,3.6-8.1,4.1-10.1,5-13.3s2.9-8.1,5.7-15.9" fill="none" stroke="#307eef" stroke-miterlimit="10" stroke-width="5"/>
    <path d="m388.8,158.4c0-.1.1-.2.1-.2l8.8-24.2,4.7-11.9,4-9.1,3.5-7.2,3.2-5.7,2.9-4.4,2.7-3.4,2.6-2.6,2.3-1.7,2.1-1.1,2-.6,1.8-.1,1.8.2,1.8.6,2,1,2.1,1.6,2.3,2.2,2.6,3.1,2.9,4.2,3,5.3,3.2,6.3,3.6,8.1,4.1,10.1,5,13.3s2.9,8.1,5.7,15.9" fill="none" stroke="#307eef" stroke-miterlimit="10" stroke-width="5"/>
    <path d="m469.8,158.4c0,.1.1.2.1.2l8.8,24.2,4.7,11.9,4,9.1,3.5,7.1,3.2,5.7,2.9,4.4,2.7,3.4,2.6,2.6,2.3,1.7,2.1,1.1,2,.6,1.8.1,1.8-.2,1.8-.6,2-1,2.1-1.6,2.3-2.2,2.6-3.1,2.9-4.2,3-5.3,3.2-6.3,3.7-8.1,4.1-10.1,5-13.3s2.9-8.1,5.7-15.9" fill="none" stroke="#307eef" stroke-miterlimit="10" stroke-width="5"/>
    <path d="m550.8,158.4c0-.1.1-.2.1-.2l8.8-24.2,4.7-11.9,4-9.1,3.5-7.2,3.2-5.7,2.9-4.4,2.7-3.4,2.6-2.6,2.3-1.7,2.1-1.1,2-.6,1.8-.1,1.8.2,1.8.6,2,1,2.1,1.6,2.3,2.2,2.6,3.1,2.9,4.2,3,5.3,3.2,6.3,3.7,8.1,4.1,10.1,5,13.3s2.9,8.1,5.7,15.9" fill="none" stroke="#307eef" stroke-miterlimit="10" stroke-width="5"/>
    <path d="m631.8,158.4c0,.1.1.2.1.2l8.8,24.2,4.7,11.9,4,9.1,3.5,7.1,3.2,5.7,2.9,4.4,2.7,3.4,2.6,2.6,2.3,1.7,2.1,1.1,2,.6,1.8.1,1.8-.2,1.8-.6,2-1,2.1-1.6,2.3-2.2,2.6-3.1,2.9-4.2,3-5.3,3.2-6.3,3.7-8.1,4.1-10.1,5-13.3s2.9-8.1,5.7-15.9" fill="none" stroke="#307eef" stroke-miterlimit="10" stroke-width="5"/>
    <path d="m1072.8,158.4c0-.1.1-.2.1-.2l8.8-24.2,4.7-11.9,4-9.1,3.5-7.2,3.2-5.7,2.9-4.4,2.7-3.4,2.6-2.6,2.3-1.7,2.1-1.1,2-.6,1.8-.1,1.8.2,1.8.6,2,1,2.1,1.6,2.3,2.2,2.6,3.1,2.9,4.2,3,5.3,3.2,6.3,3.7,8.1,4.1,10.1,5,13.3s2.9,8.1,5.7,15.9" fill="none" stroke="#307eef" stroke-miterlimit="10" stroke-width="5"/>
    <path d="m1153.8,158.4c0,.1.1.2.1.2l8.8,24.2,4.7,11.9,4,9.1,3.5,7.1,3.2,5.7,2.9,4.4,2.7,3.4,2.6,2.6,2.3,1.7,2.1,1.1,2,.6,1.8.1,1.8-.2,1.8-.6,2-1,2.1-1.6,2.3-2.2,2.6-3.1,2.9-4.2,3-5.3,3.2-6.3,3.7-8.1,4.1-10.1,5-13.3s2.9-8.1,5.7-15.9" fill="none" stroke="#307eef" stroke-miterlimit="10" stroke-width="5"/>
    <path d="m1234.8,158.4c0-.1.1-.2.1-.2l8.8-24.2,4.7-11.9,4-9.1,3.5-7.2,3.2-5.7,2.9-4.4,2.7-3.4,2.6-2.6,2.3-1.7,2.1-1.1,2-.6,1.8-.1,1.8.2,1.8.6,2,1,2.1,1.6,2.3,2.2,2.6,3.1,2.9,4.2,3,5.3,3.2,6.3,3.7,8.1,4.1,10.1,5,13.3s2.9,8.1,5.7,15.9" fill="none" stroke="#307eef" stroke-miterlimit="10" stroke-width="5"/>
    <path d="m1315.8,158.4c0,.1.1.2.1.2l8.8,24.2,4.7,11.9,4,9.1,3.5,7.1,3.2,5.7,2.9,4.4,2.7,3.4,2.6,2.6,2.3,1.7,2.1,1.1,2,.6,1.8.1,1.8-.2,1.8-.6,2-1,2.1-1.6,2.3-2.2,2.6-3.1,2.9-4.2,3-5.3,3.2-6.3,3.7-8.1,4.1-10.1,5-13.3s2.9-8.1,5.7-15.9" fill="none" stroke="#307eef" stroke-miterlimit="10" stroke-width="5"/>
    <path d="m1396.8,158.4c0-.1.1-.2.1-.2l8.8-24.2,4.7-11.9,4-9.1,3.5-7.2,3.2-5.7,2.9-4.4,2.7-3.4,2.6-2.6,2.3-1.7,2.1-1.1,2-.6,1.8-.1,1.8.2,1.8.6,2,1,2.1,1.6,2.3,2.2,2.6,3.1,2.9,4.2,3,5.3,3.2,6.3,3.7,8.1,4.1,10.1,5,13.3s2.9,8.1,5.7,15.9" fill="none" stroke="#307eef" stroke-miterlimit="10" stroke-width="5"/>
    <path d="m1477.8,158.4c0,.1.1.2.1.2l8.8,24.2,4.7,11.9,4,9.1,3.5,7.1,3.2,5.7,2.9,4.4,2.7,3.4,2.6,2.6,2.3,1.7,2.1,1.1,2,.6,1.8.1,1.8-.2,1.8-.6,2-1,2.1-1.6,2.3-2.2,2.6-3.1,2.9-4.2,3-5.3,3.2-6.3,3.7-8.1,4.1-10.1,5-13.3s2.9-8.1,5.7-15.9" fill="none" stroke="#307eef" stroke-miterlimit="10" stroke-width="5"/>
    <path d="m1558.8,158.4c0-.1.1-.2.1-.2l8.8-24.2,4.7-11.9,4-9.1,3.5-7.2,3.2-5.7,2.9-4.4,2.7-3.4,2.6-2.6,2.3-1.7,2.1-1.1,2-.6,1.8-.1,1.8.2,1.8.6,2,1,2.1,1.6,2.3,2.2,2.6,3.1,2.9,4.2,3,5.3,3.2,6.3,3.7,8.1,4.1,10.1,5,13.3s2.9,8.1,5.7,15.9" fill="none" stroke="#307eef" stroke-miterlimit="10" stroke-width="5"/>
    <path d="m1639.8,158.4c0,.1.1.2.1.2l8.8,24.2,4.7,11.9,4,9.1,3.5,7.1,3.2,5.7,2.9,4.4,2.7,3.4,2.6,2.6,2.3,1.7,2.1,1.1,2,.6,1.8.1,1.8-.2,1.8-.6,2-1,2.1-1.6,2.3-2.2,2.6-3.1,2.9-4.2,3-5.3,3.2-6.3,3.7-8.1,4.1-10.1,5-13.3s2.9-8.1,5.7-15.9" fill="none" stroke="#307eef" stroke-miterlimit="10" stroke-width="5"/>
    <path d="m1072.8,518.4c0,.1.1.2.1.2l8.8,24.2,4.7,11.9,4,9.1,3.5,7.2,3.2,5.7,2.9,4.4,2.7,3.4,2.6,2.5,2.3,1.7,2.1,1.1,2,.6,1.8.1,1.8-.2,1.8-.6,2-1,2.1-1.6,2.3-2.2,2.6-3.1,2.9-4.2,3-5.3,3.2-6.3,3.7-8.1,4.1-10.1,5-13.3s2.9-8.1,5.7-15.9" fill="none" stroke="#307eef" stroke-miterlimit="10" stroke-width="5"/>
    <path d="m1153.8,518.4c0-.1.1-.2.1-.2l8.8-24.2,4.7-11.9,4-9.1,3.5-7.1,3.2-5.7,2.9-4.4,2.7-3.4,2.6-2.5,2.3-1.7,2.1-1.1,2-.6,1.8-.1,1.8.2,1.8.6,2,1,2.1,1.6,2.3,2.2,2.6,3.1,2.9,4.2,3,5.3,3.2,6.3,3.7,8.1,4.1,10.1,5,13.3s2.9,8.1,5.7,15.9" fill="none" stroke="#307eef" stroke-miterlimit="10" stroke-width="5"/>
    <path d="m1234.8,518.4c0,.1.1.2.1.2l8.8,24.2,4.7,11.9,4,9.1,3.5,7.2,3.2,5.7,2.9,4.4,2.7,3.4,2.6,2.5,2.3,1.7,2.1,1.1,2,.6,1.8.1,1.8-.2,1.8-.6,2-1,2.1-1.6,2.3-2.2,2.6-3.1,2.9-4.2,3-5.3,3.2-6.3,3.7-8.1,4.1-10.1,5-13.3s2.9-8.1,5.7-15.9" fill="none" stroke="#307eef" stroke-miterlimit="10" stroke-width="5"/>
    <path d="m1315.8,518.4c0-.1.1-.2.1-.2l8.8-24.2,4.7-11.9,4-9.1,3.5-7.1,3.2-5.7,2.9-4.4,2.7-3.4,2.6-2.5,2.3-1.7,2.1-1.1,2-.6,1.8-.1,1.8.2,1.8.6,2,1,2.1,1.6,2.3,2.2,2.6,3.1,2.9,4.2,3,5.3,3.2,6.3,3.7,8.1,4.1,10.1,5,13.3s2.9,8.1,5.7,15.9" fill="none" stroke="#307eef" stroke-miterlimit="10" stroke-width="5"/>
    <path d="m1396.8,518.4c0,.1.1.2.1.2l8.8,24.2,4.7,11.9,4,9.1,3.5,7.2,3.2,5.7,2.9,4.4,2.7,3.4,2.6,2.5,2.3,1.7,2.1,1.1,2,.6,1.8.1,1.8-.2,1.8-.6,2-1,2.1-1.6,2.3-2.2,2.6-3.1,2.9-4.2,3-5.3,3.2-6.3,3.7-8.1,4.1-10.1,5-13.3s2.9-8.1,5.7-15.9" fill="none" stroke="#307eef" stroke-miterlimit="10" stroke-width="5"/>
    <path d="m1477.8,518.4c0-.1.1-.2.1-.2l8.8-24.2,4.7-11.9,4-9.1,3.5-7.1,3.2-5.7,2.9-4.4,2.7-3.4,2.6-2.5,2.3-1.7,2.1-1.1,2-.6,1.8-.1,1.8.2,1.8.6,2,1,2.1,1.6,2.3,2.2,2.6,3.1,2.9,4.2,3,5.3,3.2,6.3,3.7,8.1,4.1,10.1,5,13.3s2.9,8.1,5.7,15.9" fill="none" stroke="#307eef" stroke-miterlimit="10" stroke-width="5"/>
    <path d="m1558.8,518.4c0,.1.1.2.1.2l8.8,24.2,4.7,11.9,4,9.1,3.5,7.2,3.2,5.7,2.9,4.4,2.7,3.4,2.6,2.5,2.3,1.7,2.1,1.1,2,.6,1.8.1,1.8-.2,1.8-.6,2-1,2.1-1.6,2.3-2.2,2.6-3.1,2.9-4.2,3-5.3,3.2-6.3,3.7-8.1,4.1-10.1,5-13.3s2.9-8.1,5.7-15.9" fill="none" stroke="#307eef" stroke-miterlimit="10" stroke-width="5"/>
    <path d="m1639.8,518.4c0-.1.1-.2.1-.2l8.8-24.2,4.7-11.9,4-9.1,3.5-7.1,3.2-5.7,2.9-4.4,2.7-3.4,2.6-2.5,2.3-1.7,2.1-1.1,2-.6,1.8-.1,1.8.2,1.8.6,2,1,2.1,1.6,2.3,2.2,2.6,3.1,2.9,4.2,3,5.3,3.2,6.3,3.7,8.1,4.1,10.1,5,13.3s2.9,8.1,5.7,15.9" fill="none" stroke="#307eef" stroke-miterlimit="10" stroke-width="5"/>
  </g>
  <line x1="64.8" y1="309.6" x2="64.8" y2="7.2" fill="none" stroke="#c9d1d9" stroke-miterlimit="10" stroke-width="3"/>
  <line x1="64.8" y1="158.4" x2="784.8" y2="158.4" fill="none" stroke="#c9d1d9" stroke-miterlimit="10" stroke-width="3"/>
  <line x1="1072.8" y1="878.4" x2="1792.8" y2="878.4" fill="none" stroke="#d85648" stroke-miterlimit="10" stroke-width="5"/>
  <g isolation="isolate">
    <path d="m897.1,172.4l14.2-33.8h4.2l14.2,33.8h-4.5l-11.8-29.3-11.9,29.3h-4.4Zm7.3-11v-3.5h18v3.5h-18Z" fill="#c9d1d9"/>
  </g>
  <g isolation="isolate">
    <path d="m897.1,173.2l14.2-33.8h4.2l14.2,33.8h-4.5l-11.8-29.3-11.9,29.3h-4.4Zm7.3-11.1v-3.5h18v3.5h-18Z" fill="#c9d1d9"/>
  </g>
  <g isolation="isolate">
    <path d="m901.8,533.2v-33.8h12.9c3.3,0,5.9.7,7.9,2s3,3.3,3,5.9c0,1.6-.4,2.9-1.1,4s-1.6,1.9-2.7,2.4-2.3.9-3.5,1.1l.1-.1c2.5.4,4.5,1.4,6.1,2.9s2.4,3.7,2.4,6.4c0,2.2-.5,4-1.6,5.3s-2.4,2.3-4.1,2.9-3.6.9-5.6.9h-13.8v.1Zm4.2-20.1h8.4c1.8,0,3.4-.4,4.7-1.2s2-2.1,2-4c0-1.5-.5-2.7-1.5-3.6s-2.7-1.4-5-1.4h-8.6v10.2Zm0,16.6h9.5c1.8,0,3.3-.3,4.3-.9s1.8-1.4,2.2-2.4.6-2,.6-3.1c0-1.5-.4-2.8-1.1-3.8s-1.7-1.7-3-2.2-2.8-.7-4.5-.7h-8v13.1Z" fill="#c9d1d9"/>
  </g>
  <g isolation="isolate">
    <path d="m854.2,893.2l14.2-33.8h4.2l14.2,33.8h-4.5l-11.8-29.3-11.9,29.3h-4.4Zm7.3-11.1v-3.5h18v3.5h-18Z" fill="#c9d1d9"/>
    <path d="m912.9,889.2v-10.2h-10.1v-3.7h10.1v-10.1h3.7v10.1h10.1v3.7h-10.1v10.1h-3.7v.1Z" fill="#c9d1d9"/>
    <path d="m946,893.2v-33.8h12.9c3.3,0,5.9.7,7.9,2s3,3.3,3,5.9c0,1.6-.4,2.9-1.1,4s-1.6,1.9-2.7,2.4-2.3.9-3.5,1.1l.1-.1c2.5.4,4.5,1.4,6.1,2.9s2.4,3.7,2.4,6.4c0,2.2-.5,4-1.6,5.3s-2.4,2.3-4.1,2.9-3.6.9-5.6.9h-13.8v.1Zm4.2-20.1h8.4c1.8,0,3.4-.4,4.7-1.2s2-2.1,2-4c0-1.5-.5-2.7-1.5-3.6s-2.7-1.4-5-1.4h-8.7v10.2h.1Zm0,16.6h9.5c1.8,0,3.3-.3,4.3-.9s1.8-1.4,2.2-2.4.6-2,.6-3.1c0-1.5-.4-2.8-1.1-3.8s-1.7-1.7-3-2.2-2.8-.7-4.5-.7h-8v13.1Z" fill="#c9d1d9"/>
  </g>
  <line x1="57.6" y1="302.4" x2="72" y2="302.4" fill="none" stroke="#c9d1d9" stroke-miterlimit="10" stroke-width="2"/>
  <line x1="57.6" y1="230.4" x2="72" y2="230.4" fill="none" stroke="#c9d1d9" stroke-miterlimit="10" stroke-width="2"/>
  <line x1="57.6" y1="158.4" x2="72" y2="158.4" fill="none" stroke="#c9d1d9" stroke-miterlimit="10" stroke-width="2"/>
  <line x1="57.6" y1="86.4" x2="72" y2="86.4" fill="none" stroke="#c9d1d9" stroke-miterlimit="10" stroke-width="2"/>
  <line x1="57.6" y1="14.4" x2="72" y2="14.4" fill="none" stroke="#c9d1d9" stroke-miterlimit="10" stroke-width="2"/>
  <g isolation="isolate">
    <path d="m28.3,303h-5.7v-1.8h5.7v1.8Z" fill="#c9d1d9"/>
    <path d="m37.3,309.4h-2.2v-14.4l-4.4,1.6v-2l6.2-2.3h.3v17.1h.1Z" fill="#c9d1d9"/>
  </g>
  <g isolation="isolate">
    <path d="m8.5,231H2.8v-1.8h5.7v1.8Z" fill="#c9d1d9"/>
    <path d="m21.1,230.1c0,2.5-.4,4.4-1.3,5.7s-2.2,1.9-4.1,1.9c-1.8,0-3.2-.6-4-1.8s-1.3-3-1.4-5.4v-2.9c0-2.5.4-4.4,1.3-5.6s2.2-1.8,4.1-1.8c1.8,0,3.2.6,4.1,1.8s1.3,3,1.3,5.4v2.7Zm-2.1-2.9c0-1.8-.3-3.2-.8-4s-1.3-1.3-2.4-1.3-1.9.4-2.4,1.3-.8,2.1-.8,3.9v3.5c0,1.8.3,3.2.8,4.1s1.3,1.3,2.4,1.3,1.9-.4,2.4-1.2.8-2.1.8-3.9v-3.7Z" fill="#c9d1d9"/>
    <path d="m24.2,236.3c0-.4.1-.7.3-.9s.6-.4,1-.4.8.1,1,.4.3.6.3.9c0,.4-.1.7-.3.9s-.6.4-1,.4-.8-.1-1-.4-.3-.6-.3-.9Z" fill="#c9d1d9"/>
    <path d="m31.2,228.9l.9-8.5h8.7v2h-6.9l-.5,4.7c.8-.5,1.8-.7,2.8-.7,1.6,0,2.8.5,3.7,1.5s1.4,2.4,1.4,4.2-.5,3.1-1.4,4.2-2.3,1.5-4,1.5c-1.5,0-2.7-.4-3.7-1.3s-1.5-2-1.6-3.5h2.1c.1,1,.5,1.7,1,2.2s1.3.7,2.2.7c1,0,1.8-.3,2.4-1s.9-1.6.9-2.8c0-1.1-.3-2.1-.9-2.7s-1.4-1-2.5-1c-.9,0-1.7.2-2.2.6l-.6.5-1.8-.6Z" fill="#c9d1d9"/>
  </g>
  <g isolation="isolate">
    <path d="m40.9,158.1c0,2.5-.4,4.4-1.3,5.7s-2.2,1.9-4.1,1.9c-1.8,0-3.2-.6-4-1.8s-1.3-3-1.4-5.4v-2.9c0-2.5.4-4.4,1.3-5.6s2.2-1.8,4.1-1.8c1.8,0,3.2.6,4.1,1.8s1.3,3,1.3,5.4v2.7Zm-2.2-2.9c0-1.8-.3-3.2-.8-4s-1.3-1.3-2.4-1.3-1.9.4-2.4,1.3-.8,2.1-.8,3.9v3.5c0,1.8.3,3.2.8,4.1s1.3,1.3,2.4,1.3,1.9-.4,2.4-1.2.8-2.1.8-3.9v-3.7Z" fill="#c9d1d9"/>
  </g>
  <g isolation="isolate">
    <path d="m37.3,21.4h-2.2V7l-4.4,1.6v-2l6.3-2.3h.3v17.1Z" fill="#c9d1d9"/>
  </g>
  <g isolation="isolate">
    <path d="m21.1,86.1c0,2.5-.4,4.4-1.3,5.7s-2.2,1.9-4.1,1.9c-1.8,0-3.2-.6-4-1.8s-1.3-3-1.4-5.4v-2.9c0-2.5.4-4.4,1.3-5.6s2.2-1.8,4.1-1.8c1.8,0,3.2.6,4.1,1.8s1.3,3,1.3,5.4v2.7Zm-2.1-2.9c0-1.8-.3-3.2-.8-4s-1.3-1.3-2.4-1.3-1.9.4-2.4,1.3-.8,2.1-.8,3.9v3.5c0,1.8.3,3.2.8,4.1s1.3,1.3,2.4,1.3,1.9-.4,2.4-1.2.8-2.1.8-3.9v-3.7Z" fill="#c9d1d9"/>
    <path d="m24.2,92.3c0-.4.1-.7.3-.9s.6-.4,1-.4.8.1,1,.4.3.6.3.9c0,.4-.1.7-.3.9s-.6.4-1,.4-.8-.1-1-.4-.3-.6-.3-.9Z" fill="#c9d1d9"/>
    <path d="m31.2,84.9l.9-8.5h8.7v2h-6.9l-.5,4.6c.8-.5,1.8-.7,2.8-.7,1.6,0,2.8.5,3.7,1.5s1.4,2.4,1.4,4.2-.5,3.1-1.4,4.2-2.3,1.5-4,1.5c-1.5,0-2.7-.4-3.7-1.3s-1.5-2-1.6-3.5h2.1c.1,1,.5,1.7,1,2.2s1.3.7,2.2.7c1,0,1.8-.3,2.4-1s.9-1.6.9-2.8c0-1.1-.3-2.1-.9-2.7s-1.4-1-2.5-1c-.9,0-1.7.2-2.2.6l-.6.4-1.8-.4Z" fill="#c9d1d9"/>
  </g>
  <line x1="64.8" y1="669.6" x2="64.8" y2="367.2" fill="none" stroke="#c9d1d9" stroke-miterlimit="10" stroke-width="3"/>
  <line x1="64.8" y1="518.4" x2="784.8" y2="518.4" fill="none" stroke="#c9d1d9" stroke-miterlimit="10" stroke-width="3"/>
  <line x1="57.6" y1="662.4" x2="72" y2="662.4" fill="none" stroke="#c9d1d9" stroke-miterlimit="10" stroke-width="2"/>
  <line x1="57.6" y1="590.4" x2="72" y2="590.4" fill="none" stroke="#c9d1d9" stroke-miterlimit="10" stroke-width="2"/>
  <line x1="57.6" y1="518.4" x2="72" y2="518.4" fill="none" stroke="#c9d1d9" stroke-miterlimit="10" stroke-width="2"/>
  <line x1="57.6" y1="446.4" x2="72" y2="446.4" fill="none" stroke="#c9d1d9" stroke-miterlimit="10" stroke-width="2"/>
  <line x1="57.6" y1="374.4" x2="72" y2="374.4" fill="none" stroke="#c9d1d9" stroke-miterlimit="10" stroke-width="2"/>
  <g isolation="isolate">
    <path d="m28.3,663h-5.7v-1.8h5.7v1.8Z" fill="#c9d1d9"/>
    <path d="m37.3,669.4h-2.2v-14.4l-4.4,1.6v-2l6.2-2.3h.3v17.1h.1Z" fill="#c9d1d9"/>
  </g>
  <g isolation="isolate">
    <path d="m8.5,591H2.8v-1.8h5.7v1.8Z" fill="#c9d1d9"/>
    <path d="m21.1,590.1c0,2.5-.4,4.4-1.3,5.7s-2.2,1.9-4.1,1.9c-1.8,0-3.2-.6-4-1.8s-1.3-3-1.4-5.4v-2.9c0-2.5.4-4.4,1.3-5.6s2.2-1.8,4.1-1.8c1.8,0,3.2.6,4.1,1.8s1.3,3,1.3,5.4v2.7Zm-2.1-2.9c0-1.8-.3-3.2-.8-4s-1.3-1.3-2.4-1.3-1.9.4-2.4,1.3-.8,2.1-.8,3.9v3.5c0,1.8.3,3.2.8,4.1s1.3,1.3,2.4,1.3,1.9-.4,2.4-1.2.8-2.1.8-3.9v-3.7Z" fill="#c9d1d9"/>
    <path d="m24.2,596.3c0-.4.1-.7.3-.9s.6-.4,1-.4.8.1,1,.4.3.6.3.9c0,.4-.1.7-.3.9s-.6.4-1,.4-.8-.1-1-.4-.3-.6-.3-.9Z" fill="#c9d1d9"/>
    <path d="m31.2,588.9l.9-8.5h8.7v2h-6.9l-.5,4.7c.8-.5,1.8-.7,2.8-.7,1.6,0,2.8.5,3.7,1.5s1.4,2.4,1.4,4.2-.5,3.1-1.4,4.2-2.3,1.5-4,1.5c-1.5,0-2.7-.4-3.7-1.3s-1.5-2-1.6-3.5h2.1c.1,1,.5,1.7,1,2.2s1.3.7,2.2.7c1,0,1.8-.3,2.4-1s.9-1.6.9-2.8c0-1.1-.3-2.1-.9-2.7s-1.4-1-2.5-1c-.9,0-1.7.2-2.2.6l-.6.5-1.8-.6Z" fill="#c9d1d9"/>
  </g>
  <g isolation="isolate">
    <path d="m40.9,518.1c0,2.5-.4,4.4-1.3,5.7s-2.2,1.9-4.1,1.9c-1.8,0-3.2-.6-4-1.8s-1.3-3-1.4-5.4v-2.9c0-2.5.4-4.4,1.3-5.6s2.2-1.8,4.1-1.8c1.8,0,3.2.6,4.1,1.8s1.3,3,1.3,5.4v2.7Zm-2.2-2.9c0-1.8-.3-3.2-.8-4s-1.3-1.3-2.4-1.3-1.9.4-2.4,1.3c-.5.9-.8,2.1-.8,3.9v3.5c0,1.8.3,3.2.8,4.1s1.3,1.3,2.4,1.3,1.9-.4,2.4-1.2.8-2.1.8-3.9v-3.7Z" fill="#c9d1d9"/>
  </g>
  <g isolation="isolate">
    <path d="m37.3,381.4h-2.2v-14.4l-4.4,1.6v-2l6.2-2.3h.3v17.1h.1Z" fill="#c9d1d9"/>
  </g>
  <g isolation="isolate">
    <path d="m21.1,446.1c0,2.5-.4,4.4-1.3,5.7s-2.2,1.9-4.1,1.9c-1.8,0-3.2-.6-4-1.8s-1.3-3-1.4-5.4v-2.9c0-2.5.4-4.4,1.3-5.6s2.2-1.8,4.1-1.8c1.8,0,3.2.6,4.1,1.8s1.3,3,1.3,5.4v2.7Zm-2.1-2.9c0-1.8-.3-3.2-.8-4s-1.3-1.3-2.4-1.3-1.9.4-2.4,1.3-.8,2.1-.8,3.9v3.5c0,1.8.3,3.2.8,4.1s1.3,1.3,2.4,1.3,1.9-.4,2.4-1.2.8-2.1.8-3.9v-3.7Z" fill="#c9d1d9"/>
    <path d="m24.2,452.3c0-.4.1-.7.3-.9s.6-.4,1-.4.8.1,1,.4.3.6.3.9c0,.4-.1.7-.3.9s-.6.4-1,.4-.8-.1-1-.4-.3-.6-.3-.9Z" fill="#c9d1d9"/>
    <path d="m31.2,444.9l.9-8.5h8.7v2h-6.9l-.5,4.7c.8-.5,1.8-.7,2.8-.7,1.6,0,2.8.5,3.7,1.5s1.4,2.4,1.4,4.2-.5,3.1-1.4,4.2-2.3,1.5-4,1.5c-1.5,0-2.7-.4-3.7-1.3s-1.5-2-1.6-3.5h2.1c.1,1,.5,1.7,1,2.2s1.3.7,2.2.7c1,0,1.8-.3,2.4-1s.9-1.6.9-2.8c0-1.1-.3-2.1-.9-2.7s-1.4-1-2.5-1c-.9,0-1.7.2-2.2.6l-.6.5-1.8-.6Z" fill="#c9d1d9"/>
  </g>
  <line x1="64.8" y1="1029.6" x2="64.8" y2="727.2" fill="none" stroke="#c9d1d9" stroke-miterlimit="10" stroke-width="3"/>
  <line x1="64.8" y1="878.4" x2="784.8" y2="878.4" fill="none" stroke="#c9d1d9" stroke-miterlimit="10" stroke-width="3"/>
  <line x1="57.6" y1="1022.4" x2="72" y2="1022.4" fill="none" stroke="#c9d1d9" stroke-miterlimit="10" stroke-width="2"/>
  <line x1="57.6" y1="950.4" x2="72" y2="950.4" fill="none" stroke="#c9d1d9" stroke-miterlimit="10" stroke-width="2"/>
  <line x1="57.6" y1="878.4" x2="72" y2="878.4" fill="none" stroke="#c9d1d9" stroke-miterlimit="10" stroke-width="2"/>
  <line x1="57.6" y1="806.4" x2="72" y2="806.4" fill="none" stroke="#c9d1d9" stroke-miterlimit="10" stroke-width="2"/>
  <line x1="57.6" y1="734.4" x2="72" y2="734.4" fill="none" stroke="#c9d1d9" stroke-miterlimit="10" stroke-width="2"/>
  <g isolation="isolate">
    <path d="m28.3,1023h-5.7v-1.8h5.7v1.8Z" fill="#c9d1d9"/>
    <path d="m37.3,1029.4h-2.2v-14.4l-4.4,1.6v-2l6.2-2.3h.3v17.1h.1Z" fill="#c9d1d9"/>
  </g>
  <g isolation="isolate">
    <path d="m8.5,951H2.8v-1.8h5.7v1.8Z" fill="#c9d1d9"/>
    <path d="m21.1,950.1c0,2.5-.4,4.4-1.3,5.7s-2.2,1.9-4.1,1.9c-1.8,0-3.2-.6-4-1.8s-1.3-3-1.4-5.4v-2.9c0-2.5.4-4.4,1.3-5.6s2.2-1.8,4.1-1.8c1.8,0,3.2.6,4.1,1.8s1.3,3,1.3,5.4v2.7Zm-2.1-2.9c0-1.8-.3-3.2-.8-4s-1.3-1.3-2.4-1.3-1.9.4-2.4,1.3-.8,2.1-.8,3.9v3.5c0,1.8.3,3.2.8,4.1s1.3,1.3,2.4,1.3,1.9-.4,2.4-1.2.8-2.1.8-3.9v-3.7Z" fill="#c9d1d9"/>
    <path d="m24.2,956.3c0-.4.1-.7.3-.9s.6-.4,1-.4.8.1,1,.4.3.6.3.9c0,.4-.1.7-.3.9s-.6.4-1,.4-.8-.1-1-.4-.3-.6-.3-.9Z" fill="#c9d1d9"/>
    <path d="m31.2,948.9l.9-8.5h8.7v2h-6.9l-.5,4.7c.8-.5,1.8-.7,2.8-.7,1.6,0,2.8.5,3.7,1.5s1.4,2.4,1.4,4.2-.5,3.1-1.4,4.2-2.3,1.5-4,1.5c-1.5,0-2.7-.4-3.7-1.3s-1.5-2-1.6-3.5h2.1c.1,1,.5,1.7,1,2.2s1.3.7,2.2.7c1,0,1.8-.3,2.4-1s.9-1.6.9-2.8c0-1.1-.3-2.1-.9-2.7s-1.4-1-2.5-1c-.9,0-1.7.2-2.2.6l-.6.5-1.8-.6Z" fill="#c9d1d9"/>
  </g>
  <g isolation="isolate">
    <path d="m40.9,878.1c0,2.5-.4,4.4-1.3,5.7s-2.2,1.9-4.1,1.9c-1.8,0-3.2-.6-4-1.8s-1.3-3-1.4-5.4v-2.9c0-2.5.4-4.4,1.3-5.6s2.2-1.8,4.1-1.8c1.8,0,3.2.6,4.1,1.8s1.3,3,1.3,5.4v2.7Zm-2.2-2.9c0-1.8-.3-3.2-.8-4s-1.3-1.3-2.4-1.3-1.9.4-2.4,1.3-.8,2.1-.8,3.9v3.5c0,1.8.3,3.2.8,4.1s1.3,1.3,2.4,1.3,1.9-.4,2.4-1.2.8-2.1.8-3.9v-3.7Z" fill="#c9d1d9"/>
  </g>
  <g isolation="isolate">
    <path d="m37.3,741.4h-2.2v-14.4l-4.4,1.6v-2l6.2-2.3h.3v17.1h.1Z" fill="#c9d1d9"/>
  </g>
  <g isolation="isolate">
    <path d="m21.1,806.1c0,2.5-.4,4.4-1.3,5.7s-2.2,1.9-4.1,1.9c-1.8,0-3.2-.6-4-1.8s-1.3-3-1.4-5.4v-2.9c0-2.5.4-4.4,1.3-5.6s2.2-1.8,4.1-1.8c1.8,0,3.2.6,4.1,1.8s1.3,3,1.3,5.4v2.7Zm-2.1-2.9c0-1.8-.3-3.2-.8-4s-1.3-1.3-2.4-1.3-1.9.4-2.4,1.3-.8,2.1-.8,3.9v3.5c0,1.8.3,3.2.8,4.1s1.3,1.3,2.4,1.3,1.9-.4,2.4-1.2.8-2.1.8-3.9v-3.7Z" fill="#c9d1d9"/>
    <path d="m24.2,812.3c0-.4.1-.7.3-.9s.6-.4,1-.4.8.1,1,.4.3.6.3.9c0,.4-.1.7-.3.9s-.6.4-1,.4-.8-.1-1-.4-.3-.6-.3-.9Z" fill="#c9d1d9"/>
    <path d="m31.2,804.9l.9-8.5h8.7v2h-6.9l-.5,4.7c.8-.5,1.8-.7,2.8-.7,1.6,0,2.8.5,3.7,1.5s1.4,2.4,1.4,4.2-.5,3.1-1.4,4.2-2.3,1.5-4,1.5c-1.5,0-2.7-.4-3.7-1.3s-1.5-2-1.6-3.5h2.1c.1,1,.5,1.7,1,2.2s1.3.7,2.2.7c1,0,1.8-.3,2.4-1s.9-1.6.9-2.8c0-1.1-.3-2.1-.9-2.7s-1.4-1-2.5-1c-.9,0-1.7.2-2.2.6l-.6.5-1.8-.6Z" fill="#c9d1d9"/>
  </g>
  <line x1="1072.8" y1="1029.6" x2="1072.8" y2="727.2" fill="none" stroke="#c9d1d9" stroke-miterlimit="10" stroke-width="3"/>
  <line x1="1072.8" y1="878.4" x2="1792.8" y2="878.4" fill="none" stroke="#c9d1d9" stroke-miterlimit="10" stroke-width="3"/>
  <line x1="1065.6" y1="1022.4" x2="1080" y2="1022.4" fill="none" stroke="#c9d1d9" stroke-miterlimit="10" stroke-width="2"/>
  <line x1="1065.6" y1="950.4" x2="1080" y2="950.4" fill="none" stroke="#c9d1d9" stroke-miterlimit="10" stroke-width="2"/>
  <line x1="1065.6" y1="878.4" x2="1080" y2="878.4" fill="none" stroke="#c9d1d9" stroke-miterlimit="10" stroke-width="2"/>
  <line x1="1065.6" y1="806.4" x2="1080" y2="806.4" fill="none" stroke="#c9d1d9" stroke-miterlimit="10" stroke-width="2"/>
  <line x1="1065.6" y1="734.4" x2="1080" y2="734.4" fill="none" stroke="#c9d1d9" stroke-miterlimit="10" stroke-width="2"/>
  <g isolation="isolate">
    <path d="m1036.3,1023h-5.7v-1.8h5.7v1.8Z" fill="#c9d1d9"/>
    <path d="m1045.3,1029.4h-2.2v-14.4l-4.4,1.6v-2l6.2-2.3h.3v17.1h.1Z" fill="#c9d1d9"/>
  </g>
  <g isolation="isolate">
    <path d="m1016.5,951h-5.7v-1.8h5.7v1.8Z" fill="#c9d1d9"/>
    <path d="m1029.1,950.1c0,2.5-.4,4.4-1.3,5.7s-2.2,1.9-4.1,1.9c-1.8,0-3.2-.6-4-1.8s-1.3-3-1.4-5.4v-2.9c0-2.5.4-4.4,1.3-5.6s2.2-1.8,4.1-1.8c1.8,0,3.2.6,4.1,1.8s1.3,3,1.3,5.4v2.7Zm-2.1-2.9c0-1.8-.3-3.2-.8-4s-1.3-1.3-2.4-1.3-1.9.4-2.4,1.3-.8,2.1-.8,3.9v3.5c0,1.8.3,3.2.8,4.1s1.3,1.3,2.4,1.3,1.9-.4,2.4-1.2.8-2.1.8-3.9v-3.7Z" fill="#c9d1d9"/>
    <path d="m1032.2,956.3c0-.4.1-.7.3-.9s.6-.4,1-.4.8.1,1,.4.3.6.3.9c0,.4-.1.7-.3.9s-.6.4-1,.4-.8-.1-1-.4-.3-.6-.3-.9Z" fill="#c9d1d9"/>
    <path d="m1039.2,948.9l.9-8.5h8.7v2h-6.9l-.5,4.7c.8-.5,1.8-.7,2.8-.7,1.6,0,2.8.5,3.7,1.5s1.4,2.4,1.4,4.2-.5,3.1-1.4,4.2-2.3,1.5-4,1.5c-1.5,0-2.7-.4-3.7-1.3s-1.5-2-1.6-3.5h2.1c.1,1,.5,1.7,1,2.2s1.3.7,2.2.7c1,0,1.8-.3,2.4-1s.9-1.6.9-2.8c0-1.1-.3-2.1-.9-2.7s-1.4-1-2.5-1c-.9,0-1.7.2-2.2.6l-.6.5-1.8-.6Z" fill="#c9d1d9"/>
  </g>
  <g isolation="isolate">
    <path d="m1048.9,878.1c0,2.5-.4,4.4-1.3,5.7s-2.2,1.9-4.1,1.9c-1.8,0-3.2-.6-4-1.8s-1.3-3-1.4-5.4v-2.9c0-2.5.4-4.4,1.3-5.6s2.2-1.8,4.1-1.8c1.8,0,3.2.6,4.1,1.8s1.3,3,1.3,5.4v2.7Zm-2.2-2.9c0-1.8-.3-3.2-.8-4s-1.3-1.3-2.4-1.3-1.9.4-2.4,1.3-.8,2.1-.8,3.9v3.5c0,1.8.3,3.2.8,4.1s1.3,1.3,2.4,1.3,1.9-.4,2.4-1.2.8-2.1.8-3.9v-3.7Z" fill="#c9d1d9"/>
  </g>
  <g isolation="isolate">
    <path d="m1045.3,741.4h-2.2v-14.4l-4.4,1.6v-2l6.2-2.3h.3v17.1h.1Z" fill="#c9d1d9"/>
  </g>
  <g isolation="isolate">
    <path d="m1029.1,806.1c0,2.5-.4,4.4-1.3,5.7s-2.2,1.9-4.1,1.9c-1.8,0-3.2-.6-4-1.8s-1.3-3-1.4-5.4v-2.9c0-2.5.4-4.4,1.3-5.6s2.2-1.8,4.1-1.8c1.8,0,3.2.6,4.1,1.8s1.3,3,1.3,5.4v2.7Zm-2.1-2.9c0-1.8-.3-3.2-.8-4s-1.3-1.3-2.4-1.3-1.9.4-2.4,1.3-.8,2.1-.8,3.9v3.5c0,1.8.3,3.2.8,4.1s1.3,1.3,2.4,1.3,1.9-.4,2.4-1.2.8-2.1.8-3.9v-3.7Z" fill="#c9d1d9"/>
    <path d="m1032.2,812.3c0-.4.1-.7.3-.9s.6-.4,1-.4.8.1,1,.4.3.6.3.9c0,.4-.1.7-.3.9s-.6.4-1,.4-.8-.1-1-.4-.3-.6-.3-.9Z" fill="#c9d1d9"/>
    <path d="m1039.2,804.9l.9-8.5h8.7v2h-6.9l-.5,4.7c.8-.5,1.8-.7,2.8-.7,1.6,0,2.8.5,3.7,1.5s1.4,2.4,1.4,4.2-.5,3.1-1.4,4.2-2.3,1.5-4,1.5c-1.5,0-2.7-.4-3.7-1.3s-1.5-2-1.6-3.5h2.1c.1,1,.5,1.7,1,2.2s1.3.7,2.2.7c1,0,1.8-.3,2.4-1s.9-1.6.9-2.8c0-1.1-.3-2.1-.9-2.7s-1.4-1-2.5-1c-.9,0-1.7.2-2.2.6l-.6.5-1.8-.6Z" fill="#c9d1d9"/>
  </g>
  <line x1="1072.8" y1="669.6" x2="1072.8" y2="367.2" fill="none" stroke="#c9d1d9" stroke-miterlimit="10" stroke-width="3"/>
  <line x1="1072.8" y1="518.4" x2="1792.8" y2="518.4" fill="none" stroke="#c9d1d9" stroke-miterlimit="10" stroke-width="3"/>
  <line x1="1065.6" y1="662.4" x2="1080" y2="662.4" fill="none" stroke="#c9d1d9" stroke-miterlimit="10" stroke-width="2"/>
  <line x1="1065.6" y1="590.4" x2="1080" y2="590.4" fill="none" stroke="#c9d1d9" stroke-miterlimit="10" stroke-width="2"/>
  <line x1="1065.6" y1="518.4" x2="1080" y2="518.4" fill="none" stroke="#c9d1d9" stroke-miterlimit="10" stroke-width="2"/>
  <line x1="1065.6" y1="446.4" x2="1080" y2="446.4" fill="none" stroke="#c9d1d9" stroke-miterlimit="10" stroke-width="2"/>
  <line x1="1065.6" y1="374.4" x2="1080" y2="374.4" fill="none" stroke="#c9d1d9" stroke-miterlimit="10" stroke-width="2"/>
  <g isolation="isolate">
    <path d="m1036.3,663h-5.7v-1.8h5.7v1.8Z" fill="#c9d1d9"/>
    <path d="m1045.3,669.4h-2.2v-14.4l-4.4,1.6v-2l6.2-2.3h.3v17.1h.1Z" fill="#c9d1d9"/>
  </g>
  <g isolation="isolate">
    <path d="m1016.5,591h-5.7v-1.8h5.7v1.8Z" fill="#c9d1d9"/>
    <path d="m1029.1,590.1c0,2.5-.4,4.4-1.3,5.7s-2.2,1.9-4.1,1.9c-1.8,0-3.2-.6-4-1.8s-1.3-3-1.4-5.4v-2.9c0-2.5.4-4.4,1.3-5.6s2.2-1.8,4.1-1.8c1.8,0,3.2.6,4.1,1.8s1.3,3,1.3,5.4v2.7Zm-2.1-2.9c0-1.8-.3-3.2-.8-4s-1.3-1.3-2.4-1.3-1.9.4-2.4,1.3-.8,2.1-.8,3.9v3.5c0,1.8.3,3.2.8,4.1s1.3,1.3,2.4,1.3,1.9-.4,2.4-1.2.8-2.1.8-3.9v-3.7Z" fill="#c9d1d9"/>
    <path d="m1032.2,596.3c0-.4.1-.7.3-.9s.6-.4,1-.4.8.1,1,.4.3.6.3.9c0,.4-.1.7-.3.9s-.6.4-1,.4-.8-.1-1-.4-.3-.6-.3-.9Z" fill="#c9d1d9"/>
    <path d="m1039.2,588.9l.9-8.5h8.7v2h-6.9l-.5,4.7c.8-.5,1.8-.7,2.8-.7,1.6,0,2.8.5,3.7,1.5s1.4,2.4,1.4,4.2-.5,3.1-1.4,4.2-2.3,1.5-4,1.5c-1.5,0-2.7-.4-3.7-1.3s-1.5-2-1.6-3.5h2.1c.1,1,.5,1.7,1,2.2s1.3.7,2.2.7c1,0,1.8-.3,2.4-1s.9-1.6.9-2.8c0-1.1-.3-2.1-.9-2.7s-1.4-1-2.5-1c-.9,0-1.7.2-2.2.6l-.6.5-1.8-.6Z" fill="#c9d1d9"/>
  </g>
  <g isolation="isolate">
    <path d="m1048.9,518.1c0,2.5-.4,4.4-1.3,5.7s-2.2,1.9-4.1,1.9c-1.8,0-3.2-.6-4-1.8s-1.3-3-1.4-5.4v-2.9c0-2.5.4-4.4,1.3-5.6s2.2-1.8,4.1-1.8c1.8,0,3.2.6,4.1,1.8s1.3,3,1.3,5.4v2.7Zm-2.2-2.9c0-1.8-.3-3.2-.8-4s-1.3-1.3-2.4-1.3-1.9.4-2.4,1.3c-.5.9-.8,2.1-.8,3.9v3.5c0,1.8.3,3.2.8,4.1s1.3,1.3,2.4,1.3,1.9-.4,2.4-1.2.8-2.1.8-3.9v-3.7Z" fill="#c9d1d9"/>
  </g>
  <g isolation="isolate">
    <path d="m1045.3,381.4h-2.2v-14.4l-4.4,1.6v-2l6.2-2.3h.3v17.1h.1Z" fill="#c9d1d9"/>
  </g>
  <g isolation="isolate">
    <path d="m1029.1,446.1c0,2.5-.4,4.4-1.3,5.7s-2.2,1.9-4.1,1.9c-1.8,0-3.2-.6-4-1.8s-1.3-3-1.4-5.4v-2.9c0-2.5.4-4.4,1.3-5.6s2.2-1.8,4.1-1.8c1.8,0,3.2.6,4.1,1.8s1.3,3,1.3,5.4v2.7Zm-2.1-2.9c0-1.8-.3-3.2-.8-4s-1.3-1.3-2.4-1.3-1.9.4-2.4,1.3-.8,2.1-.8,3.9v3.5c0,1.8.3,3.2.8,4.1s1.3,1.3,2.4,1.3,1.9-.4,2.4-1.2.8-2.1.8-3.9v-3.7Z" fill="#c9d1d9"/>
    <path d="m1032.2,452.3c0-.4.1-.7.3-.9s.6-.4,1-.4.8.1,1,.4.3.6.3.9c0,.4-.1.7-.3.9s-.6.4-1,.4-.8-.1-1-.4-.3-.6-.3-.9Z" fill="#c9d1d9"/>
    <path d="m1039.2,444.9l.9-8.5h8.7v2h-6.9l-.5,4.7c.8-.5,1.8-.7,2.8-.7,1.6,0,2.8.5,3.7,1.5s1.4,2.4,1.4,4.2-.5,3.1-1.4,4.2-2.3,1.5-4,1.5c-1.5,0-2.7-.4-3.7-1.3s-1.5-2-1.6-3.5h2.1c.1,1,.5,1.7,1,2.2s1.3.7,2.2.7c1,0,1.8-.3,2.4-1s.9-1.6.9-2.8c0-1.1-.3-2.1-.9-2.7s-1.4-1-2.5-1c-.9,0-1.7.2-2.2.6l-.6.5-1.8-.6Z" fill="#c9d1d9"/>
  </g>
  <line x1="1072.8" y1="309.6" x2="1072.8" y2="7.2" fill="none" stroke="#c9d1d9" stroke-miterlimit="10" stroke-width="3"/>
  <line x1="1072.8" y1="158.4" x2="1792.8" y2="158.4" fill="none" stroke="#c9d1d9" stroke-miterlimit="10" stroke-width="3"/>
  <line x1="1065.6" y1="302.4" x2="1080" y2="302.4" fill="none" stroke="#c9d1d9" stroke-miterlimit="10" stroke-width="2"/>
  <line x1="1065.6" y1="230.4" x2="1080" y2="230.4" fill="none" stroke="#c9d1d9" stroke-miterlimit="10" stroke-width="2"/>
  <line x1="1065.6" y1="158.4" x2="1080" y2="158.4" fill="none" stroke="#c9d1d9" stroke-miterlimit="10" stroke-width="2"/>
  <line x1="1065.6" y1="86.4" x2="1080" y2="86.4" fill="none" stroke="#c9d1d9" stroke-miterlimit="10" stroke-width="2"/>
  <line x1="1065.6" y1="14.4" x2="1080" y2="14.4" fill="none" stroke="#c9d1d9" stroke-miterlimit="10" stroke-width="2"/>
  <g isolation="isolate">
    <path d="m1036.3,303h-5.7v-1.8h5.7v1.8Z" fill="#c9d1d9"/>
    <path d="m1045.3,309.4h-2.2v-14.4l-4.4,1.6v-2l6.2-2.3h.3v17.1h.1Z" fill="#c9d1d9"/>
  </g>
  <g isolation="isolate">
    <path d="m1016.5,231h-5.7v-1.8h5.7v1.8Z" fill="#c9d1d9"/>
    <path d="m1029.1,230.1c0,2.5-.4,4.4-1.3,5.7s-2.2,1.9-4.1,1.9c-1.8,0-3.2-.6-4-1.8s-1.3-3-1.4-5.4v-2.9c0-2.5.4-4.4,1.3-5.6s2.2-1.8,4.1-1.8c1.8,0,3.2.6,4.1,1.8s1.3,3,1.3,5.4v2.7Zm-2.1-2.9c0-1.8-.3-3.2-.8-4s-1.3-1.3-2.4-1.3-1.9.4-2.4,1.3-.8,2.1-.8,3.9v3.5c0,1.8.3,3.2.8,4.1s1.3,1.3,2.4,1.3,1.9-.4,2.4-1.2.8-2.1.8-3.9v-3.7Z" fill="#c9d1d9"/>
    <path d="m1032.2,236.3c0-.4.1-.7.3-.9s.6-.4,1-.4.8.1,1,.4.3.6.3.9c0,.4-.1.7-.3.9s-.6.4-1,.4-.8-.1-1-.4-.3-.6-.3-.9Z" fill="#c9d1d9"/>
    <path d="m1039.2,228.9l.9-8.5h8.7v2h-6.9l-.5,4.7c.8-.5,1.8-.7,2.8-.7,1.6,0,2.8.5,3.7,1.5s1.4,2.4,1.4,4.2-.5,3.1-1.4,4.2-2.3,1.5-4,1.5c-1.5,0-2.7-.4-3.7-1.3s-1.5-2-1.6-3.5h2.1c.1,1,.5,1.7,1,2.2s1.3.7,2.2.7c1,0,1.8-.3,2.4-1s.9-1.6.9-2.8c0-1.1-.3-2.1-.9-2.7s-1.4-1-2.5-1c-.9,0-1.7.2-2.2.6l-.6.5-1.8-.6Z" fill="#c9d1d9"/>
  </g>
  <g isolation="isolate">
    <path d="m1048.9,158.1c0,2.5-.4,4.4-1.3,5.7s-2.2,1.9-4.1,1.9c-1.8,0-3.2-.6-4-1.8s-1.3-3-1.4-5.4v-2.9c0-2.5.4-4.4,1.3-5.6s2.2-1.8,4.1-1.8c1.8,0,3.2.6,4.1,1.8s1.3,3,1.3,5.4v2.7Zm-2.2-2.9c0-1.8-.3-3.2-.8-4s-1.3-1.3-2.4-1.3-1.9.4-2.4,1.3-.8,2.1-.8,3.9v3.5c0,1.8.3,3.2.8,4.1s1.3,1.3,2.4,1.3,1.9-.4,2.4-1.2.8-2.1.8-3.9v-3.7Z" fill="#c9d1d9"/>
  </g>
  <g isolation="isolate">
    <path d="m1045.3,21.4h-2.2V7l-4.4,1.6v-2l6.2-2.3h.3v17.1h.1Z" fill="#c9d1d9"/>
  </g>
  <g isolation="isolate">
    <path d="m1029.1,86.1c0,2.5-.4,4.4-1.3,5.7s-2.2,1.9-4.1,1.9c-1.8,0-3.2-.6-4-1.8s-1.3-3-1.4-5.4v-2.9c0-2.5.4-4.4,1.3-5.6s2.2-1.8,4.1-1.8c1.8,0,3.2.6,4.1,1.8s1.3,3,1.3,5.4v2.7Zm-2.1-2.9c0-1.8-.3-3.2-.8-4s-1.3-1.3-2.4-1.3-1.9.4-2.4,1.3-.8,2.1-.8,3.9v3.5c0,1.8.3,3.2.8,4.1s1.3,1.3,2.4,1.3,1.9-.4,2.4-1.2.8-2.1.8-3.9v-3.7Z" fill="#c9d1d9"/>
    <path d="m1032.2,92.3c0-.4.1-.7.3-.9s.6-.4,1-.4.8.1,1,.4.3.6.3.9c0,.4-.1.7-.3.9s-.6.4-1,.4-.8-.1-1-.4-.3-.6-.3-.9Z" fill="#c9d1d9"/>
    <path d="m1039.2,84.9l.9-8.5h8.7v2h-6.9l-.5,4.7c.8-.5,1.8-.7,2.8-.7,1.6,0,2.8.5,3.7,1.5s1.4,2.4,1.4,4.2-.5,3.1-1.4,4.2-2.3,1.5-4,1.5c-1.5,0-2.7-.4-3.7-1.3s-1.5-2-1.6-3.5h2.1c.1,1,.5,1.7,1,2.2s1.3.7,2.2.7c1,0,1.8-.3,2.4-1s.9-1.6.9-2.8c0-1.1-.3-2.1-.9-2.7s-1.4-1-2.5-1c-.9,0-1.7.2-2.2.6l-.6.5-1.8-.6Z" fill="#c9d1d9"/>
  </g>
  <line x1="208.8" y1="165.6" x2="208.8" y2="151.2" fill="none" stroke="#c9d1d9" stroke-miterlimit="10" stroke-width="2"/>
  <line x1="352.8" y1="165.6" x2="352.8" y2="151.2" fill="none" stroke="#c9d1d9" stroke-miterlimit="10" stroke-width="2"/>
  <line x1="496.8" y1="165.6" x2="496.8" y2="151.2" fill="none" stroke="#c9d1d9" stroke-miterlimit="10" stroke-width="2"/>
  <line x1="640.8" y1="165.6" x2="640.8" y2="151.2" fill="none" stroke="#c9d1d9" stroke-miterlimit="10" stroke-width="2"/>
  <line x1="208.8" y1="525.6" x2="208.8" y2="511.2" fill="none" stroke="#c9d1d9" stroke-miterlimit="10" stroke-width="2"/>
  <line x1="352.8" y1="525.6" x2="352.8" y2="511.2" fill="none" stroke="#c9d1d9" stroke-miterlimit="10" stroke-width="2"/>
  <line x1="496.8" y1="525.6" x2="496.8" y2="511.2" fill="none" stroke="#c9d1d9" stroke-miterlimit="10" stroke-width="2"/>
  <line x1="640.8" y1="525.6" x2="640.8" y2="511.2" fill="none" stroke="#c9d1d9" stroke-miterlimit="10" stroke-width="2"/>
  <line x1="208.8" y1="885.6" x2="208.8" y2="871.2" fill="none" stroke="#c9d1d9" stroke-miterlimit="10" stroke-width="2"/>
  <line x1="352.8" y1="885.6" x2="352.8" y2="871.2" fill="none" stroke="#c9d1d9" stroke-miterlimit="10" stroke-width="2"/>
  <line x1="496.8" y1="885.6" x2="496.8" y2="871.2" fill="none" stroke="#c9d1d9" stroke-miterlimit="10" stroke-width="2"/>
  <line x1="640.8" y1="885.6" x2="640.8" y2="871.2" fill="none" stroke="#c9d1d9" stroke-miterlimit="10" stroke-width="2"/>
  <line x1="1216.8" y1="885.6" x2="1216.8" y2="871.2" fill="none" stroke="#c9d1d9" stroke-miterlimit="10" stroke-width="2"/>
  <line x1="1360.8" y1="885.6" x2="1360.8" y2="871.2" fill="none" stroke="#c9d1d9" stroke-miterlimit="10" stroke-width="2"/>
  <line x1="1504.8" y1="885.6" x2="1504.8" y2="871.2" fill="none" stroke="#c9d1d9" stroke-miterlimit="10" stroke-width="2"/>
  <line x1="1648.8" y1="885.6" x2="1648.8" y2="871.2" fill="none" stroke="#c9d1d9" stroke-miterlimit="10" stroke-width="2"/>
  <line x1="1216.8" y1="525.6" x2="1216.8" y2="511.2" fill="none" stroke="#c9d1d9" stroke-miterlimit="10" stroke-width="2"/>
  <line x1="1360.8" y1="525.6" x2="1360.8" y2="511.2" fill="none" stroke="#c9d1d9" stroke-miterlimit="10" stroke-width="2"/>
  <line x1="1504.8" y1="525.6" x2="1504.8" y2="511.2" fill="none" stroke="#c9d1d9" stroke-miterlimit="10" stroke-width="2"/>
  <line x1="1648.8" y1="525.6" x2="1648.8" y2="511.2" fill="none" stroke="#c9d1d9" stroke-miterlimit="10" stroke-width="2"/>
  <line x1="1216.8" y1="165.6" x2="1216.8" y2="151.2" fill="none" stroke="#c9d1d9" stroke-miterlimit="10" stroke-width="2"/>
  <line x1="1360.8" y1="165.6" x2="1360.8" y2="151.2" fill="none" stroke="#c9d1d9" stroke-miterlimit="10" stroke-width="2"/>
  <line x1="1504.8" y1="165.6" x2="1504.8" y2="151.2" fill="none" stroke="#c9d1d9" stroke-miterlimit="10" stroke-width="2"/>
  <line x1="1648.8" y1="165.6" x2="1648.8" y2="151.2" fill="none" stroke="#c9d1d9" stroke-miterlimit="10" stroke-width="2"/>
</svg>