<?xml version="1.0" encoding="UTF-8"?>
<svg id="Ebene_1" data-name="Ebene 1" xmlns="http://www.w3.org/2000/svg" width="1296" height="741.6" viewBox="0 0 1296 741.6">
  <g>
    <line x1="72" y1="381.6" x2="1260.4" y2="381.6" fill="none" stroke="#c9d1d9" stroke-linecap="round" stroke-linejoin="round" stroke-width="4"/>
    <polygon points="1254.1 390.9 1288.8 381.6 1254.1 372.3 1254.1 390.9" fill="#c9d1d9"/>
  </g>
  <g>
    <line x1="72" y1="64.2" x2="72" y2="706" fill="none" stroke="#c9d1d9" stroke-linecap="round" stroke-linejoin="round" stroke-width="4"/>
    <polygon points="60.4 72.2 72 28.8 83.6 72.2 60.4 72.2" fill="#c9d1d9"/>
    <polygon points="62.7 699.7 72 734.4 81.3 699.7 62.7 699.7" fill="#c9d1d9"/>
  </g>
  <line x1="216" y1="410.4" x2="216" y2="382.5" fill="none" stroke="#c9d1d9" stroke-miterlimit="10" stroke-width="4"/>
  <line x1="360" y1="676.8" x2="360" y2="50.4" fill="none" stroke="#c9d1d9" stroke-miterlimit="10" stroke-width="3"/>
  <g>
    <line x1="648" y1="72" x2="932.5" y2="72" fill="none" stroke="#c9d1d9" stroke-linecap="round" stroke-linejoin="round" stroke-width="3.61"/>
    <path d="m912.8,85.9c-.4-.7-.2-1.6.5-2l18.6-11.9-18.6-11.9c-.7-.4-.9-1.3-.5-2s1.3-.9,2-.4l20.5,13.1c.4.3.7.7.7,1.2s-.2.9-.7,1.2l-20.5,13.1c-.2.2-.5.2-.8.2-.5.1-.9-.2-1.2-.6h0Z" fill="#c9d1d9"/>
  </g>
  <g>
    <line x1="648" y1="72" x2="363.5" y2="72" fill="none" stroke="#c9d1d9" stroke-linecap="round" stroke-linejoin="round" stroke-width="3.61"/>
    <path d="m383.2,58.1c.4.7.2,1.6-.5,2l-18.6,11.9,18.6,11.9c.7.4.9,1.3.5,2s-1.3.9-2,.4l-20.5-13.1c-.4-.3-.7-.7-.7-1.2s.2-.9.7-1.2l20.5-13.1c.2-.2.5-.2.8-.2.5,0,.9.2,1.2.6h0Z" fill="#c9d1d9"/>
  </g>
  <line x1="360" y1="409.5" x2="360" y2="381.6" fill="none" stroke="#c9d1d9" stroke-miterlimit="10" stroke-width="4"/>
  <line x1="504" y1="409.5" x2="504" y2="381.6" fill="none" stroke="#c9d1d9" stroke-miterlimit="10" stroke-width="4"/>
  <line x1="648" y1="409.5" x2="648" y2="381.6" fill="none" stroke="#c9d1d9" stroke-miterlimit="10" stroke-width="4"/>
  <line x1="792" y1="410.4" x2="792" y2="382.5" fill="none" stroke="#c9d1d9" stroke-miterlimit="10" stroke-width="4"/>
  <line x1="936" y1="409.5" x2="936" y2="381.6" fill="none" stroke="#c9d1d9" stroke-miterlimit="10" stroke-width="4"/>
  <line x1="1080" y1="409.5" x2="1080" y2="381.6" fill="none" stroke="#c9d1d9" stroke-miterlimit="10" stroke-width="4"/>
  <line x1="1224" y1="409.5" x2="1224" y2="381.6" fill="none" stroke="#c9d1d9" stroke-miterlimit="10" stroke-width="4"/>
  <line x1="936" y1="676.8" x2="936" y2="50.4" fill="none" stroke="#c9d1d9" stroke-miterlimit="20" stroke-width="3"/>
  <line x1="50.4" y1="93.6" x2="72" y2="93.6" fill="none" stroke="#c9d1d9" stroke-miterlimit="10" stroke-width="4"/>
  <line x1="50.4" y1="381.6" x2="72" y2="381.6" fill="none" stroke="#c9d1d9" stroke-miterlimit="10" stroke-width="4"/>
  <line x1="50.4" y1="669.6" x2="72" y2="669.6" fill="none" stroke="#c9d1d9" stroke-miterlimit="10" stroke-width="4"/>
  <g isolation="isolate">
    <path d="m182.9,455v-22h-3.9v-3.3h26.9v3.3h-4.6v17.5c0,.5.1.9.2,1s.5.3.9.3h3.4v3.3h-4.8c-1,0-1.9-.3-2.6-1s-1.1-1.5-1.1-2.5v-18.6h-10.5v22h-3.9Z" fill="#c9d1d9"/>
    <path d="m207.9,461.1l15.3-43.3h3.9l-15.3,43.3h-3.9Z" fill="#c9d1d9"/>
    <path d="m228.6,455v-2.8l11.9-10.1c1.6-1.4,2.9-2.6,3.9-3.8s1.8-2.3,2.3-3.4.7-2.4.7-3.9-.3-2.8-.8-3.9-1.3-1.8-2.3-2.4-2.3-.8-3.7-.8c-1.7,0-3.1.3-4.1,1s-1.8,1.6-2.3,2.7-.8,2.4-.9,3.8l-4.5-1.4c.1-1.5.6-3,1.6-4.4s2.4-2.7,4.1-3.6,3.8-1.4,6.1-1.4c1.3,0,2.6.2,4,.6s2.6,1,3.7,1.8,2,1.9,2.7,3.2,1,2.9,1,4.8c0,2.7-.7,5.1-2.2,7.2s-3.5,4.2-6.1,6.3l-9.2,7.4-3-.6h21.1v3.6l-24,.1h0Z" fill="#c9d1d9"/>
  </g>
  <g isolation="isolate">
    <path d="m1034.7,455c1.2-5.8,3-11.2,5.4-16s5.3-9.6,8.8-14.1h-18.8v-3.6h22.9v3.2c-1.6,2.4-3.1,4.8-4.5,7.2s-2.7,4.9-3.9,7.3-2.2,5.1-3,7.7-1.5,5.4-2,8.3h-4.9Z" fill="#c9d1d9"/>
    <path d="m1059.7,455v-22h-3.9v-3.3h26.9v3.3h-4.6v17.5c0,.5.1.9.2,1s.5.3.9.3h3.4v3.3h-4.8c-1,0-1.9-.3-2.6-1s-1.1-1.5-1.1-2.5v-18.6h-10.5v22h-3.9Z" fill="#c9d1d9"/>
    <path d="m1084.6,461.1l15.3-43.3h3.9l-15.3,43.3h-3.9Z" fill="#c9d1d9"/>
    <path d="m1105.3,455v-2.8l11.9-10.1c1.6-1.4,2.9-2.6,3.9-3.8s1.8-2.3,2.3-3.4.7-2.4.7-3.9-.3-2.8-.8-3.9-1.3-1.8-2.3-2.4-2.3-.8-3.7-.8c-1.7,0-3.1.3-4.1,1s-1.8,1.6-2.3,2.7-.8,2.4-.9,3.8l-4.5-1.4c.1-1.5.6-3,1.6-4.4s2.4-2.7,4.1-3.6,3.8-1.4,6.1-1.4c1.3,0,2.6.2,4,.6s2.6,1,3.7,1.8,2,1.9,2.7,3.2,1,2.9,1,4.8c0,2.7-.7,5.1-2.2,7.2s-3.5,4.2-6.1,6.3l-9.2,7.4-3-.6h21.1v3.6l-24,.1h0Z" fill="#c9d1d9"/>
  </g>
  <g isolation="isolate">
    <path d="m350.2,455v-22h-3.9v-3.3h26.9v3.3h-4.6v17.5c0,.5.1.9.2,1s.5.3.9.3h3.4v3.3h-4.8c-1,0-1.9-.3-2.6-1s-1.1-1.5-1.1-2.5v-18.6h-10.5v22h-3.9Z" fill="#c9d1d9"/>
  </g>
  <g isolation="isolate">
    <path d="m465.7,455.6c-2.1,0-4-.4-5.8-1.2s-3.2-2-4.4-3.6-1.8-3.5-2-5.7l4.3-1.3c.2,2.5.9,4.6,2.3,6.1s3.2,2.3,5.6,2.3c2.1,0,3.9-.6,5.3-1.8s2.1-3,2.1-5.3c0-.9-.2-1.9-.6-2.9s-1.1-1.9-2.1-2.6-2.4-1.1-4.2-1.1h-4.6v-3.6h4.3c2,0,3.5-.5,4.6-1.6s1.6-2.2,1.6-3.6c0-1.6-.5-2.9-1.6-4s-2.6-1.7-4.6-1.7c-2.5,0-4.3.7-5.4,2.1s-1.8,3.4-2,5.9l-4.3-1.3c.1-1.6.6-3.2,1.6-4.7s2.3-2.8,4.1-3.8,3.8-1.5,6.1-1.5c1.9,0,3.7.4,5.2,1.1s2.8,1.8,3.7,3.1,1.4,2.8,1.4,4.5c0,1.1-.2,2.2-.7,3.1s-1.2,1.8-2.1,2.4-2.1,1.2-3.6,1.5c2.4.4,4.2,1.4,5.6,3s2.1,3.4,2.1,5.5c0,1.9-.3,3.5-1,4.8s-1.6,2.4-2.7,3.3-2.4,1.5-3.8,1.9-3,.7-4.4.7Z" fill="#c9d1d9"/>
    <path d="m484.7,455v-22h-3.9v-3.3h26.9v3.3h-4.6v17.5c0,.5.1.9.2,1s.5.3.9.3h3.4v3.3h-4.8c-1,0-1.9-.3-2.6-1s-1.1-1.5-1.1-2.5v-18.6h-10.5v22h-3.9Z" fill="#c9d1d9"/>
    <path d="m509.7,461.1l15.3-43.3h3.9l-15.3,43.3h-3.9Z" fill="#c9d1d9"/>
    <path d="m530.4,455v-2.8l11.9-10.1c1.6-1.4,2.9-2.6,3.9-3.8s1.8-2.3,2.3-3.4.7-2.4.7-3.9-.3-2.8-.8-3.9-1.3-1.8-2.3-2.4-2.3-.8-3.7-.8c-1.7,0-3.1.3-4.1,1s-1.8,1.6-2.3,2.7-.8,2.4-.9,3.8l-4.5-1.4c.1-1.5.6-3,1.6-4.4s2.4-2.7,4.1-3.6,3.8-1.4,6.1-1.4c1.3,0,2.6.2,4,.6s2.6,1,3.7,1.8,2,1.9,2.7,3.2,1,2.9,1,4.8c0,2.7-.7,5.1-2.2,7.2s-3.5,4.2-6.1,6.3l-9.2,7.4-3-.6h21.1v3.6l-24,.1h0Z" fill="#c9d1d9"/>
  </g>
  <g isolation="isolate">
    <path d="m620.8,455v-2.8l11.9-10.1c1.6-1.4,2.9-2.6,3.9-3.8s1.8-2.3,2.3-3.4.7-2.4.7-3.9-.3-2.8-.8-3.9-1.3-1.8-2.3-2.4-2.3-.8-3.7-.8c-1.7,0-3.1.3-4.1,1s-1.8,1.6-2.3,2.7-.8,2.4-.9,3.8l-4.5-1.4c.1-1.5.6-3,1.6-4.4s2.4-2.7,4.1-3.6,3.8-1.4,6.1-1.4c1.3,0,2.6.2,4,.6s2.6,1,3.7,1.8,2,1.9,2.7,3.2,1,2.9,1,4.8c0,2.7-.7,5.1-2.2,7.2s-3.5,4.2-6.1,6.3l-9.2,7.4-3-.6h21.1v3.6l-24,.1h0Z" fill="#c9d1d9"/>
    <path d="m651.9,455v-22h-3.9v-3.3h26.9v3.3h-4.6v17.5c0,.5.1.9.2,1s.5.3.9.3h3.4v3.3h-4.8c-1,0-1.9-.3-2.6-1s-1.1-1.5-1.1-2.5v-18.6h-10.5v22h-3.9Z" fill="#c9d1d9"/>
  </g>
  <g isolation="isolate">
    <path d="m753.8,455.6c-2,0-3.8-.4-5.6-1.2s-3.3-2-4.5-3.5-1.9-3.5-2.1-5.7l4.3-1.3c.2,2.4.9,4.4,2.2,6s3.1,2.4,5.6,2.4c1.5,0,2.8-.4,4-1.1s2.1-1.7,2.7-3,1-2.8,1-4.4c0-2.5-.7-4.4-2.2-5.8s-3.2-2-5.4-2c-1.9,0-3.4.5-4.4,1.4s-1.9,2-2.4,3.2l-4.1-.4,1.4-18.8h19.3v3.6h-15.8l-.9,12.8-1.1-.1c.8-1.4,2-2.6,3.5-3.6s3.3-1.5,5.5-1.5c2.1,0,3.9.5,5.6,1.4s2.9,2.2,3.9,3.9,1.4,3.6,1.4,5.8c0,2.4-.5,4.6-1.6,6.4s-2.5,3.2-4.3,4.2-3.9,1.3-6,1.3Z" fill="#c9d1d9"/>
    <path d="m772.8,455v-22h-3.9v-3.3h26.9v3.3h-4.6v17.5c0,.5.1.9.2,1s.5.3.9.3h3.4v3.3h-4.7c-1,0-1.9-.3-2.6-1s-1.1-1.5-1.1-2.5v-18.6h-10.5v22h-4Z" fill="#c9d1d9"/>
    <path d="m797.8,461.1l15.3-43.3h3.9l-15.3,43.3h-3.9Z" fill="#c9d1d9"/>
    <path d="m818.5,455v-2.8l11.9-10.1c1.6-1.4,2.9-2.6,3.9-3.8s1.8-2.3,2.3-3.4.7-2.4.7-3.9-.3-2.8-.8-3.9-1.3-1.8-2.3-2.4-2.3-.8-3.7-.8c-1.7,0-3.1.3-4.1,1s-1.8,1.6-2.3,2.7-.8,2.4-.9,3.8l-4.5-1.4c.1-1.5.6-3,1.6-4.4s2.4-2.7,4.1-3.6,3.8-1.4,6.1-1.4c1.3,0,2.6.2,4,.6s2.6,1,3.7,1.8,2,1.9,2.7,3.2,1,2.9,1,4.8c0,2.7-.7,5.1-2.2,7.2s-3.5,4.2-6.1,6.3l-9.2,7.4-3-.6h21.1v3.6l-24,.1h0Z" fill="#c9d1d9"/>
  </g>
  <g isolation="isolate">
    <path d="m921,455.6c-2.1,0-4-.4-5.8-1.2s-3.2-2-4.4-3.6-1.8-3.5-2-5.7l4.3-1.3c.2,2.5.9,4.6,2.3,6.1s3.2,2.3,5.6,2.3c2.1,0,3.9-.6,5.3-1.8s2.1-3,2.1-5.3c0-.9-.2-1.9-.6-2.9s-1.1-1.9-2.1-2.6-2.4-1.1-4.2-1.1h-4.6v-3.6h4.3c2,0,3.5-.5,4.6-1.6s1.6-2.2,1.6-3.6c0-1.6-.5-2.9-1.6-4s-2.6-1.7-4.6-1.7c-2.5,0-4.3.7-5.4,2.1s-1.8,3.4-2,5.9l-4.3-1.3c.1-1.6.6-3.2,1.6-4.7s2.3-2.8,4.1-3.8,3.8-1.5,6.1-1.5c1.9,0,3.7.4,5.2,1.1s2.8,1.8,3.7,3.1,1.4,2.8,1.4,4.5c0,1.1-.2,2.2-.7,3.1s-1.2,1.8-2.1,2.4-2.1,1.2-3.6,1.5c2.4.4,4.2,1.4,5.6,3s2.1,3.4,2.1,5.5c0,1.9-.3,3.5-1,4.8s-1.6,2.4-2.7,3.3-2.4,1.5-3.8,1.9-3,.7-4.4.7Z" fill="#c9d1d9"/>
    <path d="m940,455v-22h-3.9v-3.3h26.9v3.3h-4.6v17.5c0,.5.1.9.2,1s.5.3.9.3h3.4v3.3h-4.8c-1,0-1.9-.3-2.6-1s-1.1-1.5-1.1-2.5v-18.6h-10.4v22h-4Z" fill="#c9d1d9"/>
  </g>
  <g isolation="isolate">
    <path d="m518,43.2v-26.9c-1.2,1.1-2.4,2-3.5,2.7s-2.3,1.3-3.6,1.8v-4c.7-.3,1.4-.7,2.2-1.2s1.6-1.2,2.6-2.2,2.1-2.3,3.4-4h3v33.8s-4.1,0-4.1,0Z" fill="#c9d1d9"/>
  </g>
  <g isolation="isolate">
    <path d="m552.1,43.2V9.5h12.2c3.9,0,6.9.8,8.8,2.4s3,3.9,3,7c0,3-1,5.3-2.9,6.9s-4.9,2.5-8.9,2.5h-7.9v15l-4.3-.1h0Zm4.3-18.4h7.9c2.4,0,4.3-.5,5.6-1.6s1.9-2.5,1.9-4.3c0-1.6-.6-3-1.7-4.2s-3.1-1.8-5.8-1.8h-7.9v11.9Z" fill="#c9d1d9"/>
  </g>
  <g isolation="isolate">
    <path d="m592.3,43.8c-2.4,0-4.5-.5-6.2-1.6s-3.1-2.6-4.1-4.6-1.4-4.3-1.4-7,.5-5,1.4-7,2.3-3.5,4-4.6,3.8-1.6,6.1-1.6c1.3,0,2.7.2,4,.6s2.6,1.2,3.7,2.2,2,2.5,2.7,4.3,1,4.2,1,6.9h-20.5v-3.2h17.1l-1.1,1.5c-.1-2.2-.4-4-1.1-5.3s-1.5-2.3-2.5-2.9-2.2-.9-3.4-.9c-1.5,0-2.8.4-3.8,1.2s-1.9,1.9-2.5,3.4-.9,3.3-.9,5.4c0,3.2.6,5.6,1.9,7.3s3.1,2.6,5.5,2.6c1.7,0,3.1-.4,4.3-1.3s2-2.1,2.6-3.7l3.9,1.3c-.6,1.5-1.4,2.7-2.4,3.8s-2.2,1.8-3.6,2.4-2.9.8-4.7.8Z" fill="#c9d1d9"/>
    <path d="m609.6,43.2v-25.3h3.7v5.4l-.1-.6c.8-1.8,1.9-3.1,3.4-4s3-1.3,4.6-1.3c.5,0,.9,0,1.3.1s.8.2,1.2.4l-.5,3.7c-.9-.3-1.7-.4-2.6-.4-.5,0-1.2.1-2,.3s-1.6.6-2.3,1.3-1.4,1.6-1.9,2.8-.8,2.9-.8,5v12.7l-4-.1h0Z" fill="#c9d1d9"/>
    <path d="m630.4,13.6c-.9,0-1.7-.3-2.3-1s-1-1.4-1-2.3.3-1.7,1-2.3,1.4-.9,2.3-.9,1.7.3,2.3.9c.6.6.9,1.4.9,2.3s-.3,1.7-.9,2.3-1.4,1-2.3,1Zm-2,29.6v-25.3h3.9v25.3s-3.9,0-3.9,0Z" fill="#c9d1d9"/>
    <path d="m650.3,43.8c-2.4,0-4.5-.6-6.3-1.7s-3.2-2.7-4.2-4.7-1.5-4.3-1.5-6.9.5-4.9,1.5-6.9,2.4-3.5,4.2-4.7,3.9-1.7,6.3-1.7,4.5.6,6.3,1.7,3.2,2.7,4.2,4.7,1.5,4.3,1.5,6.9-.5,4.9-1.5,6.9-2.4,3.5-4.2,4.7-3.9,1.7-6.3,1.7Zm0-3.3c2.4,0,4.3-.9,5.7-2.7s2.1-4.2,2.1-7.3-.7-5.5-2.1-7.3-3.3-2.7-5.7-2.7-4.3.9-5.7,2.7-2.1,4.2-2.1,7.3.7,5.5,2.1,7.3,3.3,2.7,5.7,2.7Z" fill="#c9d1d9"/>
    <path d="m678.3,43.8c-2,0-3.9-.5-5.4-1.6s-2.8-2.6-3.7-4.6-1.3-4.3-1.3-7,.4-5,1.3-7,2.1-3.5,3.7-4.6,3.4-1.6,5.4-1.6c1.7,0,3.3.4,4.9,1.2s2.9,2.2,3.7,4.2l-.4.2v-15h3.9v35.2h-3.7v-5.3l.1.4c-.7,1.8-1.8,3.2-3.4,4.1s-3.3,1.4-5.1,1.4Zm1-3.3c1.3,0,2.5-.3,3.6-1s2-1.8,2.6-3.2,1-3.3,1-5.6c0-3.4-.7-5.9-2.1-7.6s-3.1-2.4-5.1-2.4c-2.1,0-3.8.9-5.2,2.6s-2,4.2-2,7.4c0,3.1.6,5.6,1.9,7.3s3.1,2.5,5.3,2.5Z" fill="#c9d1d9"/>
    <path d="m715.9,51.1c-2.4-3.1-4.3-6.5-5.5-10.1s-1.9-7.4-1.9-11.4c0-3.9.6-7.7,1.9-11.4s3.1-7,5.5-10.2h4.2c-2.7,3.6-4.7,7.1-5.9,10.5s-1.9,7.1-1.9,11.1.6,7.7,1.8,11.1,3.2,6.9,6,10.4h-4.2Z" fill="#c9d1d9"/>
    <path d="m721.6,43.2v-2.8l11.9-10.1c1.6-1.4,2.9-2.6,3.9-3.8s1.8-2.3,2.3-3.4.7-2.4.7-3.9-.3-2.8-.8-3.9-1.3-1.8-2.3-2.4-2.3-.8-3.7-.8c-1.7,0-3.1.3-4.1,1s-1.8,1.6-2.3,2.7c-.5,1.1-.8,2.4-.9,3.8l-4.5-1.4c.1-1.5.6-3,1.6-4.4s2.4-2.7,4.1-3.6,3.8-1.4,6.1-1.4c1.3,0,2.6.2,4,.6s2.6,1,3.7,1.8,2,1.9,2.7,3.2,1,2.9,1,4.8c0,2.7-.7,5.1-2.2,7.2s-3.5,4.2-6.1,6.3l-9.2,7.4-3-.6h21.1v3.6l-24,.1h0Z" fill="#c9d1d9"/>
    <path d="m752.8,43.2v-22h-3.9v-3.3h26.9v3.3h-4.6v17.5c0,.5.1.9.2,1s.5.3.9.3h3.4v3.3h-4.8c-1,0-1.9-.3-2.6-1s-1.1-1.5-1.1-2.5v-18.6h-10.5v22h-3.9Z" fill="#c9d1d9"/>
    <path d="m776.4,51.1c2.8-3.5,4.8-7,6-10.4s1.8-7.1,1.8-11.1c0-3.9-.6-7.6-1.9-11.1s-3.2-6.9-5.9-10.5h4.2c2.4,3.1,4.2,6.5,5.5,10.2s1.9,7.5,1.9,11.4c0,4-.6,7.8-1.9,11.4s-3.1,7-5.5,10.1h-4.2Z" fill="#c9d1d9"/>
  </g>
  <g isolation="isolate">
    <path d="m23.8,108.4v-26.9c-1.2,1.1-2.4,2-3.5,2.7s-2.3,1.3-3.6,1.8v-4c.7-.3,1.4-.7,2.2-1.2s1.6-1.2,2.6-2.2,2.1-2.3,3.4-4h3v33.8s-4.1,0-4.1,0Z" fill="#c9d1d9"/>
  </g>
  <g isolation="isolate">
    <path d="m30,396.9c-3.9,0-6.9-1.5-9.1-4.6s-3.2-7.3-3.2-12.9,1.1-9.8,3.2-12.9,5.2-4.6,9.1-4.6,7,1.5,9.1,4.6,3.2,7.3,3.2,12.9-1.1,9.8-3.2,12.9-5.2,4.6-9.1,4.6Zm0-3.4c2.6,0,4.6-1.2,5.9-3.6s2-5.9,2-10.5-.7-8.1-2-10.5-3.3-3.6-5.9-3.6-4.6,1.2-5.9,3.6-2,5.9-2,10.5.7,8.1,2,10.5,3.3,3.6,5.9,3.6Z" fill="#c9d1d9"/>
  </g>
  <g isolation="isolate">
    <path d="m5.9,671.4v-3.7h15.7v3.7H5.9Z" fill="#c9d1d9"/>
    <path d="m30.5,684.4v-26.9c-1.2,1.1-2.4,2-3.5,2.7s-2.3,1.3-3.6,1.8v-4c.7-.3,1.4-.7,2.2-1.2s1.6-1.2,2.6-2.2,2.1-2.3,3.4-4h3v33.8h-4.1Z" fill="#c9d1d9"/>
  </g>
  <g isolation="isolate">
    <path d="m1213.8,455v-11.2h0v-20l1,2.2-15,17.8-1.4-1.2h23.3v3.6h-25.2v-4l17.8-21h3.5v33.8h-4Z" fill="#c9d1d9"/>
    <path d="m1227.9,455v-22h-3.9v-3.3h26.9v3.3h-4.6v17.5c0,.5.1.9.2,1s.5.3.9.3h3.4v3.3h-4.8c-1,0-1.9-.3-2.6-1s-1.1-1.5-1.1-2.5v-18.6h-10.5v22h-3.9Z" fill="#c9d1d9"/>
  </g>
  <g>
    <path d="m215.2,94.5c-52.3,0-98.5,144-144.2,288" fill="none" stroke="#d85648" stroke-linecap="round" stroke-width="2.835"/>
    <path d="m359.5,382.5c-45.7-144-91.9-288-144.2-288" fill="none" stroke="#d85648" stroke-linecap="round" stroke-width="2.835"/>
    <path d="m503.8,670.5c52.3,0,98.5-144,144.2-288" fill="none" stroke="#d85648" stroke-linecap="round" stroke-width="2.835"/>
    <path d="m359.5,382.5c45.7,144,91.9,288,144.2,288" fill="none" stroke="#d85648" stroke-linecap="round" stroke-width="2.835"/>
  </g>
  <g>
    <path d="m791.8,94.5c-52.3,0-98.5,144-144.2,288" fill="none" stroke="#d85648" stroke-linecap="round" stroke-width="2.835"/>
    <path d="m936.1,382.5c-45.7-144-91.9-288-144.2-288" fill="none" stroke="#d85648" stroke-linecap="round" stroke-width="2.835"/>
    <path d="m1080.3,670.5c52.3,0,98.5-144,144.2-288" fill="none" stroke="#d85648" stroke-linecap="round" stroke-width="2.835"/>
    <path d="m936.1,382.5c45.7,144,91.9,288,144.2,288" fill="none" stroke="#d85648" stroke-linecap="round" stroke-width="2.835"/>
  </g>
</svg>