<?xml version="1.0" encoding="UTF-8"?>
<svg id="Ebene_1" data-name="Ebene 1" xmlns="http://www.w3.org/2000/svg" width="1850.4" height="651.6" viewBox="0 0 1850.4 651.6">
  <g>
    <line x1="50.4" y1="327.6" x2="1810.2" y2="327.6" fill="none" stroke="#c9d1d9" stroke-linecap="round" stroke-linejoin="round" stroke-width="5.67"/>
    <polygon points="1801.2 340.8 1850.4 327.6 1801.2 314.4 1801.2 340.8" fill="#c9d1d9"/>
  </g>
  <g>
    <line x1="50.4" y1="53.8" x2="50.4" y2="611.4" fill="none" stroke="#c9d1d9" stroke-linecap="round" stroke-linejoin="round" stroke-width="5.67"/>
    <polygon points="33.9 65.1 50.4 3.6 66.9 65.1 33.9 65.1" fill="#c9d1d9"/>
    <polygon points="37.2 602.4 50.4 651.6 63.6 602.4 37.2 602.4" fill="#c9d1d9"/>
  </g>
  <line x1="230.4" y1="338.4" x2="230.4" y2="327.6" fill="none" stroke="#c9d1d9" stroke-miterlimit="10" stroke-width="5.67"/>
  <g>
    <line x1="1346.4" y1="118.8" x2="1450.2" y2="118.8" fill="none" stroke="#c9d1d9" stroke-linecap="round" stroke-linejoin="round" stroke-width="5.67"/>
    <polygon points="1441.2 132 1490.4 118.8 1441.2 105.6 1441.2 132" fill="#c9d1d9"/>
  </g>
  <line x1="410.4" y1="338.4" x2="410.4" y2="327.6" fill="none" stroke="#c9d1d9" stroke-miterlimit="10" stroke-width="5.67"/>
  <line x1="590.4" y1="338.4" x2="590.4" y2="327.6" fill="none" stroke="#c9d1d9" stroke-miterlimit="10" stroke-width="5.67"/>
  <line x1="770.4" y1="338.4" x2="770.4" y2="327.6" fill="none" stroke="#c9d1d9" stroke-miterlimit="10" stroke-width="5.67"/>
  <line x1="950.4" y1="338.4" x2="950.4" y2="327.6" fill="none" stroke="#c9d1d9" stroke-miterlimit="10" stroke-width="5.67"/>
  <line x1="1130.4" y1="338.4" x2="1130.4" y2="327.6" fill="none" stroke="#c9d1d9" stroke-miterlimit="10" stroke-width="5.67"/>
  <line x1="1310.4" y1="338.4" x2="1310.4" y2="327.6" fill="none" stroke="#c9d1d9" stroke-miterlimit="10" stroke-width="5.67"/>
  <line x1="1490.4" y1="338.4" x2="1490.4" y2="327.6" fill="none" stroke="#c9d1d9" stroke-miterlimit="10" stroke-width="5.67"/>
  <line x1="1670.4" y1="338.4" x2="1670.4" y2="327.6" fill="none" stroke="#c9d1d9" stroke-miterlimit="10" stroke-width="5.67"/>
  <g>
    <line x1="1814.4" y1="118.8" x2="1710.6" y2="118.8" fill="none" stroke="#c9d1d9" stroke-linecap="round" stroke-linejoin="round" stroke-width="5.67"/>
    <polygon points="1719.6 105.6 1670.4 118.8 1719.6 132 1719.6 105.6" fill="#c9d1d9"/>
  </g>
  <g>
    <line x1="1490.4" y1="327.6" x2="1490.4" y2="321.6" fill="none" stroke="#c9d1d9" stroke-miterlimit="10" stroke-width="5.67"/>
    <line x1="1490.4" y1="310" x2="1490.4" y2="130.6" fill="none" stroke="#c9d1d9" stroke-dasharray="0 0 0 0 0 0 11.58 11.58" stroke-miterlimit="10" stroke-width="5.67"/>
    <line x1="1490.4" y1="124.8" x2="1490.4" y2="118.8" fill="none" stroke="#c9d1d9" stroke-miterlimit="10" stroke-width="5.67"/>
  </g>
  <g>
    <line x1="1670.4" y1="327.6" x2="1670.4" y2="321.6" fill="none" stroke="#c9d1d9" stroke-miterlimit="10" stroke-width="5.67"/>
    <line x1="1670.4" y1="310" x2="1670.4" y2="130.6" fill="none" stroke="#c9d1d9" stroke-dasharray="0 0 0 0 0 0 11.58 11.58" stroke-miterlimit="10" stroke-width="5.67"/>
    <line x1="1670.4" y1="124.8" x2="1670.4" y2="118.8" fill="none" stroke="#c9d1d9" stroke-miterlimit="10" stroke-width="5.67"/>
  </g>
  <g isolation="isolate">
    <path d="m37.4,441.2l-33.8-14.2v-4.2l33.8-14.2v4.5l-29.4,11.8,29.3,11.9v4.4h.1Zm-11.1-7.3h-3.5v-18h3.5v18Z" fill="#c9d1d9"/>
    <path d="m37.4,404.3H12.1v-3.7h4.3c-1.3-.6-2.5-1.6-3.4-3s-1.5-3-1.5-4.9c0-1.7.5-3.1,1.4-4.4s2.2-2.2,3.9-2.8c-1.5-.8-2.8-1.9-3.8-3.3s-1.5-3-1.5-4.8c0-2.4.9-4.3,2.6-5.8s4.2-2.1,7.3-2.1h15.9v3.9h-15.5c-1.4,0-2.7.1-3.7.4s-1.8.8-2.4,1.5-.8,1.6-.8,2.8c0,1.3.4,2.4,1.1,3.5.7,1.1,1.8,1.8,3.2,2.4s3.1.9,5.1.9h13.2v3.9h-15.7c-1.4,0-2.7.1-3.7.4s-1.8.8-2.4,1.5-.8,1.6-.8,2.7c0,1.3.4,2.4,1.1,3.5.7,1.1,1.8,1.8,3.2,2.4s3.1.9,5.1.9h13.2l-.1,4.1h0Z" fill="#c9d1d9"/>
    <path d="m46.5,362.4H12.1v-3.7h5.3l-.4.1c-1.8-.7-3.2-1.8-4.1-3.4s-1.3-3.3-1.3-5.1c0-2.1.5-3.9,1.6-5.4s2.6-2.8,4.6-3.7,4.3-1.3,7-1.3,5,.4,7,1.3c2,.9,3.5,2.1,4.6,3.7s1.6,3.4,1.6,5.4c0,1.7-.4,3.3-1.2,4.9s-2.2,2.9-4.2,3.7l-.2-.4h14.2l-.1,3.9h0Zm-11.8-11c0-2.1-.9-3.8-2.6-5.2s-4.2-2-7.4-2c-3.1,0-5.6.6-7.3,1.9s-2.6,3-2.6,5.2c0,1.3.3,2.5,1,3.6.7,1.1,1.8,2,3.2,2.6s3.3,1,5.6,1c3.4,0,5.9-.7,7.5-2.1,1.6-1.4,2.6-3.1,2.6-5Z" fill="#c9d1d9"/>
    <path d="m37.4,330.3c0,1-.3,1.9-1,2.6s-1.5,1.1-2.5,1.1H2.2v-3.9h30.6c.5,0,.9-.1,1-.2s.3-.5.3-.9v-2.5h3.3s0,3.8,0,3.8Z" fill="#c9d1d9"/>
    <path d="m7.8,319.3c0,.9-.3,1.7-1,2.3s-1.4,1-2.3,1-1.7-.3-2.3-1-.9-1.4-.9-2.3.3-1.7.9-2.3,1.4-.9,2.3-.9,1.7.3,2.3.9,1,1.4,1,2.3Zm29.6,1.9H12.1v-3.9h25.3v3.9Z" fill="#c9d1d9"/>
    <path d="m37.4,304c0,1-.3,1.9-1,2.6s-1.5,1.1-2.5,1.1H15.4v4.1h-3.3v-4.1h-5.3l-.8-3.9h6.1v-5h3.3v5h17.5c.5,0,.9-.1,1-.2s.3-.5.3-.9v-3.9h3.3l-.1,5.2h0Z" fill="#c9d1d9"/>
    <path d="m38,285.1c0,1.8-.4,3.3-1.2,4.6s-1.9,2.3-3.4,3-3.3,1.1-5.3,1.1H12.1v-3.9h15.6c2.1,0,3.7-.4,5-1.2,1.3-.8,1.9-2.2,1.9-4.2,0-1.5-.4-2.8-1.2-3.9s-2-2-3.5-2.6-3.5-.9-5.9-.9h-12v-3.9h25.3v3.7h-6l1-.2c1.6.7,2.9,1.7,3.9,3.2s1.8,3.1,1.8,5.2Z" fill="#c9d1d9"/>
    <path d="m38,256.8c0,2-.5,3.9-1.6,5.4s-2.6,2.8-4.6,3.7-4.3,1.3-7,1.3-5-.4-7-1.3-3.5-2.1-4.6-3.7-1.6-3.4-1.6-5.4c0-1.7.4-3.3,1.2-4.9s2.2-2.9,4.2-3.7l.2.4H2.2v-3.9h35.2v3.7h-5.3l.4-.1c1.8.7,3.2,1.8,4.1,3.4s1.4,3.3,1.4,5.1Zm-3.3-1c0-1.3-.3-2.5-1-3.6s-1.8-2-3.2-2.6-3.3-1-5.6-1c-3.4,0-5.9.7-7.6,2.1s-2.4,3.1-2.4,5.1c0,2.1.9,3.8,2.6,5.2s4.2,2,7.4,2c3.1,0,5.6-.6,7.3-1.9s2.5-3.2,2.5-5.3Z" fill="#c9d1d9"/>
    <path d="m38,226.9c0,2.4-.5,4.5-1.6,6.2s-2.6,3.1-4.6,4.1-4.3,1.4-7,1.4-5-.5-7-1.4-3.5-2.3-4.6-4-1.6-3.8-1.6-6.1c0-1.3.2-2.7.6-4s1.2-2.6,2.2-3.7,2.5-2,4.3-2.7,4.2-1,6.9-1v20.5h-3.2v-17.1l1.5,1.1c-2.2.1-4,.4-5.3,1.1s-2.3,1.5-2.9,2.5-.9,2.2-.9,3.4c0,1.5.4,2.8,1.2,3.8s1.9,1.9,3.4,2.5,3.3.9,5.4.9c3.2,0,5.6-.6,7.3-1.9,1.7-1.3,2.6-3.1,2.6-5.5,0-1.7-.4-3.1-1.3-4.3s-2.1-2-3.7-2.6l1.3-3.9c1.5.6,2.7,1.4,3.8,2.4s1.8,2.2,2.4,3.6.8,3,.8,4.7Z" fill="#c9d1d9"/>
  </g>
  <g isolation="isolate">
    <path d="m204.6,378.6c-2.3,0-4.3-.5-5.9-1.4s-2.9-2.1-3.8-3.4-1.4-2.8-1.6-4.2l4.3-1.1c.1,2,.7,3.7,1.9,4.9s2.9,1.8,5.2,1.8c1.5,0,2.8-.3,3.8-1s1.8-1.6,2.4-2.7,1-2.4,1.3-3.7.5-2.7.6-4,.1-2.5.2-3.5l.4.7c-.7,1.5-1.7,2.9-3.3,4.1s-3.5,1.8-5.9,1.8c-2,0-3.8-.5-5.5-1.4s-3-2.2-4-3.9-1.5-3.8-1.5-6.2.5-4.4,1.5-6.1,2.4-3.1,4.1-4,3.8-1.4,6.1-1.4,4.2.4,5.8,1.3,2.8,2.1,3.8,3.7,1.6,3.4,2,5.5.6,4.3.6,6.6-.2,4.6-.7,6.7-1.2,4-2.1,5.7-2.2,3-3.8,3.9-3.7,1.3-5.9,1.3Zm-.1-15.2c2.3,0,4.1-.8,5.5-2.2s2.1-3.5,2.1-6.1c0-2.5-.7-4.4-2-5.8s-3.1-2.1-5.4-2.1-4.1.7-5.4,2.2-1.9,3.5-1.9,6,.6,4.5,1.9,5.9,3,2.1,5.2,2.1Z" fill="#c9d1d9"/>
    <path d="m235,378.6c-3.9,0-6.9-1.5-9.1-4.6s-3.2-7.3-3.2-12.9,1.1-9.8,3.2-12.9,5.2-4.6,9.1-4.6,7,1.5,9.1,4.6,3.2,7.3,3.2,12.9-1.1,9.8-3.2,12.9-5.1,4.6-9.1,4.6Zm0-3.4c2.6,0,4.6-1.2,5.9-3.6s2-5.9,2-10.5-.7-8.1-2-10.5-3.3-3.6-5.9-3.6-4.6,1.2-5.9,3.6-2,5.9-2,10.5.7,8.1,2,10.5,3.3,3.6,5.9,3.6Z" fill="#c9d1d9"/>
    <path d="m259.6,359.6c-1.5,0-2.9-.3-4.1-1s-2.1-1.6-2.8-2.8-1-2.6-1-4.1.3-2.9,1-4.1,1.6-2.1,2.8-2.7c1.2-.6,2.5-1,4.1-1s2.9.3,4.1,1,2.1,1.6,2.8,2.8,1,2.6,1,4.1-.3,2.9-1,4.1-1.6,2.1-2.8,2.7-2.6,1-4.1,1Zm0-3.3c1.3,0,2.3-.4,3.1-1.3s1.2-1.9,1.2-3.3c0-1.3-.4-2.4-1.2-3.3s-1.8-1.3-3.1-1.3-2.3.4-3.1,1.3-1.2,1.9-1.2,3.3.4,2.5,1.2,3.3c.8.8,1.8,1.3,3.1,1.3Z" fill="#c9d1d9"/>
  </g>
  <g isolation="isolate">
    <path d="m371.2,378v-26.9c-1.2,1.1-2.4,2-3.5,2.7s-2.3,1.3-3.6,1.8v-4c.7-.3,1.4-.7,2.2-1.2s1.6-1.2,2.6-2.2,2.1-2.3,3.4-4h3v33.8h-4.1Z" fill="#c9d1d9"/>
    <path d="m393.5,378.6c-2.3,0-4.4-.4-6.2-1.3s-3.2-2-4.2-3.6-1.5-3.3-1.5-5.3c0-2.1.6-4.1,1.9-5.8s3.2-2.8,5.6-3.2c-1.3-.3-2.4-.8-3.4-1.5s-1.7-1.5-2.2-2.5-.8-2.1-.8-3.3c0-1.6.5-3.1,1.4-4.4s2.2-2.3,3.8-3,3.5-1.1,5.6-1.1,4,.4,5.6,1.1,2.9,1.7,3.8,3,1.4,2.8,1.4,4.4c0,1.2-.3,2.3-.8,3.3s-1.3,1.8-2.2,2.5-2.1,1.2-3.4,1.5c2.5.5,4.3,1.5,5.6,3.2s1.9,3.6,1.9,5.8c0,2-.5,3.8-1.5,5.3s-2.4,2.7-4.2,3.6-3.8,1.3-6.2,1.3Zm.1-3.7c2.3,0,4.2-.6,5.5-1.8s2-2.9,2-4.9-.7-3.7-2-4.9-3.2-1.8-5.5-1.8-4.2.6-5.5,1.8-2.1,2.9-2.1,4.9c0,2.1.7,3.8,2.1,5s3.1,1.7,5.5,1.7Zm0-17c2,0,3.6-.5,4.8-1.4s1.7-2.2,1.7-3.8c0-1.7-.6-3.1-1.7-4.1s-2.7-1.5-4.8-1.5-3.6.5-4.8,1.5-1.8,2.4-1.8,4.1c0,1.6.6,2.9,1.8,3.8s2.7,1.4,4.8,1.4Z" fill="#c9d1d9"/>
    <path d="m423.1,378.6c-3.9,0-6.9-1.5-9.1-4.6s-3.2-7.3-3.2-12.9,1.1-9.8,3.2-12.9,5.2-4.6,9.1-4.6,7,1.5,9.1,4.6,3.2,7.3,3.2,12.9-1.1,9.8-3.2,12.9-5.2,4.6-9.1,4.6Zm0-3.4c2.6,0,4.6-1.2,5.9-3.6s2-5.9,2-10.5-.7-8.1-2-10.5-3.3-3.6-5.9-3.6-4.6,1.2-5.9,3.6-2,5.9-2,10.5.7,8.1,2,10.5,3.3,3.6,5.9,3.6Z" fill="#c9d1d9"/>
    <path d="m447.7,359.6c-1.5,0-2.9-.3-4.1-1s-2.1-1.6-2.8-2.8-1-2.6-1-4.1.3-2.9,1-4.1,1.6-2.1,2.8-2.7,2.5-1,4.1-1,2.9.3,4.1,1,2.1,1.6,2.8,2.8,1,2.6,1,4.1-.3,2.9-1,4.1-1.6,2.1-2.8,2.7-2.6,1-4.1,1Zm0-3.3c1.3,0,2.3-.4,3.1-1.3s1.2-1.9,1.2-3.3c0-1.3-.4-2.4-1.2-3.3s-1.8-1.3-3.1-1.3-2.3.4-3.1,1.3-1.2,1.9-1.2,3.3.4,2.5,1.2,3.3,1.8,1.3,3.1,1.3Z" fill="#c9d1d9"/>
  </g>
  <g isolation="isolate">
    <path d="m541.3,378v-2.8l11.9-10.1c1.6-1.4,2.9-2.6,3.9-3.8s1.8-2.3,2.3-3.4.7-2.4.7-3.9-.3-2.8-.8-3.9-1.3-1.8-2.3-2.4-2.3-.8-3.7-.8c-1.7,0-3.1.3-4.1,1s-1.8,1.6-2.3,2.7-.8,2.4-.9,3.8l-4.5-1.4c.1-1.5.6-3,1.6-4.4s2.4-2.7,4.1-3.6,3.8-1.4,6.1-1.4c1.3,0,2.6.2,4,.6s2.6,1,3.7,1.8,2,1.9,2.7,3.2,1,2.9,1,4.8c0,2.7-.7,5.1-2.2,7.2s-3.5,4.2-6.1,6.3l-9.2,7.4-3-.6h21.1v3.6l-24,.1h0Z" fill="#c9d1d9"/>
    <path d="m572.6,378c1.2-5.8,3-11.2,5.4-16s5.3-9.6,8.8-14.1h-18.8v-3.6h22.9v3.2c-1.6,2.4-3.1,4.8-4.5,7.2s-2.7,4.9-3.9,7.3-2.2,5.1-3,7.7-1.5,5.4-2,8.3h-4.9Z" fill="#c9d1d9"/>
    <path d="m606.1,378.6c-3.9,0-6.9-1.5-9.1-4.6s-3.2-7.3-3.2-12.9,1.1-9.8,3.2-12.9,5.2-4.6,9.1-4.6,7,1.5,9.1,4.6,3.2,7.3,3.2,12.9-1.1,9.8-3.2,12.9-5.1,4.6-9.1,4.6Zm0-3.4c2.6,0,4.6-1.2,5.9-3.6s2-5.9,2-10.5-.7-8.1-2-10.5-3.3-3.6-5.9-3.6-4.6,1.2-5.9,3.6-2,5.9-2,10.5.7,8.1,2,10.5,3.3,3.6,5.9,3.6Z" fill="#c9d1d9"/>
    <path d="m630.7,359.6c-1.5,0-2.9-.3-4.1-1s-2.1-1.6-2.8-2.8-1-2.6-1-4.1.3-2.9,1-4.1,1.6-2.1,2.8-2.7,2.5-1,4.1-1,2.9.3,4.1,1,2.1,1.6,2.8,2.8,1,2.6,1,4.1-.3,2.9-1,4.1-1.6,2.1-2.8,2.7-2.6,1-4.1,1Zm0-3.3c1.3,0,2.3-.4,3.1-1.3s1.2-1.9,1.2-3.3c0-1.3-.4-2.4-1.2-3.3s-1.8-1.3-3.1-1.3-2.3.4-3.1,1.3-1.2,1.9-1.2,3.3.4,2.5,1.2,3.3,1.8,1.3,3.1,1.3Z" fill="#c9d1d9"/>
  </g>
  <g isolation="isolate">
    <path d="m730.4,378.6c-2.1,0-4-.4-5.8-1.2s-3.2-2-4.4-3.6-1.8-3.5-2-5.7l4.3-1.3c.2,2.5.9,4.6,2.3,6.1s3.2,2.3,5.6,2.3c2.1,0,3.9-.6,5.3-1.8s2.1-3,2.1-5.3c0-.9-.2-1.9-.6-2.9s-1.1-1.9-2.1-2.6-2.4-1.1-4.2-1.1h-4.6v-3.6h4.3c2,0,3.5-.5,4.6-1.6s1.6-2.2,1.6-3.6c0-1.6-.5-2.9-1.6-4s-2.6-1.7-4.6-1.7c-2.5,0-4.3.7-5.4,2.1s-1.8,3.4-2,5.9l-4.3-1.3c.1-1.6.6-3.2,1.6-4.7s2.3-2.8,4.1-3.8,3.8-1.5,6.1-1.5c1.9,0,3.7.4,5.2,1.1s2.8,1.8,3.7,3.1,1.4,2.8,1.4,4.5c0,1.1-.2,2.2-.7,3.1s-1.2,1.8-2.1,2.4-2.1,1.2-3.6,1.5c2.4.4,4.2,1.4,5.6,3s2.1,3.4,2.1,5.5c0,1.9-.3,3.5-1,4.8s-1.6,2.4-2.7,3.3-2.4,1.5-3.8,1.9-3,.7-4.4.7Z" fill="#c9d1d9"/>
    <path d="m759.9,378.6c-4.1,0-7.2-1.5-9.3-4.5s-3.2-7.1-3.2-12.3c0-2.5.3-4.9.8-7.1s1.3-4.1,2.4-5.8,2.4-2.9,4-3.9,3.5-1.4,5.6-1.4c2.2,0,4.1.5,5.8,1.4s2.9,2.1,3.9,3.4,1.5,2.8,1.6,4.2l-4.3,1.1c-.1-2-.7-3.6-2-4.9s-2.9-1.9-5-1.9c-1.6,0-2.9.3-3.9,1s-1.9,1.6-2.5,2.7-1.1,2.4-1.4,3.7-.5,2.7-.6,4-.2,2.5-.2,3.5l-.4-.4c.7-1.5,1.7-2.9,3.3-4.1s3.5-1.8,6-1.8c2,0,3.8.4,5.4,1.3s3,2.2,4,3.9,1.5,3.8,1.5,6.2c0,2.3-.5,4.3-1.4,6s-2.3,3-4,4-3.8,1.7-6.1,1.7Zm0-3.4c2.3,0,4.1-.7,5.3-2.2s1.9-3.4,1.9-5.9-.6-4.5-1.9-5.9-3-2.1-5.2-2.1c-2.3,0-4.1.7-5.5,2.2s-2.1,3.4-2.1,5.9c0,2.4.7,4.4,2,5.8s3.2,2.2,5.5,2.2Z" fill="#c9d1d9"/>
    <path d="m789.3,378.6c-3.9,0-6.9-1.5-9.1-4.6s-3.2-7.3-3.2-12.9,1.1-9.8,3.2-12.9,5.2-4.6,9.1-4.6,7,1.5,9.1,4.6,3.2,7.3,3.2,12.9-1.1,9.8-3.2,12.9-5.1,4.6-9.1,4.6Zm0-3.4c2.6,0,4.6-1.2,5.9-3.6s2-5.9,2-10.5-.7-8.1-2-10.5-3.3-3.6-5.9-3.6-4.6,1.2-5.9,3.6-2,5.9-2,10.5.7,8.1,2,10.5,3.4,3.6,5.9,3.6Z" fill="#c9d1d9"/>
    <path d="m813.9,359.6c-1.5,0-2.9-.3-4.1-1s-2.1-1.6-2.8-2.8-1-2.6-1-4.1.3-2.9,1-4.1,1.6-2.1,2.8-2.7,2.5-1,4.1-1,2.9.3,4.1,1,2.1,1.6,2.8,2.8,1,2.6,1,4.1-.3,2.9-1,4.1-1.6,2.1-2.8,2.7-2.5,1-4.1,1Zm0-3.3c1.3,0,2.3-.4,3.1-1.3s1.2-1.9,1.2-3.3c0-1.3-.4-2.4-1.2-3.3s-1.8-1.3-3.1-1.3-2.3.4-3.1,1.3-1.2,1.9-1.2,3.3.4,2.5,1.2,3.3,1.8,1.3,3.1,1.3Z" fill="#c9d1d9"/>
  </g>
  <g isolation="isolate">
    <path d="m915.6,378v-11.2h0v-20l1,2.2-15,17.8-1.4-1.2h23.3v3.6h-25.2v-4l17.8-21h3.5v33.8h-4Z" fill="#c9d1d9"/>
    <path d="m939.4,378.6c-2,0-3.8-.4-5.6-1.2s-3.3-2-4.5-3.5-1.9-3.5-2.1-5.7l4.3-1.3c.2,2.4.9,4.4,2.2,6s3.1,2.4,5.6,2.4c1.5,0,2.8-.4,4-1.1s2.1-1.7,2.7-3,1-2.8,1-4.4c0-2.5-.7-4.4-2.2-5.8s-3.2-2-5.4-2c-1.9,0-3.4.5-4.4,1.4s-1.9,2-2.4,3.2l-4.1-.4,1.4-18.8h19.3v3.6h-15.8l-.9,12.8-1.1-.1c.8-1.4,2-2.6,3.5-3.6s3.3-1.5,5.5-1.5c2.1,0,3.9.5,5.6,1.4s2.9,2.2,3.9,3.9,1.4,3.6,1.4,5.8c0,2.4-.5,4.6-1.6,6.4s-2.5,3.2-4.3,4.2-3.9,1.3-6,1.3Z" fill="#c9d1d9"/>
    <path d="m968.8,378.6c-3.9,0-6.9-1.5-9.1-4.6s-3.2-7.3-3.2-12.9,1.1-9.8,3.2-12.9,5.2-4.6,9.1-4.6,7,1.5,9.1,4.6,3.2,7.3,3.2,12.9-1.1,9.8-3.2,12.9-5.2,4.6-9.1,4.6Zm0-3.4c2.6,0,4.6-1.2,5.9-3.6s2-5.9,2-10.5-.7-8.1-2-10.5-3.3-3.6-5.9-3.6-4.6,1.2-5.9,3.6-2,5.9-2,10.5.7,8.1,2,10.5,3.3,3.6,5.9,3.6Z" fill="#c9d1d9"/>
    <path d="m993.4,359.6c-1.5,0-2.9-.3-4.1-1s-2.1-1.6-2.8-2.8-1-2.6-1-4.1.3-2.9,1-4.1,1.6-2.1,2.8-2.7,2.5-1,4.1-1,2.9.3,4.1,1,2.1,1.6,2.8,2.8,1,2.6,1,4.1-.3,2.9-1,4.1-1.6,2.1-2.8,2.7-2.6,1-4.1,1Zm0-3.3c1.3,0,2.3-.4,3.1-1.3s1.2-1.9,1.2-3.3c0-1.3-.4-2.4-1.2-3.3s-1.8-1.3-3.1-1.3-2.3.4-3.1,1.3-1.2,1.9-1.2,3.3.4,2.5,1.2,3.3,1.8,1.3,3.1,1.3Z" fill="#c9d1d9"/>
  </g>
  <g isolation="isolate">
    <path d="m1091.5,378.6c-2,0-3.8-.4-5.6-1.2s-3.3-2-4.5-3.5-1.9-3.5-2.1-5.7l4.3-1.3c.2,2.4.9,4.4,2.2,6s3.1,2.4,5.6,2.4c1.5,0,2.8-.4,4-1.1s2.1-1.7,2.7-3,1-2.8,1-4.4c0-2.5-.7-4.4-2.2-5.8s-3.2-2-5.4-2c-1.9,0-3.4.5-4.4,1.4s-1.9,2-2.4,3.2l-4.1-.4,1.4-18.8h19.3v3.6h-15.8l-.9,12.8-1.1-.1c.8-1.4,2-2.6,3.5-3.6s3.3-1.5,5.5-1.5c2.1,0,3.9.5,5.6,1.4s2.9,2.2,3.9,3.9,1.4,3.6,1.4,5.8c0,2.4-.5,4.6-1.6,6.4s-2.5,3.2-4.3,4.2-3.9,1.3-6,1.3Z" fill="#c9d1d9"/>
    <path d="m1124.1,378v-11.2h0v-20l1,2.2-15,17.8-1.4-1.2h23.3v3.6h-25v-4l17.8-21h3.5v33.8h-4.2Z" fill="#c9d1d9"/>
    <path d="m1148.5,378.6c-3.9,0-6.9-1.5-9.1-4.6s-3.2-7.3-3.2-12.9,1.1-9.8,3.2-12.9,5.2-4.6,9.1-4.6,7,1.5,9.1,4.6,3.2,7.3,3.2,12.9-1.1,9.8-3.2,12.9-5.2,4.6-9.1,4.6Zm0-3.4c2.6,0,4.6-1.2,5.9-3.6s2-5.9,2-10.5-.7-8.1-2-10.5-3.3-3.6-5.9-3.6-4.6,1.2-5.9,3.6-2,5.9-2,10.5.7,8.1,2,10.5,3.3,3.6,5.9,3.6Z" fill="#c9d1d9"/>
    <path d="m1173,359.6c-1.5,0-2.9-.3-4.1-1s-2.1-1.6-2.8-2.8-1-2.6-1-4.1.3-2.9,1-4.1,1.6-2.1,2.8-2.7,2.5-1,4.1-1,2.9.3,4.1,1,2.1,1.6,2.8,2.8,1,2.6,1,4.1-.3,2.9-1,4.1-1.6,2.1-2.8,2.7-2.5,1-4.1,1Zm0-3.3c1.3,0,2.3-.4,3.1-1.3s1.2-1.9,1.2-3.3c0-1.3-.4-2.4-1.2-3.3s-1.8-1.3-3.1-1.3-2.3.4-3.1,1.3-1.2,1.9-1.2,3.3.4,2.5,1.2,3.3,1.9,1.3,3.1,1.3Z" fill="#c9d1d9"/>
  </g>
  <g isolation="isolate">
    <path d="m1271.3,378.6c-4.1,0-7.2-1.5-9.3-4.5s-3.2-7.1-3.2-12.3c0-2.5.3-4.9.8-7.1s1.3-4.1,2.4-5.8,2.4-2.9,4-3.9,3.5-1.4,5.6-1.4c2.2,0,4.1.5,5.8,1.4s2.9,2.1,3.9,3.4,1.5,2.8,1.6,4.2l-4.3,1.1c-.1-2-.7-3.6-2-4.9s-2.9-1.9-5-1.9c-1.6,0-2.9.3-3.9,1s-1.9,1.6-2.5,2.7-1.1,2.4-1.4,3.7-.5,2.7-.6,4-.2,2.5-.2,3.5l-.4-.4c.7-1.5,1.7-2.9,3.3-4.1s3.5-1.8,6-1.8c2,0,3.8.4,5.4,1.3s3,2.2,4,3.9,1.5,3.8,1.5,6.2c0,2.3-.5,4.3-1.4,6s-2.3,3-4,4-3.8,1.7-6.1,1.7Zm0-3.4c2.3,0,4.1-.7,5.3-2.2s1.9-3.4,1.9-5.9-.6-4.5-1.9-5.9-3-2.1-5.2-2.1c-2.3,0-4.1.7-5.5,2.2s-2.1,3.4-2.1,5.9c0,2.4.7,4.4,2,5.8s3.2,2.2,5.5,2.2Z" fill="#c9d1d9"/>
    <path d="m1299.9,378.6c-2.1,0-4-.4-5.8-1.2s-3.2-2-4.4-3.6-1.8-3.5-2-5.7l4.3-1.3c.2,2.5.9,4.6,2.3,6.1s3.2,2.3,5.6,2.3c2.1,0,3.9-.6,5.3-1.8s2.1-3,2.1-5.3c0-.9-.2-1.9-.6-2.9s-1.1-1.9-2.1-2.6-2.4-1.1-4.2-1.1h-4.6v-3.6h4.3c2,0,3.5-.5,4.6-1.6s1.6-2.2,1.6-3.6c0-1.6-.5-2.9-1.6-4s-2.6-1.7-4.6-1.7c-2.5,0-4.3.7-5.4,2.1s-1.8,3.4-2,5.9l-4.3-1.3c.1-1.6.6-3.2,1.6-4.7s2.3-2.8,4.1-3.8,3.8-1.5,6.1-1.5c1.9,0,3.7.4,5.2,1.1s2.8,1.8,3.7,3.1,1.4,2.8,1.4,4.5c0,1.1-.2,2.2-.7,3.1s-1.2,1.8-2.1,2.4-2.1,1.2-3.6,1.5c2.4.4,4.2,1.4,5.6,3s2.1,3.4,2.1,5.5c0,1.9-.3,3.5-1,4.8s-1.6,2.4-2.7,3.3-2.4,1.5-3.8,1.9-2.9.7-4.4.7Z" fill="#c9d1d9"/>
    <path d="m1329.3,378.6c-3.9,0-6.9-1.5-9.1-4.6s-3.2-7.3-3.2-12.9,1.1-9.8,3.2-12.9,5.2-4.6,9.1-4.6,7,1.5,9.1,4.6,3.2,7.3,3.2,12.9-1.1,9.8-3.2,12.9-5.2,4.6-9.1,4.6Zm0-3.4c2.6,0,4.6-1.2,5.9-3.6s2-5.9,2-10.5-.7-8.1-2-10.5-3.3-3.6-5.9-3.6-4.6,1.2-5.9,3.6-2,5.9-2,10.5.7,8.1,2,10.5,3.3,3.6,5.9,3.6Z" fill="#c9d1d9"/>
    <path d="m1353.9,359.6c-1.5,0-2.9-.3-4.1-1s-2.1-1.6-2.8-2.8-1-2.6-1-4.1.3-2.9,1-4.1,1.6-2.1,2.8-2.7,2.5-1,4.1-1,2.9.3,4.1,1,2.1,1.6,2.8,2.8,1,2.6,1,4.1-.3,2.9-1,4.1-1.6,2.1-2.8,2.7-2.6,1-4.1,1Zm0-3.3c1.3,0,2.3-.4,3.1-1.3s1.2-1.9,1.2-3.3c0-1.3-.4-2.4-1.2-3.3s-1.8-1.3-3.1-1.3-2.3.4-3.1,1.3-1.2,1.9-1.2,3.3.4,2.5,1.2,3.3,1.8,1.3,3.1,1.3Z" fill="#c9d1d9"/>
  </g>
  <g isolation="isolate">
    <path d="m1432.3,76.2c-2.3,0-4.3-.5-5.9-1.4s-2.9-2.1-3.8-3.4-1.4-2.8-1.6-4.2l4.3-1.1c.1,2,.7,3.7,1.9,4.9s2.9,1.8,5.2,1.8c1.5,0,2.8-.3,3.8-1s1.8-1.6,2.4-2.7,1-2.4,1.3-3.7.5-2.7.6-4,.1-2.5.2-3.5l.4.7c-.7,1.5-1.7,2.9-3.3,4.1s-3.5,1.8-5.9,1.8c-2,0-3.8-.5-5.5-1.4s-3-2.2-4-3.9-1.5-3.8-1.5-6.2.5-4.4,1.5-6.1,2.4-3.1,4.1-4,3.8-1.4,6.1-1.4,4.2.4,5.8,1.3,2.8,2.1,3.8,3.7,1.6,3.4,2,5.5.6,4.3.6,6.6-.2,4.6-.7,6.7c-.5,2.1-1.2,4-2.1,5.7s-2.2,3-3.8,3.9-3.7,1.3-5.9,1.3Zm-.1-15.2c2.3,0,4.1-.8,5.5-2.2s2.1-3.5,2.1-6.1c0-2.5-.7-4.4-2-5.8s-3.1-2.1-5.4-2.1-4.1.7-5.4,2.2-1.9,3.5-1.9,6,.6,4.5,1.9,5.9,3,2.1,5.2,2.1Z" fill="#c9d1d9"/>
    <path d="m1462.8,76.2c-3.9,0-6.9-1.5-9.1-4.6s-3.2-7.3-3.2-12.9,1.1-9.8,3.2-12.9,5.2-4.6,9.1-4.6,7,1.5,9.1,4.6,3.2,7.3,3.2,12.9-1.1,9.8-3.2,12.9-5.2,4.6-9.1,4.6Zm0-3.4c2.6,0,4.6-1.2,5.9-3.6s2-5.9,2-10.5-.7-8.1-2-10.5-3.3-3.6-5.9-3.6-4.6,1.2-5.9,3.6-2,5.9-2,10.5.7,8.1,2,10.5,3.3,3.6,5.9,3.6Z" fill="#c9d1d9"/>
    <path d="m1487.3,57.2c-1.5,0-2.9-.3-4.1-1s-2.1-1.6-2.8-2.8-1-2.6-1-4.1.3-2.9,1-4.1,1.6-2.1,2.8-2.7,2.5-1,4.1-1,2.9.3,4.1,1,2.1,1.6,2.8,2.8,1,2.6,1,4.1-.3,2.9-1,4.1-1.6,2.1-2.8,2.7-2.5,1-4.1,1Zm0-3.3c1.3,0,2.3-.4,3.1-1.3s1.2-1.9,1.2-3.3c0-1.3-.4-2.4-1.2-3.3s-1.8-1.3-3.1-1.3-2.3.4-3.1,1.3-1.2,1.9-1.2,3.3.4,2.5,1.2,3.3,1.8,1.3,3.1,1.3Z" fill="#c9d1d9"/>
    <path d="m1513.8,75.6v-33.7h12.2c3.9,0,6.9.8,8.8,2.4s3,3.9,3,7c0,3-1,5.3-2.9,6.9s-4.9,2.5-8.9,2.5h-7.9v15h-4.3v-.1h0Zm4.2-18.4h7.9c2.4,0,4.3-.5,5.6-1.6s1.9-2.5,1.9-4.3c0-1.6-.6-3-1.7-4.2s-3.1-1.8-5.8-1.8h-7.9v11.9Z" fill="#c9d1d9"/>
    <path d="m1543.3,75.6v-35.2h3.9v15.8l-.4-1c.7-1.6,1.7-2.9,3.2-3.9s3.2-1.6,5.4-1.6c1.8,0,3.3.4,4.6,1.2s2.3,1.9,3,3.4,1.1,3.3,1.1,5.3v15.9h-3.9v-15.5c0-2.1-.4-3.8-1.2-5.1s-2.2-1.9-4.3-1.9c-2.2,0-4,.8-5.3,2.3s-2,3.9-2,7v13.2l-4.1.1h0Z" fill="#c9d1d9"/>
    <path d="m1577.8,76.2c-1.7,0-3.2-.3-4.4-1s-2.2-1.5-2.9-2.7-1-2.4-1-3.8c0-1.5.4-2.9,1.3-4.2s2.3-2.3,4.1-3.1,4.3-1.2,7.2-1.2h4.2l-.4.4v-1.4c0-2-.4-3.6-1.2-4.7s-2.2-1.6-4.1-1.6c-1.8,0-3.2.5-4.1,1.4s-1.5,2.2-1.5,3.7l-4.4-1c.1-1.4.7-2.6,1.6-3.7s2.1-2,3.6-2.7,3.3-1,5.2-1c2,0,3.7.4,5,1.2s2.2,1.9,2.8,3.3.9,3.2.9,5.2v11.7c0,.5.1.9.2,1s.5.3.9.3h1.4v3.3h-2.5c-1.1,0-2-.3-2.7-1s-1.1-1.5-1.1-2.5v-1.8h.6c-.2.7-.6,1.3-1.1,2s-1.1,1.3-1.8,1.9-1.6,1.1-2.6,1.4-1.9.6-3.2.6Zm.9-3.3c1.3,0,2.5-.3,3.6-1s2-1.6,2.7-3,1-3.1,1-5.3v-.2h-4c-2.1,0-3.7.3-4.9.8-1.2.5-2,1.2-2.5,2s-.8,1.6-.8,2.4.2,1.5.5,2.2.9,1.2,1.6,1.5,1.7.6,2.8.6Z" fill="#c9d1d9"/>
    <path d="m1606.4,76.2c-1.8,0-3.5-.3-5-.9s-2.7-1.5-3.7-2.7-1.6-2.8-2-4.7l4.1-.8c.2,2,.8,3.5,2,4.4s2.7,1.5,4.4,1.5c1.8,0,3.2-.4,4.2-1.3s1.6-2,1.6-3.3c0-1.1-.4-2-1.1-2.6s-1.8-1.1-3.2-1.4l-3.1-.6c-.8-.2-1.7-.4-2.6-.7s-1.7-.7-2.5-1.2-1.4-1.2-1.9-2-.7-1.8-.7-3.1c0-1.7.4-3,1.3-4.1s2-1.8,3.4-2.4,3-.8,4.6-.8c1.8,0,3.4.3,4.7.8s2.4,1.4,3.3,2.4,1.4,2.3,1.7,3.8l-4.3.9c-.1-1-.4-1.8-.8-2.5s-1-1.2-1.7-1.6-1.7-.6-2.9-.6c-1.5,0-2.7.3-3.8.9s-1.6,1.5-1.6,2.8c0,.7.2,1.3.5,1.8s.9.9,1.6,1.2,1.6.6,2.7.8l3.1.7c1.3.3,2.5.7,3.6,1.2s2,1.2,2.7,2.2,1,2.1,1,3.7c0,1.7-.4,3.1-1.3,4.3s-2,2.1-3.5,2.8-2.8,1.1-4.8,1.1Z" fill="#c9d1d9"/>
    <path d="m1633,76.2c-2.4,0-4.5-.5-6.2-1.6s-3.1-2.6-4.1-4.6-1.4-4.3-1.4-7,.5-5,1.4-7,2.3-3.5,4-4.6,3.8-1.6,6.1-1.6c1.3,0,2.7.2,4,.6s2.6,1.2,3.7,2.2,2,2.5,2.7,4.3,1,4.2,1,6.9h-20.5v-3.2h17.1l-1.1,1.5c-.1-2.2-.4-4-1.1-5.3s-1.5-2.3-2.5-2.9-2.2-.9-3.4-.9c-1.5,0-2.8.4-3.8,1.2s-1.9,1.9-2.5,3.4-.9,3.3-.9,5.4c0,3.2.6,5.6,1.9,7.3s3.1,2.6,5.5,2.6c1.7,0,3.1-.4,4.3-1.3s2-2.1,2.6-3.7l3.9,1.3c-.6,1.5-1.4,2.7-2.4,3.8s-2.2,1.8-3.6,2.4-3,.8-4.7.8Z" fill="#c9d1d9"/>
    <path d="m1671.1,76.2c-1.8,0-3.5-.3-5-.9s-2.7-1.5-3.7-2.7-1.6-2.8-2-4.7l4.1-.8c.2,2,.8,3.5,2,4.4s2.7,1.5,4.4,1.5c1.8,0,3.2-.4,4.2-1.3s1.6-2,1.6-3.3c0-1.1-.4-2-1.1-2.6s-1.8-1.1-3.2-1.4l-3.1-.6c-.8-.2-1.7-.4-2.6-.7s-1.7-.7-2.5-1.2-1.4-1.2-1.9-2-.7-1.8-.7-3.1c0-1.7.4-3,1.3-4.1s2-1.8,3.4-2.4,3-.8,4.6-.8c1.8,0,3.4.3,4.7.8s2.4,1.4,3.3,2.4,1.4,2.3,1.7,3.8l-4.3.9c-.1-1-.4-1.8-.8-2.5s-1-1.2-1.7-1.6-1.7-.6-2.9-.6c-1.5,0-2.7.3-3.8.9s-1.6,1.5-1.6,2.8c0,.7.2,1.3.5,1.8s.9.9,1.6,1.2,1.6.6,2.7.8l3.1.7c1.3.3,2.5.7,3.6,1.2s2,1.2,2.7,2.2,1,2.1,1,3.7c0,1.7-.4,3.1-1.3,4.3s-2,2.1-3.5,2.8-2.9,1.1-4.8,1.1Z" fill="#c9d1d9"/>
    <path d="m1687,75.6v-35.2h3.9v15.8l-.4-1c.7-1.6,1.7-2.9,3.2-3.9s3.2-1.6,5.4-1.6c1.8,0,3.3.4,4.6,1.2s2.3,1.9,3,3.4,1.1,3.3,1.1,5.3v15.9h-3.9v-15.5c0-2.1-.4-3.8-1.2-5.1s-2.2-1.9-4.3-1.9c-2.2,0-4,.8-5.3,2.3s-2,3.9-2,7v13.2l-4.1.1h0Z" fill="#c9d1d9"/>
    <path d="m1716.8,46c-.9,0-1.7-.3-2.3-1s-1-1.4-1-2.3.3-1.7,1-2.3,1.4-.9,2.3-.9,1.7.3,2.3.9.9,1.4.9,2.3-.3,1.7-.9,2.3-1.3,1-2.3,1Zm-1.9,29.6v-25.3h3.9v25.3h-3.9Z" fill="#c9d1d9"/>
    <path d="m1724.3,53.6v-3.3h13.4v3.3h-13.4Zm3.8,22v-29.9c0-1.9.4-3.2,1.3-4s2.4-1.2,4.5-1.2h3.2v3.3h-3.7c-.5,0-.8.1-1,.3s-.3.5-.3,1v30.6l-4-.1h0Z" fill="#c9d1d9"/>
    <path d="m1748.6,75.6c-1,0-1.9-.3-2.6-1s-1.1-1.5-1.1-2.5v-18.5h-4.1v-3.3h4.1v-5.3l3.9-.8v6.1h5v3.3h-5v17.4c0,.5.1.9.2,1s.5.3.9.3h3.9v3.3s-5.2,0-5.2,0Z" fill="#c9d1d9"/>
  </g>
  <g isolation="isolate">
    <path d="m1637.3,378.6c-2.3,0-4.4-.4-6.2-1.3s-3.2-2-4.2-3.6-1.5-3.3-1.5-5.3c0-2.1.6-4.1,1.9-5.8s3.2-2.8,5.6-3.2c-1.3-.3-2.4-.8-3.4-1.5s-1.7-1.5-2.2-2.5-.8-2.1-.8-3.3c0-1.6.5-3.1,1.4-4.4s2.2-2.3,3.8-3,3.5-1.1,5.6-1.1,4,.4,5.6,1.1,2.9,1.7,3.8,3,1.4,2.8,1.4,4.4c0,1.2-.3,2.3-.8,3.3s-1.3,1.8-2.2,2.5-2.1,1.2-3.4,1.5c2.5.5,4.3,1.5,5.6,3.2s1.9,3.6,1.9,5.8c0,2-.5,3.8-1.5,5.3s-2.4,2.7-4.2,3.6-3.9,1.3-6.2,1.3Zm0-3.7c2.3,0,4.2-.6,5.5-1.8s2-2.9,2-4.9-.7-3.7-2-4.9-3.2-1.8-5.5-1.8-4.2.6-5.5,1.8-2.1,2.9-2.1,4.9c0,2.1.7,3.8,2.1,5s3.2,1.7,5.5,1.7Zm0-17c2,0,3.6-.5,4.8-1.4s1.7-2.2,1.7-3.8c0-1.7-.6-3.1-1.7-4.1s-2.7-1.5-4.8-1.5-3.6.5-4.8,1.5-1.8,2.4-1.8,4.1c0,1.6.6,2.9,1.8,3.8s2.8,1.4,4.8,1.4Z" fill="#c9d1d9"/>
    <path d="m1659.7,378v-26.9c-1.2,1.1-2.4,2-3.5,2.7s-2.3,1.3-3.6,1.8v-4c.7-.3,1.4-.7,2.2-1.2s1.6-1.2,2.6-2.2,2.1-2.3,3.4-4h3v33.8h-4.1Z" fill="#c9d1d9"/>
    <path d="m1682.4,378.6c-3.9,0-6.9-1.5-9.1-4.6s-3.2-7.3-3.2-12.9,1.1-9.8,3.2-12.9,5.2-4.6,9.1-4.6,7,1.5,9.1,4.6,3.2,7.3,3.2,12.9-1.1,9.8-3.2,12.9-5.2,4.6-9.1,4.6Zm0-3.4c2.6,0,4.6-1.2,5.9-3.6s2-5.9,2-10.5-.7-8.1-2-10.5-3.3-3.6-5.9-3.6-4.6,1.2-5.9,3.6-2,5.9-2,10.5.7,8.1,2,10.5,3.3,3.6,5.9,3.6Z" fill="#c9d1d9"/>
    <path d="m1707,359.6c-1.5,0-2.9-.3-4.1-1s-2.1-1.6-2.8-2.8-1-2.6-1-4.1.3-2.9,1-4.1,1.6-2.1,2.8-2.7,2.5-1,4.1-1,2.9.3,4.1,1,2.1,1.6,2.8,2.8,1,2.6,1,4.1-.3,2.9-1,4.1-1.6,2.1-2.8,2.7-2.6,1-4.1,1Zm0-3.3c1.3,0,2.3-.4,3.1-1.3s1.2-1.9,1.2-3.3c0-1.3-.4-2.4-1.2-3.3s-1.8-1.3-3.1-1.3-2.3.4-3.1,1.3-1.2,1.9-1.2,3.3.4,2.5,1.2,3.3,1.8,1.3,3.1,1.3Z" fill="#c9d1d9"/>
  </g>
  <g isolation="isolate">
    <path d="m1444.8,378c1.2-5.8,3-11.2,5.4-16s5.3-9.6,8.8-14.1h-18.8v-3.6h22.9v3.2c-1.6,2.4-3.1,4.8-4.5,7.2s-2.7,4.9-3.9,7.3-2.2,5.1-3,7.7-1.5,5.4-2,8.3h-4.9Z" fill="#c9d1d9"/>
    <path d="m1466.1,378v-2.8l11.9-10.1c1.6-1.4,2.9-2.6,3.9-3.8s1.8-2.3,2.3-3.4.7-2.4.7-3.9-.3-2.8-.8-3.9-1.3-1.8-2.3-2.4-2.3-.8-3.7-.8c-1.7,0-3.1.3-4.1,1s-1.8,1.6-2.3,2.7-.8,2.4-.9,3.8l-4.5-1.4c.1-1.5.6-3,1.6-4.4s2.4-2.7,4.1-3.6,3.8-1.4,6.1-1.4c1.3,0,2.6.2,4,.6s2.6,1,3.7,1.8,2,1.9,2.7,3.2,1,2.9,1,4.8c0,2.7-.7,5.1-2.2,7.2s-3.5,4.2-6.1,6.3l-9.2,7.4-3-.6h21.1v3.6l-24,.1h0Z" fill="#c9d1d9"/>
    <path d="m1506.9,378.6c-3.9,0-6.9-1.5-9.1-4.6s-3.2-7.3-3.2-12.9,1.1-9.8,3.2-12.9,5.2-4.6,9.1-4.6,7,1.5,9.1,4.6,3.2,7.3,3.2,12.9-1.1,9.8-3.2,12.9-5.2,4.6-9.1,4.6Zm0-3.4c2.6,0,4.6-1.2,5.9-3.6s2-5.9,2-10.5-.7-8.1-2-10.5-3.3-3.6-5.9-3.6-4.6,1.2-5.9,3.6-2,5.9-2,10.5.7,8.1,2,10.5,3.3,3.6,5.9,3.6Z" fill="#c9d1d9"/>
    <path d="m1531.4,359.6c-1.5,0-2.9-.3-4.1-1s-2.1-1.6-2.8-2.8-1-2.6-1-4.1.3-2.9,1-4.1,1.6-2.1,2.8-2.7,2.5-1,4.1-1,2.9.3,4.1,1,2.1,1.6,2.8,2.8,1,2.6,1,4.1-.3,2.9-1,4.1-1.6,2.1-2.8,2.7-2.5,1-4.1,1Zm0-3.3c1.3,0,2.3-.4,3.1-1.3s1.2-1.9,1.2-3.3c0-1.3-.4-2.4-1.2-3.3s-1.8-1.3-3.1-1.3-2.3.4-3.1,1.3-1.2,1.9-1.2,3.3.4,2.5,1.2,3.3,1.9,1.3,3.1,1.3Z" fill="#c9d1d9"/>
  </g>
  <g>
    <path d="m230.4,39.6c-65.3,0-122.9,144-180,288" fill="none" stroke="#307eef" stroke-linecap="round" stroke-width="2.835"/>
    <path d="m410.4,327.6C353.3,183.6,295.7,39.6,230.4,39.6" fill="none" stroke="#307eef" stroke-linecap="round" stroke-width="2.835"/>
    <path d="m590.4,615.6c65.3,0,122.9-144,180-288" fill="none" stroke="#307eef" stroke-linecap="round" stroke-width="2.835"/>
    <path d="m410.4,327.6c57.1,144,114.7,288,180,288" fill="none" stroke="#307eef" stroke-linecap="round" stroke-width="2.835"/>
  </g>
  <g>
    <path d="m950.4,39.6c-65.3,0-122.9,144-180,288" fill="none" stroke="#307eef" stroke-linecap="round" stroke-width="2.835"/>
    <path d="m1130.4,327.6c-57.1-144-114.7-288-180-288" fill="none" stroke="#307eef" stroke-linecap="round" stroke-width="2.835"/>
    <path d="m1310.4,615.6c65.3,0,122.9-144,180-288" fill="none" stroke="#307eef" stroke-linecap="round" stroke-width="2.835"/>
    <path d="m1130.4,327.6c57.1,144,114.7,288,180,288" fill="none" stroke="#307eef" stroke-linecap="round" stroke-width="2.835"/>
  </g>
  <g>
    <path d="m410.4,39.6c-65.3,0-122.9,144-180,288" fill="none" stroke="#d85648" stroke-linecap="round" stroke-width="2.835"/>
    <path d="m590.4,327.6c-57.1-144-114.7-288-180-288" fill="none" stroke="#d85648" stroke-linecap="round" stroke-width="2.835"/>
    <path d="m770.4,615.6c65.3,0,122.9-144,180-288" fill="none" stroke="#d85648" stroke-linecap="round" stroke-width="2.835"/>
    <path d="m590.4,327.6c57.1,144,114.7,288,180,288" fill="none" stroke="#d85648" stroke-linecap="round" stroke-width="2.835"/>
  </g>
  <g>
    <path d="m1130.4,39.6c-65.3,0-122.9,144-180,288" fill="none" stroke="#d85648" stroke-linecap="round" stroke-width="2.835"/>
    <path d="m1310.4,327.6c-57.1-144-114.7-288-180-288" fill="none" stroke="#d85648" stroke-linecap="round" stroke-width="2.835"/>
    <path d="m1490.4,615.6c65.3,0,122.9-144,180-288" fill="none" stroke="#d85648" stroke-linecap="round" stroke-width="2.835"/>
    <path d="m1310.4,327.6c57.1,144,114.7,288,180,288" fill="none" stroke="#d85648" stroke-linecap="round" stroke-width="2.835"/>
  </g>
</svg>