<?xml version="1.0" encoding="UTF-8"?>
<svg xmlns="http://www.w3.org/2000/svg" viewBox="0 0 2124 957.6">
  <defs>
    <style>
      .cls-1 {
        letter-spacing: 0em;
      }

      .cls-2 {
        fill: #c9d1d9;
      }

      .cls-3 {
        stroke-miterlimit: 10;
      }

      .cls-3, .cls-4, .cls-5 {
        fill: none;
      }

      .cls-3, .cls-5 {
        stroke: #c9d1d9;
      }

      .cls-4 {
        stroke: #307eef;
        stroke-width: 5.67px;
      }

      .cls-4, .cls-5 {
        stroke-linecap: round;
        stroke-linejoin: round;
      }

      .cls-6 {
        letter-spacing: -.02em;
      }

      .cls-5 {
        stroke-width: 7px;
      }

      .cls-7 {
        fill: #cad2d9;
        font-family: Roboto-Regular, Roboto;
        font-size: 48px;
      }
    </style>
  </defs>
  <g id="Ebene_1" data-name="Ebene 1">
    <g>
      <path class="cls-4" d="m1792.8,431.98l-.35,1.01-.33,1.01-.66,1.01-.33,1.01-.33,1.01-.33,1.01-.33,1.01-.66,1.01-.33,1.01-.33,1.01-.33,1.01-.33,1.01-.33,1.01-.66,1.01-.33,1.01-.33,1.01-.33,1.01-.33,1.01-.66,1.01-.33,1.01-.33,1.01-.33,1.01-.33,1.01-.33,1.01-.66,1.01-.33,1.01-.33,1.01-.33,1.01-.33,1.01-.66,2.02-.33,1.01-.33,1.01-.33,1.01-.33,1.01-.33,1.01-.66,1.01-.33,1.01-.33,1.01-.33,1.01-.33,1.01-.66,1.01-.33,1.01-.33,1.01-.33,1.01-.33,1.01-.33,1.01-.66,1.01-.33,1.01-.33,1.01-.33,1.01-.33,1.01-.66,1.01-.33,1.01-.33,1.01-.33,1.01-.33,1.01-.33,1.01-.66,1.01-.33,1.01-.33,1.01-.33,1.01-.33,1.01-.66,1.01-.33,1.01-.33,1.01-.33,1.01-.33,1.01-.33,1.01-.66,1.01-.33,1.01-.33,1.01-.33,1.01-.33,1.01-.66,1.01-.33,1.01-.33,1.01-.33,1.01-.33,1.01-.66,1.01-.33,1.01-.33,1.01-.33,1.01-.33,1.01-.33,1.01-.66,1.01-.33,1.01-.33,1.01-.33,1.01-.33,1.01-.66,1.01-.33,1.01-.33,1.01-.33,1.01-.33,1.01-.33,1.01-.66,1.01-.33,1.01h-.33s-.33,1.01-.33,1.01l-.33,1.01-.66,1.01-.33,1.01-.33,1.01-.33,1.01-.33,1.01-.33,1.01-.66,1.01-.33,1.01-.33,1.01-.33,1.01-.33,1.01-.66,1.01-.33,1.01-.33,1.01-.33,1.01-.33,1.01-.33,1.01-.66,1.01-.33,1.01-.33,1.01-.33,1.01-.33,1.01-.66,1.01-.33,1.01-.33,1.01-.33,1.01-.33,1.01h-.33s-.66,1.01-.66,1.01l-.33,1.01-.33,1.01-.33,1.01-.33,1.01-.66,1.01-.33,1.01-.33,1.02-.33,1.01-.33,1.01-.66,1.01-.33,1.01-.33,1.01-.33,1.01-.33,1.01-.33,1.01h-.66s-.33,1.01-.33,1.01l-.33,1.01-.33,1.01-.33,1.01-.66,1.01-.33,1.01-.33,1.01-.33,1.01-.33,1.01-.33,1.01-.66,1.01-.33,1.01-.33,1.01h-.33s-.33,1.01-.33,1.01l-.66,1.01-.33,1.01-.33,1.01-.33,1.01-.33,1.01-.33,1.01-.66,1.01-.33,1.01-.33,1.01h-.33s-.33,1.01-.33,1.01l-.66,1.01-.33,1.01-.33,1.01-.33,1.01-.33,1.01-.33,1.01-.67,1.01h-.33s-.33,1.01-.33,1.01l-.33,1.01-.33,1.01-.66,1.01-.33,1.01-.33,1.01-.33,1.01-.33,1.01h-.33s-.66,1.01-.66,1.01l-.33,1.01-.33,1.01-.33,1.01-.33,1.01-.66,1.01h-.33s-.33,1.01-.33,1.01l-.33,1.01-.33,1.01-.33,1.01-.66,1.01-.33,1.01-.33,1.01h-.33s-.33,1.01-.33,1.01l-.66,1.01-.33,1.01-.33,1.01-.33,1.01h-.33s-.66,1.01-.66,1.01l-.33,1.01-.33,1.01-.33,1.01-.33,1.01h-.33s-.66,1.01-.66,1.01l-.33,1.01-.33,1.01-.33,1.01-.33,1.01h-.66s-.33,1.01-.33,1.01l-.33,1.01-.33,1.01-.33,1.01-.33,1.01h-.66s-.33,1.01-.33,1.01l-.33,1.01-.33,1.01-.33,1.01h-.66s-.33,1.01-.33,1.01l-.33,1.01-.33,1.01-.33,1.01h-.33s-.66,1.01-.66,1.01l-.33,1.01-.33,1.01-.33,1.01h-.33s-.66,1.01-.66,1.01l-.33,1.01-.33,1.01h-.33s-.33,1.01-.33,1.01l-.33,1.01-.66,1.01-.33,1.01h-.33s-.33,1.01-.33,1.01l-.33,1.01-.66,1.01h-.33s-.33,1.01-.33,1.01l-.33,1.01-.33,1.01h-.33s-.66,1.01-.66,1.01l-.33,1.01-.33,1.01h-.33s-.33,1.01-.33,1.01l-.66,1.01-.33,1.01h-.33s-.33,1.01-.33,1.01l-.33,1.01-.66,1.01h-.33s-.33,1.01-.33,1.01l-.33,1.01-.33,1.01h-.33s-.66,1.01-.66,1.01l-.33,1.01h-.33s-.33,1.01-.33,1.01l-.33,1.01-.66,1.01h-.33s-.33,1.01-.33,1.01l-.33,1.01h-.33s-.33,1.01-.33,1.01l-.66,1.01h-.33s-.33,1.01-.33,1.01l-.33,1.01h-.33s-.66,1.01-.66,1.01l-.33,1.01-.33,1.01h-.33s-.33,1.01-.33,1.01l-.33,1.01h-.66s-.33,1.01-.33,1.01l-.33,1.01h-.33s-.33,1.01-.33,1.01l-.66,1.01h-.33s-.33,1.01-.33,1.01l-.33,1.01h-.33s-.33,1.01-.33,1.01l-.66,1.01h-.33s-.33,1.01-.33,1.01h-.33s-.33,1.01-.33,1.01l-.66,1.01h-.33s-.33,1.01-.33,1.01l-.33,1.01h-.33s-.33,1.01-.33,1.01l-.66,1.01h-.33s-.33,1.01-.33,1.01h-.33s-.33,1.01-.33,1.01l-.66,1.01h-.33s-.33,1.01-.33,1.01h-.33s-.33,1.01-.33,1.01l-.33,1.01h-.66s-.33,1.01-.33,1.01h-.33s-.33,1.01-.33,1.01l-.33,1.01h-.66s-.33,1.01-.33,1.01h-.33s-.33,1.01-.33,1.01l-.33,1.01h-.66s-.33,1.01-.33,1.01h-.33s-.33,1.01-.33,1.01h-.33s-.33,1.01-.33,1.01l-.66,1.01h-.33s-.33,1.01-.33,1.01h-.33s-.33,1.01-.33,1.01h-.66s-.33,1.01-.33,1.01h-.33s-.33,1.01-.33,1.01h-.33s-.33,1.01-.33,1.01l-.66,1.01h-.33s-.33,1.01-.33,1.01h-.33s-.33,1.01-.33,1.01h-.66s-.33,1.01-.33,1.01h-.33s-.33,1.01-.33,1.01h-.33s-.33,1.01-.33,1.01h-.66s-.33,1.01-.33,1.01h-.33s-.33,1.01-.33,1.01h-.33s-.66,1.01-.66,1.01h-.33s-.33,1.01-.33,1.01h-.33s-.33,1.01-.33,1.01h-.33s-.66,1.01-.66,1.01h-.33s-.33,1.01-.33,1.01h-.33s-.33,1.01-.33,1.01h-.66s-.33,0-.33,0l-.33,1.01h-.33s-.33,1.01-.33,1.01h-.33s-.66,1.01-.66,1.01h-.33s-.33,1.01-.33,1.01h-.66s-.66,1.01-.66,1.01h-.33s-.33,1.01-.33,1.01h-.33s-.33,1.01-.33,1.01h-.66s-.33,1.01-.33,1.01h-.66s-.33,1.01-.33,1.01h-.33s-.66,1.01-.66,1.01h-.66s-.33,1.01-.33,1.01h-.33s-.66,1.01-.66,1.01h-.66s-.33,1.01-.33,1.01h-.33s-.33,1.01-.33,1.01h-.66s-.33,0-.33,0l-.33,1.01h-.66s-.66,1.01-.66,1.01h-.66s-.33,1.01-.33,1.01h-.33s-.33,1.01-.33,1.01h-.66s-.33,0-.33,0l-.33,1.01h-.66s-.66,1.01-.66,1.01h-.67s-.33,1.01-.33,1.01h-.66s-.66,1.01-.66,1.01h-.66s-.33,0-.33,0l-.33,1.01h-.66s-.33,0-.33,0l-.33,1.01h-.66s-.33,1.01-.33,1.01h-.99s-.33,0-.33,0l-.33,1.01h-.99s-.33,1.01-.33,1.01h-.99s-.33,1.01-.33,1.01h-.99s-.33,0-.33,0l-.33,1.01h-.33s-.66,0-.66,0h-.33s-.33,1.01-.33,1.01h-.66s-.66,0-.66,0h-.33s-.33,1.01-.33,1.01h-.99s-.66,1.01-.66,1.01h-.99s-.33,0-.33,0l-.66,1.01h-.99s-.33,0-.33,0l-.33,1.01h-.66s-.33,0-.33,0h-.99s-.66,1.01-.66,1.01h-.66s-.33,0-.33,0h-.66s-.66,1.01-.66,1.01h-.99s-.33,0-.33,0h-.99s-.33,0-.33,0l-.33,1.01h-.66s-.66,0-.66,0h-.66s-.33,0-.33,0h-.33s-.66,1.01-.66,1.01h-.66s-.33,0-.33,0h-.66s-.66,0-.66,0h-.66s-.33,0-.33,0h-.99s-.33,1.01-.33,1.01h-.99s-.66,0-.66,0h-.66s-.33,0-.33,0h-.66s-.66,0-.66,0h-.66s-.33,0-.33,0h-.99s-.33,0-.33,0h-.99s-.33,0-.33,0h-.66s-.33.03-.33.03h-.66l-.33-.03h-.66s-.33,0-.33,0h-.66s-.33,0-.33,0h-.99s-.33,0-.33,0h-.99s-.66,0-.66,0h-.66s-.33,0-.33,0h-.66s-.66,0-.66,0h-.99s-.33,0-.33,0l-.66-1.01h-.99s-.33,0-.33,0h-.33s-.66,0-.66,0h-.66s-.33,0-.33,0h-.33s-.66-1.01-.66-1.01h-.99s-.33,0-.33,0h-.99s-.33,0-.33,0h-.33l-.33-1.01h-.99s-.33,0-.33,0h-.66s-.33,0-.33,0l-.66-1.01h-.99s-.33,0-.33,0h-.99s-.33-1.01-.33-1.01h-.99s-.66,0-.66,0l-.33-1.01h-.66s-.33,0-.33,0h-.33s-.66-1.01-.66-1.01h-.66s-.33,0-.33,0h-.33s-.66-1.01-.66-1.01h-.99s-.33,0-.33,0l-.33-1.01h-.66s-.33,0-.33,0h-.33l-.33-1.01h-.99s-.33,0-.33,0l-.33-1.01h-.99s-.66-1.01-.66-1.01h-.66s-.33,0-.33,0l-.33-1.01h-.99s-.33,0-.33,0l-.33-1.01h-.66s-.66-1.01-.66-1.01h-.66s-.33,0-.33,0l-.33-1.01h-.99s-.33-1.01-.33-1.01h-.66s-.66-1.01-.66-1.01h-.66l-.33-1.01h-.66s-.66-1.01-.66-1.01h-.66l-.33-1.01h-.99s-.33-1.01-.33-1.01h-.66s-.33-1.01-.33-1.01h-.99s-.33-1.01-.33-1.01h-.33l-.33-1.01h-.99s-.33-1.01-.33-1.01h-.66l-.33-1.01h-.33s-.66-1.01-.66-1.01h-.67s-.33-1.01-.33-1.01h-.33s-.66-1.01-.66-1.01h-.66l-.33-1.01h-.33l-.33-1.01h-.66l-.33-1.01h-.66l-.33-1.01h-.66s-.33-1.01-.33-1.01h-.33l-.33-1.01h-.33l-.33-1.01h-.66s-.33,0-.33,0l-.33-1.01h-.33l-.33-1.01h-.66l-.33-1.01h-.33l-.33-1.01h-.33l-.33-1.01h-.66s-.33-1.01-.33-1.01h-.33l-.33-1.01h-.33s-.66-1.01-.66-1.01h-.33l-.33-1.01h-.33l-.33-1.01h-.66l-.33-1.01h-.33l-.33-1.01h-.33l-.33-1.01h-.66s-.33-1.01-.33-1.01h-.33l-.33-1.01h-.33s-.66-1.01-.66-1.01h-.33l-.33-1.01h-.33l-.33-1.01h-.33l-.66-1.01-.33-1.01h-.33l-.33-1.01h-.33l-.66-1.01h-.33l-.33-1.01h-.33l-.33-1.01-.33-1.01h-.66l-.33-1.01h-.33l-.33-1.01-.33-1.01h-.66l-.33-1.01h-.33l-.33-1.01h-.33l-.33-1.01-.66-1.01h-.33l-.33-1.01h-.33l-.33-1.01-.66-1.01h-.33l-.33-1.01-.33-1.01h-.33l-.33-1.01h-.66l-.33-1.01-.33-1.01h-.33l-.33-1.01-.66-1.01h-.33l-.33-1.01-.33-1.01h-.33l-.66-1.01h-.33l-.33-1.01-.33-1.01h-.33l-.33-1.01-.66-1.01h-.33l-.33-1.01-.33-1.01h-.33s-.66-1.01-.66-1.01l-.33-1.01h-.33l-.33-1.01-.33-1.01h-.33l-.66-1.01-.33-1.01-.33-1.01h-.33l-.33-1.01-.66-1.01h-.33l-.33-1.01-.33-1.01h-.33l-.33-1.01-.66-1.01-.33-1.01h-.33l-.33-1.01-.33-1.01h-.66s-.33-1.01-.33-1.01l-.33-1.01-.33-1.01h-.33l-.33-1.01-.66-1.01-.33-1.01h-.33l-.33-1.01-.33-1.01h-.66s-.33-1.01-.33-1.01l-.33-1.01-.33-1.01h-.33l-.33-1.01-.66-1.01-.33-1.01h-.33l-.33-1.01-.33-1.01-.66-1.01-.33-1.01h-.33l-.33-1.01-.33-1.01-.33-1.01h-.66l-.33-1.01-.33-1.01-.33-1.01h-.33l-.66-1.01-.33-1.01-.33-1.01-.33-1.01h-.33l-.66-1.01-.33-1.01-.33-1.01-.33-1.01h-.33l-.33-1.01-.66-1.01-.33-1.01-.33-1.01h-.33l-.33-1.01-.66-1.01-.33-1.01-.33-1.01-.33-1.01h-.33l-.33-1.01-.66-1.01-.33-1.01-.33-1.01h-.33l-.33-1.01-.66-1.01-.33-1.01-.33-1.01-.33-1.01h-.33l-.33-1.01-.66-1.01-.33-1.01-.33-1.01-.33-1.01-.33-1.01h-.66l-.33-1.01-.33-1.01-.33-1.01-.33-1.01-.33-1.01h-.66s-.33-1.01-.33-1.01l-.33-1.01-.33-1.01-.33-1.01-.66-1.01-.33-1.01-.33-1.01h-.33l-.33-1.01-.33-1.01-.66-1.01-.33-1.01-.33-1.01-.33-1.01-.33-1.01h-.66l-.33-1.01-.33-1.01-.33-1.01-.33-1.01-.66-1.01-.33-1.01-.33-1.01-.33-1.01h-.33l-.33-1.01-.66-1.01-.33-1.01-.33-1.01-.33-1.01-.33-1.01-.66-1.01-.33-1.01-.33-1.01h-.33l-.33-1.01-.33-1.01-.66-1.01-.33-1.01-.33-1.01-.33-1.01-.33-1.01-.66-1.01-.33-1.01-.33-1.01-.33-1.01h-.33l-.33-1.01-.66-1.01-.33-1.01-.33-1.01-.33-1.01-.33-1.01-.66-1.01-.33-1.01-.33-1.01-.33-1.01-.33-1.01-.33-1.01-.66-1.01-.33-1.01h-.33l-.33-1.01-.33-1.02-.66-1.01-.33-1.01-.33-1.01-.33-1.01-.33-1.01-.33-1.01-.66-1.01-.33-1.01-.33-1.01-.33-1.01-.33-1.01-.66-1.01-.33-1.01-.33-1.01-.33-1.01-.33-1.01-.33-1.01-.66-1.01-.33-1.01h-.33l-.33-1.01-.33-1.01-.66-1.01-.33-1.01-.33-1.01-.33-1.01-.33-1.01-.66-1.01-.33-1.01-.33-1.01-.33-1.01-.33-1.01-.33-1.01-.66-1.01-.33-1.01-.33-1.01-.33-1.01-.33-1.01-.66-1.01-.33-1.01-.33-1.01-.33-1.01-.33-1.01-.33-1.01-.66-1.01-.33-1.01-.33-1.01-.33-1.01-.33-1.01-.66-1.01-.33-1.01-.33-1.01-.33-1.01-.33-1.01-.33-1.01-.66-1.01-.33-1.01-.33-1.01-.33-1.01-.33-1.01-.66-1.01-.33-1.01-.33-1.01-.33-1.01-.33-1.01-.33-1.01-.66-1.01-.33-1.01-.33-1.01-.33-1.01-.33-1.01-.66-1.01-.33-1.01-.33-1.01-.33-1.01-.33-1.01-.33-1.01-.66-1.01-.33-1.01-.33-1.01-.33-1.01-.33-1.01-.66-1.01-.33-1.01-.33-1.01-.33-1.01-.33-1.01-.66-1.01-.33-1.01-.33-1.01-.33-1.01-.33-1.01-.33-1.01-.66-1.01-.33-1.01-.33-1.01-.33-1.01-.33-1.01-.66-1.01-.33-1.01-.33-1.01-.33-1.01-.33-1.01-.33-1.01-.66-1.01-.33-1.01-.33-1.01-.33-1.01-.33-1.01-.66-1.01-.33-1.01-.33-1.01-.33-1.01-.33-1.01-.33-1.01-.66-1.01-.33-1.01-.33-1.01-.33-1.01-.33-1.01-.66-1.01-.33-1.01-.33-1.01-.33-1.01-.33-1.01-.33-1.01-.66-1.01-.33-1.01-.33-1.01-.33-1.01-.33-1.01-.66-1.01-.33-1.01-.33-1.01-.33-2.02-.33-1.01-.33-1.01-.66-1.01-.33-1.01-.33-1.01-.33-1.01-.33-1.01-.66-1.01-.33-1.01-.33-1.01-.33-1.01-.33-1.01-.33-1.01-.66-1.01-.33-1.01-.33-1.01-.33-1.01-.33-1.01-.66-1.01-.33-1.01-.33-1.01-.33-1.01-.33-1.01-.66-1.01-.33-1.01-.33-1.01-.33-1.01-.33-1.01-.33-1.01-.66-1.01-.33-1.01-.33-1.01-.33-1.01-.33-1.01-.66-1.01-.33-1.01-.33-1.01-.33-1.01-.33-1.01-.33-1.01-.66-1.01-.33-1.01-.33-1.01-.33-1.01-.33-1.01-.66-1.01-.33-1.01-.33-1.01-.33-1.01-.33-1.01-.33-1.01-.66-1.01-.33-1.01-.33-1.01-.33-1.01-.33-1.01-.66-1.01-.33-1.01-.33-1.01-.33-1.01-.33-1.01-.33-1.01-.66-1.01-.33-1.01-.33-1.01-.33-1.01-.33-1.01-.66-1.01-.33-1.01-.33-1.01-.33-1.01-.33-1.01-.33-1.01-.66-1.01-.33-1.01-.33-1.01-.33-1.01-.33-1.01-.66-1.01-.33-1.01-.33-1.01-.33-1.01-.33-1.01-.66-1.01-.33-1.01-.33-1.01-.33-1.01-.33-1.01-.33-1.01-.66-1.01-.33-1.01-.33-1.01-.33-1.01-.33-1.01-.66-1.01-.33-1.01-.33-1.01-.33-1.01-.33-1.01-.33-1.01-.66-1.01-.33-1.01-.33-1.01-.33-1.01-.33-1.01-.67-1.01-.33-1.01-.33-1.01-.33-1.01-.33-1.01-.33-1.01-.66-1.01-.33-1.01-.33-1.01h-.33l-.33-1.01-.66-1.01-.33-1.01-.33-1.01-.33-1.01-.33-1.01-.33-1.01-.66-1.01-.33-1.01-.33-1.01-.33-1.01-.33-1.01-.66-1.01-.33-1.01-.33-1.01-.33-1.01-.33-1.01-.33-1.01-.66-1.01-.33-1.01-.33-1.01h-.33l-.33-1.01-.66-1.01-.33-1.01-.33-1.01-.33-1.01-.33-1.01-.33-1.01-.66-1.01-.33-1.01-.33-1.01-.33-1.01-.33-1.01-.66-1.01-.33-1.01h-.33l-.33-1.01-.33-1.01-.66-1.01-.33-1.01-.33-1.01-.33-1.01-.33-1.01-.33-1.01-.66-1.01-.33-1.01-.33-1.01h-.33l-.33-1.01-.66-1.01-.33-1.01-.33-1.01-.33-1.01-.33-1.01-.33-1.01-.66-1.01-.33-1.01h-.33l-.33-1.02-.33-1.01-.66-1.01-.33-1.01-.33-1.01-.33-1.01-.33-1.01-.33-1.01h-.66l-.33-1.01-.33-1.01-.33-1.01-.33-1.01-.66-1.01-.33-1.01-.33-1.01h-.33l-.33-1.01-.33-1.01-.66-1.01-.33-1.01-.33-1.01-.33-1.01-.33-1.01h-.66l-.33-1.01-.33-1.01-.33-1.01-.33-1.01-.33-1.01h-.66l-.33-1.01-.33-1.01-.33-1.01-.33-1.01-.66-1.01-.33-1.01h-.33l-.33-1.01-.33-1.01-.66-1.01-.33-1.01-.33-1.01h-.33l-.33-1.01-.33-1.01-.66-1.01-.33-1.01h-.33l-.33-1.01-.33-1.01-.66-1.01-.33-1.01-.33-1.01h-.33l-.33-1.01-.33-1.01-.66-1.01-.33-1.01h-.33l-.33-1.01-.33-1.01-.66-1.01-.33-1.01h-.33l-.33-1.01-.33-1.01-.33-1.01-.66-1.01h-.33l-.33-1.01-.33-1.01-.33-1.01h-.66l-.33-1.01-.33-1.01-.33-1.01h-.33l-.33-1.01-.66-1.01-.33-1.01-.33-1.01h-.33l-.33-1.01-.66-1.01-.33-1.01h-.33l-.33-1.01-.33-1.01-.33-1.01h-.66l-.33-1.01-.33-1.01h-.33l-.33-1.01-.66-1.01-.33-1.01h-.33l-.33-1.01-.33-1.01-.33-1.01h-.66l-.33-1.01-.33-1.01h-.33l-.33-1.01-.66-1.01-.33-1.01h-.33l-.33-1.01-.33-1.01h-.66l-.33-1.01-.33-1.01h-.33l-.33-1.01-.33-1.01-.66-1.01h-.33l-.33-1.01-.33-1.01h-.33s-.66-1.01-.66-1.01l-.33-1.01h-.33l-.33-1.01-.33-1.01h-.33l-.66-1.01-.33-1.01h-.33l-.33-1.01-.33-1.01h-.66l-.33-1.01h-.33l-.33-1.01-.33-1.01h-.33s-.66-1.01-.66-1.01l-.33-1.01h-.33l-.33-1.01-.33-1.01h-.66l-.33-1.01h-.33l-.33-1.01-.33-1.01h-.33l-.66-1.01-.33-1.01h-.33l-.33-1.01h-.33l-.66-1.01-.33-1.01h-.33l-.33-1.01h-.33l-.33-1.01h-.66l-.33-1.01-.33-1.01h-.33l-.33-1.01h-.66l-.33-1.01-.33-1.01h-.33l-.33-1.01h-.66l-.33-1.01h-.33l-.33-1.01h-.33l-.33-1.01-.66-1.01h-.33l-.33-1.01h-.33l-.33-1.01h-.66l-.33-1.01h-.33l-.33-1.01h-.33l-.33-1.01h-.67l-.33-1.01h-.33l-.33-1.01h-.33s-.66-1.01-.66-1.01h-.33l-.33-1.01h-.33l-.33-1.01h-.33l-.66-1.01h-.33l-.33-1.01h-.33l-.33-1.01h-.66l-.33-1.01h-.33l-.33-1.01h-.33l-.33-1.01h-.66l-.33-1.01h-.33l-.33-1.01h-.33s-.66,0-.66,0l-.33-1.01h-.33l-.33-1.01h-.33l-.33-1.01h-.66l-.33-1.01h-.66l-.33-1.01h-.66l-.33-1.01h-.33l-.33-1.01h-.66s-.66-1.01-.66-1.01h-.33l-.33-1.01h-.66s-.66-1.01-.66-1.01h-.33l-.33-1.01h-.66s-.66-1.01-.66-1.01h-.66l-.33-1.01h-.33l-.33-1.01h-.99s-.33-1.01-.33-1.01h-.66s-.66-1.01-.66-1.01h-.66l-.33-1.01h-.66s-.66-1.01-.66-1.01h-.66l-.33-1.01h-.99s-.33-1.01-.33-1.01h-.66l-.33-1.01h-.99s-.33-1.01-.33-1.01h-.99s-.66-1.01-.66-1.01h-.66l-.33-1.01h-.66s-.66,0-.66,0l-.33-1.01h-.99s-.66-1.01-.66-1.01h-.99s-.33-1.01-.33-1.01h-.99s-.33,0-.33,0l-.33-1.01h-.66s-.66,0-.66,0l-.33-1.01h-.99s-.66,0-.66,0l-.33-1.01h-.99s-.33,0-.33,0l-.66-1.01h-.99s-.33,0-.33,0l-.66-1.01h-.99s-.33,0-.33,0l-.33-1.01h-.99s-.33,0-.33,0h-.66s-.66,0-.66,0l-.33-1.01h-.99s-.33,0-.33,0h-.99s-.33-1.01-.33-1.01h-.66s-.66,0-.66,0h-.99s-.33,0-.33,0h-.33l-.66-1.01h-.99s-.33,0-.33,0h-.99s-.33,0-.33,0h-.99s-.66-1.01-.66-1.01h-.99s-.33,0-.33,0h-.99s-.33,0-.33,0h-.99s-.66,0-.66,0h-.99s-.33,0-.33,0h-.99s-.33,0-.33,0h-.66s-.66,0-.66,0h-.33s-.33.05-.33.05h-.66l-.33-.05h-.99s-.33,0-.33,0h-.66s-.66,0-.66,0h-.99s-.33,0-.33,0h-.99s-.33,0-.33,0h-.99s-.66,0-.66,0h-.99s-.33,0-.33,0l-.33,1.01h-.99s-.33,0-.33,0h-.66s-.66,0-.66,0h-.99s-.33,0-.33,0h-.33s-.66,1.01-.66,1.01h-.99s-.33,0-.33,0h-.99s-.33,0-.33,0l-.33,1.01h-.66s-.66,0-.66,0h-.99s-.33,0-.33,0l-.66,1.01h-.99s-.33,0-.33,0h-.66s-.33,1.01-.33,1.01h-.99s-.33,0-.33,0h-.66s-.33,1.01-.33,1.01h-.99s-.67,0-.67,0l-.33,1.01h-.99s-.33,0-.33,0l-.66,1.01h-.99s-.33,1.01-.33,1.01h-.99s-.33,0-.33,0h-.33s-.33,1.01-.33,1.01h-.33s-.66,0-.66,0h-.33s-.33,1.01-.33,1.01h-.66s-.66,0-.66,0l-.33,1.01h-.99s-.33,1.01-.33,1.01h-.99s-.33,1.01-.33,1.01h-.66s-.66,0-.66,0l-.33,1.01h-.66s-.33,1.01-.33,1.01h-.99s-.33,1.01-.33,1.01h-.99s-.66,1.01-.66,1.01h-.66s-.33,1.01-.33,1.01h-.66s-.66,1.01-.66,1.01h-.66s-.33,1.01-.33,1.01h-.33s-.66,0-.66,0l-.33,1.01h-.33s-.33,1.01-.33,1.01h-.99s-.33,1.01-.33,1.01h-.66s-.33,1.01-.33,1.01h-.99s-.33,1.01-.33,1.01h-.33s-.33,1.01-.33,1.01h-.99s-.33,1.01-.33,1.01h-.33s-.33,1.01-.33,1.01h-.66s-.66,1.01-.66,1.01h-.33s-.33,1.01-.33,1.01h-.66s-.66,1.01-.66,1.01h-.33s-.33,1.01-.33,1.01h-.33s-.33,1.01-.33,1.01h-.33s-.66,1.01-.66,1.01h-.66s-.33,1.01-.33,1.01h-.33s-.66,1.01-.66,1.01h-.33s-.33,1.01-.33,1.01h-.33s-.33,1.01-.33,1.01h-.99s-.33,1.01-.33,1.01h-.33s-.33,1.01-.33,1.01h-.33s-.66,1.01-.66,1.01h-.33s-.33,1.01-.33,1.01h-.33s-.33,1.01-.33,1.01h-.33s-.66,1.01-.66,1.01h-.33s-.33,1.01-.33,1.01h-.33s-.33,1.01-.33,1.01h-.66s-.33,1.01-.33,1.01h-.33s-.33,1.01-.33,1.01h-.33s-.66,1.01-.66,1.01h-.33s-.33,1.01-.33,1.01h-.33s-.33,1.01-.33,1.01h-.33s-.66,1.01-.66,1.01l-.33,1.01h-.33s-.33,1.01-.33,1.01h-.33s-.66,1.01-.66,1.01h-.33s-.33,1.01-.33,1.01h-.33s-.33,1.01-.33,1.01h-.33s-.66,1.01-.66,1.01l-.33,1.01h-.33s-.33,1.01-.33,1.01h-.33s-.66,1.01-.66,1.01h-.33s-.33,1.01-.33,1.01l-.33,1.01h-.33s-.33,1.01-.33,1.01h-.66s-.33,1.01-.33,1.01l-.33,1.01h-.33s-.33,1.01-.33,1.01h-.66s-.33,1.01-.33,1.01l-.33,1.01h-.33s-.33,1.01-.33,1.01h-.33s-.66,1.01-.66,1.01l-.33,1.01h-.33s-.33,1.01-.33,1.01h-.33s-.66,1.01-.66,1.01l-.33,1.01h-.33s-.33,1.01-.33,1.01l-.33,1.01h-.33s-.66,1.01-.66,1.01l-.33,1.01h-.33s-.33,1.01-.33,1.01h-.33s-.66,1.01-.66,1.01l-.33,1.01h-.33s-.33,1.01-.33,1.01l-.33,1.01h-.33s-.66,1.01-.66,1.01l-.33,1.01h-.33s-.33,1.01-.33,1.01l-.33,1.01h-.66s-.33,1.01-.33,1.01l-.33,1.01h-.33s-.33,1.01-.33,1.01l-.66,1.01-.33,1.01h-.33s-.33,1.01-.33,1.01l-.33,1.01h-.33s-.66,1.01-.66,1.01l-.33,1.01h-.33s-.33,1.01-.33,1.01l-.33,1.01h-.66s-.33,1.01-.33,1.01l-.33,1.01-.33,1.01h-.33s-.33,1.01-.33,1.01l-.66,1.01h-.33s-.33,1.01-.33,1.01l-.33,1.01-.33,1.01h-.66s-.33,1.01-.33,1.01l-.33,1.01-.33,1.01h-.33s-.33,1.01-.33,1.01l-.66,1.01-.33,1.01h-.33s-.33,1.01-.33,1.01l-.33,1.01-.66,1.01h-.33s-.33,1.01-.33,1.01l-.33,1.01-.33,1.01h-.33s-.66,1.01-.66,1.01l-.33,1.01-.33,1.01h-.33s-.33,1.01-.33,1.01l-.66,1.01-.33,1.01-.33,1.01h-.33s-.33,1.01-.33,1.01l-.33,1.01-.66,1.01h-.33s-.33,1.01-.33,1.01l-.33,1.01-.33,1.01-.66,1.01h-.33s-.33,1.01-.33,1.01l-.33,1.01-.33,1.01-.67,1.01h-.33s-.33,1.01-.33,1.01l-.33,1.01-.33,1.01-.33,1.01h-.66s-.33,1.01-.33,1.01l-.33,1.01-.33,1.01-.33,1.01-.66,1.01h-.33s-.33,1.01-.33,1.01l-.33,1.01-.33,1.01-.33,1.01-.66,1.01h-.33s-.33,1.01-.33,1.01l-.33,1.01-.33,1.01-.66,1.01-.33,1.01h-.33s-.33,1.01-.33,1.01l-.33,1.01-.33,1.01-.66,1.01-.33,1.01h-.33s-.33,1.01-.33,1.01l-.33,1.01-.66,1.01-.33,1.01-.33,1.01-.33,1.01-.33,1.01h-.33s-.66,1.01-.66,1.01l-.33,1.01-.33,1.01-.33,1.01-.33,1.01-.66,1.01h-.33s-.33,1.01-.33,1.01l-.33,1.01-.33,1.01-.33,1.01-.66,1.01-.33,1.01-.33,1.01-.33,1.01h-.33s-.66,1.01-.66,1.01l-.33,1.01-.33,1.01-.33,1.02-.33,1.01-.33,1.01-.66,1.01-.33,1.01h-.33s-.33,1.01-.33,1.01l-.33,1.01-.66,1.01-.33,1.01-.33,1.01-.33,1.01-.33,1.01-.66,1.01-.33,1.01-.33,1.01h-.33s-.33,1.01-.33,1.01l-.33,1.01-.66,1.01-.33,1.01-.33,1.01-.33,1.01-.33,1.01-.66,1.01-.33,1.01-.33,1.01-.33,1.01-.33,1.01-.33,1.01h-.66s-.33,1.01-.33,1.01l-.33,1.01-.33,1.01-.33,1.01-.66,1.01-.33,1.01-.33,1.01-.33,1.01-.33,1.01-.33,1.01-.66,1.01-.33,1.01-.33,1.01-.33,1.01-.33,1.01-.66,1.01h-.33s-.33,1.01-.33,1.01l-.33,1.01-.33,1.01-.33,1.01-.66,1.01-.33,1.01-.33,1.01-.33,1.01-.33,1.01-.66,1.01-.33,1.01-.33,1.01-.33,1.01-.33,1.01-.33,1.01-.66,1.01-.33,1.01-.33,1.01-.33,1.01-.33,1.01-.66,1.01-.33,1.01-.33,1.01-.33,1.01-.33,1.01-.66,1.01-.33,1.01-.33,1.01-.33,1.01h-.33s-.33,1.01-.33,1.01l-.66,1.01-.33,1.01-.33,1.01-.33,1.01-.33,1.01-.66,1.01-.33,1.01-.33,1.01-.33,1.01-.33,1.01-.33,1.01-.66,1.01-.33,1.01-.33,1.01-.33,1.01-.33,1.01-.66,1.01-.33,1.01-.33,1.01-.33,1.01-.33,1.01-.33,1.01-.66,1.01-.33,1.01-.33,1.01-.33,1.01-.33,1.01-.66,1.01-.33,1.01-.33,1.01-.33,1.01-.33,1.01-.33,1.01-.66,1.01-.33,1.01-.33,1.01-.33,1.01-.33,1.01-.66,1.01-.33,1.01-.33,1.01-.33,1.01-.33,1.01-.33,1.01-.66,1.01-.33,1.01-.33,1.01-.33,1.01-.33,1.01-.66,1.01-.33,1.01-.33,1.01-.33,1.01-.33,1.01-.33,1.01-.66,1.01-.33,1.01-.33,1.01-.33,1.01-.33,1.01-.66,1.01-.33,1.01-.33,1.01-.33,1.01-.33,1.01-.66,1.01-.33,2.02-.33,1.01-.33,1.01-.33,1.01-.33,1.01-.66,1.01-.33,1.01-.33,1.01-.33,1.01-.33,1.01-.66,1.01-.33,1.01-.33,1.01-.33,1.01-.33,1.01-.33,1.01-.66,1.01-.33,1.01-.33,1.01-.33,1.01-.33,1.01-.66,1.01-.33,1.01-.33,1.01-.33,1.01-.33,1.01-.33,1.01-.66,1.01-.28,1.01"/>
      <path class="cls-4" d="m928.8,431.98l-.35,1.01-.33,1.01-.66,1.01-.33,1.01-.33,1.01-.33,1.01-.33,1.01-.66,1.01-.33,1.01-.33,1.01-.33,1.01-.33,1.01-.33,1.01-.66,1.01-.33,1.01-.33,1.01-.33,1.01-.33,1.01-.66,1.01-.33,1.01-.33,1.01-.33,1.01-.33,1.01-.33,1.01-.66,1.01-.33,1.01-.33,1.01-.33,1.01-.33,1.01-.66,2.02-.33,1.01-.33,1.01-.33,1.01-.33,1.01-.33,1.01-.66,1.01-.33,1.01-.33,1.01-.33,1.01-.33,1.01-.66,1.01-.33,1.01-.33,1.01-.33,1.01-.33,1.01-.33,1.01-.66,1.01-.33,1.01-.33,1.01-.33,1.01-.33,1.01-.66,1.01-.33,1.01-.33,1.01-.33,1.01-.33,1.01-.33,1.01-.66,1.01-.33,1.01-.33,1.01-.33,1.01-.33,1.01-.66,1.01-.33,1.01-.33,1.01-.33,1.01-.33,1.01-.33,1.01-.66,1.01-.33,1.01-.33,1.01-.33,1.01-.33,1.01-.66,1.01-.33,1.01-.33,1.01-.33,1.01-.33,1.01-.66,1.01-.33,1.01-.33,1.01-.33,1.01-.33,1.01-.33,1.01-.66,1.01-.33,1.01-.33,1.01-.33,1.01-.33,1.01-.66,1.01-.33,1.01-.33,1.01-.33,1.01-.33,1.01-.33,1.01-.66,1.01-.33,1.01h-.33s-.33,1.01-.33,1.01l-.33,1.01-.66,1.01-.33,1.01-.33,1.01-.33,1.01-.33,1.01-.33,1.01-.66,1.01-.33,1.01-.33,1.01-.33,1.01-.33,1.01-.66,1.01-.33,1.01-.33,1.01-.33,1.01-.33,1.01-.33,1.01-.66,1.01-.33,1.01-.33,1.01-.33,1.01-.33,1.01-.66,1.01-.33,1.01-.33,1.01-.33,1.01-.33,1.01h-.33s-.66,1.01-.66,1.01l-.33,1.01-.33,1.01-.33,1.01-.33,1.01-.66,1.01-.33,1.01-.33,1.02-.33,1.01-.33,1.01-.66,1.01-.33,1.01-.33,1.01-.33,1.01-.33,1.01-.33,1.01h-.66s-.33,1.01-.33,1.01l-.33,1.01-.33,1.01-.33,1.01-.66,1.01-.33,1.01-.33,1.01-.33,1.01-.33,1.01-.33,1.01-.66,1.01-.33,1.01-.33,1.01h-.33s-.33,1.01-.33,1.01l-.66,1.01-.33,1.01-.33,1.01-.33,1.01-.33,1.01-.33,1.01-.66,1.01-.33,1.01-.33,1.01h-.33s-.33,1.01-.33,1.01l-.66,1.01-.33,1.01-.33,1.01-.33,1.01-.33,1.01-.33,1.01-.67,1.01h-.33s-.33,1.01-.33,1.01l-.33,1.01-.33,1.01-.66,1.01-.33,1.01-.33,1.01-.33,1.01-.33,1.01h-.33s-.66,1.01-.66,1.01l-.33,1.01-.33,1.01-.33,1.01-.33,1.01-.66,1.01h-.33s-.33,1.01-.33,1.01l-.33,1.01-.33,1.01-.33,1.01-.66,1.01-.33,1.01-.33,1.01h-.33s-.33,1.01-.33,1.01l-.66,1.01-.33,1.01-.33,1.01-.33,1.01h-.33s-.66,1.01-.66,1.01l-.33,1.01-.33,1.01-.33,1.01-.33,1.01h-.33s-.66,1.01-.66,1.01l-.33,1.01-.33,1.01-.33,1.01-.33,1.01h-.66s-.33,1.01-.33,1.01l-.33,1.01-.33,1.01-.33,1.01-.33,1.01h-.66s-.33,1.01-.33,1.01l-.33,1.01-.33,1.01-.33,1.01h-.66s-.33,1.01-.33,1.01l-.33,1.01-.33,1.01-.33,1.01h-.33s-.66,1.01-.66,1.01l-.33,1.01-.33,1.01-.33,1.01h-.33s-.66,1.01-.66,1.01l-.33,1.01-.33,1.01h-.33s-.33,1.01-.33,1.01l-.33,1.01-.66,1.01-.33,1.01h-.33s-.33,1.01-.33,1.01l-.33,1.01-.66,1.01h-.33s-.33,1.01-.33,1.01l-.33,1.01-.33,1.01h-.33s-.66,1.01-.66,1.01l-.33,1.01-.33,1.01h-.33s-.33,1.01-.33,1.01l-.66,1.01-.33,1.01h-.33s-.33,1.01-.33,1.01l-.33,1.01-.66,1.01h-.33s-.33,1.01-.33,1.01l-.33,1.01-.33,1.01h-.33s-.66,1.01-.66,1.01l-.33,1.01h-.33s-.33,1.01-.33,1.01l-.33,1.01-.66,1.01h-.33s-.33,1.01-.33,1.01l-.33,1.01h-.33s-.33,1.01-.33,1.01l-.66,1.01h-.33s-.33,1.01-.33,1.01l-.33,1.01h-.33s-.66,1.01-.66,1.01l-.33,1.01-.33,1.01h-.33s-.33,1.01-.33,1.01l-.33,1.01h-.66s-.33,1.01-.33,1.01l-.33,1.01h-.33s-.33,1.01-.33,1.01l-.66,1.01h-.33s-.33,1.01-.33,1.01l-.33,1.01h-.33s-.33,1.01-.33,1.01l-.66,1.01h-.33s-.33,1.01-.33,1.01h-.33s-.33,1.01-.33,1.01l-.66,1.01h-.33s-.33,1.01-.33,1.01l-.33,1.01h-.33s-.33,1.01-.33,1.01l-.66,1.01h-.33s-.33,1.01-.33,1.01h-.33s-.33,1.01-.33,1.01l-.66,1.01h-.33s-.33,1.01-.33,1.01h-.33s-.33,1.01-.33,1.01l-.33,1.01h-.66s-.33,1.01-.33,1.01h-.33s-.33,1.01-.33,1.01l-.33,1.01h-.66s-.33,1.01-.33,1.01h-.33s-.33,1.01-.33,1.01l-.33,1.01h-.66s-.33,1.01-.33,1.01h-.33s-.33,1.01-.33,1.01h-.33s-.33,1.01-.33,1.01l-.66,1.01h-.33s-.33,1.01-.33,1.01h-.33s-.33,1.01-.33,1.01h-.66s-.33,1.01-.33,1.01h-.33s-.33,1.01-.33,1.01h-.33s-.33,1.01-.33,1.01l-.66,1.01h-.33s-.33,1.01-.33,1.01h-.33s-.33,1.01-.33,1.01h-.66s-.33,1.01-.33,1.01h-.33s-.33,1.01-.33,1.01h-.33s-.33,1.01-.33,1.01h-.66s-.33,1.01-.33,1.01h-.33s-.33,1.01-.33,1.01h-.33s-.66,1.01-.66,1.01h-.33s-.33,1.01-.33,1.01h-.33s-.33,1.01-.33,1.01h-.33s-.66,1.01-.66,1.01h-.33s-.33,1.01-.33,1.01h-.33s-.33,1.01-.33,1.01h-.66s-.33,0-.33,0l-.33,1.01h-.33s-.33,1.01-.33,1.01h-.33s-.66,1.01-.66,1.01h-.33s-.33,1.01-.33,1.01h-.66s-.66,1.01-.66,1.01h-.33s-.33,1.01-.33,1.01h-.33s-.33,1.01-.33,1.01h-.66s-.33,1.01-.33,1.01h-.66s-.33,1.01-.33,1.01h-.33s-.66,1.01-.66,1.01h-.66s-.33,1.01-.33,1.01h-.33s-.66,1.01-.66,1.01h-.66s-.33,1.01-.33,1.01h-.33s-.33,1.01-.33,1.01h-.66s-.33,0-.33,0l-.33,1.01h-.66s-.66,1.01-.66,1.01h-.66s-.33,1.01-.33,1.01h-.33s-.33,1.01-.33,1.01h-.99s-.33,1.01-.33,1.01h-.66s-.66,1.01-.66,1.01h-.67s-.33,1.01-.33,1.01h-.66s-.66,1.01-.66,1.01h-.66s-.33,0-.33,0l-.33,1.01h-.66s-.33,0-.33,0l-.33,1.01h-.66s-.33,1.01-.33,1.01h-.66s-.33,0-.33,0h-.33s-.33,1.01-.33,1.01h-.99s-.33,1.01-.33,1.01h-.99s-.33,1.01-.33,1.01h-.66s-.33,0-.33,0h-.33s-.33,1.01-.33,1.01h-.33s-.66,0-.66,0h-.33s-.33,1.01-.33,1.01h-.66s-.66,0-.66,0h-.33s-.33,1.01-.33,1.01h-.99s-.66,1.01-.66,1.01h-.66s-.33,0-.33,0h-.33s-.66,1.01-.66,1.01h-.99s-.33,0-.33,0l-.33,1.01h-.66s-.33,0-.33,0h-.99s-.66,1.01-.66,1.01h-.66s-.33,0-.33,0h-.66s-.66,1.01-.66,1.01h-.99s-.33,0-.33,0h-.99s-.33,0-.33,0l-.33,1.01h-.66s-.66,0-.66,0h-.99s-.33,0-.33,0l-.66,1.01h-.66s-.33,0-.33,0h-.66s-.66,0-.66,0h-.66s-.33,0-.33,0h-.99s-.33,1.01-.33,1.01h-.99s-.66,0-.66,0h-.66s-.33,0-.33,0h-.66s-.66,0-.66,0h-.66s-.33,0-.33,0h-.99s-.33,0-.33,0h-.99s-.33,0-.33,0h-.66s-.33.03-.33.03h-.66l-.33-.03h-.66s-.33,0-.33,0h-.66s-.33,0-.33,0h-.99s-.33,0-.33,0h-.99s-.66,0-.66,0h-.66s-.33,0-.33,0h-.66s-.66,0-.66,0h-.99s-.33,0-.33,0l-.66-1.01h-.66s-.33,0-.33,0h-.66s-.66,0-.66,0h-.66s-.33,0-.33,0h-.33s-.66-1.01-.66-1.01h-.99s-.33,0-.33,0h-.99s-.33,0-.33,0h-.33l-.33-1.01h-.99s-.33,0-.33,0h-.66s-.33,0-.33,0l-.66-1.01h-.99s-.33,0-.33,0h-.99s-.33-1.01-.33-1.01h-.99s-.66,0-.66,0l-.33-1.01h-.66s-.33,0-.33,0h-.33s-.66-1.01-.66-1.01h-.99s-.33,0-.33,0l-.66-1.01h-.99s-.33,0-.33,0l-.33-1.01h-.66s-.33,0-.33,0h-.33l-.33-1.01h-.99s-.33,0-.33,0l-.33-1.01h-.66s-.33,0-.33,0l-.66-1.01h-.99s-.33-1.01-.33-1.01h-.99s-.33,0-.33,0l-.33-1.01h-.66s-.66-1.01-.66-1.01h-.66s-.33,0-.33,0l-.33-1.01h-.99s-.33-1.01-.33-1.01h-.66s-.66-1.01-.66-1.01h-.66l-.33-1.01h-.66s-.66-1.01-.66-1.01h-.66l-.33-1.01h-.99s-.33-1.01-.33-1.01h-.66l-.33-1.01h-.99s-.33-1.01-.33-1.01h-.33l-.33-1.01h-.99s-.33-1.01-.33-1.01h-.66l-.33-1.01h-.33s-.66-1.01-.66-1.01h-.67s-.33-1.01-.33-1.01h-.33s-.66-1.01-.66-1.01h-.66l-.33-1.01h-.33l-.33-1.01h-.66l-.33-1.01h-.66l-.33-1.01h-.66s-.33-1.01-.33-1.01h-.33l-.33-1.01h-.33l-.33-1.01h-.66s-.33,0-.33,0l-.33-1.01h-.33l-.33-1.01h-.66l-.33-1.01h-.33l-.33-1.01h-.33l-.33-1.01h-.66l-.33-1.01h-.33l-.33-1.01h-.33s-.66-1.01-.66-1.01h-.33l-.33-1.01h-.33l-.33-1.01h-.66s-.33-1.01-.33-1.01h-.33l-.33-1.01h-.33l-.33-1.01h-.66s-.33-1.01-.33-1.01h-.33l-.33-1.01h-.33s-.66-1.01-.66-1.01h-.33l-.33-1.01h-.33l-.33-1.01h-.33s-.66-1.01-.66-1.01l-.33-1.01h-.33l-.33-1.01h-.33l-.66-1.01h-.33l-.33-1.01h-.33l-.33-1.01-.33-1.01h-.66s-.33-1.01-.33-1.01h-.33l-.33-1.01-.33-1.01h-.66l-.33-1.01h-.33l-.33-1.01h-.33l-.33-1.01-.66-1.01h-.33l-.33-1.01h-.33l-.33-1.01-.66-1.01h-.33l-.33-1.01-.33-1.01h-.33l-.33-1.01h-.66l-.33-1.01-.33-1.01h-.33l-.33-1.01-.66-1.01h-.33l-.33-1.01-.33-1.01h-.33l-.66-1.01h-.33l-.33-1.01-.33-1.01h-.33l-.33-1.01-.66-1.01h-.33l-.33-1.01-.33-1.01h-.33l-.66-1.01-.33-1.01h-.33l-.33-1.01-.33-1.01h-.33l-.66-1.01-.33-1.01-.33-1.01h-.33l-.33-1.01-.66-1.01h-.33l-.33-1.01-.33-1.01h-.33l-.33-1.01-.66-1.01-.33-1.01h-.33l-.33-1.01-.33-1.01h-.66l-.33-1.01-.33-1.01-.33-1.01h-.33l-.33-1.01-.66-1.01-.33-1.01h-.33l-.33-1.01-.33-1.01h-.66l-.33-1.01-.33-1.01-.33-1.01h-.33l-.33-1.01-.66-1.01-.33-1.01h-.33l-.33-1.01-.33-1.01-.66-1.01-.33-1.01h-.33l-.33-1.01-.33-1.01-.33-1.01h-.66s-.33-1.01-.33-1.01l-.33-1.01-.33-1.01h-.33l-.66-1.01-.33-1.01-.33-1.01-.33-1.01h-.33s-.66-1.01-.66-1.01l-.33-1.01-.33-1.01-.33-1.01h-.33l-.33-1.01-.66-1.01-.33-1.01-.33-1.01h-.33l-.33-1.01-.66-1.01-.33-1.01-.33-1.01-.33-1.01h-.33l-.33-1.01-.66-1.01-.33-1.01-.33-1.01h-.33l-.33-1.01-.66-1.01-.33-1.01-.33-1.01-.33-1.01h-.33l-.33-1.01-.66-1.01-.33-1.01-.33-1.01-.33-1.01-.33-1.01h-.66s-.33-1.01-.33-1.01l-.33-1.01-.33-1.01-.33-1.01-.33-1.01h-.66l-.33-1.01-.33-1.01-.33-1.01-.33-1.01-.66-1.01-.33-1.01-.33-1.01h-.33l-.33-1.01-.33-1.01-.66-1.01-.33-1.01-.33-1.01-.33-1.01-.33-1.01h-.66l-.33-1.01-.33-1.01-.33-1.01-.33-1.01-.66-1.01-.33-1.01-.33-1.01-.33-1.01h-.33l-.33-1.01-.66-1.01-.33-1.01-.33-1.01-.33-1.01-.33-1.01-.66-1.01-.33-1.01-.33-1.01h-.33l-.33-1.01-.33-1.01-.66-1.01-.33-1.01-.33-1.01-.33-1.01-.33-1.01-.66-1.01-.33-1.01-.33-1.01-.33-1.01h-.33l-.33-1.01-.66-1.01-.33-1.01-.33-1.01-.33-1.01-.33-1.01-.66-1.01-.33-1.01-.33-1.01-.33-1.01-.33-1.01-.33-1.01-.66-1.01-.33-1.01h-.33l-.33-1.01-.33-1.02-.66-1.01-.33-1.01-.33-1.01-.33-1.01-.33-1.01-.33-1.01-.66-1.01-.33-1.01-.33-1.01-.33-1.01-.33-1.01-.66-1.01-.33-1.01-.33-1.01-.33-1.01-.33-1.01-.33-1.01-.66-1.01-.33-1.01h-.33l-.33-1.01-.33-1.01-.66-1.01-.33-1.01-.33-1.01-.33-1.01-.33-1.01-.66-1.01-.33-1.01-.33-1.01-.33-1.01-.33-1.01-.33-1.01-.66-1.01-.33-1.01-.33-1.01-.33-1.01-.33-1.01-.66-1.01-.33-1.01-.33-1.01-.33-1.01-.33-1.01-.33-1.01-.66-1.01-.33-1.01-.33-1.01-.33-1.01-.33-1.01-.66-1.01-.33-1.01-.33-1.01-.33-1.01-.33-1.01-.33-1.01-.66-1.01-.33-1.01-.33-1.01-.33-1.01-.33-1.01-.66-1.01-.33-1.01-.33-1.01-.33-1.01-.33-1.01-.33-1.01-.66-1.01-.33-1.01-.33-1.01-.33-1.01-.33-1.01-.66-1.01-.33-1.01-.33-1.01-.33-1.01-.33-1.01-.33-1.01-.66-1.01-.33-1.01-.33-1.01-.33-1.01-.33-1.01-.66-1.01-.33-1.01-.33-1.01-.33-1.01-.33-1.01-.66-1.01-.33-1.01-.33-1.01-.33-1.01-.33-1.01-.33-1.01-.66-1.01-.33-1.01-.33-1.01-.33-1.01-.33-1.01-.66-1.01-.33-1.01-.33-1.01-.33-1.01-.33-1.01-.33-1.01-.66-1.01-.33-1.01-.33-1.01-.33-1.01-.33-1.01-.66-1.01-.33-1.01-.33-1.01-.33-1.01-.33-1.01-.33-1.01-.66-1.01-.33-1.01-.33-1.01-.33-1.01-.33-1.01-.66-1.01-.33-1.01-.33-1.01-.33-1.01-.33-1.01-.33-1.01-.66-1.01-.33-1.01-.33-1.01-.33-1.01-.33-1.01-.66-1.01-.33-1.01-.33-1.01-.33-2.02-.33-1.01-.33-1.01-.66-1.01-.33-1.01-.33-1.01-.33-1.01-.33-1.01-.66-1.01-.33-1.01-.33-1.01-.33-1.01-.33-1.01-.33-1.01-.66-1.01-.33-1.01-.33-1.01-.33-1.01-.33-1.01-.66-1.01-.33-1.01-.33-1.01-.33-1.01-.33-1.01-.66-1.01-.33-1.01-.33-1.01-.33-1.01-.33-1.01-.33-1.01-.66-1.01-.33-1.01-.33-1.01-.33-1.01-.33-1.01-.66-1.01-.33-1.01-.33-1.01-.33-1.01-.33-1.01-.33-1.01-.66-1.01-.33-1.01-.33-1.01-.33-1.01-.33-1.01-.66-1.01-.33-1.01-.33-1.01-.33-1.01-.33-1.01-.33-1.01-.66-1.01-.33-1.01-.33-1.01-.33-1.01-.33-1.01-.66-1.01-.33-1.01-.33-1.01-.33-1.01-.33-1.01-.33-1.01-.66-1.01-.33-1.01-.33-1.01-.33-1.01-.33-1.01-.66-1.01-.33-1.01-.33-1.01-.33-1.01-.33-1.01-.33-1.01-.66-1.01-.33-1.01-.33-1.01-.33-1.01-.33-1.01-.66-1.01-.33-1.01-.33-1.01-.33-1.01-.33-1.01-.66-1.01-.33-1.01-.33-1.01-.33-1.01-.33-1.01-.33-1.01-.66-1.01-.33-1.01-.33-1.01-.33-1.01-.33-1.01-.66-1.01-.33-1.01-.33-1.01-.33-1.01-.33-1.01-.33-1.01-.66-1.01-.33-1.01-.33-1.01-.33-1.01-.33-1.01-.67-1.01-.33-1.01-.33-1.01-.33-1.01-.33-1.01-.33-1.01-.66-1.01-.33-1.01-.33-1.01h-.33l-.33-1.01-.66-1.01-.33-1.01-.33-1.01-.33-1.01-.33-1.01-.33-1.01-.66-1.01-.33-1.01-.33-1.01-.33-1.01-.33-1.01-.66-1.01-.33-1.01-.33-1.01-.33-1.01-.33-1.01-.33-1.01-.66-1.01-.33-1.01-.33-1.01h-.33l-.33-1.01-.66-1.01-.33-1.01-.33-1.01-.33-1.01-.33-1.01-.33-1.01-.66-1.01-.33-1.01-.33-1.01-.33-1.01-.33-1.01-.66-1.01-.33-1.01h-.33l-.33-1.01-.33-1.01-.66-1.01-.33-1.01-.33-1.01-.33-1.01-.33-1.01-.33-1.01-.66-1.01-.33-1.01-.33-1.01h-.33l-.33-1.01-.66-1.01-.33-1.01-.33-1.01-.33-1.01-.33-1.01-.33-1.01-.66-1.01-.33-1.01h-.33l-.33-1.02-.33-1.01-.66-1.01-.33-1.01-.33-1.01-.33-1.01-.33-1.01-.33-1.01h-.66l-.33-1.01-.33-1.01-.33-1.01-.33-1.01-.66-1.01-.33-1.01-.33-1.01h-.33l-.33-1.01-.33-1.01-.66-1.01-.33-1.01-.33-1.01-.33-1.01-.33-1.01h-.66l-.33-1.01-.33-1.01-.33-1.01-.33-1.01-.33-1.01h-.66l-.33-1.01-.33-1.01-.33-1.01-.33-1.01-.66-1.01-.33-1.01h-.33l-.33-1.01-.33-1.01-.66-1.01-.33-1.01-.33-1.01h-.33l-.33-1.01-.33-1.01-.66-1.01-.33-1.01h-.33l-.33-1.01-.33-1.01-.66-1.01-.33-1.01-.33-1.01h-.33l-.33-1.01-.33-1.01-.66-1.01-.33-1.01h-.33l-.33-1.01-.33-1.01-.66-1.01-.33-1.01h-.33l-.33-1.01-.33-1.01-.33-1.01-.66-1.01h-.33l-.33-1.01-.33-1.01-.33-1.01h-.66l-.33-1.01-.33-1.01-.33-1.01h-.33l-.33-1.01-.66-1.01-.33-1.01-.33-1.01h-.33l-.33-1.01-.66-1.01-.33-1.01h-.33l-.33-1.01-.33-1.01-.33-1.01h-.66l-.33-1.01-.33-1.01h-.33l-.33-1.01-.66-1.01-.33-1.01h-.33l-.33-1.01-.33-1.01-.33-1.01h-.66l-.33-1.01-.33-1.01h-.33l-.33-1.01-.66-1.01-.33-1.01h-.33l-.33-1.01-.33-1.01h-.66l-.33-1.01-.33-1.01h-.33l-.33-1.01-.33-1.01-.66-1.01h-.33l-.33-1.01-.33-1.01h-.33l-.66-1.01-.33-1.01h-.33l-.33-1.01-.33-1.01h-.33s-.66-1.01-.66-1.01l-.33-1.01h-.33l-.33-1.01-.33-1.01h-.66l-.33-1.01h-.33l-.33-1.01-.33-1.01h-.33l-.66-1.01-.33-1.01h-.33l-.33-1.01-.33-1.01h-.66l-.33-1.01h-.33l-.33-1.01-.33-1.01h-.33l-.66-1.01-.33-1.01h-.33l-.33-1.01h-.33s-.66-1.01-.66-1.01l-.33-1.01h-.33l-.33-1.01h-.33l-.33-1.01h-.66l-.33-1.01-.33-1.01h-.33l-.33-1.01h-.66l-.33-1.01-.33-1.01h-.33l-.33-1.01h-.66l-.33-1.01h-.33l-.33-1.01h-.33l-.33-1.01-.66-1.01h-.33l-.33-1.01h-.33l-.33-1.01h-.66l-.33-1.01h-.33l-.33-1.01h-.33l-.33-1.01h-.67l-.33-1.01h-.33l-.33-1.01h-.33s-.66-1.01-.66-1.01h-.33l-.33-1.01h-.33l-.33-1.01h-.33s-.66-1.01-.66-1.01h-.33l-.33-1.01h-.33l-.33-1.01h-.66s-.33-1.01-.33-1.01h-.33l-.33-1.01h-.33l-.33-1.01h-.66l-.33-1.01h-.33l-.33-1.01h-.99s-.33-1.01-.33-1.01h-.33l-.33-1.01h-.33l-.33-1.01h-.66l-.33-1.01h-.66l-.33-1.01h-.66l-.33-1.01h-.33l-.33-1.01h-.66s-.66-1.01-.66-1.01h-.33l-.33-1.01h-.66s-.66-1.01-.66-1.01h-.33l-.33-1.01h-.66s-.66-1.01-.66-1.01h-.66l-.33-1.01h-.33l-.33-1.01h-.99s-.33-1.01-.33-1.01h-.66s-.66-1.01-.66-1.01h-.66l-.33-1.01h-.66s-.66-1.01-.66-1.01h-.66l-.33-1.01h-.99s-.33-1.01-.33-1.01h-.66l-.33-1.01h-.99s-.33-1.01-.33-1.01h-.99s-.66-1.01-.66-1.01h-.66l-.33-1.01h-.66s-.66,0-.66,0l-.33-1.01h-.99s-.66-1.01-.66-1.01h-.99s-.33-1.01-.33-1.01h-.33s-.66,0-.66,0h-.33l-.33-1.01h-.66s-.66,0-.66,0l-.33-1.01h-.99s-.66,0-.66,0l-.33-1.01h-.99s-.33,0-.33,0l-.66-1.01h-.99s-.33,0-.33,0l-.66-1.01h-.99s-.33,0-.33,0l-.33-1.01h-.99s-.33,0-.33,0h-.66s-.66,0-.66,0l-.33-1.01h-.99s-.33,0-.33,0h-.99s-.33-1.01-.33-1.01h-.66s-.66,0-.66,0h-.99s-.33,0-.33,0h-.33l-.66-1.01h-.99s-.33,0-.33,0h-.99s-.33,0-.33,0h-.99s-.66-1.01-.66-1.01h-.99s-.33,0-.33,0h-.99s-.33,0-.33,0h-.99s-.66,0-.66,0h-.66s-.33,0-.33,0h-.99s-.33,0-.33,0h-.99s-.66,0-.66,0h-.33s-.33.05-.33.05h-.66s-.33-.05-.33-.05h-.99s-.33,0-.33,0h-.66s-.66,0-.66,0h-.99s-.33,0-.33,0h-.99s-.33,0-.33,0h-.99s-.66,0-.66,0h-.99s-.33,0-.33,0l-.33,1.01h-.99s-.33,0-.33,0h-.66s-.66,0-.66,0h-.99s-.33,0-.33,0h-.33s-.66,1.01-.66,1.01h-.99s-.33,0-.33,0h-.99s-.33,0-.33,0l-.33,1.01h-.66s-.66,0-.66,0h-.99s-.33,0-.33,0l-.66,1.01h-.99s-.33,0-.33,0h-.66s-.33,1.01-.33,1.01h-.99s-.33,0-.33,0h-.66s-.33,1.01-.33,1.01h-.66s-.33,0-.33,0h-.67s-.33,1.01-.33,1.01h-.99s-.33,0-.33,0l-.66,1.01h-.99s-.33,1.01-.33,1.01h-.99s-.33,0-.33,0h-.33s-.33,1.01-.33,1.01h-.33s-.66,0-.66,0h-.33s-.33,1.01-.33,1.01h-.66s-.66,0-.66,0l-.33,1.01h-.99s-.33,1.01-.33,1.01h-.99s-.33,1.01-.33,1.01h-.66s-.66,0-.66,0l-.33,1.01h-.66s-.33,1.01-.33,1.01h-.33s-.66,0-.66,0l-.33,1.01h-.99s-.66,1.01-.66,1.01h-.66s-.33,1.01-.33,1.01h-.66s-.66,1.01-.66,1.01h-.66s-.33,1.01-.33,1.01h-.33s-.66,0-.66,0l-.33,1.01h-.33s-.33,1.01-.33,1.01h-.99s-.33,1.01-.33,1.01h-.66s-.33,1.01-.33,1.01h-.99s-.33,1.01-.33,1.01h-.33s-.33,1.01-.33,1.01h-.99s-.33,1.01-.33,1.01h-.33s-.33,1.01-.33,1.01h-.66s-.66,1.01-.66,1.01h-.33s-.33,1.01-.33,1.01h-.66s-.66,1.01-.66,1.01h-.33s-.33,1.01-.33,1.01h-.33s-.33,1.01-.33,1.01h-.33s-.66,1.01-.66,1.01h-.66s-.33,1.01-.33,1.01h-.33s-.66,1.01-.66,1.01h-.33s-.33,1.01-.33,1.01h-.33s-.33,1.01-.33,1.01h-.99s-.33,1.01-.33,1.01h-.33s-.33,1.01-.33,1.01h-.33s-.66,1.01-.66,1.01h-.33s-.33,1.01-.33,1.01h-.33s-.33,1.01-.33,1.01h-.33s-.66,1.01-.66,1.01h-.33s-.33,1.01-.33,1.01h-.33s-.33,1.01-.33,1.01h-.66s-.33,1.01-.33,1.01h-.33s-.33,1.01-.33,1.01h-.33s-.66,1.01-.66,1.01h-.33s-.33,1.01-.33,1.01h-.33s-.33,1.01-.33,1.01h-.33s-.66,1.01-.66,1.01l-.33,1.01h-.33s-.33,1.01-.33,1.01h-.33s-.66,1.01-.66,1.01h-.33s-.33,1.01-.33,1.01h-.33s-.33,1.01-.33,1.01h-.33s-.66,1.01-.66,1.01l-.33,1.01h-.33s-.33,1.01-.33,1.01h-.33s-.66,1.01-.66,1.01h-.33s-.33,1.01-.33,1.01l-.33,1.01h-.33s-.33,1.01-.33,1.01h-.66s-.33,1.01-.33,1.01l-.33,1.01h-.33s-.33,1.01-.33,1.01h-.66s-.33,1.01-.33,1.01l-.33,1.01h-.33s-.33,1.01-.33,1.01h-.33s-.66,1.01-.66,1.01l-.33,1.01h-.33s-.33,1.01-.33,1.01h-.33s-.66,1.01-.66,1.01l-.33,1.01h-.33s-.33,1.01-.33,1.01l-.33,1.01h-.33s-.66,1.01-.66,1.01l-.33,1.01h-.33s-.33,1.01-.33,1.01h-.33s-.66,1.01-.66,1.01l-.33,1.01h-.33s-.33,1.01-.33,1.01l-.33,1.01h-.33s-.66,1.01-.66,1.01l-.33,1.01h-.33s-.33,1.01-.33,1.01l-.33,1.01h-.66s-.33,1.01-.33,1.01l-.33,1.01h-.33s-.33,1.01-.33,1.01l-.66,1.01-.33,1.01h-.33s-.33,1.01-.33,1.01l-.33,1.01h-.33s-.66,1.01-.66,1.01l-.33,1.01h-.33s-.33,1.01-.33,1.01l-.33,1.01h-.66s-.33,1.01-.33,1.01l-.33,1.01-.33,1.01h-.33s-.33,1.01-.33,1.01l-.66,1.01h-.33s-.33,1.01-.33,1.01l-.33,1.01-.33,1.01h-.66s-.33,1.01-.33,1.01l-.33,1.01-.33,1.01h-.33s-.33,1.01-.33,1.01l-.66,1.01-.33,1.01h-.33s-.33,1.01-.33,1.01l-.33,1.01-.66,1.01h-.33s-.33,1.01-.33,1.01l-.33,1.01-.33,1.01h-.33s-.66,1.01-.66,1.01l-.33,1.01-.33,1.01h-.33s-.33,1.01-.33,1.01l-.66,1.01-.33,1.01-.33,1.01h-.33s-.33,1.01-.33,1.01l-.33,1.01-.66,1.01h-.33s-.33,1.01-.33,1.01l-.33,1.01-.33,1.01-.66,1.01h-.33s-.33,1.01-.33,1.01l-.33,1.01-.33,1.01-.67,1.01h-.33s-.33,1.01-.33,1.01l-.33,1.01-.33,1.01-.33,1.01h-.66s-.33,1.01-.33,1.01l-.33,1.01-.33,1.01-.33,1.01-.66,1.01h-.33s-.33,1.01-.33,1.01l-.33,1.01-.33,1.01-.33,1.01-.66,1.01h-.33s-.33,1.01-.33,1.01l-.33,1.01-.33,1.01-.66,1.01-.33,1.01h-.33s-.33,1.01-.33,1.01l-.33,1.01-.33,1.01-.66,1.01-.33,1.01h-.33s-.33,1.01-.33,1.01l-.33,1.01-.66,1.01-.33,1.01-.33,1.01-.33,1.01-.33,1.01h-.33s-.66,1.01-.66,1.01l-.33,1.01-.33,1.01-.33,1.01-.33,1.01-.66,1.01h-.33s-.33,1.01-.33,1.01l-.33,1.01-.33,1.01-.33,1.01-.66,1.01-.33,1.01-.33,1.01-.33,1.01h-.33s-.66,1.01-.66,1.01l-.33,1.01-.33,1.01-.33,1.02-.33,1.01-.33,1.01-.66,1.01-.33,1.01h-.33s-.33,1.01-.33,1.01l-.33,1.01-.66,1.01-.33,1.01-.33,1.01-.33,1.01-.33,1.01-.66,1.01-.33,1.01-.33,1.01h-.33s-.33,1.01-.33,1.01l-.33,1.01-.66,1.01-.33,1.01-.33,1.01-.33,1.01-.33,1.01-.66,1.01-.33,1.01-.33,1.01-.33,1.01-.33,1.01-.33,1.01h-.66s-.33,1.01-.33,1.01l-.33,1.01-.33,1.01-.33,1.01-.66,1.01-.33,1.01-.33,1.01-.33,1.01-.33,1.01-.33,1.01-.66,1.01-.33,1.01-.33,1.01-.33,1.01-.33,1.01-.66,1.01h-.33s-.33,1.01-.33,1.01l-.33,1.01-.33,1.01-.33,1.01-.66,1.01-.33,1.01-.33,1.01-.33,1.01-.33,1.01-.66,1.01-.33,1.01-.33,1.01-.33,1.01-.33,1.01-.33,1.01-.66,1.01-.33,1.01-.33,1.01-.33,1.01-.33,1.01-.66,1.01-.33,1.01-.33,1.01-.33,1.01-.33,1.01-.66,1.01-.33,1.01-.33,1.01-.33,1.01h-.33s-.33,1.01-.33,1.01l-.66,1.01-.33,1.01-.33,1.01-.33,1.01-.33,1.01-.66,1.01-.33,1.01-.33,1.01-.33,1.01-.33,1.01-.33,1.01-.66,1.01-.33,1.01-.33,1.01-.33,1.01-.33,1.01-.66,1.01-.33,1.01-.33,1.01-.33,1.01-.33,1.01-.33,1.01-.66,1.01-.33,1.01-.33,1.01-.33,1.01-.33,1.01-.66,1.01-.33,1.01-.33,1.01-.33,1.01-.33,1.01-.33,1.01-.66,1.01-.33,1.01-.33,1.01-.33,1.01-.33,1.01-.66,1.01-.33,1.01-.33,1.01-.33,1.01-.33,1.01-.33,1.01-.66,1.01-.33,1.01-.33,1.01-.33,1.01-.33,1.01-.66,1.01-.33,1.01-.33,1.01-.33,1.01-.33,1.01-.33,1.01-.66,1.01-.33,1.01-.33,1.01-.33,1.01-.33,1.01-.66,1.01-.33,1.01-.33,1.01-.33,1.01-.33,1.01-.66,1.01-.33,2.02-.33,1.01-.33,1.01-.33,1.01-.33,1.01-.66,1.01-.33,1.01-.33,1.01-.33,1.01-.33,1.01-.66,1.01-.33,1.01-.33,1.01-.33,1.01-.33,1.01-.33,1.01-.66,1.01-.33,1.01-.33,1.01-.33,1.01-.33,1.01-.66,1.01-.33,1.01-.33,1.01-.33,1.01-.33,1.01-.33,1.01-.66,1.01-.28,1.01"/>
    </g>
    <g>
      <line class="cls-5" x1="1874.78" y1="432" x2="64.8" y2="432"/>
      <polygon class="cls-2" points="1860.91 411.66 1936.8 431.99 1860.91 452.34 1860.91 411.66"/>
    </g>
    <g>
      <line class="cls-5" x1="64.8" y1="49.61" x2="64.8" y2="729.98"/>
      <polygon class="cls-2" points="48.53 60.71 64.79 0 81.07 60.71 48.53 60.71"/>
      <polygon class="cls-2" points="44.46 716.11 64.79 792 85.14 716.11 44.46 716.11"/>
    </g>
  </g>
  <g id="TEXT">
    <text class="cls-7" transform="translate(244.88 950.03)"><tspan x="0" y="0">90°</tspan></text>
    <text class="cls-7" transform="translate(447.41 950.03)"><tspan x="0" y="0">180°</tspan></text>
    <text class="cls-7" transform="translate(663.41 950.03)"><tspan x="0" y="0">270°</tspan></text>
    <text class="cls-7" transform="translate(879.41 950.03)"><tspan x="0" y="0">360°</tspan></text>
    <text class="cls-7" transform="translate(1095.41 950.03)"><tspan x="0" y="0">450°</tspan></text>
    <text class="cls-7" transform="translate(1311.4 950.03)"><tspan x="0" y="0">540°</tspan></text>
    <text class="cls-7" transform="translate(1527.41 950.03)"><tspan x="0" y="0">630°</tspan></text>
    <text class="cls-7" transform="translate(1743.4 950.03)"><tspan x="0" y="0">720°</tspan></text>
    <text class="cls-7" transform="translate(1951.66 878.03)"><tspan class="cls-6" x="0" y="0">r</tspan><tspan x="15.3" y="0">adians</tspan></text>
    <text class="cls-7" transform="translate(43.2 541.12) rotate(-90)"><tspan x="0" y="0">Amplitude</tspan></text>
    <text class="cls-7" transform="translate(243.14 878.03)"><tspan x="0" y="0">π/2</tspan></text>
    <text class="cls-7" transform="translate(482.5 878.03)"><tspan x="0" y="0">π</tspan></text>
    <text class="cls-7" transform="translate(661.66 878.03)"><tspan x="0" y="0">3π/2</tspan></text>
    <text class="cls-7" transform="translate(901.03 878.03)"><tspan x="0" y="0">2π</tspan></text>
    <text class="cls-7" transform="translate(1093.66 878.03)"><tspan x="0" y="0">5π/2</tspan></text>
    <text class="cls-7" transform="translate(1333.03 878.03)"><tspan x="0" y="0">3π</tspan></text>
    <text class="cls-7" transform="translate(1525.66 878.03)"><tspan x="0" y="0">7π/2</tspan></text>
    <text class="cls-7" transform="translate(1765.03 878.03)"><tspan x="0" y="0">4π</tspan></text>
    <text class="cls-7" transform="translate(42.36 950.03)"><tspan x="0" y="0">0°</tspan></text>
    <text class="cls-7" transform="translate(51.32 878.03)"><tspan x="0" y="0">0</tspan></text>
    <line class="cls-3" x1="280.8" y1="36" x2="280.8" y2="828"/>
    <line class="cls-3" x1="496.8" y1="36" x2="496.8" y2="828"/>
    <line class="cls-3" x1="712.8" y1="36" x2="712.8" y2="828"/>
    <line class="cls-3" x1="928.8" y1="36" x2="928.8" y2="828"/>
    <line class="cls-3" x1="1144.8" y1="36" x2="1144.8" y2="828"/>
    <line class="cls-3" x1="1360.8" y1="36" x2="1360.8" y2="828"/>
    <line class="cls-3" x1="1576.8" y1="36" x2="1576.8" y2="828"/>
    <line class="cls-3" x1="1792.8" y1="36" x2="1792.8" y2="828"/>
    <text class="cls-7" transform="translate(1951.66 950.03)"><tspan x="0" y="0">deg</tspan><tspan class="cls-1" x="79.43" y="0">r</tspan><tspan x="95.23" y="0">ees</tspan></text>
  </g>
</svg>