<?xml version="1.0" encoding="UTF-8"?>
<svg xmlns="http://www.w3.org/2000/svg" xmlns:xlink="http://www.w3.org/1999/xlink" viewBox="0 0 1317.6 439.2">
  <defs>
    <style>
      .cls-1, .cls-2, .cls-3, .cls-4, .cls-5, .cls-6, .cls-7, .cls-8, .cls-9 {
        fill: none;
      }

      .cls-10 {
        clip-path: url(#clippath);
      }

      .cls-2, .cls-3, .cls-11, .cls-5, .cls-6, .cls-9 {
        stroke-linejoin: round;
      }

      .cls-2, .cls-3, .cls-11, .cls-5, .cls-8 {
        stroke-width: 1.42px;
      }

      .cls-2, .cls-6, .cls-9 {
        stroke-linecap: round;
      }

      .cls-2, .cls-9 {
        stroke: #307eef;
      }

      .cls-3 {
        stroke-dasharray: 0 0 2.96 1.28;
      }

      .cls-3, .cls-5 {
        stroke: rgba(201, 209, 217, .3);
      }

      .cls-12, .cls-11 {
        fill: #c9d1d9;
      }

      .cls-13 {
        clip-path: url(#clippath-1);
      }

      .cls-14 {
        clip-path: url(#clippath-4);
      }

      .cls-15 {
        clip-path: url(#clippath-3);
      }

      .cls-16 {
        clip-path: url(#clippath-2);
      }

      .cls-17 {
        clip-path: url(#clippath-7);
      }

      .cls-18 {
        clip-path: url(#clippath-8);
      }

      .cls-19 {
        clip-path: url(#clippath-6);
      }

      .cls-20 {
        clip-path: url(#clippath-5);
      }

      .cls-21 {
        clip-path: url(#clippath-9);
      }

      .cls-11, .cls-4, .cls-7, .cls-8 {
        stroke: #c9d1d9;
      }

      .cls-22 {
        clip-path: url(#clippath-14);
      }

      .cls-23 {
        clip-path: url(#clippath-13);
      }

      .cls-24 {
        clip-path: url(#clippath-12);
      }

      .cls-25 {
        clip-path: url(#clippath-10);
      }

      .cls-26 {
        clip-path: url(#clippath-16);
      }

      .cls-27 {
        clip-path: url(#clippath-11);
      }

      .cls-4 {
        stroke-width: 3.97px;
      }

      .cls-4, .cls-7 {
        stroke-miterlimit: 10;
      }

      .cls-5 {
        stroke-dasharray: 0 0 1.85 .8;
      }

      .cls-6 {
        stroke: #d85648;
        stroke-width: 2.83px;
      }

      .cls-7 {
        stroke-dasharray: 0 0 2.96 1.28;
        stroke-width: 1.42px;
      }

      .cls-8 {
        stroke-linecap: square;
      }

      .cls-9 {
        stroke-width: 8.5px;
      }
    </style>
    <clipPath id="clippath">
      <polygon class="cls-1" points="47.91 39.2 336.4 118.45 336.4 305.39 47.91 196.53 47.91 39.2"/>
    </clipPath>
    <clipPath id="clippath-1">
      <polygon class="cls-1" points="47.91 39.2 336.4 118.45 336.4 305.39 47.91 196.53 47.91 39.2"/>
    </clipPath>
    <clipPath id="clippath-2">
      <polygon class="cls-1" points="47.91 39.2 336.4 118.45 336.4 305.39 47.91 196.53 47.91 39.2"/>
    </clipPath>
    <clipPath id="clippath-3">
      <polygon class="cls-1" points="47.91 39.2 336.4 118.45 336.4 305.39 47.91 196.53 47.91 39.2"/>
    </clipPath>
    <clipPath id="clippath-4">
      <polygon class="cls-1" points="47.91 39.2 336.4 118.45 336.4 305.39 47.91 196.53 47.91 39.2"/>
    </clipPath>
    <clipPath id="clippath-5">
      <polygon class="cls-1" points="47.91 39.2 336.4 118.45 336.4 305.39 47.91 196.53 47.91 39.2"/>
    </clipPath>
    <clipPath id="clippath-6">
      <polygon class="cls-1" points="47.91 39.2 336.4 118.45 336.4 305.39 47.91 196.53 47.91 39.2"/>
    </clipPath>
    <clipPath id="clippath-7">
      <polygon class="cls-1" points="47.91 39.2 336.4 118.45 336.4 305.39 47.91 196.53 47.91 39.2"/>
    </clipPath>
    <clipPath id="clippath-8">
      <polygon class="cls-1" points="47.91 39.2 336.4 118.45 336.4 305.39 47.91 196.53 47.91 39.2"/>
    </clipPath>
    <clipPath id="clippath-9">
      <polygon class="cls-1" points="47.91 39.2 336.4 118.45 336.4 305.39 47.91 196.53 47.91 39.2"/>
    </clipPath>
    <clipPath id="clippath-10">
      <polygon class="cls-1" points="47.91 39.2 336.4 118.45 336.4 305.39 47.91 196.53 47.91 39.2"/>
    </clipPath>
    <clipPath id="clippath-11">
      <polygon class="cls-1" points="47.91 39.2 336.4 118.45 336.4 305.39 47.91 196.53 47.91 39.2"/>
    </clipPath>
    <clipPath id="clippath-12">
      <polygon class="cls-1" points="47.91 39.2 336.4 118.45 336.4 305.39 47.91 196.53 47.91 39.2"/>
    </clipPath>
    <clipPath id="clippath-13">
      <polygon class="cls-1" points="47.91 39.2 336.4 118.45 336.4 305.39 47.91 196.53 47.91 39.2"/>
    </clipPath>
    <clipPath id="clippath-14">
      <polygon class="cls-1" points="47.91 39.2 336.4 118.45 336.4 305.39 47.91 196.53 47.91 39.2"/>
    </clipPath>
    <clipPath id="clippath-16">
      <polygon class="cls-1" points="47.91 39.2 336.4 118.45 336.4 305.39 47.91 196.53 47.91 39.2"/>
    </clipPath>
  </defs>
  <g id="Ebene_9" data-name="Ebene 9">
    <line class="cls-7" x1="439.46" y1="275.65" x2="725.31" y2="373.33"/>
    <line class="cls-7" x1="534.45" y1="248.61" x2="819.75" y2="337.7"/>
    <line class="cls-7" x1="620.61" y1="223.33" x2="905.68" y2="305.28"/>
    <line class="cls-7" x1="701.43" y1="200.34" x2="984.2" y2="275.65"/>
    <line class="cls-7" x1="843.6" y1="158.69" x2="1122.54" y2="223.45"/>
    <line class="cls-7" x1="910.24" y1="140.66" x2="1183.79" y2="200.34"/>
    <line class="cls-7" x1="969.32" y1="123.12" x2="1240.53" y2="178.93"/>
    <line class="cls-7" x1="1025.45" y1="106.9" x2="1293.26" y2="159.04"/>
    <line class="cls-7" x1="775.18" y1="178.75" x2="1056.23" y2="248.47"/>
    <g class="cls-10">
      <path class="cls-3" d="m59.03,200.72V42.25"/>
    </g>
    <path id="m1930097c36" class="cls-11" d="m59.03,200.72v2.53"/>
    <g class="cls-13">
      <path class="cls-3" d="m105.13,218.12V54.92"/>
    </g>
    <path id="m1930097c36-2" data-name="m1930097c36" class="cls-11" d="m105.13,218.12v2.61"/>
    <g class="cls-16">
      <path class="cls-3" d="m154.07,236.59V68.36"/>
    </g>
    <path id="m1930097c36-3" data-name="m1930097c36" class="cls-11" d="m154.07,236.59v2.69"/>
    <g class="cls-15">
      <path class="cls-3" d="m206.12,256.23V82.66"/>
    </g>
    <path id="m1930097c36-4" data-name="m1930097c36" class="cls-11" d="m206.12,256.23v2.77"/>
    <g class="cls-14">
      <path class="cls-3" d="m261.58,277.16V97.9"/>
    </g>
    <path id="m1930097c36-5" data-name="m1930097c36" class="cls-11" d="m261.58,277.16v2.87"/>
    <g class="cls-20">
      <path class="cls-3" d="m320.81,299.51V114.17"/>
    </g>
    <path id="m1930097c36-6" data-name="m1930097c36" class="cls-11" d="m320.81,299.51v2.96"/>
    <g id="line2d_13" data-name="line2d 13">
      <g class="cls-19">
        <path class="cls-3" d="m47.91,189.37l288.49,107.52"/>
      </g>
    </g>
    <g id="line2d_14" data-name="line2d 14">
      <path id="mf6c0d1a0b4" class="cls-11" d="m47.91,189.37l-1.31-.49"/>
    </g>
    <g id="line2d_15" data-name="line2d 15">
      <g class="cls-17">
        <path class="cls-3" d="m47.91,171.5l288.49,104.15"/>
      </g>
    </g>
    <g id="line2d_16" data-name="line2d 16">
      <path id="mf6c0d1a0b4-2" data-name="mf6c0d1a0b4" class="cls-11" d="m47.91,171.5l-1.31-.47"/>
    </g>
    <g id="line2d_17" data-name="line2d 17">
      <g class="cls-18">
        <path class="cls-3" d="m47.91,153.62l288.49,100.79"/>
      </g>
    </g>
    <g id="line2d_18" data-name="line2d 18">
      <path id="mf6c0d1a0b4-3" data-name="mf6c0d1a0b4" class="cls-11" d="m47.91,153.62l-1.31-.46"/>
    </g>
    <g id="line2d_19" data-name="line2d 19">
      <g class="cls-21">
        <path class="cls-3" d="m47.91,135.74l288.49,97.42"/>
      </g>
    </g>
    <g id="line2d_20" data-name="line2d 20">
      <path id="mf6c0d1a0b4-4" data-name="mf6c0d1a0b4" class="cls-11" d="m47.91,135.74l-1.31-.44"/>
    </g>
    <g id="line2d_21" data-name="line2d 21">
      <g class="cls-25">
        <path class="cls-3" d="m47.91,117.86l288.49,94.06"/>
      </g>
    </g>
    <g id="line2d_22" data-name="line2d 22">
      <path id="mf6c0d1a0b4-5" data-name="mf6c0d1a0b4" class="cls-11" d="m47.91,117.86l-1.31-.43"/>
    </g>
    <g id="line2d_23" data-name="line2d 23">
      <g class="cls-27">
        <path class="cls-3" d="m47.91,99.98l288.49,90.7"/>
      </g>
    </g>
    <g id="line2d_24" data-name="line2d 24">
      <path id="mf6c0d1a0b4-6" data-name="mf6c0d1a0b4" class="cls-11" d="m47.91,99.98l-1.31-.41"/>
    </g>
    <g id="line2d_25" data-name="line2d 25">
      <g class="cls-24">
        <path class="cls-3" d="m47.91,82.11l288.49,87.33"/>
      </g>
    </g>
    <g id="line2d_26" data-name="line2d 26">
      <path id="mf6c0d1a0b4-7" data-name="mf6c0d1a0b4" class="cls-11" d="m47.91,82.11l-1.31-.4"/>
    </g>
    <g id="line2d_27" data-name="line2d 27">
      <g class="cls-23">
        <path class="cls-3" d="m47.91,64.23l288.49,83.97"/>
      </g>
    </g>
    <g id="line2d_28" data-name="line2d 28">
      <path id="mf6c0d1a0b4-8" data-name="mf6c0d1a0b4" class="cls-11" d="m47.91,64.23l-1.31-.38"/>
    </g>
    <g id="line2d_29" data-name="line2d 29">
      <g class="cls-22">
        <path class="cls-3" d="m47.91,46.35l288.49,80.6"/>
      </g>
    </g>
    <g id="line2d_30" data-name="line2d 30">
      <path id="mf6c0d1a0b4-9" data-name="mf6c0d1a0b4" class="cls-11" d="m47.91,46.35l-1.31-.37"/>
    </g>
    <g id="line2d_32" data-name="line2d 32">
      <g class="cls-26">
        <path class="cls-5" d="m47.91,117.86l288.49,94.06"/>
      </g>
    </g>
    <g id="patch_3" data-name="patch 3">
      <path class="cls-8" d="m47.91,196.53V39.2"/>
    </g>
    <g id="patch_4" data-name="patch 4">
      <path class="cls-8" d="m336.4,305.39V118.45"/>
    </g>
    <g id="patch_5" data-name="patch 5">
      <path class="cls-8" d="m47.91,196.53l288.49,108.86"/>
    </g>
    <g id="patch_6" data-name="patch 6">
      <path class="cls-8" d="m47.91,39.2l288.49,79.26"/>
    </g>
    <g id="Perspektiventext">
      <g>
        <path class="cls-12" d="m31.02,46.28v-8.47c-.2.28-.38.51-.56.69-.17.18-.37.32-.58.42v-1.25c.11-.07.23-.17.35-.29.12-.12.26-.31.42-.57.16-.26.34-.63.54-1.11l.48.13v10.63l-.66-.19Z"/>
        <path class="cls-12" d="m33.38,47.12c-.16-.05-.3-.19-.41-.44s-.17-.53-.17-.84.06-.57.17-.75.25-.26.41-.21.3.19.41.44.17.53.17.85-.06.57-.17.75-.25.26-.41.21Z"/>
        <path class="cls-12" d="m36.6,48.03c-.63-.18-1.12-.8-1.47-1.86-.35-1.06-.52-2.46-.52-4.2s.17-3.05.52-3.91c.35-.87.84-1.22,1.47-1.04s1.12.79,1.47,1.86c.35,1.06.52,2.47.52,4.21s-.17,3.05-.52,3.92c-.35.87-.84,1.21-1.47,1.03Zm0-1.07c.42.12.74-.17.95-.87s.32-1.77.32-3.22-.11-2.59-.32-3.4-.53-1.28-.95-1.4-.74.17-.95.87-.32,1.77-.32,3.22.11,2.58.32,3.4.53,1.28.95,1.4Z"/>
        <path class="cls-12" d="m41.52,49.42c-.63-.18-1.13-.8-1.48-1.87-.35-1.07-.52-2.47-.52-4.22s.17-3.06.52-3.93c.35-.87.84-1.22,1.48-1.05s1.13.8,1.48,1.86c.35,1.07.53,2.48.53,4.23s-.18,3.06-.53,3.93c-.35.87-.84,1.22-1.48,1.04Zm0-1.07c.42.12.74-.17.96-.87s.32-1.78.32-3.23-.11-2.6-.32-3.42-.54-1.29-.96-1.4-.74.17-.96.87-.32,1.77-.32,3.23.11,2.59.32,3.41.53,1.29.96,1.41Z"/>
      </g>
    </g>
    <g id="Perspektiventext-2" data-name="Perspektiventext">
      <g>
        <path class="cls-12" d="m18.84,143.88l-5.3-6.29v-1.31l5.3-2.6v1.41l-4.61,2.09,4.61,5.3v1.41Zm-1.74-2.89l-.55-.19v-5.63l.55.19v5.63Z"/>
        <path class="cls-12" d="m18.84,132.33l-3.98-1.36v-1.15l.68.23c-.21-.26-.39-.62-.54-1.1-.15-.48-.23-1.02-.23-1.6,0-.52.07-.95.22-1.29.14-.34.35-.56.61-.66-.24-.33-.44-.74-.59-1.22-.15-.48-.23-1.01-.23-1.59,0-.75.14-1.31.41-1.65.28-.35.66-.44,1.15-.28l2.51.84v1.23l-2.46-.83c-.23-.08-.42-.1-.58-.06-.16.04-.29.15-.38.33s-.13.46-.13.82c0,.4.06.78.17,1.13.11.36.28.67.5.92s.49.44.8.54l2.09.7v1.23l-2.46-.83c-.23-.08-.42-.1-.58-.06-.16.04-.29.15-.38.32-.09.18-.13.45-.13.81,0,.4.06.78.17,1.14s.28.67.5.93.49.44.8.55l2.09.71v1.23Z"/>
        <path class="cls-12" d="m20.28,119.73l-5.43-1.81v-1.15l.83.28-.06.02c-.29-.31-.5-.74-.65-1.28s-.21-1.09-.21-1.66c0-.64.08-1.18.25-1.61s.41-.73.72-.9.68-.19,1.11-.05.79.4,1.11.78c.31.38.55.84.72,1.38.17.54.25,1.14.25,1.77,0,.52-.07,1.01-.2,1.47s-.35.77-.66.93l-.03-.12,2.24.75v1.2Zm-1.87-4.06c0-.65-.14-1.24-.41-1.75s-.66-.85-1.17-1.01-.87-.08-1.14.23c-.27.31-.41.81-.41,1.48,0,.41.05.8.16,1.18.11.38.28.71.5.99s.52.48.88.6c.53.18.93.09,1.19-.26s.39-.84.39-1.46Z"/>
        <path class="cls-12" d="m18.84,109.23c0,.31-.05.57-.16.77s-.24.27-.4.22l-4.97-1.63v-1.23l4.8,1.57c.08.03.14.02.16-.02.03-.04.04-.13.04-.28v-.77l.52.17v1.19Z"/>
        <path class="cls-12" d="m14.19,104.28c0,.28-.05.51-.15.67-.1.17-.22.23-.36.18s-.27-.19-.37-.42c-.1-.23-.15-.49-.15-.77s.05-.51.15-.68.22-.22.37-.18.26.18.36.41c.1.23.15.49.15.78Zm4.65,2.12l-3.98-1.29v-1.23l3.98,1.29v1.23Z"/>
        <path class="cls-12" d="m18.84,101.03c0,.31-.05.57-.16.77s-.24.28-.4.22l-2.91-.94v1.27l-.52-.17v-1.27l-.83-.27-.13-1.27.96.31v-1.56l.52.16v1.56l2.75.88c.08.03.14.02.16-.02.03-.04.04-.13.04-.28v-1.21l.52.17v1.63Z"/>
        <path class="cls-12" d="m18.93,95.14c0,.55-.06,1.01-.19,1.38-.13.37-.31.62-.54.77-.23.15-.51.17-.84.06l-2.5-.8v-1.23l2.46.78c.32.1.59.07.79-.11.2-.18.3-.59.3-1.22,0-.47-.06-.9-.18-1.29s-.31-.71-.55-.98-.55-.46-.92-.58l-1.89-.6v-1.23l3.98,1.25v1.16l-.94-.3h.16c.25.28.45.68.62,1.19.17.51.25,1.09.25,1.75Z"/>
        <path class="cls-12" d="m18.93,86.3c0,.64-.09,1.18-.26,1.62-.17.44-.41.74-.72.92s-.68.2-1.11.06-.79-.39-1.1-.76c-.31-.37-.55-.83-.72-1.37-.17-.54-.25-1.13-.25-1.77,0-.52.06-1.01.19-1.47s.35-.78.66-.94l.03.15-2.34-.72v-1.23l5.53,1.71v1.16l-.83-.26.06-.02c.29.3.51.73.65,1.27.14.54.21,1.09.21,1.65Zm-.52-.48c0-.41-.05-.81-.16-1.18s-.28-.7-.51-.98c-.23-.28-.52-.47-.88-.58-.54-.17-.93-.07-1.19.29-.26.36-.38.85-.38,1.47,0,.65.14,1.23.41,1.73.27.5.66.83,1.17.99s.87.07,1.15-.25.41-.82.41-1.49Z"/>
        <path class="cls-12" d="m18.93,76.96c0,.75-.09,1.38-.26,1.87-.17.5-.41.85-.72,1.05s-.68.24-1.1.11-.79-.39-1.11-.79-.55-.89-.72-1.48-.25-1.25-.25-1.98c0-.42.03-.83.1-1.23.07-.4.18-.75.35-1.05.17-.3.39-.51.68-.63.29-.12.65-.12,1.09.01v6.4l-.5-.15v-5.33l.23.42c-.35-.08-.63-.05-.84.08s-.36.35-.46.64c-.09.29-.14.63-.14,1.02,0,.46.06.88.18,1.25.12.37.3.69.53.94s.52.43.85.53c.5.15.88.07,1.15-.25.27-.32.41-.85.41-1.59,0-.53-.07-1-.2-1.41-.14-.4-.33-.73-.59-.98l.21-1.14c.23.26.43.57.59.94.16.37.29.78.38,1.25.09.46.13.96.13,1.5Z"/>
      </g>
    </g>
    <g id="Perspektiventext-3" data-name="Perspektiventext">
      <g>
        <path class="cls-12" d="m30.32,81.6c-.63-.19-1.11-.82-1.46-1.89-.34-1.07-.52-2.46-.52-4.2s.17-3.03.52-3.89c.34-.86.83-1.19,1.46-1.01s1.11.81,1.46,1.88c.34,1.07.52,2.47.52,4.21s-.17,3.04-.52,3.89c-.34.86-.83,1.19-1.46,1Zm0-1.06c.42.13.73-.15.94-.84s.32-1.76.32-3.2-.11-2.58-.32-3.4-.53-1.29-.94-1.41-.73.16-.94.85-.32,1.76-.32,3.2.11,2.58.32,3.39.53,1.29.94,1.42Z"/>
        <path class="cls-12" d="m33.51,82.58c-.16-.05-.3-.2-.41-.45s-.17-.53-.17-.85.06-.56.17-.75.25-.25.41-.2.3.2.41.45.17.53.17.85-.06.56-.17.75-.25.25-.41.2Z"/>
        <path class="cls-12" d="m36.76,83.57c-.32-.1-.62-.32-.9-.66s-.53-.79-.72-1.34c-.19-.55-.31-1.18-.34-1.91l.69-.21c.03.76.14,1.43.35,2,.21.57.51.92.9,1.04.24.07.46.03.65-.15.19-.17.33-.45.44-.82s.16-.82.16-1.35c0-.8-.12-1.44-.35-1.94-.23-.5-.52-.8-.87-.9-.31-.09-.54-.01-.72.23-.17.25-.3.54-.38.89l-.66-.33.22-5.87,3.12.93v1.14l-2.56-.77-.14,3.98-.19-.09c.14-.41.33-.74.57-.98s.54-.3.89-.2.63.34.9.72.48.85.63,1.43.23,1.21.23,1.91c0,.77-.09,1.42-.27,1.93-.18.52-.41.89-.7,1.11s-.6.28-.94.18Z"/>
        <path class="cls-12" d="m41.52,85.03c-.63-.19-1.13-.83-1.48-1.9-.35-1.07-.52-2.48-.52-4.23s.17-3.05.52-3.91c.35-.86.84-1.2,1.48-1.01s1.13.82,1.48,1.9c.35,1.07.53,2.49.53,4.24s-.18,3.06-.53,3.92c-.35.86-.84,1.2-1.48,1Zm0-1.07c.42.13.74-.15.96-.85s.32-1.77.32-3.23-.11-2.6-.32-3.42-.54-1.3-.96-1.42-.74.16-.96.85-.32,1.77-.32,3.22.11,2.59.32,3.42.53,1.3.96,1.43Z"/>
      </g>
    </g>
    <g id="Perspektiventext-4" data-name="Perspektiventext">
      <g>
        <path class="cls-12" d="m30.19,116.91c-.63-.21-1.11-.85-1.45-1.92-.34-1.07-.52-2.48-.52-4.21s.17-3.02.52-3.87c.34-.85.83-1.17,1.45-.97s1.11.84,1.46,1.91c.34,1.07.52,2.48.52,4.22s-.17,3.03-.52,3.88c-.34.85-.83,1.17-1.46.96Zm0-1.06c.42.14.73-.14.94-.82s.32-1.75.32-3.2-.11-2.58-.32-3.4-.53-1.3-.94-1.43-.73.14-.94.82-.32,1.75-.32,3.19.11,2.58.32,3.4.53,1.3.94,1.44Z"/>
        <path class="cls-12" d="m33.38,117.96c-.16-.05-.3-.21-.41-.46s-.17-.54-.17-.85.06-.56.17-.74.25-.24.41-.19.3.21.41.46.17.54.17.85-.06.56-.17.74-.25.24-.41.19Z"/>
        <path class="cls-12" d="m36.6,119.01c-.63-.21-1.12-.85-1.47-1.93-.35-1.08-.52-2.49-.52-4.23s.17-3.04.52-3.89c.35-.85.84-1.18,1.47-.97s1.12.85,1.47,1.92c.35,1.08.52,2.49.52,4.24s-.17,3.05-.52,3.9c-.35.85-.84,1.17-1.47.97Zm0-1.07c.42.14.74-.14.95-.82s.32-1.76.32-3.21-.11-2.59-.32-3.42-.53-1.31-.95-1.44-.74.14-.95.83-.32,1.75-.32,3.2.11,2.59.32,3.41.53,1.31.95,1.44Z"/>
        <path class="cls-12" d="m41.52,120.64c-.63-.21-1.13-.85-1.48-1.94-.35-1.08-.52-2.5-.52-4.24s.17-3.05.52-3.9c.35-.85.84-1.18,1.48-.98s1.13.85,1.48,1.93c.35,1.08.53,2.5.53,4.25s-.18,3.05-.53,3.91c-.35.85-.84,1.18-1.48.97Zm0-1.07c.42.14.74-.14.96-.82s.32-1.76.32-3.22-.11-2.6-.32-3.43-.54-1.31-.96-1.45-.74.14-.96.83-.32,1.76-.32,3.21.11,2.6.32,3.43.53,1.31.96,1.45Z"/>
      </g>
    </g>
    <g id="Perspektiventext-5" data-name="Perspektiventext">
      <g>
        <path class="cls-12" d="m24.91,146.15v-1.15l2.5.87v1.15l-2.5-.88Z"/>
        <path class="cls-12" d="m30.32,152.29c-.63-.22-1.11-.87-1.46-1.95-.34-1.08-.52-2.49-.52-4.22s.17-3.02.52-3.86c.34-.84.83-1.15,1.46-.94s1.11.87,1.46,1.95c.34,1.08.52,2.49.52,4.23s-.17,3.03-.52,3.87c-.34.84-.83,1.15-1.46.93Zm0-1.06c.42.15.73-.12.94-.8s.32-1.74.32-3.19-.11-2.58-.32-3.41-.53-1.31-.94-1.46-.73.12-.94.8-.32,1.74-.32,3.18.11,2.58.32,3.41.53,1.31.94,1.46Z"/>
        <path class="cls-12" d="m33.51,153.42c-.16-.06-.3-.21-.41-.47s-.17-.54-.17-.86.06-.56.17-.74.25-.24.41-.18.3.21.41.47.17.54.17.86-.06.56-.17.74-.25.24-.41.18Z"/>
        <path class="cls-12" d="m36.76,154.57c-.32-.11-.62-.34-.9-.7-.29-.36-.53-.81-.72-1.37-.19-.56-.31-1.2-.34-1.92l.69-.18c.03.76.14,1.43.35,2.01.21.58.51.94.9,1.08.24.09.46.05.65-.12.19-.16.33-.43.44-.8s.16-.81.16-1.34c0-.8-.12-1.45-.35-1.95-.23-.51-.52-.82-.87-.94-.31-.11-.54-.04-.72.2-.17.24-.3.53-.38.87l-.66-.36.22-5.86,3.12,1.08v1.14l-2.56-.88-.14,3.98-.19-.09c.14-.41.33-.72.57-.95s.54-.28.89-.16.63.37.9.76.48.88.63,1.46.23,1.22.23,1.92c0,.77-.09,1.41-.27,1.92-.18.51-.41.87-.7,1.08s-.6.25-.94.13Z"/>
        <path class="cls-12" d="m41.52,156.24c-.63-.22-1.13-.88-1.48-1.97-.35-1.09-.52-2.51-.52-4.26s.17-3.04.52-3.89c.35-.85.84-1.16,1.48-.94s1.13.88,1.48,1.97c.35,1.09.53,2.51.53,4.26s-.18,3.05-.53,3.9c-.35.85-.84,1.16-1.48.93Zm0-1.07c.42.15.74-.12.96-.8s.32-1.75.32-3.21-.11-2.6-.32-3.44-.54-1.32-.96-1.47-.74.12-.96.81-.32,1.75-.32,3.21.11,2.6.32,3.43.53,1.32.96,1.47Z"/>
      </g>
    </g>
    <g id="Perspektiventext-6" data-name="Perspektiventext">
      <g>
        <path class="cls-12" d="m27.1,182.19v-1.15l2.51.94v1.15l-2.51-.94Z"/>
        <path class="cls-12" d="m31.02,187.73v-8.47c-.2.26-.38.47-.56.64-.17.16-.37.29-.58.36v-1.25c.11-.06.23-.15.35-.26.12-.11.26-.29.42-.53.16-.24.34-.6.54-1.06l.48.18v10.63l-.66-.25Z"/>
        <path class="cls-12" d="m33.38,188.79c-.16-.06-.3-.22-.41-.48s-.17-.55-.17-.86.06-.56.17-.74.25-.23.41-.17.3.22.41.48.17.55.17.86-.06.56-.17.74-.25.23-.41.17Z"/>
        <path class="cls-12" d="m36.6,190c-.63-.24-1.12-.9-1.47-2-.35-1.09-.52-2.51-.52-4.25s.17-3.03.52-3.87c.35-.84.84-1.14,1.47-.91s1.12.9,1.47,1.99c.35,1.1.52,2.52.52,4.26s-.17,3.04-.52,3.87c-.35.84-.84,1.13-1.47.9Zm0-1.07c.42.16.74-.1.95-.78s.32-1.74.32-3.19-.11-2.6-.32-3.43-.53-1.33-.95-1.49-.74.11-.95.78-.32,1.74-.32,3.19.11,2.59.32,3.43.53,1.33.95,1.49Z"/>
        <path class="cls-12" d="m41.52,191.85c-.63-.24-1.13-.91-1.48-2.01-.35-1.1-.52-2.52-.52-4.27s.17-3.04.52-3.88c.35-.84.84-1.14,1.48-.91s1.13.9,1.48,2c.35,1.1.53,2.52.53,4.28s-.18,3.05-.53,3.89c-.35.84-.84,1.14-1.48.9Zm0-1.07c.42.16.74-.1.96-.78s.32-1.75.32-3.2-.11-2.61-.32-3.44-.54-1.34-.96-1.49-.74.11-.96.78-.32,1.74-.32,3.2.11,2.6.32,3.44.53,1.34.96,1.49Z"/>
      </g>
    </g>
    <g id="Perspektiventext-7" data-name="Perspektiventext">
      <g>
        <path class="cls-12" d="m50.7,213.32c-.64-.25-1.14-.93-1.49-2.04-.35-1.11-.53-2.54-.53-4.3s.18-3.05.53-3.89c.35-.84.85-1.14,1.49-.89s1.15.92,1.5,2.03c.35,1.11.53,2.55.53,4.31s-.18,3.06-.53,3.9c-.35.84-.85,1.13-1.5.88Zm0-1.08c.43.17.75-.09.97-.77s.33-1.75.33-3.22-.11-2.62-.33-3.47-.54-1.35-.97-1.51-.75.1-.97.78-.33,1.75-.33,3.21.11,2.62.33,3.47.54,1.35.97,1.52Z"/>
        <path class="cls-12" d="m53.98,214.59c-.17-.06-.3-.23-.42-.49s-.17-.56-.17-.87.06-.57.17-.74.25-.23.42-.17.3.23.42.49.17.56.17.88-.06.57-.17.74-.25.23-.42.17Z"/>
        <path class="cls-12" d="m57.28,215.87c-.65-.25-1.15-.93-1.51-2.05-.36-1.12-.54-2.56-.54-4.32s.18-3.07.54-3.91c.36-.84.86-1.14,1.51-.89s1.16.93,1.51,2.04c.36,1.12.54,2.56.54,4.33s-.18,3.08-.54,3.92c-.36.84-.86,1.14-1.51.88Zm0-1.08c.43.17.76-.09.98-.77s.33-1.76.33-3.23-.11-2.63-.33-3.49-.55-1.36-.98-1.52-.76.1-.98.78-.33,1.76-.33,3.23.11,2.63.33,3.48.55,1.36.98,1.53Z"/>
        <path class="cls-12" d="m62.35,217.83c-.65-.25-1.16-.94-1.52-2.06-.36-1.12-.54-2.56-.54-4.34s.18-3.08.54-3.92c.36-.84.87-1.14,1.52-.89s1.16.93,1.52,2.05c.36,1.12.54,2.57.54,4.34s-.18,3.09-.54,3.93c-.36.84-.87,1.14-1.52.88Zm0-1.08c.43.17.76-.09.98-.77s.33-1.76.33-3.24-.11-2.64-.33-3.5-.55-1.36-.98-1.53-.76.09-.98.78-.33,1.76-.33,3.24.11,2.64.33,3.49.55,1.36.98,1.53Z"/>
        <path class="cls-12" d="m67.44,219.81c-.66-.25-1.17-.94-1.53-2.07-.36-1.12-.54-2.57-.54-4.35s.18-3.09.54-3.93c.36-.85.87-1.15,1.53-.9s1.17.94,1.53,2.06c.36,1.12.54,2.58.54,4.36s-.18,3.1-.54,3.94c-.36.85-.87,1.14-1.53.89Zm0-1.09c.44.17.77-.09.99-.77s.34-1.77.34-3.25-.11-2.65-.34-3.51-.55-1.37-.99-1.53-.77.09-.99.78-.33,1.77-.33,3.25.11,2.65.33,3.51.55,1.37.99,1.54Z"/>
      </g>
    </g>
    <g id="Perspektiventext-8" data-name="Perspektiventext">
      <g>
        <path class="cls-12" d="m144.97,249.86c-.72-.28-1.28-1.01-1.68-2.2-.4-1.19-.6-2.71-.6-4.58s.2-3.24.6-4.12c.4-.88.96-1.18,1.68-.91s1.29,1.01,1.69,2.2c.4,1.19.6,2.72.6,4.59s-.2,3.25-.6,4.13c-.4.88-.96,1.18-1.69.9Zm0-1.14c.48.19.84-.08,1.09-.79s.37-1.85.37-3.41-.12-2.79-.37-3.69-.61-1.45-1.09-1.63-.84.08-1.09.8-.37,1.85-.37,3.4.12,2.78.37,3.69.61,1.45,1.09,1.63Z"/>
        <path class="cls-12" d="m148.67,251.29c-.19-.07-.34-.25-.47-.53s-.19-.59-.19-.93.06-.6.19-.78.28-.24.47-.17.34.25.47.53.19.59.19.93-.06.6-.19.78-.29.24-.47.17Z"/>
        <path class="cls-12" d="m152.39,252.73c-.73-.28-1.3-1.02-1.7-2.22-.4-1.19-.6-2.73-.6-4.6s.2-3.25.6-4.14c.4-.88.97-1.19,1.7-.91s1.3,1.02,1.7,2.21c.4,1.19.6,2.73.6,4.61s-.2,3.26-.6,4.15c-.4.88-.97,1.18-1.7.9Zm0-1.15c.49.19.85-.08,1.1-.79s.37-1.86.37-3.42-.12-2.8-.37-3.71-.62-1.46-1.1-1.64-.85.08-1.1.8-.37,1.86-.37,3.42.12,2.8.37,3.7.61,1.46,1.1,1.64Z"/>
        <path class="cls-12" d="m158.1,254.95c-.74-.28-1.31-1.03-1.71-2.23-.41-1.2-.61-2.74-.61-4.62s.2-3.26.61-4.15c.41-.89.98-1.19,1.71-.91s1.31,1.02,1.72,2.22c.41,1.2.61,2.74.61,4.63s-.2,3.27-.61,4.16c-.41.89-.98,1.19-1.72.9Zm0-1.15c.49.19.86-.08,1.11-.8s.38-1.87.38-3.43-.13-2.81-.38-3.72-.62-1.46-1.11-1.65-.86.08-1.11.8-.37,1.86-.37,3.43.12,2.81.37,3.72.62,1.46,1.11,1.65Z"/>
        <path class="cls-12" d="m163.72,257.13c-.37-.14-.72-.42-1.06-.82-.34-.41-.62-.92-.85-1.54-.23-.62-.36-1.32-.4-2.11l.81-.15c.03.83.17,1.56.41,2.21.24.65.59,1.06,1.06,1.24.29.11.54.08.76-.08.22-.17.39-.44.51-.83s.19-.87.19-1.44c0-.86-.14-1.58-.41-2.14-.27-.57-.61-.93-1.02-1.08-.36-.14-.64-.08-.84.16-.2.25-.35.55-.45.92l-.77-.44.26-6.33,3.66,1.39v1.24l-3-1.14-.17,4.3-.22-.12c.16-.43.38-.76.67-.99s.63-.26,1.04-.11.74.44,1.05.89.56.98.74,1.63.27,1.34.27,2.1c0,.84-.1,1.52-.31,2.06-.21.54-.48.91-.82,1.12s-.71.23-1.11.08Z"/>
      </g>
    </g>
    <g id="Perspektiventext-9" data-name="Perspektiventext">
      <g>
        <path class="cls-12" d="m252.52,291.54c-.82-.32-1.46-1.12-1.91-2.39-.45-1.28-.68-2.91-.68-4.9s.23-3.45.68-4.37c.45-.93,1.09-1.24,1.91-.92s1.47,1.11,1.92,2.39c.45,1.28.68,2.91.68,4.91s-.23,3.46-.68,4.38c-.45.93-1.09,1.23-1.92.91Zm0-1.22c.55.21.96-.06,1.24-.82s.42-1.96.42-3.62-.14-2.98-.42-3.95-.69-1.56-1.24-1.77-.96.07-1.24.82-.42,1.96-.42,3.62.14,2.97.42,3.94.69,1.56,1.24,1.77Z"/>
        <path class="cls-12" d="m256.72,293.17c-.21-.08-.39-.28-.54-.58s-.22-.64-.22-1,.07-.64.22-.83.32-.25.54-.17.39.28.54.58.22.64.22,1-.07.64-.22.83-.32.25-.54.17Z"/>
        <path class="cls-12" d="m260.95,294.81c-.83-.32-1.47-1.12-1.93-2.41-.46-1.28-.69-2.92-.69-4.92s.23-3.46.69-4.39c.46-.93,1.1-1.24,1.93-.93s1.48,1.12,1.94,2.4c.46,1.28.69,2.93.69,4.93s-.23,3.47-.69,4.4c-.46.93-1.1,1.24-1.94.91Zm0-1.22c.55.21.97-.06,1.25-.82s.42-1.97.42-3.64-.14-2.99-.42-3.97-.7-1.57-1.25-1.78-.97.06-1.25.82-.42,1.97-.42,3.64.14,2.98.42,3.96.7,1.57,1.25,1.78Z"/>
        <path class="cls-12" d="m265.89,296.52v-9.78c-.26.29-.51.52-.74.69-.23.18-.49.3-.77.37v-1.45c.15-.06.3-.15.47-.27.16-.12.35-.31.56-.58.21-.27.45-.66.72-1.18l.65.25v12.28l-.88-.34Z"/>
        <path class="cls-12" d="m270.75,298.61c-.84-.33-1.49-1.13-1.95-2.43-.46-1.29-.69-2.94-.69-4.95s.23-3.48.69-4.42c.46-.94,1.11-1.25,1.95-.93s1.5,1.13,1.96,2.42c.46,1.29.69,2.95.69,4.96s-.23,3.49-.69,4.43c-.46.94-1.12,1.24-1.96.91Zm0-1.23c.56.22.98-.06,1.27-.82s.43-1.98.43-3.66-.14-3.01-.43-3.99-.71-1.58-1.27-1.79-.98.06-1.26.82-.43,1.98-.43,3.65.14,3,.43,3.98.71,1.58,1.26,1.8Z"/>
      </g>
    </g>
    <path class="cls-6" d="m58.29,166.91h0l.33.2.27-.13.33-.53.38-1.1.55-2.23,1.04-4.43.44-1.2.38-.55.33-.11.39.21.77.85.44.29.33-.06.33-.35.39-.8.5-1.55,1.6-5.53.44-.75.39-.25.39.05.72.46.5.17.39-.17.39-.51.44-1,.61-1.94,1.17-3.8.5-1,.45-.43.45-.06.73.28.5.08.39-.2.39-.5.5-1.11.67-2.07,1.07-3.3.56-1.08.45-.41.45-.08,1.46.11.39-.41.45-.85.62-1.73,1.47-4.41.51-.85.45-.34h.51s1.13.16,1.13.16l.4-.28.45-.69.57-1.41.97-3.14.68-1.95.51-.94.46-.39.46-.04,1.49.21.4-.43.46-.9.57-1.66,1.55-4.9.52-.85.4-.26.4.04.75.44.52.16.4-.19.4-.56.46-1.11.63-2.16,1.16-4.1.46-1.03.41-.45.35-.06.41.24,1.28,1.08.35-.14.35-.48.41-1.02.52-1.92,1.51-6.1.41-.83.35-.26.29.1.35.43.58,1.14.58,1.02.35.24.29-.13.29-.48.35-1.05.41-1.82.64-3.69.76-4.18.41-1.47.35-.58h.23s.24.29.24.29l.29.76.41,1.62,1,4.31.29.63.24.09.18-.21.24-.68.29-1.52.35-2.75.47-4.93,1.06-11.75.3-1.97.24-.74.1-.05.14.21.18.79.24,2.04.24,3.22.3,5.75.36,9.39.42,14.11.59,24.69,1.6,69.9.48,14.79.36,8.04.3,4.59.24,2.32.24,1.19.18.21.18-.32.24-1.14.3-2.35.48-5.11.96-10.49.42-3.08.3-1.34.3-.6.24.02.24.41.36,1.18.6,2.75.6,2.5.36.89.24.23.24-.07.3-.53.36-1.21.48-2.36,1.38-7.35.42-1.26.36-.51.29-.04.31.26.42.71,1.03,1.9.36.23.3-.12.36-.53.42-1.14.61-2.32,1.21-4.84.49-1.19.43-.51.36-.07.43.26,1.4,1.19.37-.14.37-.46.49-1.11.67-2.2,1.22-4.14.55-1.14.43-.43.43-.07.55.26.92.47.43-.11.43-.46.49-.98.68-1.97,1.42-4.33.55-.99.49-.4.49-.03,1.61.28.43-.42.5-.89.68-1.83,1.61-4.64.56-.88.5-.34h.56s1.25.21,1.25.21l.44-.29.5-.71.62-1.45,1.19-3.59.75-1.88.56-.84.5-.31.56.02,1.19.2.44-.27.5-.71.63-1.46,1.01-3.09.82-2.24.57-.99.51-.42.51-.04,1.64.26.44-.43.51-.93.63-1.73,1.78-5.28.57-.83.45-.23.51.1,1.4.59.38-.22.45-.62.57-1.39.77-2.58,1.09-3.62.51-1.09.45-.48.38-.06.45.25,1.48,1.17.39-.19.39-.55.52-1.32.64-2.39,1.35-5.28.45-1.05.39-.43.29-.03.35.26.45.7,1.17,2,.32.14.32-.19.32-.56.39-1.17.52-2.31,1.82-9.02.39-.75.27-.1.25.22.33.7.46,1.61,1.31,5.19.36.48.23-.1.26-.56.33-1.4.39-2.68.46-4.3,1.51-15.2.26-1.24.2-.37.13.06.2.58.2,1.23.26,2.7.33,5.16.39,8.85.46,13.79.59,22.24,2.31,92.37.46,11.39.4,6.65.33,3.35.26,1.32.2.27.13-.14.2-.63.26-1.53.4-3.42.79-8.65.66-6.46.4-2.73.33-1.44.33-.66h.27s.27.42.27.42l.4,1.23.66,2.9.67,2.66.4.97.28.27.26-.06.33-.53.4-1.25.53-2.46,1.54-7.74.47-1.34.4-.55.33-.05.33.27.47.75,1.21,2.11.34.19.34-.1.4-.54.47-1.17.61-2.15,1.48-5.55.54-1.18.47-.47.42-.02.46.31,1.42,1.23.41-.08.41-.41.54-1.07.68-2.01,1.63-5.14.54-.98.48-.4.48-.03.61.31.95.48.48-.1.48-.46.55-1.01.75-2.05,1.57-4.56.62-1.05.55-.43.55-.03,1.79.34.48-.42.55-.91.76-1.9,1.79-4.88.62-.93.55-.36h.55s1.59.2,1.59.2l.49-.37.56-.84.69-1.62,2.23-5.74.63-.7.56-.19.7.14.91.18.49-.19.49-.51.63-1.16.84-2.24,1.47-4.03.63-1.05.56-.44.56-.04,1.9.28.49-.49.56-1.02.78-2.07,1.7-4.85.64-1.03.5-.35h.53s.68.36.68.36l.85.38.5-.12.5-.51.57-1.11.71-2.06,1.78-5.51.57-.94.5-.31.43.08.57.45,1.07.95.43.05.43-.3.43-.7.57-1.52.79-2.9,1.22-4.51.58-1.32.43-.47.34-.04.38.27.5.74,1.3,2.14.36.17.36-.18.36-.57.43-1.21.58-2.4,1.16-6.04.65-2.81.44-1.17.36-.42.29.05.29.38.36.9.51,1.86,1.16,4.58.36.76.29.16.22-.18.29-.69.36-1.6.44-2.97.58-5.39,1.39-13.66.37-2.05.29-.68.15.03.22.57.22,1.25.29,2.78.37,5.36.44,9.24.51,14.45.66,23.39,1.32,54.16.88,32.6.59,16.74.44,9.18.37,5.31.29,2.74.29,1.47.2.33.17-.11.22-.62.3-1.57.44-3.56.89-9.1.74-6.85.44-2.91.37-1.55.37-.72.3-.02.3.42.37,1.03.59,2.35.97,3.82.45,1.05.33.32.27-.05.3-.38.45-1.18.52-2.12,2.16-9.79.45-.89.45-.31.37.15.45.55.9,1.66.22.39"/>
  </g>
  <g id="Ebene_8" data-name="Ebene 8">
    <path class="cls-2" d="m158.77,171.78h0l1.35,3.73,1.3,2.79,1.24,1.92,1.24,1.18,1.19.42,1.19-.27,1.25-1.01,1.25-1.75,1.31-2.59,1.43-3.67,1.49-4.7,1.66-6.22,1.84-7.93,2.19-10.61,2.77-14.76,9.24-50.29,2.17-9.93,1.88-7.5,1.7-5.77,1.53-4.25,1.47-3.19,1.36-2.12,1.3-1.26,1.3-.5,1.25.24,1.25.95,1.31,1.75,1.31,2.5,1.37,3.41,1.5,4.58,1.56,5.67,1.74,7.34,1.93,9.19,2.23,11.83,2.84,16.39,10.18,59.93,2.27,11.36,1.97,8.68,1.73,6.58,1.61,5.17,1.49,3.91,1.43,2.92,1.37,2.01,1.37,1.23,1.31.44,1.31-.28,1.38-1.07,1.38-1.84,1.44-2.73,1.57-3.86,1.7-5.15,1.83-6.57,2.09-8.62,2.41-11.19,3.12-15.85,9.61-49.83,2.45-10.84,2.13-8.23,1.88-6.16,1.75-4.71,1.63-3.41,1.5-2.29,1.44-1.39,1.44-.59,1.38.19,1.38.93,1.45,1.77,1.45,2.57,1.52,3.52,1.59,4.54,1.72,5.87,1.86,7.34,2.13,9.54,2.46,12.32,3.07,16.77,5.64,32.55,4.12,23.02,2.85,14.52,2.38,10.84,2.04,8.16,1.84,6.33,1.71,4.91,1.65,3.8,1.58,2.77,1.51,1.82,1.45.96,1.45.2,1.52-.6,1.52-1.42,1.6-2.35,1.67-3.36,1.74-4.43,1.95-6.02,2.1-7.57,2.45-10.09,2.95-13.53,4.16-20.64,6.96-34.52,3.07-13.64,2.51-9.83,2.22-7.52,2.01-5.68,1.87-4.23,1.73-2.95,1.66-1.93,1.59-.99,1.6-.15,1.53.66,1.6,1.53,1.61,2.38,1.68,3.37,1.76,4.45,1.83,5.6,1.99,7.08,2.21,9.01,2.51,11.46,3.04,15.24,4.24,22.86,7.93,42.98,3.16,15.47,2.64,11.6,2.35,9.04,2.13,7.02.84,2.44"/>
    <path class="cls-2" d="m249.98,132.2h0l1.78-8.84,1.15-4.54.92-2.66.81-1.5.75-.63.69.09.69.74.75,1.51.81,2.42.93,3.66,1.1,5.37,1.57,8.88,2.91,16.64,1.17,5.37.93,3.35.82,2.1.76,1.2.7.43.7-.22.76-.97.82-1.84.94-3.02,1.12-4.65,1.53-7.62,3.25-16.46,1.18-4.58.95-2.68.83-1.5.77-.62.71.11.71.77.77,1.56.83,2.47.95,3.73,1.13,5.47,1.61,9.03,3,16.9,1.2,5.45.96,3.39.84,2.13.78,1.21.72.43.72-.24.79-.99.85-1.88.97-3.08,1.15-4.73,1.58-7.74,3.35-16.69,1.22-4.63.98-2.7.86-1.5.8-.62.74.13.74.79.8,1.6.86,2.53.98,3.81,1.17,5.57,1.66,9.19,3.09,17.16,1.24,5.52.99,3.43.87,2.15.81,1.21.75.42.75-.25.81-1.02.87-1.92,1-3.14,1.19-4.81,1.63-7.86,3.39-16.65,1.26-4.75,1.01-2.79.88-1.57.82-.67.76.09.76.77.82,1.58.89,2.53,1.02,3.83,1.21,5.63,1.72,9.31,3.25,17.8,1.28,5.6,1.02,3.47.9,2.17.83,1.22.77.42.77-.27.84-1.05.9-1.96,1.03-3.2,1.23-4.9,1.68-7.99,3.5-16.89,1.3-4.8,1.04-2.81.91-1.57.85-.66.78.11.78.8.85,1.63.92,2.59,1.05,3.92,1.25,5.74,1.77,9.48,3.29,17.77,1.32,5.74,1.06,3.58.93,2.26.86,1.29.8.47.8-.22.86-1.02.93-1.95,1.07-3.2,1.27-4.93,1.74-8.08,3.68-17.46,1.34-4.86,1.08-2.84.94-1.58.88-.65.81.13.81.83.88,1.68.95,2.65,1.08,4,1.29,5.85,1.83,9.66,3.4,18.07,1.36,5.83,1.09,3.63.96,2.28.89,1.3.82.47.82-.24.89-1.04.96-1.99,1.1-3.26,1.31-5.02,1.79-8.22,3.8-17.72,1.39-4.91,1.11-2.86.97-1.58.9-.64.84.15.84.86.91,1.72.98,2.72,1.12,4.09,1.33,5.97,1.89,9.84,3.52,18.37,1.41,5.92,1.13,3.68.99,2.31.92,1.31.85.47.85-.25.92-1.07.99-2.03,1.14-3.33,1.35-5.11,1.85-8.36,3.86-17.7,1.43-5.04,1.15-2.95,1.01-1.66.94-.69.86.11.87.84.94,1.71,1.01,2.72,1.16,4.12,1.38,6.04,1.96,9.98,3.71,19.07,1.46,6.01,1.17,3.73,1.02,2.34.95,1.32.88.46.88-.27.95-1.1,1.03-2.08,1.18-3.4,1.4-5.2,1.92-8.5,4-17.97,1.48-5.1,1.19-2.98,1.04-1.66.97-.68.89.13.9.87.97,1.76,1.05,2.79,1.2,4.21,1.42,6.16,2.03,10.18,3.76,19.07,1.51,6.17,1.21,3.85,1.06,2.43.98,1.4.91.52.91-.22.99-1.07,1.06-2.06,1.22-3.4,1.45-5.24,1.99-8.61,1.38-6.37"/>
    <path class="cls-2" d="m334.93,117.87h0l.87,4.13,1.68,9.43,1.22,6.19.82,3.04.64,1.55.58.68.58-.05.58-.76.64-1.6.76-2.77,1.05-4.93,2.29-10.96.82-2.65.65-1.24.59-.4.59.32.59,1.04.65,1.92.77,3.17,1.06,5.51,2.37,12.6.83,3.11.65,1.59.59.72h.59s.59-.75.59-.75l.65-1.58.77-2.77,1.07-4.95,2.39-11.31.84-2.63.66-1.21.6-.36.6.37.6,1.09.66,1.98.78,3.23,1.08,5.59,2.35,12.42.84,3.17.66,1.64.6.76.6.02.61-.71.67-1.57.79-2.76,1.09-4.96,2.43-11.43.85-2.69.67-1.25.61-.4.61.34.61,1.07.67,1.97.79,3.24,1.1,5.62,2.45,12.83.86,3.16.68,1.62.62.72.62-.02.62-.75.68-1.62.8-2.82,1.11-5.04,2.41-11.26.87-2.74.68-1.3.62-.43.62.31.62,1.05.68,1.96.81,3.24,1.12,5.65,2.56,13.25.88,3.14.69,1.59.63.69.63-.06.63-.8.69-1.67.82-2.88,1.19-5.41,2.33-10.77.88-2.8.69-1.34.63-.47.63.28.63,1.03.7,1.94.82,3.24,1.14,5.67,2.67,13.68.83,2.94.7,1.64.64.73.64-.03.64-.77.7-1.65.83-2.88,1.15-5.13,2.5-11.44.9-2.78.71-1.31.64-.43.64.33.64,1.08.71,2,.84,3.31,1.16,5.76,2.66,13.5.91,3.2.71,1.62.65.7.65-.07.65-.82.72-1.71.85-2.94,1.24-5.51,2.42-10.95.92-2.84.72-1.35.66-.47.66.3.66,1.06.72,1.99.85,3.31,1.18,5.79,2.7,13.67.93,3.27.73,1.67.66.74.66-.03.66-.79.73-1.69.86-2.93,1.2-5.22,2.6-11.64.93-2.82.73-1.32.67-.43.67.35.67,1.11.74,2.05.87,3.38,1.21,5.88,2.69,13.49.94,3.34.74,1.72.67.78h.67s.68-.76.68-.76l.74-1.67.88-2.93,1.22-5.24,2.71-12.01.95-2.8.75-1.29.68-.38.68.4.68,1.17.75,2.12.89,3.46,1.23,5.97,2.67,13.3.96,3.41.76,1.77.69.83.69.04.69-.74.76-1.65.9-2.92,1.24-5.27,2.83-12.39.97-2.77.76-1.25.69-.34.69.45.69,1.22.76,2.18.9,3.53,1.32,6.42,2.58,12.75.98,3.48.77,1.83.7.87.7.08.7-.71.77-1.63.91-2.91,1.27-5.29,2.89-12.54.99-2.84.78-1.3.71-.38.71.42.71,1.2.78,2.17.92,3.54,1.28,6.1,2.78,13.56,1,3.47.78,1.8.71.84.71.04.72-.75.79-1.68.93-2.98,1.29-5.37,2.87-12.37,1.01-2.9.79-1.35.72-.42.72.39.72,1.18.79,2.16.94,3.54,1.3,6.14,2.9,14.03,1.02,3.46.8,1.78.73.8h.73s.73-.81.73-.81l.8-1.74.95-3.05,1.32-5.45,2.86-12.19,1.03-2.96.81-1.39.74-.45.74.36.74,1.16.81,2.15.96,3.54,1.33,6.18,3.03,14.5,1.04,3.45.82,1.75.74.77.74-.05.74-.85.82-1.8.97-3.12,1.42-5.86,2.76-11.67,1.05-3.03.82-1.44.75-.49.75.33.75,1.14.83,2.13.98,3.55,1.36,6.21,3.17,14.98.98,3.23.83,1.81.76.81h.76s.76-.83.76-.83l.83-1.78.99-3.11,1.37-5.56,2.97-12.4,1.07-3.01.84-1.41.76-.45.77.38.77,1.2.84,2.2.08.24"/>
    <path class="cls-2" d="m414.25,123.78h0l.47.15.47-.47.53-1.22.64-2.32,1.06-4.96,1.29-5.79.65-1.89.53-.78.47-.04.47.59.53,1.37.65,2.54.94,4.81,1.48,7.5.65,2.29.53,1.11.47.34.47-.29.53-1.04.65-2.16.95-4.29,1.55-7.01.65-1.93.54-.81.48-.06.48.57.54,1.35.66,2.54.96,4.82,1.56,7.82.66,2.25.54,1.06.48.29.48-.35.54-1.1.66-2.23.96-4.35,1.5-6.78.66-1.96.54-.84.48-.09.48.55.54,1.34.66,2.53.97,4.83,1.57,7.89.67,2.29.55,1.1.49.31.49-.32.55-1.08.67-2.21.97-4.36,1.58-7.07.67-1.92.55-.78.49-.03.49.6.55,1.4.67,2.6.98,4.9,1.53,7.64.68,2.33.55,1.13.49.34.49-.3.55-1.06.68-2.2.99-4.37,1.6-7.13.68-1.95.56-.82.49-.06.49.58.56,1.39.68,2.59.99,4.92,1.61,7.97.68,2.29.56,1.08.5.29.5-.35.56-1.13.69-2.27,1-4.43,1.56-6.9.69-1.99.56-.85.5-.08.5.56.56,1.37.69,2.58,1,4.93,1.63,8.05.69,2.33.57,1.12.5.32.5-.33.57-1.11.69-2.26,1.01-4.44,1.64-7.19.7-1.94.57-.79.51-.03.51.62.57,1.44.7,2.65,1.02,5,1.59,7.79.7,2.37.57,1.15.51.35.51-.3.57-1.09.7-2.24,1.02-4.45,1.66-7.25.71-1.98.58-.82.51-.05.51.6.58,1.42.71,2.65,1.03,5.02,1.68,8.12.71,2.33.58,1.1.52.29.52-.36.58-1.15.71-2.31,1.04-4.51,1.62-7.02.71-2.02.58-.86.52-.08.52.58.59,1.4.72,2.64,1.04,5.03,1.7,8.2.72,2.37.59,1.14.52.32.52-.34.59-1.13.72-2.3,1.05-4.52,1.71-7.31.72-1.97.59-.8.53-.02.53.64.59,1.47.73,2.71,1.06,5.11,1.65,7.94.73,2.42.6,1.17.53.35.53-.31.6-1.11.73-2.29,1.06-4.53,1.73-7.38.73-2.01.6-.83.53-.05.53.62.6,1.45.73,2.71,1.07,5.12,1.74,8.29.74,2.37.6,1.12.54.3.54-.37.6-1.17.74-2.36,1.08-4.6,1.68-7.14.74-2.05.61-.86.54-.07.54.6.61,1.44.74,2.7,1.08,5.14,1.76,8.37.75,2.42.61,1.16.54.33.54-.34.61-1.15.75-2.34,1.09-4.61,1.77-7.44.75-2,.62-.81h.55s.55.65.55.65l.62,1.51.75,2.77,1.1,5.21,1.72,8.1.76,2.47.62,1.19.55.36.55-.32.62-1.13.76-2.33,1.1-4.62,1.8-7.51.76-2.05.62-.84.55-.04.55.64.62,1.49.76,2.77,1.11,5.23,1.81,8.45.77,2.42.63,1.14.56.3.56-.38.63-1.2.77-2.4,1.12-4.68,1.75-7.27.77-2.09.63-.87.56-.07.56.62.63,1.47.77,2.76,1.13,5.25,1.83,8.54.78,2.47.64,1.18.57.33.57-.35.64-1.17.78-2.39,1.13-4.69,1.85-7.58.78-2.04.64-.82h.57s.57.67.57.67l.64,1.54.78,2.84,1.14,5.33,1.79,8.27.79,2.51.64,1.22.57.36.57-.33.65-1.15.79-2.38,1.15-4.7,1.87-7.65.79-2.08.65-.85.58-.03.58.66.65,1.53.79,2.83,1.16,5.35,1.88,8.63.8,2.47.65,1.16.58.31.58-.39.65-1.22.8-2.45,1.24-5.1,1.75-7.08.8-2.12.66-.88.58-.06.59.64.66,1.51.81,2.82,1.17,5.36,1.91,8.72.81,2.52.66,1.2.59.34.59-.36.66-1.2.81-2.44,1.18-4.79,1.92-7.72.81-2.07.67-.83h.59s.59.7.59.7l.67,1.58.82,2.9,1.26,5.81,1.79,8.08.82,2.57.67,1.24.6.37.6-.33.67-1.18.82-2.43,1.2-4.8,1.95-7.79.83-2.11.68-.86.6-.03.6.68.68,1.57.83,2.9,1.21,5.46,1.89,8.53.83,2.61.68,1.28.6.4.61-.31.68-1.16.83-2.41,1.21-4.81,1.97-7.87.84-2.15.68-.89.61-.06.61.66.69,1.55.84,2.89,1.22,5.48,1.99,8.9.84,2.57.38.79"/>
    <path class="cls-2" d="m488.48,97.11h0l.71-2.42.47-.84.41-.12.41.48.47,1.23.59,2.38,2.3,10.42.47.79.41.06.41-.53.53-1.45.71-2.92,1.6-6.85.53-1.18.47-.27.42.4.48,1.16.6,2.32,1.07,5.42.89,4.04.54,1.54.48.6.42-.12.48-.84.54-1.72.9-3.98,1.14-4.82.6-1.47.48-.36.42.33.48,1.08.54,1.99.9,4.43,1.14,5.38.54,1.63.48.69.42-.04.48-.76.54-1.65.85-3.65,1.27-5.4.54-1.37.48-.45.42.25.48,1,.55,1.93.85,4.08,1.28,6.03.55,1.63.49.69.43-.04.49-.77.55-1.67.85-3.68,1.28-5.42.55-1.36.49-.44.43.26.49,1.02.55,1.94.86,4.11,1.29,6.05.55,1.63.49.68.43-.05.49-.78.55-1.68.86-3.7,1.29-5.43.55-1.36.49-.44.43.27.49,1.03.56,1.96.87,4.13,1.3,6.08.56,1.63.5.68.43-.06.5-.79.56-1.7.87-3.72,1.24-5.25.62-1.56.5-.43.44.28.5,1.04.56,1.98.87,4.16,1.25,5.87.63,1.86.5.67.44-.07.5-.81.56-1.71.88-3.74,1.25-5.26.63-1.56.5-.42.44.29.5,1.06.57,1.99.88,4.18,1.26,5.89.63,1.86.51.67.44-.07.51-.82.57-1.72.89-3.76,1.27-5.28.63-1.55.51-.42.44.29.51,1.07.57,2.01.89,4.21,1.27,5.91.64,1.86.51.66.45-.08.51-.83.57-1.74.89-3.78,1.28-5.3.64-1.55.51-.41.45.3.51,1.08.58,2.03.9,4.23,1.28,5.93.64,1.86.51.66.45-.09.52-.84.58-1.75.9-3.81,1.29-5.31.65-1.55.52-.4.45.31.52,1.1.58,2.05.91,4.26,1.3,5.95.65,1.86.52.65.45-.1.52-.85.59-1.77.91-3.83,1.3-5.33.65-1.55.52-.39.46.32.52,1.11.59,2.06.98,4.61,1.24,5.65.66,1.87.52.65.46-.1.53-.86.59-1.78.99-4.15,1.25-5.05.66-1.54.53-.39.46.33.53,1.13.59,2.08.99,4.64,1.26,5.67.66,1.87.53.64.46-.11.53-.87.6-1.8,1-4.17,1.26-5.06.66-1.54.53-.38.47.34.53,1.14.6,2.1,1,4.67,1.27,5.69.67,1.87.53.64.47-.12.54-.89.6-1.81,1.01-4.19,1.27-5.08.67-1.54.54-.37.47.35.54,1.15.61,2.12,1.01,4.7,1.28,5.71.61,1.73.54.73.47-.04.54-.8.61-1.74.95-3.86,1.42-5.69.61-1.43.54-.47.48.27.54,1.07.61,2.05.95,4.33,1.43,6.4.61,1.73.55.73.48-.04.55-.81.61-1.76.96-3.88,1.44-5.71.62-1.43.55-.46.48.28.55,1.09.62,2.07.96,4.36,1.44,6.43.62,1.73.55.73.48-.05.55-.83.62-1.77.97-3.9,1.45-5.73.62-1.43.55-.45.48.29.55,1.1.62,2.09.97,4.39,1.39,6.21.69,1.98.56.72.49-.06.56-.84.63-1.79.98-3.93,1.39-5.54.7-1.64.56-.44.49.3.56,1.12.63,2.11.98,4.42,1.4,6.23.7,1.98.56.72.49-.07.56-.85.63-1.81.98-3.95,1.41-5.55.71-1.63.56-.44.49.31.56,1.13.64,2.12.99,4.45,1.42,6.25.71,1.98.57.71.5-.08.57-.86.64-1.82.99-3.98,1.42-5.57.71-1.63.57-.43.5.32.57,1.15.64,2.14,1,4.48,1.43,6.28.72,1.98.57.71.5-.08.57-.87.65-1.84,1-4,1.44-5.59.72-1.63.58-.42.5.33.58,1.16.65,2.16,1.01,4.51,1.44,6.31.72,1.98.58.7.51-.09.58-.89.65-1.85,1.01-4.02,1.45-5.61.73-1.63.58-.41.51.34.58,1.18.66,2.18,1.02,4.53,1.46,6.33.73,1.98.58.7.51-.1.59-.9.66-1.87,1.1-4.36,1.39-5.31.73-1.63.59-.41.51.35.59,1.19.66,2.2,1.1,4.91,1.4,6.01.74,1.98.59.69.52-.11.59-.91.67-1.89,1.11-4.39,1.41-5.33.74-1.62.59-.4.52.37.59,1.21.67,2.22,1.12,4.94,1.41,6.03.75,1.99.6.69.52-.12.6-.92.67-1.9,1.12-4.41,1.42-5.35.75-1.62.6-.39.52.38.6,1.22.68,2.24,1.13,4.98,1.43,6.06.75,1.99.6.68.53-.12.6-.94.68-1.92,1.13-4.44,1.44-5.37.68-1.51.61-.49.53.29.61,1.14.68,2.17,1.06,4.59,1.6,6.79.68,1.84.61.78.53-.04.61-.85.69-1.85,1.07-4.08.61-2.52"/>
    <path class="cls-2" d="m558.1,84.3h0l1.77,7.82.41.73.41.03.41-.65.47-1.47.83-3.62.89-3.52.47-1,.42-.16.42.54.48,1.41.65,2.91,1.25,5.75.48,1.23.42.37.42-.34.48-1.18.66-2.6,1.31-5.37.48-.93.42-.09.42.62.48,1.48.66,2.97,1.2,5.5.48,1.27.42.4.42-.31.42-.97.6-2.25,1.56-6.26.48-.75.42.08.42.78.48,1.64.78,3.7.97,4.34.48,1.3.41.43.38-.2.42-.86.54-1.9,1.82-7.1.42-.55.42.16.42.85.49,1.71.85,4.05.91,3.98.49,1.24.43.36.43-.35.49-1.2.67-2.64,1.28-5.24.49-1.03.43-.18.43.54.49,1.41.67,2.94,1.35,6.05.49,1.17.43.29.43-.42.49-1.27.68-2.7,1.23-5.01.49-1.06.43-.21.43.51.43,1.17.62,2.56,1.6,7.08.49.99.43.11.43-.59.49-1.43.8-3.38.99-3.95.5-1.1.42-.24.39.37.43,1.06.56,2.17,1.86,8.04.44.75.44.04.44-.66.5-1.5.87-3.71.94-3.61.5-1.03.44-.17.44.55.5,1.44.69,2.99,1.32,5.91.5,1.27.44.38.44-.34.44-1.01.63-2.31,1.57-6.21.5-.85h.44s.44.74.44.74l.5,1.61.76,3.43,1.14,5.04.51,1.31.41.41.41-.22.44-.9.57-1.96,1.9-7.22.44-.53.44.19.44.9.57,2.03,1.27,5.98.7,2.53.45.85.45.14.45-.58.51-1.44.83-3.41,1.02-4.02.51-1.13.44-.26.39.36.45,1.06.58,2.19,1.99,8.35.45.68h.38s.45-.65.45-.65l.51-1.5.9-3.75.96-3.68.51-1.06.45-.19.45.55.45,1.22.64,2.64,1.61,7.03.52,1.1.45.2.45-.53.52-1.39.78-3.12,1.17-4.58.52-1.09.42-.23.42.41.45,1.11.58,2.25,1.95,8.2.46.75.46.02.46-.7.59-1.79,1.24-5.21.72-2.35.52-.8.46.07.46.8.52,1.69.85,3.85,1.05,4.55.52,1.39.46.47.4-.18.46-.87.59-1.95,2.04-7.53.46-.49.4.17.46.87.53,1.76.92,4.22.99,4.18.53,1.32.46.4.46-.34.46-1.03.66-2.37,1.66-6.37.53-.88h.46s.46.75.46.75l.53,1.65.8,3.52,1.2,5.19.53,1.35.44.43.43-.22.47-.91.6-2,2-7.4.47-.55.47.19.47.92.6,2.09,1.27,5.86.74,2.72.54,1.06.47.15.47-.59.54-1.47.87-3.5,1.08-4.12.54-1.16.47-.27.4.37.47,1.09.61,2.25,2.09,8.59.47.71.41.02.47-.67.54-1.54.95-3.84,1.02-3.78.54-1.09.48-.19.48.56.48,1.26.68,2.71,1.7,7.24.54,1.14.48.21.48-.54.55-1.42.82-3.19,1.23-4.7.55-1.13.45-.23.44.42.48,1.14.62,2.31,2.06,8.45.48.78.48.03.48-.71.62-1.83,1.31-5.34.76-2.41.55-.83.48.07.48.82.55,1.74.9,3.95,1.11,4.69.55,1.43.49.5.48-.27.48-.98.69-2.35,1.87-6.92.56-.75.49.15.49.89.56,1.81.97,4.34,1.04,4.31.56,1.36.49.42.49-.34.49-1.05.7-2.42,1.75-6.54.56-.9h.49s.49.77.49.77l.56,1.69.84,3.62,1.26,5.34.56,1.4.46.45.45-.22.49-.93.63-2.05,2.11-7.6.49-.57.49.19.49.94.64,2.14,1.27,5.72.85,3.11.57,1.1.5.16.5-.6.57-1.5.92-3.58,1.14-4.24.57-1.19.5-.28.49.49.5,1.22.71,2.71,1.93,7.89.57,1.02.5.08.5-.68.57-1.57,1-3.94,1.07-3.88.57-1.12.5-.2.5.57.5,1.29.72,2.78,1.8,7.45.58,1.18.5.23.5-.54.58-1.45.87-3.27,1.3-4.83.58-1.16.48-.24.46.43.51,1.17.65,2.37,2.17,8.7.51.81.51.04.51-.72.65-1.87,1.31-5.2.87-2.76.58-.85.51.07.51.84.58,1.78.95,4.07,1.17,4.83.58,1.48.52.52.51-.26.51-1,.73-2.41,1.98-7.11.59-.77.51.15.51.92.59,1.86,1.03,4.46,1.1,4.44.59,1.41.52.44.52-.34.52-1.07.74-2.48,1.85-6.72.59-.93h.52s.52.79.52.79l.59,1.74.89,3.72,1.34,5.5.59,1.45.5.47.47-.21.52-.95.67-2.1,2.24-7.81.52-.58.52.2.52.97.6,1.91,1.12,4.86,1.05,4.1.6,1.38.52.4.52-.39.6-1.33.83-2.92,1.58-5.77.6-1.12.53-.18.53.62.6,1.59.83,3.29,1.66,6.75.6,1.3.53.32.53-.47.6-1.41.91-3.29,1.44-5.22.61-1.16.53-.21.53.59.53,1.32.15.5"/>
    <path class="cls-2" d="m623.51,78.03h0l.35-.52.47-1.45,1.78-6.45.36-.17.36.43.41,1.18.59,2.58,1.07,4.67.42.93.36.18.36-.41.42-1.14.71-2.96.83-3.22.42-.81.36-.08.36.51.42,1.26.66,2.94.96,4.13.42.95.36.2.36-.39.42-1.12.72-2.95.84-3.25.42-.83.36-.1.36.49.42,1.25.66,2.94.96,4.16.42.97.36.22.36-.38.42-1.11.66-2.68.9-3.54.42-.85.36-.12.36.48.42,1.24.66,2.93.97,4.19.42.99.36.23.36-.36.42-1.1.67-2.68.97-3.73.42-.77.36-.03.36.56.42,1.32.73,3.29.85,3.63.43,1.02.37.25.37-.35.43-1.08.67-2.68.98-3.76.43-.79.37-.05.37.55.43,1.31.73,3.29.86,3.66.43,1.04.37.27.37-.33.43-1.07.67-2.67.98-3.79.43-.81.37-.07.37.53.43,1.3.68,3,.92,3.98.49,1.15.37.19.37-.41.43-1.15.74-3,.86-3.28.43-.83.37-.09.37.52.43,1.29.68,2.99.99,4.21.43.97.37.2.37-.4.43-1.14.74-3,.87-3.3.43-.85.37-.1.37.5.44,1.27.68,2.99,1,4.24.44,1,.37.22.37-.38.44-1.13.69-2.73.94-3.6.5-.93.38-.02.38.58.44,1.36.75,3.36.88,3.67.44,1.02.38.24.38-.37.44-1.11.69-2.72,1.01-3.8.44-.78.38-.04.38.57.44,1.34.76,3.35.88,3.7.44,1.04.38.26.38-.35.44-1.1.69-2.72,1.01-3.83.44-.8.38-.05.38.55.44,1.33.7,3.05.95,4.03.44,1.06.38.28.38-.33.44-1.09.7-2.72,1.02-3.86.45-.83.38-.07.38.54.45,1.32.7,3.05.96,4.06.51,1.17.38.19.38-.42.45-1.17.77-3.06.9-3.34.45-.85.38-.09.38.52.45,1.31.71,3.05,1.03,4.29.45,1,.39.21.39-.4.45-1.16.77-3.05.9-3.36.45-.87.39-.11.39.51.45,1.3.71,3.05,1.03,4.32.45,1.02.39.23.39-.38.45-1.14.71-2.77.97-3.67.52-.95.39-.02.39.59.45,1.38.78,3.42.91,3.75.46,1.04.39.25.39-.37.46-1.13.72-2.77,1.04-3.87.46-.8.39-.04.39.58.46,1.37.78,3.42.92,3.78.46,1.06.39.27.39-.35.46-1.12.72-2.77,1.05-3.9.46-.82.39-.06.39.56.46,1.36.72,3.11.99,4.11.46,1.08.4.29.4-.34.46-1.1.73-2.76,1.06-3.93.46-.84.4-.07.4.55.46,1.35.73,3.11,1.06,4.35.46,1,.4.2.4-.42.46-1.19.8-3.11.93-3.4.47-.86.4-.09.4.53.47,1.33.73,3.11,1.07,4.38.47,1.02.4.22.4-.4.47-1.17.8-3.11.94-3.43.47-.88.4-.11.4.52.47,1.32.74,3.11,1.07,4.41.47,1.04.4.24.4-.39.47-1.16.74-2.82,1.01-3.74.54-.97.4-.02.4.6.47,1.41.81,3.48.94,3.82.47,1.06.41.26.41-.37.47-1.15.74-2.82,1.08-3.94.47-.82.41-.04.41.59.47,1.39.81,3.49.95,3.85.48,1.09.41.28.41-.35.48-1.13.75-2.81,1.09-3.97.48-.84.41-.06.41.57.48,1.38.75,3.17,1.02,4.2.48,1.11.41.3.41-.34.48-1.12.75-2.81,1.1-4,.48-.86.41-.08.41.56.48,1.37.76,3.17,1.1,4.44.48,1.02.41.21.41-.42.48-1.21.83-3.16.97-3.46.48-.88.41-.09.41.54.48,1.36.76,3.17,1.11,4.47.48,1.04.42.23.42-.41.49-1.19.83-3.16.97-3.49.49-.9.42-.11.42.53.49,1.35.77,3.17,1.11,4.5.49,1.07.42.25.42-.39.49-1.18.77-2.87,1.05-3.81.56-.99.42-.02.42.62.49,1.43.84,3.55.98,3.9.49,1.09.42.27.42-.37.49-1.16.77-2.87,1.12-4.01.49-.83.42-.04.42.6.49,1.42.85,3.55.99,3.94.49,1.11.42.29.42-.36.49-1.15.78-2.86,1.13-4.05.5-.85.43-.06.43.58.5,1.41.78,3.23,1.06,4.29.57,1.23.43.2.43-.44.5-1.24.85-3.22,1-3.5.5-.88.43-.08.43.57.5,1.4.79,3.23,1.14,4.53.5,1.05.43.22.43-.43.5-1.22.86-3.22,1-3.53.5-.9.43-.1.43.55.5,1.38.79,3.23,1.15,4.57.5,1.07.43.24.43-.41.5-1.21.79-2.92,1.08-3.85.51-.92.43-.12.43.54.51,1.37.8,3.23,1.16,4.6.51,1.09.43.26.43-.39.51-1.2.8-2.92,1.09-3.88.58-1.01.44-.03.44.63.51,1.46.87,3.63,1.02,3.99.51,1.12.44.28.44-.38.51-1.18.8-2.92,1.17-4.09.51-.85.44-.04.44.61.51,1.45.88,3.63,1.03,4.02.51,1.14.44.3.44-.36.51-1.17.81-2.91,1.18-4.12.52-.87.44-.06.44.6.52,1.44.81,3.3,1.11,4.38.59,1.26.44.21.44-.45.52-1.26.89-3.28,1.04-3.57.52-.89.44-.08.45.58.52,1.42.82,3.3,1.19,4.63.52,1.07.45.23.45-.43.52-1.24.89-3.28,1.04-3.6.52-.92.45-.1.45.56.52,1.41.82,3.3,1.2,4.66.52,1.1.45.25.45-.41.52-1.23.82-2.98,1.13-3.92.53-.94.45-.12.45.55.53,1.4.83,3.3,1.2,4.7.53,1.12.15.16"/>
    <path class="cls-2" d="m685.09,57.87h0l.41-.83.35-.03.35.63.41,1.43,1.54,6.02.36.23.36-.42.41-1.21,1.6-5.55.36-.04.36.61.42,1.42,1.55,6.06.36.25.36-.41.42-1.2,1.61-5.59.36-.06.36.6.42,1.41,1.55,6.1.36.27.36-.39.42-1.18,1.68-5.68.36.04.36.69.48,1.74,1.32,5.39.36.5.36-.16.36-.79.54-2.01.96-3.67.42-.67.36.13.36.78.48,1.83,1.21,5.01.36.63.36-.03.36-.68.48-1.67,1.21-4.47.36-.44.36.23.36.87.55,2.18,1.03,4.33.42.81.36-.02.36-.66.49-1.66,1.22-4.5.37-.45.37.21.37.85.55,2.17,1.1,4.52.37.66h.37s.37-.65.37-.65l.49-1.65,1.22-4.53.37-.47.37.2.37.84.49,1.89,1.16,4.83.37.68.37.02.37-.64.49-1.64,1.29-4.68.37-.38.37.29.37.93.55,2.24,1.05,4.3.37.7.37.03.37-.62.49-1.63,1.3-4.71.37-.4.37.28.37.92.56,2.24,1.05,4.33.43.77.37-.06.37-.71.56-1.96,1.12-4.11.37-.52.37.15.37.8.5,1.87,1.24,5.08.37.63.37-.04.37-.7.5-1.7,1.25-4.53.37-.43.37.25.37.89.56,2.23,1.06,4.39.44.81.38-.03.38-.68.5-1.69,1.25-4.55.38-.45.38.23.38.88.57,2.22,1.07,4.41.44.83h.38s.38-.68.38-.68l.5-1.69,1.26-4.58.38-.46.38.21.38.87.57,2.21,1.14,4.61.38.68h.38s.38-.65.38-.65l.51-1.68,1.27-4.61.38-.48.38.2.38.85.51,1.92,1.27,5.08.38.59.38-.09.38-.74.57-2.01,1.08-3.99.45-.64.38.18.38.84.51,1.92,1.28,5.12.38.61.38-.07.38-.73.58-2,1.09-4.01.45-.66.38.16.38.83.51,1.91,1.28,5.15.39.63.39-.06.39-.72.58-1.99,1.16-4.19.39-.53.39.15.39.82.52,1.9,1.29,5.18.39.64.39-.04.39-.7.52-1.73,1.29-4.61.39-.44.39.25.39.91.58,2.26,1.1,4.47.45.83.39-.02.39-.69.52-1.72,1.3-4.64.39-.46.39.23.39.89.59,2.26,1.17,4.68.39.68h.39s.39-.68.39-.68l.52-1.71,1.31-4.67.39-.47.39.21.39.88.59,2.25,1.18,4.71.39.7h.39s.39-.65.39-.65l.52-1.7,1.31-4.7.39-.49.39.2.39.87.53,1.96,1.32,5.19.4.61.4-.09.4-.75.59-2.04,1.12-4.06.46-.66.4.18.4.86.53,1.95,1.32,5.22.4.62.4-.07.4-.74.6-2.03,1.19-4.24.4-.53.4.16.4.84.53,1.94,1.33,5.25.4.64.4-.05.4-.72.6-2.03,1.2-4.27.4-.54.4.15.4.83.53,1.93,1.34,5.29.4.66.4-.03.4-.71.54-1.76,1.34-4.69.4-.45.4.25.4.92.6,2.31,1.14,4.57.47.85.4-.02.4-.7.54-1.75,1.35-4.72.4-.47.4.23.41.91.61,2.3,1.22,4.77.41.7h.41s.41-.68.41-.68l.54-1.74,1.36-4.75.41-.49.41.22.41.89.54,2,1.29,5.09.41.72.41.02.41-.67.54-1.73,1.36-4.78.41-.5.41.2.41.88.55,1.99,1.37,5.29.41.62.41-.08.41-.76.62-2.08,1.16-4.14.48-.67.41.18.41.87.55,1.98,1.37,5.33.41.64.41-.06.41-.75.62-2.07,1.24-4.32.41-.54.41.17.41.86.55,1.98,1.38,5.36.41.66.41-.05.41-.73.55-1.79,1.32-4.61.42-.56.42.15.42.84.55,1.97,1.39,5.39.42.68.42-.03.42-.72.56-1.78,1.39-4.78.42-.46.42.25.42.94.63,2.35,1.19,4.66.49.88h.42s.42-.72.42-.72l.56-1.77,1.4-4.81.42-.48.42.23.42.92.63,2.34,1.26,4.87.42.72h.42s.42-.68.42-.68l.56-1.76,1.41-4.84.42-.5.42.22.42.91.56,2.04,1.34,5.2.42.74.42.02.42-.68.57-1.75,1.49-5.01.42-.4.42.32.43,1,.64,2.42,1.21,4.63.43.75.43.04.43-.66.57-1.75,1.49-5.04.43-.42.43.3.43.99.64,2.41,1.21,4.67.5.83.43-.06.43-.76.64-2.1,1.29-4.4.43-.55.43.17.43.87.57,2.01,1.43,5.47.43.68.43-.04.43-.74.57-1.82,1.44-4.84.43-.45.43.27.43.96.65,2.4,1.23,4.73.51.88.43-.02.43-.73.58-1.81,1.45-4.87.43-.47.43.25.43.95.65,2.39,1.23,4.76.51.9h.44s.44-.72.44-.72l.58-1.8,1.45-4.9.44-.49.44.24.44.94.66,2.38,1.31,4.98.44.74h.44s.44-.68.44-.68l.58-1.79,1.46-4.94.44-.51.44.22.44.92.59,2.07,1.47,5.48.44.64.44-.09.44-.79.66-2.15,1.25-4.27.51-.68.44.2.44.91.59,2.07,1.47,5.52.44.66.44-.07.44-.78.66-2.14,1.26-4.3.52-.7.44.18.44.9.59,2.06,1.48,5.56.45.68.45-.05.45-.76.67-2.13,1.34-4.48.45-.56.45.17.45.88.6,2.05,1.49,5.59.45.7.45-.04.45-.75.6-1.85.82-3.09"/>
    <path class="cls-2" d="m743.18,48.2h0l.82,3.33.35.62.29-.03.35-.68.47-1.7.89-3.29.35-.5.3.13.35.79.47,1.86.95,3.81.36.55.3-.09.36-.74.53-1.99.77-2.84.36-.55.3.08.36.75.47,1.83.95,3.87.36.6.3-.05.36-.7.54-1.96.83-3.03.36-.49.3.14.36.81.48,1.88.89,3.65.36.65h.3s.36-.66.36-.66l.48-1.68.96-3.47.36-.42.3.2.36.88.54,2.21.78,3.16.36.7.3.04.36-.61.48-1.65.96-3.52.36-.47.3.16.36.83.54,2.18.84,3.38.36.64.3-.02.36-.67.48-1.7.96-3.47.36-.41.3.22.36.9.54,2.23.79,3.16.36.69.3.02.36-.63.48-1.67.97-3.52.36-.46.3.18.36.85.55,2.2.85,3.38.36.62.3-.04.36-.69.55-1.97.85-3.08.37-.51.3.13.37.81.49,1.89.98,3.87.37.56.31-.1.37-.75.55-2.02.79-2.88.37-.56.31.09.37.76.49,1.86.98,3.93.37.61.31-.05.37-.71.55-1.99.86-3.07.37-.49.31.15.37.83.49,1.92.92,3.71.37.66h.31s.37-.67.37-.67l.49-1.71.99-3.52.37-.43.31.21.37.89.56,2.24.8,3.21.37.71.31.04.37-.62.49-1.68.99-3.57.37-.48.31.17.37.85.56,2.21.87,3.43.37.65.31-.02.37-.68.5-1.73.93-3.38.37-.53.31.12.37.81.5,1.91,1,3.93.37.58.31-.08.37-.75.56-2.03.87-3.06.37-.46.31.18.38.87.56,2.24.88,3.43.38.63.31-.04.38-.7.56-2,.88-3.12.38-.51.31.14.38.83.5,1.93,1.01,3.93.38.56.31-.1.38-.77.57-2.06.82-2.92.38-.56.32.09.38.78.5,1.89,1.01,3.99.38.62.32-.05.38-.72.57-2.02.89-3.12.38-.5.32.15.38.85.51,1.95.95,3.77.38.67h.32s.38-.69.38-.69l.51-1.74,1.02-3.56.38-.43.32.22.38.91.57,2.28.83,3.26.38.72.32.04.38-.63.51-1.7,1.02-3.62.38-.48.32.17.38.87.58,2.25.9,3.49.38.65.32-.03.38-.7.51-1.76.96-3.42.38-.53.32.13.39.82.51,1.94,1.03,3.99.39.59.32-.09.39-.76.58-2.07.84-2.96.39-.58.32.08.39.78.52,1.91,1.03,4.05.39.64.32-.04.39-.72.58-2.04.91-3.16.39-.52.32.14.39.84.52,1.96,1.04,3.99.39.57.32-.1.39-.78.58-2.09.84-2.96.39-.57.33.1.39.8.52,1.93,1.04,4.05.39.62.33-.06.39-.74.59-2.06.91-3.16.39-.5.33.16.39.86.59,2.27.92,3.54.39.68h.33s.39-.7.39-.7l.52-1.76,1.05-3.61.39-.43.33.22.39.93.59,2.32.85,3.31.39.73.33.03.39-.64.53-1.73,1.05-3.67.4-.48.33.18.4.89.59,2.29.92,3.54.4.66.33-.03.4-.71.53-1.79.99-3.47.4-.54.33.13.4.84.53,1.97,1.06,4.05.4.59.33-.09.4-.77.6-2.1.86-3,.4-.59.33.09.4.79.53,1.94,1.07,4.11.4.65.33-.04.4-.73.6-2.07.93-3.21.4-.52.33.15.4.86.53,2,1.07,4.05.4.58.33-.11.4-.79.6-2.12.87-3,.4-.57.34.1.4.81.54,1.96,1.08,4.11.4.63.34-.06.4-.75.61-2.09.94-3.2.4-.5.34.17.4.88.61,2.31.95,3.6.41.69h.34s.41-.72.41-.72l.54-1.79,1.08-3.67.41-.43.34.23.41.95.61,2.36.88,3.36.41.74.34.03.41-.65.54-1.76,1.09-3.73.41-.49.34.18.41.9.61,2.33.95,3.6.41.67.34-.03.41-.72.55-1.81,1.02-3.52.41-.54.34.14.41.86.55,2.01,1.09,4.12.41.6.34-.09.41-.79.62-2.13.89-3.05.41-.59.34.09.41.81.55,1.97,1.1,4.18.41.66.34-.05.41-.74.62-2.1.96-3.25.41-.52.34.16.41.88.55,2.03,1.04,3.95.41.71h.35s.41-.69.41-.69l.55-1.8,1.11-3.72.42-.45.35.22.42.95.62,2.38.9,3.42.42.76.35.05.42-.65.56-1.77,1.11-3.78.42-.51.35.17.42.9.63,2.35.98,3.66.42.7.35-.02.42-.72.56-1.82,1.12-3.72.42-.44.35.24.42.97.63,2.41.91,3.42.42.75.35.03.42-.67.56-1.79,1.12-3.78.42-.49.35.19.42.92.63,2.37.99,3.65.42.68.35-.03.42-.74.63-2.11.99-3.3.42-.54.35.15.42.88.57,2.05,1.13,4.18.42.61.35-.1.42-.8.64-2.17.92-3.09.43-.6.35.1.43.83.57,2.01,1.14,4.25.43.66.36-.05.43-.76.64-2.14,1-3.3.43-.53.36.16.43.9.57,2.07,1.07,4.01.43.72h.36s.43-.71.43-.71l.57-1.83,1.14-3.77.43-.46.36.23.43.97.64,2.42.93,3.47.43.77.36.05.43-.66.57-1.8,1.15-3.84.43-.51.36.18.43.92.65,2.39,1.01,3.72.43.7.36-.02.43-.73.58-1.85,1.16-3.77.43-.44.36.25.43.99.65,2.45.94,3.47.43.76.36.03.43-.68.58-1.82,1.16-3.83.44-.49.36.2.44.94.65,2.42,1.02,3.72.44.69.36-.03.44-.75.66-2.15,1.02-3.35.44-.55.36.15.44.89.58,2.08,1.17,4.25.44.62.37-.1.44-.82.66-2.2.95-3.13.44-.6.37.1.44.85.59,2.05,1.17,4.32.44.67.37-.05.44-.77.66-2.17,1.03-3.35.44-.53.37.17.44.92.59,2.11,1.11,4.08.44.73h.37s.44-.72.44-.72l.59-1.86,1.18-3.83.44-.46.37.24.44.99.22.73"/>
    <g id="patch_6-2" data-name="patch 6">
      <path class="cls-8" d="m1315.5,150.65V5.75l-694.46,190.73v216.18l694.46-262.02Z"/>
    </g>
    <path class="cls-3" d="m725.31,373.33v-205.48"/>
    <path class="cls-3" d="m819.75,337.7v-194.94"/>
    <path class="cls-3" d="m905.68,305.28V118.79"/>
    <path class="cls-3" d="m983.68,275.85V97.67"/>
    <path class="cls-3" d="m1056.23,248.47V77.62"/>
    <path class="cls-3" d="m1122.54,222.94V58.72"/>
    <path class="cls-3" d="m1183.79,200.34V41.93"/>
    <path class="cls-3" d="m1240.53,178.93V27.06"/>
    <path class="cls-3" d="m1293.26,159.04V12.15"/>
    <g>
      <g id="line2d_56" data-name="line2d 56">
        <path id="mb5c1e0717a" class="cls-11" d="m621.04,412.71l-2.44.92"/>
      </g>
      <g id="line2d_58" data-name="line2d 58">
        <path id="mb5c1e0717a-2" data-name="mb5c1e0717a" class="cls-11" d="m621.04,376.68l-2.44.88"/>
      </g>
      <g id="line2d_60" data-name="line2d 60">
        <path id="mb5c1e0717a-3" data-name="mb5c1e0717a" class="cls-11" d="m621.04,340.65l-2.44.84"/>
      </g>
      <g id="line2d_62" data-name="line2d 62">
        <path id="mb5c1e0717a-4" data-name="mb5c1e0717a" class="cls-11" d="m621.04,304.62l-2.44.8"/>
      </g>
      <g id="line2d_64" data-name="line2d 64">
        <path id="mb5c1e0717a-5" data-name="mb5c1e0717a" class="cls-11" d="m621.04,268.59l-2.44.75"/>
      </g>
      <g id="line2d_66" data-name="line2d 66">
        <path id="mb5c1e0717a-6" data-name="mb5c1e0717a" class="cls-11" d="m621.04,232.56l-2.44.71"/>
      </g>
      <g id="line2d_68" data-name="line2d 68">
        <path id="mb5c1e0717a-7" data-name="mb5c1e0717a" class="cls-11" d="m621.04,196.53l-2.44.67"/>
      </g>
      <g id="Perspektiventext-10" data-name="Perspektiventext">
        <g>
          <path class="cls-12" d="m591.07,211.31v-11.93c-.39.58-.76,1.08-1.1,1.49-.34.42-.73.79-1.15,1.13v-1.77c.22-.21.45-.45.69-.74.24-.29.52-.68.83-1.19.31-.51.67-1.2,1.08-2.07l.96-.26v14.97l-1.31.36Z"/>
          <path class="cls-12" d="m595.73,210.26c-.32.09-.58.01-.8-.23s-.33-.59-.33-1.03.11-.85.33-1.21.49-.59.8-.68.58,0,.8.23.33.59.33,1.03-.11.85-.33,1.21-.48.59-.8.68Z"/>
          <path class="cls-12" d="m602.03,208.51c-1.23.34-2.19-.07-2.87-1.23-.68-1.16-1.02-2.96-1.02-5.4s.34-4.43,1.02-5.96c.68-1.54,1.64-2.47,2.87-2.8s2.19.08,2.86,1.25c.67,1.16,1.01,2.96,1.01,5.39s-.34,4.41-1.01,5.94c-.68,1.53-1.63,2.47-2.86,2.82Zm0-1.49c.82-.23,1.43-.93,1.85-2.1s.63-2.77.63-4.79-.21-3.51-.63-4.45-1.03-1.3-1.85-1.08-1.44.92-1.85,2.09-.63,2.77-.63,4.8.21,3.52.63,4.46,1.04,1.3,1.85,1.07Z"/>
          <path class="cls-12" d="m611.57,205.86c-1.22.34-2.17-.07-2.84-1.23-.68-1.16-1.01-2.95-1.01-5.38s.34-4.41,1.01-5.93c.67-1.53,1.62-2.46,2.84-2.79s2.17.08,2.84,1.24c.67,1.16,1,2.95,1,5.37s-.33,4.39-1,5.92c-.67,1.53-1.61,2.46-2.84,2.8Zm0-1.48c.81-.22,1.42-.92,1.83-2.08s.62-2.75.62-4.77-.21-3.49-.62-4.43-1.03-1.3-1.83-1.08-1.42.91-1.84,2.08-.62,2.76-.62,4.78.21,3.5.62,4.44,1.03,1.29,1.84,1.07Z"/>
        </g>
      </g>
      <g id="Perspektiventext-11" data-name="Perspektiventext">
        <g>
          <path class="cls-12" d="m591.89,284.38c-1.24.39-2.21.01-2.9-1.13-.69-1.14-1.03-2.94-1.03-5.39s.34-4.46,1.03-6.03c.69-1.57,1.65-2.54,2.9-2.92s2.21,0,2.89,1.15c.68,1.14,1.02,2.94,1.02,5.38s-.34,4.45-1.02,6.01c-.68,1.57-1.64,2.54-2.89,2.93Zm0-1.5c.82-.26,1.45-.98,1.87-2.17s.63-2.8.63-4.84-.21-3.52-.63-4.45-1.04-1.27-1.87-1.02-1.45.97-1.87,2.16-.63,2.81-.63,4.85.21,3.52.63,4.45,1.05,1.27,1.87,1.01Z"/>
          <path class="cls-12" d="m598.2,282.41c-.32.1-.58.03-.8-.21s-.33-.58-.33-1.02.11-.85.33-1.22.48-.61.8-.7.58-.03.8.21.33.58.33,1.02-.11.85-.33,1.22-.48.61-.8.71Z"/>
          <path class="cls-12" d="m601.38,281.17c.39-2.69.95-5.22,1.7-7.6.74-2.38,1.66-4.73,2.75-7.07l-5.9,1.8v-1.59l7.21-2.2v1.39c-.5,1.21-.97,2.41-1.41,3.6-.44,1.2-.85,2.4-1.21,3.61-.37,1.21-.68,2.44-.95,3.7s-.47,2.54-.62,3.86l-1.56.49Z"/>
          <path class="cls-12" d="m611.87,278.15c-.61.19-1.19.19-1.75.01s-1.02-.55-1.4-1.12c-.37-.57-.59-1.34-.66-2.31l1.34-1c.05,1.03.28,1.84.68,2.42.4.59.98.76,1.75.52.47-.15.89-.44,1.25-.87.36-.43.64-.96.84-1.59s.31-1.3.31-2.03c0-1.1-.23-1.88-.68-2.33-.45-.45-1.01-.57-1.68-.37-.59.18-1.05.53-1.39,1.05-.33.52-.58,1.06-.74,1.62l-1.28.21.43-8.4,6.03-1.84v1.58l-4.93,1.51-.28,5.69-.36.07c.26-.71.63-1.36,1.1-1.94s1.04-.97,1.71-1.17,1.22-.17,1.73.09.91.7,1.21,1.34.44,1.45.44,2.41c0,1.07-.17,2.05-.51,2.95-.34.9-.79,1.65-1.35,2.26s-1.17,1.01-1.82,1.22Z"/>
        </g>
      </g>
      <g id="Perspektiventext-12" data-name="Perspektiventext">
        <g>
          <path class="cls-12" d="m590.37,357.97c-1.24.43-2.21.09-2.9-1.03-.69-1.12-1.03-2.91-1.03-5.36s.34-4.47,1.03-6.07c.69-1.59,1.66-2.6,2.9-3.02s2.21-.07,2.9,1.05c.68,1.12,1.02,2.9,1.02,5.35s-.34,4.46-1.02,6.05c-.68,1.59-1.65,2.6-2.9,3.03Zm0-1.5c.83-.29,1.45-1.03,1.87-2.24s.63-2.83.63-4.86-.21-3.51-.63-4.43-1.05-1.24-1.87-.95-1.45,1.02-1.87,2.23-.64,2.83-.64,4.87.21,3.52.64,4.44,1.05,1.23,1.87.94Z"/>
          <path class="cls-12" d="m596.68,355.78c-.32.11-.58.05-.8-.18s-.33-.56-.33-1.01.11-.85.33-1.23.48-.62.8-.73.58-.05.8.18.33.56.33,1.01-.11.85-.33,1.23-.48.62-.8.73Z"/>
          <path class="cls-12" d="m599.33,354.62v-1.22l3.74-5.73c.51-.78.92-1.47,1.24-2.08.32-.61.56-1.19.71-1.75s.23-1.16.23-1.78c0-.68-.08-1.23-.25-1.63-.17-.41-.41-.67-.73-.8s-.71-.11-1.17.05c-.53.18-.96.47-1.29.88-.33.4-.57.88-.73,1.43-.16.55-.25,1.14-.28,1.77l-1.42-.13c.03-.67.2-1.38.51-2.13.31-.75.74-1.43,1.29-2.03s1.18-1.03,1.91-1.28c.41-.14.83-.2,1.25-.17s.8.16,1.15.4c.35.24.63.62.85,1.13.21.51.32,1.18.32,2,0,1.18-.23,2.31-.68,3.39-.46,1.08-1.09,2.23-1.91,3.44l-2.89,4.27-.94.08,6.63-2.29v1.59l-7.52,2.6Z"/>
          <path class="cls-12" d="m611.87,350.53c-.61.21-1.19.24-1.75.07-.56-.16-1.02-.52-1.4-1.07-.37-.55-.59-1.32-.66-2.29l1.34-1.05c.05,1.03.28,1.83.68,2.4.4.57.98.73,1.75.46.47-.16.89-.47,1.25-.91.36-.44.64-.98.84-1.61s.31-1.31.31-2.04c0-1.1-.23-1.87-.68-2.31-.45-.44-1.01-.54-1.68-.31-.59.2-1.05.57-1.39,1.1-.33.53-.58,1.08-.74,1.65l-1.28.25.43-8.42,6.03-2.04v1.58l-4.93,1.68-.28,5.7-.36.08c.26-.72.63-1.38,1.1-1.97s1.04-1,1.71-1.23,1.22-.21,1.73.03.91.67,1.21,1.3.44,1.43.44,2.4c0,1.07-.17,2.06-.51,2.97-.34.91-.79,1.68-1.35,2.3s-1.17,1.05-1.82,1.28Z"/>
        </g>
      </g>
      <g id="Perspektiventext-13" data-name="Perspektiventext">
        <g>
          <path class="cls-12" d="m589.41,431.44c-1.25.47-2.21.16-2.9-.93-.69-1.1-1.03-2.87-1.03-5.33s.34-4.49,1.03-6.11c.69-1.62,1.66-2.66,2.9-3.12s2.21-.15,2.9.95c.68,1.1,1.02,2.87,1.02,5.31s-.34,4.47-1.02,6.09c-.68,1.61-1.65,2.66-2.9,3.13Zm0-1.5c.83-.31,1.45-1.08,1.87-2.3s.63-2.85.63-4.89-.21-3.51-.63-4.41-1.05-1.2-1.87-.89-1.45,1.07-1.88,2.3-.64,2.85-.64,4.9.21,3.52.64,4.42,1.05,1.19,1.88.88Z"/>
          <path class="cls-12" d="m595.73,429.04c-.32.12-.58.07-.8-.15s-.33-.55-.33-1,.11-.86.33-1.25.49-.64.8-.76.58-.07.8.15.33.55.33,1-.11.86-.33,1.24-.48.64-.8.76Z"/>
          <path class="cls-12" d="m602.03,426.64c-1.23.47-2.19.16-2.87-.93-.68-1.09-1.02-2.86-1.02-5.3s.34-4.46,1.02-6.07c.68-1.6,1.64-2.64,2.87-3.1s2.19-.14,2.86.95c.67,1.09,1.01,2.86,1.01,5.29s-.34,4.45-1.01,6.05c-.68,1.6-1.63,2.64-2.86,3.11Zm0-1.49c.82-.31,1.43-1.07,1.85-2.28s.63-2.83.63-4.86-.21-3.49-.63-4.38-1.03-1.2-1.85-.89-1.44,1.07-1.85,2.28-.63,2.84-.63,4.87.21,3.49.63,4.39,1.04,1.19,1.85.88Z"/>
          <path class="cls-12" d="m611.57,423.01c-1.22.46-2.17.15-2.84-.94-.68-1.09-1.01-2.85-1.01-5.28s.34-4.44,1.01-6.04c.67-1.6,1.62-2.62,2.84-3.08s2.17-.14,2.84.95c.67,1.09,1,2.84,1,5.26s-.33,4.43-1,6.02c-.67,1.6-1.61,2.63-2.84,3.09Zm0-1.48c.81-.31,1.42-1.06,1.83-2.27s.62-2.82.62-4.83-.21-3.47-.62-4.37-1.03-1.19-1.83-.89-1.42,1.06-1.84,2.27-.62,2.82-.62,4.84.21,3.48.62,4.37,1.03,1.19,1.84.88Z"/>
        </g>
      </g>
    </g>
    <g>
      <line class="cls-4" x1="5.54" y1="213.25" x2="536.8" y2="425.38"/>
      <polygon class="cls-12" points="522.73 426.39 561.35 435.19 539.97 420.07 522.73 426.39"/>
    </g>
    <g id="Perspektiventext-14" data-name="Perspektiventext">
      <g>
        <path class="cls-12" d="m86.46,284.79l33.36-8.42-8.04-3.3,3.76-.94,19.07,7.79-3.78.96-8.18-3.36-33.39,8.45-2.81-1.19Z"/>
        <path class="cls-12" d="m134.54,282.93c-.62-.25-.8-.56-.53-.92.26-.36.89-.66,1.87-.92s2.07-.38,3.19-.38c1.12,0,2,.13,2.62.38s.82.56.56.92-.88.66-1.89.92-2.05.38-3.18.38-2.01-.13-2.64-.38Zm-34.03,7.82l28.04-7.18,2.68,1.11-28.06,7.21-2.67-1.13Z"/>
        <path class="cls-12" d="m108.39,294.1l28.1-7.25,2.55,1.05-4.77,1.24c1.86-.21,3.8-.25,5.82-.14,2.02.11,3.69.44,5,.98,1.16.48,1.67,1.03,1.53,1.65s-.92,1.26-2.35,1.92c2.27-.22,4.42-.27,6.46-.15s3.72.44,5.01.98c1.71.7,2.09,1.52,1.14,2.44-.95.93-3.14,1.85-6.6,2.76l-17.86,4.72-2.77-1.17,17.51-4.62c1.6-.42,2.87-.83,3.81-1.22.94-.39,1.49-.77,1.63-1.13s-.2-.71-1.02-1.05c-.9-.37-2.11-.6-3.63-.69-1.52-.09-3.25-.01-5.2.22s-4.04.64-6.26,1.22l-14.82,3.88-2.73-1.16,17.47-4.56c1.59-.42,2.86-.82,3.81-1.2.94-.39,1.49-.76,1.64-1.11.15-.35-.17-.7-.97-1.03-.89-.37-2.08-.6-3.59-.68s-3.23-.02-5.18.21c-1.95.23-4.04.63-6.27,1.21l-14.78,3.83-2.69-1.14Z"/>
        <path class="cls-12" d="m144.17,309.72c-1.72-.73-2.59-1.52-2.62-2.38s.73-1.72,2.28-2.59c1.54-.87,3.82-1.71,6.83-2.51,3.02-.8,5.96-1.35,8.85-1.66,2.88-.3,5.54-.36,7.97-.17s4.49.64,6.17,1.33c.97.4,1.7.86,2.2,1.39.5.53.57,1.12.2,1.77-.36.65-1.32,1.35-2.87,2.11s-3.9,1.56-7.04,2.41l-14.71-6.16,3.56-.95,12.24,5.11-2.46.11c2.43-.69,4.16-1.33,5.19-1.93,1.03-.59,1.52-1.13,1.45-1.62-.07-.48-.55-.91-1.45-1.28-1.07-.44-2.41-.71-4.04-.8s-3.48,0-5.54.27c-2.07.27-4.29.72-6.68,1.36-3.53.94-5.81,1.86-6.83,2.76s-.68,1.72,1.01,2.43c1.22.52,2.73.82,4.54.91,1.81.09,3.82-.02,6.04-.35l1.31,1.57c-2.1.26-4.1.4-6,.4-1.91,0-3.68-.12-5.31-.37-1.63-.26-3.06-.65-4.29-1.17Z"/>
        <path class="cls-12" d="m171.77,321.43c-1.51-.64-2.23-1.38-2.16-2.2s.91-1.68,2.51-2.56c1.6-.88,3.92-1.74,6.97-2.57s5.98-1.41,8.84-1.74c2.86-.33,5.46-.43,7.8-.28,2.35.15,4.28.54,5.8,1.16,1.23.51,1.99,1.14,2.28,1.89.29.76-.36,1.57-1.94,2.43l-.54-.08,16.58-4.59,2.96,1.21-39.48,10.97-2.76-1.17,6-1.66-.34.15c-2.61.36-5.01.44-7.22.22s-3.97-.61-5.3-1.17Zm4.5-.7c.98.42,2.27.69,3.86.82,1.59.13,3.46.06,5.61-.19s4.5-.74,7.08-1.45c3.83-1.06,6.14-2.06,6.92-3.01s.43-1.71-1.05-2.32c-1.56-.64-3.79-.91-6.72-.79-2.92.12-6.19.67-9.81,1.66s-5.78,1.92-6.78,2.85c-1,.94-.71,1.75.89,2.42Z"/>
        <path class="cls-12" d="m194.24,330.97c-1.8-.76-2.74-1.62-2.84-2.55-.09-.94.61-1.88,2.1-2.83,1.49-.95,3.71-1.84,6.66-2.66s5.91-1.38,8.9-1.69c2.99-.3,5.8-.35,8.42-.13,2.63.22,4.84.7,6.65,1.45s2.79,1.58,2.93,2.51c.14.93-.52,1.87-1.97,2.83-1.45.96-3.66,1.86-6.61,2.7s-5.96,1.42-9,1.73c-3.04.31-5.9.36-8.56.13-2.66-.23-4.89-.72-6.7-1.49Zm3.75-1.06c1.82.77,4.27,1.09,7.36.96s6.37-.68,9.84-1.67,5.69-1.98,6.62-2.98.49-1.88-1.34-2.63-4.25-1.07-7.29-.95-6.29.67-9.77,1.64-5.69,1.96-6.67,2.96-.57,1.9,1.24,2.67Z"/>
        <path class="cls-12" d="m208.6,336.61l28.7-8.19,2.88,1.19-4.87,1.39c1.94-.23,3.99-.28,6.16-.15,2.17.13,3.99.5,5.47,1.11,1.31.54,1.94,1.16,1.89,1.86s-.78,1.42-2.18,2.17c2.37-.24,4.65-.3,6.85-.17s4.02.5,5.48,1.1c1.93.79,2.47,1.71,1.61,2.76-.86,1.05-3.04,2.09-6.57,3.12l-18.24,5.34-3.13-1.33,17.88-5.22c1.63-.48,2.92-.94,3.86-1.38.94-.44,1.46-.87,1.55-1.28s-.32-.81-1.25-1.19c-1.02-.42-2.34-.68-3.97-.78-1.63-.1-3.46-.01-5.49.25s-4.19.72-6.46,1.38l-15.14,4.38-3.09-1.31,17.84-5.15c1.63-.47,2.91-.92,3.85-1.36.94-.44,1.46-.85,1.57-1.25.11-.4-.29-.79-1.2-1.16-1-.41-2.31-.67-3.92-.77s-3.43-.02-5.47.23c-2.03.26-4.19.71-6.47,1.37l-15.11,4.32-3.04-1.29Z"/>
        <path class="cls-12" d="m246.2,353.03c-1.36-.58-2.16-1.19-2.41-1.83-.25-.64,0-1.27.76-1.88.76-.61,1.95-1.15,3.58-1.63,1.74-.51,3.69-.83,5.87-.96s4.46-.01,6.85.36c2.39.37,4.77,1.05,7.14,2.03l3.43,1.43h-.82l1.58-.47c2.31-.69,3.75-1.35,4.32-2,.57-.64.08-1.28-1.47-1.92-1.46-.6-3.1-.91-4.94-.92-1.84-.01-3.67.23-5.49.74l-2.42-1.82c1.65-.41,3.47-.65,5.46-.72,1.99-.07,3.97.03,5.95.31,1.98.28,3.77.75,5.38,1.41s2.59,1.38,2.77,2.07-.31,1.39-1.45,2.09-2.89,1.4-5.22,2.1l-13.24,3.96c-.59.18-.93.32-1.01.43-.08.11.08.25.48.42l1.17.49-3.79,1.14-2.05-.87c-.87-.37-1.21-.79-1.03-1.27.18-.48.86-.89,2.03-1.24l2.05-.61.48.2c-.96.14-2.02.25-3.19.32s-2.38.09-3.64.04c-1.26-.05-2.5-.18-3.72-.39-1.22-.22-2.35-.55-3.4-.99Zm4.51-.82c1.05.44,2.39.75,4.03.91,1.64.16,3.52.12,5.64-.11s4.44-.73,6.94-1.47l.24-.07-3.22-1.35c-1.69-.71-3.32-1.17-4.91-1.39s-3.05-.28-4.37-.17c-1.32.1-2.44.29-3.36.56s-1.6.57-2.04.91c-.45.34-.6.7-.46,1.07.14.38.64.75,1.51,1.12Z"/>
        <path class="cls-12" d="m298.52,350.25c-.75-.31-1.03-.68-.84-1.11.19-.43.8-.8,1.82-1.11s2.17-.47,3.41-.46c1.24,0,2.23.16,2.98.46s1.05.68.87,1.11-.79.8-1.83,1.11-2.15.46-3.4.47-2.25-.15-3.02-.47Zm-35.39,9.49l28.97-8.72,3.26,1.34-28.99,8.75-3.24-1.38Z"/>
        <path class="cls-12" d="m272.71,363.81l29.02-8.82,3.1,1.28-6.5,1.98,1.04-.41c2.22-.27,4.51-.33,6.89-.18s4.45.58,6.2,1.31c1.52.63,2.37,1.3,2.57,2.04.19.73-.25,1.48-1.33,2.25s-2.82,1.52-5.2,2.25l-18.4,5.69-3.33-1.41,18.04-5.56c2.38-.73,3.94-1.47,4.68-2.22.74-.75.28-1.46-1.36-2.14-1.78-.73-4.16-1.07-7.16-1-3,.07-6.23.63-9.7,1.69l-15.27,4.66-3.28-1.39Z"/>
      </g>
    </g>
    <g>
      <line class="cls-4" x1="686.28" y1="437.28" x2="1228.33" y2="219.69"/>
      <polygon class="cls-12" points="1233.31 222.68 1241.62 214.36 1217.38 219.13 1233.31 222.68"/>
    </g>
    <g id="Perspektiventext-15" data-name="Perspektiventext">
      <g>
        <path class="cls-12" d="m904.29,395.78l-39.1-12.73,19.33-7.94,3.95,1.26-15.52,6.4,11.95,3.88,13.96-5.83,4,1.28-13.96,5.85,19.16,6.21-3.78,1.61Z"/>
        <path class="cls-12" d="m926.24,386.41l-29.36-9.36,3.25-1.35,6.16,1.96-.82-.17c-1.35-.91-1.89-1.81-1.6-2.68.29-.87,1.11-1.59,2.46-2.15.39-.16.82-.31,1.29-.44.46-.13.96-.22,1.5-.29l3.8,1.52c-1.05.21-1.94.47-2.68.78-.46.19-.92.47-1.36.83-.45.36-.64.8-.59,1.31s.57,1.09,1.55,1.74c.98.65,2.68,1.36,5.09,2.12l14.76,4.69-3.45,1.47Z"/>
        <path class="cls-12" d="m951.23,376.23c-2.06.88-4.47,1.44-7.24,1.69s-5.72.19-8.85-.19c-3.12-.37-6.25-1.05-9.36-2.03s-5.42-2-6.88-3.07c-1.46-1.06-2.05-2.09-1.79-3.1s1.4-1.92,3.41-2.76c1.15-.48,2.55-.88,4.19-1.21,1.64-.33,3.54-.5,5.7-.52,2.16-.02,4.57.17,7.26.58s5.64,1.11,8.87,2.11l-17.52,7.38-3.69-1.16,14.63-6.14.75.93c-2.63-.76-4.98-1.27-7.07-1.52-2.09-.25-3.91-.3-5.48-.15-1.56.15-2.88.45-3.95.89-1.27.53-1.93,1.13-1.97,1.79s.54,1.37,1.75,2.11c1.21.74,3.05,1.5,5.53,2.28,3.66,1.15,7.04,1.8,10.15,1.95s5.68-.2,7.71-1.06c1.45-.62,2.17-1.29,2.16-2.02-.01-.73-.73-1.49-2.15-2.27l4.8-.92c1.19.75,1.96,1.49,2.31,2.23.35.74.26,1.47-.28,2.17-.54.71-1.54,1.38-3.01,2Z"/>
        <path class="cls-12" d="m990.67,366.71l-16.82-5.09h.73c1.57.9,2.22,1.78,1.95,2.66s-1.16,1.64-2.65,2.28c-1.7.73-3.84,1.18-6.41,1.35s-5.38.07-8.42-.33c-3.04-.39-6.12-1.07-9.24-2.03s-5.43-1.94-6.95-2.94c-1.52-1-2.23-1.96-2.14-2.88.09-.92.99-1.73,2.71-2.44,1.38-.57,3.22-1,5.52-1.27,2.29-.27,4.9-.22,7.84.18l.04.14-5.77-1.74,3.06-1.27,39.8,12-3.24,1.4Zm-19.76-1.68c1.1-.47,1.71-1.02,1.82-1.65.11-.63-.41-1.31-1.56-2.05s-3.03-1.51-5.66-2.3c-3.91-1.18-7.38-1.81-10.42-1.89s-5.38.23-7.03.91c-1.75.73-2.2,1.63-1.35,2.7.85,1.08,3.13,2.18,6.83,3.31s6.96,1.73,10.05,1.89c3.09.15,5.53-.15,7.33-.92Z"/>
        <path class="cls-12" d="m996.79,356.78c-1.43.61-3.14,1-5.12,1.18-1.98.17-4.12.12-6.41-.15s-4.63-.76-7.01-1.48l-18.23-5.46,3.23-1.34,17.87,5.34c2.38.71,4.63,1.15,6.76,1.33,2.13.18,4.02-.09,5.66-.79,1.23-.52,1.84-1.11,1.83-1.76,0-.65-.67-1.34-1.97-2.09-1.3-.74-3.3-1.51-5.99-2.31l-13.73-4.06,3.18-1.32,29.01,8.55-2.97,1.27-6.89-2.04,1.32.3c1.28.76,1.93,1.57,1.97,2.43.03.86-.8,1.66-2.51,2.39Z"/>
        <path class="cls-12" d="m1020.65,346.6c-1.9.81-4.17,1.33-6.81,1.56s-5.48.17-8.52-.17c-3.03-.35-6.09-.97-9.18-1.87s-5.38-1.85-6.88-2.83c-1.49-.98-2.16-1.93-2-2.86s1.17-1.78,3.03-2.55c1.06-.44,2.37-.81,3.93-1.11,1.55-.3,3.36-.46,5.43-.48,2.07-.02,4.41.16,7.03.54s5.52,1.03,8.71,1.95l-16.19,6.81-3.65-1.07,13.52-5.67.8.86c-2.59-.71-4.9-1.17-6.93-1.41-2.03-.23-3.79-.28-5.28-.14-1.49.14-2.73.41-3.72.83-1.18.49-1.75,1.04-1.73,1.65s.64,1.26,1.87,1.95c1.23.69,3.07,1.39,5.52,2.1,3.62,1.06,6.93,1.66,9.93,1.8s5.44-.18,7.32-.98c1.34-.57,1.97-1.19,1.9-1.87-.08-.67-.83-1.37-2.27-2.09l4.53-.85c1.21.69,2.02,1.37,2.42,2.06.4.68.38,1.35-.08,2.01-.46.65-1.36,1.27-2.71,1.85Z"/>
        <path class="cls-12" d="m1033.48,340.65l-28.86-8.28,2.88-1.2,6.46,1.85-1.29-.28c-1.12-.69-1.69-1.43-1.72-2.23s.76-1.53,2.37-2.19c1.38-.57,3.02-.94,4.92-1.1,1.89-.16,3.94-.12,6.14.13s4.48.7,6.84,1.37l18.19,5.14-3,1.28-17.86-5.06c-2.36-.67-4.58-1.07-6.68-1.21-2.1-.14-3.9.11-5.41.73-1.63.68-2.08,1.5-1.35,2.47.73.97,2.82,1.95,6.26,2.94l15.17,4.34-3.05,1.3Z"/>
        <path class="cls-12" d="m1063.09,328.48c-1.78.76-3.94,1.25-6.49,1.46s-5.3.15-8.27-.18-5.99-.93-9.06-1.8-5.36-1.76-6.88-2.68-2.22-1.83-2.12-2.71,1.05-1.7,2.84-2.44c1.37-.57,2.96-.97,4.77-1.21s3.79-.32,5.93-.24c2.14.08,4.36.32,6.68.72l-1.8,1.58c-2.55-.48-4.84-.71-6.87-.68-2.04.02-3.71.31-5.03.86-1.76.73-2.14,1.57-1.15,2.51,1,.94,3.29,1.92,6.88,2.93s6.89,1.6,9.8,1.75c2.91.15,5.24-.15,6.99-.89,1.3-.55,1.78-1.17,1.46-1.85s-1.43-1.4-3.29-2.15l4.25-.9c1.18.52,2.09,1.04,2.75,1.57s1.05,1.04,1.18,1.55c.13.51,0,1-.43,1.48-.43.48-1.14.93-2.15,1.36Z"/>
        <path class="cls-12" d="m1085.65,325.76l-3.78-1.04,2.83-1.21c.21-.09.26-.19.17-.29-.09-.11-.31-.24-.66-.41l-4.64-2.21,1.77.69-37.64-5.12,3.28-1.36,32.27,4.73-.88.2-20.17-9.59,3.19-1.32,26.96,13.47c.75.37,1.13.76,1.15,1.17.02.41-.28.75-.9,1.01l-2.96,1.28Z"/>
        <path class="cls-12" d="m1108.99,308.88c-1.45.62-3.35,1-5.69,1.15s-4.95.06-7.82-.28c-2.87-.34-5.83-.91-8.87-1.73s-5.34-1.65-6.92-2.51c-1.57-.86-2.39-1.67-2.47-2.46-.07-.78.62-1.48,2.09-2.08,1.18-.49,2.81-.85,4.88-1.09,2.07-.23,4.49-.18,7.27.15l-.11.19-16.5-4.37,2.79-1.14,39.23,10.36-2.6,1.11-5.96-1.58.51.08c1.6.76,2.35,1.51,2.24,2.26s-.8,1.4-2.07,1.94Zm-2.99-1.3c.94-.4,1.41-.87,1.4-1.4,0-.53-.6-1.12-1.78-1.75s-3.06-1.29-5.62-1.96c-3.81-1.01-7.12-1.55-9.94-1.61s-4.93.19-6.34.78c-1.49.62-1.76,1.39-.79,2.3.97.92,3.26,1.86,6.87,2.82s6.72,1.48,9.59,1.61c2.88.13,5.08-.13,6.61-.78Z"/>
        <path class="cls-12" d="m1129.99,299.92c-1.64.7-3.72,1.15-6.24,1.36-2.52.21-5.26.17-8.2-.12-2.94-.29-5.88-.81-8.8-1.58s-5.13-1.59-6.62-2.47c-1.49-.88-2.23-1.74-2.2-2.59.03-.85.87-1.61,2.52-2.3s3.72-1.12,6.2-1.32c2.49-.2,5.18-.16,8.07.12,2.9.28,5.8.79,8.71,1.54s5.13,1.56,6.66,2.43c1.53.87,2.31,1.74,2.32,2.59.01.86-.8,1.64-2.43,2.34Zm-3.7-.97c1.65-.7,1.95-1.52.9-2.44s-3.29-1.83-6.71-2.71-6.6-1.39-9.53-1.5-5.21.18-6.87.87-1.99,1.5-.99,2.41,3.23,1.83,6.67,2.73,6.63,1.41,9.6,1.53,5.28-.18,6.93-.88Z"/>
        <path class="cls-12" d="m1141.63,294.51l-28.2-7.26,2.53-1.05,4.78,1.23c-1.05-.54-1.64-1.14-1.78-1.81-.14-.66.43-1.26,1.71-1.79,1.13-.47,2.62-.75,4.46-.84s3.89.01,6.14.31c-1.17-.66-1.83-1.31-1.97-1.97s.4-1.24,1.64-1.75c1.62-.67,3.86-.96,6.73-.86,2.87.1,6.02.57,9.45,1.44l17.72,4.46-2.6,1.11-17.4-4.39c-1.59-.4-3.05-.7-4.4-.91-1.34-.21-2.55-.29-3.62-.26s-2,.21-2.78.54c-.86.36-1.23.78-1.12,1.27.11.49.74,1.01,1.88,1.57s2.82,1.11,5.04,1.68l14.78,3.76-2.64,1.13-17.44-4.45c-1.59-.41-3.06-.71-4.41-.92-1.35-.21-2.56-.3-3.63-.27-1.07.03-2,.21-2.79.53-.87.36-1.26.79-1.16,1.28s.71,1.03,1.84,1.59c1.14.56,2.83,1.13,5.07,1.71l14.82,3.81-2.67,1.14Z"/>
        <path class="cls-12" d="m1174.55,280.89c-1.1.47-2.42.79-3.96.95-1.54.17-3.16.19-4.85.06-1.7-.13-3.34-.39-4.92-.78-1.68-.42-2.94-.93-3.78-1.54s-1.06-1.27-.69-2c.37-.73,1.51-1.49,3.42-2.29l2.75-1.15.19.23-1.52-.38c-2.23-.55-4.21-.87-5.93-.94-1.72-.07-3.2.15-4.45.67-1.18.49-1.58.99-1.19,1.51.38.52,1.41,1,3.09,1.45l-4.03.94c-1.4-.41-2.42-.9-3.05-1.45-.63-.55-.82-1.13-.56-1.72.26-.59,1.04-1.16,2.34-1.7s2.85-.9,4.54-1.04,3.52-.1,5.51.13,4.11.62,6.35,1.18l12.77,3.16c.57.14,1,.22,1.29.22.29,0,.59-.06.9-.19l.92-.39,3.65.9-1.62.69c-.69.29-1.63.45-2.84.46-1.21.02-2.37-.12-3.5-.4l-1.98-.49.38-.16c.57.25,1.08.53,1.53.85s.77.66.96,1.02c.19.36.16.73-.09,1.1-.24.38-.79.74-1.63,1.1Zm-3.08-1.16c.85-.36,1.27-.78,1.28-1.27,0-.48-.52-1.01-1.6-1.57s-2.82-1.14-5.24-1.74l-.23-.06-2.58,1.09c-1.36.57-2.12,1.1-2.3,1.58s.01.9.58,1.26c.56.36,1.29.65,2.17.87s1.8.37,2.75.45c.95.08,1.87.07,2.77-.02.9-.09,1.7-.29,2.4-.59Z"/>
        <path class="cls-12" d="m1155.64,266.7c-.59.24-1.43.36-2.54.36-1.11,0-2.16-.12-3.14-.36s-1.63-.54-1.9-.88c-.27-.34-.11-.63.48-.87s1.44-.37,2.53-.37,2.14.12,3.13.37,1.61.53,1.9.87.13.63-.46.88Zm31.22,8.52l-27.88-6.86,2.54-1.05,27.86,6.83-2.52,1.08Z"/>
        <path class="cls-12" d="m1194.27,272.05l-27.82-6.79,2.37-.98,6.23,1.52-1.23-.23c-1.16-.56-1.83-1.17-2.02-1.83s.38-1.25,1.7-1.8c1.14-.47,2.55-.77,4.23-.9,1.68-.13,3.55-.1,5.6.11s4.21.58,6.47,1.12l17.52,4.22-2.46,1.05-17.2-4.15c-2.27-.55-4.37-.88-6.3-.99-1.93-.11-3.52.09-4.75.6-1.34.56-1.58,1.23-.72,2.03.86.8,2.95,1.6,6.27,2.41l14.62,3.56-2.5,1.07Z"/>
      </g>
    </g>
  </g>
  <g id="Ebene_13" data-name="Ebene 13">
    <line class="cls-9" x1="725.31" y1="175.36" x2="725.31" y2="373.82"/>
    <line class="cls-9" x1="819.75" y1="275.21" x2="819.75" y2="338.19"/>
    <line class="cls-9" x1="905.68" y1="269.68" x2="905.68" y2="305.77"/>
    <line class="cls-9" x1="984.2" y1="251.48" x2="984.2" y2="276.15"/>
    <line class="cls-9" x1="1056.23" y1="230.57" x2="1056.23" y2="248.97"/>
    <line class="cls-9" x1="1122.54" y1="209.49" x2="1122.54" y2="223.95"/>
    <line class="cls-9" x1="1183.79" y1="189.09" x2="1183.79" y2="200.84"/>
    <line class="cls-9" x1="1240.53" y1="169.63" x2="1240.53" y2="179.43"/>
    <line class="cls-9" x1="1293.26" y1="151.2" x2="1293.26" y2="159.54"/>
    <g id="Perspektiventext-16" data-name="Perspektiventext">
      <g>
        <path class="cls-12" d="m579.5,368.9l-10.91-2.57v-1.89l10.91-10.11v2.01l-9.48,8.55,9.48,2.01v2.01Zm-3.56-2.02l-1.12.39v-8.07l1.12-.39v8.06Z"/>
        <path class="cls-12" d="m579.5,352.41l-8.17,2.79v-1.66l1.4-.48c-.42-.12-.8-.44-1.11-.94-.32-.51-.47-1.19-.47-2.03,0-.75.15-1.45.44-2.11.3-.66.72-1.21,1.26-1.67-.5-.19-.91-.54-1.23-1.05-.32-.51-.47-1.18-.47-2.01,0-1.08.29-2.04.85-2.86.57-.82,1.36-1.4,2.36-1.74l5.14-1.72v1.76l-5.04,1.69c-.46.16-.86.36-1.2.6-.34.24-.6.55-.78.92s-.27.81-.27,1.33c0,.57.12,1.05.35,1.43.24.38.58.62,1.03.73s1,.06,1.64-.16l4.27-1.44v1.76l-5.04,1.71c-.46.16-.86.36-1.2.61-.34.25-.6.55-.78.91-.18.36-.27.8-.27,1.32,0,.57.12,1.05.35,1.43s.57.63,1.02.74,1,.06,1.65-.16l4.27-1.46v1.76Z"/>
        <path class="cls-12" d="m582.44,332.75l-11.11,3.7v-1.66l1.71-.57-.12.09c-.6-.11-1.04-.47-1.33-1.09s-.44-1.33-.44-2.13c0-.92.17-1.79.52-2.61s.85-1.52,1.49-2.13,1.4-1.05,2.27-1.33,1.63-.34,2.26-.15c.64.19,1.13.57,1.47,1.15.34.58.52,1.33.52,2.24,0,.74-.13,1.52-.4,2.33s-.72,1.51-1.35,2.09l-.06-.14,4.57-1.52v1.71Zm-3.81-3.65c0-.93-.28-1.61-.83-2.03s-1.35-.45-2.39-.11-1.79.88-2.35,1.65c-.56.76-.84,1.63-.84,2.59,0,.59.11,1.09.33,1.51.22.42.57.7,1.04.83s1.08.08,1.82-.16c1.09-.36,1.91-.95,2.43-1.75s.79-1.65.79-2.53Z"/>
        <path class="cls-12" d="m579.5,319.41c0,.45-.11.87-.32,1.28s-.48.66-.81.77l-10.24,3.35v-1.77l9.9-3.23c.17-.05.28-.12.33-.21.06-.08.08-.23.08-.45v-1.1l1.06-.34v1.7Z"/>
        <path class="cls-12" d="m569.95,317.59c0,.41-.1.79-.31,1.14-.21.36-.46.58-.75.68s-.55.04-.76-.19c-.21-.22-.31-.53-.31-.94s.1-.8.31-1.15.46-.57.76-.67.55-.03.75.18c.21.22.31.53.31.94Zm9.55-2.22l-8.17,2.65v-1.76l8.17-2.65v1.76Z"/>
        <path class="cls-12" d="m579.5,307.7c0,.45-.11.87-.32,1.27s-.48.66-.81.76l-5.98,1.92v1.83l-1.06.34v-1.83l-1.72.55-.27-1.68,1.99-.64v-2.25l1.06-.34v2.25l5.64-1.81c.17-.05.28-.12.33-.21.06-.08.08-.23.08-.45v-1.73l1.06-.34v2.33Z"/>
        <path class="cls-12" d="m579.68,299.2c0,.79-.13,1.51-.38,2.17-.26.66-.62,1.22-1.1,1.69-.48.47-1.05.81-1.71,1.02l-5.15,1.64v-1.76l5.06-1.61c.67-.21,1.21-.56,1.62-1.04.41-.48.62-1.17.62-2.08,0-.68-.13-1.22-.38-1.64s-.63-.68-1.13-.8-1.13-.06-1.89.18l-3.9,1.23v-1.76l8.17-2.57v1.65l-1.92.6.33-.18c.5.13.92.47,1.26,1.02.34.54.51,1.29.51,2.23Z"/>
        <path class="cls-12" d="m579.68,286.57c0,.91-.17,1.77-.52,2.58-.35.81-.84,1.51-1.48,2.1s-1.4,1.02-2.27,1.3-1.63.31-2.27.12c-.64-.2-1.13-.59-1.48-1.18-.35-.59-.52-1.35-.52-2.26,0-.74.13-1.52.4-2.33s.72-1.5,1.36-2.07l.06.18-4.84,1.5v-1.77l11.37-3.51v1.65l-1.7.53.12-.09c.59.12,1.04.5,1.32,1.12.29.62.43,1.33.43,2.13Zm-1.06-.13c0-.59-.11-1.1-.33-1.52s-.57-.7-1.04-.85c-.47-.15-1.07-.11-1.81.12-1.1.34-1.91.91-2.44,1.7-.53.79-.79,1.63-.79,2.52,0,.94.28,1.62.84,2.05.56.43,1.36.48,2.4.15s1.79-.85,2.35-1.6.83-1.61.83-2.57Z"/>
        <path class="cls-12" d="m579.68,273.24c0,1.07-.17,2.06-.52,2.95-.35.89-.84,1.65-1.48,2.27s-1.39,1.07-2.26,1.33-1.63.29-2.27.06-1.14-.68-1.49-1.35-.52-1.53-.52-2.58c0-.6.07-1.23.21-1.87.14-.65.38-1.27.72-1.88.34-.6.81-1.15,1.4-1.63.59-.48,1.34-.86,2.25-1.14v9.17l-1.03.32v-7.64l.48.36c-.72.25-1.29.59-1.73,1.01s-.75.89-.94,1.4c-.19.52-.29,1.06-.29,1.62,0,.66.13,1.2.38,1.61.25.41.62.66,1.1.78s1.07.06,1.76-.15c1.02-.31,1.8-.84,2.36-1.59.55-.75.83-1.65.83-2.71,0-.76-.14-1.36-.42-1.79-.28-.43-.68-.7-1.2-.78l.42-1.85c.47.13.88.37,1.21.72.33.35.59.81.77,1.38.18.57.27,1.24.27,2Z"/>
      </g>
    </g>
  </g>
</svg>