<?xml version="1.0" encoding="UTF-8"?>
<svg id="Ebene_4" data-name="Ebene 4" xmlns="http://www.w3.org/2000/svg" viewBox="0 0 1728 579.6">
  <defs>
    <style>
      .cls-1 {
        letter-spacing: 0em;
      }

      .cls-2 {
        stroke: #c9d1d9;
        stroke-miterlimit: 10;
      }

      .cls-2, .cls-3 {
        stroke-width: 3px;
      }

      .cls-2, .cls-3, .cls-4, .cls-5 {
        fill: none;
      }

      .cls-3 {
        stroke: #d85648;
      }

      .cls-3, .cls-4, .cls-5 {
        stroke-linecap: round;
        stroke-linejoin: round;
      }

      .cls-6, .cls-7, .cls-8 {
        fill: #c9d1d9;
      }

      .cls-4 {
        stroke-width: 2px;
      }

      .cls-4, .cls-5 {
        stroke: #307eef;
      }

      .cls-7 {
        font-size: 30px;
      }

      .cls-7, .cls-8 {
        font-family: Roboto-Regular, Roboto;
      }

      .cls-8 {
        font-size: 36px;
      }

      .cls-9 {
        letter-spacing: -.01em;
      }

      .cls-5 {
        stroke-width: 8px;
      }
    </style>
  </defs>
  <g>
    <line class="cls-2" x1="72.14" y1="291.6" x2="909.57" y2="291.6"/>
    <polygon class="cls-6" points="903.62 300.32 936.14 291.61 903.62 282.88 903.62 300.32"/>
  </g>
  <g>
    <line class="cls-2" x1="72.14" y1="30.18" x2="72.14" y2="553.02"/>
    <polygon class="cls-6" points="63.43 36.12 72.14 3.6 80.86 36.12 63.43 36.12"/>
    <polygon class="cls-6" points="63.43 547.08 72.14 579.6 80.86 547.08 63.43 547.08"/>
  </g>
  <line class="cls-2" x1="72.14" y1="291.6" x2="87.77" y2="291.6"/>
  <line class="cls-2" x1="72.14" y1="183.6" x2="90.14" y2="183.6"/>
  <line class="cls-2" x1="72.14" y1="399.6" x2="90.14" y2="399.6"/>
  <text class="cls-7" transform="translate(8.06 84.37)"><tspan x="0" y="0">1.0</tspan></text>
  <text class="cls-7" transform="translate(8.06 192.37)"><tspan x="0" y="0">0.5</tspan></text>
  <text class="cls-7" transform="translate(8.06 300.37)"><tspan x="0" y="0">0.0</tspan></text>
  <text class="cls-7" transform="translate(0 408.37)"><tspan x="0" y="0">-0.5</tspan></text>
  <text class="cls-7" transform="translate(0 516.37)"><tspan x="0" y="0">-1.0</tspan></text>
  <path class="cls-3" d="m73.08,423.81h0l1.13.23.94-.64,1.13-1.82,1.32-3.5,1.89-6.85,3.59-13.52,1.51-3.81,1.32-1.91,1.13-.63,1.32.21,2.64,1.64,1.51.38,1.13-.49,1.13-1.32,1.32-2.63,1.7-4.84,5.48-17.08,1.51-2.52,1.32-1.08,1.32-.23,2.46.59h1.7s1.32-.85,1.32-.85l1.32-1.79,1.51-3.23,2.08-6,3.97-11.75,1.7-3.27,1.51-1.62,1.51-.59,2.46.1,1.7-.26,1.32-.92,1.32-1.78,1.7-3.57,2.27-6.41,3.59-10.19,1.89-3.54,1.51-1.57,1.51-.62,4.91-1.03,1.32-1.51,1.51-2.77,2.08-5.36,4.91-13.59,1.7-2.83,1.51-1.35,1.7-.49,3.78-.53,1.32-1.12,1.51-2.31,1.89-4.41,3.21-9.55,2.27-5.99,1.7-3.05,1.51-1.48,1.51-.51,4.91-.7,1.32-1.53,1.51-2.88,1.89-5.09,5.1-14.86,1.7-2.79,1.32-1.05,1.32-.24,2.46.58h1.7s1.32-.87,1.32-.87l1.32-1.87,1.51-3.43,2.08-6.47,3.78-12.23,1.51-3.22,1.32-1.57,1.13-.44,1.32.32,4.16,1.9,1.13-.68,1.13-1.61,1.32-3.12,1.7-5.69,4.91-17.93,1.32-2.6,1.13-.99.94.03,1.13.88,1.89,2.64,1.89,2.33,1.13.38.94-.59.94-1.55,1.13-3.16,1.32-5.31,2.08-10.57,2.46-12,1.32-4.34,1.13-1.87.76-.2.76.63.94,1.84,1.32,4.1,3.21,10.96.94,1.48.76.07.57-.71.76-2.04.94-4.35,1.13-7.76,1.51-13.76,3.4-32.75.94-5.56.76-2.19.3-.21.45.48.57,2.02.76,5.35.76,8.57.94,15.38,1.13,25.21,1.32,37.95,1.89,66.47,5.1,187.96,1.51,39.59,1.13,21.41.94,12.14.76,6.05.76,2.98.57.39.57-1.04.76-3.32.94-6.66,1.51-14.29,3.02-29.3,1.32-8.73.94-3.9.94-1.91.76-.18.76.87,1.13,2.84,1.89,6.83,1.89,6.15,1.13,2.04.74.4.77-.44.94-1.72,1.13-3.62,1.51-6.84,4.34-21.12,1.32-3.79,1.13-1.71.9-.39.99.41,1.32,1.51,3.21,4.13,1.13.26.94-.6,1.13-1.78,1.32-3.45,1.89-6.81,3.78-14.12,1.51-3.64,1.32-1.77,1.13-.52,1.32.3,4.34,1.89,1.13-.72,1.13-1.58,1.51-3.41,2.08-6.51,3.78-12.19,1.7-3.55,1.32-1.55,1.32-.59,1.7.19,2.83.43,1.32-.69,1.32-1.62,1.51-3.05,2.08-5.85,4.34-12.81,1.7-3.14,1.51-1.51,1.51-.51,4.91-.69,1.32-1.49,1.51-2.8,2.08-5.45,4.91-13.73,1.7-2.82,1.51-1.33,1.7-.48,3.78-.54,1.32-1.14,1.51-2.32,1.89-4.38,3.59-10.52,2.27-5.6,1.7-2.71,1.51-1.25,1.7-.42,3.59-.5,1.32-1.1,1.51-2.28,1.89-4.37,3.02-8.97,2.46-6.58,1.7-3.08,1.51-1.51,1.51-.53,4.91-.67,1.32-1.5,1.51-2.85,1.89-5.06,5.29-15.29,1.7-2.64,1.32-.95,1.51-.14,4.16.41,1.13-.88,1.32-1.99,1.7-4.09,2.27-7.36,3.21-10.31,1.51-3.26,1.32-1.61,1.13-.47,1.32.3,4.34,1.88,1.13-.79,1.13-1.74,1.51-3.83,1.89-6.72,3.97-14.78,1.32-3.07,1.13-1.42.85-.31,1.04.41,1.32,1.47,3.4,4.29.94.12.94-.74.94-1.7,1.13-3.34,1.51-6.38,5.29-24.73,1.13-2.24.79-.46.72.38.94,1.57,1.32,3.84,3.78,12.45,1.04.97.66-.44.76-1.65.94-3.86,1.13-7.22,1.32-11.43,4.34-40.31.76-3.38.57-1.09.38.06.57,1.37.57,3.02.76,6.76.94,13.07,1.13,22.52,1.32,35.17,1.7,56.81,6.61,235.67,1.32,28.85,1.13,16.71.94,8.28.76,3.15.57.5.38-.48.57-1.81.76-4.19,1.13-9.16,2.27-22.95,1.89-17.19,1.13-7.37.94-3.99.94-1.99.76-.24.76.82,1.13,2.78,1.89,6.81,1.89,6.21,1.13,2.1.78.44.73-.39.94-1.66,1.13-3.57,1.51-6.79,4.34-21.18,1.32-3.85,1.13-1.77.95-.43.94.37,1.32,1.48,3.4,4.28.94.18.94-.57,1.13-1.74,1.32-3.41,1.7-6.03,4.16-15.46,1.51-3.48,1.32-1.62,1.17-.41,1.29.38,3.97,1.87,1.13-.56,1.13-1.4,1.51-3.2,1.89-5.7,4.53-14.45,1.51-2.94,1.32-1.44,1.32-.5,1.7.24,2.64.39,1.32-.66,1.32-1.59,1.51-3.01,2.08-5.82,4.34-12.85,1.7-3.17,1.51-1.54,1.51-.53,4.91-.66,1.32-1.47,1.51-2.77,2.08-5.42,4.91-13.77,1.7-2.86,1.51-1.36,1.51-.48,4.34-.78,1.32-1.34,1.51-2.57,1.89-4.63,6.05-16.18,1.7-2.27,1.51-.92,1.89-.22,2.46-.29,1.32-.86,1.32-1.66,1.7-3.4,2.27-6.27,3.97-11.22,1.7-3.12,1.51-1.54,1.51-.55,5.1-.8,1.32-1.6,1.51-2.97,2.08-5.74,4.53-13.36,1.7-3.04,1.32-1.25,1.4-.38,1.81.36,2.27.29,1.32-.67,1.32-1.65,1.51-3.19,1.89-5.63,4.72-14.97,1.51-2.74,1.32-1.14,1.13-.13,1.51.68,2.83,1.54,1.13-.21,1.13-1.06,1.13-2.03,1.51-4.19,2.08-7.74,3.21-12.01,1.51-3.68,1.13-1.46.89-.34.99.38,1.32,1.44,3.4,4.32.94.16.94-.7.94-1.66,1.13-3.29,1.51-6.32,3.02-15.66,1.7-7.36,1.13-3.17.94-1.29.76-.08.76.74.94,1.96,1.32,4.21,3.02,10.38.94,1.6.76.19.57-.61.76-1.89.94-4.18,1.13-7.57,1.51-13.59,3.59-34.34.94-5.25.76-1.87.38-.02.57,1.25.57,2.89.76,6.59.94,12.84,1.13,22.25,1.32,34.89,1.7,56.54,3.4,130.93,2.27,78.64,1.51,40.24,1.13,21.96.94,12.59.76,6.4.76,3.31.51.62.43-.42.57-1.72.76-4.08,1.13-9.05,2.27-22.91,1.89-17.29,1.13-7.46.94-4.08.94-2.08.76-.3.76.76.94,2.16,1.51,5.19,2.46,8.41,1.13,2.16.83.49.69-.35.76-1.18,1.13-3.24,1.32-5.58,5.48-25.55,1.13-2.53,1.13-1.12.94.04,1.13.95,2.27,3.24.57.75"/>
  <path class="cls-4" d="m73.08,362.16h0l4.53,3.51,4.34,2.52,4.16,1.61,4.16.81,3.97.02,3.97-.72,4.16-1.53,4.16-2.32,4.34-3.23,4.72-4.42,4.91-5.53,5.48-7.19,6.05-9.04,7.18-11.98,9.07-16.52,30.04-55.85,6.99-11.05,6.05-8.39,5.48-6.52,4.91-4.86,4.72-3.73,4.34-2.57,4.16-1.66,4.16-.87,3.97-.07,3.97.66,4.16,1.47,4.16,2.26,4.34,3.18,4.72,4.36,4.91,5.47,5.48,7.13,6.05,8.99,6.99,11.6,8.88,16.1,31.55,58.5,6.99,10.89,6.05,8.23,5.29,6.15,4.91,4.73,4.53,3.48,4.34,2.49,4.16,1.58,4.16.78h3.97s3.97-.75,3.97-.75l4.16-1.56,4.16-2.34,4.34-3.26,4.72-4.44,5.1-5.78,5.48-7.25,6.23-9.4,7.18-12.07,9.26-16.95,28.34-52.84,7.18-11.51,6.23-8.8,5.48-6.64,5.1-5.15,4.72-3.82,4.34-2.66,4.16-1.74,4.16-.95,3.97-.15,3.97.58,4.16,1.39,4.16,2.18,4.34,3.1,4.53,4.09,4.91,5.35,5.29,6.76,6.05,8.84,6.99,11.47,8.69,15.64,15.87,30.29,11.52,21.27,7.93,13.29,6.61,9.81,5.67,7.29,5.1,5.55,4.72,4.21,4.53,3.15,4.34,2.16,4.16,1.26,3.97.45,3.97-.28,4.16-1.08,4.16-1.88,4.34-2.79,4.53-3.78,4.72-4.83,5.29-6.42,5.67-7.94,6.61-10.45,7.93-13.86,11.15-20.97,18.51-34.85,8.12-13.78,6.61-9.98,5.86-7.69,5.29-5.88,4.91-4.46,4.53-3.21,4.34-2.22,4.16-1.32,4.16-.52,3.97.26,4.16,1.06,4.16,1.85,4.34,2.77,4.53,3.76,4.72,4.81,5.1,6.15,5.67,7.88,6.42,10.08,7.75,13.45,10.77,20.17,20.02,37.68,7.93,13.4,6.61,9.93,5.86,7.64,5.29,5.83,2.08,1.99"/>
  <path class="cls-4" d="m73.08,287.28h0l5.86-10.39,3.78-5.4,3.02-3.24,2.64-1.91,2.46-.94,2.27-.12,2.27.6,2.46,1.44,2.64,2.42,3.02,3.75,3.59,5.58,5.1,9.29,9.45,17.38,3.78,5.53,3.02,3.37,2.64,2.04,2.46,1.06,2.27.23,2.27-.49,2.46-1.32,2.64-2.3,3.02-3.64,3.59-5.47,4.91-8.86,10.39-19.06,3.78-5.39,3.02-3.23,2.64-1.9,2.46-.92,2.27-.11,2.27.61,2.46,1.46,2.64,2.43,3.02,3.77,3.59,5.59,5.1,9.3,9.45,17.37,3.78,5.51,3.02,3.35,2.64,2.02,2.46,1.04,2.27.22,2.27-.5,2.46-1.34,2.64-2.32,3.02-3.65,3.59-5.49,4.91-8.87,10.39-19.05,3.78-5.37,3.02-3.21,2.64-1.88,2.46-.91,2.27-.09,2.27.63,2.46,1.47,2.64,2.45,3.02,3.78,3.59,5.61,5.1,9.32,9.45,17.36,3.78,5.49,3.02,3.33,2.64,2,2.46,1.02,2.27.2,2.27-.52,2.46-1.36,2.64-2.33,3.02-3.67,3.59-5.5,4.91-8.88,10.2-18.73,3.78-5.42,3.02-3.26,2.64-1.93,2.46-.95,2.27-.13,2.27.58,2.46,1.43,2.64,2.4,3.02,3.74,3.59,5.57,5.1,9.29,9.63,17.7,3.78,5.48,3.02,3.32,2.64,1.99,2.46,1.01,2.27.19,2.27-.53,2.46-1.37,2.64-2.35,3.02-3.68,3.59-5.52,4.91-8.89,10.2-18.72,3.78-5.4,3.02-3.24,2.64-1.91,2.46-.94,2.27-.12,2.27.6,2.46,1.44,2.64,2.42,3.02,3.75,3.59,5.58,5.1,9.3,9.45,17.38,3.78,5.52,3.02,3.37,2.64,2.03,2.46,1.06,2.27.23,2.27-.49,2.46-1.33,2.64-2.3,3.02-3.64,3.59-5.47,4.91-8.86,10.39-19.06,3.78-5.38,3.02-3.22,2.64-1.9,2.46-.92,2.27-.1,2.27.62,2.46,1.46,2.64,2.44,3.02,3.77,3.59,5.59,5.1,9.31,9.45,17.37,3.78,5.51,3.02,3.35,2.64,2.02,2.46,1.04,2.27.22,2.27-.5,2.46-1.34,2.64-2.32,3.02-3.65,3.59-5.49,4.91-8.87,10.39-19.05,3.78-5.37,3.02-3.21,2.64-1.88,2.46-.9,2.27-.09,2.27.63,2.46,1.47,2.64,2.45,3.02,3.79,3.59,5.61,5.1,9.32,9.45,17.35,3.78,5.49,3.02,3.33,2.64,2,2.46,1.02,2.27.2,2.27-.52,2.46-1.36,2.64-2.34,3.02-3.67,3.59-5.5,4.91-8.88,10.2-18.73,3.78-5.42,3.02-3.26,2.64-1.93,2.46-.95,2.27-.13,2.27.59,2.46,1.43,2.64,2.41,3.02,3.74,3.59,5.57,5.1,9.29,9.63,17.7,3.78,5.47,3.02,3.31,2.64,1.98,2.46,1.01,2.27.18,2.27-.53,2.46-1.37,2.64-2.35,3.02-3.69,3.59-5.52,4.91-8.89,10.2-18.72,3.78-5.4,3.02-3.24,2.64-1.91,2.46-.93,2.27-.12,2.27.6,2.46,1.44,2.64,2.42,3.02,3.76,3.59,5.58,5.1,9.3,9.45,17.38,3.78,5.52,3.02,3.36,2.64,2.03,2.46,1.05,2.27.23,2.27-.49,2.46-1.33,2.64-2.31,3.02-3.64,3.59-5.48,4.91-8.86,3.4-6.52"/>
  <path class="cls-4" d="m73.08,280.55h0l2.83,4.47,5.48,10.3,3.97,6.71,2.64,3.23,2.08,1.56,1.89.58,1.89-.25,1.89-1.07,2.08-2.05,2.46-3.43,3.4-5.99,7.37-13.26,2.64-3.29,2.08-1.62,1.89-.64,1.89.19,1.89,1.01,2.08,1.99,2.46,3.37,3.4,5.94,7.56,13.6,2.64,3.26,2.08,1.6,1.89.62,1.89-.21,1.89-1.03,2.08-2.01,2.46-3.39,3.4-5.96,7.56-13.57,2.64-3.24,2.08-1.58,1.89-.6,1.89.23,1.89,1.05,2.08,2.04,2.46,3.41,3.4,5.98,7.37,13.28,2.64,3.3,2.08,1.64,1.89.66,1.89-.17,1.89-.99,2.08-1.98,2.46-3.36,3.4-5.93,7.56-13.61,2.64-3.28,2.08-1.61,1.89-.63,1.89.2,1.89,1.02,2.08,2,2.46,3.38,3.4,5.95,7.56,13.59,2.64,3.25,2.08,1.59,1.89.61,1.89-.22,1.89-1.04,2.08-2.02,2.46-3.4,3.4-5.97,7.37-13.29,2.64-3.32,2.08-1.65,1.89-.67,1.89.16,1.89.98,2.08,1.96,2.46,3.35,3.4,5.92,7.75,13.9,2.64,3.21,2.08,1.54,1.89.56,1.89-.27,1.89-1.08,2.08-2.07,2.46-3.44,3.59-6.36,6.99-12.61,2.64-3.36,2.08-1.69,1.89-.71,1.89.12,1.89.95,2.08,1.93,2.46,3.31,3.4,5.89,7.93,14.21,2.46,2.97,2.08,1.58,1.89.6,1.89-.23,1.89-1.05,2.08-2.03,2.46-3.41,3.4-5.97,7.37-13.28,2.64-3.31,2.08-1.64,1.89-.66,1.89.17,1.89.99,2.08,1.97,2.46,3.36,3.4,5.93,7.75,13.89,2.64,3.19,2.08,1.53,1.89.56,1.89-.28,1.89-1.09,2.08-2.07,2.46-3.45,3.59-6.36,6.99-12.6,2.64-3.35,2.08-1.68,1.89-.7,1.89.13,1.89.95,2.08,1.94,2.46,3.32,3.4,5.9,7.75,13.93,2.64,3.24,2.08,1.57,1.89.59,1.89-.24,1.89-1.06,2.08-2.04,2.46-3.42,3.4-5.98,7.37-13.27,2.64-3.3,2.08-1.63,1.89-.65,1.89.18,1.89,1,2.08,1.98,2.46,3.36,3.4,5.94,7.56,13.61,2.64,3.27,2.08,1.61,1.89.63,1.89-.2,1.89-1.02,2.08-2,2.46-3.39,3.4-5.95,7.56-13.58,2.64-3.25,2.08-1.59,1.89-.61,1.89.22,1.89,1.04,2.08,2.03,2.46,3.41,3.4,5.97,7.37,13.28,2.64,3.31,2.08,1.65,1.89.66,1.89-.16,1.89-.99,2.08-1.97,2.46-3.35,3.4-5.93,7.75-13.89,2.64-3.2,2.08-1.54,1.89-.56,1.89.27,1.89,1.09,2.08,2.07,2.46,3.45,3.59,6.36,6.99,12.6,2.64,3.35,2.08,1.68,1.89.7,1.89-.13,1.89-.95,2.08-1.93,2.46-3.32,3.4-5.9,7.75-13.93,2.64-3.24,2.08-1.58,1.89-.6,1.89.23,1.89,1.05,2.08,2.04,2.46,3.41,3.4,5.98,7.37,13.28,2.64,3.3,2.08,1.64,1.89.66,1.89-.17,1.89-.99,2.08-1.98,2.46-3.36,3.4-5.93,7.56-13.61,2.64-3.28,2.08-1.61,1.89-.63,1.89.2,1.89,1.02,2.08,2,2.46,3.38,3.4,5.95,7.56,13.59,2.64,3.25,2.08,1.59,1.89.61,1.89-.22,1.89-1.04,2.08-2.02,2.46-3.4,3.4-5.97,7.37-13.29,2.64-3.32,2.08-1.65,1.89-.67,1.89.16,1.89.98,2.08,1.97,2.46,3.35,3.4,5.92,7.75,13.9,2.64,3.2,2.08,1.54,1.89.56,1.89-.27,1.89-1.08,2.08-2.07,2.46-3.44,3.59-6.36,6.99-12.61,2.64-3.36,2.08-1.69,1.89-.71,1.89.12,1.89.95,2.08,1.93,2.46,3.31,3.4,5.89,7.93,14.21,2.46,2.97,2.08,1.58,1.89.6,1.89-.23,1.89-1.05,2.08-2.03,2.46-3.41,3.4-5.97,7.37-13.28,2.64-3.31,2.08-1.64,1.89-.66,1.89.17,1.89.99,2.08,1.97.19.22"/>
  <path class="cls-4" d="m73.08,302.79h0l1.51.03,1.51-.71,1.7-1.62,2.08-2.96,3.4-6.23,4.16-7.27,2.08-2.44,1.7-1.08,1.51-.19,1.51.55,1.7,1.46,2.08,2.82,3.02,5.41,4.72,8.42,2.08,2.51,1.7,1.15,1.51.25,1.51-.49,1.7-1.4,2.08-2.76,3.02-5.36,4.91-8.75,2.08-2.47,1.7-1.11,1.51-.22,1.51.52,1.7,1.43,2.08,2.79,3.02,5.38,4.91,8.72,2.08,2.44,1.7,1.08,1.51.19,1.51-.56,1.7-1.47,2.08-2.82,3.02-5.41,4.72-8.42,2.08-2.5,1.7-1.15,1.51-.25,1.51.5,1.7,1.4,2.08,2.76,3.02,5.36,4.91,8.75,2.08,2.47,1.7,1.11,1.51.22,1.51-.53,1.7-1.44,2.08-2.79,3.02-5.39,4.91-8.72,2.08-2.43,1.7-1.08,1.51-.18,1.51.56,1.7,1.47,2.08,2.82,3.02,5.41,4.72,8.42,2.08,2.5,1.7,1.14,1.51.25,1.51-.5,1.7-1.41,2.08-2.76,3.02-5.37,4.91-8.75,2.08-2.47,1.7-1.11,1.51-.21,1.51.53,1.7,1.44,2.08,2.79,3.02,5.39,4.91,8.72,2.08,2.43,1.7,1.08,1.51.18,1.51-.56,1.7-1.47,2.08-2.82,3.02-5.41,4.72-8.42,2.08-2.5,1.7-1.14,1.51-.24,1.51.5,1.7,1.41,2.08,2.76,3.02,5.37,4.91,8.75,2.08,2.46,1.7,1.11,1.51.21,1.51-.53,1.7-1.44,2.08-2.8,3.02-5.39,4.91-8.72,2.08-2.43,1.7-1.07,1.51-.18,1.51.56,1.7,1.47,2.08,2.83,3.02,5.41,4.72,8.41,2.08,2.5,1.7,1.14,1.51.24,1.51-.5,1.7-1.41,2.08-2.77,3.02-5.37,4.91-8.75,2.08-2.46,1.7-1.1,1.51-.21,1.51.53,1.7,1.44,2.08,2.8,3.02,5.39,4.91,8.71,2.08,2.43,1.7,1.07,1.51.18,1.51-.57,1.7-1.48,2.08-2.83,3.02-5.41,4.72-8.41,2.08-2.49,1.7-1.14,1.51-.24,1.51.5,1.7,1.41,2.08,2.77,3.02,5.37,4.91,8.74,2.08,2.46,1.7,1.1,1.51.21,1.51-.54,1.7-1.45,2.08-2.8,3.02-5.39,4.91-8.71,2.08-2.43,1.7-1.07,1.51-.18,1.51.57,1.7,1.48,2.08,2.83,3.02,5.41,4.72,8.41,2.08,2.49,1.7,1.13,1.51.24,1.51-.51,1.7-1.42,2.08-2.77,3.02-5.37,4.91-8.74,2.08-2.46,1.7-1.1,1.51-.2,1.51.54,1.7,1.45,2.08,2.8,3.02,5.39,4.91,8.71,2.08,2.42,1.7,1.07,1.51.17,1.51-.57,1.7-1.48,2.08-2.83,3.02-5.42,4.72-8.41,2.08-2.49,1.7-1.13,1.51-.23,1.51.51,1.7,1.42,2.08,2.77,3.02,5.37,4.91,8.74,2.08,2.45,1.7,1.1,1.51.2,1.51-.54,1.7-1.45,2.08-2.8,3.02-5.4,4.91-8.71,2.08-2.42,1.7-1.06,1.51-.17,1.51.57,1.7,1.48,2.08,2.84,3.02,5.42,4.72,8.41,2.08,2.49,1.7,1.13,1.51.23,1.51-.51,1.7-1.42,2.08-2.78,3.02-5.38,4.91-8.74,2.08-2.45,1.7-1.1,1.51-.2,1.51.54,1.7,1.45,2.08,2.81,3.02,5.4,4.91,8.71,2.08,2.42,1.7,1.06,1.51.17,1.51-.57,1.7-1.48,2.08-2.84,3.02-5.42,4.72-8.4,2.08-2.48,1.7-1.13,1.51-.23,1.51.51,1.7,1.42,2.08,2.78,3.02,5.38,4.91,8.73,2.08,2.45,1.7,1.09,1.51.2,1.51-.54,1.7-1.45,2.08-2.81,3.02-5.4,4.91-8.7,2.08-2.42,1.7-1.06,1.51-.17,1.51.58,1.7,1.49,2.08,2.84,3.02,5.42,4.72,8.4,2.08,2.48,1.7,1.12,1.51.23,1.51-.52,1.7-1.42,2.08-2.78,3.02-5.38,4.91-8.73,2.08-2.45,1.7-1.09,1.51-.2,1.51.55,1.7,1.46,2.08,2.81,3.02,5.4,4.91,8.7,2.08,2.41,1.7,1.06,1.51.16,1.51-.58,1.7-1.49,2.08-2.84,3.21-5.78,4.53-8.04,2.08-2.48,1.7-1.12,1.51-.23,1.51.52,1.7,1.43,2.08,2.78,3.02,5.38,4.91,8.73,2.08,2.45,1.7,1.09,1.51.19,1.51-.55,1.7-1.46,2.08-2.81,3.02-5.4,4.91-8.7,2.08-2.41,1.7-1.05,1.51-.16,1.51.58,1.7,1.49,2.08,2.84,3.21,5.79,4.53,8.03,2.08,2.48,1.7,1.12,1.51.22,1.51-.52,1.7-1.43,2.08-2.78,3.02-5.38,4.91-8.73,2.08-2.44,1.7-1.09,1.51-.19,1.51.55,1.7,1.46,2.08,2.82,3.02,5.4,4.72,8.43,2.08,2.51,1.7,1.15,1.51.25,1.51-.49,1.7-1.4,2.08-2.76,3.02-5.36,4.91-8.76,2.08-2.47,1.7-1.12,1.51-.22,1.51.52,1.7,1.43,2.08,2.79,3.02,5.38,4.91,8.73,2.08,2.44.94.71"/>
  <path class="cls-4" d="m73.08,287.45h0l2.27-3.19,1.51-1.17,1.32-.27,1.32.46,1.51,1.37,1.89,2.75,7.37,12.09,1.51.83,1.32-.05,1.32-.77,1.7-1.94,2.27-3.8,5.1-8.87,1.7-1.61,1.51-.47,1.33.37,1.51,1.27,1.89,2.66,3.4,6.31,2.83,4.66,1.7,1.72,1.51.59,1.32-.27,1.51-1.17,1.7-2.26,2.83-5.12,3.59-6.21,1.89-1.96,1.51-.58,1.32.27,1.51,1.17,1.7,2.26,2.83,5.12,3.59,6.2,1.7,1.82,1.51.69,1.32-.17,1.51-1.07,1.7-2.17,2.64-4.69,3.97-6.93,1.7-1.81,1.51-.69,1.32.18,1.51,1.07,1.7,2.17,2.64,4.69,3.97,6.92,1.7,1.81,1.51.68,1.32-.18,1.51-1.08,1.7-2.18,2.64-4.69,3.97-6.92,1.7-1.8,1.51-.68,1.32.19,1.51,1.08,1.7,2.18,2.64,4.7,3.97,6.91,1.7,1.8,1.51.67,1.32-.19,1.51-1.09,1.7-2.19,2.64-4.7,3.97-6.91,1.7-1.8,1.51-.67,1.32.2,1.51,1.09,1.7,2.19,2.64,4.7,3.97,6.9,1.7,1.79,1.51.66,1.32-.2,1.51-1.1,1.7-2.19,2.64-4.71,3.78-6.64,1.89-2.04,1.51-.66,1.32.2,1.51,1.1,1.7,2.2,2.64,4.71,3.78,6.64,1.89,2.04,1.51.65,1.32-.21,1.51-1.11,1.7-2.2,2.64-4.71,3.78-6.63,1.89-2.03,1.51-.65,1.32.21,1.51,1.11,1.7,2.21,2.64,4.72,3.78,6.63,1.89,2.03,1.51.64,1.32-.22,1.51-1.12,1.7-2.21,2.64-4.72,3.78-6.62,1.89-2.02,1.51-.64,1.32.22,1.51,1.12,1.7,2.22,2.64,4.72,3.78,6.62,1.89,2.02,1.51.63,1.32-.23,1.51-1.13,1.7-2.22,2.64-4.72,3.78-6.61,1.89-2.01,1.51-.63,1.32.23,1.51,1.13,1.7,2.22,2.64,4.73,3.78,6.61,1.89,2.01,1.51.62,1.32-.24,1.51-1.14,1.7-2.23,2.64-4.73,3.78-6.6,1.89-2,1.51-.62,1.32.24,1.51,1.14,1.7,2.23,2.64,4.73,3.78,6.6,1.89,1.99,1.51.61,1.32-.25,1.51-1.15,1.7-2.24,2.64-4.74,3.78-6.6,1.89-1.99,1.51-.61,1.32.25,1.51,1.15,1.7,2.24,2.83,5.1,3.59,6.23,1.89,1.98,1.51.6,1.32-.25,1.51-1.16,1.7-2.25,2.83-5.11,3.59-6.22,1.89-1.98,1.51-.6,1.32.26,1.51,1.16,1.7,2.25,2.83,5.11,3.59,6.22,1.89,1.97,1.51.59,1.32-.26,1.51-1.16,1.7-2.25,2.83-5.11,3.59-6.21,1.89-1.97,1.51-.59,1.32.27,1.51,1.17,1.7,2.26,2.83,5.11,3.59,6.21,1.89,1.96,1.51.58,1.32-.27,1.51-1.17,1.7-2.26,2.83-5.12,3.59-6.2,1.89-1.96,1.51-.58,1.32.28,1.51,1.18,1.7,2.27,2.83,5.12,3.59,6.2,1.7,1.82,1.51.69,1.32-.18,1.51-1.07,1.7-2.17,2.64-4.69,3.97-6.92,1.7-1.81,1.51-.68,1.32.18,1.51,1.08,1.7,2.18,2.64,4.69,3.97,6.92,1.7,1.81,1.51.68,1.32-.19,1.51-1.08,1.7-2.18,2.64-4.7,3.97-6.91,1.7-1.8,1.51-.67,1.32.19,1.51,1.09,1.7,2.19,2.64,4.7,3.97,6.91,1.7,1.8,1.51.67,1.32-.19,1.51-1.09,1.7-2.19,2.64-4.7,3.97-6.9,1.7-1.79,1.51-.66,1.32.2,1.51,1.1,1.7,2.19,2.64,4.71,3.78,6.64,1.89,2.04,1.51.66,1.32-.2,1.51-1.1,1.7-2.2,2.64-4.71,3.78-6.64,1.89-2.04,1.51-.65,1.32.21,1.51,1.11,1.7,2.2,2.64,4.71,3.78,6.63,1.89,2.03,1.51.65,1.32-.21,1.51-1.11,1.7-2.21,2.64-4.72,3.78-6.63,1.89-2.03,1.51-.64,1.32.22,1.51,1.12,1.7,2.21,2.64,4.72,3.78,6.62,1.89,2.02,1.51.64,1.32-.22,1.51-1.12,1.7-2.22,2.64-4.72,3.78-6.62,1.89-2.02,1.51-.63,1.32.23,1.51,1.13,1.7,2.22,2.64,4.72,3.78,6.61,1.89,2.01,1.51.63,1.32-.23,1.51-1.13,1.7-2.22,2.64-4.73,3.78-6.61,1.89-2.01,1.51-.62,1.32.24,1.51,1.14,1.7,2.23,2.64,4.73,3.78,6.61,1.89,2,1.51.62,1.32-.24,1.51-1.14,1.7-2.23,2.64-4.73,3.78-6.6,1.89-2,1.51-.61,1.32.24,1.51,1.15,1.7,2.24,2.64,4.74,3.78,6.6,1.89,1.99,1.51.61,1.32-.25,1.51-1.15,1.7-2.24,2.83-5.1,3.59-6.23,1.89-1.98,1.51-.6,1.32.25,1.51,1.16,1.7,2.25,2.83,5.11,3.59,6.22,1.89,1.98,1.51.6,1.32-.26,1.51-1.16,1.7-2.25,2.83-5.11,3.59-6.22,1.89-1.97,1.51-.59,1.32.26,1.51,1.16,1.7,2.25,2.83,5.11,3.59,6.21,1.89,1.97,1.51.59,1.32-.27,1.51-1.17,1.7-2.26,2.83-5.11,3.59-6.21,1.89-1.96,1.51-.58,1.32.27,1.51,1.17,1.7,2.26,2.83,5.12,3.59,6.21,1.89,1.96,1.51.58,1.32-.28,1.51-1.18,1.7-2.27,2.83-5.12,3.59-6.2,1.7-1.82,1.51-.69,1.32.18,1.51,1.07,1.7,2.17,2.64,4.69,3.97,6.92,1.7,1.81,1.51.68,1.32-.18,1.51-1.08,1.7-2.18,2.64-4.69,1.51-2.88"/>
  <path class="cls-4" d="m73.08,288.5h0l5.67,9.41,1.32.8,1.32-.08,1.32-.95,1.51-2,2.64-4.83,2.83-4.71,1.51-1.4,1.32-.32,1.32.57,1.51,1.64,2.08,3.49,3.97,6.9,1.51,1.42,1.32.34,1.32-.55,1.51-1.63,2.08-3.48,4.16-7.15,1.51-1.31,1.32-.23,1.32.66,1.51,1.73,2.08,3.56,3.78,6.58,1.51,1.46,1.32.38,1.32-.51,1.32-1.34,1.89-3,4.91-8.32,1.51-1.08h1.32s1.32.85,1.32.85l1.51,1.92,2.46,4.42,3.02,5.17,1.51,1.49,1.28.42,1.18-.36,1.32-1.2,1.7-2.53,5.67-9.41,1.32-.81,1.32.08,1.32.95,1.51,2,2.64,4.83,2.83,4.72,1.51,1.41,1.32.33,1.32-.56,1.51-1.64,2.08-3.49,3.97-6.91,1.51-1.42,1.32-.34,1.32.55,1.51,1.62,2.08,3.48,4.16,7.16,1.51,1.31,1.32.24,1.32-.65,1.51-1.72,2.08-3.55,3.78-6.58,1.51-1.46,1.32-.38,1.32.51,1.32,1.34,1.89,3,4.91,8.32,1.51,1.09,1.32.02,1.32-.86,1.51-1.92,2.46-4.41,3.02-5.17,1.51-1.5,1.28-.42,1.17.35,1.32,1.19,1.7,2.53,5.67,9.42,1.32.81,1.32-.07,1.32-.95,1.51-1.99,2.64-4.83,2.83-4.72,1.51-1.41,1.32-.33,1.32.56,1.51,1.64,2.08,3.49,3.97,6.91,1.51,1.43,1.32.35,1.32-.54,1.32-1.37,1.89-3.03,4.72-8.08,1.51-1.19,1.32-.11,1.32.77,1.51,1.84,2.27,4,3.4,5.86,1.51,1.46,1.23.39,1.23-.38,1.32-1.22,1.7-2.56,5.67-9.37,1.32-.78,1.32.11,1.32.98,1.7,2.33,3.78,6.96,2.08,2.9,1.32.91,1.32.04,1.32-.84,1.51-1.9,2.46-4.4,3.02-5.19,1.51-1.52,1.31-.44,1.14.33,1.32,1.17,1.7,2.51,5.86,9.61,1.32.71,1.13-.1,1.32-.93,1.51-1.98,2.64-4.81,2.83-4.74,1.51-1.43,1.32-.35,1.32.54,1.32,1.36,1.89,3.02,4.72,8.08,1.51,1.19,1.32.11,1.32-.77,1.51-1.83,2.27-3.99,3.4-5.87,1.51-1.47,1.24-.39,1.22.38,1.32,1.22,1.7,2.56,5.67,9.38,1.32.78,1.32-.1,1.32-.97,1.7-2.33,3.59-6.63,2.08-3.03,1.51-1.11,1.32-.04,1.32.84,1.51,1.9,2.46,4.4,3.02,5.19,1.51,1.52,1.32.44,1.14-.33,1.32-1.17,1.7-2.51,5.86-9.62,1.32-.71,1.13.1,1.32.92,1.51,1.97,2.64,4.81,2.83,4.75,1.51,1.43,1.32.35,1.32-.54,1.32-1.36,1.89-3.02,4.72-8.09,1.51-1.19,1.32-.12,1.32.77,1.51,1.83,2.27,3.99,3.4,5.87,1.51,1.47,1.24.39,1.22-.38,1.32-1.22,1.7-2.55,5.67-9.38,1.32-.78,1.32.1,1.32.97,1.7,2.32,3.59,6.63,2.08,3.04,1.51,1.12,1.32.05,1.32-.83,1.51-1.89,2.46-4.4,3.02-5.19,1.51-1.52,1.32-.45,1.13.33,1.32,1.17,1.7,2.51,5.86,9.62,1.32.71,1.13-.09,1.32-.92,1.51-1.97,2.64-4.81,2.83-4.75,1.51-1.44,1.32-.36,1.32.53,1.32,1.36,1.89,3.02,4.72,8.09,1.51,1.2,1.32.12,1.32-.76,1.51-1.83,2.27-3.99,3.4-5.87,1.51-1.47,1.24-.4,1.21.37,1.32,1.22,1.7,2.55,5.67,9.39,1.32.78,1.32-.1,1.32-.97,1.7-2.32,3.59-6.63,2.08-3.04,1.51-1.12,1.32-.05,1.32.83,1.51,1.89,2.46,4.4,3.02,5.2,1.51,1.53,1.33.45,1.32-.44,1.32-1.28,1.89-2.94,5.1-8.6,1.51-1.02,1.32.04,1.32.92,1.51,1.97,2.64,4.81,2.83,4.75,1.51,1.44,1.32.36,1.32-.53,1.32-1.36,1.89-3.02,4.72-8.09,1.51-1.2,1.32-.12,1.32.76,1.51,1.83,2.27,3.99,3.4,5.88,1.51,1.48,1.25.4,1.21-.37,1.32-1.21,1.7-2.55,5.67-9.39,1.32-.79,1.32.09,1.32.97,1.7,2.32,3.4,6.29,2.27,3.38,1.51,1.12,1.32.05,1.32-.83,1.51-1.89,2.46-4.39,3.02-5.2,1.51-1.53,1.33-.45,1.31.44,1.32,1.28,1.89,2.94,5.1,8.6,1.51,1.03,1.32-.04,1.32-.91,1.51-1.97,2.64-4.81,2.83-4.75,1.51-1.44,1.32-.36,1.32.53,1.32,1.35,1.89,3.01,4.72,8.1,1.51,1.2,1.32.13,1.32-.76,1.51-1.82,2.27-3.99,3.4-5.88,1.51-1.48,1.25-.4,1.2.37,1.32,1.21,1.7,2.55,5.67,9.39,1.32.79,1.32-.09,1.32-.96,1.7-2.31,3.4-6.29,2.27-3.38,1.51-1.13,1.32-.06,1.32.83,1.51,1.89,2.46,4.39,3.02,5.2,1.51,1.53,1.34.46,1.31-.44,1.32-1.27,1.89-2.94,5.1-8.61,1.51-1.03,1.32.04,1.32.91,1.51,1.96,2.64,4.81,2.83,4.76,1.51,1.45,1.32.37,1.32-.52,1.32-1.35,1.89-3.01,4.72-8.1,1.51-1.21,1.32-.13,1.32.75,1.51,1.82,2.27,3.98,3.4,5.88,1.51,1.48,1.26.4,1.2-.37,1.32-1.21,1.7-2.54,5.67-9.4,1.32-.79,1.32.09,1.32.96,1.51,2.01,2.83,5.19,2.64,4.35,1.51,1.39,1.32.31,1.32-.58,1.51-1.65,2.08-3.5,3.97-6.89,1.51-1.41,1.32-.33,1.32.56,1.51,1.63,2.08,3.48,4.16,7.14,1.51,1.3,1.32.22,1.32-.66,1.51-1.74,2.27-3.92,3.59-6.21,1.51-1.45,1.32-.37,1.32.52,1.32,1.35.38.52"/>
  <path class="cls-4" d="m73.08,297.58h0l1.13-.78,1.51-2.04,5.67-8.93,1.13-.32,1.13.46,1.32,1.43,1.89,3.21,3.4,5.8,1.32,1.1,1.13.13,1.13-.64,1.32-1.6,2.27-4.06,2.64-4.43,1.32-1.18,1.13-.21,1.13.56,1.32,1.53,2.08,3.64,3.02,5.1,1.32,1.12,1.13.15,1.13-.61,1.32-1.58,2.27-4.04,2.64-4.45,1.32-1.2,1.13-.23,1.13.54,1.32,1.51,2.08,3.63,3.02,5.12,1.32,1.14,1.13.18,1.13-.59,1.32-1.56,2.08-3.66,2.83-4.84,1.32-1.22,1.13-.25,1.13.52,1.32,1.49,2.08,3.61,3.02,5.15,1.32,1.17,1.13.2,1.13-.57,1.32-1.54,2.08-3.65,3.02-5.09,1.32-1.11,1.13-.15,1.13.62,1.32,1.59,2.27,4.05,2.64,4.44,1.32,1.19,1.13.22,1.13-.55,1.32-1.52,2.08-3.63,3.02-5.12,1.32-1.13,1.13-.17,1.13.6,1.32,1.57,2.27,4.03,2.64,4.47,1.32,1.21,1.13.24,1.13-.53,1.32-1.5,2.08-3.62,3.02-5.14,1.32-1.16,1.13-.19,1.13.58,1.32,1.55,2.08,3.66,2.83,4.85,1.51,1.33,1.13.14,1.13-.63,1.32-1.6,2.27-4.05,2.64-4.43,1.32-1.18,1.13-.21,1.13.56,1.32,1.53,2.08,3.64,3.02,5.11,1.32,1.12,1.13.16,1.13-.61,1.32-1.58,2.27-4.04,2.64-4.46,1.32-1.2,1.13-.23,1.13.54,1.32,1.51,2.08,3.63,3.02,5.13,1.32,1.15,1.13.18,1.13-.59,1.32-1.56,2.08-3.66,2.83-4.84,1.51-1.32,1.13-.13,1.13.64,1.32,1.6,2.27,4.06,2.64,4.42,1.32,1.17,1.13.2,1.13-.57,1.32-1.54,2.08-3.65,3.02-5.1,1.32-1.11,1.13-.15,1.13.62,1.32,1.58,2.27,4.05,2.64,4.45,1.32,1.19,1.13.22,1.13-.55,1.32-1.52,2.08-3.63,3.02-5.12,1.32-1.14,1.13-.17,1.13.6,1.32,1.56,2.08,3.67,2.83,4.83,1.32,1.22,1.13.25,1.13-.53,1.32-1.49,2.08-3.62,3.02-5.14,1.32-1.16,1.13-.19,1.13.58,1.32,1.54,2.08,3.65,2.83,4.85,1.51,1.34,1.13.14,1.13-.63,1.32-1.59,2.27-4.05,2.64-4.44,1.32-1.18,1.13-.21,1.13.56,1.32,1.52,2.08,3.64,3.02,5.11,1.32,1.13,1.13.16,1.13-.61,1.32-1.57,2.27-4.04,2.64-4.46,1.32-1.21,1.13-.24,1.13.53,1.32,1.5,2.08,3.62,3.02,5.13,1.32,1.15,1.13.18,1.13-.59,1.32-1.55,2.08-3.66,2.83-4.84,1.51-1.33,1.13-.13,1.13.64,1.32,1.6,2.27,4.06,2.64,4.43,1.32,1.17,1.13.21,1.13-.57,1.32-1.53,2.08-3.65,3.02-5.1,1.32-1.12,1.13-.15,1.13.62,1.32,1.58,2.27,4.04,2.64,4.45,1.32,1.2,1.13.23,1.13-.54,1.32-1.51,2.08-3.63,3.02-5.12,1.32-1.14,1.13-.17,1.13.6,1.32,1.56,2.08,3.67,2.83,4.84,1.32,1.22,1.13.25,1.13-.52,1.32-1.49,2.08-3.61,3.02-5.14,1.32-1.16,1.13-.2,1.13.57,1.32,1.54,2.08,3.65,3.02,5.09,1.32,1.11,1.13.14,1.13-.63,1.32-1.59,2.27-4.05,2.64-4.44,1.32-1.19,1.13-.22,1.13.55,1.32,1.52,2.08,3.64,3.02,5.11,1.32,1.13,1.13.16,1.13-.6,1.32-1.57,2.27-4.04,2.64-4.46,1.32-1.21,1.13-.24,1.13.53,1.32,1.5,2.08,3.62,3.02,5.14,1.32,1.15,1.13.19,1.13-.58,1.32-1.55,2.08-3.66,2.83-4.85,1.51-1.33,1.13-.13,1.13.64,1.32,1.6,2.27,4.06,2.64,4.43,1.32,1.18,1.13.21,1.13-.56,1.32-1.53,2.08-3.64,3.02-5.1,1.32-1.12,1.13-.16,1.13.61,1.32,1.58,2.27,4.04,2.64,4.45,1.32,1.2,1.13.23,1.13-.54,1.32-1.51,2.08-3.63,3.02-5.13,1.32-1.14,1.13-.18,1.13.59,1.32,1.56,2.08,3.66,2.83,4.84,1.32,1.22,1.13.25,1.13-.52,1.32-1.49,2.08-3.61,3.02-5.15,1.32-1.17,1.13-.2,1.13.57,1.32,1.54,2.08,3.65,3.02,5.09,1.32,1.11,1.13.15,1.13-.62,1.32-1.59,2.27-4.05,2.64-4.44,1.32-1.19,1.13-.22,1.13.55,1.32,1.52,2.08,3.63,3.02,5.12,1.32,1.13,1.13.17,1.13-.6,1.32-1.57,2.27-4.03,2.64-4.47,1.32-1.21,1.13-.24,1.13.53,1.32,1.5,2.08,3.62,3.02,5.14,1.32,1.16,1.13.19,1.13-.58,1.32-1.55,2.08-3.66,2.83-4.85,1.51-1.33,1.13-.14,1.13.63,1.32,1.6,2.27,4.05,2.64,4.43,1.32,1.18,1.13.21,1.13-.56,1.32-1.53,2.08-3.64,3.02-5.11,1.32-1.12,1.13-.16,1.13.61,1.32,1.58,2.27,4.04,2.64,4.46,1.32,1.2,1.13.23,1.13-.54,1.32-1.51,2.08-3.63,3.02-5.13,1.32-1.15,1.13-.18,1.13.59,1.32,1.56,2.08,3.66,2.83,4.84,1.51,1.32,1.13.13,1.13-.64,1.32-1.6,2.27-4.06,2.64-4.42,1.32-1.17,1.13-.2,1.13.57,1.32,1.54,2.08,3.65,3.02,5.1,1.32,1.11,1.13.15,1.13-.62,1.32-1.58,2.27-4.05,2.64-4.45,1.32-1.19,1.13-.22,1.13.55,1.32,1.51,2.08,3.63,3.02,5.12,1.32,1.14,1.13.17,1.13-.6,1.32-1.56,2.08-3.67,2.83-4.83,1.32-1.22,1.13-.25,1.13.53,1.32,1.49,2.08,3.62,3.02,5.14,1.32,1.16,1.13.19,1.13-.58,1.32-1.54,2.08-3.65,2.83-4.85,1.51-1.34,1.13-.14,1.13.63,1.32,1.59,2.27,4.05,2.64,4.44,1.32,1.18,1.13.22,1.13-.56,1.32-1.52,2.08-3.64,3.02-5.11,1.32-1.13,1.13-.16,1.13.61,1.32,1.57,2.27,4.04,2.64,4.46,1.32,1.21,1.13.24,1.13-.53,1.32-1.5,2.08-3.62,3.02-5.13,1.32-1.15,1.13-.18,1.13.59,1.32,1.55,2.08,3.66,2.83,4.84,1.51,1.33,1.13.13,1.13-.64,1.32-1.6,2.27-4.06,2.64-4.43,1.32-1.17,1.13-.21,1.13.56,1.32,1.53,2.08,3.65,3.02,5.1,1.32,1.12,1.13.15,1.13-.62,1.32-1.58,2.27-4.04,2.64-4.45,1.32-1.2,1.13-.23,1.13.54,1.32,1.51,2.08,3.63,3.02,5.12,1.32,1.14,1.13.17,1.13-.6,1.32-1.56,2.08-3.67,2.83-4.84,1.32-1.22,1.13-.25,1.13.52,1.32,1.49,2.08,3.61,3.02,5.14,1.32,1.16.38.15"/>
  <path class="cls-4" d="m73.08,287.74h0l1.32-1.23,1.13-.13,1.13.75,1.32,1.81,4.91,7.69,1.13.22,1.13-.67,1.32-1.74,5.1-7.91,1.13-.15,1.13.73,1.32,1.79,4.91,7.72,1.13.24,1.13-.65,1.32-1.72,5.1-7.94,1.13-.17,1.13.71,1.32,1.77,4.91,7.74,1.13.26,1.13-.63,1.32-1.7,5.29-8.06,1.13-.05,1.13.83,1.51,2.2,4.16,6.84,1.13.57,1.13-.31,1.13-1.15,1.7-2.83,3.02-5.16,1.32-1.01,1.13.08,1.13.94,1.51,2.31,3.78,6.35,1.13.74,1.13-.14,1.13-1,1.51-2.36,3.78-6.29,1.13-.68,1.13.21,1.13,1.06,1.7,2.75,3.21,5.48,1.32.96,1.13-.12,1.13-.98,1.51-2.34,3.78-6.31,1.13-.7,1.13.18,1.13,1.04,1.7,2.74,3.4,5.7,1.13.78,1.13-.1,1.13-.96,1.51-2.32,3.78-6.33,1.13-.72,1.13.16,1.13,1.02,1.51,2.37,3.59,6.08,1.13.8,1.13-.08,1.13-.94,1.51-2.3,3.97-6.54,1.13-.6,1.13.29,1.13,1.13,1.7,2.82,3.21,5.4,1.13.82,1.13-.05,1.13-.92,1.51-2.29,3.97-6.56,1.13-.62,1.13.27,1.13,1.11,1.7,2.8,3.21,5.42,1.32.9,1.13-.18,1.13-1.03,1.7-2.73,3.4-5.71,1.13-.78,1.13.1,1.13.96,1.51,2.32,3.78,6.34,1.13.72,1.13-.16,1.13-1.01,1.51-2.37,3.78-6.27,1.13-.66,1.13.22,1.13,1.07,1.7,2.77,3.21,5.46,1.32.95,1.13-.14,1.13-.99,1.51-2.35,3.78-6.29,1.13-.68,1.13.2,1.13,1.05,1.7,2.75,3.21,5.48,1.32.97,1.13-.12,1.13-.97,1.51-2.33,3.78-6.32,1.13-.7,1.13.18,1.13,1.03,1.7,2.73,3.4,5.71,1.13.78,1.13-.09,1.13-.95,1.51-2.32,3.78-6.34,1.13-.72,1.13.16,1.13,1.01,1.51,2.37,3.78,6.27,1.13.66,1.13-.22,1.13-1.07,1.7-2.76,3.21-5.46,1.32-.95,1.13.13,1.13.99,1.51,2.35,3.78,6.3,1.13.69,1.13-.2,1.13-1.05,1.7-2.75,3.21-5.48,1.32-.97,1.13.11,1.13.97,1.51,2.33,3.78,6.32,1.13.71,1.13-.18,1.13-1.03,1.7-2.73,3.4-5.71,1.13-.79,1.13.09,1.13.95,1.51,2.32,3.78,6.34,1.13.73,1.13-.15,1.13-1.01,1.51-2.36,3.78-6.27,1.13-.67,1.13.22,1.13,1.06,1.7,2.76,3.21,5.47,1.32.95,1.13-.13,1.13-.99,1.51-2.35,3.78-6.3,1.13-.69,1.13.2,1.13,1.05,1.7,2.74,3.4,5.69,1.13.77,1.13-.11,1.13-.97,1.51-2.33,3.78-6.32,1.13-.71,1.13.17,1.13,1.03,1.7,2.73,3.4,5.72,1.13.79,1.13-.09,1.13-.95,1.51-2.31,3.78-6.34,1.13-.73,1.13.15,1.13,1.01,1.51,2.36,3.78,6.28,1.13.67,1.13-.21,1.13-1.06,1.7-2.76,3.21-5.47,1.32-.95,1.13.13,1.13.99,1.51,2.35,3.78,6.3,1.13.69,1.13-.19,1.13-1.04,1.7-2.74,3.4-5.7,1.13-.77,1.13.11,1.13.97,1.51,2.33,3.78,6.32,1.13.71,1.13-.17,1.13-1.02,1.7-2.73,3.4-5.72,1.13-.79,1.13.09,1.13.95,1.51,2.31,3.78,6.35,1.13.73,1.13-.15,1.13-1,1.51-2.36,3.78-6.28,1.13-.67,1.13.21,1.13,1.06,1.7,2.76,3.21,5.47,1.32.96,1.13-.13,1.13-.98,1.51-2.34,3.78-6.3,1.13-.69,1.13.19,1.13,1.04,1.7,2.74,3.4,5.7,1.13.77,1.13-.1,1.13-.96,1.51-2.33,3.78-6.33,1.13-.71,1.13.17,1.13,1.02,1.51,2.37,3.59,6.07,1.13.79,1.13-.08,1.13-.95,1.51-2.31,3.78-6.35,1.13-.73,1.13.15,1.13,1,1.51,2.36,3.78,6.28,1.13.67,1.13-.21,1.13-1.06,1.7-2.76,3.21-5.47,1.32-.96,1.13.12,1.13.98,1.51,2.34,3.78,6.31,1.13.7,1.13-.19,1.13-1.04,1.7-2.74,3.4-5.7,1.13-.78,1.13.1,1.13.96,1.51,2.32,3.78,6.33,1.13.72,1.13-.17,1.13-1.02,1.51-2.37,3.59-6.07,1.13-.8,1.13.08,1.13.94,1.51,2.31,3.78,6.35,1.13.74,1.13-.14,1.13-1,1.51-2.36,3.78-6.29,1.13-.68,1.13.21,1.13,1.06,1.7,2.75,3.21,5.48,1.32.96,1.13-.12,1.13-.98,1.51-2.34,3.78-6.31,1.13-.7,1.13.18,1.13,1.04,1.7,2.74,3.4,5.7,1.13.78,1.13-.1,1.13-.96,1.51-2.32,3.78-6.33,1.13-.72,1.13.16,1.13,1.02,1.51,2.37,3.59,6.07,1.13.8,1.13-.08,1.13-.94,1.51-2.3,3.97-6.54,1.13-.6,1.13.29,1.13,1.13,1.7,2.82,3.21,5.39,1.13.82,1.13-.05,1.13-.92,1.51-2.29,3.97-6.56,1.13-.62,1.13.27,1.13,1.11,1.7,2.8,3.21,5.42,1.32.9,1.13-.18,1.13-1.03,1.7-2.73,3.4-5.71,1.13-.78,1.13.1,1.13.96,1.51,2.32,3.78,6.34,1.13.72,1.13-.16,1.13-1.01,1.51-2.37,3.78-6.27,1.13-.66,1.13.22,1.13,1.07,1.7,2.77,3.21,5.46,1.32.95,1.13-.14,1.13-.99,1.51-2.35,3.78-6.29,1.13-.68,1.13.2,1.13,1.05,1.7,2.75,3.21,5.48,1.32.97,1.13-.12,1.13-.97,1.51-2.33,3.78-6.32,1.13-.7,1.13.18,1.13,1.03,1.7,2.73,3.4,5.71,1.13.78,1.13-.09,1.13-.96,1.51-2.32,3.78-6.34,1.13-.72,1.13.16,1.13,1.01,1.51,2.37,3.78,6.27,1.13.66,1.13-.22,1.13-1.07,1.7-2.76,3.21-5.46,1.32-.95,1.13.13,1.13.99,1.51,2.35,3.78,6.3,1.13.69,1.13-.2,1.13-1.05,1.7-2.75,3.21-5.48,1.32-.97,1.13.11,1.13.97,1.51,2.33,3.78,6.32,1.13.71,1.13-.18,1.13-1.03,1.7-2.73,3.4-5.71,1.13-.79,1.13.09,1.13.95,1.51,2.32,3.78,6.34,1.13.73,1.13-.15,1.13-1.01,1.51-2.36,2.08-3.9"/>
  <path class="cls-4" d="m73.08,291.06h0l2.64,4.4,1.13.76.94-.13,1.13-1.04,1.51-2.48,2.83-4.79,1.13-.79.94.1,1.13,1,1.51,2.45,3.02,5.02,1.13.67.94-.21,1.13-1.12,1.7-2.9,2.46-4.13,1.13-.86.94.04,1.13.94,1.51,2.4,3.02,5.09,1.13.74.94-.15,1.13-1.06,1.7-2.85,2.64-4.41,1.13-.77.94.12,1.13,1.03,1.51,2.47,2.83,4.8,1.13.8.94-.09,1.13-1,1.51-2.45,3.02-5.03,1.13-.68.94.2,1.13,1.11,1.7,2.89,2.46,4.14,1.13.87.94-.03,1.13-.93,1.51-2.4,3.02-5.1,1.13-.75.94.14,1.13,1.05,1.7,2.85,2.64,4.42,1.13.78.94-.11,1.13-1.02,1.51-2.46,3.02-5.01,1.13-.65.94.22,1.13,1.13,1.7,2.91,2.46,4.12,1.13.85.94-.05,1.13-.95,1.51-2.41,3.02-5.08,1.13-.72.94.16,1.13,1.07,1.7,2.86,2.64,4.39,1.13.76.94-.13,1.13-1.04,1.7-2.84,2.64-4.43,1.13-.79.94.1,1.13,1.01,1.51,2.46,3.02,5.02,1.13.66.94-.21,1.13-1.12,1.7-2.9,2.46-4.13,1.13-.86.94.04,1.13.94,1.51,2.41,3.02,5.08,1.13.73.94-.15,1.13-1.06,1.7-2.86,2.64-4.4,1.13-.77.94.12,1.13,1.03,1.51,2.47,2.83,4.79,1.13.8.94-.09,1.13-1,1.51-2.45,3.02-5.03,1.13-.67.94.2,1.13,1.12,1.7,2.9,2.46,4.14,1.13.87.94-.03,1.13-.94,1.51-2.4,3.02-5.09,1.13-.74.94.14,1.13,1.05,1.7,2.85,2.64,4.41,1.13.78.94-.11,1.13-1.02,1.51-2.47,2.83-4.8,1.13-.81.94.08,1.13.99,1.51,2.44,3.02,5.04,1.13.68.94-.19,1.13-1.11,1.7-2.89,2.64-4.36,1.13-.72.94.16,1.13,1.08,1.7,2.87,2.64,4.39,1.13.75.94-.13,1.13-1.04,1.7-2.84,2.64-4.42,1.13-.79.94.1,1.13,1.01,1.51,2.46,3.02,5.01,1.13.66.94-.22,1.13-1.13,1.7-2.91,2.46-4.13,1.13-.85.94.04,1.13.95,1.51,2.41,3.02,5.08,1.13.73.94-.16,1.13-1.07,1.7-2.86,2.64-4.4,1.13-.76.94.13,1.13,1.03,1.51,2.48,2.83,4.79,1.13.79.94-.1,1.13-1,1.51-2.45,3.02-5.02,1.13-.67.94.21,1.13,1.12,1.7,2.9,2.46,4.13,1.13.86.94-.04,1.13-.94,1.51-2.4,3.02-5.09,1.13-.74.94.15,1.13,1.06,1.7,2.85,2.64,4.41,1.13.77.94-.12,1.13-1.03,1.51-2.47,2.83-4.8,1.13-.8.94.09,1.13.99,1.51,2.45,3.02,5.03,1.13.68.94-.2,1.13-1.11,1.7-2.89,2.46-4.14,1.13-.87.94.03,1.13.93,1.51,2.39,3.02,5.1,1.13.75.94-.14,1.13-1.05,1.7-2.84,2.64-4.42,1.13-.78.94.11,1.13,1.02,1.51,2.46,3.02,5.01,1.13.66.94-.22,1.13-1.13,1.7-2.91,2.46-4.12,1.13-.85.94.05,1.13.95,1.51,2.41,3.02,5.08,1.13.72.94-.16,1.13-1.07,1.7-2.86,2.64-4.4,1.13-.76.94.13,1.13,1.04,1.7,2.84,2.64,4.43,1.13.79.94-.1,1.13-1.01,1.51-2.46,3.02-5.02,1.13-.67.94.21,1.13,1.12,1.7,2.9,2.46,4.13,1.13.86.94-.04,1.13-.94,1.51-2.41,3.02-5.09,1.13-.73.94.15,1.13,1.06,1.7,2.85,2.64,4.41,1.13.77.94-.12,1.13-1.03,1.51-2.47,2.83-4.8,1.13-.8.94.09,1.13,1,1.51,2.45,3.02,5.03,1.13.68.94-.2,1.13-1.11,1.7-2.89,2.46-4.14,1.13-.87.94.03,1.13.93,1.51,2.4,3.02,5.1,1.13.74.94-.14,1.13-1.05,1.7-2.85,2.64-4.41,1.13-.78.94.11,1.13,1.02,1.51,2.47,3.02,5,1.13.65.94-.22,1.13-1.14,1.7-2.91,2.46-4.12,1.13-.84.94.05,1.13.96,1.51,2.42,3.02,5.07,1.13.72.94-.16,1.13-1.07,1.7-2.86,2.64-4.39,1.13-.75.94.13,1.13,1.04,1.7,2.84,2.64,4.42,1.13.79.94-.1,1.13-1.01,1.51-2.46,3.02-5.01,1.13-.66.94.21,1.13,1.13,1.7,2.9,2.46,4.13,1.13.85.94-.04,1.13-.95,1.51-2.41,3.02-5.08,1.13-.73.94.15,1.13,1.06,1.7,2.86,2.64,4.4,1.13.76.94-.12,1.13-1.03,1.51-2.48,2.83-4.79,1.13-.8.94.09,1.13,1,1.51,2.45,3.02,5.02,1.13.67.94-.21,1.13-1.12,1.7-2.9,2.46-4.14,1.13-.86.94.03,1.13.94,1.51,2.4,3.02,5.09,1.13.74.94-.15,1.13-1.06,1.7-2.85,2.64-4.41,1.13-.77.94.12,1.13,1.02,1.51,2.47,2.83,4.8,1.13.81.94-.09,1.13-.99,1.51-2.44,3.02-5.03,1.13-.68.94.2,1.13,1.11,1.7,2.89,2.46,4.14,1.13.87.94-.03,1.13-.93,1.51-2.39,3.02-5.1,1.13-.75.94.14,1.13,1.05,1.7,2.84,2.64,4.42,1.13.78.94-.11,1.13-1.02,1.51-2.46,3.02-5.01,1.13-.66.94.22,1.13,1.13,1.7,2.91,2.46,4.12,1.13.85.94-.05,1.13-.95,1.51-2.41,3.02-5.08,1.13-.72.94.16,1.13,1.07,1.7,2.86,2.64,4.4,1.13.76.94-.13,1.13-1.04,1.7-2.84,2.64-4.43,1.13-.79.94.1,1.13,1.01,1.51,2.45,3.02,5.02,1.13.67.94-.21,1.13-1.12,1.7-2.9,2.46-4.13,1.13-.86.94.04,1.13.94,1.51,2.4,3.02,5.09,1.13.73.94-.15,1.13-1.06,1.7-2.85,2.64-4.41,1.13-.77.94.12,1.13,1.03,1.51,2.47,2.83,4.8,1.13.8.94-.09,1.13-1,1.51-2.45,3.02-5.03,1.13-.68.94.2,1.13,1.11,1.7,2.89,2.46,4.14,1.13.87.94-.03,1.13-.93,1.51-2.4,3.02-5.1,1.13-.74.94.14,1.13,1.05,1.7,2.85,2.64,4.42,1.13.78.94-.11,1.13-1.02,1.51-2.46,3.02-5.01,1.13-.65.94.22,1.13,1.13,1.7,2.91,2.46,4.12,1.13.84.94-.05,1.13-.96,1.51-2.41,3.02-5.07,1.13-.72.94.16,1.13,1.07,1.7,2.86,2.64,4.39,1.13.75.94-.13,1.13-1.04,1.7-2.84,2.64-4.43,1.13-.79.94.1,1.13,1.01,1.51,2.46,3.02,5.02,1.13.66.94-.21,1.13-1.13,1.7-2.9,2.46-4.13,1.13-.85.94.04,1.13.95,1.51,2.41,3.02,5.08,1.13.73.94-.15,1.13-1.06,1.7-2.86,2.64-4.4,1.13-.76.94.12,1.13,1.03,1.51,2.47,2.83,4.79,1.13.8.94-.09,1.13-1,1.51-2.45,3.02-5.03,1.13-.67.94.2,1.13,1.12.57.85"/>
  <path class="cls-4" d="m73.08,295.22h0l1.13-1.51,3.97-6.12.94-.09.94.68,1.32,1.98,3.21,5.21.95.4.94-.38,1.13-1.38,4.34-6.5.94.07.94.83,1.51,2.47,2.64,4.33,1.13.56.94-.39,1.13-1.39,4.34-6.49.94.08.94.84,1.51,2.47,2.64,4.33,1.13.55.95-.4,1.13-1.39,4.34-6.48.94.09.94.84,1.51,2.48,2.46,4.12,1.13.72.94-.25,1.13-1.25,2.08-3.76,1.7-2.51,1.11-.54.96.41,1.13,1.4,4.34,6.46.94-.1.94-.85,1.51-2.48,2.46-4.12,1.13-.71.94.26,1.13,1.26,2.08,3.77,1.7,2.5.94.52.94-.26,1.13-1.26,2.08-3.77,1.7-2.5.94-.52.94.26,1.13,1.27,2.08,3.77,1.7,2.5.94.51.94-.27,1.13-1.27,2.08-3.77,1.7-2.49.94-.51.94.27,1.13,1.27,2.27,4.12,1.51,2.14.94.51.94-.27,1.13-1.27,2.27-4.12,1.51-2.14.94-.5.94.28,1.13,1.28,2.27,4.12,1.51,2.14.94.5.94-.28,1.13-1.28,2.27-4.12,1.51-2.13.94-.5.94.28,1.13,1.28,2.27,4.12,1.51,2.13.94.49.94-.29,1.13-1.29,2.27-4.12,1.51-2.13.94-.49.94.29,1.13,1.29,2.27,4.12,1.51,2.12.94.49.94-.29,1.13-1.29,2.27-4.12,1.51-2.12.94-.48.94.3,1.13,1.3,2.27,4.12,1.51,2.12.94.48.94-.3,1.13-1.3,2.46-4.46,1.51-1.94.86-.33,1.03.46,1.13,1.45,4.16,6.32h.94s.94-.75.94-.75l1.32-2.05,3.02-4.95.94-.47.94.31,1.13,1.31,2.64,4.77,1.32,1.61.85.32,1.04-.47,1.13-1.46,4.16-6.3h.94s.94.76.94.76l1.32,2.05,3.02,4.94,1.03.47.86-.32,1.13-1.32,4.53-6.65.94.16,1.13,1.17,1.89,3.36,1.89,2.96,1.21.64.86-.33,1.13-1.32,4.53-6.64.94.17,1.13,1.17,1.89,3.37,1.89,2.95,1.21.63.87-.33,1.13-1.33,4.53-6.63.94.18,1.13,1.18,1.89,3.37,1.89,2.95,1.2.62.88-.34,1.13-1.34,4.53-6.62.94.18,1.13,1.19,1.89,3.37,1.89,2.94,1.19.62.89-.34,1.13-1.34,4.53-6.61.94.19,1.13,1.19,1.89,3.38,1.89,2.93,1.18.61.89-.35,1.13-1.35,4.34-6.55.94.04.94.8,1.51,2.44,2.64,4.37,1.18.6.9-.36,1.13-1.35,4.34-6.54.94.05.94.8,1.51,2.44,2.64,4.36,1.17.59.91-.36,1.13-1.36,4.34-6.53.94.05.94.81,1.51,2.45,2.64,4.36,1.16.58.92-.37,1.13-1.37,4.34-6.52.94.06.94.82,1.51,2.45,2.64,4.35,1.15.58.93-.37,1.13-1.37,4.34-6.51.94.07.94.82,1.51,2.46,2.64,4.34,1.15.57.93-.38,1.13-1.38,4.34-6.5.94.07.94.83,1.51,2.46,2.64,4.34,1.14.56.94-.39,1.13-1.38,4.34-6.49.94.08.94.83,1.51,2.47,2.64,4.33,1.13.55.95-.39,1.13-1.39,4.34-6.48.94.09.94.84,1.51,2.47,2.46,4.13,1.13.73.94-.25,1.13-1.25,2.08-3.76,1.7-2.52,1.12-.54.96.4,1.13,1.4,4.34,6.47.94-.09.94-.85,1.51-2.48,2.46-4.12,1.13-.72.94.25,1.13,1.26,2.08,3.76,1.7,2.51,1.11.53.97-.41,1.13-1.41,4.16-6.38.94-.05.94.71,1.32,2.01,3.02,5,.94.51.94-.26,1.13-1.27,2.08-3.77,1.7-2.5.94-.51.94.27,1.13,1.27,2.08,3.77,1.7,2.49.94.51.94-.27,1.13-1.27,2.27-4.12,1.51-2.14.94-.51.94.27,1.13,1.28,2.27,4.12,1.51,2.14.94.5.94-.28,1.13-1.28,2.27-4.12,1.51-2.14.94-.5.94.28,1.13,1.28,2.27,4.12,1.51,2.13.94.5.94-.28,1.13-1.28,2.27-4.12,1.51-2.13.94-.49.94.29,1.13,1.29,2.27,4.12,1.51,2.13.94.49.94-.29,1.13-1.29,2.27-4.12,1.51-2.12.94-.49.94.29,1.13,1.29,2.27,4.12,1.51,2.12.94.48.94-.3,1.13-1.3,2.46-4.46,1.51-1.94.87-.33,1.02.46,1.13,1.44,4.16,6.32h.94s.94-.74.94-.74l1.32-2.04,3.02-4.96.94-.47.94.31,1.13,1.31,2.46,4.46,1.51,1.93.86.32,1.03-.47,1.13-1.45,4.16-6.31h.94s.94.76.94.76l1.32,2.05,3.02,4.95,1.04.47.85-.32,1.13-1.32,4.53-6.66.94.16,1.13,1.16,1.89,3.36,1.89,2.96,1.22.64.86-.32,1.13-1.32,4.53-6.65.94.17,1.13,1.17,1.89,3.37,1.89,2.95,1.21.63.87-.33,1.13-1.33,4.53-6.64.94.18,1.13,1.18,1.89,3.37,1.89,2.95,1.2.63.88-.34,1.13-1.33,4.53-6.63.94.18,1.13,1.18,1.89,3.37,1.89,2.94,1.19.62.88-.34,1.13-1.34,4.53-6.62.94.19,1.13,1.19,1.89,3.38,1.89,2.93,1.19.61.89-.35,1.13-1.35,4.34-6.55.94.04.94.8,1.51,2.44,2.64,4.37,1.18.6.9-.35,1.13-1.35,4.34-6.54.94.04.94.8,1.51,2.44,2.64,4.37,1.17.6.91-.36,1.13-1.36,4.34-6.53.94.05.94.81,1.51,2.45,2.64,4.36,1.16.59.91-.37,1.13-1.36,4.34-6.52.94.06.94.81,1.51,2.45,2.64,4.35,1.16.58.92-.37,1.13-1.37,4.34-6.51.94.06.94.82,1.51,2.46,2.64,4.35,1.15.57.93-.38,1.13-1.38,4.34-6.51.94.07.94.83,1.51,2.46,2.64,4.34,1.14.57.94-.38,1.13-1.38,4.34-6.5.94.08.94.83,1.51,2.47,2.64,4.33,1.13.56.95-.39,1.13-1.39,4.34-6.49.94.08.94.84,1.51,2.47,2.46,4.13,1.13.73.94-.24,1.13-1.24,2.08-3.76,1.7-2.52,1.12-.55.96.4,1.13,1.4,4.34,6.47.94-.09.94-.85,1.51-2.48,2.46-4.12,1.13-.72.94.25,1.13,1.25,2.08,3.76,1.7,2.51,1.11.54.97-.41,1.13-1.4,4.16-6.38.94-.06.94.71,1.32,2.01,3.02,5.01.94.52.94-.26,1.13-1.26,2.08-3.77,1.7-2.5.94-.51.94.26,1.13,1.27,2.08,3.77,1.7,2.49.94.51.94-.27,1.13-1.27,2.08-3.77,1.7-2.49.94-.51.94.27,1.13,1.27,2.27,4.12,1.51,2.14.94.5h.19"/>
  <path class="cls-4" d="m73.08,288.17h0l.94-.32.94.54,1.13,1.59,3.21,5.13.94.25.94-.61,1.32-1.99,2.83-4.56.94-.34.94.52,1.13,1.58,3.21,5.15.94.26.94-.59,1.32-1.98,2.83-4.58.86-.36,1.02.5,1.13,1.56,3.21,5.17.94.28.94-.58,1.32-1.96,2.83-4.6.88-.38,1,.49,1.13,1.55,3.4,5.32.94.13.94-.72,1.32-2.09,2.46-4.1.94-.56.94.3,1.13,1.38,3.78,5.75.94-.03.94-.86,1.51-2.56,2.08-3.4.94-.58.94.28,1.13,1.36,3.78,5.78h.94s.94-.85.94-.85l1.51-2.55,2.08-3.42.94-.6.94.26,1.13,1.34,3.97,5.87.94-.16.94-.98,1.7-3.01,1.89-2.89.96-.45.92.41,1.13,1.48,3.59,5.51.94.03.94-.81,1.51-2.52,2.27-3.64.98-.47.9.39,1.13,1.47,3.59,5.54.94.05.94-.79,1.51-2.51,2.27-3.66,1-.49.88.38,1.13,1.45,3.59,5.56.94.06.94-.78,1.32-2.13,2.46-4.04,1.02-.5.86.36,1.13,1.44,3.59,5.58.94.08.94-.76,1.32-2.12,2.46-4.06.94-.52.94.34,1.13,1.42,3.78,5.69.94-.07.94-.9,1.51-2.59,2.08-3.35.94-.54.94.32,1.13,1.4,3.78,5.72.94-.05.94-.88,1.51-2.58,2.08-3.37.94-.55.94.3,1.13,1.39,3.78,5.74.94-.04.94-.87,1.51-2.57,2.08-3.39.94-.57.94.29,1.13,1.37,3.78,5.76.94-.02.94-.85,1.51-2.55,2.08-3.41.94-.59.94.27,1.13,1.35,3.78,5.79h.94s.94-.83.94-.83l1.51-2.54,2.08-3.42.94-.61.94.25,1.13,1.34,3.97,5.88.94-.15.94-.97,1.7-3,1.89-2.9.98-.46.91.4,1.13,1.48,3.59,5.53.94.04.94-.8,1.51-2.51,2.27-3.65,1-.48.89.39,1.13,1.46,3.59,5.55.94.06.94-.79,1.51-2.5,2.27-3.67,1.02-.5.87.37,1.13,1.44,3.59,5.57.94.07.94-.77,1.32-2.13,2.46-4.05,1.04-.51.85.35,1.13,1.43,3.59,5.59.94.09.94-.75,1.32-2.11,2.46-4.07.94-.53.94.33,1.13,1.41,3.78,5.71.94-.06.94-.89,1.51-2.58,2.08-3.36.94-.55.94.31,1.13,1.39,3.78,5.73.94-.04.94-.87,1.51-2.57,2.08-3.38.94-.56.94.29,1.13,1.38,3.78,5.75.94-.03.94-.86,1.51-2.56,2.08-3.4.94-.58.94.28,1.13,1.36,3.78,5.78h.94s.94-.85.94-.85l1.51-2.55,2.08-3.42.94-.6.94.26,1.13,1.34,3.97,5.87.94-.16.94-.98,1.7-3.01,1.89-2.9.97-.45.92.41,1.13,1.48,3.59,5.52.94.03.94-.81,1.51-2.52,2.27-3.64.99-.47.9.39,1.13,1.47,3.59,5.54.94.05.94-.79,1.51-2.51,2.27-3.66,1.01-.49.88.38,1.13,1.45,3.59,5.56.94.07.94-.78,1.32-2.13,2.46-4.04,1.03-.51.86.36,1.13,1.43,3.59,5.58.94.08.94-.76,1.32-2.12,2.46-4.06.94-.52.94.34,1.13,1.42,3.78,5.69.94-.07.94-.9,1.51-2.59,2.08-3.36.94-.54.94.32,1.13,1.4,3.78,5.72.94-.05.94-.88,1.51-2.58,2.08-3.37.94-.56.94.3,1.13,1.38,3.78,5.74.94-.03.94-.87,1.51-2.56,2.08-3.39.94-.57.94.28,1.13,1.37,3.78,5.77.94-.02.94-.85,1.51-2.55,2.08-3.41.94-.59.94.27,1.13,1.35,3.97,5.86.94-.17.94-.98,1.7-3.01,1.89-2.89.96-.44.93.42,1.13,1.49,3.4,5.4.94.19.94-.66,1.32-2.04,2.64-4.35.98-.46.91.4,1.13,1.47,3.59,5.53.94.04.94-.8,1.51-2.51,2.27-3.65,1-.48.89.38,1.13,1.46,3.59,5.55.94.06.94-.78,1.32-2.14,2.46-4.03,1.02-.5.87.37,1.13,1.44,3.59,5.57.94.08.94-.77,1.32-2.13,2.46-4.05,1.04-.52.85.35,1.13,1.43,3.59,5.6.94.09.94-.75,1.32-2.11,2.46-4.07.94-.53.94.33,1.13,1.41,3.78,5.71.94-.06.94-.89,1.51-2.58,2.08-3.37.94-.55.94.31,1.13,1.39,3.78,5.73.94-.04.94-.87,1.51-2.57,2.08-3.38.94-.56.94.29,1.13,1.38,3.78,5.76.94-.02.94-.86,1.51-2.56,2.08-3.4.94-.58.94.27,1.13,1.36,3.78,5.78h.94s.94-.85.94-.85l1.51-2.54,2.08-3.42.94-.6.94.26,1.13,1.34,3.97,5.87.94-.16.94-.97,1.7-3.01,1.89-2.9.97-.45.92.41,1.13,1.48,3.59,5.52.94.03.94-.81,1.51-2.52,2.27-3.64.99-.47.9.39,1.13,1.47,3.59,5.54.94.05.94-.79,1.51-2.5,2.27-3.66,1.01-.49.88.37,1.13,1.45,3.59,5.56.94.07.94-.77,1.32-2.13,2.46-4.04,1.03-.51.86.36,1.13,1.43,3.59,5.59.94.09.94-.76,1.32-2.12,2.46-4.06.94-.52.94.34,1.13,1.42,3.78,5.7.94-.07.94-.9,1.51-2.59,2.08-3.36.94-.54.94.32,1.13,1.4,3.78,5.72.94-.05.94-.88,1.51-2.58,2.08-3.38.94-.56.94.3,1.13,1.38,3.78,5.75.94-.03.94-.86,1.51-2.56,2.08-3.39.94-.57.94.28,1.13,1.37,3.78,5.77h.94s.94-.86.94-.86l1.51-2.55,2.08-3.41.94-.59.94.26,1.13,1.35,3.97,5.86.94-.17.94-.98,1.7-3.01,1.89-2.89.96-.44.93.42,1.13,1.49,3.59,5.51.94.02.94-.82,1.51-2.52,2.27-3.63.98-.46.91.4,1.13,1.47,3.59,5.53.94.04.94-.8,1.51-2.51,2.27-3.65,1-.48.89.38,1.13,1.46,3.59,5.55.94.06.94-.78,1.32-2.14,2.46-4.03,1.02-.5.87.37,1.13,1.44,3.59,5.58.94.08.94-.77,1.32-2.13,2.46-4.05.94-.51.94.35,1.13,1.42,3.59,5.6.94.1.94-.75,1.32-2.11,2.46-4.07.94-.53.94.33,1.13,1.41,3.78,5.71.94-.06.94-.89,1.51-2.58,2.08-3.37.94-.55.94.31,1.13,1.39,3.78,5.73.94-.04.94-.87,1.51-2.57,2.08-3.39.94-.57.94.29,1.13,1.37,3.78,5.76.94-.02.94-.86,1.51-2.56,2.08-3.4.94-.58.94.27,1.13,1.36,3.78,5.78h.94s.94-.84.94-.84l1.51-2.54,1.32-2.41"/>
  <path class="cls-4" d="m73.08,292.32h0l1.51,2.27.92.44.78-.32,1.13-1.47,3.21-4.96.94-.02.94.89,1.7,3,1.7,2.53.94.34.94-.6,1.32-2.05,2.27-3.75.95-.47.94.46,1.13,1.6,2.83,4.55.94.24.94-.69,1.32-2.13,2.27-3.64.94-.37.94.57,1.13,1.68,2.64,4.29.94.32.94-.62,1.32-2.07,2.27-3.73.93-.45.96.49,1.13,1.62,2.83,4.52.94.22.94-.71,1.32-2.15,2.27-3.62.94-.35.94.59,1.13,1.7,2.64,4.27.94.3.94-.64,1.32-2.09,2.27-3.71.91-.43.79.33,1.13,1.48,3.21,4.94h.94s.94-.9.94-.9l1.7-3,1.7-2.51.94-.33.94.61,1.32,2.06,2.27,3.74.94.46.95-.47,1.13-1.61,2.83-4.54.94-.23.94.7,1.32,2.14,2.27,3.63.94.36.94-.58,1.13-1.69,2.64-4.28.94-.31.94.63,1.32,2.08,2.27,3.72.92.44.78-.32,1.13-1.47,3.21-4.96.94-.02.94.89,1.7,3,1.7,2.53.94.34.94-.6,1.32-2.05,2.27-3.75.95-.47.94.46,1.13,1.6,2.83,4.55.94.24.94-.69,1.32-2.13,2.27-3.64.94-.37.94.57,1.13,1.68,2.64,4.29.94.32.94-.62,1.32-2.07,2.27-3.73.93-.45.96.49,1.13,1.62,2.83,4.52.94.22.94-.71,1.32-2.15,2.27-3.62.94-.35.94.59,1.13,1.7,2.64,4.27.94.3.94-.64,1.32-2.09,2.27-3.71.91-.43.79.33,1.13,1.48,3.21,4.94h.94s.94-.9.94-.9l1.7-3,1.7-2.51.94-.33.94.61,1.32,2.06,2.27,3.74.94.46.95-.48,1.13-1.61,2.83-4.54.94-.23.94.7,1.32,2.14,2.27,3.63.94.36.94-.58,1.13-1.69,2.64-4.28.94-.31.94.63,1.32,2.08,2.27,3.72.92.44.78-.32,1.13-1.47,3.21-4.96.94-.02.94.89,1.7,3,1.7,2.53.94.34.94-.6,1.32-2.05,2.27-3.74.95-.47.94.46,1.13,1.6,2.83,4.55.94.24.94-.69,1.32-2.13,2.27-3.64.94-.37.94.57,1.13,1.68,2.64,4.29.94.32.94-.62,1.32-2.07,2.27-3.73.93-.45.96.49,1.13,1.62,2.83,4.52.94.21.94-.71,1.32-2.15,2.27-3.62.94-.35.94.59,1.13,1.7,2.64,4.27.94.3.94-.64,1.32-2.09,2.27-3.71.91-.43.79.33,1.13,1.48,3.21,4.94h.94s.94-.9.94-.9l1.7-3,1.7-2.51.94-.33.94.61,1.32,2.06,2.27,3.74.94.46.95-.48,1.13-1.61,2.83-4.54.94-.23.94.7,1.32,2.14,2.27,3.63.94.36.94-.58,1.13-1.69,2.64-4.28.94-.31.94.63,1.32,2.08,2.27,3.72.92.44.78-.32,1.13-1.47,3.21-4.96.94-.02.94.89,1.7,3,1.7,2.53.94.34.94-.6,1.32-2.05,2.27-3.74.95-.47.94.46,1.13,1.6,2.83,4.55.94.24.94-.69,1.32-2.13,2.27-3.64.94-.37.94.57,1.13,1.68,2.64,4.29.94.32.94-.62,1.32-2.07,2.27-3.73.93-.45.96.49,1.13,1.62,2.83,4.52.94.21.94-.71,1.32-2.15,2.27-3.62.94-.35.94.59,1.13,1.7,2.64,4.27.94.3.94-.64,1.32-2.09,2.27-3.71.91-.43.79.33,1.13,1.48,3.21,4.94h.94s.94-.9.94-.9l1.7-3,1.7-2.51.94-.33.94.61,1.32,2.06,2.27,3.74.94.46.95-.48,1.13-1.61,2.83-4.54.94-.23.94.7,1.32,2.14,2.27,3.63.94.36.94-.58,1.13-1.69,2.64-4.28.94-.31.94.63,1.32,2.08,2.27,3.72.92.44.78-.32,1.13-1.47,3.21-4.96h.94s.94.88.94.88l1.7,3,1.7,2.53.94.34.94-.6,1.32-2.05,2.27-3.74.95-.47.94.47,1.13,1.6,2.83,4.55.94.24.94-.69,1.32-2.13,2.27-3.64.94-.37.94.57,1.13,1.68,2.64,4.29.94.32.94-.62,1.32-2.07,2.27-3.73.93-.45.96.49,1.13,1.62,2.83,4.52.94.21.94-.71,1.32-2.15,2.27-3.62.94-.35.94.59,1.13,1.7,2.64,4.27.94.3.94-.64,1.32-2.09,2.27-3.71.91-.43.79.33,1.13,1.48,3.21,4.94h.94s.94-.9.94-.9l1.7-3,1.7-2.51.94-.33.94.61,1.32,2.06,2.27,3.74.94.46.95-.48,1.13-1.61,2.83-4.53.94-.23.94.7,1.32,2.14,2.27,3.63.94.36.94-.58,1.13-1.69,2.64-4.28.94-.31.94.63,1.32,2.08,2.27,3.72.92.44.78-.32,1.13-1.47,3.21-4.96h.94s.94.88.94.88l1.7,3,1.7,2.53.94.34.94-.6,1.32-2.05,2.27-3.74.95-.47.94.47,1.13,1.6,2.83,4.55.94.24.94-.69,1.32-2.13,2.27-3.64.94-.37.94.57,1.13,1.68,2.64,4.29.94.32.94-.62,1.32-2.07,2.27-3.73.93-.45.96.49,1.13,1.62,2.83,4.52.94.21.94-.71,1.32-2.15,2.27-3.62.94-.35.94.59,1.13,1.7,2.64,4.27.94.3.94-.64,1.32-2.09,2.27-3.71.91-.43.79.33,1.13,1.48,3.21,4.94h.94s.94-.9.94-.9l1.7-3,1.7-2.51.94-.33.94.61,1.32,2.06,2.27,3.74.94.46.95-.48,1.13-1.61,2.83-4.53.94-.23.94.7,1.32,2.14,2.27,3.63.94.36.94-.58,1.13-1.69,2.64-4.28.94-.31.94.63,1.32,2.08,2.27,3.72.92.44.78-.32,1.13-1.47,3.21-4.96h.94s.94.88.94.88l1.7,3,1.7,2.53.94.34.94-.6,1.32-2.05,2.27-3.74.95-.47.94.47,1.13,1.6,2.83,4.55.94.24.94-.69,1.32-2.13,2.27-3.64.94-.37.94.57,1.13,1.68,2.64,4.29.94.32.94-.62,1.32-2.07,2.27-3.73.93-.45.96.49,1.13,1.62,2.83,4.52.94.21.94-.71,1.32-2.15,2.27-3.62.94-.35.94.59,1.13,1.7,2.64,4.27.94.3.94-.64,1.32-2.09,2.27-3.71.91-.43.79.33,1.13,1.48,3.21,4.94h.94s.94-.9.94-.9l1.7-3,1.7-2.51.94-.33.94.61,1.32,2.06,2.27,3.74.94.46.95-.48,1.13-1.61,2.83-4.53.94-.23.94.7,1.32,2.14,2.27,3.63.94.36.94-.58,1.13-1.69,2.64-4.28.94-.31.94.63,1.32,2.08,2.27,3.72.92.44.78-.32,1.13-1.47,3.21-4.96h.94s.94.88.94.88l1.7,3,1.7,2.53.94.34.94-.6,1.32-2.05,2.27-3.74.95-.47.94.47,1.13,1.6,2.83,4.55.94.24.94-.69,1.32-2.13,2.27-3.64.94-.37.94.57,1.13,1.68,2.64,4.29.94.32.94-.62,1.32-2.07,2.27-3.73.93-.45.96.49,1.13,1.62,2.83,4.52.94.21.94-.71,1.32-2.15,2.27-3.62.94-.35.94.59,1.13,1.7,2.64,4.27.94.3.94-.64,1.32-2.09,2.27-3.71.91-.43.79.33,1.13,1.48.19.33"/>
  <path class="cls-4" d="m73.08,293.7h0l2.08-3.72,1.13-1.36.76-.16.94.7,1.32,2.2,1.89,3.02.94.38.76-.43,1.13-1.65,2.46-3.96.94-.24.94.76,1.51,2.6,1.7,2.6.94.31.94-.7,1.32-2.19,1.89-3.03.94-.38.76.43,1.13,1.64,2.46,3.96.94.25.94-.76,1.32-2.23,1.89-2.97.94-.32.76.48,1.13,1.69,2.46,3.9.94.19.94-.81,1.51-2.63,1.7-2.54.94-.26.94.75,1.32,2.23,1.89,2.97.94.33.76-.47,1.13-1.69,2.46-3.91.94-.19.94.81,1.51,2.63,1.7,2.55.94.26.94-.74,1.32-2.23,1.89-2.98.94-.33.76.47,1.13,1.68,2.46,3.92.94.2.94-.8,1.51-2.63,1.7-2.55.94-.27.94.74,1.32,2.22,1.89,2.99.94.34.76-.46,1.13-1.68,2.46-3.92.94-.21.94.79,1.51,2.62,1.7,2.56.94.28.94-.73,1.32-2.22,1.89-2.99.94-.35.76.46,1.13,1.67,2.46,3.93.94.21.94-.79,1.51-2.62,1.7-2.57.94-.28.94.72,1.32,2.21,1.89,3,.94.35.76-.45,1.13-1.67,2.46-3.94.94-.22.94.78,1.51,2.61,1.7,2.57.94.29.94-.72,1.32-2.21,1.89-3.01.94-.36.76.45,1.13,1.66,2.46,3.94.94.23.94-.78,1.51-2.61,1.7-2.58.94-.3.94.71,1.32,2.2,1.89,3.01.94.37.76-.44,1.13-1.66,2.46-3.95.94-.23.94.77,1.51,2.61,1.7,2.59.94.3.94-.71,1.32-2.2,1.89-3.02.94-.37.76.44,1.13,1.65,2.46,3.95.94.24.94-.76,1.51-2.6,1.7-2.59.94-.31.94.7,1.32,2.2,1.89,3.02.94.38.76-.43,1.13-1.65,2.46-3.96.94-.25.94.76,1.51,2.6,1.7,2.6.94.32.76-.48,1.13-1.69,2.46-3.9.94-.18.94.82,1.51,2.63,1.7,2.54.94.25.94-.75,1.32-2.23,1.89-2.97.94-.32.76.47,1.13,1.69,2.46,3.91.94.19.94-.81,1.51-2.63,1.7-2.54.94-.26.94.75,1.32,2.23,1.89,2.98.94.33.76-.47,1.13-1.68,2.46-3.91.94-.2.94.8,1.51,2.63,1.7,2.55.94.27.94-.74,1.32-2.22,1.89-2.98.94-.34.76.46,1.13,1.68,2.46,3.92.94.2.94-.8,1.51-2.62,1.7-2.56.94-.27.94.73,1.32,2.22,1.89,2.99.94.34.76-.46,1.13-1.67,2.46-3.93.94-.21.94.79,1.51,2.62,1.7,2.56.94.28.94-.73,1.32-2.21,1.89-3,.94-.35.76.45,1.13,1.67,2.46,3.93.94.22.94-.78,1.51-2.62,1.7-2.57.94-.29.94.72,1.32,2.21,1.89,3,.94.36.76-.45,1.13-1.66,2.46-3.94.94-.22.94.78,1.51,2.61,1.7,2.58.94.29.94-.71,1.32-2.21,1.89-3.01.94-.36.76.44,1.13,1.66,2.46,3.95.94.23.94-.77,1.51-2.61,1.7-2.59.94-.3.94.71,1.32,2.2,1.89,3.02.94.37.76-.44,1.13-1.65,2.46-3.95.94-.24.94.77,1.51,2.6,1.7,2.59.94.31.94-.7,1.32-2.2,1.89-3.02.94-.38.76.43,1.13,1.65,2.46,3.96.94.24.94-.76,1.51-2.6,1.7-2.6.94-.31.76.48,1.13,1.69,2.46,3.9.94.18.94-.82,1.51-2.64,1.7-2.53.94-.25.94.75,1.32,2.23,1.89,2.97.94.32.76-.48,1.13-1.69,2.46-3.9.94-.19.94.81,1.51,2.63,1.7,2.54.94.26.94-.75,1.32-2.23,1.89-2.98.94-.33.76.47,1.13,1.68,2.46,3.91.94.19.94-.81,1.51-2.63,1.7-2.55.94-.26.94.74,1.32,2.22,1.89,2.98.94.33.76-.47,1.13-1.68,2.46-3.92.94-.2.94.8,1.51,2.62,1.7,2.56.94.27.94-.73,1.32-2.22,1.89-2.99.94-.34.76.46,1.13,1.67,2.46,3.92.94.21.94-.79,1.51-2.62,1.7-2.56.94-.28.94.73,1.32,2.22,1.89,2.99.94.35.76-.46,1.13-1.67,2.46-3.93.94-.21.94.79,1.51,2.62,1.7,2.57.94.29.94-.72,1.32-2.21,1.89-3,.94-.35.76.45,1.13,1.66,2.46,3.94.94.22.94-.78,1.51-2.61,1.7-2.58.94-.29.94.72,1.32,2.21,1.89,3.01.94.36.76-.45,1.13-1.66,2.46-3.94.94-.23.94.77,1.51,2.61,1.7,2.58.94.3.94-.71,1.32-2.2,1.89-3.01.94-.37.76.44,1.13,1.65,2.46,3.95.94.24.94-.77,1.51-2.61,1.7-2.59.94-.31.94.7,1.32,2.2,1.89,3.02.94.37.76-.43,1.13-1.65,2.46-3.96.94-.24.94.76,1.51,2.6,1.7,2.6.94.31.94-.7,1.32-2.19,1.89-3.03.94-.38.76.43,1.13,1.64,2.46,3.96.94.25.94-.76,1.32-2.23,1.89-2.97.94-.32.76.48,1.13,1.69,2.46,3.9.94.19.94-.81,1.51-2.63,1.7-2.54.94-.26.94.75,1.32,2.23,1.89,2.97.94.33.76-.47,1.13-1.69,2.46-3.91.94-.19.94.81,1.51,2.63,1.7,2.55.94.26.94-.74,1.32-2.23,1.89-2.98.94-.33.76.47,1.13,1.68,2.46,3.91.94.2.94-.8,1.51-2.63,1.7-2.55.94-.27.94.74,1.32,2.22,1.89,2.99.94.34.76-.46,1.13-1.68,2.46-3.92.94-.21.94.8,1.51,2.62,1.7,2.56.94.28.94-.73,1.32-2.22,1.89-2.99.94-.35.76.46,1.13,1.67,2.46,3.93.94.21.94-.79,1.51-2.62,1.7-2.57.94-.28.94.72,1.32,2.21,1.89,3,.94.35.76-.45,1.13-1.67,2.46-3.94.94-.22.94.78,1.51,2.61,1.7,2.57.94.29.94-.72,1.32-2.21,1.89-3.01.94-.36.76.45,1.13,1.66,2.46,3.94.94.23.94-.78,1.51-2.61,1.7-2.58.94-.3.94.71,1.32,2.2,1.89,3.01.94.37.76-.44,1.13-1.66,2.46-3.95.94-.23.94.77,1.51,2.61,1.7,2.59.94.3.94-.71,1.32-2.2,1.89-3.02.94-.37.76.44,1.13,1.65,2.46,3.95.94.24.94-.76,1.51-2.6,1.7-2.59.94-.31.94.7,1.32,2.2,1.89,3.02.94.38.76-.43,1.13-1.65,2.46-3.96.94-.25.94.76,1.51,2.6,1.7,2.6.94.32.76-.48,1.13-1.69,2.46-3.9.94-.18.94.82,1.51,2.64,1.7,2.54.94.25.94-.75,1.32-2.23,1.89-2.97.94-.32.76.47,1.13,1.69,2.46,3.91.94.19.94-.81,1.51-2.63,1.7-2.54.94-.26.94.75,1.32,2.23,1.89,2.98.94.33.76-.47,1.13-1.68,2.46-3.91.94-.2.94.8,1.51,2.63,1.7,2.55.94.27.94-.74,1.32-2.22,1.89-2.98.94-.34.76.46,1.13,1.68,2.46,3.92.94.2.94-.8,1.51-2.62,1.7-2.56.94-.27.94.73,1.32,2.22,1.89,2.99.94.34.76-.46,1.13-1.67,2.46-3.93.94-.21.94.79,1.51,2.62,1.7,2.56.94.28.94-.73,1.32-2.21,1.89-3,.94-.35.76.45,1.13,1.67,2.46,3.93.94.22.94-.78,1.51-2.62,1.7-2.57.94-.29.94.72,1.32,2.21,1.89,3,.94.36.76-.45,1.13-1.66,2.46-3.94.94-.22.94.78,1.51,2.61,1.7,2.58.94.29.94-.71,1.32-2.21,1.89-3.01.94-.36.76.44,1.13,1.66,2.46,3.95.94.23.94-.77,1.51-2.61,1.7-2.58.94-.3.94.71,1.32,2.2,1.89,3.02.94.37.19-.05"/>
  <line class="cls-2" x1="72.14" y1="507.6" x2="90.14" y2="507.6"/>
  <line class="cls-2" x1="72.14" y1="75.6" x2="90.14" y2="75.6"/>
  <line class="cls-2" x1="72.14" y1="129.6" x2="90.14" y2="129.6"/>
  <line class="cls-2" x1="72.14" y1="334.8" x2="90.14" y2="334.8"/>
  <line class="cls-2" x1="72.14" y1="453.6" x2="90.14" y2="453.6"/>
  <line class="cls-2" x1="72.14" y1="237.6" x2="90.14" y2="237.6"/>
  <text class="cls-8" transform="translate(463.72 565.2)"><tspan x="0" y="0">Time</tspan></text>
  <g>
    <line class="cls-2" x1="1080" y1="524.32" x2="1701.42" y2="524.32"/>
    <polygon class="cls-6" points="1695.48 533.04 1728 524.33 1695.48 515.61 1695.48 533.04"/>
  </g>
  <g>
    <line class="cls-2" x1="1080" y1="43.3" x2="1080" y2="524.32"/>
    <polygon class="cls-6" points="1071.29 49.24 1080 16.72 1088.72 49.24 1071.29 49.24"/>
  </g>
  <text class="cls-7" transform="translate(1012.75 97.93)"><tspan x="0" y="0">50%</tspan></text>
  <line class="cls-2" x1="1080" y1="89.16" x2="1108.88" y2="89.16"/>
  <line class="cls-2" x1="1080" y1="306.74" x2="1108.88" y2="306.74"/>
  <text class="cls-7" transform="translate(1029.6 533.09)"><tspan x="0" y="0">0%</tspan></text>
  <text class="cls-8" transform="translate(1321.26 565.2)"><tspan class="cls-9" x="0" y="0">F</tspan><tspan class="cls-1" x="19.44" y="0">r</tspan><tspan x="31.29" y="0">equency</tspan></text>
  <line class="cls-5" x1="1152" y1="205" x2="1152" y2="520.72"/>
  <line class="cls-5" x1="1194" y1="415.57" x2="1194" y2="520.72"/>
  <line class="cls-5" x1="1236" y1="457.62" x2="1236" y2="520.72"/>
  <line class="cls-5" x1="1278" y1="475.66" x2="1278" y2="520.72"/>
  <line class="cls-5" x1="1320" y1="485.65" x2="1320" y2="520.72"/>
  <line class="cls-5" x1="1362" y1="492.02" x2="1362" y2="520.72"/>
  <line class="cls-5" x1="1404" y1="496.47" x2="1404" y2="520.72"/>
  <line class="cls-5" x1="1446" y1="499.72" x2="1446" y2="520.72"/>
  <line class="cls-5" x1="1488" y1="502.2" x2="1488" y2="520.72"/>
  <line class="cls-5" x1="1530" y1="504.1" x2="1530" y2="520.72"/>
  <line class="cls-5" x1="1572" y1="505.71" x2="1572" y2="520.72"/>
  <line class="cls-5" x1="1614" y1="506.99" x2="1614" y2="520.72"/>
  <line class="cls-5" x1="1656" y1="508.13" x2="1656" y2="520.72"/>
  <text class="cls-7" transform="translate(1012.75 315.51)"><tspan x="0" y="0">25%</tspan></text>
</svg>