<?xml version="1.0" encoding="utf-8"?>
<!-- Generator: Adobe Illustrator 27.4.1, SVG Export Plug-In . SVG Version: 6.00 Build 0)  -->
<svg version="1.1" id="Ebene_1" xmlns="http://www.w3.org/2000/svg" xmlns:xlink="http://www.w3.org/1999/xlink" x="0px" y="0px"
	 viewBox="0 0 531 464.4" style="enable-background:new 0 0 531 464.4;" xml:space="preserve">
<style type="text/css">
	.st0{fill:none;stroke:#1DA37D;stroke-width:2.83;stroke-linejoin:round;stroke-dasharray:0,0,14.36,7.18;}
	.st1{fill:none;}
	.st2{fill:none;stroke:#C9D1D9;stroke-width:2;stroke-miterlimit:10;}
	.st3{enable-background:new    ;}
	.st4{fill:#C6CED6;}
</style>
<g id="Fenster">
	<path class="st0" d="M117,378l4-0.4l4-1.1l4-1.8l4-2.5l4-3.2l4-3.9l4-4.6l4-5.2l4-5.8l4-6.5l4-7l4-7.6l4-8.1l4-8.6l4-9l4-9.5l4-9.8
		l4-10.2l4-10.5l4-10.7l4-11l4-11.1l4-11.2l4-11.3l4-11.4l4-11.4l4-11.3l4-11.2l4-11.1l4-10.9l4-10.6l4-10.3l4-10l4-9.7l4-9.3l4-8.8
		l4-8.3l4-7.8l4-7.3l4-6.7l4-6.2l4-5.5l4-4.9l4-4.2l4-3.5l4-2.9l4-2.1l4-1.4l4-0.7h4l4,0.7l4,1.4l4,2.1l4,2.9l4,3.5l4,4.2l4,4.9
		l4,5.5l4,6.2l4,6.7l4,7.3l4,7.8l4,8.3l4,8.8l4,9.3l4,9.7l4,10l4,10.3l4,10.6l4,10.9l4,11.1l4,11.2l4,11.3l4,11.4l4,11.4l4,11.3
		l4,11.2l4,11.1l4,11l4,10.7l4,10.5l4,10.2l4,9.8l4,9.5l4,9l4,8.6l4,8.1l4,7.6l4,7l4,6.5l4,5.8l4,5.2l4,4.6l4,3.9l4,3.2l4,2.5l4,1.8
		l4,1.1l4,0.4"/>
	<path class="st1" d="M315,18v360"/>
	<path class="st1" d="M216,18v360"/>
	<path class="st1" d="M513,306H117"/>
	<rect x="117" y="18" class="st2" width="396" height="360"/>
	<path class="st1" d="M513,234H117"/>
	<path class="st1" d="M513,162H117"/>
	<path class="st1" d="M513,90H117"/>
	<path class="st1" d="M414,18v360"/>
</g>
<g id="Ebene_4">
	<g class="st3">
		<path class="st4" d="M93.1,377.7c0,2.5-0.4,4.4-1.3,5.7s-2.2,1.9-4.1,1.9c-1.8,0-3.2-0.6-4-1.8s-1.3-3-1.4-5.4v-2.9
			c0-2.5,0.4-4.4,1.3-5.6s2.2-1.8,4.1-1.8c1.8,0,3.2,0.6,4.1,1.8s1.3,3,1.3,5.4V377.7z M90.9,374.8c0-1.8-0.3-3.2-0.8-4
			s-1.3-1.3-2.4-1.3c-1.1,0-1.9,0.4-2.4,1.3s-0.8,2.1-0.8,3.9v3.5c0,1.8,0.3,3.2,0.8,4.1s1.3,1.3,2.4,1.3c1.1,0,1.9-0.4,2.4-1.2
			s0.8-2.1,0.8-3.9V374.8z"/>
	</g>
	<g class="st3">
		<path class="st4" d="M69.8,25h-2.2V10.6l-4.4,1.6v-2l6.2-2.3h0.3V25z"/>
		<path class="st4" d="M76.4,23.9c0-0.4,0.1-0.7,0.3-0.9s0.6-0.4,1-0.4s0.8,0.1,1,0.4s0.3,0.6,0.3,0.9c0,0.4-0.1,0.7-0.3,0.9
			s-0.6,0.4-1,0.4s-0.8-0.1-1-0.4S76.4,24.2,76.4,23.9z"/>
		<path class="st4" d="M93.1,17.7c0,2.5-0.4,4.4-1.3,5.7s-2.2,1.9-4.1,1.9c-1.8,0-3.2-0.6-4-1.8s-1.3-3-1.4-5.4v-2.9
			c0-2.5,0.4-4.4,1.3-5.6s2.2-1.8,4.1-1.8c1.8,0,3.2,0.6,4.1,1.8s1.3,3,1.3,5.4V17.7z M91,14.8c0-1.8-0.3-3.2-0.8-4
			s-1.3-1.3-2.4-1.3c-1.1,0-1.9,0.4-2.4,1.3s-0.8,2.1-0.8,3.9v3.5c0,1.8,0.3,3.2,0.8,4.1s1.3,1.3,2.4,1.3c1.1,0,1.9-0.4,2.4-1.2
			s0.8-2.1,0.8-3.9V14.8z"/>
	</g>
	<g class="st3">
		<path class="st4" d="M73.3,233.7c0,2.5-0.4,4.4-1.3,5.7s-2.2,1.9-4.1,1.9c-1.8,0-3.2-0.6-4-1.8s-1.3-3-1.4-5.4v-2.9
			c0-2.5,0.4-4.4,1.3-5.6s2.2-1.8,4.1-1.8c1.8,0,3.2,0.6,4.1,1.8s1.3,3,1.3,5.4V233.7z M71.2,230.8c0-1.8-0.3-3.2-0.8-4
			s-1.3-1.3-2.4-1.3c-1.1,0-1.9,0.4-2.4,1.3s-0.8,2.1-0.8,3.9v3.5c0,1.8,0.3,3.2,0.8,4.1s1.3,1.3,2.4,1.3c1.1,0,1.9-0.4,2.4-1.2
			s0.8-2.1,0.8-3.9V230.8z"/>
		<path class="st4" d="M76.4,239.9c0-0.4,0.1-0.7,0.3-0.9s0.6-0.4,1-0.4s0.8,0.1,1,0.4s0.3,0.6,0.3,0.9c0,0.4-0.1,0.7-0.3,0.9
			s-0.6,0.4-1,0.4s-0.8-0.1-1-0.4S76.4,240.2,76.4,239.9z"/>
		<path class="st4" d="M91.6,235.3h2.4v1.8h-2.4v4h-2.2v-4h-7.8v-1.3l7.6-11.8h2.3V235.3z M84.1,235.3h5.3v-8.4l-0.3,0.5L84.1,235.3
			z"/>
	</g>
	<g class="st3">
		<path class="st4" d="M73.3,305.7c0,2.5-0.4,4.4-1.3,5.7s-2.2,1.9-4.1,1.9c-1.8,0-3.2-0.6-4-1.8s-1.3-3-1.4-5.4v-2.9
			c0-2.5,0.4-4.4,1.3-5.6s2.2-1.8,4.1-1.8c1.8,0,3.2,0.6,4.1,1.8s1.3,3,1.3,5.4V305.7z M71.2,302.8c0-1.8-0.3-3.2-0.8-4
			s-1.3-1.3-2.4-1.3c-1.1,0-1.9,0.4-2.4,1.3s-0.8,2.1-0.8,3.9v3.5c0,1.8,0.3,3.2,0.8,4.1s1.3,1.3,2.4,1.3c1.1,0,1.9-0.4,2.4-1.2
			s0.8-2.1,0.8-3.9V302.8z"/>
		<path class="st4" d="M76.4,311.9c0-0.4,0.1-0.7,0.3-0.9s0.6-0.4,1-0.4s0.8,0.1,1,0.4s0.3,0.6,0.3,0.9c0,0.4-0.1,0.7-0.3,0.9
			s-0.6,0.4-1,0.4s-0.8-0.1-1-0.4S76.4,312.2,76.4,311.9z"/>
		<path class="st4" d="M93.6,313H82.4v-1.6l5.9-6.6c0.9-1,1.5-1.8,1.8-2.4s0.5-1.3,0.5-1.9c0-0.9-0.3-1.6-0.8-2.2s-1.3-0.9-2.2-0.9
			c-1.1,0-1.9,0.3-2.5,0.9s-0.9,1.5-0.9,2.6h-2.2c0-1.6,0.5-2.8,1.5-3.8s2.4-1.5,4.1-1.5c1.6,0,2.8,0.4,3.8,1.2s1.4,1.9,1.4,3.3
			c0,1.7-1.1,3.7-3.2,6l-4.6,5h8.6V313z"/>
	</g>
	<g class="st3">
		<path class="st4" d="M73.3,161.7c0,2.5-0.4,4.4-1.3,5.7s-2.2,1.9-4.1,1.9c-1.8,0-3.2-0.6-4-1.8s-1.3-3-1.4-5.4v-2.9
			c0-2.5,0.4-4.4,1.3-5.6s2.2-1.8,4.1-1.8c1.8,0,3.2,0.6,4.1,1.8s1.3,3,1.3,5.4V161.7z M71.2,158.8c0-1.8-0.3-3.2-0.8-4
			s-1.3-1.3-2.4-1.3c-1.1,0-1.9,0.4-2.4,1.3s-0.8,2.1-0.8,3.9v3.5c0,1.8,0.3,3.2,0.8,4.1s1.3,1.3,2.4,1.3c1.1,0,1.9-0.4,2.4-1.2
			s0.8-2.1,0.8-3.9V158.8z"/>
		<path class="st4" d="M76.4,167.9c0-0.4,0.1-0.7,0.3-0.9s0.6-0.4,1-0.4s0.8,0.1,1,0.4s0.3,0.6,0.3,0.9c0,0.4-0.1,0.7-0.3,0.9
			s-0.6,0.4-1,0.4s-0.8-0.1-1-0.4S76.4,168.2,76.4,167.9z"/>
		<path class="st4" d="M90.9,151.9v1.8h-0.4c-1.7,0-3,0.5-4,1.5s-1.6,2.3-1.7,4.1c0.9-1,2.1-1.5,3.7-1.5c1.5,0,2.7,0.5,3.6,1.6
			s1.3,2.4,1.3,4.1c0,1.8-0.5,3.2-1.4,4.2s-2.2,1.6-3.8,1.6c-1.6,0-3-0.6-4-1.9s-1.5-2.9-1.5-4.8v-0.8c0-3.1,0.7-5.5,2-7.2
			s3.3-2.5,6-2.5H90.9z M88.1,159.6c-0.7,0-1.4,0.2-2.1,0.7s-1.1,1-1.3,1.7v0.8c0,1.4,0.3,2.5,0.9,3.4s1.4,1.3,2.4,1.3
			c1,0,1.7-0.4,2.3-1.1s0.8-1.7,0.8-2.8c0-1.2-0.3-2.1-0.8-2.8S89,159.6,88.1,159.6z"/>
	</g>
	<g class="st3">
		<path class="st4" d="M73.3,89.7c0,2.5-0.4,4.4-1.3,5.7s-2.2,1.9-4.1,1.9c-1.8,0-3.2-0.6-4-1.8s-1.3-3-1.4-5.4v-2.9
			c0-2.5,0.4-4.4,1.3-5.6s2.2-1.8,4.1-1.8c1.8,0,3.2,0.6,4.1,1.8s1.3,3,1.3,5.4V89.7z M71.2,86.8c0-1.8-0.3-3.2-0.8-4
			s-1.3-1.3-2.4-1.3c-1.1,0-1.9,0.4-2.4,1.3s-0.8,2.1-0.8,3.9v3.5c0,1.8,0.3,3.2,0.8,4.1s1.3,1.3,2.4,1.3c1.1,0,1.9-0.4,2.4-1.2
			s0.8-2.1,0.8-3.9V86.8z"/>
		<path class="st4" d="M76.4,95.9c0-0.4,0.1-0.7,0.3-0.9s0.6-0.4,1-0.4s0.8,0.1,1,0.4s0.3,0.6,0.3,0.9c0,0.4-0.1,0.7-0.3,0.9
			s-0.6,0.4-1,0.4s-0.8-0.1-1-0.4S76.4,96.2,76.4,95.9z"/>
		<path class="st4" d="M92.8,84.4c0,0.9-0.2,1.6-0.7,2.3s-1.1,1.2-1.8,1.6c0.9,0.4,1.6,0.9,2.1,1.7s0.8,1.6,0.8,2.5
			c0,1.5-0.5,2.7-1.5,3.5s-2.3,1.3-3.9,1.3c-1.6,0-3-0.4-3.9-1.3s-1.5-2.1-1.5-3.5c0-0.9,0.3-1.8,0.8-2.5s1.2-1.3,2.1-1.7
			c-0.8-0.4-1.4-0.9-1.8-1.6s-0.7-1.4-0.7-2.3c0-1.4,0.5-2.6,1.4-3.4s2.1-1.3,3.6-1.3c1.5,0,2.7,0.4,3.6,1.3S92.8,83,92.8,84.4z
			 M91,92.4c0-1-0.3-1.7-0.9-2.3s-1.4-0.9-2.4-0.9S86,89.4,85.4,90s-0.9,1.4-0.9,2.3s0.3,1.7,0.9,2.3s1.4,0.8,2.4,0.8
			c1,0,1.8-0.3,2.4-0.8S91,93.3,91,92.4z M87.7,81.5c-0.9,0-1.5,0.3-2.1,0.8s-0.8,1.2-0.8,2.2c0,0.9,0.3,1.6,0.8,2.1
			s1.2,0.8,2.1,0.8s1.6-0.3,2.1-0.8s0.8-1.2,0.8-2.1s-0.3-1.6-0.8-2.1S88.6,81.5,87.7,81.5z"/>
	</g>
	<g class="st3">
		<path class="st4" d="M122.4,401.3c0,2.5-0.4,4.4-1.3,5.7s-2.2,1.9-4.1,1.9c-1.8,0-3.2-0.6-4-1.8s-1.3-3-1.4-5.4v-2.9
			c0-2.5,0.4-4.4,1.3-5.6s2.2-1.8,4.1-1.8c1.8,0,3.2,0.6,4.1,1.8s1.3,3,1.3,5.4V401.3z M120.2,398.4c0-1.8-0.3-3.2-0.8-4
			s-1.3-1.3-2.4-1.3c-1.1,0-1.9,0.4-2.4,1.3s-0.8,2.1-0.8,3.9v3.5c0,1.8,0.3,3.2,0.8,4.1s1.3,1.3,2.4,1.3c1.1,0,1.9-0.4,2.4-1.2
			s0.8-2.1,0.8-3.9V398.4z"/>
	</g>
	<g class="st3">
		<path class="st4" d="M519.5,408.6h-2.3l-8.6-13.1v13.1h-2.3v-17.1h2.3l8.6,13.2v-13.2h2.2V408.6z"/>
	</g>
	<g class="st3">
		<path class="st4" d="M32.4,241.8c-0.2,0.1-0.7,0.2-1.3,0.3c1,1,1.6,2.2,1.6,3.6c0,1.2-0.4,2.3-1.1,3.1S30,250,28.9,250
			c-1.3,0-2.3-0.5-3.1-1.5s-1.1-2.4-1.1-4.2v-2.1h-1c-0.8,0-1.4,0.2-1.8,0.7s-0.7,1.1-0.7,2c0,0.8,0.2,1.4,0.6,1.9s0.9,0.8,1.4,0.8
			v2.2c-0.6,0-1.2-0.2-1.8-0.7s-1.1-1.1-1.4-1.8s-0.5-1.6-0.5-2.5c0-1.5,0.4-2.6,1.1-3.4s1.7-1.3,3-1.3h5.8c1.2,0,2.1-0.1,2.8-0.4
			h0.2V241.8z M30.7,245.4c0-0.7-0.2-1.3-0.5-1.9s-0.8-1.1-1.4-1.3h-2.6v1.7c0,2.7,0.8,4,2.3,4c0.7,0,1.2-0.2,1.6-0.7
			S30.7,246.1,30.7,245.4z"/>
		<path class="st4" d="M19.7,234.5l1.4-0.1c-1.1-0.9-1.6-2.2-1.6-3.8c0-1.8,0.7-3,2-3.6c-0.6-0.4-1.1-1-1.5-1.6s-0.6-1.5-0.6-2.4
			c0-2.8,1.5-4.2,4.4-4.2h8.5v2.2H24c-0.9,0-1.6,0.2-2,0.6s-0.7,1.1-0.7,2.1c0,0.8,0.2,1.5,0.7,2s1.1,0.8,1.9,0.9h8.4v2.2h-8.3
			c-1.8,0-2.8,0.9-2.8,2.7c0,1.4,0.6,2.4,1.8,2.9h9.3v2.2H19.7V234.5z"/>
		<path class="st4" d="M26.2,204.8c1.9,0,3.5,0.4,4.7,1.3s1.8,2.1,1.8,3.6c0,1.5-0.5,2.8-1.5,3.6h6.1v2.2H19.7v-2l1.4-0.1
			c-1.1-0.9-1.6-2.1-1.6-3.7c0-1.5,0.6-2.7,1.7-3.6s2.7-1.3,4.8-1.3H26.2z M26,207c-1.4,0-2.6,0.3-3.4,0.9s-1.2,1.4-1.2,2.5
			c0,1.3,0.6,2.3,1.7,3h6.1c1.2-0.6,1.7-1.6,1.7-3c0-1-0.4-1.9-1.2-2.5S27.6,207,26,207z"/>
		<path class="st4" d="M32.4,199.7v2.2h-18v-2.2H32.4z"/>
		<path class="st4" d="M16.4,196.2c-0.4,0-0.6-0.1-0.9-0.3s-0.4-0.5-0.4-1s0.1-0.7,0.4-1s0.5-0.3,0.9-0.3s0.6,0.1,0.9,0.3
			s0.4,0.5,0.4,1s-0.1,0.7-0.4,1S16.7,196.2,16.4,196.2z M32.4,193.9v2.2H19.7v-2.2H32.4z"/>
		<path class="st4" d="M16.6,187.5h3.1v-2.4h1.7v2.4h7.9c0.5,0,0.9-0.1,1.1-0.3c0.3-0.2,0.4-0.6,0.4-1.1c0-0.2,0-0.6-0.1-1h1.7
			c0.2,0.6,0.2,1.1,0.2,1.7c0,1-0.3,1.7-0.9,2.2s-1.4,0.7-2.5,0.7h-7.9v2.3h-1.7v-2.3h-3.1V187.5z"/>
		<path class="st4" d="M31.1,174.7c1,0.8,1.5,2.1,1.5,3.7c0,1.4-0.4,2.4-1.2,3.1s-1.9,1.1-3.5,1.1h-8.2v-2.2h8.2
			c1.9,0,2.9-0.8,2.9-2.3c0-1.7-0.6-2.8-1.9-3.3h-9.2v-2.2h12.7v2.1L31.1,174.7z"/>
		<path class="st4" d="M26,169.9c-1.9,0-3.5-0.5-4.7-1.4s-1.8-2.1-1.8-3.6c0-1.5,0.5-2.7,1.5-3.5h-6.6v-2.2h18v2l-1.4,0.1
			c1.1,0.9,1.6,2.1,1.6,3.6c0,1.5-0.6,2.7-1.8,3.6s-2.8,1.4-4.7,1.4H26z M26.2,167.7c1.4,0,2.6-0.3,3.4-0.9s1.2-1.4,1.2-2.5
			c0-1.4-0.6-2.4-1.9-3h-5.8c-1.2,0.6-1.8,1.6-1.8,3c0,1.1,0.4,1.9,1.2,2.5S24.6,167.7,26.2,167.7z"/>
		<path class="st4" d="M32.6,150.5c0,1.7-0.6,3.1-1.7,4.2s-2.6,1.6-4.5,1.6H26c-1.3,0-2.4-0.2-3.4-0.7s-1.8-1.2-2.3-2
			s-0.8-1.8-0.8-2.8c0-1.6,0.5-2.9,1.6-3.8s2.6-1.4,4.7-1.4h0.9v8.6c1.2,0,2.3-0.4,3-1.1s1.2-1.6,1.2-2.7c0-0.8-0.2-1.4-0.5-1.9
			s-0.7-1-1.2-1.4l1-1.3C31.8,146.8,32.6,148.4,32.6,150.5z M21.3,150.8c0,0.9,0.3,1.6,1,2.2s1.5,1,2.7,1.1v-6.4h-0.2
			c-1.1,0.1-2,0.4-2.6,0.9S21.3,149.9,21.3,150.8z"/>
	</g>
	<g class="st3">
		<path class="st4" d="M278.6,428.6c0-0.6-0.2-1-0.7-1.4s-1.2-0.6-2.3-0.8s-2-0.5-2.6-0.8s-1.1-0.7-1.4-1.2s-0.5-1-0.5-1.6
			c0-1,0.4-1.9,1.3-2.6s2-1.1,3.4-1.1c1.4,0,2.6,0.4,3.5,1.1s1.3,1.7,1.3,2.8h-2.2c0-0.6-0.3-1.1-0.8-1.5s-1.1-0.6-1.9-0.6
			c-0.8,0-1.4,0.2-1.9,0.5s-0.7,0.8-0.7,1.3c0,0.5,0.2,0.9,0.6,1.2s1.2,0.5,2.2,0.8s2,0.5,2.6,0.9s1.2,0.7,1.5,1.2s0.5,1,0.5,1.7
			c0,1.1-0.5,2-1.4,2.7s-2.1,1-3.5,1c-1,0-1.9-0.2-2.7-0.5s-1.4-0.9-1.8-1.5s-0.7-1.3-0.7-2.1h2.2c0,0.7,0.3,1.3,0.9,1.7
			s1.3,0.6,2.2,0.6c0.8,0,1.5-0.2,2-0.5S278.6,429.2,278.6,428.6z"/>
		<path class="st4" d="M291.4,432c-0.1-0.2-0.2-0.7-0.3-1.3c-1,1-2.2,1.6-3.6,1.6c-1.2,0-2.3-0.4-3.1-1.1s-1.2-1.6-1.2-2.7
			c0-1.3,0.5-2.3,1.5-3.1s2.4-1.1,4.2-1.1h2.1v-1c0-0.8-0.2-1.4-0.7-1.8s-1.1-0.7-2-0.7c-0.8,0-1.4,0.2-1.9,0.6s-0.8,0.9-0.8,1.4
			h-2.2c0-0.6,0.2-1.2,0.7-1.8s1.1-1.1,1.8-1.4s1.6-0.5,2.5-0.5c1.5,0,2.6,0.4,3.4,1.1s1.3,1.7,1.3,3v5.8c0,1.2,0.1,2.1,0.4,2.8v0.2
			H291.4z M287.8,430.3c0.7,0,1.3-0.2,1.9-0.5s1.1-0.8,1.3-1.4v-2.6h-1.7c-2.7,0-4,0.8-4,2.3c0,0.7,0.2,1.2,0.7,1.6
			S287.1,430.3,287.8,430.3z"/>
		<path class="st4" d="M298.7,419.3l0.1,1.4c0.9-1.1,2.2-1.6,3.8-1.6c1.8,0,3,0.7,3.6,2c0.4-0.6,1-1.1,1.6-1.5s1.5-0.6,2.4-0.6
			c2.8,0,4.2,1.5,4.2,4.4v8.5h-2.2v-8.4c0-0.9-0.2-1.6-0.6-2s-1.1-0.7-2.1-0.7c-0.8,0-1.5,0.2-2,0.7s-0.8,1.1-0.9,1.9v8.4h-2.2v-8.3
			c0-1.8-0.9-2.8-2.7-2.8c-1.4,0-2.4,0.6-2.9,1.8v9.3h-2.2v-12.7H298.7z"/>
		<path class="st4" d="M328.4,425.8c0,1.9-0.4,3.5-1.3,4.7s-2.1,1.8-3.6,1.8c-1.5,0-2.8-0.5-3.6-1.5v6.1h-2.2v-17.6h2l0.1,1.4
			c0.9-1.1,2.1-1.6,3.7-1.6c1.5,0,2.7,0.6,3.6,1.7s1.3,2.7,1.3,4.8V425.8z M326.2,425.6c0-1.4-0.3-2.6-0.9-3.4s-1.4-1.2-2.5-1.2
			c-1.3,0-2.3,0.6-3,1.7v6.1c0.6,1.2,1.6,1.7,3,1.7c1,0,1.9-0.4,2.5-1.2S326.2,427.2,326.2,425.6z"/>
		<path class="st4" d="M333.5,432h-2.2v-18h2.2V432z"/>
		<path class="st4" d="M342.2,432.2c-1.7,0-3.1-0.6-4.2-1.7s-1.6-2.6-1.6-4.5v-0.4c0-1.3,0.2-2.4,0.7-3.4s1.2-1.8,2-2.3
			s1.8-0.8,2.8-0.8c1.6,0,2.9,0.5,3.8,1.6s1.4,2.6,1.4,4.7v0.9h-8.6c0,1.2,0.4,2.3,1.1,3s1.6,1.2,2.7,1.2c0.8,0,1.4-0.2,1.9-0.5
			s1-0.7,1.4-1.2l1.3,1C346,431.4,344.4,432.2,342.2,432.2z M342,420.9c-0.9,0-1.6,0.3-2.2,1s-1,1.5-1.1,2.7h6.4v-0.2
			c-0.1-1.1-0.4-2-0.9-2.6S342.9,420.9,342,420.9z"/>
		<path class="st4" d="M357.1,428.6c0-0.6-0.2-1-0.7-1.4s-1.2-0.6-2.3-0.8s-2-0.5-2.6-0.8s-1.1-0.7-1.4-1.2s-0.5-1-0.5-1.6
			c0-1,0.4-1.9,1.3-2.6s2-1.1,3.4-1.1c1.4,0,2.6,0.4,3.5,1.1s1.3,1.7,1.3,2.8h-2.2c0-0.6-0.3-1.1-0.8-1.5s-1.1-0.6-1.9-0.6
			c-0.8,0-1.4,0.2-1.9,0.5s-0.7,0.8-0.7,1.3c0,0.5,0.2,0.9,0.6,1.2s1.2,0.5,2.2,0.8s2,0.5,2.6,0.9s1.2,0.7,1.5,1.2s0.5,1,0.5,1.7
			c0,1.1-0.5,2-1.4,2.7s-2.1,1-3.5,1c-1,0-1.9-0.2-2.7-0.5s-1.4-0.9-1.8-1.5s-0.7-1.3-0.7-2.1h2.2c0,0.7,0.3,1.3,0.9,1.7
			s1.3,0.6,2.2,0.6c0.8,0,1.5-0.2,2-0.5S357.1,429.2,357.1,428.6z"/>
	</g>
</g>
</svg>
