<?xml version="1.0" encoding="UTF-8"?>
<svg xmlns="http://www.w3.org/2000/svg" viewBox="0 0 531 464.4">
  <defs>
    <style>
      .cls-1 {
        stroke-width: 1.57px;
      }

      .cls-1, .cls-2, .cls-3, .cls-4 {
        fill: none;
      }

      .cls-1, .cls-4 {
        stroke: rgba(201, 209, 217, .2);
        stroke-miterlimit: 20;
      }

      .cls-2 {
        stroke: #c9d1d9;
        stroke-miterlimit: 10;
        stroke-width: 2px;
      }

      .cls-3 {
        stroke: #1da37d;
        stroke-dasharray: 0 0 14.36 7.18;
        stroke-linejoin: round;
        stroke-width: 2.83px;
      }

      .cls-5 {
        fill: #c6ced6;
        font-family: Roboto-Regular, Roboto;
        font-size: 24px;
      }

      .cls-4 {
        stroke-width: 1.4px;
      }
    </style>
  </defs>
  <g id="Fenster">
    <path class="cls-3" d="m117,378l4-.36,4-1.08,4-1.8,4-2.5,4-3.2,4-3.89,4-4.56,4-5.21,4-5.84,4-6.45,4-7.03,4-7.58,4-8.1,4-8.59,4-9.05,4-9.46,4-9.84,4-10.19,4-10.49,4-10.74,4-10.96,4-11.13,4-11.25,4-11.33,4-11.37,4-11.36,4-11.3,4-11.19,4-11.05,4-10.85,4-10.62,4-10.34,4-10.02,4-9.66,4-9.26,4-8.82,4-8.35,4-7.84,4-7.31,4-6.74,4-6.15,4-5.53,4-4.89,4-4.22,4-3.55,4-2.86,4-2.15,4-1.44,4-.72h4l4,.72,4,1.44,4,2.15,4,2.86,4,3.55,4,4.22,4,4.89,4,5.53,4,6.15,4,6.74,4,7.31,4,7.84,4,8.35,4,8.82,4,9.26,4,9.66,4,10.02,4,10.34,4,10.62,4,10.85,4,11.05,4,11.19,4,11.3,4,11.36,4,11.37,4,11.33,4,11.25,4,11.13,4,10.96,4,10.74,4,10.49,4,10.19,4,9.84,4,9.46,4,9.05,4,8.59,4,8.1,4,7.58,4,7.03,4,6.45,4,5.84,4,5.21,4,4.56,4,3.89,4,3.2,4,2.5,4,1.8,4,1.08,4,.36"/>
    <path class="cls-1" d="m315,18v360"/>
    <path class="cls-1" d="m216,18v360"/>
    <path class="cls-4" d="m513,306H117"/>
    <rect class="cls-2" x="117" y="18" width="396" height="360"/>
    <path class="cls-4" d="m513,234H117"/>
    <path class="cls-4" d="m513,162H117"/>
    <path class="cls-4" d="m513,90H117"/>
    <path class="cls-1" d="m414,18v360"/>
  </g>
  <g id="Ebene_4" data-name="Ebene 4">
    <text class="cls-5" transform="translate(81 385.01)"><tspan x="0" y="0">0</tspan></text>
    <text class="cls-5" transform="translate(61.21 25.01)"><tspan x="0" y="0">1.0</tspan></text>
    <text class="cls-5" transform="translate(61.21 241.01)"><tspan x="0" y="0">0.4</tspan></text>
    <text class="cls-5" transform="translate(61.21 313.01)"><tspan x="0" y="0">0.2</tspan></text>
    <text class="cls-5" transform="translate(61.21 169.01)"><tspan x="0" y="0">0.6</tspan></text>
    <text class="cls-5" transform="translate(61.21 97.01)"><tspan x="0" y="0">0.8</tspan></text>
    <text class="cls-5" transform="translate(110.26 408.6)"><tspan x="0" y="0">0</tspan></text>
    <text class="cls-5" transform="translate(504.45 408.6)"><tspan x="0" y="0">N</tspan></text>
    <text class="cls-5" transform="translate(32.4 251.26) rotate(-90)"><tspan x="0" y="0">amplitude</tspan></text>
    <text class="cls-5" transform="translate(269.58 432)"><tspan x="0" y="0">samples</tspan></text>
  </g>
</svg>