<?xml version="1.0" encoding="utf-8"?>
<!-- Generator: Adobe Illustrator 27.4.1, SVG Export Plug-In . SVG Version: 6.00 Build 0)  -->
<svg version="1.1" id="Ebene_4" xmlns="http://www.w3.org/2000/svg" xmlns:xlink="http://www.w3.org/1999/xlink" x="0px" y="0px"
	 viewBox="0 0 1166.4 1029.6" style="enable-background:new 0 0 1166.4 1029.6;" xml:space="preserve">
<style type="text/css">
	.st0{fill:none;stroke:#1DA37D;stroke-width:2;stroke-linejoin:round;}
	.st1{fill:none;}
	.st2{fill:none;stroke:#C9D1D9;stroke-width:2;stroke-miterlimit:10;}
	.st3{enable-background:new    ;}
	.st4{fill:#C5CDD5;}
	.st5{fill:none;stroke:#307EEF;stroke-width:1.5;stroke-linejoin:round;}
</style>
<path class="st0" d="M108,943.2l4-0.4l4-1.1l4-1.8l4-2.5l4-3.2l4-3.9l4-4.6l4-5.2l4-5.9l4-6.5l4-7.1l4-7.6l4-8.1l4-8.6l4-9.1l4-9.5
	l4-9.9l4-10.2l4-10.5l4-10.8l4-11l4-11.2l4-11.3l4-11.4l4-11.4l4-11.4l4-11.3l4-11.2l4-11.1l4-10.9l4-10.7l4-10.4l4-10.1l4-9.7
	l4-9.3l4-8.9l4-8.4l4-7.9l4-7.3l4-6.8l4-6.2l4-5.5l4-4.9l4-4.2l4-3.6l4-2.9l4-2.2l4-1.5l4-0.7h4l4,0.7l4,1.5l4,2.2l4,2.9l4,3.6
	l4,4.2l4,4.9l4,5.5l4,6.2l4,6.8l4,7.3l4,7.9l4,8.4l4,8.9l4,9.3l4,9.7l4,10.1l4,10.4l4,10.7l4,10.9l4,11.1l4,11.2l4,11.3l4,11.4
	l4,11.4l4,11.4l4,11.3l4,11.2l4,11l4,10.8l4,10.5l4,10.2l4,9.9l4,9.5l4,9.1l4,8.6l4,8.1l4,7.6l4,7.1l4,6.5l4,5.9l4,5.2l4,4.6l4,3.9
	l4,3.2l4,2.5l4,1.8l4,1.1l4,0.4"/>
<path class="st1" d="M306,565.2v378"/>
<path class="st1" d="M207,565.2v378"/>
<path class="st1" d="M504,871.2H108"/>
<rect x="108" y="565.2" class="st2" width="396" height="378"/>
<path class="st1" d="M504,799.2H108"/>
<path class="st1" d="M504,727.2H108"/>
<path class="st1" d="M504,655.2H108"/>
<path class="st1" d="M405,565.2v378"/>
<g class="st3">
	<path class="st4" d="M84.1,942.9c0,2.5-0.4,4.4-1.3,5.7s-2.2,1.9-4.1,1.9c-1.8,0-3.2-0.6-4-1.8s-1.3-3-1.4-5.4v-2.9
		c0-2.5,0.4-4.4,1.3-5.6s2.2-1.8,4.1-1.8c1.8,0,3.2,0.6,4.1,1.8s1.3,3,1.3,5.4V942.9z M81.9,940c0-1.8-0.3-3.2-0.8-4
		s-1.3-1.3-2.4-1.3c-1.1,0-1.9,0.4-2.4,1.3s-0.8,2.1-0.8,3.9v3.5c0,1.8,0.3,3.2,0.8,4.1s1.3,1.3,2.4,1.3c1.1,0,1.9-0.4,2.4-1.2
		s0.8-2.1,0.8-3.9V940z"/>
</g>
<g class="st3">
	<path class="st4" d="M60.8,590.2h-2.2v-14.4l-4.4,1.6v-2l6.2-2.3h0.3V590.2z"/>
	<path class="st4" d="M67.4,589.1c0-0.4,0.1-0.7,0.3-0.9s0.6-0.4,1-0.4s0.8,0.1,1,0.4s0.3,0.6,0.3,0.9c0,0.4-0.1,0.7-0.3,0.9
		s-0.6,0.4-1,0.4s-0.8-0.1-1-0.4S67.4,589.4,67.4,589.1z"/>
	<path class="st4" d="M84.1,582.9c0,2.5-0.4,4.4-1.3,5.7s-2.2,1.9-4.1,1.9c-1.8,0-3.2-0.6-4-1.8s-1.3-3-1.4-5.4v-2.9
		c0-2.5,0.4-4.4,1.3-5.6s2.2-1.8,4.1-1.8c1.8,0,3.2,0.6,4.1,1.8s1.3,3,1.3,5.4V582.9z M82,580c0-1.8-0.3-3.2-0.8-4s-1.3-1.3-2.4-1.3
		c-1.1,0-1.9,0.4-2.4,1.3s-0.8,2.1-0.8,3.9v3.5c0,1.8,0.3,3.2,0.8,4.1s1.3,1.3,2.4,1.3c1.1,0,1.9-0.4,2.4-1.2s0.8-2.1,0.8-3.9V580z"
		/>
</g>
<g class="st3">
	<path class="st4" d="M64.3,798.9c0,2.5-0.4,4.4-1.3,5.7s-2.2,1.9-4.1,1.9c-1.8,0-3.2-0.6-4-1.8s-1.3-3-1.4-5.4v-2.9
		c0-2.5,0.4-4.4,1.3-5.6s2.2-1.8,4.1-1.8c1.8,0,3.2,0.6,4.1,1.8s1.3,3,1.3,5.4V798.9z M62.2,796c0-1.8-0.3-3.2-0.8-4
		s-1.3-1.3-2.4-1.3c-1.1,0-1.9,0.4-2.4,1.3s-0.8,2.1-0.8,3.9v3.5c0,1.8,0.3,3.2,0.8,4.1s1.3,1.3,2.4,1.3c1.1,0,1.9-0.4,2.4-1.2
		s0.8-2.1,0.8-3.9V796z"/>
	<path class="st4" d="M67.4,805.1c0-0.4,0.1-0.7,0.3-0.9s0.6-0.4,1-0.4s0.8,0.1,1,0.4s0.3,0.6,0.3,0.9c0,0.4-0.1,0.7-0.3,0.9
		s-0.6,0.4-1,0.4s-0.8-0.1-1-0.4S67.4,805.4,67.4,805.1z"/>
	<path class="st4" d="M82.6,800.5h2.4v1.8h-2.4v4h-2.2v-4h-7.8V801l7.6-11.8h2.3V800.5z M75.1,800.5h5.3v-8.4l-0.3,0.5L75.1,800.5z"
		/>
</g>
<g class="st3">
	<path class="st4" d="M64.3,870.9c0,2.5-0.4,4.4-1.3,5.7s-2.2,1.9-4.1,1.9c-1.8,0-3.2-0.6-4-1.8s-1.3-3-1.4-5.4v-2.9
		c0-2.5,0.4-4.4,1.3-5.6s2.2-1.8,4.1-1.8c1.8,0,3.2,0.6,4.1,1.8s1.3,3,1.3,5.4V870.9z M62.2,868c0-1.8-0.3-3.2-0.8-4
		s-1.3-1.3-2.4-1.3c-1.1,0-1.9,0.4-2.4,1.3s-0.8,2.1-0.8,3.9v3.5c0,1.8,0.3,3.2,0.8,4.1s1.3,1.3,2.4,1.3c1.1,0,1.9-0.4,2.4-1.2
		s0.8-2.1,0.8-3.9V868z"/>
	<path class="st4" d="M67.4,877.1c0-0.4,0.1-0.7,0.3-0.9s0.6-0.4,1-0.4s0.8,0.1,1,0.4s0.3,0.6,0.3,0.9c0,0.4-0.1,0.7-0.3,0.9
		s-0.6,0.4-1,0.4s-0.8-0.1-1-0.4S67.4,877.4,67.4,877.1z"/>
	<path class="st4" d="M84.6,878.2H73.4v-1.6l5.9-6.6c0.9-1,1.5-1.8,1.8-2.4s0.5-1.3,0.5-1.9c0-0.9-0.3-1.6-0.8-2.2s-1.3-0.9-2.2-0.9
		c-1.1,0-1.9,0.3-2.5,0.9s-0.9,1.5-0.9,2.6h-2.2c0-1.6,0.5-2.8,1.5-3.8s2.4-1.5,4.1-1.5c1.6,0,2.8,0.4,3.8,1.2s1.4,1.9,1.4,3.3
		c0,1.7-1.1,3.7-3.2,6l-4.6,5h8.6V878.2z"/>
</g>
<g class="st3">
	<path class="st4" d="M64.3,726.9c0,2.5-0.4,4.4-1.3,5.7s-2.2,1.9-4.1,1.9c-1.8,0-3.2-0.6-4-1.8s-1.3-3-1.4-5.4v-2.9
		c0-2.5,0.4-4.4,1.3-5.6s2.2-1.8,4.1-1.8c1.8,0,3.2,0.6,4.1,1.8s1.3,3,1.3,5.4V726.9z M62.2,724c0-1.8-0.3-3.2-0.8-4
		s-1.3-1.3-2.4-1.3c-1.1,0-1.9,0.4-2.4,1.3s-0.8,2.1-0.8,3.9v3.5c0,1.8,0.3,3.2,0.8,4.1s1.3,1.3,2.4,1.3c1.1,0,1.9-0.4,2.4-1.2
		s0.8-2.1,0.8-3.9V724z"/>
	<path class="st4" d="M67.4,733.1c0-0.4,0.1-0.7,0.3-0.9s0.6-0.4,1-0.4s0.8,0.1,1,0.4s0.3,0.6,0.3,0.9c0,0.4-0.1,0.7-0.3,0.9
		s-0.6,0.4-1,0.4s-0.8-0.1-1-0.4S67.4,733.4,67.4,733.1z"/>
	<path class="st4" d="M81.9,717.1v1.8h-0.4c-1.7,0-3,0.5-4,1.5s-1.6,2.3-1.7,4.1c0.9-1,2.1-1.5,3.7-1.5c1.5,0,2.7,0.5,3.6,1.6
		s1.3,2.4,1.3,4.1c0,1.8-0.5,3.2-1.4,4.2s-2.2,1.6-3.8,1.6c-1.6,0-3-0.6-4-1.9s-1.5-2.9-1.5-4.8v-0.8c0-3.1,0.7-5.5,2-7.2
		s3.3-2.5,6-2.5H81.9z M79.1,724.8c-0.7,0-1.4,0.2-2.1,0.7s-1.1,1-1.3,1.7v0.8c0,1.4,0.3,2.5,0.9,3.4s1.4,1.3,2.4,1.3
		c1,0,1.7-0.4,2.3-1.1s0.8-1.7,0.8-2.8c0-1.2-0.3-2.1-0.8-2.8S80,724.8,79.1,724.8z"/>
</g>
<g class="st3">
	<path class="st4" d="M64.3,654.9c0,2.5-0.4,4.4-1.3,5.7s-2.2,1.9-4.1,1.9c-1.8,0-3.2-0.6-4-1.8s-1.3-3-1.4-5.4v-2.9
		c0-2.5,0.4-4.4,1.3-5.6s2.2-1.8,4.1-1.8c1.8,0,3.2,0.6,4.1,1.8s1.3,3,1.3,5.4V654.9z M62.2,652c0-1.8-0.3-3.2-0.8-4
		s-1.3-1.3-2.4-1.3c-1.1,0-1.9,0.4-2.4,1.3s-0.8,2.1-0.8,3.9v3.5c0,1.8,0.3,3.2,0.8,4.1s1.3,1.3,2.4,1.3c1.1,0,1.9-0.4,2.4-1.2
		s0.8-2.1,0.8-3.9V652z"/>
	<path class="st4" d="M67.4,661.1c0-0.4,0.1-0.7,0.3-0.9s0.6-0.4,1-0.4s0.8,0.1,1,0.4s0.3,0.6,0.3,0.9c0,0.4-0.1,0.7-0.3,0.9
		s-0.6,0.4-1,0.4s-0.8-0.1-1-0.4S67.4,661.4,67.4,661.1z"/>
	<path class="st4" d="M83.8,649.6c0,0.9-0.2,1.6-0.7,2.3s-1.1,1.2-1.8,1.6c0.9,0.4,1.6,0.9,2.1,1.7s0.8,1.6,0.8,2.5
		c0,1.5-0.5,2.7-1.5,3.5s-2.3,1.3-3.9,1.3c-1.6,0-3-0.4-3.9-1.3s-1.5-2.1-1.5-3.5c0-0.9,0.3-1.8,0.8-2.5s1.2-1.3,2.1-1.7
		c-0.8-0.4-1.4-0.9-1.8-1.6s-0.7-1.4-0.7-2.3c0-1.4,0.5-2.6,1.4-3.4s2.1-1.3,3.6-1.3c1.5,0,2.7,0.4,3.6,1.3S83.8,648.2,83.8,649.6z
		 M82,657.6c0-1-0.3-1.7-0.9-2.3s-1.4-0.9-2.4-0.9s-1.8,0.3-2.3,0.9s-0.9,1.4-0.9,2.3s0.3,1.7,0.9,2.3s1.4,0.8,2.4,0.8
		c1,0,1.8-0.3,2.4-0.8S82,658.5,82,657.6z M78.7,646.7c-0.9,0-1.5,0.3-2.1,0.8s-0.8,1.2-0.8,2.2c0,0.9,0.3,1.6,0.8,2.1
		s1.2,0.8,2.1,0.8s1.6-0.3,2.1-0.8s0.8-1.2,0.8-2.1s-0.3-1.6-0.8-2.1S79.6,646.7,78.7,646.7z"/>
</g>
<g class="st3">
	<path class="st4" d="M113.4,971.9c0,2.5-0.4,4.4-1.3,5.7s-2.2,1.9-4.1,1.9c-1.8,0-3.2-0.6-4-1.8s-1.3-3-1.4-5.4v-2.9
		c0-2.5,0.4-4.4,1.3-5.6s2.2-1.8,4.1-1.8c1.8,0,3.2,0.6,4.1,1.8s1.3,3,1.3,5.4V971.9z M111.2,969c0-1.8-0.3-3.2-0.8-4
		s-1.3-1.3-2.4-1.3c-1.1,0-1.9,0.4-2.4,1.3s-0.8,2.1-0.8,3.9v3.5c0,1.8,0.3,3.2,0.8,4.1s1.3,1.3,2.4,1.3c1.1,0,1.9-0.4,2.4-1.2
		s0.8-2.1,0.8-3.9V969z"/>
</g>
<g class="st3">
	<path class="st4" d="M510.5,979.2h-2.3l-8.6-13.1v13.1h-2.3v-17.1h2.3l8.6,13.2v-13.2h2.2V979.2z"/>
</g>
<g class="st3">
	<path class="st4" d="M20.5,798c-0.2,0.1-0.7,0.2-1.3,0.3c1,1,1.6,2.2,1.6,3.6c0,1.2-0.4,2.3-1.1,3.1s-1.6,1.2-2.7,1.2
		c-1.3,0-2.3-0.5-3.1-1.5s-1.1-2.4-1.1-4.2v-2.1h-1c-0.8,0-1.4,0.2-1.8,0.7s-0.7,1.1-0.7,2c0,0.8,0.2,1.4,0.6,1.9s0.9,0.8,1.4,0.8
		v2.2c-0.6,0-1.2-0.2-1.8-0.7s-1.1-1.1-1.4-1.8s-0.5-1.6-0.5-2.5c0-1.5,0.4-2.6,1.1-3.4s1.7-1.3,3-1.3h5.8c1.2,0,2.1-0.1,2.8-0.4
		h0.2V798z M18.9,801.6c0-0.7-0.2-1.3-0.5-1.9s-0.8-1.1-1.4-1.3h-2.6v1.7c0,2.7,0.8,4,2.3,4c0.7,0,1.2-0.2,1.6-0.7
		S18.9,802.3,18.9,801.6z"/>
	<path class="st4" d="M7.9,790.7l1.4-0.1c-1.1-0.9-1.6-2.2-1.6-3.8c0-1.8,0.7-3,2-3.6c-0.6-0.4-1.1-1-1.5-1.6s-0.6-1.5-0.6-2.4
		c0-2.8,1.5-4.2,4.4-4.2h8.5v2.2h-8.4c-0.9,0-1.6,0.2-2,0.6s-0.7,1.1-0.7,2.1c0,0.8,0.2,1.5,0.7,2s1.1,0.8,1.9,0.9h8.4v2.2h-8.3
		c-1.8,0-2.8,0.9-2.8,2.7c0,1.4,0.6,2.4,1.8,2.9h9.3v2.2H7.9V790.7z"/>
	<path class="st4" d="M14.3,761c1.9,0,3.5,0.4,4.7,1.3s1.8,2.1,1.8,3.6c0,1.5-0.5,2.8-1.5,3.6h6.1v2.2H7.9v-2l1.4-0.1
		c-1.1-0.9-1.6-2.1-1.6-3.7c0-1.5,0.6-2.7,1.7-3.6s2.7-1.3,4.8-1.3H14.3z M14.1,763.2c-1.4,0-2.6,0.3-3.4,0.9s-1.2,1.4-1.2,2.5
		c0,1.3,0.6,2.3,1.7,3h6.1c1.2-0.6,1.7-1.6,1.7-3c0-1-0.4-1.9-1.2-2.5S15.7,763.2,14.1,763.2z"/>
	<path class="st4" d="M20.5,755.9v2.2h-18v-2.2H20.5z"/>
	<path class="st4" d="M4.5,752.4c-0.4,0-0.6-0.1-0.9-0.3s-0.4-0.5-0.4-1s0.1-0.7,0.4-1s0.5-0.3,0.9-0.3s0.6,0.1,0.9,0.3
		s0.4,0.5,0.4,1s-0.1,0.7-0.4,1S4.8,752.4,4.5,752.4z M20.5,750.1v2.2H7.9v-2.2H20.5z"/>
	<path class="st4" d="M4.8,743.7h3.1v-2.4h1.7v2.4h7.9c0.5,0,0.9-0.1,1.1-0.3c0.3-0.2,0.4-0.6,0.4-1.1c0-0.2,0-0.6-0.1-1h1.7
		c0.2,0.6,0.2,1.1,0.2,1.7c0,1-0.3,1.7-0.9,2.2s-1.4,0.7-2.5,0.7H9.5v2.3H7.9v-2.3H4.8V743.7z"/>
	<path class="st4" d="M19.3,730.9c1,0.8,1.5,2.1,1.5,3.7c0,1.4-0.4,2.4-1.2,3.1s-1.9,1.1-3.5,1.1H7.9v-2.2H16c1.9,0,2.9-0.8,2.9-2.3
		c0-1.7-0.6-2.8-1.9-3.3H7.9v-2.2h12.7v2.1L19.3,730.9z"/>
	<path class="st4" d="M14.1,726.1c-1.9,0-3.5-0.5-4.7-1.4s-1.8-2.1-1.8-3.6c0-1.5,0.5-2.7,1.5-3.5H2.5v-2.2h18v2l-1.4,0.1
		c1.1,0.9,1.6,2.1,1.6,3.6c0,1.5-0.6,2.7-1.8,3.6s-2.8,1.4-4.7,1.4H14.1z M14.3,723.9c1.4,0,2.6-0.3,3.4-0.9s1.2-1.4,1.2-2.5
		c0-1.4-0.6-2.4-1.9-3h-5.8c-1.2,0.6-1.8,1.6-1.8,3c0,1.1,0.4,1.9,1.2,2.5S12.7,723.9,14.3,723.9z"/>
	<path class="st4" d="M20.8,706.7c0,1.7-0.6,3.1-1.7,4.2s-2.6,1.6-4.5,1.6h-0.4c-1.3,0-2.4-0.2-3.4-0.7s-1.8-1.2-2.3-2
		S7.6,708,7.6,707c0-1.6,0.5-2.9,1.6-3.8s2.6-1.4,4.7-1.4h0.9v8.6c1.2,0,2.3-0.4,3-1.1s1.2-1.6,1.2-2.7c0-0.8-0.2-1.4-0.5-1.9
		s-0.7-1-1.2-1.4l1-1.3C19.9,703,20.8,704.6,20.8,706.7z M9.4,707c0,0.9,0.3,1.6,1,2.2s1.5,1,2.7,1.1V704h-0.2
		c-1.1,0.1-2,0.4-2.6,0.9S9.4,706.1,9.4,707z"/>
</g>
<g class="st3">
	<path class="st4" d="M269.6,975.8c0-0.6-0.2-1-0.7-1.4s-1.2-0.6-2.3-0.8s-2-0.5-2.6-0.8s-1.1-0.7-1.4-1.2s-0.5-1-0.5-1.6
		c0-1,0.4-1.9,1.3-2.6s2-1.1,3.4-1.1c1.4,0,2.6,0.4,3.5,1.1s1.3,1.7,1.3,2.8h-2.2c0-0.6-0.3-1.1-0.8-1.5s-1.1-0.6-1.9-0.6
		c-0.8,0-1.4,0.2-1.9,0.5s-0.7,0.8-0.7,1.3c0,0.5,0.2,0.9,0.6,1.2s1.2,0.5,2.2,0.8s2,0.5,2.6,0.9s1.2,0.7,1.5,1.2s0.5,1,0.5,1.7
		c0,1.1-0.5,2-1.4,2.7s-2.1,1-3.5,1c-1,0-1.9-0.2-2.7-0.5s-1.4-0.9-1.8-1.5s-0.7-1.3-0.7-2.1h2.2c0,0.7,0.3,1.3,0.9,1.7
		s1.3,0.6,2.2,0.6c0.8,0,1.5-0.2,2-0.5S269.6,976.4,269.6,975.8z"/>
	<path class="st4" d="M282.4,979.2c-0.1-0.2-0.2-0.7-0.3-1.3c-1,1-2.2,1.6-3.6,1.6c-1.2,0-2.3-0.4-3.1-1.1s-1.2-1.6-1.2-2.7
		c0-1.3,0.5-2.3,1.5-3.1s2.4-1.1,4.2-1.1h2.1v-1c0-0.8-0.2-1.4-0.7-1.8s-1.1-0.7-2-0.7c-0.8,0-1.4,0.2-1.9,0.6s-0.8,0.9-0.8,1.4
		h-2.2c0-0.6,0.2-1.2,0.7-1.8s1.1-1.1,1.8-1.4s1.6-0.5,2.5-0.5c1.5,0,2.6,0.4,3.4,1.1s1.3,1.7,1.3,3v5.8c0,1.2,0.1,2.1,0.4,2.8v0.2
		H282.4z M278.8,977.5c0.7,0,1.3-0.2,1.9-0.5s1.1-0.8,1.3-1.4V973h-1.7c-2.7,0-4,0.8-4,2.3c0,0.7,0.2,1.2,0.7,1.6
		S278.1,977.5,278.8,977.5z"/>
	<path class="st4" d="M289.7,966.5l0.1,1.4c0.9-1.1,2.2-1.6,3.8-1.6c1.8,0,3,0.7,3.6,2c0.4-0.6,1-1.1,1.6-1.5s1.5-0.6,2.4-0.6
		c2.8,0,4.2,1.5,4.2,4.4v8.5h-2.2v-8.4c0-0.9-0.2-1.6-0.6-2s-1.1-0.7-2.1-0.7c-0.8,0-1.5,0.2-2,0.7s-0.8,1.1-0.9,1.9v8.4h-2.2v-8.3
		c0-1.8-0.9-2.8-2.7-2.8c-1.4,0-2.4,0.6-2.9,1.8v9.3h-2.2v-12.7H289.7z"/>
	<path class="st4" d="M319.4,973c0,1.9-0.4,3.5-1.3,4.7s-2.1,1.8-3.6,1.8c-1.5,0-2.8-0.5-3.6-1.5v6.1h-2.2v-17.6h2l0.1,1.4
		c0.9-1.1,2.1-1.6,3.7-1.6c1.5,0,2.7,0.6,3.6,1.7s1.3,2.7,1.3,4.8V973z M317.2,972.8c0-1.4-0.3-2.6-0.9-3.4s-1.4-1.2-2.5-1.2
		c-1.3,0-2.3,0.6-3,1.7v6.1c0.6,1.2,1.6,1.7,3,1.7c1,0,1.9-0.4,2.5-1.2S317.2,974.4,317.2,972.8z"/>
	<path class="st4" d="M324.5,979.2h-2.2v-18h2.2V979.2z"/>
	<path class="st4" d="M333.2,979.4c-1.7,0-3.1-0.6-4.2-1.7s-1.6-2.6-1.6-4.5v-0.4c0-1.3,0.2-2.4,0.7-3.4s1.2-1.8,2-2.3
		s1.8-0.8,2.8-0.8c1.6,0,2.9,0.5,3.8,1.6s1.4,2.6,1.4,4.7v0.9h-8.6c0,1.2,0.4,2.3,1.1,3s1.6,1.2,2.7,1.2c0.8,0,1.4-0.2,1.9-0.5
		s1-0.7,1.4-1.2l1.3,1C337,978.6,335.4,979.4,333.2,979.4z M333,968.1c-0.9,0-1.6,0.3-2.2,1s-1,1.5-1.1,2.7h6.4v-0.2
		c-0.1-1.1-0.4-2-0.9-2.6S333.9,968.1,333,968.1z"/>
	<path class="st4" d="M348.1,975.8c0-0.6-0.2-1-0.7-1.4s-1.2-0.6-2.3-0.8s-2-0.5-2.6-0.8s-1.1-0.7-1.4-1.2s-0.5-1-0.5-1.6
		c0-1,0.4-1.9,1.3-2.6s2-1.1,3.4-1.1c1.4,0,2.6,0.4,3.5,1.1s1.3,1.7,1.3,2.8h-2.2c0-0.6-0.3-1.1-0.8-1.5s-1.1-0.6-1.9-0.6
		c-0.8,0-1.4,0.2-1.9,0.5s-0.7,0.8-0.7,1.3c0,0.5,0.2,0.9,0.6,1.2s1.2,0.5,2.2,0.8s2,0.5,2.6,0.9s1.2,0.7,1.5,1.2s0.5,1,0.5,1.7
		c0,1.1-0.5,2-1.4,2.7s-2.1,1-3.5,1c-1,0-1.9-0.2-2.7-0.5s-1.4-0.9-1.8-1.5s-0.7-1.3-0.7-2.1h2.2c0,0.7,0.3,1.3,0.9,1.7
		s1.3,0.6,2.2,0.6c0.8,0,1.5-0.2,2-0.5S348.1,976.4,348.1,975.8z"/>
</g>
<g class="st3">
	<path class="st4" d="M84.1,438.9c0,2.5-0.4,4.4-1.3,5.7s-2.2,1.9-4.1,1.9c-1.8,0-3.2-0.6-4-1.8s-1.3-3-1.4-5.4v-2.9
		c0-2.5,0.4-4.4,1.3-5.6s2.2-1.8,4.1-1.8c1.8,0,3.2,0.6,4.1,1.8s1.3,3,1.3,5.4V438.9z M81.9,436c0-1.8-0.3-3.2-0.8-4
		s-1.3-1.3-2.4-1.3c-1.1,0-1.9,0.4-2.4,1.3s-0.8,2.1-0.8,3.9v3.5c0,1.8,0.3,3.2,0.8,4.1s1.3,1.3,2.4,1.3c1.1,0,1.9-0.4,2.4-1.2
		s0.8-2.1,0.8-3.9V436z"/>
</g>
<g class="st3">
	<path class="st4" d="M60.8,86.2h-2.2V71.8l-4.4,1.6v-2l6.2-2.3h0.3V86.2z"/>
	<path class="st4" d="M67.4,85.1c0-0.4,0.1-0.7,0.3-0.9s0.6-0.4,1-0.4s0.8,0.1,1,0.4s0.3,0.6,0.3,0.9c0,0.4-0.1,0.7-0.3,0.9
		s-0.6,0.4-1,0.4s-0.8-0.1-1-0.4S67.4,85.4,67.4,85.1z"/>
	<path class="st4" d="M84.1,78.9c0,2.5-0.4,4.4-1.3,5.7s-2.2,1.9-4.1,1.9c-1.8,0-3.2-0.6-4-1.8s-1.3-3-1.4-5.4v-2.9
		c0-2.5,0.4-4.4,1.3-5.6s2.2-1.8,4.1-1.8c1.8,0,3.2,0.6,4.1,1.8s1.3,3,1.3,5.4V78.9z M82,76c0-1.8-0.3-3.2-0.8-4s-1.3-1.3-2.4-1.3
		c-1.1,0-1.9,0.4-2.4,1.3s-0.8,2.1-0.8,3.9v3.5c0,1.8,0.3,3.2,0.8,4.1s1.3,1.3,2.4,1.3c1.1,0,1.9-0.4,2.4-1.2s0.8-2.1,0.8-3.9V76z"
		/>
</g>
<g class="st3">
	<path class="st4" d="M64.3,294.9c0,2.5-0.4,4.4-1.3,5.7s-2.2,1.9-4.1,1.9c-1.8,0-3.2-0.6-4-1.8s-1.3-3-1.4-5.4v-2.9
		c0-2.5,0.4-4.4,1.3-5.6s2.2-1.8,4.1-1.8c1.8,0,3.2,0.6,4.1,1.8s1.3,3,1.3,5.4V294.9z M62.2,292c0-1.8-0.3-3.2-0.8-4
		s-1.3-1.3-2.4-1.3c-1.1,0-1.9,0.4-2.4,1.3s-0.8,2.1-0.8,3.9v3.5c0,1.8,0.3,3.2,0.8,4.1s1.3,1.3,2.4,1.3c1.1,0,1.9-0.4,2.4-1.2
		s0.8-2.1,0.8-3.9V292z"/>
	<path class="st4" d="M67.4,301.1c0-0.4,0.1-0.7,0.3-0.9s0.6-0.4,1-0.4s0.8,0.1,1,0.4s0.3,0.6,0.3,0.9c0,0.4-0.1,0.7-0.3,0.9
		s-0.6,0.4-1,0.4s-0.8-0.1-1-0.4S67.4,301.4,67.4,301.1z"/>
	<path class="st4" d="M82.6,296.5h2.4v1.8h-2.4v4h-2.2v-4h-7.8V297l7.6-11.8h2.3V296.5z M75.1,296.5h5.3v-8.4l-0.3,0.5L75.1,296.5z"
		/>
</g>
<g class="st3">
	<path class="st4" d="M64.3,366.9c0,2.5-0.4,4.4-1.3,5.7s-2.2,1.9-4.1,1.9c-1.8,0-3.2-0.6-4-1.8s-1.3-3-1.4-5.4v-2.9
		c0-2.5,0.4-4.4,1.3-5.6s2.2-1.8,4.1-1.8c1.8,0,3.2,0.6,4.1,1.8s1.3,3,1.3,5.4V366.9z M62.2,364c0-1.8-0.3-3.2-0.8-4
		s-1.3-1.3-2.4-1.3c-1.1,0-1.9,0.4-2.4,1.3s-0.8,2.1-0.8,3.9v3.5c0,1.8,0.3,3.2,0.8,4.1s1.3,1.3,2.4,1.3c1.1,0,1.9-0.4,2.4-1.2
		s0.8-2.1,0.8-3.9V364z"/>
	<path class="st4" d="M67.4,373.1c0-0.4,0.1-0.7,0.3-0.9s0.6-0.4,1-0.4s0.8,0.1,1,0.4s0.3,0.6,0.3,0.9c0,0.4-0.1,0.7-0.3,0.9
		s-0.6,0.4-1,0.4s-0.8-0.1-1-0.4S67.4,373.4,67.4,373.1z"/>
	<path class="st4" d="M84.6,374.2H73.4v-1.6l5.9-6.6c0.9-1,1.5-1.8,1.8-2.4s0.5-1.3,0.5-1.9c0-0.9-0.3-1.6-0.8-2.2s-1.3-0.9-2.2-0.9
		c-1.1,0-1.9,0.3-2.5,0.9s-0.9,1.5-0.9,2.6h-2.2c0-1.6,0.5-2.8,1.5-3.8s2.4-1.5,4.1-1.5c1.6,0,2.8,0.4,3.8,1.2s1.4,1.9,1.4,3.3
		c0,1.7-1.1,3.7-3.2,6l-4.6,5h8.6V374.2z"/>
</g>
<g class="st3">
	<path class="st4" d="M64.3,222.9c0,2.5-0.4,4.4-1.3,5.7s-2.2,1.9-4.1,1.9c-1.8,0-3.2-0.6-4-1.8s-1.3-3-1.4-5.4v-2.9
		c0-2.5,0.4-4.4,1.3-5.6s2.2-1.8,4.1-1.8c1.8,0,3.2,0.6,4.1,1.8s1.3,3,1.3,5.4V222.9z M62.2,220c0-1.8-0.3-3.2-0.8-4
		s-1.3-1.3-2.4-1.3c-1.1,0-1.9,0.4-2.4,1.3s-0.8,2.1-0.8,3.9v3.5c0,1.8,0.3,3.2,0.8,4.1s1.3,1.3,2.4,1.3c1.1,0,1.9-0.4,2.4-1.2
		s0.8-2.1,0.8-3.9V220z"/>
	<path class="st4" d="M67.4,229.1c0-0.4,0.1-0.7,0.3-0.9s0.6-0.4,1-0.4s0.8,0.1,1,0.4s0.3,0.6,0.3,0.9c0,0.4-0.1,0.7-0.3,0.9
		s-0.6,0.4-1,0.4s-0.8-0.1-1-0.4S67.4,229.4,67.4,229.1z"/>
	<path class="st4" d="M81.9,213.1v1.8h-0.4c-1.7,0-3,0.5-4,1.5s-1.6,2.3-1.7,4.1c0.9-1,2.1-1.5,3.7-1.5c1.5,0,2.7,0.5,3.6,1.6
		s1.3,2.4,1.3,4.1c0,1.8-0.5,3.2-1.4,4.2s-2.2,1.6-3.8,1.6c-1.6,0-3-0.6-4-1.9s-1.5-2.9-1.5-4.8v-0.8c0-3.1,0.7-5.5,2-7.2
		s3.3-2.5,6-2.5H81.9z M79.1,220.8c-0.7,0-1.4,0.2-2.1,0.7s-1.1,1-1.3,1.7v0.8c0,1.4,0.3,2.5,0.9,3.4s1.4,1.3,2.4,1.3
		c1,0,1.7-0.4,2.3-1.1s0.8-1.7,0.8-2.8c0-1.2-0.3-2.1-0.8-2.8S80,220.8,79.1,220.8z"/>
</g>
<g class="st3">
	<path class="st4" d="M64.3,150.9c0,2.5-0.4,4.4-1.3,5.7s-2.2,1.9-4.1,1.9c-1.8,0-3.2-0.6-4-1.8s-1.3-3-1.4-5.4v-2.9
		c0-2.5,0.4-4.4,1.3-5.6s2.2-1.8,4.1-1.8c1.8,0,3.2,0.6,4.1,1.8s1.3,3,1.3,5.4V150.9z M62.2,148c0-1.8-0.3-3.2-0.8-4
		s-1.3-1.3-2.4-1.3c-1.1,0-1.9,0.4-2.4,1.3s-0.8,2.1-0.8,3.9v3.5c0,1.8,0.3,3.2,0.8,4.1s1.3,1.3,2.4,1.3c1.1,0,1.9-0.4,2.4-1.2
		s0.8-2.1,0.8-3.9V148z"/>
	<path class="st4" d="M67.4,157.1c0-0.4,0.1-0.7,0.3-0.9s0.6-0.4,1-0.4s0.8,0.1,1,0.4s0.3,0.6,0.3,0.9c0,0.4-0.1,0.7-0.3,0.9
		s-0.6,0.4-1,0.4s-0.8-0.1-1-0.4S67.4,157.4,67.4,157.1z"/>
	<path class="st4" d="M83.8,145.6c0,0.9-0.2,1.6-0.7,2.3s-1.1,1.2-1.8,1.6c0.9,0.4,1.6,0.9,2.1,1.7s0.8,1.6,0.8,2.5
		c0,1.5-0.5,2.7-1.5,3.5s-2.3,1.3-3.9,1.3c-1.6,0-3-0.4-3.9-1.3s-1.5-2.1-1.5-3.5c0-0.9,0.3-1.8,0.8-2.5s1.2-1.3,2.1-1.7
		c-0.8-0.4-1.4-0.9-1.8-1.6s-0.7-1.4-0.7-2.3c0-1.4,0.5-2.6,1.4-3.4s2.1-1.3,3.6-1.3c1.5,0,2.7,0.4,3.6,1.3S83.8,144.2,83.8,145.6z
		 M82,153.6c0-1-0.3-1.7-0.9-2.3s-1.4-0.9-2.4-0.9s-1.8,0.3-2.3,0.9s-0.9,1.4-0.9,2.3s0.3,1.7,0.9,2.3s1.4,0.8,2.4,0.8
		c1,0,1.8-0.3,2.4-0.8S82,154.5,82,153.6z M78.7,142.7c-0.9,0-1.5,0.3-2.1,0.8s-0.8,1.2-0.8,2.2c0,0.9,0.3,1.6,0.8,2.1
		s1.2,0.8,2.1,0.8s1.6-0.3,2.1-0.8s0.8-1.2,0.8-2.1s-0.3-1.6-0.8-2.1S79.6,142.7,78.7,142.7z"/>
</g>
<g class="st3">
	<path class="st4" d="M113.4,467.9c0,2.5-0.4,4.4-1.3,5.7s-2.2,1.9-4.1,1.9c-1.8,0-3.2-0.6-4-1.8s-1.3-3-1.4-5.4v-2.9
		c0-2.5,0.4-4.4,1.3-5.6s2.2-1.8,4.1-1.8c1.8,0,3.2,0.6,4.1,1.8s1.3,3,1.3,5.4V467.9z M111.2,465c0-1.8-0.3-3.2-0.8-4
		s-1.3-1.3-2.4-1.3c-1.1,0-1.9,0.4-2.4,1.3s-0.8,2.1-0.8,3.9v3.5c0,1.8,0.3,3.2,0.8,4.1s1.3,1.3,2.4,1.3c1.1,0,1.9-0.4,2.4-1.2
		s0.8-2.1,0.8-3.9V465z"/>
</g>
<g class="st3">
	<path class="st4" d="M510.5,475.2h-2.3l-8.6-13.1v13.1h-2.3v-17.1h2.3l8.6,13.2v-13.2h2.2V475.2z"/>
</g>
<g class="st3">
	<path class="st4" d="M20.5,294c-0.2,0.1-0.7,0.2-1.3,0.3c1,1,1.6,2.2,1.6,3.6c0,1.2-0.4,2.3-1.1,3.1s-1.6,1.2-2.7,1.2
		c-1.3,0-2.3-0.5-3.1-1.5s-1.1-2.4-1.1-4.2v-2.1h-1c-0.8,0-1.4,0.2-1.8,0.7s-0.7,1.1-0.7,2c0,0.8,0.2,1.4,0.6,1.9s0.9,0.8,1.4,0.8
		v2.2c-0.6,0-1.2-0.2-1.8-0.7s-1.1-1.1-1.4-1.8s-0.5-1.6-0.5-2.5c0-1.5,0.4-2.6,1.1-3.4s1.7-1.3,3-1.3h5.8c1.2,0,2.1-0.1,2.8-0.4
		h0.2V294z M18.9,297.6c0-0.7-0.2-1.3-0.5-1.9s-0.8-1.1-1.4-1.3h-2.6v1.7c0,2.7,0.8,4,2.3,4c0.7,0,1.2-0.2,1.6-0.7
		S18.9,298.3,18.9,297.6z"/>
	<path class="st4" d="M7.9,286.7l1.4-0.1c-1.1-0.9-1.6-2.2-1.6-3.8c0-1.8,0.7-3,2-3.6c-0.6-0.4-1.1-1-1.5-1.6s-0.6-1.5-0.6-2.4
		c0-2.8,1.5-4.2,4.4-4.2h8.5v2.2h-8.4c-0.9,0-1.6,0.2-2,0.6s-0.7,1.1-0.7,2.1c0,0.8,0.2,1.5,0.7,2s1.1,0.8,1.9,0.9h8.4v2.2h-8.3
		c-1.8,0-2.8,0.9-2.8,2.7c0,1.4,0.6,2.4,1.8,2.9h9.3v2.2H7.9V286.7z"/>
	<path class="st4" d="M14.3,257c1.9,0,3.5,0.4,4.7,1.3s1.8,2.1,1.8,3.6c0,1.5-0.5,2.8-1.5,3.6h6.1v2.2H7.9v-2l1.4-0.1
		c-1.1-0.9-1.6-2.1-1.6-3.7c0-1.5,0.6-2.7,1.7-3.6s2.7-1.3,4.8-1.3H14.3z M14.1,259.2c-1.4,0-2.6,0.3-3.4,0.9s-1.2,1.4-1.2,2.5
		c0,1.3,0.6,2.3,1.7,3h6.1c1.2-0.6,1.7-1.6,1.7-3c0-1-0.4-1.9-1.2-2.5S15.7,259.2,14.1,259.2z"/>
	<path class="st4" d="M20.5,251.9v2.2h-18v-2.2H20.5z"/>
	<path class="st4" d="M4.5,248.4c-0.4,0-0.6-0.1-0.9-0.3s-0.4-0.5-0.4-1s0.1-0.7,0.4-1s0.5-0.3,0.9-0.3s0.6,0.1,0.9,0.3
		s0.4,0.5,0.4,1s-0.1,0.7-0.4,1S4.8,248.4,4.5,248.4z M20.5,246.1v2.2H7.9v-2.2H20.5z"/>
	<path class="st4" d="M4.8,239.7h3.1v-2.4h1.7v2.4h7.9c0.5,0,0.9-0.1,1.1-0.3c0.3-0.2,0.4-0.6,0.4-1.1c0-0.2,0-0.6-0.1-1h1.7
		c0.2,0.6,0.2,1.1,0.2,1.7c0,1-0.3,1.7-0.9,2.2s-1.4,0.7-2.5,0.7H9.5v2.3H7.9v-2.3H4.8V239.7z"/>
	<path class="st4" d="M19.3,226.9c1,0.8,1.5,2.1,1.5,3.7c0,1.4-0.4,2.4-1.2,3.1s-1.9,1.1-3.5,1.1H7.9v-2.2H16c1.9,0,2.9-0.8,2.9-2.3
		c0-1.7-0.6-2.8-1.9-3.3H7.9v-2.2h12.7v2.1L19.3,226.9z"/>
	<path class="st4" d="M14.1,222.1c-1.9,0-3.5-0.5-4.7-1.4s-1.8-2.1-1.8-3.6c0-1.5,0.5-2.7,1.5-3.5H2.5v-2.2h18v2l-1.4,0.1
		c1.1,0.9,1.6,2.1,1.6,3.6c0,1.5-0.6,2.7-1.8,3.6s-2.8,1.4-4.7,1.4H14.1z M14.3,219.9c1.4,0,2.6-0.3,3.4-0.9s1.2-1.4,1.2-2.5
		c0-1.4-0.6-2.4-1.9-3h-5.8c-1.2,0.6-1.8,1.6-1.8,3c0,1.1,0.4,1.9,1.2,2.5S12.7,219.9,14.3,219.9z"/>
	<path class="st4" d="M20.8,202.7c0,1.7-0.6,3.1-1.7,4.2s-2.6,1.6-4.5,1.6h-0.4c-1.3,0-2.4-0.2-3.4-0.7s-1.8-1.2-2.3-2
		S7.6,204,7.6,203c0-1.6,0.5-2.9,1.6-3.8s2.6-1.4,4.7-1.4h0.9v8.6c1.2,0,2.3-0.4,3-1.1s1.2-1.6,1.2-2.7c0-0.8-0.2-1.4-0.5-1.9
		s-0.7-1-1.2-1.4l1-1.3C19.9,199,20.8,200.6,20.8,202.7z M9.4,203c0,0.9,0.3,1.6,1,2.2s1.5,1,2.7,1.1V200h-0.2
		c-1.1,0.1-2,0.4-2.6,0.9S9.4,202.1,9.4,203z"/>
</g>
<g class="st3">
	<path class="st4" d="M269.6,471.8c0-0.6-0.2-1-0.7-1.4s-1.2-0.6-2.3-0.8s-2-0.5-2.6-0.8s-1.1-0.7-1.4-1.2s-0.5-1-0.5-1.6
		c0-1,0.4-1.9,1.3-2.6s2-1.1,3.4-1.1c1.4,0,2.6,0.4,3.5,1.1s1.3,1.7,1.3,2.8h-2.2c0-0.6-0.3-1.1-0.8-1.5s-1.1-0.6-1.9-0.6
		c-0.8,0-1.4,0.2-1.9,0.5s-0.7,0.8-0.7,1.3c0,0.5,0.2,0.9,0.6,1.2s1.2,0.5,2.2,0.8s2,0.5,2.6,0.9s1.2,0.7,1.5,1.2s0.5,1,0.5,1.7
		c0,1.1-0.5,2-1.4,2.7s-2.1,1-3.5,1c-1,0-1.9-0.2-2.7-0.5s-1.4-0.9-1.8-1.5s-0.7-1.3-0.7-2.1h2.2c0,0.7,0.3,1.3,0.9,1.7
		s1.3,0.6,2.2,0.6c0.8,0,1.5-0.2,2-0.5S269.6,472.4,269.6,471.8z"/>
	<path class="st4" d="M282.4,475.2c-0.1-0.2-0.2-0.7-0.3-1.3c-1,1-2.2,1.6-3.6,1.6c-1.2,0-2.3-0.4-3.1-1.1s-1.2-1.6-1.2-2.7
		c0-1.3,0.5-2.3,1.5-3.1s2.4-1.1,4.2-1.1h2.1v-1c0-0.8-0.2-1.4-0.7-1.8s-1.1-0.7-2-0.7c-0.8,0-1.4,0.2-1.9,0.6s-0.8,0.9-0.8,1.4
		h-2.2c0-0.6,0.2-1.2,0.7-1.8s1.1-1.1,1.8-1.4s1.6-0.5,2.5-0.5c1.5,0,2.6,0.4,3.4,1.1s1.3,1.7,1.3,3v5.8c0,1.2,0.1,2.1,0.4,2.8v0.2
		H282.4z M278.8,473.5c0.7,0,1.3-0.2,1.9-0.5s1.1-0.8,1.3-1.4V469h-1.7c-2.7,0-4,0.8-4,2.3c0,0.7,0.2,1.2,0.7,1.6
		S278.1,473.5,278.8,473.5z"/>
	<path class="st4" d="M289.7,462.5l0.1,1.4c0.9-1.1,2.2-1.6,3.8-1.6c1.8,0,3,0.7,3.6,2c0.4-0.6,1-1.1,1.6-1.5s1.5-0.6,2.4-0.6
		c2.8,0,4.2,1.5,4.2,4.4v8.5h-2.2v-8.4c0-0.9-0.2-1.6-0.6-2s-1.1-0.7-2.1-0.7c-0.8,0-1.5,0.2-2,0.7s-0.8,1.1-0.9,1.9v8.4h-2.2v-8.3
		c0-1.8-0.9-2.8-2.7-2.8c-1.4,0-2.4,0.6-2.9,1.8v9.3h-2.2v-12.7H289.7z"/>
	<path class="st4" d="M319.4,469c0,1.9-0.4,3.5-1.3,4.7s-2.1,1.8-3.6,1.8c-1.5,0-2.8-0.5-3.6-1.5v6.1h-2.2v-17.6h2l0.1,1.4
		c0.9-1.1,2.1-1.6,3.7-1.6c1.5,0,2.7,0.6,3.6,1.7s1.3,2.7,1.3,4.8V469z M317.2,468.8c0-1.4-0.3-2.6-0.9-3.4s-1.4-1.2-2.5-1.2
		c-1.3,0-2.3,0.6-3,1.7v6.1c0.6,1.2,1.6,1.7,3,1.7c1,0,1.9-0.4,2.5-1.2S317.2,470.4,317.2,468.8z"/>
	<path class="st4" d="M324.5,475.2h-2.2v-18h2.2V475.2z"/>
	<path class="st4" d="M333.2,475.4c-1.7,0-3.1-0.6-4.2-1.7s-1.6-2.6-1.6-4.5v-0.4c0-1.3,0.2-2.4,0.7-3.4s1.2-1.8,2-2.3
		s1.8-0.8,2.8-0.8c1.6,0,2.9,0.5,3.8,1.6s1.4,2.6,1.4,4.7v0.9h-8.6c0,1.2,0.4,2.3,1.1,3s1.6,1.2,2.7,1.2c0.8,0,1.4-0.2,1.9-0.5
		s1-0.7,1.4-1.2l1.3,1C337,474.6,335.4,475.4,333.2,475.4z M333,464.1c-0.9,0-1.6,0.3-2.2,1s-1,1.5-1.1,2.7h6.4v-0.2
		c-0.1-1.1-0.4-2-0.9-2.6S333.9,464.1,333,464.1z"/>
	<path class="st4" d="M348.1,471.8c0-0.6-0.2-1-0.7-1.4s-1.2-0.6-2.3-0.8s-2-0.5-2.6-0.8s-1.1-0.7-1.4-1.2s-0.5-1-0.5-1.6
		c0-1,0.4-1.9,1.3-2.6s2-1.1,3.4-1.1c1.4,0,2.6,0.4,3.5,1.1s1.3,1.7,1.3,2.8h-2.2c0-0.6-0.3-1.1-0.8-1.5s-1.1-0.6-1.9-0.6
		c-0.8,0-1.4,0.2-1.9,0.5s-0.7,0.8-0.7,1.3c0,0.5,0.2,0.9,0.6,1.2s1.2,0.5,2.2,0.8s2,0.5,2.6,0.9s1.2,0.7,1.5,1.2s0.5,1,0.5,1.7
		c0,1.1-0.5,2-1.4,2.7s-2.1,1-3.5,1c-1,0-1.9-0.2-2.7-0.5s-1.4-0.9-1.8-1.5s-0.7-1.3-0.7-2.1h2.2c0,0.7,0.3,1.3,0.9,1.7
		s1.3,0.6,2.2,0.6c0.8,0,1.5-0.2,2-0.5S348.1,472.4,348.1,471.8z"/>
</g>
<g class="st3">
	<path class="st4" d="M668.5,798c-0.2,0.1-0.7,0.2-1.3,0.3c1,1,1.6,2.2,1.6,3.6c0,1.2-0.4,2.3-1.1,3.1s-1.6,1.2-2.7,1.2
		c-1.3,0-2.3-0.5-3.1-1.5s-1.1-2.4-1.1-4.2v-2.1h-1c-0.8,0-1.4,0.2-1.8,0.7s-0.7,1.1-0.7,2c0,0.8,0.2,1.4,0.6,1.9s0.9,0.8,1.4,0.8
		v2.2c-0.6,0-1.2-0.2-1.8-0.7s-1.1-1.1-1.4-1.8s-0.5-1.6-0.5-2.5c0-1.5,0.4-2.6,1.1-3.4s1.7-1.3,3-1.3h5.8c1.2,0,2.1-0.1,2.8-0.4
		h0.2V798z M666.9,801.6c0-0.7-0.2-1.3-0.5-1.9s-0.8-1.1-1.4-1.3h-2.6v1.7c0,2.7,0.8,4,2.3,4c0.7,0,1.2-0.2,1.6-0.7
		S666.9,802.3,666.9,801.6z"/>
	<path class="st4" d="M655.9,790.7l1.4-0.1c-1.1-0.9-1.6-2.2-1.6-3.8c0-1.8,0.7-3,2-3.6c-0.6-0.4-1.1-1-1.5-1.6s-0.6-1.5-0.6-2.4
		c0-2.8,1.5-4.2,4.4-4.2h8.5v2.2h-8.4c-0.9,0-1.6,0.2-2,0.6s-0.7,1.1-0.7,2.1c0,0.8,0.2,1.5,0.7,2s1.1,0.8,1.9,0.9h8.4v2.2h-8.3
		c-1.8,0-2.8,0.9-2.8,2.7c0,1.4,0.6,2.4,1.8,2.9h9.3v2.2h-12.7V790.7z"/>
	<path class="st4" d="M662.3,761c1.9,0,3.5,0.4,4.7,1.3s1.8,2.1,1.8,3.6c0,1.5-0.5,2.8-1.5,3.6h6.1v2.2h-17.6v-2l1.4-0.1
		c-1.1-0.9-1.6-2.1-1.6-3.7c0-1.5,0.6-2.7,1.7-3.6s2.7-1.3,4.8-1.3H662.3z M662.1,763.2c-1.4,0-2.6,0.3-3.4,0.9s-1.2,1.4-1.2,2.5
		c0,1.3,0.6,2.3,1.7,3h6.1c1.2-0.6,1.7-1.6,1.7-3c0-1-0.4-1.9-1.2-2.5S663.7,763.2,662.1,763.2z"/>
	<path class="st4" d="M668.5,755.9v2.2h-18v-2.2H668.5z"/>
	<path class="st4" d="M652.5,752.4c-0.4,0-0.6-0.1-0.9-0.3s-0.4-0.5-0.4-1s0.1-0.7,0.4-1s0.5-0.3,0.9-0.3s0.6,0.1,0.9,0.3
		s0.4,0.5,0.4,1s-0.1,0.7-0.4,1S652.8,752.4,652.5,752.4z M668.5,750.1v2.2h-12.7v-2.2H668.5z"/>
	<path class="st4" d="M652.8,743.7h3.1v-2.4h1.7v2.4h7.9c0.5,0,0.9-0.1,1.1-0.3c0.3-0.2,0.4-0.6,0.4-1.1c0-0.2,0-0.6-0.1-1h1.7
		c0.2,0.6,0.2,1.1,0.2,1.7c0,1-0.3,1.7-0.9,2.2s-1.4,0.7-2.5,0.7h-7.9v2.3h-1.7v-2.3h-3.1V743.7z"/>
	<path class="st4" d="M667.3,730.9c1,0.8,1.5,2.1,1.5,3.7c0,1.4-0.4,2.4-1.2,3.1s-1.9,1.1-3.5,1.1h-8.2v-2.2h8.2
		c1.9,0,2.9-0.8,2.9-2.3c0-1.7-0.6-2.8-1.9-3.3h-9.2v-2.2h12.7v2.1L667.3,730.9z"/>
	<path class="st4" d="M662.1,726.1c-1.9,0-3.5-0.5-4.7-1.4s-1.8-2.1-1.8-3.6c0-1.5,0.5-2.7,1.5-3.5h-6.6v-2.2h18v2l-1.4,0.1
		c1.1,0.9,1.6,2.1,1.6,3.6c0,1.5-0.6,2.7-1.8,3.6s-2.8,1.4-4.7,1.4H662.1z M662.3,723.9c1.4,0,2.6-0.3,3.4-0.9s1.2-1.4,1.2-2.5
		c0-1.4-0.6-2.4-1.9-3h-5.8c-1.2,0.6-1.8,1.6-1.8,3c0,1.1,0.4,1.9,1.2,2.5S660.7,723.9,662.3,723.9z"/>
	<path class="st4" d="M668.8,706.7c0,1.7-0.6,3.1-1.7,4.2s-2.6,1.6-4.5,1.6h-0.4c-1.3,0-2.4-0.2-3.4-0.7s-1.8-1.2-2.3-2
		s-0.8-1.8-0.8-2.8c0-1.6,0.5-2.9,1.6-3.8s2.6-1.4,4.7-1.4h0.9v8.6c1.2,0,2.3-0.4,3-1.1s1.2-1.6,1.2-2.7c0-0.8-0.2-1.4-0.5-1.9
		s-0.7-1-1.2-1.4l1-1.3C667.9,703,668.8,704.6,668.8,706.7z M657.4,707c0,0.9,0.3,1.6,1,2.2s1.5,1,2.7,1.1V704h-0.2
		c-1.1,0.1-2,0.4-2.6,0.9S657.4,706.1,657.4,707z"/>
</g>
<g class="st3">
	<path class="st4" d="M943.9,1009.7c0,1.9-0.4,3.5-1.3,4.7s-2.1,1.8-3.6,1.8c-1.6,0-2.8-0.6-3.7-1.7l-0.1,1.5h-2v-18h2.2v6.7
		c0.9-1.1,2.1-1.6,3.6-1.6s2.7,0.6,3.6,1.7s1.3,2.8,1.3,4.8V1009.7z M941.8,1009.5c0-1.5-0.3-2.6-0.9-3.4s-1.4-1.2-2.5-1.2
		c-1.4,0-2.5,0.7-3.1,2v5.5c0.7,1.3,1.7,2,3.1,2c1,0,1.8-0.4,2.4-1.2S941.8,1011.1,941.8,1009.5z"/>
	<path class="st4" d="M946.7,999.9c0-0.4,0.1-0.6,0.3-0.9s0.5-0.4,1-0.4s0.7,0.1,1,0.4s0.3,0.5,0.3,0.9s-0.1,0.6-0.3,0.9
		s-0.5,0.4-1,0.4s-0.7-0.1-1-0.4S946.7,1000.2,946.7,999.9z M949,1015.9h-2.2v-12.7h2.2V1015.9z"/>
	<path class="st4" d="M954.5,1003.2l0.1,1.6c1-1.2,2.2-1.8,3.8-1.8c2.7,0,4,1.5,4.1,4.5v8.4h-2.2v-8.4c0-0.9-0.2-1.6-0.6-2
		s-1-0.7-1.9-0.7c-0.7,0-1.3,0.2-1.9,0.6s-0.9,0.9-1.2,1.5v9h-2.2v-12.7H954.5z"/>
	<path class="st4" d="M973.1,1012.5c0-0.6-0.2-1-0.7-1.4s-1.2-0.6-2.3-0.8s-2-0.5-2.6-0.8s-1.1-0.7-1.4-1.2s-0.5-1-0.5-1.6
		c0-1,0.4-1.9,1.3-2.6s2-1.1,3.4-1.1c1.4,0,2.6,0.4,3.5,1.1s1.3,1.7,1.3,2.8H973c0-0.6-0.3-1.1-0.8-1.5s-1.1-0.6-1.9-0.6
		c-0.8,0-1.4,0.2-1.9,0.5s-0.7,0.8-0.7,1.3c0,0.5,0.2,0.9,0.6,1.2s1.2,0.5,2.2,0.8s2,0.5,2.6,0.9s1.2,0.7,1.5,1.2s0.5,1,0.5,1.7
		c0,1.1-0.5,2-1.4,2.7s-2.1,1-3.5,1c-1,0-1.9-0.2-2.7-0.5s-1.4-0.9-1.8-1.5s-0.7-1.3-0.7-2.1h2.2c0,0.7,0.3,1.3,0.9,1.7
		s1.3,0.6,2.2,0.6c0.8,0,1.5-0.2,2-0.5S973.1,1013.1,973.1,1012.5z"/>
</g>
<g class="st3">
	<path class="st4" d="M707.9,259.8h-5.7v-1.8h5.7V259.8z"/>
	<path class="st4" d="M710.7,257.7l0.9-8.5h8.7v2h-6.9l-0.5,4.7c0.8-0.5,1.8-0.7,2.8-0.7c1.6,0,2.8,0.5,3.7,1.5s1.4,2.4,1.4,4.2
		c0,1.8-0.5,3.1-1.4,4.2s-2.3,1.5-4,1.5c-1.5,0-2.7-0.4-3.7-1.3s-1.5-2-1.6-3.5h2.1c0.1,1,0.5,1.7,1,2.2s1.3,0.7,2.2,0.7
		c1,0,1.8-0.3,2.4-1s0.9-1.6,0.9-2.8c0-1.1-0.3-2.1-0.9-2.7s-1.4-1-2.5-1c-0.9,0-1.7,0.2-2.2,0.6l-0.6,0.5L710.7,257.7z"/>
	<path class="st4" d="M733.9,258.9c0,2.5-0.4,4.4-1.3,5.7s-2.2,1.9-4.1,1.9c-1.8,0-3.2-0.6-4-1.8s-1.3-3-1.4-5.4v-2.9
		c0-2.5,0.4-4.4,1.3-5.6s2.2-1.8,4.1-1.8c1.8,0,3.2,0.6,4.1,1.8s1.3,3,1.3,5.4V258.9z M731.7,256c0-1.8-0.3-3.2-0.8-4
		s-1.3-1.3-2.4-1.3c-1.1,0-1.9,0.4-2.4,1.3s-0.8,2.1-0.8,3.9v3.5c0,1.8,0.3,3.2,0.8,4.1s1.3,1.3,2.4,1.3c1.1,0,1.9-0.4,2.4-1.2
		s0.8-2.1,0.8-3.9V256z"/>
</g>
<g class="st3">
	<path class="st4" d="M733.9,78.9c0,2.5-0.4,4.4-1.3,5.7s-2.2,1.9-4.1,1.9c-1.8,0-3.2-0.6-4-1.8s-1.3-3-1.4-5.4v-2.9
		c0-2.5,0.4-4.4,1.3-5.6s2.2-1.8,4.1-1.8c1.8,0,3.2,0.6,4.1,1.8s1.3,3,1.3,5.4V78.9z M731.7,76c0-1.8-0.3-3.2-0.8-4
		s-1.3-1.3-2.4-1.3c-1.1,0-1.9,0.4-2.4,1.3s-0.8,2.1-0.8,3.9v3.5c0,1.8,0.3,3.2,0.8,4.1s1.3,1.3,2.4,1.3c1.1,0,1.9-0.4,2.4-1.2
		s0.8-2.1,0.8-3.9V76z"/>
</g>
<g class="st3">
	<path class="st4" d="M707.9,187.8h-5.7v-1.8h5.7V187.8z"/>
	<path class="st4" d="M712.9,184.6h1.6c1,0,1.8-0.3,2.4-0.8s0.9-1.2,0.9-2.1c0-2-1-3-3-3c-0.9,0-1.7,0.3-2.2,0.8s-0.8,1.2-0.8,2.1
		h-2.2c0-1.4,0.5-2.5,1.5-3.4s2.2-1.3,3.8-1.3c1.6,0,2.9,0.4,3.8,1.3s1.4,2,1.4,3.6c0,0.7-0.2,1.5-0.7,2.2s-1.1,1.2-2,1.6
		c0.9,0.3,1.7,0.8,2.2,1.5s0.8,1.5,0.8,2.5c0,1.5-0.5,2.7-1.5,3.6s-2.3,1.3-3.9,1.3s-2.9-0.4-3.9-1.3s-1.5-2-1.5-3.4h2.2
		c0,0.9,0.3,1.6,0.9,2.2s1.4,0.8,2.4,0.8c1,0,1.8-0.3,2.4-0.8s0.8-1.3,0.8-2.4c0-1-0.3-1.8-0.9-2.3s-1.5-0.8-2.6-0.8h-1.6V184.6z"/>
	<path class="st4" d="M733.9,186.9c0,2.5-0.4,4.4-1.3,5.7s-2.2,1.9-4.1,1.9c-1.8,0-3.2-0.6-4-1.8s-1.3-3-1.4-5.4v-2.9
		c0-2.5,0.4-4.4,1.3-5.6s2.2-1.8,4.1-1.8c1.8,0,3.2,0.6,4.1,1.8s1.3,3,1.3,5.4V186.9z M731.7,184c0-1.8-0.3-3.2-0.8-4
		s-1.3-1.3-2.4-1.3c-1.1,0-1.9,0.4-2.4,1.3s-0.8,2.1-0.8,3.9v3.5c0,1.8,0.3,3.2,0.8,4.1s1.3,1.3,2.4,1.3c1.1,0,1.9-0.4,2.4-1.2
		s0.8-2.1,0.8-3.9V184z"/>
</g>
<g class="st3">
	<path class="st4" d="M707.9,223.8h-5.7v-1.8h5.7V223.8z"/>
	<path class="st4" d="M718.9,224.5h2.4v1.8h-2.4v4h-2.2v-4h-7.8V225l7.6-11.8h2.3V224.5z M711.4,224.5h5.3v-8.4l-0.3,0.5
		L711.4,224.5z"/>
	<path class="st4" d="M733.9,222.9c0,2.5-0.4,4.4-1.3,5.7s-2.2,1.9-4.1,1.9c-1.8,0-3.2-0.6-4-1.8s-1.3-3-1.4-5.4v-2.9
		c0-2.5,0.4-4.4,1.3-5.6s2.2-1.8,4.1-1.8c1.8,0,3.2,0.6,4.1,1.8s1.3,3,1.3,5.4V222.9z M731.7,220c0-1.8-0.3-3.2-0.8-4
		s-1.3-1.3-2.4-1.3c-1.1,0-1.9,0.4-2.4,1.3s-0.8,2.1-0.8,3.9v3.5c0,1.8,0.3,3.2,0.8,4.1s1.3,1.3,2.4,1.3c1.1,0,1.9-0.4,2.4-1.2
		s0.8-2.1,0.8-3.9V220z"/>
</g>
<g class="st3">
	<path class="st4" d="M707.9,151.8h-5.7v-1.8h5.7V151.8z"/>
	<path class="st4" d="M720.9,158.2h-11.2v-1.6l5.9-6.6c0.9-1,1.5-1.8,1.8-2.4s0.5-1.3,0.5-1.9c0-0.9-0.3-1.6-0.8-2.2
		s-1.3-0.9-2.2-0.9c-1.1,0-1.9,0.3-2.5,0.9s-0.9,1.5-0.9,2.6h-2.2c0-1.6,0.5-2.8,1.5-3.8s2.4-1.5,4.1-1.5c1.6,0,2.8,0.4,3.8,1.2
		s1.4,1.9,1.4,3.3c0,1.7-1.1,3.7-3.2,6l-4.6,5h8.6V158.2z"/>
	<path class="st4" d="M733.9,150.9c0,2.5-0.4,4.4-1.3,5.7s-2.2,1.9-4.1,1.9c-1.8,0-3.2-0.6-4-1.8s-1.3-3-1.4-5.4v-2.9
		c0-2.5,0.4-4.4,1.3-5.6s2.2-1.8,4.1-1.8c1.8,0,3.2,0.6,4.1,1.8s1.3,3,1.3,5.4V150.9z M731.7,148c0-1.8-0.3-3.2-0.8-4
		s-1.3-1.3-2.4-1.3c-1.1,0-1.9,0.4-2.4,1.3s-0.8,2.1-0.8,3.9v3.5c0,1.8,0.3,3.2,0.8,4.1s1.3,1.3,2.4,1.3c1.1,0,1.9-0.4,2.4-1.2
		s0.8-2.1,0.8-3.9V148z"/>
</g>
<g class="st3">
	<path class="st4" d="M707.9,115.8h-5.7v-1.8h5.7V115.8z"/>
	<path class="st4" d="M716.9,122.2h-2.2v-14.4l-4.4,1.6v-2l6.2-2.3h0.3V122.2z"/>
	<path class="st4" d="M733.9,114.9c0,2.5-0.4,4.4-1.3,5.7s-2.2,1.9-4.1,1.9c-1.8,0-3.2-0.6-4-1.8s-1.3-3-1.4-5.4v-2.9
		c0-2.5,0.4-4.4,1.3-5.6s2.2-1.8,4.1-1.8c1.8,0,3.2,0.6,4.1,1.8s1.3,3,1.3,5.4V114.9z M731.7,112c0-1.8-0.3-3.2-0.8-4
		s-1.3-1.3-2.4-1.3c-1.1,0-1.9,0.4-2.4,1.3s-0.8,2.1-0.8,3.9v3.5c0,1.8,0.3,3.2,0.8,4.1s1.3,1.3,2.4,1.3c1.1,0,1.9-0.4,2.4-1.2
		s0.8-2.1,0.8-3.9V112z"/>
</g>
<g class="st3">
	<path class="st4" d="M959.4,473.3c0,2.5-0.4,4.4-1.3,5.7s-2.2,1.9-4.1,1.9c-1.8,0-3.2-0.6-4-1.8s-1.3-3-1.4-5.4v-2.9
		c0-2.5,0.4-4.4,1.3-5.6s2.2-1.8,4.1-1.8c1.8,0,3.2,0.6,4.1,1.8s1.3,3,1.3,5.4V473.3z M957.2,470.4c0-1.8-0.3-3.2-0.8-4
		s-1.3-1.3-2.4-1.3c-1.1,0-1.9,0.4-2.4,1.3s-0.8,2.1-0.8,3.9v3.5c0,1.8,0.3,3.2,0.8,4.1s1.3,1.3,2.4,1.3c1.1,0,1.9-0.4,2.4-1.2
		s0.8-2.1,0.8-3.9V470.4z"/>
</g>
<g class="st3">
	<path class="st4" d="M668.5,294c-0.2,0.1-0.7,0.2-1.3,0.3c1,1,1.6,2.2,1.6,3.6c0,1.2-0.4,2.3-1.1,3.1s-1.6,1.2-2.7,1.2
		c-1.3,0-2.3-0.5-3.1-1.5s-1.1-2.4-1.1-4.2v-2.1h-1c-0.8,0-1.4,0.2-1.8,0.7s-0.7,1.1-0.7,2c0,0.8,0.2,1.4,0.6,1.9s0.9,0.8,1.4,0.8
		v2.2c-0.6,0-1.2-0.2-1.8-0.7s-1.1-1.1-1.4-1.8s-0.5-1.6-0.5-2.5c0-1.5,0.4-2.6,1.1-3.4s1.7-1.3,3-1.3h5.8c1.2,0,2.1-0.1,2.8-0.4
		h0.2V294z M666.9,297.6c0-0.7-0.2-1.3-0.5-1.9s-0.8-1.1-1.4-1.3h-2.6v1.7c0,2.7,0.8,4,2.3,4c0.7,0,1.2-0.2,1.6-0.7
		S666.9,298.3,666.9,297.6z"/>
	<path class="st4" d="M655.9,286.7l1.4-0.1c-1.1-0.9-1.6-2.2-1.6-3.8c0-1.8,0.7-3,2-3.6c-0.6-0.4-1.1-1-1.5-1.6s-0.6-1.5-0.6-2.4
		c0-2.8,1.5-4.2,4.4-4.2h8.5v2.2h-8.4c-0.9,0-1.6,0.2-2,0.6s-0.7,1.1-0.7,2.1c0,0.8,0.2,1.5,0.7,2s1.1,0.8,1.9,0.9h8.4v2.2h-8.3
		c-1.8,0-2.8,0.9-2.8,2.7c0,1.4,0.6,2.4,1.8,2.9h9.3v2.2h-12.7V286.7z"/>
	<path class="st4" d="M662.3,257c1.9,0,3.5,0.4,4.7,1.3s1.8,2.1,1.8,3.6c0,1.5-0.5,2.8-1.5,3.6h6.1v2.2h-17.6v-2l1.4-0.1
		c-1.1-0.9-1.6-2.1-1.6-3.7c0-1.5,0.6-2.7,1.7-3.6s2.7-1.3,4.8-1.3H662.3z M662.1,259.2c-1.4,0-2.6,0.3-3.4,0.9s-1.2,1.4-1.2,2.5
		c0,1.3,0.6,2.3,1.7,3h6.1c1.2-0.6,1.7-1.6,1.7-3c0-1-0.4-1.9-1.2-2.5S663.7,259.2,662.1,259.2z"/>
	<path class="st4" d="M668.5,251.9v2.2h-18v-2.2H668.5z"/>
	<path class="st4" d="M652.5,248.4c-0.4,0-0.6-0.1-0.9-0.3s-0.4-0.5-0.4-1s0.1-0.7,0.4-1s0.5-0.3,0.9-0.3s0.6,0.1,0.9,0.3
		s0.4,0.5,0.4,1s-0.1,0.7-0.4,1S652.8,248.4,652.5,248.4z M668.5,246.1v2.2h-12.7v-2.2H668.5z"/>
	<path class="st4" d="M652.8,239.7h3.1v-2.4h1.7v2.4h7.9c0.5,0,0.9-0.1,1.1-0.3c0.3-0.2,0.4-0.6,0.4-1.1c0-0.2,0-0.6-0.1-1h1.7
		c0.2,0.6,0.2,1.1,0.2,1.7c0,1-0.3,1.7-0.9,2.2s-1.4,0.7-2.5,0.7h-7.9v2.3h-1.7v-2.3h-3.1V239.7z"/>
	<path class="st4" d="M667.3,226.9c1,0.8,1.5,2.1,1.5,3.7c0,1.4-0.4,2.4-1.2,3.1s-1.9,1.1-3.5,1.1h-8.2v-2.2h8.2
		c1.9,0,2.9-0.8,2.9-2.3c0-1.7-0.6-2.8-1.9-3.3h-9.2v-2.2h12.7v2.1L667.3,226.9z"/>
	<path class="st4" d="M662.1,222.1c-1.9,0-3.5-0.5-4.7-1.4s-1.8-2.1-1.8-3.6c0-1.5,0.5-2.7,1.5-3.5h-6.6v-2.2h18v2l-1.4,0.1
		c1.1,0.9,1.6,2.1,1.6,3.6c0,1.5-0.6,2.7-1.8,3.6s-2.8,1.4-4.7,1.4H662.1z M662.3,219.9c1.4,0,2.6-0.3,3.4-0.9s1.2-1.4,1.2-2.5
		c0-1.4-0.6-2.4-1.9-3h-5.8c-1.2,0.6-1.8,1.6-1.8,3c0,1.1,0.4,1.9,1.2,2.5S660.7,219.9,662.3,219.9z"/>
	<path class="st4" d="M668.8,202.7c0,1.7-0.6,3.1-1.7,4.2s-2.6,1.6-4.5,1.6h-0.4c-1.3,0-2.4-0.2-3.4-0.7s-1.8-1.2-2.3-2
		s-0.8-1.8-0.8-2.8c0-1.6,0.5-2.9,1.6-3.8s2.6-1.4,4.7-1.4h0.9v8.6c1.2,0,2.3-0.4,3-1.1s1.2-1.6,1.2-2.7c0-0.8-0.2-1.4-0.5-1.9
		s-0.7-1-1.2-1.4l1-1.3C667.9,199,668.8,200.6,668.8,202.7z M657.4,203c0,0.9,0.3,1.6,1,2.2s1.5,1,2.7,1.1V200h-0.2
		c-1.1,0.1-2,0.4-2.6,0.9S657.4,202.1,657.4,203z"/>
</g>
<g class="st3">
	<path class="st4" d="M943.9,505.7c0,1.9-0.4,3.5-1.3,4.7s-2.1,1.8-3.6,1.8c-1.6,0-2.8-0.6-3.7-1.7l-0.1,1.5h-2v-18h2.2v6.7
		c0.9-1.1,2.1-1.6,3.6-1.6s2.7,0.6,3.6,1.7s1.3,2.8,1.3,4.8V505.7z M941.8,505.5c0-1.5-0.3-2.6-0.9-3.4s-1.4-1.2-2.5-1.2
		c-1.4,0-2.5,0.7-3.1,2v5.5c0.7,1.3,1.7,2,3.1,2c1,0,1.8-0.4,2.4-1.2S941.8,507.1,941.8,505.5z"/>
	<path class="st4" d="M946.7,495.9c0-0.4,0.1-0.6,0.3-0.9s0.5-0.4,1-0.4s0.7,0.1,1,0.4s0.3,0.5,0.3,0.9s-0.1,0.6-0.3,0.9
		s-0.5,0.4-1,0.4s-0.7-0.1-1-0.4S946.7,496.2,946.7,495.9z M949,511.9h-2.2v-12.7h2.2V511.9z"/>
	<path class="st4" d="M954.5,499.2l0.1,1.6c1-1.2,2.2-1.8,3.8-1.8c2.7,0,4,1.5,4.1,4.5v8.4h-2.2v-8.4c0-0.9-0.2-1.6-0.6-2
		s-1-0.7-1.9-0.7c-0.7,0-1.3,0.2-1.9,0.6s-0.9,0.9-1.2,1.5v9h-2.2v-12.7H954.5z"/>
	<path class="st4" d="M973.1,508.5c0-0.6-0.2-1-0.7-1.4s-1.2-0.6-2.3-0.8s-2-0.5-2.6-0.8s-1.1-0.7-1.4-1.2s-0.5-1-0.5-1.6
		c0-1,0.4-1.9,1.3-2.6s2-1.1,3.4-1.1c1.4,0,2.6,0.4,3.5,1.1s1.3,1.7,1.3,2.8H973c0-0.6-0.3-1.1-0.8-1.5s-1.1-0.6-1.9-0.6
		c-0.8,0-1.4,0.2-1.9,0.5s-0.7,0.8-0.7,1.3c0,0.5,0.2,0.9,0.6,1.2s1.2,0.5,2.2,0.8s2,0.5,2.6,0.9s1.2,0.7,1.5,1.2s0.5,1,0.5,1.7
		c0,1.1-0.5,2-1.4,2.7s-2.1,1-3.5,1c-1,0-1.9-0.2-2.7-0.5s-1.4-0.9-1.8-1.5s-0.7-1.3-0.7-2.1h2.2c0,0.7,0.3,1.3,0.9,1.7
		s1.3,0.6,2.2,0.6c0.8,0,1.5-0.2,2-0.5S973.1,509.1,973.1,508.5z"/>
</g>
<path class="st1" d="M504,583.2H108"/>
<path class="st1" d="M954,565.2v378"/>
<path class="st1" d="M855,565.2v378"/>
<path class="st1" d="M1053,565.2v378"/>
<path class="st1" d="M954,61.2v378"/>
<path class="st1" d="M855,61.2v378"/>
<path class="st1" d="M1152,367.2H756"/>
<rect x="756" y="61.2" class="st2" width="396" height="378"/>
<path class="st1" d="M1152,295.2H756"/>
<path class="st1" d="M1152,223.2H756"/>
<path class="st1" d="M1152,151.2H756"/>
<path class="st1" d="M1053,61.2v378"/>
<path class="st1" d="M1152,79.2H756"/>
<path class="st1" d="M306,61.2v378"/>
<path class="st1" d="M207,61.2v378"/>
<path class="st1" d="M504,367.2H108"/>
<rect x="108" y="61.2" class="st2" width="396" height="378"/>
<path class="st1" d="M504,295.2H108"/>
<path class="st1" d="M504,223.2H108"/>
<path class="st1" d="M504,151.2H108"/>
<path class="st1" d="M405,61.2v378"/>
<path class="st1" d="M504,79.2H108"/>
<line class="st0" x1="108" y1="79.2" x2="504" y2="79.2"/>
<path class="st5" d="M953.1,80.1l1.9,0.5l1.9,1.4l1.9,2.5l1.9,3.6l1.9,5l1.9,6.7l1.9,9.1l1.9,12.9l1.9,21.6l2,94.2l1.8-87.3
	l1.9-16.4l1.9-7l1.9-2.6l1.9,0.5l1.9,3.2l1.9,6.3l1.9,10.6l1.9,19.5l1.9,94.8l1.9-89.7l1.9-17.8l1.9-8.2l1.9-3.6l1.9-0.4l1.9,2.4
	l1.9,5.6l1.9,9.9l1.9,18.7l1.9,83.2l1.9-77.9l1.9-18.6l1.9-8.7l1.9-4l1.9-0.8l1.9,2.1l1.9,5.2l1.9,9.5l1.9,18.1l3.1,68l0.7-62
	l1.9-19.1l1.9-9l1.9-4.3l1.9-1.1l1.9,1.8l1.9,4.9l1.9,9.3l1.9,17.7l2.3,83.5l1.5-76.7l1.9-19.6l1.9-9.3l1.9-4.5l1.9-1.2l1.9,1.6
	l1.9,4.8l1.9,9l1.9,17.3l1.5,112.8l2.3-105.1l1.9-20.1l1.9-9.5l1.9-4.7l1.9-1.4l1.9,1.5l1.9,4.6l1.9,8.9l1.9,17l2.4,105.2l1.3-96.5
	l1.9-20.5l1.9-9.7l1.9-4.8l1.9-1.5l1.9,1.4l1.9,4.5l1.9,8.7l1.9,16.7l1.6,78.4l2.1-68.7l1.9-21l1.9-9.9l1.9-4.9l1.9-1.6l1.9,1.3
	l1.9,4.4l1.9,8.6l1.9,16.4l2.6,64.6l1.2-53.8l1.9-21.4l1.9-10l1.9-5.1l1.9-1.7l1.9,1.2l1.9,4.3l3.8,10.9l1.8,41.4"/>
<path class="st5" d="M1009.8,799.2v-54.4l2-13.4l2-6.6l2-3.2l2-0.8l2,1.3l2,3.7l2,7.1l2,14l3.8,86.5"/>
<path class="st5" d="M1029.6,833.4v-65.9l2-13.4l2-6.6l2-3.2l2-0.8l2,1.3l2,3.7l2,7.1l2,14.1l2,40.4"/>
<path class="st5" d="M990,774l0.2-56.9l2-15l2-8.1l2-4.5l2-1.9l2,0.5l2,3l2,6.5l2,13.7l3.6,87.9"/>
<path class="st5" d="M954,583.5l1.8,0.2l1.8,0.5l1.8,0.8l1.8,1.2l1.8,1.6l1.8,1.9l1.8,2.3l1.8,2.8l1.8,3.2l1.8,3.7l1.8,4.2l1.8,4.8
	l1.8,5.5l1.8,6.3l1.8,7.3l1.8,8.7l1.8,10.5l1.8,13.5l1.8,20.1l1.8,75.1"/>
<path class="st5" d="M918,757.9l1.8-75.1l1.8-20.1l1.8-13.5l1.8-10.5l1.8-8.7l1.8-7.3l1.8-6.3l1.8-5.5l1.8-4.8l1.8-4.2l1.8-3.7
	l1.8-3.2l1.8-2.8l1.8-2.3l1.8-1.9l1.8-1.6l1.8-1.2l1.8-0.8l1.8-0.5l1.8-0.2"/>
<path class="st5" d="M896.4,801l3.6-89.7l2-13.7l2-6.5l2-3l2-0.5l2,1.9l2,4.5l2,8.1l2,15l2,58.5"/>
<path class="st5" d="M858.6,808.2l1.8-38.6l2-14.1l2-7.1l2-3.7l2-1.3l2,0.8l2,3.2l2,6.6l2,13.4l2,69.5"/>
<path class="st5" d="M840.4,911.7l1.8-124.3l2.2-14.9l2-7.1l2-3.7l2-1.3l2,0.8l2,3.2l2,6.6l2,13.4l0.2,85"/>
<path class="st5" d="M765,217.8l3.7-25.9l1.9-8.4l1.9-4.3l1.9-1.2l1.9,1.7l1.9,5.1l1.9,10l1.9,21.4l3,55.6l0.8-66.4l1.9-16.4
	l1.9-8.6l1.9-4.4l1.9-1.3l1.9,1.6l1.9,4.9l1.9,9.9l1.9,21l2.1,68.7l1.6-78.4l1.9-16.7l1.9-8.7l1.9-4.5l1.9-1.4l1.9,1.5l1.9,4.8
	l1.9,9.7l1.9,20.5l1.3,98.3l2.5-107l1.9-17l1.9-8.9l1.9-4.6l1.9-1.5l1.9,1.4l1.9,4.7l1.9,9.5l1.9,20.1l2.3,112.3l1.5-120l1.9-17.3
	l1.9-9l1.9-4.8l1.9-1.6l1.9,1.2l1.9,4.5l1.9,9.3l1.9,19.6l1.5,76.7l2.3-83.5l1.9-17.7l1.9-9.3l1.9-4.9l1.9-1.8l1.9,1.1l1.9,4.3
	l1.9,9l1.9,19.1l1.9,69.2l1.9-75.1l1.9-18.1l1.9-9.5l1.9-5.2l1.9-2.1l1.9,0.8l1.9,4l1.9,8.7l1.9,18.6l1.9,77.9l1.9-83.2l1.9-18.7
	l1.9-9.9l1.9-5.6l1.9-2.4l1.9,0.4l1.9,3.6l1.9,8.2l1.9,17.8l1.9,89.7l1.9-94.8l1.9-19.5l1.9-10.6l1.9-6.3l1.9-3.2l1.9-0.5l1.9,2.6
	l1.9,7l1.9,16.4l1.8,87.3l2-94.2l1.9-21.6l1.9-12.9l1.9-9.1l1.9-6.7l1.9-5l1.9-3.6l1.9-2.5l1.9-1.4l1.9-0.5"/>
<path class="st1" d="M805.5,61.2v378"/>
<path class="st1" d="M904.5,61.2v378"/>
<path class="st1" d="M1003.5,61.2v378"/>
<path class="st1" d="M1102.5,61.2v378"/>
<g class="st3">
	<path class="st4" d="M745.4,474.2h-5.7v-1.8h5.7V474.2z"/>
	<path class="st4" d="M754.4,480.6h-2.2v-14.4l-4.4,1.6v-2l6.2-2.3h0.3V480.6z"/>
	<path class="st4" d="M761.7,472l0.9-8.5h8.7v2h-6.9l-0.5,4.7c0.8-0.5,1.8-0.7,2.8-0.7c1.6,0,2.8,0.5,3.7,1.5s1.4,2.4,1.4,4.2
		c0,1.8-0.5,3.1-1.4,4.2s-2.3,1.5-4,1.5c-1.5,0-2.7-0.4-3.7-1.3s-1.5-2-1.6-3.5h2.1c0.1,1,0.5,1.7,1,2.2s1.3,0.7,2.2,0.7
		c1,0,1.8-0.3,2.4-1s0.9-1.6,0.9-2.8c0-1.1-0.3-2.1-0.9-2.7s-1.4-1-2.5-1c-0.9,0-1.7,0.2-2.2,0.6l-0.6,0.5L761.7,472z"/>
</g>
<g class="st3">
	<path class="st4" d="M1147.1,480.6h-2.2v-14.4l-4.4,1.6v-2l6.2-2.3h0.3V480.6z"/>
	<path class="st4" d="M1154.4,472l0.9-8.5h8.7v2h-6.9l-0.5,4.7c0.8-0.5,1.8-0.7,2.8-0.7c1.6,0,2.8,0.5,3.7,1.5s1.4,2.4,1.4,4.2
		c0,1.8-0.5,3.1-1.4,4.2s-2.3,1.5-4,1.5c-1.5,0-2.7-0.4-3.7-1.3s-1.5-2-1.6-3.5h2.1c0.1,1,0.5,1.7,1,2.2s1.3,0.7,2.2,0.7
		c1,0,1.8-0.3,2.4-1s0.9-1.6,0.9-2.8c0-1.1-0.3-2.1-0.9-2.7s-1.4-1-2.5-1c-0.9,0-1.7,0.2-2.2,0.6l-0.6,0.5L1154.4,472z"/>
</g>
<path class="st1" d="M1152,115.2H756"/>
<path class="st1" d="M1152,403.2H756"/>
<path class="st1" d="M1152,331.2H756"/>
<path class="st1" d="M1152,259.2H756"/>
<path class="st1" d="M1152,187.2H756"/>
<path class="st1" d="M1152,115.2H756"/>
<g class="st3">
	<path class="st4" d="M707.9,295.8h-5.7v-1.8h5.7V295.8z"/>
	<path class="st4" d="M718.2,285.1v1.8h-0.4c-1.7,0-3,0.5-4,1.5s-1.6,2.3-1.7,4.1c0.9-1,2.1-1.5,3.7-1.5c1.5,0,2.7,0.5,3.6,1.6
		s1.3,2.4,1.3,4.1c0,1.8-0.5,3.2-1.4,4.2s-2.2,1.6-3.8,1.6c-1.6,0-3-0.6-4-1.9s-1.5-2.9-1.5-4.8v-0.8c0-3.1,0.7-5.5,2-7.2
		s3.3-2.5,6-2.5H718.2z M715.4,292.8c-0.7,0-1.4,0.2-2.1,0.7s-1.1,1-1.3,1.7v0.8c0,1.4,0.3,2.5,0.9,3.4s1.4,1.3,2.4,1.3
		c1,0,1.7-0.4,2.3-1.1s0.8-1.7,0.8-2.8c0-1.2-0.3-2.1-0.8-2.8S716.3,292.8,715.4,292.8z"/>
	<path class="st4" d="M733.9,294.9c0,2.5-0.4,4.4-1.3,5.7s-2.2,1.9-4.1,1.9c-1.8,0-3.2-0.6-4-1.8s-1.3-3-1.4-5.4v-2.9
		c0-2.5,0.4-4.4,1.3-5.6s2.2-1.8,4.1-1.8c1.8,0,3.2,0.6,4.1,1.8s1.3,3,1.3,5.4V294.9z M731.7,292c0-1.8-0.3-3.2-0.8-4
		s-1.3-1.3-2.4-1.3c-1.1,0-1.9,0.4-2.4,1.3s-0.8,2.1-0.8,3.9v3.5c0,1.8,0.3,3.2,0.8,4.1s1.3,1.3,2.4,1.3c1.1,0,1.9-0.4,2.4-1.2
		s0.8-2.1,0.8-3.9V292z"/>
</g>
<g class="st3">
	<path class="st4" d="M707.9,331.8h-5.7v-1.8h5.7V331.8z"/>
	<path class="st4" d="M720.8,322.4l-7.1,15.8h-2.3l7-15.3h-9.2v-1.8h11.5V322.4z"/>
	<path class="st4" d="M733.9,330.9c0,2.5-0.4,4.4-1.3,5.7s-2.2,1.9-4.1,1.9c-1.8,0-3.2-0.6-4-1.8s-1.3-3-1.4-5.4v-2.9
		c0-2.5,0.4-4.4,1.3-5.6s2.2-1.8,4.1-1.8c1.8,0,3.2,0.6,4.1,1.8s1.3,3,1.3,5.4V330.9z M731.7,328c0-1.8-0.3-3.2-0.8-4
		s-1.3-1.3-2.4-1.3c-1.1,0-1.9,0.4-2.4,1.3s-0.8,2.1-0.8,3.9v3.5c0,1.8,0.3,3.2,0.8,4.1s1.3,1.3,2.4,1.3c1.1,0,1.9-0.4,2.4-1.2
		s0.8-2.1,0.8-3.9V328z"/>
</g>
<g class="st3">
	<path class="st4" d="M707.9,367.8h-5.7v-1.8h5.7V367.8z"/>
	<path class="st4" d="M720.1,361.6c0,0.9-0.2,1.6-0.7,2.3s-1.1,1.2-1.8,1.6c0.9,0.4,1.6,0.9,2.1,1.7s0.8,1.6,0.8,2.5
		c0,1.5-0.5,2.7-1.5,3.5s-2.3,1.3-3.9,1.3c-1.6,0-3-0.4-3.9-1.3s-1.5-2.1-1.5-3.5c0-0.9,0.3-1.8,0.8-2.5s1.2-1.3,2.1-1.7
		c-0.8-0.4-1.4-0.9-1.8-1.6s-0.7-1.4-0.7-2.3c0-1.4,0.5-2.6,1.4-3.4s2.1-1.3,3.6-1.3c1.5,0,2.7,0.4,3.6,1.3S720.1,360.2,720.1,361.6
		z M718.3,369.6c0-1-0.3-1.7-0.9-2.3s-1.4-0.9-2.4-0.9s-1.8,0.3-2.3,0.9s-0.9,1.4-0.9,2.3s0.3,1.7,0.9,2.3s1.4,0.8,2.4,0.8
		c1,0,1.8-0.3,2.4-0.8S718.3,370.5,718.3,369.6z M715.1,358.7c-0.9,0-1.5,0.3-2.1,0.8s-0.8,1.2-0.8,2.2c0,0.9,0.3,1.6,0.8,2.1
		s1.2,0.8,2.1,0.8s1.6-0.3,2.1-0.8s0.8-1.2,0.8-2.1s-0.3-1.6-0.8-2.1S715.9,358.7,715.1,358.7z"/>
	<path class="st4" d="M733.9,366.9c0,2.5-0.4,4.4-1.3,5.7s-2.2,1.9-4.1,1.9c-1.8,0-3.2-0.6-4-1.8s-1.3-3-1.4-5.4v-2.9
		c0-2.5,0.4-4.4,1.3-5.6s2.2-1.8,4.1-1.8c1.8,0,3.2,0.6,4.1,1.8s1.3,3,1.3,5.4V366.9z M731.7,364c0-1.8-0.3-3.2-0.8-4
		s-1.3-1.3-2.4-1.3c-1.1,0-1.9,0.4-2.4,1.3s-0.8,2.1-0.8,3.9v3.5c0,1.8,0.3,3.2,0.8,4.1s1.3,1.3,2.4,1.3c1.1,0,1.9-0.4,2.4-1.2
		s0.8-2.1,0.8-3.9V364z"/>
</g>
<g class="st3">
	<path class="st4" d="M707.9,403.8h-5.7v-1.8h5.7V403.8z"/>
	<path class="st4" d="M718,402.7c-0.5,0.5-1,1-1.6,1.3s-1.3,0.5-2.1,0.5c-1,0-1.8-0.2-2.6-0.7s-1.3-1.2-1.7-2s-0.6-1.8-0.6-2.9
		c0-1.1,0.2-2.2,0.7-3.1s1-1.6,1.8-2.1s1.7-0.7,2.8-0.7c1.7,0,3,0.6,4,1.9s1.5,3,1.5,5.2v0.6c0,3.3-0.7,5.7-2,7.3s-3.3,2.3-5.9,2.3
		h-0.4v-1.8h0.5c1.8,0,3.2-0.5,4.1-1.4S718,404.7,718,402.7z M714.7,402.7c0.7,0,1.4-0.2,2-0.7s1.1-1,1.3-1.7v-0.9
		c0-1.4-0.3-2.6-0.9-3.5s-1.4-1.3-2.3-1.3c-1,0-1.7,0.4-2.3,1.1s-0.9,1.7-0.9,2.9c0,1.2,0.3,2.1,0.8,2.9S713.8,402.7,714.7,402.7z"
		/>
	<path class="st4" d="M733.9,402.9c0,2.5-0.4,4.4-1.3,5.7s-2.2,1.9-4.1,1.9c-1.8,0-3.2-0.6-4-1.8s-1.3-3-1.4-5.4v-2.9
		c0-2.5,0.4-4.4,1.3-5.6s2.2-1.8,4.1-1.8c1.8,0,3.2,0.6,4.1,1.8s1.3,3,1.3,5.4V402.9z M731.7,400c0-1.8-0.3-3.2-0.8-4
		s-1.3-1.3-2.4-1.3c-1.1,0-1.9,0.4-2.4,1.3s-0.8,2.1-0.8,3.9v3.5c0,1.8,0.3,3.2,0.8,4.1s1.3,1.3,2.4,1.3c1.1,0,1.9-0.4,2.4-1.2
		s0.8-2.1,0.8-3.9V400z"/>
</g>
<g class="st3">
	<path class="st4" d="M694.4,439.8h-5.7v-1.8h5.7V439.8z"/>
	<path class="st4" d="M703.4,446.2h-2.2v-14.4l-4.4,1.6v-2l6.2-2.3h0.3V446.2z"/>
	<path class="st4" d="M720.4,438.9c0,2.5-0.4,4.4-1.3,5.7s-2.2,1.9-4.1,1.9c-1.8,0-3.2-0.6-4-1.8s-1.3-3-1.4-5.4v-2.9
		c0-2.5,0.4-4.4,1.3-5.6s2.2-1.8,4.1-1.8c1.8,0,3.2,0.6,4.1,1.8s1.3,3,1.3,5.4V438.9z M718.3,436c0-1.8-0.3-3.2-0.8-4
		s-1.3-1.3-2.4-1.3c-1.1,0-1.9,0.4-2.4,1.3s-0.8,2.1-0.8,3.9v3.5c0,1.8,0.3,3.2,0.8,4.1s1.3,1.3,2.4,1.3c1.1,0,1.9-0.4,2.4-1.2
		s0.8-2.1,0.8-3.9V436z"/>
	<path class="st4" d="M733.9,438.9c0,2.5-0.4,4.4-1.3,5.7s-2.2,1.9-4.1,1.9c-1.8,0-3.2-0.6-4-1.8s-1.3-3-1.4-5.4v-2.9
		c0-2.5,0.4-4.4,1.3-5.6s2.2-1.8,4.1-1.8c1.8,0,3.2,0.6,4.1,1.8s1.3,3,1.3,5.4V438.9z M731.8,436c0-1.8-0.3-3.2-0.8-4
		s-1.3-1.3-2.4-1.3c-1.1,0-1.9,0.4-2.4,1.3s-0.8,2.1-0.8,3.9v3.5c0,1.8,0.3,3.2,0.8,4.1s1.3,1.3,2.4,1.3c1.1,0,1.9-0.4,2.4-1.2
		s0.8-2.1,0.8-3.9V436z"/>
</g>
<g class="st3">
	<path class="st4" d="M707.8,763.8h-5.7v-1.8h5.7V763.8z"/>
	<path class="st4" d="M710.7,761.7l0.9-8.5h8.7v2h-6.9l-0.5,4.7c0.8-0.5,1.8-0.7,2.8-0.7c1.6,0,2.8,0.5,3.7,1.5s1.4,2.4,1.4,4.2
		c0,1.8-0.5,3.1-1.4,4.2s-2.3,1.5-4,1.5c-1.5,0-2.7-0.4-3.7-1.3s-1.5-2-1.6-3.5h2.1c0.1,1,0.5,1.7,1,2.2s1.3,0.7,2.2,0.7
		c1,0,1.8-0.3,2.4-1s0.9-1.6,0.9-2.8c0-1.1-0.3-2.1-0.9-2.7s-1.4-1-2.5-1c-0.9,0-1.7,0.2-2.2,0.6l-0.6,0.5L710.7,761.7z"/>
	<path class="st4" d="M733.9,762.9c0,2.5-0.4,4.4-1.3,5.7s-2.2,1.9-4.1,1.9c-1.8,0-3.2-0.6-4-1.8s-1.3-3-1.4-5.4v-2.9
		c0-2.5,0.4-4.4,1.3-5.6s2.2-1.8,4.1-1.8c1.8,0,3.2,0.6,4.1,1.8s1.3,3,1.3,5.4V762.9z M731.7,760c0-1.8-0.3-3.2-0.8-4
		s-1.3-1.3-2.4-1.3c-1.1,0-1.9,0.4-2.4,1.3s-0.8,2.1-0.8,3.9v3.5c0,1.8,0.3,3.2,0.8,4.1s1.3,1.3,2.4,1.3c1.1,0,1.9-0.4,2.4-1.2
		s0.8-2.1,0.8-3.9V760z"/>
</g>
<g class="st3">
	<path class="st4" d="M733.9,582.9c0,2.5-0.4,4.4-1.3,5.7s-2.2,1.9-4.1,1.9c-1.8,0-3.2-0.6-4-1.8s-1.3-3-1.4-5.4v-2.9
		c0-2.5,0.4-4.4,1.3-5.6s2.2-1.8,4.1-1.8c1.8,0,3.2,0.6,4.1,1.8s1.3,3,1.3,5.4V582.9z M731.7,580c0-1.8-0.3-3.2-0.8-4
		s-1.3-1.3-2.4-1.3c-1.1,0-1.9,0.4-2.4,1.3s-0.8,2.1-0.8,3.9v3.5c0,1.8,0.3,3.2,0.8,4.1s1.3,1.3,2.4,1.3c1.1,0,1.9-0.4,2.4-1.2
		s0.8-2.1,0.8-3.9V580z"/>
</g>
<g class="st3">
	<path class="st4" d="M707.8,691.8h-5.7v-1.8h5.7V691.8z"/>
	<path class="st4" d="M712.9,688.6h1.6c1,0,1.8-0.3,2.4-0.8s0.9-1.2,0.9-2.1c0-2-1-3-3-3c-0.9,0-1.7,0.3-2.2,0.8s-0.8,1.2-0.8,2.1
		h-2.2c0-1.4,0.5-2.5,1.5-3.4s2.2-1.3,3.8-1.3c1.6,0,2.9,0.4,3.8,1.3s1.4,2,1.4,3.6c0,0.7-0.2,1.5-0.7,2.2s-1.1,1.2-2,1.6
		c0.9,0.3,1.7,0.8,2.2,1.5s0.8,1.5,0.8,2.5c0,1.5-0.5,2.7-1.5,3.6s-2.3,1.3-3.9,1.3s-2.9-0.4-3.9-1.3s-1.5-2-1.5-3.4h2.2
		c0,0.9,0.3,1.6,0.9,2.2s1.4,0.8,2.4,0.8c1,0,1.8-0.3,2.4-0.8s0.8-1.3,0.8-2.4c0-1-0.3-1.8-0.9-2.3s-1.5-0.8-2.6-0.8h-1.6V688.6z"/>
	<path class="st4" d="M733.9,690.9c0,2.5-0.4,4.4-1.3,5.7s-2.2,1.9-4.1,1.9c-1.8,0-3.2-0.6-4-1.8s-1.3-3-1.4-5.4v-2.9
		c0-2.5,0.4-4.4,1.3-5.6s2.2-1.8,4.1-1.8c1.8,0,3.2,0.6,4.1,1.8s1.3,3,1.3,5.4V690.9z M731.7,688c0-1.8-0.3-3.2-0.8-4
		s-1.3-1.3-2.4-1.3c-1.1,0-1.9,0.4-2.4,1.3s-0.8,2.1-0.8,3.9v3.5c0,1.8,0.3,3.2,0.8,4.1s1.3,1.3,2.4,1.3c1.1,0,1.9-0.4,2.4-1.2
		s0.8-2.1,0.8-3.9V688z"/>
</g>
<g class="st3">
	<path class="st4" d="M707.8,727.8h-5.7v-1.8h5.7V727.8z"/>
	<path class="st4" d="M718.9,728.5h2.4v1.8h-2.4v4h-2.2v-4h-7.8V729l7.6-11.8h2.3V728.5z M711.4,728.5h5.3v-8.4l-0.3,0.5
		L711.4,728.5z"/>
	<path class="st4" d="M733.9,726.9c0,2.5-0.4,4.4-1.3,5.7s-2.2,1.9-4.1,1.9c-1.8,0-3.2-0.6-4-1.8s-1.3-3-1.4-5.4v-2.9
		c0-2.5,0.4-4.4,1.3-5.6s2.2-1.8,4.1-1.8c1.8,0,3.2,0.6,4.1,1.8s1.3,3,1.3,5.4V726.9z M731.7,724c0-1.8-0.3-3.2-0.8-4
		s-1.3-1.3-2.4-1.3c-1.1,0-1.9,0.4-2.4,1.3s-0.8,2.1-0.8,3.9v3.5c0,1.8,0.3,3.2,0.8,4.1s1.3,1.3,2.4,1.3c1.1,0,1.9-0.4,2.4-1.2
		s0.8-2.1,0.8-3.9V724z"/>
</g>
<g class="st3">
	<path class="st4" d="M707.8,655.8h-5.7v-1.8h5.7V655.8z"/>
	<path class="st4" d="M720.9,662.2h-11.2v-1.6l5.9-6.6c0.9-1,1.5-1.8,1.8-2.4s0.5-1.3,0.5-1.9c0-0.9-0.3-1.6-0.8-2.2
		s-1.3-0.9-2.2-0.9c-1.1,0-1.9,0.3-2.5,0.9s-0.9,1.5-0.9,2.6h-2.2c0-1.6,0.5-2.8,1.5-3.8s2.4-1.5,4.1-1.5c1.6,0,2.8,0.4,3.8,1.2
		s1.4,1.9,1.4,3.3c0,1.7-1.1,3.7-3.2,6l-4.6,5h8.6V662.2z"/>
	<path class="st4" d="M733.9,654.9c0,2.5-0.4,4.4-1.3,5.7s-2.2,1.9-4.1,1.9c-1.8,0-3.2-0.6-4-1.8s-1.3-3-1.4-5.4v-2.9
		c0-2.5,0.4-4.4,1.3-5.6s2.2-1.8,4.1-1.8c1.8,0,3.2,0.6,4.1,1.8s1.3,3,1.3,5.4V654.9z M731.7,652c0-1.8-0.3-3.2-0.8-4
		s-1.3-1.3-2.4-1.3c-1.1,0-1.9,0.4-2.4,1.3s-0.8,2.1-0.8,3.9v3.5c0,1.8,0.3,3.2,0.8,4.1s1.3,1.3,2.4,1.3c1.1,0,1.9-0.4,2.4-1.2
		s0.8-2.1,0.8-3.9V652z"/>
</g>
<g class="st3">
	<path class="st4" d="M707.8,619.8h-5.7v-1.8h5.7V619.8z"/>
	<path class="st4" d="M716.8,626.2h-2.2v-14.4l-4.4,1.6v-2l6.2-2.3h0.3V626.2z"/>
	<path class="st4" d="M733.9,618.9c0,2.5-0.4,4.4-1.3,5.7s-2.2,1.9-4.1,1.9c-1.8,0-3.2-0.6-4-1.8s-1.3-3-1.4-5.4v-2.9
		c0-2.5,0.4-4.4,1.3-5.6s2.2-1.8,4.1-1.8c1.8,0,3.2,0.6,4.1,1.8s1.3,3,1.3,5.4V618.9z M731.7,616c0-1.8-0.3-3.2-0.8-4
		s-1.3-1.3-2.4-1.3c-1.1,0-1.9,0.4-2.4,1.3s-0.8,2.1-0.8,3.9v3.5c0,1.8,0.3,3.2,0.8,4.1s1.3,1.3,2.4,1.3c1.1,0,1.9-0.4,2.4-1.2
		s0.8-2.1,0.8-3.9V616z"/>
</g>
<path class="st1" d="M1152,871.2H756"/>
<rect x="756" y="565.2" class="st2" width="396" height="378"/>
<path class="st1" d="M1152,799.2H756"/>
<path class="st1" d="M1152,727.2H756"/>
<path class="st1" d="M1152,655.2H756"/>
<path class="st1" d="M1152,583.2H756"/>
<path class="st1" d="M1152,619.2H756"/>
<path class="st1" d="M1152,907.2H756"/>
<path class="st1" d="M1152,835.2H756"/>
<path class="st1" d="M1152,763.2H756"/>
<path class="st1" d="M1152,691.2H756"/>
<path class="st1" d="M1152,619.2H756"/>
<g class="st3">
	<path class="st4" d="M707.8,799.8h-5.7v-1.8h5.7V799.8z"/>
	<path class="st4" d="M718.2,789.1v1.8h-0.4c-1.7,0-3,0.5-4,1.5s-1.6,2.3-1.7,4.1c0.9-1,2.1-1.5,3.7-1.5c1.5,0,2.7,0.5,3.6,1.6
		s1.3,2.4,1.3,4.1c0,1.8-0.5,3.2-1.4,4.2s-2.2,1.6-3.8,1.6c-1.6,0-3-0.6-4-1.9s-1.5-2.9-1.5-4.8v-0.8c0-3.1,0.7-5.5,2-7.2
		s3.3-2.5,6-2.5H718.2z M715.4,796.8c-0.7,0-1.4,0.2-2.1,0.7s-1.1,1-1.3,1.7v0.8c0,1.4,0.3,2.5,0.9,3.4s1.4,1.3,2.4,1.3
		c1,0,1.7-0.4,2.3-1.1s0.8-1.7,0.8-2.8c0-1.2-0.3-2.1-0.8-2.8S716.3,796.8,715.4,796.8z"/>
	<path class="st4" d="M733.9,798.9c0,2.5-0.4,4.4-1.3,5.7s-2.2,1.9-4.1,1.9c-1.8,0-3.2-0.6-4-1.8s-1.3-3-1.4-5.4v-2.9
		c0-2.5,0.4-4.4,1.3-5.6s2.2-1.8,4.1-1.8c1.8,0,3.2,0.6,4.1,1.8s1.3,3,1.3,5.4V798.9z M731.7,796c0-1.8-0.3-3.2-0.8-4
		s-1.3-1.3-2.4-1.3c-1.1,0-1.9,0.4-2.4,1.3s-0.8,2.1-0.8,3.9v3.5c0,1.8,0.3,3.2,0.8,4.1s1.3,1.3,2.4,1.3c1.1,0,1.9-0.4,2.4-1.2
		s0.8-2.1,0.8-3.9V796z"/>
</g>
<g class="st3">
	<path class="st4" d="M707.8,835.8h-5.7v-1.8h5.7V835.8z"/>
	<path class="st4" d="M720.7,826.4l-7.1,15.8h-2.3l7-15.3h-9.2v-1.8h11.5V826.4z"/>
	<path class="st4" d="M733.9,834.9c0,2.5-0.4,4.4-1.3,5.7s-2.2,1.9-4.1,1.9c-1.8,0-3.2-0.6-4-1.8s-1.3-3-1.4-5.4v-2.9
		c0-2.5,0.4-4.4,1.3-5.6s2.2-1.8,4.1-1.8c1.8,0,3.2,0.6,4.1,1.8s1.3,3,1.3,5.4V834.9z M731.7,832c0-1.8-0.3-3.2-0.8-4
		s-1.3-1.3-2.4-1.3c-1.1,0-1.9,0.4-2.4,1.3s-0.8,2.1-0.8,3.9v3.5c0,1.8,0.3,3.2,0.8,4.1s1.3,1.3,2.4,1.3c1.1,0,1.9-0.4,2.4-1.2
		s0.8-2.1,0.8-3.9V832z"/>
</g>
<g class="st3">
	<path class="st4" d="M707.8,871.8h-5.7v-1.8h5.7V871.8z"/>
	<path class="st4" d="M720,865.6c0,0.9-0.2,1.6-0.7,2.3s-1.1,1.2-1.8,1.6c0.9,0.4,1.6,0.9,2.1,1.7s0.8,1.6,0.8,2.5
		c0,1.5-0.5,2.7-1.5,3.5s-2.3,1.3-3.9,1.3c-1.6,0-3-0.4-3.9-1.3s-1.5-2.1-1.5-3.5c0-0.9,0.3-1.8,0.8-2.5s1.2-1.3,2.1-1.7
		c-0.8-0.4-1.4-0.9-1.8-1.6s-0.7-1.4-0.7-2.3c0-1.4,0.5-2.6,1.4-3.4s2.1-1.3,3.6-1.3c1.5,0,2.7,0.4,3.6,1.3S720,864.2,720,865.6z
		 M718.3,873.6c0-1-0.3-1.7-0.9-2.3s-1.4-0.9-2.4-0.9s-1.8,0.3-2.3,0.9s-0.9,1.4-0.9,2.3s0.3,1.7,0.9,2.3s1.4,0.8,2.4,0.8
		c1,0,1.8-0.3,2.4-0.8S718.3,874.5,718.3,873.6z M715,862.7c-0.9,0-1.5,0.3-2.1,0.8s-0.8,1.2-0.8,2.2c0,0.9,0.3,1.6,0.8,2.1
		s1.2,0.8,2.1,0.8s1.6-0.3,2.1-0.8s0.8-1.2,0.8-2.1s-0.3-1.6-0.8-2.1S715.8,862.7,715,862.7z"/>
	<path class="st4" d="M733.9,870.9c0,2.5-0.4,4.4-1.3,5.7s-2.2,1.9-4.1,1.9c-1.8,0-3.2-0.6-4-1.8s-1.3-3-1.4-5.4v-2.9
		c0-2.5,0.4-4.4,1.3-5.6s2.2-1.8,4.1-1.8c1.8,0,3.2,0.6,4.1,1.8s1.3,3,1.3,5.4V870.9z M731.7,868c0-1.8-0.3-3.2-0.8-4
		s-1.3-1.3-2.4-1.3c-1.1,0-1.9,0.4-2.4,1.3s-0.8,2.1-0.8,3.9v3.5c0,1.8,0.3,3.2,0.8,4.1s1.3,1.3,2.4,1.3c1.1,0,1.9-0.4,2.4-1.2
		s0.8-2.1,0.8-3.9V868z"/>
</g>
<g class="st3">
	<path class="st4" d="M707.8,907.8h-5.7v-1.8h5.7V907.8z"/>
	<path class="st4" d="M718,906.7c-0.5,0.5-1,1-1.6,1.3s-1.3,0.5-2.1,0.5c-1,0-1.8-0.2-2.6-0.7s-1.3-1.2-1.7-2s-0.6-1.8-0.6-2.9
		c0-1.1,0.2-2.2,0.7-3.1s1-1.6,1.8-2.1s1.7-0.7,2.8-0.7c1.7,0,3,0.6,4,1.9s1.5,3,1.5,5.2v0.6c0,3.3-0.7,5.7-2,7.3s-3.3,2.3-5.9,2.3
		h-0.4v-1.8h0.5c1.8,0,3.2-0.5,4.1-1.4S717.9,908.7,718,906.7z M714.7,906.7c0.7,0,1.4-0.2,2-0.7s1.1-1,1.3-1.7v-0.9
		c0-1.4-0.3-2.6-0.9-3.5s-1.4-1.3-2.3-1.3c-1,0-1.7,0.4-2.3,1.1s-0.9,1.7-0.9,2.9c0,1.2,0.3,2.1,0.8,2.9S713.7,906.7,714.7,906.7z"
		/>
	<path class="st4" d="M733.9,906.9c0,2.5-0.4,4.4-1.3,5.7s-2.2,1.9-4.1,1.9c-1.8,0-3.2-0.6-4-1.8s-1.3-3-1.4-5.4v-2.9
		c0-2.5,0.4-4.4,1.3-5.6s2.2-1.8,4.1-1.8c1.8,0,3.2,0.6,4.1,1.8s1.3,3,1.3,5.4V906.9z M731.7,904c0-1.8-0.3-3.2-0.8-4
		s-1.3-1.3-2.4-1.3c-1.1,0-1.9,0.4-2.4,1.3s-0.8,2.1-0.8,3.9v3.5c0,1.8,0.3,3.2,0.8,4.1s1.3,1.3,2.4,1.3c1.1,0,1.9-0.4,2.4-1.2
		s0.8-2.1,0.8-3.9V904z"/>
</g>
<g class="st3">
	<path class="st4" d="M693.8,943.8H688v-1.8h5.7V943.8z"/>
	<path class="st4" d="M702.8,950.2h-2.2v-14.4l-4.4,1.6v-2l6.2-2.3h0.3V950.2z"/>
	<path class="st4" d="M719.8,942.9c0,2.5-0.4,4.4-1.3,5.7s-2.2,1.9-4.1,1.9c-1.8,0-3.2-0.6-4-1.8s-1.3-3-1.4-5.4v-2.9
		c0-2.5,0.4-4.4,1.3-5.6s2.2-1.8,4.1-1.8c1.8,0,3.2,0.6,4.1,1.8s1.3,3,1.3,5.4V942.9z M717.6,940c0-1.8-0.3-3.2-0.8-4
		s-1.3-1.3-2.4-1.3c-1.1,0-1.9,0.4-2.4,1.3s-0.8,2.1-0.8,3.9v3.5c0,1.8,0.3,3.2,0.8,4.1s1.3,1.3,2.4,1.3c1.1,0,1.9-0.4,2.4-1.2
		s0.8-2.1,0.8-3.9V940z"/>
	<path class="st4" d="M733.3,942.9c0,2.5-0.4,4.4-1.3,5.7s-2.2,1.9-4.1,1.9c-1.8,0-3.2-0.6-4-1.8s-1.3-3-1.4-5.4v-2.9
		c0-2.5,0.4-4.4,1.3-5.6s2.2-1.8,4.1-1.8c1.8,0,3.2,0.6,4.1,1.8s1.3,3,1.3,5.4V942.9z M731.1,940c0-1.8-0.3-3.2-0.8-4
		s-1.3-1.3-2.4-1.3c-1.1,0-1.9,0.4-2.4,1.3s-0.8,2.1-0.8,3.9v3.5c0,1.8,0.3,3.2,0.8,4.1s1.3,1.3,2.4,1.3c1.1,0,1.9-0.4,2.4-1.2
		s0.8-2.1,0.8-3.9V940z"/>
</g>
<g class="st3">
	<path class="st4" d="M959.4,977.7c0,2.5-0.4,4.4-1.3,5.7s-2.2,1.9-4.1,1.9c-1.8,0-3.2-0.6-4-1.8s-1.3-3-1.4-5.4v-2.9
		c0-2.5,0.4-4.4,1.3-5.6s2.2-1.8,4.1-1.8c1.8,0,3.2,0.6,4.1,1.8s1.3,3,1.3,5.4V977.7z M957.2,974.7c0-1.8-0.3-3.2-0.8-4
		s-1.3-1.3-2.4-1.3c-1.1,0-1.9,0.4-2.4,1.3s-0.8,2.1-0.8,3.9v3.5c0,1.8,0.3,3.2,0.8,4.1s1.3,1.3,2.4,1.3c1.1,0,1.9-0.4,2.4-1.2
		s0.8-2.1,0.8-3.9V974.7z"/>
</g>
<g class="st3">
	<path class="st4" d="M745.4,978.6h-5.7v-1.8h5.7V978.6z"/>
	<path class="st4" d="M754.4,984.9h-2.2v-14.4l-4.4,1.6v-2l6.2-2.3h0.3V984.9z"/>
	<path class="st4" d="M761.7,976.4l0.9-8.5h8.7v2h-6.9l-0.5,4.7c0.8-0.5,1.8-0.7,2.8-0.7c1.6,0,2.8,0.5,3.7,1.5s1.4,2.4,1.4,4.2
		c0,1.8-0.5,3.1-1.4,4.2s-2.3,1.5-4,1.5c-1.5,0-2.7-0.4-3.7-1.3s-1.5-2-1.6-3.5h2.1c0.1,1,0.5,1.7,1,2.2s1.3,0.7,2.2,0.7
		c1,0,1.8-0.3,2.4-1s0.9-1.6,0.9-2.8c0-1.1-0.3-2.1-0.9-2.7s-1.4-1-2.5-1c-0.9,0-1.7,0.2-2.2,0.6l-0.6,0.5L761.7,976.4z"/>
</g>
<g class="st3">
	<path class="st4" d="M1147.1,984.9h-2.2v-14.4l-4.4,1.6v-2l6.2-2.3h0.3V984.9z"/>
	<path class="st4" d="M1154.4,976.4l0.9-8.5h8.7v2h-6.9l-0.5,4.7c0.8-0.5,1.8-0.7,2.8-0.7c1.6,0,2.8,0.5,3.7,1.5s1.4,2.4,1.4,4.2
		c0,1.8-0.5,3.1-1.4,4.2s-2.3,1.5-4,1.5c-1.5,0-2.7-0.4-3.7-1.3s-1.5-2-1.6-3.5h2.1c0.1,1,0.5,1.7,1,2.2s1.3,0.7,2.2,0.7
		c1,0,1.8-0.3,2.4-1s0.9-1.6,0.9-2.8c0-1.1-0.3-2.1-0.9-2.7s-1.4-1-2.5-1c-0.9,0-1.7,0.2-2.2,0.6l-0.6,0.5L1154.4,976.4z"/>
</g>
<g class="st3">
	<path class="st4" d="M222.4,385.6h-6V396H213v-25.6h8.5c2.9,0,5.1,0.7,6.7,2s2.3,3.2,2.3,5.7c0,1.6-0.4,3-1.3,4.2s-2.1,2.1-3.6,2.7
		l6,10.9v0.2H228L222.4,385.6z M216.4,382.9h5.2c1.7,0,3-0.4,4-1.3c1-0.9,1.5-2,1.5-3.5c0-1.6-0.5-2.8-1.4-3.6
		c-0.9-0.8-2.3-1.3-4.1-1.3h-5.2V382.9z"/>
	<path class="st4" d="M242.6,396.4c-2.6,0-4.7-0.8-6.3-2.5s-2.4-4-2.4-6.8v-0.6c0-1.9,0.4-3.6,1.1-5.1s1.7-2.6,3-3.5
		s2.7-1.3,4.2-1.3c2.5,0,4.4,0.8,5.8,2.4s2.1,4,2.1,7v1.4h-12.9c0,1.9,0.6,3.4,1.6,4.5s2.4,1.7,4,1.7c1.1,0,2.1-0.2,2.9-0.7
		s1.5-1.1,2.1-1.9l2,1.5C248.2,395.1,245.8,396.4,242.6,396.4z M242.2,379.3c-1.3,0-2.4,0.5-3.3,1.4s-1.4,2.3-1.7,4h9.5v-0.2
		c-0.1-1.7-0.5-2.9-1.3-3.8S243.6,379.3,242.2,379.3z"/>
	<path class="st4" d="M261.4,393.7c1.2,0,2.2-0.4,3-1.1s1.3-1.6,1.4-2.6h3.1c-0.1,1.1-0.4,2.1-1.1,3.1s-1.6,1.8-2.8,2.4
		s-2.4,0.9-3.7,0.9c-2.6,0-4.6-0.9-6.2-2.6s-2.3-4.1-2.3-7.1v-0.5c0-1.9,0.3-3.5,1-4.9s1.7-2.6,2.9-3.4s2.8-1.2,4.5-1.2
		c2.1,0,3.9,0.6,5.3,1.9s2.2,2.9,2.3,5h-3.1c-0.1-1.2-0.6-2.2-1.4-3s-1.9-1.2-3.1-1.2c-1.7,0-2.9,0.6-3.8,1.8s-1.4,2.9-1.4,5.2v0.6
		c0,2.2,0.5,3.9,1.4,5.1S259.7,393.7,261.4,393.7z"/>
	<path class="st4" d="M277,372.4v4.6h3.6v2.5H277v11.8c0,0.8,0.2,1.3,0.5,1.7c0.3,0.4,0.9,0.6,1.6,0.6c0.4,0,0.9-0.1,1.5-0.2v2.6
		c-0.9,0.2-1.7,0.3-2.5,0.3c-1.5,0-2.5-0.4-3.3-1.3s-1.1-2.1-1.1-3.7v-11.8h-3.5V377h3.5v-4.6H277z"/>
	<path class="st4" d="M296.1,396c-0.2-0.4-0.3-1-0.5-2c-1.5,1.6-3.3,2.4-5.4,2.4c-1.9,0-3.4-0.5-4.6-1.6s-1.8-2.4-1.8-4
		c0-2,0.8-3.5,2.3-4.6s3.6-1.6,6.4-1.6h3.2V383c0-1.1-0.3-2-1-2.7s-1.7-1-3-1c-1.2,0-2.1,0.3-2.9,0.9s-1.2,1.3-1.2,2.1h-3.3
		c0-0.9,0.3-1.9,1-2.8s1.6-1.6,2.7-2.1s2.4-0.8,3.8-0.8c2.2,0,3.9,0.5,5.2,1.6s1.9,2.6,1.9,4.5v8.8c0,1.7,0.2,3.1,0.7,4.2v0.3H296.1
		z M290.7,393.5c1,0,2-0.3,2.9-0.8s1.6-1.2,2-2.1v-3.9h-2.5c-4,0-6,1.2-6,3.5c0,1,0.3,1.8,1,2.4S289.7,393.5,290.7,393.5z"/>
	<path class="st4" d="M307.1,377l0.1,2.4c1.5-1.8,3.4-2.7,5.7-2.7c4,0,6,2.3,6.1,6.8V396h-3.3v-12.6c0-1.4-0.3-2.4-0.9-3
		s-1.6-1-2.9-1c-1.1,0-2,0.3-2.8,0.8s-1.4,1.3-1.9,2.2V396H304v-19H307.1z"/>
	<path class="st4" d="M323.1,386.3c0-3,0.7-5.3,2.1-7.1s3.2-2.6,5.4-2.6c2.3,0,4.1,0.8,5.4,2.5l0.2-2.1h3v18.6
		c0,2.5-0.7,4.4-2.2,5.8s-3.4,2.1-5.9,2.1c-1.4,0-2.7-0.3-4-0.9s-2.3-1.4-3-2.4l1.7-2c1.4,1.7,3.1,2.6,5.1,2.6
		c1.6,0,2.8-0.4,3.7-1.3s1.3-2.1,1.3-3.8v-1.6c-1.3,1.5-3.1,2.2-5.3,2.2c-2.2,0-4-0.9-5.4-2.7S323.1,389.4,323.1,386.3z
		 M326.3,386.7c0,2.1,0.4,3.8,1.3,5.1s2.1,1.8,3.7,1.8c2.1,0,3.6-0.9,4.5-2.8v-8.7c-1-1.8-2.5-2.7-4.5-2.7c-1.6,0-2.8,0.6-3.7,1.8
		S326.3,384.3,326.3,386.7z"/>
	<path class="st4" d="M355.8,394.1c-1.3,1.5-3.1,2.2-5.6,2.2c-2,0-3.6-0.6-4.6-1.8s-1.6-2.9-1.6-5.2V377h3.3v12.3
		c0,2.9,1.2,4.3,3.5,4.3c2.5,0,4.1-0.9,5-2.8V377h3.3v19h-3.1L355.8,394.1z"/>
	<path class="st4" d="M367.4,396h-3.3v-27h3.3V396z"/>
	<path class="st4" d="M384.4,396c-0.2-0.4-0.3-1-0.5-2c-1.5,1.6-3.3,2.4-5.4,2.4c-1.9,0-3.4-0.5-4.6-1.6s-1.8-2.4-1.8-4
		c0-2,0.8-3.5,2.3-4.6s3.6-1.6,6.4-1.6h3.2V383c0-1.1-0.3-2-1-2.7s-1.7-1-3-1c-1.2,0-2.1,0.3-2.9,0.9s-1.2,1.3-1.2,2.1h-3.3
		c0-0.9,0.3-1.9,1-2.8s1.6-1.6,2.7-2.1s2.4-0.8,3.8-0.8c2.2,0,3.9,0.5,5.2,1.6s1.9,2.6,1.9,4.5v8.8c0,1.7,0.2,3.1,0.7,4.2v0.3H384.4
		z M379,393.5c1,0,2-0.3,2.9-0.8s1.6-1.2,2-2.1v-3.9h-2.5c-4,0-6,1.2-6,3.5c0,1,0.3,1.8,1,2.4S377.9,393.5,379,393.5z"/>
	<path class="st4" d="M401.4,379.9c-0.5-0.1-1-0.1-1.6-0.1c-2.1,0-3.6,0.9-4.3,2.7V396h-3.3v-19h3.2l0.1,2.2
		c1.1-1.7,2.6-2.5,4.5-2.5c0.6,0,1.1,0.1,1.4,0.2V379.9z"/>
</g>
<g class="st3">
	<path class="st4" d="M286.2,900h-3.4v-11.8h-12.9V900h-3.4v-25.6h3.4v11h12.9v-11h3.4V900z"/>
	<path class="st4" d="M303.4,900c-0.2-0.4-0.3-1-0.5-2c-1.5,1.6-3.3,2.4-5.4,2.4c-1.9,0-3.4-0.5-4.6-1.6s-1.8-2.4-1.8-4
		c0-2,0.8-3.5,2.3-4.6s3.6-1.6,6.4-1.6h3.2V887c0-1.1-0.3-2-1-2.7s-1.7-1-3-1c-1.2,0-2.1,0.3-2.9,0.9s-1.2,1.3-1.2,2.1h-3.3
		c0-0.9,0.3-1.9,1-2.8s1.6-1.6,2.7-2.1s2.4-0.8,3.8-0.8c2.2,0,3.9,0.5,5.2,1.6s1.9,2.6,1.9,4.5v8.8c0,1.7,0.2,3.1,0.7,4.2v0.3H303.4
		z M298,897.5c1,0,2-0.3,2.9-0.8s1.6-1.2,2-2.1v-3.9h-2.5c-4,0-6,1.2-6,3.5c0,1,0.3,1.8,1,2.4S296.9,897.5,298,897.5z"/>
	<path class="st4" d="M314.3,881l0.1,2.4c1.5-1.8,3.4-2.7,5.7-2.7c4,0,6,2.3,6.1,6.8V900h-3.3v-12.6c0-1.4-0.3-2.4-0.9-3
		s-1.6-1-2.9-1c-1.1,0-2,0.3-2.8,0.8s-1.4,1.3-1.9,2.2V900h-3.3v-19H314.3z"/>
	<path class="st4" d="M334.2,881l0.1,2.4c1.5-1.8,3.4-2.7,5.7-2.7c4,0,6,2.3,6.1,6.8V900h-3.3v-12.6c0-1.4-0.3-2.4-0.9-3
		s-1.6-1-2.9-1c-1.1,0-2,0.3-2.8,0.8s-1.4,1.3-1.9,2.2V900h-3.3v-19H334.2z"/>
</g>
<g class="st3">
	<path class="st4" d="M831.6,39.8h-10.7v11.3h-3.4V25.5h15.9v2.8h-12.5V37h10.7V39.8z"/>
</g>
<g class="st3">
	<path class="st4" d="M835.6,41.4c0-1.9,0.4-3.5,1.1-5s1.8-2.6,3.1-3.4s2.8-1.2,4.5-1.2c2.6,0,4.7,0.9,6.3,2.7s2.4,4.2,2.4,7.2v0.2
		c0,1.9-0.4,3.5-1.1,5s-1.7,2.6-3,3.4s-2.8,1.2-4.5,1.2c-2.6,0-4.7-0.9-6.3-2.7s-2.4-4.2-2.4-7.1V41.4z M838.9,41.8
		c0,2.1,0.5,3.8,1.5,5.1s2.3,1.9,3.9,1.9c1.7,0,3-0.6,3.9-1.9s1.5-3.1,1.5-5.4c0-2.1-0.5-3.8-1.5-5.1s-2.3-1.9-3.9-1.9
		c-1.6,0-2.9,0.6-3.9,1.9S838.9,39.4,838.9,41.8z"/>
	<path class="st4" d="M868.8,49.2c-1.3,1.5-3.1,2.2-5.6,2.2c-2,0-3.6-0.6-4.6-1.8s-1.6-2.9-1.6-5.2V32.1h3.3v12.3
		c0,2.9,1.2,4.3,3.5,4.3c2.5,0,4.1-0.9,5-2.8V32.1h3.3v19h-3.1L868.8,49.2z"/>
	<path class="st4" d="M886.1,35c-0.5-0.1-1-0.1-1.6-0.1c-2.1,0-3.6,0.9-4.3,2.7v13.5h-3.3v-19h3.2l0.1,2.2c1.1-1.7,2.6-2.5,4.5-2.5
		c0.6,0,1.1,0.1,1.4,0.2V35z"/>
	<path class="st4" d="M889.1,27c0-0.5,0.2-1,0.5-1.3s0.8-0.5,1.4-0.5s1.1,0.2,1.4,0.5s0.5,0.8,0.5,1.3s-0.2,1-0.5,1.3
		s-0.8,0.5-1.4,0.5s-1.1-0.2-1.4-0.5S889.1,27.6,889.1,27z M892.6,51.1h-3.3v-19h3.3V51.1z"/>
	<path class="st4" d="M905.7,51.5c-2.6,0-4.7-0.8-6.3-2.5s-2.4-4-2.4-6.8v-0.6c0-1.9,0.4-3.6,1.1-5.1s1.7-2.6,3-3.5s2.7-1.3,4.2-1.3
		c2.5,0,4.4,0.8,5.8,2.4s2.1,4,2.1,7v1.4h-12.9c0,1.9,0.6,3.4,1.6,4.5s2.4,1.7,4,1.7c1.1,0,2.1-0.2,2.9-0.7s1.5-1.1,2.1-1.9l2,1.5
		C911.3,50.2,908.9,51.5,905.7,51.5z M905.3,34.4c-1.3,0-2.4,0.5-3.3,1.4s-1.4,2.3-1.7,4h9.5v-0.2c-0.1-1.7-0.5-2.9-1.3-3.8
		S906.6,34.4,905.3,34.4z"/>
	<path class="st4" d="M926.1,35c-0.5-0.1-1-0.1-1.6-0.1c-2.1,0-3.6,0.9-4.3,2.7v13.5h-3.3v-19h3.2l0.1,2.2c1.1-1.7,2.6-2.5,4.5-2.5
		c0.6,0,1.1,0.1,1.4,0.2V35z"/>
	<path class="st4" d="M942.4,27.5v4.6h3.6v2.5h-3.6v11.8c0,0.8,0.2,1.3,0.5,1.7c0.3,0.4,0.9,0.6,1.6,0.6c0.4,0,0.9-0.1,1.5-0.2v2.6
		c-0.9,0.2-1.7,0.3-2.5,0.3c-1.5,0-2.5-0.4-3.3-1.3s-1.1-2.1-1.1-3.7V34.6h-3.5v-2.5h3.5v-4.6H942.4z"/>
</g>
<g class="st3">
	<path class="st4" d="M958.9,35c-0.5-0.1-1-0.1-1.6-0.1c-2.1,0-3.6,0.9-4.3,2.7v13.5h-3.3v-19h3.2l0.1,2.2c1.1-1.7,2.6-2.5,4.5-2.5
		c0.6,0,1.1,0.1,1.4,0.2V35z"/>
</g>
<g class="st3">
	<path class="st4" d="M972.9,51.1c-0.2-0.4-0.3-1-0.5-2c-1.5,1.6-3.3,2.4-5.4,2.4c-1.9,0-3.4-0.5-4.6-1.6s-1.8-2.4-1.8-4
		c0-2,0.8-3.5,2.3-4.6s3.6-1.6,6.4-1.6h3.2v-1.5c0-1.1-0.3-2-1-2.7s-1.7-1-3-1c-1.2,0-2.1,0.3-2.9,0.9s-1.2,1.3-1.2,2.1H961
		c0-0.9,0.3-1.9,1-2.8s1.6-1.6,2.7-2.1s2.4-0.8,3.8-0.8c2.2,0,3.9,0.5,5.2,1.6s1.9,2.6,1.9,4.5v8.8c0,1.7,0.2,3.1,0.7,4.2v0.3H972.9
		z M967.5,48.6c1,0,2-0.3,2.9-0.8s1.6-1.2,2-2.1v-3.9h-2.5c-4,0-6,1.2-6,3.5c0,1,0.3,1.8,1,2.4S966.5,48.6,967.5,48.6z"/>
	<path class="st4" d="M983.8,32.1l0.1,2.4c1.5-1.8,3.4-2.7,5.7-2.7c4,0,6,2.3,6.1,6.8v12.6h-3.3V38.5c0-1.4-0.3-2.4-0.9-3
		s-1.6-1-2.9-1c-1.1,0-2,0.3-2.8,0.8s-1.4,1.3-1.9,2.2v13.6h-3.3v-19H983.8z"/>
	<path class="st4" d="M1011.7,46.1c0-0.9-0.3-1.6-1-2s-1.8-0.9-3.5-1.3s-3-0.8-3.9-1.3s-1.7-1.1-2.1-1.8s-0.7-1.5-0.7-2.4
		c0-1.6,0.7-2.9,2-4s3-1.6,5.1-1.6c2.2,0,3.9,0.6,5.2,1.7s2,2.5,2,4.3h-3.3c0-0.9-0.4-1.7-1.1-2.3s-1.7-1-2.9-1
		c-1.2,0-2.1,0.3-2.8,0.8s-1,1.2-1,2c0,0.8,0.3,1.4,0.9,1.8s1.7,0.8,3.4,1.1s2.9,0.8,3.9,1.3s1.8,1.1,2.2,1.8s0.7,1.6,0.7,2.6
		c0,1.7-0.7,3.1-2,4.1s-3.1,1.5-5.3,1.5c-1.5,0-2.9-0.3-4-0.8s-2.1-1.3-2.8-2.3s-1-2-1-3.1h3.3c0.1,1.1,0.5,2,1.3,2.6s1.9,1,3.2,1
		c1.2,0,2.2-0.2,3-0.7S1011.7,46.9,1011.7,46.1z"/>
	<path class="st4" d="M1020.8,51.1V34.6h-3v-2.5h3v-2c0-2,0.5-3.6,1.6-4.7s2.6-1.7,4.6-1.7c0.8,0,1.5,0.1,2.2,0.3l-0.2,2.6
		c-0.6-0.1-1.1-0.2-1.8-0.2c-1.1,0-1.9,0.3-2.4,0.9s-0.9,1.5-0.9,2.7v2h4.1v2.5h-4.1v16.5H1020.8z"/>
	<path class="st4" d="M1030.8,41.4c0-1.9,0.4-3.5,1.1-5s1.8-2.6,3.1-3.4s2.8-1.2,4.5-1.2c2.6,0,4.7,0.9,6.3,2.7s2.4,4.2,2.4,7.2v0.2
		c0,1.9-0.4,3.5-1.1,5s-1.7,2.6-3,3.4s-2.8,1.2-4.5,1.2c-2.6,0-4.7-0.9-6.3-2.7s-2.4-4.2-2.4-7.1V41.4z M1034.1,41.8
		c0,2.1,0.5,3.8,1.5,5.1s2.3,1.9,3.9,1.9c1.7,0,3-0.6,3.9-1.9s1.5-3.1,1.5-5.4c0-2.1-0.5-3.8-1.5-5.1s-2.3-1.9-3.9-1.9
		c-1.6,0-2.9,0.6-3.9,1.9S1034.1,39.4,1034.1,41.8z"/>
	<path class="st4" d="M1061.4,35c-0.5-0.1-1-0.1-1.6-0.1c-2.1,0-3.6,0.9-4.3,2.7v13.5h-3.3v-19h3.2l0.1,2.2c1.1-1.7,2.6-2.5,4.5-2.5
		c0.6,0,1.1,0.1,1.4,0.2V35z"/>
	<path class="st4" d="M1067.5,32.1l0.1,2.1c1.4-1.6,3.3-2.5,5.6-2.5c2.7,0,4.5,1,5.4,3.1c0.6-0.9,1.5-1.7,2.5-2.2s2.2-0.8,3.6-0.8
		c4.2,0,6.3,2.2,6.4,6.6v12.7h-3.3V38.5c0-1.4-0.3-2.4-0.9-3s-1.7-1-3.1-1c-1.2,0-2.2,0.4-3,1.1s-1.3,1.7-1.4,2.9v12.6h-3.3V38.6
		c0-2.8-1.4-4.1-4.1-4.1c-2.1,0-3.6,0.9-4.4,2.7v13.9h-3.3v-19H1067.5z"/>
</g>
<path class="st5" d="M878.4,835.2l2-91.5l2-13.7l2-6.5l2-3l2-0.5l2,1.9l2,4.5l2,8.1l2,15v53.3"/>
<path class="st5" d="M764.8,911.4l2-77.7l2-13.7l2-6.5l2-3l2-0.5l2,1.9l2,4.5l2,8.1l2,15l0.2,31.7"/>
<path class="st5" d="M782.8,900.6l2-77.7l2-13.7l2-6.5l2-3l2-0.5l2,1.9l2,4.5l2,8.1l2,15l2,58.5"/>
<path class="st5" d="M802.8,903.6l2-91.5l2-13.7l2-6.5l2-3l2-0.5l2,1.9l2,4.5l2,8.1l2,15V909"/>
<path class="st5" d="M820.8,910.8l2-108.8l2-14.1l2-7.1l2-3.7l2-1.3l2,0.8l2,3.2l2,6.6l2,13.4l2,88.4"/>
<path class="st5" d="M1047.6,869.4l0.2-83.6l2-14.1l2-7.1l2-3.7l2-1.3l2,0.8l2,3.2l2,6.6l2,13.4l1.8,127.1"/>
<path class="st5" d="M1065.6,841.5l1.8-38.6l2-14.1l2-7.1l2-3.7l2-1.3l2,0.8l2,3.2l2,6.6l2,13.4l2,25.4"/>
<path class="st5" d="M1083.6,912.6l1.8-100.1l2-13.4l2-6.6l2-3.2l2-0.8l2,1.3l2,3.7l2,7.1l2,14.1l2,94.4"/>
<path class="st5" d="M1101.8,910.4l2-88.4l2-13.4l2-6.6l2-3.2l2-0.8l2,1.3l2,3.7l2,7.1l2,14.1l1.6,79.5"/>
<path class="st5" d="M1121.4,903.6l2-70.5l2-13.4l2-6.6l2-3.2l2-0.8l2,1.3l2,3.7l2,7.1l2,14.1l1.8,77.4"/>
<path class="st5" d="M1141.2,912.6l2-72.3l2-13.4l2-6.6l2-3.2l2-0.8"/>
<path class="st5" d="M756.8,817.2l2,1.9l2,4.5l2,8.1l2,15l0.2,31.7"/>
<path class="st5" d="M756.8,178.2l2,1.9l2,4.5l2,8.1l2,15l0.2,64.1"/>
<path class="st5" d="M1141.2,275.4v-72l3.4-13.2l2-6.6l2-3.2l2-0.9"/>
<g class="st3">
	<path class="st4" d="M179.9,39.8l0.5,3.4l0.7-3l5.1-17.9h2.8l4.9,17.9l0.7,3.1l0.5-3.4l4-17.5h3.4l-6.2,25.6h-3.1L188,29.2l-0.4-2
		l-0.4,2l-5.5,18.7h-3.1l-6.2-25.6h3.4L179.9,39.8z"/>
	<path class="st4" d="M205.8,23.8c0-0.5,0.2-1,0.5-1.3s0.8-0.5,1.4-0.5s1.1,0.2,1.4,0.5s0.5,0.8,0.5,1.3s-0.2,1-0.5,1.3
		s-0.8,0.5-1.4,0.5s-1.1-0.2-1.4-0.5S205.8,24.3,205.8,23.8z M209.3,47.8H206v-19h3.3V47.8z"/>
	<path class="st4" d="M217.6,28.8l0.1,2.4c1.5-1.8,3.4-2.7,5.7-2.7c4,0,6,2.3,6.1,6.8v12.6h-3.3V35.3c0-1.4-0.3-2.4-0.9-3
		s-1.6-1-2.9-1c-1.1,0-2,0.3-2.8,0.8s-1.4,1.3-1.9,2.2v13.6h-3.3v-19H217.6z"/>
	<path class="st4" d="M233.6,38.2c0-2.9,0.7-5.3,2.1-7s3.2-2.7,5.4-2.7c2.2,0,4,0.8,5.3,2.3v-9.9h3.3v27h-3l-0.2-2
		c-1.3,1.6-3.1,2.4-5.4,2.4c-2.2,0-4-0.9-5.4-2.7s-2.1-4.2-2.1-7.1V38.2z M236.8,38.5c0,2.2,0.4,3.8,1.3,5.1s2.1,1.8,3.7,1.8
		c2.1,0,3.6-0.9,4.5-2.8v-8.7c-1-1.8-2.5-2.7-4.5-2.7c-1.6,0-2.8,0.6-3.7,1.8S236.8,36.1,236.8,38.5z"/>
	<path class="st4" d="M253.8,38.2c0-1.9,0.4-3.5,1.1-5s1.8-2.6,3.1-3.4s2.8-1.2,4.5-1.2c2.6,0,4.7,0.9,6.3,2.7s2.4,4.2,2.4,7.2v0.2
		c0,1.9-0.4,3.5-1.1,5s-1.7,2.6-3,3.4s-2.8,1.2-4.5,1.2c-2.6,0-4.7-0.9-6.3-2.7s-2.4-4.2-2.4-7.1V38.2z M257.1,38.5
		c0,2.1,0.5,3.8,1.5,5.1s2.3,1.9,3.9,1.9c1.7,0,3-0.6,3.9-1.9s1.5-3.1,1.5-5.4c0-2.1-0.5-3.8-1.5-5.1s-2.3-1.9-3.9-1.9
		c-1.6,0-2.9,0.6-3.9,1.9S257.1,36.2,257.1,38.5z"/>
	<path class="st4" d="M292,43.4l3.7-14.5h3.3l-5.5,19h-2.6l-4.6-14.4l-4.5,14.4H279l-5.5-19h3.2l3.7,14.2l4.4-14.2h2.6L292,43.4z"/>
	<path class="st4" d="M312.8,47.8V31.3h-3v-2.5h3v-2c0-2,0.5-3.6,1.6-4.7s2.6-1.7,4.6-1.7c0.8,0,1.5,0.1,2.2,0.3l-0.2,2.6
		c-0.6-0.1-1.1-0.2-1.8-0.2c-1.1,0-1.9,0.3-2.4,0.9s-0.9,1.5-0.9,2.7v2h4.1v2.5H316v16.5H312.8z"/>
	<path class="st4" d="M335.4,46c-1.3,1.5-3.1,2.2-5.6,2.2c-2,0-3.6-0.6-4.6-1.8s-1.6-2.9-1.6-5.2V28.8h3.3v12.3
		c0,2.9,1.2,4.3,3.5,4.3c2.5,0,4.1-0.9,5-2.8V28.8h3.3v19h-3.1L335.4,46z"/>
	<path class="st4" d="M346.6,28.8l0.1,2.4c1.5-1.8,3.4-2.7,5.7-2.7c4,0,6,2.3,6.1,6.8v12.6h-3.3V35.3c0-1.4-0.3-2.4-0.9-3
		s-1.6-1-2.9-1c-1.1,0-2,0.3-2.8,0.8s-1.4,1.3-1.9,2.2v13.6h-3.3v-19H346.6z"/>
	<path class="st4" d="M371,45.5c1.2,0,2.2-0.4,3-1.1s1.3-1.6,1.4-2.6h3.1c-0.1,1.1-0.4,2.1-1.1,3.1s-1.6,1.8-2.8,2.4
		s-2.4,0.9-3.7,0.9c-2.6,0-4.6-0.9-6.2-2.6s-2.3-4.1-2.3-7.1V38c0-1.9,0.3-3.5,1-4.9s1.7-2.6,2.9-3.4s2.8-1.2,4.5-1.2
		c2.1,0,3.9,0.6,5.3,1.9s2.2,2.9,2.3,5h-3.1c-0.1-1.2-0.6-2.2-1.4-3s-1.9-1.2-3.1-1.2c-1.7,0-2.9,0.6-3.8,1.8s-1.4,2.9-1.4,5.2v0.6
		c0,2.2,0.5,3.9,1.4,5.1S369.3,45.5,371,45.5z"/>
	<path class="st4" d="M386.6,24.2v4.6h3.6v2.5h-3.6v11.8c0,0.8,0.2,1.3,0.5,1.7c0.3,0.4,0.9,0.6,1.6,0.6c0.4,0,0.9-0.1,1.5-0.2v2.6
		c-0.9,0.2-1.7,0.3-2.5,0.3c-1.5,0-2.5-0.4-3.3-1.3s-1.1-2.1-1.1-3.7V31.3h-3.5v-2.5h3.5v-4.6H386.6z"/>
	<path class="st4" d="M394,23.8c0-0.5,0.2-1,0.5-1.3s0.8-0.5,1.4-0.5s1.1,0.2,1.4,0.5s0.5,0.8,0.5,1.3s-0.2,1-0.5,1.3
		s-0.8,0.5-1.4,0.5s-1.1-0.2-1.4-0.5S394,24.3,394,23.8z M397.5,47.8h-3.3v-19h3.3V47.8z"/>
	<path class="st4" d="M401.8,38.2c0-1.9,0.4-3.5,1.1-5s1.8-2.6,3.1-3.4s2.8-1.2,4.5-1.2c2.6,0,4.7,0.9,6.3,2.7s2.4,4.2,2.4,7.2v0.2
		c0,1.9-0.4,3.5-1.1,5s-1.7,2.6-3,3.4s-2.8,1.2-4.5,1.2c-2.6,0-4.7-0.9-6.3-2.7s-2.4-4.2-2.4-7.1V38.2z M405.1,38.5
		c0,2.1,0.5,3.8,1.5,5.1s2.3,1.9,3.9,1.9c1.7,0,3-0.6,3.9-1.9s1.5-3.1,1.5-5.4c0-2.1-0.5-3.8-1.5-5.1s-2.3-1.9-3.9-1.9
		c-1.6,0-2.9,0.6-3.9,1.9S405.1,36.2,405.1,38.5z"/>
	<path class="st4" d="M426.3,28.8l0.1,2.4c1.5-1.8,3.4-2.7,5.7-2.7c4,0,6,2.3,6.1,6.8v12.6h-3.3V35.3c0-1.4-0.3-2.4-0.9-3
		s-1.6-1-2.9-1c-1.1,0-2,0.3-2.8,0.8s-1.4,1.3-1.9,2.2v13.6h-3.3v-19H426.3z"/>
</g>
</svg>
