<?xml version="1.0" encoding="UTF-8"?>
<svg id="Ebene_4" data-name="Ebene 4" xmlns="http://www.w3.org/2000/svg" viewBox="0 0 1166.4 1029.6">
  <defs>
    <style>
      .cls-1 {
        letter-spacing: -.01em;
      }

      .cls-2 {
        stroke: #307eef;
        stroke-width: 1.5px;
      }

      .cls-2, .cls-3, .cls-4, .cls-5, .cls-6 {
        fill: none;
      }

      .cls-2, .cls-5 {
        stroke-linejoin: round;
      }

      .cls-3 {
        stroke-width: 1.57px;
      }

      .cls-3, .cls-6 {
        stroke: rgba(201, 209, 217, .2);
        stroke-miterlimit: 20;
      }

      .cls-4 {
        stroke: #c9d1d9;
        stroke-miterlimit: 10;
        stroke-width: 2px;
      }

      .cls-7 {
        font-size: 36px;
      }

      .cls-7, .cls-8 {
        fill: #c5cdd5;
        font-family: Roboto-Regular, Roboto;
      }

      .cls-8 {
        font-size: 24px;
      }

      .cls-5 {
        stroke: #1da37d;
        stroke-width: 2px;
      }

      .cls-9 {
        letter-spacing: -.02em;
      }

      .cls-6 {
        stroke-width: 1.4px;
      }
    </style>
  </defs>
  <path class="cls-5" d="m108,943.2l4-.36,4-1.09,4-1.81,4-2.52,4-3.22,4-3.91,4-4.58,4-5.23,4-5.87,4-6.48,4-7.06,4-7.62,4-8.14,4-8.63,4-9.09,4-9.51,4-9.89,4-10.24,4-10.54,4-10.8,4-11.01,4-11.18,4-11.31,4-11.39,4-11.42,4-11.41,4-11.35,4-11.25,4-11.1,4-10.91,4-10.67,4-10.39,4-10.07,4-9.71,4-9.31,4-8.87,4-8.39,4-7.88,4-7.34,4-6.77,4-6.18,4-5.55,4-4.91,4-4.25,4-3.56,4-2.87,4-2.16,4-1.45,4-.73h4l4,.73,4,1.45,4,2.16,4,2.87,4,3.56,4,4.25,4,4.91,4,5.55,4,6.18,4,6.77,4,7.34,4,7.88,4,8.39,4,8.87,4,9.31,4,9.71,4,10.07,4,10.39,4,10.67,4,10.91,4,11.1,4,11.25,4,11.35,4,11.41,4,11.42,4,11.39,4,11.31,4,11.18,4,11.01,4,10.8,4,10.54,4,10.24,4,9.89,4,9.51,4,9.09,4,8.63,4,8.14,4,7.62,4,7.06,4,6.48,4,5.87,4,5.23,4,4.58,4,3.91,4,3.22,4,2.52,4,1.81,4,1.09,4,.36"/>
  <path class="cls-3" d="m306,565.2v378"/>
  <path class="cls-3" d="m207,565.2v378"/>
  <path class="cls-6" d="m504,871.2H108"/>
  <rect class="cls-4" x="108" y="565.2" width="396" height="378"/>
  <path class="cls-6" d="m504,799.2H108"/>
  <path class="cls-6" d="m504,727.2H108"/>
  <path class="cls-6" d="m504,655.2H108"/>
  <path class="cls-3" d="m405,565.2v378"/>
  <text class="cls-8" transform="translate(72 950.21)"><tspan x="0" y="0">0</tspan></text>
  <text class="cls-8" transform="translate(52.21 590.21)"><tspan x="0" y="0">1.0</tspan></text>
  <text class="cls-8" transform="translate(52.21 806.21)"><tspan x="0" y="0">0.4</tspan></text>
  <text class="cls-8" transform="translate(52.21 878.21)"><tspan x="0" y="0">0.2</tspan></text>
  <text class="cls-8" transform="translate(52.21 734.21)"><tspan x="0" y="0">0.6</tspan></text>
  <text class="cls-8" transform="translate(52.21 662.21)"><tspan x="0" y="0">0.8</tspan></text>
  <text class="cls-8" transform="translate(101.26 979.2)"><tspan x="0" y="0">0</tspan></text>
  <text class="cls-8" transform="translate(495.45 979.2)"><tspan x="0" y="0">N</tspan></text>
  <text class="cls-8" transform="translate(20.53 807.46) rotate(-90)"><tspan x="0" y="0">amplitude</tspan></text>
  <text class="cls-8" transform="translate(260.58 979.2)"><tspan x="0" y="0">samples</tspan></text>
  <text class="cls-8" transform="translate(72 446.21)"><tspan x="0" y="0">0</tspan></text>
  <text class="cls-8" transform="translate(52.21 86.21)"><tspan x="0" y="0">1.0</tspan></text>
  <text class="cls-8" transform="translate(52.21 302.21)"><tspan x="0" y="0">0.4</tspan></text>
  <text class="cls-8" transform="translate(52.21 374.21)"><tspan x="0" y="0">0.2</tspan></text>
  <text class="cls-8" transform="translate(52.21 230.21)"><tspan x="0" y="0">0.6</tspan></text>
  <text class="cls-8" transform="translate(52.21 158.21)"><tspan x="0" y="0">0.8</tspan></text>
  <text class="cls-8" transform="translate(101.26 475.2)"><tspan x="0" y="0">0</tspan></text>
  <text class="cls-8" transform="translate(495.45 475.2)"><tspan x="0" y="0">N</tspan></text>
  <text class="cls-8" transform="translate(20.53 303.46) rotate(-90)"><tspan x="0" y="0">amplitude</tspan></text>
  <text class="cls-8" transform="translate(260.58 475.2)"><tspan x="0" y="0">samples</tspan></text>
  <text class="cls-8" transform="translate(668.53 807.46) rotate(-90)"><tspan x="0" y="0">amplitude</tspan></text>
  <text class="cls-8" transform="translate(931.55 1015.9)"><tspan x="0" y="0">bins</tspan></text>
  <text class="cls-8" transform="translate(701.7 266.21)"><tspan x="0" y="0">-50</tspan></text>
  <text class="cls-8" transform="translate(721.8 86.21)"><tspan x="0" y="0">0</tspan></text>
  <text class="cls-8" transform="translate(701.7 194.21)"><tspan x="0" y="0">-30</tspan></text>
  <text class="cls-8" transform="translate(701.7 230.21)"><tspan x="0" y="0">-40</tspan></text>
  <text class="cls-8" transform="translate(701.7 158.21)"><tspan x="0" y="0">-20</tspan></text>
  <text class="cls-8" transform="translate(701.7 122.21)"><tspan x="0" y="0">-10</tspan></text>
  <text class="cls-8" transform="translate(947.26 480.6)"><tspan x="0" y="0">0</tspan></text>
  <text class="cls-8" transform="translate(668.53 303.46) rotate(-90)"><tspan x="0" y="0">amplitude</tspan></text>
  <text class="cls-8" transform="translate(931.55 511.9)"><tspan x="0" y="0">bins</tspan></text>
  <path class="cls-6" d="m504,583.2H108"/>
  <path class="cls-3" d="m954,565.2v378"/>
  <path class="cls-3" d="m855,565.2v378"/>
  <path class="cls-3" d="m1053,565.2v378"/>
  <path class="cls-3" d="m954,61.2v378"/>
  <path class="cls-3" d="m855,61.2v378"/>
  <path class="cls-6" d="m1152,367.2h-396"/>
  <rect class="cls-4" x="756" y="61.2" width="396" height="378"/>
  <path class="cls-6" d="m1152,295.2h-396"/>
  <path class="cls-6" d="m1152,223.2h-396"/>
  <path class="cls-6" d="m1152,151.2h-396"/>
  <path class="cls-3" d="m1053,61.2v378"/>
  <path class="cls-6" d="m1152,79.2h-396"/>
  <path class="cls-3" d="m306,61.2v378"/>
  <path class="cls-3" d="m207,61.2v378"/>
  <path class="cls-6" d="m504,367.2H108"/>
  <rect class="cls-4" x="108" y="61.2" width="396" height="378"/>
  <path class="cls-6" d="m504,295.2H108"/>
  <path class="cls-6" d="m504,223.2H108"/>
  <path class="cls-6" d="m504,151.2H108"/>
  <path class="cls-3" d="m405,61.2v378"/>
  <path class="cls-6" d="m504,79.2H108"/>
  <line class="cls-5" x1="108" y1="79.2" x2="504" y2="79.2"/>
  <path class="cls-2" d="m953.1,80.1l1.88.47,1.88,1.44,1.88,2.47,1.88,3.61,1.88,4.96,1.88,6.67,1.88,9.05,1.88,12.95,1.88,21.63,1.96,94.24,1.8-87.34,1.88-16.35,1.88-7.03,1.88-2.62,1.88.46,1.88,3.21,1.88,6.28,1.88,10.63,1.88,19.5,1.88,94.83,1.88-89.71,1.88-17.83,1.88-8.18,1.88-3.6,1.88-.41,1.88,2.42,1.88,5.55,1.88,9.92,1.88,18.66,1.88,83.17,1.88-77.89,1.88-18.59,1.88-8.69,1.88-4.04,1.88-.81,1.88,2.05,1.88,5.18,1.88,9.53,1.88,18.12,3.11,67.96.65-62.04,1.88-19.15,1.88-9.03,1.88-4.31,1.88-1.06,1.88,1.81,1.88,4.94,1.88,9.26,1.88,17.69,2.29,83.49,1.47-76.73,1.88-19.64,1.88-9.28,1.88-4.51,1.88-1.24,1.88,1.64,1.88,4.76,1.88,9.04,1.88,17.32,1.47,112.84,2.29-105.14,1.88-20.1,1.88-9.49,1.88-4.67,1.88-1.38,1.88,1.5,1.88,4.61,1.88,8.86,1.88,16.99,2.45,105.21,1.31-96.52,1.88-20.54,1.88-9.69,1.88-4.81,1.88-1.5,1.88,1.39,1.88,4.49,1.88,8.7,1.88,16.68,1.64,78.39,2.13-68.66,1.88-20.97,1.88-9.87,1.88-4.93,1.88-1.6,1.88,1.28,1.88,4.38,1.88,8.55,1.88,16.4,2.62,64.63,1.15-53.82,1.88-21.41,1.88-10.04,1.88-5.05,1.88-1.7,1.88,1.19,1.88,4.27,3.76,10.95,1.8,41.4"/>
  <path class="cls-2" d="m1009.8,799.2v-54.38s2-13.41,2-13.41l2-6.56,2-3.21,2-.83,2,1.31,2,3.69,2,7.07,2,14.04,3.8,86.48"/>
  <path class="cls-2" d="m1029.6,833.4v-65.86s2-13.39,2-13.39l2-6.58,2-3.23,2-.85,2,1.29,2,3.69,2,7.08,2,14.08,2,40.39"/>
  <path class="cls-2" d="m990,774l.2-56.87,2-15.04,2-8.11,2-4.5,2-1.88,2,.45,2,3,2,6.54,2,13.73,3.6,87.88"/>
  <path class="cls-2" d="m954,583.5l1.8.17,1.8.51,1.8.85,1.8,1.2,1.8,1.57,1.8,1.94,1.8,2.33,1.8,2.75,1.8,3.2,1.8,3.68,1.8,4.22,1.8,4.82,1.8,5.51,1.8,6.33,1.8,7.34,1.8,8.66,1.8,10.52,1.8,13.55,1.8,20.09,1.8,75.11"/>
  <path class="cls-2" d="m918,757.86l1.8-75.11,1.8-20.09,1.8-13.55,1.8-10.52,1.8-8.66,1.8-7.34,1.8-6.33,1.8-5.51,1.8-4.82,1.8-4.22,1.8-3.68,1.8-3.2,1.8-2.75,1.8-2.33,1.8-1.94,1.8-1.57,1.8-1.2,1.8-.85,1.8-.51,1.8-.17"/>
  <path class="cls-2" d="m896.4,801l3.6-89.68,2-13.73,2-6.54,2-3,2-.45,2,1.88,2,4.5,2,8.11,2,15.04,2,58.47"/>
  <path class="cls-2" d="m858.6,808.2l1.8-38.59,2-14.08,2-7.08,2-3.69,2-1.29,2,.85,2,3.23,2,6.58,2,13.39,2,69.46"/>
  <path class="cls-2" d="m840.4,911.66l1.8-124.28,2.2-14.9,2-7.07,2-3.69,2-1.31,2,.83,2,3.21,2,6.56,2,13.41.2,84.98"/>
  <path class="cls-2" d="m765,217.8l3.68-25.95,1.88-8.41,1.88-4.27,1.88-1.19,1.88,1.7,1.88,5.05,1.88,10.04,1.88,21.41,2.95,55.62.82-66.43,1.88-16.4,1.88-8.55,1.88-4.38,1.88-1.28,1.88,1.6,1.88,4.93,1.88,9.87,1.88,20.97,2.13,68.66,1.64-78.39,1.88-16.68,1.88-8.7,1.88-4.49,1.88-1.39,1.88,1.5,1.88,4.81,1.88,9.69,1.88,20.54,1.31,98.32,2.45-107.01,1.88-16.99,1.88-8.86,1.88-4.61,1.88-1.5,1.88,1.38,1.88,4.67,1.88,9.49,1.88,20.1,2.29,112.34,1.47-120.04,1.88-17.32,1.88-9.04,1.88-4.76,1.88-1.64,1.88,1.24,1.88,4.51,1.88,9.28,1.88,19.64,1.47,76.73,2.29-83.49,1.88-17.69,1.88-9.26,1.88-4.94,1.88-1.81,1.88,1.06,1.88,4.31,1.88,9.03,1.88,19.15,1.88,69.23,1.88-75.15,1.88-18.12,1.88-9.53,1.88-5.18,1.88-2.05,1.88.81,1.88,4.04,1.88,8.69,1.88,18.59,1.88,77.89,1.88-83.17,1.88-18.66,1.88-9.92,1.88-5.55,1.88-2.42,1.88.41,1.88,3.6,1.88,8.18,1.88,17.83,1.88,89.71,1.88-94.83,1.88-19.5,1.88-10.63,1.88-6.28,1.88-3.21,1.88-.46,1.88,2.62,1.88,7.03,1.88,16.35,1.8,87.34,1.96-94.24,1.88-21.63,1.88-12.95,1.88-9.05,1.88-6.67,1.88-4.96,1.88-3.61,1.88-2.47,1.88-1.44,1.88-.47"/>
  <path class="cls-3" d="m805.5,61.2v378"/>
  <path class="cls-3" d="m904.5,61.2v378"/>
  <path class="cls-3" d="m1003.5,61.2v378"/>
  <path class="cls-3" d="m1102.5,61.2v378"/>
  <text class="cls-8" transform="translate(739.21 480.6)"><tspan x="0" y="0">-15</tspan></text>
  <text class="cls-8" transform="translate(1138.52 480.6)"><tspan x="0" y="0">15</tspan></text>
  <path class="cls-6" d="m1152.04,115.2h-396"/>
  <path class="cls-6" d="m1152,403.2h-396"/>
  <path class="cls-6" d="m1152,331.2h-396"/>
  <path class="cls-6" d="m1152,259.2h-396"/>
  <path class="cls-6" d="m1152,187.2h-396"/>
  <path class="cls-6" d="m1152,115.2h-396"/>
  <text class="cls-8" transform="translate(701.7 302.21)"><tspan x="0" y="0">-60</tspan></text>
  <text class="cls-8" transform="translate(701.7 338.21)"><tspan x="0" y="0">-70</tspan></text>
  <text class="cls-8" transform="translate(701.7 374.21)"><tspan x="0" y="0">-80</tspan></text>
  <text class="cls-8" transform="translate(701.7 410.21)"><tspan x="0" y="0">-90</tspan></text>
  <text class="cls-8" transform="translate(688.23 446.21)"><tspan x="0" y="0">-100</tspan></text>
  <text class="cls-8" transform="translate(701.66 770.21)"><tspan x="0" y="0">-50</tspan></text>
  <text class="cls-8" transform="translate(721.76 590.21)"><tspan x="0" y="0">0</tspan></text>
  <text class="cls-8" transform="translate(701.66 698.21)"><tspan x="0" y="0">-30</tspan></text>
  <text class="cls-8" transform="translate(701.66 734.21)"><tspan x="0" y="0">-40</tspan></text>
  <text class="cls-8" transform="translate(701.66 662.21)"><tspan x="0" y="0">-20</tspan></text>
  <text class="cls-8" transform="translate(701.66 626.21)"><tspan x="0" y="0">-10</tspan></text>
  <path class="cls-6" d="m1151.96,871.2h-396"/>
  <rect class="cls-4" x="755.96" y="565.2" width="396" height="378"/>
  <path class="cls-6" d="m1151.96,799.2h-396"/>
  <path class="cls-6" d="m1151.96,727.2h-396"/>
  <path class="cls-6" d="m1151.96,655.2h-396"/>
  <path class="cls-6" d="m1151.96,583.2h-396"/>
  <path class="cls-6" d="m1152,619.2h-396"/>
  <path class="cls-6" d="m1151.96,907.2h-396"/>
  <path class="cls-6" d="m1151.96,835.2h-396"/>
  <path class="cls-6" d="m1151.96,763.2h-396"/>
  <path class="cls-6" d="m1151.96,691.2h-396"/>
  <path class="cls-6" d="m1151.96,619.2h-396"/>
  <text class="cls-8" transform="translate(701.66 806.21)"><tspan x="0" y="0">-60</tspan></text>
  <text class="cls-8" transform="translate(701.66 842.21)"><tspan x="0" y="0">-70</tspan></text>
  <text class="cls-8" transform="translate(701.66 878.21)"><tspan x="0" y="0">-80</tspan></text>
  <text class="cls-8" transform="translate(701.66 914.21)"><tspan x="0" y="0">-90</tspan></text>
  <text class="cls-8" transform="translate(687.6 950.21)"><tspan x="0" y="0">-100</tspan></text>
  <text class="cls-8" transform="translate(947.26 984.93)"><tspan x="0" y="0">0</tspan></text>
  <text class="cls-8" transform="translate(739.21 984.93)"><tspan x="0" y="0">-15</tspan></text>
  <text class="cls-8" transform="translate(1138.52 984.93)"><tspan x="0" y="0">15</tspan></text>
  <text class="cls-7" transform="translate(210.09 396)"><tspan x="0" y="0">Rectangular</tspan></text>
  <text class="cls-7" transform="translate(263.51 900)"><tspan x="0" y="0">Hann</tspan></text>
  <text class="cls-7" transform="translate(814.5 51.1)"><tspan class="cls-1" x="0" y="0">F</tspan><tspan x="19.53" y="0">ourier t</tspan><tspan class="cls-9" x="132.75" y="0">r</tspan><tspan x="144.23" y="0">ansform</tspan></text>
  <path class="cls-2" d="m878.4,835.2l2-91.48,2-13.73,2-6.54,2-3,2-.45,2,1.88,2,4.5,2,8.11,2,15.04v53.27"/>
  <path class="cls-2" d="m764.8,911.43l2-77.71,2-13.73,2-6.54,2-3,2-.45,2,1.88,2,4.5,2,8.11,2,15.04.2,31.67"/>
  <path class="cls-2" d="m782.8,900.63l2-77.71,2-13.73,2-6.54,2-3,2-.45,2,1.88,2,4.5,2,8.11,2,15.04,2,58.47"/>
  <path class="cls-2" d="m802.8,903.6l2-91.48,2-13.73,2-6.54,2-3,2-.45,2,1.88,2,4.5,2,8.11,2,15.04v91.07"/>
  <path class="cls-2" d="m820.8,910.8l2-108.79,2-14.08,2-7.08,2-3.69,2-1.29,2,.85,2,3.23,2,6.58,2,13.39,2,88.4"/>
  <path class="cls-2" d="m1047.6,869.4l.2-83.59,2-14.08,2-7.08,2-3.69,2-1.29,2,.85,2,3.23,2,6.58,2,13.39,1.8,127.06"/>
  <path class="cls-2" d="m1065.6,841.46l1.8-38.59,2-14.08,2-7.08,2-3.69,2-1.29,2,.85,2,3.23,2,6.58,2,13.39,2,25.4"/>
  <path class="cls-2" d="m1083.6,912.6l1.8-100.06,2-13.39,2-6.58,2-3.23,2-.85,2,1.29,2,3.69,2,7.08,2,14.08,2,94.39"/>
  <path class="cls-2" d="m1101.8,910.41l2-88.4,2-13.39,2-6.58,2-3.23,2-.85,2,1.29,2,3.69,2,7.08,2,14.08,1.6,79.52"/>
  <path class="cls-2" d="m1121.4,903.6l2-70.47,2-13.39,2-6.58,2-3.23,2-.85,2,1.29,2,3.69,2,7.08,2,14.08,1.8,77.4"/>
  <path class="cls-2" d="m1141.2,912.6l2-72.27,2-13.39,2-6.58,2-3.23,2-.85"/>
  <path class="cls-2" d="m756.8,817.2l2,1.88,2,4.5,2,8.11,2,15.04.2,31.67"/>
  <path class="cls-2" d="m756.8,178.2l2,1.88,2,4.5,2,8.11,2,15.04.2,64.07"/>
  <path class="cls-2" d="m1141.2,275.4v-72l3.4-13.22,2-6.58,2-3.23,2-.85"/>
  <text class="cls-7" transform="translate(171.36 47.84)"><tspan x="0" y="0">Window function</tspan></text>
</svg>