<?xml version="1.0" encoding="UTF-8"?>
<svg id="Ebene_5" data-name="Ebene 5" xmlns="http://www.w3.org/2000/svg" viewBox="0 0 596.09 127">
  <defs>
    <style>
      .cls-1 {
        fill: none;
        stroke: #307eef;
        stroke-linecap: square;
        stroke-linejoin: round;
      }
    </style>
  </defs>
  <path class="cls-1" d="m2,56.74l.17-.03.06.08.06-.04.67.08.13-.04h.03s.06.05.06.05l.08.04.03-.06h.12s.53-.01.53-.01l.17-.09.58.09.17-.04.14.05.09-.04.02.04h.28s.14,0,.14,0v-.03s.08-.07.08-.07l.07.03.2.16.02-.04.21-.11h.01s.12.01.12.01v-.02s.19.04.19.04l.14-.02.13-.08.28.1v-.02s.17-.02.17-.02l.2.04v-.02s.09-.04.09-.04l.06.06h.24s.13.12.13.12l.04-.07.02-.05.09.04h.13s.23-.02.23-.02l.13-.03.02.05.35-.05.26-.02h.24s.23.06.23.06l1.21-.06h.12s.01,0,.01,0l.11.03h.01s.29-.01.29-.01l.06.02.04-.05.12.04.17-.02.11.03.1-.07.11.04.12-.04.15.05.11-.03.13-.03.02.06h.12s.13-.02.13-.02h.01s.07.14.07.14l.06-.11.13-.12.1.15.04-.04.06-.06.06.03.17.1.12-.24.08.08.11.13.04-.1.1-.02v.03s.1.12.1.12l.03-.08.13-.09.02.02.09-.07.03.06.06.18.06-.19.06.02v-.06s.14-.33.14-.33v.07s.07.25.07.25l.04-.25.03-.15.03.19v-.03s.07.71.07.71l.02-.67.04-2.55.06,2.66.13,6.27.06-3.2.12-11.43.04,3.92.1,5.69.06-1.22.06-2,.06,1.16.11,8.84.07-5.8.09-7.33.04,2.06.12,6.85.04-2.37.09-4.99.04,2.11.07,4.54.07-2.56.12-2.34.04.49.11,3.68.04-1.46.04-1.65.04,1.82.06,2.42.06-1.45.07-1.86.08.48.02-.17.04.63.02.27.07-.71.09-3.35.06,2.08.03.67.07-1.02.03-.51.03.85.04,1.14.06-1.48.07-1.44.03,1.36.03.84.06-1.39v-.1s.03.58.03.58l.09,3.12.06-2.02.02-.41.04,1.58.23,9.56.04-.64.04-.28.03.55.03.54.04-.44.02-1,.06,2.12v.35s.04-1.75.04-1.75l.14-32.49.1,10.48.15,16.14.07-1.44.07,3.82.03-3.2.19-21.33.02.94.14,18.86.09-6.68.14-6.54.08.8.1,8.43.26,18.76.04-1.8.02-1.15.06,3.25.18,17.19.02-5.36.11-71.25.07,25.03.17,25.08v.11s.03-.84.03-.84l.03-3.12.03,4.98.07,21.5.04-15.28.09-47.81.07,14.53.17,25.74.02-3.52.04-7.86.07,7.14.06,6.2.03-5.52.12-26.97.04,8.04.11,15.04.04-3.86.08-3.59.03,2.47.04,5.1.07-3.83.03-1.85.07-2.47.03,1.51.33,33.18.06-.42.1,3.09v-1.53s.12-64.48.12-64.48l.11,26.82.3,42.35.02-5.3.11-51.75.07,13.56.06,2.66.04-2.89.02-2.83.06,6.76.03-1.13.04,5.9.08,11.98.04-7.86.07-19.41.08,7.26.04,1.92.06-2.68v-.25s.03,1.88.03,1.88l.2,14.91-.13-15.93.18,8.75.07-6.12.04,4.59.21,20.62.14,16.55.07-4.73.02.18.06,4.12v-1.96s.12-67.1.12-67.1l.09,23.61.02,1.35.03-4.37.02.61v-.18s.02.57.02.57l.15,32.4.06,15.49.04-17.43.08-36.65.07,16.86.02,1.18.02-2.62.09-17.14.06,8.02.15,20.83.04-8.64.06-15.41.06,10.52.04,3.36.04-6.22.06-7.79.07,3.89.04,6.52.12,7.85.02-3.45.08-6.53.03,6.53.07,12.98.08-3.71v-.18s.02.87.02.87l.18,26.82v-.26s.02.31.02.31l.02,2.57.07-4.95.02-.51.04-4.6.1-53.67.09,12.27v.86s.04-4.64.04-4.64l.03-3.97.06,7.28.18,41.78.03-10.82.28-41.74v-.81s.03,5.53.03,5.53l.14,19.36.03-1.08.08-4,.02-3.25.08,5.62.11-12.36.11,5.55.14,7.8.04-1.85.03,1.04.54,42.65v-1.83s.13-63.75.13-63.75l.09,13.11.07-10.36.06,7.46.17,39.91.04-4.89.08-20.11.07,7.31v-.13s.13-29,.13-29l.07,9.79.17,7.58-.11-8.11.13,7.5.06-4.91.03,4.3.03,6.53.06-7.08.08-8.79.04,3.99.02,3.4.1-.19.51,46,.07,8.07.04-7.91.08-10.57.08-43.43.09,3.3.02,3.71.03-11.96.04-10.42.04,10.75.18,40.5.02-2.43.1-14.37.03,3.13.03,6.11.04-12.29.08-18.74.06,4.82.02,3.64.06-4.88.03,3.01.03-1.88.03,3.66.13,9.53-.07-10.74.1,5.87.1-8.31.03,2.57.03,5.71.07-5.02.02-1.33.06,3.39.15,11.39.02,2.16.24,28.55.13,14.81-.09-15.01.15,8.18.07-34.72.12-18.03v.06s.04-1.79.04-1.79l.07-19.59.07,13.27.17,33.97v-3.35s.07-5.13.07-5.13l.03,6.12.02-3.73.06,6.48.03-7.22.11-21.99.02,3.26.02,3.63.06-11.08.03-.78.03,2.61v-.28s.03-.66.03-.66v.82s.15,11.11.15,11.11l.03-3.89.02-2.01.03,2.3.06-1.98.06,6.3.06-4.92h.01s.24,17.02.24,17.02l.02-1.05.21,27.93.02-.09v1.05s.11,13.39.11,13.39l.06-3.83.06-23.53.13-30.05v.98s.02,1.06.02,1.06l.03-7.13.07-24.49.06,17.61.17,29.81v.13s.03-2.56.03-2.56l.06,7.54v.05s.02-1.54.02-1.54l.06,6.45v.81s.03-3.96.03-3.96l.11-27.97.04,7.09.02,2.18.03-11.17.1-8.81.02,1.78.04,10.9.1-.33.02-3.14v-1.91s.06,8.44.06,8.44l.02,3.25.04-4.2.06,3.6.03-7.53.09,4.87.1-.23.37,51.5.06,9.13.06-7.84.06-13.53.15-37.06.11-33.92.04,13.18.28,43.73.04.31.08-13.27.09-12.43.04,4.97v2.69s.06-15.44.06-15.44l.06-10.44.06,5.16.06,9.86.07-6.23v-1.03s.04,4.45.04,4.45l.02-1.85.07,10.77.08-2.18v.34s.03-1.13.03-1.13l.02-3.29.07,5.68v-.59s.08,1.19.08,1.19l.06-3.14.23,33.16.17,29.93.03-3.38v1.64s.07-7.82.07-7.82l.23-73.86.03-12.85.07,14,.23,38.62.1,9.54.04-4.87.08-20.31.07,4.61v1.74s.04-7.42.04-7.42l.09-21.39.06,5.29.02,7.54.08-8.71v2s.24,14.42.24,14.42l.1-.64v-.22s.03.77.03.77l.13,4.72h.01s.01-.29.01-.29v2.25s.3,58.45.3,58.45v-1.1s.41-102.43.41-102.43l.04,17.13.19,29.34v-.05s.02-1.62.02-1.62l.02,8.2.06,10.76.07-4.19.02,1.9.02-7.02.12-8.24v1.4s.02.73.02.73v-3.84s.13-23.8.13-23.8l.02,2.61.02,2.24.02,8,.07-16.48.13,15.48.03-2.68.03,2.19.14,6.86.03-2.08v2.28s.25,25.97.25,25.97l.02-.55.02,1.67.14,35.08.11-6.61.04-25.3.13-28.23v.04s.1-38.99.1-38.99l.09,20.44.14,22.27.07,9.29.13,12.29.13-19.44.02,3.21v.35s.02-2.11.02-2.11l.12-29.59.06,9.42.02,3.25.04-12.32.02-4.87.02,9.93.06-1.57.23,16.06.02-2.28.02-3.02.04,8.49.13,8.64.19,28.53.07,25.42.08-11.07.04.97v-4.4s.18-52.27.18-52.27v.73s.02.05.02.05l.08-37.28.08,22.34.17,22.08.02-1.01v2.54s.14,19.24.14,19.24v-1.55s.12-18.86.12-18.86l.04,5.2v2.78s.06-15.26.06-15.26l.11-22.7.02,9.35.03,6.94.03-13.26.04-1.36.02,3.94.11,10.69-.07-14.44.11,13v-.42s.03,3.23.03,3.23l.21,11.94.37,55.72.08-5.69.28-93.55.06,11.27.35,58.59.02-6.01.11-21.52.04,3.24.02,3.19.03-12.03.11-23.06.03,6.85.02,2.2.04-6.84.06,6.51.06-6.78.04,9.03.1,12.86.12-3.07.02,3.21.14,13.1.32,51.58v-1.12s.19-65.21.19-65.21v1.02s.02,2.23.02,2.23l.03-13.7.02-10.36.02-16.57.07,17.95.02-3.03.14,33.13v-1.01s.02.52.02.52l.02-2.53v-1.17s.03,7.81.03,7.81l.11,21.11.02-6.63.11-27.32.06,8.74.02,4.07.03-22.14.04-14.19.03.13v-5.03s.08,14.58.08,14.58v-.08s.13-7.92.13-7.92v.61s.02-.63.02-.63l.02,4.18.11,21.33.04-4.9.03-5.17.06,4.81.15,21.93v-2.54s.02-2.81.02-2.81l.06,9.53.12,35.99.04-.96.03-.87.03,4.3.29-99.87.04,1.26.2,51.09.03-8.57.06,13.63.09,7.04.02-4.27.09-18.92.08.29.24-27.95.07,11.86.07-3.04v-1.07s.07,3.66.07,3.66l.13,14.6.02-6.15.07,7.19.14,18.26v-.69s.02,2.39.02,2.39l.15,38.04.02-3.67.06,6.05.03-8.62.25-89.39v-2.99s.07,10.3.07,10.3l.17,45.78.03-10v-.42s.03,2.65.03,2.65l.11,17.38.06-9.27.1-21.35.03,5.5.26-28.16.02,6.33.07,8.76.06-1.03.02-3.85.06,9.15.11,6.5v-.36s.03-3.93.03-3.93l.06,8.62.29,56.98.03-1.33.07.96-.03-1.83.04.22.24-83.6.04-7.63.06,4.6.15,48.6.02-7.52.1-3.7-.03,4.82.04-2.28.06,13,.06-10.07.18-32.4.06,2.21v1.17s.04-7.09.04-7.09l.02,1.68.07-8.54.03,7.16.06,10.55.08-2.71v-.71s.04,3.59.04,3.59v-.26s.18,9.65.18,9.65v-.82s.03,4.31.03,4.31l.24,49.34.07,11.65.07-2.93.06-35.17.12-32.26.02,1.08.13-26.57.06,11.11.13,48.42.03-14.31.02,1.41v-3.26s.07-4.68.07-4.68l.03,9.03.04,6.97.03-10.44.04-5.93.14-30.27.03,7.17.03,6.38.07-9.24.06-7.8-.03,8.15.08-1.88.1,13.37.04-2.32.02-1.66.03,4.23.06-2.6.28,42.31.15,36.89.06-8.68.18-70.35.02,3.12.03-13.29v.92s.09-11.35.09-11.35l.04,7.83.13,54.07.07-12.39.06-12.41.06,5.9.02,5.73.08-8.31.12-33.6.02-8.57.07,15.3.06,2.55-.02-5.7.07,4.87.03-6.94.09,2.83v-.72s.02,4.77.02,4.77l.11,10.15v-1.13s.07-6.92.07-6.92l.03,6.73.4,78.09.23-87.94v1.07s.02,1.64.02,1.64l.03-10.66.02,5.76.02-6.94.07,9.6.1,34.63.04,12.1.07-6.34.3-35.86.07-25.74.06,13.61.09,13.96.07-3.96.07-5.53.04,5.03.11,11.52.02-5.22.02-2.67.06,7.33.21,50.22.13,23.57.02-7.66.24-83v.07s.03,7.07.03,7.07l.08-8.92v1.83s.23,51.92.23,51.92l.02-5.88.21-28.74.02,5.15.04-13.26.13-18.79.12,26.31.06-6.48.12-10.92v.44s.19,28.66.19,28.66v-.28s.02,1.09.02,1.09l.28,58.61.04-8.32.19-81.34.25,23.34.13,33.44v-1.69s.14-42.29.14-42.29l.1,8.23v.89s.04-4.63.04-4.63l.14-26.88.02,6.95.1,23.06.08-6.67v.85s.03-5.73.03-5.73l.06-13.28.06,7.75.29,57.37v-.74s.02,1.19.02,1.19l.11,33.4.03-14.86.17-84.57.1,17.8.02,3.86.03-7.66.03,3.27v-1.92s.04,7.15.04,7.15l.02-2.48.15,43.53.04-11.99.18-38.53.09,2.32.02,4.84.06-9.35.02-8.05.09,5.38.14,13.6.03-8.37.04-4.98.09,3.84.34,80.75.03-4.68v.14s.2-92.08.2-92.08l.07,12.33.13,22.09.02-1.73.02-1.31.02,3.85.13,23.99.02-1.3.2-47.02.08,7.99.02-1.33.02,3.95v1.13s.07-5.56.07-5.56l.11-5.43-.08,5.76.09-4.2.13,8.66v-1.59s.07-3.82.07-3.82l.06,3.2.33,74.82.07-14.54.17-79.88.03,5.66.02-1.73.02,10.94.12,24.24.07-.05.13,14.09.06-2.31.19-42.41.06,4.16.1,12.76.06-2.07.13-13.32.06,4.88.18,14.45v-.59s.03,3.15.03,3.15l.28,60.01.03-9.45.18-80.2.07,10.65v-.83s.02,2.5.02,2.5l.13,26.23v-1.41s.02-2.6.02-2.6l.08,6.53.03-4.4.03,7.29.04,1.31-.02-1.75.03.58.29-34.67.13,13.06.04-2.53.1-10.23.04,1.97.45,75.78.03-3.56.2-81.16.08,15.18.11,23.63.11-1.93.03-5.72.12.52v.15s.03,2.16.03,2.16l.06-5.05.19-20.31.12,11.05.02-2.34v-.04s.02,1.51.02,1.51l.06-3.85.13-13.3v1.62s.41,79.66.41,79.66v-4.22s.2-77.95.2-77.95l.02.68v-1.47s.06,7.86.06,7.86l.09,25.34.13,10.94v-1.5s.14-8.77.14-8.77v-.03s.03,1.27.03,1.27l.03-5.66.02-2.25.18-16.53v.9s.13,4.48.13,4.48v-.71s.13-9.12.13-9.12l-.09,10.7.13-9.73.04-1.33.36,74.05.02,5.43.06-16.2.19-73.16v-.35s.2,48.79.2,48.79v-1.19s.13-4.82.13-4.82l-.08,9.73.09-8.72.24-17.7.02,1.89v.75s.04-4.71.04-4.71l.18-11.02v1.99s.07,1.55.07,1.55l.03-3.64v.75s.03-1.85.03-1.85l.02,5.31.02-.43.29,42.12.14,31.39.03-15.27.21-76.92.04,9.49.19,50.38.07-12.38v-.09s.19-23.35.19-23.35l.06,4.25.06,6.51.04-3.69.17-19.73v.51s.19,13.88.19,13.88l.06,3.73-.03-3.87.06,3.52.33,63.67v-3.09s.24-92.17.24-92.17l.04,7.38.21,61.01.07-17.24.17-33.22v1.81s.13,20.62.13,20.62l.03-2.87.13-19.59.07-7.4.06,1.3.31,40.29.08,18.74.08,25.08.06-15.99.22-84.1.04,7.96.2,68.53.07-18.35.15-39.27.03,3.54.18,20.98.06-7.11.13-23.01.03,2.77.03,1.64.21,41.32v.1s.02-1.72.02-1.72l.04,7.88.07,14.79.08,16.51.03-12.16.23-84.08.04,4.96.19,71.73.04-8.25.08-22.22.13-29.55.04,4.79.13,22.14.07-8.57.17-20.92.02,5.11.41,75.71.04-17.4.06-17.52.14-60.06.07,8.52.18,68.08.11-21.45.15-41.4.07,8.17.15,20.25v-1.47s.17-19.62.17-19.62l.02-2.23.06,5.07.33,73.66.04-11.97.1-40.71.14-48.17.02,4.14.15,60.09.07,14.51.06-5.38.23-57.76.03,5.69.17,20.53.04-1.18.11-13.75.1,1.78.28,77.31.04-9.98.26-93.41.07,19.64.14,51.82.09-3.74.08-23.75.13-26.88.06,3.55.02-1.09.02,1.71.15,16.43.06-3.81.14-4.63.09,14.8.1,28.95.11,27.58.04-11.45.07-21.4.17-67.49.02,1.95.06,14.29.21,52.55.06-7.22.19-44.54v1.59s.23,18.02.23,18.02l-.19-18.75.33,16.06.06-2.15.02,3.54.09,14.27.17,48.79.04-8.27.08-20.27.18-64.09.02,2.88v-.2s.14,35.43.14,35.43l.11,19.84.02-3.63v.68s.03-3.83.03-3.83l.18-36.09.03.03.03-1.44.04.77.13,13.74.03-1.63.03-1.35.17,6.77.12,28.91.09,27.24.07-8.25.14-43.14.1-26.89.08,8.17.04,4.61.17,25.31.04-4.14.25-24.23.02.63v-.22s.02.73.02.73l.13,5.88v-.82s.03-2.64.03-2.64l.08,2.79.03-.45.06,3.59.24,49.51.04-2.76.02-1.3.18-41.98.08-7.61.04,1.59v-.47s.03,2.57.03,2.57l.02-.6.17,11.48v-.31s.2-16.87.2-16.87v.42s.09-.52.09-.52l.06,2.04.09,1.05.02-.92.06-1.12.02,1.67.37,38.88.11-4.77.18-14.15v.35s.03.85.03.85l.03-1.72.02.12.18-10.23.02,1.43.02-3.18.17-13.62.18,6.94.03-1.23.06,1.5.02,1.68.07-3.51.06,1.99.04-2.43v-.13s.02.34.02.34l.21,22.36.17,14.69.19-9.85.13,5.26.04-1.01.14-19.61.19-21.91v.03s.24,5.17.24,5.17l.02-1.09.06-2.24.07,1.35.02-.1.06,3.45.18,29.27.09,17.89.09-.7.02-1.63.15-12.3v.31s.06,6.75.06,6.75l.11-1.16.04-7.09.28-40.32.03.81.17,6.62.15-6.49.04,2.33.28,43.27.06,11.67.08-3.05v.48s.04-2.51.04-2.51l.15-11.48v.54s.07,8.54.07,8.54l.09-2.31.04-6.14.28-41.88v-.26s.04,1.61.04,1.61l.17,5.02v-.46s.17-4.65.17-4.65l.12,8.77.24,45.46.11-5,.15-7.41.07,9.19.11-4.7.3-47.33.07,2.82.13,2.01.04-1.77.13-2.32.06,3.49.25,42.83.04,7.04.08-4.3.02.9.03-2.59.03-4.31.06,6.54.04-6.26v-.51s.03,2.43.03,2.43l.04,7.24.08-3.41v.41s.03-1.88.03-1.88l.31-48.19.02,1.08.14,2.93.19-4.29.03,1.54.08,8.23.23,44.19.13-8.16.03-2.44.03,5.62.02.92.03-5.07v-.87s.04,3.95.04,3.95l.03,5.92.09-1.91.02-1.41.3-49.1.04,1.41.14,1.72.06-2.07.13-3.47v.35s.15,18.46.15,18.46l.19,36.04.07-5.41h.02s.07-5.39.07-5.39l.03,5.62.08-3.61.07,10.11.22-30.55.18-22.98.02,1.12.12,3.28.02-.43.22-7.09v.19s.15,22.12.15,22.12l.15,31.49.08-3.92.02-.13.06-4.37.04,4.63.14,6.78-.08-8.12.09,7.46.18-25.47.2-28.28.04,1,.15,4.93.15-7.92.07,3.45.22,38.44.08,11.14.07-4.69.02.36.03-1.16.03-3.41.04,5.32.13,6.49-.07-7.46.08,6.96.22-34.93.14-18,.02.28.17,5.47.03-1.21.13-6.64.03,1.8.1,10.08.23,41.59.06-5.61.11-4.93-.06,5.36.08-3.23.14,9.68v-.05s.2-26.9.2-26.9l.18-26.09.07,3.2.09,2.51.04-.69.12-7.05.08,3.17.02.29.06,8.58.24,41.52.06-6.07v-.03s.04.82.04.82l.02-1.79.03-3.54.04,5.64.13,6.78-.07-8.3.08,7.77.24-41.81.12-10.33.02.48.08,4.34.12-1.99.09-5.51.07,2.09.06,3.1.28,48.05.09-5.44.03-1.98.03-3.38.04,6.48.13,6.93-.07-8.74.08,7.89.36-52.42.08,4.08.02.8.09-.2.12-7.38.09,2.96.1,15.1.2,35.43.12-6.76.04-4.8.04,7.4.13,7.25-.07-9.52.08,8.34.36-52.98.04,1.84.06,3.95.09-.37.14-8.14.06,2.77.09,13.21.22,37.76.07-7.25.03,1.4.03-2.82.03-3.36.04,7.96.12,7.57-.07-10.54.09,9.05.34-54.25.07,3.12.13,4.78v-.25s.15-8.71.15-8.71l.06,2.32.15,24.32.15,25.84.04-5.81.11-6.06.02,1.75.15,13.01v-.71s.24-39.54.24-39.54l.13-14.21.02.63.09,7.79.09-.35.17-9.53.04,5.36.28,44.51.06-2.96.11-3.94.02,2.11.15,11.47v-.85s.22-31.03.22-31.03l.18-23.98.02.7.06,2.72.04-2.63.12-4.88.07,2.18.03,2.61.26,44.83.12,2.59v.1s.02-.4.02-.4l.03-1.97.04,4.21.13,5.4v-.04s.15-13.44.15-13.44l.4-47.33.04-2.84.04-2.87.07,2.31.36,67.97.08-.3.2-7.47.02.74.02-1.21.07-8.05.33-50.16.11,3.9.08,4.05.19,16.88.14,28.21.12,37.63.06-5.59.34-72.28.02.91v.61s.06-2.09.06-2.09l.15-9.27.03,1.91.23,37.89.08-2.87.12-10.53.07,6.32.07,14.29.11,36.77.08-12.67.13-51.38.1-26.16.06,4.56.12,17.67.04-.92v-.35s.03,2.34.03,2.34v.95s.07-2.84.07-2.84v-1.1s.07,4.79.07,4.79l.19,20.14.04-2.01.18-14.93.04,4.4.2,53.43.08-10.46.22-72,.09,5.89.18,18.18.03-1.56.03-1.79.04,3.59v-.08s.02.2.02.2l.17,9.72.03-1.86.08-3.75.04-2.52.06,1.69.23,56.41.1-13.22.19-70.77.03,1.7v-1.19s.08,4.71.08,4.71l.19,20.88.04-3.07.02-1.43.06,4.67v-.85s.02-.11.02-.11v.75s.14,6.99.14,6.99l.06-3.37.1-6.44.06,1.23.23,61.66.08-8.23.04-17.72.19-60.74.06,4.08.23,21.5.02-3.03v-1.29s.08,4.55.08,4.55v-.36s.07,1.35.07,1.35l.1,5.94.04-.95.13-5.13v.34s.11,11.21.11,11.21l.18,47.48.06-6.28.26-79.25.1,10.6.17,14.9.03-2.5.06,3.01.14,5.29-.11-5.35.12,4.2.15-4.7-.12,5.95.15-5.8.06,3.68.21,57.52.09-9.32.07-29.78.18-50.58.29,30.82.02-1.23v1.05s.13,6.19.13,6.19v-.12s.23-13.01.23-13.01l.32,68.56.08-18.34v.38s.22-73.5.22-73.5l.03,3.6v-.07s.25,27.8.25,27.8l.02-4.37.03,8.48.03-.21v1.33s.03-3.07.03-3.07l.07,1.39.09-7.12.1-5.72.03,2.25.26,57.74.06,4.47.03-10.5v3.52s.02.28.02.28l.23-78.62.04,2.44.22,24.87.09,7.64.12-1.28.2-13.1v1.79s.32,64.46.32,64.46v-.18s.3-87.51.3-87.51l.39,36.77.02-3.37.03,1.67.06-2.59.18-9.4.24,39.17.09,24.07.06-7.86h.01s.07-26.4.07-26.4l.19-51.79.17,18.25v-.11s.06,3.03.06,3.03l.15,15.09.04.55.08-6.03.02-.78.12-6.94.02,2.7.22,33.62.1,26.12.04-6.99.04-5.91.23-70.44.02,3.72.13,11.18v-2.21s.02-.96.02-.96l.04,5.42.14,15.58.06,1.59.11-8.63.1-3.88.02,2.25.23,36.29.09,22.54.06-8.55.17-55.5.1-17.09.03,4.82.06-2.69.02,3.46.25,25.44v-.06s.07,1.53.07,1.53l.13-10.96.03-.24.07,2.29.31,54.72v-.73s.32-76.45.32-76.45l.04,2.93.06-1.26.13,11.69.12,15.99.03-1.3.06,2.86.03-3.71v.07s.13-5.99.13-5.99l.06,1.51.31,54.33.03-6.6.08-10.87.21-57.88v.24s.44,28.39.44,28.39l.1-4.17.09.76.02-5.23.32,53.1v.44s.03-3.33.03-3.33l.31-69.53.08,2.8.02-1.5.02,2.95.06-.52.14,17.16.11,6.38v-1.4s.13-6.53.13-6.53v.81s.41,53.53.41,53.53l.08-8.66.04-18.37.2-46.1.02,2.59v1.15s.08-3.57.08-3.57l.03,2.54.02-2.12.06,4.56.21,20.36.03-1.61.1-4.68-.04,5.05.09-3.13.36,53.28.06-4.13.1-31.25.18-35.92.13-4.06-.08,5.42.09-4.26.02-2.55v-.93s.03,5.6.03,5.6l.02-.45.04-.03.14,24.04v.06s.03,1.36.03,1.36l.02-4.5.11-3.92-.07,5.25.08-3.45.4,50.4.07-3.57.25-64.22.03.78v.33s.03-1.28.03-1.28l.12-7.89.22,32.68.02-2.06.02.32.12-6.21.14,10.97v-1.18s.06,6.81.06,6.81v-.51s.03,2.31.03,2.31l.02-1.21.14,34.45.06-4.88.39-70.55.02,1.11.03-4.03.04,5.43.21,29.46.13-5.1.02-.57v.82s.21,14.38.21,14.38l.02-2.22.04,4.76.11,27.69.09-1.38.14-38.94.18-28.8.02.29v-2.04s.08-6.05.08-6.05l.04,3.97.22,33.69.18-2.46.02,2.46.18,7.8.02-.64.02,4.59.13,27.71.1-6.04.23-53.82.17-19.34.04,2.79.18,27.01.14,8.87.02-2.67v-.34s.06,1.62.06,1.62l.12,6.71.02-.82.15,18.43.1,17.51.06-4.54.3-58.88v.54s.02-.38.02-.38l.11-16.02.02,4.86.02-.11.31,31.87.07-1.72-.02,2.14.03-2.04.13,5.72.09,6.49.2,27.69.04-1.5.1-15.3.28-48.47v.18s.02-.37.02-.37l.06-2.59.04,2.36.31,23.85.02-.17v.62s.17,7.57.17,7.57l.02-.86.02,2.94.26,27.43.09-4.97.45-56.27.03,4.74v-.59s.04,3.87.04,3.87v-.36s.02.05.02.05l.18,10.83.36,21.99.2,18.09.28-31.02.2-22.72v.87s.04-1.27.04-1.27l.13,7.56.02-.65.02,3.5v-.09s.03-1.42.03-1.42l.07,3.33.1,4.62.12,7.44.2,12.54.14,12.42.02-1.3.04.13.08-5.43.22-21.68.18-13.45.06.37.04,2.63.12-.59v.11s.02-.36.02-.36l.02-1.68.06,5.08.02-2.5.14,10.22.12,6.46v-.32s.03-1.33.03-1.33l.02,4.9.11,6.96v-.95s.02-1.34.02-1.34l.07,4.28v.19s.03-1.15.03-1.15l.02-.78.03,4.08.13-7.4.13-7.83.03.63v.13s.02-.43.02-.43l.19-11.02v.28s.03-1.33.03-1.33l.06-1.95.02,2.48.04-1.96v.02s.13-3.76.13-3.76l.02,1.57.18,10.25v-.28s.06,1.55.06,1.55l.03-.5.15,9.31.02-2.03.04,2.75.03-.53v.62s.04-3.44.04-3.44l.07,2.87.03-2.47.03,3.94.08-3.19.03,5.41.12-8.56.02,1.58v.97s.06-4.78.06-4.78l.04,4.54.14-9.54.03,2.19.02.92.03-4.72.03,3.21.12-3.74-.09,4.34.11-3.24v1.17s.06-4.47.06-4.47l.02.15.21,6.88v-1.2s.1-2.22.1-2.22l-.04,8.32.06-7.13.03,7.75.09-1.55v-1.66s.08,2.22.08,2.22l.02-.06v1.75s.04-7.07.04-7.07l.04,4.43.03-3.4.03,5.75.04-2.55.02-1.38.02,2.06.11,9.36-.06-11.05.07,9.01.03-10.74.09,2.76.07,4.37-.03-4.48.04,1.92.02-6.7.03,7.01.07-5.7.1-8.69-.04,14.71.06-9.97.02,11.78.04-12.89.06,8.55v-.15s.04-9.48.04-9.48l.07,7.1.08,5.73-.03-14.12.06,8.9.02-5.11.07,6.54.03-4.73.07,6.24.04-5.01.09-7.05-.04,17.57.06-12.57.02,14.43.04-23.77.04,17.61.03-9.79.02,11.33.04-1.58.09,3.16-.02-11.45.03,11.24.02-10.81.09,9.81.02-6.51.03,6.63.07-4.8.02,4.87.03-8.92.06,4.25.02-8.72.03,11.44.06-3.93.02,3.83.02-6.52.06.69.09-5.79-.04,9.22.06-4.95.1,7.57-.04-9.07.07,5.8.03-3.03.02,4.84v.44s.02-2.04.02-2.04l.02-4.75.03,4.89.06-3.16.09,9.38-.03-11.02.04,5.77.1-7.88-.04,11.99.06-9.38.12,11.59-.04-16.1.06,11.45.09,3.06.03-16.81v-.09s.04,24.26.04,24.26l.04-27.1.06,24.88.02-24.64.1,7.84.06,10.75.03-8.51.09-12.87-.03,26.52.04-23.45.12,19.53.12-15.93v8.26s.03,9.34.03,9.34l.03-14.71.06,9.91.04-11.09.03,16.21v2.46s.02-12.88.02-12.88v-12.38s.08,21.5.08,21.5l.03-10.84v-2.26s.03,13.59.03,13.59v4.93s.03-20.73.03-20.73l.04,9.8.1-15.67-.03,21.93.04-20.17.11,30.26-.03-33.9.04,27.72.02-24.93.09,16.61.03-13.08.03,22.4.06-18.45.09-4.09.03,22.77.02-22.04.09,10.1.1,2.69-.06-10.26.07,7.97.1-16.4-.03,29.22.04-27.17.03,25.58.09-2.49v1.23s.02-6.47.02-6.47l.03-21.08.03,29.19.06-19.23.11,13.01-.03-17.38.04,12.21.06-9.55-.03,10.76.04-5.42.02,8.99.04-13.09.04,8.22.09-8.47-.03,8.53.04-.13.1,13.58-.02-30.66.03,30.23.03-32.71.09,9.27.06,13.76.07-5.17v.3s.02-2.28.02-2.28l.06-2.34.02,7.5v1.39s.04-8.75.04-8.75v-2.41s.03,16.6.03,16.6v1.77s.02-7.65.02-7.65l.09-10.51v3.49s.11,12.38.11,12.38l-.06-17.86.07,11.26.09,9.58.03-21.7.02,15.82.1-6.65.02-7.81.03,20.54.04-10.38v3.84s.06-9.93.06-9.93l.03,5.77.02-9.2.07,9.23.02-4.89.06,8.85.02-10.51.04,6.97v-.15s.11-19.19.11-19.19l-.03,26.47.04-11.21v15.87s.04-26.7.04-26.7l.07,12.23.08,4.66.03-23.92.12,35.93v-5s.11-23.03.11-23.03v6.65s.11,16.24.11,16.24l-.02-20.55.03,15.85.03-12.87.03,16.76.04-8.6v-.06s.03-11.4.03-11.4l.03,20.27.06-16.02.03,13.75.12-2.53.03-17.59.03,23.09.06-17,.1-4.81.02,19.52.07-31.49.03,39.47.02-24.48.07,21.04-.03-24.4.06,8.87.02-12.68.03,21.67.06-11.21v-5.95s.04,23.66.04,23.66l.06-18.98.02,12.69.09-4.63.02-12.37.02,21.27.07-17.09v1.05s.03,19.15.03,19.15l.02-26.86.07,19.76v1.21s.03-25.79.03-25.79l.04,31.33.04-15.06.09-10.23-.04,26.1.06-19.5.04,19.36.02-27.66v-12.36s.04,42.88.04,42.88l.06-24.53.04,17.32.03-22.34.04,9.7.06-6.67-.02,14.16.07-8.19.02,15.58.02-27.07.07,14.43.09-10.56-.04,13.38.07-8.23.02,14.93.03-21.42.07,16.2.02-13.48.03,16.97.07-13.45v-3.07s.06,13.93.06,13.93v2.32s.02-8.62.02-8.62l.02-11.51.03,25.09.06-17.99.06,15.63.02-27.49v-.25s.04,32,.04,32l.09-2.79.08-19.71.04,6.01.02-6.7.02,15.82.04-2.08.08,10.2-.03-23.56.04,20.95.11-31.84v3.29s.11,28.63.11,28.63l.02-9.61.03-14.49.02,16.56.03-6.61.09,12.4-.04-31.49.06,22.92.02-22.33.03,36.21.06-21.7.07-3.71-.03,18.83.07-12.86v-1.73s.03,10.47.03,10.47l.03-7.12.07,9.6-.02-13.51.06,8.59.09,1.61.03-19.75.11,34.58-.04-34.88.06,25.22.02-23.77.07,24.5.03-23.88.04,27.15.03-27.99.07,24.24.03-24.57.09,6.69.06,10.85.07-.47.09-9.92-.03,10.06.04-5.32.07-6.2.03,15.68.07-16.69.03,18.85v-4.14s.06-23.93.06-23.93l.03,36.4.06-25.93.03,21.01.04-26.89v-1.56s.03,38.92.03,38.92l.03-45.7.06,22.13v-8.63s.04,11.2.04,11.2l.07-4.04.1,18.85-.04-29.36.06,20.94.11-20.69-.03,27.06.04-21.27.04,22.98.02-25.54v-5.31s.06,27.73.06,27.73l.03-19.46.07,28.33-.03-37.14.06,1.22v-6.48s.06,33.29.06,33.29l.06-27.72.03,25.12.1-3.27.07-26.51.02,30.19.09,10.05-.03-42.33.04,27.33.02-18.56.06,24.29.03-18.99v-1.06s.02.51.02.51l.02,25.58.04-28.57.06,18.56.09,2.12.06-24.68.03,29.93.09-8.23.02-20.2.02,20.65.07-8.59.07,5.78-.03-13.1.06,4.89v-4.88s.03,12.35.03,12.35l.07-7.14.02,6.85.08-6.73v-.85s.02,5.69.02,5.69l.11,10.14-.07-22.26.08,21.46.02-33.76.1,12.99.11,30.54-.03-43.88.04,27.19v-14.06s.07,23.98.07,23.98l.04-16.56.09,17.77-.02-20.5.03,15.77.02-26.53.09,19.86.12-17.43-.06,24.17.07-19.31.03,24.94.03-28.45.06,18.19.04-20.22.03,25.47.04-20.35.03,21.92.07-25.12.04,17.82.02-17.75.07,25.62.03-20.72.04,14.36.08-6.26.06,11.62-.02-19.15.04,3.5.09-11.15-.03,27.23.04-24.73.02,19.26.09-9.7v-.64s.02,1.4.02,1.4l.08,13.19-.03-18.21.04,8.89v-10.89s.04,14.88.04,14.88l.07-7.16.07,4.92-.02-9.95.06,7.77.02-10.89.03,18.02.04-8.31.04-7.59.07,14.2.1-21.9-.03,32.47.06-17.69v3.83s.04-6.88.04-6.88l.06,2.37.07-6.44-.02,11.12.04-3.79.03,10.12.02-27.19v1.14s.03,35.08.03,35.08l.09-13,.1-28.22-.04,34.86.07-17.13.02,20.83.03-30.41.06,20.73.1-15.29-.03,16.05.04-3.98.09,11.34-.03-23.45.04,18.87.11-31.95-.03,33.86.04-19.84.02,22.12.09-14.9.07-5.9.06,22.09.03-29.91.09,5.22.12,12.09-.03-12.21.04,11.98.03-10.2.09,3.11.1,13.19-.06-15.72.07,5.44.08-11.89-.03,22.83.06-6.23.11-17.11-.03,20.99.04-11.74.11,25.22-.03-38.61.04,27,.02-25.53.09,13.42v-.04s.03,9,.03,9l.07-16.43.03,12.73.1-13.91-.03,14.3.04-3.67v10.26s.04-24.42.04-24.42l.07,19.29.02-20.29.02,24.17.07-18.98.11,19.23v-.02s.07-17.92.07-17.92l.03,19.43.03-18.51.02,20.56.02-25.62.07,8.64.09-15.92-.03,37.91.04-37.78.03,33.37.09-10.49.02,3.75.02-11.23v-8.39s.06,23.08.06,23.08l.06-14.99v-3.88s.03,13.19.03,13.19l.04-5.21v7.33s.03-12.46.03-12.46l.08,5.74.02,6.9.02-10.75.06.31v-.59s.1,14.76.1,14.76l-.03-22.65.06,11.64.03-3.31.02,5.8.04-12.5.07,18.54.12-16.29.02,12.92.09-6.97.07-7.08-.02,22.17.04-7.87v.91s.02-4.35.02-4.35l.03-9.82.02,11.46.06-6.14.1,23.16-.04-27.6.06,26,.02-37.23.1,4.74.02,25.95.09-4.42.11-22.68-.03,28.44.04-22.04.11,26.08-.04-32.76.06,23.43.11-26.76-.04,41.13.06-36.61.03,37.13.1-9.98.13-33.63-.04,39.78.06-25.62.12,22.43.03-26.04.1,5.74.02,14.34.08-12.14.03,9.43.08-15.4.13,20.02v-3.66s.04-20.05.04-20.05l.03,33.94.04-25.64.03,14.32.03-19.28.06,9.44.03-7.4.03,5.96.1,17.66-.04-40.39.06,27.48.02-18.85.04,26.52.04-9.67.09-11.02-.04,16.3.06-10.13.02,15.6.03-20.05.06,15.71.07-21.08.03,21.92.04-20.51.17,19.71.08-20.3-.03,21.18.07-8.34.1,11.48-.04-28.52.06,20.14.03-20.96.03,33.59.04-23.13.04,14.06.02-15.53.06,9.95.1-12.4-.03,15.14.04-11.91.02,16.18.09-6.48.03.28.02-10.09.03,16.07.06-7.55.03-6.25v5.78s.03,12.09.03,12.09l.03-28.86.04,22.51.1-22.95-.03,30.32.04-18.56.1,13.58-.03-17.82.04,9.82.1-13.97-.03,24.39.04-21.6.11,22.38-.03-27.52.04,24.02.02-18.61.03,20.34.04-4.56v5.42s.06-20.22.06-20.22l.06,15.36v1.1s.02-7.64.02-7.64l.09-13.88-.03,33.27.06-26.05.11,18.53-.03-24.06.04,20.77.03-25.54.02,25.71.07-7.37.03-7.62.02,9.48.08,6.34-.03-17.39.04,10.4.02-13.81.03,22.51.06-18.16.03,13.03.1-3.77.08-12.3.02,16.19v6.42s.06-27.72.06-27.72l.06,24.09.13-24.99-.06,25.55.07-21.4.08-2.22.04,32.69.12-37.54-.03,40.85.04-38.22.04,35.02.03-35.31.06,21.66v1.08s.04-7.37.04-7.37l.02-8.45.03,19.47.04-14.08.07,18.79.02-23.17v-7.18s.04,24.98.04,24.98l.06-18.75.13,23.12-.06-27.27.07,20.13.02-21.41.06,24.82.04-16.67.1,16.92v-8.37s.06-5.57.06-5.57l.06,8.89v6.56s.04-23.03.04-23.03l.06,15.59.03-10.79.04,16.39.03-11.81.08,14.15-.04-15.9.07.51.08-15.29-.03,36.08.06-16.71v14.62s.04-35.79.04-35.79l.06,13.79.1-.42.03,11.89.04-19.31.03,24.61v2.24s.02-9.43.02-9.43v-9.56s.09,14.29.09,14.29l.02-8.05.04-1.65.08,9.46.12-10.97v1.72s.06,6.27.06,6.27l.03-9.67.06,7.9.02-11.53.03,19.12.06-8.7.04,8.7-.02-10.08.03,6.47.02-21.28.1,3.71.03,19.83.09-11.84v-7.34s.04,15.59.04,15.59l.06-12.46.03,19.31.03-23.02.06,16.13.03-17.36.02,21.2v7.79s.06-26.27.06-26.27l.04,24.58.02-23.96.1,3.41.1,21.75-.02-29.24.04,12.53.02-15.03.04,28.63.04-24.02.04,18.61.11-1.05.11-16.81.02,9.44.03,9.38.02-24.5v-3.12s.02,12.32.02,12.32l.02,18.59.06-18.85.03,6.64.09,13.13-.03-22.1.04,11.19.11-12.86-.03,18.79.04-18.25.03,29.95.03-33.19.07,14.69v1.62s.03-7.68.03-7.68l.1-11.75-.06,24.59.07-14.29.02,18.47.04-23.46.04,14.6.06-11.57.02,15.8v4.84s.04-17.25.04-17.25l.03,2.99v-2.22s.03,10.62.03,10.62l.03-6.81.08,14.93-.03-30.09.04,19.5.1-19.45-.03,31.54.04-26.96.09-3.72.03,26.07.04-20.57.11,2.9v-.45s.12,14.43.12,14.43l.02-5.74.1-8.69-.03,14.37.04-7.73v9.19s.04-14.6.04-14.6l.06,11.87.02-18.86.09,17.19.08-22.04-.02,28.54.04-8.71v10.98s.04-19.54.04-19.54l.06,8.65.1-14.71-.06,19.41.07-15.39.02,23.7.03-24.17.06,10.24.03,3.11.02-14.2v-7.05s.04,25.2.04,25.2l.06-17.77.03,20.06.04-11.36.07-21.84-.02,44.83.06-17.2.02,3.28.03-12.49v-5.16s.07,14.97.07,14.97l.1,8.14-.03-30.07.04,24.44.03-24.88.04,25.04.04-18.22.02,15.19.1-3.81.02-5.97.04,8.92.03-7.83.02,10.47.1-3.09.02-12.28.04,13.37.06-8.98.06,10.98.03-14.39.04,12.42.07-25.44.02,28.23v5.18s.06-23.2.06-23.2l.08-7.29-.03,33.92.04-25.64.1-3.33.02,18.87v4.44s.04-22.47.04-22.47l.04,18.66.07-14.57.04,13.62.03-15.02.04,15.37.04-10.24.11,16.7-.03-24.72.04,20.41.02-27.05.03,37.67.06-23.13.02,19.89.03-25.92.06,16.34.06-16.64.03,21.85.02-11.76.02-9.41.04,16.01.04-12.69.04,7.93.08-1.42.02-11.87.03,19.99.06-8.52v-.71s.02,5.12.02,5.12v2.42s.04-15.6.04-15.6l.03,15.48.07-15.25.03,16.63.02-11.15v-5.51s.06,15.68.06,15.68l.04-9.73.09,8.38-.02-12.27.04,6.03.04-3.9.02,9.41v3.84s.04-14.42.04-14.42l.04,3.33.09,13.28-.03-24.36.06,13.16.1-14.04-.04,28.09.06-25.59.02,23.86.1-11.42v-9.89s.1,11.13.1,11.13v-.49s.03-5.2.03-5.2l.09,1.81.03,9.19.02-16.34v-.62s.06,20.96.06,20.96l.03-31.4.04,21.35.09-11.31-.03,13.98.04-7.29.02,15.29.03-29.23.06,16.88.02-3.43.04,8.87.08,3.72-.03-14.81.04,12.68.08.22.03-14.9.03,15.3.04-15.67.04,6.43.1-17.16-.03,29.2.04-15.57.02,20.11.06-24.55.03,10.62.07-14.72-.03,21.51.07-7.03.02,4.46v-5.64s.02-9.7.02-9.7l.03,16.78.06-8.54.06,7.45.03-11.4.02,8.19.09-10.51-.04,11.88.06-9.02.02,21.4.06-31.08.04,23.98.08-19.44v12.99s.02,15.66.02,15.66l.03-36.07.06,17.9v-10.14s.04,14.99.04,14.99l.07-10.95.02,16.41.02-17.55.07,5.18.04,6.16.08-16.07.03,26.16.1-10.08.03-19.71.03,24.59.06-17.44.03,14.49.09-1.43.1-15.72-.04,21.41.06-11.74.02,16.79.03-28.26.06,13.33.02-6.23.02,10.7.03-2.26.07,8.11-.03-18.17.06,2.25.09-2.58-.06,14.02.07-12.84.09,12.05-.02-14.11.04,10.75.11-11.27-.04,14.31.06-9.62.06,12.54.02-17.99.03,7.65v-1.97s.02,9.27.02,9.27v7.29s.04-26.85.04-26.85l.04,13.94.09-14.71-.02,32.97.03-29.94.1,23.54v-12.46s.02-11.3.02-11.3l.02,21.66.07-6.61v8.9s.1-17.2.1-17.2l.08,18.59-.03-26.61.04,17.59.02-21.59.02,30.08.07-18.56.1,12.13-.02-17.68.04,10.33.07-9.76-.02,16.12.03-11.41.02,23,.03-28.63.04,8.09.1-8.38-.02,21.34.03-18.14.02,26.91.1-9.94.03-22.32.03,30.05.06-21.61.02,23.23.03-34.22.06,17.31.08-12.34-.03,24.82.04-7.11v5.2s.03-17.32.03-17.32l.04.66v.11s.12,13.52.12,13.52l-.04-18.19.06,10.72.02-11.02.03,19.87.06-13.67v-2.91s.03,8.62.03,8.62l.02-5.57.1,20.99-.06-26.81.07,10.53.08,9.27.03-28.15.03,36.18.03-37.15.06,21.29.02-13.15.03,18.95.06-7.07.03,2.87v-4.74s.09,9.07.09,9.07l.03-19.37.09-.73.03,23.56.07-23.65.02,24.58.03-14.6.07,19.71-.03-27.69.06,2.64.09-23.78-.03,53.54.04-24.67.02,29.25.03-53.59.06,31.95.02-26.45.03,41.51.06-21.9.02,22.76.02-39.8.07,26.67v2.18s.03-16.41.03-16.41v-.86s.02,4.21.02,4.21l.06,14.71.02-14.16.09-21.33-.03,52.8.04-32.47.11,25.08-.02-33.79.03,31.76.03-42.1.09,18.62.07,16.69.03-19.65v4.3s.08,17.83.08,17.83l-.03-22.99.04,9.94.02-24.68.03,42.42.04-21.24.07,11.14-.03-16.31.07.72.12,25.27-.03-29.28.04,13.51v-17.84s.07,24.6.07,24.6l.04-7.81v-.13s.09-9.09.09-9.09l-.02,11.79.06-5.89.06,7.92-.02-10.71.03,10.36.02-16.24.1,5.78.07,14.5.02-21.84.03,18.09.08-18.85v13.48s.02,14.86.02,14.86l.03-33.91.06,11.23v-3.57s.03,16.24.03,16.24l.04-2.36v2.97s.04-15.97.04-15.97l.06,12.31.02-7.45.06,7.59.04-5.3v.07s.1,5.22.1,5.22l-.02-6.84.03,5.26.09-6.35-.02,7.48.04-2.06.06-4.39.06,7.12.13-7.82.08,7.45.04-3.11.09,4.99-.03-8.37.04,5.39.1-6.99-.03,8.66.04-6.63.09,3.68.02-3.21.08,3.96.03-3.23v-.15s.09,5.94.09,5.94l-.03-8.56.06.69v-1.15s.04,7.44.04,7.44l.02-2.39v.41s.02-2.62.02-2.62v-2.48s.04,6.1.04,6.1l.06-1.72.08,2.27-.03-4.98.04,3.69.02-3.28.09,1.11.02,3.81.02-4.86.07,3.87.09-4.46-.03,4.77.04-1.04v1.91s.03-3.8.03-3.8l.07.44.09-2.78-.03,4.3.04-1.37v3.36s.04-5.87.04-5.87l.06,4.64.02-4.94.09,2.52.06,1.23.02-1.3v-.55s.03,1.81.03,1.81l.04-.62.07,1.97-.02-4.56.04,1.86v-1.6s.04,3.42.04,3.42l.06-2.97.02,3.53.09-2.57.03,2.05.03-2.89.06,2.15.03-1.85.03,2.82.06-1.81.04.55.04-.67.08-1.21-.03,2.57.04-1.8.11,2.17.1-3.53-.03,3.67.04-2.41.02,3.03.03-3.99.04,1.54.08-1.74-.03,3.9.04-1.99v1.9s.04-2.66.04-2.66l.07,1.06.08,1.25-.03-2.35.04,1.91.02-2.22.03,2.49.06-1.08.08-.62-.03,1.02.06-.44.02.35.02-1.08.06.77.06-1.1-.03,1.39.04-.13v.28s.07-1.33.07-1.33l.03,1.25.07-1.19.02,1.4.08,1.17-.03-3.82.04,2.67.02-3.22.03,4.5.04-1.31.07,1.31-.02-3.15.04,1.31.02-1.71.03,2.61.07-2.58.02,3.23.09-1.89.04.93.02-1.19v-.37s.08,1.32.08,1.32v.25s.03-1.27.03-1.27v-.91s.09,2.67.09,2.67l.02-1.55v-.84s.1,1.72.1,1.72l.09-1.52-.03,1.68.06-.21v.17s.03-.88.03-.88l.02-1.1.04,2.89.03-2.05.08,1.68-.03-2.22.06.86.02-1.13.03,2.53.06-1.52.06,1.52.03-2.72.15,3.4v-.75s.03-3.28.03-3.28l.04,3.58.04-2.37.06,2.51.02-2.39v-1.06s.04,3.25.04,3.25l.06-1.08.03-1.39.02,1.42.02,1.07.03-3.57.04,3.13.12-2.16-.02,2.75.03-2.72.02,2.07.1-.84.11-.74-.03,1.07.04-.94.09,1.17v-.37s.03-1.57.03-1.57l.06,1.78.04-1.51.03,2.19.08-2.21.03,2.2.09-.83.12-1.27-.03,1.74.04-1.56.02,1.75.03-1.76.06.23v.05s.11,1.11.11,1.11l-.03-1.36.04,1.33.03-1.54.03,1.79.06-.81.06.4-.02-.84.07.32.09-.59-.03,1.21.04-.83v.65s.11-.31.11-.31l.03.41v-.41s.03-.75.03-.75l.02,1.49.06-.04.03-1.85.03,1.98.07-1.21.09,1.71-.03-2.69.04,1.78.1.88.02-2.2v-.28s.03,1.54.03,1.54v.63s.08-1.48.08-1.48l.02.23v-.13s.02.65.02.65v.72s.03-1.72.03-1.72l.08,1.35.1.11.03-1.54.07,1.75.03-1.86.04,1.41.07-1.53.03,2.07v-.02s.04-2.06.04-2.06l.09.67.08,1.42-.03-1.52.04.51.1.52.02-1.78.02,1.49v1.09s.06-2.5.06-2.5l.04,1.72.03-1.1h.1s.08.83.08.83l.03-.74v-.12s.02.29.02.29l.02,1.25.03-1.76.06.79.07.51-.02-1.16.04.55.09-.64-.03,1.51.04-.94.08.87.02-1.48.02.82.09.72-.03-1.52.04,1.14.03-.77.03.98.04-.66.03.24.02-.39v-.11s.03.54.03.54l.04-.41.02.57.03-.76.04.12.07-.21-.03.89.04-.65.11.79-.06-1.09.07.74.02-.66.07.93v.31s.03-1.8.03-1.8l.04,1.17.07-1.12-.02,1.43.04-.4.02,1.06.03-2.51.04,1.52v-.61s.04.85.04.85l.07-.38.1.43-.02-.74.03.51.11-1.39-.03,1.74.04-1.37.02,1.65.09-1.13.12,1.29-.04-1.38.06,1.34.02-1.85.09,1.06.08.98-.03-2.35.06,1.01v-.63s.04,1.51.04,1.51l.06-.6.08-.33-.03.49.08-.36.03.42.02-.71.03.46.07-.67-.02,1.07.04-.27v.2s.03-.66.03-.66l.04.13.02-.45.03,1.25.04-.75.08,1.12-.03-1.62.04.81v-.86s.11.75.11.75l.14-.57-.11.65.12-.52.08,1.43-.03-1.92.06.19v-.04s.1,1.26.1,1.26l.02-.99v-.19s.04.93.04.93l.06-.62.02.8.03-1.06.04.58.02-.47.03.78.06-.36.1-.27-.04.56.06-.31.06.34.03-.46.1-.44-.03,1.08.04-1.05.09.81.02-.51v-.23s.03.92.03.92l.07-.91.03,1.09.03-1.16.07.76.09-.39v.13s.11.47.11.47l-.06-.71.07.44.02-.59.03.63.07-.6.03.78.09-.25h.01s.04-.55.04-.55l.03.72.08.46-.03-1.9.06.99v-.28s.06.6.06.6l.04-.05.12-.34-.08.41.09-.4.09.85-.02-1.42.04.63v-.54s.04,1.46.04,1.46l.06-.59v.73s.04-1.65.04-1.65l.06.28.13,1.02.03-1.15.14.3.07.49.06-.2.03.24.03-.42.03.34.03-.52.04.56.04-.48.13.46.03-.57.1.2.09.91-.03-1.4.06.62v-.52s.07.75.07.75l.04-.55v-.03s.03.72.03.72l.1-.39h.01s.01.08.01.08l.02.3.03-.32.06.03h.01s.11.45.11.45l-.04-.88.06.83.03-.84.08.5v.28s.06-.74.06-.74l.03.35.02-.6.08.79v.11s.06-8.6.06-8.6l.08,6.09.12,5.6-.03-6.92.06,4.21.09,1.04.04-4.05.15,6.37.14-4.62v.13s.06,3.33.06,3.33l.04-3.57.07,3.47.04-6.7.07,5.72.02-3.35.02-6.41.03,10.84.06-10.4.02,4.42.07-6.95v-.18s.13,13.43.13,13.43l.02-3.87v-.56s.02,2.51.02,2.51v2.77s.04-4.74.04-4.74l.06,1.33v-.09s.03,3.05.03,3.05l.03-6.65.06,4.42v.07s.04-4.2.04-4.2l.07,2.9.09,5.73-.04-5.88.06,5.51.02-11.48.08,16.63.15-16.71v1.85s.03,12.51.03,12.51l.06-13.61.03,2.04.04,9.04.02-11.48v-5.44s.04,17.6.04,17.6l.06-6.69.02-6.71.09,6.61v.25s.03-4.54.03-4.54l.03,11.38.06-8.47.12,9.82v-2.45s.09-7.59.09-7.59l-.03,8.55.07-2.31v.81s.03-5.25.03-5.25v-1.38s.07,4.12.07,4.12v1.89s.04-6.42.04-6.42l.03,1.16.02-8.75.03,15.44.04-9.08.08,12.51-.02-13.95.04,1.37v-6.19s.07,17.67.07,17.67l.04-14.55.02,11.38.09-4.19.02-5.39.03,9.01.04-5.94.08,14.68.02-17.7v-6.18s.04,17.69.04,17.69l.06-10.76.14,10.85v-4.23s.11-13.61.11-13.61l-.03,15.48.04-5.16v11.65s.04-20.7.04-20.7l.06,5.53v-.4s.02,3.31.02,3.31l.08,7.3-.03-11.61.04,5.95.09-8.36-.04,13.33.06-8.03.12,13.22-.03-18,.04,13.84.02-19.28.09,17.75.02-8.39.02-9.09.03,24.95.06-19.02.03,15.46.09-5.22v2.55s.04-8.93.04-8.93l.03,2.6v-2.8s.08,10.6.08,10.6v-.61s.04-16.14.04-16.14l.03,19.05.06-13.91.04,11.5.03-14.04.03,4.83v-.14s.08,7.4.08,7.4l.02-11.1v-1.35s.02,6.01.02,6.01v5.37s.04-6.74.04-6.74l.07,2.36.03-1.92.02,2.71v1.03s.04-5.34.04-5.34v-1.18s.03,7.14.03,7.14v2.17s.04-7.63.04-7.63l.04,1.45.09-7.72-.04,14.59.06-10.21.04,8.59.07-2.57.06-3.51.02,4.04.03-1.6.1,4.94-.03-7.14.04,5.94.03-9.75.03,13.5.06-6.52.03,3.57.03-7.08v-.53s.03,3.95.03,3.95l.1,1.97-.04-8.22.06,7.76.1-17.07-.03,21.22.04-15.78.02,15.02.1-4.74.03-8.56.03,12,.04-7.17.07,1.54.1-.19.03,6.87.04-10.63.03,10.73.09-5.87.03,4.65.03-7.63.06,4.45.02-3.7.02,4.41.07-1.5.02,2.23.04-7.11v-.72s.03,4.29.03,4.29l.02,5.69.02-7.62.07,1.98.03,3.74.04-6.89.04,6,.14-4.11.02,1.06.13,2.93.03-3.41.1,1.52.02-.17.03-1.7.02,1.7.02,2.29.06-5.64.02,1.97.12,2.87-.04-3.58.06,3.25.02-3.41.1.64.06,2.27.09-.59.02-1.14.04,1.61h.03s.02.88.02.88l.03-3.45.04,3.07.13-3.41-.06,4.18.07-3.76.03,2.38.09-.37v.66s.07-2.88.07-2.88l.04,2.34.07-2.6.1.69.03,1.34.06-1.81v-.31s.03,1.67.03,1.67l.07-1.12.03,1.61.09-.65.06-1.25.07.63v.17s.03-.92.03-.92v-.53s.07,1.59.07,1.59l.03-.88.12,2.49-.04-3.13.06,2.68.03-1.19.07,1.72.1-1.56-.03,1.94.04-.42.13,4.48.13,4.2-.1-4.38.19,4.1.04.74.32-15.94.23-10.41.12,2.26.71,52.26.04-5.84.17-20.43.35-47.92v.15s.29,37.57.29,37.57l.03-.82.09,9.35.08,4.15.04-1.65.24-8.42.02,1.39.24,25.95.04-7.64.03-8.89.07,10.39v.03s.09-16.51.09-16.51l.21-34.62.11-4.4.02,2.5.03,2.77.36,35.33.03-.86.19-9.41.17-11.72.08,4.82h.03s.06,4.18.06,4.18l.23,43.41.04-12.34.03-2.39.02,4.47.02,2.49.06-8.18.31-61.36.04,1.52.43,48.45.08-4.64.29-28.35.06,5.1.23,33,.14,29.77.03-7.66.03-9.71.09,4.29.32-75.08.06,4.24.22,31.57.08,14.83.06-2.15v-.09s.02.53.02.53l.07,8.33.06-7.41.19-24.45.02.21.03-4.4.06-7.05.06,5.4.44,79.44v-3.81s.17-31.73.17-31.73l.28-73.02.03,4.76.44,63.82.03,1.05.36-46.6.09,10.15.41,80.32.02-11.63.06-31.02.06,23.47.07-37.87.22-55.82v-.92s.06,5.29.06,5.29l.19,29.01.13,39.21.14-2.56.04,1.19v-2.67s.15-31.31.15-31.31l.02.85v.04s.15-18.12.15-18.12l.03,3.84.26,41.3.21,43.56.04-14.4.14-27.38.11-46.73.07,5.66.09-26.01.06,12.14.18,25.01.07,21.37.07,12.72.06-8.38.06,5.86.06,1.52.02-3.08.25-47.34v.81s.14,12.29.14,12.29l.03-1.7v-.64s.04,3.73.04,3.73l.39,70.76.04-14.29.06-25.73.06,20.22.06-30.09.08-34.82.07,10.42.1-30.12.06,13.97.15,21.39.02,1.77.13,32.15.03-6.09.03-2.99v2.12s.08,8,.08,8l.04-5.53.17-27.49.02.46v-2.17s.07-15.21.07-15.21l.09,4.33.54,77.35.02-3.59.2-54.7.22-42.56v1.42s.35,62.87.35,62.87l.07-5,.03,3.9.06,6.89.04-6.17.18-27.04.04-8.34.04-7.48.08,3.41.21,18.19.32,60.84.04-5.6.06-30.87.08,13.39.3-82.76v4.48s.17,23.82.17,23.82l.07,9.67.13,27.3.02-3.77.04,2.81.07,9.12.04-7.3.24-37.81.02-2.96.07,4.75.03-4.52.03-1.01.33,52.61.17,29.37.02-3.4.21-56.14.2-48.56.04,4.11.3,53.48v.07s.15,19.93.15,19.93l.06-6.15.39-49.35.07,4.81.07,1.68.42,81.92.03-15.17.18-37.54.22-58.14.08,15.45.07-1.67.34,65.99.1-12.15.07.88.26-44.05.02-1.55.06,2.18.02-.68.06,5.02.4,80.29.04-9.85.04-20.17.07,17.29.29-97.39.02,3.31v-.15s.02.98.02.98l.07,11.55.07-1.67.07,12.65.18,38.72.08,15.1.09-7.77.07,1.19.06-15.37.22-36.94.08,3.03h.01s.09,5.23.09,5.23l.39,80.28.04-17.62.09,7.39.08-38.14.02-9.04.18-49.23v-4.19s.09,12.2.09,12.2l.02,4.95.06-10.5v-.32s.02,2.08.02,2.08l.33,71.24.17-2.49.25-50.48.04-2.93.08,1.83h.01s.01-.6.01-.6l.02,2.14.4,84.01.03-10.46.04-15.75.06,18.72.03-12,.12-47.64.04,3.57.08-36.81.03-7.48.07,10.58v2s.06-8.18.06-8.18l.02-5.35.06,8.6.28,66.1.07-3,.08,8.1.04-3.86.2-36.72.19-17.77.02-.98.03,3.72.37,82.7.04-11.67.09,6.52.07-30.63.19-52.14.06-15.58.07,8.19.02.42.07-13.55.04,7.49.26,66.6.07-2-.03,2.16.06-.19.09,11.5.03-10.19.23-45.48.15-7.85.04,1.51.39,85.21.07-17.74.04,16.03.04-9.26.12-45.7.03,1.55v.71s.03-5.26.03-5.26l.09-42.01.07,7.18v-.16s.09-16.54.09-16.54l.06,10,.44,76.65v-.81s.28-49.13.28-49.13l.17-13.09.17,24.17.24,62.92.02-7.87.04-11.38.04,19.68v2.43s.04-16.03.04-16.03l.25-83.36v.39s.08,2.92.08,2.92l-.03-4.43.08,2.1.06-15.34.06,11.2.39,70.08.04,4.47.03-5.43.31-47.44.12-8v1.43s.39,84.65.39,84.65l.06-15.61.02-5.71.04,19.19v4.11s.06-14.75.06-14.75l.11-40.07.04,4.43v.88s.02-4.8.02-4.8l.09-42.9.07,4.81.11-20.56.06,13.46.23,52.67.06-1.44v1.01s.13,19.79.13,19.79l.02-3.94.28-41.9.15-15.5.08,6.09.22,52.14.11,30.04.04-12.24.02-11.71.07,27.82.14-55.1.06,3.15.28-64.72.04,8.81.43,77.12.06-8.02.23-34.06-.19,34.85.2-34.82.04-7.01.11-11.96.03,1.39.18,30.14.21,50.98.02-7.97.03-7.49.04,17.93v5.21s.07-19.28.07-19.28l.11-30.11.03,3.69.28-68.47.08,10.05.35,64.69.06,8.9.1-3.57.06-8.92.3-45.39v.9s.03-1.79.03-1.79l.06,4.3.09,14.7.36,70.76v-.82s.18-47.29.18-47.29v3.46s.02,3.76.02,3.76l.03-19.49.24-54.9.5,81.63.12-7.27.25-39.54v.18s.06-4.68.06-4.68l.02-1.77.06,4.26v-.31s.02-.24.02-.24v1.76s.47,76.42.47,76.42v-5.02s.12-35.96.12-35.96l.03,4.02.37-68.19.04,5.81.25,49.64v-.18s.02,1.58.02,1.58h.02s.08,13.64.08,13.64l.1,3.57-.06-4.05.07,3.89.34-47.27v.18s.25,31.54.25,31.54l.17,30.35v-.27s.04-7.41.04-7.41l.04,11.61.03,7.06.04-12.26.45-82.65.03-3.99.04,2.61.25,42.71v-.45s.02,2.91.02,2.91l.2,23.8.02-2.24v.77s.03-5.69.03-5.69l.03,2.73.03.62.17-22.49.08-11.38.1,3.31.04-.58.09,14.73.17,31.62.03-2.52.03-8.61.04,11.53.06,10.46.03-14.12v.08s.26-46.57.26-46.57v.59s.03-3.64.03-3.64l.21-26.73.02,4.87.47,63.8.08-9.34.03.41.15-12.24.21-10.11.29,34.06.02-6.34.04-6.71.03,16.16.04,11.02.04-12.36.09-13.99.03,4.47v-.09s.02,1.73.02,1.73l.04-10.31.24-32.98.1-11.48-.08,12.15.17-5.48.19,17.7.19,18.19.04-.29v-.59s.04,4.02.04,4.02l.03-.34.13-8.29.04.79v.34s.02-1.2.02-1.2l.06-6.33.08,2.45.02-.74.07,1.36.02-1.13.29,12.54v-.45s.02.05.02.05l.2,7.51.15-3.15.02.4v-.68s.28-19.7.28-19.7l.15-5.75.04.29.03-.08.08.67.02-.65.03.85v-.06s.07,1.45.07,1.45l.06-.82.22-3.66.04.25.15,2.97.34,13.81.22,7.06v-.02s.2,2.78.2,2.78l.15.93.13-1.27.11-3.14.14-7.81.41-19.12.03.23.02-.02.02.29.07-.53.02-.39.06.58.4,12.99.74,23.07.06-.93.19-5.29.67-29.66.51,8.69.67,22.93.02-.05.11.24v-.11s.17-3.42.17-3.42l.26-11.56.28-8.82.33-4.01.03.23.06-.3.02-.13.03.4v-.02s.21,3.79.21,3.79l.76,20.18.06-.49.36-4.97.39-11.03.07-1.32.24-3.98.08-.7.06.33.08-.07.04.44.02-.05.29,5.9.04-.18.02-1.87.04,2.11.02-.69.07,17.34.08-4.19.02-3.93.08,6.33.08-4.33.03,4.36.02-2.03.03,3.15.04-1.2.1,2.58.03-1.07.04-3.5.07,2.9.02,1.02.06-.73.11-4.72.02.39v.15s.03-1.06.03-1.06l.03.03.17-5.69.21-9.22.11-3.14.11-1.84.03.17.06-.27.02.53v-.03s.02-.04.02-.04l.02.12.06-.2.28,8.37.24,6.43.03.87.06,2.66.08-1.17v-.17s.03,1.02.03,1.02l.08,3.6.07-.94.02.02.31,7.39.04-1.04.44-17.5.17-12.41v2.55s.02,1.47.02,1.47l.08-3.58v.23s.02-.7.02-.7l.02-2.94.09,2.08v-.06s.14,3.27.14,3.27l.08-.03.02,1.89.03-.29.12,3.88.02-.32.02.59v-.05s.19,5.31.19,5.31v-.58s.02-.04.02-.04l.13,4.79v-.09s.03.87.03.87l.18,9.02.02-.03.29,9.38v-.38s.06,1.19.06,1.19l.13-6.66v.8s.04-2.46.04-2.46l.04.37v.03s.09-9.77.09-9.77l.19-14.23.07-3.1.03.16.14-3.56v.29s.03-1.78.03-1.78l.02-1.67.07,3.32.04,3.02.04-4.13v-.33s.07,1.19.07,1.19l.11,6.09.02-.79v-.42s.08,1.58.08,1.58l.04,2.8.14,4.13.08,2.68.12,3.34v-.25s.02-.09.02-.09l.02.67.09,4.95.23,11.15.03-.21.03-1,.06,1.35.03,1.97.09-1.36.06.26.02-1.82.43-29.11.03.34v.09s.03-.69.03-.69l.1-5.63.04,2.21v.43s.07-1.28.07-1.28l.03-2.58.07,2.73v-.19s.04,1.81.04,1.81l.06-2.9v-.5s.07,1.75.07,1.75l.03,2.54.1-.22.26,10.11v-.16s.02-.22.02-.22l.06.85.23,13.5.06-1,.02-1.18.06,3.15.07,5.59.07-1.75v-.18s.03,1.38.03,1.38l.02-.15.02.3.07-3.04.04,2.34.02.89.06-1.54.07-4.8.06,1.46.03.37v-.36s.19-10.02.19-10.02v.47s.02-.03.02-.03l.13-10.12.03.11.21-8.87v.49s.09,3.57.09,3.57l.04-2.49.08-3.99.04,2.86.22,4.21v-.15s.02-.3.02-.3l.02,1.68.4,13.16v-.09s.03-1.16.03-1.16l.06,3.53.11,7.78.03-1.22.02-.53.06,2.18.07,1.15.02-1.46.03.92.07.36v-.83s.08-1.74.08-1.74l.03,1.9v-.14s.04.73.04.73v-.83s.12-5.09.12-5.09l.02,2,.06,1.57.02-3.26.15-6.37.02.15.13-6.85.08-4.08.06.54.02.4.02-1.33.11-6.23.07,2.14.02,1.22.07-2.84.04-3.46.07,2.86.1,3.24.04-1.19.03.34.31,13.19v-.04s.02.04.02.04l.24,9.32.06-1.12.02-2.18.07,4.01.06,2.7.06-1.07v-1.31s.09,2.85.09,2.85v-.53s.11-3.98.11-3.98l.06.72.06,1.87.02-2.33.11-3.62-.08,3.7.09-2.88v.44s.04-2.27.04-2.27l.02.5.17-5.06v-.06s.12-3.69.12-3.69l.02,1.77v.96s.04-4.9.04-4.9l.03,1.42.17-8.2.12,4.59.02-2.12.09-1.26-.07,1.33.09-.19.13,2.72v-1.13s.08-1.08.08-1.08l-.03,1.7.07-1.22.15,3.93v-.25s.04,1.77.04,1.77l.02-.67.02,1.61.21,7.66-.18-7.7.19,7.36.02-1.06.07,2.3.1,2.72.04-.23.02-4.3.07,6v1.15s.08-1.8.08-1.8l.03,1.01.08-3.96.06,1.3.04,1.56.06-.89.19-5.77.12,2.82v-1.32s.15-6.53.15-6.53v.05s.02.28.02.28v-1.03s.06,0,.06,0l.09-4.68.09-2.67.04.69.02-.08.02,1.23.07,1.35.02-1.36.02.79.09,3.09-.06-3.86.12,2.05.02-2.41.09,2.17.09.97-.06-1.07.07,1,.02-1.15.02,2.6.07-1.64v-.32s.03,1.49.03,1.49l.02-1.04.15,11.61v-1.05s.11-3.15.11-3.15v1.02s.04-.65.04-.65l.1,3.71.02,1.03.04-3.94v.32s.02.2.02.2l.02-1.08.02.12v-.09s.02.4.02.4l.22,10.87.06-1.91.13-5.58v.38s.02,0,.02,0l.18-7.3.02.85.07,1.83.06-1.2.07-.93.03,1.38v-.46s.03-.21.03-.21l.02,1.27v.25s.02-1.44.02-1.44l.17-11.03.11,6.04.02-2.69v-.04s.03,3.1.03,3.1l.06-4.6.03,3.22.03-3.04.03,5.07.08,3.21.02-2.99.09-8.1.06.8v-.66s.06,3.69.06,3.69l.02.16.13,7.7.02-2.25.02-1.84.07,3.13.1,6.59.07-1.97.09-6.37.06,2.72.22,7.31.14,1.79-.09-1.85.1,1.57.18-6.4.02,1.58.02,1.66.08-2.55.19-5.39v.87s.03,2.77.03,2.77l.03-3.11.06,1.82.09-3.81.03,1.42.09,2.56.03-1.75.03,2.07.06-2.79.04-4.5.07-3.39-.02,3.46.06-.32.06,2.93.06-2.91.08-1.14-.04,1.92.07-.81.06-1.11.1,6.18v.25s.04-.91.04-.91l.03.29.07-5.1.08,1.25.17,11.35.03-1.99.1-3.11.04.74v.02s.1,4.91.1,4.91l.07-1.83.08-4.58.04,2.79.02.92.11,7.34.04-1.47v.68s.04-3.7.04-3.7l.06.89.09-5.14.02.43.1,2.8.02-1.91.1-3.96.04.3v-.09s.04,3.13.04,3.13l.09-1.2.07-2.32.06,1.34.13-4.18.11-2.53v.45s.03.69.03.69l.06-1.59.07-3.01.04,2.91.02-.39v.89s.12,4.87.12,4.87l.02-1.85v-.43s.07,1.58.07,1.58l.04-1.23.12,3.12.02-1.36.12-4.32.03,1.16.2,8.85.04-1.61.03-1.57.06,1.85.08,5.77.06-1.45.09-3.41.1-2.97v.65s.12,8.55.12,8.55l.02-2.43.11-4.24-.06,4.73.07-4.29.14,1.94-.09-3.41.1,3.15.19-7.41.08,2.53.02-.26.02-.1v.53s.04,2.43.04,2.43l.03-2.59.03.35.18-8.13.07-.83-.02,1.53.04-.17.22,4.55v-.45s.12-1.69.12-1.69l-.03,2.48.04-1.73v.68s.07-3.22.07-3.22l.08-1.81.04.8.1,6.62.14,5.23.2-8.65v.82s.18,8.54.18,8.54l.03-.7.1,4.13.02-.75.19-4.44.02.82.02-2.43.06.97.03-1.41.02,2.86.11,5.41.03-2.56.29-10.25-.24,11.32.28-10.37v.2s.03-1.37.03-1.37v-.47s.06.67.06.67l.04-.39.09,2.87.02-2.3.19-6.77-.14,8.18.22-6.44.08,2.25-.04-3.37.08,1.38.02,1.26.02,2.32.09-1.23.03-.28v.29s.11,1.9.11,1.9v-.89s.1-3.86.1-3.86l.03,2.15.15,7.9.03,3.73.08-3.38.13-3.71v.13s.14,8.17.14,8.17l.03-.33v.82s.07-2.55.07-2.55l.03,1.47v-.76s.07,2.63.07,2.63l.02-.37.06,3.05.04-1.33.12-7.27v.67s.02.09.02.09l.02-2.47.06,4.56v-.02s.09,4.06.09,4.06l.06-2.49.1-6.45.08.46.08,3.63.07-1.59.18-8.29.07,1.66-.03-2.5.1,1.61.1-3.72.04,1.29.14,4.2v-.16s.18-8.08.18-8.08l.02,1.42.02-.4.02.76.31,7.61.02-.5.03,2.04.03-1.01.11,4.87.02-.89v-.69s.07,1.89.07,1.89l.12,2.65.11-1.73-.02,2.19.03-1.95.02,1.92.04-4.92.02.44v-.3s.04.95.04.95l.02-.23.14,8.42.03-.5.1-6.91.08,1.69.03,1.22.02.93.06-2.63.08-4.08.1-4.44.02,2.11.11,5.38v-.73s.24-12,.24-12v.1s.06,3.4.06,3.4l.08-1.8.14-3.49v.57s.17,3.38.17,3.38v-.71s.13-2.93.13-2.93v.22s.04.43.04.43v-.71s.02-.84.02-.84l.07,3.14.18,8.85.06-2.26.11-3.56v.38s.2,13.11.2,13.11l.02-.84.07,1.23.12,4.22v-.68s.22-8.46.22-8.46l-.14,9.14.15-8.79.09,3.8.14,5.03.17-12.9.07,1.01.06,2.85.06-2.11.19-11.57.04,2.4.02.89.02-2.46v-.22s.03,4.19.03,4.19l.08-5.6.02.98.02-2.82.11-3.87.02,1.27.14,3.68.13-1.7v.3s.13,6.84.13,6.84l.02-.28v-.03s.02.28.02.28l.44,15.26.04-.04.02-.72.09.63.02-.26.03.5.2,5.95v1.16s.09-2.51.09-2.51v-.03s.18-4.57.18-4.57l.09-.33.04,1.67.35-22.81v1.31s.02,1.09.02,1.09l.06-3.38.03,1.33.14-4.61v.04s.03.83.03.83l.03-2.06.06.65.06-1.79.02.45.04-.81v-.49s.06,2.69.06,2.69l.18,7.96.5,23.72.03-1.93v-.03s.02.05.02.05l.03,1,.04-1.27v-.61s.06,2.26.06,2.26l.02-.05.03,1.38.13,7.56.03-1.42v-.07s.02.65.02.65v.56s.06-2.31.06-2.31l.13-7.06.02,1.76.09.94-.04-1.59.06,1.01.13-16.01.18-16.93.14,6.6.03-2.91.04-2.02.14-5.53.06,1.15.07-1.1-.03,1.23.07-.08v.31s.03-1.97.03-1.97l.02.65.06-1.2.02,1.89.02-.51.11,6.8.18,6.83.03-.89v.69s.31,23.08.31,23.08l.24,7.74v-.12s.02.68.02.68l.12,2.62v-.45s.1-.92.1-.92l-.02,2.23.03-1.37v1.27s.03-2.89.03-2.89l.06.07v.09s.02-.49.02-.49l.36-41.93.11.53.13,3.46.21-6.98.07-2.02.06.59.36,9.14v-.38s.11,1.39.11,1.39l-.06-1.66.07,1.63.25,24.88.14,6.76.02-.62.31,14.2.03-1.68.07-5.1.02.13.2-14.77.07-12.89.17-20.4v-.49s.02,2.65.02,2.65l.13,9.66v-1.03s.14-8.56.14-8.56l.02,1.07v.57s.03-2.2.03-2.2l.03-5.31.09,3.02v-1.01s.04,4.81.04,4.81l.04-1.7.06,3.53.02-3.24.11-2.99-.03,3.24.04-2.52.15,7.07v-.03s.02-.64.02-.64l.04,2.57.13,4.45v-.13s.04,1.94.04,1.94l.25,28.38.02.7.11,4.15.02-.3.02.44.02-.8v-.45s.06,2.32.06,2.32l.02.35.17,7.93.02-1.62.03.32.12-8.33.11-25.22.17-25.52.03,2.89.03,1.5.11,11.32.06-1.44.21-13.16.02-.58.02,1.19.02-.11.17,7.04.1-2.94.04.38h.01s.11,2.18.11,2.18l-.07-2.45.08,1.81v-.7s.09,2.1.09,2.1l.28,20.11.17,14.85v-.53s.02-.41.02-.41l.02,2.06.03-.46.31,14.91.02.29v.26s.03-1.04.03-1.04l.04.05.11-3.72v.45s.02-.76.02-.76l.28-62.21v.89s.21,27.78.21,27.78l.02-4.59.02,1.36.04-2.66.12-11.84.02,1.35.14,8.95v1.46s.09-2.61.09-2.61l.02,1.19.17-11.14.02,1.36.2,6.82-.17-7.3.18,6.79.02-1.84.08,2.73.08,6.54.2,24.37.07-1.52.07-.55.34,19.09.12-5.31v1.42s.02,1.52.02,1.52l.07-6.02.26-61.14.07,9.67.13,22.71.09-3.1.13-14.33.09,3.67.12,11.68.06-1.45.21-17.22.02,2.09.14,9.7.06-1.42.03.16.08-.81.12,14.59.19,16.25.02-.57.07-2.33.04,1.85v-.09s.03.47.03.47l.13,11.18.11,5.82.03-2.08.03.88.14-3.48.28-64.22v-.64s.03,2.58.03,2.58l.18,32.86.03-1.93v-.04s.04.09.04.09l.04-6.7.1-7.46.04,2.48.02-.18v.65s.17,13.33.17,13.33l.02-2.51.04-6.7.15-16.67.08,6.51.11,9.61.12-3.15.04-1.43.02,1.65.25,29.57.14-3.87.14,8.48.19,12.5.11-3.42.03.28.31-66.05.06,5.56.15,30.78v-.48s.21-15.31.21-15.31l.09,3.67.15,11.77.02-1.97.2-26.69.03,2.35v.08s.14,16.79.14,16.79l.1-.6.08-5.41.06,1.92.26,31.21.11-6.35.06-2.27.06,1.9.24,23.14.18-11.64.24-56.88.02.43h.01s.14,27.47.14,27.47l.06,6.32.07-.36.02-2.34.13-14.16v1.63s.21,20.81.21,20.81l.04-2.41.23-33.75.08,10.63.15,12.28.03-3.31.09-5.66.06,1.82.22,34.63.09-4.52.09-8.86.06,2.42.13,19.49.13,8.66v-.31s.21-28.84.21-28.84l.17-38.46.02,2.18.02-1.16.04,4.15.17,19.85.02-1.39.03,3.81.06-5.21.11-4.99-.08,5.08.09-3.7.17,14.36.03,1.57.03-1.78.24-30.26.06,3.55.18,12.23.11-1.8.02.61.13,14.15.15,17.42.02-.77.15-8.65.07,3.46.22,25.14.07-1.06.03-2.62.06-14.72.25-47.53.07,4.99.22,18.63.14-7.12.02,1.32.2,15.47v-.27s.14-15.85.14-15.85l.14-16.22v.61s.55,37.01.55,37.01l.1,6.78.06-1.93.1-3.46.03,2.22.12,11.21.22,12.54.34-66.66.04,3.74.21,19.49.03-1.12.13-7.34v1.81s.19,15.88.19,15.88l.04,2.18v-1.71s.25-31.22.25-31.22l.07,1.08.03,1.76.42,27.76.15,14.84.1-2.27.04-2.14.06,2.2v-.3s.03,1.63.03,1.63l.23,20.96v-.05s.06,1.19.06,1.19l.13-28.54.21-40.53v1.51s.18,20.72.18,20.72l.02-.82.02.87.04.85.03-2.41.11-4.49.02,1.75.22,17.71.08-6.73.23-27.5.04.36.47,34.12.17,10.59v.11s.03-.48.03-.48l.02.28.02-.97.06,2.92.02-.19.06,2.9.24,21.22.04-5.93.28-67.43.04,1.72.21,23.43.02,1.22.04-3.6.13-5.5v1.91s.2,15.12.2,15.12l.03,1.65.04-2.76.29-32.12.02,2.39.33,20.9.13,13.32.21,11.44.03-.06.02.89.17,10.62.18,14.31v-1.79s.32-72.89.32-72.89l.09,9.47.02,3.33.15,15.17.03-1.95.14-9.64.04,2.61.07,6.86.13,9.2.02-.66.11-14.92.17-20.5.03.51.03,1.03,1.03,71.7.04-2.4.3-70.32.06,3.2.2,25.61.11-4.02.07-5.78.07,2.44.06,4.77.14,7.43v-.57s.29-34.92.29-34.92l.06,1.08.49,40.44.3,23.48.24,10.04.02-3.06.34-71.8.02,4.2.07,9.91.14,16.45.09-1.74.06-5.78.12,2.32.15,6.15.03-.88.1-10.09.2-22.04.04.8.11,11.21.28,27.69.02-.24.06,3.54.45,35.1.06,1.15-.03-1.63.04.5.06-11.4.29-63.83.1,8.48.19,19.52.03-.25v.52s.07-1.68.07-1.68l.11-1.17v.13s.15,1.34.15,1.34v-.02s.37-27.78.37-27.78l.1,4.88.17,13.97.32,36.6.37,23.42.02-1.43.04-8.27.28-68.22.02,1.99.02-1.96.04,2.6.2,22.49.21,3.58.02-1.04.07,1.98.02-1.26.02.34.02-1.11.03.65.37-28.09.09,2.76.36,38.99.33,32.98v-.11s.02.19.02.19l.15,5.09v-1.28s.37-78.68.37-78.68l.02,2.79.39,25.14.02.91.11,1.9-.07-2.33.08,1.64.45-27.73.04.26.17,5.31.55,66.52v-.13s.17,6.88.17,6.88v-.93s.19-44.31.19-44.31l.18-26.52.04-1.34.03,2.49v-.06s.02.09.02.09l.19,5.87v-.24s.02-.4.02-.4l.03,1.51.02-.05.29,11.56v-.18s.5-24.03.5-24.03l.04-.28.06,2.06.71,71.94.04-7.03.25-42.17v.67s.07-2.73.07-2.73l.2-8.6.17-8.47.03,1.33.24,9.22h.01s.18-5.02.18-5.02l.11,1.1v-.53s.24-8.72.24-8.72l.03-1.31.04,2.25.31,29.73.35,40.9.07-7.92.5-46.88.18-21.32.04.05.02.59.07-1.39.02.84.02-.31.02.65.04,1.1.03.75.03-1.83.03-.76.03,1.78.26,11.36.08-1.6.11-4.62.03,1.15.42,39.68.24,31.46.11-6.58.4-38.05.32-37.17.11-4.09.04.64.02.75.04-2.13.02-1.52.04,2.89.24,19.46v-.09s.21-3.88.21-3.88l.12,5.49.45,49.36.12,17.02.06-4.82.14-7.86v.45s.02.67.02.67l.03-3.92.61-72.47.1-3.8.04,1.63.02.34.02-1.37.02-1.18.04,3.43.25,23.7.03-1.09.09-3.19.09.4.13,5.54.34,32.32.21,28.88.1-5.02.04-1.38.33-32.65.3-43.31.29-9.55.02.98.28,24.97.07-1.54.06-.74.04.88.07,1.08.41,32.16.25,34.55.11-4.29.13-5.6.61-77.22.12-5.09.07.15.02-.48.02,1.56.29,21.74.1-1.92.11,1.89.26,18.18.17,19.88.24,34.58.07-3.93.04.28.1-2.59.33-47.16.28-36.35.15-8.68.03.73.04-.17.02.68.36,20.48.03-.23.21,8.91.3,31.22.28,38.16.06-3.24.06.29.12-5.68.69-92.54.03-.41.02.55.06-.26.02.57.41,23.89.23,11.07.45,54.6.09,10.35.08-1.98.02.83.09-.49.04-4.01.71-95.59.04.17.06-.3.08,3.83.41,23.73.33,22.12.25,33.81.14,17.78.07-.69.03,1.11.09-.38.13-13.08.69-89.74v-.15s.04.85.04.85l.24,16.41.26,13.86.22,14.9.22,26.57.32,30.91.07.56.03-.29.08-7.87.14-18.23.45-72.26.13-4.97.03.28v-.18s.06.83.06.83l.79,54.82.41,46.71.08-1.05.07-.55.09-6.68.22-31.21.5-60.86.06-1.24.04,1.21.5,29.11.32,26.94.41,40.61.12-.74.04-1.4.21-22.79.44-63.2.18-6.17h.01s.01,0,.01,0v.07s.35,13.22.35,13.22l.24,16.25.77,59.03.07-.68.11-6.32.2-26.98.43-49.97.18-2.82.04.53.31,15.17.8,64.17v.4s.09-.76.09-.76l.04-.5.04.67.04.22v-.16s.09-3.73.09-3.73l.31-32.46.35-34.37.14-3.36.04.26.13,3.7.13,5.83.22,15.28.58,36.08.07.89.06-.7.17-3.05.15-7.3.68-39.44.08-.72.06.24.1,2.32.21,9.06.55,24.65.09,1.99.06,1.61.07-1.11.06-1.15.06.7.06.34.02-.32.24-7.51.71-18.07.07-.58.06.43.39,7.55.4,10.84.29,2.48v-.02s.04.15.04.15v.06s.06-.25.06-.25l.75-14.91.03-1.34.07,1.16.03.87.07-1.12.06-1.01.09.35.02-.05.06.2.83,10.64.04.03.26-.72.54-4.26.2-.55.02.03.06-.1.06-.03.04.06.13.08.33.36.37,1.53.25,1.12.03-.02.02-.04.07.11.04.02.04-.08.09-.39.34-1.7.28-.72.03.02.1.07.15.32.04.1.22.49.2.73h.08s.01.06.01.06l.11.22v-.08s.1-.12.1-.12l.04.06.06.14.06-.04.12-.23.08.1-.04-.21.09.15.15-.52v.02s.15.34.15.34l.03-.26.07.26v.09s.08-.29.08-.29l.04.07.02-.14.12-.54.13-3.1.06-6.7.03,8.96.04,5.31.08-3.74.06-1.54.03,1.76.03-1.57v.04s.04-1.98.04-1.98l.06,2.8.1,1.48.02-.8.04-.27.02.37.02-.19.02.71.1-.21.02.42.04-.78.04.43.04,1.27.03-3.33.02-2.12.03,7.75.03-3.32.07,1.76-.03-3.46.07,1.91.03-2.07.04,2.6v1.56s.04-4.14.04-4.14l.07,2.72.06-2.2.06,1.27.02,1.01.03-1.78.04.14v-.22s.03.97.03.97l.06,1.01-.02-2.66.03.78.09.85.03-3.05.02.48.04,1.51.06-1.76v.32s.06,1.44.06,1.44l.03-2.17.03.82v-.97s.07,1.77.07,1.77l.02-.3.04-1.27.08,2.95.02-3.3.07,3.39.03-2.03.07,1.9.03-3.13.1,3.88-.07-4.41.08,2.45v-1.82s.1,3.75.1,3.75l.12-4.28v1.49s.02,1.42.02,1.42l.03-3.36.06,2.91.08-6.07.06,3.3h.01s.08,4.55.08,4.55l-.02-5.05.12,4.28.11-4.59-.07,9.68.08-8.82.02,7.34.09-5.17.02,1.17.09-3.1.03,11.34.03-8.25.08,3.18.02,5.63.03-15.59.03,7.67.04,5.66.07-10.33.02,10.74.09-5.99.07-6.57-.02,12.59.09-9.71v.09s.02-.36.02-.36l.02,7.55.03-11.83.03,8.28.07-12.93-.02,21,.04-2.49v5.2s.03-23.97.03-23.97l.04,9.28.09-7.34-.04,13.62.06-8.03.02,8.72.04-14.6.03,1.69v-1.32s.02,10.53.02,10.53v5.1s.03-17.63.03-17.63l.06,3.02.12,14.15v-3.9s.02-8.53.02-8.53l.07,13.96.03-7.58v8.83s.03-14.43.03-14.43l.08,6.97.03,7.36.07-11.94.08,22.37-.02-43.52.04,22.93.09-10.87-.02,21.71.03-20.46.02,21.62.09-11.87.07-8.45-.02,17.36.07-11.49v-3.36s.09,10.25.09,10.25l.04-8.57.03,11.3.02-10.38.02,17.47.07-13.25.02,14.7v7.67s.03-27.18.03-27.18l.04,1.29v-3.84s.02,16.43.02,16.43v15.54s.04-29,.04-29l.06,1.79.03,18.22.07-20.32.02,19.43.02-17.78v-9.13s.04,19.96.04,19.96l.06-4.29.06,7.45-.02-18.72.07,13.89.02-29.11.02,46.46.07-30.99v-.33s.07,26.41.07,26.41l.03-35.79.04,21.38v1.5s.03-11.63.03-11.63v-6.33s.07,24.04.07,24.04l.03-15.77.15,14.95.1,3.53.03-19.9.06,13.34.03-12.79.07,15.42.03-22.73.02,20.39.09-14.8.17,13.13.03-16.84.09,6.73.1,12.29v-2.21s.03-11.3.03-11.3l.08,13.23.02-12.4v-5.24s.04,25.3.04,25.3l.06-20.69.03,21.97.02-24.45.07,15.64.07-14.65.02,14.67.08-15.6.03,22,.12-20.89v7.06s.11,8.76.11,8.76l-.06-15.95.07,11.58.09,3.9.03-20.56.06,23.23.1-7.88.07-10.27.03,14.8.06-13.35.06,10.2v6.06s.04-24.59.04-24.59l.06,17.05.02-9.52.09,5.07.03,5.88.03-5.19.02-4.77.07,6.95v-.65s.04-5.72.04-5.72v2.44s.03,7.36.03,7.36l.04-10.3.04,5.11.02-5.83.08,8.76.03-5.96.06,7.08v4.21s.07-19.87.07-19.87l.15,19.17.02-5.06.04-8.08.03,11.34.03-3.76.08,11.9-.03-20.24.04,16.64.09-20.45-.03,21.96.06-13.04.02,9.56.08-11.43v2.39s.04,9.31.04,9.31l.04-17.16.03,12.25.08-7.88-.03,8.42.08-5.62.02,8.77.08-11.34v3.93s.07,5.91.07,5.91l-.02-8.88.06,1.62.07,10.7.06-17.79.03,12.28.09-7.56h.01s.02,8.17.02,8.17l.07-9.74v-3.25s.04,19.15.04,19.15l.06-16.14.06,8.72.08-2.14.03-5.23.02,10.89.08-10.1.12,10.64-.03-14.98.04,13.94.07-12.11.04,7.44.1,5.58-.06-13.21.07,11.19.09-12.9.02,6.17.02,9.46.03-14.87.07,13.79.07-15.37.08,7.1.08,7.29.06-2.95.1-6.84-.03,9.85.04-7.24.02,7.03.1-.46.03-10.63.11,5.45.03,5.17.03-6.09.03,1.76.09-7.62-.03,10,.04-6.9.1,14.13-.03-15.58.04,9.3.02-9.18.09,7.36v-.04s.03-5.5.03-5.5l.03,6.34.07-5.18.1,6.59-.03-9.04.04,3.76v-5.68s.09,10.69.09,10.69v-1.26s.07-4.88.07-4.88l.07,3.09.03,2.4.03-3.44.03,1.82.02-4.86.09,3.08.07-4.92.02,4.46.03,6.05.04-9.64.03,5.73.02-8.45.08,6.68.02,5.09.04-12.53.06,10.65.03-8.28.1,2.52.04,8.51.08-6.44.02.15.02-3.72.03,7.79.02,3.69.04-9.56.04,5.82v1.29s.04-7.58.04-7.58l.04,5.21.04-7.54.03,8.91.03-4.02.04,4.03.04-9.49v-.07s.12,9.09.12,9.09l.02-2.96v-2.14s.07,5.8.07,5.8l.04-4.21.03.96v-1.38s.03-2.69.03-2.69l.04,5.99.03-2.28.07,2.01-.02-3.72.03,1.65.02-4.99.02,7.72.07-2.63.02,4.33.03-9.87.07,9.28.06-7.63.08,1.86.02,3.44v2.59s.07-6.3.07-6.3l.03,1.97.06-3.71.02,3.45.04-2.42.07,5.26.03-5.7.08,3.27.02,1.49.07-3.73v-.64s.03,3.18.03,3.18l.02,2.63.03-6.75.06,5.5v.31s.02-1.09.02-1.09l.02-5.09.03,8.11.06-3.98v-.53s.03,4.19.03,4.19v.06s.04-7.55.04-7.55l.04,7.78.04-5.75.1,2.82v-1.7s.11-1.91.11-1.91l-.04,2.58.06-2.57.08,3.72.06-2.41.02-2.92.04,6.6.02-.72.02-.47.03-5.12.03,5.36.06-2.6v-.38s.02,1.83.02,1.83l.02,4.16.03-5.92.06,4.1.12-4.98v.38s.06,9.04.06,9.04l.08-5.19.04-4.77.02-3.11.03,9.91.04-5.74.02,2.05.06-2.84.09-4.07-.04,8.55.08-5.86.12,5.53v-1.53s.07-4.27.07-4.27l.04,4.65.02,2.01.07-2.9.06,4.41.08-7.2.08,5.64.02,2.36.07-5.05v-2.48s.09,4.3.09,4.3v-.06s.03,1.53.03,1.53v-1.39s.03-5.46.03-5.46l.03,8.08.06-4.79.03.45.02-3.2.02-1.21.04,5.36.17-4.46-.12,4.71.13-3.7.08-.29.06,4.87v.88s.07-3.46.07-3.46l.08-2.34v2.03s.04,5.7.04,5.7l.09-2.29v.05s.04-4.77.04-4.77l.09.58.09,6.56.02-4.11.06-3.83.06,2.04.09,4.16.02-2.26.08-4.56.03,2.83.02-.45.06,1.35.08,2.54-.03-3.55.04,1.52.03-6.33.08,5.82.02-.83.03,2.36.03,1.48.02-2.37.02-2.84.09,1.44.09,3.42.04-.93.04-3.46.09.9.07,6.09.03-5.45.02-2.47.09,1.18.09,2.56.04-.5.1-3.93.02,2.26.07,4-.03-4.74.08,1.09.06-1.56.06.55.11,3.38.02-.69.11-3.35v.59s.1,4.32.1,4.32l.02-1.91.08-2.31.02,1.84.08,3.46-.03-3.71.06.72.1-2.41-.04,3.36.07-2.43.04-1.55.09,3.71.11-4.37.02,2.08h.01s.01.04.01.04l.09,1.82-.03-2.28.06,1.57.12-3.3-.03,3.72.04-3.52.03,6.23.09-3.22.04-.71.02,1.55v.85s.06-4.13.06-4.13l.04,2.89.07-1.88.02,2.59v.27s.04-1.17.04-1.17l.03-2.11.07,2.3.02-.75.04-1.18.02,1.37v.66s.09-1.95.09-1.95l.11,1.23-.06-2.58.07,2.09.06.91.07-1.6.06,2.79.12-.9.11-2.1-.04,3.11.06-2.96.12,1.9v.24s.03-1.31.03-1.31l.03-.5.03,1.54.02.98.04-2.82.04,1.9.14-2.17v.2s.04,2.34.04,2.34l.08-1.63.09-.45-.02.81.03-.17.02,1.63.04-2.39.03.29.02-.9.04,3.63.03-2.44v-.17s.06.96.06.96l.1,1.06-.07-1.89.08,1.57.07-2.42.06,1.63h.01s.1-2.06.1-2.06l.02,1.12.02,1.08.04-2.18.02.19.02.09v-.16s.02-.14.02-.14l.02.84.02-.06.04,3.08.06-3.15v.19s.07,2,.07,2l.09-.67.03-.93.02,1.71.04-.51v.61s.06-2.55.06-2.55l.04,1.89.02-.68.02.92.02,1.31.06-3.06.03,1.72.02-2.16.1,1.04.11-.49-.08,1.62.09-1.44.12,1.27-.08-2.86.09,2.73.12-2.8.03,1.44.1,2.08.02-1.23.03-.7.06,1.07.02-.36.02-.35.04,1.2.04,1.1.02-1.8.1-2.07-.07,2.67.09-1.61.07,1.7.04-1.37.02.11.02-.56.02-1.29.04,2.84.03-1.96.11,2.34.02-.52.08-2.31.04,1.63h.01s.03,2.03.03,2.03l.07-2.83v-.58s.08,1.66.08,1.66v-.28s.02-.05.02-.05v.33s.06.42.06.42l.02-.7v-.37s.07,1.3.07,1.3v.32s.04-2.07.04-2.07v.27s.13,2.39.13,2.39l.04-1.3.03-1.26.06,2.02.14-2.95v.52s.03,2.45.03,2.45l.07-3.08.03,2.03.11.94-.06-1.53.07,1.08.03-1.75.07,2.15v-.04s.11-1.28.11-1.28l.02.46.02,1.36.07-1.74.04-.83.04,1.51.02.19.03-.64.03.35.02-.59.06.86.04-.82.1.75.02-.52v-.12s.02.66.02.66v.83s.06-2.11.06-2.11l.02.19.02-.96.03,1.58.07-1.42.03.48.03-.47.02-.92.06,1.82.03-1.32.03,1.29.11,1.7v-.24s.04-1.56.04-1.56l.09.87.03,1.46.06-1.56.02-1.12.04,1.52.04-1.11.06.48.02-.53.07,1.34.04-1.91.14,2.55.02-1.01.03-2.03.07,2.14.02.28.02.61.03-2.11.02-1,.07,1.68v.68s.04-2.14.04-2.14l.04.34v-.04s.09,2.76.09,2.76l.04-1.6.02-1.34.08,2.53.04,1.16.03-1.92.02-1.11.07,1.44.02-.28.03.58.02-1.02.03-.75.03,1.44.02-.55.02.41.06-1.21.02-.55.03.97.02-.11.03.97.03-1.93.02.34.02-.44.02.82.04-.28.1.98.03-.47.06.58.08-1.62.06,2.01.09-.27.02-1.25.1.35.03.43.08-.37v-.57s.04,1.94.04,1.94l.07-1.9.13,1.89-.07-2.03.08,1.75.12-1.27-.04,1.46.06-1.28.14,2.2.03-2.47.13.66.03,1.55.07-1.42.08-.88.02.81.08-.78.06,2.01.07-1.97.07,1.2.03,1.12.07-.88.04-1.42.07.71.02,1.07.06-2.02v-.23s.04,1.25.04,1.25l.02.93.06-2.44v.02s.03-.52.03-.52l.03,1.73v-.38s.08,1.13.08,1.13l.02-.94.03-1.18.08.84.06.36-.02-.53h.04s.01-.19.01-.19l.03,1.01.03.87.02-1.47.07-1.39.03,1.47.06.94.04-.82.02-.87.08.97v-.07s.02,0,.02,0l.13,1.5-.07-2.03.08,1.9.07-2.46.06,1.62.03.35.04.21-.02-.29.03.08.03-1.49.08,1.12.14,1.96.07-.13.06-.38v.15s.04,2.1.04,2.1l.09-.97.02-.88.07,1.15.06.77.03-.81.02.28.13-1.6-.09,2.01.13-1.75.02,1.24.07-1.82.07-2.23.08.11.36-4.47.07.76v.08s.03-.51.03-.51l.02.15.04-.43.06.47v-.07s.03.21.03.21v-.24s.06-1.16.06-1.16l.07.86v-.13s.06.47.06.47l.07-.73.07,1.55v-.53s.08.96.08.96v-.1s.79,20.06.79,20.06l.04-.38.04.64.13-7.69v-.04s.3-23.6.3-23.6v1.3s.08,2.29.08,2.29l.06-.63.03-1.25.06,2.36.13,3.51v-.36s.14-.62.14-.62l-.04.65.06-.62.07,2.3.04-1.99.1-1.54.02.22.02.62.12.77.07-1.79.04,1.44.09,3.11.07-.1h.01s.01-.31.01-.31l.03,2.02.07,3.78.3,18.52.08-.72.02.35.12,5.99.09-.45.02.44v-.53s.22-21.83.22-21.83l.18-16.07.03.03h.01s.06,1.75.06,1.75l.04-1.87.02-1.63.07,2.64.2,7.8v-.35s.02-.26.02-.26l.03,1.32.02-.14.07,4.51.07-1.9.19-4.27.06.3v.08s.02-.48.02-.48l.09-3.27.04.92.02.82.07-1.16.02-.42.06,1.34.02.79.22,7.92.08,3.53.12,2.72.02-.18.18,3.09v-.17s.06-.55.06-.55l.04.39.19,3.53.06,1.81.06-1.63.39-18.91.03.49.04-.61.13-4.78.03.16v-.09s.03.36.03.36l.04-.09.03.91.24,4.54.04-.03v.06s.22,1.22.22,1.22v-.21s.25-3.13.25-3.13l.03-.31.04.43h.03s.15,4.13.15,4.13l.51,10.59.04-.2v-.09s.04.32.04.32l.3,8.27.04-1.05.68-28.09v.03s.04-.45.04-.45l.03.66.09-.06.13,3.76.33,5.49.26-3.17.02.33.19,3.97.49,12.07.34,9.74.03-2.51.42-23.93.15-8.32.11.77.57,13.33.09-1.11.24-5.47.03-.36.03.35.3,10.43.22,5.49.02-.15.06.42.37,10.68.04-1.29.18-7.53.41-25.09.03-.14.06.31.39,11.51.02-.45v-.16s.04.52.04.52l.13,2.66h.02s.11-3.17.11-3.17l.15-4.33.04.13.07-1.15.03.9.45,16.3.04-.38.03.38.04-.45.02-.36.06,1.05.24,4.62.1,5.57.06-2.93.35-19.72.3-10.29v.14s.47,12.87.47,12.87l.04-.77v-.38s.07,1.71.07,1.71v.28s.09-.75.09-.75l.31-7.86.02.53.12,5.43.24,8.89.1,2.25.07-.49.04.28.02-.55.03-.58.07.82.03.19.15,2.66.18,8.51.06-3.7.23-13.27.41-16.53.06,1.75.42,12.82v.12s.04-.6.04-.6l.03-.69.06,1.35v.08s.03-.26.03-.26l.36-7.64v.09s.55,14.3.55,14.3l.1-.34.19,1.9.21,8.81.03,1.02.04-2.45.25-12.66.41-17.71.06,1.45.41,14.36v-.02s.24-3.68.24-3.68l.18-6.03.04.26.04-.32.03.47.51,15.43.06-.11.11-1.42.09.69.25,7.45.07,8.64.06-6.94.18-12.29.2-15.87.04,1.54.06,1.66.06-1.22h.01s.11-2.4.11-2.4l-.08,2.68.11-1.07.24,12.15v-.23s.03-.27.03-.27l.04.99.08,2.49.04-.87.36-16.61v.44s.03-.08.03-.08l.06,2.93.34,18.65v-.15s.03.3.03.3l.06-.52.23-5.76.08-2.09.06.89.24,15.65.14,13.45.03-4.37.25-39.68v.38s.02.15.02.15l.03-1.03.06-4.85.04,4.28.17,15.35.02.51.02,1.09.06-2.69.02-.72.02,1.84.08,5.7.06-2.58.15-5.94v-.14s.03.99.03.99l.04,1.08.04-2.16.1-7.27.13,1.38.04,1.38.07-1.37v-.02s.25,13.32.25,13.32l.08-1.69.1,1.3.02-.47.19-6.55.04.41.07,1.24.04-1.23.04-.6.03,1.51.32,17.5.17,8.19.02.87v-.17s.23-41.59.23-41.59l.04,1.08.07,3.46.06-2.2.06,7.58.1,12.51.06-1.62h.01s.1-6.26.1-6.26v-1.05s.07,4.09.07,4.09l.02,2.9.08-4.51.03-3.62.1,1.88.09,3.19.02-1.16.11-8.96.08,3.12.09,1.9.04-.79.04-1.5.04.99.11,8.61.07-1.23.03-.54.1-1.9.02,1.07.04.82.04-1.12.11-2.27v.39s.14,3.54.14,3.54v-.44s.11-3.89.11-3.89l.06,2.04.21,9.37v-.56s.07,2.68.07,2.68l.23,11.84.02-2.12.13-35.44.09,1.13.02.35.28,21.93.07-6.8.13-4.94.02,2.03.06,4.34.06-4.39.06-2.39.04,2.7.11,2.33.03-1.06.14-10.24.09,4.18.13.83.04.8.1,6.66.08-2.91.07-1.07.08.35.09,1.64.04-.47.06-.84.04,1.17.04.85.09-.62.1-2.7.07.53.02.41.36,15.85v-.19s.02-.24.02-.24l.06,1.14.06,4.15.02,2.43.04-7.2.11-30.36.06,1.25.12,6.62.03-1.46.02-.69.03,1.66.11,16.65.06-5.72.14-5.28.04,2.27.06,3.34.04-4.41.04-2.54.06,2.84.09,2.87.02-2.21h.01s.01.01.01.01l.14-9.63.06,3.08.07,2.78.06-.78v-.26s.08.8.08.8v-.03s.07,2.59.07,2.59l.07,2.41.04-1.2.07-2.68.04,1.41.07,2.69.08-.38h.01s.01.22.01.22l.06-1.07.03.39.08,1.52.06-.4.13-3.54.04,1.01.19,7.06.19,8.03.03-.13.03-.94.04,1.25.09,6.35.03-5.24.12-28.99.08,1.96v-.15s.02.99.02.99l.28,19.24.06-6.6.11-3.36.02.92v-.39s.04,1.79.04,1.79l.06,2.97.03-2.81.06-5.24.06,3.68.07,3.22.04-1.78.17-9.18.02.84.07,4.51.07-2.06v-.11s.04.39.04.39l.17,6.04.04-1.77.08-2.91.04,1.73.08,3.98.07-2.14.02-.52.02.64.07-.12.08,2.67.04-1.53.07-3.48.07,1.4.06.41.02-.52.03.29v-.11s.02.82.02.82l.23,10.04.14,4.02-.11-4.38.15,3.72.02-1.72.06,4.91.02,3.22.06-9.55.11-23.61.04,1.05.12,5.12.04-1.05.02.44.09,13.06.03,3.51.06-6.82.06-5.57.06,3.97.13,1.7.08-6.34.06,3.85.06,5.87.06-3.74.09-8.4.08,1.06v-.12s.04.49.04.49l.06,2.38.04-1.77.03-1.64.06,2.08.11,5.13.04-.73.08-3.26.04,1.28.1,4.08.06-1.43.06-2.56.06,1.42.08,1.78.04-.76.1-2.11.04.66.02.38.02-1.03v-.11s.06.47.06.47l.19,5.68.24,8.71.03-.89.04,1.26.09,4.55.02-3.11.1-26.38.1,1.93.06-1.81.04,2.12v-.24s.04,1.24.04,1.24v-.15s.14,14.69.14,14.69l.04-4.34.07-5.08.04,3.06.04,2.09.06-2.37.09-1.18.02-1.15.06,3.06.03,2,.04,1.98.04-3.92.09-6.61.06,2.69.02.53.03-1.72.11-1.5v.04s.13,5,.13,5l.1-.95.15,2.65-.1-3.39.17,2.81.09-1.02.03.76v.03s.03.91.03.91l.07-1.4v-.21s.07.43.07.43l.04-.27.07.99.04-.74.07-2.1.06,1.49.18,4.34.4,15v-.48s.09-23.74.09-23.74l.03-5.55.08,3.89.08-4.37.08,1.82.15,16.79.06-7.17.04-3.4.04,4.46.04,3.8.06-4.41.08-2.81.06,1.54.09,5.08.07-3.48.06-5.16.07,3.19.03,1.58.04-3.2.06-4.42.07,2.45.1,3.31.06-1.35.04-1.16.04,2.81.09,2.87.03-1.02.06-2.18.04,2.03.06,2.14.06-1.41.07-1.73.07,1.12.02.22.04-.45.12-2.22.03.05.09,1.76.04-1.05v-.31s.06,1.62.06,1.62l.2,9.34.04-.18v-.3s.06,1.46.06,1.46l.2,7.4v-.96s.07-15.31.07-15.31l.04-11.55.09,3.77.02-1.36.06-6.08.07,3.99.17,14.46.04-4.61.04-2.44.04,4.99.03,3.42.06-4.62.06-6.49.06,4,.08,4.5.06-2.2.08-3.66.06,1.73v.92s.09-2.01.09-2.01l.08-6.88.06,4.22.04,1.46.06-1.86.04-.6.02,1.01.13,4.21.08-.86.02-.4.04,1.14.08,4.24.06-2.87.06-2.04.03,2.05.02-.11.04.98.06-1.56.09-3.06.06,1.62.04,1.03.06-1.18.06-.94.04.87.34,13.04.13,4.02.06,1.24.02-4.83.23-24.73.02-2.79.06,4.82.15,12.36.02-.67.02.2v-1.12s.02-.93.02-.93l.07,3.73.06,1.35.03-2.76.07-5.77.06,4.18.08,3.02.03-1.72.12-2.47.07,2.25.03-1.7.09-5.5.04,2.67.02,2.54.08-3.67.03-2.36.07,2.55.08,3.06.06-1.97v-.9s.07,2.74.07,2.74l.1,6,.04-2.5.04-2.02.07,1.93.04,1.38.03-2.06.11-4.17.06,1.29.03.58.07-.7v.3s.07-.81.07-.81l.04.92.08,2.34.06-.94v-.13s.04.9.04.9l.29,13.58v-.32s.02-.37.02-.37l.06,1.34.04,1.32.02-2.02.23-28.54.03-2.01.02,3.2.17,12.7v-.06s.18,5.05.18,5.05l-.09-5.5.1,5.33.09-7.83.07,4.42.02,1.46.08-2.2.04-2.81.06,2.44.07.82.02-.73.14-3.66v.21s.06,1.74.06,1.74l.04-1.32.08-3.32.04,1.7.04,1.72.06-1.91.03.62.02-.04.17,7.11.08-1.55.04,1.08v-.06s.03,1.03.03,1.03l.06-1.37.08-4.3.07.56.02.25.04-.43.11-.83.02.41.2,4.13.02.12.36,14.26v-1.45s.02.06.02.06l.02,2.34.04-6.59.07-16.27.08,4.01v.36s.02-1.02.02-1.02l.07-16.3.06,8.13.08,9.35.07-3.77.13,8.06.03,2.88.06-3.99.06-5.75.04,4.29.04,5.25.06-5.91.06-4.86.04,4.27.03,2.83.07-3.64.06-2.74.04,2.17.03,1.28.03-1.48.04.75v.18s.02-.78.02-.78l.04-2.76.08,1.67.03,1.04.03-1.19.04-2.8.06,2.57.29,7.34v-.3s.33-7.37.33-7.37v.31s.1,3.35.1,3.35l.07-1.19.02-.92.07,1.66.35,14.65.04-1.02.02-.46.02,1.84.07,4.03.02-3.87.23-30.16v-1.22s.06,5.44.06,5.44l.09,6.01.06-.27v-.37s.03,2.2.03,2.2l.14,8.4v-.35s.1-6.41.1-6.41l.04,3.37.04,5.62.06-6.57.07-3.44.03,4.12.03,3.19.04-4.85.07-3.63.04,1.71.02,3.3.07-4.85v-.14s.04.85.04.85l.03.97.02-1.34.02.29v-.58s.08,1.29.08,1.29v-.19s.03.65.03.65l.03-2.39.02-1.4.06,3.17.21,6.59v-.14s.03.56.03.56l.03-.87.02.07.21-3.19.14-3.55.18.37.5,17.16.02-.07v.63s.03,2.32.03,2.32l.04-3.66.07-16.28.07,5.88.03-5.84.07-13.44.06,8.99.04,3.64.06-4.84.02-2.32.04,4.85.13,8.04.06-.61.03.77.08,3.23.03,1.24.03-3,.06-4.54.06,2.63.02,1.92.06-4.15.06-4.03.06,1.73.04,2.92.04-3.7.03-2.47.07,2.65.06,1.59.04-1.64.04-1.36.07,1,.26,8.41v-.45s.08-3.03.08-3.03l.06,1.94.02.68.06-2.36.06-2.42.08,1.11.11-3.42.07,1.33.02.35.04-.74.04-.78.03,1.07.29,11.69v.03s.2,6.79.2,6.79v-.34s.09-14.25.09-14.25l.08,3.02.12-19.07.07,8.59.09-4.42.02-2.09.04,6.13.13,6.58v.02s.03-.79.03-.79l.04,2.25.11,4.44.03-1.7.04-2.8.07,2.09.03.14v-.3s.09-6.46.09-6.46l.1.74.02.71.03-2.56.03-2.6.08,2.39.04.26.09-1.81.32,10.87-.29-10.92.33,8.41.03-.44.04,1.11.06,1.19.03-2.14.2-5.34.07.19.09-1.53v-.2s.07.93.07.93v-.07s.02.26.02.26l.28,10.48v-.03s.26,10.22.26,10.22v-2.18s.26-30.37.26-30.37v1.25s.08,10.19.08,10.19l.04-5.43.04-4.85.04,6.45.04,6.49.08-1.96.21,9.61-.19-9.77.24,6.78v-.13s.03.89.03.89l.08.94.02-.96.07-5.46.09.38v.16s.03-.35.03-.35l.07-5.71.08,3.06.07-2.27.03-1.38.04,2.21.15,2.86.04,1.88.24,5.24.06-.94.26-7.25.02.65.08-.65.02-.48.03-1.47.07,1.57.15,4.33.2,10.09.06,3.23.07-1.79.07,3.9v.35s.02-1.36.02-1.36l.18-16.56.08-11.88.06,8.85v.35s.03-1.84.03-1.84l.08-8.61.04,7.49.03,5.45.08-3.73v-.39s.03,2.57.03,2.57l.3,9.51.04-.21.07-3.73.13-2.26h.01s.25-8.4.25-8.4l.04,1.75.15,2.86.29,11,.06-2.34.07-2.67.06.8v.36s.04-1.77.04-1.77l.26-6.61.13,1.55.4,17.06.04-1.89.03-1.54.03,3.52.03,1.12.23-24.27.03-1.1.02,2.88.02,3.78.07-6.94.03-2.51.04,3.72.06,6.62.07-4.02.24,13.28v-.21s.12-.59.12-.59l-.03.87.04-.78v.3s.06-1.03.06-1.03l.24-9.91v.02s.03,1.01.03,1.01l.06-2.56.02-1.02.1.4.18,4.42.28,9.18.03-1.03.03-.8.07.82v.08s.03-.48.03-.48l.32-10.62.06,1.22.02.33.04-.76.02-.5.06,1.09.57,15.95v-1.23s.08-10.03.08-10.03l.07,4.01.12-12.64.06,5.29v.39s.03-1.15.03-1.15l.07-7.15.06,4.84.04,3.52.07-3.62.31,11.15.07-.13.03.28.21-4.88.19-6.19.04-1.19.06.8.32,8.29.02.37.12,3.34.03-.71.3-5.09.21-4.72.02.18.02.22.06-.53v-.21s.07.75.07.75l.37,9.03.04.28-.02-.29.03.23.07,1.15.06-.65.21-3.81.12-1.69v.03s.06.75.06.75l.15,1.94v-.04s.03.43.03.43l.06-.73.02-.81.07,1.43.02-.63.31-5.98v.05s.02.19.02.19l.07-.64.06-1,.04.98.28,5.53.06-.32.09,1.27.06-.9.18-2.41.17-2.49.06.27.03-.24.02-.22.06.57.09,2.08.41,12.81v-.09s.03.65.03.65l.02.85.04-2.33.06-7.6.07,4.54.28-18.9.03-1.02.02,1.87.06,3.62.07-2.05.4,16.99.04-1.73.03-1.38.07,1.54.06.78v-.68s.2-8.41.2-8.41l.13-5.95.06,1.24v.13s.04-.77.04-.77l.04-.86.04,1.1.34,12.14.06,1.37.07-.65.07.13-.02-.27.03.05.07-1.75.25-7.16.12-1.23.1.28v-.05s.06.15.06.15l.46,7.45.03-.41.3-4.26.17-1.69.09.18.21,2.28.22,2.78.17.52.06-.47.22-2.09.02.06.28-1.86.04.26.04.24.06-.31.02-.1.04.32.04.36.09-.11.22.82.02-.15.06-.48.06.49.03.18.04-.32.07-.63.08.17.06-.52.04-.22.06.35h.01s.01-.08.01-.08h.02s.06-.25.06-.25l.03.35.24,1.56v-.02s.06-.03.06-.03v.04s.31,2.26.31,2.26l.02-.13.06-.25.04.27.03.14.04-.25.43-3.36.07-.66.18-.86.02-.02.03.11.55,1.71h.01s.2-.2.2-.2v.03s.03-.03.03-.03l.02.12.06.18.04-.21h.03s.5,4.66.5,4.66l.03-.2.08-.8.06.32v.05s.06-.26.06-.26l.37-5.27.15-.96.07.45.4,2.58.02-.04.41-1.23.02.09.44,2.96.07.38.07.47.07-.27.15-.72.22-1.76.03.09.03.02.02-.13.08-.9.07.47v.03s.04-.17.04-.17l.07-.37.04.3.06.38.07-.28.03.05.11.33.04-.07.13-.43.06.15h.01s.03-.08.03-.08l.07-.33.07.17.32,1.5.04.16.06-.18.03.1.09.68.08-.26h.02s.01.04.01.04l.06.34.06-.27.31-1.15.07.05.02-.09.09-.51.06.34.02.06.06-.22.04-.13.06.19.04.13.06-.2.08.06.07-.08.09.1.03-.15.04-.04.03.12.04.12.04-.18.03-.12.04.16.04.2.06-.27.03-.16.04.28.04.3.07-.27.24.73.03.14.07-.22.18.44.1-.18.03-.06.03.16.04.19.04-.32.04-.2.06.22.04.1.03-.13.06-.31.07.19.06-.12.2-.56.04.06h.02s.03-.1.03-.1l.23-.42.03.06.08.29.04-.14.02-.06.06.19.24.26h.01s.04.09.04.09l.07.18.04-.13.03-.07.04.14.06.15.06-.09h.02s.04.06.04.06l.02.03.07-.1.29.19.08-.09.02.09.06.22.06-.17.03-.05.06.12.04.1.07-.11.26-.51.15-.38h.18s.01.01.01.01l.31.3h.01s.03.09.03.09l.09.21.06-.07h.02s.02.07.02.07l.06.17.07-.11.21-.33.04.17.03.03.03-.12.06-.12.03.17.04.17.07-.17.04.09.1.25.04-.14.02-.02.04.12.04.07.07-.07.14-.08.09-.15.04.13h.02s.03-.11.03-.11l.09-.29.04.08h.04s.02-.08.02-.08l.17-.22v-.03s.09.09.09.09l.14.22.04.1.08-.05.12.17.06-.1.08-.07.03.06.04.03.04-.05.07-.15.06.12.08.08.03-.09.04-.03.02.1.07.22.08-.06.06.12.07.11.04-.1.17-.11.11-.06.09-.14.04-.08.06.11v.04s.08-.14.08-.14l.06-.09.04.08.02.04.06-.12.06-.06.06.07.18.06.03-.06.03-.09.06.12h.01s.02,0,.02,0l.03-.1.07-.03.04.06.08.07.04-.1h.06s.03.05.03.05l.08.2.06-.14h.02s.02.06.02.06l.1.31.04-.09h.03s.03.07.03.07l.07.1.06-.09.49-.45.06.15.02.02.06-.1h.03s.03.05.03.05l.06.07.04-.1h.03s.03.06.03.06l.04.08.06-.09.28-.16.07-.21.04.16.04.14.04-.18.04-.14.04.19.06.15.07-.08.02-.03.04.11.15.21.02-.02.04.11.15.11.13-.04h.07s.02-.05.02-.05l.03-.1.09.05.28-.34.08.15.17.06h.01s.07-.06.07-.06h.01s.07.05.07.05l.04.05.04-.11.04-.09.07.08.47-.16.13.07.26.35h.01s.21.02.21.02h.07s.03-.05.03-.05l.19-.17.06-.12.06.11.13-.11.06.07.37.08.18-.19.03.04.04.03.04-.08.06-.15.07.12.04-.08.04-.06.07.07.4.39.02-.03.06.05v.02s.09.05.09.05l.04-.05.19-.13.39-.09.09.13.03-.09.02-.04.06.1.04.06.06-.07v-.03h.01"/>
</svg>