<?xml version="1.0" encoding="UTF-8"?>
<svg id="Ebene_1" data-name="Ebene 1" xmlns="http://www.w3.org/2000/svg" xmlns:xlink="http://www.w3.org/1999/xlink" viewBox="0 0 720 288">
  <defs>
    <style>
      .cls-1, .cls-2, .cls-3, .cls-4, .cls-5, .cls-6 {
        fill: none;
      }

      .cls-7 {
        fill: #c9d1d9;
      }

      .cls-8, .cls-2, .cls-4, .cls-5 {
        stroke-linejoin: round;
      }

      .cls-8, .cls-3, .cls-5, .cls-6 {
        stroke: #c9d1d9;
      }

      .cls-8, .cls-5 {
        stroke-width: .6px;
      }

      .cls-9 {
        clip-path: url(#clippath-4);
      }

      .cls-10 {
        clip-path: url(#clippath-3);
      }

      .cls-11 {
        clip-path: url(#clippath-7);
      }

      .cls-12 {
        clip-path: url(#clippath-8);
      }

      .cls-13 {
        clip-path: url(#clippath-6);
      }

      .cls-14 {
        clip-path: url(#clippath-5);
      }

      .cls-15 {
        clip-path: url(#clippath-9);
      }

      .cls-16 {
        clip-path: url(#clippath-20);
      }

      .cls-17 {
        clip-path: url(#clippath-21);
      }

      .cls-18 {
        clip-path: url(#clippath-24);
      }

      .cls-19 {
        clip-path: url(#clippath-23);
      }

      .cls-20 {
        clip-path: url(#clippath-22);
      }

      .cls-21 {
        clip-path: url(#clippath-25);
      }

      .cls-22 {
        clip-path: url(#clippath-27);
      }

      .cls-23 {
        clip-path: url(#clippath-26);
      }

      .cls-24 {
        clip-path: url(#clippath-37);
      }

      .cls-25 {
        clip-path: url(#clippath-14);
      }

      .cls-26 {
        clip-path: url(#clippath-13);
      }

      .cls-27 {
        clip-path: url(#clippath-12);
      }

      .cls-28 {
        clip-path: url(#clippath-10);
      }

      .cls-29 {
        clip-path: url(#clippath-15);
      }

      .cls-30 {
        clip-path: url(#clippath-17);
      }

      .cls-31 {
        clip-path: url(#clippath-16);
      }

      .cls-32 {
        clip-path: url(#clippath-19);
      }

      .cls-33 {
        clip-path: url(#clippath-11);
      }

      .cls-34 {
        clip-path: url(#clippath-18);
      }

      .cls-2 {
        stroke: rgba(201, 209, 217, .2);
        stroke-width: .5px;
      }

      .cls-2, .cls-4, .cls-6 {
        stroke-linecap: square;
      }

      .cls-3 {
        stroke-miterlimit: 10;
      }

      .cls-4 {
        stroke: #307eef;
        stroke-width: 2.83px;
      }

      .cls-6 {
        stroke-width: .8px;
      }
    </style>
    <clipPath id="clippath-3">
      <rect class="cls-3" x="51.23" y="14.4" width="657.97" height="230.74"/>
    </clipPath>
    <clipPath id="clippath-4">
      <rect class="cls-3" x="51.23" y="14.4" width="657.97" height="230.74"/>
    </clipPath>
    <clipPath id="clippath-5">
      <rect class="cls-3" x="51.23" y="14.4" width="657.97" height="230.74"/>
    </clipPath>
    <clipPath id="clippath-6">
      <rect class="cls-3" x="51.23" y="14.4" width="657.97" height="230.74"/>
    </clipPath>
    <clipPath id="clippath-7">
      <rect class="cls-3" x="51.23" y="14.4" width="657.97" height="230.74"/>
    </clipPath>
    <clipPath id="clippath-8">
      <rect class="cls-3" x="51.23" y="14.4" width="657.97" height="230.74"/>
    </clipPath>
    <clipPath id="clippath-9">
      <rect class="cls-3" x="51.23" y="14.4" width="657.97" height="230.74"/>
    </clipPath>
    <clipPath id="clippath-10">
      <rect class="cls-3" x="51.23" y="14.4" width="657.97" height="230.74"/>
    </clipPath>
    <clipPath id="clippath-11">
      <rect class="cls-3" x="51.23" y="14.4" width="657.97" height="230.74"/>
    </clipPath>
    <clipPath id="clippath-12">
      <rect class="cls-3" x="51.23" y="14.4" width="657.97" height="230.74"/>
    </clipPath>
    <clipPath id="clippath-13">
      <rect class="cls-3" x="51.23" y="14.4" width="657.97" height="230.74"/>
    </clipPath>
    <clipPath id="clippath-14">
      <rect class="cls-3" x="51.23" y="14.4" width="657.97" height="230.74"/>
    </clipPath>
    <clipPath id="clippath-15">
      <rect class="cls-3" x="51.23" y="14.4" width="657.97" height="230.74"/>
    </clipPath>
    <clipPath id="clippath-16">
      <rect class="cls-3" x="51.23" y="14.4" width="657.97" height="230.74"/>
    </clipPath>
    <clipPath id="clippath-17">
      <rect class="cls-3" x="51.23" y="14.4" width="657.97" height="230.74"/>
    </clipPath>
    <clipPath id="clippath-18">
      <rect class="cls-3" x="51.23" y="14.4" width="657.97" height="230.74"/>
    </clipPath>
    <clipPath id="clippath-19">
      <rect class="cls-3" x="51.23" y="14.4" width="657.97" height="230.74"/>
    </clipPath>
    <clipPath id="clippath-20">
      <rect class="cls-3" x="51.23" y="14.4" width="657.97" height="230.74"/>
    </clipPath>
    <clipPath id="clippath-21">
      <rect class="cls-3" x="51.23" y="14.4" width="657.97" height="230.74"/>
    </clipPath>
    <clipPath id="clippath-22">
      <rect class="cls-3" x="51.23" y="14.4" width="657.97" height="230.74"/>
    </clipPath>
    <clipPath id="clippath-23">
      <rect class="cls-3" x="51.23" y="14.4" width="657.97" height="230.74"/>
    </clipPath>
    <clipPath id="clippath-24">
      <rect class="cls-3" x="51.23" y="14.4" width="657.97" height="230.74"/>
    </clipPath>
    <clipPath id="clippath-25">
      <rect class="cls-3" x="51.23" y="14.4" width="657.97" height="230.74"/>
    </clipPath>
    <clipPath id="clippath-26">
      <rect class="cls-3" x="51.23" y="14.4" width="657.97" height="230.74"/>
    </clipPath>
    <clipPath id="clippath-27">
      <rect class="cls-3" x="51.23" y="14.4" width="657.97" height="230.74"/>
    </clipPath>
    <clipPath id="clippath-37">
      <rect class="cls-3" x="51.23" y="14.4" width="657.97" height="230.74"/>
    </clipPath>
  </defs>
  <g id="figure_1" data-name="figure 1">
    <g id="patch_1" data-name="patch 1">
      <path class="cls-1" d="m0,288h720V0H0v288Z"/>
    </g>
    <g id="axes_1" data-name="axes 1">
      <g id="patch_2" data-name="patch 2">
        <path class="cls-3" d="m51.23,245.14h657.97V14.4H51.23v230.74Z"/>
      </g>
      <g id="matplotlib.axis_1" data-name="matplotlib.axis 1">
        <g id="xtick_1" data-name="xtick 1">
          <g id="text_1" data-name="text 1">
            <g>
              <path id="SchibstedGrotesk-Regular-31" class="cls-7" d="m199.3,259.46v-5.6c-.26.22-.5.41-.72.56-.23.15-.48.28-.75.38v-.83c.14-.07.29-.15.45-.25.16-.1.34-.25.54-.45.2-.2.44-.48.71-.83h.63v7.03h-.86Z"/>
              <path id="SchibstedGrotesk-Regular-30" class="cls-7" d="m204.02,259.58c-.81,0-1.44-.32-1.89-.95-.45-.64-.67-1.53-.67-2.68s.22-2.04.67-2.68c.45-.64,1.08-.95,1.89-.95s1.45.32,1.9.95c.45.64.67,1.53.67,2.68s-.22,2.04-.67,2.68c-.45.64-1.08.95-1.9.95Zm0-.7c.54,0,.95-.25,1.23-.75.28-.5.42-1.23.42-2.18s-.14-1.68-.42-2.18c-.28-.5-.68-.75-1.23-.75s-.95.25-1.23.75c-.28.5-.42,1.23-.42,2.18s.14,1.68.42,2.18c.28.5.69.75,1.23.75Z"/>
              <path id="SchibstedGrotesk-Regular-32" class="cls-7" d="m207.41,255.77v-.4l1.73-1.47c.23-.2.43-.38.58-.55.15-.16.26-.33.33-.5.07-.17.11-.36.11-.56,0-.23-.04-.42-.12-.57s-.19-.27-.34-.35-.33-.12-.54-.12c-.25,0-.44.05-.6.15s-.26.23-.34.39c-.07.16-.12.35-.13.55l-.66-.2c.01-.22.09-.43.24-.65.15-.21.34-.39.6-.53.25-.14.55-.21.88-.21.19,0,.38.03.58.08.19.05.37.14.53.26.16.12.29.28.39.47s.15.43.15.7c0,.39-.11.74-.32,1.04-.21.31-.51.61-.89.92l-1.34,1.08-.43-.08h3.07v.53h-3.49Z"/>
            </g>
          </g>
        </g>
        <g id="xtick_2" data-name="xtick 2">
          <g id="text_2" data-name="text 2">
            <g>
              <path id="SchibstedGrotesk-Regular-31-2" data-name="SchibstedGrotesk-Regular-31" class="cls-7" d="m418.63,259.46v-5.6c-.26.22-.5.41-.72.56-.23.15-.48.28-.75.38v-.83c.14-.07.29-.15.45-.25.16-.1.34-.25.54-.45.2-.2.44-.48.71-.83h.63v7.03h-.86Z"/>
              <path id="SchibstedGrotesk-Regular-30-2" data-name="SchibstedGrotesk-Regular-30" class="cls-7" d="m423.34,259.58c-.81,0-1.44-.32-1.89-.95-.45-.64-.67-1.53-.67-2.68s.22-2.04.67-2.68c.45-.64,1.08-.95,1.89-.95s1.45.32,1.9.95c.45.64.67,1.53.67,2.68s-.22,2.04-.67,2.68c-.45.64-1.08.95-1.9.95Zm0-.7c.54,0,.95-.25,1.23-.75.28-.5.42-1.23.42-2.18s-.14-1.68-.42-2.18c-.28-.5-.68-.75-1.23-.75s-.95.25-1.23.75c-.28.5-.42,1.23-.42,2.18s.14,1.68.42,2.18c.28.5.69.75,1.23.75Z"/>
              <path id="SchibstedGrotesk-Regular-33" class="cls-7" d="m428.52,255.85c-.31,0-.59-.06-.85-.18-.26-.12-.47-.29-.64-.52-.17-.23-.26-.5-.29-.83l.62-.19c.02.37.14.66.33.89.2.23.47.34.81.34.31,0,.56-.09.77-.27.2-.18.31-.44.31-.77,0-.13-.03-.27-.08-.42-.06-.15-.15-.28-.3-.38-.14-.1-.35-.16-.61-.16h-.68v-.52h.62c.29,0,.51-.08.66-.23.15-.15.23-.33.23-.52,0-.23-.08-.42-.24-.58-.16-.16-.38-.24-.68-.24-.36,0-.62.1-.79.31-.17.2-.26.49-.29.85l-.62-.19c.01-.23.09-.46.24-.69.14-.22.34-.41.59-.55.25-.15.55-.22.89-.22.28,0,.53.05.76.16s.41.26.54.45c.13.19.2.41.2.66,0,.16-.03.32-.1.45-.07.14-.17.26-.31.35-.14.1-.31.17-.52.22.35.06.62.21.82.44.2.23.3.5.3.8,0,.27-.05.51-.15.7s-.23.36-.39.48c-.16.12-.35.22-.55.28-.2.06-.41.09-.63.09Z"/>
            </g>
          </g>
        </g>
        <g id="xtick_3" data-name="xtick 3">
          <g id="text_3" data-name="text 3">
            <g>
              <path id="SchibstedGrotesk-Regular-31-3" data-name="SchibstedGrotesk-Regular-31" class="cls-7" d="m637.95,259.38v-5.6c-.26.22-.5.41-.72.56-.23.15-.48.28-.75.38v-.83c.14-.07.29-.15.45-.25.16-.1.34-.25.54-.45.2-.2.44-.48.71-.83h.63v7.03h-.86Z"/>
              <path id="SchibstedGrotesk-Regular-30-3" data-name="SchibstedGrotesk-Regular-30" class="cls-7" d="m642.67,259.5c-.81,0-1.44-.32-1.89-.95-.45-.64-.67-1.53-.67-2.68s.22-2.04.67-2.68c.45-.64,1.08-.95,1.89-.95s1.45.32,1.9.95c.45.64.67,1.53.67,2.68s-.22,2.04-.67,2.68c-.45.64-1.08.95-1.9.95Zm0-.7c.54,0,.95-.25,1.23-.75.28-.5.42-1.23.42-2.18s-.14-1.68-.42-2.18c-.28-.5-.68-.75-1.23-.75s-.95.25-1.23.75c-.28.5-.42,1.23-.42,2.18s.14,1.68.42,2.18c.28.5.69.75,1.23.75Z"/>
              <path id="SchibstedGrotesk-Regular-34" class="cls-7" d="m648.53,255.69v-1.63h0v-2.91l.15.33-2.18,2.59-.2-.18h3.4v.53h-3.68v-.59l2.59-3.06h.51v4.92h-.6Z"/>
            </g>
          </g>
        </g>
        <g id="xtick_4" data-name="xtick 4">
          <g id="line2d_7" data-name="line2d 7">
            <g>
              <g class="cls-10">
                <path class="cls-2" d="m51.23,245.14V14.4"/>
              </g>
              <rect class="cls-3" x="51.23" y="14.4" width="657.97" height="230.74"/>
            </g>
          </g>
          <g id="line2d_8" data-name="line2d 8">
            <path id="m3b59b3e31a" class="cls-8" d="m51.23,245.14v2"/>
          </g>
        </g>
        <g id="xtick_5" data-name="xtick 5">
          <g id="line2d_9" data-name="line2d 9">
            <g>
              <g class="cls-9">
                <path class="cls-2" d="m89.85,245.14V14.4"/>
              </g>
              <rect class="cls-3" x="51.23" y="14.4" width="657.97" height="230.74"/>
            </g>
          </g>
          <g id="line2d_10" data-name="line2d 10">
            <path id="m3b59b3e31a-2" data-name="m3b59b3e31a" class="cls-5" d="m89.85,245.14v2"/>
          </g>
        </g>
        <g id="xtick_6" data-name="xtick 6">
          <g id="line2d_11" data-name="line2d 11">
            <g>
              <g class="cls-14">
                <path class="cls-2" d="m117.25,245.14V14.4"/>
              </g>
              <rect class="cls-3" x="51.23" y="14.4" width="657.97" height="230.74"/>
            </g>
          </g>
          <g id="line2d_12" data-name="line2d 12">
            <path id="m3b59b3e31a-3" data-name="m3b59b3e31a" class="cls-8" d="m117.25,245.14v2"/>
          </g>
        </g>
        <g id="xtick_7" data-name="xtick 7">
          <g id="line2d_13" data-name="line2d 13">
            <g>
              <g class="cls-13">
                <path class="cls-2" d="m138.51,245.14V14.4"/>
              </g>
              <rect class="cls-3" x="51.23" y="14.4" width="657.97" height="230.74"/>
            </g>
          </g>
          <g id="line2d_14" data-name="line2d 14">
            <path id="m3b59b3e31a-4" data-name="m3b59b3e31a" class="cls-8" d="m138.51,245.14v2"/>
          </g>
        </g>
        <g id="xtick_8" data-name="xtick 8">
          <g id="line2d_15" data-name="line2d 15">
            <g>
              <g class="cls-11">
                <path class="cls-2" d="m155.87,245.14V14.4"/>
              </g>
              <rect class="cls-3" x="51.23" y="14.4" width="657.97" height="230.74"/>
            </g>
          </g>
          <g id="line2d_16" data-name="line2d 16">
            <path id="m3b59b3e31a-5" data-name="m3b59b3e31a" class="cls-8" d="m155.87,245.14v2"/>
          </g>
        </g>
        <g id="xtick_9" data-name="xtick 9">
          <g id="line2d_17" data-name="line2d 17">
            <g>
              <g class="cls-12">
                <path class="cls-2" d="m170.56,245.14V14.4"/>
              </g>
              <rect class="cls-3" x="51.23" y="14.4" width="657.97" height="230.74"/>
            </g>
          </g>
          <g id="line2d_18" data-name="line2d 18">
            <path id="m3b59b3e31a-6" data-name="m3b59b3e31a" class="cls-8" d="m170.56,245.14v2"/>
          </g>
        </g>
        <g id="xtick_10" data-name="xtick 10">
          <g id="line2d_19" data-name="line2d 19">
            <g>
              <g class="cls-15">
                <path class="cls-2" d="m183.28,245.14V14.4"/>
              </g>
              <rect class="cls-3" x="51.23" y="14.4" width="657.97" height="230.74"/>
            </g>
          </g>
          <g id="line2d_20" data-name="line2d 20">
            <path id="m3b59b3e31a-7" data-name="m3b59b3e31a" class="cls-8" d="m183.28,245.14v2"/>
          </g>
        </g>
        <g id="xtick_11" data-name="xtick 11">
          <g id="line2d_21" data-name="line2d 21">
            <g>
              <g class="cls-28">
                <path class="cls-2" d="m194.49,245.14V14.4"/>
              </g>
              <rect class="cls-3" x="51.23" y="14.4" width="657.97" height="230.74"/>
            </g>
          </g>
          <g id="line2d_22" data-name="line2d 22">
            <path id="m3b59b3e31a-8" data-name="m3b59b3e31a" class="cls-8" d="m194.49,245.14v2"/>
          </g>
        </g>
        <g id="xtick_12" data-name="xtick 12">
          <g id="line2d_23" data-name="line2d 23">
            <g>
              <g class="cls-33">
                <path class="cls-2" d="m270.55,245.14V14.4"/>
              </g>
              <rect class="cls-3" x="51.23" y="14.4" width="657.97" height="230.74"/>
            </g>
          </g>
          <g id="line2d_24" data-name="line2d 24">
            <path id="m3b59b3e31a-9" data-name="m3b59b3e31a" class="cls-8" d="m270.55,245.14v2"/>
          </g>
        </g>
        <g id="xtick_13" data-name="xtick 13">
          <g id="line2d_25" data-name="line2d 25">
            <g>
              <g class="cls-27">
                <path class="cls-2" d="m309.17,245.14V14.4"/>
              </g>
              <rect class="cls-3" x="51.23" y="14.4" width="657.97" height="230.74"/>
            </g>
          </g>
          <g id="line2d_26" data-name="line2d 26">
            <path id="m3b59b3e31a-10" data-name="m3b59b3e31a" class="cls-8" d="m309.17,245.14v2"/>
          </g>
        </g>
        <g id="xtick_14" data-name="xtick 14">
          <g id="line2d_27" data-name="line2d 27">
            <g>
              <g class="cls-26">
                <path class="cls-2" d="m336.58,245.14V14.4"/>
              </g>
              <rect class="cls-3" x="51.23" y="14.4" width="657.97" height="230.74"/>
            </g>
          </g>
          <g id="line2d_28" data-name="line2d 28">
            <path id="m3b59b3e31a-11" data-name="m3b59b3e31a" class="cls-8" d="m336.58,245.14v2"/>
          </g>
        </g>
        <g id="xtick_15" data-name="xtick 15">
          <g id="line2d_29" data-name="line2d 29">
            <g>
              <g class="cls-25">
                <path class="cls-2" d="m357.83,245.14V14.4"/>
              </g>
              <rect class="cls-3" x="51.23" y="14.4" width="657.97" height="230.74"/>
            </g>
          </g>
          <g id="line2d_30" data-name="line2d 30">
            <path id="m3b59b3e31a-12" data-name="m3b59b3e31a" class="cls-8" d="m357.83,245.14v2"/>
          </g>
        </g>
        <g id="xtick_16" data-name="xtick 16">
          <g id="line2d_31" data-name="line2d 31">
            <g>
              <g class="cls-29">
                <path class="cls-2" d="m375.2,245.14V14.4"/>
              </g>
              <rect class="cls-3" x="51.23" y="14.4" width="657.97" height="230.74"/>
            </g>
          </g>
          <g id="line2d_32" data-name="line2d 32">
            <path id="m3b59b3e31a-13" data-name="m3b59b3e31a" class="cls-8" d="m375.2,245.14v2"/>
          </g>
        </g>
        <g id="xtick_17" data-name="xtick 17">
          <g id="line2d_33" data-name="line2d 33">
            <g>
              <g class="cls-31">
                <path class="cls-2" d="m389.88,245.14V14.4"/>
              </g>
              <rect class="cls-3" x="51.23" y="14.4" width="657.97" height="230.74"/>
            </g>
          </g>
          <g id="line2d_34" data-name="line2d 34">
            <path id="m3b59b3e31a-14" data-name="m3b59b3e31a" class="cls-8" d="m389.88,245.14v2"/>
          </g>
        </g>
        <g id="xtick_18" data-name="xtick 18">
          <g id="line2d_35" data-name="line2d 35">
            <g>
              <g class="cls-30">
                <path class="cls-2" d="m402.6,245.14V14.4"/>
              </g>
              <rect class="cls-3" x="51.23" y="14.4" width="657.97" height="230.74"/>
            </g>
          </g>
          <g id="line2d_36" data-name="line2d 36">
            <path id="m3b59b3e31a-15" data-name="m3b59b3e31a" class="cls-8" d="m402.6,245.14v2"/>
          </g>
        </g>
        <g id="xtick_19" data-name="xtick 19">
          <g id="line2d_37" data-name="line2d 37">
            <g>
              <g class="cls-34">
                <path class="cls-2" d="m413.82,245.14V14.4"/>
              </g>
              <rect class="cls-3" x="51.23" y="14.4" width="657.97" height="230.74"/>
            </g>
          </g>
          <g id="line2d_38" data-name="line2d 38">
            <path id="m3b59b3e31a-16" data-name="m3b59b3e31a" class="cls-8" d="m413.82,245.14v2"/>
          </g>
        </g>
        <g id="xtick_20" data-name="xtick 20">
          <g id="line2d_39" data-name="line2d 39">
            <g>
              <g class="cls-32">
                <path class="cls-2" d="m489.88,245.14V14.4"/>
              </g>
              <rect class="cls-3" x="51.23" y="14.4" width="657.97" height="230.74"/>
            </g>
          </g>
          <g id="line2d_40" data-name="line2d 40">
            <path id="m3b59b3e31a-17" data-name="m3b59b3e31a" class="cls-8" d="m489.88,245.14v2"/>
          </g>
        </g>
        <g id="xtick_21" data-name="xtick 21">
          <g id="line2d_41" data-name="line2d 41">
            <g>
              <g class="cls-16">
                <path class="cls-2" d="m528.5,245.14V14.4"/>
              </g>
              <rect class="cls-3" x="51.23" y="14.4" width="657.97" height="230.74"/>
            </g>
          </g>
          <g id="line2d_42" data-name="line2d 42">
            <path id="m3b59b3e31a-18" data-name="m3b59b3e31a" class="cls-8" d="m528.5,245.14v2"/>
          </g>
        </g>
        <g id="xtick_22" data-name="xtick 22">
          <g id="line2d_43" data-name="line2d 43">
            <g>
              <g class="cls-17">
                <path class="cls-2" d="m555.9,245.14V14.4"/>
              </g>
              <rect class="cls-3" x="51.23" y="14.4" width="657.97" height="230.74"/>
            </g>
          </g>
          <g id="line2d_44" data-name="line2d 44">
            <path id="m3b59b3e31a-19" data-name="m3b59b3e31a" class="cls-8" d="m555.9,245.14v2"/>
          </g>
        </g>
        <g id="xtick_23" data-name="xtick 23">
          <g id="line2d_45" data-name="line2d 45">
            <g>
              <g class="cls-20">
                <path class="cls-2" d="m577.15,245.14V14.4"/>
              </g>
              <rect class="cls-3" x="51.23" y="14.4" width="657.97" height="230.74"/>
            </g>
          </g>
          <g id="line2d_46" data-name="line2d 46">
            <path id="m3b59b3e31a-20" data-name="m3b59b3e31a" class="cls-8" d="m577.15,245.14v2"/>
          </g>
        </g>
        <g id="xtick_24" data-name="xtick 24">
          <g id="line2d_47" data-name="line2d 47">
            <g>
              <g class="cls-19">
                <path class="cls-2" d="m594.52,245.14V14.4"/>
              </g>
              <rect class="cls-3" x="51.23" y="14.4" width="657.97" height="230.74"/>
            </g>
          </g>
          <g id="line2d_48" data-name="line2d 48">
            <path id="m3b59b3e31a-21" data-name="m3b59b3e31a" class="cls-8" d="m594.52,245.14v2"/>
          </g>
        </g>
        <g id="xtick_25" data-name="xtick 25">
          <g id="line2d_49" data-name="line2d 49">
            <g>
              <g class="cls-18">
                <path class="cls-2" d="m609.2,245.14V14.4"/>
              </g>
              <rect class="cls-3" x="51.23" y="14.4" width="657.97" height="230.74"/>
            </g>
          </g>
          <g id="line2d_50" data-name="line2d 50">
            <path id="m3b59b3e31a-22" data-name="m3b59b3e31a" class="cls-8" d="m609.2,245.14v2"/>
          </g>
        </g>
        <g id="xtick_26" data-name="xtick 26">
          <g id="line2d_51" data-name="line2d 51">
            <g>
              <g class="cls-21">
                <path class="cls-2" d="m621.92,245.14V14.4"/>
              </g>
              <rect class="cls-3" x="51.23" y="14.4" width="657.97" height="230.74"/>
            </g>
          </g>
          <g id="line2d_52" data-name="line2d 52">
            <path id="m3b59b3e31a-23" data-name="m3b59b3e31a" class="cls-8" d="m621.92,245.14v2"/>
          </g>
        </g>
        <g id="xtick_27" data-name="xtick 27">
          <g id="line2d_53" data-name="line2d 53">
            <g>
              <g class="cls-23">
                <path class="cls-2" d="m633.14,245.14V14.4"/>
              </g>
              <rect class="cls-3" x="51.23" y="14.4" width="657.97" height="230.74"/>
            </g>
          </g>
          <g id="line2d_54" data-name="line2d 54">
            <path id="m3b59b3e31a-24" data-name="m3b59b3e31a" class="cls-8" d="m633.14,245.14v2"/>
          </g>
        </g>
        <g id="xtick_28" data-name="xtick 28">
          <g id="line2d_55" data-name="line2d 55">
            <g>
              <g class="cls-22">
                <path class="cls-2" d="m709.2,245.14V14.4"/>
              </g>
              <rect class="cls-3" x="51.23" y="14.4" width="657.97" height="230.74"/>
            </g>
          </g>
          <g id="line2d_56" data-name="line2d 56">
            <path id="m3b59b3e31a-25" data-name="m3b59b3e31a" class="cls-8" d="m709.2,245.14v2"/>
          </g>
        </g>
        <g id="text_4" data-name="text 4">
          <g>
            <path id="SchibstedGrotesk-Regular-46" class="cls-7" d="m338.85,274.16v-8.44h5.41v.87h-4.35v2.6h3.92v.87h-3.92v4.1h-1.05Z"/>
            <path id="SchibstedGrotesk-Regular-72" class="cls-7" d="m345.57,274.16v-6.33h.93v1.34l-.04-.15c.19-.44.47-.77.85-.99.38-.22.76-.34,1.15-.34.11,0,.22,0,.33.03.11.02.21.05.3.1l-.13.92c-.22-.07-.43-.1-.64-.1-.13,0-.3.03-.49.08-.2.05-.39.16-.59.32-.19.16-.35.39-.49.7s-.2.73-.2,1.25v3.16h-.98Z"/>
            <path id="SchibstedGrotesk-Regular-65" class="cls-7" d="m352.95,274.3c-.6,0-1.12-.13-1.56-.4-.44-.27-.78-.65-1.02-1.15-.24-.49-.36-1.08-.36-1.75s.12-1.26.36-1.76c.24-.5.58-.88,1.01-1.15.43-.27.94-.4,1.53-.4.34,0,.67.05,1.01.16.34.11.65.29.93.56.28.26.5.62.67,1.08.17.46.25,1.04.25,1.74h-5.13v-.8h4.27l-.28.37c-.02-.55-.11-1-.27-1.33-.16-.34-.37-.58-.62-.73-.25-.15-.54-.23-.85-.23-.37,0-.69.1-.96.29-.27.19-.48.48-.62.85-.14.37-.22.82-.22,1.36,0,.79.16,1.4.48,1.83.32.43.78.64,1.37.64.43,0,.78-.11,1.07-.32.29-.22.51-.53.64-.93l.97.33c-.15.37-.35.68-.61.94-.25.26-.56.46-.91.6-.35.14-.74.21-1.17.21Z"/>
            <path id="SchibstedGrotesk-Regular-71" class="cls-7" d="m361.45,276.45v-3.6l.09.09c-.17.46-.46.8-.86,1.03-.4.22-.82.34-1.27.34-.51,0-.96-.13-1.36-.4-.39-.27-.7-.65-.92-1.15-.22-.5-.33-1.08-.33-1.76s.11-1.26.33-1.75c.22-.49.53-.88.92-1.14.39-.27.84-.4,1.35-.4.41,0,.82.1,1.23.31.41.21.71.56.92,1.05l-.05.05v-1.27h.93v8.61h-.98Zm-1.78-2.97c.33,0,.63-.09.91-.26.27-.17.49-.44.66-.81.16-.36.25-.83.25-1.4,0-.85-.18-1.48-.53-1.89s-.77-.61-1.27-.61c-.52,0-.95.22-1.29.65-.34.43-.5,1.05-.5,1.85s.16,1.39.49,1.82c.32.43.76.65,1.3.65Z"/>
            <path id="SchibstedGrotesk-Regular-75" class="cls-7" d="m366.39,274.3c-.44,0-.82-.1-1.15-.3-.32-.2-.57-.49-.75-.86-.18-.37-.26-.81-.26-1.33v-3.98h.98v3.91c0,.52.1.94.29,1.26.19.32.55.48,1.06.48.38,0,.71-.1.98-.29s.49-.49.65-.88c.15-.39.23-.88.23-1.47v-3.01h.98v6.33h-.92v-1.49l.04.26c-.16.39-.43.72-.79.98-.37.26-.81.39-1.34.39Z"/>
            <path id="SchibstedGrotesk-Regular-65-2" data-name="SchibstedGrotesk-Regular-65" class="cls-7" d="m373.88,274.3c-.6,0-1.12-.13-1.56-.4-.44-.27-.78-.65-1.02-1.15-.24-.49-.36-1.08-.36-1.75s.12-1.26.36-1.76c.24-.5.58-.88,1.01-1.15.43-.27.94-.4,1.53-.4.34,0,.67.05,1.01.16.34.11.65.29.93.56.28.26.5.62.67,1.08.17.46.25,1.04.25,1.74h-5.13v-.8h4.27l-.28.37c-.02-.55-.11-1-.27-1.33-.16-.34-.37-.58-.62-.73-.25-.15-.54-.23-.85-.23-.37,0-.69.1-.96.29-.27.19-.48.48-.62.85-.14.37-.22.82-.22,1.36,0,.79.16,1.4.48,1.83.32.43.78.64,1.37.64.43,0,.78-.11,1.07-.32.29-.22.51-.53.64-.93l.97.33c-.15.37-.35.68-.61.94-.25.26-.56.46-.91.6-.35.14-.74.21-1.17.21Z"/>
            <path id="SchibstedGrotesk-Regular-6e" class="cls-7" d="m378.19,274.16v-6.33h.93v1.43l-.04-.26c.17-.36.43-.67.8-.93.36-.26.81-.38,1.33-.38.45,0,.83.1,1.16.3.32.2.58.48.75.85.18.37.26.81.26,1.33v3.98h-.98v-3.91c0-.52-.11-.94-.32-1.26-.21-.32-.56-.48-1.05-.48-.53,0-.97.2-1.32.6-.35.4-.52.98-.52,1.74v3.31h-.98Z"/>
            <path id="SchibstedGrotesk-Regular-63" class="cls-7" d="m387.69,274.3c-.59,0-1.11-.13-1.54-.4-.43-.27-.77-.65-1-1.15-.23-.49-.35-1.08-.35-1.76s.12-1.26.35-1.75c.23-.49.57-.88,1-1.15.43-.27.95-.4,1.54-.4.45,0,.86.08,1.22.25s.66.4.91.71c.25.31.43.68.55,1.12l-1,.26c-.11-.49-.31-.87-.59-1.13-.28-.26-.64-.4-1.08-.4-.58,0-1.03.22-1.34.65-.31.43-.47,1.04-.47,1.84s.16,1.41.47,1.84c.31.43.76.64,1.34.64.43,0,.79-.13,1.07-.38.28-.26.48-.63.59-1.11l1,.28c-.09.32-.22.61-.39.85-.16.25-.36.46-.58.64-.22.18-.48.31-.76.4-.28.09-.59.14-.93.14Z"/>
            <path id="SchibstedGrotesk-Regular-79" class="cls-7" d="m392.06,276.45v-.82h.96c.07,0,.12-.02.16-.07.04-.04.08-.12.11-.21l.46-1.31-.1.45-2.54-6.66h1.1l2.02,5.83-.22-.05,2.01-5.78h1.09l-3.02,7.9c-.08.22-.22.39-.42.52s-.4.19-.61.19h-1.01Z"/>
            <path id="SchibstedGrotesk-Regular-28" class="cls-7" d="m402.83,276.14c-.61-.77-1.06-1.61-1.38-2.53-.31-.91-.47-1.86-.47-2.85s.16-1.93.47-2.85c.31-.91.77-1.76,1.37-2.54h1.04c-.67.9-1.16,1.77-1.48,2.63-.31.86-.47,1.78-.47,2.76s.15,1.93.46,2.78c.3.85.8,1.72,1.49,2.59h-1.04Z"/>
            <path id="SchibstedGrotesk-Regular-48" class="cls-7" d="m405.11,274.16v-8.44h1.05v3.64h4.6v-3.64h1.06v8.44h-1.06v-3.93h-4.6v3.93h-1.05Z"/>
            <path id="SchibstedGrotesk-Regular-7a" class="cls-7" d="m413.26,274.16v-.84l3.8-4.64h-3.64v-.84h4.83v.84l-3.85,4.64h4v.84h-5.12Z"/>
            <path id="SchibstedGrotesk-Regular-29" class="cls-7" d="m419.11,276.14c.69-.88,1.19-1.74,1.49-2.59.3-.86.46-1.78.46-2.78s-.16-1.9-.47-2.76c-.31-.86-.81-1.73-1.48-2.63h1.04c.6.78,1.06,1.63,1.37,2.54.31.91.47,1.86.47,2.85s-.16,1.94-.47,2.85c-.31.91-.77,1.75-1.38,2.53h-1.04Z"/>
          </g>
        </g>
      </g>
      <g id="matplotlib.axis_2" data-name="matplotlib.axis 2">
        <g id="ytick_1" data-name="ytick 1">
          <g id="text_5" data-name="text 5">
            <g>
              <path id="SchibstedGrotesk-Regular-2212" class="cls-7" d="m26.66,245.86v-.76h4.98v.76h-4.98Z"/>
              <path id="SchibstedGrotesk-Regular-38" class="cls-7" d="m35.22,248.92c-.48,0-.91-.09-1.28-.27-.37-.18-.66-.43-.88-.75-.21-.32-.31-.69-.31-1.1,0-.45.13-.85.4-1.2.27-.35.66-.58,1.17-.67-.27-.07-.51-.17-.71-.31s-.36-.31-.47-.51c-.11-.2-.16-.43-.16-.68,0-.34.09-.65.28-.91.19-.27.45-.48.79-.63.34-.15.73-.23,1.17-.23s.83.08,1.16.23c.33.15.6.36.78.63.19.27.28.57.28.91,0,.25-.05.48-.16.68-.11.2-.26.37-.46.51-.2.14-.43.24-.7.31.51.09.91.32,1.17.67.27.35.4.75.4,1.2,0,.42-.11.78-.32,1.1-.21.32-.5.57-.88.75-.37.18-.8.27-1.29.27Zm0-.77c.49,0,.87-.13,1.15-.38.28-.25.42-.59.42-1.03s-.14-.77-.42-1.02c-.28-.26-.66-.38-1.15-.38s-.86.13-1.15.38c-.28.26-.43.6-.43,1.02s.14.78.43,1.03c.29.25.67.37,1.15.37Zm0-3.53c.42,0,.75-.1.99-.29.24-.19.36-.46.36-.8s-.12-.64-.36-.85c-.24-.21-.57-.32-.99-.32s-.75.11-1,.32c-.24.21-.37.49-.37.85s.12.61.37.8c.24.19.58.29,1,.29Z"/>
              <path id="SchibstedGrotesk-Regular-30-4" data-name="SchibstedGrotesk-Regular-30" class="cls-7" d="m41.17,248.92c-.81,0-1.44-.32-1.89-.95-.45-.64-.67-1.53-.67-2.68s.22-2.04.67-2.68c.45-.64,1.08-.95,1.89-.95s1.45.32,1.9.95c.45.64.67,1.53.67,2.68s-.22,2.04-.67,2.68c-.45.64-1.08.95-1.9.95Zm0-.7c.54,0,.95-.25,1.23-.75.28-.5.42-1.23.42-2.18s-.14-1.68-.42-2.18c-.28-.5-.68-.75-1.23-.75s-.95.25-1.23.75c-.28.5-.42,1.23-.42,2.18s.14,1.68.42,2.18c.28.5.69.75,1.23.75Z"/>
            </g>
          </g>
        </g>
        <g id="ytick_2" data-name="ytick 2">
          <g id="text_6" data-name="text 6">
            <g>
              <path id="SchibstedGrotesk-Regular-2212-2" data-name="SchibstedGrotesk-Regular-2212" class="cls-7" d="m27.14,217.02v-.76h4.98v.76h-4.98Z"/>
              <path id="SchibstedGrotesk-Regular-37" class="cls-7" d="m34.03,219.96c.26-1.21.63-2.32,1.12-3.34.49-1.01,1.1-1.99,1.83-2.94h-3.91v-.75h4.78v.66c-.33.5-.65,1-.94,1.5-.29.5-.56,1.01-.8,1.53-.24.52-.45,1.06-.63,1.61-.18.55-.31,1.13-.41,1.73h-1.04Z"/>
              <path id="SchibstedGrotesk-Regular-30-5" data-name="SchibstedGrotesk-Regular-30" class="cls-7" d="m41.17,220.08c-.81,0-1.44-.32-1.89-.95-.45-.64-.67-1.53-.67-2.68s.22-2.04.67-2.68c.45-.64,1.08-.95,1.89-.95s1.45.32,1.9.95c.45.64.67,1.53.67,2.68s-.22,2.04-.67,2.68c-.45.64-1.08.95-1.9.95Zm0-.7c.54,0,.95-.25,1.23-.75.28-.5.42-1.23.42-2.18s-.14-1.68-.42-2.18c-.28-.5-.68-.75-1.23-.75s-.95.25-1.23.75c-.28.5-.42,1.23-.42,2.18s.14,1.68.42,2.18c.28.5.69.75,1.23.75Z"/>
            </g>
          </g>
        </g>
        <g id="ytick_3" data-name="ytick 3">
          <g id="text_7" data-name="text 7">
            <g>
              <path id="SchibstedGrotesk-Regular-2212-3" data-name="SchibstedGrotesk-Regular-2212" class="cls-7" d="m26.51,188.18v-.76h4.98v.76h-4.98Z"/>
              <path id="SchibstedGrotesk-Regular-36" class="cls-7" d="m35.25,191.23c-.85,0-1.5-.31-1.94-.94-.44-.63-.66-1.48-.66-2.55,0-.53.05-1.02.16-1.48.11-.46.27-.86.49-1.2.22-.34.5-.61.83-.81.33-.19.72-.29,1.17-.29s.86.1,1.2.29c.34.19.61.43.8.72.2.29.31.58.34.87l-.89.23c-.02-.42-.16-.76-.41-1.02-.25-.26-.6-.39-1.03-.39-.33,0-.6.07-.82.22-.22.14-.39.33-.53.57-.13.23-.23.49-.3.77s-.11.55-.13.83c-.02.27-.03.52-.03.74l-.08-.08c.14-.32.36-.6.68-.85.32-.25.73-.37,1.24-.37.41,0,.79.09,1.13.28s.62.45.83.81.31.78.31,1.29-.1.9-.3,1.26c-.2.36-.48.63-.83.83s-.78.29-1.25.29Zm0-.7c.48,0,.85-.15,1.11-.45.26-.3.39-.71.39-1.23s-.13-.93-.39-1.22c-.26-.29-.62-.44-1.08-.44s-.86.15-1.15.45c-.29.3-.44.71-.44,1.23s.14.91.42,1.21c.28.3.66.45,1.14.45Z"/>
              <path id="SchibstedGrotesk-Regular-30-6" data-name="SchibstedGrotesk-Regular-30" class="cls-7" d="m41.17,191.23c-.81,0-1.44-.32-1.89-.95-.45-.64-.67-1.53-.67-2.68s.22-2.04.67-2.68c.45-.64,1.08-.95,1.89-.95s1.45.32,1.9.95c.45.64.67,1.53.67,2.68s-.22,2.04-.67,2.68c-.45.64-1.08.95-1.9.95Zm0-.7c.54,0,.95-.25,1.23-.75.28-.5.42-1.23.42-2.18s-.14-1.68-.42-2.18c-.28-.5-.68-.75-1.23-.75s-.95.25-1.23.75c-.28.5-.42,1.23-.42,2.18s.14,1.68.42,2.18c.28.5.69.75,1.23.75Z"/>
            </g>
          </g>
        </g>
        <g id="ytick_4" data-name="ytick 4">
          <g id="text_8" data-name="text 8">
            <g>
              <path id="SchibstedGrotesk-Regular-2212-4" data-name="SchibstedGrotesk-Regular-2212" class="cls-7" d="m26.65,159.34v-.76h4.98v.76h-4.98Z"/>
              <path id="SchibstedGrotesk-Regular-35" class="cls-7" d="m35.25,162.39c-.41,0-.8-.08-1.17-.25-.37-.17-.68-.41-.93-.74-.25-.32-.39-.72-.44-1.19l.89-.28c.04.49.19.91.45,1.25.27.34.65.5,1.17.5.32,0,.59-.08.83-.23.24-.15.43-.36.56-.63.14-.27.21-.57.21-.92,0-.53-.15-.93-.45-1.21-.3-.28-.67-.42-1.12-.42-.39,0-.7.1-.93.3s-.39.42-.49.66l-.85-.09.28-3.92h4.02v.75h-3.3l-.19,2.66-.24-.02c.18-.3.42-.55.73-.76s.69-.31,1.14-.31.82.1,1.16.29c.34.19.61.47.81.82.2.35.3.75.3,1.21,0,.51-.11.95-.34,1.33-.23.38-.53.67-.9.87-.37.21-.78.31-1.22.31Z"/>
              <path id="SchibstedGrotesk-Regular-30-7" data-name="SchibstedGrotesk-Regular-30" class="cls-7" d="m41.17,162.39c-.81,0-1.44-.32-1.89-.95-.45-.64-.67-1.53-.67-2.68s.22-2.04.67-2.68c.45-.64,1.08-.95,1.89-.95s1.45.32,1.9.95c.45.64.67,1.53.67,2.68s-.22,2.04-.67,2.68c-.45.64-1.08.95-1.9.95Zm0-.7c.54,0,.95-.25,1.23-.75.28-.5.42-1.23.42-2.18s-.14-1.68-.42-2.18c-.28-.5-.68-.75-1.23-.75s-.95.25-1.23.75c-.28.5-.42,1.23-.42,2.18s.14,1.68.42,2.18c.28.5.69.75,1.23.75Z"/>
            </g>
          </g>
        </g>
        <g id="ytick_5" data-name="ytick 5">
          <g id="text_9" data-name="text 9">
            <g>
              <path id="SchibstedGrotesk-Regular-2212-5" data-name="SchibstedGrotesk-Regular-2212" class="cls-7" d="m26.61,130.49v-.76h4.98v.76h-4.98Z"/>
              <path id="SchibstedGrotesk-Regular-34-2" data-name="SchibstedGrotesk-Regular-34" class="cls-7" d="m36.15,133.43v-2.33h.01v-4.16l.21.47-3.12,3.7-.29-.25h4.86v.75h-5.25v-.84l3.71-4.38h.73v7.03h-.86Z"/>
              <path id="SchibstedGrotesk-Regular-30-8" data-name="SchibstedGrotesk-Regular-30" class="cls-7" d="m41.17,133.55c-.81,0-1.44-.32-1.89-.95-.45-.64-.67-1.53-.67-2.68s.22-2.04.67-2.68c.45-.64,1.08-.95,1.89-.95s1.45.32,1.9.95c.45.64.67,1.53.67,2.68s-.22,2.04-.67,2.68c-.45.64-1.08.95-1.9.95Zm0-.7c.54,0,.95-.25,1.23-.75.28-.5.42-1.23.42-2.18s-.14-1.68-.42-2.18c-.28-.5-.68-.75-1.23-.75s-.95.25-1.23.75c-.28.5-.42,1.23-.42,2.18s.14,1.68.42,2.18c.28.5.69.75,1.23.75Z"/>
            </g>
          </g>
        </g>
        <g id="ytick_6" data-name="ytick 6">
          <g id="text_10" data-name="text 10">
            <g>
              <path id="SchibstedGrotesk-Regular-2212-6" data-name="SchibstedGrotesk-Regular-2212" class="cls-7" d="m26.7,101.65v-.76h4.98v.76h-4.98Z"/>
              <path id="SchibstedGrotesk-Regular-33-2" data-name="SchibstedGrotesk-Regular-33" class="cls-7" d="m35.25,104.71c-.44,0-.84-.08-1.21-.25-.37-.17-.67-.42-.91-.74-.24-.32-.38-.72-.42-1.19l.89-.28c.04.52.19.95.48,1.27.28.32.67.49,1.16.49.44,0,.8-.13,1.1-.38.29-.26.44-.63.44-1.11,0-.19-.04-.39-.12-.6-.08-.21-.22-.39-.43-.54-.21-.15-.5-.23-.87-.23h-.97v-.74h.89c.41,0,.73-.11.95-.33.22-.22.33-.47.33-.75,0-.33-.11-.6-.34-.83-.23-.23-.55-.35-.97-.35-.51,0-.89.15-1.13.44-.24.29-.38.7-.41,1.22l-.89-.28c.02-.34.13-.66.34-.98.21-.32.49-.58.85-.79.36-.21.79-.31,1.28-.31.4,0,.76.08,1.09.23s.59.37.78.64c.19.27.29.58.29.94,0,.23-.05.45-.15.65-.1.2-.24.37-.44.5-.19.14-.44.24-.74.31.49.09.88.3,1.17.63.29.33.43.71.43,1.14,0,.39-.07.73-.21,1.01s-.33.51-.56.69c-.23.18-.5.31-.79.39-.29.08-.59.13-.89.13Z"/>
              <path id="SchibstedGrotesk-Regular-30-9" data-name="SchibstedGrotesk-Regular-30" class="cls-7" d="m41.17,104.71c-.81,0-1.44-.32-1.89-.95-.45-.64-.67-1.53-.67-2.68s.22-2.04.67-2.68c.45-.64,1.08-.95,1.89-.95s1.45.32,1.9.95c.45.64.67,1.53.67,2.68s-.22,2.04-.67,2.68c-.45.64-1.08.95-1.9.95Zm0-.7c.54,0,.95-.25,1.23-.75.28-.5.42-1.23.42-2.18s-.14-1.68-.42-2.18c-.28-.5-.68-.75-1.23-.75s-.95.25-1.23.75c-.28.5-.42,1.23-.42,2.18s.14,1.68.42,2.18c.28.5.69.75,1.23.75Z"/>
            </g>
          </g>
        </g>
        <g id="ytick_7" data-name="ytick 7">
          <g id="text_11" data-name="text 11">
            <g>
              <path id="SchibstedGrotesk-Regular-2212-7" data-name="SchibstedGrotesk-Regular-2212" class="cls-7" d="m26.73,72.81v-.76h4.98v.76h-4.98Z"/>
              <path id="SchibstedGrotesk-Regular-32-2" data-name="SchibstedGrotesk-Regular-32" class="cls-7" d="m32.73,75.75v-.58l2.47-2.09c.34-.29.61-.55.82-.78.21-.23.37-.47.47-.71.1-.24.15-.51.15-.81,0-.32-.06-.59-.17-.81s-.27-.38-.49-.5-.47-.17-.78-.17c-.35,0-.63.07-.85.21s-.38.33-.48.56c-.11.23-.17.5-.19.79l-.94-.29c.02-.31.13-.62.34-.92.21-.3.49-.55.85-.75.36-.2.78-.3,1.26-.3.27,0,.55.04.83.12.28.08.53.2.76.37.23.17.42.39.56.67s.21.61.21,1c0,.56-.15,1.05-.45,1.49-.3.44-.73.88-1.27,1.32l-1.91,1.55-.62-.12h4.39v.75h-4.98Z"/>
              <path id="SchibstedGrotesk-Regular-30-10" data-name="SchibstedGrotesk-Regular-30" class="cls-7" d="m41.17,75.86c-.81,0-1.44-.32-1.89-.95-.45-.64-.67-1.53-.67-2.68s.22-2.04.67-2.68c.45-.64,1.08-.95,1.89-.95s1.45.32,1.9.95c.45.64.67,1.53.67,2.68s-.22,2.04-.67,2.68c-.45.64-1.08.95-1.9.95Zm0-.7c.54,0,.95-.25,1.23-.75.28-.5.42-1.23.42-2.18s-.14-1.68-.42-2.18c-.28-.5-.68-.75-1.23-.75s-.95.25-1.23.75c-.28.5-.42,1.23-.42,2.18s.14,1.68.42,2.18c.28.5.69.75,1.23.75Z"/>
            </g>
          </g>
        </g>
        <g id="ytick_8" data-name="ytick 8">
          <g id="text_12" data-name="text 12">
            <g>
              <path id="SchibstedGrotesk-Regular-2212-8" data-name="SchibstedGrotesk-Regular-2212" class="cls-7" d="m29.02,43.97v-.76h4.98v.76h-4.98Z"/>
              <path id="SchibstedGrotesk-Regular-31-4" data-name="SchibstedGrotesk-Regular-31" class="cls-7" d="m36.45,46.9v-5.6c-.26.22-.5.41-.72.56-.23.15-.48.28-.75.38v-.83c.14-.07.29-.15.45-.25.16-.1.34-.25.54-.45.2-.2.44-.48.71-.83h.63v7.03h-.86Z"/>
              <path id="SchibstedGrotesk-Regular-30-11" data-name="SchibstedGrotesk-Regular-30" class="cls-7" d="m41.17,47.02c-.81,0-1.44-.32-1.89-.95-.45-.64-.67-1.53-.67-2.68s.22-2.04.67-2.68c.45-.64,1.08-.95,1.89-.95s1.45.32,1.9.95c.45.64.67,1.53.67,2.68s-.22,2.04-.67,2.68c-.45.64-1.08.95-1.9.95Zm0-.7c.54,0,.95-.25,1.23-.75.28-.5.42-1.23.42-2.18s-.14-1.68-.42-2.18c-.28-.5-.68-.75-1.23-.75s-.95.25-1.23.75c-.28.5-.42,1.23-.42,2.18s.14,1.68.42,2.18c.28.5.69.75,1.23.75Z"/>
            </g>
          </g>
        </g>
        <g id="ytick_9" data-name="ytick 9">
          <g id="text_13" data-name="text 13">
            <path id="SchibstedGrotesk-Regular-30-12" data-name="SchibstedGrotesk-Regular-30" class="cls-7" d="m41.17,18.18c-.81,0-1.44-.32-1.89-.95-.45-.64-.67-1.53-.67-2.68s.22-2.04.67-2.68c.45-.64,1.08-.95,1.89-.95s1.45.32,1.9.95c.45.64.67,1.53.67,2.68s-.22,2.04-.67,2.68c-.45.64-1.08.95-1.9.95Zm0-.7c.54,0,.95-.25,1.23-.75.28-.5.42-1.23.42-2.18s-.14-1.68-.42-2.18c-.28-.5-.68-.75-1.23-.75s-.95.25-1.23.75c-.28.5-.42,1.23-.42,2.18s.14,1.68.42,2.18c.28.5.69.75,1.23.75Z"/>
          </g>
        </g>
        <g id="text_14" data-name="text 14">
          <g>
            <path id="SchibstedGrotesk-Regular-4d" class="cls-7" d="m19.39,170.96l-8.44-.47v-1.73l7.68-2.39v.23l-7.68-2.4v-1.73l8.44-.47v1.02l-7.64.41v-.02l7.64,2.48v1.17l-7.64,2.49v-.02l7.64.41v1.02Z"/>
            <path id="SchibstedGrotesk-Regular-61" class="cls-7" d="m19.53,158.69c0,.42-.08.79-.24,1.1-.16.31-.38.55-.67.72-.28.17-.6.25-.96.25-.38,0-.73-.11-1.05-.33-.32-.22-.58-.57-.77-1.03-.19-.47-.29-1.07-.29-1.8v-1.06l.1.1h-.34c-.51,0-.9.1-1.17.31-.27.2-.41.54-.41,1.02,0,.45.12.79.35,1.04.23.24.54.37.94.39l-.25,1.11c-.34-.04-.65-.17-.93-.39-.28-.22-.5-.53-.67-.9-.17-.38-.25-.81-.25-1.31s.1-.93.29-1.25c.19-.32.47-.56.83-.71s.8-.23,1.31-.23h2.89c.13,0,.21-.02.26-.05.04-.04.06-.12.06-.24v-.36h.82v.63c0,.26-.08.49-.25.67-.17.18-.38.27-.63.27h-.44v-.15c.16.06.33.15.5.27.17.12.33.26.47.44s.26.39.35.64c.09.25.13.53.13.86Zm-.82-.22c0-.32-.08-.62-.24-.9-.16-.28-.41-.5-.75-.67-.34-.17-.79-.25-1.33-.25h-.05v.99c0,.52.07.93.2,1.23s.3.51.51.64.4.19.6.19.38-.04.54-.13.29-.22.38-.4c.09-.18.14-.4.14-.67Z"/>
            <path id="SchibstedGrotesk-Regular-67" class="cls-7" d="m21.82,151.47c0,.94-.13,1.63-.4,2.08-.26.45-.67.67-1.22.67-.31,0-.59-.08-.84-.24-.25-.16-.44-.44-.57-.83-.09.15-.21.27-.36.36-.15.09-.31.14-.5.14-.22,0-.41-.07-.59-.2-.17-.14-.3-.33-.37-.59-.18.31-.43.56-.75.73-.31.17-.68.26-1.1.26-.45,0-.84-.1-1.17-.3-.33-.2-.59-.49-.76-.86-.18-.37-.27-.82-.27-1.33s.09-.96.27-1.34c.18-.38.43-.67.77-.87s.73-.31,1.18-.31.84.1,1.16.31.58.5.76.88.27.83.27,1.35v.55c0,.49.15.74.44.74s.42-.24.42-.71v-1.27c0-.5.06-.9.17-1.21.12-.31.26-.54.44-.7.18-.16.38-.27.59-.33s.41-.09.6-.09c.62,0,1.08.22,1.38.67.3.45.45,1.15.45,2.09v.36Zm-.79,0v-.36c0-1.16-.35-1.75-1.04-1.75-.29,0-.52.1-.71.31s-.28.57-.28,1.07v1.09c0,.39.08.72.24.98.16.26.42.39.77.39s.6-.14.76-.42c.17-.28.25-.72.25-1.31Zm-4.39-.12c0-.5-.13-.88-.38-1.14-.26-.27-.63-.4-1.11-.4s-.85.13-1.12.4c-.27.26-.4.65-.4,1.14s.13.87.4,1.13c.26.26.64.39,1.12.39s.86-.13,1.11-.39c.25-.26.38-.64.38-1.13Zm-3.05-1.04h-.63c-.25,0-.46-.09-.63-.28s-.25-.41-.25-.66v-.76h.82v.63c0,.12.02.2.07.24.04.04.13.06.26.06h.36v.78Z"/>
            <path id="SchibstedGrotesk-Regular-6e-2" data-name="SchibstedGrotesk-Regular-6e" class="cls-7" d="m19.39,147.04h-6.33v-.93h1.43l-.26.04c-.36-.17-.67-.43-.93-.8-.26-.36-.38-.81-.38-1.33,0-.45.1-.83.3-1.16.2-.32.48-.58.85-.75.37-.18.81-.26,1.33-.26h3.98v.98h-3.91c-.52,0-.94.11-1.26.32-.32.21-.48.56-.48,1.05,0,.53.2.97.6,1.32.4.35.98.52,1.74.52h3.31v.98Z"/>
            <path id="SchibstedGrotesk-Regular-69" class="cls-7" d="m19.39,140.06h-6.33v-.98h6.33v.98Zm-7.39-.49c0,.23-.08.42-.24.58-.16.16-.35.24-.58.24s-.43-.08-.58-.24c-.16-.16-.24-.35-.24-.58s.08-.42.24-.58c.16-.16.35-.24.58-.24s.42.08.58.24c.16.16.24.35.24.58Z"/>
            <path id="SchibstedGrotesk-Regular-74" class="cls-7" d="m19.39,135.81c0,.25-.08.47-.25.66-.17.19-.38.28-.63.28h-4.63v1.02h-.82v-1.02h-1.32l-.21-.98h1.54v-1.25h.82v1.25h4.37c.13,0,.21-.02.26-.06s.06-.12.06-.24v-.97h.82v1.31Z"/>
            <path id="SchibstedGrotesk-Regular-75-2" data-name="SchibstedGrotesk-Regular-75" class="cls-7" d="m19.53,131.04c0,.44-.1.82-.3,1.15-.2.32-.49.57-.86.75-.37.18-.81.26-1.33.26h-3.98v-.98h3.91c.52,0,.94-.1,1.26-.29.32-.19.48-.55.48-1.06,0-.38-.1-.71-.29-.98s-.49-.49-.88-.65c-.39-.15-.88-.23-1.47-.23h-3.01v-.98h6.33v.92h-1.49l.26-.04c.39.16.72.43.98.79.26.37.39.81.39,1.34Z"/>
            <path id="SchibstedGrotesk-Regular-64" class="cls-7" d="m19.53,123.97c0,.51-.13.96-.4,1.36-.27.39-.65.7-1.15.92-.5.22-1.08.33-1.76.33s-1.26-.11-1.75-.33c-.49-.22-.88-.53-1.14-.92-.27-.39-.4-.84-.4-1.35,0-.41.1-.82.31-1.23.21-.41.56-.71,1.05-.92l.05.11h-3.73v-.98h8.79v.93h-1.32l.09-.03c.46.17.8.46,1.03.85.22.4.34.82.34,1.27Zm-.82-.26c0-.33-.09-.63-.26-.91-.17-.27-.44-.49-.81-.66-.36-.16-.83-.25-1.4-.25-.85,0-1.48.18-1.89.53s-.61.77-.61,1.27c0,.52.22.95.65,1.29.43.34,1.05.5,1.85.5s1.39-.16,1.82-.49c.43-.32.65-.76.65-1.3Z"/>
            <path id="SchibstedGrotesk-Regular-65-3" data-name="SchibstedGrotesk-Regular-65" class="cls-7" d="m19.53,116.47c0,.6-.13,1.12-.4,1.56-.27.44-.65.78-1.15,1.02-.49.24-1.08.36-1.75.36s-1.26-.12-1.76-.36c-.5-.24-.88-.58-1.15-1.01-.27-.43-.4-.94-.4-1.53,0-.34.05-.67.16-1.01.11-.34.29-.65.56-.93.26-.28.62-.5,1.08-.67.46-.17,1.04-.25,1.74-.25v5.13h-.8v-4.27l.37.28c-.55.02-1,.11-1.33.27-.34.16-.58.37-.73.62-.15.25-.23.54-.23.85,0,.37.1.69.29.96.19.27.48.48.85.62.37.14.82.22,1.36.22.79,0,1.4-.16,1.83-.48.43-.32.64-.78.64-1.37,0-.43-.11-.78-.32-1.07-.22-.29-.53-.51-.93-.64l.33-.97c.37.15.68.35.94.61.26.25.46.56.6.91.14.35.21.74.21,1.17Z"/>
            <path id="SchibstedGrotesk-Regular-28-2" data-name="SchibstedGrotesk-Regular-28" class="cls-7" d="m21.37,107.68c-.77.61-1.61,1.06-2.53,1.38-.91.31-1.86.47-2.85.47s-1.93-.16-2.85-.47c-.91-.31-1.76-.77-2.54-1.37v-1.04c.9.67,1.77,1.16,2.63,1.48.86.31,1.78.47,2.76.47s1.93-.15,2.78-.46c.85-.3,1.72-.8,2.59-1.49v1.04Z"/>
            <path id="SchibstedGrotesk-Regular-64-2" data-name="SchibstedGrotesk-Regular-64" class="cls-7" d="m19.53,103.27c0,.51-.13.96-.4,1.36-.27.39-.65.7-1.15.92-.5.22-1.08.33-1.76.33s-1.26-.11-1.75-.33c-.49-.22-.88-.53-1.14-.92-.27-.39-.4-.84-.4-1.35,0-.41.1-.82.31-1.23.21-.41.56-.71,1.05-.92l.05.11h-3.73v-.98h8.79v.93h-1.32l.09-.03c.46.17.8.46,1.03.85.22.4.34.82.34,1.27Zm-.82-.26c0-.33-.09-.63-.26-.91-.17-.27-.44-.49-.81-.66-.36-.16-.83-.25-1.4-.25-.85,0-1.48.18-1.89.53s-.61.77-.61,1.27c0,.52.22.95.65,1.29.43.34,1.05.5,1.85.5s1.39-.16,1.82-.49c.43-.32.65-.76.65-1.3Z"/>
            <path id="SchibstedGrotesk-Regular-42" class="cls-7" d="m19.39,98.33h-8.44v-3.22c0-.82.17-1.48.51-1.98.34-.5.83-.74,1.48-.74.4,0,.73.09.99.26.26.17.47.4.61.68.14.28.23.56.27.87l-.02-.02c.1-.62.34-1.12.73-1.52.38-.4.92-.59,1.6-.59.56,0,1,.13,1.33.39.33.26.57.6.72,1.03.14.43.22.9.22,1.41v3.43Zm-.87-1.05v-2.37c0-.46-.08-.81-.24-1.07-.16-.26-.36-.44-.61-.54-.25-.1-.5-.16-.77-.16-.38,0-.69.09-.94.26-.25.17-.43.42-.55.74s-.18.7-.18,1.14v2h3.28Zm-4.15,0v-2.11c0-.46-.1-.86-.3-1.18-.2-.33-.53-.49-.99-.49-.37,0-.67.13-.91.38-.24.25-.36.66-.36,1.24v2.17h2.56Z"/>
            <path id="SchibstedGrotesk-Regular-29-2" data-name="SchibstedGrotesk-Regular-29" class="cls-7" d="m21.37,91.28c-.88-.69-1.74-1.19-2.59-1.49-.86-.3-1.78-.46-2.78-.46s-1.9.16-2.76.47c-.86.31-1.73.81-2.63,1.48v-1.04c.78-.6,1.63-1.06,2.54-1.37.91-.31,1.86-.47,2.85-.47s1.94.16,2.85.47c.91.31,1.75.77,2.53,1.38v1.04Z"/>
          </g>
        </g>
      </g>
      <g id="line2d_75" data-name="line2d 75">
        <g>
          <g class="cls-24">
            <path class="cls-4" d="m58.27,122.61l66.02-26.63,38.62-25.71,27.4-12.56,21.25-6.58,17.37-6.3,14.68-8.74,23.94-16.06,10.04-3.94,9.08-1.04,8.29,2.74,7.62,5.21,7.06,6.57,6.57,4.23,6.15,3.58,5.77,10.85,5.44,97.47,5.15-104.06,4.89-16.67,4.65-5.08,4.43,2.34,4.23,7,4.05,3.42,3.89-4.73,3.74-5.46,3.59-.08,3.46,10.52,3.34,42.86,3.23-22.01,3.12-4.32,3.02-10.82,2.93-15.04,2.84-7,2.76-1.53,2.68,3.22,2.61,6.38,2.54-4,2.47-4.51,2.41,6.73,2.35,22.51,2.3-7.93,2.24-6.13,2.19,5.14,2.14-6.59,2.09-11.33,2.05-4.14,2.01,3.02,1.96,9.46,1.92,4.4,1.89-1.51,1.85,5.23,1.81,16.01,1.78,43.09,1.75-21.77,1.72-9.42,1.69,19.37,1.66-11.01,1.63-23.04,1.6-3.78,1.57,8.48,1.55,7.2,1.52-8.76,1.5-5.12,1.48-.49,1.45,4.45,1.43-4.38,1.41-7.28,1.39,6.74,1.37,51.82,1.35-62.8,1.33-12.28,1.31-1.18,1.3,8.07,1.28,30.41,1.26-14.84,1.25-19.23,1.23.04,1.21,19.21,1.2-7.12,1.18-14.96,1.17,1.95,1.15,17.13,1.14,12.46,1.13-19.49,1.11-3.83,1.1,5.69,1.09,15.17,1.08,11.81,1.06-2.26,1.05,1.61,1.04-2.79,1.03-.76,2.03,9.66,1-.55.99-4.97.98,1.57.97,10.7.96,6.69.95-2.48.94,13.9.93,18.82.92-21.93.91-6.67.9-4.27.89-.9.89,4.72.88,7.6.87,14.03.86-1.35.85-1.77.85.5.84-1.21.83-6.53.82-15.44.82-10.97.81-5.35.8-2.81.8-.18.79,5.39.78,7.13.78-5.57.77-6.75.77.76.76,12.41.75-4.16.75-20.55.74-6.81.74,2.64.73,9.34.72,4.08.72-.28.71,7.72.71,21.67.7-.23.7-11.69.69,2.48.69,10.28.68-7.59.68-3.69.67,8.84.67,18.11.66-4.08.66-11.74.65-.32.65,2.92.65-2.6.64.81,1.27,16.39.63-3.86.62-5.25.62-2.59.62,5.68.61,2.7.61-7.67.6-1.32.6,10.48.6,1.91.59-2.34.59,9.75.59,26.53.58-21.77.58-13.46.58-1.12.57,1.47.57,3.71.57-1.76.56,6.23.56,17.34,1.11-24.56.55-2.03.55,7.69.54,4.88.54-17.31.54-.52.53,20.49,1.06-28.28.52,1.76.52,18.06.52,2.4.52-22.47.51-3.58.51,12.82.51,34.98.51-41.72.5-5.41.5,11.36.5,16.37.49-20.69.49-7.66.49.82.49,9.53.48,35.9.48-25.99.48-9.7.48,9.26.48,35.04.94-12.8.47,24.42.47,6.18.46-35.84.46-9.05.46,3.09.46,11.42.45-10.53.45-2.71.9,34.21.45-33.01.44-8.76.44,1.18.44,5.23.44-3.14.44-5.4.43,2.23.43,13.84.43-1.43.43-8.84.43-2.72.42,10.25.42,6.71.42-18.58.42-9.93.42,1.54.83,4.51.41,10.95.41,17.75.41-16.03.41-6.95.4-.1.4,6.22.4-1.28.4.9.4,2.27.4,3.28.39,6.8.39,18.4.39,35.15.39-37.28.39-16.57.39-2.01.38,18.56.38,7.83.38-26.64.38-2.27.38,9.1.38,15.53.38-12.26.37-6.51.37,4.71.37,31.65.37-27.46.37-10.42.37,4.63.37,37.24.36-30.49.36-12.51.36-3.33.36,4.34.36.43.36,6.9.36,19.27.35-6.07.35-19.51.35,1.65.35,7.09.35,20.1.35-7.71.35-12.71.35.67.34,9.35.69,29.33.34,6.48.34,21.88.34-9.73.34.87.34-2.8.33-6.63.33,1.25.33,1.68.99,32.83.65-23.83.33-4.92.32-1.14.32,3.33.32,11.09.32,2.42.32,9.99.32-13.67.32-4.65.32,11.19.32,6.85.31-.55.63-16.67.31,1.78.31-4.38.31,11.78.31,18.11.31,5.96.31-20.36.31-10,.3-5.02.3,7.58.3,1.65.3-13.89.3,7.14.3,26.33.3-7.35.3-20.39.3-9.6.3,14.09.3,21.63.29-19.98.29-3.41.29,3.09.29-5.65.29,17.93.29,38.79.29-49.24.29,5.99.57-23.77.29,7.51.28,24.95.28-15.12.28,3.29.28,12.6.28-31.98.28-5.89.28.88.56,20.67.28-29.04.28-5.65.28,3.92.55-7.14.27,7.91.27,35.86.54-48.38.27-5.16.27,3.84.27-.92.27,9.2.27,16.15.27-43.38.27-12.06.26,1.95.26,14.59.26,1.34.26-11.23.26,6.5.26,9.66.26-13.75.26-6.13.52,20.1.51-24.93.26,3.6.26,19.78.26,41.63.25-38.23.25-1.34.25-4.73.25-1.16.25-4.74.25-1.31.5,46.02.25-35.33.25-4.91.25,8.56.49,38.82.25-14.64.25-3.32.49-27.23.24-1.04.24,14.27.48,34.92.24-20.04.24,7.72.48-19.37.24-6.12.24,9.41.24,1.73.24-18.3.24-3.1.24,6,.47,20.28.23-18.6.23,1.01.23,5.89.23-3.11.23-.61.23,8.9.23,39.86.23-37.99.23-15.11.23-7.15.68,11.56.23,13.39.45-28.01.22,2.71.22,7.91.22-3.3.22,11.27.22,24.64.22-27.98.22-5.02.22,9.66.22,21.66.44-29.9.22,9.08.44-19.98.22.91.43,6.71.22,6.5.22,20.76.22-31.76.21-1.07.21,18.69.21,5.2.21-26.2.21,5.53.21,19.52.21,3.89.21-11.36.21,2.39.21-8.48.21.26.42-28.55.21-.12.21,10.75.21,30.39.21-28.7.21-11.14.21.7.21,5.97.41,41.63.41-21.55.41-4.61.2,1.63.2-2.34.4-21.72.2-2.52.2,12.06.2,20.52.2-14.62.2-3.04.2,11.95.2,40.19.2-40.38.2,5.8.2,44.4.2-56.11.2-9.86.39,11.83.2,8.87.19,14.42.39-28.17.19.19.19,5.99.19,29,.38-31.31.38-4.17.38,3.11.19,5.91.38-12.62.19-7.65.38,22.74.19,6.32.19-6.19.19,2.02.37,8.57.19-17.85.19-4.61.19,19.62.19,6.59.18-27.15.18.97.18,8,.37-13.68.18,7.89.18,18.62.18,4.62.18-27.62.18-1,.18,2.41.18,4.11.18,17.46.18,40.13.18-45.23.36-17.93.18-2.29.18,20.33.18-5.95.18-10.95.18-.86.18,19.12.18-.8.18-24.02.18-2.78.35,23.46.18-10.66.17,2.84.17,31.21.35-37.79.17,2.91.17,18.58.52-28.78.17,6.74.34-4.2.17,13.56.17-5.81.17-11.37.17-1.43.17,8.8.34,26.24.34-21.86.17.52.34-4.22.33,14.1.17,104.08.17-106.42.17-3.49.17,7.3.17-.6.17,1.55.17.08.49-10.33.33,26.62.16-23.62.16-6.17.33,11.67.16-9.11.16,1.26.32,40.22.16-43.79.16-9.34.16,1.42.32,21.74.16-14.03.16.75.16,29.03.32-40.16.32,44.06.16-28.96.16-5.18.31,16,.31-21.57.16,9.61.16,23.72.16-34.65.16-6.89.47,46.87.15-23.15.15,1.44.15,23.96.31-18.85.15,2.41.15-.2.15,10.75.15,33.47.15-39.29.15-5.88.15,1.89.15-1.23.15,28.5.45-37.18.15,23.72.15-7.16.3-24.43.15,8.65.15,27.54.3-24.36.15,8.08.15,14.77.3-11.14.15,1.02.29,40.53.15-37.45.15.11.29,12.98.15-.66.44-13.07.15-3.08.15,1.36.29,11.71.14,7.69.14,27.6.14,4.89.14-18.07.14,10.55.14,20.85.29-29.91.29,11.17.14-20.41.14,1.92.14,10.12.14-12.53.14,3.46.28-7.06.14,2.57.28,16.59.14-11.18.14-1.89.14.88.42,7.19.14-9.65.14-1.56.28,9.89.14-.55.28-6.6.14,18.4.14-4.22.14-14.54.14,13.14.14,1.97.14,6.1.14,12.07.27-7.38.14,1.8.27,33.17.14-32.51.14-5.18.27,10.88.13,1.97.13,7.64.13-5.57.13-16.43.13,1.47.13-.25.4-24.37.27,12.25.13-15.36.13,12.2.13-4.36.13,2.01.13,7.7.13-2.85.26,8.43.13,32.02.13-15.84.13,4.62.13,29.36.13.48.13-1.79.39-23.98.26-6.64.26,18.44.06,31.81m.15,0l.18-37.92.13,6.19.13.37.13,6.38.13,18.24.13,1.72.25-28.69.13-.36.13,10.69.1,23.38m.06,0l.23-36.06.13-.54.25-2.84.13,9.8.13,27.97.25-45.73.12-3.45.12,2.81.25,20.49.14,27.56m.22,0l.14-28.88.25-19.16.12-2.54.12,2.58.12,10.85.12,27.19.25-27.75.12-2.05.12,3.97.12-1.49.12,7.14.09,30.13m.08,0l.2-35.52.12.42.36,29.13.12-1.4.36-34.05.12-.71.24,8.66.36-15.79.24-5.15.12,1.46.63,52.95m.16,0l.03-4.12.04,4.12m.31,0l.23-31.05.23-7.35.12,2.35.23,17.41.06,18.62m.28,0v-1.72s.08,1.72.08,1.72m.69,0l.17-37.31.11-3.96.11,4.48.23,23.79.23-29.72.23,8.23.11-2.4.11-6.29.23,8.47.31,34.71m4.36,0l.29-38.64.11-1.03.11,2.96.3,36.71m1.66,0l.37-40.12.1,3.14.21,24.65.09,12.33m.05,0l.06-2.68.02,2.68"/>
          </g>
          <rect class="cls-3" x="51.23" y="14.4" width="657.97" height="230.74"/>
        </g>
      </g>
      <g id="patch_3" data-name="patch 3">
        <path class="cls-6" d="m51.23,245.14V14.4"/>
      </g>
      <g id="patch_4" data-name="patch 4">
        <path class="cls-6" d="m51.23,245.14h657.97"/>
      </g>
    </g>
  </g>
</svg>