<?xml version="1.0" encoding="utf-8"?>
<!-- Generator: Adobe Illustrator 27.4.1, SVG Export Plug-In . SVG Version: 6.00 Build 0)  -->
<svg version="1.1" id="Ebene_1" xmlns="http://www.w3.org/2000/svg" xmlns:xlink="http://www.w3.org/1999/xlink" x="0px" y="0px"
	 viewBox="0 0 720 288" style="enable-background:new 0 0 720 288;" xml:space="preserve">
<style type="text/css">
	.st0{fill:none;}
	.st1{fill:none;stroke:#C9D1D9;stroke-miterlimit:10;}
	.st2{fill:#C9D1D9;}
	.st3{clip-path:url(#SVGID_00000155834370826578841760000006641045809219381382_);}
	.st4{stroke:#C9D1D9;stroke-width:0.6;stroke-linejoin:round;}
	.st5{clip-path:url(#SVGID_00000011711599904198575720000010453828833012388513_);}
	.st6{fill:none;stroke:#C9D1D9;stroke-width:0.6;stroke-linejoin:round;}
	.st7{clip-path:url(#SVGID_00000012470443714862500770000004000039899819942279_);}
	.st8{clip-path:url(#SVGID_00000067958375238583630580000016083364223675638942_);}
	.st9{clip-path:url(#SVGID_00000180355609401213054620000017402606988047606667_);}
	.st10{clip-path:url(#SVGID_00000131326541146123304910000002344166160470353050_);}
	.st11{clip-path:url(#SVGID_00000003065709573754040440000013506673497688182410_);}
	.st12{clip-path:url(#SVGID_00000049909270061679734770000007949946700476673717_);}
	.st13{clip-path:url(#SVGID_00000109746686458426575660000014533599119301749182_);}
	.st14{clip-path:url(#SVGID_00000134960778448075683190000015920748901390088596_);}
	.st15{clip-path:url(#SVGID_00000130624048799535788540000017141891507963787921_);}
	.st16{clip-path:url(#SVGID_00000124152494540863758180000003460269188049088953_);}
	.st17{clip-path:url(#SVGID_00000183967001438872080730000001103618510926807732_);}
	.st18{clip-path:url(#SVGID_00000000189334078282467910000006330074733996955039_);}
	.st19{clip-path:url(#SVGID_00000102510503116651095380000016974828853431559590_);}
	.st20{clip-path:url(#SVGID_00000044172031074983514620000006176181106312469675_);}
	.st21{clip-path:url(#SVGID_00000104669861779114689550000016378748682454128007_);}
	.st22{clip-path:url(#SVGID_00000021119174501539471960000010258995138794112928_);}
	.st23{clip-path:url(#SVGID_00000010311430352503502710000006528810099429017216_);}
	.st24{clip-path:url(#SVGID_00000039830383893759008680000015164538574835102889_);}
	.st25{clip-path:url(#SVGID_00000113341025170412542670000011550101672977137059_);}
	.st26{clip-path:url(#SVGID_00000095311058100087994270000002945019756685254543_);}
	.st27{clip-path:url(#SVGID_00000088818080061669564870000011661662544398160574_);}
	.st28{clip-path:url(#SVGID_00000157270520186987297090000006344849858217376164_);}
	.st29{clip-path:url(#SVGID_00000155827019762003100470000014224152330602749602_);}
	.st30{clip-path:url(#SVGID_00000008849994872650708290000004487507238121015223_);}
	.st31{fill:none;stroke:#307EEF;stroke-width:2.83;stroke-linecap:square;stroke-linejoin:round;}
	.st32{fill:none;stroke:#C9D1D9;stroke-width:0.8;stroke-linecap:square;}
</style>
<g id="patch_1">
	<path class="st0" d="M0,288h720V0H0V288z"/>
</g>
<g id="patch_2">
	<path class="st1" d="M51.2,245.1h658V14.4h-658V245.1z"/>
</g>
<g id="matplotlib.axis_1">
	<g id="xtick_1">
		<g id="text_1">
			<g>
				<path id="SchibstedGrotesk-Regular-31" class="st2" d="M199.3,259.5v-5.6c-0.3,0.2-0.5,0.4-0.7,0.6c-0.2,0.1-0.5,0.3-0.8,0.4
					V254c0.1-0.1,0.3-0.1,0.4-0.2s0.3-0.2,0.5-0.4s0.4-0.5,0.7-0.8h0.6v7L199.3,259.5L199.3,259.5z"/>
				<path id="SchibstedGrotesk-Regular-30" class="st2" d="M204,259.6c-0.8,0-1.4-0.3-1.9-1c-0.4-0.6-0.7-1.5-0.7-2.7s0.2-2,0.7-2.7
					s1.1-0.9,1.9-0.9s1.4,0.3,1.9,0.9c0.4,0.6,0.7,1.5,0.7,2.7s-0.2,2-0.7,2.7C205.5,259.3,204.8,259.6,204,259.6z M204,258.9
					c0.5,0,0.9-0.2,1.2-0.8s0.4-1.2,0.4-2.2s-0.1-1.7-0.4-2.2s-0.7-0.8-1.2-0.8s-0.9,0.2-1.2,0.8s-0.4,1.2-0.4,2.2
					c0,0.9,0.1,1.7,0.4,2.2S203.5,258.9,204,258.9z"/>
				<path id="SchibstedGrotesk-Regular-32" class="st2" d="M207.4,255.8v-0.4l1.7-1.5c0.2-0.2,0.4-0.4,0.6-0.6
					c0.1-0.2,0.3-0.3,0.3-0.5s0.1-0.4,0.1-0.6c0-0.2,0-0.4-0.1-0.6s-0.2-0.3-0.3-0.4s-0.3-0.1-0.5-0.1c-0.2,0-0.4,0.1-0.6,0.1
					s-0.3,0.2-0.3,0.4c-0.1,0.2-0.1,0.4-0.1,0.6l-0.7-0.2c0-0.2,0.1-0.4,0.2-0.6c0.1-0.2,0.3-0.4,0.6-0.5c0.2-0.1,0.6-0.2,0.9-0.2
					c0.2,0,0.4,0,0.6,0.1c0.2,0.1,0.4,0.1,0.5,0.3s0.3,0.3,0.4,0.5s0.1,0.4,0.1,0.7c0,0.4-0.1,0.7-0.3,1c-0.2,0.3-0.5,0.6-0.9,0.9
					l-1.3,1.1l-0.4-0.1h3.1v0.5L207.4,255.8L207.4,255.8z"/>
			</g>
		</g>
	</g>
	<g id="xtick_2">
		<g id="text_2">
			<g>
				<path id="SchibstedGrotesk-Regular-31-2" class="st2" d="M418.6,259.5v-5.6c-0.3,0.2-0.5,0.4-0.7,0.6c-0.2,0.1-0.5,0.3-0.8,0.4
					V254c0.1-0.1,0.3-0.1,0.5-0.2s0.3-0.2,0.5-0.4s0.4-0.5,0.7-0.8h0.6v7L418.6,259.5L418.6,259.5z"/>
				<path id="SchibstedGrotesk-Regular-30-2" class="st2" d="M423.3,259.6c-0.8,0-1.4-0.3-1.9-1c-0.5-0.6-0.7-1.5-0.7-2.7
					s0.2-2,0.7-2.7s1.1-0.9,1.9-0.9s1.5,0.3,1.9,0.9c0.5,0.6,0.7,1.5,0.7,2.7s-0.2,2-0.7,2.7C424.8,259.3,424.2,259.6,423.3,259.6z
					 M423.3,258.9c0.5,0,1-0.2,1.2-0.8s0.4-1.2,0.4-2.2s-0.1-1.7-0.4-2.2s-0.7-0.8-1.2-0.8s-1,0.2-1.2,0.8s-0.4,1.2-0.4,2.2
					c0,0.9,0.1,1.7,0.4,2.2S422.8,258.9,423.3,258.9z"/>
				<path id="SchibstedGrotesk-Regular-33" class="st2" d="M428.5,255.9c-0.3,0-0.6-0.1-0.9-0.2s-0.5-0.3-0.6-0.5
					c-0.2-0.2-0.3-0.5-0.3-0.8l0.6-0.2c0,0.4,0.1,0.7,0.3,0.9c0.2,0.2,0.5,0.3,0.8,0.3c0.3,0,0.6-0.1,0.8-0.3
					c0.2-0.2,0.3-0.4,0.3-0.8c0-0.1,0-0.3-0.1-0.4c-0.1-0.1-0.1-0.3-0.3-0.4c-0.1-0.1-0.4-0.2-0.6-0.2h-0.7v-0.5h0.6
					c0.3,0,0.5-0.1,0.7-0.2s0.2-0.3,0.2-0.5c0-0.2-0.1-0.4-0.2-0.6s-0.4-0.2-0.7-0.2c-0.4,0-0.6,0.1-0.8,0.3
					c-0.2,0.2-0.3,0.5-0.3,0.9l-0.6-0.2c0-0.2,0.1-0.5,0.2-0.7c0.1-0.2,0.3-0.4,0.6-0.6c0.2-0.1,0.5-0.2,0.9-0.2
					c0.3,0,0.5,0.1,0.8,0.2s0.4,0.3,0.5,0.4s0.2,0.4,0.2,0.7c0,0.2,0,0.3-0.1,0.4c-0.1,0.1-0.2,0.3-0.3,0.4
					c-0.1,0.1-0.3,0.2-0.5,0.2c0.4,0.1,0.6,0.2,0.8,0.4s0.3,0.5,0.3,0.8c0,0.3,0,0.5-0.1,0.7s-0.2,0.4-0.4,0.5s-0.4,0.2-0.5,0.3
					C428.9,255.8,428.7,255.9,428.5,255.9L428.5,255.9z"/>
			</g>
		</g>
	</g>
	<g id="xtick_3">
		<g id="text_3">
			<g>
				<path id="SchibstedGrotesk-Regular-31-3" class="st2" d="M638,259.4v-5.6c-0.3,0.2-0.5,0.4-0.7,0.6c-0.2,0.1-0.5,0.3-0.8,0.4
					v-0.8c0.1-0.1,0.3-0.1,0.5-0.2c0.2-0.1,0.3-0.2,0.5-0.4c0.2-0.2,0.4-0.5,0.7-0.8h0.6v7L638,259.4L638,259.4z"/>
				<path id="SchibstedGrotesk-Regular-30-3" class="st2" d="M642.7,259.5c-0.8,0-1.4-0.3-1.9-1c-0.5-0.6-0.7-1.5-0.7-2.7
					s0.2-2,0.7-2.7s1.1-0.9,1.9-0.9s1.5,0.3,1.9,0.9c0.5,0.6,0.7,1.5,0.7,2.7s-0.2,2-0.7,2.7C644.1,259.2,643.5,259.5,642.7,259.5z
					 M642.7,258.8c0.5,0,1-0.2,1.2-0.8c0.3-0.5,0.4-1.2,0.4-2.2s-0.1-1.7-0.4-2.2c-0.3-0.5-0.7-0.8-1.2-0.8s-1,0.2-1.2,0.8
					c-0.3,0.5-0.4,1.2-0.4,2.2c0,1,0.1,1.7,0.4,2.2C641.7,258.5,642.1,258.8,642.7,258.8z"/>
				<path id="SchibstedGrotesk-Regular-34" class="st2" d="M648.5,255.7v-1.6l0,0v-2.9l0.2,0.3l-2.2,2.6l-0.2-0.2h3.4v0.5H646v-0.6
					l2.6-3.1h0.5v4.9H648.5L648.5,255.7z"/>
			</g>
		</g>
	</g>
	<g id="xtick_4">
		<g id="line2d_7">
			<g>
				<g>
					<defs>
						<rect id="SVGID_1_" x="51.2" y="14.4" width="658" height="230.7"/>
					</defs>
					<clipPath id="SVGID_00000055694214530861697730000012389070960504251549_">
						<use xlink:href="#SVGID_1_"  style="overflow:visible;"/>
					</clipPath>
					<g style="clip-path:url(#SVGID_00000055694214530861697730000012389070960504251549_);">
						<path class="st0" d="M51.2,245.1V14.4"/>
					</g>
				</g>
				<rect x="51.2" y="14.4" class="st1" width="658" height="230.7"/>
			</g>
		</g>
		<g id="line2d_8">
			<path id="m3b59b3e31a" class="st4" d="M51.2,245.1v2"/>
		</g>
	</g>
	<g id="xtick_5">
		<g id="line2d_9">
			<g>
				<g>
					<defs>
						<rect id="SVGID_00000129897013570577271240000004393030289161738174_" x="51.2" y="14.4" width="658" height="230.7"/>
					</defs>
					<clipPath id="SVGID_00000127018639118200221100000006628209846761106617_">
						<use xlink:href="#SVGID_00000129897013570577271240000004393030289161738174_"  style="overflow:visible;"/>
					</clipPath>
					<g style="clip-path:url(#SVGID_00000127018639118200221100000006628209846761106617_);">
						<path class="st0" d="M89.8,245.1V14.4"/>
					</g>
				</g>
				<rect x="51.2" y="14.4" class="st1" width="658" height="230.7"/>
			</g>
		</g>
		<g id="line2d_10">
			<path id="m3b59b3e31a-2" class="st6" d="M89.8,245.1v2"/>
		</g>
	</g>
	<g id="xtick_6">
		<g id="line2d_11">
			<g>
				<g>
					<defs>
						<rect id="SVGID_00000148649317963900139780000010962262423371426213_" x="51.2" y="14.4" width="658" height="230.7"/>
					</defs>
					<clipPath id="SVGID_00000108287061434852034960000015253311165622487226_">
						<use xlink:href="#SVGID_00000148649317963900139780000010962262423371426213_"  style="overflow:visible;"/>
					</clipPath>
					<g style="clip-path:url(#SVGID_00000108287061434852034960000015253311165622487226_);">
						<path class="st0" d="M117.2,245.1V14.4"/>
					</g>
				</g>
				<rect x="51.2" y="14.4" class="st1" width="658" height="230.7"/>
			</g>
		</g>
		<g id="line2d_12">
			<path id="m3b59b3e31a-3" class="st4" d="M117.2,245.1v2"/>
		</g>
	</g>
	<g id="xtick_7">
		<g id="line2d_13">
			<g>
				<g>
					<defs>
						<rect id="SVGID_00000082347193477758838540000018227379342605486270_" x="51.2" y="14.4" width="658" height="230.7"/>
					</defs>
					<clipPath id="SVGID_00000127735340160891189610000011348285080418180255_">
						<use xlink:href="#SVGID_00000082347193477758838540000018227379342605486270_"  style="overflow:visible;"/>
					</clipPath>
					<g style="clip-path:url(#SVGID_00000127735340160891189610000011348285080418180255_);">
						<path class="st0" d="M138.5,245.1V14.4"/>
					</g>
				</g>
				<rect x="51.2" y="14.4" class="st1" width="658" height="230.7"/>
			</g>
		</g>
		<g id="line2d_14">
			<path id="m3b59b3e31a-4" class="st4" d="M138.5,245.1v2"/>
		</g>
	</g>
	<g id="xtick_8">
		<g id="line2d_15">
			<g>
				<g>
					<defs>
						<rect id="SVGID_00000138572879394216193340000002800241348353658262_" x="51.2" y="14.4" width="658" height="230.7"/>
					</defs>
					<clipPath id="SVGID_00000086673924115503130130000006719128632785271735_">
						<use xlink:href="#SVGID_00000138572879394216193340000002800241348353658262_"  style="overflow:visible;"/>
					</clipPath>
					<g style="clip-path:url(#SVGID_00000086673924115503130130000006719128632785271735_);">
						<path class="st0" d="M155.9,245.1V14.4"/>
					</g>
				</g>
				<rect x="51.2" y="14.4" class="st1" width="658" height="230.7"/>
			</g>
		</g>
		<g id="line2d_16">
			<path id="m3b59b3e31a-5" class="st4" d="M155.9,245.1v2"/>
		</g>
	</g>
	<g id="xtick_9">
		<g id="line2d_17">
			<g>
				<g>
					<defs>
						<rect id="SVGID_00000124879548845049140190000012907015725784654265_" x="51.2" y="14.4" width="658" height="230.7"/>
					</defs>
					<clipPath id="SVGID_00000096763656602135328270000012822723676441177753_">
						<use xlink:href="#SVGID_00000124879548845049140190000012907015725784654265_"  style="overflow:visible;"/>
					</clipPath>
					<g style="clip-path:url(#SVGID_00000096763656602135328270000012822723676441177753_);">
						<path class="st0" d="M170.6,245.1V14.4"/>
					</g>
				</g>
				<rect x="51.2" y="14.4" class="st1" width="658" height="230.7"/>
			</g>
		</g>
		<g id="line2d_18">
			<path id="m3b59b3e31a-6" class="st4" d="M170.6,245.1v2"/>
		</g>
	</g>
	<g id="xtick_10">
		<g id="line2d_19">
			<g>
				<g>
					<defs>
						<rect id="SVGID_00000015328404838392975960000017443285764694049183_" x="51.2" y="14.4" width="658" height="230.7"/>
					</defs>
					<clipPath id="SVGID_00000034800603098431867680000015151027120979242914_">
						<use xlink:href="#SVGID_00000015328404838392975960000017443285764694049183_"  style="overflow:visible;"/>
					</clipPath>
					<g style="clip-path:url(#SVGID_00000034800603098431867680000015151027120979242914_);">
						<path class="st0" d="M183.3,245.1V14.4"/>
					</g>
				</g>
				<rect x="51.2" y="14.4" class="st1" width="658" height="230.7"/>
			</g>
		</g>
		<g id="line2d_20">
			<path id="m3b59b3e31a-7" class="st4" d="M183.3,245.1v2"/>
		</g>
	</g>
	<g id="xtick_11">
		<g id="line2d_21">
			<g>
				<g>
					<defs>
						<rect id="SVGID_00000149381269016761596080000002295071358143846032_" x="51.2" y="14.4" width="658" height="230.7"/>
					</defs>
					<clipPath id="SVGID_00000091730433182581822640000008351090098355440002_">
						<use xlink:href="#SVGID_00000149381269016761596080000002295071358143846032_"  style="overflow:visible;"/>
					</clipPath>
					<g style="clip-path:url(#SVGID_00000091730433182581822640000008351090098355440002_);">
						<path class="st0" d="M194.5,245.1V14.4"/>
					</g>
				</g>
				<rect x="51.2" y="14.4" class="st1" width="658" height="230.7"/>
			</g>
		</g>
		<g id="line2d_22">
			<path id="m3b59b3e31a-8" class="st4" d="M194.5,245.1v2"/>
		</g>
	</g>
	<g id="xtick_12">
		<g id="line2d_23">
			<g>
				<g>
					<defs>
						<rect id="SVGID_00000018941486170490925840000004313316932679653766_" x="51.2" y="14.4" width="658" height="230.7"/>
					</defs>
					<clipPath id="SVGID_00000130622714971734324150000013080724223688033185_">
						<use xlink:href="#SVGID_00000018941486170490925840000004313316932679653766_"  style="overflow:visible;"/>
					</clipPath>
					<g style="clip-path:url(#SVGID_00000130622714971734324150000013080724223688033185_);">
						<path class="st0" d="M270.5,245.1V14.4"/>
					</g>
				</g>
				<rect x="51.2" y="14.4" class="st1" width="658" height="230.7"/>
			</g>
		</g>
		<g id="line2d_24">
			<path id="m3b59b3e31a-9" class="st4" d="M270.5,245.1v2"/>
		</g>
	</g>
	<g id="xtick_13">
		<g id="line2d_25">
			<g>
				<g>
					<defs>
						<rect id="SVGID_00000095298001828064581100000004175801145594206385_" x="51.2" y="14.4" width="658" height="230.7"/>
					</defs>
					<clipPath id="SVGID_00000082353401646089741190000000457180758999298232_">
						<use xlink:href="#SVGID_00000095298001828064581100000004175801145594206385_"  style="overflow:visible;"/>
					</clipPath>
					<g style="clip-path:url(#SVGID_00000082353401646089741190000000457180758999298232_);">
						<path class="st0" d="M309.2,245.1V14.4"/>
					</g>
				</g>
				<rect x="51.2" y="14.4" class="st1" width="658" height="230.7"/>
			</g>
		</g>
		<g id="line2d_26">
			<path id="m3b59b3e31a-10" class="st4" d="M309.2,245.1v2"/>
		</g>
	</g>
	<g id="xtick_14">
		<g id="line2d_27">
			<g>
				<g>
					<defs>
						<rect id="SVGID_00000181059244682531308810000000065829537950686132_" x="51.2" y="14.4" width="658" height="230.7"/>
					</defs>
					<clipPath id="SVGID_00000040562119330857932760000012710838703966883248_">
						<use xlink:href="#SVGID_00000181059244682531308810000000065829537950686132_"  style="overflow:visible;"/>
					</clipPath>
					<g style="clip-path:url(#SVGID_00000040562119330857932760000012710838703966883248_);">
						<path class="st0" d="M336.6,245.1V14.4"/>
					</g>
				</g>
				<rect x="51.2" y="14.4" class="st1" width="658" height="230.7"/>
			</g>
		</g>
		<g id="line2d_28">
			<path id="m3b59b3e31a-11" class="st4" d="M336.6,245.1v2"/>
		</g>
	</g>
	<g id="xtick_15">
		<g id="line2d_29">
			<g>
				<g>
					<defs>
						<rect id="SVGID_00000109717986353928842910000000856113439328570267_" x="51.2" y="14.4" width="658" height="230.7"/>
					</defs>
					<clipPath id="SVGID_00000021115400953460011330000015183586018310638491_">
						<use xlink:href="#SVGID_00000109717986353928842910000000856113439328570267_"  style="overflow:visible;"/>
					</clipPath>
					<g style="clip-path:url(#SVGID_00000021115400953460011330000015183586018310638491_);">
						<path class="st0" d="M357.8,245.1V14.4"/>
					</g>
				</g>
				<rect x="51.2" y="14.4" class="st1" width="658" height="230.7"/>
			</g>
		</g>
		<g id="line2d_30">
			<path id="m3b59b3e31a-12" class="st4" d="M357.8,245.1v2"/>
		</g>
	</g>
	<g id="xtick_16">
		<g id="line2d_31">
			<g>
				<g>
					<defs>
						<rect id="SVGID_00000042705211314071711790000009286001885884899206_" x="51.2" y="14.4" width="658" height="230.7"/>
					</defs>
					<clipPath id="SVGID_00000180350309004643593810000014897719881787250581_">
						<use xlink:href="#SVGID_00000042705211314071711790000009286001885884899206_"  style="overflow:visible;"/>
					</clipPath>
					<g style="clip-path:url(#SVGID_00000180350309004643593810000014897719881787250581_);">
						<path class="st0" d="M375.2,245.1V14.4"/>
					</g>
				</g>
				<rect x="51.2" y="14.4" class="st1" width="658" height="230.7"/>
			</g>
		</g>
		<g id="line2d_32">
			<path id="m3b59b3e31a-13" class="st4" d="M375.2,245.1v2"/>
		</g>
	</g>
	<g id="xtick_17">
		<g id="line2d_33">
			<g>
				<g>
					<defs>
						<rect id="SVGID_00000015353968749377759700000007943943058693511862_" x="51.2" y="14.4" width="658" height="230.7"/>
					</defs>
					<clipPath id="SVGID_00000174581761319511183770000008896418348572146111_">
						<use xlink:href="#SVGID_00000015353968749377759700000007943943058693511862_"  style="overflow:visible;"/>
					</clipPath>
					<g style="clip-path:url(#SVGID_00000174581761319511183770000008896418348572146111_);">
						<path class="st0" d="M389.9,245.1V14.4"/>
					</g>
				</g>
				<rect x="51.2" y="14.4" class="st1" width="658" height="230.7"/>
			</g>
		</g>
		<g id="line2d_34">
			<path id="m3b59b3e31a-14" class="st4" d="M389.9,245.1v2"/>
		</g>
	</g>
	<g id="xtick_18">
		<g id="line2d_35">
			<g>
				<g>
					<defs>
						<rect id="SVGID_00000017493591222090570810000013385845440476441746_" x="51.2" y="14.4" width="658" height="230.7"/>
					</defs>
					<clipPath id="SVGID_00000116214666668118491500000003552365429738769848_">
						<use xlink:href="#SVGID_00000017493591222090570810000013385845440476441746_"  style="overflow:visible;"/>
					</clipPath>
					<g style="clip-path:url(#SVGID_00000116214666668118491500000003552365429738769848_);">
						<path class="st0" d="M402.6,245.1V14.4"/>
					</g>
				</g>
				<rect x="51.2" y="14.4" class="st1" width="658" height="230.7"/>
			</g>
		</g>
		<g id="line2d_36">
			<path id="m3b59b3e31a-15" class="st4" d="M402.6,245.1v2"/>
		</g>
	</g>
	<g id="xtick_19">
		<g id="line2d_37">
			<g>
				<g>
					<defs>
						<rect id="SVGID_00000176044320180586681610000015996690689605231498_" x="51.2" y="14.4" width="658" height="230.7"/>
					</defs>
					<clipPath id="SVGID_00000178924953355106522630000006315784754932910998_">
						<use xlink:href="#SVGID_00000176044320180586681610000015996690689605231498_"  style="overflow:visible;"/>
					</clipPath>
					<g style="clip-path:url(#SVGID_00000178924953355106522630000006315784754932910998_);">
						<path class="st0" d="M413.8,245.1V14.4"/>
					</g>
				</g>
				<rect x="51.2" y="14.4" class="st1" width="658" height="230.7"/>
			</g>
		</g>
		<g id="line2d_38">
			<path id="m3b59b3e31a-16" class="st4" d="M413.8,245.1v2"/>
		</g>
	</g>
	<g id="xtick_20">
		<g id="line2d_39">
			<g>
				<g>
					<defs>
						<rect id="SVGID_00000160898094569114953340000016338157801409487248_" x="51.2" y="14.4" width="658" height="230.7"/>
					</defs>
					<clipPath id="SVGID_00000094593286504800361050000006623457123276349109_">
						<use xlink:href="#SVGID_00000160898094569114953340000016338157801409487248_"  style="overflow:visible;"/>
					</clipPath>
					<g style="clip-path:url(#SVGID_00000094593286504800361050000006623457123276349109_);">
						<path class="st0" d="M489.9,245.1V14.4"/>
					</g>
				</g>
				<rect x="51.2" y="14.4" class="st1" width="658" height="230.7"/>
			</g>
		</g>
		<g id="line2d_40">
			<path id="m3b59b3e31a-17" class="st4" d="M489.9,245.1v2"/>
		</g>
	</g>
	<g id="xtick_21">
		<g id="line2d_41">
			<g>
				<g>
					<defs>
						<rect id="SVGID_00000075863923406472164590000009288355301533897093_" x="51.2" y="14.4" width="658" height="230.7"/>
					</defs>
					<clipPath id="SVGID_00000093876594072257865130000011884185582782924200_">
						<use xlink:href="#SVGID_00000075863923406472164590000009288355301533897093_"  style="overflow:visible;"/>
					</clipPath>
					<g style="clip-path:url(#SVGID_00000093876594072257865130000011884185582782924200_);">
						<path class="st0" d="M528.5,245.1V14.4"/>
					</g>
				</g>
				<rect x="51.2" y="14.4" class="st1" width="658" height="230.7"/>
			</g>
		</g>
		<g id="line2d_42">
			<path id="m3b59b3e31a-18" class="st4" d="M528.5,245.1v2"/>
		</g>
	</g>
	<g id="xtick_22">
		<g id="line2d_43">
			<g>
				<g>
					<defs>
						<rect id="SVGID_00000179624048257780871480000011791301749293511596_" x="51.2" y="14.4" width="658" height="230.7"/>
					</defs>
					<clipPath id="SVGID_00000062891340422219752730000008159919240824556712_">
						<use xlink:href="#SVGID_00000179624048257780871480000011791301749293511596_"  style="overflow:visible;"/>
					</clipPath>
					<g style="clip-path:url(#SVGID_00000062891340422219752730000008159919240824556712_);">
						<path class="st0" d="M555.9,245.1V14.4"/>
					</g>
				</g>
				<rect x="51.2" y="14.4" class="st1" width="658" height="230.7"/>
			</g>
		</g>
		<g id="line2d_44">
			<path id="m3b59b3e31a-19" class="st4" d="M555.9,245.1v2"/>
		</g>
	</g>
	<g id="xtick_23">
		<g id="line2d_45">
			<g>
				<g>
					<defs>
						<rect id="SVGID_00000008140284663452783200000014648294664024287421_" x="51.2" y="14.4" width="658" height="230.7"/>
					</defs>
					<clipPath id="SVGID_00000017512553488024538550000014289878291298105744_">
						<use xlink:href="#SVGID_00000008140284663452783200000014648294664024287421_"  style="overflow:visible;"/>
					</clipPath>
					<g style="clip-path:url(#SVGID_00000017512553488024538550000014289878291298105744_);">
						<path class="st0" d="M577.2,245.1V14.4"/>
					</g>
				</g>
				<rect x="51.2" y="14.4" class="st1" width="658" height="230.7"/>
			</g>
		</g>
		<g id="line2d_46">
			<path id="m3b59b3e31a-20" class="st4" d="M577.2,245.1v2"/>
		</g>
	</g>
	<g id="xtick_24">
		<g id="line2d_47">
			<g>
				<g>
					<defs>
						<rect id="SVGID_00000176015826928548999750000012608298840614354351_" x="51.2" y="14.4" width="658" height="230.7"/>
					</defs>
					<clipPath id="SVGID_00000062870506433395038440000002745332351646856849_">
						<use xlink:href="#SVGID_00000176015826928548999750000012608298840614354351_"  style="overflow:visible;"/>
					</clipPath>
					<g style="clip-path:url(#SVGID_00000062870506433395038440000002745332351646856849_);">
						<path class="st0" d="M594.5,245.1V14.4"/>
					</g>
				</g>
				<rect x="51.2" y="14.4" class="st1" width="658" height="230.7"/>
			</g>
		</g>
		<g id="line2d_48">
			<path id="m3b59b3e31a-21" class="st4" d="M594.5,245.1v2"/>
		</g>
	</g>
	<g id="xtick_25">
		<g id="line2d_49">
			<g>
				<g>
					<defs>
						<rect id="SVGID_00000025432503760121078630000011715052144746295952_" x="51.2" y="14.4" width="658" height="230.7"/>
					</defs>
					<clipPath id="SVGID_00000122713707996784188050000012370896415375973811_">
						<use xlink:href="#SVGID_00000025432503760121078630000011715052144746295952_"  style="overflow:visible;"/>
					</clipPath>
					<g style="clip-path:url(#SVGID_00000122713707996784188050000012370896415375973811_);">
						<path class="st0" d="M609.2,245.1V14.4"/>
					</g>
				</g>
				<rect x="51.2" y="14.4" class="st1" width="658" height="230.7"/>
			</g>
		</g>
		<g id="line2d_50">
			<path id="m3b59b3e31a-22" class="st4" d="M609.2,245.1v2"/>
		</g>
	</g>
	<g id="xtick_26">
		<g id="line2d_51">
			<g>
				<g>
					<defs>
						<rect id="SVGID_00000067941974976450916460000017181052632563772597_" x="51.2" y="14.4" width="658" height="230.7"/>
					</defs>
					<clipPath id="SVGID_00000175291104796227861580000010231085360948829113_">
						<use xlink:href="#SVGID_00000067941974976450916460000017181052632563772597_"  style="overflow:visible;"/>
					</clipPath>
					<g style="clip-path:url(#SVGID_00000175291104796227861580000010231085360948829113_);">
						<path class="st0" d="M621.9,245.1V14.4"/>
					</g>
				</g>
				<rect x="51.2" y="14.4" class="st1" width="658" height="230.7"/>
			</g>
		</g>
		<g id="line2d_52">
			<path id="m3b59b3e31a-23" class="st4" d="M621.9,245.1v2"/>
		</g>
	</g>
	<g id="xtick_27">
		<g id="line2d_53">
			<g>
				<g>
					<defs>
						<rect id="SVGID_00000115484546748767994550000010108155468629425035_" x="51.2" y="14.4" width="658" height="230.7"/>
					</defs>
					<clipPath id="SVGID_00000080926665840580188220000018009487700584602553_">
						<use xlink:href="#SVGID_00000115484546748767994550000010108155468629425035_"  style="overflow:visible;"/>
					</clipPath>
					<g style="clip-path:url(#SVGID_00000080926665840580188220000018009487700584602553_);">
						<path class="st0" d="M633.1,245.1V14.4"/>
					</g>
				</g>
				<rect x="51.2" y="14.4" class="st1" width="658" height="230.7"/>
			</g>
		</g>
		<g id="line2d_54">
			<path id="m3b59b3e31a-24" class="st4" d="M633.1,245.1v2"/>
		</g>
	</g>
	<g id="xtick_28">
		<g id="line2d_55">
			<g>
				<g>
					<defs>
						<rect id="SVGID_00000098191034885781307500000009638700258650278842_" x="51.2" y="14.4" width="658" height="230.7"/>
					</defs>
					<clipPath id="SVGID_00000181793779610224735230000005492155239925944224_">
						<use xlink:href="#SVGID_00000098191034885781307500000009638700258650278842_"  style="overflow:visible;"/>
					</clipPath>
					<g style="clip-path:url(#SVGID_00000181793779610224735230000005492155239925944224_);">
						<path class="st0" d="M709.2,245.1V14.4"/>
					</g>
				</g>
				<rect x="51.2" y="14.4" class="st1" width="658" height="230.7"/>
			</g>
		</g>
		<g id="line2d_56">
			<path id="m3b59b3e31a-25" class="st4" d="M709.2,245.1v2"/>
		</g>
	</g>
	<g id="text_4">
		<g>
			<path id="SchibstedGrotesk-Regular-46" class="st2" d="M338.9,274.2v-8.4h5.4v0.9h-4.4v2.6h3.9v0.9h-3.9v4.1H338.9L338.9,274.2z"
				/>
			<path id="SchibstedGrotesk-Regular-72" class="st2" d="M345.6,274.2v-6.3h0.9v1.3l0-0.1c0.2-0.4,0.5-0.8,0.9-1s0.8-0.3,1.1-0.3
				c0.1,0,0.2,0,0.3,0c0.1,0,0.2,0,0.3,0.1l-0.1,0.9c-0.2-0.1-0.4-0.1-0.6-0.1c-0.1,0-0.3,0-0.5,0.1c-0.2,0-0.4,0.2-0.6,0.3
				c-0.2,0.2-0.4,0.4-0.5,0.7s-0.2,0.7-0.2,1.2v3.2L345.6,274.2L345.6,274.2z"/>
			<path id="SchibstedGrotesk-Regular-65" class="st2" d="M353,274.3c-0.6,0-1.1-0.1-1.6-0.4s-0.8-0.6-1-1.1
				c-0.2-0.5-0.4-1.1-0.4-1.8s0.1-1.3,0.4-1.8s0.6-0.9,1-1.1c0.4-0.3,0.9-0.4,1.5-0.4c0.3,0,0.7,0,1,0.2c0.3,0.1,0.6,0.3,0.9,0.6
				c0.3,0.3,0.5,0.6,0.7,1.1s0.2,1,0.2,1.7h-5.1v-0.8h4.3l-0.3,0.4c0-0.5-0.1-1-0.3-1.3c-0.2-0.3-0.4-0.6-0.6-0.7
				c-0.2-0.1-0.5-0.2-0.9-0.2c-0.4,0-0.7,0.1-1,0.3s-0.5,0.5-0.6,0.9c-0.1,0.4-0.2,0.8-0.2,1.4c0,0.8,0.2,1.4,0.5,1.8
				s0.8,0.6,1.4,0.6c0.4,0,0.8-0.1,1.1-0.3c0.3-0.2,0.5-0.5,0.6-0.9l1,0.3c-0.1,0.4-0.4,0.7-0.6,0.9c-0.2,0.3-0.6,0.5-0.9,0.6
				S353.4,274.3,353,274.3L353,274.3z"/>
			<path id="SchibstedGrotesk-Regular-71" class="st2" d="M361.5,276.5v-3.6l0.1,0.1c-0.2,0.5-0.5,0.8-0.9,1
				c-0.4,0.2-0.8,0.3-1.3,0.3c-0.5,0-1-0.1-1.4-0.4c-0.4-0.3-0.7-0.6-0.9-1.1s-0.3-1.1-0.3-1.8s0.1-1.3,0.3-1.8s0.5-0.9,0.9-1.1
				c0.4-0.3,0.8-0.4,1.4-0.4c0.4,0,0.8,0.1,1.2,0.3s0.7,0.6,0.9,1l0,0v-1.3h0.9v8.6L361.5,276.5L361.5,276.5z M359.7,273.5
				c0.3,0,0.6-0.1,0.9-0.3c0.3-0.2,0.5-0.4,0.7-0.8c0.2-0.4,0.2-0.8,0.2-1.4c0-0.9-0.2-1.5-0.5-1.9s-0.8-0.6-1.3-0.6
				c-0.5,0-1,0.2-1.3,0.6s-0.5,1-0.5,1.9s0.2,1.4,0.5,1.8C358.7,273.3,359.2,273.5,359.7,273.5L359.7,273.5z"/>
			<path id="SchibstedGrotesk-Regular-75" class="st2" d="M366.4,274.3c-0.4,0-0.8-0.1-1.1-0.3c-0.3-0.2-0.6-0.5-0.8-0.9
				s-0.3-0.8-0.3-1.3v-4h1v3.9c0,0.5,0.1,0.9,0.3,1.3s0.5,0.5,1.1,0.5c0.4,0,0.7-0.1,1-0.3s0.5-0.5,0.6-0.9c0.1-0.4,0.2-0.9,0.2-1.5
				v-3h1v6.3h-0.9v-1.5l0,0.3c-0.2,0.4-0.4,0.7-0.8,1C367.4,274.2,366.9,274.3,366.4,274.3L366.4,274.3z"/>
			<path id="SchibstedGrotesk-Regular-65-2" class="st2" d="M373.9,274.3c-0.6,0-1.1-0.1-1.6-0.4s-0.8-0.6-1-1.1
				c-0.2-0.5-0.4-1.1-0.4-1.8s0.1-1.3,0.4-1.8s0.6-0.9,1-1.1c0.4-0.3,0.9-0.4,1.5-0.4c0.3,0,0.7,0,1,0.2c0.3,0.1,0.6,0.3,0.9,0.6
				c0.3,0.3,0.5,0.6,0.7,1.1s0.2,1,0.2,1.7h-5.1v-0.8h4.3l-0.3,0.4c0-0.5-0.1-1-0.3-1.3c-0.2-0.3-0.4-0.6-0.6-0.7
				c-0.2-0.1-0.5-0.2-0.9-0.2c-0.4,0-0.7,0.1-1,0.3s-0.5,0.5-0.6,0.9c-0.1,0.4-0.2,0.8-0.2,1.4c0,0.8,0.2,1.4,0.5,1.8
				s0.8,0.6,1.4,0.6c0.4,0,0.8-0.1,1.1-0.3c0.3-0.2,0.5-0.5,0.6-0.9l1,0.3c-0.1,0.4-0.4,0.7-0.6,0.9c-0.2,0.3-0.6,0.5-0.9,0.6
				S374.3,274.3,373.9,274.3L373.9,274.3z"/>
			<path id="SchibstedGrotesk-Regular-6e" class="st2" d="M378.2,274.2v-6.3h0.9v1.4l0-0.3c0.2-0.4,0.4-0.7,0.8-0.9
				c0.4-0.3,0.8-0.4,1.3-0.4c0.5,0,0.8,0.1,1.2,0.3c0.3,0.2,0.6,0.5,0.8,0.9c0.2,0.4,0.3,0.8,0.3,1.3v4h-1v-3.9
				c0-0.5-0.1-0.9-0.3-1.3c-0.2-0.3-0.6-0.5-1-0.5c-0.5,0-1,0.2-1.3,0.6s-0.5,1-0.5,1.7v3.3L378.2,274.2L378.2,274.2z"/>
			<path id="SchibstedGrotesk-Regular-63" class="st2" d="M387.7,274.3c-0.6,0-1.1-0.1-1.5-0.4c-0.4-0.3-0.8-0.6-1-1.1
				c-0.2-0.5-0.4-1.1-0.4-1.8s0.1-1.3,0.4-1.8s0.6-0.9,1-1.1s1-0.4,1.5-0.4c0.5,0,0.9,0.1,1.2,0.2s0.7,0.4,0.9,0.7s0.4,0.7,0.5,1.1
				l-1,0.3c-0.1-0.5-0.3-0.9-0.6-1.1s-0.6-0.4-1.1-0.4c-0.6,0-1,0.2-1.3,0.6s-0.5,1-0.5,1.8s0.2,1.4,0.5,1.8s0.8,0.6,1.3,0.6
				c0.4,0,0.8-0.1,1.1-0.4c0.3-0.3,0.5-0.6,0.6-1.1l1,0.3c-0.1,0.3-0.2,0.6-0.4,0.9c-0.2,0.2-0.4,0.5-0.6,0.6
				c-0.2,0.2-0.5,0.3-0.8,0.4S388,274.3,387.7,274.3L387.7,274.3z"/>
			<path id="SchibstedGrotesk-Regular-79" class="st2" d="M392.1,276.5v-0.8h1c0.1,0,0.1,0,0.2-0.1c0,0,0.1-0.1,0.1-0.2l0.5-1.3
				l-0.1,0.5l-2.5-6.7h1.1l2,5.8l-0.2,0l2-5.8h1.1l-3,7.9c-0.1,0.2-0.2,0.4-0.4,0.5s-0.4,0.2-0.6,0.2L392.1,276.5L392.1,276.5z"/>
			<path id="SchibstedGrotesk-Regular-28" class="st2" d="M402.8,276.1c-0.6-0.8-1.1-1.6-1.4-2.5c-0.3-0.9-0.5-1.9-0.5-2.9
				s0.2-1.9,0.5-2.9c0.3-0.9,0.8-1.8,1.4-2.5h1c-0.7,0.9-1.2,1.8-1.5,2.6c-0.3,0.9-0.5,1.8-0.5,2.8s0.1,1.9,0.5,2.8
				c0.3,0.9,0.8,1.7,1.5,2.6L402.8,276.1L402.8,276.1z"/>
			<path id="SchibstedGrotesk-Regular-48" class="st2" d="M405.1,274.2v-8.4h1v3.6h4.6v-3.6h1.1v8.4h-1.1v-3.9h-4.6v3.9H405.1z"/>
			<path id="SchibstedGrotesk-Regular-7a" class="st2" d="M413.3,274.2v-0.8l3.8-4.6h-3.6v-0.8h4.8v0.8l-3.9,4.6h4v0.8H413.3
				L413.3,274.2z"/>
			<path id="SchibstedGrotesk-Regular-29" class="st2" d="M419.1,276.1c0.7-0.9,1.2-1.7,1.5-2.6c0.3-0.9,0.5-1.8,0.5-2.8
				s-0.2-1.9-0.5-2.8c-0.3-0.9-0.8-1.7-1.5-2.6h1c0.6,0.8,1.1,1.6,1.4,2.5s0.5,1.9,0.5,2.9s-0.2,1.9-0.5,2.9s-0.8,1.8-1.4,2.5
				L419.1,276.1L419.1,276.1z"/>
		</g>
	</g>
</g>
<g id="matplotlib.axis_2">
	<g id="ytick_1">
		<g id="text_5">
			<g>
				<path id="SchibstedGrotesk-Regular-2212" class="st2" d="M26.7,245.9v-0.8h5v0.8H26.7z"/>
				<path id="SchibstedGrotesk-Regular-38" class="st2" d="M35.2,248.9c-0.5,0-0.9-0.1-1.3-0.3c-0.4-0.2-0.7-0.4-0.9-0.8
					c-0.2-0.3-0.3-0.7-0.3-1.1c0-0.4,0.1-0.9,0.4-1.2c0.3-0.4,0.7-0.6,1.2-0.7c-0.3-0.1-0.5-0.2-0.7-0.3s-0.4-0.3-0.5-0.5
					s-0.2-0.4-0.2-0.7c0-0.3,0.1-0.6,0.3-0.9c0.2-0.3,0.5-0.5,0.8-0.6c0.3-0.1,0.7-0.2,1.2-0.2s0.8,0.1,1.2,0.2
					c0.3,0.1,0.6,0.4,0.8,0.6c0.2,0.3,0.3,0.6,0.3,0.9c0,0.2,0,0.5-0.2,0.7s-0.3,0.4-0.5,0.5s-0.4,0.2-0.7,0.3
					c0.5,0.1,0.9,0.3,1.2,0.7c0.3,0.4,0.4,0.8,0.4,1.2c0,0.4-0.1,0.8-0.3,1.1s-0.5,0.6-0.9,0.8C36.1,248.8,35.7,248.9,35.2,248.9
					L35.2,248.9z M35.2,248.1c0.5,0,0.9-0.1,1.2-0.4c0.3-0.2,0.4-0.6,0.4-1s-0.1-0.8-0.4-1c-0.3-0.3-0.7-0.4-1.2-0.4
					s-0.9,0.1-1.2,0.4c-0.3,0.3-0.4,0.6-0.4,1s0.1,0.8,0.4,1S34.7,248.1,35.2,248.1L35.2,248.1z M35.2,244.6c0.4,0,0.8-0.1,1-0.3
					c0.2-0.2,0.4-0.5,0.4-0.8s-0.1-0.6-0.4-0.9s-0.6-0.3-1-0.3s-0.8,0.1-1,0.3c-0.2,0.2-0.4,0.5-0.4,0.9s0.1,0.6,0.4,0.8
					C34.5,244.5,34.8,244.6,35.2,244.6z"/>
				<path id="SchibstedGrotesk-Regular-30-4" class="st2" d="M41.2,248.9c-0.8,0-1.4-0.3-1.9-0.9c-0.5-0.6-0.7-1.5-0.7-2.7
					s0.2-2,0.7-2.7c0.5-0.6,1.1-0.9,1.9-0.9s1.5,0.3,1.9,0.9c0.5,0.6,0.7,1.5,0.7,2.7s-0.2,2-0.7,2.7
					C42.6,248.6,42,248.9,41.2,248.9z M41.2,248.2c0.5,0,1-0.2,1.2-0.8s0.4-1.2,0.4-2.2s-0.1-1.7-0.4-2.2s-0.7-0.8-1.2-0.8
					s-1,0.2-1.2,0.8s-0.4,1.2-0.4,2.2s0.1,1.7,0.4,2.2S40.6,248.2,41.2,248.2z"/>
			</g>
		</g>
	</g>
	<g id="ytick_2">
		<g id="text_6">
			<g>
				<path id="SchibstedGrotesk-Regular-2212-2" class="st2" d="M27.1,217v-0.8h5v0.8H27.1z"/>
				<path id="SchibstedGrotesk-Regular-37" class="st2" d="M34,220c0.3-1.2,0.6-2.3,1.1-3.3c0.5-1,1.1-2,1.8-2.9h-3.9v-0.8h4.8v0.7
					c-0.3,0.5-0.7,1-0.9,1.5c-0.3,0.5-0.6,1-0.8,1.5c-0.2,0.5-0.5,1.1-0.6,1.6s-0.3,1.1-0.4,1.7H34z"/>
				<path id="SchibstedGrotesk-Regular-30-5" class="st2" d="M41.2,220.1c-0.8,0-1.4-0.3-1.9-0.9c-0.5-0.6-0.7-1.5-0.7-2.7
					s0.2-2,0.7-2.7c0.5-0.6,1.1-0.9,1.9-0.9s1.5,0.3,1.9,0.9c0.5,0.6,0.7,1.5,0.7,2.7s-0.2,2-0.7,2.7
					C42.6,219.8,42,220.1,41.2,220.1z M41.2,219.4c0.5,0,1-0.2,1.2-0.8s0.4-1.2,0.4-2.2s-0.1-1.7-0.4-2.2s-0.7-0.8-1.2-0.8
					s-1,0.2-1.2,0.8s-0.4,1.2-0.4,2.2s0.1,1.7,0.4,2.2S40.6,219.4,41.2,219.4z"/>
			</g>
		</g>
	</g>
	<g id="ytick_3">
		<g id="text_7">
			<g>
				<path id="SchibstedGrotesk-Regular-2212-3" class="st2" d="M26.5,188.2v-0.8h5v0.8H26.5z"/>
				<path id="SchibstedGrotesk-Regular-36" class="st2" d="M35.2,191.2c-0.8,0-1.5-0.3-1.9-0.9s-0.7-1.5-0.7-2.6c0-0.5,0-1,0.2-1.5
					c0.1-0.5,0.3-0.9,0.5-1.2s0.5-0.6,0.8-0.8c0.3-0.2,0.7-0.3,1.2-0.3s0.9,0.1,1.2,0.3c0.3,0.2,0.6,0.4,0.8,0.7
					c0.2,0.3,0.3,0.6,0.3,0.9l-0.9,0.2c0-0.4-0.2-0.8-0.4-1c-0.2-0.3-0.6-0.4-1-0.4c-0.3,0-0.6,0.1-0.8,0.2
					c-0.2,0.1-0.4,0.3-0.5,0.6c-0.1,0.2-0.2,0.5-0.3,0.8s-0.1,0.6-0.1,0.8c0,0.3,0,0.5,0,0.7l-0.1-0.1c0.1-0.3,0.4-0.6,0.7-0.9
					s0.7-0.4,1.2-0.4c0.4,0,0.8,0.1,1.1,0.3s0.6,0.4,0.8,0.8s0.3,0.8,0.3,1.3s-0.1,0.9-0.3,1.3s-0.5,0.6-0.8,0.8
					S35.7,191.2,35.2,191.2L35.2,191.2z M35.2,190.5c0.5,0,0.8-0.1,1.1-0.4c0.3-0.3,0.4-0.7,0.4-1.2s-0.1-0.9-0.4-1.2
					c-0.3-0.3-0.6-0.4-1.1-0.4s-0.9,0.1-1.2,0.4s-0.4,0.7-0.4,1.2s0.1,0.9,0.4,1.2S34.8,190.5,35.2,190.5z"/>
				<path id="SchibstedGrotesk-Regular-30-6" class="st2" d="M41.2,191.2c-0.8,0-1.4-0.3-1.9-0.9c-0.5-0.6-0.7-1.5-0.7-2.7
					s0.2-2,0.7-2.7c0.5-0.6,1.1-0.9,1.9-0.9s1.5,0.3,1.9,0.9c0.5,0.6,0.7,1.5,0.7,2.7s-0.2,2-0.7,2.7
					C42.6,190.9,42,191.2,41.2,191.2z M41.2,190.5c0.5,0,1-0.2,1.2-0.8s0.4-1.2,0.4-2.2s-0.1-1.7-0.4-2.2s-0.7-0.8-1.2-0.8
					s-1,0.2-1.2,0.8s-0.4,1.2-0.4,2.2s0.1,1.7,0.4,2.2S40.6,190.5,41.2,190.5z"/>
			</g>
		</g>
	</g>
	<g id="ytick_4">
		<g id="text_8">
			<g>
				<path id="SchibstedGrotesk-Regular-2212-4" class="st2" d="M26.6,159.3v-0.8h5v0.8H26.6z"/>
				<path id="SchibstedGrotesk-Regular-35" class="st2" d="M35.2,162.4c-0.4,0-0.8-0.1-1.2-0.2s-0.7-0.4-0.9-0.7
					c-0.2-0.3-0.4-0.7-0.4-1.2l0.9-0.3c0,0.5,0.2,0.9,0.5,1.2c0.3,0.3,0.7,0.5,1.2,0.5c0.3,0,0.6-0.1,0.8-0.2s0.4-0.4,0.6-0.6
					c0.1-0.3,0.2-0.6,0.2-0.9c0-0.5-0.2-0.9-0.5-1.2c-0.3-0.3-0.7-0.4-1.1-0.4c-0.4,0-0.7,0.1-0.9,0.3s-0.4,0.4-0.5,0.7l-0.8-0.1
					l0.3-3.9h4v0.8H34l-0.2,2.7l-0.2,0c0.2-0.3,0.4-0.6,0.7-0.8s0.7-0.3,1.1-0.3s0.8,0.1,1.2,0.3c0.3,0.2,0.6,0.5,0.8,0.8
					s0.3,0.8,0.3,1.2c0,0.5-0.1,0.9-0.3,1.3s-0.5,0.7-0.9,0.9C36.1,162.3,35.7,162.4,35.2,162.4L35.2,162.4z"/>
				<path id="SchibstedGrotesk-Regular-30-7" class="st2" d="M41.2,162.4c-0.8,0-1.4-0.3-1.9-0.9c-0.5-0.6-0.7-1.5-0.7-2.7
					s0.2-2,0.7-2.7c0.5-0.6,1.1-0.9,1.9-0.9s1.5,0.3,1.9,0.9c0.5,0.6,0.7,1.5,0.7,2.7s-0.2,2-0.7,2.7
					C42.6,162.1,42,162.4,41.2,162.4z M41.2,161.7c0.5,0,1-0.2,1.2-0.8s0.4-1.2,0.4-2.2s-0.1-1.7-0.4-2.2s-0.7-0.8-1.2-0.8
					s-1,0.2-1.2,0.8s-0.4,1.2-0.4,2.2s0.1,1.7,0.4,2.2S40.6,161.7,41.2,161.7z"/>
			</g>
		</g>
	</g>
	<g id="ytick_5">
		<g id="text_9">
			<g>
				<path id="SchibstedGrotesk-Regular-2212-5" class="st2" d="M26.6,130.5v-0.8h5v0.8H26.6z"/>
				<path id="SchibstedGrotesk-Regular-34-2" class="st2" d="M36.2,133.4v-2.3h0v-4.2l0.2,0.5l-3.1,3.7l-0.3-0.2h4.9v0.8h-5.2v-0.8
					l3.7-4.4H37v7L36.2,133.4L36.2,133.4z"/>
				<path id="SchibstedGrotesk-Regular-30-8" class="st2" d="M41.2,133.6c-0.8,0-1.4-0.3-1.9-0.9c-0.5-0.6-0.7-1.5-0.7-2.7
					s0.2-2,0.7-2.7c0.5-0.6,1.1-0.9,1.9-0.9s1.5,0.3,1.9,0.9c0.5,0.6,0.7,1.5,0.7,2.7s-0.2,2-0.7,2.7
					C42.6,133.2,42,133.6,41.2,133.6z M41.2,132.9c0.5,0,1-0.2,1.2-0.8s0.4-1.2,0.4-2.2s-0.1-1.7-0.4-2.2c-0.3-0.5-0.7-0.8-1.2-0.8
					s-1,0.2-1.2,0.8c-0.3,0.5-0.4,1.2-0.4,2.2s0.1,1.7,0.4,2.2S40.6,132.9,41.2,132.9z"/>
			</g>
		</g>
	</g>
	<g id="ytick_6">
		<g id="text_10">
			<g>
				<path id="SchibstedGrotesk-Regular-2212-6" class="st2" d="M26.7,101.7v-0.8h5v0.8H26.7z"/>
				<path id="SchibstedGrotesk-Regular-33-2" class="st2" d="M35.2,104.7c-0.4,0-0.8-0.1-1.2-0.2s-0.7-0.4-0.9-0.7s-0.4-0.7-0.4-1.2
					l0.9-0.3c0,0.5,0.2,0.9,0.5,1.3c0.3,0.3,0.7,0.5,1.2,0.5c0.4,0,0.8-0.1,1.1-0.4c0.3-0.3,0.4-0.6,0.4-1.1c0-0.2,0-0.4-0.1-0.6
					c-0.1-0.2-0.2-0.4-0.4-0.5s-0.5-0.2-0.9-0.2h-1v-0.7h0.9c0.4,0,0.7-0.1,1-0.3s0.3-0.5,0.3-0.8c0-0.3-0.1-0.6-0.3-0.8
					s-0.5-0.3-1-0.3c-0.5,0-0.9,0.2-1.1,0.4s-0.4,0.7-0.4,1.2l-0.9-0.3c0-0.3,0.1-0.7,0.3-1s0.5-0.6,0.8-0.8
					c0.4-0.2,0.8-0.3,1.3-0.3c0.4,0,0.8,0.1,1.1,0.2s0.6,0.4,0.8,0.6s0.3,0.6,0.3,0.9c0,0.2,0,0.4-0.2,0.7c-0.1,0.2-0.2,0.4-0.4,0.5
					c-0.2,0.1-0.4,0.2-0.7,0.3c0.5,0.1,0.9,0.3,1.2,0.6c0.3,0.3,0.4,0.7,0.4,1.1c0,0.4-0.1,0.7-0.2,1s-0.3,0.5-0.6,0.7
					s-0.5,0.3-0.8,0.4S35.6,104.7,35.2,104.7L35.2,104.7z"/>
				<path id="SchibstedGrotesk-Regular-30-9" class="st2" d="M41.2,104.7c-0.8,0-1.4-0.3-1.9-0.9c-0.5-0.6-0.7-1.5-0.7-2.7
					s0.2-2,0.7-2.7c0.5-0.6,1.1-0.9,1.9-0.9s1.5,0.3,1.9,0.9c0.5,0.6,0.7,1.5,0.7,2.7s-0.2,2-0.7,2.7
					C42.6,104.4,42,104.7,41.2,104.7z M41.2,104c0.5,0,1-0.2,1.2-0.8s0.4-1.2,0.4-2.2s-0.1-1.7-0.4-2.2s-0.7-0.8-1.2-0.8
					s-1,0.2-1.2,0.8s-0.4,1.2-0.4,2.2s0.1,1.7,0.4,2.2S40.6,104,41.2,104z"/>
			</g>
		</g>
	</g>
	<g id="ytick_7">
		<g id="text_11">
			<g>
				<path id="SchibstedGrotesk-Regular-2212-7" class="st2" d="M26.7,72.8V72h5v0.8H26.7z"/>
				<path id="SchibstedGrotesk-Regular-32-2" class="st2" d="M32.7,75.8v-0.6l2.5-2.1c0.3-0.3,0.6-0.6,0.8-0.8
					c0.2-0.2,0.4-0.5,0.5-0.7c0.1-0.2,0.2-0.5,0.2-0.8c0-0.3-0.1-0.6-0.2-0.8s-0.3-0.4-0.5-0.5s-0.5-0.2-0.8-0.2
					c-0.3,0-0.6,0.1-0.8,0.2s-0.4,0.3-0.5,0.6c-0.1,0.2-0.2,0.5-0.2,0.8l-0.9-0.3c0-0.3,0.1-0.6,0.3-0.9c0.2-0.3,0.5-0.6,0.8-0.8
					c0.4-0.2,0.8-0.3,1.3-0.3c0.3,0,0.5,0,0.8,0.1c0.3,0.1,0.5,0.2,0.8,0.4c0.2,0.2,0.4,0.4,0.6,0.7s0.2,0.6,0.2,1
					c0,0.6-0.2,1.1-0.5,1.5c-0.3,0.4-0.7,0.9-1.3,1.3l-1.9,1.6L33.3,75h4.4v0.8L32.7,75.8L32.7,75.8z"/>
				<path id="SchibstedGrotesk-Regular-30-10" class="st2" d="M41.2,75.9c-0.8,0-1.4-0.3-1.9-0.9c-0.5-0.6-0.7-1.5-0.7-2.7
					s0.2-2,0.7-2.7c0.5-0.6,1.1-0.9,1.9-0.9s1.5,0.3,1.9,0.9c0.5,0.6,0.7,1.5,0.7,2.7s-0.2,2-0.7,2.7C42.6,75.6,42,75.9,41.2,75.9z
					 M41.2,75.2c0.5,0,1-0.2,1.2-0.8s0.4-1.2,0.4-2.2s-0.1-1.7-0.4-2.2s-0.7-0.8-1.2-0.8s-1,0.2-1.2,0.8s-0.4,1.2-0.4,2.2
					s0.1,1.7,0.4,2.2S40.6,75.2,41.2,75.2z"/>
			</g>
		</g>
	</g>
	<g id="ytick_8">
		<g id="text_12">
			<g>
				<path id="SchibstedGrotesk-Regular-2212-8" class="st2" d="M29,44v-0.8h5V44H29z"/>
				<path id="SchibstedGrotesk-Regular-31-4" class="st2" d="M36.5,46.9v-5.6c-0.3,0.2-0.5,0.4-0.7,0.6c-0.2,0.2-0.5,0.3-0.8,0.4
					v-0.8c0.1-0.1,0.3-0.2,0.5-0.2s0.3-0.2,0.5-0.5s0.4-0.5,0.7-0.8h0.6v7L36.5,46.9L36.5,46.9z"/>
				<path id="SchibstedGrotesk-Regular-30-11" class="st2" d="M41.2,47c-0.8,0-1.4-0.3-1.9-1c-0.5-0.6-0.7-1.5-0.7-2.7
					s0.2-2,0.7-2.7c0.5-0.6,1.1-1,1.9-1s1.5,0.3,1.9,1c0.5,0.6,0.7,1.5,0.7,2.7s-0.2,2-0.7,2.7C42.6,46.7,42,47,41.2,47z M41.2,46.3
					c0.5,0,1-0.2,1.2-0.8s0.4-1.2,0.4-2.2s-0.1-1.7-0.4-2.2s-0.7-0.8-1.2-0.8s-1,0.2-1.2,0.8s-0.4,1.2-0.4,2.2s0.1,1.7,0.4,2.2
					S40.6,46.3,41.2,46.3z"/>
			</g>
		</g>
	</g>
	<g id="ytick_9">
		<g id="text_13">
			<path id="SchibstedGrotesk-Regular-30-12" class="st2" d="M41.2,18.2c-0.8,0-1.4-0.3-1.9-1c-0.5-0.6-0.7-1.5-0.7-2.7
				s0.2-2,0.7-2.7c0.5-0.6,1.1-0.9,1.9-0.9s1.5,0.3,1.9,0.9c0.5,0.6,0.7,1.5,0.7,2.7s-0.2,2-0.7,2.7C42.6,17.9,42,18.2,41.2,18.2z
				 M41.2,17.5c0.5,0,1-0.2,1.2-0.8s0.4-1.2,0.4-2.2s-0.1-1.7-0.4-2.2s-0.7-0.8-1.2-0.8s-1,0.2-1.2,0.8s-0.4,1.2-0.4,2.2
				s0.1,1.7,0.4,2.2S40.6,17.5,41.2,17.5z"/>
		</g>
	</g>
	<g id="text_14">
		<g>
			<path id="SchibstedGrotesk-Regular-4d" class="st2" d="M19.4,171l-8.4-0.5v-1.7l7.7-2.4v0.2l-7.7-2.4v-1.7l8.4-0.5v1l-7.6,0.4v0
				l7.6,2.5v1.2l-7.6,2.5v0l7.6,0.4V171L19.4,171z"/>
			<path id="SchibstedGrotesk-Regular-61" class="st2" d="M19.5,158.7c0,0.4-0.1,0.8-0.2,1.1c-0.2,0.3-0.4,0.6-0.7,0.7
				c-0.3,0.2-0.6,0.2-1,0.2c-0.4,0-0.7-0.1-1-0.3s-0.6-0.6-0.8-1c-0.2-0.5-0.3-1.1-0.3-1.8v-1.1l0.1,0.1h-0.3
				c-0.5,0-0.9,0.1-1.2,0.3c-0.3,0.2-0.4,0.5-0.4,1c0,0.4,0.1,0.8,0.4,1c0.2,0.2,0.5,0.4,0.9,0.4l-0.2,1.1c-0.3,0-0.6-0.2-0.9-0.4
				c-0.3-0.2-0.5-0.5-0.7-0.9c-0.2-0.4-0.2-0.8-0.2-1.3s0.1-0.9,0.3-1.2s0.5-0.6,0.8-0.7s0.8-0.2,1.3-0.2h2.9c0.1,0,0.2,0,0.3-0.1
				c0,0,0.1-0.1,0.1-0.2v-0.4h0.8v0.6c0,0.3-0.1,0.5-0.2,0.7s-0.4,0.3-0.6,0.3h-0.4v-0.1c0.2,0.1,0.3,0.1,0.5,0.3
				c0.2,0.1,0.3,0.3,0.5,0.4s0.3,0.4,0.4,0.6S19.5,158.4,19.5,158.7L19.5,158.7z M18.7,158.5c0-0.3-0.1-0.6-0.2-0.9
				s-0.4-0.5-0.8-0.7s-0.8-0.2-1.3-0.2h0v1c0,0.5,0.1,0.9,0.2,1.2s0.3,0.5,0.5,0.6s0.4,0.2,0.6,0.2s0.4,0,0.5-0.1s0.3-0.2,0.4-0.4
				C18.7,159,18.7,158.8,18.7,158.5L18.7,158.5z"/>
			<path id="SchibstedGrotesk-Regular-67" class="st2" d="M21.8,151.5c0,0.9-0.1,1.6-0.4,2.1c-0.3,0.4-0.7,0.7-1.2,0.7
				c-0.3,0-0.6-0.1-0.8-0.2s-0.4-0.4-0.6-0.8c-0.1,0.1-0.2,0.3-0.4,0.4c-0.1,0.1-0.3,0.1-0.5,0.1c-0.2,0-0.4-0.1-0.6-0.2
				c-0.2-0.1-0.3-0.3-0.4-0.6c-0.2,0.3-0.4,0.6-0.8,0.7c-0.3,0.2-0.7,0.3-1.1,0.3c-0.4,0-0.8-0.1-1.2-0.3s-0.6-0.5-0.8-0.9
				c-0.2-0.4-0.3-0.8-0.3-1.3s0.1-1,0.3-1.3c0.2-0.4,0.4-0.7,0.8-0.9s0.7-0.3,1.2-0.3s0.8,0.1,1.2,0.3s0.6,0.5,0.8,0.9
				s0.3,0.8,0.3,1.4v0.6c0,0.5,0.1,0.7,0.4,0.7s0.4-0.2,0.4-0.7v-1.3c0-0.5,0.1-0.9,0.2-1.2c0.1-0.3,0.3-0.5,0.4-0.7
				s0.4-0.3,0.6-0.3s0.4-0.1,0.6-0.1c0.6,0,1.1,0.2,1.4,0.7s0.5,1.1,0.5,2.1L21.8,151.5L21.8,151.5z M21,151.5v-0.4
				c0-1.2-0.4-1.8-1-1.8c-0.3,0-0.5,0.1-0.7,0.3s-0.3,0.6-0.3,1.1v1.1c0,0.4,0.1,0.7,0.2,1s0.4,0.4,0.8,0.4s0.6-0.1,0.8-0.4
				C20.9,152.5,21,152.1,21,151.5L21,151.5z M16.6,151.4c0-0.5-0.1-0.9-0.4-1.1c-0.3-0.3-0.6-0.4-1.1-0.4s-0.9,0.1-1.1,0.4
				c-0.3,0.3-0.4,0.6-0.4,1.1s0.1,0.9,0.4,1.1c0.3,0.3,0.6,0.4,1.1,0.4s0.9-0.1,1.1-0.4S16.6,151.8,16.6,151.4z M13.6,150.3H13
				c-0.2,0-0.5-0.1-0.6-0.3s-0.2-0.4-0.2-0.7v-0.8h0.8v0.6c0,0.1,0,0.2,0.1,0.2c0,0,0.1,0.1,0.3,0.1h0.4L13.6,150.3L13.6,150.3z"/>
			<path id="SchibstedGrotesk-Regular-6e-2" class="st2" d="M19.4,147h-6.3v-0.9h1.4l-0.3,0c-0.4-0.2-0.7-0.4-0.9-0.8
				c-0.3-0.4-0.4-0.8-0.4-1.3c0-0.4,0.1-0.8,0.3-1.2c0.2-0.3,0.5-0.6,0.9-0.8c0.4-0.2,0.8-0.3,1.3-0.3h4v1h-3.9
				c-0.5,0-0.9,0.1-1.3,0.3c-0.3,0.2-0.5,0.6-0.5,1.1c0,0.5,0.2,1,0.6,1.3c0.4,0.4,1,0.5,1.7,0.5h3.3L19.4,147L19.4,147z"/>
			<path id="SchibstedGrotesk-Regular-69" class="st2" d="M19.4,140.1h-6.3v-1h6.3V140.1z M12,139.6c0,0.2-0.1,0.4-0.2,0.6
				s-0.4,0.2-0.6,0.2s-0.4-0.1-0.6-0.2c-0.2-0.2-0.2-0.4-0.2-0.6s0.1-0.4,0.2-0.6s0.4-0.2,0.6-0.2s0.4,0.1,0.6,0.2
				S12,139.3,12,139.6z"/>
			<path id="SchibstedGrotesk-Regular-74" class="st2" d="M19.4,135.8c0,0.2-0.1,0.5-0.2,0.7s-0.4,0.3-0.6,0.3h-4.6v1h-0.8v-1h-1.3
				l-0.2-1h1.5v-1.2h0.8v1.2h4.4c0.1,0,0.2,0,0.3-0.1s0.1-0.1,0.1-0.2v-1h0.8L19.4,135.8L19.4,135.8z"/>
			<path id="SchibstedGrotesk-Regular-75-2" class="st2" d="M19.5,131c0,0.4-0.1,0.8-0.3,1.1c-0.2,0.3-0.5,0.6-0.9,0.8
				s-0.8,0.3-1.3,0.3h-4v-1H17c0.5,0,0.9-0.1,1.3-0.3c0.3-0.2,0.5-0.6,0.5-1.1c0-0.4-0.1-0.7-0.3-1s-0.5-0.5-0.9-0.6
				c-0.4-0.1-0.9-0.2-1.5-0.2h-3v-1h6.3v0.9h-1.5l0.3,0c0.4,0.2,0.7,0.4,1,0.8C19.4,130.1,19.5,130.5,19.5,131L19.5,131z"/>
			<path id="SchibstedGrotesk-Regular-64" class="st2" d="M19.5,124c0,0.5-0.1,1-0.4,1.4c-0.3,0.4-0.6,0.7-1.1,0.9s-1.1,0.3-1.8,0.3
				s-1.3-0.1-1.8-0.3s-0.9-0.5-1.1-0.9c-0.3-0.4-0.4-0.8-0.4-1.3c0-0.4,0.1-0.8,0.3-1.2s0.6-0.7,1.1-0.9l0.1,0.1h-3.7v-1h8.8v0.9
				h-1.3l0.1,0c0.5,0.2,0.8,0.5,1,0.8C19.4,123.1,19.5,123.5,19.5,124L19.5,124z M18.7,123.7c0-0.3-0.1-0.6-0.3-0.9
				c-0.2-0.3-0.4-0.5-0.8-0.7c-0.4-0.2-0.8-0.2-1.4-0.2c-0.9,0-1.5,0.2-1.9,0.5s-0.6,0.8-0.6,1.3c0,0.5,0.2,0.9,0.6,1.3
				c0.4,0.3,1.1,0.5,1.9,0.5c0.8,0,1.4-0.2,1.8-0.5C18.5,124.7,18.7,124.2,18.7,123.7L18.7,123.7z"/>
			<path id="SchibstedGrotesk-Regular-65-3" class="st2" d="M19.5,116.5c0,0.6-0.1,1.1-0.4,1.6c-0.3,0.4-0.6,0.8-1.1,1
				c-0.5,0.2-1.1,0.4-1.8,0.4s-1.3-0.1-1.8-0.4s-0.9-0.6-1.1-1c-0.3-0.4-0.4-0.9-0.4-1.5c0-0.3,0.1-0.7,0.2-1
				c0.1-0.3,0.3-0.7,0.6-0.9c0.3-0.3,0.6-0.5,1.1-0.7s1-0.2,1.7-0.2v5.1h-0.8v-4.3l0.4,0.3c-0.6,0-1,0.1-1.3,0.3
				c-0.3,0.2-0.6,0.4-0.7,0.6s-0.2,0.5-0.2,0.8c0,0.4,0.1,0.7,0.3,1s0.5,0.5,0.9,0.6c0.4,0.1,0.8,0.2,1.4,0.2c0.8,0,1.4-0.2,1.8-0.5
				s0.6-0.8,0.6-1.4c0-0.4-0.1-0.8-0.3-1.1c-0.2-0.3-0.5-0.5-0.9-0.6l0.3-1c0.4,0.2,0.7,0.3,0.9,0.6c0.3,0.2,0.5,0.6,0.6,0.9
				C19.5,115.7,19.5,116.1,19.5,116.5L19.5,116.5z"/>
			<path id="SchibstedGrotesk-Regular-28-2" class="st2" d="M21.4,107.7c-0.8,0.6-1.6,1.1-2.5,1.4c-0.9,0.3-1.9,0.5-2.9,0.5
				s-1.9-0.2-2.9-0.5c-0.9-0.3-1.8-0.8-2.5-1.4v-1c0.9,0.7,1.8,1.2,2.6,1.5c0.9,0.3,1.8,0.5,2.8,0.5s1.9-0.2,2.8-0.5
				c0.9-0.3,1.7-0.8,2.6-1.5L21.4,107.7L21.4,107.7z"/>
			<path id="SchibstedGrotesk-Regular-64-2" class="st2" d="M19.5,103.3c0,0.5-0.1,1-0.4,1.4c-0.3,0.4-0.6,0.7-1.1,0.9
				s-1.1,0.3-1.8,0.3s-1.3-0.1-1.8-0.3s-0.9-0.5-1.1-0.9c-0.3-0.4-0.4-0.8-0.4-1.3c0-0.4,0.1-0.8,0.3-1.2s0.6-0.7,1.1-0.9l0.1,0.1
				h-3.7v-1h8.8v0.9h-1.3l0.1,0c0.5,0.2,0.8,0.5,1,0.8C19.4,102.4,19.5,102.8,19.5,103.3L19.5,103.3z M18.7,103
				c0-0.3-0.1-0.6-0.3-0.9c-0.2-0.3-0.4-0.5-0.8-0.7c-0.4-0.2-0.8-0.2-1.4-0.2c-0.9,0-1.5,0.2-1.9,0.5s-0.6,0.8-0.6,1.3
				c0,0.5,0.2,0.9,0.6,1.3c0.4,0.3,1.1,0.5,1.9,0.5c0.8,0,1.4-0.2,1.8-0.5C18.5,104,18.7,103.5,18.7,103L18.7,103z"/>
			<path id="SchibstedGrotesk-Regular-42" class="st2" d="M19.4,98.3h-8.4v-3.2c0-0.8,0.2-1.5,0.5-2s0.8-0.7,1.5-0.7
				c0.4,0,0.7,0.1,1,0.3c0.3,0.2,0.5,0.4,0.6,0.7c0.1,0.3,0.2,0.6,0.3,0.9l0,0c0.1-0.6,0.3-1.1,0.7-1.5c0.4-0.4,0.9-0.6,1.6-0.6
				c0.6,0,1,0.1,1.3,0.4s0.6,0.6,0.7,1c0.1,0.4,0.2,0.9,0.2,1.4V98.3L19.4,98.3z M18.5,97.3v-2.4c0-0.5-0.1-0.8-0.2-1.1
				s-0.4-0.4-0.6-0.5s-0.5-0.2-0.8-0.2c-0.4,0-0.7,0.1-0.9,0.3c-0.2,0.2-0.4,0.4-0.6,0.7s-0.2,0.7-0.2,1.1v2L18.5,97.3L18.5,97.3z
				 M14.4,97.3v-2.1c0-0.5-0.1-0.9-0.3-1.2c-0.2-0.3-0.5-0.5-1-0.5c-0.4,0-0.7,0.1-0.9,0.4s-0.4,0.7-0.4,1.2v2.2L14.4,97.3
				L14.4,97.3z"/>
			<path id="SchibstedGrotesk-Regular-29-2" class="st2" d="M21.4,91.3c-0.9-0.7-1.7-1.2-2.6-1.5c-0.9-0.3-1.8-0.5-2.8-0.5
				s-1.9,0.2-2.8,0.5c-0.9,0.3-1.7,0.8-2.6,1.5v-1c0.8-0.6,1.6-1.1,2.5-1.4c0.9-0.3,1.9-0.5,2.9-0.5s1.9,0.2,2.9,0.5
				s1.8,0.8,2.5,1.4L21.4,91.3L21.4,91.3z"/>
		</g>
	</g>
</g>
<g>
	<defs>
		<rect id="SVGID_00000024688743801545570650000002461491753660168115_" x="51.2" y="15.5" width="658" height="229.7"/>
	</defs>
	<clipPath id="SVGID_00000109737408141178798660000000029250478603674798_">
		<use xlink:href="#SVGID_00000024688743801545570650000002461491753660168115_"  style="overflow:visible;"/>
	</clipPath>
	<g style="clip-path:url(#SVGID_00000109737408141178798660000000029250478603674798_);">
		<path class="st31" d="M58.3,123.2l66-26.5l38.6-25.6l27.4-12.5l21.2-6.5l17.4-6.3l14.7-8.7l23.9-16l10-3.9l9.1-1l8.3,2.7l7.6,5.2
			l7.1,6.5l6.6,4.2l6.1,3.6l5.8,10.8l5.4,97l5.1-103.6l4.9-16.6l4.6-5.1l4.4,2.3l4.2,7l4,3.4l3.9-4.7l3.7-5.4l3.6-0.1l3.5,10.5
			l3.3,42.7l3.2-21.9l3.1-4.3l3-10.8l2.9-15l2.8-7l2.8-1.5l2.7,3.2l2.6,6.4l2.5-4l2.5-4.5l2.4,6.7l2.4,22.4l2.3-7.9l2.2-6.1l2.2,5.1
			l2.1-6.6l2.1-11.3l2-4.1l2,3l2,9.4l1.9,4.4l1.9-1.5l1.9,5.2l1.8,15.9l1.8,42.9l1.8-21.7l1.7-9.4l1.7,19.3l1.7-11l1.6-22.9l1.6-3.8
			l1.6,8.4l1.5,7.2l1.5-8.7l1.5-5.1l1.5-0.5l1.5,4.4l1.4-4.4l1.4-7.2l1.4,6.7l1.4,51.6l1.4-62.5l1.3-12.2l1.3-1.2l1.3,8l1.3,30.3
			l1.3-14.8l1.2-19.1l1.2,0l1.2,19.1l1.2-7.1l1.2-14.9l1.2,1.9l1.1,17.1l1.1,12.4l1.1-19.4l1.1-3.8l1.1,5.7l1.1,15.1l1.1,11.8
			l1.1-2.2l1,1.6l1-2.8l1-0.8l2,9.6l1-0.5l1-4.9l1,1.6l1,10.7l1,6.7l1-2.5l0.9,13.8l0.9,18.7l0.9-21.8l0.9-6.6l0.9-4.3l0.9-0.9
			l0.9,4.7l0.9,7.6l0.9,14l0.9-1.3l0.9-1.8l0.9,0.5l0.8-1.2l0.8-6.5L511,80l0.8-10.9l0.8-5.3l0.8-2.8l0.8-0.2l0.8,5.4l0.8,7.1
			l0.8-5.5l0.8-6.7l0.8,0.8l0.8,12.4l0.8-4.1l0.8-20.5l0.7-6.8l0.7,2.6l0.7,9.3l0.7,4.1l0.7-0.3l0.7,7.7l0.7,21.6l0.7-0.2l0.7-11.6
			l0.7,2.5l0.7,10.2l0.7-7.6l0.7-3.7l0.7,8.8l0.7,18l0.7-4.1l0.7-11.7l0.7-0.3l0.7,2.9l0.7-2.6l0.6,0.8l1.3,16.3l0.6-3.8l0.6-5.2
			l0.6-2.6l0.6,5.7l0.6,2.7l0.6-7.6l0.6-1.3l0.6,10.4l0.6,1.9l0.6-2.3l0.6,9.7l0.6,26.4l0.6-21.7l0.6-13.4l0.6-1.1l0.6,1.5l0.6,3.7
			l0.6-1.8l0.6,6.2L548,130l1.1-24.4l0.5-2l0.5,7.7l0.5,4.9l0.5-17.2l0.5-0.5l0.5,20.4l1.1-28.1l0.5,1.8l0.5,18l0.5,2.4l0.5-22.4
			l0.5-3.6l0.5,12.8l0.5,34.8l0.5-41.5l0.5-5.4l0.5,11.3L559,115l0.5-20.6l0.5-7.6l0.5,0.8l0.5,9.5l0.5,35.7l0.5-25.9l0.5-9.7
			l0.5,9.2l0.5,34.9l0.9-12.7l0.5,24.3l0.5,6.2l0.5-35.7l0.5-9l0.5,3.1l0.5,11.4l0.5-10.5l0.5-2.7l0.9,34.1l0.5-32.9l0.4-8.7
			l0.4,1.2l0.4,5.2l0.4-3.1l0.4-5.4l0.4,2.2l0.4,13.8l0.4-1.4l0.4-8.8l0.4-2.7l0.4,10.2l0.4,6.7l0.4-18.5l0.4-9.9l0.4,1.5l0.8,4.5
			l0.4,10.9l0.4,17.7l0.4-16l0.4-6.9l0.4-0.1l0.4,6.2l0.4-1.3l0.4,0.9l0.4,2.3l0.4,3.3l0.4,6.8l0.4,18.3l0.4,35l0.4-37.1l0.4-16.5
			l0.4-2l0.4,18.5l0.4,7.8l0.4-26.5l0.4-2.3l0.4,9.1l0.4,15.5l0.4-12.2l0.4-6.5l0.4,4.7l0.4,31.5l0.4-27.3l0.4-10.4l0.4,4.6
			l0.4,37.1l0.4-30.3l0.4-12.5l0.4-3.3l0.4,4.3l0.4,0.4l0.4,6.9l0.4,19.2l0.3-6l0.3-19.4l0.3,1.6l0.3,7.1l0.3,20l0.3-7.7l0.3-12.7
			l0.3,0.7l0.3,9.3l0.7,29.2l0.3,6.5l0.3,21.8l0.3-9.7l0.3,0.9l0.3-2.8l0.3-6.6l0.3,1.2l0.3,1.7l1,32.7l0.7-23.7l0.3-4.9l0.3-1.1
			l0.3,3.3l0.3,11l0.3,2.4l0.3,9.9l0.3-13.6l0.3-4.6l0.3,11.1l0.3,6.8l0.3-0.5l0.6-16.6l0.3,1.8l0.3-4.4l0.3,11.7l0.3,18l0.3,5.9
			l0.3-20.3l0.3-10l0.3-5l0.3,7.5l0.3,1.6l0.3-13.8l0.3,7.1l0.3,26.2l0.3-7.3l0.3-20.3l0.3-9.6l0.3,14l0.3,21.5l0.3-19.9l0.3-3.4
			l0.3,3.1l0.3-5.6l0.3,17.8l0.3,38.6l0.3-49l0.3,6l0.6-23.7l0.3,7.5l0.3,24.8l0.3-15.1l0.3,3.3l0.3,12.5l0.3-31.8l0.3-5.9l0.3,0.9
			l0.6,20.6l0.3-28.9l0.3-5.6l0.3,3.9l0.5-7.1l0.3,7.9l0.3,35.7l0.5-48.2l0.3-5.1l0.3,3.8l0.3-0.9l0.3,9.2l0.3,16.1l0.3-43.2l0.3-12
			l0.3,1.9l0.3,14.5l0.3,1.3l0.3-11.2l0.3,6.5l0.3,9.6l0.3-13.7l0.3-6.1l0.5,20l0.5-24.8l0.3,3.6l0.3,19.7l0.3,41.4l0.2-38.1
			l0.2-1.3l0.2-4.7l0.2-1.2l0.2-4.7l0.2-1.3l0.5,45.8l0.2-35.2l0.2-4.9l0.2,8.5l0.5,38.6l0.2-14.6l0.2-3.3l0.5-27.1l0.2-1l0.2,14.2
			l0.5,34.8l0.2-19.9l0.2,7.7l0.5-19.3l0.2-6.1l0.2,9.4l0.2,1.7l0.2-18.2l0.2-3.1l0.2,6l0.5,20.2l0.2-18.5l0.2,1l0.2,5.9l0.2-3.1
			l0.2-0.6l0.2,8.9l0.2,39.7l0.2-37.8l0.2-15l0.2-7.1l0.7,11.5l0.2,13.3l0.5-27.9l0.2,2.7l0.2,7.9l0.2-3.3l0.2,11.2l0.2,24.5
			l0.2-27.9l0.2-5l0.2,9.6l0.2,21.6l0.4-29.8l0.2,9l0.4-19.9l0.2,0.9l0.4,6.7l0.2,6.5l0.2,20.7l0.2-31.6l0.2-1.1l0.2,18.6l0.2,5.2
			l0.2-26.1l0.2,5.5l0.2,19.4l0.2,3.9l0.2-11.3l0.2,2.4l0.2-8.4l0.2,0.3l0.4-28.4l0.2-0.1l0.2,10.7l0.2,30.3l0.2-28.6l0.2-11.1
			l0.2,0.7l0.2,5.9l0.4,41.4l0.4-21.5l0.4-4.6l0.2,1.6l0.2-2.3l0.4-21.6l0.2-2.5l0.2,12l0.2,20.4l0.2-14.6l0.2-3l0.2,11.9l0.2,40
			l0.2-40.2l0.2,5.8l0.2,44.2l0.2-55.9l0.2-9.8l0.4,11.8l0.2,8.8l0.2,14.4l0.4-28l0.2,0.2l0.2,6l0.2,28.9l0.4-31.2l0.4-4.2l0.4,3.1
			l0.2,5.9l0.4-12.6l0.2-7.6l0.4,22.6l0.2,6.3l0.2-6.2l0.2,2l0.4,8.5l0.2-17.8l0.2-4.6l0.2,19.5l0.2,6.6l0.2-27l0.2,1l0.2,8
			l0.4-13.6l0.2,7.9l0.2,18.5l0.2,4.6l0.2-27.5l0.2-1l0.2,2.4l0.2,4.1l0.2,17.4l0.2,39.9l0.2-45l0.4-17.8l0.2-2.3l0.2,20.2l0.2-5.9
			l0.2-10.9l0.2-0.9l0.2,19l0.2-0.8l0.2-23.9l0.2-2.8l0.3,23.4l0.2-10.6l0.2,2.8l0.2,31.1l0.3-37.6l0.2,2.9l0.2,18.5l0.5-28.6
			l0.2,6.7l0.3-4.2l0.2,13.5l0.2-5.8l0.2-11.3l0.2-1.4l0.2,8.8l0.3,26.1l0.3-21.8l0.2,0.5l0.3-4.2l0.3,14l0.2,103.6l0.2-105.9
			l0.2-3.5l0.2,7.3l0.2-0.6l0.2,1.5l0.2,0.1l0.5-10.3l0.3,26.5l0.2-23.5l0.2-6.1l0.3,11.6l0.2-9.1l0.2,1.3l0.3,40l0.2-43.6l0.2-9.3
			l0.2,1.4l0.3,21.6l0.2-14l0.2,0.7l0.2,28.9l0.3-40l0.3,43.9l0.2-28.8l0.2-5.2l0.3,15.9l0.3-21.5l0.2,9.6l0.2,23.6l0.2-34.5
			l0.2-6.9l0.5,46.7l0.2-23l0.2,1.4l0.2,23.8l0.3-18.8l0.2,2.4l0.2-0.2l0.2,10.7l0.2,33.3l0.2-39.1l0.2-5.9l0.2,1.9l0.2-1.2
			l0.2,28.4l0.5-37l0.2,23.6l0.2-7.1l0.3-24.3l0.2,8.6l0.2,27.4l0.3-24.2l0.2,8l0.2,14.7l0.3-11.1l0.2,1l0.3,40.3l0.2-37.3l0.2,0.1
			l0.3,12.9l0.2-0.7l0.4-13l0.2-3.1l0.2,1.4l0.3,11.7l0.1,7.7l0.1,27.5l0.1,4.9l0.1-18l0.1,10.5l0.1,20.8l0.3-29.8l0.3,11.1
			l0.1-20.3l0.1,1.9l0.1,10.1l0.1-12.5l0.1,3.4l0.3-7l0.1,2.6l0.3,16.5l0.1-11.1l0.1-1.9l0.1,0.9l0.4,7.2l0.1-9.6l0.1-1.6l0.3,9.8
			l0.1-0.5l0.3-6.6l0.1,18.3l0.1-4.2l0.1-14.5l0.1,13.1l0.1,2l0.1,6.1l0.1,12l0.3-7.3l0.1,1.8l0.3,33l0.1-32.4l0.1-5.2l0.3,10.8
			l0.1,2l0.1,7.6l0.1-5.5l0.1-16.4l0.1,1.5l0.1-0.2l0.4-24.3l0.3,12.2l0.1-15.3l0.1,12.1l0.1-4.3l0.1,2l0.1,7.7l0.1-2.8l0.3,8.4
			l0.1,31.9l0.1-15.8l0.1,4.6l0.1,29.2l0.1,0.5l0.1-1.8l0.4-23.9l0.3-6.6l0.3,18.4l0.1,31.7 M687.7,288.8l0.2-37.7l0.1,6.2l0.1,0.4
			l0.1,6.4l0.1,18.2l0.1,1.7l0.2-28.6l0.1-0.4l0.1,10.6l0.1,23.3 M689.2,288.8l0.2-35.9l0.1-0.5l0.2-2.8l0.1,9.8l0.1,27.8l0.2-45.5
			l0.1-3.4l0.1,2.8l0.2,20.4l0.1,27.4 M691.2,288.8l0.1-28.7l0.2-19.1l0.1-2.5l0.1,2.6l0.1,10.8l0.1,27.1l0.2-27.6l0.1-2l0.1,4
			l0.1-1.5l0.1,7.1l0.1,30 M692.9,288.8l0.2-35.4l0.1,0.4l0.4,29l0.1-1.4l0.4-33.9l0.1-0.7l0.2,8.6l0.4-15.7l0.2-5.1l0.1,1.5
			l0.6,52.7 M696,288.8l0-4.1L696,288.8 M696.3,288.8l0.2-30.9l0.2-7.3l0.1,2.3l0.2,17.3l0.1,18.5 M697.5,288.7V287V288.7
			 M698.3,288.7l0.2-37.1l0.1-3.9l0.1,4.5l0.2,23.7l0.2-29.6l0.2,8.2l0.1-2.4l0.1-6.3l0.2,8.4l0.3,34.6 M704.5,288.7l0.3-38.5l0.1-1
			l0.1,2.9l0.3,36.5 M706.9,288.7l0.4-39.9l0.1,3.1l0.2,24.5l0.1,12.3 M707.8,288.7l0.1-2.7L707.8,288.7"/>
	</g>
</g>
<rect x="51.2" y="14.4" class="st1" width="658" height="230.7"/>
<g id="patch_3">
	<path class="st32" d="M51.2,245.1V14.4"/>
</g>
<g id="patch_4">
	<path class="st32" d="M51.2,245.1h658"/>
</g>
</svg>
