<?xml version="1.0" encoding="utf-8"?>
<!-- Generator: Adobe Illustrator 27.5.0, SVG Export Plug-In . SVG Version: 6.00 Build 0)  -->
<svg version="1.1" id="Ebene_5" xmlns="http://www.w3.org/2000/svg" xmlns:xlink="http://www.w3.org/1999/xlink" x="0px" y="0px"
	 viewBox="0 0 678.24 266.4" style="enable-background:new 0 0 678.24 266.4;" xml:space="preserve">
<style type="text/css">
	.st0{fill-rule:evenodd;clip-rule:evenodd;fill:#C9D1D9;}
</style>
<path id="path3040" class="st0" d="M17.21,139.79c0.09-0.05,0.19-0.1,0.28-0.16v-21.88c-0.09-0.05-0.19-0.12-0.28-0.16V139.79z
	 M17.48,117.75c3.11,1.66,11.42,10.68,21.13,6.98c10.47,6.68,18.75-1.04,30.51-0.16c10.15-0.39,23.81,12.73,24.16-1.66
	c-0.29-8.26,8.77-6.05,10.13,0.47c2.69,9.41,11.9,3.39,12.89-2.6c4.38-13.26,8.93,1.01,13.13,5.83c9.72,1.15,23.76-2.51,33.27,3.47
	c10.8,1.28,18.91-5.37,30.16-2.44c17.04,5.82,25.84-6.84,38.67-9.62c6.65,8.71,18.91,5.17,28.46,5.36
	c7.52,10.66,15.3,0.65,23.34-3.63c10.24-9.12,15.08,2.46,20.89,7.33c4.19-4.26,11.29-16.17,16.2-4.65c2.25,7.26,9.4,8.17,13.09,0.47
	c7.67-13.2,13.87,0.69,15.22,7.17c-0.09,2.31-1.42,4.69-2.25,7.13c-0.87,8.11-8.73,9.37-12.97,1.34
	c-7.73-13.64-12.01,2.12-19.04,5.99c-6.17-3.47-10.2-16.64-15.77-4.57c-7.7,14.89-22.62-8.1-32.28-6.46
	c-6.14,10.54-18.66-0.28-27.91,5.44c-7.88,10.04-18.26-0.24-25.43-4.81c-13.11-4.02-29.93,4.06-42.14-2.76
	c-11.61-2.21-18.73,6.85-30.43,3.67c-15.94-10.34-15.58,21.81-23.45,7.06c-1.39-8.33-12.44-13.19-15.06-1.77
	c-7.5,11.06-8.44-5.44-12.38-8.95c-11.08,3.85-26.71,9.24-38.39,2.01c-8.77,3.93-25.51,1.38-33.74,6.23v109.31h645.76v-142.7h-31.97
	c-14.99,0-27.08-12.05-27.08-27.04V11.52h-30.75V79.2c0,14.99-12.05,27.04-27.04,27.04H308.99c-14.99,0-27.04-12.05-27.04-27.04
	V11.52h-39.38V79.2c0,14.99-12.05,27.04-27.04,27.04H17.48V117.75z M51.15,203.88v-37.13c0-3.34,2.69-6.03,6.03-6.03h19.91
	c3.34,0,6.03,2.69,6.03,6.03v37.13c0,3.34-2.69,6.03-6.03,6.03H57.18C53.84,209.92,51.15,207.23,51.15,203.88z M133.38,203.88
	v-37.13c0-3.34,2.69-6.03,6.03-6.03h19.91c3.34,0,6.03,2.69,6.03,6.03v37.13c0,3.34-2.69,6.03-6.03,6.03h-19.91
	C136.07,209.92,133.38,207.23,133.38,203.88z M163.33,130.76c0,0.16,2.21,0.3,6.66-0.04C165.55,130.41,163.34,130.6,163.33,130.76z
	 M215.6,203.88v-37.13c0-3.34,2.69-6.03,6.03-6.03h19.91c3.34,0,6.03,2.69,6.03,6.03v37.13c0,3.34-2.69,6.03-6.03,6.03h-19.91
	C218.29,209.92,215.6,207.23,215.6,203.88z M297.83,203.88v-37.13c0-3.34,2.69-6.03,6.03-6.03h19.91c3.34,0,6.03,2.69,6.03,6.03
	v37.13c0,3.34-2.69,6.03-6.03,6.03h-19.91C300.52,209.92,297.83,207.23,297.83,203.88z M350.14,131.39
	c0.02-0.17,0.05-0.48,0.08-0.67c-0.02-0.18-0.06-0.47-0.08-0.63h0.16c0.69-5.43,1.8-16.34,5.28-13.48
	c4.95,4.06,5.68,9.14,9.18,12.34c4.24,3.87,2.52-12.02,8.51-12.02c2.98,0,5.03,7.61,6.11,9.58c3.94,7.2,3.11-9.9,8.51-10.68
	c6.05-0.88,15.98,12.96,16.16,13.13c3.04,2.78,0.63-15.66,11.9-5.36c7.66,7,6.6,2.68,13.36-5.56c4.17-5.07,10.24,8.59,13.44,10.05
	c10.85,4.95,14.44-9.08,25.58,1.1c0.39,0.36,0.78,0.66,1.18,0.91h7.69c2.1-1,3.8-2.48,4.53-3.15c4.88-4.45,7.64-2.05,14.62,1.14
	c4.67,2.13,5.05-10.59,7.33-13.36c3.71-4.52,1.89,13.12,7.96,14.23c6.96,1.27,1.67-10.61,8.55-12.18c4.11-0.94,1.35,11.6,4.93,13.32
	h2.01c1.15-0.39,2.64-1.38,4.57-3.15c8.57-7.82,14.62-6.3,19.51,1.14c1.59,2.42,5.51-4.04,8.51-3.35c9.49,2.17,9.24,8.27,13.64-7.8
	c1.23-4.51,2.37,8.1,4.65,12.26c0.19,0.35,0.41,0.65,0.67,0.91h3.39c-0.95,0.05-1.77,0.24-2.48,0.63c1.91,1.04,4.75,0.65,7.8,0
	c-1.52-0.33-3-0.58-4.34-0.63h7.25c2.11-0.48,4.21-0.91,5.99-0.91c6.65,0,3.54-4.8,17.07-3.35c10.12,1.08,7.34-11.31,15.06-12.22
	c7.48-0.88,2.76,9.84,16.6,9.97c7.82,0.08,10.56,4.21,14.11,6.5h2.96c-0.66,0.15-1.24,0.35-1.81,0.63c0.58,0.28,1.15,0.52,1.81,0.67
	h-2.96c-3.55,2.3-6.29,6.43-14.11,6.5c-13.83,0.14-9.12,10.85-16.6,9.97c-7.72-0.91-4.94-13.3-15.06-12.22
	c-13.52,1.45-10.42-3.35-17.07-3.35c-1.78,0-3.88-0.43-5.99-0.91h-11.63c-0.26,0.26-0.48,0.55-0.67,0.91
	c-2.28,4.16-3.42,16.77-4.65,12.26c-4.4-16.08-4.15-9.97-13.64-7.8c-3,0.69-6.92-5.73-8.51-3.31c-4.89,7.44-10.95,8.93-19.51,1.1
	c-1.96-1.79-3.46-2.77-4.61-3.15h-1.97c-3.58,1.72-0.82,14.26-4.93,13.32c-6.88-1.57-1.6-13.45-8.55-12.18
	c-6.07,1.11-4.25,18.75-7.96,14.23c-2.28-2.78-2.66-15.46-7.33-13.32c-6.98,3.19-9.75,5.56-14.62,1.1
	c-0.74-0.68-2.45-2.16-4.57-3.15h-7.61c-0.41,0.25-0.82,0.54-1.22,0.91c-11.15,10.18-14.73-3.81-25.58,1.14
	c-3.2,1.46-9.28,15.08-13.44,10.01c-6.76-8.23-5.7-12.56-13.36-5.56c-11.28,10.3-8.86-8.14-11.9-5.36
	c-0.19,0.17-10.11,14.01-16.16,13.13c-5.4-0.79-4.57-17.88-8.51-10.68c-1.08,1.97-3.13,9.58-6.11,9.58c-6,0-4.27-15.9-8.51-12.02
	c-3.51,3.2-4.23,8.28-9.18,12.34c-3.49,2.86-4.59-8.05-5.28-13.48H350.14z M380.02,203.88v-37.13c0-3.34,2.69-6.03,6.03-6.03H406
	c3.34,0,6.03,2.69,6.03,6.03v37.13c0,3.34-2.69,6.03-6.03,6.03h-19.95C382.71,209.92,380.02,207.23,380.02,203.88z M462.25,203.88
	v-37.13c0-3.34,2.69-6.03,6.03-6.03h19.95c3.34,0,6.03,2.69,6.03,6.03v37.13c0,3.34-2.69,6.03-6.03,6.03h-19.95
	C464.94,209.92,462.25,207.23,462.25,203.88z M470.96,130.76c1.54,0.52,3.09,0.38,4.53-0.04
	C474.05,130.31,472.49,130.24,470.96,130.76z M544.48,203.88v-37.13c0-3.34,2.69-6.03,6.03-6.03h19.91c3.34,0,6.03,2.69,6.03,6.03
	v37.13c0,3.34-2.69,6.03-6.03,6.03h-19.91C547.17,209.92,544.48,207.23,544.48,203.88z M626.7,203.88v-37.13
	c0-3.34,2.69-6.03,6.03-6.03h19.91c3.34,0,6.03,2.69,6.03,6.03v37.13c0,3.34-2.69,6.03-6.03,6.03h-19.91
	C629.39,209.92,626.7,207.23,626.7,203.88z"/>
</svg>
