<?xml version="1.0" encoding="UTF-8"?><svg xmlns="http://www.w3.org/2000/svg" viewBox="0 0 907.2 460.8"><defs><style>.uuid-1eebb950-e38c-429f-8819-6c1826b6ceaf{stroke-width:1.48px;}.uuid-1eebb950-e38c-429f-8819-6c1826b6ceaf,.uuid-32e21d96-20fc-4580-896b-dc4a2b15bcdd{stroke:#7f7f7f;}.uuid-1eebb950-e38c-429f-8819-6c1826b6ceaf,.uuid-32e21d96-20fc-4580-896b-dc4a2b15bcdd,.uuid-2913b71c-eb05-4542-9ede-764255ec571b{fill:none;stroke-miterlimit:10;}.uuid-ebc075ba-c088-4dbe-a935-828efe4bc09d{fill:#307eef;opacity:.5;stroke-width:0px;}.uuid-cbe905ce-7697-4271-90ff-c4645959ff4b{fill:#bbc3cb;font-family:Roboto-Regular, Roboto;font-size:24px;}.uuid-32e21d96-20fc-4580-896b-dc4a2b15bcdd{stroke-width:2.83px;}.uuid-2913b71c-eb05-4542-9ede-764255ec571b{stroke:#307eef;stroke-width:5.67px;}</style></defs><g id="uuid-90461f83-caac-4fbd-802f-db23c0c277f6"><text class="uuid-cbe905ce-7697-4271-90ff-c4645959ff4b" transform="translate(72 439.2)"><tspan x="0" y="0">20</tspan></text><text class="uuid-cbe905ce-7697-4271-90ff-c4645959ff4b" transform="translate(194.4 439.2)"><tspan x="0" y="0">60</tspan></text><text class="uuid-cbe905ce-7697-4271-90ff-c4645959ff4b" transform="translate(324 439.2)"><tspan x="0" y="0">200</tspan></text><text class="uuid-cbe905ce-7697-4271-90ff-c4645959ff4b" transform="translate(518.4 439.2)"><tspan x="0" y="0">1k</tspan></text><text class="uuid-cbe905ce-7697-4271-90ff-c4645959ff4b" transform="translate(640.8 439.2)"><tspan x="0" y="0">3k</tspan></text><text class="uuid-cbe905ce-7697-4271-90ff-c4645959ff4b" transform="translate(846 439.2)"><tspan x="0" y="0">20k</tspan></text><rect class="uuid-32e21d96-20fc-4580-896b-dc4a2b15bcdd" x="86.4" y="36" width="792" height="360"/><text class="uuid-cbe905ce-7697-4271-90ff-c4645959ff4b" transform="translate(766.8 439.2)"><tspan x="0" y="0">10k</tspan></text><text class="uuid-cbe905ce-7697-4271-90ff-c4645959ff4b" transform="translate(43.12 181.52)"><tspan x="0" y="0">+6</tspan></text><text class="uuid-cbe905ce-7697-4271-90ff-c4645959ff4b" transform="translate(29.64 46.52)"><tspan x="0" y="0">+24</tspan></text><line class="uuid-1eebb950-e38c-429f-8819-6c1826b6ceaf" x1="355.39" y1="36.8" x2="355.39" y2="396.8"/><line class="uuid-1eebb950-e38c-429f-8819-6c1826b6ceaf" x1="401.25" y1="36.8" x2="401.25" y2="396.8"/><line class="uuid-1eebb950-e38c-429f-8819-6c1826b6ceaf" x1="433.93" y1="36.8" x2="433.93" y2="396.8"/><line class="uuid-1eebb950-e38c-429f-8819-6c1826b6ceaf" x1="459.53" y1="36.8" x2="459.53" y2="396.8"/><line class="uuid-1eebb950-e38c-429f-8819-6c1826b6ceaf" x1="479.98" y1="36.8" x2="479.98" y2="396.8"/><line class="uuid-1eebb950-e38c-429f-8819-6c1826b6ceaf" x1="497.75" y1="36.8" x2="497.75" y2="396.8"/><line class="uuid-1eebb950-e38c-429f-8819-6c1826b6ceaf" x1="512.66" y1="36.8" x2="512.66" y2="396.8"/><line class="uuid-1eebb950-e38c-429f-8819-6c1826b6ceaf" x1="526.42" y1="36.8" x2="526.42" y2="396.8"/><line class="uuid-1eebb950-e38c-429f-8819-6c1826b6ceaf" x1="538.07" y1="36.8" x2="538.07" y2="396.8"/><line class="uuid-1eebb950-e38c-429f-8819-6c1826b6ceaf" x1="616.61" y1="36.8" x2="616.61" y2="396.8"/><line class="uuid-1eebb950-e38c-429f-8819-6c1826b6ceaf" x1="663.23" y1="36.8" x2="663.23" y2="396.8"/><line class="uuid-1eebb950-e38c-429f-8819-6c1826b6ceaf" x1="695.72" y1="36.8" x2="695.72" y2="396.8"/><line class="uuid-1eebb950-e38c-429f-8819-6c1826b6ceaf" x1="721.33" y1="36.8" x2="721.33" y2="396.8"/><line class="uuid-1eebb950-e38c-429f-8819-6c1826b6ceaf" x1="741.77" y1="36.8" x2="741.77" y2="396.8"/><line class="uuid-1eebb950-e38c-429f-8819-6c1826b6ceaf" x1="759.16" y1="36.8" x2="759.16" y2="396.8"/><line class="uuid-1eebb950-e38c-429f-8819-6c1826b6ceaf" x1="774.45" y1="36.8" x2="774.45" y2="396.8"/><line class="uuid-1eebb950-e38c-429f-8819-6c1826b6ceaf" x1="787.63" y1="36.8" x2="787.63" y2="396.8"/><line class="uuid-1eebb950-e38c-429f-8819-6c1826b6ceaf" x1="799.86" y1="36.8" x2="799.86" y2="396.8"/><line class="uuid-1eebb950-e38c-429f-8819-6c1826b6ceaf" x1="873.81" y1="36.8" x2="873.81" y2="396.8"/><line class="uuid-1eebb950-e38c-429f-8819-6c1826b6ceaf" x1="878.4" y1="36.8" x2="878.4" y2="396.8"/><line class="uuid-32e21d96-20fc-4580-896b-dc4a2b15bcdd" x1="86.4" y1="216" x2="878.4" y2="216"/><text class="uuid-cbe905ce-7697-4271-90ff-c4645959ff4b" transform="translate(56.72 226.52)"><tspan x="0" y="0">0</tspan></text><text class="uuid-cbe905ce-7697-4271-90ff-c4645959ff4b" transform="translate(29.64 91.52)"><tspan x="0" y="0">+18</tspan></text><text class="uuid-cbe905ce-7697-4271-90ff-c4645959ff4b" transform="translate(36.63 406.52)"><tspan x="0" y="0">-24</tspan></text><text class="uuid-cbe905ce-7697-4271-90ff-c4645959ff4b" transform="translate(36.63 316.52)"><tspan x="0" y="0">-12</tspan></text><text class="uuid-cbe905ce-7697-4271-90ff-c4645959ff4b" transform="translate(50.1 271.67)"><tspan x="0" y="0">-6</tspan></text><line class="uuid-1eebb950-e38c-429f-8819-6c1826b6ceaf" x1="93.6" y1="36" x2="93.6" y2="396"/><line class="uuid-1eebb950-e38c-429f-8819-6c1826b6ceaf" x1="140.23" y1="36" x2="140.23" y2="396"/><line class="uuid-1eebb950-e38c-429f-8819-6c1826b6ceaf" x1="172.71" y1="36" x2="172.71" y2="396"/><line class="uuid-1eebb950-e38c-429f-8819-6c1826b6ceaf" x1="198.32" y1="36" x2="198.32" y2="396"/><line class="uuid-1eebb950-e38c-429f-8819-6c1826b6ceaf" x1="218.76" y1="36" x2="218.76" y2="396"/><line class="uuid-1eebb950-e38c-429f-8819-6c1826b6ceaf" x1="236.15" y1="36" x2="236.15" y2="396"/><line class="uuid-1eebb950-e38c-429f-8819-6c1826b6ceaf" x1="251.44" y1="36" x2="251.44" y2="396"/><line class="uuid-1eebb950-e38c-429f-8819-6c1826b6ceaf" x1="264.62" y1="36" x2="264.62" y2="396"/><line class="uuid-1eebb950-e38c-429f-8819-6c1826b6ceaf" x1="276.85" y1="36" x2="276.85" y2="396"/><text class="uuid-cbe905ce-7697-4271-90ff-c4645959ff4b" transform="translate(36.63 361.52)"><tspan x="0" y="0">-18</tspan></text><text class="uuid-cbe905ce-7697-4271-90ff-c4645959ff4b" transform="translate(29.64 136.55)"><tspan x="0" y="0">+12</tspan></text></g><g id="uuid-7f3bcd77-d845-40e1-93b2-9d7acf0a2c44"><path class="uuid-ebc075ba-c088-4dbe-a935-828efe4bc09d" d="M831.84,396c-3.31-4.4-6.62-8.39-12.84-14.89-5.23-5.47-9.78-9.55-16.02-14.91-10.57-9.07-17.88-15.35-30.56-24.9-22.4-16.88-41.28-28.73-64.7-43.35-14.73-9.2-26.07-15.91-38.75-23.42-5.97-3.53-20.15-11.9-38.7-22.28-3.02-1.69-22.33-12.46-39.07-19.96-3.83-1.72-8.57-3.73-14.27-5.81-3.94-1.44-8.26-3.02-13.96-4.55-4.53-1.22-10.34-2.75-18.18-3.54-10.21-1.03-18.14-.2-21.09.16-4.56.56-8.38,1.38-10.78,1.9-5.42,1.17-9.57,2.4-11.58,3.01-2.93.9-5.13,1.69-7.93,2.7-2.28.82-6.2,2.23-10.78,4.12-1.99.82-5.1,2.15-12.53,5.71-7.83,3.75-13.79,6.79-15.7,7.77-.77.4-11.76,6.02-21.09,11.1-34.23,18.63-105.78,60.9-105.78,60.9-21.83,12.9-37.35,21.96-59.47,34.89-34.83,20.35-59,34.31-78.19,45.34h641.98Z"/><path class="uuid-2913b71c-eb05-4542-9ede-764255ec571b" d="M189.86,396c19.2-11.04,43.36-24.99,78.19-45.34,22.12-12.93,37.64-21.99,59.47-34.89,0,0,71.55-42.27,105.78-60.9,9.33-5.08,20.32-10.7,21.09-11.1,1.91-.98,7.87-4.02,15.7-7.77,7.43-3.56,10.54-4.89,12.53-5.71,4.59-1.9,8.51-3.31,10.78-4.12,2.8-1.01,5-1.79,7.93-2.7,2-.62,6.16-1.84,11.58-3.01,2.4-.52,6.22-1.34,10.78-1.9,2.95-.36,10.88-1.18,21.09-.16,7.84.79,13.66,2.32,18.18,3.54,5.69,1.53,10.02,3.1,13.96,4.55,5.7,2.09,10.44,4.1,14.27,5.81,16.73,7.49,36.05,18.27,39.07,19.96,18.55,10.38,32.73,18.75,38.7,22.28,12.67,7.51,24.02,14.22,38.75,23.42,23.43,14.62,42.3,26.46,64.7,43.35,12.67,9.55,19.99,15.83,30.56,24.9,6.24,5.36,10.78,9.43,16.02,14.91,6.22,6.51,9.54,10.5,12.84,14.89"/></g></svg>