<?xml version="1.0" encoding="UTF-8"?><svg xmlns="http://www.w3.org/2000/svg" viewBox="0 0 907.2 460.8"><defs><style>.uuid-f76bd41d-01e4-4388-8d95-ac4541db12dc{stroke-width:1.48px;}.uuid-f76bd41d-01e4-4388-8d95-ac4541db12dc,.uuid-57c9935e-bfa8-4976-a413-be1defeede9f{stroke:#7f7f7f;}.uuid-f76bd41d-01e4-4388-8d95-ac4541db12dc,.uuid-57c9935e-bfa8-4976-a413-be1defeede9f,.uuid-3d0148f6-3881-4a15-a70a-07a47c5862a8{fill:none;stroke-miterlimit:10;}.uuid-dd249278-81b4-41ea-9792-253e50eecd33{fill:#307eef;opacity:.5;stroke-width:0px;}.uuid-d946483c-8d3f-4262-82f9-0f21aacefc25{fill:#bbc3cb;font-family:Roboto-Regular, Roboto;font-size:24px;}.uuid-57c9935e-bfa8-4976-a413-be1defeede9f{stroke-width:2.83px;}.uuid-3d0148f6-3881-4a15-a70a-07a47c5862a8{stroke:#307eef;stroke-width:5.67px;}</style></defs><g id="uuid-eb4c01e2-836c-489e-92e5-b147f919a322"><text class="uuid-d946483c-8d3f-4262-82f9-0f21aacefc25" transform="translate(72 432)"><tspan x="0" y="0">20</tspan></text><text class="uuid-d946483c-8d3f-4262-82f9-0f21aacefc25" transform="translate(194.4 432)"><tspan x="0" y="0">60</tspan></text><text class="uuid-d946483c-8d3f-4262-82f9-0f21aacefc25" transform="translate(324 432)"><tspan x="0" y="0">200</tspan></text><text class="uuid-d946483c-8d3f-4262-82f9-0f21aacefc25" transform="translate(518.4 432)"><tspan x="0" y="0">1k</tspan></text><text class="uuid-d946483c-8d3f-4262-82f9-0f21aacefc25" transform="translate(640.8 432)"><tspan x="0" y="0">3k</tspan></text><text class="uuid-d946483c-8d3f-4262-82f9-0f21aacefc25" transform="translate(846 432)"><tspan x="0" y="0">20k</tspan></text><rect class="uuid-57c9935e-bfa8-4976-a413-be1defeede9f" x="86.4" y="28.8" width="792" height="360"/><text class="uuid-d946483c-8d3f-4262-82f9-0f21aacefc25" transform="translate(766.8 432)"><tspan x="0" y="0">10k</tspan></text><text class="uuid-d946483c-8d3f-4262-82f9-0f21aacefc25" transform="translate(43.12 174.32)"><tspan x="0" y="0">+6</tspan></text><text class="uuid-d946483c-8d3f-4262-82f9-0f21aacefc25" transform="translate(29.64 39.32)"><tspan x="0" y="0">+24</tspan></text><line class="uuid-f76bd41d-01e4-4388-8d95-ac4541db12dc" x1="355.39" y1="29.6" x2="355.39" y2="389.6"/><line class="uuid-f76bd41d-01e4-4388-8d95-ac4541db12dc" x1="401.25" y1="29.6" x2="401.25" y2="389.6"/><line class="uuid-f76bd41d-01e4-4388-8d95-ac4541db12dc" x1="433.93" y1="29.6" x2="433.93" y2="389.6"/><line class="uuid-f76bd41d-01e4-4388-8d95-ac4541db12dc" x1="459.53" y1="29.6" x2="459.53" y2="389.6"/><line class="uuid-f76bd41d-01e4-4388-8d95-ac4541db12dc" x1="479.98" y1="29.6" x2="479.98" y2="389.6"/><line class="uuid-f76bd41d-01e4-4388-8d95-ac4541db12dc" x1="497.75" y1="29.6" x2="497.75" y2="389.6"/><line class="uuid-f76bd41d-01e4-4388-8d95-ac4541db12dc" x1="512.66" y1="29.6" x2="512.66" y2="389.6"/><line class="uuid-f76bd41d-01e4-4388-8d95-ac4541db12dc" x1="526.42" y1="29.6" x2="526.42" y2="389.6"/><line class="uuid-f76bd41d-01e4-4388-8d95-ac4541db12dc" x1="538.07" y1="29.6" x2="538.07" y2="389.6"/><line class="uuid-f76bd41d-01e4-4388-8d95-ac4541db12dc" x1="616.61" y1="29.6" x2="616.61" y2="389.6"/><line class="uuid-f76bd41d-01e4-4388-8d95-ac4541db12dc" x1="663.23" y1="29.6" x2="663.23" y2="389.6"/><line class="uuid-f76bd41d-01e4-4388-8d95-ac4541db12dc" x1="695.72" y1="29.6" x2="695.72" y2="389.6"/><line class="uuid-f76bd41d-01e4-4388-8d95-ac4541db12dc" x1="721.33" y1="29.6" x2="721.33" y2="389.6"/><line class="uuid-f76bd41d-01e4-4388-8d95-ac4541db12dc" x1="741.77" y1="29.6" x2="741.77" y2="389.6"/><line class="uuid-f76bd41d-01e4-4388-8d95-ac4541db12dc" x1="759.16" y1="29.6" x2="759.16" y2="389.6"/><line class="uuid-f76bd41d-01e4-4388-8d95-ac4541db12dc" x1="774.45" y1="29.6" x2="774.45" y2="389.6"/><line class="uuid-f76bd41d-01e4-4388-8d95-ac4541db12dc" x1="787.63" y1="29.6" x2="787.63" y2="389.6"/><line class="uuid-f76bd41d-01e4-4388-8d95-ac4541db12dc" x1="799.86" y1="29.6" x2="799.86" y2="389.6"/><line class="uuid-f76bd41d-01e4-4388-8d95-ac4541db12dc" x1="873.81" y1="29.6" x2="873.81" y2="389.6"/><line class="uuid-f76bd41d-01e4-4388-8d95-ac4541db12dc" x1="878.4" y1="29.6" x2="878.4" y2="389.6"/><line class="uuid-57c9935e-bfa8-4976-a413-be1defeede9f" x1="86.4" y1="208.8" x2="878.4" y2="208.8"/><text class="uuid-d946483c-8d3f-4262-82f9-0f21aacefc25" transform="translate(56.72 219.32)"><tspan x="0" y="0">0</tspan></text><text class="uuid-d946483c-8d3f-4262-82f9-0f21aacefc25" transform="translate(29.64 84.32)"><tspan x="0" y="0">+18</tspan></text><text class="uuid-d946483c-8d3f-4262-82f9-0f21aacefc25" transform="translate(36.63 399.32)"><tspan x="0" y="0">-24</tspan></text><text class="uuid-d946483c-8d3f-4262-82f9-0f21aacefc25" transform="translate(36.63 309.32)"><tspan x="0" y="0">-12</tspan></text><text class="uuid-d946483c-8d3f-4262-82f9-0f21aacefc25" transform="translate(50.1 264.47)"><tspan x="0" y="0">-6</tspan></text><line class="uuid-f76bd41d-01e4-4388-8d95-ac4541db12dc" x1="93.6" y1="28.8" x2="93.6" y2="388.8"/><line class="uuid-f76bd41d-01e4-4388-8d95-ac4541db12dc" x1="140.23" y1="28.8" x2="140.23" y2="388.8"/><line class="uuid-f76bd41d-01e4-4388-8d95-ac4541db12dc" x1="172.71" y1="28.8" x2="172.71" y2="388.8"/><line class="uuid-f76bd41d-01e4-4388-8d95-ac4541db12dc" x1="198.32" y1="28.8" x2="198.32" y2="388.8"/><line class="uuid-f76bd41d-01e4-4388-8d95-ac4541db12dc" x1="218.76" y1="28.8" x2="218.76" y2="388.8"/><line class="uuid-f76bd41d-01e4-4388-8d95-ac4541db12dc" x1="236.15" y1="28.8" x2="236.15" y2="388.8"/><line class="uuid-f76bd41d-01e4-4388-8d95-ac4541db12dc" x1="251.44" y1="28.8" x2="251.44" y2="388.8"/><line class="uuid-f76bd41d-01e4-4388-8d95-ac4541db12dc" x1="264.62" y1="28.8" x2="264.62" y2="388.8"/><line class="uuid-f76bd41d-01e4-4388-8d95-ac4541db12dc" x1="276.85" y1="28.8" x2="276.85" y2="388.8"/><text class="uuid-d946483c-8d3f-4262-82f9-0f21aacefc25" transform="translate(36.63 354.32)"><tspan x="0" y="0">-18</tspan></text><text class="uuid-d946483c-8d3f-4262-82f9-0f21aacefc25" transform="translate(29.64 129.35)"><tspan x="0" y="0">+12</tspan></text></g><g id="uuid-8c896ee3-0c64-4cc5-a9bb-8fc6ab02657c"><path class="uuid-dd249278-81b4-41ea-9792-253e50eecd33" d="M86.4,209.19c117.84.3,175.44.5,181.5.48.5,0,2.82,0,6.03,0,6.01.02,10.9.09,14.91.16,12.38.22,24.99.58,26.96.63,16.22.47,24.33.7,29.66.95,10.68.5,18.54,1.07,34.26,2.22,8.47.62,12.99,1,18.87,1.74,2.17.27,8.64,1.12,17.13,2.7,6.77,1.26,11.69,2.17,18.24,3.96,11.27,3.09,19.24,6.55,20.93,7.3,1.89.83,7.96,3.55,15.38,7.93,3.21,1.9,5.31,3.13,7.93,5.07,5.4,4,8.73,7.82,12.37,12.05,7.19,8.36,11.59,15.69,13.16,18.4,3.88,6.68,6.11,12.03,7.98,16.55,4.27,10.32,6.47,18.59,8.04,24.53,1.95,7.4,3,12.92,4.44,20.51,1.71,9,2.7,15.71,3.59,21.78,2.75,18.79,3.27,28.21,3.46,32.64H86.4v-179.61Z"/><path class="uuid-dd249278-81b4-41ea-9792-253e50eecd33" d="M878.4,209.6c-23.14.02-42.72.16-57.62.32-21.15.22-36.73.38-57.73.95-3.82.1-22.23.61-46.63,1.74,0,0-41.62,1.94-65.5,7.06-4.94,1.06-9.83,2.3-9.83,2.3-1.44.36-5.39,1.37-9.04,2.46-8.05,2.41-14.46,5.21-17.29,6.5-6.32,2.88-12.74,5.82-20.14,11.5-1.43,1.1-6.78,5.28-12.58,11.89-4.25,4.84-7.04,9.04-8.88,11.84-.65.99-3.28,5.01-6.34,10.78-1.31,2.48-4.3,8.27-7.4,16.23-5.28,13.55-8,25.94-9.83,34.41-3.18,14.72-4.57,26.11-5.79,36.24-1.36,11.35-1.93,18.01-2.37,24.97h336.97s.64-178.53.64-178.53"/><path class="uuid-3d0148f6-3881-4a15-a70a-07a47c5862a8" d="M86.4,209.6c117.84.3,175.44.5,181.5.48.5,0,2.82,0,6.03,0,6.01.02,10.9.09,14.91.16,12.38.22,24.99.58,26.96.63,16.22.47,24.33.7,29.66.95,10.68.5,18.54,1.07,34.26,2.22,8.47.62,12.99,1,18.87,1.74,2.17.27,8.64,1.12,17.13,2.7,6.77,1.26,11.69,2.17,18.24,3.96,11.27,3.09,19.24,6.55,20.93,7.3,1.89.83,7.96,3.55,15.38,7.93,3.21,1.9,5.31,3.13,7.93,5.07,5.4,4,8.73,7.82,12.37,12.05,7.19,8.36,11.59,15.69,13.16,18.4,3.88,6.68,6.11,12.03,7.98,16.55,4.27,10.32,6.47,18.59,8.04,24.53,1.95,7.4,3,12.92,4.44,20.51,1.71,9,2.7,15.71,3.59,21.78,2.75,18.79,3.27,27.8,3.46,32.23"/><path class="uuid-3d0148f6-3881-4a15-a70a-07a47c5862a8" d="M541.43,388.8c.44-6.97,1.29-13.93,2.65-25.28,1.22-10.13,2.61-21.51,5.79-36.24,1.83-8.48,4.55-20.86,9.83-34.41,3.1-7.96,6.09-13.75,7.4-16.23,3.07-5.78,5.69-9.8,6.34-10.78,1.85-2.8,4.63-7,8.88-11.84,5.81-6.62,11.15-10.8,12.58-11.89,7.4-5.68,13.83-8.62,20.14-11.5,2.83-1.29,9.23-4.09,17.29-6.5,3.65-1.09,7.6-2.09,9.04-2.46,0,0,4.89-1.24,9.83-2.3,23.87-5.12,65.5-7.06,65.5-7.06,24.39-1.13,42.8-1.64,46.63-1.74,21-.57,36.58-.73,57.73-.95,14.9-.15,34.48-.3,57.62-.32"/></g></svg>