<?xml version="1.0" encoding="UTF-8"?>
<svg xmlns="http://www.w3.org/2000/svg" viewBox="0 0 1224 626.4">
  <defs>
    <style>
      .cls-1 {
        letter-spacing: 0em;
      }

      .cls-2 {
        opacity: .1;
      }

      .cls-2, .cls-3, .cls-4 {
        fill: #c9d1d9;
      }

      .cls-5 {
        fill: #7f7f7f;
      }

      .cls-6 {
        letter-spacing: -.01em;
      }

      .cls-7 {
        stroke-width: 2.83px;
      }

      .cls-7, .cls-8, .cls-9 {
        stroke-miterlimit: 10;
      }

      .cls-7, .cls-8, .cls-9, .cls-10, .cls-11 {
        fill: none;
      }

      .cls-7, .cls-8, .cls-10 {
        stroke: #c9d1d9;
      }

      .cls-8 {
        stroke-dasharray: 0 0 5.55 5.55;
        stroke-width: 2.16px;
      }

      .cls-9 {
        stroke: #7f7f7f;
        stroke-width: 4.14px;
      }

      .cls-10 {
        stroke-width: 2px;
      }

      .cls-10, .cls-11 {
        stroke-linejoin: round;
      }

      .cls-11 {
        stroke: #307eef;
        stroke-linecap: square;
        stroke-width: 5px;
      }

      .cls-4 {
        font-family: Roboto-Regular, Roboto;
        font-size: 48px;
      }
    </style>
  </defs>
  <g id="Ebene_13" data-name="Ebene 13">
    <path class="cls-11" d="m922.97,547.2c-1.3-4.13-2.13-6.77-2.13-6.77l-96.6-297.32-12.19-36.91-8.43-24.38-6.58-17.88-5.54-13.93-4.92-11.29-4.39-9.05-4.08-7.49-3.76-6.06-3.69-5.17-3.47-4.18-3.39-3.48-3.45-2.97-3.5-2.5-3.56-2.06-3.78-1.74-4.16-1.47-4.56-1.19-5.31-.96-6.46-.74-8.76-.53-14.89-.32-117.57-.07-21.89.11-11.67.3-8.29.5-6.55.72-5.47.94-4.75,1.17-4.41,1.48-4.05,1.77-3.67,2.02-3.73,2.52-3.8,3.12-3.87,3.81-3.94,4.6-4.02,5.47-4.1,6.4-4.71,8.36-4.82,9.59-6.04,13.34-6.8,16.42-8.82,22.88-16.87,46.24-23.38,64.74-18.23,49.25-18.23,47.84-19.02,48.52-20.92,51.95s-11.5,27.86-18.32,44.38"/>
    <polygon class="cls-2" points="464.67 547.2 806.01 547.2 806.01 188.75 803.62 181.83 797.04 163.95 791.5 150.02 786.57 138.73 782.18 129.68 778.1 122.19 774.34 116.13 770.65 110.96 767.18 106.78 763.79 103.3 760.34 100.33 756.84 97.83 753.27 95.77 749.5 94.03 745.34 92.56 740.78 91.36 735.47 90.4 729.01 89.66 720.25 89.13 705.36 88.81 674.82 88.79 578.38 88.79 565.9 88.86 554.23 89.15 545.93 89.65 539.38 90.37 533.91 91.31 529.16 92.49 524.75 93.97 520.7 95.74 517.03 97.76 513.3 100.28 509.5 103.4 505.63 107.21 501.69 111.81 497.67 117.28 493.57 123.68 488.86 132.04 484.04 141.63 478 154.98 471.21 171.4 464.67 188.38 464.67 547.2"/>
  </g>
  <g id="Ebene_9" data-name="Ebene 9">
    <line class="cls-8" x1="464.67" y1="68.29" x2="464.67" y2="547.2"/>
    <line class="cls-8" x1="806.01" y1="68.29" x2="806.01" y2="547.2"/>
    <line class="cls-8" x1="640.8" y1="88.79" x2="640.8" y2="547.2"/>
    <g>
      <line class="cls-9" x1="72" y1="547.2" x2="1180.11" y2="547.2"/>
      <polygon class="cls-5" points="1171.91 559.23 1216.8 547.21 1171.91 535.17 1171.91 559.23"/>
    </g>
    <g>
      <line class="cls-9" x1="72" y1="547.2" x2="72" y2="36.69"/>
      <polygon class="cls-5" points="84.03 44.89 72.01 0 59.97 44.89 84.03 44.89"/>
    </g>
  </g>
  <g id="Ebene_10" data-name="Ebene 10">
    <text class="cls-4" transform="translate(624.61 604.8)"><tspan x="0" y="0">f</tspan></text>
    <text class="cls-4" transform="translate(641.28 620.79) scale(.58)"><tspan x="0" y="0">0</tspan></text>
    <text class="cls-4" transform="translate(474.73 604.8)"><tspan x="0" y="0">f</tspan></text>
    <text class="cls-4" transform="translate(491.4 620.78) scale(.58)"><tspan x="0" y="0">1</tspan></text>
    <text class="cls-4" transform="translate(765.23 604.8)"><tspan x="0" y="0">f</tspan></text>
    <text class="cls-4" transform="translate(781.9 620.78) scale(.58)"><tspan x="0" y="0">2</tspan></text>
    <text class="cls-4" transform="translate(957.6 202.32)"><tspan x="0" y="0">-3dB</tspan></text>
    <g>
      <line class="cls-7" x1="780.9" y1="68.29" x2="489.78" y2="68.29"/>
      <polygon class="cls-3" points="775.28 60.06 806.01 68.29 775.28 76.53 775.28 60.06"/>
      <polygon class="cls-3" points="495.4 60.06 464.67 68.29 495.4 76.53 495.4 60.06"/>
    </g>
    <text class="cls-4" transform="translate(531.42 53.35)"><tspan x="0" y="0">Bandwidth</tspan></text>
    <text class="cls-4" transform="translate(972 102.82)"><tspan x="0" y="0">0dB</tspan></text>
    <text class="cls-4" transform="translate(979.2 604.8)"><tspan class="cls-6" x="0" y="0">F</tspan><tspan class="cls-1" x="25.92" y="0">r</tspan><tspan x="41.72" y="0">equency</tspan></text>
    <text class="cls-4" transform="translate(43.2 382.73) rotate(-90)"><tspan x="0" y="0">Amplitude</tspan></text>
  </g>
  <g id="Ebene_11" data-name="Ebene 11">
    <path class="cls-10" d="m72,188.29h856.96"/>
    <path class="cls-11" d="m922.97,547.2c-1.3-4.13-2.13-6.77-2.13-6.77l-96.6-297.32-12.19-36.91-8.43-24.38-6.58-17.88-5.54-13.93-4.92-11.29-4.39-9.05-4.08-7.49-3.76-6.06-3.69-5.17-3.47-4.18-3.39-3.48-3.45-2.97-3.5-2.5-3.56-2.06-3.78-1.74-4.16-1.47-4.56-1.19-5.31-.96-6.46-.74-8.76-.53-14.89-.32-117.57-.07-21.89.11-11.67.3-8.29.5-6.55.72-5.47.94-4.75,1.17-4.41,1.48-4.05,1.77-3.67,2.02-3.73,2.52-3.8,3.12-3.87,3.81-3.94,4.6-4.02,5.47-4.1,6.4-4.71,8.36-4.82,9.59-6.04,13.34-6.8,16.42-8.82,22.88-16.87,46.24-23.38,64.74-18.23,49.25-18.23,47.84-19.02,48.52-20.92,51.95s-11.5,27.86-18.32,44.38"/>
    <line class="cls-10" x1="64.8" y1="88.79" x2="928.96" y2="88.79"/>
  </g>
</svg>