<?xml version="1.0" encoding="UTF-8"?>
<svg id="Ebene_1" data-name="Ebene 1" xmlns="http://www.w3.org/2000/svg" width="1224" height="626.4" viewBox="0 0 1224 626.4">
  <g id="Ebene_13" data-name="Ebene 13">
    <path d="m922.97,547.2c-1.3-4.13-2.13-6.77-2.13-6.77l-96.6-297.32-12.19-36.91-8.43-24.38-6.58-17.88-5.54-13.93-4.92-11.29-4.39-9.05-4.08-7.49-3.76-6.06-3.69-5.17-3.47-4.18-3.39-3.48-3.45-2.97-3.5-2.5-3.56-2.06-3.78-1.74-4.16-1.47-4.56-1.19-5.31-.96-6.46-.74-8.76-.53-14.89-.32-117.57-.07-21.89.11-11.67.3-8.29.5-6.55.72-5.47.94-4.75,1.17-4.41,1.48-4.05,1.77-3.67,2.02-3.73,2.52-3.8,3.12-3.87,3.81-3.94,4.6-4.02,5.47-4.1,6.4-4.71,8.36-4.82,9.59-6.04,13.34-6.8,16.42-8.82,22.88-16.87,46.24-23.38,64.74-18.23,49.25-18.23,47.84-19.02,48.52-20.92,51.95s-11.5,27.86-18.32,44.38" fill="none" stroke="#307eef" stroke-linecap="square" stroke-linejoin="round" stroke-width="5"/>
    <polygon points="464.67 547.2 806.01 547.2 806.01 188.75 803.62 181.83 797.04 163.95 791.5 150.02 786.57 138.73 782.18 129.68 778.1 122.19 774.34 116.13 770.65 110.96 767.18 106.78 763.79 103.3 760.34 100.33 756.84 97.83 753.27 95.77 749.5 94.03 745.34 92.56 740.78 91.36 735.47 90.4 729.01 89.66 720.25 89.13 705.36 88.81 674.82 88.79 578.38 88.79 565.9 88.86 554.23 89.15 545.93 89.65 539.38 90.37 533.91 91.31 529.16 92.49 524.75 93.97 520.7 95.74 517.03 97.76 513.3 100.28 509.5 103.4 505.63 107.21 501.69 111.81 497.67 117.28 493.57 123.68 488.86 132.04 484.04 141.63 478 154.98 471.21 171.4 464.67 188.38 464.67 547.2" fill="#c9d1d9" isolation="isolate" opacity=".1"/>
  </g>
  <line x1="464.67" y1="68.29" x2="464.67" y2="547.2" fill="none" stroke="#c9d1d9" stroke-dasharray="0 0 0 0 0 0 5.55 5.55" stroke-miterlimit="10" stroke-width="2.16"/>
  <line x1="806.01" y1="68.29" x2="806.01" y2="547.2" fill="none" stroke="#c9d1d9" stroke-dasharray="0 0 0 0 0 0 5.55 5.55" stroke-miterlimit="10" stroke-width="2.16"/>
  <line x1="640.8" y1="88.79" x2="640.8" y2="547.2" fill="none" stroke="#c9d1d9" stroke-dasharray="0 0 0 0 0 0 5.55 5.55" stroke-miterlimit="10" stroke-width="2.16"/>
  <g>
    <line x1="72" y1="547.2" x2="1180.11" y2="547.2" fill="none" stroke="#7f7f7f" stroke-miterlimit="10" stroke-width="4.14"/>
    <polygon points="1171.91 559.23 1216.8 547.21 1171.91 535.17 1171.91 559.23" fill="#7f7f7f"/>
  </g>
  <g>
    <line x1="72" y1="547.2" x2="72" y2="36.69" fill="none" stroke="#7f7f7f" stroke-miterlimit="10" stroke-width="4.14"/>
    <polygon points="84.03 44.89 72.01 0 59.97 44.89 84.03 44.89" fill="#7f7f7f"/>
  </g>
  <g>
    <g isolation="isolate">
      <g isolation="isolate">
        <path d="m630.148,604.8v-22.008h-4.008v-3.352h4.008v-2.602c0-2.719.727-4.82,2.18-6.305s3.508-2.227,6.164-2.227c1,0,1.992.132,2.977.396l-.234,3.495c-.734-.141-1.516-.211-2.344-.211-1.406,0-2.492.412-3.258,1.234-.766.823-1.148,2.003-1.148,3.538v2.681h5.414v3.352h-5.414v22.008h-4.336Z" fill="#c9d1d9"/>
      </g>
    </g>
    <g isolation="isolate">
      <g isolation="isolate">
        <path d="m655.46,612.349c0,2.945-.504,5.134-1.51,6.565s-2.578,2.147-4.717,2.147c-2.111,0-3.675-.699-4.689-2.1-1.016-1.4-1.541-3.491-1.576-6.273v-3.358c0-2.908.502-5.07,1.508-6.483,1.006-1.414,2.583-2.121,4.73-2.121,2.13,0,3.698.682,4.704,2.046s1.522,3.469,1.55,6.314v3.263Zm-2.516-3.439c0-2.13-.299-3.682-.896-4.656-.598-.974-1.545-1.461-2.842-1.461-1.287,0-2.225.484-2.813,1.454s-.893,2.461-.911,4.473v4.023c0,2.14.311,3.718.932,4.737s1.561,1.529,2.82,1.529c1.242,0,2.164-.479,2.767-1.44s.917-2.474.944-4.54v-4.119Z" fill="#c9d1d9"/>
      </g>
    </g>
  </g>
  <g>
    <g isolation="isolate">
      <g isolation="isolate">
        <path d="m456.091,604.8v-22.008h-4.008v-3.352h4.008v-2.602c0-2.719.727-4.82,2.18-6.305s3.508-2.227,6.164-2.227c1,0,1.992.132,2.977.396l-.234,3.495c-.734-.141-1.516-.211-2.344-.211-1.406,0-2.492.412-3.258,1.234-.766.823-1.148,2.003-1.148,3.538v2.681h5.414v3.352h-5.414v22.008h-4.336Z" fill="#c9d1d9"/>
      </g>
    </g>
    <g isolation="isolate">
      <g isolation="isolate">
        <path d="m477.257,620.78h-2.528v-16.761l-5.07,1.862v-2.284l7.205-2.705h.394v19.888Z" fill="#c9d1d9"/>
      </g>
    </g>
  </g>
  <g>
    <g isolation="isolate">
      <g isolation="isolate">
        <path d="m795.079,604.8v-22.008h-4.008v-3.352h4.008v-2.602c0-2.719.727-4.82,2.18-6.305s3.508-2.227,6.164-2.227c1,0,1.992.132,2.977.396l-.234,3.495c-.734-.141-1.516-.211-2.344-.211-1.406,0-2.492.412-3.258,1.234-.766.823-1.148,2.003-1.148,3.538v2.681h5.414v3.352h-5.414v22.008h-4.336Z" fill="#c9d1d9"/>
      </g>
    </g>
    <g isolation="isolate">
      <g isolation="isolate">
        <path d="m820.948,620.78h-12.969v-1.808l6.852-7.613c1.015-1.15,1.715-2.086,2.101-2.807.385-.721.577-1.466.577-2.236,0-1.033-.312-1.88-.938-2.542-.626-.661-1.459-.992-2.502-.992-1.25,0-2.222.355-2.915,1.067-.693.711-1.04,1.701-1.04,2.97h-2.515c0-1.821.586-3.294,1.76-4.418,1.174-1.123,2.744-1.686,4.71-1.686,1.84,0,3.295.482,4.364,1.448,1.069.965,1.604,2.249,1.604,3.854,0,1.948-1.241,4.269-3.725,6.96l-5.302,5.75h9.938v2.053Z" fill="#c9d1d9"/>
      </g>
    </g>
  </g>
  <g isolation="isolate">
    <g isolation="isolate">
      <path d="m969.904,189.593h-11.438v-3.539h11.438v3.539Z" fill="#c9d1d9"/>
      <path d="m979.982,183.148h3.258c2.047-.031,3.656-.57,4.828-1.617s1.758-2.461,1.758-4.242c0-4-1.992-6-5.977-6-1.875,0-3.371.535-4.488,1.605s-1.676,2.488-1.676,4.254h-4.336c0-2.703.988-4.949,2.965-6.738s4.488-2.684,7.535-2.684c3.219,0,5.742.852,7.57,2.555s2.742,4.07,2.742,7.102c0,1.484-.48,2.922-1.441,4.312s-2.27,2.43-3.926,3.117c1.875.594,3.324,1.578,4.348,2.953s1.535,3.055,1.535,5.039c0,3.062-1,5.492-3,7.289s-4.602,2.695-7.805,2.695-5.809-.867-7.816-2.602-3.012-4.023-3.012-6.867h4.359c0,1.797.586,3.234,1.758,4.312s2.742,1.617,4.711,1.617c2.094,0,3.695-.547,4.805-1.641s1.664-2.664,1.664-4.711c0-1.984-.609-3.508-1.828-4.57s-2.977-1.609-5.273-1.641h-3.258v-3.539Z" fill="#c9d1d9"/>
      <path d="m1000.021,189.429c0-3.891.922-7.02,2.766-9.387s4.258-3.551,7.242-3.551c2.969,0,5.32,1.016,7.055,3.047v-13.219h4.336v36h-3.984l-.211-2.719c-1.734,2.125-4.148,3.188-7.242,3.188-2.938,0-5.332-1.203-7.184-3.609s-2.777-5.547-2.777-9.422v-.328Zm4.336.492c0,2.875.594,5.125,1.781,6.75s2.828,2.438,4.922,2.438c2.75,0,4.758-1.234,6.023-3.703v-11.648c-1.297-2.391-3.289-3.586-5.977-3.586-2.125,0-3.781.82-4.969,2.461s-1.781,4.07-1.781,7.289Z" fill="#c9d1d9"/>
      <path d="m1028.826,202.32v-34.125h11.156c3.703,0,6.488.766,8.355,2.297s2.801,3.797,2.801,6.797c0,1.594-.453,3.004-1.359,4.23s-2.141,2.176-3.703,2.848c1.844.516,3.301,1.496,4.371,2.941s1.605,3.168,1.605,5.168c0,3.062-.992,5.469-2.977,7.219s-4.789,2.625-8.414,2.625h-11.836Zm4.5-19.57h6.797c1.969,0,3.543-.493,4.723-1.479s1.77-2.325,1.77-4.017c0-1.879-.547-3.245-1.641-4.099s-2.758-1.28-4.992-1.28h-6.656v10.875Zm0,3.609v12.281h7.43c2.094,0,3.746-.543,4.957-1.629s1.816-2.582,1.816-4.488c0-4.109-2.234-6.164-6.703-6.164h-7.5Z" fill="#c9d1d9"/>
    </g>
  </g>
  <g>
    <line x1="780.9" y1="68.29" x2="489.78" y2="68.29" fill="none" stroke="#c9d1d9" stroke-miterlimit="10" stroke-width="2.83"/>
    <polygon points="775.28 60.06 806.01 68.29 775.28 76.53 775.28 60.06" fill="#c9d1d9"/>
    <polygon points="495.4 60.06 464.67 68.29 495.4 76.53 495.4 60.06" fill="#c9d1d9"/>
  </g>
  <g isolation="isolate">
    <g isolation="isolate">
      <path d="m531.159,53.35V19.225h11.156c3.703,0,6.488.766,8.355,2.297s2.801,3.797,2.801,6.797c0,1.594-.453,3.004-1.359,4.23s-2.141,2.176-3.703,2.848c1.844.516,3.301,1.496,4.371,2.941s1.605,3.168,1.605,5.168c0,3.062-.992,5.469-2.977,7.219s-4.789,2.625-8.414,2.625h-11.836Zm4.5-19.57h6.797c1.969,0,3.543-.493,4.723-1.479s1.77-2.325,1.77-4.017c0-1.879-.547-3.245-1.641-4.099s-2.758-1.28-4.992-1.28h-6.656v10.875Zm0,3.609v12.281h7.43c2.094,0,3.746-.543,4.957-1.629s1.816-2.582,1.816-4.488c0-4.109-2.234-6.164-6.703-6.164h-7.5Z" fill="#c9d1d9"/>
      <path d="m576.019,53.35c-.25-.5-.453-1.391-.609-2.672-2.016,2.094-4.422,3.141-7.219,3.141-2.5,0-4.551-.707-6.152-2.121s-2.402-3.207-2.402-5.379c0-2.641,1.004-4.691,3.012-6.152s4.832-2.191,8.473-2.191h4.219v-1.992c0-1.516-.453-2.723-1.359-3.621s-2.242-1.348-4.008-1.348c-1.547,0-2.844.391-3.891,1.172s-1.57,1.727-1.57,2.836h-4.359c0-1.266.449-2.488,1.348-3.668s2.117-2.113,3.656-2.801,3.23-1.031,5.074-1.031c2.922,0,5.211.73,6.867,2.191s2.516,3.473,2.578,6.035v11.672c0,2.328.297,4.18.891,5.555v.375h-4.547Zm-7.195-3.305c1.359,0,2.648-.352,3.867-1.055s2.102-1.617,2.648-2.742v-5.203h-3.398c-5.312,0-7.969,1.555-7.969,4.664,0,1.359.453,2.422,1.359,3.188s2.07,1.148,3.492,1.148Z" fill="#c9d1d9"/>
      <path d="m590.573,27.991l.141,3.188c1.938-2.438,4.469-3.656,7.594-3.656,5.359,0,8.062,3.023,8.109,9.07v16.758h-4.336v-16.781c-.016-1.828-.434-3.18-1.254-4.055s-2.098-1.312-3.832-1.312c-1.406,0-2.641.375-3.703,1.125s-1.891,1.734-2.484,2.953v18.07h-4.336v-25.359h4.102Z" fill="#c9d1d9"/>
      <path d="m611.902,40.459c0-3.891.922-7.02,2.766-9.387s4.258-3.551,7.242-3.551c2.969,0,5.32,1.016,7.055,3.047v-13.219h4.336v36h-3.984l-.211-2.719c-1.734,2.125-4.148,3.188-7.242,3.188-2.938,0-5.332-1.203-7.184-3.609s-2.777-5.547-2.777-9.422v-.328Zm4.336.492c0,2.875.594,5.125,1.781,6.75s2.828,2.438,4.922,2.438c2.75,0,4.758-1.234,6.023-3.703v-11.648c-1.297-2.391-3.289-3.586-5.977-3.586-2.125,0-3.781.82-4.969,2.461s-1.781,4.07-1.781,7.289Z" fill="#c9d1d9"/>
      <path d="m662.48,47.374l4.875-19.383h4.336l-7.383,25.359h-3.516l-6.164-19.219-6,19.219h-3.516l-7.359-25.359h4.312l4.992,18.984,5.906-18.984h3.492l6.023,19.383Z" fill="#c9d1d9"/>
      <path d="m676.12,21.264c0-.703.215-1.297.645-1.781s1.066-.727,1.91-.727,1.484.242,1.922.727.656,1.078.656,1.781-.219,1.289-.656,1.758-1.078.703-1.922.703-1.48-.234-1.91-.703-.645-1.055-.645-1.758Zm4.688,32.086h-4.336v-25.359h4.336v25.359Z" fill="#c9d1d9"/>
      <path d="m686.691,40.459c0-3.891.922-7.02,2.766-9.387s4.258-3.551,7.242-3.551c2.969,0,5.32,1.016,7.055,3.047v-13.219h4.336v36h-3.984l-.211-2.719c-1.734,2.125-4.148,3.188-7.242,3.188-2.938,0-5.332-1.203-7.184-3.609s-2.777-5.547-2.777-9.422v-.328Zm4.336.492c0,2.875.594,5.125,1.781,6.75s2.828,2.438,4.922,2.438c2.75,0,4.758-1.234,6.023-3.703v-11.648c-1.297-2.391-3.289-3.586-5.977-3.586-2.125,0-3.781.82-4.969,2.461s-1.781,4.07-1.781,7.289Z" fill="#c9d1d9"/>
      <path d="m720.698,21.85v6.141h4.734v3.352h-4.734v15.746c0,1.018.211,1.78.633,2.288.422.509,1.141.763,2.156.763.5,0,1.188-.094,2.062-.281v3.495c-1.141.311-2.25.466-3.328.466-1.938,0-3.398-.586-4.383-1.758s-1.477-2.836-1.477-4.992v-15.727h-4.617v-3.352h4.617v-6.141h4.336Z" fill="#c9d1d9"/>
      <path d="m734.831,31.061c1.922-2.359,4.422-3.539,7.5-3.539,5.359,0,8.062,3.023,8.109,9.07v16.758h-4.336v-16.781c-.016-1.828-.434-3.18-1.254-4.055s-2.098-1.312-3.832-1.312c-1.406,0-2.641.375-3.703,1.125s-1.891,1.734-2.484,2.953v18.07h-4.336V17.35h4.336v13.711Z" fill="#c9d1d9"/>
    </g>
  </g>
  <g isolation="isolate">
    <g isolation="isolate">
      <path d="m996.234,88.265c0,5.078-.867,8.852-2.602,11.32s-4.445,3.703-8.133,3.703c-3.641,0-6.336-1.207-8.086-3.621s-2.656-6.02-2.719-10.816v-5.789c0-5.016.867-8.742,2.602-11.18s4.453-3.656,8.156-3.656c3.672,0,6.375,1.176,8.109,3.527s2.625,5.98,2.672,10.887v5.625Zm-4.336-5.93c0-3.672-.516-6.348-1.547-8.027s-2.664-2.52-4.898-2.52c-2.219,0-3.836.836-4.852,2.508s-1.539,4.242-1.57,7.711v6.938c0,3.688.535,6.41,1.605,8.168s2.691,2.637,4.863,2.637c2.141,0,3.73-.828,4.77-2.484s1.582-4.266,1.629-7.828v-7.102Z" fill="#c9d1d9"/>
      <path d="m1001.18,89.929c0-3.891.922-7.02,2.766-9.387s4.258-3.551,7.242-3.551c2.969,0,5.32,1.016,7.055,3.047v-13.219h4.336v36h-3.984l-.211-2.719c-1.734,2.125-4.148,3.188-7.242,3.188-2.938,0-5.332-1.203-7.184-3.609s-2.777-5.547-2.777-9.422v-.328Zm4.336.492c0,2.875.594,5.125,1.781,6.75s2.828,2.438,4.922,2.438c2.75,0,4.758-1.234,6.023-3.703v-11.648c-1.297-2.391-3.289-3.586-5.977-3.586-2.125,0-3.781.82-4.969,2.461s-1.781,4.07-1.781,7.289Z" fill="#c9d1d9"/>
      <path d="m1029.984,102.82v-34.125h11.156c3.703,0,6.488.766,8.355,2.297s2.801,3.797,2.801,6.797c0,1.594-.453,3.004-1.359,4.23s-2.141,2.176-3.703,2.848c1.844.516,3.301,1.496,4.371,2.941s1.605,3.168,1.605,5.168c0,3.062-.992,5.469-2.977,7.219s-4.789,2.625-8.414,2.625h-11.836Zm4.5-19.57h6.797c1.969,0,3.543-.493,4.723-1.479s1.77-2.325,1.77-4.017c0-1.879-.547-3.245-1.641-4.099s-2.758-1.28-4.992-1.28h-6.656v10.875Zm0,3.609v12.281h7.43c2.094,0,3.746-.543,4.957-1.629s1.816-2.582,1.816-4.488c0-4.109-2.234-6.164-6.703-6.164h-7.5Z" fill="#c9d1d9"/>
    </g>
  </g>
  <g isolation="isolate">
    <g isolation="isolate">
      <path d="m1001.981,589.729h-14.32v15.07h-4.5v-34.125h21.141v3.68h-16.641v11.695h14.32v3.68Z" fill="#c9d1d9"/>
    </g>
    <g isolation="isolate">
      <path d="m1020.659,583.331c-.656-.109-1.367-.164-2.133-.164-2.844,0-4.773,1.211-5.789,3.633v18h-4.336v-25.359h4.219l.07,2.93c1.422-2.266,3.438-3.398,6.047-3.398.844,0,1.484.109,1.922.328v4.031Z" fill="#c9d1d9"/>
    </g>
    <g isolation="isolate">
      <path d="m1034.725,605.269c-3.438,0-6.234-1.129-8.391-3.387s-3.234-5.277-3.234-9.059v-.797c0-2.516.48-4.762,1.441-6.738s2.305-3.523,4.031-4.641,3.598-1.676,5.613-1.676c3.297,0,5.859,1.086,7.688,3.258s2.742,5.281,2.742,9.328v1.805h-17.18c.062,2.5.793,4.52,2.191,6.059s3.176,2.309,5.332,2.309c1.531,0,2.828-.312,3.891-.938s1.992-1.453,2.789-2.484l2.648,2.062c-2.125,3.266-5.312,4.898-9.562,4.898Zm-.539-22.734c-1.75,0-3.219.637-4.406,1.91s-1.922,3.059-2.203,5.355h12.703v-.328c-.125-2.203-.719-3.91-1.781-5.121s-2.5-1.816-4.312-1.816Z" fill="#c9d1d9"/>
      <path d="m1048.576,591.909c0-3.984.914-7.137,2.742-9.457s4.281-3.48,7.359-3.48c3,0,5.367,1.008,7.102,3.023l.188-2.555h3.984v35.109h-4.336v-12.094c-1.75,1.875-4.078,2.812-6.984,2.812-3.062,0-5.504-1.191-7.324-3.574s-2.73-5.543-2.73-9.48v-.305Zm4.336.492c0,2.906.613,5.188,1.84,6.844s2.879,2.484,4.957,2.484c2.578,0,4.547-1.141,5.906-3.422v-12.422c-1.375-2.234-3.328-3.352-5.859-3.352-2.094,0-3.758.832-4.992,2.496s-1.852,4.121-1.852,7.371Z" fill="#c9d1d9"/>
      <path d="m1092.568,602.292c-1.688,1.984-4.164,2.977-7.43,2.977-2.703,0-4.762-.785-6.176-2.355s-2.129-3.895-2.145-6.973v-16.5h4.336v16.383c0,3.844,1.562,5.766,4.688,5.766,3.312,0,5.516-1.234,6.609-3.703v-18.445h4.336v25.359h-4.125l-.094-2.508Z" fill="#c9d1d9"/>
      <path d="m1113.896,605.269c-3.438,0-6.234-1.129-8.391-3.387s-3.234-5.277-3.234-9.059v-.797c0-2.516.48-4.762,1.441-6.738s2.305-3.523,4.031-4.641,3.598-1.676,5.613-1.676c3.297,0,5.859,1.086,7.688,3.258s2.742,5.281,2.742,9.328v1.805h-17.18c.062,2.5.793,4.52,2.191,6.059s3.176,2.309,5.332,2.309c1.531,0,2.828-.312,3.891-.938s1.992-1.453,2.789-2.484l2.648,2.062c-2.125,3.266-5.312,4.898-9.562,4.898Zm-.539-22.734c-1.75,0-3.219.637-4.406,1.91s-1.922,3.059-2.203,5.355h12.703v-.328c-.125-2.203-.719-3.91-1.781-5.121s-2.5-1.816-4.312-1.816Z" fill="#c9d1d9"/>
      <path d="m1132.904,579.44l.141,3.188c1.938-2.438,4.469-3.656,7.594-3.656,5.359,0,8.062,3.023,8.109,9.07v16.758h-4.336v-16.781c-.016-1.828-.434-3.18-1.254-4.055s-2.098-1.312-3.832-1.312c-1.406,0-2.641.375-3.703,1.125s-1.891,1.734-2.484,2.953v18.07h-4.336v-25.359h4.102Z" fill="#c9d1d9"/>
      <path d="m1165.459,601.729c1.547,0,2.898-.469,4.055-1.406s1.797-2.109,1.922-3.516h4.102c-.078,1.453-.578,2.836-1.5,4.148s-2.152,2.359-3.691,3.141-3.168,1.172-4.887,1.172c-3.453,0-6.199-1.152-8.238-3.457s-3.059-5.457-3.059-9.457v-.727c0-2.469.453-4.664,1.359-6.586s2.207-3.414,3.902-4.477,3.699-1.594,6.012-1.594c2.844,0,5.207.852,7.09,2.555s2.887,3.914,3.012,6.633h-4.102c-.125-1.641-.746-2.988-1.863-4.043s-2.496-1.582-4.137-1.582c-2.203,0-3.91.793-5.121,2.379s-1.816,3.879-1.816,6.879v.82c0,2.922.602,5.172,1.805,6.75s2.922,2.367,5.156,2.367Z" fill="#c9d1d9"/>
      <path d="m1188.709,598.448l5.906-19.008h4.641l-10.195,29.273c-1.578,4.219-4.086,6.328-7.523,6.328l-.82-.07-1.617-.305v-3.516l1.172.094c1.469,0,2.613-.297,3.434-.891s1.496-1.68,2.027-3.258l.961-2.578-9.047-25.078h4.734l6.328,19.008Z" fill="#c9d1d9"/>
    </g>
  </g>
  <g isolation="isolate">
    <g isolation="isolate">
      <path d="m34.271,359.926v14.297l8.93,3.211v4.641l-34.125-13.031v-3.938l34.125-13.055v4.617l-8.93,3.258Zm-3.68,12.938v-11.602l-15.961,5.812,15.961,5.789Z" fill="#c9d1d9"/>
      <path d="m17.841,344.059l2.812-.117c-2.188-1.859-3.281-4.367-3.281-7.523,0-3.547,1.359-5.961,4.078-7.242-1.219-.844-2.203-1.941-2.953-3.293s-1.125-2.949-1.125-4.793c0-5.562,2.945-8.391,8.836-8.484h16.992v4.336h-16.734c-1.812,0-3.168.414-4.066,1.242s-1.348,2.219-1.348,4.172c0,1.609.48,2.945,1.441,4.008s2.254,1.68,3.879,1.852h16.828v4.359h-16.617c-3.688,0-5.531,1.805-5.531,5.414,0,2.844,1.211,4.789,3.633,5.836h18.516v4.336h-25.359v-4.102Z" fill="#c9d1d9"/>
      <path d="m30.802,284.645c3.859,0,6.969.883,9.328,2.648s3.539,4.156,3.539,7.172c0,3.078-.977,5.5-2.93,7.266h12.211v4.336H17.841v-3.961l2.812-.211c-2.188-1.766-3.281-4.219-3.281-7.359,0-3.047,1.148-5.457,3.445-7.23s5.492-2.66,9.586-2.66h.398Zm-.492,4.336c-2.859,0-5.117.609-6.773,1.828s-2.484,2.891-2.484,5.016c0,2.625,1.164,4.594,3.492,5.906h12.117c2.312-1.297,3.469-3.281,3.469-5.953,0-2.078-.824-3.73-2.473-4.957s-4.098-1.84-7.348-1.84Z" fill="#c9d1d9"/>
      <path d="m43.2,274.426v4.336H7.2v-4.336h36Z" fill="#c9d1d9"/>
      <path d="m11.114,267.465c-.703,0-1.297-.215-1.781-.645s-.727-1.066-.727-1.91.242-1.484.727-1.922,1.078-.656,1.781-.656,1.289.219,1.758.656.703,1.078.703,1.922-.234,1.48-.703,1.91-1.055.645-1.758.645Zm32.086-4.688v4.336h-25.359v-4.336h25.359Z" fill="#c9d1d9"/>
      <path d="m11.7,249.957h6.141v-4.734h3.352v4.734h15.746c1.018,0,1.78-.211,2.288-.633.509-.422.763-1.141.763-2.156,0-.5-.094-1.188-.281-2.062h3.495c.311,1.141.466,2.25.466,3.328,0,1.938-.586,3.398-1.758,4.383s-2.836,1.477-4.992,1.477h-15.727v4.617h-3.352v-4.617h-6.141v-4.336Z" fill="#c9d1d9"/>
      <path d="m40.692,224.504c1.984,1.688,2.977,4.164,2.977,7.43,0,2.703-.785,4.762-2.355,6.176s-3.895,2.129-6.973,2.145h-16.5v-4.336h16.383c3.844,0,5.766-1.562,5.766-4.688,0-3.312-1.234-5.516-3.703-6.609h-18.445v-4.336h25.359v4.125l-2.508.094Z" fill="#c9d1d9"/>
      <path d="m30.31,214.754c-3.891,0-7.02-.922-9.387-2.766s-3.551-4.258-3.551-7.242c0-2.969,1.016-5.32,3.047-7.055H7.2v-4.336h36v3.984l-2.719.211c2.125,1.734,3.188,4.148,3.188,7.242,0,2.938-1.203,5.332-3.609,7.184s-5.547,2.777-9.422,2.777h-.328Zm.492-4.336c2.875,0,5.125-.594,6.75-1.781s2.438-2.828,2.438-4.922c0-2.75-1.234-4.758-3.703-6.023h-11.648c-2.391,1.297-3.586,3.289-3.586,5.977,0,2.125.82,3.781,2.461,4.969s4.07,1.781,7.289,1.781Z" fill="#c9d1d9"/>
      <path d="m43.669,176.105c0,3.438-1.129,6.234-3.387,8.391s-5.277,3.234-9.059,3.234h-.797c-2.516,0-4.762-.48-6.738-1.441s-3.523-2.305-4.641-4.031-1.676-3.598-1.676-5.613c0-3.297,1.086-5.859,3.258-7.688s5.281-2.742,9.328-2.742h1.805v17.18c2.5-.062,4.52-.793,6.059-2.191s2.309-3.176,2.309-5.332c0-1.531-.312-2.828-.938-3.891s-1.453-1.992-2.484-2.789l2.062-2.648c3.266,2.125,4.898,5.312,4.898,9.562Zm-22.734.539c0,1.75.637,3.219,1.91,4.406s3.059,1.922,5.355,2.203v-12.703h-.328c-2.203.125-3.91.719-5.121,1.781s-1.816,2.5-1.816,4.312Z" fill="#c9d1d9"/>
    </g>
  </g>
  <g id="Ebene_11" data-name="Ebene 11">
    <path d="m72,188.29h856.96" fill="none" stroke="#c9d1d9" stroke-linejoin="round" stroke-width="2"/>
    <path d="m922.97,547.2c-1.3-4.13-2.13-6.77-2.13-6.77l-96.6-297.32-12.19-36.91-8.43-24.38-6.58-17.88-5.54-13.93-4.92-11.29-4.39-9.05-4.08-7.49-3.76-6.06-3.69-5.17-3.47-4.18-3.39-3.48-3.45-2.97-3.5-2.5-3.56-2.06-3.78-1.74-4.16-1.47-4.56-1.19-5.31-.96-6.46-.74-8.76-.53-14.89-.32-117.57-.07-21.89.11-11.67.3-8.29.5-6.55.72-5.47.94-4.75,1.17-4.41,1.48-4.05,1.77-3.67,2.02-3.73,2.52-3.8,3.12-3.87,3.81-3.94,4.6-4.02,5.47-4.1,6.4-4.71,8.36-4.82,9.59-6.04,13.34-6.8,16.42-8.82,22.88-16.87,46.24-23.38,64.74-18.23,49.25-18.23,47.84-19.02,48.52-20.92,51.95s-11.5,27.86-18.32,44.38" fill="none" stroke="#307eef" stroke-linecap="square" stroke-linejoin="round" stroke-width="5"/>
    <line x1="64.8" y1="88.79" x2="928.96" y2="88.79" fill="none" stroke="#c9d1d9" stroke-linejoin="round" stroke-width="2"/>
  </g>
</svg>