<?xml version="1.0" encoding="UTF-8"?>
<svg id="Ebene_5" data-name="Ebene 5" xmlns="http://www.w3.org/2000/svg" viewBox="0 0 968.4 288">
  <defs>
    <style>
      .cls-1 {
        fill: #c9d1d9;
      }

      .cls-2 {
        stroke-width: 2.83px;
      }

      .cls-2, .cls-3 {
        fill: none;
        stroke: #c9d1d9;
        stroke-miterlimit: 10;
      }

      .cls-3 {
        stroke-width: 11.34px;
      }
    </style>
  </defs>
  <g>
    <line class="cls-2" x1="111.6" y1="100.8" x2="554.49" y2="100.8"/>
    <polygon class="cls-1" points="548.87 109.04 579.6 100.81 548.87 92.56 548.87 109.04"/>
  </g>
  <circle class="cls-2" cx="615.6" cy="100.8" r="36"/>
  <line class="cls-2" x1="183.6" y1="244.8" x2="183.6" y2="100.8"/>
  <line class="cls-2" x1="327.6" y1="244.8" x2="183.6" y2="244.8"/>
  <rect class="cls-2" x="327.6" y="208.8" width="144" height="72"/>
  <line class="cls-2" x1="615.6" y1="244.8" x2="471.6" y2="244.8"/>
  <g>
    <line class="cls-2" x1="615.6" y1="244.8" x2="615.6" y2="161.91"/>
    <polygon class="cls-1" points="623.84 167.53 615.61 136.8 607.36 167.53 623.84 167.53"/>
  </g>
  <circle class="cls-3" cx="183.6" cy="100.8" r="3.6"/>
  <g>
    <line class="cls-2" x1="651.6" y1="100.8" x2="806.49" y2="100.8"/>
    <polygon class="cls-1" points="800.87 109.04 831.6 100.81 800.87 92.56 800.87 109.04"/>
  </g>
  <g>
    <path class="cls-1" d="m119.68,79.2l7.35-9.84-6.68-9.14h3.41l5.15,7.22,5.04-7.22h3.62l-7,9.14,7.42,9.84h-3.8l-5.45-7.61-5.55,7.61h-3.52Z"/>
    <path class="cls-1" d="m141.79,85.14v-32.31h7.17v2.46h-4.5v27.39h4.5v2.46h-7.17Z"/>
    <path class="cls-1" d="m150.88,79.2v-18.98h2.78v4.29l-.12-.77c.5-1.09,1.3-2.02,2.39-2.79s2.41-1.15,3.97-1.15c1.35,0,2.51.3,3.48.9s1.72,1.45,2.25,2.56.79,2.44.79,4v11.95h-2.95v-11.72c0-1.56-.32-2.82-.96-3.78s-1.69-1.44-3.16-1.44c-1.58,0-2.9.6-3.95,1.8s-1.57,2.94-1.57,5.21v9.93h-2.95Z"/>
    <path class="cls-1" d="m176.77,85.14h-7.17v-2.46h4.5v-27.39h-4.5v-2.46h7.17v32.31Z"/>
  </g>
  <g>
    <path class="cls-1" d="m774.11,86.06v-2.46h2.88c.21,0,.38-.07.49-.2s.23-.35.33-.64l1.37-3.92-.3,1.35-7.63-19.97h3.3l6.05,17.49-.65-.16,6.03-17.33h3.27l-9.05,23.71c-.25.64-.66,1.16-1.25,1.55s-1.2.58-1.83.58h-3.02Z"/>
    <path class="cls-1" d="m793.01,85.14v-32.31h7.17v2.46h-4.5v27.39h4.5v2.46h-7.17Z"/>
    <path class="cls-1" d="m802.09,79.2v-18.98h2.78v4.29l-.12-.77c.5-1.09,1.3-2.02,2.39-2.79s2.41-1.15,3.97-1.15c1.35,0,2.51.3,3.48.9s1.72,1.45,2.25,2.56.79,2.44.79,4v11.95h-2.95v-11.72c0-1.56-.32-2.82-.96-3.78s-1.69-1.44-3.16-1.44c-1.58,0-2.9.6-3.95,1.8s-1.57,2.94-1.57,5.21v9.93h-2.95Z"/>
    <path class="cls-1" d="m827.99,85.14h-7.17v-2.46h4.5v-27.39h-4.5v-2.46h7.17v32.31Z"/>
  </g>
  <path class="cls-1" d="m606.14,111.87v-2.07l8.21-10.58-8.23-10.55v-2.11h17.84v2.71h-13.94l7.77,9.95-7.73,9.95h15.17v2.71h-19.09Z"/>
  <g>
    <path class="cls-1" d="m383.97,261.86v-2.53l11.39-13.92h-10.93v-2.53h14.48v2.53l-11.57,13.92h11.99v2.53h-15.36Z"/>
    <path class="cls-1" d="m402.41,244.22v-1.6h6.88v1.6h-6.88Z"/>
    <path class="cls-1" d="m413.15,249.87v-11.75c-.54.46-1.05.86-1.52,1.17-.47.32-1,.59-1.58.8v-1.74c.3-.14.62-.32.95-.54s.72-.53,1.14-.95c.43-.42.92-1,1.48-1.75h1.32v14.76h-1.8Z"/>
  </g>
  <g>
    <path class="cls-1" d="m360.21,183.6v-25.31h16.22v2.6h-13.06v7.8h11.76v2.6h-11.76v12.3h-3.16Z"/>
    <path class="cls-1" d="m381.86,161.43c-.68,0-1.26-.24-1.74-.72s-.72-1.06-.72-1.74.24-1.27.72-1.75,1.06-.71,1.74-.71,1.27.24,1.75.71.71,1.06.71,1.75-.24,1.26-.71,1.74-1.06.72-1.75.72Zm-1.48,22.17v-18.98h2.95v18.98h-2.95Z"/>
    <path class="cls-1" d="m391.87,183.6c-.75,0-1.41-.25-1.97-.75s-.84-1.13-.84-1.89v-23.73h2.95v22.94c0,.39.06.64.17.77s.35.19.71.19h1.85v2.46h-2.87Z"/>
    <path class="cls-1" d="m402.2,183.6c-.75,0-1.41-.25-1.97-.75s-.84-1.13-.84-1.89v-13.89h-3.06v-2.46h3.06v-3.97l2.95-.63v4.61h3.76v2.46h-3.76v13.1c0,.39.06.64.17.77s.35.19.71.19h2.9v2.46h-3.92Z"/>
    <path class="cls-1" d="m417.35,184.02c-1.8,0-3.37-.4-4.68-1.21s-2.33-1.95-3.05-3.44-1.07-3.23-1.07-5.25.36-3.79,1.07-5.27,1.72-2.64,3.02-3.45,2.83-1.21,4.59-1.21c1.01,0,2.02.16,3.03.48s1.94.88,2.78,1.67,1.51,1.88,2.02,3.25.76,3.11.76,5.21h-15.38v-2.39h12.81l-.84,1.11c-.06-1.66-.33-3-.81-4.01s-1.1-1.74-1.87-2.19-1.62-.68-2.56-.68c-1.11,0-2.07.29-2.88.87s-1.43,1.43-1.86,2.54-.65,2.47-.65,4.08c0,2.37.48,4.2,1.45,5.48s2.34,1.93,4.12,1.93c1.28,0,2.35-.32,3.23-.97s1.51-1.58,1.92-2.79l2.9.98c-.46,1.1-1.07,2.04-1.83,2.82s-1.67,1.38-2.72,1.79-2.22.62-3.51.62Z"/>
    <path class="cls-1" d="m430.29,183.6v-18.98h2.78v4.03l-.11-.46c.56-1.31,1.41-2.31,2.54-2.98s2.28-1.01,3.44-1.01c.34,0,.67.03.99.09s.62.16.91.3l-.39,2.78c-.64-.2-1.28-.3-1.92-.3-.4,0-.89.08-1.49.24s-1.18.47-1.76.95-1.07,1.18-1.46,2.12-.59,2.19-.59,3.74v9.49h-2.95Z"/>
  </g>
  <g>
    <path class="cls-1" d="m587.91,32.4l1.41-25.31h5.2l7.17,23.03h-.7l7.21-23.03h5.2l1.41,25.31h-3.06l-1.23-22.92h.05l-7.44,22.92h-3.52l-7.47-22.92h.05l-1.23,22.92h-3.06Z"/>
    <path class="cls-1" d="m621.35,10.23c-.68,0-1.26-.24-1.74-.72s-.72-1.06-.72-1.74.24-1.27.72-1.75,1.06-.71,1.74-.71,1.27.24,1.75.71.71,1.06.71,1.75-.24,1.26-.71,1.74-1.06.72-1.75.72Zm-1.48,22.17V13.42h2.95v18.98h-2.95Z"/>
    <path class="cls-1" d="m626.23,32.4l7.35-9.84-6.68-9.14h3.41l5.15,7.22,5.04-7.22h3.62l-7,9.14,7.42,9.84h-3.8l-5.45-7.61-5.55,7.61h-3.52Z"/>
  </g>
  <g>
    <path class="cls-1" d="m5.02,111.87v-2.46h3.36v-20.39h-3.36v-2.46h9.88v2.46h-3.36v20.39h3.36v2.46H5.02Z"/>
    <path class="cls-1" d="m19.19,111.87v-18.98h2.78v4.29l-.12-.77c.5-1.09,1.3-2.02,2.39-2.79s2.41-1.15,3.97-1.15c1.35,0,2.51.3,3.48.9s1.72,1.45,2.25,2.56.79,2.44.79,4v11.95h-2.95v-11.72c0-1.56-.32-2.82-.96-3.78s-1.69-1.44-3.16-1.44c-1.58,0-2.9.6-3.95,1.8s-1.57,2.94-1.57,5.21v9.93h-2.95Z"/>
    <path class="cls-1" d="m40.11,118.72v-25.84h2.78v3.96l-.09-.28c.52-1.38,1.37-2.41,2.57-3.08s2.47-1.01,3.81-1.01c1.55,0,2.91.4,4.08,1.21s2.09,1.96,2.74,3.45.98,3.25.98,5.27-.33,3.78-.99,5.26-1.58,2.62-2.75,3.43-2.53,1.2-4.06,1.2c-1.24,0-2.47-.31-3.69-.93s-2.14-1.67-2.76-3.15l.26-.14v10.65h-2.88Zm8.26-8.89c1.57,0,2.86-.65,3.87-1.94s1.51-3.15,1.51-5.56-.49-4.16-1.46-5.46-2.27-1.94-3.88-1.94c-.98,0-1.89.26-2.72.77s-1.49,1.32-1.98,2.41-.74,2.5-.74,4.22c0,2.54.53,4.43,1.58,5.66s2.33,1.85,3.81,1.85Z"/>
    <path class="cls-1" d="m67.81,112.29c-1.32,0-2.47-.3-3.45-.9s-1.72-1.45-2.25-2.57-.79-2.44-.79-3.99v-11.95h2.95v11.72c0,1.55.29,2.8.88,3.77s1.64,1.45,3.16,1.45c1.14,0,2.12-.29,2.95-.88s1.48-1.46,1.94-2.64.69-2.64.69-4.39v-9.04h2.95v18.98h-2.78v-4.46l.12.77c-.49,1.17-1.29,2.15-2.38,2.94s-2.43,1.18-4.02,1.18Z"/>
    <path class="cls-1" d="m86.81,111.87c-.75,0-1.41-.25-1.97-.75s-.84-1.13-.84-1.89v-13.89h-3.06v-2.46h3.06v-3.97l2.95-.63v4.61h3.76v2.46h-3.76v13.1c0,.39.06.64.17.77s.35.19.71.19h2.9v2.46h-3.92Z"/>
  </g>
  <g>
    <path class="cls-1" d="m859.85,112.29c-2.52,0-4.7-.53-6.53-1.59s-3.25-2.57-4.24-4.53-1.49-4.28-1.49-6.96.5-5.02,1.49-6.97,2.4-3.46,4.24-4.52,4.01-1.59,6.53-1.59,4.7.53,6.53,1.59,3.25,2.57,4.24,4.52,1.49,4.27,1.49,6.97-.5,5-1.49,6.96-2.4,3.47-4.24,4.53-4.01,1.59-6.53,1.59Zm0-2.6c1.82,0,3.38-.42,4.7-1.27s2.33-2.06,3.05-3.63,1.07-3.43,1.07-5.57-.36-4.02-1.07-5.58-1.73-2.77-3.05-3.62-2.89-1.27-4.7-1.27-3.37.42-4.69,1.27-2.34,2.06-3.06,3.62-1.07,3.42-1.07,5.58.36,4,1.07,5.57,1.73,2.78,3.06,3.63,2.89,1.27,4.69,1.27Z"/>
    <path class="cls-1" d="m882.93,112.29c-1.32,0-2.47-.3-3.45-.9s-1.72-1.45-2.25-2.57-.79-2.44-.79-3.99v-11.95h2.95v11.72c0,1.55.29,2.8.88,3.77s1.64,1.45,3.16,1.45c1.14,0,2.12-.29,2.95-.88s1.48-1.46,1.94-2.64.69-2.64.69-4.39v-9.04h2.95v18.98h-2.78v-4.46l.12.77c-.49,1.17-1.29,2.15-2.38,2.94s-2.43,1.18-4.02,1.18Z"/>
    <path class="cls-1" d="m901.93,111.87c-.75,0-1.41-.25-1.97-.75s-.84-1.13-.84-1.89v-13.89h-3.06v-2.46h3.06v-3.97l2.95-.63v4.61h3.76v2.46h-3.76v13.1c0,.39.06.64.17.77s.35.19.71.19h2.9v2.46h-3.92Z"/>
    <path class="cls-1" d="m910.11,118.72v-25.84h2.78v3.96l-.09-.28c.52-1.38,1.37-2.41,2.57-3.08s2.47-1.01,3.81-1.01c1.55,0,2.91.4,4.08,1.21s2.09,1.96,2.74,3.45.98,3.25.98,5.27-.33,3.78-.99,5.26-1.58,2.62-2.75,3.43-2.53,1.2-4.06,1.2c-1.24,0-2.47-.31-3.69-.93s-2.14-1.67-2.76-3.15l.26-.14v10.65h-2.88Zm8.26-8.89c1.57,0,2.86-.65,3.87-1.94s1.51-3.15,1.51-5.56-.49-4.16-1.46-5.46-2.27-1.94-3.88-1.94c-.98,0-1.89.26-2.72.77s-1.49,1.32-1.98,2.41-.74,2.5-.74,4.22c0,2.54.53,4.43,1.58,5.66s2.33,1.85,3.81,1.85Z"/>
    <path class="cls-1" d="m937.81,112.29c-1.32,0-2.47-.3-3.45-.9s-1.72-1.45-2.25-2.57-.79-2.44-.79-3.99v-11.95h2.95v11.72c0,1.55.29,2.8.88,3.77s1.64,1.45,3.16,1.45c1.14,0,2.12-.29,2.95-.88s1.48-1.46,1.94-2.64.69-2.64.69-4.39v-9.04h2.95v18.98h-2.78v-4.46l.12.77c-.49,1.17-1.29,2.15-2.38,2.94s-2.43,1.18-4.02,1.18Z"/>
    <path class="cls-1" d="m956.81,111.87c-.75,0-1.41-.25-1.97-.75s-.84-1.13-.84-1.89v-13.89h-3.06v-2.46h3.06v-3.97l2.95-.63v4.61h3.76v2.46h-3.76v13.1c0,.39.06.64.17.77s.35.19.71.19h2.9v2.46h-3.92Z"/>
  </g>
</svg>