<?xml version="1.0" encoding="UTF-8"?>
<svg id="Ebene_1" data-name="Ebene 1" xmlns="http://www.w3.org/2000/svg" width="1044" height="295.2" viewBox="0 0 1044 295.2">
  <rect x="43.2" y="86.4" width="400" height="72" fill="#307eef" isolation="isolate" opacity=".2"/>
  <rect x="721.2" y="86.4" width="122" height="72" fill="#307eef" isolation="isolate" opacity=".2"/>
  <rect x="161.78" y="86.4" width="2.83" height="72" fill="#7f7f7f"/>
  <rect x="231.78" y="86.4" width="2.83" height="72" fill="#7f7f7f"/>
  <rect x="281.78" y="86.4" width="2.83" height="72" fill="#7f7f7f"/>
  <rect x="319.78" y="86.4" width="2.83" height="72" fill="#7f7f7f"/>
  <rect x="351.78" y="86.4" width="2.83" height="72" fill="#7f7f7f"/>
  <rect x="379.78" y="86.4" width="2.83" height="72" fill="#7f7f7f"/>
  <rect x="401.78" y="86.4" width="2.83" height="72" fill="#7f7f7f"/>
  <rect x="421.78" y="86.4" width="2.83" height="72" fill="#7f7f7f"/>
  <rect x="561.78" y="86.4" width="2.83" height="72" fill="#7f7f7f"/>
  <rect x="631.78" y="86.4" width="2.83" height="72" fill="#7f7f7f"/>
  <rect x="681.78" y="86.4" width="2.83" height="72" fill="#7f7f7f"/>
  <rect x="719.78" y="86.4" width="2.83" height="72" fill="#7f7f7f"/>
  <rect x="751.78" y="86.4" width="2.83" height="72" fill="#7f7f7f"/>
  <rect x="779.78" y="86.4" width="2.83" height="72" fill="#7f7f7f"/>
  <rect x="801.78" y="86.4" width="2.83" height="72" fill="#7f7f7f"/>
  <rect x="821.78" y="86.4" width="2.83" height="72" fill="#7f7f7f"/>
  <rect x="961.78" y="86.4" width="2.83" height="72" fill="#7f7f7f"/>
  <rect x="441.78" y="86.4" width="2.83" height="72" fill="#7f7f7f"/>
  <rect x="841.78" y="86.4" width="2.83" height="72" fill="#7f7f7f"/>
  <g isolation="isolate">
    <g isolation="isolate">
      <path d="m25.694,230.4h-3.27v-21.674l-6.557,2.408v-2.953l9.316-3.498h.51v25.717Z" fill="#c9d1d9"/>
      <path d="m51.271,219.484c0,3.809-.65,6.639-1.951,8.49s-3.334,2.777-6.1,2.777c-2.73,0-4.752-.905-6.064-2.716s-1.992-4.515-2.039-8.112v-4.342c0-3.762.65-6.557,1.951-8.385s3.34-2.742,6.117-2.742c2.754,0,4.781.882,6.082,2.646s1.969,4.485,2.004,8.165v4.219Zm-3.252-4.447c0-2.754-.387-4.761-1.16-6.021s-1.998-1.89-3.674-1.89c-1.664,0-2.877.627-3.639,1.881s-1.154,3.182-1.178,5.783v5.203c0,2.766.401,4.808,1.204,6.126s2.019,1.978,3.647,1.978c1.605,0,2.798-.621,3.577-1.863s1.187-3.199,1.222-5.871v-5.326Z" fill="#c9d1d9"/>
      <path d="m71.485,219.484c0,3.809-.65,6.639-1.951,8.49s-3.334,2.777-6.1,2.777c-2.73,0-4.752-.905-6.064-2.716s-1.992-4.515-2.039-8.112v-4.342c0-3.762.65-6.557,1.951-8.385s3.34-2.742,6.117-2.742c2.754,0,4.781.882,6.082,2.646s1.969,4.485,2.004,8.165v4.219Zm-3.252-4.447c0-2.754-.387-4.761-1.16-6.021s-1.998-1.89-3.674-1.89c-1.664,0-2.877.627-3.639,1.881s-1.154,3.182-1.178,5.783v5.203c0,2.766.401,4.808,1.204,6.126s2.019,1.978,3.647,1.978c1.605,0,2.798-.621,3.577-1.863s1.187-3.199,1.222-5.871v-5.326Z" fill="#c9d1d9"/>
    </g>
  </g>
  <g isolation="isolate">
    <g isolation="isolate">
      <path d="m151.776,230.4h-16.77v-2.338l8.859-9.844c1.312-1.488,2.218-2.698,2.716-3.63s.747-1.896.747-2.892c0-1.336-.404-2.432-1.213-3.287s-1.887-1.283-3.234-1.283c-1.617,0-2.874.46-3.771,1.38s-1.345,2.2-1.345,3.841h-3.252c0-2.355.759-4.26,2.276-5.713s3.548-2.18,6.091-2.18c2.379,0,4.26.624,5.643,1.872s2.074,2.909,2.074,4.983c0,2.52-1.605,5.52-4.816,9l-6.855,7.436h12.85v2.654Z" fill="#c9d1d9"/>
      <path d="m171.271,219.484c0,3.809-.65,6.639-1.951,8.49s-3.334,2.777-6.1,2.777c-2.73,0-4.752-.905-6.064-2.716s-1.992-4.515-2.039-8.112v-4.342c0-3.762.65-6.557,1.951-8.385s3.34-2.742,6.117-2.742c2.754,0,4.781.882,6.082,2.646s1.969,4.485,2.004,8.165v4.219Zm-3.252-4.447c0-2.754-.387-4.761-1.16-6.021s-1.998-1.89-3.674-1.89c-1.664,0-2.877.627-3.639,1.881s-1.154,3.182-1.178,5.783v5.203c0,2.766.401,4.808,1.204,6.126s2.019,1.978,3.647,1.978c1.605,0,2.798-.621,3.577-1.863s1.187-3.199,1.222-5.871v-5.326Z" fill="#c9d1d9"/>
      <path d="m191.485,219.484c0,3.809-.65,6.639-1.951,8.49s-3.334,2.777-6.1,2.777c-2.73,0-4.752-.905-6.064-2.716s-1.992-4.515-2.039-8.112v-4.342c0-3.762.65-6.557,1.951-8.385s3.34-2.742,6.117-2.742c2.754,0,4.781.882,6.082,2.646s1.969,4.485,2.004,8.165v4.219Zm-3.252-4.447c0-2.754-.387-4.761-1.16-6.021s-1.998-1.89-3.674-1.89c-1.664,0-2.877.627-3.639,1.881s-1.154,3.182-1.178,5.783v5.203c0,2.766.401,4.808,1.204,6.126s2.019,1.978,3.647,1.978c1.605,0,2.798-.621,3.577-1.863s1.187-3.199,1.222-5.871v-5.326Z" fill="#c9d1d9"/>
    </g>
  </g>
  <g isolation="isolate">
    <g isolation="isolate">
      <path d="m294.501,217.568l1.301-12.762h13.113v3.006h-10.354l-.773,6.979c1.254-.738,2.678-1.107,4.271-1.107,2.332,0,4.184.771,5.555,2.312s2.057,3.624,2.057,6.249-.712,4.714-2.136,6.231-3.413,2.276-5.968,2.276c-2.262,0-4.107-.627-5.537-1.881s-2.244-2.988-2.443-5.203h3.076c.199,1.465.721,2.569,1.564,3.313s1.957,1.116,3.34,1.116c1.512,0,2.698-.516,3.56-1.547s1.292-2.455,1.292-4.271c0-1.711-.466-3.085-1.397-4.122s-2.171-1.556-3.718-1.556c-1.418,0-2.531.311-3.34.932l-.861.703-2.602-.668Z" fill="#c9d1d9"/>
      <path d="m329.271,219.484c0,3.809-.65,6.639-1.951,8.49s-3.334,2.777-6.1,2.777c-2.73,0-4.752-.905-6.064-2.716s-1.992-4.515-2.039-8.112v-4.342c0-3.762.65-6.557,1.951-8.385s3.34-2.742,6.117-2.742c2.754,0,4.781.882,6.082,2.646s1.969,4.485,2.004,8.165v4.219Zm-3.252-4.447c0-2.754-.387-4.761-1.16-6.021s-1.998-1.89-3.674-1.89c-1.664,0-2.877.627-3.639,1.881s-1.154,3.182-1.178,5.783v5.203c0,2.766.401,4.808,1.204,6.126s2.019,1.978,3.647,1.978c1.605,0,2.798-.621,3.577-1.863s1.187-3.199,1.222-5.871v-5.326Z" fill="#c9d1d9"/>
      <path d="m349.485,219.484c0,3.809-.65,6.639-1.951,8.49s-3.334,2.777-6.1,2.777c-2.73,0-4.752-.905-6.064-2.716s-1.992-4.515-2.039-8.112v-4.342c0-3.762.65-6.557,1.951-8.385s3.34-2.742,6.117-2.742c2.754,0,4.781.882,6.082,2.646s1.969,4.485,2.004,8.165v4.219Zm-3.252-4.447c0-2.754-.387-4.761-1.16-6.021s-1.998-1.89-3.674-1.89c-1.664,0-2.877.627-3.639,1.881s-1.154,3.182-1.178,5.783v5.203c0,2.766.401,4.808,1.204,6.126s2.019,1.978,3.647,1.978c1.605,0,2.798-.621,3.577-1.863s1.187-3.199,1.222-5.871v-5.326Z" fill="#c9d1d9"/>
    </g>
  </g>
  <g isolation="isolate">
    <g isolation="isolate">
      <path d="m436.784,230.4h-3.27v-21.674l-6.557,2.408v-2.953l9.316-3.498h.51v25.717Z" fill="#c9d1d9"/>
      <path d="m451.954,221.594l-2.039,2.127v6.68h-3.252v-27h3.252v16.33l1.74-2.092,5.924-6.258h3.955l-7.4,7.945,8.262,11.074h-3.814l-6.627-8.807Z" fill="#c9d1d9"/>
    </g>
  </g>
  <g isolation="isolate">
    <g isolation="isolate">
      <path d="m562.861,230.4h-16.77v-2.338l8.859-9.844c1.312-1.488,2.218-2.698,2.716-3.63s.747-1.896.747-2.892c0-1.336-.404-2.432-1.213-3.287s-1.887-1.283-3.234-1.283c-1.617,0-2.874.46-3.771,1.38s-1.345,2.2-1.345,3.841h-3.252c0-2.355.759-4.26,2.276-5.713s3.548-2.18,6.091-2.18c2.379,0,4.26.624,5.643,1.872s2.074,2.909,2.074,4.983c0,2.52-1.605,5.52-4.816,9l-6.855,7.436h12.85v2.654Z" fill="#c9d1d9"/>
      <path d="m571.949,221.594l-2.039,2.127v6.68h-3.252v-27h3.252v16.33l1.74-2.092,5.924-6.258h3.955l-7.4,7.945,8.262,11.074h-3.814l-6.627-8.807Z" fill="#c9d1d9"/>
    </g>
  </g>
  <g isolation="isolate">
    <g isolation="isolate">
      <path d="m705.591,217.568l1.301-12.762h13.113v3.006h-10.354l-.773,6.979c1.254-.738,2.678-1.107,4.271-1.107,2.332,0,4.184.771,5.555,2.312s2.057,3.624,2.057,6.249-.712,4.714-2.136,6.231-3.413,2.276-5.968,2.276c-2.262,0-4.107-.627-5.537-1.881s-2.244-2.988-2.443-5.203h3.076c.199,1.465.721,2.569,1.564,3.313s1.957,1.116,3.34,1.116c1.512,0,2.698-.516,3.56-1.547s1.292-2.455,1.292-4.271c0-1.711-.466-3.085-1.397-4.122s-2.171-1.556-3.718-1.556c-1.418,0-2.531.311-3.34.932l-.861.703-2.602-.668Z" fill="#c9d1d9"/>
      <path d="m729.954,221.594l-2.039,2.127v6.68h-3.252v-27h3.252v16.33l1.74-2.092,5.924-6.258h3.955l-7.4,7.945,8.262,11.074h-3.814l-6.627-8.807Z" fill="#c9d1d9"/>
    </g>
  </g>
  <g isolation="isolate">
    <g isolation="isolate">
      <path d="m826.675,230.4h-3.27v-21.674l-6.557,2.408v-2.953l9.316-3.498h.51v25.717Z" fill="#c9d1d9"/>
      <path d="m852.251,219.484c0,3.809-.65,6.639-1.951,8.49s-3.334,2.777-6.1,2.777c-2.73,0-4.752-.905-6.064-2.716s-1.992-4.515-2.039-8.112v-4.342c0-3.762.65-6.557,1.951-8.385s3.34-2.742,6.117-2.742c2.754,0,4.781.882,6.082,2.646s1.969,4.485,2.004,8.165v4.219Zm-3.252-4.447c0-2.754-.387-4.761-1.16-6.021s-1.998-1.89-3.674-1.89c-1.664,0-2.877.627-3.639,1.881s-1.154,3.182-1.178,5.783v5.203c0,2.766.401,4.808,1.204,6.126s2.019,1.978,3.647,1.978c1.605,0,2.798-.621,3.577-1.863s1.187-3.199,1.222-5.871v-5.326Z" fill="#c9d1d9"/>
      <path d="m862.06,221.594l-2.039,2.127v6.68h-3.252v-27h3.252v16.33l1.74-2.092,5.924-6.258h3.955l-7.4,7.945,8.262,11.074h-3.814l-6.627-8.807Z" fill="#c9d1d9"/>
    </g>
  </g>
  <g isolation="isolate">
    <g isolation="isolate">
      <path d="m952.757,230.4h-16.77v-2.338l8.859-9.844c1.312-1.488,2.218-2.698,2.716-3.63s.747-1.896.747-2.892c0-1.336-.404-2.432-1.213-3.287s-1.887-1.283-3.234-1.283c-1.617,0-2.874.46-3.771,1.38s-1.345,2.2-1.345,3.841h-3.252c0-2.355.759-4.26,2.276-5.713s3.548-2.18,6.091-2.18c2.379,0,4.26.624,5.643,1.872s2.074,2.909,2.074,4.983c0,2.52-1.605,5.52-4.816,9l-6.855,7.436h12.85v2.654Z" fill="#c9d1d9"/>
      <path d="m972.251,219.484c0,3.809-.65,6.639-1.951,8.49s-3.334,2.777-6.1,2.777c-2.73,0-4.752-.905-6.064-2.716s-1.992-4.515-2.039-8.112v-4.342c0-3.762.65-6.557,1.951-8.385s3.34-2.742,6.117-2.742c2.754,0,4.781.882,6.082,2.646s1.969,4.485,2.004,8.165v4.219Zm-3.252-4.447c0-2.754-.387-4.761-1.16-6.021s-1.998-1.89-3.674-1.89c-1.664,0-2.877.627-3.639,1.881s-1.154,3.182-1.178,5.783v5.203c0,2.766.401,4.808,1.204,6.126s2.019,1.978,3.647,1.978c1.605,0,2.798-.621,3.577-1.863s1.187-3.199,1.222-5.871v-5.326Z" fill="#c9d1d9"/>
      <path d="m982.06,221.594l-2.039,2.127v6.68h-3.252v-27h3.252v16.33l1.74-2.092,5.924-6.258h3.955l-7.4,7.945,8.262,11.074h-3.814l-6.627-8.807Z" fill="#c9d1d9"/>
    </g>
  </g>
  <line x1="7.2" y1="158.4" x2="1020.78" y2="158.4" fill="none" stroke="#7f7f7f" stroke-miterlimit="20" stroke-width="5.67"/>
  <polygon points="987.27 176.43 985.33 171.1 1020.23 158.4 985.33 145.7 987.27 140.37 1036.8 158.4 987.27 176.43" fill="#7f7f7f"/>
  <line x1="68.31" y1="64.8" x2="418.09" y2="64.8" fill="none" stroke="#c9d1d9" stroke-miterlimit="10" stroke-width="2.83"/>
  <polygon points="73.93 73.04 43.2 64.81 73.93 56.56 73.93 73.04" fill="#c9d1d9"/>
  <polygon points="412.47 73.04 443.2 64.81 412.47 56.56 412.47 73.04" fill="#c9d1d9"/>
  <line x1="745.51" y1="64.8" x2="817.29" y2="64.8" fill="none" stroke="#c9d1d9" stroke-miterlimit="10" stroke-width="2.83"/>
  <polygon points="751.13 73.04 720.4 64.81 751.13 56.56 751.13 73.04" fill="#c9d1d9"/>
  <polygon points="811.67 73.04 842.4 64.81 811.67 56.56 811.67 73.04" fill="#c9d1d9"/>
  <g isolation="isolate">
    <g isolation="isolate">
      <path d="m170.968,25.229c0,2.508-.422,4.696-1.266,6.565s-2.039,3.296-3.586,4.28-3.352,1.477-5.414,1.477c-2.016,0-3.803-.495-5.361-1.485s-2.769-2.402-3.63-4.236-1.304-3.958-1.327-6.372v-1.846c0-2.461.428-4.635,1.283-6.521s2.065-3.331,3.63-4.333,3.354-1.503,5.37-1.503c2.051,0,3.858.495,5.423,1.485s2.769,2.426,3.612,4.307,1.266,4.069,1.266,6.565v1.617Zm-3.357-1.652c0-3.035-.609-5.364-1.828-6.987s-2.924-2.435-5.115-2.435c-2.133,0-3.812.812-5.036,2.435s-1.854,3.876-1.89,6.759v1.881c0,2.941.618,5.253,1.854,6.935s2.938,2.522,5.106,2.522c2.18,0,3.867-.794,5.062-2.382s1.811-3.864,1.846-6.829v-1.898Z" fill="#c9d1d9"/>
      <path d="m178.597,18.181l.105,2.391c1.453-1.828,3.352-2.742,5.695-2.742,4.02,0,6.047,2.268,6.082,6.803v12.568h-3.252v-12.586c-.012-1.371-.325-2.385-.94-3.041s-1.573-.984-2.874-.984c-1.055,0-1.98.281-2.777.844s-1.418,1.301-1.863,2.215v13.553h-3.252v-19.02h3.076Z" fill="#c9d1d9"/>
      <path d="m203.277,37.552c-2.578,0-4.676-.847-6.293-2.54s-2.426-3.958-2.426-6.794v-.598c0-1.887.36-3.571,1.081-5.054s1.729-2.643,3.023-3.48,2.698-1.257,4.21-1.257c2.473,0,4.395.814,5.766,2.443s2.057,3.961,2.057,6.996v1.354h-12.885c.047,1.875.595,3.39,1.644,4.544s2.382,1.731,3.999,1.731c1.148,0,2.121-.234,2.918-.703s1.494-1.09,2.092-1.863l1.986,1.547c-1.594,2.449-3.984,3.674-7.172,3.674Zm-.404-17.051c-1.312,0-2.414.478-3.305,1.433s-1.441,2.294-1.652,4.017h9.527v-.246c-.094-1.652-.539-2.933-1.336-3.841s-1.875-1.362-3.234-1.362Z" fill="#c9d1d9"/>
      <path d="m222.578,27.532c0-2.918.691-5.265,2.074-7.04s3.193-2.663,5.432-2.663c2.227,0,3.99.762,5.291,2.285v-9.914h3.252v27h-2.988l-.158-2.039c-1.301,1.594-3.111,2.391-5.432,2.391-2.203,0-3.999-.902-5.388-2.707s-2.083-4.16-2.083-7.066v-.246Zm3.252.369c0,2.156.445,3.844,1.336,5.062s2.121,1.828,3.691,1.828c2.062,0,3.568-.926,4.518-2.777v-8.736c-.973-1.793-2.467-2.689-4.482-2.689-1.594,0-2.836.615-3.727,1.846s-1.336,3.053-1.336,5.467Z" fill="#c9d1d9"/>
      <path d="m251.564,37.552c-2.578,0-4.676-.847-6.293-2.54s-2.426-3.958-2.426-6.794v-.598c0-1.887.36-3.571,1.081-5.054s1.729-2.643,3.023-3.48,2.698-1.257,4.21-1.257c2.473,0,4.395.814,5.766,2.443s2.057,3.961,2.057,6.996v1.354h-12.885c.047,1.875.595,3.39,1.644,4.544s2.382,1.731,3.999,1.731c1.148,0,2.121-.234,2.918-.703s1.494-1.09,2.092-1.863l1.986,1.547c-1.594,2.449-3.984,3.674-7.172,3.674Zm-.404-17.051c-1.312,0-2.414.478-3.305,1.433s-1.441,2.294-1.652,4.017h9.527v-.246c-.094-1.652-.539-2.933-1.336-3.841s-1.875-1.362-3.234-1.362Z" fill="#c9d1d9"/>
      <path d="m270.373,34.897c1.16,0,2.174-.352,3.041-1.055s1.348-1.582,1.441-2.637h3.076c-.059,1.09-.434,2.127-1.125,3.111s-1.614,1.77-2.769,2.355-2.376.879-3.665.879c-2.59,0-4.649-.864-6.179-2.593s-2.294-4.093-2.294-7.093v-.545c0-1.852.34-3.498,1.02-4.939s1.655-2.561,2.927-3.357,2.774-1.195,4.509-1.195c2.133,0,3.905.639,5.317,1.916s2.165,2.936,2.259,4.975h-3.076c-.094-1.23-.56-2.241-1.397-3.032s-1.872-1.187-3.103-1.187c-1.652,0-2.933.595-3.841,1.784s-1.362,2.909-1.362,5.159v.615c0,2.191.451,3.879,1.354,5.062s2.191,1.775,3.867,1.775Z" fill="#c9d1d9"/>
      <path d="m293.33,37.2c-.188-.375-.34-1.043-.457-2.004-1.512,1.57-3.316,2.355-5.414,2.355-1.875,0-3.413-.53-4.614-1.591s-1.802-2.405-1.802-4.034c0-1.98.753-3.519,2.259-4.614s3.624-1.644,6.354-1.644h3.164v-1.494c0-1.137-.34-2.042-1.02-2.716s-1.682-1.011-3.006-1.011c-1.16,0-2.133.293-2.918.879s-1.178,1.295-1.178,2.127h-3.27c0-.949.337-1.866,1.011-2.751s1.588-1.585,2.742-2.101,2.423-.773,3.806-.773c2.191,0,3.908.548,5.15,1.644s1.887,2.604,1.934,4.526v8.754c0,1.746.223,3.135.668,4.166v.281h-3.41Zm-5.396-2.479c1.02,0,1.986-.264,2.9-.791s1.576-1.213,1.986-2.057v-3.902h-2.549c-3.984,0-5.977,1.166-5.977,3.498,0,1.02.34,1.816,1.02,2.391s1.553.861,2.619.861Z" fill="#c9d1d9"/>
      <path d="m300.378,27.532c0-2.918.691-5.265,2.074-7.04s3.193-2.663,5.432-2.663c2.227,0,3.99.762,5.291,2.285v-9.914h3.252v27h-2.988l-.158-2.039c-1.301,1.594-3.111,2.391-5.432,2.391-2.203,0-3.999-.902-5.388-2.707s-2.083-4.16-2.083-7.066v-.246Zm3.252.369c0,2.156.445,3.844,1.336,5.062s2.121,1.828,3.691,1.828c2.062,0,3.568-.926,4.518-2.777v-8.736c-.973-1.793-2.467-2.689-4.482-2.689-1.594,0-2.836.615-3.727,1.846s-1.336,3.053-1.336,5.467Z" fill="#c9d1d9"/>
      <path d="m329.365,37.552c-2.578,0-4.676-.847-6.293-2.54s-2.426-3.958-2.426-6.794v-.598c0-1.887.36-3.571,1.081-5.054s1.729-2.643,3.023-3.48,2.698-1.257,4.21-1.257c2.473,0,4.395.814,5.766,2.443s2.057,3.961,2.057,6.996v1.354h-12.885c.047,1.875.595,3.39,1.644,4.544s2.382,1.731,3.999,1.731c1.148,0,2.121-.234,2.918-.703s1.494-1.09,2.092-1.863l1.986,1.547c-1.594,2.449-3.984,3.674-7.172,3.674Zm-.404-17.051c-1.312,0-2.414.478-3.305,1.433s-1.441,2.294-1.652,4.017h9.527v-.246c-.094-1.652-.539-2.933-1.336-3.841s-1.875-1.362-3.234-1.362Z" fill="#c9d1d9"/>
    </g>
  </g>
  <g isolation="isolate">
    <g isolation="isolate">
      <path d="m714.389,25.229c0,2.508-.422,4.696-1.266,6.565s-2.039,3.296-3.586,4.28-3.352,1.477-5.414,1.477c-2.016,0-3.803-.495-5.361-1.485s-2.77-2.402-3.631-4.236-1.303-3.958-1.326-6.372v-1.846c0-2.461.428-4.635,1.283-6.521s2.064-3.331,3.629-4.333,3.355-1.503,5.371-1.503c2.051,0,3.857.495,5.422,1.485s2.77,2.426,3.613,4.307,1.266,4.069,1.266,6.565v1.617Zm-3.357-1.652c0-3.035-.609-5.364-1.828-6.987s-2.924-2.435-5.115-2.435c-2.133,0-3.812.812-5.037,2.435s-1.854,3.876-1.889,6.759v1.881c0,2.941.617,5.253,1.854,6.935s2.939,2.522,5.107,2.522c2.18,0,3.867-.794,5.062-2.382s1.811-3.864,1.846-6.829v-1.898Z" fill="#c9d1d9"/>
      <path d="m722.018,18.181l.105,2.391c1.453-1.828,3.352-2.742,5.695-2.742,4.02,0,6.047,2.268,6.082,6.803v12.568h-3.252v-12.586c-.012-1.371-.326-2.385-.941-3.041s-1.572-.984-2.873-.984c-1.055,0-1.98.281-2.777.844s-1.418,1.301-1.863,2.215v13.553h-3.252v-19.02h3.076Z" fill="#c9d1d9"/>
      <path d="m746.697,37.552c-2.578,0-4.676-.847-6.293-2.54s-2.426-3.958-2.426-6.794v-.598c0-1.887.359-3.571,1.08-5.054s1.729-2.643,3.023-3.48,2.699-1.257,4.211-1.257c2.473,0,4.395.814,5.766,2.443s2.057,3.961,2.057,6.996v1.354h-12.885c.047,1.875.594,3.39,1.643,4.544s2.383,1.731,4,1.731c1.148,0,2.121-.234,2.918-.703s1.494-1.09,2.092-1.863l1.986,1.547c-1.594,2.449-3.984,3.674-7.172,3.674Zm-.404-17.051c-1.312,0-2.414.478-3.305,1.433s-1.441,2.294-1.652,4.017h9.527v-.246c-.094-1.652-.539-2.933-1.336-3.841s-1.875-1.362-3.234-1.362Z" fill="#c9d1d9"/>
      <path d="m765.928,27.515c0-1.863.365-3.539,1.098-5.027s1.752-2.637,3.059-3.445,2.799-1.213,4.475-1.213c2.59,0,4.684.896,6.283,2.689s2.4,4.178,2.4,7.154v.229c0,1.852-.355,3.513-1.064,4.983s-1.723,2.616-3.041,3.437-2.832,1.23-4.543,1.23c-2.578,0-4.668-.896-6.268-2.689s-2.398-4.166-2.398-7.119v-.229Zm3.27.387c0,2.109.488,3.803,1.467,5.08s2.289,1.916,3.93,1.916c1.652,0,2.965-.647,3.938-1.942s1.459-3.108,1.459-5.44c0-2.086-.496-3.776-1.486-5.071s-2.305-1.942-3.945-1.942c-1.605,0-2.9.639-3.885,1.916s-1.477,3.105-1.477,5.484Z" fill="#c9d1d9"/>
      <path d="m794.949,34.897c1.16,0,2.174-.352,3.041-1.055s1.348-1.582,1.441-2.637h3.076c-.059,1.09-.434,2.127-1.125,3.111s-1.615,1.77-2.77,2.355-2.375.879-3.664.879c-2.59,0-4.65-.864-6.18-2.593s-2.293-4.093-2.293-7.093v-.545c0-1.852.34-3.498,1.02-4.939s1.654-2.561,2.926-3.357,2.775-1.195,4.51-1.195c2.133,0,3.904.639,5.316,1.916s2.166,2.936,2.26,4.975h-3.076c-.094-1.23-.561-2.241-1.398-3.032s-1.871-1.187-3.102-1.187c-1.652,0-2.934.595-3.842,1.784s-1.361,2.909-1.361,5.159v.615c0,2.191.451,3.879,1.354,5.062s2.191,1.775,3.867,1.775Z" fill="#c9d1d9"/>
      <path d="m810.576,13.575v4.605h3.551v2.514h-3.551v11.81c0,.763.158,1.335.475,1.716.316.382.855.572,1.617.572.375,0,.891-.07,1.547-.211v2.621c-.855.233-1.688.35-2.496.35-1.453,0-2.549-.439-3.287-1.318s-1.107-2.127-1.107-3.744v-11.795h-3.463v-2.514h3.463v-4.605h3.252Z" fill="#c9d1d9"/>
    </g>
    <g isolation="isolate">
      <path d="m829.663,37.2c-.188-.375-.34-1.043-.457-2.004-1.512,1.57-3.316,2.355-5.414,2.355-1.875,0-3.413-.53-4.614-1.591s-1.802-2.405-1.802-4.034c0-1.98.753-3.519,2.259-4.614s3.624-1.644,6.354-1.644h3.164v-1.494c0-1.137-.34-2.042-1.02-2.716s-1.682-1.011-3.006-1.011c-1.16,0-2.133.293-2.918.879s-1.178,1.295-1.178,2.127h-3.27c0-.949.337-1.866,1.011-2.751s1.588-1.585,2.742-2.101,2.423-.773,3.806-.773c2.191,0,3.908.548,5.15,1.644s1.887,2.604,1.934,4.526v8.754c0,1.746.223,3.135.668,4.166v.281h-3.41Zm-5.396-2.479c1.02,0,1.986-.264,2.9-.791s1.576-1.213,1.986-2.057v-3.902h-2.549c-3.984,0-5.977,1.166-5.977,3.498,0,1.02.34,1.816,1.02,2.391s1.553.861,2.619.861Z" fill="#c9d1d9"/>
    </g>
    <g isolation="isolate">
      <path d="m843.517,32.788l4.711-14.607h3.322l-6.82,19.02h-2.479l-6.891-19.02h3.322l4.834,14.607Z" fill="#c9d1d9"/>
    </g>
    <g isolation="isolate">
      <path d="m862.344,37.552c-2.578,0-4.676-.847-6.293-2.54s-2.426-3.958-2.426-6.794v-.598c0-1.887.36-3.571,1.081-5.054s1.729-2.643,3.023-3.48,2.698-1.257,4.21-1.257c2.473,0,4.395.814,5.766,2.443s2.057,3.961,2.057,6.996v1.354h-12.885c.047,1.875.595,3.39,1.644,4.544s2.382,1.731,3.999,1.731c1.148,0,2.121-.234,2.918-.703s1.494-1.09,2.092-1.863l1.986,1.547c-1.594,2.449-3.984,3.674-7.172,3.674Zm-.404-17.051c-1.312,0-2.414.478-3.305,1.433s-1.441,2.294-1.652,4.017h9.527v-.246c-.094-1.652-.539-2.933-1.336-3.841s-1.875-1.362-3.234-1.362Z" fill="#c9d1d9"/>
    </g>
  </g>
  <line x1="43.2" y1="50.4" x2="43.2" y2="79.2" fill="none" stroke="#c9d1d9" stroke-miterlimit="10" stroke-width="2.83"/>
  <line x1="443.2" y1="79.33" x2="443.2" y2="50.53" fill="none" stroke="#c9d1d9" stroke-miterlimit="10" stroke-width="2.83"/>
  <line x1="721.2" y1="50.4" x2="721.2" y2="79.2" fill="none" stroke="#c9d1d9" stroke-miterlimit="10" stroke-width="2.83"/>
  <line x1="842.4" y1="50.4" x2="842.4" y2="79.2" fill="none" stroke="#c9d1d9" stroke-miterlimit="10" stroke-width="2.83"/>
  <g isolation="isolate">
    <g isolation="isolate">
      <path d="m411.386,269.497h-10.74v11.303h-3.375v-25.594h15.855v2.76h-12.48v8.771h10.74v2.76Z" fill="#c9d1d9"/>
    </g>
    <g isolation="isolate">
      <path d="m425.395,264.698c-.492-.082-1.025-.123-1.6-.123-2.133,0-3.58.908-4.342,2.725v13.5h-3.252v-19.02h3.164l.053,2.197c1.066-1.699,2.578-2.549,4.535-2.549.633,0,1.113.082,1.441.246v3.023Z" fill="#c9d1d9"/>
    </g>
    <g isolation="isolate">
      <path d="m435.943,281.151c-2.578,0-4.676-.847-6.293-2.54s-2.426-3.958-2.426-6.794v-.598c0-1.887.36-3.571,1.081-5.054s1.729-2.643,3.023-3.48,2.698-1.257,4.21-1.257c2.473,0,4.395.814,5.766,2.443s2.057,3.961,2.057,6.996v1.354h-12.885c.047,1.875.595,3.39,1.644,4.544s2.382,1.731,3.999,1.731c1.148,0,2.121-.234,2.918-.703s1.494-1.09,2.092-1.863l1.986,1.547c-1.594,2.449-3.984,3.674-7.172,3.674Zm-.404-17.051c-1.312,0-2.414.478-3.305,1.433s-1.441,2.294-1.652,4.017h9.527v-.246c-.094-1.652-.539-2.933-1.336-3.841s-1.875-1.362-3.234-1.362Z" fill="#c9d1d9"/>
      <path d="m446.332,271.132c0-2.988.686-5.353,2.057-7.093s3.211-2.61,5.52-2.61c2.25,0,4.025.756,5.326,2.268l.141-1.916h2.988v26.332h-3.252v-9.07c-1.312,1.406-3.059,2.109-5.238,2.109-2.297,0-4.128-.894-5.493-2.681s-2.048-4.157-2.048-7.11v-.229Zm3.252.369c0,2.18.46,3.891,1.38,5.133s2.159,1.863,3.718,1.863c1.934,0,3.41-.855,4.43-2.566v-9.316c-1.031-1.676-2.496-2.514-4.395-2.514-1.57,0-2.818.624-3.744,1.872s-1.389,3.091-1.389,5.528Z" fill="#c9d1d9"/>
      <path d="m479.326,278.919c-1.266,1.488-3.123,2.232-5.572,2.232-2.027,0-3.571-.589-4.632-1.767s-1.597-2.921-1.608-5.229v-12.375h3.252v12.287c0,2.883,1.172,4.324,3.516,4.324,2.484,0,4.137-.926,4.957-2.777v-13.834h3.252v19.02h-3.094l-.07-1.881Z" fill="#c9d1d9"/>
      <path d="m495.322,281.151c-2.578,0-4.676-.847-6.293-2.54s-2.426-3.958-2.426-6.794v-.598c0-1.887.36-3.571,1.081-5.054s1.729-2.643,3.023-3.48,2.698-1.257,4.21-1.257c2.473,0,4.395.814,5.766,2.443s2.057,3.961,2.057,6.996v1.354h-12.885c.047,1.875.595,3.39,1.644,4.544s2.382,1.731,3.999,1.731c1.148,0,2.121-.234,2.918-.703s1.494-1.09,2.092-1.863l1.986,1.547c-1.594,2.449-3.984,3.674-7.172,3.674Zm-.404-17.051c-1.312,0-2.414.478-3.305,1.433s-1.441,2.294-1.652,4.017h9.527v-.246c-.094-1.652-.539-2.933-1.336-3.841s-1.875-1.362-3.234-1.362Z" fill="#c9d1d9"/>
      <path d="m509.578,261.78l.105,2.391c1.453-1.828,3.352-2.742,5.695-2.742,4.02,0,6.047,2.268,6.082,6.803v12.568h-3.252v-12.586c-.012-1.371-.325-2.385-.94-3.041s-1.573-.984-2.874-.984c-1.055,0-1.98.281-2.777.844s-1.418,1.301-1.863,2.215v13.553h-3.252v-19.02h3.076Z" fill="#c9d1d9"/>
      <path d="m533.994,278.497c1.16,0,2.174-.352,3.041-1.055s1.348-1.582,1.441-2.637h3.076c-.059,1.09-.434,2.127-1.125,3.111s-1.614,1.77-2.769,2.355-2.376.879-3.665.879c-2.59,0-4.649-.864-6.179-2.593s-2.294-4.093-2.294-7.093v-.545c0-1.852.34-3.498,1.02-4.939s1.655-2.561,2.927-3.357,2.774-1.195,4.509-1.195c2.133,0,3.905.639,5.317,1.916s2.165,2.936,2.259,4.975h-3.076c-.094-1.23-.56-2.241-1.397-3.032s-1.872-1.187-3.103-1.187c-1.652,0-2.933.595-3.841,1.784s-1.362,2.909-1.362,5.159v.615c0,2.191.451,3.879,1.354,5.062s2.191,1.775,3.867,1.775Z" fill="#c9d1d9"/>
      <path d="m551.432,276.036l4.43-14.256h3.48l-7.646,21.955c-1.184,3.164-3.064,4.746-5.643,4.746l-.615-.053-1.213-.229v-2.637l.879.07c1.102,0,1.96-.223,2.575-.668s1.122-1.26,1.521-2.443l.721-1.934-6.785-18.809h3.551l4.746,14.256Z" fill="#c9d1d9"/>
      <path d="m571.172,256.735c0-.527.161-.973.483-1.336s.8-.545,1.433-.545,1.113.182,1.441.545.492.809.492,1.336-.164.967-.492,1.318-.809.527-1.441.527-1.11-.176-1.433-.527-.483-.791-.483-1.318Zm3.516,24.064h-3.252v-19.02h3.252v19.02Z" fill="#c9d1d9"/>
      <path d="m582.967,261.78l.105,2.391c1.453-1.828,3.352-2.742,5.695-2.742,4.02,0,6.047,2.268,6.082,6.803v12.568h-3.252v-12.586c-.012-1.371-.325-2.385-.94-3.041s-1.573-.984-2.874-.984c-1.055,0-1.98.281-2.777.844s-1.418,1.301-1.863,2.215v13.553h-3.252v-19.02h3.076Z" fill="#c9d1d9"/>
      <path d="m628.846,280.8h-3.393v-11.83h-12.902v11.83h-3.375v-25.594h3.375v11.004h12.902v-11.004h3.393v25.594Z" fill="#c9d1d9"/>
      <path d="m637.389,278.146h11.127v2.654h-15.1v-2.391l10.494-13.939h-10.336v-2.689h14.414v2.303l-10.6,14.062Z" fill="#c9d1d9"/>
    </g>
  </g>
  <line x1="43.2" y1="86.4" x2="43.2" y2="158.4" fill="none" stroke="#7f7f7f" stroke-miterlimit="20" stroke-width="2.83"/>
</svg>