<?xml version="1.0" encoding="UTF-8"?>
<svg id="Ebene_1" data-name="Ebene 1" xmlns="http://www.w3.org/2000/svg" width="1623.6" height="993.6" viewBox="0 0 1623.6 993.6">
  <g id="Ebene_1-2" data-name="Ebene 1">
    <rect x="169.2" y="3.6" width="1440" height="864" fill="none" stroke="#c9d1d9" stroke-miterlimit="10" stroke-width="4"/>
    <line x1="241.2" y1="3.6" x2="241.2" y2="867.6" fill="none" stroke="#c9d1d9" stroke-miterlimit="10" stroke-width="2"/>
    <line x1="313.2" y1="3.6" x2="313.2" y2="867.6" fill="none" stroke="#c9d1d9" stroke-miterlimit="10" stroke-width="2"/>
    <line x1="385.2" y1="3.6" x2="385.2" y2="867.6" fill="none" stroke="#c9d1d9" stroke-miterlimit="10" stroke-width="2"/>
    <line x1="457.2" y1="3.6" x2="457.2" y2="867.6" fill="none" stroke="#c9d1d9" stroke-miterlimit="10" stroke-width="2"/>
    <line x1="529.2" y1="3.6" x2="529.2" y2="867.6" fill="none" stroke="#c9d1d9" stroke-miterlimit="10" stroke-width="2"/>
    <line x1="601.2" y1="3.6" x2="601.2" y2="867.6" fill="none" stroke="#c9d1d9" stroke-miterlimit="10" stroke-width="2"/>
    <line x1="673.2" y1="3.6" x2="673.2" y2="867.6" fill="none" stroke="#c9d1d9" stroke-miterlimit="10" stroke-width="2"/>
    <line x1="745.2" y1="3.6" x2="745.2" y2="867.6" fill="none" stroke="#c9d1d9" stroke-miterlimit="10" stroke-width="2"/>
    <line x1="817.2" y1="3.6" x2="817.2" y2="867.6" fill="none" stroke="#c9d1d9" stroke-miterlimit="10" stroke-width="2"/>
    <line x1="889.2" y1="3.6" x2="889.2" y2="867.6" fill="none" stroke="#c9d1d9" stroke-miterlimit="10" stroke-width="2"/>
    <line x1="961.2" y1="3.6" x2="961.2" y2="867.6" fill="none" stroke="#c9d1d9" stroke-miterlimit="10" stroke-width="2"/>
    <line x1="1033.2" y1="3.6" x2="1033.2" y2="867.6" fill="none" stroke="#c9d1d9" stroke-miterlimit="10" stroke-width="2"/>
    <line x1="1105.2" y1="3.6" x2="1105.2" y2="867.6" fill="none" stroke="#c9d1d9" stroke-miterlimit="10" stroke-width="2"/>
    <line x1="1177.2" y1="3.6" x2="1177.2" y2="867.6" fill="none" stroke="#c9d1d9" stroke-miterlimit="10" stroke-width="2"/>
    <line x1="1249.2" y1="3.6" x2="1249.2" y2="867.6" fill="none" stroke="#c9d1d9" stroke-miterlimit="10" stroke-width="2"/>
    <line x1="1321.2" y1="3.6" x2="1321.2" y2="867.6" fill="none" stroke="#c9d1d9" stroke-miterlimit="10" stroke-width="2"/>
    <line x1="1393.2" y1="3.6" x2="1393.2" y2="867.6" fill="none" stroke="#c9d1d9" stroke-miterlimit="10" stroke-width="2"/>
    <line x1="1465.2" y1="3.6" x2="1465.2" y2="867.6" fill="none" stroke="#c9d1d9" stroke-miterlimit="10" stroke-width="2"/>
    <line x1="1537.2" y1="3.6" x2="1537.2" y2="867.6" fill="none" stroke="#c9d1d9" stroke-miterlimit="10" stroke-width="2"/>
    <line x1="1609.2" y1="75.6" x2="169.2" y2="75.6" fill="none" stroke="#c9d1d9" stroke-miterlimit="10" stroke-width="2"/>
    <line x1="1609.2" y1="147.6" x2="169.2" y2="147.6" fill="none" stroke="#c9d1d9" stroke-miterlimit="10" stroke-width="2"/>
    <line x1="1609.2" y1="219.6" x2="169.2" y2="219.6" fill="none" stroke="#c9d1d9" stroke-miterlimit="10" stroke-width="2"/>
    <line x1="1609.2" y1="291.6" x2="169.2" y2="291.6" fill="none" stroke="#c9d1d9" stroke-miterlimit="10" stroke-width="2"/>
    <line x1="1609.2" y1="363.6" x2="169.2" y2="363.6" fill="none" stroke="#c9d1d9" stroke-miterlimit="10" stroke-width="2"/>
    <line x1="1609.2" y1="435.6" x2="169.2" y2="435.6" fill="none" stroke="#c9d1d9" stroke-miterlimit="10" stroke-width="2"/>
    <line x1="1609.2" y1="507.6" x2="169.2" y2="507.6" fill="none" stroke="#c9d1d9" stroke-miterlimit="10" stroke-width="2"/>
    <line x1="1609.2" y1="579.6" x2="169.2" y2="579.6" fill="none" stroke="#c9d1d9" stroke-miterlimit="10" stroke-width="2"/>
    <line x1="1609.2" y1="651.6" x2="169.2" y2="651.6" fill="none" stroke="#c9d1d9" stroke-miterlimit="10" stroke-width="2"/>
    <line x1="1609.2" y1="723.6" x2="169.2" y2="723.6" fill="none" stroke="#c9d1d9" stroke-miterlimit="10" stroke-width="2"/>
    <line x1="1609.2" y1="795.6" x2="169.2" y2="795.6" fill="none" stroke="#c9d1d9" stroke-miterlimit="10" stroke-width="2"/>
  </g>
  <g id="Signal_Flow" data-name="Signal Flow">
    <g>
      <path d="m169.2,147.6c.13-.09.2-.14.2-.14l26.16-17.53,13.98-8.65,11.73-6.59,10.37-5.19,9.47-4.13,8.57-3.18,8.12-2.48,7.67-1.85,6.77-1.22,6.32-.78,5.86-.4,5.41-.1,5.41.16,5.41.42,5.86.75,6.32,1.14,6.77,1.6,7.67,2.27,8.57,3.08,9.02,3.83,9.47,4.6,10.83,5.9,12.18,7.31,14.89,9.65s8.7,5.91,16.97,11.52" fill="none" stroke="#9b48cc" stroke-miterlimit="10" stroke-width="10.59"/>
      <path d="m409.2,147.6c.13.09.2.14.2.14l26.16,17.53,13.98,8.65,11.73,6.59,10.37,5.19,9.47,4.13,8.57,3.18,8.12,2.48,7.67,1.85,6.77,1.22,6.32.78,5.86.4,5.41.1,5.41-.16,5.41-.42,5.86-.75,6.32-1.14,6.77-1.6,7.67-2.27,8.57-3.08,9.02-3.83,9.47-4.6,10.83-5.9,12.18-7.31,14.89-9.65s8.7-5.91,16.97-11.52" fill="none" stroke="#9b48cc" stroke-miterlimit="10" stroke-width="10.59"/>
    </g>
    <g>
      <path d="m649.2,147.6c.13-.09.2-.14.2-.14l26.16-17.53,13.98-8.65,11.73-6.59,10.37-5.19,9.47-4.13,8.57-3.18,8.12-2.48,7.67-1.85,6.77-1.22,6.32-.78,5.86-.4,5.41-.1,5.41.16,5.41.42,5.86.75,6.32,1.14,6.77,1.6,7.67,2.27,8.57,3.08,9.02,3.83,9.47,4.6,10.83,5.9,12.18,7.31,14.89,9.65s8.7,5.91,16.97,11.52" fill="none" stroke="#9b48cc" stroke-miterlimit="10" stroke-width="10.59"/>
      <path d="m889.2,147.6c.13.09.2.14.2.14l26.16,17.53,13.98,8.65,11.73,6.59,10.37,5.19,9.47,4.13,8.57,3.18,8.12,2.48,7.67,1.85,6.77,1.22,6.32.78,5.86.4,5.41.1,5.41-.16,5.41-.42,5.86-.75,6.32-1.14,6.77-1.6,7.67-2.27,8.57-3.08,9.02-3.83,9.47-4.6,10.83-5.9,12.18-7.31,14.89-9.65s8.7-5.91,16.97-11.52" fill="none" stroke="#9b48cc" stroke-miterlimit="10" stroke-width="10.59"/>
    </g>
    <g>
      <path d="m1129.2,147.6c.13-.09.2-.14.2-.14l26.16-17.53,13.98-8.65,11.73-6.59,10.37-5.19,9.47-4.13,8.57-3.18,8.12-2.48,7.67-1.85,6.77-1.22,6.32-.78,5.86-.4,5.41-.1,5.41.16,5.41.42,5.86.75,6.32,1.14,6.77,1.6,7.67,2.27,8.57,3.08,9.02,3.83,9.47,4.6,10.83,5.9,12.18,7.31,14.89,9.65s8.7,5.91,16.97,11.52" fill="none" stroke="#9b48cc" stroke-miterlimit="10" stroke-width="10.59"/>
      <path d="m1369.2,147.6c.13.09.2.14.2.14l26.16,17.53,13.98,8.65,11.73,6.59,10.37,5.19,9.47,4.13,8.57,3.18,8.12,2.48,7.67,1.85,6.77,1.22,6.32.78,5.86.4,5.41.1,5.41-.16,5.41-.42,5.86-.75,6.32-1.14,6.77-1.6,7.67-2.27,8.57-3.08,9.02-3.83,9.47-4.6,10.83-5.9,12.18-7.31,14.89-9.65s8.7-5.91,16.97-11.52" fill="none" stroke="#9b48cc" stroke-miterlimit="10" stroke-width="10.59"/>
    </g>
    <g>
      <path d="m231.2,435.6c.13-.12.2-.19.2-.19l26.16-24.17,13.98-11.93,11.73-9.08,10.37-7.15,9.47-5.69,8.57-4.38,8.12-3.42,7.67-2.55,6.77-1.68,6.32-1.07,5.86-.56,5.41-.14,5.41.22,5.41.58,5.86,1.03,6.32,1.58,6.77,2.21,7.67,3.13,8.57,4.25,9.02,5.27,9.47,6.34,10.83,8.13,12.18,10.08,14.89,13.3s8.7,8.14,16.97,15.88" fill="none" stroke="#307eef" stroke-miterlimit="10" stroke-width="10.59"/>
      <path d="m471.2,435.6c.13.12.2.19.2.19l26.16,24.17,13.98,11.93,11.73,9.08,10.37,7.15,9.47,5.69,8.57,4.38,8.12,3.42,7.67,2.55,6.77,1.68,6.32,1.07,5.86.56,5.41.14,5.41-.22,5.41-.58,5.86-1.03,6.32-1.58,6.77-2.21,7.67-3.13,8.57-4.25,9.02-5.27,9.47-6.34,10.83-8.13,12.18-10.08,14.89-13.3s8.7-8.14,16.97-15.88" fill="none" stroke="#307eef" stroke-miterlimit="10" stroke-width="10.59"/>
    </g>
    <g>
      <path d="m711.2,435.6c.13-.12.2-.19.2-.19l26.16-24.17,13.98-11.93,11.73-9.08,10.37-7.15,9.47-5.69,8.57-4.38,8.12-3.42,7.67-2.55,6.77-1.68,6.32-1.07,5.86-.56,5.41-.14,5.41.22,5.41.58,5.86,1.03,6.32,1.58,6.77,2.21,7.67,3.13,8.57,4.25,9.02,5.27,9.47,6.34,10.83,8.13,12.18,10.08,14.89,13.3s8.7,8.14,16.97,15.88" fill="none" stroke="#307eef" stroke-miterlimit="10" stroke-width="10.59"/>
      <path d="m951.2,435.6c.13.12.2.19.2.19l26.16,24.17,13.98,11.93,11.73,9.08,10.37,7.15,9.47,5.69,8.57,4.38,8.12,3.42,7.67,2.55,6.77,1.68,6.32,1.07,5.86.56,5.41.14,5.41-.22,5.41-.58,5.86-1.03,6.32-1.58,6.77-2.21,7.67-3.13,8.57-4.25,9.02-5.27,9.47-6.34,10.83-8.13,12.18-10.08,14.89-13.3s8.7-8.14,16.97-15.88" fill="none" stroke="#307eef" stroke-miterlimit="10" stroke-width="10.59"/>
    </g>
    <path d="m1191.2,435.6c.13-.12.2-.19.2-.19l26.16-24.17,13.98-11.93,11.73-9.08,10.37-7.15,9.47-5.69,8.57-4.38,8.12-3.42,7.67-2.55,6.77-1.68,6.32-1.07,5.86-.56,5.41-.14,5.41.22,5.41.58,5.86,1.03,6.32,1.58,6.77,2.21,7.67,3.13,8.57,4.25,9.02,5.27,9.47,6.34,10.83,8.13,12.18,10.08,14.89,13.3s8.7,8.14,16.97,15.88" fill="none" stroke="#307eef" stroke-miterlimit="10" stroke-width="10.59"/>
    <path d="m231.2,435.6c-8.27,7.74-16.97,15.88-16.97,15.88l-14.89,13.3-12.18,10.08-10.83,8.13-7.14,4.78" fill="none" stroke="#307eef" stroke-miterlimit="10" stroke-width="10.59"/>
    <g>
      <path d="m290.06,723.6c.13-.09.2-.13.2-.13l26.16-17.44,13.98-8.6,11.73-6.55,10.37-5.16,9.47-4.1,8.57-3.16,8.12-2.47,7.67-1.84,6.77-1.21,6.32-.77,5.86-.4,5.41-.1,5.41.16,5.41.42,5.86.75,6.32,1.14,6.77,1.59,7.67,2.26,8.57,3.07,9.02,3.8,9.47,4.57,10.83,5.87,12.18,7.27,14.89,9.59s8.7,5.87,16.97,11.46" fill="none" stroke="#1da37d" stroke-miterlimit="10" stroke-width="8"/>
      <path d="m530.06,723.6c.13.09.2.13.2.13l26.16,17.44,13.98,8.6,11.73,6.55,10.37,5.16,9.47,4.1,8.57,3.16,8.12,2.47,7.67,1.84,6.77,1.21,6.32.77,5.86.4,5.41.1,5.41-.16,5.41-.42,5.86-.75,6.32-1.14,6.77-1.59,7.67-2.26,8.57-3.07,9.02-3.8,9.47-4.57,10.83-5.87,12.18-7.27,14.89-9.59s8.7-5.87,16.97-11.46" fill="none" stroke="#1da37d" stroke-miterlimit="10" stroke-width="8"/>
    </g>
    <g>
      <path d="m770.06,723.6c.13-.09.2-.13.2-.13l26.16-17.44,13.98-8.6,11.73-6.55,10.37-5.16,9.47-4.1,8.57-3.16,8.12-2.47,7.67-1.84,6.77-1.21,6.32-.77,5.86-.4,5.41-.1,5.41.16,5.41.42,5.86.75,6.32,1.14,6.77,1.59,7.67,2.26,8.57,3.07,9.02,3.8,9.47,4.57,10.83,5.87,12.18,7.27,14.89,9.59s8.7,5.87,16.97,11.46" fill="none" stroke="#1da37d" stroke-miterlimit="10" stroke-width="10.59"/>
      <path d="m1010.06,723.6c.13.09.2.13.2.13l26.16,17.44,13.98,8.6,11.73,6.55,10.37,5.16,9.47,4.1,8.57,3.16,8.12,2.47,7.67,1.84,6.77,1.21,6.32.77,5.86.4,5.41.1,5.41-.16,5.41-.42,5.86-.75,6.32-1.14,6.77-1.59,7.67-2.26,8.57-3.07,9.02-3.8,9.47-4.57,10.83-5.87,12.18-7.27,14.89-9.59s8.7-5.87,16.97-11.46" fill="none" stroke="#1da37d" stroke-miterlimit="10" stroke-width="10.59"/>
    </g>
    <g>
      <path d="m1250.06,723.6c.13-.09.2-.13.2-.13l26.16-17.44,13.98-8.6,11.73-6.55,10.37-5.16,9.47-4.1,8.57-3.16,8.12-2.47,7.67-1.84,6.77-1.21,6.32-.77,5.86-.4,5.41-.1,5.41.16,5.41.42,5.86.75,6.32,1.14,6.77,1.59,7.67,2.26,8.57,3.07,9.02,3.8,9.47,4.57,10.83,5.87,12.18,7.27,14.89,9.59s8.7,5.87,16.97,11.46" fill="none" stroke="#1da37d" stroke-miterlimit="10" stroke-width="10.59"/>
      <path d="m1490.06,723.6c.13.09.2.13.2.13l26.16,17.44,13.98,8.6,11.73,6.55,10.37,5.16,9.47,4.1,8.57,3.16,8.12,2.47,7.67,1.84,6.77,1.21,6.32.77,5.86.4,3.92.07" fill="none" stroke="#1da37d" stroke-miterlimit="10" stroke-width="10.59"/>
    </g>
    <path d="m1609.2,487.76c-1.34.9-2.33,1.56-2.33,1.56l-9.02,5.27-8.57,4.25-7.67,3.13-6.77,2.21-6.32,1.58-5.86,1.03-5.41.58-5.41.22-5.41-.14-5.86-.56-6.32-1.07-6.77-1.68-7.67-2.55-8.12-3.42-8.57-4.38-9.47-5.69-10.37-7.15-11.73-9.08-13.98-11.93-26.16-24.17s-.07-.06-.2-.19" fill="none" stroke="#307eef" stroke-miterlimit="10" stroke-width="10.59"/>
    <path d="m169.2,775.52c.85.02,1.5.03,1.5.03l5.41-.16,5.41-.42,5.86-.75,6.32-1.14,6.77-1.59,7.67-2.26,8.57-3.07,9.02-3.8,9.47-4.57,10.83-5.87,12.18-7.27,14.89-9.59s8.7-5.87,16.97-11.46" fill="none" stroke="#1da37d" stroke-miterlimit="10" stroke-width="8"/>
  </g>
  <g id="Ebene_6" data-name="Ebene 6">
    <g isolation="isolate">
      <g isolation="isolate">
        <path d="m87.336,89.63h-4.359v-28.898l-8.742,3.211v-3.938l12.422-4.664h.68v34.289Z" fill="#c9d1d9"/>
      </g>
    </g>
    <g isolation="isolate">
      <g isolation="isolate">
        <path d="m94.484,147.075c0,5.078-.867,8.852-2.602,11.32s-4.445,3.703-8.133,3.703c-3.641,0-6.336-1.207-8.086-3.621s-2.656-6.02-2.719-10.816v-5.789c0-5.016.867-8.742,2.602-11.18s4.453-3.656,8.156-3.656c3.672,0,6.375,1.176,8.109,3.527s2.625,5.98,2.672,10.887v5.625Zm-4.336-5.93c0-3.672-.516-6.348-1.547-8.027s-2.664-2.52-4.898-2.52c-2.219,0-3.836.836-4.852,2.508s-1.539,4.242-1.57,7.711v6.938c0,3.688.535,6.41,1.605,8.168s2.691,2.637,4.863,2.637c2.141,0,3.73-.828,4.77-2.484s1.582-4.266,1.629-7.828v-7.102Z" fill="#c9d1d9"/>
      </g>
    </g>
    <g isolation="isolate">
      <g isolation="isolate">
        <path d="m69.305,220.903h-11.438v-3.539h11.438v3.539Z" fill="#c9d1d9"/>
        <path d="m87.328,233.63h-4.359v-28.898l-8.742,3.211v-3.938l12.422-4.664h.68v34.289Z" fill="#c9d1d9"/>
      </g>
    </g>
    <g isolation="isolate">
      <g isolation="isolate">
        <path d="m30.3,521.915v14.297l8.93,3.211v4.641l-34.125-13.031v-3.938l34.125-13.055v4.617l-8.93,3.258Zm-3.68,12.938v-11.602l-15.961,5.812,15.961,5.789Z" fill="#c9d1d9"/>
        <path d="m13.871,506.048l2.812-.117c-2.188-1.859-3.281-4.367-3.281-7.523,0-3.547,1.359-5.961,4.078-7.242-1.219-.844-2.203-1.941-2.953-3.293s-1.125-2.949-1.125-4.793c0-5.562,2.945-8.391,8.836-8.484h16.992v4.336h-16.734c-1.812,0-3.168.414-4.066,1.242s-1.348,2.219-1.348,4.172c0,1.609.48,2.945,1.441,4.008s2.254,1.68,3.879,1.852h16.828v4.359h-16.617c-3.688,0-5.531,1.805-5.531,5.414,0,2.844,1.211,4.789,3.633,5.836h18.516v4.336H13.871v-4.102Z" fill="#c9d1d9"/>
        <path d="m26.832,446.634c3.859,0,6.969.883,9.328,2.648s3.539,4.156,3.539,7.172c0,3.078-.977,5.5-2.93,7.266h12.211v4.336H13.871v-3.961l2.812-.211c-2.188-1.766-3.281-4.219-3.281-7.359,0-3.047,1.148-5.457,3.445-7.23s5.492-2.66,9.586-2.66h.398Zm-.492,4.336c-2.859,0-5.117.609-6.773,1.828s-2.484,2.891-2.484,5.016c0,2.625,1.164,4.594,3.492,5.906h12.117c2.312-1.297,3.469-3.281,3.469-5.953,0-2.078-.824-3.73-2.473-4.957s-4.098-1.84-7.348-1.84Z" fill="#c9d1d9"/>
        <path d="m39.23,436.415v4.336H3.23v-4.336h36Z" fill="#c9d1d9"/>
        <path d="m7.144,429.454c-.703,0-1.297-.215-1.781-.645s-.727-1.066-.727-1.91.242-1.484.727-1.922,1.078-.656,1.781-.656,1.289.219,1.758.656.703,1.078.703,1.922-.234,1.48-.703,1.91-1.055.645-1.758.645Zm32.086-4.688v4.336H13.871v-4.336h25.359Z" fill="#c9d1d9"/>
        <path d="m7.73,411.946h6.141v-4.734h3.352v4.734h15.746c1.018,0,1.78-.211,2.288-.633.509-.422.763-1.141.763-2.156,0-.5-.094-1.188-.281-2.062h3.495c.311,1.141.466,2.25.466,3.328,0,1.938-.586,3.398-1.758,4.383s-2.836,1.477-4.992,1.477h-15.727v4.617h-3.352v-4.617h-6.141v-4.336Z" fill="#c9d1d9"/>
        <path d="m36.722,386.493c1.984,1.688,2.977,4.164,2.977,7.43,0,2.703-.785,4.762-2.355,6.176s-3.895,2.129-6.973,2.145H13.871v-4.336h16.383c3.844,0,5.766-1.562,5.766-4.688,0-3.312-1.234-5.516-3.703-6.609H13.871v-4.336h25.359v4.125l-2.508.094Z" fill="#c9d1d9"/>
        <path d="m26.339,376.743c-3.891,0-7.02-.922-9.387-2.766s-3.551-4.258-3.551-7.242c0-2.969,1.016-5.32,3.047-7.055H3.23v-4.336h36v3.984l-2.719.211c2.125,1.734,3.188,4.148,3.188,7.242,0,2.938-1.203,5.332-3.609,7.184s-5.547,2.777-9.422,2.777h-.328Zm.492-4.336c2.875,0,5.125-.594,6.75-1.781s2.438-2.828,2.438-4.922c0-2.75-1.234-4.758-3.703-6.023h-11.648c-2.391,1.297-3.586,3.289-3.586,5.977,0,2.125.82,3.781,2.461,4.969s4.07,1.781,7.289,1.781Z" fill="#c9d1d9"/>
        <path d="m39.699,338.095c0,3.438-1.129,6.234-3.387,8.391s-5.277,3.234-9.059,3.234h-.797c-2.516,0-4.762-.48-6.738-1.441s-3.523-2.305-4.641-4.031-1.676-3.598-1.676-5.613c0-3.297,1.086-5.859,3.258-7.688s5.281-2.742,9.328-2.742h1.805v17.18c2.5-.062,4.52-.793,6.059-2.191s2.309-3.176,2.309-5.332c0-1.531-.312-2.828-.938-3.891s-1.453-1.992-2.484-2.789l2.062-2.648c3.266,2.125,4.898,5.312,4.898,9.562Zm-22.734.539c0,1.75.637,3.219,1.91,4.406s3.059,1.922,5.355,2.203v-12.703h-.328c-2.203.125-3.91.719-5.121,1.781s-1.816,2.5-1.816,4.312Z" fill="#c9d1d9"/>
      </g>
    </g>
    <g isolation="isolate">
      <g isolation="isolate">
        <path d="m87.336,377.63h-4.359v-28.898l-8.742,3.211v-3.938l12.422-4.664h.68v34.289Z" fill="#c9d1d9"/>
      </g>
    </g>
    <g isolation="isolate">
      <g isolation="isolate">
        <path d="m94.484,435.075c0,5.078-.867,8.852-2.602,11.32s-4.445,3.703-8.133,3.703c-3.641,0-6.336-1.207-8.086-3.621s-2.656-6.02-2.719-10.816v-5.789c0-5.016.867-8.742,2.602-11.18s4.453-3.656,8.156-3.656c3.672,0,6.375,1.176,8.109,3.527s2.625,5.98,2.672,10.887v5.625Zm-4.336-5.93c0-3.672-.516-6.348-1.547-8.027s-2.664-2.52-4.898-2.52c-2.219,0-3.836.836-4.852,2.508s-1.539,4.242-1.57,7.711v6.938c0,3.688.535,6.41,1.605,8.168s2.691,2.637,4.863,2.637c2.141,0,3.73-.828,4.77-2.484s1.582-4.266,1.629-7.828v-7.102Z" fill="#c9d1d9"/>
      </g>
    </g>
    <g isolation="isolate">
      <g isolation="isolate">
        <path d="m69.305,508.903h-11.438v-3.539h11.438v3.539Z" fill="#c9d1d9"/>
        <path d="m87.328,521.63h-4.359v-28.898l-8.742,3.211v-3.938l12.422-4.664h.68v34.289Z" fill="#c9d1d9"/>
      </g>
    </g>
    <g isolation="isolate">
      <g isolation="isolate">
        <path d="m87.336,665.63h-4.359v-28.898l-8.742,3.211v-3.938l12.422-4.664h.68v34.289Z" fill="#c9d1d9"/>
      </g>
    </g>
    <g isolation="isolate">
      <g isolation="isolate">
        <path d="m94.484,723.075c0,5.078-.867,8.852-2.602,11.32s-4.445,3.703-8.133,3.703c-3.641,0-6.336-1.207-8.086-3.621s-2.656-6.02-2.719-10.816v-5.789c0-5.016.867-8.742,2.602-11.18s4.453-3.656,8.156-3.656c3.672,0,6.375,1.176,8.109,3.527s2.625,5.98,2.672,10.887v5.625Zm-4.336-5.93c0-3.672-.516-6.348-1.547-8.027s-2.664-2.52-4.898-2.52c-2.219,0-3.836.836-4.852,2.508s-1.539,4.242-1.57,7.711v6.938c0,3.688.535,6.41,1.605,8.168s2.691,2.637,4.863,2.637c2.141,0,3.73-.828,4.77-2.484s1.582-4.266,1.629-7.828v-7.102Z" fill="#c9d1d9"/>
      </g>
    </g>
    <g isolation="isolate">
      <g isolation="isolate">
        <path d="m69.305,796.903h-11.438v-3.539h11.438v3.539Z" fill="#c9d1d9"/>
        <path d="m87.328,809.63h-4.359v-28.898l-8.742,3.211v-3.938l12.422-4.664h.68v34.289Z" fill="#c9d1d9"/>
      </g>
    </g>
    <g isolation="isolate">
      <g isolation="isolate">
        <path d="m838.904,318.504c0-.703.215-1.297.645-1.781s1.066-.727,1.91-.727,1.484.242,1.922.727.656,1.078.656,1.781-.219,1.289-.656,1.758-1.078.703-1.922.703-1.48-.234-1.91-.703-.645-1.055-.645-1.758Zm4.688,32.086h-4.336v-25.359h4.336v25.359Z" fill="#c9d1d9"/>
        <path d="m854.631,325.23l.141,3.188c1.938-2.438,4.469-3.656,7.594-3.656,5.359,0,8.062,3.023,8.109,9.07v16.758h-4.336v-16.781c-.016-1.828-.434-3.18-1.254-4.055s-2.098-1.312-3.832-1.312c-1.406,0-2.641.375-3.703,1.125s-1.891,1.734-2.484,2.953v18.07h-4.336v-25.359h4.102Z" fill="#c9d1d9"/>
        <path d="m898.436,338.191c0,3.859-.883,6.969-2.648,9.328s-4.156,3.539-7.172,3.539c-3.078,0-5.5-.977-7.266-2.93v12.211h-4.336v-35.109h3.961l.211,2.812c1.766-2.188,4.219-3.281,7.359-3.281,3.047,0,5.457,1.148,7.23,3.445s2.66,5.492,2.66,9.586v.398Zm-4.336-.492c0-2.859-.609-5.117-1.828-6.773s-2.891-2.484-5.016-2.484c-2.625,0-4.594,1.164-5.906,3.492v12.117c1.297,2.312,3.281,3.469,5.953,3.469,2.078,0,3.73-.824,4.957-2.473s1.84-4.098,1.84-7.348Z" fill="#c9d1d9"/>
        <path d="m919.6,348.082c-1.688,1.984-4.164,2.977-7.43,2.977-2.703,0-4.762-.785-6.176-2.355s-2.129-3.895-2.145-6.973v-16.5h4.336v16.383c0,3.844,1.562,5.766,4.688,5.766,3.312,0,5.516-1.234,6.609-3.703v-18.445h4.336v25.359h-4.125l-.094-2.508Z" fill="#c9d1d9"/>
        <path d="m936.287,319.09v6.141h4.734v3.352h-4.734v15.746c0,1.018.211,1.78.633,2.288.422.509,1.141.763,2.156.763.5,0,1.188-.094,2.062-.281v3.495c-1.141.311-2.25.466-3.328.466-1.938,0-3.398-.586-4.383-1.758s-1.477-2.836-1.477-4.992v-15.727h-4.617v-3.352h4.617v-6.141h4.336Z" fill="#c9d1d9"/>
      </g>
    </g>
    <g isolation="isolate">
      <g isolation="isolate">
        <path d="m801.752,638.59h-4.336v-36h4.336v36Z" fill="#c9d1d9"/>
        <path d="m807.541,625.676c0-2.484.488-4.719,1.465-6.703s2.336-3.516,4.078-4.594,3.73-1.617,5.965-1.617c3.453,0,6.246,1.195,8.379,3.586s3.199,5.57,3.199,9.539v.305c0,2.469-.473,4.684-1.418,6.645s-2.297,3.488-4.055,4.582-3.777,1.641-6.059,1.641c-3.438,0-6.223-1.195-8.355-3.586s-3.199-5.555-3.199-9.492v-.305Zm4.359.516c0,2.812.652,5.07,1.957,6.773s3.051,2.555,5.238,2.555c2.203,0,3.953-.863,5.25-2.59s1.945-4.145,1.945-7.254c0-2.781-.66-5.035-1.98-6.762s-3.074-2.59-5.262-2.59c-2.141,0-3.867.852-5.18,2.555s-1.969,4.141-1.969,7.312Z" fill="#c9d1d9"/>
        <path d="m858.518,632.613l4.875-19.383h4.336l-7.383,25.359h-3.516l-6.164-19.219-6,19.219h-3.516l-7.359-25.359h4.312l4.992,18.984,5.906-18.984h3.492l6.023,19.383Z" fill="#c9d1d9"/>
        <path d="m881.158,625.863h-11.438v-3.539h11.438v3.539Z" fill="#c9d1d9"/>
        <path d="m906.799,626.191c0,3.859-.883,6.969-2.648,9.328s-4.156,3.539-7.172,3.539c-3.078,0-5.5-.977-7.266-2.93v12.211h-4.336v-35.109h3.961l.211,2.812c1.766-2.188,4.219-3.281,7.359-3.281,3.047,0,5.457,1.148,7.23,3.445s2.66,5.492,2.66,9.586v.398Zm-4.336-.492c0-2.859-.609-5.117-1.828-6.773s-2.891-2.484-5.016-2.484c-2.625,0-4.594,1.164-5.906,3.492v12.117c1.297,2.312,3.281,3.469,5.953,3.469,2.078,0,3.73-.824,4.957-2.473s1.84-4.098,1.84-7.348Z" fill="#c9d1d9"/>
        <path d="m927.963,638.59c-.25-.5-.453-1.391-.609-2.672-2.016,2.094-4.422,3.141-7.219,3.141-2.5,0-4.551-.707-6.152-2.121s-2.402-3.207-2.402-5.379c0-2.641,1.004-4.691,3.012-6.152s4.832-2.191,8.473-2.191h4.219v-1.992c0-1.516-.453-2.723-1.359-3.621s-2.242-1.348-4.008-1.348c-1.547,0-2.844.391-3.891,1.172s-1.57,1.727-1.57,2.836h-4.359c0-1.266.449-2.488,1.348-3.668s2.117-2.113,3.656-2.801,3.23-1.031,5.074-1.031c2.922,0,5.211.73,6.867,2.191s2.516,3.473,2.578,6.035v11.672c0,2.328.297,4.18.891,5.555v.375h-4.547Zm-7.195-3.305c1.359,0,2.648-.352,3.867-1.055s2.102-1.617,2.648-2.742v-5.203h-3.398c-5.312,0-7.969,1.555-7.969,4.664,0,1.359.453,2.422,1.359,3.188s2.07,1.148,3.492,1.148Z" fill="#c9d1d9"/>
        <path d="m953.182,631.863c0-1.172-.441-2.082-1.324-2.73s-2.422-1.207-4.617-1.676-3.938-1.031-5.227-1.688-2.242-1.438-2.859-2.344-.926-1.984-.926-3.234c0-2.078.879-3.836,2.637-5.273s4.004-2.156,6.738-2.156c2.875,0,5.207.742,6.996,2.227s2.684,3.383,2.684,5.695h-4.359c0-1.188-.504-2.211-1.512-3.07s-2.277-1.289-3.809-1.289c-1.578,0-2.812.344-3.703,1.031s-1.336,1.586-1.336,2.695c0,1.047.414,1.836,1.242,2.367s2.324,1.039,4.488,1.523,3.918,1.062,5.262,1.734,2.34,1.48,2.988,2.426.973,2.098.973,3.457c0,2.266-.906,4.082-2.719,5.449s-4.164,2.051-7.055,2.051c-2.031,0-3.828-.359-5.391-1.078s-2.785-1.723-3.668-3.012-1.324-2.684-1.324-4.184h4.336c.078,1.453.66,2.605,1.746,3.457s2.52,1.277,4.301,1.277c1.641,0,2.957-.332,3.949-.996s1.488-1.551,1.488-2.66Z" fill="#c9d1d9"/>
        <path d="m977.932,631.863c0-1.172-.441-2.082-1.324-2.73s-2.422-1.207-4.617-1.676-3.938-1.031-5.227-1.688-2.242-1.438-2.859-2.344-.926-1.984-.926-3.234c0-2.078.879-3.836,2.637-5.273s4.004-2.156,6.738-2.156c2.875,0,5.207.742,6.996,2.227s2.684,3.383,2.684,5.695h-4.359c0-1.188-.504-2.211-1.512-3.07s-2.277-1.289-3.809-1.289c-1.578,0-2.812.344-3.703,1.031s-1.336,1.586-1.336,2.695c0,1.047.414,1.836,1.242,2.367s2.324,1.039,4.488,1.523,3.918,1.062,5.262,1.734,2.34,1.48,2.988,2.426.973,2.098.973,3.457c0,2.266-.906,4.082-2.719,5.449s-4.164,2.051-7.055,2.051c-2.031,0-3.828-.359-5.391-1.078s-2.785-1.723-3.668-3.012-1.324-2.684-1.324-4.184h4.336c.078,1.453.66,2.605,1.746,3.457s2.52,1.277,4.301,1.277c1.641,0,2.957-.332,3.949-.996s1.488-1.551,1.488-2.66Z" fill="#c9d1d9"/>
      </g>
    </g>
    <g isolation="isolate">
      <g isolation="isolate">
        <path d="m793.197,40.301c1.922-2.359,4.422-3.539,7.5-3.539,5.359,0,8.062,3.023,8.109,9.07v16.758h-4.336v-16.781c-.016-1.828-.434-3.18-1.254-4.055s-2.098-1.312-3.832-1.312c-1.406,0-2.641.375-3.703,1.125s-1.891,1.734-2.484,2.953v18.07h-4.336V26.59h4.336v13.711Z" fill="#c9d1d9"/>
        <path d="m815.322,30.504c0-.703.215-1.297.645-1.781s1.066-.727,1.91-.727,1.484.242,1.922.727.656,1.078.656,1.781-.219,1.289-.656,1.758-1.078.703-1.922.703-1.48-.234-1.91-.703-.645-1.055-.645-1.758Zm4.688,32.086h-4.336v-25.359h4.336v25.359Z" fill="#c9d1d9"/>
        <path d="m825.916,49.699c0-3.953.914-7.098,2.742-9.434s4.25-3.504,7.266-3.504c3.094,0,5.508,1.094,7.242,3.281l.211-2.812h3.961v24.75c0,3.281-.973,5.867-2.918,7.758s-4.559,2.836-7.84,2.836c-1.828,0-3.617-.391-5.367-1.172s-3.086-1.852-4.008-3.211l2.25-2.602c1.859,2.297,4.133,3.445,6.82,3.445,2.109,0,3.754-.594,4.934-1.781s1.77-2.859,1.77-5.016v-2.18c-1.734,2-4.102,3-7.102,3-2.969,0-5.371-1.195-7.207-3.586s-2.754-5.648-2.754-9.773Zm4.359.492c0,2.859.586,5.105,1.758,6.738s2.812,2.449,4.922,2.449c2.734,0,4.742-1.242,6.023-3.727v-11.578c-1.328-2.422-3.32-3.633-5.977-3.633-2.109,0-3.758.82-4.945,2.461s-1.781,4.07-1.781,7.289Z" fill="#c9d1d9"/>
        <path d="m858.213,40.301c1.922-2.359,4.422-3.539,7.5-3.539,5.359,0,8.062,3.023,8.109,9.07v16.758h-4.336v-16.781c-.016-1.828-.434-3.18-1.254-4.055s-2.098-1.312-3.832-1.312c-1.406,0-2.641.375-3.703,1.125s-1.891,1.734-2.484,2.953v18.07h-4.336V26.59h4.336v13.711Z" fill="#c9d1d9"/>
        <path d="m889.338,49.863h-11.438v-3.539h11.438v3.539Z" fill="#c9d1d9"/>
        <path d="m914.979,50.191c0,3.859-.883,6.969-2.648,9.328s-4.156,3.539-7.172,3.539c-3.078,0-5.5-.977-7.266-2.93v12.211h-4.336v-35.109h3.961l.211,2.812c1.766-2.188,4.219-3.281,7.359-3.281,3.047,0,5.457,1.148,7.23,3.445s2.66,5.492,2.66,9.586v.398Zm-4.336-.492c0-2.859-.609-5.117-1.828-6.773s-2.891-2.484-5.016-2.484c-2.625,0-4.594,1.164-5.906,3.492v12.117c1.297,2.312,3.281,3.469,5.953,3.469,2.078,0,3.73-.824,4.957-2.473s1.84-4.098,1.84-7.348Z" fill="#c9d1d9"/>
        <path d="m936.143,62.59c-.25-.5-.453-1.391-.609-2.672-2.016,2.094-4.422,3.141-7.219,3.141-2.5,0-4.551-.707-6.152-2.121s-2.402-3.207-2.402-5.379c0-2.641,1.004-4.691,3.012-6.152s4.832-2.191,8.473-2.191h4.219v-1.992c0-1.516-.453-2.723-1.359-3.621s-2.242-1.348-4.008-1.348c-1.547,0-2.844.391-3.891,1.172s-1.57,1.727-1.57,2.836h-4.359c0-1.266.449-2.488,1.348-3.668s2.117-2.113,3.656-2.801,3.23-1.031,5.074-1.031c2.922,0,5.211.73,6.867,2.191s2.516,3.473,2.578,6.035v11.672c0,2.328.297,4.18.891,5.555v.375h-4.547Zm-7.195-3.305c1.359,0,2.648-.352,3.867-1.055s2.102-1.617,2.648-2.742v-5.203h-3.398c-5.312,0-7.969,1.555-7.969,4.664,0,1.359.453,2.422,1.359,3.188s2.07,1.148,3.492,1.148Z" fill="#c9d1d9"/>
        <path d="m961.361,55.863c0-1.172-.441-2.082-1.324-2.73s-2.422-1.207-4.617-1.676-3.938-1.031-5.227-1.688-2.242-1.438-2.859-2.344-.926-1.984-.926-3.234c0-2.078.879-3.836,2.637-5.273s4.004-2.156,6.738-2.156c2.875,0,5.207.742,6.996,2.227s2.684,3.383,2.684,5.695h-4.359c0-1.188-.504-2.211-1.512-3.07s-2.277-1.289-3.809-1.289c-1.578,0-2.812.344-3.703,1.031s-1.336,1.586-1.336,2.695c0,1.047.414,1.836,1.242,2.367s2.324,1.039,4.488,1.523,3.918,1.062,5.262,1.734,2.34,1.48,2.988,2.426.973,2.098.973,3.457c0,2.266-.906,4.082-2.719,5.449s-4.164,2.051-7.055,2.051c-2.031,0-3.828-.359-5.391-1.078s-2.785-1.723-3.668-3.012-1.324-2.684-1.324-4.184h4.336c.078,1.453.66,2.605,1.746,3.457s2.52,1.277,4.301,1.277c1.641,0,2.957-.332,3.949-.996s1.488-1.551,1.488-2.66Z" fill="#c9d1d9"/>
        <path d="m986.111,55.863c0-1.172-.441-2.082-1.324-2.73s-2.422-1.207-4.617-1.676-3.938-1.031-5.227-1.688-2.242-1.438-2.859-2.344-.926-1.984-.926-3.234c0-2.078.879-3.836,2.637-5.273s4.004-2.156,6.738-2.156c2.875,0,5.207.742,6.996,2.227s2.684,3.383,2.684,5.695h-4.359c0-1.188-.504-2.211-1.512-3.07s-2.277-1.289-3.809-1.289c-1.578,0-2.812.344-3.703,1.031s-1.336,1.586-1.336,2.695c0,1.047.414,1.836,1.242,2.367s2.324,1.039,4.488,1.523,3.918,1.062,5.262,1.734,2.34,1.48,2.988,2.426.973,2.098.973,3.457c0,2.266-.906,4.082-2.719,5.449s-4.164,2.051-7.055,2.051c-2.031,0-3.828-.359-5.391-1.078s-2.785-1.723-3.668-3.012-1.324-2.684-1.324-4.184h4.336c.078,1.453.66,2.605,1.746,3.457s2.52,1.277,4.301,1.277c1.641,0,2.957-.332,3.949-.996s1.488-1.551,1.488-2.66Z" fill="#c9d1d9"/>
      </g>
    </g>
    <g isolation="isolate">
      <g isolation="isolate">
        <path d="m862.849,963.154h-10.969v30.445h-4.477v-30.445h-10.945v-3.68h26.391v3.68Z" fill="#c9d1d9"/>
        <path d="m867.255,961.514c0-.703.215-1.297.645-1.781s1.066-.727,1.91-.727,1.484.242,1.922.727.656,1.078.656,1.781-.219,1.289-.656,1.758-1.078.703-1.922.703-1.48-.234-1.91-.703-.645-1.055-.645-1.758Zm4.688,32.086h-4.336v-25.359h4.336v25.359Z" fill="#c9d1d9"/>
        <path d="m882.958,968.24l.117,2.812c1.859-2.188,4.367-3.281,7.523-3.281,3.547,0,5.961,1.359,7.242,4.078.844-1.219,1.941-2.203,3.293-2.953s2.949-1.125,4.793-1.125c5.562,0,8.391,2.945,8.484,8.836v16.992h-4.336v-16.734c0-1.812-.414-3.168-1.242-4.066s-2.219-1.348-4.172-1.348c-1.609,0-2.945.48-4.008,1.441s-1.68,2.254-1.852,3.879v16.828h-4.359v-16.617c0-3.688-1.805-5.531-5.414-5.531-2.844,0-4.789,1.211-5.836,3.633v18.516h-4.336v-25.359h4.102Z" fill="#c9d1d9"/>
        <path d="m931.474,994.068c-3.438,0-6.234-1.129-8.391-3.387s-3.234-5.277-3.234-9.059v-.797c0-2.516.48-4.762,1.441-6.738s2.305-3.523,4.031-4.641,3.598-1.676,5.613-1.676c3.297,0,5.859,1.086,7.688,3.258s2.742,5.281,2.742,9.328v1.805h-17.18c.062,2.5.793,4.52,2.191,6.059s3.176,2.309,5.332,2.309c1.531,0,2.828-.312,3.891-.938s1.992-1.453,2.789-2.484l2.648,2.062c-2.125,3.266-5.312,4.898-9.562,4.898Zm-.539-22.734c-1.75,0-3.219.637-4.406,1.91s-1.922,3.059-2.203,5.355h12.703v-.328c-.125-2.203-.719-3.91-1.781-5.121s-2.5-1.816-4.312-1.816Z" fill="#c9d1d9"/>
      </g>
    </g>
    <g isolation="isolate">
      <g isolation="isolate">
        <path d="m304.165,925.045c0,5.078-.867,8.852-2.602,11.32s-4.445,3.703-8.133,3.703c-3.641,0-6.336-1.207-8.086-3.621s-2.656-6.02-2.719-10.816v-5.789c0-5.016.867-8.742,2.602-11.18s4.453-3.656,8.156-3.656c3.672,0,6.375,1.176,8.109,3.527s2.625,5.98,2.672,10.887v5.625Zm-4.336-5.93c0-3.672-.516-6.348-1.547-8.027s-2.664-2.52-4.898-2.52c-2.219,0-3.836.836-4.852,2.508s-1.539,4.242-1.57,7.711v6.938c0,3.688.535,6.41,1.605,8.168s2.691,2.637,4.863,2.637c2.141,0,3.73-.828,4.77-2.484s1.582-4.266,1.629-7.828v-7.102Z" fill="#c9d1d9"/>
        <path d="m310.258,937.326c0-.75.223-1.375.668-1.875s1.113-.75,2.004-.75,1.566.25,2.027.75.691,1.125.691,1.875c0,.719-.23,1.32-.691,1.805s-1.137.727-2.027.727-1.559-.242-2.004-.727-.668-1.086-.668-1.805Z" fill="#c9d1d9"/>
        <path d="m328.657,920.428h3.258c2.047-.031,3.656-.57,4.828-1.617s1.758-2.461,1.758-4.242c0-4-1.992-6-5.977-6-1.875,0-3.371.535-4.488,1.605s-1.676,2.488-1.676,4.254h-4.336c0-2.703.988-4.949,2.965-6.738s4.488-2.684,7.535-2.684c3.219,0,5.742.852,7.57,2.555s2.742,4.07,2.742,7.102c0,1.484-.48,2.922-1.441,4.312s-2.27,2.43-3.926,3.117c1.875.594,3.324,1.578,4.348,2.953s1.535,3.055,1.535,5.039c0,3.062-1,5.492-3,7.289s-4.602,2.695-7.805,2.695-5.809-.867-7.816-2.602-3.012-4.023-3.012-6.867h4.359c0,1.797.586,3.234,1.758,4.312s2.742,1.617,4.711,1.617c2.094,0,3.695-.547,4.805-1.641s1.664-2.664,1.664-4.711c0-1.984-.609-3.508-1.828-4.57s-2.977-1.609-5.273-1.641h-3.258v-3.539Z" fill="#c9d1d9"/>
      </g>
    </g>
    <g isolation="isolate">
      <g isolation="isolate">
        <path d="m448.165,925.045c0,5.078-.867,8.852-2.602,11.32s-4.445,3.703-8.133,3.703c-3.641,0-6.336-1.207-8.086-3.621s-2.656-6.02-2.719-10.816v-5.789c0-5.016.867-8.742,2.602-11.18s4.453-3.656,8.156-3.656c3.672,0,6.375,1.176,8.109,3.527s2.625,5.98,2.672,10.887v5.625Zm-4.336-5.93c0-3.672-.516-6.348-1.547-8.027s-2.664-2.52-4.898-2.52c-2.219,0-3.836.836-4.852,2.508s-1.539,4.242-1.57,7.711v6.938c0,3.688.535,6.41,1.605,8.168s2.691,2.637,4.863,2.637c2.141,0,3.73-.828,4.77-2.484s1.582-4.266,1.629-7.828v-7.102Z" fill="#c9d1d9"/>
        <path d="m454.258,937.326c0-.75.223-1.375.668-1.875s1.113-.75,2.004-.75,1.566.25,2.027.75.691,1.125.691,1.875c0,.719-.23,1.32-.691,1.805s-1.137.727-2.027.727-1.559-.242-2.004-.727-.668-1.086-.668-1.805Z" fill="#c9d1d9"/>
        <path d="m483.368,905.451v3.68h-.797c-3.375.062-6.062,1.062-8.062,3s-3.156,4.664-3.469,8.18c1.797-2.062,4.25-3.094,7.359-3.094,2.969,0,5.34,1.047,7.113,3.141s2.66,4.797,2.66,8.109c0,3.516-.957,6.328-2.871,8.438s-4.48,3.164-7.699,3.164c-3.266,0-5.914-1.254-7.945-3.762s-3.047-5.738-3.047-9.691v-1.664c0-6.281,1.34-11.082,4.02-14.402s6.668-5.02,11.965-5.098h.773Zm-5.695,15.375c-1.484,0-2.852.445-4.102,1.336s-2.117,2.008-2.602,3.352v1.594c0,2.812.633,5.078,1.898,6.797s2.844,2.578,4.734,2.578c1.953,0,3.488-.719,4.605-2.156s1.676-3.32,1.676-5.648c0-2.344-.566-4.238-1.699-5.684s-2.637-2.168-4.512-2.168Z" fill="#c9d1d9"/>
      </g>
    </g>
    <g isolation="isolate">
      <g isolation="isolate">
        <path d="m592.165,925.045c0,5.078-.867,8.852-2.602,11.32s-4.445,3.703-8.133,3.703c-3.641,0-6.336-1.207-8.086-3.621s-2.656-6.02-2.719-10.816v-5.789c0-5.016.867-8.742,2.602-11.18s4.453-3.656,8.156-3.656c3.672,0,6.375,1.176,8.109,3.527s2.625,5.98,2.672,10.887v5.625Zm-4.336-5.93c0-3.672-.516-6.348-1.547-8.027s-2.664-2.52-4.898-2.52c-2.219,0-3.836.836-4.852,2.508s-1.539,4.242-1.57,7.711v6.938c0,3.688.535,6.41,1.605,8.168s2.691,2.637,4.863,2.637c2.141,0,3.73-.828,4.77-2.484s1.582-4.266,1.629-7.828v-7.102Z" fill="#c9d1d9"/>
        <path d="m598.258,937.326c0-.75.223-1.375.668-1.875s1.113-.75,2.004-.75,1.566.25,2.027.75.691,1.125.691,1.875c0,.719-.23,1.32-.691,1.805s-1.137.727-2.027.727-1.559-.242-2.004-.727-.668-1.086-.668-1.805Z" fill="#c9d1d9"/>
        <path d="m626.969,924.6c-.906,1.078-1.988,1.945-3.246,2.602s-2.637.984-4.137.984c-1.969,0-3.684-.484-5.145-1.453s-2.59-2.332-3.387-4.09-1.195-3.699-1.195-5.824c0-2.281.434-4.336,1.301-6.164s2.098-3.227,3.691-4.195,3.453-1.453,5.578-1.453c3.375,0,6.035,1.262,7.98,3.785s2.918,5.965,2.918,10.324v1.266c0,6.641-1.312,11.488-3.938,14.543s-6.586,4.621-11.883,4.699h-.844v-3.68h.914c3.578-.062,6.328-.994,8.25-2.795s2.969-4.65,3.141-8.549Zm-6.68,0c1.453,0,2.793-.445,4.02-1.336s2.121-1.992,2.684-3.305v-1.734c0-2.844-.617-5.156-1.852-6.938s-2.797-2.672-4.688-2.672c-1.906,0-3.438.73-4.594,2.191s-1.734,3.387-1.734,5.777c0,2.328.559,4.246,1.676,5.754s2.613,2.262,4.488,2.262Z" fill="#c9d1d9"/>
      </g>
    </g>
    <g isolation="isolate">
      <g isolation="isolate">
        <path d="m729.016,939.6h-4.359v-28.898l-8.742,3.211v-3.938l12.422-4.664h.68v34.289Z" fill="#c9d1d9"/>
        <path d="m742.258,937.326c0-.75.223-1.375.668-1.875s1.113-.75,2.004-.75,1.566.25,2.027.75.691,1.125.691,1.875c0,.719-.23,1.32-.691,1.805s-1.137.727-2.027.727-1.559-.242-2.004-.727-.668-1.086-.668-1.805Z" fill="#c9d1d9"/>
        <path d="m776.711,939.6h-22.359v-3.117l11.812-13.125c1.75-1.984,2.957-3.598,3.621-4.84s.996-2.527.996-3.855c0-1.781-.539-3.242-1.617-4.383s-2.516-1.711-4.312-1.711c-2.156,0-3.832.613-5.027,1.84s-1.793,2.934-1.793,5.121h-4.336c0-3.141,1.012-5.68,3.035-7.617s4.73-2.906,8.121-2.906c3.172,0,5.68.832,7.523,2.496s2.766,3.879,2.766,6.645c0,3.359-2.141,7.359-6.422,12l-9.141,9.914h17.133v3.539Z" fill="#c9d1d9"/>
      </g>
    </g>
    <g isolation="isolate">
      <g isolation="isolate">
        <path d="m873.016,939.6h-4.359v-28.898l-8.742,3.211v-3.938l12.422-4.664h.68v34.289Z" fill="#c9d1d9"/>
        <path d="m886.258,937.326c0-.75.223-1.375.668-1.875s1.113-.75,2.004-.75,1.566.25,2.027.75.691,1.125.691,1.875c0,.719-.23,1.32-.691,1.805s-1.137.727-2.027.727-1.559-.242-2.004-.727-.668-1.086-.668-1.805Z" fill="#c9d1d9"/>
        <path d="m900.344,922.49l1.734-17.016h17.484v4.008h-13.805l-1.031,9.305c1.672-.984,3.57-1.477,5.695-1.477,3.109,0,5.578,1.027,7.406,3.082s2.742,4.832,2.742,8.332-.949,6.285-2.848,8.309-4.551,3.035-7.957,3.035c-3.016,0-5.477-.836-7.383-2.508s-2.992-3.984-3.258-6.938h4.102c.266,1.953.961,3.426,2.086,4.418s2.609,1.488,4.453,1.488c2.016,0,3.598-.688,4.746-2.062s1.723-3.273,1.723-5.695c0-2.281-.621-4.113-1.863-5.496s-2.895-2.074-4.957-2.074c-1.891,0-3.375.414-4.453,1.242l-1.148.938-3.469-.891Z" fill="#c9d1d9"/>
      </g>
    </g>
    <g isolation="isolate">
      <g isolation="isolate">
        <path d="m1017.016,939.6h-4.359v-28.898l-8.742,3.211v-3.938l12.422-4.664h.68v34.289Z" fill="#c9d1d9"/>
        <path d="m1030.258,937.326c0-.75.223-1.375.668-1.875s1.113-.75,2.004-.75,1.566.25,2.027.75.691,1.125.691,1.875c0,.719-.23,1.32-.691,1.805s-1.137.727-2.027.727-1.559-.242-2.004-.727-.668-1.086-.668-1.805Z" fill="#c9d1d9"/>
        <path d="m1063.047,914.381c0,1.703-.449,3.219-1.348,4.547s-2.113,2.367-3.645,3.117c1.781.766,3.191,1.883,4.23,3.352s1.559,3.133,1.559,4.992c0,2.953-.996,5.305-2.988,7.055s-4.613,2.625-7.863,2.625c-3.281,0-5.91-.879-7.887-2.637s-2.965-4.105-2.965-7.043c0-1.844.504-3.508,1.512-4.992s2.402-2.609,4.184-3.375c-1.516-.75-2.711-1.789-3.586-3.117s-1.312-2.836-1.312-4.523c0-2.875.922-5.156,2.766-6.844s4.273-2.531,7.289-2.531c3,0,5.426.844,7.277,2.531s2.777,3.969,2.777,6.844Zm-3.539,15.914c0-1.906-.605-3.461-1.816-4.664s-2.793-1.805-4.746-1.805-3.52.594-4.699,1.781-1.77,2.75-1.77,4.688.574,3.461,1.723,4.57,2.746,1.664,4.793,1.664c2.031,0,3.625-.559,4.781-1.676s1.734-2.637,1.734-4.559Zm-6.516-21.727c-1.703,0-3.082.527-4.137,1.582s-1.582,2.488-1.582,4.301c0,1.734.52,3.137,1.559,4.207s2.426,1.605,4.16,1.605,3.121-.535,4.16-1.605,1.559-2.473,1.559-4.207-.539-3.148-1.617-4.242-2.445-1.641-4.102-1.641Z" fill="#c9d1d9"/>
      </g>
    </g>
    <g isolation="isolate">
      <g isolation="isolate">
        <path d="m1169.125,939.6h-22.359v-3.117l11.812-13.125c1.75-1.984,2.957-3.598,3.621-4.84s.996-2.527.996-3.855c0-1.781-.539-3.242-1.617-4.383s-2.516-1.711-4.312-1.711c-2.156,0-3.832.613-5.027,1.84s-1.793,2.934-1.793,5.121h-4.336c0-3.141,1.012-5.68,3.035-7.617s4.73-2.906,8.121-2.906c3.172,0,5.68.832,7.523,2.496s2.766,3.879,2.766,6.645c0,3.359-2.141,7.359-6.422,12l-9.141,9.914h17.133v3.539Z" fill="#c9d1d9"/>
        <path d="m1174.258,937.326c0-.75.223-1.375.668-1.875s1.113-.75,2.004-.75,1.566.25,2.027.75.691,1.125.691,1.875c0,.719-.23,1.32-.691,1.805s-1.137.727-2.027.727-1.559-.242-2.004-.727-.668-1.086-.668-1.805Z" fill="#c9d1d9"/>
        <path d="m1200.602,939.6h-4.359v-28.898l-8.742,3.211v-3.938l12.422-4.664h.68v34.289Z" fill="#c9d1d9"/>
      </g>
    </g>
    <g isolation="isolate">
      <g isolation="isolate">
        <path d="m1313.125,939.6h-22.359v-3.117l11.812-13.125c1.75-1.984,2.957-3.598,3.621-4.84s.996-2.527.996-3.855c0-1.781-.539-3.242-1.617-4.383s-2.516-1.711-4.312-1.711c-2.156,0-3.832.613-5.027,1.84s-1.793,2.934-1.793,5.121h-4.336c0-3.141,1.012-5.68,3.035-7.617s4.73-2.906,8.121-2.906c3.172,0,5.68.832,7.523,2.496s2.766,3.879,2.766,6.645c0,3.359-2.141,7.359-6.422,12l-9.141,9.914h17.133v3.539Z" fill="#c9d1d9"/>
        <path d="m1318.258,937.326c0-.75.223-1.375.668-1.875s1.113-.75,2.004-.75,1.566.25,2.027.75.691,1.125.691,1.875c0,.719-.23,1.32-.691,1.805s-1.137.727-2.027.727-1.559-.242-2.004-.727-.668-1.086-.668-1.805Z" fill="#c9d1d9"/>
        <path d="m1348.656,928.139h4.734v3.539h-4.734v7.922h-4.359v-7.922h-15.539v-2.555l15.281-23.648h4.617v22.664Zm-14.977,0h10.617v-16.734l-.516.938-10.102,15.797Z" fill="#c9d1d9"/>
      </g>
    </g>
    <g isolation="isolate">
      <g isolation="isolate">
        <path d="m1457.125,939.6h-22.359v-3.117l11.812-13.125c1.75-1.984,2.957-3.598,3.621-4.84s.996-2.527.996-3.855c0-1.781-.539-3.242-1.617-4.383s-2.516-1.711-4.312-1.711c-2.156,0-3.832.613-5.027,1.84s-1.793,2.934-1.793,5.121h-4.336c0-3.141,1.012-5.68,3.035-7.617s4.73-2.906,8.121-2.906c3.172,0,5.68.832,7.523,2.496s2.766,3.879,2.766,6.645c0,3.359-2.141,7.359-6.422,12l-9.141,9.914h17.133v3.539Z" fill="#c9d1d9"/>
        <path d="m1462.258,937.326c0-.75.223-1.375.668-1.875s1.113-.75,2.004-.75,1.566.25,2.027.75.691,1.125.691,1.875c0,.719-.23,1.32-.691,1.805s-1.137.727-2.027.727-1.559-.242-2.004-.727-.668-1.086-.668-1.805Z" fill="#c9d1d9"/>
        <path d="m1496.383,907.912l-14.133,31.688h-4.547l14.086-30.562h-18.469v-3.562h23.062v2.438Z" fill="#c9d1d9"/>
      </g>
    </g>
    <g isolation="isolate">
      <g isolation="isolate">
        <path d="m1604.86,920.428h3.258c2.047-.031,3.656-.57,4.828-1.617s1.758-2.461,1.758-4.242c0-4-1.992-6-5.977-6-1.875,0-3.371.535-4.488,1.605s-1.676,2.488-1.676,4.254h-4.336c0-2.703.988-4.949,2.965-6.738s4.488-2.684,7.535-2.684c3.219,0,5.742.852,7.57,2.555s2.742,4.07,2.742,7.102c0,1.484-.48,2.922-1.441,4.312s-2.27,2.43-3.926,3.117c1.875.594,3.324,1.578,4.348,2.953s1.535,3.055,1.535,5.039c0,3.062-1,5.492-3,7.289s-4.602,2.695-7.805,2.695-5.809-.867-7.816-2.602-3.012-4.023-3.012-6.867h4.359c0,1.797.586,3.234,1.758,4.312s2.742,1.617,4.711,1.617c2.094,0,3.695-.547,4.805-1.641s1.664-2.664,1.664-4.711c0-1.984-.609-3.508-1.828-4.57s-2.977-1.609-5.273-1.641h-3.258v-3.539Z" fill="#c9d1d9"/>
      </g>
    </g>
    <g isolation="isolate">
      <g isolation="isolate">
        <path d="m179.955,925.045c0,5.078-.867,8.852-2.602,11.32s-4.445,3.703-8.133,3.703c-3.641,0-6.336-1.207-8.086-3.621s-2.656-6.02-2.719-10.816v-5.789c0-5.016.867-8.742,2.602-11.18s4.453-3.656,8.156-3.656c3.672,0,6.375,1.176,8.109,3.527s2.625,5.98,2.672,10.887v5.625Zm-4.336-5.93c0-3.672-.516-6.348-1.547-8.027s-2.664-2.52-4.898-2.52c-2.219,0-3.836.836-4.852,2.508s-1.539,4.242-1.57,7.711v6.938c0,3.688.535,6.41,1.605,8.168s2.691,2.637,4.863,2.637c2.141,0,3.73-.828,4.77-2.484s1.582-4.266,1.629-7.828v-7.102Z" fill="#c9d1d9"/>
      </g>
    </g>
  </g>
</svg>