<?xml version="1.0" encoding="UTF-8"?>
<svg id="Ebene_1" data-name="Ebene 1" xmlns="http://www.w3.org/2000/svg" width="907.2" height="460.8" viewBox="0 0 907.2 460.8">
  <g isolation="isolate">
    <g isolation="isolate">
      <path d="m82.143,421.94h-2.18v-14.449l-4.371,1.605v-1.969l6.211-2.332h.34v17.145Z" fill="#bbc3cb"/>
      <path d="m99.194,414.663c0,2.539-.434,4.426-1.301,5.66s-2.223,1.852-4.066,1.852c-1.82,0-3.168-.604-4.043-1.811s-1.328-3.01-1.359-5.408v-2.895c0-2.508.434-4.371,1.301-5.59s2.227-1.828,4.078-1.828c1.836,0,3.188.588,4.055,1.764s1.312,2.99,1.336,5.443v2.812Zm-2.168-2.965c0-1.836-.258-3.174-.773-4.014s-1.332-1.26-2.449-1.26c-1.109,0-1.918.418-2.426,1.254s-.77,2.121-.785,3.855v3.469c0,1.844.268,3.205.803,4.084s1.346,1.318,2.432,1.318c1.07,0,1.865-.414,2.385-1.242s.791-2.133.814-3.914v-3.551Z" fill="#bbc3cb"/>
      <path d="m112.67,414.663c0,2.539-.434,4.426-1.301,5.66s-2.223,1.852-4.066,1.852c-1.82,0-3.168-.604-4.043-1.811s-1.328-3.01-1.359-5.408v-2.895c0-2.508.434-4.371,1.301-5.59s2.227-1.828,4.078-1.828c1.836,0,3.188.588,4.055,1.764s1.312,2.99,1.336,5.443v2.812Zm-2.168-2.965c0-1.836-.258-3.174-.773-4.014s-1.332-1.26-2.449-1.26c-1.109,0-1.918.418-2.426,1.254s-.77,2.121-.785,3.855v3.469c0,1.844.268,3.205.803,4.084s1.346,1.318,2.432,1.318c1.07,0,1.865-.414,2.385-1.242s.791-2.133.814-3.914v-3.551Z" fill="#bbc3cb"/>
    </g>
  </g>
  <g isolation="isolate">
    <g isolation="isolate">
      <path d="m200.248,421.94h-11.18v-1.559l5.906-6.562c.875-.992,1.479-1.799,1.811-2.42s.498-1.264.498-1.928c0-.891-.27-1.621-.809-2.191s-1.258-.855-2.156-.855c-1.078,0-1.916.307-2.514.92s-.896,1.467-.896,2.561h-2.168c0-1.57.506-2.84,1.518-3.809s2.365-1.453,4.061-1.453c1.586,0,2.84.416,3.762,1.248s1.383,1.939,1.383,3.322c0,1.68-1.07,3.68-3.211,6l-4.57,4.957h8.566v1.77Z" fill="#bbc3cb"/>
      <path d="m213.244,414.663c0,2.539-.434,4.426-1.301,5.66s-2.223,1.852-4.066,1.852c-1.82,0-3.168-.604-4.043-1.811s-1.328-3.01-1.359-5.408v-2.895c0-2.508.434-4.371,1.301-5.59s2.227-1.828,4.078-1.828c1.836,0,3.188.588,4.055,1.764s1.312,2.99,1.336,5.443v2.812Zm-2.168-2.965c0-1.836-.258-3.174-.773-4.014s-1.332-1.26-2.449-1.26c-1.109,0-1.918.418-2.426,1.254s-.77,2.121-.785,3.855v3.469c0,1.844.268,3.205.803,4.084s1.346,1.318,2.432,1.318c1.07,0,1.865-.414,2.385-1.242s.791-2.133.814-3.914v-3.551Z" fill="#bbc3cb"/>
      <path d="m226.72,414.663c0,2.539-.434,4.426-1.301,5.66s-2.223,1.852-4.066,1.852c-1.82,0-3.168-.604-4.043-1.811s-1.328-3.01-1.359-5.408v-2.895c0-2.508.434-4.371,1.301-5.59s2.227-1.828,4.078-1.828c1.836,0,3.188.588,4.055,1.764s1.312,2.99,1.336,5.443v2.812Zm-2.168-2.965c0-1.836-.258-3.174-.773-4.014s-1.332-1.26-2.449-1.26c-1.109,0-1.918.418-2.426,1.254s-.77,2.121-.785,3.855v3.469c0,1.844.268,3.205.803,4.084s1.346,1.318,2.432,1.318c1.07,0,1.865-.414,2.385-1.242s.791-2.133.814-3.914v-3.551Z" fill="#bbc3cb"/>
    </g>
  </g>
  <g isolation="isolate">
    <g isolation="isolate">
      <path d="m317.655,416.21h2.367v1.77h-2.367v3.961h-2.18v-3.961h-7.77v-1.277l7.641-11.824h2.309v11.332Zm-7.488,0h5.309v-8.367l-.258.469-5.051,7.898Z" fill="#bbc3cb"/>
      <path d="m332.678,414.663c0,2.539-.434,4.426-1.301,5.66s-2.223,1.852-4.066,1.852c-1.82,0-3.168-.604-4.043-1.811s-1.328-3.01-1.359-5.408v-2.895c0-2.508.434-4.371,1.301-5.59s2.227-1.828,4.078-1.828c1.836,0,3.188.588,4.055,1.764s1.312,2.99,1.336,5.443v2.812Zm-2.168-2.965c0-1.836-.258-3.174-.773-4.014s-1.332-1.26-2.449-1.26c-1.109,0-1.918.418-2.426,1.254s-.77,2.121-.785,3.855v3.469c0,1.844.268,3.205.803,4.084s1.346,1.318,2.432,1.318c1.07,0,1.865-.414,2.385-1.242s.791-2.133.814-3.914v-3.551Z" fill="#bbc3cb"/>
      <path d="m346.155,414.663c0,2.539-.434,4.426-1.301,5.66s-2.223,1.852-4.066,1.852c-1.82,0-3.168-.604-4.043-1.811s-1.328-3.01-1.359-5.408v-2.895c0-2.508.434-4.371,1.301-5.59s2.227-1.828,4.078-1.828c1.836,0,3.188.588,4.055,1.764s1.312,2.99,1.336,5.443v2.812Zm-2.168-2.965c0-1.836-.258-3.174-.773-4.014s-1.332-1.26-2.449-1.26c-1.109,0-1.918.418-2.426,1.254s-.77,2.121-.785,3.855v3.469c0,1.844.268,3.205.803,4.084s1.346,1.318,2.432,1.318c1.07,0,1.865-.414,2.385-1.242s.791-2.133.814-3.914v-3.551Z" fill="#bbc3cb"/>
    </g>
  </g>
  <g isolation="isolate">
    <g isolation="isolate">
      <path d="m478.578,421.94h-2.18v-14.449l-4.371,1.605v-1.969l6.211-2.332h.34v17.145Z" fill="#bbc3cb"/>
      <path d="m488.692,416.069l-1.359,1.418v4.453h-2.168v-18h2.168v10.887l1.16-1.395,3.949-4.172h2.637l-4.934,5.297,5.508,7.383h-2.543l-4.418-5.871Z" fill="#bbc3cb"/>
    </g>
  </g>
  <g isolation="isolate">
    <g isolation="isolate">
      <path d="m662.481,412.354h1.629c1.023-.016,1.828-.285,2.414-.809s.879-1.23.879-2.121c0-2-.996-3-2.988-3-.938,0-1.686.268-2.244.803s-.838,1.244-.838,2.127h-2.168c0-1.352.494-2.475,1.482-3.369s2.244-1.342,3.768-1.342c1.609,0,2.871.426,3.785,1.277s1.371,2.035,1.371,3.551c0,.742-.24,1.461-.721,2.156s-1.135,1.215-1.963,1.559c.938.297,1.662.789,2.174,1.477s.768,1.527.768,2.52c0,1.531-.5,2.746-1.5,3.645s-2.301,1.348-3.902,1.348-2.904-.434-3.908-1.301-1.506-2.012-1.506-3.434h2.18c0,.898.293,1.617.879,2.156s1.371.809,2.355.809c1.047,0,1.848-.273,2.402-.82s.832-1.332.832-2.355c0-.992-.305-1.754-.914-2.285s-1.488-.805-2.637-.82h-1.629v-1.77Z" fill="#bbc3cb"/>
      <path d="m676.567,416.069l-1.359,1.418v4.453h-2.168v-18h2.168v10.887l1.16-1.395,3.949-4.172h2.637l-4.934,5.297,5.508,7.383h-2.543l-4.418-5.871Z" fill="#bbc3cb"/>
    </g>
  </g>
  <g isolation="isolate">
    <g isolation="isolate">
      <path d="m856.143,421.94h-2.18v-14.449l-4.371,1.605v-1.969l6.211-2.332h.34v17.145Z" fill="#bbc3cb"/>
      <path d="m873.193,414.663c0,2.539-.434,4.426-1.301,5.66s-2.223,1.852-4.066,1.852c-1.82,0-3.168-.604-4.043-1.811s-1.328-3.01-1.359-5.408v-2.895c0-2.508.434-4.371,1.301-5.59s2.227-1.828,4.078-1.828c1.836,0,3.188.588,4.055,1.764s1.312,2.99,1.336,5.443v2.812Zm-2.168-2.965c0-1.836-.258-3.174-.773-4.014s-1.332-1.26-2.449-1.26c-1.109,0-1.918.418-2.426,1.254s-.77,2.121-.785,3.855v3.469c0,1.844.268,3.205.803,4.084s1.346,1.318,2.432,1.318c1.07,0,1.865-.414,2.385-1.242s.791-2.133.814-3.914v-3.551Z" fill="#bbc3cb"/>
      <path d="m879.732,416.069l-1.359,1.418v4.453h-2.168v-18h2.168v10.887l1.16-1.395,3.949-4.172h2.637l-4.934,5.297,5.508,7.383h-2.543l-4.418-5.871Z" fill="#bbc3cb"/>
    </g>
  </g>
  <rect x="88" y="28.74" width="792" height="360" fill="none" stroke="#7f7f7f" stroke-miterlimit="10" stroke-width="2.83"/>
  <g isolation="isolate">
    <g isolation="isolate">
      <path d="m70.437,166.982c0,2.539-.434,4.426-1.301,5.66s-2.223,1.852-4.066,1.852c-1.82,0-3.168-.604-4.043-1.811s-1.328-3.01-1.359-5.408v-2.895c0-2.508.434-4.371,1.301-5.59s2.227-1.828,4.078-1.828c1.836,0,3.188.588,4.055,1.764s1.312,2.99,1.336,5.443v2.812Zm-2.168-2.965c0-1.836-.258-3.174-.773-4.014s-1.332-1.26-2.449-1.26c-1.109,0-1.918.418-2.426,1.254s-.77,2.121-.785,3.855v3.469c0,1.844.268,3.205.803,4.084s1.346,1.318,2.432,1.318c1.07,0,1.865-.414,2.385-1.242s.791-2.133.814-3.914v-3.551Z" fill="#bbc3cb"/>
    </g>
  </g>
  <g isolation="isolate">
    <g isolation="isolate">
      <path d="m39.092,30.107h4.758v2.051h-4.758v5.391h-2.18v-5.391h-4.758v-2.051h4.758v-4.98h2.18v4.98Z" fill="#bbc3cb"/>
      <path d="m49.416,29.674h1.629c1.023-.016,1.828-.285,2.414-.809s.879-1.23.879-2.121c0-2-.996-3-2.988-3-.938,0-1.686.268-2.244.803s-.838,1.244-.838,2.127h-2.168c0-1.352.494-2.475,1.482-3.369s2.244-1.342,3.768-1.342c1.609,0,2.871.426,3.785,1.277s1.371,2.035,1.371,3.551c0,.742-.24,1.461-.721,2.156s-1.135,1.215-1.963,1.559c.938.297,1.662.789,2.174,1.477s.768,1.527.768,2.52c0,1.531-.5,2.746-1.5,3.645s-2.301,1.348-3.902,1.348-2.904-.434-3.908-1.301-1.506-2.012-1.506-3.434h2.18c0,.898.293,1.617.879,2.156s1.371.809,2.355.809c1.047,0,1.848-.273,2.402-.82s.832-1.332.832-2.355c0-.992-.305-1.754-.914-2.285s-1.488-.805-2.637-.82h-1.629v-1.77Z" fill="#bbc3cb"/>
      <path d="m70.439,31.982c0,2.539-.434,4.426-1.301,5.66s-2.223,1.852-4.066,1.852c-1.82,0-3.168-.604-4.043-1.811s-1.328-3.01-1.359-5.408v-2.895c0-2.508.434-4.371,1.301-5.59s2.227-1.828,4.078-1.828c1.836,0,3.188.588,4.055,1.764s1.312,2.99,1.336,5.443v2.812Zm-2.168-2.965c0-1.836-.258-3.174-.773-4.014s-1.332-1.26-2.449-1.26c-1.109,0-1.918.418-2.426,1.254s-.77,2.121-.785,3.855v3.469c0,1.844.268,3.205.803,4.084s1.346,1.318,2.432,1.318c1.07,0,1.865-.414,2.385-1.242s.791-2.133.814-3.914v-3.551Z" fill="#bbc3cb"/>
    </g>
  </g>
  <line x1="602.17" y1="29.53" x2="602.17" y2="389.2" fill="none" stroke="#7f7f7f" stroke-miterlimit="10" stroke-width="1.82"/>
  <line x1="671.27" y1="29.53" x2="671.27" y2="389.2" fill="none" stroke="#7f7f7f" stroke-miterlimit="10" stroke-width="1.82"/>
  <line x1="720.5" y1="29.53" x2="720.5" y2="389.2" fill="none" stroke="#7f7f7f" stroke-miterlimit="10" stroke-width="1.82"/>
  <line x1="759.08" y1="29.53" x2="759.08" y2="389.2" fill="none" stroke="#7f7f7f" stroke-miterlimit="10" stroke-width="1.82"/>
  <line x1="789.89" y1="29.53" x2="789.89" y2="389.2" fill="none" stroke="#7f7f7f" stroke-miterlimit="10" stroke-width="1.82"/>
  <line x1="816.66" y1="29.53" x2="816.66" y2="389.2" fill="none" stroke="#7f7f7f" stroke-miterlimit="10" stroke-width="1.82"/>
  <line x1="839.12" y1="29.53" x2="839.12" y2="389.2" fill="none" stroke="#7f7f7f" stroke-miterlimit="10" stroke-width="1.82"/>
  <line x1="859.85" y1="29.53" x2="859.85" y2="389.2" fill="none" stroke="#7f7f7f" stroke-miterlimit="10" stroke-width="1.82"/>
  <line x1="877.41" y1="29.53" x2="877.41" y2="389.2" fill="none" stroke="#7f7f7f" stroke-miterlimit="10" stroke-width="1.82"/>
  <line x1="88" y1="208.74" x2="880" y2="208.74" fill="none" stroke="#7f7f7f" stroke-miterlimit="10" stroke-width="2.83"/>
  <g isolation="isolate">
    <g isolation="isolate">
      <path d="m44.382,212.896h-5.719v-1.77h5.719v1.77Z" fill="#bbc3cb"/>
      <path d="m53.394,219.26h-2.18v-14.449l-4.371,1.605v-1.969l6.211-2.332h.34v17.145Z" fill="#bbc3cb"/>
      <path d="m70.445,211.982c0,2.539-.434,4.426-1.301,5.66s-2.223,1.852-4.066,1.852c-1.82,0-3.168-.604-4.043-1.811s-1.328-3.01-1.359-5.408v-2.895c0-2.508.434-4.371,1.301-5.59s2.227-1.828,4.078-1.828c1.836,0,3.188.588,4.055,1.764s1.312,2.99,1.336,5.443v2.812Zm-2.168-2.965c0-1.836-.258-3.174-.773-4.014s-1.332-1.26-2.449-1.26c-1.109,0-1.918.418-2.426,1.254s-.77,2.121-.785,3.855v3.469c0,1.844.268,3.205.803,4.084s1.346,1.318,2.432,1.318c1.07,0,1.865-.414,2.385-1.242s.791-2.133.814-3.914v-3.551Z" fill="#bbc3cb"/>
    </g>
  </g>
  <g isolation="isolate">
    <g isolation="isolate">
      <path d="m39.092,75.107h4.758v2.051h-4.758v5.391h-2.18v-5.391h-4.758v-2.051h4.758v-4.98h2.18v4.98Z" fill="#bbc3cb"/>
      <path d="m57.443,84.26h-11.18v-1.559l5.906-6.562c.875-.992,1.479-1.799,1.811-2.42s.498-1.264.498-1.928c0-.891-.27-1.621-.809-2.191s-1.258-.855-2.156-.855c-1.078,0-1.916.307-2.514.92s-.896,1.467-.896,2.561h-2.168c0-1.57.506-2.84,1.518-3.809s2.365-1.453,4.061-1.453c1.586,0,2.84.416,3.762,1.248s1.383,1.939,1.383,3.322c0,1.68-1.07,3.68-3.211,6l-4.57,4.957h8.566v1.77Z" fill="#bbc3cb"/>
      <path d="m70.439,76.982c0,2.539-.434,4.426-1.301,5.66s-2.223,1.852-4.066,1.852c-1.82,0-3.168-.604-4.043-1.811s-1.328-3.01-1.359-5.408v-2.895c0-2.508.434-4.371,1.301-5.59s2.227-1.828,4.078-1.828c1.836,0,3.188.588,4.055,1.764s1.312,2.99,1.336,5.443v2.812Zm-2.168-2.965c0-1.836-.258-3.174-.773-4.014s-1.332-1.26-2.449-1.26c-1.109,0-1.918.418-2.426,1.254s-.77,2.121-.785,3.855v3.469c0,1.844.268,3.205.803,4.084s1.346,1.318,2.432,1.318c1.07,0,1.865-.414,2.385-1.242s.791-2.133.814-3.914v-3.551Z" fill="#bbc3cb"/>
    </g>
  </g>
  <g isolation="isolate">
    <g isolation="isolate">
      <path d="m44.382,392.896h-5.719v-1.77h5.719v1.77Z" fill="#bbc3cb"/>
      <path d="m47.265,390.705l.867-8.508h8.742v2.004h-6.902l-.516,4.652c.836-.492,1.785-.738,2.848-.738,1.555,0,2.789.514,3.703,1.541s1.371,2.416,1.371,4.166-.475,3.143-1.424,4.154-2.275,1.518-3.979,1.518c-1.508,0-2.738-.418-3.691-1.254s-1.496-1.992-1.629-3.469h2.051c.133.977.48,1.713,1.043,2.209s1.305.744,2.227.744c1.008,0,1.799-.344,2.373-1.031s.861-1.637.861-2.848c0-1.141-.311-2.057-.932-2.748s-1.447-1.037-2.479-1.037c-.945,0-1.688.207-2.227.621l-.574.469-1.734-.445Z" fill="#bbc3cb"/>
      <path d="m70.445,391.982c0,2.539-.434,4.426-1.301,5.66s-2.223,1.852-4.066,1.852c-1.82,0-3.168-.604-4.043-1.811s-1.328-3.01-1.359-5.408v-2.895c0-2.508.434-4.371,1.301-5.59s2.227-1.828,4.078-1.828c1.836,0,3.188.588,4.055,1.764s1.312,2.99,1.336,5.443v2.812Zm-2.168-2.965c0-1.836-.258-3.174-.773-4.014s-1.332-1.26-2.449-1.26c-1.109,0-1.918.418-2.426,1.254s-.77,2.121-.785,3.855v3.469c0,1.844.268,3.205.803,4.084s1.346,1.318,2.432,1.318c1.07,0,1.865-.414,2.385-1.242s.791-2.133.814-3.914v-3.551Z" fill="#bbc3cb"/>
    </g>
  </g>
  <g isolation="isolate">
    <g isolation="isolate">
      <path d="m44.382,302.896h-5.719v-1.77h5.719v1.77Z" fill="#bbc3cb"/>
      <path d="m49.421,299.674h1.629c1.023-.016,1.828-.285,2.414-.809s.879-1.23.879-2.121c0-2-.996-3-2.988-3-.938,0-1.686.268-2.244.803s-.838,1.244-.838,2.127h-2.168c0-1.352.494-2.475,1.482-3.369s2.244-1.342,3.768-1.342c1.609,0,2.871.426,3.785,1.277s1.371,2.035,1.371,3.551c0,.742-.24,1.461-.721,2.156s-1.135,1.215-1.963,1.559c.938.297,1.662.789,2.174,1.477s.768,1.527.768,2.52c0,1.531-.5,2.746-1.5,3.645s-2.301,1.348-3.902,1.348-2.904-.434-3.908-1.301-1.506-2.012-1.506-3.434h2.18c0,.898.293,1.617.879,2.156s1.371.809,2.355.809c1.047,0,1.848-.273,2.402-.82s.832-1.332.832-2.355c0-.992-.305-1.754-.914-2.285s-1.488-.805-2.637-.82h-1.629v-1.77Z" fill="#bbc3cb"/>
      <path d="m70.445,301.982c0,2.539-.434,4.426-1.301,5.66s-2.223,1.852-4.066,1.852c-1.82,0-3.168-.604-4.043-1.811s-1.328-3.01-1.359-5.408v-2.895c0-2.508.434-4.371,1.301-5.59s2.227-1.828,4.078-1.828c1.836,0,3.188.588,4.055,1.764s1.312,2.99,1.336,5.443v2.812Zm-2.168-2.965c0-1.836-.258-3.174-.773-4.014s-1.332-1.26-2.449-1.26c-1.109,0-1.918.418-2.426,1.254s-.77,2.121-.785,3.855v3.469c0,1.844.268,3.205.803,4.084s1.346,1.318,2.432,1.318c1.07,0,1.865-.414,2.385-1.242s.791-2.133.814-3.914v-3.551Z" fill="#bbc3cb"/>
    </g>
  </g>
  <g isolation="isolate">
    <g isolation="isolate">
      <path d="m44.382,258.047h-5.719v-1.77h5.719v1.77Z" fill="#bbc3cb"/>
      <path d="m57.449,264.41h-11.18v-1.559l5.906-6.562c.875-.992,1.479-1.799,1.811-2.42s.498-1.264.498-1.928c0-.891-.27-1.621-.809-2.191s-1.258-.855-2.156-.855c-1.078,0-1.916.307-2.514.92s-.896,1.467-.896,2.561h-2.168c0-1.57.506-2.84,1.518-3.809s2.365-1.453,4.061-1.453c1.586,0,2.84.416,3.762,1.248s1.383,1.939,1.383,3.322c0,1.68-1.07,3.68-3.211,6l-4.57,4.957h8.566v1.77Z" fill="#bbc3cb"/>
      <path d="m70.445,257.133c0,2.539-.434,4.426-1.301,5.66s-2.223,1.852-4.066,1.852c-1.82,0-3.168-.604-4.043-1.811s-1.328-3.01-1.359-5.408v-2.895c0-2.508.434-4.371,1.301-5.59s2.227-1.828,4.078-1.828c1.836,0,3.188.588,4.055,1.764s1.312,2.99,1.336,5.443v2.812Zm-2.168-2.965c0-1.836-.258-3.174-.773-4.014s-1.332-1.26-2.449-1.26c-1.109,0-1.918.418-2.426,1.254s-.77,2.121-.785,3.855v3.469c0,1.844.268,3.205.803,4.084s1.346,1.318,2.432,1.318c1.07,0,1.865-.414,2.385-1.242s.791-2.133.814-3.914v-3.551Z" fill="#bbc3cb"/>
    </g>
  </g>
  <line x1="207.73" y1="28.74" x2="207.73" y2="388.4" fill="none" stroke="#7f7f7f" stroke-miterlimit="10" stroke-width="1.82"/>
  <line x1="277.98" y1="28.74" x2="277.98" y2="388.4" fill="none" stroke="#7f7f7f" stroke-miterlimit="10" stroke-width="1.82"/>
  <line x1="326.93" y1="28.74" x2="326.93" y2="388.4" fill="none" stroke="#7f7f7f" stroke-miterlimit="10" stroke-width="1.82"/>
  <line x1="365.51" y1="28.74" x2="365.51" y2="388.4" fill="none" stroke="#7f7f7f" stroke-miterlimit="10" stroke-width="1.82"/>
  <line x1="396.31" y1="28.74" x2="396.31" y2="388.4" fill="none" stroke="#7f7f7f" stroke-miterlimit="10" stroke-width="1.82"/>
  <line x1="422.51" y1="28.74" x2="422.51" y2="388.4" fill="none" stroke="#7f7f7f" stroke-miterlimit="10" stroke-width="1.82"/>
  <line x1="445.55" y1="28.74" x2="445.55" y2="388.4" fill="none" stroke="#7f7f7f" stroke-miterlimit="10" stroke-width="1.82"/>
  <line x1="465.41" y1="28.74" x2="465.41" y2="388.4" fill="none" stroke="#7f7f7f" stroke-miterlimit="10" stroke-width="1.82"/>
  <line x1="483.84" y1="28.74" x2="483.84" y2="388.4" fill="none" stroke="#7f7f7f" stroke-miterlimit="10" stroke-width="1.82"/>
  <g isolation="isolate">
    <g isolation="isolate">
      <path d="m44.382,347.896h-5.719v-1.77h5.719v1.77Z" fill="#bbc3cb"/>
      <path d="m55.421,348.529h2.367v1.77h-2.367v3.961h-2.18v-3.961h-7.77v-1.277l7.641-11.824h2.309v11.332Zm-7.488,0h5.309v-8.367l-.258.469-5.051,7.898Z" fill="#bbc3cb"/>
      <path d="m70.445,346.982c0,2.539-.434,4.426-1.301,5.66s-2.223,1.852-4.066,1.852c-1.82,0-3.168-.604-4.043-1.811s-1.328-3.01-1.359-5.408v-2.895c0-2.508.434-4.371,1.301-5.59s2.227-1.828,4.078-1.828c1.836,0,3.188.588,4.055,1.764s1.312,2.99,1.336,5.443v2.812Zm-2.168-2.965c0-1.836-.258-3.174-.773-4.014s-1.332-1.26-2.449-1.26c-1.109,0-1.918.418-2.426,1.254s-.77,2.121-.785,3.855v3.469c0,1.844.268,3.205.803,4.084s1.346,1.318,2.432,1.318c1.07,0,1.865-.414,2.385-1.242s.791-2.133.814-3.914v-3.551Z" fill="#bbc3cb"/>
    </g>
  </g>
  <g isolation="isolate">
    <g isolation="isolate">
      <path d="m39.092,120.138h4.758v2.051h-4.758v5.391h-2.18v-5.391h-4.758v-2.051h4.758v-4.98h2.18v4.98Z" fill="#bbc3cb"/>
      <path d="m53.389,129.29h-2.18v-14.449l-4.371,1.605v-1.969l6.211-2.332h.34v17.145Z" fill="#bbc3cb"/>
      <path d="m70.439,122.013c0,2.539-.434,4.426-1.301,5.66s-2.223,1.852-4.066,1.852c-1.82,0-3.168-.604-4.043-1.811s-1.328-3.01-1.359-5.408v-2.895c0-2.508.434-4.371,1.301-5.59s2.227-1.828,4.078-1.828c1.836,0,3.188.588,4.055,1.764s1.312,2.99,1.336,5.443v2.812Zm-2.168-2.965c0-1.836-.258-3.174-.773-4.014s-1.332-1.26-2.449-1.26c-1.109,0-1.918.418-2.426,1.254s-.77,2.121-.785,3.855v3.469c0,1.844.268,3.205.803,4.084s1.346,1.318,2.432,1.318c1.07,0,1.865-.414,2.385-1.242s.791-2.133.814-3.914v-3.551Z" fill="#bbc3cb"/>
    </g>
  </g>
  <g isolation="isolate">
    <g isolation="isolate">
      <path d="m502.412,226.16c0,1.648-.262,3.068-.785,4.26-.523,1.191-1.258,2.123-2.203,2.794l3.047,2.391-1.535,1.418-3.598-2.859c-.562.141-1.156.211-1.781.211-1.344,0-2.535-.33-3.574-.99s-1.846-1.602-2.42-2.824c-.574-1.223-.869-2.639-.885-4.248v-1.23c0-1.641.285-3.09.855-4.348s1.377-2.221,2.42-2.889,2.236-1.002,3.58-1.002c1.375,0,2.584.332,3.627.996s1.846,1.619,2.408,2.865.844,2.701.844,4.365v1.09Zm-2.25-1.102c0-2.008-.4-3.557-1.201-4.646s-1.943-1.635-3.428-1.635c-1.414,0-2.529.541-3.346,1.623s-1.236,2.584-1.26,4.506v1.254c0,1.953.408,3.492,1.225,4.617.816,1.125,1.951,1.687,3.404,1.687s2.578-.529,3.375-1.587c.797-1.059,1.207-2.576,1.23-4.553v-1.266Z" fill="#bbc3cb"/>
      <path d="m521.396,224.601h-9.773v-1.887h9.773v1.887Zm0,4.863h-9.773v-1.875h9.773v1.875Z" fill="#bbc3cb"/>
      <path d="m541.072,226.863c0,2.539-.434,4.425-1.301,5.66s-2.223,1.852-4.066,1.852c-1.82,0-3.168-.604-4.043-1.811s-1.328-3.009-1.359-5.408v-2.895c0-2.508.434-4.371,1.301-5.59s2.227-1.828,4.078-1.828c1.836,0,3.188.588,4.055,1.764s1.312,2.99,1.336,5.443v2.812Zm-2.168-2.965c0-1.836-.258-3.174-.773-4.014s-1.332-1.26-2.449-1.26c-1.109,0-1.918.418-2.426,1.254s-.77,2.121-.785,3.855v3.469c0,1.844.268,3.205.803,4.083.535.879,1.346,1.318,2.432,1.318,1.07,0,1.865-.414,2.385-1.242.52-.828.791-2.132.814-3.914v-3.551Z" fill="#bbc3cb"/>
      <path d="m544.119,233.003c0-.375.111-.688.334-.938s.557-.375,1.002-.375.783.125,1.014.375.346.562.346.938c0,.359-.115.66-.346.902s-.568.363-1.014.363-.779-.121-1.002-.363-.334-.543-.334-.902Z" fill="#bbc3cb"/>
      <path d="m557.291,234.14h-2.18v-14.449l-4.371,1.605v-1.969l6.211-2.332h.34v17.144Z" fill="#bbc3cb"/>
    </g>
  </g>
  <g isolation="isolate">
    <g isolation="isolate">
      <path d="m524.872,58.01c0,1.648-.262,3.068-.785,4.26s-1.258,2.123-2.203,2.795l3.047,2.391-1.535,1.418-3.598-2.859c-.562.141-1.156.211-1.781.211-1.344,0-2.535-.33-3.574-.99s-1.846-1.602-2.42-2.824-.869-2.639-.885-4.248v-1.23c0-1.641.285-3.09.855-4.348s1.377-2.221,2.42-2.889,2.236-1.002,3.58-1.002c1.375,0,2.584.332,3.627.996s1.846,1.619,2.408,2.865.844,2.701.844,4.365v1.09Zm-2.25-1.102c0-2.008-.4-3.557-1.201-4.646s-1.943-1.635-3.428-1.635c-1.414,0-2.529.541-3.346,1.623s-1.236,2.584-1.26,4.506v1.254c0,1.953.408,3.492,1.225,4.617s1.951,1.688,3.404,1.688,2.578-.529,3.375-1.588,1.207-2.576,1.23-4.553v-1.266Z" fill="#bbc3cb"/>
      <path d="m543.856,56.451h-9.773v-1.887h9.773v1.887Zm0,4.863h-9.773v-1.875h9.773v1.875Z" fill="#bbc3cb"/>
      <path d="m564.013,65.99h-11.18v-1.559l5.906-6.562c.875-.992,1.479-1.799,1.811-2.42s.498-1.264.498-1.928c0-.891-.27-1.621-.809-2.191s-1.258-.855-2.156-.855c-1.078,0-1.916.307-2.514.92s-.896,1.467-.896,2.561h-2.168c0-1.57.506-2.84,1.518-3.809s2.365-1.453,4.061-1.453c1.586,0,2.84.416,3.762,1.248s1.383,1.939,1.383,3.322c0,1.68-1.07,3.68-3.211,6l-4.57,4.957h8.566v1.77Z" fill="#bbc3cb"/>
      <path d="m577.009,58.713c0,2.539-.434,4.426-1.301,5.66s-2.223,1.852-4.066,1.852c-1.82,0-3.168-.604-4.043-1.811s-1.328-3.01-1.359-5.408v-2.895c0-2.508.434-4.371,1.301-5.59s2.227-1.828,4.078-1.828c1.836,0,3.188.588,4.055,1.764s1.312,2.99,1.336,5.443v2.812Zm-2.168-2.965c0-1.836-.258-3.174-.773-4.014s-1.332-1.26-2.449-1.26c-1.109,0-1.918.418-2.426,1.254s-.77,2.121-.785,3.855v3.469c0,1.844.268,3.205.803,4.084s1.346,1.318,2.432,1.318c1.07,0,1.865-.414,2.385-1.242s.791-2.133.814-3.914v-3.551Z" fill="#bbc3cb"/>
    </g>
  </g>
  <g isolation="isolate">
    <g isolation="isolate">
      <path d="m3.438,264.373l13.922-5.578-13.922-5.578v-2.918h17.062v2.25h-6.645l-7.172-.211,13.816,5.602v1.723l-13.781,5.59,7.137-.223h6.645v2.25H3.438v-2.906Z" fill="#c9d1d9"/>
      <path d="m20.5,238.838c-.25.125-.695.227-1.336.305,1.047,1.008,1.57,2.211,1.57,3.609,0,1.25-.354,2.275-1.061,3.076s-1.604,1.201-2.689,1.201c-1.32,0-2.346-.502-3.076-1.506s-1.096-2.416-1.096-4.236v-2.109h-.996c-.758,0-1.361.227-1.811.68s-.674,1.121-.674,2.004c0,.773.195,1.422.586,1.945s.863.785,1.418.785v2.18c-.633,0-1.244-.225-1.834-.674s-1.057-1.059-1.4-1.828-.516-1.615-.516-2.537c0-1.461.365-2.605,1.096-3.434s1.736-1.258,3.018-1.289h5.836c1.164,0,2.09-.148,2.777-.445h.188v2.273Zm-1.652,3.598c0-.68-.176-1.324-.527-1.934s-.809-1.051-1.371-1.324h-2.602v1.699c0,2.656.777,3.984,2.332,3.984.68,0,1.211-.227,1.594-.68s.574-1.035.574-1.746Z" fill="#c9d1d9"/>
      <path d="m14.055,234.127c-1.977,0-3.549-.457-4.717-1.371s-1.752-2.125-1.752-3.633c0-1.547.547-2.754,1.641-3.621l-1.406-.105v-1.98h12.375c1.641,0,2.934.486,3.879,1.459s1.418,2.279,1.418,3.92c0,.914-.195,1.809-.586,2.684s-.926,1.543-1.605,2.004l-1.301-1.125c1.148-.93,1.723-2.066,1.723-3.41,0-1.055-.297-1.877-.891-2.467s-1.43-.885-2.508-.885h-1.09c1,.867,1.5,2.051,1.5,3.551,0,1.484-.598,2.686-1.793,3.604s-2.824,1.377-4.887,1.377Zm.246-2.18c1.43,0,2.553-.293,3.369-.879s1.225-1.406,1.225-2.461c0-1.367-.621-2.371-1.863-3.012h-5.789c-1.211.664-1.816,1.66-1.816,2.988,0,1.055.41,1.879,1.23,2.473s2.035.891,3.645.891Z" fill="#c9d1d9"/>
      <path d="m7.82,218.096l1.594-.07c-1.219-.969-1.828-2.234-1.828-3.797,0-2.68,1.512-4.031,4.535-4.055h8.379v2.168h-8.391c-.914.008-1.59.217-2.027.627s-.656,1.049-.656,1.916c0,.703.188,1.32.562,1.852s.867.945,1.477,1.242h9.035v2.168H7.82v-2.051Z" fill="#c9d1d9"/>
      <path d="m4.457,206.893c-.352,0-.648-.107-.891-.322s-.363-.533-.363-.955.121-.742.363-.961.539-.328.891-.328.645.109.879.328.352.539.352.961-.117.74-.352.955-.527.322-.879.322Zm16.043-2.344v2.168H7.82v-2.168h12.68Z" fill="#c9d1d9"/>
      <path d="m4.75,198.139h3.07v-2.367h1.676v2.367h7.873c.509,0,.89-.105,1.145-.316.254-.211.381-.57.381-1.078,0-.25-.047-.594-.141-1.031h1.748c.154.57.232,1.125.232,1.664,0,.969-.293,1.699-.879,2.191s-1.418.738-2.496.738h-7.863v2.309h-1.676v-2.309h-3.07v-2.168Z" fill="#c9d1d9"/>
      <path d="m19.246,185.412c.992.844,1.488,2.082,1.488,3.715,0,1.352-.393,2.381-1.178,3.088s-1.947,1.064-3.486,1.072H7.82v-2.168h8.191c1.922,0,2.883-.781,2.883-2.344,0-1.656-.617-2.758-1.852-3.305H7.82v-2.168h12.68v2.062l-1.254.047Z" fill="#c9d1d9"/>
      <path d="m14.055,180.537c-1.945,0-3.51-.461-4.693-1.383s-1.775-2.129-1.775-3.621c0-1.484.508-2.66,1.523-3.527H2.5v-2.168h18v1.992l-1.359.105c1.062.867,1.594,2.074,1.594,3.621,0,1.469-.602,2.666-1.805,3.592s-2.773,1.389-4.711,1.389h-.164Zm.246-2.168c1.438,0,2.562-.297,3.375-.891s1.219-1.414,1.219-2.461c0-1.375-.617-2.379-1.852-3.012h-5.824c-1.195.648-1.793,1.645-1.793,2.988,0,1.062.41,1.891,1.23,2.484s2.035.891,3.645.891Z" fill="#c9d1d9"/>
      <path d="m20.734,161.213c0,1.719-.564,3.117-1.693,4.195s-2.639,1.617-4.529,1.617h-.398c-1.258,0-2.381-.24-3.369-.721s-1.762-1.152-2.32-2.016-.838-1.799-.838-2.807c0-1.648.543-2.93,1.629-3.844s2.641-1.371,4.664-1.371h.902v8.59c1.25-.031,2.26-.396,3.029-1.096s1.154-1.588,1.154-2.666c0-.766-.156-1.414-.469-1.945s-.727-.996-1.242-1.395l1.031-1.324c1.633,1.062,2.449,2.656,2.449,4.781Zm-11.367.27c0,.875.318,1.609.955,2.203s1.529.961,2.678,1.102v-6.352h-.164c-1.102.062-1.955.359-2.561.891s-.908,1.25-.908,2.156Z" fill="#c9d1d9"/>
      <path d="m13.574,147.9c-1.766,0-3.461-.236-5.086-.709s-3.102-1.178-4.43-2.115-2.266-1.91-2.812-2.918l1.43-.445c.875,1.141,2.211,2.076,4.008,2.807s3.809,1.131,6.035,1.201l.996.012c3.016,0,5.633-.551,7.852-1.652,1.328-.664,2.367-1.453,3.117-2.367l1.324.445c-.578,1.039-1.547,2.031-2.906,2.977-2.656,1.844-5.832,2.766-9.527,2.766Z" fill="#c9d1d9"/>
      <path d="m14.055,140.143c-1.945,0-3.51-.461-4.693-1.383s-1.775-2.129-1.775-3.621c0-1.484.508-2.66,1.523-3.527H2.5v-2.168h18v1.992l-1.359.105c1.062.867,1.594,2.074,1.594,3.621,0,1.469-.602,2.666-1.805,3.592s-2.773,1.389-4.711,1.389h-.164Zm.246-2.168c1.438,0,2.562-.297,3.375-.891s1.219-1.414,1.219-2.461c0-1.375-.617-2.379-1.852-3.012h-5.824c-1.195.648-1.793,1.645-1.793,2.988,0,1.062.41,1.891,1.23,2.484s2.035.891,3.645.891Z" fill="#c9d1d9"/>
      <path d="m20.5,125.74H3.438v-5.578c0-1.852.383-3.244,1.148-4.178s1.898-1.4,3.398-1.4c.797,0,1.502.227,2.115.68s1.088,1.07,1.424,1.852c.258-.922.748-1.65,1.471-2.186s1.584-.803,2.584-.803c1.531,0,2.734.496,3.609,1.488s1.312,2.395,1.312,4.207v5.918Zm-9.785-2.25v-3.398c0-.984-.246-1.771-.74-2.361-.493-.59-1.162-.885-2.008-.885-.939,0-1.623.273-2.049.82-.427.547-.641,1.379-.641,2.496v3.328h5.438Zm1.805,0h6.141v-3.715c0-1.047-.271-1.873-.814-2.479s-1.291-.908-2.244-.908c-2.055,0-3.082,1.117-3.082,3.352v3.75Z" fill="#c9d1d9"/>
      <path d="m13.691,106.135c1.742,0,3.412.229,5.01.686s3.072,1.156,4.424,2.098,2.312,1.928,2.883,2.959l-1.324.457c-.922-1.203-2.354-2.17-4.295-2.9s-4.096-1.104-6.463-1.119h-.375c-1.641,0-3.166.172-4.576.516s-2.674.822-3.791,1.436-1.988,1.303-2.613,2.068l-1.324-.457c.57-1.031,1.523-2.014,2.859-2.947s2.809-1.633,4.418-2.098,3.332-.697,5.168-.697Z" fill="#c9d1d9"/>
    </g>
  </g>
  <g isolation="isolate">
    <g isolation="isolate">
      <path d="m414.343,440.854h-7.16v7.535h-2.25v-17.062h10.57v1.84h-8.32v5.848h7.16v1.84Z" fill="#c9d1d9"/>
    </g>
    <g isolation="isolate">
      <path d="m423.682,437.655c-.328-.055-.684-.082-1.066-.082-1.422,0-2.387.605-2.895,1.816v9h-2.168v-12.68h2.109l.035,1.465c.711-1.133,1.719-1.699,3.023-1.699.422,0,.742.055.961.164v2.016Z" fill="#c9d1d9"/>
    </g>
    <g isolation="isolate">
      <path d="m430.715,448.624c-1.719,0-3.117-.564-4.195-1.693s-1.617-2.639-1.617-4.529v-.398c0-1.258.24-2.381.721-3.369s1.152-1.762,2.016-2.32,1.799-.838,2.807-.838c1.648,0,2.93.543,3.844,1.629s1.371,2.641,1.371,4.664v.902h-8.59c.031,1.25.396,2.26,1.096,3.029s1.588,1.154,2.666,1.154c.766,0,1.414-.156,1.945-.469s.996-.727,1.395-1.242l1.324,1.031c-1.062,1.633-2.656,2.449-4.781,2.449Zm-.27-11.367c-.875,0-1.609.318-2.203.955s-.961,1.529-1.102,2.678h6.352v-.164c-.062-1.102-.359-1.955-.891-2.561s-1.25-.908-2.156-.908Z" fill="#c9d1d9"/>
      <path d="m437.641,441.944c0-1.992.457-3.568,1.371-4.729s2.141-1.74,3.68-1.74c1.5,0,2.684.504,3.551,1.512l.094-1.277h1.992v17.555h-2.168v-6.047c-.875.938-2.039,1.406-3.492,1.406-1.531,0-2.752-.596-3.662-1.787s-1.365-2.771-1.365-4.74v-.152Zm2.168.246c0,1.453.307,2.594.92,3.422s1.439,1.242,2.479,1.242c1.289,0,2.273-.57,2.953-1.711v-6.211c-.688-1.117-1.664-1.676-2.93-1.676-1.047,0-1.879.416-2.496,1.248s-.926,2.061-.926,3.686Z" fill="#c9d1d9"/>
      <path d="m459.637,447.136c-.844.992-2.082,1.488-3.715,1.488-1.352,0-2.381-.393-3.088-1.178s-1.064-1.947-1.072-3.486v-8.25h2.168v8.191c0,1.922.781,2.883,2.344,2.883,1.656,0,2.758-.617,3.305-1.852v-9.223h2.168v12.68h-2.062l-.047-1.254Z" fill="#c9d1d9"/>
      <path d="m470.301,448.624c-1.719,0-3.117-.564-4.195-1.693s-1.617-2.639-1.617-4.529v-.398c0-1.258.24-2.381.721-3.369s1.152-1.762,2.016-2.32,1.799-.838,2.807-.838c1.648,0,2.93.543,3.844,1.629s1.371,2.641,1.371,4.664v.902h-8.59c.031,1.25.396,2.26,1.096,3.029s1.588,1.154,2.666,1.154c.766,0,1.414-.156,1.945-.469s.996-.727,1.395-1.242l1.324,1.031c-1.062,1.633-2.656,2.449-4.781,2.449Zm-.27-11.367c-.875,0-1.609.318-2.203.955s-.961,1.529-1.102,2.678h6.352v-.164c-.062-1.102-.359-1.955-.891-2.561s-1.25-.908-2.156-.908Z" fill="#c9d1d9"/>
      <path d="m479.805,435.71l.07,1.594c.969-1.219,2.234-1.828,3.797-1.828,2.68,0,4.031,1.512,4.055,4.535v8.379h-2.168v-8.391c-.008-.914-.217-1.59-.627-2.027s-1.049-.656-1.916-.656c-.703,0-1.32.188-1.852.562s-.945.867-1.242,1.477v9.035h-2.168v-12.68h2.051Z" fill="#c9d1d9"/>
      <path d="m496.083,446.854c.773,0,1.449-.234,2.027-.703s.898-1.055.961-1.758h2.051c-.039.727-.289,1.418-.75,2.074s-1.076,1.18-1.846,1.57-1.584.586-2.443.586c-1.727,0-3.1-.576-4.119-1.729s-1.529-2.729-1.529-4.729v-.363c0-1.234.227-2.332.68-3.293s1.104-1.707,1.951-2.238,1.85-.797,3.006-.797c1.422,0,2.604.426,3.545,1.277s1.443,1.957,1.506,3.316h-2.051c-.062-.82-.373-1.494-.932-2.021s-1.248-.791-2.068-.791c-1.102,0-1.955.396-2.561,1.189s-.908,1.939-.908,3.439v.41c0,1.461.301,2.586.902,3.375s1.461,1.184,2.578,1.184Z" fill="#c9d1d9"/>
      <path d="m507.708,445.214l2.953-9.504h2.32l-5.098,14.637c-.789,2.109-2.043,3.164-3.762,3.164l-.41-.035-.809-.152v-1.758l.586.047c.734,0,1.307-.148,1.717-.445s.748-.84,1.014-1.629l.48-1.289-4.523-12.539h2.367l3.164,9.504Z" fill="#c9d1d9"/>
      <path d="m520.774,441.464c0-1.766.236-3.461.709-5.086s1.178-3.102,2.115-4.43,1.91-2.266,2.918-2.812l.445,1.43c-1.141.875-2.076,2.211-2.807,4.008s-1.131,3.809-1.201,6.035l-.012.996c0,3.016.551,5.633,1.652,7.852.664,1.328,1.453,2.367,2.367,3.117l-.445,1.324c-1.039-.578-2.031-1.547-2.977-2.906-1.844-2.656-2.766-5.832-2.766-9.527Z" fill="#c9d1d9"/>
      <path d="m542.512,448.39h-2.262v-7.887h-8.602v7.887h-2.25v-17.062h2.25v7.336h8.602v-7.336h2.262v17.062Z" fill="#c9d1d9"/>
      <path d="m548.208,446.62h7.418v1.77h-10.066v-1.594l6.996-9.293h-6.891v-1.793h9.609v1.535l-7.066,9.375Z" fill="#c9d1d9"/>
      <path d="m563.067,441.581c0,1.742-.229,3.412-.686,5.01s-1.156,3.072-2.098,4.424-1.928,2.312-2.959,2.883l-.457-1.324c1.203-.922,2.17-2.354,2.9-4.295s1.104-4.096,1.119-6.463v-.375c0-1.641-.172-3.166-.516-4.576s-.822-2.674-1.436-3.791-1.303-1.988-2.068-2.613l.457-1.324c1.031.57,2.014,1.523,2.947,2.859s1.633,2.809,2.098,4.418.697,3.332.697,5.168Z" fill="#c9d1d9"/>
    </g>
  </g>
  <g id="uuid-a7dfaa71-3e4e-42ff-98a4-c8da8f2871fd">
    <path d="m88.76,357.19c13.17-4.8,24.08-8.29,31.72-10.63,5.59-1.71,13.83-4.05,30.29-8.72,12.93-3.67,14.09-3.97,21.89-6.19,19.01-5.4,20.65-5.96,32.19-9.2,13.73-3.85,24.44-6.71,29.02-7.93,13.05-3.46,23.73-6.15,34.73-8.88,30.92-7.66,39.22-9.38,79.14-19.03,21.12-5.1,23.44-5.75,40.6-9.83,23.01-5.48,39.64-9.28,43.45-10.15,22.29-5.09,22.2-4.87,44.09-9.83,22.64-5.13,23.67-5.57,54.55-12.69,15.41-3.55,29.34-6.76,47.58-10.78,16.13-3.56,15.49-3.31,53.29-11.42,45.19-9.69,44.93-9.79,53.29-11.26,13.12-2.31,22.07-3.52,39.17-7.14,11-2.33,11.3-2.67,22.36-4.92,14.21-2.88,26.33-4.87,36.32-6.5,1.34-.22,7.29-1.15,19.19-3.01,20.61-3.23,22.68-3.52,24.74-3.81,11.26-1.55,12.33-1.42,23.31-3.01,4.76-.69,9.52-1.35,14.27-2.06,1.64-.25,4.3-.65,7.93-1.11,2.84-.36,5.19-.62,6.82-.79" fill="none" stroke="#307eef" stroke-miterlimit="10" stroke-width="2.83"/>
    <path d="m89.35,344.45c3.19-1.29,7.05-2.88,11.42-4.76,6.03-2.6,10.69-4.74,12.79-5.71,6.75-3.13,7.03-3.44,12.9-6.13,6.64-3.05,6.32-2.67,13-5.71,6.44-2.93,7.56-3.66,16.07-7.61,0,0,3.94-1.83,9.52-4.33,47.92-21.53,118.1-50.54,118.1-50.54,19.35-8,27.41-11.24,36.58-14.8,10.05-3.9,21.01-7.88,42.93-15.86,27.43-9.99,33.82-12.13,38.06-13.53,2.54-.84,14.56-4.79,30.66-9.52,6.49-1.9,16.13-4.72,28.97-8.04,10.3-2.66,18.12-4.46,25.37-6.13,9.93-2.29,15.85-3.65,24.11-5.29,2.74-.54,12.92-2.53,26.96-4.65,6.82-1.03,8.6-1.19,32.14-4.12,24.88-3.1,26.01-3.31,32.04-3.91,13.16-1.32,23.39-1.9,31.72-2.33,58.85-3.01,94.89-3.65,94.89-3.65,47.38-.84,98.67-1.81,150.82-2.7" fill="none" stroke="#307eef" stroke-miterlimit="10" stroke-width="2.83"/>
    <path d="m89.87,343.8c38.43-16.78,77.2-34.04,116.3-51.79,64.01-29.05,74.57-32.94,94.94-43.77,14.82-7.88,32.4-17.79,60.9-31.72,10.51-5.14,9.29-4.36,38.91-18.61,11.34-5.45,22.88-10.49,34.2-15.96,7.01-3.39,15.43-7.54,27.44-11.1,3.45-1.02,6.16-1.69,11.58-3.01,7.75-1.9,16.55-4.05,26.64-5.55,6.83-1.01,11.58-1.33,20.62-1.9,17.37-1.11,32.07-1.14,43.14-.95,15.88.28,27.76,1.09,30.5,1.27,35.5,2.36,92.03,2.67,170.85,3.1,29.28.16,67.12.24,111.52,0" fill="none" stroke="#307eef" stroke-miterlimit="10" stroke-width="2.83"/>
    <path d="m89.35,345.19c29.22-13.57,53.06-24.43,68.93-31.61,74.67-33.79,106.59-46.8,152.35-71.47,22.16-11.95,43.61-24.5,45.46-25.59,21.01-12.32,35.54-20.74,52.65-32.35,4.71-3.19,15.38-10.54,25.11-17.29,2.12-1.47,8.55-6.14,17.29-12.05,6.98-4.72,9.39-6.18,10.47-6.82,7.81-4.66,12.57-7.45,19.51-9.04,4.68-1.08,8.76-1.24,11.05-1.32,1.58-.06,4.38-.1,11.1.53,5.06.47,11.31,1.05,19.24,2.64,7.24,1.45,12.31,3.02,15.33,3.91,14.25,4.2,26.48,6.13,45.36,9.09,6.06.95,16.05,2.41,31.72,4.02,38.87,3.98,72.92,4.61,80.56,4.76,76.68,1.46,171.29.91,181.11.85" fill="none" stroke="#307eef" stroke-miterlimit="10" stroke-width="2.83"/>
    <path d="m89.4,343.8c24.5-10.67,49.19-21.59,74.06-32.76,33.8-15.18,50.72-22.74,72-32.83,10.78-5.11,51.19-24.36,99.49-50.7,11.84-6.46,29.32-16.15,50.33-30.45,4.95-3.37,15.87-10.92,29.18-21.57,10.74-8.59,18.1-14.52,26.64-23.68,6.3-6.75,8.86-11.95,18.19-23.05,4.39-5.23,6.23-7.07,9.38-11.44,1.73-2.4,3.66-4.64,5.47-6.98.51-.66,1.97-2.53,4.28-4.52,1-.86,1.5-1.29,2.22-1.67,2.82-1.48,5.73-.92,6.74-.71,1.71.35,2.92,1.04,3.89,1.59,1.66.93,2.74,1.9,3.22,2.33,2.94,2.6,6.07,4.99,9.04,7.56,3.06,2.65,5.36,4.26,9.94,7.48,6.84,4.8,12.39,7.99,13.96,8.88,2.13,1.21,8.08,4.53,16.26,8.09,2.71,1.18,7.78,3.31,14.19,5.47,9.99,3.37,18.68,5.3,27.75,6.98,20.17,3.74,36.16,5.14,37.85,5.29,55.01,4.69,83.95,5.66,83.95,5.66,15.08.5,33.29.94,113.23,1.04,23.92.03,43.83.02,57.83,0" fill="none" stroke="#307eef" stroke-miterlimit="10" stroke-width="2.83"/>
    <path d="m89.87,344.66c41.01-19.18,74.23-34.42,97.06-44.83,24.05-10.96,38.26-17.33,61.74-28.55,37.84-18.07,58.76-29.15,73.8-37.43,9.22-5.07,22.37-12.47,38.06-21.99,10.64-6.46,20.26-12.31,32.78-20.93,11.58-7.98,21.06-14.56,32.56-24.95,4.79-4.33,10.89-9.88,17.97-18.18,4.11-4.82,10.87-12.82,17.55-24.74,4.08-7.28,7.37-13.15,9.73-21.25,1.38-4.75,3.25-9.36,4.44-14.17.13-.51,1.14-3.05,3.17-8.14.54-1.34,1.08-2.65,2.43-3.59.19-.13,2.26-1.53,4.55-.85.91.27,1.57.79,2.54,1.8,2.37,2.49,3.54,4.82,5.29,7.82.85,1.46,1.77,2.88,2.64,4.33,4.18,6.98,6.28,10.46,6.34,10.57,3.6,6.34,3.61,7.34,6.45,11.74,1.45,2.24,2.62,3.81,4.23,5.92,2.17,2.84,3.73,4.87,6.13,7.19,1.81,1.75,3.3,2.89,4.65,3.91.81.61,4.15,3.11,10.89,6.66.82.43,4.07,2.13,8.78,4.23,6.89,3.07,12.45,4.99,14.91,5.81,2.2.74,7.3,2.39,14.06,4.02,7.02,1.69,12.44,2.53,15.96,3.07,15.4,2.34,23.1,3.51,33.52,4.65,32.97,3.61,63.18,4.87,70.63,5.18,22.01.91,38.72,1.05,46.57,1.11,54.36.42,107.07.45,139.98.42" fill="none" stroke="#307eef" stroke-miterlimit="10" stroke-width="2.83"/>
    <path d="m89.72,344.66c9.79-4.59,24.81-11.61,43.3-20.14,19.95-9.2,29.59-13.55,51.54-23.63,24-11.03,36-16.54,48.37-22.36,9.02-4.25,58.62-27.68,111.75-56.93,8.49-4.68,22.29-12.37,39.33-23.89,14.69-9.94,24.61-17.86,28.28-20.83,13.74-11.13,24.5-19.96,35.52-34.41,3.73-4.89,7.68-10.08,11.74-17.92,8.63-16.71,11.72-33.88,12.69-40.6.83-5.74,2.23-11.38,3.01-17.13.15-1.1,1.16-4.75,3.17-12.05.07-.26,1.02-3.55,3.65-6.03.73-.69,1.38-1.12,2.14-1.11,1.39,0,2.51,1.44,3.25,2.38.58.74.92,1.38,1.11,1.74,1.41,2.72,2.27,5.04,3.01,6.9.06.14.62,1.47,1.74,4.12,2.08,4.91,2.79,6.37,3.65,8.41,1.31,3.1,1.42,3.88,3.96,11.42.94,2.78,2,5.82,4.12,11.89,2.64,7.54,3.89,10.97,5.31,14.67,1.66,4.32,2.51,6.5,3.36,7.93,2.99,5.04,6.76,8.2,8.62,9.73.67.55,2.29,1.85,6.24,4.28,2.85,1.76,7.2,4.42,13.8,7.4,3.42,1.55,9.43,4.08,21.04,7.45,13.69,3.98,24.53,6.04,27.91,6.66,16.56,3.05,29.49,4,35.68,4.44,48.2,3.4,69.3,3.65,69.3,3.65,37.68.44,101.13,1.68,183.68,3.1" fill="none" stroke="#307eef" stroke-miterlimit="10" stroke-width="2.83"/>
  </g>
</svg>