<?xml version="1.0" encoding="UTF-8"?>
<svg id="Ebene_4" data-name="Ebene 4" xmlns="http://www.w3.org/2000/svg" width="2678.4" height="619.2" viewBox="0 0 2678.4 619.2">
  <g isolation="isolate">
    <g isolation="isolate">
      <path d="m15.905,598.903H4.467v-3.539h11.438v3.539Z" fill="#c9d1d9"/>
      <path d="m33.928,611.63h-4.359v-28.898l-8.742,3.211v-3.938l12.422-4.664h.68v34.289Z" fill="#c9d1d9"/>
      <path d="m46.936,618.427l-2.461-1.688c1.469-2.047,2.234-4.156,2.297-6.328v-3.914h4.242v3.398c0,1.578-.387,3.156-1.16,4.734s-1.746,2.844-2.918,3.797Z" fill="#c9d1d9"/>
      <path d="m77.452,597.075c0,5.078-.867,8.852-2.602,11.32s-4.445,3.703-8.133,3.703c-3.641,0-6.336-1.207-8.086-3.621s-2.656-6.02-2.719-10.816v-5.789c0-5.016.867-8.742,2.602-11.18s4.453-3.656,8.156-3.656c3.672,0,6.375,1.176,8.109,3.527s2.625,5.98,2.672,10.887v5.625Zm-4.336-5.93c0-3.672-.516-6.348-1.547-8.027s-2.664-2.52-4.898-2.52c-2.219,0-3.836.836-4.852,2.508s-1.539,4.242-1.57,7.711v6.938c0,3.688.535,6.41,1.605,8.168s2.691,2.637,4.863,2.637c2.141,0,3.73-.828,4.77-2.484s1.582-4.266,1.629-7.828v-7.102Z" fill="#c9d1d9"/>
    </g>
  </g>
  <g isolation="isolate">
    <g isolation="isolate">
      <path d="m15.905,454.903H4.467v-3.539h11.438v3.539Z" fill="#c9d1d9"/>
      <path d="m41.077,453.075c0,5.078-.867,8.852-2.602,11.32s-4.445,3.703-8.133,3.703c-3.641,0-6.336-1.207-8.086-3.621s-2.656-6.02-2.719-10.816v-5.789c0-5.016.867-8.742,2.602-11.18s4.453-3.656,8.156-3.656c3.672,0,6.375,1.176,8.109,3.527s2.625,5.98,2.672,10.887v5.625Zm-4.336-5.93c0-3.672-.516-6.348-1.547-8.027s-2.664-2.52-4.898-2.52c-2.219,0-3.836.836-4.852,2.508s-1.539,4.242-1.57,7.711v6.938c0,3.688.535,6.41,1.605,8.168s2.691,2.637,4.863,2.637c2.141,0,3.73-.828,4.77-2.484s1.582-4.266,1.629-7.828v-7.102Z" fill="#c9d1d9"/>
      <path d="m46.936,474.427l-2.461-1.688c1.469-2.047,2.234-4.156,2.297-6.328v-3.914h4.242v3.398c0,1.578-.387,3.156-1.16,4.734s-1.746,2.844-2.918,3.797Z" fill="#c9d1d9"/>
      <path d="m58.045,450.521l1.734-17.016h17.484v4.008h-13.805l-1.031,9.305c1.672-.984,3.57-1.477,5.695-1.477,3.109,0,5.578,1.027,7.406,3.082s2.742,4.832,2.742,8.332-.949,6.285-2.848,8.309-4.551,3.035-7.957,3.035c-3.016,0-5.477-.836-7.383-2.508s-2.992-3.984-3.258-6.938h4.102c.266,1.953.961,3.426,2.086,4.418s2.609,1.488,4.453,1.488c2.016,0,3.598-.688,4.746-2.062s1.723-3.273,1.723-5.695c0-2.281-.621-4.113-1.863-5.496s-2.895-2.074-4.957-2.074c-1.891,0-3.375.414-4.453,1.242l-1.148.938-3.469-.891Z" fill="#c9d1d9"/>
    </g>
  </g>
  <g isolation="isolate">
    <g isolation="isolate">
      <path d="m40.274,309.075c0,5.078-.867,8.852-2.602,11.32s-4.445,3.703-8.133,3.703c-3.641,0-6.336-1.207-8.086-3.621s-2.656-6.02-2.719-10.816v-5.789c0-5.016.867-8.742,2.602-11.18s4.453-3.656,8.156-3.656c3.672,0,6.375,1.176,8.109,3.527s2.625,5.98,2.672,10.887v5.625Zm-4.336-5.93c0-3.672-.516-6.348-1.547-8.027s-2.664-2.52-4.898-2.52c-2.219,0-3.836.836-4.852,2.508s-1.539,4.242-1.57,7.711v6.938c0,3.688.535,6.41,1.605,8.168s2.691,2.637,4.863,2.637c2.141,0,3.73-.828,4.77-2.484s1.582-4.266,1.629-7.828v-7.102Z" fill="#c9d1d9"/>
      <path d="m46.134,330.427l-2.461-1.688c1.469-2.047,2.234-4.156,2.297-6.328v-3.914h4.242v3.398c0,1.578-.387,3.156-1.16,4.734s-1.746,2.844-2.918,3.797Z" fill="#c9d1d9"/>
      <path d="m76.649,309.075c0,5.078-.867,8.852-2.602,11.32s-4.445,3.703-8.133,3.703c-3.641,0-6.336-1.207-8.086-3.621s-2.656-6.02-2.719-10.816v-5.789c0-5.016.867-8.742,2.602-11.18s4.453-3.656,8.156-3.656c3.672,0,6.375,1.176,8.109,3.527s2.625,5.98,2.672,10.887v5.625Zm-4.336-5.93c0-3.672-.516-6.348-1.547-8.027s-2.664-2.52-4.898-2.52c-2.219,0-3.836.836-4.852,2.508s-1.539,4.242-1.57,7.711v6.938c0,3.688.535,6.41,1.605,8.168s2.691,2.637,4.863,2.637c2.141,0,3.73-.828,4.77-2.484s1.582-4.266,1.629-7.828v-7.102Z" fill="#c9d1d9"/>
    </g>
  </g>
  <g isolation="isolate">
    <g isolation="isolate">
      <path d="m40.274,165.075c0,5.078-.867,8.852-2.602,11.32s-4.445,3.703-8.133,3.703c-3.641,0-6.336-1.207-8.086-3.621s-2.656-6.02-2.719-10.816v-5.789c0-5.016.867-8.742,2.602-11.18s4.453-3.656,8.156-3.656c3.672,0,6.375,1.176,8.109,3.527s2.625,5.98,2.672,10.887v5.625Zm-4.336-5.93c0-3.672-.516-6.348-1.547-8.027s-2.664-2.52-4.898-2.52c-2.219,0-3.836.836-4.852,2.508s-1.539,4.242-1.57,7.711v6.938c0,3.688.535,6.41,1.605,8.168s2.691,2.637,4.863,2.637c2.141,0,3.73-.828,4.77-2.484s1.582-4.266,1.629-7.828v-7.102Z" fill="#c9d1d9"/>
      <path d="m46.134,186.427l-2.461-1.688c1.469-2.047,2.234-4.156,2.297-6.328v-3.914h4.242v3.398c0,1.578-.387,3.156-1.16,4.734s-1.746,2.844-2.918,3.797Z" fill="#c9d1d9"/>
      <path d="m57.243,162.521l1.734-17.016h17.484v4.008h-13.805l-1.031,9.305c1.672-.984,3.57-1.477,5.695-1.477,3.109,0,5.578,1.027,7.406,3.082s2.742,4.832,2.742,8.332-.949,6.285-2.848,8.309-4.551,3.035-7.957,3.035c-3.016,0-5.477-.836-7.383-2.508s-2.992-3.984-3.258-6.938h4.102c.266,1.953.961,3.426,2.086,4.418s2.609,1.488,4.453,1.488c2.016,0,3.598-.688,4.746-2.062s1.723-3.273,1.723-5.695c0-2.281-.621-4.113-1.863-5.496s-2.895-2.074-4.957-2.074c-1.891,0-3.375.414-4.453,1.242l-1.148.938-3.469-.891Z" fill="#c9d1d9"/>
    </g>
  </g>
  <g isolation="isolate">
    <g isolation="isolate">
      <path d="m33.126,35.63h-4.359V6.731l-8.742,3.211v-3.938l12.422-4.664h.68v34.289Z" fill="#c9d1d9"/>
      <path d="m46.134,42.427l-2.461-1.688c1.469-2.047,2.234-4.156,2.297-6.328v-3.914h4.242v3.398c0,1.578-.387,3.156-1.16,4.734s-1.746,2.844-2.918,3.797Z" fill="#c9d1d9"/>
      <path d="m76.649,21.075c0,5.078-.867,8.852-2.602,11.32s-4.445,3.703-8.133,3.703c-3.641,0-6.336-1.207-8.086-3.621s-2.656-6.02-2.719-10.816v-5.789c0-5.016.867-8.742,2.602-11.18s4.453-3.656,8.156-3.656c3.672,0,6.375,1.176,8.109,3.527s2.625,5.98,2.672,10.887v5.625Zm-4.336-5.93c0-3.672-.516-6.348-1.547-8.027s-2.664-2.52-4.898-2.52c-2.219,0-3.836.836-4.852,2.508s-1.539,4.242-1.57,7.711v6.938c0,3.688.535,6.41,1.605,8.168s2.691,2.637,4.863,2.637c2.141,0,3.73-.828,4.77-2.484s1.582-4.266,1.629-7.828v-7.102Z" fill="#c9d1d9"/>
    </g>
  </g>
  <line x1="90.1" y1="597.6" x2="90.1" y2="21.6" fill="none" stroke="#c9d1d9" stroke-miterlimit="10" stroke-width="2"/>
  <g>
    <line x1="90.1" y1="597.6" x2="111.7" y2="597.6" fill="none" stroke="#c9d1d9" stroke-miterlimit="10" stroke-width="2"/>
    <line x1="90.1" y1="568.8" x2="111.7" y2="568.8" fill="none" stroke="#c9d1d9" stroke-miterlimit="10" stroke-width="2"/>
    <line x1="90.1" y1="540" x2="111.7" y2="540" fill="none" stroke="#c9d1d9" stroke-miterlimit="10" stroke-width="2"/>
    <line x1="90.1" y1="511.2" x2="111.7" y2="511.2" fill="none" stroke="#c9d1d9" stroke-miterlimit="10" stroke-width="2"/>
    <line x1="90.1" y1="482.4" x2="111.7" y2="482.4" fill="none" stroke="#c9d1d9" stroke-miterlimit="10" stroke-width="2"/>
    <line x1="90.1" y1="453.6" x2="111.7" y2="453.6" fill="none" stroke="#c9d1d9" stroke-miterlimit="10" stroke-width="2"/>
    <line x1="90.1" y1="424.8" x2="111.7" y2="424.8" fill="none" stroke="#c9d1d9" stroke-miterlimit="10" stroke-width="2"/>
    <line x1="90.1" y1="396" x2="111.7" y2="396" fill="none" stroke="#c9d1d9" stroke-miterlimit="10" stroke-width="2"/>
    <line x1="90.1" y1="367.2" x2="111.7" y2="367.2" fill="none" stroke="#c9d1d9" stroke-miterlimit="10" stroke-width="2"/>
    <line x1="90.1" y1="338.4" x2="111.7" y2="338.4" fill="none" stroke="#c9d1d9" stroke-miterlimit="10" stroke-width="2"/>
    <line x1="90.1" y1="309.6" x2="111.7" y2="309.6" fill="none" stroke="#c9d1d9" stroke-miterlimit="10" stroke-width="2"/>
    <line x1="90.1" y1="280.8" x2="111.7" y2="280.8" fill="none" stroke="#c9d1d9" stroke-miterlimit="10" stroke-width="2"/>
    <line x1="90.1" y1="252" x2="111.7" y2="252" fill="none" stroke="#c9d1d9" stroke-miterlimit="10" stroke-width="2"/>
    <line x1="90.1" y1="223.2" x2="111.7" y2="223.2" fill="none" stroke="#c9d1d9" stroke-miterlimit="10" stroke-width="2"/>
    <line x1="90.1" y1="194.4" x2="111.7" y2="194.4" fill="none" stroke="#c9d1d9" stroke-miterlimit="10" stroke-width="2"/>
    <line x1="90.1" y1="165.6" x2="111.7" y2="165.6" fill="none" stroke="#c9d1d9" stroke-miterlimit="10" stroke-width="2"/>
    <line x1="90.1" y1="136.8" x2="111.7" y2="136.8" fill="none" stroke="#c9d1d9" stroke-miterlimit="10" stroke-width="2"/>
    <line x1="90.1" y1="108" x2="111.7" y2="108" fill="none" stroke="#c9d1d9" stroke-miterlimit="10" stroke-width="2"/>
    <line x1="90.1" y1="79.2" x2="111.7" y2="79.2" fill="none" stroke="#c9d1d9" stroke-miterlimit="10" stroke-width="2"/>
    <line x1="90.1" y1="50.4" x2="111.7" y2="50.4" fill="none" stroke="#c9d1d9" stroke-miterlimit="10" stroke-width="2"/>
    <line x1="90.1" y1="21.6" x2="111.7" y2="21.6" fill="none" stroke="#c9d1d9" stroke-miterlimit="10" stroke-width="2"/>
  </g>
  <g isolation="isolate">
    <g isolation="isolate">
      <path d="m1384.074,598.903h-11.438v-3.539h11.438v3.539Z" fill="#c9d1d9"/>
      <path d="m1402.098,611.63h-4.359v-28.898l-8.742,3.211v-3.938l12.422-4.664h.68v34.289Z" fill="#c9d1d9"/>
      <path d="m1415.105,618.427l-2.461-1.688c1.469-2.047,2.234-4.156,2.297-6.328v-3.914h4.242v3.398c0,1.578-.387,3.156-1.16,4.734s-1.746,2.844-2.918,3.797Z" fill="#c9d1d9"/>
      <path d="m1445.621,597.075c0,5.078-.867,8.852-2.602,11.32s-4.445,3.703-8.133,3.703c-3.641,0-6.336-1.207-8.086-3.621s-2.656-6.02-2.719-10.816v-5.789c0-5.016.867-8.742,2.602-11.18s4.453-3.656,8.156-3.656c3.672,0,6.375,1.176,8.109,3.527s2.625,5.98,2.672,10.887v5.625Zm-4.336-5.93c0-3.672-.516-6.348-1.547-8.027s-2.664-2.52-4.898-2.52c-2.219,0-3.836.836-4.852,2.508s-1.539,4.242-1.57,7.711v6.938c0,3.688.535,6.41,1.605,8.168s2.691,2.637,4.863,2.637c2.141,0,3.73-.828,4.77-2.484s1.582-4.266,1.629-7.828v-7.102Z" fill="#c9d1d9"/>
    </g>
  </g>
  <g isolation="isolate">
    <g isolation="isolate">
      <path d="m1384.074,454.903h-11.438v-3.539h11.438v3.539Z" fill="#c9d1d9"/>
      <path d="m1409.246,453.075c0,5.078-.867,8.852-2.602,11.32s-4.445,3.703-8.133,3.703c-3.641,0-6.336-1.207-8.086-3.621s-2.656-6.02-2.719-10.816v-5.789c0-5.016.867-8.742,2.602-11.18s4.453-3.656,8.156-3.656c3.672,0,6.375,1.176,8.109,3.527s2.625,5.98,2.672,10.887v5.625Zm-4.336-5.93c0-3.672-.516-6.348-1.547-8.027s-2.664-2.52-4.898-2.52c-2.219,0-3.836.836-4.852,2.508s-1.539,4.242-1.57,7.711v6.938c0,3.688.535,6.41,1.605,8.168s2.691,2.637,4.863,2.637c2.141,0,3.73-.828,4.77-2.484s1.582-4.266,1.629-7.828v-7.102Z" fill="#c9d1d9"/>
      <path d="m1415.105,474.427l-2.461-1.688c1.469-2.047,2.234-4.156,2.297-6.328v-3.914h4.242v3.398c0,1.578-.387,3.156-1.16,4.734s-1.746,2.844-2.918,3.797Z" fill="#c9d1d9"/>
      <path d="m1426.215,450.521l1.734-17.016h17.484v4.008h-13.805l-1.031,9.305c1.672-.984,3.57-1.477,5.695-1.477,3.109,0,5.578,1.027,7.406,3.082s2.742,4.832,2.742,8.332-.949,6.285-2.848,8.309-4.551,3.035-7.957,3.035c-3.016,0-5.477-.836-7.383-2.508s-2.992-3.984-3.258-6.938h4.102c.266,1.953.961,3.426,2.086,4.418s2.609,1.488,4.453,1.488c2.016,0,3.598-.688,4.746-2.062s1.723-3.273,1.723-5.695c0-2.281-.621-4.113-1.863-5.496s-2.895-2.074-4.957-2.074c-1.891,0-3.375.414-4.453,1.242l-1.148.938-3.469-.891Z" fill="#c9d1d9"/>
    </g>
  </g>
  <g isolation="isolate">
    <g isolation="isolate">
      <path d="m1408.444,309.075c0,5.078-.867,8.852-2.602,11.32s-4.445,3.703-8.133,3.703c-3.641,0-6.336-1.207-8.086-3.621s-2.656-6.02-2.719-10.816v-5.789c0-5.016.867-8.742,2.602-11.18s4.453-3.656,8.156-3.656c3.672,0,6.375,1.176,8.109,3.527s2.625,5.98,2.672,10.887v5.625Zm-4.336-5.93c0-3.672-.516-6.348-1.547-8.027s-2.664-2.52-4.898-2.52c-2.219,0-3.836.836-4.852,2.508s-1.539,4.242-1.57,7.711v6.938c0,3.688.535,6.41,1.605,8.168s2.691,2.637,4.863,2.637c2.141,0,3.73-.828,4.77-2.484s1.582-4.266,1.629-7.828v-7.102Z" fill="#c9d1d9"/>
      <path d="m1414.304,330.427l-2.461-1.688c1.469-2.047,2.234-4.156,2.297-6.328v-3.914h4.242v3.398c0,1.578-.387,3.156-1.16,4.734s-1.746,2.844-2.918,3.797Z" fill="#c9d1d9"/>
      <path d="m1444.819,309.075c0,5.078-.867,8.852-2.602,11.32s-4.445,3.703-8.133,3.703c-3.641,0-6.336-1.207-8.086-3.621s-2.656-6.02-2.719-10.816v-5.789c0-5.016.867-8.742,2.602-11.18s4.453-3.656,8.156-3.656c3.672,0,6.375,1.176,8.109,3.527s2.625,5.98,2.672,10.887v5.625Zm-4.336-5.93c0-3.672-.516-6.348-1.547-8.027s-2.664-2.52-4.898-2.52c-2.219,0-3.836.836-4.852,2.508s-1.539,4.242-1.57,7.711v6.938c0,3.688.535,6.41,1.605,8.168s2.691,2.637,4.863,2.637c2.141,0,3.73-.828,4.77-2.484s1.582-4.266,1.629-7.828v-7.102Z" fill="#c9d1d9"/>
    </g>
  </g>
  <g isolation="isolate">
    <g isolation="isolate">
      <path d="m1408.444,165.075c0,5.078-.867,8.852-2.602,11.32s-4.445,3.703-8.133,3.703c-3.641,0-6.336-1.207-8.086-3.621s-2.656-6.02-2.719-10.816v-5.789c0-5.016.867-8.742,2.602-11.18s4.453-3.656,8.156-3.656c3.672,0,6.375,1.176,8.109,3.527s2.625,5.98,2.672,10.887v5.625Zm-4.336-5.93c0-3.672-.516-6.348-1.547-8.027s-2.664-2.52-4.898-2.52c-2.219,0-3.836.836-4.852,2.508s-1.539,4.242-1.57,7.711v6.938c0,3.688.535,6.41,1.605,8.168s2.691,2.637,4.863,2.637c2.141,0,3.73-.828,4.77-2.484s1.582-4.266,1.629-7.828v-7.102Z" fill="#c9d1d9"/>
      <path d="m1414.304,186.427l-2.461-1.688c1.469-2.047,2.234-4.156,2.297-6.328v-3.914h4.242v3.398c0,1.578-.387,3.156-1.16,4.734s-1.746,2.844-2.918,3.797Z" fill="#c9d1d9"/>
      <path d="m1425.413,162.521l1.734-17.016h17.484v4.008h-13.805l-1.031,9.305c1.672-.984,3.57-1.477,5.695-1.477,3.109,0,5.578,1.027,7.406,3.082s2.742,4.832,2.742,8.332-.949,6.285-2.848,8.309-4.551,3.035-7.957,3.035c-3.016,0-5.477-.836-7.383-2.508s-2.992-3.984-3.258-6.938h4.102c.266,1.953.961,3.426,2.086,4.418s2.609,1.488,4.453,1.488c2.016,0,3.598-.688,4.746-2.062s1.723-3.273,1.723-5.695c0-2.281-.621-4.113-1.863-5.496s-2.895-2.074-4.957-2.074c-1.891,0-3.375.414-4.453,1.242l-1.148.938-3.469-.891Z" fill="#c9d1d9"/>
    </g>
  </g>
  <g isolation="isolate">
    <g isolation="isolate">
      <path d="m1401.296,35.63h-4.359V6.731l-8.742,3.211v-3.938l12.422-4.664h.68v34.289Z" fill="#c9d1d9"/>
      <path d="m1414.304,42.427l-2.461-1.688c1.469-2.047,2.234-4.156,2.297-6.328v-3.914h4.242v3.398c0,1.578-.387,3.156-1.16,4.734s-1.746,2.844-2.918,3.797Z" fill="#c9d1d9"/>
      <path d="m1444.819,21.075c0,5.078-.867,8.852-2.602,11.32s-4.445,3.703-8.133,3.703c-3.641,0-6.336-1.207-8.086-3.621s-2.656-6.02-2.719-10.816v-5.789c0-5.016.867-8.742,2.602-11.18s4.453-3.656,8.156-3.656c3.672,0,6.375,1.176,8.109,3.527s2.625,5.98,2.672,10.887v5.625Zm-4.336-5.93c0-3.672-.516-6.348-1.547-8.027s-2.664-2.52-4.898-2.52c-2.219,0-3.836.836-4.852,2.508s-1.539,4.242-1.57,7.711v6.938c0,3.688.535,6.41,1.605,8.168s2.691,2.637,4.863,2.637c2.141,0,3.73-.828,4.77-2.484s1.582-4.266,1.629-7.828v-7.102Z" fill="#c9d1d9"/>
    </g>
  </g>
  <line x1="1458.27" y1="597.6" x2="1458.27" y2="21.6" fill="none" stroke="#c9d1d9" stroke-miterlimit="10" stroke-width="2"/>
  <g>
    <line x1="1458.27" y1="597.6" x2="1479.87" y2="597.6" fill="none" stroke="#c9d1d9" stroke-miterlimit="10" stroke-width="2"/>
    <line x1="1458.27" y1="568.8" x2="1479.87" y2="568.8" fill="none" stroke="#c9d1d9" stroke-miterlimit="10" stroke-width="2"/>
    <line x1="1458.27" y1="540" x2="1479.87" y2="540" fill="none" stroke="#c9d1d9" stroke-miterlimit="10" stroke-width="2"/>
    <line x1="1458.27" y1="511.2" x2="1479.87" y2="511.2" fill="none" stroke="#c9d1d9" stroke-miterlimit="10" stroke-width="2"/>
    <line x1="1458.27" y1="482.4" x2="1479.87" y2="482.4" fill="none" stroke="#c9d1d9" stroke-miterlimit="10" stroke-width="2"/>
    <line x1="1458.27" y1="453.6" x2="1479.87" y2="453.6" fill="none" stroke="#c9d1d9" stroke-miterlimit="10" stroke-width="2"/>
    <line x1="1458.27" y1="424.8" x2="1479.87" y2="424.8" fill="none" stroke="#c9d1d9" stroke-miterlimit="10" stroke-width="2"/>
    <line x1="1458.27" y1="396" x2="1479.87" y2="396" fill="none" stroke="#c9d1d9" stroke-miterlimit="10" stroke-width="2"/>
    <line x1="1458.27" y1="367.2" x2="1479.87" y2="367.2" fill="none" stroke="#c9d1d9" stroke-miterlimit="10" stroke-width="2"/>
    <line x1="1458.27" y1="338.4" x2="1479.87" y2="338.4" fill="none" stroke="#c9d1d9" stroke-miterlimit="10" stroke-width="2"/>
    <line x1="1458.27" y1="309.6" x2="1479.87" y2="309.6" fill="none" stroke="#c9d1d9" stroke-miterlimit="10" stroke-width="2"/>
    <line x1="1458.27" y1="280.8" x2="1479.87" y2="280.8" fill="none" stroke="#c9d1d9" stroke-miterlimit="10" stroke-width="2"/>
    <line x1="1458.27" y1="252" x2="1479.87" y2="252" fill="none" stroke="#c9d1d9" stroke-miterlimit="10" stroke-width="2"/>
    <line x1="1458.27" y1="223.2" x2="1479.87" y2="223.2" fill="none" stroke="#c9d1d9" stroke-miterlimit="10" stroke-width="2"/>
    <line x1="1458.27" y1="194.4" x2="1479.87" y2="194.4" fill="none" stroke="#c9d1d9" stroke-miterlimit="10" stroke-width="2"/>
    <line x1="1458.27" y1="165.6" x2="1479.87" y2="165.6" fill="none" stroke="#c9d1d9" stroke-miterlimit="10" stroke-width="2"/>
    <line x1="1458.27" y1="136.8" x2="1479.87" y2="136.8" fill="none" stroke="#c9d1d9" stroke-miterlimit="10" stroke-width="2"/>
    <line x1="1458.27" y1="108" x2="1479.87" y2="108" fill="none" stroke="#c9d1d9" stroke-miterlimit="10" stroke-width="2"/>
    <line x1="1458.27" y1="79.2" x2="1479.87" y2="79.2" fill="none" stroke="#c9d1d9" stroke-miterlimit="10" stroke-width="2"/>
    <line x1="1458.27" y1="50.4" x2="1479.87" y2="50.4" fill="none" stroke="#c9d1d9" stroke-miterlimit="10" stroke-width="2"/>
    <line x1="1458.27" y1="21.6" x2="1479.87" y2="21.6" fill="none" stroke="#c9d1d9" stroke-miterlimit="10" stroke-width="2"/>
  </g>
  <line x1="1458" y1="309.6" x2="2678.4" y2="309.6" fill="none" stroke="#c9d1d9" stroke-miterlimit="10"/>
  <line x1="90" y1="309.6" x2="1310.4" y2="309.6" fill="none" stroke="#c9d1d9" stroke-miterlimit="10"/>
  <path d="m2646.041,300.99c-.17.88-.49,2.56-.49,2.56l-.56,3.07-.59,3.06-.59,3.06-.56,3.04-.59,3.04-.56,3.04-.59,3.03-.59,3.02-.56,3.02-.59,3-.56,3.01-.59,2.99-.59,2.98-.56,2.98-.59,2.97-.56,2.96-.59,2.93-.59,2.93-.56,2.91-.59,2.91-.56,2.88-.59,2.88-.59,2.85-.56,2.83-.59,2.82-.56,2.8-.59,2.79-.59,2.75-.56,2.73-.59,2.71-.56,2.69-.59,2.65-.59,2.63-.56,2.6-.59,2.57-.56,2.53-.59,2.5-.59,2.46-.56,2.42-.59,2.38-.56,2.33-.59,2.29-.59,2.24-.56,2.19-.59,2.13-.56,2.07-.59,2.01-.59,1.95-.56,1.87-.59,1.81-.56,1.74-.59,1.65-.59,1.57-.56,1.49-.59,1.39-.56,1.29-.59,1.19-.59,1.08-.56.98-.59.86-.56.74-.59.61-.59.47-.56.33-.59.18-.56.03-.59-.13-.59-.3-.56-.48-.59-.66-.56-.86-.59-1.06-.59-1.27-.56-1.48-.59-1.71-.56-1.95-.59-2.2-.59-2.44-.56-2.71-.59-2.98-.56-3.26-.59-3.56-.59-3.85-.56-4.16-.59-4.47-.56-4.8-.59-5.14-.59-5.46-.56-5.82-.59-6.17-.56-6.54-.59-6.89-.59-7.26-.56-7.62-.59-7.98-.56-8.34-.59-8.71-.59-9.07-.56-9.4-.59-9.72-.56-10.05-.59-10.34-.59-10.61-.56-10.84-.59-11.05-.56-11.21-.59-11.32-.59-11.39-.56-11.38-.59-11.31-.56-11.13-.59-10.88-.59-10.51-.56-10.04-.59-9.39-.56-8.62-.59-7.66-.59-6.52-.56-5.15-.59-3.55-.56-1.68-.59.51-.59,2.4-.56,3.1-.59,3.13-.56,3.13-.59,3.14-.59,3.14-.56,3.13-.59,3.14-.56,3.14-.59,3.13-.59,3.14-.56,3.14-.59,3.13-.56,3.14-.59,3.13-.59,3.14-.56,3.13-.59,3.14-.56,3.13-.59,3.13-.59,3.14-.56,3.13-.59,3.13-.56,3.14-.59,3.13-.59,3.13-.56,3.13-.59,3.13-.56,3.13-.59,3.13-.59,3.13-.56,3.13-.59,3.13-.56,3.12-.59,3.13-.59,3.12-.56,3.13-.59,3.12-.56,3.12-.59,3.13-.59,3.11-.56,3.12-.59,3.12-.56,3.12-.59,3.11-.59,3.12-.56,3.11-.59,3.11-.56,3.11-.59,3.11-.59,3.1-.56,3.1-.59,3.11-.56,3.09-.59,3.1-.59,3.09-.56,3.09-.59,3.09-.56,3.08-.59,3.08-.59,3.08-.56,3.07-.59,3.07-.56,3.06-.59,3.06-.59,3.06-.56,3.04-.59,3.03-.56,3.03-.59,3.02-.59,3.02-.56,3-.59,3-.56,3-.59,2.98-.59,2.98-.56,2.97-.59,2.94-.56,2.94-.59,2.92-.59,2.92-.56,2.9-.59,2.89-.56,2.87-.59,2.85-.59,2.83-.56,2.82-.59,2.8-.56,2.78-.59,2.75-.59,2.74-.56,2.7-.59,2.69-.56,2.65-.59,2.63-.59,2.6-.56,2.56-.59,2.53-.56,2.49-.59,2.45-.59,2.42-.56,2.38-.59,2.33-.56,2.29-.59,2.23-.59,2.19-.56,2.13-.59,2.06-.56,2.01-.59,1.94-.59,1.87-.56,1.81-.59,1.73-.56,1.65-.59,1.56-.59,1.48-.56,1.38-.59,1.29-.56,1.19-.59,1.07-.59.97-.56.86-.59.72-.56.6-.59.46-.59.32-.56.18h-.59l-.56-.13-.59-.31-.59-.49-.56-.68-.59-.87-.56-1.07-.59-1.28-.59-1.49-.56-1.73-.59-1.96-.56-2.21-.59-2.46-.59-2.72-.56-3-.59-3.29-.56-3.57-.59-3.87-.59-4.18-.56-4.49-.59-4.82-.56-5.16-.59-5.5-.59-5.83-.56-6.2-.59-6.56-.56-6.91-.59-7.28-.59-7.64-.56-8.02-.59-8.38-.56-8.73-.59-9.08-.59-9.42-.56-9.76-.59-10.06-.56-10.36-.59-10.63-.59-10.85-.56-11.06-.59-11.22-.56-11.33-.59-11.39-.59-11.39-.56-11.29-.59-11.13-.56-10.86-.59-10.48-.59-9.99-.56-9.35-.59-8.56-.56-7.59-.59-6.43-.59-5.06-.56-3.42-.59-1.55-.56.67-.59,2.49-.59,3.14-.56,3.14-.59,3.13-.56,3.14-.59,3.14-.59,3.13-.56,3.14-.59,3.14-.56,3.13-.59,3.14-.59,3.13-.56,3.14-.59,3.13-.56,3.14-.59,3.14-.59,3.13-.56,3.14-.59,3.13-.56,3.13-.59,3.14-.59,3.13-.56,3.13-.59,3.14-.56,3.13-.59,3.13-.59,3.13-.56,3.13-.59,3.13-.56,3.13-.59,3.13-.59,3.13-.56,3.12-.59,3.13-.56,3.12-.59,3.13-.59,3.13-.56,3.12-.59,3.12-.56,3.12-.59,3.12-.59,3.12-.56,3.12-.59,3.12-.56,3.11-.59,3.12-.59,3.11-.56,3.11-.59,3.11-.56,3.1-.59,3.11-.59,3.1-.56,3.1-.59,3.1-.56,3.1-.59,3.09-.59,3.09-.56,3.08-.59,3.09-.56,3.08-.59,3.07-.59,3.08-.56,3.06-.59,3.07-.56,3.06-.59,3.04-.59,3.04-.56,3.03-.59,3.03-.56,3.03-.59,3.01-.59,3.01-.56,3-.59,2.99-.56,2.98-.59,2.98-.59,2.96-.56,2.96-.59,2.94-.56,2.92-.59,2.91-.59,2.91-.56,2.88-.59,2.88-.56,2.84-.59,2.84-.59,2.81-.56,2.8-.59,2.78-.56,2.75-.59,2.73-.59,2.71-.56,2.68-.59,2.65-.56,2.63-.59,2.6-.59,2.55-.56,2.53-.59,2.5-.56,2.45-.59,2.41-.59,2.38-.56,2.32-.59,2.29-.56,2.23-.59,2.17-.59,2.13-.56,2.06-.59,2.01-.56,1.94-.59,1.86-.59,1.8-.56,1.73-.59,1.65-.56,1.56-.59,1.46-.59,1.38-.56,1.29-.59,1.18-.56,1.07-.59.96-.59.85-.56.72-.59.59-.56.46-.59.3-.59.17h-.56l-.59-.14-.56-.32-.59-.5-.59-.69-.56-.88-.59-1.08-.56-1.29-.59-1.52-.59-1.74-.56-1.99-.59-2.22-.56-2.48-.59-2.74-.59-3.01-.56-3.3-.59-3.59-.56-3.89-.59-4.19-.59-4.52-.56-4.84-.59-5.17-.56-5.52-.59-5.87-.59-6.22-.56-6.57-.59-6.95-.56-7.29-.59-7.67-.59-8.03-.56-8.4-.59-8.75-.56-9.1-.59-9.45-.59-9.77-.56-10.08-.59-10.38-.56-10.64-.59-10.86-.59-11.07-.56-11.23-.59-11.34-.56-11.39-.59-11.38-.59-11.29-.56-11.11-.59-10.84-.56-10.46-.59-9.95-.59-9.31-.56-8.51-.59-7.54-.56-6.36-.59-4.96-.59-3.32-.56-1.42-.59.78-.56,2.56-.59,3.16-.59,3.13-.56,3.14-.59,3.14-.56,3.14-.59,3.13-.59,3.14-.56,3.14-.59,3.13-.56,3.14-.59,3.13-.59,3.14-.56,3.13-.59,3.14-.56,3.13-.59,3.14-.59,3.13-.56,3.14-.59,3.13-.56,3.13-.59,3.14-.59,3.13-.56,3.13-.59,3.14-.56,3.13-.59,3.13-.59,3.13-.56,3.13-.59,3.13-.56,3.12-.59,3.13-.59,3.13-.56,3.13-.59,3.12-.56,3.13-.59,3.12-.59,3.13-.56,3.12-.59,3.12-.56,3.12-.59,3.12-.59,3.12-.56,3.12-.59,3.11-.56,3.11-.59,3.12-.59,3.11-.56,3.1-.59,3.11-.56,3.1-.59,3.11-.59,3.1-.56,3.1-.59,3.09-.56,3.09-.59,3.09-.59,3.09-.56,3.08-.59,3.08-.56,3.08-.59,3.07-.59,3.07-.56,3.06-.59,3.06-.56,3.04-.59,3.04-.59,3.04-.56,3.03-.59,3.02-.56,3.01-.59,3.01-.59,3-.56,2.99-.59,2.98-.56,2.98-.59,2.96-.59,2.96-.56,2.93-.59,2.93-.56,2.91-.59,2.9-.59,2.88-.56,2.88-.59,2.84-.56,2.84-.59,2.81-.59,2.8-.56,2.78-.59,2.75-.56,2.72-.59,2.71-.59,2.68-.56,2.65-.59,2.62-.56,2.6-.59,2.55-.59,2.53-.56,2.49-.59,2.45-.56,2.41-.59,2.38-.59,2.32-.56,2.28-.59,2.23-.56,2.17-.59,2.12-.59,2.06-.56,2-.59,1.93-.56,1.87-.59,1.8-.59,1.72-.56,1.64-.59,1.55-.56,1.47-.59,1.37-.59,1.27-.56,1.18-.59,1.06-.56.96-.59.84-.59.71-.56.58-.59.45-.56.3-.59.16h-.59l-.56-.17-.59-.33-.56-.52-.59-.7-.59-.89-.56-1.09-.59-1.32-.56-1.53-.59-1.76-.59-1.99-.56-2.24-.59-2.5-.56-2.77-.59-3.03-.59-3.32-.56-3.6-.59-3.91-.56-4.22-.59-4.54-.59-4.87-.56-5.2-.59-5.54-.56-5.89-.59-6.25-.59-6.59-.56-6.97-.59-7.33-.56-7.7-.59-8.05-.59-8.43-.56-8.77-.59-9.13-.56-9.47-.59-9.79-.59-10.1-.56-10.39-.59-10.65-.56-10.9-.59-11.07-.59-11.24-.56-11.34-.59-11.39-.56-11.36-.59-11.27-.59-11.1-.56-10.82-.59-10.43-.56-9.9-.59-9.26-.59-8.44-.56-7.46-.59-6.26-.56-4.86-.59-3.19-.59-1.28-.56.91-.59,2.63-.56,3.16-.59,3.13-.59,3.14-.56,3.14-.59,3.14-.56,3.13-.59,3.14-.59,3.14-.56,3.13-.59,3.14-.56,3.13-.59,3.14-.59,3.13-.56,3.14-.59,3.13-.56,3.14-.59,3.13-.59,3.14-.56,3.13-.59,3.13-.56,3.14-.59,3.13-.59,3.13-.56,3.13-.59,3.14-.56,3.13-.59,3.13-.59,3.13-.56,3.13-.59,3.12-.56,3.13-.59,3.13-.59,3.13-.56,3.12-.59,3.13-.56,3.12-.59,3.13-.59,3.12-.56,3.12-.59,3.12-.56,3.12-.59,3.12-.59,3.11-.56,3.12-.59,3.11-.56,3.11-.59,3.11-.59,3.11-.56,3.11-.59,3.1-.56,3.11-.59,3.1-.59,3.09-.56,3.1-.59,3.09-.56,3.09-.59,3.08-.59,3.09-.56,3.08-.59,3.07-.56,3.07-.59,3.07-.59,3.07-.56,3.06-.59,3.04-.56,3.04-.59,3.03-.59,3.03-.56,3.02-.59,3.01-.56,3.01-.59,3-.59,2.99-.56,2.98-.59,2.98-.56,2.96-.59,2.96-.59,2.93-.56,2.92-.59,2.91-.56,2.9-.59,2.89-.59,2.87-.56,2.84-.59,2.83-.56,2.82-.59,2.79-.59,2.78-.56,2.75-.59,2.72-.56,2.71-.59,2.68-.59,2.65-.56,2.62-.59,2.59-.56,2.55-.59,2.53-.59,2.49-.56,2.44-.59,2.41-.56,2.38-.59,2.32-.59,2.28-.56,2.22-.59,2.17-.56,2.11-.59,2.06-.59,2-.56,1.93-.59,1.86-.56,1.78-.59,1.72-.59,1.63-.56,1.55-.59,1.46-.56,1.37-.59,1.26-.59,1.17-.56,1.06-.59.95-.56.83-.59.7-.59.58-.56.43-.59.29-.56.14h-.59l-.59-.19-.56-.36-.59-.52-.56-.71-.59-.91-.59-1.12-.56-1.32-.59-1.55-.56-1.77-.59-2.01-.59-2.26-.56-2.51-.59-2.78-.56-3.06-.59-3.35-.59-3.62-.56-3.93-.59-4.25-.56-4.56-.59-4.88-.59-5.23-.56-5.56-.59-5.91-.56-6.27-.59-6.62-.59-6.98-.56-7.36-.59-7.72-.56-8.07-.59-8.45-.59-8.8-.56-9.16-.59-9.49-.56-9.81-.59-10.12-.59-10.42-.56-10.67-.59-10.9-.56-11.1-.59-11.24-.59-11.35-.56-11.39-.59-11.36-.56-11.26-.59-11.07-.59-10.78-.56-10.39-.59-9.87-.56-9.2-.59-8.38-.59-7.38-.56-6.17-.59-4.74-.56-3.08-.59-1.14-.59,1.04-.56,2.69-.59,3.17-.56,3.13-.59,3.14-.59,3.14-.56,3.14-.59,3.13-.56,3.14-.59,3.13-.59,3.14-.56,3.14-.59,3.13-.56,3.14-.59,3.13-.59,3.14-.56,3.13-.59,3.14-.56,3.13-.59,3.13-.59,3.14-.56,3.13-.59,3.14-.56,3.13-.59,3.13-.59,3.13-.56,3.13-.59,3.14-.56,3.13-.59,3.12-.59,3.14-.56,3.12-.59,3.13-.56,3.13-.59,3.12-.59,3.13-.56,3.13-.59,3.12-.56,3.12-.59,3.13-.59,3.12-.56,3.12-.59,3.12-.56,3.11-.59,3.12-.59,3.11-.56,3.12-.59,3.11-.56,3.11-.59,3.11-.59,3.11-.56,3.1-.59,3.1-.56,3.1-.59,3.1-.59,3.09-.56,3.09-.59,3.1-.56,3.08-.59,3.08-.59,3.08-.56,3.08-.59,3.07-.56,3.07-.59,3.06-.59,3.06-.56,3.04-.59,3.04-.56,3.03-.59,3.03-.59,3.02-.56,3.01-.59,3.01-.56,3-.59,2.99-.59,2.98-.56,2.97-.59,2.97-.56,2.94-.59,2.94-.59,2.92-.56,2.91-.59,2.9-.56,2.88-.59,2.87-.59,2.85-.56,2.83-.59,2.81-.56,2.79-.59,2.78-.59,2.75-.56,2.72-.59,2.7-.56,2.69-.59,2.64-.59,2.62-.56,2.59-.59,2.55-.56,2.52-.59,2.49-.59,2.44-.56,2.41-.59,2.36-.56,2.32-.59,2.28-.59,2.22-.56,2.16-.59,2.11-.56,2.05-.59,2-.59,1.93-.56,1.85-.59,1.78-.56,1.71-.59,1.63-.59,1.54-.56,1.46-.59,1.36-.56,1.26-.59,1.16-.59,1.06-.56.94-.59.81-.56.7-.59.56-.59.43-.56.28-.59.13-.56-.02-.59-.19-.59-.37-.56-.54-.59-.72-.56-.93-.59-1.13-.59-1.34-.56-1.56-.59-1.78-.56-2.03-.59-2.28-.59-2.52-.56-2.8-.59-3.08-.56-3.36-.59-3.65-.59-3.95-.56-4.27-.59-4.57-.56-4.92-.59-5.24-.59-5.59-.56-5.93-.59-6.29-.56-6.65-.59-7.01-.59-7.37-.56-7.74-.59-8.11-.56-8.46-.59-8.83-.59-9.17-.56-9.51-.59-9.84-.56-10.14-.59-10.43-.59-10.68-.56-10.92-.59-11.11-.56-11.25-.59-11.34-.59-11.39-.56-11.36-.59-11.25-.56-11.05-.59-10.77-.59-10.36-.56-9.83-.59-9.16-.56-8.32-.59-7.29-.59-6.09-.56-4.64-.59-2.96-.56-1-.59,1.16-.59,2.73-.56,3.17-.59,3.13-.56,3.14-.59,3.14-.59,3.13-.56,3.14-.59,3.14-.56,3.13-.59,3.14-.59,3.13-.56,3.14-.59,3.14-.56,3.13-.59,3.14-.59,3.13-.56,3.14-.59,3.13-.56,3.13-.59,3.14-.59,3.13-.56,3.13-.59,3.14-.56,3.13-.59,3.13-.59,3.13-.56,3.13-.59,3.13-.56,3.13-.59,3.13-.59,3.13-.56,3.13-.59,3.13-.56,3.12-.59,3.13-.59,3.12-.56,3.13-.59,3.12-.56,3.12-.59,3.13-.59,3.12-.56,3.11-.59,3.12-.56,3.12-.59,3.11-.59,3.12-.56,3.11-.59,3.11-.56,3.11-.59,3.1-.59,3.11-.56,3.1-.59,3.1-.56,3.1-.59,3.09-.59,3.09-.56,3.09-.59,3.09-.56,3.08-.59,3.08-.59,3.07-.56,3.08-.59,3.06-.56,3.07-.59,3.06-.59,3.04-.56,3.04-.59,3.03-.56,3.02-.59,3.02-.59,3.02-.56,3-.59,3-.56,2.99-.59,2.98-.59,2.98-.56,2.96-.59,2.94-.56,2.94-.59,2.92-.59,2.91-.56,2.89-.59,2.89-.56,2.87-.59,2.84-.59,2.83-.56,2.81-.59,2.8-.56,2.77-.59,2.75-.59,2.72-.56,2.71-.59,2.67-.56,2.65-.59,2.61-.59,2.6-.56,2.55-.59,2.51-.56,2.49-.59,2.44-.59,2.41-.56,2.36-.59,2.31-.56,2.28-.59,2.22-.59,2.16-.56,2.11-.59,2.05-.56,1.99-.59,1.92-.59,1.86-.56,1.77-.59,1.71-.56,1.63-.59,1.54-.59,1.45-.56,1.35-.59,1.26-.56,1.16-.59,1.05-.59.94-.56.81-.59.68-.56.57-.59.41-.59.28-.56.12-.59-.03-.56-.19-.59-.37-.59-.55-.56-.74-.59-.94-.56-1.13-.59-1.35-.59-1.57-.56-1.8-.59-2.04-.56-2.29-.59-2.54-.59-2.81-.56-3.08-.59-3.37-.56-3.67-.59-3.96-.59-4.28-.56-4.59-.59-4.93-.56-5.25-.59-5.6-.59-5.96-.56-6.3-.59-6.67-.56-7.03-.59-7.39-.59-7.76-.56-8.12-.59-8.49-.56-8.83-.59-9.19-.59-9.52-.56-9.85-.59-10.16-.56-10.44-.59-10.69-.59-10.92-.56-11.11-.59-11.26-.56-11.34-.59-11.39-.59-11.35-.56-11.25-.59-11.04-.56-10.75-.59-10.33-.59-9.8-.56-9.11-.59-8.27-.56-7.25-.59-6.02-.59-4.56-.56-2.87-.59-.91-.56,1.24-.59,2.74-.59,3.16-.56,3.13-.59,3.14-.56,3.14-.59,3.13-.59,3.14-.56,3.14-.59,3.13-.56,3.14-.59,3.13-.59,3.14-.56,3.14-.59,3.13-.56,3.13-.59,3.14-.59,3.13-.56,3.14-.59,3.13-.56,3.14-.59,3.13-.59,3.13-.56,3.13-.59,3.14-.56,3.13-.59,3.13-.59,3.13-.56,3.13-.59,3.13-.56,3.13-.59,3.13-.59,3.13-.56,3.12-.59,3.13-.56,3.13-.59,3.12-.59,3.13-.56,3.12-.59,3.12-.56,3.12-.59,3.12-.59,3.12-.56,3.12-.59,3.12-.56,3.11-.59,3.11-.59,3.12-.56,3.11-.59,3.1-.56,3.11-.59,3.11-.59,3.1-.56,3.1-.59,3.09-.56,3.1-.59,3.09-.59,3.09-.56,3.08-.59,3.09-.56,3.08-.59,3.07-.59,3.07-.56,3.07-.59,3.06-.56,3.06-.59,3.04-.59,3.04-.56,3.03-.59,3.03-.56,3.02-.59,3.01-.59,3.01-.56,2.99-.59,2.99-.56,2.98-.59,2.98-.59,2.96-.56,2.94-.59,2.94-.56,2.92-.59,2.91-.59,2.89-.56,2.89-.59,2.85-.56,2.85-.59,2.83-.59,2.81-.56,2.79-.59,2.77-.56,2.75-.59,2.72-.59,2.7-.56,2.68-.59,2.64-.56,2.62-.59,2.59-.59,2.55-.56,2.52-.59,2.48-.56,2.44-.59,2.41-.59,2.35-.56,2.32-.59,2.26-.56,2.22-.59,2.15-.59,2.11-.56,2.05-.59,1.99-.56,1.92-.59,1.85-.59,1.77-.56,1.71-.59,1.62-.56,1.54-.59,1.44-.59,1.36-.56,1.25-.59,1.15-.56,1.05-.59.93-.59.8-.56.69-.59.55-.56.41-.59.28-.59.11-.56-.03-.59-.2-.56-.38-.59-.56-.59-.75-.56-.94-.59-1.15-.56-1.36-.59-1.57-.59-1.82-.56-2.04-.59-2.31-.56-2.54-.59-2.83-.59-3.09-.56-3.39-.59-3.67-.56-3.98-.59-4.29-.59-4.61-.56-4.94-.59-5.27-.56-5.62-.59-5.97-.59-6.32-.56-6.68-.59-7.05-.56-7.41-.59-7.77-.59-8.14-.56-8.5-.59-8.85-.56-9.2-.59-9.54-.59-9.87-.56-10.16-.59-10.45-.56-10.72-.59-10.93-.59-11.11-.56-11.26-.59-11.35-.56-11.39-.59-11.34-.59-11.24-.56-11.03-.59-10.73-.56-10.32-.59-9.77-.59-9.07-.56-8.23-.59-7.19-.56-5.94-.59-4.49-.59-2.78-.56-.8-.59,1.32-.56,2.75-.59,3.14-.59,3.13-.56,3.14-.59,3.13-.56,3.14-.59,3.14-.59,3.14-.56,3.13-.59,3.14-.56,3.13-.59,3.14-.59,3.13-.56,3.14-.59,3.13-.56,3.14-.59,3.13-.59,3.14-.56,3.13-.59,3.14-.56,3.13-.59,3.13-.59,3.13-.56,3.14-.59,3.13-.56,3.13-.59,3.13-.59,3.13-.56,3.13-.59,3.13-.56,3.13-.59,3.13-.59,3.12-.56,3.13-.59,3.13-.56,3.12-.59,3.12-.59,3.13-.56,3.12-.59,3.12-.56,3.12-.59,3.12-.59,3.12-.56,3.12-.59,3.11-.56,3.11-.59,3.11-.59,3.11-.56,3.11-.59,3.11-.56,3.1-.59,3.1-.59,3.1-.56,3.1-.59,3.09-.56,3.1-.59,3.08-.59,3.09-.56,3.08-.59,3.08-.56,3.08-.59,3.07-.59,3.06-.56,3.07-.59,3.04-.56,3.06-.59,3.04-.59,3.03-.56,3.02-.59,3.02-.56,3.01-.59,3.01-.59,3-.56,2.99-.59,2.98-.56,2.97-.59,2.96-.59,2.96-.56,2.93-.59,2.92-.56,2.9-.59,2.9-.59,2.88-.56,2.87-.59,2.84-.56,2.83-.59,2.81-.59,2.79-.56,2.78-.59,2.74-.56,2.72-.59,2.7-.59,2.68-.56,2.64-.59,2.62-.56,2.58-.59,2.55-.59,2.52-.56,2.48-.59,2.44-.56,2.4-.59,2.36-.59,2.31-.56,2.26-.59,2.21-.56,2.16-.59,2.11-.59,2.04-.56,1.99-.59,1.92-.56,1.84-.59,1.77-.59,1.7-.56,1.62-.59,1.53-.56,1.45-.59,1.35-.59,1.25-.56,1.15-.59,1.03-.56.93-.59.8-.59.68-.56.55-.59.4-.56.27-.59.11-.59-.04-.56-.21-.59-.39-.56-.57-.59-.75-.59-.95-.56-1.16-.59-1.37-.56-1.58-.59-1.83-.59-2.05-.56-2.31-.59-2.58-.56-2.83-.59-3.11-.59-3.39-.56-3.69-.59-3.99-.56-4.3-.59-4.63-.59-4.96-.56-5.29-.59-5.63-.56-5.99-.59-6.33-.59-6.7-.56-7.06-.59-7.43-.56-7.78-.59-8.16-.59-8.51-.56-8.88-.59-9.22-.56-9.55-.59-9.88-.59-10.18-.56-10.46-.59-10.72-.56-10.94-.59-11.12-.59-11.27-.56-11.35-.59-11.38-.56-11.34-.59-11.23-.59-11.02-.56-10.71-.59-10.29-.56-9.74-.59-9.03-.59-8.17-.56-7.14-.59-5.89-.56-4.41-.59-2.69-.59-.7-.56,1.41-.59,2.78-.56,3.13-.59,3.13-.59,3.14-.56,3.13-.59,3.14-.56,3.14-.59,3.14-.59,3.13-.56,3.14-.59,3.13-.56,3.14-.59,3.13-.59,3.14-.56,3.13-.59,3.14-.56,3.13-.59,3.14-.59,3.13-.56,3.13-.59,3.14-.56,3.13-.59,3.13-.59,3.14-.56,3.13-.59,3.13-.56,3.13-.59,3.13-.59,3.13-.56,3.13-.59,3.13-.56,3.13-.59,3.12-.59,3.13-.56,3.13-.59,3.12-.56,3.12-.59,3.13-.59,3.12-.56,3.12-.59,3.12-.56,3.12-.59,3.12-.59,3.11-.56,3.12-.59,3.11-.56,3.11-.59,3.11-.59,3.11-.56,3.11-.59,3.1-.56,3.1-.59,3.1-.59,3.1-.56,3.09-.59,3.09-.56,3.09-.59,3.09-.59,3.08-.56,3.08-.59,3.07-.56,3.07-.59,3.07-.59,3.06-.56,3.06-.59,3.04-.56,3.04-.59,3.03-.59,3.03-.56,3.01-.59,3.02-.56,3-.59,3-.59,2.99-.56,2.98-.59,2.97-.56,2.96-.59,2.96-.59,2.93-.56,2.92-.59,2.91-.56,2.89-.59,2.88-.59,2.87-.56,2.84-.59,2.83-.56,2.81-.59,2.79-.59,2.77-.56,2.74-.59,2.72-.56,2.7-.59,2.68-.59,2.64-.56,2.61-.59,2.59-.56,2.55-.59,2.51-.59,2.48-.56,2.44-.59,2.4-.56,2.35-.59,2.31-.59,2.26-.56,2.21-.59,2.15-.56,2.11-.59,2.04-.59,1.97-.56,1.92-.59,1.84-.56,1.77-.59,1.7-.59,1.61-.56,1.53-.59,1.44-.56,1.35-.59,1.24-.59,1.14-.56,1.04-.59.91-.56.79-.59.68-.59.54-.56.4-.59.26-.56.1-.59-.06-.59-.21-.56-.4-.59-.57-.56-.77-.59-.96-.59-1.16-.56-1.38-.59-1.61-.56-1.83-.59-2.07-.59-2.32-.56-2.58-.59-2.85-.56-3.12-.59-3.41-.59-3.7-.56-4-.59-4.33-.56-4.64-.59-4.97-.59-5.31-.56-5.65-.59-6-.56-6.36-.59-6.71-.59-7.08-.56-7.44-.59-7.81-.56-8.17-.59-8.53-.59-8.89-.56-9.23-.59-9.57-.56-9.89-.59-10.19-.59-10.48-.56-10.73-.59-10.95-.56-11.13-.59-11.26-.59-11.35-.56-11.39-.59-11.34-.56-11.21-.59-11.01-.59-10.69-.56-10.26-.59-9.7-.56-9-.59-8.13-.59-7.07-.56-5.82-.59-4.33-.56-2.6-.59-.59-.59,1.48-.56,2.81-.59,3.12-.56,3.13-.59,3.14-.59,3.13-.56,3.14-.59,3.14-.56,3.13-.59,3.14-.59,3.13-.56,3.14-.59,3.14-.56,3.13-.59,3.14-.59,3.13-.56,3.14-.59,3.13-.56,3.14-.59,3.13-.59,3.13-.56,3.14-.59,3.13-.56,3.13-.59,3.14-.59,3.13-.56,3.13-.59,3.13-.56,3.13-.59,3.13-.59,3.13-.56,3.13-.59,3.12-.56,3.13-.59,3.13-.59,3.12-.56,3.13-.59,3.12-.56,3.13-.59,3.12-.59,3.12-.56,3.12-.59,3.12-.56,3.11-.59,3.12-.59,3.11-.56,3.12-.59,3.11-.56,3.11-.59,3.11-.59,3.1-.56,3.11-.59,3.1-.56,3.1-.59,3.1-.59,3.09-.56,3.09-.59,3.09-.56,3.08-.59,3.09-.59,3.07-.56,3.08-.59,3.07-.56,3.06-.59,3.07-.59,3.04-.56,3.04-.59,3.04-.56,3.03-.59,3.03-.59,3.02-.56,3.01-.59,3-.56,3-.59,2.99-.59,2.98-.56,2.97-.59,2.96-.56,2.94-.59,2.94-.59,2.91-.56,2.91-.59,2.9-.56,2.88-.59,2.85-.59,2.85-.56,2.82-.59,2.81-.56,2.79-.59,2.77-.59,2.74-.56,2.72-.59,2.7-.56,2.67-.59,2.64-.59,2.62-.56,2.58-.59,2.54-.56,2.52-.59,2.48-.59,2.43-.56,2.4-.59,2.35-.56,2.31-.59,2.25-.59,2.21-.56,2.15-.59,2.1-.56,2.04-.59,1.97-.59,1.92-.56,1.84-.59,1.76-.56,1.68-.59,1.61-.59,1.53-.56,1.43-.59,1.34-.56,1.24-.59,1.14-.59,1.03-.56.91-.59.79-.56.66-.59.54-.59.39-.56.25-.59.09-.56-.06-.59-.23-.59-.4-.56-.59-.59-.77-.56-.97-.59-1.18-.59-1.39-.56-1.61-.59-1.85-.56-2.09-.59-2.34-.59-2.59-.56-2.87-.59-3.14-.56-3.42-.59-3.72-.59-4.03-.56-4.35-.59-4.65-.56-5-.59-5.33-.59-5.68-.56-6.02-.59-6.38-.56-6.74-.59-7.1-.59-7.47-.56-7.83-.59-8.2-.56-8.56-.59-8.91-.59-9.27-.56-9.59-.59-9.91-.56-10.23-.59-10.49-.59-10.76-.56-10.96-.59-11.16-.56-11.29-.59-11.38-.59-11.4-.56-11.35-.59-11.22-.56-11.02-.59-10.69-.59-10.26-.56-9.69-.59-8.99-.56-8.11-.59-7.05-.59-5.79-.56-4.27-.59-2.53-.56-.52-.59,1.54-.59,2.78-.56,3.08-.59,3.09-.56,3.1-.59,3.08-.59,3.09-.56,3.08-.59,3.08-.56,3.08-.59,3.07-.59,3.07-.56,3.06-.59,3.06-.56,3.06-.59,3.04-.59,3.03-.56,3.03-.59,3.02-.56,3.02-.59,3.01-.59,3.01-.56,2.99-.59,2.99-.56,2.98-.59,2.97-.59,2.97-.56,2.94-.59,2.94-.56,2.92-.59,2.91-.59,2.9-.56,2.89-.59,2.87-.56,2.85-.59,2.84-.59,2.82-.56,2.81-.59,2.78-.56,2.77-.59,2.74-.59,2.73-.56,2.7-.59,2.68-.56,2.64-.59,2.63-.59,2.6-.56,2.56-.59,2.53-.56,2.51-.59,2.48-.59,2.43-.56,2.4-.59,2.36-.56,2.32-.59,2.29-.59,2.24-.56,2.19-.59,2.14-.56,2.1-.59,2.05-.59,1.99-.56,1.94-.59,1.88-.56,1.82-.59,1.76-.59,1.71-.56,1.63-.59,1.57-.56,1.49-.59,1.43-.59,1.36-.56,1.28-.59,1.22-.56,1.13-.59,1.06-.59.98-.56.89-.59.83-.56.74-.59.67-.59.58-.56.51-.59.43-.56.37-.59.29-.59.23-.56.17-.59.12-.56.09-.59.03-.59.02h-.56" fill="none" stroke="#307eef" stroke-miterlimit="10" stroke-width="4"/>
  <path d="m1287.902,164.04c-.1.59-.18,1.05-.18,1.05l-.59,3.41-.56,3.42-.59,3.42-.56,3.42-.59,3.41-.59,3.42-.56,3.42-.59,3.42-.56,3.42-.59,3.42-.59,3.41-.56,3.42-.59,3.42-.56,3.42-.59,3.42-.59,3.42-.56,3.41-.59,3.42-.56,3.42-.59,3.42-.59,3.41-.56,3.42-.59,3.42-.56,3.42-.59,3.42-.59,3.42-.56,3.41-.59,3.42-.56,3.42-.59,3.42-.59,3.41-.56,3.42-.59,3.42-.56,3.42-.59,3.42-.59,3.42-.56,3.41-.59,3.42-.56,3.42-.59,3.42-.59,3.42-.56,3.42-.59,3.41-.56,3.42-.59,3.42-.59,3.42-.56,3.41-.59,3.42-.56,3.42-.59,3.42-.59,3.42-.56,3.42-.59,3.41-.56,3.42-.59,3.42-.59,3.42-.56,3.42-.59,3.41-.56,3.42-.59,3.42-.59,3.42-.56,3.42-.59,3.41-.56,3.42-.59,3.42-.59,3.42-.56,3.42-.59,3.42-.56,3.41-.59,3.42-.59,3.42-.56,3.42-.59,3.41-.56,3.42-.59,3.42-.59,3.42-.56,3.42-.59,3.42-.56,3.41-.59,3.42-.59,3.42-.56,3.42-.59,3.42-.56,3.41-.59,3.42-.59,3.42-.56,3.42-.59,3.42-.56,3.41-.59,3.42-.59,3.42-.56,3.42-.59,3.42-.56,3.41-.59,3.42-.59,3.42-.56,3.42-.59,3.42-.56,3.41-.59,3.42-.59,3.42-.56,3.42-.59,3.42-.56,3.42-.59,3.41-.59,3.42-.56,3.42-.59,3.42-.56,3.42-.59,3.41-.59,3.42-.56,3.42-.59,3.42-.56,3.42-.59,3.41-.59,3.42-.56,3.42-.59,3.42-.56,3.42-.59,3.41-.59,3.42-.56,3.42-.59,3.42-.56,3.42-.59,3.42-.59,3.41-.56,3.42-.59,3.42-.56-574.71-.59,3.42-.59,3.41-.56,3.42-.59,3.42-.56,3.42-.59,3.42-.59,3.41-.56,3.42-.59,3.42-.56,3.42-.59,3.42-.59,3.41-.56,3.42-.59,3.42-.56,3.42-.59,3.42-.59,3.41-.56,3.42-.59,3.42-.56,3.42-.59,3.42-.59,3.42-.56,3.41-.59,3.42-.56,3.42-.59,3.42-.59,3.41-.56,3.42-.59,3.42-.56,3.42-.59,3.42-.59,3.42-.56,3.41-.59,3.42-.56,3.42-.59,3.42-.59,3.42-.56,3.41-.59,3.42-.56,3.42-.59,3.42-.59,3.42-.56,3.41-.59,3.42-.56,3.42-.59,3.42-.59,3.42-.56,3.42-.59,3.41-.56,3.42-.59,3.42-.59,3.42-.56,3.41-.59,3.42-.56,3.42-.59,3.42-.59,3.42-.56,3.42-.59,3.41-.56,3.42-.59,3.42-.59,3.42-.56,3.42-.59,3.42-.56,3.41-.59,3.42-.59,3.42-.56,3.42-.59,3.41-.56,3.42-.59,3.42-.59,3.42-.56,3.42-.59,3.42-.56,3.41-.59,3.42-.59,3.42-.56,3.42-.59,3.41-.56,3.42-.59,3.42-.59,3.42-.56,3.42-.59,3.42-.56,3.41-.59,3.42-.59,3.42-.56,3.42-.59,3.42-.56,3.42-.59,3.41-.59,3.42-.56,3.42-.59,3.42-.56,3.41-.59,3.42-.59,3.42-.56,3.42-.59,3.42-.56,3.42-.59,3.41-.59,3.42-.56,3.42-.59,3.42-.56,3.41-.59,3.43-.59,3.41-.56,3.42-.59,3.42-.56,3.42-.59,3.41-.59,3.42-.56,3.42-.59,3.42-.56,3.42-.59,3.42-.59,3.41-.56,3.42-.59,3.42-.56,3.42-.59,3.41-.59,3.42-.56,3.42-.59,3.42-.56,3.42-.59,3.42-.59,3.41-.56,3.42-.59,3.42-.56,3.42-.59,3.42-.59,3.42-.56,3.41-.59,3.42-.56,3.42-.59,3.42-.59,3.41-.56,3.42-.59,3.42-.56,3.42-.59,3.42-.59,3.42-.56,3.41-.59,3.42-.56,3.42-.59,3.42-.59,3.41-.56,3.42-.59,3.42-.56,3.42-.59,3.42-.59,3.42-.56,3.41-.59,3.42-.56,3.42-.59,3.42-.59,3.42-.56,3.42-.59,3.41-.56,3.42-.59,3.42-.59,3.42-.56,3.41-.59,3.42-.56,3.42-.59,3.42-.59,3.42-.56,3.42-.59-574.72-.56,3.42-.59,3.42-.59,3.42-.56,3.42-.59,3.41-.56,3.42-.59,3.42-.59,3.42-.56,3.42-.59,3.41-.56,3.42-.59,3.42-.59,3.42-.56,3.42-.59,3.42-.56,3.41-.59,3.42-.59,3.42-.56,3.42-.59,3.41-.56,3.42-.59,3.42-.59,3.42-.56,3.42-.59,3.42-.56,3.41-.59,3.42-.59,3.42-.56,3.42-.59,3.42-.56,3.41-.59,3.42-.59,3.42-.56,3.42-.59,3.42-.56,3.41-.59,3.42-.59,3.42-.56,3.42-.59,3.42-.56,3.41-.59,3.42-.59,3.42-.56,3.42-.59,3.42-.56,3.41-.59,3.42-.59,3.42-.56,3.42-.59,3.42-.56,3.42-.59,3.41-.59,3.42-.56,3.42-.59,3.42-.56,3.42-.59,3.41-.59,3.42-.56,3.42-.59,3.42-.56,3.42-.59,3.41-.59,3.42-.56,3.42-.59,3.42-.56,3.42-.59,3.41-.59,3.42-.56,3.42-.59,3.42-.56,3.42-.59,3.42-.59,3.41-.56,3.42-.59,3.42-.56,3.42-.59,3.42-.59,3.41-.56,3.42-.59,3.42-.56,3.42-.59,3.42-.59,3.41-.56,3.42-.59,3.42-.56,3.42-.59,3.42-.59,3.41-.56,3.42-.59,3.42-.56,3.42-.59,3.42-.59,3.41-.56,3.42-.59,3.42-.56,3.42-.59,3.42-.59,3.42-.56,3.41-.59,3.42-.56,3.42-.59,3.42-.59,3.41-.56,3.42-.59,3.42-.56,3.42-.59,3.42-.59,3.42-.56,3.41-.59,3.42-.56,3.42-.59,3.42-.59,3.42-.56,3.41-.59,3.42-.56,3.42-.59,3.42-.59,3.42-.56,3.41-.59,3.42-.56,3.42-.59,3.42-.59,3.42-.56,3.42-.59,3.41-.56,3.42-.59,3.42-.59,3.42-.56,3.41-.59,3.42-.56,3.42-.59,3.42-.59,3.42-.56,3.42-.59,3.41-.56,3.42-.59,3.42-.59,3.42-.56,3.42-.59,3.42-.56,3.41-.59,3.42-.59,3.42-.56,3.42-.59,3.41-.56,3.42-.59,3.42-.59,3.42-.56,3.42-.59,3.42-.56,3.41-.59,3.42-.59,3.42-.56,3.42-.59,3.41-.56,3.42-.59,3.42-.59,3.42-.56,3.42-.59,3.42-.56,3.41-.59,3.42-.59,3.42-.56,3.42-.59,3.42-.56,3.42-.59,3.41-.59,3.42-.56-574.71-.59,3.42-.56,3.41-.59,3.42-.59,3.42-.56,3.42-.59,3.42-.56,3.42-.59,3.41-.59,3.42-.56,3.42-.59,3.42-.56,3.41-.59,3.43-.59,3.41-.56,3.42-.59,3.42-.56,3.42-.59,3.41-.59,3.42-.56,3.42-.59,3.42-.56,3.42-.59,3.42-.59,3.41-.56,3.42-.59,3.42-.56,3.42-.59,3.41-.59,3.42-.56,3.42-.59,3.42-.56,3.42-.59,3.42-.59,3.41-.56,3.42-.59,3.42-.56,3.42-.59,3.42-.59,3.42-.56,3.41-.59,3.42-.56,3.42-.59,3.42-.59,3.41-.56,3.42-.59,3.42-.56,3.42-.59,3.42-.59,3.42-.56,3.41-.59,3.42-.56,3.42-.59,3.42-.59,3.41-.56,3.42-.59,3.42-.56,3.42-.59,3.42-.59,3.42-.56,3.41-.59,3.42-.56,3.42-.59,3.42-.59,3.42-.56,3.42-.59,3.41-.56,3.42-.59,3.42-.59,3.42-.56,3.41-.59,3.42-.56,3.42-.59,3.42-.59,3.42-.56,3.42-.59,3.41-.56,3.42-.59,3.42-.59,3.42-.56,3.42-.59,3.41-.56,3.42-.59,3.42-.59,3.42-.56,3.42-.59,3.41-.56,3.42-.59,3.42-.59,3.42-.56,3.42-.59,3.42-.56,3.41-.59,3.42-.59,3.42-.56,3.42-.59,3.41-.56,3.42-.59,3.42-.59,3.42-.56,3.42-.59,3.42-.56,3.41-.59,3.42-.59,3.42-.56,3.42-.59,3.42-.56,3.41-.59,3.42-.59,3.42-.56,3.42-.59,3.42-.56,3.41-.59,3.42-.59,3.42-.56,3.42-.59,3.42-.56,3.41-.59,3.42-.59,3.42-.56,3.42-.59,3.42-.56,3.41-.59,3.42-.59,3.42-.56,3.42-.59,3.42-.56,3.42-.59,3.41-.59,3.42-.56,3.42-.59,3.42-.56,3.42-.59,3.41-.59,3.42-.56,3.42-.59,3.42-.56,3.42-.59,3.41-.59,3.42-.56,3.42-.59,3.42-.56,3.42-.59,3.41-.59,3.42-.56,3.42-.59,3.42-.56,3.42-.59,3.42-.59,3.41-.56,3.42-.59,3.42-.56,3.42-.59,3.42-.59,3.41-.56,3.42-.59,3.42-.56,3.42-.59,3.42-.59,3.41-.56,3.42-.59,3.42-.56,3.42-.59,3.42-.59,3.41-.56,3.42-.59,3.42-.56,3.42-.59,3.42-.59-574.72-.56,3.42-.59,3.42-.56,3.42-.59,3.42-.59,3.42-.56,3.41-.59,3.42-.56,3.42-.59,3.42-.59,3.41-.56,3.42-.59,3.42-.56,3.42-.59,3.42-.59,3.42-.56,3.41-.59,3.42-.56,3.42-.59,3.42-.59,3.42-.56,3.41-.59,3.42-.56,3.42-.59,3.42-.59,3.42-.56,3.41-.59,3.42-.56,3.42-.59,3.42-.59,3.42-.56,3.42-.59,3.41-.56,3.42-.59,3.42-.59,3.42-.56,3.41-.59,3.42-.56,3.42-.59,3.42-.59,3.42-.56,3.42-.59,3.41-.56,3.42-.59,3.42-.59,3.42-.56,3.42-.59,3.42-.56,3.41-.59,3.42-.59,3.42-.56,3.42-.59,3.41-.56,3.42-.59,3.42-.59,3.42-.56,3.42-.59,3.42-.56,3.41-.59,3.42-.59,3.42-.56,3.42-.59,3.41-.56,3.42-.59,3.42-.59,3.42-.56,3.42-.59,3.42-.56,3.41-.59,3.42-.59,3.42-.56,3.42-.59,3.42-.56,3.42-.59,3.41-.59,3.42-.56,3.42-.59,3.42-.56,3.41-.59,3.42-.59,3.42-.56,3.42-.59,3.42-.56,3.42-.59,3.41-.59,3.42-.56,3.42-.59,3.42-.56,3.41-.59,3.43-.59,3.41-.56,3.42-.59,3.42-.56,3.42-.59,3.41-.59,3.42-.56,3.42-.59,3.42-.56,3.42-.59,3.42-.59,3.41-.56,3.42-.59,3.42-.56,3.42-.59,3.41-.59,3.42-.56,3.42-.59,3.42-.56,3.42-.59,3.42-.59,3.41-.56,3.42-.59,3.42-.56,3.42-.59,3.42-.59,3.42-.56,3.41-.59,3.42-.56,3.42-.59,3.42-.59,3.41-.56,3.42-.59,3.42-.56,3.42-.59,3.42-.59,3.42-.56,3.41-.59,3.42-.56,3.42-.59,3.42-.59,3.41-.56,3.42-.59,3.42-.56,3.42-.59,3.42-.59,3.42-.56,3.41-.59,3.42-.56,3.42-.59,3.42-.59,3.42-.56,3.42-.59,3.41-.56,3.42-.59,3.42-.59,3.42-.56,3.41-.59,3.42-.56,3.42-.59,3.42-.59,3.42-.56,3.42-.59,3.41-.56,3.42-.59,3.42-.59,3.42-.56,3.42-.59,3.41-.56,3.42-.59,3.42-.59,3.42-.56,3.42-.59,3.41-.56,3.42-.59,3.42-.59,3.42-.56,3.42-.59,3.42-.56,3.41-.59-574.71-.59,3.42-.56,3.42-.59,3.41-.56,3.42-.59,3.42-.59,3.42-.56,3.42-.59,3.42-.56,3.41-.59,3.42-.59,3.42-.56,3.42-.59,3.42-.56,3.41-.59,3.42-.59,3.42-.56,3.42-.59,3.42-.56,3.41-.59,3.42-.59,3.42-.56,3.42-.59,3.42-.56,3.41-.59,3.42-.59,3.42-.56,3.42-.59,3.42-.56,3.41-.59,3.42-.59,3.42-.56,3.42-.59,3.42-.56,3.42-.59,3.41-.59,3.42-.56,3.42-.59,3.42-.56,3.42-.59,3.41-.59,3.42-.56,3.42-.59,3.42-.56,3.42-.59,3.41-.59,3.42-.56,3.42-.59,3.42-.56,3.42-.59,3.41-.59,3.42-.56,3.42-.59,3.42-.56,3.42-.59,3.42-.59,3.41-.56,3.42-.59,3.42-.56,3.42-.59,3.42-.59,3.41-.56,3.42-.59,3.42-.56,3.42-.59,3.42-.59,3.41-.56,3.42-.59,3.42-.56,3.42-.59,3.42-.59,3.41-.56,3.42-.59,3.42-.56,3.42-.59,3.42-.59,3.41-.56,3.42-.59,3.42-.56,3.42-.59,3.42-.59,3.42-.56,3.41-.59,3.42-.56,3.42-.59,3.42-.59,3.41-.56,3.42-.59,3.42-.56,3.42-.59,3.42-.59,3.42-.56,3.41-.59,3.42-.56,3.42-.59,3.42-.59,3.42-.56,3.41-.59,3.42-.56,3.42-.59,3.42-.59,3.42-.56,3.41-.59,3.42-.56,3.42-.59,3.42-.59,3.42-.56,3.42-.59,3.41-.56,3.42-.59,3.42-.59,3.42-.56,3.41-.59,3.42-.56,3.42-.59,3.42-.59,3.42-.56,3.42-.59,3.41-.56,3.42-.59,3.42-.59,3.42-.56,3.42-.59,3.42-.56,3.41-.59,3.42-.59,3.42-.56,3.42-.59,3.41-.56,3.42-.59,3.42-.59,3.42-.56,3.42-.59,3.42-.56,3.41-.59,3.42-.59,3.42-.56,3.42-.59,3.41-.56,3.42-.59,3.42-.59,3.42-.56,3.42-.59,3.42-.56,3.41-.59,3.42-.59,3.42-.56,3.42-.59,3.42-.56,3.42-.59,3.41-.59,3.42-.56,3.42-.59,3.42-.56,3.41-.59,3.42-.59,3.42-.56,3.42-.59,3.42-.56,3.42-.59,3.41-.59,3.42-.56,3.42-.59,3.42-.56,3.41-.59,3.43-.59,3.41-.56,3.42-.59,3.42-.56-574.71-.59,3.41-.59,3.42-.56,3.42-.59,3.42-.56,3.42-.59,3.42-.59,3.41-.56,3.42-.59,3.42-.56,3.42-.59,3.41-.59,3.42-.56,3.42-.59,3.42-.56,3.42-.59,3.42-.59,3.41-.56,3.42-.59,3.42-.56,3.42-.59,3.42-.59,3.42-.56,3.41-.59,3.42-.56,3.42-.59,3.42-.59,3.41-.56,3.42-.59,3.42-.56,3.42-.59,3.42-.59,3.42-.56,3.41-.59,3.42-.56,3.42-.59,3.42-.59,3.41-.56,3.42-.59,3.42-.56,3.42-.59,3.42-.59,3.42-.56,3.41-.59,3.42-.56,3.42-.59,3.42-.59,3.42-.56,3.42-.59,3.41-.56,3.42-.59,3.42-.59,3.42-.56,3.41-.59,3.42-.56,3.42-.59,3.42-.59,3.42-.56,3.42-.59,3.41-.56,3.42-.59,3.42-.59,3.42-.56,3.42-.59,3.41-.56,3.42-.59,3.42-.59,3.42-.56,3.42-.59,3.41-.56,3.42-.59,3.42-.59,3.42-.56,3.42-.59,3.42-.56,3.41-.59,3.42-.59,3.42-.56,3.42-.59,3.41-.56,3.42-.59,3.42-.59,3.42-.56,3.42-.59,3.42-.56,3.41-.59,3.42-.59,3.42-.56,3.42-.59,3.42-.56,3.41-.59,3.42-.59,3.42-.56,3.42-.59,3.42-.56,3.41-.59,3.42-.59,3.42-.56,3.42-.59,3.42-.56,3.41-.59,3.42-.59,3.42-.56,3.42-.59,3.42-.56,3.41-.59,3.42-.59,3.42-.56,3.42-.59,3.42-.56,3.42-.59,3.41-.59,3.42-.56,3.42-.59,3.42-.56,3.42-.59,3.41-.59,3.42-.56,3.42-.59,3.42-.56,3.42-.59,3.41-.59,3.42-.56,3.42-.59,3.42-.56,3.42-.59,3.41-.59,3.42-.56,3.42-.59,3.42-.56,3.42-.59,3.42-.59,3.41-.56,3.42-.59,3.42-.56,3.42-.59,3.42-.59,3.41-.56,3.42-.59,3.42-.56,3.42-.59,3.42-.59,3.41-.56,3.42-.59,3.42-.56,3.42-.59,3.42-.59,3.41-.56,3.42-.59,3.42-.56,3.42-.59,3.42-.59,3.41-.56,3.42-.59,3.42-.56,3.42-.59,3.42-.59,3.42-.56,3.41-.59,3.42-.56,3.42-.59,3.42-.59,3.41-.56,3.42-.59,3.42-.56,3.42-.59,3.42-.59,3.42-.56,3.41-.59-574.71-.56,3.42-.59,3.42-.59,3.42-.56,3.41-.59,3.42-.56,3.42-.59,3.42-.59,3.42-.56,3.41-.59,3.42-.56,3.42-.59,3.42-.59,3.42-.56,3.42-.59,3.41-.56,3.42-.59,3.42-.59,3.42-.56,3.41-.59,3.42-.56,3.42-.59,3.42-.59,3.42-.56,3.42-.59,3.41-.56,3.42-.59,3.42-.59,3.42-.56,3.42-.59,3.42-.56,3.41-.59,3.42-.59,3.42-.56,3.42-.59,3.41-.56,3.42-.59,3.42-.59,3.42-.56,3.42-.59,3.42-.56,3.41-.59,3.42-.59,3.42-.56,3.42-.59,3.41-.56,3.42-.59,3.42-.59,3.42-.56,3.42-.59,3.42-.56,3.41-.59,3.42-.59,3.42-.56,3.42-.59,3.42-.56,3.42-.59,3.41-.59,3.42-.56,3.42-.59,3.42-.56,3.41-.59,3.42-.59,3.42-.56,3.42-.59,3.42-.56,3.42-.59,3.41-.59,3.42-.56,3.42-.59,3.42-.56,3.41-.59,3.43-.59,3.41-.56,3.42-.59,3.42-.56,3.42-.59,3.41-.59,3.42-.56,3.42-.59,3.42-.56,3.42-.59,3.42-.59,3.41-.56,3.42-.59,3.42-.56,3.42-.59,3.41-.59,3.42-.56,3.42-.59,3.42-.56,3.42-.59,3.42-.59,3.41-.56,3.42-.59,3.42-.56,3.42-.59,3.42-.59,3.42-.56,3.41-.59,3.42-.56,3.42-.59,3.42-.59,3.41-.56,3.42-.59,3.42-.56,3.42-.59,3.42-.59,3.42-.56,3.41-.59,3.42-.56,3.42-.59,3.42-.59,3.41-.56,3.42-.59,3.42-.56,3.42-.59,3.42-.59,3.42-.56,3.41-.59,3.42-.56,3.42-.59,3.42-.59,3.42-.56,3.42-.59,3.41-.56,3.42-.59,3.42-.59,3.42-.56,3.41-.59,3.42-.56,3.42-.59,3.42-.59,3.42-.56,3.42-.59,3.41-.56,3.42-.59,3.42-.59,3.42-.56,3.42-.59,3.41-.56,3.42-.59,3.42-.59,3.42-.56,3.42-.59,3.41-.56,3.42-.59,3.42-.59,3.42-.56,3.42-.59,3.42-.56,3.41-.59,3.42-.59,3.42-.56,3.42-.59,3.41-.56,3.42-.59,3.42-.59,3.42-.56,3.42-.59,3.42-.56,3.41-.59,3.42-.59,3.42-.56,3.42-.59,3.42-.56,3.41-.59,3.42-.59,3.42-.56-574.71-.59,3.42-.56,3.41-.59,3.42-.59,3.42-.56,3.42-.59,3.42-.56,3.41-.59,3.42-.59,3.42-.56,3.42-.59,3.42-.56,3.41-.59,3.42-.59,3.42-.56,3.42-.59,3.42-.56,3.42-.59,3.41-.59,3.42-.56,3.42-.59,3.42-.56,3.42-.59,3.41-.59,3.42-.56,3.42-.59,3.42-.56,3.42-.59,3.41-.59,3.42-.56,3.42-.59,3.42-.56,3.42-.59,3.41-.59,3.42-.56,3.42-.59,3.42-.56,3.42-.59,3.42-.59,3.41-.56,3.42-.59,3.42-.56,3.42-.59,3.42-.59,3.41-.56,3.42-.59,3.42-.56,3.42-.59,3.42-.59,3.41-.56,3.42-.59,3.42-.56,3.42-.59,3.42-.59,3.41-.56,3.42-.59,3.42-.56,3.42-.59,3.42-.59,3.41-.56,3.42-.59,3.42-.56,3.42-.59,3.42-.59,3.42-.56,3.41-.59,3.42-.56,3.42-.59,3.42-.59,3.41-.56,3.42-.59,3.42-.56,3.42-.59,3.42-.59,3.42-.56,3.41-.59,3.42-.56,3.42-.59,3.42-.59,3.42-.56,3.41-.59,3.42-.56,3.42-.59,3.42-.59,3.42-.56,3.41-.59,3.42-.56,3.42-.59,3.42-.59,3.42-.56,3.42-.59,3.41-.56,3.42-.59,3.42-.59,3.42-.56,3.41-.59,3.42-.56,3.42-.59,3.42-.59,3.42-.56,3.42-.59,3.41-.56,3.42-.59,3.42-.59,3.42-.56,3.42-.59,3.42-.56,3.41-.59,3.42-.59,3.42-.56,3.42-.59,3.41-.56,3.42-.59,3.42-.59,3.42-.56,3.42-.59,3.42-.56,3.41-.59,3.42-.59,3.42-.56,3.42-.59,3.41-.56,3.42-.59,3.42-.59,3.42-.56,3.42-.59,3.42-.56,3.41-.59,3.42-.59,3.42-.56,3.42-.59,3.42-.56,3.42-.59,3.41-.59,3.42-.56,3.42-.59,3.42-.56,3.41-.59,3.42-.59,3.42-.56,3.42-.59,3.42-.56,3.42-.59,3.41-.59,3.42-.56,3.42-.59,3.42-.56,3.41-.59,3.43-.59,3.41-.56,3.42-.59,3.42-.56,3.42-.59,3.41-.59,3.42-.56,3.42-.59,3.42-.56,3.42-.59,3.42-.59,3.41-.56,3.42-.59,3.42-.56,3.42-.59,3.41-.59,3.42-.56,3.42-.59,3.42-.56,3.42-.59,3.42-.59-574.72-.56,3.42-.59,3.42-.56,3.42-.59,3.42-.59,3.42-.56,3.41-.59,3.42-.56,3.42-.59,3.42-.59,3.41-.56,3.42-.59,3.42-.56,3.42-.59,3.42-.59,3.42-.56,3.41-.59,3.42-.56,3.42-.59,3.42-.59,3.41-.56,3.42-.59,3.42-.56,3.42-.59,3.42-.59,3.42-.56,3.41-.59,3.42-.56,3.42-.59,3.42-.59,3.42-.56,3.42-.59,3.41-.56,3.42-.59,3.42-.59,3.42-.56,3.41-.59,3.42-.56,3.42-.59,3.42-.59,3.42-.56,3.42-.59,3.41-.56,3.42-.59,3.42-.59,3.42-.56,3.42-.59,3.41-.56,3.42-.59,3.42-.59,3.42-.56,3.42-.59,3.41-.56,3.42-.59,3.42-.59,3.42-.56,3.42-.59,3.42-.56,3.41-.59,3.42-.59,3.42-.56,3.42-.59,3.41-.56,3.42-.59,3.42-.59,3.42-.56,3.42-.59,3.42-.56,3.41-.59,3.42-.59,3.42-.56,3.42-.59,3.42-.56,3.41-.59,3.42-.59,3.42-.56,3.42-.59,3.42-.56,3.41-.59,3.42-.59,3.42-.56,3.42-.59,3.42-.56,3.41-.59,3.42-.59,3.42-.56,3.42-.59,3.42-.56,3.41-.59,3.42-.59,3.42-.56,3.42-.59,3.42-.56,3.42-.59,3.41-.59,3.42-.56,3.42-.59,3.42-.56,3.42-.59,3.41-.59,3.42-.56,3.42-.59,3.42-.56,3.42-.59,3.41-.59,3.42-.56,3.42-.59,3.42-.56,3.42-.59,3.41-.59,3.42-.56,3.42-.59,3.42-.56,3.42-.59,3.42-.59,3.41-.56,3.42-.59,3.42-.56,3.42-.59,3.42-.59,3.41-.56,3.42-.59,3.42-.56,3.42-.59,3.42-.59,3.41-.56,3.42-.59,3.42-.56,3.42-.59,3.42-.59,3.41-.56,3.42-.59,3.42-.56,3.42-.59,3.42-.59,3.41-.56,3.42-.59,3.42-.56,3.42-.59,3.42-.59,3.42-.56,3.41-.59,3.42-.56,3.42-.59,3.42-.59,3.41-.56,3.42-.59,3.42-.56,3.42-.59,3.42-.59,3.42-.56,3.41-.59,3.42-.56,3.42-.59,3.42-.59,3.42-.56,3.41-.59,3.42-.56,3.42-.59,3.42-.59,3.42-.56,3.41-.59,3.42-.56,3.42-.59,3.42-.59,3.42-.56,3.42-.59,3.41-.56,3.42-.59-574.71-.59,3.42-.56,3.41-.59,3.42-.56,3.42-.59,3.42-.59,3.42-.56,3.42-.59,3.41-.56,3.42-.59,3.42-.59,3.42-.56,3.42-.59,3.42-.56,3.41-.59,3.42-.59,3.42-.56,3.42-.59,3.41-.56,3.42-.59,3.42-.59,3.42-.56,3.42-.59,3.42-.56,3.41-.59,3.42-.59,3.42-.56,3.42-.59,3.41-.56,3.42-.59,3.42-.59,3.42-.56,3.42-.59,3.42-.56,3.41-.59,3.42-.59,3.42-.56,3.42-.59,3.42-.56,3.42-.59,3.41-.59,3.42-.56,3.42-.59,3.42-.56,3.41-.59,3.42-.59,3.42-.56,3.42-.59,3.42-.56,3.42-.59,3.41-.59,3.42-.56,3.42-.59,3.42-.56,3.41-.59,3.43-.59,3.41-.56,3.42-.59,3.42-.56,3.42-.59,3.41-.59,3.42-.56,3.42-.59,3.42-.56,3.42-.59,3.42-.59,3.41-.56,3.42-.59,3.42-.56,3.42-.59,3.41-.59,3.42-.56,3.42-.59,3.42-.56,3.42-.59,3.42-.59,3.41-.56,3.42-.59,3.42-.56,3.42-.59,3.42-.59,3.42-.56,3.41-.59,3.42-.56,3.42-.59,3.42-.59,3.41-.56,3.42-.59,3.42-.56,3.42-.59,3.42-.59,3.42-.56,3.41-.59,3.42-.56,3.42-.59,3.42-.59,3.41-.56,3.42-.59,3.42-.56,3.42-.59,3.42-.59,3.42-.56,3.41-.59,3.42-.56,3.42-.59,3.42-.59,3.42-.56,3.42-.59,3.41-.56,3.42-.59,3.42-.59,3.42-.56,3.41-.59,3.42-.56,3.42-.59,3.42-.59,3.42-.56,3.42-.59,3.41-.56,3.42-.59,3.42-.59,3.42-.56,3.42-.59,3.41-.56,3.42-.59,3.42-.59,3.42-.56,3.42-.59,3.41-.56,3.42-.59,3.42-.59,3.42-.56,3.42-.59,3.42-.56,3.41-.59,3.42-.59,3.42-.56,3.42-.59,3.41-.56,3.42-.59,3.42-.59,3.42-.56,3.42-.59,3.42-.56,3.41-.59,3.42-.59,3.42-.56,3.42-.59,3.42-.56,3.41-.59,3.42-.59,3.42-.56,3.42-.59,3.42-.56,3.41-.59,3.42-.59,3.42-.56,3.42-.59,3.42-.56,3.41-.59,3.42-.59,3.42-.56,3.42-.59,3.42-.56,3.41-.59,3.42-.59,3.42-.56,3.42-.59,3.42-.56-574.71-.59,3.41-.59,3.42-.56,3.42-.59,3.42-.56,3.42-.59,3.41-.59,3.42-.56,3.42-.59,3.42-.56,3.42-.59,3.41-.59,3.42-.56,3.42-.59,3.42-.56,3.42-.59,3.41-.59,3.42-.56,3.42-.59,3.42-.56,3.42-.59,3.42-.59,3.41-.56,3.42-.59,3.42-.56,3.42-.59,3.42-.59,3.41-.56,3.42-.59,3.42-.56,3.42-.59,3.42-.59,3.41-.56,3.42-.59,3.42-.56,3.42-.59,3.42-.59,3.41-.56,3.42-.59,3.42-.56,3.42-.59,3.42-.59,3.41-.56,3.42-.59,3.42-.56,3.42-.59,3.42-.59,3.42-.56,3.41-.59,3.42-.56,3.42-.59,3.42-.59,3.41-.56,3.42-.59,3.42-.56,3.42-.59,3.42-.59,3.42-.56,3.41-.59,3.42-.56,3.42-.59,3.42-.59,3.42-.56,3.41-.59,3.42-.56,3.42-.59,3.42-.59,3.42-.56,3.41-.59,3.42-.56,3.42-.59,3.42-.59,3.42-.56,3.42-.59,3.41-.56,3.42-.59,3.42-.59,3.42-.56,3.41-.59,3.42-.56,3.42-.59,3.42-.59,3.42-.56,3.42-.59,3.41-.56,3.42-.59,3.42-.59,3.42-.56,3.42-.59,3.42-.56,3.41-.59,3.42-.59,3.42-.56,3.42-.59,3.41-.56,3.42-.59,3.42-.59,3.42-.56,3.42-.59,3.42-.56,3.41-.59,3.42-.59,3.42-.56,3.42-.59,3.41-.56,3.42-.59,3.42-.59,3.42-.56,3.42-.59,3.42-.56,3.41-.59,3.42-.59,3.42-.56,3.42-.59,3.42-.56,3.42-.59,3.41-.59,3.42-.56,3.42-.59,3.42-.56,3.41-.59,3.42-.59,3.42-.56,3.42-.59,3.42-.56,3.42-.59,3.41-.59,3.42-.56,3.42-.59,3.42-.56,3.41-.59,3.43-.59,3.41-.56,3.42-.59,3.42-.56,3.42-.59,3.41-.59,3.42-.56,3.42-.59,3.42-.56,3.42-.59,3.42-.59,3.41-.56,3.42-.59,3.42-.56,3.42-.59,3.41-.59,3.42-.56,3.42-.59,3.42-.56,3.42-.59,3.42-.59,3.41-.56,3.42-.59,3.42-.56,3.42-.59,3.42-.59,3.42-.56,3.41-.59,3.42-.56,3.42-.59,3.42-.59,3.41-.56,3.42-.59,3.42-.56,3.42-.59,3.42-.59,3.42-.56,3.41-.59-574.71-.56,3.42-.59,3.42-.59,3.41-.56,3.42-.59,3.42-.56,3.42-.59,3.42-.59,3.42-.56,3.41-.59,3.42-.56,3.42-.59,3.42-.59,3.42-.56,3.42-.59,3.41-.56,3.42-.59,3.42-.59,3.42-.56,3.41-.59,3.42-.56,3.42-.59,3.42-.59,3.42-.56,3.42-.59,3.41-.56,3.42-.59,3.42-.59,3.42-.56,3.42-.59,3.41-.56,3.42-.59,3.42-.59,3.42-.56,3.42-.59,3.41-.56,3.42-.59,3.42-.59,3.42-.56,3.42-.59,3.42-.56,3.41-.59,3.42-.59,3.42-.56,3.42-.59,3.41-.56,3.42-.59,3.42-.59,3.42-.56,3.42-.59,3.42-.56,3.41-.59,3.42-.59,3.42-.56,3.42-.59,3.42-.56,3.41-.59,3.42-.59,3.42-.56,3.42-.59,3.42-.56,3.41-.59,3.42-.59,3.42-.56,3.42-.59,3.42-.56,3.41-.59,3.42-.59,3.42-.56,3.42-.59,3.42-.56,3.41-.59,3.42-.59,3.42-.56,3.42-.59,3.42-.56,3.42-.59,3.41-.59,3.42-.56,3.42-.59,3.42-.56,3.42-.59,3.41-.59,3.42-.56,3.42" fill="none" stroke="#307eef" stroke-miterlimit="10" stroke-width="4"/>
</svg>