<?xml version="1.0" encoding="UTF-8"?><svg xmlns="http://www.w3.org/2000/svg" viewBox="0 0 907.2 460.8"><defs><style>.uuid-0b660cbb-9dce-4d40-8b8c-8d099baddd64{letter-spacing:0em;}.uuid-b43b5e0a-7339-445c-ad92-451badea2bb3{stroke-width:1.82px;}.uuid-b43b5e0a-7339-445c-ad92-451badea2bb3,.uuid-4c0a1fd9-7aa7-401f-8bb4-da96d6e0b6c0,.uuid-c8232231-4952-4ff0-bdfc-f51bdcd60f2b{fill:none;stroke-miterlimit:10;}.uuid-b43b5e0a-7339-445c-ad92-451badea2bb3,.uuid-c8232231-4952-4ff0-bdfc-f51bdcd60f2b{stroke:#7f7f7f;}.uuid-56baccf0-0d8e-4312-a997-280f653ede05{fill:#bbc3cb;}.uuid-56baccf0-0d8e-4312-a997-280f653ede05,.uuid-6e327790-d984-4bf1-98ee-007f80ad2057{font-family:Roboto-Regular, Roboto;font-size:24px;}.uuid-6e327790-d984-4bf1-98ee-007f80ad2057{fill:#c9d1d9;}.uuid-18b2301e-0ec8-436b-b84f-81213c3107cd{letter-spacing:-.01em;}.uuid-4c0a1fd9-7aa7-401f-8bb4-da96d6e0b6c0{stroke:#307eef;}.uuid-4c0a1fd9-7aa7-401f-8bb4-da96d6e0b6c0,.uuid-c8232231-4952-4ff0-bdfc-f51bdcd60f2b{stroke-width:2.83px;}</style></defs><g id="uuid-366e962a-8f05-4888-944a-e676e75bc550"><text class="uuid-56baccf0-0d8e-4312-a997-280f653ede05" transform="translate(73.6 421.94)"><tspan x="0" y="0">100</tspan></text><text class="uuid-56baccf0-0d8e-4312-a997-280f653ede05" transform="translate(196 421.94)"><tspan x="0" y="0">200</tspan></text><text class="uuid-56baccf0-0d8e-4312-a997-280f653ede05" transform="translate(309.11 421.94)"><tspan x="0" y="0">400</tspan></text><text class="uuid-56baccf0-0d8e-4312-a997-280f653ede05" transform="translate(472.42 421.94)"><tspan x="0" y="0">1k</tspan></text><text class="uuid-56baccf0-0d8e-4312-a997-280f653ede05" transform="translate(659.53 421.94)"><tspan x="0" y="0">3k</tspan></text><text class="uuid-56baccf0-0d8e-4312-a997-280f653ede05" transform="translate(847.6 421.94)"><tspan x="0" y="0">10k</tspan></text><rect class="uuid-c8232231-4952-4ff0-bdfc-f51bdcd60f2b" x="88" y="28.74" width="792" height="360"/><text class="uuid-56baccf0-0d8e-4312-a997-280f653ede05" transform="translate(58.32 174.26)"><tspan x="0" y="0">0</tspan></text><text class="uuid-56baccf0-0d8e-4312-a997-280f653ede05" transform="translate(31.24 39.26)"><tspan x="0" y="0">+30</tspan></text><line class="uuid-b43b5e0a-7339-445c-ad92-451badea2bb3" x1="602.17" y1="29.53" x2="602.17" y2="389.2"/><line class="uuid-b43b5e0a-7339-445c-ad92-451badea2bb3" x1="671.27" y1="29.53" x2="671.27" y2="389.2"/><line class="uuid-b43b5e0a-7339-445c-ad92-451badea2bb3" x1="720.5" y1="29.53" x2="720.5" y2="389.2"/><line class="uuid-b43b5e0a-7339-445c-ad92-451badea2bb3" x1="759.08" y1="29.53" x2="759.08" y2="389.2"/><line class="uuid-b43b5e0a-7339-445c-ad92-451badea2bb3" x1="789.89" y1="29.53" x2="789.89" y2="389.2"/><line class="uuid-b43b5e0a-7339-445c-ad92-451badea2bb3" x1="816.66" y1="29.53" x2="816.66" y2="389.2"/><line class="uuid-b43b5e0a-7339-445c-ad92-451badea2bb3" x1="839.12" y1="29.53" x2="839.12" y2="389.2"/><line class="uuid-b43b5e0a-7339-445c-ad92-451badea2bb3" x1="859.85" y1="29.53" x2="859.85" y2="389.2"/><line class="uuid-b43b5e0a-7339-445c-ad92-451badea2bb3" x1="877.41" y1="29.53" x2="877.41" y2="389.2"/><line class="uuid-c8232231-4952-4ff0-bdfc-f51bdcd60f2b" x1="88" y1="208.74" x2="880" y2="208.74"/><text class="uuid-56baccf0-0d8e-4312-a997-280f653ede05" transform="translate(38.23 219.26)"><tspan x="0" y="0">-10</tspan></text><text class="uuid-56baccf0-0d8e-4312-a997-280f653ede05" transform="translate(31.24 84.26)"><tspan x="0" y="0">+20</tspan></text><text class="uuid-56baccf0-0d8e-4312-a997-280f653ede05" transform="translate(38.23 399.26)"><tspan x="0" y="0">-50</tspan></text><text class="uuid-56baccf0-0d8e-4312-a997-280f653ede05" transform="translate(38.23 309.26)"><tspan x="0" y="0">-30</tspan></text><text class="uuid-56baccf0-0d8e-4312-a997-280f653ede05" transform="translate(38.23 264.41)"><tspan x="0" y="0">-20</tspan></text><line class="uuid-b43b5e0a-7339-445c-ad92-451badea2bb3" x1="207.73" y1="28.74" x2="207.73" y2="388.4"/><line class="uuid-b43b5e0a-7339-445c-ad92-451badea2bb3" x1="277.98" y1="28.74" x2="277.98" y2="388.4"/><line class="uuid-b43b5e0a-7339-445c-ad92-451badea2bb3" x1="326.93" y1="28.74" x2="326.93" y2="388.4"/><line class="uuid-b43b5e0a-7339-445c-ad92-451badea2bb3" x1="365.51" y1="28.74" x2="365.51" y2="388.4"/><line class="uuid-b43b5e0a-7339-445c-ad92-451badea2bb3" x1="396.31" y1="28.74" x2="396.31" y2="388.4"/><line class="uuid-b43b5e0a-7339-445c-ad92-451badea2bb3" x1="422.51" y1="28.74" x2="422.51" y2="388.4"/><line class="uuid-b43b5e0a-7339-445c-ad92-451badea2bb3" x1="445.55" y1="28.74" x2="445.55" y2="388.4"/><line class="uuid-b43b5e0a-7339-445c-ad92-451badea2bb3" x1="465.41" y1="28.74" x2="465.41" y2="388.4"/><line class="uuid-b43b5e0a-7339-445c-ad92-451badea2bb3" x1="483.84" y1="28.74" x2="483.84" y2="388.4"/><text class="uuid-56baccf0-0d8e-4312-a997-280f653ede05" transform="translate(38.23 354.26)"><tspan x="0" y="0">-40</tspan></text><text class="uuid-56baccf0-0d8e-4312-a997-280f653ede05" transform="translate(31.24 129.29)"><tspan x="0" y="0">+10</tspan></text><text class="uuid-56baccf0-0d8e-4312-a997-280f653ede05" transform="translate(487.4 234.14)"><tspan x="0" y="0">Q = 0.1</tspan></text><text class="uuid-56baccf0-0d8e-4312-a997-280f653ede05" transform="translate(509.86 65.99)"><tspan x="0" y="0">Q = 20</tspan></text><text class="uuid-6e327790-d984-4bf1-98ee-007f80ad2057" transform="translate(20.5 269.26) rotate(-90)"><tspan x="0" y="0">Magnitude (dB)</tspan></text><text class="uuid-6e327790-d984-4bf1-98ee-007f80ad2057" transform="translate(391.88 448.39)"><tspan class="uuid-18b2301e-0ec8-436b-b84f-81213c3107cd" x="0" y="0">F</tspan><tspan class="uuid-0b660cbb-9dce-4d40-8b8c-8d099baddd64" x="12.96" y="0">r</tspan><tspan x="20.86" y="0">equency (Hz)</tspan></text></g><g id="uuid-a7dfaa71-3e4e-42ff-98a4-c8da8f2871fd"><path class="uuid-4c0a1fd9-7aa7-401f-8bb4-da96d6e0b6c0" d="M88.76,357.19c13.17-4.8,24.08-8.29,31.72-10.63,5.59-1.71,13.83-4.05,30.29-8.72,12.93-3.67,14.09-3.97,21.89-6.19,19.01-5.4,20.65-5.96,32.19-9.2,13.73-3.85,24.44-6.71,29.02-7.93,13.05-3.46,23.73-6.15,34.73-8.88,30.92-7.66,39.22-9.38,79.14-19.03,21.12-5.1,23.44-5.75,40.6-9.83,23.01-5.48,39.64-9.28,43.45-10.15,22.29-5.09,22.2-4.87,44.09-9.83,22.64-5.13,23.67-5.57,54.55-12.69,15.41-3.55,29.34-6.76,47.58-10.78,16.13-3.56,15.49-3.31,53.29-11.42,45.19-9.69,44.93-9.79,53.29-11.26,13.12-2.31,22.07-3.52,39.17-7.14,11-2.33,11.3-2.67,22.36-4.92,14.21-2.88,26.33-4.87,36.32-6.5,1.34-.22,7.29-1.15,19.19-3.01,20.61-3.23,22.68-3.52,24.74-3.81,11.26-1.55,12.33-1.42,23.31-3.01,4.76-.69,9.52-1.35,14.27-2.06,1.64-.25,4.3-.65,7.93-1.11,2.84-.36,5.19-.62,6.82-.79"/><path class="uuid-4c0a1fd9-7aa7-401f-8bb4-da96d6e0b6c0" d="M89.35,344.45c3.19-1.29,7.05-2.88,11.42-4.76,6.03-2.6,10.69-4.74,12.79-5.71,6.75-3.13,7.03-3.44,12.9-6.13,6.64-3.05,6.32-2.67,13-5.71,6.44-2.93,7.56-3.66,16.07-7.61,0,0,3.94-1.83,9.52-4.33,47.92-21.53,118.1-50.54,118.1-50.54,19.35-8,27.41-11.24,36.58-14.8,10.05-3.9,21.01-7.88,42.93-15.86,27.43-9.99,33.82-12.13,38.06-13.53,2.54-.84,14.56-4.79,30.66-9.52,6.49-1.9,16.13-4.72,28.97-8.04,10.3-2.66,18.12-4.46,25.37-6.13,9.93-2.29,15.85-3.65,24.11-5.29,2.74-.54,12.92-2.53,26.96-4.65,6.82-1.03,8.6-1.19,32.14-4.12,24.88-3.1,26.01-3.31,32.04-3.91,13.16-1.32,23.39-1.9,31.72-2.33,58.85-3.01,94.89-3.65,94.89-3.65,47.38-.84,98.67-1.81,150.82-2.7"/><path class="uuid-4c0a1fd9-7aa7-401f-8bb4-da96d6e0b6c0" d="M89.87,343.8c38.43-16.78,77.2-34.04,116.3-51.79,64.01-29.05,74.57-32.94,94.94-43.77,14.82-7.88,32.4-17.79,60.9-31.72,10.51-5.14,9.29-4.36,38.91-18.61,11.34-5.45,22.88-10.49,34.2-15.96,7.01-3.39,15.43-7.54,27.44-11.1,3.45-1.02,6.16-1.69,11.58-3.01,7.75-1.9,16.55-4.05,26.64-5.55,6.83-1.01,11.58-1.33,20.62-1.9,17.37-1.11,32.07-1.14,43.14-.95,15.88.28,27.76,1.09,30.5,1.27,35.5,2.36,92.03,2.67,170.85,3.1,29.28.16,67.12.24,111.52,0"/><path class="uuid-4c0a1fd9-7aa7-401f-8bb4-da96d6e0b6c0" d="M89.35,345.19c29.22-13.57,53.06-24.43,68.93-31.61,74.67-33.79,106.59-46.8,152.35-71.47,22.16-11.95,43.61-24.5,45.46-25.59,21.01-12.32,35.54-20.74,52.65-32.35,4.71-3.19,15.38-10.54,25.11-17.29,2.12-1.47,8.55-6.14,17.29-12.05,6.98-4.72,9.39-6.18,10.47-6.82,7.81-4.66,12.57-7.45,19.51-9.04,4.68-1.08,8.76-1.24,11.05-1.32,1.58-.06,4.38-.1,11.1.53,5.06.47,11.31,1.05,19.24,2.64,7.24,1.45,12.31,3.02,15.33,3.91,14.25,4.2,26.48,6.13,45.36,9.09,6.06.95,16.05,2.41,31.72,4.02,38.87,3.98,72.92,4.61,80.56,4.76,76.68,1.46,171.29.91,181.11.85"/><path class="uuid-4c0a1fd9-7aa7-401f-8bb4-da96d6e0b6c0" d="M89.4,343.8c24.5-10.67,49.19-21.59,74.06-32.76,33.8-15.18,50.72-22.74,72-32.83,10.78-5.11,51.19-24.36,99.49-50.7,11.84-6.46,29.32-16.15,50.33-30.45,4.95-3.37,15.87-10.92,29.18-21.57,10.74-8.59,18.1-14.52,26.64-23.68,6.3-6.75,8.86-11.95,18.19-23.05,4.39-5.23,6.23-7.07,9.38-11.44,1.73-2.4,3.66-4.64,5.47-6.98.51-.66,1.97-2.53,4.28-4.52,1-.86,1.5-1.29,2.22-1.67,2.82-1.48,5.73-.92,6.74-.71,1.71.35,2.92,1.04,3.89,1.59,1.66.93,2.74,1.9,3.22,2.33,2.94,2.6,6.07,4.99,9.04,7.56,3.06,2.65,5.36,4.26,9.94,7.48,6.84,4.8,12.39,7.99,13.96,8.88,2.13,1.21,8.08,4.53,16.26,8.09,2.71,1.18,7.78,3.31,14.19,5.47,9.99,3.37,18.68,5.3,27.75,6.98,20.17,3.74,36.16,5.14,37.85,5.29,55.01,4.69,83.95,5.66,83.95,5.66,15.08.5,33.29.94,113.23,1.04,23.92.03,43.83.02,57.83,0"/><path class="uuid-4c0a1fd9-7aa7-401f-8bb4-da96d6e0b6c0" d="M89.87,344.66c41.01-19.18,74.23-34.42,97.06-44.83,24.05-10.96,38.26-17.33,61.74-28.55,37.84-18.07,58.76-29.15,73.8-37.43,9.22-5.07,22.37-12.47,38.06-21.99,10.64-6.46,20.26-12.31,32.78-20.93,11.58-7.98,21.06-14.56,32.56-24.95,4.79-4.33,10.89-9.88,17.97-18.18,4.11-4.82,10.87-12.82,17.55-24.74,4.08-7.28,7.37-13.15,9.73-21.25,1.38-4.75,3.25-9.36,4.44-14.17.13-.51,1.14-3.05,3.17-8.14.54-1.34,1.08-2.65,2.43-3.59.19-.13,2.26-1.53,4.55-.85.91.27,1.57.79,2.54,1.8,2.37,2.49,3.54,4.82,5.29,7.82.85,1.46,1.77,2.88,2.64,4.33,4.18,6.98,6.28,10.46,6.34,10.57,3.6,6.34,3.61,7.34,6.45,11.74,1.45,2.24,2.62,3.81,4.23,5.92,2.17,2.84,3.73,4.87,6.13,7.19,1.81,1.75,3.3,2.89,4.65,3.91.81.61,4.15,3.11,10.89,6.66.82.43,4.07,2.13,8.78,4.23,6.89,3.07,12.45,4.99,14.91,5.81,2.2.74,7.3,2.39,14.06,4.02,7.02,1.69,12.44,2.53,15.96,3.07,15.4,2.34,23.1,3.51,33.52,4.65,32.97,3.61,63.18,4.87,70.63,5.18,22.01.91,38.72,1.05,46.57,1.11,54.36.42,107.07.45,139.98.42"/><path class="uuid-4c0a1fd9-7aa7-401f-8bb4-da96d6e0b6c0" d="M89.72,344.66c9.79-4.59,24.81-11.61,43.3-20.14,19.95-9.2,29.59-13.55,51.54-23.63,24-11.03,36-16.54,48.37-22.36,9.02-4.25,58.62-27.68,111.75-56.93,8.49-4.68,22.29-12.37,39.33-23.89,14.69-9.94,24.61-17.86,28.28-20.83,13.74-11.13,24.5-19.96,35.52-34.41,3.73-4.89,7.68-10.08,11.74-17.92,8.63-16.71,11.72-33.88,12.69-40.6.83-5.74,2.23-11.38,3.01-17.13.15-1.1,1.16-4.75,3.17-12.05.07-.26,1.02-3.55,3.65-6.03.73-.69,1.38-1.12,2.14-1.11,1.39,0,2.51,1.44,3.25,2.38.58.74.92,1.38,1.11,1.74,1.41,2.72,2.27,5.04,3.01,6.9.06.14.62,1.47,1.74,4.12,2.08,4.91,2.79,6.37,3.65,8.41,1.31,3.1,1.42,3.88,3.96,11.42.94,2.78,2,5.82,4.12,11.89,2.64,7.54,3.89,10.97,5.31,14.67,1.66,4.32,2.51,6.5,3.36,7.93,2.99,5.04,6.76,8.2,8.62,9.73.67.55,2.29,1.85,6.24,4.28,2.85,1.76,7.2,4.42,13.8,7.4,3.42,1.55,9.43,4.08,21.04,7.45,13.69,3.98,24.53,6.04,27.91,6.66,16.56,3.05,29.49,4,35.68,4.44,48.2,3.4,69.3,3.65,69.3,3.65,37.68.44,101.13,1.68,183.68,3.1"/></g></svg>