<?xml version="1.0" encoding="UTF-8"?>
<svg id="Ebene_4" data-name="Ebene 4" xmlns="http://www.w3.org/2000/svg" width="907.2" height="460.8" viewBox="0 0 907.2 460.8">
  <g isolation="isolate">
    <g isolation="isolate">
      <path d="m50.972,165.278h4.758v2.051h-4.758v5.391h-2.18v-5.391h-4.758v-2.051h4.758v-4.98h2.18v4.98Z" fill="#bbc3cb"/>
      <path d="m66.651,157.356v1.84h-.398c-1.688.031-3.031.531-4.031,1.5s-1.578,2.332-1.734,4.09c.898-1.031,2.125-1.547,3.68-1.547,1.484,0,2.67.523,3.557,1.57s1.33,2.398,1.33,4.055c0,1.758-.479,3.164-1.436,4.219s-2.24,1.582-3.85,1.582c-1.633,0-2.957-.627-3.973-1.881s-1.523-2.869-1.523-4.846v-.832c0-3.141.67-5.541,2.01-7.201s3.334-2.51,5.982-2.549h.387Zm-2.848,7.688c-.742,0-1.426.223-2.051.668s-1.059,1.004-1.301,1.676v.797c0,1.406.316,2.539.949,3.398s1.422,1.289,2.367,1.289c.977,0,1.744-.359,2.303-1.078s.838-1.66.838-2.824c0-1.172-.283-2.119-.85-2.842s-1.318-1.084-2.256-1.084Z" fill="#bbc3cb"/>
    </g>
  </g>
  <g isolation="isolate">
    <g isolation="isolate">
      <path d="m37.492,30.278h4.758v2.051h-4.758v5.391h-2.18v-5.391h-4.758v-2.051h4.758v-4.98h2.18v4.98Z" fill="#bbc3cb"/>
      <path d="m55.843,39.43h-11.18v-1.559l5.906-6.562c.875-.992,1.479-1.799,1.811-2.42s.498-1.264.498-1.928c0-.891-.27-1.621-.809-2.191s-1.258-.855-2.156-.855c-1.078,0-1.916.307-2.514.92s-.896,1.467-.896,2.561h-2.168c0-1.57.506-2.84,1.518-3.809s2.365-1.453,4.061-1.453c1.586,0,2.84.416,3.762,1.248s1.383,1.939,1.383,3.322c0,1.68-1.07,3.68-3.211,6l-4.57,4.957h8.566v1.77Z" fill="#bbc3cb"/>
      <path d="m67.292,33.7h2.367v1.77h-2.367v3.961h-2.18v-3.961h-7.77v-1.277l7.641-11.824h2.309v11.332Zm-7.488,0h5.309v-8.367l-.258.469-5.051,7.898Z" fill="#bbc3cb"/>
    </g>
  </g>
  <line x1="86.4" y1="208.91" x2="878.4" y2="208.91" fill="none" stroke="#7f7f7f" stroke-miterlimit="10" stroke-width="2.83"/>
  <g isolation="isolate">
    <g isolation="isolate">
      <path d="m68.837,212.153c0,2.539-.434,4.426-1.301,5.66s-2.223,1.852-4.066,1.852c-1.82,0-3.168-.604-4.043-1.811s-1.328-3.01-1.359-5.408v-2.895c0-2.508.434-4.371,1.301-5.59s2.227-1.828,4.078-1.828c1.836,0,3.188.588,4.055,1.764s1.312,2.99,1.336,5.443v2.812Zm-2.168-2.965c0-1.836-.258-3.174-.773-4.014s-1.332-1.26-2.449-1.26c-1.109,0-1.918.418-2.426,1.254s-.77,2.121-.785,3.855v3.469c0,1.844.268,3.205.803,4.084s1.346,1.318,2.432,1.318c1.07,0,1.865-.414,2.385-1.242s.791-2.133.814-3.914v-3.551Z" fill="#bbc3cb"/>
    </g>
  </g>
  <g isolation="isolate">
    <g isolation="isolate">
      <path d="m37.492,75.278h4.758v2.051h-4.758v5.391h-2.18v-5.391h-4.758v-2.051h4.758v-4.98h2.18v4.98Z" fill="#bbc3cb"/>
      <path d="m51.789,84.43h-2.18v-14.449l-4.371,1.605v-1.969l6.211-2.332h.34v17.145Z" fill="#bbc3cb"/>
      <path d="m68.488,71.821c0,.852-.225,1.609-.674,2.273s-1.057,1.184-1.822,1.559c.891.383,1.596.941,2.115,1.676s.779,1.566.779,2.496c0,1.477-.498,2.652-1.494,3.527s-2.307,1.312-3.932,1.312c-1.641,0-2.955-.439-3.943-1.318s-1.482-2.053-1.482-3.521c0-.922.252-1.754.756-2.496s1.201-1.305,2.092-1.688c-.758-.375-1.355-.895-1.793-1.559s-.656-1.418-.656-2.262c0-1.438.461-2.578,1.383-3.422s2.137-1.266,3.645-1.266c1.5,0,2.713.422,3.639,1.266s1.389,1.984,1.389,3.422Zm-1.77,7.957c0-.953-.303-1.73-.908-2.332s-1.396-.902-2.373-.902-1.76.297-2.35.891-.885,1.375-.885,2.344.287,1.73.861,2.285,1.373.832,2.396.832c1.016,0,1.812-.279,2.391-.838s.867-1.318.867-2.279Zm-3.258-10.863c-.852,0-1.541.264-2.068.791s-.791,1.244-.791,2.15c0,.867.26,1.568.779,2.104s1.213.803,2.08.803,1.561-.268,2.08-.803.779-1.236.779-2.104-.27-1.574-.809-2.121-1.223-.82-2.051-.82Z" fill="#bbc3cb"/>
    </g>
  </g>
  <g isolation="isolate">
    <g isolation="isolate">
      <path d="m42.782,393.066h-5.719v-1.77h5.719v1.77Z" fill="#bbc3cb"/>
      <path d="m55.849,399.43h-11.18v-1.559l5.906-6.562c.875-.992,1.479-1.799,1.811-2.42s.498-1.264.498-1.928c0-.891-.27-1.621-.809-2.191s-1.258-.855-2.156-.855c-1.078,0-1.916.307-2.514.92s-.896,1.467-.896,2.561h-2.168c0-1.57.506-2.84,1.518-3.809s2.365-1.453,4.061-1.453c1.586,0,2.84.416,3.762,1.248s1.383,1.939,1.383,3.322c0,1.68-1.07,3.68-3.211,6l-4.57,4.957h8.566v1.77Z" fill="#bbc3cb"/>
      <path d="m67.298,393.699h2.367v1.77h-2.367v3.961h-2.18v-3.961h-7.77v-1.277l7.641-11.824h2.309v11.332Zm-7.488,0h5.309v-8.367l-.258.469-5.051,7.898Z" fill="#bbc3cb"/>
    </g>
  </g>
  <g isolation="isolate">
    <g isolation="isolate">
      <path d="m42.782,303.066h-5.719v-1.77h5.719v1.77Z" fill="#bbc3cb"/>
      <path d="m51.794,309.43h-2.18v-14.449l-4.371,1.605v-1.969l6.211-2.332h.34v17.145Z" fill="#bbc3cb"/>
      <path d="m69.325,309.43h-11.18v-1.559l5.906-6.562c.875-.992,1.479-1.799,1.811-2.42s.498-1.264.498-1.928c0-.891-.27-1.621-.809-2.191s-1.258-.855-2.156-.855c-1.078,0-1.916.307-2.514.92s-.896,1.467-.896,2.561h-2.168c0-1.57.506-2.84,1.518-3.809s2.365-1.453,4.061-1.453c1.586,0,2.84.416,3.762,1.248s1.383,1.939,1.383,3.322c0,1.68-1.07,3.68-3.211,6l-4.57,4.957h8.566v1.77Z" fill="#bbc3cb"/>
    </g>
  </g>
  <g isolation="isolate">
    <g isolation="isolate">
      <path d="m56.252,258.217h-5.719v-1.77h5.719v1.77Z" fill="#bbc3cb"/>
      <path d="m66.647,247.506v1.84h-.398c-1.688.031-3.031.531-4.031,1.5s-1.578,2.332-1.734,4.09c.898-1.031,2.125-1.547,3.68-1.547,1.484,0,2.67.523,3.557,1.57s1.33,2.398,1.33,4.055c0,1.758-.479,3.164-1.436,4.219s-2.24,1.582-3.85,1.582c-1.633,0-2.957-.627-3.973-1.881s-1.523-2.869-1.523-4.846v-.832c0-3.141.67-5.541,2.01-7.201s3.334-2.51,5.982-2.549h.387Zm-2.848,7.688c-.742,0-1.426.223-2.051.668s-1.059,1.004-1.301,1.676v.797c0,1.406.316,2.539.949,3.398s1.422,1.289,2.367,1.289c.977,0,1.744-.359,2.303-1.078s.838-1.66.838-2.824c0-1.172-.283-2.119-.85-2.842s-1.318-1.084-2.256-1.084Z" fill="#bbc3cb"/>
    </g>
  </g>
  <g isolation="isolate">
    <g isolation="isolate">
      <path d="m42.782,348.066h-5.719v-1.77h5.719v1.77Z" fill="#bbc3cb"/>
      <path d="m51.794,354.43h-2.18v-14.449l-4.371,1.605v-1.969l6.211-2.332h.34v17.145Z" fill="#bbc3cb"/>
      <path d="m68.493,341.82c0,.852-.225,1.609-.674,2.273s-1.057,1.184-1.822,1.559c.891.383,1.596.941,2.115,1.676s.779,1.566.779,2.496c0,1.477-.498,2.652-1.494,3.527s-2.307,1.312-3.932,1.312c-1.641,0-2.955-.439-3.943-1.318s-1.482-2.053-1.482-3.521c0-.922.252-1.754.756-2.496s1.201-1.305,2.092-1.688c-.758-.375-1.355-.895-1.793-1.559s-.656-1.418-.656-2.262c0-1.438.461-2.578,1.383-3.422s2.137-1.266,3.645-1.266c1.5,0,2.713.422,3.639,1.266s1.389,1.984,1.389,3.422Zm-1.77,7.957c0-.953-.303-1.73-.908-2.332s-1.396-.902-2.373-.902-1.76.297-2.35.891-.885,1.375-.885,2.344.287,1.73.861,2.285,1.373.832,2.396.832c1.016,0,1.812-.279,2.391-.838s.867-1.318.867-2.279Zm-3.258-10.863c-.852,0-1.541.264-2.068.791s-.791,1.244-.791,2.15c0,.867.26,1.568.779,2.104s1.213.803,2.08.803,1.561-.268,2.08-.803.779-1.236.779-2.104-.27-1.574-.809-2.121-1.223-.82-2.051-.82Z" fill="#bbc3cb"/>
    </g>
  </g>
  <g isolation="isolate">
    <g isolation="isolate">
      <path d="m37.492,120.308h4.758v2.051h-4.758v5.391h-2.18v-5.391h-4.758v-2.051h4.758v-4.98h2.18v4.98Z" fill="#bbc3cb"/>
      <path d="m51.789,129.46h-2.18v-14.449l-4.371,1.605v-1.969l6.211-2.332h.34v17.145Z" fill="#bbc3cb"/>
      <path d="m69.32,129.46h-11.18v-1.559l5.906-6.562c.875-.992,1.479-1.799,1.811-2.42s.498-1.264.498-1.928c0-.891-.27-1.621-.809-2.191s-1.258-.855-2.156-.855c-1.078,0-1.916.307-2.514.92s-.896,1.467-.896,2.561h-2.168c0-1.57.506-2.84,1.518-3.809s2.365-1.453,4.061-1.453c1.586,0,2.84.416,3.762,1.248s1.383,1.939,1.383,3.322c0,1.68-1.07,3.68-3.211,6l-4.57,4.957h8.566v1.77Z" fill="#bbc3cb"/>
    </g>
  </g>
  <rect x="86.4" y="28.91" width="792" height="360" fill="none" stroke="#7f7f7f" stroke-miterlimit="10" stroke-width="2.83"/>
  <line x1="429.81" y1="28.91" x2="429.81" y2="388.91" fill="none" stroke="#7f7f7f" stroke-miterlimit="10" stroke-width="1.42"/>
  <line x1="476.1" y1="28.91" x2="476.1" y2="388.91" fill="none" stroke="#7f7f7f" stroke-miterlimit="10" stroke-width="1.42"/>
  <line x1="509.08" y1="28.91" x2="509.08" y2="388.91" fill="none" stroke="#7f7f7f" stroke-miterlimit="10" stroke-width="1.42"/>
  <line x1="534.92" y1="28.91" x2="534.92" y2="388.91" fill="none" stroke="#7f7f7f" stroke-miterlimit="10" stroke-width="1.42"/>
  <line x1="555.56" y1="28.91" x2="555.56" y2="388.91" fill="none" stroke="#7f7f7f" stroke-miterlimit="10" stroke-width="1.42"/>
  <line x1="573.49" y1="28.91" x2="573.49" y2="388.91" fill="none" stroke="#7f7f7f" stroke-miterlimit="10" stroke-width="1.42"/>
  <line x1="588.54" y1="28.91" x2="588.54" y2="388.91" fill="none" stroke="#7f7f7f" stroke-miterlimit="10" stroke-width="1.42"/>
  <line x1="602.42" y1="28.91" x2="602.42" y2="388.91" fill="none" stroke="#7f7f7f" stroke-miterlimit="10" stroke-width="1.42"/>
  <line x1="614.19" y1="28.91" x2="614.19" y2="388.91" fill="none" stroke="#7f7f7f" stroke-miterlimit="10" stroke-width="1.42"/>
  <line x1="837.32" y1="28.91" x2="837.32" y2="388.91" fill="none" stroke="#7f7f7f" stroke-miterlimit="10" stroke-width="1.42"/>
  <line x1="852.75" y1="28.91" x2="852.75" y2="388.91" fill="none" stroke="#7f7f7f" stroke-miterlimit="10" stroke-width="1.42"/>
  <line x1="866.06" y1="28.91" x2="866.06" y2="388.91" fill="none" stroke="#7f7f7f" stroke-miterlimit="10" stroke-width="1.42"/>
  <line x1="878.4" y1="28.91" x2="878.4" y2="388.91" fill="none" stroke="#7f7f7f" stroke-miterlimit="10" stroke-width="1.42"/>
  <line x1="165.6" y1="28.12" x2="165.6" y2="388.12" fill="none" stroke="#7f7f7f" stroke-miterlimit="10" stroke-width="1.42"/>
  <line x1="212.66" y1="28.12" x2="212.66" y2="388.12" fill="none" stroke="#7f7f7f" stroke-miterlimit="10" stroke-width="1.42"/>
  <line x1="245.44" y1="28.12" x2="245.44" y2="388.12" fill="none" stroke="#7f7f7f" stroke-miterlimit="10" stroke-width="1.42"/>
  <line x1="271.29" y1="28.12" x2="271.29" y2="388.12" fill="none" stroke="#7f7f7f" stroke-miterlimit="10" stroke-width="1.42"/>
  <line x1="291.92" y1="28.12" x2="291.92" y2="388.12" fill="none" stroke="#7f7f7f" stroke-miterlimit="10" stroke-width="1.42"/>
  <line x1="309.47" y1="28.12" x2="309.47" y2="388.12" fill="none" stroke="#7f7f7f" stroke-miterlimit="10" stroke-width="1.42"/>
  <line x1="324.9" y1="28.12" x2="324.9" y2="388.12" fill="none" stroke="#7f7f7f" stroke-miterlimit="10" stroke-width="1.42"/>
  <line x1="338.21" y1="28.12" x2="338.21" y2="388.12" fill="none" stroke="#7f7f7f" stroke-miterlimit="10" stroke-width="1.42"/>
  <line x1="350.55" y1="28.12" x2="350.55" y2="388.12" fill="none" stroke="#7f7f7f" stroke-miterlimit="10" stroke-width="1.42"/>
  <line x1="693.66" y1="28.91" x2="693.66" y2="388.91" fill="none" stroke="#7f7f7f" stroke-miterlimit="10" stroke-width="1.42"/>
  <line x1="739.94" y1="28.91" x2="739.94" y2="388.91" fill="none" stroke="#7f7f7f" stroke-miterlimit="10" stroke-width="1.42"/>
  <line x1="772.92" y1="28.91" x2="772.92" y2="388.91" fill="none" stroke="#7f7f7f" stroke-miterlimit="10" stroke-width="1.42"/>
  <line x1="798.76" y1="28.91" x2="798.76" y2="388.91" fill="none" stroke="#7f7f7f" stroke-miterlimit="10" stroke-width="1.42"/>
  <line x1="819.4" y1="28.91" x2="819.4" y2="388.91" fill="none" stroke="#7f7f7f" stroke-miterlimit="10" stroke-width="1.42"/>
  <g isolation="isolate">
    <g isolation="isolate">
      <path d="m338.878,432.11h-2.18v-14.449l-4.371,1.605v-1.969l6.211-2.332h.34v17.145Z" fill="#bbc3cb"/>
      <path d="m355.929,424.833c0,2.539-.434,4.426-1.301,5.66s-2.223,1.852-4.066,1.852c-1.82,0-3.168-.604-4.043-1.811s-1.328-3.01-1.359-5.408v-2.895c0-2.508.434-4.371,1.301-5.59s2.227-1.828,4.078-1.828c1.836,0,3.188.588,4.055,1.764s1.312,2.99,1.336,5.443v2.812Zm-2.168-2.965c0-1.836-.258-3.174-.773-4.014s-1.332-1.26-2.449-1.26c-1.109,0-1.918.418-2.426,1.254s-.77,2.121-.785,3.855v3.469c0,1.844.268,3.205.803,4.084s1.346,1.318,2.432,1.318c1.07,0,1.865-.414,2.385-1.242s.791-2.133.814-3.914v-3.551Z" fill="#bbc3cb"/>
      <path d="m369.405,424.833c0,2.539-.434,4.426-1.301,5.66s-2.223,1.852-4.066,1.852c-1.82,0-3.168-.604-4.043-1.811s-1.328-3.01-1.359-5.408v-2.895c0-2.508.434-4.371,1.301-5.59s2.227-1.828,4.078-1.828c1.836,0,3.188.588,4.055,1.764s1.312,2.99,1.336,5.443v2.812Zm-2.168-2.965c0-1.836-.258-3.174-.773-4.014s-1.332-1.26-2.449-1.26c-1.109,0-1.918.418-2.426,1.254s-.77,2.121-.785,3.855v3.469c0,1.844.268,3.205.803,4.084s1.346,1.318,2.432,1.318c1.07,0,1.865-.414,2.385-1.242s.791-2.133.814-3.914v-3.551Z" fill="#bbc3cb"/>
    </g>
  </g>
  <g isolation="isolate">
    <g isolation="isolate">
      <path d="m609.913,432.11h-2.18v-14.449l-4.371,1.605v-1.969l6.211-2.332h.34v17.145Z" fill="#bbc3cb"/>
      <path d="m620.026,426.239l-1.359,1.418v4.453h-2.168v-18h2.168v10.887l1.16-1.395,3.949-4.172h2.637l-4.934,5.297,5.508,7.383h-2.543l-4.418-5.871Z" fill="#bbc3cb"/>
    </g>
  </g>
  <g isolation="isolate">
    <g isolation="isolate">
      <path d="m854.543,432.11h-2.18v-14.449l-4.371,1.605v-1.969l6.211-2.332h.34v17.145Z" fill="#bbc3cb"/>
      <path d="m871.594,424.833c0,2.539-.434,4.426-1.301,5.66s-2.223,1.852-4.066,1.852c-1.82,0-3.168-.604-4.043-1.811s-1.328-3.01-1.359-5.408v-2.895c0-2.508.434-4.371,1.301-5.59s2.227-1.828,4.078-1.828c1.836,0,3.188.588,4.055,1.764s1.312,2.99,1.336,5.443v2.812Zm-2.168-2.965c0-1.836-.258-3.174-.773-4.014s-1.332-1.26-2.449-1.26c-1.109,0-1.918.418-2.426,1.254s-.77,2.121-.785,3.855v3.469c0,1.844.268,3.205.803,4.084s1.346,1.318,2.432,1.318c1.07,0,1.865-.414,2.385-1.242s.791-2.133.814-3.914v-3.551Z" fill="#bbc3cb"/>
      <path d="m878.133,426.239l-1.359,1.418v4.453h-2.168v-18h2.168v10.887l1.16-1.395,3.949-4.172h2.637l-4.934,5.297,5.508,7.383h-2.543l-4.418-5.871Z" fill="#bbc3cb"/>
    </g>
  </g>
  <polygon points="86.44 208.91 86.44 208.91 805.91 208.91 878.4 208.91 791.25 208.91 688.13 208.94 658.34 209.01 645.05 209.13 637.72 209.3 633.14 209.52 629.93 209.79 627.64 210.11 625.8 210.51 624.43 210.96 623.05 211.61 622.14 212.22 621.22 213.06 620.3 214.25 619.39 216 618.93 217.19 618.47 218.68 618.01 220.57 617.55 223.02 617.1 226.24 616.64 230.56 616.18 236.51 615.72 245.02 615.26 258.01 614.8 281.03 614.35 366.22 613.89 289.44 613.43 262 612.97 247.48 612.51 238.18 612.05 231.75 611.6 227.11 611.14 223.68 610.68 221.08 610.22 219.07 609.76 217.5 609.3 216.25 608.85 215.24 608.39 214.42 607.47 213.18 606.55 212.31 605.64 211.67 604.72 211.2 603.35 210.68 601.97 210.32 599.68 209.92 596.93 209.63 592.35 209.36 584.56 209.15 566.68 209 86.44 208.91 86.44 388.91 878.44 388.91 878.44 208.91 86.44 208.91" fill="#307eef" isolation="isolate" opacity=".5"/>
  <path d="m86.4,208.91l480.28.08,17.87.15,7.79.21,4.58.27,2.75.29,2.29.4,1.37.36,1.37.52.92.48.92.64.92.87.92,1.24.46.82.46,1.01.46,1.25.46,1.57.46,2.01.46,2.6.46,3.43.46,4.63.46,6.43.46,9.3.46,14.52.46,27.44.46,76.79.46-85.19.46-23.01.46-12.99.46-8.51.46-5.95.46-4.32.46-3.22.46-2.45.46-1.9.46-1.49.46-1.19.92-1.74.92-1.19.92-.84.92-.61,1.37-.65,1.37-.44,1.83-.4,2.29-.32,3.21-.27,4.58-.22,7.33-.17,13.29-.12,29.79-.07,103.12-.03h87.15-72.49" fill="none" stroke="#307eee" stroke-linecap="square" stroke-linejoin="round" stroke-width="5.67"/>
</svg>