<?xml version="1.0" encoding="UTF-8"?>
<svg xmlns="http://www.w3.org/2000/svg" viewBox="0 0 1623.6 993.6">
  <defs>
    <style>
      .cls-1 {
        stroke-width: 2px;
      }

      .cls-1, .cls-2 {
        stroke: #c9d1d9;
      }

      .cls-1, .cls-2, .cls-3, .cls-4, .cls-5, .cls-6 {
        fill: none;
        stroke-miterlimit: 10;
      }

      .cls-2 {
        stroke-width: 4px;
      }

      .cls-3 {
        stroke-width: 8px;
      }

      .cls-3, .cls-6 {
        stroke: #1da37d;
      }

      .cls-7 {
        fill: #c9d1d9;
        font-family: Roboto-Regular, Roboto;
        font-size: 48px;
      }

      .cls-4 {
        stroke: #9b48cc;
      }

      .cls-4, .cls-5, .cls-6 {
        stroke-width: 10.59px;
      }

      .cls-5 {
        stroke: #307eef;
      }
    </style>
  </defs>
  <g id="Ebene_1" data-name="Ebene 1">
    <rect class="cls-2" x="169.2" y="3.6" width="1440" height="864"/>
    <line class="cls-1" x1="241.2" y1="3.6" x2="241.2" y2="867.6"/>
    <line class="cls-1" x1="313.2" y1="3.6" x2="313.2" y2="867.6"/>
    <line class="cls-1" x1="385.2" y1="3.6" x2="385.2" y2="867.6"/>
    <line class="cls-1" x1="457.2" y1="3.6" x2="457.2" y2="867.6"/>
    <line class="cls-1" x1="529.2" y1="3.6" x2="529.2" y2="867.6"/>
    <line class="cls-1" x1="601.2" y1="3.6" x2="601.2" y2="867.6"/>
    <line class="cls-1" x1="673.2" y1="3.6" x2="673.2" y2="867.6"/>
    <line class="cls-1" x1="745.2" y1="3.6" x2="745.2" y2="867.6"/>
    <line class="cls-1" x1="817.2" y1="3.6" x2="817.2" y2="867.6"/>
    <line class="cls-1" x1="889.2" y1="3.6" x2="889.2" y2="867.6"/>
    <line class="cls-1" x1="961.2" y1="3.6" x2="961.2" y2="867.6"/>
    <line class="cls-1" x1="1033.2" y1="3.6" x2="1033.2" y2="867.6"/>
    <line class="cls-1" x1="1105.2" y1="3.6" x2="1105.2" y2="867.6"/>
    <line class="cls-1" x1="1177.2" y1="3.6" x2="1177.2" y2="867.6"/>
    <line class="cls-1" x1="1249.2" y1="3.6" x2="1249.2" y2="867.6"/>
    <line class="cls-1" x1="1321.2" y1="3.6" x2="1321.2" y2="867.6"/>
    <line class="cls-1" x1="1393.2" y1="3.6" x2="1393.2" y2="867.6"/>
    <line class="cls-1" x1="1465.2" y1="3.6" x2="1465.2" y2="867.6"/>
    <line class="cls-1" x1="1537.2" y1="3.6" x2="1537.2" y2="867.6"/>
    <line class="cls-1" x1="1609.2" y1="75.6" x2="169.2" y2="75.6"/>
    <line class="cls-1" x1="1609.2" y1="147.6" x2="169.2" y2="147.6"/>
    <line class="cls-1" x1="1609.2" y1="219.6" x2="169.2" y2="219.6"/>
    <line class="cls-1" x1="1609.2" y1="291.6" x2="169.2" y2="291.6"/>
    <line class="cls-1" x1="1609.2" y1="363.6" x2="169.2" y2="363.6"/>
    <line class="cls-1" x1="1609.2" y1="435.6" x2="169.2" y2="435.6"/>
    <line class="cls-1" x1="1609.2" y1="507.6" x2="169.2" y2="507.6"/>
    <line class="cls-1" x1="1609.2" y1="579.6" x2="169.2" y2="579.6"/>
    <line class="cls-1" x1="1609.2" y1="651.6" x2="169.2" y2="651.6"/>
    <line class="cls-1" x1="1609.2" y1="723.6" x2="169.2" y2="723.6"/>
    <line class="cls-1" x1="1609.2" y1="795.6" x2="169.2" y2="795.6"/>
  </g>
  <g id="Signal_Flow" data-name="Signal Flow">
    <g>
      <path class="cls-4" d="m169.2,147.6c.13-.09.2-.14.2-.14l26.16-17.53,13.98-8.65,11.73-6.59,10.37-5.19,9.47-4.13,8.57-3.18,8.12-2.48,7.67-1.85,6.77-1.22,6.32-.78,5.86-.4,5.41-.1,5.41.16,5.41.42,5.86.75,6.32,1.14,6.77,1.6,7.67,2.27,8.57,3.08,9.02,3.83,9.47,4.6,10.83,5.9,12.18,7.31,14.89,9.65s8.7,5.91,16.97,11.52"/>
      <path class="cls-4" d="m409.2,147.6c.13.09.2.14.2.14l26.16,17.53,13.98,8.65,11.73,6.59,10.37,5.19,9.47,4.13,8.57,3.18,8.12,2.48,7.67,1.85,6.77,1.22,6.32.78,5.86.4,5.41.1,5.41-.16,5.41-.42,5.86-.75,6.32-1.14,6.77-1.6,7.67-2.27,8.57-3.08,9.02-3.83,9.47-4.6,10.83-5.9,12.18-7.31,14.89-9.65s8.7-5.91,16.97-11.52"/>
    </g>
    <g>
      <path class="cls-4" d="m649.2,147.6c.13-.09.2-.14.2-.14l26.16-17.53,13.98-8.65,11.73-6.59,10.37-5.19,9.47-4.13,8.57-3.18,8.12-2.48,7.67-1.85,6.77-1.22,6.32-.78,5.86-.4,5.41-.1,5.41.16,5.41.42,5.86.75,6.32,1.14,6.77,1.6,7.67,2.27,8.57,3.08,9.02,3.83,9.47,4.6,10.83,5.9,12.18,7.31,14.89,9.65s8.7,5.91,16.97,11.52"/>
      <path class="cls-4" d="m889.2,147.6c.13.09.2.14.2.14l26.16,17.53,13.98,8.65,11.73,6.59,10.37,5.19,9.47,4.13,8.57,3.18,8.12,2.48,7.67,1.85,6.77,1.22,6.32.78,5.86.4,5.41.1,5.41-.16,5.41-.42,5.86-.75,6.32-1.14,6.77-1.6,7.67-2.27,8.57-3.08,9.02-3.83,9.47-4.6,10.83-5.9,12.18-7.31,14.89-9.65s8.7-5.91,16.97-11.52"/>
    </g>
    <g>
      <path class="cls-4" d="m1129.2,147.6c.13-.09.2-.14.2-.14l26.16-17.53,13.98-8.65,11.73-6.59,10.37-5.19,9.47-4.13,8.57-3.18,8.12-2.48,7.67-1.85,6.77-1.22,6.32-.78,5.86-.4,5.41-.1,5.41.16,5.41.42,5.86.75,6.32,1.14,6.77,1.6,7.67,2.27,8.57,3.08,9.02,3.83,9.47,4.6,10.83,5.9,12.18,7.31,14.89,9.65s8.7,5.91,16.97,11.52"/>
      <path class="cls-4" d="m1369.2,147.6c.13.09.2.14.2.14l26.16,17.53,13.98,8.65,11.73,6.59,10.37,5.19,9.47,4.13,8.57,3.18,8.12,2.48,7.67,1.85,6.77,1.22,6.32.78,5.86.4,5.41.1,5.41-.16,5.41-.42,5.86-.75,6.32-1.14,6.77-1.6,7.67-2.27,8.57-3.08,9.02-3.83,9.47-4.6,10.83-5.9,12.18-7.31,14.89-9.65s8.7-5.91,16.97-11.52"/>
    </g>
    <g>
      <path class="cls-5" d="m231.2,435.6c.13-.12.2-.19.2-.19l26.16-24.17,13.98-11.93,11.73-9.08,10.37-7.15,9.47-5.69,8.57-4.38,8.12-3.42,7.67-2.55,6.77-1.68,6.32-1.07,5.86-.56,5.41-.14,5.41.22,5.41.58,5.86,1.03,6.32,1.58,6.77,2.21,7.67,3.13,8.57,4.25,9.02,5.27,9.47,6.34,10.83,8.13,12.18,10.08,14.89,13.3s8.7,8.14,16.97,15.88"/>
      <path class="cls-5" d="m471.2,435.6c.13.12.2.19.2.19l26.16,24.17,13.98,11.93,11.73,9.08,10.37,7.15,9.47,5.69,8.57,4.38,8.12,3.42,7.67,2.55,6.77,1.68,6.32,1.07,5.86.56,5.41.14,5.41-.22,5.41-.58,5.86-1.03,6.32-1.58,6.77-2.21,7.67-3.13,8.57-4.25,9.02-5.27,9.47-6.34,10.83-8.13,12.18-10.08,14.89-13.3s8.7-8.14,16.97-15.88"/>
    </g>
    <g>
      <path class="cls-5" d="m711.2,435.6c.13-.12.2-.19.2-.19l26.16-24.17,13.98-11.93,11.73-9.08,10.37-7.15,9.47-5.69,8.57-4.38,8.12-3.42,7.67-2.55,6.77-1.68,6.32-1.07,5.86-.56,5.41-.14,5.41.22,5.41.58,5.86,1.03,6.32,1.58,6.77,2.21,7.67,3.13,8.57,4.25,9.02,5.27,9.47,6.34,10.83,8.13,12.18,10.08,14.89,13.3s8.7,8.14,16.97,15.88"/>
      <path class="cls-5" d="m951.2,435.6c.13.12.2.19.2.19l26.16,24.17,13.98,11.93,11.73,9.08,10.37,7.15,9.47,5.69,8.57,4.38,8.12,3.42,7.67,2.55,6.77,1.68,6.32,1.07,5.86.56,5.41.14,5.41-.22,5.41-.58,5.86-1.03,6.32-1.58,6.77-2.21,7.67-3.13,8.57-4.25,9.02-5.27,9.47-6.34,10.83-8.13,12.18-10.08,14.89-13.3s8.7-8.14,16.97-15.88"/>
    </g>
    <path class="cls-5" d="m1191.2,435.6c.13-.12.2-.19.2-.19l26.16-24.17,13.98-11.93,11.73-9.08,10.37-7.15,9.47-5.69,8.57-4.38,8.12-3.42,7.67-2.55,6.77-1.68,6.32-1.07,5.86-.56,5.41-.14,5.41.22,5.41.58,5.86,1.03,6.32,1.58,6.77,2.21,7.67,3.13,8.57,4.25,9.02,5.27,9.47,6.34,10.83,8.13,12.18,10.08,14.89,13.3s8.7,8.14,16.97,15.88"/>
    <path class="cls-5" d="m231.2,435.6c-8.27,7.74-16.97,15.88-16.97,15.88l-14.89,13.3-12.18,10.08-10.83,8.13-7.14,4.78"/>
    <g>
      <path class="cls-3" d="m290.06,723.6c.13-.09.2-.13.2-.13l26.16-17.44,13.98-8.6,11.73-6.55,10.37-5.16,9.47-4.1,8.57-3.16,8.12-2.47,7.67-1.84,6.77-1.21,6.32-.77,5.86-.4,5.41-.1,5.41.16,5.41.42,5.86.75,6.32,1.14,6.77,1.59,7.67,2.26,8.57,3.07,9.02,3.8,9.47,4.57,10.83,5.87,12.18,7.27,14.89,9.59s8.7,5.87,16.97,11.46"/>
      <path class="cls-3" d="m530.06,723.6c.13.09.2.13.2.13l26.16,17.44,13.98,8.6,11.73,6.55,10.37,5.16,9.47,4.1,8.57,3.16,8.12,2.47,7.67,1.84,6.77,1.21,6.32.77,5.86.4,5.41.1,5.41-.16,5.41-.42,5.86-.75,6.32-1.14,6.77-1.59,7.67-2.26,8.57-3.07,9.02-3.8,9.47-4.57,10.83-5.87,12.18-7.27,14.89-9.59s8.7-5.87,16.97-11.46"/>
    </g>
    <g>
      <path class="cls-6" d="m770.06,723.6c.13-.09.2-.13.2-.13l26.16-17.44,13.98-8.6,11.73-6.55,10.37-5.16,9.47-4.1,8.57-3.16,8.12-2.47,7.67-1.84,6.77-1.21,6.32-.77,5.86-.4,5.41-.1,5.41.16,5.41.42,5.86.75,6.32,1.14,6.77,1.59,7.67,2.26,8.57,3.07,9.02,3.8,9.47,4.57,10.83,5.87,12.18,7.27,14.89,9.59s8.7,5.87,16.97,11.46"/>
      <path class="cls-6" d="m1010.06,723.6c.13.09.2.13.2.13l26.16,17.44,13.98,8.6,11.73,6.55,10.37,5.16,9.47,4.1,8.57,3.16,8.12,2.47,7.67,1.84,6.77,1.21,6.32.77,5.86.4,5.41.1,5.41-.16,5.41-.42,5.86-.75,6.32-1.14,6.77-1.59,7.67-2.26,8.57-3.07,9.02-3.8,9.47-4.57,10.83-5.87,12.18-7.27,14.89-9.59s8.7-5.87,16.97-11.46"/>
    </g>
    <g>
      <path class="cls-6" d="m1250.06,723.6c.13-.09.2-.13.2-.13l26.16-17.44,13.98-8.6,11.73-6.55,10.37-5.16,9.47-4.1,8.57-3.16,8.12-2.47,7.67-1.84,6.77-1.21,6.32-.77,5.86-.4,5.41-.1,5.41.16,5.41.42,5.86.75,6.32,1.14,6.77,1.59,7.67,2.26,8.57,3.07,9.02,3.8,9.47,4.57,10.83,5.87,12.18,7.27,14.89,9.59s8.7,5.87,16.97,11.46"/>
      <path class="cls-6" d="m1490.06,723.6c.13.09.2.13.2.13l26.16,17.44,13.98,8.6,11.73,6.55,10.37,5.16,9.47,4.1,8.57,3.16,8.12,2.47,7.67,1.84,6.77,1.21,6.32.77,5.86.4,3.92.07"/>
    </g>
    <path class="cls-5" d="m1609.2,487.76c-1.34.9-2.33,1.56-2.33,1.56l-9.02,5.27-8.57,4.25-7.67,3.13-6.77,2.21-6.32,1.58-5.86,1.03-5.41.58-5.41.22-5.41-.14-5.86-.56-6.32-1.07-6.77-1.68-7.67-2.55-8.12-3.42-8.57-4.38-9.47-5.69-10.37-7.15-11.73-9.08-13.98-11.93-26.16-24.17s-.07-.06-.2-.19"/>
    <path class="cls-3" d="m169.2,775.52c.85.02,1.5.03,1.5.03l5.41-.16,5.41-.42,5.86-.75,6.32-1.14,6.77-1.59,7.67-2.26,8.57-3.07,9.02-3.8,9.47-4.57,10.83-5.87,12.18-7.27,14.89-9.59s8.7-5.87,16.97-11.46"/>
  </g>
  <g id="Ebene_6" data-name="Ebene 6">
    <text class="cls-7" transform="translate(70.25 89.63)"><tspan x="0" y="0">1</tspan></text>
    <text class="cls-7" transform="translate(70.25 161.63)"><tspan x="0" y="0">0</tspan></text>
    <text class="cls-7" transform="translate(57 233.63)"><tspan x="0" y="0">-1</tspan></text>
    <text class="cls-7" transform="translate(39.23 544.72) rotate(-90)"><tspan x="0" y="0">Amplitude</tspan></text>
    <text class="cls-7" transform="translate(70.25 377.63)"><tspan x="0" y="0">1</tspan></text>
    <text class="cls-7" transform="translate(70.25 449.63)"><tspan x="0" y="0">0</tspan></text>
    <text class="cls-7" transform="translate(57 521.63)"><tspan x="0" y="0">-1</tspan></text>
    <text class="cls-7" transform="translate(70.25 665.63)"><tspan x="0" y="0">1</tspan></text>
    <text class="cls-7" transform="translate(70.25 737.63)"><tspan x="0" y="0">0</tspan></text>
    <text class="cls-7" transform="translate(57 809.63)"><tspan x="0" y="0">-1</tspan></text>
    <text class="cls-7" transform="translate(835.6 350.59)"><tspan x="0" y="0">input</tspan></text>
    <text class="cls-7" transform="translate(793.76 638.59)"><tspan x="0" y="0">low-pass</tspan></text>
    <text class="cls-7" transform="translate(785.58 62.59)"><tspan x="0" y="0">high-pass</tspan></text>
    <text class="cls-7" transform="translate(835.31 993.6)"><tspan x="0" y="0">Time</tspan></text>
    <text class="cls-7" transform="translate(279.93 939.6)"><tspan x="0" y="0">0.3</tspan></text>
    <text class="cls-7" transform="translate(423.93 939.6)"><tspan x="0" y="0">0.6</tspan></text>
    <text class="cls-7" transform="translate(567.93 939.6)"><tspan x="0" y="0">0.9</tspan></text>
    <text class="cls-7" transform="translate(711.93 939.6)"><tspan x="0" y="0">1.2</tspan></text>
    <text class="cls-7" transform="translate(855.93 939.6)"><tspan x="0" y="0">1.5</tspan></text>
    <text class="cls-7" transform="translate(999.93 939.6)"><tspan x="0" y="0">1.8</tspan></text>
    <text class="cls-7" transform="translate(1143.93 939.6)"><tspan x="0" y="0">2.1</tspan></text>
    <text class="cls-7" transform="translate(1287.93 939.6)"><tspan x="0" y="0">2.4</tspan></text>
    <text class="cls-7" transform="translate(1431.93 939.6)"><tspan x="0" y="0">2.7</tspan></text>
    <text class="cls-7" transform="translate(1595.72 939.6)"><tspan x="0" y="0">3</tspan></text>
    <text class="cls-7" transform="translate(155.72 939.6)"><tspan x="0" y="0">0</tspan></text>
  </g>
</svg>