<?xml version="1.0" encoding="UTF-8"?><svg xmlns="http://www.w3.org/2000/svg" viewBox="0 0 907.2 460.8"><defs><style>.uuid-231b8016-1fcc-4975-8630-be1b76c8c433{stroke-width:1.48px;}.uuid-231b8016-1fcc-4975-8630-be1b76c8c433,.uuid-167b64e8-070f-499e-b9b7-b0a3d1a2c0ef{stroke:#7f7f7f;}.uuid-231b8016-1fcc-4975-8630-be1b76c8c433,.uuid-167b64e8-070f-499e-b9b7-b0a3d1a2c0ef,.uuid-97394673-769f-4f77-921f-19a29c311d06{fill:none;stroke-miterlimit:10;}.uuid-ab96862a-e721-4539-b32a-05bc754b4a47{fill:#307eef;opacity:.5;stroke-width:0px;}.uuid-2f8baf4e-90a5-41e5-87b0-bef71a3ae921{fill:#bbc3cb;font-family:Roboto-Regular, Roboto;font-size:24px;}.uuid-167b64e8-070f-499e-b9b7-b0a3d1a2c0ef{stroke-width:2.83px;}.uuid-97394673-769f-4f77-921f-19a29c311d06{stroke:#307eef;stroke-width:5.67px;}</style></defs><g id="uuid-dec16c07-8e8b-40ad-adf9-ae456faadc28"><text class="uuid-2f8baf4e-90a5-41e5-87b0-bef71a3ae921" transform="translate(73.6 432)"><tspan x="0" y="0">20</tspan></text><text class="uuid-2f8baf4e-90a5-41e5-87b0-bef71a3ae921" transform="translate(196 432)"><tspan x="0" y="0">60</tspan></text><text class="uuid-2f8baf4e-90a5-41e5-87b0-bef71a3ae921" transform="translate(325.6 432)"><tspan x="0" y="0">200</tspan></text><text class="uuid-2f8baf4e-90a5-41e5-87b0-bef71a3ae921" transform="translate(520 432)"><tspan x="0" y="0">1k</tspan></text><text class="uuid-2f8baf4e-90a5-41e5-87b0-bef71a3ae921" transform="translate(642.4 432)"><tspan x="0" y="0">3k</tspan></text><text class="uuid-2f8baf4e-90a5-41e5-87b0-bef71a3ae921" transform="translate(847.6 432)"><tspan x="0" y="0">20k</tspan></text><rect class="uuid-167b64e8-070f-499e-b9b7-b0a3d1a2c0ef" x="88" y="28.8" width="792" height="360"/><text class="uuid-2f8baf4e-90a5-41e5-87b0-bef71a3ae921" transform="translate(768.4 432)"><tspan x="0" y="0">10k</tspan></text><text class="uuid-2f8baf4e-90a5-41e5-87b0-bef71a3ae921" transform="translate(44.72 174.32)"><tspan x="0" y="0">+6</tspan></text><text class="uuid-2f8baf4e-90a5-41e5-87b0-bef71a3ae921" transform="translate(31.24 39.32)"><tspan x="0" y="0">+24</tspan></text><line class="uuid-231b8016-1fcc-4975-8630-be1b76c8c433" x1="356.99" y1="29.6" x2="356.99" y2="389.6"/><line class="uuid-231b8016-1fcc-4975-8630-be1b76c8c433" x1="402.85" y1="29.6" x2="402.85" y2="389.6"/><line class="uuid-231b8016-1fcc-4975-8630-be1b76c8c433" x1="435.53" y1="29.6" x2="435.53" y2="389.6"/><line class="uuid-231b8016-1fcc-4975-8630-be1b76c8c433" x1="461.13" y1="29.6" x2="461.13" y2="389.6"/><line class="uuid-231b8016-1fcc-4975-8630-be1b76c8c433" x1="481.58" y1="29.6" x2="481.58" y2="389.6"/><line class="uuid-231b8016-1fcc-4975-8630-be1b76c8c433" x1="499.35" y1="29.6" x2="499.35" y2="389.6"/><line class="uuid-231b8016-1fcc-4975-8630-be1b76c8c433" x1="514.26" y1="29.6" x2="514.26" y2="389.6"/><line class="uuid-231b8016-1fcc-4975-8630-be1b76c8c433" x1="528.01" y1="29.6" x2="528.01" y2="389.6"/><line class="uuid-231b8016-1fcc-4975-8630-be1b76c8c433" x1="539.67" y1="29.6" x2="539.67" y2="389.6"/><line class="uuid-231b8016-1fcc-4975-8630-be1b76c8c433" x1="618.21" y1="29.6" x2="618.21" y2="389.6"/><line class="uuid-231b8016-1fcc-4975-8630-be1b76c8c433" x1="664.83" y1="29.6" x2="664.83" y2="389.6"/><line class="uuid-231b8016-1fcc-4975-8630-be1b76c8c433" x1="697.32" y1="29.6" x2="697.32" y2="389.6"/><line class="uuid-231b8016-1fcc-4975-8630-be1b76c8c433" x1="722.92" y1="29.6" x2="722.92" y2="389.6"/><line class="uuid-231b8016-1fcc-4975-8630-be1b76c8c433" x1="743.37" y1="29.6" x2="743.37" y2="389.6"/><line class="uuid-231b8016-1fcc-4975-8630-be1b76c8c433" x1="760.76" y1="29.6" x2="760.76" y2="389.6"/><line class="uuid-231b8016-1fcc-4975-8630-be1b76c8c433" x1="776.05" y1="29.6" x2="776.05" y2="389.6"/><line class="uuid-231b8016-1fcc-4975-8630-be1b76c8c433" x1="789.23" y1="29.6" x2="789.23" y2="389.6"/><line class="uuid-231b8016-1fcc-4975-8630-be1b76c8c433" x1="801.46" y1="29.6" x2="801.46" y2="389.6"/><line class="uuid-231b8016-1fcc-4975-8630-be1b76c8c433" x1="875.41" y1="29.6" x2="875.41" y2="389.6"/><line class="uuid-231b8016-1fcc-4975-8630-be1b76c8c433" x1="880" y1="29.6" x2="880" y2="389.6"/><line class="uuid-167b64e8-070f-499e-b9b7-b0a3d1a2c0ef" x1="88" y1="208.8" x2="880" y2="208.8"/><text class="uuid-2f8baf4e-90a5-41e5-87b0-bef71a3ae921" transform="translate(58.32 219.32)"><tspan x="0" y="0">0</tspan></text><text class="uuid-2f8baf4e-90a5-41e5-87b0-bef71a3ae921" transform="translate(31.24 84.32)"><tspan x="0" y="0">+18</tspan></text><text class="uuid-2f8baf4e-90a5-41e5-87b0-bef71a3ae921" transform="translate(38.23 399.32)"><tspan x="0" y="0">-24</tspan></text><text class="uuid-2f8baf4e-90a5-41e5-87b0-bef71a3ae921" transform="translate(38.23 309.32)"><tspan x="0" y="0">-12</tspan></text><text class="uuid-2f8baf4e-90a5-41e5-87b0-bef71a3ae921" transform="translate(51.7 264.47)"><tspan x="0" y="0">-6</tspan></text><line class="uuid-231b8016-1fcc-4975-8630-be1b76c8c433" x1="95.2" y1="28.8" x2="95.2" y2="388.8"/><line class="uuid-231b8016-1fcc-4975-8630-be1b76c8c433" x1="141.83" y1="28.8" x2="141.83" y2="388.8"/><line class="uuid-231b8016-1fcc-4975-8630-be1b76c8c433" x1="174.31" y1="28.8" x2="174.31" y2="388.8"/><line class="uuid-231b8016-1fcc-4975-8630-be1b76c8c433" x1="199.92" y1="28.8" x2="199.92" y2="388.8"/><line class="uuid-231b8016-1fcc-4975-8630-be1b76c8c433" x1="220.36" y1="28.8" x2="220.36" y2="388.8"/><line class="uuid-231b8016-1fcc-4975-8630-be1b76c8c433" x1="237.75" y1="28.8" x2="237.75" y2="388.8"/><line class="uuid-231b8016-1fcc-4975-8630-be1b76c8c433" x1="253.04" y1="28.8" x2="253.04" y2="388.8"/><line class="uuid-231b8016-1fcc-4975-8630-be1b76c8c433" x1="266.22" y1="28.8" x2="266.22" y2="388.8"/><line class="uuid-231b8016-1fcc-4975-8630-be1b76c8c433" x1="278.45" y1="28.8" x2="278.45" y2="388.8"/><text class="uuid-2f8baf4e-90a5-41e5-87b0-bef71a3ae921" transform="translate(38.23 354.32)"><tspan x="0" y="0">-18</tspan></text><text class="uuid-2f8baf4e-90a5-41e5-87b0-bef71a3ae921" transform="translate(31.24 129.35)"><tspan x="0" y="0">+12</tspan></text></g><g id="uuid-6a5cf46a-9613-4b0b-8439-1dbd6006b5cf"><path class="uuid-ab96862a-e721-4539-b32a-05bc754b4a47" d="M88.39,212.2l-1.99,176.6h792v.8-106.3c-11.42-.04-25.04-.18-43.07-.73-11.27-.34-19.46-.73-23.89-.95-4.94-.25-9.75-.49-16.18-.95-7.13-.51-13.79-.98-22.41-2.01-3.49-.42-11.25-1.4-21.15-3.17-6.44-1.16-16.08-2.91-28.33-6.24-3.57-.97-14.46-4-28.44-9.3-9.69-3.67-8.47-3.74-29.18-12.26-12.61-5.19-19.14-7.66-22.1-8.78-6.49-2.43-12.11-4.54-19.4-6.9-15.08-4.87-27.25-7.54-32.59-8.64-11.24-2.32-19.54-3.37-28.89-4.55-11.25-1.42-19.57-2.08-33.62-3.17,0,0-15.3-1.19-28.12-1.9-80.48-4.48-245.18-2.33-245.18-2.33-37.4.49-50.54.21-169.44.79"/><path class="uuid-97394673-769f-4f77-921f-19a29c311d06" d="M878.4,283.3c-11.42-.04-25.04-.18-43.07-.73-11.27-.34-19.46-.73-23.89-.95-4.94-.25-9.75-.49-16.18-.95-7.13-.51-13.79-.98-22.41-2.01-3.49-.42-11.25-1.4-21.15-3.17-6.44-1.16-16.08-2.91-28.33-6.24-3.57-.97-14.46-4-28.44-9.3-9.69-3.67-8.47-3.74-29.18-12.26-12.61-5.19-19.14-7.66-22.1-8.78-6.49-2.43-12.11-4.54-19.4-6.9-15.08-4.87-27.25-7.54-32.59-8.64-11.24-2.32-19.54-3.37-28.89-4.55-11.25-1.42-19.57-2.08-33.62-3.17,0,0-15.3-1.19-28.12-1.9-80.48-4.48-245.18-2.33-245.18-2.33-37.4.49-50.54.21-169.44.79"/></g></svg>