<?xml version="1.0" encoding="UTF-8"?><svg xmlns="http://www.w3.org/2000/svg" viewBox="0 0 907.2 460.8"><defs><style>.uuid-2f70beba-741d-4908-8d49-c311f30d0f8c{stroke-width:1.48px;}.uuid-2f70beba-741d-4908-8d49-c311f30d0f8c,.uuid-0b8837e7-da09-47b5-9f11-3e747814544e{stroke:#7f7f7f;}.uuid-2f70beba-741d-4908-8d49-c311f30d0f8c,.uuid-0b8837e7-da09-47b5-9f11-3e747814544e,.uuid-4eae62b8-6f3e-4aa0-986f-1e32ea7d3a57{fill:none;stroke-miterlimit:10;}.uuid-0cdcd63d-1a26-4256-a052-c8b35523b2ba{fill:#307eef;opacity:.5;stroke-width:0px;}.uuid-0768a0e6-a577-47a6-9d94-9573e0b73a5f{fill:#bbc3cb;font-family:Roboto-Regular, Roboto;font-size:24px;}.uuid-0b8837e7-da09-47b5-9f11-3e747814544e{stroke-width:2.83px;}.uuid-4eae62b8-6f3e-4aa0-986f-1e32ea7d3a57{stroke:#307eef;stroke-width:5.67px;}</style></defs><g id="uuid-b7044618-93b3-4c76-b468-708fcf61bd08"><text class="uuid-0768a0e6-a577-47a6-9d94-9573e0b73a5f" transform="translate(72 432)"><tspan x="0" y="0">20</tspan></text><text class="uuid-0768a0e6-a577-47a6-9d94-9573e0b73a5f" transform="translate(194.4 432)"><tspan x="0" y="0">60</tspan></text><text class="uuid-0768a0e6-a577-47a6-9d94-9573e0b73a5f" transform="translate(324 432)"><tspan x="0" y="0">200</tspan></text><text class="uuid-0768a0e6-a577-47a6-9d94-9573e0b73a5f" transform="translate(518.4 432)"><tspan x="0" y="0">1k</tspan></text><text class="uuid-0768a0e6-a577-47a6-9d94-9573e0b73a5f" transform="translate(640.8 432)"><tspan x="0" y="0">3k</tspan></text><text class="uuid-0768a0e6-a577-47a6-9d94-9573e0b73a5f" transform="translate(846 432)"><tspan x="0" y="0">20k</tspan></text><rect class="uuid-0b8837e7-da09-47b5-9f11-3e747814544e" x="86.4" y="28.8" width="792" height="360"/><text class="uuid-0768a0e6-a577-47a6-9d94-9573e0b73a5f" transform="translate(766.8 432)"><tspan x="0" y="0">10k</tspan></text><text class="uuid-0768a0e6-a577-47a6-9d94-9573e0b73a5f" transform="translate(43.12 174.32)"><tspan x="0" y="0">+6</tspan></text><text class="uuid-0768a0e6-a577-47a6-9d94-9573e0b73a5f" transform="translate(29.64 39.32)"><tspan x="0" y="0">+24</tspan></text><line class="uuid-2f70beba-741d-4908-8d49-c311f30d0f8c" x1="355.39" y1="29.6" x2="355.39" y2="389.6"/><line class="uuid-2f70beba-741d-4908-8d49-c311f30d0f8c" x1="401.25" y1="29.6" x2="401.25" y2="389.6"/><line class="uuid-2f70beba-741d-4908-8d49-c311f30d0f8c" x1="433.93" y1="29.6" x2="433.93" y2="389.6"/><line class="uuid-2f70beba-741d-4908-8d49-c311f30d0f8c" x1="459.53" y1="29.6" x2="459.53" y2="389.6"/><line class="uuid-2f70beba-741d-4908-8d49-c311f30d0f8c" x1="479.98" y1="29.6" x2="479.98" y2="389.6"/><line class="uuid-2f70beba-741d-4908-8d49-c311f30d0f8c" x1="497.75" y1="29.6" x2="497.75" y2="389.6"/><line class="uuid-2f70beba-741d-4908-8d49-c311f30d0f8c" x1="512.66" y1="29.6" x2="512.66" y2="389.6"/><line class="uuid-2f70beba-741d-4908-8d49-c311f30d0f8c" x1="526.42" y1="29.6" x2="526.42" y2="389.6"/><line class="uuid-2f70beba-741d-4908-8d49-c311f30d0f8c" x1="538.07" y1="29.6" x2="538.07" y2="389.6"/><line class="uuid-2f70beba-741d-4908-8d49-c311f30d0f8c" x1="616.61" y1="29.6" x2="616.61" y2="389.6"/><line class="uuid-2f70beba-741d-4908-8d49-c311f30d0f8c" x1="663.23" y1="29.6" x2="663.23" y2="389.6"/><line class="uuid-2f70beba-741d-4908-8d49-c311f30d0f8c" x1="695.72" y1="29.6" x2="695.72" y2="389.6"/><line class="uuid-2f70beba-741d-4908-8d49-c311f30d0f8c" x1="721.33" y1="29.6" x2="721.33" y2="389.6"/><line class="uuid-2f70beba-741d-4908-8d49-c311f30d0f8c" x1="741.77" y1="29.6" x2="741.77" y2="389.6"/><line class="uuid-2f70beba-741d-4908-8d49-c311f30d0f8c" x1="759.16" y1="29.6" x2="759.16" y2="389.6"/><line class="uuid-2f70beba-741d-4908-8d49-c311f30d0f8c" x1="774.45" y1="29.6" x2="774.45" y2="389.6"/><line class="uuid-2f70beba-741d-4908-8d49-c311f30d0f8c" x1="787.63" y1="29.6" x2="787.63" y2="389.6"/><line class="uuid-2f70beba-741d-4908-8d49-c311f30d0f8c" x1="799.86" y1="29.6" x2="799.86" y2="389.6"/><line class="uuid-2f70beba-741d-4908-8d49-c311f30d0f8c" x1="873.81" y1="29.6" x2="873.81" y2="389.6"/><line class="uuid-2f70beba-741d-4908-8d49-c311f30d0f8c" x1="878.4" y1="29.6" x2="878.4" y2="389.6"/><line class="uuid-0b8837e7-da09-47b5-9f11-3e747814544e" x1="86.4" y1="208.8" x2="878.4" y2="208.8"/><text class="uuid-0768a0e6-a577-47a6-9d94-9573e0b73a5f" transform="translate(56.72 219.32)"><tspan x="0" y="0">0</tspan></text><text class="uuid-0768a0e6-a577-47a6-9d94-9573e0b73a5f" transform="translate(29.64 84.32)"><tspan x="0" y="0">+18</tspan></text><text class="uuid-0768a0e6-a577-47a6-9d94-9573e0b73a5f" transform="translate(36.63 399.32)"><tspan x="0" y="0">-24</tspan></text><text class="uuid-0768a0e6-a577-47a6-9d94-9573e0b73a5f" transform="translate(36.63 309.32)"><tspan x="0" y="0">-12</tspan></text><text class="uuid-0768a0e6-a577-47a6-9d94-9573e0b73a5f" transform="translate(50.1 264.47)"><tspan x="0" y="0">-6</tspan></text><line class="uuid-2f70beba-741d-4908-8d49-c311f30d0f8c" x1="93.6" y1="28.8" x2="93.6" y2="388.8"/><line class="uuid-2f70beba-741d-4908-8d49-c311f30d0f8c" x1="140.23" y1="28.8" x2="140.23" y2="388.8"/><line class="uuid-2f70beba-741d-4908-8d49-c311f30d0f8c" x1="172.71" y1="28.8" x2="172.71" y2="388.8"/><line class="uuid-2f70beba-741d-4908-8d49-c311f30d0f8c" x1="198.32" y1="28.8" x2="198.32" y2="388.8"/><line class="uuid-2f70beba-741d-4908-8d49-c311f30d0f8c" x1="218.76" y1="28.8" x2="218.76" y2="388.8"/><line class="uuid-2f70beba-741d-4908-8d49-c311f30d0f8c" x1="236.15" y1="28.8" x2="236.15" y2="388.8"/><line class="uuid-2f70beba-741d-4908-8d49-c311f30d0f8c" x1="251.44" y1="28.8" x2="251.44" y2="388.8"/><line class="uuid-2f70beba-741d-4908-8d49-c311f30d0f8c" x1="264.62" y1="28.8" x2="264.62" y2="388.8"/><line class="uuid-2f70beba-741d-4908-8d49-c311f30d0f8c" x1="276.85" y1="28.8" x2="276.85" y2="388.8"/><text class="uuid-0768a0e6-a577-47a6-9d94-9573e0b73a5f" transform="translate(36.63 354.32)"><tspan x="0" y="0">-18</tspan></text><text class="uuid-0768a0e6-a577-47a6-9d94-9573e0b73a5f" transform="translate(29.64 129.35)"><tspan x="0" y="0">+12</tspan></text></g><g id="uuid-70884eb5-af77-4360-b76a-9d69640ee9cc"><path class="uuid-0cdcd63d-1a26-4256-a052-c8b35523b2ba" d="M881.64,138.49c-11.42.04-28.28.19-46.31.74-11.27.34-19.46.73-23.89.95-4.94.25-9.75.49-16.18.95-7.13.51-13.79.98-22.41,2.01-3.49.42-11.25,1.4-21.15,3.17-6.44,1.16-16.08,2.91-28.33,6.24-3.57.97-14.46,4-28.44,9.3-9.69,3.67-8.47,3.74-29.18,12.26-12.61,5.19-19.14,7.66-22.1,8.78-6.49,2.43-12.11,4.54-19.4,6.9-15.08,4.87-27.25,7.54-32.59,8.64-11.24,2.32-19.54,3.37-28.89,4.55-11.25,1.42-19.57,2.08-33.62,3.17,0,0-15.3,1.19-28.12,1.9-80.48,4.48-245.18,2.33-245.18,2.33-37.4-.49-50.54-.21-169.44-.79v179.2l792,.8v-251.09"/><path class="uuid-4eae62b8-6f3e-4aa0-986f-1e32ea7d3a57" d="M878.4,138.51c-11.42.04-25.04.18-43.07.73-11.27.34-19.46.73-23.89.95-4.94.25-9.75.49-16.18.95-7.13.51-13.79.98-22.41,2.01-3.49.42-11.25,1.4-21.15,3.17-6.44,1.16-16.08,2.91-28.33,6.24-3.57.97-14.46,4-28.44,9.3-9.69,3.67-8.47,3.74-29.18,12.26-12.61,5.19-19.14,7.66-22.1,8.78-6.49,2.43-12.11,4.54-19.4,6.9-15.08,4.87-27.25,7.54-32.59,8.64-11.24,2.32-19.54,3.37-28.89,4.55-11.25,1.42-19.57,2.08-33.62,3.17,0,0-15.3,1.19-28.12,1.9-80.48,4.48-245.18,2.33-245.18,2.33-37.4-.49-50.54-.21-169.44-.79"/></g></svg>