<?xml version="1.0" encoding="UTF-8"?>
<svg id="Ebene_1" data-name="Ebene 1" xmlns="http://www.w3.org/2000/svg" width="907.2" height="460.8" viewBox="0 0 907.2 460.8">
  <rect x="86.4" y="28.8" width="792" height="360" fill="none" stroke="#7f7f7f" stroke-miterlimit="10" stroke-width="2.83"/>
  <g isolation="isolate">
    <g isolation="isolate">
      <path d="m50.972,165.167h4.758v2.051h-4.758v5.391h-2.18v-5.391h-4.758v-2.051h4.758v-4.98h2.18v4.98Z" fill="#bbc3cb"/>
      <path d="m66.651,157.246v1.84h-.398c-1.688.031-3.031.531-4.031,1.5s-1.578,2.332-1.734,4.09c.898-1.031,2.125-1.547,3.68-1.547,1.484,0,2.67.523,3.557,1.57s1.33,2.398,1.33,4.055c0,1.758-.479,3.164-1.436,4.219s-2.24,1.582-3.85,1.582c-1.633,0-2.957-.627-3.973-1.881s-1.523-2.869-1.523-4.846v-.832c0-3.141.67-5.541,2.01-7.201s3.334-2.51,5.982-2.549h.387Zm-2.848,7.688c-.742,0-1.426.223-2.051.668s-1.059,1.004-1.301,1.676v.797c0,1.406.316,2.539.949,3.398s1.422,1.289,2.367,1.289c.977,0,1.744-.359,2.303-1.078s.838-1.66.838-2.824c0-1.172-.283-2.119-.85-2.842s-1.318-1.084-2.256-1.084Z" fill="#bbc3cb"/>
    </g>
  </g>
  <g isolation="isolate">
    <g isolation="isolate">
      <path d="m37.492,30.167h4.758v2.051h-4.758v5.391h-2.18v-5.391h-4.758v-2.051h4.758v-4.98h2.18v4.98Z" fill="#bbc3cb"/>
      <path d="m55.843,39.32h-11.18v-1.559l5.906-6.562c.875-.992,1.479-1.799,1.811-2.42s.498-1.264.498-1.928c0-.891-.27-1.621-.809-2.191s-1.258-.855-2.156-.855c-1.078,0-1.916.307-2.514.92s-.896,1.467-.896,2.561h-2.168c0-1.57.506-2.84,1.518-3.809s2.365-1.453,4.061-1.453c1.586,0,2.84.416,3.762,1.248s1.383,1.939,1.383,3.322c0,1.68-1.07,3.68-3.211,6l-4.57,4.957h8.566v1.77Z" fill="#bbc3cb"/>
      <path d="m67.292,33.589h2.367v1.77h-2.367v3.961h-2.18v-3.961h-7.77v-1.277l7.641-11.824h2.309v11.332Zm-7.488,0h5.309v-8.367l-.258.469-5.051,7.898Z" fill="#bbc3cb"/>
    </g>
  </g>
  <line x1="355.39" y1="29.6" x2="355.39" y2="389.6" fill="none" stroke="#7f7f7f" stroke-miterlimit="10" stroke-width="1.48"/>
  <line x1="401.25" y1="29.6" x2="401.25" y2="389.6" fill="none" stroke="#7f7f7f" stroke-miterlimit="10" stroke-width="1.48"/>
  <line x1="433.93" y1="29.6" x2="433.93" y2="389.6" fill="none" stroke="#7f7f7f" stroke-miterlimit="10" stroke-width="1.48"/>
  <line x1="459.53" y1="29.6" x2="459.53" y2="389.6" fill="none" stroke="#7f7f7f" stroke-miterlimit="10" stroke-width="1.48"/>
  <line x1="479.98" y1="29.6" x2="479.98" y2="389.6" fill="none" stroke="#7f7f7f" stroke-miterlimit="10" stroke-width="1.48"/>
  <line x1="497.75" y1="29.6" x2="497.75" y2="389.6" fill="none" stroke="#7f7f7f" stroke-miterlimit="10" stroke-width="1.48"/>
  <line x1="512.66" y1="29.6" x2="512.66" y2="389.6" fill="none" stroke="#7f7f7f" stroke-miterlimit="10" stroke-width="1.48"/>
  <line x1="526.42" y1="29.6" x2="526.42" y2="389.6" fill="none" stroke="#7f7f7f" stroke-miterlimit="10" stroke-width="1.48"/>
  <line x1="538.07" y1="29.6" x2="538.07" y2="389.6" fill="none" stroke="#7f7f7f" stroke-miterlimit="10" stroke-width="1.48"/>
  <line x1="616.61" y1="29.6" x2="616.61" y2="389.6" fill="none" stroke="#7f7f7f" stroke-miterlimit="10" stroke-width="1.48"/>
  <line x1="663.23" y1="29.6" x2="663.23" y2="389.6" fill="none" stroke="#7f7f7f" stroke-miterlimit="10" stroke-width="1.48"/>
  <line x1="695.72" y1="29.6" x2="695.72" y2="389.6" fill="none" stroke="#7f7f7f" stroke-miterlimit="10" stroke-width="1.48"/>
  <line x1="721.33" y1="29.6" x2="721.33" y2="389.6" fill="none" stroke="#7f7f7f" stroke-miterlimit="10" stroke-width="1.48"/>
  <line x1="741.77" y1="29.6" x2="741.77" y2="389.6" fill="none" stroke="#7f7f7f" stroke-miterlimit="10" stroke-width="1.48"/>
  <line x1="759.16" y1="29.6" x2="759.16" y2="389.6" fill="none" stroke="#7f7f7f" stroke-miterlimit="10" stroke-width="1.48"/>
  <line x1="774.45" y1="29.6" x2="774.45" y2="389.6" fill="none" stroke="#7f7f7f" stroke-miterlimit="10" stroke-width="1.48"/>
  <line x1="787.63" y1="29.6" x2="787.63" y2="389.6" fill="none" stroke="#7f7f7f" stroke-miterlimit="10" stroke-width="1.48"/>
  <line x1="799.86" y1="29.6" x2="799.86" y2="389.6" fill="none" stroke="#7f7f7f" stroke-miterlimit="10" stroke-width="1.48"/>
  <line x1="873.81" y1="29.6" x2="873.81" y2="389.6" fill="none" stroke="#7f7f7f" stroke-miterlimit="10" stroke-width="1.48"/>
  <line x1="878.4" y1="29.6" x2="878.4" y2="389.6" fill="none" stroke="#7f7f7f" stroke-miterlimit="10" stroke-width="1.48"/>
  <line x1="86.4" y1="208.8" x2="878.4" y2="208.8" fill="none" stroke="#7f7f7f" stroke-miterlimit="10" stroke-width="2.83"/>
  <g isolation="isolate">
    <g isolation="isolate">
      <path d="m68.837,212.042c0,2.539-.434,4.426-1.301,5.66s-2.223,1.852-4.066,1.852c-1.82,0-3.168-.604-4.043-1.811s-1.328-3.01-1.359-5.408v-2.895c0-2.508.434-4.371,1.301-5.59s2.227-1.828,4.078-1.828c1.836,0,3.188.588,4.055,1.764s1.312,2.99,1.336,5.443v2.812Zm-2.168-2.965c0-1.836-.258-3.174-.773-4.014s-1.332-1.26-2.449-1.26c-1.109,0-1.918.418-2.426,1.254s-.77,2.121-.785,3.855v3.469c0,1.844.268,3.205.803,4.084s1.346,1.318,2.432,1.318c1.07,0,1.865-.414,2.385-1.242s.791-2.133.814-3.914v-3.551Z" fill="#bbc3cb"/>
    </g>
  </g>
  <g isolation="isolate">
    <g isolation="isolate">
      <path d="m37.492,75.167h4.758v2.051h-4.758v5.391h-2.18v-5.391h-4.758v-2.051h4.758v-4.98h2.18v4.98Z" fill="#bbc3cb"/>
      <path d="m51.789,84.32h-2.18v-14.449l-4.371,1.605v-1.969l6.211-2.332h.34v17.145Z" fill="#bbc3cb"/>
      <path d="m68.488,71.71c0,.852-.225,1.609-.674,2.273s-1.057,1.184-1.822,1.559c.891.383,1.596.941,2.115,1.676s.779,1.566.779,2.496c0,1.477-.498,2.652-1.494,3.527s-2.307,1.312-3.932,1.312c-1.641,0-2.955-.439-3.943-1.318s-1.482-2.053-1.482-3.521c0-.922.252-1.754.756-2.496s1.201-1.305,2.092-1.688c-.758-.375-1.355-.895-1.793-1.559s-.656-1.418-.656-2.262c0-1.438.461-2.578,1.383-3.422s2.137-1.266,3.645-1.266c1.5,0,2.713.422,3.639,1.266s1.389,1.984,1.389,3.422Zm-1.77,7.957c0-.953-.303-1.73-.908-2.332s-1.396-.902-2.373-.902-1.76.297-2.35.891-.885,1.375-.885,2.344.287,1.73.861,2.285,1.373.832,2.396.832c1.016,0,1.812-.279,2.391-.838s.867-1.318.867-2.279Zm-3.258-10.863c-.852,0-1.541.264-2.068.791s-.791,1.244-.791,2.15c0,.867.26,1.568.779,2.104s1.213.803,2.08.803,1.561-.268,2.08-.803.779-1.236.779-2.104-.27-1.574-.809-2.121-1.223-.82-2.051-.82Z" fill="#bbc3cb"/>
    </g>
  </g>
  <g isolation="isolate">
    <g isolation="isolate">
      <path d="m42.782,392.957h-5.719v-1.77h5.719v1.77Z" fill="#bbc3cb"/>
      <path d="m55.849,399.32h-11.18v-1.559l5.906-6.562c.875-.992,1.479-1.799,1.811-2.42s.498-1.264.498-1.928c0-.891-.27-1.621-.809-2.191s-1.258-.855-2.156-.855c-1.078,0-1.916.307-2.514.92s-.896,1.467-.896,2.561h-2.168c0-1.57.506-2.84,1.518-3.809s2.365-1.453,4.061-1.453c1.586,0,2.84.416,3.762,1.248s1.383,1.939,1.383,3.322c0,1.68-1.07,3.68-3.211,6l-4.57,4.957h8.566v1.77Z" fill="#bbc3cb"/>
      <path d="m67.298,393.59h2.367v1.77h-2.367v3.961h-2.18v-3.961h-7.77v-1.277l7.641-11.824h2.309v11.332Zm-7.488,0h5.309v-8.367l-.258.469-5.051,7.898Z" fill="#bbc3cb"/>
    </g>
  </g>
  <g isolation="isolate">
    <g isolation="isolate">
      <path d="m42.782,302.957h-5.719v-1.77h5.719v1.77Z" fill="#bbc3cb"/>
      <path d="m51.794,309.32h-2.18v-14.449l-4.371,1.605v-1.969l6.211-2.332h.34v17.145Z" fill="#bbc3cb"/>
      <path d="m69.325,309.32h-11.18v-1.559l5.906-6.562c.875-.992,1.479-1.799,1.811-2.42s.498-1.264.498-1.928c0-.891-.27-1.621-.809-2.191s-1.258-.855-2.156-.855c-1.078,0-1.916.307-2.514.92s-.896,1.467-.896,2.561h-2.168c0-1.57.506-2.84,1.518-3.809s2.365-1.453,4.061-1.453c1.586,0,2.84.416,3.762,1.248s1.383,1.939,1.383,3.322c0,1.68-1.07,3.68-3.211,6l-4.57,4.957h8.566v1.77Z" fill="#bbc3cb"/>
    </g>
  </g>
  <g isolation="isolate">
    <g isolation="isolate">
      <path d="m56.252,258.106h-5.719v-1.77h5.719v1.77Z" fill="#bbc3cb"/>
      <path d="m66.647,247.396v1.84h-.398c-1.688.031-3.031.531-4.031,1.5s-1.578,2.332-1.734,4.09c.898-1.031,2.125-1.547,3.68-1.547,1.484,0,2.67.523,3.557,1.57s1.33,2.398,1.33,4.055c0,1.758-.479,3.164-1.436,4.219s-2.24,1.582-3.85,1.582c-1.633,0-2.957-.627-3.973-1.881s-1.523-2.869-1.523-4.846v-.832c0-3.141.67-5.541,2.01-7.201s3.334-2.51,5.982-2.549h.387Zm-2.848,7.688c-.742,0-1.426.223-2.051.668s-1.059,1.004-1.301,1.676v.797c0,1.406.316,2.539.949,3.398s1.422,1.289,2.367,1.289c.977,0,1.744-.359,2.303-1.078s.838-1.66.838-2.824c0-1.172-.283-2.119-.85-2.842s-1.318-1.084-2.256-1.084Z" fill="#bbc3cb"/>
    </g>
  </g>
  <line x1="93.6" y1="28.8" x2="93.6" y2="388.8" fill="none" stroke="#7f7f7f" stroke-miterlimit="10" stroke-width="1.48"/>
  <line x1="140.23" y1="28.8" x2="140.23" y2="388.8" fill="none" stroke="#7f7f7f" stroke-miterlimit="10" stroke-width="1.48"/>
  <line x1="172.71" y1="28.8" x2="172.71" y2="388.8" fill="none" stroke="#7f7f7f" stroke-miterlimit="10" stroke-width="1.48"/>
  <line x1="198.32" y1="28.8" x2="198.32" y2="388.8" fill="none" stroke="#7f7f7f" stroke-miterlimit="10" stroke-width="1.48"/>
  <line x1="218.76" y1="28.8" x2="218.76" y2="388.8" fill="none" stroke="#7f7f7f" stroke-miterlimit="10" stroke-width="1.48"/>
  <line x1="236.15" y1="28.8" x2="236.15" y2="388.8" fill="none" stroke="#7f7f7f" stroke-miterlimit="10" stroke-width="1.48"/>
  <line x1="251.44" y1="28.8" x2="251.44" y2="388.8" fill="none" stroke="#7f7f7f" stroke-miterlimit="10" stroke-width="1.48"/>
  <line x1="264.62" y1="28.8" x2="264.62" y2="388.8" fill="none" stroke="#7f7f7f" stroke-miterlimit="10" stroke-width="1.48"/>
  <line x1="276.85" y1="28.8" x2="276.85" y2="388.8" fill="none" stroke="#7f7f7f" stroke-miterlimit="10" stroke-width="1.48"/>
  <g isolation="isolate">
    <g isolation="isolate">
      <path d="m42.782,347.957h-5.719v-1.77h5.719v1.77Z" fill="#bbc3cb"/>
      <path d="m51.794,354.32h-2.18v-14.449l-4.371,1.605v-1.969l6.211-2.332h.34v17.145Z" fill="#bbc3cb"/>
      <path d="m68.493,341.711c0,.852-.225,1.609-.674,2.273s-1.057,1.184-1.822,1.559c.891.383,1.596.941,2.115,1.676s.779,1.566.779,2.496c0,1.477-.498,2.652-1.494,3.527s-2.307,1.312-3.932,1.312c-1.641,0-2.955-.439-3.943-1.318s-1.482-2.053-1.482-3.521c0-.922.252-1.754.756-2.496s1.201-1.305,2.092-1.688c-.758-.375-1.355-.895-1.793-1.559s-.656-1.418-.656-2.262c0-1.438.461-2.578,1.383-3.422s2.137-1.266,3.645-1.266c1.5,0,2.713.422,3.639,1.266s1.389,1.984,1.389,3.422Zm-1.77,7.957c0-.953-.303-1.73-.908-2.332s-1.396-.902-2.373-.902-1.76.297-2.35.891-.885,1.375-.885,2.344.287,1.73.861,2.285,1.373.832,2.396.832c1.016,0,1.812-.279,2.391-.838s.867-1.318.867-2.279Zm-3.258-10.863c-.852,0-1.541.264-2.068.791s-.791,1.244-.791,2.15c0,.867.26,1.568.779,2.104s1.213.803,2.08.803,1.561-.268,2.08-.803.779-1.236.779-2.104-.27-1.574-.809-2.121-1.223-.82-2.051-.82Z" fill="#bbc3cb"/>
    </g>
  </g>
  <g isolation="isolate">
    <g isolation="isolate">
      <path d="m37.492,120.198h4.758v2.051h-4.758v5.391h-2.18v-5.391h-4.758v-2.051h4.758v-4.98h2.18v4.98Z" fill="#bbc3cb"/>
      <path d="m51.789,129.35h-2.18v-14.449l-4.371,1.605v-1.969l6.211-2.332h.34v17.145Z" fill="#bbc3cb"/>
      <path d="m69.32,129.35h-11.18v-1.559l5.906-6.562c.875-.992,1.479-1.799,1.811-2.42s.498-1.264.498-1.928c0-.891-.27-1.621-.809-2.191s-1.258-.855-2.156-.855c-1.078,0-1.916.307-2.514.92s-.896,1.467-.896,2.561h-2.168c0-1.57.506-2.84,1.518-3.809s2.365-1.453,4.061-1.453c1.586,0,2.84.416,3.762,1.248s1.383,1.939,1.383,3.322c0,1.68-1.07,3.68-3.211,6l-4.57,4.957h8.566v1.77Z" fill="#bbc3cb"/>
    </g>
  </g>
  <g id="uuid-a09037a9-acfa-4213-911f-ee3a3a2a9f02">
    <path d="m125.96,388.8c29.37-34.31,52.04-60.44,67.08-78.07,2.26-2.65,6.29-7.37,11.89-13.64,22.92-25.61,40.49-41.55,54.4-52.65,5.49-4.38,12.6-9.77,22.52-15.07,5.95-3.18,12.27-5.76,14.43-6.66,3.23-1.35,8.3-3.46,13.96-5.23,9.18-2.88,16.8-3.88,21.73-4.44,48.42-5.46,69.89-4.97,69.89-4.97,34.78.79,220.97.31,477.88,0l-1.34,180.73H125.96Z" fill="#307eef" isolation="isolate" opacity=".5"/>
    <path d="m125.96,388.8c29.37-34.31,52.04-60.44,67.08-78.07,2.26-2.65,6.29-7.37,11.89-13.64,22.92-25.61,40.49-41.55,54.4-52.65,5.49-4.38,12.6-9.77,22.52-15.07,5.95-3.18,12.27-5.76,14.43-6.66,3.23-1.35,8.3-3.46,13.96-5.23,9.18-2.88,16.8-3.88,21.73-4.44,48.42-5.46,69.89-4.97,69.89-4.97,34.78.79,220.97.31,477.88,0" fill="none" stroke="#307eef" stroke-miterlimit="10" stroke-width="5.67"/>
  </g>
  <g>
    <path d="m94.455,432h-11.18v-1.559l5.906-6.562c.875-.992,1.479-1.799,1.811-2.42s.498-1.264.498-1.928c0-.891-.27-1.621-.809-2.191s-1.258-.855-2.156-.855c-1.078,0-1.916.307-2.514.92s-.896,1.467-.896,2.561h-2.168c0-1.57.506-2.84,1.518-3.809s2.365-1.453,4.061-1.453c1.586,0,2.84.416,3.762,1.248s1.383,1.939,1.383,3.322c0,1.68-1.07,3.68-3.211,6l-4.57,4.957h8.566v1.77h0Z" fill="#bbc3cb"/>
    <path d="m107.451,424.723c0,2.539-.434,4.426-1.301,5.66s-2.223,1.852-4.066,1.852c-1.82,0-3.168-.604-4.043-1.811s-1.328-3.01-1.359-5.408v-2.895c0-2.508.434-4.371,1.301-5.59s2.227-1.828,4.078-1.828c1.836,0,3.188.588,4.055,1.764s1.312,2.99,1.336,5.443v2.812h0Zm-2.168-2.965c0-1.836-.258-3.174-.773-4.014s-1.332-1.26-2.449-1.26c-1.109,0-1.918.418-2.426,1.254s-.77,2.121-.785,3.855v3.469c0,1.844.268,3.205.803,4.084s1.346,1.318,2.432,1.318c1.07,0,1.865-.414,2.385-1.242s.791-2.133.814-3.914v-3.551h0Z" fill="#bbc3cb"/>
  </g>
  <g>
    <path d="m216.715,414.926v1.84h-.398c-1.688.031-3.031.531-4.031,1.5s-1.578,2.332-1.734,4.09c.898-1.031,2.125-1.547,3.68-1.547,1.484,0,2.67.523,3.557,1.57s1.33,2.398,1.33,4.055c0,1.758-.479,3.164-1.436,4.219s-2.24,1.582-3.85,1.582c-1.633,0-2.957-.627-3.973-1.881s-1.523-2.869-1.523-4.846v-.832c0-3.141.67-5.541,2.01-7.201s3.334-2.51,5.982-2.549h.387,0Zm-2.848,7.688c-.742,0-1.426.223-2.051.668s-1.059,1.004-1.301,1.676v.797c0,1.406.316,2.539.949,3.398s1.422,1.289,2.367,1.289c.977,0,1.744-.359,2.303-1.078s.838-1.66.838-2.824c0-1.172-.283-2.119-.85-2.842s-1.318-1.084-2.256-1.084h0Z" fill="#bbc3cb"/>
    <path d="m232.382,424.723c0,2.539-.434,4.426-1.301,5.66s-2.223,1.852-4.066,1.852c-1.82,0-3.168-.604-4.043-1.811s-1.328-3.01-1.359-5.408v-2.895c0-2.508.434-4.371,1.301-5.59s2.227-1.828,4.078-1.828c1.836,0,3.188.588,4.055,1.764s1.312,2.99,1.336,5.443v2.812h-.001Zm-2.168-2.965c0-1.836-.258-3.174-.773-4.014s-1.332-1.26-2.449-1.26c-1.109,0-1.918.418-2.426,1.254s-.77,2.121-.785,3.855v3.469c0,1.844.268,3.205.803,4.084s1.346,1.318,2.432,1.318c1.07,0,1.865-.414,2.385-1.242s.791-2.133.814-3.914v-3.551h0Z" fill="#bbc3cb"/>
  </g>
  <g>
    <path d="m349.507,432h-11.18v-1.559l5.906-6.562c.875-.992,1.479-1.799,1.811-2.42s.498-1.264.498-1.928c0-.891-.27-1.621-.809-2.191s-1.258-.855-2.156-.855c-1.078,0-1.916.307-2.514.92s-.896,1.467-.896,2.561h-2.168c0-1.57.506-2.84,1.518-3.809s2.365-1.453,4.061-1.453c1.586,0,2.84.416,3.762,1.248s1.383,1.939,1.383,3.322c0,1.68-1.07,3.68-3.211,6l-4.57,4.957h8.566v1.77h-.001Z" fill="#bbc3cb"/>
    <path d="m362.503,424.723c0,2.539-.434,4.426-1.301,5.66s-2.223,1.852-4.066,1.852c-1.82,0-3.168-.604-4.043-1.811s-1.328-3.01-1.359-5.408v-2.895c0-2.508.434-4.371,1.301-5.59s2.227-1.828,4.078-1.828c1.836,0,3.188.588,4.055,1.764s1.312,2.99,1.336,5.443v2.812h0Zm-2.168-2.965c0-1.836-.258-3.174-.773-4.014s-1.332-1.26-2.449-1.26c-1.109,0-1.918.418-2.426,1.254s-.77,2.121-.785,3.855v3.469c0,1.844.268,3.205.803,4.084s1.346,1.318,2.432,1.318c1.07,0,1.865-.414,2.385-1.242s.791-2.133.814-3.914v-3.551h-.001Z" fill="#bbc3cb"/>
    <path d="m375.98,424.723c0,2.539-.434,4.426-1.301,5.66s-2.223,1.852-4.066,1.852c-1.82,0-3.168-.604-4.043-1.811s-1.328-3.01-1.359-5.408v-2.895c0-2.508.434-4.371,1.301-5.59s2.227-1.828,4.078-1.828c1.836,0,3.188.588,4.055,1.764s1.312,2.99,1.336,5.443v2.812h0Zm-2.168-2.965c0-1.836-.258-3.174-.773-4.014s-1.332-1.26-2.449-1.26c-1.109,0-1.918.418-2.426,1.254s-.77,2.121-.785,3.855v3.469c0,1.844.268,3.205.803,4.084s1.346,1.318,2.432,1.318c1.07,0,1.865-.414,2.385-1.242s.791-2.133.814-3.914v-3.551h-.001Z" fill="#bbc3cb"/>
  </g>
  <g>
    <path d="m534.409,432h-2.18v-14.449l-4.371,1.605v-1.969l6.211-2.332h.34v17.145h0Z" fill="#bbc3cb"/>
    <path d="m544.521,426.129l-1.359,1.418v4.453h-2.168v-18h2.168v10.887l1.16-1.395,3.949-4.172h2.637l-4.934,5.297,5.508,7.383h-2.543l-4.418-5.871h0Z" fill="#bbc3cb"/>
  </g>
  <g>
    <path d="m656.041,422.414h1.629c1.023-.016,1.828-.285,2.414-.809s.879-1.23.879-2.121c0-2-.996-3-2.988-3-.938,0-1.686.268-2.244.803s-.838,1.244-.838,2.127h-2.168c0-1.352.494-2.475,1.482-3.369s2.244-1.342,3.768-1.342c1.609,0,2.871.426,3.785,1.277s1.371,2.035,1.371,3.551c0,.742-.24,1.461-.721,2.156s-1.135,1.215-1.963,1.559c.938.297,1.662.789,2.174,1.477s.768,1.527.768,2.52c0,1.531-.5,2.746-1.5,3.645s-2.301,1.348-3.902,1.348-2.904-.434-3.908-1.301-1.506-2.012-1.506-3.434h2.18c0,.898.293,1.617.879,2.156s1.371.809,2.355.809c1.047,0,1.848-.273,2.402-.82s.832-1.332.832-2.355c0-.992-.305-1.754-.914-2.285s-1.488-.805-2.637-.82h-1.629v-1.772Z" fill="#bbc3cb"/>
    <path d="m670.127,426.129l-1.359,1.418v4.453h-2.168v-18h2.168v10.887l1.16-1.395,3.949-4.172h2.637l-4.934,5.297,5.508,7.383h-2.543l-4.418-5.871h0Z" fill="#bbc3cb"/>
  </g>
  <g>
    <path d="m867.916,432h-11.18v-1.559l5.906-6.562c.875-.992,1.479-1.799,1.811-2.42s.498-1.264.498-1.928c0-.891-.27-1.621-.809-2.191s-1.258-.855-2.156-.855c-1.078,0-1.916.307-2.514.92s-.896,1.467-.896,2.561h-2.168c0-1.57.506-2.84,1.518-3.809s2.365-1.453,4.061-1.453c1.586,0,2.84.416,3.762,1.248s1.383,1.939,1.383,3.322c0,1.68-1.07,3.68-3.211,6l-4.57,4.957h8.566v1.77h0Z" fill="#bbc3cb"/>
    <path d="m880.912,424.723c0,2.539-.434,4.426-1.301,5.66s-2.223,1.852-4.066,1.852c-1.82,0-3.168-.604-4.043-1.811s-1.328-3.01-1.359-5.408v-2.895c0-2.508.434-4.371,1.301-5.59s2.227-1.828,4.078-1.828c1.836,0,3.188.588,4.055,1.764s1.312,2.99,1.336,5.443v2.812h0Zm-2.168-2.965c0-1.836-.258-3.174-.773-4.014s-1.332-1.26-2.449-1.26c-1.109,0-1.918.418-2.426,1.254s-.77,2.121-.785,3.855v3.469c0,1.844.268,3.205.803,4.084s1.346,1.318,2.432,1.318c1.07,0,1.865-.414,2.385-1.242s.791-2.133.814-3.914v-3.551h-.001Z" fill="#bbc3cb"/>
    <path d="m887.451,426.129l-1.359,1.418v4.453h-2.168v-18h2.168v10.887l1.16-1.395,3.949-4.172h2.637l-4.934,5.297,5.508,7.383h-2.543l-4.418-5.871h0Z" fill="#bbc3cb"/>
  </g>
  <g>
    <path d="m789.46,432h-2.18v-14.449l-4.371,1.605v-1.969l6.211-2.332h.34v17.145h0Z" fill="#bbc3cb"/>
    <path d="m806.511,424.723c0,2.539-.434,4.426-1.301,5.66s-2.223,1.852-4.066,1.852c-1.82,0-3.168-.604-4.043-1.811s-1.328-3.01-1.359-5.408v-2.895c0-2.508.434-4.371,1.301-5.59s2.227-1.828,4.078-1.828c1.836,0,3.188.588,4.055,1.764s1.312,2.99,1.336,5.443v2.812h0Zm-2.168-2.965c0-1.836-.258-3.174-.773-4.014s-1.332-1.26-2.449-1.26c-1.109,0-1.918.418-2.426,1.254s-.77,2.121-.785,3.855v3.469c0,1.844.268,3.205.803,4.084s1.346,1.318,2.432,1.318c1.07,0,1.865-.414,2.385-1.242s.791-2.133.814-3.914v-3.551h-.001Z" fill="#bbc3cb"/>
    <path d="m813.05,426.129l-1.359,1.418v4.453h-2.168v-18h2.168v10.887l1.16-1.395,3.949-4.172h2.637l-4.934,5.297,5.508,7.383h-2.543l-4.418-5.871h0Z" fill="#bbc3cb"/>
  </g>
</svg>