<?xml version="1.0" encoding="utf-8"?>
<!-- Generator: Adobe Illustrator 27.4.1, SVG Export Plug-In . SVG Version: 6.00 Build 0)  -->
<svg version="1.1" id="Ebene_1" xmlns="http://www.w3.org/2000/svg" xmlns:xlink="http://www.w3.org/1999/xlink" x="0px" y="0px"
	 width="907.2px" height="460.8px" viewBox="0 0 907.2 460.8" enable-background="new 0 0 907.2 460.8" xml:space="preserve">
<rect x="88" y="28.8" fill="none" stroke="#7F7F7F" stroke-width="2.83" stroke-miterlimit="10" width="792" height="360"/>
<g>
	<g>
		<path fill="#BBC3CB" d="M52.6,165.2h4.8v2.1h-4.8v5.4h-2.2v-5.4h-4.8v-2.1h4.8v-5h2.2V165.2z"/>
		<path fill="#BBC3CB" d="M68.3,157.2v1.8h-0.4c-1.7,0-3,0.5-4,1.5s-1.6,2.3-1.7,4.1c0.9-1,2.1-1.5,3.7-1.5c1.5,0,2.7,0.5,3.6,1.6
			s1.3,2.4,1.3,4.1c0,1.8-0.5,3.2-1.4,4.2s-2.2,1.6-3.8,1.6c-1.6,0-3-0.6-4-1.9s-1.5-2.9-1.5-4.8V167c0-3.1,0.7-5.5,2-7.2
			s3.3-2.5,6-2.5H68.3L68.3,157.2z M65.4,164.9c-0.7,0-1.4,0.2-2.1,0.7s-1.1,1-1.3,1.7v0.8c0,1.4,0.3,2.5,0.9,3.4s1.4,1.3,2.4,1.3
			c1,0,1.7-0.4,2.3-1.1s0.8-1.7,0.8-2.8c0-1.2-0.3-2.1-0.8-2.8S66.3,164.9,65.4,164.9L65.4,164.9z"/>
	</g>
</g>
<g>
	<g>
		<path fill="#BBC3CB" d="M39.1,30.2h4.8v2.1h-4.8v5.4h-2.2v-5.4h-4.8v-2.1h4.8v-5h2.2C39.1,25.2,39.1,30.2,39.1,30.2z"/>
		<path fill="#BBC3CB" d="M57.4,39.3H46.3v-1.6l5.9-6.6c0.9-1,1.5-1.8,1.8-2.4s0.5-1.3,0.5-1.9c0-0.9-0.3-1.6-0.8-2.2
			s-1.3-0.9-2.2-0.9c-1.1,0-1.9,0.3-2.5,0.9s-0.9,1.5-0.9,2.6h-2.2c0-1.6,0.5-2.8,1.5-3.8s2.4-1.5,4.1-1.5c1.6,0,2.8,0.4,3.8,1.2
			s1.4,1.9,1.4,3.3c0,1.7-1.1,3.7-3.2,6l-4.6,5h8.6L57.4,39.3L57.4,39.3z"/>
		<path fill="#BBC3CB" d="M68.9,33.6h2.4v1.8h-2.4v4h-2.2v-4h-7.8v-1.3l7.6-11.8h2.3V33.6L68.9,33.6z M61.4,33.6h5.3v-8.4l-0.3,0.5
			C66.5,25.7,61.4,33.6,61.4,33.6z"/>
	</g>
</g>
<line fill="none" stroke="#7F7F7F" stroke-width="1.48" stroke-miterlimit="10" x1="357" y1="29.6" x2="357" y2="389.6"/>
<line fill="none" stroke="#7F7F7F" stroke-width="1.48" stroke-miterlimit="10" x1="402.9" y1="29.6" x2="402.9" y2="389.6"/>
<line fill="none" stroke="#7F7F7F" stroke-width="1.48" stroke-miterlimit="10" x1="435.5" y1="29.6" x2="435.5" y2="389.6"/>
<line fill="none" stroke="#7F7F7F" stroke-width="1.48" stroke-miterlimit="10" x1="461.1" y1="29.6" x2="461.1" y2="389.6"/>
<line fill="none" stroke="#7F7F7F" stroke-width="1.48" stroke-miterlimit="10" x1="481.6" y1="29.6" x2="481.6" y2="389.6"/>
<line fill="none" stroke="#7F7F7F" stroke-width="1.48" stroke-miterlimit="10" x1="499.4" y1="29.6" x2="499.4" y2="389.6"/>
<line fill="none" stroke="#7F7F7F" stroke-width="1.48" stroke-miterlimit="10" x1="514.3" y1="29.6" x2="514.3" y2="389.6"/>
<line fill="none" stroke="#7F7F7F" stroke-width="1.48" stroke-miterlimit="10" x1="528" y1="29.6" x2="528" y2="389.6"/>
<line fill="none" stroke="#7F7F7F" stroke-width="1.48" stroke-miterlimit="10" x1="539.7" y1="29.6" x2="539.7" y2="389.6"/>
<line fill="none" stroke="#7F7F7F" stroke-width="1.48" stroke-miterlimit="10" x1="618.2" y1="29.6" x2="618.2" y2="389.6"/>
<line fill="none" stroke="#7F7F7F" stroke-width="1.48" stroke-miterlimit="10" x1="664.8" y1="29.6" x2="664.8" y2="389.6"/>
<line fill="none" stroke="#7F7F7F" stroke-width="1.48" stroke-miterlimit="10" x1="697.3" y1="29.6" x2="697.3" y2="389.6"/>
<line fill="none" stroke="#7F7F7F" stroke-width="1.48" stroke-miterlimit="10" x1="722.9" y1="29.6" x2="722.9" y2="389.6"/>
<line fill="none" stroke="#7F7F7F" stroke-width="1.48" stroke-miterlimit="10" x1="743.4" y1="29.6" x2="743.4" y2="389.6"/>
<line fill="none" stroke="#7F7F7F" stroke-width="1.48" stroke-miterlimit="10" x1="760.8" y1="29.6" x2="760.8" y2="389.6"/>
<line fill="none" stroke="#7F7F7F" stroke-width="1.48" stroke-miterlimit="10" x1="776" y1="29.6" x2="776" y2="389.6"/>
<line fill="none" stroke="#7F7F7F" stroke-width="1.48" stroke-miterlimit="10" x1="789.2" y1="29.6" x2="789.2" y2="389.6"/>
<line fill="none" stroke="#7F7F7F" stroke-width="1.48" stroke-miterlimit="10" x1="801.5" y1="29.6" x2="801.5" y2="389.6"/>
<line fill="none" stroke="#7F7F7F" stroke-width="1.48" stroke-miterlimit="10" x1="875.4" y1="29.6" x2="875.4" y2="389.6"/>
<line fill="none" stroke="#7F7F7F" stroke-width="1.48" stroke-miterlimit="10" x1="880" y1="29.6" x2="880" y2="389.6"/>
<line fill="none" stroke="#7F7F7F" stroke-width="2.83" stroke-miterlimit="10" x1="88" y1="208.8" x2="880" y2="208.8"/>
<g>
	<g>
		<path fill="#BBC3CB" d="M70.4,212c0,2.5-0.4,4.4-1.3,5.7s-2.2,1.9-4.1,1.9c-1.8,0-3.2-0.6-4-1.8s-1.3-3-1.4-5.4v-2.9
			c0-2.5,0.4-4.4,1.3-5.6s2.2-1.8,4.1-1.8c1.8,0,3.2,0.6,4.1,1.8s1.3,3,1.3,5.4L70.4,212L70.4,212z M68.3,209.1c0-1.8-0.3-3.2-0.8-4
			s-1.3-1.3-2.4-1.3c-1.1,0-1.9,0.4-2.4,1.3s-0.8,2.1-0.8,3.9v3.5c0,1.8,0.3,3.2,0.8,4.1s1.3,1.3,2.4,1.3c1.1,0,1.9-0.4,2.4-1.2
			s0.8-2.1,0.8-3.9L68.3,209.1L68.3,209.1z"/>
	</g>
</g>
<g>
	<g>
		<path fill="#BBC3CB" d="M39.1,75.2h4.8v2.1h-4.8v5.4h-2.2v-5.4h-4.8v-2.1h4.8v-5h2.2V75.2z"/>
		<path fill="#BBC3CB" d="M53.4,84.3h-2.2V69.9l-4.4,1.6v-2l6.2-2.3h0.3C53.4,67.2,53.4,84.3,53.4,84.3z"/>
		<path fill="#BBC3CB" d="M70.1,71.7c0,0.9-0.2,1.6-0.7,2.3s-1.1,1.2-1.8,1.6c0.9,0.4,1.6,0.9,2.1,1.7s0.8,1.6,0.8,2.5
			c0,1.5-0.5,2.7-1.5,3.5s-2.3,1.3-3.9,1.3c-1.6,0-3-0.4-3.9-1.3s-1.5-2.1-1.5-3.5c0-0.9,0.3-1.8,0.8-2.5s1.2-1.3,2.1-1.7
			c-0.8-0.4-1.4-0.9-1.8-1.6S60,72.6,60,71.7c0-1.4,0.5-2.6,1.4-3.4s2.1-1.3,3.6-1.3c1.5,0,2.7,0.4,3.6,1.3S70.1,70.3,70.1,71.7
			L70.1,71.7z M68.3,79.7c0-1-0.3-1.7-0.9-2.3S66,76.4,65,76.4s-1.8,0.3-2.3,0.9s-0.9,1.4-0.9,2.3s0.3,1.7,0.9,2.3s1.4,0.8,2.4,0.8
			c1,0,1.8-0.3,2.4-0.8S68.3,80.6,68.3,79.7L68.3,79.7z M65.1,68.8c-0.9,0-1.5,0.3-2.1,0.8s-0.8,1.2-0.8,2.2c0,0.9,0.3,1.6,0.8,2.1
			s1.2,0.8,2.1,0.8s1.6-0.3,2.1-0.8s0.8-1.2,0.8-2.1s-0.3-1.6-0.8-2.1S65.9,68.8,65.1,68.8L65.1,68.8z"/>
	</g>
</g>
<g>
	<g>
		<path fill="#BBC3CB" d="M44.4,393h-5.7v-1.8h5.7C44.4,391.2,44.4,393,44.4,393z"/>
		<path fill="#BBC3CB" d="M57.4,399.3H46.3v-1.6l5.9-6.6c0.9-1,1.5-1.8,1.8-2.4s0.5-1.3,0.5-1.9c0-0.9-0.3-1.6-0.8-2.2
			s-1.3-0.9-2.2-0.9c-1.1,0-1.9,0.3-2.5,0.9s-0.9,1.5-0.9,2.6h-2.2c0-1.6,0.5-2.8,1.5-3.8s2.4-1.5,4.1-1.5c1.6,0,2.8,0.4,3.8,1.2
			s1.4,1.9,1.4,3.3c0,1.7-1.1,3.7-3.2,6l-4.6,5h8.6L57.4,399.3L57.4,399.3z"/>
		<path fill="#BBC3CB" d="M68.9,393.6h2.4v1.8h-2.4v4h-2.2v-4h-7.8v-1.3l7.6-11.8h2.3V393.6L68.9,393.6z M61.4,393.6h5.3v-8.4
			l-0.3,0.5C66.5,385.7,61.4,393.6,61.4,393.6z"/>
	</g>
</g>
<g>
	<g>
		<path fill="#BBC3CB" d="M44.4,303h-5.7v-1.8h5.7C44.4,301.2,44.4,303,44.4,303z"/>
		<path fill="#BBC3CB" d="M53.4,309.3h-2.2v-14.4l-4.4,1.6v-2l6.2-2.3h0.3V309.3z"/>
		<path fill="#BBC3CB" d="M70.9,309.3H59.7v-1.6l5.9-6.6c0.9-1,1.5-1.8,1.8-2.4s0.5-1.3,0.5-1.9c0-0.9-0.3-1.6-0.8-2.2
			s-1.3-0.9-2.2-0.9c-1.1,0-1.9,0.3-2.5,0.9s-0.9,1.5-0.9,2.6h-2.2c0-1.6,0.5-2.8,1.5-3.8s2.4-1.5,4.1-1.5c1.6,0,2.8,0.4,3.8,1.2
			s1.4,1.9,1.4,3.3c0,1.7-1.1,3.7-3.2,6l-4.6,5h8.6L70.9,309.3L70.9,309.3z"/>
	</g>
</g>
<g>
	<g>
		<path fill="#BBC3CB" d="M57.9,258.1h-5.7v-1.8h5.7C57.9,256.3,57.9,258.1,57.9,258.1z"/>
		<path fill="#BBC3CB" d="M68.2,247.4v1.8h-0.4c-1.7,0-3,0.5-4,1.5s-1.6,2.3-1.7,4.1c0.9-1,2.1-1.5,3.7-1.5c1.5,0,2.7,0.5,3.6,1.6
			s1.3,2.4,1.3,4.1c0,1.8-0.5,3.2-1.4,4.2s-2.2,1.6-3.8,1.6c-1.6,0-3-0.6-4-1.9s-1.5-2.9-1.5-4.8v-0.8c0-3.1,0.7-5.5,2-7.2
			s3.3-2.5,6-2.5L68.2,247.4L68.2,247.4z M65.4,255.1c-0.7,0-1.4,0.2-2.1,0.7s-1.1,1-1.3,1.7v0.8c0,1.4,0.3,2.5,0.9,3.4
			s1.4,1.3,2.4,1.3c1,0,1.7-0.4,2.3-1.1s0.8-1.7,0.8-2.8c0-1.2-0.3-2.1-0.8-2.8S66.3,255.1,65.4,255.1L65.4,255.1z"/>
	</g>
</g>
<line fill="none" stroke="#7F7F7F" stroke-width="1.48" stroke-miterlimit="10" x1="95.2" y1="28.8" x2="95.2" y2="388.8"/>
<line fill="none" stroke="#7F7F7F" stroke-width="1.48" stroke-miterlimit="10" x1="141.8" y1="28.8" x2="141.8" y2="388.8"/>
<line fill="none" stroke="#7F7F7F" stroke-width="1.48" stroke-miterlimit="10" x1="174.3" y1="28.8" x2="174.3" y2="388.8"/>
<line fill="none" stroke="#7F7F7F" stroke-width="1.48" stroke-miterlimit="10" x1="199.9" y1="28.8" x2="199.9" y2="388.8"/>
<line fill="none" stroke="#7F7F7F" stroke-width="1.48" stroke-miterlimit="10" x1="220.4" y1="28.8" x2="220.4" y2="388.8"/>
<line fill="none" stroke="#7F7F7F" stroke-width="1.48" stroke-miterlimit="10" x1="237.8" y1="28.8" x2="237.8" y2="388.8"/>
<line fill="none" stroke="#7F7F7F" stroke-width="1.48" stroke-miterlimit="10" x1="253" y1="28.8" x2="253" y2="388.8"/>
<line fill="none" stroke="#7F7F7F" stroke-width="1.48" stroke-miterlimit="10" x1="266.2" y1="28.8" x2="266.2" y2="388.8"/>
<line fill="none" stroke="#7F7F7F" stroke-width="1.48" stroke-miterlimit="10" x1="278.5" y1="28.8" x2="278.5" y2="388.8"/>
<g>
	<g>
		<path fill="#BBC3CB" d="M44.4,348h-5.7v-1.8h5.7C44.4,346.2,44.4,348,44.4,348z"/>
		<path fill="#BBC3CB" d="M53.4,354.3h-2.2v-14.4l-4.4,1.6v-2l6.2-2.3h0.3V354.3z"/>
		<path fill="#BBC3CB" d="M70.1,341.7c0,0.9-0.2,1.6-0.7,2.3s-1.1,1.2-1.8,1.6c0.9,0.4,1.6,0.9,2.1,1.7s0.8,1.6,0.8,2.5
			c0,1.5-0.5,2.7-1.5,3.5s-2.3,1.3-3.9,1.3c-1.6,0-3-0.4-3.9-1.3s-1.5-2.1-1.5-3.5c0-0.9,0.3-1.8,0.8-2.5s1.2-1.3,2.1-1.7
			c-0.8-0.4-1.4-0.9-1.8-1.6s-0.7-1.4-0.7-2.3c0-1.4,0.5-2.6,1.4-3.4s2.1-1.3,3.6-1.3c1.5,0,2.7,0.4,3.6,1.3S70.1,340.3,70.1,341.7
			L70.1,341.7z M68.3,349.7c0-1-0.3-1.7-0.9-2.3s-1.4-0.9-2.4-0.9s-1.8,0.3-2.3,0.9s-0.9,1.4-0.9,2.3s0.3,1.7,0.9,2.3
			s1.4,0.8,2.4,0.8c1,0,1.8-0.3,2.4-0.8S68.3,350.6,68.3,349.7L68.3,349.7z M65.1,338.8c-0.9,0-1.5,0.3-2.1,0.8s-0.8,1.2-0.8,2.1
			c0,0.9,0.3,1.6,0.8,2.1s1.2,0.8,2.1,0.8s1.6-0.3,2.1-0.8s0.8-1.2,0.8-2.1s-0.3-1.6-0.8-2.1S65.9,338.8,65.1,338.8L65.1,338.8z"/>
	</g>
</g>
<g>
	<g>
		<path fill="#BBC3CB" d="M39.1,120.2h4.8v2.1h-4.8v5.4h-2.2v-5.4h-4.8v-2.1h4.8v-5h2.2V120.2z"/>
		<path fill="#BBC3CB" d="M53.4,129.4h-2.2v-14.4l-4.4,1.6v-2l6.2-2.3h0.3V129.4z"/>
		<path fill="#BBC3CB" d="M70.9,129.4H59.7v-1.6l5.9-6.6c0.9-1,1.5-1.8,1.8-2.4s0.5-1.3,0.5-1.9c0-0.9-0.3-1.6-0.8-2.2
			s-1.3-0.9-2.2-0.9c-1.1,0-1.9,0.3-2.5,0.9s-0.9,1.5-0.9,2.6h-2.2c0-1.6,0.5-2.8,1.5-3.8s2.4-1.5,4.1-1.5c1.6,0,2.8,0.4,3.8,1.2
			s1.4,1.9,1.4,3.3c0,1.7-1.1,3.7-3.2,6l-4.6,5h8.6L70.9,129.4L70.9,129.4z"/>
	</g>
</g>
<g id="uuid-b58955db-bcad-48c4-b4a7-c7f149ab83af">
	<path opacity="0.5" fill="#307EEF" enable-background="new    " d="M878.4,210.2c-79.4,0-125.6,0-180.4,0.9c0,0-40.2-0.6-185,2.9
		c-4,0.1-25.1,0.7-52.1,4.1c-17.5,2.2-29.4,4.7-38.8,7c-10.8,2.6-20.1,5.6-25.9,7.4c-6.4,2.1-11.3,3.9-14.8,5.2
		c-8,3-10.5,4.2-25.1,10.1c-18.8,7.7-24.3,9.7-29.3,11.4c-3.8,1.3-6.4,2.1-11.4,3.6c-12.2,3.8-19,5.9-28.1,8c-8.4,1.9-15.1,3-21.2,4
		c-6.9,1.1-12.2,1.8-15.5,2.2c-6.4,0.8-9.6,1.1-10.5,1.2c-4.2,0.4-6.8,0.4-11,0.6c-6.9,0.3-7.5,0.5-16.4,1c0,0-10.2,0.6-22.4,1.1
		c-7.9,0.3-17.2,0.6-39.3,0.9c-12.4,0.1-45.8,0.3-64.8,0.3v106.6l792,0.8L878.4,210.2L878.4,210.2L878.4,210.2z"/>
	<path fill="none" stroke="#307EEF" stroke-width="5.67" stroke-miterlimit="10" d="M86.4,282.2c19,0,52.3-0.2,64.8-0.3
		c22.1-0.3,31.4-0.5,39.3-0.9c12.2-0.5,22.4-1.1,22.4-1.1c8.9-0.5,9.5-0.6,16.4-1c4.2-0.2,6.8-0.3,11-0.6c0.9-0.1,4.1-0.4,10.5-1.2
		c3.3-0.4,8.6-1.1,15.5-2.2c6.2-1,12.9-2.1,21.2-4c9.1-2.1,15.8-4.2,28.1-8c5-1.5,7.7-2.4,11.4-3.6c5-1.7,10.5-3.7,29.3-11.4
		c14.5-6,17-7.1,25.1-10.1c3.5-1.3,8.3-3.1,14.8-5.2c5.8-1.9,15-4.8,25.9-7.4c9.5-2.3,21.3-4.7,38.8-7c27-3.5,48.1-4,52.1-4.1
		c144.8-3.5,185-2.9,185-2.9c54.8-0.9,101-0.9,180.4-0.9"/>
</g>
<g>
	<g>
		<path fill="#BBC3CB" d="M94.5,432H83.3v-1.6l5.9-6.6c0.9-1,1.5-1.8,1.8-2.4s0.5-1.3,0.5-1.9c0-0.9-0.3-1.6-0.8-2.2
			s-1.3-0.9-2.2-0.9c-1.1,0-1.9,0.3-2.5,0.9s-0.9,1.5-0.9,2.6h-2.2c0-1.6,0.5-2.8,1.5-3.8s2.4-1.5,4.1-1.5c1.6,0,2.8,0.4,3.8,1.2
			s1.4,1.9,1.4,3.3c0,1.7-1.1,3.7-3.2,6l-4.6,5h8.6L94.5,432L94.5,432z"/>
		<path fill="#BBC3CB" d="M107.5,424.7c0,2.5-0.4,4.4-1.3,5.7s-2.2,1.9-4.1,1.9c-1.8,0-3.2-0.6-4-1.8s-1.3-3-1.4-5.4v-2.9
			c0-2.5,0.4-4.4,1.3-5.6s2.2-1.8,4.1-1.8c1.8,0,3.2,0.6,4.1,1.8s1.3,3,1.3,5.4L107.5,424.7L107.5,424.7z M105.3,421.8
			c0-1.8-0.3-3.2-0.8-4s-1.3-1.3-2.4-1.3c-1.1,0-1.9,0.4-2.4,1.3s-0.8,2.1-0.8,3.9v3.5c0,1.8,0.3,3.2,0.8,4.1s1.3,1.3,2.4,1.3
			c1.1,0,1.9-0.4,2.4-1.2s0.8-2.1,0.8-3.9L105.3,421.8L105.3,421.8z"/>
	</g>
</g>
<g>
	<g>
		<path fill="#BBC3CB" d="M216.7,414.9v1.8h-0.4c-1.7,0-3,0.5-4,1.5s-1.6,2.3-1.7,4.1c0.9-1,2.1-1.5,3.7-1.5c1.5,0,2.7,0.5,3.6,1.6
			c0.9,1,1.3,2.4,1.3,4.1c0,1.8-0.5,3.2-1.4,4.2s-2.2,1.6-3.9,1.6c-1.6,0-3-0.6-4-1.9c-1-1.3-1.5-2.9-1.5-4.8v-0.8
			c0-3.1,0.7-5.5,2-7.2s3.3-2.5,6-2.5L216.7,414.9L216.7,414.9z M213.9,422.6c-0.7,0-1.4,0.2-2.1,0.7s-1.1,1-1.3,1.7v0.8
			c0,1.4,0.3,2.5,0.9,3.4c0.6,0.9,1.4,1.3,2.4,1.3c1,0,1.7-0.4,2.3-1.1s0.8-1.7,0.8-2.8c0-1.2-0.3-2.1-0.9-2.8
			C215.6,423,214.8,422.6,213.9,422.6L213.9,422.6z"/>
		<path fill="#BBC3CB" d="M232.4,424.7c0,2.5-0.4,4.4-1.3,5.7c-0.9,1.2-2.2,1.9-4.1,1.9c-1.8,0-3.2-0.6-4-1.8s-1.3-3-1.4-5.4v-2.9
			c0-2.5,0.4-4.4,1.3-5.6c0.9-1.2,2.2-1.8,4.1-1.8c1.8,0,3.2,0.6,4.1,1.8c0.9,1.2,1.3,3,1.3,5.4L232.4,424.7L232.4,424.7z
			 M230.2,421.8c0-1.8-0.3-3.2-0.8-4c-0.5-0.8-1.3-1.3-2.4-1.3c-1.1,0-1.9,0.4-2.4,1.3s-0.8,2.1-0.8,3.9v3.5c0,1.8,0.3,3.2,0.8,4.1
			c0.5,0.9,1.3,1.3,2.4,1.3c1.1,0,1.9-0.4,2.4-1.2s0.8-2.1,0.8-3.9L230.2,421.8L230.2,421.8z"/>
	</g>
</g>
<g>
	<g>
		<path fill="#BBC3CB" d="M349.5,432h-11.2v-1.6l5.9-6.6c0.9-1,1.5-1.8,1.8-2.4c0.3-0.6,0.5-1.3,0.5-1.9c0-0.9-0.3-1.6-0.8-2.2
			s-1.3-0.9-2.2-0.9c-1.1,0-1.9,0.3-2.5,0.9s-0.9,1.5-0.9,2.6H338c0-1.6,0.5-2.8,1.5-3.8c1-1,2.4-1.5,4.1-1.5c1.6,0,2.8,0.4,3.8,1.2
			s1.4,1.9,1.4,3.3c0,1.7-1.1,3.7-3.2,6l-4.6,5h8.6L349.5,432L349.5,432z"/>
		<path fill="#BBC3CB" d="M362.5,424.7c0,2.5-0.4,4.4-1.3,5.7s-2.2,1.9-4.1,1.9c-1.8,0-3.2-0.6-4-1.8s-1.3-3-1.4-5.4v-2.9
			c0-2.5,0.4-4.4,1.3-5.6s2.2-1.8,4.1-1.8c1.8,0,3.2,0.6,4.1,1.8s1.3,3,1.3,5.4L362.5,424.7L362.5,424.7z M360.3,421.8
			c0-1.8-0.3-3.2-0.8-4s-1.3-1.3-2.4-1.3c-1.1,0-1.9,0.4-2.4,1.3s-0.8,2.1-0.8,3.9v3.5c0,1.8,0.3,3.2,0.8,4.1
			c0.5,0.9,1.3,1.3,2.4,1.3c1.1,0,1.9-0.4,2.4-1.2s0.8-2.1,0.8-3.9L360.3,421.8L360.3,421.8z"/>
		<path fill="#BBC3CB" d="M376,424.7c0,2.5-0.4,4.4-1.3,5.7s-2.2,1.9-4.1,1.9c-1.8,0-3.2-0.6-4-1.8s-1.3-3-1.4-5.4v-2.9
			c0-2.5,0.4-4.4,1.3-5.6s2.2-1.8,4.1-1.8c1.8,0,3.2,0.6,4.1,1.8s1.3,3,1.3,5.4L376,424.7L376,424.7z M373.8,421.8
			c0-1.8-0.3-3.2-0.8-4s-1.3-1.3-2.4-1.3c-1.1,0-1.9,0.4-2.4,1.3s-0.8,2.1-0.8,3.9v3.5c0,1.8,0.3,3.2,0.8,4.1
			c0.5,0.9,1.3,1.3,2.4,1.3c1.1,0,1.9-0.4,2.4-1.2s0.8-2.1,0.8-3.9L373.8,421.8L373.8,421.8z"/>
	</g>
</g>
<g>
	<g>
		<path fill="#BBC3CB" d="M534.4,432h-2.2v-14.4l-4.4,1.6v-2l6.2-2.3h0.3L534.4,432L534.4,432z"/>
		<path fill="#BBC3CB" d="M544.5,426.1l-1.4,1.4v4.5H541v-18h2.2v10.9l1.2-1.4l3.9-4.2h2.6l-4.9,5.3l5.5,7.4h-2.5L544.5,426.1
			L544.5,426.1z"/>
	</g>
</g>
<g>
	<g>
		<path fill="#BBC3CB" d="M656,422.4h1.6c1,0,1.8-0.3,2.4-0.8c0.6-0.5,0.9-1.2,0.9-2.1c0-2-1-3-3-3c-0.9,0-1.7,0.3-2.2,0.8
			c-0.6,0.5-0.8,1.2-0.8,2.1h-2.2c0-1.4,0.5-2.5,1.5-3.4c1-0.9,2.2-1.3,3.8-1.3c1.6,0,2.9,0.4,3.8,1.3c0.9,0.9,1.4,2,1.4,3.6
			c0,0.7-0.2,1.5-0.7,2.2c-0.5,0.7-1.1,1.2-2,1.6c0.9,0.3,1.7,0.8,2.2,1.5c0.5,0.7,0.8,1.5,0.8,2.5c0,1.5-0.5,2.7-1.5,3.6
			s-2.3,1.3-3.9,1.3s-2.9-0.4-3.9-1.3s-1.5-2-1.5-3.4h2.2c0,0.9,0.3,1.6,0.9,2.2c0.6,0.5,1.4,0.8,2.4,0.8c1,0,1.8-0.3,2.4-0.8
			s0.8-1.3,0.8-2.4c0-1-0.3-1.8-0.9-2.3s-1.5-0.8-2.6-0.8H656L656,422.4L656,422.4z"/>
		<path fill="#BBC3CB" d="M670.1,426.1l-1.4,1.4v4.5h-2.2v-18h2.2v10.9l1.2-1.4l3.9-4.2h2.6l-4.9,5.3l5.5,7.4h-2.5L670.1,426.1
			L670.1,426.1z"/>
	</g>
</g>
<g>
	<g>
		<path fill="#BBC3CB" d="M867.9,432h-11.2v-1.6l5.9-6.6c0.9-1,1.5-1.8,1.8-2.4c0.3-0.6,0.5-1.3,0.5-1.9c0-0.9-0.3-1.6-0.8-2.2
			c-0.5-0.6-1.3-0.9-2.2-0.9c-1.1,0-1.9,0.3-2.5,0.9c-0.6,0.6-0.9,1.5-0.9,2.6h-2.2c0-1.6,0.5-2.8,1.5-3.8c1-1,2.4-1.5,4.1-1.5
			c1.6,0,2.8,0.4,3.8,1.2s1.4,1.9,1.4,3.3c0,1.7-1.1,3.7-3.2,6l-4.6,5h8.6L867.9,432L867.9,432z"/>
		<path fill="#BBC3CB" d="M880.9,424.7c0,2.5-0.4,4.4-1.3,5.7c-0.9,1.2-2.2,1.9-4.1,1.9c-1.8,0-3.2-0.6-4-1.8s-1.3-3-1.4-5.4v-2.9
			c0-2.5,0.4-4.4,1.3-5.6c0.9-1.2,2.2-1.8,4.1-1.8c1.8,0,3.2,0.6,4.1,1.8c0.9,1.2,1.3,3,1.3,5.4L880.9,424.7L880.9,424.7z
			 M878.7,421.8c0-1.8-0.3-3.2-0.8-4s-1.3-1.3-2.4-1.3c-1.1,0-1.9,0.4-2.4,1.3c-0.5,0.8-0.8,2.1-0.8,3.9v3.5c0,1.8,0.3,3.2,0.8,4.1
			c0.5,0.9,1.3,1.3,2.4,1.3c1.1,0,1.9-0.4,2.4-1.2s0.8-2.1,0.8-3.9L878.7,421.8L878.7,421.8z"/>
		<path fill="#BBC3CB" d="M887.5,426.1l-1.4,1.4v4.5h-2.2v-18h2.2v10.9l1.2-1.4l3.9-4.2h2.6l-4.9,5.3l5.5,7.4h-2.5L887.5,426.1
			L887.5,426.1z"/>
	</g>
</g>
<g>
	<g>
		<path fill="#BBC3CB" d="M789.5,432h-2.2v-14.4l-4.4,1.6v-2l6.2-2.3h0.3L789.5,432L789.5,432z"/>
		<path fill="#BBC3CB" d="M806.5,424.7c0,2.5-0.4,4.4-1.3,5.7s-2.2,1.9-4.1,1.9c-1.8,0-3.2-0.6-4-1.8s-1.3-3-1.4-5.4v-2.9
			c0-2.5,0.4-4.4,1.3-5.6s2.2-1.8,4.1-1.8c1.8,0,3.2,0.6,4.1,1.8s1.3,3,1.3,5.4L806.5,424.7L806.5,424.7z M804.3,421.8
			c0-1.8-0.3-3.2-0.8-4s-1.3-1.3-2.4-1.3c-1.1,0-1.9,0.4-2.4,1.3s-0.8,2.1-0.8,3.9v3.5c0,1.8,0.3,3.2,0.8,4.1s1.3,1.3,2.4,1.3
			c1.1,0,1.9-0.4,2.4-1.2s0.8-2.1,0.8-3.9L804.3,421.8L804.3,421.8z"/>
		<path fill="#BBC3CB" d="M813.1,426.1l-1.4,1.4v4.5h-2.2v-18h2.2v10.9l1.2-1.4l3.9-4.2h2.6l-4.9,5.3l5.5,7.4h-2.5L813.1,426.1
			L813.1,426.1z"/>
	</g>
</g>
</svg>
