<?xml version="1.0" encoding="UTF-8"?><svg xmlns="http://www.w3.org/2000/svg" viewBox="0 0 907.2 460.8"><defs><style>.uuid-ff181df8-fb1b-49a2-8835-8b2f98924447{stroke-width:1.48px;}.uuid-ff181df8-fb1b-49a2-8835-8b2f98924447,.uuid-a7234251-5d84-4289-ac70-b84efe22a2a6{stroke:#7f7f7f;}.uuid-ff181df8-fb1b-49a2-8835-8b2f98924447,.uuid-a7234251-5d84-4289-ac70-b84efe22a2a6,.uuid-acdad7b6-0fa3-40ce-9f7a-f327b8470075{fill:none;stroke-miterlimit:10;}.uuid-99c956cc-19a3-4df0-a37b-62ffab35c795{fill:#307eef;opacity:.5;stroke-width:0px;}.uuid-6a83d7fc-18f0-40f7-934e-030c7e98429a{fill:#bbc3cb;font-family:Roboto-Regular, Roboto;font-size:24px;}.uuid-a7234251-5d84-4289-ac70-b84efe22a2a6{stroke-width:2.83px;}.uuid-acdad7b6-0fa3-40ce-9f7a-f327b8470075{stroke:#307eef;stroke-width:5.67px;}</style></defs><g id="uuid-93cb55ce-29b7-4b40-ac43-149bd1a1cbb4"><text class="uuid-6a83d7fc-18f0-40f7-934e-030c7e98429a" transform="translate(72 432)"><tspan x="0" y="0">20</tspan></text><text class="uuid-6a83d7fc-18f0-40f7-934e-030c7e98429a" transform="translate(194.4 432)"><tspan x="0" y="0">60</tspan></text><text class="uuid-6a83d7fc-18f0-40f7-934e-030c7e98429a" transform="translate(324 432)"><tspan x="0" y="0">200</tspan></text><text class="uuid-6a83d7fc-18f0-40f7-934e-030c7e98429a" transform="translate(518.4 432)"><tspan x="0" y="0">1k</tspan></text><text class="uuid-6a83d7fc-18f0-40f7-934e-030c7e98429a" transform="translate(640.8 432)"><tspan x="0" y="0">3k</tspan></text><text class="uuid-6a83d7fc-18f0-40f7-934e-030c7e98429a" transform="translate(846 432)"><tspan x="0" y="0">20k</tspan></text><rect class="uuid-a7234251-5d84-4289-ac70-b84efe22a2a6" x="86.4" y="28.8" width="792" height="360"/><text class="uuid-6a83d7fc-18f0-40f7-934e-030c7e98429a" transform="translate(766.8 432)"><tspan x="0" y="0">10k</tspan></text><text class="uuid-6a83d7fc-18f0-40f7-934e-030c7e98429a" transform="translate(43.12 174.32)"><tspan x="0" y="0">+6</tspan></text><text class="uuid-6a83d7fc-18f0-40f7-934e-030c7e98429a" transform="translate(29.64 39.32)"><tspan x="0" y="0">+24</tspan></text><line class="uuid-ff181df8-fb1b-49a2-8835-8b2f98924447" x1="355.39" y1="29.6" x2="355.39" y2="389.6"/><line class="uuid-ff181df8-fb1b-49a2-8835-8b2f98924447" x1="401.25" y1="29.6" x2="401.25" y2="389.6"/><line class="uuid-ff181df8-fb1b-49a2-8835-8b2f98924447" x1="433.93" y1="29.6" x2="433.93" y2="389.6"/><line class="uuid-ff181df8-fb1b-49a2-8835-8b2f98924447" x1="459.53" y1="29.6" x2="459.53" y2="389.6"/><line class="uuid-ff181df8-fb1b-49a2-8835-8b2f98924447" x1="479.98" y1="29.6" x2="479.98" y2="389.6"/><line class="uuid-ff181df8-fb1b-49a2-8835-8b2f98924447" x1="497.75" y1="29.6" x2="497.75" y2="389.6"/><line class="uuid-ff181df8-fb1b-49a2-8835-8b2f98924447" x1="512.66" y1="29.6" x2="512.66" y2="389.6"/><line class="uuid-ff181df8-fb1b-49a2-8835-8b2f98924447" x1="526.42" y1="29.6" x2="526.42" y2="389.6"/><line class="uuid-ff181df8-fb1b-49a2-8835-8b2f98924447" x1="538.07" y1="29.6" x2="538.07" y2="389.6"/><line class="uuid-ff181df8-fb1b-49a2-8835-8b2f98924447" x1="616.61" y1="29.6" x2="616.61" y2="389.6"/><line class="uuid-ff181df8-fb1b-49a2-8835-8b2f98924447" x1="663.23" y1="29.6" x2="663.23" y2="389.6"/><line class="uuid-ff181df8-fb1b-49a2-8835-8b2f98924447" x1="695.72" y1="29.6" x2="695.72" y2="389.6"/><line class="uuid-ff181df8-fb1b-49a2-8835-8b2f98924447" x1="721.33" y1="29.6" x2="721.33" y2="389.6"/><line class="uuid-ff181df8-fb1b-49a2-8835-8b2f98924447" x1="741.77" y1="29.6" x2="741.77" y2="389.6"/><line class="uuid-ff181df8-fb1b-49a2-8835-8b2f98924447" x1="759.16" y1="29.6" x2="759.16" y2="389.6"/><line class="uuid-ff181df8-fb1b-49a2-8835-8b2f98924447" x1="774.45" y1="29.6" x2="774.45" y2="389.6"/><line class="uuid-ff181df8-fb1b-49a2-8835-8b2f98924447" x1="787.63" y1="29.6" x2="787.63" y2="389.6"/><line class="uuid-ff181df8-fb1b-49a2-8835-8b2f98924447" x1="799.86" y1="29.6" x2="799.86" y2="389.6"/><line class="uuid-ff181df8-fb1b-49a2-8835-8b2f98924447" x1="873.81" y1="29.6" x2="873.81" y2="389.6"/><line class="uuid-ff181df8-fb1b-49a2-8835-8b2f98924447" x1="878.4" y1="29.6" x2="878.4" y2="389.6"/><line class="uuid-a7234251-5d84-4289-ac70-b84efe22a2a6" x1="86.4" y1="208.8" x2="878.4" y2="208.8"/><text class="uuid-6a83d7fc-18f0-40f7-934e-030c7e98429a" transform="translate(56.72 219.32)"><tspan x="0" y="0">0</tspan></text><text class="uuid-6a83d7fc-18f0-40f7-934e-030c7e98429a" transform="translate(29.64 84.32)"><tspan x="0" y="0">+18</tspan></text><text class="uuid-6a83d7fc-18f0-40f7-934e-030c7e98429a" transform="translate(36.63 399.32)"><tspan x="0" y="0">-24</tspan></text><text class="uuid-6a83d7fc-18f0-40f7-934e-030c7e98429a" transform="translate(36.63 309.32)"><tspan x="0" y="0">-12</tspan></text><text class="uuid-6a83d7fc-18f0-40f7-934e-030c7e98429a" transform="translate(50.1 264.47)"><tspan x="0" y="0">-6</tspan></text><line class="uuid-ff181df8-fb1b-49a2-8835-8b2f98924447" x1="93.6" y1="28.8" x2="93.6" y2="388.8"/><line class="uuid-ff181df8-fb1b-49a2-8835-8b2f98924447" x1="140.23" y1="28.8" x2="140.23" y2="388.8"/><line class="uuid-ff181df8-fb1b-49a2-8835-8b2f98924447" x1="172.71" y1="28.8" x2="172.71" y2="388.8"/><line class="uuid-ff181df8-fb1b-49a2-8835-8b2f98924447" x1="198.32" y1="28.8" x2="198.32" y2="388.8"/><line class="uuid-ff181df8-fb1b-49a2-8835-8b2f98924447" x1="218.76" y1="28.8" x2="218.76" y2="388.8"/><line class="uuid-ff181df8-fb1b-49a2-8835-8b2f98924447" x1="236.15" y1="28.8" x2="236.15" y2="388.8"/><line class="uuid-ff181df8-fb1b-49a2-8835-8b2f98924447" x1="251.44" y1="28.8" x2="251.44" y2="388.8"/><line class="uuid-ff181df8-fb1b-49a2-8835-8b2f98924447" x1="264.62" y1="28.8" x2="264.62" y2="388.8"/><line class="uuid-ff181df8-fb1b-49a2-8835-8b2f98924447" x1="276.85" y1="28.8" x2="276.85" y2="388.8"/><text class="uuid-6a83d7fc-18f0-40f7-934e-030c7e98429a" transform="translate(36.63 354.32)"><tspan x="0" y="0">-18</tspan></text><text class="uuid-6a83d7fc-18f0-40f7-934e-030c7e98429a" transform="translate(29.64 129.35)"><tspan x="0" y="0">+12</tspan></text></g><g id="uuid-d50fc561-ff4a-44ad-a4b5-95fe8e5486eb"><path class="uuid-99c956cc-19a3-4df0-a37b-62ffab35c795" d="M86.4,208.87c258.81.44,446.54.83,472.19.26,0,0,21.15-.47,46.31,3.17,5.34.77,12.64,2.05,21.25,4.44,7.11,1.98,12.48,3.98,14.91,4.92,4.01,1.55,9.96,3.87,16.97,7.77,5.94,3.3,10.51,6.56,14.59,9.67,17.54,13.4,33.62,29.97,33.62,29.97,19.07,19,31.95,35.63,43.14,50.06,10.12,13.06,17.52,23.62,23.26,31.82,10.3,14.73,18.68,27.59,24.95,37.53l-711.19.3v-179.93Z"/><path class="uuid-acdad7b6-0fa3-40ce-9f7a-f327b8470075" d="M797.59,388.5c-6.27-9.94-14.65-22.8-24.95-37.53-5.74-8.2-13.14-18.76-23.26-31.82-11.18-14.43-24.06-31.06-43.14-50.06,0,0-16.08-16.57-33.62-29.97-4.08-3.12-8.65-6.37-14.59-9.67-7.01-3.9-12.96-6.22-16.97-7.77-2.43-.94-7.79-2.94-14.91-4.92-8.61-2.39-15.91-3.67-21.25-4.44-25.16-3.64-46.31-3.17-46.31-3.17-25.65.57-213.38.17-472.19-.26"/></g></svg>