<?xml version="1.0" encoding="UTF-8"?><svg xmlns="http://www.w3.org/2000/svg" viewBox="0 0 907.2 460.8"><defs><style>.uuid-92a00040-8382-47ff-bda1-d6406f8fd830{opacity:.3;}.uuid-92a00040-8382-47ff-bda1-d6406f8fd830,.uuid-a0fbd744-fc49-4fcb-8f17-20cc4a8ae649,.uuid-6b4b1ae5-9630-445e-a8e4-cab7d5a02859,.uuid-6b0a07fc-c00e-499a-b218-8bddd47995c4,.uuid-13195a4c-acde-45b3-aa8f-6c667b099017,.uuid-32ea5f8b-5d4e-457a-8aac-ae3523f92c69,.uuid-58e30da3-0951-4df7-96b2-36b9b515dd36,.uuid-1eddb5af-9415-45f8-95ff-07d35a676cc5{fill:none;}.uuid-92a00040-8382-47ff-bda1-d6406f8fd830,.uuid-a0fbd744-fc49-4fcb-8f17-20cc4a8ae649,.uuid-6b0a07fc-c00e-499a-b218-8bddd47995c4,.uuid-13195a4c-acde-45b3-aa8f-6c667b099017,.uuid-1eddb5af-9415-45f8-95ff-07d35a676cc5{stroke-width:0px;}.uuid-a0fbd744-fc49-4fcb-8f17-20cc4a8ae649{opacity:.2;}.uuid-6b4b1ae5-9630-445e-a8e4-cab7d5a02859{stroke-width:1.48px;}.uuid-6b4b1ae5-9630-445e-a8e4-cab7d5a02859,.uuid-32ea5f8b-5d4e-457a-8aac-ae3523f92c69,.uuid-58e30da3-0951-4df7-96b2-36b9b515dd36{stroke-miterlimit:10;}.uuid-6b4b1ae5-9630-445e-a8e4-cab7d5a02859,.uuid-58e30da3-0951-4df7-96b2-36b9b515dd36{stroke:#7f7f7f;}.uuid-6b0a07fc-c00e-499a-b218-8bddd47995c4{opacity:.4;}.uuid-13195a4c-acde-45b3-aa8f-6c667b099017{opacity:.1;}.uuid-9d2012a6-3424-4ad7-ad26-117d41c065dd{fill:#bbc3cb;font-family:Roboto-Regular, Roboto;font-size:24px;}.uuid-32ea5f8b-5d4e-457a-8aac-ae3523f92c69{stroke:#307eef;}.uuid-32ea5f8b-5d4e-457a-8aac-ae3523f92c69,.uuid-58e30da3-0951-4df7-96b2-36b9b515dd36{stroke-width:2.83px;}.uuid-1eddb5af-9415-45f8-95ff-07d35a676cc5{opacity:.5;}</style></defs><g id="uuid-339f2dfb-f440-47d2-8f98-70216358f8fd"><text class="uuid-9d2012a6-3424-4ad7-ad26-117d41c065dd" transform="translate(73.6 432)"><tspan x="0" y="0">20</tspan></text><text class="uuid-9d2012a6-3424-4ad7-ad26-117d41c065dd" transform="translate(196 432)"><tspan x="0" y="0">60</tspan></text><text class="uuid-9d2012a6-3424-4ad7-ad26-117d41c065dd" transform="translate(325.6 432)"><tspan x="0" y="0">200</tspan></text><text class="uuid-9d2012a6-3424-4ad7-ad26-117d41c065dd" transform="translate(520 432)"><tspan x="0" y="0">1k</tspan></text><text class="uuid-9d2012a6-3424-4ad7-ad26-117d41c065dd" transform="translate(642.4 432)"><tspan x="0" y="0">3k</tspan></text><text class="uuid-9d2012a6-3424-4ad7-ad26-117d41c065dd" transform="translate(847.6 432)"><tspan x="0" y="0">20k</tspan></text><rect class="uuid-58e30da3-0951-4df7-96b2-36b9b515dd36" x="88" y="28.8" width="792" height="360"/><text class="uuid-9d2012a6-3424-4ad7-ad26-117d41c065dd" transform="translate(768.4 432)"><tspan x="0" y="0">10k</tspan></text><text class="uuid-9d2012a6-3424-4ad7-ad26-117d41c065dd" transform="translate(44.72 174.32)"><tspan x="0" y="0">+6</tspan></text><text class="uuid-9d2012a6-3424-4ad7-ad26-117d41c065dd" transform="translate(31.24 39.32)"><tspan x="0" y="0">+24</tspan></text><line class="uuid-6b4b1ae5-9630-445e-a8e4-cab7d5a02859" x1="356.99" y1="29.6" x2="356.99" y2="389.6"/><line class="uuid-6b4b1ae5-9630-445e-a8e4-cab7d5a02859" x1="402.85" y1="29.6" x2="402.85" y2="389.6"/><line class="uuid-6b4b1ae5-9630-445e-a8e4-cab7d5a02859" x1="435.53" y1="29.6" x2="435.53" y2="389.6"/><line class="uuid-6b4b1ae5-9630-445e-a8e4-cab7d5a02859" x1="461.13" y1="29.6" x2="461.13" y2="389.6"/><line class="uuid-6b4b1ae5-9630-445e-a8e4-cab7d5a02859" x1="481.58" y1="29.6" x2="481.58" y2="389.6"/><line class="uuid-6b4b1ae5-9630-445e-a8e4-cab7d5a02859" x1="499.35" y1="29.6" x2="499.35" y2="389.6"/><line class="uuid-6b4b1ae5-9630-445e-a8e4-cab7d5a02859" x1="514.26" y1="29.6" x2="514.26" y2="389.6"/><line class="uuid-6b4b1ae5-9630-445e-a8e4-cab7d5a02859" x1="528.01" y1="29.6" x2="528.01" y2="389.6"/><line class="uuid-6b4b1ae5-9630-445e-a8e4-cab7d5a02859" x1="539.67" y1="29.6" x2="539.67" y2="389.6"/><line class="uuid-6b4b1ae5-9630-445e-a8e4-cab7d5a02859" x1="618.21" y1="29.6" x2="618.21" y2="389.6"/><line class="uuid-6b4b1ae5-9630-445e-a8e4-cab7d5a02859" x1="664.83" y1="29.6" x2="664.83" y2="389.6"/><line class="uuid-6b4b1ae5-9630-445e-a8e4-cab7d5a02859" x1="697.32" y1="29.6" x2="697.32" y2="389.6"/><line class="uuid-6b4b1ae5-9630-445e-a8e4-cab7d5a02859" x1="722.92" y1="29.6" x2="722.92" y2="389.6"/><line class="uuid-6b4b1ae5-9630-445e-a8e4-cab7d5a02859" x1="743.37" y1="29.6" x2="743.37" y2="389.6"/><line class="uuid-6b4b1ae5-9630-445e-a8e4-cab7d5a02859" x1="760.76" y1="29.6" x2="760.76" y2="389.6"/><line class="uuid-6b4b1ae5-9630-445e-a8e4-cab7d5a02859" x1="776.05" y1="29.6" x2="776.05" y2="389.6"/><line class="uuid-6b4b1ae5-9630-445e-a8e4-cab7d5a02859" x1="789.23" y1="29.6" x2="789.23" y2="389.6"/><line class="uuid-6b4b1ae5-9630-445e-a8e4-cab7d5a02859" x1="801.46" y1="29.6" x2="801.46" y2="389.6"/><line class="uuid-6b4b1ae5-9630-445e-a8e4-cab7d5a02859" x1="875.41" y1="29.6" x2="875.41" y2="389.6"/><line class="uuid-6b4b1ae5-9630-445e-a8e4-cab7d5a02859" x1="880" y1="29.6" x2="880" y2="389.6"/><line class="uuid-58e30da3-0951-4df7-96b2-36b9b515dd36" x1="88" y1="208.8" x2="880" y2="208.8"/><text class="uuid-9d2012a6-3424-4ad7-ad26-117d41c065dd" transform="translate(58.32 219.32)"><tspan x="0" y="0">0</tspan></text><text class="uuid-9d2012a6-3424-4ad7-ad26-117d41c065dd" transform="translate(31.24 84.32)"><tspan x="0" y="0">+18</tspan></text><text class="uuid-9d2012a6-3424-4ad7-ad26-117d41c065dd" transform="translate(38.23 399.32)"><tspan x="0" y="0">-24</tspan></text><text class="uuid-9d2012a6-3424-4ad7-ad26-117d41c065dd" transform="translate(38.23 309.32)"><tspan x="0" y="0">-12</tspan></text><text class="uuid-9d2012a6-3424-4ad7-ad26-117d41c065dd" transform="translate(51.7 264.47)"><tspan x="0" y="0">-6</tspan></text><line class="uuid-6b4b1ae5-9630-445e-a8e4-cab7d5a02859" x1="95.2" y1="28.8" x2="95.2" y2="388.8"/><line class="uuid-6b4b1ae5-9630-445e-a8e4-cab7d5a02859" x1="141.83" y1="28.8" x2="141.83" y2="388.8"/><line class="uuid-6b4b1ae5-9630-445e-a8e4-cab7d5a02859" x1="174.31" y1="28.8" x2="174.31" y2="388.8"/><line class="uuid-6b4b1ae5-9630-445e-a8e4-cab7d5a02859" x1="199.92" y1="28.8" x2="199.92" y2="388.8"/><line class="uuid-6b4b1ae5-9630-445e-a8e4-cab7d5a02859" x1="220.36" y1="28.8" x2="220.36" y2="388.8"/><line class="uuid-6b4b1ae5-9630-445e-a8e4-cab7d5a02859" x1="237.75" y1="28.8" x2="237.75" y2="388.8"/><line class="uuid-6b4b1ae5-9630-445e-a8e4-cab7d5a02859" x1="253.04" y1="28.8" x2="253.04" y2="388.8"/><line class="uuid-6b4b1ae5-9630-445e-a8e4-cab7d5a02859" x1="266.22" y1="28.8" x2="266.22" y2="388.8"/><line class="uuid-6b4b1ae5-9630-445e-a8e4-cab7d5a02859" x1="278.45" y1="28.8" x2="278.45" y2="388.8"/><text class="uuid-9d2012a6-3424-4ad7-ad26-117d41c065dd" transform="translate(38.23 354.32)"><tspan x="0" y="0">-18</tspan></text><text class="uuid-9d2012a6-3424-4ad7-ad26-117d41c065dd" transform="translate(31.24 129.35)"><tspan x="0" y="0">+12</tspan></text></g><g id="uuid-460e878d-6220-40da-8624-b5c4192ef6d6"><path class="uuid-13195a4c-acde-45b3-aa8f-6c667b099017" d="M88,208.8c77.99-.42,155.97-.64,233.94-.67,2.92,0,15.89.45,33.3,0,21.33-.55,36.37-2,40.7-2.43,13.63-1.36,24.78-2.52,39.57-5.81,17.22-3.84,26.86-7.79,29.47-8.88,6.72-2.81,14.1-5.97,22.63-12.24,2.44-1.8,10.15-7.66,17.97-17.47,9.49-11.91,13.82-23.17,16.6-30.34,2.55-6.58,4.34-12.8,5.18-15.75,1.89-6.62,3.09-12.08,4.12-16.81.94-4.32,1.52-7.36,2.64-13.22,1.42-7.43,3.2-16.77,3.44-18.61.02-.17.08-.66.24-1.31.24-.97.38-.97.59-1.82.23-.94.14-1.28.52-1.74.14-.17.38-.46.75-.48.48-.02.82.44.88.52.21.29.25.6.28.75.1.66.1-.02.56,1.94.58,2.51.83,4.08.83,4.08.4,2.47.43,2.04,1.23,6.42.55,3.01.73,4.31,1.39,8.37.39,2.41.44,2.64,1.52,9.07,2.43,14.42,2.24,13.59,2.85,17.07,1.27,7.19,2.36,12.49,3.48,17.87,1.65,8,2.7,13.05,4.32,19.59,2.63,10.59,5.13,18.5,6.82,23.79,4.24,13.29,8.06,23.02,8.96,25.3,3.48,8.79,6.41,15.21,8.96,20.78,3.68,8.03,7.68,16.7,13.72,27.59,3.22,5.81,5.92,10.27,10.47,17.76,4.47,7.37,8.08,13.08,9.91,15.94,4.26,6.67,7.58,11.66,10.39,15.86,1.93,2.89,5,7.49,8.48,12.53,2.39,3.45,6.22,8.91,15.3,21.17,7.61,10.27,16.2,21.83,27.17,35.74,5.49,6.96,10.48,13.11,11.95,14.91,3.35,4.12,6.29,7.69,8.67,10.56H88v-180Z"/><path class="uuid-13195a4c-acde-45b3-aa8f-6c667b099017" d="M88,208.8c136.15-.78,183.35-.88,196.2-.78,2.74.02,14.29.14,30.03-.11,4.11-.06,10.48-.19,18.29-.42,12.59-.38,31.41-.98,54.77-2.96,6.08-.52,11.6-.99,19.14-1.9,9.41-1.14,18.01-2.21,29.11-4.76,8.51-1.95,14.76-3.92,17.36-4.76,4.63-1.5,9.13-2.97,14.91-5.55,8.94-3.99,15-7.99,16.33-8.88,2.57-1.71,6.74-4.52,11.58-9.04,3.3-3.08,5.52-5.66,7.19-7.61,2.23-2.6,5.96-7.21,9.99-13.59,6.87-10.87,10.6-20.59,12.53-25.69.94-2.5,7.14-19.08,8.51-24.12.46-1.7.84-2.59,1.61-4.36,0,0,.51-1.19,1.76-3.13,0,0,.37-.57,1.19-1.37.08-.08.23-.22.46-.34,0,0,.26-.13.5-.18.8-.15,1.86,2.08,1.86,2.08,1.48,3.09,2.26,6.01,2.36,6.38.77,2.93,1.16,4.4,1.26,4.78.82,3.13,1.42,5.12,1.85,6.61,1.63,5.65,2.4,9.75,4.65,19.03,1.32,5.44,2.44,9.73,3.01,11.89,2.71,10.24,5.03,17.88,5.76,20.25,1.93,6.27,3.4,10.63,5.55,16.97,2.05,6.06,3.06,8.8,4.18,11.63.77,1.96.84,2.03,3.17,7.67,2.91,7.04,3.18,7.82,4.52,11,2.11,5,3.81,8.66,5.31,11.89,3.87,8.34,7.14,14.68,8.41,17.13,3.78,7.29,6.61,12.19,12.26,21.99,5.13,8.9,7.7,13.35,10.89,18.29,3.37,5.23,4.76,6.99,10.15,15.01,6.42,9.55,5.88,9.2,9.73,14.8,4.19,6.1,4.6,6.25,13.22,18.18,5.51,7.62,5,7.09,9.09,12.69,5.01,6.85,9.16,12.29,12.37,16.49,2.31,3.02,4.53,5.89,8.99,11.63,7.14,9.2,10.07,12.89,11,14.06,3.01,3.79,5.53,6.91,7.3,9.08H88v-180Z"/><path class="uuid-a0fbd744-fc49-4fcb-8f17-20cc4a8ae649" d="M88,207v181.8h608.64c-5.87-6.94-13.87-16.6-23.15-28.43-4.3-5.48-7.5-9.68-10.36-13.43-4.96-6.51-13.58-17.83-24.21-32.67-6.23-8.7-12.16-16.97-19.82-28.55-8.16-12.32-14.24-22.28-17.44-27.59-7.76-12.89-15.11-25.09-23.21-41.66-4.89-10.01-8.79-19.02-12.87-28.44-4.22-9.75-9-19.26-12.89-29.14-.32-.8-1.65-4.22-3.93-8.33-1.04-1.88-1.84-3.11-2.66-4.36-.82-1.26-2.06-3.09-3.87-5.11-1.26-1.42-1.74-1.73-2.2-1.94-1.9-.89-3.91-.31-4.44-.16-.86.25-1.47.6-2.5,1.19-1.23.71-2.05,1.37-2.26,1.55-1.19.98-1.94,1.91-2.22,2.26-1.98,2.44-4.19,4.69-6.21,7.1-2.06,2.46-4.16,4.9-6.24,7.35-3.43,4.04-5.16,6.08-5.71,6.66-3.38,3.57-6.35,6.03-8.41,7.72-2.81,2.31-5.07,3.92-6.82,5.15-1.53,1.08-4.01,2.84-7.3,4.84-1.19.72-5.4,3.26-11.34,6.03-5.25,2.45-9.35,3.91-13.08,5.23-1.87.66-5.98,2.08-11.74,3.73-6.28,1.79-13.32,3.5-21.57,5.05-18.03,3.38-32.85,4.27-51.59,5.39-3.26.2-6.65.4-11.31.57-16.04.58-27.74.08-30.03,0-11.94-.43-77.37-.56-249.28,0"/><path class="uuid-92a00040-8382-47ff-bda1-d6406f8fd830" d="M88,208.39c3.68-.03,9.3-.07,16.15-.11,34.28-.2,59.77-.17,68.3-.16,38.21.03,80.94-.49,166.41-1.53,0,0,22.31-.27,55.67-2.7,6.48-.47,18.45-1.4,33.78-3.81,14.09-2.21,22.44-4.32,24.74-4.92,13.47-3.47,22.61-7.17,25.22-8.25,4.59-1.9,8.51-3.75,11.34-5.15,7.44-3.7,13.19-7.18,14.67-8.09,4.67-2.86,8.48-5.23,8.48-5.23,2.13-1.33,3.62-2.26,5.87-3.49,1.1-.6,3.49-1.87,6.58-3.09,1.16-.46,2.18-.81,3.41-1.11,1.03-.25,2.12-.52,3.57-.56,2.02-.05,3.58.37,4.2.56,2,.61,3.33,1.55,5.39,3.01.63.44,1.53,1.09,2.54,1.98,2.14,1.9,3.34,3.66,4.92,5.95,5.04,7.33,4.1,5.82,5.31,7.69,2.07,3.2,3.51,5.6,5.13,8.33,3.79,6.36,3.91,6.96,6.98,12,2.57,4.23,2.79,4.31,4.86,7.82,2.7,4.57,4.48,8.05,5.23,9.52,3.49,6.76,7.53,13.59,12.9,22.68,8.18,13.84,15.14,24.13,21.78,33.94,1.6,2.36,6.19,9.11,13.85,19.88,7.69,10.8,18.44,25.57,31.88,43.08,11.28,14.7,25.26,32.37,41.81,52.16H88v-180.41Z"/><path class="uuid-6b0a07fc-c00e-499a-b218-8bddd47995c4" d="M88,208.8h242.93c1.71,0,9.56.13,20.19,0,8.77-.11,14.57-.33,21.67-.57,30.68-1.03,30.07-.57,46.2-1.37,12.72-.63,19.07-.95,28.18-1.85,7.88-.78,16.77-1.87,33.15-3.49,3.37-.33,8.7-.85,15.7-.95,5.61-.08,10.35.12,13.48.32,3.63.22,5.45.31,7.61.63,3.64.55,6.32,1.31,8.09,1.82,6.31,1.83,10.94,4.1,12.85,5.07,3.75,1.93,6.32,3.68,9.04,5.55,2.55,1.75,7.68,5.43,14.19,11.5,2.89,2.69,5.48,5.31,11.58,12.05,5.49,6.07,10.92,12.08,19.11,21.89,6.22,7.45,5.31,6.64,16.39,20.19,9.43,11.53,9.19,11.02,15.65,19.03,6.22,7.71,7.9,10,14.75,18.42,2,2.46,4.69,5.72,9.99,12.13,15.67,18.96,15.17,18.26,22.84,27.59,6.42,7.81,7.11,8.72,10.04,12.16,3.9,4.57,6.39,7.32,10.94,12.79,2.46,2.96,4.44,5.42,5.76,7.07H88v-180Z"/><path class="uuid-1eddb5af-9415-45f8-95ff-07d35a676cc5" d="M88,208.8c131.71.08,187.58.07,196.31,0,.8,0,4.31-.04,9.04,0,8.88.07,15.16.33,19.67.49,17.79.65,17.31.22,33.78.87,2.05.08,10.09.4,20.72,1.03,13.81.81,24.33,1.69,28.12,2.01,11.45.97,18.51,1.57,26.85,2.64,7.31.94,30.97,4.2,60.13,12.95,11.71,3.51,19.47,6.46,21.65,7.3,13.86,5.32,23.83,10.43,26.64,11.89,10.75,5.59,18.42,10.6,25.22,15.07,9.23,6.07,15.86,11.04,21.41,15.22,7.19,5.41,16.58,12.78,28.07,22.68,20.38,17.55,35.13,32.55,44.41,42.03,9.83,10.04,20.77,21.73,36.79,38.85,2.73,2.92,4.98,5.33,6.5,6.96H88v-180Z"/><path class="uuid-32ea5f8b-5d4e-457a-8aac-ae3523f92c69" d="M88,208.8c77.99-.42,155.97-.64,233.94-.67,2.92,0,15.89.45,33.3,0,21.33-.55,36.37-2,40.7-2.43,13.63-1.36,24.78-2.52,39.57-5.81,17.22-3.84,26.86-7.79,29.47-8.88,6.72-2.81,14.1-5.97,22.63-12.24,2.44-1.8,10.15-7.66,17.97-17.47,9.49-11.91,13.82-23.17,16.6-30.34,2.55-6.58,4.34-12.8,5.18-15.75,1.89-6.62,3.09-12.08,4.12-16.81.94-4.32,1.52-7.36,2.64-13.22,1.42-7.43,3.2-16.77,3.44-18.61.02-.17.08-.66.24-1.31.24-.97.38-.97.59-1.82.23-.94.14-1.28.52-1.74.14-.17.38-.46.75-.48.48-.02.82.44.88.52.21.29.25.6.28.75.1.66.1-.02.56,1.94.58,2.51.83,4.08.83,4.08.4,2.47.43,2.04,1.23,6.42.55,3.01.73,4.31,1.39,8.37.39,2.41.44,2.64,1.52,9.07,2.43,14.42,2.24,13.59,2.85,17.07,1.27,7.19,2.36,12.49,3.48,17.87,1.65,8,2.7,13.05,4.32,19.59,2.63,10.59,5.13,18.5,6.82,23.79,4.24,13.29,8.06,23.02,8.96,25.3,3.48,8.79,6.41,15.21,8.96,20.78,3.68,8.03,7.68,16.7,13.72,27.59,3.22,5.81,5.92,10.27,10.47,17.76,4.47,7.37,8.08,13.08,9.91,15.94,4.26,6.67,7.58,11.66,10.39,15.86,1.93,2.89,5,7.49,8.48,12.53,2.39,3.45,6.22,8.91,15.3,21.17,7.61,10.27,16.2,21.83,27.17,35.74,5.49,6.96,10.48,13.11,11.95,14.91,3.35,4.12,6.29,7.69,8.67,10.56"/><path class="uuid-32ea5f8b-5d4e-457a-8aac-ae3523f92c69" d="M88,208.8c136.15-.78,183.35-.88,196.2-.78,2.74.02,14.29.14,30.03-.11,4.11-.06,10.48-.19,18.29-.42,12.59-.38,31.41-.98,54.77-2.96,6.08-.52,11.6-.99,19.14-1.9,9.41-1.14,18.01-2.21,29.11-4.76,8.51-1.95,14.76-3.92,17.36-4.76,4.63-1.5,9.13-2.97,14.91-5.55,8.94-3.99,15-7.99,16.33-8.88,2.57-1.71,6.74-4.52,11.58-9.04,3.3-3.08,5.52-5.66,7.19-7.61,2.23-2.6,5.96-7.21,9.99-13.59,6.87-10.87,10.6-20.59,12.53-25.69.94-2.5,7.14-19.08,8.51-24.12.46-1.7.84-2.59,1.61-4.36,0,0,.51-1.19,1.76-3.13,0,0,.37-.57,1.19-1.37.08-.08.23-.22.46-.34,0,0,.26-.13.5-.18.8-.15,1.86,2.08,1.86,2.08,1.48,3.09,2.26,6.01,2.36,6.38.77,2.93,1.16,4.4,1.26,4.78.82,3.13,1.42,5.12,1.85,6.61,1.63,5.65,2.4,9.75,4.65,19.03,1.32,5.44,2.44,9.73,3.01,11.89,2.71,10.24,5.03,17.88,5.76,20.25,1.93,6.27,3.4,10.63,5.55,16.97,2.05,6.06,3.06,8.8,4.18,11.63.77,1.96.84,2.03,3.17,7.67,2.91,7.04,3.18,7.82,4.52,11,2.11,5,3.81,8.66,5.31,11.89,3.87,8.34,7.14,14.68,8.41,17.13,3.78,7.29,6.61,12.19,12.26,21.99,5.13,8.9,7.7,13.35,10.89,18.29,3.37,5.23,4.76,6.99,10.15,15.01,6.42,9.55,5.88,9.2,9.73,14.8,4.19,6.1,4.6,6.25,13.22,18.18,5.51,7.62,5,7.09,9.09,12.69,5.01,6.85,9.16,12.29,12.37,16.49,2.31,3.02,4.53,5.89,8.99,11.63,7.14,9.2,10.07,12.89,11,14.06,3.01,3.79,5.53,6.91,7.3,9.08"/><path class="uuid-32ea5f8b-5d4e-457a-8aac-ae3523f92c69" d="M88,208.8c171.91-.56,237.33-.43,249.28,0,2.29.08,13.98.58,30.03,0,4.66-.17,8.06-.37,11.31-.57,18.74-1.13,33.56-2.02,51.59-5.39,8.24-1.54,15.28-3.26,21.57-5.05,5.76-1.64,9.87-3.06,11.74-3.73,3.73-1.32,7.84-2.79,13.08-5.23,5.94-2.77,10.15-5.3,11.34-6.03,3.28-2,5.77-3.75,7.3-4.84,1.75-1.24,4.01-2.85,6.82-5.15,2.06-1.69,5.03-4.14,8.41-7.72.55-.59,2.28-2.62,5.71-6.66,2.08-2.45,4.17-4.89,6.24-7.35,2.02-2.41,4.23-4.65,6.21-7.1.29-.35,1.03-1.28,2.22-2.26.21-.17,1.03-.84,2.26-1.55,1.03-.59,1.64-.94,2.5-1.19.53-.15,2.54-.73,4.44.16.46.22.94.53,2.2,1.94,1.81,2.02,3.04,3.85,3.87,5.11.81,1.25,1.61,2.48,2.66,4.36,2.28,4.11,3.61,7.52,3.93,8.33,3.89,9.88,8.67,19.39,12.89,29.14,4.08,9.42,7.98,18.43,12.87,28.44,8.1,16.56,15.44,28.76,23.21,41.66,3.2,5.32,9.29,15.28,17.44,27.59,7.67,11.58,13.59,19.84,19.82,28.55,10.63,14.84,19.25,26.16,24.21,32.67,2.86,3.75,6.06,7.95,10.36,13.43,9.28,11.83,17.28,21.48,23.15,28.43"/><path class="uuid-32ea5f8b-5d4e-457a-8aac-ae3523f92c69" d="M88,208.39c3.68-.03,9.3-.07,16.15-.11,34.28-.2,59.77-.17,68.3-.16,38.21.03,80.94-.49,166.41-1.53,0,0,22.31-.27,55.67-2.7,6.48-.47,18.45-1.4,33.78-3.81,14.09-2.21,22.44-4.32,24.74-4.92,13.47-3.47,22.61-7.17,25.22-8.25,4.59-1.9,8.51-3.75,11.34-5.15,7.44-3.7,13.19-7.18,14.67-8.09,4.67-2.86,8.48-5.23,8.48-5.23,2.13-1.33,3.62-2.26,5.87-3.49,1.1-.6,3.49-1.87,6.58-3.09,1.16-.46,2.18-.81,3.41-1.11,1.03-.25,2.12-.52,3.57-.56,2.02-.05,3.58.37,4.2.56,2,.61,3.33,1.55,5.39,3.01.63.44,1.53,1.09,2.54,1.98,2.14,1.9,3.34,3.66,4.92,5.95,5.04,7.33,4.1,5.82,5.31,7.69,2.07,3.2,3.51,5.6,5.13,8.33,3.79,6.36,3.91,6.96,6.98,12,2.57,4.23,2.79,4.31,4.86,7.82,2.7,4.57,4.48,8.05,5.23,9.52,3.49,6.76,7.53,13.59,12.9,22.68,8.18,13.84,15.14,24.13,21.78,33.94,1.6,2.36,6.19,9.11,13.85,19.88,7.69,10.8,18.44,25.57,31.88,43.08,11.28,14.7,25.26,32.37,41.81,52.16"/><path class="uuid-32ea5f8b-5d4e-457a-8aac-ae3523f92c69" d="M88,208.8h242.93c1.71,0,9.56.13,20.19,0,8.77-.11,14.57-.33,21.67-.57,30.68-1.03,30.07-.57,46.2-1.37,12.72-.63,19.07-.95,28.18-1.85,7.88-.78,16.77-1.87,33.15-3.49,3.37-.33,8.7-.85,15.7-.95,5.61-.08,10.35.12,13.48.32,3.63.22,5.45.31,7.61.63,3.64.55,6.32,1.31,8.09,1.82,6.31,1.83,10.94,4.1,12.85,5.07,3.75,1.93,6.32,3.68,9.04,5.55,2.55,1.75,7.68,5.43,14.19,11.5,2.89,2.69,5.48,5.31,11.58,12.05,5.49,6.07,10.92,12.08,19.11,21.89,6.22,7.45,5.31,6.64,16.39,20.19,9.43,11.53,9.19,11.02,15.65,19.03,6.22,7.71,7.9,10,14.75,18.42,2,2.46,4.69,5.72,9.99,12.13,15.67,18.96,15.17,18.26,22.84,27.59,6.42,7.81,7.11,8.72,10.04,12.16,3.9,4.57,6.39,7.32,10.94,12.79,2.46,2.96,4.44,5.42,5.76,7.07"/><path class="uuid-32ea5f8b-5d4e-457a-8aac-ae3523f92c69" d="M88,208.8c131.71.08,187.58.07,196.31,0,.8,0,4.31-.04,9.04,0,8.88.07,15.16.33,19.67.49,17.79.65,17.31.22,33.78.87,2.05.08,10.09.4,20.72,1.03,13.81.81,24.33,1.69,28.12,2.01,11.45.97,18.51,1.57,26.85,2.64,7.31.94,30.97,4.2,60.13,12.95,11.71,3.51,19.47,6.46,21.65,7.3,13.86,5.32,23.83,10.43,26.64,11.89,10.75,5.59,18.42,10.6,25.22,15.07,9.23,6.07,15.86,11.04,21.41,15.22,7.19,5.41,16.58,12.78,28.07,22.68,20.38,17.55,35.13,32.55,44.41,42.03,9.83,10.04,20.77,21.73,36.79,38.85,2.73,2.92,4.98,5.33,6.5,6.96"/></g></svg>