<?xml version="1.0" encoding="UTF-8"?><svg id="Ebene_1" xmlns="http://www.w3.org/2000/svg" xmlns:xlink="http://www.w3.org/1999/xlink" viewBox="0 0 1920 396"><defs><style>.cls-1{letter-spacing:-.16em;}.cls-2{fill:url(#Unbenannter_Verlauf_4);}.cls-2,.cls-3,.cls-4{stroke-width:0px;}.cls-3{fill:url(#Unbenannter_Verlauf_3);}.cls-5{stroke:#c9d1d9;stroke-width:2.83px;}.cls-5,.cls-6{fill:none;stroke-miterlimit:10;}.cls-7{letter-spacing:0em;}.cls-4{fill:#7f7f7f;}.cls-8{fill:#c9d1d9;}.cls-8,.cls-9{font-family:Roboto-Regular, Roboto;font-size:48px;}.cls-9{fill:#0d1117;}.cls-6{stroke:#7f7f7f;stroke-width:5.67px;}</style><linearGradient id="Unbenannter_Verlauf_4" x1="107.2" y1="343" x2="1007.2" y2="343" gradientUnits="userSpaceOnUse"><stop offset="0" stop-color="#0d1117"/><stop offset="1" stop-color="#7f7f7f"/></linearGradient><linearGradient id="Unbenannter_Verlauf_3" x1="-350.34" y1="172.13" x2="549.66" y2="172.13" gradientTransform="translate(1357.54 170.87)" gradientUnits="userSpaceOnUse"><stop offset="0" stop-color="#0d1117"/><stop offset="1" stop-color="#7f7f7f"/></linearGradient></defs><rect class="cls-2" x="107.2" y="314.2" width="900" height="57.6"/><rect class="cls-3" x="1007.2" y="314.2" width="900" height="57.6" transform="translate(2914.4 686) rotate(180)"/><line class="cls-6" x1="157.43" y1="141.4" x2="1856.97" y2="141.4"/><polygon class="cls-4" points="168.66 157.87 107.2 141.41 168.66 124.93 168.66 157.87"/><polygon class="cls-4" points="1845.74 157.87 1907.2 141.41 1845.74 124.93 1845.74 157.87"/><line class="cls-6" x1="1007.2" y1="127" x2="1007.2" y2="155.8"/><line class="cls-6" x1="812.8" y1="127" x2="812.8" y2="155.8"/><line class="cls-6" x1="618.4" y1="127" x2="618.4" y2="155.8"/><line class="cls-6" x1="424" y1="127" x2="424" y2="155.8"/><line class="cls-6" x1="229.6" y1="127" x2="229.6" y2="155.8"/><line class="cls-6" x1="1784.8" y1="127" x2="1784.8" y2="155.8"/><line class="cls-6" x1="1590.4" y1="127" x2="1590.4" y2="155.8"/><line class="cls-6" x1="1396" y1="127" x2="1396" y2="155.8"/><line class="cls-6" x1="1201.6" y1="127" x2="1201.6" y2="155.8"/><text class="cls-8" transform="translate(194.79 86.4)"><tspan x="0" y="0">10</tspan></text><text class="cls-8" transform="translate(248.7 70.42) scale(.58)"><tspan x="0" y="0">-4</tspan></text><text class="cls-8" transform="translate(363.78 86.4)"><tspan x="0" y="0">0.001</tspan></text><text class="cls-8" transform="translate(571.65 86.4)"><tspan x="0" y="0">0.01</tspan></text><text class="cls-8" transform="translate(779.53 86.4)"><tspan x="0" y="0">0.1</tspan></text><text class="cls-8" transform="translate(993.72 86.4)"><tspan x="0" y="0">1</tspan></text><text class="cls-8" transform="translate(1174.65 86.4)"><tspan x="0" y="0">10</tspan></text><text class="cls-8" transform="translate(1355.57 86.4)"><tspan x="0" y="0">100</tspan></text><text class="cls-8" transform="translate(1536.49 86.4)"><tspan x="0" y="0">1000</tspan></text><text class="cls-8" transform="translate(1749.99 86.4)"><tspan x="0" y="0">10</tspan></text><text class="cls-8" transform="translate(1803.9 70.42) scale(.58)"><tspan x="0" y="0">4</tspan></text><text class="cls-8" transform="translate(167.55 237.6)"><tspan x="0" y="0">-80dB</tspan></text><text class="cls-8" transform="translate(361.95 237.6)"><tspan x="0" y="0">-60dB</tspan></text><text class="cls-8" transform="translate(556.35 237.6)"><tspan x="0" y="0">-40dB</tspan></text><text class="cls-8" transform="translate(750.75 237.6)"><tspan x="0" y="0">-20dB</tspan></text><text class="cls-8" transform="translate(965.25 237.6)"><tspan x="0" y="0">0dB</tspan></text><text class="cls-8" transform="translate(1146.17 237.6)"><tspan x="0" y="0">20dB</tspan></text><text class="cls-8" transform="translate(1340.57 237.6)"><tspan x="0" y="0">40dB</tspan></text><text class="cls-8" transform="translate(1534.97 237.6)"><tspan x="0" y="0">60dB</tspan></text><text class="cls-8" transform="translate(1729.37 237.6)"><tspan x="0" y="0">80dB</tspan></text><text class="cls-8" transform="translate(395.2 358.79)"><tspan class="cls-7" x="0" y="0">A</tspan><tspan x="30.91" y="0">ttenuation</tspan><tspan class="cls-1" x="247.95" y="0">	</tspan></text><text class="cls-8" transform="translate(1351.03 358.79)"><tspan x="0" y="0">Amplification</tspan></text><text class="cls-9" transform="translate(953.38 358.79)"><tspan x="0" y="0">Unity</tspan></text><text class="cls-8" transform="translate(22.07 43.2)"><tspan x="0" y="0">V</tspan></text><text class="cls-8" transform="translate(52.61 59.18) scale(.58)"><tspan x="0" y="0">out</tspan></text><text class="cls-8" transform="translate(31.21 108)"><tspan x="0" y="0">V</tspan></text><text class="cls-8" transform="translate(61.75 123.98) scale(.58)"><tspan x="0" y="0">in</tspan></text><line class="cls-5" x1="14.4" y1="64.8" x2="108" y2="64.8"/><line class="cls-5" x1="7.2" x2="7.2" y2="129.6"/><line class="cls-5" x1="115.2" x2="115.2" y2="129.6"/><text class="cls-8" transform="translate(0 237.6)"><tspan x="0" y="0">Gain</tspan></text></svg>