<?xml version="1.0" encoding="UTF-8"?>
<svg id="Ebene_1" data-name="Ebene 1" xmlns="http://www.w3.org/2000/svg" width="1920" height="396" xmlns:xlink="http://www.w3.org/1999/xlink" viewBox="0 0 1920 396">
  <defs>
    <linearGradient id="Unbenannter_Verlauf" data-name="Unbenannter Verlauf" x1="107.2" y1="55" x2="1007.2" y2="55" gradientTransform="translate(0 398) scale(1 -1)" gradientUnits="userSpaceOnUse">
      <stop offset="0" stop-color="#0d1117"/>
      <stop offset="1" stop-color="#7f7f7f"/>
    </linearGradient>
    <linearGradient id="Unbenannter_Verlauf_2" data-name="Unbenannter Verlauf 2" x1="203.66" y1="595.87" x2="1103.66" y2="595.87" gradientTransform="translate(2110.86 -252.87) rotate(-180) scale(1 -1)" gradientUnits="userSpaceOnUse">
      <stop offset="0" stop-color="#0d1117"/>
      <stop offset="1" stop-color="#7f7f7f"/>
    </linearGradient>
  </defs>
  <rect x="107.2" y="314.2" width="900" height="57.6" fill="url(#Unbenannter_Verlauf)"/>
  <rect x="1007.2" y="314.2" width="900" height="57.6" fill="url(#Unbenannter_Verlauf_2)"/>
  <line x1="157.43" y1="141.4" x2="1856.97" y2="141.4" fill="none" stroke="#7f7f7f" stroke-miterlimit="10" stroke-width="5.67"/>
  <polygon points="168.66 157.87 107.2 141.41 168.66 124.93 168.66 157.87" fill="#7f7f7f"/>
  <polygon points="1845.74 157.87 1907.2 141.41 1845.74 124.93 1845.74 157.87" fill="#7f7f7f"/>
  <line x1="1007.2" y1="127" x2="1007.2" y2="155.8" fill="none" stroke="#7f7f7f" stroke-miterlimit="10" stroke-width="5.67"/>
  <line x1="812.8" y1="127" x2="812.8" y2="155.8" fill="none" stroke="#7f7f7f" stroke-miterlimit="10" stroke-width="5.67"/>
  <line x1="618.4" y1="127" x2="618.4" y2="155.8" fill="none" stroke="#7f7f7f" stroke-miterlimit="10" stroke-width="5.67"/>
  <line x1="424" y1="127" x2="424" y2="155.8" fill="none" stroke="#7f7f7f" stroke-miterlimit="10" stroke-width="5.67"/>
  <line x1="229.6" y1="127" x2="229.6" y2="155.8" fill="none" stroke="#7f7f7f" stroke-miterlimit="10" stroke-width="5.67"/>
  <line x1="1784.8" y1="127" x2="1784.8" y2="155.8" fill="none" stroke="#7f7f7f" stroke-miterlimit="10" stroke-width="5.67"/>
  <line x1="1590.4" y1="127" x2="1590.4" y2="155.8" fill="none" stroke="#7f7f7f" stroke-miterlimit="10" stroke-width="5.67"/>
  <line x1="1396" y1="127" x2="1396" y2="155.8" fill="none" stroke="#7f7f7f" stroke-miterlimit="10" stroke-width="5.67"/>
  <line x1="1201.6" y1="127" x2="1201.6" y2="155.8" fill="none" stroke="#7f7f7f" stroke-miterlimit="10" stroke-width="5.67"/>
  <g isolation="isolate">
    <g isolation="isolate">
      <path d="m211.876,86.4h-4.359v-28.898l-8.742,3.211v-3.938l12.422-4.664h.68v34.289Z" fill="#c9d1d9"/>
      <path d="m245.978,71.845c0,5.078-.867,8.852-2.602,11.32s-4.445,3.703-8.133,3.703c-3.641,0-6.336-1.207-8.086-3.621s-2.656-6.02-2.719-10.816v-5.789c0-5.016.867-8.742,2.602-11.18s4.453-3.656,8.156-3.656c3.672,0,6.375,1.176,8.109,3.527s2.625,5.98,2.672,10.887v5.625Zm-4.336-5.93c0-3.672-.516-6.348-1.547-8.027s-2.664-2.52-4.898-2.52c-2.219,0-3.836.836-4.852,2.508s-1.539,4.242-1.57,7.711v6.938c0,3.688.535,6.41,1.605,8.168s2.691,2.637,4.863,2.637c2.141,0,3.73-.828,4.77-2.484s1.582-4.266,1.629-7.828v-7.102Z" fill="#c9d1d9"/>
    </g>
  </g>
  <g isolation="isolate">
    <g isolation="isolate">
      <path d="m255.837,63.039h-6.634v-2.053h6.634v2.053Z" fill="#c9d1d9"/>
      <path d="m268.643,63.772h2.746v2.053h-2.746v4.595h-2.529v-4.595h-9.012v-1.481l8.863-13.716h2.678v13.145Zm-8.687,0h6.158v-9.706l-.299.544-5.859,9.162Z" fill="#c9d1d9"/>
    </g>
  </g>
  <g isolation="isolate">
    <g isolation="isolate">
      <path d="m388.014,71.845c0,5.078-.867,8.852-2.602,11.32s-4.445,3.703-8.133,3.703c-3.641,0-6.336-1.207-8.086-3.621s-2.656-6.02-2.719-10.816v-5.789c0-5.016.867-8.742,2.602-11.18s4.453-3.656,8.156-3.656c3.672,0,6.375,1.176,8.109,3.527s2.625,5.98,2.672,10.887v5.625Zm-4.336-5.93c0-3.672-.516-6.348-1.547-8.027s-2.664-2.52-4.898-2.52c-2.219,0-3.836.836-4.852,2.508s-1.539,4.242-1.57,7.711v6.938c0,3.688.535,6.41,1.605,8.168s2.691,2.637,4.863,2.637c2.141,0,3.73-.828,4.77-2.484s1.582-4.266,1.629-7.828v-7.102Z" fill="#c9d1d9"/>
      <path d="m394.108,84.126c0-.75.223-1.375.668-1.875s1.113-.75,2.004-.75,1.566.25,2.027.75.691,1.125.691,1.875c0,.719-.23,1.32-.691,1.805s-1.137.727-2.027.727-1.559-.242-2.004-.727-.668-1.086-.668-1.805Z" fill="#c9d1d9"/>
      <path d="m427.6,71.845c0,5.078-.867,8.852-2.602,11.32s-4.445,3.703-8.133,3.703c-3.641,0-6.336-1.207-8.086-3.621s-2.656-6.02-2.719-10.816v-5.789c0-5.016.867-8.742,2.602-11.18s4.453-3.656,8.156-3.656c3.672,0,6.375,1.176,8.109,3.527s2.625,5.98,2.672,10.887v5.625Zm-4.336-5.93c0-3.672-.516-6.348-1.547-8.027s-2.664-2.52-4.898-2.52c-2.219,0-3.836.836-4.852,2.508s-1.539,4.242-1.57,7.711v6.938c0,3.688.535,6.41,1.605,8.168s2.691,2.637,4.863,2.637c2.141,0,3.73-.828,4.77-2.484s1.582-4.266,1.629-7.828v-7.102Z" fill="#c9d1d9"/>
      <path d="m454.553,71.845c0,5.078-.867,8.852-2.602,11.32s-4.445,3.703-8.133,3.703c-3.641,0-6.336-1.207-8.086-3.621s-2.656-6.02-2.719-10.816v-5.789c0-5.016.867-8.742,2.602-11.18s4.453-3.656,8.156-3.656c3.672,0,6.375,1.176,8.109,3.527s2.625,5.98,2.672,10.887v5.625Zm-4.336-5.93c0-3.672-.516-6.348-1.547-8.027s-2.664-2.52-4.898-2.52c-2.219,0-3.836.836-4.852,2.508s-1.539,4.242-1.57,7.711v6.938c0,3.688.535,6.41,1.605,8.168s2.691,2.637,4.863,2.637c2.141,0,3.73-.828,4.77-2.484s1.582-4.266,1.629-7.828v-7.102Z" fill="#c9d1d9"/>
      <path d="m474.358,86.4h-4.359v-28.898l-8.742,3.211v-3.938l12.422-4.664h.68v34.289Z" fill="#c9d1d9"/>
    </g>
  </g>
  <g isolation="isolate">
    <g isolation="isolate">
      <path d="m595.884,71.845c0,5.078-.867,8.852-2.602,11.32s-4.445,3.703-8.133,3.703c-3.641,0-6.336-1.207-8.086-3.621s-2.656-6.02-2.719-10.816v-5.789c0-5.016.867-8.742,2.602-11.18s4.453-3.656,8.156-3.656c3.672,0,6.375,1.176,8.109,3.527s2.625,5.98,2.672,10.887v5.625Zm-4.336-5.93c0-3.672-.516-6.348-1.547-8.027s-2.664-2.52-4.898-2.52c-2.219,0-3.836.836-4.852,2.508s-1.539,4.242-1.57,7.711v6.938c0,3.688.535,6.41,1.605,8.168s2.691,2.637,4.863,2.637c2.141,0,3.73-.828,4.77-2.484s1.582-4.266,1.629-7.828v-7.102Z" fill="#c9d1d9"/>
      <path d="m601.978,84.126c0-.75.223-1.375.668-1.875s1.113-.75,2.004-.75,1.566.25,2.027.75.691,1.125.691,1.875c0,.719-.23,1.32-.691,1.805s-1.137.727-2.027.727-1.559-.242-2.004-.727-.668-1.086-.668-1.805Z" fill="#c9d1d9"/>
      <path d="m635.47,71.845c0,5.078-.867,8.852-2.602,11.32s-4.445,3.703-8.133,3.703c-3.641,0-6.336-1.207-8.086-3.621s-2.656-6.02-2.719-10.816v-5.789c0-5.016.867-8.742,2.602-11.18s4.453-3.656,8.156-3.656c3.672,0,6.375,1.176,8.109,3.527s2.625,5.98,2.672,10.887v5.625Zm-4.336-5.93c0-3.672-.516-6.348-1.547-8.027s-2.664-2.52-4.898-2.52c-2.219,0-3.836.836-4.852,2.508s-1.539,4.242-1.57,7.711v6.938c0,3.688.535,6.41,1.605,8.168s2.691,2.637,4.863,2.637c2.141,0,3.73-.828,4.77-2.484s1.582-4.266,1.629-7.828v-7.102Z" fill="#c9d1d9"/>
      <path d="m655.275,86.4h-4.359v-28.898l-8.742,3.211v-3.938l12.422-4.664h.68v34.289Z" fill="#c9d1d9"/>
    </g>
  </g>
  <g isolation="isolate">
    <g isolation="isolate">
      <path d="m803.765,71.845c0,5.078-.867,8.852-2.602,11.32s-4.445,3.703-8.133,3.703c-3.641,0-6.336-1.207-8.086-3.621s-2.656-6.02-2.719-10.816v-5.789c0-5.016.867-8.742,2.602-11.18s4.453-3.656,8.156-3.656c3.672,0,6.375,1.176,8.109,3.527s2.625,5.98,2.672,10.887v5.625Zm-4.336-5.93c0-3.672-.516-6.348-1.547-8.027s-2.664-2.52-4.898-2.52c-2.219,0-3.836.836-4.852,2.508s-1.539,4.242-1.57,7.711v6.938c0,3.688.535,6.41,1.605,8.168s2.691,2.637,4.863,2.637c2.141,0,3.73-.828,4.77-2.484s1.582-4.266,1.629-7.828v-7.102Z" fill="#c9d1d9"/>
      <path d="m809.858,84.126c0-.75.223-1.375.668-1.875s1.113-.75,2.004-.75,1.566.25,2.027.75.691,1.125.691,1.875c0,.719-.23,1.32-.691,1.805s-1.137.727-2.027.727-1.559-.242-2.004-.727-.668-1.086-.668-1.805Z" fill="#c9d1d9"/>
      <path d="m836.202,86.4h-4.359v-28.898l-8.742,3.211v-3.938l12.422-4.664h.68v34.289Z" fill="#c9d1d9"/>
    </g>
  </g>
  <g isolation="isolate">
    <g isolation="isolate">
      <path d="m1010.806,86.4h-4.359v-28.898l-8.742,3.211v-3.938l12.422-4.664h.68v34.289Z" fill="#c9d1d9"/>
    </g>
  </g>
  <g isolation="isolate">
    <g isolation="isolate">
      <path d="m1191.736,86.4h-4.359v-28.898l-8.742,3.211v-3.938l12.422-4.664h.68v34.289Z" fill="#c9d1d9"/>
      <path d="m1225.838,71.845c0,5.078-.867,8.852-2.602,11.32s-4.445,3.703-8.133,3.703c-3.641,0-6.336-1.207-8.086-3.621s-2.656-6.02-2.719-10.816v-5.789c0-5.016.867-8.742,2.602-11.18s4.453-3.656,8.156-3.656c3.672,0,6.375,1.176,8.109,3.527s2.625,5.98,2.672,10.887v5.625Zm-4.336-5.93c0-3.672-.516-6.348-1.547-8.027s-2.664-2.52-4.898-2.52c-2.219,0-3.836.836-4.852,2.508s-1.539,4.242-1.57,7.711v6.938c0,3.688.535,6.41,1.605,8.168s2.691,2.637,4.863,2.637c2.141,0,3.73-.828,4.77-2.484s1.582-4.266,1.629-7.828v-7.102Z" fill="#c9d1d9"/>
    </g>
  </g>
  <g isolation="isolate">
    <g isolation="isolate">
      <path d="m1372.656,86.4h-4.359v-28.898l-8.742,3.211v-3.938l12.422-4.664h.68v34.289Z" fill="#c9d1d9"/>
      <path d="m1406.758,71.845c0,5.078-.867,8.852-2.602,11.32s-4.445,3.703-8.133,3.703c-3.641,0-6.336-1.207-8.086-3.621s-2.656-6.02-2.719-10.816v-5.789c0-5.016.867-8.742,2.602-11.18s4.453-3.656,8.156-3.656c3.672,0,6.375,1.176,8.109,3.527s2.625,5.98,2.672,10.887v5.625Zm-4.336-5.93c0-3.672-.516-6.348-1.547-8.027s-2.664-2.52-4.898-2.52c-2.219,0-3.836.836-4.852,2.508s-1.539,4.242-1.57,7.711v6.938c0,3.688.535,6.41,1.605,8.168s2.691,2.637,4.863,2.637c2.141,0,3.73-.828,4.77-2.484s1.582-4.266,1.629-7.828v-7.102Z" fill="#c9d1d9"/>
      <path d="m1433.711,71.845c0,5.078-.867,8.852-2.602,11.32s-4.445,3.703-8.133,3.703c-3.641,0-6.336-1.207-8.086-3.621s-2.656-6.02-2.719-10.816v-5.789c0-5.016.867-8.742,2.602-11.18s4.453-3.656,8.156-3.656c3.672,0,6.375,1.176,8.109,3.527s2.625,5.98,2.672,10.887v5.625Zm-4.336-5.93c0-3.672-.516-6.348-1.547-8.027s-2.664-2.52-4.898-2.52c-2.219,0-3.836.836-4.852,2.508s-1.539,4.242-1.57,7.711v6.938c0,3.688.535,6.41,1.605,8.168s2.691,2.637,4.863,2.637c2.141,0,3.73-.828,4.77-2.484s1.582-4.266,1.629-7.828v-7.102Z" fill="#c9d1d9"/>
    </g>
  </g>
  <g isolation="isolate">
    <g isolation="isolate">
      <path d="m1553.576,86.4h-4.359v-28.898l-8.742,3.211v-3.938l12.422-4.664h.68v34.289Z" fill="#c9d1d9"/>
      <path d="m1587.678,71.845c0,5.078-.867,8.852-2.602,11.32s-4.445,3.703-8.133,3.703c-3.641,0-6.336-1.207-8.086-3.621s-2.656-6.02-2.719-10.816v-5.789c0-5.016.867-8.742,2.602-11.18s4.453-3.656,8.156-3.656c3.672,0,6.375,1.176,8.109,3.527s2.625,5.98,2.672,10.887v5.625Zm-4.336-5.93c0-3.672-.516-6.348-1.547-8.027s-2.664-2.52-4.898-2.52c-2.219,0-3.836.836-4.852,2.508s-1.539,4.242-1.57,7.711v6.938c0,3.688.535,6.41,1.605,8.168s2.691,2.637,4.863,2.637c2.141,0,3.73-.828,4.77-2.484s1.582-4.266,1.629-7.828v-7.102Z" fill="#c9d1d9"/>
      <path d="m1614.631,71.845c0,5.078-.867,8.852-2.602,11.32s-4.445,3.703-8.133,3.703c-3.641,0-6.336-1.207-8.086-3.621s-2.656-6.02-2.719-10.816v-5.789c0-5.016.867-8.742,2.602-11.18s4.453-3.656,8.156-3.656c3.672,0,6.375,1.176,8.109,3.527s2.625,5.98,2.672,10.887v5.625Zm-4.336-5.93c0-3.672-.516-6.348-1.547-8.027s-2.664-2.52-4.898-2.52c-2.219,0-3.836.836-4.852,2.508s-1.539,4.242-1.57,7.711v6.938c0,3.688.535,6.41,1.605,8.168s2.691,2.637,4.863,2.637c2.141,0,3.73-.828,4.77-2.484s1.582-4.266,1.629-7.828v-7.102Z" fill="#c9d1d9"/>
      <path d="m1641.584,71.845c0,5.078-.867,8.852-2.602,11.32s-4.445,3.703-8.133,3.703c-3.641,0-6.336-1.207-8.086-3.621s-2.656-6.02-2.719-10.816v-5.789c0-5.016.867-8.742,2.602-11.18s4.453-3.656,8.156-3.656c3.672,0,6.375,1.176,8.109,3.527s2.625,5.98,2.672,10.887v5.625Zm-4.336-5.93c0-3.672-.516-6.348-1.547-8.027s-2.664-2.52-4.898-2.52c-2.219,0-3.836.836-4.852,2.508s-1.539,4.242-1.57,7.711v6.938c0,3.688.535,6.41,1.605,8.168s2.691,2.637,4.863,2.637c2.141,0,3.73-.828,4.77-2.484s1.582-4.266,1.629-7.828v-7.102Z" fill="#c9d1d9"/>
    </g>
  </g>
  <g isolation="isolate">
    <g isolation="isolate">
      <path d="m1767.076,86.4h-4.359v-28.898l-8.742,3.211v-3.938l12.422-4.664h.68v34.289Z" fill="#c9d1d9"/>
      <path d="m1801.178,71.845c0,5.078-.867,8.852-2.602,11.32s-4.445,3.703-8.133,3.703c-3.641,0-6.336-1.207-8.086-3.621s-2.656-6.02-2.719-10.816v-5.789c0-5.016.867-8.742,2.602-11.18s4.453-3.656,8.156-3.656c3.672,0,6.375,1.176,8.109,3.527s2.625,5.98,2.672,10.887v5.625Zm-4.336-5.93c0-3.672-.516-6.348-1.547-8.027s-2.664-2.52-4.898-2.52c-2.219,0-3.836.836-4.852,2.508s-1.539,4.242-1.57,7.711v6.938c0,3.688.535,6.41,1.605,8.168s2.691,2.637,4.863,2.637c2.141,0,3.73-.828,4.77-2.484s1.582-4.266,1.629-7.828v-7.102Z" fill="#c9d1d9"/>
    </g>
  </g>
  <g isolation="isolate">
    <g isolation="isolate">
      <path d="m1816.162,63.772h2.746v2.053h-2.746v4.595h-2.528v-4.595h-9.013v-1.481l8.863-13.716h2.678v13.145Zm-8.687,0h6.158v-9.706l-.3.544-5.858,9.162Z" fill="#c9d1d9"/>
    </g>
  </g>
  <g isolation="isolate">
    <g isolation="isolate">
      <path d="m179.854,224.873h-11.438v-3.539h11.438v3.539Z" fill="#c9d1d9"/>
      <path d="m204.323,212.381c0,1.703-.449,3.219-1.348,4.547s-2.113,2.367-3.645,3.117c1.781.766,3.191,1.883,4.23,3.352s1.559,3.133,1.559,4.992c0,2.953-.996,5.305-2.988,7.055s-4.613,2.625-7.863,2.625c-3.281,0-5.91-.879-7.887-2.637s-2.965-4.105-2.965-7.043c0-1.844.504-3.508,1.512-4.992s2.402-2.609,4.184-3.375c-1.516-.75-2.711-1.789-3.586-3.117s-1.312-2.836-1.312-4.523c0-2.875.922-5.156,2.766-6.844s4.273-2.531,7.289-2.531c3,0,5.426.844,7.277,2.531s2.777,3.969,2.777,6.844Zm-3.539,15.914c0-1.906-.605-3.461-1.816-4.664s-2.793-1.805-4.746-1.805-3.52.594-4.699,1.781-1.77,2.75-1.77,4.688.574,3.461,1.723,4.57,2.746,1.664,4.793,1.664c2.031,0,3.625-.559,4.781-1.676s1.734-2.637,1.734-4.559Zm-6.516-21.727c-1.703,0-3.082.527-4.137,1.582s-1.582,2.488-1.582,4.301c0,1.734.52,3.137,1.559,4.207s2.426,1.605,4.16,1.605,3.121-.535,4.16-1.605,1.559-2.473,1.559-4.207-.539-3.148-1.617-4.242-2.445-1.641-4.102-1.641Z" fill="#c9d1d9"/>
      <path d="m231.979,223.045c0,5.078-.867,8.852-2.602,11.32s-4.445,3.703-8.133,3.703c-3.641,0-6.336-1.207-8.086-3.621s-2.656-6.02-2.719-10.816v-5.789c0-5.016.867-8.742,2.602-11.18s4.453-3.656,8.156-3.656c3.672,0,6.375,1.176,8.109,3.527s2.625,5.98,2.672,10.887v5.625Zm-4.336-5.93c0-3.672-.516-6.348-1.547-8.027s-2.664-2.52-4.898-2.52c-2.219,0-3.836.836-4.852,2.508s-1.539,4.242-1.57,7.711v6.938c0,3.688.535,6.41,1.605,8.168s2.691,2.637,4.863,2.637c2.141,0,3.73-.828,4.77-2.484s1.582-4.266,1.629-7.828v-7.102Z" fill="#c9d1d9"/>
      <path d="m236.925,224.709c0-3.891.922-7.02,2.766-9.387s4.258-3.551,7.242-3.551c2.969,0,5.32,1.016,7.055,3.047v-13.219h4.336v36h-3.984l-.211-2.719c-1.734,2.125-4.148,3.188-7.242,3.188-2.938,0-5.332-1.203-7.184-3.609s-2.777-5.547-2.777-9.422v-.328Zm4.336.492c0,2.875.594,5.125,1.781,6.75s2.828,2.438,4.922,2.438c2.75,0,4.758-1.234,6.023-3.703v-11.648c-1.297-2.391-3.289-3.586-5.977-3.586-2.125,0-3.781.82-4.969,2.461s-1.781,4.07-1.781,7.289Z" fill="#c9d1d9"/>
      <path d="m265.729,237.6v-34.125h11.156c3.703,0,6.488.766,8.355,2.297s2.801,3.797,2.801,6.797c0,1.594-.453,3.004-1.359,4.23s-2.141,2.176-3.703,2.848c1.844.516,3.301,1.496,4.371,2.941s1.605,3.168,1.605,5.168c0,3.062-.992,5.469-2.977,7.219s-4.789,2.625-8.414,2.625h-11.836Zm4.5-19.57h6.797c1.969,0,3.543-.493,4.723-1.479s1.77-2.325,1.77-4.017c0-1.879-.547-3.245-1.641-4.099s-2.758-1.28-4.992-1.28h-6.656v10.875Zm0,3.609v12.281h7.43c2.094,0,3.746-.543,4.957-1.629s1.816-2.582,1.816-4.488c0-4.109-2.234-6.164-6.703-6.164h-7.5Z" fill="#c9d1d9"/>
    </g>
  </g>
  <g isolation="isolate">
    <g isolation="isolate">
      <path d="m374.255,224.873h-11.438v-3.539h11.438v3.539Z" fill="#c9d1d9"/>
      <path d="m395.044,203.451v3.68h-.797c-3.375.062-6.062,1.062-8.062,3s-3.156,4.664-3.469,8.18c1.797-2.062,4.25-3.094,7.359-3.094,2.969,0,5.34,1.047,7.113,3.141s2.66,4.797,2.66,8.109c0,3.516-.957,6.328-2.871,8.438s-4.48,3.164-7.699,3.164c-3.266,0-5.914-1.254-7.945-3.762s-3.047-5.738-3.047-9.691v-1.664c0-6.281,1.34-11.082,4.02-14.402s6.668-5.02,11.965-5.098h.773Zm-5.695,15.375c-1.484,0-2.852.445-4.102,1.336s-2.117,2.008-2.602,3.352v1.594c0,2.812.633,5.078,1.898,6.797s2.844,2.578,4.734,2.578c1.953,0,3.488-.719,4.605-2.156s1.676-3.32,1.676-5.648c0-2.344-.566-4.238-1.699-5.684s-2.637-2.168-4.512-2.168Z" fill="#c9d1d9"/>
      <path d="m426.38,223.045c0,5.078-.867,8.852-2.602,11.32s-4.445,3.703-8.133,3.703c-3.641,0-6.336-1.207-8.086-3.621s-2.656-6.02-2.719-10.816v-5.789c0-5.016.867-8.742,2.602-11.18s4.453-3.656,8.156-3.656c3.672,0,6.375,1.176,8.109,3.527s2.625,5.98,2.672,10.887v5.625Zm-4.336-5.93c0-3.672-.516-6.348-1.547-8.027s-2.664-2.52-4.898-2.52c-2.219,0-3.836.836-4.852,2.508s-1.539,4.242-1.57,7.711v6.938c0,3.688.535,6.41,1.605,8.168s2.691,2.637,4.863,2.637c2.141,0,3.73-.828,4.77-2.484s1.582-4.266,1.629-7.828v-7.102Z" fill="#c9d1d9"/>
      <path d="m431.325,224.709c0-3.891.922-7.02,2.766-9.387s4.258-3.551,7.242-3.551c2.969,0,5.32,1.016,7.055,3.047v-13.219h4.336v36h-3.984l-.211-2.719c-1.734,2.125-4.148,3.188-7.242,3.188-2.938,0-5.332-1.203-7.184-3.609s-2.777-5.547-2.777-9.422v-.328Zm4.336.492c0,2.875.594,5.125,1.781,6.75s2.828,2.438,4.922,2.438c2.75,0,4.758-1.234,6.023-3.703v-11.648c-1.297-2.391-3.289-3.586-5.977-3.586-2.125,0-3.781.82-4.969,2.461s-1.781,4.07-1.781,7.289Z" fill="#c9d1d9"/>
      <path d="m460.13,237.6v-34.125h11.156c3.703,0,6.488.766,8.355,2.297s2.801,3.797,2.801,6.797c0,1.594-.453,3.004-1.359,4.23s-2.141,2.176-3.703,2.848c1.844.516,3.301,1.496,4.371,2.941s1.605,3.168,1.605,5.168c0,3.062-.992,5.469-2.977,7.219s-4.789,2.625-8.414,2.625h-11.836Zm4.5-19.57h6.797c1.969,0,3.543-.493,4.723-1.479s1.77-2.325,1.77-4.017c0-1.879-.547-3.245-1.641-4.099s-2.758-1.28-4.992-1.28h-6.656v10.875Zm0,3.609v12.281h7.43c2.094,0,3.746-.543,4.957-1.629s1.816-2.582,1.816-4.488c0-4.109-2.234-6.164-6.703-6.164h-7.5Z" fill="#c9d1d9"/>
    </g>
  </g>
  <g isolation="isolate">
    <g isolation="isolate">
      <path d="m568.655,224.873h-11.438v-3.539h11.438v3.539Z" fill="#c9d1d9"/>
      <path d="m590.733,226.139h4.734v3.539h-4.734v7.922h-4.359v-7.922h-15.539v-2.555l15.281-23.648h4.617v22.664Zm-14.977,0h10.617v-16.734l-.516.938-10.102,15.797Z" fill="#c9d1d9"/>
      <path d="m620.78,223.045c0,5.078-.867,8.852-2.602,11.32s-4.445,3.703-8.133,3.703c-3.641,0-6.336-1.207-8.086-3.621s-2.656-6.02-2.719-10.816v-5.789c0-5.016.867-8.742,2.602-11.18s4.453-3.656,8.156-3.656c3.672,0,6.375,1.176,8.109,3.527s2.625,5.98,2.672,10.887v5.625Zm-4.336-5.93c0-3.672-.516-6.348-1.547-8.027s-2.664-2.52-4.898-2.52c-2.219,0-3.836.836-4.852,2.508s-1.539,4.242-1.57,7.711v6.938c0,3.688.535,6.41,1.605,8.168s2.691,2.637,4.863,2.637c2.141,0,3.73-.828,4.77-2.484s1.582-4.266,1.629-7.828v-7.102Z" fill="#c9d1d9"/>
      <path d="m625.725,224.709c0-3.891.922-7.02,2.766-9.387s4.258-3.551,7.242-3.551c2.969,0,5.32,1.016,7.055,3.047v-13.219h4.336v36h-3.984l-.211-2.719c-1.734,2.125-4.148,3.188-7.242,3.188-2.938,0-5.332-1.203-7.184-3.609s-2.777-5.547-2.777-9.422v-.328Zm4.336.492c0,2.875.594,5.125,1.781,6.75s2.828,2.438,4.922,2.438c2.75,0,4.758-1.234,6.023-3.703v-11.648c-1.297-2.391-3.289-3.586-5.977-3.586-2.125,0-3.781.82-4.969,2.461s-1.781,4.07-1.781,7.289Z" fill="#c9d1d9"/>
      <path d="m654.53,237.6v-34.125h11.156c3.703,0,6.488.766,8.355,2.297s2.801,3.797,2.801,6.797c0,1.594-.453,3.004-1.359,4.23s-2.141,2.176-3.703,2.848c1.844.516,3.301,1.496,4.371,2.941s1.605,3.168,1.605,5.168c0,3.062-.992,5.469-2.977,7.219s-4.789,2.625-8.414,2.625h-11.836Zm4.5-19.57h6.797c1.969,0,3.543-.493,4.723-1.479s1.77-2.325,1.77-4.017c0-1.879-.547-3.245-1.641-4.099s-2.758-1.28-4.992-1.28h-6.656v10.875Zm0,3.609v12.281h7.43c2.094,0,3.746-.543,4.957-1.629s1.816-2.582,1.816-4.488c0-4.109-2.234-6.164-6.703-6.164h-7.5Z" fill="#c9d1d9"/>
    </g>
  </g>
  <g isolation="isolate">
    <g isolation="isolate">
      <path d="m763.055,224.873h-11.438v-3.539h11.438v3.539Z" fill="#c9d1d9"/>
      <path d="m789.188,237.6h-22.359v-3.117l11.812-13.125c1.75-1.984,2.957-3.598,3.621-4.84s.996-2.527.996-3.855c0-1.781-.539-3.242-1.617-4.383s-2.516-1.711-4.312-1.711c-2.156,0-3.832.613-5.027,1.84s-1.793,2.934-1.793,5.121h-4.336c0-3.141,1.012-5.68,3.035-7.617s4.73-2.906,8.121-2.906c3.172,0,5.68.832,7.523,2.496s2.766,3.879,2.766,6.645c0,3.359-2.141,7.359-6.422,12l-9.141,9.914h17.133v3.539Z" fill="#c9d1d9"/>
      <path d="m815.18,223.045c0,5.078-.867,8.852-2.602,11.32s-4.445,3.703-8.133,3.703c-3.641,0-6.336-1.207-8.086-3.621s-2.656-6.02-2.719-10.816v-5.789c0-5.016.867-8.742,2.602-11.18s4.453-3.656,8.156-3.656c3.672,0,6.375,1.176,8.109,3.527s2.625,5.98,2.672,10.887v5.625Zm-4.336-5.93c0-3.672-.516-6.348-1.547-8.027s-2.664-2.52-4.898-2.52c-2.219,0-3.836.836-4.852,2.508s-1.539,4.242-1.57,7.711v6.938c0,3.688.535,6.41,1.605,8.168s2.691,2.637,4.863,2.637c2.141,0,3.73-.828,4.77-2.484s1.582-4.266,1.629-7.828v-7.102Z" fill="#c9d1d9"/>
      <path d="m820.125,224.709c0-3.891.922-7.02,2.766-9.387s4.258-3.551,7.242-3.551c2.969,0,5.32,1.016,7.055,3.047v-13.219h4.336v36h-3.984l-.211-2.719c-1.734,2.125-4.148,3.188-7.242,3.188-2.938,0-5.332-1.203-7.184-3.609s-2.777-5.547-2.777-9.422v-.328Zm4.336.492c0,2.875.594,5.125,1.781,6.75s2.828,2.438,4.922,2.438c2.75,0,4.758-1.234,6.023-3.703v-11.648c-1.297-2.391-3.289-3.586-5.977-3.586-2.125,0-3.781.82-4.969,2.461s-1.781,4.07-1.781,7.289Z" fill="#c9d1d9"/>
      <path d="m848.93,237.6v-34.125h11.156c3.703,0,6.488.766,8.355,2.297s2.801,3.797,2.801,6.797c0,1.594-.453,3.004-1.359,4.23s-2.141,2.176-3.703,2.848c1.844.516,3.301,1.496,4.371,2.941s1.605,3.168,1.605,5.168c0,3.062-.992,5.469-2.977,7.219s-4.789,2.625-8.414,2.625h-11.836Zm4.5-19.57h6.797c1.969,0,3.543-.493,4.723-1.479s1.77-2.325,1.77-4.017c0-1.879-.547-3.245-1.641-4.099s-2.758-1.28-4.992-1.28h-6.656v10.875Zm0,3.609v12.281h7.43c2.094,0,3.746-.543,4.957-1.629s1.816-2.582,1.816-4.488c0-4.109-2.234-6.164-6.703-6.164h-7.5Z" fill="#c9d1d9"/>
    </g>
  </g>
  <g isolation="isolate">
    <g isolation="isolate">
      <path d="m989.484,223.045c0,5.078-.867,8.852-2.602,11.32s-4.445,3.703-8.133,3.703c-3.641,0-6.336-1.207-8.086-3.621s-2.656-6.02-2.719-10.816v-5.789c0-5.016.867-8.742,2.602-11.18s4.453-3.656,8.156-3.656c3.672,0,6.375,1.176,8.109,3.527s2.625,5.98,2.672,10.887v5.625Zm-4.336-5.93c0-3.672-.516-6.348-1.547-8.027s-2.664-2.52-4.898-2.52c-2.219,0-3.836.836-4.852,2.508s-1.539,4.242-1.57,7.711v6.938c0,3.688.535,6.41,1.605,8.168s2.691,2.637,4.863,2.637c2.141,0,3.73-.828,4.77-2.484s1.582-4.266,1.629-7.828v-7.102Z" fill="#c9d1d9"/>
      <path d="m994.43,224.709c0-3.891.922-7.02,2.766-9.387s4.258-3.551,7.242-3.551c2.969,0,5.32,1.016,7.055,3.047v-13.219h4.336v36h-3.984l-.211-2.719c-1.734,2.125-4.148,3.188-7.242,3.188-2.938,0-5.332-1.203-7.184-3.609s-2.777-5.547-2.777-9.422v-.328Zm4.336.492c0,2.875.594,5.125,1.781,6.75s2.828,2.438,4.922,2.438c2.75,0,4.758-1.234,6.023-3.703v-11.648c-1.297-2.391-3.289-3.586-5.977-3.586-2.125,0-3.781.82-4.969,2.461s-1.781,4.07-1.781,7.289Z" fill="#c9d1d9"/>
      <path d="m1023.234,237.6v-34.125h11.156c3.703,0,6.488.766,8.355,2.297s2.801,3.797,2.801,6.797c0,1.594-.453,3.004-1.359,4.23s-2.141,2.176-3.703,2.848c1.844.516,3.301,1.496,4.371,2.941s1.605,3.168,1.605,5.168c0,3.062-.992,5.469-2.977,7.219s-4.789,2.625-8.414,2.625h-11.836Zm4.5-19.57h6.797c1.969,0,3.543-.493,4.723-1.479s1.77-2.325,1.77-4.017c0-1.879-.547-3.245-1.641-4.099s-2.758-1.28-4.992-1.28h-6.656v10.875Zm0,3.609v12.281h7.43c2.094,0,3.746-.543,4.957-1.629s1.816-2.582,1.816-4.488c0-4.109-2.234-6.164-6.703-6.164h-7.5Z" fill="#c9d1d9"/>
    </g>
  </g>
  <g isolation="isolate">
    <g isolation="isolate">
      <path d="m1171.365,237.6h-22.359v-3.117l11.812-13.125c1.75-1.984,2.957-3.598,3.621-4.84s.996-2.527.996-3.855c0-1.781-.539-3.242-1.617-4.383s-2.516-1.711-4.312-1.711c-2.156,0-3.832.613-5.027,1.84s-1.793,2.934-1.793,5.121h-4.336c0-3.141,1.012-5.68,3.035-7.617s4.73-2.906,8.121-2.906c3.172,0,5.68.832,7.523,2.496s2.766,3.879,2.766,6.645c0,3.359-2.141,7.359-6.422,12l-9.141,9.914h17.133v3.539Z" fill="#c9d1d9"/>
      <path d="m1197.357,223.045c0,5.078-.867,8.852-2.602,11.32s-4.445,3.703-8.133,3.703c-3.641,0-6.336-1.207-8.086-3.621s-2.656-6.02-2.719-10.816v-5.789c0-5.016.867-8.742,2.602-11.18s4.453-3.656,8.156-3.656c3.672,0,6.375,1.176,8.109,3.527s2.625,5.98,2.672,10.887v5.625Zm-4.336-5.93c0-3.672-.516-6.348-1.547-8.027s-2.664-2.52-4.898-2.52c-2.219,0-3.836.836-4.852,2.508s-1.539,4.242-1.57,7.711v6.938c0,3.688.535,6.41,1.605,8.168s2.691,2.637,4.863,2.637c2.141,0,3.73-.828,4.77-2.484s1.582-4.266,1.629-7.828v-7.102Z" fill="#c9d1d9"/>
      <path d="m1202.303,224.709c0-3.891.922-7.02,2.766-9.387s4.258-3.551,7.242-3.551c2.969,0,5.32,1.016,7.055,3.047v-13.219h4.336v36h-3.984l-.211-2.719c-1.734,2.125-4.148,3.188-7.242,3.188-2.938,0-5.332-1.203-7.184-3.609s-2.777-5.547-2.777-9.422v-.328Zm4.336.492c0,2.875.594,5.125,1.781,6.75s2.828,2.438,4.922,2.438c2.75,0,4.758-1.234,6.023-3.703v-11.648c-1.297-2.391-3.289-3.586-5.977-3.586-2.125,0-3.781.82-4.969,2.461s-1.781,4.07-1.781,7.289Z" fill="#c9d1d9"/>
      <path d="m1231.107,237.6v-34.125h11.156c3.703,0,6.488.766,8.355,2.297s2.801,3.797,2.801,6.797c0,1.594-.453,3.004-1.359,4.23s-2.141,2.176-3.703,2.848c1.844.516,3.301,1.496,4.371,2.941s1.605,3.168,1.605,5.168c0,3.062-.992,5.469-2.977,7.219s-4.789,2.625-8.414,2.625h-11.836Zm4.5-19.57h6.797c1.969,0,3.543-.493,4.723-1.479s1.77-2.325,1.77-4.017c0-1.879-.547-3.245-1.641-4.099s-2.758-1.28-4.992-1.28h-6.656v10.875Zm0,3.609v12.281h7.43c2.094,0,3.746-.543,4.957-1.629s1.816-2.582,1.816-4.488c0-4.109-2.234-6.164-6.703-6.164h-7.5Z" fill="#c9d1d9"/>
    </g>
  </g>
  <g isolation="isolate">
    <g isolation="isolate">
      <path d="m1361.711,226.139h4.734v3.539h-4.734v7.922h-4.359v-7.922h-15.539v-2.555l15.281-23.648h4.617v22.664Zm-14.977,0h10.617v-16.734l-.516.938-10.102,15.797Z" fill="#c9d1d9"/>
      <path d="m1391.758,223.045c0,5.078-.867,8.852-2.602,11.32s-4.445,3.703-8.133,3.703c-3.641,0-6.336-1.207-8.086-3.621s-2.656-6.02-2.719-10.816v-5.789c0-5.016.867-8.742,2.602-11.18s4.453-3.656,8.156-3.656c3.672,0,6.375,1.176,8.109,3.527s2.625,5.98,2.672,10.887v5.625Zm-4.336-5.93c0-3.672-.516-6.348-1.547-8.027s-2.664-2.52-4.898-2.52c-2.219,0-3.836.836-4.852,2.508s-1.539,4.242-1.57,7.711v6.938c0,3.688.535,6.41,1.605,8.168s2.691,2.637,4.863,2.637c2.141,0,3.73-.828,4.77-2.484s1.582-4.266,1.629-7.828v-7.102Z" fill="#c9d1d9"/>
      <path d="m1396.703,224.709c0-3.891.922-7.02,2.766-9.387s4.258-3.551,7.242-3.551c2.969,0,5.32,1.016,7.055,3.047v-13.219h4.336v36h-3.984l-.211-2.719c-1.734,2.125-4.148,3.188-7.242,3.188-2.938,0-5.332-1.203-7.184-3.609s-2.777-5.547-2.777-9.422v-.328Zm4.336.492c0,2.875.594,5.125,1.781,6.75s2.828,2.438,4.922,2.438c2.75,0,4.758-1.234,6.023-3.703v-11.648c-1.297-2.391-3.289-3.586-5.977-3.586-2.125,0-3.781.82-4.969,2.461s-1.781,4.07-1.781,7.289Z" fill="#c9d1d9"/>
      <path d="m1425.508,237.6v-34.125h11.156c3.703,0,6.488.766,8.355,2.297s2.801,3.797,2.801,6.797c0,1.594-.453,3.004-1.359,4.23s-2.141,2.176-3.703,2.848c1.844.516,3.301,1.496,4.371,2.941s1.605,3.168,1.605,5.168c0,3.062-.992,5.469-2.977,7.219s-4.789,2.625-8.414,2.625h-11.836Zm4.5-19.57h6.797c1.969,0,3.543-.493,4.723-1.479s1.77-2.325,1.77-4.017c0-1.879-.547-3.245-1.641-4.099s-2.758-1.28-4.992-1.28h-6.656v10.875Zm0,3.609v12.281h7.43c2.094,0,3.746-.543,4.957-1.629s1.816-2.582,1.816-4.488c0-4.109-2.234-6.164-6.703-6.164h-7.5Z" fill="#c9d1d9"/>
    </g>
  </g>
  <g isolation="isolate">
    <g isolation="isolate">
      <path d="m1554.821,203.451v3.68h-.797c-3.375.062-6.062,1.062-8.062,3s-3.156,4.664-3.469,8.18c1.797-2.062,4.25-3.094,7.359-3.094,2.969,0,5.34,1.047,7.113,3.141s2.66,4.797,2.66,8.109c0,3.516-.957,6.328-2.871,8.438s-4.48,3.164-7.699,3.164c-3.266,0-5.914-1.254-7.945-3.762s-3.047-5.738-3.047-9.691v-1.664c0-6.281,1.34-11.082,4.02-14.402s6.668-5.02,11.965-5.098h.773Zm-5.695,15.375c-1.484,0-2.852.445-4.102,1.336s-2.117,2.008-2.602,3.352v1.594c0,2.812.633,5.078,1.898,6.797s2.844,2.578,4.734,2.578c1.953,0,3.488-.719,4.605-2.156s1.676-3.32,1.676-5.648c0-2.344-.566-4.238-1.699-5.684s-2.637-2.168-4.512-2.168Z" fill="#c9d1d9"/>
      <path d="m1586.157,223.045c0,5.078-.867,8.852-2.602,11.32s-4.445,3.703-8.133,3.703c-3.641,0-6.336-1.207-8.086-3.621s-2.656-6.02-2.719-10.816v-5.789c0-5.016.867-8.742,2.602-11.18s4.453-3.656,8.156-3.656c3.672,0,6.375,1.176,8.109,3.527s2.625,5.98,2.672,10.887v5.625Zm-4.336-5.93c0-3.672-.516-6.348-1.547-8.027s-2.664-2.52-4.898-2.52c-2.219,0-3.836.836-4.852,2.508s-1.539,4.242-1.57,7.711v6.938c0,3.688.535,6.41,1.605,8.168s2.691,2.637,4.863,2.637c2.141,0,3.73-.828,4.77-2.484s1.582-4.266,1.629-7.828v-7.102Z" fill="#c9d1d9"/>
      <path d="m1591.103,224.709c0-3.891.922-7.02,2.766-9.387s4.258-3.551,7.242-3.551c2.969,0,5.32,1.016,7.055,3.047v-13.219h4.336v36h-3.984l-.211-2.719c-1.734,2.125-4.148,3.188-7.242,3.188-2.938,0-5.332-1.203-7.184-3.609s-2.777-5.547-2.777-9.422v-.328Zm4.336.492c0,2.875.594,5.125,1.781,6.75s2.828,2.438,4.922,2.438c2.75,0,4.758-1.234,6.023-3.703v-11.648c-1.297-2.391-3.289-3.586-5.977-3.586-2.125,0-3.781.82-4.969,2.461s-1.781,4.07-1.781,7.289Z" fill="#c9d1d9"/>
      <path d="m1619.907,237.6v-34.125h11.156c3.703,0,6.488.766,8.355,2.297s2.801,3.797,2.801,6.797c0,1.594-.453,3.004-1.359,4.23s-2.141,2.176-3.703,2.848c1.844.516,3.301,1.496,4.371,2.941s1.605,3.168,1.605,5.168c0,3.062-.992,5.469-2.977,7.219s-4.789,2.625-8.414,2.625h-11.836Zm4.5-19.57h6.797c1.969,0,3.543-.493,4.723-1.479s1.77-2.325,1.77-4.017c0-1.879-.547-3.245-1.641-4.099s-2.758-1.28-4.992-1.28h-6.656v10.875Zm0,3.609v12.281h7.43c2.094,0,3.746-.543,4.957-1.629s1.816-2.582,1.816-4.488c0-4.109-2.234-6.164-6.703-6.164h-7.5Z" fill="#c9d1d9"/>
    </g>
  </g>
  <g isolation="isolate">
    <g isolation="isolate">
      <path d="m1752.901,212.381c0,1.703-.449,3.219-1.348,4.547s-2.113,2.367-3.645,3.117c1.781.766,3.191,1.883,4.23,3.352s1.559,3.133,1.559,4.992c0,2.953-.996,5.305-2.988,7.055s-4.613,2.625-7.863,2.625c-3.281,0-5.91-.879-7.887-2.637s-2.965-4.105-2.965-7.043c0-1.844.504-3.508,1.512-4.992s2.402-2.609,4.184-3.375c-1.516-.75-2.711-1.789-3.586-3.117s-1.312-2.836-1.312-4.523c0-2.875.922-5.156,2.766-6.844s4.273-2.531,7.289-2.531c3,0,5.426.844,7.277,2.531s2.777,3.969,2.777,6.844Zm-3.539,15.914c0-1.906-.605-3.461-1.816-4.664s-2.793-1.805-4.746-1.805-3.52.594-4.699,1.781-1.77,2.75-1.77,4.688.574,3.461,1.723,4.57,2.746,1.664,4.793,1.664c2.031,0,3.625-.559,4.781-1.676s1.734-2.637,1.734-4.559Zm-6.516-21.727c-1.703,0-3.082.527-4.137,1.582s-1.582,2.488-1.582,4.301c0,1.734.52,3.137,1.559,4.207s2.426,1.605,4.16,1.605,3.121-.535,4.16-1.605,1.559-2.473,1.559-4.207-.539-3.148-1.617-4.242-2.445-1.641-4.102-1.641Z" fill="#c9d1d9"/>
      <path d="m1780.558,223.045c0,5.078-.867,8.852-2.602,11.32s-4.445,3.703-8.133,3.703c-3.641,0-6.336-1.207-8.086-3.621s-2.656-6.02-2.719-10.816v-5.789c0-5.016.867-8.742,2.602-11.18s4.453-3.656,8.156-3.656c3.672,0,6.375,1.176,8.109,3.527s2.625,5.98,2.672,10.887v5.625Zm-4.336-5.93c0-3.672-.516-6.348-1.547-8.027s-2.664-2.52-4.898-2.52c-2.219,0-3.836.836-4.852,2.508s-1.539,4.242-1.57,7.711v6.938c0,3.688.535,6.41,1.605,8.168s2.691,2.637,4.863,2.637c2.141,0,3.73-.828,4.77-2.484s1.582-4.266,1.629-7.828v-7.102Z" fill="#c9d1d9"/>
      <path d="m1785.503,224.709c0-3.891.922-7.02,2.766-9.387s4.258-3.551,7.242-3.551c2.969,0,5.32,1.016,7.055,3.047v-13.219h4.336v36h-3.984l-.211-2.719c-1.734,2.125-4.148,3.188-7.242,3.188-2.938,0-5.332-1.203-7.184-3.609s-2.777-5.547-2.777-9.422v-.328Zm4.336.492c0,2.875.594,5.125,1.781,6.75s2.828,2.438,4.922,2.438c2.75,0,4.758-1.234,6.023-3.703v-11.648c-1.297-2.391-3.289-3.586-5.977-3.586-2.125,0-3.781.82-4.969,2.461s-1.781,4.07-1.781,7.289Z" fill="#c9d1d9"/>
      <path d="m1814.308,237.6v-34.125h11.156c3.703,0,6.488.766,8.355,2.297s2.801,3.797,2.801,6.797c0,1.594-.453,3.004-1.359,4.23s-2.141,2.176-3.703,2.848c1.844.516,3.301,1.496,4.371,2.941s1.605,3.168,1.605,5.168c0,3.062-.992,5.469-2.977,7.219s-4.789,2.625-8.414,2.625h-11.836Zm4.5-19.57h6.797c1.969,0,3.543-.493,4.723-1.479s1.77-2.325,1.77-4.017c0-1.879-.547-3.245-1.641-4.099s-2.758-1.28-4.992-1.28h-6.656v10.875Zm0,3.609v12.281h7.43c2.094,0,3.746-.543,4.957-1.629s1.816-2.582,1.816-4.488c0-4.109-2.234-6.164-6.703-6.164h-7.5Z" fill="#c9d1d9"/>
    </g>
  </g>
  <g isolation="isolate">
    <g isolation="isolate">
      <path d="m418.005,349.86h-14.297l-3.211,8.93h-4.641l13.031-34.125h3.938l13.055,34.125h-4.617l-3.258-8.93Zm-12.938-3.68h11.602l-5.812-15.961-5.789,15.961Z" fill="#c9d1d9"/>
    </g>
    <g isolation="isolate">
      <path d="m435.274,327.29v6.141h4.734v3.352h-4.734v15.746c0,1.018.211,1.78.633,2.288.422.509,1.141.763,2.156.763.5,0,1.188-.094,2.062-.281v3.495c-1.141.311-2.25.466-3.328.466-1.938,0-3.398-.586-4.383-1.758s-1.477-2.836-1.477-4.992v-15.727h-4.617v-3.352h4.617v-6.141h4.336Z" fill="#c9d1d9"/>
      <path d="m450.954,327.29v6.141h4.734v3.352h-4.734v15.746c0,1.018.211,1.78.633,2.288.422.509,1.141.763,2.156.763.5,0,1.188-.094,2.062-.281v3.495c-1.141.311-2.25.466-3.328.466-1.938,0-3.398-.586-4.383-1.758s-1.477-2.836-1.477-4.992v-15.727h-4.617v-3.352h4.617v-6.141h4.336Z" fill="#c9d1d9"/>
      <path d="m471.274,359.259c-3.438,0-6.234-1.129-8.391-3.387s-3.234-5.277-3.234-9.059v-.797c0-2.516.48-4.762,1.441-6.738s2.305-3.523,4.031-4.641,3.598-1.676,5.613-1.676c3.297,0,5.859,1.086,7.688,3.258s2.742,5.281,2.742,9.328v1.805h-17.18c.062,2.5.793,4.52,2.191,6.059s3.176,2.309,5.332,2.309c1.531,0,2.828-.312,3.891-.938s1.992-1.453,2.789-2.484l2.648,2.062c-2.125,3.266-5.312,4.898-9.562,4.898Zm-.539-22.734c-1.75,0-3.219.637-4.406,1.91s-1.922,3.059-2.203,5.355h12.703v-.328c-.125-2.203-.719-3.91-1.781-5.121s-2.5-1.816-4.312-1.816Z" fill="#c9d1d9"/>
      <path d="m490.282,333.431l.141,3.188c1.938-2.438,4.469-3.656,7.594-3.656,5.359,0,8.062,3.023,8.109,9.07v16.758h-4.336v-16.781c-.016-1.828-.434-3.18-1.254-4.055s-2.098-1.312-3.832-1.312c-1.406,0-2.641.375-3.703,1.125s-1.891,1.734-2.484,2.953v18.07h-4.336v-25.359h4.102Z" fill="#c9d1d9"/>
      <path d="m528.321,356.282c-1.688,1.984-4.164,2.977-7.43,2.977-2.703,0-4.762-.785-6.176-2.355s-2.129-3.895-2.145-6.973v-16.5h4.336v16.383c0,3.844,1.562,5.766,4.688,5.766,3.312,0,5.516-1.234,6.609-3.703v-18.445h4.336v25.359h-4.125l-.094-2.508Z" fill="#c9d1d9"/>
      <path d="m554.782,358.79c-.25-.5-.453-1.391-.609-2.672-2.016,2.094-4.422,3.141-7.219,3.141-2.5,0-4.551-.707-6.152-2.121s-2.402-3.207-2.402-5.379c0-2.641,1.004-4.691,3.012-6.152s4.832-2.191,8.473-2.191h4.219v-1.992c0-1.516-.453-2.723-1.359-3.621s-2.242-1.348-4.008-1.348c-1.547,0-2.844.391-3.891,1.172s-1.57,1.727-1.57,2.836h-4.359c0-1.266.449-2.488,1.348-3.668s2.117-2.113,3.656-2.801,3.23-1.031,5.074-1.031c2.922,0,5.211.73,6.867,2.191s2.516,3.473,2.578,6.035v11.672c0,2.328.297,4.18.891,5.555v.375h-4.547Zm-7.195-3.305c1.359,0,2.648-.352,3.867-1.055s2.102-1.617,2.648-2.742v-5.203h-3.398c-5.312,0-7.969,1.555-7.969,4.664,0,1.359.453,2.422,1.359,3.188s2.07,1.148,3.492,1.148Z" fill="#c9d1d9"/>
      <path d="m571.118,327.29v6.141h4.734v3.352h-4.734v15.746c0,1.018.211,1.78.633,2.288.422.509,1.141.763,2.156.763.5,0,1.188-.094,2.062-.281v3.495c-1.141.311-2.25.466-3.328.466-1.938,0-3.398-.586-4.383-1.758s-1.477-2.836-1.477-4.992v-15.727h-4.617v-3.352h4.617v-6.141h4.336Z" fill="#c9d1d9"/>
      <path d="m580.938,326.704c0-.703.215-1.297.645-1.781s1.066-.727,1.91-.727,1.484.242,1.922.727.656,1.078.656,1.781-.219,1.289-.656,1.758-1.078.703-1.922.703-1.48-.234-1.91-.703-.645-1.055-.645-1.758Zm4.688,32.086h-4.336v-25.359h4.336v25.359Z" fill="#c9d1d9"/>
      <path d="m591.415,345.876c0-2.484.488-4.719,1.465-6.703s2.336-3.516,4.078-4.594,3.73-1.617,5.965-1.617c3.453,0,6.246,1.195,8.379,3.586s3.199,5.57,3.199,9.539v.305c0,2.469-.473,4.684-1.418,6.645s-2.297,3.488-4.055,4.582-3.777,1.641-6.059,1.641c-3.438,0-6.223-1.195-8.355-3.586s-3.199-5.555-3.199-9.492v-.305Zm4.359.516c0,2.812.652,5.07,1.957,6.773s3.051,2.555,5.238,2.555c2.203,0,3.953-.863,5.25-2.59s1.945-4.145,1.945-7.254c0-2.781-.66-5.035-1.98-6.762s-3.074-2.59-5.262-2.59c-2.141,0-3.867.852-5.18,2.555s-1.969,4.141-1.969,7.312Z" fill="#c9d1d9"/>
      <path d="m624.04,333.431l.141,3.188c1.938-2.438,4.469-3.656,7.594-3.656,5.359,0,8.062,3.023,8.109,9.07v16.758h-4.336v-16.781c-.016-1.828-.434-3.18-1.254-4.055s-2.098-1.312-3.832-1.312c-1.406,0-2.641.375-3.703,1.125s-1.891,1.734-2.484,2.953v18.07h-4.336v-25.359h4.102Z" fill="#c9d1d9"/>
    </g>
  </g>
  <g isolation="isolate">
    <g isolation="isolate">
      <path d="m1373.835,349.86h-14.297l-3.211,8.93h-4.641l13.031-34.125h3.938l13.055,34.125h-4.617l-3.258-8.93Zm-12.938-3.68h11.602l-5.812-15.961-5.789,15.961Z" fill="#c9d1d9"/>
      <path d="m1389.702,333.431l.117,2.812c1.859-2.188,4.367-3.281,7.523-3.281,3.547,0,5.961,1.359,7.242,4.078.844-1.219,1.941-2.203,3.293-2.953s2.949-1.125,4.793-1.125c5.562,0,8.391,2.945,8.484,8.836v16.992h-4.336v-16.734c0-1.812-.414-3.168-1.242-4.066s-2.219-1.348-4.172-1.348c-1.609,0-2.945.48-4.008,1.441s-1.68,2.254-1.852,3.879v16.828h-4.359v-16.617c0-3.688-1.805-5.531-5.414-5.531-2.844,0-4.789,1.211-5.836,3.633v18.516h-4.336v-25.359h4.102Z" fill="#c9d1d9"/>
      <path d="m1449.116,346.392c0,3.859-.883,6.969-2.648,9.328s-4.156,3.539-7.172,3.539c-3.078,0-5.5-.977-7.266-2.93v12.211h-4.336v-35.109h3.961l.211,2.812c1.766-2.188,4.219-3.281,7.359-3.281,3.047,0,5.457,1.148,7.23,3.445s2.66,5.492,2.66,9.586v.398Zm-4.336-.492c0-2.859-.609-5.117-1.828-6.773s-2.891-2.484-5.016-2.484c-2.625,0-4.594,1.164-5.906,3.492v12.117c1.297,2.312,3.281,3.469,5.953,3.469,2.078,0,3.73-.824,4.957-2.473s1.84-4.098,1.84-7.348Z" fill="#c9d1d9"/>
      <path d="m1459.335,358.79h-4.336v-36h4.336v36Z" fill="#c9d1d9"/>
      <path d="m1466.296,326.704c0-.703.215-1.297.645-1.781s1.066-.727,1.91-.727,1.484.242,1.922.727.656,1.078.656,1.781-.219,1.289-.656,1.758-1.078.703-1.922.703-1.48-.234-1.91-.703-.645-1.055-.645-1.758Zm4.688,32.086h-4.336v-25.359h4.336v25.359Z" fill="#c9d1d9"/>
      <path d="m1480.054,358.79v-22.008h-4.008v-3.352h4.008v-2.602c0-2.719.727-4.82,2.18-6.305s3.508-2.227,6.164-2.227c1,0,1.992.132,2.977.396l-.234,3.495c-.734-.141-1.516-.211-2.344-.211-1.406,0-2.492.412-3.258,1.234-.766.823-1.148,2.003-1.148,3.538v2.681h5.414v3.352h-5.414v22.008h-4.336Z" fill="#c9d1d9"/>
      <path d="m1494.608,326.704c0-.703.215-1.297.645-1.781s1.066-.727,1.91-.727,1.484.242,1.922.727.656,1.078.656,1.781-.219,1.289-.656,1.758-1.078.703-1.922.703-1.48-.234-1.91-.703-.645-1.055-.645-1.758Zm4.688,32.086h-4.336v-25.359h4.336v25.359Z" fill="#c9d1d9"/>
      <path d="m1516.405,355.72c1.547,0,2.898-.469,4.055-1.406s1.797-2.109,1.922-3.516h4.102c-.078,1.453-.578,2.836-1.5,4.148s-2.152,2.359-3.691,3.141-3.168,1.172-4.887,1.172c-3.453,0-6.199-1.152-8.238-3.457s-3.059-5.457-3.059-9.457v-.727c0-2.469.453-4.664,1.359-6.586s2.207-3.414,3.902-4.477,3.699-1.594,6.012-1.594c2.844,0,5.207.852,7.09,2.555s2.887,3.914,3.012,6.633h-4.102c-.125-1.641-.746-2.988-1.863-4.043s-2.496-1.582-4.137-1.582c-2.203,0-3.91.793-5.121,2.379s-1.816,3.879-1.816,6.879v.82c0,2.922.602,5.172,1.805,6.75s2.922,2.367,5.156,2.367Z" fill="#c9d1d9"/>
      <path d="m1547.015,358.79c-.25-.5-.453-1.391-.609-2.672-2.016,2.094-4.422,3.141-7.219,3.141-2.5,0-4.551-.707-6.152-2.121s-2.402-3.207-2.402-5.379c0-2.641,1.004-4.691,3.012-6.152s4.832-2.191,8.473-2.191h4.219v-1.992c0-1.516-.453-2.723-1.359-3.621s-2.242-1.348-4.008-1.348c-1.547,0-2.844.391-3.891,1.172s-1.57,1.727-1.57,2.836h-4.359c0-1.266.449-2.488,1.348-3.668s2.117-2.113,3.656-2.801,3.23-1.031,5.074-1.031c2.922,0,5.211.73,6.867,2.191s2.516,3.473,2.578,6.035v11.672c0,2.328.297,4.18.891,5.555v.375h-4.547Zm-7.195-3.305c1.359,0,2.648-.352,3.867-1.055s2.102-1.617,2.648-2.742v-5.203h-3.398c-5.312,0-7.969,1.555-7.969,4.664,0,1.359.453,2.422,1.359,3.188s2.07,1.148,3.492,1.148Z" fill="#c9d1d9"/>
      <path d="m1563.351,327.29v6.141h4.734v3.352h-4.734v15.746c0,1.018.211,1.78.633,2.288.422.509,1.141.763,2.156.763.5,0,1.188-.094,2.062-.281v3.495c-1.141.311-2.25.466-3.328.466-1.938,0-3.398-.586-4.383-1.758s-1.477-2.836-1.477-4.992v-15.727h-4.617v-3.352h4.617v-6.141h4.336Z" fill="#c9d1d9"/>
      <path d="m1573.171,326.704c0-.703.215-1.297.645-1.781s1.066-.727,1.91-.727,1.484.242,1.922.727.656,1.078.656,1.781-.219,1.289-.656,1.758-1.078.703-1.922.703-1.48-.234-1.91-.703-.645-1.055-.645-1.758Zm4.688,32.086h-4.336v-25.359h4.336v25.359Z" fill="#c9d1d9"/>
      <path d="m1583.647,345.876c0-2.484.488-4.719,1.465-6.703s2.336-3.516,4.078-4.594,3.73-1.617,5.965-1.617c3.453,0,6.246,1.195,8.379,3.586s3.199,5.57,3.199,9.539v.305c0,2.469-.473,4.684-1.418,6.645s-2.297,3.488-4.055,4.582-3.777,1.641-6.059,1.641c-3.438,0-6.223-1.195-8.355-3.586s-3.199-5.555-3.199-9.492v-.305Zm4.359.516c0,2.812.652,5.07,1.957,6.773s3.051,2.555,5.238,2.555c2.203,0,3.953-.863,5.25-2.59s1.945-4.145,1.945-7.254c0-2.781-.66-5.035-1.98-6.762s-3.074-2.59-5.262-2.59c-2.141,0-3.867.852-5.18,2.555s-1.969,4.141-1.969,7.312Z" fill="#c9d1d9"/>
      <path d="m1616.272,333.431l.141,3.188c1.938-2.438,4.469-3.656,7.594-3.656,5.359,0,8.062,3.023,8.109,9.07v16.758h-4.336v-16.781c-.016-1.828-.434-3.18-1.254-4.055s-2.098-1.312-3.832-1.312c-1.406,0-2.641.375-3.703,1.125s-1.891,1.734-2.484,2.953v18.07h-4.336v-25.359h4.102Z" fill="#c9d1d9"/>
    </g>
  </g>
  <g isolation="isolate">
    <g isolation="isolate">
      <path d="m981.364,324.665v23.203c-.016,3.219-1.027,5.852-3.035,7.898s-4.73,3.195-8.168,3.445l-1.195.047c-3.734,0-6.711-1.008-8.93-3.023s-3.344-4.789-3.375-8.32v-23.25h4.453v23.109c0,2.469.68,4.387,2.039,5.754s3.297,2.051,5.812,2.051c2.547,0,4.496-.68,5.848-2.039s2.027-3.273,2.027-5.742v-23.133h4.523Z" fill="#0d1117"/>
      <path d="m991.888,333.431l.141,3.188c1.938-2.438,4.469-3.656,7.594-3.656,5.359,0,8.062,3.023,8.109,9.07v16.758h-4.336v-16.781c-.016-1.828-.434-3.18-1.254-4.055s-2.098-1.312-3.832-1.312c-1.406,0-2.641.375-3.703,1.125s-1.891,1.734-2.484,2.953v18.07h-4.336v-25.359h4.102Z" fill="#0d1117"/>
      <path d="m1014.294,326.704c0-.703.215-1.297.645-1.781s1.066-.727,1.91-.727,1.484.242,1.922.727.656,1.078.656,1.781-.219,1.289-.656,1.758-1.078.703-1.922.703-1.48-.234-1.91-.703-.645-1.055-.645-1.758Zm4.688,32.086h-4.336v-25.359h4.336v25.359Z" fill="#0d1117"/>
      <path d="m1031.802,327.29v6.141h4.734v3.352h-4.734v15.746c0,1.018.211,1.78.633,2.288.422.509,1.141.763,2.156.763.5,0,1.188-.094,2.062-.281v3.495c-1.141.311-2.25.466-3.328.466-1.938,0-3.398-.586-4.383-1.758s-1.477-2.836-1.477-4.992v-15.727h-4.617v-3.352h4.617v-6.141h4.336Z" fill="#0d1117"/>
      <path d="m1049.896,352.438l5.906-19.008h4.641l-10.195,29.273c-1.578,4.219-4.086,6.328-7.523,6.328l-.82-.07-1.617-.305v-3.516l1.172.094c1.469,0,2.613-.297,3.434-.891s1.496-1.68,2.027-3.258l.961-2.578-9.047-25.078h4.734l6.328,19.008Z" fill="#0d1117"/>
    </g>
  </g>
  <g isolation="isolate">
    <g isolation="isolate">
      <path d="m37.328,37.224l9.75-28.148h4.922l-12.656,34.125h-3.984L22.726,9.075h4.898l9.703,28.148Z" fill="#c9d1d9"/>
    </g>
  </g>
  <g isolation="isolate">
    <g isolation="isolate">
      <path d="m53.847,51.69c0-1.441.283-2.737.85-3.888s1.355-2.039,2.366-2.665c1.01-.625,2.164-.938,3.459-.938,2.002,0,3.623.693,4.86,2.08,1.237,1.387,1.855,3.231,1.855,5.533v.177c0,1.432-.274,2.716-.822,3.854-.549,1.138-1.333,2.023-2.352,2.658s-2.191.952-3.514.952c-1.994,0-3.609-.693-4.846-2.08-1.237-1.386-1.856-3.222-1.856-5.505v-.177Zm2.529.299c0,1.631.378,2.941,1.135,3.928.757.988,1.77,1.482,3.039,1.482,1.278,0,2.292-.5,3.045-1.502.752-1.001,1.128-2.404,1.128-4.208,0-1.613-.383-2.92-1.148-3.922-.766-1.001-1.783-1.502-3.052-1.502-1.242,0-2.243.494-3.004,1.482s-1.142,2.401-1.142,4.241Z" fill="#c9d1d9"/>
      <path d="m79.471,57.726c-.979,1.151-2.416,1.727-4.31,1.727-1.568,0-2.762-.456-3.582-1.366-.82-.911-1.235-2.259-1.244-4.044v-9.57h2.515v9.502c0,2.229.906,3.344,2.719,3.344,1.921,0,3.199-.716,3.833-2.148v-10.698h2.515v14.708h-2.393l-.054-1.455Z" fill="#c9d1d9"/>
      <path d="m89.149,40.91v3.562h2.746v1.944h-2.746v9.133c0,.59.123,1.032.367,1.327s.662.442,1.25.442c.29,0,.689-.054,1.196-.163v2.027c-.662.18-1.305.271-1.93.271-1.124,0-1.971-.34-2.542-1.02s-.856-1.645-.856-2.896v-9.122h-2.678v-1.944h2.678v-3.562h2.515Z" fill="#c9d1d9"/>
    </g>
  </g>
  <g isolation="isolate">
    <g isolation="isolate">
      <path d="m46.468,102.023l9.75-28.148h4.922l-12.656,34.125h-3.984l-12.633-34.125h4.898l9.703,28.148Z" fill="#c9d1d9"/>
    </g>
  </g>
  <g isolation="isolate">
    <g isolation="isolate">
      <path d="m63.667,105.371c0-.408.125-.752.374-1.033.249-.281.619-.421,1.108-.421s.861.141,1.115.421c.253.281.38.625.38,1.033s-.127.748-.38,1.02c-.254.272-.625.408-1.115.408s-.859-.136-1.108-.408c-.25-.272-.374-.612-.374-1.02Zm2.719,18.61h-2.515v-14.708h2.515v14.708Z" fill="#c9d1d9"/>
      <path d="m72.788,109.272l.082,1.849c1.124-1.414,2.592-2.121,4.404-2.121,3.108,0,4.676,1.754,4.703,5.261v9.72h-2.515v-9.733c-.009-1.061-.251-1.844-.727-2.352-.476-.507-1.217-.761-2.223-.761-.816,0-1.532.218-2.148.653-.616.435-1.097,1.006-1.441,1.712v10.481h-2.515v-14.708h2.379Z" fill="#c9d1d9"/>
    </g>
  </g>
  <line x1="14.4" y1="64.8" x2="108" y2="64.8" fill="none" stroke="#c9d1d9" stroke-miterlimit="10" stroke-width="2.83"/>
  <line x1="7.2" x2="7.2" y2="129.6" fill="none" stroke="#c9d1d9" stroke-miterlimit="10" stroke-width="2.83"/>
  <line x1="115.2" x2="115.2" y2="129.6" fill="none" stroke="#c9d1d9" stroke-miterlimit="10" stroke-width="2.83"/>
  <g isolation="isolate">
    <g isolation="isolate">
      <path d="m29.156,233.123c-1.156,1.656-2.77,2.895-4.84,3.715s-4.48,1.23-7.23,1.23c-2.781,0-5.25-.652-7.406-1.957s-3.824-3.16-5.004-5.566-1.785-5.195-1.816-8.367v-2.977c0-5.141,1.199-9.125,3.598-11.953s5.77-4.242,10.113-4.242c3.562,0,6.43.91,8.602,2.73s3.5,4.402,3.984,7.746h-4.5c-.844-4.531-3.531-6.797-8.062-6.797-3.016,0-5.301,1.06-6.855,3.179s-2.34,5.188-2.355,9.207v2.791c0,3.831.875,6.877,2.625,9.137s4.117,3.39,7.102,3.39c1.688,0,3.164-.187,4.43-.561,1.266-.375,2.312-1.006,3.141-1.895v-7.646h-7.898v-3.68h12.375v12.516Z" fill="#c9d1d9"/>
      <path d="m51.633,237.6c-.25-.5-.453-1.391-.609-2.672-2.016,2.094-4.422,3.141-7.219,3.141-2.5,0-4.551-.707-6.152-2.121s-2.402-3.207-2.402-5.379c0-2.641,1.004-4.691,3.012-6.152s4.832-2.191,8.473-2.191h4.219v-1.992c0-1.516-.453-2.723-1.359-3.621s-2.242-1.348-4.008-1.348c-1.547,0-2.844.391-3.891,1.172s-1.57,1.727-1.57,2.836h-4.359c0-1.266.449-2.488,1.348-3.668s2.117-2.113,3.656-2.801,3.23-1.031,5.074-1.031c2.922,0,5.211.73,6.867,2.191s2.516,3.473,2.578,6.035v11.672c0,2.328.297,4.18.891,5.555v.375h-4.547Zm-7.195-3.305c1.359,0,2.648-.352,3.867-1.055s2.102-1.617,2.648-2.742v-5.203h-3.398c-5.312,0-7.969,1.555-7.969,4.664,0,1.359.453,2.422,1.359,3.188s2.07,1.148,3.492,1.148Z" fill="#c9d1d9"/>
      <path d="m62.109,205.514c0-.703.215-1.297.645-1.781s1.066-.727,1.91-.727,1.484.242,1.922.727.656,1.078.656,1.781-.219,1.289-.656,1.758-1.078.703-1.922.703-1.48-.234-1.91-.703-.645-1.055-.645-1.758Zm4.688,32.086h-4.336v-25.359h4.336v25.359Z" fill="#c9d1d9"/>
      <path d="m77.836,212.24l.141,3.188c1.938-2.438,4.469-3.656,7.594-3.656,5.359,0,8.062,3.023,8.109,9.07v16.758h-4.336v-16.781c-.016-1.828-.434-3.18-1.254-4.055s-2.098-1.312-3.832-1.312c-1.406,0-2.641.375-3.703,1.125s-1.891,1.734-2.484,2.953v18.07h-4.336v-25.359h4.102Z" fill="#c9d1d9"/>
    </g>
  </g>
</svg>