<?xml version="1.0" encoding="UTF-8"?><svg xmlns="http://www.w3.org/2000/svg" viewBox="0 0 907.2 460.8"><defs><style>.uuid-db00f2c2-99f9-4e22-bc80-3fad472c1e64{stroke-width:1.48px;}.uuid-db00f2c2-99f9-4e22-bc80-3fad472c1e64,.uuid-3d8ebf2a-baae-46c6-8fcc-b5dccc28655b{stroke:#7f7f7f;}.uuid-db00f2c2-99f9-4e22-bc80-3fad472c1e64,.uuid-3d8ebf2a-baae-46c6-8fcc-b5dccc28655b,.uuid-8dd36c6b-c10c-458b-9291-8132f789e1fd{fill:none;stroke-miterlimit:10;}.uuid-9a4e1852-eed5-4042-abdd-dda9696bae1b{fill:#307eef;opacity:.5;stroke-width:0px;}.uuid-1c0c3de2-d703-4899-9fbf-4fc83f431346{fill:#bbc3cb;font-family:Roboto-Regular, Roboto;font-size:24px;}.uuid-3d8ebf2a-baae-46c6-8fcc-b5dccc28655b{stroke-width:2.83px;}.uuid-8dd36c6b-c10c-458b-9291-8132f789e1fd{stroke:#307eef;stroke-width:5.67px;}</style></defs><g id="uuid-c271e108-2576-42cb-9372-f4723e40402a"><text class="uuid-1c0c3de2-d703-4899-9fbf-4fc83f431346" transform="translate(73.6 432)"><tspan x="0" y="0">20</tspan></text><text class="uuid-1c0c3de2-d703-4899-9fbf-4fc83f431346" transform="translate(196 432)"><tspan x="0" y="0">60</tspan></text><text class="uuid-1c0c3de2-d703-4899-9fbf-4fc83f431346" transform="translate(325.6 432)"><tspan x="0" y="0">200</tspan></text><text class="uuid-1c0c3de2-d703-4899-9fbf-4fc83f431346" transform="translate(520 432)"><tspan x="0" y="0">1k</tspan></text><text class="uuid-1c0c3de2-d703-4899-9fbf-4fc83f431346" transform="translate(642.4 432)"><tspan x="0" y="0">3k</tspan></text><text class="uuid-1c0c3de2-d703-4899-9fbf-4fc83f431346" transform="translate(847.6 432)"><tspan x="0" y="0">20k</tspan></text><rect class="uuid-3d8ebf2a-baae-46c6-8fcc-b5dccc28655b" x="88" y="28.8" width="792" height="360"/><text class="uuid-1c0c3de2-d703-4899-9fbf-4fc83f431346" transform="translate(768.4 432)"><tspan x="0" y="0">10k</tspan></text><text class="uuid-1c0c3de2-d703-4899-9fbf-4fc83f431346" transform="translate(44.72 174.32)"><tspan x="0" y="0">+6</tspan></text><text class="uuid-1c0c3de2-d703-4899-9fbf-4fc83f431346" transform="translate(31.24 39.32)"><tspan x="0" y="0">+24</tspan></text><line class="uuid-db00f2c2-99f9-4e22-bc80-3fad472c1e64" x1="356.99" y1="29.6" x2="356.99" y2="389.6"/><line class="uuid-db00f2c2-99f9-4e22-bc80-3fad472c1e64" x1="402.85" y1="29.6" x2="402.85" y2="389.6"/><line class="uuid-db00f2c2-99f9-4e22-bc80-3fad472c1e64" x1="435.53" y1="29.6" x2="435.53" y2="389.6"/><line class="uuid-db00f2c2-99f9-4e22-bc80-3fad472c1e64" x1="461.13" y1="29.6" x2="461.13" y2="389.6"/><line class="uuid-db00f2c2-99f9-4e22-bc80-3fad472c1e64" x1="481.58" y1="29.6" x2="481.58" y2="389.6"/><line class="uuid-db00f2c2-99f9-4e22-bc80-3fad472c1e64" x1="499.35" y1="29.6" x2="499.35" y2="389.6"/><line class="uuid-db00f2c2-99f9-4e22-bc80-3fad472c1e64" x1="514.26" y1="29.6" x2="514.26" y2="389.6"/><line class="uuid-db00f2c2-99f9-4e22-bc80-3fad472c1e64" x1="528.02" y1="29.6" x2="528.02" y2="389.6"/><line class="uuid-db00f2c2-99f9-4e22-bc80-3fad472c1e64" x1="539.67" y1="29.6" x2="539.67" y2="389.6"/><line class="uuid-db00f2c2-99f9-4e22-bc80-3fad472c1e64" x1="618.21" y1="29.6" x2="618.21" y2="389.6"/><line class="uuid-db00f2c2-99f9-4e22-bc80-3fad472c1e64" x1="664.83" y1="29.6" x2="664.83" y2="389.6"/><line class="uuid-db00f2c2-99f9-4e22-bc80-3fad472c1e64" x1="697.32" y1="29.6" x2="697.32" y2="389.6"/><line class="uuid-db00f2c2-99f9-4e22-bc80-3fad472c1e64" x1="722.93" y1="29.6" x2="722.93" y2="389.6"/><line class="uuid-db00f2c2-99f9-4e22-bc80-3fad472c1e64" x1="743.37" y1="29.6" x2="743.37" y2="389.6"/><line class="uuid-db00f2c2-99f9-4e22-bc80-3fad472c1e64" x1="760.76" y1="29.6" x2="760.76" y2="389.6"/><line class="uuid-db00f2c2-99f9-4e22-bc80-3fad472c1e64" x1="776.05" y1="29.6" x2="776.05" y2="389.6"/><line class="uuid-db00f2c2-99f9-4e22-bc80-3fad472c1e64" x1="789.23" y1="29.6" x2="789.23" y2="389.6"/><line class="uuid-db00f2c2-99f9-4e22-bc80-3fad472c1e64" x1="801.46" y1="29.6" x2="801.46" y2="389.6"/><line class="uuid-db00f2c2-99f9-4e22-bc80-3fad472c1e64" x1="875.41" y1="29.6" x2="875.41" y2="389.6"/><line class="uuid-db00f2c2-99f9-4e22-bc80-3fad472c1e64" x1="880" y1="29.6" x2="880" y2="389.6"/><line class="uuid-3d8ebf2a-baae-46c6-8fcc-b5dccc28655b" x1="88" y1="208.8" x2="880" y2="208.8"/><text class="uuid-1c0c3de2-d703-4899-9fbf-4fc83f431346" transform="translate(58.32 219.32)"><tspan x="0" y="0">0</tspan></text><text class="uuid-1c0c3de2-d703-4899-9fbf-4fc83f431346" transform="translate(31.24 84.32)"><tspan x="0" y="0">+18</tspan></text><text class="uuid-1c0c3de2-d703-4899-9fbf-4fc83f431346" transform="translate(38.23 399.32)"><tspan x="0" y="0">-24</tspan></text><text class="uuid-1c0c3de2-d703-4899-9fbf-4fc83f431346" transform="translate(38.23 309.32)"><tspan x="0" y="0">-12</tspan></text><text class="uuid-1c0c3de2-d703-4899-9fbf-4fc83f431346" transform="translate(51.7 264.47)"><tspan x="0" y="0">-6</tspan></text><line class="uuid-db00f2c2-99f9-4e22-bc80-3fad472c1e64" x1="95.2" y1="28.8" x2="95.2" y2="388.8"/><line class="uuid-db00f2c2-99f9-4e22-bc80-3fad472c1e64" x1="141.83" y1="28.8" x2="141.83" y2="388.8"/><line class="uuid-db00f2c2-99f9-4e22-bc80-3fad472c1e64" x1="174.31" y1="28.8" x2="174.31" y2="388.8"/><line class="uuid-db00f2c2-99f9-4e22-bc80-3fad472c1e64" x1="199.92" y1="28.8" x2="199.92" y2="388.8"/><line class="uuid-db00f2c2-99f9-4e22-bc80-3fad472c1e64" x1="220.36" y1="28.8" x2="220.36" y2="388.8"/><line class="uuid-db00f2c2-99f9-4e22-bc80-3fad472c1e64" x1="237.75" y1="28.8" x2="237.75" y2="388.8"/><line class="uuid-db00f2c2-99f9-4e22-bc80-3fad472c1e64" x1="253.04" y1="28.8" x2="253.04" y2="388.8"/><line class="uuid-db00f2c2-99f9-4e22-bc80-3fad472c1e64" x1="266.22" y1="28.8" x2="266.22" y2="388.8"/><line class="uuid-db00f2c2-99f9-4e22-bc80-3fad472c1e64" x1="278.45" y1="28.8" x2="278.45" y2="388.8"/><text class="uuid-1c0c3de2-d703-4899-9fbf-4fc83f431346" transform="translate(38.23 354.32)"><tspan x="0" y="0">-18</tspan></text><text class="uuid-1c0c3de2-d703-4899-9fbf-4fc83f431346" transform="translate(31.24 129.35)"><tspan x="0" y="0">+12</tspan></text></g><g id="uuid-d21028b5-016a-4a70-95c6-a2d9b4bdf326"><path class="uuid-9a4e1852-eed5-4042-abdd-dda9696bae1b" d="M878.4,210.87c-11.88.08-153.2.95-185.67-.42-7.11-.3-14.17-.85-14.17-.85-20.01-1.57-34.96-4.28-42.61-5.81-9.26-1.85-15.36-3.47-18.5-4.33-6.82-1.89-11.68-3.25-17.97-6.03-6.67-2.94-11.52-5.95-13.74-7.4-2.99-1.94-7.82-5.11-13.22-10.36-4.89-4.76-8-9.04-10.28-12.21-2.99-4.16-5-7.6-6.34-9.91-2.72-4.69-4.5-8.38-5.95-11.42-2.01-4.21-3.36-7.41-5.55-12.61-1.68-3.99-3.46-7.95-5.07-11.97,0,0-.72-1.79-2.06-4.6-.48-1.01-1.06-2.02-2.22-4.04-.29-.5-.81-1.39-1.74-2.3-.48-.47-.84-.8-1.43-1.03-.12-.05-1.42-.53-2.7.08-.48.23-.67.48-1.35,1.19-1.99,2.09-2.1,1.81-2.78,2.78-.64.91-.34.87-1.43,2.85-.73,1.32-.92,1.45-1.43,2.46-.56,1.12-.72,1.76-1.11,2.85-.71,1.99-1,2.15-1.98,4.44-1.07,2.5-.79,2.46-1.98,5.47-.65,1.64-.77,1.75-2.14,4.92-1.01,2.34-1.53,3.63-1.9,4.52-1.52,3.59-3.27,6.39-4.92,9.44-5.15,9.54-7.81,14.43-12.13,20.06-3.72,4.85-7.06,8.21-8.56,9.67-1.49,1.45-3.94,3.83-7.48,6.5-5.1,3.86-9.45,6.07-13.77,8.25-5.33,2.68-9.54,4.29-10.78,4.76-4.83,1.81-8.95,2.95-13.8,4.12-8.7,2.1-16.68,3.58-24.11,4.76-11.36,1.8-19.41,2.58-32.04,3.81-5.37.52-10.13.92-16.18,1.1-6.56.19-11.4,0-12.37,0H86.4v179.2s792,.8,792,.8v-178.72Z"/><path class="uuid-8dd36c6b-c10c-458b-9291-8132f789e1fd" d="M86.4,209.6h270.54c.97,0,5.81.19,12.37,0,6.05-.18,10.81-.58,16.18-1.1,12.62-1.22,20.67-2.01,32.04-3.81,7.42-1.18,15.41-2.65,24.11-4.76,4.85-1.17,8.97-2.31,13.8-4.12,1.24-.47,5.45-2.07,10.78-4.76,4.32-2.17,8.68-4.39,13.77-8.25,3.54-2.68,5.99-5.05,7.48-6.5,1.51-1.47,4.84-4.83,8.56-9.67,4.33-5.64,6.99-10.52,12.13-20.06,1.64-3.05,3.4-5.84,4.92-9.44.37-.89.89-2.18,1.9-4.52,1.37-3.16,1.49-3.28,2.14-4.92,1.2-3.01.92-2.98,1.98-5.47.98-2.29,1.27-2.45,1.98-4.44.39-1.1.55-1.74,1.11-2.85.5-1.01.7-1.14,1.43-2.46,1.09-1.98.79-1.94,1.43-2.85.68-.96.79-.68,2.78-2.78.68-.71.87-.96,1.35-1.19,1.28-.61,2.58-.12,2.7-.08.59.23.95.57,1.43,1.03.94.91,1.46,1.8,1.74,2.3,1.16,2.03,1.74,3.04,2.22,4.04,1.34,2.81,2.06,4.6,2.06,4.6,1.62,4.02,3.39,7.98,5.07,11.97,2.19,5.2,3.54,8.4,5.55,12.61,1.45,3.04,3.23,6.73,5.95,11.42,1.34,2.31,3.35,5.75,6.34,9.91,2.28,3.17,5.39,7.45,10.28,12.21,5.39,5.25,10.22,8.42,13.22,10.36,2.23,1.45,7.07,4.46,13.74,7.4,6.29,2.77,11.16,4.14,17.97,6.03,3.14.87,9.25,2.49,18.5,4.33,7.65,1.53,22.6,4.24,42.61,5.81,0,0,7.06.55,14.17.85,32.47,1.37,173.79.5,185.67.42"/></g></svg>