<?xml version="1.0" encoding="UTF-8"?>
<svg xmlns="http://www.w3.org/2000/svg" viewBox="0 0 1337.65 603.38">
  <defs>
    <style>
      .cls-1 {
        stroke-width: 3px;
      }

      .cls-1, .cls-2 {
        fill: none;
      }

      .cls-1, .cls-2, .cls-3 {
        stroke-miterlimit: 10;
      }

      .cls-1, .cls-3 {
        stroke: #c9d1d9;
      }

      .cls-2 {
        stroke: #307eef;
        stroke-width: 6px;
      }

      .cls-4 {
        font-size: 30px;
      }

      .cls-4, .cls-5 {
        fill: #c9d1d9;
        font-family: Roboto-Medium, Roboto;
        font-weight: 500;
      }

      .cls-3 {
        fill: #1da37d;
        stroke-width: 2px;
      }

      .cls-5 {
        font-size: 24px;
      }
    </style>
  </defs>
  <g id="Ebene_1" data-name="Ebene 1">
    <rect class="cls-1" x="53.5" y="47.56" width="1274.4" height="518.4"/>
    <line class="cls-1" x1="53.5" y1="151.24" x2="1327.9" y2="151.24"/>
    <line class="cls-1" x1="53.5" y1="203.08" x2="1327.9" y2="203.08"/>
    <line class="cls-1" x1="53.5" y1="254.92" x2="1327.9" y2="254.92"/>
    <line class="cls-1" x1="53.5" y1="306.76" x2="1327.9" y2="306.76"/>
    <line class="cls-1" x1="53.5" y1="358.6" x2="1327.9" y2="358.6"/>
    <line class="cls-1" x1="53.5" y1="410.44" x2="1327.9" y2="410.44"/>
    <line class="cls-1" x1="53.5" y1="462.28" x2="1327.9" y2="462.28"/>
    <line class="cls-1" x1="53.5" y1="514.12" x2="1327.9" y2="514.12"/>
    <line class="cls-1" x1="53.5" y1="99.4" x2="1327.9" y2="99.4"/>
    <line class="cls-1" x1="225.68" y1="47.56" x2="225.68" y2="565.96"/>
    <line class="cls-1" x1="353.32" y1="47.56" x2="353.32" y2="565.96"/>
    <line class="cls-1" x1="480.58" y1="47.56" x2="480.58" y2="565.96"/>
    <line class="cls-1" x1="649.24" y1="47.56" x2="649.24" y2="565.96"/>
    <line class="cls-1" x1="776.5" y1="47.56" x2="776.5" y2="565.96"/>
    <line class="cls-1" x1="904.33" y1="47.56" x2="904.33" y2="565.96"/>
    <line class="cls-1" x1="1073.36" y1="47.56" x2="1073.36" y2="565.96"/>
    <line class="cls-1" x1="1200.25" y1="47.56" x2="1200.25" y2="565.96"/>
  </g>
  <g id="TEXT">
    <text class="cls-5" transform="translate(0 572.98)"><tspan x="0" y="0">-30</tspan></text>
    <text class="cls-5" transform="translate(0 521.14)"><tspan x="0" y="0">-24</tspan></text>
    <text class="cls-5" transform="translate(0 469.3)"><tspan x="0" y="0">-18</tspan></text>
    <text class="cls-5" transform="translate(0 417.46)"><tspan x="0" y="0">-12</tspan></text>
    <text class="cls-5" transform="translate(13.64 365.62)"><tspan x="0" y="0">-6</tspan></text>
    <text class="cls-5" transform="translate(13.64 313.78)"><tspan x="0" y="0">-0</tspan></text>
    <text class="cls-5" transform="translate(21.52 261.94)"><tspan x="0" y="0">6</tspan></text>
    <text class="cls-5" transform="translate(7.88 210.1)"><tspan x="0" y="0">12</tspan></text>
    <text class="cls-5" transform="translate(7.88 158.26)"><tspan x="0" y="0">18</tspan></text>
    <text class="cls-5" transform="translate(7.88 106.42)"><tspan x="0" y="0">24</tspan></text>
    <text class="cls-5" transform="translate(7.88 54.58)"><tspan x="0" y="0">30</tspan></text>
    <text class="cls-4" transform="translate(408.49 412.77)"><tspan x="0" y="0">1</tspan></text>
    <text class="cls-4" transform="translate(620.12 385.99)"><tspan x="0" y="0">2</tspan></text>
    <text class="cls-4" transform="translate(976.57 252.54)"><tspan x="0" y="0">3</tspan></text>
    <text class="cls-4" transform="translate(1104.4 367.33)"><tspan x="0" y="0">4</tspan></text>
    <text class="cls-5" transform="translate(53.5 599.55)"><tspan x="0" y="0">20Hz</tspan></text>
    <text class="cls-5" transform="translate(212.04 599.55)"><tspan x="0" y="0">50</tspan></text>
    <text class="cls-5" transform="translate(332.86 599.55)"><tspan x="0" y="0">100</tspan></text>
    <text class="cls-5" transform="translate(460.12 599.55)"><tspan x="0" y="0">200</tspan></text>
    <text class="cls-5" transform="translate(628.78 599.55)"><tspan x="0" y="0">500</tspan></text>
    <text class="cls-5" transform="translate(762.04 599.55)"><tspan x="0" y="0">1K</tspan></text>
    <text class="cls-5" transform="translate(889.87 599.55)"><tspan x="0" y="0">2K</tspan></text>
    <text class="cls-5" transform="translate(1058.9 599.55)"><tspan x="0" y="0">5K</tspan></text>
    <text class="cls-5" transform="translate(1178.97 599.55)"><tspan x="0" y="0">10K</tspan></text>
    <text class="cls-5" transform="translate(1289.74 599.55)"><tspan x="0" y="0">20K</tspan></text>
    <text class="cls-5" transform="translate(6.47 21.51)"><tspan x="0" y="0">dB</tspan></text>
  </g>
  <g id="Ebene_5" data-name="Ebene 5">
    <path class="cls-2" d="m53.5,312.53c10.85-.03,25.68,0,43.31.28,21.72.34,36.99.59,57.16,1.69,15.87.87,9.02.86,56.88,4.5,22.07,1.68,28.83,2.09,40.83,3.94,2.9.45,16.82,2.64,35.19,7.04,7.72,1.85,13.34,3.19,21.12,5.58,6.61,2.03,22.61,7.2,40.83,16.1,5.31,2.6,10.91,5.56,12.11,6.19,9.91,5.26,12.71,7.21,18.16,10,8.33,4.26,13.63,6.88,21.4,8.59,11.65,2.56,21.04,1.24,24.21.7,1.5-.25,6.73-1.19,13.09-3.66,3.53-1.37,7.09-3.23,14.08-6.9,6.64-3.48,5.91-3.26,9.71-5.21,3.68-1.88,6.74-3.32,19.01-8.73,7.7-3.4,11.55-5.09,12.29-5.4,11.14-4.5,20.27-6.64,25.25-7.79,7.17-1.65,18.52-3.81,32.71-4.48,9-.42,13.5-.64,19.5.14,17.25,2.24,32.48,10.03,34.98,11.33,2.82,1.47,3.94,2.22,6.48,3.1,1.68.58,12.35,4.12,23.23-.56,1.71-.74,1.79-.97,7.56-4.74,7.36-4.81,15.09-9.56,18.96-11.73,8.4-4.72,15.42-6.73,23.89-9.15,13.34-3.82,23.92-5.02,35.76-6.19,33.02-3.29,53.36-4.36,53.36-4.36,39.11-2.08,36.33-1.14,57.72-2.53,37.04-2.41,55.56-3.61,72.08-9.01,13.03-4.26,26.31-7.82,39.14-12.67,1.36-.52,6.23-2.37,12.95-3.94,5.32-1.24,11.04-2.54,18.21-2.25,2.16.09,7.61.44,15.39,3,12.31,4.05,20.6,10.37,24.96,13.61,5.81,4.3,16.73,11.03,38.57,24.5,15.21,9.38,18.34,9.72,41.39,21.96,19.5,10.36,38.27,20.33,60.25,35.19,24.19,16.36,42.09,31.76,52.65,41.39,19.08,17.38,31.78,31.9,34.63,35.19,8.59,9.9,21.62,25.05,34.91,47.02,4.56,7.53,8.86,15.78,17.46,32.29,3.27,6.27,7.74,15.01,12.67,26.7.48,1.13.86,2.07,1.13,2.7"/>
    <circle class="cls-3" cx="412.52" cy="380.75" r="8.81"/>
    <circle class="cls-3" cx="622.5" cy="348.21" r="8.81"/>
    <circle class="cls-3" cx="979.11" cy="271.4" r="8.81"/>
    <circle class="cls-3" cx="1109.78" cy="332.68" r="8.81"/>
  </g>
</svg>