<?xml version="1.0" encoding="UTF-8"?>
<svg id="Ebene_1" data-name="Ebene 1" xmlns="http://www.w3.org/2000/svg" width="1768.6" height="970.86" viewBox="0 0 1768.6 970.86">
  <rect x="161.77" y="27.66" width="1564.75" height="810" fill="none" stroke="#7f7f7f" stroke-miterlimit="10" stroke-width="4.25"/>
  <line x1="161.72" y1="675.66" x2="1726.52" y2="675.66" fill="none" stroke="#7f7f7f" stroke-miterlimit="10" stroke-width="2.83"/>
  <line x1="1726.52" y1="513.66" x2="161.72" y2="513.66" fill="none" stroke="#7f7f7f" stroke-miterlimit="10" stroke-width="2.83"/>
  <line x1="161.72" y1="351.66" x2="1726.52" y2="351.66" fill="none" stroke="#7f7f7f" stroke-miterlimit="10" stroke-width="2.83"/>
  <line x1="1173.37" y1="189.66" x2="161.72" y2="189.66" fill="none" stroke="#7f7f7f" stroke-miterlimit="10" stroke-width="2.83"/>
  <g isolation="isolate">
    <g isolation="isolate">
      <path d="m12.445,587.707l27.844-11.156-27.844-11.156v-5.836h34.125v4.5h-13.289l-14.344-.422,27.633,11.203v3.445l-27.562,11.18,14.273-.445h13.289v4.5H12.445v-5.812Z" fill="#c9d1d9"/>
      <path d="m46.57,536.637c-.5.25-1.391.453-2.672.609,2.094,2.016,3.141,4.422,3.141,7.219,0,2.5-.707,4.551-2.121,6.152s-3.207,2.402-5.379,2.402c-2.641,0-4.691-1.004-6.152-3.012s-2.191-4.832-2.191-8.473v-4.219h-1.992c-1.516,0-2.723.453-3.621,1.359s-1.348,2.242-1.348,4.008c0,1.547.391,2.844,1.172,3.891s1.727,1.57,2.836,1.57v4.359c-1.266,0-2.488-.449-3.668-1.348s-2.113-2.117-2.801-3.656-1.031-3.23-1.031-5.074c0-2.922.73-5.211,2.191-6.867s3.473-2.516,6.035-2.578h11.672c2.328,0,4.18-.297,5.555-.891h.375v4.547Zm-3.305,7.195c0-1.359-.352-2.648-1.055-3.867s-1.617-2.102-2.742-2.648h-5.203v3.398c0,5.312,1.555,7.969,4.664,7.969,1.359,0,2.422-.453,3.188-1.359s1.148-2.07,1.148-3.492Z" fill="#c9d1d9"/>
      <path d="m33.68,527.215c-3.953,0-7.098-.914-9.434-2.742s-3.504-4.25-3.504-7.266c0-3.094,1.094-5.508,3.281-7.242l-2.812-.211v-3.961h24.75c3.281,0,5.867.973,7.758,2.918s2.836,4.559,2.836,7.84c0,1.828-.391,3.617-1.172,5.367s-1.852,3.086-3.211,4.008l-2.602-2.25c2.297-1.859,3.445-4.133,3.445-6.82,0-2.109-.594-3.754-1.781-4.934s-2.859-1.77-5.016-1.77h-2.18c2,1.734,3,4.102,3,7.102,0,2.969-1.195,5.371-3.586,7.207s-5.648,2.754-9.773,2.754Zm.492-4.359c2.859,0,5.105-.586,6.738-1.758s2.449-2.812,2.449-4.922c0-2.734-1.242-4.742-3.727-6.023h-11.578c-2.422,1.328-3.633,3.32-3.633,5.977,0,2.109.82,3.758,2.461,4.945s4.07,1.781,7.289,1.781Z" fill="#c9d1d9"/>
      <path d="m21.211,495.152l3.188-.141c-2.438-1.938-3.656-4.469-3.656-7.594,0-5.359,3.023-8.062,9.07-8.109h16.758v4.336h-16.781c-1.828.016-3.18.434-4.055,1.254s-1.312,2.098-1.312,3.832c0,1.406.375,2.641,1.125,3.703s1.734,1.891,2.953,2.484h18.07v4.336h-25.359v-4.102Z" fill="#c9d1d9"/>
      <path d="m14.484,472.746c-.703,0-1.297-.215-1.781-.645s-.727-1.066-.727-1.91.242-1.484.727-1.922,1.078-.656,1.781-.656,1.289.219,1.758.656.703,1.078.703,1.922-.234,1.48-.703,1.91-1.055.645-1.758.645Zm32.086-4.688v4.336h-25.359v-4.336h25.359Z" fill="#c9d1d9"/>
      <path d="m15.07,455.238h6.141v-4.734h3.352v4.734h15.746c1.018,0,1.78-.211,2.288-.633.509-.422.763-1.141.763-2.156,0-.5-.094-1.188-.281-2.062h3.495c.311,1.141.466,2.25.466,3.328,0,1.938-.586,3.398-1.758,4.383s-2.836,1.477-4.992,1.477h-15.727v4.617h-3.352v-4.617h-6.141v-4.336Z" fill="#c9d1d9"/>
      <path d="m44.062,429.785c1.984,1.688,2.977,4.164,2.977,7.43,0,2.703-.785,4.762-2.355,6.176s-3.895,2.129-6.973,2.145h-16.5v-4.336h16.383c3.844,0,5.766-1.562,5.766-4.688,0-3.312-1.234-5.516-3.703-6.609h-18.445v-4.336h25.359v4.125l-2.508.094Z" fill="#c9d1d9"/>
      <path d="m33.68,420.035c-3.891,0-7.02-.922-9.387-2.766s-3.551-4.258-3.551-7.242c0-2.969,1.016-5.32,3.047-7.055h-13.219v-4.336h36v3.984l-2.719.211c2.125,1.734,3.188,4.148,3.188,7.242,0,2.938-1.203,5.332-3.609,7.184s-5.547,2.777-9.422,2.777h-.328Zm.492-4.336c2.875,0,5.125-.594,6.75-1.781s2.438-2.828,2.438-4.922c0-2.75-1.234-4.758-3.703-6.023h-11.648c-2.391,1.297-3.586,3.289-3.586,5.977,0,2.125.82,3.781,2.461,4.969s4.07,1.781,7.289,1.781Z" fill="#c9d1d9"/>
      <path d="m47.039,381.387c0,3.438-1.129,6.234-3.387,8.391s-5.277,3.234-9.059,3.234h-.797c-2.516,0-4.762-.48-6.738-1.441s-3.523-2.305-4.641-4.031-1.676-3.598-1.676-5.613c0-3.297,1.086-5.859,3.258-7.688s5.281-2.742,9.328-2.742h1.805v17.18c2.5-.062,4.52-.793,6.059-2.191s2.309-3.176,2.309-5.332c0-1.531-.312-2.828-.938-3.891s-1.453-1.992-2.484-2.789l2.062-2.648c3.266,2.125,4.898,5.312,4.898,9.562Zm-22.734.539c0,1.75.637,3.219,1.91,4.406s3.059,1.922,5.355,2.203v-12.703h-.328c-2.203.125-3.91.719-5.121,1.781s-1.816,2.5-1.816,4.312Z" fill="#c9d1d9"/>
      <path d="m32.719,354.762c-3.531,0-6.922-.473-10.172-1.418s-6.203-2.355-8.859-4.23-4.531-3.82-5.625-5.836l2.859-.891c1.75,2.281,4.422,4.152,8.016,5.613s7.617,2.262,12.07,2.402l1.992.023c6.031,0,11.266-1.102,15.703-3.305,2.656-1.328,4.734-2.906,6.234-4.734l2.648.891c-1.156,2.078-3.094,4.062-5.812,5.953-5.312,3.688-11.664,5.531-19.055,5.531Z" fill="#c9d1d9"/>
      <path d="m33.68,339.246c-3.891,0-7.02-.922-9.387-2.766s-3.551-4.258-3.551-7.242c0-2.969,1.016-5.32,3.047-7.055h-13.219v-4.336h36v3.984l-2.719.211c2.125,1.734,3.188,4.148,3.188,7.242,0,2.938-1.203,5.332-3.609,7.184s-5.547,2.777-9.422,2.777h-.328Zm.492-4.336c2.875,0,5.125-.594,6.75-1.781s2.438-2.828,2.438-4.922c0-2.75-1.234-4.758-3.703-6.023h-11.648c-2.391,1.297-3.586,3.289-3.586,5.977,0,2.125.82,3.781,2.461,4.969s4.07,1.781,7.289,1.781Z" fill="#c9d1d9"/>
      <path d="m46.57,310.441H12.445v-11.156c0-3.703.766-6.488,2.297-8.355s3.797-2.801,6.797-2.801c1.594,0,3.004.453,4.23,1.359s2.176,2.141,2.848,3.703c.516-1.844,1.496-3.301,2.941-4.371s3.168-1.605,5.168-1.605c3.062,0,5.469.992,7.219,2.977s2.625,4.789,2.625,8.414v11.836Zm-19.57-4.5v-6.797c0-1.969-.493-3.543-1.479-4.723s-2.325-1.77-4.017-1.77c-1.879,0-3.245.547-4.099,1.641s-1.28,2.758-1.28,4.992v6.656h10.875Zm3.609,0h12.281v-7.43c0-2.094-.543-3.746-1.629-4.957s-2.582-1.816-4.488-1.816c-4.109,0-6.164,2.234-6.164,6.703v7.5Z" fill="#c9d1d9"/>
      <path d="m32.953,271.23c3.484,0,6.824.457,10.02,1.371s6.145,2.312,8.848,4.195,4.625,3.855,5.766,5.918l-2.648.914c-1.844-2.406-4.707-4.34-8.59-5.801s-8.191-2.207-12.926-2.238h-.75c-3.281,0-6.332.344-9.152,1.031s-5.348,1.645-7.582,2.871-3.977,2.605-5.227,4.137l-2.648-.914c1.141-2.062,3.047-4.027,5.719-5.895s5.617-3.266,8.836-4.195,6.664-1.395,10.336-1.395Z" fill="#c9d1d9"/>
    </g>
  </g>
  <g isolation="isolate">
    <g isolation="isolate">
      <path d="m805.121,940.59h-14.32v15.07h-4.5v-34.125h21.141v3.68h-16.641v11.695h14.32v3.68Z" fill="#c9d1d9"/>
    </g>
    <g isolation="isolate">
      <path d="m823.799,934.191c-.656-.109-1.367-.164-2.133-.164-2.844,0-4.773,1.211-5.789,3.633v18h-4.336v-25.359h4.219l.07,2.93c1.422-2.266,3.438-3.398,6.047-3.398.844,0,1.484.109,1.922.328v4.031Z" fill="#c9d1d9"/>
    </g>
    <g isolation="isolate">
      <path d="m837.865,956.129c-3.438,0-6.234-1.129-8.391-3.387s-3.234-5.277-3.234-9.059v-.797c0-2.516.48-4.762,1.441-6.738s2.305-3.523,4.031-4.641,3.598-1.676,5.613-1.676c3.297,0,5.859,1.086,7.688,3.258s2.742,5.281,2.742,9.328v1.805h-17.18c.062,2.5.793,4.52,2.191,6.059s3.176,2.309,5.332,2.309c1.531,0,2.828-.312,3.891-.938s1.992-1.453,2.789-2.484l2.648,2.062c-2.125,3.266-5.312,4.898-9.562,4.898Zm-.539-22.734c-1.75,0-3.219.637-4.406,1.91s-1.922,3.059-2.203,5.355h12.703v-.328c-.125-2.203-.719-3.91-1.781-5.121s-2.5-1.816-4.312-1.816Z" fill="#c9d1d9"/>
      <path d="m851.716,942.77c0-3.984.914-7.137,2.742-9.457s4.281-3.48,7.359-3.48c3,0,5.367,1.008,7.102,3.023l.188-2.555h3.984v35.109h-4.336v-12.094c-1.75,1.875-4.078,2.812-6.984,2.812-3.062,0-5.504-1.191-7.324-3.574s-2.73-5.543-2.73-9.48v-.305Zm4.336.492c0,2.906.613,5.188,1.84,6.844s2.879,2.484,4.957,2.484c2.578,0,4.547-1.141,5.906-3.422v-12.422c-1.375-2.234-3.328-3.352-5.859-3.352-2.094,0-3.758.832-4.992,2.496s-1.852,4.121-1.852,7.371Z" fill="#c9d1d9"/>
      <path d="m895.709,953.152c-1.688,1.984-4.164,2.977-7.43,2.977-2.703,0-4.762-.785-6.176-2.355s-2.129-3.895-2.145-6.973v-16.5h4.336v16.383c0,3.844,1.562,5.766,4.688,5.766,3.312,0,5.516-1.234,6.609-3.703v-18.445h4.336v25.359h-4.125l-.094-2.508Z" fill="#c9d1d9"/>
      <path d="m917.037,956.129c-3.438,0-6.234-1.129-8.391-3.387s-3.234-5.277-3.234-9.059v-.797c0-2.516.48-4.762,1.441-6.738s2.305-3.523,4.031-4.641,3.598-1.676,5.613-1.676c3.297,0,5.859,1.086,7.688,3.258s2.742,5.281,2.742,9.328v1.805h-17.18c.062,2.5.793,4.52,2.191,6.059s3.176,2.309,5.332,2.309c1.531,0,2.828-.312,3.891-.938s1.992-1.453,2.789-2.484l2.648,2.062c-2.125,3.266-5.312,4.898-9.562,4.898Zm-.539-22.734c-1.75,0-3.219.637-4.406,1.91s-1.922,3.059-2.203,5.355h12.703v-.328c-.125-2.203-.719-3.91-1.781-5.121s-2.5-1.816-4.312-1.816Z" fill="#c9d1d9"/>
      <path d="m936.045,930.301l.141,3.188c1.938-2.438,4.469-3.656,7.594-3.656,5.359,0,8.062,3.023,8.109,9.07v16.758h-4.336v-16.781c-.016-1.828-.434-3.18-1.254-4.055s-2.098-1.312-3.832-1.312c-1.406,0-2.641.375-3.703,1.125s-1.891,1.734-2.484,2.953v18.07h-4.336v-25.359h4.102Z" fill="#c9d1d9"/>
      <path d="m968.6,952.59c1.547,0,2.898-.469,4.055-1.406s1.797-2.109,1.922-3.516h4.102c-.078,1.453-.578,2.836-1.5,4.148s-2.152,2.359-3.691,3.141-3.168,1.172-4.887,1.172c-3.453,0-6.199-1.152-8.238-3.457s-3.059-5.457-3.059-9.457v-.727c0-2.469.453-4.664,1.359-6.586s2.207-3.414,3.902-4.477,3.699-1.594,6.012-1.594c2.844,0,5.207.852,7.09,2.555s2.887,3.914,3.012,6.633h-4.102c-.125-1.641-.746-2.988-1.863-4.043s-2.496-1.582-4.137-1.582c-2.203,0-3.91.793-5.121,2.379s-1.816,3.879-1.816,6.879v.82c0,2.922.602,5.172,1.805,6.75s2.922,2.367,5.156,2.367Z" fill="#c9d1d9"/>
      <path d="m991.85,949.309l5.906-19.008h4.641l-10.195,29.273c-1.578,4.219-4.086,6.328-7.523,6.328l-.82-.07-1.617-.305v-3.516l1.172.094c1.469,0,2.613-.297,3.434-.891s1.496-1.68,2.027-3.258l.961-2.578-9.047-25.078h4.734l6.328,19.008Z" fill="#c9d1d9"/>
      <path d="m1017.982,941.809c0-3.531.473-6.922,1.418-10.172s2.355-6.203,4.23-8.859,3.82-4.531,5.836-5.625l.891,2.859c-2.281,1.75-4.152,4.422-5.613,8.016s-2.262,7.617-2.402,12.07l-.023,1.992c0,6.031,1.102,11.266,3.305,15.703,1.328,2.656,2.906,4.734,4.734,6.234l-.891,2.648c-2.078-1.156-4.062-3.094-5.953-5.812-3.688-5.312-5.531-11.664-5.531-19.055Z" fill="#c9d1d9"/>
      <path d="m1061.459,955.66h-4.523v-15.773h-17.203v15.773h-4.5v-34.125h4.5v14.672h17.203v-14.672h4.523v34.125Z" fill="#c9d1d9"/>
      <path d="m1072.85,952.121h14.836v3.539h-20.133v-3.188l13.992-18.586h-13.781v-3.586h19.219v3.07l-14.133,18.75Z" fill="#c9d1d9"/>
      <path d="m1102.568,942.043c0,3.484-.457,6.824-1.371,10.02s-2.312,6.145-4.195,8.848-3.855,4.625-5.918,5.766l-.914-2.648c2.406-1.844,4.34-4.707,5.801-8.59s2.207-8.191,2.238-12.926v-.75c0-3.281-.344-6.332-1.031-9.152s-1.645-5.348-2.871-7.582-2.605-3.977-4.137-5.227l.914-2.648c2.062,1.141,4.027,3.047,5.895,5.719s3.266,5.617,4.195,8.836,1.395,6.664,1.395,10.336Z" fill="#c9d1d9"/>
    </g>
  </g>
  <g isolation="isolate">
    <g isolation="isolate">
      <path d="m81.725,514.964h-11.438v-3.539h11.438v3.539Z" fill="#c9d1d9"/>
      <path d="m107.857,527.69h-22.359v-3.117l11.812-13.125c1.75-1.984,2.957-3.598,3.621-4.84s.996-2.527.996-3.855c0-1.781-.539-3.242-1.617-4.383s-2.516-1.711-4.312-1.711c-2.156,0-3.832.613-5.027,1.84s-1.793,2.934-1.793,5.121h-4.336c0-3.141,1.012-5.68,3.035-7.617s4.73-2.906,8.121-2.906c3.172,0,5.68.832,7.523,2.496s2.766,3.879,2.766,6.645c0,3.359-2.141,7.359-6.422,12l-9.141,9.914h17.133v3.539Z" fill="#c9d1d9"/>
      <path d="m133.85,513.136c0,5.078-.867,8.852-2.602,11.32s-4.445,3.703-8.133,3.703c-3.641,0-6.336-1.207-8.086-3.621s-2.656-6.02-2.719-10.816v-5.789c0-5.016.867-8.742,2.602-11.18s4.453-3.656,8.156-3.656c3.672,0,6.375,1.176,8.109,3.527s2.625,5.98,2.672,10.887v5.625Zm-4.336-5.93c0-3.672-.516-6.348-1.547-8.027s-2.664-2.52-4.898-2.52c-2.219,0-3.836.836-4.852,2.508s-1.539,4.242-1.57,7.711v6.938c0,3.688.535,6.41,1.605,8.168s2.691,2.637,4.863,2.637c2.141,0,3.73-.828,4.77-2.484s1.582-4.266,1.629-7.828v-7.102Z" fill="#c9d1d9"/>
    </g>
  </g>
  <g isolation="isolate">
    <g isolation="isolate">
      <path d="m81.725,838.964h-11.438v-3.539h11.438v3.539Z" fill="#c9d1d9"/>
      <path d="m103.803,840.229h4.734v3.539h-4.734v7.922h-4.359v-7.922h-15.539v-2.555l15.281-23.648h4.617v22.664Zm-14.977,0h10.617v-16.734l-.516.938-10.102,15.797Z" fill="#c9d1d9"/>
      <path d="m133.85,837.136c0,5.078-.867,8.852-2.602,11.32s-4.445,3.703-8.133,3.703c-3.641,0-6.336-1.207-8.086-3.621s-2.656-6.02-2.719-10.816v-5.789c0-5.016.867-8.742,2.602-11.18s4.453-3.656,8.156-3.656c3.672,0,6.375,1.176,8.109,3.527s2.625,5.98,2.672,10.887v5.625Zm-4.336-5.93c0-3.672-.516-6.348-1.547-8.027s-2.664-2.52-4.898-2.52c-2.219,0-3.836.836-4.852,2.508s-1.539,4.242-1.57,7.711v6.938c0,3.688.535,6.41,1.605,8.168s2.691,2.637,4.863,2.637c2.141,0,3.73-.828,4.77-2.484s1.582-4.266,1.629-7.828v-7.102Z" fill="#c9d1d9"/>
    </g>
  </g>
  <g isolation="isolate">
    <g isolation="isolate">
      <path d="m140.136,904.45h-4.359v-28.898l-8.742,3.211v-3.938l12.422-4.664h.68v34.289Z" fill="#c9d1d9"/>
      <path d="m174.237,889.896c0,5.078-.867,8.852-2.602,11.32s-4.445,3.703-8.133,3.703c-3.641,0-6.336-1.207-8.086-3.621s-2.656-6.02-2.719-10.816v-5.789c0-5.016.867-8.742,2.602-11.18s4.453-3.656,8.156-3.656c3.672,0,6.375,1.176,8.109,3.527s2.625,5.98,2.672,10.887v5.625Zm-4.336-5.93c0-3.672-.516-6.348-1.547-8.027s-2.664-2.52-4.898-2.52c-2.219,0-3.836.836-4.852,2.508s-1.539,4.242-1.57,7.711v6.938c0,3.688.535,6.41,1.605,8.168s2.691,2.637,4.863,2.637c2.141,0,3.73-.828,4.77-2.484s1.582-4.266,1.629-7.828v-7.102Z" fill="#c9d1d9"/>
    </g>
  </g>
  <g isolation="isolate">
    <g isolation="isolate">
      <path d="m186.87,888.471h-2.528v-16.761l-5.07,1.862v-2.284l7.205-2.705h.394v19.888Z" fill="#c9d1d9"/>
    </g>
  </g>
  <g isolation="isolate">
    <g isolation="isolate">
      <path d="m665.806,904.45h-4.359v-28.898l-8.742,3.211v-3.938l12.422-4.664h.68v34.289Z" fill="#c9d1d9"/>
      <path d="m699.907,889.896c0,5.078-.867,8.852-2.602,11.32s-4.445,3.703-8.133,3.703c-3.641,0-6.336-1.207-8.086-3.621s-2.656-6.02-2.719-10.816v-5.789c0-5.016.867-8.742,2.602-11.18s4.453-3.656,8.156-3.656c3.672,0,6.375,1.176,8.109,3.527s2.625,5.98,2.672,10.887v5.625Zm-4.336-5.93c0-3.672-.516-6.348-1.547-8.027s-2.664-2.52-4.898-2.52c-2.219,0-3.836.836-4.852,2.508s-1.539,4.242-1.57,7.711v6.938c0,3.688.535,6.41,1.605,8.168s2.691,2.637,4.863,2.637c2.141,0,3.73-.828,4.77-2.484s1.582-4.266,1.629-7.828v-7.102Z" fill="#c9d1d9"/>
    </g>
  </g>
  <g isolation="isolate">
    <g isolation="isolate">
      <path d="m717.233,888.471h-12.969v-1.808l6.852-7.613c1.015-1.15,1.715-2.086,2.101-2.807.385-.721.577-1.466.577-2.236,0-1.033-.312-1.88-.938-2.542-.626-.661-1.459-.992-2.502-.992-1.25,0-2.222.355-2.915,1.067-.693.711-1.04,1.701-1.04,2.97h-2.515c0-1.821.586-3.294,1.76-4.418,1.174-1.123,2.744-1.686,4.71-1.686,1.84,0,3.295.482,4.364,1.448,1.069.965,1.604,2.249,1.604,3.854,0,1.948-1.241,4.269-3.725,6.96l-5.302,5.75h9.938v2.053Z" fill="#c9d1d9"/>
    </g>
  </g>
  <g isolation="isolate">
    <g isolation="isolate">
      <path d="m1186.996,904.45h-4.359v-28.898l-8.742,3.211v-3.938l12.422-4.664h.68v34.289Z" fill="#c9d1d9"/>
      <path d="m1221.098,889.896c0,5.078-.867,8.852-2.602,11.32s-4.445,3.703-8.133,3.703c-3.641,0-6.336-1.207-8.086-3.621s-2.656-6.02-2.719-10.816v-5.789c0-5.016.867-8.742,2.602-11.18s4.453-3.656,8.156-3.656c3.672,0,6.375,1.176,8.109,3.527s2.625,5.98,2.672,10.887v5.625Zm-4.336-5.93c0-3.672-.516-6.348-1.547-8.027s-2.664-2.52-4.898-2.52c-2.219,0-3.836.836-4.852,2.508s-1.539,4.242-1.57,7.711v6.938c0,3.688.535,6.41,1.605,8.168s2.691,2.637,4.863,2.637c2.141,0,3.73-.828,4.77-2.484s1.582-4.266,1.629-7.828v-7.102Z" fill="#c9d1d9"/>
    </g>
  </g>
  <g isolation="isolate">
    <g isolation="isolate">
      <path d="m1229.122,877.351h1.89c1.187-.018,2.12-.33,2.8-.938s1.02-1.428,1.02-2.461c0-2.319-1.155-3.479-3.466-3.479-1.088,0-1.956.311-2.604.931-.648.621-.972,1.443-.972,2.468h-2.516c0-1.567.573-2.87,1.72-3.908s2.604-1.557,4.371-1.557c1.866,0,3.33.494,4.391,1.481,1.061.988,1.59,2.361,1.59,4.119,0,.861-.278,1.695-.836,2.501-.557.807-1.316,1.41-2.276,1.809,1.087.345,1.928.915,2.521,1.713.594.797.891,1.771.891,2.922,0,1.776-.58,3.187-1.74,4.229s-2.669,1.562-4.526,1.562-3.369-.503-4.534-1.509c-1.164-1.006-1.747-2.333-1.747-3.982h2.529c0,1.042.34,1.876,1.02,2.501s1.59.938,2.732.938c1.214,0,2.143-.316,2.786-.951.644-.634.965-1.545.965-2.732,0-1.15-.353-2.034-1.06-2.65s-1.727-.934-3.059-.952h-1.89v-2.053Z" fill="#c9d1d9"/>
    </g>
  </g>
  <g isolation="isolate">
    <g isolation="isolate">
      <path d="m133.854,189.135c0,5.078-.867,8.852-2.602,11.32s-4.445,3.703-8.133,3.703c-3.641,0-6.336-1.207-8.086-3.621s-2.656-6.02-2.719-10.816v-5.789c0-5.016.867-8.742,2.602-11.18s4.453-3.656,8.156-3.656c3.672,0,6.375,1.176,8.109,3.527s2.625,5.98,2.672,10.887v5.625Zm-4.336-5.93c0-3.672-.516-6.348-1.547-8.027s-2.664-2.52-4.898-2.52c-2.219,0-3.836.836-4.852,2.508s-1.539,4.242-1.57,7.711v6.938c0,3.688.535,6.41,1.605,8.168s2.691,2.637,4.863,2.637c2.141,0,3.73-.828,4.77-2.484s1.582-4.266,1.629-7.828v-7.102Z" fill="#c9d1d9"/>
    </g>
  </g>
  <g isolation="isolate">
    <g isolation="isolate">
      <path d="m99.756,41.69h-4.359V12.792l-8.742,3.211v-3.938l12.422-4.664h.68v34.289Z" fill="#c9d1d9"/>
      <path d="m133.857,27.135c0,5.078-.867,8.852-2.602,11.32s-4.445,3.703-8.133,3.703c-3.641,0-6.336-1.207-8.086-3.621s-2.656-6.02-2.719-10.816v-5.789c0-5.016.867-8.742,2.602-11.18s4.453-3.656,8.156-3.656c3.672,0,6.375,1.176,8.109,3.527s2.625,5.98,2.672,10.887v5.625Zm-4.336-5.93c0-3.672-.516-6.348-1.547-8.027s-2.664-2.52-4.898-2.52c-2.219,0-3.836.836-4.852,2.508s-1.539,4.242-1.57,7.711v6.938c0,3.688.535,6.41,1.605,8.168s2.691,2.637,4.863,2.637c2.141,0,3.73-.828,4.77-2.484s1.582-4.266,1.629-7.828v-7.102Z" fill="#c9d1d9"/>
    </g>
  </g>
  <line x1="318.08" y1="27.66" x2="318.08" y2="837.66" fill="none" stroke="#7f7f7f" stroke-miterlimit="10" stroke-width="2.83"/>
  <line x1="409.29" y1="27.66" x2="409.29" y2="837.66" fill="none" stroke="#7f7f7f" stroke-miterlimit="10" stroke-width="2.83"/>
  <line x1="474.44" y1="27.66" x2="474.44" y2="837.66" fill="none" stroke="#7f7f7f" stroke-miterlimit="10" stroke-width="2.83"/>
  <line x1="523.96" y1="27.66" x2="523.96" y2="837.66" fill="none" stroke="#7f7f7f" stroke-miterlimit="10" stroke-width="2.83"/>
  <line x1="565.65" y1="27.66" x2="565.65" y2="837.66" fill="none" stroke="#7f7f7f" stroke-miterlimit="10" stroke-width="2.83"/>
  <line x1="602.14" y1="27.66" x2="602.14" y2="837.66" fill="none" stroke="#7f7f7f" stroke-miterlimit="10" stroke-width="2.83"/>
  <line x1="630.8" y1="27.66" x2="630.8" y2="837.66" fill="none" stroke="#7f7f7f" stroke-miterlimit="10" stroke-width="2.83"/>
  <line x1="656.86" y1="27.66" x2="656.86" y2="837.66" fill="none" stroke="#7f7f7f" stroke-miterlimit="10" stroke-width="2.83"/>
  <line x1="683.53" y1="27.66" x2="683.53" y2="837.66" fill="none" stroke="#7f7f7f" stroke-miterlimit="10" stroke-width="2.83"/>
  <line x1="839.28" y1="27.66" x2="839.28" y2="837.66" fill="none" stroke="#7f7f7f" stroke-miterlimit="10" stroke-width="2.83"/>
  <line x1="930.49" y1="27.66" x2="930.49" y2="837.66" fill="none" stroke="#7f7f7f" stroke-miterlimit="10" stroke-width="2.83"/>
  <line x1="995.64" y1="27.66" x2="995.64" y2="837.66" fill="none" stroke="#7f7f7f" stroke-miterlimit="10" stroke-width="2.83"/>
  <line x1="1045.16" y1="27.66" x2="1045.16" y2="837.66" fill="none" stroke="#7f7f7f" stroke-miterlimit="10" stroke-width="2.83"/>
  <line x1="1086.85" y1="27.66" x2="1086.85" y2="837.66" fill="none" stroke="#7f7f7f" stroke-miterlimit="10" stroke-width="2.83"/>
  <line x1="1123.34" y1="27.66" x2="1123.34" y2="837.66" fill="none" stroke="#7f7f7f" stroke-miterlimit="10" stroke-width="2.83"/>
  <line x1="1152" y1="27.66" x2="1152" y2="837.66" fill="none" stroke="#7f7f7f" stroke-miterlimit="10" stroke-width="2.83"/>
  <line x1="1178.06" y1="27.66" x2="1178.06" y2="60.04" fill="none" stroke="#7f7f7f" stroke-miterlimit="10" stroke-width="2.83"/>
  <line x1="1204.72" y1="27.66" x2="1204.72" y2="60.04" fill="none" stroke="#7f7f7f" stroke-miterlimit="10" stroke-width="2.83"/>
  <line x1="161.72" y1="27.66" x2="161.72" y2="837.66" fill="none" stroke="#7f7f7f" stroke-miterlimit="10" stroke-width=".82"/>
  <line x1="1361.08" y1="27.68" x2="1361.08" y2="60.06" fill="none" stroke="#7f7f7f" stroke-miterlimit="10" stroke-width="2.83"/>
  <line x1="1452.29" y1="27.68" x2="1452.29" y2="60.06" fill="none" stroke="#7f7f7f" stroke-miterlimit="10" stroke-width="2.83"/>
  <line x1="1517.44" y1="27.68" x2="1517.44" y2="60.06" fill="none" stroke="#7f7f7f" stroke-miterlimit="10" stroke-width="2.83"/>
  <line x1="1566.96" y1="27.68" x2="1566.96" y2="60.06" fill="none" stroke="#7f7f7f" stroke-miterlimit="10" stroke-width="2.83"/>
  <line x1="1608.65" y1="27.68" x2="1608.65" y2="60.06" fill="none" stroke="#7f7f7f" stroke-miterlimit="10" stroke-width="2.83"/>
  <line x1="1645.14" y1="27.68" x2="1645.14" y2="60.06" fill="none" stroke="#7f7f7f" stroke-miterlimit="10" stroke-width="2.83"/>
  <line x1="1673.8" y1="27.68" x2="1673.8" y2="60.06" fill="none" stroke="#7f7f7f" stroke-miterlimit="10" stroke-width="2.83"/>
  <line x1="1699.86" y1="28.08" x2="1699.86" y2="838.08" fill="none" stroke="#7f7f7f" stroke-miterlimit="10" stroke-width="2.83"/>
  <line x1="1726.52" y1="28.08" x2="1726.52" y2="838.08" fill="none" stroke="#7f7f7f" stroke-miterlimit="10" stroke-width=".82"/>
  <g isolation="isolate">
    <g isolation="isolate">
      <path d="m81.725,676.964h-11.438v-3.539h11.438v3.539Z" fill="#c9d1d9"/>
      <path d="m91.803,670.519h3.258c2.047-.031,3.656-.57,4.828-1.617s1.758-2.461,1.758-4.242c0-4-1.992-6-5.977-6-1.875,0-3.371.535-4.488,1.605s-1.676,2.488-1.676,4.254h-4.336c0-2.703.988-4.949,2.965-6.738s4.488-2.684,7.535-2.684c3.219,0,5.742.852,7.57,2.555s2.742,4.07,2.742,7.102c0,1.484-.48,2.922-1.441,4.312s-2.27,2.43-3.926,3.117c1.875.594,3.324,1.578,4.348,2.953s1.535,3.055,1.535,5.039c0,3.062-1,5.492-3,7.289s-4.602,2.695-7.805,2.695-5.809-.867-7.816-2.602-3.012-4.023-3.012-6.867h4.359c0,1.797.586,3.234,1.758,4.312s2.742,1.617,4.711,1.617c2.094,0,3.695-.547,4.805-1.641s1.664-2.664,1.664-4.711c0-1.984-.609-3.508-1.828-4.57s-2.977-1.609-5.273-1.641h-3.258v-3.539Z" fill="#c9d1d9"/>
      <path d="m133.85,675.136c0,5.078-.867,8.852-2.602,11.32s-4.445,3.703-8.133,3.703c-3.641,0-6.336-1.207-8.086-3.621s-2.656-6.02-2.719-10.816v-5.789c0-5.016.867-8.742,2.602-11.18s4.453-3.656,8.156-3.656c3.672,0,6.375,1.176,8.109,3.527s2.625,5.98,2.672,10.887v5.625Zm-4.336-5.93c0-3.672-.516-6.348-1.547-8.027s-2.664-2.52-4.898-2.52c-2.219,0-3.836.836-4.852,2.508s-1.539,4.242-1.57,7.711v6.938c0,3.688.535,6.41,1.605,8.168s2.691,2.637,4.863,2.637c2.141,0,3.73-.828,4.77-2.484s1.582-4.266,1.629-7.828v-7.102Z" fill="#c9d1d9"/>
    </g>
  </g>
  <g isolation="isolate">
    <g isolation="isolate">
      <path d="m81.725,352.963h-11.438v-3.539h11.438v3.539Z" fill="#c9d1d9"/>
      <path d="m99.748,365.69h-4.359v-28.898l-8.742,3.211v-3.938l12.422-4.664h.68v34.289Z" fill="#c9d1d9"/>
      <path d="m133.85,351.135c0,5.078-.867,8.852-2.602,11.32s-4.445,3.703-8.133,3.703c-3.641,0-6.336-1.207-8.086-3.621s-2.656-6.02-2.719-10.816v-5.789c0-5.016.867-8.742,2.602-11.18s4.453-3.656,8.156-3.656c3.672,0,6.375,1.176,8.109,3.527s2.625,5.98,2.672,10.887v5.625Zm-4.336-5.93c0-3.672-.516-6.348-1.547-8.027s-2.664-2.52-4.898-2.52c-2.219,0-3.836.836-4.852,2.508s-1.539,4.242-1.57,7.711v6.938c0,3.688.535,6.41,1.605,8.168s2.691,2.637,4.863,2.637c2.141,0,3.73-.828,4.77-2.484s1.582-4.266,1.629-7.828v-7.102Z" fill="#c9d1d9"/>
    </g>
  </g>
  <line x1="1178.06" y1="297.66" x2="1178.06" y2="837.8" fill="none" stroke="#7f7f7f" stroke-miterlimit="10" stroke-width="2.83"/>
  <line x1="1204.72" y1="297.66" x2="1204.72" y2="837.8" fill="none" stroke="#7f7f7f" stroke-miterlimit="10" stroke-width="2.83"/>
  <line x1="1361.08" y1="297.94" x2="1361.08" y2="838.08" fill="none" stroke="#7f7f7f" stroke-miterlimit="10" stroke-width="2.83"/>
  <line x1="1452.29" y1="297.94" x2="1452.29" y2="838.08" fill="none" stroke="#7f7f7f" stroke-miterlimit="10" stroke-width="2.83"/>
  <line x1="1517.44" y1="297.94" x2="1517.44" y2="838.08" fill="none" stroke="#7f7f7f" stroke-miterlimit="10" stroke-width="2.83"/>
  <line x1="1566.96" y1="297.94" x2="1566.96" y2="838.08" fill="none" stroke="#7f7f7f" stroke-miterlimit="10" stroke-width="2.83"/>
  <line x1="1608.65" y1="297.94" x2="1608.65" y2="838.08" fill="none" stroke="#7f7f7f" stroke-miterlimit="10" stroke-width="2.83"/>
  <line x1="1645.14" y1="297.94" x2="1645.14" y2="838.08" fill="none" stroke="#7f7f7f" stroke-miterlimit="10" stroke-width="2.83"/>
  <line x1="1673.8" y1="297.94" x2="1673.8" y2="838.08" fill="none" stroke="#7f7f7f" stroke-miterlimit="10" stroke-width="2.83"/>
  <line x1="1688.17" y1="189.66" x2="1726.52" y2="189.66" fill="none" stroke="#7f7f7f" stroke-miterlimit="10" stroke-width="2.83"/>
  <g isolation="isolate">
    <g isolation="isolate">
      <path d="m1708.796,904.45h-4.359v-28.898l-8.742,3.211v-3.938l12.422-4.664h.68v34.289Z" fill="#c9d1d9"/>
      <path d="m1742.897,889.896c0,5.078-.867,8.852-2.602,11.32s-4.445,3.703-8.133,3.703c-3.641,0-6.336-1.207-8.086-3.621s-2.656-6.02-2.719-10.816v-5.789c0-5.016.867-8.742,2.602-11.18s4.453-3.656,8.156-3.656c3.672,0,6.375,1.176,8.109,3.527s2.625,5.98,2.672,10.887v5.625Zm-4.336-5.93c0-3.672-.516-6.348-1.547-8.027s-2.664-2.52-4.898-2.52c-2.219,0-3.836.836-4.852,2.508s-1.539,4.242-1.57,7.711v6.938c0,3.688.535,6.41,1.605,8.168s2.691,2.637,4.863,2.637c2.141,0,3.73-.828,4.77-2.484s1.582-4.266,1.629-7.828v-7.102Z" fill="#c9d1d9"/>
    </g>
  </g>
  <g isolation="isolate">
    <g isolation="isolate">
      <path d="m1757.881,881.823h2.746v2.053h-2.746v4.595h-2.528v-4.595h-9.013v-1.481l8.863-13.717h2.678v13.146Zm-8.687,0h6.158v-9.706l-.3.544-5.858,9.162Z" fill="#c9d1d9"/>
    </g>
  </g>
  <g id="Text">
    <g isolation="isolate">
      <g isolation="isolate">
        <path d="m1406.941,83.512v3.68h-.797c-3.375.062-6.062,1.062-8.062,3s-3.156,4.664-3.469,8.18c1.797-2.062,4.25-3.094,7.359-3.094,2.969,0,5.34,1.047,7.113,3.141s2.66,4.797,2.66,8.109c0,3.516-.957,6.328-2.871,8.438s-4.48,3.164-7.699,3.164c-3.266,0-5.914-1.254-7.945-3.762s-3.047-5.738-3.047-9.691v-1.664c0-6.281,1.34-11.082,4.02-14.402s6.668-5.02,11.965-5.098h.773Zm-5.695,15.375c-1.484,0-2.852.445-4.102,1.336s-2.117,2.008-2.602,3.352v1.594c0,2.812.633,5.078,1.898,6.797s2.844,2.578,4.734,2.578c1.953,0,3.488-.719,4.605-2.156s1.676-3.32,1.676-5.648c0-2.344-.566-4.238-1.699-5.684s-2.637-2.168-4.512-2.168Z" fill="#c9d1d9"/>
        <path d="m1428.152,104.77c0-3.891.922-7.02,2.766-9.387s4.258-3.551,7.242-3.551c2.969,0,5.32,1.016,7.055,3.047v-13.219h4.336v36h-3.984l-.211-2.719c-1.734,2.125-4.148,3.188-7.242,3.188-2.938,0-5.332-1.203-7.184-3.609s-2.777-5.547-2.777-9.422v-.328Zm4.336.492c0,2.875.594,5.125,1.781,6.75s2.828,2.438,4.922,2.438c2.75,0,4.758-1.234,6.023-3.703v-11.648c-1.297-2.391-3.289-3.586-5.977-3.586-2.125,0-3.781.82-4.969,2.461s-1.781,4.07-1.781,7.289Z" fill="#c9d1d9"/>
        <path d="m1456.957,117.66v-34.125h11.156c3.703,0,6.488.766,8.355,2.297s2.801,3.797,2.801,6.797c0,1.594-.453,3.004-1.359,4.23s-2.141,2.176-3.703,2.848c1.844.516,3.301,1.496,4.371,2.941s1.605,3.168,1.605,5.168c0,3.062-.992,5.469-2.977,7.219s-4.789,2.625-8.414,2.625h-11.836Zm4.5-19.57h6.797c1.969,0,3.543-.493,4.723-1.479s1.77-2.325,1.77-4.017c0-1.879-.547-3.245-1.641-4.099s-2.758-1.28-4.992-1.28h-6.656v10.875Zm0,3.609v12.281h7.43c2.094,0,3.746-.543,4.957-1.629s1.816-2.582,1.816-4.488c0-4.109-2.234-6.164-6.703-6.164h-7.5Z" fill="#c9d1d9"/>
        <path d="m1487.027,120.59h-3.727l14.25-37.055h3.703l-14.227,37.055Z" fill="#c9d1d9"/>
        <path d="m1504.793,104.746c0-2.484.488-4.719,1.465-6.703s2.336-3.516,4.078-4.594,3.73-1.617,5.965-1.617c3.453,0,6.246,1.195,8.379,3.586s3.199,5.57,3.199,9.539v.305c0,2.469-.473,4.684-1.418,6.645s-2.297,3.488-4.055,4.582-3.777,1.641-6.059,1.641c-3.438,0-6.223-1.195-8.355-3.586s-3.199-5.555-3.199-9.492v-.305Zm4.359.516c0,2.812.652,5.07,1.957,6.773s3.051,2.555,5.238,2.555c2.203,0,3.953-.863,5.25-2.59s1.945-4.145,1.945-7.254c0-2.781-.66-5.035-1.98-6.762s-3.074-2.59-5.262-2.59c-2.141,0-3.867.852-5.18,2.555s-1.969,4.141-1.969,7.312Z" fill="#c9d1d9"/>
        <path d="m1543.488,114.59c1.547,0,2.898-.469,4.055-1.406s1.797-2.109,1.922-3.516h4.102c-.078,1.453-.578,2.836-1.5,4.148s-2.152,2.359-3.691,3.141-3.168,1.172-4.887,1.172c-3.453,0-6.199-1.152-8.238-3.457s-3.059-5.457-3.059-9.457v-.727c0-2.469.453-4.664,1.359-6.586s2.207-3.414,3.902-4.477,3.699-1.594,6.012-1.594c2.844,0,5.207.852,7.09,2.555s2.887,3.914,3.012,6.633h-4.102c-.125-1.641-.746-2.988-1.863-4.043s-2.496-1.582-4.137-1.582c-2.203,0-3.91.793-5.121,2.379s-1.816,3.879-1.816,6.879v.82c0,2.922.602,5.172,1.805,6.75s2.922,2.367,5.156,2.367Z" fill="#c9d1d9"/>
        <path d="m1564.324,86.16v6.141h4.734v3.352h-4.734v15.746c0,1.018.211,1.78.633,2.288.422.509,1.141.763,2.156.763.5,0,1.188-.094,2.062-.281v3.495c-1.141.311-2.25.466-3.328.466-1.938,0-3.398-.586-4.383-1.758s-1.477-2.836-1.477-4.992v-15.727h-4.617v-3.352h4.617v-6.141h4.336Z" fill="#c9d1d9"/>
      </g>
      <g isolation="isolate">
        <path d="m1589.777,117.66c-.25-.5-.453-1.391-.609-2.672-2.016,2.094-4.422,3.141-7.219,3.141-2.5,0-4.551-.707-6.152-2.121s-2.402-3.207-2.402-5.379c0-2.641,1.004-4.691,3.012-6.152s4.832-2.191,8.473-2.191h4.219v-1.992c0-1.516-.453-2.723-1.359-3.621s-2.242-1.348-4.008-1.348c-1.547,0-2.844.391-3.891,1.172s-1.57,1.727-1.57,2.836h-4.359c0-1.266.449-2.488,1.348-3.668s2.117-2.113,3.656-2.801,3.23-1.031,5.074-1.031c2.922,0,5.211.73,6.867,2.191s2.516,3.473,2.578,6.035v11.672c0,2.328.297,4.18.891,5.555v.375h-4.547Zm-7.195-3.305c1.359,0,2.648-.352,3.867-1.055s2.102-1.617,2.648-2.742v-5.203h-3.398c-5.312,0-7.969,1.555-7.969,4.664,0,1.359.453,2.422,1.359,3.188s2.07,1.148,3.492,1.148Z" fill="#c9d1d9"/>
      </g>
      <g isolation="isolate">
        <path d="m1608.248,111.777l6.281-19.477h4.43l-9.094,25.359h-3.305l-9.188-25.359h4.43l6.445,19.477Z" fill="#c9d1d9"/>
      </g>
      <g isolation="isolate">
        <path d="m1633.345,118.129c-3.438,0-6.234-1.129-8.391-3.387s-3.234-5.277-3.234-9.059v-.797c0-2.516.48-4.762,1.441-6.738s2.305-3.523,4.031-4.641,3.598-1.676,5.613-1.676c3.297,0,5.859,1.086,7.688,3.258s2.742,5.281,2.742,9.328v1.805h-17.18c.062,2.5.793,4.52,2.191,6.059s3.176,2.309,5.332,2.309c1.531,0,2.828-.312,3.891-.938s1.992-1.453,2.789-2.484l2.648,2.062c-2.125,3.266-5.312,4.898-9.562,4.898Zm-.539-22.734c-1.75,0-3.219.637-4.406,1.91s-1.922,3.059-2.203,5.355h12.703v-.328c-.125-2.203-.719-3.91-1.781-5.121s-2.5-1.816-4.312-1.816Z" fill="#c9d1d9"/>
      </g>
    </g>
    <g isolation="isolate">
      <g isolation="isolate">
        <path d="m1377.226,189.66h-4.359v-28.898l-8.742,3.211v-3.938l12.422-4.664h.68v34.289Z" fill="#c9d1d9"/>
        <path d="m1412.288,189.66h-22.359v-3.117l11.812-13.125c1.75-1.984,2.957-3.598,3.621-4.84s.996-2.527.996-3.855c0-1.781-.539-3.242-1.617-4.383s-2.516-1.711-4.312-1.711c-2.156,0-3.832.613-5.027,1.84s-1.793,2.934-1.793,5.121h-4.336c0-3.141,1.012-5.68,3.035-7.617s4.73-2.906,8.121-2.906c3.172,0,5.68.832,7.523,2.496s2.766,3.879,2.766,6.645c0,3.359-2.141,7.359-6.422,12l-9.141,9.914h17.133v3.539Z" fill="#c9d1d9"/>
        <path d="m1428.155,176.77c0-3.891.922-7.02,2.766-9.387s4.258-3.551,7.242-3.551c2.969,0,5.32,1.016,7.055,3.047v-13.219h4.336v36h-3.984l-.211-2.719c-1.734,2.125-4.148,3.188-7.242,3.188-2.938,0-5.332-1.203-7.184-3.609s-2.777-5.547-2.777-9.422v-.328Zm4.336.492c0,2.875.594,5.125,1.781,6.75s2.828,2.438,4.922,2.438c2.75,0,4.758-1.234,6.023-3.703v-11.648c-1.297-2.391-3.289-3.586-5.977-3.586-2.125,0-3.781.82-4.969,2.461s-1.781,4.07-1.781,7.289Z" fill="#c9d1d9"/>
        <path d="m1456.96,189.66v-34.125h11.156c3.703,0,6.488.766,8.355,2.297s2.801,3.797,2.801,6.797c0,1.594-.453,3.004-1.359,4.23s-2.141,2.176-3.703,2.848c1.844.516,3.301,1.496,4.371,2.941s1.605,3.168,1.605,5.168c0,3.062-.992,5.469-2.977,7.219s-4.789,2.625-8.414,2.625h-11.836Zm4.5-19.57h6.797c1.969,0,3.543-.493,4.723-1.479s1.77-2.325,1.77-4.017c0-1.879-.547-3.245-1.641-4.099s-2.758-1.28-4.992-1.28h-6.656v10.875Zm0,3.609v12.281h7.43c2.094,0,3.746-.543,4.957-1.629s1.816-2.582,1.816-4.488c0-4.109-2.234-6.164-6.703-6.164h-7.5Z" fill="#c9d1d9"/>
        <path d="m1487.03,192.59h-3.727l14.25-37.055h3.703l-14.227,37.055Z" fill="#c9d1d9"/>
        <path d="m1504.796,176.746c0-2.484.488-4.719,1.465-6.703s2.336-3.516,4.078-4.594,3.73-1.617,5.965-1.617c3.453,0,6.246,1.195,8.379,3.586s3.199,5.57,3.199,9.539v.305c0,2.469-.473,4.684-1.418,6.645s-2.297,3.488-4.055,4.582-3.777,1.641-6.059,1.641c-3.438,0-6.223-1.195-8.355-3.586s-3.199-5.555-3.199-9.492v-.305Zm4.359.516c0,2.812.652,5.07,1.957,6.773s3.051,2.555,5.238,2.555c2.203,0,3.953-.863,5.25-2.59s1.945-4.145,1.945-7.254c0-2.781-.66-5.035-1.98-6.762s-3.074-2.59-5.262-2.59c-2.141,0-3.867.852-5.18,2.555s-1.969,4.141-1.969,7.312Z" fill="#c9d1d9"/>
        <path d="m1543.491,186.59c1.547,0,2.898-.469,4.055-1.406s1.797-2.109,1.922-3.516h4.102c-.078,1.453-.578,2.836-1.5,4.148s-2.152,2.359-3.691,3.141-3.168,1.172-4.887,1.172c-3.453,0-6.199-1.152-8.238-3.457s-3.059-5.457-3.059-9.457v-.727c0-2.469.453-4.664,1.359-6.586s2.207-3.414,3.902-4.477,3.699-1.594,6.012-1.594c2.844,0,5.207.852,7.09,2.555s2.887,3.914,3.012,6.633h-4.102c-.125-1.641-.746-2.988-1.863-4.043s-2.496-1.582-4.137-1.582c-2.203,0-3.91.793-5.121,2.379s-1.816,3.879-1.816,6.879v.82c0,2.922.602,5.172,1.805,6.75s2.922,2.367,5.156,2.367Z" fill="#c9d1d9"/>
        <path d="m1564.327,158.16v6.141h4.734v3.352h-4.734v15.746c0,1.018.211,1.78.633,2.288.422.509,1.141.763,2.156.763.5,0,1.188-.094,2.062-.281v3.495c-1.141.311-2.25.466-3.328.466-1.938,0-3.398-.586-4.383-1.758s-1.477-2.836-1.477-4.992v-15.727h-4.617v-3.352h4.617v-6.141h4.336Z" fill="#c9d1d9"/>
      </g>
      <g isolation="isolate">
        <path d="m1589.777,189.66c-.25-.5-.453-1.391-.609-2.672-2.016,2.094-4.422,3.141-7.219,3.141-2.5,0-4.551-.707-6.152-2.121s-2.402-3.207-2.402-5.379c0-2.641,1.004-4.691,3.012-6.152s4.832-2.191,8.473-2.191h4.219v-1.992c0-1.516-.453-2.723-1.359-3.621s-2.242-1.348-4.008-1.348c-1.547,0-2.844.391-3.891,1.172s-1.57,1.727-1.57,2.836h-4.359c0-1.266.449-2.488,1.348-3.668s2.117-2.113,3.656-2.801,3.23-1.031,5.074-1.031c2.922,0,5.211.73,6.867,2.191s2.516,3.473,2.578,6.035v11.672c0,2.328.297,4.18.891,5.555v.375h-4.547Zm-7.195-3.305c1.359,0,2.648-.352,3.867-1.055s2.102-1.617,2.648-2.742v-5.203h-3.398c-5.312,0-7.969,1.555-7.969,4.664,0,1.359.453,2.422,1.359,3.188s2.07,1.148,3.492,1.148Z" fill="#c9d1d9"/>
      </g>
      <g isolation="isolate">
        <path d="m1608.248,183.777l6.281-19.477h4.43l-9.094,25.359h-3.305l-9.188-25.359h4.43l6.445,19.477Z" fill="#c9d1d9"/>
      </g>
      <g isolation="isolate">
        <path d="m1633.354,190.129c-3.438,0-6.234-1.129-8.391-3.387s-3.234-5.277-3.234-9.059v-.797c0-2.516.48-4.762,1.441-6.738s2.305-3.523,4.031-4.641,3.598-1.676,5.613-1.676c3.297,0,5.859,1.086,7.688,3.258s2.742,5.281,2.742,9.328v1.805h-17.18c.062,2.5.793,4.52,2.191,6.059s3.176,2.309,5.332,2.309c1.531,0,2.828-.312,3.891-.938s1.992-1.453,2.789-2.484l2.648,2.062c-2.125,3.266-5.312,4.898-9.562,4.898Zm-.539-22.734c-1.75,0-3.219.637-4.406,1.91s-1.922,3.059-2.203,5.355h12.703v-.328c-.125-2.203-.719-3.91-1.781-5.121s-2.5-1.816-4.312-1.816Z" fill="#c9d1d9"/>
      </g>
    </g>
    <g isolation="isolate">
      <g isolation="isolate">
        <path d="m1385.335,261.66h-22.359v-3.117l11.812-13.125c1.75-1.984,2.957-3.598,3.621-4.84s.996-2.527.996-3.855c0-1.781-.539-3.242-1.617-4.383s-2.516-1.711-4.312-1.711c-2.156,0-3.832.613-5.027,1.84s-1.793,2.934-1.793,5.121h-4.336c0-3.141,1.012-5.68,3.035-7.617s4.73-2.906,8.121-2.906c3.172,0,5.68.832,7.523,2.496s2.766,3.879,2.766,6.645c0,3.359-2.141,7.359-6.422,12l-9.141,9.914h17.133v3.539Z" fill="#c9d1d9"/>
        <path d="m1408.233,250.199h4.734v3.539h-4.734v7.922h-4.359v-7.922h-15.539v-2.555l15.281-23.648h4.617v22.664Zm-14.977,0h10.617v-16.734l-.516.938-10.102,15.797Z" fill="#c9d1d9"/>
        <path d="m1428.155,248.77c0-3.891.922-7.02,2.766-9.387s4.258-3.551,7.242-3.551c2.969,0,5.32,1.016,7.055,3.047v-13.219h4.336v36h-3.984l-.211-2.719c-1.734,2.125-4.148,3.188-7.242,3.188-2.938,0-5.332-1.203-7.184-3.609s-2.777-5.547-2.777-9.422v-.328Zm4.336.492c0,2.875.594,5.125,1.781,6.75s2.828,2.438,4.922,2.438c2.75,0,4.758-1.234,6.023-3.703v-11.648c-1.297-2.391-3.289-3.586-5.977-3.586-2.125,0-3.781.82-4.969,2.461s-1.781,4.07-1.781,7.289Z" fill="#c9d1d9"/>
        <path d="m1456.96,261.66v-34.125h11.156c3.703,0,6.488.766,8.355,2.297s2.801,3.797,2.801,6.797c0,1.594-.453,3.004-1.359,4.23s-2.141,2.176-3.703,2.848c1.844.516,3.301,1.496,4.371,2.941s1.605,3.168,1.605,5.168c0,3.062-.992,5.469-2.977,7.219s-4.789,2.625-8.414,2.625h-11.836Zm4.5-19.57h6.797c1.969,0,3.543-.493,4.723-1.479s1.77-2.325,1.77-4.017c0-1.879-.547-3.245-1.641-4.099s-2.758-1.28-4.992-1.28h-6.656v10.875Zm0,3.609v12.281h7.43c2.094,0,3.746-.543,4.957-1.629s1.816-2.582,1.816-4.488c0-4.109-2.234-6.164-6.703-6.164h-7.5Z" fill="#c9d1d9"/>
        <path d="m1487.03,264.59h-3.727l14.25-37.055h3.703l-14.227,37.055Z" fill="#c9d1d9"/>
        <path d="m1504.796,248.746c0-2.484.488-4.719,1.465-6.703s2.336-3.516,4.078-4.594,3.73-1.617,5.965-1.617c3.453,0,6.246,1.195,8.379,3.586s3.199,5.57,3.199,9.539v.305c0,2.469-.473,4.684-1.418,6.645s-2.297,3.488-4.055,4.582-3.777,1.641-6.059,1.641c-3.438,0-6.223-1.195-8.355-3.586s-3.199-5.555-3.199-9.492v-.305Zm4.359.516c0,2.812.652,5.07,1.957,6.773s3.051,2.555,5.238,2.555c2.203,0,3.953-.863,5.25-2.59s1.945-4.145,1.945-7.254c0-2.781-.66-5.035-1.98-6.762s-3.074-2.59-5.262-2.59c-2.141,0-3.867.852-5.18,2.555s-1.969,4.141-1.969,7.312Z" fill="#c9d1d9"/>
        <path d="m1543.491,258.59c1.547,0,2.898-.469,4.055-1.406s1.797-2.109,1.922-3.516h4.102c-.078,1.453-.578,2.836-1.5,4.148s-2.152,2.359-3.691,3.141-3.168,1.172-4.887,1.172c-3.453,0-6.199-1.152-8.238-3.457s-3.059-5.457-3.059-9.457v-.727c0-2.469.453-4.664,1.359-6.586s2.207-3.414,3.902-4.477,3.699-1.594,6.012-1.594c2.844,0,5.207.852,7.09,2.555s2.887,3.914,3.012,6.633h-4.102c-.125-1.641-.746-2.988-1.863-4.043s-2.496-1.582-4.137-1.582c-2.203,0-3.91.793-5.121,2.379s-1.816,3.879-1.816,6.879v.82c0,2.922.602,5.172,1.805,6.75s2.922,2.367,5.156,2.367Z" fill="#c9d1d9"/>
        <path d="m1564.327,230.16v6.141h4.734v3.352h-4.734v15.746c0,1.018.211,1.78.633,2.288.422.509,1.141.763,2.156.763.5,0,1.188-.094,2.062-.281v3.495c-1.141.311-2.25.466-3.328.466-1.938,0-3.398-.586-4.383-1.758s-1.477-2.836-1.477-4.992v-15.727h-4.617v-3.352h4.617v-6.141h4.336Z" fill="#c9d1d9"/>
      </g>
      <g isolation="isolate">
        <path d="m1589.777,261.66c-.25-.5-.453-1.391-.609-2.672-2.016,2.094-4.422,3.141-7.219,3.141-2.5,0-4.551-.707-6.152-2.121s-2.402-3.207-2.402-5.379c0-2.641,1.004-4.691,3.012-6.152s4.832-2.191,8.473-2.191h4.219v-1.992c0-1.516-.453-2.723-1.359-3.621s-2.242-1.348-4.008-1.348c-1.547,0-2.844.391-3.891,1.172s-1.57,1.727-1.57,2.836h-4.359c0-1.266.449-2.488,1.348-3.668s2.117-2.113,3.656-2.801,3.23-1.031,5.074-1.031c2.922,0,5.211.73,6.867,2.191s2.516,3.473,2.578,6.035v11.672c0,2.328.297,4.18.891,5.555v.375h-4.547Zm-7.195-3.305c1.359,0,2.648-.352,3.867-1.055s2.102-1.617,2.648-2.742v-5.203h-3.398c-5.312,0-7.969,1.555-7.969,4.664,0,1.359.453,2.422,1.359,3.188s2.07,1.148,3.492,1.148Z" fill="#c9d1d9"/>
      </g>
      <g isolation="isolate">
        <path d="m1608.248,255.777l6.281-19.477h4.43l-9.094,25.359h-3.305l-9.188-25.359h4.43l6.445,19.477Z" fill="#c9d1d9"/>
      </g>
      <g isolation="isolate">
        <path d="m1633.354,262.129c-3.438,0-6.234-1.129-8.391-3.387s-3.234-5.277-3.234-9.059v-.797c0-2.516.48-4.762,1.441-6.738s2.305-3.523,4.031-4.641,3.598-1.676,5.613-1.676c3.297,0,5.859,1.086,7.688,3.258s2.742,5.281,2.742,9.328v1.805h-17.18c.062,2.5.793,4.52,2.191,6.059s3.176,2.309,5.332,2.309c1.531,0,2.828-.312,3.891-.938s1.992-1.453,2.789-2.484l2.648,2.062c-2.125,3.266-5.312,4.898-9.562,4.898Zm-.539-22.734c-1.75,0-3.219.637-4.406,1.91s-1.922,3.059-2.203,5.355h12.703v-.328c-.125-2.203-.719-3.91-1.781-5.121s-2.5-1.816-4.312-1.816Z" fill="#c9d1d9"/>
      </g>
    </g>
    <line x1="1220.17" y1="103.63" x2="1335.37" y2="103.63" fill="none" stroke="#307eef" stroke-miterlimit="10" stroke-width="5.67"/>
    <line x1="1220.17" y1="175.63" x2="1335.37" y2="175.63" fill="none" stroke="#1da37d" stroke-miterlimit="10" stroke-width="5.67"/>
    <line x1="1220.17" y1="247.63" x2="1335.37" y2="247.63" fill="none" stroke="#d85648" stroke-miterlimit="10" stroke-width="5.67"/>
    <rect x="1173.37" y="60.06" width="514.8" height="237.6" fill="none" stroke="#7f7f7f" stroke-miterlimit="10" stroke-width="2.83"/>
  </g>
  <g id="Ebene_10" data-name="Ebene 10">
    <path d="m162.46,191.47l228.84,1.07,41.25,1.32,35.36,1.59,32.41,1.94,26.52,2.03,26.52,2.52,23.57,2.72,20.63,2.81,20.63,3.26,20.63,3.75,20.63,4.29,17.68,4.13,17.68,4.56,17.68,5.01,17.68,5.47,17.68,5.92,17.68,6.37,20.63,7.99,20.63,8.56,20.63,9.09,20.63,9.58,23.57,11.5,23.57,12.01,26.52,14.05,29.47,16.16,32.41,18.33,38.3,22.24,386.33,252.4,308.59,205.53" fill="none" stroke="#307eef" stroke-linecap="square" stroke-linejoin="round" stroke-width="5"/>
    <path d="m162.46,189.66l408.58.22,29.47.45,20.63.78,14.73,1.05,11.79,1.35,8.84,1.46,8.84,1.98,5.89,1.69,5.89,2.05,5.89,2.47,5.89,2.96,5.89,3.51,5.89,4.14,5.89,4.83,5.89,5.57,5.89,6.35,5.89,7.16,5.89,7.97,5.89,8.76,5.89,9.52,5.89,10.23,8.84,16.55,8.84,17.8,8.84,18.81,11.79,26.3,14.73,34.25,20.63,49.51,29.47,72.26,58.93,146.19,73.04,181.85h0" fill="none" stroke="#d85648" stroke-linecap="square" stroke-linejoin="round" stroke-width="5"/>
    <path d="m162.46,189.71l284.83.32,50.09.58,32.41.79,26.52,1.1,20.63,1.31,17.68,1.57,14.73,1.73,14.73,2.21,11.79,2.19,11.79,2.64,11.79,3.15,11.79,3.73,8.84,3.22,8.84,3.61,8.84,4.02,8.84,4.46,8.84,4.9,8.84,5.36,8.84,5.81,8.84,6.26,11.79,9.04,11.79,9.78,11.79,10.47,11.79,11.1,14.73,14.66,14.73,15.41,17.68,19.3,20.63,23.38,23.57,27.55,29.47,35.27,38.3,46.69,55.98,69.08,97.24,120.85,126.7,158.2,14.51,18.21" fill="none" stroke="#1da37d" stroke-linecap="square" stroke-linejoin="round" stroke-width="5"/>
  </g>
</svg>