<?xml version="1.0" encoding="UTF-8"?>
<svg xmlns="http://www.w3.org/2000/svg" viewBox="0 0 1551.6 799.2">
  <defs>
    <style>
      .cls-1 {
        stroke-dasharray: 0 0 11.82 11.82;
      }

      .cls-1, .cls-2, .cls-3 {
        stroke: #c9d1d9;
        stroke-width: 4px;
      }

      .cls-1, .cls-2, .cls-3, .cls-4 {
        fill: none;
        stroke-miterlimit: 10;
      }

      .cls-3 {
        stroke-dasharray: 0 0 12.29 12.29;
      }

      .cls-4 {
        stroke: #307eef;
        stroke-width: 8px;
      }

      .cls-5 {
        letter-spacing: 0em;
      }

      .cls-6 {
        letter-spacing: -.02em;
      }

      .cls-7 {
        fill: #c9d1d9;
        font-family: Roboto-Regular, Roboto;
        font-size: 48px;
      }
    </style>
  </defs>
  <g id="Ebene_1" data-name="Ebene 1">
    <path class="cls-4" d="m3.6,199.18h21.6c5.8-1.65,11.81-3.54,18-5.7,17.41-6.1,30.19-12.43,39.6-17.11,1.95-.97,9.13-4.75,23.48-12.3,10.2-5.36,16.05-8.48,24.82-12.42,5.36-2.41,11.77-5.11,20.27-7.58,1.21-.35,4.2-1.22,7.32-1.93,22.32-5.1,43.07-.36,44.58,0,5.35,1.28,9.24,2.75,15.96,5.28,8.6,3.24,14.9,6.3,18.4,8.03,17.5,8.69,37.06,20.39,47.02,26.47,8.26,5.04,17.86,11.05,32.38,15.84,2.69.89,5.12,1.68,8.59,2.45,4.4.98,19.7,4.22,36.18-.52,2.14-.61,3.96-1.3,7.6-2.68,3.13-1.18,9.91-3.84,18.11-8.03,1.45-.74,7.4-3.8,15.53-8.96,3.51-2.22,5.81-3.81,19.66-13.87,9.46-6.87,14-10.2,21.16-14.57,3.79-2.32,7.75-4.58,13.37-6.62,5.18-1.88,9.6-2.78,12.01-3.2,6.26-1.1,14.79-2.59,23.74.15,3.52,1.08,5.77,2.4,8.73,4.16,9.44,5.64,14.66,12.12,16.47,14.43,16.31,20.75,23.37,36.36,23.37,36.36,24.91,55.11,23.08,49.95,24.64,54.28,24.93,69.54,36.04,111.98,36.04,111.98,30.38,116.05,26.42,81.41,76.21,245.08,3.12,10.25,10.72,35.32,30.22,64.91,10.17,15.44,15.45,24.26,25.34,32.57,4.14,3.48,8.82,6.81,15.77,8.7,11,2.99,21.03.58,23.79-.11,2.64-.67,6.01-1.76,12.39-5.13,10.38-5.49,15.67-10.12,27.17-18.96,7.86-6.04,13.05-10.02,20.74-15.21,12.43-8.37,18.98-11.5,23.84-13.53,4.63-1.93,9.66-4,16.89-5.5,5.85-1.22,17.33-3.48,29.89-.33,4.3,1.08,7.33,2.44,12.34,4.94,18.17,9.07,31.53,17.68,32.47,18.29,24.39,15.82,24.08,17.18,35.85,23.35,0,0,10.89,5.71,26.61,10.86,3.95,1.3,6.61,2.02,9.85,2.57,9.28,1.55,17.18.55,21.68-.33,3.83-.75,6.89-1.74,10.93-3.27,14.7-5.57,25.44-11.88,26.8-12.68,16.15-9.58,15.27-10.71,33.51-22.08,9.74-6.08,18.51-11.07,29.56-15.95,7.15-3.16,10.89-4.78,16.75-6.13,4.39-1.01,17.38-3.86,32.19-.19,3.24.8,5.63,1.75,10.42,3.64,12.61,4.99,21.46,10.19,25.53,12.6,16.51,9.79,19.75,12.26,35.48,21.75,6.38,3.85,17.36,10.38,32.38,16.95,6.45,2.82,10.24,4.16,14.92,5.13,2.47.51,13.56,2.66,27.59,0,5.66-1.07,11.25-2.82,22.81-8.48,9.01-4.41,16.98-8.91,32.94-18.96,6.96-4.38,21.41-13.58,36.04-21.86,2.72-1.54,8.32-4.68,16.52-7.44,2.75-.93,7.52-2.52,13.89-3.57,14.27-2.36,25.85-.27,28.72.3,5.97,1.17,11.3,2.99,21.4,7.88,9.44,4.57,22.15,11.38,36.31,21.13"/>
  </g>
  <g id="Ebene_5" data-name="Ebene 5">
    <rect class="cls-2" x="3.6" y="0" width="1544.4" height="720"/>
    <line class="cls-2" x1="291.6" y1="223.2" x2="871.2" y2="223.2"/>
    <line class="cls-2" x1="291.6" y1="133.2" x2="871.2" y2="133.2"/>
    <line class="cls-2" x1="637.2" y1="648" x2="1216.8" y2="648"/>
    <g>
      <line class="cls-2" x1="554.4" y1="223.2" x2="554.4" y2="229.2"/>
      <line class="cls-1" x1="554.4" y1="241.02" x2="554.4" y2="708.09"/>
      <line class="cls-2" x1="554.4" y1="714" x2="554.4" y2="720"/>
    </g>
    <g>
      <line class="cls-2" x1="694.8" y1="450" x2="694.8" y2="456"/>
      <line class="cls-3" x1="694.8" y1="468.29" x2="694.8" y2="707.86"/>
      <line class="cls-2" x1="694.8" y1="714" x2="694.8" y2="720"/>
    </g>
    <text class="cls-7" transform="translate(878.4 190.8)"><tspan x="0" y="0">ripple</tspan></text>
    <text class="cls-7" transform="translate(666 392.4)"><tspan x="0" y="0">s</tspan><tspan class="cls-5" x="24.75" y="0">t</tspan><tspan x="39.96" y="0">opband attenuation</tspan></text>
    <text class="cls-7" transform="translate(174.43 795.6)"><tspan x="0" y="0">passband</tspan></text>
    <text class="cls-7" transform="translate(464.78 795.6)"><tspan x="0" y="0">t</tspan><tspan class="cls-6" x="15.68" y="0">r</tspan><tspan x="30.98" y="0">ansition band</tspan></text>
    <text class="cls-7" transform="translate(1020.97 795.6)"><tspan x="0" y="0">s</tspan><tspan class="cls-5" x="24.75" y="0">t</tspan><tspan x="39.96" y="0">opband</tspan></text>
  </g>
</svg>