<?xml version="1.0" encoding="utf-8"?>
<!-- Generator: Adobe Illustrator 27.4.1, SVG Export Plug-In . SVG Version: 6.00 Build 0)  -->
<svg version="1.1" id="Ebene_1" xmlns="http://www.w3.org/2000/svg" xmlns:xlink="http://www.w3.org/1999/xlink" x="0px" y="0px"
	 viewBox="0 0 1850.4 651.6" style="enable-background:new 0 0 1850.4 651.6;" xml:space="preserve">
<style type="text/css">
	.st0{fill:none;stroke:#C9D1D9;stroke-width:5.67;stroke-linecap:round;stroke-linejoin:round;}
	.st1{fill:#C9D1D9;}
	.st2{fill:none;stroke:#C9D1D9;stroke-width:5.67;stroke-miterlimit:10;}
	.st3{fill:none;stroke:#C9D1D9;stroke-width:5.67;stroke-miterlimit:10;stroke-dasharray:0,0,11.58,11.58;}
	.st4{enable-background:new    ;}
	.st5{fill:none;stroke:#307EEF;stroke-width:2.8346;stroke-linecap:round;}
	.st6{fill:none;stroke:#D85648;stroke-width:2.8346;stroke-linecap:round;}
</style>
<g>
	<line class="st0" x1="50.4" y1="327.6" x2="1810.2" y2="327.6"/>
	<polygon class="st1" points="1801.2,340.8 1850.4,327.6 1801.2,314.4 	"/>
</g>
<g>
	<line class="st0" x1="50.4" y1="53.8" x2="50.4" y2="611.4"/>
	<polygon class="st1" points="33.9,65.1 50.4,3.6 66.9,65.1 	"/>
	<polygon class="st1" points="37.2,602.4 50.4,651.6 63.6,602.4 	"/>
</g>
<line class="st2" x1="230.4" y1="338.4" x2="230.4" y2="327.6"/>
<g>
	<line class="st0" x1="1346.4" y1="118.8" x2="1450.2" y2="118.8"/>
	<polygon class="st1" points="1441.2,132 1490.4,118.8 1441.2,105.6 	"/>
</g>
<line class="st2" x1="410.4" y1="338.4" x2="410.4" y2="327.6"/>
<line class="st2" x1="590.4" y1="338.4" x2="590.4" y2="327.6"/>
<line class="st2" x1="770.4" y1="338.4" x2="770.4" y2="327.6"/>
<line class="st2" x1="950.4" y1="338.4" x2="950.4" y2="327.6"/>
<line class="st2" x1="1130.4" y1="338.4" x2="1130.4" y2="327.6"/>
<line class="st2" x1="1310.4" y1="338.4" x2="1310.4" y2="327.6"/>
<line class="st2" x1="1490.4" y1="338.4" x2="1490.4" y2="327.6"/>
<line class="st2" x1="1670.4" y1="338.4" x2="1670.4" y2="327.6"/>
<g>
	<line class="st0" x1="1814.4" y1="118.8" x2="1710.6" y2="118.8"/>
	<polygon class="st1" points="1719.6,105.6 1670.4,118.8 1719.6,132 	"/>
</g>
<g>
	<line class="st2" x1="1490.4" y1="327.6" x2="1490.4" y2="321.6"/>
	<line class="st3" x1="1490.4" y1="310" x2="1490.4" y2="130.6"/>
	<line class="st2" x1="1490.4" y1="124.8" x2="1490.4" y2="118.8"/>
</g>
<g>
	<line class="st2" x1="1670.4" y1="327.6" x2="1670.4" y2="321.6"/>
	<line class="st3" x1="1670.4" y1="310" x2="1670.4" y2="130.6"/>
	<line class="st2" x1="1670.4" y1="124.8" x2="1670.4" y2="118.8"/>
</g>
<g class="st4">
	<path class="st1" d="M37.4,441.2L3.6,427v-4.2l33.8-14.2v4.5L8,424.9l29.3,11.9v4.4H37.4z M26.3,433.9h-3.5v-18h3.5V433.9z"/>
	<path class="st1" d="M37.4,404.3H12.1v-3.7h4.3c-1.3-0.6-2.5-1.6-3.4-3s-1.5-3-1.5-4.9c0-1.7,0.5-3.1,1.4-4.4s2.2-2.2,3.9-2.8
		c-1.5-0.8-2.8-1.9-3.8-3.3s-1.5-3-1.5-4.8c0-2.4,0.9-4.3,2.6-5.8s4.2-2.1,7.3-2.1h15.9v3.9H21.8c-1.4,0-2.7,0.1-3.7,0.4
		s-1.8,0.8-2.4,1.5s-0.8,1.6-0.8,2.8c0,1.3,0.4,2.4,1.1,3.5c0.7,1.1,1.8,1.8,3.2,2.4s3.1,0.9,5.1,0.9h13.2v3.9H21.8
		c-1.4,0-2.7,0.1-3.7,0.4s-1.8,0.8-2.4,1.5s-0.8,1.6-0.8,2.7c0,1.3,0.4,2.4,1.1,3.5c0.7,1.1,1.8,1.8,3.2,2.4s3.1,0.9,5.1,0.9h13.2
		L37.4,404.3L37.4,404.3z"/>
	<path class="st1" d="M46.5,362.4H12.1v-3.7h5.3l-0.4,0.1c-1.8-0.7-3.2-1.8-4.1-3.4s-1.3-3.3-1.3-5.1c0-2.1,0.5-3.9,1.6-5.4
		s2.6-2.8,4.6-3.7s4.3-1.3,7-1.3s5,0.4,7,1.3s3.5,2.1,4.6,3.7s1.6,3.4,1.6,5.4c0,1.7-0.4,3.3-1.2,4.9s-2.2,2.9-4.2,3.7l-0.2-0.4
		h14.2L46.5,362.4L46.5,362.4z M34.7,351.4c0-2.1-0.9-3.8-2.6-5.2s-4.2-2-7.4-2c-3.1,0-5.6,0.6-7.3,1.9s-2.6,3-2.6,5.2
		c0,1.3,0.3,2.5,1,3.6c0.7,1.1,1.8,2,3.2,2.6s3.3,1,5.6,1c3.4,0,5.9-0.7,7.5-2.1C33.7,355,34.7,353.3,34.7,351.4z"/>
	<path class="st1" d="M37.4,330.3c0,1-0.3,1.9-1,2.6s-1.5,1.1-2.5,1.1H2.2v-3.9h30.6c0.5,0,0.9-0.1,1-0.2s0.3-0.5,0.3-0.9v-2.5h3.3
		C37.4,326.5,37.4,330.3,37.4,330.3z"/>
	<path class="st1" d="M7.8,319.3c0,0.9-0.3,1.7-1,2.3s-1.4,1-2.3,1s-1.7-0.3-2.3-1s-0.9-1.4-0.9-2.3s0.3-1.7,0.9-2.3
		s1.4-0.9,2.3-0.9s1.7,0.3,2.3,0.9S7.8,318.4,7.8,319.3z M37.4,321.2H12.1v-3.9h25.3V321.2z"/>
	<path class="st1" d="M37.4,304c0,1-0.3,1.9-1,2.6s-1.5,1.1-2.5,1.1H15.4v4.1h-3.3v-4.1H6.8L6,303.8h6.1v-5h3.3v5h17.5
		c0.5,0,0.9-0.1,1-0.2s0.3-0.5,0.3-0.9v-3.9h3.3L37.4,304L37.4,304z"/>
	<path class="st1" d="M38,285.1c0,1.8-0.4,3.3-1.2,4.6s-1.9,2.3-3.4,3s-3.3,1.1-5.3,1.1h-16v-3.9h15.6c2.1,0,3.7-0.4,5-1.2
		s1.9-2.2,1.9-4.2c0-1.5-0.4-2.8-1.2-3.9s-2-2-3.5-2.6s-3.5-0.9-5.9-0.9H12v-3.9h25.3v3.7h-6l1-0.2c1.6,0.7,2.9,1.7,3.9,3.2
		S38,283,38,285.1z"/>
	<path class="st1" d="M38,256.8c0,2-0.5,3.9-1.6,5.4s-2.6,2.8-4.6,3.7s-4.3,1.3-7,1.3s-5-0.4-7-1.3s-3.5-2.1-4.6-3.7
		s-1.6-3.4-1.6-5.4c0-1.7,0.4-3.3,1.2-4.9s2.2-2.9,4.2-3.7l0.2,0.4h-15v-3.9h35.2v3.7h-5.3l0.4-0.1c1.8,0.7,3.2,1.8,4.1,3.4
		S38,255,38,256.8z M34.7,255.8c0-1.3-0.3-2.5-1-3.6s-1.8-2-3.2-2.6s-3.3-1-5.6-1c-3.4,0-5.9,0.7-7.6,2.1s-2.4,3.1-2.4,5.1
		c0,2.1,0.9,3.8,2.6,5.2s4.2,2,7.4,2c3.1,0,5.6-0.6,7.3-1.9S34.7,257.9,34.7,255.8z"/>
	<path class="st1" d="M38,226.9c0,2.4-0.5,4.5-1.6,6.2s-2.6,3.1-4.6,4.1s-4.3,1.4-7,1.4s-5-0.5-7-1.4s-3.5-2.3-4.6-4
		s-1.6-3.8-1.6-6.1c0-1.3,0.2-2.7,0.6-4s1.2-2.6,2.2-3.7s2.5-2,4.3-2.7s4.2-1,6.9-1v20.5h-3.2v-17.1l1.5,1.1c-2.2,0.1-4,0.4-5.3,1.1
		s-2.3,1.5-2.9,2.5s-0.9,2.2-0.9,3.4c0,1.5,0.4,2.8,1.2,3.8s1.9,1.9,3.4,2.5s3.3,0.9,5.4,0.9c3.2,0,5.6-0.6,7.3-1.9
		c1.7-1.3,2.6-3.1,2.6-5.5c0-1.7-0.4-3.1-1.3-4.3s-2.1-2-3.7-2.6l1.3-3.9c1.5,0.6,2.7,1.4,3.8,2.4s1.8,2.2,2.4,3.6
		S38,225.2,38,226.9z"/>
</g>
<g class="st4">
	<path class="st1" d="M204.6,378.6c-2.3,0-4.3-0.5-5.9-1.4s-2.9-2.1-3.8-3.4s-1.4-2.8-1.6-4.2l4.3-1.1c0.1,2,0.7,3.7,1.9,4.9
		s2.9,1.8,5.2,1.8c1.5,0,2.8-0.3,3.8-1s1.8-1.6,2.4-2.7s1-2.4,1.3-3.7s0.5-2.7,0.6-4s0.1-2.5,0.2-3.5l0.4,0.7
		c-0.7,1.5-1.7,2.9-3.3,4.1s-3.5,1.8-5.9,1.8c-2,0-3.8-0.5-5.5-1.4s-3-2.2-4-3.9s-1.5-3.8-1.5-6.2c0-2.4,0.5-4.4,1.5-6.1
		s2.4-3.1,4.1-4s3.8-1.4,6.1-1.4s4.2,0.4,5.8,1.3s2.8,2.1,3.8,3.7s1.6,3.4,2,5.5s0.6,4.3,0.6,6.6s-0.2,4.6-0.7,6.7s-1.2,4-2.1,5.7
		s-2.2,3-3.8,3.9S206.8,378.6,204.6,378.6z M204.5,363.4c2.3,0,4.1-0.8,5.5-2.2s2.1-3.5,2.1-6.1c0-2.5-0.7-4.4-2-5.8
		s-3.1-2.1-5.4-2.1c-2.3,0-4.1,0.7-5.4,2.2s-1.9,3.5-1.9,6s0.6,4.5,1.9,5.9S202.3,363.4,204.5,363.4z"/>
	<path class="st1" d="M235,378.6c-3.9,0-6.9-1.5-9.1-4.6s-3.2-7.3-3.2-12.9s1.1-9.8,3.2-12.9s5.2-4.6,9.1-4.6c3.9,0,7,1.5,9.1,4.6
		s3.2,7.3,3.2,12.9s-1.1,9.8-3.2,12.9S239,378.6,235,378.6z M235,375.2c2.6,0,4.6-1.2,5.9-3.6s2-5.9,2-10.5s-0.7-8.1-2-10.5
		s-3.3-3.6-5.9-3.6s-4.6,1.2-5.9,3.6s-2,5.9-2,10.5s0.7,8.1,2,10.5S232.4,375.2,235,375.2z"/>
	<path class="st1" d="M259.6,359.6c-1.5,0-2.9-0.3-4.1-1s-2.1-1.6-2.8-2.8s-1-2.6-1-4.1s0.3-2.9,1-4.1s1.6-2.1,2.8-2.7
		c1.2-0.6,2.5-1,4.1-1s2.9,0.3,4.1,1s2.1,1.6,2.8,2.8s1,2.6,1,4.1s-0.3,2.9-1,4.1s-1.6,2.1-2.8,2.7S261.1,359.6,259.6,359.6z
		 M259.6,356.3c1.3,0,2.3-0.4,3.1-1.3s1.2-1.9,1.2-3.3c0-1.3-0.4-2.4-1.2-3.3s-1.8-1.3-3.1-1.3s-2.3,0.4-3.1,1.3s-1.2,1.9-1.2,3.3
		s0.4,2.5,1.2,3.3C257.3,355.8,258.3,356.3,259.6,356.3z"/>
</g>
<g class="st4">
	<path class="st1" d="M371.2,378v-26.9c-1.2,1.1-2.4,2-3.5,2.7s-2.3,1.3-3.6,1.8v-4c0.7-0.3,1.4-0.7,2.2-1.2s1.6-1.2,2.6-2.2
		s2.1-2.3,3.4-4h3V378H371.2z"/>
	<path class="st1" d="M393.5,378.6c-2.3,0-4.4-0.4-6.2-1.3s-3.2-2-4.2-3.6s-1.5-3.3-1.5-5.3c0-2.1,0.6-4.1,1.9-5.8s3.2-2.8,5.6-3.2
		c-1.3-0.3-2.4-0.8-3.4-1.5s-1.7-1.5-2.2-2.5s-0.8-2.1-0.8-3.3c0-1.6,0.5-3.1,1.4-4.4s2.2-2.3,3.8-3s3.5-1.1,5.6-1.1s4,0.4,5.6,1.1
		s2.9,1.7,3.8,3s1.4,2.8,1.4,4.4c0,1.2-0.3,2.3-0.8,3.3s-1.3,1.8-2.2,2.5s-2.1,1.2-3.4,1.5c2.5,0.5,4.3,1.5,5.6,3.2s1.9,3.6,1.9,5.8
		c0,2-0.5,3.8-1.5,5.3s-2.4,2.7-4.2,3.6S395.9,378.6,393.5,378.6z M393.6,374.9c2.3,0,4.2-0.6,5.5-1.8s2-2.9,2-4.9s-0.7-3.7-2-4.9
		s-3.2-1.8-5.5-1.8s-4.2,0.6-5.5,1.8s-2.1,2.9-2.1,4.9c0,2.1,0.7,3.8,2.1,5S391.2,374.9,393.6,374.9z M393.6,357.9
		c2,0,3.6-0.5,4.8-1.4s1.7-2.2,1.7-3.8c0-1.7-0.6-3.1-1.7-4.1s-2.7-1.5-4.8-1.5s-3.6,0.5-4.8,1.5s-1.8,2.4-1.8,4.1
		c0,1.6,0.6,2.9,1.8,3.8S391.5,357.9,393.6,357.9z"/>
	<path class="st1" d="M423.1,378.6c-3.9,0-6.9-1.5-9.1-4.6s-3.2-7.3-3.2-12.9s1.1-9.8,3.2-12.9s5.2-4.6,9.1-4.6s7,1.5,9.1,4.6
		s3.2,7.3,3.2,12.9s-1.1,9.8-3.2,12.9S427,378.6,423.1,378.6z M423.1,375.2c2.6,0,4.6-1.2,5.9-3.6s2-5.9,2-10.5s-0.7-8.1-2-10.5
		s-3.3-3.6-5.9-3.6s-4.6,1.2-5.9,3.6s-2,5.9-2,10.5s0.7,8.1,2,10.5S420.5,375.2,423.1,375.2z"/>
	<path class="st1" d="M447.7,359.6c-1.5,0-2.9-0.3-4.1-1s-2.1-1.6-2.8-2.8s-1-2.6-1-4.1s0.3-2.9,1-4.1s1.6-2.1,2.8-2.7s2.5-1,4.1-1
		s2.9,0.3,4.1,1s2.1,1.6,2.8,2.8s1,2.6,1,4.1s-0.3,2.9-1,4.1s-1.6,2.1-2.8,2.7S449.2,359.6,447.7,359.6z M447.7,356.3
		c1.3,0,2.3-0.4,3.1-1.3s1.2-1.9,1.2-3.3c0-1.3-0.4-2.4-1.2-3.3s-1.8-1.3-3.1-1.3s-2.3,0.4-3.1,1.3s-1.2,1.9-1.2,3.3
		s0.4,2.5,1.2,3.3S446.4,356.3,447.7,356.3z"/>
</g>
<g class="st4">
	<path class="st1" d="M541.3,378v-2.8l11.9-10.1c1.6-1.4,2.9-2.6,3.9-3.8s1.8-2.3,2.3-3.4s0.7-2.4,0.7-3.9s-0.3-2.8-0.8-3.9
		s-1.3-1.8-2.3-2.4s-2.3-0.8-3.7-0.8c-1.7,0-3.1,0.3-4.1,1s-1.8,1.6-2.3,2.7s-0.8,2.4-0.9,3.8l-4.5-1.4c0.1-1.5,0.6-3,1.6-4.4
		s2.4-2.7,4.1-3.6s3.8-1.4,6.1-1.4c1.3,0,2.6,0.2,4,0.6s2.6,1,3.7,1.8s2,1.9,2.7,3.2s1,2.9,1,4.8c0,2.7-0.7,5.1-2.2,7.2
		s-3.5,4.2-6.1,6.3l-9.2,7.4l-3-0.6h21.1v3.6L541.3,378L541.3,378z"/>
	<path class="st1" d="M572.6,378c1.2-5.8,3-11.2,5.4-16s5.3-9.6,8.8-14.1H568v-3.6h22.9v3.2c-1.6,2.4-3.1,4.8-4.5,7.2
		s-2.7,4.9-3.9,7.3s-2.2,5.1-3,7.7s-1.5,5.4-2,8.3H572.6z"/>
	<path class="st1" d="M606.1,378.6c-3.9,0-6.9-1.5-9.1-4.6s-3.2-7.3-3.2-12.9s1.1-9.8,3.2-12.9s5.2-4.6,9.1-4.6c3.9,0,7,1.5,9.1,4.6
		s3.2,7.3,3.2,12.9s-1.1,9.8-3.2,12.9S610.1,378.6,606.1,378.6z M606.1,375.2c2.6,0,4.6-1.2,5.9-3.6s2-5.9,2-10.5s-0.7-8.1-2-10.5
		s-3.3-3.6-5.9-3.6s-4.6,1.2-5.9,3.6s-2,5.9-2,10.5s0.7,8.1,2,10.5S603.5,375.2,606.1,375.2z"/>
	<path class="st1" d="M630.7,359.6c-1.5,0-2.9-0.3-4.1-1s-2.1-1.6-2.8-2.8s-1-2.6-1-4.1s0.3-2.9,1-4.1s1.6-2.1,2.8-2.7s2.5-1,4.1-1
		s2.9,0.3,4.1,1s2.1,1.6,2.8,2.8s1,2.6,1,4.1s-0.3,2.9-1,4.1s-1.6,2.1-2.8,2.7S632.2,359.6,630.7,359.6z M630.7,356.3
		c1.3,0,2.3-0.4,3.1-1.3s1.2-1.9,1.2-3.3c0-1.3-0.4-2.4-1.2-3.3s-1.8-1.3-3.1-1.3s-2.3,0.4-3.1,1.3s-1.2,1.9-1.2,3.3
		s0.4,2.5,1.2,3.3S629.4,356.3,630.7,356.3z"/>
</g>
<g class="st4">
	<path class="st1" d="M730.4,378.6c-2.1,0-4-0.4-5.8-1.2s-3.2-2-4.4-3.6s-1.8-3.5-2-5.7l4.3-1.3c0.2,2.5,0.9,4.6,2.3,6.1
		s3.2,2.3,5.6,2.3c2.1,0,3.9-0.6,5.3-1.8s2.1-3,2.1-5.3c0-0.9-0.2-1.9-0.6-2.9s-1.1-1.9-2.1-2.6s-2.4-1.1-4.2-1.1h-4.6v-3.6h4.3
		c2,0,3.5-0.5,4.6-1.6s1.6-2.2,1.6-3.6c0-1.6-0.5-2.9-1.6-4s-2.6-1.7-4.6-1.7c-2.5,0-4.3,0.7-5.4,2.1s-1.8,3.4-2,5.9l-4.3-1.3
		c0.1-1.6,0.6-3.2,1.6-4.7s2.3-2.8,4.1-3.8s3.8-1.5,6.1-1.5c1.9,0,3.7,0.4,5.2,1.1s2.8,1.8,3.7,3.1s1.4,2.8,1.4,4.5
		c0,1.1-0.2,2.2-0.7,3.1s-1.2,1.8-2.1,2.4s-2.1,1.2-3.6,1.5c2.4,0.4,4.2,1.4,5.6,3s2.1,3.4,2.1,5.5c0,1.9-0.3,3.5-1,4.8
		s-1.6,2.4-2.7,3.3s-2.4,1.5-3.8,1.9S731.8,378.6,730.4,378.6z"/>
	<path class="st1" d="M759.9,378.6c-4.1,0-7.2-1.5-9.3-4.5s-3.2-7.1-3.2-12.3c0-2.5,0.3-4.9,0.8-7.1s1.3-4.1,2.4-5.8s2.4-2.9,4-3.9
		s3.5-1.4,5.6-1.4c2.2,0,4.1,0.5,5.8,1.4s2.9,2.1,3.9,3.4s1.5,2.8,1.6,4.2l-4.3,1.1c-0.1-2-0.7-3.6-2-4.9s-2.9-1.9-5-1.9
		c-1.6,0-2.9,0.3-3.9,1s-1.9,1.6-2.5,2.7s-1.1,2.4-1.4,3.7s-0.5,2.7-0.6,4s-0.2,2.5-0.2,3.5l-0.4-0.4c0.7-1.5,1.7-2.9,3.3-4.1
		s3.5-1.8,6-1.8c2,0,3.8,0.4,5.4,1.3s3,2.2,4,3.9s1.5,3.8,1.5,6.2c0,2.3-0.5,4.3-1.4,6s-2.3,3-4,4S762.2,378.6,759.9,378.6z
		 M759.9,375.2c2.3,0,4.1-0.7,5.3-2.2s1.9-3.4,1.9-5.9s-0.6-4.5-1.9-5.9s-3-2.1-5.2-2.1c-2.3,0-4.1,0.7-5.5,2.2s-2.1,3.4-2.1,5.9
		c0,2.4,0.7,4.4,2,5.8S757.6,375.2,759.9,375.2z"/>
	<path class="st1" d="M789.3,378.6c-3.9,0-6.9-1.5-9.1-4.6s-3.2-7.3-3.2-12.9s1.1-9.8,3.2-12.9s5.2-4.6,9.1-4.6c3.9,0,7,1.5,9.1,4.6
		s3.2,7.3,3.2,12.9s-1.1,9.8-3.2,12.9S793.3,378.6,789.3,378.6z M789.3,375.2c2.6,0,4.6-1.2,5.9-3.6s2-5.9,2-10.5s-0.7-8.1-2-10.5
		s-3.3-3.6-5.9-3.6s-4.6,1.2-5.9,3.6s-2,5.9-2,10.5s0.7,8.1,2,10.5S786.8,375.2,789.3,375.2z"/>
	<path class="st1" d="M813.9,359.6c-1.5,0-2.9-0.3-4.1-1s-2.1-1.6-2.8-2.8s-1-2.6-1-4.1s0.3-2.9,1-4.1s1.6-2.1,2.8-2.7s2.5-1,4.1-1
		s2.9,0.3,4.1,1s2.1,1.6,2.8,2.8s1,2.6,1,4.1s-0.3,2.9-1,4.1s-1.6,2.1-2.8,2.7S815.5,359.6,813.9,359.6z M813.9,356.3
		c1.3,0,2.3-0.4,3.1-1.3s1.2-1.9,1.2-3.3c0-1.3-0.4-2.4-1.2-3.3s-1.8-1.3-3.1-1.3s-2.3,0.4-3.1,1.3s-1.2,1.9-1.2,3.3
		s0.4,2.5,1.2,3.3S812.6,356.3,813.9,356.3z"/>
</g>
<g class="st4">
	<path class="st1" d="M915.6,378v-11.2l0,0v-20l1,2.2l-15,17.8l-1.4-1.2h23.3v3.6h-25.2v-4l17.8-21h3.5V378H915.6z"/>
	<path class="st1" d="M939.4,378.6c-2,0-3.8-0.4-5.6-1.2s-3.3-2-4.5-3.5s-1.9-3.5-2.1-5.7l4.3-1.3c0.2,2.4,0.9,4.4,2.2,6
		s3.1,2.4,5.6,2.4c1.5,0,2.8-0.4,4-1.1s2.1-1.7,2.7-3s1-2.8,1-4.4c0-2.5-0.7-4.4-2.2-5.8s-3.2-2-5.4-2c-1.9,0-3.4,0.5-4.4,1.4
		s-1.9,2-2.4,3.2l-4.1-0.4l1.4-18.8h19.3v3.6h-15.8l-0.9,12.8l-1.1-0.1c0.8-1.4,2-2.6,3.5-3.6s3.3-1.5,5.5-1.5
		c2.1,0,3.9,0.5,5.6,1.4s2.9,2.2,3.9,3.9s1.4,3.6,1.4,5.8c0,2.4-0.5,4.6-1.6,6.4s-2.5,3.2-4.3,4.2S941.5,378.6,939.4,378.6z"/>
	<path class="st1" d="M968.8,378.6c-3.9,0-6.9-1.5-9.1-4.6s-3.2-7.3-3.2-12.9s1.1-9.8,3.2-12.9s5.2-4.6,9.1-4.6c3.9,0,7,1.5,9.1,4.6
		s3.2,7.3,3.2,12.9s-1.1,9.8-3.2,12.9S972.7,378.6,968.8,378.6z M968.8,375.2c2.6,0,4.6-1.2,5.9-3.6s2-5.9,2-10.5s-0.7-8.1-2-10.5
		s-3.3-3.6-5.9-3.6s-4.6,1.2-5.9,3.6s-2,5.9-2,10.5s0.7,8.1,2,10.5S966.2,375.2,968.8,375.2z"/>
	<path class="st1" d="M993.4,359.6c-1.5,0-2.9-0.3-4.1-1s-2.1-1.6-2.8-2.8s-1-2.6-1-4.1s0.3-2.9,1-4.1s1.6-2.1,2.8-2.7s2.5-1,4.1-1
		s2.9,0.3,4.1,1s2.1,1.6,2.8,2.8s1,2.6,1,4.1s-0.3,2.9-1,4.1s-1.6,2.1-2.8,2.7S994.9,359.6,993.4,359.6z M993.4,356.3
		c1.3,0,2.3-0.4,3.1-1.3s1.2-1.9,1.2-3.3c0-1.3-0.4-2.4-1.2-3.3s-1.8-1.3-3.1-1.3s-2.3,0.4-3.1,1.3s-1.2,1.9-1.2,3.3
		s0.4,2.5,1.2,3.3S992.1,356.3,993.4,356.3z"/>
</g>
<g class="st4">
	<path class="st1" d="M1091.5,378.6c-2,0-3.8-0.4-5.6-1.2s-3.3-2-4.5-3.5s-1.9-3.5-2.1-5.7l4.3-1.3c0.2,2.4,0.9,4.4,2.2,6
		s3.1,2.4,5.6,2.4c1.5,0,2.8-0.4,4-1.1s2.1-1.7,2.7-3s1-2.8,1-4.4c0-2.5-0.7-4.4-2.2-5.8s-3.2-2-5.4-2c-1.9,0-3.4,0.5-4.4,1.4
		s-1.9,2-2.4,3.2l-4.1-0.4l1.4-18.8h19.3v3.6h-15.8l-0.9,12.8l-1.1-0.1c0.8-1.4,2-2.6,3.5-3.6s3.3-1.5,5.5-1.5
		c2.1,0,3.9,0.5,5.6,1.4s2.9,2.2,3.9,3.9s1.4,3.6,1.4,5.8c0,2.4-0.5,4.6-1.6,6.4s-2.5,3.2-4.3,4.2S1093.6,378.6,1091.5,378.6z"/>
	<path class="st1" d="M1124.1,378v-11.2l0,0v-20l1,2.2l-15,17.8l-1.4-1.2h23.3v3.6h-25v-4l17.8-21h3.5V378H1124.1z"/>
	<path class="st1" d="M1148.5,378.6c-3.9,0-6.9-1.5-9.1-4.6s-3.2-7.3-3.2-12.9s1.1-9.8,3.2-12.9s5.2-4.6,9.1-4.6s7,1.5,9.1,4.6
		s3.2,7.3,3.2,12.9s-1.1,9.8-3.2,12.9S1152.4,378.6,1148.5,378.6z M1148.5,375.2c2.6,0,4.6-1.2,5.9-3.6s2-5.9,2-10.5
		s-0.7-8.1-2-10.5s-3.3-3.6-5.9-3.6s-4.6,1.2-5.9,3.6s-2,5.9-2,10.5s0.7,8.1,2,10.5S1145.9,375.2,1148.5,375.2z"/>
	<path class="st1" d="M1173,359.6c-1.5,0-2.9-0.3-4.1-1s-2.1-1.6-2.8-2.8s-1-2.6-1-4.1s0.3-2.9,1-4.1s1.6-2.1,2.8-2.7s2.5-1,4.1-1
		s2.9,0.3,4.1,1s2.1,1.6,2.8,2.8s1,2.6,1,4.1s-0.3,2.9-1,4.1s-1.6,2.1-2.8,2.7S1174.6,359.6,1173,359.6z M1173,356.3
		c1.3,0,2.3-0.4,3.1-1.3s1.2-1.9,1.2-3.3c0-1.3-0.4-2.4-1.2-3.3s-1.8-1.3-3.1-1.3s-2.3,0.4-3.1,1.3s-1.2,1.9-1.2,3.3
		s0.4,2.5,1.2,3.3S1171.8,356.3,1173,356.3z"/>
</g>
<g class="st4">
	<path class="st1" d="M1271.3,378.6c-4.1,0-7.2-1.5-9.3-4.5s-3.2-7.1-3.2-12.3c0-2.5,0.3-4.9,0.8-7.1s1.3-4.1,2.4-5.8s2.4-2.9,4-3.9
		s3.5-1.4,5.6-1.4c2.2,0,4.1,0.5,5.8,1.4s2.9,2.1,3.9,3.4s1.5,2.8,1.6,4.2l-4.3,1.1c-0.1-2-0.7-3.6-2-4.9s-2.9-1.9-5-1.9
		c-1.6,0-2.9,0.3-3.9,1s-1.9,1.6-2.5,2.7s-1.1,2.4-1.4,3.7s-0.5,2.7-0.6,4s-0.2,2.5-0.2,3.5l-0.4-0.4c0.7-1.5,1.7-2.9,3.3-4.1
		s3.5-1.8,6-1.8c2,0,3.8,0.4,5.4,1.3s3,2.2,4,3.9s1.5,3.8,1.5,6.2c0,2.3-0.5,4.3-1.4,6s-2.3,3-4,4S1273.6,378.6,1271.3,378.6z
		 M1271.3,375.2c2.3,0,4.1-0.7,5.3-2.2s1.9-3.4,1.9-5.9s-0.6-4.5-1.9-5.9s-3-2.1-5.2-2.1c-2.3,0-4.1,0.7-5.5,2.2s-2.1,3.4-2.1,5.9
		c0,2.4,0.7,4.4,2,5.8S1269,375.2,1271.3,375.2z"/>
	<path class="st1" d="M1299.9,378.6c-2.1,0-4-0.4-5.8-1.2s-3.2-2-4.4-3.6s-1.8-3.5-2-5.7l4.3-1.3c0.2,2.5,0.9,4.6,2.3,6.1
		s3.2,2.3,5.6,2.3c2.1,0,3.9-0.6,5.3-1.8s2.1-3,2.1-5.3c0-0.9-0.2-1.9-0.6-2.9s-1.1-1.9-2.1-2.6s-2.4-1.1-4.2-1.1h-4.6v-3.6h4.3
		c2,0,3.5-0.5,4.6-1.6s1.6-2.2,1.6-3.6c0-1.6-0.5-2.9-1.6-4s-2.6-1.7-4.6-1.7c-2.5,0-4.3,0.7-5.4,2.1s-1.8,3.4-2,5.9l-4.3-1.3
		c0.1-1.6,0.6-3.2,1.6-4.7s2.3-2.8,4.1-3.8s3.8-1.5,6.1-1.5c1.9,0,3.7,0.4,5.2,1.1s2.8,1.8,3.7,3.1s1.4,2.8,1.4,4.5
		c0,1.1-0.2,2.2-0.7,3.1s-1.2,1.8-2.1,2.4s-2.1,1.2-3.6,1.5c2.4,0.4,4.2,1.4,5.6,3s2.1,3.4,2.1,5.5c0,1.9-0.3,3.5-1,4.8
		s-1.6,2.4-2.7,3.3s-2.4,1.5-3.8,1.9S1301.4,378.6,1299.9,378.6z"/>
	<path class="st1" d="M1329.3,378.6c-3.9,0-6.9-1.5-9.1-4.6s-3.2-7.3-3.2-12.9s1.1-9.8,3.2-12.9s5.2-4.6,9.1-4.6s7,1.5,9.1,4.6
		s3.2,7.3,3.2,12.9s-1.1,9.8-3.2,12.9S1333.2,378.6,1329.3,378.6z M1329.3,375.2c2.6,0,4.6-1.2,5.9-3.6s2-5.9,2-10.5
		s-0.7-8.1-2-10.5s-3.3-3.6-5.9-3.6s-4.6,1.2-5.9,3.6s-2,5.9-2,10.5s0.7,8.1,2,10.5S1326.7,375.2,1329.3,375.2z"/>
	<path class="st1" d="M1353.9,359.6c-1.5,0-2.9-0.3-4.1-1s-2.1-1.6-2.8-2.8s-1-2.6-1-4.1s0.3-2.9,1-4.1s1.6-2.1,2.8-2.7s2.5-1,4.1-1
		s2.9,0.3,4.1,1s2.1,1.6,2.8,2.8s1,2.6,1,4.1s-0.3,2.9-1,4.1s-1.6,2.1-2.8,2.7S1355.4,359.6,1353.9,359.6z M1353.9,356.3
		c1.3,0,2.3-0.4,3.1-1.3s1.2-1.9,1.2-3.3c0-1.3-0.4-2.4-1.2-3.3s-1.8-1.3-3.1-1.3s-2.3,0.4-3.1,1.3s-1.2,1.9-1.2,3.3
		s0.4,2.5,1.2,3.3S1352.6,356.3,1353.9,356.3z"/>
</g>
<g class="st4">
	<path class="st1" d="M1432.3,76.2c-2.3,0-4.3-0.5-5.9-1.4s-2.9-2.1-3.8-3.4s-1.4-2.8-1.6-4.2l4.3-1.1c0.1,2,0.7,3.7,1.9,4.9
		s2.9,1.8,5.2,1.8c1.5,0,2.8-0.3,3.8-1s1.8-1.6,2.4-2.7s1-2.4,1.3-3.7s0.5-2.7,0.6-4s0.1-2.5,0.2-3.5l0.4,0.7
		c-0.7,1.5-1.7,2.9-3.3,4.1s-3.5,1.8-5.9,1.8c-2,0-3.8-0.5-5.5-1.4s-3-2.2-4-3.9s-1.5-3.8-1.5-6.2s0.5-4.4,1.5-6.1s2.4-3.1,4.1-4
		s3.8-1.4,6.1-1.4s4.2,0.4,5.8,1.3s2.8,2.1,3.8,3.7s1.6,3.4,2,5.5s0.6,4.3,0.6,6.6s-0.2,4.6-0.7,6.7c-0.5,2.1-1.2,4-2.1,5.7
		s-2.2,3-3.8,3.9S1434.5,76.2,1432.3,76.2z M1432.2,61c2.3,0,4.1-0.8,5.5-2.2s2.1-3.5,2.1-6.1c0-2.5-0.7-4.4-2-5.8s-3.1-2.1-5.4-2.1
		s-4.1,0.7-5.4,2.2s-1.9,3.5-1.9,6s0.6,4.5,1.9,5.9S1430,61,1432.2,61z"/>
	<path class="st1" d="M1462.8,76.2c-3.9,0-6.9-1.5-9.1-4.6s-3.2-7.3-3.2-12.9s1.1-9.8,3.2-12.9s5.2-4.6,9.1-4.6s7,1.5,9.1,4.6
		s3.2,7.3,3.2,12.9s-1.1,9.8-3.2,12.9S1466.7,76.2,1462.8,76.2z M1462.8,72.8c2.6,0,4.6-1.2,5.9-3.6s2-5.9,2-10.5s-0.7-8.1-2-10.5
		s-3.3-3.6-5.9-3.6s-4.6,1.2-5.9,3.6s-2,5.9-2,10.5s0.7,8.1,2,10.5S1460.2,72.8,1462.8,72.8z"/>
	<path class="st1" d="M1487.3,57.2c-1.5,0-2.9-0.3-4.1-1s-2.1-1.6-2.8-2.8s-1-2.6-1-4.1s0.3-2.9,1-4.1s1.6-2.1,2.8-2.7s2.5-1,4.1-1
		s2.9,0.3,4.1,1s2.1,1.6,2.8,2.8s1,2.6,1,4.1s-0.3,2.9-1,4.1s-1.6,2.1-2.8,2.7S1488.9,57.2,1487.3,57.2z M1487.3,53.9
		c1.3,0,2.3-0.4,3.1-1.3s1.2-1.9,1.2-3.3c0-1.3-0.4-2.4-1.2-3.3s-1.8-1.3-3.1-1.3s-2.3,0.4-3.1,1.3s-1.2,1.9-1.2,3.3
		c0,1.4,0.4,2.5,1.2,3.3S1486,53.9,1487.3,53.9z"/>
	<path class="st1" d="M1513.8,75.6V41.9h12.2c3.9,0,6.9,0.8,8.8,2.4s3,3.9,3,7c0,3-1,5.3-2.9,6.9s-4.9,2.5-8.9,2.5h-7.9v15h-4.3
		V75.6z M1518,57.2h7.9c2.4,0,4.3-0.5,5.6-1.6s1.9-2.5,1.9-4.3c0-1.6-0.6-3-1.7-4.2s-3.1-1.8-5.8-1.8h-7.9V57.2z"/>
	<path class="st1" d="M1543.3,75.6V40.4h3.9v15.8l-0.4-1c0.7-1.6,1.7-2.9,3.2-3.9s3.2-1.6,5.4-1.6c1.8,0,3.3,0.4,4.6,1.2
		s2.3,1.9,3,3.4s1.1,3.3,1.1,5.3v15.9h-3.9V60c0-2.1-0.4-3.8-1.2-5.1s-2.2-1.9-4.3-1.9c-2.2,0-4,0.8-5.3,2.3s-2,3.9-2,7v13.2
		L1543.3,75.6L1543.3,75.6z"/>
	<path class="st1" d="M1577.8,76.2c-1.7,0-3.2-0.3-4.4-1s-2.2-1.5-2.9-2.7s-1-2.4-1-3.8c0-1.5,0.4-2.9,1.3-4.2s2.3-2.3,4.1-3.1
		s4.3-1.2,7.2-1.2h4.2l-0.4,0.4v-1.4c0-2-0.4-3.6-1.2-4.7s-2.2-1.6-4.1-1.6c-1.8,0-3.2,0.5-4.1,1.4s-1.5,2.2-1.5,3.7l-4.4-1
		c0.1-1.4,0.7-2.6,1.6-3.7s2.1-2,3.6-2.7s3.3-1,5.2-1c2,0,3.7,0.4,5,1.2s2.2,1.9,2.8,3.3s0.9,3.2,0.9,5.2V71c0,0.5,0.1,0.9,0.2,1
		s0.5,0.3,0.9,0.3h1.4v3.3h-2.5c-1.1,0-2-0.3-2.7-1s-1.1-1.5-1.1-2.5v-1.8h0.6c-0.2,0.7-0.6,1.3-1.1,2s-1.1,1.3-1.8,1.9
		s-1.6,1.1-2.6,1.4S1579.1,76.2,1577.8,76.2z M1578.7,72.9c1.3,0,2.5-0.3,3.6-1s2-1.6,2.7-3s1-3.1,1-5.3v-0.2h-4
		c-2.1,0-3.7,0.3-4.9,0.8c-1.2,0.5-2,1.2-2.5,2s-0.8,1.6-0.8,2.4s0.2,1.5,0.5,2.2s0.9,1.2,1.6,1.5S1577.6,72.9,1578.7,72.9z"/>
	<path class="st1" d="M1606.4,76.2c-1.8,0-3.5-0.3-5-0.9s-2.7-1.5-3.7-2.7s-1.6-2.8-2-4.7l4.1-0.8c0.2,2,0.8,3.5,2,4.4
		s2.7,1.5,4.4,1.5c1.8,0,3.2-0.4,4.2-1.3s1.6-2,1.6-3.3c0-1.1-0.4-2-1.1-2.6s-1.8-1.1-3.2-1.4l-3.1-0.6c-0.8-0.2-1.7-0.4-2.6-0.7
		s-1.7-0.7-2.5-1.2s-1.4-1.2-1.9-2s-0.7-1.8-0.7-3.1c0-1.7,0.4-3,1.3-4.1s2-1.8,3.4-2.4s3-0.8,4.6-0.8c1.8,0,3.4,0.3,4.7,0.8
		s2.4,1.4,3.3,2.4s1.4,2.3,1.7,3.8l-4.3,0.9c-0.1-1-0.4-1.8-0.8-2.5s-1-1.2-1.7-1.6s-1.7-0.6-2.9-0.6c-1.5,0-2.7,0.3-3.8,0.9
		s-1.6,1.5-1.6,2.8c0,0.7,0.2,1.3,0.5,1.8s0.9,0.9,1.6,1.2s1.6,0.6,2.7,0.8l3.1,0.7c1.3,0.3,2.5,0.7,3.6,1.2s2,1.2,2.7,2.2
		s1,2.1,1,3.7c0,1.7-0.4,3.1-1.3,4.3s-2,2.1-3.5,2.8S1608.4,76.2,1606.4,76.2z"/>
	<path class="st1" d="M1633,76.2c-2.4,0-4.5-0.5-6.2-1.6s-3.1-2.6-4.1-4.6s-1.4-4.3-1.4-7c0-2.7,0.5-5,1.4-7s2.3-3.5,4-4.6
		s3.8-1.6,6.1-1.6c1.3,0,2.7,0.2,4,0.6s2.6,1.2,3.7,2.2s2,2.5,2.7,4.3s1,4.2,1,6.9h-20.5v-3.2h17.1l-1.1,1.5c-0.1-2.2-0.4-4-1.1-5.3
		s-1.5-2.3-2.5-2.9s-2.2-0.9-3.4-0.9c-1.5,0-2.8,0.4-3.8,1.2s-1.9,1.9-2.5,3.4s-0.9,3.3-0.9,5.4c0,3.2,0.6,5.6,1.9,7.3
		s3.1,2.6,5.5,2.6c1.7,0,3.1-0.4,4.3-1.3s2-2.1,2.6-3.7l3.9,1.3c-0.6,1.5-1.4,2.7-2.4,3.8s-2.2,1.8-3.6,2.4S1634.7,76.2,1633,76.2z"
		/>
	<path class="st1" d="M1671.1,76.2c-1.8,0-3.5-0.3-5-0.9s-2.7-1.5-3.7-2.7s-1.6-2.8-2-4.7l4.1-0.8c0.2,2,0.8,3.5,2,4.4
		s2.7,1.5,4.4,1.5c1.8,0,3.2-0.4,4.2-1.3s1.6-2,1.6-3.3c0-1.1-0.4-2-1.1-2.6s-1.8-1.1-3.2-1.4l-3.1-0.6c-0.8-0.2-1.7-0.4-2.6-0.7
		s-1.7-0.7-2.5-1.2s-1.4-1.2-1.9-2s-0.7-1.8-0.7-3.1c0-1.7,0.4-3,1.3-4.1s2-1.8,3.4-2.4s3-0.8,4.6-0.8c1.8,0,3.4,0.3,4.7,0.8
		s2.4,1.4,3.3,2.4s1.4,2.3,1.7,3.8l-4.3,0.9c-0.1-1-0.4-1.8-0.8-2.5s-1-1.2-1.7-1.6s-1.7-0.6-2.9-0.6c-1.5,0-2.7,0.3-3.8,0.9
		s-1.6,1.5-1.6,2.8c0,0.7,0.2,1.3,0.5,1.8s0.9,0.9,1.6,1.2s1.6,0.6,2.7,0.8l3.1,0.7c1.3,0.3,2.5,0.7,3.6,1.2s2,1.2,2.7,2.2
		s1,2.1,1,3.7c0,1.7-0.4,3.1-1.3,4.3s-2,2.1-3.5,2.8S1673,76.2,1671.1,76.2z"/>
	<path class="st1" d="M1687,75.6V40.4h3.9v15.8l-0.4-1c0.7-1.6,1.7-2.9,3.2-3.9s3.2-1.6,5.4-1.6c1.8,0,3.3,0.4,4.6,1.2
		s2.3,1.9,3,3.4s1.1,3.3,1.1,5.3v15.9h-3.9V60c0-2.1-0.4-3.8-1.2-5.1s-2.2-1.9-4.3-1.9c-2.2,0-4,0.8-5.3,2.3s-2,3.9-2,7v13.2
		L1687,75.6L1687,75.6z"/>
	<path class="st1" d="M1716.8,46c-0.9,0-1.7-0.3-2.3-1s-1-1.4-1-2.3c0-0.9,0.3-1.7,1-2.3s1.4-0.9,2.3-0.9s1.7,0.3,2.3,0.9
		s0.9,1.4,0.9,2.3c0,0.9-0.3,1.7-0.9,2.3S1717.8,46,1716.8,46z M1714.9,75.6V50.3h3.9v25.3H1714.9z"/>
	<path class="st1" d="M1724.3,53.6v-3.3h13.4v3.3H1724.3z M1728.1,75.6V45.7c0-1.9,0.4-3.2,1.3-4s2.4-1.2,4.5-1.2h3.2v3.3h-3.7
		c-0.5,0-0.8,0.1-1,0.3s-0.3,0.5-0.3,1v30.6L1728.1,75.6L1728.1,75.6z"/>
	<path class="st1" d="M1748.6,75.6c-1,0-1.9-0.3-2.6-1s-1.1-1.5-1.1-2.5V53.6h-4.1v-3.3h4.1V45l3.9-0.8v6.1h5v3.3h-5V71
		c0,0.5,0.1,0.9,0.2,1s0.5,0.3,0.9,0.3h3.9v3.3C1753.8,75.6,1748.6,75.6,1748.6,75.6z"/>
</g>
<g class="st4">
	<path class="st1" d="M1637.3,378.6c-2.3,0-4.4-0.4-6.2-1.3s-3.2-2-4.2-3.6s-1.5-3.3-1.5-5.3c0-2.1,0.6-4.1,1.9-5.8s3.2-2.8,5.6-3.2
		c-1.3-0.3-2.4-0.8-3.4-1.5s-1.7-1.5-2.2-2.5s-0.8-2.1-0.8-3.3c0-1.6,0.5-3.1,1.4-4.4s2.2-2.3,3.8-3s3.5-1.1,5.6-1.1s4,0.4,5.6,1.1
		s2.9,1.7,3.8,3s1.4,2.8,1.4,4.4c0,1.2-0.3,2.3-0.8,3.3s-1.3,1.8-2.2,2.5s-2.1,1.2-3.4,1.5c2.5,0.5,4.3,1.5,5.6,3.2s1.9,3.6,1.9,5.8
		c0,2-0.5,3.8-1.5,5.3s-2.4,2.7-4.2,3.6S1639.6,378.6,1637.3,378.6z M1637.3,374.9c2.3,0,4.2-0.6,5.5-1.8s2-2.9,2-4.9
		s-0.7-3.7-2-4.9s-3.2-1.8-5.5-1.8s-4.2,0.6-5.5,1.8s-2.1,2.9-2.1,4.9c0,2.1,0.7,3.8,2.1,5S1635,374.9,1637.3,374.9z M1637.3,357.9
		c2,0,3.6-0.5,4.8-1.4s1.7-2.2,1.7-3.8c0-1.7-0.6-3.1-1.7-4.1s-2.7-1.5-4.8-1.5s-3.6,0.5-4.8,1.5s-1.8,2.4-1.8,4.1
		c0,1.6,0.6,2.9,1.8,3.8S1635.3,357.9,1637.3,357.9z"/>
	<path class="st1" d="M1659.7,378v-26.9c-1.2,1.1-2.4,2-3.5,2.7s-2.3,1.3-3.6,1.8v-4c0.7-0.3,1.4-0.7,2.2-1.2s1.6-1.2,2.6-2.2
		s2.1-2.3,3.4-4h3V378H1659.7z"/>
	<path class="st1" d="M1682.4,378.6c-3.9,0-6.9-1.5-9.1-4.6s-3.2-7.3-3.2-12.9s1.1-9.8,3.2-12.9s5.2-4.6,9.1-4.6s7,1.5,9.1,4.6
		s3.2,7.3,3.2,12.9s-1.1,9.8-3.2,12.9S1686.3,378.6,1682.4,378.6z M1682.4,375.2c2.6,0,4.6-1.2,5.9-3.6s2-5.9,2-10.5
		s-0.7-8.1-2-10.5s-3.3-3.6-5.9-3.6s-4.6,1.2-5.9,3.6s-2,5.9-2,10.5s0.7,8.1,2,10.5S1679.8,375.2,1682.4,375.2z"/>
	<path class="st1" d="M1707,359.6c-1.5,0-2.9-0.3-4.1-1s-2.1-1.6-2.8-2.8s-1-2.6-1-4.1s0.3-2.9,1-4.1s1.6-2.1,2.8-2.7s2.5-1,4.1-1
		s2.9,0.3,4.1,1s2.1,1.6,2.8,2.8s1,2.6,1,4.1s-0.3,2.9-1,4.1s-1.6,2.1-2.8,2.7S1708.5,359.6,1707,359.6z M1707,356.3
		c1.3,0,2.3-0.4,3.1-1.3s1.2-1.9,1.2-3.3c0-1.3-0.4-2.4-1.2-3.3s-1.8-1.3-3.1-1.3s-2.3,0.4-3.1,1.3s-1.2,1.9-1.2,3.3
		s0.4,2.5,1.2,3.3S1705.7,356.3,1707,356.3z"/>
</g>
<g class="st4">
	<path class="st1" d="M1444.8,378c1.2-5.8,3-11.2,5.4-16s5.3-9.6,8.8-14.1h-18.8v-3.6h22.9v3.2c-1.6,2.4-3.1,4.8-4.5,7.2
		s-2.7,4.9-3.9,7.3s-2.2,5.1-3,7.7s-1.5,5.4-2,8.3H1444.8z"/>
	<path class="st1" d="M1466.1,378v-2.8l11.9-10.1c1.6-1.4,2.9-2.6,3.9-3.8s1.8-2.3,2.3-3.4s0.7-2.4,0.7-3.9s-0.3-2.8-0.8-3.9
		s-1.3-1.8-2.3-2.4s-2.3-0.8-3.7-0.8c-1.7,0-3.1,0.3-4.1,1s-1.8,1.6-2.3,2.7s-0.8,2.4-0.9,3.8l-4.5-1.4c0.1-1.5,0.6-3,1.6-4.4
		s2.4-2.7,4.1-3.6s3.8-1.4,6.1-1.4c1.3,0,2.6,0.2,4,0.6s2.6,1,3.7,1.8s2,1.9,2.7,3.2s1,2.9,1,4.8c0,2.7-0.7,5.1-2.2,7.2
		s-3.5,4.2-6.1,6.3l-9.2,7.4l-3-0.6h21.1v3.6L1466.1,378L1466.1,378z"/>
	<path class="st1" d="M1506.9,378.6c-3.9,0-6.9-1.5-9.1-4.6s-3.2-7.3-3.2-12.9s1.1-9.8,3.2-12.9s5.2-4.6,9.1-4.6s7,1.5,9.1,4.6
		s3.2,7.3,3.2,12.9s-1.1,9.8-3.2,12.9S1510.8,378.6,1506.9,378.6z M1506.9,375.2c2.6,0,4.6-1.2,5.9-3.6s2-5.9,2-10.5
		s-0.7-8.1-2-10.5s-3.3-3.6-5.9-3.6s-4.6,1.2-5.9,3.6s-2,5.9-2,10.5s0.7,8.1,2,10.5S1504.3,375.2,1506.9,375.2z"/>
	<path class="st1" d="M1531.4,359.6c-1.5,0-2.9-0.3-4.1-1s-2.1-1.6-2.8-2.8s-1-2.6-1-4.1s0.3-2.9,1-4.1s1.6-2.1,2.8-2.7s2.5-1,4.1-1
		s2.9,0.3,4.1,1s2.1,1.6,2.8,2.8s1,2.6,1,4.1s-0.3,2.9-1,4.1s-1.6,2.1-2.8,2.7S1533,359.6,1531.4,359.6z M1531.4,356.3
		c1.3,0,2.3-0.4,3.1-1.3s1.2-1.9,1.2-3.3c0-1.3-0.4-2.4-1.2-3.3s-1.8-1.3-3.1-1.3s-2.3,0.4-3.1,1.3s-1.2,1.9-1.2,3.3
		s0.4,2.5,1.2,3.3S1530.2,356.3,1531.4,356.3z"/>
</g>
<g>
	<path class="st5" d="M230.4,39.6c-65.3,0-122.9,144-180,288"/>
	<path class="st5" d="M410.4,327.6c-57.1-144-114.7-288-180-288"/>
	<path class="st5" d="M590.4,615.6c65.3,0,122.9-144,180-288"/>
	<path class="st5" d="M410.4,327.6c57.1,144,114.7,288,180,288"/>
</g>
<g>
	<path class="st5" d="M950.4,39.6c-65.3,0-122.9,144-180,288"/>
	<path class="st5" d="M1130.4,327.6c-57.1-144-114.7-288-180-288"/>
	<path class="st5" d="M1310.4,615.6c65.3,0,122.9-144,180-288"/>
	<path class="st5" d="M1130.4,327.6c57.1,144,114.7,288,180,288"/>
</g>
<g>
	<path class="st6" d="M410.4,39.6c-65.3,0-122.9,144-180,288"/>
	<path class="st6" d="M590.4,327.6c-57.1-144-114.7-288-180-288"/>
	<path class="st6" d="M770.4,615.6c65.3,0,122.9-144,180-288"/>
	<path class="st6" d="M590.4,327.6c57.1,144,114.7,288,180,288"/>
</g>
<g>
	<path class="st6" d="M1130.4,39.6c-65.3,0-122.9,144-180,288"/>
	<path class="st6" d="M1310.4,327.6c-57.1-144-114.7-288-180-288"/>
	<path class="st6" d="M1490.4,615.6c65.3,0,122.9-144,180-288"/>
	<path class="st6" d="M1310.4,327.6c57.1,144,114.7,288,180,288"/>
</g>
</svg>
