<?xml version="1.0" encoding="UTF-8"?>
<svg id="Ebene_1" data-name="Ebene 1" xmlns="http://www.w3.org/2000/svg" width="2030.4" height="1152" viewBox="0 0 2030.4 1152">
  <g>
    <line x1="432" y1="576" x2="1827.7" y2="576" fill="none" stroke="#c9d1d9" stroke-miterlimit="10" stroke-width="5"/>
    <polygon points="1817.8 590.5 1872 576 1817.8 561.5 1817.8 590.5" fill="#c9d1d9"/>
  </g>
  <g>
    <line x1="432" y1="44.3" x2="432" y2="1107.7" fill="none" stroke="#c9d1d9" stroke-miterlimit="10" stroke-width="5"/>
    <polygon points="417.5 54.2 432 0 446.5 54.2 417.5 54.2" fill="#c9d1d9"/>
    <polygon points="417.5 1097.8 432 1152 446.5 1097.8 417.5 1097.8" fill="#c9d1d9"/>
  </g>
  <line x1="1485" y1="216" x2="1710" y2="216" fill="none" stroke="#c9d1d9" stroke-dasharray="0 0 0 12" stroke-miterlimit="10" stroke-width="5"/>
  <g>
    <line x1="1647" y1="251.4" x2="1647" y2="540.6" fill="none" stroke="#c9d1d9" stroke-miterlimit="10" stroke-width="4"/>
    <polygon points="1635.4 259.4 1647 216 1658.6 259.4 1635.4 259.4" fill="#c9d1d9"/>
    <polygon points="1635.4 532.6 1647 576 1658.6 532.6 1635.4 532.6" fill="#c9d1d9"/>
  </g>
  <g isolation="isolate">
    <path d="m1616.5,482.3v14.3l8.9,3.2v4.6l-34.1-13v-3.9l34.1-13.1v4.6l-8.9,3.3Zm-3.7,13v-11.6l-16,5.8,16,5.8Z" fill="#c9d1d9"/>
    <path d="m1600,466.4l2.8-.1c-2.2-1.9-3.3-4.4-3.3-7.5,0-3.5,1.4-6,4.1-7.2-1.2-.8-2.2-1.9-3-3.3s-1.1-2.9-1.1-4.8c0-5.6,2.9-8.4,8.8-8.5h17v4.3h-16.7c-1.8,0-3.2.4-4.1,1.2s-1.3,2.2-1.3,4.2c0,1.6.5,2.9,1.4,4s2.3,1.7,3.9,1.9h16.8v4.4h-16.6c-3.7,0-5.5,1.8-5.5,5.4,0,2.8,1.2,4.8,3.6,5.8h18.5v4.3h-25.3v-4.1Z" fill="#c9d1d9"/>
    <path d="m1613,407c3.9,0,7,.9,9.3,2.6s3.5,4.2,3.5,7.2c0,3.1-1,5.5-2.9,7.3h12.2v4.3h-35.1v-4l2.8-.2c-2.2-1.8-3.3-4.2-3.3-7.4,0-3,1.1-5.5,3.4-7.2s5.5-2.7,9.6-2.7h.5v.1Zm-.5,4.4c-2.9,0-5.1.6-6.8,1.8s-2.5,2.9-2.5,5c0,2.6,1.2,4.6,3.5,5.9h12.1c2.3-1.3,3.5-3.3,3.5-6,0-2.1-.8-3.7-2.5-5s-4-1.7-7.3-1.7Z" fill="#c9d1d9"/>
    <path d="m1625.4,396.8v4.3h-36v-4.3h36Z" fill="#c9d1d9"/>
    <path d="m1593.3,389.9c-.7,0-1.3-.2-1.8-.6s-.7-1.1-.7-1.9.2-1.5.7-1.9,1.1-.7,1.8-.7,1.3.2,1.8.7.7,1.1.7,1.9-.2,1.5-.7,1.9-1.1.6-1.8.6Zm32.1-4.7v4.3h-25.4v-4.3h25.4Z" fill="#c9d1d9"/>
    <path d="m1593.9,372.3h6.1v-4.7h3.4v4.7h15.7c1,0,1.8-.2,2.3-.6s.8-1.1.8-2.2c0-.5-.1-1.2-.3-2.1h3.5c.3,1.1.5,2.2.5,3.3,0,1.9-.6,3.4-1.8,4.4s-2.8,1.5-5,1.5h-15.7v4.6h-3.4v-4.6h-6.1v-4.3Z" fill="#c9d1d9"/>
    <path d="m1622.9,346.9c2,1.7,3,4.2,3,7.4,0,2.7-.8,4.8-2.4,6.2s-3.9,2.1-7,2.1h-16.5v-4.3h16.4c3.8,0,5.8-1.6,5.8-4.7,0-3.3-1.2-5.5-3.7-6.6h-18.5v-4.3h25.4v4.1l-2.5.1Z" fill="#c9d1d9"/>
    <path d="m1612.5,337.1c-3.9,0-7-.9-9.4-2.8s-3.6-4.3-3.6-7.2c0-3,1-5.3,3-7.1h-13.2v-4.3h36v4l-2.7.2c2.1,1.7,3.2,4.1,3.2,7.2,0,2.9-1.2,5.3-3.6,7.2s-5.5,2.8-9.4,2.8h-.3Zm.5-4.3c2.9,0,5.1-.6,6.8-1.8s2.4-2.8,2.4-4.9c0-2.8-1.2-4.8-3.7-6h-11.6c-2.4,1.3-3.6,3.3-3.6,6,0,2.1.8,3.8,2.5,5s4,1.7,7.2,1.7Z" fill="#c9d1d9"/>
    <path d="m1625.9,298.5c0,3.4-1.1,6.2-3.4,8.4s-5.3,3.2-9.1,3.2h-.8c-2.5,0-4.8-.5-6.7-1.4s-3.5-2.3-4.6-4-1.7-3.6-1.7-5.6c0-3.3,1.1-5.9,3.3-7.7s5.3-2.7,9.3-2.7h1.8v17.2c2.5-.1,4.5-.8,6.1-2.2s2.3-3.2,2.3-5.3c0-1.5-.3-2.8-.9-3.9s-1.5-2-2.5-2.8l2.1-2.6c3.1,2,4.8,5.1,4.8,9.4Zm-22.8.5c0,1.8.6,3.2,1.9,4.4s3.1,1.9,5.4,2.2v-12.7h-.3c-2.2.1-3.9.7-5.1,1.8s-1.9,2.5-1.9,4.3Z" fill="#c9d1d9"/>
  </g>
  <g>
    <path d="m49.8,646.8l-28.1-9.8v-4.9l34.1,12.7v4l-34.1,12.6v-4.9l28.1-9.7h0Z" fill="#c9d1d9"/>
    <path d="m42.9,630.4c-2.5,0-4.7-.5-6.7-1.5s-3.5-2.3-4.6-4.1-1.6-3.7-1.6-6c0-3.5,1.2-6.2,3.6-8.4s5.6-3.2,9.5-3.2h.3c2.5,0,4.7.5,6.6,1.4s3.5,2.3,4.6,4,1.6,3.8,1.6,6.1c0,3.4-1.2,6.2-3.6,8.4s-5.5,3.2-9.5,3.2l-.2.1h0Zm.5-4.3c2.8,0,5.1-.7,6.8-2s2.5-3,2.5-5.2-.9-4-2.6-5.2-4.1-2-7.2-2c-2.8,0-5,.7-6.8,2s-2.6,3.1-2.6,5.3.8,3.9,2.5,5.2,4.2,1.9,7.4,1.9h0Z" fill="#c9d1d9"/>
    <path d="m55.8,597.2v4.3H19.8v-4.3h36Z" fill="#c9d1d9"/>
    <path d="m24.3,584.4h6.1v-4.7h3.3v4.7h15.8c1,0,1.8-.2,2.3-.6.5-.4.8-1.1.8-2.2,0-.5-.1-1.2-.3-2.1h3.5c.3,1.1.5,2.2.5,3.3,0,1.9-.6,3.4-1.8,4.4s-2.8,1.5-5,1.5h-15.7v4.6h-3.4v-4.6h-6.1v-4.3h0Z" fill="#c9d1d9"/>
    <path d="m55.8,558.9c-.5.2-1.4.5-2.7.6,2.1,2,3.1,4.4,3.1,7.2,0,2.5-.7,4.5-2.1,6.2s-3.2,2.4-5.4,2.4c-2.6,0-4.7-1-6.2-3s-2.2-4.8-2.2-8.5v-4.2h-2c-1.5,0-2.7.5-3.6,1.4s-1.3,2.2-1.3,4c0,1.5.4,2.8,1.2,3.9s1.7,1.6,2.8,1.6v4.4c-1.3,0-2.5-.5-3.7-1.3s-2.1-2.1-2.8-3.7-1-3.2-1-5.1c0-2.9.7-5.2,2.2-6.9s3.5-2.5,6-2.6h11.7c2.3,0,4.2-.3,5.5-.9h.4l.1,4.5h0Zm-3.3,7.2c0-1.4-.3-2.7-1-3.9s-1.6-2.1-2.7-2.7h-5.2v3.4c0,5.3,1.5,8,4.7,8,1.4,0,2.4-.5,3.2-1.4s1-2,1-3.4h0Z" fill="#c9d1d9"/>
    <path d="m42.9,549.5c-4,0-7.1-.9-9.4-2.7s-3.5-4.2-3.5-7.3,1.1-5.5,3.3-7.2l-2.8-.2v-4h24.7c3.3,0,5.9,1,7.8,2.9,1.9,2,2.8,4.6,2.8,7.8,0,1.8-.4,3.6-1.2,5.4s-1.8,3.1-3.2,4l-2.6-2.2c2.3-1.9,3.5-4.1,3.5-6.8,0-2.1-.6-3.8-1.8-4.9s-2.9-1.8-5-1.8h-2.2c2,1.7,3,4.1,3,7.1s-1.2,5.4-3.6,7.2-5.7,2.7-9.8,2.7h0Zm.5-4.4c2.9,0,5.1-.6,6.7-1.8s2.5-2.8,2.5-4.9c0-2.7-1.2-4.7-3.7-6h-11.6c-2.4,1.3-3.6,3.3-3.6,6,0,2.1.8,3.8,2.5,5s4,1.8,7.2,1.7h0Z" fill="#c9d1d9"/>
    <path d="m56.3,511c0,3.4-1.1,6.2-3.4,8.4s-5.3,3.2-9.1,3.2h-.8c-2.5,0-4.8-.5-6.7-1.4s-3.5-2.3-4.6-4-1.7-3.6-1.7-5.6c0-3.3,1.1-5.9,3.3-7.7s5.3-2.7,9.3-2.7h1.8v17.2c2.5-.1,4.5-.8,6.1-2.2s2.3-3.2,2.3-5.3c0-1.5-.3-2.8-.9-3.9s-1.5-2-2.5-2.8l2.1-2.6c3.1,2,4.8,5.2,4.8,9.4h0Zm-22.8.6c0,1.8.6,3.2,1.9,4.4s3.1,1.9,5.4,2.2v-12.7h-.3c-2.2.1-3.9.7-5.1,1.8s-1.9,2.4-1.9,4.3h0Z" fill="#c9d1d9"/>
    <path d="m62.6,496.2l-1.7,2.5c-2-1.5-4.2-2.2-6.3-2.3h-3.9v-4.2h3.4c1.6,0,3.2.4,4.7,1.2s2.8,1.7,3.8,2.8h0Z" fill="#c9d1d9"/>
    <path d="m100.5,854.2c-3.9,0-7-.9-9.4-2.8s-3.6-4.3-3.6-7.2,1-5.3,3.1-7h-13.2v-4.3h36v4l-2.7.2c2.1,1.7,3.2,4.2,3.2,7.2s-1.2,5.3-3.6,7.2-5.6,2.8-9.4,2.8l-.4-.1h0Zm.5-4.3c2.9,0,5.1-.6,6.8-1.8s2.4-2.8,2.4-4.9c0-2.8-1.2-4.8-3.7-6h-11.7c-2.4,1.3-3.6,3.3-3.6,6,0,2.1.8,3.8,2.5,5s4.1,1.7,7.3,1.7h0Z" fill="#c9d1d9"/>
    <path d="m81.3,826.1c-.7,0-1.3-.2-1.8-.6s-.7-1.1-.7-1.9.2-1.5.7-1.9,1.1-.7,1.8-.7,1.3.2,1.8.7.7,1.1.7,1.9-.2,1.5-.7,1.9-1.1.6-1.8.6Zm32.1-4.7v4.3h-25.4v-4.3h25.4Z" fill="#c9d1d9"/>
    <path d="m106.7,799.7c-1.2,0-2.1.4-2.7,1.3s-1.2,2.4-1.7,4.6-1,3.9-1.7,5.2-1.4,2.2-2.3,2.9-2,.9-3.2.9c-2.1,0-3.8-.9-5.3-2.6s-2.2-4-2.2-6.7c0-2.9.7-5.2,2.2-7s3.4-2.7,5.7-2.7v4.4c-1.2,0-2.2.5-3.1,1.5s-1.3,2.3-1.3,3.8.3,2.8,1,3.7,1.6,1.3,2.7,1.3,1.8-.4,2.4-1.2,1-2.3,1.5-4.5,1.1-3.9,1.7-5.3,1.5-2.3,2.4-3,2.1-1,3.5-1c2.3,0,4.1.9,5.4,2.7s2.1,4.2,2.1,7c0,2-.4,3.8-1.1,5.4s-1.7,2.8-3,3.7-2.7,1.3-4.2,1.3v-4.3c1.4-.1,2.6-.7,3.5-1.8s1.3-2.5,1.3-4.3c0-1.6-.3-3-1-4s-1.5-1.3-2.6-1.3h0Z" fill="#c9d1d9"/>
    <path d="m101,768.3c3.9,0,7,.9,9.3,2.7s3.5,4.2,3.5,7.2-1,5.5-2.9,7.3h12.2v4.3h-35.1v-4l2.8-.2c-2.2-1.8-3.3-4.2-3.3-7.4s1.2-5.5,3.4-7.2,5.5-2.7,9.6-2.7h.5Zm-.5,4.3c-2.9,0-5.1.6-6.8,1.8s-2.5,2.9-2.5,5c0,2.6,1.2,4.6,3.5,5.9h12.1c2.3-1.3,3.5-3.3,3.5-6,0-2.1-.8-3.7-2.5-5s-4-1.7-7.3-1.7h0Z" fill="#c9d1d9"/>
    <path d="m113.4,758.1v4.3h-36v-4.3h36Z" fill="#c9d1d9"/>
    <path d="m113.4,735.5c-.5.2-1.4.5-2.7.6,2.1,2,3.1,4.4,3.1,7.2,0,2.5-.7,4.5-2.1,6.2s-3.2,2.4-5.4,2.4c-2.6,0-4.7-1-6.2-3s-2.1-4.9-2.1-8.5v-4.2h-2c-1.5,0-2.7.5-3.6,1.4s-1.3,2.2-1.3,4c0,1.5.4,2.8,1.2,3.9s1.7,1.6,2.8,1.6v4.4c-1.3,0-2.5-.5-3.7-1.3s-2.1-2.1-2.8-3.7-1-3.2-1-5.1c0-2.9.7-5.2,2.2-6.9s3.5-2.5,6-2.6h11.7c2.3,0,4.2-.3,5.6-.9h.4l-.1,4.5h0Zm-3.3,7.2c0-1.4-.3-2.7-1.1-3.9s-1.6-2.1-2.7-2.7h-5.2v3.4c0,5.3,1.6,8,4.7,8,1.4,0,2.4-.5,3.2-1.4s1.1-2,1.1-3.4h0Z" fill="#c9d1d9"/>
    <path d="m110.3,714.8c0-1.5-.5-2.9-1.4-4s-2.1-1.8-3.5-1.9v-4.1c1.4.1,2.8.6,4.2,1.5s2.4,2.2,3.1,3.7,1.2,3.2,1.2,4.9c0,3.5-1.2,6.2-3.5,8.2s-5.5,3.1-9.5,3.1h-.7c-2.5,0-4.7-.5-6.6-1.4s-3.4-2.2-4.5-3.9-1.6-3.7-1.6-6c0-2.8.8-5.2,2.6-7.1s3.9-2.9,6.6-3v4.1c-1.6.1-3,.8-4,1.9s-1.6,2.5-1.6,4.1c0,2.2.8,3.9,2.4,5.1s3.9,1.8,6.9,1.8h.8c2.9,0,5.2-.6,6.8-1.8s2.3-2.9,2.3-5.2h0Z" fill="#c9d1d9"/>
    <path d="m113.9,689.4c0,3.4-1.1,6.2-3.4,8.4s-5.3,3.2-9.1,3.2h-.8c-2.5,0-4.8-.5-6.7-1.4s-3.5-2.3-4.6-4-1.7-3.6-1.7-5.6c0-3.3,1.1-5.9,3.3-7.7s5.3-2.7,9.3-2.7h1.8v17.2c2.5-.1,4.5-.8,6.1-2.2s2.3-3.2,2.3-5.3c0-1.5-.3-2.8-.9-3.9s-1.4-2-2.5-2.8l2.1-2.7c3.1,2,4.8,5.2,4.8,9.5h0Zm-22.8.5c0,1.8.6,3.2,1.9,4.4s3.1,1.9,5.4,2.2v-12.7h-.3c-2.2.1-3.9.7-5.1,1.8s-1.9,2.5-1.9,4.3Z" fill="#c9d1d9"/>
    <path d="m88,670.4l2.8-.1c-2.2-1.9-3.3-4.4-3.3-7.5,0-3.5,1.4-6,4.1-7.2-1.2-.8-2.2-1.9-2.9-3.3s-1.1-3-1.1-4.8c0-5.6,2.9-8.4,8.8-8.5h17v4.3h-16.7c-1.8,0-3.2.4-4.1,1.2s-1.3,2.2-1.3,4.2c0,1.6.5,3,1.4,4s2.2,1.7,3.9,1.8h16.8v4.4h-16.6c-3.7,0-5.5,1.8-5.5,5.4,0,2.8,1.2,4.8,3.6,5.8h18.5v4.3h-25.4v-4h0Z" fill="#c9d1d9"/>
    <path d="m113.9,621.9c0,3.4-1.1,6.2-3.4,8.4s-5.3,3.2-9.1,3.2h-.8c-2.5,0-4.8-.5-6.7-1.4s-3.5-2.3-4.6-4-1.7-3.6-1.7-5.6c0-3.3,1.1-5.9,3.3-7.7s5.3-2.7,9.3-2.7h1.8v17.2c2.5-.1,4.5-.8,6.1-2.2s2.3-3.2,2.3-5.3c0-1.5-.3-2.8-.9-3.9s-1.4-2-2.5-2.8l2.1-2.7c3.1,2,4.8,5.2,4.8,9.5h0Zm-22.8.5c0,1.8.6,3.2,1.9,4.4s3.1,1.9,5.4,2.2v-12.7h-.3c-2.2.1-3.9.7-5.1,1.8s-1.9,2.5-1.9,4.3Z" fill="#c9d1d9"/>
    <path d="m88,602.9l3.2-.1c-2.4-1.9-3.7-4.5-3.7-7.6,0-5.4,3-8.1,9.1-8.1h16.8v4.3h-16.8c-1.8,0-3.2.4-4.1,1.2s-1.3,2.1-1.3,3.8c0,1.4.4,2.6,1.1,3.7s1.7,1.9,2.9,2.5h18.1v4.3h-25.3v-4h0Z" fill="#c9d1d9"/>
    <path d="m81.9,574.6h6.1v-4.7h3.3v4.7h15.8c1,0,1.8-.2,2.3-.6s.8-1.1.8-2.2c0-.5-.1-1.2-.3-2.1h3.5c.3,1.1.5,2.2.5,3.3,0,1.9-.6,3.4-1.8,4.4s-2.8,1.5-5,1.5h-15.7v4.6h-3.3v-4.6h-6.1l-.1-4.3h0Z" fill="#c9d1d9"/>
    <path d="m120.2,564.9l-1.7,2.5c-2.1-1.5-4.2-2.2-6.3-2.3h-3.9v-4.2h3.4c1.6,0,3.2.4,4.7,1.2s2.8,1.7,3.8,2.8Z" fill="#c9d1d9"/>
    <path d="m113.4,527.8c-.5.2-1.4.5-2.7.6,2.1,2,3.1,4.4,3.1,7.2,0,2.5-.7,4.5-2.1,6.2s-3.2,2.4-5.4,2.4c-2.6,0-4.7-1-6.2-3s-2.2-4.8-2.2-8.5v-4.2h-2c-1.5,0-2.7.5-3.6,1.4s-1.3,2.2-1.3,4c0,1.5.4,2.8,1.2,3.9s1.7,1.6,2.8,1.6v4.4c-1.3,0-2.5-.5-3.7-1.3s-2.1-2.1-2.8-3.7-1-3.2-1-5.1c0-2.9.7-5.2,2.2-6.9s3.5-2.5,6-2.6h11.7c2.3,0,4.2-.3,5.6-.9h.4v4.5h0Zm-3.3,7.2c0-1.4-.3-2.7-1.1-3.9s-1.6-2.1-2.7-2.7h-5.2v3.4c0,5.3,1.6,8,4.7,8,1.4,0,2.4-.5,3.2-1.4s1.1-1.9,1.1-3.4h0Z" fill="#c9d1d9"/>
    <path d="m81.3,517.4c-.7,0-1.3-.2-1.8-.6s-.7-1.1-.7-1.9.2-1.5.7-1.9,1.1-.7,1.8-.7,1.3.2,1.8.7.7,1.1.7,1.9-.2,1.5-.7,1.9-1.1.6-1.8.6Zm32.1-4.7v4.3h-25.4v-4.3h25.4Z" fill="#c9d1d9"/>
    <path d="m91.9,493.5c-.1.7-.2,1.4-.2,2.1,0,2.8,1.2,4.8,3.6,5.8h18v4.3h-25.3v-4.2l2.9-.1c-2.3-1.4-3.4-3.4-3.4-6,0-.8.1-1.5.3-1.9.1,0,4.1,0,4.1,0Z" fill="#c9d1d9"/>
    <path d="m101,456.2c3.9,0,7,.9,9.3,2.6s3.5,4.2,3.5,7.2-1,5.5-2.9,7.3h12.2v4.3h-35.1v-4l2.8-.2c-2.2-1.8-3.3-4.2-3.3-7.4s1.2-5.5,3.4-7.2,5.5-2.7,9.6-2.7l.5.1h0Zm-.5,4.3c-2.9,0-5.1.6-6.8,1.8s-2.5,2.9-2.5,5c0,2.6,1.2,4.6,3.5,5.9h12.1c2.3-1.3,3.5-3.3,3.5-6,0-2.1-.8-3.7-2.5-5s-4-1.7-7.3-1.7h0Z" fill="#c9d1d9"/>
    <path d="m91.9,438.4c-.1.7-.2,1.4-.2,2.1,0,2.8,1.2,4.8,3.6,5.8h18v4.3h-25.3v-4.2l2.9-.1c-2.3-1.4-3.4-3.4-3.4-6,0-.8.1-1.5.3-1.9.1,0,4.1,0,4.1,0Z" fill="#c9d1d9"/>
    <path d="m113.9,424.4c0,3.4-1.1,6.2-3.4,8.4s-5.3,3.2-9.1,3.2h-.8c-2.5,0-4.8-.5-6.7-1.4s-3.5-2.3-4.6-4-1.7-3.6-1.7-5.6c0-3.3,1.1-5.9,3.3-7.7s5.3-2.7,9.3-2.7h1.8v17.2c2.5-.1,4.5-.8,6.1-2.2s2.3-3.2,2.3-5.3c0-1.5-.3-2.8-.9-3.9s-1.4-2-2.5-2.8l2.1-2.6c3.1,1.9,4.8,5.1,4.8,9.4h0Zm-22.8.5c0,1.8.6,3.2,1.9,4.4s3.1,1.9,5.4,2.2v-12.7h-.3c-2.2.1-3.9.7-5.1,1.8s-1.9,2.5-1.9,4.3Z" fill="#c9d1d9"/>
    <path d="m106.7,394.7c-1.2,0-2.1.4-2.7,1.3s-1.2,2.4-1.7,4.6-1,3.9-1.7,5.2-1.4,2.2-2.3,2.9-2,.9-3.2.9c-2.1,0-3.8-.9-5.3-2.6s-2.2-4-2.2-6.7c0-2.9.7-5.2,2.2-7s3.4-2.7,5.7-2.7v4.4c-1.2,0-2.2.5-3.1,1.5s-1.3,2.3-1.3,3.8.3,2.8,1,3.7,1.6,1.3,2.7,1.3,1.8-.4,2.4-1.2,1-2.3,1.5-4.5,1.1-3.9,1.7-5.3,1.5-2.3,2.4-3,2.1-1,3.5-1c2.3,0,4.1.9,5.4,2.7s2.1,4.2,2.1,7c0,2-.4,3.8-1.1,5.4s-1.7,2.8-3,3.7-2.7,1.3-4.2,1.3v-4.3c1.4-.1,2.6-.7,3.5-1.8s1.3-2.5,1.3-4.3c0-1.6-.3-3-1-4s-1.5-1.3-2.6-1.3h0Z" fill="#c9d1d9"/>
    <path d="m106.7,369.9c-1.2,0-2.1.4-2.7,1.3s-1.2,2.4-1.7,4.6-1,3.9-1.7,5.2-1.4,2.2-2.3,2.9-2,.9-3.2.9c-2.1,0-3.8-.9-5.3-2.6s-2.2-4-2.2-6.7c0-2.9.7-5.2,2.2-7s3.4-2.7,5.7-2.7v4.4c-1.2,0-2.2.5-3.1,1.5s-1.3,2.3-1.3,3.8.3,2.8,1,3.7,1.6,1.3,2.7,1.3,1.8-.4,2.4-1.2,1-2.3,1.5-4.5,1.1-3.9,1.7-5.3,1.5-2.3,2.4-3,2.1-1,3.5-1c2.3,0,4.1.9,5.4,2.7s2.1,4.2,2.1,7c0,2-.4,3.8-1.1,5.4s-1.7,2.8-3,3.7-2.7,1.3-4.2,1.3v-4.3c1.4-.1,2.6-.7,3.5-1.8s1.3-2.5,1.3-4.3c0-1.6-.3-3-1-4s-1.5-1.3-2.6-1.3h0Z" fill="#c9d1d9"/>
    <path d="m110.9,344.3c2,1.7,3,4.2,3,7.4,0,2.7-.8,4.8-2.4,6.2s-3.9,2.1-7,2.1h-16.5v-4.3h16.4c3.8,0,5.8-1.6,5.8-4.7,0-3.3-1.2-5.5-3.7-6.6h-18.5v-4.3h25.4v4.1l-2.5.1h0Z" fill="#c9d1d9"/>
    <path d="m91.9,321.2c-.1.7-.2,1.4-.2,2.1,0,2.8,1.2,4.8,3.6,5.8h18v4.3h-25.3v-4.2l2.9-.1c-2.3-1.4-3.4-3.4-3.4-6,0-.8.1-1.5.3-1.9.1,0,4.1,0,4.1,0Z" fill="#c9d1d9"/>
    <path d="m113.9,307.2c0,3.4-1.1,6.2-3.4,8.4s-5.3,3.2-9.1,3.2h-.8c-2.5,0-4.8-.5-6.7-1.4s-3.5-2.3-4.6-4-1.7-3.6-1.7-5.6c0-3.3,1.1-5.9,3.3-7.7s5.3-2.7,9.3-2.7h1.8v17.2c2.5-.1,4.5-.8,6.1-2.2s2.3-3.2,2.3-5.3c0-1.5-.3-2.8-.9-3.9s-1.4-2-2.5-2.8l2.1-2.6c3.1,1.9,4.8,5.1,4.8,9.4h0Zm-22.8.5c0,1.8.6,3.2,1.9,4.4s3.1,1.9,5.4,2.2v-12.7h-.3c-2.2.1-3.9.7-5.1,1.8s-1.9,2.5-1.9,4.3Z" fill="#c9d1d9"/>
  </g>
  <g isolation="isolate">
    <path d="m1758.8,623.7v6.1h4.7v3.4h-4.7v15.7c0,1,.2,1.8.6,2.3s1.1.8,2.2.8c.5,0,1.2-.1,2.1-.3v3.5c-1.1.3-2.2.5-3.3.5-1.9,0-3.4-.6-4.4-1.8s-1.5-2.8-1.5-5v-15.7h-4.6v-3.4h4.6v-6.1h4.3Z" fill="#c9d1d9"/>
    <path d="m1768.6,623.1c0-.7.2-1.3.6-1.8s1.1-.7,1.9-.7,1.5.2,1.9.7.7,1.1.7,1.8-.2,1.3-.7,1.8-1.1.7-1.9.7-1.5-.2-1.9-.7-.6-1.1-.6-1.8Zm4.7,32.1h-4.3v-25.4h4.3v25.4Z" fill="#c9d1d9"/>
    <path d="m1784.3,629.8l.1,2.8c1.9-2.2,4.4-3.3,7.5-3.3,3.5,0,6,1.4,7.2,4.1.8-1.2,1.9-2.2,3.3-3s2.9-1.1,4.8-1.1c5.6,0,8.4,2.9,8.5,8.8v17h-4.3v-16.7c0-1.8-.4-3.2-1.2-4.1s-2.2-1.3-4.2-1.3c-1.6,0-2.9.5-4,1.4s-1.7,2.3-1.9,3.9v16.8h-4.4v-16.6c0-3.7-1.8-5.5-5.4-5.5-2.8,0-4.8,1.2-5.8,3.6v18.5h-4.3v-25.4h4.1v.1Z" fill="#c9d1d9"/>
    <path d="m1832.8,655.7c-3.4,0-6.2-1.1-8.4-3.4s-3.2-5.3-3.2-9.1v-.8c0-2.5.5-4.8,1.4-6.7s2.3-3.5,4-4.6,3.6-1.7,5.6-1.7c3.3,0,5.9,1.1,7.7,3.3s2.7,5.3,2.7,9.3v1.8h-17.2c.1,2.5.8,4.5,2.2,6.1s3.2,2.3,5.3,2.3c1.5,0,2.8-.3,3.9-.9s2-1.5,2.8-2.5l2.6,2.1c-2,3.1-5.1,4.8-9.4,4.8Zm-.5-22.8c-1.8,0-3.2.6-4.4,1.9s-1.9,3.1-2.2,5.4h12.7v-.3c-.1-2.2-.7-3.9-1.8-5.1s-2.5-1.9-4.3-1.9Z" fill="#c9d1d9"/>
  </g>
  <g isolation="isolate">
    <path d="m1868.2,623.7l-1.1,6.1h4.6l-.6,3.4h-4.6l-2.5,15.8c0,.4-.1.8,0,1.1.1,1.2.8,1.8,2,1.8.5,0,1.2-.1,2.1-.2l-.3,3.5c-1,.3-2,.4-3.1.4-1.7,0-3-.7-3.8-1.9s-1.2-2.8-1-4.9l2.6-15.7h-4.5l.6-3.4h4.5l1.1-6.1h4v.1Z" fill="#c9d1d9"/>
  </g>
  <g isolation="isolate">
    <path d="m1886.9,623.1c0-.7.2-1.3.6-1.8s1.1-.7,1.9-.7,1.5.2,1.9.7.7,1.1.7,1.8-.2,1.3-.7,1.8-1.1.7-1.9.7-1.5-.2-1.9-.7-.6-1.1-.6-1.8Zm4.7,32.1h-4.3v-25.4h4.3v25.4Z" fill="#c9d1d9"/>
    <path d="m1902.7,629.8l.1,3.2c1.9-2.4,4.5-3.7,7.6-3.7,5.4,0,8.1,3,8.1,9.1v16.8h-4.3v-16.8c0-1.8-.4-3.2-1.3-4.1s-2.1-1.3-3.8-1.3c-1.4,0-2.6.4-3.7,1.1s-1.9,1.7-2.5,3v18.1h-4.3v-25.4h4.1Z" fill="#c9d1d9"/>
    <path d="m1951.7,648.5c0-1.2-.4-2.1-1.3-2.7s-2.4-1.2-4.6-1.7-3.9-1-5.2-1.7-2.2-1.4-2.9-2.3-.9-2-.9-3.2c0-2.1.9-3.8,2.6-5.3s4-2.2,6.7-2.2c2.9,0,5.2.7,7,2.2s2.7,3.4,2.7,5.7h-4.4c0-1.2-.5-2.2-1.5-3.1s-2.3-1.3-3.8-1.3c-1.6,0-2.8.3-3.7,1s-1.3,1.6-1.3,2.7c0,1,.4,1.8,1.2,2.4s2.3,1,4.5,1.5,3.9,1.1,5.3,1.7,2.3,1.5,3,2.4,1,2.1,1,3.5c0,2.3-.9,4.1-2.7,5.4s-4.2,2.1-7.1,2.1c-2,0-3.8-.4-5.4-1.1s-2.8-1.7-3.7-3-1.3-2.7-1.3-4.2h4.3c.1,1.5.7,2.6,1.7,3.5s2.5,1.3,4.3,1.3c1.6,0,3-.3,3.9-1s1.6-1.5,1.6-2.6Z" fill="#c9d1d9"/>
  </g>
  <g>
    <line x1="1044.6" y1="144" x2="791.4" y2="144" fill="none" stroke="#c9d1d9" stroke-miterlimit="10" stroke-width="4"/>
    <polygon points="1036.6 132.4 1080 144 1036.6 155.6 1036.6 132.4" fill="#c9d1d9"/>
    <polygon points="799.4 132.4 756 144 799.4 155.6 799.4 132.4" fill="#c9d1d9"/>
  </g>
  <g>
    <path d="m838.3,44.2v13.4h-4.5V23.5h12.6c3.7,0,6.7,1,8.8,2.9s3.2,4.4,3.2,7.6c0,3.3-1,5.9-3.1,7.7s-5,2.7-8.9,2.7h-8.1v-.2Zm0-3.6h8.1c2.4,0,4.2-.6,5.5-1.7s1.9-2.8,1.9-4.9-.6-3.7-1.9-4.9c-1.3-1.2-3-1.9-5.3-1.9h-8.3v13.4h0Z" fill="#c9d1d9"/>
    <path d="m873.6,58.1c-3.4,0-6.2-1.1-8.4-3.4s-3.2-5.3-3.2-9.1v-.8c0-2.5.5-4.8,1.4-6.7s2.3-3.5,4-4.6,3.6-1.7,5.6-1.7c3.3,0,5.9,1.1,7.7,3.3s2.7,5.3,2.7,9.3v1.8h-17.2c.1,2.5.8,4.5,2.2,6.1s3.2,2.3,5.3,2.3c1.5,0,2.8-.3,3.9-.9s2-1.5,2.8-2.5l2.7,2.1c-2.1,3.1-5.3,4.8-9.5,4.8h0Zm-.5-22.8c-1.8,0-3.2.6-4.4,1.9s-1.9,3.1-2.2,5.4h12.7v-.3c-.1-2.2-.7-3.9-1.8-5.1s-2.5-1.9-4.3-1.9Z" fill="#c9d1d9"/>
    <path d="m900.8,36.1c-.7-.1-1.4-.2-2.1-.2-2.8,0-4.8,1.2-5.8,3.6v18h-4.3v-25.3h4.2l.1,2.9c1.4-2.3,3.4-3.4,6-3.4.8,0,1.5.1,1.9.3v4.1h0Z" fill="#c9d1d9"/>
    <path d="m904.8,25.5c0-.7.2-1.3.6-1.8s1.1-.7,1.9-.7,1.5.2,1.9.7.7,1.1.7,1.8-.2,1.3-.7,1.8-1.1.7-1.9.7-1.5-.2-1.9-.7-.6-1.1-.6-1.8Zm4.7,32.1h-4.3v-25.4h4.3v25.4Z" fill="#c9d1d9"/>
    <path d="m915.2,44.7c0-2.5.5-4.7,1.5-6.7s2.3-3.5,4.1-4.6,3.7-1.6,6-1.6c3.5,0,6.2,1.2,8.4,3.6s3.2,5.6,3.2,9.5v.3c0,2.5-.5,4.7-1.4,6.6s-2.3,3.5-4,4.6-3.8,1.6-6.1,1.6c-3.4,0-6.2-1.2-8.4-3.6s-3.2-5.5-3.2-9.5l-.1-.2h0Zm4.4.5c0,2.8.7,5.1,2,6.8s3,2.5,5.2,2.5,4-.9,5.2-2.6,2-4.1,2-7.2c0-2.8-.7-5-2-6.8s-3.1-2.6-5.3-2.6-3.9.8-5.2,2.5-1.9,4.2-1.9,7.4h0Z" fill="#c9d1d9"/>
    <path d="m942.7,44.7c0-3.9.9-7,2.8-9.4s4.3-3.5,7.2-3.5,5.3,1,7,3v-13.2h4.3v36h-4l-.2-2.7c-1.7,2.1-4.2,3.2-7.2,3.2s-5.3-1.2-7.2-3.6-2.8-5.5-2.8-9.4l.1-.4h0Zm4.3.5c0,2.9.6,5.1,1.8,6.8s2.8,2.4,4.9,2.4c2.8,0,4.8-1.2,6-3.7v-11.7c-1.3-2.4-3.3-3.6-6-3.6-2.1,0-3.8.8-5,2.5s-1.7,4.1-1.7,7.3h0Z" fill="#c9d1d9"/>
    <path d="m1009,27.1h-10.6l-5.3,30.4h-4.4l5.3-30.5h-10.6l.7-3.7h25.6c-.1.2-.7,3.8-.7,3.8Z" fill="#c9d1d9"/>
    <path d="m1010.6,64.4l-2.5-1.7c1.5-2,2.2-4.2,2.3-6.3v-3.9h4.2v3.4c0,1.6-.4,3.2-1.2,4.7s-1.6,2.8-2.8,3.8Z" fill="#c9d1d9"/>
    <path d="m831.9,102.3c0-2.5.5-4.7,1.5-6.7s2.3-3.5,4.1-4.6,3.7-1.6,6-1.6c3.5,0,6.2,1.2,8.4,3.6s3.2,5.6,3.2,9.5v.3c0,2.5-.5,4.7-1.4,6.6s-2.3,3.5-4,4.6-3.8,1.6-6.1,1.6c-3.4,0-6.2-1.2-8.4-3.6s-3.2-5.6-3.2-9.5l-.1-.2h0Zm4.4.5c0,2.8.7,5.1,2,6.8s3,2.6,5.2,2.6,4-.9,5.2-2.6,2-4.1,2-7.2c0-2.8-.7-5-2-6.8s-3.1-2.6-5.3-2.6-3.9.8-5.2,2.6-1.9,4-1.9,7.2h0Z" fill="#c9d1d9"/>
    <path d="m864.6,89.8l.1,3.2c1.9-2.4,4.5-3.7,7.6-3.7,5.4,0,8.1,3,8.1,9.1v16.8h-4.3v-16.8c0-1.8-.4-3.2-1.2-4.1s-2.1-1.3-3.8-1.3c-1.4,0-2.6.4-3.7,1.1s-1.9,1.7-2.5,2.9v18.1h-4.3v-25.3h4Z" fill="#c9d1d9"/>
    <path d="m897.5,115.7c-3.4,0-6.2-1.1-8.4-3.4s-3.2-5.3-3.2-9.1v-.8c0-2.5.5-4.8,1.4-6.7s2.3-3.5,4-4.6,3.6-1.7,5.6-1.7c3.3,0,5.9,1.1,7.7,3.3s2.7,5.3,2.7,9.3v1.8h-17.2c.1,2.5.8,4.5,2.2,6.1s3.2,2.3,5.3,2.3c1.5,0,2.8-.3,3.9-.9s2-1.4,2.8-2.5l2.7,2.1c-2.1,3.1-5.3,4.8-9.5,4.8h0Zm-.6-22.8c-1.8,0-3.2.6-4.4,1.9s-1.9,3.1-2.2,5.4h12.7v-.3c-.1-2.2-.7-3.9-1.8-5.1s-2.5-1.9-4.3-1.9Z" fill="#c9d1d9"/>
    <path d="m934.4,112.1c1.5,0,2.9-.5,4-1.4s1.8-2.1,1.9-3.5h4.1c-.1,1.4-.6,2.8-1.5,4.2s-2.2,2.4-3.7,3.1-3.2,1.2-4.9,1.2c-3.5,0-6.2-1.2-8.2-3.5s-3.1-5.5-3.1-9.5v-.7c0-2.5.5-4.7,1.4-6.6s2.2-3.4,3.9-4.5,3.7-1.6,6-1.6c2.8,0,5.2.8,7.1,2.6s2.9,3.9,3,6.6h-4.1c-.1-1.6-.8-3-1.9-4s-2.5-1.6-4.1-1.6c-2.2,0-3.9.8-5.1,2.4s-1.8,3.9-1.8,6.9v.8c0,2.9.6,5.2,1.8,6.8s3,2.3,5.2,2.3h0Z" fill="#c9d1d9"/>
    <path d="m957.7,108.8l5.9-19h4.6l-10.2,29.3c-1.6,4.2-4.1,6.3-7.5,6.3l-.8-.1-1.6-.3v-3.5l1.2.1c1.5,0,2.6-.3,3.4-.9s1.5-1.7,2-3.3l1-2.6-9-25.1h4.7l6.3,19.1h0Z" fill="#c9d1d9"/>
    <path d="m982,112.1c1.5,0,2.9-.5,4-1.4s1.8-2.1,1.9-3.5h4.1c-.1,1.4-.6,2.8-1.5,4.2s-2.2,2.4-3.7,3.1-3.2,1.2-4.9,1.2c-3.5,0-6.2-1.2-8.2-3.5s-3.1-5.5-3.1-9.5v-.7c0-2.5.5-4.7,1.4-6.6s2.2-3.4,3.9-4.5,3.7-1.6,6-1.6c2.8,0,5.2.8,7.1,2.6s2.9,3.9,3,6.6h-4.1c-.1-1.6-.8-3-1.9-4s-2.5-1.6-4.1-1.6c-2.2,0-3.9.8-5.1,2.4s-1.8,3.9-1.8,6.9v.8c0,2.9.6,5.2,1.8,6.8s2.9,2.3,5.2,2.3h0Z" fill="#c9d1d9"/>
    <path d="m1001.6,115.2h-4.3v-36h4.3v36Z" fill="#c9d1d9"/>
    <path d="m1019.1,115.7c-3.4,0-6.2-1.1-8.4-3.4s-3.2-5.3-3.2-9.1v-.8c0-2.5.5-4.8,1.4-6.7s2.3-3.5,4-4.6,3.6-1.7,5.6-1.7c3.3,0,5.9,1.1,7.7,3.3s2.7,5.3,2.7,9.3v1.8h-17.2c.1,2.5.8,4.5,2.2,6.1s3.2,2.3,5.3,2.3c1.5,0,2.8-.3,3.9-.9s2-1.4,2.8-2.5l2.7,2.1c-2.1,3.1-5.3,4.8-9.5,4.8h0Zm-.5-22.8c-1.8,0-3.2.6-4.4,1.9s-1.9,3.1-2.2,5.4h12.7v-.3c-.1-2.2-.7-3.9-1.8-5.1s-2.5-1.9-4.3-1.9h0Z" fill="#c9d1d9"/>
  </g>
  <g>
    <line x1="756" y1="1008" x2="756" y2="1002" fill="none" stroke="#c9d1d9" stroke-miterlimit="10" stroke-width="4"/>
    <line x1="756" y1="990" x2="756" y2="156" fill="none" stroke="#c9d1d9" stroke-dasharray="0 0 0 0 0 0 12 12" stroke-miterlimit="10" stroke-width="4"/>
    <line x1="756" y1="150" x2="756" y2="144" fill="none" stroke="#c9d1d9" stroke-miterlimit="10" stroke-width="4"/>
  </g>
  <g>
    <line x1="720.6" y1="1008" x2="467.4" y2="1008" fill="none" stroke="#c9d1d9" stroke-miterlimit="10" stroke-width="4"/>
    <polygon points="712.6 996.4 756 1008 712.6 1019.6 712.6 996.4" fill="#c9d1d9"/>
    <polygon points="475.4 996.4 432 1008 475.4 1019.6 475.4 996.4" fill="#c9d1d9"/>
  </g>
  <g>
    <line x1="1044.6" y1="1008" x2="791.4" y2="1008" fill="none" stroke="#c9d1d9" stroke-miterlimit="10" stroke-width="4"/>
    <polygon points="1036.6 996.4 1080 1008 1036.6 1019.6 1036.6 996.4" fill="#c9d1d9"/>
    <polygon points="799.4 996.4 756 1008 799.4 1019.6 799.4 996.4" fill="#c9d1d9"/>
  </g>
  <g>
    <line x1="1368.6" y1="1008" x2="1115.4" y2="1008" fill="none" stroke="#c9d1d9" stroke-miterlimit="10" stroke-width="4"/>
    <polygon points="1360.6 996.4 1404 1008 1360.6 1019.6 1360.6 996.4" fill="#c9d1d9"/>
    <polygon points="1123.4 996.4 1080 1008 1123.4 1019.6 1123.4 996.4" fill="#c9d1d9"/>
  </g>
  <g>
    <line x1="1692.6" y1="1008" x2="1439.4" y2="1008" fill="none" stroke="#c9d1d9" stroke-miterlimit="10" stroke-width="4"/>
    <polygon points="1684.6 996.4 1728 1008 1684.6 1019.6 1684.6 996.4" fill="#c9d1d9"/>
    <polygon points="1447.4 996.4 1404 1008 1447.4 1019.6 1447.4 996.4" fill="#c9d1d9"/>
  </g>
  <g isolation="isolate">
    <path d="m597.6,995.4h-4.4v-28.9l-8.7,3.2v-3.9l12.4-4.7h.7v34.3Z" fill="#c9d1d9"/>
  </g>
  <g isolation="isolate">
    <path d="m637,965h-10.6l-5.3,30.4h-4.4l5.3-30.4h-10.6l.7-3.7h25.6l-.7,3.7Z" fill="#c9d1d9"/>
  </g>
  <g isolation="isolate">
    <path d="m929.7,995.4h-22.4v-3.1l11.8-13.1c1.8-2,3-3.6,3.6-4.8s1-2.5,1-3.9c0-1.8-.5-3.2-1.6-4.4s-2.5-1.7-4.3-1.7c-2.2,0-3.8.6-5,1.8s-1.8,2.9-1.8,5.1h-4.3c0-3.1,1-5.7,3-7.6s4.7-2.9,8.1-2.9c3.2,0,5.7.8,7.5,2.5s2.8,3.9,2.8,6.6c0,3.4-2.1,7.4-6.4,12l-9.1,9.9h17.1v3.6h0Z" fill="#c9d1d9"/>
  </g>
  <g isolation="isolate">
    <path d="m961,965h-10.6l-5.3,30.4h-4.4l5.3-30.4h-10.6l.7-3.7h25.6l-.7,3.7Z" fill="#c9d1d9"/>
  </g>
  <g isolation="isolate">
    <path d="m1237.7,976.2h3.3c2,0,3.7-.6,4.8-1.6s1.8-2.5,1.8-4.2c0-4-2-6-6-6-1.9,0-3.4.5-4.5,1.6s-1.7,2.5-1.7,4.3h-4.3c0-2.7,1-4.9,3-6.7s4.5-2.7,7.5-2.7c3.2,0,5.7.9,7.6,2.6s2.7,4.1,2.7,7.1c0,1.5-.5,2.9-1.4,4.3s-2.3,2.4-3.9,3.1c1.9.6,3.3,1.6,4.3,3s1.5,3.1,1.5,5c0,3.1-1,5.5-3,7.3s-4.6,2.7-7.8,2.7-5.8-.9-7.8-2.6-3-4-3-6.9h4.4c0,1.8.6,3.2,1.8,4.3s2.7,1.6,4.7,1.6c2.1,0,3.7-.5,4.8-1.6s1.7-2.7,1.7-4.7-.6-3.5-1.8-4.6-3-1.6-5.3-1.6h-3.3v-3.7h-.1Z" fill="#c9d1d9"/>
  </g>
  <g isolation="isolate">
    <path d="m1285,965h-10.6l-5.3,30.4h-4.4l5.3-30.4h-10.6l.7-3.7h25.6l-.7,3.7Z" fill="#c9d1d9"/>
  </g>
  <g isolation="isolate">
    <path d="m1573.7,983.9h4.7v3.5h-4.7v7.9h-4.4v-7.9h-15.5v-2.6l15.3-23.6h4.6v22.7Zm-15,0h10.6v-16.7l-.5.9-10.1,15.8Z" fill="#c9d1d9"/>
  </g>
  <g isolation="isolate">
    <path d="m1609,965h-10.6l-5.3,30.4h-4.4l5.3-30.4h-10.6l.7-3.7h25.6l-.7,3.7Z" fill="#c9d1d9"/>
  </g>
  <g isolation="isolate">
    <path d="m905.6,1089v-22h-4v-3.4h4v-2.6c0-2.7.7-4.8,2.2-6.3s3.5-2.2,6.2-2.2c1,0,2,.1,3,.4l-.2,3.5c-.7-.1-1.5-.2-2.3-.2-1.4,0-2.5.4-3.3,1.2-.8.8-1.1,2-1.1,3.5v2.7h5.4v3.4h-5.5v22h-4.4Z" fill="#c9d1d9"/>
  </g>
  <g isolation="isolate">
    <path d="m932.4,1067.5c-.7-.1-1.4-.2-2.1-.2-2.8,0-4.8,1.2-5.8,3.6v18h-4.3v-25.4h4.2l.1,2.9c1.4-2.3,3.4-3.4,6-3.4.8,0,1.5.1,1.9.3v4.2h0Z" fill="#c9d1d9"/>
  </g>
  <g isolation="isolate">
    <path d="m946.5,1089.5c-3.4,0-6.2-1.1-8.4-3.4s-3.2-5.3-3.2-9.1v-.8c0-2.5.5-4.8,1.4-6.7s2.3-3.5,4-4.6,3.6-1.7,5.6-1.7c3.3,0,5.9,1.1,7.7,3.3s2.7,5.3,2.7,9.3v1.8h-17.2c.1,2.5.8,4.5,2.2,6.1s3.2,2.3,5.3,2.3c1.5,0,2.8-.3,3.9-.9s2-1.5,2.8-2.5l2.6,2.1c-2,3.1-5.2,4.8-9.4,4.8Zm-.6-22.8c-1.8,0-3.2.6-4.4,1.9s-1.9,3.1-2.2,5.4h12.7v-.3c-.1-2.2-.7-3.9-1.8-5.1s-2.5-1.9-4.3-1.9Z" fill="#c9d1d9"/>
    <path d="m960.3,1076.1c0-4,.9-7.1,2.7-9.5s4.3-3.5,7.4-3.5c3,0,5.4,1,7.1,3l.2-2.6h4v35.1h-4.3v-12.1c-1.8,1.9-4.1,2.8-7,2.8-3.1,0-5.5-1.2-7.3-3.6s-2.7-5.5-2.7-9.5v-.1h-.1Zm4.4.5c0,2.9.6,5.2,1.8,6.8s2.9,2.5,5,2.5c2.6,0,4.5-1.1,5.9-3.4v-12.4c-1.4-2.2-3.3-3.4-5.9-3.4-2.1,0-3.8.8-5,2.5s-1.8,4.2-1.8,7.4Z" fill="#c9d1d9"/>
    <path d="m1004.3,1086.5c-1.7,2-4.2,3-7.4,3-2.7,0-4.8-.8-6.2-2.4s-2.1-3.9-2.1-7v-16.5h4.3v16.4c0,3.8,1.6,5.8,4.7,5.8,3.3,0,5.5-1.2,6.6-3.7v-18.4h4.3v25.4h-4.1l-.1-2.6Z" fill="#c9d1d9"/>
    <path d="m1025.6,1089.5c-3.4,0-6.2-1.1-8.4-3.4s-3.2-5.3-3.2-9.1v-.8c0-2.5.5-4.8,1.4-6.7s2.3-3.5,4-4.6,3.6-1.7,5.6-1.7c3.3,0,5.9,1.1,7.7,3.3s2.7,5.3,2.7,9.3v1.8h-17.2c.1,2.5.8,4.5,2.2,6.1s3.2,2.3,5.3,2.3c1.5,0,2.8-.3,3.9-.9s2-1.5,2.8-2.5l2.6,2.1c-1.9,3.1-5.1,4.8-9.4,4.8Zm-.5-22.8c-1.8,0-3.2.6-4.4,1.9s-1.9,3.1-2.2,5.4h12.7v-.3c-.1-2.2-.7-3.9-1.8-5.1s-2.5-1.9-4.3-1.9Z" fill="#c9d1d9"/>
    <path d="m1044.7,1063.6l.1,3.2c1.9-2.4,4.5-3.7,7.6-3.7,5.4,0,8.1,3,8.1,9.1v16.8h-4.3v-16.8c0-1.8-.4-3.2-1.3-4.1s-2.1-1.3-3.8-1.3c-1.4,0-2.6.4-3.7,1.1s-1.9,1.7-2.5,3v18.1h-4.3v-25.4h4.1Z" fill="#c9d1d9"/>
    <path d="m1077.2,1085.9c1.5,0,2.9-.5,4.1-1.4s1.8-2.1,1.9-3.5h4.1c-.1,1.5-.6,2.8-1.5,4.1s-2.2,2.4-3.7,3.1-3.2,1.2-4.9,1.2c-3.5,0-6.2-1.2-8.2-3.5s-3.1-5.5-3.1-9.5v-.7c0-2.5.5-4.7,1.4-6.6s2.2-3.4,3.9-4.5,3.7-1.6,6-1.6c2.8,0,5.2.9,7.1,2.6s2.9,3.9,3,6.6h-4.1c-.1-1.6-.7-3-1.9-4s-2.5-1.6-4.1-1.6c-2.2,0-3.9.8-5.1,2.4s-1.8,3.9-1.8,6.9v.8c0,2.9.6,5.2,1.8,6.8s2.9,2.4,5.1,2.4Z" fill="#c9d1d9"/>
    <path d="m1100.5,1082.6l5.9-19h4.6l-10.2,29.3c-1.6,4.2-4.1,6.3-7.5,6.3l-.8-.1-1.6-.3v-3.5l1.2.1c1.5,0,2.6-.3,3.4-.9s1.5-1.7,2-3.3l1-2.6-9-25.1h4.7l6.3,19.1Z" fill="#c9d1d9"/>
  </g>
  <g isolation="isolate">
    <path d="m1126.3,1089l3.8-22h-3.9l.6-3.4h3.9l.4-3c.4-2.5,1.4-4.5,3-6s3.7-2.2,6.3-2.2c.8,0,1.8.1,3,.4l-.5,3.6c-.8-.2-1.5-.2-2.3-.3-1.5,0-2.7.5-3.6,1.4s-1.5,2.1-1.7,3.6l-.4,2.5h5.2l-.6,3.4h-5.2l-3.8,22h-4.2Z" fill="#c9d1d9"/>
  </g>
  <g isolation="isolate">
    <path d="m1155.1,1056.9c0-.7.2-1.3.6-1.8s1.1-.7,1.9-.7,1.5.2,1.9.7.7,1.1.7,1.8-.2,1.3-.7,1.8-1.1.7-1.9.7-1.5-.2-1.9-.7-.6-1.1-.6-1.8Zm4.7,32.1h-4.3v-25.4h4.3v25.4Z" fill="#c9d1d9"/>
    <path d="m1170.8,1063.6l.1,3.2c1.9-2.4,4.5-3.7,7.6-3.7,5.4,0,8.1,3,8.1,9.1v16.8h-4.3v-16.8c0-1.8-.4-3.2-1.3-4.1s-2.1-1.3-3.8-1.3c-1.4,0-2.6.4-3.7,1.1s-1.9,1.7-2.5,3v18.1h-4.3v-25.4h4.1Z" fill="#c9d1d9"/>
    <path d="m1232,1089h-4.5v-15.8h-17.2v15.8h-4.5v-34.1h4.5v14.7h17.2v-14.7h4.5v34.1Z" fill="#c9d1d9"/>
    <path d="m1243.4,1085.5h14.8v3.5h-20.1v-3.2l14-18.6h-13.8v-3.6h19.2v3.1l-14.1,18.8Z" fill="#c9d1d9"/>
  </g>
  <g isolation="isolate">
    <path d="m1012.6,1146.6l3.8-22h-3.9l.6-3.4h3.9l.4-3c.4-2.5,1.4-4.5,3-6s3.7-2.2,6.3-2.2c.8,0,1.8.1,3,.4l-.5,3.6c-.8-.2-1.5-.2-2.3-.3-1.5,0-2.7.5-3.6,1.4s-1.5,2.1-1.7,3.6l-.4,2.5h5.2l-.6,3.4h-5.2l-3.8,22h-4.2Z" fill="#c9d1d9"/>
  </g>
  <g isolation="isolate">
    <path d="m1061.2,1127.5h-19.5v-3.8h19.5v3.8Zm0,9.7h-19.5v-3.8h19.5v3.8Z" fill="#c9d1d9"/>
    <path d="m1093.4,1146.6h-4.4v-28.9l-8.7,3.2v-3.9l12.4-4.7h.7v34.3Z" fill="#c9d1d9"/>
    <path d="m1107.5,1149.5h-3.7l14.2-37.1h3.7l-14.2,37.1Z" fill="#c9d1d9"/>
  </g>
  <g isolation="isolate">
    <path d="m1152.6,1116.2h-10.6l-5.3,30.4h-4.4l5.3-30.4h-10.6l.7-3.7h25.6l-.7,3.7Z" fill="#c9d1d9"/>
  </g>
  <g isolation="isolate">
    <path d="m1536.3,113.9c1.5,0,2.9-.5,4.1-1.4s1.8-2.1,1.9-3.5h4.1c-.1,1.5-.6,2.8-1.5,4.1s-2.2,2.4-3.7,3.1-3.2,1.2-4.9,1.2c-3.5,0-6.2-1.2-8.2-3.5s-3.1-5.5-3.1-9.5v-.7c0-2.5.5-4.7,1.4-6.6s2.2-3.4,3.9-4.5,3.7-1.6,6-1.6c2.8,0,5.2.9,7.1,2.6s2.9,3.9,3,6.6h-4.1c-.1-1.6-.7-3-1.9-4s-2.5-1.6-4.1-1.6c-2.2,0-3.9.8-5.1,2.4s-1.8,3.9-1.8,6.9v.8c0,2.9.6,5.2,1.8,6.8s2.8,2.4,5.1,2.4Z" fill="#c9d1d9"/>
  </g>
  <g isolation="isolate">
    <path d="m1563.5,95.5c-.7-.1-1.4-.2-2.1-.2-2.8,0-4.8,1.2-5.8,3.6v18h-4.3v-25.3h4.2l.1,2.9c1.4-2.3,3.4-3.4,6-3.4.8,0,1.5.1,1.9.3v4.1h0Z" fill="#c9d1d9"/>
  </g>
  <g isolation="isolate">
    <path d="m1577.5,117.5c-3.4,0-6.2-1.1-8.4-3.4s-3.2-5.3-3.2-9.1v-.8c0-2.5.5-4.8,1.4-6.7s2.3-3.5,4-4.6,3.6-1.7,5.6-1.7c3.3,0,5.9,1.1,7.7,3.3s2.7,5.3,2.7,9.3v1.8h-17.2c.1,2.5.8,4.5,2.2,6.1s3.2,2.3,5.3,2.3c1.5,0,2.8-.3,3.9-.9s2-1.5,2.8-2.5l2.6,2.1c-1.9,3.1-5.1,4.8-9.4,4.8Zm-.5-22.8c-1.8,0-3.2.6-4.4,1.9s-1.9,3.1-2.2,5.4h12.7v-.3c-.1-2.2-.7-3.9-1.8-5.1s-2.5-1.9-4.3-1.9Z" fill="#c9d1d9"/>
    <path d="m1607.2,110.3c0-1.2-.4-2.1-1.3-2.7s-2.4-1.2-4.6-1.7-3.9-1-5.2-1.7-2.2-1.4-2.9-2.3-.9-2-.9-3.2c0-2.1.9-3.8,2.6-5.3s4-2.2,6.7-2.2c2.9,0,5.2.7,7,2.2s2.7,3.4,2.7,5.7h-4.4c0-1.2-.5-2.2-1.5-3.1s-2.3-1.3-3.8-1.3c-1.6,0-2.8.3-3.7,1s-1.3,1.6-1.3,2.7c0,1,.4,1.8,1.2,2.4s2.3,1,4.5,1.5,3.9,1.1,5.3,1.7,2.3,1.5,3,2.4,1,2.1,1,3.5c0,2.3-.9,4.1-2.7,5.4s-4.2,2.1-7.1,2.1c-2,0-3.8-.4-5.4-1.1s-2.8-1.7-3.7-3-1.3-2.7-1.3-4.2h4.3c.1,1.5.7,2.6,1.7,3.5s2.5,1.3,4.3,1.3c1.6,0,3-.3,3.9-1s1.6-1.5,1.6-2.6Z" fill="#c9d1d9"/>
    <path d="m1623.1,85.5v6.1h4.7v3.4h-4.7v15.7c0,1,.2,1.8.6,2.3s1.1.8,2.2.8c.5,0,1.2-.1,2.1-.3v3.5c-1.1.3-2.2.5-3.3.5-1.9,0-3.4-.6-4.4-1.8s-1.5-2.8-1.5-5v-15.7h-4.6v-3.4h4.6v-6.1h4.3Z" fill="#c9d1d9"/>
  </g>
  <g isolation="isolate">
    <path d="m1814.6,971.1v6.1h4.7v3.4h-4.7v15.7c0,1,.2,1.8.6,2.3s1.1.8,2.2.8c.5,0,1.2-.1,2.1-.3v3.5c-1.1.3-2.2.5-3.3.5-1.9,0-3.4-.6-4.4-1.8s-1.5-2.8-1.5-5v-15.7h-4.6v-3.4h4.6v-6.1h4.3Z" fill="#c9d1d9"/>
  </g>
  <g isolation="isolate">
    <path d="m1836.6,981.1c-.7-.1-1.4-.2-2.1-.2-2.8,0-4.8,1.2-5.8,3.6v18h-4.3v-25.4h4.2l.1,2.9c1.4-2.3,3.4-3.4,6-3.4.8,0,1.5.1,1.9.3v4.2h0Z" fill="#c9d1d9"/>
  </g>
  <g isolation="isolate">
    <path d="m1839,989.7c0-2.5.5-4.7,1.5-6.7s2.3-3.5,4.1-4.6,3.7-1.6,6-1.6c3.5,0,6.2,1.2,8.4,3.6s3.2,5.6,3.2,9.5v.3c0,2.5-.5,4.7-1.4,6.6s-2.3,3.5-4.1,4.6-3.8,1.6-6.1,1.6c-3.4,0-6.2-1.2-8.4-3.6s-3.2-5.6-3.2-9.5v-.2Zm4.3.5c0,2.8.7,5.1,2,6.8s3.1,2.6,5.2,2.6c2.2,0,4-.9,5.2-2.6s1.9-4.1,1.9-7.3c0-2.8-.7-5-2-6.8s-3.1-2.6-5.3-2.6c-2.1,0-3.9.9-5.2,2.6s-1.8,4.1-1.8,7.3Z" fill="#c9d1d9"/>
    <path d="m1883.2,1000.1c-1.7,2-4.2,3-7.4,3-2.7,0-4.8-.8-6.2-2.4s-2.1-3.9-2.1-7v-16.5h4.3v16.4c0,3.8,1.6,5.8,4.7,5.8,3.3,0,5.5-1.2,6.6-3.7v-18.4h4.3v25.4h-4.1l-.1-2.6Z" fill="#c9d1d9"/>
    <path d="m1892.9,989.7c0-4,.9-7.1,2.7-9.4s4.2-3.5,7.3-3.5,5.5,1.1,7.2,3.3l.2-2.8h4v24.8c0,3.3-1,5.9-2.9,7.8s-4.6,2.8-7.8,2.8c-1.8,0-3.6-.4-5.4-1.2s-3.1-1.9-4-3.2l2.2-2.6c1.9,2.3,4.1,3.4,6.8,3.4,2.1,0,3.8-.6,4.9-1.8s1.8-2.9,1.8-5v-2.2c-1.7,2-4.1,3-7.1,3s-5.4-1.2-7.2-3.6-2.7-5.7-2.7-9.8Zm4.4.5c0,2.9.6,5.1,1.8,6.7s2.8,2.4,4.9,2.4c2.7,0,4.7-1.2,6-3.7v-11.6c-1.3-2.4-3.3-3.6-6-3.6-2.1,0-3.8.8-4.9,2.5s-1.8,4.1-1.8,7.3Z" fill="#c9d1d9"/>
    <path d="m1925.2,980.3c1.9-2.4,4.4-3.5,7.5-3.5,5.4,0,8.1,3,8.1,9.1v16.8h-4.3v-16.8c0-1.8-.4-3.2-1.3-4.1s-2.1-1.3-3.8-1.3c-1.4,0-2.6.4-3.7,1.1s-1.9,1.7-2.5,3v18.1h-4.3v-36h4.3v13.6h0Z" fill="#c9d1d9"/>
  </g>
  <g>
    <line x1="1080" y1="1008" x2="1080" y2="1002" fill="none" stroke="#c9d1d9" stroke-miterlimit="10" stroke-width="4"/>
    <line x1="1080" y1="990" x2="1080" y2="156" fill="none" stroke="#c9d1d9" stroke-dasharray="0 0 0 0 0 0 12 12" stroke-miterlimit="10" stroke-width="4"/>
    <line x1="1080" y1="150" x2="1080" y2="144" fill="none" stroke="#c9d1d9" stroke-miterlimit="10" stroke-width="4"/>
  </g>
  <g>
    <line x1="1404" y1="1008" x2="1404" y2="1002" fill="none" stroke="#c9d1d9" stroke-miterlimit="10" stroke-width="4"/>
    <line x1="1404" y1="990" x2="1404" y2="588" fill="none" stroke="#c9d1d9" stroke-dasharray="0 0 0 0 0 0 12 12" stroke-miterlimit="10" stroke-width="4"/>
    <line x1="1404" y1="582" x2="1404" y2="576" fill="none" stroke="#c9d1d9" stroke-miterlimit="10" stroke-width="4"/>
  </g>
  <g>
    <line x1="1728" y1="1008" x2="1728" y2="1002" fill="none" stroke="#c9d1d9" stroke-miterlimit="10" stroke-width="4"/>
    <line x1="1728" y1="990" x2="1728" y2="588" fill="none" stroke="#c9d1d9" stroke-dasharray="0 0 0 0 0 0 12 12" stroke-miterlimit="10" stroke-width="4"/>
    <line x1="1728" y1="582" x2="1728" y2="576" fill="none" stroke="#c9d1d9" stroke-miterlimit="10" stroke-width="4"/>
  </g>
  <g>
    <path d="m1849.9,368.8c0,3.9-.9,7-2.7,9.3s-4.2,3.5-7.2,3.5-5.5-1-7.3-2.9v12.3h-4.3v-35.1h4l.2,2.8c1.8-2.2,4.2-3.3,7.4-3.3s5.5,1.1,7.2,3.5,2.7,5.5,2.7,9.6v.3h0Zm-4.3-.5c0-2.9-.6-5.1-1.8-6.8s-2.9-2.5-5-2.5c-2.6,0-4.6,1.2-5.9,3.5v12.1c1.3,2.3,3.3,3.5,5.9,3.5,2.1,0,3.7-.8,5-2.5s1.7-4,1.8-7.3h0Z" fill="#c9d1d9"/>
    <path d="m1854.3,368.3c0-2.5.5-4.7,1.5-6.7s2.3-3.5,4.1-4.6,3.7-1.6,6-1.6c3.4,0,6.2,1.2,8.4,3.6s3.2,5.6,3.2,9.5v.3c0,2.5-.5,4.7-1.4,6.6s-2.3,3.5-4.1,4.6-3.8,1.6-6.1,1.6c-3.4,0-6.2-1.2-8.4-3.6s-3.2-5.5-3.2-9.5v-.2h0Zm4.3.5c0,2.8.7,5.1,2,6.8s3.1,2.5,5.2,2.5,3.9-.9,5.2-2.6,1.9-4.1,1.9-7.2c0-2.8-.7-5-2-6.8s-3.1-2.6-5.3-2.6-3.9.9-5.2,2.5-1.8,4.2-1.8,7.4h0Z" fill="#c9d1d9"/>
    <path d="m1897.6,374.5c0-1.2-.4-2.1-1.3-2.7s-2.4-1.2-4.6-1.7-3.9-1-5.2-1.7-2.2-1.4-2.9-2.3-.9-2-.9-3.2c0-2.1.9-3.8,2.6-5.3s4-2.2,6.7-2.2c2.9,0,5.2.7,7,2.2s2.7,3.4,2.7,5.7h-4.4c0-1.2-.5-2.2-1.5-3.1s-2.3-1.3-3.8-1.3-2.8.3-3.7,1-1.3,1.6-1.3,2.7c0,1,.4,1.8,1.2,2.4s2.3,1,4.5,1.5,3.9,1.1,5.3,1.7,2.3,1.5,3,2.4,1,2.1,1,3.5c0,2.3-.9,4.1-2.7,5.5s-4.2,2-7.1,2c-2,0-3.8-.4-5.4-1.1s-2.8-1.7-3.7-3-1.3-2.7-1.3-4.2h4.3c.1,1.5.7,2.6,1.8,3.5s2.5,1.3,4.3,1.3c1.6,0,3-.3,3.9-1s1.5-1.5,1.5-2.6h0Z" fill="#c9d1d9"/>
    <path d="m1913.4,349.7v6.1h4.7v3.4h-4.7v15.8c0,1,.2,1.8.6,2.3s1.1.8,2.2.8c.5,0,1.2-.1,2.1-.3v3.5c-1.1.3-2.2.5-3.3.5-1.9,0-3.4-.6-4.4-1.8s-1.5-2.8-1.5-5v-15.7h-4.6v-3.4h4.6v-6.1l4.3-.1h0Z" fill="#c9d1d9"/>
    <path d="m1923.2,349.1c0-.7.2-1.3.6-1.8s1.1-.7,1.9-.7,1.5.2,1.9.7.7,1.1.7,1.8-.2,1.3-.7,1.8-1.1.7-1.9.7-1.5-.2-1.9-.7-.6-1-.6-1.8Zm4.7,32.1h-4.3v-25.4h4.3v25.4h0Z" fill="#c9d1d9"/>
    <path d="m1940.8,349.7v6.1h4.7v3.4h-4.7v15.8c0,1,.2,1.8.6,2.3s1.1.8,2.2.8c.5,0,1.2-.1,2.1-.3v3.5c-1.1.3-2.2.5-3.3.5-1.9,0-3.4-.6-4.4-1.8s-1.5-2.8-1.5-5v-15.7h-4.6v-3.4h4.6v-6.1l4.3-.1h0Z" fill="#c9d1d9"/>
    <path d="m1950.6,349.1c0-.7.2-1.3.6-1.8s1.1-.7,1.9-.7,1.5.2,1.9.7.7,1.1.7,1.8-.2,1.3-.7,1.8-1.1.7-1.9.7-1.5-.2-1.9-.7-.6-1-.6-1.8Zm4.7,32.1h-4.3v-25.4h4.3v25.4h0Z" fill="#c9d1d9"/>
    <path d="m1970.6,375.3l6.3-19.5h4.4l-9.1,25.4h-3.3l-9.2-25.4h4.4l6.5,19.5h0Z" fill="#c9d1d9"/>
    <path d="m1995.7,381.7c-3.4,0-6.2-1.1-8.4-3.4s-3.2-5.3-3.2-9.1v-.8c0-2.5.5-4.8,1.4-6.7s2.3-3.5,4-4.6,3.6-1.7,5.6-1.7c3.3,0,5.9,1.1,7.7,3.3s2.7,5.3,2.7,9.3v1.8h-17.2c.1,2.5.8,4.5,2.2,6.1s3.2,2.3,5.3,2.3c1.5,0,2.8-.3,3.9-.9s2-1.5,2.8-2.5l2.7,2.1c-2.1,3.2-5.3,4.8-9.5,4.8h0Zm-.6-22.7c-1.8,0-3.2.6-4.4,1.9s-1.9,3.1-2.2,5.4h12.7v-.3c-.1-2.2-.7-3.9-1.8-5.1s-2.5-1.9-4.3-1.9h0Z" fill="#c9d1d9"/>
    <path d="m1832.8,416.5c1.9-2.4,4.4-3.5,7.5-3.5,5.4,0,8.1,3,8.1,9.1v16.8h-4.3v-16.8c0-1.8-.4-3.2-1.2-4s-2.1-1.3-3.8-1.3c-1.4,0-2.6.4-3.7,1.1s-1.9,1.7-2.5,3v18.1h-4.3v-36h4.3l-.1,13.5h0Z" fill="#c9d1d9"/>
    <path d="m1870.6,438.8c-.2-.5-.4-1.4-.6-2.7-2,2.1-4.4,3.1-7.2,3.1-2.5,0-4.6-.7-6.2-2.1s-2.4-3.2-2.4-5.4c0-2.6,1-4.7,3-6.1s4.8-2.2,8.5-2.2h4.2v-2c0-1.5-.4-2.7-1.4-3.6s-2.2-1.4-4-1.4c-1.6,0-2.8.4-3.9,1.2s-1.6,1.7-1.6,2.8h-4.4c0-1.3.4-2.5,1.3-3.7s2.1-2.1,3.7-2.8,3.2-1,5.1-1c2.9,0,5.2.7,6.9,2.2s2.5,3.5,2.6,6v11.7c0,2.3.3,4.2.9,5.5v.4l-4.5.1h0Zm-7.2-3.3c1.4,0,2.7-.4,3.9-1s2.1-1.6,2.7-2.7v-5.2h-3.4c-5.3,0-8,1.5-8,4.7,0,1.4.4,2.4,1.4,3.2s2,1,3.4,1h0Z" fill="#c9d1d9"/>
    <path d="m1885.7,438.8h-4.3v-36h4.3v36Z" fill="#c9d1d9"/>
    <path d="m1894.8,438.8v-22h-4v-3.4h4v-2.6c0-2.7.7-4.8,2.2-6.3s3.5-2.2,6.2-2.2c1,0,2,.1,3,.4l-.2,3.5c-.7-.1-1.5-.2-2.3-.2-1.4,0-2.5.4-3.3,1.2s-1.2,2-1.2,3.5v2.7h5.4v3.4h-5.4v22h-4.4Z" fill="#c9d1d9"/>
    <path d="m1931.4,435.8c1.6,0,2.9-.5,4.1-1.4s1.8-2.1,1.9-3.5h4.1c-.1,1.5-.6,2.8-1.5,4.1s-2.2,2.4-3.7,3.1-3.2,1.2-4.9,1.2c-3.4,0-6.2-1.1-8.2-3.5s-3.1-5.5-3.1-9.5v-.7c0-2.5.4-4.7,1.4-6.6s2.2-3.4,3.9-4.5,3.7-1.6,6-1.6c2.8,0,5.2.9,7.1,2.5s2.9,3.9,3,6.6h-4.1c-.1-1.6-.8-3-1.9-4s-2.5-1.6-4.1-1.6c-2.2,0-3.9.8-5.1,2.4s-1.8,3.9-1.8,6.9v.8c0,2.9.6,5.2,1.8,6.8s2.8,2.4,5.1,2.5h0Z" fill="#c9d1d9"/>
    <path d="m1954.7,432.5l5.9-19h4.6l-10.2,29.3c-1.6,4.2-4.1,6.3-7.5,6.3l-.8-.1-1.6-.3v-3.5l1.2.1c1.5,0,2.6-.3,3.4-.9s1.5-1.7,2-3.3l1-2.6-9.1-25.1h4.7l6.4,19.1h0Z" fill="#c9d1d9"/>
    <path d="m1978.9,435.8c1.6,0,2.9-.5,4.1-1.4s1.8-2.1,1.9-3.5h4.1c-.1,1.5-.6,2.8-1.5,4.1s-2.2,2.4-3.7,3.1-3.2,1.2-4.9,1.2c-3.4,0-6.2-1.1-8.2-3.5s-3.1-5.5-3.1-9.5v-.7c0-2.5.4-4.7,1.4-6.6s2.2-3.4,3.9-4.5,3.7-1.6,6-1.6c2.8,0,5.2.9,7.1,2.5s2.9,3.9,3,6.6h-4.1c-.1-1.6-.8-3-1.9-4s-2.5-1.6-4.1-1.6c-2.2,0-3.9.8-5.1,2.4s-1.8,3.9-1.8,6.9v.8c0,2.9.6,5.2,1.8,6.8s2.9,2.4,5.1,2.5h0Z" fill="#c9d1d9"/>
    <path d="m1998.6,438.8h-4.3v-36h4.3v36Z" fill="#c9d1d9"/>
    <path d="m2016.1,439.3c-3.4,0-6.2-1.1-8.4-3.4s-3.2-5.3-3.2-9.1v-.8c0-2.5.5-4.8,1.4-6.7s2.3-3.5,4-4.6,3.6-1.7,5.6-1.7c3.3,0,5.9,1.1,7.7,3.3s2.7,5.3,2.7,9.3v1.8h-17.2c.1,2.5.8,4.5,2.2,6.1s3.2,2.3,5.3,2.3c1.5,0,2.8-.3,3.9-.9s2-1.5,2.8-2.5l2.7,2.1c-2.1,3.2-5.3,4.8-9.5,4.8h0Zm-.6-22.7c-1.8,0-3.2.6-4.4,1.9s-1.9,3.1-2.2,5.4h12.7v-.3c-.1-2.2-.7-3.9-1.8-5.1s-2.5-1.9-4.3-1.9h0Z" fill="#c9d1d9"/>
  </g>
  <g>
    <path d="m1832.6,751.9l.1,3.2c1.9-2.4,4.5-3.7,7.6-3.7,5.4,0,8.1,3,8.1,9.1v16.8h-4.3v-16.8c0-1.8-.4-3.2-1.2-4s-2.1-1.3-3.8-1.3c-1.4,0-2.6.4-3.7,1.1s-1.9,1.7-2.5,3v18.1h-4.3v-25.4l4-.1h0Z" fill="#c9d1d9"/>
    <path d="m1865.5,777.7c-3.4,0-6.2-1.1-8.4-3.4s-3.2-5.3-3.2-9.1v-.8c0-2.5.5-4.8,1.4-6.7s2.3-3.5,4-4.6,3.6-1.7,5.6-1.7c3.3,0,5.9,1.1,7.7,3.3s2.7,5.3,2.7,9.3v1.8h-17.2c.1,2.5.8,4.5,2.2,6.1s3.2,2.3,5.3,2.3c1.5,0,2.8-.3,3.9-.9s2-1.5,2.8-2.5l2.7,2.1c-2.1,3.2-5.3,4.8-9.5,4.8h0Zm-.6-22.7c-1.8,0-3.2.6-4.4,1.9s-1.9,3.1-2.2,5.4h12.7v-.3c-.1-2.2-.7-3.9-1.8-5.1s-2.4-1.9-4.3-1.9h0Z" fill="#c9d1d9"/>
    <path d="m1879.4,764.3c0-4,.9-7.1,2.7-9.4s4.2-3.5,7.3-3.5,5.5,1.1,7.2,3.3l.2-2.8h4v24.8c0,3.3-1,5.9-2.9,7.8s-4.6,2.8-7.8,2.8c-1.8,0-3.6-.4-5.4-1.2s-3.1-1.8-4-3.2l2.2-2.6c1.9,2.3,4.1,3.5,6.8,3.5,2.1,0,3.8-.6,4.9-1.8s1.8-2.9,1.8-5v-2.2c-1.7,2-4.1,3-7.1,3s-5.4-1.2-7.2-3.6-2.8-5.7-2.7-9.9h0Zm4.3.5c0,2.9.6,5.1,1.8,6.7s2.8,2.5,4.9,2.5c2.7,0,4.7-1.2,6-3.7v-11.6c-1.3-2.4-3.3-3.6-6-3.6-2.1,0-3.8.8-4.9,2.5s-1.8,4-1.8,7.2h0Z" fill="#c9d1d9"/>
    <path d="m1923,777.2c-.2-.5-.4-1.4-.6-2.7-2,2.1-4.4,3.1-7.2,3.1-2.5,0-4.6-.7-6.2-2.1s-2.4-3.2-2.4-5.4c0-2.6,1-4.7,3-6.2s4.8-2.2,8.5-2.2h4.2v-2c0-1.5-.4-2.7-1.4-3.6s-2.2-1.3-4-1.3c-1.6,0-2.8.4-3.9,1.2s-1.6,1.7-1.6,2.8h-4.4c0-1.3.4-2.5,1.3-3.7s2.1-2.1,3.7-2.8,3.2-1,5.1-1c2.9,0,5.2.7,6.9,2.2s2.5,3.5,2.6,6v11.7c0,2.3.3,4.2.9,5.5v.4l-4.5.1h0Zm-7.2-3.3c1.4,0,2.7-.3,3.9-1s2.1-1.6,2.7-2.7v-5.2h-3.4c-5.3,0-8,1.5-8,4.7,0,1.4.4,2.4,1.4,3.2s2,1,3.4,1h0Z" fill="#c9d1d9"/>
    <path d="m1939.3,745.7v6.1h4.7v3.3h-4.7v15.9c0,1,.2,1.8.6,2.3s1.1.8,2.2.8c.5,0,1.2-.1,2.1-.3v3.5c-1.1.3-2.2.5-3.3.5-1.9,0-3.4-.6-4.4-1.8s-1.5-2.8-1.5-5v-15.7h-4.6v-3.3h4.6v-6.1l4.3-.2h0Z" fill="#c9d1d9"/>
    <path d="m1949.1,745.1c0-.7.2-1.3.6-1.8s1.1-.7,1.9-.7,1.5.2,1.9.7.7,1.1.7,1.8-.2,1.3-.7,1.8-1.1.7-1.9.7-1.5-.2-1.9-.7-.6-1-.6-1.8Zm4.7,32.1h-4.3v-25.4h4.3v25.4Z" fill="#c9d1d9"/>
    <path d="m1969.1,771.3l6.3-19.5h4.4l-9.1,25.4h-3.3l-9.2-25.4h4.4l6.5,19.5h0Z" fill="#c9d1d9"/>
    <path d="m1994.2,777.7c-3.4,0-6.2-1.1-8.4-3.4s-3.2-5.3-3.2-9.1v-.8c0-2.5.5-4.8,1.4-6.7s2.3-3.5,4-4.6,3.6-1.7,5.6-1.7c3.3,0,5.9,1.1,7.7,3.3s2.7,5.3,2.7,9.3v1.8h-17.2c.1,2.5.8,4.5,2.2,6.1s3.2,2.3,5.3,2.3c1.5,0,2.8-.3,3.9-.9s2-1.5,2.8-2.5l2.7,2.1c-2,3.2-5.2,4.8-9.5,4.8h0Zm-.5-22.7c-1.8,0-3.2.6-4.4,1.9s-1.9,3.1-2.2,5.4h12.7v-.3c-.1-2.2-.7-3.9-1.8-5.1s-2.5-1.9-4.3-1.9h0Z" fill="#c9d1d9"/>
    <path d="m1832.8,812.5c1.9-2.4,4.4-3.5,7.5-3.5,5.4,0,8.1,3,8.1,9.1v16.8h-4.3v-16.9c0-1.8-.4-3.2-1.2-4s-2.1-1.3-3.8-1.3c-1.4,0-2.6.4-3.7,1.1s-1.9,1.7-2.5,3v18.1h-4.3v-36h4.3l-.1,13.6h0Z" fill="#c9d1d9"/>
    <path d="m1870.6,834.8c-.2-.5-.4-1.4-.6-2.7-2,2.1-4.4,3.1-7.2,3.1-2.5,0-4.6-.7-6.2-2.1s-2.4-3.2-2.4-5.4c0-2.6,1-4.7,3-6.2s4.8-2.2,8.5-2.2h4.2v-2c0-1.5-.4-2.7-1.4-3.6s-2.2-1.3-4-1.3c-1.6,0-2.8.4-3.9,1.2s-1.6,1.7-1.6,2.8h-4.4c0-1.3.4-2.5,1.3-3.7s2.1-2.1,3.7-2.8,3.2-1,5.1-1c2.9,0,5.2.7,6.9,2.2s2.5,3.5,2.6,6v11.7c0,2.3.3,4.2.9,5.5v.4l-4.5.1h0Zm-7.2-3.3c1.4,0,2.7-.3,3.9-1s2.1-1.6,2.7-2.7v-5.2h-3.4c-5.3,0-8,1.5-8,4.7,0,1.4.4,2.4,1.4,3.2s2,1,3.4,1h0Z" fill="#c9d1d9"/>
    <path d="m1885.7,834.8h-4.3v-36h4.3v36Z" fill="#c9d1d9"/>
    <path d="m1894.8,834.8v-22h-4v-3.3h4v-2.6c0-2.7.7-4.8,2.2-6.3s3.5-2.2,6.2-2.2c1,0,2,.1,3,.4l-.2,3.5c-.7-.1-1.5-.2-2.3-.2-1.4,0-2.5.4-3.3,1.2s-1.2,2-1.2,3.5v2.7h5.4v3.3h-5.4v22h-4.4Z" fill="#c9d1d9"/>
    <path d="m1931.4,831.8c1.6,0,2.9-.5,4.1-1.4s1.8-2.1,1.9-3.5h4.1c-.1,1.5-.6,2.8-1.5,4.2s-2.2,2.4-3.7,3.1-3.2,1.2-4.9,1.2c-3.4,0-6.2-1.2-8.2-3.5s-3.1-5.5-3.1-9.5v-.7c0-2.5.4-4.7,1.4-6.6s2.2-3.4,3.9-4.5,3.7-1.6,6-1.6c2.8,0,5.2.8,7.1,2.5s2.9,3.9,3,6.6h-4.1c-.1-1.6-.8-3-1.9-4s-2.5-1.6-4.1-1.6c-2.2,0-3.9.8-5.1,2.4s-1.8,3.9-1.8,6.9v.8c0,2.9.6,5.2,1.8,6.8s2.8,2.3,5.1,2.4h0Z" fill="#c9d1d9"/>
    <path d="m1954.7,828.5l5.9-19h4.6l-10.2,29.3c-1.6,4.2-4.1,6.3-7.5,6.3l-.8-.1-1.6-.3v-3.5l1.2.1c1.5,0,2.6-.3,3.4-.9s1.5-1.7,2-3.3l1-2.6-9.1-25.1h4.7l6.4,19.1h0Z" fill="#c9d1d9"/>
    <path d="m1978.9,831.8c1.6,0,2.9-.5,4.1-1.4s1.8-2.1,1.9-3.5h4.1c-.1,1.5-.6,2.8-1.5,4.2s-2.2,2.4-3.7,3.1-3.2,1.2-4.9,1.2c-3.4,0-6.2-1.2-8.2-3.5s-3.1-5.5-3.1-9.5v-.7c0-2.5.4-4.7,1.4-6.6s2.2-3.4,3.9-4.5,3.7-1.6,6-1.6c2.8,0,5.2.8,7.1,2.5s2.9,3.9,3,6.6h-4.1c-.1-1.6-.8-3-1.9-4s-2.5-1.6-4.1-1.6c-2.2,0-3.9.8-5.1,2.4s-1.8,3.9-1.8,6.9v.8c0,2.9.6,5.2,1.8,6.8s2.9,2.3,5.1,2.4h0Z" fill="#c9d1d9"/>
    <path d="m1998.6,834.8h-4.3v-36h4.3v36Z" fill="#c9d1d9"/>
    <path d="m2016.1,835.3c-3.4,0-6.2-1.1-8.4-3.4s-3.2-5.3-3.2-9.1v-.8c0-2.5.5-4.8,1.4-6.7s2.3-3.5,4-4.6,3.6-1.7,5.6-1.7c3.3,0,5.9,1.1,7.7,3.3s2.7,5.3,2.7,9.3v1.8h-17.2c.1,2.5.8,4.5,2.2,6.1s3.2,2.3,5.3,2.3c1.5,0,2.8-.3,3.9-.9s2-1.5,2.8-2.5l2.7,2.1c-2.1,3.2-5.3,4.8-9.5,4.8h0Zm-.6-22.7c-1.8,0-3.2.6-4.4,1.9s-1.9,3.1-2.2,5.4h12.7v-.3c-.1-2.2-.7-3.9-1.8-5.1s-2.5-1.9-4.3-1.9h0Z" fill="#c9d1d9"/>
  </g>
  <g isolation="isolate">
    <path d="m393.9,935.8c0,5.1-.9,8.9-2.6,11.3s-4.4,3.7-8.1,3.7c-3.6,0-6.3-1.2-8.1-3.6s-2.7-6-2.7-10.8v-5.8c0-5,.9-8.7,2.6-11.2s4.5-3.7,8.2-3.7,6.4,1.2,8.1,3.5,2.6,6,2.7,10.9v5.7h-.1Zm-4.4-5.9c0-3.7-.5-6.3-1.5-8s-2.7-2.5-4.9-2.5-3.8.8-4.9,2.5-1.5,4.2-1.6,7.7v6.9c0,3.7.5,6.4,1.6,8.2s2.7,2.6,4.9,2.6c2.1,0,3.7-.8,4.8-2.5s1.6-4.3,1.6-7.8v-7.1Z" fill="#c9d1d9"/>
  </g>
  <g isolation="isolate">
    <path d="m354.3,575.5c0,5.1-.9,8.9-2.6,11.3s-4.4,3.7-8.1,3.7c-3.6,0-6.3-1.2-8.1-3.6s-2.7-6-2.7-10.8v-5.8c0-5,.9-8.7,2.6-11.2s4.5-3.7,8.2-3.7,6.4,1.2,8.1,3.5,2.6,6,2.7,10.9v5.7h-.1Zm-4.4-6c0-3.7-.5-6.3-1.5-8s-2.7-2.5-4.9-2.5-3.8.8-4.9,2.5-1.5,4.2-1.6,7.7v6.9c0,3.7.5,6.4,1.6,8.2s2.7,2.6,4.9,2.6c2.1,0,3.7-.8,4.8-2.5s1.6-4.3,1.6-7.8v-7.1Z" fill="#c9d1d9"/>
    <path d="m360.4,587.8c0-.8.2-1.4.7-1.9s1.1-.8,2-.8,1.6.2,2,.8.7,1.1.7,1.9c0,.7-.2,1.3-.7,1.8s-1.1.7-2,.7-1.6-.2-2-.7-.7-1.1-.7-1.8Z" fill="#c9d1d9"/>
    <path d="m393.9,575.5c0,5.1-.9,8.9-2.6,11.3s-4.4,3.7-8.1,3.7c-3.6,0-6.3-1.2-8.1-3.6s-2.7-6-2.7-10.8v-5.8c0-5,.9-8.7,2.6-11.2s4.5-3.7,8.2-3.7,6.4,1.2,8.1,3.5,2.6,6,2.7,10.9v5.7h-.1Zm-4.4-6c0-3.7-.5-6.3-1.5-8s-2.7-2.5-4.9-2.5-3.8.8-4.9,2.5-1.5,4.2-1.6,7.7v6.9c0,3.7.5,6.4,1.6,8.2s2.7,2.6,4.9,2.6c2.1,0,3.7-.8,4.8-2.5s1.6-4.3,1.6-7.8v-7.1Z" fill="#c9d1d9"/>
  </g>
  <g isolation="isolate">
    <path d="m393.9,215.5c0,5.1-.9,8.9-2.6,11.3s-4.4,3.7-8.1,3.7c-3.6,0-6.3-1.2-8.1-3.6s-2.7-6-2.7-10.8v-5.8c0-5,.9-8.7,2.6-11.2s4.5-3.7,8.2-3.7,6.4,1.2,8.1,3.5,2.6,6,2.7,10.9v5.7h-.1Zm-4.4-6c0-3.7-.5-6.3-1.5-8s-2.7-2.5-4.9-2.5-3.8.8-4.9,2.5-1.5,4.2-1.6,7.7v6.9c0,3.7.5,6.4,1.6,8.2s2.7,2.6,4.9,2.6c2.1,0,3.7-.8,4.8-2.5s1.6-4.3,1.6-7.8v-7.1Z" fill="#c9d1d9"/>
  </g>
  <line x1="412.2" y1="486" x2="432" y2="486" fill="none" stroke="#c9d1d9" stroke-miterlimit="10" stroke-width="4"/>
  <line x1="412.2" y1="576" x2="432" y2="576" fill="none" stroke="#c9d1d9" stroke-miterlimit="10" stroke-width="4"/>
  <line x1="412.2" y1="396" x2="432" y2="396" fill="none" stroke="#c9d1d9" stroke-miterlimit="10" stroke-width="4"/>
  <line x1="412.2" y1="306" x2="432" y2="306" fill="none" stroke="#c9d1d9" stroke-miterlimit="10" stroke-width="4"/>
  <line x1="412.2" y1="216" x2="432" y2="216" fill="none" stroke="#c9d1d9" stroke-miterlimit="10" stroke-width="4"/>
  <line x1="412.2" y1="936" x2="432" y2="936" fill="none" stroke="#c9d1d9" stroke-miterlimit="10" stroke-width="4"/>
  <line x1="412.2" y1="846" x2="432" y2="846" fill="none" stroke="#c9d1d9" stroke-miterlimit="10" stroke-width="4"/>
  <line x1="412.2" y1="756" x2="432" y2="756" fill="none" stroke="#c9d1d9" stroke-miterlimit="10" stroke-width="4"/>
  <line x1="412.2" y1="666" x2="432" y2="666" fill="none" stroke="#c9d1d9" stroke-miterlimit="10" stroke-width="4"/>
  <g isolation="isolate">
    <path d="m329.1,849.5h-11.4v-3.5h11.4v3.5Z" fill="#c9d1d9"/>
    <path d="m355.2,862.2h-22.4v-3.1l11.8-13.1c1.8-2,3-3.6,3.6-4.8s1-2.5,1-3.9c0-1.8-.5-3.2-1.6-4.4s-2.5-1.7-4.3-1.7c-2.2,0-3.8.6-5,1.8s-1.8,2.9-1.8,5.1h-4.3c0-3.1,1-5.7,3-7.6s4.7-2.9,8.1-2.9c3.2,0,5.7.8,7.5,2.5s2.8,3.9,2.8,6.6c0,3.4-2.1,7.4-6.4,12l-9.1,9.9h17.1v3.6h0Z" fill="#c9d1d9"/>
    <path d="m360.4,859.9c0-.8.2-1.4.7-1.9s1.1-.8,2-.8,1.6.2,2,.8.7,1.1.7,1.9c0,.7-.2,1.3-.7,1.8s-1.1.7-2,.7-1.6-.2-2-.7-.7-1.1-.7-1.8Z" fill="#c9d1d9"/>
    <path d="m374.5,845.1l1.7-17h17.5v4h-13.8l-1,9.3c1.7-1,3.6-1.5,5.7-1.5,3.1,0,5.6,1,7.4,3.1s2.7,4.8,2.7,8.3-.9,6.3-2.8,8.3-4.6,3-8,3c-3,0-5.5-.8-7.4-2.5s-3-4-3.3-6.9h4.1c.3,2,1,3.4,2.1,4.4s2.6,1.5,4.5,1.5c2,0,3.6-.7,4.7-2.1s1.7-3.3,1.7-5.7c0-2.3-.6-4.1-1.9-5.5s-2.9-2.1-5-2.1c-1.9,0-3.4.4-4.5,1.2l-1.1.9-3.3-.7Z" fill="#c9d1d9"/>
  </g>
  <g isolation="isolate">
    <path d="m368.7,761.3h-11.4v-3.5h11.4v3.5Z" fill="#c9d1d9"/>
    <path d="m389.5,739.9v3.7h-.8c-3.4.1-6.1,1.1-8.1,3s-3.2,4.7-3.5,8.2c1.8-2.1,4.2-3.1,7.4-3.1,3,0,5.3,1,7.1,3.1s2.7,4.8,2.7,8.1c0,3.5-1,6.3-2.9,8.4s-4.5,3.2-7.7,3.2c-3.3,0-5.9-1.3-7.9-3.8s-3-5.7-3-9.7v-1.7c0-6.3,1.3-11.1,4-14.4s6.7-5,12-5.1h.7v.1Zm-5.7,15.3c-1.5,0-2.9.4-4.1,1.3s-2.1,2-2.6,3.4v1.6c0,2.8.6,5.1,1.9,6.8s2.8,2.6,4.7,2.6c2,0,3.5-.7,4.6-2.2s1.7-3.3,1.7-5.6-.6-4.2-1.7-5.7-2.6-2.2-4.5-2.2Z" fill="#c9d1d9"/>
  </g>
  <g isolation="isolate">
    <path d="m341.7,665.9h-11.4v-3.5h11.4v3.5Z" fill="#c9d1d9"/>
    <path d="m359.8,678.6h-4.4v-28.9l-8.7,3.2v-3.9l12.4-4.7h.7v34.3Z" fill="#c9d1d9"/>
    <path d="m394.8,678.6h-22.4v-3.1l11.8-13.1c1.8-2,3-3.6,3.6-4.8s1-2.5,1-3.9c0-1.8-.5-3.2-1.6-4.4s-2.5-1.7-4.3-1.7c-2.2,0-3.8.6-5,1.8s-1.8,2.9-1.8,5.1h-4.3c0-3.1,1-5.7,3-7.6s4.7-2.9,8.1-2.9c3.2,0,5.7.8,7.5,2.5s2.8,3.9,2.8,6.6c0,3.4-2.1,7.4-6.4,12l-9.1,9.9h17.1v3.6h0Z" fill="#c9d1d9"/>
  </g>
  <g isolation="isolate">
    <path d="m329.1,305.9h-11.4v-3.5h11.4v3.5Z" fill="#c9d1d9"/>
    <path d="m355.2,318.6h-22.4v-3.1l11.8-13.1c1.8-2,3-3.6,3.6-4.8s1-2.5,1-3.9c0-1.8-.5-3.2-1.6-4.4s-2.5-1.7-4.3-1.7c-2.2,0-3.8.6-5,1.8s-1.8,2.9-1.8,5.1h-4.3c0-3.1,1-5.7,3-7.6s4.7-2.9,8.1-2.9c3.2,0,5.7.8,7.5,2.5s2.8,3.9,2.8,6.6c0,3.4-2.1,7.4-6.4,12l-9.1,9.9h17.1v3.6h0Z" fill="#c9d1d9"/>
    <path d="m360.4,316.3c0-.8.2-1.4.7-1.9s1.1-.8,2-.8,1.6.2,2,.8.7,1.1.7,1.9c0,.7-.2,1.3-.7,1.8s-1.1.7-2,.7-1.6-.2-2-.7-.7-1.1-.7-1.8Z" fill="#c9d1d9"/>
    <path d="m374.5,301.5l1.7-17h17.5v4h-13.8l-1,9.3c1.7-1,3.6-1.5,5.7-1.5,3.1,0,5.6,1,7.4,3.1s2.7,4.8,2.7,8.3-.9,6.3-2.8,8.3-4.6,3-8,3c-3,0-5.5-.8-7.4-2.5s-3-4-3.3-6.9h4.1c.3,2,1,3.4,2.1,4.4s2.6,1.5,4.5,1.5c2,0,3.6-.7,4.7-2.1s1.7-3.3,1.7-5.7c0-2.3-.6-4.1-1.9-5.5s-2.9-2.1-5-2.1c-1.9,0-3.4.4-4.5,1.2l-1.1.9-3.3-.7Z" fill="#c9d1d9"/>
  </g>
  <g isolation="isolate">
    <path d="m368.7,394.1h-11.4v-3.5h11.4v3.5Z" fill="#c9d1d9"/>
    <path d="m389.5,372.7v3.7h-.8c-3.4.1-6.1,1.1-8.1,3s-3.2,4.7-3.5,8.2c1.8-2.1,4.2-3.1,7.4-3.1,3,0,5.3,1,7.1,3.1s2.7,4.8,2.7,8.1c0,3.5-1,6.3-2.9,8.4s-4.5,3.2-7.7,3.2c-3.3,0-5.9-1.3-7.9-3.8s-3-5.7-3-9.7v-1.7c0-6.3,1.3-11.1,4-14.4s6.7-5,12-5.1h.7v.1Zm-5.7,15.3c-1.5,0-2.9.4-4.1,1.3s-2.1,2-2.6,3.4v1.6c0,2.8.6,5.1,1.9,6.8s2.8,2.6,4.7,2.6c2,0,3.5-.7,4.6-2.2s1.7-3.3,1.7-5.6-.6-4.2-1.7-5.7-2.6-2.2-4.5-2.2Z" fill="#c9d1d9"/>
  </g>
  <g isolation="isolate">
    <path d="m341.7,484.1h-11.4v-3.5h11.4v3.5Z" fill="#c9d1d9"/>
    <path d="m359.8,496.8h-4.4v-28.9l-8.7,3.2v-3.9l12.4-4.7h.7v34.3Z" fill="#c9d1d9"/>
    <path d="m394.8,496.8h-22.4v-3.1l11.8-13.1c1.8-2,3-3.6,3.6-4.8s1-2.5,1-3.9c0-1.8-.5-3.2-1.6-4.4s-2.5-1.7-4.3-1.7c-2.2,0-3.8.6-5,1.8s-1.8,2.9-1.8,5.1h-4.3c0-3.1,1-5.7,3-7.6s4.7-2.9,8.1-2.9c3.2,0,5.7.8,7.5,2.5s2.8,3.9,2.8,6.6c0,3.4-2.1,7.4-6.4,12l-9.1,9.9h17.1v3.6h0Z" fill="#c9d1d9"/>
  </g>
  <g isolation="isolate">
    <path d="m213.9,230h-4.4v-28.9l-8.7,3.2v-3.9l12.4-4.7h.7v34.3Z" fill="#c9d1d9"/>
    <path d="m248,215.5c0,5.1-.9,8.9-2.6,11.3s-4.4,3.7-8.1,3.7c-3.6,0-6.3-1.2-8.1-3.6s-2.7-6-2.7-10.8v-5.8c0-5,.9-8.7,2.6-11.2s4.5-3.7,8.2-3.7,6.4,1.2,8.1,3.5,2.6,6,2.7,10.9v5.7h-.1Zm-4.3-6c0-3.7-.5-6.3-1.5-8s-2.7-2.5-4.9-2.5-3.8.8-4.9,2.5-1.5,4.2-1.6,7.7v6.9c0,3.7.5,6.4,1.6,8.2s2.7,2.6,4.9,2.6c2.1,0,3.7-.8,4.8-2.5s1.6-4.3,1.6-7.8v-7.1h0Z" fill="#c9d1d9"/>
    <path d="m275,215.5c0,5.1-.9,8.9-2.6,11.3s-4.4,3.7-8.1,3.7c-3.6,0-6.3-1.2-8.1-3.6s-2.7-6-2.7-10.8v-5.8c0-5,.9-8.7,2.6-11.2,1.7-2.5,4.5-3.7,8.2-3.7s6.4,1.2,8.1,3.5,2.6,6,2.7,10.9v5.7h-.1Zm-4.4-6c0-3.7-.5-6.3-1.5-8s-2.7-2.5-4.9-2.5-3.8.8-4.9,2.5-1.5,4.2-1.6,7.7v6.9c0,3.7.5,6.4,1.6,8.2s2.7,2.6,4.9,2.6c2.1,0,3.7-.8,4.8-2.5s1.6-4.3,1.6-7.8v-7.1Z" fill="#c9d1d9"/>
  </g>
  <g isolation="isolate">
    <path d="m228.6,392.9l1.7-17h17.5v4h-13.8l-1,9.3c1.7-1,3.6-1.5,5.7-1.5,3.1,0,5.6,1,7.4,3.1s2.7,4.8,2.7,8.3-.9,6.3-2.8,8.3-4.6,3-8,3c-3,0-5.5-.8-7.4-2.5s-3-4-3.3-6.9h4.1c.3,2,1,3.4,2.1,4.4s2.6,1.5,4.5,1.5c2,0,3.6-.7,4.7-2.1s1.7-3.3,1.7-5.7c0-2.3-.6-4.1-1.9-5.5s-2.9-2.1-5-2.1c-1.9,0-3.4.4-4.5,1.2l-1.1.9-3.3-.7Z" fill="#c9d1d9"/>
    <path d="m275,395.5c0,5.1-.9,8.9-2.6,11.3s-4.4,3.7-8.1,3.7c-3.6,0-6.3-1.2-8.1-3.6s-2.7-6-2.7-10.8v-5.8c0-5,.9-8.7,2.6-11.2,1.7-2.5,4.5-3.7,8.2-3.7s6.4,1.2,8.1,3.5,2.6,6,2.7,10.9v5.7h-.1Zm-4.3-6c0-3.7-.5-6.3-1.5-8s-2.7-2.5-4.9-2.5-3.8.8-4.9,2.5-1.5,4.2-1.6,7.7v6.9c0,3.7.5,6.4,1.6,8.2s2.7,2.6,4.9,2.6c2.1,0,3.7-.8,4.8-2.5s1.6-4.3,1.6-7.8v-7.1Z" fill="#c9d1d9"/>
  </g>
  <g isolation="isolate">
    <path d="m275,575.5c0,5.1-.9,8.9-2.6,11.3s-4.4,3.7-8.1,3.7c-3.6,0-6.3-1.2-8.1-3.6s-2.7-6-2.7-10.8v-5.8c0-5,.9-8.7,2.6-11.2,1.7-2.5,4.5-3.7,8.2-3.7s6.4,1.2,8.1,3.5,2.6,6,2.7,10.9v5.7h-.1Zm-4.4-6c0-3.7-.5-6.3-1.5-8s-2.7-2.5-4.9-2.5-3.8.8-4.9,2.5-1.5,4.2-1.6,7.7v6.9c0,3.7.5,6.4,1.6,8.2s2.7,2.6,4.9,2.6c2.1,0,3.7-.8,4.8-2.5s1.6-4.3,1.6-7.8v-7.1Z" fill="#c9d1d9"/>
  </g>
  <g isolation="isolate">
    <path d="m222.9,757.3h-11.4v-3.5h11.4v3.5Z" fill="#c9d1d9"/>
    <path d="m228.6,752.9l1.7-17h17.5v4h-13.8l-1,9.3c1.7-1,3.6-1.5,5.7-1.5,3.1,0,5.6,1,7.4,3.1s2.7,4.8,2.7,8.3-.9,6.3-2.8,8.3-4.6,3-8,3c-3,0-5.5-.8-7.4-2.5s-3-4-3.3-6.9h4.1c.3,2,1,3.4,2.1,4.4s2.6,1.5,4.5,1.5c2,0,3.6-.7,4.7-2.1s1.7-3.3,1.7-5.7c0-2.3-.6-4.1-1.9-5.5s-2.9-2.1-5-2.1c-1.9,0-3.4.4-4.5,1.2l-1.1.9-3.3-.7Z" fill="#c9d1d9"/>
    <path d="m275,755.5c0,5.1-.9,8.9-2.6,11.3s-4.4,3.7-8.1,3.7c-3.6,0-6.3-1.2-8.1-3.6s-2.7-6-2.7-10.8v-5.8c0-5,.9-8.7,2.6-11.2,1.7-2.5,4.5-3.7,8.2-3.7s6.4,1.2,8.1,3.5,2.6,6,2.7,10.9v5.7h-.1Zm-4.4-6c0-3.7-.5-6.3-1.5-8s-2.7-2.5-4.9-2.5-3.8.8-4.9,2.5-1.5,4.2-1.6,7.7v6.9c0,3.7.5,6.4,1.6,8.2s2.7,2.6,4.9,2.6c2.1,0,3.7-.8,4.8-2.5s1.6-4.3,1.6-7.8v-7.1Z" fill="#c9d1d9"/>
  </g>
  <g isolation="isolate">
    <path d="m195.9,937.3h-11.4v-3.5h11.4v3.5Z" fill="#c9d1d9"/>
    <path d="m213.9,950h-4.4v-28.9l-8.7,3.2v-3.9l12.4-4.7h.7v34.3Z" fill="#c9d1d9"/>
    <path d="m248,935.5c0,5.1-.9,8.9-2.6,11.3s-4.4,3.7-8.1,3.7c-3.6,0-6.3-1.2-8.1-3.6s-2.7-6-2.7-10.8v-5.8c0-5,.9-8.7,2.6-11.2s4.5-3.7,8.2-3.7,6.4,1.2,8.1,3.5,2.6,6,2.7,10.9v5.7h-.1Zm-4.3-6c0-3.7-.5-6.3-1.5-8s-2.7-2.5-4.9-2.5-3.8.8-4.9,2.5-1.5,4.2-1.6,7.7v6.9c0,3.7.5,6.4,1.6,8.2s2.7,2.6,4.9,2.6c2.1,0,3.7-.8,4.8-2.5s1.6-4.3,1.6-7.8v-7.1h0Z" fill="#c9d1d9"/>
    <path d="m275,935.5c0,5.1-.9,8.9-2.6,11.3s-4.4,3.7-8.1,3.7c-3.6,0-6.3-1.2-8.1-3.6s-2.7-6-2.7-10.8v-5.8c0-5,.9-8.7,2.6-11.2,1.7-2.5,4.5-3.7,8.2-3.7s6.4,1.2,8.1,3.5,2.6,6,2.7,10.9v5.7h-.1Zm-4.4-6c0-3.7-.5-6.3-1.5-8s-2.7-2.5-4.9-2.5-3.8.8-4.9,2.5-1.5,4.2-1.6,7.7v6.9c0,3.7.5,6.4,1.6,8.2s2.7,2.6,4.9,2.6c2.1,0,3.7-.8,4.8-2.5s1.6-4.3,1.6-7.8v-7.1Z" fill="#c9d1d9"/>
  </g>
  <g isolation="isolate">
    <path d="m244.8,129c0-2.1.7-3.8,2-5.1s3.1-2,5.3-2,4,.6,5.4,1.9,2,3,2,5.2v1.7c0,2.1-.7,3.8-2,5.1s-3.1,1.9-5.3,1.9-4-.6-5.4-1.9-2.1-3-2.1-5.2v-1.6h.1Zm4.5,1.8c0,.9.3,1.7.8,2.3s1.2.9,2.1.9,1.6-.3,2.1-.9.8-1.4.8-2.3v-1.8c0-.9-.3-1.7-.8-2.3s-1.2-.9-2.1-.9-1.6.3-2.1.9-.8,1.4-.8,2.4v1.7Zm4.2,23.2l-3.3-1.8,16.7-26.7,3.3,1.8-16.7,26.7Zm7.6-5.8c0-2.1.7-3.8,2.1-5.1s3.2-1.9,5.3-1.9c2.2,0,4,.6,5.4,1.9s2.1,3,2.1,5.3v1.7c0,2.1-.7,3.8-2,5.1s-3.1,1.9-5.4,1.9c-2.2,0-4.1-.6-5.4-1.9s-2-3-2-5.2v-1.8h-.1Zm4.5,1.9c0,.9.3,1.6.8,2.2s1.3.9,2.1.9c1.9,0,2.9-1.1,2.9-3.2v-1.8c0-.9-.3-1.7-.8-2.3s-1.2-.9-2.1-.9-1.6.3-2.1.9-.8,1.3-.8,2.3v1.9Z" fill="#c9d1d9"/>
  </g>
  <g isolation="isolate">
    <path d="m340.6,143.7c0-4,.9-7.1,2.7-9.4s4.2-3.5,7.3-3.5c2.5,0,4.5.9,6.1,2.8v-12.9h6.8v36h-6.1l-.3-2.7c-1.7,2.1-3.9,3.2-6.5,3.2-3,0-5.4-1.2-7.2-3.5s-2.8-5.8-2.8-10Zm6.8.5c0,2.4.4,4.2,1.2,5.5s2,1.9,3.6,1.9c2.1,0,3.6-.9,4.4-2.7v-10c-.8-1.8-2.3-2.7-4.4-2.7-3.2.1-4.8,2.7-4.8,8Z" fill="#c9d1d9"/>
    <path d="m369.1,156.6v-34.1h12c4.1,0,7.3.8,9.4,2.4s3.2,3.9,3.2,7c0,1.7-.4,3.1-1.3,4.4s-2.1,2.2-3.6,2.8c1.8.4,3.1,1.3,4.1,2.6s1.5,3,1.5,4.9c0,3.3-1,5.8-3.1,7.5s-5.1,2.5-9,2.6h-13.2v-.1Zm7.1-19.8h5.2c3.5-.1,5.3-1.5,5.3-4.2,0-1.5-.4-2.7-1.3-3.3s-2.3-1-4.3-1h-4.9v8.5h0Zm0,4.9v9.2h6c1.7,0,2.9-.4,3.9-1.2s1.4-1.9,1.4-3.3c0-3.1-1.6-4.7-4.9-4.8h-6.4v.1Z" fill="#c9d1d9"/>
  </g>
  <g id="sine">
    <path d="m1728,576c-5.587,38.7-11.373,79.4-11.373,79.4l-10.076,66.5-8.18,50.4-7.283,40.7-6.385,31.7-6.085,26.4-5.786,21.2-5.188,15.7-4.589,11-4.29,7.9-3.99,5.2-3.691,2.9-3.691,1.1-3.691-.7-3.99-2.8-4.29-5.3-4.589-8.4-5.188-12.8-5.487-17.1-5.786-21.9-6.385-28.4-6.983-35.8-7.881-45.4-9.378-59.6-17.658-120.8s-.1-.3-.1-.9c-5.587-38.7-11.373-79.4-11.373-79.4l-10.076-66.5-8.18-50.4-7.283-40.7-6.385-31.7-6.085-26.4-5.786-21.2-5.188-15.6-4.589-11-4.29-7.9-3.99-5.2-3.691-2.9-3.691-1.1-3.691.7-3.99,2.8-4.29,5.4-4.589,8.4-5.188,12.8-5.487,17.1-5.786,21.9-6.385,28.4-6.983,35.8-7.881,45.4-9.378,59.6-17.658,120.8s-.1.3-.1.9c-5.587,38.7-11.373,79.4-11.373,79.4l-10.076,66.5-8.18,50.4-7.283,40.7-6.385,31.7-6.085,26.4-5.786,21.2-5.188,15.7-4.589,11-4.29,7.9-3.99,5.2-3.691,2.9-3.691,1.1-3.691-.7-3.99-2.8-4.29-5.3-4.589-8.4-5.188-12.8-5.487-17.1-5.786-21.9-6.385-28.4-6.983-35.8-7.881-45.4-9.378-59.6-17.658-120.8s-.1-.3-.1-.9c-5.587-38.7-11.373-79.4-11.373-79.4l-10.076-66.5-8.18-50.4-7.283-40.7-6.385-31.7-6.085-26.4-5.786-21.2-5.188-15.6-4.589-11-4.29-7.9-3.99-5.2-3.691-2.9-3.691-1.1-3.691.7-3.99,2.8-4.29,5.4-4.589,8.4-5.188,12.8-5.487,17.1-5.786,21.9-6.385,28.4-6.983,35.8-7.881,45.4-9.378,59.6-17.658,120.8s-.1.3-.1.9c-5.587,38.7-11.373,79.4-11.373,79.4l-10.076,66.5-8.18,50.4-7.283,40.7-6.385,31.7-6.085,26.4-5.786,21.2-5.188,15.7-4.589,11-4.29,7.9-3.99,5.2-3.691,2.9-3.691,1.1-3.691-.7-3.99-2.8-4.29-5.3-4.589-8.4-5.188-12.8-5.487-17.1-5.786-21.9-6.385-28.4-6.983-35.8-7.881-45.4-9.378-59.6-17.658-120.8s0-.3-.1-.9c-5.587-38.7-11.473-79.4-11.473-79.4l-9.976-66.5-8.18-50.4-7.283-40.7-6.385-31.7-6.085-26.4-5.786-21.2-5.188-15.6-4.589-11-4.29-7.9-3.99-5.2-3.691-2.9-3.691-1.1-3.691.7-3.99,2.8-4.29,5.4-4.589,8.4-5.188,12.8-5.487,17.1-5.786,21.9-6.385,28.4-6.983,35.8-7.881,45.4-9.378,59.6-17.658,120.8s0,.3-.1.9c-5.587,38.7-11.473,79.4-11.473,79.4l-9.976,66.5-8.18,50.4-7.283,40.7-6.385,31.7-6.085,26.4-5.786,21.2-5.188,15.7-4.589,11-4.29,7.9-3.99,5.2-3.691,2.9-3.691,1.1-3.691-.7-3.99-2.8-4.29-5.3-4.589-8.4-5.188-12.8-5.487-17.1-5.786-21.9-6.385-28.4-6.983-35.8-7.881-45.4-9.378-59.6-17.658-120.8s0-.3-.1-.9c-5.587-38.7-11.473-79.4-11.473-79.4l-9.976-66.5-8.18-50.4-7.283-40.7-6.385-31.7-6.085-26.4-5.786-21.2-5.188-15.6-4.589-11-4.29-7.9-3.99-5.2-3.691-2.9-3.691-1.1-3.591.7-3.99,2.8-4.29,5.4-4.589,8.4-5.188,12.8-5.487,17.1-5.786,21.9-6.385,28.4-6.983,35.8-7.881,45.4-9.378,59.6-17.658,120.8s0,.3-.1.9" fill="none" stroke="#d85648" stroke-miterlimit="10" stroke-width="3"/>
  </g>
  <g id="Ebene_6" data-name="Ebene 6">
    <g>
      <line x1="1548" y1="133.2" x2="1506.5" y2="187.8" fill="none" stroke="#c9d1d9" stroke-miterlimit="10" stroke-width="4"/>
      <polygon points="1502 174.4 1485 216 1520.5 188.5 1502 174.4" fill="#c9d1d9"/>
    </g>
    <g>
      <line x1="1780.2" y1="979.2" x2="1680.7" y2="946.9" fill="none" stroke="#c9d1d9" stroke-miterlimit="10" stroke-width="4"/>
      <polygon points="1691.8 938.3 1647 936 1684.7 960.4 1691.8 938.3" fill="#c9d1d9"/>
    </g>
  </g>
</svg>