<?xml version="1.0" encoding="utf-8"?>
<!-- Generator: Adobe Illustrator 27.4.1, SVG Export Plug-In . SVG Version: 6.00 Build 0)  -->
<svg version="1.1" id="Ebene_1" xmlns="http://www.w3.org/2000/svg" xmlns:xlink="http://www.w3.org/1999/xlink" x="0px" y="0px"
	 viewBox="0 0 2005.2 1033.2" style="enable-background:new 0 0 2005.2 1033.2;" xml:space="preserve">
<style type="text/css">
	.st0{fill:none;stroke:#7F7F7F;stroke-width:2;stroke-miterlimit:10;}
	.st1{fill:none;stroke:#7F7F7F;stroke-width:2;stroke-miterlimit:10;stroke-dasharray:0,0,11.05,11.05;}
	.st2{fill:none;stroke:#7F7F7F;stroke-width:2;stroke-miterlimit:10;stroke-dasharray:0,0,12.06,12.06;}
	.st3{fill:none;stroke:#7F7F7F;stroke-width:2;stroke-miterlimit:10;stroke-dasharray:0,0,11.77,11.77;}
	.st4{fill:none;stroke:#7F7F7F;stroke-width:2;stroke-miterlimit:10;stroke-dasharray:0,0,11.72,11.72;}
	.st5{fill:none;stroke:#7F7F7F;stroke-width:2;stroke-miterlimit:10;stroke-dasharray:0,0,12.29,12.29;}
	.st6{fill:none;stroke:#7F7F7F;stroke-width:2;stroke-miterlimit:10;stroke-dasharray:0,0,12,12;}
	.st7{fill:none;stroke:#D85648;stroke-width:5;stroke-miterlimit:10;}
	.st8{fill:none;stroke:#D85648;stroke-width:3;stroke-miterlimit:10;}
	.st9{fill:none;stroke:#C9D1D9;stroke-width:3;stroke-miterlimit:10;}
	.st10{fill:none;stroke:#C9D1D9;stroke-width:5;stroke-miterlimit:10;}
	.st11{fill:#C9D1D9;}
	.st12{fill:none;stroke:#C9D1D9;stroke-width:3;stroke-miterlimit:10;stroke-dasharray:0,0,12,12;}
	.st13{fill:none;stroke:#C9D1D9;stroke-width:4;stroke-miterlimit:10;}
	.st14{enable-background:new    ;}
	.st15{opacity:0.1;}
</style>
<g id="samples">
	<g>
		<g>
			<line class="st0" x1="219.6" y1="435.8" x2="219.6" y2="441.8"/>
			<line class="st1" x1="219.6" y1="452.8" x2="219.6" y2="535.7"/>
			<line class="st0" x1="219.6" y1="541.2" x2="219.6" y2="547.2"/>
		</g>
		<g>
			<line class="st0" x1="291.6" y1="330.2" x2="291.6" y2="336.2"/>
			<line class="st2" x1="291.6" y1="348.3" x2="291.6" y2="535.2"/>
			<line class="st0" x1="291.6" y1="541.2" x2="291.6" y2="547.2"/>
		</g>
		<g>
			<line class="st0" x1="363.6" y1="240.9" x2="363.6" y2="246.9"/>
			<line class="st3" x1="363.6" y1="258.7" x2="363.6" y2="535.3"/>
			<line class="st0" x1="363.6" y1="541.2" x2="363.6" y2="547.2"/>
		</g>
		<g>
			<line class="st0" x1="435.6" y1="172" x2="435.6" y2="178"/>
			<line class="st4" x1="435.6" y1="189.7" x2="435.6" y2="535.3"/>
			<line class="st0" x1="435.6" y1="541.2" x2="435.6" y2="547.2"/>
		</g>
		<g>
			<line class="st0" x1="507.6" y1="129.5" x2="507.6" y2="135.5"/>
			<line class="st5" x1="507.6" y1="147.8" x2="507.6" y2="535"/>
			<line class="st0" x1="507.6" y1="541.2" x2="507.6" y2="547.2"/>
		</g>
		<g>
			<g>
				<line class="st0" x1="939.6" y1="435.8" x2="939.6" y2="441.8"/>
				<line class="st1" x1="939.6" y1="452.8" x2="939.6" y2="535.7"/>
				<line class="st0" x1="939.6" y1="541.2" x2="939.6" y2="547.2"/>
			</g>
			<g>
				<line class="st0" x1="867.6" y1="330.2" x2="867.6" y2="336.2"/>
				<line class="st2" x1="867.6" y1="348.3" x2="867.6" y2="535.2"/>
				<line class="st0" x1="867.6" y1="541.2" x2="867.6" y2="547.2"/>
			</g>
			<g>
				<line class="st0" x1="795.6" y1="240.9" x2="795.6" y2="246.9"/>
				<line class="st3" x1="795.6" y1="258.7" x2="795.6" y2="535.3"/>
				<line class="st0" x1="795.6" y1="541.2" x2="795.6" y2="547.2"/>
			</g>
			<g>
				<line class="st0" x1="723.6" y1="172" x2="723.6" y2="178"/>
				<line class="st4" x1="723.6" y1="189.7" x2="723.6" y2="535.3"/>
				<line class="st0" x1="723.6" y1="541.2" x2="723.6" y2="547.2"/>
			</g>
			<g>
				<line class="st0" x1="651.6" y1="129.5" x2="651.6" y2="135.5"/>
				<line class="st5" x1="651.6" y1="147.8" x2="651.6" y2="535.1"/>
				<line class="st0" x1="651.6" y1="541.2" x2="651.6" y2="547.2"/>
			</g>
			<g>
				<line class="st0" x1="579.6" y1="115.2" x2="579.6" y2="121.2"/>
				<line class="st6" x1="579.6" y1="133.2" x2="579.6" y2="535.2"/>
				<line class="st0" x1="579.6" y1="541.2" x2="579.6" y2="547.2"/>
			</g>
		</g>
	</g>
	<g>
		<g>
			<line class="st0" x1="1083.6" y1="435.8" x2="1083.6" y2="441.8"/>
			<line class="st1" x1="1083.6" y1="452.8" x2="1083.6" y2="535.7"/>
			<line class="st0" x1="1083.6" y1="541.2" x2="1083.6" y2="547.2"/>
		</g>
		<g>
			<line class="st0" x1="1155.6" y1="330.2" x2="1155.6" y2="336.2"/>
			<line class="st2" x1="1155.6" y1="348.3" x2="1155.6" y2="535.2"/>
			<line class="st0" x1="1155.6" y1="541.2" x2="1155.6" y2="547.2"/>
		</g>
		<g>
			<line class="st0" x1="1227.6" y1="240.9" x2="1227.6" y2="246.9"/>
			<line class="st3" x1="1227.6" y1="258.7" x2="1227.6" y2="535.3"/>
			<line class="st0" x1="1227.6" y1="541.2" x2="1227.6" y2="547.2"/>
		</g>
		<g>
			<line class="st0" x1="1299.6" y1="172" x2="1299.6" y2="178"/>
			<line class="st4" x1="1299.6" y1="189.7" x2="1299.6" y2="535.3"/>
			<line class="st0" x1="1299.6" y1="541.2" x2="1299.6" y2="547.2"/>
		</g>
		<g>
			<line class="st0" x1="1371.6" y1="129.5" x2="1371.6" y2="135.5"/>
			<line class="st5" x1="1371.6" y1="147.8" x2="1371.6" y2="535"/>
			<line class="st0" x1="1371.6" y1="541.2" x2="1371.6" y2="547.2"/>
		</g>
		<g>
			<g>
				<line class="st0" x1="1803.6" y1="435.8" x2="1803.6" y2="441.8"/>
				<line class="st1" x1="1803.6" y1="452.8" x2="1803.6" y2="535.7"/>
				<line class="st0" x1="1803.6" y1="541.2" x2="1803.6" y2="547.2"/>
			</g>
			<g>
				<line class="st0" x1="1731.6" y1="330.2" x2="1731.6" y2="336.2"/>
				<line class="st2" x1="1731.6" y1="348.3" x2="1731.6" y2="535.2"/>
				<line class="st0" x1="1731.6" y1="541.2" x2="1731.6" y2="547.2"/>
			</g>
			<g>
				<line class="st0" x1="1659.6" y1="240.9" x2="1659.6" y2="246.9"/>
				<line class="st3" x1="1659.6" y1="258.7" x2="1659.6" y2="535.3"/>
				<line class="st0" x1="1659.6" y1="541.2" x2="1659.6" y2="547.2"/>
			</g>
			<g>
				<line class="st0" x1="1587.6" y1="172" x2="1587.6" y2="178"/>
				<line class="st4" x1="1587.6" y1="189.7" x2="1587.6" y2="535.3"/>
				<line class="st0" x1="1587.6" y1="541.2" x2="1587.6" y2="547.2"/>
			</g>
			<g>
				<line class="st0" x1="1515.6" y1="129.5" x2="1515.6" y2="135.5"/>
				<line class="st5" x1="1515.6" y1="147.8" x2="1515.6" y2="535"/>
				<line class="st0" x1="1515.6" y1="541.2" x2="1515.6" y2="547.2"/>
			</g>
			<g>
				<line class="st0" x1="1443.6" y1="115.2" x2="1443.6" y2="121.2"/>
				<line class="st6" x1="1443.6" y1="133.2" x2="1443.6" y2="535.2"/>
				<line class="st0" x1="1443.6" y1="541.2" x2="1443.6" y2="547.2"/>
			</g>
		</g>
	</g>
	<g>
		<g>
			<line class="st0" x1="1803.6" y1="658.7" x2="1803.6" y2="652.7"/>
			<line class="st1" x1="1803.6" y1="641.6" x2="1803.6" y2="558.7"/>
			<line class="st0" x1="1803.6" y1="553.2" x2="1803.6" y2="547.2"/>
		</g>
		<g>
			<line class="st0" x1="1731.6" y1="764.2" x2="1731.6" y2="758.2"/>
			<line class="st2" x1="1731.6" y1="746.1" x2="1731.6" y2="559.2"/>
			<line class="st0" x1="1731.6" y1="553.2" x2="1731.6" y2="547.2"/>
		</g>
		<g>
			<line class="st0" x1="1659.6" y1="853.5" x2="1659.6" y2="847.5"/>
			<line class="st3" x1="1659.6" y1="835.7" x2="1659.6" y2="559.1"/>
			<line class="st0" x1="1659.6" y1="553.2" x2="1659.6" y2="547.2"/>
		</g>
		<g>
			<line class="st0" x1="1587.6" y1="922.4" x2="1587.6" y2="916.4"/>
			<line class="st4" x1="1587.6" y1="904.7" x2="1587.6" y2="559.1"/>
			<line class="st0" x1="1587.6" y1="553.2" x2="1587.6" y2="547.2"/>
		</g>
		<g>
			<line class="st0" x1="1515.6" y1="964.9" x2="1515.6" y2="958.9"/>
			<line class="st5" x1="1515.6" y1="946.6" x2="1515.6" y2="559.3"/>
			<line class="st0" x1="1515.6" y1="553.2" x2="1515.6" y2="547.2"/>
		</g>
		<g>
			<g>
				<line class="st0" x1="1083.6" y1="658.6" x2="1083.6" y2="652.6"/>
				<line class="st1" x1="1083.6" y1="641.6" x2="1083.6" y2="558.7"/>
				<line class="st0" x1="1083.6" y1="553.2" x2="1083.6" y2="547.2"/>
			</g>
			<g>
				<line class="st0" x1="1155.6" y1="764.2" x2="1155.6" y2="758.2"/>
				<line class="st2" x1="1155.6" y1="746.1" x2="1155.6" y2="559.2"/>
				<line class="st0" x1="1155.6" y1="553.2" x2="1155.6" y2="547.2"/>
			</g>
			<g>
				<line class="st0" x1="1227.6" y1="853.5" x2="1227.6" y2="847.5"/>
				<line class="st3" x1="1227.6" y1="835.7" x2="1227.6" y2="559.1"/>
				<line class="st0" x1="1227.6" y1="553.2" x2="1227.6" y2="547.2"/>
			</g>
			<g>
				<line class="st0" x1="1299.6" y1="922.4" x2="1299.6" y2="916.4"/>
				<line class="st4" x1="1299.6" y1="904.7" x2="1299.6" y2="559.1"/>
				<line class="st0" x1="1299.6" y1="553.2" x2="1299.6" y2="547.2"/>
			</g>
			<g>
				<line class="st0" x1="1371.6" y1="964.9" x2="1371.6" y2="958.9"/>
				<line class="st5" x1="1371.6" y1="946.6" x2="1371.6" y2="559.3"/>
				<line class="st0" x1="1371.6" y1="553.2" x2="1371.6" y2="547.2"/>
			</g>
			<g>
				<line class="st0" x1="1443.6" y1="979.2" x2="1443.6" y2="973.2"/>
				<line class="st6" x1="1443.6" y1="961.2" x2="1443.6" y2="559.2"/>
				<line class="st0" x1="1443.6" y1="553.2" x2="1443.6" y2="547.2"/>
			</g>
		</g>
	</g>
</g>
<path class="st7" d="M147.6,547.2c0.5-0.7,0.7-1.1,0.7-1.1l93.7-145l50.1-71.6l42-54.5l37.1-42.9l33.9-34.1l30.7-26.3l29.1-20.5
	l27.5-15.3l24.2-10.1l22.6-6.4l21-3.3l19.4-0.8"/>
<path class="st8" d="M1011.6,547.2c-0.5-0.7-0.7-1.1-0.7-1.1l-93.7-145l-50.1-71.6l-42-54.5L788,232.1L754,198l-30.7-26.3
	l-29.1-20.5l-27.5-15.3l-24.2-10.1l-22.6-6.4l-21-3.3l-19.4-0.8"/>
<path class="st9" d="M1875.6,547.2c-0.5,0.7-0.7,1.1-0.7,1.1l-93.7,145l-50.1,71.6l-42,54.5l-37.2,42.9l-33.9,34.1l-30.7,26.3
	l-29.1,20.5l-27.5,15.3l-24.2,10.1L1484,975l-21,3.3l-19.4,0.8"/>
<path class="st9" d="M1011.6,547.2c0.5,0.7,0.7,1.1,0.7,1.1l93.7,145l50.1,71.6l42,54.5l37.2,42.9l33.9,34.1l30.7,26.3l29.1,20.5
	l27.5,15.3l24.2,10.1l22.6,6.4l21,3.3l19.4,0.8"/>
<g>
	<path class="st8" d="M1875.6,547.2c-0.5-0.7-0.7-1.1-0.7-1.1l-93.7-145l-50.1-71.6l-42-54.5l-37.2-42.9L1618,198l-30.7-26.3
		l-29.1-20.5l-27.5-15.3l-24.2-10.1l-22.6-6.4l-21-3.3l-19.4-0.8"/>
	<path class="st8" d="M1011.6,547.2c0.5-0.7,0.7-1.1,0.7-1.1l93.7-145l50.1-71.6l42-54.5l37.2-42.9l33.9-34.1l30.7-26.3l29.1-20.5
		l27.5-15.3l24.2-10.1l22.6-6.4l21-3.3l19.4-0.8"/>
</g>
<g>
	<line class="st10" x1="147.6" y1="127.1" x2="147.6" y2="967.3"/>
	<polygon class="st11" points="133.1,137 147.6,82.8 162.1,137 	"/>
	<polygon class="st11" points="133.1,957.4 147.6,1011.6 162.1,957.4 	"/>
</g>
<g>
	<line class="st10" x1="1942.9" y1="547.2" x2="147.6" y2="547.2"/>
	<polygon class="st11" points="1933,532.7 1987.2,547.2 1933,561.7 	"/>
</g>
<g>
	<line class="st9" x1="147.6" y1="241.8" x2="153.6" y2="241.8"/>
	<line class="st12" x1="165.6" y1="241.8" x2="1863.6" y2="241.8"/>
	<line class="st9" x1="1869.6" y1="241.8" x2="1875.6" y2="241.8"/>
</g>
<g>
	<line class="st13" x1="152.4" y1="50.4" x2="1870.8" y2="50.4"/>
	<path class="st11" d="M179.8,69.6c0.6-0.9,0.3-2.2-0.6-2.8l-25.8-16.4L179.1,34c0.9-0.6,1.2-1.8,0.6-2.8c-0.6-0.9-1.8-1.2-2.8-0.6
		l-28.5,18.1c-0.6,0.4-0.9,1-0.9,1.7s0.4,1.3,0.9,1.7L177,70.2c0.3,0.2,0.7,0.3,1.1,0.3C178.7,70.5,179.4,70.2,179.8,69.6
		L179.8,69.6z"/>
	<path class="st11" d="M1843.4,69.6c-0.6-0.9-0.3-2.2,0.6-2.8l25.8-16.4L1844.1,34c-0.9-0.6-1.2-1.8-0.6-2.8
		c0.6-0.9,1.8-1.2,2.8-0.6l28.5,18.1c0.6,0.4,0.9,1,0.9,1.7s-0.3,1.3-0.9,1.7l-28.5,18.1c-0.3,0.2-0.7,0.3-1.1,0.3
		C1844.5,70.5,1843.8,70.2,1843.4,69.6L1843.4,69.6z"/>
</g>
<g class="st14">
	<path class="st11" d="M926,39.6V5.9h12.2c3.9,0,6.9,0.8,8.8,2.4s3,3.9,3,7c0,3-1,5.3-2.9,6.9s-4.9,2.5-8.9,2.5h-7.9v15H926z
		 M930.2,21.2h7.9c2.4,0,4.3-0.5,5.6-1.6s1.9-2.5,1.9-4.3c0-1.6-0.6-3-1.7-4.2s-3.1-1.8-5.8-1.8h-7.9V21.2z"/>
</g>
<g class="st14">
	<path class="st11" d="M966.2,40.2c-2.4,0-4.5-0.5-6.2-1.6s-3.1-2.6-4.1-4.6s-1.4-4.3-1.4-7c0-2.7,0.5-5,1.4-7s2.3-3.5,4-4.6
		s3.8-1.6,6.1-1.6c1.3,0,2.7,0.2,4,0.6s2.6,1.2,3.7,2.2s2,2.5,2.7,4.3s1,4.2,1,6.9H957v-3.2h17.1l-1.1,1.5c-0.1-2.2-0.4-4-1.1-5.3
		s-1.5-2.3-2.5-2.9S967.2,17,966,17c-1.5,0-2.8,0.4-3.8,1.2s-1.9,1.9-2.5,3.4s-0.9,3.3-0.9,5.4c0,3.2,0.6,5.6,1.9,7.3
		s3.1,2.6,5.5,2.6c1.7,0,3.1-0.4,4.3-1.3s2-2.1,2.6-3.7l3.9,1.3c-0.6,1.5-1.4,2.7-2.4,3.8s-2.2,1.8-3.6,2.4S967.9,40.2,966.2,40.2z"
		/>
	<path class="st11" d="M983.5,39.6V14.3h3.7v5.4L987,19c0.8-1.8,1.9-3.1,3.4-4s3-1.3,4.6-1.3c0.5,0,0.9,0,1.3,0.1s0.8,0.2,1.2,0.4
		l-0.5,3.7c-0.9-0.3-1.7-0.4-2.6-0.4c-0.5,0-1.2,0.1-2,0.3s-1.6,0.6-2.3,1.3s-1.4,1.6-1.9,2.8s-0.8,2.9-0.8,5v12.7H983.5z"/>
	<path class="st11" d="M1004.3,10c-0.9,0-1.7-0.3-2.3-1s-1-1.4-1-2.3c0-0.9,0.3-1.7,1-2.3s1.4-0.9,2.3-0.9c0.9,0,1.7,0.3,2.3,0.9
		s0.9,1.4,0.9,2.3c0,0.9-0.3,1.7-0.9,2.3S1005.2,10,1004.3,10z M1002.3,39.6V14.3h3.9v25.3H1002.3z"/>
	<path class="st11" d="M1024.2,40.2c-2.4,0-4.5-0.6-6.3-1.7s-3.2-2.7-4.2-4.7s-1.5-4.3-1.5-6.9s0.5-4.9,1.5-6.9s2.4-3.5,4.2-4.7
		s3.9-1.7,6.3-1.7s4.5,0.6,6.3,1.7s3.2,2.7,4.2,4.7s1.5,4.3,1.5,6.9s-0.5,4.9-1.5,6.9s-2.4,3.5-4.2,4.7S1026.5,40.2,1024.2,40.2z
		 M1024.2,36.9c2.4,0,4.3-0.9,5.7-2.7s2.1-4.2,2.1-7.3c0-3.1-0.7-5.5-2.1-7.3s-3.3-2.7-5.7-2.7s-4.3,0.9-5.7,2.7s-2.1,4.2-2.1,7.3
		c0,3.1,0.7,5.5,2.1,7.3S1021.8,36.9,1024.2,36.9z"/>
	<path class="st11" d="M1052.1,40.2c-2,0-3.9-0.5-5.4-1.6s-2.8-2.6-3.7-4.6s-1.3-4.3-1.3-7s0.4-5,1.3-7s2.1-3.5,3.7-4.6
		s3.4-1.6,5.4-1.6c1.7,0,3.3,0.4,4.9,1.2s2.9,2.2,3.7,4.2l-0.4,0.2V4.4h3.9v35.2h-3.7v-5.3l0.1,0.4c-0.7,1.8-1.8,3.2-3.4,4.1
		S1053.9,40.2,1052.1,40.2z M1053.2,36.9c1.3,0,2.5-0.3,3.6-1s2-1.8,2.6-3.2s1-3.3,1-5.6c0-3.4-0.7-5.9-2.1-7.6s-3.1-2.4-5.1-2.4
		c-2.1,0-3.8,0.9-5.2,2.6s-2,4.2-2,7.4c0,3.1,0.6,5.6,1.9,7.3S1051,36.9,1053.2,36.9z"/>
</g>
<g class="st14">
	<path class="st11" d="M1084.4,39.6V9.3h-12.1V5.9h28.4v3.5h-12.1v30.3H1084.4z"/>
</g>
<g class="st14">
	<path class="st11" d="M111.9,562.5c-3.9,0-6.9-1.5-9.1-4.6s-3.2-7.3-3.2-12.9s1.1-9.8,3.2-12.9s5.2-4.6,9.1-4.6
		c3.9,0,7,1.5,9.1,4.6s3.2,7.3,3.2,12.9s-1.1,9.8-3.2,12.9S115.8,562.5,111.9,562.5z M111.9,559.1c2.6,0,4.6-1.2,5.9-3.6
		s2-5.9,2-10.5s-0.7-8.1-2-10.5s-3.3-3.6-5.9-3.6s-4.6,1.2-5.9,3.6s-2,5.9-2,10.5s0.7,8.1,2,10.5S109.3,559.1,111.9,559.1z"/>
</g>
<g class="st14">
	<path class="st11" d="M1954.8,441.9H1921V429c0-7.8,3-11.7,8.9-11.7c6,0,9,3.9,9,11.8v8.6h15.9V441.9z M1935.4,437.7V429
		c0-2.4-0.5-4.2-1.4-5.5s-2.3-1.9-4-1.9c-1.8,0-3.1,0.6-4.1,1.9s-1.4,3.1-1.4,5.5v8.6H1935.4z M1954.8,422.1l-17.1,9v-4.8l17.1-9
		V422.1z"/>
	<path class="st11" d="M1954.8,411.8l-33.8-1.9v-6.9l30.7-9.6v0.9l-30.7-9.6v-6.9l33.8-1.9v4.1l-30.6,1.6v-0.1l30.6,9.9v4.7
		l-30.6,10V406l30.6,1.6V411.8z"/>
	<path class="st11" d="M1955.4,357.3c0,2.6-0.4,4.9-1.3,6.8s-2.1,3.5-3.8,4.7s-3.6,2-6,2.4l-1-5c2.8-0.1,4.9-0.9,6.4-2.4
		s2.2-3.6,2.2-6.3c0-1.6-0.3-3-0.8-4.1s-1.3-2-2.2-2.6s-2.1-0.9-3.4-0.9c-1.8,0-3.1,0.5-3.9,1.5s-1.5,2.4-1.9,4.1l-1,4.4
		c-0.2,0.8-0.4,1.8-0.8,2.8s-0.8,2.1-1.5,3.1s-1.5,1.8-2.6,2.5s-2.5,1-4.2,1c-2.2,0-3.9-0.6-5.3-1.7s-2.3-2.6-3-4.4
		s-0.9-3.7-0.9-5.7c0-2.3,0.4-4.3,1.1-6s1.8-3,3.2-4s3-1.7,4.9-2.1l1,4.9c-1.4,0.1-2.7,0.5-3.6,1.1s-1.8,1.4-2.3,2.4
		s-0.8,2.4-0.8,3.9c0,1.3,0.2,2.4,0.6,3.6s1,2,1.8,2.7s1.8,1,3.1,1c1.3,0,2.4-0.5,3.2-1.4s1.5-2.5,2-4.7l1-4.5
		c0.4-1.6,0.9-3.1,1.6-4.5s1.7-2.5,3-3.4s3-1.3,5.1-1.3s3.9,0.5,5.4,1.4s2.6,2.3,3.4,4.1S1955.4,354.8,1955.4,357.3z"/>
</g>
<g>
	<line class="st13" x1="1907.6" y1="542.4" x2="1907.6" y2="246.6"/>
	<path class="st11" d="M1926.8,515c-0.9-0.6-2.2-0.3-2.8,0.6l-16.4,25.8l-16.4-25.8c-0.6-0.9-1.8-1.2-2.8-0.6s-1.2,1.8-0.6,2.8
		l18.1,28.5c0.4,0.6,1,0.9,1.7,0.9s1.3-0.3,1.7-0.9l18.1-28.5c0.2-0.3,0.3-0.7,0.3-1.1C1927.8,516.1,1927.4,515.4,1926.8,515
		L1926.8,515z"/>
	<path class="st11" d="M1926.8,273.9c-0.9,0.6-2.2,0.3-2.8-0.6l-16.4-25.8l-16.4,25.8c-0.6,0.9-1.8,1.2-2.8,0.6s-1.2-1.8-0.6-2.8
		l18.1-28.5c0.4-0.6,1-0.9,1.7-0.9s1.3,0.4,1.7,0.9l18.1,28.5c0.2,0.3,0.3,0.7,0.3,1.1C1927.8,272.9,1927.4,273.5,1926.8,273.9
		L1926.8,273.9z"/>
</g>
<g class="st15">
	<path class="st11" d="M1011.6,547.2c0.5-0.7,0.7-1.1,0.7-1.1l93.7-145l50.1-71.6l42-54.5l37.2-42.9l33.9-34.1l30.7-26.3l29.1-20.5
		l27.5-15.3l24.2-10.1l22.6-6.4l21-3.3l19.4-0.8l19.4,0.8l21,3.3l22.6,6.4l24.2,10.1l27.5,15.3l29.1,20.5L1618,198l33.9,34.1
		l37.2,42.9l42,54.5l50.1,71.6l93.7,145c0,0,0.2,0.4,0.7,1.1"/>
</g>
<g class="st15">
	<path class="st11" d="M147.6,547.2c0.5-0.7,0.7-1.1,0.7-1.1l93.7-145l50.1-71.6l42-54.5l37.1-42.9l33.9-34.1l30.7-26.3l29.1-20.5
		l27.5-15.3l24.2-10.1l22.6-6.4l21-3.3l19.4-0.8L599,116l21,3.3l22.6,6.4l24.2,10.1l27.5,15.3l29.1,20.5L754,198l33.9,34.1
		l37.2,42.9l42,54.5l50.1,71.6l93.7,145c0,0,0.2,0.4,0.7,1.1"/>
</g>
<g class="st14">
	<path class="st11" d="M1907,629.7v-30.3H1895V596h28.4v3.5h-12.1v30.3H1907z"/>
	<path class="st11" d="M1930,600.2c-0.9,0-1.7-0.3-2.3-1s-1-1.4-1-2.3c0-0.9,0.3-1.7,1-2.3s1.4-0.9,2.3-0.9c0.9,0,1.7,0.3,2.3,0.9
		s0.9,1.4,0.9,2.3c0,0.9-0.3,1.7-0.9,2.3S1930.9,600.2,1930,600.2z M1928,629.7v-25.3h3.9v25.3H1928z"/>
	<path class="st11" d="M1939.6,629.7v-25.3h3.7v4.3c0.6-1.3,1.6-2.5,3-3.4s3-1.5,4.9-1.5c1.7,0,3.1,0.5,4.4,1.4s2.2,2.2,2.8,3.9
		c0.8-1.5,1.9-2.8,3.3-3.8s3-1.5,4.8-1.5c2.4,0,4.3,0.9,5.8,2.6s2.1,4.2,2.1,7.3v15.9h-3.9v-15.6c0-1.4-0.1-2.7-0.4-3.7
		s-0.8-1.8-1.5-2.4s-1.6-0.8-2.8-0.8c-1.3,0-2.4,0.4-3.5,1.1s-1.8,1.8-2.4,3.2s-0.9,3.1-0.9,5.1v13.2h-3.9v-15.6
		c0-1.4-0.1-2.7-0.4-3.7s-0.8-1.8-1.5-2.4s-1.6-0.8-2.7-0.8c-1.3,0-2.4,0.4-3.5,1.1s-1.8,1.8-2.4,3.2s-0.9,3.1-0.9,5.1v13.2H1939.6z
		"/>
	<path class="st11" d="M1991.7,630.3c-2.4,0-4.5-0.5-6.2-1.6s-3.1-2.6-4.1-4.6s-1.4-4.3-1.4-7c0-2.7,0.5-5,1.4-7s2.3-3.5,4-4.6
		s3.8-1.6,6.1-1.6c1.3,0,2.7,0.2,4,0.6s2.6,1.2,3.7,2.2s2,2.5,2.7,4.3s1,4.2,1,6.9h-20.5v-3.2h17.1l-1.1,1.5c-0.1-2.2-0.4-4-1.1-5.3
		s-1.5-2.3-2.5-2.9s-2.2-0.9-3.4-0.9c-1.5,0-2.8,0.4-3.8,1.2s-1.9,1.9-2.5,3.4s-0.9,3.3-0.9,5.4c0,3.2,0.6,5.6,1.9,7.3
		s3.1,2.6,5.5,2.6c1.7,0,3.1-0.4,4.3-1.3s2-2.1,2.6-3.7l3.9,1.3c-0.6,1.5-1.4,2.7-2.4,3.8s-2.2,1.8-3.6,2.4
		S1993.5,630.3,1991.7,630.3z"/>
</g>
<g class="st14">
	<path class="st11" d="M64.6,660.8l-33.8-14.2v-4.2l33.8-14.2v4.5l-29.3,11.8l29.3,11.9V660.8z M53.5,653.5h-3.5v-18h3.5V653.5z"/>
	<path class="st11" d="M64.6,623.9H39.3v-3.7h4.3c-1.3-0.6-2.5-1.6-3.4-3s-1.5-3-1.5-4.9c0-1.7,0.5-3.1,1.4-4.4s2.2-2.2,3.9-2.8
		c-1.5-0.8-2.8-1.9-3.8-3.3s-1.5-3-1.5-4.8c0-2.4,0.9-4.3,2.6-5.8s4.2-2.1,7.3-2.1h15.9v3.9H49c-1.4,0-2.7,0.1-3.7,0.4
		s-1.8,0.8-2.4,1.5s-0.8,1.6-0.8,2.8c0,1.3,0.4,2.4,1.1,3.5s1.8,1.8,3.2,2.4s3.1,0.9,5.1,0.9h13.2v3.9H49c-1.4,0-2.7,0.1-3.7,0.4
		s-1.8,0.8-2.4,1.5S42,612,42,613.1c0,1.3,0.4,2.4,1.1,3.5s1.8,1.8,3.2,2.4s3.1,0.9,5.1,0.9h13.2V623.9z"/>
	<path class="st11" d="M73.7,582H39.3v-3.7h5.3l-0.4,0.1c-1.8-0.7-3.2-1.8-4.1-3.4s-1.3-3.3-1.3-5.1c0-2.1,0.5-3.9,1.6-5.4
		s2.6-2.8,4.6-3.7s4.3-1.3,7-1.3s5,0.4,7,1.3s3.5,2.1,4.6,3.7s1.6,3.4,1.6,5.4c0,1.7-0.4,3.3-1.2,4.9s-2.2,2.9-4.2,3.7l-0.2-0.4
		h14.2V582z M61.9,571c0-2.1-0.9-3.8-2.6-5.2s-4.2-2-7.4-2c-3.1,0-5.6,0.6-7.3,1.9s-2.6,3-2.6,5.2c0,1.3,0.3,2.5,1,3.6
		s1.8,2,3.2,2.6s3.3,1,5.6,1c3.4,0,5.9-0.7,7.5-2.1S61.9,573,61.9,571z"/>
	<path class="st11" d="M64.6,549.9c0,1-0.3,1.9-1,2.6s-1.5,1.1-2.5,1.1H29.4v-3.9H60c0.5,0,0.9-0.1,1-0.2s0.3-0.5,0.3-0.9v-2.5h3.3
		V549.9z"/>
	<path class="st11" d="M35,538.9c0,0.9-0.3,1.7-1,2.3s-1.4,1-2.3,1c-0.9,0-1.7-0.3-2.3-1s-0.9-1.4-0.9-2.3c0-0.9,0.3-1.7,0.9-2.3
		s1.4-0.9,2.3-0.9c0.9,0,1.7,0.3,2.3,0.9S35,538,35,538.9z M64.6,540.8H39.3v-3.9h25.3V540.8z"/>
	<path class="st11" d="M64.6,523.6c0,1-0.3,1.9-1,2.6s-1.5,1.1-2.5,1.1H42.6v4.1h-3.3v-4.1H34l-0.8-3.9h6.1v-5h3.3v5H60
		c0.5,0,0.9-0.1,1-0.2s0.3-0.5,0.3-0.9v-3.9h3.3V523.6z"/>
	<path class="st11" d="M65.2,504.7c0,1.8-0.4,3.3-1.2,4.6s-1.9,2.3-3.4,3s-3.3,1.1-5.3,1.1H39.3v-3.9h15.6c2.1,0,3.7-0.4,5-1.2
		s1.9-2.2,1.9-4.2c0-1.5-0.4-2.8-1.2-3.9s-2-2-3.5-2.6s-3.5-0.9-5.9-0.9h-12v-3.9h25.3v3.7h-6l1-0.2c1.6,0.7,2.9,1.7,3.9,3.2
		S65.2,502.6,65.2,504.7z"/>
	<path class="st11" d="M65.2,476.4c0,2-0.5,3.9-1.6,5.4s-2.6,2.8-4.6,3.7s-4.3,1.3-7,1.3s-5-0.4-7-1.3s-3.5-2.1-4.6-3.7
		s-1.6-3.4-1.6-5.4c0-1.7,0.4-3.3,1.2-4.9s2.2-2.9,4.2-3.7l0.2,0.4H29.4v-3.9h35.2v3.7h-5.3l0.4-0.1c1.8,0.7,3.2,1.8,4.1,3.4
		S65.2,474.6,65.2,476.4z M61.9,475.4c0-1.3-0.3-2.5-1-3.6s-1.8-2-3.2-2.6s-3.3-1-5.6-1c-3.4,0-5.9,0.7-7.6,2.1s-2.4,3.1-2.4,5.1
		c0,2.1,0.9,3.8,2.6,5.2s4.2,2,7.4,2c3.1,0,5.6-0.6,7.3-1.9S61.9,477.5,61.9,475.4z"/>
	<path class="st11" d="M65.2,446.5c0,2.4-0.5,4.5-1.6,6.2s-2.6,3.1-4.6,4.1s-4.3,1.4-7,1.4c-2.7,0-5-0.5-7-1.4s-3.5-2.3-4.6-4
		s-1.6-3.8-1.6-6.1c0-1.3,0.2-2.7,0.6-4s1.2-2.6,2.2-3.7s2.5-2,4.3-2.7s4.2-1,6.9-1v20.5h-3.2v-17.1l1.5,1.1c-2.2,0.1-4,0.4-5.3,1.1
		s-2.3,1.5-2.9,2.5s-0.9,2.2-0.9,3.4c0,1.5,0.4,2.8,1.2,3.8s1.9,1.9,3.4,2.5s3.3,0.9,5.4,0.9c3.2,0,5.6-0.6,7.3-1.9s2.6-3.1,2.6-5.5
		c0-1.7-0.4-3.1-1.3-4.3s-2.1-2-3.7-2.6l1.3-3.9c1.5,0.6,2.7,1.4,3.8,2.4s1.8,2.2,2.4,3.6S65.2,444.8,65.2,446.5z"/>
</g>
<g class="st14">
	<path class="st11" d="M109.2,98.4c-2.6,0-4.9-0.5-6.8-1.5s-3.4-2.4-4.5-4.2s-1.6-4-1.6-6.4V64.1h4.2v21.8c0,2.8,0.8,5,2.3,6.6
		s3.7,2.4,6.3,2.4s4.8-0.8,6.3-2.4s2.3-3.8,2.3-6.6V64.1h4.2v22.2c0,2.5-0.5,4.6-1.6,6.4s-2.5,3.2-4.5,4.2S111.8,98.4,109.2,98.4z
		 M105.1,60.5l-3.2-1.6l4.8-6.7h4.9l4.8,6.7l-3.2,1.6l-4-5.9L105.1,60.5z"/>
</g>
<g class="st14">
	<path class="st11" d="M83.6,1013.7v-3.7h15.7v3.7H83.6z"/>
	<path class="st11" d="M118,1027.2c-2.6,0-4.9-0.5-6.8-1.5s-3.4-2.4-4.5-4.2s-1.6-4-1.6-6.4v-22.2h4.2v21.8c0,2.8,0.8,5,2.3,6.6
		s3.7,2.4,6.3,2.4s4.8-0.8,6.3-2.4s2.3-3.8,2.3-6.6v-21.8h4.2v22.2c0,2.5-0.5,4.6-1.6,6.4s-2.5,3.2-4.5,4.2S120.6,1027.2,118,1027.2
		z M113.9,989.3l-3.2-1.6l4.8-6.7h4.9l4.8,6.7l-3.2,1.6l-4-5.9L113.9,989.3z"/>
</g>
<g class="st14">
	<path class="st11" d="M5.9,256.5c1.2-5.8,3-11.2,5.4-16s5.3-9.6,8.8-14.1H1.3v-3.6h22.9v3.2c-1.6,2.4-3.1,4.8-4.5,7.2
		s-2.7,4.9-3.9,7.3s-2.2,5.1-3,7.7s-1.5,5.4-2,8.3H5.9z"/>
	<path class="st11" d="M39.4,257.1c-3.9,0-6.9-1.5-9.1-4.6s-3.2-7.3-3.2-12.9s1.1-9.8,3.2-12.9s5.2-4.6,9.1-4.6c3.9,0,7,1.5,9.1,4.6
		s3.2,7.3,3.2,12.9s-1.1,9.8-3.2,12.9S43.3,257.1,39.4,257.1z M39.4,253.7c2.6,0,4.6-1.2,5.9-3.6s2-5.9,2-10.5s-0.7-8.1-2-10.5
		s-3.3-3.6-5.9-3.6s-4.6,1.2-5.9,3.6s-2,5.9-2,10.5s0.7,8.1,2,10.5S36.8,253.7,39.4,253.7z"/>
	<path class="st11" d="M56.7,264l-1.4-2l0.8-0.6c0.9-0.6,1.5-1.3,1.9-1.9s0.6-1.4,0.6-2.2v-1.1l0.6,0.8c-1,0-1.8-0.3-2.5-1
		s-1-1.5-1-2.5c0-1,0.3-1.9,1-2.5s1.5-1,2.5-1c0.6,0,1.1,0.1,1.7,0.4s1,0.7,1.4,1.4s0.6,1.5,0.6,2.6c0,1.5-0.4,3-1.2,4.5
		s-2.1,2.9-3.8,4.1L56.7,264z"/>
	<path class="st11" d="M69.5,256.5c1.2-5.8,3-11.2,5.4-16s5.3-9.6,8.8-14.1H64.9v-3.6h22.9v3.2c-1.6,2.4-3.1,4.8-4.5,7.2
		s-2.7,4.9-3.9,7.3s-2.2,5.1-3,7.7s-1.5,5.4-2,8.3H69.5z"/>
	<path class="st11" d="M99.3,243.4c-2.5,0-4.3-0.9-5.7-2.8s-2-4.4-2-7.7s0.7-5.9,2-7.7s3.2-2.8,5.7-2.8s4.3,0.9,5.7,2.7s2,4.4,2,7.7
		s-0.7,5.9-2,7.7S101.8,243.4,99.3,243.4z M99.3,240.7c2.8,0,4.2-2.6,4.2-7.8s-1.4-7.8-4.2-7.8s-4.2,2.6-4.2,7.8
		S96.5,240.7,99.3,240.7z M99.8,257.4l-2.3-1.6l24.2-33.8l2.3,1.6L99.8,257.4z M122.2,256.9c-2.5,0-4.3-0.9-5.7-2.8s-2-4.4-2-7.7
		s0.7-5.9,2-7.7s3.2-2.8,5.7-2.8s4.3,0.9,5.7,2.7s2,4.4,2,7.7s-0.7,5.9-2,7.7S124.7,256.9,122.2,256.9z M122.2,254.2
		c2.8,0,4.2-2.6,4.2-7.8s-1.4-7.8-4.2-7.8s-4.2,2.6-4.2,7.8S119.5,254.2,122.2,254.2z"/>
</g>
</svg>
