<?xml version="1.0" encoding="UTF-8"?>
<svg xmlns="http://www.w3.org/2000/svg" width="576" height="432" viewBox="0 0 576 432">
  <g id="Ebene_1" data-name="Ebene 1">
    <path d="m92.29,384.48V51.84" fill="none" stroke="#c9d1d9" stroke-width=".283"/>
    <path id="m2f41a7fa2c" d="m92.29,384.48v-3.5" fill="none" stroke="#c9d1d9" stroke-linejoin="round" stroke-width=".8"/>
    <path d="m143.02,384.48V51.84" fill="none" stroke="#c9d1d9" stroke-width=".283"/>
    <path id="m2f41a7fa2c-2" d="m143.02,384.48v-3.5" fill="none" stroke="#c9d1d9" stroke-linejoin="round" stroke-width=".8"/>
    <path d="m193.75,384.48V51.84" fill="none" stroke="#c9d1d9" stroke-width=".283"/>
    <path id="m2f41a7fa2c-3" d="m193.75,384.48v-3.5" fill="none" stroke="#c9d1d9" stroke-linejoin="round" stroke-width=".8"/>
    <path d="m244.47,384.48V51.84" fill="none" stroke="#c9d1d9" stroke-width=".283"/>
    <path id="m2f41a7fa2c-4" d="m244.47,384.48v-3.5" fill="none" stroke="#c9d1d9" stroke-linejoin="round" stroke-width=".8"/>
    <path d="m295.2,384.48V51.84" fill="none" stroke="#c9d1d9" stroke-width=".283"/>
    <path id="m2f41a7fa2c-5" d="m295.2,384.48v-3.5" fill="none" stroke="#c9d1d9" stroke-linejoin="round" stroke-width=".8"/>
    <path d="m345.93,384.48V51.84" fill="none" stroke="#c9d1d9" stroke-width=".283"/>
    <path id="m2f41a7fa2c-6" d="m345.93,384.48v-3.5" fill="none" stroke="#c9d1d9" stroke-linejoin="round" stroke-width=".8"/>
    <path d="m396.65,384.48V51.84" fill="none" stroke="#c9d1d9" stroke-width=".283"/>
    <path id="m2f41a7fa2c-7" d="m396.65,384.48v-3.5" fill="none" stroke="#c9d1d9" stroke-linejoin="round" stroke-width=".8"/>
    <path d="m447.38,384.48V51.84" fill="none" stroke="#c9d1d9" stroke-width=".283"/>
    <path id="m2f41a7fa2c-8" d="m447.38,384.48v-3.5" fill="none" stroke="#c9d1d9" stroke-linejoin="round" stroke-width=".8"/>
    <path d="m498.11,384.48V51.84" fill="none" stroke="#c9d1d9" stroke-width=".283"/>
    <path id="m2f41a7fa2c-9" d="m498.11,384.48v-3.5" fill="none" stroke="#c9d1d9" stroke-linejoin="round" stroke-width=".8"/>
    <path d="m72,369.36h446.4" fill="none" stroke="#c9d1d9" stroke-width=".283"/>
    <path id="m860b598111" d="m72,369.36h3.5" fill="none" stroke="#c9d1d9" stroke-linejoin="round" stroke-width=".8"/>
    <path d="m72,293.76h446.4" fill="none" stroke="#c9d1d9" stroke-width=".283"/>
    <path id="m860b598111-2" d="m72,293.76h3.5" fill="none" stroke="#c9d1d9" stroke-linejoin="round" stroke-width=".8"/>
    <path d="m72,218.16h446.4" fill="none" stroke="#c9d1d9" stroke-width=".283"/>
    <path id="m860b598111-3" d="m72,218.16h3.5" fill="none" stroke="#c9d1d9" stroke-linejoin="round" stroke-width=".8"/>
    <path d="m72,142.56h446.4" fill="none" stroke="#c9d1d9" stroke-width=".283"/>
    <path id="m860b598111-4" d="m72,142.56h3.5" fill="none" stroke="#c9d1d9" stroke-linejoin="round" stroke-width=".8"/>
    <path d="m72,66.96h446.4" fill="none" stroke="#c9d1d9" stroke-width=".283"/>
    <path id="m860b598111-5" d="m72,66.96h3.5" fill="none" stroke="#c9d1d9" stroke-linejoin="round" stroke-width=".8"/>
    <path d="m72,381.07h446.4" fill="none" stroke="#c9d1d9" stroke-width=".283"/>
    <path id="mb020e9da3d" d="m72,381.07h2" fill="none" stroke="#c9d1d9" stroke-linejoin="round" stroke-width=".6"/>
    <path d="m72,376.69h446.4" fill="none" stroke="#c9d1d9" stroke-width=".283"/>
    <path id="mb020e9da3d-2" d="m72,376.69h2" fill="none" stroke="#c9d1d9" stroke-linejoin="round" stroke-width=".6"/>
    <path d="m72,372.82h446.4" fill="none" stroke="#c9d1d9" stroke-width=".283"/>
    <path id="mb020e9da3d-3" d="m72,372.82h2" fill="none" stroke="#c9d1d9" stroke-linejoin="round" stroke-width=".6"/>
    <path d="m72,346.6h446.4" fill="none" stroke="#c9d1d9" stroke-width=".283"/>
    <path id="mb020e9da3d-4" d="m72,346.6h2" fill="none" stroke="#c9d1d9" stroke-linejoin="round" stroke-width=".6"/>
    <path d="m72,333.29h446.4" fill="none" stroke="#c9d1d9" stroke-width=".283"/>
    <path id="mb020e9da3d-5" d="m72,333.29h2" fill="none" stroke="#c9d1d9" stroke-linejoin="round" stroke-width=".6"/>
    <path d="m72,323.84h446.4" fill="none" stroke="#c9d1d9" stroke-width=".283"/>
    <path id="mb020e9da3d-6" d="m72,323.84h2" fill="none" stroke="#c9d1d9" stroke-linejoin="round" stroke-width=".6"/>
    <path d="m72,316.52h446.4" fill="none" stroke="#c9d1d9" stroke-width=".283"/>
    <path id="mb020e9da3d-7" d="m72,316.52h2" fill="none" stroke="#c9d1d9" stroke-linejoin="round" stroke-width=".6"/>
    <path d="m72,310.53h446.4" fill="none" stroke="#c9d1d9" stroke-width=".283"/>
    <path id="mb020e9da3d-8" d="m72,310.53h2" fill="none" stroke="#c9d1d9" stroke-linejoin="round" stroke-width=".6"/>
    <path d="m72,305.47h446.4" fill="none" stroke="#c9d1d9" stroke-width=".283"/>
    <path id="mb020e9da3d-9" d="m72,305.47h2" fill="none" stroke="#c9d1d9" stroke-linejoin="round" stroke-width=".6"/>
    <path d="m72,301.09h446.4" fill="none" stroke="#c9d1d9" stroke-width=".283"/>
    <path id="mb020e9da3d-10" d="m72,301.09h2" fill="none" stroke="#c9d1d9" stroke-linejoin="round" stroke-width=".6"/>
    <path d="m72,297.22h446.4" fill="none" stroke="#c9d1d9" stroke-width=".283"/>
    <path id="mb020e9da3d-11" d="m72,297.22h2" fill="none" stroke="#c9d1d9" stroke-linejoin="round" stroke-width=".6"/>
    <path d="m72,271h446.4" fill="none" stroke="#c9d1d9" stroke-width=".283"/>
    <path id="mb020e9da3d-12" d="m72,271h2" fill="none" stroke="#c9d1d9" stroke-linejoin="round" stroke-width=".6"/>
    <path d="m72,257.69h446.4" fill="none" stroke="#c9d1d9" stroke-width=".283"/>
    <path id="mb020e9da3d-13" d="m72,257.69h2" fill="none" stroke="#c9d1d9" stroke-linejoin="round" stroke-width=".6"/>
    <path d="m72,248.24h446.4" fill="none" stroke="#c9d1d9" stroke-width=".283"/>
    <path id="mb020e9da3d-14" d="m72,248.24h2" fill="none" stroke="#c9d1d9" stroke-linejoin="round" stroke-width=".6"/>
    <path d="m72,240.92h446.4" fill="none" stroke="#c9d1d9" stroke-width=".283"/>
    <path id="mb020e9da3d-15" d="m72,240.92h2" fill="none" stroke="#c9d1d9" stroke-linejoin="round" stroke-width=".6"/>
    <path d="m72,234.93h446.4" fill="none" stroke="#c9d1d9" stroke-width=".283"/>
    <path id="mb020e9da3d-16" d="m72,234.93h2" fill="none" stroke="#c9d1d9" stroke-linejoin="round" stroke-width=".6"/>
    <path d="m72,229.87h446.4" fill="none" stroke="#c9d1d9" stroke-width=".283"/>
    <path id="mb020e9da3d-17" d="m72,229.87h2" fill="none" stroke="#c9d1d9" stroke-linejoin="round" stroke-width=".6"/>
    <path d="m72,225.49h446.4" fill="none" stroke="#c9d1d9" stroke-width=".283"/>
    <path id="mb020e9da3d-18" d="m72,225.49h2" fill="none" stroke="#c9d1d9" stroke-linejoin="round" stroke-width=".6"/>
    <path d="m72,221.62h446.4" fill="none" stroke="#c9d1d9" stroke-width=".283"/>
    <path id="mb020e9da3d-19" d="m72,221.62h2" fill="none" stroke="#c9d1d9" stroke-linejoin="round" stroke-width=".6"/>
    <path d="m72,195.4h446.4" fill="none" stroke="#c9d1d9" stroke-width=".283"/>
    <path id="mb020e9da3d-20" d="m72,195.4h2" fill="none" stroke="#c9d1d9" stroke-linejoin="round" stroke-width=".6"/>
    <path d="m72,182.09h446.4" fill="none" stroke="#c9d1d9" stroke-width=".283"/>
    <path id="mb020e9da3d-21" d="m72,182.09h2" fill="none" stroke="#c9d1d9" stroke-linejoin="round" stroke-width=".6"/>
    <path d="m72,172.64h446.4" fill="none" stroke="#c9d1d9" stroke-width=".283"/>
    <path id="mb020e9da3d-22" d="m72,172.64h2" fill="none" stroke="#c9d1d9" stroke-linejoin="round" stroke-width=".6"/>
    <path d="m72,165.32h446.4" fill="none" stroke="#c9d1d9" stroke-width=".283"/>
    <path id="mb020e9da3d-23" d="m72,165.32h2" fill="none" stroke="#c9d1d9" stroke-linejoin="round" stroke-width=".6"/>
    <path d="m72,159.33h446.4" fill="none" stroke="#c9d1d9" stroke-width=".283"/>
    <path id="mb020e9da3d-24" d="m72,159.33h2" fill="none" stroke="#c9d1d9" stroke-linejoin="round" stroke-width=".6"/>
    <path d="m72,154.27h446.4" fill="none" stroke="#c9d1d9" stroke-width=".283"/>
    <path id="mb020e9da3d-25" d="m72,154.27h2" fill="none" stroke="#c9d1d9" stroke-linejoin="round" stroke-width=".6"/>
    <path d="m72,149.89h446.4" fill="none" stroke="#c9d1d9" stroke-width=".283"/>
    <path id="mb020e9da3d-26" d="m72,149.89h2" fill="none" stroke="#c9d1d9" stroke-linejoin="round" stroke-width=".6"/>
    <path d="m72,146.02h446.4" fill="none" stroke="#c9d1d9" stroke-width=".283"/>
    <path id="mb020e9da3d-27" d="m72,146.02h2" fill="none" stroke="#c9d1d9" stroke-linejoin="round" stroke-width=".6"/>
    <path d="m72,119.8h446.4" fill="none" stroke="#c9d1d9" stroke-width=".283"/>
    <path id="mb020e9da3d-28" d="m72,119.8h2" fill="none" stroke="#c9d1d9" stroke-linejoin="round" stroke-width=".6"/>
    <path d="m72,106.49h446.4" fill="none" stroke="#c9d1d9" stroke-width=".283"/>
    <path id="mb020e9da3d-29" d="m72,106.49h2" fill="none" stroke="#c9d1d9" stroke-linejoin="round" stroke-width=".6"/>
    <path d="m72,97.04h446.4" fill="none" stroke="#c9d1d9" stroke-width=".283"/>
    <path id="mb020e9da3d-30" d="m72,97.04h2" fill="none" stroke="#c9d1d9" stroke-linejoin="round" stroke-width=".6"/>
    <path d="m72,89.72h446.4" fill="none" stroke="#c9d1d9" stroke-width=".283"/>
    <path id="mb020e9da3d-31" d="m72,89.72h2" fill="none" stroke="#c9d1d9" stroke-linejoin="round" stroke-width=".6"/>
    <path d="m72,83.73h446.4" fill="none" stroke="#c9d1d9" stroke-width=".283"/>
    <path id="mb020e9da3d-32" d="m72,83.73h2" fill="none" stroke="#c9d1d9" stroke-linejoin="round" stroke-width=".6"/>
    <path d="m72,78.67h446.4" fill="none" stroke="#c9d1d9" stroke-width=".283"/>
    <path id="mb020e9da3d-33" d="m72,78.67h2" fill="none" stroke="#c9d1d9" stroke-linejoin="round" stroke-width=".6"/>
    <path d="m72,74.29h446.4" fill="none" stroke="#c9d1d9" stroke-width=".283"/>
    <path id="mb020e9da3d-34" d="m72,74.29h2" fill="none" stroke="#c9d1d9" stroke-linejoin="round" stroke-width=".6"/>
    <path d="m72,70.42h446.4" fill="none" stroke="#c9d1d9" stroke-width=".283"/>
    <path id="mb020e9da3d-35" d="m72,70.42h2" fill="none" stroke="#c9d1d9" stroke-linejoin="round" stroke-width=".6"/>
  </g>
  <g id="Ebene_3" data-name="Ebene 3">
    <path d="m72,384.48h446.4V51.84H72v332.64Z" fill="none" stroke="#c9d1d9" stroke-miterlimit="10"/>
    <rect x="72" y="51.84" width="446.4" height="332.64" fill="none"/>
    <rect x="72" y="51.84" width="446.4" height="332.64" fill="none" stroke="#c9d1d9" stroke-miterlimit="10"/>
    <rect x="72" y="51.84" width="446.4" height="332.64" fill="none"/>
    <rect x="72" y="51.84" width="446.4" height="332.64" fill="none" stroke="#c9d1d9" stroke-miterlimit="10"/>
    <rect x="72" y="51.84" width="446.4" height="332.64" fill="none"/>
    <rect x="72" y="51.84" width="446.4" height="332.64" fill="none" stroke="#c9d1d9" stroke-miterlimit="10"/>
    <rect x="72" y="51.84" width="446.4" height="332.64" fill="none"/>
    <rect x="72" y="51.84" width="446.4" height="332.64" fill="none" stroke="#c9d1d9" stroke-miterlimit="10"/>
    <rect x="72" y="51.84" width="446.4" height="332.64" fill="none"/>
    <rect x="72" y="51.84" width="446.4" height="332.64" fill="none" stroke="#c9d1d9" stroke-miterlimit="10"/>
    <rect x="72" y="51.84" width="446.4" height="332.64" fill="none"/>
    <rect x="72" y="51.84" width="446.4" height="332.64" fill="none" stroke="#c9d1d9" stroke-miterlimit="10"/>
    <rect x="72" y="51.84" width="446.4" height="332.64" fill="none"/>
    <rect x="72" y="51.84" width="446.4" height="332.64" fill="none" stroke="#c9d1d9" stroke-miterlimit="10"/>
    <rect x="72" y="51.84" width="446.4" height="332.64" fill="none"/>
    <rect x="72" y="51.84" width="446.4" height="332.64" fill="none" stroke="#c9d1d9" stroke-miterlimit="10"/>
    <rect x="72" y="51.84" width="446.4" height="332.64" fill="none"/>
    <rect x="72" y="51.84" width="446.4" height="332.64" fill="none" stroke="#c9d1d9" stroke-miterlimit="10"/>
    <rect x="72" y="51.84" width="446.4" height="332.64" fill="none"/>
    <rect x="72" y="51.84" width="446.4" height="332.64" fill="none" stroke="#c9d1d9" stroke-miterlimit="10"/>
    <rect x="72" y="51.84" width="446.4" height="332.64" fill="none"/>
    <rect x="72" y="51.84" width="446.4" height="332.64" fill="none" stroke="#c9d1d9" stroke-miterlimit="10"/>
    <rect x="72" y="51.84" width="446.4" height="332.64" fill="none"/>
    <rect x="72" y="51.84" width="446.4" height="332.64" fill="none" stroke="#c9d1d9" stroke-miterlimit="10"/>
    <rect x="72" y="51.84" width="446.4" height="332.64" fill="none"/>
    <rect x="72" y="51.84" width="446.4" height="332.64" fill="none" stroke="#c9d1d9" stroke-miterlimit="10"/>
    <rect x="72" y="51.84" width="446.4" height="332.64" fill="none"/>
    <rect x="72" y="51.84" width="446.4" height="332.64" fill="none" stroke="#c9d1d9" stroke-miterlimit="10"/>
    <rect x="72" y="51.84" width="446.4" height="332.64" fill="none"/>
    <rect x="72" y="51.84" width="446.4" height="332.64" fill="none" stroke="#c9d1d9" stroke-miterlimit="10"/>
    <rect x="72" y="51.84" width="446.4" height="332.64" fill="none"/>
    <rect x="72" y="51.84" width="446.4" height="332.64" fill="none" stroke="#c9d1d9" stroke-miterlimit="10"/>
    <rect x="72" y="51.84" width="446.4" height="332.64" fill="none"/>
    <rect x="72" y="51.84" width="446.4" height="332.64" fill="none" stroke="#c9d1d9" stroke-miterlimit="10"/>
    <rect x="72" y="51.84" width="446.4" height="332.64" fill="none"/>
    <rect x="72" y="51.84" width="446.4" height="332.64" fill="none" stroke="#c9d1d9" stroke-miterlimit="10"/>
    <rect x="72" y="51.84" width="446.4" height="332.64" fill="none"/>
    <rect x="72" y="51.84" width="446.4" height="332.64" fill="none" stroke="#c9d1d9" stroke-miterlimit="10"/>
    <rect x="72" y="51.84" width="446.4" height="332.64" fill="none"/>
    <rect x="72" y="51.84" width="446.4" height="332.64" fill="none" stroke="#c9d1d9" stroke-miterlimit="10"/>
    <rect x="72" y="51.84" width="446.4" height="332.64" fill="none"/>
    <rect x="72" y="51.84" width="446.4" height="332.64" fill="none" stroke="#c9d1d9" stroke-miterlimit="10"/>
    <rect x="72" y="51.84" width="446.4" height="332.64" fill="none"/>
    <rect x="72" y="51.84" width="446.4" height="332.64" fill="none" stroke="#c9d1d9" stroke-miterlimit="10"/>
    <rect x="72" y="51.84" width="446.4" height="332.64" fill="none"/>
    <rect x="72" y="51.84" width="446.4" height="332.64" fill="none" stroke="#c9d1d9" stroke-miterlimit="10"/>
    <rect x="72" y="51.84" width="446.4" height="332.64" fill="none"/>
    <rect x="72" y="51.84" width="446.4" height="332.64" fill="none" stroke="#c9d1d9" stroke-miterlimit="10"/>
    <rect x="72" y="51.84" width="446.4" height="332.64" fill="none"/>
    <rect x="72" y="51.84" width="446.4" height="332.64" fill="none" stroke="#c9d1d9" stroke-miterlimit="10"/>
    <rect x="72" y="51.84" width="446.4" height="332.64" fill="none"/>
    <rect x="72" y="51.84" width="446.4" height="332.64" fill="none" stroke="#c9d1d9" stroke-miterlimit="10"/>
    <rect x="72" y="51.84" width="446.4" height="332.64" fill="none"/>
    <rect x="72" y="51.84" width="446.4" height="332.64" fill="none" stroke="#c9d1d9" stroke-miterlimit="10"/>
    <rect x="72" y="51.84" width="446.4" height="332.64" fill="none"/>
    <rect x="72" y="51.84" width="446.4" height="332.64" fill="none" stroke="#c9d1d9" stroke-miterlimit="10"/>
    <rect x="72" y="51.84" width="446.4" height="332.64" fill="none"/>
    <rect x="72" y="51.84" width="446.4" height="332.64" fill="none" stroke="#c9d1d9" stroke-miterlimit="10"/>
    <rect x="72" y="51.84" width="446.4" height="332.64" fill="none"/>
    <rect x="72" y="51.84" width="446.4" height="332.64" fill="none" stroke="#c9d1d9" stroke-miterlimit="10"/>
    <rect x="72" y="51.84" width="446.4" height="332.64" fill="none"/>
    <rect x="72" y="51.84" width="446.4" height="332.64" fill="none" stroke="#c9d1d9" stroke-miterlimit="10"/>
    <rect x="72" y="51.84" width="446.4" height="332.64" fill="none"/>
    <rect x="72" y="51.84" width="446.4" height="332.64" fill="none" stroke="#c9d1d9" stroke-miterlimit="10"/>
    <rect x="72" y="51.84" width="446.4" height="332.64" fill="none"/>
    <rect x="72" y="51.84" width="446.4" height="332.64" fill="none" stroke="#c9d1d9" stroke-miterlimit="10"/>
    <rect x="72" y="51.84" width="446.4" height="332.64" fill="none"/>
    <rect x="72" y="51.84" width="446.4" height="332.64" fill="none" stroke="#c9d1d9" stroke-miterlimit="10"/>
    <rect x="72" y="51.84" width="446.4" height="332.64" fill="none"/>
    <rect x="72" y="51.84" width="446.4" height="332.64" fill="none" stroke="#c9d1d9" stroke-miterlimit="10"/>
    <rect x="72" y="51.84" width="446.4" height="332.64" fill="none"/>
    <rect x="72" y="51.84" width="446.4" height="332.64" fill="none" stroke="#c9d1d9" stroke-miterlimit="10"/>
    <rect x="72" y="51.84" width="446.4" height="332.64" fill="none"/>
    <rect x="72" y="51.84" width="446.4" height="332.64" fill="none" stroke="#c9d1d9" stroke-miterlimit="10"/>
    <rect x="72" y="51.84" width="446.4" height="332.64" fill="none"/>
    <rect x="72" y="51.84" width="446.4" height="332.64" fill="none" stroke="#c9d1d9" stroke-miterlimit="10"/>
    <rect x="72" y="51.84" width="446.4" height="332.64" fill="none"/>
    <rect x="72" y="51.84" width="446.4" height="332.64" fill="none" stroke="#c9d1d9" stroke-miterlimit="10"/>
    <rect x="72" y="51.84" width="446.4" height="332.64" fill="none"/>
    <rect x="72" y="51.84" width="446.4" height="332.64" fill="none" stroke="#c9d1d9" stroke-miterlimit="10"/>
    <rect x="72" y="51.84" width="446.4" height="332.64" fill="none"/>
    <rect x="72" y="51.84" width="446.4" height="332.64" fill="none" stroke="#c9d1d9" stroke-miterlimit="10"/>
    <rect x="72" y="51.84" width="446.4" height="332.64" fill="none"/>
    <rect x="72" y="51.84" width="446.4" height="332.64" fill="none" stroke="#c9d1d9" stroke-miterlimit="10"/>
    <rect x="72" y="51.84" width="446.4" height="332.64" fill="none"/>
    <rect x="72" y="51.84" width="446.4" height="332.64" fill="none" stroke="#c9d1d9" stroke-miterlimit="10"/>
    <rect x="72" y="51.84" width="446.4" height="332.64" fill="none"/>
    <rect x="72" y="51.84" width="446.4" height="332.64" fill="none" stroke="#c9d1d9" stroke-miterlimit="10"/>
    <rect x="72" y="51.84" width="446.4" height="332.64" fill="none"/>
    <rect x="72" y="51.84" width="446.4" height="332.64" fill="none" stroke="#c9d1d9" stroke-miterlimit="10"/>
    <rect x="72" y="51.84" width="446.4" height="332.64" fill="none"/>
    <rect x="72" y="51.84" width="446.4" height="332.64" fill="none" stroke="#c9d1d9" stroke-miterlimit="10"/>
    <rect x="72" y="51.84" width="446.4" height="332.64" fill="none"/>
    <rect x="72" y="51.84" width="446.4" height="332.64" fill="none" stroke="#c9d1d9" stroke-miterlimit="10"/>
    <rect x="72" y="51.84" width="446.4" height="332.64" fill="none"/>
    <rect x="72" y="51.84" width="446.4" height="332.64" fill="none" stroke="#c9d1d9" stroke-miterlimit="10"/>
    <rect x="72" y="51.84" width="446.4" height="332.64" fill="none"/>
    <rect x="72" y="51.84" width="446.4" height="332.64" fill="none" stroke="#c9d1d9" stroke-miterlimit="10"/>
    <rect x="72" y="51.84" width="446.4" height="332.64" fill="none" stroke="#c9d1d9" stroke-miterlimit="10"/>
    <rect x="72" y="51.84" width="446.4" height="332.64" fill="none" stroke="#c9d1d9" stroke-miterlimit="10"/>
    <rect x="72" y="51.84" width="446.4" height="332.64" fill="none" stroke="#c9d1d9" stroke-miterlimit="10"/>
    <rect x="72" y="51.84" width="446.4" height="332.64" fill="none" stroke="#c9d1d9" stroke-miterlimit="10"/>
    <path d="m72,384.48V51.84" fill="none" stroke="#c9d1d9" stroke-linecap="square"/>
    <path d="m72,384.48h446.4" fill="none" stroke="#c9d1d9" stroke-linecap="square"/>
    <path d="m79.07,89.2h158.75c1.38,0,2.07-.67,2.07-2v-28.36c0-1.33-.69-2-2.07-2H79.07c-1.38,0-2.07.67-2.07,2v28.36c0,1.33.69,2,2.07,2h0Z" fill="none" isolation="isolate" opacity=".8" stroke="#c9d1d9"/>
  </g>
  <g id="Ebene_2" data-name="Ebene 2">
    <g id="Text">
      <g isolation="isolate">
        <g isolation="isolate">
          <path d="m205.711,30.59v-11.25h3.398c1.323,0,2.407.224,3.254.672.846.448,1.473,1.087,1.879,1.918s.609,1.816.609,2.957c0,1.292-.24,2.359-.719,3.203-.479.844-1.156,1.472-2.031,1.883s-1.906.617-3.094.617h-3.297Zm1.406-1.156h1.75c2.974,0,4.461-1.489,4.461-4.469,0-.911-.147-1.702-.441-2.371-.294-.669-.761-1.187-1.398-1.551-.638-.364-1.478-.547-2.52-.547h-1.852v8.938Z" fill="#c9d1d9"/>
        </g>
        <g isolation="isolate">
          <path d="m220.575,30.777c-.802,0-1.496-.18-2.082-.539s-1.038-.868-1.355-1.527c-.318-.659-.477-1.437-.477-2.332,0-.901.159-1.683.477-2.344.317-.661.766-1.172,1.344-1.531s1.258-.539,2.039-.539c.448,0,.897.071,1.348.215.45.144.862.391,1.234.742.372.352.672.833.898,1.445s.34,1.384.34,2.316h-6.836v-1.062h5.695l-.375.492c-.026-.739-.146-1.333-.359-1.781-.214-.448-.491-.772-.832-.973-.341-.2-.72-.301-1.137-.301-.495,0-.922.129-1.281.387s-.636.634-.828,1.129c-.193.495-.289,1.099-.289,1.812,0,1.052.215,1.864.645,2.438s1.04.859,1.832.859c.567,0,1.045-.144,1.434-.43.388-.286.673-.7.855-1.242l1.289.438c-.203.489-.474.907-.812,1.254-.339.347-.741.612-1.207.797-.466.185-.986.277-1.559.277Z" fill="#c9d1d9"/>
        </g>
        <g isolation="isolate">
          <path d="m229.921,30.777c-.792,0-1.477-.18-2.055-.539s-1.023-.868-1.336-1.527-.469-1.438-.469-2.34.156-1.681.469-2.34.758-1.168,1.336-1.527,1.263-.539,2.055-.539c.604,0,1.145.11,1.621.332s.88.539,1.211.953c.33.414.574.913.73,1.496l-1.336.352c-.146-.656-.408-1.16-.785-1.512-.378-.352-.858-.527-1.441-.527-.776,0-1.374.288-1.793.863-.42.575-.629,1.392-.629,2.449s.209,1.88.629,2.453c.419.573,1.017.859,1.793.859.578,0,1.055-.171,1.43-.512s.638-.835.789-1.48l1.328.375c-.125.427-.297.808-.516,1.141s-.479.617-.777.852c-.3.234-.639.413-1.016.535-.378.122-.791.184-1.238.184Z" fill="#c9d1d9"/>
          <path d="m236.038,20.738c-.303,0-.561-.106-.773-.32-.214-.214-.32-.472-.32-.773,0-.308.106-.566.32-.777.213-.211.471-.316.773-.316.307,0,.566.105.777.316s.316.47.316.777c0,.302-.105.56-.316.773s-.471.32-.777.32Zm-.656,9.852v-8.438h1.312v8.438h-1.312Z" fill="#c9d1d9"/>
        </g>
        <g isolation="isolate">
          <path d="m243.285,30.777c-.552,0-1.099-.138-1.641-.414-.542-.276-.951-.742-1.227-1.398l.07-.062v1.688h-1.234v-11.719h1.312v5.039l-.117-.125c.229-.614.609-1.071,1.141-1.371s1.096-.449,1.695-.449c.688,0,1.292.18,1.812.539.521.359.927.87,1.219,1.531.292.661.438,1.442.438,2.344s-.147,1.681-.441,2.34c-.294.659-.702,1.167-1.223,1.523-.521.356-1.123.535-1.805.535Zm-.359-1.094c.698,0,1.271-.288,1.719-.863.448-.575.672-1.399.672-2.473,0-1.042-.216-1.851-.648-2.426-.433-.575-1.008-.863-1.727-.863-.438,0-.84.114-1.207.344s-.66.586-.879,1.07-.328,1.109-.328,1.875c0,1.13.234,1.969.703,2.516s1.034.82,1.695.82Z" fill="#c9d1d9"/>
        </g>
        <g isolation="isolate">
          <path d="m252.515,30.777c-.802,0-1.496-.18-2.082-.539s-1.038-.868-1.355-1.527c-.318-.659-.477-1.437-.477-2.332,0-.901.159-1.683.477-2.344.317-.661.766-1.172,1.344-1.531s1.258-.539,2.039-.539c.448,0,.897.071,1.348.215.45.144.862.391,1.234.742.372.352.672.833.898,1.445s.34,1.384.34,2.316h-6.836v-1.062h5.695l-.375.492c-.026-.739-.146-1.333-.359-1.781-.214-.448-.491-.772-.832-.973-.341-.2-.72-.301-1.137-.301-.495,0-.922.129-1.281.387s-.636.634-.828,1.129c-.193.495-.289,1.099-.289,1.812,0,1.052.215,1.864.645,2.438s1.04.859,1.832.859c.567,0,1.045-.144,1.434-.43.388-.286.673-.7.855-1.242l1.289.438c-.203.489-.474.907-.812,1.254-.339.347-.741.612-1.207.797-.466.185-.986.277-1.559.277Z" fill="#c9d1d9"/>
        </g>
        <g isolation="isolate">
          <path d="m259.498,30.59c-.334,0-.625-.11-.875-.332s-.375-.501-.375-.84v-10.547h1.312v10.195c0,.172.024.286.074.344.049.058.154.086.316.086h.82v1.094h-1.273Z" fill="#c9d1d9"/>
        </g>
        <g isolation="isolate">
          <path d="m265.296,30.777c-.609,0-1.163-.101-1.66-.301-.498-.2-.91-.505-1.238-.914s-.547-.929-.656-1.559l1.375-.266c.057.661.282,1.153.676,1.477.393.323.887.484,1.48.484.588,0,1.057-.148,1.406-.445.349-.297.523-.659.523-1.086,0-.364-.124-.653-.371-.867-.248-.214-.605-.364-1.074-.453l-1.023-.195c-.276-.052-.562-.125-.859-.219s-.574-.224-.832-.391-.466-.386-.625-.656c-.159-.271-.238-.612-.238-1.023,0-.552.145-1.004.434-1.355s.672-.613,1.148-.785.991-.258,1.543-.258c.604,0,1.13.094,1.578.281.448.188.812.456,1.094.805s.469.771.562,1.266l-1.445.289c-.037-.317-.121-.594-.254-.828s-.326-.415-.578-.543c-.253-.128-.58-.191-.98-.191-.484,0-.901.102-1.25.305-.349.203-.523.511-.523.922,0,.229.059.425.176.586s.294.296.531.402c.237.106.535.199.895.277l1.039.219c.438.089.841.22,1.211.395.37.175.667.415.891.723.224.308.336.714.336,1.219,0,.558-.14,1.038-.418,1.441-.279.403-.664.712-1.156.926s-1.064.32-1.715.32Z" fill="#c9d1d9"/>
        </g>
        <g isolation="isolate">
          <path d="m277.012,30.59l-3.172-8.438h1.453l2.68,7.695h-.25l2.664-7.695h1.453l-3.156,8.438h-1.672Z" fill="#c9d1d9"/>
        </g>
        <g isolation="isolate">
          <path d="m286.206,30.777c-.609,0-1.163-.101-1.66-.301-.498-.2-.91-.505-1.238-.914s-.547-.929-.656-1.559l1.375-.266c.057.661.282,1.153.676,1.477.393.323.887.484,1.48.484.588,0,1.057-.148,1.406-.445.349-.297.523-.659.523-1.086,0-.364-.124-.653-.371-.867-.248-.214-.605-.364-1.074-.453l-1.023-.195c-.276-.052-.562-.125-.859-.219s-.574-.224-.832-.391-.466-.386-.625-.656c-.159-.271-.238-.612-.238-1.023,0-.552.145-1.004.434-1.355s.672-.613,1.148-.785.991-.258,1.543-.258c.604,0,1.13.094,1.578.281.448.188.812.456,1.094.805s.469.771.562,1.266l-1.445.289c-.037-.317-.121-.594-.254-.828s-.326-.415-.578-.543c-.253-.128-.58-.191-.98-.191-.484,0-.901.102-1.25.305-.349.203-.523.511-.523.922,0,.229.059.425.176.586s.294.296.531.402c.237.106.535.199.895.277l1.039.219c.438.089.841.22,1.211.395.37.175.667.415.891.723.224.308.336.714.336,1.219,0,.558-.14,1.038-.418,1.441-.279.403-.664.712-1.156.926s-1.064.32-1.715.32Z" fill="#c9d1d9"/>
        </g>
        <g isolation="isolate">
          <path d="m292.332,30.777c-.333,0-.614-.114-.844-.344s-.344-.511-.344-.844.114-.614.344-.844.511-.344.844-.344.614.114.844.344.344.511.344.844-.114.614-.344.844-.511.344-.844.344Z" fill="#c9d1d9"/>
        </g>
        <g isolation="isolate">
          <path d="m301.147,30.59c-.333,0-.625-.11-.875-.332s-.375-.501-.375-.84v-10.547h1.312v10.195c0,.172.024.286.074.344s.155.086.316.086h.82v1.094h-1.273Z" fill="#c9d1d9"/>
        </g>
        <g isolation="isolate">
          <path d="m304.817,20.738c-.302,0-.56-.106-.773-.32s-.32-.472-.32-.773c0-.308.106-.566.32-.777s.472-.316.773-.316c.308,0,.566.105.777.316s.316.47.316.777c0,.302-.105.56-.316.773s-.47.32-.777.32Zm-.656,9.852v-8.438h1.312v8.438h-1.312Z" fill="#c9d1d9"/>
          <path d="m308.028,30.59v-8.438h1.234v1.906l-.055-.344c.224-.484.578-.897,1.062-1.238s1.073-.512,1.766-.512c.599,0,1.114.133,1.547.398s.766.645,1,1.137.352,1.085.352,1.777v5.312h-1.312v-5.211c0-.692-.142-1.253-.426-1.68s-.751-.641-1.402-.641c-.703,0-1.288.267-1.754.801s-.699,1.306-.699,2.316v4.414h-1.312Z" fill="#c9d1d9"/>
          <path d="m320.747,30.777c-.802,0-1.496-.18-2.082-.539s-1.038-.868-1.355-1.527-.477-1.437-.477-2.332c0-.901.159-1.683.477-2.344s.766-1.172,1.344-1.531,1.258-.539,2.039-.539c.448,0,.897.071,1.348.215s.862.391,1.234.742.672.833.898,1.445.34,1.384.34,2.316h-6.836v-1.062h5.695l-.375.492c-.026-.739-.146-1.333-.359-1.781s-.491-.772-.832-.973-.72-.301-1.137-.301c-.495,0-.922.129-1.281.387s-.636.634-.828,1.129-.289,1.099-.289,1.812c0,1.052.215,1.864.645,2.438s1.04.859,1.832.859c.567,0,1.046-.144,1.434-.43s.673-.7.855-1.242l1.289.438c-.203.489-.474.907-.812,1.254s-.741.612-1.207.797-.985.277-1.559.277Z" fill="#c9d1d9"/>
          <path d="m328.661,30.777c-.562,0-1.051-.108-1.465-.324s-.733-.512-.957-.887-.336-.8-.336-1.273c0-.505.148-.972.445-1.398s.757-.77,1.379-1.027,1.421-.387,2.395-.387h1.406l-.141.141v-.461c0-.677-.136-1.196-.406-1.559s-.724-.543-1.359-.543c-.599,0-1.06.155-1.383.465s-.495.726-.516,1.246l-1.477-.336c.047-.453.22-.866.52-1.238s.7-.671,1.203-.895,1.085-.336,1.746-.336c.683,0,1.238.129,1.668.387s.746.629.949,1.113.305,1.067.305,1.75v3.852c0,.172.024.286.074.344s.155.086.316.086h.477v1.094h-.836c-.354,0-.651-.11-.891-.332s-.359-.501-.359-.84v-.594h.195c-.083.219-.203.441-.359.668s-.354.438-.594.633-.524.353-.855.473-.712.18-1.145.18Zm.297-1.094c.433,0,.833-.106,1.203-.32s.668-.548.895-1.004.34-1.048.34-1.777v-.07h-1.32c-.692,0-1.238.091-1.637.273s-.681.407-.848.676-.25.535-.25.801.06.505.18.719.3.384.539.512.539.191.898.191Z" fill="#c9d1d9"/>
          <path d="m335.317,30.59v-8.438h1.234v1.789l-.047-.203c.25-.583.626-1.024,1.129-1.324s1.012-.449,1.527-.449c.151,0,.298.013.441.039s.277.07.402.133l-.172,1.234c-.286-.089-.57-.133-.852-.133-.177,0-.397.035-.66.105s-.523.211-.781.422-.474.524-.648.941-.262.972-.262,1.664v4.219h-1.312Z" fill="#c9d1d9"/>
        </g>
        <g isolation="isolate">
          <path d="m345.804,30.59v-8.438h1.234v1.789l-.047-.203c.25-.583.626-1.024,1.129-1.324.502-.3,1.012-.449,1.527-.449.15,0,.298.013.441.039.143.026.277.07.402.133l-.172,1.234c-.287-.089-.57-.133-.852-.133-.178,0-.397.035-.66.105-.264.07-.523.211-.781.422s-.475.524-.648.941c-.175.417-.262.972-.262,1.664v4.219h-1.312Z" fill="#c9d1d9"/>
        </g>
        <g isolation="isolate">
          <path d="m353.897,30.777c-.562,0-1.051-.108-1.465-.324s-.733-.512-.957-.887-.336-.8-.336-1.273c0-.505.148-.972.445-1.398s.757-.77,1.379-1.027,1.421-.387,2.395-.387h1.406l-.141.141v-.461c0-.677-.136-1.196-.406-1.559s-.724-.543-1.359-.543c-.599,0-1.06.155-1.383.465s-.495.726-.516,1.246l-1.477-.336c.047-.453.22-.866.52-1.238s.7-.671,1.203-.895,1.085-.336,1.746-.336c.683,0,1.238.129,1.668.387s.746.629.949,1.113.305,1.067.305,1.75v3.852c0,.172.024.286.074.344s.155.086.316.086h.477v1.094h-.836c-.354,0-.651-.11-.891-.332s-.359-.501-.359-.84v-.594h.195c-.083.219-.203.441-.359.668s-.354.438-.594.633-.524.353-.855.473-.712.18-1.145.18Zm.297-1.094c.433,0,.833-.106,1.203-.32s.668-.548.895-1.004.34-1.048.34-1.777v-.07h-1.32c-.692,0-1.238.091-1.637.273s-.681.407-.848.676-.25.535-.25.801.06.505.18.719.3.384.539.512.539.191.898.191Z" fill="#c9d1d9"/>
        </g>
        <g isolation="isolate">
          <path d="m362.059,30.59c-.334,0-.625-.11-.875-.332s-.375-.501-.375-.84v-6.172h-1.359v-1.094h1.359v-1.766l1.312-.281v2.047h1.672v1.094h-1.672v5.82c0,.172.023.286.074.344.049.058.154.086.316.086h1.289v1.094h-1.742Z" fill="#c9d1d9"/>
        </g>
        <g isolation="isolate">
          <path d="m366.348,20.738c-.303,0-.561-.106-.773-.32-.214-.214-.32-.472-.32-.773,0-.308.106-.566.32-.777.213-.211.471-.316.773-.316.307,0,.566.105.777.316s.316.47.316.777c0,.302-.105.56-.316.773s-.471.32-.777.32Zm-.656,9.852v-8.438h1.312v8.438h-1.312Z" fill="#c9d1d9"/>
        </g>
        <g isolation="isolate">
          <path d="m372.983,30.777c-.792,0-1.489-.187-2.094-.559s-1.075-.89-1.414-1.551-.508-1.427-.508-2.297.169-1.636.508-2.297.81-1.179,1.414-1.551,1.302-.559,2.094-.559,1.489.187,2.094.559,1.075.89,1.414,1.551.508,1.427.508,2.297-.169,1.636-.508,2.297-.81,1.179-1.414,1.551-1.302.559-2.094.559Zm0-1.094c.797,0,1.426-.297,1.887-.891s.691-1.401.691-2.422c0-1.026-.23-1.835-.691-2.426s-1.09-.887-1.887-.887-1.426.296-1.887.887-.691,1.399-.691,2.426c0,1.021.23,1.828.691,2.422s1.09.891,1.887.891Z" fill="#c9d1d9"/>
          <path d="m381.913,30.777c-.609,0-1.163-.101-1.66-.301s-.91-.505-1.238-.914-.547-.929-.656-1.559l1.375-.266c.058.661.282,1.153.676,1.477s.887.484,1.48.484c.589,0,1.058-.148,1.406-.445s.523-.659.523-1.086c0-.364-.124-.653-.371-.867s-.605-.364-1.074-.453l-1.023-.195c-.276-.052-.562-.125-.859-.219s-.574-.224-.832-.391-.466-.386-.625-.656-.238-.612-.238-1.023c0-.552.145-1.004.434-1.355s.672-.613,1.148-.785.991-.258,1.543-.258c.604,0,1.13.094,1.578.281s.812.456,1.094.805.469.771.562,1.266l-1.445.289c-.036-.317-.121-.594-.254-.828s-.325-.415-.578-.543-.579-.191-.98-.191c-.484,0-.901.102-1.25.305s-.523.511-.523.922c0,.229.059.425.176.586s.294.296.531.402.535.199.895.277l1.039.219c.438.089.841.22,1.211.395s.667.415.891.723.336.714.336,1.219c0,.558-.14,1.038-.418,1.441s-.664.712-1.156.926-1.063.32-1.715.32Z" fill="#c9d1d9"/>
        </g>
      </g>
      <g isolation="isolate">
        <g isolation="isolate">
          <path d="m253.851,414.57v-9.844h2.974c1.158,0,2.106.196,2.847.588s1.289.951,1.644,1.678c.355.728.533,1.59.533,2.588,0,1.13-.209,2.064-.629,2.803s-1.012,1.287-1.777,1.647-1.668.54-2.707.54h-2.885Zm1.23-1.012h1.531c2.602,0,3.903-1.304,3.903-3.91,0-.798-.129-1.489-.386-2.074-.257-.586-.666-1.038-1.224-1.357s-1.293-.479-2.205-.479h-1.62v7.82Z" fill="#c9d1d9"/>
        </g>
        <g isolation="isolate">
          <path d="m266.849,414.734c-.702,0-1.31-.157-1.822-.472s-.908-.76-1.186-1.337c-.278-.576-.417-1.256-.417-2.04s.139-1.472.417-2.051c.277-.579.67-1.025,1.176-1.34s1.101-.472,1.784-.472c.392,0,.785.062,1.179.188.395.126.755.342,1.08.65.326.307.588.729.786,1.264.198.536.298,1.212.298,2.027h-5.981v-.93h4.983l-.328.431c-.023-.647-.128-1.167-.314-1.559-.188-.392-.43-.676-.729-.851-.298-.176-.63-.264-.994-.264-.434,0-.807.113-1.121.338-.314.227-.557.556-.725.988-.169.433-.253.962-.253,1.586,0,.921.188,1.632.563,2.133s.91.752,1.604.752c.496,0,.915-.125,1.254-.376.34-.251.589-.613.749-1.087l1.128.383c-.178.429-.415.794-.711,1.098-.297.303-.648.535-1.057.697-.407.161-.862.242-1.363.242Z" fill="#c9d1d9"/>
        </g>
        <g isolation="isolate">
          <path d="m275.041,414.734c-.693,0-1.292-.157-1.798-.472s-.896-.76-1.169-1.337c-.273-.576-.41-1.259-.41-2.047s.137-1.471.41-2.047c.273-.577.663-1.022,1.169-1.337s1.105-.472,1.798-.472c.529,0,1.001.097,1.418.291.417.193.77.471,1.06.834.29.361.502.798.639,1.309l-1.169.308c-.127-.574-.356-1.015-.687-1.323-.331-.307-.751-.461-1.261-.461-.679,0-1.202.252-1.569.756-.367.503-.55,1.218-.55,2.143,0,.93.184,1.646.55,2.146s.89.752,1.569.752c.506,0,.923-.149,1.251-.447.328-.299.558-.73.69-1.296l1.162.328c-.109.374-.26.706-.451.998s-.418.54-.68.745-.558.361-.889.469c-.331.106-.691.16-1.083.16Z" fill="#c9d1d9"/>
          <path d="m280.393,405.95c-.264,0-.49-.094-.677-.28s-.28-.412-.28-.677c0-.269.093-.495.28-.681.187-.184.413-.276.677-.276.269,0,.496.093.68.276.185.186.277.412.277.681,0,.265-.092.49-.277.677s-.411.28-.68.28Zm-.574,8.62v-7.383h1.148v7.383h-1.148Z" fill="#c9d1d9"/>
        </g>
        <g isolation="isolate">
          <path d="m286.722,414.734c-.483,0-.961-.121-1.436-.362s-.832-.649-1.073-1.224l.062-.055v1.477h-1.08v-10.254h1.148v4.409l-.103-.109c.201-.538.533-.938.998-1.2.465-.262.959-.393,1.483-.393.602,0,1.13.157,1.586.472s.811.761,1.066,1.34c.255.579.383,1.263.383,2.051s-.129,1.471-.387,2.048c-.257.576-.614,1.021-1.069,1.332-.456.312-.982.469-1.579.469Zm-.314-.957c.611,0,1.112-.252,1.504-.756.392-.503.588-1.225.588-2.163,0-.911-.189-1.619-.567-2.122-.378-.504-.882-.756-1.511-.756-.383,0-.735.101-1.056.301s-.578.513-.769.937-.287.971-.287,1.641c0,.989.205,1.723.615,2.201s.905.718,1.483.718Z" fill="#c9d1d9"/>
        </g>
        <g isolation="isolate">
          <path d="m294.809,414.734c-.702,0-1.31-.157-1.822-.472s-.908-.76-1.186-1.337c-.278-.576-.417-1.256-.417-2.04s.139-1.472.417-2.051c.277-.579.67-1.025,1.176-1.34s1.101-.472,1.784-.472c.392,0,.785.062,1.179.188.395.126.755.342,1.08.65.326.307.588.729.786,1.264.198.536.298,1.212.298,2.027h-5.981v-.93h4.983l-.328.431c-.023-.647-.128-1.167-.314-1.559-.188-.392-.43-.676-.729-.851-.298-.176-.63-.264-.994-.264-.434,0-.807.113-1.121.338-.314.227-.557.556-.725.988-.169.433-.253.962-.253,1.586,0,.921.188,1.632.563,2.133s.91.752,1.604.752c.496,0,.915-.125,1.254-.376.34-.251.589-.613.749-1.087l1.128.383c-.178.429-.415.794-.711,1.098-.297.303-.648.535-1.057.697-.407.161-.862.242-1.363.242Z" fill="#c9d1d9"/>
        </g>
        <g isolation="isolate">
          <path d="m300.914,414.57c-.291,0-.547-.097-.766-.291-.219-.193-.328-.438-.328-.734v-9.229h1.148v8.921c0,.15.021.251.065.301.043.05.136.075.276.075h.718v.957h-1.114Z" fill="#c9d1d9"/>
        </g>
        <g isolation="isolate">
          <path d="m305.986,414.734c-.533,0-1.018-.088-1.452-.264-.436-.175-.797-.441-1.084-.799-.287-.358-.479-.812-.574-1.364l1.203-.232c.051.579.247,1.01.592,1.292.344.282.775.424,1.295.424.516,0,.926-.13,1.23-.39.306-.26.458-.576.458-.95,0-.319-.108-.572-.324-.759-.217-.187-.53-.319-.94-.396l-.896-.171c-.241-.046-.492-.109-.752-.191s-.502-.196-.728-.342-.408-.337-.547-.574c-.14-.237-.209-.535-.209-.896,0-.483.127-.878.38-1.187.253-.307.588-.536,1.005-.687s.867-.226,1.35-.226c.529,0,.989.082,1.381.246.393.164.711.398.957.704s.41.675.492,1.107l-1.265.253c-.031-.278-.105-.52-.222-.725s-.285-.363-.506-.475c-.222-.112-.507-.168-.858-.168-.424,0-.788.089-1.094.267-.305.178-.458.446-.458.807,0,.2.052.371.154.513s.257.259.465.352c.207.094.468.175.782.243l.909.191c.383.077.736.192,1.06.345.324.153.584.364.779.633.196.269.294.624.294,1.066,0,.487-.122.908-.365,1.262-.244.353-.581.623-1.012.81s-.931.28-1.501.28Z" fill="#c9d1d9"/>
        </g>
        <g isolation="isolate">
          <path d="m315.862,416.881c-.707-.902-1.242-1.886-1.606-2.949-.365-1.064-.547-2.173-.547-3.326s.184-2.256.55-3.322c.367-1.066.901-2.056,1.604-2.967h1.217c-.784,1.044-1.359,2.065-1.727,3.066-.366,1-.55,2.074-.55,3.223,0,1.167.178,2.249.533,3.247s.937,2.008,1.743,3.028h-1.217Z" fill="#c9d1d9"/>
        </g>
        <g isolation="isolate">
          <path d="m320.14,414.734c-.598,0-1.125-.157-1.583-.472s-.814-.761-1.069-1.34c-.256-.579-.383-1.263-.383-2.051s.129-1.471.386-2.048c.258-.576.614-1.021,1.07-1.332.455-.312.981-.469,1.579-.469.482,0,.961.121,1.436.362.474.241.831.649,1.073,1.224l-.13.055v-4.348h1.148v10.254h-1.08v-1.538l.034.109c-.201.538-.533.938-.998,1.2-.465.262-.96.393-1.483.393Zm.301-.957c.387,0,.74-.101,1.06-.301.318-.2.574-.514.766-.939.191-.427.287-.973.287-1.638,0-.993-.205-1.729-.615-2.204-.41-.477-.905-.715-1.483-.715-.611,0-1.112.252-1.504.756-.393.503-.588,1.225-.588,2.163,0,.911.188,1.619.567,2.122.378.504.882.756,1.511.756Z" fill="#c9d1d9"/>
        </g>
        <g isolation="isolate">
          <path d="m325.901,414.57v-9.844h3.753c.961,0,1.731.197,2.311.592.578.394.868.972.868,1.732,0,.465-.103.852-.308,1.158-.205.309-.469.545-.79.711-.321.167-.659.271-1.015.312l.021-.027c.72.118,1.312.401,1.773.848.463.446.694,1.071.694,1.873,0,.651-.151,1.171-.455,1.559-.303.388-.705.665-1.206.834-.502.169-1.051.253-1.647.253h-3.999Zm1.23-5.852h2.461c.537,0,.998-.115,1.381-.346.383-.229.574-.616.574-1.158,0-.433-.147-.787-.441-1.062-.294-.276-.775-.414-1.445-.414h-2.529v2.98Zm0,4.84h2.769c.533,0,.95-.092,1.251-.277.301-.184.512-.42.632-.707.121-.287.182-.586.182-.896,0-.442-.103-.807-.308-1.094s-.495-.501-.868-.643c-.374-.142-.816-.212-1.326-.212h-2.331v3.828Z" fill="#c9d1d9"/>
        </g>
        <g isolation="isolate">
          <path d="m333.671,416.881c.807-1.021,1.388-2.03,1.743-3.028s.533-2.08.533-3.247c0-1.148-.182-2.223-.547-3.223-.364-1.001-.94-2.022-1.729-3.066h1.217c.702.911,1.236,1.9,1.604,2.967.366,1.066.55,2.174.55,3.322s-.182,2.262-.547,3.326c-.364,1.063-.899,2.047-1.606,2.949h-1.217Z" fill="#c9d1d9"/>
        </g>
      </g>
      <g isolation="isolate">
        <g isolation="isolate">
          <path d="m30.49,255.279h-9.844v-1.23h8.832v-4.922h1.012v6.152Z" fill="#c9d1d9"/>
        </g>
        <g isolation="isolate">
          <path d="m21.87,247.375c0,.264-.094.49-.28.677s-.412.28-.677.28c-.269,0-.495-.094-.681-.28-.184-.187-.276-.413-.276-.677,0-.27.093-.496.276-.68.186-.186.412-.277.681-.277.265,0,.49.092.677.277.187.184.28.41.28.68Zm8.62.574h-7.383v-1.148h7.383v1.148Z" fill="#c9d1d9"/>
          <path d="m30.49,244.565h-7.383v-1.08h1.668l-.301.048c-.424-.195-.785-.506-1.084-.93-.298-.424-.447-.939-.447-1.545,0-.523.116-.975.349-1.354s.563-.67.995-.875c.43-.205.948-.308,1.555-.308h4.648v1.148h-4.56c-.606,0-1.096.124-1.47.372-.374.249-.561.658-.561,1.228,0,.615.233,1.127.701,1.534.467.408,1.143.612,2.026.612h3.862v1.148Z" fill="#c9d1d9"/>
          <path d="m30.654,233.437c0,.702-.157,1.31-.472,1.821-.314.514-.76.908-1.337,1.187-.576.278-1.256.417-2.04.417s-1.472-.139-2.051-.417-1.025-.67-1.34-1.176-.472-1.101-.472-1.784c0-.393.062-.785.188-1.18.126-.394.342-.754.65-1.08.307-.325.729-.588,1.264-.785.536-.199,1.212-.298,2.027-.298v5.981h-.93v-4.983l.431.328c-.647.022-1.167.128-1.559.314s-.676.43-.851.728c-.176.299-.264.631-.264.995,0,.433.113.807.338,1.121.227.314.556.556.988.725s.962.253,1.586.253c.921,0,1.632-.188,2.133-.564.501-.375.752-.91.752-1.603,0-.497-.125-.915-.376-1.255-.251-.339-.613-.588-1.087-.748l.383-1.128c.429.178.794.415,1.098.711.303.296.535.648.697,1.056.161.408.242.863.242,1.364Z" fill="#c9d1d9"/>
          <path d="m30.654,226.512c0,.492-.095.92-.283,1.281-.189.363-.448.643-.776.838s-.699.294-1.114.294c-.442,0-.85-.13-1.224-.39s-.673-.662-.899-1.207c-.225-.544-.338-1.242-.338-2.095v-1.23l.123.123h-.403c-.593,0-1.047.118-1.364.355-.316.237-.475.634-.475,1.189,0,.524.136.927.406,1.21.271.283.635.434,1.091.451l-.294,1.292c-.396-.041-.758-.192-1.084-.454-.325-.263-.586-.613-.782-1.053-.196-.44-.294-.949-.294-1.528,0-.597.113-1.083.338-1.46.227-.375.551-.652.975-.83s.935-.267,1.531-.267h3.37c.15,0,.251-.021.301-.065.05-.043.075-.135.075-.276v-.417h.957v.731c0,.31-.097.569-.291.779-.193.21-.438.314-.734.314h-.52v-.171c.191.072.387.178.584.314.199.137.383.311.555.52.17.209.309.459.413.748.104.29.157.623.157,1.002Zm-.957-.26c0-.379-.094-.729-.28-1.053s-.479-.584-.878-.783c-.399-.197-.918-.297-1.556-.297h-.062v1.155c0,.606.08,1.083.239,1.433.159.348.356.596.591.741.235.146.469.219.701.219s.442-.052.629-.157.336-.262.447-.472c.112-.21.168-.472.168-.786Z" fill="#c9d1d9"/>
          <path d="m30.49,220.688h-7.383v-1.08h1.565l-.178.041c-.511-.219-.896-.548-1.159-.988-.262-.439-.393-.885-.393-1.336,0-.133.012-.261.034-.386s.062-.243.116-.352l1.08.15c-.077.25-.116.499-.116.745,0,.155.03.348.093.577.061.23.184.459.369.684.184.227.459.415.823.568.364.152.85.229,1.456.229h3.691v1.148Z" fill="#c9d1d9"/>
        </g>
        <g isolation="isolate">
          <path d="m30.49,211.499h-9.844v-3.753c0-2.279.863-3.418,2.591-3.418,1.741,0,2.611,1.146,2.611,3.438v2.502h4.642v1.23Zm-5.653-1.23v-2.522c0-.693-.136-1.226-.407-1.6-.271-.374-.661-.561-1.172-.561-.515,0-.91.187-1.186.561-.276.374-.414.907-.414,1.6v2.522h3.179Zm5.653-4.546l-4.983,2.611v-1.395l4.983-2.611v1.395Z" fill="#c9d1d9"/>
        </g>
        <g isolation="isolate">
          <path d="m30.654,200.792c0,.492-.095.919-.283,1.282-.189.362-.448.642-.776.837s-.699.294-1.114.294c-.442,0-.85-.13-1.224-.39s-.673-.662-.899-1.207c-.225-.544-.338-1.243-.338-2.095v-1.23l.123.123h-.403c-.593,0-1.047.119-1.364.355-.316.237-.475.633-.475,1.189,0,.524.136.927.406,1.21.271.283.635.433,1.091.451l-.294,1.292c-.396-.041-.758-.192-1.084-.455-.325-.262-.586-.613-.782-1.053s-.294-.949-.294-1.528c0-.597.113-1.083.338-1.459.227-.376.551-.653.975-.831s.935-.267,1.531-.267h3.37c.15,0,.251-.021.301-.065s.075-.136.075-.277v-.417h.957v.731c0,.31-.097.57-.291.779-.193.209-.438.314-.734.314h-.52v-.171c.191.073.387.178.584.314.199.137.383.31.555.52.17.209.309.459.413.749s.157.623.157,1.001Zm-.957-.26c0-.378-.094-.729-.28-1.053s-.479-.584-.878-.783c-.399-.198-.918-.297-1.556-.297h-.062v1.155c0,.606.08,1.083.239,1.432s.356.596.591.742c.235.146.469.219.701.219s.442-.052.629-.157.336-.262.447-.472c.112-.209.168-.472.168-.786Z" fill="#c9d1d9"/>
        </g>
        <g isolation="isolate">
          <path d="m30.49,193.656c0,.292-.097.547-.291.766-.193.219-.438.328-.734.328h-5.4v1.189h-.957v-1.189h-1.545l-.246-1.148h1.791v-1.463h.957v1.463h5.093c.15,0,.251-.021.301-.065s.075-.136.075-.277v-1.128h.957v1.524Z" fill="#c9d1d9"/>
        </g>
        <g isolation="isolate">
          <path d="m21.87,189.895c0,.264-.094.49-.28.677s-.412.28-.677.28c-.269,0-.495-.093-.681-.28-.184-.187-.276-.413-.276-.677,0-.269.093-.496.276-.68.186-.185.412-.277.681-.277.265,0,.49.092.677.277s.28.411.28.68Zm8.62.574h-7.383v-1.148h7.383v1.148Z" fill="#c9d1d9"/>
        </g>
        <g isolation="isolate">
          <path d="m30.654,184.093c0,.693-.163,1.303-.488,1.832-.326.529-.778.941-1.357,1.237s-1.249.444-2.01.444-1.431-.148-2.01-.444-1.031-.708-1.357-1.237c-.325-.529-.488-1.139-.488-1.832s.163-1.303.488-1.832c.326-.529.778-.941,1.357-1.237s1.249-.444,2.01-.444,1.431.148,2.01.444,1.031.708,1.357,1.237c.325.529.488,1.139.488,1.832Zm-.957,0c0-.697-.26-1.248-.779-1.651s-1.226-.605-2.119-.605-1.605.202-2.123.605c-.517.403-.775.954-.775,1.651s.259,1.248.775,1.651c.518.403,1.226.605,2.123.605s1.6-.202,2.119-.605.779-.954.779-1.651Z" fill="#c9d1d9"/>
        </g>
      </g>
      <g isolation="isolate">
        <g isolation="isolate">
          <path d="m48.921,375.99v-7.841c-.36.31-.697.571-1.012.782-.314.213-.666.392-1.053.537v-1.162c.201-.096.413-.215.636-.359.223-.143.478-.355.762-.635.285-.281.614-.669.988-1.166h.882v9.844h-1.203Z" fill="#c9d1d9"/>
          <path d="m55.525,376.154c-1.139,0-2.023-.445-2.652-1.336-.629-.892-.943-2.142-.943-3.75s.314-2.858.943-3.75c.629-.891,1.513-1.336,2.652-1.336s2.029.445,2.656,1.336c.626.892.94,2.142.94,3.75s-.313,2.858-.94,3.75c-.626.891-1.512,1.336-2.656,1.336Zm0-.984c.756,0,1.329-.349,1.716-1.046s.581-1.716.581-3.056-.194-2.358-.581-3.056-.959-1.046-1.716-1.046-1.329.349-1.716,1.046-.581,1.716-.581,3.056.194,2.358.581,3.056.959,1.046,1.716,1.046Z" fill="#c9d1d9"/>
        </g>
      </g>
      <g isolation="isolate">
        <g isolation="isolate">
          <path d="m60.46,369.142v-.618h2.66v.618h-2.66Z" fill="#c9d1d9"/>
        </g>
        <g isolation="isolate">
          <path d="m63.057,371.33v-.468l2.006-1.701c.272-.232.495-.444.668-.634.173-.191.301-.384.383-.579.082-.196.123-.414.123-.654,0-.262-.046-.481-.137-.66-.091-.179-.223-.312-.394-.402-.172-.09-.382-.135-.631-.135-.285,0-.516.056-.691.169-.176.111-.307.264-.393.453-.086.19-.137.404-.153.643l-.761-.234c.016-.254.108-.503.275-.749.168-.245.398-.449.692-.61s.636-.242,1.027-.242c.222,0,.445.031.67.096.225.062.431.164.62.303s.341.32.456.543c.115.224.172.494.172.811,0,.453-.123.856-.369,1.212-.246.355-.589.712-1.031,1.068l-1.55,1.257-.503-.095h3.564v.61h-4.044Z" fill="#c9d1d9"/>
        </g>
      </g>
      <g isolation="isolate">
        <g isolation="isolate">
          <path d="m50.392,300.39v-7.841c-.36.31-.697.571-1.012.782-.314.213-.666.392-1.053.537v-1.162c.201-.096.413-.215.636-.359.223-.143.478-.355.762-.635.285-.281.614-.669.988-1.166h.882v9.844h-1.203Z" fill="#c9d1d9"/>
          <path d="m56.995,300.554c-1.139,0-2.023-.445-2.652-1.336-.629-.892-.943-2.142-.943-3.75s.314-2.858.943-3.75c.629-.891,1.513-1.336,2.652-1.336s2.029.445,2.656,1.336c.626.892.94,2.142.94,3.75s-.313,2.858-.94,3.75c-.626.891-1.512,1.336-2.656,1.336Zm0-.984c.756,0,1.329-.349,1.716-1.046s.581-1.716.581-3.056-.194-2.358-.581-3.056-.959-1.046-1.716-1.046-1.329.349-1.716,1.046-.581,1.716-.581,3.056.194,2.358.581,3.056.959,1.046,1.716,1.046Z" fill="#c9d1d9"/>
        </g>
      </g>
      <g isolation="isolate">
        <g isolation="isolate">
          <path d="m61.93,293.542v-.618h2.66v.618h-2.66Z" fill="#c9d1d9"/>
        </g>
        <g isolation="isolate">
          <path d="m66.083,295.73v-4.548c-.209.181-.405.331-.587.454-.183.123-.386.227-.611.312v-.675c.116-.055.239-.125.369-.207.13-.084.277-.207.442-.369.165-.162.356-.389.573-.676h.512v5.709h-.698Z" fill="#c9d1d9"/>
        </g>
      </g>
      <g isolation="isolate">
        <g isolation="isolate">
          <path d="m51.591,224.79v-7.841c-.36.31-.697.571-1.012.782-.314.213-.666.392-1.053.537v-1.162c.201-.096.413-.215.636-.359.223-.143.478-.355.762-.635.285-.281.614-.669.988-1.166h.882v9.844h-1.203Z" fill="#c9d1d9"/>
          <path d="m58.195,224.954c-1.139,0-2.023-.445-2.652-1.336-.629-.892-.943-2.142-.943-3.75s.314-2.858.943-3.75c.629-.891,1.513-1.336,2.652-1.336s2.029.445,2.656,1.336c.626.892.94,2.142.94,3.75s-.313,2.858-.94,3.75c-.626.891-1.512,1.336-2.656,1.336Zm0-.984c.756,0,1.329-.349,1.716-1.046s.581-1.716.581-3.056-.194-2.358-.581-3.056-.959-1.046-1.716-1.046-1.329.349-1.716,1.046-.581,1.716-.581,3.056.194,2.358.581,3.056.959,1.046,1.716,1.046Z" fill="#c9d1d9"/>
        </g>
      </g>
      <g isolation="isolate">
        <g isolation="isolate">
          <path d="m64.952,220.225c-.661,0-1.173-.258-1.538-.775-.365-.516-.547-1.24-.547-2.174s.183-1.658.547-2.175.877-.775,1.538-.775,1.177.259,1.541.775c.363.517.545,1.242.545,2.175s-.182,1.658-.545,2.174c-.364.518-.877.775-1.541.775Zm0-.57c.439,0,.771-.203.995-.607s.337-.994.337-1.771-.112-1.368-.337-1.772-.556-.606-.995-.606-.771.202-.995.606-.337.995-.337,1.772.112,1.367.337,1.771.556.607.995.607Z" fill="#c9d1d9"/>
        </g>
      </g>
      <g isolation="isolate">
        <g isolation="isolate">
          <path d="m53.781,149.19v-7.841c-.36.31-.697.571-1.012.782-.314.213-.666.392-1.053.537v-1.162c.201-.096.413-.215.636-.359.223-.143.478-.355.762-.635.285-.281.614-.669.988-1.166h.882v9.844h-1.203Z" fill="#c9d1d9"/>
          <path d="m60.385,149.354c-1.139,0-2.023-.445-2.652-1.336-.629-.892-.943-2.142-.943-3.75s.314-2.858.943-3.75c.629-.891,1.513-1.336,2.652-1.336s2.029.445,2.656,1.336c.626.892.94,2.142.94,3.75s-.313,2.858-.94,3.75c-.626.891-1.512,1.336-2.656,1.336Zm0-.984c.756,0,1.329-.349,1.716-1.046s.581-1.716.581-3.056-.194-2.358-.581-3.056-.959-1.046-1.716-1.046-1.329.349-1.716,1.046-.581,1.716-.581,3.056.194,2.358.581,3.056.959,1.046,1.716,1.046Z" fill="#c9d1d9"/>
        </g>
      </g>
      <g isolation="isolate">
        <g isolation="isolate">
          <path d="m66.1,144.53v-4.548c-.209.18-.405.331-.587.454-.183.123-.386.227-.611.312v-.674c.116-.056.239-.125.369-.208.13-.083.277-.206.442-.369.165-.163.356-.388.573-.676h.512v5.709h-.698Z" fill="#c9d1d9"/>
        </g>
      </g>
      <g isolation="isolate">
        <g isolation="isolate">
          <path d="m51.912,73.59v-7.841c-.36.31-.697.571-1.012.782-.314.213-.666.392-1.053.537v-1.162c.201-.096.413-.215.636-.359.223-.143.478-.355.762-.635.285-.281.614-.669.988-1.166h.882v9.844h-1.203Z" fill="#c9d1d9"/>
          <path d="m58.515,73.754c-1.139,0-2.023-.445-2.652-1.336-.629-.892-.943-2.142-.943-3.75s.314-2.858.943-3.75c.629-.891,1.513-1.336,2.652-1.336s2.029.445,2.656,1.336c.626.892.94,2.142.94,3.75s-.313,2.858-.94,3.75c-.626.891-1.512,1.336-2.656,1.336Zm0-.984c.756,0,1.329-.349,1.716-1.046s.581-1.716.581-3.056-.194-2.358-.581-3.056-.959-1.046-1.716-1.046-1.329.349-1.716,1.046-.581,1.716-.581,3.056.194,2.358.581,3.056.959,1.046,1.716,1.046Z" fill="#c9d1d9"/>
        </g>
      </g>
      <g isolation="isolate">
        <g isolation="isolate">
          <path d="m63.067,68.93v-.468l2.006-1.701c.272-.232.495-.444.668-.634.173-.19.301-.383.383-.579.082-.196.123-.414.123-.654,0-.262-.046-.482-.137-.66-.091-.179-.223-.312-.394-.402-.172-.09-.382-.135-.631-.135-.285,0-.516.056-.691.168-.176.112-.307.264-.393.454-.086.19-.137.405-.153.643l-.761-.234c.016-.254.108-.503.275-.75.168-.246.398-.449.692-.61s.636-.242,1.027-.242c.222,0,.445.032.67.095.225.063.431.165.62.303.189.139.341.32.456.543.115.223.172.494.172.811,0,.452-.123.856-.369,1.211-.246.355-.589.712-1.031,1.068l-1.55,1.257-.503-.095h3.564v.61h-4.044Z" fill="#c9d1d9"/>
        </g>
      </g>
      <g isolation="isolate">
        <g isolation="isolate">
          <path d="m82.521,395.007v-1.066h4.587v1.066h-4.587Z" fill="#c9d1d9"/>
        </g>
        <g isolation="isolate">
          <path d="m86.999,398.78v-.807l3.459-2.933c.469-.401.854-.766,1.152-1.094s.519-.661.66-.998.212-.713.212-1.128c0-.451-.079-.83-.236-1.139-.157-.307-.384-.538-.68-.693s-.659-.232-1.087-.232c-.492,0-.89.097-1.193.291-.303.193-.529.454-.677.782s-.236.697-.263,1.107l-1.312-.403c.027-.438.186-.868.475-1.292s.687-.774,1.193-1.053,1.096-.417,1.771-.417c.383,0,.768.055,1.155.164s.744.283,1.07.523c.326.238.588.551.786.936.198.386.297.852.297,1.398,0,.779-.212,1.476-.636,2.088-.424.613-1.016,1.228-1.777,1.843l-2.673,2.167-.868-.164h6.146v1.053h-6.973Z" fill="#c9d1d9"/>
        </g>
        <g isolation="isolate">
          <path d="m98.899,398.944c-1.139,0-2.023-.445-2.652-1.336-.629-.892-.943-2.142-.943-3.75s.314-2.858.943-3.75c.629-.891,1.513-1.336,2.652-1.336s2.029.445,2.656,1.336c.626.892.94,2.142.94,3.75s-.313,2.858-.94,3.75c-.626.891-1.512,1.336-2.656,1.336Zm0-.984c.756,0,1.329-.349,1.716-1.046s.581-1.716.581-3.056-.194-2.358-.581-3.056-.959-1.046-1.716-1.046-1.329.349-1.716,1.046-.581,1.716-.581,3.056.194,2.358.581,3.056.959,1.046,1.716,1.046Z" fill="#c9d1d9"/>
        </g>
      </g>
      <g isolation="isolate">
        <g isolation="isolate">
          <path d="m134.711,395.007v-1.066h4.587v1.066h-4.587Z" fill="#c9d1d9"/>
        </g>
        <g isolation="isolate">
          <path d="m141.872,398.78v-7.841c-.36.31-.697.571-1.012.782-.314.213-.666.392-1.053.537v-1.162c.201-.096.413-.215.636-.359.223-.143.478-.355.762-.635.285-.281.614-.669.988-1.166h.882v9.844h-1.203Z" fill="#c9d1d9"/>
        </g>
        <g isolation="isolate">
          <path d="m148.435,398.944c-.57,0-1.114-.117-1.634-.352-.52-.235-.954-.579-1.302-1.033-.349-.453-.553-1.008-.612-1.664l1.244-.39c.05.692.261,1.274.632,1.747.372.471.915.707,1.63.707.442,0,.831-.105,1.166-.318.335-.211.598-.504.79-.878s.287-.802.287-1.285c0-.733-.211-1.297-.632-1.688s-.944-.588-1.569-.588c-.551,0-.983.138-1.295.414-.312.275-.541.584-.687.926l-1.189-.123.396-5.482h5.633v1.053h-4.614l-.26,3.719-.335-.027c.246-.419.588-.772,1.025-1.06s.971-.431,1.6-.431c.602,0,1.142.137,1.62.41s.857.654,1.135,1.142.417,1.053.417,1.695c0,.711-.16,1.329-.479,1.856-.319.525-.741.933-1.265,1.22s-1.091.431-1.702.431Z" fill="#c9d1d9"/>
        </g>
      </g>
      <g isolation="isolate">
        <g isolation="isolate">
          <path d="m185.281,395.007v-1.066h4.587v1.066h-4.587Z" fill="#c9d1d9"/>
        </g>
        <g isolation="isolate">
          <path d="m192.441,398.78v-7.841c-.36.31-.697.571-1.012.782-.314.213-.666.392-1.053.537v-1.162c.201-.096.413-.215.636-.359.223-.143.478-.355.762-.635.285-.281.614-.669.988-1.166h.882v9.844h-1.203Z" fill="#c9d1d9"/>
          <path d="m199.045,398.944c-1.139,0-2.023-.445-2.652-1.336-.629-.892-.943-2.142-.943-3.75s.314-2.858.943-3.75c.629-.891,1.513-1.336,2.652-1.336s2.029.445,2.656,1.336c.626.892.94,2.142.94,3.75s-.313,2.858-.94,3.75c-.626.891-1.512,1.336-2.656,1.336Zm0-.984c.756,0,1.329-.349,1.716-1.046s.581-1.716.581-3.056-.194-2.358-.581-3.056-.959-1.046-1.716-1.046-1.329.349-1.716,1.046-.581,1.716-.581,3.056.194,2.358.581,3.056.959,1.046,1.716,1.046Z" fill="#c9d1d9"/>
        </g>
      </g>
      <g isolation="isolate">
        <g isolation="isolate">
          <path d="m238.341,395.007v-1.066h4.587v1.066h-4.587Z" fill="#c9d1d9"/>
        </g>
        <g isolation="isolate">
          <path d="m247.715,398.944c-.57,0-1.114-.117-1.634-.352-.52-.235-.954-.579-1.302-1.033-.349-.453-.553-1.008-.612-1.664l1.244-.39c.05.692.261,1.274.632,1.747.372.471.915.707,1.63.707.442,0,.831-.105,1.166-.318.335-.211.598-.504.79-.878s.287-.802.287-1.285c0-.733-.211-1.297-.632-1.688s-.944-.588-1.569-.588c-.551,0-.983.138-1.295.414-.312.275-.541.584-.687.926l-1.189-.123.396-5.482h5.633v1.053h-4.614l-.26,3.719-.335-.027c.246-.419.588-.772,1.025-1.06s.971-.431,1.6-.431c.602,0,1.142.137,1.62.41s.857.654,1.135,1.142.417,1.053.417,1.695c0,.711-.16,1.329-.479,1.856-.319.525-.741.933-1.265,1.22s-1.091.431-1.702.431Z" fill="#c9d1d9"/>
        </g>
      </g>
      <g isolation="isolate">
        <g isolation="isolate">
          <path d="m295.199,398.944c-1.139,0-2.023-.445-2.652-1.336-.629-.892-.943-2.142-.943-3.75s.314-2.858.943-3.75c.629-.891,1.514-1.336,2.652-1.336,1.145,0,2.029.445,2.656,1.336.626.892.939,2.142.939,3.75s-.313,2.858-.939,3.75c-.627.891-1.512,1.336-2.656,1.336Zm0-.984c.757,0,1.329-.349,1.716-1.046.388-.697.581-1.716.581-3.056s-.193-2.358-.581-3.056c-.387-.697-.959-1.046-1.716-1.046s-1.328.349-1.716,1.046c-.387.697-.581,1.716-.581,3.056s.194,2.358.581,3.056c.388.697.96,1.046,1.716,1.046Z" fill="#c9d1d9"/>
        </g>
      </g>
      <g isolation="isolate">
        <g isolation="isolate">
          <path d="m345.985,398.944c-.57,0-1.114-.117-1.634-.352-.52-.235-.954-.579-1.303-1.033-.349-.453-.553-1.008-.611-1.664l1.244-.39c.05.692.261,1.274.632,1.747.372.471.915.707,1.631.707.441,0,.83-.105,1.165-.318.335-.211.599-.504.79-.878s.287-.802.287-1.285c0-.733-.211-1.297-.633-1.688-.421-.392-.944-.588-1.568-.588-.552,0-.983.138-1.296.414-.312.275-.541.584-.687.926l-1.189-.123.396-5.482h5.633v1.053h-4.614l-.26,3.719-.335-.027c.246-.419.588-.772,1.025-1.06s.971-.431,1.6-.431c.602,0,1.142.137,1.62.41s.856.654,1.135,1.142c.277.487.417,1.053.417,1.695,0,.711-.16,1.329-.479,1.856-.319.525-.741.933-1.265,1.22-.524.287-1.092.431-1.702.431Z" fill="#c9d1d9"/>
        </g>
      </g>
      <g isolation="isolate">
        <g isolation="isolate">
          <path d="m392.451,398.78v-7.841c-.359.31-.697.571-1.012.782-.314.213-.665.392-1.053.537v-1.162c.201-.096.413-.215.636-.359.224-.143.478-.355.763-.635.284-.281.614-.669.987-1.166h.882v9.844h-1.203Z" fill="#c9d1d9"/>
          <path d="m399.055,398.944c-1.139,0-2.023-.445-2.652-1.336-.629-.892-.943-2.142-.943-3.75s.314-2.858.943-3.75c.629-.891,1.514-1.336,2.652-1.336,1.145,0,2.029.445,2.656,1.336.626.892.939,2.142.939,3.75s-.313,2.858-.939,3.75c-.627.891-1.512,1.336-2.656,1.336Zm0-.984c.757,0,1.329-.349,1.716-1.046.388-.697.581-1.716.581-3.056s-.193-2.358-.581-3.056c-.387-.697-.959-1.046-1.716-1.046s-1.328.349-1.716,1.046c-.387.697-.581,1.716-.581,3.056s.194,2.358.581,3.056c.388.697.96,1.046,1.716,1.046Z" fill="#c9d1d9"/>
        </g>
      </g>
      <g isolation="isolate">
        <g isolation="isolate">
          <path d="m443.342,398.78v-7.841c-.36.31-.697.571-1.012.782-.314.213-.666.392-1.053.537v-1.162c.2-.096.412-.215.636-.359.223-.143.478-.355.762-.635.285-.281.614-.669.988-1.166h.882v9.844h-1.203Z" fill="#c9d1d9"/>
        </g>
        <g isolation="isolate">
          <path d="m449.905,398.944c-.57,0-1.114-.117-1.634-.352-.52-.235-.954-.579-1.303-1.033-.349-.453-.553-1.008-.611-1.664l1.244-.39c.05.692.261,1.274.632,1.747.372.471.915.707,1.631.707.441,0,.83-.105,1.165-.318.335-.211.599-.504.79-.878s.287-.802.287-1.285c0-.733-.211-1.297-.633-1.688-.421-.392-.944-.588-1.568-.588-.552,0-.983.138-1.296.414-.312.275-.541.584-.687.926l-1.189-.123.396-5.482h5.633v1.053h-4.614l-.26,3.719-.335-.027c.246-.419.588-.772,1.025-1.06s.971-.431,1.6-.431c.602,0,1.142.137,1.62.41s.856.654,1.135,1.142c.277.487.417,1.053.417,1.695,0,.711-.16,1.329-.479,1.856-.319.525-.741.933-1.265,1.22-.524.287-1.092.431-1.702.431Z" fill="#c9d1d9"/>
        </g>
      </g>
      <g isolation="isolate">
        <g isolation="isolate">
          <path d="m490.259,398.78v-.807l3.459-2.933c.469-.401.854-.766,1.151-1.094.299-.328.519-.661.66-.998.141-.337.212-.713.212-1.128,0-.451-.079-.83-.236-1.139-.157-.307-.384-.538-.68-.693-.297-.155-.659-.232-1.087-.232-.492,0-.89.097-1.193.291-.303.193-.528.454-.677.782-.147.328-.235.697-.263,1.107l-1.312-.403c.027-.438.186-.868.475-1.292.29-.424.688-.774,1.193-1.053s1.096-.417,1.771-.417c.383,0,.768.055,1.155.164.387.109.744.283,1.069.523.326.238.588.551.786.936.198.386.298.852.298,1.398,0,.779-.212,1.476-.636,2.088-.424.613-1.017,1.228-1.777,1.843l-2.673,2.167-.868-.164h6.146v1.053h-6.973Z" fill="#c9d1d9"/>
        </g>
        <g isolation="isolate">
          <path d="m502.159,398.944c-1.139,0-2.023-.445-2.652-1.336-.629-.892-.943-2.142-.943-3.75s.314-2.858.943-3.75c.629-.891,1.514-1.336,2.652-1.336,1.145,0,2.029.445,2.656,1.336.626.892.939,2.142.939,3.75s-.313,2.858-.939,3.75c-.627.891-1.512,1.336-2.656,1.336Zm0-.984c.757,0,1.329-.349,1.716-1.046.388-.697.581-1.716.581-3.056s-.193-2.358-.581-3.056c-.387-.697-.959-1.046-1.716-1.046s-1.328.349-1.716,1.046c-.387.697-.581,1.716-.581,3.056s.194,2.358.581,3.056c.388.697.96,1.046,1.716,1.046Z" fill="#c9d1d9"/>
        </g>
      </g>
      <g>
        <path d="m108.01,70.01l.47-8.44h1.73l2.39,7.68h-.23l2.4-7.68h1.73l.47,8.44h-1.02l-.41-7.64h.02l-2.48,7.64h-1.17l-2.49-7.64h.02l-.41,7.64h-1.02Z" fill="#c9d1d9"/>
        <path d="m120.34,70.15c-.42,0-.79-.08-1.1-.24s-.55-.38-.72-.67-.25-.6-.25-.96c0-.38.11-.73.33-1.05s.57-.58,1.03-.77,1.07-.29,1.8-.29h1.05l-.11.11v-.35c0-.51-.1-.9-.3-1.17s-.54-.41-1.02-.41c-.45,0-.79.12-1.04.35s-.37.54-.39.93l-1.11-.25c.04-.34.17-.65.39-.93s.53-.5.9-.67.81-.25,1.31-.25.93.1,1.25.29.56.47.71.83.23.8.23,1.31v2.89c0,.13.02.21.06.26s.12.06.24.06h.36v.82h-.63c-.27,0-.49-.08-.67-.25s-.27-.38-.27-.63v-.45h.15c-.06.16-.15.33-.27.5s-.27.33-.45.47-.39.26-.64.35-.53.13-.86.13l.02.04Zm.22-.82c.32,0,.62-.08.9-.24s.5-.41.67-.75.25-.79.25-1.33v-.05h-.99c-.52,0-.93.07-1.23.21s-.51.31-.64.51-.19.4-.19.6.04.38.13.54.22.29.4.38.4.14.67.14l.03-.01Z" fill="#c9d1d9"/>
        <path d="m127.55,72.44c-.94,0-1.63-.13-2.08-.4s-.67-.67-.67-1.22c0-.31.08-.59.24-.84s.44-.44.83-.57c-.15-.09-.27-.21-.36-.36s-.14-.31-.14-.5c0-.22.07-.42.21-.59s.33-.3.59-.37c-.31-.18-.56-.43-.73-.75s-.26-.68-.26-1.1c0-.45.1-.84.3-1.17s.49-.58.86-.76.82-.27,1.33-.27.96.09,1.34.27.67.44.87.77.31.73.31,1.18-.1.84-.31,1.16-.5.58-.88.76-.83.27-1.35.27h-.54c-.49,0-.74.15-.74.44,0,.28.24.42.71.42h1.27c.5,0,.9.06,1.21.17s.54.26.7.45.27.38.33.59.09.41.09.6c0,.62-.22,1.08-.67,1.38s-1.15.45-2.09.45h-.36l-.01-.01Zm0-.79h.36c1.16,0,1.75-.35,1.75-1.04,0-.29-.1-.53-.31-.71s-.57-.28-1.07-.28h-1.09c-.39,0-.72.08-.98.24s-.39.42-.39.78.14.6.42.76.72.25,1.31.25Zm.12-4.39c.5,0,.88-.13,1.14-.38s.4-.63.4-1.11-.13-.85-.4-1.12-.65-.4-1.14-.4-.87.13-1.13.4-.39.64-.39,1.12.13.85.39,1.11.64.38,1.13.38Zm1.04-3.05v-.63c0-.25.09-.46.28-.63s.41-.25.66-.25h.76v.82h-.63c-.12,0-.2.02-.24.06s-.06.13-.06.26v.36h-.78l.01.01Z" fill="#c9d1d9"/>
        <path d="m131.92,70.01v-6.33h.93v1.43l-.04-.26c.17-.36.43-.67.8-.93s.8-.38,1.32-.38c.45,0,.84.1,1.16.3.32.2.57.48.75.85s.26.81.26,1.33v3.98h-.98v-3.91c0-.52-.11-.94-.32-1.26s-.56-.48-1.05-.48c-.53,0-.97.2-1.32.6s-.52.98-.52,1.74v3.31h-.98l-.01.01Z" fill="#c9d1d9"/>
        <path d="m139.39,62.62c-.23,0-.42-.08-.58-.24s-.24-.35-.24-.58.08-.42.24-.58.35-.24.58-.24.42.08.58.24.24.35.24.58-.08.42-.24.58-.35.24-.58.24Zm-.49,7.39v-6.33h.98v6.33h-.98Z" fill="#c9d1d9"/>
        <path d="m143.19,70.01c-.25,0-.47-.08-.66-.25s-.28-.38-.28-.63v-4.63h-1.02v-.82h1.02v-1.32l.98-.21v1.54h1.25v.82h-1.25v4.37c0,.13.02.21.06.26s.12.06.24.06h.97v.82h-1.31v-.01Z" fill="#c9d1d9"/>
        <path d="m147.92,70.15c-.44,0-.82-.1-1.15-.3s-.57-.48-.75-.86-.26-.81-.26-1.33v-3.98h.98v3.91c0,.52.1.93.29,1.26s.55.48,1.05.48c.38,0,.71-.1.98-.29s.49-.49.65-.88.23-.88.23-1.46v-3.01h.98v6.33h-.93v-1.49l.04.26c-.16.39-.43.72-.79.98s-.81.39-1.34.39l.02-.01Z" fill="#c9d1d9"/>
        <path d="m155,70.15c-.51,0-.96-.13-1.36-.4s-.7-.65-.92-1.15-.33-1.08-.33-1.76.11-1.26.33-1.75.53-.88.92-1.14.84-.4,1.35-.4c.41,0,.82.1,1.23.31s.71.56.92,1.05l-.11.05v-3.73h.98v8.79h-.93v-1.32l.03.09c-.17.46-.46.8-.86,1.03s-.82.34-1.27.34l.02-.01Zm.26-.82c.33,0,.63-.09.91-.26s.49-.44.66-.81.25-.83.25-1.4c0-.85-.18-1.48-.53-1.89s-.78-.61-1.27-.61c-.52,0-.95.22-1.29.65s-.5,1.05-.5,1.85.16,1.39.49,1.82.76.65,1.29.65h-.01Z" fill="#c9d1d9"/>
        <path d="m162.47,70.15c-.6,0-1.12-.13-1.56-.4s-.78-.65-1.02-1.15-.36-1.08-.36-1.75.12-1.26.36-1.76.57-.88,1.01-1.15.94-.4,1.53-.4c.34,0,.67.05,1.01.16s.65.29.93.56c.28.27.5.62.67,1.08s.25,1.04.25,1.74h-5.13v-.8h4.27l-.28.37c-.02-.55-.11-1-.27-1.34s-.37-.58-.62-.73-.54-.23-.85-.23c-.37,0-.69.1-.96.29s-.48.48-.62.85-.22.82-.22,1.36c0,.79.16,1.4.48,1.83s.78.64,1.37.64c.43,0,.78-.11,1.08-.32s.5-.53.64-.93l.97.33c-.15.37-.36.68-.61.94s-.56.46-.91.6-.74.21-1.17.21h.01Z" fill="#c9d1d9"/>
        <path d="m169.83,70.01v-6.33h.93v1.34l-.04-.15c.19-.44.47-.77.85-.99s.76-.34,1.15-.34c.11,0,.22,0,.33.03s.21.05.3.1l-.13.93c-.21-.07-.43-.1-.64-.1-.13,0-.3.03-.5.08s-.39.16-.59.32-.36.39-.49.71-.2.73-.2,1.25v3.16h-.98l.01-.01Z" fill="#c9d1d9"/>
        <path d="m175.9,70.15c-.42,0-.79-.08-1.1-.24s-.55-.38-.72-.67-.25-.6-.25-.96c0-.38.11-.73.33-1.05s.57-.58,1.03-.77,1.07-.29,1.8-.29h1.06l-.11.11v-.35c0-.51-.1-.9-.3-1.17s-.54-.41-1.02-.41c-.45,0-.79.12-1.04.35s-.37.54-.39.93l-1.11-.25c.04-.34.17-.65.39-.93s.53-.5.9-.67.81-.25,1.31-.25.93.1,1.25.29.56.47.71.83.23.8.23,1.31v2.89c0,.13.02.21.05.26s.12.06.24.06h.36v.82h-.63c-.27,0-.49-.08-.67-.25s-.27-.38-.27-.63v-.45h.15c-.06.16-.15.33-.27.5s-.27.33-.45.47c-.18.15-.39.26-.64.35s-.53.13-.86.13l.02.04Zm.22-.82c.32,0,.62-.08.9-.24s.5-.41.67-.75.26-.79.26-1.33v-.05h-.99c-.52,0-.93.07-1.23.21s-.51.31-.64.51-.19.4-.19.6.04.38.13.54.22.29.4.38.4.14.67.14l.02-.01Z" fill="#c9d1d9"/>
        <path d="m182.02,70.01c-.25,0-.47-.08-.66-.25s-.28-.38-.28-.63v-4.63h-1.02v-.82h1.02v-1.32l.98-.21v1.54h1.25v.82h-1.25v4.37c0,.13.02.21.06.26s.12.06.24.06h.97v.82h-1.31v-.01Z" fill="#c9d1d9"/>
        <path d="m185.24,62.62c-.23,0-.42-.08-.58-.24s-.24-.35-.24-.58.08-.42.24-.58.35-.24.58-.24.42.08.58.24.24.35.24.58-.08.42-.24.58-.35.24-.58.24Zm-.49,7.39v-6.33h.98v6.33h-.98Z" fill="#c9d1d9"/>
        <path d="m190.22,70.15c-.59,0-1.12-.14-1.57-.42s-.81-.67-1.06-1.16-.38-1.07-.38-1.72.13-1.23.38-1.72.61-.88,1.06-1.16.98-.42,1.57-.42,1.12.14,1.57.42c.45.28.81.67,1.06,1.16s.38,1.07.38,1.72-.13,1.23-.38,1.72-.61.88-1.06,1.16-.98.42-1.57.42Zm0-.82c.6,0,1.07-.22,1.42-.67s.52-1.05.52-1.82-.17-1.38-.52-1.82-.82-.67-1.42-.67-1.07.22-1.42.67-.52,1.05-.52,1.82.17,1.37.52,1.82.82.67,1.42.67Z" fill="#c9d1d9"/>
        <path d="m199.23,71.99c-.61-.77-1.06-1.62-1.38-2.53s-.47-1.86-.47-2.85.16-1.93.47-2.85.77-1.76,1.37-2.54h1.04c-.67.89-1.17,1.77-1.48,2.63-.31.86-.47,1.78-.47,2.76s.15,1.93.46,2.78.8,1.72,1.49,2.6h-1.04.01Z" fill="#c9d1d9"/>
        <path d="m200.65,70.01v-.69l2.96-2.51c.4-.34.73-.66.99-.94s.44-.57.57-.86.18-.61.18-.97c0-.39-.07-.71-.2-.98s-.33-.46-.58-.59-.56-.2-.93-.2c-.42,0-.76.08-1.02.25s-.45.39-.58.67-.2.6-.23.95l-1.12-.35c.02-.38.16-.74.41-1.11s.59-.66,1.02-.9.94-.36,1.52-.36c.33,0,.66.05.99.14s.64.24.92.45.5.47.67.8.25.73.25,1.2c0,.67-.18,1.26-.54,1.79s-.87,1.05-1.52,1.58l-2.29,1.86-.74-.14h5.27v.9h-5.98l-.02.01Z" fill="#c9d1d9"/>
        <path d="m210.85,70.15c-.98,0-1.73-.38-2.27-1.15s-.81-1.83-.81-3.21.27-2.45.81-3.21,1.3-1.15,2.27-1.15,1.74.38,2.28,1.15.81,1.83.81,3.21-.27,2.45-.81,3.21-1.3,1.15-2.28,1.15Zm0-.84c.65,0,1.14-.3,1.47-.9s.5-1.47.5-2.62-.17-2.02-.5-2.62-.82-.9-1.47-.9-1.14.3-1.47.9-.5,1.47-.5,2.62.17,2.02.5,2.62.82.9,1.47.9Z" fill="#c9d1d9"/>
        <path d="m216.2,67.09c-.25,0-.46-.09-.63-.26s-.26-.38-.26-.63.09-.46.26-.63.38-.26.63-.26.46.09.63.26.26.38.26.63-.09.46-.26.63-.38.26-.63.26Z" fill="#c9d1d9"/>
        <path d="m219.77,70.01c-.25,0-.47-.08-.66-.25s-.28-.38-.28-.63v-7.91h.98v7.65c0,.13.02.21.06.26s.12.06.24.06h.62v.82h-.96,0Z" fill="#c9d1d9"/>
        <path d="m224.53,70.15c-.59,0-1.12-.14-1.57-.42s-.81-.67-1.06-1.16-.38-1.07-.38-1.72.13-1.23.38-1.72.61-.88,1.06-1.16.98-.42,1.57-.42,1.12.14,1.57.42c.45.28.81.67,1.06,1.16s.38,1.07.38,1.72-.13,1.23-.38,1.72-.61.88-1.06,1.16-.98.42-1.57.42Zm0-.82c.6,0,1.07-.22,1.42-.67s.52-1.05.52-1.82-.17-1.38-.52-1.82-.82-.67-1.42-.67-1.07.22-1.42.67-.52,1.05-.52,1.82.17,1.37.52,1.82.82.67,1.42.67Z" fill="#c9d1d9"/>
        <path d="m231.3,72.44c-.94,0-1.63-.13-2.08-.4s-.67-.67-.67-1.22c0-.31.08-.59.24-.84s.44-.44.83-.57c-.15-.09-.27-.21-.36-.36s-.14-.31-.14-.5c0-.22.07-.42.21-.59s.33-.3.59-.37c-.31-.18-.56-.43-.73-.75s-.26-.68-.26-1.1c0-.45.1-.84.3-1.17s.49-.58.86-.76.82-.27,1.33-.27.96.09,1.34.27.67.44.87.77.31.73.31,1.18-.1.84-.31,1.16-.5.58-.88.76-.83.27-1.35.27h-.54c-.49,0-.74.15-.74.44,0,.28.24.42.71.42h1.27c.5,0,.9.06,1.21.17s.54.26.7.45.27.38.33.59.09.41.09.6c0,.62-.22,1.08-.67,1.38s-1.15.45-2.09.45h-.36l-.01-.01Zm0-.79h.36c1.16,0,1.75-.35,1.75-1.04,0-.29-.1-.53-.31-.71s-.57-.28-1.07-.28h-1.09c-.39,0-.72.08-.98.24s-.39.42-.39.78.14.6.42.76.72.25,1.31.25Zm.12-4.39c.5,0,.88-.13,1.14-.38s.4-.63.4-1.11-.13-.85-.4-1.12-.65-.4-1.14-.4-.87.13-1.13.4-.39.64-.39,1.12.13.85.39,1.11.64.38,1.13.38Zm1.04-3.05v-.63c0-.25.09-.46.28-.63s.41-.25.66-.25h.76v.82h-.63c-.12,0-.2.02-.24.06s-.06.13-.06.26v.36h-.78l.01.01Z" fill="#c9d1d9"/>
        <path d="m235.05,71.99c.69-.88,1.19-1.74,1.49-2.6s.46-1.78.46-2.78-.16-1.91-.47-2.76-.81-1.73-1.48-2.63h1.04c.6.78,1.06,1.63,1.37,2.54.31.91.47,1.86.47,2.85s-.16,1.94-.47,2.85-.77,1.75-1.38,2.53h-1.04.01Z" fill="#c9d1d9"/>
        <path d="m108.25,84.41v-8.44h3.04c.98,0,1.72.2,2.21.6s.74.98.74,1.75-.25,1.32-.74,1.73-1.23.62-2.23.62h-1.97v3.74s-1.05,0-1.05,0Zm1.05-4.61h1.99c.61,0,1.07-.13,1.39-.39s.48-.62.48-1.07c0-.41-.14-.76-.43-1.05s-.77-.45-1.44-.45h-1.99v2.96Z" fill="#c9d1d9"/>
        <path d="m118.01,84.55c-.59,0-1.12-.14-1.57-.42s-.81-.67-1.06-1.16-.38-1.07-.38-1.72.13-1.23.38-1.72.61-.88,1.06-1.16.98-.42,1.57-.42,1.12.14,1.57.42.81.67,1.06,1.16.38,1.07.38,1.72-.13,1.23-.38,1.72-.61.88-1.06,1.16-.98.42-1.57.42Zm0-.82c.6,0,1.07-.22,1.42-.67s.52-1.05.52-1.82-.17-1.38-.52-1.82-.82-.67-1.42-.67-1.07.22-1.42.67-.52,1.05-.52,1.82.17,1.37.52,1.82.82.67,1.42.67Z" fill="#c9d1d9"/>
        <path d="m123.61,84.41l-1.76-6.33h1.04l1.51,5.85h-.18l1.5-5.85h1.27l1.53,5.89h-.21l1.52-5.89h1.04l-1.76,6.33h-1.38l-1.45-5.66h.18l-1.45,5.66h-1.4Z" fill="#c9d1d9"/>
        <path d="m134.64,84.55c-.6,0-1.12-.13-1.56-.4s-.78-.65-1.02-1.15-.36-1.08-.36-1.75.12-1.26.36-1.76.57-.88,1.01-1.15.94-.4,1.53-.4c.34,0,.67.05,1.01.16s.65.29.93.56.5.62.67,1.08.25,1.04.25,1.74h-5.13v-.8h4.27l-.28.37c-.02-.55-.11-1-.27-1.34s-.37-.58-.62-.73-.54-.23-.85-.23c-.37,0-.69.1-.96.29s-.48.48-.62.85-.22.82-.22,1.36c0,.79.16,1.4.48,1.83s.78.64,1.37.64c.43,0,.78-.11,1.08-.32s.5-.53.64-.93l.97.33c-.15.37-.36.68-.61.94s-.56.46-.91.6-.74.21-1.17.21h.01Z" fill="#c9d1d9"/>
        <path d="m138.95,84.41v-6.33h.93v1.34l-.04-.15c.19-.44.47-.77.85-.99s.76-.34,1.15-.34c.11,0,.22,0,.33.03s.21.05.3.1l-.13.93c-.21-.07-.43-.1-.64-.1-.13,0-.3.03-.5.08s-.39.16-.59.32-.36.39-.49.71-.2.73-.2,1.25v3.16h-.98l.01-.01Z" fill="#c9d1d9"/>
        <path d="m146.82,84.41v-6.33h.93v1.34l-.04-.15c.19-.44.47-.77.85-.99s.76-.34,1.15-.34c.11,0,.22,0,.33.03s.21.05.3.1l-.13.93c-.21-.07-.43-.1-.64-.1-.13,0-.3.03-.5.08s-.39.16-.59.32-.36.39-.49.71-.2.73-.2,1.25v3.16h-.98l.01-.01Z" fill="#c9d1d9"/>
        <path d="m152.89,84.55c-.42,0-.79-.08-1.1-.24s-.55-.38-.72-.67-.25-.6-.25-.96c0-.38.11-.73.33-1.05s.57-.58,1.03-.77,1.07-.29,1.8-.29h1.05l-.11.11v-.35c0-.51-.1-.9-.3-1.17s-.54-.41-1.02-.41c-.45,0-.79.12-1.04.35s-.37.54-.39.93l-1.11-.25c.04-.34.17-.65.39-.93s.53-.5.9-.67.81-.25,1.31-.25.93.1,1.25.29.56.47.71.83.23.8.23,1.31v2.89c0,.13.02.21.06.26s.12.06.24.06h.36v.82h-.63c-.27,0-.49-.08-.67-.25s-.27-.38-.27-.63v-.45h.15c-.06.16-.15.33-.27.5s-.27.33-.45.47-.39.26-.64.35-.53.13-.86.13l.02.04Zm.22-.82c.32,0,.62-.08.9-.24s.5-.41.67-.75.25-.79.25-1.33v-.05h-.99c-.52,0-.93.07-1.23.21s-.51.31-.64.51-.19.4-.19.6.04.38.13.54.22.29.4.38.4.14.67.14l.03-.01Z" fill="#c9d1d9"/>
        <path d="m159,84.41c-.25,0-.47-.08-.66-.25s-.28-.38-.28-.63v-4.63h-1.02v-.82h1.02v-1.32l.98-.21v1.54h1.25v.82h-1.25v4.37c0,.13.02.21.06.26s.12.06.24.06h.97v.82h-1.31v-.01Z" fill="#c9d1d9"/>
        <path d="m162.23,77.02c-.23,0-.42-.08-.58-.24s-.24-.35-.24-.58.08-.42.24-.58.35-.24.58-.24.42.08.58.24.24.35.24.58-.08.42-.24.58-.35.24-.58.24Zm-.49,7.39v-6.33h.98v6.33h-.98Z" fill="#c9d1d9"/>
        <path d="m167.2,84.55c-.59,0-1.12-.14-1.57-.42s-.81-.67-1.06-1.16-.38-1.07-.38-1.72.13-1.23.38-1.72.61-.88,1.06-1.16.98-.42,1.57-.42,1.12.14,1.57.42.81.67,1.06,1.16.38,1.07.38,1.72-.13,1.23-.38,1.72-.61.88-1.06,1.16-.98.42-1.57.42Zm0-.82c.6,0,1.07-.22,1.42-.67s.52-1.05.52-1.82-.17-1.38-.52-1.82-.82-.67-1.42-.67-1.07.22-1.42.67-.52,1.05-.52,1.82.17,1.37.52,1.82.82.67,1.42.67Z" fill="#c9d1d9"/>
        <path d="m176.21,86.39c-.61-.77-1.06-1.62-1.38-2.53s-.47-1.86-.47-2.85.16-1.93.47-2.85.77-1.76,1.37-2.54h1.04c-.67.89-1.17,1.77-1.48,2.63s-.47,1.78-.47,2.76.15,1.93.46,2.78.8,1.72,1.49,2.6h-1.04.01Z" fill="#c9d1d9"/>
        <path d="m179.15,84.41v-6.72c-.31.27-.6.49-.87.67s-.57.33-.9.46v-1c.17-.08.35-.18.55-.31s.41-.3.65-.54.53-.57.85-1h.76v8.44h-1.04Z" fill="#c9d1d9"/>
        <path d="m184.81,84.55c-.98,0-1.73-.38-2.27-1.15s-.81-1.83-.81-3.21.27-2.45.81-3.21,1.3-1.15,2.27-1.15,1.74.38,2.28,1.15.81,1.83.81,3.21-.27,2.45-.81,3.21-1.3,1.15-2.28,1.15Zm0-.84c.65,0,1.14-.3,1.47-.9s.5-1.47.5-2.62-.17-2.02-.5-2.62-.82-.9-1.47-.9-1.14.3-1.47.9-.5,1.47-.5,2.62.17,2.02.5,2.62.82.9,1.47.9Z" fill="#c9d1d9"/>
        <path d="m190.16,81.49c-.25,0-.46-.09-.63-.26s-.26-.38-.26-.63.09-.46.26-.63.38-.26.63-.26.46.09.63.26.26.38.26.63-.09.46-.26.63-.38.26-.63.26Z" fill="#c9d1d9"/>
        <path d="m193.73,84.41c-.25,0-.47-.08-.66-.25s-.28-.38-.28-.63v-7.91h.98v7.65c0,.13.02.21.06.26s.12.06.24.06h.62v.82h-.96,0Z" fill="#c9d1d9"/>
        <path d="m198.5,84.55c-.59,0-1.12-.14-1.57-.42s-.81-.67-1.06-1.16-.38-1.07-.38-1.72.13-1.23.38-1.72.61-.88,1.06-1.16.98-.42,1.57-.42,1.12.14,1.57.42.81.67,1.06,1.16.38,1.07.38,1.72-.13,1.23-.38,1.72-.61.88-1.06,1.16-.98.42-1.57.42Zm0-.82c.6,0,1.07-.22,1.42-.67s.52-1.05.52-1.82-.17-1.38-.52-1.82-.82-.67-1.42-.67-1.07.22-1.42.67-.52,1.05-.52,1.82.17,1.37.52,1.82.82.67,1.42.67Z" fill="#c9d1d9"/>
        <path d="m205.26,86.84c-.94,0-1.63-.13-2.08-.4s-.67-.67-.67-1.22c0-.31.08-.59.24-.84s.44-.44.83-.57c-.15-.09-.27-.21-.36-.36s-.14-.31-.14-.5c0-.22.07-.42.21-.59s.33-.3.59-.37c-.31-.18-.56-.43-.73-.75s-.26-.68-.26-1.1c0-.45.1-.84.3-1.17s.49-.58.86-.76.82-.27,1.33-.27.96.09,1.34.27.67.44.87.77.31.73.31,1.18-.1.84-.31,1.16-.5.58-.88.76-.83.27-1.35.27h-.54c-.49,0-.74.15-.74.44,0,.28.24.42.71.42h1.27c.5,0,.9.06,1.21.17s.54.26.7.45.27.38.33.59.09.41.09.6c0,.62-.22,1.08-.67,1.38s-1.15.45-2.09.45h-.36l-.01-.01Zm0-.79h.36c1.16,0,1.75-.35,1.75-1.04,0-.29-.1-.53-.31-.71s-.57-.28-1.07-.28h-1.09c-.39,0-.72.08-.98.24s-.39.42-.39.78.14.6.42.76.72.25,1.31.25Zm.12-4.39c.5,0,.88-.13,1.14-.38s.4-.63.4-1.11-.13-.85-.4-1.12-.65-.4-1.14-.4-.87.13-1.13.4-.39.64-.39,1.12.13.85.39,1.11.64.38,1.13.38Zm1.04-3.05v-.63c0-.25.09-.46.28-.63s.41-.25.66-.25h.76v.82h-.63c-.12,0-.2.02-.24.06s-.06.13-.06.26v.36h-.78l.01.01Z" fill="#c9d1d9"/>
        <path d="m209.01,86.39c.69-.88,1.19-1.74,1.49-2.6s.46-1.78.46-2.78-.16-1.91-.47-2.76-.81-1.73-1.48-2.63h1.04c.6.78,1.06,1.63,1.37,2.54s.47,1.86.47,2.85-.16,1.94-.47,2.85-.77,1.75-1.38,2.53h-1.04.01Z" fill="#c9d1d9"/>
      </g>
    </g>
    <g id="Graph">
      <g>
        <path id="m33823c8216" d="m89.29,372.36h6v-6h-6v6Z" fill="#d85648"/>
        <path id="m33823c8216-2" d="m170.45,311.88h6v-6h-6v6Z" fill="#d85648"/>
        <path id="m33823c8216-3" d="m231.33,266.52h6v-6h-6v6Z" fill="#d85648"/>
        <path id="m33823c8216-4" d="m261.76,243.84h6v-6h-6v6Z" fill="#d85648"/>
        <path id="m33823c8216-5" d="m292.2,221.16h6v-6h-6v6Z" fill="#d85648"/>
        <path id="m33823c8216-6" d="m322.64,198.48h6v-6h-6v6Z" fill="#d85648"/>
        <path id="m33823c8216-7" d="m353.07,175.8h6v-6h-6v6Z" fill="#d85648"/>
        <path id="m33823c8216-8" d="m413.95,130.44h6v-6h-6v6Z" fill="#d85648"/>
        <path id="m33823c8216-9" d="m495.11,69.96h6v-6h-6v6Z" fill="#d85648"/>
      </g>
      <path d="m92.29,369.36l81.16-60.48,60.87-45.36,30.44-22.68,30.44-22.68,30.44-22.68,30.44-22.68,60.87-45.36,81.16-60.48" fill="none" stroke="#d85648" stroke-linecap="square" stroke-linejoin="round" stroke-width="2"/>
      <path d="m92.29,293.76l81.16-30.24,60.87-22.68,30.44-11.34,30.44-11.34,30.44-11.34,30.44-11.34,60.87-22.68,81.16-30.24" fill="none" stroke="#307eef" stroke-linecap="square" stroke-linejoin="round" stroke-width="2"/>
      <g>
        <path id="m226296c33f" d="m92.29,296.76c.8,0,1.56-.32,2.12-.88.56-.56.88-1.33.88-2.12s-.32-1.56-.88-2.12-1.33-.88-2.12-.88-1.56.32-2.12.88c-.56.56-.88,1.33-.88,2.12s.32,1.56.88,2.12,1.33.88,2.12.88Z" fill="#307eef"/>
        <path id="m226296c33f-2" d="m173.45,266.52c.8,0,1.56-.32,2.12-.88s.88-1.33.88-2.12-.32-1.56-.88-2.12-1.33-.88-2.12-.88-1.56.32-2.12.88-.88,1.33-.88,2.12.32,1.56.88,2.12,1.33.88,2.12.88Z" fill="#307eef"/>
        <path id="m226296c33f-3" d="m234.33,243.84c.8,0,1.56-.32,2.12-.88s.88-1.33.88-2.12-.32-1.56-.88-2.12-1.33-.88-2.12-.88-1.56.32-2.12.88-.88,1.33-.88,2.12.32,1.56.88,2.12,1.33.88,2.12.88Z" fill="#307eef"/>
        <path id="m226296c33f-4" d="m264.76,232.5c.8,0,1.56-.32,2.12-.88s.88-1.33.88-2.12-.32-1.56-.88-2.12-1.33-.88-2.12-.88-1.56.32-2.12.88-.88,1.33-.88,2.12.32,1.56.88,2.12,1.33.88,2.12.88Z" fill="#307eef"/>
        <path id="m226296c33f-5" d="m295.2,221.16c.8,0,1.56-.32,2.12-.88s.88-1.33.88-2.12-.32-1.56-.88-2.12-1.33-.88-2.12-.88-1.56.32-2.12.88-.88,1.33-.88,2.12.32,1.56.88,2.12,1.33.88,2.12.88Z" fill="#307eef"/>
        <path id="m226296c33f-6" d="m325.64,209.82c.8,0,1.56-.32,2.12-.88s.88-1.33.88-2.12-.32-1.56-.88-2.12-1.33-.88-2.12-.88-1.56.32-2.12.88-.88,1.33-.88,2.12.32,1.56.88,2.12,1.33.88,2.12.88Z" fill="#307eef"/>
        <path id="m226296c33f-7" d="m356.07,198.48c.8,0,1.56-.32,2.12-.88s.88-1.33.88-2.12-.32-1.56-.88-2.12-1.33-.88-2.12-.88-1.56.32-2.12.88-.88,1.33-.88,2.12.32,1.56.88,2.12,1.33.88,2.12.88Z" fill="#307eef"/>
        <path id="m226296c33f-8" d="m416.95,175.8c.8,0,1.56-.32,2.12-.88s.88-1.33.88-2.12-.32-1.56-.88-2.12-1.33-.88-2.12-.88-1.56.32-2.12.88-.88,1.33-.88,2.12.32,1.56.88,2.12,1.33.88,2.12.88Z" fill="#307eef"/>
        <path id="m226296c33f-9" d="m498.11,145.56c.8,0,1.56-.32,2.12-.88s.88-1.33.88-2.12-.32-1.56-.88-2.12-1.33-.88-2.12-.88-1.56.32-2.12.88-.88,1.33-.88,2.12.32,1.56.88,2.12,1.33.88,2.12.88Z" fill="#307eef"/>
      </g>
      <path id="m226296c33f-10" d="m91,67.94c.8,0,1.56-.32,2.12-.88.56-.56.88-1.33.88-2.12s-.32-1.56-.88-2.12c-.56-.56-1.33-.88-2.12-.88s-1.56.32-2.12.88c-.56.56-.88,1.33-.88,2.12s.32,1.56.88,2.12c.56.56,1.33.88,2.12.88Z" fill="#307eef"/>
      <g id="line2d_101" data-name="line2d 101">
        <path d="m81,64.94h20" fill="none" stroke="#307eef" stroke-linecap="square" stroke-linejoin="round" stroke-width="2"/>
      </g>
      <path id="m33823c8216-10" d="m88,82.62h6v-6h-6v6Z" fill="#d85648"/>
      <g id="line2d_102" data-name="line2d 102">
        <path d="m81,79.62h20" fill="none" stroke="#d85648" stroke-linecap="square" stroke-linejoin="round" stroke-width="2"/>
      </g>
    </g>
  </g>
</svg>