<?xml version="1.0" encoding="UTF-8"?>
<svg xmlns="http://www.w3.org/2000/svg" width="460.638" height="411.43" xmlns:xlink="http://www.w3.org/1999/xlink" viewBox="0 0 460.638 411.43">
  <defs>
    <clipPath id="clippath">
      <rect x="15.88" y="226.24" width="443.49" height="172.33" fill="none" stroke="#c9d1d9" stroke-miterlimit="10" stroke-width="1.417"/>
    </clipPath>
  </defs>
  <g id="Ebene_1" data-name="Ebene 1">
    <g id="patch_2" data-name="patch 2">
      <path d="m15.85,184.36h443.52V12.03H15.85v172.33Z" fill="none" stroke="#c9d1d9" stroke-miterlimit="10" stroke-width="1.417"/>
    </g>
    <g id="line2d_1" data-name="line2d 1">
      <rect x="15.85" y="12.03" width="443.52" height="172.33" fill="none" stroke="#c9d1d9" stroke-miterlimit="10" stroke-width=".283"/>
      <path d="m31.94,184.36V12.03" fill="none" stroke="#c9d1d9" stroke-miterlimit="10" stroke-width=".283"/>
    </g>
    <g id="line2d_2" data-name="line2d 2">
      <path id="m456026b5ec" d="m31.94,184.36v-2.42" fill="none" stroke="#c9d1d9" stroke-linejoin="round" stroke-width="1.417"/>
    </g>
    <g id="line2d_3" data-name="line2d 3">
      <rect x="15.85" y="12.03" width="443.52" height="172.33" fill="none" stroke="#c9d1d9" stroke-miterlimit="10" stroke-width=".283"/>
      <path d="m72.67,184.36V12.03" fill="none" stroke="#c9d1d9" stroke-miterlimit="10" stroke-width=".283"/>
    </g>
    <g id="line2d_4" data-name="line2d 4">
      <path id="m456026b5ec-2" d="m72.67,184.36v-2.42" fill="none" stroke="#c9d1d9" stroke-linejoin="round" stroke-width="1.417"/>
    </g>
    <g id="line2d_5" data-name="line2d 5">
      <rect x="15.85" y="12.03" width="443.52" height="172.33" fill="none" stroke="#c9d1d9" stroke-miterlimit="10" stroke-width=".283"/>
      <path d="m113.39,184.36V12.03" fill="none" stroke="#c9d1d9" stroke-miterlimit="10" stroke-width=".283"/>
    </g>
    <g id="line2d_6" data-name="line2d 6">
      <path id="m456026b5ec-3" d="m113.39,184.36v-2.42" fill="none" stroke="#c9d1d9" stroke-linejoin="round" stroke-width="1.417"/>
    </g>
    <g id="line2d_7" data-name="line2d 7">
      <rect x="15.85" y="12.03" width="443.52" height="172.33" fill="none" stroke="#c9d1d9" stroke-miterlimit="10" stroke-width=".283"/>
      <path d="m154.12,184.36V12.03" fill="none" stroke="#c9d1d9" stroke-miterlimit="10" stroke-width=".283"/>
    </g>
    <g id="line2d_8" data-name="line2d 8">
      <path id="m456026b5ec-4" d="m154.12,184.36v-2.42" fill="none" stroke="#c9d1d9" stroke-linejoin="round" stroke-width="1.417"/>
    </g>
    <g id="line2d_9" data-name="line2d 9">
      <rect x="15.85" y="12.03" width="443.52" height="172.33" fill="none" stroke="#c9d1d9" stroke-miterlimit="10" stroke-width=".283"/>
      <path d="m194.85,184.36V12.03" fill="none" stroke="#c9d1d9" stroke-miterlimit="10" stroke-width=".283"/>
    </g>
    <g id="line2d_10" data-name="line2d 10">
      <path id="m456026b5ec-5" d="m194.85,184.36v-2.42" fill="none" stroke="#c9d1d9" stroke-linejoin="round" stroke-width="1.417"/>
    </g>
    <g id="line2d_11" data-name="line2d 11">
      <rect x="15.85" y="12.03" width="443.52" height="172.33" fill="none" stroke="#c9d1d9" stroke-miterlimit="10" stroke-width=".283"/>
      <path d="m235.58,184.36V12.03" fill="none" stroke="#c9d1d9" stroke-miterlimit="10" stroke-width=".283"/>
    </g>
    <g id="line2d_12" data-name="line2d 12">
      <path id="m456026b5ec-6" d="m235.58,184.36v-2.42" fill="none" stroke="#c9d1d9" stroke-linejoin="round" stroke-width="1.417"/>
    </g>
    <g id="line2d_13" data-name="line2d 13">
      <rect x="15.85" y="12.03" width="443.52" height="172.33" fill="none" stroke="#c9d1d9" stroke-miterlimit="10" stroke-width=".283"/>
      <path d="m276.3,184.36V12.03" fill="none" stroke="#c9d1d9" stroke-miterlimit="10" stroke-width=".283"/>
    </g>
    <g id="line2d_14" data-name="line2d 14">
      <path id="m456026b5ec-7" d="m276.3,184.36v-2.42" fill="none" stroke="#c9d1d9" stroke-linejoin="round" stroke-width="1.417"/>
    </g>
    <g id="line2d_15" data-name="line2d 15">
      <rect x="15.85" y="12.03" width="443.52" height="172.33" fill="none" stroke="#c9d1d9" stroke-miterlimit="10" stroke-width=".283"/>
      <path d="m317.03,184.36V12.03" fill="none" stroke="#c9d1d9" stroke-miterlimit="10" stroke-width=".283"/>
    </g>
    <g id="line2d_16" data-name="line2d 16">
      <path id="m456026b5ec-8" d="m317.03,184.36v-2.42" fill="none" stroke="#c9d1d9" stroke-linejoin="round" stroke-width="1.417"/>
    </g>
    <g id="line2d_17" data-name="line2d 17">
      <rect x="15.85" y="12.03" width="443.52" height="172.33" fill="none" stroke="#c9d1d9" stroke-miterlimit="10" stroke-width=".283"/>
      <path d="m357.76,184.36V12.03" fill="none" stroke="#c9d1d9" stroke-miterlimit="10" stroke-width=".283"/>
    </g>
    <g id="line2d_18" data-name="line2d 18">
      <path id="m456026b5ec-9" d="m357.76,184.36v-2.42" fill="none" stroke="#c9d1d9" stroke-linejoin="round" stroke-width="1.417"/>
    </g>
    <g id="line2d_19" data-name="line2d 19">
      <rect x="15.85" y="12.03" width="443.52" height="172.33" fill="none" stroke="#c9d1d9" stroke-miterlimit="10" stroke-width=".283"/>
      <path d="m398.48,184.36V12.03" fill="none" stroke="#c9d1d9" stroke-miterlimit="10" stroke-width=".283"/>
    </g>
    <g id="line2d_20" data-name="line2d 20">
      <path id="m456026b5ec-10" d="m398.48,184.36v-2.42" fill="none" stroke="#c9d1d9" stroke-linejoin="round" stroke-width="1.417"/>
    </g>
    <g id="line2d_22" data-name="line2d 22">
      <path id="m456026b5ec-11" d="m439.21,184.36v-2.42" fill="none" stroke="#c9d1d9" stroke-linejoin="round" stroke-width="1.417"/>
    </g>
    <g id="line2d_23" data-name="line2d 23">
      <rect x="15.85" y="12.03" width="443.52" height="172.33" fill="none" stroke="#c9d1d9" stroke-miterlimit="10" stroke-width=".283"/>
      <path d="m15.85,178.11h443.52" fill="none" stroke="#c9d1d9" stroke-miterlimit="10" stroke-width=".283"/>
    </g>
    <g id="line2d_24" data-name="line2d 24">
      <path id="m02fe163f37" d="m15.85,178.11h3.48" fill="none" stroke="#c9d1d9" stroke-linejoin="round" stroke-width="1.417"/>
    </g>
    <g id="line2d_25" data-name="line2d 25">
      <rect x="15.85" y="12.03" width="443.52" height="172.33" fill="none" stroke="#c9d1d9" stroke-miterlimit="10" stroke-width=".283"/>
      <path d="m15.85,162.28h443.52" fill="none" stroke="#c9d1d9" stroke-miterlimit="10" stroke-width=".283"/>
    </g>
    <g id="line2d_26" data-name="line2d 26">
      <path id="m02fe163f37-2" d="m15.85,162.28h3.48" fill="none" stroke="#c9d1d9" stroke-linejoin="round" stroke-width="1.417"/>
    </g>
    <g id="line2d_27" data-name="line2d 27">
      <rect x="15.85" y="12.03" width="443.52" height="172.33" fill="none" stroke="#c9d1d9" stroke-miterlimit="10" stroke-width=".283"/>
      <path d="m15.85,146.46h443.52" fill="none" stroke="#c9d1d9" stroke-miterlimit="10" stroke-width=".283"/>
    </g>
    <g id="line2d_28" data-name="line2d 28">
      <path id="m02fe163f37-3" d="m15.85,146.46h3.48" fill="none" stroke="#c9d1d9" stroke-linejoin="round" stroke-width="1.417"/>
    </g>
    <g id="line2d_29" data-name="line2d 29">
      <rect x="15.85" y="12.03" width="443.52" height="172.33" fill="none" stroke="#c9d1d9" stroke-miterlimit="10" stroke-width=".283"/>
      <path d="m15.85,130.63h443.52" fill="none" stroke="#c9d1d9" stroke-miterlimit="10" stroke-width=".283"/>
    </g>
    <g id="line2d_30" data-name="line2d 30">
      <path id="m02fe163f37-4" d="m15.85,130.63h3.48" fill="none" stroke="#c9d1d9" stroke-linejoin="round" stroke-width="1.417"/>
    </g>
    <g id="line2d_31" data-name="line2d 31">
      <rect x="15.85" y="12.03" width="443.52" height="172.33" fill="none" stroke="#c9d1d9" stroke-miterlimit="10" stroke-width=".283"/>
      <path d="m15.85,114.81h443.52" fill="none" stroke="#c9d1d9" stroke-miterlimit="10" stroke-width=".283"/>
    </g>
    <g id="line2d_32" data-name="line2d 32">
      <path id="m02fe163f37-5" d="m15.85,114.81h3.48" fill="none" stroke="#c9d1d9" stroke-linejoin="round" stroke-width="1.417"/>
    </g>
    <g id="line2d_33" data-name="line2d 33">
      <rect x="15.85" y="12.03" width="443.52" height="172.33" fill="none" stroke="#c9d1d9" stroke-miterlimit="10" stroke-width=".283"/>
      <path d="m15.85,98.98h443.52" fill="none" stroke="#c9d1d9" stroke-miterlimit="10" stroke-width=".283"/>
    </g>
    <g id="line2d_34" data-name="line2d 34">
      <path id="m02fe163f37-6" d="m15.85,98.98h3.48" fill="none" stroke="#c9d1d9" stroke-linejoin="round" stroke-width="1.417"/>
    </g>
    <g id="line2d_35" data-name="line2d 35">
      <rect x="15.85" y="12.03" width="443.52" height="172.33" fill="none" stroke="#c9d1d9" stroke-miterlimit="10" stroke-width=".283"/>
      <path d="m15.85,83.16h443.52" fill="none" stroke="#c9d1d9" stroke-miterlimit="10" stroke-width=".283"/>
    </g>
    <g id="line2d_36" data-name="line2d 36">
      <path id="m02fe163f37-7" d="m15.85,83.16h3.48" fill="none" stroke="#c9d1d9" stroke-linejoin="round" stroke-width="1.417"/>
    </g>
    <g id="line2d_37" data-name="line2d 37">
      <rect x="15.85" y="12.03" width="443.52" height="172.33" fill="none" stroke="#c9d1d9" stroke-miterlimit="10" stroke-width=".283"/>
      <path d="m15.85,67.34h443.52" fill="none" stroke="#c9d1d9" stroke-miterlimit="10" stroke-width=".283"/>
    </g>
    <g id="line2d_38" data-name="line2d 38">
      <path id="m02fe163f37-8" d="m15.85,67.34h3.48" fill="none" stroke="#c9d1d9" stroke-linejoin="round" stroke-width="1.417"/>
    </g>
    <g id="line2d_39" data-name="line2d 39">
      <rect x="15.85" y="12.03" width="443.52" height="172.33" fill="none" stroke="#c9d1d9" stroke-miterlimit="10" stroke-width=".283"/>
      <path d="m15.85,51.51h443.52" fill="none" stroke="#c9d1d9" stroke-miterlimit="10" stroke-width=".283"/>
    </g>
    <g id="line2d_40" data-name="line2d 40">
      <path id="m02fe163f37-9" d="m15.85,51.51h3.48" fill="none" stroke="#c9d1d9" stroke-linejoin="round" stroke-width="1.417"/>
    </g>
    <g id="line2d_41" data-name="line2d 41">
      <rect x="15.85" y="12.03" width="443.52" height="172.33" fill="none" stroke="#c9d1d9" stroke-miterlimit="10" stroke-width=".283"/>
      <path d="m15.85,35.69h443.52" fill="none" stroke="#c9d1d9" stroke-miterlimit="10" stroke-width=".283"/>
    </g>
    <g id="line2d_42" data-name="line2d 42">
      <path id="m02fe163f37-10" d="m15.85,35.69h3.48" fill="none" stroke="#c9d1d9" stroke-linejoin="round" stroke-width="1.417"/>
    </g>
    <g id="line2d_43" data-name="line2d 43">
      <rect x="15.85" y="12.03" width="443.52" height="172.33" fill="none" stroke="#c9d1d9" stroke-miterlimit="10" stroke-width=".283"/>
      <path d="m15.85,19.86h443.52" fill="none" stroke="#c9d1d9" stroke-miterlimit="10" stroke-width=".283"/>
    </g>
    <g id="line2d_44" data-name="line2d 44">
      <path id="m02fe163f37-11" d="m15.85,19.86h3.48" fill="none" stroke="#c9d1d9" stroke-linejoin="round" stroke-width="1.417"/>
    </g>
    <g id="patch_3" data-name="patch 3">
      <path d="m15.85,184.36V12.03" fill="none" isolation="isolate" opacity=".8" stroke="#c9d1d9" stroke-linecap="square" stroke-width="1.417"/>
    </g>
    <g id="patch_4" data-name="patch 4">
      <path d="m15.85,184.36h443.52" fill="none" isolation="isolate" opacity=".8" stroke="#c9d1d9" stroke-linecap="square" stroke-width="1.417"/>
    </g>
    <path d="m439.21,184.36V12.03" fill="none" stroke="#c9d1d9" stroke-miterlimit="10" stroke-width=".283"/>
    <g id="patch_2-2" data-name="patch 2-2">
      <path d="m15.88,398.56h443.49v-172.33H15.88v172.33Z" fill="none" stroke="#c9d1d9" stroke-miterlimit="10" stroke-width="1.417"/>
    </g>
    <g id="line2d_1-2" data-name="line2d 1-2">
      <rect x="15.88" y="226.24" width="443.49" height="172.33" fill="none" stroke="#c9d1d9" stroke-miterlimit="10" stroke-width=".283"/>
      <path d="m31.97,398.56v-172.33" fill="none" stroke="#c9d1d9" stroke-miterlimit="10" stroke-width=".283"/>
    </g>
    <g id="line2d_2-2" data-name="line2d 2-2">
      <path id="m0f1e7e68f3" d="m31.97,398.56v-2.42" fill="none" stroke="#c9d1d9" stroke-linejoin="round" stroke-width="1.417"/>
    </g>
    <g id="line2d_3-2" data-name="line2d 3-2">
      <rect x="15.88" y="226.24" width="443.49" height="172.33" fill="none" stroke="#c9d1d9" stroke-miterlimit="10" stroke-width=".283"/>
      <path d="m72.69,398.56v-172.33" fill="none" stroke="#c9d1d9" stroke-miterlimit="10" stroke-width=".283"/>
    </g>
    <g id="line2d_4-2" data-name="line2d 4-2">
      <path id="m0f1e7e68f3-2" d="m72.69,398.56v-2.42" fill="none" stroke="#c9d1d9" stroke-linejoin="round" stroke-width="1.417"/>
    </g>
    <g id="line2d_5-2" data-name="line2d 5-2">
      <rect x="15.88" y="226.24" width="443.49" height="172.33" fill="none" stroke="#c9d1d9" stroke-miterlimit="10" stroke-width=".283"/>
      <path d="m113.42,398.56v-172.33" fill="none" stroke="#c9d1d9" stroke-miterlimit="10" stroke-width=".283"/>
    </g>
    <g id="line2d_6-2" data-name="line2d 6-2">
      <path id="m0f1e7e68f3-3" d="m113.42,398.56v-2.42" fill="none" stroke="#c9d1d9" stroke-linejoin="round" stroke-width="1.417"/>
    </g>
    <g id="line2d_7-2" data-name="line2d 7-2">
      <rect x="15.88" y="226.24" width="443.49" height="172.33" fill="none" stroke="#c9d1d9" stroke-miterlimit="10" stroke-width=".283"/>
      <path d="m154.14,398.56v-172.33" fill="none" stroke="#c9d1d9" stroke-miterlimit="10" stroke-width=".283"/>
    </g>
    <g id="line2d_8-2" data-name="line2d 8-2">
      <path id="m0f1e7e68f3-4" d="m154.14,398.56v-2.42" fill="none" stroke="#c9d1d9" stroke-linejoin="round" stroke-width="1.417"/>
    </g>
    <g id="line2d_9-2" data-name="line2d 9-2">
      <rect x="15.88" y="226.24" width="443.49" height="172.33" fill="none" stroke="#c9d1d9" stroke-miterlimit="10" stroke-width=".283"/>
      <path d="m194.87,398.56v-172.33" fill="none" stroke="#c9d1d9" stroke-miterlimit="10" stroke-width=".283"/>
    </g>
    <g id="line2d_10-2" data-name="line2d 10-2">
      <path id="m0f1e7e68f3-5" d="m194.87,398.56v-2.42" fill="none" stroke="#c9d1d9" stroke-linejoin="round" stroke-width="1.417"/>
    </g>
    <g id="line2d_11-2" data-name="line2d 11-2">
      <rect x="15.88" y="226.24" width="443.49" height="172.33" fill="none" stroke="#c9d1d9" stroke-miterlimit="10" stroke-width=".283"/>
      <path d="m235.59,398.56v-172.33" fill="none" stroke="#c9d1d9" stroke-miterlimit="10" stroke-width=".283"/>
    </g>
    <g id="line2d_12-2" data-name="line2d 12-2">
      <path id="m0f1e7e68f3-6" d="m235.59,398.56v-2.42" fill="none" stroke="#c9d1d9" stroke-linejoin="round" stroke-width="1.417"/>
    </g>
    <g id="line2d_13-2" data-name="line2d 13-2">
      <rect x="15.88" y="226.24" width="443.49" height="172.33" fill="none" stroke="#c9d1d9" stroke-miterlimit="10" stroke-width=".283"/>
      <path d="m276.32,398.56v-172.33" fill="none" stroke="#c9d1d9" stroke-miterlimit="10" stroke-width=".283"/>
    </g>
    <g id="line2d_14-2" data-name="line2d 14-2">
      <path id="m0f1e7e68f3-7" d="m276.32,398.56v-2.42" fill="none" stroke="#c9d1d9" stroke-linejoin="round" stroke-width="1.417"/>
    </g>
    <g id="line2d_15-2" data-name="line2d 15-2">
      <rect x="15.88" y="226.24" width="443.49" height="172.33" fill="none" stroke="#c9d1d9" stroke-miterlimit="10" stroke-width=".283"/>
      <path d="m317.04,398.56v-172.33" fill="none" stroke="#c9d1d9" stroke-miterlimit="10" stroke-width=".283"/>
    </g>
    <g id="line2d_16-2" data-name="line2d 16-2">
      <path id="m0f1e7e68f3-8" d="m317.04,398.56v-2.42" fill="none" stroke="#c9d1d9" stroke-linejoin="round" stroke-width="1.417"/>
    </g>
    <g id="line2d_17-2" data-name="line2d 17-2">
      <rect x="15.88" y="226.24" width="443.49" height="172.33" fill="none" stroke="#c9d1d9" stroke-miterlimit="10" stroke-width=".283"/>
      <path d="m357.76,398.56v-172.33" fill="none" stroke="#c9d1d9" stroke-miterlimit="10" stroke-width=".283"/>
    </g>
    <g id="line2d_18-2" data-name="line2d 18-2">
      <path id="m0f1e7e68f3-9" d="m357.76,398.56v-2.42" fill="none" stroke="#c9d1d9" stroke-linejoin="round" stroke-width="1.417"/>
    </g>
    <g id="line2d_19-2" data-name="line2d 19-2">
      <rect x="15.88" y="226.24" width="443.49" height="172.33" fill="none" stroke="#c9d1d9" stroke-miterlimit="10" stroke-width=".283"/>
      <path d="m398.49,398.56v-172.33" fill="none" stroke="#c9d1d9" stroke-miterlimit="10" stroke-width=".283"/>
    </g>
    <g id="line2d_20-2" data-name="line2d 20-2">
      <path id="m0f1e7e68f3-10" d="m398.49,398.56v-2.42" fill="none" stroke="#c9d1d9" stroke-linejoin="round" stroke-width="1.417"/>
    </g>
    <g id="line2d_21" data-name="line2d 21">
      <rect x="15.88" y="226.24" width="443.49" height="172.33" fill="none" stroke="#c9d1d9" stroke-miterlimit="10" stroke-width=".283"/>
      <path d="m439.21,398.56v-172.33" fill="none" stroke="#c9d1d9" stroke-miterlimit="10" stroke-width=".283"/>
    </g>
    <g id="line2d_22-2" data-name="line2d 22-2">
      <path id="m0f1e7e68f3-11" d="m439.21,398.56v-2.42" fill="none" stroke="#c9d1d9" stroke-linejoin="round" stroke-width="1.417"/>
    </g>
    <rect x="15.88" y="226.24" width="443.49" height="172.33" fill="none" stroke="#c9d1d9" stroke-miterlimit="10" stroke-width="1.417"/>
    <path d="m15.88,395.19h443.49" fill="none" stroke="#c9d1d9" stroke-miterlimit="10" stroke-width=".283"/>
    <g id="line2d_24-2" data-name="line2d 24-2">
      <path id="mac011f1ef6" d="m15.88,395.19h3.5" fill="none" stroke="#c9d1d9" stroke-linejoin="round" stroke-width="1.417"/>
    </g>
    <g id="line2d_25-2" data-name="line2d 25-2">
      <rect x="15.88" y="226.24" width="443.49" height="172.33" fill="none" stroke="#c9d1d9" stroke-miterlimit="10" stroke-width=".283"/>
      <path d="m15.88,361.4h443.49" fill="none" stroke="#c9d1d9" stroke-miterlimit="10" stroke-width=".283"/>
    </g>
    <g id="line2d_26-2" data-name="line2d 26-2">
      <path id="mac011f1ef6-2" d="m15.88,361.4h3.5" fill="none" stroke="#c9d1d9" stroke-linejoin="round" stroke-width="1.417"/>
    </g>
    <g id="line2d_27-2" data-name="line2d 27-2">
      <rect x="15.88" y="226.24" width="443.49" height="172.33" fill="none" stroke="#c9d1d9" stroke-miterlimit="10" stroke-width=".283"/>
      <path d="m15.88,327.61h443.49" fill="none" stroke="#c9d1d9" stroke-miterlimit="10" stroke-width=".283"/>
    </g>
    <g id="line2d_28-2" data-name="line2d 28-2">
      <path id="mac011f1ef6-3" d="m15.88,327.61h3.5" fill="none" stroke="#c9d1d9" stroke-linejoin="round" stroke-width="1.417"/>
    </g>
    <g id="line2d_29-2" data-name="line2d 29-2">
      <rect x="15.88" y="226.24" width="443.49" height="172.33" fill="none" stroke="#c9d1d9" stroke-miterlimit="10" stroke-width=".283"/>
      <path d="m15.88,293.82h443.49" fill="none" stroke="#c9d1d9" stroke-miterlimit="10" stroke-width=".283"/>
    </g>
    <g id="line2d_30-2" data-name="line2d 30-2">
      <path id="mac011f1ef6-4" d="m15.88,293.82h3.5" fill="none" stroke="#c9d1d9" stroke-linejoin="round" stroke-width="1.417"/>
    </g>
    <g id="line2d_31-2" data-name="line2d 31-2">
      <rect x="15.88" y="226.24" width="443.49" height="172.33" fill="none" stroke="#c9d1d9" stroke-miterlimit="10" stroke-width=".283"/>
      <path d="m15.88,260.03h443.49" fill="none" stroke="#c9d1d9" stroke-miterlimit="10" stroke-width=".283"/>
    </g>
    <g id="line2d_32-2" data-name="line2d 32-2">
      <path id="mac011f1ef6-5" d="m15.88,260.03h3.5" fill="none" stroke="#c9d1d9" stroke-linejoin="round" stroke-width="1.417"/>
    </g>
    <g>
      <g clip-path="url(#clippath)">
        <path d="m15.88,226.24h443.49" fill="none" stroke="#c9d1d9" stroke-miterlimit="10" stroke-width="1.417"/>
      </g>
      <rect x="15.88" y="226.24" width="443.49" height="172.33" fill="none" stroke="#c9d1d9" stroke-miterlimit="10" stroke-width="1.417"/>
    </g>
    <g id="line2d_34-2" data-name="line2d 34-2">
      <path id="mac011f1ef6-6" d="m15.88,226.24h3.5" fill="none" stroke="#c9d1d9" stroke-linejoin="round" stroke-width="1.417"/>
    </g>
    <g id="patch_3-2" data-name="patch 3-2">
      <path d="m15.88,398.56v-172.33" fill="none" isolation="isolate" opacity=".8" stroke="#c9d1d9" stroke-linecap="square" stroke-width="1.417"/>
    </g>
    <g id="patch_4-2" data-name="patch 4-2">
      <path d="m15.88,398.56h443.49" fill="none" isolation="isolate" opacity=".8" stroke="#c9d1d9" stroke-linecap="square" stroke-width="1.417"/>
    </g>
  </g>
  <g id="Ebene_3" data-name="Ebene 3">
    <g id="Ebene_8" data-name="Ebene 8">
      <rect x="332.73" y="228.62" width="112.27" height="16.91" fill="#0d1117" stroke="#c9d1d9"/>
      <rect x="18.48" y="14.42" width="77.29" height="16.91" fill="#0d1117" stroke="#c9d1d9"/>
    </g>
  </g>
  <g id="Ebene_2" data-name="Ebene 2">
    <g id="Text">
      <g isolation="isolate">
        <g isolation="isolate">
          <path d="m31.968,410.921c-.977,0-1.734-.382-2.273-1.146s-.809-1.835-.809-3.214.27-2.45.809-3.214,1.297-1.146,2.273-1.146,1.739.382,2.276,1.146.806,1.835.806,3.214-.269,2.45-.806,3.214-1.296,1.146-2.276,1.146Zm0-.844c.648,0,1.139-.299,1.471-.896s.498-1.471.498-2.619-.166-2.021-.498-2.619-.822-.896-1.471-.896-1.139.299-1.471.896-.498,1.471-.498,2.619.166,2.021.498,2.619.822.896,1.471.896Z" fill="#c9d1d9"/>
        </g>
      </g>
      <g isolation="isolate">
        <g isolation="isolate">
          <path d="m72.757,410.78v-6.721c-.309.266-.598.489-.867.671s-.57.335-.902.46v-.996c.172-.082.354-.185.545-.308s.409-.305.653-.545.526-.573.847-.999h.756v8.438h-1.031Z" fill="#c9d1d9"/>
        </g>
      </g>
      <g isolation="isolate">
        <g isolation="isolate">
          <path d="m110.39,410.78v-.691l2.965-2.514c.402-.344.731-.656.987-.938s.444-.566.565-.855.182-.611.182-.967c0-.387-.067-.712-.202-.976s-.329-.462-.583-.595-.564-.199-.932-.199c-.422,0-.763.083-1.022.249s-.453.39-.58.671-.202.598-.226.949l-1.125-.346c.023-.375.159-.744.407-1.107s.589-.664,1.022-.902.939-.357,1.518-.357c.328,0,.658.047.99.141s.638.243.917.448.504.473.674.803.255.729.255,1.198c0,.668-.182,1.265-.545,1.79s-.871,1.052-1.523,1.579l-2.291,1.857-.744-.141h5.268v.902h-5.977Z" fill="#c9d1d9"/>
        </g>
      </g>
      <g isolation="isolate">
        <g isolation="isolate">
          <path d="m154.165,410.921c-.523,0-1.007-.102-1.45-.305s-.808-.499-1.093-.888-.453-.864-.504-1.427l1.066-.334c.043.629.234,1.138.574,1.526s.803.583,1.389.583c.527,0,.966-.153,1.315-.46s.524-.749.524-1.327c0-.227-.048-.468-.144-.724s-.267-.474-.513-.653-.596-.27-1.049-.27h-1.16v-.891h1.066c.496,0,.876-.132,1.14-.396s.396-.562.396-.894c0-.391-.137-.725-.41-1.002s-.66-.416-1.16-.416c-.617,0-1.069.176-1.356.527s-.452.84-.495,1.465l-1.066-.334c.023-.402.158-.795.404-1.178s.586-.699,1.02-.949.943-.375,1.529-.375c.48,0,.917.094,1.31.281s.704.444.935.771.346.702.346,1.128c0,.281-.059.54-.176.776s-.293.438-.527.606-.531.293-.891.375c.594.105,1.062.356,1.403.753s.513.854.513,1.374c0,.469-.083.871-.249,1.207s-.39.61-.671.823-.596.37-.943.472-.705.152-1.072.152Z" fill="#c9d1d9"/>
        </g>
      </g>
      <g isolation="isolate">
        <g isolation="isolate">
          <path d="m196.012,410.78v-2.789h.012v-4.992l.258.562-3.738,4.441-.352-.305h5.836v.902h-6.305v-1.008l4.447-5.25h.873v8.438h-1.031Z" fill="#c9d1d9"/>
        </g>
      </g>
      <g isolation="isolate">
        <g isolation="isolate">
          <path d="m235.638,410.921c-.488,0-.955-.101-1.4-.302s-.817-.496-1.116-.885-.474-.864-.524-1.427l1.066-.334c.043.594.224,1.093.542,1.497s.784.606,1.397.606c.379,0,.712-.091.999-.272s.513-.433.677-.753.246-.688.246-1.102c0-.629-.181-1.111-.542-1.447s-.81-.504-1.345-.504c-.473,0-.843.118-1.11.354s-.464.501-.589.794l-1.02-.105.34-4.699h4.828v.902h-3.955l-.223,3.188-.287-.023c.211-.359.504-.662.879-.908s.832-.369,1.371-.369c.516,0,.979.117,1.389.352s.734.561.973.979.357.902.357,1.453c0,.609-.137,1.14-.41,1.591s-.635.8-1.084,1.046-.936.369-1.459.369Z" fill="#c9d1d9"/>
        </g>
      </g>
      <g isolation="isolate">
        <g isolation="isolate">
          <path d="m276.453,410.921c-1.023,0-1.8-.375-2.329-1.125s-.794-1.771-.794-3.064c0-.633.064-1.224.193-1.772s.325-1.029.589-1.441.595-.734.993-.967.867-.349,1.406-.349c.555,0,1.036.114,1.444.343s.729.515.964.858.371.693.41,1.049l-1.072.275c-.023-.504-.187-.91-.489-1.219s-.716-.463-1.239-.463c-.395,0-.723.086-.984.258s-.472.398-.63.68-.277.589-.357.923-.133.665-.158.993-.038.623-.038.885l-.094-.094c.164-.383.437-.723.817-1.02s.878-.445,1.491-.445c.492,0,.946.11,1.362.331s.749.543.999.967.375.94.375,1.55c0,.578-.119,1.081-.357,1.509s-.572.758-1.002.99-.93.349-1.5.349Zm0-.844c.574,0,1.019-.181,1.333-.542s.472-.854.472-1.479c0-.629-.156-1.117-.469-1.465s-.746-.521-1.301-.521c-.57,0-1.03.181-1.38.542s-.524.854-.524,1.479c0,.609.169,1.093.507,1.45s.792.536,1.362.536Z" fill="#c9d1d9"/>
        </g>
      </g>
      <g isolation="isolate">
        <g isolation="isolate">
          <path d="m315.325,410.78c.309-1.453.758-2.788,1.348-4.005s1.32-2.394,2.191-3.53h-4.688v-.902h5.73v.791c-.398.598-.774,1.197-1.128,1.799s-.676,1.214-.967,1.837-.542,1.267-.753,1.931-.375,1.357-.492,2.08h-1.242Z" fill="#c9d1d9"/>
        </g>
      </g>
      <g isolation="isolate">
        <g isolation="isolate">
          <path d="m357.759,410.921c-.578,0-1.091-.106-1.538-.319s-.797-.511-1.049-.894-.378-.824-.378-1.324c0-.535.16-1.015.48-1.438s.789-.692,1.406-.806c-.324-.078-.607-.201-.85-.369s-.429-.374-.56-.618-.196-.517-.196-.817c0-.41.114-.776.343-1.099s.545-.575.949-.759.87-.275,1.397-.275c.531,0,.997.092,1.397.275s.714.437.94.759.34.688.34,1.099c0,.301-.065.573-.196.817s-.315.45-.554.618-.52.291-.844.369c.617.113,1.086.382,1.406.806s.48.903.48,1.438c0,.5-.127.941-.381,1.324s-.604.681-1.052.894-.962.319-1.544.319Zm.006-.926c.582,0,1.041-.15,1.377-.451s.504-.713.504-1.236c0-.512-.168-.921-.504-1.228s-.795-.46-1.377-.46c-.578,0-1.038.153-1.38.46s-.513.716-.513,1.228c0,.527.171.94.513,1.239s.802.448,1.38.448Zm0-4.242c.504,0,.9-.115,1.189-.346s.434-.551.434-.961c0-.426-.145-.765-.434-1.017s-.686-.378-1.189-.378-.902.126-1.195.378-.439.591-.439,1.017c0,.41.146.73.439.961s.691.346,1.195.346Z" fill="#c9d1d9"/>
        </g>
      </g>
      <g isolation="isolate">
        <g isolation="isolate">
          <path d="m398.375,410.921c-.574,0-1.065-.114-1.474-.343s-.727-.515-.955-.858-.362-.691-.401-1.043l1.072-.281c.023.512.178.92.463,1.225s.719.457,1.301.457c.383,0,.699-.086.949-.258s.448-.398.595-.68.255-.589.325-.923.117-.665.141-.993.037-.623.041-.885l.094.164c-.164.379-.437.718-.817,1.017s-.874.448-1.479.448c-.496,0-.952-.114-1.368-.343s-.75-.558-1.002-.987-.378-.947-.378-1.553c0-.59.124-1.101.372-1.532s.593-.765,1.034-.999.949-.352,1.523-.352,1.057.112,1.447.337.704.535.94.932.406.853.51,1.368.155,1.064.155,1.646-.056,1.139-.167,1.67-.289,1.005-.533,1.421-.562.744-.955.984-.87.36-1.433.36Zm-.018-3.797c.57,0,1.029-.188,1.377-.562s.521-.887.521-1.535c0-.613-.163-1.097-.489-1.45s-.774-.53-1.345-.53c-.578,0-1.029.183-1.354.548s-.486.866-.486,1.503c0,.625.157,1.119.472,1.482s.749.545,1.304.545Z" fill="#c9d1d9"/>
        </g>
      </g>
      <g isolation="isolate">
        <g isolation="isolate">
          <path d="m435.617,410.78v-6.721c-.309.266-.598.489-.867.671s-.57.335-.902.46v-.996c.172-.082.354-.185.545-.308s.409-.305.653-.545.526-.573.847-.999h.756v8.438h-1.031Z" fill="#c9d1d9"/>
          <path d="m441.277,410.921c-.977,0-1.734-.382-2.273-1.146s-.809-1.835-.809-3.214.27-2.45.809-3.214,1.297-1.146,2.273-1.146,1.739.382,2.276,1.146.806,1.835.806,3.214-.269,2.45-.806,3.214-1.296,1.146-2.276,1.146Zm0-.844c.648,0,1.139-.299,1.471-.896s.498-1.471.498-2.619-.166-2.021-.498-2.619-.822-.896-1.471-.896-1.139.299-1.471.896-.498,1.471-.498,2.619.166,2.021.498,2.619.822.896,1.471.896Z" fill="#c9d1d9"/>
        </g>
      </g>
      <g isolation="isolate">
        <g isolation="isolate">
          <path d="m3.321,399.016v-.914h3.932v.914h-3.932Z" fill="#c9d1d9"/>
        </g>
        <g isolation="isolate">
          <path d="m9.457,402.25v-6.721c-.309.266-.598.489-.867.671s-.57.335-.902.46v-.996c.172-.082.354-.185.545-.308s.409-.305.653-.545.526-.573.847-.999h.756v8.438h-1.031Z" fill="#c9d1d9"/>
        </g>
      </g>
      <g isolation="isolate">
        <g isolation="isolate">
          <path d="m7.788,365.221c-.977,0-1.734-.382-2.273-1.146s-.809-1.835-.809-3.214.27-2.45.809-3.214,1.297-1.146,2.273-1.146,1.739.382,2.276,1.146.806,1.835.806,3.214-.269,2.45-.806,3.214-1.296,1.146-2.276,1.146Zm0-.844c.648,0,1.139-.299,1.471-.896s.498-1.471.498-2.619-.166-2.021-.498-2.619-.822-.896-1.471-.896-1.139.299-1.471.896-.498,1.471-.498,2.619.166,2.021.498,2.619.822.896,1.471.896Z" fill="#c9d1d9"/>
        </g>
      </g>
      <g isolation="isolate">
        <g isolation="isolate">
          <path d="m9.467,331.29v-6.721c-.309.266-.598.489-.867.671s-.57.335-.902.46v-.996c.172-.082.354-.185.545-.308s.409-.305.653-.545.526-.573.847-.999h.756v8.438h-1.031Z" fill="#c9d1d9"/>
        </g>
      </g>
      <g isolation="isolate">
        <g isolation="isolate">
          <path d="m5,297.51v-.691l2.965-2.514c.402-.344.731-.656.987-.938s.444-.566.565-.855.182-.611.182-.967c0-.387-.067-.712-.202-.976s-.329-.462-.583-.595-.564-.199-.932-.199c-.422,0-.763.083-1.022.249s-.453.39-.58.671-.202.598-.226.949l-1.125-.346c.023-.375.159-.744.407-1.107s.589-.664,1.022-.902.939-.357,1.518-.357c.328,0,.658.047.99.141s.638.243.917.448.504.473.674.803.255.729.255,1.198c0,.668-.182,1.265-.545,1.79s-.871,1.052-1.523,1.579l-2.291,1.857-.744-.141h5.268v.902h-5.977Z" fill="#c9d1d9"/>
        </g>
      </g>
      <g isolation="isolate">
        <g isolation="isolate">
          <path d="m8.024,263.851c-.523,0-1.007-.102-1.45-.305s-.808-.499-1.093-.888-.453-.864-.504-1.427l1.066-.334c.043.629.234,1.138.574,1.526s.803.583,1.389.583c.527,0,.966-.153,1.315-.46s.524-.749.524-1.327c0-.227-.048-.468-.144-.724s-.267-.474-.513-.653-.596-.27-1.049-.27h-1.16v-.891h1.066c.496,0,.876-.132,1.14-.396s.396-.562.396-.894c0-.391-.137-.725-.41-1.002s-.66-.416-1.16-.416c-.617,0-1.069.176-1.356.527s-.452.84-.495,1.465l-1.066-.334c.023-.402.158-.795.404-1.178s.586-.699,1.02-.949.943-.375,1.529-.375c.48,0,.917.094,1.31.281s.704.444.935.771.346.702.346,1.128c0,.281-.059.54-.176.776s-.293.438-.527.606-.531.293-.891.375c.594.105,1.062.356,1.403.753s.513.854.513,1.374c0,.469-.083.871-.249,1.207s-.39.61-.671.823-.596.37-.943.472-.705.152-1.072.152Z" fill="#c9d1d9"/>
        </g>
      </g>
      <g isolation="isolate">
        <g isolation="isolate">
          <path d="m9.092,229.92v-2.789h.012v-4.992l.258.562-3.738,4.441-.352-.305h5.836v.902h-6.305v-1.008l4.447-5.25h.873v8.438h-1.031Z" fill="#c9d1d9"/>
        </g>
      </g>
      <g isolation="isolate">
        <g isolation="isolate">
          <path d="m7.788,181.931c-.977,0-1.734-.382-2.273-1.146s-.809-1.835-.809-3.214.27-2.45.809-3.214,1.297-1.146,2.273-1.146,1.739.382,2.276,1.146.806,1.835.806,3.214-.269,2.45-.806,3.214-1.296,1.146-2.276,1.146Zm0-.844c.648,0,1.139-.299,1.471-.896s.498-1.471.498-2.619-.166-2.021-.498-2.619-.822-.896-1.471-.896-1.139.299-1.471.896-.498,1.471-.498,2.619.166,2.021.498,2.619.822.896,1.471.896Z" fill="#c9d1d9"/>
        </g>
      </g>
      <g isolation="isolate">
        <g isolation="isolate">
          <path d="m9.467,165.97v-6.721c-.309.266-.598.489-.867.671s-.57.335-.902.46v-.996c.172-.082.354-.185.545-.308s.409-.305.653-.545.526-.573.847-.999h.756v8.438h-1.031Z" fill="#c9d1d9"/>
        </g>
      </g>
      <g isolation="isolate">
        <g isolation="isolate">
          <path d="m5,150.15v-.691l2.965-2.514c.402-.344.731-.656.987-.938s.444-.566.565-.855.182-.611.182-.967c0-.387-.067-.712-.202-.976s-.329-.462-.583-.595-.564-.199-.932-.199c-.422,0-.763.083-1.022.249s-.453.39-.58.671-.202.598-.226.949l-1.125-.346c.023-.375.159-.744.407-1.107s.589-.664,1.022-.902.939-.357,1.518-.357c.328,0,.658.047.99.141s.638.243.917.448.504.473.674.803.255.729.255,1.198c0,.668-.182,1.265-.545,1.79s-.871,1.052-1.523,1.579l-2.291,1.857-.744-.141h5.268v.902h-5.977Z" fill="#c9d1d9"/>
        </g>
      </g>
      <g isolation="isolate">
        <g isolation="isolate">
          <path d="m8.024,134.46c-.523,0-1.007-.102-1.45-.305s-.808-.499-1.093-.888-.453-.864-.504-1.427l1.066-.334c.043.629.234,1.138.574,1.526s.803.583,1.389.583c.527,0,.966-.153,1.315-.46s.524-.749.524-1.327c0-.227-.048-.468-.144-.724s-.267-.474-.513-.653-.596-.27-1.049-.27h-1.16v-.891h1.066c.496,0,.876-.132,1.14-.396s.396-.562.396-.894c0-.391-.137-.725-.41-1.002s-.66-.416-1.16-.416c-.617,0-1.069.176-1.356.527s-.452.84-.495,1.465l-1.066-.334c.023-.402.158-.795.404-1.178s.586-.699,1.02-.949.943-.375,1.529-.375c.48,0,.917.094,1.31.281s.704.444.935.771.346.702.346,1.128c0,.281-.059.54-.176.776s-.293.438-.527.606-.531.293-.891.375c.594.105,1.062.356,1.403.753s.513.854.513,1.374c0,.469-.083.871-.249,1.207s-.39.61-.671.823-.596.37-.943.472-.705.152-1.072.152Z" fill="#c9d1d9"/>
        </g>
      </g>
      <g isolation="isolate">
        <g isolation="isolate">
          <path d="m9.092,118.5v-2.789h.012v-4.992l.258.562-3.738,4.441-.352-.305h5.836v.902h-6.305v-1.008l4.447-5.25h.873v8.438h-1.031Z" fill="#c9d1d9"/>
        </g>
      </g>
      <g isolation="isolate">
        <g isolation="isolate">
          <path d="m8.018,102.811c-.488,0-.955-.101-1.4-.302s-.817-.496-1.116-.885-.474-.864-.524-1.427l1.066-.334c.043.594.224,1.093.542,1.497s.784.606,1.397.606c.379,0,.712-.091.999-.272s.513-.433.677-.753.246-.688.246-1.102c0-.629-.181-1.111-.542-1.447s-.81-.504-1.345-.504c-.473,0-.843.118-1.11.354s-.464.501-.589.794l-1.02-.105.34-4.699h4.828v.902h-3.955l-.223,3.188-.287-.023c.211-.359.504-.662.879-.908s.832-.369,1.371-.369c.516,0,.979.117,1.389.352s.734.561.973.979.357.902.357,1.453c0,.609-.137,1.14-.41,1.591s-.635.8-1.084,1.046-.936.369-1.459.369Z" fill="#c9d1d9"/>
        </g>
      </g>
      <g isolation="isolate">
        <g isolation="isolate">
          <path d="m8.023,86.991c-1.023,0-1.8-.375-2.329-1.125s-.794-1.771-.794-3.064c0-.633.064-1.224.193-1.772s.325-1.029.589-1.441.595-.734.993-.967.867-.349,1.406-.349c.555,0,1.036.114,1.444.343s.729.515.964.858.371.693.41,1.049l-1.072.275c-.023-.504-.187-.91-.489-1.219s-.716-.463-1.239-.463c-.395,0-.723.086-.984.258s-.472.398-.63.68-.277.589-.357.923-.133.665-.158.993-.038.623-.038.885l-.094-.094c.164-.383.437-.723.817-1.02s.878-.445,1.491-.445c.492,0,.946.11,1.362.331s.749.543.999.967.375.94.375,1.55c0,.578-.119,1.081-.357,1.509s-.572.758-1.002.99-.93.349-1.5.349Zm0-.844c.574,0,1.019-.181,1.333-.542s.472-.854.472-1.479c0-.629-.156-1.117-.469-1.465s-.746-.521-1.301-.521c-.57,0-1.03.181-1.38.542s-.524.854-.524,1.479c0,.609.169,1.093.507,1.45s.792.536,1.362.536Z" fill="#c9d1d9"/>
        </g>
      </g>
      <g isolation="isolate">
        <g isolation="isolate">
          <path d="m6.555,71.02c.309-1.453.758-2.788,1.348-4.005s1.32-2.394,2.191-3.53h-4.688v-.902h5.73v.791c-.398.598-.774,1.197-1.128,1.799s-.676,1.214-.967,1.837-.542,1.267-.753,1.931-.375,1.357-.492,2.08h-1.242Z" fill="#c9d1d9"/>
        </g>
      </g>
      <g isolation="isolate">
        <g isolation="isolate">
          <path d="m7.979,55.341c-.578,0-1.091-.106-1.538-.319s-.797-.511-1.049-.894-.378-.824-.378-1.324c0-.535.16-1.015.48-1.438s.789-.692,1.406-.806c-.324-.078-.607-.201-.85-.369s-.429-.374-.56-.618-.196-.517-.196-.817c0-.41.114-.776.343-1.099s.545-.575.949-.759.87-.275,1.397-.275c.531,0,.997.092,1.397.275s.714.437.94.759.34.688.34,1.099c0,.301-.065.573-.196.817s-.315.45-.554.618-.52.291-.844.369c.617.113,1.086.382,1.406.806s.48.903.48,1.438c0,.5-.127.941-.381,1.324s-.604.681-1.052.894-.962.319-1.544.319Zm.006-.926c.582,0,1.041-.15,1.377-.451s.504-.713.504-1.236c0-.512-.168-.921-.504-1.228s-.795-.46-1.377-.46c-.578,0-1.038.153-1.38.46s-.513.716-.513,1.228c0,.527.171.94.513,1.239s.802.448,1.38.448Zm0-4.242c.504,0,.9-.115,1.189-.346s.434-.551.434-.961c0-.426-.145-.765-.434-1.017s-.686-.378-1.189-.378-.902.126-1.195.378-.439.591-.439,1.017c0,.41.146.73.439.961s.691.346,1.195.346Z" fill="#c9d1d9"/>
        </g>
      </g>
      <g isolation="isolate">
        <g isolation="isolate">
          <path d="m7.775,39.511c-.574,0-1.065-.114-1.474-.343s-.727-.515-.955-.858-.362-.691-.401-1.043l1.072-.281c.023.512.178.92.463,1.225s.719.457,1.301.457c.383,0,.699-.086.949-.258s.448-.398.595-.68.255-.589.325-.923.117-.665.141-.993.037-.623.041-.885l.094.164c-.164.379-.437.718-.817,1.017s-.874.448-1.479.448c-.496,0-.952-.114-1.368-.343s-.75-.558-1.002-.987-.378-.947-.378-1.553c0-.59.124-1.101.372-1.532s.593-.765,1.034-.999.949-.352,1.523-.352,1.057.112,1.447.337.704.535.94.932.406.853.51,1.368.155,1.064.155,1.646-.056,1.139-.167,1.67-.289,1.005-.533,1.421-.562.744-.955.984-.87.36-1.433.36Zm-.018-3.797c.57,0,1.029-.188,1.377-.562s.521-.887.521-1.535c0-.613-.163-1.097-.489-1.45s-.774-.53-1.345-.53c-.578,0-1.029.183-1.354.548s-.486.866-.486,1.503c0,.625.157,1.119.472,1.482s.749.545,1.304.545Z" fill="#c9d1d9"/>
        </g>
      </g>
      <g isolation="isolate">
        <g isolation="isolate">
          <path d="m2.127,23.55v-6.721c-.309.266-.598.489-.867.671s-.57.335-.902.46v-.996c.172-.082.354-.185.545-.308s.409-.305.653-.545.526-.573.847-.999h.756v8.438h-1.031Z" fill="#c9d1d9"/>
          <path d="m7.787,23.69c-.977,0-1.734-.382-2.273-1.146s-.809-1.835-.809-3.214.27-2.45.809-3.214,1.297-1.146,2.273-1.146,1.739.382,2.276,1.146.806,1.835.806,3.214-.269,2.45-.806,3.214-1.296,1.146-2.276,1.146Zm0-.844c.648,0,1.139-.299,1.471-.896s.498-1.471.498-2.619-.166-2.021-.498-2.619-.822-.896-1.471-.896-1.139.299-1.471.896-.498,1.471-.498,2.619.166,2.021.498,2.619.822.896,1.471.896Z" fill="#c9d1d9"/>
        </g>
      </g>
      <g isolation="isolate">
        <g isolation="isolate">
          <path d="m61.606,28.855v-.82h.961c.07,0,.125-.022.164-.067s.076-.116.111-.214l.457-1.307-.1.451-2.543-6.656h1.102l2.016,5.83-.217-.053,2.01-5.777h1.09l-3.018,7.904c-.082.215-.221.387-.416.516s-.398.193-.609.193h-1.008Z" fill="#c9d1d9"/>
          <path d="m70.812,21.853v-.914h5.977v.914h-5.977Zm0,2.385v-.914h5.977v.914h-5.977Z" fill="#c9d1d9"/>
          <path d="m80.948,26.57l2.449-3.281-2.227-3.047h1.137l1.717,2.408,1.682-2.408h1.207l-2.332,3.047,2.473,3.281h-1.266l-1.816-2.537-1.852,2.537h-1.172Z" fill="#c9d1d9"/>
        </g>
      </g>
      <g isolation="isolate">
        <g isolation="isolate">
          <path d="m375.116,243.055v-.82h.961c.07,0,.125-.021.164-.066s.076-.117.111-.215l.457-1.307-.1.451-2.543-6.656h1.102l2.016,5.83-.217-.053,2.01-5.777h1.09l-3.018,7.904c-.082.215-.221.387-.416.516s-.398.193-.609.193h-1.008Z" fill="#c9d1d9"/>
          <path d="m384.321,236.053v-.914h5.977v.914h-5.977Zm0,2.385v-.914h5.977v.914h-5.977Z" fill="#c9d1d9"/>
        </g>
        <g isolation="isolate">
          <path d="m396.051,240.77c-.25,0-.469-.082-.656-.248s-.281-.377-.281-.631v-7.91h.984v7.646c0,.129.019.215.056.258s.116.064.237.064h.615v.82h-.955Z" fill="#c9d1d9"/>
        </g>
        <g isolation="isolate">
          <path d="m400.82,240.91c-.594,0-1.117-.139-1.57-.418s-.807-.668-1.061-1.164-.381-1.07-.381-1.723.127-1.227.381-1.723.607-.883,1.061-1.162.977-.42,1.57-.42,1.117.141,1.57.42.807.666,1.061,1.162.381,1.07.381,1.723-.127,1.227-.381,1.723-.607.885-1.061,1.164-.977.418-1.57.418Zm0-.82c.598,0,1.069-.223,1.415-.668s.519-1.051.519-1.816c0-.77-.173-1.375-.519-1.818s-.817-.666-1.415-.666-1.069.223-1.415.666-.519,1.049-.519,1.818c0,.766.173,1.371.519,1.816s.817.668,1.415.668Z" fill="#c9d1d9"/>
          <path d="m407.582,243.195c-.941,0-1.635-.131-2.08-.395s-.668-.672-.668-1.223c0-.312.08-.592.24-.838s.438-.436.832-.568c-.148-.09-.27-.209-.363-.357s-.141-.314-.141-.498c0-.219.068-.414.205-.588s.332-.299.586-.373c-.312-.184-.556-.432-.729-.746s-.261-.682-.261-1.1c0-.453.101-.844.302-1.174s.488-.586.861-.766.817-.27,1.333-.27.962.09,1.339.27.668.436.873.768.308.727.308,1.184c0,.449-.103.838-.308,1.164s-.497.578-.876.756-.83.266-1.354.266h-.545c-.492,0-.738.146-.738.439,0,.277.238.416.715.416h1.266c.5,0,.903.059,1.21.174s.541.264.703.445.272.377.331.588.088.412.088.604c0,.621-.225,1.08-.674,1.377s-1.146.445-2.092.445h-.363Zm0-.785h.363c1.164,0,1.746-.348,1.746-1.043,0-.289-.104-.525-.313-.709s-.565-.275-1.069-.275h-1.09c-.391,0-.717.08-.979.238s-.393.416-.393.775c0,.344.142.6.425.766s.72.248,1.31.248Zm.117-4.395c.496,0,.877-.127,1.143-.383s.398-.627.398-1.111c0-.48-.133-.854-.398-1.119s-.646-.398-1.143-.398c-.492,0-.869.133-1.131.396s-.393.637-.393,1.121.131.855.393,1.111.639.383,1.131.383Zm1.043-3.053v-.627c0-.254.094-.463.281-.629s.406-.25.656-.25h.762v.82h-.627c-.121,0-.2.021-.237.064s-.056.129-.056.258v.363h-.779Z" fill="#c9d1d9"/>
          <path d="m413.189,240.77v-6.721c-.309.266-.598.49-.867.672s-.57.334-.902.459v-.996c.172-.082.354-.184.545-.307s.409-.305.653-.545.526-.574.847-1h.756v8.438h-1.031Z" fill="#c9d1d9"/>
        </g>
        <g isolation="isolate">
          <path d="m418.848,240.91c-.977,0-1.734-.381-2.273-1.145s-.809-1.836-.809-3.215.27-2.449.809-3.213,1.297-1.146,2.273-1.146,1.739.383,2.276,1.146.806,1.834.806,3.213-.269,2.451-.806,3.215-1.296,1.145-2.276,1.145Zm0-.844c.648,0,1.139-.299,1.471-.896s.498-1.471.498-2.619-.166-2.021-.498-2.619-.822-.896-1.471-.896-1.139.299-1.471.896-.498,1.471-.498,2.619.166,2.021.498,2.619.822.896,1.471.896Z" fill="#c9d1d9"/>
        </g>
        <g isolation="isolate">
          <path d="m425.194,242.75c-.605-.773-1.064-1.615-1.377-2.527s-.469-1.863-.469-2.852.157-1.934.472-2.848.772-1.762,1.374-2.543h1.043c-.672.895-1.165,1.771-1.479,2.629s-.472,1.777-.472,2.762c0,1,.152,1.928.457,2.783s.803,1.721,1.494,2.596h-1.043Z" fill="#c9d1d9"/>
        </g>
        <g isolation="isolate">
          <path d="m426.243,240.77l2.449-3.281-2.227-3.047h1.137l1.717,2.408,1.682-2.408h1.207l-2.332,3.047,2.473,3.281h-1.266l-1.816-2.537-1.852,2.537h-1.172Z" fill="#c9d1d9"/>
        </g>
        <g isolation="isolate">
          <path d="m432.365,242.75c.691-.875,1.189-1.74,1.494-2.596s.457-1.783.457-2.783c0-.984-.156-1.904-.469-2.762s-.807-1.734-1.482-2.629h1.043c.602.781,1.06,1.629,1.374,2.543s.472,1.863.472,2.848-.156,1.939-.469,2.852-.771,1.754-1.377,2.527h-1.043Z" fill="#c9d1d9"/>
        </g>
      </g>
      <g isolation="isolate">
        <g isolation="isolate">
          <path d="m195.051,9.19V.752h1.055v7.57h4.219v.867h-5.273Z" fill="#c9d1d9"/>
        </g>
        <g isolation="isolate">
          <path d="m201.833,1.801c-.227,0-.42-.08-.58-.24s-.24-.354-.24-.58c0-.23.08-.425.24-.583s.354-.237.58-.237c.23,0,.425.079.583.237s.237.353.237.583c0,.227-.079.42-.237.58s-.353.24-.583.24Zm-.492,7.389V2.862h.984v6.328h-.984Z" fill="#c9d1d9"/>
          <path d="m204.241,9.19V2.862h.926v1.43l-.041-.258c.168-.363.434-.673.797-.929s.805-.384,1.324-.384c.449,0,.836.1,1.16.299s.574.483.75.853.264.813.264,1.333v3.984h-.984v-3.908c0-.52-.106-.939-.319-1.26s-.563-.48-1.052-.48c-.527,0-.966.2-1.315.601s-.524.979-.524,1.737v3.311h-.984Z" fill="#c9d1d9"/>
          <path d="m213.78,9.331c-.602,0-1.122-.135-1.562-.404s-.778-.651-1.017-1.146-.357-1.077-.357-1.749c0-.676.119-1.262.357-1.758s.574-.879,1.008-1.148.943-.404,1.529-.404c.336,0,.673.054,1.011.161s.646.293.926.557.504.625.674,1.084.255,1.038.255,1.737h-5.127v-.797h4.271l-.281.369c-.02-.555-.109-1-.27-1.336s-.368-.579-.624-.729-.54-.226-.853-.226c-.371,0-.691.097-.961.29s-.477.476-.621.847-.217.824-.217,1.359c0,.789.161,1.398.483,1.828s.78.645,1.374.645c.426,0,.784-.107,1.075-.322s.505-.525.642-.932l.967.328c-.152.367-.355.681-.609.94s-.556.459-.905.598-.739.208-1.169.208Z" fill="#c9d1d9"/>
          <path d="m219.716,9.331c-.422,0-.788-.081-1.099-.243s-.55-.384-.718-.665-.252-.6-.252-.955c0-.379.111-.729.334-1.049s.567-.577,1.034-.771,1.065-.29,1.796-.29h1.055l-.105.105v-.346c0-.508-.102-.897-.305-1.169s-.543-.407-1.02-.407c-.449,0-.795.116-1.037.349s-.371.544-.387.935l-1.107-.252c.035-.34.165-.649.39-.929s.525-.503.902-.671.813-.252,1.31-.252c.512,0,.929.097,1.251.29s.56.472.712.835.229.801.229,1.312v2.889c0,.129.019.215.056.258s.116.064.237.064h.357v.82h-.627c-.266,0-.488-.083-.668-.249s-.27-.376-.27-.63v-.445h.146c-.062.164-.152.331-.27.501s-.266.328-.445.475-.394.265-.642.354-.534.135-.858.135Zm.223-.82c.324,0,.625-.08.902-.24s.501-.411.671-.753.255-.786.255-1.333v-.053h-.99c-.52,0-.929.068-1.228.205s-.511.306-.636.507-.188.401-.188.601.045.379.135.539.225.288.404.384.404.144.674.144Z" fill="#c9d1d9"/>
          <path d="m224.708,9.19V2.862h.926v1.342l-.035-.152c.188-.438.47-.769.847-.993s.759-.337,1.146-.337c.113,0,.224.01.331.029s.208.053.302.1l-.129.926c-.215-.066-.428-.1-.639-.1-.133,0-.298.026-.495.079s-.393.158-.586.316-.355.394-.486.706-.196.729-.196,1.248v3.164h-.984Z" fill="#c9d1d9"/>
        </g>
        <g isolation="isolate">
          <path d="m231.944,3.682v-.82h3.346v.82h-3.346Zm.943,5.508V1.713c0-.473.111-.81.334-1.011s.596-.302,1.119-.302h.791v.82h-.932c-.117,0-.201.025-.252.076s-.076.135-.076.252v7.641h-.984Z" fill="#c9d1d9"/>
        </g>
        <g isolation="isolate">
          <path d="m238.61,9.331c-.441,0-.824-.1-1.148-.299s-.574-.484-.75-.855-.264-.814-.264-1.33v-3.984h.984v3.908c0,.516.098.935.293,1.257s.547.483,1.055.483c.379,0,.707-.098.984-.293s.493-.488.647-.879.231-.879.231-1.465v-3.012h.984v6.328h-.926v-1.488l.041.258c-.164.391-.429.717-.794.979s-.812.393-1.339.393Z" fill="#c9d1d9"/>
          <path d="m243.538,9.19V2.862h.926v1.43l-.041-.258c.168-.363.434-.673.797-.929s.805-.384,1.324-.384c.449,0,.836.1,1.16.299s.574.483.75.853.264.813.264,1.333v3.984h-.984v-3.908c0-.52-.106-.939-.319-1.26s-.563-.48-1.052-.48c-.527,0-.966.2-1.315.601s-.524.979-.524,1.737v3.311h-.984Z" fill="#c9d1d9"/>
        </g>
        <g isolation="isolate">
          <path d="m253.03,9.331c-.594,0-1.107-.135-1.541-.404s-.768-.651-1.002-1.146-.352-1.079-.352-1.755.117-1.261.352-1.755.568-.876,1.002-1.146.947-.404,1.541-.404c.453,0,.858.083,1.216.249s.66.404.908.715.431.685.548,1.122l-1.002.264c-.109-.492-.306-.87-.589-1.134s-.644-.396-1.081-.396c-.582,0-1.03.216-1.345.647s-.472,1.044-.472,1.837.157,1.41.472,1.84.763.645,1.345.645c.434,0,.791-.128,1.072-.384s.479-.626.592-1.11l.996.281c-.094.32-.223.605-.387.855s-.358.463-.583.639-.479.31-.762.401-.593.138-.929.138Z" fill="#c9d1d9"/>
        </g>
        <g isolation="isolate">
          <path d="m258.368,9.19c-.25,0-.469-.083-.656-.249s-.281-.376-.281-.63V3.682h-1.02v-.82h1.02v-1.324l.984-.211v1.535h1.254v.82h-1.254v4.365c0,.129.019.215.056.258s.116.064.237.064h.967v.82h-1.307Z" fill="#c9d1d9"/>
        </g>
        <g isolation="isolate">
          <path d="m261.593,1.801c-.227,0-.42-.08-.58-.24s-.24-.354-.24-.58c0-.23.08-.425.24-.583s.354-.237.58-.237c.23,0,.425.079.583.237s.237.353.237.583c0,.227-.079.42-.237.58s-.353.24-.583.24Zm-.492,7.389V2.862h.984v6.328h-.984Z" fill="#c9d1d9"/>
        </g>
        <g isolation="isolate">
          <path d="m266.561,9.331c-.594,0-1.117-.14-1.57-.419s-.807-.667-1.061-1.163-.381-1.07-.381-1.723.127-1.227.381-1.723.607-.884,1.061-1.163.977-.419,1.57-.419,1.117.14,1.57.419.807.667,1.061,1.163.381,1.07.381,1.723-.127,1.227-.381,1.723-.607.884-1.061,1.163-.977.419-1.57.419Zm0-.82c.598,0,1.068-.223,1.414-.668s.52-1.051.52-1.816c0-.77-.174-1.376-.52-1.819s-.816-.665-1.414-.665-1.07.222-1.416.665-.518,1.05-.518,1.819c0,.766.172,1.371.518,1.816s.818.668,1.416.668Z" fill="#c9d1d9"/>
        </g>
        <g isolation="isolate">
          <path d="m271.045,9.19V2.862h.926v1.43l-.041-.258c.168-.363.434-.673.797-.929s.805-.384,1.324-.384c.449,0,.836.1,1.16.299s.574.483.75.853.264.813.264,1.333v3.984h-.984v-3.908c0-.52-.106-.939-.319-1.26s-.563-.48-1.052-.48c-.527,0-.966.2-1.315.601s-.524.979-.524,1.737v3.311h-.984Z" fill="#c9d1d9"/>
        </g>
      </g>
      <g isolation="isolate">
        <g isolation="isolate">
          <path d="m179.791,223.39v-8.438h1.055v7.57h4.219v.867h-5.273Z" fill="#c9d1d9"/>
        </g>
        <g isolation="isolate">
          <path d="m188.4,223.53c-.594,0-1.117-.14-1.57-.419s-.807-.667-1.061-1.163-.381-1.07-.381-1.723.127-1.227.381-1.723.607-.884,1.061-1.163.977-.419,1.57-.419,1.117.14,1.57.419.807.667,1.061,1.163.381,1.07.381,1.723-.127,1.227-.381,1.723-.607.884-1.061,1.163-.977.419-1.57.419Zm0-.82c.598,0,1.069-.223,1.415-.668s.519-1.051.519-1.816c0-.77-.173-1.376-.519-1.819s-.817-.665-1.415-.665-1.069.222-1.415.665-.519,1.05-.519,1.819c0,.766.173,1.371.519,1.816s.817.668,1.415.668Z" fill="#c9d1d9"/>
        </g>
        <g isolation="isolate">
          <path d="m195.162,225.815c-.941,0-1.635-.132-2.08-.396s-.668-.671-.668-1.222c0-.312.08-.592.24-.838s.438-.436.832-.568c-.148-.09-.27-.209-.363-.357s-.141-.314-.141-.498c0-.219.068-.415.205-.589s.332-.298.586-.372c-.312-.184-.556-.433-.729-.747s-.261-.681-.261-1.099c0-.453.101-.845.302-1.175s.488-.585.861-.765.817-.27,1.333-.27.962.09,1.339.27.668.436.873.768.308.727.308,1.184c0,.449-.103.837-.308,1.163s-.497.578-.876.756-.83.267-1.354.267h-.545c-.492,0-.738.146-.738.439,0,.277.238.416.715.416h1.266c.5,0,.903.058,1.21.173s.541.264.703.445.272.378.331.589.088.412.088.604c0,.621-.225,1.08-.674,1.377s-1.146.445-2.092.445h-.363Zm0-.785h.363c1.164,0,1.746-.348,1.746-1.043,0-.289-.104-.525-.313-.709s-.565-.275-1.069-.275h-1.09c-.391,0-.717.079-.979.237s-.393.417-.393.776c0,.344.142.599.425.765s.72.249,1.31.249Zm.117-4.395c.496,0,.877-.128,1.143-.384s.398-.626.398-1.11c0-.48-.133-.854-.398-1.119s-.646-.398-1.143-.398c-.492,0-.869.132-1.131.396s-.393.638-.393,1.122.131.854.393,1.11.639.384,1.131.384Zm1.043-3.053v-.627c0-.254.094-.464.281-.63s.406-.249.656-.249h.762v.82h-.627c-.121,0-.2.021-.237.064s-.056.129-.056.258v.363h-.779Z" fill="#c9d1d9"/>
        </g>
        <g isolation="isolate">
          <path d="m201.128,223.53c-.422,0-.788-.081-1.099-.243s-.55-.384-.718-.665-.252-.6-.252-.955c0-.379.111-.729.334-1.049s.567-.577,1.034-.771,1.065-.29,1.796-.29h1.055l-.105.105v-.346c0-.508-.102-.897-.305-1.169s-.543-.407-1.02-.407c-.449,0-.795.116-1.037.349s-.371.544-.387.935l-1.107-.252c.035-.34.165-.649.39-.929s.525-.503.902-.671.813-.252,1.31-.252c.512,0,.929.097,1.251.29s.56.472.712.835.229.801.229,1.312v2.889c0,.129.019.215.056.258s.116.064.237.064h.357v.82h-.627c-.266,0-.488-.083-.668-.249s-.27-.376-.27-.63v-.445h.146c-.062.164-.152.331-.27.501s-.266.328-.445.475-.394.265-.642.354-.534.135-.858.135Zm.223-.82c.324,0,.625-.08.902-.24s.501-.411.671-.753.255-.786.255-1.333v-.053h-.99c-.52,0-.929.068-1.228.205s-.511.306-.636.507-.188.401-.188.601.045.379.135.539.225.288.404.384.404.144.674.144Z" fill="#c9d1d9"/>
        </g>
        <g isolation="isolate">
          <path d="m206.115,223.39v-6.328h.926v1.342l-.035-.152c.188-.438.47-.769.847-.993s.759-.337,1.146-.337c.113,0,.224.01.331.029s.208.053.302.1l-.129.926c-.215-.066-.428-.1-.639-.1-.133,0-.298.026-.495.079s-.393.158-.586.316-.355.394-.486.706-.196.729-.196,1.248v3.164h-.984Z" fill="#c9d1d9"/>
        </g>
        <g isolation="isolate">
          <path d="m211.313,216.001c-.227,0-.42-.08-.58-.24s-.24-.354-.24-.58c0-.23.08-.425.24-.583s.354-.237.58-.237c.23,0,.425.079.583.237s.237.353.237.583c0,.227-.079.42-.237.58s-.353.24-.583.24Zm-.492,7.389v-6.328h.984v6.328h-.984Z" fill="#c9d1d9"/>
        </g>
        <g isolation="isolate">
          <path d="m215.119,223.39c-.25,0-.469-.083-.656-.249s-.281-.376-.281-.63v-4.629h-1.02v-.82h1.02v-1.324l.984-.211v1.535h1.254v.82h-1.254v4.365c0,.129.019.215.056.258s.116.064.237.064h.967v.82h-1.307Z" fill="#c9d1d9"/>
        </g>
        <g isolation="isolate">
          <path d="m217.851,223.39v-8.789h.984v3.949l-.1-.258c.164-.395.429-.722.794-.981s.812-.39,1.339-.39c.445,0,.829.1,1.151.299s.571.483.747.853.264.813.264,1.333v3.984h-.984v-3.908c0-.535-.101-.959-.302-1.271s-.558-.469-1.069-.469c-.547,0-.99.194-1.33.583s-.51.974-.51,1.755v3.311h-.984Z" fill="#c9d1d9"/>
        </g>
        <g isolation="isolate">
          <path d="m224.825,223.39v-6.328h.926v1.084c.148-.328.395-.614.738-.858s.752-.366,1.225-.366c.418,0,.782.114,1.093.343s.542.552.694.97c.199-.387.472-.702.817-.946s.749-.366,1.21-.366c.605,0,1.085.22,1.438.659s.53,1.048.53,1.825v3.984h-.984v-3.908c0-.359-.037-.669-.111-.929s-.196-.46-.366-.601-.401-.211-.694-.211c-.32,0-.608.091-.864.272s-.457.446-.604.794-.22.771-.22,1.271v3.311h-.984v-3.908c0-.359-.037-.669-.111-.929s-.195-.46-.363-.601-.396-.211-.686-.211c-.32,0-.609.09-.867.27s-.461.443-.609.791-.223.773-.223,1.277v3.311h-.984Z" fill="#c9d1d9"/>
        </g>
        <g isolation="isolate">
          <path d="m235.793,216.001c-.227,0-.42-.08-.58-.24s-.24-.354-.24-.58c0-.23.08-.425.24-.583s.354-.237.58-.237c.23,0,.425.079.583.237s.237.353.237.583c0,.227-.079.42-.237.58s-.353.24-.583.24Zm-.492,7.389v-6.328h.984v6.328h-.984Z" fill="#c9d1d9"/>
        </g>
        <g isolation="isolate">
          <path d="m240.69,223.53c-.594,0-1.107-.135-1.541-.404s-.768-.651-1.002-1.146-.352-1.079-.352-1.755.117-1.261.352-1.755.568-.876,1.002-1.146.947-.404,1.541-.404c.453,0,.858.083,1.216.249s.66.404.908.715.431.685.548,1.122l-1.002.264c-.109-.492-.306-.87-.589-1.134s-.644-.396-1.081-.396c-.582,0-1.03.216-1.345.647s-.472,1.044-.472,1.837.157,1.41.472,1.84.763.645,1.345.645c.434,0,.791-.128,1.072-.384s.479-.626.592-1.11l.996.281c-.094.32-.223.605-.387.855s-.358.463-.583.639-.479.31-.762.401-.593.138-.929.138Z" fill="#c9d1d9"/>
        </g>
        <g isolation="isolate">
          <path d="m247.204,217.882v-.82h3.346v.82h-3.346Zm.943,5.508v-7.477c0-.473.111-.81.334-1.011s.596-.302,1.119-.302h.791v.82h-.932c-.117,0-.201.025-.252.076s-.076.135-.076.252v7.641h-.984Z" fill="#c9d1d9"/>
        </g>
        <g isolation="isolate">
          <path d="m253.87,223.53c-.441,0-.824-.1-1.148-.299s-.574-.484-.75-.855-.264-.814-.264-1.33v-3.984h.984v3.908c0,.516.098.935.293,1.257s.547.483,1.055.483c.379,0,.707-.098.984-.293s.493-.488.647-.879.231-.879.231-1.465v-3.012h.984v6.328h-.926v-1.488l.041.258c-.164.391-.429.717-.794.979s-.812.393-1.339.393Z" fill="#c9d1d9"/>
          <path d="m258.798,223.39v-6.328h.926v1.43l-.041-.258c.168-.363.434-.673.797-.929s.805-.384,1.324-.384c.449,0,.836.1,1.16.299s.574.483.75.853.264.813.264,1.333v3.984h-.984v-3.908c0-.52-.106-.939-.319-1.26s-.563-.48-1.052-.48c-.527,0-.966.2-1.315.601s-.524.979-.524,1.737v3.311h-.984Z" fill="#c9d1d9"/>
        </g>
        <g isolation="isolate">
          <path d="m268.301,223.53c-.594,0-1.107-.135-1.541-.404s-.768-.651-1.002-1.146-.352-1.079-.352-1.755.117-1.261.352-1.755.568-.876,1.002-1.146.947-.404,1.541-.404c.453,0,.858.083,1.216.249s.66.404.908.715.431.685.548,1.122l-1.002.264c-.109-.492-.306-.87-.589-1.134s-.644-.396-1.081-.396c-.582,0-1.03.216-1.345.647s-.472,1.044-.472,1.837.157,1.41.472,1.84.763.645,1.345.645c.434,0,.791-.128,1.072-.384s.479-.626.592-1.11l.996.281c-.094.32-.223.605-.387.855s-.358.463-.583.639-.479.31-.762.401-.593.138-.929.138Z" fill="#c9d1d9"/>
        </g>
        <g isolation="isolate">
          <path d="m273.629,223.39c-.25,0-.469-.083-.656-.249s-.281-.376-.281-.63v-4.629h-1.02v-.82h1.02v-1.324l.984-.211v1.535h1.254v.82h-1.254v4.365c0,.129.019.215.056.258s.116.064.237.064h.967v.82h-1.307Z" fill="#c9d1d9"/>
        </g>
        <g isolation="isolate">
          <path d="m276.854,216.001c-.227,0-.42-.08-.58-.24s-.24-.354-.24-.58c0-.23.08-.425.24-.583s.354-.237.58-.237c.23,0,.425.079.583.237s.237.353.237.583c0,.227-.079.42-.237.58s-.353.24-.583.24Zm-.492,7.389v-6.328h.984v6.328h-.984Z" fill="#c9d1d9"/>
        </g>
        <g isolation="isolate">
          <path d="m281.83,223.53c-.594,0-1.117-.14-1.57-.419s-.807-.667-1.061-1.163-.381-1.07-.381-1.723.127-1.227.381-1.723.607-.884,1.061-1.163.977-.419,1.57-.419,1.117.14,1.57.419.807.667,1.061,1.163.381,1.07.381,1.723-.127,1.227-.381,1.723-.607.884-1.061,1.163-.977.419-1.57.419Zm0-.82c.598,0,1.069-.223,1.415-.668s.519-1.051.519-1.816c0-.77-.173-1.376-.519-1.819s-.817-.665-1.415-.665-1.069.222-1.415.665-.519,1.05-.519,1.819c0,.766.173,1.371.519,1.816s.817.668,1.415.668Z" fill="#c9d1d9"/>
        </g>
        <g isolation="isolate">
          <path d="m286.305,223.39v-6.328h.926v1.43l-.041-.258c.168-.363.434-.673.797-.929s.805-.384,1.324-.384c.449,0,.836.1,1.16.299s.574.483.75.853.264.813.264,1.333v3.984h-.984v-3.908c0-.52-.106-.939-.319-1.26s-.563-.48-1.052-.48c-.527,0-.966.2-1.315.601s-.524.979-.524,1.737v3.311h-.984Z" fill="#c9d1d9"/>
        </g>
      </g>
      <g isolation="isolate">
        <g isolation="isolate">
          <path d="m31.968,196.721c-.977,0-1.734-.382-2.273-1.146s-.809-1.835-.809-3.214.27-2.45.809-3.214,1.297-1.146,2.273-1.146,1.739.382,2.276,1.146.806,1.835.806,3.214-.269,2.45-.806,3.214-1.296,1.146-2.276,1.146Zm0-.844c.648,0,1.139-.299,1.471-.896s.498-1.471.498-2.619-.166-2.021-.498-2.619-.822-.896-1.471-.896-1.139.299-1.471.896-.498,1.471-.498,2.619.166,2.021.498,2.619.822.896,1.471.896Z" fill="#c9d1d9"/>
        </g>
      </g>
      <g isolation="isolate">
        <g isolation="isolate">
          <path d="m72.757,196.58v-6.721c-.309.266-.598.489-.867.671s-.57.335-.902.46v-.996c.172-.082.354-.185.545-.308s.409-.305.653-.545.526-.573.847-.999h.756v8.438h-1.031Z" fill="#c9d1d9"/>
        </g>
      </g>
      <g isolation="isolate">
        <g isolation="isolate">
          <path d="m110.39,196.58v-.691l2.965-2.514c.402-.344.731-.656.987-.938s.444-.566.565-.855.182-.611.182-.967c0-.387-.067-.712-.202-.976s-.329-.462-.583-.595-.564-.199-.932-.199c-.422,0-.763.083-1.022.249s-.453.39-.58.671-.202.598-.226.949l-1.125-.346c.023-.375.159-.744.407-1.107s.589-.664,1.022-.902.939-.357,1.518-.357c.328,0,.658.047.99.141s.638.243.917.448.504.473.674.803.255.729.255,1.198c0,.668-.182,1.265-.545,1.79s-.871,1.052-1.523,1.579l-2.291,1.857-.744-.141h5.268v.902h-5.977Z" fill="#c9d1d9"/>
        </g>
      </g>
      <g isolation="isolate">
        <g isolation="isolate">
          <path d="m154.165,196.721c-.523,0-1.007-.102-1.45-.305s-.808-.499-1.093-.888-.453-.864-.504-1.427l1.066-.334c.043.629.234,1.138.574,1.526s.803.583,1.389.583c.527,0,.966-.153,1.315-.46s.524-.749.524-1.327c0-.227-.048-.468-.144-.724s-.267-.474-.513-.653-.596-.27-1.049-.27h-1.16v-.891h1.066c.496,0,.876-.132,1.14-.396s.396-.562.396-.894c0-.391-.137-.725-.41-1.002s-.66-.416-1.16-.416c-.617,0-1.069.176-1.356.527s-.452.84-.495,1.465l-1.066-.334c.023-.402.158-.795.404-1.178s.586-.699,1.02-.949.943-.375,1.529-.375c.48,0,.917.094,1.31.281s.704.444.935.771.346.702.346,1.128c0,.281-.059.54-.176.776s-.293.438-.527.606-.531.293-.891.375c.594.105,1.062.356,1.403.753s.513.854.513,1.374c0,.469-.083.871-.249,1.207s-.39.61-.671.823-.596.37-.943.472-.705.152-1.072.152Z" fill="#c9d1d9"/>
        </g>
      </g>
      <g isolation="isolate">
        <g isolation="isolate">
          <path d="m196.012,196.58v-2.789h.012v-4.992l.258.562-3.738,4.441-.352-.305h5.836v.902h-6.305v-1.008l4.447-5.25h.873v8.438h-1.031Z" fill="#c9d1d9"/>
        </g>
      </g>
      <g isolation="isolate">
        <g isolation="isolate">
          <path d="m235.638,196.721c-.488,0-.955-.101-1.4-.302s-.817-.496-1.116-.885-.474-.864-.524-1.427l1.066-.334c.043.594.224,1.093.542,1.497s.784.606,1.397.606c.379,0,.712-.091.999-.272s.513-.433.677-.753.246-.688.246-1.102c0-.629-.181-1.111-.542-1.447s-.81-.504-1.345-.504c-.473,0-.843.118-1.11.354s-.464.501-.589.794l-1.02-.105.34-4.699h4.828v.902h-3.955l-.223,3.188-.287-.023c.211-.359.504-.662.879-.908s.832-.369,1.371-.369c.516,0,.979.117,1.389.352s.734.561.973.979.357.902.357,1.453c0,.609-.137,1.14-.41,1.591s-.635.8-1.084,1.046-.936.369-1.459.369Z" fill="#c9d1d9"/>
        </g>
      </g>
      <g isolation="isolate">
        <g isolation="isolate">
          <path d="m276.453,196.721c-1.023,0-1.8-.375-2.329-1.125s-.794-1.771-.794-3.064c0-.633.064-1.224.193-1.772s.325-1.029.589-1.441.595-.734.993-.967.867-.349,1.406-.349c.555,0,1.036.114,1.444.343s.729.515.964.858.371.693.41,1.049l-1.072.275c-.023-.504-.187-.91-.489-1.219s-.716-.463-1.239-.463c-.395,0-.723.086-.984.258s-.472.398-.63.68-.277.589-.357.923-.133.665-.158.993-.038.623-.038.885l-.094-.094c.164-.383.437-.723.817-1.02s.878-.445,1.491-.445c.492,0,.946.11,1.362.331s.749.543.999.967.375.94.375,1.55c0,.578-.119,1.081-.357,1.509s-.572.758-1.002.99-.93.349-1.5.349Zm0-.844c.574,0,1.019-.181,1.333-.542s.472-.854.472-1.479c0-.629-.156-1.117-.469-1.465s-.746-.521-1.301-.521c-.57,0-1.03.181-1.38.542s-.524.854-.524,1.479c0,.609.169,1.093.507,1.45s.792.536,1.362.536Z" fill="#c9d1d9"/>
        </g>
      </g>
      <g isolation="isolate">
        <g isolation="isolate">
          <path d="m315.325,196.58c.309-1.453.758-2.788,1.348-4.005s1.32-2.394,2.191-3.53h-4.688v-.902h5.73v.791c-.398.598-.774,1.197-1.128,1.799s-.676,1.214-.967,1.837-.542,1.267-.753,1.931-.375,1.357-.492,2.08h-1.242Z" fill="#c9d1d9"/>
        </g>
      </g>
      <g isolation="isolate">
        <g isolation="isolate">
          <path d="m357.759,196.721c-.578,0-1.091-.106-1.538-.319s-.797-.511-1.049-.894-.378-.824-.378-1.324c0-.535.16-1.015.48-1.438s.789-.692,1.406-.806c-.324-.078-.607-.201-.85-.369s-.429-.374-.56-.618-.196-.517-.196-.817c0-.41.114-.776.343-1.099s.545-.575.949-.759.87-.275,1.397-.275c.531,0,.997.092,1.397.275s.714.437.94.759.34.688.34,1.099c0,.301-.065.573-.196.817s-.315.45-.554.618-.52.291-.844.369c.617.113,1.086.382,1.406.806s.48.903.48,1.438c0,.5-.127.941-.381,1.324s-.604.681-1.052.894-.962.319-1.544.319Zm.006-.926c.582,0,1.041-.15,1.377-.451s.504-.713.504-1.236c0-.512-.168-.921-.504-1.228s-.795-.46-1.377-.46c-.578,0-1.038.153-1.38.46s-.513.716-.513,1.228c0,.527.171.94.513,1.239s.802.448,1.38.448Zm0-4.242c.504,0,.9-.115,1.189-.346s.434-.551.434-.961c0-.426-.145-.765-.434-1.017s-.686-.378-1.189-.378-.902.126-1.195.378-.439.591-.439,1.017c0,.41.146.73.439.961s.691.346,1.195.346Z" fill="#c9d1d9"/>
        </g>
      </g>
      <g isolation="isolate">
        <g isolation="isolate">
          <path d="m398.375,196.721c-.574,0-1.065-.114-1.474-.343s-.727-.515-.955-.858-.362-.691-.401-1.043l1.072-.281c.023.512.178.92.463,1.225s.719.457,1.301.457c.383,0,.699-.086.949-.258s.448-.398.595-.68.255-.589.325-.923.117-.665.141-.993.037-.623.041-.885l.094.164c-.164.379-.437.718-.817,1.017s-.874.448-1.479.448c-.496,0-.952-.114-1.368-.343s-.75-.558-1.002-.987-.378-.947-.378-1.553c0-.59.124-1.101.372-1.532s.593-.765,1.034-.999.949-.352,1.523-.352,1.057.112,1.447.337.704.535.94.932.406.853.51,1.368.155,1.064.155,1.646-.056,1.139-.167,1.67-.289,1.005-.533,1.421-.562.744-.955.984-.87.36-1.433.36Zm-.018-3.797c.57,0,1.029-.188,1.377-.562s.521-.887.521-1.535c0-.613-.163-1.097-.489-1.45s-.774-.53-1.345-.53c-.578,0-1.029.183-1.354.548s-.486.866-.486,1.503c0,.625.157,1.119.472,1.482s.749.545,1.304.545Z" fill="#c9d1d9"/>
        </g>
      </g>
      <g isolation="isolate">
        <g isolation="isolate">
          <path d="m435.617,196.58v-6.721c-.309.266-.598.489-.867.671s-.57.335-.902.46v-.996c.172-.082.354-.185.545-.308s.409-.305.653-.545.526-.573.847-.999h.756v8.438h-1.031Z" fill="#c9d1d9"/>
          <path d="m441.277,196.721c-.977,0-1.734-.382-2.273-1.146s-.809-1.835-.809-3.214.27-2.45.809-3.214,1.297-1.146,2.273-1.146,1.739.382,2.276,1.146.806,1.835.806,3.214-.269,2.45-.806,3.214-1.296,1.146-2.276,1.146Zm0-.844c.648,0,1.139-.299,1.471-.896s.498-1.471.498-2.619-.166-2.021-.498-2.619-.822-.896-1.471-.896-1.139.299-1.471.896-.498,1.471-.498,2.619.166,2.021.498,2.619.822.896,1.471.896Z" fill="#c9d1d9"/>
        </g>
      </g>
    </g>
    <g id="Graph">
      <path d="m36.04,395.19l1.01-3.25,1.01-2.66,1.01-2.25,1.01-1.95,2.02-3.26,2.02-2.67,2.02-2.26,2.02-1.96,2.02-1.73,2.02-1.54,3.03-2.05,3.03-1.8,3.03-1.6,4.04-1.89,4.04-1.68,4.04-1.51,5.05-1.69,5.05-1.51,6.06-1.63,6.06-1.47,7.07-1.55,8.08-1.59,8.08-1.43,9.09-1.46,10.1-1.47,11.12-1.46,12.13-1.44,14.15-1.52,15.16-1.47,17.18-1.51,19.2-1.52,21.22-1.52,23.24-1.5,25.26-1.47,28.29-1.49,31.32-1.49,34.36-1.48,38.4-1.49,10.1-.37h0" fill="none" stroke="#d85648" stroke-linecap="square" stroke-linejoin="round" stroke-width="2.5"/>
      <path d="m36.01,176.52L439.21,19.86h0" fill="none" stroke="#307eef" stroke-linecap="square" stroke-linejoin="round" stroke-width="2.5"/>
      <g id="line2d_46" data-name="line2d 46">
        <path d="m26.6,22.88h23.87" fill="none" stroke="#307eef" stroke-linecap="square" stroke-linejoin="round" stroke-width="2.5"/>
      </g>
      <g id="line2d_36-2" data-name="line2d 36-2">
        <path d="m340.16,237.09h24" fill="none" stroke="#d85648" stroke-linecap="square" stroke-linejoin="round" stroke-width="2.5"/>
      </g>
    </g>
  </g>
</svg>