<?xml version="1.0" encoding="UTF-8"?>
<svg id="uuid-e0b9885e-15a0-47bc-a76e-d2da820c5ccd" xmlns="http://www.w3.org/2000/svg" width="1846.8" height="331.2" viewBox="0 0 1846.8 331.2">
  <line x1="284.4" y1="118.8" x2="284.4" y2="172.8" fill="none" stroke="#c9d1d9" stroke-miterlimit="10" stroke-width="2.45"/>
  <line x1="441.9" y1="118.8" x2="441.9" y2="172.8" fill="none" stroke="#c9d1d9" stroke-miterlimit="10" stroke-width="2.45"/>
  <line x1="554.4" y1="118.8" x2="554.4" y2="172.8" fill="none" stroke="#c9d1d9" stroke-miterlimit="10" stroke-width="2.45"/>
  <line x1="639.9" y1="118.8" x2="639.9" y2="172.8" fill="none" stroke="#c9d1d9" stroke-miterlimit="10" stroke-width="2.45"/>
  <line x1="711.9" y1="118.8" x2="711.9" y2="172.8" fill="none" stroke="#c9d1d9" stroke-miterlimit="10" stroke-width="2.45"/>
  <line x1="774.9" y1="118.8" x2="774.9" y2="172.8" fill="none" stroke="#c9d1d9" stroke-miterlimit="10" stroke-width="2.45"/>
  <line x1="824.4" y1="118.8" x2="824.4" y2="172.8" fill="none" stroke="#c9d1d9" stroke-miterlimit="10" stroke-width="2.45"/>
  <line x1="869.4" y1="118.8" x2="869.4" y2="172.8" fill="none" stroke="#c9d1d9" stroke-miterlimit="10" stroke-width="2.45"/>
  <line x1="1184.4" y1="118.8" x2="1184.4" y2="172.8" fill="none" stroke="#c9d1d9" stroke-miterlimit="10" stroke-width="2.45"/>
  <line x1="1341.9" y1="118.8" x2="1341.9" y2="172.8" fill="none" stroke="#c9d1d9" stroke-miterlimit="10" stroke-width="2.45"/>
  <line x1="1454.4" y1="118.8" x2="1454.4" y2="172.8" fill="none" stroke="#c9d1d9" stroke-miterlimit="10" stroke-width="2.45"/>
  <line x1="1539.9" y1="118.8" x2="1539.9" y2="172.8" fill="none" stroke="#c9d1d9" stroke-miterlimit="10" stroke-width="2.45"/>
  <line x1="1611.9" y1="118.8" x2="1611.9" y2="172.8" fill="none" stroke="#c9d1d9" stroke-miterlimit="10" stroke-width="2.45"/>
  <line x1="1674.9" y1="118.8" x2="1674.9" y2="172.8" fill="none" stroke="#c9d1d9" stroke-miterlimit="10" stroke-width="2.45"/>
  <line x1="1724.4" y1="118.8" x2="1724.4" y2="172.8" fill="none" stroke="#c9d1d9" stroke-miterlimit="10" stroke-width="2.45"/>
  <line x1="1769.4" y1="118.8" x2="1769.4" y2="172.8" fill="none" stroke="#c9d1d9" stroke-miterlimit="10" stroke-width="2.45"/>
  <line x1="14.4" y1="118.8" x2="14.4" y2="226.8" fill="none" stroke="#c9d1d9" stroke-miterlimit="10" stroke-width="8.5"/>
  <line x1="914.4" y1="118.8" x2="914.4" y2="226.8" fill="none" stroke="#c9d1d9" stroke-miterlimit="10" stroke-width="8.5"/>
  <line x1="1814.4" y1="118.8" x2="1814.4" y2="226.8" fill="none" stroke="#c9d1d9" stroke-miterlimit="10" stroke-width="8.5"/>
  <line x1="14.4" y1="226.8" x2="14.4" y2="118.8" fill="none" stroke="#c9d1d9" stroke-miterlimit="10" stroke-width="8.5"/>
  <line x1="194.4" y1="172.8" x2="194.4" y2="226.8" fill="none" stroke="#c9d1d9" stroke-miterlimit="10" stroke-width="2.45"/>
  <line x1="374.4" y1="172.8" x2="374.4" y2="226.8" fill="none" stroke="#c9d1d9" stroke-miterlimit="10" stroke-width="2.45"/>
  <line x1="554.4" y1="226.8" x2="554.4" y2="172.8" fill="none" stroke="#c9d1d9" stroke-miterlimit="10" stroke-width="2.45"/>
  <line x1="734.4" y1="172.8" x2="734.4" y2="226.8" fill="none" stroke="#c9d1d9" stroke-miterlimit="10" stroke-width="2.45"/>
  <line x1="914.4" y1="118.8" x2="914.4" y2="226.8" fill="none" stroke="#c9d1d9" stroke-miterlimit="10" stroke-width="8.5"/>
  <line x1="1094.4" y1="226.8" x2="1094.4" y2="172.8" fill="none" stroke="#c9d1d9" stroke-miterlimit="10" stroke-width="2.45"/>
  <line x1="1274.4" y1="172.8" x2="1274.4" y2="226.8" fill="none" stroke="#c9d1d9" stroke-miterlimit="10" stroke-width="2.45"/>
  <line x1="1454.4" y1="172.8" x2="1454.4" y2="226.8" fill="none" stroke="#c9d1d9" stroke-miterlimit="10" stroke-width="2.45"/>
  <line x1="1634.4" y1="226.8" x2="1634.4" y2="172.8" fill="none" stroke="#c9d1d9" stroke-miterlimit="10" stroke-width="2.45"/>
  <line x1="1814.4" y1="118.8" x2="1814.4" y2="226.8" fill="none" stroke="#c9d1d9" stroke-miterlimit="10" stroke-width="8.5"/>
  <g isolation="isolate">
    <g isolation="isolate">
      <path d="m22.466,273.484c0,3.809-.65,6.639-1.951,8.49s-3.334,2.777-6.1,2.777c-2.73,0-4.752-.905-6.064-2.716s-1.992-4.515-2.039-8.112v-4.342c0-3.762.65-6.557,1.951-8.385s3.34-2.742,6.117-2.742c2.754,0,4.781.882,6.082,2.646s1.969,4.485,2.004,8.165v4.219Zm-3.252-4.447c0-2.754-.387-4.761-1.16-6.021s-1.998-1.89-3.674-1.89c-1.664,0-2.877.627-3.639,1.881s-1.154,3.182-1.178,5.783v5.203c0,2.766.401,4.808,1.204,6.126s2.019,1.978,3.647,1.978c1.605,0,2.798-.621,3.577-1.863s1.187-3.199,1.222-5.871v-5.326Z" fill="#c9d1d9"/>
    </g>
  </g>
  <g isolation="isolate">
    <g isolation="isolate">
      <path d="m1823.187,284.4h-16.77v-2.338l8.859-9.844c1.312-1.488,2.218-2.698,2.716-3.63s.747-1.896.747-2.892c0-1.336-.404-2.432-1.213-3.287s-1.887-1.283-3.234-1.283c-1.617,0-2.874.46-3.771,1.38s-1.345,2.2-1.345,3.841h-3.252c0-2.355.759-4.26,2.276-5.713s3.548-2.18,6.091-2.18c2.379,0,4.26.624,5.643,1.872s2.074,2.909,2.074,4.983c0,2.52-1.605,5.52-4.816,9l-6.855,7.436h12.85v2.654Z" fill="#c9d1d9"/>
    </g>
  </g>
  <g isolation="isolate">
    <g isolation="isolate">
      <path d="m917.104,284.4h-3.27v-21.674l-6.557,2.408v-2.953l9.316-3.498h.51v25.717Z" fill="#c9d1d9"/>
    </g>
  </g>
  <g isolation="isolate">
    <g isolation="isolate">
      <path d="m907.004,90h-3.27v-21.674l-6.557,2.408v-2.953l9.316-3.498h.51v25.717Z" fill="#c9d1d9"/>
      <path d="m932.581,79.084c0,3.809-.65,6.639-1.951,8.49s-3.334,2.777-6.1,2.777c-2.731,0-4.752-.905-6.065-2.716s-1.992-4.515-2.039-8.112v-4.342c0-3.762.65-6.557,1.951-8.385s3.34-2.742,6.118-2.742c2.754,0,4.781.882,6.082,2.646s1.969,4.485,2.004,8.165v4.219Zm-3.252-4.447c0-2.754-.387-4.761-1.16-6.021s-1.998-1.89-3.674-1.89c-1.665,0-2.877.627-3.639,1.881s-1.154,3.182-1.178,5.783v5.203c0,2.766.401,4.808,1.204,6.126s2.019,1.978,3.648,1.978c1.605,0,2.798-.621,3.577-1.863s1.187-3.199,1.222-5.871v-5.326Z" fill="#c9d1d9"/>
    </g>
  </g>
  <g isolation="isolate">
    <g isolation="isolate">
      <path d="m872.387,82.5c-.453.539-.994.973-1.623,1.301s-1.318.492-2.068.492c-.984,0-1.842-.242-2.572-.727s-1.295-1.166-1.693-2.045-.598-1.85-.598-2.912c0-1.141.217-2.168.65-3.082s1.049-1.613,1.846-2.098,1.727-.727,2.789-.727c1.688,0,3.018.631,3.99,1.893s1.459,2.982,1.459,5.162v.633c0,3.32-.656,5.744-1.969,7.271s-3.293,2.311-5.941,2.35h-.422v-1.84h.457c1.789-.031,3.164-.497,4.125-1.397s1.484-2.325,1.57-4.274Zm-3.34,0c.727,0,1.396-.223,2.01-.668s1.061-.996,1.342-1.652v-.867c0-1.422-.309-2.578-.926-3.469s-1.398-1.336-2.344-1.336c-.953,0-1.719.365-2.297,1.096s-.867,1.693-.867,2.889c0,1.164.279,2.123.838,2.877s1.307,1.131,2.244,1.131Z" fill="#c9d1d9"/>
    </g>
  </g>
  <g isolation="isolate">
    <g isolation="isolate">
      <path d="m829.426,77.391c0,.852-.225,1.609-.674,2.273s-1.057,1.184-1.822,1.559c.891.383,1.596.941,2.115,1.676s.779,1.566.779,2.496c0,1.477-.498,2.652-1.494,3.527s-2.307,1.312-3.932,1.312c-1.641,0-2.955-.439-3.943-1.318s-1.482-2.053-1.482-3.521c0-.922.252-1.754.756-2.496s1.201-1.305,2.092-1.688c-.758-.375-1.355-.895-1.793-1.559s-.656-1.418-.656-2.262c0-1.438.461-2.578,1.383-3.422s2.137-1.266,3.645-1.266c1.5,0,2.713.422,3.639,1.266s1.389,1.984,1.389,3.422Zm-1.77,7.957c0-.953-.303-1.73-.908-2.332s-1.396-.902-2.373-.902-1.76.297-2.35.891-.885,1.375-.885,2.344.287,1.73.861,2.285,1.373.832,2.396.832c1.016,0,1.812-.279,2.391-.838s.867-1.318.867-2.279Zm-3.258-10.863c-.852,0-1.541.264-2.068.791s-.791,1.244-.791,2.15c0,.867.26,1.568.779,2.104s1.213.803,2.08.803,1.561-.268,2.08-.803.779-1.236.779-2.104-.27-1.574-.809-2.121-1.223-.82-2.051-.82Z" fill="#c9d1d9"/>
    </g>
  </g>
  <g isolation="isolate">
    <g isolation="isolate">
      <path d="m780.594,74.156l-7.066,15.844h-2.273l7.043-15.281h-9.234v-1.781h11.531v1.219Z" fill="#c9d1d9"/>
    </g>
  </g>
  <g isolation="isolate">
    <g isolation="isolate">
      <path d="m715.086,72.926v1.84h-.398c-1.688.031-3.031.531-4.031,1.5s-1.578,2.332-1.734,4.09c.898-1.031,2.125-1.547,3.68-1.547,1.484,0,2.67.523,3.557,1.57s1.33,2.398,1.33,4.055c0,1.758-.479,3.164-1.436,4.219s-2.24,1.582-3.85,1.582c-1.633,0-2.957-.627-3.973-1.881s-1.523-2.869-1.523-4.846v-.832c0-3.141.67-5.541,2.01-7.201s3.334-2.51,5.982-2.549h.387Zm-2.848,7.688c-.742,0-1.426.223-2.051.668s-1.059,1.004-1.301,1.676v.797c0,1.406.316,2.539.949,3.398s1.422,1.289,2.367,1.289c.977,0,1.744-.359,2.303-1.078s.838-1.66.838-2.824c0-1.172-.283-2.119-.85-2.842s-1.318-1.084-2.256-1.084Z" fill="#c9d1d9"/>
    </g>
  </g>
  <g isolation="isolate">
    <g isolation="isolate">
      <path d="m635.574,81.445l.867-8.508h8.742v2.004h-6.902l-.516,4.652c.836-.492,1.785-.738,2.848-.738,1.555,0,2.789.514,3.703,1.541s1.371,2.416,1.371,4.166-.475,3.143-1.424,4.154-2.275,1.518-3.979,1.518c-1.508,0-2.738-.418-3.691-1.254s-1.496-1.992-1.629-3.469h2.051c.133.977.48,1.713,1.043,2.209s1.305.744,2.227.744c1.008,0,1.799-.344,2.373-1.031s.861-1.637.861-2.848c0-1.141-.311-2.057-.932-2.748s-1.447-1.037-2.479-1.037c-.945,0-1.688.207-2.227.621l-.574.469-1.734-.445Z" fill="#c9d1d9"/>
    </g>
  </g>
  <g isolation="isolate">
    <g isolation="isolate">
      <path d="m558.23,84.27h2.367v1.77h-2.367v3.961h-2.18v-3.961h-7.77v-1.277l7.641-11.824h2.309v11.332Zm-7.488,0h5.309v-8.367l-.258.469-5.051,7.898Z" fill="#c9d1d9"/>
    </g>
  </g>
  <g isolation="isolate">
    <g isolation="isolate">
      <path d="m439.73,80.414h1.629c1.023-.016,1.828-.285,2.414-.809s.879-1.23.879-2.121c0-2-.996-3-2.988-3-.938,0-1.686.268-2.244.803s-.838,1.244-.838,2.127h-2.168c0-1.352.494-2.475,1.482-3.369s2.244-1.342,3.768-1.342c1.609,0,2.871.426,3.785,1.277s1.371,2.035,1.371,3.551c0,.742-.24,1.461-.721,2.156s-1.135,1.215-1.963,1.559c.938.297,1.662.789,2.174,1.477s.768,1.527.768,2.52c0,1.531-.5,2.746-1.5,3.645s-2.301,1.348-3.902,1.348-2.904-.434-3.908-1.301-1.506-2.012-1.506-3.434h2.18c0,.898.293,1.617.879,2.156s1.371.809,2.355.809c1.047,0,1.848-.273,2.402-.82s.832-1.332.832-2.355c0-.992-.305-1.754-.914-2.285s-1.488-.805-2.637-.82h-1.629v-1.77Z" fill="#c9d1d9"/>
    </g>
  </g>
  <g isolation="isolate">
    <g isolation="isolate">
      <path d="m290.258,90h-11.18v-1.559l5.906-6.562c.875-.992,1.479-1.799,1.811-2.42s.498-1.264.498-1.928c0-.891-.27-1.621-.809-2.191s-1.258-.855-2.156-.855c-1.078,0-1.916.307-2.514.92s-.896,1.467-.896,2.561h-2.168c0-1.57.506-2.84,1.518-3.809s2.365-1.453,4.061-1.453c1.586,0,2.84.416,3.762,1.248s1.383,1.939,1.383,3.322c0,1.68-1.07,3.68-3.211,6l-4.57,4.957h8.566v1.77Z" fill="#c9d1d9"/>
    </g>
  </g>
  <g isolation="isolate">
    <g isolation="isolate">
      <path d="m17.104,90h-3.27v-21.674l-6.557,2.408v-2.953l9.316-3.498h.51v25.717Z" fill="#c9d1d9"/>
    </g>
  </g>
  <g isolation="isolate">
    <g isolation="isolate">
      <path d="m1183.518,90h-11.18v-1.559l5.906-6.562c.875-.992,1.479-1.799,1.811-2.42s.498-1.264.498-1.928c0-.891-.27-1.621-.809-2.191s-1.258-.855-2.156-.855c-1.078,0-1.916.307-2.514.92s-.896,1.467-.896,2.561h-2.168c0-1.57.506-2.84,1.518-3.809s2.365-1.453,4.061-1.453c1.586,0,2.84.416,3.762,1.248s1.383,1.939,1.383,3.322c0,1.68-1.07,3.68-3.211,6l-4.57,4.957h8.566v1.77Z" fill="#c9d1d9"/>
      <path d="m1196.514,82.723c0,2.539-.434,4.426-1.301,5.66s-2.223,1.852-4.066,1.852c-1.82,0-3.168-.604-4.043-1.811s-1.328-3.01-1.359-5.408v-2.895c0-2.508.434-4.371,1.301-5.59s2.227-1.828,4.078-1.828c1.836,0,3.188.588,4.055,1.764s1.312,2.99,1.336,5.443v2.812Zm-2.168-2.965c0-1.836-.258-3.174-.773-4.014s-1.332-1.26-2.449-1.26c-1.109,0-1.918.418-2.426,1.254s-.77,2.121-.785,3.855v3.469c0,1.844.268,3.205.803,4.084s1.346,1.318,2.432,1.318c1.07,0,1.865-.414,2.385-1.242s.791-2.133.814-3.914v-3.551Z" fill="#c9d1d9"/>
    </g>
  </g>
  <g isolation="isolate">
    <g isolation="isolate">
      <path d="m1332.99,80.414h1.629c1.023-.016,1.828-.285,2.414-.809s.879-1.23.879-2.121c0-2-.996-3-2.988-3-.938,0-1.686.268-2.244.803s-.838,1.244-.838,2.127h-2.168c0-1.352.494-2.475,1.482-3.369s2.244-1.342,3.768-1.342c1.609,0,2.871.426,3.785,1.277s1.371,2.035,1.371,3.551c0,.742-.24,1.461-.721,2.156s-1.135,1.215-1.963,1.559c.938.297,1.662.789,2.174,1.477s.768,1.527.768,2.52c0,1.531-.5,2.746-1.5,3.645s-2.301,1.348-3.902,1.348-2.904-.434-3.908-1.301-1.506-2.012-1.506-3.434h2.18c0,.898.293,1.617.879,2.156s1.371.809,2.355.809c1.047,0,1.848-.273,2.402-.82s.832-1.332.832-2.355c0-.992-.305-1.754-.914-2.285s-1.488-.805-2.637-.82h-1.629v-1.77Z" fill="#c9d1d9"/>
      <path d="m1354.014,82.723c0,2.539-.434,4.426-1.301,5.66s-2.223,1.852-4.066,1.852c-1.82,0-3.168-.604-4.043-1.811s-1.328-3.01-1.359-5.408v-2.895c0-2.508.434-4.371,1.301-5.59s2.227-1.828,4.078-1.828c1.836,0,3.188.588,4.055,1.764s1.312,2.99,1.336,5.443v2.812Zm-2.168-2.965c0-1.836-.258-3.174-.773-4.014s-1.332-1.26-2.449-1.26c-1.109,0-1.918.418-2.426,1.254s-.77,2.121-.785,3.855v3.469c0,1.844.268,3.205.803,4.084s1.346,1.318,2.432,1.318c1.07,0,1.865-.414,2.385-1.242s.791-2.133.814-3.914v-3.551Z" fill="#c9d1d9"/>
    </g>
  </g>
  <g isolation="isolate">
    <g isolation="isolate">
      <path d="m1451.49,84.27h2.367v1.77h-2.367v3.961h-2.18v-3.961h-7.77v-1.277l7.641-11.824h2.309v11.332Zm-7.488,0h5.309v-8.367l-.258.469-5.051,7.898Z" fill="#c9d1d9"/>
      <path d="m1466.514,82.723c0,2.539-.434,4.426-1.301,5.66s-2.223,1.852-4.066,1.852c-1.82,0-3.168-.604-4.043-1.811s-1.328-3.01-1.359-5.408v-2.895c0-2.508.434-4.371,1.301-5.59s2.227-1.828,4.078-1.828c1.836,0,3.188.588,4.055,1.764s1.312,2.99,1.336,5.443v2.812Zm-2.168-2.965c0-1.836-.258-3.174-.773-4.014s-1.332-1.26-2.449-1.26c-1.109,0-1.918.418-2.426,1.254s-.77,2.121-.785,3.855v3.469c0,1.844.268,3.205.803,4.084s1.346,1.318,2.432,1.318c1.07,0,1.865-.414,2.385-1.242s.791-2.133.814-3.914v-3.551Z" fill="#c9d1d9"/>
    </g>
  </g>
  <g isolation="isolate">
    <g isolation="isolate">
      <path d="m1528.834,81.445l.867-8.508h8.742v2.004h-6.902l-.516,4.652c.836-.492,1.785-.738,2.848-.738,1.555,0,2.789.514,3.703,1.541s1.371,2.416,1.371,4.166-.475,3.143-1.424,4.154-2.275,1.518-3.979,1.518c-1.508,0-2.738-.418-3.691-1.254s-1.496-1.992-1.629-3.469h2.051c.133.977.48,1.713,1.043,2.209s1.305.744,2.227.744c1.008,0,1.799-.344,2.373-1.031s.861-1.637.861-2.848c0-1.141-.311-2.057-.932-2.748s-1.447-1.037-2.479-1.037c-.945,0-1.688.207-2.227.621l-.574.469-1.734-.445Z" fill="#c9d1d9"/>
      <path d="m1552.014,82.723c0,2.539-.434,4.426-1.301,5.66s-2.223,1.852-4.066,1.852c-1.82,0-3.168-.604-4.043-1.811s-1.328-3.01-1.359-5.408v-2.895c0-2.508.434-4.371,1.301-5.59s2.227-1.828,4.078-1.828c1.836,0,3.188.588,4.055,1.764s1.312,2.99,1.336,5.443v2.812Zm-2.168-2.965c0-1.836-.258-3.174-.773-4.014s-1.332-1.26-2.449-1.26c-1.109,0-1.918.418-2.426,1.254s-.77,2.121-.785,3.855v3.469c0,1.844.268,3.205.803,4.084s1.346,1.318,2.432,1.318c1.07,0,1.865-.414,2.385-1.242s.791-2.133.814-3.914v-3.551Z" fill="#c9d1d9"/>
    </g>
  </g>
  <g isolation="isolate">
    <g isolation="isolate">
      <path d="m1608.346,72.926v1.84h-.398c-1.688.031-3.031.531-4.031,1.5s-1.578,2.332-1.734,4.09c.898-1.031,2.125-1.547,3.68-1.547,1.484,0,2.67.523,3.557,1.57s1.33,2.398,1.33,4.055c0,1.758-.479,3.164-1.436,4.219s-2.24,1.582-3.85,1.582c-1.633,0-2.957-.627-3.973-1.881s-1.523-2.869-1.523-4.846v-.832c0-3.141.67-5.541,2.01-7.201s3.334-2.51,5.982-2.549h.387Zm-2.848,7.688c-.742,0-1.426.223-2.051.668s-1.059,1.004-1.301,1.676v.797c0,1.406.316,2.539.949,3.398s1.422,1.289,2.367,1.289c.977,0,1.744-.359,2.303-1.078s.838-1.66.838-2.824c0-1.172-.283-2.119-.85-2.842s-1.318-1.084-2.256-1.084Z" fill="#c9d1d9"/>
      <path d="m1624.014,82.723c0,2.539-.434,4.426-1.301,5.66s-2.223,1.852-4.066,1.852c-1.82,0-3.168-.604-4.043-1.811s-1.328-3.01-1.359-5.408v-2.895c0-2.508.434-4.371,1.301-5.59s2.227-1.828,4.078-1.828c1.836,0,3.188.588,4.055,1.764s1.312,2.99,1.336,5.443v2.812Zm-2.168-2.965c0-1.836-.258-3.174-.773-4.014s-1.332-1.26-2.449-1.26c-1.109,0-1.918.418-2.426,1.254s-.77,2.121-.785,3.855v3.469c0,1.844.268,3.205.803,4.084s1.346,1.318,2.432,1.318c1.07,0,1.865-.414,2.385-1.242s.791-2.133.814-3.914v-3.551Z" fill="#c9d1d9"/>
    </g>
  </g>
  <g isolation="isolate">
    <g isolation="isolate">
      <path d="m1673.854,74.156l-7.066,15.844h-2.273l7.043-15.281h-9.234v-1.781h11.531v1.219Z" fill="#c9d1d9"/>
      <path d="m1687.014,82.723c0,2.539-.434,4.426-1.301,5.66s-2.223,1.852-4.066,1.852c-1.82,0-3.168-.604-4.043-1.811s-1.328-3.01-1.359-5.408v-2.895c0-2.508.434-4.371,1.301-5.59s2.227-1.828,4.078-1.828c1.836,0,3.188.588,4.055,1.764s1.312,2.99,1.336,5.443v2.812Zm-2.168-2.965c0-1.836-.258-3.174-.773-4.014s-1.332-1.26-2.449-1.26c-1.109,0-1.918.418-2.426,1.254s-.77,2.121-.785,3.855v3.469c0,1.844.268,3.205.803,4.084s1.346,1.318,2.432,1.318c1.07,0,1.865-.414,2.385-1.242s.791-2.133.814-3.914v-3.551Z" fill="#c9d1d9"/>
    </g>
  </g>
  <g isolation="isolate">
    <g isolation="isolate">
      <path d="m1722.686,77.391c0,.852-.225,1.609-.674,2.273s-1.057,1.184-1.822,1.559c.891.383,1.596.941,2.115,1.676s.779,1.566.779,2.496c0,1.477-.498,2.652-1.494,3.527s-2.307,1.312-3.932,1.312c-1.641,0-2.955-.439-3.943-1.318s-1.482-2.053-1.482-3.521c0-.922.252-1.754.756-2.496s1.201-1.305,2.092-1.688c-.758-.375-1.355-.895-1.793-1.559s-.656-1.418-.656-2.262c0-1.438.461-2.578,1.383-3.422s2.137-1.266,3.645-1.266c1.5,0,2.713.422,3.639,1.266s1.389,1.984,1.389,3.422Zm-1.77,7.957c0-.953-.303-1.73-.908-2.332s-1.396-.902-2.373-.902-1.76.297-2.35.891-.885,1.375-.885,2.344.287,1.73.861,2.285,1.373.832,2.396.832c1.016,0,1.812-.279,2.391-.838s.867-1.318.867-2.279Zm-3.258-10.863c-.852,0-1.541.264-2.068.791s-.791,1.244-.791,2.15c0,.867.26,1.568.779,2.104s1.213.803,2.08.803,1.561-.268,2.08-.803.779-1.236.779-2.104-.27-1.574-.809-2.121-1.223-.82-2.051-.82Z" fill="#c9d1d9"/>
      <path d="m1736.514,82.723c0,2.539-.434,4.426-1.301,5.66s-2.223,1.852-4.066,1.852c-1.82,0-3.168-.604-4.043-1.811s-1.328-3.01-1.359-5.408v-2.895c0-2.508.434-4.371,1.301-5.59s2.227-1.828,4.078-1.828c1.836,0,3.188.588,4.055,1.764s1.312,2.99,1.336,5.443v2.812Zm-2.168-2.965c0-1.836-.258-3.174-.773-4.014s-1.332-1.26-2.449-1.26c-1.109,0-1.918.418-2.426,1.254s-.77,2.121-.785,3.855v3.469c0,1.844.268,3.205.803,4.084s1.346,1.318,2.432,1.318c1.07,0,1.865-.414,2.385-1.242s.791-2.133.814-3.914v-3.551Z" fill="#c9d1d9"/>
    </g>
  </g>
  <g isolation="isolate">
    <g isolation="isolate">
      <path d="m1765.646,82.5c-.453.539-.994.973-1.623,1.301s-1.318.492-2.068.492c-.984,0-1.842-.242-2.572-.727s-1.295-1.166-1.693-2.045-.598-1.85-.598-2.912c0-1.141.217-2.168.65-3.082s1.049-1.613,1.846-2.098,1.727-.727,2.789-.727c1.688,0,3.018.631,3.99,1.893s1.459,2.982,1.459,5.162v.633c0,3.32-.656,5.744-1.969,7.271s-3.293,2.311-5.941,2.35h-.422v-1.84h.457c1.789-.031,3.164-.497,4.125-1.397s1.484-2.325,1.57-4.274Zm-3.34,0c.727,0,1.396-.223,2.01-.668s1.061-.996,1.342-1.652v-.867c0-1.422-.309-2.578-.926-3.469s-1.398-1.336-2.344-1.336c-.953,0-1.719.365-2.297,1.096s-.867,1.693-.867,2.889c0,1.164.279,2.123.838,2.877s1.307,1.131,2.244,1.131Z" fill="#c9d1d9"/>
      <path d="m1781.514,82.723c0,2.539-.434,4.426-1.301,5.66s-2.223,1.852-4.066,1.852c-1.82,0-3.168-.604-4.043-1.811s-1.328-3.01-1.359-5.408v-2.895c0-2.508.434-4.371,1.301-5.59s2.227-1.828,4.078-1.828c1.836,0,3.188.588,4.055,1.764s1.312,2.99,1.336,5.443v2.812Zm-2.168-2.965c0-1.836-.258-3.174-.773-4.014s-1.332-1.26-2.449-1.26c-1.109,0-1.918.418-2.426,1.254s-.77,2.121-.785,3.855v3.469c0,1.844.268,3.205.803,4.084s1.346,1.318,2.432,1.318c1.07,0,1.865-.414,2.385-1.242s.791-2.133.814-3.914v-3.551Z" fill="#c9d1d9"/>
    </g>
  </g>
  <g isolation="isolate">
    <g isolation="isolate">
      <path d="m1796.895,90h-3.27v-21.674l-6.557,2.408v-2.953l9.316-3.498h.51v25.717Z" fill="#c9d1d9"/>
      <path d="m1822.471,79.084c0,3.809-.65,6.639-1.951,8.49s-3.334,2.777-6.1,2.777c-2.73,0-4.752-.905-6.064-2.716s-1.992-4.515-2.039-8.112v-4.342c0-3.762.65-6.557,1.951-8.385s3.34-2.742,6.117-2.742c2.754,0,4.781.882,6.082,2.646s1.969,4.485,2.004,8.165v4.219Zm-3.252-4.447c0-2.754-.387-4.761-1.16-6.021s-1.998-1.89-3.674-1.89c-1.664,0-2.877.627-3.639,1.881s-1.154,3.182-1.178,5.783v5.203c0,2.766.401,4.808,1.204,6.126s2.019,1.978,3.647,1.978c1.605,0,2.798-.621,3.577-1.863s1.187-3.199,1.222-5.871v-5.326Z" fill="#c9d1d9"/>
      <path d="m1842.686,79.084c0,3.809-.65,6.639-1.951,8.49s-3.334,2.777-6.1,2.777c-2.73,0-4.752-.905-6.064-2.716s-1.992-4.515-2.039-8.112v-4.342c0-3.762.65-6.557,1.951-8.385s3.34-2.742,6.117-2.742c2.754,0,4.781.882,6.082,2.646s1.969,4.485,2.004,8.165v4.219Zm-3.252-4.447c0-2.754-.387-4.761-1.16-6.021s-1.998-1.89-3.674-1.89c-1.664,0-2.877.627-3.639,1.881s-1.154,3.182-1.178,5.783v5.203c0,2.766.401,4.808,1.204,6.126s2.019,1.978,3.647,1.978c1.605,0,2.798-.621,3.577-1.863s1.187-3.199,1.222-5.871v-5.326Z" fill="#c9d1d9"/>
    </g>
  </g>
  <line x1="104.4" y1="172.8" x2="104.4" y2="226.8" fill="none" stroke="#c9d1d9" stroke-miterlimit="10" stroke-width="2.45"/>
  <line x1="284.4" y1="172.8" x2="284.4" y2="226.8" fill="none" stroke="#c9d1d9" stroke-miterlimit="10" stroke-width="2.45"/>
  <line x1="464.4" y1="226.8" x2="464.4" y2="172.8" fill="none" stroke="#c9d1d9" stroke-miterlimit="10" stroke-width="2.45"/>
  <line x1="644.4" y1="172.8" x2="644.4" y2="226.8" fill="none" stroke="#c9d1d9" stroke-miterlimit="10" stroke-width="2.45"/>
  <line x1="824.4" y1="172.8" x2="824.4" y2="226.8" fill="none" stroke="#c9d1d9" stroke-miterlimit="10" stroke-width="2.45"/>
  <line x1="1004.4" y1="226.8" x2="1004.4" y2="172.8" fill="none" stroke="#c9d1d9" stroke-miterlimit="10" stroke-width="2.45"/>
  <line x1="1184.4" y1="172.8" x2="1184.4" y2="226.8" fill="none" stroke="#c9d1d9" stroke-miterlimit="10" stroke-width="2.45"/>
  <line x1="1364.4" y1="172.8" x2="1364.4" y2="226.8" fill="none" stroke="#c9d1d9" stroke-miterlimit="10" stroke-width="2.45"/>
  <line x1="1544.4" y1="226.8" x2="1544.4" y2="172.8" fill="none" stroke="#c9d1d9" stroke-miterlimit="10" stroke-width="2.45"/>
  <line x1="1724.4" y1="172.8" x2="1724.4" y2="226.8" fill="none" stroke="#c9d1d9" stroke-miterlimit="10" stroke-width="2.45"/>
  <g isolation="isolate">
    <g isolation="isolate">
      <path d="m459.887,277.123c0,2.539-.434,4.426-1.301,5.66s-2.223,1.852-4.066,1.852c-1.82,0-3.168-.604-4.043-1.811s-1.328-3.01-1.359-5.408v-2.895c0-2.508.434-4.371,1.301-5.59s2.227-1.828,4.078-1.828c1.836,0,3.188.588,4.055,1.764s1.312,2.99,1.336,5.443v2.812Zm-2.168-2.965c0-1.836-.258-3.174-.773-4.014s-1.332-1.26-2.449-1.26c-1.109,0-1.918.418-2.426,1.254s-.77,2.121-.785,3.855v3.469c0,1.844.268,3.205.803,4.084s1.346,1.318,2.432,1.318c1.07,0,1.865-.414,2.385-1.242s.791-2.133.814-3.914v-3.551Z" fill="#c9d1d9"/>
      <path d="m462.934,283.264c0-.375.111-.688.334-.938s.557-.375,1.002-.375.783.125,1.014.375.346.562.346.938c0,.359-.115.66-.346.902s-.568.363-1.014.363-.779-.121-1.002-.363-.334-.543-.334-.902Z" fill="#c9d1d9"/>
      <path d="m469.977,275.846l.867-8.508h8.742v2.004h-6.902l-.516,4.652c.836-.492,1.785-.738,2.848-.738,1.555,0,2.789.514,3.703,1.541s1.371,2.416,1.371,4.166-.475,3.143-1.424,4.154-2.275,1.518-3.979,1.518c-1.508,0-2.738-.418-3.691-1.254s-1.496-1.992-1.629-3.469h2.051c.133.977.48,1.713,1.043,2.209s1.305.744,2.227.744c1.008,0,1.799-.344,2.373-1.031s.861-1.637.861-2.848c0-1.141-.311-2.057-.932-2.748s-1.447-1.037-2.479-1.037c-.945,0-1.688.207-2.227.621l-.574.469-1.734-.445Z" fill="#c9d1d9"/>
    </g>
  </g>
  <g isolation="isolate">
    <g isolation="isolate">
      <path d="m1356.312,284.4h-2.18v-14.449l-4.371,1.605v-1.969l6.211-2.332h.34v17.145Z" fill="#c9d1d9"/>
      <path d="m1362.934,283.264c0-.375.111-.688.334-.938s.557-.375,1.002-.375.783.125,1.014.375.346.562.346.938c0,.359-.115.66-.346.902s-.568.363-1.014.363-.779-.121-1.002-.363-.334-.543-.334-.902Z" fill="#c9d1d9"/>
      <path d="m1369.977,275.846l.867-8.508h8.742v2.004h-6.902l-.516,4.652c.836-.492,1.785-.738,2.848-.738,1.555,0,2.789.514,3.703,1.541s1.371,2.416,1.371,4.166-.475,3.143-1.424,4.154-2.275,1.518-3.979,1.518c-1.508,0-2.738-.418-3.691-1.254s-1.496-1.992-1.629-3.469h2.051c.133.977.48,1.713,1.043,2.209s1.305.744,2.227.744c1.008,0,1.799-.344,2.373-1.031s.861-1.637.861-2.848c0-1.141-.311-2.057-.932-2.748s-1.447-1.037-2.479-1.037c-.945,0-1.688.207-2.227.621l-.574.469-1.734-.445Z" fill="#c9d1d9"/>
    </g>
  </g>
  <line x1="14.4" y1="172.8" x2="1814.4" y2="172.8" fill="none" stroke="#c9d1d9" stroke-miterlimit="10" stroke-width="8.5"/>
  <g isolation="isolate">
    <g isolation="isolate">
      <path d="m148.884,316.721h16.172v3.68h-20.695v-34.125h4.523v30.445Z" fill="#c9d1d9"/>
      <path d="m169.533,288.314c0-.703.215-1.297.645-1.781s1.066-.727,1.91-.727,1.484.242,1.922.727.656,1.078.656,1.781-.219,1.289-.656,1.758-1.078.703-1.922.703-1.48-.234-1.91-.703-.645-1.055-.645-1.758Zm4.688,32.086h-4.336v-25.359h4.336v25.359Z" fill="#c9d1d9"/>
      <path d="m185.259,295.041l.141,3.188c1.938-2.438,4.469-3.656,7.594-3.656,5.359,0,8.062,3.023,8.109,9.07v16.758h-4.336v-16.781c-.016-1.828-.434-3.18-1.254-4.055s-2.098-1.312-3.832-1.312c-1.406,0-2.641.375-3.703,1.125s-1.891,1.734-2.484,2.953v18.07h-4.336v-25.359h4.102Z" fill="#c9d1d9"/>
      <path d="m218.166,320.869c-3.438,0-6.234-1.129-8.391-3.387s-3.234-5.277-3.234-9.059v-.797c0-2.516.48-4.762,1.441-6.738s2.305-3.523,4.031-4.641,3.598-1.676,5.613-1.676c3.297,0,5.859,1.086,7.688,3.258s2.742,5.281,2.742,9.328v1.805h-17.18c.062,2.5.793,4.52,2.191,6.059s3.176,2.309,5.332,2.309c1.531,0,2.828-.312,3.891-.938s1.992-1.453,2.789-2.484l2.648,2.062c-2.125,3.266-5.312,4.898-9.562,4.898Zm-.539-22.734c-1.75,0-3.219.637-4.406,1.91s-1.922,3.059-2.203,5.355h12.703v-.328c-.125-2.203-.719-3.91-1.781-5.121s-2.5-1.816-4.312-1.816Z" fill="#c9d1d9"/>
      <path d="m248.728,320.4c-.25-.5-.453-1.391-.609-2.672-2.016,2.094-4.422,3.141-7.219,3.141-2.5,0-4.551-.707-6.152-2.121s-2.402-3.207-2.402-5.379c0-2.641,1.004-4.691,3.012-6.152s4.832-2.191,8.473-2.191h4.219v-1.992c0-1.516-.453-2.723-1.359-3.621s-2.242-1.348-4.008-1.348c-1.547,0-2.844.391-3.891,1.172s-1.57,1.727-1.57,2.836h-4.359c0-1.266.449-2.488,1.348-3.668s2.117-2.113,3.656-2.801,3.23-1.031,5.074-1.031c2.922,0,5.211.73,6.867,2.191s2.516,3.473,2.578,6.035v11.672c0,2.328.297,4.18.891,5.555v.375h-4.547Zm-7.195-3.305c1.359,0,2.648-.352,3.867-1.055s2.102-1.617,2.648-2.742v-5.203h-3.398c-5.312,0-7.969,1.555-7.969,4.664,0,1.359.453,2.422,1.359,3.188s2.07,1.148,3.492,1.148Z" fill="#c9d1d9"/>
      <path d="m271.439,298.932c-.656-.109-1.367-.164-2.133-.164-2.844,0-4.773,1.211-5.789,3.633v18h-4.336v-25.359h4.219l.07,2.93c1.422-2.266,3.438-3.398,6.047-3.398.844,0,1.484.109,1.922.328v4.031Z" fill="#c9d1d9"/>
    </g>
    <g isolation="isolate">
      <path d="m295.645,304.275l6.891-9.234h5.203l-10.172,12.75,6.188,12.609h-4.617l-4.195-9.469-7.148,9.469h-5.18l10.477-13.031-6-12.328h4.641l3.914,9.234Z" fill="#c9d1d9"/>
    </g>
  </g>
  <g isolation="isolate">
    <g isolation="isolate">
      <path d="m148.884,39.521h16.172v3.68h-20.695V9.075h4.523v30.445Z" fill="#c9d1d9"/>
      <path d="m168.361,30.286c0-2.484.488-4.719,1.465-6.703s2.336-3.516,4.078-4.594,3.73-1.617,5.965-1.617c3.453,0,6.246,1.195,8.379,3.586s3.199,5.57,3.199,9.539v.305c0,2.469-.473,4.684-1.418,6.645s-2.297,3.488-4.055,4.582-3.777,1.641-6.059,1.641c-3.438,0-6.223-1.195-8.355-3.586s-3.199-5.555-3.199-9.492v-.305Zm4.359.516c0,2.812.652,5.07,1.957,6.773s3.051,2.555,5.238,2.555c2.203,0,3.953-.863,5.25-2.59s1.945-4.145,1.945-7.254c0-2.781-.66-5.035-1.98-6.762s-3.074-2.59-5.262-2.59c-2.141,0-3.867.852-5.18,2.555s-1.969,4.141-1.969,7.312Z" fill="#c9d1d9"/>
      <path d="m195.853,30.31c0-3.953.914-7.098,2.742-9.434s4.25-3.504,7.266-3.504c3.094,0,5.508,1.094,7.242,3.281l.211-2.812h3.961v24.75c0,3.281-.973,5.867-2.918,7.758s-4.559,2.836-7.84,2.836c-1.828,0-3.617-.391-5.367-1.172s-3.086-1.852-4.008-3.211l2.25-2.602c1.859,2.297,4.133,3.445,6.82,3.445,2.109,0,3.754-.594,4.934-1.781s1.77-2.859,1.77-5.016v-2.18c-1.734,2-4.102,3-7.102,3-2.969,0-5.371-1.195-7.207-3.586s-2.754-5.648-2.754-9.773Zm4.359.492c0,2.859.586,5.105,1.758,6.738s2.812,2.449,4.922,2.449c2.734,0,4.742-1.242,6.023-3.727v-11.578c-1.328-2.422-3.32-3.633-5.977-3.633-2.109,0-3.758.82-4.945,2.461s-1.781,4.07-1.781,7.289Z" fill="#c9d1d9"/>
      <path d="m239.47,43.2c-.25-.5-.453-1.391-.609-2.672-2.016,2.094-4.422,3.141-7.219,3.141-2.5,0-4.551-.707-6.152-2.121s-2.402-3.207-2.402-5.379c0-2.641,1.004-4.691,3.012-6.152s4.832-2.191,8.473-2.191h4.219v-1.992c0-1.516-.453-2.723-1.359-3.621s-2.242-1.348-4.008-1.348c-1.547,0-2.844.391-3.891,1.172s-1.57,1.727-1.57,2.836h-4.359c0-1.266.449-2.488,1.348-3.668s2.117-2.113,3.656-2.801,3.23-1.031,5.074-1.031c2.922,0,5.211.73,6.867,2.191s2.516,3.473,2.578,6.035v11.672c0,2.328.297,4.18.891,5.555v.375h-4.547Zm-7.195-3.305c1.359,0,2.648-.352,3.867-1.055s2.102-1.617,2.648-2.742v-5.203h-3.398c-5.312,0-7.969,1.555-7.969,4.664,0,1.359.453,2.422,1.359,3.188s2.07,1.148,3.492,1.148Z" fill="#c9d1d9"/>
      <path d="m262.181,21.731c-.656-.109-1.367-.164-2.133-.164-2.844,0-4.773,1.211-5.789,3.633v18h-4.336v-25.359h4.219l.07,2.93c1.422-2.266,3.438-3.398,6.047-3.398.844,0,1.484.109,1.922.328v4.031Z" fill="#c9d1d9"/>
      <path d="m266.189,11.114c0-.703.215-1.297.645-1.781s1.066-.727,1.91-.727,1.484.242,1.922.727.656,1.078.656,1.781-.219,1.289-.656,1.758-1.078.703-1.922.703-1.48-.234-1.91-.703-.645-1.055-.645-1.758Zm4.688,32.086h-4.336v-25.359h4.336v25.359Z" fill="#c9d1d9"/>
      <path d="m283.697,11.7v6.141h4.734v3.352h-4.734v15.746c0,1.018.211,1.78.633,2.288.422.509,1.141.763,2.156.763.5,0,1.188-.094,2.062-.281v3.495c-1.141.311-2.25.466-3.328.466-1.938,0-3.398-.586-4.383-1.758s-1.477-2.836-1.477-4.992v-15.727h-4.617v-3.352h4.617v-6.141h4.336Z" fill="#c9d1d9"/>
      <path d="m297.83,20.911c1.922-2.359,4.422-3.539,7.5-3.539,5.359,0,8.062,3.023,8.109,9.07v16.758h-4.336v-16.781c-.016-1.828-.434-3.18-1.254-4.055s-2.098-1.312-3.832-1.312c-1.406,0-2.641.375-3.703,1.125s-1.891,1.734-2.484,2.953v18.07h-4.336V7.2h4.336v13.711Z" fill="#c9d1d9"/>
      <path d="m324.009,17.841l.117,2.812c1.859-2.188,4.367-3.281,7.523-3.281,3.547,0,5.961,1.359,7.242,4.078.844-1.219,1.941-2.203,3.293-2.953s2.949-1.125,4.793-1.125c5.562,0,8.391,2.945,8.484,8.836v16.992h-4.336v-16.734c0-1.812-.414-3.168-1.242-4.066s-2.219-1.348-4.172-1.348c-1.609,0-2.945.48-4.008,1.441s-1.68,2.254-1.852,3.879v16.828h-4.359v-16.617c0-3.688-1.805-5.531-5.414-5.531-2.844,0-4.789,1.211-5.836,3.633v18.516h-4.336v-25.359h4.102Z" fill="#c9d1d9"/>
      <path d="m362.025,11.114c0-.703.215-1.297.645-1.781s1.066-.727,1.91-.727,1.484.242,1.922.727.656,1.078.656,1.781-.219,1.289-.656,1.758-1.078.703-1.922.703-1.48-.234-1.91-.703-.645-1.055-.645-1.758Zm4.688,32.086h-4.336v-25.359h4.336v25.359Z" fill="#c9d1d9"/>
      <path d="m383.822,40.13c1.547,0,2.898-.469,4.055-1.406s1.797-2.109,1.922-3.516h4.102c-.078,1.453-.578,2.836-1.5,4.148s-2.152,2.359-3.691,3.141-3.168,1.172-4.887,1.172c-3.453,0-6.199-1.152-8.238-3.457s-3.059-5.457-3.059-9.457v-.727c0-2.469.453-4.664,1.359-6.586s2.207-3.414,3.902-4.477,3.699-1.594,6.012-1.594c2.844,0,5.207.852,7.09,2.555s2.887,3.914,3.012,6.633h-4.102c-.125-1.641-.746-2.988-1.863-4.043s-2.496-1.582-4.137-1.582c-2.203,0-3.91.793-5.121,2.379s-1.816,3.879-1.816,6.879v.82c0,2.922.602,5.172,1.805,6.75s2.922,2.367,5.156,2.367Z" fill="#c9d1d9"/>
    </g>
    <g isolation="isolate">
      <path d="m412.7,43.2h-4.219l6.234-36h4.242l-6.258,36Z" fill="#c9d1d9"/>
      <path d="m420.88,30.474c.375-2.766,1.121-5.168,2.238-7.207s2.477-3.547,4.078-4.523,3.355-1.441,5.262-1.395c2.938.062,5.156,1.172,6.656,3.328l.844-2.836h3.891l-4.219,24.82c-.453,3.234-1.766,5.824-3.938,7.77s-4.852,2.871-8.039,2.777c-1.719-.031-3.363-.438-4.934-1.219s-2.809-1.852-3.715-3.211l2.414-2.602c1.531,2.266,3.555,3.43,6.07,3.492,2.016.062,3.723-.5,5.121-1.688s2.324-2.875,2.777-5.062l.469-2.25c-2.062,2.062-4.477,3.062-7.242,3-1.578-.047-2.949-.473-4.113-1.277s-2.066-1.969-2.707-3.492-.992-3.223-1.055-5.098c-.031-.922.016-2.031.141-3.328Zm4.102,2.399c-.047,2.231.34,3.96,1.16,5.186.82,1.225,2.059,1.868,3.715,1.931,2.531.062,4.711-1.178,6.539-3.722l1.992-11.634c-.938-2.31-2.633-3.512-5.086-3.605-2.297-.062-4.184.874-5.66,2.81-1.477,1.935-2.348,4.549-2.613,7.841l-.047,1.194Z" fill="#c9d1d9"/>
      <path d="m448.396,29.442c.516-3.609,1.473-7.125,2.871-10.547s3.113-6.34,5.145-8.754,4.297-4.238,6.797-5.473l.633,2.906c-2.453,1.828-4.559,4.215-6.316,7.16s-3.113,6.445-4.066,10.5-1.414,8.051-1.383,11.988c0,3.234.418,6.082,1.254,8.543s2.043,4.402,3.621,5.824l-1.055,2.625c-2.609-1.812-4.605-4.492-5.988-8.039s-2.012-7.609-1.887-12.188c.031-1.5.141-2.93.328-4.289l.047-.258Z" fill="#c9d1d9"/>
      <path d="m473.052,27.075l6.891-9.234h5.203l-10.172,12.75,6.188,12.609h-4.617l-4.195-9.469-7.148,9.469h-5.18l10.477-13.031-6-12.328h4.641l3.914,9.234Z" fill="#c9d1d9"/>
      <path d="m497.567,29.489c-.547,3.812-1.539,7.418-2.977,10.816s-3.16,6.266-5.168,8.602-4.23,4.113-6.668,5.332l-.656-2.695c5.359-4.031,8.938-10.508,10.734-19.43.719-3.594,1.062-7.055,1.031-10.383-.078-6.703-1.703-11.508-4.875-14.414l1.102-2.625c1.75,1.219,3.23,2.84,4.441,4.863s2.102,4.375,2.672,7.055.824,5.457.762,8.332c-.047,1.516-.164,2.945-.352,4.289l-.047.258Z" fill="#c9d1d9"/>
    </g>
  </g>
</svg>