<?xml version="1.0" encoding="UTF-8"?>
<svg xmlns="http://www.w3.org/2000/svg" viewBox="0 0 1004.4 1076.4">
  <defs>
    <style>
      .cls-1, .cls-2, .cls-3, .cls-4, .cls-5, .cls-6, .cls-7 {
        fill: none;
      }

      .cls-2 {
        opacity: .3;
      }

      .cls-2, .cls-3, .cls-4, .cls-5, .cls-6, .cls-7 {
        stroke-miterlimit: 10;
      }

      .cls-2, .cls-4 {
        stroke-width: 2.83px;
      }

      .cls-2, .cls-4, .cls-5 {
        stroke: #7f7f7f;
      }

      .cls-3 {
        stroke-width: .85px;
      }

      .cls-3, .cls-6, .cls-7 {
        stroke: #c9d1d9;
      }

      .cls-8 {
        fill: #7f7f7f;
      }

      .cls-9 {
        fill: #c9d1d9;
      }

      .cls-5 {
        stroke-dasharray: 0 0 11.96 11.96;
      }

      .cls-5, .cls-7 {
        stroke-width: 5.67px;
      }

      .cls-6 {
        stroke-width: 5.67px;
      }
    </style>
  </defs>
  <g id="Signal_Flow" data-name="Signal Flow">
    <circle class="cls-5" cx="529.2" cy="543.6" r="460.8"/>
    <g>
      <g>
        <line class="cls-3" x1="484.2" y1="82.8" x2="509.4" y2="61.2"/>
        <rect class="cls-3" x="484.2" y="28.8" width="90" height="54"/>
        <rect class="cls-3" x="509.4" y="46.8" width="39.6" height="14.4"/>
        <line class="cls-3" x1="549" y1="61.2" x2="573.96" y2="82.8"/>
      </g>
      <line class="cls-3" x1="529.2" y1="54" x2="529.2" y2="543.6"/>
    </g>
    <g>
      <g>
        <line class="cls-3" x1="366.47" y1="110.15" x2="385.22" y2="82.76"/>
        <rect class="cls-3" x="357.95" y="45.42" width="90" height="54" transform="translate(-5.01 106.76) rotate(-15)"/>
        <rect class="cls-3" x="382.68" y="63.48" width="39.6" height="14.4" transform="translate(-4.58 106.58) rotate(-15)"/>
        <line class="cls-3" x1="423.47" y1="72.51" x2="453.17" y2="86.92"/>
      </g>
      <line class="cls-3" x1="402.48" y1="70.68" x2="529.2" y2="543.6"/>
    </g>
    <g>
      <line class="cls-7" x1="259.83" y1="167.04" x2="270.85" y2="135.73"/>
      <rect class="cls-7" x="240.3" y="94.15" width="90" height="54" transform="translate(-22.35 158.88) rotate(-30)"/>
      <rect class="cls-7" x="264.6" y="112.39" width="39.6" height="14.4" transform="translate(-21.69 158.22) rotate(-30)"/>
      <line class="cls-7" x1="305.15" y1="115.93" x2="337.56" y2="122.16"/>
    </g>
    <line class="cls-3" x1="284.4" y1="119.59" x2="529.2" y2="543.6"/>
    <g>
      <line class="cls-7" x1="171.55" y1="249.59" x2="174.09" y2="216.49"/>
      <rect class="cls-7" x="139.27" y="171.67" width="90" height="54" transform="translate(-86.51 188.49) rotate(-45)"/>
      <rect class="cls-7" x="163.2" y="190.2" width="39.6" height="14.4" transform="translate(-85.98 187.22) rotate(-45)"/>
      <line class="cls-7" x1="202.09" y1="188.49" x2="235.02" y2="186.12"/>
    </g>
    <line class="cls-3" x1="183" y1="197.4" x2="529.2" y2="543.6"/>
    <g>
      <line class="cls-7" x1="484.2" y1="82.8" x2="509.4" y2="61.2"/>
      <rect class="cls-7" x="484.2" y="28.8" width="90" height="54"/>
      <rect class="cls-7" x="509.4" y="46.8" width="39.6" height="14.4"/>
      <line class="cls-7" x1="549" y1="61.2" x2="573.96" y2="82.8"/>
    </g>
    <line class="cls-3" x1="529.2" y1="54" x2="529.2" y2="543.6"/>
    <g>
      <line class="cls-7" x1="366.47" y1="110.15" x2="385.22" y2="82.76"/>
      <rect class="cls-7" x="357.95" y="45.42" width="90" height="54" transform="translate(-5.01 106.76) rotate(-15)"/>
      <rect class="cls-7" x="382.68" y="63.48" width="39.6" height="14.4" transform="translate(-4.58 106.58) rotate(-15)"/>
      <line class="cls-7" x1="423.47" y1="72.51" x2="453.17" y2="86.92"/>
    </g>
    <line class="cls-3" x1="402.48" y1="70.68" x2="529.2" y2="543.6"/>
    <g>
      <line class="cls-7" x1="107.64" y1="352.17" x2="101.53" y2="319.55"/>
      <rect class="cls-7" x="61.75" y="272.7" width="90" height="54" transform="translate(-206.17 242.3) rotate(-60)"/>
      <rect class="cls-7" x="85.39" y="291.6" width="39.6" height="14.4" transform="translate(-206.17 240.5) rotate(-60)"/>
      <line class="cls-7" x1="121.33" y1="285.25" x2="152.52" y2="274.44"/>
    </g>
    <line class="cls-3" x1="105.19" y1="298.8" x2="529.2" y2="543.6"/>
    <g>
      <line class="cls-7" x1="72.45" y1="467.8" x2="58.11" y2="437.87"/>
      <rect class="cls-7" x="13.02" y="390.35" width="90" height="54" transform="translate(-360.12 365.37) rotate(-75)"/>
      <rect class="cls-7" x="36.48" y="409.68" width="39.6" height="14.4" transform="translate(-360.96 363.35) rotate(-75)"/>
      <line class="cls-7" x1="68.36" y1="399.62" x2="95.69" y2="381.1"/>
    </g>
    <line class="cls-3" x1="56.28" y1="416.88" x2="529.2" y2="543.6"/>
    <g>
      <line class="cls-7" x1="68.4" y1="588.6" x2="46.8" y2="563.4"/>
      <rect class="cls-7" x="-3.6" y="516.6" width="90" height="54" transform="translate(-502.2 585) rotate(-90)"/>
      <rect class="cls-7" x="19.8" y="536.4" width="39.6" height="14.4" transform="translate(-504 583.2) rotate(-90)"/>
      <line class="cls-7" x1="46.8" y1="523.8" x2="68.4" y2="498.84"/>
    </g>
    <line class="cls-3" x1="39.6" y1="543.6" x2="529.2" y2="543.6"/>
    <g>
      <line class="cls-7" x1="95.75" y1="706.33" x2="68.36" y2="687.58"/>
      <rect class="cls-7" x="13.02" y="642.85" width="90" height="54" transform="translate(-573.99 899.27) rotate(-105)"/>
      <rect class="cls-7" x="36.48" y="663.12" width="39.6" height="14.4" transform="translate(-576.63 898.17) rotate(-105)"/>
      <line class="cls-7" x1="58.11" y1="649.33" x2="72.52" y2="619.63"/>
    </g>
    <line class="cls-3" x1="56.28" y1="670.32" x2="529.2" y2="543.6"/>
    <g>
      <line class="cls-7" x1="152.64" y1="812.97" x2="121.33" y2="801.95"/>
      <rect class="cls-7" x="61.75" y="760.5" width="90" height="54" transform="translate(-521.87 1273.7) rotate(-120)"/>
      <rect class="cls-7" x="85.39" y="781.2" width="39.6" height="14.4" transform="translate(-524.98 1273.7) rotate(-120)"/>
      <line class="cls-7" x1="101.53" y1="767.65" x2="107.76" y2="735.24"/>
    </g>
    <line class="cls-3" x1="105.19" y1="788.4" x2="529.2" y2="543.6"/>
    <g>
      <line class="cls-7" x1="235.19" y1="901.25" x2="202.09" y2="898.71"/>
      <rect class="cls-7" x="139.27" y="861.53" width="90" height="54" transform="translate(-313.71 1647.11) rotate(-135)"/>
      <rect class="cls-7" x="163.2" y="882.6" width="39.6" height="14.4" transform="translate(-316.78 1648.38) rotate(-135)"/>
      <line class="cls-7" x1="174.09" y1="870.71" x2="171.72" y2="837.78"/>
    </g>
    <line class="cls-3" x1="183" y1="889.8" x2="529.2" y2="543.6"/>
    <g>
      <path class="cls-4" d="m506.59,440.02c-34.73,2.57-60.19,10.89-60.19,20.78,0,11.93,37.07,21.6,82.8,21.6s82.8-9.67,82.8-21.6c0-8.71-19.77-16.21-48.23-19.63"/>
      <polygon class="cls-8" points="567.09 433.06 551.62 440.01 565.37 449.93 567.09 433.06"/>
    </g>
    <line class="cls-2" x1="529.2" y1="403.2" x2="529.2" y2="496.8"/>
  </g>
  <g id="Ebene_10" data-name="Ebene 10">
    <g>
      <path class="cls-7" d="m510.92,598.1c-.27-1.58-.43-2.86-.54-3.73-.18-1.48-.14-1.56-.34-3.07-.24-1.87-.33-2.05-.38-3.07-.04-.9,0-1.19-.08-2.19-.13-1.43-.33-1.89-.46-2.14-.38-.74-.9-1.16-1.14-1.35-.61-.48-1.19-.69-1.98-.93-2.12-.63-3.82-.9-3.99-.93-1.24-.19-.95-.08-3.28-.38-1.28-.17-1.75-.25-2.65-.29-.83-.04-1.45-.03-2.31,0-2.24.07-2.52.24-3.62.08-1.03-.15-1.76-.44-2.02-.55-.55-.23-1.23-.51-1.89-1.14-.21-.2-.53-.5-.8-1-.16-.29-.31-.66-.45-1.57-.14-.9-.14-1.61-.14-3,0-.92.03-1.26.14-1.68.16-.57.28-.58.36-1.07.14-.81-.09-1.5-.22-1.82-.04-.09-.2-.47-.53-.87-.11-.14-.2-.22-.87-.84-.55-.5-.58-.53-.64-.64-.21-.36-.21-.73-.21-1.16,0-.22,0-.52.11-.88.12-.41.3-.69.4-.84.09-.14.18-.26.25-.34-.42-.36-.73-.71-.94-.98-.21-.26-.39-.51-.57-.88-.1-.21-.25-.55-.3-1.03-.03-.29-.09-.82.17-1.35.18-.37.35-.39.59-.84.05-.1.2-.4.28-.81.15-.74-.02-1.34-.05-1.45-.31-1.07-1.14-1.62-1.36-1.77-.2-.13-.54-.27-1.21-.55-.73-.3-.87-.31-1.25-.53-.46-.26-.76-.53-1.03-.77-.36-.32-.65-.58-.92-1.02-.15-.25-.27-.52-.35-.81-.04-.15-.07-.28-.07-.45,0-.35.13-.62.21-.77.09-.18.19-.31.22-.35,1.91-2.43,2.52-3.13,2.52-3.13.49-.58.74-.86.88-1.05,1.6-2.04,1.6-3.19,3.09-6.03.13-.26.62-1.18.98-2.42.05-.18.1-.35.15-.59.07-.35.2-1.19.02-2.34-.11-.7-.28-1.17-.36-1.45-.43-1.34-.38-2.53-.32-4.04.07-1.83.45-3.54,1.11-5.46,2.29-6.72,6.1-11.43,6.1-11.43,1.23-1.52,4.32-5.07,9.41-8.08,5.78-3.42,10.98-4.27,14.83-4.89,5.32-.87,9.46-.66,11.1-.55,2.14.15,5.05.37,8.58,1.43,2.22.67,7.52,2.32,12.53,6.98,5.31,4.94,7.34,10.51,8.41,13.57.34.97,1.6,4.7,2.02,9.73.16,1.97.34,4.26-.08,7.23-.11.79-.65,4.27-2.69,8.58-1.59,3.34-2.28,3.38-4.85,7.93-1.32,2.34-2.55,4.51-3.64,7.51-1.11,3.04-2.43,6.65-2.19,11.32.16,2.98.91,5.63,1.88,9.03.45,1.59.85,2.61,1.04,3.08.39.98.75,1.72,1.46,3.17.61,1.26.92,1.88,1.32,2.63.58,1.06,1.43,2.48,2.63,4.1"/>
      <path class="cls-9" d="m525.75,540.58c1.74-3.12,3.39-6.71,6.62-8.55,2.59-1.5,6.17-.76,7.62,1.97,1.99,4.35.72,9.33-.59,13.68-.73,1.77-2.01,3.27-3.41,4.52-1.8,1.48-3.26,3.2-5.17,4.56-1.65.9-3.74.43-5.44.87-.26.1-.36.3-.48.56-.28.74-.32,1.57-.33,2.44.13,3.6-1.06,7.73-4.09,10.13-1.43,1.25-3.33,1.69-5.05,2.32-5.09,1.82-10.25,3.46-15.44,4.99,0,0,5.05-1.92,5.05-1.92,3.01-1.22,7.14-2.7,10.08-3.91,4.58-1.3,7.39-4.21,8.03-9,.23-1.81-.13-3.7.5-5.52.21-.52.55-1.1,1.3-1.36,2.12-.67,4.44.25,6.05-1.56,2.47-2.43,5.74-4.36,7.19-7.6,1.22-3.86,3.4-11.85-.74-14.49-5.44-2.72-9.22,4.05-11.72,7.89h0Z"/>
      <path class="cls-9" d="m525.75,545.74c.38-2.37,1.57-4.47,2.77-6.52,1.4-2.38,3.64-6.23,7.02-4.93,3.81,2.24,2.52,8.33,1.79,11.9.22-3.03,1.25-11.9-3.61-11.27-2.18.49-3.41,2.88-4.66,4.64-1.3,1.95-2.59,3.91-3.32,6.18h0Z"/>
      <path class="cls-9" d="m526.6,544.48c.89.68,1.61,1.71,2.02,2.73.15.23.3.67.18,1.05-.29.94-1.01,1.38-1.54,2.13-.64.76-.64,1.99-.51,2.85.34,1.17,1.53,1.26,2.2.25-.46,1.52-2.25,1.41-2.82,0-.38-1.18-.32-2.59.44-3.59.42-.62,1.22-1.15,1.51-1.84-.04-1.23-.84-2.52-1.49-3.57h0Z"/>
      <path class="cls-9" d="m530.46,550.49c.94-1.59,2.01-3.15,3.08-4.67.73-.79.8-1.65.56-2.72-.24-1.5-.71-2.92-.54-4.48.11-.65-.52-1-1.13-.93-.73.06-1.46.15-2.21.18,1.1-.21,2.28-1.01,3.39-.42.42.22.64.78.6,1.21-.05.68.12,1.38.26,2.1.22,1.4.93,3.15.32,4.58-1.3,1.86-2.8,3.44-4.35,5.14h0Z"/>
      <path class="cls-9" d="m528.86,539.98c1.77,1.75,2.55,4.26,2.5,6.71-1.1-2.17-1.75-4.37-2.5-6.71h0Z"/>
    </g>
  </g>
  <g id="Ebene_11" data-name="Ebene 11">
    <path class="cls-6" d="m556.96,1033.06l-139.12-168.06c-9.6-11.6-23.86-15.65-31.84-9.05-7.98,6.61-6.67,21.37,2.94,32.97l139.12,168.06c9.6,11.6,23.86,15.65,31.84,9.05,7.98-6.61,6.67-21.37-2.94-32.97Z"/>
    <path class="cls-6" d="m496.54,624.34v228.44c0,15.77,17.28,28.55,38.59,28.55s38.59-12.78,38.59-28.55v-228.44c0-15.77-17.28-28.55-38.59-28.55s-38.59,12.78-38.59,28.55Z"/>
    <path class="cls-6" d="m554.46,836.71l-156.02,15.55c-10.77,1.07-18.63,10.68-17.56,21.45,1.07,10.77,10.68,18.63,21.45,17.56l156.02-15.55c10.77-1.07,18.63-10.68,17.56-21.45s-10.68-18.63-21.45-17.56Z"/>
    <path class="cls-6" d="m526.81,628.18l-24.85,137.81c-1.72,9.51,3.87,18.48,12.48,20.04,8.61,1.55,16.97-4.9,18.69-14.42l24.85-137.81c1.72-9.51-3.87-18.48-12.48-20.04-8.61-1.55-16.97,4.9-18.69,14.42Z"/>
    <path class="cls-6" d="m508.5,761.92l-85.35,58.04c-5.89,4.01-7.17,12.41-2.85,18.76,4.32,6.35,12.6,8.26,18.49,4.25l85.35-58.04c5.89-4.01,7.17-12.41,2.85-18.76-4.32-6.35-12.6-8.26-18.49-4.25Z"/>
    <circle class="cls-1" cx="518.96" cy="513.98" r="3.86"/>
  </g>
</svg>