<?xml version="1.0" encoding="UTF-8"?><svg xmlns="http://www.w3.org/2000/svg" viewBox="0 0 1029.6 990"><defs><style>.uuid-c4dc0600-3216-4a2f-8499-2903823ea27f{stroke:#307eef;}.uuid-c4dc0600-3216-4a2f-8499-2903823ea27f,.uuid-81f93f56-4cf7-4701-9753-e61b8edbb846,.uuid-e5a70ac6-7219-4d07-a789-26259b5aab08,.uuid-432ae013-a4ea-4cf7-94ee-0071aebf899f,.uuid-0caa08c7-9dd8-404b-94a0-3e022d6f4961,.uuid-b4e6472f-bbaa-4426-a10e-2a5a2209ec3d{stroke-miterlimit:10;}.uuid-c4dc0600-3216-4a2f-8499-2903823ea27f,.uuid-e5a70ac6-7219-4d07-a789-26259b5aab08,.uuid-b4e6472f-bbaa-4426-a10e-2a5a2209ec3d{fill:none;stroke-width:5.67px;}.uuid-81f93f56-4cf7-4701-9753-e61b8edbb846{stroke-linecap:round;}.uuid-81f93f56-4cf7-4701-9753-e61b8edbb846,.uuid-e5a70ac6-7219-4d07-a789-26259b5aab08,.uuid-0caa08c7-9dd8-404b-94a0-3e022d6f4961{stroke:#7f7f7f;}.uuid-81f93f56-4cf7-4701-9753-e61b8edbb846,.uuid-0caa08c7-9dd8-404b-94a0-3e022d6f4961{fill:#7f7f7f;stroke-width:4.09px;}.uuid-432ae013-a4ea-4cf7-94ee-0071aebf899f{fill:#0d1117;stroke:#0d1117;stroke-width:4.49px;}.uuid-1c79b03d-46d9-4911-86af-8080fbaadf6d{fill:#c9d1d9;font-family:Roboto-Regular, Roboto;font-size:48px;}.uuid-b4e6472f-bbaa-4426-a10e-2a5a2209ec3d{stroke:#c9d1d9;}</style></defs><g id="uuid-5cb376c7-ea40-4bf4-9dbb-2e6bbaedc051"><path class="uuid-c4dc0600-3216-4a2f-8499-2903823ea27f" d="M219.6,748.8c0,12.89-1.69,25.39-4.87,37.28"/><path class="uuid-c4dc0600-3216-4a2f-8499-2903823ea27f" d="M458.2,851.32c8.74-32.7,13.4-67.06,13.4-102.52s-4.66-69.82-13.4-102.52"/><path class="uuid-c4dc0600-3216-4a2f-8499-2903823ea27f" d="M507.6,748.8c0,38.68-5.08,76.17-14.62,111.84"/><path class="uuid-c4dc0600-3216-4a2f-8499-2903823ea27f" d="M597.33,888.6c11.92-44.59,18.27-91.45,18.27-139.8s-6.35-95.21-18.27-139.8"/><path class="uuid-c4dc0600-3216-4a2f-8499-2903823ea27f" d="M651.6,748.8c0,51.57-6.78,101.56-19.49,149.12"/><path class="uuid-c4dc0600-3216-4a2f-8499-2903823ea27f" d="M945.15,981.79c19.86-74.31,30.45-152.42,30.45-232.99"/><path class="uuid-c4dc0600-3216-4a2f-8499-2903823ea27f" d="M1011.6,748.8c0,83.8-11.01,165.03-31.67,242.31"/><path class="uuid-c4dc0600-3216-4a2f-8499-2903823ea27f" d="M875.58,963.15c18.28-68.37,28.02-140.22,28.02-214.35"/><path class="uuid-c4dc0600-3216-4a2f-8499-2903823ea27f" d="M939.6,748.8c0,77.35-10.17,152.33-29.23,223.68"/><path class="uuid-c4dc0600-3216-4a2f-8499-2903823ea27f" d="M806.02,944.51c16.69-62.42,25.58-128.03,25.58-195.71"/><path class="uuid-c4dc0600-3216-4a2f-8499-2903823ea27f" d="M867.6,748.8c0,70.91-9.32,139.64-26.8,205.04"/><path class="uuid-c4dc0600-3216-4a2f-8499-2903823ea27f" d="M736.45,925.87c15.1-56.48,23.15-115.84,23.15-177.07"/><path class="uuid-c4dc0600-3216-4a2f-8499-2903823ea27f" d="M795.6,748.8c0,64.46-8.47,126.95-24.36,186.4"/><path class="uuid-c4dc0600-3216-4a2f-8499-2903823ea27f" d="M666.88,907.23c13.51-50.53,20.72-103.64,20.72-158.43"/><path class="uuid-c4dc0600-3216-4a2f-8499-2903823ea27f" d="M723.6,748.8c0,58.02-7.62,114.25-21.92,167.76"/><path class="uuid-c4dc0600-3216-4a2f-8499-2903823ea27f" d="M562.54,879.28c11.13-41.61,17.06-85.35,17.06-130.48"/><path class="uuid-c4dc0600-3216-4a2f-8499-2903823ea27f" d="M527.76,869.96c10.33-38.64,15.84-79.26,15.84-121.16"/><path class="uuid-c4dc0600-3216-4a2f-8499-2903823ea27f" d="M249.51,702.2c3.97,14.86,6.09,30.48,6.09,46.6s-2.12,31.74-6.1,46.6"/><path class="uuid-c4dc0600-3216-4a2f-8499-2903823ea27f" d="M388.63,832.68c7.15-26.75,10.97-54.87,10.97-83.88s-3.81-57.13-10.96-83.88"/><path class="uuid-c4dc0600-3216-4a2f-8499-2903823ea27f" d="M319.07,814.04c5.56-20.81,8.53-42.68,8.53-65.24"/><path class="uuid-c4dc0600-3216-4a2f-8499-2903823ea27f" d="M284.29,804.72c4.77-17.83,7.31-36.58,7.31-55.92"/><path class="uuid-c4dc0600-3216-4a2f-8499-2903823ea27f" d="M179.94,776.76c2.39-8.92,3.66-18.29,3.66-27.96"/><path class="uuid-c4dc0600-3216-4a2f-8499-2903823ea27f" d="M145.16,767.44c1.59-5.94,2.44-12.19,2.44-18.64s-.85-12.69-2.44-18.64"/><path class="uuid-c4dc0600-3216-4a2f-8499-2903823ea27f" d="M423.41,842c7.95-29.72,12.19-60.97,12.19-93.2"/><path class="uuid-c4dc0600-3216-4a2f-8499-2903823ea27f" d="M353.85,823.36c6.36-23.78,9.75-48.77,9.75-74.56"/><path class="uuid-c4dc0600-3216-4a2f-8499-2903823ea27f" d="M219.6,748.8c0-12.89-1.69-25.39-4.87-37.28"/><path class="uuid-c4dc0600-3216-4a2f-8499-2903823ea27f" d="M507.6,748.8c0-38.68-5.08-76.17-14.62-111.84"/><path class="uuid-c4dc0600-3216-4a2f-8499-2903823ea27f" d="M651.6,748.8c0-51.57-6.78-101.56-19.49-149.12"/><path class="uuid-c4dc0600-3216-4a2f-8499-2903823ea27f" d="M945.15,515.81c19.86,74.31,30.45,152.42,30.45,232.99"/><path class="uuid-c4dc0600-3216-4a2f-8499-2903823ea27f" d="M1011.6,748.8c0-83.8-11.01-165.03-31.67-242.31"/><path class="uuid-c4dc0600-3216-4a2f-8499-2903823ea27f" d="M875.58,534.45c18.28,68.37,28.02,140.22,28.02,214.35"/><path class="uuid-c4dc0600-3216-4a2f-8499-2903823ea27f" d="M939.6,748.8c0-77.35-10.17-152.33-29.23-223.68"/><path class="uuid-c4dc0600-3216-4a2f-8499-2903823ea27f" d="M806.02,553.09c16.69,62.42,25.58,128.03,25.58,195.71"/><path class="uuid-c4dc0600-3216-4a2f-8499-2903823ea27f" d="M867.6,748.8c0-70.91-9.32-139.64-26.8-205.04"/><path class="uuid-c4dc0600-3216-4a2f-8499-2903823ea27f" d="M736.45,571.73c15.1,56.48,23.15,115.84,23.15,177.07"/><path class="uuid-c4dc0600-3216-4a2f-8499-2903823ea27f" d="M795.6,748.8c0-64.46-8.47-126.95-24.36-186.4"/><path class="uuid-c4dc0600-3216-4a2f-8499-2903823ea27f" d="M666.88,590.37c13.51,50.53,20.72,103.64,20.72,158.43"/><path class="uuid-c4dc0600-3216-4a2f-8499-2903823ea27f" d="M723.6,748.8c0-58.02-7.62-114.25-21.92-167.76"/><path class="uuid-c4dc0600-3216-4a2f-8499-2903823ea27f" d="M562.54,618.32c11.13,41.61,17.06,85.35,17.06,130.48"/><path class="uuid-c4dc0600-3216-4a2f-8499-2903823ea27f" d="M527.76,627.64c10.33,38.64,15.84,79.26,15.84,121.16"/><path class="uuid-c4dc0600-3216-4a2f-8499-2903823ea27f" d="M319.07,683.56c5.56,20.81,8.53,42.68,8.53,65.24"/><path class="uuid-c4dc0600-3216-4a2f-8499-2903823ea27f" d="M284.29,692.88c4.77,17.83,7.31,36.58,7.31,55.92"/><path class="uuid-c4dc0600-3216-4a2f-8499-2903823ea27f" d="M179.94,720.84c2.39,8.92,3.66,18.29,3.66,27.96"/><path class="uuid-c4dc0600-3216-4a2f-8499-2903823ea27f" d="M423.41,655.6c7.95,29.72,12.19,60.97,12.19,93.2"/><path class="uuid-c4dc0600-3216-4a2f-8499-2903823ea27f" d="M353.85,674.24c6.36,23.78,9.75,48.77,9.75,74.56"/><rect class="uuid-e5a70ac6-7219-4d07-a789-26259b5aab08" x="38.05" y="718.45" width="100.8" height="60.7" transform="translate(837.25 660.35) rotate(90)"/><rect class="uuid-e5a70ac6-7219-4d07-a789-26259b5aab08" x="67.45" y="738.68" width="42" height="20.23" transform="translate(-660.35 837.25) rotate(-90)"/><polygon class="uuid-e5a70ac6-7219-4d07-a789-26259b5aab08" points="98.57 727.8 98.57 769.8 118.8 792.9 118.8 704.7 98.57 727.8"/><path class="uuid-c4dc0600-3216-4a2f-8499-2903823ea27f" d="M1011.6,243.96c0,83.8-11.01,165.03-31.67,242.31"/><path class="uuid-c4dc0600-3216-4a2f-8499-2903823ea27f" d="M795.6,243.96c0,64.46-8.47,126.95-24.36,186.4"/><path class="uuid-c4dc0600-3216-4a2f-8499-2903823ea27f" d="M562.54,374.43c11.13-41.61,17.06-85.35,17.06-130.48"/><path class="uuid-c4dc0600-3216-4a2f-8499-2903823ea27f" d="M145.16,262.6c1.59-5.94,2.44-12.19,2.44-18.64s-.85-12.69-2.44-18.64"/><path class="uuid-c4dc0600-3216-4a2f-8499-2903823ea27f" d="M353.85,318.52c6.36-23.78,9.75-48.77,9.75-74.56"/><path class="uuid-c4dc0600-3216-4a2f-8499-2903823ea27f" d="M1011.6,243.96c0-83.8-11.01-165.03-31.67-242.31"/><path class="uuid-c4dc0600-3216-4a2f-8499-2903823ea27f" d="M795.6,243.96c0-64.46-8.47-126.95-24.36-186.4"/><path class="uuid-c4dc0600-3216-4a2f-8499-2903823ea27f" d="M562.54,113.48c11.13,41.61,17.06,85.35,17.06,130.48"/><path class="uuid-c4dc0600-3216-4a2f-8499-2903823ea27f" d="M353.85,169.4c6.36,23.78,9.75,48.77,9.75,74.56"/><rect class="uuid-e5a70ac6-7219-4d07-a789-26259b5aab08" x="38.05" y="213.61" width="100.8" height="60.7" transform="translate(332.41 155.51) rotate(90)"/><rect class="uuid-e5a70ac6-7219-4d07-a789-26259b5aab08" x="67.45" y="233.84" width="42" height="20.23" transform="translate(-155.51 332.41) rotate(-90)"/><polygon class="uuid-e5a70ac6-7219-4d07-a789-26259b5aab08" points="98.57 222.96 98.57 264.96 118.8 288.06 118.8 199.86 98.57 222.96"/><ellipse class="uuid-432ae013-a4ea-4cf7-94ee-0071aebf899f" cx="864" cy="754.2" rx="140.4" ry="84.6"/><path class="uuid-0caa08c7-9dd8-404b-94a0-3e022d6f4961" d="M765.25,672.78c-6.16-23.07-14.92-13.62-18.66.03-35.32,5.22-62.59,39.43-62.59,80.85,0,45.04,32.24,81.55,72,81.55s72-36.51,72-81.55c0-41.49-27.36-75.74-62.75-80.88Z"/><path class="uuid-81f93f56-4cf7-4701-9753-e61b8edbb846" d="M676.8,742c5.15,8.37,4.45,21.14,0,26.63"/><path class="uuid-81f93f56-4cf7-4701-9753-e61b8edbb846" d="M835.2,768.63c-5.15-8.37-4.45-21.14,0-26.63"/><line class="uuid-b4e6472f-bbaa-4426-a10e-2a5a2209ec3d" x1="644.4" y1="964.8" x2="885.6" y2="766.8"/><path class="uuid-0caa08c7-9dd8-404b-94a0-3e022d6f4961" d="M765.25,167.93c-6.16-23.07-14.92-13.62-18.66.03-35.32,5.22-62.59,39.43-62.59,80.85,0,45.04,32.24,81.55,72,81.55s72-36.51,72-81.55c0-41.49-27.36-75.74-62.75-80.88Z"/><path class="uuid-81f93f56-4cf7-4701-9753-e61b8edbb846" d="M676.8,237.16c5.15,8.37,4.45,21.14,0,26.63"/><path class="uuid-81f93f56-4cf7-4701-9753-e61b8edbb846" d="M835.2,263.79c-5.15-8.37-4.45-21.14,0-26.63"/></g><g id="uuid-eebf647b-f30c-482a-a19d-e5c2a01c08d7"><text class="uuid-1c79b03d-46d9-4911-86af-8080fbaadf6d" transform="translate(273.6 972)"><tspan x="0" y="0">acoustic shadow</tspan></text><text class="uuid-1c79b03d-46d9-4911-86af-8080fbaadf6d" transform="translate(33.8 864)"><tspan x="0" y="0">3kHz</tspan></text><text class="uuid-1c79b03d-46d9-4911-86af-8080fbaadf6d" transform="translate(19.02 360)"><tspan x="0" y="0">200Hz</tspan></text></g></svg>