<?xml version="1.0" encoding="UTF-8"?>
<svg id="Ebene_1" data-name="Ebene 1" xmlns="http://www.w3.org/2000/svg" width="1657.8" height="791.1" viewBox="0 0 1657.8 791.1">
  <g id="Ebene_4" data-name="Ebene 4">
    <line x1="397.8" y1="720" x2="397.8" y2="72" fill="none" stroke="#c9d1d9" stroke-miterlimit="10" stroke-width="3"/>
    <line x1="721.8" y1="396" x2="73.8" y2="396" fill="none" stroke="#c9d1d9" stroke-miterlimit="10" stroke-width="3"/>
    <line x1="383.4" y1="504" x2="412.2" y2="504" fill="none" stroke="#c9d1d9" stroke-miterlimit="10" stroke-width="3"/>
    <line x1="383.4" y1="612" x2="412.2" y2="612" fill="none" stroke="#c9d1d9" stroke-miterlimit="10" stroke-width="3"/>
    <line x1="505.8" y1="410.4" x2="505.8" y2="381.6" fill="none" stroke="#c9d1d9" stroke-miterlimit="10" stroke-width="3"/>
    <line x1="613.8" y1="410.4" x2="613.8" y2="381.6" fill="none" stroke="#c9d1d9" stroke-miterlimit="10" stroke-width="3"/>
    <line x1="412.2" y1="288" x2="383.4" y2="288" fill="none" stroke="#c9d1d9" stroke-miterlimit="10" stroke-width="3"/>
    <line x1="412.2" y1="180" x2="383.4" y2="180" fill="none" stroke="#c9d1d9" stroke-miterlimit="10" stroke-width="3"/>
    <line x1="289.8" y1="381.6" x2="289.8" y2="410.4" fill="none" stroke="#c9d1d9" stroke-miterlimit="10" stroke-width="3"/>
    <line x1="181.8" y1="381.6" x2="181.8" y2="410.4" fill="none" stroke="#c9d1d9" stroke-miterlimit="10" stroke-width="3"/>
    <g isolation="isolate">
      <g isolation="isolate">
        <path d="m375.128,751.855h-8.578v-2.654h8.578v2.654Z" fill="#c9d1d9"/>
        <path d="m382.687,747.021h2.443c1.535-.023,2.742-.428,3.621-1.213s1.318-1.846,1.318-3.182c0-3-1.494-4.5-4.482-4.5-1.406,0-2.528.401-3.366,1.204s-1.257,1.866-1.257,3.19h-3.252c0-2.027.741-3.712,2.224-5.054s3.366-2.013,5.651-2.013c2.414,0,4.307.639,5.678,1.916s2.057,3.053,2.057,5.326c0,1.113-.36,2.191-1.081,3.234s-1.702,1.822-2.944,2.338c1.406.445,2.493,1.184,3.261,2.215s1.151,2.291,1.151,3.779c0,2.297-.75,4.119-2.25,5.467s-3.451,2.021-5.854,2.021-4.356-.65-5.862-1.951-2.259-3.018-2.259-5.15h3.27c0,1.348.439,2.426,1.318,3.234s2.057,1.213,3.533,1.213c1.57,0,2.771-.41,3.604-1.23s1.248-1.998,1.248-3.533c0-1.488-.457-2.631-1.371-3.428s-2.232-1.207-3.955-1.23h-2.443v-2.654Z" fill="#c9d1d9"/>
        <path d="m414.222,750.484c0,3.809-.65,6.639-1.951,8.49s-3.334,2.777-6.1,2.777c-2.73,0-4.752-.905-6.064-2.716s-1.992-4.515-2.039-8.112v-4.342c0-3.762.65-6.557,1.951-8.385s3.34-2.742,6.117-2.742c2.754,0,4.781.882,6.082,2.646s1.969,4.485,2.004,8.165v4.219Zm-3.252-4.447c0-2.754-.387-4.761-1.16-6.021s-1.998-1.89-3.674-1.89c-1.664,0-2.877.627-3.639,1.881s-1.154,3.182-1.178,5.783v5.203c0,2.766.401,4.808,1.204,6.126s2.019,1.978,3.647,1.978c1.605,0,2.798-.621,3.577-1.863s1.187-3.199,1.222-5.871v-5.326Z" fill="#c9d1d9"/>
        <path d="m418.546,740.025c0-1.219.437-2.285,1.31-3.199s1.931-1.371,3.173-1.371c1.219,0,2.259.454,3.12,1.362s1.292,1.978,1.292,3.208c0,1.242-.431,2.303-1.292,3.182s-1.901,1.318-3.12,1.318c-1.23,0-2.285-.439-3.164-1.318s-1.318-1.939-1.318-3.182Zm4.482,2.25c.633,0,1.166-.207,1.6-.621.434-.415.65-.955.65-1.62,0-.677-.217-1.234-.65-1.673-.434-.438-.967-.656-1.6-.656-.645,0-1.187.23-1.626.691-.439.462-.659,1.008-.659,1.638s.22,1.161.659,1.594c.439.432.981.647,1.626.647Z" fill="#c9d1d9"/>
      </g>
    </g>
    <g isolation="isolate">
      <g isolation="isolate">
        <path d="m377.715,37.821h2.443c1.535-.023,2.742-.428,3.621-1.213s1.318-1.846,1.318-3.182c0-3-1.494-4.5-4.482-4.5-1.406,0-2.528.401-3.366,1.204s-1.257,1.866-1.257,3.19h-3.252c0-2.027.741-3.712,2.224-5.054s3.366-2.013,5.651-2.013c2.414,0,4.307.639,5.678,1.916s2.057,3.053,2.057,5.326c0,1.113-.36,2.191-1.081,3.234s-1.702,1.822-2.944,2.338c1.406.445,2.493,1.184,3.261,2.215s1.151,2.291,1.151,3.779c0,2.297-.75,4.119-2.25,5.467s-3.451,2.021-5.854,2.021-4.356-.65-5.862-1.951-2.259-3.018-2.259-5.15h3.27c0,1.348.439,2.426,1.318,3.234s2.057,1.213,3.533,1.213c1.57,0,2.771-.41,3.604-1.23s1.248-1.998,1.248-3.533c0-1.488-.457-2.631-1.371-3.428s-2.232-1.207-3.955-1.23h-2.443v-2.654Z" fill="#c9d1d9"/>
        <path d="m409.25,41.284c0,3.809-.65,6.639-1.951,8.49s-3.334,2.777-6.1,2.777c-2.73,0-4.752-.905-6.064-2.716s-1.992-4.515-2.039-8.112v-4.342c0-3.762.65-6.557,1.951-8.385s3.34-2.742,6.117-2.742c2.754,0,4.781.882,6.082,2.646s1.969,4.485,2.004,8.165v4.219Zm-3.252-4.447c0-2.754-.387-4.761-1.16-6.021s-1.998-1.89-3.674-1.89c-1.664,0-2.877.627-3.639,1.881s-1.154,3.182-1.178,5.783v5.203c0,2.766.401,4.808,1.204,6.126s2.019,1.978,3.647,1.978c1.605,0,2.798-.621,3.577-1.863s1.187-3.199,1.222-5.871v-5.326Z" fill="#c9d1d9"/>
        <path d="m413.575,30.825c0-1.219.437-2.285,1.31-3.199s1.931-1.371,3.173-1.371c1.219,0,2.259.454,3.12,1.362s1.292,1.978,1.292,3.208c0,1.242-.431,2.303-1.292,3.182s-1.901,1.318-3.12,1.318c-1.23,0-2.285-.439-3.164-1.318s-1.318-1.939-1.318-3.182Zm4.482,2.25c.633,0,1.166-.207,1.6-.621.434-.415.65-.955.65-1.62,0-.677-.217-1.234-.65-1.673-.434-.438-.967-.656-1.6-.656-.645,0-1.187.23-1.626.691-.439.462-.659,1.008-.659,1.638s.22,1.161.659,1.594c.439.432.981.647,1.626.647Z" fill="#c9d1d9"/>
      </g>
    </g>
    <g isolation="isolate">
      <g isolation="isolate">
        <path d="m36.488,438.655h-8.578v-2.654h8.578v2.654Z" fill="#c9d1d9"/>
        <path d="m44.047,433.821h2.443c1.535-.023,2.742-.428,3.621-1.213s1.318-1.846,1.318-3.182c0-3-1.494-4.5-4.482-4.5-1.406,0-2.528.401-3.366,1.204s-1.257,1.866-1.257,3.19h-3.252c0-2.027.741-3.712,2.224-5.054s3.366-2.013,5.651-2.013c2.414,0,4.307.639,5.678,1.916s2.057,3.053,2.057,5.326c0,1.113-.36,2.191-1.081,3.234s-1.702,1.822-2.944,2.338c1.406.445,2.493,1.184,3.261,2.215s1.151,2.291,1.151,3.779c0,2.297-.75,4.119-2.25,5.467s-3.451,2.021-5.854,2.021-4.356-.65-5.862-1.951-2.259-3.018-2.259-5.15h3.27c0,1.348.439,2.426,1.318,3.234s2.057,1.213,3.533,1.213c1.57,0,2.771-.41,3.604-1.23s1.248-1.998,1.248-3.533c0-1.488-.457-2.631-1.371-3.428s-2.232-1.207-3.955-1.23h-2.443v-2.654Z" fill="#c9d1d9"/>
        <path d="m75.582,437.284c0,3.809-.65,6.639-1.951,8.49s-3.334,2.777-6.1,2.777c-2.73,0-4.752-.905-6.064-2.716s-1.992-4.515-2.039-8.112v-4.342c0-3.762.65-6.557,1.951-8.385s3.34-2.742,6.117-2.742c2.754,0,4.781.882,6.082,2.646s1.969,4.485,2.004,8.165v4.219Zm-3.252-4.447c0-2.754-.387-4.761-1.16-6.021s-1.998-1.89-3.674-1.89c-1.664,0-2.877.627-3.639,1.881s-1.154,3.182-1.178,5.783v5.203c0,2.766.401,4.808,1.204,6.126s2.019,1.978,3.647,1.978c1.605,0,2.798-.621,3.577-1.863s1.187-3.199,1.222-5.871v-5.326Z" fill="#c9d1d9"/>
        <path d="m79.291,438.532c0-2.918.691-5.265,2.074-7.04s3.193-2.663,5.432-2.663c2.227,0,3.99.762,5.291,2.285v-9.914h3.252v27h-2.988l-.158-2.039c-1.301,1.594-3.111,2.391-5.432,2.391-2.203,0-3.999-.902-5.388-2.707s-2.083-4.16-2.083-7.066v-.246Zm3.252.369c0,2.156.445,3.844,1.336,5.062s2.121,1.828,3.691,1.828c2.062,0,3.568-.926,4.518-2.777v-8.736c-.973-1.793-2.467-2.689-4.482-2.689-1.594,0-2.836.615-3.727,1.846s-1.336,3.053-1.336,5.467Z" fill="#c9d1d9"/>
        <path d="m100.895,448.2v-25.594h8.367c2.777,0,4.866.574,6.267,1.723s2.101,2.848,2.101,5.098c0,1.195-.34,2.253-1.02,3.173s-1.605,1.632-2.777,2.136c1.383.387,2.476,1.122,3.278,2.206s1.204,2.376,1.204,3.876c0,2.297-.744,4.102-2.232,5.414s-3.592,1.969-6.311,1.969h-8.877Zm3.375-14.678h5.098c1.477,0,2.657-.37,3.542-1.109.885-.74,1.327-1.744,1.327-3.013,0-1.409-.41-2.434-1.23-3.074-.82-.64-2.068-.96-3.744-.96h-4.992v8.156Zm0,2.707v9.211h5.572c1.57,0,2.81-.407,3.718-1.222s1.362-1.937,1.362-3.366c0-3.082-1.676-4.623-5.027-4.623h-5.625Z" fill="#c9d1d9"/>
      </g>
    </g>
    <g isolation="isolate">
      <g isolation="isolate">
        <path d="m681.797,434.472h7.137v3.076h-7.137v8.086h-3.27v-8.086h-7.137v-3.076h7.137v-7.471h3.27v7.471Z" fill="#c9d1d9"/>
        <path d="m697.284,433.821h2.443c1.535-.023,2.742-.428,3.621-1.213s1.318-1.846,1.318-3.182c0-3-1.494-4.5-4.482-4.5-1.406,0-2.528.401-3.366,1.204s-1.257,1.866-1.257,3.19h-3.252c0-2.027.741-3.712,2.224-5.054s3.366-2.013,5.651-2.013c2.414,0,4.307.639,5.678,1.916s2.057,3.053,2.057,5.326c0,1.113-.36,2.191-1.081,3.234s-1.702,1.822-2.944,2.338c1.406.445,2.493,1.184,3.261,2.215s1.151,2.291,1.151,3.779c0,2.297-.75,4.119-2.25,5.467s-3.451,2.021-5.854,2.021-4.356-.65-5.862-1.951-2.259-3.018-2.259-5.15h3.27c0,1.348.439,2.426,1.318,3.234s2.057,1.213,3.533,1.213c1.57,0,2.771-.41,3.604-1.23s1.248-1.998,1.248-3.533c0-1.488-.457-2.631-1.371-3.428s-2.232-1.207-3.955-1.23h-2.443v-2.654Z" fill="#c9d1d9"/>
        <path d="m728.819,437.284c0,3.809-.65,6.639-1.951,8.49s-3.334,2.777-6.1,2.777c-2.73,0-4.752-.905-6.064-2.716s-1.992-4.515-2.039-8.112v-4.342c0-3.762.65-6.557,1.951-8.385s3.34-2.742,6.117-2.742c2.754,0,4.781.882,6.082,2.646s1.969,4.485,2.004,8.165v4.219Zm-3.252-4.447c0-2.754-.387-4.761-1.16-6.021s-1.998-1.89-3.674-1.89c-1.664,0-2.877.627-3.639,1.881s-1.154,3.182-1.178,5.783v5.203c0,2.766.401,4.808,1.204,6.126s2.019,1.978,3.647,1.978c1.605,0,2.798-.621,3.577-1.863s1.187-3.199,1.222-5.871v-5.326Z" fill="#c9d1d9"/>
        <path d="m732.528,438.532c0-2.918.691-5.265,2.074-7.04s3.193-2.663,5.432-2.663c2.227,0,3.99.762,5.291,2.285v-9.914h3.252v27h-2.988l-.158-2.039c-1.301,1.594-3.111,2.391-5.432,2.391-2.203,0-3.999-.902-5.388-2.707s-2.083-4.16-2.083-7.066v-.246Zm3.252.369c0,2.156.445,3.844,1.336,5.062s2.121,1.828,3.691,1.828c2.062,0,3.568-.926,4.518-2.777v-8.736c-.973-1.793-2.467-2.689-4.482-2.689-1.594,0-2.836.615-3.727,1.846s-1.336,3.053-1.336,5.467Z" fill="#c9d1d9"/>
        <path d="m754.131,448.2v-25.594h8.367c2.777,0,4.866.574,6.267,1.723s2.101,2.848,2.101,5.098c0,1.195-.34,2.253-1.02,3.173s-1.605,1.632-2.777,2.136c1.383.387,2.476,1.122,3.278,2.206s1.204,2.376,1.204,3.876c0,2.297-.744,4.102-2.232,5.414s-3.592,1.969-6.311,1.969h-8.877Zm3.375-14.678h5.098c1.477,0,2.657-.37,3.542-1.109.885-.74,1.327-1.744,1.327-3.013,0-1.409-.41-2.434-1.23-3.074-.82-.64-2.068-.96-3.744-.96h-4.992v8.156Zm0,2.707v9.211h5.572c1.57,0,2.81-.407,3.718-1.222s1.362-1.937,1.362-3.366c0-3.082-1.676-4.623-5.027-4.623h-5.625Z" fill="#c9d1d9"/>
      </g>
    </g>
    <g>
      <path d="m471.46,491.4h-3.25v-27h3.25v27Z" fill="#c9d1d9"/>
      <path d="m484.55,491.75c-2.58,0-4.68-.85-6.29-2.54s-2.43-3.96-2.43-6.79v-.6c0-1.89.36-3.57,1.08-5.05s1.73-2.64,3.02-3.48,2.7-1.26,4.21-1.26c2.47,0,4.39.81,5.77,2.44s2.06,3.96,2.06,7v1.35h-12.88c.05,1.88.59,3.39,1.64,4.54s2.38,1.73,4,1.73c1.15,0,2.12-.23,2.92-.7s1.49-1.09,2.09-1.86l1.99,1.55c-1.59,2.45-3.98,3.67-7.17,3.67h-.01Zm-.4-17.05c-1.31,0-2.41.48-3.3,1.43s-1.44,2.29-1.65,4.02h9.53v-.25c-.09-1.65-.54-2.93-1.34-3.84s-1.88-1.36-3.23-1.36h-.01Z" fill="#c9d1d9"/>
      <path d="m501.78,486.99l4.71-14.61h3.32l-6.82,19.02h-2.48l-6.89-19.02h3.32l4.83,14.61h.01Z" fill="#c9d1d9"/>
      <path d="m520.6,491.75c-2.58,0-4.68-.85-6.29-2.54s-2.43-3.96-2.43-6.79v-.6c0-1.89.36-3.57,1.08-5.05s1.73-2.64,3.02-3.48,2.7-1.26,4.21-1.26c2.47,0,4.39.81,5.77,2.44s2.06,3.96,2.06,7v1.35h-12.88c.05,1.88.59,3.39,1.64,4.54s2.38,1.73,4,1.73c1.15,0,2.12-.23,2.92-.7s1.49-1.09,2.09-1.86l1.99,1.55c-1.59,2.45-3.98,3.67-7.17,3.67h-.01Zm-.4-17.05c-1.31,0-2.41.48-3.3,1.43s-1.44,2.29-1.65,4.02h9.53v-.25c-.09-1.65-.54-2.93-1.34-3.84s-1.88-1.36-3.23-1.36h-.01Z" fill="#c9d1d9"/>
      <path d="m535.32,491.4h-3.25v-27h3.25v27Z" fill="#c9d1d9"/>
      <path d="m548.64,481.73c0-2.92.69-5.26,2.07-7.04s3.19-2.66,5.43-2.66,3.99.76,5.29,2.29v-9.91h3.25v27h-2.99l-.16-2.04c-1.3,1.59-3.11,2.39-5.43,2.39s-4-.9-5.39-2.71-2.08-4.16-2.08-7.07v-.25h.01Zm3.25.37c0,2.16.45,3.84,1.34,5.06s2.12,1.83,3.69,1.83c2.06,0,3.57-.93,4.52-2.78v-8.74c-.97-1.79-2.47-2.69-4.48-2.69-1.59,0-2.84.62-3.73,1.85s-1.34,3.05-1.34,5.47h0Z" fill="#c9d1d9"/>
      <path d="m569.75,467.34c0-.53.16-.97.48-1.34s.8-.54,1.43-.54,1.11.18,1.44.54.49.81.49,1.34-.16.97-.49,1.32-.81.53-1.44.53-1.11-.18-1.43-.53-.48-.79-.48-1.32Zm3.52,24.06h-3.25v-19.02h3.25v19.02Z" fill="#c9d1d9"/>
      <path d="m580.07,491.4v-16.51h-3.01v-2.51h3.01v-1.95c0-2.04.54-3.61,1.63-4.73s2.63-1.67,4.62-1.67c.75,0,1.49.1,2.23.3l-.18,2.62c-.55-.11-1.14-.16-1.76-.16-1.05,0-1.87.31-2.44.93s-.86,1.5-.86,2.65v2.01h4.06v2.51h-4.06v16.51h-3.25.01Z" fill="#c9d1d9"/>
      <path d="m592.57,491.4v-16.51h-3.01v-2.51h3.01v-1.95c0-2.04.54-3.61,1.63-4.73s2.63-1.67,4.62-1.67c.75,0,1.49.1,2.23.3l-.18,2.62c-.55-.11-1.14-.16-1.76-.16-1.05,0-1.87.31-2.44.93s-.86,1.5-.86,2.65v2.01h4.06v2.51h-4.06v16.51h-3.25.01Z" fill="#c9d1d9"/>
      <path d="m610.94,491.75c-2.58,0-4.68-.85-6.29-2.54s-2.43-3.96-2.43-6.79v-.6c0-1.89.36-3.57,1.08-5.05s1.73-2.64,3.02-3.48,2.7-1.26,4.21-1.26c2.47,0,4.39.81,5.77,2.44s2.06,3.96,2.06,7v1.35h-12.88c.05,1.88.59,3.39,1.64,4.54s2.38,1.73,4,1.73c1.15,0,2.12-.23,2.92-.7s1.49-1.09,2.09-1.86l1.99,1.55c-1.59,2.45-3.98,3.67-7.17,3.67h-.01Zm-.4-17.05c-1.31,0-2.41.48-3.3,1.43s-1.44,2.29-1.65,4.02h9.53v-.25c-.09-1.65-.54-2.93-1.34-3.84s-1.88-1.36-3.23-1.36h-.01Z" fill="#c9d1d9"/>
      <path d="m631.31,475.3c-.49-.08-1.03-.12-1.6-.12-2.13,0-3.58.91-4.34,2.72v13.5h-3.25v-19.02h3.16l.05,2.2c1.07-1.7,2.58-2.55,4.54-2.55.63,0,1.11.08,1.44.25v3.02h0Z" fill="#c9d1d9"/>
      <path d="m641.86,491.75c-2.58,0-4.68-.85-6.29-2.54s-2.43-3.96-2.43-6.79v-.6c0-1.89.36-3.57,1.08-5.05s1.73-2.64,3.02-3.48,2.7-1.26,4.21-1.26c2.47,0,4.39.81,5.77,2.44s2.06,3.96,2.06,7v1.35h-12.88c.05,1.88.59,3.39,1.64,4.54s2.38,1.73,4,1.73c1.15,0,2.12-.23,2.92-.7s1.49-1.09,2.09-1.86l1.99,1.55c-1.59,2.45-3.98,3.67-7.17,3.67h-.01Zm-.4-17.05c-1.31,0-2.41.48-3.3,1.43s-1.44,2.29-1.65,4.02h9.53v-.25c-.09-1.65-.54-2.93-1.34-3.84s-1.88-1.36-3.23-1.36h-.01Z" fill="#c9d1d9"/>
      <path d="m656.11,472.38l.11,2.39c1.45-1.83,3.35-2.74,5.7-2.74,4.02,0,6.05,2.27,6.08,6.8v12.57h-3.25v-12.59c-.01-1.37-.33-2.38-.94-3.04s-1.57-.98-2.87-.98c-1.05,0-1.98.28-2.78.84s-1.42,1.3-1.86,2.21v13.55h-3.25v-19.02h3.08l-.02.01Z" fill="#c9d1d9"/>
      <path d="m680.53,489.1c1.16,0,2.17-.35,3.04-1.05s1.35-1.58,1.44-2.64h3.08c-.06,1.09-.43,2.13-1.12,3.11s-1.61,1.77-2.77,2.36-2.38.88-3.67.88c-2.59,0-4.65-.86-6.18-2.59s-2.29-4.09-2.29-7.09v-.54c0-1.85.34-3.5,1.02-4.94s1.66-2.56,2.93-3.36,2.77-1.2,4.51-1.2c2.13,0,3.91.64,5.32,1.92s2.17,2.94,2.26,4.97h-3.08c-.09-1.23-.56-2.24-1.4-3.03s-1.87-1.19-3.1-1.19c-1.65,0-2.93.59-3.84,1.78s-1.36,2.91-1.36,5.16v.62c0,2.19.45,3.88,1.35,5.06s2.19,1.78,3.87,1.78l-.01-.01Z" fill="#c9d1d9"/>
      <path d="m699.64,491.75c-2.58,0-4.68-.85-6.29-2.54s-2.43-3.96-2.43-6.79v-.6c0-1.89.36-3.57,1.08-5.05s1.73-2.64,3.02-3.48,2.7-1.26,4.21-1.26c2.47,0,4.39.81,5.77,2.44s2.06,3.96,2.06,7v1.35h-12.88c.05,1.88.59,3.39,1.64,4.54s2.38,1.73,4,1.73c1.15,0,2.12-.23,2.92-.7s1.49-1.09,2.09-1.86l1.99,1.55c-1.59,2.45-3.98,3.67-7.17,3.67h-.01Zm-.4-17.05c-1.31,0-2.41.48-3.3,1.43s-1.44,2.29-1.65,4.02h9.53v-.25c-.09-1.65-.54-2.93-1.34-3.84s-1.88-1.36-3.23-1.36h-.01Z" fill="#c9d1d9"/>
      <path d="m467.8,524.21c0-2.65.35-5.19,1.06-7.63s1.77-4.65,3.17-6.64,2.87-3.4,4.38-4.22l.67,2.14c-1.71,1.31-3.11,3.32-4.21,6.01-1.1,2.69-1.7,5.71-1.8,9.05l-.02,1.49c0,4.52.83,8.45,2.48,11.78,1,1.99,2.18,3.55,3.55,4.68l-.67,1.99c-1.56-.87-3.05-2.32-4.46-4.36-2.77-3.98-4.15-8.75-4.15-14.29h0Z" fill="#c9d1d9"/>
      <path d="m483.76,534.6h-3.25v-27h3.25v27Z" fill="#c9d1d9"/>
      <path d="m496.86,534.95c-2.58,0-4.68-.85-6.29-2.54s-2.43-3.96-2.43-6.79v-.6c0-1.89.36-3.57,1.08-5.05s1.73-2.64,3.02-3.48,2.7-1.26,4.21-1.26c2.47,0,4.39.81,5.77,2.44s2.06,3.96,2.06,7v1.35h-12.88c.05,1.88.59,3.39,1.64,4.54s2.38,1.73,4,1.73c1.15,0,2.12-.23,2.92-.7s1.49-1.09,2.09-1.86l1.99,1.55c-1.59,2.45-3.98,3.67-7.17,3.67h-.01Zm-.4-17.05c-1.31,0-2.41.48-3.3,1.43s-1.44,2.29-1.65,4.02h9.53v-.25c-.09-1.65-.54-2.93-1.34-3.84s-1.88-1.36-3.23-1.36h-.01Z" fill="#c9d1d9"/>
      <path d="m509.64,534.6v-16.51h-3.01v-2.51h3.01v-1.95c0-2.04.54-3.62,1.63-4.73,1.09-1.11,2.63-1.67,4.62-1.67.75,0,1.49.1,2.23.3l-.18,2.62c-.55-.11-1.14-.16-1.76-.16-1.05,0-1.87.31-2.44.93s-.86,1.5-.86,2.65v2.01h4.06v2.51h-4.06v16.51h-3.25.01Z" fill="#c9d1d9"/>
      <path d="m524.95,510.97v4.61h3.55v2.51h-3.55v11.81c0,.76.16,1.33.47,1.72.32.38.86.57,1.62.57.38,0,.89-.07,1.55-.21v2.62c-.86.23-1.69.35-2.5.35-1.45,0-2.55-.44-3.29-1.32s-1.11-2.13-1.11-3.74v-11.79h-3.46v-2.51h3.46v-4.61h3.25l.01-.01Z" fill="#c9d1d9"/>
      <path d="m544.74,534.6h-3.25v-27h3.25v27Z" fill="#c9d1d9"/>
      <path d="m549.08,524.91c0-1.86.37-3.54,1.1-5.03s1.75-2.64,3.06-3.45,2.8-1.21,4.47-1.21c2.59,0,4.68.9,6.28,2.69s2.4,4.18,2.4,7.15v.23c0,1.85-.35,3.51-1.06,4.98s-1.72,2.62-3.04,3.44-2.83,1.23-4.54,1.23c-2.58,0-4.67-.9-6.27-2.69s-2.4-4.17-2.4-7.12v-.23.01Zm3.27.39c0,2.11.49,3.8,1.47,5.08s2.29,1.92,3.93,1.92,2.96-.65,3.94-1.94,1.46-3.11,1.46-5.44c0-2.09-.5-3.78-1.49-5.07s-2.31-1.94-3.95-1.94-2.9.64-3.88,1.92-1.48,3.11-1.48,5.48v-.01Z" fill="#c9d1d9"/>
      <path d="m582.22,532.72c-1.27,1.49-3.12,2.23-5.57,2.23-2.03,0-3.57-.59-4.63-1.77s-1.6-2.92-1.61-5.23v-12.38h3.25v12.29c0,2.88,1.17,4.32,3.52,4.32,2.48,0,4.14-.93,4.96-2.78v-13.83h3.25v19.02h-3.09l-.07-1.88-.01.01Z" fill="#c9d1d9"/>
      <path d="m589.53,524.93c0-2.92.69-5.26,2.07-7.04s3.19-2.66,5.43-2.66,3.99.76,5.29,2.29v-9.91h3.25v27h-2.99l-.16-2.04c-1.3,1.59-3.11,2.39-5.43,2.39s-4-.9-5.39-2.71-2.08-4.16-2.08-7.07v-.25h.01Zm3.25.37c0,2.16.45,3.84,1.34,5.06s2.12,1.83,3.69,1.83c2.06,0,3.57-.93,4.52-2.78v-8.74c-.97-1.79-2.47-2.69-4.48-2.69-1.59,0-2.84.62-3.73,1.85s-1.34,3.05-1.34,5.47h0Z" fill="#c9d1d9"/>
      <path d="m618.51,534.95c-2.58,0-4.68-.85-6.29-2.54s-2.43-3.96-2.43-6.79v-.6c0-1.89.36-3.57,1.08-5.05s1.73-2.64,3.02-3.48,2.7-1.26,4.21-1.26c2.47,0,4.39.81,5.77,2.44s2.06,3.96,2.06,7v1.35h-12.88c.05,1.88.59,3.39,1.64,4.54s2.38,1.73,4,1.73c1.15,0,2.12-.23,2.92-.7s1.49-1.09,2.09-1.86l1.99,1.55c-1.59,2.45-3.98,3.67-7.17,3.67h-.01Zm-.4-17.05c-1.31,0-2.41.48-3.3,1.43s-1.44,2.29-1.65,4.02h9.53v-.25c-.09-1.65-.54-2.93-1.34-3.84s-1.88-1.36-3.23-1.36h-.01Z" fill="#c9d1d9"/>
      <path d="m638.89,518.5c-.49-.08-1.03-.12-1.6-.12-2.13,0-3.58.91-4.34,2.72v13.5h-3.25v-19.02h3.16l.05,2.2c1.07-1.7,2.58-2.55,4.54-2.55.63,0,1.11.08,1.44.25v3.02h0Z" fill="#c9d1d9"/>
      <path d="m649.38,524.39c0,2.61-.34,5.12-1.03,7.51s-1.73,4.61-3.15,6.64-2.89,3.47-4.44,4.32l-.69-1.99c1.8-1.38,3.25-3.53,4.35-6.44s1.66-6.14,1.68-9.69v-.56c0-2.46-.26-4.75-.77-6.86s-1.23-4.01-2.15-5.69-1.95-2.98-3.1-3.92l.69-1.99c1.55.86,3.02,2.29,4.42,4.29s2.45,4.21,3.15,6.63,1.05,5,1.05,7.75h-.01Z" fill="#c9d1d9"/>
    </g>
  </g>
  <g id="Signal_Flow" data-name="Signal Flow">
    <path d="m73.8,720c14.74-1.71,36.09-5.43,60.86-14.48,7.48-2.73,13.04-5.13,17.9-7.24,8.98-3.9,36.5-15.83,60.86-32.58,20.03-13.77,31.85-26.62,53.7-50.68,12.24-13.48,33.69-37.28,57.28-72.4,38.8-57.76,54.9-104.52,73.41-146.61" fill="none" stroke="#1da37d" stroke-miterlimit="10" stroke-width="5"/>
    <path d="m721.8,72c-14.74,1.71-36.09,5.43-60.86,14.48-7.48,2.73-13.04,5.13-17.9,7.24-8.98,3.9-36.5,15.83-60.86,32.58-20.03,13.77-31.85,26.62-53.7,50.68-12.24,13.48-33.69,37.28-57.28,72.4-38.8,57.76-54.9,104.52-73.41,146.61" fill="none" stroke="#1da37d" stroke-miterlimit="10" stroke-width="5"/>
    <line x1="1261.8" y1="720" x2="1261.8" y2="72" fill="none" stroke="#c9d1d9" stroke-miterlimit="10" stroke-width="3"/>
    <line x1="1585.8" y1="396" x2="937.8" y2="396" fill="none" stroke="#c9d1d9" stroke-miterlimit="10" stroke-width="3"/>
    <line x1="1247.4" y1="504" x2="1276.2" y2="504" fill="none" stroke="#c9d1d9" stroke-miterlimit="10" stroke-width="3"/>
    <line x1="1247.4" y1="612" x2="1276.2" y2="612" fill="none" stroke="#c9d1d9" stroke-miterlimit="10" stroke-width="3"/>
    <line x1="1369.8" y1="410.4" x2="1369.8" y2="381.6" fill="none" stroke="#c9d1d9" stroke-miterlimit="10" stroke-width="3"/>
    <line x1="1477.8" y1="410.4" x2="1477.8" y2="381.6" fill="none" stroke="#c9d1d9" stroke-miterlimit="10" stroke-width="3"/>
    <line x1="1276.2" y1="288" x2="1247.4" y2="288" fill="none" stroke="#c9d1d9" stroke-miterlimit="10" stroke-width="3"/>
    <line x1="1276.2" y1="180" x2="1247.4" y2="180" fill="none" stroke="#c9d1d9" stroke-miterlimit="10" stroke-width="3"/>
    <line x1="1153.8" y1="381.6" x2="1153.8" y2="410.4" fill="none" stroke="#c9d1d9" stroke-miterlimit="10" stroke-width="3"/>
    <line x1="1045.8" y1="381.6" x2="1045.8" y2="410.4" fill="none" stroke="#c9d1d9" stroke-miterlimit="10" stroke-width="3"/>
    <g isolation="isolate">
      <g isolation="isolate">
        <path d="m1239.129,751.855h-8.578v-2.654h8.578v2.654Z" fill="#c9d1d9"/>
        <path d="m1246.688,747.021h2.443c1.535-.023,2.742-.428,3.621-1.213s1.318-1.846,1.318-3.182c0-3-1.494-4.5-4.482-4.5-1.406,0-2.528.401-3.366,1.204s-1.257,1.866-1.257,3.19h-3.252c0-2.027.741-3.712,2.224-5.054s3.366-2.013,5.651-2.013c2.414,0,4.307.639,5.678,1.916s2.057,3.053,2.057,5.326c0,1.113-.36,2.191-1.081,3.234s-1.702,1.822-2.944,2.338c1.406.445,2.493,1.184,3.261,2.215s1.151,2.291,1.151,3.779c0,2.297-.75,4.119-2.25,5.467s-3.451,2.021-5.854,2.021-4.356-.65-5.862-1.951-2.259-3.018-2.259-5.15h3.27c0,1.348.439,2.426,1.318,3.234s2.057,1.213,3.533,1.213c1.57,0,2.771-.41,3.604-1.23s1.248-1.998,1.248-3.533c0-1.488-.457-2.631-1.371-3.428s-2.232-1.207-3.955-1.23h-2.443v-2.654Z" fill="#c9d1d9"/>
        <path d="m1278.223,750.484c0,3.809-.65,6.639-1.951,8.49s-3.334,2.777-6.1,2.777c-2.73,0-4.752-.905-6.064-2.716s-1.992-4.515-2.039-8.112v-4.342c0-3.762.65-6.557,1.951-8.385s3.34-2.742,6.117-2.742c2.754,0,4.781.882,6.082,2.646s1.969,4.485,2.004,8.165v4.219Zm-3.252-4.447c0-2.754-.387-4.761-1.16-6.021s-1.998-1.89-3.674-1.89c-1.664,0-2.877.627-3.639,1.881s-1.154,3.182-1.178,5.783v5.203c0,2.766.401,4.808,1.204,6.126s2.019,1.978,3.647,1.978c1.605,0,2.798-.621,3.577-1.863s1.187-3.199,1.222-5.871v-5.326Z" fill="#c9d1d9"/>
        <path d="m1282.547,740.025c0-1.219.437-2.285,1.31-3.199s1.931-1.371,3.173-1.371c1.219,0,2.259.454,3.12,1.362s1.292,1.978,1.292,3.208c0,1.242-.431,2.303-1.292,3.182s-1.901,1.318-3.12,1.318c-1.23,0-2.285-.439-3.164-1.318s-1.318-1.939-1.318-3.182Zm4.482,2.25c.633,0,1.166-.207,1.6-.621.434-.415.65-.955.65-1.62,0-.677-.217-1.234-.65-1.673-.434-.438-.967-.656-1.6-.656-.645,0-1.187.23-1.626.691-.439.462-.659,1.008-.659,1.638s.22,1.161.659,1.594c.439.432.981.647,1.626.647Z" fill="#c9d1d9"/>
      </g>
    </g>
    <g isolation="isolate">
      <g isolation="isolate">
        <path d="m1241.716,37.821h2.443c1.535-.023,2.742-.428,3.621-1.213s1.318-1.846,1.318-3.182c0-3-1.494-4.5-4.482-4.5-1.406,0-2.528.401-3.366,1.204s-1.257,1.866-1.257,3.19h-3.252c0-2.027.741-3.712,2.224-5.054s3.366-2.013,5.651-2.013c2.414,0,4.307.639,5.678,1.916s2.057,3.053,2.057,5.326c0,1.113-.36,2.191-1.081,3.234s-1.702,1.822-2.944,2.338c1.406.445,2.493,1.184,3.261,2.215s1.151,2.291,1.151,3.779c0,2.297-.75,4.119-2.25,5.467s-3.451,2.021-5.854,2.021-4.356-.65-5.862-1.951-2.259-3.018-2.259-5.15h3.27c0,1.348.439,2.426,1.318,3.234s2.057,1.213,3.533,1.213c1.57,0,2.771-.41,3.604-1.23s1.248-1.998,1.248-3.533c0-1.488-.457-2.631-1.371-3.428s-2.232-1.207-3.955-1.23h-2.443v-2.654Z" fill="#c9d1d9"/>
        <path d="m1273.251,41.284c0,3.809-.65,6.639-1.951,8.49s-3.334,2.777-6.1,2.777c-2.73,0-4.752-.905-6.064-2.716s-1.992-4.515-2.039-8.112v-4.342c0-3.762.65-6.557,1.951-8.385s3.34-2.742,6.117-2.742c2.754,0,4.781.882,6.082,2.646s1.969,4.485,2.004,8.165v4.219Zm-3.252-4.447c0-2.754-.387-4.761-1.16-6.021s-1.998-1.89-3.674-1.89c-1.664,0-2.877.627-3.639,1.881s-1.154,3.182-1.178,5.783v5.203c0,2.766.401,4.808,1.204,6.126s2.019,1.978,3.647,1.978c1.605,0,2.798-.621,3.577-1.863s1.187-3.199,1.222-5.871v-5.326Z" fill="#c9d1d9"/>
        <path d="m1277.575,30.825c0-1.219.437-2.285,1.31-3.199s1.931-1.371,3.173-1.371c1.219,0,2.259.454,3.12,1.362s1.292,1.978,1.292,3.208c0,1.242-.431,2.303-1.292,3.182s-1.901,1.318-3.12,1.318c-1.23,0-2.285-.439-3.164-1.318s-1.318-1.939-1.318-3.182Zm4.482,2.25c.633,0,1.166-.207,1.6-.621.434-.415.65-.955.65-1.62,0-.677-.217-1.234-.65-1.673-.434-.438-.967-.656-1.6-.656-.645,0-1.187.23-1.626.691-.439.462-.659,1.008-.659,1.638s.22,1.161.659,1.594c.439.432.981.647,1.626.647Z" fill="#c9d1d9"/>
      </g>
    </g>
    <g isolation="isolate">
      <g isolation="isolate">
        <path d="m906.898,438.655h-8.578v-2.654h8.578v2.654Z" fill="#c9d1d9"/>
        <path d="m920.416,448.2h-3.27v-21.674l-6.557,2.408v-2.953l9.316-3.498h.51v25.717Z" fill="#c9d1d9"/>
        <path d="m933.336,429.181l.088,2.109c1.395-1.641,3.275-2.461,5.643-2.461,2.66,0,4.471,1.02,5.432,3.059.633-.914,1.456-1.652,2.47-2.215s2.212-.844,3.595-.844c4.172,0,6.293,2.209,6.363,6.627v12.744h-3.252v-12.551c0-1.359-.311-2.376-.932-3.05s-1.664-1.011-3.129-1.011c-1.207,0-2.209.36-3.006,1.081s-1.26,1.69-1.389,2.909v12.621h-3.27v-12.463c0-2.766-1.354-4.148-4.061-4.148-2.133,0-3.592.908-4.377,2.725v13.887h-3.252v-19.02h3.076Z" fill="#c9d1d9"/>
        <path d="m972.904,443.155c0-.879-.331-1.562-.993-2.048s-1.816-.905-3.463-1.257-2.953-.773-3.92-1.266-1.682-1.078-2.145-1.758-.694-1.488-.694-2.426c0-1.559.659-2.877,1.978-3.955s3.003-1.617,5.054-1.617c2.156,0,3.905.557,5.247,1.67s2.013,2.537,2.013,4.271h-3.27c0-.891-.378-1.658-1.134-2.303s-1.708-.967-2.856-.967c-1.184,0-2.109.258-2.777.773s-1.002,1.189-1.002,2.021c0,.785.311,1.377.932,1.775s1.743.779,3.366,1.143,2.938.797,3.946,1.301,1.755,1.11,2.241,1.819.729,1.573.729,2.593c0,1.699-.68,3.062-2.039,4.087s-3.123,1.538-5.291,1.538c-1.523,0-2.871-.27-4.043-.809s-2.089-1.292-2.751-2.259-.993-2.013-.993-3.138h3.252c.059,1.09.495,1.954,1.31,2.593s1.89.958,3.226.958c1.23,0,2.218-.249,2.962-.747s1.116-1.163,1.116-1.995Z" fill="#c9d1d9"/>
      </g>
    </g>
    <g isolation="isolate">
      <g isolation="isolate">
        <path d="m1552.207,434.472h7.137v3.076h-7.137v8.086h-3.27v-8.086h-7.137v-3.076h7.137v-7.471h3.27v7.471Z" fill="#c9d1d9"/>
        <path d="m1573.652,448.2h-3.27v-21.674l-6.557,2.408v-2.953l9.316-3.498h.51v25.717Z" fill="#c9d1d9"/>
        <path d="m1586.572,429.181l.088,2.109c1.395-1.641,3.275-2.461,5.643-2.461,2.66,0,4.471,1.02,5.432,3.059.633-.914,1.456-1.652,2.47-2.215s2.212-.844,3.595-.844c4.172,0,6.293,2.209,6.363,6.627v12.744h-3.252v-12.551c0-1.359-.311-2.376-.932-3.05s-1.664-1.011-3.129-1.011c-1.207,0-2.209.36-3.006,1.081s-1.26,1.69-1.389,2.909v12.621h-3.27v-12.463c0-2.766-1.354-4.148-4.061-4.148-2.133,0-3.592.908-4.377,2.725v13.887h-3.252v-19.02h3.076Z" fill="#c9d1d9"/>
        <path d="m1626.141,443.155c0-.879-.331-1.562-.993-2.048s-1.816-.905-3.463-1.257-2.953-.773-3.92-1.266-1.682-1.078-2.145-1.758-.694-1.488-.694-2.426c0-1.559.659-2.877,1.978-3.955s3.003-1.617,5.054-1.617c2.156,0,3.905.557,5.247,1.67s2.013,2.537,2.013,4.271h-3.27c0-.891-.378-1.658-1.134-2.303s-1.708-.967-2.856-.967c-1.184,0-2.109.258-2.777.773s-1.002,1.189-1.002,2.021c0,.785.311,1.377.932,1.775s1.743.779,3.366,1.143,2.938.797,3.946,1.301,1.755,1.11,2.241,1.819.729,1.573.729,2.593c0,1.699-.68,3.062-2.039,4.087s-3.123,1.538-5.291,1.538c-1.523,0-2.871-.27-4.043-.809s-2.089-1.292-2.751-2.259-.993-2.013-.993-3.138h3.252c.059,1.09.495,1.954,1.31,2.593s1.89.958,3.226.958c1.23,0,2.218-.249,2.962-.747s1.116-1.163,1.116-1.995Z" fill="#c9d1d9"/>
      </g>
    </g>
    <g>
      <path d="m1337.07,467.77v4.61h3.55v2.51h-3.55v11.81c0,.76.16,1.33.47,1.72.32.38.86.57,1.62.57.38,0,.89-.07,1.55-.21v2.62c-.86.23-1.69.35-2.5.35-1.45,0-2.55-.44-3.29-1.32s-1.11-2.13-1.11-3.74v-11.79h-3.46v-2.51h3.46v-4.61h3.25l.01-.01Z" fill="#c9d1d9"/>
      <path d="m1344.44,467.33c0-.53.16-.97.48-1.34s.8-.54,1.43-.54,1.11.18,1.44.54.49.81.49,1.34-.16.97-.49,1.32-.81.53-1.44.53-1.11-.18-1.43-.53-.48-.79-.48-1.32Zm3.52,24.06h-3.25v-19.02h3.25v19.02Z" fill="#c9d1d9"/>
      <path d="m1356.22,472.38l.09,2.11c1.39-1.64,3.28-2.46,5.64-2.46,2.66,0,4.47,1.02,5.43,3.06.63-.91,1.46-1.65,2.47-2.21s2.21-.84,3.59-.84c4.17,0,6.29,2.21,6.36,6.63v12.74h-3.25v-12.55c0-1.36-.31-2.38-.93-3.05s-1.66-1.01-3.13-1.01c-1.21,0-2.21.36-3.01,1.08s-1.26,1.69-1.39,2.91v12.62h-3.27v-12.46c0-2.77-1.35-4.15-4.06-4.15-2.13,0-3.59.91-4.38,2.72v13.89h-3.25v-19.02h3.08l.01-.01Z" fill="#c9d1d9"/>
      <path d="m1392.6,491.75c-2.58,0-4.68-.85-6.29-2.54s-2.43-3.96-2.43-6.79v-.6c0-1.89.36-3.57,1.08-5.05s1.73-2.64,3.02-3.48,2.7-1.26,4.21-1.26c2.47,0,4.39.81,5.77,2.44s2.06,3.96,2.06,7v1.35h-12.88c.05,1.88.59,3.39,1.64,4.54s2.38,1.73,4,1.73c1.15,0,2.12-.23,2.92-.7s1.49-1.09,2.09-1.86l1.99,1.55c-1.59,2.45-3.98,3.67-7.17,3.67h-.01Zm-.4-17.05c-1.31,0-2.41.48-3.3,1.43s-1.44,2.29-1.65,4.02h9.53v-.25c-.09-1.65-.54-2.93-1.34-3.84s-1.88-1.36-3.23-1.36h-.01Z" fill="#c9d1d9"/>
      <path d="m1411.9,481.73c0-2.92.69-5.26,2.07-7.04s3.19-2.66,5.43-2.66,3.99.76,5.29,2.29v-9.91h3.25v27h-2.99l-.16-2.04c-1.3,1.59-3.11,2.39-5.43,2.39s-4-.9-5.39-2.71-2.08-4.16-2.08-7.07v-.25h.01Zm3.25.37c0,2.16.45,3.84,1.34,5.06s2.12,1.83,3.69,1.83c2.06,0,3.57-.93,4.52-2.78v-8.74c-.97-1.79-2.47-2.69-4.48-2.69-1.59,0-2.84.62-3.73,1.85s-1.34,3.05-1.34,5.47Z" fill="#c9d1d9"/>
      <path d="m1433.01,467.33c0-.53.16-.97.48-1.34s.8-.54,1.43-.54,1.11.18,1.44.54.49.81.49,1.34-.16.97-.49,1.32-.81.53-1.44.53-1.11-.18-1.43-.53-.48-.79-.48-1.32Zm3.52,24.06h-3.25v-19.02h3.25v19.02Z" fill="#c9d1d9"/>
      <path d="m1443.33,491.4v-16.51h-3.01v-2.51h3.01v-1.95c0-2.04.54-3.62,1.63-4.73s2.63-1.67,4.62-1.67c.75,0,1.49.1,2.23.3l-.18,2.62c-.55-.11-1.14-.16-1.76-.16-1.05,0-1.87.31-2.44.93s-.86,1.5-.86,2.65v2.01h4.06v2.51h-4.06v16.51h-3.25.01Z" fill="#c9d1d9"/>
      <path d="m1455.83,491.4v-16.51h-3.01v-2.51h3.01v-1.95c0-2.04.54-3.62,1.63-4.73s2.63-1.67,4.62-1.67c.75,0,1.49.1,2.23.3l-.18,2.62c-.55-.11-1.14-.16-1.76-.16-1.05,0-1.87.31-2.44.93s-.86,1.5-.86,2.65v2.01h4.06v2.51h-4.06v16.51h-3.25.01Z" fill="#c9d1d9"/>
      <path d="m1474.2,491.75c-2.58,0-4.68-.85-6.29-2.54s-2.43-3.96-2.43-6.79v-.6c0-1.89.36-3.57,1.08-5.05s1.73-2.64,3.02-3.48,2.7-1.26,4.21-1.26c2.47,0,4.39.81,5.77,2.44s2.06,3.96,2.06,7v1.35h-12.88c.05,1.88.59,3.39,1.64,4.54s2.38,1.73,4,1.73c1.15,0,2.12-.23,2.92-.7s1.49-1.09,2.09-1.86l1.99,1.55c-1.59,2.45-3.98,3.67-7.17,3.67h-.01Zm-.4-17.05c-1.31,0-2.41.48-3.3,1.43s-1.44,2.29-1.65,4.02h9.53v-.25c-.09-1.65-.54-2.93-1.34-3.84s-1.88-1.36-3.23-1.36h-.01Z" fill="#c9d1d9"/>
      <path d="m1494.57,475.3c-.49-.08-1.03-.12-1.6-.12-2.13,0-3.58.91-4.34,2.72v13.5h-3.25v-19.02h3.16l.05,2.2c1.07-1.7,2.58-2.55,4.54-2.55.63,0,1.11.08,1.44.25v3.02h0Z" fill="#c9d1d9"/>
      <path d="m1505.12,491.75c-2.58,0-4.68-.85-6.29-2.54s-2.43-3.96-2.43-6.79v-.6c0-1.89.36-3.57,1.08-5.05s1.73-2.64,3.02-3.48,2.7-1.26,4.21-1.26c2.47,0,4.39.81,5.77,2.44s2.06,3.96,2.06,7v1.35h-12.88c.05,1.88.59,3.39,1.64,4.54s2.38,1.73,4,1.73c1.15,0,2.12-.23,2.92-.7s1.49-1.09,2.09-1.86l1.99,1.55c-1.59,2.45-3.98,3.67-7.17,3.67h-.01Zm-.4-17.05c-1.31,0-2.41.48-3.3,1.43s-1.44,2.29-1.65,4.02h9.53v-.25c-.09-1.65-.54-2.93-1.34-3.84s-1.88-1.36-3.23-1.36h-.01Z" fill="#c9d1d9"/>
      <path d="m1519.38,472.38l.11,2.39c1.45-1.83,3.35-2.74,5.7-2.74,4.02,0,6.05,2.27,6.08,6.8v12.57h-3.25v-12.59c-.01-1.37-.33-2.38-.94-3.04s-1.57-.98-2.87-.98c-1.05,0-1.98.28-2.78.84s-1.42,1.3-1.86,2.21v13.55h-3.25v-19.02h3.08l-.02.01Z" fill="#c9d1d9"/>
      <path d="m1543.79,489.1c1.16,0,2.17-.35,3.04-1.05s1.35-1.58,1.44-2.64h3.08c-.06,1.09-.43,2.13-1.12,3.11s-1.61,1.77-2.77,2.36-2.38.88-3.67.88c-2.59,0-4.65-.86-6.18-2.59s-2.29-4.09-2.29-7.09v-.54c0-1.85.34-3.5,1.02-4.94s1.66-2.56,2.93-3.36,2.77-1.2,4.51-1.2c2.13,0,3.91.64,5.32,1.92s2.17,2.94,2.26,4.97h-3.08c-.09-1.23-.56-2.24-1.4-3.03s-1.87-1.19-3.1-1.19c-1.65,0-2.93.59-3.84,1.78s-1.36,2.91-1.36,5.16v.62c0,2.19.45,3.88,1.35,5.06s2.19,1.78,3.87,1.78l-.01-.01Z" fill="#c9d1d9"/>
      <path d="m1562.9,491.75c-2.58,0-4.68-.85-6.29-2.54s-2.43-3.96-2.43-6.79v-.6c0-1.89.36-3.57,1.08-5.05s1.73-2.64,3.02-3.48,2.7-1.26,4.21-1.26c2.47,0,4.39.81,5.77,2.44s2.06,3.96,2.06,7v1.35h-12.88c.05,1.88.59,3.39,1.64,4.54s2.38,1.73,4,1.73c1.15,0,2.12-.23,2.92-.7s1.49-1.09,2.09-1.86l1.99,1.55c-1.59,2.45-3.98,3.67-7.17,3.67h-.01Zm-.4-17.05c-1.31,0-2.41.48-3.3,1.43s-1.44,2.29-1.65,4.02h9.53v-.25c-.09-1.65-.54-2.93-1.34-3.84s-1.88-1.36-3.23-1.36h-.01Z" fill="#c9d1d9"/>
      <path d="m1332.54,524.21c0-2.65.35-5.19,1.06-7.63s1.77-4.65,3.17-6.64,2.87-3.4,4.38-4.22l.67,2.14c-1.71,1.31-3.11,3.32-4.21,6.01-1.1,2.69-1.7,5.71-1.8,9.05l-.02,1.49c0,4.52.83,8.45,2.48,11.78,1,1.99,2.18,3.55,3.55,4.68l-.67,1.99c-1.56-.87-3.05-2.32-4.46-4.36-2.77-3.98-4.15-8.75-4.15-14.29h0Z" fill="#c9d1d9"/>
      <path d="m1348.5,534.6h-3.25v-27h3.25v27Z" fill="#c9d1d9"/>
      <path d="m1361.59,534.95c-2.58,0-4.68-.85-6.29-2.54s-2.43-3.96-2.43-6.79v-.6c0-1.89.36-3.57,1.08-5.05s1.73-2.64,3.02-3.48,2.7-1.26,4.21-1.26c2.47,0,4.39.81,5.77,2.44s2.06,3.96,2.06,7v1.35h-12.88c.05,1.88.59,3.39,1.64,4.54s2.38,1.73,4,1.73c1.15,0,2.12-.23,2.92-.7s1.49-1.09,2.09-1.86l1.99,1.55c-1.59,2.45-3.98,3.67-7.17,3.67h-.01Zm-.4-17.05c-1.31,0-2.41.48-3.3,1.43s-1.44,2.29-1.65,4.02h9.53v-.25c-.09-1.65-.54-2.93-1.34-3.84s-1.88-1.36-3.23-1.36h-.01Z" fill="#c9d1d9"/>
      <path d="m1374.37,534.6v-16.51h-3.01v-2.51h3.01v-1.95c0-2.04.54-3.62,1.63-4.73s2.63-1.67,4.62-1.67c.75,0,1.49.1,2.23.3l-.18,2.62c-.55-.11-1.14-.16-1.76-.16-1.05,0-1.87.31-2.44.93s-.86,1.5-.86,2.65v2.01h4.06v2.51h-4.06v16.51h-3.25.01Z" fill="#c9d1d9"/>
      <path d="m1389.68,510.97v4.61h3.55v2.51h-3.55v11.81c0,.76.16,1.33.47,1.72.32.38.86.57,1.62.57.38,0,.89-.07,1.55-.21v2.62c-.86.23-1.69.35-2.5.35-1.45,0-2.55-.44-3.29-1.32s-1.11-2.13-1.11-3.74v-11.79h-3.46v-2.51h3.46v-4.61h3.25l.01-.01Z" fill="#c9d1d9"/>
      <path d="m1413.84,534.95c-2.58,0-4.68-.85-6.29-2.54s-2.43-3.96-2.43-6.79v-.6c0-1.89.36-3.57,1.08-5.05s1.73-2.64,3.02-3.48,2.7-1.26,4.21-1.26c2.47,0,4.39.81,5.77,2.44s2.06,3.96,2.06,7v1.35h-12.88c.05,1.88.59,3.39,1.64,4.54s2.38,1.73,4,1.73c1.15,0,2.12-.23,2.92-.7s1.49-1.09,2.09-1.86l1.99,1.55c-1.59,2.45-3.98,3.67-7.17,3.67h-.01Zm-.4-17.05c-1.31,0-2.41.48-3.3,1.43s-1.44,2.29-1.65,4.02h9.53v-.25c-.09-1.65-.54-2.93-1.34-3.84s-1.88-1.36-3.23-1.36h-.01Z" fill="#c9d1d9"/>
      <path d="m1436.76,534.6c-.19-.38-.34-1.04-.46-2-1.51,1.57-3.32,2.36-5.41,2.36-1.88,0-3.41-.53-4.61-1.59s-1.8-2.41-1.8-4.03c0-1.98.75-3.52,2.26-4.61s3.62-1.64,6.35-1.64h3.16v-1.49c0-1.14-.34-2.04-1.02-2.72s-1.68-1.01-3.01-1.01c-1.16,0-2.13.29-2.92.88s-1.18,1.29-1.18,2.13h-3.27c0-.95.34-1.87,1.01-2.75s1.59-1.58,2.74-2.1,2.42-.77,3.81-.77c2.19,0,3.91.55,5.15,1.64s1.89,2.6,1.93,4.53v8.75c0,1.75.22,3.13.67,4.17v.28h-3.41l.01-.03Zm-5.4-2.48c1.02,0,1.99-.26,2.9-.79s1.58-1.21,1.99-2.06v-3.9h-2.55c-3.98,0-5.98,1.17-5.98,3.5,0,1.02.34,1.82,1.02,2.39s1.55.86,2.62.86Z" fill="#c9d1d9"/>
      <path d="m1453.79,518.5c-.49-.08-1.03-.12-1.6-.12-2.13,0-3.58.91-4.34,2.72v13.5h-3.25v-19.02h3.16l.05,2.2c1.07-1.7,2.58-2.55,4.54-2.55.63,0,1.11.08,1.44.25v3.02h0Z" fill="#c9d1d9"/>
      <path d="m1460.31,534.6h-3.25v-27h3.25v27Z" fill="#c9d1d9"/>
      <path d="m1465.53,510.54c0-.53.16-.97.48-1.34s.8-.54,1.43-.54,1.11.18,1.44.54.49.81.49,1.34-.16.97-.49,1.32-.81.53-1.44.53-1.11-.18-1.43-.53-.48-.79-.48-1.32Zm3.52,24.06h-3.25v-19.02h3.25v19.02Z" fill="#c9d1d9"/>
      <path d="m1482.15,534.95c-2.58,0-4.68-.85-6.29-2.54s-2.43-3.96-2.43-6.79v-.6c0-1.89.36-3.57,1.08-5.05s1.73-2.64,3.02-3.48,2.7-1.26,4.21-1.26c2.47,0,4.39.81,5.77,2.44s2.06,3.96,2.06,7v1.35h-12.88c.05,1.88.59,3.39,1.64,4.54s2.38,1.73,4,1.73c1.15,0,2.12-.23,2.92-.7s1.49-1.09,2.09-1.86l1.99,1.55c-1.59,2.45-3.98,3.67-7.17,3.67h-.01Zm-.4-17.05c-1.31,0-2.41.48-3.3,1.43s-1.44,2.29-1.65,4.02h9.53v-.25c-.09-1.65-.54-2.93-1.34-3.84s-1.88-1.36-3.23-1.36h-.01Z" fill="#c9d1d9"/>
      <path d="m1502.52,518.5c-.49-.08-1.03-.12-1.6-.12-2.13,0-3.58.91-4.34,2.72v13.5h-3.25v-19.02h3.16l.05,2.2c1.07-1.7,2.58-2.55,4.54-2.55.63,0,1.11.08,1.44.25v3.02h0Z" fill="#c9d1d9"/>
      <path d="m1513.01,524.39c0,2.61-.34,5.12-1.03,7.51s-1.73,4.61-3.15,6.64-2.89,3.47-4.44,4.32l-.69-1.99c1.8-1.38,3.25-3.53,4.35-6.44s1.66-6.14,1.68-9.69v-.56c0-2.46-.26-4.75-.77-6.86s-1.23-4.01-2.15-5.69-1.95-2.98-3.1-3.92l.69-1.99c1.55.86,3.02,2.29,4.42,4.29s2.45,4.21,3.15,6.63,1.05,5,1.05,7.75h-.01Z" fill="#c9d1d9"/>
    </g>
    <g>
      <path d="m1178.33,322.33c-2.92,0-5.26-.69-7.04-2.07s-2.66-3.19-2.66-5.43.76-3.99,2.29-5.29h-9.91v-3.25h27v2.99l-2.04.16c1.59,1.3,2.39,3.11,2.39,5.43s-.9,4-2.71,5.39-4.16,2.08-7.07,2.08h-.25v-.01Zm.37-3.25c2.16,0,3.84-.45,5.06-1.34s1.83-2.12,1.83-3.69c0-2.06-.93-3.57-2.78-4.52h-8.74c-1.79.97-2.69,2.47-2.69,4.48,0,1.59.62,2.84,1.85,3.73s3.05,1.34,5.47,1.34h0Z" fill="#c9d1d9"/>
      <path d="m1163.94,301.22c-.53,0-.97-.16-1.34-.48s-.54-.8-.54-1.43.18-1.11.54-1.44.81-.49,1.34-.49.97.16,1.32.49.53.81.53,1.44-.18,1.11-.53,1.43-.79.48-1.32.48Zm24.06-3.52v3.25h-19.02v-3.25h19.02Z" fill="#c9d1d9"/>
      <path d="m1171.9,283.31c-.08.49-.12,1.03-.12,1.6,0,2.13.91,3.58,2.72,4.34h13.5v3.25h-19.02v-3.16l2.2-.05c-1.7-1.07-2.55-2.58-2.55-4.54,0-.63.08-1.11.25-1.44h3.02Z" fill="#c9d1d9"/>
      <path d="m1188.35,272.76c0,2.58-.85,4.68-2.54,6.29s-3.96,2.43-6.79,2.43h-.6c-1.89,0-3.57-.36-5.05-1.08s-2.64-1.73-3.48-3.02-1.26-2.7-1.26-4.21c0-2.47.81-4.39,2.44-5.77s3.96-2.06,7-2.06h1.35v12.88c1.88-.05,3.39-.59,4.54-1.64s1.73-2.38,1.73-4c0-1.15-.23-2.12-.7-2.92s-1.09-1.49-1.86-2.09l1.55-1.99c2.45,1.59,3.67,3.98,3.67,7.17v.01Zm-17.05.4c0,1.31.48,2.41,1.43,3.3s2.29,1.44,4.02,1.65v-9.53h-.25c-1.65.09-2.93.54-3.84,1.34s-1.36,1.88-1.36,3.23v.01Z" fill="#c9d1d9"/>
      <path d="m1185.7,253.95c0-1.16-.35-2.17-1.05-3.04s-1.58-1.35-2.64-1.44v-3.08c1.09.06,2.13.43,3.11,1.12s1.77,1.61,2.36,2.77.88,2.38.88,3.67c0,2.59-.86,4.65-2.59,6.18s-4.09,2.29-7.09,2.29h-.54c-1.85,0-3.5-.34-4.94-1.02s-2.56-1.66-3.36-2.93-1.2-2.77-1.2-4.51c0-2.13.64-3.91,1.92-5.32s2.94-2.17,4.97-2.26v3.08c-1.23.09-2.24.56-3.03,1.4s-1.19,1.87-1.19,3.1c0,1.65.59,2.93,1.78,3.84s2.91,1.36,5.16,1.36h.62c2.19,0,3.88-.45,5.06-1.35s1.78-2.19,1.78-3.87l-.01.01Z" fill="#c9d1d9"/>
      <path d="m1164.38,238.32h4.61v-3.55h2.51v3.55h11.81c.76,0,1.33-.16,1.72-.47.38-.32.57-.86.57-1.62,0-.38-.07-.89-.21-1.55h2.62c.23.86.35,1.69.35,2.5,0,1.45-.44,2.55-1.32,3.29s-2.13,1.11-3.74,1.11h-11.79v3.46h-2.51v-3.46h-4.61v-3.25l-.01-.01Z" fill="#c9d1d9"/>
      <path d="m1163.94,230.96c-.53,0-.97-.16-1.34-.48s-.54-.8-.54-1.43.18-1.11.54-1.44.81-.49,1.34-.49.97.16,1.32.49.53.81.53,1.44-.18,1.11-.53,1.43-.79.48-1.32.48Zm24.06-3.52v3.25h-19.02v-3.25h19.02Z" fill="#c9d1d9"/>
      <path d="m1178.31,223.1c-1.86,0-3.54-.37-5.03-1.1s-2.64-1.75-3.45-3.06-1.21-2.8-1.21-4.47c0-2.59.9-4.68,2.69-6.28s4.18-2.4,7.15-2.4h.23c1.85,0,3.51.35,4.98,1.06s2.62,1.72,3.44,3.04,1.23,2.83,1.23,4.54c0,2.58-.9,4.67-2.69,6.27s-4.17,2.4-7.12,2.4h-.23.01Zm.39-3.27c2.11,0,3.8-.49,5.08-1.47s1.92-2.29,1.92-3.93-.65-2.96-1.94-3.94-3.11-1.46-5.44-1.46c-2.09,0-3.78.5-5.07,1.49s-1.94,2.31-1.94,3.95.64,2.9,1.92,3.88,3.11,1.48,5.48,1.48h-.01Z" fill="#c9d1d9"/>
      <path d="m1168.98,198.63l2.39-.11c-1.83-1.45-2.74-3.35-2.74-5.7,0-4.02,2.27-6.05,6.8-6.08h12.57v3.25h-12.59c-1.37.01-2.38.33-3.04.94s-.98,1.57-.98,2.87c0,1.05.28,1.98.84,2.78s1.3,1.42,2.21,1.86h13.55v3.25h-19.02v-3.08l.01.02Z" fill="#c9d1d9"/>
      <path d="m1178.31,173.79c-1.86,0-3.54-.37-5.03-1.1s-2.64-1.75-3.45-3.06-1.21-2.8-1.21-4.47c0-2.59.9-4.68,2.69-6.28s4.18-2.4,7.15-2.4h.23c1.85,0,3.51.35,4.98,1.06s2.62,1.72,3.44,3.04,1.23,2.83,1.23,4.54c0,2.58-.9,4.67-2.69,6.27s-4.17,2.4-7.12,2.4h-.23.01Zm.39-3.27c2.11,0,3.8-.49,5.08-1.47s1.92-2.29,1.92-3.93-.65-2.96-1.94-3.94-3.11-1.46-5.44-1.46c-2.09,0-3.78.5-5.07,1.49s-1.94,2.31-1.94,3.95.64,2.9,1.92,3.88,3.11,1.48,5.48,1.48h-.01Z" fill="#c9d1d9"/>
      <path d="m1188,150.8h-16.51v3.01h-2.51v-3.01h-1.95c-2.04,0-3.62-.54-4.73-1.63s-1.67-2.63-1.67-4.62c0-.75.1-1.49.3-2.23l2.62.18c-.11.55-.16,1.14-.16,1.76,0,1.05.31,1.87.93,2.44s1.5.86,2.65.86h2.01v-4.06h2.51v4.06h16.51v3.25-.01Z" fill="#c9d1d9"/>
      <path d="m1164.38,126.58h4.61v-3.55h2.51v3.55h11.81c.76,0,1.33-.16,1.72-.47.38-.32.57-.86.57-1.62,0-.38-.07-.89-.21-1.55h2.62c.23.86.35,1.69.35,2.5,0,1.45-.44,2.55-1.32,3.29-.88.74-2.13,1.11-3.74,1.11h-11.79v3.46h-2.51v-3.46h-4.61v-3.25l-.01-.01Z" fill="#c9d1d9"/>
      <path d="m1171.28,115.98c-1.77-1.44-2.65-3.32-2.65-5.62,0-4.02,2.27-6.05,6.8-6.08h12.57v3.25h-12.59c-1.37.01-2.38.33-3.04.94s-.98,1.57-.98,2.87c0,1.05.28,1.98.84,2.78s1.3,1.42,2.21,1.86h13.55v3.25h-27v-3.25h10.29Z" fill="#c9d1d9"/>
      <path d="m1188.35,91.51c0,2.58-.85,4.68-2.54,6.29s-3.96,2.43-6.79,2.43h-.6c-1.89,0-3.57-.36-5.05-1.08s-2.64-1.73-3.48-3.02-1.26-2.7-1.26-4.21c0-2.47.81-4.39,2.44-5.77s3.96-2.06,7-2.06h1.35v12.88c1.88-.05,3.39-.59,4.54-1.64s1.73-2.38,1.73-4c0-1.15-.23-2.12-.7-2.92s-1.09-1.49-1.86-2.09l1.55-1.99c2.45,1.59,3.67,3.98,3.67,7.17v.01Zm-17.05.4c0,1.31.48,2.41,1.43,3.3s2.29,1.44,4.02,1.65v-9.53h-.25c-1.65.09-2.93.54-3.84,1.34s-1.36,1.88-1.36,3.23v.01Z" fill="#c9d1d9"/>
      <path d="m1231.2,309.8c-.38.19-1.04.34-2,.46,1.57,1.51,2.36,3.32,2.36,5.41,0,1.88-.53,3.41-1.59,4.61s-2.41,1.8-4.03,1.8c-1.98,0-3.52-.75-4.61-2.26s-1.64-3.62-1.64-6.35v-3.16h-1.49c-1.14,0-2.04.34-2.72,1.02s-1.01,1.68-1.01,3.01c0,1.16.29,2.13.88,2.92s1.29,1.18,2.13,1.18v3.27c-.95,0-1.87-.34-2.75-1.01s-1.58-1.59-2.1-2.74-.77-2.42-.77-3.81c0-2.19.55-3.91,1.64-5.15s2.6-1.89,4.53-1.93h8.75c1.75,0,3.13-.22,4.17-.67h.28v3.41l-.03-.01Zm-2.48,5.4c0-1.02-.26-1.99-.79-2.9s-1.21-1.58-2.06-1.99h-3.9v2.55c0,3.98,1.17,5.98,3.5,5.98,1.02,0,1.82-.34,2.39-1.02s.86-1.55.86-2.62h0Z" fill="#c9d1d9"/>
      <path d="m1229.32,290.21c1.49,1.27,2.23,3.12,2.23,5.57,0,2.03-.59,3.57-1.77,4.63s-2.92,1.6-5.23,1.61h-12.38v-3.25h12.29c2.88,0,4.32-1.17,4.32-3.52,0-2.48-.93-4.14-2.78-4.96h-13.83v-3.25h19.02v3.09l-1.88.07.01.01Z" fill="#c9d1d9"/>
      <path d="m1221.53,282.9c-2.92,0-5.26-.69-7.04-2.07s-2.66-3.19-2.66-5.43.76-3.99,2.29-5.29h-9.91v-3.25h27v2.99l-2.04.16c1.59,1.3,2.39,3.11,2.39,5.43s-.9,4-2.71,5.39-4.16,2.08-7.07,2.08h-.25v-.01Zm.37-3.25c2.16,0,3.84-.45,5.06-1.34s1.83-2.12,1.83-3.69c0-2.06-.93-3.57-2.78-4.52h-8.74c-1.79.97-2.69,2.47-2.69,4.48,0,1.59.62,2.84,1.85,3.73s3.05,1.34,5.47,1.34h0Z" fill="#c9d1d9"/>
      <path d="m1207.14,261.79c-.53,0-.97-.16-1.34-.48s-.54-.8-.54-1.43.18-1.11.54-1.44.81-.49,1.34-.49.97.16,1.32.49.53.81.53,1.44-.18,1.11-.53,1.43-.79.48-1.32.48Zm24.06-3.52v3.25h-19.02v-3.25h19.02Z" fill="#c9d1d9"/>
      <path d="m1207.58,248.66h4.61v-3.55h2.51v3.55h11.81c.76,0,1.33-.16,1.72-.47.38-.32.57-.86.57-1.62,0-.38-.07-.89-.21-1.55h2.62c.23.86.35,1.69.35,2.5,0,1.45-.44,2.55-1.32,3.29s-2.13,1.11-3.74,1.11h-11.79v3.46h-2.51v-3.46h-4.61v-3.25l-.01-.01Z" fill="#c9d1d9"/>
      <path d="m1221.51,242.53c-1.86,0-3.54-.37-5.03-1.1s-2.64-1.75-3.45-3.06-1.21-2.8-1.21-4.47c0-2.59.9-4.68,2.69-6.28s4.18-2.4,7.15-2.4h.23c1.85,0,3.51.35,4.98,1.06s2.62,1.72,3.44,3.04,1.23,2.83,1.23,4.54c0,2.58-.9,4.67-2.69,6.27s-4.17,2.4-7.12,2.4h-.23.01Zm.39-3.27c2.11,0,3.8-.49,5.08-1.47s1.92-2.29,1.92-3.93-.65-2.96-1.94-3.94-3.11-1.46-5.44-1.46c-2.09,0-3.78.5-5.07,1.49s-1.94,2.31-1.94,3.95.64,2.9,1.92,3.88,3.11,1.48,5.48,1.48h-.01Z" fill="#c9d1d9"/>
      <path d="m1215.1,211.94c-.08.49-.12,1.03-.12,1.6,0,2.13.91,3.58,2.72,4.34h13.5v3.25h-19.02v-3.16l2.2-.05c-1.7-1.07-2.55-2.58-2.55-4.54,0-.63.08-1.11.25-1.44h3.02Z" fill="#c9d1d9"/>
      <path d="m1226.44,202.41l-14.26-4.43v-3.48l21.96,7.65c3.16,1.18,4.75,3.06,4.75,5.64l-.05.62-.23,1.21h-2.64l.07-.88c0-1.1-.22-1.96-.67-2.58s-1.26-1.12-2.44-1.52l-1.93-.72-18.81,6.79v-3.55l14.26-4.75h-.01Z" fill="#c9d1d9"/>
      <path d="m1231.55,174.8c0,2.58-.85,4.68-2.54,6.29s-3.96,2.43-6.79,2.43h-.6c-1.89,0-3.57-.36-5.05-1.08s-2.64-1.73-3.48-3.02-1.26-2.7-1.26-4.21c0-2.47.81-4.39,2.44-5.77s3.96-2.06,7-2.06h1.35v12.88c1.88-.05,3.39-.59,4.54-1.64s1.73-2.38,1.73-4c0-1.15-.23-2.12-.7-2.92s-1.09-1.49-1.86-2.09l1.55-1.99c2.45,1.59,3.67,3.98,3.67,7.17v.01Zm-17.05.4c0,1.31.48,2.41,1.43,3.3s2.29,1.44,4.02,1.65v-9.53h-.25c-1.65.09-2.93.54-3.84,1.34s-1.36,1.88-1.36,3.23v.01Z" fill="#c9d1d9"/>
      <path d="m1226.79,157.57l-14.61-4.71v-3.32l19.02,6.82v2.48l-19.02,6.89v-3.32l14.61-4.83v-.01Z" fill="#c9d1d9"/>
      <path d="m1231.55,138.74c0,2.58-.85,4.68-2.54,6.29s-3.96,2.43-6.79,2.43h-.6c-1.89,0-3.57-.36-5.05-1.08s-2.64-1.73-3.48-3.02-1.26-2.7-1.26-4.21c0-2.47.81-4.39,2.44-5.77s3.96-2.06,7-2.06h1.35v12.88c1.88-.05,3.39-.59,4.54-1.64s1.73-2.38,1.73-4c0-1.15-.23-2.12-.7-2.92s-1.09-1.49-1.86-2.09l1.55-1.99c2.45,1.59,3.67,3.98,3.67,7.17v.01Zm-17.05.4c0,1.31.48,2.41,1.43,3.3s2.29,1.44,4.02,1.65v-9.53h-.25c-1.65.09-2.93.54-3.84,1.34s-1.36,1.88-1.36,3.23v.01Z" fill="#c9d1d9"/>
      <path d="m1212.18,124.49l2.39-.11c-1.83-1.45-2.74-3.35-2.74-5.7,0-4.02,2.27-6.05,6.8-6.08h12.57v3.25h-12.59c-1.37.01-2.38.33-3.04.94s-.98,1.57-.98,2.87c0,1.05.28,1.98.84,2.78s1.3,1.42,2.21,1.86h13.55v3.25h-19.02v-3.08l.01.02Z" fill="#c9d1d9"/>
      <path d="m1207.58,103.29h4.61v-3.55h2.51v3.55h11.81c.76,0,1.33-.16,1.72-.47.38-.32.57-.86.57-1.62,0-.38-.07-.89-.21-1.55h2.62c.23.86.35,1.69.35,2.5,0,1.45-.44,2.55-1.32,3.29s-2.13,1.11-3.74,1.11h-11.79v3.46h-2.51v-3.46h-4.61v-3.25l-.01-.01Z" fill="#c9d1d9"/>
    </g>
    <g>
      <path d="m314.33,322.33c-2.92,0-5.26-.69-7.04-2.07s-2.66-3.19-2.66-5.43.76-3.99,2.29-5.29h-9.91v-3.25h27v2.99l-2.04.16c1.59,1.3,2.39,3.11,2.39,5.43s-.9,4-2.71,5.39-4.16,2.08-7.07,2.08h-.25v-.01Zm.37-3.25c2.16,0,3.84-.45,5.06-1.34s1.83-2.12,1.83-3.69c0-2.06-.93-3.57-2.78-4.52h-8.74c-1.79.97-2.69,2.47-2.69,4.48,0,1.59.62,2.84,1.85,3.73s3.05,1.34,5.47,1.34h0Z" fill="#c9d1d9"/>
      <path d="m299.94,301.22c-.53,0-.97-.16-1.34-.48s-.54-.8-.54-1.43.18-1.11.54-1.44.81-.49,1.34-.49.97.16,1.32.49.53.81.53,1.44-.18,1.11-.53,1.43-.79.48-1.32.48Zm24.06-3.52v3.25h-19.02v-3.25h19.02Z" fill="#c9d1d9"/>
      <path d="m307.9,283.31c-.08.49-.12,1.03-.12,1.6,0,2.13.91,3.58,2.72,4.34h13.5v3.25h-19.02v-3.16l2.2-.05c-1.7-1.07-2.55-2.58-2.55-4.54,0-.63.08-1.11.25-1.44h3.02,0Z" fill="#c9d1d9"/>
      <path d="m324.35,272.76c0,2.58-.85,4.68-2.54,6.29s-3.96,2.43-6.79,2.43h-.6c-1.89,0-3.57-.36-5.05-1.08s-2.64-1.73-3.48-3.02-1.26-2.7-1.26-4.21c0-2.47.81-4.39,2.44-5.77s3.96-2.06,7-2.06h1.35v12.88c1.88-.05,3.39-.59,4.54-1.64s1.73-2.38,1.73-4c0-1.15-.23-2.12-.7-2.92s-1.09-1.49-1.86-2.09l1.55-1.99c2.45,1.59,3.67,3.98,3.67,7.17v.01Zm-17.05.4c0,1.31.48,2.41,1.43,3.3s2.29,1.44,4.02,1.65v-9.53h-.25c-1.65.09-2.93.54-3.84,1.34s-1.36,1.88-1.36,3.23v.01Z" fill="#c9d1d9"/>
      <path d="m321.7,253.95c0-1.16-.35-2.17-1.05-3.04s-1.58-1.35-2.64-1.44v-3.08c1.09.06,2.13.43,3.11,1.12s1.77,1.61,2.36,2.77.88,2.38.88,3.67c0,2.59-.86,4.65-2.59,6.18s-4.09,2.29-7.09,2.29h-.54c-1.85,0-3.5-.34-4.94-1.02s-2.56-1.66-3.36-2.93-1.2-2.77-1.2-4.51c0-2.13.64-3.91,1.92-5.32s2.94-2.17,4.97-2.26v3.08c-1.23.09-2.24.56-3.03,1.4s-1.19,1.87-1.19,3.1c0,1.65.59,2.93,1.78,3.84s2.91,1.36,5.16,1.36h.62c2.19,0,3.88-.45,5.06-1.35s1.78-2.19,1.78-3.87l-.01.01Z" fill="#c9d1d9"/>
      <path d="m300.38,238.32h4.61v-3.55h2.51v3.55h11.81c.76,0,1.33-.16,1.72-.47.38-.32.57-.86.57-1.62,0-.38-.07-.89-.21-1.55h2.62c.23.86.35,1.69.35,2.5,0,1.45-.44,2.55-1.32,3.29s-2.13,1.11-3.74,1.11h-11.79v3.46h-2.51v-3.46h-4.61v-3.25l-.01-.01Z" fill="#c9d1d9"/>
      <path d="m299.94,230.96c-.53,0-.97-.16-1.34-.48s-.54-.8-.54-1.43.18-1.11.54-1.44.81-.49,1.34-.49.97.16,1.32.49.53.81.53,1.44-.18,1.11-.53,1.43-.79.48-1.32.48Zm24.06-3.52v3.25h-19.02v-3.25h19.02Z" fill="#c9d1d9"/>
      <path d="m314.31,223.1c-1.86,0-3.54-.37-5.03-1.1s-2.64-1.75-3.45-3.06-1.21-2.8-1.21-4.47c0-2.59.9-4.68,2.69-6.28s4.18-2.4,7.15-2.4h.23c1.85,0,3.51.35,4.98,1.06s2.62,1.72,3.44,3.04,1.23,2.83,1.23,4.54c0,2.58-.9,4.67-2.69,6.27s-4.17,2.4-7.12,2.4h-.23.01Zm.39-3.27c2.11,0,3.8-.49,5.08-1.47s1.92-2.29,1.92-3.93-.65-2.96-1.94-3.94-3.11-1.46-5.44-1.46c-2.09,0-3.78.5-5.07,1.49s-1.94,2.31-1.94,3.95.64,2.9,1.92,3.88,3.11,1.48,5.48,1.48h-.01Z" fill="#c9d1d9"/>
      <path d="m304.98,198.63l2.39-.11c-1.83-1.45-2.74-3.35-2.74-5.7,0-4.02,2.27-6.05,6.8-6.08h12.57v3.25h-12.59c-1.37.01-2.38.33-3.04.94s-.98,1.57-.98,2.87c0,1.05.28,1.98.84,2.78s1.3,1.42,2.21,1.86h13.55v3.25h-19.02v-3.08l.01.02Z" fill="#c9d1d9"/>
      <path d="m314.31,173.79c-1.86,0-3.54-.37-5.03-1.1s-2.64-1.75-3.45-3.06-1.21-2.8-1.21-4.47c0-2.59.9-4.68,2.69-6.28s4.18-2.4,7.15-2.4h.23c1.85,0,3.51.35,4.98,1.06s2.62,1.72,3.44,3.04,1.23,2.83,1.23,4.54c0,2.58-.9,4.67-2.69,6.27s-4.17,2.4-7.12,2.4h-.23.01Zm.39-3.27c2.11,0,3.8-.49,5.08-1.47s1.92-2.29,1.92-3.93-.65-2.96-1.94-3.94-3.11-1.46-5.44-1.46c-2.09,0-3.78.5-5.07,1.49s-1.94,2.31-1.94,3.95.64,2.9,1.92,3.88,3.11,1.48,5.48,1.48h-.01Z" fill="#c9d1d9"/>
      <path d="m324,150.8h-16.51v3.01h-2.51v-3.01h-1.95c-2.04,0-3.62-.54-4.73-1.63s-1.67-2.63-1.67-4.62c0-.75.1-1.49.3-2.23l2.62.18c-.11.55-.16,1.14-.16,1.76,0,1.05.31,1.87.93,2.44s1.5.86,2.65.86h2.01v-4.06h2.51v4.06h16.51v3.25-.01Z" fill="#c9d1d9"/>
      <path d="m300.38,126.58h4.61v-3.55h2.51v3.55h11.81c.76,0,1.33-.16,1.72-.47.38-.32.57-.86.57-1.62,0-.38-.07-.89-.21-1.55h2.62c.23.86.35,1.69.35,2.5,0,1.45-.44,2.55-1.32,3.29-.88.74-2.13,1.11-3.74,1.11h-11.79v3.46h-2.51v-3.46h-4.61v-3.25l-.01-.01Z" fill="#c9d1d9"/>
      <path d="m307.28,115.98c-1.77-1.44-2.65-3.32-2.65-5.62,0-4.02,2.27-6.05,6.8-6.08h12.57v3.25h-12.59c-1.37.01-2.38.33-3.04.94s-.98,1.57-.98,2.87c0,1.05.28,1.98.84,2.78s1.3,1.42,2.21,1.86h13.55v3.25h-27v-3.25h10.29Z" fill="#c9d1d9"/>
      <path d="m324.35,91.51c0,2.58-.85,4.68-2.54,6.29s-3.96,2.43-6.79,2.43h-.6c-1.89,0-3.57-.36-5.05-1.08s-2.64-1.73-3.48-3.02-1.26-2.7-1.26-4.21c0-2.47.81-4.39,2.44-5.77s3.96-2.06,7-2.06h1.35v12.88c1.88-.05,3.39-.59,4.54-1.64s1.73-2.38,1.73-4c0-1.15-.23-2.12-.7-2.92s-1.09-1.49-1.86-2.09l1.55-1.99c2.45,1.59,3.67,3.98,3.67,7.17v.01Zm-17.05.4c0,1.31.48,2.41,1.43,3.3s2.29,1.44,4.02,1.65v-9.53h-.25c-1.65.09-2.93.54-3.84,1.34s-1.36,1.88-1.36,3.23v.01Z" fill="#c9d1d9"/>
      <path d="m367.2,309.8c-.38.19-1.04.34-2,.46,1.57,1.51,2.36,3.32,2.36,5.41,0,1.88-.53,3.41-1.59,4.61s-2.41,1.8-4.03,1.8c-1.98,0-3.52-.75-4.61-2.26s-1.64-3.62-1.64-6.35v-3.16h-1.49c-1.14,0-2.04.34-2.72,1.02s-1.01,1.68-1.01,3.01c0,1.16.29,2.13.88,2.92s1.29,1.18,2.13,1.18v3.27c-.95,0-1.87-.34-2.75-1.01s-1.58-1.59-2.1-2.74-.77-2.42-.77-3.81c0-2.19.55-3.91,1.64-5.15s2.6-1.89,4.53-1.93h8.75c1.75,0,3.13-.22,4.17-.67h.28v3.41l-.03-.01Zm-2.48,5.4c0-1.02-.26-1.99-.79-2.9s-1.21-1.58-2.06-1.99h-3.9v2.55c0,3.98,1.17,5.98,3.5,5.98,1.02,0,1.82-.34,2.39-1.02s.86-1.55.86-2.62h0Z" fill="#c9d1d9"/>
      <path d="m365.32,290.21c1.49,1.27,2.23,3.12,2.23,5.57,0,2.03-.59,3.57-1.77,4.63s-2.92,1.6-5.23,1.61h-12.38v-3.25h12.29c2.88,0,4.32-1.17,4.32-3.52,0-2.48-.93-4.14-2.78-4.96h-13.83v-3.25h19.02v3.09l-1.88.07.01.01Z" fill="#c9d1d9"/>
      <path d="m357.53,282.9c-2.92,0-5.26-.69-7.04-2.07s-2.66-3.19-2.66-5.43.76-3.99,2.29-5.29h-9.91v-3.25h27v2.99l-2.04.16c1.59,1.3,2.39,3.11,2.39,5.43s-.9,4-2.71,5.39-4.16,2.08-7.07,2.08h-.25v-.01Zm.37-3.25c2.16,0,3.84-.45,5.06-1.34s1.83-2.12,1.83-3.69c0-2.06-.93-3.57-2.78-4.52h-8.74c-1.79.97-2.69,2.47-2.69,4.48,0,1.59.62,2.84,1.85,3.73s3.05,1.34,5.47,1.34h0Z" fill="#c9d1d9"/>
      <path d="m343.14,261.79c-.53,0-.97-.16-1.34-.48s-.54-.8-.54-1.43.18-1.11.54-1.44.81-.49,1.34-.49.97.16,1.32.49.53.81.53,1.44-.18,1.11-.53,1.43-.79.48-1.32.48Zm24.06-3.52v3.25h-19.02v-3.25h19.02Z" fill="#c9d1d9"/>
      <path d="m343.58,248.66h4.61v-3.55h2.51v3.55h11.81c.76,0,1.33-.16,1.72-.47.38-.32.57-.86.57-1.62,0-.38-.07-.89-.21-1.55h2.62c.23.86.35,1.69.35,2.5,0,1.45-.44,2.55-1.32,3.29s-2.13,1.11-3.74,1.11h-11.79v3.46h-2.51v-3.46h-4.61v-3.25l-.01-.01Z" fill="#c9d1d9"/>
      <path d="m357.51,242.53c-1.86,0-3.54-.37-5.03-1.1s-2.64-1.75-3.45-3.06-1.21-2.8-1.21-4.47c0-2.59.9-4.68,2.69-6.28s4.18-2.4,7.15-2.4h.23c1.85,0,3.51.35,4.98,1.06s2.62,1.72,3.44,3.04,1.23,2.83,1.23,4.54c0,2.58-.9,4.67-2.69,6.27s-4.17,2.4-7.12,2.4h-.23.01Zm.39-3.27c2.11,0,3.8-.49,5.08-1.47s1.92-2.29,1.92-3.93-.65-2.96-1.94-3.94-3.11-1.46-5.44-1.46c-2.09,0-3.78.5-5.07,1.49s-1.94,2.31-1.94,3.95.64,2.9,1.92,3.88,3.11,1.48,5.48,1.48h-.01Z" fill="#c9d1d9"/>
      <path d="m351.1,211.94c-.08.49-.12,1.03-.12,1.6,0,2.13.91,3.58,2.72,4.34h13.5v3.25h-19.02v-3.16l2.2-.05c-1.7-1.07-2.55-2.58-2.55-4.54,0-.63.08-1.11.25-1.44h3.02,0Z" fill="#c9d1d9"/>
      <path d="m362.44,202.41l-14.26-4.43v-3.48l21.96,7.65c3.16,1.18,4.75,3.06,4.75,5.64l-.05.62-.23,1.21h-2.64l.07-.88c0-1.1-.22-1.96-.67-2.58s-1.26-1.12-2.44-1.52l-1.93-.72-18.81,6.79v-3.55l14.26-4.75h-.01Z" fill="#c9d1d9"/>
      <path d="m367.55,174.8c0,2.58-.85,4.68-2.54,6.29s-3.96,2.43-6.79,2.43h-.6c-1.89,0-3.57-.36-5.05-1.08s-2.64-1.73-3.48-3.02-1.26-2.7-1.26-4.21c0-2.47.81-4.39,2.44-5.77s3.96-2.06,7-2.06h1.35v12.88c1.88-.05,3.39-.59,4.54-1.64s1.73-2.38,1.73-4c0-1.15-.23-2.12-.7-2.92s-1.09-1.49-1.86-2.09l1.55-1.99c2.45,1.59,3.67,3.98,3.67,7.17v.01Zm-17.05.4c0,1.31.48,2.41,1.43,3.3s2.29,1.44,4.02,1.65v-9.53h-.25c-1.65.09-2.93.54-3.84,1.34s-1.36,1.88-1.36,3.23v.01Z" fill="#c9d1d9"/>
      <path d="m362.79,157.57l-14.61-4.71v-3.32l19.02,6.82v2.48l-19.02,6.89v-3.32l14.61-4.83v-.01Z" fill="#c9d1d9"/>
      <path d="m367.55,138.74c0,2.58-.85,4.68-2.54,6.29s-3.96,2.43-6.79,2.43h-.6c-1.89,0-3.57-.36-5.05-1.08s-2.64-1.73-3.48-3.02-1.26-2.7-1.26-4.21c0-2.47.81-4.39,2.44-5.77s3.96-2.06,7-2.06h1.35v12.88c1.88-.05,3.39-.59,4.54-1.64s1.73-2.38,1.73-4c0-1.15-.23-2.12-.7-2.92s-1.09-1.49-1.86-2.09l1.55-1.99c2.45,1.59,3.67,3.98,3.67,7.17v.01Zm-17.05.4c0,1.31.48,2.41,1.43,3.3s2.29,1.44,4.02,1.65v-9.53h-.25c-1.65.09-2.93.54-3.84,1.34s-1.36,1.88-1.36,3.23v.01Z" fill="#c9d1d9"/>
      <path d="m348.18,124.49l2.39-.11c-1.83-1.45-2.74-3.35-2.74-5.7,0-4.02,2.27-6.05,6.8-6.08h12.57v3.25h-12.59c-1.37.01-2.38.33-3.04.94s-.98,1.57-.98,2.87c0,1.05.28,1.98.84,2.78s1.3,1.42,2.21,1.86h13.55v3.25h-19.02v-3.08l.01.02Z" fill="#c9d1d9"/>
      <path d="m343.58,103.29h4.61v-3.55h2.51v3.55h11.81c.76,0,1.33-.16,1.72-.47.38-.32.57-.86.57-1.62,0-.38-.07-.89-.21-1.55h2.62c.23.86.35,1.69.35,2.5,0,1.45-.44,2.55-1.32,3.29s-2.13,1.11-3.74,1.11h-11.79v3.46h-2.51v-3.46h-4.61v-3.25l-.01-.01Z" fill="#c9d1d9"/>
    </g>
    <polyline points="73.8 459.9 73.8 720 721.8 720 721.8 459.9" fill="none" stroke="#7f7f7f" stroke-miterlimit="10" stroke-width="5"/>
    <polyline points="721.8 411.3 721.8 72 73.8 72 73.8 411.3" fill="none" stroke="#7f7f7f" stroke-miterlimit="10" stroke-width="5"/>
    <polyline points="937.8 459.9 937.8 720 1585.8 720 1585.8 459.9" fill="none" stroke="#7f7f7f" stroke-miterlimit="10" stroke-width="5"/>
    <polyline points="1585.8 411.3 1585.8 72 937.8 72 937.8 411.3" fill="none" stroke="#7f7f7f" stroke-miterlimit="10" stroke-width="5"/>
  </g>
  <g id="Ebene_6" data-name="Ebene 6">
    <path d="m937.8,658.8c11.31-.65,23.35-1.8,36-3.6,22.86-3.26,38.35-7.38,64.8-14.4,18.69-4.96,25.2-7.29,32.4-10.8,17.19-8.39,25.21-17.18,28.8-21.6,3.68-4.54,5.86-8.4,7.2-10.8,18.31-32.83,28.8-57.6,28.8-57.6,9.1-25.18,20.1-44.41,28.8-57.6,11.89-18.03,22.82-29.85,25.2-32.4,15.79-16.91,30.82-27.39,43.2-36,9.6-6.68,17.3-12.11,28.8-18,8.42-4.31,12.61-5.69,21.6-10.8,0,0,10.65-6.06,21.6-14.4,24.6-18.74,48.88-51.9,50.4-54,18.33-25.27,30.93-46.42,54-90,16.2-30.6,14.4-32.4,17.1-39.6.59-1.58,2.47-6.18,5.4-10.8,4.15-6.54,15.2-12.9,18.9-14.4,22.94-9.32,29.01-10.38,30.6-10.8,21.62-5.76,39.95-10.57,68.4-14.4,14.8-1.99,27.21-3.02,36-3.6" fill="none" stroke="#1da37d" stroke-miterlimit="10" stroke-width="5"/>
  </g>
</svg>