<?xml version="1.0" encoding="UTF-8"?>
<svg id="Ebene_3" data-name="Ebene 3" xmlns="http://www.w3.org/2000/svg" width="1821.6" height="313.2" viewBox="0 0 1821.6 313.2">
  <g>
    <path d="m1.5,300.2v-2.7h11.8v2.7H1.5Z" fill="#c9d1d9"/>
    <path d="m19.9,309.9v-20.2c-.9.8-1.8,1.5-2.6,2s-1.7,1-2.7,1.4v-3c.5-.2,1.1-.5,1.6-.9.5-.4,1.2-.9,2-1.6s1.6-1.7,2.5-3h2.3v25.3s-3.1,0-3.1,0Z" fill="#c9d1d9"/>
    <path d="m30.9,310.3c-.8,0-1.4-.3-1.9-.8s-.8-1.1-.8-1.9.3-1.4.8-1.9,1.1-.8,1.9-.8,1.4.3,1.9.8.8,1.1.8,1.9-.3,1.4-.8,1.9-1.2.8-1.9.8Z" fill="#c9d1d9"/>
    <path d="m45.8,310.3c-2.9,0-5.2-1.1-6.8-3.4s-2.4-5.5-2.4-9.6.8-7.4,2.4-9.6,3.9-3.4,6.8-3.4,5.2,1.1,6.8,3.4,2.4,5.5,2.4,9.6-.8,7.4-2.4,9.6-3.8,3.4-6.8,3.4Zm0-2.5c2,0,3.4-.9,4.4-2.7s1.5-4.4,1.5-7.9-.5-6.1-1.5-7.9-2.5-2.7-4.4-2.7-3.4.9-4.4,2.7-1.5,4.4-1.5,7.9.5,6.1,1.5,7.9,2.5,2.7,4.4,2.7Z" fill="#c9d1d9"/>
  </g>
  <g>
    <path d="m19.9,93.9v-20.2c-.9.8-1.8,1.5-2.6,2s-1.7,1-2.7,1.4v-3c.5-.2,1.1-.6,1.6-.9.5-.3,1.2-.9,2-1.6s1.6-1.7,2.5-3h2.3v25.3s-3.1,0-3.1,0Z" fill="#c9d1d9"/>
    <path d="m30.9,94.3c-.8,0-1.4-.3-1.9-.8s-.8-1.2-.8-1.9.3-1.4.8-1.9,1.1-.8,1.9-.8,1.4.3,1.9.8.8,1.2.8,1.9-.3,1.4-.8,1.9-1.2.8-1.9.8Z" fill="#c9d1d9"/>
    <path d="m45.8,94.3c-2.9,0-5.2-1.2-6.8-3.4s-2.4-5.5-2.4-9.6.8-7.3,2.4-9.6,3.9-3.4,6.8-3.4,5.2,1.2,6.8,3.4,2.4,5.5,2.4,9.6-.8,7.3-2.4,9.6-3.8,3.4-6.8,3.4Zm0-2.5c2,0,3.4-.9,4.4-2.7s1.5-4.4,1.5-7.9-.5-6.1-1.5-7.9-2.5-2.7-4.4-2.7-3.4.9-4.4,2.7-1.5,4.4-1.5,7.9.5,6.1,1.5,7.9,2.5,2.7,4.4,2.7Z" fill="#c9d1d9"/>
  </g>
  <g>
    <path d="m16,202.3c-2.9,0-5.2-1.1-6.8-3.4s-2.4-5.5-2.4-9.6.8-7.4,2.4-9.6c1.6-2.2,3.9-3.4,6.8-3.4s5.2,1.1,6.8,3.4,2.4,5.5,2.4,9.6-.8,7.4-2.4,9.6-3.9,3.4-6.8,3.4Zm0-2.5c1.9,0,3.4-.9,4.4-2.7s1.5-4.4,1.5-7.9-.5-6.1-1.5-7.9-2.5-2.7-4.4-2.7-3.4.9-4.4,2.7-1.5,4.4-1.5,7.9.5,6.1,1.5,7.9,2.4,2.7,4.4,2.7Z" fill="#c9d1d9"/>
    <path d="m30.9,202.3c-.8,0-1.4-.3-1.9-.8s-.8-1.1-.8-1.9.3-1.4.8-1.9,1.1-.8,1.9-.8,1.4.3,1.9.8.8,1.1.8,1.9-.3,1.4-.8,1.9-1.2.8-1.9.8Z" fill="#c9d1d9"/>
    <path d="m45.8,202.3c-2.9,0-5.2-1.1-6.8-3.4s-2.4-5.5-2.4-9.6.8-7.4,2.4-9.6,3.9-3.4,6.8-3.4,5.2,1.1,6.8,3.4,2.4,5.5,2.4,9.6-.8,7.4-2.4,9.6-3.8,3.4-6.8,3.4Zm0-2.5c2,0,3.4-.9,4.4-2.7s1.5-4.4,1.5-7.9-.5-6.1-1.5-7.9-2.5-2.7-4.4-2.7-3.4.9-4.4,2.7-1.5,4.4-1.5,7.9.5,6.1,1.5,7.9,2.5,2.7,4.4,2.7Z" fill="#c9d1d9"/>
  </g>
  <path d="m1812.7,223.2c-.8,0-1.4-.2-2-.8s-.8-1.1-.8-1.9v-13.9h-3.1v-2.5h3.1v-4l2.9-.6v4.6h3.8v2.5h-3.8v13.1c0,.4.1.6.2.8s.3.2.7.2h2.9v2.5h-3.9Z" fill="#c9d1d9"/>
  <g>
    <path d="m79.1,39.6V12.7c-1.2,1.1-2.4,2-3.5,2.7-1.1.7-2.3,1.3-3.6,1.8v-4c.7-.3,1.4-.7,2.2-1.2s1.6-1.2,2.6-2.2,2.1-2.3,3.4-4h3v33.8h-4.1Z" fill="#c9d1d9"/>
    <path d="m93.8,40.2c-1,0-1.8-.3-2.5-1s-1-1.5-1-2.5.3-1.8,1-2.5,1.5-1,2.5-1,1.8.3,2.5,1,1,1.5,1,2.5-.3,1.8-1,2.5-1.5,1-2.5,1Z" fill="#c9d1d9"/>
    <path d="m119.9,39.6V9.3h-12.1v-3.5h28.4v3.5h-12.1v30.3h-4.2Z" fill="#c9d1d9"/>
    <path d="m142.4,39.6l-7-25.3h4.2l6,23.4h-.7l6-23.4h5.1l6.1,23.6h-.8l6.1-23.6h4.2l-7,25.3h-5.5l-6.1-22.6h.7l-5.8,22.6h-5.5Z" fill="#c9d1d9"/>
    <path d="m186.8,40.2c-2.4,0-4.5-.6-6.3-1.7s-3.2-2.7-4.2-4.7-1.5-4.3-1.5-6.9.5-4.9,1.5-6.9,2.4-3.5,4.2-4.6,3.9-1.7,6.3-1.7,4.5.6,6.3,1.7c1.8,1.1,3.2,2.7,4.2,4.6s1.5,4.3,1.5,6.9-.5,4.9-1.5,6.9-2.4,3.5-4.2,4.7-4,1.7-6.3,1.7Zm0-3.3c2.4,0,4.3-.9,5.7-2.7s2.1-4.2,2.1-7.3-.7-5.5-2.1-7.3-3.3-2.7-5.7-2.7-4.3.9-5.7,2.7-2.1,4.2-2.1,7.3.7,5.5,2.1,7.3,3.3,2.7,5.7,2.7Z" fill="#c9d1d9"/>
    <path d="m225.6,40.2c-2.1,0-3.9-.5-5.4-1.6s-2.8-2.6-3.7-4.6-1.3-4.3-1.3-7,.4-5,1.3-7,2.1-3.5,3.7-4.6,3.4-1.6,5.4-1.6c1.7,0,3.3.4,4.9,1.2s2.9,2.2,3.7,4.2l-.4.2V4.4h3.9v35.2h-3.7v-5.3l.1.4c-.7,1.8-1.8,3.2-3.4,4.1s-3.3,1.4-5.1,1.4h0Zm1.1-3.3c1.3,0,2.5-.3,3.6-1s2-1.8,2.6-3.2,1-3.3,1-5.6c0-3.4-.7-5.9-2.1-7.6s-3.1-2.5-5.1-2.5c-2.1,0-3.8.9-5.2,2.6s-2,4.2-2,7.4.6,5.5,1.9,7.3,3.1,2.6,5.3,2.6h0Z" fill="#c9d1d9"/>
    <path d="m247.4,10.1c-.9,0-1.7-.3-2.3-1s-1-1.4-1-2.3.3-1.7,1-2.3,1.4-1,2.3-1,1.7.3,2.3,1c.6.7.9,1.4.9,2.3s-.3,1.7-.9,2.3-1.4,1-2.3,1Zm-2,29.5V14.3h3.9v25.3h-3.9Z" fill="#c9d1d9"/>
    <path d="m254.9,17.6v-3.3h13.4v3.3h-13.4Zm3.7,22V9.7c0-1.9.5-3.2,1.3-4s2.4-1.2,4.5-1.2h3.2v3.3h-3.7c-.5,0-.8.1-1,.3-.2.2-.3.5-.3,1v30.6l-4-.1h0Zm12.6-22v-3.3h13.4v3.3h-13.4Zm3.8,22V9.7c0-1.9.5-3.2,1.3-4s2.4-1.2,4.5-1.2h3.2v3.3h-3.7c-.5,0-.8.1-1,.3-.2.2-.3.5-.3,1v30.6l-4-.1h0Z" fill="#c9d1d9"/>
    <path d="m299,40.2c-2.4,0-4.5-.5-6.2-1.6s-3.1-2.6-4.1-4.6-1.4-4.3-1.4-7,.5-5,1.4-7,2.3-3.5,4-4.6,3.8-1.6,6.1-1.6c1.3,0,2.7.2,4,.6s2.6,1.2,3.7,2.2c1.1,1,2,2.5,2.7,4.3s1,4.1,1,6.9h-20.5v-3.2h17.1l-1.1,1.5c-.1-2.2-.4-4-1.1-5.3s-1.5-2.3-2.5-2.9-2.1-.9-3.4-.9c-1.5,0-2.8.4-3.8,1.2s-1.9,1.9-2.5,3.4-.9,3.3-.9,5.4c0,3.2.6,5.6,1.9,7.3s3.1,2.6,5.5,2.6c1.7,0,3.1-.4,4.3-1.3s2-2.1,2.6-3.7l3.9,1.3c-.6,1.5-1.4,2.7-2.4,3.8s-2.2,1.8-3.6,2.4-3,.8-4.7.8Z" fill="#c9d1d9"/>
    <path d="m316.2,39.6V14.3h3.7v5.4l-.1-.6c.8-1.8,1.9-3.1,3.4-4s3-1.4,4.6-1.4c.5,0,.9,0,1.3.1s.8.2,1.2.4l-.5,3.7c-.9-.3-1.7-.4-2.5-.4-.5,0-1.2.1-2,.3s-1.6.6-2.3,1.3-1.4,1.6-2,2.8-.8,2.9-.8,5v12.7h-4Z" fill="#c9d1d9"/>
    <path d="m344.3,40.2c-2.4,0-4.5-.5-6.2-1.6s-3.1-2.7-4.1-4.6-1.4-4.3-1.4-7,.5-5,1.4-7,2.3-3.5,4-4.6,3.8-1.6,6.1-1.6c1.3,0,2.7.2,4,.6s2.6,1.2,3.7,2.2c1.1,1,2,2.5,2.7,4.3s1,4.1,1,6.9h-20.5v-3.2h17.1l-1.1,1.5c-.1-2.2-.4-4-1.1-5.3s-1.5-2.3-2.5-2.9-2.2-.9-3.4-.9c-1.5,0-2.8.4-3.8,1.2s-1.9,1.9-2.5,3.4-.9,3.3-.9,5.4c0,3.2.6,5.6,1.9,7.3s3.1,2.6,5.5,2.6c1.7,0,3.1-.4,4.3-1.3s2-2.1,2.6-3.7l3.9,1.3c-.6,1.5-1.4,2.7-2.4,3.8s-2.2,1.8-3.6,2.4-2.9.8-4.7.8Z" fill="#c9d1d9"/>
    <path d="m361.6,39.6V14.3h3.7v5.7l-.2-1c.7-1.5,1.7-2.7,3.2-3.7s3.2-1.5,5.3-1.5c1.8,0,3.3.4,4.6,1.2s2.3,1.9,3,3.4,1,3.2,1,5.3v15.9h-3.9v-15.6c0-2.1-.4-3.8-1.3-5s-2.2-1.9-4.2-1.9c-2.1,0-3.9.8-5.3,2.4s-2.1,3.9-2.1,7v13.2l-3.8-.1h0Z" fill="#c9d1d9"/>
    <path d="m394.3,39.6c-1,0-1.9-.3-2.6-1s-1.1-1.5-1.1-2.5v-18.5h-4.1v-3.3h4.1v-5.3l3.9-.8v6.1h5v3.3h-5v17.4c0,.5.1.9.2,1s.5.3,1,.3h3.9v3.3h-5.3Z" fill="#c9d1d9"/>
    <path d="m414.9,17.6v-3.3h13.4v3.3h-13.4Zm3.7,22V9.7c0-1.9.5-3.2,1.3-4s2.4-1.2,4.5-1.2h3.2v3.3h-3.7c-.5,0-.8.1-1,.3-.2.2-.3.5-.3,1v30.6l-4-.1h0Z" fill="#c9d1d9"/>
    <path d="m433,39.6V14.3h3.7v5.4l-.1-.6c.8-1.8,1.9-3.1,3.4-4s3-1.4,4.6-1.4c.5,0,.9,0,1.3.1s.8.2,1.2.4l-.5,3.7c-.9-.3-1.7-.4-2.5-.4-.5,0-1.2.1-2,.3s-1.6.6-2.3,1.3-1.4,1.6-2,2.8-.8,2.9-.8,5v12.7h-4Z" fill="#c9d1d9"/>
    <path d="m461.1,40.2c-2.4,0-4.5-.5-6.2-1.6s-3.1-2.6-4.1-4.6-1.4-4.3-1.4-7,.5-5,1.4-7,2.3-3.5,4-4.6,3.8-1.6,6.1-1.6c1.3,0,2.7.2,4,.6s2.6,1.2,3.7,2.2c1.1,1,2,2.5,2.7,4.3s1,4.1,1,6.9h-20.5v-3.2h17.2l-1.1,1.5c-.1-2.2-.4-4-1.1-5.3s-1.5-2.3-2.5-2.9-2.2-.9-3.4-.9c-1.5,0-2.8.4-3.8,1.2s-1.9,1.9-2.5,3.4-.9,3.3-.9,5.4c0,3.2.6,5.6,1.9,7.3s3.1,2.6,5.5,2.6c1.7,0,3.1-.4,4.3-1.3s2-2.1,2.6-3.7l3.9,1.3c-.6,1.5-1.4,2.7-2.4,3.8s-2.2,1.8-3.6,2.4-3,.8-4.8.8Z" fill="#c9d1d9"/>
    <path d="m496.2,48.7v-14.4l.4.4c-.7,1.8-1.8,3.2-3.4,4.1s-3.3,1.3-5.1,1.3c-2,0-3.9-.5-5.4-1.6s-2.8-2.6-3.7-4.6-1.3-4.3-1.3-7,.4-5,1.3-7,2.1-3.5,3.7-4.6,3.4-1.6,5.4-1.6c1.7,0,3.3.4,4.9,1.2s2.9,2.2,3.7,4.2l-.2.2v-5.1h3.7v34.5h-4Zm-7.1-11.8c1.3,0,2.5-.3,3.6-1s2-1.8,2.6-3.2,1-3.3,1-5.6c0-3.4-.7-5.9-2.1-7.6s-3.1-2.5-5.1-2.5c-2.1,0-3.8.9-5.2,2.6s-2,4.2-2,7.4.6,5.5,2,7.3,3,2.6,5.2,2.6h0Z" fill="#c9d1d9"/>
    <path d="m515.9,40.2c-1.8,0-3.3-.4-4.6-1.2s-2.3-1.9-3-3.4-1-3.3-1-5.3v-16h3.9v15.6c0,2.1.4,3.7,1.2,5,.8,1.3,2.2,1.9,4.2,1.9,1.5,0,2.8-.4,3.9-1.2s2-2,2.6-3.5.9-3.5.9-5.9v-11.9h3.9v25.3h-3.7v-6l.2,1c-.7,1.6-1.7,2.9-3.2,3.9s-3.2,1.6-5.3,1.7h0Z" fill="#c9d1d9"/>
    <path d="m545.8,40.2c-2.4,0-4.5-.5-6.2-1.6s-3.1-2.6-4.1-4.6-1.4-4.3-1.4-7,.5-5,1.4-7,2.3-3.5,4-4.6,3.8-1.6,6.1-1.6c1.3,0,2.7.2,4,.6s2.6,1.2,3.7,2.2c1.1,1,2,2.5,2.7,4.3s1,4.1,1,6.9h-20.5v-3.2h17.1l-1.1,1.5c-.1-2.2-.4-4-1.1-5.3s-1.5-2.3-2.5-2.9-2.2-.9-3.4-.9c-1.5,0-2.8.4-3.8,1.2s-1.9,1.9-2.5,3.4-.9,3.3-.9,5.4c0,3.2.6,5.6,1.9,7.3s3.1,2.6,5.5,2.6c1.7,0,3.1-.4,4.3-1.3s2-2.1,2.6-3.7l3.9,1.3c-.6,1.5-1.4,2.7-2.4,3.8s-2.2,1.8-3.6,2.4-3,.8-4.7.8h0Z" fill="#c9d1d9"/>
    <path d="m563,39.6V14.3h3.7v5.7l-.2-1c.7-1.5,1.7-2.7,3.2-3.7s3.2-1.5,5.3-1.5c1.8,0,3.3.4,4.6,1.2s2.3,1.9,3,3.4,1,3.2,1,5.3v15.9h-3.9v-15.6c0-2.1-.4-3.8-1.3-5s-2.2-1.9-4.2-1.9c-2.1,0-3.9.8-5.3,2.4s-2.1,3.9-2.1,7v13.2l-3.8-.1h0Z" fill="#c9d1d9"/>
    <path d="m601,40.2c-2.4,0-4.4-.5-6.2-1.6s-3.1-2.6-4-4.6-1.4-4.3-1.4-7,.5-5,1.4-7,2.3-3.5,4-4.6,3.8-1.6,6.2-1.6c1.8,0,3.4.3,4.9,1s2.6,1.6,3.6,2.9,1.7,2.7,2.2,4.5l-4,1c-.4-2-1.2-3.5-2.4-4.5s-2.5-1.7-4.3-1.7c-2.3,0-4.1.9-5.4,2.6s-1.9,4.2-1.9,7.4.6,5.6,1.9,7.4,3,2.6,5.4,2.6c1.7,0,3.2-.5,4.3-1.5s1.9-2.5,2.4-4.4l4,1.1c-.4,1.3-.9,2.4-1.5,3.4s-1.4,1.8-2.3,2.5-1.9,1.2-3,1.6-2.5.4-3.9.5h0Z" fill="#c9d1d9"/>
    <path d="m619.4,10.1c-.9,0-1.7-.3-2.3-1s-1-1.4-1-2.3.3-1.7,1-2.3,1.4-1,2.3-1,1.7.3,2.3,1c.6.7,1,1.4,1,2.3s-.3,1.7-1,2.3-1.4,1-2.3,1Zm-2,29.5V14.3h3.9v25.3h-3.9Z" fill="#c9d1d9"/>
    <path d="m639.1,40.2c-2.4,0-4.5-.5-6.2-1.6s-3.1-2.6-4.1-4.6-1.4-4.3-1.4-7,.5-5,1.4-7,2.3-3.5,4-4.6,3.8-1.6,6.1-1.6c1.3,0,2.7.2,4,.6s2.6,1.2,3.7,2.2c1.1,1,2,2.5,2.7,4.3s1,4.1,1,6.9h-20.5v-3.2h17.2l-1.1,1.5c-.1-2.2-.4-4-1.1-5.3s-1.5-2.3-2.5-2.9-2.2-.9-3.4-.9c-1.5,0-2.8.4-3.8,1.2s-1.9,1.9-2.5,3.4-.9,3.3-.9,5.4c0,3.2.6,5.6,1.9,7.3s3.1,2.6,5.5,2.6c1.7,0,3.1-.4,4.3-1.3s2-2.1,2.6-3.7l3.9,1.3c-.6,1.5-1.4,2.7-2.4,3.8s-2.2,1.8-3.6,2.4-3,.8-4.8.8h0Z" fill="#c9d1d9"/>
    <path d="m665,40.2c-1.8,0-3.5-.3-5-.9s-2.7-1.5-3.7-2.7-1.6-2.8-2-4.7l4.1-.8c.2,2,.8,3.5,2,4.4s2.7,1.5,4.4,1.5,3.2-.5,4.2-1.3,1.6-2,1.6-3.3c0-1.1-.4-2-1.1-2.6s-1.8-1.1-3.2-1.4l-3.1-.6c-.8-.2-1.7-.4-2.6-.7s-1.7-.7-2.5-1.2-1.4-1.2-1.9-2-.7-1.8-.7-3.1c0-1.7.4-3,1.3-4.1s2-1.8,3.5-2.4,3-.8,4.6-.8c1.8,0,3.4.3,4.7.8s2.4,1.4,3.3,2.4,1.4,2.3,1.7,3.8l-4.3.9c-.1-1-.4-1.8-.8-2.5s-1-1.2-1.7-1.6-1.7-.6-2.9-.6c-1.5,0-2.7.3-3.8.9s-1.6,1.5-1.6,2.8c0,.7.2,1.3.5,1.8s.9.9,1.6,1.2,1.6.6,2.7.8l3.1.7c1.3.3,2.5.7,3.6,1.2s2,1.2,2.7,2.2,1,2.1,1,3.7c0,1.7-.4,3.1-1.2,4.3s-2,2.1-3.5,2.8-3,1.1-5,1.1h0Z" fill="#c9d1d9"/>
    <path d="m681,47.1l-1.4-2,.8-.6c.9-.6,1.5-1.3,2-1.9s.6-1.4.6-2.2v-1.1l.6.8c-1,0-1.8-.3-2.5-1s-1-1.5-1-2.5.3-1.9,1-2.5,1.5-1,2.5-1c.6,0,1.1.1,1.7.4s1,.8,1.4,1.4.6,1.5.6,2.6c0,1.5-.4,3-1.2,4.5s-2.1,2.9-3.8,4.1l-1.3,1h0Z" fill="#c9d1d9"/>
    <path d="m714.4,40.2c-1.8,0-3.5-.3-5-.9s-2.7-1.5-3.7-2.7-1.6-2.8-2-4.7l4.1-.8c.2,2,.8,3.5,2,4.4s2.7,1.5,4.4,1.5,3.2-.5,4.2-1.3,1.6-2,1.6-3.3c0-1.1-.4-2-1.1-2.6s-1.8-1.1-3.2-1.4l-3.1-.6c-.8-.2-1.7-.4-2.6-.7s-1.7-.7-2.5-1.2-1.4-1.2-1.9-2-.7-1.8-.7-3.1c0-1.7.4-3,1.3-4.1s2-1.8,3.5-2.4,3-.8,4.6-.8c1.8,0,3.4.3,4.7.8s2.4,1.4,3.3,2.4,1.4,2.3,1.7,3.8l-4.3.9c-.1-1-.4-1.8-.8-2.5s-1-1.2-1.7-1.6-1.7-.6-2.9-.6c-1.5,0-2.7.3-3.8.9s-1.6,1.5-1.6,2.8c0,.7.2,1.3.5,1.8s.9.9,1.6,1.2,1.6.6,2.7.8l3.1.7c1.3.3,2.5.7,3.6,1.2s2,1.2,2.7,2.2,1,2.1,1,3.7c0,1.7-.4,3.1-1.2,4.3s-2,2.1-3.5,2.8-3,1.1-5,1.1h0Z" fill="#c9d1d9"/>
    <path d="m737.7,40.2c-1.7,0-3.2-.3-4.4-1s-2.2-1.5-2.9-2.7-1-2.4-1-3.8c0-1.5.5-2.9,1.3-4.2s2.3-2.3,4.1-3.1,4.3-1.2,7.2-1.2h4.2l-.4.4v-1.4c0-2-.4-3.6-1.2-4.7s-2.2-1.6-4.1-1.6c-1.8,0-3.2.5-4.2,1.4s-1.5,2.2-1.5,3.7l-4.4-1c.1-1.4.7-2.6,1.6-3.7s2.1-2,3.6-2.7,3.2-1,5.2-1,3.7.4,5,1.2,2.2,1.9,2.8,3.3.9,3.2.9,5.2v11.7c0,.5.1.9.2,1s.5.3,1,.3h1.4v3.3h-2.5c-1.1,0-2-.3-2.7-1s-1.1-1.5-1.1-2.5v-1.8h.6c-.2.7-.6,1.3-1.1,2s-1.1,1.3-1.8,1.9-1.6,1.1-2.6,1.4-1.9.5-3.2.6h0Zm.9-3.3c1.3,0,2.5-.3,3.6-1s2-1.6,2.7-3,1-3.1,1-5.3v-.2h-4c-2.1,0-3.7.3-4.9.8s-2,1.2-2.5,2-.8,1.6-.8,2.4.2,1.5.5,2.2.9,1.2,1.6,1.5,1.8.6,2.8.6h0Z" fill="#c9d1d9"/>
    <path d="m757.7,39.6V14.3h3.7v4.3c.6-1.3,1.6-2.5,3-3.4s3-1.5,4.9-1.5c1.7,0,3.1.5,4.4,1.4s2.2,2.2,2.8,3.9c.8-1.5,1.9-2.8,3.3-3.8s3-1.5,4.8-1.5c2.4,0,4.3.9,5.8,2.6,1.5,1.7,2.1,4.2,2.1,7.3v15.9h-3.9v-15.5c0-1.4-.2-2.7-.5-3.7s-.8-1.8-1.5-2.4-1.6-.8-2.8-.8c-1.3,0-2.4.4-3.5,1.1s-1.8,1.8-2.4,3.2-.9,3.1-.9,5.1v13.2h-3.9v-15.7c0-1.4-.2-2.7-.5-3.7s-.8-1.8-1.5-2.4-1.6-.8-2.7-.8c-1.3,0-2.4.4-3.5,1.1s-1.8,1.8-2.4,3.2-.9,3.1-.9,5.1v13.2l-3.9-.1h0Z" fill="#c9d1d9"/>
    <path d="m809.9,40.2c-2.4,0-4.5-.5-6.2-1.6s-3.1-2.6-4.1-4.6-1.4-4.3-1.4-7,.5-5,1.4-7,2.3-3.5,4-4.6,3.8-1.6,6.1-1.6c1.3,0,2.7.2,4,.6s2.6,1.2,3.7,2.2c1.1,1,2,2.5,2.7,4.3s1,4.1,1,6.9h-20.5v-3.2h17.1l-1.1,1.5c-.1-2.2-.4-4-1.1-5.3s-1.5-2.3-2.5-2.9-2.2-.9-3.4-.9c-1.5,0-2.8.4-3.8,1.2s-1.9,1.9-2.5,3.4-.9,3.3-.9,5.4c0,3.2.6,5.6,1.9,7.3s3.1,2.6,5.5,2.6c1.7,0,3.1-.4,4.3-1.3s2-2.1,2.6-3.7l3.9,1.3c-.6,1.5-1.4,2.7-2.4,3.8s-2.2,1.8-3.6,2.4-3,.8-4.7.8h0Z" fill="#c9d1d9"/>
    <path d="m845.8,40.2c-1.7,0-3.2-.3-4.4-1s-2.2-1.5-2.9-2.7-1-2.4-1-3.8c0-1.5.5-2.9,1.3-4.2s2.3-2.3,4.1-3.1,4.3-1.2,7.2-1.2h4.2l-.4.4v-1.4c0-2-.4-3.6-1.2-4.7s-2.2-1.6-4.1-1.6c-1.8,0-3.2.5-4.2,1.4s-1.5,2.2-1.5,3.7l-4.4-1c.1-1.4.7-2.6,1.6-3.7s2.1-2,3.6-2.7,3.2-1,5.2-1,3.7.4,5,1.2,2.2,1.9,2.8,3.3.9,3.2.9,5.2v11.7c0,.5.1.9.2,1s.5.3,1,.3h1.4v3.3h-2.5c-1.1,0-2-.3-2.7-1s-1.1-1.5-1.1-2.5v-1.8h.6c-.2.7-.6,1.3-1.1,2s-1.1,1.3-1.8,1.9-1.6,1.1-2.6,1.4-1.9.5-3.2.6h0Zm.9-3.3c1.3,0,2.5-.3,3.6-1s2-1.6,2.7-3,1-3.1,1-5.3v-.2h-4c-2.1,0-3.7.3-4.9.8s-2,1.2-2.5,2-.8,1.6-.8,2.4.2,1.5.5,2.2.9,1.2,1.6,1.5,1.7.6,2.8.6h0Z" fill="#c9d1d9"/>
    <path d="m865.8,39.6V14.3h3.7v4.3c.6-1.3,1.6-2.5,3-3.4s3-1.5,4.9-1.5c1.7,0,3.1.5,4.4,1.4s2.2,2.2,2.8,3.9c.8-1.5,1.9-2.8,3.3-3.8s3-1.5,4.8-1.5c2.4,0,4.3.9,5.8,2.6,1.5,1.7,2.1,4.2,2.1,7.3v15.9h-3.9v-15.5c0-1.4-.2-2.7-.5-3.7s-.8-1.8-1.5-2.4-1.7-.9-2.9-.9c-1.3,0-2.4.4-3.5,1.1s-1.8,1.8-2.4,3.2-.9,3.1-.9,5.1v13.2h-3.9v-15.6c0-1.4-.2-2.7-.5-3.7s-.8-1.8-1.5-2.4-1.6-.8-2.7-.8c-1.3,0-2.4.4-3.5,1.1s-1.8,1.8-2.4,3.2-.9,3.1-.9,5.1v13.2l-3.8-.1h0Z" fill="#c9d1d9"/>
    <path d="m907.6,48.7V14.3h3.7v5.3l-.1-.4c.7-1.8,1.8-3.2,3.4-4.1s3.3-1.4,5.1-1.4c2.1,0,3.9.5,5.4,1.6s2.8,2.6,3.7,4.6,1.3,4.3,1.3,7-.4,5-1.3,7-2.1,3.5-3.7,4.6-3.4,1.6-5.4,1.6c-1.7,0-3.3-.4-4.9-1.2s-2.8-2.2-3.7-4.2l.3-.2v14.2h-3.8Zm11.1-11.8c2.1,0,3.8-.9,5.2-2.6s2-4.2,2-7.4-.7-5.6-2-7.3-3-2.6-5.2-2.6c-1.3,0-2.5.3-3.6,1s-2,1.8-2.6,3.2-1,3.3-1,5.6c0,3.4.7,5.9,2.1,7.5s3.1,2.6,5.1,2.6h0Z" fill="#c9d1d9"/>
    <path d="m939.7,39.6c-1,0-1.9-.3-2.6-1s-1.1-1.5-1.1-2.5V4.4h3.9v30.6c0,.5.1.9.2,1s.5.3,1,.3h2.5v3.3h-3.9Z" fill="#c9d1d9"/>
    <path d="m950.7,10.1c-.9,0-1.7-.3-2.3-1s-1-1.4-1-2.3.3-1.7,1-2.3,1.4-1,2.3-1,1.7.3,2.3,1c.6.7,1,1.4,1,2.3s-.3,1.7-1,2.3-1.3,1-2.3,1Zm-1.9,29.5V14.3h3.9v25.3h-3.9Z" fill="#c9d1d9"/>
    <path d="m966,39.6c-1,0-1.9-.3-2.6-1s-1.1-1.5-1.1-2.5v-18.5h-4.1v-3.3h4.1v-5.3l3.9-.8v6.1h5v3.3h-5v17.4c0,.5.1.9.2,1s.5.3,1,.3h3.9v3.3h-5.3Z" fill="#c9d1d9"/>
    <path d="m984.9,40.2c-1.8,0-3.3-.4-4.6-1.2s-2.3-1.9-3-3.4-1-3.3-1-5.3v-16h3.9v15.6c0,2.1.4,3.7,1.2,5s2.2,1.9,4.2,1.9c1.5,0,2.8-.4,3.9-1.2s2-2,2.6-3.5.9-3.5.9-5.9v-11.9h3.9v25.3h-3.7v-6l.2,1c-.7,1.6-1.7,2.9-3.2,3.9s-3.2,1.6-5.3,1.7h0Z" fill="#c9d1d9"/>
    <path d="m1013.2,40.2c-2,0-3.9-.5-5.4-1.6s-2.8-2.6-3.7-4.6-1.3-4.3-1.3-7,.4-5,1.3-7,2.1-3.5,3.7-4.6,3.4-1.6,5.4-1.6c1.7,0,3.3.4,4.9,1.2s2.8,2.2,3.7,4.2l-.5.2V4.4h3.9v35.2h-3.7v-5.3l.1.4c-.7,1.8-1.8,3.2-3.4,4.1s-3.2,1.4-5,1.4h0Zm1-3.3c1.3,0,2.5-.3,3.6-1s2-1.8,2.6-3.2,1-3.3,1-5.6c0-3.4-.7-5.9-2.1-7.6s-3.1-2.5-5.1-2.5c-2.1,0-3.8.9-5.2,2.6s-2,4.2-2,7.4.7,5.5,2,7.3,3.1,2.6,5.2,2.6h0Z" fill="#c9d1d9"/>
    <path d="m1043.1,40.2c-2.4,0-4.5-.5-6.2-1.6s-3.1-2.6-4.1-4.6-1.4-4.3-1.4-7,.5-5,1.4-7,2.3-3.5,4-4.6,3.8-1.6,6.1-1.6c1.3,0,2.7.2,4,.6s2.6,1.2,3.7,2.2c1.1,1,2,2.5,2.7,4.3s1,4.1,1,6.9h-20.5v-3.2h17.1l-1.1,1.5c-.1-2.2-.4-4-1.1-5.3s-1.5-2.3-2.5-2.9-2.2-.9-3.4-.9c-1.5,0-2.8.4-3.8,1.2s-1.9,1.9-2.5,3.4-.9,3.3-.9,5.4c0,3.2.6,5.6,1.9,7.3s3.1,2.6,5.5,2.6c1.7,0,3.1-.4,4.3-1.3s2-2.1,2.6-3.7l3.9,1.3c-.6,1.5-1.4,2.7-2.4,3.8s-2.2,1.8-3.6,2.4-3,.8-4.7.8h0Z" fill="#c9d1d9"/>
  </g>
  <line x1="70.8" y1="298.8" x2="70.8" y2="82.8" fill="none" stroke="#c9d1d9" stroke-miterlimit="10" stroke-width="2"/>
  <line x1="70.8" y1="298.8" x2="99.4" y2="298.8" fill="none" stroke="#c9d1d9" stroke-miterlimit="10" stroke-width="2"/>
  <line x1="70.8" y1="136.8" x2="99.4" y2="136.8" fill="none" stroke="#c9d1d9" stroke-miterlimit="10" stroke-width="2"/>
  <line x1="70.8" y1="82.8" x2="99.4" y2="82.8" fill="none" stroke="#c9d1d9" stroke-miterlimit="10" stroke-width="2"/>
  <line x1="70.8" y1="244.8" x2="99.4" y2="244.8" fill="none" stroke="#c9d1d9" stroke-miterlimit="10" stroke-width="2"/>
  <g opacity=".5">
    <g>
      <line x1="151.4" y1="82.8" x2="151.4" y2="88.8" fill="none" stroke="#c9d1d9" stroke-linecap="round" stroke-linejoin="round" stroke-width="1.42"/>
      <line x1="151.4" y1="100.8" x2="151.4" y2="286.8" fill="none" stroke="#c9d1d9" stroke-dasharray="0 0 0 0 0 0 12 12" stroke-linecap="round" stroke-linejoin="round" stroke-width="1.42"/>
      <line x1="151.4" y1="292.8" x2="151.4" y2="298.8" fill="none" stroke="#c9d1d9" stroke-linecap="round" stroke-linejoin="round" stroke-width="1.42"/>
    </g>
  </g>
  <g opacity=".5">
    <g>
      <line x1="232.2" y1="82.8" x2="232.2" y2="88.8" fill="none" stroke="#c9d1d9" stroke-linecap="round" stroke-linejoin="round" stroke-width="1.42"/>
      <line x1="232.2" y1="100.8" x2="232.2" y2="286.8" fill="none" stroke="#c9d1d9" stroke-dasharray="0 0 0 0 0 0 12 12" stroke-linecap="round" stroke-linejoin="round" stroke-width="1.42"/>
      <line x1="232.2" y1="292.8" x2="232.2" y2="298.8" fill="none" stroke="#c9d1d9" stroke-linecap="round" stroke-linejoin="round" stroke-width="1.42"/>
    </g>
  </g>
  <g opacity=".5">
    <g>
      <line x1="313.1" y1="82.8" x2="313.1" y2="88.8" fill="none" stroke="#c9d1d9" stroke-linecap="round" stroke-linejoin="round" stroke-width="1.42"/>
      <line x1="313.1" y1="100.8" x2="313.1" y2="286.8" fill="none" stroke="#c9d1d9" stroke-dasharray="0 0 0 0 0 0 12 12" stroke-linecap="round" stroke-linejoin="round" stroke-width="1.42"/>
      <line x1="313.1" y1="292.8" x2="313.1" y2="298.8" fill="none" stroke="#c9d1d9" stroke-linecap="round" stroke-linejoin="round" stroke-width="1.42"/>
    </g>
  </g>
  <g opacity=".5">
    <g>
      <line x1="393.9" y1="82.8" x2="393.9" y2="88.8" fill="none" stroke="#c9d1d9" stroke-linecap="round" stroke-linejoin="round" stroke-width="1.42"/>
      <line x1="393.9" y1="100.8" x2="393.9" y2="286.8" fill="none" stroke="#c9d1d9" stroke-dasharray="0 0 0 0 0 0 12 12" stroke-linecap="round" stroke-linejoin="round" stroke-width="1.42"/>
      <line x1="393.9" y1="292.8" x2="393.9" y2="298.8" fill="none" stroke="#c9d1d9" stroke-linecap="round" stroke-linejoin="round" stroke-width="1.42"/>
    </g>
  </g>
  <g opacity=".5">
    <g>
      <line x1="474.8" y1="82.8" x2="474.8" y2="88.8" fill="none" stroke="#c9d1d9" stroke-linecap="round" stroke-linejoin="round" stroke-width="1.42"/>
      <line x1="474.8" y1="100.8" x2="474.8" y2="286.8" fill="none" stroke="#c9d1d9" stroke-dasharray="0 0 0 0 0 0 12 12" stroke-linecap="round" stroke-linejoin="round" stroke-width="1.42"/>
      <line x1="474.8" y1="292.8" x2="474.8" y2="298.8" fill="none" stroke="#c9d1d9" stroke-linecap="round" stroke-linejoin="round" stroke-width="1.42"/>
    </g>
  </g>
  <g opacity=".5">
    <g>
      <line x1="555.6" y1="82.8" x2="555.6" y2="88.8" fill="none" stroke="#c9d1d9" stroke-linecap="round" stroke-linejoin="round" stroke-width="1.42"/>
      <line x1="555.6" y1="100.8" x2="555.6" y2="286.8" fill="none" stroke="#c9d1d9" stroke-dasharray="0 0 0 0 0 0 12 12" stroke-linecap="round" stroke-linejoin="round" stroke-width="1.42"/>
      <line x1="555.6" y1="292.8" x2="555.6" y2="298.8" fill="none" stroke="#c9d1d9" stroke-linecap="round" stroke-linejoin="round" stroke-width="1.42"/>
    </g>
  </g>
  <g opacity=".5">
    <g>
      <line x1="636.4" y1="82.8" x2="636.4" y2="88.8" fill="none" stroke="#c9d1d9" stroke-linecap="round" stroke-linejoin="round" stroke-width="1.42"/>
      <line x1="636.4" y1="100.8" x2="636.4" y2="286.8" fill="none" stroke="#c9d1d9" stroke-dasharray="0 0 0 0 0 0 12 12" stroke-linecap="round" stroke-linejoin="round" stroke-width="1.42"/>
      <line x1="636.4" y1="292.8" x2="636.4" y2="298.8" fill="none" stroke="#c9d1d9" stroke-linecap="round" stroke-linejoin="round" stroke-width="1.42"/>
    </g>
  </g>
  <g opacity=".5">
    <g>
      <line x1="717.3" y1="82.8" x2="717.3" y2="88.8" fill="none" stroke="#c9d1d9" stroke-linecap="round" stroke-linejoin="round" stroke-width="1.42"/>
      <line x1="717.3" y1="100.8" x2="717.3" y2="286.8" fill="none" stroke="#c9d1d9" stroke-dasharray="0 0 0 0 0 0 12 12" stroke-linecap="round" stroke-linejoin="round" stroke-width="1.42"/>
      <line x1="717.3" y1="292.8" x2="717.3" y2="298.8" fill="none" stroke="#c9d1d9" stroke-linecap="round" stroke-linejoin="round" stroke-width="1.42"/>
    </g>
  </g>
  <g opacity=".5">
    <g>
      <line x1="798.1" y1="82.8" x2="798.1" y2="88.8" fill="none" stroke="#c9d1d9" stroke-linecap="round" stroke-linejoin="round" stroke-width="1.42"/>
      <line x1="798.1" y1="100.8" x2="798.1" y2="286.8" fill="none" stroke="#c9d1d9" stroke-dasharray="0 0 0 0 0 0 12 12" stroke-linecap="round" stroke-linejoin="round" stroke-width="1.42"/>
      <line x1="798.1" y1="292.8" x2="798.1" y2="298.8" fill="none" stroke="#c9d1d9" stroke-linecap="round" stroke-linejoin="round" stroke-width="1.42"/>
    </g>
  </g>
  <g opacity=".5">
    <g>
      <line x1="878.9" y1="82.8" x2="878.9" y2="88.8" fill="none" stroke="#c9d1d9" stroke-linecap="round" stroke-linejoin="round" stroke-width="1.42"/>
      <line x1="878.9" y1="100.8" x2="878.9" y2="286.8" fill="none" stroke="#c9d1d9" stroke-dasharray="0 0 0 0 0 0 12 12" stroke-linecap="round" stroke-linejoin="round" stroke-width="1.42"/>
      <line x1="878.9" y1="292.8" x2="878.9" y2="298.8" fill="none" stroke="#c9d1d9" stroke-linecap="round" stroke-linejoin="round" stroke-width="1.42"/>
    </g>
  </g>
  <g opacity=".5">
    <g>
      <line x1="959.8" y1="82.8" x2="959.8" y2="88.8" fill="none" stroke="#c9d1d9" stroke-linecap="round" stroke-linejoin="round" stroke-width="1.42"/>
      <line x1="959.8" y1="100.8" x2="959.8" y2="286.8" fill="none" stroke="#c9d1d9" stroke-dasharray="0 0 0 0 0 0 12 12" stroke-linecap="round" stroke-linejoin="round" stroke-width="1.42"/>
      <line x1="959.8" y1="292.8" x2="959.8" y2="298.8" fill="none" stroke="#c9d1d9" stroke-linecap="round" stroke-linejoin="round" stroke-width="1.42"/>
    </g>
  </g>
  <g opacity=".5">
    <g>
      <line x1="1040.6" y1="82.8" x2="1040.6" y2="88.8" fill="none" stroke="#c9d1d9" stroke-linecap="round" stroke-linejoin="round" stroke-width="1.42"/>
      <line x1="1040.6" y1="100.8" x2="1040.6" y2="286.8" fill="none" stroke="#c9d1d9" stroke-dasharray="0 0 0 0 0 0 12 12" stroke-linecap="round" stroke-linejoin="round" stroke-width="1.42"/>
      <line x1="1040.6" y1="292.8" x2="1040.6" y2="298.8" fill="none" stroke="#c9d1d9" stroke-linecap="round" stroke-linejoin="round" stroke-width="1.42"/>
    </g>
  </g>
  <g opacity=".5">
    <g>
      <line x1="1121.4" y1="82.8" x2="1121.4" y2="88.8" fill="none" stroke="#c9d1d9" stroke-linecap="round" stroke-linejoin="round" stroke-width="1.42"/>
      <line x1="1121.4" y1="100.8" x2="1121.4" y2="286.8" fill="none" stroke="#c9d1d9" stroke-dasharray="0 0 0 0 0 0 12 12" stroke-linecap="round" stroke-linejoin="round" stroke-width="1.42"/>
      <line x1="1121.4" y1="292.8" x2="1121.4" y2="298.8" fill="none" stroke="#c9d1d9" stroke-linecap="round" stroke-linejoin="round" stroke-width="1.42"/>
    </g>
  </g>
  <g opacity=".5">
    <g>
      <line x1="1202.3" y1="82.8" x2="1202.3" y2="88.8" fill="none" stroke="#c9d1d9" stroke-linecap="round" stroke-linejoin="round" stroke-width="1.42"/>
      <line x1="1202.3" y1="100.8" x2="1202.3" y2="286.8" fill="none" stroke="#c9d1d9" stroke-dasharray="0 0 0 0 0 0 12 12" stroke-linecap="round" stroke-linejoin="round" stroke-width="1.42"/>
      <line x1="1202.3" y1="292.8" x2="1202.3" y2="298.8" fill="none" stroke="#c9d1d9" stroke-linecap="round" stroke-linejoin="round" stroke-width="1.42"/>
    </g>
  </g>
  <g opacity=".5">
    <g>
      <line x1="1283.1" y1="82.8" x2="1283.1" y2="88.8" fill="none" stroke="#c9d1d9" stroke-linecap="round" stroke-linejoin="round" stroke-width="1.42"/>
      <line x1="1283.1" y1="100.8" x2="1283.1" y2="286.8" fill="none" stroke="#c9d1d9" stroke-dasharray="0 0 0 0 0 0 12 12" stroke-linecap="round" stroke-linejoin="round" stroke-width="1.42"/>
      <line x1="1283.1" y1="292.8" x2="1283.1" y2="298.8" fill="none" stroke="#c9d1d9" stroke-linecap="round" stroke-linejoin="round" stroke-width="1.42"/>
    </g>
  </g>
  <g opacity=".5">
    <g>
      <line x1="1363.9" y1="82.8" x2="1363.9" y2="88.8" fill="none" stroke="#c9d1d9" stroke-linecap="round" stroke-linejoin="round" stroke-width="1.42"/>
      <line x1="1363.9" y1="100.8" x2="1363.9" y2="286.8" fill="none" stroke="#c9d1d9" stroke-dasharray="0 0 0 0 0 0 12 12" stroke-linecap="round" stroke-linejoin="round" stroke-width="1.42"/>
      <line x1="1363.9" y1="292.8" x2="1363.9" y2="298.8" fill="none" stroke="#c9d1d9" stroke-linecap="round" stroke-linejoin="round" stroke-width="1.42"/>
    </g>
  </g>
  <g opacity=".5">
    <g>
      <line x1="1444.8" y1="82.8" x2="1444.8" y2="88.8" fill="none" stroke="#c9d1d9" stroke-linecap="round" stroke-linejoin="round" stroke-width="1.42"/>
      <line x1="1444.8" y1="100.8" x2="1444.8" y2="286.8" fill="none" stroke="#c9d1d9" stroke-dasharray="0 0 0 0 0 0 12 12" stroke-linecap="round" stroke-linejoin="round" stroke-width="1.42"/>
      <line x1="1444.8" y1="292.8" x2="1444.8" y2="298.8" fill="none" stroke="#c9d1d9" stroke-linecap="round" stroke-linejoin="round" stroke-width="1.42"/>
    </g>
  </g>
  <g opacity=".5">
    <g>
      <line x1="1525.6" y1="82.8" x2="1525.6" y2="88.8" fill="none" stroke="#c9d1d9" stroke-linecap="round" stroke-linejoin="round" stroke-width="1.42"/>
      <line x1="1525.6" y1="100.8" x2="1525.6" y2="286.8" fill="none" stroke="#c9d1d9" stroke-dasharray="0 0 0 0 0 0 12 12" stroke-linecap="round" stroke-linejoin="round" stroke-width="1.42"/>
      <line x1="1525.6" y1="292.8" x2="1525.6" y2="298.8" fill="none" stroke="#c9d1d9" stroke-linecap="round" stroke-linejoin="round" stroke-width="1.42"/>
    </g>
  </g>
  <g opacity=".5">
    <g>
      <line x1="1606.5" y1="82.8" x2="1606.5" y2="88.8" fill="none" stroke="#c9d1d9" stroke-linecap="round" stroke-linejoin="round" stroke-width="1.42"/>
      <line x1="1606.5" y1="100.8" x2="1606.5" y2="286.8" fill="none" stroke="#c9d1d9" stroke-dasharray="0 0 0 0 0 0 12 12" stroke-linecap="round" stroke-linejoin="round" stroke-width="1.42"/>
      <line x1="1606.5" y1="292.8" x2="1606.5" y2="298.8" fill="none" stroke="#c9d1d9" stroke-linecap="round" stroke-linejoin="round" stroke-width="1.42"/>
    </g>
  </g>
  <g opacity=".5">
    <g>
      <line x1="1687.3" y1="82.8" x2="1687.3" y2="88.8" fill="none" stroke="#c9d1d9" stroke-linecap="round" stroke-linejoin="round" stroke-width="1.42"/>
      <line x1="1687.3" y1="100.8" x2="1687.3" y2="286.8" fill="none" stroke="#c9d1d9" stroke-dasharray="0 0 0 0 0 0 12 12" stroke-linecap="round" stroke-linejoin="round" stroke-width="1.42"/>
      <line x1="1687.3" y1="292.8" x2="1687.3" y2="298.8" fill="none" stroke="#c9d1d9" stroke-linecap="round" stroke-linejoin="round" stroke-width="1.42"/>
    </g>
  </g>
  <g opacity=".5">
    <g>
      <line x1="1768.1" y1="82.8" x2="1768.1" y2="88.8" fill="none" stroke="#c9d1d9" stroke-linecap="round" stroke-linejoin="round" stroke-width="1.42"/>
      <line x1="1768.1" y1="100.8" x2="1768.1" y2="286.8" fill="none" stroke="#c9d1d9" stroke-dasharray="0 0 0 0 0 0 12 12" stroke-linecap="round" stroke-linejoin="round" stroke-width="1.42"/>
      <line x1="1768.1" y1="292.8" x2="1768.1" y2="298.8" fill="none" stroke="#c9d1d9" stroke-linecap="round" stroke-linejoin="round" stroke-width="1.42"/>
    </g>
  </g>
  <g opacity=".5">
    <g>
      <line x1="1768.1" y1="136.8" x2="1762.1" y2="136.8" fill="none" stroke="#c9d1d9" stroke-linecap="round" stroke-linejoin="round" stroke-width="1.42"/>
      <line x1="1750.2" y1="136.8" x2="82.5" y2="136.8" fill="none" stroke="#c9d1d9" stroke-dasharray="0 0 0 0 0 0 11.95 11.95" stroke-linecap="round" stroke-linejoin="round" stroke-width="1.42"/>
      <line x1="76.6" y1="136.8" x2="70.6" y2="136.8" fill="none" stroke="#c9d1d9" stroke-linecap="round" stroke-linejoin="round" stroke-width="1.42"/>
    </g>
  </g>
  <g opacity=".5">
    <g>
      <line x1="1768.1" y1="244.8" x2="1762.1" y2="244.8" fill="none" stroke="#c9d1d9" stroke-linecap="round" stroke-linejoin="round" stroke-width="1.42"/>
      <line x1="1750.2" y1="244.8" x2="82.5" y2="244.8" fill="none" stroke="#c9d1d9" stroke-dasharray="0 0 0 0 0 0 11.95 11.95" stroke-linecap="round" stroke-linejoin="round" stroke-width="1.42"/>
      <line x1="76.6" y1="244.8" x2="70.6" y2="244.8" fill="none" stroke="#c9d1d9" stroke-linecap="round" stroke-linejoin="round" stroke-width="1.42"/>
    </g>
  </g>
  <g opacity=".5">
    <g>
      <line x1="1768.1" y1="82.8" x2="1762.1" y2="82.8" fill="none" stroke="#c9d1d9" stroke-linecap="round" stroke-linejoin="round" stroke-width="1.42"/>
      <line x1="1750.2" y1="82.8" x2="82.5" y2="82.8" fill="none" stroke="#c9d1d9" stroke-dasharray="0 0 0 0 0 0 11.95 11.95" stroke-linecap="round" stroke-linejoin="round" stroke-width="1.42"/>
      <line x1="76.6" y1="82.8" x2="70.6" y2="82.8" fill="none" stroke="#c9d1d9" stroke-linecap="round" stroke-linejoin="round" stroke-width="1.42"/>
    </g>
  </g>
  <g opacity=".5">
    <g>
      <line x1="1768.1" y1="298.8" x2="1762.1" y2="298.8" fill="none" stroke="#c9d1d9" stroke-linecap="round" stroke-linejoin="round" stroke-width="1.42"/>
      <line x1="1750.2" y1="298.8" x2="82.5" y2="298.8" fill="none" stroke="#c9d1d9" stroke-dasharray="0 0 0 0 0 0 11.95 11.95" stroke-linecap="round" stroke-linejoin="round" stroke-width="1.42"/>
      <line x1="76.6" y1="298.8" x2="70.6" y2="298.8" fill="none" stroke="#c9d1d9" stroke-linecap="round" stroke-linejoin="round" stroke-width="1.42"/>
    </g>
  </g>
  <g>
    <line x1="70.8" y1="190.8" x2="1791" y2="190.8" fill="none" stroke="#c9d1d9" stroke-linecap="round" stroke-miterlimit="10" stroke-width="2.83"/>
    <polygon points="1785.4 199 1816.1 190.8 1785.4 182.6 1785.4 199" fill="#c9d1d9"/>
  </g>
  <path d="m70.6,150.1h0l6.2,7.3,7.5,10.3,9.9,15.5,21.1,33.4,7.5,9.9,6.2,6.9,5.8,5,5,3.1,4.6,1.8,4.1.8h3.7l3.7-.7,4.1-1.6,4.6-2.7,5.4-4.4,5.8-6.1,6.6-8.4,8.3-12.1,13.7-22,12.4-19.4,7.9-10.6,6.6-7.4,5.8-5.1,5.4-3.4,4.6-1.8,3.7-.7h3.7l3.7.7,4.1,1.6,4.6,2.7,5.4,4.4,5.8,6,6.6,8.3,8.3,12.1,13.3,21.3,12.9,20.1,7.9,10.7,6.6,7.4,5.8,5.1,5.4,3.4,4.6,1.8,4.1.8h3.7l3.7-.7,4.1-1.6,4.6-2.7,5.4-4.4,5.8-6.1,6.6-8.4,8.3-12.1,13.7-22,12.4-19.4,7.9-10.6,6.6-7.4,5.8-5.1,5.4-3.4,4.6-1.8,3.7-.7h3.7l3.7.7,4.1,1.6,4.6,2.7,5.4,4.4,5.8,6,6.6,8.4,8.3,12.1,13.3,21.3,12.8,20.1,7.9,10.7,6.6,7.4,5.8,5.1,5.4,3.4,4.6,1.8,4.1.8,3.7-.1,3.7-.7,4.1-1.6,4.6-2.7,5.4-4.4,5.8-6.1,6.6-8.4,8.3-12.1,13.7-22,12.4-19.4,7.9-10.6,6.6-7.4,5.8-5.1,5.4-3.4,4.6-1.8,3.7-.7h3.7l3.7.7,4.1,1.6,4.6,2.7,5.4,4.4,5.8,6.1,6.6,8.4,8.3,12.1,13.3,21.3,12.8,20.1,7.9,10.7,6.6,7.4,5.8,5.1,5.4,3.4,4.6,1.8,4.1.8,3.7-.1,3.7-.8,4.1-1.6,4.6-2.7,5.4-4.4,5.8-6.1,6.6-8.4,8.3-12.1,13.7-22,12.4-19.4,7.9-10.6,6.6-7.4,5.8-5,5.4-3.3,4.6-1.8,3.7-.7h3.7l3.7.7,4.1,1.6,4.6,2.7,5.4,4.4,5.8,6.1,6.6,8.4,8.3,12.1,13.3,21.3,12.8,20.1,7.9,10.6,6.6,7.4,5.8,5.1,5.4,3.4,4.6,1.8,4.1.8,3.7-.1,3.7-.8,4.1-1.6,4.6-2.7,5.4-4.4,5.8-6.1,6.6-8.4,8.3-12.1,13.7-22,12.4-19.4,7.9-10.6,6.6-7.4,5.8-5,5-3.1,4.6-1.8,4.1-.8h3.7l3.7.7,4.1,1.6,4.6,2.7,5.4,4.4,5.8,6.1,6.6,8.4,8.3,12.1,13.3,21.3,12.8,20.1,7.9,10.6,6.6,7.4,5.8,5.1,5.4,3.4,4.6,1.8,4.1.7,3.7-.1,3.7-.8,4.1-1.6,4.6-2.8,5.4-4.4,5.8-6.1,6.6-8.4,8.3-12.1,13.7-22,12.4-19.4,7.9-10.6,6.6-7.4,5.8-5,5-3.1,4.6-1.8,4.1-.8h3.7l3.7.7,4.1,1.6,4.6,2.7,5.4,4.4,5.8,6.1,6.6,8.4,8.3,12.1,13.7,22,12.4,19.4,7.9,10.6,6.6,7.4,5.8,5.1,5.4,3.4,4.6,1.8,3.7.7h3.7l3.7-.7,4.1-1.6,4.6-2.7,5.4-4.4,5.8-6,6.6-8.3,7.9-11.4,12.4-19.9,13.7-21.5,7.9-10.8,6.6-7.6,5.8-5.2,5.4-3.5,4.6-1.9,4.1-.9h3.7l3.7.6,4.1,1.5,4.6,2.6,5,3.9,5.8,5.9,6.6,8.2,7.9,11.3,12,19.2,14.9,23.5,7.9,10.7,6.6,7.5,5.8,5.2,5.4,3.5,4.6,1.9,4.1.8h3.7l3.7-.7,4.1-1.6,4.6-2.7,5.4-4.4,5.8-6,6.6-8.3,8.3-12.1,13.3-21.3,12.8-20.1,7.9-10.7,6.6-7.4,5.8-5.1,5.4-3.4,4.6-1.8,4.1-.8h3.7l3.7.7,4.1,1.6,4.6,2.7,5.4,4.4,5.8,6.1,6.6,8.4,8.3,12.1,13.7,22,13.201,19,7.9,10.6,5,5.7" fill="none" stroke="#307eef" stroke-linecap="round" stroke-linejoin="round" stroke-width="5"/>
  <path d="m70.6,161.7h0l16.6,9.2,22,13.3,47.2,28.9,17,9.2,14.1,6.6,12.4,5,11.6,3.8,10.8,2.8,10.4,1.9,9.9,1.1,9.9.4,9.5-.3,10-1.1,10-1.8,10.4-2.6,10.8-3.4,11.6-4.5,12.9-5.8,14.5-7.5,17.4-10,26.1-16.1,34-20.8,17.4-9.6,14.5-7,12.9-5.3,11.6-4,10.8-2.9,10.4-2.1,10-1.3,9.9-.5,9.5.2,10,.9,10,1.6,10.4,2.4,10.8,3.3,11.6,4.3,12.4,5.5,14.1,7.1,17,9.6,23.2,14.2,41.8,25.7,17.4,9.5,14.5,6.9,12.8,5.2,11.6,3.9,10.8,2.8,10.4,2,10,1.2,10,.4,9.5-.3,10-1,10-1.7,10.4-2.5,10.8-3.4,11.6-4.4,12.2-5.7,14.5-7.4,17.4-9.9,25.7-15.8,35.2-21.6,17.4-9.6,14.5-7,12.8-5.3,11.6-4,10.8-2.9,10.4-2.1,9.9-1.3,9.9-.5,9.5.2,9.9.9,9.9,1.6,10.4,2.4,10.8,3.3,11.6,4.3,12.4,5.5,14.1,7.1,17,9.6,23.6,14.4,41,25.2,17.4,9.5,14.5,7,12.8,5.3,11.6,3.9,10.8,2.9,10.4,2,9.9,1.2,9.9.5,9.5-.2,9.9-1,9.9-1.7,10.4-2.5,10.8-3.3,11.6-4.4,12.8-5.7,14.5-7.4,17.4-9.9,25.3-15.6,36.1-22.1,17.4-9.6,14.5-7,12.8-5.3,11.6-4,10.8-2.9,10.4-2.1,9.9-1.3,9.9-.5,9.5.2,9.9.9,9.9,1.6,10.4,2.4,10.8,3.3,11.6,4.3,12.8,5.7,14.1,7.1,17,9.6,23.6,14.5,40.2,24.6,14.5,8" fill="none" stroke="#307eef" stroke-linecap="round" stroke-linejoin="round" stroke-width="5"/>
  <path d="m70.6,121.1h0l6.6,11.4,7.9,15.4,10.8,23.3,20.7,45.2,8.3,15.8,6.6,10.9,6.2,8.5,5.4,5.9,5.4,4.4,4.6,2.5,4.1,1.4,3.7.5,3.7-.2,3.7-.9,4.1-1.8,5-3.1,5.8-4.8,7-7.2,9.1-10.9,23.6-29.1,7.5-7.2,6.2-4.7,5.4-2.9,4.6-1.6,4.1-.7h4.1l4.1.8,4.1,1.5,5,2.7,5.4,3.9,6.6,6.1,7.9,8.8,11.6,14.6,14.5,17.9,7.5,7.8,6.6,5.5,5.4,3.2,4.6,1.8,4.1.8,3.7-.1,3.7-.8,3.7-1.5,4.1-2.5,5-4.2,5.4-6,5.8-8,6.2-10.1,7.5-14,9.1-19.1,29.8-64.2,7.5-13.1,6.2-9.2,5.8-7,5.4-4.9,5-3.1,4.1-1.6,3.7-.6,3.7.2,3.7.9,4.1,1.8,4.6,3,5.4,4.8,6.2,6.9,7,9.3,9.5,14.2,22.4,34,7.5,9.4,6.6,6.9,5.8,4.7,5.4,3.1,4.6,1.7,4.1.8h4.1l4.1-.7,4.6-1.6,5-2.6,5.8-4.1,7.5-6.5,10-10.2,18.2-18.9,7.5-6.2,6.2-3.9,5-2.1,4.1-.9,4.1-.2,3.7.5,3.7,1.2,4.1,2.1,4.6,3.3,5.4,5.2,5.8,7.1,6.2,9.2,7,12.1,8.7,16.8,15.3,32,12,24.1,7.9,14,6.6,10,5.8,7.2,5.4,5.2,5,3.4,4.1,1.8,3.7.8h3.3l3.7-.7,3.7-1.5,4.1-2.6,5-4.2,5.4-5.9,6.2-8.3,7-11,9.1-16,26.1-47,7.5-11.1,6.6-8.3,5.8-5.8,5.4-4.1,5-2.6,4.1-1.3,4.1-.5,4.1.2,4.1.9,4.6,1.8,5.4,3.1,6.6,5,8.7,7.9,25.3,23.9,6.6,4.5,5.4,2.6,4.6,1.4,4.1.5,4.1-.2,4.1-1,4.1-1.8,4.6-2.9,5.4-4.6,5.8-6.3,6.2-8.2,7-10.8,9.1-15.8,29.4-52.5,7-10,5.8-6.7,5.4-4.9,5-3.2,4.1-1.6,3.7-.7,3.3.1,3.7.8,3.7,1.6,4.1,2.7,5,4.5,5.4,6.3,5.8,8.3,6.6,11.1,8.3,15.7,12.4,25.8,15.3,31.4,8.3,15,7,10.9,6.2,8,5.8,5.9,5.4,4,4.6,2.3,4.1,1.2,3.7.4,3.7-.3,4.1-1,4.6-1.9,5.4-3.3,6.6-5.3,8.3-8,28.2-28.5,6.6-4.7,5.4-2.8,4.6-1.5,4.1-.6,4.1.1,4.1.8,4.1,1.6,4.6,2.6,5.4,4.1,6.2,6.2,6.6,8,8.3,11.6,12.8,19.9,13.3,20,7.9,10.3,6.2,6.7,5.8,4.9,5,2.9,4.1,1.5,3.7.6,3.7-.2,3.7-1,3.7-1.7,4.1-2.8,5-4.6,5.4-6.4,5.8-8.4,6.6-11.4,7.9-15.4,10.8-23.3,20.7-45.2,8.3-15.8,6.6-10.9,6.2-8.5,5.4-5.9,5.4-4.4,4.6-2.5,4.1-1.3,3.7-.4,3.7.2,3.7.9,4.1,1.8,5,3.1,5.8,4.8,7,7.2,9.1,10.9,23.6,29.1,7.5,7.2,6.2,4.7,5.4,2.9,4.6,1.6,4.1.7h4.1l4.1-.8,4.1-1.5,5-2.7,5.4-3.9,6.6-6.1,7.9-8.8,11.6-14.6,14.5-17.9,7.5-7.8,6.6-5.5,5.4-3.2,4.6-1.8,4.1-.8,3.7.1,3.7.8,3.7,1.5,4.1,2.5,5,4.2,5.4,6,5.8,8,6.2,10.1,7.5,14,9.1,19.1,29.8,64.2,7.5,13.1.8,1.3" fill="none" stroke="#d85648" stroke-dasharray="0 0 0 12" stroke-linecap="round" stroke-linejoin="round" stroke-width="5"/>
</svg>