<?xml version="1.0" encoding="UTF-8"?>
<svg id="Ebene_3" data-name="Ebene 3" xmlns="http://www.w3.org/2000/svg" viewBox="0 0 1821.6 313.2">
  <defs>
    <style>
      .cls-1, .cls-2, .cls-3, .cls-4, .cls-5, .cls-6, .cls-7 {
        fill: none;
      }

      .cls-1, .cls-2, .cls-3, .cls-4, .cls-5, .cls-7 {
        stroke-linecap: round;
      }

      .cls-1, .cls-2, .cls-3, .cls-4, .cls-7 {
        stroke-linejoin: round;
      }

      .cls-1, .cls-2, .cls-4 {
        stroke-width: 1.42px;
      }

      .cls-1, .cls-2, .cls-4, .cls-5, .cls-6 {
        stroke: #c9d1d9;
      }

      .cls-8 {
        fill: #c9d1d9;
      }

      .cls-2 {
        stroke-dasharray: 0 0 11.95 11.95;
      }

      .cls-3, .cls-7 {
        stroke: #307eef;
        stroke-width: 5px;
      }

      .cls-4 {
        stroke-dasharray: 0 0 12 12;
      }

      .cls-5 {
        stroke-width: 2.83px;
      }

      .cls-5, .cls-6 {
        stroke-miterlimit: 10;
      }

      .cls-6 {
        stroke-width: 2px;
      }

      .cls-9 {
        opacity: .5;
      }

      .cls-10 {
        isolation: isolate;
      }

      .cls-7 {
        stroke-dasharray: 0 12;
      }
    </style>
  </defs>
  <g class="cls-10">
    <g class="cls-10">
      <path class="cls-8" d="m84.46,40.16c-2.09,0-4.03-.41-5.8-1.22s-3.23-2-4.37-3.55-1.81-3.46-2.02-5.71l4.27-1.34c.17,2.52.94,4.55,2.3,6.11s3.21,2.33,5.55,2.33c2.11,0,3.86-.61,5.26-1.84s2.1-3,2.1-5.31c0-.91-.19-1.87-.57-2.89s-1.07-1.89-2.05-2.61-2.38-1.08-4.2-1.08h-4.64v-3.56h4.27c1.98,0,3.5-.53,4.56-1.58s1.58-2.25,1.58-3.57c0-1.56-.55-2.9-1.64-4.01s-2.64-1.66-4.64-1.66c-2.47,0-4.28.7-5.43,2.11s-1.81,3.36-1.98,5.86l-4.27-1.34c.09-1.61.63-3.18,1.62-4.71s2.34-2.8,4.08-3.8,3.77-1.5,6.12-1.5c1.92,0,3.67.38,5.24,1.12s2.82,1.78,3.74,3.08,1.38,2.81,1.38,4.51c0,1.12-.23,2.16-.7,3.11s-1.17,1.75-2.11,2.43-2.12,1.17-3.56,1.5c2.38.42,4.25,1.43,5.61,3.01s2.05,3.42,2.05,5.5c0,1.88-.33,3.48-1,4.83s-1.56,2.44-2.68,3.29-2.38,1.48-3.77,1.89-2.82.61-4.29.61Z"/>
      <path class="cls-8" d="m104.43,40.16c-1,0-1.84-.34-2.53-1.03s-1.03-1.53-1.03-2.53.34-1.84,1.03-2.53,1.53-1.03,2.53-1.03,1.84.34,2.53,1.03,1.03,1.53,1.03,2.53-.34,1.84-1.03,2.53-1.53,1.03-2.53,1.03Z"/>
      <path class="cls-8" d="m138.67,40.16c-2.59,0-4.86-.43-6.79-1.3s-3.49-2.12-4.68-3.77-1.98-3.64-2.37-5.96l5.02-1.03c.11,2.77.91,4.89,2.41,6.38s3.59,2.23,6.28,2.23c1.62,0,3-.27,4.14-.8s2-1.28,2.6-2.25.9-2.11.9-3.42c0-1.75-.5-3.05-1.51-3.9s-2.39-1.47-4.14-1.86l-4.41-.98c-.81-.19-1.75-.45-2.82-.77s-2.11-.81-3.11-1.45-1.83-1.51-2.5-2.6-1-2.49-1-4.2c0-2.17.56-3.93,1.68-5.27s2.57-2.33,4.36-2.95,3.69-.94,5.71-.94c2.33,0,4.32.37,5.99,1.11s3.01,1.79,4.03,3.15,1.71,2.98,2.07,4.88l-4.95,1.03c-.12-1.44-.48-2.65-1.05-3.64s-1.39-1.75-2.44-2.27-2.35-.79-3.91-.79c-1.27,0-2.45.19-3.55.56s-2,.96-2.68,1.76-1.03,1.84-1.03,3.12.46,2.42,1.39,3.22,2.48,1.46,4.65,1.96l4.45,1.03c1.58.36,3.07.9,4.48,1.62s2.55,1.72,3.42,3.01,1.31,2.99,1.31,5.1-.48,3.91-1.44,5.41-2.34,2.64-4.12,3.43-3.93,1.18-6.41,1.18Z"/>
      <path class="cls-8" d="m163.59,40.16c-1.69,0-3.15-.32-4.39-.97s-2.2-1.54-2.87-2.66-1.01-2.4-1.01-3.82c0-1.52.45-2.91,1.34-4.2s2.27-2.31,4.14-3.08,4.26-1.16,7.18-1.16h4.22l-.42.42v-1.38c0-2.03-.41-3.59-1.22-4.68s-2.17-1.63-4.08-1.63c-1.8,0-3.18.46-4.15,1.39s-1.48,2.18-1.55,3.74l-4.43-1.01c.14-1.36.66-2.6,1.56-3.71s2.1-2.01,3.61-2.68,3.25-1.01,5.24-1.01,3.71.39,5,1.16,2.24,1.89,2.85,3.34.91,3.2.91,5.25v11.55c0,.52.07.86.22,1.03s.46.26.95.26h1.43v3.28h-2.51c-1.06,0-1.95-.33-2.67-1s-1.08-1.5-1.08-2.52v-1.78h.59c-.25.66-.61,1.32-1.08,2s-1.06,1.31-1.78,1.9-1.57,1.06-2.57,1.42-2.14.54-3.43.54Zm.89-3.28c1.3,0,2.5-.32,3.61-.96s2-1.64,2.68-3.01,1.02-3.14,1.02-5.33v-.21h-3.96c-2.08,0-3.71.27-4.91.82s-2.04,1.22-2.54,2.03-.75,1.61-.75,2.4.18,1.52.54,2.16.9,1.15,1.62,1.54,1.62.57,2.7.57Z"/>
      <path class="cls-8" d="m183.56,39.6V14.29h3.7v4.34c.59-1.31,1.58-2.46,2.95-3.43s3.01-1.46,4.9-1.46c1.67,0,3.13.46,4.37,1.37s2.17,2.21,2.78,3.88c.8-1.55,1.89-2.81,3.27-3.79s3-1.46,4.84-1.46c2.42,0,4.34.88,5.75,2.64s2.12,4.19,2.12,7.3v15.94h-3.94v-15.63c0-1.44-.15-2.68-.45-3.71s-.79-1.84-1.46-2.4-1.61-.84-2.78-.84c-1.28,0-2.43.36-3.46,1.09s-1.83,1.79-2.41,3.18-.88,3.09-.88,5.09v13.24h-3.94v-15.63c0-1.44-.15-2.68-.45-3.71s-.78-1.84-1.45-2.4-1.59-.84-2.74-.84c-1.28,0-2.44.36-3.47,1.08s-1.84,1.77-2.44,3.16-.89,3.09-.89,5.11v13.24h-3.94Z"/>
      <path class="cls-8" d="m235.71,40.16c-2.41,0-4.49-.54-6.25-1.62s-3.11-2.61-4.07-4.58-1.43-4.31-1.43-7,.48-5.05,1.43-7.03,2.3-3.52,4.03-4.59,3.77-1.62,6.12-1.62c1.34,0,2.69.21,4.04.64s2.59,1.17,3.7,2.23,2.02,2.5,2.7,4.34,1.02,4.15,1.02,6.95h-20.51v-3.19h17.09l-1.12,1.48c-.08-2.22-.44-4-1.08-5.34s-1.47-2.32-2.5-2.92-2.16-.9-3.41-.9c-1.48,0-2.77.39-3.84,1.16s-1.91,1.9-2.48,3.39-.87,3.3-.87,5.44c0,3.16.64,5.59,1.93,7.31s3.12,2.58,5.5,2.58c1.7,0,3.14-.43,4.3-1.29s2.02-2.1,2.57-3.73l3.87,1.31c-.61,1.47-1.42,2.72-2.44,3.76s-2.22,1.84-3.62,2.39-2.96.83-4.68.83Z"/>
      <path class="cls-8" d="m262.66,17.57v-3.28h13.38v3.28h-13.38Zm3.77,22.03V9.69c0-1.89.45-3.24,1.34-4.04s2.38-1.21,4.48-1.21h3.16v3.28h-3.73c-.47,0-.8.1-1.01.3s-.3.54-.3,1.01v30.56h-3.94Z"/>
      <path class="cls-8" d="m280.8,39.6V14.29h3.7v5.37l-.14-.61c.75-1.75,1.88-3.07,3.39-3.97s3.04-1.35,4.58-1.35c.45,0,.89.04,1.32.12s.83.21,1.21.4l-.52,3.7c-.86-.27-1.71-.4-2.55-.4-.53,0-1.19.11-1.98.32s-1.57.63-2.34,1.27-1.42,1.57-1.95,2.82-.79,2.91-.79,4.99v12.66h-3.94Z"/>
      <path class="cls-8" d="m308.92,40.16c-2.41,0-4.49-.54-6.25-1.62s-3.11-2.61-4.07-4.58-1.43-4.31-1.43-7,.48-5.05,1.43-7.03,2.3-3.52,4.03-4.59,3.77-1.62,6.12-1.62c1.34,0,2.69.21,4.04.64s2.59,1.17,3.7,2.23,2.02,2.5,2.7,4.34,1.02,4.15,1.02,6.95h-20.51v-3.19h17.09l-1.12,1.48c-.08-2.22-.44-4-1.08-5.34s-1.47-2.32-2.5-2.92-2.16-.9-3.41-.9c-1.48,0-2.77.39-3.84,1.16s-1.91,1.9-2.48,3.39-.87,3.3-.87,5.44c0,3.16.64,5.59,1.93,7.31s3.12,2.58,5.5,2.58c1.7,0,3.14-.43,4.3-1.29s2.02-2.1,2.57-3.73l3.87,1.31c-.61,1.47-1.42,2.72-2.44,3.76s-2.22,1.84-3.62,2.39-2.96.83-4.68.83Z"/>
      <path class="cls-8" d="m343.96,48.74v-14.41l.35.38c-.69,1.84-1.83,3.21-3.42,4.11s-3.29,1.35-5.09,1.35c-2.05,0-3.86-.54-5.43-1.62s-2.79-2.61-3.67-4.59-1.31-4.33-1.31-7.03.44-5.04,1.32-7.02,2.11-3.5,3.67-4.57,3.37-1.61,5.41-1.61c1.66,0,3.3.41,4.92,1.24s2.85,2.23,3.68,4.2l-.21.19v-5.06h3.7v34.45h-3.94Zm-7.12-11.86c1.33,0,2.54-.34,3.63-1.03s1.97-1.76,2.62-3.22.98-3.33.98-5.61c0-3.41-.7-5.93-2.11-7.56s-3.1-2.45-5.09-2.45c-2.09,0-3.81.86-5.16,2.59s-2.02,4.2-2.02,7.42.65,5.55,1.95,7.28,3.02,2.59,5.18,2.59Z"/>
      <path class="cls-8" d="m363.72,40.16c-1.77,0-3.3-.4-4.59-1.2s-2.3-1.94-3-3.42-1.05-3.26-1.05-5.32v-15.94h3.94v15.63c0,2.06.39,3.74,1.17,5.03s2.19,1.93,4.22,1.93c1.52,0,2.83-.39,3.94-1.17s1.97-1.95,2.59-3.52.93-3.52.93-5.86v-12.05h3.94v25.31h-3.7v-5.95l.16,1.03c-.66,1.56-1.71,2.87-3.18,3.91s-3.25,1.57-5.36,1.57Z"/>
      <path class="cls-8" d="m393.58,40.16c-2.41,0-4.49-.54-6.25-1.62s-3.11-2.61-4.07-4.58-1.43-4.31-1.43-7,.48-5.05,1.43-7.03,2.3-3.52,4.03-4.59,3.77-1.62,6.12-1.62c1.34,0,2.69.21,4.04.64s2.59,1.17,3.7,2.23,2.02,2.5,2.7,4.34,1.02,4.15,1.02,6.95h-20.51v-3.19h17.09l-1.12,1.48c-.08-2.22-.44-4-1.08-5.34s-1.47-2.32-2.5-2.92-2.16-.9-3.41-.9c-1.48,0-2.77.39-3.84,1.16s-1.91,1.9-2.48,3.39-.87,3.3-.87,5.44c0,3.16.64,5.59,1.93,7.31s3.12,2.58,5.5,2.58c1.7,0,3.14-.43,4.3-1.29s2.02-2.1,2.57-3.73l3.87,1.31c-.61,1.47-1.42,2.72-2.44,3.76s-2.22,1.84-3.62,2.39-2.96.83-4.68.83Z"/>
      <path class="cls-8" d="m410.83,39.6V14.29h3.7v5.72l-.16-1.03c.67-1.45,1.73-2.69,3.19-3.71s3.22-1.54,5.3-1.54c1.8,0,3.34.4,4.64,1.2s2.3,1.93,3,3.41,1.05,3.25,1.05,5.33v15.94h-3.94v-15.63c0-2.08-.43-3.76-1.28-5.04s-2.25-1.92-4.21-1.92c-2.11,0-3.86.8-5.26,2.4s-2.1,3.92-2.1,6.95v13.24h-3.94Z"/>
      <path class="cls-8" d="m448.82,40.16c-2.38,0-4.43-.54-6.16-1.62s-3.07-2.61-4.01-4.58-1.41-4.32-1.41-7.02.47-5.04,1.41-7.02,2.27-3.5,4.01-4.58,3.79-1.62,6.16-1.62c1.81,0,3.43.33,4.86,1s2.64,1.62,3.63,2.86,1.72,2.74,2.19,4.49l-4.01,1.05c-.44-1.97-1.22-3.48-2.36-4.54s-2.57-1.58-4.32-1.58c-2.33,0-4.12.86-5.38,2.59s-1.89,4.18-1.89,7.35.63,5.64,1.89,7.36,3.05,2.58,5.38,2.58c1.73,0,3.16-.51,4.29-1.54s1.91-2.5,2.37-4.44l3.98,1.12c-.38,1.28-.89,2.42-1.55,3.42s-1.43,1.85-2.33,2.55-1.91,1.24-3.05,1.61-2.37.55-3.71.55Z"/>
      <path class="cls-8" d="m465.91,48.74v-3.28h3.84c.28,0,.5-.09.66-.27s.3-.46.45-.86l1.83-5.23-.4,1.8-10.17-26.62h4.41l8.06,23.32-.87-.21,8.04-23.11h4.36l-12.07,31.62c-.33.86-.88,1.55-1.66,2.06s-1.59.77-2.44.77h-4.03Z"/>
      <path class="cls-8" d="m487.66,47.08l-1.41-2.02.77-.56c.88-.64,1.52-1.28,1.95-1.91s.63-1.36.63-2.17v-1.1l.56.84c-.97,0-1.79-.33-2.47-.98s-1.02-1.48-1.02-2.48.34-1.86,1.03-2.54,1.52-1.02,2.48-1.02c.56,0,1.13.14,1.7.42s1.05.75,1.43,1.39.57,1.53.57,2.64c0,1.47-.41,2.97-1.23,4.5s-2.07,2.9-3.76,4.1l-1.24.89Z"/>
      <path class="cls-8" d="m521.13,40.16c-1.83,0-3.49-.3-4.98-.9s-2.73-1.52-3.71-2.74-1.64-2.79-1.97-4.68l4.12-.8c.17,1.98.85,3.46,2.03,4.43s2.66,1.45,4.44,1.45,3.17-.45,4.22-1.34,1.57-1.98,1.57-3.26c0-1.09-.37-1.96-1.11-2.6s-1.82-1.09-3.22-1.36l-3.07-.59c-.83-.16-1.69-.38-2.58-.66s-1.72-.67-2.5-1.17-1.4-1.16-1.88-1.97-.71-1.84-.71-3.07c0-1.66.43-3.01,1.3-4.07s2.02-1.84,3.45-2.36,2.97-.77,4.63-.77c1.81,0,3.39.28,4.73.84s2.44,1.37,3.28,2.41,1.41,2.31,1.69,3.8l-4.34.87c-.11-.95-.36-1.78-.76-2.48s-.98-1.25-1.73-1.63-1.74-.57-2.94-.57c-1.45,0-2.7.3-3.75.91s-1.57,1.53-1.57,2.77c0,.69.18,1.27.53,1.76s.88.89,1.59,1.21,1.61.6,2.68.83l3.12.66c1.31.27,2.52.66,3.63,1.18s2,1.25,2.67,2.17,1.01,2.14,1.01,3.66c0,1.67-.42,3.11-1.25,4.32s-1.99,2.14-3.47,2.78-3.19.96-5.14.96Z"/>
      <path class="cls-8" d="m544.42,40.16c-1.69,0-3.15-.32-4.39-.97s-2.2-1.54-2.87-2.66-1.01-2.4-1.01-3.82c0-1.52.45-2.91,1.34-4.2s2.27-2.31,4.14-3.08,4.26-1.16,7.18-1.16h4.22l-.42.42v-1.38c0-2.03-.41-3.59-1.22-4.68s-2.17-1.63-4.08-1.63c-1.8,0-3.18.46-4.15,1.39s-1.48,2.18-1.55,3.74l-4.43-1.01c.14-1.36.66-2.6,1.56-3.71s2.1-2.01,3.61-2.68,3.25-1.01,5.24-1.01,3.71.39,5,1.16,2.24,1.89,2.85,3.34.91,3.2.91,5.25v11.55c0,.52.07.86.22,1.03s.46.26.95.26h1.43v3.28h-2.51c-1.06,0-1.95-.33-2.67-1s-1.08-1.5-1.08-2.52v-1.78h.59c-.25.66-.61,1.32-1.08,2s-1.06,1.31-1.78,1.9-1.57,1.06-2.57,1.42-2.14.54-3.43.54Zm.89-3.28c1.3,0,2.5-.32,3.61-.96s2-1.64,2.68-3.01,1.02-3.14,1.02-5.33v-.21h-3.96c-2.08,0-3.71.27-4.91.82s-2.04,1.22-2.54,2.03-.75,1.61-.75,2.4.18,1.52.54,2.16.9,1.15,1.62,1.54,1.62.57,2.7.57Z"/>
      <path class="cls-8" d="m564.39,39.6V14.29h3.7v4.34c.59-1.31,1.58-2.46,2.95-3.43s3.01-1.46,4.9-1.46c1.67,0,3.13.46,4.37,1.37s2.17,2.21,2.78,3.88c.8-1.55,1.89-2.81,3.27-3.79s3-1.46,4.84-1.46c2.42,0,4.34.88,5.75,2.64s2.12,4.19,2.12,7.3v15.94h-3.94v-15.63c0-1.44-.15-2.68-.45-3.71s-.79-1.84-1.46-2.4-1.61-.84-2.78-.84c-1.28,0-2.43.36-3.46,1.09s-1.83,1.79-2.41,3.18-.88,3.09-.88,5.09v13.24h-3.94v-15.63c0-1.44-.15-2.68-.45-3.71s-.78-1.84-1.45-2.4-1.59-.84-2.74-.84c-1.28,0-2.44.36-3.47,1.08s-1.84,1.77-2.44,3.16-.89,3.09-.89,5.11v13.24h-3.94Z"/>
      <path class="cls-8" d="m616.54,40.16c-2.41,0-4.49-.54-6.25-1.62s-3.11-2.61-4.07-4.58-1.43-4.31-1.43-7,.48-5.05,1.43-7.03,2.3-3.52,4.03-4.59,3.77-1.62,6.12-1.62c1.34,0,2.69.21,4.04.64s2.59,1.17,3.7,2.23,2.02,2.5,2.7,4.34,1.02,4.15,1.02,6.95h-20.51v-3.19h17.09l-1.12,1.48c-.08-2.22-.44-4-1.08-5.34s-1.47-2.32-2.5-2.92-2.16-.9-3.41-.9c-1.48,0-2.77.39-3.84,1.16s-1.91,1.9-2.48,3.39-.87,3.3-.87,5.44c0,3.16.64,5.59,1.93,7.31s3.12,2.58,5.5,2.58c1.7,0,3.14-.43,4.3-1.29s2.02-2.1,2.57-3.73l3.87,1.31c-.61,1.47-1.42,2.72-2.44,3.76s-2.22,1.84-3.62,2.39-2.96.83-4.68.83Z"/>
      <path class="cls-8" d="m645.98,48.74V14.29h3.7v5.27l-.12-.38c.69-1.84,1.83-3.21,3.42-4.11s3.29-1.35,5.09-1.35c2.06,0,3.88.54,5.44,1.62s2.78,2.61,3.66,4.59,1.31,4.33,1.31,7.03-.44,5.04-1.32,7.02-2.11,3.5-3.67,4.57-3.37,1.61-5.41,1.61c-1.66,0-3.3-.41-4.92-1.24s-2.85-2.23-3.68-4.2l.35-.19v14.2h-3.84Zm11.02-11.86c2.09,0,3.81-.86,5.16-2.59s2.02-4.2,2.02-7.42-.65-5.55-1.95-7.28-3.02-2.59-5.18-2.59c-1.31,0-2.52.34-3.62,1.03s-1.98,1.76-2.64,3.21-.98,3.33-.98,5.62c0,3.39.7,5.91,2.11,7.55s3.1,2.46,5.09,2.46Z"/>
      <path class="cls-8" d="m674.36,39.6V4.44h3.94v15.8l-.4-1.03c.66-1.58,1.71-2.89,3.18-3.93s3.25-1.56,5.36-1.56c1.78,0,3.32.4,4.61,1.2s2.29,1.93,2.99,3.41,1.05,3.25,1.05,5.33v15.94h-3.94v-15.63c0-2.14-.4-3.84-1.21-5.09s-2.23-1.88-4.28-1.88c-2.19,0-3.96.78-5.32,2.33s-2.04,3.89-2.04,7.02v13.24h-3.94Z"/>
      <path class="cls-8" d="m708.84,40.16c-1.69,0-3.15-.32-4.39-.97s-2.2-1.54-2.87-2.66-1.01-2.4-1.01-3.82c0-1.52.45-2.91,1.34-4.2s2.27-2.31,4.14-3.08,4.26-1.16,7.18-1.16h4.22l-.42.42v-1.38c0-2.03-.41-3.59-1.22-4.68s-2.17-1.63-4.08-1.63c-1.8,0-3.18.46-4.15,1.39s-1.48,2.18-1.55,3.74l-4.43-1.01c.14-1.36.66-2.6,1.56-3.71s2.1-2.01,3.61-2.68,3.25-1.01,5.24-1.01,3.71.39,5,1.16,2.24,1.89,2.85,3.34.91,3.2.91,5.25v11.55c0,.52.07.86.22,1.03s.46.26.95.26h1.43v3.28h-2.51c-1.06,0-1.95-.33-2.67-1s-1.08-1.5-1.08-2.52v-1.78h.59c-.25.66-.61,1.32-1.08,2s-1.06,1.31-1.78,1.9-1.57,1.06-2.57,1.42-2.14.54-3.43.54Zm.89-3.28c1.3,0,2.5-.32,3.61-.96s2-1.64,2.68-3.01,1.02-3.14,1.02-5.33v-.21h-3.96c-2.08,0-3.71.27-4.91.82s-2.04,1.22-2.54,2.03-.75,1.61-.75,2.4.18,1.52.54,2.16.9,1.15,1.62,1.54,1.62.57,2.7.57Z"/>
      <path class="cls-8" d="m737.46,40.16c-1.83,0-3.49-.3-4.98-.9s-2.73-1.52-3.71-2.74-1.64-2.79-1.97-4.68l4.12-.8c.17,1.98.85,3.46,2.03,4.43s2.66,1.45,4.44,1.45,3.17-.45,4.22-1.34,1.57-1.98,1.57-3.26c0-1.09-.37-1.96-1.11-2.6s-1.82-1.09-3.22-1.36l-3.07-.59c-.83-.16-1.69-.38-2.58-.66s-1.72-.67-2.5-1.17-1.4-1.16-1.88-1.97-.71-1.84-.71-3.07c0-1.66.43-3.01,1.3-4.07s2.02-1.84,3.45-2.36,2.97-.77,4.63-.77c1.81,0,3.39.28,4.73.84s2.44,1.37,3.28,2.41,1.41,2.31,1.69,3.8l-4.34.87c-.11-.95-.36-1.78-.76-2.48s-.98-1.25-1.73-1.63-1.74-.57-2.94-.57c-1.45,0-2.7.3-3.75.91s-1.57,1.53-1.57,2.77c0,.69.18,1.27.53,1.76s.88.89,1.59,1.21,1.61.6,2.68.83l3.12.66c1.31.27,2.52.66,3.63,1.18s2,1.25,2.67,2.17,1.01,2.14,1.01,3.66c0,1.67-.42,3.11-1.25,4.32s-1.99,2.14-3.47,2.78-3.19.96-5.14.96Z"/>
      <path class="cls-8" d="m764.03,40.16c-2.41,0-4.49-.54-6.25-1.62s-3.11-2.61-4.07-4.58-1.43-4.31-1.43-7,.48-5.05,1.43-7.03,2.3-3.52,4.03-4.59,3.77-1.62,6.12-1.62c1.34,0,2.69.21,4.04.64s2.59,1.17,3.7,2.23,2.02,2.5,2.7,4.34,1.02,4.15,1.02,6.95h-20.51v-3.19h17.09l-1.12,1.48c-.08-2.22-.44-4-1.08-5.34s-1.47-2.32-2.5-2.92-2.16-.9-3.41-.9c-1.48,0-2.77.39-3.84,1.16s-1.91,1.9-2.48,3.39-.87,3.3-.87,5.44c0,3.16.64,5.59,1.93,7.31s3.12,2.58,5.5,2.58c1.7,0,3.14-.43,4.3-1.29s2.02-2.1,2.57-3.73l3.87,1.31c-.61,1.47-1.42,2.72-2.44,3.76s-2.22,1.84-3.62,2.39-2.96.83-4.68.83Z"/>
      <path class="cls-8" d="m780.7,47.08l-1.41-2.02.77-.56c.88-.64,1.52-1.28,1.95-1.91s.63-1.36.63-2.17v-1.1l.56.84c-.97,0-1.79-.33-2.47-.98s-1.02-1.48-1.02-2.48.34-1.86,1.03-2.54,1.52-1.02,2.48-1.02c.56,0,1.13.14,1.7.42s1.05.75,1.43,1.39.57,1.53.57,2.64c0,1.47-.41,2.97-1.23,4.5s-2.07,2.9-3.76,4.1l-1.24.89Z"/>
      <path class="cls-8" d="m816.02,40.16c-2.38,0-4.47-.56-6.28-1.68s-3.23-2.67-4.24-4.65-1.52-4.28-1.52-6.89.51-4.91,1.52-6.89,2.43-3.54,4.24-4.65,3.91-1.68,6.28-1.68,4.47.56,6.28,1.68,3.23,2.67,4.24,4.65,1.52,4.28,1.52,6.89-.51,4.91-1.52,6.89-2.43,3.54-4.24,4.65-3.91,1.68-6.28,1.68Zm0-3.28c2.39,0,4.28-.89,5.66-2.67s2.07-4.2,2.07-7.27-.69-5.5-2.07-7.28-3.27-2.66-5.66-2.66-4.28.89-5.66,2.66-2.07,4.2-2.07,7.28.69,5.48,2.07,7.27,3.27,2.67,5.66,2.67Z"/>
      <path class="cls-8" d="m833.95,39.6V14.29h3.7v5.72l-.16-1.03c.67-1.45,1.73-2.69,3.19-3.71s3.22-1.54,5.3-1.54c1.8,0,3.34.4,4.64,1.2s2.3,1.93,3,3.41,1.05,3.25,1.05,5.33v15.94h-3.94v-15.63c0-2.08-.43-3.76-1.28-5.04s-2.25-1.92-4.21-1.92c-2.11,0-3.86.8-5.26,2.4s-2.1,3.92-2.1,6.95v13.24h-3.94Z"/>
      <path class="cls-8" d="m872.1,40.16c-2.41,0-4.49-.54-6.25-1.62s-3.11-2.61-4.07-4.58-1.43-4.31-1.43-7,.48-5.05,1.43-7.03,2.3-3.52,4.03-4.59,3.77-1.62,6.12-1.62c1.34,0,2.69.21,4.04.64s2.59,1.17,3.7,2.23,2.02,2.5,2.7,4.34,1.02,4.15,1.02,6.95h-20.51v-3.19h17.09l-1.12,1.48c-.08-2.22-.44-4-1.08-5.34s-1.47-2.32-2.5-2.92-2.16-.9-3.41-.9c-1.48,0-2.77.39-3.84,1.16s-1.91,1.9-2.48,3.39-.87,3.3-.87,5.44c0,3.16.64,5.59,1.93,7.31s3.12,2.58,5.5,2.58c1.7,0,3.14-.43,4.3-1.29s2.02-2.1,2.57-3.73l3.87,1.31c-.61,1.47-1.42,2.72-2.44,3.76s-2.22,1.84-3.62,2.39-2.96.83-4.68.83Z"/>
      <path class="cls-8" d="m908.03,40.16c-1.69,0-3.15-.32-4.39-.97s-2.2-1.54-2.87-2.66-1.01-2.4-1.01-3.82c0-1.52.45-2.91,1.34-4.2s2.27-2.31,4.14-3.08,4.26-1.16,7.18-1.16h4.22l-.42.42v-1.38c0-2.03-.41-3.59-1.22-4.68s-2.17-1.63-4.08-1.63c-1.8,0-3.18.46-4.15,1.39s-1.48,2.18-1.55,3.74l-4.43-1.01c.14-1.36.66-2.6,1.56-3.71s2.1-2.01,3.61-2.68,3.25-1.01,5.24-1.01,3.71.39,5,1.16,2.24,1.89,2.85,3.34.91,3.2.91,5.25v11.55c0,.52.07.86.22,1.03s.46.26.95.26h1.43v3.28h-2.51c-1.06,0-1.95-.33-2.67-1s-1.08-1.5-1.08-2.52v-1.78h.59c-.25.66-.61,1.32-1.08,2s-1.06,1.31-1.78,1.9-1.57,1.06-2.57,1.42-2.14.54-3.43.54Zm.89-3.28c1.3,0,2.5-.32,3.61-.96s2-1.64,2.68-3.01,1.02-3.14,1.02-5.33v-.21h-3.96c-2.08,0-3.71.27-4.91.82s-2.04,1.22-2.54,2.03-.75,1.61-.75,2.4.18,1.52.54,2.16.9,1.15,1.62,1.54,1.62.57,2.7.57Z"/>
      <path class="cls-8" d="m932.5,39.6c-1,0-1.88-.33-2.62-1s-1.12-1.5-1.12-2.52v-18.52h-4.08v-3.28h4.08v-5.3l3.94-.84v6.14h5.02v3.28h-5.02v17.46c0,.52.07.86.22,1.03s.46.26.95.26h3.87v3.28h-5.23Z"/>
      <path class="cls-8" d="m955.61,39.6V4.44h3.94v15.8l-.4-1.03c.66-1.58,1.71-2.89,3.18-3.93s3.25-1.56,5.36-1.56c1.78,0,3.32.4,4.61,1.2s2.29,1.93,2.99,3.41,1.05,3.25,1.05,5.33v15.94h-3.94v-15.63c0-2.14-.4-3.84-1.21-5.09s-2.23-1.88-4.28-1.88c-2.19,0-3.96.78-5.32,2.33s-2.04,3.89-2.04,7.02v13.24h-3.94Z"/>
      <path class="cls-8" d="m990.09,40.16c-1.69,0-3.15-.32-4.39-.97s-2.2-1.54-2.87-2.66-1.01-2.4-1.01-3.82c0-1.52.45-2.91,1.34-4.2s2.27-2.31,4.14-3.08,4.26-1.16,7.18-1.16h4.22l-.42.42v-1.38c0-2.03-.41-3.59-1.22-4.68s-2.17-1.63-4.08-1.63c-1.8,0-3.18.46-4.15,1.39s-1.48,2.18-1.55,3.74l-4.43-1.01c.14-1.36.66-2.6,1.56-3.71s2.1-2.01,3.61-2.68,3.25-1.01,5.24-1.01,3.71.39,5,1.16,2.24,1.89,2.85,3.34.91,3.2.91,5.25v11.55c0,.52.07.86.22,1.03s.46.26.95.26h1.43v3.28h-2.51c-1.06,0-1.95-.33-2.67-1s-1.08-1.5-1.08-2.52v-1.78h.59c-.25.66-.61,1.32-1.08,2s-1.06,1.31-1.78,1.9-1.57,1.06-2.57,1.42-2.14.54-3.43.54Zm.89-3.28c1.3,0,2.5-.32,3.61-.96s2-1.64,2.68-3.01,1.02-3.14,1.02-5.33v-.21h-3.96c-2.08,0-3.71.27-4.91.82s-2.04,1.22-2.54,2.03-.75,1.61-.75,2.4.18,1.52.54,2.16.9,1.15,1.62,1.54,1.62.57,2.7.57Z"/>
      <path class="cls-8" d="m1013.76,39.6c-1,0-1.88-.33-2.62-1s-1.12-1.5-1.12-2.52V4.44h3.94v30.59c0,.52.07.86.22,1.03s.46.26.95.26h2.46v3.28h-3.82Z"/>
      <path class="cls-8" d="m1020.14,17.57v-3.28h13.38v3.28h-13.38Zm3.77,22.03V9.69c0-1.89.45-3.24,1.34-4.04s2.38-1.21,4.48-1.21h3.16v3.28h-3.73c-.47,0-.8.1-1.01.3s-.3.54-.3,1.01v30.56h-3.94Z"/>
      <path class="cls-8" d="m1057.66,40.16c-1.69,0-3.15-.32-4.39-.97s-2.2-1.54-2.87-2.66-1.01-2.4-1.01-3.82c0-1.52.45-2.91,1.34-4.2s2.27-2.31,4.14-3.08,4.26-1.16,7.18-1.16h4.22l-.42.42v-1.38c0-2.03-.41-3.59-1.22-4.68s-2.17-1.63-4.08-1.63c-1.8,0-3.18.46-4.15,1.39s-1.48,2.18-1.55,3.74l-4.43-1.01c.14-1.36.66-2.6,1.56-3.71s2.1-2.01,3.61-2.68,3.25-1.01,5.24-1.01,3.71.39,5,1.16,2.24,1.89,2.85,3.34.91,3.2.91,5.25v11.55c0,.52.07.86.22,1.03s.46.26.95.26h1.43v3.28h-2.51c-1.06,0-1.95-.33-2.67-1s-1.08-1.5-1.08-2.52v-1.78h.59c-.25.66-.61,1.32-1.08,2s-1.06,1.31-1.78,1.9-1.57,1.06-2.57,1.42-2.14.54-3.43.54Zm.89-3.28c1.3,0,2.5-.32,3.61-.96s2-1.64,2.68-3.01,1.02-3.14,1.02-5.33v-.21h-3.96c-2.08,0-3.71.27-4.91.82s-2.04,1.22-2.54,2.03-.75,1.61-.75,2.4.18,1.52.54,2.16.9,1.15,1.62,1.54,1.62.57,2.7.57Z"/>
      <path class="cls-8" d="m1077.63,39.6V14.29h3.7v4.34c.59-1.31,1.58-2.46,2.95-3.43s3.01-1.46,4.9-1.46c1.67,0,3.13.46,4.37,1.37s2.17,2.21,2.78,3.88c.8-1.55,1.89-2.81,3.27-3.79s3-1.46,4.84-1.46c2.42,0,4.34.88,5.75,2.64s2.12,4.19,2.12,7.3v15.94h-3.94v-15.63c0-1.44-.15-2.68-.45-3.71s-.79-1.84-1.46-2.4-1.61-.84-2.78-.84c-1.28,0-2.43.36-3.46,1.09s-1.83,1.79-2.41,3.18-.88,3.09-.88,5.09v13.24h-3.94v-15.63c0-1.44-.15-2.68-.45-3.71s-.78-1.84-1.45-2.4-1.59-.84-2.74-.84c-1.28,0-2.44.36-3.47,1.08s-1.84,1.77-2.44,3.16-.89,3.09-.89,5.11v13.24h-3.94Z"/>
      <path class="cls-8" d="m1119.51,48.74V14.29h3.7v5.27l-.12-.38c.69-1.84,1.83-3.21,3.42-4.11s3.29-1.35,5.09-1.35c2.06,0,3.88.54,5.44,1.62s2.78,2.61,3.66,4.59,1.31,4.33,1.31,7.03-.44,5.04-1.32,7.02-2.11,3.5-3.67,4.57-3.37,1.61-5.41,1.61c-1.66,0-3.3-.41-4.92-1.24s-2.85-2.23-3.68-4.2l.35-.19v14.2h-3.84Zm11.02-11.86c2.09,0,3.81-.86,5.16-2.59s2.02-4.2,2.02-7.42-.65-5.55-1.95-7.28-3.02-2.59-5.18-2.59c-1.31,0-2.52.34-3.62,1.03s-1.98,1.76-2.64,3.21-.98,3.33-.98,5.62c0,3.39.7,5.91,2.11,7.55s3.1,2.46,5.09,2.46Z"/>
      <path class="cls-8" d="m1151.6,39.6c-1,0-1.88-.33-2.62-1s-1.12-1.5-1.12-2.52V4.44h3.94v30.59c0,.52.07.86.22,1.03s.46.26.95.26h2.46v3.28h-3.82Z"/>
      <path class="cls-8" d="m1162.61,10.05c-.91,0-1.68-.32-2.32-.96s-.96-1.41-.96-2.32.32-1.7.96-2.33,1.41-.95,2.32-.95,1.7.32,2.33.95.95,1.41.95,2.33-.32,1.68-.95,2.32-1.41.96-2.33.96Zm-1.97,29.55V14.29h3.94v25.31h-3.94Z"/>
      <path class="cls-8" d="m1177.85,39.6c-1,0-1.88-.33-2.62-1s-1.12-1.5-1.12-2.52v-18.52h-4.08v-3.28h4.08v-5.3l3.94-.84v6.14h5.02v3.28h-5.02v17.46c0,.52.07.86.22,1.03s.46.26.95.26h3.87v3.28h-5.23Z"/>
      <path class="cls-8" d="m1196.76,40.16c-1.77,0-3.3-.4-4.59-1.2s-2.3-1.94-3-3.42-1.05-3.26-1.05-5.32v-15.94h3.94v15.63c0,2.06.39,3.74,1.17,5.03s2.19,1.93,4.22,1.93c1.52,0,2.83-.39,3.94-1.17s1.97-1.95,2.59-3.52.93-3.52.93-5.86v-12.05h3.94v25.31h-3.7v-5.95l.16,1.03c-.66,1.56-1.71,2.87-3.18,3.91s-3.25,1.57-5.36,1.57Z"/>
      <path class="cls-8" d="m1225.07,40.16c-2.05,0-3.86-.54-5.43-1.62s-2.79-2.61-3.67-4.59-1.31-4.33-1.31-7.03.44-5.04,1.32-7.02,2.11-3.5,3.67-4.57,3.37-1.61,5.41-1.61c1.66,0,3.3.41,4.92,1.24s2.85,2.23,3.68,4.2l-.45.19V4.44h3.94v35.16h-3.7v-5.27l.12.38c-.69,1.84-1.83,3.21-3.42,4.11s-3.29,1.35-5.09,1.35Zm1.03-3.28c1.33,0,2.54-.34,3.63-1.03s1.97-1.76,2.62-3.22.98-3.33.98-5.61c0-3.41-.7-5.93-2.11-7.56s-3.1-2.45-5.09-2.45c-2.09,0-3.81.86-5.16,2.59s-2.02,4.2-2.02,7.42.65,5.55,1.95,7.28,3.02,2.59,5.18,2.59Z"/>
      <path class="cls-8" d="m1254.96,40.16c-2.41,0-4.49-.54-6.25-1.62s-3.11-2.61-4.07-4.58-1.43-4.31-1.43-7,.48-5.05,1.43-7.03,2.3-3.52,4.03-4.59,3.77-1.62,6.12-1.62c1.34,0,2.69.21,4.04.64s2.59,1.17,3.7,2.23,2.02,2.5,2.7,4.34,1.02,4.15,1.02,6.95h-20.51v-3.19h17.09l-1.12,1.48c-.08-2.22-.44-4-1.08-5.34s-1.47-2.32-2.5-2.92-2.16-.9-3.41-.9c-1.48,0-2.77.39-3.84,1.16s-1.91,1.9-2.48,3.39-.87,3.3-.87,5.44c0,3.16.64,5.59,1.93,7.31s3.12,2.58,5.5,2.58c1.7,0,3.14-.43,4.3-1.29s2.02-2.1,2.57-3.73l3.87,1.31c-.61,1.47-1.42,2.72-2.44,3.76s-2.22,1.84-3.62,2.39-2.96.83-4.68.83Z"/>
      <path class="cls-8" d="m1290.11,47.52c-2.42-3.09-4.26-6.46-5.51-10.11s-1.88-7.45-1.88-11.4.63-7.73,1.89-11.39,3.09-7.05,5.5-10.17h4.17c-2.69,3.58-4.66,7.08-5.92,10.51s-1.89,7.11-1.89,11.05.61,7.71,1.83,11.13,3.21,6.88,5.98,10.38h-4.17Z"/>
      <path class="cls-8" d="m1306,40.16c-2.38,0-4.43-.54-6.16-1.62s-3.07-2.61-4.01-4.58-1.41-4.32-1.41-7.02.47-5.04,1.41-7.02,2.27-3.5,4.01-4.58,3.79-1.62,6.16-1.62c1.81,0,3.43.33,4.86,1s2.64,1.62,3.63,2.86,1.72,2.74,2.19,4.49l-4.01,1.05c-.44-1.97-1.22-3.48-2.36-4.54s-2.57-1.58-4.32-1.58c-2.33,0-4.12.86-5.38,2.59s-1.89,4.18-1.89,7.35.63,5.64,1.89,7.36,3.05,2.58,5.38,2.58c1.73,0,3.16-.51,4.29-1.54s1.91-2.5,2.37-4.44l3.98,1.12c-.38,1.28-.89,2.42-1.55,3.42s-1.43,1.85-2.33,2.55-1.91,1.24-3.05,1.61-2.37.55-3.71.55Z"/>
      <path class="cls-8" d="m1332.86,40.16c-2.38,0-4.47-.56-6.28-1.68s-3.23-2.67-4.24-4.65-1.52-4.28-1.52-6.89.51-4.91,1.52-6.89,2.43-3.54,4.24-4.65,3.91-1.68,6.28-1.68,4.47.56,6.28,1.68,3.23,2.67,4.24,4.65,1.52,4.28,1.52,6.89-.51,4.91-1.52,6.89-2.43,3.54-4.24,4.65-3.91,1.68-6.28,1.68Zm0-3.28c2.39,0,4.28-.89,5.66-2.67s2.07-4.2,2.07-7.27-.69-5.5-2.07-7.28-3.27-2.66-5.66-2.66-4.28.89-5.66,2.66-2.07,4.2-2.07,7.28.69,5.48,2.07,7.27,3.27,2.67,5.66,2.67Z"/>
      <path class="cls-8" d="m1350.79,39.6V14.29h3.7v5.72l-.16-1.03c.67-1.45,1.73-2.69,3.19-3.71s3.22-1.54,5.3-1.54c1.8,0,3.34.4,4.64,1.2s2.3,1.93,3,3.41,1.05,3.25,1.05,5.33v15.94h-3.94v-15.63c0-2.08-.43-3.76-1.28-5.04s-2.25-1.92-4.21-1.92c-2.11,0-3.86.8-5.26,2.4s-2.1,3.92-2.1,6.95v13.24h-3.94Z"/>
      <path class="cls-8" d="m1387.28,40.16c-1.83,0-3.49-.3-4.98-.9s-2.73-1.52-3.71-2.74-1.64-2.79-1.97-4.68l4.12-.8c.17,1.98.85,3.46,2.03,4.43s2.66,1.45,4.44,1.45,3.17-.45,4.22-1.34,1.57-1.98,1.57-3.26c0-1.09-.37-1.96-1.11-2.6s-1.82-1.09-3.22-1.36l-3.07-.59c-.83-.16-1.69-.38-2.58-.66s-1.72-.67-2.5-1.17-1.4-1.16-1.88-1.97-.71-1.84-.71-3.07c0-1.66.43-3.01,1.3-4.07s2.02-1.84,3.45-2.36,2.97-.77,4.63-.77c1.81,0,3.39.28,4.73.84s2.44,1.37,3.28,2.41,1.41,2.31,1.69,3.8l-4.34.87c-.11-.95-.36-1.78-.76-2.48s-.98-1.25-1.73-1.63-1.74-.57-2.94-.57c-1.45,0-2.7.3-3.75.91s-1.57,1.53-1.57,2.77c0,.69.18,1.27.53,1.76s.88.89,1.59,1.21,1.61.6,2.68.83l3.12.66c1.31.27,2.52.66,3.63,1.18s2,1.25,2.67,2.17,1.01,2.14,1.01,3.66c0,1.67-.42,3.11-1.25,4.32s-1.99,2.14-3.47,2.78-3.19.96-5.14.96Z"/>
      <path class="cls-8" d="m1408.33,39.6c-1,0-1.88-.33-2.62-1s-1.12-1.5-1.12-2.52v-18.52h-4.08v-3.28h4.08v-5.3l3.94-.84v6.14h5.02v3.28h-5.02v17.46c0,.52.07.86.22,1.03s.46.26.95.26h3.87v3.28h-5.23Z"/>
      <path class="cls-8" d="m1419.23,39.6V14.29h3.7v5.37l-.14-.61c.75-1.75,1.88-3.07,3.39-3.97s3.04-1.35,4.58-1.35c.45,0,.89.04,1.32.12s.83.21,1.21.4l-.52,3.7c-.86-.27-1.71-.4-2.55-.4-.53,0-1.19.11-1.98.32s-1.57.63-2.34,1.27-1.42,1.57-1.95,2.82-.79,2.91-.79,4.99v12.66h-3.94Z"/>
      <path class="cls-8" d="m1445.76,40.16c-1.77,0-3.3-.4-4.59-1.2s-2.3-1.94-3-3.42-1.05-3.26-1.05-5.32v-15.94h3.94v15.63c0,2.06.39,3.74,1.17,5.03s2.19,1.93,4.22,1.93c1.52,0,2.83-.39,3.94-1.17s1.97-1.95,2.59-3.52.93-3.52.93-5.86v-12.05h3.94v25.31h-3.7v-5.95l.16,1.03c-.66,1.56-1.71,2.87-3.18,3.91s-3.25,1.57-5.36,1.57Z"/>
      <path class="cls-8" d="m1475.46,40.16c-2.38,0-4.43-.54-6.16-1.62s-3.07-2.61-4.01-4.58-1.41-4.32-1.41-7.02.47-5.04,1.41-7.02,2.27-3.5,4.01-4.58,3.79-1.62,6.16-1.62c1.81,0,3.43.33,4.86,1s2.64,1.62,3.63,2.86,1.72,2.74,2.19,4.49l-4.01,1.05c-.44-1.97-1.22-3.48-2.36-4.54s-2.57-1.58-4.32-1.58c-2.33,0-4.12.86-5.38,2.59s-1.89,4.18-1.89,7.35.63,5.64,1.89,7.36,3.05,2.58,5.38,2.58c1.73,0,3.16-.51,4.29-1.54s1.91-2.5,2.37-4.44l3.98,1.12c-.38,1.28-.89,2.42-1.55,3.42s-1.43,1.85-2.33,2.55-1.91,1.24-3.05,1.61-2.37.55-3.71.55Z"/>
      <path class="cls-8" d="m1496.78,39.6c-1,0-1.88-.33-2.62-1s-1.12-1.5-1.12-2.52v-18.52h-4.08v-3.28h4.08v-5.3l3.94-.84v6.14h5.02v3.28h-5.02v17.46c0,.52.07.86.22,1.03s.46.26.95.26h3.87v3.28h-5.23Z"/>
      <path class="cls-8" d="m1509.67,10.05c-.91,0-1.68-.32-2.32-.96s-.96-1.41-.96-2.32.32-1.7.96-2.33,1.41-.95,2.32-.95,1.7.32,2.33.95.95,1.41.95,2.33-.32,1.68-.95,2.32-1.41.96-2.33.96Zm-1.97,29.55V14.29h3.94v25.31h-3.94Z"/>
      <path class="cls-8" d="m1525.99,39.6l-9.52-25.31h4.36l8.04,23.09h-.75l7.99-23.09h4.36l-9.47,25.31h-5.02Z"/>
      <path class="cls-8" d="m1555,40.16c-2.41,0-4.49-.54-6.25-1.62s-3.11-2.61-4.07-4.58-1.43-4.31-1.43-7,.48-5.05,1.43-7.03,2.3-3.52,4.03-4.59,3.77-1.62,6.12-1.62c1.34,0,2.69.21,4.04.64s2.59,1.17,3.7,2.23,2.02,2.5,2.7,4.34,1.02,4.15,1.02,6.95h-20.51v-3.19h17.09l-1.12,1.48c-.08-2.22-.44-4-1.08-5.34s-1.47-2.32-2.5-2.92-2.16-.9-3.41-.9c-1.48,0-2.77.39-3.84,1.16s-1.91,1.9-2.48,3.39-.87,3.3-.87,5.44c0,3.16.64,5.59,1.93,7.31s3.12,2.58,5.5,2.58c1.7,0,3.14-.43,4.3-1.29s2.02-2.1,2.57-3.73l3.87,1.31c-.61,1.47-1.42,2.72-2.44,3.76s-2.22,1.84-3.62,2.39-2.96.83-4.68.83Z"/>
      <path class="cls-8" d="m1566.91,47.52c2.77-3.5,4.76-6.96,5.98-10.38s1.83-7.13,1.83-11.13-.62-7.62-1.88-11.05-3.23-6.93-5.93-10.51h4.17c2.41,3.12,4.24,6.52,5.5,10.17s1.89,7.45,1.89,11.39-.62,7.75-1.88,11.4-3.09,7.02-5.51,10.11h-4.17Z"/>
    </g>
  </g>
  <g class="cls-10">
    <g class="cls-10">
      <path class="cls-8" d="m1.45,300.16v-2.74h11.79v2.74H1.45Z"/>
      <path class="cls-8" d="m19.87,309.87v-20.16c-.93.8-1.79,1.47-2.6,2.01s-1.71,1-2.71,1.38v-2.99c.52-.25,1.06-.55,1.63-.92s1.23-.91,1.96-1.63,1.58-1.72,2.54-3h2.27v25.31h-3.09Z"/>
      <path class="cls-8" d="m30.89,310.29c-.75,0-1.38-.26-1.9-.77s-.77-1.15-.77-1.9.26-1.38.77-1.9,1.15-.77,1.9-.77,1.38.26,1.9.77.77,1.15.77,1.9-.26,1.38-.77,1.9-1.15.77-1.9.77Z"/>
      <path class="cls-8" d="m45.85,310.29c-2.93,0-5.2-1.15-6.82-3.44s-2.43-5.5-2.43-9.64.81-7.35,2.43-9.64,3.89-3.44,6.82-3.44,5.22,1.15,6.83,3.44,2.42,5.5,2.42,9.64-.81,7.35-2.42,9.64-3.89,3.44-6.83,3.44Zm0-2.53c1.95,0,3.42-.9,4.41-2.69s1.49-4.41,1.49-7.86-.5-6.06-1.49-7.86-2.47-2.69-4.41-2.69-3.42.9-4.41,2.69-1.49,4.41-1.49,7.86.5,6.06,1.49,7.86,2.47,2.69,4.41,2.69Z"/>
    </g>
  </g>
  <g class="cls-10">
    <g class="cls-10">
      <path class="cls-8" d="m19.87,93.87v-20.16c-.93.8-1.79,1.47-2.6,2.01s-1.71,1-2.71,1.38v-2.99c.52-.25,1.06-.55,1.63-.92s1.23-.91,1.96-1.63,1.58-1.72,2.54-3h2.27v25.31h-3.09Z"/>
      <path class="cls-8" d="m30.89,94.29c-.75,0-1.38-.26-1.9-.77s-.77-1.15-.77-1.9.26-1.38.77-1.9,1.15-.77,1.9-.77,1.38.26,1.9.77.77,1.15.77,1.9-.26,1.38-.77,1.9-1.15.77-1.9.77Z"/>
      <path class="cls-8" d="m45.85,94.29c-2.93,0-5.2-1.15-6.82-3.44s-2.43-5.5-2.43-9.64.81-7.35,2.43-9.64,3.89-3.44,6.82-3.44,5.22,1.15,6.83,3.44,2.42,5.5,2.42,9.64-.81,7.35-2.42,9.64-3.89,3.44-6.83,3.44Zm0-2.53c1.95,0,3.42-.9,4.41-2.69s1.49-4.41,1.49-7.86-.5-6.06-1.49-7.86-2.47-2.69-4.41-2.69-3.42.9-4.41,2.69-1.49,4.41-1.49,7.86.5,6.06,1.49,7.86,2.47,2.69,4.41,2.69Z"/>
    </g>
  </g>
  <g class="cls-10">
    <g class="cls-10">
      <path class="cls-8" d="m15.97,202.29c-2.93,0-5.2-1.15-6.82-3.44s-2.43-5.5-2.43-9.64.81-7.35,2.43-9.64,3.89-3.44,6.82-3.44,5.22,1.15,6.83,3.44,2.42,5.5,2.42,9.64-.81,7.35-2.42,9.64-3.89,3.44-6.83,3.44Zm0-2.53c1.95,0,3.42-.9,4.41-2.69s1.49-4.41,1.49-7.86-.5-6.06-1.49-7.86-2.47-2.69-4.41-2.69-3.42.9-4.41,2.69-1.49,4.41-1.49,7.86.5,6.06,1.49,7.86,2.47,2.69,4.41,2.69Z"/>
      <path class="cls-8" d="m30.89,202.29c-.75,0-1.38-.26-1.9-.77s-.77-1.15-.77-1.9.26-1.38.77-1.9,1.15-.77,1.9-.77,1.38.26,1.9.77.77,1.15.77,1.9-.26,1.38-.77,1.9-1.15.77-1.9.77Z"/>
      <path class="cls-8" d="m45.85,202.29c-2.93,0-5.2-1.15-6.82-3.44s-2.43-5.5-2.43-9.64.81-7.35,2.43-9.64,3.89-3.44,6.82-3.44,5.22,1.15,6.83,3.44,2.42,5.5,2.42,9.64-.81,7.35-2.42,9.64-3.89,3.44-6.83,3.44Zm0-2.53c1.95,0,3.42-.9,4.41-2.69s1.49-4.41,1.49-7.86-.5-6.06-1.49-7.86-2.47-2.69-4.41-2.69-3.42.9-4.41,2.69-1.49,4.41-1.49,7.86.5,6.06,1.49,7.86,2.47,2.69,4.41,2.69Z"/>
    </g>
  </g>
  <g class="cls-10">
    <g class="cls-10">
      <path class="cls-8" d="m1812.69,223.2c-.75,0-1.41-.25-1.97-.75s-.84-1.13-.84-1.89v-13.89h-3.06v-2.46h3.06v-3.97l2.95-.63v4.61h3.76v2.46h-3.76v13.1c0,.39.06.64.17.77s.35.19.71.19h2.9v2.46h-3.92Z"/>
    </g>
  </g>
  <line class="cls-6" x1="70.81" y1="298.8" x2="70.81" y2="82.8"/>
  <line class="cls-6" x1="70.81" y1="298.8" x2="99.37" y2="298.8"/>
  <line class="cls-6" x1="70.81" y1="136.8" x2="99.37" y2="136.8"/>
  <line class="cls-6" x1="70.81" y1="82.8" x2="99.37" y2="82.8"/>
  <line class="cls-6" x1="70.81" y1="244.8" x2="99.37" y2="244.8"/>
  <g class="cls-9">
    <g>
      <line class="cls-1" x1="151.4" y1="82.8" x2="151.4" y2="88.8"/>
      <line class="cls-4" x1="151.4" y1="100.8" x2="151.4" y2="286.8"/>
      <line class="cls-1" x1="151.4" y1="292.8" x2="151.4" y2="298.8"/>
    </g>
  </g>
  <g class="cls-9">
    <g>
      <line class="cls-1" x1="232.24" y1="82.8" x2="232.24" y2="88.8"/>
      <line class="cls-4" x1="232.24" y1="100.8" x2="232.24" y2="286.8"/>
      <line class="cls-1" x1="232.24" y1="292.8" x2="232.24" y2="298.8"/>
    </g>
  </g>
  <g class="cls-9">
    <g>
      <line class="cls-1" x1="313.07" y1="82.8" x2="313.07" y2="88.8"/>
      <line class="cls-4" x1="313.07" y1="100.8" x2="313.07" y2="286.8"/>
      <line class="cls-1" x1="313.07" y1="292.8" x2="313.07" y2="298.8"/>
    </g>
  </g>
  <g class="cls-9">
    <g>
      <line class="cls-1" x1="393.91" y1="82.8" x2="393.91" y2="88.8"/>
      <line class="cls-4" x1="393.91" y1="100.8" x2="393.91" y2="286.8"/>
      <line class="cls-1" x1="393.91" y1="292.8" x2="393.91" y2="298.8"/>
    </g>
  </g>
  <g class="cls-9">
    <g>
      <line class="cls-1" x1="474.75" y1="82.8" x2="474.75" y2="88.8"/>
      <line class="cls-4" x1="474.75" y1="100.8" x2="474.75" y2="286.8"/>
      <line class="cls-1" x1="474.75" y1="292.8" x2="474.75" y2="298.8"/>
    </g>
  </g>
  <g class="cls-9">
    <g>
      <line class="cls-1" x1="555.58" y1="82.8" x2="555.58" y2="88.8"/>
      <line class="cls-4" x1="555.58" y1="100.8" x2="555.58" y2="286.8"/>
      <line class="cls-1" x1="555.58" y1="292.8" x2="555.58" y2="298.8"/>
    </g>
  </g>
  <g class="cls-9">
    <g>
      <line class="cls-1" x1="636.42" y1="82.8" x2="636.42" y2="88.8"/>
      <line class="cls-4" x1="636.42" y1="100.8" x2="636.42" y2="286.8"/>
      <line class="cls-1" x1="636.42" y1="292.8" x2="636.42" y2="298.8"/>
    </g>
  </g>
  <g class="cls-9">
    <g>
      <line class="cls-1" x1="717.26" y1="82.8" x2="717.26" y2="88.8"/>
      <line class="cls-4" x1="717.26" y1="100.8" x2="717.26" y2="286.8"/>
      <line class="cls-1" x1="717.26" y1="292.8" x2="717.26" y2="298.8"/>
    </g>
  </g>
  <g class="cls-9">
    <g>
      <line class="cls-1" x1="798.09" y1="82.8" x2="798.09" y2="88.8"/>
      <line class="cls-4" x1="798.09" y1="100.8" x2="798.09" y2="286.8"/>
      <line class="cls-1" x1="798.09" y1="292.8" x2="798.09" y2="298.8"/>
    </g>
  </g>
  <g class="cls-9">
    <g>
      <line class="cls-1" x1="878.93" y1="82.8" x2="878.93" y2="88.8"/>
      <line class="cls-4" x1="878.93" y1="100.8" x2="878.93" y2="286.8"/>
      <line class="cls-1" x1="878.93" y1="292.8" x2="878.93" y2="298.8"/>
    </g>
  </g>
  <g class="cls-9">
    <g>
      <line class="cls-1" x1="959.77" y1="82.8" x2="959.77" y2="88.8"/>
      <line class="cls-4" x1="959.77" y1="100.8" x2="959.77" y2="286.8"/>
      <line class="cls-1" x1="959.77" y1="292.8" x2="959.77" y2="298.8"/>
    </g>
  </g>
  <g class="cls-9">
    <g>
      <line class="cls-1" x1="1040.6" y1="82.8" x2="1040.6" y2="88.8"/>
      <line class="cls-4" x1="1040.6" y1="100.8" x2="1040.6" y2="286.8"/>
      <line class="cls-1" x1="1040.6" y1="292.8" x2="1040.6" y2="298.8"/>
    </g>
  </g>
  <g class="cls-9">
    <g>
      <line class="cls-1" x1="1121.44" y1="82.8" x2="1121.44" y2="88.8"/>
      <line class="cls-4" x1="1121.44" y1="100.8" x2="1121.44" y2="286.8"/>
      <line class="cls-1" x1="1121.44" y1="292.8" x2="1121.44" y2="298.8"/>
    </g>
  </g>
  <g class="cls-9">
    <g>
      <line class="cls-1" x1="1202.27" y1="82.8" x2="1202.27" y2="88.8"/>
      <line class="cls-4" x1="1202.27" y1="100.8" x2="1202.27" y2="286.8"/>
      <line class="cls-1" x1="1202.27" y1="292.8" x2="1202.27" y2="298.8"/>
    </g>
  </g>
  <g class="cls-9">
    <g>
      <line class="cls-1" x1="1283.11" y1="82.8" x2="1283.11" y2="88.8"/>
      <line class="cls-4" x1="1283.11" y1="100.8" x2="1283.11" y2="286.8"/>
      <line class="cls-1" x1="1283.11" y1="292.8" x2="1283.11" y2="298.8"/>
    </g>
  </g>
  <g class="cls-9">
    <g>
      <line class="cls-1" x1="1363.95" y1="82.8" x2="1363.95" y2="88.8"/>
      <line class="cls-4" x1="1363.95" y1="100.8" x2="1363.95" y2="286.8"/>
      <line class="cls-1" x1="1363.95" y1="292.8" x2="1363.95" y2="298.8"/>
    </g>
  </g>
  <g class="cls-9">
    <g>
      <line class="cls-1" x1="1444.78" y1="82.8" x2="1444.78" y2="88.8"/>
      <line class="cls-4" x1="1444.78" y1="100.8" x2="1444.78" y2="286.8"/>
      <line class="cls-1" x1="1444.78" y1="292.8" x2="1444.78" y2="298.8"/>
    </g>
  </g>
  <g class="cls-9">
    <g>
      <line class="cls-1" x1="1525.62" y1="82.8" x2="1525.62" y2="88.8"/>
      <line class="cls-4" x1="1525.62" y1="100.8" x2="1525.62" y2="286.8"/>
      <line class="cls-1" x1="1525.62" y1="292.8" x2="1525.62" y2="298.8"/>
    </g>
  </g>
  <g class="cls-9">
    <g>
      <line class="cls-1" x1="1606.46" y1="82.8" x2="1606.46" y2="88.8"/>
      <line class="cls-4" x1="1606.46" y1="100.8" x2="1606.46" y2="286.8"/>
      <line class="cls-1" x1="1606.46" y1="292.8" x2="1606.46" y2="298.8"/>
    </g>
  </g>
  <g class="cls-9">
    <g>
      <line class="cls-1" x1="1687.29" y1="82.8" x2="1687.29" y2="88.8"/>
      <line class="cls-4" x1="1687.29" y1="100.8" x2="1687.29" y2="286.8"/>
      <line class="cls-1" x1="1687.29" y1="292.8" x2="1687.29" y2="298.8"/>
    </g>
  </g>
  <g class="cls-9">
    <g>
      <line class="cls-1" x1="1768.13" y1="82.8" x2="1768.13" y2="88.8"/>
      <line class="cls-4" x1="1768.13" y1="100.8" x2="1768.13" y2="286.8"/>
      <line class="cls-1" x1="1768.13" y1="292.8" x2="1768.13" y2="298.8"/>
    </g>
  </g>
  <g class="cls-9">
    <g>
      <line class="cls-1" x1="1768.13" y1="136.8" x2="1762.13" y2="136.8"/>
      <line class="cls-2" x1="1750.18" y1="136.8" x2="82.54" y2="136.8"/>
      <line class="cls-1" x1="76.56" y1="136.8" x2="70.57" y2="136.8"/>
    </g>
  </g>
  <g class="cls-9">
    <g>
      <line class="cls-1" x1="1768.13" y1="244.8" x2="1762.13" y2="244.8"/>
      <line class="cls-2" x1="1750.18" y1="244.8" x2="82.54" y2="244.8"/>
      <line class="cls-1" x1="76.56" y1="244.8" x2="70.57" y2="244.8"/>
    </g>
  </g>
  <g class="cls-9">
    <g>
      <line class="cls-1" x1="1768.13" y1="82.8" x2="1762.13" y2="82.8"/>
      <line class="cls-2" x1="1750.18" y1="82.8" x2="82.54" y2="82.8"/>
      <line class="cls-1" x1="76.56" y1="82.8" x2="70.57" y2="82.8"/>
    </g>
  </g>
  <g class="cls-9">
    <g>
      <line class="cls-1" x1="1768.13" y1="298.8" x2="1762.13" y2="298.8"/>
      <line class="cls-2" x1="1750.18" y1="298.8" x2="82.54" y2="298.8"/>
      <line class="cls-1" x1="76.57" y1="298.8" x2="70.57" y2="298.8"/>
    </g>
  </g>
  <g>
    <line class="cls-5" x1="70.81" y1="190.8" x2="1791.03" y2="190.8"/>
    <polygon class="cls-8" points="1785.41 199.04 1816.14 190.81 1785.41 182.56 1785.41 199.04"/>
  </g>
  <path class="cls-3" d="m70.82,177.38h0l21.13,5.96,33.15,10.25,33.15,9.99,20.3,5.34,16.99,3.73,15.75,2.72,14.5,1.79,14.09,1.04,13.67.31,13.67-.38,14.09-1.1,14.5-1.85,15.33-2.7,16.58-3.67,18.65-4.89,24.03-7.12,61.33-18.55,19.06-4.76,16.58-3.4,15.33-2.41,14.5-1.55,14.09-.79,13.67-.07,13.67.62,14.09,1.34,14.5,2.09,15.33,2.92,16.99,3.98,19.89,5.44,27.35,8.32,44.75,13.63,20.3,5.33,16.99,3.73,15.75,2.72,14.5,1.79,14.09,1.03,13.67.31,13.67-.38,14.09-1.1,14.5-1.86,15.33-2.7,16.58-3.67,18.65-4.89,24.03-7.12,61.33-18.55,19.06-4.76,16.58-3.39,15.33-2.4,14.5-1.55,14.09-.79,13.67-.07,13.67.62,14.09,1.34,14.5,2.09,15.33,2.92,16.99,3.98,19.89,5.44,27.35,8.32,44.75,13.63,20.3,5.33,16.99,3.72,15.75,2.71,14.5,1.78,14.09,1.03,13.67.31,13.67-.38,14.09-1.11,14.5-1.86,15.33-2.7,16.58-3.67,18.65-4.89,24.03-7.12,61.33-18.54,19.06-4.75,16.58-3.39,15.33-2.4,14.5-1.55,14.09-.78,13.67-.06,13.67.63,14.09,1.35,14.5,2.09,15.33,2.93,16.99,3.98,19.89,5.44,27.76,8.45,43.92,13.38,10.36,2.83"/>
  <path class="cls-3" d="m70.82,162.89h0l16.58,9.23,21.96,13.32,47.24,28.92,16.99,9.16,14.09,6.65,12.43,5,11.6,3.83,10.77,2.77,10.36,1.91,9.95,1.11,9.95.38,9.53-.32,9.95-1.05,9.95-1.76,10.36-2.56,10.77-3.42,11.6-4.47,12.85-5.81,14.5-7.49,17.4-9.98,26.11-16.12,33.98-20.79,17.4-9.59,14.5-7.04,12.85-5.34,11.6-3.99,10.77-2.93,10.36-2.07,9.95-1.27,9.95-.54,9.53.16,9.95.88,9.95,1.6,10.36,2.4,10.77,3.26,11.6,4.32,12.43,5.47,14.09,7.1,16.99,9.57,23.21,14.18,41.85,25.66,17.4,9.5,14.5,6.94,12.85,5.23,11.6,3.89,10.77,2.83,10.36,1.96,9.95,1.16,9.95.44,9.53-.27,9.95-.99,9.95-1.71,10.36-2.51,10.77-3.36,11.6-4.42,12.85-5.76,14.5-7.44,17.4-9.94,25.69-15.84,35.22-21.57,17.4-9.58,14.5-7.04,12.85-5.34,11.6-3.99,10.77-2.93,10.36-2.06,9.95-1.26,9.95-.54,9.53.17,9.95.89,9.95,1.61,10.36,2.41,10.77,3.27,11.6,4.33,12.43,5.47,14.09,7.1,16.99,9.57,23.62,14.44,41.02,25.16,17.4,9.52,14.5,6.96,12.85,5.26,11.6,3.91,10.77,2.85,10.36,1.99,9.95,1.18,9.95.46,9.53-.25,9.95-.97,9.95-1.68,10.36-2.49,10.77-3.34,11.6-4.4,12.85-5.74,14.5-7.42,17.4-9.92,25.28-15.57,36.05-22.09,17.4-9.58,14.5-7.03,12.85-5.33,11.6-3.98,10.77-2.92,10.36-2.06,9.95-1.26,9.95-.53,9.53.18,9.95.9,9.95,1.61,10.36,2.42,10.77,3.27,11.6,4.33,12.85,5.67,14.09,7.14,16.99,9.6,23.62,14.46,40.2,24.65,14.5,8.03"/>
  <path class="cls-7" d="m70.82,148.39h0l15.75,13.12,20.3,18.39,50.55,46.4,16.16,13.03,13.26,9.43,11.6,7.12,10.36,5.35,9.53,4.01,9.12,2.98,8.29,1.94,8.29,1.2,7.87.43,7.87-.25,7.87-.94,8.29-1.72,8.29-2.45,9.12-3.52,9.53-4.55,10.36-5.9,11.6-7.67,13.26-9.97,15.75-13.17,20.72-18.81,48.48-44.55,16.16-13.12,13.67-9.8,11.6-7.18,10.36-5.41,9.53-4.07,9.12-3.03,8.7-2.07,8.29-1.21,7.87-.45,7.87.24,7.87.92,8.29,1.7,8.29,2.44,8.7,3.33,9.53,4.5,10.36,5.84,11.6,7.62,13.26,9.91,15.75,13.13,20.3,18.39,50.14,46.05,16.16,13.06,13.26,9.46,11.6,7.15,10.36,5.38,9.53,4.05,9.12,3.01,8.29,1.97,8.29,1.23,7.87.46,7.87-.22,7.87-.91,8.29-1.69,8.29-2.42,8.7-3.31,9.53-4.48,10.36-5.83,11.6-7.6,12.85-9.57,15.33-12.72,19.89-17.95,53.04-48.62,15.75-12.61,13.26-9.36,11.6-7.05,10.36-5.28,9.53-3.94,9.12-2.9,8.29-1.87,8.29-1.13,7.87-.37,7.87.32,7.87,1,8.29,1.79,8.7,2.66,9.12,3.62,9.53,4.66,10.36,6,11.6,7.78,13.26,10.07,16.16,13.63,21.55,19.68,43.92,40.45,16.58,13.63,13.67,9.97,12.02,7.59,10.77,5.73,9.53,4.15,9.12,3.12,8.7,2.16,8.29,1.29,7.87.53,7.87-.16,7.87-.85,8.29-1.62,8.29-2.36,8.7-3.24,9.53-4.42,10.36-5.76,11.19-7.25,12.85-9.47,15.33-12.63,19.48-17.49,56.77-51.89,15.33-12.1,12.85-8.92,11.6-6.92,10.36-5.15,9.53-3.82,8.7-2.67,8.29-1.79,8.29-1.04,7.87-.29,7.87.4,7.87,1.08,8.29,1.87,8.7,2.75,9.12,3.71,9.53,4.74,10.77,6.35,12.02,8.2,13.67,10.55,16.58,14.16,22.79,20.98,38.12,35.15,16.16,13.48"/>
</svg>