<?xml version="1.0" encoding="utf-8"?>
<!-- Generator: Adobe Illustrator 27.4.1, SVG Export Plug-In . SVG Version: 6.00 Build 0)  -->
<svg version="1.1" id="Ebene_3" xmlns="http://www.w3.org/2000/svg" xmlns:xlink="http://www.w3.org/1999/xlink" x="0px" y="0px"
	 viewBox="0 0 1821.6 313.2" style="enable-background:new 0 0 1821.6 313.2;" xml:space="preserve">
<style type="text/css">
	.st0{fill:#C9D1D9;}
	.st1{fill:none;stroke:#C9D1D9;stroke-width:2;stroke-miterlimit:10;}
	.st2{opacity:0.5;}
	.st3{fill:none;stroke:#C9D1D9;stroke-width:1.42;stroke-linecap:round;stroke-linejoin:round;}
	.st4{fill:none;stroke:#C9D1D9;stroke-width:1.42;stroke-linecap:round;stroke-linejoin:round;stroke-dasharray:0,0,12,12;}
	.st5{fill:none;stroke:#C9D1D9;stroke-width:1.42;stroke-linecap:round;stroke-linejoin:round;stroke-dasharray:0,0,11.95,11.95;}
	.st6{fill:none;stroke:#C9D1D9;stroke-width:2.83;stroke-linecap:round;stroke-miterlimit:10;}
	.st7{fill:none;stroke:#307EEF;stroke-width:5;stroke-linecap:round;stroke-linejoin:round;}
	.st8{fill:none;stroke:#D85648;stroke-width:5;stroke-linecap:round;stroke-linejoin:round;stroke-dasharray:0,12;}
</style>
<g>
	<g>
		<path class="st0" d="M84.5,40.2c-2.1,0-4-0.4-5.8-1.2s-3.2-2-4.4-3.5s-1.8-3.5-2-5.7l4.3-1.3c0.2,2.5,0.9,4.5,2.3,6.1
			s3.2,2.3,5.6,2.3c2.1,0,3.9-0.6,5.3-1.8s2.1-3,2.1-5.3c0-0.9-0.2-1.9-0.6-2.9s-1.1-1.9-2.1-2.6S86.8,23,84.9,23h-4.6v-3.6h4.3
			c2,0,3.5-0.5,4.6-1.6s1.6-2.2,1.6-3.6c0-1.6-0.6-2.9-1.6-4s-2.6-1.7-4.6-1.7c-2.5,0-4.3,0.7-5.4,2.1s-1.8,3.4-2,5.9l-4.3-1.3
			c0.1-1.6,0.6-3.2,1.6-4.7s2.3-2.8,4.1-3.8s3.8-1.5,6.1-1.5c1.9,0,3.7,0.4,5.2,1.1s2.8,1.8,3.7,3.1s1.4,2.8,1.4,4.5
			c0,1.1-0.2,2.2-0.7,3.1s-1.2,1.8-2.1,2.4S90,20.7,88.6,21c2.4,0.4,4.2,1.4,5.6,3s2.1,3.4,2.1,5.5c0,1.9-0.3,3.5-1,4.8
			s-1.6,2.4-2.7,3.3s-2.4,1.5-3.8,1.9S85.9,40.2,84.5,40.2L84.5,40.2z"/>
		<path class="st0" d="M104.4,40.2c-1,0-1.8-0.3-2.5-1s-1-1.5-1-2.5s0.3-1.8,1-2.5s1.5-1,2.5-1s1.8,0.3,2.5,1s1,1.5,1,2.5
			s-0.3,1.8-1,2.5S105.4,40.2,104.4,40.2z"/>
		<path class="st0" d="M138.7,40.2c-2.6,0-4.9-0.4-6.8-1.3s-3.5-2.1-4.7-3.8s-2-3.6-2.4-6l5-1c0.1,2.8,0.9,4.9,2.4,6.4
			s3.6,2.2,6.3,2.2c1.6,0,3-0.3,4.1-0.8s2-1.3,2.6-2.2s0.9-2.1,0.9-3.4c0-1.8-0.5-3-1.5-3.9s-2.4-1.5-4.1-1.9l-4.4-1
			c-0.8-0.2-1.8-0.5-2.8-0.8s-2.1-0.8-3.1-1.5s-1.8-1.5-2.5-2.6s-1-2.5-1-4.2c0-2.2,0.6-3.9,1.7-5.3s2.6-2.3,4.4-2.9
			s3.7-0.9,5.7-0.9c2.3,0,4.3,0.4,6,1.1s3,1.8,4,3.2s1.7,3,2.1,4.9l-4.9,1c-0.1-1.4-0.5-2.6-1.1-3.6s-1.4-1.8-2.4-2.3
			s-2.4-0.8-3.9-0.8c-1.3,0-2.4,0.2-3.6,0.6s-2,1-2.7,1.8s-1,1.8-1,3.1s0.5,2.4,1.4,3.2s2.5,1.5,4.6,2l4.4,1
			c1.6,0.4,3.1,0.9,4.5,1.6s2.6,1.7,3.4,3s1.3,3,1.3,5.1s-0.5,3.9-1.4,5.4s-2.3,2.6-4.1,3.4S141.1,40.2,138.7,40.2L138.7,40.2z"/>
		<path class="st0" d="M163.6,40.2c-1.7,0-3.1-0.3-4.4-1s-2.2-1.5-2.9-2.7s-1-2.4-1-3.8c0-1.5,0.4-2.9,1.3-4.2s2.3-2.3,4.1-3.1
			s4.3-1.2,7.2-1.2h4.2l-0.4,0.4v-1.4c0-2-0.4-3.6-1.2-4.7s-2.2-1.6-4.1-1.6c-1.8,0-3.2,0.5-4.1,1.4s-1.5,2.2-1.6,3.7l-4.4-1
			c0.1-1.4,0.7-2.6,1.6-3.7s2.1-2,3.6-2.7s3.2-1,5.2-1s3.7,0.4,5,1.2s2.2,1.9,2.9,3.3s0.9,3.2,0.9,5.2V35c0,0.5,0.1,0.9,0.2,1
			s0.5,0.3,0.9,0.3h1.4v3.3h-2.5c-1.1,0-1.9-0.3-2.7-1s-1.1-1.5-1.1-2.5v-1.8h0.6c-0.2,0.7-0.6,1.3-1.1,2s-1.1,1.3-1.8,1.9
			s-1.6,1.1-2.6,1.4S164.9,40.1,163.6,40.2L163.6,40.2z M164.5,36.9c1.3,0,2.5-0.3,3.6-1s2-1.6,2.7-3s1-3.1,1-5.3v-0.2h-4
			c-2.1,0-3.7,0.3-4.9,0.8s-2,1.2-2.5,2s-0.8,1.6-0.8,2.4s0.2,1.5,0.5,2.2s0.9,1.2,1.6,1.5S163.4,36.9,164.5,36.9L164.5,36.9z"/>
		<path class="st0" d="M183.6,39.6V14.3h3.7v4.3c0.6-1.3,1.6-2.5,2.9-3.4s3-1.5,4.9-1.5c1.7,0,3.1,0.5,4.4,1.4s2.2,2.2,2.8,3.9
			c0.8-1.5,1.9-2.8,3.3-3.8s3-1.5,4.8-1.5c2.4,0,4.3,0.9,5.8,2.6s2.1,4.2,2.1,7.3v15.9h-3.9V24c0-1.4-0.1-2.7-0.4-3.7
			s-0.8-1.8-1.5-2.4s-1.6-0.8-2.8-0.8c-1.3,0-2.4,0.4-3.5,1.1s-1.8,1.8-2.4,3.2s-0.9,3.1-0.9,5.1v13.2h-3.9V24
			c0-1.4-0.1-2.7-0.4-3.7s-0.8-1.8-1.4-2.4s-1.6-0.8-2.7-0.8c-1.3,0-2.4,0.4-3.5,1.1s-1.8,1.8-2.4,3.2s-0.9,3.1-0.9,5.1v13.2
			L183.6,39.6L183.6,39.6z"/>
		<path class="st0" d="M235.7,40.2c-2.4,0-4.5-0.5-6.2-1.6s-3.1-2.6-4.1-4.6s-1.4-4.3-1.4-7s0.5-5,1.4-7s2.3-3.5,4-4.6
			s3.8-1.6,6.1-1.6c1.3,0,2.7,0.2,4,0.6s2.6,1.2,3.7,2.2s2,2.5,2.7,4.3s1,4.1,1,6.9h-20.5v-3.2h17.1l-1.1,1.5
			c-0.1-2.2-0.4-4-1.1-5.3s-1.5-2.3-2.5-2.9s-2.2-0.9-3.4-0.9c-1.5,0-2.8,0.4-3.8,1.2s-1.9,1.9-2.5,3.4s-0.9,3.3-0.9,5.4
			c0,3.2,0.6,5.6,1.9,7.3s3.1,2.6,5.5,2.6c1.7,0,3.1-0.4,4.3-1.3s2-2.1,2.6-3.7l3.9,1.3c-0.6,1.5-1.4,2.7-2.4,3.8s-2.2,1.8-3.6,2.4
			S237.4,40.2,235.7,40.2z"/>
		<path class="st0" d="M262.7,17.6v-3.3H276v3.3H262.7z M266.4,39.6V9.7c0-1.9,0.5-3.2,1.3-4s2.4-1.2,4.5-1.2h3.2v3.3h-3.7
			c-0.5,0-0.8,0.1-1,0.3c-0.2,0.2-0.3,0.5-0.3,1v30.6L266.4,39.6L266.4,39.6z"/>
		<path class="st0" d="M280.8,39.6V14.3h3.7v5.4l-0.1-0.6c0.8-1.8,1.9-3.1,3.4-4s3-1.4,4.6-1.4c0.5,0,0.9,0,1.3,0.1s0.8,0.2,1.2,0.4
			l-0.5,3.7c-0.9-0.3-1.7-0.4-2.5-0.4c-0.5,0-1.2,0.1-2,0.3s-1.6,0.6-2.3,1.3s-1.4,1.6-2,2.8s-0.8,2.9-0.8,5v12.7L280.8,39.6
			L280.8,39.6z"/>
		<path class="st0" d="M308.9,40.2c-2.4,0-4.5-0.5-6.2-1.6s-3.1-2.6-4.1-4.6s-1.4-4.3-1.4-7s0.5-5,1.4-7s2.3-3.5,4-4.6
			s3.8-1.6,6.1-1.6c1.3,0,2.7,0.2,4,0.6s2.6,1.2,3.7,2.2s2,2.5,2.7,4.3s1,4.1,1,6.9h-20.5v-3.2h17.1l-1.1,1.5
			c-0.1-2.2-0.4-4-1.1-5.3s-1.5-2.3-2.5-2.9s-2.2-0.9-3.4-0.9c-1.5,0-2.8,0.4-3.8,1.2s-1.9,1.9-2.5,3.4s-0.9,3.3-0.9,5.4
			c0,3.2,0.6,5.6,1.9,7.3s3.1,2.6,5.5,2.6c1.7,0,3.1-0.4,4.3-1.3s2-2.1,2.6-3.7l3.9,1.3c-0.6,1.5-1.4,2.7-2.4,3.8s-2.2,1.8-3.6,2.4
			S310.6,40.2,308.9,40.2z"/>
		<path class="st0" d="M344,48.7V34.3l0.4,0.4c-0.7,1.8-1.8,3.2-3.4,4.1s-3.3,1.3-5.1,1.3c-2,0-3.9-0.5-5.4-1.6s-2.8-2.6-3.7-4.6
			s-1.3-4.3-1.3-7s0.4-5,1.3-7s2.1-3.5,3.7-4.6s3.4-1.6,5.4-1.6c1.7,0,3.3,0.4,4.9,1.2s2.9,2.2,3.7,4.2l-0.2,0.2v-5.1h3.7v34.5
			L344,48.7L344,48.7z M336.8,36.9c1.3,0,2.5-0.3,3.6-1s2-1.8,2.6-3.2s1-3.3,1-5.6c0-3.4-0.7-5.9-2.1-7.6s-3.1-2.5-5.1-2.5
			c-2.1,0-3.8,0.9-5.2,2.6s-2,4.2-2,7.4s0.6,5.5,2,7.3S334.7,36.9,336.8,36.9L336.8,36.9z"/>
		<path class="st0" d="M363.7,40.2c-1.8,0-3.3-0.4-4.6-1.2s-2.3-1.9-3-3.4s-1-3.3-1-5.3V14.3h3.9v15.6c0,2.1,0.4,3.7,1.2,5
			s2.2,1.9,4.2,1.9c1.5,0,2.8-0.4,3.9-1.2s2-2,2.6-3.5s0.9-3.5,0.9-5.9V14.3h3.9v25.3h-3.7v-6l0.2,1c-0.7,1.6-1.7,2.9-3.2,3.9
			S365.8,40.1,363.7,40.2L363.7,40.2z"/>
		<path class="st0" d="M393.6,40.2c-2.4,0-4.5-0.5-6.2-1.6s-3.1-2.6-4.1-4.6s-1.4-4.3-1.4-7s0.5-5,1.4-7s2.3-3.5,4-4.6
			s3.8-1.6,6.1-1.6c1.3,0,2.7,0.2,4,0.6s2.6,1.2,3.7,2.2s2,2.5,2.7,4.3s1,4.1,1,6.9h-20.5v-3.2h17.1l-1.1,1.5
			c-0.1-2.2-0.4-4-1.1-5.3s-1.5-2.3-2.5-2.9s-2.2-0.9-3.4-0.9c-1.5,0-2.8,0.4-3.8,1.2s-1.9,1.9-2.5,3.4s-0.9,3.3-0.9,5.4
			c0,3.2,0.6,5.6,1.9,7.3s3.1,2.6,5.5,2.6c1.7,0,3.1-0.4,4.3-1.3s2-2.1,2.6-3.7l3.9,1.3c-0.6,1.5-1.4,2.7-2.4,3.8s-2.2,1.8-3.6,2.4
			S395.3,40.2,393.6,40.2z"/>
		<path class="st0" d="M410.8,39.6V14.3h3.7V20l-0.2-1c0.7-1.5,1.7-2.7,3.2-3.7s3.2-1.5,5.3-1.5c1.8,0,3.3,0.4,4.6,1.2
			s2.3,1.9,3,3.4s1,3.2,1,5.3v15.9h-3.9V24c0-2.1-0.4-3.8-1.3-5s-2.2-1.9-4.2-1.9c-2.1,0-3.9,0.8-5.3,2.4s-2.1,3.9-2.1,7v13.2
			L410.8,39.6L410.8,39.6z"/>
		<path class="st0" d="M448.8,40.2c-2.4,0-4.4-0.5-6.2-1.6s-3.1-2.6-4-4.6s-1.4-4.3-1.4-7s0.5-5,1.4-7s2.3-3.5,4-4.6
			s3.8-1.6,6.2-1.6c1.8,0,3.4,0.3,4.9,1s2.6,1.6,3.6,2.9s1.7,2.7,2.2,4.5l-4,1c-0.4-2-1.2-3.5-2.4-4.5s-2.6-1.6-4.3-1.6
			c-2.3,0-4.1,0.9-5.4,2.6s-1.9,4.2-1.9,7.4s0.6,5.6,1.9,7.4s3,2.6,5.4,2.6c1.7,0,3.2-0.5,4.3-1.5s1.9-2.5,2.4-4.4l4,1.1
			c-0.4,1.3-0.9,2.4-1.5,3.4s-1.4,1.8-2.3,2.5s-1.9,1.2-3,1.6S450.2,40.1,448.8,40.2L448.8,40.2z"/>
		<path class="st0" d="M465.9,48.7v-3.3h3.8c0.3,0,0.5-0.1,0.7-0.3s0.3-0.5,0.5-0.9l1.8-5.2l-0.4,1.8l-10.2-26.6h4.4l8.1,23.3
			l-0.9-0.2l8-23.1h4.4L474,45.9c-0.3,0.9-0.9,1.5-1.7,2.1s-1.6,0.8-2.4,0.8L465.9,48.7L465.9,48.7z"/>
		<path class="st0" d="M487.7,47.1l-1.4-2l0.8-0.6c0.9-0.6,1.5-1.3,2-1.9s0.6-1.4,0.6-2.2v-1.1l0.6,0.8c-1,0-1.8-0.3-2.5-1
			s-1-1.5-1-2.5s0.3-1.9,1-2.5s1.5-1,2.5-1c0.6,0,1.1,0.1,1.7,0.4s1,0.8,1.4,1.4s0.6,1.5,0.6,2.6c0,1.5-0.4,3-1.2,4.5
			s-2.1,2.9-3.8,4.1L487.7,47.1L487.7,47.1z"/>
		<path class="st0" d="M521.1,40.2c-1.8,0-3.5-0.3-5-0.9s-2.7-1.5-3.7-2.7s-1.6-2.8-2-4.7l4.1-0.8c0.2,2,0.8,3.5,2,4.4
			s2.7,1.5,4.4,1.5s3.2-0.5,4.2-1.3s1.6-2,1.6-3.3c0-1.1-0.4-2-1.1-2.6s-1.8-1.1-3.2-1.4l-3.1-0.6c-0.8-0.2-1.7-0.4-2.6-0.7
			s-1.7-0.7-2.5-1.2s-1.4-1.2-1.9-2s-0.7-1.8-0.7-3.1c0-1.7,0.4-3,1.3-4.1s2-1.8,3.5-2.4s3-0.8,4.6-0.8c1.8,0,3.4,0.3,4.7,0.8
			s2.4,1.4,3.3,2.4s1.4,2.3,1.7,3.8l-4.3,0.9c-0.1-1-0.4-1.8-0.8-2.5s-1-1.2-1.7-1.6s-1.7-0.6-2.9-0.6c-1.5,0-2.7,0.3-3.8,0.9
			s-1.6,1.5-1.6,2.8c0,0.7,0.2,1.3,0.5,1.8s0.9,0.9,1.6,1.2s1.6,0.6,2.7,0.8l3.1,0.7c1.3,0.3,2.5,0.7,3.6,1.2s2,1.2,2.7,2.2
			s1,2.1,1,3.7c0,1.7-0.4,3.1-1.2,4.3s-2,2.1-3.5,2.8S523.1,40.2,521.1,40.2L521.1,40.2z"/>
		<path class="st0" d="M544.4,40.2c-1.7,0-3.2-0.3-4.4-1s-2.2-1.5-2.9-2.7s-1-2.4-1-3.8c0-1.5,0.5-2.9,1.3-4.2s2.3-2.3,4.1-3.1
			s4.3-1.2,7.2-1.2h4.2l-0.4,0.4v-1.4c0-2-0.4-3.6-1.2-4.7s-2.2-1.6-4.1-1.6c-1.8,0-3.2,0.5-4.2,1.4s-1.5,2.2-1.5,3.7l-4.4-1
			c0.1-1.4,0.7-2.6,1.6-3.7s2.1-2,3.6-2.7s3.2-1,5.2-1s3.7,0.4,5,1.2s2.2,1.9,2.8,3.3s0.9,3.2,0.9,5.2V35c0,0.5,0.1,0.9,0.2,1
			s0.5,0.3,1,0.3h1.4v3.3h-2.5c-1.1,0-2-0.3-2.7-1s-1.1-1.5-1.1-2.5v-1.8h0.6c-0.2,0.7-0.6,1.3-1.1,2s-1.1,1.3-1.8,1.9
			s-1.6,1.1-2.6,1.4S545.7,40.1,544.4,40.2L544.4,40.2z M545.3,36.9c1.3,0,2.5-0.3,3.6-1s2-1.6,2.7-3s1-3.1,1-5.3v-0.2h-4
			c-2.1,0-3.7,0.3-4.9,0.8s-2,1.2-2.5,2s-0.8,1.6-0.8,2.4s0.2,1.5,0.5,2.2s0.9,1.2,1.6,1.5S544.2,36.9,545.3,36.9L545.3,36.9z"/>
		<path class="st0" d="M564.4,39.6V14.3h3.7v4.3c0.6-1.3,1.6-2.5,3-3.4s3-1.5,4.9-1.5c1.7,0,3.1,0.5,4.4,1.4s2.2,2.2,2.8,3.9
			c0.8-1.5,1.9-2.8,3.3-3.8s3-1.5,4.8-1.5c2.4,0,4.3,0.9,5.8,2.6s2.1,4.2,2.1,7.3v15.9h-3.9V24c0-1.4-0.2-2.7-0.5-3.7
			s-0.8-1.8-1.5-2.4s-1.6-0.8-2.8-0.8c-1.3,0-2.4,0.4-3.5,1.1s-1.8,1.8-2.4,3.2s-0.9,3.1-0.9,5.1v13.2h-3.9V24
			c0-1.4-0.2-2.7-0.5-3.7s-0.8-1.8-1.5-2.4s-1.6-0.8-2.7-0.8c-1.3,0-2.4,0.4-3.5,1.1s-1.8,1.8-2.4,3.2s-0.9,3.1-0.9,5.1v13.2
			L564.4,39.6L564.4,39.6z"/>
		<path class="st0" d="M616.5,40.2c-2.4,0-4.5-0.5-6.2-1.6s-3.1-2.6-4.1-4.6s-1.4-4.3-1.4-7s0.5-5,1.4-7s2.3-3.5,4-4.6
			s3.8-1.6,6.1-1.6c1.3,0,2.7,0.2,4,0.6s2.6,1.2,3.7,2.2s2,2.5,2.7,4.3s1,4.1,1,6.9h-20.5v-3.2h17.1l-1.1,1.5
			c-0.1-2.2-0.4-4-1.1-5.3s-1.5-2.3-2.5-2.9s-2.2-0.9-3.4-0.9c-1.5,0-2.8,0.4-3.8,1.2s-1.9,1.9-2.5,3.4s-0.9,3.3-0.9,5.4
			c0,3.2,0.6,5.6,1.9,7.3s3.1,2.6,5.5,2.6c1.7,0,3.1-0.4,4.3-1.3s2-2.1,2.6-3.7l3.9,1.3c-0.6,1.5-1.4,2.7-2.4,3.8s-2.2,1.8-3.6,2.4
			S618.3,40.2,616.5,40.2L616.5,40.2z"/>
		<path class="st0" d="M646,48.7V14.3h3.7v5.3l-0.1-0.4c0.7-1.8,1.8-3.2,3.4-4.1s3.3-1.4,5.1-1.4c2.1,0,3.9,0.5,5.4,1.6
			s2.8,2.6,3.7,4.6s1.3,4.3,1.3,7s-0.4,5-1.3,7s-2.1,3.5-3.7,4.6s-3.4,1.6-5.4,1.6c-1.7,0-3.3-0.4-4.9-1.2s-2.8-2.2-3.7-4.2l0.3-0.2
			v14.2L646,48.7L646,48.7z M657,36.9c2.1,0,3.8-0.9,5.2-2.6s2-4.2,2-7.4s-0.7-5.6-2-7.3s-3-2.6-5.2-2.6c-1.3,0-2.5,0.3-3.6,1
			s-2,1.8-2.6,3.2s-1,3.3-1,5.6c0,3.4,0.7,5.9,2.1,7.5S655,36.9,657,36.9L657,36.9z"/>
		<path class="st0" d="M674.4,39.6V4.4h3.9v15.8l-0.4-1c0.7-1.6,1.7-2.9,3.2-3.9s3.2-1.6,5.4-1.6c1.8,0,3.3,0.4,4.6,1.2
			s2.3,1.9,3,3.4s1,3.2,1,5.3v15.9h-3.9V24c0-2.1-0.4-3.8-1.2-5.1s-2.2-1.9-4.3-1.9c-2.2,0-4,0.8-5.3,2.3s-2,3.9-2,7v13.2
			L674.4,39.6L674.4,39.6z"/>
		<path class="st0" d="M708.8,40.2c-1.7,0-3.2-0.3-4.4-1s-2.2-1.5-2.9-2.7s-1-2.4-1-3.8c0-1.5,0.5-2.9,1.3-4.2s2.3-2.3,4.1-3.1
			s4.3-1.2,7.2-1.2h4.2l-0.4,0.4v-1.4c0-2-0.4-3.6-1.2-4.7s-2.2-1.6-4.1-1.6c-1.8,0-3.2,0.5-4.2,1.4s-1.5,2.2-1.5,3.7l-4.4-1
			c0.1-1.4,0.7-2.6,1.6-3.7s2.1-2,3.6-2.7s3.2-1,5.2-1s3.7,0.4,5,1.2s2.2,1.9,2.8,3.3s0.9,3.2,0.9,5.2V35c0,0.5,0.1,0.9,0.2,1
			s0.5,0.3,1,0.3h1.4v3.3h-2.5c-1.1,0-2-0.3-2.7-1s-1.1-1.5-1.1-2.5v-1.8h0.6c-0.2,0.7-0.6,1.3-1.1,2s-1.1,1.3-1.8,1.9
			s-1.6,1.1-2.6,1.4S710.1,40.1,708.8,40.2L708.8,40.2z M709.7,36.9c1.3,0,2.5-0.3,3.6-1s2-1.6,2.7-3s1-3.1,1-5.3v-0.2h-4
			c-2.1,0-3.7,0.3-4.9,0.8s-2,1.2-2.5,2s-0.8,1.6-0.8,2.4s0.2,1.5,0.5,2.2s0.9,1.2,1.6,1.5S708.7,36.9,709.7,36.9L709.7,36.9z"/>
		<path class="st0" d="M737.5,40.2c-1.8,0-3.5-0.3-5-0.9s-2.7-1.5-3.7-2.7s-1.6-2.8-2-4.7l4.1-0.8c0.2,2,0.8,3.5,2,4.4
			s2.7,1.5,4.4,1.5s3.2-0.5,4.2-1.3s1.6-2,1.6-3.3c0-1.1-0.4-2-1.1-2.6s-1.8-1.1-3.2-1.4l-3.1-0.6c-0.8-0.2-1.7-0.4-2.6-0.7
			s-1.7-0.7-2.5-1.2s-1.4-1.2-1.9-2s-0.7-1.8-0.7-3.1c0-1.7,0.4-3,1.3-4.1s2-1.8,3.5-2.4s3-0.8,4.6-0.8c1.8,0,3.4,0.3,4.7,0.8
			s2.4,1.4,3.3,2.4s1.4,2.3,1.7,3.8l-4.3,0.9c-0.1-1-0.4-1.8-0.8-2.5s-1-1.2-1.7-1.6s-1.7-0.6-2.9-0.6c-1.5,0-2.7,0.3-3.8,0.9
			s-1.6,1.5-1.6,2.8c0,0.7,0.2,1.3,0.5,1.8s0.9,0.9,1.6,1.2s1.6,0.6,2.7,0.8l3.1,0.7c1.3,0.3,2.5,0.7,3.6,1.2s2,1.2,2.7,2.2
			s1,2.1,1,3.7c0,1.7-0.4,3.1-1.2,4.3s-2,2.1-3.5,2.8S739.4,40.2,737.5,40.2L737.5,40.2z"/>
		<path class="st0" d="M764,40.2c-2.4,0-4.5-0.5-6.2-1.6s-3.1-2.6-4.1-4.6s-1.4-4.3-1.4-7s0.5-5,1.4-7s2.3-3.5,4-4.6
			s3.8-1.6,6.1-1.6c1.3,0,2.7,0.2,4,0.6s2.6,1.2,3.7,2.2s2,2.5,2.7,4.3s1,4.1,1,6.9h-20.5v-3.2h17.1l-1.1,1.5
			c-0.1-2.2-0.4-4-1.1-5.3s-1.5-2.3-2.5-2.9S765,17,763.8,17c-1.5,0-2.8,0.4-3.8,1.2s-1.9,1.9-2.5,3.4s-0.9,3.3-0.9,5.4
			c0,3.2,0.6,5.6,1.9,7.3s3.1,2.6,5.5,2.6c1.7,0,3.1-0.4,4.3-1.3s2-2.1,2.6-3.7l3.9,1.3c-0.6,1.5-1.4,2.7-2.4,3.8s-2.2,1.8-3.6,2.4
			S765.8,40.2,764,40.2L764,40.2z"/>
		<path class="st0" d="M780.7,47.1l-1.4-2l0.8-0.6c0.9-0.6,1.5-1.3,2-1.9s0.6-1.4,0.6-2.2v-1.1l0.6,0.8c-1,0-1.8-0.3-2.5-1
			s-1-1.5-1-2.5s0.3-1.9,1-2.5s1.5-1,2.5-1c0.6,0,1.1,0.1,1.7,0.4s1,0.8,1.4,1.4s0.6,1.5,0.6,2.6c0,1.5-0.4,3-1.2,4.5
			s-2.1,2.9-3.8,4.1L780.7,47.1L780.7,47.1z"/>
		<path class="st0" d="M816,40.2c-2.4,0-4.5-0.6-6.3-1.7s-3.2-2.7-4.2-4.7s-1.5-4.3-1.5-6.9s0.5-4.9,1.5-6.9s2.4-3.5,4.2-4.6
			s3.9-1.7,6.3-1.7s4.5,0.6,6.3,1.7s3.2,2.7,4.2,4.6s1.5,4.3,1.5,6.9s-0.5,4.9-1.5,6.9s-2.4,3.5-4.2,4.7S818.4,40.2,816,40.2z
			 M816,36.9c2.4,0,4.3-0.9,5.7-2.7s2.1-4.2,2.1-7.3s-0.7-5.5-2.1-7.3S818.4,17,816,17s-4.3,0.9-5.7,2.7s-2.1,4.2-2.1,7.3
			s0.7,5.5,2.1,7.3S813.6,36.9,816,36.9z"/>
		<path class="st0" d="M834,39.6V14.3h3.7V20l-0.2-1c0.7-1.5,1.7-2.7,3.2-3.7s3.2-1.5,5.3-1.5c1.8,0,3.3,0.4,4.6,1.2s2.3,1.9,3,3.4
			s1,3.2,1,5.3v15.9h-3.9V24c0-2.1-0.4-3.8-1.3-5s-2.2-1.9-4.2-1.9c-2.1,0-3.9,0.8-5.3,2.4s-2.1,3.9-2.1,7v13.2L834,39.6L834,39.6z"
			/>
		<path class="st0" d="M872.1,40.2c-2.4,0-4.5-0.5-6.2-1.6s-3.1-2.6-4.1-4.6s-1.4-4.3-1.4-7s0.5-5,1.4-7s2.3-3.5,4-4.6
			s3.8-1.6,6.1-1.6c1.3,0,2.7,0.2,4,0.6s2.6,1.2,3.7,2.2s2,2.5,2.7,4.3s1,4.1,1,6.9h-20.5v-3.2H880l-1.1,1.5c-0.1-2.2-0.4-4-1.1-5.3
			s-1.5-2.3-2.5-2.9s-2.2-0.9-3.4-0.9c-1.5,0-2.8,0.4-3.8,1.2s-1.9,1.9-2.5,3.4s-0.9,3.3-0.9,5.4c0,3.2,0.6,5.6,1.9,7.3
			s3.1,2.6,5.5,2.6c1.7,0,3.1-0.4,4.3-1.3s2-2.1,2.6-3.7l3.9,1.3c-0.6,1.5-1.4,2.7-2.4,3.8s-2.2,1.8-3.6,2.4S873.8,40.2,872.1,40.2
			L872.1,40.2z"/>
		<path class="st0" d="M908,40.2c-1.7,0-3.2-0.3-4.4-1s-2.2-1.5-2.9-2.7s-1-2.4-1-3.8c0-1.5,0.5-2.9,1.3-4.2s2.3-2.3,4.1-3.1
			s4.3-1.2,7.2-1.2h4.2l-0.4,0.4v-1.4c0-2-0.4-3.6-1.2-4.7s-2.2-1.6-4.1-1.6c-1.8,0-3.2,0.5-4.2,1.4s-1.5,2.2-1.5,3.7l-4.4-1
			c0.1-1.4,0.7-2.6,1.6-3.7s2.1-2,3.6-2.7s3.2-1,5.2-1s3.7,0.4,5,1.2s2.2,1.9,2.8,3.3s0.9,3.2,0.9,5.2V35c0,0.5,0.1,0.9,0.2,1
			s0.5,0.3,1,0.3h1.4v3.3H920c-1.1,0-2-0.3-2.7-1s-1.1-1.5-1.1-2.5v-1.8h0.6c-0.2,0.7-0.6,1.3-1.1,2s-1.1,1.3-1.8,1.9
			s-1.6,1.1-2.6,1.4S909.3,40.1,908,40.2L908,40.2z M908.9,36.9c1.3,0,2.5-0.3,3.6-1s2-1.6,2.7-3s1-3.1,1-5.3v-0.2h-4
			c-2.1,0-3.7,0.3-4.9,0.8s-2,1.2-2.5,2s-0.8,1.6-0.8,2.4s0.2,1.5,0.5,2.2s0.9,1.2,1.6,1.5S907.9,36.9,908.9,36.9L908.9,36.9z"/>
		<path class="st0" d="M932.5,39.6c-1,0-1.9-0.3-2.6-1s-1.1-1.5-1.1-2.5V17.6h-4.1v-3.3h4.1V9l3.9-0.8v6.1h5v3.3h-5V35
			c0,0.5,0.1,0.9,0.2,1s0.5,0.3,1,0.3h3.9v3.3L932.5,39.6L932.5,39.6z"/>
		<path class="st0" d="M955.6,39.6V4.4h3.9v15.8l-0.4-1c0.7-1.6,1.7-2.9,3.2-3.9s3.2-1.6,5.4-1.6c1.8,0,3.3,0.4,4.6,1.2
			s2.3,1.9,3,3.4s1,3.2,1,5.3v15.9h-3.9V24c0-2.1-0.4-3.8-1.2-5.1S969,17,966.9,17c-2.2,0-4,0.8-5.3,2.3s-2,3.9-2,7v13.2L955.6,39.6
			L955.6,39.6z"/>
		<path class="st0" d="M990.1,40.2c-1.7,0-3.2-0.3-4.4-1s-2.2-1.5-2.9-2.7s-1-2.4-1-3.8c0-1.5,0.5-2.9,1.3-4.2s2.3-2.3,4.1-3.1
			s4.3-1.2,7.2-1.2h4.2l-0.4,0.4v-1.4c0-2-0.4-3.6-1.2-4.7S994.9,17,993,17c-1.8,0-3.2,0.5-4.2,1.4s-1.5,2.2-1.5,3.7l-4.4-1
			c0.1-1.4,0.7-2.6,1.6-3.7s2.1-2,3.6-2.7s3.2-1,5.2-1s3.7,0.4,5,1.2s2.2,1.9,2.8,3.3s0.9,3.2,0.9,5.2V35c0,0.5,0.1,0.9,0.2,1
			s0.5,0.3,1,0.3h1.4v3.3h-2.5c-1.1,0-2-0.3-2.7-1s-1.1-1.5-1.1-2.5v-1.8h0.6c-0.2,0.7-0.6,1.3-1.1,2s-1.1,1.3-1.8,1.9
			s-1.6,1.1-2.6,1.4S991.4,40.1,990.1,40.2L990.1,40.2z M991,36.9c1.3,0,2.5-0.3,3.6-1s2-1.6,2.7-3s1-3.1,1-5.3v-0.2h-4
			c-2.1,0-3.7,0.3-4.9,0.8s-2,1.2-2.5,2s-0.8,1.6-0.8,2.4s0.2,1.5,0.5,2.2s0.9,1.2,1.6,1.5S989.9,36.9,991,36.9L991,36.9z"/>
		<path class="st0" d="M1013.8,39.6c-1,0-1.9-0.3-2.6-1s-1.1-1.5-1.1-2.5V4.4h3.9V35c0,0.5,0.1,0.9,0.2,1s0.5,0.3,1,0.3h2.5v3.3
			L1013.8,39.6L1013.8,39.6z"/>
		<path class="st0" d="M1020.1,17.6v-3.3h13.4v3.3H1020.1z M1023.9,39.6V9.7c0-1.9,0.4-3.2,1.3-4s2.4-1.2,4.5-1.2h3.2v3.3h-3.7
			c-0.5,0-0.8,0.1-1,0.3c-0.2,0.2-0.3,0.5-0.3,1v30.6L1023.9,39.6L1023.9,39.6z"/>
		<path class="st0" d="M1057.7,40.2c-1.7,0-3.2-0.3-4.4-1s-2.2-1.5-2.9-2.7s-1-2.4-1-3.8c0-1.5,0.4-2.9,1.3-4.2s2.3-2.3,4.1-3.1
			s4.3-1.2,7.2-1.2h4.2l-0.4,0.4v-1.4c0-2-0.4-3.6-1.2-4.7s-2.2-1.6-4.1-1.6c-1.8,0-3.2,0.5-4.2,1.4s-1.5,2.2-1.6,3.7l-4.4-1
			c0.1-1.4,0.7-2.6,1.6-3.7s2.1-2,3.6-2.7s3.2-1,5.2-1s3.7,0.4,5,1.2s2.2,1.9,2.8,3.3s0.9,3.2,0.9,5.2V35c0,0.5,0.1,0.9,0.2,1
			s0.5,0.3,0.9,0.3h1.4v3.3h-2.5c-1.1,0-1.9-0.3-2.7-1s-1.1-1.5-1.1-2.5v-1.8h0.6c-0.2,0.7-0.6,1.3-1.1,2s-1.1,1.3-1.8,1.9
			s-1.6,1.1-2.6,1.4S1058.9,40.1,1057.7,40.2L1057.7,40.2z M1058.6,36.9c1.3,0,2.5-0.3,3.6-1s2-1.6,2.7-3s1-3.1,1-5.3v-0.2h-4
			c-2.1,0-3.7,0.3-4.9,0.8s-2,1.2-2.5,2s-0.8,1.6-0.8,2.4s0.2,1.5,0.5,2.2s0.9,1.2,1.6,1.5S1057.5,36.9,1058.6,36.9L1058.6,36.9z"/>
		<path class="st0" d="M1077.6,39.6V14.3h3.7v4.3c0.6-1.3,1.6-2.5,2.9-3.4s3-1.5,4.9-1.5c1.7,0,3.1,0.5,4.4,1.4s2.2,2.2,2.8,3.9
			c0.8-1.5,1.9-2.8,3.3-3.8s3-1.5,4.8-1.5c2.4,0,4.3,0.9,5.8,2.6s2.1,4.2,2.1,7.3v15.9h-3.9V24c0-1.4-0.2-2.7-0.4-3.7
			s-0.8-1.8-1.5-2.4s-1.6-0.8-2.8-0.8c-1.3,0-2.4,0.4-3.5,1.1s-1.8,1.8-2.4,3.2s-0.9,3.1-0.9,5.1v13.2h-3.9V24
			c0-1.4-0.2-2.7-0.4-3.7s-0.8-1.8-1.4-2.4s-1.6-0.8-2.7-0.8c-1.3,0-2.4,0.4-3.5,1.1s-1.8,1.8-2.4,3.2s-0.9,3.1-0.9,5.1v13.2
			L1077.6,39.6L1077.6,39.6z"/>
		<path class="st0" d="M1119.5,48.7V14.3h3.7v5.3l-0.1-0.4c0.7-1.8,1.8-3.2,3.4-4.1s3.3-1.4,5.1-1.4c2.1,0,3.9,0.5,5.4,1.6
			s2.8,2.6,3.7,4.6s1.3,4.3,1.3,7s-0.4,5-1.3,7s-2.1,3.5-3.7,4.6s-3.4,1.6-5.4,1.6c-1.7,0-3.3-0.4-4.9-1.2s-2.8-2.2-3.7-4.2l0.3-0.2
			v14.2L1119.5,48.7L1119.5,48.7z M1130.5,36.9c2.1,0,3.8-0.9,5.2-2.6s2-4.2,2-7.4s-0.7-5.6-1.9-7.3s-3-2.6-5.2-2.6
			c-1.3,0-2.5,0.3-3.6,1s-2,1.8-2.6,3.2s-1,3.3-1,5.6c0,3.4,0.7,5.9,2.1,7.5S1128.6,36.9,1130.5,36.9L1130.5,36.9z"/>
		<path class="st0" d="M1151.6,39.6c-1,0-1.9-0.3-2.6-1s-1.1-1.5-1.1-2.5V4.4h3.9V35c0,0.5,0.1,0.9,0.2,1s0.5,0.3,0.9,0.3h2.5v3.3
			L1151.6,39.6L1151.6,39.6z"/>
		<path class="st0" d="M1162.6,10.1c-0.9,0-1.7-0.3-2.3-1s-1-1.4-1-2.3s0.3-1.7,1-2.3s1.4-1,2.3-1s1.7,0.3,2.3,1s0.9,1.4,0.9,2.3
			s-0.3,1.7-0.9,2.3S1163.5,10.1,1162.6,10.1z M1160.6,39.6V14.3h3.9v25.3H1160.6z"/>
		<path class="st0" d="M1177.8,39.6c-1,0-1.9-0.3-2.6-1s-1.1-1.5-1.1-2.5V17.6h-4.1v-3.3h4.1V9l3.9-0.8v6.1h5v3.3h-5V35
			c0,0.5,0.1,0.9,0.2,1s0.5,0.3,0.9,0.3h3.9v3.3L1177.8,39.6L1177.8,39.6z"/>
		<path class="st0" d="M1196.8,40.2c-1.8,0-3.3-0.4-4.6-1.2s-2.3-1.9-3-3.4s-1.1-3.3-1.1-5.3V14.3h3.9v15.6c0,2.1,0.4,3.7,1.2,5
			s2.2,1.9,4.2,1.9c1.5,0,2.8-0.4,3.9-1.2s2-2,2.6-3.5s0.9-3.5,0.9-5.9V14.3h3.9v25.3h-3.7v-6l0.2,1c-0.7,1.6-1.7,2.9-3.2,3.9
			S1198.9,40.1,1196.8,40.2L1196.8,40.2z"/>
		<path class="st0" d="M1225.1,40.2c-2.1,0-3.9-0.5-5.4-1.6s-2.8-2.6-3.7-4.6s-1.3-4.3-1.3-7s0.4-5,1.3-7s2.1-3.5,3.7-4.6
			s3.4-1.6,5.4-1.6c1.7,0,3.3,0.4,4.9,1.2s2.8,2.2,3.7,4.2l-0.4,0.2V4.4h3.9v35.2h-3.7v-5.3l0.1,0.4c-0.7,1.8-1.8,3.2-3.4,4.1
			S1226.9,40.2,1225.1,40.2L1225.1,40.2z M1226.1,36.9c1.3,0,2.5-0.3,3.6-1s2-1.8,2.6-3.2s1-3.3,1-5.6c0-3.4-0.7-5.9-2.1-7.6
			s-3.1-2.5-5.1-2.5c-2.1,0-3.8,0.9-5.2,2.6s-2,4.2-2,7.4s0.7,5.5,1.9,7.3S1223.9,36.9,1226.1,36.9L1226.1,36.9z"/>
		<path class="st0" d="M1255,40.2c-2.4,0-4.5-0.5-6.2-1.6s-3.1-2.6-4.1-4.6s-1.4-4.3-1.4-7s0.5-5,1.4-7s2.3-3.5,4-4.6
			s3.8-1.6,6.1-1.6c1.3,0,2.7,0.2,4,0.6s2.6,1.2,3.7,2.2s2,2.5,2.7,4.3s1,4.1,1,6.9h-20.5v-3.2h17.1l-1.1,1.5
			c-0.1-2.2-0.4-4-1.1-5.3s-1.5-2.3-2.5-2.9s-2.2-0.9-3.4-0.9c-1.5,0-2.8,0.4-3.8,1.2s-1.9,1.9-2.5,3.4s-0.9,3.3-0.9,5.4
			c0,3.2,0.6,5.6,1.9,7.3s3.1,2.6,5.5,2.6c1.7,0,3.1-0.4,4.3-1.3s2-2.1,2.6-3.7l3.9,1.3c-0.6,1.5-1.4,2.7-2.4,3.8s-2.2,1.8-3.6,2.4
			S1256.7,40.2,1255,40.2L1255,40.2z"/>
		<path class="st0" d="M1290.1,47.5c-2.4-3.1-4.3-6.5-5.5-10.1s-1.9-7.5-1.9-11.4s0.6-7.7,1.9-11.4s3.1-7.1,5.5-10.2h4.2
			c-2.7,3.6-4.7,7.1-5.9,10.5s-1.9,7.1-1.9,11.1s0.6,7.7,1.8,11.1s3.2,6.9,6,10.4H1290.1L1290.1,47.5z"/>
		<path class="st0" d="M1306,40.2c-2.4,0-4.4-0.5-6.2-1.6s-3.1-2.6-4-4.6s-1.4-4.3-1.4-7s0.5-5,1.4-7s2.3-3.5,4-4.6s3.8-1.6,6.2-1.6
			c1.8,0,3.4,0.3,4.9,1s2.6,1.6,3.6,2.9s1.7,2.7,2.2,4.5l-4,1c-0.4-2-1.2-3.5-2.4-4.5s-2.6-1.6-4.3-1.6c-2.3,0-4.1,0.9-5.4,2.6
			s-1.9,4.2-1.9,7.4s0.6,5.6,1.9,7.4s3.1,2.6,5.4,2.6c1.7,0,3.2-0.5,4.3-1.5s1.9-2.5,2.4-4.4l4,1.1c-0.4,1.3-0.9,2.4-1.6,3.4
			s-1.4,1.8-2.3,2.5s-1.9,1.2-3.1,1.6S1307.3,40.1,1306,40.2L1306,40.2z"/>
		<path class="st0" d="M1332.9,40.2c-2.4,0-4.5-0.6-6.3-1.7s-3.2-2.7-4.2-4.7s-1.5-4.3-1.5-6.9s0.5-4.9,1.5-6.9s2.4-3.5,4.2-4.6
			s3.9-1.7,6.3-1.7s4.5,0.6,6.3,1.7s3.2,2.7,4.2,4.6s1.5,4.3,1.5,6.9s-0.5,4.9-1.5,6.9s-2.4,3.5-4.2,4.7S1335.2,40.2,1332.9,40.2z
			 M1332.9,36.9c2.4,0,4.3-0.9,5.7-2.7s2.1-4.2,2.1-7.3s-0.7-5.5-2.1-7.3s-3.3-2.7-5.7-2.7s-4.3,0.9-5.7,2.7s-2.1,4.2-2.1,7.3
			s0.7,5.5,2.1,7.3S1330.5,36.9,1332.9,36.9z"/>
		<path class="st0" d="M1350.8,39.6V14.3h3.7V20l-0.2-1c0.7-1.5,1.7-2.7,3.2-3.7s3.2-1.5,5.3-1.5c1.8,0,3.3,0.4,4.6,1.2
			s2.3,1.9,3,3.4s1.1,3.2,1.1,5.3v15.9h-3.9V24c0-2.1-0.4-3.8-1.3-5s-2.2-1.9-4.2-1.9c-2.1,0-3.9,0.8-5.3,2.4s-2.1,3.9-2.1,7v13.2
			L1350.8,39.6L1350.8,39.6z"/>
		<path class="st0" d="M1387.3,40.2c-1.8,0-3.5-0.3-5-0.9s-2.7-1.5-3.7-2.7s-1.6-2.8-2-4.7l4.1-0.8c0.2,2,0.8,3.5,2,4.4
			s2.7,1.5,4.4,1.5s3.2-0.5,4.2-1.3s1.6-2,1.6-3.3c0-1.1-0.4-2-1.1-2.6s-1.8-1.1-3.2-1.4l-3.1-0.6c-0.8-0.2-1.7-0.4-2.6-0.7
			s-1.7-0.7-2.5-1.2s-1.4-1.2-1.9-2s-0.7-1.8-0.7-3.1c0-1.7,0.4-3,1.3-4.1s2-1.8,3.4-2.4s3-0.8,4.6-0.8c1.8,0,3.4,0.3,4.7,0.8
			s2.4,1.4,3.3,2.4s1.4,2.3,1.7,3.8l-4.3,0.9c-0.1-1-0.4-1.8-0.8-2.5s-1-1.2-1.7-1.6s-1.7-0.6-2.9-0.6c-1.4,0-2.7,0.3-3.8,0.9
			s-1.6,1.5-1.6,2.8c0,0.7,0.2,1.3,0.5,1.8s0.9,0.9,1.6,1.2s1.6,0.6,2.7,0.8l3.1,0.7c1.3,0.3,2.5,0.7,3.6,1.2s2,1.2,2.7,2.2
			s1,2.1,1,3.7c0,1.7-0.4,3.1-1.2,4.3s-2,2.1-3.5,2.8S1389.2,40.2,1387.3,40.2L1387.3,40.2z"/>
		<path class="st0" d="M1408.3,39.6c-1,0-1.9-0.3-2.6-1s-1.1-1.5-1.1-2.5V17.6h-4.1v-3.3h4.1V9l3.9-0.8v6.1h5v3.3h-5V35
			c0,0.5,0.1,0.9,0.2,1s0.5,0.3,0.9,0.3h3.9v3.3L1408.3,39.6L1408.3,39.6z"/>
		<path class="st0" d="M1419.2,39.6V14.3h3.7v5.4l-0.1-0.6c0.8-1.8,1.9-3.1,3.4-4s3-1.4,4.6-1.4c0.4,0,0.9,0,1.3,0.1
			s0.8,0.2,1.2,0.4l-0.5,3.7c-0.9-0.3-1.7-0.4-2.6-0.4c-0.5,0-1.2,0.1-2,0.3s-1.6,0.6-2.3,1.3s-1.4,1.6-1.9,2.8s-0.8,2.9-0.8,5v12.7
			L1419.2,39.6L1419.2,39.6z"/>
		<path class="st0" d="M1445.8,40.2c-1.8,0-3.3-0.4-4.6-1.2s-2.3-1.9-3-3.4s-1.1-3.3-1.1-5.3V14.3h3.9v15.6c0,2.1,0.4,3.7,1.2,5
			s2.2,1.9,4.2,1.9c1.5,0,2.8-0.4,3.9-1.2s2-2,2.6-3.5s0.9-3.5,0.9-5.9V14.3h3.9v25.3h-3.7v-6l0.2,1c-0.7,1.6-1.7,2.9-3.2,3.9
			S1447.9,40.1,1445.8,40.2L1445.8,40.2z"/>
		<path class="st0" d="M1475.5,40.2c-2.4,0-4.4-0.5-6.2-1.6s-3.1-2.6-4-4.6s-1.4-4.3-1.4-7s0.5-5,1.4-7s2.3-3.5,4-4.6
			s3.8-1.6,6.2-1.6c1.8,0,3.4,0.3,4.9,1s2.6,1.6,3.6,2.9s1.7,2.7,2.2,4.5l-4,1c-0.4-2-1.2-3.5-2.4-4.5s-2.6-1.6-4.3-1.6
			c-2.3,0-4.1,0.9-5.4,2.6s-1.9,4.2-1.9,7.4s0.6,5.6,1.9,7.4s3.1,2.6,5.4,2.6c1.7,0,3.2-0.5,4.3-1.5s1.9-2.5,2.4-4.4l4,1.1
			c-0.4,1.3-0.9,2.4-1.6,3.4s-1.4,1.8-2.3,2.5s-1.9,1.2-3.1,1.6S1476.8,40.1,1475.5,40.2L1475.5,40.2z"/>
		<path class="st0" d="M1496.8,39.6c-1,0-1.9-0.3-2.6-1s-1.1-1.5-1.1-2.5V17.6h-4.1v-3.3h4.1V9l3.9-0.8v6.1h5v3.3h-5V35
			c0,0.5,0.1,0.9,0.2,1s0.5,0.3,0.9,0.3h3.9v3.3L1496.8,39.6L1496.8,39.6z"/>
		<path class="st0" d="M1509.7,10.1c-0.9,0-1.7-0.3-2.3-1s-1-1.4-1-2.3s0.3-1.7,1-2.3s1.4-1,2.3-1s1.7,0.3,2.3,1s0.9,1.4,0.9,2.3
			s-0.3,1.7-0.9,2.3S1510.6,10.1,1509.7,10.1z M1507.7,39.6V14.3h3.9v25.3H1507.7z"/>
		<path class="st0" d="M1526,39.6l-9.5-25.3h4.4l8,23.1h-0.8l8-23.1h4.4l-9.5,25.3H1526L1526,39.6z"/>
		<path class="st0" d="M1555,40.2c-2.4,0-4.5-0.5-6.2-1.6s-3.1-2.6-4.1-4.6s-1.4-4.3-1.4-7s0.5-5,1.4-7s2.3-3.5,4-4.6
			s3.8-1.6,6.1-1.6c1.3,0,2.7,0.2,4,0.6s2.6,1.2,3.7,2.2s2,2.5,2.7,4.3s1,4.1,1,6.9h-20.5v-3.2h17.1l-1.1,1.5
			c-0.1-2.2-0.4-4-1.1-5.3s-1.5-2.3-2.5-2.9s-2.2-0.9-3.4-0.9c-1.5,0-2.8,0.4-3.8,1.2s-1.9,1.9-2.5,3.4s-0.9,3.3-0.9,5.4
			c0,3.2,0.6,5.6,1.9,7.3s3.1,2.6,5.5,2.6c1.7,0,3.1-0.4,4.3-1.3s2-2.1,2.6-3.7l3.9,1.3c-0.6,1.5-1.4,2.7-2.4,3.8s-2.2,1.8-3.6,2.4
			S1556.7,40.2,1555,40.2L1555,40.2z"/>
		<path class="st0" d="M1566.9,47.5c2.8-3.5,4.8-7,6-10.4s1.8-7.1,1.8-11.1s-0.6-7.6-1.9-11.1s-3.2-6.9-5.9-10.5h4.2
			c2.4,3.1,4.2,6.5,5.5,10.2s1.9,7.4,1.9,11.4s-0.6,7.8-1.9,11.4s-3.1,7-5.5,10.1L1566.9,47.5L1566.9,47.5z"/>
	</g>
</g>
<g>
	<g>
		<path class="st0" d="M1.5,300.2v-2.7h11.8v2.7H1.5z"/>
		<path class="st0" d="M19.9,309.9v-20.2c-0.9,0.8-1.8,1.5-2.6,2s-1.7,1-2.7,1.4v-3c0.5-0.2,1.1-0.5,1.6-0.9s1.2-0.9,2-1.6
			s1.6-1.7,2.5-3H23v25.3C23,309.9,19.9,309.9,19.9,309.9z"/>
		<path class="st0" d="M30.9,310.3c-0.8,0-1.4-0.3-1.9-0.8s-0.8-1.1-0.8-1.9s0.3-1.4,0.8-1.9s1.1-0.8,1.9-0.8s1.4,0.3,1.9,0.8
			s0.8,1.1,0.8,1.9s-0.3,1.4-0.8,1.9S31.6,310.3,30.9,310.3z"/>
		<path class="st0" d="M45.8,310.3c-2.9,0-5.2-1.1-6.8-3.4s-2.4-5.5-2.4-9.6s0.8-7.4,2.4-9.6s3.9-3.4,6.8-3.4s5.2,1.1,6.8,3.4
			s2.4,5.5,2.4,9.6s-0.8,7.4-2.4,9.6S48.8,310.3,45.8,310.3z M45.8,307.8c2,0,3.4-0.9,4.4-2.7s1.5-4.4,1.5-7.9s-0.5-6.1-1.5-7.9
			s-2.5-2.7-4.4-2.7s-3.4,0.9-4.4,2.7s-1.5,4.4-1.5,7.9s0.5,6.1,1.5,7.9S43.9,307.8,45.8,307.8z"/>
	</g>
</g>
<g>
	<g>
		<path class="st0" d="M19.9,93.9V73.7c-0.9,0.8-1.8,1.5-2.6,2s-1.7,1-2.7,1.4v-3c0.5-0.2,1.1-0.6,1.6-0.9s1.2-0.9,2-1.6
			s1.6-1.7,2.5-3H23v25.3C23,93.9,19.9,93.9,19.9,93.9z"/>
		<path class="st0" d="M30.9,94.3c-0.8,0-1.4-0.3-1.9-0.8s-0.8-1.2-0.8-1.9s0.3-1.4,0.8-1.9s1.1-0.8,1.9-0.8s1.4,0.3,1.9,0.8
			s0.8,1.2,0.8,1.9s-0.3,1.4-0.8,1.9S31.6,94.3,30.9,94.3z"/>
		<path class="st0" d="M45.8,94.3c-2.9,0-5.2-1.2-6.8-3.4s-2.4-5.5-2.4-9.6s0.8-7.3,2.4-9.6s3.9-3.4,6.8-3.4s5.2,1.2,6.8,3.4
			s2.4,5.5,2.4,9.6s-0.8,7.3-2.4,9.6S48.8,94.3,45.8,94.3z M45.8,91.8c2,0,3.4-0.9,4.4-2.7s1.5-4.4,1.5-7.9s-0.5-6.1-1.5-7.9
			s-2.5-2.7-4.4-2.7s-3.4,0.9-4.4,2.7s-1.5,4.4-1.5,7.9s0.5,6.1,1.5,7.9S43.9,91.8,45.8,91.8z"/>
	</g>
</g>
<g>
	<g>
		<path class="st0" d="M16,202.3c-2.9,0-5.2-1.1-6.8-3.4s-2.4-5.5-2.4-9.6s0.8-7.4,2.4-9.6s3.9-3.4,6.8-3.4s5.2,1.1,6.8,3.4
			s2.4,5.5,2.4,9.6s-0.8,7.4-2.4,9.6S18.9,202.3,16,202.3z M16,199.8c1.9,0,3.4-0.9,4.4-2.7s1.5-4.4,1.5-7.9s-0.5-6.1-1.5-7.9
			s-2.5-2.7-4.4-2.7s-3.4,0.9-4.4,2.7s-1.5,4.4-1.5,7.9s0.5,6.1,1.5,7.9S14,199.8,16,199.8z"/>
		<path class="st0" d="M30.9,202.3c-0.8,0-1.4-0.3-1.9-0.8s-0.8-1.1-0.8-1.9s0.3-1.4,0.8-1.9s1.1-0.8,1.9-0.8s1.4,0.3,1.9,0.8
			s0.8,1.1,0.8,1.9s-0.3,1.4-0.8,1.9S31.6,202.3,30.9,202.3z"/>
		<path class="st0" d="M45.8,202.3c-2.9,0-5.2-1.1-6.8-3.4s-2.4-5.5-2.4-9.6s0.8-7.4,2.4-9.6s3.9-3.4,6.8-3.4s5.2,1.1,6.8,3.4
			s2.4,5.5,2.4,9.6s-0.8,7.4-2.4,9.6S48.8,202.3,45.8,202.3z M45.8,199.8c2,0,3.4-0.9,4.4-2.7s1.5-4.4,1.5-7.9s-0.5-6.1-1.5-7.9
			s-2.5-2.7-4.4-2.7s-3.4,0.9-4.4,2.7s-1.5,4.4-1.5,7.9s0.5,6.1,1.5,7.9S43.9,199.8,45.8,199.8z"/>
	</g>
</g>
<g>
	<g>
		<path class="st0" d="M1812.7,223.2c-0.8,0-1.4-0.2-2-0.8s-0.8-1.1-0.8-1.9v-13.9h-3.1v-2.5h3.1v-4l2.9-0.6v4.6h3.8v2.5h-3.8v13.1
			c0,0.4,0.1,0.6,0.2,0.8s0.3,0.2,0.7,0.2h2.9v2.5L1812.7,223.2L1812.7,223.2z"/>
	</g>
</g>
<line class="st1" x1="70.8" y1="298.8" x2="70.8" y2="82.8"/>
<line class="st1" x1="70.8" y1="298.8" x2="99.4" y2="298.8"/>
<line class="st1" x1="70.8" y1="136.8" x2="99.4" y2="136.8"/>
<line class="st1" x1="70.8" y1="82.8" x2="99.4" y2="82.8"/>
<line class="st1" x1="70.8" y1="244.8" x2="99.4" y2="244.8"/>
<g class="st2">
	<g>
		<line class="st3" x1="151.4" y1="82.8" x2="151.4" y2="88.8"/>
		<line class="st4" x1="151.4" y1="100.8" x2="151.4" y2="286.8"/>
		<line class="st3" x1="151.4" y1="292.8" x2="151.4" y2="298.8"/>
	</g>
</g>
<g class="st2">
	<g>
		<line class="st3" x1="232.2" y1="82.8" x2="232.2" y2="88.8"/>
		<line class="st4" x1="232.2" y1="100.8" x2="232.2" y2="286.8"/>
		<line class="st3" x1="232.2" y1="292.8" x2="232.2" y2="298.8"/>
	</g>
</g>
<g class="st2">
	<g>
		<line class="st3" x1="313.1" y1="82.8" x2="313.1" y2="88.8"/>
		<line class="st4" x1="313.1" y1="100.8" x2="313.1" y2="286.8"/>
		<line class="st3" x1="313.1" y1="292.8" x2="313.1" y2="298.8"/>
	</g>
</g>
<g class="st2">
	<g>
		<line class="st3" x1="393.9" y1="82.8" x2="393.9" y2="88.8"/>
		<line class="st4" x1="393.9" y1="100.8" x2="393.9" y2="286.8"/>
		<line class="st3" x1="393.9" y1="292.8" x2="393.9" y2="298.8"/>
	</g>
</g>
<g class="st2">
	<g>
		<line class="st3" x1="474.8" y1="82.8" x2="474.8" y2="88.8"/>
		<line class="st4" x1="474.8" y1="100.8" x2="474.8" y2="286.8"/>
		<line class="st3" x1="474.8" y1="292.8" x2="474.8" y2="298.8"/>
	</g>
</g>
<g class="st2">
	<g>
		<line class="st3" x1="555.6" y1="82.8" x2="555.6" y2="88.8"/>
		<line class="st4" x1="555.6" y1="100.8" x2="555.6" y2="286.8"/>
		<line class="st3" x1="555.6" y1="292.8" x2="555.6" y2="298.8"/>
	</g>
</g>
<g class="st2">
	<g>
		<line class="st3" x1="636.4" y1="82.8" x2="636.4" y2="88.8"/>
		<line class="st4" x1="636.4" y1="100.8" x2="636.4" y2="286.8"/>
		<line class="st3" x1="636.4" y1="292.8" x2="636.4" y2="298.8"/>
	</g>
</g>
<g class="st2">
	<g>
		<line class="st3" x1="717.3" y1="82.8" x2="717.3" y2="88.8"/>
		<line class="st4" x1="717.3" y1="100.8" x2="717.3" y2="286.8"/>
		<line class="st3" x1="717.3" y1="292.8" x2="717.3" y2="298.8"/>
	</g>
</g>
<g class="st2">
	<g>
		<line class="st3" x1="798.1" y1="82.8" x2="798.1" y2="88.8"/>
		<line class="st4" x1="798.1" y1="100.8" x2="798.1" y2="286.8"/>
		<line class="st3" x1="798.1" y1="292.8" x2="798.1" y2="298.8"/>
	</g>
</g>
<g class="st2">
	<g>
		<line class="st3" x1="878.9" y1="82.8" x2="878.9" y2="88.8"/>
		<line class="st4" x1="878.9" y1="100.8" x2="878.9" y2="286.8"/>
		<line class="st3" x1="878.9" y1="292.8" x2="878.9" y2="298.8"/>
	</g>
</g>
<g class="st2">
	<g>
		<line class="st3" x1="959.8" y1="82.8" x2="959.8" y2="88.8"/>
		<line class="st4" x1="959.8" y1="100.8" x2="959.8" y2="286.8"/>
		<line class="st3" x1="959.8" y1="292.8" x2="959.8" y2="298.8"/>
	</g>
</g>
<g class="st2">
	<g>
		<line class="st3" x1="1040.6" y1="82.8" x2="1040.6" y2="88.8"/>
		<line class="st4" x1="1040.6" y1="100.8" x2="1040.6" y2="286.8"/>
		<line class="st3" x1="1040.6" y1="292.8" x2="1040.6" y2="298.8"/>
	</g>
</g>
<g class="st2">
	<g>
		<line class="st3" x1="1121.4" y1="82.8" x2="1121.4" y2="88.8"/>
		<line class="st4" x1="1121.4" y1="100.8" x2="1121.4" y2="286.8"/>
		<line class="st3" x1="1121.4" y1="292.8" x2="1121.4" y2="298.8"/>
	</g>
</g>
<g class="st2">
	<g>
		<line class="st3" x1="1202.3" y1="82.8" x2="1202.3" y2="88.8"/>
		<line class="st4" x1="1202.3" y1="100.8" x2="1202.3" y2="286.8"/>
		<line class="st3" x1="1202.3" y1="292.8" x2="1202.3" y2="298.8"/>
	</g>
</g>
<g class="st2">
	<g>
		<line class="st3" x1="1283.1" y1="82.8" x2="1283.1" y2="88.8"/>
		<line class="st4" x1="1283.1" y1="100.8" x2="1283.1" y2="286.8"/>
		<line class="st3" x1="1283.1" y1="292.8" x2="1283.1" y2="298.8"/>
	</g>
</g>
<g class="st2">
	<g>
		<line class="st3" x1="1363.9" y1="82.8" x2="1363.9" y2="88.8"/>
		<line class="st4" x1="1363.9" y1="100.8" x2="1363.9" y2="286.8"/>
		<line class="st3" x1="1363.9" y1="292.8" x2="1363.9" y2="298.8"/>
	</g>
</g>
<g class="st2">
	<g>
		<line class="st3" x1="1444.8" y1="82.8" x2="1444.8" y2="88.8"/>
		<line class="st4" x1="1444.8" y1="100.8" x2="1444.8" y2="286.8"/>
		<line class="st3" x1="1444.8" y1="292.8" x2="1444.8" y2="298.8"/>
	</g>
</g>
<g class="st2">
	<g>
		<line class="st3" x1="1525.6" y1="82.8" x2="1525.6" y2="88.8"/>
		<line class="st4" x1="1525.6" y1="100.8" x2="1525.6" y2="286.8"/>
		<line class="st3" x1="1525.6" y1="292.8" x2="1525.6" y2="298.8"/>
	</g>
</g>
<g class="st2">
	<g>
		<line class="st3" x1="1606.5" y1="82.8" x2="1606.5" y2="88.8"/>
		<line class="st4" x1="1606.5" y1="100.8" x2="1606.5" y2="286.8"/>
		<line class="st3" x1="1606.5" y1="292.8" x2="1606.5" y2="298.8"/>
	</g>
</g>
<g class="st2">
	<g>
		<line class="st3" x1="1687.3" y1="82.8" x2="1687.3" y2="88.8"/>
		<line class="st4" x1="1687.3" y1="100.8" x2="1687.3" y2="286.8"/>
		<line class="st3" x1="1687.3" y1="292.8" x2="1687.3" y2="298.8"/>
	</g>
</g>
<g class="st2">
	<g>
		<line class="st3" x1="1768.1" y1="82.8" x2="1768.1" y2="88.8"/>
		<line class="st4" x1="1768.1" y1="100.8" x2="1768.1" y2="286.8"/>
		<line class="st3" x1="1768.1" y1="292.8" x2="1768.1" y2="298.8"/>
	</g>
</g>
<g class="st2">
	<g>
		<line class="st3" x1="1768.1" y1="136.8" x2="1762.1" y2="136.8"/>
		<line class="st5" x1="1750.2" y1="136.8" x2="82.5" y2="136.8"/>
		<line class="st3" x1="76.6" y1="136.8" x2="70.6" y2="136.8"/>
	</g>
</g>
<g class="st2">
	<g>
		<line class="st3" x1="1768.1" y1="244.8" x2="1762.1" y2="244.8"/>
		<line class="st5" x1="1750.2" y1="244.8" x2="82.5" y2="244.8"/>
		<line class="st3" x1="76.6" y1="244.8" x2="70.6" y2="244.8"/>
	</g>
</g>
<g class="st2">
	<g>
		<line class="st3" x1="1768.1" y1="82.8" x2="1762.1" y2="82.8"/>
		<line class="st5" x1="1750.2" y1="82.8" x2="82.5" y2="82.8"/>
		<line class="st3" x1="76.6" y1="82.8" x2="70.6" y2="82.8"/>
	</g>
</g>
<g class="st2">
	<g>
		<line class="st3" x1="1768.1" y1="298.8" x2="1762.1" y2="298.8"/>
		<line class="st5" x1="1750.2" y1="298.8" x2="82.5" y2="298.8"/>
		<line class="st3" x1="76.6" y1="298.8" x2="70.6" y2="298.8"/>
	</g>
</g>
<g>
	<line class="st6" x1="70.8" y1="190.8" x2="1791" y2="190.8"/>
	<polygon class="st0" points="1785.4,199 1816.1,190.8 1785.4,182.6 	"/>
</g>
<path class="st7" d="M70.8,177.4L70.8,177.4l21.1,6l33.2,10.2l33.2,10l20.3,5.3l17,3.7l15.8,2.7l14.5,1.8l14.1,1l13.7,0.3l13.7-0.4
	l14.1-1.1l14.5-1.9l15.3-2.7l16.6-3.7l18.6-4.9l24-7.1l61.3-18.6l19.1-4.8l16.6-3.4l15.3-2.4l14.5-1.6l14.1-0.8l13.7-0.1l13.7,0.6
	l14.1,1.3l14.5,2.1l15.3,2.9l17,4l19.9,5.4l27.3,8.3l44.8,13.6l20.3,5.3l17,3.7l15.8,2.7l14.5,1.8l14.1,1l13.7,0.3l13.7-0.4
	l14.1-1.1l14.5-1.9l15.3-2.7l16.6-3.7l18.7-4.9l24-7.1l61.3-18.6l19.1-4.8l16.6-3.4l15.3-2.4l14.5-1.6l14.1-0.8l13.7-0.1l13.7,0.6
	l14.1,1.3l14.5,2.1l15.3,2.9l17,4l19.9,5.4l27.3,8.3l44.8,13.6l20.3,5.3l17,3.7l15.8,2.7l14.5,1.8l14.1,1l13.7,0.3l13.7-0.4
	l14.1-1.1l14.5-1.9l15.3-2.7l16.6-3.7l18.7-4.9l24-7.1l61.3-18.5l19.1-4.8l16.6-3.4l15.3-2.4l14.5-1.6l14.1-0.8l13.7-0.1l13.7,0.6
	l14.1,1.4l14.5,2.1l15.3,2.9l17,4l19.9,5.4l27.8,8.4l43.9,13.4l10.4,2.8"/>
<path class="st7" d="M70.8,162.9L70.8,162.9l16.6,9.2l22,13.3l47.2,28.9l17,9.2l14.1,6.6l12.4,5l11.6,3.8l10.8,2.8l10.4,1.9l9.9,1.1
	l9.9,0.4l9.5-0.3l10-1.1l10-1.8l10.4-2.6l10.8-3.4l11.6-4.5l12.9-5.8l14.5-7.5l17.4-10l26.1-16.1l34-20.8l17.4-9.6l14.5-7l12.9-5.3
	l11.6-4l10.8-2.9l10.4-2.1l10-1.3l9.9-0.5l9.5,0.2l10,0.9l10,1.6l10.4,2.4l10.8,3.3l11.6,4.3l12.4,5.5l14.1,7.1l17,9.6l23.2,14.2
	l41.8,25.7l17.4,9.5l14.5,6.9l12.8,5.2l11.6,3.9l10.8,2.8l10.4,2l10,1.2l10,0.4l9.5-0.3l10-1l10-1.7l10.4-2.5l10.8-3.4l11.6-4.4
	l12.8-5.8l14.5-7.4l17.4-9.9l25.7-15.8l35.2-21.6l17.4-9.6l14.5-7l12.8-5.3l11.6-4l10.8-2.9l10.4-2.1l9.9-1.3l9.9-0.5l9.5,0.2
	l9.9,0.9l9.9,1.6l10.4,2.4l10.8,3.3l11.6,4.3l12.4,5.5l14.1,7.1l17,9.6l23.6,14.4l41,25.2l17.4,9.5l14.5,7l12.8,5.3l11.6,3.9
	l10.8,2.9l10.4,2l9.9,1.2l9.9,0.5l9.5-0.2l9.9-1l9.9-1.7l10.4-2.5l10.8-3.3l11.6-4.4l12.8-5.7l14.5-7.4l17.4-9.9l25.3-15.6
	l36.1-22.1l17.4-9.6l14.5-7l12.8-5.3l11.6-4l10.8-2.9l10.4-2.1l9.9-1.3l9.9-0.5l9.5,0.2l9.9,0.9l9.9,1.6l10.4,2.4l10.8,3.3l11.6,4.3
	l12.8,5.7l14.1,7.1l17,9.6l23.6,14.5l40.2,24.6l14.5,8"/>
<path class="st8" d="M70.8,148.4L70.8,148.4l15.8,13.1l20.3,18.4l50.6,46.4l16.2,13l13.3,9.4l11.6,7.1l10.4,5.4l9.5,4l9.1,3l8.3,1.9
	l8.3,1.2l7.9,0.4l7.9-0.2l7.9-0.9l8.3-1.7l8.3-2.5l9.1-3.5l9.5-4.5l10.4-5.9l11.6-7.7l13.3-10l15.8-13.2l20.7-18.8l48.5-44.6
	l16.2-13.1l13.7-9.8l11.6-7.2l10.4-5.4l9.5-4.1l9.1-3l8.7-2.1l8.3-1.2l7.9-0.4l7.9,0.2l7.9,0.9l8.3,1.7l8.3,2.4l8.7,3.3l9.5,4.5
	l10.4,5.8l11.6,7.6l13.3,9.9l15.8,13.1l20.3,18.4l50.1,46.1l16.2,13.1l13.3,9.5l11.6,7.1l10.4,5.4l9.5,4l9.1,3l8.3,2l8.3,1.2
	l7.9,0.5l7.9-0.2l7.9-0.9l8.3-1.7l8.3-2.4l8.7-3.3l9.5-4.5l10.4-5.8l11.6-7.6l12.8-9.6l15.3-12.7l19.9-17.9l53-48.6l15.8-12.6
	l13.3-9.4l11.6-7.1l10.4-5.3l9.5-3.9l9.1-2.9l8.3-1.9l8.3-1.1l7.9-0.4l7.9,0.3l7.9,1l8.3,1.8l8.7,2.7l9.1,3.6l9.5,4.7l10.4,6
	l11.6,7.8l13.3,10.1l16.2,13.6l21.6,19.7l43.9,40.4l16.6,13.6l13.7,10l12,7.6l10.8,5.7l9.5,4.1l9.1,3.1l8.7,2.2l8.3,1.3l7.9,0.5
	l7.9-0.2l7.9-0.9l8.3-1.6l8.3-2.4l8.7-3.2l9.5-4.4l10.4-5.8l11.2-7.2l12.8-9.5l15.3-12.6l19.5-17.5l56.8-51.9l15.3-12.1l12.8-8.9
	l11.6-6.9l10.4-5.2l9.5-3.8l8.7-2.7l8.3-1.8l8.3-1l7.9-0.3l7.9,0.4l7.9,1.1l8.3,1.9l8.7,2.8l9.1,3.7l9.5,4.7l10.8,6.3l12,8.2
	l13.7,10.6l16.6,14.2l22.8,21l38.1,35.2l16.2,13.5"/>
</svg>
