<?xml version="1.0" encoding="UTF-8"?>
<svg id="uuid-99aba144-b7d2-407e-9981-fdac4ce3b920" xmlns="http://www.w3.org/2000/svg" width="1929.6" height="504" viewBox="0 0 1929.6 504">
  <circle cx="187.2" cy="252" r="66.32" fill="none" stroke="#7f7f7f" stroke-miterlimit="10" stroke-width="3.73"/>
  <circle cx="187.2" cy="252" r="94.74" fill="none" stroke="#7f7f7f" stroke-miterlimit="10" stroke-width="3.73"/>
  <circle cx="187.2" cy="252" r="123.16" fill="none" stroke="#7f7f7f" stroke-miterlimit="10" stroke-width="3.73"/>
  <circle cx="187.2" cy="252" r="151.58" fill="none" stroke="#7f7f7f" stroke-miterlimit="10" stroke-width="3.73"/>
  <circle cx="187.2" cy="252" r="180" fill="none" stroke="#7f7f7f" stroke-miterlimit="10" stroke-width="3.73"/>
  <g id="uuid-98e605e0-c746-404c-bc81-fc03d68a5372">
    <path id="uuid-ff5a4f60-07a2-4376-aec6-9ba6acce4a18" d="m236.21,258.3c-2.51,2.51-8.07,3.77-16.67,3.77h-20.79l-26.11,38.5-.22.3c-.4.4-.87.61-1.39.61h-5.54c-.52,0-.98-.2-1.39-.61-.61-.61-.77-1.28-.48-2.04l13.03-36.77h-21.22c-4.91,8.83-7.56,13.45-7.97,13.86s-.87.61-1.39.61h-5.54c-.52,0-.98-.2-1.39-.61-.52-.52-.69-1.15-.52-1.91l5.41-18.84-5.41-18.84c-.23-.75-.07-1.4.48-1.95.4-.4.87-.61,1.39-.61l5.59-.04c.52,0,.98.2,1.39.61s3.06,5.02,7.97,13.86h21.22l-13.03-36.77c-.29-.75-.13-1.43.48-2.04.4-.4.87-.61,1.39-.61h5.54c.52,0,.98.2,1.39.61.12.12.19.22.22.3l26.11,38.5h20.79c8.6,0,14.16,1.26,16.67,3.77.92.92,1.39,1.98,1.39,3.16s-.46,2.24-1.39,3.16l-.01.02Z" fill="none" stroke="#c9d1d9" stroke-miterlimit="10" stroke-width="5.67"/>
  </g>
  <circle cx="747.28" cy="252" r="66.32" fill="none" stroke="#7f7f7f" stroke-miterlimit="10" stroke-width="3.73"/>
  <circle cx="733.26" cy="252" r="94.74" fill="none" stroke="#7f7f7f" stroke-miterlimit="10" stroke-width="3.73"/>
  <circle cx="719.24" cy="252" r="123.16" fill="none" stroke="#7f7f7f" stroke-miterlimit="10" stroke-width="3.73"/>
  <circle cx="705.22" cy="252" r="151.58" fill="none" stroke="#7f7f7f" stroke-miterlimit="10" stroke-width="3.73"/>
  <circle cx="691.2" cy="252" r="180" fill="none" stroke="#7f7f7f" stroke-miterlimit="10" stroke-width="3.73"/>
  <circle cx="1308.88" cy="252" r="66.32" fill="none" stroke="#7f7f7f" stroke-miterlimit="10" stroke-width="3.73"/>
  <circle cx="1280.46" cy="252" r="94.74" fill="none" stroke="#7f7f7f" stroke-miterlimit="10" stroke-width="3.73"/>
  <circle cx="1252.04" cy="252" r="123.16" fill="none" stroke="#7f7f7f" stroke-miterlimit="10" stroke-width="3.73"/>
  <circle cx="1223.62" cy="252" r="151.58" fill="none" stroke="#7f7f7f" stroke-miterlimit="10" stroke-width="3.73"/>
  <circle cx="1195.2" cy="252" r="180" fill="none" stroke="#7f7f7f" stroke-miterlimit="10" stroke-width="3.73"/>
  <circle cx="1823.68" cy="252" r="66.32" fill="none" stroke="#7f7f7f" stroke-miterlimit="10" stroke-width="3.73"/>
  <circle cx="1780.86" cy="252" r="94.74" fill="none" stroke="#7f7f7f" stroke-miterlimit="10" stroke-width="3.73"/>
  <circle cx="1738.04" cy="252" r="123.16" fill="none" stroke="#7f7f7f" stroke-miterlimit="10" stroke-width="3.73"/>
  <circle cx="1695.22" cy="252" r="151.58" fill="none" stroke="#7f7f7f" stroke-miterlimit="10" stroke-width="3.73"/>
  <circle cx="1652.4" cy="252" r="180" fill="none" stroke="#7f7f7f" stroke-miterlimit="10" stroke-width="3.73"/>
  <line x1="1926" y1="252" x2="1921.53" y2="248" fill="none" stroke="#7f7f7f" stroke-miterlimit="10" stroke-width="2.83"/>
  <line x1="1912.4" y1="239.83" x2="1661.43" y2="15.28" fill="none" stroke="#7f7f7f" stroke-dasharray="0 0 0 0 0 0 12.25 12.25" stroke-miterlimit="10" stroke-width="2.83"/>
  <line x1="1656.87" y1="11.2" x2="1652.4" y2="7.2" fill="none" stroke="#7f7f7f" stroke-miterlimit="10" stroke-width="2.83"/>
  <line x1="1926" y1="252" x2="1921.53" y2="256" fill="none" stroke="#7f7f7f" stroke-miterlimit="10" stroke-width="2.83"/>
  <line x1="1912.4" y1="264.17" x2="1661.43" y2="488.72" fill="none" stroke="#7f7f7f" stroke-dasharray="0 0 0 0 0 0 12.25 12.25" stroke-miterlimit="10" stroke-width="2.83"/>
  <line x1="1656.87" y1="492.8" x2="1652.4" y2="496.8" fill="none" stroke="#7f7f7f" stroke-miterlimit="10" stroke-width="2.83"/>
  <g id="uuid-ab740ab1-9c9f-4022-8266-692859ecef7b">
    <path id="uuid-f72e3975-1f72-40d2-b6a6-61b190cd0620" d="m796.07,255.16c-2.51,2.51-8.07,3.77-16.67,3.77h-20.79l-26.11,38.5-.22.3c-.4.4-.87.61-1.39.61h-5.54c-.52,0-.98-.2-1.39-.61-.61-.61-.77-1.28-.48-2.04l13.03-36.77h-21.22c-4.91,8.83-7.56,13.45-7.97,13.86s-.87.61-1.39.61h-5.54c-.52,0-.98-.2-1.39-.61-.52-.52-.69-1.15-.52-1.91l5.41-18.84-5.41-18.84c-.23-.75-.07-1.4.48-1.95.4-.4.87-.61,1.39-.61l5.59-.04c.52,0,.98.2,1.39.61s3.06,5.02,7.97,13.86h21.22l-13.03-36.77c-.29-.75-.13-1.43.48-2.04.4-.4.87-.61,1.39-.61h5.54c.52,0,.98.2,1.39.61.12.12.19.22.22.3l26.11,38.5h20.79c8.6,0,14.16,1.26,16.67,3.77.92.92,1.39,1.98,1.39,3.16s-.46,2.24-1.39,3.16l-.01.02Z" fill="none" stroke="#c9d1d9" stroke-miterlimit="10" stroke-width="5.67"/>
  </g>
  <g id="uuid-ee6cb07a-48c2-4d45-9906-e6db7dd125ae">
    <path id="uuid-f4f3057c-724e-490d-a1c8-322b7c019bf1" d="m1415.27,255.16c-2.51,2.51-8.07,3.77-16.67,3.77h-20.79l-26.11,38.5-.22.3c-.4.4-.87.61-1.39.61h-5.54c-.52,0-.98-.2-1.39-.61-.61-.61-.77-1.28-.48-2.04l13.03-36.77h-21.22c-4.91,8.83-7.56,13.45-7.97,13.86s-.87.61-1.39.61h-5.54c-.52,0-.98-.2-1.39-.61-.52-.52-.69-1.15-.52-1.91l5.41-18.84-5.41-18.84c-.23-.75-.07-1.4.48-1.95.4-.4.87-.61,1.39-.61l5.59-.04c.52,0,.98.2,1.39.61s3.06,5.02,7.97,13.86h21.22l-13.03-36.77c-.29-.75-.13-1.43.48-2.04.4-.4.87-.61,1.39-.61h5.54c.52,0,.98.2,1.39.61.12.12.19.22.22.3l26.11,38.5h20.79c8.6,0,14.16,1.26,16.67,3.77.92.92,1.39,1.98,1.39,3.16s-.46,2.24-1.39,3.16l-.01.02Z" fill="none" stroke="#c9d1d9" stroke-miterlimit="10" stroke-width="5.67"/>
  </g>
  <line x1="1375.2" y1="36" x2="1375.2" y2="42" fill="none" stroke="#7f7f7f" stroke-miterlimit="10" stroke-width="2.83"/>
  <line x1="1375.2" y1="54" x2="1375.2" y2="456" fill="none" stroke="#7f7f7f" stroke-dasharray="0 0 0 0 0 0 12 12" stroke-miterlimit="10" stroke-width="2.83"/>
  <line x1="1375.2" y1="462" x2="1375.2" y2="468" fill="none" stroke="#7f7f7f" stroke-miterlimit="10" stroke-width="2.83"/>
  <g id="uuid-d9da0409-2e03-4833-935f-cf3e4d71b90f">
    <path id="uuid-795ee44f-45aa-466b-902c-92f7cb130792" d="m1913.81,255.16c-2.51,2.51-8.07,3.77-16.67,3.77h-20.79l-26.11,38.5-.22.3c-.4.4-.87.61-1.39.61h-5.54c-.52,0-.98-.2-1.39-.61-.61-.61-.77-1.28-.48-2.04l13.03-36.77h-21.22c-4.91,8.83-7.56,13.45-7.97,13.86s-.87.61-1.39.61h-5.54c-.52,0-.98-.2-1.39-.61-.52-.52-.69-1.15-.52-1.91l5.41-18.84-5.41-18.84c-.23-.75-.07-1.4.48-1.95.4-.4.87-.61,1.39-.61l5.59-.04c.52,0,.98.2,1.39.61s3.06,5.02,7.97,13.86h21.22l-13.03-36.77c-.29-.75-.13-1.43.48-2.04.4-.4.87-.61,1.39-.61h5.54c.52,0,.98.2,1.39.61.12.12.19.22.22.3l26.11,38.5h20.79c8.6,0,14.16,1.26,16.67,3.77.92.92,1.39,1.98,1.39,3.16s-.46,2.24-1.39,3.16l-.01.02Z" fill="none" stroke="#c9d1d9" stroke-miterlimit="10" stroke-width="5.67"/>
  </g>
</svg>