<?xml version="1.0" encoding="UTF-8"?>
<svg id="Ebene_6" data-name="Ebene 6" xmlns="http://www.w3.org/2000/svg" width="2286" height="727.2" viewBox="0 0 2286 727.2">
  <line x1="1257.3" y1="673.2" x2="1257.3" y2="54" fill="none" stroke="#c9d1d9" stroke-miterlimit="10" stroke-width="2"/>
  <line x1="1335.7" y1="54" x2="1335.7" y2="673.2" fill="none" stroke="#c9d1d9" stroke-miterlimit="10" stroke-width="2"/>
  <line x1="1347.9" y1="54" x2="1347.9" y2="673.2" fill="none" stroke="#c9d1d9" stroke-miterlimit="10" stroke-width="2"/>
  <line x1="1357.3" y1="54" x2="1357.3" y2="673.2" fill="none" stroke="#c9d1d9" stroke-miterlimit="10" stroke-width="2"/>
  <line x1="1362.8" y1="54" x2="1362.8" y2="673.2" fill="none" stroke="#c9d1d9" stroke-miterlimit="10" stroke-width="2"/>
  <line x1="1321.1" y1="54" x2="1321.1" y2="673.2" fill="none" stroke="#c9d1d9" stroke-miterlimit="10" stroke-width="2"/>
  <line x1="1303.5" y1="54" x2="1303.5" y2="673.2" fill="none" stroke="#c9d1d9" stroke-miterlimit="10" stroke-width="2"/>
  <line x1="1282.2" y1="54" x2="1282.2" y2="673.2" fill="none" stroke="#c9d1d9" stroke-miterlimit="10" stroke-width="2"/>
  <line x1="1473.3" y1="54" x2="1473.3" y2="673.2" fill="none" stroke="#c9d1d9" stroke-miterlimit="10" stroke-width="2"/>
  <line x1="1395.2" y1="673.2" x2="1395.2" y2="54" fill="none" stroke="#c9d1d9" stroke-miterlimit="10" stroke-width="2"/>
  <line x1="1382.9" y1="673.2" x2="1382.9" y2="54" fill="none" stroke="#c9d1d9" stroke-miterlimit="10" stroke-width="2"/>
  <line x1="1373.5" y1="673.2" x2="1373.5" y2="54" fill="none" stroke="#c9d1d9" stroke-miterlimit="10" stroke-width="2"/>
  <line x1="1368" y1="673.2" x2="1368" y2="54" fill="none" stroke="#c9d1d9" stroke-miterlimit="10" stroke-width="2"/>
  <line x1="1409.8" y1="673.2" x2="1409.8" y2="54" fill="none" stroke="#c9d1d9" stroke-miterlimit="10" stroke-width="2"/>
  <line x1="1427.3" y1="673.2" x2="1427.3" y2="54" fill="none" stroke="#c9d1d9" stroke-miterlimit="10" stroke-width="2"/>
  <line x1="1448.7" y1="673.2" x2="1448.7" y2="54" fill="none" stroke="#c9d1d9" stroke-miterlimit="10" stroke-width="2"/>
  <line x1="1551.7" y1="54" x2="1551.7" y2="673.2" fill="none" stroke="#c9d1d9" stroke-miterlimit="10" stroke-width="2"/>
  <line x1="1563.9" y1="54" x2="1563.9" y2="673.2" fill="none" stroke="#c9d1d9" stroke-miterlimit="10" stroke-width="2"/>
  <line x1="1573.3" y1="54" x2="1573.3" y2="673.2" fill="none" stroke="#c9d1d9" stroke-miterlimit="10" stroke-width="2"/>
  <line x1="1578.8" y1="54" x2="1578.8" y2="673.2" fill="none" stroke="#c9d1d9" stroke-miterlimit="10" stroke-width="2"/>
  <line x1="1537.1" y1="54" x2="1537.1" y2="673.2" fill="none" stroke="#c9d1d9" stroke-miterlimit="10" stroke-width="2"/>
  <line x1="1519.5" y1="54" x2="1519.5" y2="673.2" fill="none" stroke="#c9d1d9" stroke-miterlimit="10" stroke-width="2"/>
  <line x1="1498.2" y1="54" x2="1498.2" y2="673.2" fill="none" stroke="#c9d1d9" stroke-miterlimit="10" stroke-width="2"/>
  <line x1="1689.3" y1="54" x2="1689.3" y2="673.2" fill="none" stroke="#c9d1d9" stroke-miterlimit="10" stroke-width="2"/>
  <line x1="1611.2" y1="673.2" x2="1611.2" y2="54" fill="none" stroke="#c9d1d9" stroke-miterlimit="10" stroke-width="2"/>
  <line x1="1598.9" y1="673.2" x2="1598.9" y2="54" fill="none" stroke="#c9d1d9" stroke-miterlimit="10" stroke-width="2"/>
  <line x1="1589.5" y1="673.2" x2="1589.5" y2="54" fill="none" stroke="#c9d1d9" stroke-miterlimit="10" stroke-width="2"/>
  <line x1="1584" y1="673.2" x2="1584" y2="54" fill="none" stroke="#c9d1d9" stroke-miterlimit="10" stroke-width="2"/>
  <line x1="1625.8" y1="673.2" x2="1625.8" y2="54" fill="none" stroke="#c9d1d9" stroke-miterlimit="10" stroke-width="2"/>
  <line x1="1643.3" y1="673.2" x2="1643.3" y2="54" fill="none" stroke="#c9d1d9" stroke-miterlimit="10" stroke-width="2"/>
  <line x1="1664.7" y1="673.2" x2="1664.7" y2="54" fill="none" stroke="#c9d1d9" stroke-miterlimit="10" stroke-width="2"/>
  <circle cx="367.2" cy="363.6" r="309.6" fill="none" stroke="#c9d1d9" stroke-miterlimit="10" stroke-width="2"/>
  <circle cx="367.2" cy="363.6" r="292.9" fill="none" stroke="#c9d1d9" stroke-miterlimit="10" stroke-width="2"/>
  <circle cx="367.2" cy="363.6" r="278.6" fill="none" stroke="#c9d1d9" stroke-miterlimit="10" stroke-width="2"/>
  <circle cx="367.2" cy="363.6" r="266.8" fill="none" stroke="#c9d1d9" stroke-miterlimit="10" stroke-width="2"/>
  <circle cx="367.2" cy="363.6" r="257.1" fill="none" stroke="#c9d1d9" stroke-miterlimit="10" stroke-width="2"/>
  <circle cx="367.2" cy="363.6" r="248.8" fill="none" stroke="#c9d1d9" stroke-miterlimit="10" stroke-width="2"/>
  <circle cx="367.2" cy="363.6" r="242.5" fill="none" stroke="#c9d1d9" stroke-miterlimit="10" stroke-width="2"/>
  <circle cx="367.2" cy="363.6" r="238.8" fill="none" stroke="#c9d1d9" stroke-miterlimit="10" stroke-width="2"/>
  <circle cx="367.2" cy="363.6" r="235.4" fill="none" stroke="#c9d1d9" stroke-miterlimit="10" stroke-width="2"/>
  <circle cx="367.2" cy="363.6" r="231.7" fill="none" stroke="#c9d1d9" stroke-miterlimit="10" stroke-width="2"/>
  <circle cx="367.2" cy="363.6" r="225.4" fill="none" stroke="#c9d1d9" stroke-miterlimit="10" stroke-width="2"/>
  <circle cx="367.2" cy="363.6" r="217.1" fill="none" stroke="#c9d1d9" stroke-miterlimit="10" stroke-width="2"/>
  <circle cx="367.2" cy="363.6" r="207.4" fill="none" stroke="#c9d1d9" stroke-miterlimit="10" stroke-width="2"/>
  <circle cx="367.2" cy="363.6" r="195.6" fill="none" stroke="#c9d1d9" stroke-miterlimit="10" stroke-width="2"/>
  <circle cx="367.2" cy="363.6" r="181.3" fill="none" stroke="#c9d1d9" stroke-miterlimit="10" stroke-width="2"/>
  <circle cx="367.2" cy="363.6" r="164.8" fill="none" stroke="#c9d1d9" stroke-miterlimit="10" stroke-width="2"/>
  <circle cx="367.2" cy="363.6" r="148.1" fill="none" stroke="#c9d1d9" stroke-miterlimit="10" stroke-width="2"/>
  <circle cx="367.2" cy="363.6" r="133.7" fill="none" stroke="#c9d1d9" stroke-miterlimit="10" stroke-width="2"/>
  <circle cx="367.2" cy="363.6" r="122" fill="none" stroke="#c9d1d9" stroke-miterlimit="10" stroke-width="2"/>
  <circle cx="367.2" cy="363.6" r="112.2" fill="none" stroke="#c9d1d9" stroke-miterlimit="10" stroke-width="2"/>
  <circle cx="367.2" cy="363.6" r="112.2" fill="none" stroke="#c9d1d9" stroke-miterlimit="10" stroke-width="2"/>
  <circle cx="367.2" cy="363.6" r="104" fill="none" stroke="#c9d1d9" stroke-miterlimit="10" stroke-width="2"/>
  <circle cx="367.2" cy="363.6" r="97.7" fill="none" stroke="#c9d1d9" stroke-miterlimit="10" stroke-width="2"/>
  <circle cx="367.2" cy="363.6" r="94" fill="none" stroke="#c9d1d9" stroke-miterlimit="10" stroke-width="2"/>
  <circle cx="367.2" cy="363.6" r="90.5" fill="none" stroke="#c9d1d9" stroke-miterlimit="10" stroke-width="2"/>
  <circle cx="367.2" cy="363.6" r="86.8" fill="none" stroke="#c9d1d9" stroke-miterlimit="10" stroke-width="2"/>
  <circle cx="367.2" cy="363.6" r="80.5" fill="none" stroke="#c9d1d9" stroke-miterlimit="10" stroke-width="2"/>
  <circle cx="367.2" cy="363.6" r="72.3" fill="none" stroke="#c9d1d9" stroke-miterlimit="10" stroke-width="2"/>
  <circle cx="367.2" cy="363.6" r="62.5" fill="none" stroke="#c9d1d9" stroke-miterlimit="10" stroke-width="2"/>
  <circle cx="367.2" cy="363.6" r="50.8" fill="none" stroke="#c9d1d9" stroke-miterlimit="10" stroke-width="2"/>
  <circle cx="367.2" cy="363.6" r="36.4" fill="none" stroke="#c9d1d9" stroke-miterlimit="10" stroke-width="2"/>
  <g>
    <g>
      <line x1="544.5" y1="363.6" x2="704.2" y2="363.6" fill="none" stroke="#c9d1d9" stroke-miterlimit="10" stroke-width="3"/>
      <polygon points="698.3 372.3 730.8 363.6 698.3 354.9 698.3 372.3" fill="#c9d1d9"/>
    </g>
    <g>
      <line x1="492.6" y1="238.2" x2="605.5" y2="125.3" fill="none" stroke="#c9d1d9" stroke-miterlimit="10" stroke-width="3"/>
      <polygon points="607.5 135.7 624.3 106.5 595.1 123.3 607.5 135.7" fill="#c9d1d9"/>
    </g>
    <g>
      <line x1="367.2" y1="186.3" x2="367.2" y2="26.6" fill="none" stroke="#c9d1d9" stroke-miterlimit="10" stroke-width="3"/>
      <polygon points="375.9 32.5 367.2 0 358.5 32.5 375.9 32.5" fill="#c9d1d9"/>
    </g>
    <g>
      <line x1="240.5" y1="489" x2="127.6" y2="601.9" fill="none" stroke="#c9d1d9" stroke-miterlimit="10" stroke-width="3"/>
      <polygon points="125.6 591.5 108.8 620.7 137.9 603.9 125.6 591.5" fill="#c9d1d9"/>
    </g>
    <g>
      <line x1="365.9" y1="540.9" x2="365.9" y2="700.6" fill="none" stroke="#c9d1d9" stroke-miterlimit="10" stroke-width="3"/>
      <polygon points="357.2 694.7 365.9 727.2 374.6 694.7 357.2 694.7" fill="#c9d1d9"/>
    </g>
    <g>
      <line x1="491.2" y1="489" x2="604.2" y2="601.9" fill="none" stroke="#c9d1d9" stroke-miterlimit="10" stroke-width="3"/>
      <polygon points="593.8 603.9 623 620.7 606.2 591.5 593.8 603.9" fill="#c9d1d9"/>
    </g>
    <g>
      <line x1="189.9" y1="363.6" x2="30.2" y2="363.6" fill="none" stroke="#c9d1d9" stroke-miterlimit="10" stroke-width="3"/>
      <polygon points="36.1 354.9 3.6 363.6 36.1 372.3 36.1 354.9" fill="#c9d1d9"/>
    </g>
    <g>
      <line x1="239.8" y1="239.2" x2="126.8" y2="126.2" fill="none" stroke="#c9d1d9" stroke-miterlimit="10" stroke-width="3"/>
      <polygon points="137.2 124.3 108 107.4 124.9 136.6 137.2 124.3" fill="#c9d1d9"/>
    </g>
  </g>
  <g>
    <line x1="1574.1" y1="507.6" x2="1733.8" y2="507.6" fill="none" stroke="#c9d1d9" stroke-miterlimit="10" stroke-width="3"/>
    <polygon points="1727.9 516.3 1760.4 507.6 1727.9 498.9 1727.9 516.3" fill="#c9d1d9"/>
  </g>
  <g>
    <line x1="1574.1" y1="363.6" x2="1733.8" y2="363.6" fill="none" stroke="#c9d1d9" stroke-miterlimit="10" stroke-width="3"/>
    <polygon points="1727.9 372.3 1760.4 363.6 1727.9 354.9 1727.9 372.3" fill="#c9d1d9"/>
  </g>
  <g>
    <line x1="1574.1" y1="219.6" x2="1733.8" y2="219.6" fill="none" stroke="#c9d1d9" stroke-miterlimit="10" stroke-width="3"/>
    <polygon points="1727.9 228.3 1760.4 219.6 1727.9 210.9 1727.9 228.3" fill="#c9d1d9"/>
  </g>
  <g>
    <line x1="1574.1" y1="75.6" x2="1733.8" y2="75.6" fill="none" stroke="#c9d1d9" stroke-miterlimit="10" stroke-width="3"/>
    <polygon points="1727.9 84.3 1760.4 75.6 1727.9 66.9 1727.9 84.3" fill="#c9d1d9"/>
  </g>
  <g>
    <line x1="1574.1" y1="651.6" x2="1733.8" y2="651.6" fill="none" stroke="#c9d1d9" stroke-miterlimit="10" stroke-width="3"/>
    <polygon points="1727.9 660.3 1760.4 651.6 1727.9 642.9 1727.9 660.3" fill="#c9d1d9"/>
  </g>
  <line x1="1198.8" y1="183.6" x2="763.2" y2="183.6" fill="none" stroke="#c9d1d9" stroke-miterlimit="10" stroke-width="3"/>
  <line x1="1198.8" y1="543.6" x2="763.2" y2="543.6" fill="none" stroke="#c9d1d9" stroke-miterlimit="10" stroke-width="3"/>
  <line x1="2282.4" y1="183.6" x2="1846.8" y2="183.6" fill="none" stroke="#c9d1d9" stroke-miterlimit="10" stroke-width="3"/>
  <path d="m1846.8,438.2c.6-.3,2.9-1.5,2.9-1.5l2.9-.8,2.6-.2,2.6.3,2.6.9,2.9,1.5,3.1,2.4,3.3,3.3,3.7,4.7,4.2,6.4,4.4,7.9,4.6,9.5,5.3,12.2,5.9,15.1,7.3,20s4.2,12.2,8.3,23.8" fill="none" stroke="#c9d1d9" stroke-miterlimit="10" stroke-width="3"/>
  <line x1="2282.4" y1="543.6" x2="1846.8" y2="543.6" fill="none" stroke="#c9d1d9" stroke-miterlimit="10" stroke-width="3"/>
  <g>
    <path d="m1913.4,543.6c.1.2.1.3.1.3l12.8,36.2,6.8,17.9,5.7,13.6,5.1,10.7,4.6,8.5,4.2,6.6,4,5.1,3.7,3.8,3.3,2.5,3.1,1.6,2.9.8,2.6.2,2.6-.3,2.6-.9,2.9-1.5,3.1-2.4,3.3-3.3,3.7-4.7,4.2-6.4,4.4-7.9,4.6-9.5,5.3-12.2,5.9-15.1,7.3-20s4.2-12.2,8.3-23.8" fill="none" stroke="#c9d1d9" stroke-miterlimit="10" stroke-width="3"/>
    <g>
      <path d="m2030.4,543.6c.1-.2.1-.3.1-.3l12.8-36.2,6.8-17.9,5.7-13.6,5.1-10.7,4.6-8.5,4.2-6.6,4-5.1,3.7-3.8,3.3-2.5,3.1-1.6,2.9-.8,2.6-.2,2.6.3,2.6.9,2.9,1.5,3.1,2.4,3.3,3.3,3.7,4.7,4.2,6.4,4.4,7.9,4.6,9.5,5.3,12.2,5.9,15.1,7.3,19.9s4.2,12.2,8.3,23.8" fill="none" stroke="#c9d1d9" stroke-miterlimit="10" stroke-width="3"/>
      <path d="m2147.4,543.6c.1.2.1.3.1.3l12.8,36.2,6.8,17.9,5.7,13.6,5.1,10.7,4.6,8.5,4.2,6.6,4,5.1,3.7,3.8,3.3,2.5,3.1,1.6,2.9.8,2.6.2,2.6-.3,2.6-.9,2.9-1.5,3.1-2.4,3.3-3.3,3.7-4.7,4.2-6.4,4.4-7.9,4.6-9.5,5.3-12.2,5.9-15.1,7.3-20s4.2-12.2,8.3-23.8" fill="none" stroke="#c9d1d9" stroke-miterlimit="10" stroke-width="3"/>
    </g>
  </g>
  <g>
    <g>
      <path d="m1913.4,183.6c-4-11.6-8.3-23.8-8.3-23.8l-7.3-19.9-5.9-15.1-5.3-12.2-4.6-9.5-4.4-7.9-4.2-6.4-3.7-4.7-3.3-3.3-3.1-2.4-2.9-1.6-2.6-.9-2.6-.3-2.6.2-2.9.8-2.9,1.5" fill="none" stroke="#c9d1d9" stroke-miterlimit="10" stroke-width="3"/>
      <path d="m1913.4,183.6c.1.2.1.3.1.3l12.8,36.2,6.8,17.9,5.7,13.6,5.1,10.7,4.6,8.5,4.2,6.6,4,5.1,3.7,3.8,3.3,2.5,3.1,1.6,2.9.8,2.6.2,2.6-.3,2.6-.9,2.9-1.5,3.1-2.4,3.3-3.3,3.7-4.7,4.2-6.4,4.4-7.9,4.6-9.5,5.3-12.2,5.9-15.1,7.3-19.9s4.2-12.2,8.3-23.8" fill="none" stroke="#c9d1d9" stroke-miterlimit="10" stroke-width="3"/>
    </g>
    <g>
      <path d="m2030.4,183.6c.1-.2.1-.3.1-.3l12.8-36.2,6.8-17.9,5.7-13.6,5.1-10.7,4.6-8.5,4.2-6.6,4-5.1,3.7-3.8,3.3-2.5,3.1-1.6,2.9-.8,2.6-.2,2.6.3,2.6.9,2.9,1.6,3.1,2.4,3.3,3.3,3.7,4.7,4.2,6.4,4.4,7.9,4.6,9.5,5.3,12.2,5.9,15.1,7.3,19.9s4.2,12.2,8.3,23.8" fill="none" stroke="#c9d1d9" stroke-miterlimit="10" stroke-width="3"/>
      <path d="m2147.4,183.6c.1.2.1.3.1.3l12.8,36.2,6.8,17.9,5.7,13.6,5.1,10.7,4.6,8.5,4.2,6.6,4,5.1,3.7,3.8,3.3,2.5,3.1,1.6,2.9.8,2.6.2,2.6-.3,2.6-.9,2.9-1.5,3.1-2.4,3.3-3.3,3.7-4.7,4.2-6.4,4.4-7.9,4.6-9.5,5.3-12.2,5.9-15.1,7.3-19.9s4.2-12.2,8.3-23.8" fill="none" stroke="#c9d1d9" stroke-miterlimit="10" stroke-width="3"/>
    </g>
  </g>
  <path d="m763.2,468.3c.9-1.9,1.6-3.5,1.6-3.5l4.6-8.5,4.2-6.6,4-5.1,3.7-3.8,3.3-2.5,3.1-1.6,2.9-.8,2.6-.2,2.6.3,2.6.9,2.9,1.5,3.1,2.4,3.3,3.3,3.7,4.7,4.2,6.4,4.4,7.9,4.6,9.5,5.3,12.2,5.9,15.1,7.3,20s4.2,12.2,8.3,23.8" fill="none" stroke="#c9d1d9" stroke-miterlimit="10" stroke-width="3"/>
  <g>
    <path d="m851.4,543.6c.1.2.1.3.1.3l12.8,36.2,6.8,17.9,5.7,13.6,5.1,10.7,4.6,8.5,4.2,6.6,4,5.1,3.7,3.8,3.3,2.5,3.1,1.6,2.9.8,2.6.2,2.6-.3,2.6-.9,2.9-1.5,3.1-2.4,3.3-3.3,3.7-4.7,4.2-6.4,4.4-7.9,4.6-9.5,5.3-12.2,5.9-15.1,7.3-20s4.2-12.2,8.3-23.8" fill="none" stroke="#c9d1d9" stroke-miterlimit="10" stroke-width="3"/>
    <path d="m968.4,543.6c.1-.2.1-.3.1-.3l12.8-36.2,6.8-17.9,5.7-13.6,5.1-10.7,4.6-8.5,4.2-6.6,4-5.1,3.7-3.8,3.3-2.5,3.1-1.6,2.9-.8,2.6-.2,2.6.3,2.6.9,2.9,1.5,3.1,2.4,3.3,3.3,3.7,4.7,4.2,6.4,4.4,7.9,4.6,9.5,5.3,12.2,5.9,15.1,7.3,19.9s4.2,12.2,8.3,23.8" fill="none" stroke="#c9d1d9" stroke-miterlimit="10" stroke-width="3"/>
  </g>
  <g>
    <g>
      <path d="m783,183.6c-4-11.6-8.3-23.8-8.3-23.8l-7.3-19.9-4.3-10.9" fill="none" stroke="#c9d1d9" stroke-miterlimit="10" stroke-width="3"/>
      <path d="m783,183.6c.1.2.1.3.1.3l12.8,36.2,6.8,17.9,5.7,13.6,5.1,10.7,4.6,8.5,4.2,6.6,4,5.1,3.7,3.8,3.3,2.5,3.1,1.6,2.9.8,2.6.2,2.6-.3,2.6-.9,2.9-1.5,3.1-2.4,3.3-3.3,3.7-4.7,4.2-6.4,4.4-7.9,4.6-9.5,5.3-12.2,5.9-15.1,7.3-19.9s4.2-12.2,8.3-23.8" fill="none" stroke="#c9d1d9" stroke-miterlimit="10" stroke-width="3"/>
    </g>
    <g>
      <path d="m900,183.6c.1-.2.1-.3.1-.3l12.8-36.2,6.8-17.9,5.7-13.6,5.1-10.7,4.6-8.5,4.2-6.6,4-5.1,3.7-3.8,3.3-2.5,3.1-1.6,2.9-.8,2.6-.2,2.6.3,2.6.9,2.9,1.6,3.1,2.4,3.3,3.3,3.7,4.7,4.2,6.4,4.4,7.9,4.6,9.5,5.3,12.2,5.9,15.1,7.3,19.9s4.2,12.2,8.3,23.8" fill="none" stroke="#c9d1d9" stroke-miterlimit="10" stroke-width="3"/>
      <path d="m1017,183.6c.1.2.1.3.1.3l12.8,36.2,6.8,17.9,5.7,13.6,5.1,10.7,4.6,8.5,4.2,6.6,4,5.1,3.7,3.8,3.3,2.5,3.1,1.6,2.9.8,2.6.2,2.6-.3,2.6-.9,2.9-1.5,3.1-2.4,3.3-3.3,3.7-4.7,4.2-6.4,4.4-7.9,4.6-9.5,5.3-12.2,5.9-15.1,7.3-19.9s4.2-12.2,8.3-23.8" fill="none" stroke="#c9d1d9" stroke-miterlimit="10" stroke-width="3"/>
    </g>
  </g>
  <path d="m1191.6,75.7c-.7.1-1.4.1-1.4.1l-2.9.8-3.1,1.6-3.3,2.5-3.7,3.8-4,5.1-4.2,6.6-4.6,8.5-5.1,10.7-5.7,13.6-6.8,17.9-12.8,36.2s0,.1-.1.3" fill="none" stroke="#c9d1d9" stroke-miterlimit="10" stroke-width="5"/>
  <path d="m1191.6,574.4c-2.1,5.8-4.7,13-4.7,13l-5.9,15.1-5.3,12.2-4.6,9.5-4.4,7.9-4.2,6.4-3.7,4.7-3.3,3.3-3.1,2.4-2.9,1.5-2.6.9-2.6.3-2.6-.2-2.9-.8-3.1-1.6-3.3-2.5-3.7-3.8-4-5.1-4.2-6.6-4.6-8.5-5.1-10.7-5.8-13.8-6.8-17.9-12.8-36.2s0-.1-.1-.3" fill="none" stroke="#c9d1d9" stroke-miterlimit="10" stroke-width="3"/>
  <line x1="1846.8" y1="32.4" x2="1846.8" y2="334.8" fill="none" stroke="#c9d1d9" stroke-miterlimit="10" stroke-width="3"/>
  <line x1="763.2" y1="392.4" x2="763.2" y2="694.8" fill="none" stroke="#c9d1d9" stroke-miterlimit="10" stroke-width="3"/>
  <line x1="763.2" y1="32.4" x2="763.2" y2="334.8" fill="none" stroke="#c9d1d9" stroke-miterlimit="10" stroke-width="3"/>
  <line x1="1846.8" y1="392.4" x2="1846.8" y2="694.8" fill="none" stroke="#c9d1d9" stroke-miterlimit="10" stroke-width="3"/>
  <g isolation="isolate">
    <path d="m805.5,32.9v10h-3.4v-25.6h9.4c2.8,0,5,.7,6.6,2.1s2.4,3.3,2.4,5.7c0,2.5-.8,4.4-2.3,5.7-1.5,1.3-3.8,2-6.7,2h-6v.1Zm0-2.8h6.1c1.8,0,3.2-.4,4.1-1.3,1-.9,1.4-2.1,1.4-3.7,0-1.5-.5-2.7-1.4-3.7-1-.9-2.3-1.4-4-1.4h-6.3v10.1h.1Z" fill="#c9d1d9"/>
  </g>
  <g isolation="isolate">
    <path d="m833.6,26.8c-.5-.1-1-.1-1.6-.1-2.1,0-3.6.9-4.3,2.7v13.5h-3.3v-19h3.2l.1,2.2c1.1-1.7,2.6-2.5,4.5-2.5.6,0,1.1.1,1.4.2v3h0Z" fill="#c9d1d9"/>
  </g>
  <g isolation="isolate">
    <path d="m844.1,43.3c-2.6,0-4.7-.8-6.3-2.5s-2.4-4-2.4-6.8v-.6c0-1.9.4-3.6,1.1-5.1s1.7-2.6,3-3.5,2.7-1.3,4.2-1.3c2.5,0,4.4.8,5.8,2.4s2.1,4,2.1,7v1.4h-12.9c0,1.9.6,3.4,1.6,4.5s2.4,1.7,4,1.7c1.1,0,2.1-.2,2.9-.7s1.5-1.1,2.1-1.9l2,1.5c-1.6,2.6-4,3.9-7.2,3.9Zm-.4-17.1c-1.3,0-2.4.5-3.3,1.4s-1.4,2.3-1.7,4h9.5v-.2c-.1-1.7-.5-2.9-1.3-3.8s-1.8-1.4-3.2-1.4Z" fill="#c9d1d9"/>
    <path d="m866.4,37.9c0-.9-.3-1.6-1-2s-1.8-.9-3.5-1.3-3-.8-3.9-1.3-1.7-1.1-2.1-1.8-.7-1.5-.7-2.4c0-1.6.7-2.9,2-4s3-1.6,5.1-1.6c2.2,0,3.9.6,5.2,1.7s2,2.5,2,4.3h-3.3c0-.9-.4-1.7-1.1-2.3s-1.7-1-2.9-1-2.1.3-2.8.8-1,1.2-1,2,.3,1.4.9,1.8,1.7.8,3.4,1.1,2.9.8,3.9,1.3,1.8,1.1,2.2,1.8.7,1.6.7,2.6c0,1.7-.7,3.1-2,4.1s-3.1,1.5-5.3,1.5c-1.5,0-2.9-.3-4-.8s-2.1-1.3-2.8-2.3-1-2-1-3.1h3.3c.1,1.1.5,2,1.3,2.6s1.9,1,3.2,1c1.2,0,2.2-.2,3-.7s1.2-1.2,1.2-2Z" fill="#c9d1d9"/>
    <path d="m884.9,37.9c0-.9-.3-1.6-1-2s-1.8-.9-3.5-1.3-3-.8-3.9-1.3-1.7-1.1-2.1-1.8-.7-1.5-.7-2.4c0-1.6.7-2.9,2-4s3-1.6,5.1-1.6c2.2,0,3.9.6,5.2,1.7s2,2.5,2,4.3h-3.3c0-.9-.4-1.7-1.1-2.3s-1.7-1-2.9-1-2.1.3-2.8.8-1,1.2-1,2,.3,1.4.9,1.8,1.7.8,3.4,1.1,2.9.8,3.9,1.3,1.8,1.1,2.2,1.8.7,1.6.7,2.6c0,1.7-.7,3.1-2,4.1s-3.1,1.5-5.3,1.5c-1.5,0-2.9-.3-4-.8s-2.1-1.3-2.8-2.3-1-2-1-3.1h3.3c.1,1.1.5,2,1.3,2.6s1.9,1,3.2,1c1.2,0,2.2-.2,3-.7s1.2-1.2,1.2-2Z" fill="#c9d1d9"/>
    <path d="m904.2,41c-1.3,1.5-3.1,2.2-5.6,2.2-2,0-3.6-.6-4.6-1.8s-1.6-2.9-1.6-5.2v-12.3h3.3v12.3c0,2.9,1.2,4.3,3.5,4.3,2.5,0,4.1-.9,5-2.8v-13.8h3.3v19h-3.1l-.2-1.9Z" fill="#c9d1d9"/>
  </g>
  <g isolation="isolate">
    <path d="m921.5,26.8c-.5-.1-1-.1-1.6-.1-2.1,0-3.6.9-4.3,2.7v13.5h-3.3v-19h3.2l.1,2.2c1.1-1.7,2.6-2.5,4.5-2.5.6,0,1.1.1,1.4.2v3h0Z" fill="#c9d1d9"/>
  </g>
  <g isolation="isolate">
    <path d="m932,43.3c-2.6,0-4.7-.8-6.3-2.5s-2.4-4-2.4-6.8v-.6c0-1.9.4-3.6,1.1-5.1s1.7-2.6,3-3.5,2.7-1.3,4.2-1.3c2.5,0,4.4.8,5.8,2.4s2.1,4,2.1,7v1.4h-12.9c0,1.9.6,3.4,1.6,4.5s2.4,1.7,4,1.7c1.1,0,2.1-.2,2.9-.7s1.5-1.1,2.1-1.9l2,1.5c-1.6,2.6-4,3.9-7.2,3.9Zm-.4-17.1c-1.3,0-2.4.5-3.3,1.4s-1.4,2.3-1.7,4h9.5v-.2c-.1-1.7-.5-2.9-1.3-3.8s-1.8-1.4-3.2-1.4Z" fill="#c9d1d9"/>
  </g>
  <g isolation="isolate">
    <path d="m810.6,398.4l7.3-21.1h3.7l-9.5,25.6h-3l-9.5-25.6h3.7l7.3,21.1Z" fill="#c9d1d9"/>
  </g>
  <g isolation="isolate">
    <path d="m831.7,403.3c-2.6,0-4.7-.8-6.3-2.5s-2.4-4-2.4-6.8v-.6c0-1.9.4-3.6,1.1-5.1s1.7-2.6,3-3.5,2.7-1.3,4.2-1.3c2.5,0,4.4.8,5.8,2.4s2.1,4,2.1,7v1.4h-12.9c0,1.9.6,3.4,1.6,4.5s2.4,1.7,4,1.7c1.1,0,2.1-.2,2.9-.7s1.5-1.1,2.1-1.9l2,1.5c-1.6,2.6-4,3.9-7.2,3.9Zm-.4-17.1c-1.3,0-2.4.5-3.3,1.4s-1.4,2.3-1.7,4h9.5v-.2c-.1-1.7-.5-2.9-1.3-3.8s-1.9-1.4-3.2-1.4Z" fill="#c9d1d9"/>
    <path d="m846.4,402.9h-3.3v-27h3.3v27Z" fill="#c9d1d9"/>
    <path d="m850.7,393.2c0-1.9.4-3.5,1.1-5s1.8-2.6,3.1-3.4,2.8-1.2,4.5-1.2c2.6,0,4.7.9,6.3,2.7s2.4,4.2,2.4,7.2v.2c0,1.9-.4,3.5-1.1,5s-1.7,2.6-3,3.4-2.8,1.2-4.5,1.2c-2.6,0-4.7-.9-6.3-2.7s-2.4-4.2-2.4-7.1v-.3h-.1Zm3.3.4c0,2.1.5,3.8,1.5,5.1s2.3,1.9,3.9,1.9c1.7,0,3-.6,3.9-1.9s1.5-3.1,1.5-5.4c0-2.1-.5-3.8-1.5-5.1s-2.3-1.9-3.9-1.9-2.9.6-3.9,1.9-1.5,3-1.5,5.4Z" fill="#c9d1d9"/>
    <path d="m879.8,400.6c1.2,0,2.2-.4,3-1.1s1.3-1.6,1.4-2.6h3.1c-.1,1.1-.4,2.1-1.1,3.1s-1.6,1.8-2.8,2.4-2.4.9-3.7.9c-2.6,0-4.6-.9-6.2-2.6s-2.3-4.1-2.3-7.1v-.6c0-1.9.3-3.5,1-4.9s1.7-2.6,2.9-3.4,2.8-1.2,4.5-1.2c2.1,0,3.9.6,5.3,1.9s2.2,2.9,2.3,5h-3.1c-.1-1.2-.6-2.2-1.4-3s-1.9-1.2-3.1-1.2c-1.7,0-2.9.6-3.8,1.8s-1.4,2.9-1.4,5.2v.6c0,2.2.5,3.9,1.4,5.1s2.3,1.7,4,1.7Z" fill="#c9d1d9"/>
    <path d="m891,378.9c0-.5.2-1,.5-1.3s.8-.5,1.4-.5,1.1.2,1.4.5.5.8.5,1.3-.2,1-.5,1.3-.8.5-1.4.5-1.1-.2-1.4-.5-.5-.8-.5-1.3Zm3.5,24h-3.3v-19h3.3v19Z" fill="#c9d1d9"/>
    <path d="m904.1,379.3v4.6h3.6v2.5h-3.6v11.8c0,.8.2,1.3.5,1.7.3.4.9.6,1.6.6.4,0,.9-.1,1.5-.2v2.6c-.9.2-1.7.3-2.5.3-1.5,0-2.5-.4-3.3-1.3s-1.1-2.1-1.1-3.7v-11.8h-3.5v-2.5h3.5v-4.6h3.3Z" fill="#c9d1d9"/>
    <path d="m917.7,398.2l4.4-14.3h3.5l-7.6,22c-1.2,3.2-3.1,4.7-5.6,4.7l-.6-.1-1.2-.2v-2.6l.9.1c1.1,0,2-.2,2.6-.7s1.1-1.3,1.5-2.4l.7-1.9-6.8-18.8h3.6l4.6,14.2Z" fill="#c9d1d9"/>
  </g>
  <g isolation="isolate">
    <path d="m1889.1,32.9v10h-3.4v-25.6h9.4c2.8,0,5,.7,6.6,2.1s2.4,3.3,2.4,5.7c0,2.5-.8,4.4-2.3,5.7-1.5,1.3-3.8,2-6.7,2h-6v.1Zm0-2.8h6.1c1.8,0,3.2-.4,4.1-1.3,1-.9,1.4-2.1,1.4-3.7,0-1.5-.5-2.7-1.4-3.7-1-.9-2.3-1.4-4-1.4h-6.3v10.1h.1Z" fill="#c9d1d9"/>
  </g>
  <g isolation="isolate">
    <path d="m1917.2,26.8c-.5-.1-1-.1-1.6-.1-2.1,0-3.6.9-4.3,2.7v13.5h-3.3v-19h3.2l.1,2.2c1.1-1.7,2.6-2.5,4.5-2.5.6,0,1.1.1,1.4.2v3h0Z" fill="#c9d1d9"/>
  </g>
  <g isolation="isolate">
    <path d="m1927.7,43.3c-2.6,0-4.7-.8-6.3-2.5s-2.4-4-2.4-6.8v-.6c0-1.9.4-3.6,1.1-5.1s1.7-2.6,3-3.5,2.7-1.3,4.2-1.3c2.5,0,4.4.8,5.8,2.4s2.1,4,2.1,7v1.4h-12.9c0,1.9.6,3.4,1.6,4.5s2.4,1.7,4,1.7c1.1,0,2.1-.2,2.9-.7s1.5-1.1,2.1-1.9l2,1.5c-1.6,2.6-4,3.9-7.2,3.9Zm-.4-17.1c-1.3,0-2.4.5-3.3,1.4s-1.4,2.3-1.7,4h9.5v-.2c-.1-1.7-.5-2.9-1.3-3.8s-1.8-1.4-3.2-1.4Z" fill="#c9d1d9"/>
    <path d="m1950,37.9c0-.9-.3-1.6-1-2s-1.8-.9-3.5-1.3-3-.8-3.9-1.3-1.7-1.1-2.1-1.8-.7-1.5-.7-2.4c0-1.6.7-2.9,2-4s3-1.6,5.1-1.6c2.2,0,3.9.6,5.2,1.7s2,2.5,2,4.3h-3.3c0-.9-.4-1.7-1.1-2.3s-1.7-1-2.9-1-2.1.3-2.8.8-1,1.2-1,2,.3,1.4.9,1.8,1.7.8,3.4,1.1,2.9.8,3.9,1.3,1.8,1.1,2.2,1.8.7,1.6.7,2.6c0,1.7-.7,3.1-2,4.1s-3.1,1.5-5.3,1.5c-1.5,0-2.9-.3-4-.8s-2.1-1.3-2.8-2.3-1-2-1-3.1h3.3c.1,1.1.5,2,1.3,2.6s1.9,1,3.2,1c1.2,0,2.2-.2,3-.7s1.2-1.2,1.2-2Z" fill="#c9d1d9"/>
    <path d="m1968.5,37.9c0-.9-.3-1.6-1-2s-1.8-.9-3.5-1.3-3-.8-3.9-1.3-1.7-1.1-2.1-1.8-.7-1.5-.7-2.4c0-1.6.7-2.9,2-4s3-1.6,5.1-1.6c2.2,0,3.9.6,5.2,1.7s2,2.5,2,4.3h-3.3c0-.9-.4-1.7-1.1-2.3s-1.7-1-2.9-1-2.1.3-2.8.8-1,1.2-1,2,.3,1.4.9,1.8,1.7.8,3.4,1.1,2.9.8,3.9,1.3,1.8,1.1,2.2,1.8.7,1.6.7,2.6c0,1.7-.7,3.1-2,4.1s-3.1,1.5-5.3,1.5c-1.5,0-2.9-.3-4-.8s-2.1-1.3-2.8-2.3-1-2-1-3.1h3.3c.1,1.1.5,2,1.3,2.6s1.9,1,3.2,1c1.2,0,2.2-.2,3-.7s1.2-1.2,1.2-2Z" fill="#c9d1d9"/>
    <path d="m1987.8,41c-1.3,1.5-3.1,2.2-5.6,2.2-2,0-3.6-.6-4.6-1.8s-1.6-2.9-1.6-5.2v-12.3h3.3v12.3c0,2.9,1.2,4.3,3.5,4.3,2.5,0,4.1-.9,5-2.8v-13.8h3.3v19h-3.1l-.2-1.9Z" fill="#c9d1d9"/>
  </g>
  <g isolation="isolate">
    <path d="m2005.1,26.8c-.5-.1-1-.1-1.6-.1-2.1,0-3.6.9-4.3,2.7v13.5h-3.3v-19h3.2l.1,2.2c1.1-1.7,2.6-2.5,4.5-2.5.6,0,1.1.1,1.4.2v3h0Z" fill="#c9d1d9"/>
  </g>
  <g isolation="isolate">
    <path d="m2015.6,43.3c-2.6,0-4.7-.8-6.3-2.5s-2.4-4-2.4-6.8v-.6c0-1.9.4-3.6,1.1-5.1s1.7-2.6,3-3.5,2.7-1.3,4.2-1.3c2.5,0,4.4.8,5.8,2.4s2.1,4,2.1,7v1.4h-12.9c0,1.9.6,3.4,1.6,4.5s2.4,1.7,4,1.7c1.1,0,2.1-.2,2.9-.7s1.5-1.1,2.1-1.9l2,1.5c-1.6,2.6-4,3.9-7.2,3.9Zm-.4-17.1c-1.3,0-2.4.5-3.3,1.4s-1.4,2.3-1.7,4h9.5v-.2c-.1-1.7-.5-2.9-1.3-3.8s-1.8-1.4-3.2-1.4Z" fill="#c9d1d9"/>
  </g>
  <g isolation="isolate">
    <path d="m1894.2,398.4l7.3-21.1h3.7l-9.5,25.6h-3l-9.5-25.6h3.7l7.3,21.1Z" fill="#c9d1d9"/>
  </g>
  <g isolation="isolate">
    <path d="m1915.3,403.3c-2.6,0-4.7-.8-6.3-2.5s-2.4-4-2.4-6.8v-.6c0-1.9.4-3.6,1.1-5.1s1.7-2.6,3-3.5,2.7-1.3,4.2-1.3c2.5,0,4.4.8,5.8,2.4s2.1,4,2.1,7v1.4h-12.9c0,1.9.6,3.4,1.6,4.5s2.4,1.7,4,1.7c1.1,0,2.1-.2,2.9-.7s1.5-1.1,2.1-1.9l2,1.5c-1.6,2.6-4,3.9-7.2,3.9Zm-.4-17.1c-1.3,0-2.4.5-3.3,1.4s-1.4,2.3-1.7,4h9.5v-.2c-.1-1.7-.5-2.9-1.3-3.8s-1.9-1.4-3.2-1.4Z" fill="#c9d1d9"/>
    <path d="m1930,402.9h-3.3v-27h3.3v27Z" fill="#c9d1d9"/>
    <path d="m1934.3,393.2c0-1.9.4-3.5,1.1-5s1.8-2.6,3.1-3.4,2.8-1.2,4.5-1.2c2.6,0,4.7.9,6.3,2.7s2.4,4.2,2.4,7.2v.2c0,1.9-.4,3.5-1.1,5s-1.7,2.6-3,3.4-2.8,1.2-4.5,1.2c-2.6,0-4.7-.9-6.3-2.7s-2.4-4.2-2.4-7.1v-.3h-.1Zm3.3.4c0,2.1.5,3.8,1.5,5.1s2.3,1.9,3.9,1.9c1.7,0,3-.6,3.9-1.9s1.5-3.1,1.5-5.4c0-2.1-.5-3.8-1.5-5.1s-2.3-1.9-3.9-1.9-2.9.6-3.9,1.9-1.5,3-1.5,5.4Z" fill="#c9d1d9"/>
    <path d="m1963.4,400.6c1.2,0,2.2-.4,3-1.1s1.3-1.6,1.4-2.6h3.1c-.1,1.1-.4,2.1-1.1,3.1s-1.6,1.8-2.8,2.4-2.4.9-3.7.9c-2.6,0-4.6-.9-6.2-2.6s-2.3-4.1-2.3-7.1v-.6c0-1.9.3-3.5,1-4.9s1.7-2.6,2.9-3.4,2.8-1.2,4.5-1.2c2.1,0,3.9.6,5.3,1.9s2.2,2.9,2.3,5h-3.1c-.1-1.2-.6-2.2-1.4-3s-1.9-1.2-3.1-1.2c-1.7,0-2.9.6-3.8,1.8s-1.4,2.9-1.4,5.2v.6c0,2.2.5,3.9,1.4,5.1s2.3,1.7,4,1.7Z" fill="#c9d1d9"/>
    <path d="m1974.6,378.9c0-.5.2-1,.5-1.3s.8-.5,1.4-.5,1.1.2,1.4.5.5.8.5,1.3-.2,1-.5,1.3-.8.5-1.4.5-1.1-.2-1.4-.5-.5-.8-.5-1.3Zm3.5,24h-3.3v-19h3.3v19Z" fill="#c9d1d9"/>
    <path d="m1987.7,379.3v4.6h3.6v2.5h-3.6v11.8c0,.8.2,1.3.5,1.7.3.4.9.6,1.6.6.4,0,.9-.1,1.5-.2v2.6c-.9.2-1.7.3-2.5.3-1.5,0-2.5-.4-3.3-1.3s-1.1-2.1-1.1-3.7v-11.8h-3.5v-2.5h3.5v-4.6h3.3Z" fill="#c9d1d9"/>
    <path d="m2001.3,398.2l4.4-14.3h3.5l-7.6,22c-1.2,3.2-3.1,4.7-5.6,4.7l-.6-.1-1.2-.2v-2.6l.9.1c1.1,0,2-.2,2.6-.7s1.1-1.3,1.5-2.4l.7-1.9-6.8-18.8h3.6l4.6,14.2Z" fill="#c9d1d9"/>
  </g>
</svg>