<?xml version="1.0" encoding="utf-8"?>
<!-- Generator: Adobe Illustrator 27.4.1, SVG Export Plug-In . SVG Version: 6.00 Build 0)  -->
<svg version="1.1" id="Ebene_1" xmlns="http://www.w3.org/2000/svg" xmlns:xlink="http://www.w3.org/1999/xlink" x="0px" y="0px"
	 viewBox="0 0 2800.8 1512" style="enable-background:new 0 0 2800.8 1512;" xml:space="preserve">
<style type="text/css">
	.st0{fill:none;stroke:#C9D1D9;stroke-width:4;stroke-miterlimit:10;}
	.st1{opacity:0.2;fill:#C9D1D9;stroke:#C9D1D9;stroke-width:4;stroke-miterlimit:10;enable-background:new    ;}
	.st2{opacity:0.2;fill:#C9D1D9;stroke:#C9D1D9;stroke-width:3;stroke-miterlimit:10;enable-background:new    ;}
	.st3{fill:none;stroke:#C9D1D9;stroke-width:8;stroke-miterlimit:10;}
	.st4{fill:#C9D1D9;}
</style>
<path class="st0" d="M464.4,1324.8c138,0,138,108,276,108s138-108,276-108s138,108,276,108s138-108,276-108s138,108,276,108
	s138-108,276-108"/>
<path class="st0" d="M464.4,1360.8c138,0,138,108,276,108s138-108,276-108s138,108,276,108s138-108,276-108s138,108,276,108
	s138-108,276-108"/>
<path class="st0" d="M464.4,1396.8c138,0,138,108,276,108s138-108,276-108s138,108,276,108s138-108,276-108s138,108,276,108
	s138-108,276-108"/>
<path class="st0" d="M464.4,1216.8c138,0,138,108,276,108s138-108,276-108s138,108,276,108s138-108,276-108s138,108,276,108
	s138-108,276-108"/>
<path class="st0" d="M464.4,1252.8c138,0,138,108,276,108s138-108,276-108s138,108,276,108s138-108,276-108s138,108,276,108
	s138-108,276-108"/>
<path class="st0" d="M464.4,1288.8c138,0,138,108,276,108s138-108,276-108s138,108,276,108s138-108,276-108s138,108,276,108
	s138-108,276-108"/>
<path class="st0" d="M464.4,1108.8c138,0,138,108,276,108s138-108,276-108s138,108,276,108s138-108,276-108s138,108,276,108
	s138-108,276-108"/>
<path class="st0" d="M464.4,1144.8c138,0,138,108,276,108s138-108,276-108s138,108,276,108s138-108,276-108s138,108,276,108
	s138-108,276-108"/>
<path class="st0" d="M464.4,1180.8c138,0,138,108,276,108s138-108,276-108s138,108,276,108s138-108,276-108s138,108,276,108
	s138-108,276-108"/>
<path class="st0" d="M464.4,1000.8c138,0,138,108,276,108s138-108,276-108s138,108,276,108s138-108,276-108s138,108,276,108
	s138-108,276-108"/>
<path class="st0" d="M464.4,1036.8c138,0,138,108,276,108s138-108,276-108s138,108,276,108s138-108,276-108s138,108,276,108
	s138-108,276-108"/>
<path class="st0" d="M464.4,1072.8c138,0,138,108,276,108s138-108,276-108s138,108,276,108s138-108,276-108s138,108,276,108
	s138-108,276-108"/>
<line class="st0" x1="2120.4" y1="1396.8" x2="2329.2" y2="1209.6"/>
<line class="st0" x1="2120.4" y1="1360.8" x2="2329.2" y2="1173.6"/>
<line class="st0" x1="2120.4" y1="1324.8" x2="2329.2" y2="1137.6"/>
<line class="st0" x1="2120.4" y1="1288.8" x2="2329.2" y2="1101.6"/>
<line class="st0" x1="2120.4" y1="1252.8" x2="2329.2" y2="1065.6"/>
<line class="st0" x1="2120.4" y1="1216.8" x2="2329.2" y2="1029.6"/>
<line class="st0" x1="2120.4" y1="1180.8" x2="2329.2" y2="993.6"/>
<line class="st0" x1="2120.4" y1="1144.8" x2="2329.2" y2="957.6"/>
<line class="st0" x1="2120.4" y1="1108.8" x2="2329.2" y2="921.6"/>
<line class="st0" x1="2120.4" y1="1072.8" x2="2329.2" y2="885.6"/>
<line class="st0" x1="2120.4" y1="1036.8" x2="2329.2" y2="849.6"/>
<line class="st0" x1="2120.4" y1="1000.8" x2="2329.2" y2="813.6"/>
<line class="st0" x1="464.4" y1="1000.8" x2="464.4" y2="1396.8"/>
<line class="st0" x1="500.4" y1="1003.6" x2="500.4" y2="1399.6"/>
<line class="st0" x1="536.4" y1="1013.4" x2="536.4" y2="1409.4"/>
<line class="st0" x1="572.4" y1="1032.5" x2="572.4" y2="1428.5"/>
<line class="st0" x1="608.4" y1="1059.5" x2="608.4" y2="1455.5"/>
<line class="st0" x1="644.4" y1="1084.6" x2="644.4" y2="1480.6"/>
<line class="st0" x1="680.4" y1="1100.4" x2="680.4" y2="1496.4"/>
<line class="st0" x1="716.4" y1="1107.6" x2="716.4" y2="1503.6"/>
<line class="st0" x1="752.4" y1="1108.5" x2="752.4" y2="1504.5"/>
<line class="st0" x1="788.4" y1="1103.7" x2="788.4" y2="1499.7"/>
<line class="st0" x1="824.4" y1="1090.8" x2="824.4" y2="1486.9"/>
<line class="st0" x1="860.4" y1="1068.6" x2="860.4" y2="1464.6"/>
<line class="st0" x1="896.4" y1="1041" x2="896.4" y2="1437"/>
<line class="st0" x1="932.4" y1="1018.7" x2="932.4" y2="1414.8"/>
<line class="st0" x1="968.4" y1="1005.9" x2="968.4" y2="1401.9"/>
<line class="st0" x1="1004.4" y1="1001.1" x2="1004.4" y2="1396.8"/>
<line class="st0" x1="1040.4" y1="1002" x2="1040.4" y2="1398"/>
<line class="st0" x1="1076.4" y1="1009.2" x2="1076.4" y2="1405.2"/>
<line class="st0" x1="1112.4" y1="1025.1" x2="1112.4" y2="1421.1"/>
<line class="st0" x1="1148.4" y1="1050.1" x2="1148.4" y2="1446.1"/>
<line class="st0" x1="1184.4" y1="1077.1" x2="1184.4" y2="1473.1"/>
<line class="st0" x1="1220.4" y1="1096.2" x2="1220.4" y2="1492.2"/>
<line class="st0" x1="1256.4" y1="1106" x2="1256.4" y2="1502"/>
<line class="st0" x1="1292.4" y1="1108.8" x2="1292.4" y2="1504.8"/>
<line class="st0" x1="1328.4" y1="1106" x2="1328.4" y2="1502"/>
<line class="st0" x1="1364.4" y1="1096.2" x2="1364.4" y2="1492.2"/>
<line class="st0" x1="1400.4" y1="1077.1" x2="1400.4" y2="1473.1"/>
<line class="st0" x1="1436.4" y1="1050.1" x2="1436.4" y2="1446.1"/>
<line class="st0" x1="1472.4" y1="1025.1" x2="1472.4" y2="1421.1"/>
<line class="st0" x1="1508.4" y1="1009.2" x2="1508.4" y2="1405.2"/>
<line class="st0" x1="1544.4" y1="1002" x2="1544.4" y2="1398"/>
<line class="st0" x1="1580.4" y1="1001.1" x2="1580.4" y2="1397.1"/>
<line class="st0" x1="1616.4" y1="1005.9" x2="1616.4" y2="1401.9"/>
<line class="st0" x1="1652.4" y1="1018.7" x2="1652.4" y2="1414.8"/>
<line class="st0" x1="1688.4" y1="1041" x2="1688.4" y2="1437"/>
<line class="st0" x1="1724.4" y1="1068.6" x2="1724.4" y2="1464.6"/>
<line class="st0" x1="1760.4" y1="1090.9" x2="1760.4" y2="1486.9"/>
<line class="st0" x1="1796.4" y1="1103.7" x2="1796.4" y2="1499.7"/>
<line class="st0" x1="1832.4" y1="1108.5" x2="1832.4" y2="1504.8"/>
<line class="st0" x1="1868.4" y1="1107.6" x2="1868.4" y2="1503.6"/>
<line class="st0" x1="1904.4" y1="1100.4" x2="1904.4" y2="1496.4"/>
<line class="st0" x1="1940.4" y1="1084.6" x2="1940.4" y2="1480.6"/>
<line class="st0" x1="1976.4" y1="1059.5" x2="1976.4" y2="1455.5"/>
<line class="st0" x1="2012.4" y1="1032.5" x2="2012.4" y2="1428.5"/>
<line class="st0" x1="2048.4" y1="1013.4" x2="2048.4" y2="1409.4"/>
<line class="st0" x1="2084.4" y1="1003.6" x2="2084.4" y2="1399.6"/>
<line class="st0" x1="2120.4" y1="1000.8" x2="2120.4" y2="1396.8"/>
<line class="st0" x1="2084.4" y1="1003.6" x2="2293.2" y2="816.4"/>
<line class="st0" x1="2048.4" y1="1013.4" x2="2257.2" y2="826.2"/>
<line class="st0" x1="2012.4" y1="1032.5" x2="2221.2" y2="845.3"/>
<line class="st0" x1="1976.4" y1="1059.5" x2="2185.2" y2="872.3"/>
<line class="st0" x1="1940.4" y1="1084.6" x2="2149.2" y2="897.3"/>
<line class="st0" x1="1904.4" y1="1100.4" x2="2113.2" y2="913.2"/>
<line class="st0" x1="1868.4" y1="1107.6" x2="2077.2" y2="920.4"/>
<line class="st0" x1="1832.4" y1="1108.5" x2="2041.2" y2="921.3"/>
<line class="st0" x1="1796.4" y1="1103.7" x2="2005.2" y2="916.5"/>
<line class="st0" x1="1760.4" y1="1090.9" x2="1969.2" y2="903.7"/>
<line class="st0" x1="1724.4" y1="1068.6" x2="1933.2" y2="881.4"/>
<line class="st0" x1="1688.4" y1="1041" x2="1897.2" y2="853.8"/>
<line class="st0" x1="1652.4" y1="1018.7" x2="1861.2" y2="831.5"/>
<line class="st0" x1="1616.4" y1="1005.9" x2="1825.2" y2="818.7"/>
<line class="st0" x1="1580.4" y1="1001.1" x2="1789.2" y2="813.9"/>
<line class="st0" x1="1544.4" y1="1002" x2="1753.2" y2="814.8"/>
<line class="st0" x1="1508.4" y1="1009.2" x2="1717.2" y2="822"/>
<line class="st0" x1="1472.4" y1="1025" x2="1681.2" y2="837.8"/>
<line class="st0" x1="1436.4" y1="1050.1" x2="1645.2" y2="862.9"/>
<line class="st0" x1="1292.4" y1="1108.8" x2="1501.2" y2="921.6"/>
<line class="st0" x1="1328.4" y1="1106" x2="1537.2" y2="918.8"/>
<line class="st0" x1="1364.4" y1="1096.2" x2="1573.2" y2="909"/>
<line class="st0" x1="1400.4" y1="1077.1" x2="1609.2" y2="889.9"/>
<line class="st0" x1="1436.4" y1="1050.1" x2="1645.2" y2="862.9"/>
<line class="st0" x1="1256.4" y1="1106" x2="1465.2" y2="918.8"/>
<line class="st0" x1="1220.4" y1="1096.2" x2="1429.2" y2="909"/>
<line class="st0" x1="1184.4" y1="1077.1" x2="1393.2" y2="889.9"/>
<line class="st0" x1="1148.4" y1="1050.1" x2="1357.2" y2="862.9"/>
<line class="st0" x1="1112.4" y1="1025.1" x2="1321.2" y2="837.8"/>
<line class="st0" x1="1076.4" y1="1009.2" x2="1285.2" y2="822"/>
<line class="st0" x1="1040.4" y1="1002" x2="1249.2" y2="814.8"/>
<line class="st0" x1="1004.4" y1="1001.1" x2="1213.2" y2="813.9"/>
<line class="st0" x1="968.4" y1="1005.9" x2="1177.2" y2="818.7"/>
<line class="st0" x1="932.4" y1="1018.7" x2="1141.2" y2="831.5"/>
<line class="st0" x1="896.4" y1="1041" x2="1105.2" y2="853.8"/>
<line class="st0" x1="860.4" y1="1068.6" x2="1069.2" y2="881.4"/>
<line class="st0" x1="824.4" y1="1090.8" x2="1033.2" y2="903.6"/>
<line class="st0" x1="788.4" y1="1103.7" x2="997.2" y2="916.5"/>
<line class="st0" x1="752.4" y1="1108.5" x2="961.2" y2="921.3"/>
<line class="st0" x1="716.4" y1="1107.6" x2="925.2" y2="920.4"/>
<line class="st0" x1="680.4" y1="1100.4" x2="889.2" y2="913.2"/>
<line class="st0" x1="644.4" y1="1084.6" x2="853.2" y2="897.3"/>
<line class="st0" x1="608.4" y1="1059.5" x2="817.2" y2="872.3"/>
<line class="st0" x1="572.4" y1="1032.5" x2="781.2" y2="845.3"/>
<line class="st0" x1="536.4" y1="1013.4" x2="745.2" y2="826.2"/>
<line class="st0" x1="500.4" y1="1003.6" x2="709.2" y2="816.4"/>
<line class="st0" x1="464.4" y1="1000.8" x2="673.2" y2="813.6"/>
<path class="st0" d="M673.2,813.6c138,0,138,108,276,108s138-108,276-108s138,108,276,108s138-108,276-108s138,108,276,108
	s138-108,276-108"/>
<line class="st0" x1="2329.2" y1="813.6" x2="2329.2" y2="1209.6"/>
<polyline class="st1" points="2120.4,1000.8 2329.2,813.6 2329.2,1209.6 2329.2,1209.6 2120.4,1396.8 2120.4,1396.8 2120.4,1000.8 
	"/>
<line class="st0" x1="2192.4" y1="590.4" x2="2401.2" y2="403.2"/>
<line class="st0" x1="2192.4" y1="554.4" x2="2401.2" y2="367.2"/>
<line class="st0" x1="2192.4" y1="518.4" x2="2401.2" y2="331.2"/>
<line class="st0" x1="2192.4" y1="482.4" x2="2401.2" y2="295.2"/>
<line class="st0" x1="2192.4" y1="446.4" x2="2401.2" y2="259.2"/>
<line class="st0" x1="2192.4" y1="410.4" x2="2401.2" y2="223.2"/>
<line class="st0" x1="2192.4" y1="374.4" x2="2401.2" y2="187.2"/>
<line class="st0" x1="2192.4" y1="338.4" x2="2401.2" y2="151.2"/>
<line class="st0" x1="2192.4" y1="302.4" x2="2401.2" y2="115.2"/>
<line class="st0" x1="2192.4" y1="266.4" x2="2401.2" y2="79.2"/>
<line class="st0" x1="2192.4" y1="230.4" x2="2401.2" y2="43.2"/>
<polyline class="st2" points="2192.4,194.4 2401.2,7.2 2401.2,403.2 2401.2,403.2 2192.4,590.4 2192.4,590.4 2192.4,194.4 "/>
<line class="st0" x1="464.4" y1="590.4" x2="2192.4" y2="590.4"/>
<line class="st0" x1="673.5" y1="194.4" x2="673.5" y2="590.4"/>
<line class="st0" x1="706.4" y1="194.4" x2="706.4" y2="590.4"/>
<line class="st0" x1="731.5" y1="194.4" x2="731.5" y2="590.4"/>
<line class="st0" x1="746.2" y1="194.4" x2="746.2" y2="590.4"/>
<line class="st0" x1="751.3" y1="194.4" x2="753.1" y2="590.4"/>
<line class="st0" x1="634.4" y1="194.4" x2="634.4" y2="590.4"/>
<line class="st0" x1="587.5" y1="194.4" x2="587.5" y2="590.4"/>
<line class="st0" x1="530.3" y1="194.4" x2="530.3" y2="590.4"/>
<line class="st0" x1="464.4" y1="194.4" x2="464.4" y2="590.4"/>
<line class="st0" x1="751.3" y1="194.4" x2="960.1" y2="7.2"/>
<line class="st0" x1="746.2" y1="194.4" x2="955" y2="7.2"/>
<line class="st0" x1="731.5" y1="194.4" x2="940.2" y2="7.2"/>
<line class="st0" x1="706.4" y1="194.4" x2="915.2" y2="7.2"/>
<line class="st0" x1="673.5" y1="194.4" x2="882.3" y2="7.2"/>
<line class="st0" x1="634.4" y1="194.4" x2="843.2" y2="7.2"/>
<line class="st0" x1="587.5" y1="194.4" x2="796.3" y2="7.2"/>
<line class="st0" x1="530.3" y1="194.4" x2="739.1" y2="7.2"/>
<line class="st0" x1="464.5" y1="194.4" x2="673.3" y2="7.2"/>
<line class="st0" x1="831" y1="590.4" x2="831" y2="194.4"/>
<line class="st0" x1="798.1" y1="590.4" x2="798.1" y2="194.4"/>
<line class="st0" x1="773" y1="590.4" x2="773" y2="194.4"/>
<line class="st0" x1="758.3" y1="590.4" x2="758.3" y2="194.4"/>
<line class="st0" x1="870" y1="590.4" x2="870" y2="194.4"/>
<line class="st0" x1="916.9" y1="590.4" x2="916.9" y2="194.4"/>
<line class="st0" x1="974.2" y1="590.4" x2="974.2" y2="194.4"/>
<line class="st0" x1="1040.1" y1="590.4" x2="1040.1" y2="194.4"/>
<line class="st0" x1="967.1" y1="7.2" x2="758.3" y2="194.4"/>
<line class="st0" x1="981.8" y1="7.2" x2="773" y2="194.4"/>
<line class="st0" x1="1006.9" y1="7.2" x2="798.1" y2="194.4"/>
<line class="st0" x1="1039.8" y1="7.2" x2="831" y2="194.4"/>
<line class="st0" x1="1078.8" y1="7.2" x2="870" y2="194.4"/>
<line class="st0" x1="1125.7" y1="7.2" x2="916.9" y2="194.4"/>
<line class="st0" x1="1183" y1="7.2" x2="974.2" y2="194.4"/>
<line class="st0" x1="1248.7" y1="7.2" x2="1039.9" y2="194.4"/>
<line class="st0" x1="1249.1" y1="194.4" x2="1249.1" y2="590.4"/>
<line class="st0" x1="1282" y1="194.4" x2="1282" y2="590.4"/>
<line class="st0" x1="1307.1" y1="194.4" x2="1307.1" y2="590.4"/>
<line class="st0" x1="1321.8" y1="194.4" x2="1321.8" y2="590.4"/>
<line class="st0" x1="1327" y1="194.4" x2="1328.8" y2="590.4"/>
<line class="st0" x1="1210.1" y1="194.4" x2="1210.1" y2="590.4"/>
<line class="st0" x1="1163.2" y1="194.4" x2="1163.2" y2="590.4"/>
<line class="st0" x1="1106" y1="194.4" x2="1106" y2="590.4"/>
<line class="st0" x1="1327" y1="194.4" x2="1535.8" y2="7.2"/>
<line class="st0" x1="1321.8" y1="194.4" x2="1530.6" y2="7.2"/>
<line class="st0" x1="1307.1" y1="194.4" x2="1515.9" y2="7.2"/>
<line class="st0" x1="1282" y1="194.4" x2="1490.8" y2="7.2"/>
<line class="st0" x1="1249.1" y1="194.4" x2="1457.9" y2="7.2"/>
<line class="st0" x1="1210.1" y1="194.4" x2="1418.9" y2="7.2"/>
<line class="st0" x1="1163.2" y1="194.4" x2="1372" y2="7.2"/>
<line class="st0" x1="1106" y1="194.4" x2="1314.8" y2="7.2"/>
<line class="st0" x1="1040.1" y1="194.4" x2="1248.9" y2="7.2"/>
<line class="st0" x1="1406.7" y1="590.4" x2="1406.7" y2="194.4"/>
<line class="st0" x1="1373.8" y1="590.4" x2="1373.8" y2="194.4"/>
<line class="st0" x1="1348.7" y1="590.4" x2="1348.7" y2="194.4"/>
<line class="st0" x1="1334" y1="590.4" x2="1334" y2="194.4"/>
<line class="st0" x1="1445.7" y1="590.4" x2="1445.7" y2="194.4"/>
<line class="st0" x1="1492.6" y1="590.4" x2="1492.6" y2="194.4"/>
<line class="st0" x1="1549.8" y1="590.4" x2="1549.8" y2="194.4"/>
<line class="st0" x1="1615.7" y1="590.4" x2="1615.7" y2="194.4"/>
<line class="st0" x1="1542.8" y1="7.2" x2="1334" y2="194.4"/>
<line class="st0" x1="1557.5" y1="7.2" x2="1348.7" y2="194.4"/>
<line class="st0" x1="1582.6" y1="7.2" x2="1373.8" y2="194.4"/>
<line class="st0" x1="1615.5" y1="7.2" x2="1406.7" y2="194.4"/>
<line class="st0" x1="1654.5" y1="7.2" x2="1445.7" y2="194.4"/>
<line class="st0" x1="1701.4" y1="7.2" x2="1492.6" y2="194.4"/>
<line class="st0" x1="1758.6" y1="7.2" x2="1549.8" y2="194.4"/>
<line class="st0" x1="1824.5" y1="7.2" x2="1615.7" y2="194.4"/>
<line class="st0" x1="1824.8" y1="194.4" x2="1824.8" y2="590.4"/>
<line class="st0" x1="1857.7" y1="194.4" x2="1857.7" y2="590.4"/>
<line class="st0" x1="1882.8" y1="194.4" x2="1882.8" y2="590.4"/>
<line class="st0" x1="1897.5" y1="194.4" x2="1897.5" y2="590.4"/>
<line class="st0" x1="1902.7" y1="194.4" x2="1904.5" y2="590.4"/>
<line class="st0" x1="1785.8" y1="194.4" x2="1785.8" y2="590.4"/>
<line class="st0" x1="1738.9" y1="194.4" x2="1738.9" y2="590.4"/>
<line class="st0" x1="1681.6" y1="194.4" x2="1681.6" y2="590.4"/>
<line class="st0" x1="1615.7" y1="194.4" x2="1615.7" y2="590.4"/>
<line class="st0" x1="1902.7" y1="194.4" x2="2111.5" y2="7.2"/>
<line class="st0" x1="1897.5" y1="194.4" x2="2106.3" y2="7.2"/>
<line class="st0" x1="1882.8" y1="194.4" x2="2091.6" y2="7.2"/>
<line class="st0" x1="1857.7" y1="194.4" x2="2066.5" y2="7.2"/>
<line class="st0" x1="1824.8" y1="194.4" x2="2033.6" y2="7.2"/>
<line class="st0" x1="1785.8" y1="194.4" x2="1994.6" y2="7.2"/>
<line class="st0" x1="1738.9" y1="194.4" x2="1947.7" y2="7.2"/>
<line class="st0" x1="1681.6" y1="194.4" x2="1890.4" y2="7.2"/>
<line class="st0" x1="1982.3" y1="590.4" x2="1982.3" y2="194.4"/>
<line class="st0" x1="1949.4" y1="590.4" x2="1949.4" y2="194.4"/>
<line class="st0" x1="1924.3" y1="590.4" x2="1924.3" y2="194.4"/>
<line class="st0" x1="1909.6" y1="590.4" x2="1909.6" y2="194.4"/>
<line class="st0" x1="2021.4" y1="590.4" x2="2021.4" y2="194.4"/>
<line class="st0" x1="2068.3" y1="590.4" x2="2068.3" y2="194.4"/>
<line class="st0" x1="2125.5" y1="590.4" x2="2125.5" y2="194.4"/>
<line class="st0" x1="2118.4" y1="7.2" x2="1909.6" y2="194.4"/>
<line class="st0" x1="2133.1" y1="7.2" x2="1924.3" y2="194.4"/>
<line class="st0" x1="2158.2" y1="7.2" x2="1949.4" y2="194.4"/>
<line class="st0" x1="2191.1" y1="7.2" x2="1982.3" y2="194.4"/>
<line class="st0" x1="2230.2" y1="7.2" x2="2021.4" y2="194.4"/>
<line class="st0" x1="2277.1" y1="7.2" x2="2068.3" y2="194.4"/>
<line class="st0" x1="2334.3" y1="7.2" x2="2125.5" y2="194.4"/>
<line class="st0" x1="464.4" y1="554.4" x2="2192.4" y2="554.4"/>
<line class="st0" x1="464.4" y1="518.4" x2="2192.4" y2="518.4"/>
<line class="st0" x1="464.4" y1="482.4" x2="2192.4" y2="482.4"/>
<line class="st0" x1="464.4" y1="446.4" x2="2192.4" y2="446.4"/>
<line class="st0" x1="464.4" y1="410.4" x2="2192.4" y2="410.4"/>
<line class="st0" x1="464.4" y1="374.4" x2="2192.4" y2="374.4"/>
<line class="st0" x1="464.4" y1="338.4" x2="2192.4" y2="338.4"/>
<line class="st0" x1="464.4" y1="302.4" x2="2192.4" y2="302.4"/>
<line class="st0" x1="464.4" y1="266.4" x2="2192.4" y2="266.4"/>
<line class="st0" x1="464.4" y1="230.4" x2="2192.4" y2="230.4"/>
<line class="st0" x1="464.4" y1="194.4" x2="2192.4" y2="194.4"/>
<line class="st0" x1="673.2" y1="7.2" x2="2401.2" y2="7.2"/>
<line class="st0" x1="2192.4" y1="194.4" x2="2401.2" y2="7.2"/>
<line class="st0" x1="2192.4" y1="590.4" x2="2192.4" y2="194.4"/>
<line class="st0" x1="2401.2" y1="403.2" x2="2401.2" y2="7.2"/>
<g>
	<line class="st3" x1="240.6" y1="1311.5" x2="240.6" y2="1086.1"/>
	<polygon class="st4" points="263.8,1295.7 240.6,1382.4 217.4,1295.7 	"/>
	<polygon class="st4" points="263.8,1101.9 240.6,1015.2 217.4,1101.9 	"/>
</g>
<g>
	<line class="st3" x1="1907.5" y1="702" x2="2413.1" y2="702"/>
	<polygon class="st4" points="2397.3,725.2 2484,702 2397.3,678.8 	"/>
</g>
<g>
	<line class="st3" x1="127.9" y1="392.4" x2="353.3" y2="392.4"/>
	<polygon class="st4" points="143.7,415.6 57,392.4 143.7,369.2 	"/>
	<polygon class="st4" points="337.5,415.6 424.2,392.4 337.5,369.2 	"/>
</g>
<g>
	<path class="st4" d="M1084.4,732.7v-70.3h21.2c8.3,0,15,1.4,20.3,4.2c5.3,2.8,9.2,6.8,11.7,12c2.5,5.2,3.8,11.4,3.8,18.5
		c0,8.1-1.5,14.7-4.5,20c-3,5.3-7.2,9.2-12.7,11.8c-5.5,2.6-11.9,3.9-19.3,3.9H1084.4z M1093.2,725.5h10.9
		c18.6,0,27.9-9.3,27.9-27.9c0-5.7-0.9-10.6-2.8-14.8c-1.8-4.2-4.8-7.4-8.7-9.7c-4-2.3-9.2-3.4-15.7-3.4h-11.6V725.5z"/>
	<path class="st4" d="M1158.2,671.2c-1.9,0-3.5-0.7-4.8-2c-1.3-1.3-2-2.9-2-4.8c0-1.9,0.7-3.5,2-4.9c1.3-1.3,2.9-2,4.8-2
		c1.9,0,3.5,0.7,4.9,2s2,2.9,2,4.9c0,1.9-0.7,3.5-2,4.8C1161.7,670.5,1160.1,671.2,1158.2,671.2z M1154.1,732.7V680h8.2v52.7H1154.1
		z"/>
	<path class="st4" d="M1178.3,732.7V680h7.7v11.2l-0.3-1.3c1.6-3.6,3.9-6.4,7.1-8.3c3.1-1.9,6.3-2.8,9.5-2.8c0.9,0,1.9,0.1,2.8,0.2
		c0.9,0.2,1.7,0.4,2.5,0.8l-1.1,7.7c-1.8-0.6-3.6-0.8-5.3-0.8c-1.1,0-2.5,0.2-4.1,0.7c-1.6,0.4-3.3,1.3-4.9,2.6s-3,3.3-4.1,5.9
		c-1.1,2.6-1.6,6.1-1.6,10.4v26.4H1178.3z"/>
	<path class="st4" d="M1236.8,733.9c-5,0-9.4-1.1-13-3.4s-6.5-5.4-8.5-9.5c-2-4.1-3-9-3-14.6c0-5.6,1-10.5,3-14.6
		c2-4.1,4.8-7.3,8.4-9.6s7.9-3.4,12.7-3.4c2.8,0,5.6,0.4,8.4,1.3c2.8,0.9,5.4,2.4,7.7,4.6c2.3,2.2,4.2,5.2,5.6,9
		c1.4,3.8,2.1,8.7,2.1,14.5h-42.7v-6.6h35.6l-2.3,3.1c-0.2-4.6-0.9-8.3-2.2-11.1c-1.3-2.8-3.1-4.8-5.2-6.1c-2.1-1.3-4.5-1.9-7.1-1.9
		c-3.1,0-5.8,0.8-8,2.4s-4,4-5.2,7.1c-1.2,3.1-1.8,6.9-1.8,11.3c0,6.6,1.3,11.7,4,15.2c2.7,3.6,6.5,5.4,11.5,5.4
		c3.5,0,6.5-0.9,9-2.7c2.4-1.8,4.2-4.4,5.3-7.8l8.1,2.7c-1.3,3.1-3,5.7-5.1,7.8c-2.1,2.2-4.6,3.8-7.5,5
		C1243.7,733.3,1240.4,733.9,1236.8,733.9z"/>
	<path class="st4" d="M1295.3,733.9c-4.9,0-9.2-1.1-12.8-3.4s-6.4-5.4-8.3-9.5c-2-4.1-2.9-9-2.9-14.6c0-5.6,1-10.5,2.9-14.6
		c2-4.1,4.7-7.3,8.3-9.5s7.9-3.4,12.8-3.4c3.8,0,7.2,0.7,10.1,2.1c3,1.4,5.5,3.4,7.6,6c2.1,2.6,3.6,5.7,4.6,9.4l-8.3,2.2
		c-0.9-4.1-2.5-7.3-4.9-9.4c-2.4-2.2-5.4-3.3-9-3.3c-4.9,0-8.6,1.8-11.2,5.4c-2.6,3.6-3.9,8.7-3.9,15.3c0,6.6,1.3,11.8,3.9,15.3
		c2.6,3.6,6.4,5.4,11.2,5.4c3.6,0,6.6-1.1,8.9-3.2c2.3-2.1,4-5.2,4.9-9.3l8.3,2.3c-0.8,2.7-1.9,5-3.2,7.1c-1.4,2.1-3,3.9-4.9,5.3
		c-1.9,1.5-4,2.6-6.3,3.3C1300.7,733.5,1298.1,733.9,1295.3,733.9z"/>
	<path class="st4" d="M1339.7,732.7c-2.1,0-3.9-0.7-5.5-2.1c-1.6-1.4-2.3-3.1-2.3-5.2v-38.6h-8.5V680h8.5v-11l8.2-1.8V680h10.4v6.8
		h-10.4v36.4c0,1.1,0.2,1.8,0.5,2.1c0.3,0.4,1,0.5,2,0.5h8.1v6.8H1339.7z"/>
	<path class="st4" d="M1366.6,671.2c-1.9,0-3.5-0.7-4.8-2c-1.3-1.3-2-2.9-2-4.8c0-1.9,0.7-3.5,2-4.9c1.3-1.3,2.9-2,4.8-2
		c1.9,0,3.5,0.7,4.9,2s2,2.9,2,4.9c0,1.9-0.7,3.5-2,4.8C1370.1,670.5,1368.5,671.2,1366.6,671.2z M1362.5,732.7V680h8.2v52.7H1362.5
		z"/>
	<path class="st4" d="M1408,733.9c-4.9,0-9.3-1.2-13.1-3.5c-3.8-2.3-6.7-5.6-8.8-9.7c-2.1-4.1-3.2-8.9-3.2-14.4
		c0-5.4,1.1-10.2,3.2-14.4c2.1-4.1,5.1-7.4,8.8-9.7c3.8-2.3,8.1-3.5,13.1-3.5c4.9,0,9.3,1.2,13.1,3.5c3.8,2.3,6.7,5.6,8.8,9.7
		c2.1,4.1,3.2,8.9,3.2,14.4c0,5.4-1.1,10.2-3.2,14.4c-2.1,4.1-5.1,7.4-8.8,9.7C1417.4,732.7,1413,733.9,1408,733.9z M1408,727.1
		c5,0,8.9-1.9,11.8-5.6s4.3-8.8,4.3-15.1c0-6.4-1.4-11.5-4.3-15.2c-2.9-3.7-6.8-5.5-11.8-5.5s-8.9,1.8-11.8,5.5
		c-2.9,3.7-4.3,8.7-4.3,15.2c0,6.4,1.4,11.4,4.3,15.1S1403.1,727.1,1408,727.1z"/>
	<path class="st4" d="M1445.4,732.7V680h7.7v11.9l-0.3-2.1c1.4-3,3.6-5.6,6.6-7.7c3-2.1,6.7-3.2,11-3.2c3.7,0,7,0.8,9.7,2.5
		c2.7,1.7,4.8,4,6.2,7.1s2.2,6.8,2.2,11.1v33.2h-8.2v-32.6c0-4.3-0.9-7.8-2.7-10.5c-1.8-2.7-4.7-4-8.8-4c-4.4,0-8,1.7-11,5
		c-2.9,3.3-4.4,8.2-4.4,14.5v27.6H1445.4z"/>
	<path class="st4" d="M1550.8,733.9c-4.9,0-9.3-1.2-13.1-3.5c-3.8-2.3-6.7-5.6-8.8-9.7c-2.1-4.1-3.2-8.9-3.2-14.4
		c0-5.4,1.1-10.2,3.2-14.4c2.1-4.1,5.1-7.4,8.8-9.7c3.8-2.3,8.1-3.5,13.1-3.5c4.9,0,9.3,1.2,13.1,3.5c3.8,2.3,6.7,5.6,8.8,9.7
		c2.1,4.1,3.2,8.9,3.2,14.4c0,5.4-1.1,10.2-3.2,14.4c-2.1,4.1-5.1,7.4-8.8,9.7C1560.1,732.7,1555.7,733.9,1550.8,733.9z
		 M1550.8,727.1c5,0,8.9-1.9,11.8-5.6s4.3-8.8,4.3-15.1c0-6.4-1.4-11.5-4.3-15.2c-2.9-3.7-6.8-5.5-11.8-5.5s-8.9,1.8-11.8,5.5
		c-2.9,3.7-4.3,8.7-4.3,15.2c0,6.4,1.4,11.4,4.3,15.1S1545.8,727.1,1550.8,727.1z"/>
	<path class="st4" d="M1582.5,686.8V680h27.9v6.8H1582.5z M1590.4,732.7v-62.3c0-3.9,0.9-6.7,2.8-8.4c1.9-1.7,5-2.5,9.3-2.5h6.6v6.8
		h-7.8c-1,0-1.7,0.2-2.1,0.6c-0.4,0.4-0.6,1.1-0.6,2.1v63.7H1590.4z"/>
	<path class="st4" d="M1656.9,732.7l-14.6-52.7h8.7l12.5,48.7h-1.5l12.5-48.7h10.5l12.7,49.1h-1.8l12.6-49.1h8.7l-14.6,52.7h-11.5
		l-12.1-47.2h1.5l-12.1,47.2H1656.9z"/>
	<path class="st4" d="M1740.3,733.9c-3.5,0-6.6-0.7-9.2-2s-4.6-3.2-6-5.5c-1.4-2.3-2.1-5-2.1-8c0-3.2,0.9-6.1,2.8-8.7
		c1.9-2.7,4.7-4.8,8.6-6.4c3.9-1.6,8.9-2.4,15-2.4h8.8l-0.9,0.9v-2.9c0-4.2-0.8-7.5-2.5-9.7c-1.7-2.3-4.5-3.4-8.5-3.4
		c-3.7,0-6.6,1-8.6,2.9c-2,1.9-3.1,4.5-3.2,7.8l-9.2-2.1c0.3-2.8,1.4-5.4,3.2-7.7c1.9-2.3,4.4-4.2,7.5-5.6c3.1-1.4,6.8-2.1,10.9-2.1
		c4.3,0,7.7,0.8,10.4,2.4s4.7,3.9,5.9,7s1.9,6.7,1.9,10.9v24.1c0,1.1,0.2,1.8,0.5,2.1c0.3,0.4,1,0.5,2,0.5h3v6.8h-5.2
		c-2.2,0-4.1-0.7-5.6-2.1c-1.5-1.4-2.2-3.1-2.2-5.2v-3.7h1.2c-0.5,1.4-1.3,2.8-2.2,4.2s-2.2,2.7-3.7,4c-1.5,1.2-3.3,2.2-5.3,3
		C1745.4,733.5,1743,733.9,1740.3,733.9z M1742.2,727.1c2.7,0,5.2-0.7,7.5-2c2.3-1.3,4.2-3.4,5.6-6.3c1.4-2.8,2.1-6.6,2.1-11.1v-0.4
		h-8.3c-4.3,0-7.7,0.6-10.2,1.7c-2.5,1.1-4.3,2.5-5.3,4.2c-1,1.7-1.6,3.3-1.6,5s0.4,3.2,1.1,4.5c0.7,1.3,1.9,2.4,3.4,3.2
		C1738.1,726.7,1739.9,727.1,1742.2,727.1z"/>
	<path class="st4" d="M1793.2,732.7l-19.8-52.7h9.1l16.7,48.1h-1.6l16.7-48.1h9.1l-19.7,52.7H1793.2z"/>
	<path class="st4" d="M1853.7,733.9c-5,0-9.4-1.1-13-3.4s-6.5-5.4-8.5-9.5c-2-4.1-3-9-3-14.6c0-5.6,1-10.5,3-14.6
		c2-4.1,4.8-7.3,8.4-9.6s7.9-3.4,12.7-3.4c2.8,0,5.6,0.4,8.4,1.3c2.8,0.9,5.4,2.4,7.7,4.6c2.3,2.2,4.2,5.2,5.6,9
		c1.4,3.8,2.1,8.7,2.1,14.5h-42.7v-6.6h35.6l-2.3,3.1c-0.2-4.6-0.9-8.3-2.2-11.1c-1.3-2.8-3.1-4.8-5.2-6.1c-2.1-1.3-4.5-1.9-7.1-1.9
		c-3.1,0-5.8,0.8-8,2.4s-4,4-5.2,7.1c-1.2,3.1-1.8,6.9-1.8,11.3c0,6.6,1.3,11.7,4,15.2c2.7,3.6,6.5,5.4,11.5,5.4
		c3.5,0,6.5-0.9,9-2.7c2.4-1.8,4.2-4.4,5.3-7.8l8.1,2.7c-1.3,3.1-3,5.7-5.1,7.8c-2.1,2.2-4.6,3.8-7.5,5
		C1860.5,733.3,1857.3,733.9,1853.7,733.9z"/>
</g>
<g>
	<path class="st4" d="M73,653.9v-70.3h25.3c8.2,0,14.3,1.7,18.4,5c4.1,3.4,6.2,8.2,6.2,14.6c0,6.2-2,11-6.1,14.5
		c-4.1,3.4-10.3,5.1-18.6,5.1H81.8v31.2H73z M81.8,615.5h16.6c5.1,0,8.9-1.1,11.6-3.3c2.7-2.2,4-5.2,4-8.9c0-3.4-1.2-6.3-3.6-8.8
		c-2.4-2.5-6.4-3.7-12-3.7H81.8V615.5z"/>
	<path class="st4" d="M146.1,655.1c-3.5,0-6.6-0.7-9.2-2s-4.6-3.2-6-5.5c-1.4-2.3-2.1-5-2.1-8c0-3.2,0.9-6.1,2.8-8.7
		c1.9-2.7,4.7-4.8,8.6-6.4c3.9-1.6,8.9-2.4,15-2.4h8.8l-0.9,0.9V620c0-4.2-0.8-7.5-2.5-9.7c-1.7-2.3-4.5-3.4-8.5-3.4
		c-3.7,0-6.6,1-8.6,2.9c-2,1.9-3.1,4.5-3.2,7.8l-9.2-2.1c0.3-2.8,1.4-5.4,3.2-7.7c1.9-2.3,4.4-4.2,7.5-5.6c3.1-1.4,6.8-2.1,10.9-2.1
		c4.3,0,7.7,0.8,10.4,2.4s4.7,3.9,5.9,7s1.9,6.7,1.9,10.9v24.1c0,1.1,0.2,1.8,0.5,2.1c0.3,0.4,1,0.5,2,0.5h3v6.8h-5.2
		c-2.2,0-4.1-0.7-5.6-2.1c-1.5-1.4-2.2-3.1-2.2-5.2v-3.7h1.2c-0.5,1.4-1.3,2.8-2.2,4.2s-2.2,2.7-3.7,4c-1.5,1.2-3.3,2.2-5.3,3
		C151.2,654.7,148.8,655.1,146.1,655.1z M148,648.3c2.7,0,5.2-0.7,7.5-2c2.3-1.3,4.2-3.4,5.6-6.3c1.4-2.8,2.1-6.6,2.1-11.1v-0.4H155
		c-4.3,0-7.7,0.6-10.2,1.7c-2.5,1.1-4.3,2.5-5.3,4.2c-1,1.7-1.6,3.3-1.6,5s0.4,3.2,1.1,4.5c0.7,1.3,1.9,2.4,3.4,3.2
		C143.9,647.9,145.8,648.3,148,648.3z"/>
	<path class="st4" d="M187.7,653.9v-52.7h7.7v11.2l-0.3-1.3c1.6-3.6,3.9-6.4,7.1-8.3c3.1-1.9,6.3-2.8,9.5-2.8c0.9,0,1.9,0.1,2.8,0.2
		c0.9,0.2,1.7,0.4,2.5,0.8l-1.1,7.7c-1.8-0.6-3.6-0.8-5.3-0.8c-1.1,0-2.5,0.2-4.1,0.7c-1.6,0.4-3.3,1.3-4.9,2.6s-3,3.3-4.1,5.9
		c-1.1,2.6-1.6,6.1-1.6,10.4v26.4H187.7z"/>
	<path class="st4" d="M239.2,653.9c-2.1,0-3.9-0.7-5.5-2.1c-1.6-1.4-2.3-3.1-2.3-5.2V608h-8.5v-6.8h8.5v-11l8.2-1.8v12.8H250v6.8
		h-10.4v36.4c0,1.1,0.2,1.8,0.5,2.1c0.3,0.4,1,0.5,2,0.5h8.1v6.8H239.2z"/>
	<path class="st4" d="M266,592.3c-1.9,0-3.5-0.7-4.8-2c-1.3-1.3-2-2.9-2-4.8c0-1.9,0.7-3.5,2-4.9c1.3-1.3,2.9-2,4.8-2
		c1.9,0,3.5,0.7,4.9,2s2,2.9,2,4.9c0,1.9-0.7,3.5-2,4.8C269.6,591.7,267.9,592.3,266,592.3z M261.9,653.9v-52.7h8.2v52.7H261.9z"/>
	<path class="st4" d="M306.8,655.1c-4.9,0-9.2-1.1-12.8-3.4s-6.4-5.4-8.3-9.5c-2-4.1-2.9-9-2.9-14.6c0-5.6,1-10.5,2.9-14.6
		c2-4.1,4.7-7.3,8.3-9.5s7.9-3.4,12.8-3.4c3.8,0,7.2,0.7,10.1,2.1c3,1.4,5.5,3.4,7.6,6c2.1,2.6,3.6,5.7,4.6,9.4l-8.3,2.2
		c-0.9-4.1-2.5-7.3-4.9-9.4c-2.4-2.2-5.4-3.3-9-3.3c-4.9,0-8.6,1.8-11.2,5.4c-2.6,3.6-3.9,8.7-3.9,15.3c0,6.6,1.3,11.8,3.9,15.3
		c2.6,3.6,6.4,5.4,11.2,5.4c3.6,0,6.6-1.1,8.9-3.2c2.3-2.1,4-5.2,4.9-9.3l8.3,2.3c-0.8,2.7-1.9,5-3.2,7.1c-1.4,2.1-3,3.9-4.9,5.3
		c-1.9,1.5-4,2.6-6.3,3.3C312.2,654.7,309.6,655.1,306.8,655.1z"/>
	<path class="st4" d="M348.6,653.9c-2.1,0-3.9-0.7-5.5-2.1c-1.6-1.4-2.3-3.1-2.3-5.2v-65.9h8.2v63.7c0,1.1,0.2,1.8,0.5,2.1
		c0.3,0.4,1,0.5,2,0.5h5.1v6.8H348.6z"/>
	<path class="st4" d="M388.2,655.1c-5,0-9.4-1.1-13-3.4s-6.5-5.4-8.5-9.5c-2-4.1-3-9-3-14.6c0-5.6,1-10.5,3-14.6
		c2-4.1,4.8-7.3,8.4-9.6s7.9-3.4,12.7-3.4c2.8,0,5.6,0.4,8.4,1.3c2.8,0.9,5.4,2.4,7.7,4.6c2.3,2.2,4.2,5.2,5.6,9
		c1.4,3.8,2.1,8.7,2.1,14.5H369v-6.6h35.6l-2.3,3.1c-0.2-4.6-0.9-8.3-2.2-11.1c-1.3-2.8-3.1-4.8-5.2-6.1c-2.1-1.3-4.5-1.9-7.1-1.9
		c-3.1,0-5.8,0.8-8,2.4s-4,4-5.2,7.1c-1.2,3.1-1.8,6.9-1.8,11.3c0,6.6,1.3,11.7,4,15.2c2.7,3.6,6.5,5.4,11.5,5.4
		c3.5,0,6.5-0.9,9-2.7c2.4-1.8,4.2-4.4,5.3-7.8l8.1,2.7c-1.3,3.1-3,5.7-5.1,7.8c-2.1,2.2-4.6,3.8-7.5,5
		C395,654.5,391.8,655.1,388.2,655.1z"/>
	<path class="st4" d="M2.9,773.9v-52.7h7.7v9c1.2-2.7,3.3-5.1,6.2-7.2c2.9-2,6.3-3.1,10.2-3.1c3.5,0,6.5,1,9.1,2.9s4.5,4.6,5.8,8.1
		c1.7-3.2,3.9-5.9,6.8-7.9c2.9-2,6.2-3.1,10.1-3.1c5,0,9,1.8,12,5.5c2.9,3.7,4.4,8.7,4.4,15.2v33.2H67v-32.6c0-3-0.3-5.6-0.9-7.7
		c-0.6-2.2-1.6-3.8-3.1-5s-3.3-1.8-5.8-1.8c-2.7,0-5.1,0.8-7.2,2.3c-2.1,1.5-3.8,3.7-5,6.6c-1.2,2.9-1.8,6.4-1.8,10.6v27.6h-8.2
		v-32.6c0-3-0.3-5.6-0.9-7.7c-0.6-2.2-1.6-3.8-3-5c-1.4-1.2-3.3-1.8-5.7-1.8c-2.7,0-5.1,0.7-7.2,2.2c-2.1,1.5-3.8,3.7-5.1,6.6
		c-1.2,2.9-1.9,6.4-1.9,10.6v27.6H2.9z"/>
	<path class="st4" d="M112,775.1c-4.9,0-9.3-1.2-13.1-3.5c-3.8-2.3-6.7-5.6-8.8-9.7c-2.1-4.1-3.2-8.9-3.2-14.4
		c0-5.4,1.1-10.2,3.2-14.4c2.1-4.1,5.1-7.4,8.8-9.7c3.8-2.3,8.1-3.5,13.1-3.5c4.9,0,9.3,1.2,13.1,3.5c3.8,2.3,6.7,5.6,8.8,9.7
		c2.1,4.1,3.2,8.9,3.2,14.4c0,5.4-1.1,10.2-3.2,14.4c-2.1,4.1-5.1,7.4-8.8,9.7C121.3,773.9,117,775.1,112,775.1z M112,768.3
		c5,0,8.9-1.9,11.8-5.6s4.3-8.8,4.3-15.1c0-6.4-1.4-11.5-4.3-15.2c-2.9-3.7-6.8-5.5-11.8-5.5s-8.9,1.8-11.8,5.5
		c-2.9,3.7-4.3,8.7-4.3,15.2c0,6.4,1.4,11.4,4.3,15.1S107.1,768.3,112,768.3z"/>
	<path class="st4" d="M162.5,773.9l-19.8-52.7h9.1l16.7,48.1h-1.6l16.7-48.1h9.1l-19.7,52.7H162.5z"/>
	<path class="st4" d="M222.9,775.1c-5,0-9.4-1.1-13-3.4s-6.5-5.4-8.5-9.5c-2-4.1-3-9-3-14.6c0-5.6,1-10.5,3-14.6
		c2-4.1,4.8-7.3,8.4-9.6s7.9-3.4,12.7-3.4c2.8,0,5.6,0.4,8.4,1.3c2.8,0.9,5.4,2.4,7.7,4.6c2.3,2.2,4.2,5.2,5.6,9
		c1.4,3.8,2.1,8.7,2.1,14.5h-42.7v-6.6h35.6l-2.3,3.1c-0.2-4.6-0.9-8.3-2.2-11.1c-1.3-2.8-3.1-4.8-5.2-6.1c-2.1-1.3-4.5-1.9-7.1-1.9
		c-3.1,0-5.8,0.8-8,2.4s-4,4-5.2,7.1c-1.2,3.1-1.8,6.9-1.8,11.3c0,6.6,1.3,11.7,4,15.2c2.7,3.6,6.5,5.4,11.5,5.4
		c3.5,0,6.5-0.9,9-2.7c2.4-1.8,4.2-4.4,5.3-7.8l8.1,2.7c-1.3,3.1-3,5.7-5.1,7.8c-2.1,2.2-4.6,3.8-7.5,5
		C229.8,774.5,226.5,775.1,222.9,775.1z"/>
	<path class="st4" d="M258.9,773.9v-52.7h7.7v9c1.2-2.7,3.3-5.1,6.2-7.2c2.9-2,6.3-3.1,10.2-3.1c3.5,0,6.5,1,9.1,2.9
		s4.5,4.6,5.8,8.1c1.7-3.2,3.9-5.9,6.8-7.9c2.9-2,6.2-3.1,10.1-3.1c5,0,9,1.8,12,5.5c2.9,3.7,4.4,8.7,4.4,15.2v33.2h-8.2v-32.6
		c0-3-0.3-5.6-0.9-7.7c-0.6-2.2-1.6-3.8-3.1-5s-3.3-1.8-5.8-1.8c-2.7,0-5.1,0.8-7.2,2.3c-2.1,1.5-3.8,3.7-5,6.6
		c-1.2,2.9-1.8,6.4-1.8,10.6v27.6h-8.2v-32.6c0-3-0.3-5.6-0.9-7.7c-0.6-2.2-1.6-3.8-3-5c-1.4-1.2-3.3-1.8-5.7-1.8
		c-2.7,0-5.1,0.7-7.2,2.2c-2.1,1.5-3.8,3.7-5.1,6.6c-1.2,2.9-1.9,6.4-1.9,10.6v27.6H258.9z"/>
	<path class="st4" d="M367.5,775.1c-5,0-9.4-1.1-13-3.4s-6.5-5.4-8.5-9.5c-2-4.1-3-9-3-14.6c0-5.6,1-10.5,3-14.6
		c2-4.1,4.8-7.3,8.4-9.6s7.9-3.4,12.7-3.4c2.8,0,5.6,0.4,8.4,1.3c2.8,0.9,5.4,2.4,7.7,4.6c2.3,2.2,4.2,5.2,5.6,9
		c1.4,3.8,2.1,8.7,2.1,14.5h-42.7v-6.6h35.6l-2.3,3.1c-0.2-4.6-0.9-8.3-2.2-11.1c-1.3-2.8-3.1-4.8-5.2-6.1c-2.1-1.3-4.5-1.9-7.1-1.9
		c-3.1,0-5.8,0.8-8,2.4s-4,4-5.2,7.1c-1.2,3.1-1.8,6.9-1.8,11.3c0,6.6,1.3,11.7,4,15.2c2.7,3.6,6.5,5.4,11.5,5.4
		c3.5,0,6.5-0.9,9-2.7c2.4-1.8,4.2-4.4,5.3-7.8l8.1,2.7c-1.3,3.1-3,5.7-5.1,7.8c-2.1,2.2-4.6,3.8-7.5,5
		C374.3,774.5,371.1,775.1,367.5,775.1z"/>
	<path class="st4" d="M403.4,773.9v-52.7h7.7v11.9l-0.3-2.1c1.4-3,3.6-5.6,6.6-7.7c3-2.1,6.7-3.2,11-3.2c3.7,0,7,0.8,9.7,2.5
		c2.7,1.7,4.8,4,6.2,7.1s2.2,6.8,2.2,11.1v33.2h-8.2v-32.6c0-4.3-0.9-7.8-2.7-10.5c-1.8-2.7-4.7-4-8.8-4c-4.4,0-8,1.7-11,5
		c-2.9,3.3-4.4,8.2-4.4,14.5v27.6H403.4z"/>
	<path class="st4" d="M471.5,773.9c-2.1,0-3.9-0.7-5.5-2.1c-1.6-1.4-2.3-3.1-2.3-5.2V728h-8.5v-6.8h8.5v-11l8.2-1.8v12.8h10.4v6.8
		h-10.4v36.4c0,1.1,0.2,1.8,0.5,2.1c0.3,0.4,1,0.5,2,0.5h8.1v6.8H471.5z"/>
</g>
</svg>
