<?xml version="1.0" encoding="UTF-8"?>
<svg id="Ebene_1" data-name="Ebene 1" xmlns="http://www.w3.org/2000/svg" width="2059.2" height="1051.2" viewBox="0 0 2059.2 1051.2">
  <g>
    <circle cx="1234.8" cy="590.4" r="46.8" fill="none" stroke="#c9d1d9" stroke-miterlimit="10" stroke-width="8.5"/>
    <line x1="1234.8" y1="496.8" x2="1234.8" y2="554.4" fill="none" stroke="#c9d1d9" stroke-miterlimit="10" stroke-width="5.67"/>
  </g>
  <path d="m1954.8,496.8c-10-1-19.6-4.3-27.2-9.8-18.9-13.6-18.9-35.5,0-49.1,19-13.6,68.6-3.7,68.6.1s-49.7,13.7-68.6.1-18.9-35.5,0-49.1c19-13.6,68.6-3.7,68.6.1s-49.7,13.7-68.6.1-18.9-35.5,0-49.1c19-13.6,68.6-3.7,68.6.1s-49.7,13.7-68.6.1-18.9-35.5,0-49.1c19-13.6,68.6-3.7,68.6.1s-49.7,13.7-68.6.1-18.9-35.5,0-49.1c19-13.6,68.6-3.7,68.6.1s-49.7,13.7-68.6.1-18.9-35.5,0-49.1c19-13.6,68.6-3.7,68.6.1s-49.7,13.7-68.6.1c-18.9-13.6-18.9-35.5,0-49.1,19-13.6,68.6-3.7,68.6.1s-49.7,13.7-68.6.1c-18.9-13.6-18.9-35.5,0-49.1,7.7-5.5,17.3-8.8,27.2-9.8" fill="none" stroke="#c9d1d9" stroke-miterlimit="10" stroke-width="5.67"/>
  <line x1="514.8" y1="54" x2="514.8" y2="86.4" fill="none" stroke="#c9d1d9" stroke-miterlimit="10" stroke-width="5.67"/>
  <g>
    <circle cx="1954.8" cy="590.4" r="46.8" fill="none" stroke="#c9d1d9" stroke-miterlimit="10" stroke-width="8.5"/>
    <line x1="1954.8" y1="496.8" x2="1954.8" y2="554.4" fill="none" stroke="#c9d1d9" stroke-miterlimit="10" stroke-width="5.67"/>
  </g>
  <g>
    <circle cx="1594.8" cy="878.4" r="46.8" fill="none" stroke="#c9d1d9" stroke-miterlimit="10" stroke-width="8.5"/>
    <line x1="1594.8" y1="784.8" x2="1594.8" y2="842.4" fill="none" stroke="#c9d1d9" stroke-miterlimit="10" stroke-width="5.67"/>
  </g>
  <path d="m1594.8,784.8c-10-1.8-19.6-7.3-27.2-16.7-18.9-23.1-18.9-60.5,0-83.5,19-23.2,68.6-6.2,68.6.2,0,6.5-49.7,23.4-68.6.2-18.9-23.1-18.9-60.5,0-83.5,19-23.2,68.6-6.2,68.6.2,0,6.5-49.7,23.4-68.6.2-18.9-23.1-18.9-60.5,0-83.5,19-23.1,68.6-6.2,68.6.2s-49.7,23.4-68.6.2c-18.9-23.1-18.9-60.5,0-83.5,19-23.1,68.6-6.2,68.6.2,0,6.5-49.7,23.4-68.6.2-18.9-23.1-18.9-60.5,0-83.5,19-23.1,68.6-6.2,68.6.2,0,6.5-49.7,23.4-68.6.2-18.9-23.1-18.9-60.5,0-83.5,19-23.1,68.6-6.2,68.6.2,0,6.5-49.7,23.4-68.6.2-18.9-23.1-18.9-60.5,0-83.5,19-23.1,68.6-6.2,68.6.2,0,6.5-49.7,23.4-68.6.2-18.9-23.1-18.9-60.5,0-83.5,7.7-9.4,17.3-14.9,27.2-16.7" fill="none" stroke="#c9d1d9" stroke-miterlimit="10" stroke-width="5.67"/>
  <path d="m1234.8,496.8c-10-1-19.6-4.3-27.2-9.8-18.9-13.6-18.9-35.5,0-49.1,19-13.6,68.6-3.7,68.6.1s-49.7,13.7-68.6.1-18.9-35.5,0-49.1c19-13.6,68.6-3.7,68.6.1s-49.7,13.7-68.6.1-18.9-35.5,0-49.1c19-13.6,68.6-3.7,68.6.1s-49.7,13.7-68.6.1-18.9-35.5,0-49.1c19-13.6,68.6-3.7,68.6.1s-49.7,13.7-68.6.1-18.9-35.5,0-49.1c19-13.6,68.6-3.7,68.6.1s-49.7,13.7-68.6.1-18.9-35.5,0-49.1c19-13.6,68.6-3.7,68.6.1s-49.7,13.7-68.6.1c-18.9-13.6-18.9-35.5,0-49.1,19-13.6,68.6-3.7,68.6.1s-49.7,13.7-68.6.1c-18.9-13.6-18.9-35.5,0-49.1,7.7-5.5,17.3-8.8,27.2-9.8" fill="none" stroke="#c9d1d9" stroke-miterlimit="10" stroke-width="5.67"/>
  <path d="m874.8,208.8c-10-.3-19.6-1.3-27.2-2.9-18.9-4-18.9-10.6,0-14.6,19-4.1,68.6-1.1,68.6,0s-49.7,4.1-68.6,0-18.9-10.6,0-14.6,68.6-1.1,68.6,0-49.7,4.1-68.6,0c-18.9-4-18.9-10.6,0-14.6,19-4.1,68.6-1.1,68.6,0s-49.7,4.1-68.6,0-18.9-10.6,0-14.6,68.6-1.1,68.6,0-49.7,4.1-68.6,0c-18.9-4-18.9-10.6,0-14.6,19-4.1,68.6-1.1,68.6,0s-49.7,4.1-68.6,0c-18.9-4-18.9-10.6,0-14.6,19-4.1,68.6-1.1,68.6,0s-49.7,4.1-68.6,0c-18.9-4-18.9-10.6,0-14.6,19-4.1,68.6-1.1,68.6,0s-49.7,4.1-68.6,0c-18.9-4-18.9-10.6,0-14.6,7.7-1.6,17.3-2.6,27.2-2.9" fill="none" stroke="#c9d1d9" stroke-miterlimit="10" stroke-width="5.67"/>
  <g>
    <circle cx="874.8" cy="302.4" r="46.8" fill="none" stroke="#c9d1d9" stroke-miterlimit="10" stroke-width="8.5"/>
    <line x1="874.8" y1="208.8" x2="874.8" y2="266.4" fill="none" stroke="#c9d1d9" stroke-miterlimit="10" stroke-width="5.67"/>
  </g>
  <g>
    <circle cx="1774.8" cy="794.6" r="46.8" fill="none" stroke="#c9d1d9" stroke-miterlimit="10" stroke-width="8.5"/>
    <line x1="1774.8" y1="701" x2="1774.8" y2="758.6" fill="none" stroke="#c9d1d9" stroke-miterlimit="10" stroke-width="5.67"/>
  </g>
  <g>
    <circle cx="1414.8" cy="794.6" r="46.8" fill="none" stroke="#c9d1d9" stroke-miterlimit="10" stroke-width="8.5"/>
    <line x1="1414.8" y1="701" x2="1414.8" y2="758.6" fill="none" stroke="#c9d1d9" stroke-miterlimit="10" stroke-width="5.67"/>
  </g>
  <path d="m1774.8,701c-10-1.5-19.6-6.5-27.2-14.7-18.9-20.3-18.9-53.2,0-73.5,19-20.4,68.6-5.5,68.6.2s-49.7,20.6-68.6.2c-18.9-20.3-18.9-53.2,0-73.5,19-20.4,68.6-5.5,68.6.2s-49.7,20.6-68.6.2c-18.9-20.3-18.9-53.2,0-73.5,19-20.4,68.6-5.5,68.6.2s-49.7,20.6-68.6.2c-18.9-20.3-18.9-53.2,0-73.5,19-20.4,68.6-5.5,68.6.2s-49.7,20.6-68.6.2c-18.9-20.3-18.9-53.2,0-73.5,19-20.4,68.6-5.5,68.6.2s-49.7,20.6-68.6.2c-18.9-20.3-18.9-53.2,0-73.5,19-20.4,68.6-5.5,68.6.2s-49.7,20.6-68.6.2c-18.9-20.3-18.9-53.2,0-73.5,19-20.4,68.6-5.5,68.6.2s-49.7,20.6-68.6.2-18.9-53.2,0-73.5c7.7-8.2,17.3-13.1,27.2-14.7" fill="none" stroke="#c9d1d9" stroke-miterlimit="10" stroke-width="5.67"/>
  <path d="m1414.8,701c-10-1.5-19.6-6.5-27.2-14.7-18.9-20.3-18.9-53.2,0-73.5,19-20.4,68.6-5.5,68.6.2s-49.7,20.6-68.6.2c-18.9-20.3-18.9-53.2,0-73.5,19-20.4,68.6-5.5,68.6.2s-49.7,20.6-68.6.2c-18.9-20.3-18.9-53.2,0-73.5,19-20.4,68.6-5.5,68.6.2s-49.7,20.6-68.6.2c-18.9-20.3-18.9-53.2,0-73.5,19-20.4,68.6-5.5,68.6.2s-49.7,20.6-68.6.2c-18.9-20.3-18.9-53.2,0-73.5,19-20.4,68.6-5.5,68.6.2s-49.7,20.6-68.6.2c-18.9-20.3-18.9-53.2,0-73.5,19-20.4,68.6-5.5,68.6.2s-49.7,20.6-68.6.2-18.9-53.2,0-73.5c19-20.4,68.6-5.5,68.6.2s-49.7,20.6-68.6.2c-18.9-20.3-18.9-53.2,0-73.5,7.7-8.2,17.3-13.1,27.2-14.7" fill="none" stroke="#c9d1d9" stroke-miterlimit="10" stroke-width="5.67"/>
  <path d="m1054.8,292.9c-10-.5-19.6-2.2-27.2-4.9-18.9-6.8-18.9-17.9,0-24.7,19-6.9,68.6-1.8,68.6.1s-49.7,6.9-68.6.1-18.9-17.9,0-24.7c19-6.9,68.6-1.8,68.6.1s-49.7,6.9-68.6.1c-18.9-6.8-18.9-17.9,0-24.7s68.6-1.8,68.6.1-49.7,6.9-68.6.1c-18.9-6.8-18.9-17.9,0-24.7,19-6.9,68.6-1.8,68.6.1s-49.7,6.9-68.6.1c-18.9-6.8-18.9-17.9,0-24.7,19-6.9,68.6-1.8,68.6.1s-49.7,6.9-68.6.1c-18.9-6.8-18.9-17.9,0-24.7,19-6.9,68.6-1.8,68.6.1s-49.7,6.9-68.6.1c-18.9-6.8-18.9-17.9,0-24.7,19-6.8,68.6-1.8,68.6.1s-49.7,6.9-68.6.1-18.9-17.9,0-24.7c7.7-2.8,17.3-4.4,27.2-4.9" fill="none" stroke="#c9d1d9" stroke-miterlimit="10" stroke-width="5.67"/>
  <path d="m694.8,292.9c-10-.5-19.6-2.2-27.2-4.9-18.9-6.8-18.9-17.9,0-24.7,19-6.9,68.6-1.8,68.6.1s-49.7,6.9-68.6.1c-18.9-6.8-18.9-17.9,0-24.7,19-6.9,68.6-1.8,68.6.1s-49.7,6.9-68.6.1c-18.9-6.8-18.9-17.9,0-24.7,19-6.9,68.6-1.8,68.6.1s-49.7,6.9-68.6.1c-18.9-6.8-18.9-17.9,0-24.7,19-6.9,68.6-1.8,68.6.1s-49.7,6.9-68.6.1c-18.9-6.8-18.9-17.9,0-24.7,19-6.9,68.6-1.8,68.6.1s-49.7,6.9-68.6.1c-18.9-6.8-18.9-17.9,0-24.7,19-6.9,68.6-1.8,68.6.1s-49.7,6.9-68.6.1-18.9-17.9,0-24.7c19-6.8,68.6-1.8,68.6.1s-49.7,6.9-68.6.1c-18.9-6.8-18.9-17.9,0-24.7,7.7-2.8,17.3-4.4,27.2-4.9" fill="none" stroke="#c9d1d9" stroke-miterlimit="10" stroke-width="5.67"/>
  <path d="m514.8,496.8c-10-1-19.6-4.3-27.2-9.8-18.9-13.6-18.9-35.5,0-49.1,19-13.6,68.6-3.7,68.6.1s-49.7,13.7-68.6.1-18.9-35.5,0-49.1c19-13.6,68.6-3.7,68.6.1s-49.7,13.7-68.6.1-18.9-35.5,0-49.1c19-13.6,68.6-3.7,68.6.1s-49.7,13.7-68.6.1-18.9-35.5,0-49.1c19-13.6,68.6-3.7,68.6.1s-49.7,13.7-68.6.1-18.9-35.5,0-49.1c19-13.6,68.6-3.7,68.6.1s-49.7,13.7-68.6.1-18.9-35.5,0-49.1c19-13.6,68.6-3.7,68.6.1s-49.7,13.7-68.6.1c-18.9-13.6-18.9-35.5,0-49.1,19-13.6,68.6-3.7,68.6.1s-49.7,13.7-68.6.1c-18.9-13.6-18.9-35.5,0-49.1,7.7-5.5,17.3-8.8,27.2-9.8" fill="none" stroke="#c9d1d9" stroke-miterlimit="10" stroke-width="5.67"/>
  <line x1="694.8" y1="54" x2="694.8" y2="86.4" fill="none" stroke="#c9d1d9" stroke-miterlimit="10" stroke-width="5.67"/>
  <line x1="874.8" y1="54" x2="874.8" y2="86.4" fill="none" stroke="#c9d1d9" stroke-miterlimit="10" stroke-width="5.67"/>
  <line x1="1054.8" y1="54" x2="1054.8" y2="86.4" fill="none" stroke="#c9d1d9" stroke-miterlimit="10" stroke-width="5.67"/>
  <line x1="1234.8" y1="54" x2="1234.8" y2="86.4" fill="none" stroke="#c9d1d9" stroke-miterlimit="10" stroke-width="5.67"/>
  <line x1="1414.8" y1="54" x2="1414.8" y2="86.4" fill="none" stroke="#c9d1d9" stroke-miterlimit="10" stroke-width="5.67"/>
  <line x1="1594.8" y1="54" x2="1594.8" y2="86.4" fill="none" stroke="#c9d1d9" stroke-miterlimit="10" stroke-width="5.67"/>
  <line x1="1774.8" y1="54" x2="1774.8" y2="86.4" fill="none" stroke="#c9d1d9" stroke-miterlimit="10" stroke-width="5.67"/>
  <line x1="1954.8" y1="54" x2="1954.8" y2="86.4" fill="none" stroke="#c9d1d9" stroke-miterlimit="10" stroke-width="5.67"/>
  <circle cx="154.8" cy="878.4" r="46.8" fill="none" stroke="#c9d1d9" stroke-miterlimit="10" stroke-width="8.5"/>
  <g>
    <line x1="154.8" y1="590.4" x2="154.8" y2="858.1" fill="none" stroke="#c9d1d9" stroke-miterlimit="10" stroke-width="5.67"/>
    <polygon points="140.7 853.9 154.8 878.4 168.9 853.9 140.7 853.9" fill="#c9d1d9"/>
  </g>
  <g isolation="isolate">
    <path d="m1004.1,1006.1v-37.9h-15.1v-4.2h35.5v4.3h-15.1v37.9h-5.3v-.1Z" fill="#c9d1d9"/>
    <path d="m1032.8,969.2c-1.1,0-2.1-.4-2.9-1.2s-1.2-1.8-1.2-2.9c0-1.2.4-2.1,1.2-2.9s1.8-1.2,2.9-1.2c1.2,0,2.1.4,2.9,1.2s1.2,1.8,1.2,2.9-.4,2.1-1.2,2.9-1.8,1.2-2.9,1.2Zm-2.5,36.9v-31.6h4.9v31.6h-4.9Z" fill="#c9d1d9"/>
    <path d="m1044.8,1006.1v-31.6h4.6v5.4c.7-1.6,2-3.1,3.7-4.3s3.8-1.8,6.1-1.8c2.1,0,3.9.6,5.5,1.7s2.7,2.8,3.5,4.8c1-1.9,2.4-3.5,4.1-4.7s3.7-1.8,6-1.8c3,0,5.4,1.1,7.2,3.3,1.8,2.2,2.7,5.2,2.7,9.1v19.9h-4.9v-19.5c0-1.8-.2-3.3-.6-4.6s-1-2.3-1.8-3-2-1.1-3.5-1.1c-1.6,0-3,.5-4.3,1.4s-2.3,2.2-3,4-1.1,3.9-1.1,6.4v16.6h-4.9v-19.5c0-1.8-.2-3.3-.6-4.6s-1-2.3-1.8-3-2-1.1-3.4-1.1c-1.6,0-3,.4-4.3,1.3s-2.3,2.2-3,4c-.7,1.7-1.1,3.9-1.1,6.4v16.6h-5.1v-.3Z" fill="#c9d1d9"/>
    <path d="m1110,1006.8c-3,0-5.6-.7-7.8-2s-3.9-3.3-5.1-5.7c-1.2-2.5-1.8-5.4-1.8-8.7,0-3.4.6-6.3,1.8-8.8,1.2-2.5,2.9-4.4,5-5.7s4.7-2,7.6-2c1.7,0,3.4.3,5.1.8s3.2,1.5,4.6,2.8,2.5,3.1,3.4,5.4,1.3,5.2,1.3,8.7h-25.6v-4h21.4l-1.4,1.8c-.1-2.8-.5-5-1.3-6.7s-1.8-2.9-3.1-3.6c-1.3-.8-2.7-1.1-4.3-1.1-1.9,0-3.5.5-4.8,1.5s-2.4,2.4-3.1,4.2c-.7,1.9-1.1,4.1-1.1,6.8,0,3.9.8,7,2.4,9.1s3.9,3.2,6.9,3.2c2.1,0,3.9-.5,5.4-1.6s2.5-2.6,3.2-4.7l4.8,1.6c-.8,1.8-1.8,3.4-3,4.7-1.3,1.3-2.8,2.3-4.5,3-1.9.7-3.9,1-6,1Z" fill="#c9d1d9"/>
  </g>
  <g isolation="isolate">
    <path d="m730.3,607.9v-42.2h27.8v4.3h-22.5v13.2h19.7v4.3h-19.7v15.9h22.9v4.3h-28.2v.2Z" fill="#c9d1d9"/>
  </g>
  <g isolation="isolate">
    <path d="m784.7,619.4v-18l.4.5c-.9,2.3-2.3,4-4.3,5.1s-4.1,1.7-6.4,1.7c-2.6,0-4.8-.7-6.8-2s-3.5-3.3-4.6-5.7c-1.1-2.5-1.6-5.4-1.6-8.8s.6-6.3,1.7-8.8c1.1-2.5,2.6-4.4,4.6-5.7s4.2-2,6.8-2c2.1,0,4.1.5,6.2,1.6,2,1,3.6,2.8,4.6,5.2l-.3.2v-6.3h4.6v43.1h-4.9v-.1Zm-8.9-14.9c1.7,0,3.2-.4,4.5-1.3,1.4-.9,2.5-2.2,3.3-4s1.2-4.2,1.2-7c0-4.3-.9-7.4-2.6-9.4s-3.9-3.1-6.4-3.1c-2.6,0-4.8,1.1-6.4,3.2-1.7,2.2-2.5,5.2-2.5,9.3,0,3.9.8,6.9,2.4,9.1,1.7,2.2,3.8,3.2,6.5,3.2Z" fill="#c9d1d9"/>
    <path d="m809.4,608.6c-2.2,0-4.1-.5-5.7-1.5-1.6-1-2.9-2.4-3.8-4.3s-1.3-4.1-1.3-6.7v-19.9h4.9v19.5c0,2.6.5,4.7,1.5,6.3s2.7,2.4,5.3,2.4c1.9,0,3.5-.5,4.9-1.5s2.5-2.4,3.2-4.4c.8-2,1.2-4.4,1.2-7.3v-15.1h4.9v31.6h-4.6v-7.4l.2,1.3c-.8,2-2.1,3.6-4,4.9-1.8,1.5-4,2.1-6.7,2.1Z" fill="#c9d1d9"/>
    <path d="m836.6,571c-1.1,0-2.1-.4-2.9-1.2-.8-.8-1.2-1.8-1.2-2.9,0-1.2.4-2.1,1.2-2.9.8-.8,1.8-1.2,2.9-1.2,1.2,0,2.1.4,2.9,1.2s1.2,1.8,1.2,2.9-.4,2.1-1.2,2.9-1.8,1.2-2.9,1.2Zm-2.5,36.9v-31.6h4.9v31.6h-4.9Z" fill="#c9d1d9"/>
    <path d="m853.2,607.9c-1.2,0-2.3-.4-3.3-1.2s-1.4-1.9-1.4-3.1v-39.6h4.9v38.2c0,.6.1,1.1.3,1.3s.6.3,1.2.3h3.1v4.1h-4.8Z" fill="#c9d1d9"/>
    <path d="m867,571c-1.1,0-2.1-.4-2.9-1.2-.8-.8-1.2-1.8-1.2-2.9,0-1.2.4-2.1,1.2-2.9.8-.8,1.8-1.2,2.9-1.2,1.2,0,2.1.4,2.9,1.2s1.2,1.8,1.2,2.9-.4,2.1-1.2,2.9-1.7,1.2-2.9,1.2Zm-2.5,36.9v-31.6h4.9v31.6h-4.9Z" fill="#c9d1d9"/>
    <path d="m894.2,608.6c-2.1,0-4.1-.5-6.2-1.6-2-1-3.6-2.8-4.6-5.2l.3-.2v6.3h-4.7v-43.9h4.9v18.9l-.4-.5c.9-2.3,2.3-4,4.3-5.1s4.1-1.7,6.4-1.7c2.6,0,4.8.7,6.8,2s3.5,3.3,4.6,5.7c1.1,2.5,1.6,5.4,1.6,8.8s-.6,6.3-1.7,8.8c-1.1,2.5-2.6,4.4-4.6,5.7-1.9,1.4-4.2,2-6.7,2Zm-1.4-4.1c2.6,0,4.8-1.1,6.4-3.2,1.7-2.2,2.5-5.2,2.5-9.3,0-3.9-.8-6.9-2.4-9.1-1.6-2.2-3.8-3.2-6.5-3.2-1.6,0-3.1.4-4.5,1.3s-2.5,2.2-3.3,4-1.2,4.2-1.2,7c0,4.2.9,7.4,2.6,9.4s3.9,3.1,6.4,3.1Z" fill="#c9d1d9"/>
    <path d="m914.5,607.9v-31.6h4.6v6.7l-.2-.8c.9-2.2,2.3-3.8,4.2-5,1.9-1.1,3.8-1.7,5.7-1.7.6,0,1.1,0,1.7.1.5.1,1,.3,1.5.5l-.6,4.6c-1.1-.3-2.1-.5-3.2-.5-.7,0-1.5.1-2.5.4-1,.3-2,.8-2.9,1.6s-1.8,2-2.4,3.5c-.7,1.6-1,3.6-1,6.2v15.8h-4.9v.2Z" fill="#c9d1d9"/>
    <path d="m940.4,571c-1.1,0-2.1-.4-2.9-1.2-.8-.8-1.2-1.8-1.2-2.9,0-1.2.4-2.1,1.2-2.9.8-.8,1.8-1.2,2.9-1.2,1.2,0,2.1.4,2.9,1.2s1.2,1.8,1.2,2.9-.4,2.1-1.2,2.9-1.7,1.2-2.9,1.2Zm-2.4,36.9v-31.6h4.9v31.6h-4.9Z" fill="#c9d1d9"/>
    <path d="m962.7,608.6c-2.2,0-4.1-.5-5.7-1.5-1.6-1-2.9-2.4-3.8-4.3s-1.3-4.1-1.3-6.7v-19.9h4.9v19.5c0,2.6.5,4.7,1.5,6.3s2.7,2.4,5.3,2.4c1.9,0,3.5-.5,4.9-1.5s2.5-2.4,3.2-4.4c.8-2,1.2-4.4,1.2-7.3v-15.1h4.9v31.6h-4.6v-7.4l.2,1.3c-.8,2-2.1,3.6-4,4.9-1.8,1.5-4.1,2.1-6.7,2.1Z" fill="#c9d1d9"/>
    <path d="m987.4,607.9v-31.6h4.6v5.4c.7-1.6,2-3.1,3.7-4.3s3.8-1.8,6.1-1.8c2.1,0,3.9.6,5.5,1.7s2.7,2.8,3.5,4.8c1-1.9,2.4-3.5,4.1-4.7s3.7-1.8,6-1.8c3,0,5.4,1.1,7.2,3.3s2.7,5.2,2.7,9.1v19.9h-4.9v-19.5c0-1.8-.2-3.3-.6-4.6s-1-2.3-1.8-3-2-1.1-3.5-1.1c-1.6,0-3,.5-4.3,1.4s-2.3,2.2-3,4-1.1,3.9-1.1,6.4v16.6h-4.9v-19.5c0-1.8-.2-3.3-.6-4.6-.4-1.3-1-2.3-1.8-3s-2-1.1-3.4-1.1c-1.6,0-3,.4-4.3,1.3s-2.3,2.2-3,4c-.7,1.7-1.1,3.9-1.1,6.4v16.6h-5.1v-.3Z" fill="#c9d1d9"/>
  </g>
  <g>
    <circle cx="1054.784" cy="386.527" r="46.801" transform="translate(354.527 1264.942) rotate(-71.564)" fill="none" stroke="#c9d1d9" stroke-miterlimit="10" stroke-width="8.5"/>
    <line x1="1054.8" y1="292.9" x2="1054.8" y2="350.5" fill="none" stroke="#c9d1d9" stroke-miterlimit="10" stroke-width="5.67"/>
  </g>
  <g>
    <circle cx="694.8" cy="386.5" r="46.8" fill="none" stroke="#c9d1d9" stroke-miterlimit="10" stroke-width="8.5"/>
    <line x1="694.8" y1="292.9" x2="694.8" y2="350.5" fill="none" stroke="#c9d1d9" stroke-miterlimit="10" stroke-width="5.67"/>
  </g>
  <g>
    <circle cx="514.8" cy="590.4" r="46.8" fill="none" stroke="#c9d1d9" stroke-miterlimit="10" stroke-width="8.5"/>
    <line x1="514.8" y1="496.8" x2="514.8" y2="554.4" fill="none" stroke="#c9d1d9" stroke-miterlimit="10" stroke-width="5.67"/>
  </g>
  <g isolation="isolate">
    <path d="m24,986.4v-42.2h12.7c5,0,9,.8,12.2,2.5s5.5,4.1,7,7.2,2.3,6.8,2.3,11.1c0,4.8-.9,8.8-2.7,12s-4.3,5.5-7.6,7.1-7.1,2.3-11.6,2.3h-12.3Zm5.3-4.3h6.6c11.2,0,16.7-5.6,16.7-16.8,0-3.4-.6-6.4-1.7-8.9-1.1-2.5-2.9-4.4-5.2-5.8-2.4-1.4-5.5-2.1-9.4-2.1h-6.9v33.6h-.1Z" fill="#c9d1d9"/>
    <path d="m79.7,987.1c-3,0-5.6-.7-7.8-2s-3.9-3.3-5.1-5.7c-1.2-2.5-1.8-5.4-1.8-8.7,0-3.4.6-6.3,1.8-8.8,1.2-2.5,2.9-4.4,5-5.7s4.7-2,7.6-2c1.7,0,3.4.3,5.1.8s3.2,1.5,4.6,2.8,2.5,3.1,3.4,5.4,1.3,5.2,1.3,8.7h-25.6v-4h21.4l-1.4,1.8c-.1-2.8-.5-5-1.3-6.7s-1.8-2.9-3.1-3.6c-1.3-.8-2.7-1.1-4.3-1.1-1.9,0-3.5.5-4.8,1.5s-2.4,2.4-3.1,4.2c-.7,1.9-1.1,4.1-1.1,6.8,0,3.9.8,7,2.4,9.1s3.9,3.2,6.9,3.2c2.1,0,3.9-.5,5.4-1.6s2.5-2.6,3.2-4.7l4.8,1.6c-.8,1.8-1.8,3.4-3,4.7-1.3,1.3-2.8,2.3-4.5,3-1.9.7-3.8,1-6,1Z" fill="#c9d1d9"/>
    <path d="m97.5,958.9v-4.1h16.7v4.1h-16.7Zm4.7,27.5v-37.4c0-2.4.6-4,1.7-5.1s3-1.5,5.6-1.5h4v4.1h-4.7c-.6,0-1,.1-1.3.4-.3.3-.4.7-.4,1.3v38.2h-4.9Zm22.7,0c-1.2,0-2.3-.4-3.3-1.2s-1.4-1.9-1.4-3.1v-39.6h4.9v38.2c0,.6.1,1.1.3,1.3.2.2.6.3,1.2.3h3.1v4.1h-4.8Z" fill="#c9d1d9"/>
    <path d="m148.6,987.1c-3,0-5.6-.7-7.8-2s-3.9-3.3-5.1-5.7c-1.2-2.5-1.8-5.4-1.8-8.7,0-3.4.6-6.3,1.8-8.8s2.9-4.4,5-5.7,4.7-2,7.6-2c1.7,0,3.4.3,5.1.8,1.7.5,3.2,1.5,4.6,2.8,1.4,1.3,2.5,3.1,3.4,5.4s1.3,5.2,1.3,8.7h-25.6v-4h21.4l-1.4,1.8c-.1-2.8-.5-5-1.3-6.7s-1.8-2.9-3.1-3.6c-1.3-.8-2.7-1.1-4.3-1.1-1.9,0-3.5.5-4.8,1.5s-2.4,2.4-3.1,4.2c-.7,1.9-1.1,4.1-1.1,6.8,0,3.9.8,7,2.4,9.1s3.9,3.2,6.9,3.2c2.1,0,3.9-.5,5.4-1.6s2.5-2.6,3.2-4.7l4.8,1.6c-.8,1.8-1.8,3.4-3,4.7-1.3,1.3-2.8,2.3-4.5,3-1.9.7-3.8,1-6,1Z" fill="#c9d1d9"/>
    <path d="m183.7,987.1c-3,0-5.5-.7-7.7-2s-3.8-3.3-5-5.7-1.8-5.4-1.8-8.8.6-6.3,1.8-8.8,2.8-4.4,5-5.7,4.7-2,7.7-2c2.3,0,4.3.4,6.1,1.2s3.3,2,4.5,3.6,2.2,3.4,2.7,5.6l-5,1.3c-.5-2.5-1.5-4.4-2.9-5.7s-3.2-2-5.4-2c-2.9,0-5.2,1.1-6.7,3.2-1.6,2.2-2.4,5.2-2.4,9.2s.8,7.1,2.4,9.2c1.6,2.1,3.8,3.2,6.7,3.2,2.2,0,4-.6,5.4-1.9s2.4-3.1,3-5.6l5,1.4c-.5,1.6-1.1,3-1.9,4.3s-1.8,2.3-2.9,3.2c-1.1.9-2.4,1.5-3.8,2-1.6.6-3.1.8-4.8.8Z" fill="#c9d1d9"/>
    <path d="m210.3,986.4c-1.2,0-2.3-.4-3.3-1.2s-1.4-1.9-1.4-3.1v-23.1h-5.1v-4.1h5.1v-6.6l4.9-1.1v7.7h6.3v4.1h-6.3v21.8c0,.6.1,1.1.3,1.3s.6.3,1.2.3h4.8v4.1h-6.5v-.1Z" fill="#c9d1d9"/>
    <path d="m226.4,949.5c-1.1,0-2.1-.4-2.9-1.2-.8-.8-1.2-1.8-1.2-2.9,0-1.2.4-2.1,1.2-2.9.8-.8,1.8-1.2,2.9-1.2,1.2,0,2.1.4,2.9,1.2s1.2,1.8,1.2,2.9-.4,2.1-1.2,2.9-1.7,1.2-2.9,1.2Zm-2.4,36.9v-31.6h4.9v31.6h-4.9Z" fill="#c9d1d9"/>
    <path d="m251.3,987.1c-3,0-5.6-.7-7.9-2.1-2.3-1.4-4-3.3-5.3-5.8s-1.9-5.4-1.9-8.6.6-6.1,1.9-8.6c1.3-2.5,3-4.4,5.3-5.8,2.3-1.4,4.9-2.1,7.9-2.1s5.6.7,7.9,2.1c2.3,1.4,4,3.3,5.3,5.8s1.9,5.4,1.9,8.6-.6,6.1-1.9,8.6-3,4.4-5.3,5.8c-2.3,1.4-4.9,2.1-7.9,2.1Zm0-4.1c3,0,5.3-1.1,7.1-3.3s2.6-5.3,2.6-9.1-.9-6.9-2.6-9.1-4.1-3.3-7.1-3.3-5.3,1.1-7.1,3.3-2.6,5.2-2.6,9.1c0,3.8.9,6.9,2.6,9.1s4.1,3.3,7.1,3.3Z" fill="#c9d1d9"/>
    <path d="m273.7,986.4v-31.6h4.6v7.1l-.2-1.3c.8-1.8,2.2-3.4,4-4.6s4-1.9,6.6-1.9c2.2,0,4.2.5,5.8,1.5,1.6,1,2.9,2.4,3.8,4.3s1.3,4.1,1.3,6.7v19.9h-4.9v-19.5c0-2.6-.5-4.7-1.6-6.3s-2.8-2.4-5.3-2.4c-2.6,0-4.8,1-6.6,3-1.7,2-2.6,4.9-2.6,8.7v16.6h-4.9v-.2Z" fill="#c9d1d9"/>
  </g>
  <path d="m154.8,496.8c-10-1-19.6-4.3-27.2-9.8-18.9-13.6-18.9-35.5,0-49.1,19-13.6,68.6-3.7,68.6.1s-49.7,13.7-68.6.1-18.9-35.5,0-49.1c19-13.6,68.6-3.7,68.6.1s-49.7,13.7-68.6.1-18.9-35.5,0-49.1c19-13.6,68.6-3.7,68.6.1s-49.7,13.7-68.6.1-18.9-35.5,0-49.1c19-13.6,68.6-3.7,68.6.1s-49.7,13.7-68.6.1-18.9-35.5,0-49.1c19-13.6,68.6-3.7,68.6.1s-49.7,13.7-68.6.1-18.9-35.5,0-49.1c19-13.6,68.6-3.7,68.6.1s-49.7,13.7-68.6.1-18.9-35.5,0-49.1c19-13.6,68.6-3.7,68.6.1s-49.7,13.7-68.6.1c-18.9-13.6-18.9-35.5,0-49.1,7.7-5.5,17.3-8.8,27.2-9.8" fill="none" stroke="#c9d1d9" stroke-miterlimit="10" stroke-width="5.67"/>
  <circle cx="154.8" cy="590.4" r="46.8" fill="none" stroke="#c9d1d9" stroke-dasharray="0 0 0 0 0 0 18.37 18.37" stroke-miterlimit="10" stroke-width="8.5"/>
  <line x1="154.8" y1="496.8" x2="154.8" y2="554.4" fill="none" stroke="#c9d1d9" stroke-miterlimit="10" stroke-width="5.67"/>
  <line x1="334.8" y1="54" x2="334.8" y2="86.4" fill="none" stroke="#c9d1d9" stroke-miterlimit="10" stroke-width="5.67"/>
  <line x1="154.8" y1="54" x2="154.8" y2="86.4" fill="none" stroke="#c9d1d9" stroke-miterlimit="10" stroke-width="5.67"/>
  <g id="Arrows">
    <g>
      <line x1="1954.8" y1="590.4" x2="1945" y2="590.4" fill="none" stroke="#c9d1d9" stroke-miterlimit="10" stroke-width="6.33"/>
      <line x1="1925.4" y1="590.4" x2="1074.4" y2="590.4" fill="none" stroke="#c9d1d9" stroke-dasharray="0 0 0 0 0 0 19.56 19.56" stroke-miterlimit="10" stroke-width="6.33"/>
      <line x1="1064.6" y1="590.4" x2="1054.8" y2="590.4" fill="none" stroke="#c9d1d9" stroke-miterlimit="10" stroke-width="6.33"/>
    </g>
    <g>
      <line x1="154.8" y1="1022.4" x2="1948" y2="1022.4" fill="none" stroke="#c9d1d9" stroke-miterlimit="10" stroke-width="5.67"/>
      <path d="m1909.2,1049.6c-.8-1.3-.4-3.1.9-3.9l36.6-23.3-36.6-23.3c-1.3-.8-1.7-2.6-.9-3.9.8-1.3,2.6-1.7,3.9-.9l40.3,25.7c.8.5,1.3,1.4,1.3,2.4s-.5,1.9-1.3,2.4l-40.3,25.7c-.5.3-1,.4-1.5.4-.9,0-1.8-.4-2.4-1.3h0Z" fill="#c9d1d9"/>
    </g>
    <g>
      <line x1="694.8" y1="590.4" x2="685" y2="590.4" fill="none" stroke="#c9d1d9" stroke-miterlimit="10" stroke-width="6.33"/>
      <line x1="667.2" y1="590.4" x2="533.5" y2="590.4" fill="none" stroke="#c9d1d9" stroke-dasharray="0 0 0 0 0 0 17.82 17.82" stroke-miterlimit="10" stroke-width="6.33"/>
      <line x1="524.6" y1="590.4" x2="514.8" y2="590.4" fill="none" stroke="#c9d1d9" stroke-miterlimit="10" stroke-width="6.33"/>
    </g>
  </g>
  <g id="Sine">
    <path d="m1954.8,590.4c-.4.5-.6.8-.6.8l-78.1,96.7-41.7,47.7-35,36.3-31,28.6-28.3,22.8-25.6,17.5-24.2,13.7-22.9,10.2-20.2,6.7-18.8,4.3-17.5,2.2-16.2.6" fill="none" stroke="#d85648" stroke-miterlimit="10" stroke-width="10.59"/>
    <path d="m1234.8,590.4c.4.5.6.8.6.8l78.1,96.7,41.7,47.7,35,36.3,31,28.6,28.3,22.8,25.6,17.5,24.2,13.7,22.9,10.2,20.2,6.7,18.8,4.3,17.5,2.2,16.2.6" fill="none" stroke="#d85648" stroke-miterlimit="10" stroke-width="10.59"/>
    <path d="m514.8,590.4c.4-.5.6-.8.6-.8l78.1-96.7,41.7-47.7,35-36.3,31-28.6,28.3-22.8,25.6-17.5,24.2-13.7,22.9-10.2,20.2-6.7,18.8-4.3,17.5-2.2,16.2-.6" fill="none" stroke="#d85648" stroke-miterlimit="10" stroke-width="10.59"/>
    <path d="m1234.8,590.4c-.4-.5-.6-.8-.6-.8l-78.1-96.7-41.7-47.7-35-36.3-31-28.6-28.3-22.8-25.6-17.5-24.2-13.7-22.9-10.2-20.2-6.7-18.8-4.3-17.5-2.2-16.2-.6" fill="none" stroke="#d85648" stroke-miterlimit="10" stroke-width="10.59"/>
    <g>
      <circle cx="334.8" cy="794.6" r="46.8" fill="none" stroke="#c9d1d9" stroke-miterlimit="10" stroke-width="8.5"/>
      <line x1="334.8" y1="701" x2="334.8" y2="758.6" fill="none" stroke="#c9d1d9" stroke-miterlimit="10" stroke-width="5.67"/>
    </g>
    <path d="m334.8,701c-10-1.5-19.6-6.5-27.2-14.7-18.9-20.3-18.9-53.2,0-73.5,19-20.4,68.6-5.5,68.6.2s-49.7,20.6-68.6.2c-18.9-20.3-18.9-53.2,0-73.5,19-20.4,68.6-5.5,68.6.2s-49.7,20.6-68.6.2c-18.9-20.3-18.9-53.2,0-73.5,19-20.4,68.6-5.5,68.6.2s-49.7,20.6-68.6.2c-18.9-20.3-18.9-53.2,0-73.5,19-20.4,68.6-5.5,68.6.2s-49.7,20.6-68.6.2c-18.9-20.3-18.9-53.2,0-73.5,19-20.4,68.6-5.5,68.6.2s-49.7,20.6-68.6.2c-18.9-20.3-18.9-53.2,0-73.5,19-20.4,68.6-5.5,68.6.2s-49.7,20.6-68.6.2c-18.9-20.3-18.9-53.2,0-73.5,19-20.4,68.6-5.5,68.6.2s-49.7,20.6-68.6.2c-18.9-20.3-18.9-53.2,0-73.5,7.7-8.2,17.3-13.1,27.2-14.7" fill="none" stroke="#c9d1d9" stroke-miterlimit="10" stroke-width="5.67"/>
    <g>
      <path d="m514.8,590.4c-.4.5-.6.8-.6.8l-5.6,6.9" fill="none" stroke="#d85648" stroke-miterlimit="10" stroke-width="10.6"/>
      <polyline points="496.2 613.5 436.1 687.8 394.4 735.5 359.4 771.8 328.4 800.5 300.2 823.2 274.6 840.7 250.4 854.4 227.5 864.6 207.3 871.3 188.4 875.6 174.5 877.4" fill="none" stroke="#d85648" stroke-dasharray="0 0 0 0 0 0 19.83 19.83" stroke-miterlimit="10" stroke-width="10.6"/>
      <line x1="164.6" y1="878.1" x2="154.8" y2="878.4" fill="none" stroke="#d85648" stroke-miterlimit="10" stroke-width="10.6"/>
    </g>
  </g>
  <g id="Ceiling">
    <g>
      <line x1="604.8" y1="54" x2="774" y2="54" fill="none" stroke="#7f7f7f" stroke-miterlimit="10" stroke-width="4"/>
      <line x1="655.2" y1="21.6" x2="608.4" y2="54" fill="none" stroke="#7f7f7f" stroke-miterlimit="10" stroke-width="4"/>
      <line x1="687.6" y1="21.6" x2="640.8" y2="54" fill="none" stroke="#7f7f7f" stroke-miterlimit="10" stroke-width="4"/>
      <line x1="720" y1="21.6" x2="673.2" y2="54" fill="none" stroke="#7f7f7f" stroke-miterlimit="10" stroke-width="4"/>
      <line x1="752.4" y1="21.6" x2="705.6" y2="54" fill="none" stroke="#7f7f7f" stroke-miterlimit="10" stroke-width="4"/>
      <line x1="784.8" y1="21.6" x2="738" y2="54" fill="none" stroke="#7f7f7f" stroke-miterlimit="10" stroke-width="4"/>
    </g>
    <g>
      <line x1="784.8" y1="54" x2="954" y2="54" fill="none" stroke="#7f7f7f" stroke-miterlimit="10" stroke-width="4"/>
      <line x1="835.2" y1="21.6" x2="788.4" y2="54" fill="none" stroke="#7f7f7f" stroke-miterlimit="10" stroke-width="4"/>
      <line x1="867.6" y1="21.6" x2="820.8" y2="54" fill="none" stroke="#7f7f7f" stroke-miterlimit="10" stroke-width="4"/>
      <line x1="900" y1="21.6" x2="853.2" y2="54" fill="none" stroke="#7f7f7f" stroke-miterlimit="10" stroke-width="4"/>
      <line x1="932.4" y1="21.6" x2="885.6" y2="54" fill="none" stroke="#7f7f7f" stroke-miterlimit="10" stroke-width="4"/>
      <line x1="964.8" y1="21.6" x2="918" y2="54" fill="none" stroke="#7f7f7f" stroke-miterlimit="10" stroke-width="4"/>
    </g>
    <g>
      <line x1="424.8" y1="54" x2="594" y2="54" fill="none" stroke="#7f7f7f" stroke-miterlimit="10" stroke-width="4"/>
      <line x1="475.2" y1="21.6" x2="428.4" y2="54" fill="none" stroke="#7f7f7f" stroke-miterlimit="10" stroke-width="4"/>
      <line x1="507.6" y1="21.6" x2="460.8" y2="54" fill="none" stroke="#7f7f7f" stroke-miterlimit="10" stroke-width="4"/>
      <line x1="540" y1="21.6" x2="493.2" y2="54" fill="none" stroke="#7f7f7f" stroke-miterlimit="10" stroke-width="4"/>
      <line x1="572.4" y1="21.6" x2="525.6" y2="54" fill="none" stroke="#7f7f7f" stroke-miterlimit="10" stroke-width="4"/>
      <line x1="604.8" y1="21.6" x2="558" y2="54" fill="none" stroke="#7f7f7f" stroke-miterlimit="10" stroke-width="4"/>
    </g>
    <g>
      <line x1="1144.8" y1="54" x2="1314" y2="54" fill="none" stroke="#7f7f7f" stroke-miterlimit="10" stroke-width="4"/>
      <line x1="1195.2" y1="21.6" x2="1148.4" y2="54" fill="none" stroke="#7f7f7f" stroke-miterlimit="10" stroke-width="4"/>
      <line x1="1227.6" y1="21.6" x2="1180.8" y2="54" fill="none" stroke="#7f7f7f" stroke-miterlimit="10" stroke-width="4"/>
      <line x1="1260" y1="21.6" x2="1213.2" y2="54" fill="none" stroke="#7f7f7f" stroke-miterlimit="10" stroke-width="4"/>
      <line x1="1292.4" y1="21.6" x2="1245.6" y2="54" fill="none" stroke="#7f7f7f" stroke-miterlimit="10" stroke-width="4"/>
      <line x1="1324.8" y1="21.6" x2="1278" y2="54" fill="none" stroke="#7f7f7f" stroke-miterlimit="10" stroke-width="4"/>
    </g>
    <g>
      <line x1="1324.8" y1="54" x2="1494" y2="54" fill="none" stroke="#7f7f7f" stroke-miterlimit="10" stroke-width="4"/>
      <line x1="1375.2" y1="21.6" x2="1328.4" y2="54" fill="none" stroke="#7f7f7f" stroke-miterlimit="10" stroke-width="4"/>
      <line x1="1407.6" y1="21.6" x2="1360.8" y2="54" fill="none" stroke="#7f7f7f" stroke-miterlimit="10" stroke-width="4"/>
      <line x1="1440" y1="21.6" x2="1393.2" y2="54" fill="none" stroke="#7f7f7f" stroke-miterlimit="10" stroke-width="4"/>
      <line x1="1472.4" y1="21.6" x2="1425.6" y2="54" fill="none" stroke="#7f7f7f" stroke-miterlimit="10" stroke-width="4"/>
      <line x1="1504.8" y1="21.6" x2="1458" y2="54" fill="none" stroke="#7f7f7f" stroke-miterlimit="10" stroke-width="4"/>
    </g>
    <g>
      <line x1="964.8" y1="54" x2="1134" y2="54" fill="none" stroke="#7f7f7f" stroke-miterlimit="10" stroke-width="4"/>
      <line x1="1015.2" y1="21.6" x2="968.4" y2="54" fill="none" stroke="#7f7f7f" stroke-miterlimit="10" stroke-width="4"/>
      <line x1="1047.6" y1="21.6" x2="1000.8" y2="54" fill="none" stroke="#7f7f7f" stroke-miterlimit="10" stroke-width="4"/>
      <line x1="1080" y1="21.6" x2="1033.2" y2="54" fill="none" stroke="#7f7f7f" stroke-miterlimit="10" stroke-width="4"/>
      <line x1="1112.4" y1="21.6" x2="1065.6" y2="54" fill="none" stroke="#7f7f7f" stroke-miterlimit="10" stroke-width="4"/>
      <line x1="1144.8" y1="21.6" x2="1098" y2="54" fill="none" stroke="#7f7f7f" stroke-miterlimit="10" stroke-width="4"/>
    </g>
    <g>
      <line x1="1684.8" y1="54" x2="1854" y2="54" fill="none" stroke="#7f7f7f" stroke-miterlimit="10" stroke-width="4"/>
      <line x1="1735.2" y1="21.6" x2="1688.4" y2="54" fill="none" stroke="#7f7f7f" stroke-miterlimit="10" stroke-width="4"/>
      <line x1="1767.6" y1="21.6" x2="1720.8" y2="54" fill="none" stroke="#7f7f7f" stroke-miterlimit="10" stroke-width="4"/>
      <line x1="1800" y1="21.6" x2="1753.2" y2="54" fill="none" stroke="#7f7f7f" stroke-miterlimit="10" stroke-width="4"/>
      <line x1="1832.4" y1="21.6" x2="1785.6" y2="54" fill="none" stroke="#7f7f7f" stroke-miterlimit="10" stroke-width="4"/>
      <line x1="1864.8" y1="21.6" x2="1818" y2="54" fill="none" stroke="#7f7f7f" stroke-miterlimit="10" stroke-width="4"/>
    </g>
    <g>
      <line x1="1864.8" y1="54" x2="2034" y2="54" fill="none" stroke="#7f7f7f" stroke-miterlimit="10" stroke-width="4"/>
      <line x1="1915.2" y1="21.6" x2="1868.4" y2="54" fill="none" stroke="#7f7f7f" stroke-miterlimit="10" stroke-width="4"/>
      <line x1="1947.6" y1="21.6" x2="1900.8" y2="54" fill="none" stroke="#7f7f7f" stroke-miterlimit="10" stroke-width="4"/>
      <line x1="1980" y1="21.6" x2="1933.2" y2="54" fill="none" stroke="#7f7f7f" stroke-miterlimit="10" stroke-width="4"/>
      <line x1="2012.4" y1="21.6" x2="1965.6" y2="54" fill="none" stroke="#7f7f7f" stroke-miterlimit="10" stroke-width="4"/>
      <line x1="2044.8" y1="21.6" x2="1998" y2="54" fill="none" stroke="#7f7f7f" stroke-miterlimit="10" stroke-width="4"/>
    </g>
    <g>
      <line x1="1504.8" y1="54" x2="1674" y2="54" fill="none" stroke="#7f7f7f" stroke-miterlimit="10" stroke-width="4"/>
      <line x1="1555.2" y1="21.6" x2="1508.4" y2="54" fill="none" stroke="#7f7f7f" stroke-miterlimit="10" stroke-width="4"/>
      <line x1="1587.6" y1="21.6" x2="1540.8" y2="54" fill="none" stroke="#7f7f7f" stroke-miterlimit="10" stroke-width="4"/>
      <line x1="1620" y1="21.6" x2="1573.2" y2="54" fill="none" stroke="#7f7f7f" stroke-miterlimit="10" stroke-width="4"/>
      <line x1="1652.4" y1="21.6" x2="1605.6" y2="54" fill="none" stroke="#7f7f7f" stroke-miterlimit="10" stroke-width="4"/>
      <line x1="1684.8" y1="21.6" x2="1638" y2="54" fill="none" stroke="#7f7f7f" stroke-miterlimit="10" stroke-width="4"/>
    </g>
    <g>
      <line x1="64.8" y1="54" x2="234" y2="54" fill="none" stroke="#7f7f7f" stroke-miterlimit="10" stroke-width="4"/>
      <line x1="115.2" y1="21.6" x2="68.4" y2="54" fill="none" stroke="#7f7f7f" stroke-miterlimit="10" stroke-width="4"/>
      <line x1="147.6" y1="21.6" x2="100.8" y2="54" fill="none" stroke="#7f7f7f" stroke-miterlimit="10" stroke-width="4"/>
      <line x1="180" y1="21.6" x2="133.2" y2="54" fill="none" stroke="#7f7f7f" stroke-miterlimit="10" stroke-width="4"/>
      <line x1="212.4" y1="21.6" x2="165.6" y2="54" fill="none" stroke="#7f7f7f" stroke-miterlimit="10" stroke-width="4"/>
      <line x1="244.8" y1="21.6" x2="198" y2="54" fill="none" stroke="#7f7f7f" stroke-miterlimit="10" stroke-width="4"/>
    </g>
    <g>
      <line x1="244.8" y1="54" x2="414" y2="54" fill="none" stroke="#7f7f7f" stroke-miterlimit="10" stroke-width="4"/>
      <line x1="295.2" y1="21.6" x2="248.4" y2="54" fill="none" stroke="#7f7f7f" stroke-miterlimit="10" stroke-width="4"/>
      <line x1="327.6" y1="21.6" x2="280.8" y2="54" fill="none" stroke="#7f7f7f" stroke-miterlimit="10" stroke-width="4"/>
      <line x1="360" y1="21.6" x2="313.2" y2="54" fill="none" stroke="#7f7f7f" stroke-miterlimit="10" stroke-width="4"/>
      <line x1="392.4" y1="21.6" x2="345.6" y2="54" fill="none" stroke="#7f7f7f" stroke-miterlimit="10" stroke-width="4"/>
      <line x1="424.8" y1="21.6" x2="378" y2="54" fill="none" stroke="#7f7f7f" stroke-miterlimit="10" stroke-width="4"/>
    </g>
  </g>
</svg>