<?xml version="1.0" encoding="utf-8"?>
<!-- Generator: Adobe Illustrator 27.4.1, SVG Export Plug-In . SVG Version: 6.00 Build 0)  -->
<svg version="1.1" id="Ebene_1" xmlns="http://www.w3.org/2000/svg" xmlns:xlink="http://www.w3.org/1999/xlink" x="0px" y="0px"
	 viewBox="0 0 2059.2 1051.2" style="enable-background:new 0 0 2059.2 1051.2;" xml:space="preserve">
<style type="text/css">
	.st0{fill:none;stroke:#C9D1D9;stroke-width:8.5;stroke-miterlimit:10;}
	.st1{fill:none;stroke:#C9D1D9;stroke-width:5.67;stroke-miterlimit:10;}
	.st2{fill:#C9D1D9;}
	.st3{enable-background:new    ;}
	.st4{fill:none;stroke:#C9D1D9;stroke-width:8.5;stroke-miterlimit:10;stroke-dasharray:0,0,18.37,18.37;}
	.st5{fill:none;}
	.st6{fill:none;stroke:#C9D1D9;stroke-width:6.33;stroke-miterlimit:10;}
	.st7{fill:none;stroke:#C9D1D9;stroke-width:6.33;stroke-miterlimit:10;stroke-dasharray:0,0,19.56,19.56;}
	.st8{fill:none;stroke:#C9D1D9;stroke-width:6.33;stroke-miterlimit:10;stroke-dasharray:0,0,17.82,17.82;}
	.st9{fill:none;stroke:#D85648;stroke-width:10.59;stroke-miterlimit:10;}
	.st10{fill:none;stroke:#D85648;stroke-width:10.6;stroke-miterlimit:10;}
	.st11{fill:none;stroke:#D85648;stroke-width:10.6;stroke-miterlimit:10;stroke-dasharray:0,0,19.83,19.83;}
	.st12{fill:none;stroke:#7F7F7F;stroke-width:4;stroke-miterlimit:10;}
</style>
<g>
	<circle class="st0" cx="1234.8" cy="590.4" r="46.8"/>
	<line class="st1" x1="1234.8" y1="496.8" x2="1234.8" y2="554.4"/>
</g>
<path class="st1" d="M1954.8,496.8c-10-1-19.6-4.3-27.2-9.8c-18.9-13.6-18.9-35.5,0-49.1c19-13.6,68.6-3.7,68.6,0.1
	s-49.7,13.7-68.6,0.1c-18.9-13.6-18.9-35.5,0-49.1c19-13.6,68.6-3.7,68.6,0.1s-49.7,13.7-68.6,0.1c-18.9-13.6-18.9-35.5,0-49.1
	c19-13.6,68.6-3.7,68.6,0.1s-49.7,13.7-68.6,0.1c-18.9-13.6-18.9-35.5,0-49.1c19-13.6,68.6-3.7,68.6,0.1s-49.7,13.7-68.6,0.1
	c-18.9-13.6-18.9-35.5,0-49.1c19-13.6,68.6-3.7,68.6,0.1s-49.7,13.7-68.6,0.1c-18.9-13.6-18.9-35.5,0-49.1
	c19-13.6,68.6-3.7,68.6,0.1s-49.7,13.7-68.6,0.1c-18.9-13.6-18.9-35.5,0-49.1c19-13.6,68.6-3.7,68.6,0.1s-49.7,13.7-68.6,0.1
	c-18.9-13.6-18.9-35.5,0-49.1c7.7-5.5,17.3-8.8,27.2-9.8"/>
<line class="st1" x1="514.8" y1="54" x2="514.8" y2="86.4"/>
<g>
	<circle class="st0" cx="1954.8" cy="590.4" r="46.8"/>
	<line class="st1" x1="1954.8" y1="496.8" x2="1954.8" y2="554.4"/>
</g>
<g>
	<circle class="st0" cx="1594.8" cy="878.4" r="46.8"/>
	<line class="st1" x1="1594.8" y1="784.8" x2="1594.8" y2="842.4"/>
</g>
<path class="st1" d="M1594.8,784.8c-10-1.8-19.6-7.3-27.2-16.7c-18.9-23.1-18.9-60.5,0-83.5c19-23.2,68.6-6.2,68.6,0.2
	c0,6.5-49.7,23.4-68.6,0.2c-18.9-23.1-18.9-60.5,0-83.5c19-23.2,68.6-6.2,68.6,0.2c0,6.5-49.7,23.4-68.6,0.2
	c-18.9-23.1-18.9-60.5,0-83.5c19-23.1,68.6-6.2,68.6,0.2s-49.7,23.4-68.6,0.2c-18.9-23.1-18.9-60.5,0-83.5
	c19-23.1,68.6-6.2,68.6,0.2c0,6.5-49.7,23.4-68.6,0.2c-18.9-23.1-18.9-60.5,0-83.5c19-23.1,68.6-6.2,68.6,0.2
	c0,6.5-49.7,23.4-68.6,0.2c-18.9-23.1-18.9-60.5,0-83.5c19-23.1,68.6-6.2,68.6,0.2c0,6.5-49.7,23.4-68.6,0.2
	c-18.9-23.1-18.9-60.5,0-83.5c19-23.1,68.6-6.2,68.6,0.2c0,6.5-49.7,23.4-68.6,0.2c-18.9-23.1-18.9-60.5,0-83.5
	c7.7-9.4,17.3-14.9,27.2-16.7"/>
<path class="st1" d="M1234.8,496.8c-10-1-19.6-4.3-27.2-9.8c-18.9-13.6-18.9-35.5,0-49.1c19-13.6,68.6-3.7,68.6,0.1
	s-49.7,13.7-68.6,0.1c-18.9-13.6-18.9-35.5,0-49.1c19-13.6,68.6-3.7,68.6,0.1s-49.7,13.7-68.6,0.1c-18.9-13.6-18.9-35.5,0-49.1
	c19-13.6,68.6-3.7,68.6,0.1s-49.7,13.7-68.6,0.1c-18.9-13.6-18.9-35.5,0-49.1c19-13.6,68.6-3.7,68.6,0.1s-49.7,13.7-68.6,0.1
	c-18.9-13.6-18.9-35.5,0-49.1c19-13.6,68.6-3.7,68.6,0.1s-49.7,13.7-68.6,0.1c-18.9-13.6-18.9-35.5,0-49.1
	c19-13.6,68.6-3.7,68.6,0.1s-49.7,13.7-68.6,0.1c-18.9-13.6-18.9-35.5,0-49.1c19-13.6,68.6-3.7,68.6,0.1s-49.7,13.7-68.6,0.1
	c-18.9-13.6-18.9-35.5,0-49.1c7.7-5.5,17.3-8.8,27.2-9.8"/>
<path class="st1" d="M874.8,208.8c-10-0.3-19.6-1.3-27.2-2.9c-18.9-4-18.9-10.6,0-14.6c19-4.1,68.6-1.1,68.6,0s-49.7,4.1-68.6,0
	s-18.9-10.6,0-14.6s68.6-1.1,68.6,0s-49.7,4.1-68.6,0c-18.9-4-18.9-10.6,0-14.6c19-4.1,68.6-1.1,68.6,0s-49.7,4.1-68.6,0
	s-18.9-10.6,0-14.6s68.6-1.1,68.6,0s-49.7,4.1-68.6,0c-18.9-4-18.9-10.6,0-14.6c19-4.1,68.6-1.1,68.6,0s-49.7,4.1-68.6,0
	c-18.9-4-18.9-10.6,0-14.6c19-4.1,68.6-1.1,68.6,0s-49.7,4.1-68.6,0c-18.9-4-18.9-10.6,0-14.6c19-4.1,68.6-1.1,68.6,0
	s-49.7,4.1-68.6,0c-18.9-4-18.9-10.6,0-14.6c7.7-1.6,17.3-2.6,27.2-2.9"/>
<g>
	<circle class="st0" cx="874.8" cy="302.4" r="46.8"/>
	<line class="st1" x1="874.8" y1="208.8" x2="874.8" y2="266.4"/>
</g>
<g>
	<circle class="st0" cx="1774.8" cy="794.6" r="46.8"/>
	<line class="st1" x1="1774.8" y1="701" x2="1774.8" y2="758.6"/>
</g>
<g>
	<circle class="st0" cx="1414.8" cy="794.6" r="46.8"/>
	<line class="st1" x1="1414.8" y1="701" x2="1414.8" y2="758.6"/>
</g>
<path class="st1" d="M1774.8,701c-10-1.5-19.6-6.5-27.2-14.7c-18.9-20.3-18.9-53.2,0-73.5c19-20.4,68.6-5.5,68.6,0.2
	s-49.7,20.6-68.6,0.2c-18.9-20.3-18.9-53.2,0-73.5c19-20.4,68.6-5.5,68.6,0.2s-49.7,20.6-68.6,0.2c-18.9-20.3-18.9-53.2,0-73.5
	c19-20.4,68.6-5.5,68.6,0.2c0,5.7-49.7,20.6-68.6,0.2c-18.9-20.3-18.9-53.2,0-73.5c19-20.4,68.6-5.5,68.6,0.2s-49.7,20.6-68.6,0.2
	c-18.9-20.3-18.9-53.2,0-73.5c19-20.4,68.6-5.5,68.6,0.2c0,5.7-49.7,20.6-68.6,0.2c-18.9-20.3-18.9-53.2,0-73.5
	c19-20.4,68.6-5.5,68.6,0.2c0,5.7-49.7,20.6-68.6,0.2c-18.9-20.3-18.9-53.2,0-73.5c19-20.4,68.6-5.5,68.6,0.2s-49.7,20.6-68.6,0.2
	s-18.9-53.2,0-73.5c7.7-8.2,17.3-13.1,27.2-14.7"/>
<path class="st1" d="M1414.8,701c-10-1.5-19.6-6.5-27.2-14.7c-18.9-20.3-18.9-53.2,0-73.5c19-20.4,68.6-5.5,68.6,0.2
	s-49.7,20.6-68.6,0.2c-18.9-20.3-18.9-53.2,0-73.5c19-20.4,68.6-5.5,68.6,0.2s-49.7,20.6-68.6,0.2c-18.9-20.3-18.9-53.2,0-73.5
	c19-20.4,68.6-5.5,68.6,0.2c0,5.7-49.7,20.6-68.6,0.2c-18.9-20.3-18.9-53.2,0-73.5c19-20.4,68.6-5.5,68.6,0.2s-49.7,20.6-68.6,0.2
	c-18.9-20.3-18.9-53.2,0-73.5c19-20.4,68.6-5.5,68.6,0.2s-49.7,20.6-68.6,0.2c-18.9-20.3-18.9-53.2,0-73.5
	c19-20.4,68.6-5.5,68.6,0.2c0,5.7-49.7,20.6-68.6,0.2s-18.9-53.2,0-73.5c19-20.4,68.6-5.5,68.6,0.2c0,5.7-49.7,20.6-68.6,0.2
	c-18.9-20.3-18.9-53.2,0-73.5c7.7-8.2,17.3-13.1,27.2-14.7"/>
<path class="st1" d="M1054.8,292.9c-10-0.5-19.6-2.2-27.2-4.9c-18.9-6.8-18.9-17.9,0-24.7c19-6.9,68.6-1.8,68.6,0.1
	s-49.7,6.9-68.6,0.1c-18.9-6.8-18.9-17.9,0-24.7c19-6.9,68.6-1.8,68.6,0.1s-49.7,6.9-68.6,0.1c-18.9-6.8-18.9-17.9,0-24.7
	s68.6-1.8,68.6,0.1s-49.7,6.9-68.6,0.1c-18.9-6.8-18.9-17.9,0-24.7c19-6.9,68.6-1.8,68.6,0.1s-49.7,6.9-68.6,0.1
	c-18.9-6.8-18.9-17.9,0-24.7c19-6.9,68.6-1.8,68.6,0.1s-49.7,6.9-68.6,0.1c-18.9-6.8-18.9-17.9,0-24.7c19-6.9,68.6-1.8,68.6,0.1
	s-49.7,6.9-68.6,0.1c-18.9-6.8-18.9-17.9,0-24.7c19-6.8,68.6-1.8,68.6,0.1s-49.7,6.9-68.6,0.1c-18.9-6.8-18.9-17.9,0-24.7
	c7.7-2.8,17.3-4.4,27.2-4.9"/>
<path class="st1" d="M694.8,292.9c-10-0.5-19.6-2.2-27.2-4.9c-18.9-6.8-18.9-17.9,0-24.7c19-6.9,68.6-1.8,68.6,0.1
	s-49.7,6.9-68.6,0.1c-18.9-6.8-18.9-17.9,0-24.7c19-6.9,68.6-1.8,68.6,0.1s-49.7,6.9-68.6,0.1c-18.9-6.8-18.9-17.9,0-24.7
	c19-6.9,68.6-1.8,68.6,0.1s-49.7,6.9-68.6,0.1c-18.9-6.8-18.9-17.9,0-24.7c19-6.9,68.6-1.8,68.6,0.1s-49.7,6.9-68.6,0.1
	c-18.9-6.8-18.9-17.9,0-24.7c19-6.9,68.6-1.8,68.6,0.1s-49.7,6.9-68.6,0.1c-18.9-6.8-18.9-17.9,0-24.7c19-6.9,68.6-1.8,68.6,0.1
	s-49.7,6.9-68.6,0.1s-18.9-17.9,0-24.7c19-6.8,68.6-1.8,68.6,0.1s-49.7,6.9-68.6,0.1c-18.9-6.8-18.9-17.9,0-24.7
	c7.7-2.8,17.3-4.4,27.2-4.9"/>
<path class="st1" d="M514.8,496.8c-10-1-19.6-4.3-27.2-9.8c-18.9-13.6-18.9-35.5,0-49.1c19-13.6,68.6-3.7,68.6,0.1
	s-49.7,13.7-68.6,0.1c-18.9-13.6-18.9-35.5,0-49.1c19-13.6,68.6-3.7,68.6,0.1s-49.7,13.7-68.6,0.1c-18.9-13.6-18.9-35.5,0-49.1
	c19-13.6,68.6-3.7,68.6,0.1s-49.7,13.7-68.6,0.1c-18.9-13.6-18.9-35.5,0-49.1c19-13.6,68.6-3.7,68.6,0.1s-49.7,13.7-68.6,0.1
	c-18.9-13.6-18.9-35.5,0-49.1c19-13.6,68.6-3.7,68.6,0.1s-49.7,13.7-68.6,0.1c-18.9-13.6-18.9-35.5,0-49.1
	c19-13.6,68.6-3.7,68.6,0.1s-49.7,13.7-68.6,0.1c-18.9-13.6-18.9-35.5,0-49.1c19-13.6,68.6-3.7,68.6,0.1s-49.7,13.7-68.6,0.1
	c-18.9-13.6-18.9-35.5,0-49.1c7.7-5.5,17.3-8.8,27.2-9.8"/>
<line class="st1" x1="694.8" y1="54" x2="694.8" y2="86.4"/>
<line class="st1" x1="874.8" y1="54" x2="874.8" y2="86.4"/>
<line class="st1" x1="1054.8" y1="54" x2="1054.8" y2="86.4"/>
<line class="st1" x1="1234.8" y1="54" x2="1234.8" y2="86.4"/>
<line class="st1" x1="1414.8" y1="54" x2="1414.8" y2="86.4"/>
<line class="st1" x1="1594.8" y1="54" x2="1594.8" y2="86.4"/>
<line class="st1" x1="1774.8" y1="54" x2="1774.8" y2="86.4"/>
<line class="st1" x1="1954.8" y1="54" x2="1954.8" y2="86.4"/>
<circle class="st0" cx="154.8" cy="878.4" r="46.8"/>
<g>
	<line class="st1" x1="154.8" y1="590.4" x2="154.8" y2="858.1"/>
	<polygon class="st2" points="140.7,853.9 154.8,878.4 168.9,853.9 	"/>
</g>
<g class="st3">
	<path class="st2" d="M1004.1,1006.1v-37.9H989V964h35.5v4.3h-15.1v37.9H1004.1z"/>
	<path class="st2" d="M1032.8,969.2c-1.1,0-2.1-0.4-2.9-1.2s-1.2-1.8-1.2-2.9c0-1.2,0.4-2.1,1.2-2.9s1.8-1.2,2.9-1.2
		c1.2,0,2.1,0.4,2.9,1.2s1.2,1.8,1.2,2.9c0,1.1-0.4,2.1-1.2,2.9S1033.9,969.2,1032.8,969.2z M1030.3,1006.1v-31.6h4.9v31.6H1030.3z"
		/>
	<path class="st2" d="M1044.8,1006.1v-31.6h4.6v5.4c0.7-1.6,2-3.1,3.7-4.3c1.7-1.2,3.8-1.8,6.1-1.8c2.1,0,3.9,0.6,5.5,1.7
		s2.7,2.8,3.5,4.8c1-1.9,2.4-3.5,4.1-4.7s3.7-1.8,6-1.8c3,0,5.4,1.1,7.2,3.3c1.8,2.2,2.7,5.2,2.7,9.1v19.9h-4.9v-19.5
		c0-1.8-0.2-3.3-0.6-4.6c-0.4-1.3-1-2.3-1.8-3s-2-1.1-3.5-1.1c-1.6,0-3,0.5-4.3,1.4c-1.3,0.9-2.3,2.2-3,4s-1.1,3.9-1.1,6.4v16.6
		h-4.9v-19.5c0-1.8-0.2-3.3-0.6-4.6c-0.4-1.3-1-2.3-1.8-3c-0.8-0.7-2-1.1-3.4-1.1c-1.6,0-3,0.4-4.3,1.3s-2.3,2.2-3,4
		c-0.7,1.7-1.1,3.9-1.1,6.4v16.6H1044.8z"/>
	<path class="st2" d="M1110,1006.8c-3,0-5.6-0.7-7.8-2s-3.9-3.3-5.1-5.7c-1.2-2.5-1.8-5.4-1.8-8.7c0-3.4,0.6-6.3,1.8-8.8
		c1.2-2.5,2.9-4.4,5-5.7s4.7-2,7.6-2c1.7,0,3.4,0.3,5.1,0.8c1.7,0.5,3.2,1.5,4.6,2.8c1.4,1.3,2.5,3.1,3.4,5.4s1.3,5.2,1.3,8.7h-25.6
		v-4h21.4l-1.4,1.8c-0.1-2.8-0.5-5-1.3-6.7c-0.8-1.7-1.8-2.9-3.1-3.6c-1.3-0.8-2.7-1.1-4.3-1.1c-1.9,0-3.5,0.5-4.8,1.5
		s-2.4,2.4-3.1,4.2c-0.7,1.9-1.1,4.1-1.1,6.8c0,3.9,0.8,7,2.4,9.1s3.9,3.2,6.9,3.2c2.1,0,3.9-0.5,5.4-1.6c1.5-1.1,2.5-2.6,3.2-4.7
		l4.8,1.6c-0.8,1.8-1.8,3.4-3,4.7c-1.3,1.3-2.8,2.3-4.5,3C1114.1,1006.5,1112.1,1006.8,1110,1006.8z"/>
</g>
<g class="st3">
	<path class="st2" d="M730.3,607.9v-42.2h27.8v4.3h-22.5v13.2h19.7v4.3h-19.7v15.9h22.9v4.3H730.3z"/>
</g>
<g class="st3">
	<path class="st2" d="M784.7,619.4v-18l0.4,0.5c-0.9,2.3-2.3,4-4.3,5.1s-4.1,1.7-6.4,1.7c-2.6,0-4.8-0.7-6.8-2s-3.5-3.3-4.6-5.7
		c-1.1-2.5-1.6-5.4-1.6-8.8s0.6-6.3,1.7-8.8c1.1-2.5,2.6-4.4,4.6-5.7c2-1.3,4.2-2,6.8-2c2.1,0,4.1,0.5,6.2,1.6c2,1,3.6,2.8,4.6,5.2
		l-0.3,0.2v-6.3h4.6v43.1H784.7z M775.8,604.5c1.7,0,3.2-0.4,4.5-1.3c1.4-0.9,2.5-2.2,3.3-4s1.2-4.2,1.2-7c0-4.3-0.9-7.4-2.6-9.4
		s-3.9-3.1-6.4-3.1c-2.6,0-4.8,1.1-6.4,3.2c-1.7,2.2-2.5,5.2-2.5,9.3c0,3.9,0.8,6.9,2.4,9.1C771,603.5,773.1,604.5,775.8,604.5z"/>
	<path class="st2" d="M809.4,608.6c-2.2,0-4.1-0.5-5.7-1.5c-1.6-1-2.9-2.4-3.8-4.3s-1.3-4.1-1.3-6.7v-19.9h4.9v19.5
		c0,2.6,0.5,4.7,1.5,6.3c1,1.6,2.7,2.4,5.3,2.4c1.9,0,3.5-0.5,4.9-1.5c1.4-1,2.5-2.4,3.2-4.4c0.8-2,1.2-4.4,1.2-7.3v-15.1h4.9v31.6
		h-4.6v-7.4l0.2,1.3c-0.8,2-2.1,3.6-4,4.9C814.3,608,812.1,608.6,809.4,608.6z"/>
	<path class="st2" d="M836.6,571c-1.1,0-2.1-0.4-2.9-1.2c-0.8-0.8-1.2-1.8-1.2-2.9c0-1.2,0.4-2.1,1.2-2.9c0.8-0.8,1.8-1.2,2.9-1.2
		c1.2,0,2.1,0.4,2.9,1.2s1.2,1.8,1.2,2.9c0,1.1-0.4,2.1-1.2,2.9S837.7,571,836.6,571z M834.1,607.9v-31.6h4.9v31.6H834.1z"/>
	<path class="st2" d="M853.2,607.9c-1.2,0-2.3-0.4-3.3-1.2s-1.4-1.9-1.4-3.1V564h4.9v38.2c0,0.6,0.1,1.1,0.3,1.3
		c0.2,0.2,0.6,0.3,1.2,0.3h3.1v4.1H853.2z"/>
	<path class="st2" d="M867,571c-1.1,0-2.1-0.4-2.9-1.2c-0.8-0.8-1.2-1.8-1.2-2.9c0-1.2,0.4-2.1,1.2-2.9c0.8-0.8,1.8-1.2,2.9-1.2
		c1.2,0,2.1,0.4,2.9,1.2s1.2,1.8,1.2,2.9c0,1.1-0.4,2.1-1.2,2.9S868.2,571,867,571z M864.5,607.9v-31.6h4.9v31.6H864.5z"/>
	<path class="st2" d="M894.2,608.6c-2.1,0-4.1-0.5-6.2-1.6c-2-1-3.6-2.8-4.6-5.2l0.3-0.2v6.3H879V564h4.9v18.9l-0.4-0.5
		c0.9-2.3,2.3-4,4.3-5.1s4.1-1.7,6.4-1.7c2.6,0,4.8,0.7,6.8,2c2,1.3,3.5,3.3,4.6,5.7c1.1,2.5,1.6,5.4,1.6,8.8s-0.6,6.3-1.7,8.8
		c-1.1,2.5-2.6,4.4-4.6,5.7C899,608,896.7,608.6,894.2,608.6z M892.8,604.5c2.6,0,4.8-1.1,6.4-3.2c1.7-2.2,2.5-5.2,2.5-9.3
		c0-3.9-0.8-6.9-2.4-9.1c-1.6-2.2-3.8-3.2-6.5-3.2c-1.6,0-3.1,0.4-4.5,1.3s-2.5,2.2-3.3,4s-1.2,4.2-1.2,7c0,4.2,0.9,7.4,2.6,9.4
		S890.3,604.5,892.8,604.5z"/>
	<path class="st2" d="M914.5,607.9v-31.6h4.6v6.7l-0.2-0.8c0.9-2.2,2.3-3.8,4.2-5c1.9-1.1,3.8-1.7,5.7-1.7c0.6,0,1.1,0,1.7,0.1
		c0.5,0.1,1,0.3,1.5,0.5l-0.6,4.6c-1.1-0.3-2.1-0.5-3.2-0.5c-0.7,0-1.5,0.1-2.5,0.4c-1,0.3-2,0.8-2.9,1.6s-1.8,2-2.4,3.5
		c-0.7,1.6-1,3.6-1,6.2v15.8H914.5z"/>
	<path class="st2" d="M940.4,571c-1.1,0-2.1-0.4-2.9-1.2c-0.8-0.8-1.2-1.8-1.2-2.9c0-1.2,0.4-2.1,1.2-2.9c0.8-0.8,1.8-1.2,2.9-1.2
		c1.2,0,2.1,0.4,2.9,1.2s1.2,1.8,1.2,2.9c0,1.1-0.4,2.1-1.2,2.9S941.6,571,940.4,571z M938,607.9v-31.6h4.9v31.6H938z"/>
	<path class="st2" d="M962.7,608.6c-2.2,0-4.1-0.5-5.7-1.5c-1.6-1-2.9-2.4-3.8-4.3s-1.3-4.1-1.3-6.7v-19.9h4.9v19.5
		c0,2.6,0.5,4.7,1.5,6.3c1,1.6,2.7,2.4,5.3,2.4c1.9,0,3.5-0.5,4.9-1.5c1.4-1,2.5-2.4,3.2-4.4c0.8-2,1.2-4.4,1.2-7.3v-15.1h4.9v31.6
		h-4.6v-7.4l0.2,1.3c-0.8,2-2.1,3.6-4,4.9C967.6,608,965.3,608.6,962.7,608.6z"/>
	<path class="st2" d="M987.4,607.9v-31.6h4.6v5.4c0.7-1.6,2-3.1,3.7-4.3c1.7-1.2,3.8-1.8,6.1-1.8c2.1,0,3.9,0.6,5.5,1.7
		s2.7,2.8,3.5,4.8c1-1.9,2.4-3.5,4.1-4.7s3.7-1.8,6-1.8c3,0,5.4,1.1,7.2,3.3c1.8,2.2,2.7,5.2,2.7,9.1v19.9h-4.9v-19.5
		c0-1.8-0.2-3.3-0.6-4.6c-0.4-1.3-1-2.3-1.8-3s-2-1.1-3.5-1.1c-1.6,0-3,0.5-4.3,1.4c-1.3,0.9-2.3,2.2-3,4s-1.1,3.9-1.1,6.4v16.6
		h-4.9v-19.5c0-1.8-0.2-3.3-0.6-4.6c-0.4-1.3-1-2.3-1.8-3c-0.8-0.7-2-1.1-3.4-1.1c-1.6,0-3,0.4-4.3,1.3s-2.3,2.2-3,4
		c-0.7,1.7-1.1,3.9-1.1,6.4v16.6H987.4z"/>
</g>
<g>
	
		<ellipse transform="matrix(0.1602 -0.9871 0.9871 0.1602 504.2911 1365.8031)" class="st0" cx="1054.8" cy="386.5" rx="46.8" ry="46.8"/>
	<line class="st1" x1="1054.8" y1="292.9" x2="1054.8" y2="350.5"/>
</g>
<g>
	<circle class="st0" cx="694.8" cy="386.5" r="46.8"/>
	<line class="st1" x1="694.8" y1="292.9" x2="694.8" y2="350.5"/>
</g>
<g>
	<circle class="st0" cx="514.8" cy="590.4" r="46.8"/>
	<line class="st1" x1="514.8" y1="496.8" x2="514.8" y2="554.4"/>
</g>
<g class="st3">
	<path class="st2" d="M24,986.4v-42.2h12.7c5,0,9,0.8,12.2,2.5c3.2,1.7,5.5,4.1,7,7.2s2.3,6.8,2.3,11.1c0,4.8-0.9,8.8-2.7,12
		c-1.8,3.2-4.3,5.5-7.6,7.1s-7.1,2.3-11.6,2.3H24z M29.3,982.1h6.6c11.2,0,16.7-5.6,16.7-16.8c0-3.4-0.6-6.4-1.7-8.9
		c-1.1-2.5-2.9-4.4-5.2-5.8c-2.4-1.4-5.5-2.1-9.4-2.1h-6.9V982.1z"/>
	<path class="st2" d="M79.7,987.1c-3,0-5.6-0.7-7.8-2s-3.9-3.3-5.1-5.7c-1.2-2.5-1.8-5.4-1.8-8.7c0-3.4,0.6-6.3,1.8-8.8
		c1.2-2.5,2.9-4.4,5-5.7s4.7-2,7.6-2c1.7,0,3.4,0.3,5.1,0.8c1.7,0.5,3.2,1.5,4.6,2.8c1.4,1.3,2.5,3.1,3.4,5.4s1.3,5.2,1.3,8.7H68.2
		v-4h21.4l-1.4,1.8c-0.1-2.8-0.5-5-1.3-6.7c-0.8-1.7-1.8-2.9-3.1-3.6c-1.3-0.8-2.7-1.1-4.3-1.1c-1.9,0-3.5,0.5-4.8,1.5
		s-2.4,2.4-3.1,4.2c-0.7,1.9-1.1,4.1-1.1,6.8c0,3.9,0.8,7,2.4,9.1s3.9,3.2,6.9,3.2c2.1,0,3.9-0.5,5.4-1.6c1.5-1.1,2.5-2.6,3.2-4.7
		l4.8,1.6c-0.8,1.8-1.8,3.4-3,4.7c-1.3,1.3-2.8,2.3-4.5,3C83.8,986.8,81.9,987.1,79.7,987.1z"/>
	<path class="st2" d="M97.5,958.9v-4.1h16.7v4.1H97.5z M102.2,986.4V949c0-2.4,0.6-4,1.7-5.1s3-1.5,5.6-1.5h4v4.1h-4.7
		c-0.6,0-1,0.1-1.3,0.4c-0.3,0.3-0.4,0.7-0.4,1.3v38.2H102.2z M124.9,986.4c-1.2,0-2.3-0.4-3.3-1.2s-1.4-1.9-1.4-3.1v-39.6h4.9v38.2
		c0,0.6,0.1,1.1,0.3,1.3c0.2,0.2,0.6,0.3,1.2,0.3h3.1v4.1H124.9z"/>
	<path class="st2" d="M148.6,987.1c-3,0-5.6-0.7-7.8-2s-3.9-3.3-5.1-5.7c-1.2-2.5-1.8-5.4-1.8-8.7c0-3.4,0.6-6.3,1.8-8.8
		c1.2-2.5,2.9-4.4,5-5.7s4.7-2,7.6-2c1.7,0,3.4,0.3,5.1,0.8c1.7,0.5,3.2,1.5,4.6,2.8c1.4,1.3,2.5,3.1,3.4,5.4s1.3,5.2,1.3,8.7h-25.6
		v-4h21.4l-1.4,1.8c-0.1-2.8-0.5-5-1.3-6.7c-0.8-1.7-1.8-2.9-3.1-3.6c-1.3-0.8-2.7-1.1-4.3-1.1c-1.9,0-3.5,0.5-4.8,1.5
		s-2.4,2.4-3.1,4.2c-0.7,1.9-1.1,4.1-1.1,6.8c0,3.9,0.8,7,2.4,9.1s3.9,3.2,6.9,3.2c2.1,0,3.9-0.5,5.4-1.6c1.5-1.1,2.5-2.6,3.2-4.7
		l4.8,1.6c-0.8,1.8-1.8,3.4-3,4.7c-1.3,1.3-2.8,2.3-4.5,3C152.7,986.8,150.8,987.1,148.6,987.1z"/>
	<path class="st2" d="M183.7,987.1c-3,0-5.5-0.7-7.7-2s-3.8-3.3-5-5.7s-1.8-5.4-1.8-8.8s0.6-6.3,1.8-8.8s2.8-4.4,5-5.7s4.7-2,7.7-2
		c2.3,0,4.3,0.4,6.1,1.2s3.3,2,4.5,3.6c1.2,1.6,2.2,3.4,2.7,5.6l-5,1.3c-0.5-2.5-1.5-4.4-2.9-5.7c-1.4-1.3-3.2-2-5.4-2
		c-2.9,0-5.2,1.1-6.7,3.2c-1.6,2.2-2.4,5.2-2.4,9.2c0,4,0.8,7.1,2.4,9.2c1.6,2.1,3.8,3.2,6.7,3.2c2.2,0,4-0.6,5.4-1.9s2.4-3.1,3-5.6
		l5,1.4c-0.5,1.6-1.1,3-1.9,4.3s-1.8,2.3-2.9,3.2c-1.1,0.9-2.4,1.5-3.8,2C186.9,986.9,185.4,987.1,183.7,987.1z"/>
	<path class="st2" d="M210.3,986.4c-1.2,0-2.3-0.4-3.3-1.2s-1.4-1.9-1.4-3.1v-23.1h-5.1v-4.1h5.1v-6.6l4.9-1.1v7.7h6.3v4.1h-6.3
		v21.8c0,0.6,0.1,1.1,0.3,1.3c0.2,0.2,0.6,0.3,1.2,0.3h4.8v4.1H210.3z"/>
	<path class="st2" d="M226.4,949.5c-1.1,0-2.1-0.4-2.9-1.2c-0.8-0.8-1.2-1.8-1.2-2.9c0-1.2,0.4-2.1,1.2-2.9c0.8-0.8,1.8-1.2,2.9-1.2
		c1.2,0,2.1,0.4,2.9,1.2s1.2,1.8,1.2,2.9c0,1.1-0.4,2.1-1.2,2.9S227.6,949.5,226.4,949.5z M224,986.4v-31.6h4.9v31.6H224z"/>
	<path class="st2" d="M251.3,987.1c-3,0-5.6-0.7-7.9-2.1c-2.3-1.4-4-3.3-5.3-5.8c-1.3-2.5-1.9-5.4-1.9-8.6s0.6-6.1,1.9-8.6
		c1.3-2.5,3-4.4,5.3-5.8c2.3-1.4,4.9-2.1,7.9-2.1c3,0,5.6,0.7,7.9,2.1c2.3,1.4,4,3.3,5.3,5.8c1.3,2.5,1.9,5.4,1.9,8.6
		s-0.6,6.1-1.9,8.6c-1.3,2.5-3,4.4-5.3,5.8C256.9,986.4,254.3,987.1,251.3,987.1z M251.3,983c3,0,5.3-1.1,7.1-3.3s2.6-5.3,2.6-9.1
		c0-3.8-0.9-6.9-2.6-9.1s-4.1-3.3-7.1-3.3s-5.3,1.1-7.1,3.3s-2.6,5.2-2.6,9.1c0,3.8,0.9,6.9,2.6,9.1S248.3,983,251.3,983z"/>
	<path class="st2" d="M273.7,986.4v-31.6h4.6v7.1l-0.2-1.3c0.8-1.8,2.2-3.4,4-4.6s4-1.9,6.6-1.9c2.2,0,4.2,0.5,5.8,1.5
		c1.6,1,2.9,2.4,3.8,4.3s1.3,4.1,1.3,6.7v19.9h-4.9v-19.5c0-2.6-0.5-4.7-1.6-6.3c-1.1-1.6-2.8-2.4-5.3-2.4c-2.6,0-4.8,1-6.6,3
		c-1.7,2-2.6,4.9-2.6,8.7v16.6H273.7z"/>
</g>
<path class="st1" d="M154.8,496.8c-10-1-19.6-4.3-27.2-9.8c-18.9-13.6-18.9-35.5,0-49.1c19-13.6,68.6-3.7,68.6,0.1
	s-49.7,13.7-68.6,0.1c-18.9-13.6-18.9-35.5,0-49.1c19-13.6,68.6-3.7,68.6,0.1s-49.7,13.7-68.6,0.1c-18.9-13.6-18.9-35.5,0-49.1
	c19-13.6,68.6-3.7,68.6,0.1s-49.7,13.7-68.6,0.1c-18.9-13.6-18.9-35.5,0-49.1c19-13.6,68.6-3.7,68.6,0.1s-49.7,13.7-68.6,0.1
	c-18.9-13.6-18.9-35.5,0-49.1c19-13.6,68.6-3.7,68.6,0.1s-49.7,13.7-68.6,0.1c-18.9-13.6-18.9-35.5,0-49.1
	c19-13.6,68.6-3.7,68.6,0.1s-49.7,13.7-68.6,0.1s-18.9-35.5,0-49.1c19-13.6,68.6-3.7,68.6,0.1s-49.7,13.7-68.6,0.1
	c-18.9-13.6-18.9-35.5,0-49.1c7.7-5.5,17.3-8.8,27.2-9.8"/>
<circle class="st4" cx="154.8" cy="590.4" r="46.8"/>
<line class="st1" x1="154.8" y1="496.8" x2="154.8" y2="554.4"/>
<line class="st1" x1="334.8" y1="54" x2="334.8" y2="86.4"/>
<line class="st1" x1="154.8" y1="54" x2="154.8" y2="86.4"/>
<g id="Arrows">
	<g>
		<line class="st5" x1="1954.8" y1="590.4" x2="1054.8" y2="590.4"/>
		<g>
			<line class="st6" x1="1954.8" y1="590.4" x2="1945" y2="590.4"/>
			<line class="st7" x1="1925.4" y1="590.4" x2="1074.4" y2="590.4"/>
			<line class="st6" x1="1064.6" y1="590.4" x2="1054.8" y2="590.4"/>
		</g>
	</g>
	<g>
		<line class="st1" x1="154.8" y1="1022.4" x2="1948" y2="1022.4"/>
		<path class="st2" d="M1909.2,1049.6c-0.8-1.3-0.4-3.1,0.9-3.9l36.6-23.3l-36.6-23.3c-1.3-0.8-1.7-2.6-0.9-3.9
			c0.8-1.3,2.6-1.7,3.9-0.9l40.3,25.7c0.8,0.5,1.3,1.4,1.3,2.4s-0.5,1.9-1.3,2.4l-40.3,25.7c-0.5,0.3-1,0.4-1.5,0.4
			C1910.7,1050.9,1909.8,1050.5,1909.2,1049.6L1909.2,1049.6z"/>
	</g>
	<g>
		<line class="st5" x1="694.8" y1="590.4" x2="514.8" y2="590.4"/>
		<g>
			<line class="st6" x1="694.8" y1="590.4" x2="685" y2="590.4"/>
			<line class="st8" x1="667.2" y1="590.4" x2="533.5" y2="590.4"/>
			<line class="st6" x1="524.6" y1="590.4" x2="514.8" y2="590.4"/>
		</g>
	</g>
</g>
<g id="Sine">
	<path class="st9" d="M1954.8,590.4c-0.4,0.5-0.6,0.8-0.6,0.8l-78.1,96.7l-41.7,47.7l-35,36.3l-31,28.6l-28.3,22.8l-25.6,17.5
		l-24.2,13.7l-22.9,10.2l-20.2,6.7l-18.8,4.3l-17.5,2.2l-16.2,0.6"/>
	<path class="st9" d="M1234.8,590.4c0.4,0.5,0.6,0.8,0.6,0.8l78.1,96.7l41.7,47.7l35,36.3l31,28.6l28.3,22.8l25.6,17.5l24.2,13.7
		l22.9,10.2l20.2,6.7l18.8,4.3l17.5,2.2l16.2,0.6"/>
	<path class="st9" d="M514.8,590.4c0.4-0.5,0.6-0.8,0.6-0.8l78.1-96.7l41.7-47.7l35-36.3l31-28.6l28.3-22.8l25.6-17.5l24.2-13.7
		l22.9-10.2l20.2-6.7l18.8-4.3l17.5-2.2l16.2-0.6"/>
	<path class="st9" d="M1234.8,590.4c-0.4-0.5-0.6-0.8-0.6-0.8l-78.1-96.7l-41.7-47.7l-35-36.3l-31-28.6l-28.3-22.8l-25.6-17.5
		l-24.2-13.7l-22.9-10.2l-20.2-6.7l-18.8-4.3l-17.5-2.2l-16.2-0.6"/>
	<g>
		<circle class="st0" cx="334.8" cy="794.6" r="46.8"/>
		<line class="st1" x1="334.8" y1="701" x2="334.8" y2="758.6"/>
	</g>
	<path class="st1" d="M334.8,701c-10-1.5-19.6-6.5-27.2-14.7c-18.9-20.3-18.9-53.2,0-73.5c19-20.4,68.6-5.5,68.6,0.2
		s-49.7,20.6-68.6,0.2c-18.9-20.3-18.9-53.2,0-73.5c19-20.4,68.6-5.5,68.6,0.2s-49.7,20.6-68.6,0.2c-18.9-20.3-18.9-53.2,0-73.5
		c19-20.4,68.6-5.5,68.6,0.2c0,5.7-49.7,20.6-68.6,0.2c-18.9-20.3-18.9-53.2,0-73.5c19-20.4,68.6-5.5,68.6,0.2s-49.7,20.6-68.6,0.2
		c-18.9-20.3-18.9-53.2,0-73.5c19-20.4,68.6-5.5,68.6,0.2c0,5.7-49.7,20.6-68.6,0.2c-18.9-20.3-18.9-53.2,0-73.5
		c19-20.4,68.6-5.5,68.6,0.2c0,5.7-49.7,20.6-68.6,0.2c-18.9-20.3-18.9-53.2,0-73.5c19-20.4,68.6-5.5,68.6,0.2s-49.7,20.6-68.6,0.2
		c-18.9-20.3-18.9-53.2,0-73.5c7.7-8.2,17.3-13.1,27.2-14.7"/>
	<g>
		<path class="st10" d="M514.8,590.4c-0.4,0.5-0.6,0.8-0.6,0.8l-5.6,6.9"/>
		<polyline class="st11" points="496.2,613.5 436.1,687.8 394.4,735.5 359.4,771.8 328.4,800.5 300.2,823.2 274.6,840.7 
			250.4,854.4 227.5,864.6 207.3,871.3 188.4,875.6 174.5,877.4 		"/>
		<line class="st10" x1="164.6" y1="878.1" x2="154.8" y2="878.4"/>
	</g>
</g>
<g id="Ceiling">
	<g>
		<line class="st12" x1="604.8" y1="54" x2="774" y2="54"/>
		<line class="st12" x1="655.2" y1="21.6" x2="608.4" y2="54"/>
		<line class="st12" x1="687.6" y1="21.6" x2="640.8" y2="54"/>
		<line class="st12" x1="720" y1="21.6" x2="673.2" y2="54"/>
		<line class="st12" x1="752.4" y1="21.6" x2="705.6" y2="54"/>
		<line class="st12" x1="784.8" y1="21.6" x2="738" y2="54"/>
	</g>
	<g>
		<line class="st12" x1="784.8" y1="54" x2="954" y2="54"/>
		<line class="st12" x1="835.2" y1="21.6" x2="788.4" y2="54"/>
		<line class="st12" x1="867.6" y1="21.6" x2="820.8" y2="54"/>
		<line class="st12" x1="900" y1="21.6" x2="853.2" y2="54"/>
		<line class="st12" x1="932.4" y1="21.6" x2="885.6" y2="54"/>
		<line class="st12" x1="964.8" y1="21.6" x2="918" y2="54"/>
	</g>
	<g>
		<line class="st12" x1="424.8" y1="54" x2="594" y2="54"/>
		<line class="st12" x1="475.2" y1="21.6" x2="428.4" y2="54"/>
		<line class="st12" x1="507.6" y1="21.6" x2="460.8" y2="54"/>
		<line class="st12" x1="540" y1="21.6" x2="493.2" y2="54"/>
		<line class="st12" x1="572.4" y1="21.6" x2="525.6" y2="54"/>
		<line class="st12" x1="604.8" y1="21.6" x2="558" y2="54"/>
	</g>
	<g>
		<line class="st12" x1="1144.8" y1="54" x2="1314" y2="54"/>
		<line class="st12" x1="1195.2" y1="21.6" x2="1148.4" y2="54"/>
		<line class="st12" x1="1227.6" y1="21.6" x2="1180.8" y2="54"/>
		<line class="st12" x1="1260" y1="21.6" x2="1213.2" y2="54"/>
		<line class="st12" x1="1292.4" y1="21.6" x2="1245.6" y2="54"/>
		<line class="st12" x1="1324.8" y1="21.6" x2="1278" y2="54"/>
	</g>
	<g>
		<line class="st12" x1="1324.8" y1="54" x2="1494" y2="54"/>
		<line class="st12" x1="1375.2" y1="21.6" x2="1328.4" y2="54"/>
		<line class="st12" x1="1407.6" y1="21.6" x2="1360.8" y2="54"/>
		<line class="st12" x1="1440" y1="21.6" x2="1393.2" y2="54"/>
		<line class="st12" x1="1472.4" y1="21.6" x2="1425.6" y2="54"/>
		<line class="st12" x1="1504.8" y1="21.6" x2="1458" y2="54"/>
	</g>
	<g>
		<line class="st12" x1="964.8" y1="54" x2="1134" y2="54"/>
		<line class="st12" x1="1015.2" y1="21.6" x2="968.4" y2="54"/>
		<line class="st12" x1="1047.6" y1="21.6" x2="1000.8" y2="54"/>
		<line class="st12" x1="1080" y1="21.6" x2="1033.2" y2="54"/>
		<line class="st12" x1="1112.4" y1="21.6" x2="1065.6" y2="54"/>
		<line class="st12" x1="1144.8" y1="21.6" x2="1098" y2="54"/>
	</g>
	<g>
		<line class="st12" x1="1684.8" y1="54" x2="1854" y2="54"/>
		<line class="st12" x1="1735.2" y1="21.6" x2="1688.4" y2="54"/>
		<line class="st12" x1="1767.6" y1="21.6" x2="1720.8" y2="54"/>
		<line class="st12" x1="1800" y1="21.6" x2="1753.2" y2="54"/>
		<line class="st12" x1="1832.4" y1="21.6" x2="1785.6" y2="54"/>
		<line class="st12" x1="1864.8" y1="21.6" x2="1818" y2="54"/>
	</g>
	<g>
		<line class="st12" x1="1864.8" y1="54" x2="2034" y2="54"/>
		<line class="st12" x1="1915.2" y1="21.6" x2="1868.4" y2="54"/>
		<line class="st12" x1="1947.6" y1="21.6" x2="1900.8" y2="54"/>
		<line class="st12" x1="1980" y1="21.6" x2="1933.2" y2="54"/>
		<line class="st12" x1="2012.4" y1="21.6" x2="1965.6" y2="54"/>
		<line class="st12" x1="2044.8" y1="21.6" x2="1998" y2="54"/>
	</g>
	<g>
		<line class="st12" x1="1504.8" y1="54" x2="1674" y2="54"/>
		<line class="st12" x1="1555.2" y1="21.6" x2="1508.4" y2="54"/>
		<line class="st12" x1="1587.6" y1="21.6" x2="1540.8" y2="54"/>
		<line class="st12" x1="1620" y1="21.6" x2="1573.2" y2="54"/>
		<line class="st12" x1="1652.4" y1="21.6" x2="1605.6" y2="54"/>
		<line class="st12" x1="1684.8" y1="21.6" x2="1638" y2="54"/>
	</g>
	<g>
		<line class="st12" x1="64.8" y1="54" x2="234" y2="54"/>
		<line class="st12" x1="115.2" y1="21.6" x2="68.4" y2="54"/>
		<line class="st12" x1="147.6" y1="21.6" x2="100.8" y2="54"/>
		<line class="st12" x1="180" y1="21.6" x2="133.2" y2="54"/>
		<line class="st12" x1="212.4" y1="21.6" x2="165.6" y2="54"/>
		<line class="st12" x1="244.8" y1="21.6" x2="198" y2="54"/>
	</g>
	<g>
		<line class="st12" x1="244.8" y1="54" x2="414" y2="54"/>
		<line class="st12" x1="295.2" y1="21.6" x2="248.4" y2="54"/>
		<line class="st12" x1="327.6" y1="21.6" x2="280.8" y2="54"/>
		<line class="st12" x1="360" y1="21.6" x2="313.2" y2="54"/>
		<line class="st12" x1="392.4" y1="21.6" x2="345.6" y2="54"/>
		<line class="st12" x1="424.8" y1="21.6" x2="378" y2="54"/>
	</g>
</g>
</svg>
