<?xml version="1.0" encoding="UTF-8"?>
<svg id="Ebene_1" data-name="Ebene 1" xmlns="http://www.w3.org/2000/svg" width="2124" height="957.6" viewBox="0 0 2124 957.6">
  <g>
    <line x1="1874.8" y1="432" x2="64.8" y2="432" fill="none" stroke="#c9d1d9" stroke-linecap="round" stroke-linejoin="round" stroke-width="7"/>
    <polygon points="1860.9 411.7 1936.8 432 1860.9 452.3 1860.9 411.7" fill="#c9d1d9"/>
  </g>
  <g>
    <line x1="64.8" y1="49.6" x2="64.8" y2="730" fill="none" stroke="#c9d1d9" stroke-linecap="round" stroke-linejoin="round" stroke-width="7"/>
    <polygon points="48.5 60.7 64.8 0 81.1 60.7 48.5 60.7" fill="#c9d1d9"/>
    <polygon points="44.5 716.1 64.8 792 85.1 716.1 44.5 716.1" fill="#c9d1d9"/>
  </g>
  <g isolation="isolate">
    <path d="m255,950.6c-2.3,0-4.3-.5-5.9-1.4s-2.9-2.1-3.8-3.4-1.4-2.8-1.6-4.2l4.3-1.1c.1,2,.7,3.7,1.9,4.9s2.9,1.8,5.2,1.8c1.5,0,2.8-.3,3.8-1s1.8-1.6,2.4-2.7,1-2.4,1.3-3.7.5-2.7.6-4,.1-2.5.2-3.5l.4.7c-.7,1.5-1.7,2.9-3.3,4.1s-3.5,1.8-5.9,1.8c-2,0-3.8-.5-5.5-1.4s-3-2.2-4-3.9-1.5-3.8-1.5-6.2.5-4.4,1.5-6.1,2.4-3.1,4.1-4,3.8-1.4,6.1-1.4,4.2.4,5.8,1.3,2.8,2.1,3.8,3.7,1.6,3.4,2,5.5.6,4.3.6,6.6-.2,4.6-.7,6.7-1.2,4-2.1,5.7-2.2,3-3.8,3.9-3.7,1.3-5.9,1.3Zm-.1-15.2c2.3,0,4.1-.8,5.5-2.2s2.1-3.5,2.1-6.1c0-2.5-.7-4.4-2-5.8s-3.1-2.1-5.4-2.1-4.1.7-5.4,2.2-1.9,3.5-1.9,6,.6,4.5,1.9,5.9,3,2.1,5.2,2.1Z" fill="#cad2d9"/>
    <path d="m285.4,950.6c-3.9,0-6.9-1.5-9.1-4.6s-3.2-7.3-3.2-12.9,1.1-9.8,3.2-12.9,5.2-4.6,9.1-4.6,7,1.5,9.1,4.6,3.2,7.3,3.2,12.9-1.1,9.8-3.2,12.9-5.1,4.6-9.1,4.6Zm0-3.4c2.6,0,4.6-1.2,5.9-3.6s2-5.9,2-10.5-.7-8.1-2-10.5-3.3-3.6-5.9-3.6-4.6,1.2-5.9,3.6-2,5.9-2,10.5.7,8.1,2,10.5,3.3,3.6,5.9,3.6Z" fill="#cad2d9"/>
    <path d="m310,931.6c-1.5,0-2.9-.3-4.1-1s-2.1-1.6-2.8-2.8-1-2.6-1-4.1.3-2.9,1-4.1,1.6-2.1,2.8-2.7,2.5-1,4.1-1,2.9.3,4.1,1,2.1,1.6,2.8,2.8,1,2.6,1,4.1-.3,2.9-1,4.1-1.6,2.1-2.8,2.7-2.5,1-4.1,1Zm0-3.2c1.3,0,2.3-.4,3.1-1.3s1.2-1.9,1.2-3.3c0-1.3-.4-2.4-1.2-3.3s-1.8-1.3-3.1-1.3-2.3.4-3.1,1.3-1.2,1.9-1.2,3.3.4,2.5,1.2,3.3,1.8,1.3,3.1,1.3Z" fill="#cad2d9"/>
  </g>
  <g isolation="isolate">
    <path d="m457.6,950v-26.9c-1.2,1.1-2.4,2-3.5,2.7s-2.3,1.3-3.6,1.8v-4c.7-.3,1.4-.7,2.2-1.2s1.6-1.2,2.6-2.2,2.1-2.3,3.4-4h3v33.8h-4.1Z" fill="#cad2d9"/>
    <path d="m479.9,950.6c-2.3,0-4.4-.4-6.2-1.3s-3.2-2-4.2-3.6-1.5-3.3-1.5-5.3c0-2.1.6-4.1,1.9-5.8s3.2-2.8,5.6-3.2c-1.3-.3-2.4-.8-3.4-1.5s-1.7-1.5-2.2-2.5-.8-2.1-.8-3.3c0-1.6.5-3.1,1.4-4.4s2.2-2.3,3.8-3,3.5-1.1,5.6-1.1,4,.4,5.6,1.1,2.9,1.7,3.8,3,1.4,2.8,1.4,4.4c0,1.2-.3,2.3-.8,3.3s-1.3,1.8-2.2,2.5-2.1,1.2-3.4,1.5c2.5.5,4.3,1.5,5.6,3.2s1.9,3.6,1.9,5.8c0,2-.5,3.8-1.5,5.3s-2.4,2.7-4.2,3.6-3.8,1.3-6.2,1.3Zm.1-3.7c2.3,0,4.2-.6,5.5-1.8s2-2.9,2-4.9-.7-3.7-2-4.9-3.2-1.8-5.5-1.8-4.2.6-5.5,1.8-2.1,2.9-2.1,4.9c0,2.1.7,3.8,2.1,5s3.1,1.7,5.5,1.7Zm0-17c2,0,3.6-.5,4.8-1.4s1.7-2.2,1.7-3.8c0-1.7-.6-3.1-1.7-4.1s-2.7-1.5-4.8-1.5-3.6.5-4.8,1.5-1.8,2.4-1.8,4.1c0,1.6.6,2.9,1.8,3.8s2.7,1.4,4.8,1.4Z" fill="#cad2d9"/>
    <path d="m509.5,950.6c-3.9,0-6.9-1.5-9.1-4.6s-3.2-7.3-3.2-12.9,1.1-9.8,3.2-12.9,5.2-4.6,9.1-4.6,7,1.5,9.1,4.6,3.2,7.3,3.2,12.9-1.1,9.8-3.2,12.9-5.2,4.6-9.1,4.6Zm0-3.4c2.6,0,4.6-1.2,5.9-3.6s2-5.9,2-10.5-.7-8.1-2-10.5-3.3-3.6-5.9-3.6-4.6,1.2-5.9,3.6-2,5.9-2,10.5.7,8.1,2,10.5,3.3,3.6,5.9,3.6Z" fill="#cad2d9"/>
    <path d="m534.1,931.6c-1.5,0-2.9-.3-4.1-1s-2.1-1.6-2.8-2.8-1-2.6-1-4.1.3-2.9,1-4.1,1.6-2.1,2.8-2.7,2.5-1,4.1-1,2.9.3,4.1,1,2.1,1.6,2.8,2.8,1,2.6,1,4.1-.3,2.9-1,4.1-1.6,2.1-2.8,2.7-2.6,1-4.1,1Zm0-3.2c1.3,0,2.3-.4,3.1-1.3s1.2-1.9,1.2-3.3c0-1.3-.4-2.4-1.2-3.3s-1.8-1.3-3.1-1.3-2.3.4-3.1,1.3-1.2,1.9-1.2,3.3.4,2.5,1.2,3.3,1.8,1.3,3.1,1.3Z" fill="#cad2d9"/>
  </g>
  <g isolation="isolate">
    <path d="m663.7,950v-2.8l11.9-10.1c1.6-1.4,2.9-2.6,3.9-3.8s1.8-2.3,2.3-3.4.7-2.4.7-3.9-.3-2.8-.8-3.9-1.3-1.8-2.3-2.4-2.3-.8-3.7-.8c-1.7,0-3.1.3-4.1,1s-1.8,1.6-2.3,2.7-.8,2.4-.9,3.8l-4.5-1.4c.1-1.5.6-3,1.6-4.4s2.4-2.7,4.1-3.6,3.8-1.4,6.1-1.4c1.3,0,2.6.2,4,.6s2.6,1,3.7,1.8,2,1.9,2.7,3.2,1,2.9,1,4.8c0,2.7-.7,5.1-2.2,7.2s-3.5,4.2-6.1,6.3l-9.2,7.4-3-.6h21.1v3.6h-24v.1Z" fill="#cad2d9"/>
    <path d="m695,950c1.2-5.8,3-11.2,5.4-16s5.3-9.6,8.8-14.1h-18.8v-3.6h22.9v3.2c-1.6,2.4-3.1,4.8-4.5,7.2s-2.7,4.9-3.9,7.3-2.2,5.1-3,7.7-1.5,5.4-2,8.3h-4.9Z" fill="#cad2d9"/>
    <path d="m728.5,950.6c-3.9,0-6.9-1.5-9.1-4.6s-3.2-7.3-3.2-12.9,1.1-9.8,3.2-12.9,5.2-4.6,9.1-4.6,7,1.5,9.1,4.6,3.2,7.3,3.2,12.9-1.1,9.8-3.2,12.9-5.1,4.6-9.1,4.6Zm0-3.4c2.6,0,4.6-1.2,5.9-3.6s2-5.9,2-10.5-.7-8.1-2-10.5-3.3-3.6-5.9-3.6-4.6,1.2-5.9,3.6-2,5.9-2,10.5.7,8.1,2,10.5,3.3,3.6,5.9,3.6Z" fill="#cad2d9"/>
    <path d="m753.1,931.6c-1.5,0-2.9-.3-4.1-1s-2.1-1.6-2.8-2.8-1-2.6-1-4.1.3-2.9,1-4.1,1.6-2.1,2.8-2.7,2.5-1,4.1-1,2.9.3,4.1,1,2.1,1.6,2.8,2.8,1,2.6,1,4.1-.3,2.9-1,4.1-1.6,2.1-2.8,2.7-2.6,1-4.1,1Zm0-3.2c1.3,0,2.3-.4,3.1-1.3s1.2-1.9,1.2-3.3c0-1.3-.4-2.4-1.2-3.3s-1.8-1.3-3.1-1.3-2.3.4-3.1,1.3-1.2,1.9-1.2,3.3.4,2.5,1.2,3.3,1.8,1.3,3.1,1.3Z" fill="#cad2d9"/>
  </g>
  <g isolation="isolate">
    <path d="m888.8,950.6c-2.1,0-4-.4-5.8-1.2s-3.2-2-4.4-3.6-1.8-3.5-2-5.7l4.3-1.3c.2,2.5.9,4.6,2.3,6.1s3.2,2.3,5.6,2.3c2.1,0,3.9-.6,5.3-1.8s2.1-3,2.1-5.3c0-.9-.2-1.9-.6-2.9s-1.1-1.9-2.1-2.6-2.4-1.1-4.2-1.1h-4.6v-3.6h4.3c2,0,3.5-.5,4.6-1.6s1.6-2.2,1.6-3.6c0-1.6-.5-2.9-1.6-4s-2.6-1.7-4.6-1.7c-2.5,0-4.3.7-5.4,2.1s-1.8,3.4-2,5.9l-4.3-1.3c.1-1.6.6-3.2,1.6-4.7s2.3-2.8,4.1-3.8,3.8-1.5,6.1-1.5c1.9,0,3.7.4,5.2,1.1s2.8,1.8,3.7,3.1,1.4,2.8,1.4,4.5c0,1.1-.2,2.2-.7,3.1s-1.2,1.8-2.1,2.4-2.1,1.2-3.6,1.5c2.4.4,4.2,1.4,5.6,3s2.1,3.4,2.1,5.5c0,1.9-.3,3.5-1,4.8s-1.6,2.4-2.7,3.3-2.4,1.5-3.8,1.9-3,.7-4.4.7Z" fill="#cad2d9"/>
    <path d="m918.3,950.6c-4.1,0-7.2-1.5-9.3-4.5s-3.2-7.1-3.2-12.3c0-2.5.3-4.9.8-7.1s1.3-4.1,2.4-5.8,2.4-2.9,4-3.9,3.5-1.4,5.6-1.4c2.2,0,4.1.5,5.8,1.4s2.9,2.1,3.9,3.4,1.5,2.8,1.6,4.2l-4.3,1.1c-.1-2-.7-3.6-2-4.9s-2.9-1.9-5-1.9c-1.6,0-2.9.3-3.9,1s-1.9,1.6-2.5,2.7-1.1,2.4-1.4,3.7-.5,2.7-.6,4-.2,2.5-.2,3.5l-.4-.4c.7-1.5,1.7-2.9,3.3-4.1s3.5-1.8,6-1.8c2,0,3.8.4,5.4,1.3s3,2.2,4,3.9,1.5,3.8,1.5,6.2c0,2.3-.5,4.3-1.4,6s-2.3,3-4,4-3.8,1.7-6.1,1.7Zm0-3.4c2.3,0,4.1-.7,5.3-2.2s1.9-3.4,1.9-5.9-.6-4.5-1.9-5.9-3-2.1-5.2-2.1c-2.3,0-4.1.7-5.5,2.2s-2.1,3.4-2.1,5.9c0,2.4.7,4.4,2,5.8s3.2,2.2,5.5,2.2Z" fill="#cad2d9"/>
    <path d="m947.7,950.6c-3.9,0-6.9-1.5-9.1-4.6s-3.2-7.3-3.2-12.9,1.1-9.8,3.2-12.9,5.2-4.6,9.1-4.6,7,1.5,9.1,4.6,3.2,7.3,3.2,12.9-1.1,9.8-3.2,12.9-5.1,4.6-9.1,4.6Zm0-3.4c2.6,0,4.6-1.2,5.9-3.6s2-5.9,2-10.5-.7-8.1-2-10.5-3.3-3.6-5.9-3.6-4.6,1.2-5.9,3.6-2,5.9-2,10.5.7,8.1,2,10.5,3.4,3.6,5.9,3.6Z" fill="#cad2d9"/>
    <path d="m972.3,931.6c-1.5,0-2.9-.3-4.1-1s-2.1-1.6-2.8-2.8-1-2.6-1-4.1.3-2.9,1-4.1,1.6-2.1,2.8-2.7,2.5-1,4.1-1,2.9.3,4.1,1,2.1,1.6,2.8,2.8,1,2.6,1,4.1-.3,2.9-1,4.1-1.6,2.1-2.8,2.7-2.5,1-4.1,1Zm0-3.2c1.3,0,2.3-.4,3.1-1.3s1.2-1.9,1.2-3.3c0-1.3-.4-2.4-1.2-3.3s-1.8-1.3-3.1-1.3-2.3.4-3.1,1.3-1.2,1.9-1.2,3.3.4,2.5,1.2,3.3,1.8,1.3,3.1,1.3Z" fill="#cad2d9"/>
  </g>
  <g isolation="isolate">
    <path d="m1110,950v-11.2h0v-20l1,2.2-15,17.8-1.4-1.2h23.3v3.6h-25.2v-4l17.8-21h3.5v33.8h-4Z" fill="#cad2d9"/>
    <path d="m1133.8,950.6c-2,0-3.8-.4-5.6-1.2s-3.3-2-4.5-3.5-1.9-3.5-2.1-5.7l4.3-1.3c.2,2.4.9,4.4,2.2,6s3.1,2.4,5.6,2.4c1.5,0,2.8-.4,4-1.1s2.1-1.7,2.7-3,1-2.8,1-4.4c0-2.5-.7-4.4-2.2-5.8s-3.2-2-5.4-2c-1.9,0-3.4.5-4.4,1.4s-1.9,2-2.4,3.2l-4.1-.4,1.4-18.8h19.3v3.6h-15.8l-.9,12.8-1.1-.1c.8-1.4,2-2.6,3.5-3.6s3.3-1.5,5.5-1.5c2.1,0,3.9.5,5.6,1.4s2.9,2.2,3.9,3.9,1.4,3.6,1.4,5.8c0,2.4-.5,4.6-1.6,6.4s-2.5,3.2-4.3,4.2-3.9,1.3-6,1.3Z" fill="#cad2d9"/>
    <path d="m1163.2,950.6c-3.9,0-6.9-1.5-9.1-4.6s-3.2-7.3-3.2-12.9,1.1-9.8,3.2-12.9,5.2-4.6,9.1-4.6,7,1.5,9.1,4.6,3.2,7.3,3.2,12.9-1.1,9.8-3.2,12.9-5.2,4.6-9.1,4.6Zm0-3.4c2.6,0,4.6-1.2,5.9-3.6s2-5.9,2-10.5-.7-8.1-2-10.5-3.3-3.6-5.9-3.6-4.6,1.2-5.9,3.6-2,5.9-2,10.5.7,8.1,2,10.5,3.3,3.6,5.9,3.6Z" fill="#cad2d9"/>
    <path d="m1187.8,931.6c-1.5,0-2.9-.3-4.1-1s-2.1-1.6-2.8-2.8-1-2.6-1-4.1.3-2.9,1-4.1,1.6-2.1,2.8-2.7,2.5-1,4.1-1,2.9.3,4.1,1,2.1,1.6,2.8,2.8,1,2.6,1,4.1-.3,2.9-1,4.1-1.6,2.1-2.8,2.7-2.6,1-4.1,1Zm0-3.2c1.3,0,2.3-.4,3.1-1.3s1.2-1.9,1.2-3.3c0-1.3-.4-2.4-1.2-3.3s-1.8-1.3-3.1-1.3-2.3.4-3.1,1.3-1.2,1.9-1.2,3.3.4,2.5,1.2,3.3,1.8,1.3,3.1,1.3Z" fill="#cad2d9"/>
  </g>
  <g isolation="isolate">
    <path d="m1321.9,950.6c-2,0-3.8-.4-5.6-1.2s-3.3-2-4.5-3.5-1.9-3.5-2.1-5.7l4.3-1.3c.2,2.4.9,4.4,2.2,6s3.1,2.4,5.6,2.4c1.5,0,2.8-.4,4-1.1s2.1-1.7,2.7-3,1-2.8,1-4.4c0-2.5-.7-4.4-2.2-5.8s-3.2-2-5.4-2c-1.9,0-3.4.5-4.4,1.4s-1.9,2-2.4,3.2l-4.1-.4,1.4-18.8h19.3v3.6h-15.8l-.9,12.8-1.1-.1c.8-1.4,2-2.6,3.5-3.6s3.3-1.5,5.5-1.5c2.1,0,3.9.5,5.6,1.4s2.9,2.2,3.9,3.9,1.4,3.6,1.4,5.8c0,2.4-.5,4.6-1.6,6.4s-2.5,3.2-4.3,4.2-3.9,1.3-6,1.3Z" fill="#cad2d9"/>
    <path d="m1354.5,950v-11.2h0v-20l1,2.2-15,17.8-1.4-1.2h23.3v3.6h-25.2v-4l17.8-21h3.5v33.8h-4Z" fill="#cad2d9"/>
    <path d="m1378.9,950.6c-3.9,0-6.9-1.5-9.1-4.6s-3.2-7.3-3.2-12.9,1.1-9.8,3.2-12.9,5.2-4.6,9.1-4.6,7,1.5,9.1,4.6,3.2,7.3,3.2,12.9-1.1,9.8-3.2,12.9-5.2,4.6-9.1,4.6Zm0-3.4c2.6,0,4.6-1.2,5.9-3.6s2-5.9,2-10.5-.7-8.1-2-10.5-3.3-3.6-5.9-3.6-4.6,1.2-5.9,3.6-2,5.9-2,10.5.7,8.1,2,10.5,3.3,3.6,5.9,3.6Z" fill="#cad2d9"/>
    <path d="m1403.4,931.6c-1.5,0-2.9-.3-4.1-1s-2.1-1.6-2.8-2.8-1-2.6-1-4.1.3-2.9,1-4.1,1.6-2.1,2.8-2.7,2.5-1,4.1-1,2.9.3,4.1,1,2.1,1.6,2.8,2.8,1,2.6,1,4.1-.3,2.9-1,4.1-1.6,2.1-2.8,2.7-2.5,1-4.1,1Zm0-3.2c1.3,0,2.3-.4,3.1-1.3s1.2-1.9,1.2-3.3c0-1.3-.4-2.4-1.2-3.3s-1.8-1.3-3.1-1.3-2.3.4-3.1,1.3-1.2,1.9-1.2,3.3.4,2.5,1.2,3.3,1.9,1.3,3.1,1.3Z" fill="#cad2d9"/>
  </g>
  <g isolation="isolate">
    <path d="m1537.7,950.6c-4.1,0-7.2-1.5-9.3-4.5s-3.2-7.1-3.2-12.3c0-2.5.3-4.9.8-7.1s1.3-4.1,2.4-5.8,2.4-2.9,4-3.9,3.5-1.4,5.6-1.4c2.2,0,4.1.5,5.8,1.4s2.9,2.1,3.9,3.4,1.5,2.8,1.6,4.2l-4.3,1.1c-.1-2-.7-3.6-2-4.9s-2.9-1.9-5-1.9c-1.6,0-2.9.3-3.9,1s-1.9,1.6-2.5,2.7-1.1,2.4-1.4,3.7-.5,2.7-.6,4-.2,2.5-.2,3.5l-.4-.4c.7-1.5,1.7-2.9,3.3-4.1s3.5-1.8,6-1.8c2,0,3.8.4,5.4,1.3s3,2.2,4,3.9,1.5,3.8,1.5,6.2c0,2.3-.5,4.3-1.4,6s-2.3,3-4,4-3.8,1.7-6.1,1.7Zm0-3.4c2.3,0,4.1-.7,5.3-2.2s1.9-3.4,1.9-5.9-.6-4.5-1.9-5.9-3-2.1-5.2-2.1c-2.3,0-4.1.7-5.5,2.2s-2.1,3.4-2.1,5.9c0,2.4.7,4.4,2,5.8s3.2,2.2,5.5,2.2Z" fill="#cad2d9"/>
    <path d="m1566.3,950.6c-2.1,0-4-.4-5.8-1.2s-3.2-2-4.4-3.6-1.8-3.5-2-5.7l4.3-1.3c.2,2.5.9,4.6,2.3,6.1s3.2,2.3,5.6,2.3c2.1,0,3.9-.6,5.3-1.8s2.1-3,2.1-5.3c0-.9-.2-1.9-.6-2.9s-1.1-1.9-2.1-2.6-2.4-1.1-4.2-1.1h-4.6v-3.6h4.3c2,0,3.5-.5,4.6-1.6s1.6-2.2,1.6-3.6c0-1.6-.5-2.9-1.6-4s-2.6-1.7-4.6-1.7c-2.5,0-4.3.7-5.4,2.1s-1.8,3.4-2,5.9l-4.3-1.3c.1-1.6.6-3.2,1.6-4.7s2.3-2.8,4.1-3.8,3.8-1.5,6.1-1.5c1.9,0,3.7.4,5.2,1.1s2.8,1.8,3.7,3.1,1.4,2.8,1.4,4.5c0,1.1-.2,2.2-.7,3.1s-1.2,1.8-2.1,2.4-2.1,1.2-3.6,1.5c2.4.4,4.2,1.4,5.6,3s2.1,3.4,2.1,5.5c0,1.9-.3,3.5-1,4.8s-1.6,2.4-2.7,3.3-2.4,1.5-3.8,1.9-2.9.7-4.4.7Z" fill="#cad2d9"/>
    <path d="m1595.7,950.6c-3.9,0-6.9-1.5-9.1-4.6s-3.2-7.3-3.2-12.9,1.1-9.8,3.2-12.9,5.2-4.6,9.1-4.6,7,1.5,9.1,4.6,3.2,7.3,3.2,12.9-1.1,9.8-3.2,12.9-5.2,4.6-9.1,4.6Zm0-3.4c2.6,0,4.6-1.2,5.9-3.6s2-5.9,2-10.5-.7-8.1-2-10.5-3.3-3.6-5.9-3.6-4.6,1.2-5.9,3.6-2,5.9-2,10.5.7,8.1,2,10.5,3.3,3.6,5.9,3.6Z" fill="#cad2d9"/>
    <path d="m1620.3,931.6c-1.5,0-2.9-.3-4.1-1s-2.1-1.6-2.8-2.8-1-2.6-1-4.1.3-2.9,1-4.1,1.6-2.1,2.8-2.7,2.5-1,4.1-1,2.9.3,4.1,1,2.1,1.6,2.8,2.8,1,2.6,1,4.1-.3,2.9-1,4.1-1.6,2.1-2.8,2.7-2.6,1-4.1,1Zm0-3.2c1.3,0,2.3-.4,3.1-1.3s1.2-1.9,1.2-3.3c0-1.3-.4-2.4-1.2-3.3s-1.8-1.3-3.1-1.3-2.3.4-3.1,1.3-1.2,1.9-1.2,3.3.4,2.5,1.2,3.3,1.8,1.3,3.1,1.3Z" fill="#cad2d9"/>
  </g>
  <g isolation="isolate">
    <path d="m1747.2,950c1.2-5.8,3-11.2,5.4-16s5.3-9.6,8.8-14.1h-18.8v-3.6h22.9v3.2c-1.6,2.4-3.1,4.8-4.5,7.2s-2.7,4.9-3.9,7.3-2.2,5.1-3,7.7-1.5,5.4-2,8.3h-4.9Z" fill="#cad2d9"/>
    <path d="m1768.5,950v-2.8l11.9-10.1c1.6-1.4,2.9-2.6,3.9-3.8s1.8-2.3,2.3-3.4.7-2.4.7-3.9-.3-2.8-.8-3.9-1.3-1.8-2.3-2.4-2.3-.8-3.7-.8c-1.7,0-3.1.3-4.1,1s-1.8,1.6-2.3,2.7-.8,2.4-.9,3.8l-4.5-1.4c.1-1.5.6-3,1.6-4.4s2.4-2.7,4.1-3.6,3.8-1.4,6.1-1.4c1.3,0,2.6.2,4,.6s2.6,1,3.7,1.8,2,1.9,2.7,3.2,1,2.9,1,4.8c0,2.7-.7,5.1-2.2,7.2s-3.5,4.2-6.1,6.3l-9.2,7.4-3-.6h21.1v3.6h-24v.1h0Z" fill="#cad2d9"/>
    <path d="m1809.3,950.6c-3.9,0-6.9-1.5-9.1-4.6s-3.2-7.3-3.2-12.9,1.1-9.8,3.2-12.9,5.2-4.6,9.1-4.6,7,1.5,9.1,4.6,3.2,7.3,3.2,12.9-1.1,9.8-3.2,12.9-5.2,4.6-9.1,4.6Zm0-3.4c2.6,0,4.6-1.2,5.9-3.6s2-5.9,2-10.5-.7-8.1-2-10.5-3.3-3.6-5.9-3.6-4.6,1.2-5.9,3.6-2,5.9-2,10.5.7,8.1,2,10.5,3.3,3.6,5.9,3.6Z" fill="#cad2d9"/>
    <path d="m1833.8,931.6c-1.5,0-2.9-.3-4.1-1s-2.1-1.6-2.8-2.8-1-2.6-1-4.1.3-2.9,1-4.1,1.6-2.1,2.8-2.7,2.5-1,4.1-1,2.9.3,4.1,1,2.1,1.6,2.8,2.8,1,2.6,1,4.1-.3,2.9-1,4.1-1.6,2.1-2.8,2.7-2.5,1-4.1,1Zm0-3.2c1.3,0,2.3-.4,3.1-1.3s1.2-1.9,1.2-3.3c0-1.3-.4-2.4-1.2-3.3s-1.8-1.3-3.1-1.3-2.3.4-3.1,1.3-1.2,1.9-1.2,3.3.4,2.5,1.2,3.3,1.9,1.3,3.1,1.3Z" fill="#cad2d9"/>
  </g>
  <g isolation="isolate">
    <path d="m1945.5,878v-25.3h3.7v5.4l-.1-.6c.8-1.8,1.9-3.1,3.4-4s3-1.3,4.6-1.3c.5,0,.9,0,1.3.1s.8.2,1.2.4l-.5,3.7c-.9-.3-1.7-.4-2.6-.4-.5,0-1.2.1-2,.3s-1.6.6-2.3,1.3-1.4,1.6-1.9,2.8-.8,2.9-.8,5v12.6h-4Z" fill="#cad2d9"/>
  </g>
  <g isolation="isolate">
    <path d="m1967.3,878.6c-1.7,0-3.2-.3-4.4-1s-2.2-1.5-2.9-2.7-1-2.4-1-3.8c0-1.5.4-2.9,1.3-4.2s2.3-2.3,4.1-3.1,4.3-1.2,7.2-1.2h4.2l-.4.4v-1.4c0-2-.4-3.6-1.2-4.7s-2.2-1.6-4.1-1.6c-1.8,0-3.2.5-4.1,1.4s-1.5,2.2-1.5,3.7l-4.4-1c.1-1.4.7-2.6,1.6-3.7s2.1-2,3.6-2.7,3.3-1,5.2-1c2,0,3.7.4,5,1.2s2.2,1.9,2.8,3.3.9,3.2.9,5.2v11.6c0,.5.1.9.2,1s.5.3.9.3h1.4v3.3h-2.5c-1.1,0-2-.3-2.7-1s-1.1-1.5-1.1-2.5v-1.8h.6c-.2.7-.6,1.3-1.1,2s-1.1,1.3-1.8,1.9-1.6,1.1-2.6,1.4-1.9.7-3.2.7Zm.9-3.3c1.3,0,2.5-.3,3.6-1s2-1.6,2.7-3,1-3.1,1-5.3v-.2h-4c-2.1,0-3.7.3-4.9.8s-2,1.2-2.5,2-.8,1.6-.8,2.4.2,1.5.5,2.2.9,1.2,1.6,1.5,1.7.6,2.8.6Z" fill="#cad2d9"/>
    <path d="m1995.8,878.6c-2,0-3.9-.5-5.4-1.6s-2.8-2.6-3.7-4.6-1.3-4.3-1.3-7,.4-5,1.3-7,2.1-3.5,3.7-4.6,3.4-1.6,5.4-1.6c1.7,0,3.3.4,4.9,1.2s2.9,2.2,3.7,4.2l-.4.2v-14.9h3.9v35.1h-3.7v-5.3l.1.4c-.7,1.8-1.8,3.2-3.4,4.1s-3.3,1.4-5.1,1.4Zm1-3.3c1.3,0,2.5-.3,3.6-1s2-1.8,2.6-3.2,1-3.3,1-5.6c0-3.4-.7-5.9-2.1-7.6s-3.1-2.4-5.1-2.4c-2.1,0-3.8.9-5.2,2.6s-2,4.2-2,7.4c0,3.1.6,5.6,1.9,7.3s3.2,2.5,5.3,2.5Z" fill="#cad2d9"/>
    <path d="m2017.5,848.5c-.9,0-1.7-.3-2.3-1s-1-1.4-1-2.3.3-1.7,1-2.3,1.4-.9,2.3-.9,1.7.3,2.3.9.9,1.4.9,2.3-.3,1.7-.9,2.3-1.4,1-2.3,1Zm-1.9,29.5v-25.3h3.9v25.3h-3.9Z" fill="#cad2d9"/>
    <path d="m2033.6,878.6c-1.7,0-3.2-.3-4.4-1s-2.2-1.5-2.9-2.7-1-2.4-1-3.8c0-1.5.4-2.9,1.3-4.2s2.3-2.3,4.1-3.1,4.3-1.2,7.2-1.2h4.2l-.4.4v-1.4c0-2-.4-3.6-1.2-4.7s-2.2-1.6-4.1-1.6c-1.8,0-3.2.5-4.1,1.4s-1.5,2.2-1.5,3.7l-4.4-1c.1-1.4.7-2.6,1.6-3.7s2.1-2,3.6-2.7,3.3-1,5.2-1c2,0,3.7.4,5,1.2s2.2,1.9,2.8,3.3.9,3.2.9,5.2v11.6c0,.5.1.9.2,1s.5.3.9.3h1.4v3.3h-2.5c-1.1,0-2-.3-2.7-1s-1.1-1.5-1.1-2.5v-1.8h.6c-.2.7-.6,1.3-1.1,2s-1.1,1.3-1.8,1.9-1.6,1.1-2.6,1.4-1.9.7-3.2.7Zm.9-3.3c1.3,0,2.5-.3,3.6-1s2-1.6,2.7-3,1-3.1,1-5.3v-.2h-4c-2.1,0-3.7.3-4.9.8s-2,1.2-2.5,2-.8,1.6-.8,2.4.2,1.5.5,2.2.9,1.2,1.6,1.5,1.8.6,2.8.6Z" fill="#cad2d9"/>
    <path d="m2053.6,878v-25.3h3.7v5.7l-.2-1c.7-1.5,1.7-2.7,3.2-3.7s3.2-1.5,5.3-1.5c1.8,0,3.3.4,4.6,1.2s2.3,1.9,3,3.4,1.1,3.3,1.1,5.3v15.9h-3.9v-15.6c0-2.1-.4-3.8-1.3-5s-2.3-1.9-4.2-1.9c-2.1,0-3.9.8-5.3,2.4s-2.1,3.9-2.1,6.9v13.2h-3.9Z" fill="#cad2d9"/>
    <path d="m2090.1,878.6c-1.8,0-3.5-.3-5-.9s-2.7-1.5-3.7-2.7-1.6-2.8-2-4.7l4.1-.8c.2,2,.8,3.5,2,4.4s2.7,1.5,4.4,1.5c1.8,0,3.2-.4,4.2-1.3s1.6-2,1.6-3.3c0-1.1-.4-2-1.1-2.6s-1.8-1.1-3.2-1.4l-3.1-.6c-.8-.2-1.7-.4-2.6-.7s-1.7-.7-2.5-1.2-1.4-1.2-1.9-2-.7-1.8-.7-3.1c0-1.7.4-3,1.3-4.1s2-1.8,3.4-2.4,3-.8,4.6-.8c1.8,0,3.4.3,4.7.8s2.4,1.4,3.3,2.4,1.4,2.3,1.7,3.8l-4.3.9c-.1-1-.4-1.8-.8-2.5s-1-1.2-1.7-1.6-1.7-.6-2.9-.6c-1.5,0-2.7.3-3.8.9s-1.6,1.5-1.6,2.8c0,.7.2,1.3.5,1.8s.9.9,1.6,1.2,1.6.6,2.7.8l3.1.7c1.3.3,2.5.7,3.6,1.2s2,1.2,2.7,2.2,1,2.1,1,3.7c0,1.7-.4,3.1-1.3,4.3s-2,2.1-3.5,2.8-2.8,1.1-4.8,1.1Z" fill="#cad2d9"/>
  </g>
  <g isolation="isolate">
    <path d="m43.2,509.6l-33.7-14.2v-4.2l33.7-14.2v4.5l-29.3,11.8,29.3,11.9v4.4Zm-11.1-7.3h-3.5v-18h3.5v18Z" fill="#cad2d9"/>
    <path d="m43.2,472.7h-25.3v-3.7h4.3c-1.3-.6-2.5-1.6-3.4-3s-1.5-3-1.5-4.9c0-1.7.5-3.1,1.4-4.4s2.2-2.2,3.9-2.8c-1.5-.8-2.8-1.9-3.8-3.3s-1.5-3-1.5-4.8c0-2.4.9-4.3,2.6-5.8s4.2-2.1,7.3-2.1h15.9v3.9h-15.5c-1.4,0-2.7.1-3.7.4s-1.8.8-2.4,1.5-.8,1.6-.8,2.8c0,1.3.4,2.4,1.1,3.5s1.8,1.8,3.2,2.4,3.1.9,5.1.9h13.2v3.9h-15.7c-1.4,0-2.7.1-3.7.4s-1.8.8-2.4,1.5-.8,1.6-.8,2.7c0,1.3.4,2.4,1.1,3.5s1.8,1.8,3.2,2.4,3.1.9,5.1.9h13.2v4.1h-.1Z" fill="#cad2d9"/>
    <path d="m52.3,430.8H17.9v-3.7h5.3l-.4.1c-1.8-.7-3.2-1.8-4.1-3.4s-1.3-3.3-1.3-5.1c0-2.1.5-3.9,1.6-5.4s2.6-2.8,4.6-3.7,4.3-1.3,7-1.3,5,.4,7,1.3,3.5,2.1,4.6,3.7,1.6,3.4,1.6,5.4c0,1.7-.4,3.3-1.2,4.9s-2.2,2.9-4.2,3.7l-.2-.4h14.2l-.1,3.9h0Zm-11.8-11c0-2.1-.9-3.8-2.6-5.2s-4.2-2-7.4-2c-3.1,0-5.6.6-7.3,1.9s-2.6,3-2.6,5.2c0,1.3.3,2.5,1,3.6s1.8,2,3.2,2.6,3.3,1,5.6,1c3.4,0,5.9-.7,7.5-2.1s2.6-3,2.6-5Z" fill="#cad2d9"/>
    <path d="m43.2,398.7c0,1-.3,1.9-1,2.6s-1.5,1.1-2.5,1.1H8v-3.9h30.6c.5,0,.9-.1,1-.2s.3-.5.3-.9v-2.5h3.3s0,3.8,0,3.8Z" fill="#cad2d9"/>
    <path d="m13.6,387.7c0,.9-.3,1.7-1,2.3s-1.4,1-2.3,1-1.7-.3-2.3-1-.9-1.4-.9-2.3.3-1.7.9-2.3c.6-.6,1.4-.9,2.3-.9s1.7.3,2.3.9,1,1.4,1,2.3Zm29.6,1.9h-25.3v-3.9h25.3s0,3.9,0,3.9Z" fill="#cad2d9"/>
    <path d="m43.2,372.4c0,1-.3,1.9-1,2.6s-1.5,1.1-2.5,1.1h-18.5v4.1h-3.3v-4.1h-5.3l-.8-3.9h6.1v-5h3.3v5h17.5c.5,0,.9-.1,1-.2s.3-.5.3-.9v-3.9h3.3l-.1,5.2h0Z" fill="#cad2d9"/>
    <path d="m43.8,353.5c0,1.8-.4,3.3-1.2,4.6s-1.9,2.3-3.4,3-3.3,1.1-5.3,1.1h-16v-3.9h15.6c2.1,0,3.7-.4,5-1.2s1.9-2.2,1.9-4.2c0-1.5-.4-2.8-1.2-3.9s-2-2-3.5-2.6-3.5-.9-5.9-.9h-12v-3.9h25.3v3.7h-6l1-.2c1.6.7,2.9,1.7,3.9,3.2s1.8,3.1,1.8,5.2Z" fill="#cad2d9"/>
    <path d="m43.8,325.2c0,2-.5,3.9-1.6,5.4s-2.6,2.8-4.6,3.7-4.3,1.3-7,1.3-5-.4-7-1.3-3.5-2.1-4.6-3.7-1.6-3.4-1.6-5.4c0-1.7.4-3.3,1.2-4.9s2.2-2.9,4.2-3.7l.2.4h-15v-3.9h35.2v3.7h-5.3l.4-.1c1.8.7,3.2,1.8,4.1,3.4s1.4,3.3,1.4,5.1Zm-3.3-1c0-1.3-.3-2.5-1-3.6s-1.8-2-3.2-2.6-3.3-1-5.6-1c-3.4,0-5.9.7-7.6,2.1s-2.4,3.1-2.4,5.1c0,2.1.9,3.8,2.6,5.2s4.2,2,7.4,2c3.1,0,5.6-.6,7.3-1.9s2.5-3.2,2.5-5.3Z" fill="#cad2d9"/>
    <path d="m43.8,295.3c0,2.4-.5,4.5-1.6,6.2s-2.6,3.1-4.6,4.1-4.3,1.4-7,1.4-5-.5-7-1.4-3.5-2.3-4.6-4-1.6-3.8-1.6-6.1c0-1.3.2-2.7.6-4s1.2-2.6,2.2-3.7,2.5-2,4.3-2.7,4.2-1,6.9-1v20.5h-3.2v-17.1l1.5,1.1c-2.2.1-4,.4-5.3,1.1s-2.3,1.5-2.9,2.5-.9,2.2-.9,3.4c0,1.5.4,2.8,1.2,3.8s1.9,1.9,3.4,2.5,3.3.9,5.4.9c3.2,0,5.6-.6,7.3-1.9s2.6-3.1,2.6-5.5c0-1.7-.4-3.1-1.3-4.3s-2.1-2-3.7-2.6l1.3-3.9c1.5.6,2.7,1.4,3.8,2.4s1.8,2.2,2.4,3.6.8,3,.8,4.7Z" fill="#cad2d9"/>
  </g>
  <g isolation="isolate">
    <path d="m247.7,878v-22h-3.9v-3.3h26.9v3.3h-4.6v17.5c0,.5.1.9.2,1s.5.3.9.3h3.4v3.3h-4.8c-1,0-1.9-.3-2.6-1s-1.1-1.5-1.1-2.5v-18.6h-10.5v22h-3.9Z" fill="#cad2d9"/>
    <path d="m272.7,884.1l15.3-43.3h3.9l-15.3,43.3h-3.9Z" fill="#cad2d9"/>
    <path d="m293.4,878v-2.8l11.9-10.1c1.6-1.4,2.9-2.6,3.9-3.8s1.8-2.3,2.3-3.4.7-2.4.7-3.9-.3-2.8-.8-3.9-1.3-1.8-2.3-2.4-2.3-.8-3.7-.8c-1.7,0-3.1.3-4.1,1s-1.8,1.6-2.3,2.7-.8,2.4-.9,3.8l-4.5-1.4c.1-1.5.6-3,1.6-4.4s2.4-2.7,4.1-3.6,3.8-1.4,6.1-1.4c1.3,0,2.6.2,4,.6s2.6,1,3.7,1.8,2,1.9,2.7,3.2,1,2.9,1,4.8c0,2.7-.7,5.1-2.2,7.2s-3.5,4.2-6.1,6.3l-9.2,7.4-3-.6h21.1v3.6h-24v.1h0Z" fill="#cad2d9"/>
  </g>
  <g isolation="isolate">
    <path d="m487,878v-22h-3.9v-3.3h26.9v3.3h-4.6v17.5c0,.5.1.9.2,1s.5.3.9.3h3.4v3.3h-4.8c-1,0-1.9-.3-2.6-1s-1.1-1.5-1.1-2.5v-18.6h-10.4v22h-4Z" fill="#cad2d9"/>
  </g>
  <g isolation="isolate">
    <path d="m674.5,878.6c-2.1,0-4-.4-5.8-1.2s-3.2-2-4.4-3.6-1.8-3.5-2-5.7l4.3-1.3c.2,2.5.9,4.6,2.3,6.1s3.2,2.3,5.6,2.3c2.1,0,3.9-.6,5.3-1.8s2.1-3,2.1-5.3c0-.9-.2-1.9-.6-2.9s-1.1-1.9-2.1-2.6-2.4-1.1-4.2-1.1h-4.6v-3.6h4.3c2,0,3.5-.5,4.6-1.6s1.6-2.2,1.6-3.6c0-1.6-.5-2.9-1.6-4s-2.6-1.7-4.6-1.7c-2.5,0-4.3.7-5.4,2.1s-1.8,3.4-2,5.9l-4.3-1.3c.1-1.6.6-3.2,1.6-4.7s2.3-2.8,4.1-3.8,3.8-1.5,6.1-1.5c1.9,0,3.7.4,5.2,1.1s2.8,1.8,3.7,3.1,1.4,2.8,1.4,4.5c0,1.1-.2,2.2-.7,3.1s-1.2,1.8-2.1,2.4-2.1,1.2-3.6,1.5c2.4.4,4.2,1.4,5.6,3s2.1,3.4,2.1,5.5c0,1.9-.3,3.5-1,4.8s-1.6,2.4-2.7,3.3-2.4,1.5-3.8,1.9-3,.7-4.4.7Z" fill="#cad2d9"/>
    <path d="m693.5,878v-22h-3.9v-3.3h26.9v3.3h-4.6v17.5c0,.5.1.9.2,1s.5.3.9.3h3.4v3.3h-4.8c-1,0-1.9-.3-2.6-1s-1.1-1.5-1.1-2.5v-18.6h-10.5v22h-3.9Z" fill="#cad2d9"/>
    <path d="m718.5,884.1l15.3-43.3h3.9l-15.3,43.3h-3.9Z" fill="#cad2d9"/>
    <path d="m739.2,878v-2.8l11.9-10.1c1.6-1.4,2.9-2.6,3.9-3.8s1.8-2.3,2.3-3.4.7-2.4.7-3.9-.3-2.8-.8-3.9-1.3-1.8-2.3-2.4-2.3-.8-3.7-.8c-1.7,0-3.1.3-4.1,1s-1.8,1.6-2.3,2.7-.8,2.4-.9,3.8l-4.5-1.4c.1-1.5.6-3,1.6-4.4s2.4-2.7,4.1-3.6,3.8-1.4,6.1-1.4c1.3,0,2.6.2,4,.6s2.6,1,3.7,1.8,2,1.9,2.7,3.2,1,2.9,1,4.8c0,2.7-.7,5.1-2.2,7.2s-3.5,4.2-6.1,6.3l-9.3,7.5-3-.6h21.1v3.6h-23.9Z" fill="#cad2d9"/>
  </g>
  <g isolation="isolate">
    <path d="m901.6,878v-2.8l11.9-10.1c1.6-1.4,2.9-2.6,3.9-3.8s1.8-2.3,2.3-3.4.7-2.4.7-3.9-.3-2.8-.8-3.9-1.3-1.8-2.3-2.4-2.3-.8-3.7-.8c-1.7,0-3.1.3-4.1,1s-1.8,1.6-2.3,2.7-.8,2.4-.9,3.8l-4.5-1.4c.1-1.5.6-3,1.6-4.4s2.4-2.7,4.1-3.6,3.8-1.4,6.1-1.4c1.3,0,2.6.2,4,.6s2.6,1,3.7,1.8,2,1.9,2.7,3.2,1,2.9,1,4.8c0,2.7-.7,5.1-2.2,7.2s-3.5,4.2-6.1,6.3l-9.2,7.4-3-.6h21.1v3.6h-24v.1Z" fill="#cad2d9"/>
    <path d="m932.7,878v-22h-3.9v-3.3h26.9v3.3h-4.6v17.5c0,.5.1.9.2,1s.5.3.9.3h3.4v3.3h-4.8c-1,0-1.9-.3-2.6-1s-1.1-1.5-1.1-2.5v-18.6h-10.5v22h-3.9Z" fill="#cad2d9"/>
  </g>
  <g isolation="isolate">
    <path d="m1106.6,878.6c-2,0-3.8-.4-5.6-1.2s-3.3-2-4.5-3.5-1.9-3.5-2.1-5.7l4.3-1.3c.2,2.4.9,4.4,2.2,6s3.1,2.4,5.6,2.4c1.5,0,2.8-.4,4-1.1s2.1-1.7,2.7-3,1-2.8,1-4.4c0-2.5-.7-4.4-2.2-5.8s-3.2-2-5.4-2c-1.9,0-3.4.5-4.4,1.4s-1.9,2-2.4,3.2l-4.1-.4,1.4-18.8h19.3v3.6h-15.8l-.9,12.8-1.1-.1c.8-1.4,2-2.6,3.5-3.6s3.3-1.5,5.5-1.5c2.1,0,3.9.5,5.6,1.4s2.9,2.2,3.9,3.9,1.4,3.6,1.4,5.8c0,2.4-.5,4.6-1.6,6.4s-2.5,3.2-4.3,4.2-3.9,1.3-6,1.3Z" fill="#cad2d9"/>
    <path d="m1125.6,878v-22h-3.9v-3.3h26.9v3.3h-4.6v17.5c0,.5.1.9.2,1s.5.3.9.3h3.4v3.3h-4.8c-1,0-1.9-.3-2.6-1s-1.1-1.5-1.1-2.5v-18.6h-10.5v22h-3.9Z" fill="#cad2d9"/>
    <path d="m1150.6,884.1l15.3-43.3h3.9l-15.3,43.3h-3.9Z" fill="#cad2d9"/>
    <path d="m1171.3,878v-2.8l11.9-10.1c1.6-1.4,2.9-2.6,3.9-3.8s1.8-2.3,2.3-3.4.7-2.4.7-3.9-.3-2.8-.8-3.9-1.3-1.8-2.3-2.4-2.3-.8-3.7-.8c-1.7,0-3.1.3-4.1,1s-1.8,1.6-2.3,2.7-.8,2.4-.9,3.8l-4.5-1.4c.1-1.5.6-3,1.6-4.4s2.4-2.7,4.1-3.6,3.8-1.4,6.1-1.4c1.3,0,2.6.2,4,.6s2.6,1,3.7,1.8,2,1.9,2.7,3.2,1,2.9,1,4.8c0,2.7-.7,5.1-2.2,7.2s-3.5,4.2-6.1,6.3l-9.2,7.4-3-.6h21.1v3.6h-24v.1h0Z" fill="#cad2d9"/>
  </g>
  <g isolation="isolate">
    <path d="m1345.8,878.6c-2.1,0-4-.4-5.8-1.2s-3.2-2-4.4-3.6-1.8-3.5-2-5.7l4.3-1.3c.2,2.5.9,4.6,2.3,6.1s3.2,2.3,5.6,2.3c2.1,0,3.9-.6,5.3-1.8s2.1-3,2.1-5.3c0-.9-.2-1.9-.6-2.9s-1.1-1.9-2.1-2.6-2.4-1.1-4.2-1.1h-4.6v-3.6h4.3c2,0,3.5-.5,4.6-1.6s1.6-2.2,1.6-3.6c0-1.6-.5-2.9-1.6-4s-2.6-1.7-4.6-1.7c-2.5,0-4.3.7-5.4,2.1s-1.8,3.4-2,5.9l-4.3-1.3c.1-1.6.6-3.2,1.6-4.7s2.3-2.8,4.1-3.8,3.8-1.5,6.1-1.5c1.9,0,3.7.4,5.2,1.1s2.8,1.8,3.7,3.1,1.4,2.8,1.4,4.5c0,1.1-.2,2.2-.7,3.1s-1.2,1.8-2.1,2.4-2.1,1.2-3.6,1.5c2.4.4,4.2,1.4,5.6,3s2.1,3.4,2.1,5.5c0,1.9-.3,3.5-1,4.8s-1.6,2.4-2.7,3.3-2.4,1.5-3.8,1.9-3,.7-4.4.7Z" fill="#cad2d9"/>
    <path d="m1364.8,878v-22h-3.9v-3.3h26.9v3.3h-4.6v17.5c0,.5.1.9.2,1s.5.3.9.3h3.4v3.3h-4.8c-1,0-1.9-.3-2.6-1s-1.1-1.5-1.1-2.5v-18.6h-10.5v22h-3.9Z" fill="#cad2d9"/>
  </g>
  <g isolation="isolate">
    <path d="m1531.5,878c1.2-5.8,3-11.2,5.4-16s5.3-9.6,8.8-14.1h-18.8v-3.6h22.9v3.2c-1.6,2.4-3.1,4.8-4.5,7.2s-2.7,4.9-3.9,7.3-2.2,5.1-3,7.7-1.5,5.4-2,8.3h-4.9Z" fill="#cad2d9"/>
    <path d="m1556.5,878v-22h-3.9v-3.3h26.9v3.3h-4.6v17.5c0,.5.1.9.2,1s.5.3.9.3h3.4v3.3h-4.8c-1,0-1.9-.3-2.6-1s-1.1-1.5-1.1-2.5v-18.6h-10.5v22h-3.9Z" fill="#cad2d9"/>
    <path d="m1581.4,884.1l15.3-43.3h3.9l-15.3,43.3h-3.9Z" fill="#cad2d9"/>
    <path d="m1602.1,878v-2.8l11.9-10.1c1.6-1.4,2.9-2.6,3.9-3.8s1.8-2.3,2.3-3.4.7-2.4.7-3.9-.3-2.8-.8-3.9-1.3-1.8-2.3-2.4-2.3-.8-3.7-.8c-1.7,0-3.1.3-4.1,1s-1.8,1.6-2.3,2.7-.8,2.4-.9,3.8l-4.5-1.4c.1-1.5.6-3,1.6-4.4s2.4-2.7,4.1-3.6,3.8-1.4,6.1-1.4c1.3,0,2.6.2,4,.6s2.6,1,3.7,1.8,2,1.9,2.7,3.2,1,2.9,1,4.8c0,2.7-.7,5.1-2.2,7.2s-3.5,4.2-6.1,6.3l-9.2,7.4-3-.6h21.1v3.6h-24v.1h0Z" fill="#cad2d9"/>
  </g>
  <g isolation="isolate">
    <path d="m1782.6,878v-11.2h0v-20l1,2.2-15,17.8-1.4-1.2h23.3v3.6h-25.2v-4l17.8-21h3.5v33.8h-4Z" fill="#cad2d9"/>
    <path d="m1796.7,878v-22h-3.9v-3.3h26.9v3.3h-4.6v17.5c0,.5.1.9.2,1s.5.3.9.3h3.4v3.3h-4.8c-1,0-1.9-.3-2.6-1s-1.1-1.5-1.1-2.5v-18.6h-10.5v22h-3.9Z" fill="#cad2d9"/>
  </g>
  <g isolation="isolate">
    <path d="m54.7,950.6c-3.9,0-6.9-1.5-9.1-4.6s-3.2-7.3-3.2-12.9,1.1-9.8,3.2-12.9,5.2-4.6,9.1-4.6,7,1.5,9.1,4.6,3.2,7.3,3.2,12.9-1.1,9.8-3.2,12.9-5.2,4.6-9.1,4.6Zm0-3.4c2.6,0,4.6-1.2,5.9-3.6s2-5.9,2-10.5-.7-8.1-2-10.5-3.3-3.6-5.9-3.6-4.6,1.2-5.9,3.6-2,5.9-2,10.5.7,8.1,2,10.5,3.3,3.6,5.9,3.6Z" fill="#cad2d9"/>
    <path d="m79.2,931.6c-1.5,0-2.9-.3-4.1-1s-2.1-1.6-2.8-2.8-1-2.6-1-4.1.3-2.9,1-4.1,1.6-2.1,2.8-2.7,2.5-1,4.1-1,2.9.3,4.1,1,2.1,1.6,2.8,2.8,1,2.6,1,4.1-.3,2.9-1,4.1-1.6,2.1-2.8,2.7-2.5,1-4.1,1Zm0-3.2c1.3,0,2.3-.4,3.1-1.3s1.2-1.9,1.2-3.3c0-1.3-.4-2.4-1.2-3.3s-1.8-1.3-3.1-1.3-2.3.4-3.1,1.3-1.2,1.9-1.2,3.3.4,2.5,1.2,3.3,1.8,1.3,3.1,1.3Z" fill="#cad2d9"/>
  </g>
  <g isolation="isolate">
    <path d="m64.8,878.6c-3.9,0-6.9-1.5-9.1-4.6s-3.2-7.3-3.2-12.9,1.1-9.8,3.2-12.9,5.2-4.6,9.1-4.6,7,1.5,9.1,4.6,3.2,7.3,3.2,12.9-1.1,9.8-3.2,12.9-5.2,4.6-9.1,4.6Zm0-3.4c2.6,0,4.6-1.2,5.9-3.6s2-5.9,2-10.5-.7-8.1-2-10.5-3.3-3.6-5.9-3.6-4.6,1.2-5.9,3.6-2,5.9-2,10.5.7,8.1,2,10.5,3.3,3.6,5.9,3.6Z" fill="#cad2d9"/>
  </g>
  <line x1="280.8" y1="36" x2="280.8" y2="828" fill="none" stroke="#c9d1d9" stroke-miterlimit="10"/>
  <line x1="496.8" y1="36" x2="496.8" y2="828" fill="none" stroke="#c9d1d9" stroke-miterlimit="10"/>
  <line x1="712.8" y1="36" x2="712.8" y2="828" fill="none" stroke="#c9d1d9" stroke-miterlimit="10"/>
  <line x1="928.8" y1="36" x2="928.8" y2="828" fill="none" stroke="#c9d1d9" stroke-miterlimit="10"/>
  <line x1="1144.8" y1="36" x2="1144.8" y2="828" fill="none" stroke="#c9d1d9" stroke-miterlimit="10"/>
  <line x1="1360.8" y1="36" x2="1360.8" y2="828" fill="none" stroke="#c9d1d9" stroke-miterlimit="10"/>
  <line x1="1576.8" y1="36" x2="1576.8" y2="828" fill="none" stroke="#c9d1d9" stroke-miterlimit="10"/>
  <line x1="1792.8" y1="36" x2="1792.8" y2="828" fill="none" stroke="#c9d1d9" stroke-miterlimit="10"/>
  <g isolation="isolate">
    <path d="m1954,950.6c-2,0-3.9-.5-5.4-1.6s-2.8-2.6-3.7-4.6-1.3-4.3-1.3-7,.4-5,1.3-7,2.1-3.5,3.7-4.6,3.4-1.6,5.4-1.6c1.7,0,3.3.4,4.9,1.2s2.9,2.2,3.7,4.2l-.4.2v-14.9h3.9v35.1h-3.7v-5.3l.1.4c-.7,1.8-1.8,3.2-3.4,4.1s-3.3,1.4-5.1,1.4Zm1.1-3.3c1.3,0,2.5-.3,3.6-1s2-1.8,2.6-3.2,1-3.3,1-5.6c0-3.4-.7-5.9-2.1-7.6s-3.1-2.4-5.1-2.4c-2.1,0-3.8.9-5.2,2.6s-2,4.2-2,7.4c0,3.1.6,5.6,1.9,7.3s3.1,2.5,5.3,2.5Z" fill="#cad2d9"/>
    <path d="m1983.9,950.6c-2.4,0-4.5-.5-6.2-1.6s-3.1-2.6-4.1-4.6-1.4-4.3-1.4-7,.5-5,1.4-7,2.3-3.5,4-4.6,3.8-1.6,6.1-1.6c1.3,0,2.7.2,4,.6s2.6,1.2,3.7,2.2,2,2.5,2.7,4.3,1,4.2,1,6.9h-20.5v-3.2h17.1l-1.1,1.5c-.1-2.2-.4-4-1.1-5.3s-1.5-2.3-2.5-2.9-2.2-.9-3.4-.9c-1.5,0-2.8.4-3.8,1.2s-1.9,1.9-2.5,3.4-.9,3.3-.9,5.4c0,3.2.6,5.6,1.9,7.3s3.1,2.6,5.5,2.6c1.7,0,3.1-.4,4.3-1.3s2-2.1,2.6-3.7l3.9,1.3c-.6,1.5-1.4,2.7-2.4,3.8s-2.2,1.8-3.6,2.4-3,.8-4.7.8Z" fill="#cad2d9"/>
    <path d="m2010.1,959.7c-3.8,0-6.5-.5-8.3-1.6s-2.7-2.7-2.7-4.9c0-1.2.3-2.4,1-3.4s1.8-1.7,3.3-2.3c-.6-.4-1.1-.8-1.5-1.4s-.6-1.3-.6-2c0-.9.3-1.7.8-2.4s1.3-1.2,2.3-1.5c-1.2-.7-2.2-1.7-2.9-3s-1-2.7-1-4.4c0-1.8.4-3.4,1.2-4.7s2-2.3,3.4-3.1,3.3-1.1,5.3-1.1,3.8.4,5.4,1.1,2.7,1.7,3.5,3.1,1.2,2.9,1.2,4.7-.4,3.3-1.2,4.7-2,2.3-3.5,3-3.3,1.1-5.4,1.1h-2.2c-2,0-3,.6-3,1.8,0,1.1,1,1.7,2.9,1.7h5.1c2,0,3.6.2,4.8.7s2.2,1.1,2.8,1.8,1.1,1.5,1.3,2.4.4,1.6.4,2.4c0,2.5-.9,4.3-2.7,5.5s-4.6,1.8-8.4,1.8h-1.3Zm0-3.1h1.5c4.7,0,7-1.4,7-4.2,0-1.2-.4-2.1-1.3-2.8s-2.3-1.1-4.3-1.1h-4.4c-1.6,0-2.9.3-3.9.9s-1.6,1.7-1.6,3.1.6,2.4,1.7,3.1,2.9,1,5.3,1Zm.4-17.6c2,0,3.5-.5,4.6-1.5s1.6-2.5,1.6-4.4-.5-3.4-1.6-4.5-2.6-1.6-4.6-1.6-3.5.5-4.5,1.6-1.6,2.6-1.6,4.5.5,3.4,1.6,4.4,2.6,1.5,4.5,1.5Zm4.2-12.2v-2.5c0-1,.4-1.9,1.1-2.5s1.6-1,2.6-1h3v3.3h-2.5c-.5,0-.8.1-.9.3s-.2.5-.2,1v1.5l-3.1-.1h0Z" fill="#cad2d9"/>
  </g>
  <g isolation="isolate">
    <path d="m2024.9,950v-25.3h3.7v5.4l-.1-.6c.8-1.8,1.9-3.1,3.4-4s3-1.3,4.6-1.3c.5,0,.9,0,1.3.1s.8.2,1.2.4l-.5,3.7c-.9-.3-1.7-.4-2.6-.4-.5,0-1.2.1-2,.3s-1.6.6-2.3,1.3-1.4,1.6-1.9,2.8-.8,2.9-.8,5v12.6h-4Z" fill="#cad2d9"/>
  </g>
  <g isolation="isolate">
    <path d="m2051,950.6c-2.4,0-4.5-.5-6.2-1.6s-3.1-2.6-4.1-4.6-1.4-4.3-1.4-7,.5-5,1.4-7,2.3-3.5,4-4.6,3.8-1.6,6.1-1.6c1.3,0,2.7.2,4,.6s2.6,1.2,3.7,2.2,2,2.5,2.7,4.3,1,4.2,1,6.9h-20.5v-3.2h17.1l-1.1,1.5c-.1-2.2-.4-4-1.1-5.3s-1.5-2.3-2.5-2.9-2.2-.9-3.4-.9c-1.5,0-2.8.4-3.8,1.2s-1.9,1.9-2.5,3.4-.9,3.3-.9,5.4c0,3.2.6,5.6,1.9,7.3s3.1,2.6,5.5,2.6c1.7,0,3.1-.4,4.3-1.3s2-2.1,2.6-3.7l3.9,1.3c-.6,1.5-1.4,2.7-2.4,3.8s-2.2,1.8-3.6,2.4-3,.8-4.7.8Z" fill="#cad2d9"/>
    <path d="m2079.2,950.6c-2.4,0-4.5-.5-6.2-1.6s-3.1-2.6-4.1-4.6-1.4-4.3-1.4-7,.5-5,1.4-7,2.3-3.5,4-4.6,3.8-1.6,6.1-1.6c1.3,0,2.7.2,4,.6s2.6,1.2,3.7,2.2,2,2.5,2.7,4.3,1,4.2,1,6.9h-20.4v-3.2h17.1l-1.1,1.5c-.1-2.2-.4-4-1.1-5.3s-1.5-2.3-2.5-2.9-2.2-.9-3.4-.9c-1.5,0-2.8.4-3.8,1.2s-1.9,1.9-2.5,3.4-.9,3.3-.9,5.4c0,3.2.6,5.6,1.9,7.3s3.1,2.6,5.5,2.6c1.7,0,3.1-.4,4.3-1.3s2-2.1,2.6-3.7l3.9,1.3c-.6,1.5-1.4,2.7-2.4,3.8s-2.2,1.8-3.6,2.4-3.1.8-4.8.8Z" fill="#cad2d9"/>
    <path d="m2105.1,950.6c-1.8,0-3.5-.3-5-.9s-2.7-1.5-3.7-2.7-1.6-2.8-2-4.7l4.1-.8c.2,2,.8,3.5,2,4.4s2.7,1.5,4.4,1.5c1.8,0,3.2-.4,4.2-1.3s1.6-2,1.6-3.3c0-1.1-.4-2-1.1-2.6s-1.8-1.1-3.2-1.4l-3.1-.6c-.8-.2-1.7-.4-2.6-.7s-1.7-.7-2.5-1.2-1.4-1.2-1.9-2-.7-1.8-.7-3.1c0-1.7.4-3,1.3-4.1s2-1.8,3.4-2.4,3-.8,4.6-.8c1.8,0,3.4.3,4.7.8s2.4,1.4,3.3,2.4,1.4,2.3,1.7,3.8l-4.3.9c-.1-1-.4-1.8-.8-2.5s-1-1.2-1.7-1.6-1.7-.6-2.9-.6c-1.5,0-2.7.3-3.8.9s-1.6,1.5-1.6,2.8c0,.7.2,1.3.5,1.8s.9.9,1.6,1.2,1.6.6,2.7.8l3.1.7c1.3.3,2.5.7,3.6,1.2s2,1.2,2.7,2.2,1,2.1,1,3.7c0,1.7-.4,3.1-1.3,4.3s-2,2.1-3.5,2.8-2.9,1.1-4.8,1.1Z" fill="#cad2d9"/>
  </g>
  <g>
    <path d="m280.8,144c-78.4,0-147.5,144-216,288" fill="none" stroke="#307eef" stroke-linecap="round" stroke-width="2.835"/>
    <path d="m496.8,432c-68.5-144-137.6-288-216-288" fill="none" stroke="#307eef" stroke-linecap="round" stroke-width="2.835"/>
    <path d="m712.8,720c78.4,0,147.5-144,216-288" fill="none" stroke="#307eef" stroke-linecap="round" stroke-width="2.835"/>
    <path d="m496.8,432c68.5,144,137.6,288,216,288" fill="none" stroke="#307eef" stroke-linecap="round" stroke-width="2.835"/>
  </g>
  <g>
    <path d="m1144.8,144c-78.4,0-147.5,144-216,288" fill="none" stroke="#307eef" stroke-linecap="round" stroke-width="2.835"/>
    <path d="m1360.8,432c-68.5-144-137.6-288-216-288" fill="none" stroke="#307eef" stroke-linecap="round" stroke-width="2.835"/>
    <path d="m1576.8,720c78.4,0,147.5-144,216-288" fill="none" stroke="#307eef" stroke-linecap="round" stroke-width="2.835"/>
    <path d="m1360.8,432c68.5,144,137.6,288,216,288" fill="none" stroke="#307eef" stroke-linecap="round" stroke-width="2.835"/>
  </g>
</svg>