<?xml version="1.0" encoding="UTF-8"?>
<svg id="Ebene_1" data-name="Ebene 1" xmlns="http://www.w3.org/2000/svg" width="1526.4" height="576" viewBox="0 0 1526.4 576">
  <g>
    <line x1="108" y1="288" x2="1368.6" y2="288" fill="none" stroke="#c9d1d9" stroke-linecap="round" stroke-linejoin="round" stroke-width="4"/>
    <polygon points="1360.6 299.6 1404 288 1360.6 276.4 1360.6 299.6" fill="#c9d1d9"/>
  </g>
  <g>
    <line x1="108" y1="35.4" x2="108" y2="540.6" fill="none" stroke="#c9d1d9" stroke-linecap="round" stroke-linejoin="round" stroke-width="4"/>
    <polygon points="96.4 43.4 108 0 119.6 43.4 96.4 43.4" fill="#c9d1d9"/>
    <polygon points="96.4 532.6 108 576 119.6 532.6 96.4 532.6" fill="#c9d1d9"/>
  </g>
  <line x1="86.4" y1="288" x2="129.6" y2="288" fill="none" stroke="#c9d1d9" stroke-miterlimit="10" stroke-width="4"/>
  <line x1="86.4" y1="504" x2="129.6" y2="504" fill="none" stroke="#c9d1d9" stroke-miterlimit="10" stroke-width="4"/>
  <line x1="86.4" y1="72" x2="129.6" y2="72" fill="none" stroke="#c9d1d9" stroke-miterlimit="10" stroke-width="4"/>
  <g isolation="isolate">
    <path d="m1428.2,302.8v-30.3h-12.1v-3.5h28.4v3.5h-12.1v30.3h-4.2Z" fill="#c9d1d9"/>
    <path d="m1451.2,273.2c-.9,0-1.7-.3-2.3-1s-1-1.4-1-2.3.3-1.7,1-2.3,1.4-.9,2.3-.9,1.7.3,2.3.9.9,1.4.9,2.3-.3,1.7-.9,2.3-1.4,1-2.3,1Zm-2,29.6v-25.3h3.9v25.3h-3.9Z" fill="#c9d1d9"/>
    <path d="m1460.8,302.8v-25.3h3.7v4.3c.6-1.3,1.6-2.5,3-3.4s3-1.5,4.9-1.5c1.7,0,3.1.5,4.4,1.4s2.2,2.2,2.8,3.9c.8-1.5,1.9-2.8,3.3-3.8s3-1.5,4.8-1.5c2.4,0,4.3.9,5.8,2.6s2.1,4.2,2.1,7.3v15.9h-3.9v-15.6c0-1.4-.1-2.7-.4-3.7s-.8-1.8-1.5-2.4-1.6-.8-2.8-.8c-1.3,0-2.4.4-3.5,1.1s-1.8,1.8-2.4,3.2-.9,3.1-.9,5.1v13.2h-3.9v-15.6c0-1.4-.1-2.7-.4-3.7s-.8-1.8-1.5-2.4-1.6-.8-2.7-.8c-1.3,0-2.4.4-3.5,1.1s-1.8,1.8-2.4,3.2-.9,3.1-.9,5.1v13.2h-4.1v-.1Z" fill="#c9d1d9"/>
    <path d="m1512.9,303.3c-2.4,0-4.5-.5-6.2-1.6s-3.1-2.6-4.1-4.6-1.4-4.3-1.4-7,.5-5,1.4-7,2.3-3.5,4-4.6,3.8-1.6,6.1-1.6c1.3,0,2.7.2,4,.6s2.6,1.2,3.7,2.2,2,2.5,2.7,4.3,1,4.2,1,6.9h-20.5v-3.2h17.1l-1.1,1.5c-.1-2.2-.4-4-1.1-5.3s-1.5-2.3-2.5-2.9-2.2-.9-3.4-.9c-1.5,0-2.8.4-3.8,1.2s-1.9,1.9-2.5,3.4-.9,3.3-.9,5.4c0,3.2.6,5.6,1.9,7.3s3.1,2.6,5.5,2.6c1.7,0,3.1-.4,4.3-1.3s2-2.1,2.6-3.7l3.9,1.3c-.6,1.5-1.4,2.7-2.4,3.8s-2.2,1.8-3.6,2.4-2.9.8-4.7.8Z" fill="#c9d1d9"/>
  </g>
  <g isolation="isolate">
    <path d="m37,401.6l-33.8-14.2v-4.2l33.8-14.2v4.5l-29.3,11.8,29.3,11.8v4.5Zm-11.1-7.3h-3.5v-18h3.5v18Z" fill="#c9d1d9"/>
    <path d="m37,364.7H11.7v-3.7h4.3c-1.3-.6-2.5-1.6-3.4-3s-1.5-3-1.5-4.9c0-1.7.5-3.1,1.4-4.4s2.2-2.2,3.9-2.8c-1.5-.8-2.8-1.9-3.8-3.3s-1.5-3-1.5-4.8c0-2.4.9-4.3,2.6-5.8s4.2-2.1,7.3-2.1h16v3.9h-15.6c-1.4,0-2.7.1-3.7.4s-1.8.8-2.4,1.5-.8,1.6-.8,2.8c0,1.3.4,2.4,1.1,3.5.7,1.1,1.8,1.8,3.2,2.4s3.1.9,5.1.9h13.1v3.9h-15.6c-1.4,0-2.7.1-3.7.4s-1.8.8-2.4,1.5-.8,1.6-.8,2.7c0,1.3.4,2.4,1.1,3.5.7,1.1,1.8,1.8,3.2,2.4s3.1.9,5.1.9h13.1v4.1Z" fill="#c9d1d9"/>
    <path d="m46.1,322.8H11.7v-3.7h5.3l-.4.1c-1.8-.7-3.2-1.8-4.1-3.4s-1.3-3.3-1.3-5.1c0-2.1.5-3.9,1.6-5.4s2.6-2.8,4.6-3.7,4.3-1.3,7-1.3,5,.4,7,1.3c2,.9,3.5,2.1,4.6,3.7s1.6,3.4,1.6,5.4c0,1.7-.4,3.3-1.2,4.9s-2.2,2.9-4.2,3.7l-.2-.4h14.2l-.1,3.9h0Zm-11.8-11c0-2.1-.9-3.8-2.6-5.2s-4.2-2-7.4-2c-3.1,0-5.6.6-7.3,1.9s-2.6,3-2.6,5.2c0,1.3.3,2.5,1,3.6.7,1.1,1.8,2,3.2,2.6s3.3,1,5.6,1c3.4,0,5.9-.7,7.5-2.1,1.6-1.4,2.6-3,2.6-5Z" fill="#c9d1d9"/>
    <path d="m37,290.7c0,1-.3,1.9-1,2.6s-1.5,1.1-2.5,1.1H1.8v-3.9h30.6c.5,0,.9-.1,1-.2s.3-.5.3-.9v-2.5h3.3v3.8Z" fill="#c9d1d9"/>
    <path d="m7.4,279.7c0,.9-.3,1.7-1,2.3s-1.4,1-2.3,1-1.7-.3-2.3-1-.9-1.4-.9-2.3.3-1.7.9-2.3,1.4-.9,2.3-.9,1.7.3,2.3.9,1,1.4,1,2.3Zm29.6,1.9H11.7v-3.9h25.3v3.9Z" fill="#c9d1d9"/>
    <path d="m37,264.4c0,1-.3,1.9-1,2.6s-1.5,1.1-2.5,1.1H15v4.1h-3.3v-4.1h-5.3l-.8-3.9h6.1v-5h3.3v5h17.5c.5,0,.9-.1,1-.2s.3-.5.3-.9v-3.9h3.2v5.2Z" fill="#c9d1d9"/>
    <path d="m37.6,245.5c0,1.8-.4,3.3-1.2,4.6s-1.9,2.3-3.4,3-3.3,1.1-5.3,1.1H11.7v-3.9h15.6c2.1,0,3.7-.4,5-1.2,1.3-.8,1.9-2.2,1.9-4.2,0-1.5-.4-2.8-1.2-3.9s-2-2-3.5-2.6-3.5-.9-5.9-.9h-12v-3.9h25.4v3.7h-6l1-.2c1.6.7,2.9,1.7,3.9,3.2s1.7,3.1,1.7,5.2Z" fill="#c9d1d9"/>
    <path d="m37.6,217.2c0,2-.5,3.9-1.6,5.4s-2.6,2.8-4.6,3.7-4.3,1.3-7,1.3-5-.4-7-1.3-3.5-2.1-4.6-3.7-1.6-3.4-1.6-5.4c0-1.7.4-3.3,1.2-4.9s2.2-2.9,4.2-3.7l.2.4H1.8v-3.9h35.2v3.7h-5.3l.4-.1c1.8.7,3.2,1.8,4.1,3.4s1.4,3.3,1.4,5.1Zm-3.3-1c0-1.3-.3-2.5-1-3.6s-1.8-2-3.2-2.6-3.3-1-5.6-1c-3.4,0-5.9.7-7.6,2.1s-2.4,3.1-2.4,5.1c0,2.1.9,3.8,2.6,5.2s4.2,2,7.4,2c3.1,0,5.6-.6,7.3-1.9s2.5-3.2,2.5-5.3Z" fill="#c9d1d9"/>
    <path d="m37.6,187.3c0,2.4-.5,4.5-1.6,6.2s-2.6,3.1-4.6,4.1-4.3,1.4-7,1.4-5-.5-7-1.4-3.5-2.3-4.6-4-1.6-3.8-1.6-6.1c0-1.3.2-2.7.6-4s1.2-2.6,2.2-3.7,2.5-2,4.3-2.7,4.2-1,6.9-1v20.5h-3.2v-17.1l1.5,1.1c-2.2.1-4,.4-5.3,1.1s-2.3,1.5-2.9,2.5-.9,2.2-.9,3.4c0,1.5.4,2.8,1.2,3.8s1.9,1.9,3.4,2.5,3.3.9,5.4.9c3.2,0,5.6-.6,7.3-1.9,1.7-1.3,2.6-3.1,2.6-5.5,0-1.7-.4-3.1-1.3-4.3s-2.1-2-3.7-2.6l1.3-3.9c1.5.6,2.7,1.4,3.8,2.4s1.8,2.2,2.4,3.6.8,3,.8,4.7Z" fill="#c9d1d9"/>
  </g>
  <g isolation="isolate">
    <path d="m218.9,350.7v-22h-3.9v-3.3h26.9v3.3h-4.6v17.5c0,.5.1.9.2,1s.5.3.9.3h3.4v3.3h-4.8c-1,0-1.9-.3-2.6-1s-1.1-1.5-1.1-2.5v-18.5h-10.5v22l-3.9-.1h0Z" fill="#c9d1d9"/>
    <path d="m243.9,356.8l15.3-43.3h3.9l-15.3,43.3h-3.9Z" fill="#c9d1d9"/>
    <path d="m264.6,350.7v-2.8l11.9-10.1c1.6-1.4,2.9-2.6,3.9-3.8s1.8-2.3,2.3-3.4.7-2.4.7-3.9-.3-2.8-.8-3.9-1.3-1.8-2.3-2.4-2.3-.8-3.7-.8c-1.7,0-3.1.3-4.1,1s-1.8,1.6-2.3,2.7-.8,2.4-.9,3.8l-4.5-1.4c.1-1.5.6-3,1.6-4.4s2.4-2.7,4.1-3.6,3.8-1.4,6.1-1.4c1.3,0,2.6.2,4,.6s2.6,1,3.7,1.8,2,1.9,2.7,3.2,1,2.9,1,4.8c0,2.7-.7,5.1-2.2,7.2s-3.5,4.2-6.1,6.3l-9.2,7.4-3-.6h21.1v3.6l-24,.1h0Z" fill="#c9d1d9"/>
  </g>
  <g isolation="isolate">
    <path d="m386.2,350.7v-22h-3.9v-3.3h26.9v3.3h-4.6v17.5c0,.5.1.9.2,1s.5.3.9.3h3.4v3.3h-4.8c-1,0-1.9-.3-2.6-1s-1.1-1.5-1.1-2.5v-18.5h-10.5v22l-3.9-.1h0Z" fill="#c9d1d9"/>
  </g>
  <g isolation="isolate">
    <path d="m501.7,351.2c-2.1,0-4-.4-5.8-1.2s-3.2-2-4.4-3.6-1.8-3.5-2-5.7l4.3-1.3c.2,2.5.9,4.6,2.3,6.1s3.2,2.3,5.6,2.3c2.1,0,3.9-.6,5.3-1.8s2.1-3,2.1-5.3c0-.9-.2-1.9-.6-2.9s-1.1-1.9-2.1-2.6-2.4-1.1-4.2-1.1h-4.6v-3.6h4.3c2,0,3.5-.5,4.6-1.6s1.6-2.2,1.6-3.6c0-1.6-.5-2.9-1.6-4s-2.6-1.7-4.6-1.7c-2.5,0-4.3.7-5.4,2.1s-1.8,3.4-2,5.9l-4.3-1.3c.1-1.6.6-3.2,1.6-4.7s2.3-2.8,4.1-3.8,3.8-1.5,6.1-1.5c1.9,0,3.7.4,5.2,1.1s2.8,1.8,3.7,3.1,1.4,2.8,1.4,4.5c0,1.1-.2,2.2-.7,3.1s-1.2,1.8-2.1,2.4-2.1,1.2-3.6,1.5c2.4.4,4.2,1.4,5.6,3s2.1,3.4,2.1,5.5c0,1.9-.3,3.5-1,4.8s-1.6,2.4-2.7,3.3-2.4,1.5-3.8,1.9-3,.7-4.4.7Z" fill="#c9d1d9"/>
    <path d="m520.7,350.7v-22h-3.9v-3.3h26.9v3.3h-4.6v17.5c0,.5.1.9.2,1s.5.3.9.3h3.4v3.3h-4.8c-1,0-1.9-.3-2.6-1s-1.1-1.5-1.1-2.5v-18.5h-10.5v22l-3.9-.1h0Z" fill="#c9d1d9"/>
    <path d="m545.7,356.8l15.3-43.3h3.9l-15.3,43.3h-3.9Z" fill="#c9d1d9"/>
    <path d="m566.4,350.7v-2.8l11.9-10.1c1.6-1.4,2.9-2.6,3.9-3.8s1.8-2.3,2.3-3.4.7-2.4.7-3.9-.3-2.8-.8-3.9-1.3-1.8-2.3-2.4-2.3-.8-3.7-.8c-1.7,0-3.1.3-4.1,1s-1.8,1.6-2.3,2.7-.8,2.4-.9,3.8l-4.5-1.4c.1-1.5.6-3,1.6-4.4s2.4-2.7,4.1-3.6,3.8-1.4,6.1-1.4c1.3,0,2.6.2,4,.6s2.6,1,3.7,1.8,2,1.9,2.7,3.2,1,2.9,1,4.8c0,2.7-.7,5.1-2.2,7.2s-3.5,4.2-6.1,6.3l-9.2,7.4-3-.6h21.1v3.6l-24,.1h0Z" fill="#c9d1d9"/>
  </g>
  <g isolation="isolate">
    <path d="m656.8,350.7v-2.8l11.9-10.1c1.6-1.4,2.9-2.6,3.9-3.8s1.8-2.3,2.3-3.4.7-2.4.7-3.9-.3-2.8-.8-3.9-1.3-1.8-2.3-2.4-2.3-.8-3.7-.8c-1.7,0-3.1.3-4.1,1s-1.8,1.6-2.3,2.7-.8,2.4-.9,3.8l-4.5-1.4c.1-1.5.6-3,1.6-4.4s2.4-2.7,4.1-3.6,3.8-1.4,6.1-1.4c1.3,0,2.6.2,4,.6s2.6,1,3.7,1.8,2,1.9,2.7,3.2,1,2.9,1,4.8c0,2.7-.7,5.1-2.2,7.2s-3.5,4.2-6.1,6.3l-9.2,7.4-3-.6h21.1v3.6l-24,.1h0Z" fill="#c9d1d9"/>
    <path d="m687.9,350.7v-22h-3.9v-3.3h26.9v3.3h-4.6v17.5c0,.5.1.9.2,1s.5.3.9.3h3.4v3.3h-4.8c-1,0-1.9-.3-2.6-1s-1.1-1.5-1.1-2.5v-18.5h-10.5v22l-3.9-.1h0Z" fill="#c9d1d9"/>
  </g>
  <g isolation="isolate">
    <path d="m789.8,351.2c-2,0-3.8-.4-5.6-1.2s-3.3-2-4.5-3.5-1.9-3.5-2.1-5.7l4.3-1.3c.2,2.4.9,4.4,2.2,6s3.1,2.4,5.6,2.4c1.5,0,2.8-.4,4-1.1s2.1-1.7,2.7-3,1-2.8,1-4.4c0-2.5-.7-4.4-2.2-5.8s-3.2-2-5.4-2c-1.9,0-3.4.5-4.4,1.4s-1.9,2-2.4,3.2l-4.1-.4,1.4-18.8h19.3v3.6h-15.8l-.9,12.8-1.1-.1c.8-1.4,2-2.6,3.5-3.6s3.3-1.5,5.5-1.5c2.1,0,3.9.5,5.6,1.4s2.9,2.2,3.9,3.9,1.4,3.6,1.4,5.8c0,2.4-.5,4.6-1.6,6.4s-2.5,3.2-4.3,4.2-3.9,1.3-6,1.3Z" fill="#c9d1d9"/>
    <path d="m808.8,350.7v-22h-3.9v-3.3h26.9v3.3h-4.6v17.5c0,.5.1.9.2,1s.5.3.9.3h3.4v3.3h-4.7c-1,0-1.9-.3-2.6-1s-1.1-1.5-1.1-2.5v-18.5h-10.5v22l-4-.1h0Z" fill="#c9d1d9"/>
    <path d="m833.8,356.8l15.3-43.3h3.9l-15.3,43.3h-3.9Z" fill="#c9d1d9"/>
    <path d="m854.5,350.7v-2.8l11.9-10.1c1.6-1.4,2.9-2.6,3.9-3.8s1.8-2.3,2.3-3.4.7-2.4.7-3.9-.3-2.8-.8-3.9-1.3-1.8-2.3-2.4-2.3-.8-3.7-.8c-1.7,0-3.1.3-4.1,1s-1.8,1.6-2.3,2.7-.8,2.4-.9,3.8l-4.5-1.4c.1-1.5.6-3,1.6-4.4s2.4-2.7,4.1-3.6,3.8-1.4,6.1-1.4c1.3,0,2.6.2,4,.6s2.6,1,3.7,1.8,2,1.9,2.7,3.2,1,2.9,1,4.8c0,2.7-.7,5.1-2.2,7.2s-3.5,4.2-6.1,6.3l-9.2,7.4-3-.6h21.1v3.6l-24,.1h0Z" fill="#c9d1d9"/>
  </g>
  <g isolation="isolate">
    <path d="m957,351.2c-2.1,0-4-.4-5.8-1.2s-3.2-2-4.4-3.6-1.8-3.5-2-5.7l4.3-1.3c.2,2.5.9,4.6,2.3,6.1s3.2,2.3,5.6,2.3c2.1,0,3.9-.6,5.3-1.8s2.1-3,2.1-5.3c0-.9-.2-1.9-.6-2.9s-1.1-1.9-2.1-2.6-2.4-1.1-4.2-1.1h-4.6v-3.6h4.3c2,0,3.5-.5,4.6-1.6s1.6-2.2,1.6-3.6c0-1.6-.5-2.9-1.6-4s-2.6-1.7-4.6-1.7c-2.5,0-4.3.7-5.4,2.1s-1.8,3.4-2,5.9l-4.3-1.3c.1-1.6.6-3.2,1.6-4.7s2.3-2.8,4.1-3.8,3.8-1.5,6.1-1.5c1.9,0,3.7.4,5.2,1.1s2.8,1.8,3.7,3.1,1.4,2.8,1.4,4.5c0,1.1-.2,2.2-.7,3.1s-1.2,1.8-2.1,2.4-2.1,1.2-3.6,1.5c2.4.4,4.2,1.4,5.6,3s2.1,3.4,2.1,5.5c0,1.9-.3,3.5-1,4.8s-1.6,2.4-2.7,3.3-2.4,1.5-3.8,1.9-3,.7-4.4.7Z" fill="#c9d1d9"/>
    <path d="m976,350.7v-22h-3.9v-3.3h26.9v3.3h-4.6v17.5c0,.5.1.9.2,1s.5.3.9.3h3.4v3.3h-4.8c-1,0-1.9-.3-2.6-1s-1.1-1.5-1.1-2.5v-18.5h-10.4v22l-4-.1h0Z" fill="#c9d1d9"/>
  </g>
  <g isolation="isolate">
    <path d="m1249.8,350.7v-11.2h0v-20l1,2.2-15,17.8-1.4-1.2h23.3v3.6h-25.2v-4l17.8-21h3.5v33.8h-4Z" fill="#c9d1d9"/>
    <path d="m1263.9,350.7v-22h-3.9v-3.3h26.9v3.3h-4.6v17.5c0,.5.1.9.2,1s.5.3.9.3h3.4v3.3h-4.8c-1,0-1.9-.3-2.6-1s-1.1-1.5-1.1-2.5v-18.5h-10.5v22l-3.9-.1h0Z" fill="#c9d1d9"/>
  </g>
  <g isolation="isolate">
    <path d="m1070.7,350.7c1.2-5.8,3-11.2,5.4-16s5.3-9.6,8.8-14.1h-18.8v-3.6h22.9v3.2c-1.6,2.4-3.1,4.8-4.5,7.2s-2.7,4.9-3.9,7.3-2.2,5.1-3,7.7-1.5,5.4-2,8.3h-4.9Z" fill="#c9d1d9"/>
    <path d="m1095.7,350.7v-22h-3.9v-3.3h26.9v3.3h-4.6v17.5c0,.5.1.9.2,1s.5.3.9.3h3.4v3.3h-4.8c-1,0-1.9-.3-2.6-1s-1.1-1.5-1.1-2.5v-18.5h-10.5v22l-3.9-.1h0Z" fill="#c9d1d9"/>
    <path d="m1120.6,356.8l15.3-43.3h3.9l-15.3,43.3h-3.9Z" fill="#c9d1d9"/>
    <path d="m1141.3,350.7v-2.8l11.9-10.1c1.6-1.4,2.9-2.6,3.9-3.8s1.8-2.3,2.3-3.4.7-2.4.7-3.9-.3-2.8-.8-3.9-1.3-1.8-2.3-2.4-2.3-.8-3.7-.8c-1.7,0-3.1.3-4.1,1s-1.8,1.6-2.3,2.7-.8,2.4-.9,3.8l-4.5-1.4c.1-1.5.6-3,1.6-4.4s2.4-2.7,4.1-3.6,3.8-1.4,6.1-1.4c1.3,0,2.6.2,4,.6s2.6,1,3.7,1.8,2,1.9,2.7,3.2,1,2.9,1,4.8c0,2.7-.7,5.1-2.2,7.2s-3.5,4.2-6.1,6.3l-9.2,7.4-3-.6h21.1v3.6l-24,.1h0Z" fill="#c9d1d9"/>
  </g>
  <line x1="252" y1="273.6" x2="252" y2="302.4" fill="none" stroke="#c9d1d9" stroke-miterlimit="10" stroke-width="5"/>
  <line x1="396" y1="273.6" x2="396" y2="302.4" fill="none" stroke="#c9d1d9" stroke-miterlimit="10" stroke-width="5"/>
  <line x1="540" y1="273.6" x2="540" y2="302.4" fill="none" stroke="#c9d1d9" stroke-miterlimit="10" stroke-width="5"/>
  <line x1="684" y1="273.6" x2="684" y2="302.4" fill="none" stroke="#c9d1d9" stroke-miterlimit="10" stroke-width="5"/>
  <line x1="828" y1="273.6" x2="828" y2="302.4" fill="none" stroke="#c9d1d9" stroke-miterlimit="10" stroke-width="5"/>
  <line x1="972" y1="273.6" x2="972" y2="302.4" fill="none" stroke="#c9d1d9" stroke-miterlimit="10" stroke-width="5"/>
  <line x1="1116" y1="273.6" x2="1116" y2="302.4" fill="none" stroke="#c9d1d9" stroke-miterlimit="10" stroke-width="5"/>
  <line x1="1260" y1="273.6" x2="1260" y2="302.4" fill="none" stroke="#c9d1d9" stroke-miterlimit="10" stroke-width="5.67"/>
  <g isolation="isolate">
    <path d="m59.8,86.8v-26.9c-1.2,1.1-2.4,2-3.5,2.7s-2.3,1.3-3.6,1.8v-4c.7-.3,1.4-.7,2.2-1.2s1.6-1.2,2.6-2.2,2.1-2.3,3.4-4h3v33.8h-4.1Z" fill="#c9d1d9"/>
  </g>
  <g isolation="isolate">
    <path d="m41.9,505.8v-3.7h15.7v3.7h-15.7Z" fill="#c9d1d9"/>
    <path d="m66.5,518.8v-26.9c-1.2,1.1-2.4,2-3.5,2.7s-2.3,1.3-3.6,1.8v-4c.7-.3,1.4-.7,2.2-1.2s1.6-1.2,2.6-2.2c1-1,2.1-2.3,3.4-4h3v33.8h-4.1Z" fill="#c9d1d9"/>
  </g>
  <g isolation="isolate">
    <path d="m66,303.3c-3.9,0-6.9-1.5-9.1-4.6s-3.2-7.3-3.2-12.9,1.1-9.8,3.2-12.9,5.2-4.6,9.1-4.6,7,1.5,9.1,4.6,3.2,7.3,3.2,12.9-1.1,9.8-3.2,12.9-5.2,4.6-9.1,4.6Zm0-3.4c2.6,0,4.6-1.2,5.9-3.6s2-5.9,2-10.5-.7-8.1-2-10.5-3.3-3.6-5.9-3.6-4.6,1.2-5.9,3.6-2,5.9-2,10.5.7,8.1,2,10.5,3.3,3.6,5.9,3.6Z" fill="#c9d1d9"/>
  </g>
  <g>
    <g>
      <path d="m252,71.1c-52.2,0-98.4,108.4-144,216.9" fill="none" stroke="#307eef" stroke-linecap="round" stroke-width="2.835"/>
      <path d="m396,288c-45.6-108.5-91.8-216.9-144-216.9" fill="none" stroke="#307eef" stroke-linecap="round" stroke-width="2.835"/>
      <path d="m540,504.9c52.2,0,98.4-108.5,144-216.9" fill="none" stroke="#307eef" stroke-linecap="round" stroke-width="2.835"/>
      <path d="m396,288c45.6,108.4,91.8,216.9,144,216.9" fill="none" stroke="#307eef" stroke-linecap="round" stroke-width="2.835"/>
    </g>
    <g>
      <path d="m828,71.1c-52.2,0-98.4,108.4-144,216.9" fill="none" stroke="#307eef" stroke-linecap="round" stroke-width="2.835"/>
      <path d="m972,288c-45.6-108.4-91.8-216.9-144-216.9" fill="none" stroke="#307eef" stroke-linecap="round" stroke-width="2.835"/>
      <path d="m1116,504.9c52.2,0,98.4-108.4,144-216.9" fill="none" stroke="#307eef" stroke-linecap="round" stroke-width="2.835"/>
      <path d="m972,288c45.6,108.4,91.8,216.9,144,216.9" fill="none" stroke="#307eef" stroke-linecap="round" stroke-width="2.835"/>
    </g>
  </g>
  <g>
    <g>
      <path d="m1116,71.1c52.2,0,98.4,108.4,144,216.9" fill="none" stroke="#d85648" stroke-linecap="round" stroke-width="2.835"/>
      <path d="m972,288c45.6-108.5,91.8-216.9,144-216.9" fill="none" stroke="#d85648" stroke-linecap="round" stroke-width="2.835"/>
      <path d="m828,504.9c-52.2,0-98.4-108.5-144-216.9" fill="none" stroke="#d85648" stroke-linecap="round" stroke-width="2.835"/>
      <path d="m972,288c-45.6,108.4-91.8,216.9-144,216.9" fill="none" stroke="#d85648" stroke-linecap="round" stroke-width="2.835"/>
    </g>
    <g>
      <path d="m540,71.1c52.2,0,98.4,108.4,144,216.9" fill="none" stroke="#d85648" stroke-linecap="round" stroke-width="2.835"/>
      <path d="m396,288c45.6-108.4,91.8-216.9,144-216.9" fill="none" stroke="#d85648" stroke-linecap="round" stroke-width="2.835"/>
      <path d="m252,504.9c-52.2,0-98.4-108.5-144-216.9" fill="none" stroke="#d85648" stroke-linecap="round" stroke-width="2.835"/>
      <path d="m396,288c-45.6,108.4-91.8,216.9-144,216.9" fill="none" stroke="#d85648" stroke-linecap="round" stroke-width="2.835"/>
    </g>
  </g>
</svg>