<?xml version="1.0" encoding="utf-8"?>
<!-- Generator: Adobe Illustrator 27.4.1, SVG Export Plug-In . SVG Version: 6.00 Build 0)  -->
<svg version="1.1" id="Ebene_4" xmlns="http://www.w3.org/2000/svg" xmlns:xlink="http://www.w3.org/1999/xlink" x="0px" y="0px"
	 viewBox="0 0 1134 525.6" style="enable-background:new 0 0 1134 525.6;" xml:space="preserve">
<style type="text/css">
	.st0{fill:none;stroke:#C9D1D9;stroke-width:3;stroke-miterlimit:10;}
	.st1{fill:#C9D1D9;}
	.st2{fill:none;stroke:#C9D1D9;stroke-width:2;stroke-miterlimit:10;}
	.st3{enable-background:new    ;}
	.st4{fill:#307EEF;}
</style>
<g>
	<line class="st0" x1="162" y1="522" x2="162" y2="7.2"/>
	<path class="st1" d="M176.4,27.7c-0.7,0.5-1.6,0.2-2.1-0.5L162,7.9l-12.3,19.4c-0.4,0.7-1.4,0.9-2.1,0.5c-0.7-0.5-0.9-1.4-0.5-2.1
		l13.6-21.3c0.3-0.4,0.8-0.7,1.3-0.7s1,0.3,1.3,0.7l13.6,21.3c0.2,0.2,0.2,0.5,0.2,0.8C177.1,26.9,176.8,27.4,176.4,27.7L176.4,27.7
		z"/>
</g>
<line class="st2" x1="133.2" y1="507.6" x2="162" y2="507.6"/>
<line class="st2" x1="133.2" y1="435.6" x2="162" y2="435.6"/>
<line class="st2" x1="133.2" y1="363.6" x2="162" y2="363.6"/>
<line class="st2" x1="133.2" y1="291.6" x2="162" y2="291.6"/>
<line class="st2" x1="133.2" y1="219.6" x2="162" y2="219.6"/>
<line class="st2" x1="133.2" y1="147.6" x2="162" y2="147.6"/>
<line class="st2" x1="133.2" y1="75.6" x2="162" y2="75.6"/>
<g class="st3">
	<path class="st1" d="M31.2,518.6v-13.4c-0.6,0.5-1.2,1-1.7,1.3s-1.1,0.7-1.8,0.9v-2c0.3-0.2,0.7-0.4,1.1-0.6s0.8-0.6,1.3-1.1
		s1.1-1.1,1.7-2h1.5v16.9H31.2z"/>
	<path class="st1" d="M45.5,518.6v-13.4c-0.6,0.5-1.2,1-1.7,1.3s-1.1,0.7-1.8,0.9v-2c0.3-0.2,0.7-0.4,1.1-0.6s0.8-0.6,1.3-1.1
		s1.1-1.1,1.7-2h1.5v16.9H45.5z"/>
	<path class="st1" d="M56.9,518.9c-2,0-3.5-0.8-4.5-2.3s-1.6-3.7-1.6-6.4s0.5-4.9,1.6-6.4s2.6-2.3,4.5-2.3c2,0,3.5,0.8,4.6,2.3
		s1.6,3.7,1.6,6.4s-0.5,4.9-1.6,6.4S58.8,518.9,56.9,518.9z M56.9,517.2c1.3,0,2.3-0.6,2.9-1.8s1-2.9,1-5.2s-0.3-4-1-5.2
		s-1.6-1.8-2.9-1.8s-2.3,0.6-2.9,1.8s-1,2.9-1,5.2s0.3,4,1,5.2S55.6,517.2,56.9,517.2z"/>
</g>
<g class="st3">
	<path class="st1" d="M74.4,506.9v-1.1H79v1.1H74.4z"/>
	<path class="st1" d="M81.6,510.6v-7.8c-0.4,0.3-0.7,0.6-1,0.8c-0.3,0.2-0.7,0.4-1,0.5V503c0.2-0.1,0.4-0.2,0.6-0.4
		c0.2-0.1,0.5-0.4,0.8-0.6c0.3-0.3,0.6-0.7,1-1.2h0.9v9.8H81.6z"/>
	<path class="st1" d="M84.4,510.6v-0.8l3.4-2.9c0.5-0.4,0.8-0.8,1.1-1.1c0.3-0.3,0.5-0.7,0.7-1c0.1-0.3,0.2-0.7,0.2-1.1
		c0-0.4-0.1-0.8-0.2-1.1s-0.4-0.5-0.7-0.7c-0.3-0.2-0.7-0.2-1.1-0.2c-0.5,0-0.9,0.1-1.2,0.3c-0.3,0.2-0.5,0.5-0.7,0.8
		c-0.1,0.3-0.2,0.7-0.3,1.1l-1.3-0.4c0-0.4,0.2-0.9,0.5-1.3c0.3-0.4,0.7-0.8,1.2-1c0.5-0.3,1.1-0.4,1.8-0.4c0.4,0,0.8,0.1,1.1,0.2
		c0.4,0.1,0.7,0.3,1.1,0.5c0.3,0.2,0.6,0.5,0.8,0.9c0.2,0.4,0.3,0.8,0.3,1.4c0,0.8-0.2,1.5-0.6,2.1c-0.4,0.6-1,1.2-1.8,1.8l-2.7,2.2
		l-0.9-0.2h6.1v1H84.4z"/>
</g>
<g class="st3">
	<path class="st1" d="M100.6,518.6l-3.5-16.9h2l3,15.3h0l4.3-15.3h2.3L113,517h0l3-15.3h2l-3.5,16.9h-3.1l-4.1-15.4h0.5l-4.1,15.4
		H100.6z"/>
</g>
<g class="st3">
	<path class="st1" d="M4.3,446.6v-13.4c-0.6,0.5-1.2,1-1.7,1.3s-1.1,0.7-1.8,0.9v-2c0.3-0.2,0.7-0.4,1.1-0.6s0.8-0.6,1.3-1.1
		s1.1-1.1,1.7-2h1.5v16.9H4.3z"/>
	<path class="st1" d="M15.6,446.9c-2,0-3.5-0.8-4.5-2.3s-1.6-3.7-1.6-6.4s0.5-4.9,1.6-6.4s2.6-2.3,4.5-2.3c2,0,3.5,0.8,4.6,2.3
		s1.6,3.7,1.6,6.4s-0.5,4.9-1.6,6.4S17.5,446.9,15.6,446.9z M15.6,445.2c1.3,0,2.3-0.6,2.9-1.8s1-2.9,1-5.2s-0.3-4-1-5.2
		s-1.6-1.8-2.9-1.8s-2.3,0.6-2.9,1.8s-1,2.9-1,5.2s0.3,4,1,5.2S14.3,445.2,15.6,445.2z"/>
	<path class="st1" d="M30.8,446.9c-2,0-3.5-0.8-4.5-2.3s-1.6-3.7-1.6-6.4s0.5-4.9,1.6-6.4s2.6-2.3,4.5-2.3c2,0,3.5,0.8,4.6,2.3
		s1.6,3.7,1.6,6.4s-0.5,4.9-1.6,6.4S32.7,446.9,30.8,446.9z M30.8,445.2c1.3,0,2.3-0.6,2.9-1.8s1-2.9,1-5.2s-0.3-4-1-5.2
		s-1.6-1.8-2.9-1.8s-2.3,0.6-2.9,1.8s-1,2.9-1,5.2s0.3,4,1,5.2S29.5,445.2,30.8,445.2z"/>
	<path class="st1" d="M48.5,446.6v-13.4c-0.6,0.5-1.2,1-1.7,1.3s-1.1,0.7-1.8,0.9v-2c0.3-0.2,0.7-0.4,1.1-0.6s0.8-0.6,1.3-1.1
		s1.1-1.1,1.7-2h1.5v16.9H48.5z"/>
	<path class="st1" d="M59.8,446.9c-2,0-3.5-0.8-4.5-2.3s-1.6-3.7-1.6-6.4s0.5-4.9,1.6-6.4s2.6-2.3,4.5-2.3c2,0,3.5,0.8,4.6,2.3
		s1.6,3.7,1.6,6.4s-0.5,4.9-1.6,6.4S61.8,446.9,59.8,446.9z M59.8,445.2c1.3,0,2.3-0.6,2.9-1.8s1-2.9,1-5.2s-0.3-4-1-5.2
		s-1.6-1.8-2.9-1.8s-2.3,0.6-2.9,1.8s-1,2.9-1,5.2s0.3,4,1,5.2S58.5,445.2,59.8,445.2z"/>
</g>
<g class="st3">
	<path class="st1" d="M74.4,434.9v-1.1H79v1.1H74.4z"/>
	<path class="st1" d="M81.6,438.6v-7.8c-0.4,0.3-0.7,0.6-1,0.8c-0.3,0.2-0.7,0.4-1,0.5V431c0.2-0.1,0.4-0.2,0.6-0.4
		c0.2-0.1,0.5-0.4,0.8-0.6c0.3-0.3,0.6-0.7,1-1.2h0.9v9.8H81.6z"/>
	<path class="st1" d="M84.4,438.6v-0.8l3.4-2.9c0.5-0.4,0.8-0.8,1.1-1.1c0.3-0.3,0.5-0.7,0.7-1c0.1-0.3,0.2-0.7,0.2-1.1
		c0-0.4-0.1-0.8-0.2-1.1s-0.4-0.5-0.7-0.7c-0.3-0.2-0.7-0.2-1.1-0.2c-0.5,0-0.9,0.1-1.2,0.3c-0.3,0.2-0.5,0.5-0.7,0.8
		c-0.1,0.3-0.2,0.7-0.3,1.1l-1.3-0.4c0-0.4,0.2-0.9,0.5-1.3c0.3-0.4,0.7-0.8,1.2-1c0.5-0.3,1.1-0.4,1.8-0.4c0.4,0,0.8,0.1,1.1,0.2
		c0.4,0.1,0.7,0.3,1.1,0.5c0.3,0.2,0.6,0.5,0.8,0.9c0.2,0.4,0.3,0.8,0.3,1.4c0,0.8-0.2,1.5-0.6,2.1c-0.4,0.6-1,1.2-1.8,1.8l-2.7,2.2
		l-0.9-0.2h6.1v1H84.4z"/>
</g>
<g class="st3">
	<path class="st1" d="M100.6,446.6l-3.5-16.9h2l3,15.3h0l4.3-15.3h2.3L113,445h0l3-15.3h2l-3.5,16.9h-3.1l-4.1-15.4h0.5l-4.1,15.4
		H100.6z"/>
</g>
<g class="st3">
	<path class="st1" d="M25.6,374.6v-13.4c-0.6,0.5-1.2,1-1.7,1.3s-1.1,0.7-1.8,0.9v-2c0.3-0.2,0.7-0.4,1.1-0.6s0.8-0.6,1.3-1.1
		s1.1-1.1,1.7-2h1.5v16.9H25.6z"/>
	<path class="st1" d="M36.9,374.9c-2,0-3.5-0.8-4.5-2.3s-1.6-3.7-1.6-6.4s0.5-4.9,1.6-6.4s2.6-2.3,4.5-2.3c2,0,3.5,0.8,4.6,2.3
		s1.6,3.7,1.6,6.4s-0.5,4.9-1.6,6.4S38.9,374.9,36.9,374.9z M36.9,373.2c1.3,0,2.3-0.6,2.9-1.8s1-2.9,1-5.2s-0.3-4-1-5.2
		s-1.6-1.8-2.9-1.8s-2.3,0.6-2.9,1.8s-1,2.9-1,5.2s0.3,4,1,5.2S35.6,373.2,36.9,373.2z"/>
	<path class="st1" d="M54.6,374.6v-13.4c-0.6,0.5-1.2,1-1.7,1.3s-1.1,0.7-1.8,0.9v-2c0.3-0.2,0.7-0.4,1.1-0.6s0.8-0.6,1.3-1.1
		s1.1-1.1,1.7-2h1.5v16.9H54.6z"/>
	<path class="st1" d="M65.9,374.9c-2,0-3.5-0.8-4.5-2.3s-1.6-3.7-1.6-6.4s0.5-4.9,1.6-6.4s2.6-2.3,4.5-2.3c2,0,3.5,0.8,4.6,2.3
		s1.6,3.7,1.6,6.4s-0.5,4.9-1.6,6.4S67.9,374.9,65.9,374.9z M65.9,373.2c1.3,0,2.3-0.6,2.9-1.8s1-2.9,1-5.2s-0.3-4-1-5.2
		s-1.6-1.8-2.9-1.8s-2.3,0.6-2.9,1.8s-1,2.9-1,5.2s0.3,4,1,5.2S64.6,373.2,65.9,373.2z"/>
</g>
<g class="st3">
	<path class="st1" d="M82.3,362.9v-1.1h4.6v1.1H82.3z"/>
	<path class="st1" d="M91.5,366.8c-0.7,0-1.2-0.1-1.7-0.4s-0.8-0.6-1.1-1c-0.3-0.4-0.4-0.8-0.5-1.2l1.2-0.3c0,0.6,0.2,1.1,0.5,1.4
		c0.3,0.4,0.8,0.5,1.5,0.5c0.4,0,0.8-0.1,1.1-0.3s0.5-0.5,0.7-0.8s0.3-0.7,0.4-1.1s0.1-0.8,0.2-1.2c0-0.4,0-0.7,0-1l0.1,0.2
		c-0.2,0.4-0.5,0.8-0.9,1.2c-0.4,0.3-1,0.5-1.7,0.5c-0.6,0-1.1-0.1-1.6-0.4c-0.5-0.3-0.9-0.6-1.2-1.1c-0.3-0.5-0.4-1.1-0.4-1.8
		c0-0.7,0.1-1.3,0.4-1.8c0.3-0.5,0.7-0.9,1.2-1.2c0.5-0.3,1.1-0.4,1.8-0.4c0.7,0,1.2,0.1,1.7,0.4c0.5,0.3,0.8,0.6,1.1,1.1
		c0.3,0.5,0.5,1,0.6,1.6c0.1,0.6,0.2,1.2,0.2,1.9c0,0.7-0.1,1.3-0.2,1.9c-0.1,0.6-0.3,1.2-0.6,1.6c-0.3,0.5-0.7,0.9-1.1,1.1
		C92.7,366.6,92.1,366.8,91.5,366.8z M91.5,362.4c0.7,0,1.2-0.2,1.6-0.7c0.4-0.4,0.6-1,0.6-1.8c0-0.7-0.2-1.3-0.6-1.7
		s-0.9-0.6-1.6-0.6c-0.7,0-1.2,0.2-1.6,0.6c-0.4,0.4-0.6,1-0.6,1.7c0,0.7,0.2,1.3,0.5,1.7C90.3,362.2,90.8,362.4,91.5,362.4z"/>
</g>
<g class="st3">
	<path class="st1" d="M100.6,374.6l-3.5-16.9h2l3,15.3h0l4.3-15.3h2.3L113,373h0l3-15.3h2l-3.5,16.9h-3.1l-4.1-15.4h0.5l-4.1,15.4
		H100.6z"/>
</g>
<g class="st3">
	<path class="st1" d="M39.1,302.6v-13.4c-0.6,0.5-1.2,1-1.7,1.3s-1.1,0.7-1.8,0.9v-2c0.3-0.2,0.7-0.4,1.1-0.6s0.8-0.6,1.3-1.1
		s1.1-1.1,1.7-2h1.5v16.9H39.1z"/>
	<path class="st1" d="M53.4,302.6v-13.4c-0.6,0.5-1.2,1-1.7,1.3s-1.1,0.7-1.8,0.9v-2c0.3-0.2,0.7-0.4,1.1-0.6s0.8-0.6,1.3-1.1
		s1.1-1.1,1.7-2h1.5v16.9H53.4z"/>
	<path class="st1" d="M64.7,302.9c-2,0-3.5-0.8-4.5-2.3s-1.6-3.7-1.6-6.4s0.5-4.9,1.6-6.4s2.6-2.3,4.5-2.3c2,0,3.5,0.8,4.6,2.3
		s1.6,3.7,1.6,6.4s-0.5,4.9-1.6,6.4S66.7,302.9,64.7,302.9z M64.7,301.2c1.3,0,2.3-0.6,2.9-1.8s1-2.9,1-5.2s-0.3-4-1-5.2
		s-1.6-1.8-2.9-1.8s-2.3,0.6-2.9,1.8s-1,2.9-1,5.2s0.3,4,1,5.2S63.4,301.2,64.7,301.2z"/>
</g>
<g class="st3">
	<path class="st1" d="M82.3,290.9v-1.1h4.6v1.1H82.3z"/>
	<path class="st1" d="M92.2,294.8c-1.2,0-2.1-0.4-2.7-1.3c-0.6-0.9-0.9-2.1-0.9-3.6c0-0.7,0.1-1.4,0.2-2.1c0.1-0.6,0.4-1.2,0.7-1.7
		c0.3-0.5,0.7-0.9,1.2-1.1c0.5-0.3,1-0.4,1.6-0.4c0.6,0,1.2,0.1,1.7,0.4c0.5,0.3,0.8,0.6,1.1,1s0.4,0.8,0.5,1.2l-1.2,0.3
		c0-0.6-0.2-1.1-0.6-1.4c-0.4-0.4-0.8-0.5-1.4-0.5c-0.5,0-0.8,0.1-1.1,0.3c-0.3,0.2-0.5,0.5-0.7,0.8c-0.2,0.3-0.3,0.7-0.4,1.1
		c-0.1,0.4-0.2,0.8-0.2,1.2c0,0.4,0,0.7,0,1l-0.1-0.1c0.2-0.4,0.5-0.8,0.9-1.2s1-0.5,1.7-0.5c0.6,0,1.1,0.1,1.6,0.4s0.9,0.6,1.2,1.1
		c0.3,0.5,0.4,1.1,0.4,1.8c0,0.7-0.1,1.3-0.4,1.8s-0.7,0.9-1.2,1.1S92.8,294.8,92.2,294.8z M92.2,293.8c0.7,0,1.2-0.2,1.5-0.6
		s0.5-1,0.5-1.7c0-0.7-0.2-1.3-0.5-1.7c-0.4-0.4-0.9-0.6-1.5-0.6c-0.7,0-1.2,0.2-1.6,0.6c-0.4,0.4-0.6,1-0.6,1.7
		c0,0.7,0.2,1.3,0.6,1.7S91.5,293.8,92.2,293.8z"/>
</g>
<g class="st3">
	<path class="st1" d="M100.6,302.6l-3.5-16.9h2l3,15.3h0l4.3-15.3h2.3L113,301h0l3-15.3h2l-3.5,16.9h-3.1l-4.1-15.4h0.5l-4.1,15.4
		H100.6z"/>
</g>
<g class="st3">
	<path class="st1" d="M12.1,230.6v-13.4c-0.6,0.5-1.2,1-1.7,1.3s-1.1,0.7-1.8,0.9v-2c0.3-0.2,0.7-0.4,1.1-0.6s0.8-0.6,1.3-1.1
		s1.1-1.1,1.7-2h1.5v16.9H12.1z"/>
	<path class="st1" d="M23.4,230.9c-2,0-3.5-0.8-4.5-2.3s-1.6-3.7-1.6-6.4s0.5-4.9,1.6-6.4s2.6-2.3,4.5-2.3c2,0,3.5,0.8,4.6,2.3
		s1.6,3.7,1.6,6.4s-0.5,4.9-1.6,6.4S25.4,230.9,23.4,230.9z M23.4,229.2c1.3,0,2.3-0.6,2.9-1.8s1-2.9,1-5.2s-0.3-4-1-5.2
		s-1.6-1.8-2.9-1.8s-2.3,0.6-2.9,1.8s-1,2.9-1,5.2s0.3,4,1,5.2S22.1,229.2,23.4,229.2z"/>
	<path class="st1" d="M38.6,230.9c-2,0-3.5-0.8-4.5-2.3s-1.6-3.7-1.6-6.4s0.5-4.9,1.6-6.4s2.6-2.3,4.5-2.3c2,0,3.5,0.8,4.6,2.3
		s1.6,3.7,1.6,6.4s-0.5,4.9-1.6,6.4S40.6,230.9,38.6,230.9z M38.6,229.2c1.3,0,2.3-0.6,2.9-1.8s1-2.9,1-5.2s-0.3-4-1-5.2
		s-1.6-1.8-2.9-1.8s-2.3,0.6-2.9,1.8s-1,2.9-1,5.2s0.3,4,1,5.2S37.3,229.2,38.6,229.2z"/>
	<path class="st1" d="M56.3,230.6v-13.4c-0.6,0.5-1.2,1-1.7,1.3s-1.1,0.7-1.8,0.9v-2c0.3-0.2,0.7-0.4,1.1-0.6s0.8-0.6,1.3-1.1
		s1.1-1.1,1.7-2h1.5v16.9H56.3z"/>
	<path class="st1" d="M67.6,230.9c-2,0-3.5-0.8-4.5-2.3s-1.6-3.7-1.6-6.4s0.5-4.9,1.6-6.4s2.6-2.3,4.5-2.3c2,0,3.5,0.8,4.6,2.3
		s1.6,3.7,1.6,6.4s-0.5,4.9-1.6,6.4S69.6,230.9,67.6,230.9z M67.6,229.2c1.3,0,2.3-0.6,2.9-1.8s1-2.9,1-5.2s-0.3-4-1-5.2
		s-1.6-1.8-2.9-1.8s-2.3,0.6-2.9,1.8s-1,2.9-1,5.2s0.3,4,1,5.2S66.4,229.2,67.6,229.2z"/>
</g>
<g class="st3">
	<path class="st1" d="M82.3,218.9v-1.1h4.6v1.1H82.3z"/>
	<path class="st1" d="M92.2,222.8c-1.2,0-2.1-0.4-2.7-1.3c-0.6-0.9-0.9-2.1-0.9-3.6c0-0.7,0.1-1.4,0.2-2.1c0.1-0.6,0.4-1.2,0.7-1.7
		c0.3-0.5,0.7-0.9,1.2-1.1c0.5-0.3,1-0.4,1.6-0.4c0.6,0,1.2,0.1,1.7,0.4c0.5,0.3,0.8,0.6,1.1,1c0.3,0.4,0.4,0.8,0.5,1.2l-1.2,0.3
		c0-0.6-0.2-1.1-0.6-1.4c-0.4-0.4-0.8-0.5-1.4-0.5c-0.5,0-0.8,0.1-1.1,0.3c-0.3,0.2-0.5,0.5-0.7,0.8c-0.2,0.3-0.3,0.7-0.4,1.1
		c-0.1,0.4-0.2,0.8-0.2,1.2c0,0.4,0,0.7,0,1l-0.1-0.1c0.2-0.4,0.5-0.8,0.9-1.2s1-0.5,1.7-0.5c0.6,0,1.1,0.1,1.6,0.4
		c0.5,0.3,0.9,0.6,1.2,1.1c0.3,0.5,0.4,1.1,0.4,1.8c0,0.7-0.1,1.3-0.4,1.8c-0.3,0.5-0.7,0.9-1.2,1.1S92.8,222.8,92.2,222.8z
		 M92.2,221.8c0.7,0,1.2-0.2,1.5-0.6s0.5-1,0.5-1.7c0-0.7-0.2-1.3-0.5-1.7c-0.4-0.4-0.9-0.6-1.5-0.6c-0.7,0-1.2,0.2-1.6,0.6
		c-0.4,0.4-0.6,1-0.6,1.7c0,0.7,0.2,1.3,0.6,1.7S91.5,221.8,92.2,221.8z"/>
</g>
<g class="st3">
	<path class="st1" d="M100.6,230.6l-3.5-16.9h2l3,15.3h0l4.3-15.3h2.3L113,229h0l3-15.3h2l-3.5,16.9h-3.1l-4.1-15.4h0.5l-4.1,15.4
		H100.6z"/>
</g>
<g class="st3">
	<path class="st1" d="M25.6,158.6v-13.4c-0.6,0.5-1.2,1-1.7,1.3s-1.1,0.7-1.8,0.9v-2c0.3-0.2,0.7-0.4,1.1-0.6s0.8-0.6,1.3-1.1
		s1.1-1.1,1.7-2h1.5v16.9H25.6z"/>
	<path class="st1" d="M36.9,158.9c-2,0-3.5-0.8-4.5-2.3s-1.6-3.7-1.6-6.4s0.5-4.9,1.6-6.4s2.6-2.3,4.5-2.3c2,0,3.5,0.8,4.6,2.3
		s1.6,3.7,1.6,6.4s-0.5,4.9-1.6,6.4S38.9,158.9,36.9,158.9z M36.9,157.2c1.3,0,2.3-0.6,2.9-1.8s1-2.9,1-5.2s-0.3-4-1-5.2
		s-1.6-1.8-2.9-1.8s-2.3,0.6-2.9,1.8s-1,2.9-1,5.2s0.3,4,1,5.2S35.6,157.2,36.9,157.2z"/>
	<path class="st1" d="M54.6,158.6v-13.4c-0.6,0.5-1.2,1-1.7,1.3s-1.1,0.7-1.8,0.9v-2c0.3-0.2,0.7-0.4,1.1-0.6s0.8-0.6,1.3-1.1
		s1.1-1.1,1.7-2h1.5v16.9H54.6z"/>
	<path class="st1" d="M65.9,158.9c-2,0-3.5-0.8-4.5-2.3s-1.6-3.7-1.6-6.4s0.5-4.9,1.6-6.4s2.6-2.3,4.5-2.3c2,0,3.5,0.8,4.6,2.3
		s1.6,3.7,1.6,6.4s-0.5,4.9-1.6,6.4S67.9,158.9,65.9,158.9z M65.9,157.2c1.3,0,2.3-0.6,2.9-1.8s1-2.9,1-5.2s-0.3-4-1-5.2
		s-1.6-1.8-2.9-1.8s-2.3,0.6-2.9,1.8s-1,2.9-1,5.2s0.3,4,1,5.2S64.6,157.2,65.9,157.2z"/>
</g>
<g class="st3">
	<path class="st1" d="M82.3,146.9v-1.1h4.6v1.1H82.3z"/>
	<path class="st1" d="M91.4,150.8c-0.6,0-1.2-0.1-1.7-0.4c-0.5-0.2-0.9-0.6-1.3-1c-0.3-0.5-0.5-1-0.6-1.7l1.2-0.4
		c0,0.7,0.3,1.3,0.7,1.8c0.4,0.5,0.9,0.7,1.6,0.7c0.6,0,1.1-0.2,1.5-0.5c0.4-0.4,0.6-0.9,0.6-1.5c0-0.3-0.1-0.5-0.2-0.8
		c-0.1-0.3-0.3-0.5-0.6-0.8c-0.3-0.2-0.7-0.3-1.2-0.3h-1.3v-1h1.2c0.6,0,1-0.2,1.3-0.5c0.3-0.3,0.5-0.7,0.5-1c0-0.5-0.2-0.8-0.5-1.2
		c-0.3-0.3-0.8-0.5-1.3-0.5c-0.7,0-1.2,0.2-1.6,0.6c-0.3,0.4-0.5,1-0.6,1.7l-1.2-0.4c0-0.5,0.2-0.9,0.5-1.4c0.3-0.4,0.7-0.8,1.2-1.1
		s1.1-0.4,1.8-0.4c0.6,0,1.1,0.1,1.5,0.3c0.5,0.2,0.8,0.5,1.1,0.9c0.3,0.4,0.4,0.8,0.4,1.3c0,0.3-0.1,0.6-0.2,0.9
		c-0.1,0.3-0.3,0.5-0.6,0.7c-0.3,0.2-0.6,0.3-1,0.4c0.7,0.1,1.2,0.4,1.6,0.9s0.6,1,0.6,1.6c0,0.5-0.1,1-0.3,1.4
		c-0.2,0.4-0.5,0.7-0.8,1s-0.7,0.4-1.1,0.5S91.8,150.8,91.4,150.8z"/>
</g>
<g class="st3">
	<path class="st1" d="M100.6,158.6l-3.5-16.9h2l3,15.3h0l4.3-15.3h2.3L113,157h0l3-15.3h2l-3.5,16.9h-3.1l-4.1-15.4h0.5l-4.1,15.4
		H100.6z"/>
</g>
<g class="st3">
	<path class="st1" d="M81.2,82.6V69.2c-0.6,0.5-1.2,1-1.7,1.3s-1.1,0.7-1.8,0.9v-2c0.3-0.2,0.7-0.4,1.1-0.6s0.8-0.6,1.3-1.1
		s1.1-1.1,1.7-2h1.5v16.9H81.2z"/>
	<path class="st1" d="M95.5,82.6L92,65.7h2l3,15.3h0l4.3-15.3h2.3l4.3,15.3h0l3-15.3h2l-3.5,16.9h-3.1l-4.1-15.4h0.5l-4.1,15.4H95.5
		z"/>
</g>
<g>
	<line class="st0" x1="450" y1="522" x2="450" y2="7.2"/>
	<path class="st1" d="M464.4,27.7c-0.7,0.5-1.6,0.2-2.1-0.5L450,7.9l-12.3,19.4c-0.5,0.7-1.4,0.9-2.1,0.5s-0.9-1.4-0.5-2.1
		l13.6-21.3c0.3-0.4,0.8-0.7,1.3-0.7s1,0.3,1.3,0.7l13.6,21.3c0.2,0.2,0.2,0.5,0.2,0.8C465.1,26.9,464.8,27.4,464.4,27.7L464.4,27.7
		z"/>
</g>
<line class="st2" x1="421.2" y1="507.6" x2="450" y2="507.6"/>
<line class="st2" x1="421.2" y1="435.6" x2="450" y2="435.6"/>
<line class="st2" x1="421.2" y1="363.6" x2="450" y2="363.6"/>
<line class="st2" x1="421.2" y1="291.6" x2="450" y2="291.6"/>
<line class="st2" x1="421.2" y1="219.6" x2="450" y2="219.6"/>
<line class="st2" x1="421.2" y1="147.6" x2="450" y2="147.6"/>
<line class="st2" x1="421.2" y1="75.6" x2="450" y2="75.6"/>
<g class="st3">
	<path class="st1" d="M302.3,518.6v-1.4l5.9-5c0.8-0.7,1.5-1.3,2-1.9s0.9-1.1,1.1-1.7s0.4-1.2,0.4-1.9c0-0.8-0.1-1.4-0.4-2
		s-0.7-0.9-1.2-1.2s-1.1-0.4-1.9-0.4c-0.8,0-1.5,0.2-2,0.5s-0.9,0.8-1.2,1.3s-0.4,1.2-0.5,1.9l-2.2-0.7c0-0.8,0.3-1.5,0.8-2.2
		s1.2-1.3,2-1.8s1.9-0.7,3-0.7c0.7,0,1.3,0.1,2,0.3s1.3,0.5,1.8,0.9s1,0.9,1.3,1.6s0.5,1.5,0.5,2.4c0,1.3-0.4,2.5-1.1,3.6
		s-1.7,2.1-3,3.2l-4.6,3.7l-1.5-0.3h10.5v1.8H302.3z"/>
	<path class="st1" d="M322.7,518.9c-2,0-3.5-0.8-4.5-2.3s-1.6-3.7-1.6-6.4s0.5-4.9,1.6-6.4s2.6-2.3,4.5-2.3c2,0,3.5,0.8,4.6,2.3
		s1.6,3.7,1.6,6.4s-0.5,4.9-1.6,6.4S324.7,518.9,322.7,518.9z M322.7,517.2c1.3,0,2.3-0.6,2.9-1.8s1-2.9,1-5.2s-0.3-4-1-5.2
		s-1.6-1.8-2.9-1.8s-2.3,0.6-2.9,1.8s-1,2.9-1,5.2s0.3,4,1,5.2S321.4,517.2,322.7,517.2z"/>
	<path class="st1" d="M340.4,518.6v-13.4c-0.6,0.5-1.2,1-1.7,1.3s-1.1,0.7-1.8,0.9v-2c0.3-0.2,0.7-0.4,1.1-0.6s0.8-0.6,1.3-1.1
		s1.1-1.1,1.7-2h1.5v16.9H340.4z"/>
	<path class="st1" d="M351.7,518.9c-2,0-3.5-0.8-4.5-2.3s-1.6-3.7-1.6-6.4s0.5-4.9,1.6-6.4s2.6-2.3,4.5-2.3c2,0,3.5,0.8,4.6,2.3
		s1.6,3.7,1.6,6.4s-0.5,4.9-1.6,6.4S353.7,518.9,351.7,518.9z M351.7,517.2c1.3,0,2.3-0.6,2.9-1.8s1-2.9,1-5.2s-0.3-4-1-5.2
		s-1.6-1.8-2.9-1.8s-2.3,0.6-2.9,1.8s-1,2.9-1,5.2s0.3,4,1,5.2S350.4,517.2,351.7,517.2z"/>
</g>
<g class="st3">
	<path class="st1" d="M362.4,506.9v-1.1h4.6v1.1H362.4z"/>
	<path class="st1" d="M371.5,510.8c-0.6,0-1.2-0.1-1.7-0.4s-0.9-0.6-1.3-1c-0.3-0.5-0.5-1-0.6-1.7l1.2-0.4c0,0.7,0.3,1.3,0.7,1.8
		c0.4,0.5,0.9,0.7,1.6,0.7c0.6,0,1.1-0.2,1.5-0.5c0.4-0.4,0.6-0.9,0.6-1.5c0-0.3-0.1-0.5-0.2-0.8c-0.1-0.3-0.3-0.5-0.6-0.8
		c-0.3-0.2-0.7-0.3-1.2-0.3h-1.3v-1h1.2c0.6,0,1-0.2,1.3-0.5c0.3-0.3,0.5-0.7,0.5-1c0-0.5-0.2-0.8-0.5-1.2c-0.3-0.3-0.8-0.5-1.3-0.5
		c-0.7,0-1.2,0.2-1.6,0.6c-0.3,0.4-0.5,1-0.6,1.7l-1.2-0.4c0-0.5,0.2-0.9,0.5-1.4c0.3-0.4,0.7-0.8,1.2-1.1s1.1-0.4,1.8-0.4
		c0.6,0,1.1,0.1,1.5,0.3c0.5,0.2,0.8,0.5,1.1,0.9c0.3,0.4,0.4,0.8,0.4,1.3c0,0.3-0.1,0.6-0.2,0.9c-0.1,0.3-0.3,0.5-0.6,0.7
		c-0.3,0.2-0.6,0.3-1,0.4c0.7,0.1,1.2,0.4,1.6,0.9s0.6,1,0.6,1.6c0,0.5-0.1,1-0.3,1.4c-0.2,0.4-0.5,0.7-0.8,1s-0.7,0.4-1.1,0.5
		S371.9,510.8,371.5,510.8z"/>
</g>
<g class="st3">
	<path class="st1" d="M378.4,518.6v-16.9h6.1c2,0,3.4,0.4,4.4,1.2s1.5,2,1.5,3.5c0,1.5-0.5,2.6-1.5,3.5s-2.5,1.2-4.5,1.2h-3.9v7.5
		H378.4z M380.5,509.4h4c1.2,0,2.1-0.3,2.8-0.8s1-1.2,1-2.1c0-0.8-0.3-1.5-0.9-2.1s-1.5-0.9-2.9-0.9h-4V509.4z"/>
</g>
<g class="st3">
	<path class="st1" d="M396.7,518.9c-0.8,0-1.6-0.2-2.2-0.5s-1.1-0.8-1.4-1.3s-0.5-1.2-0.5-1.9c0-0.8,0.2-1.5,0.7-2.1
		s1.1-1.2,2.1-1.5s2.1-0.6,3.6-0.6h2.1l-0.2,0.2v-0.7c0-1-0.2-1.8-0.6-2.3s-1.1-0.8-2-0.8c-0.9,0-1.6,0.2-2.1,0.7s-0.7,1.1-0.8,1.9
		l-2.2-0.5c0.1-0.7,0.3-1.3,0.8-1.9s1.1-1,1.8-1.3s1.6-0.5,2.6-0.5c1,0,1.9,0.2,2.5,0.6s1.1,0.9,1.4,1.7s0.5,1.6,0.5,2.6v5.8
		c0,0.3,0,0.4,0.1,0.5s0.2,0.1,0.5,0.1h0.7v1.6h-1.3c-0.5,0-1-0.2-1.3-0.5s-0.5-0.8-0.5-1.3V516h0.3c-0.1,0.3-0.3,0.7-0.5,1
		s-0.5,0.7-0.9,0.9s-0.8,0.5-1.3,0.7S397.3,518.9,396.7,518.9z M397.1,517.3c0.6,0,1.2-0.2,1.8-0.5s1-0.8,1.3-1.5s0.5-1.6,0.5-2.7
		v-0.1h-2c-1,0-1.9,0.1-2.5,0.4s-1,0.6-1.3,1s-0.4,0.8-0.4,1.2s0.1,0.8,0.3,1.1s0.4,0.6,0.8,0.8S396.6,517.3,397.1,517.3z"/>
</g>
<g class="st3">
	<path class="st1" d="M292.3,446.6v-13.4c-0.6,0.5-1.2,1-1.7,1.3s-1.1,0.7-1.8,0.9v-2c0.3-0.2,0.7-0.4,1.1-0.6s0.8-0.6,1.3-1.1
		s1.1-1.1,1.7-2h1.5v16.9H292.3z"/>
	<path class="st1" d="M303.6,446.9c-2,0-3.5-0.8-4.5-2.3s-1.6-3.7-1.6-6.4s0.5-4.9,1.6-6.4s2.6-2.3,4.5-2.3c2,0,3.5,0.8,4.6,2.3
		s1.6,3.7,1.6,6.4s-0.5,4.9-1.6,6.4S305.5,446.9,303.6,446.9z M303.6,445.2c1.3,0,2.3-0.6,2.9-1.8s1-2.9,1-5.2s-0.3-4-1-5.2
		s-1.6-1.8-2.9-1.8s-2.3,0.6-2.9,1.8s-1,2.9-1,5.2s0.3,4,1,5.2S302.3,445.2,303.6,445.2z"/>
	<path class="st1" d="M318.8,446.9c-2,0-3.5-0.8-4.5-2.3s-1.6-3.7-1.6-6.4s0.5-4.9,1.6-6.4s2.6-2.3,4.5-2.3c2,0,3.5,0.8,4.6,2.3
		s1.6,3.7,1.6,6.4s-0.5,4.9-1.6,6.4S320.7,446.9,318.8,446.9z M318.8,445.2c1.3,0,2.3-0.6,2.9-1.8s1-2.9,1-5.2s-0.3-4-1-5.2
		s-1.6-1.8-2.9-1.8s-2.3,0.6-2.9,1.8s-1,2.9-1,5.2s0.3,4,1,5.2S317.5,445.2,318.8,445.2z"/>
	<path class="st1" d="M336.5,446.6v-13.4c-0.6,0.5-1.2,1-1.7,1.3s-1.1,0.7-1.8,0.9v-2c0.3-0.2,0.7-0.4,1.1-0.6s0.8-0.6,1.3-1.1
		s1.1-1.1,1.7-2h1.5v16.9H336.5z"/>
	<path class="st1" d="M347.8,446.9c-2,0-3.5-0.8-4.5-2.3s-1.6-3.7-1.6-6.4s0.5-4.9,1.6-6.4s2.6-2.3,4.5-2.3c2,0,3.5,0.8,4.6,2.3
		s1.6,3.7,1.6,6.4s-0.5,4.9-1.6,6.4S349.8,446.9,347.8,446.9z M347.8,445.2c1.3,0,2.3-0.6,2.9-1.8s1-2.9,1-5.2s-0.3-4-1-5.2
		s-1.6-1.8-2.9-1.8s-2.3,0.6-2.9,1.8s-1,2.9-1,5.2s0.3,4,1,5.2S346.5,445.2,347.8,445.2z"/>
</g>
<g class="st3">
	<path class="st1" d="M362.4,434.9v-1.1h4.6v1.1H362.4z"/>
	<path class="st1" d="M372.3,438.8c-1.2,0-2.1-0.4-2.7-1.3c-0.6-0.9-0.9-2.1-0.9-3.6c0-0.7,0.1-1.4,0.2-2.1c0.1-0.6,0.4-1.2,0.7-1.7
		c0.3-0.5,0.7-0.9,1.2-1.1c0.5-0.3,1-0.4,1.6-0.4c0.6,0,1.2,0.1,1.7,0.4c0.5,0.3,0.8,0.6,1.1,1c0.3,0.4,0.4,0.8,0.5,1.2l-1.2,0.3
		c0-0.6-0.2-1.1-0.6-1.4c-0.4-0.4-0.8-0.5-1.4-0.5c-0.5,0-0.8,0.1-1.1,0.3c-0.3,0.2-0.5,0.5-0.7,0.8c-0.2,0.3-0.3,0.7-0.4,1.1
		c-0.1,0.4-0.2,0.8-0.2,1.2c0,0.4,0,0.7,0,1l-0.1-0.1c0.2-0.4,0.5-0.8,0.9-1.2s1-0.5,1.7-0.5c0.6,0,1.1,0.1,1.6,0.4s0.9,0.6,1.2,1.1
		c0.3,0.5,0.4,1.1,0.4,1.8c0,0.7-0.1,1.3-0.4,1.8s-0.7,0.9-1.2,1.1S373,438.8,372.3,438.8z M372.3,437.8c0.7,0,1.2-0.2,1.5-0.6
		s0.5-1,0.5-1.7c0-0.7-0.2-1.3-0.5-1.7c-0.4-0.4-0.9-0.6-1.5-0.6c-0.7,0-1.2,0.2-1.6,0.6c-0.4,0.4-0.6,1-0.6,1.7
		c0,0.7,0.2,1.3,0.6,1.7S371.6,437.8,372.3,437.8z"/>
</g>
<g class="st3">
	<path class="st1" d="M378.4,446.6v-16.9h6.1c2,0,3.4,0.4,4.4,1.2s1.5,2,1.5,3.5c0,1.5-0.5,2.6-1.5,3.5s-2.5,1.2-4.5,1.2h-3.9v7.5
		H378.4z M380.5,437.4h4c1.2,0,2.1-0.3,2.8-0.8s1-1.2,1-2.1c0-0.8-0.3-1.5-0.9-2.1s-1.5-0.9-2.9-0.9h-4V437.4z"/>
</g>
<g class="st3">
	<path class="st1" d="M396.7,446.9c-0.8,0-1.6-0.2-2.2-0.5s-1.1-0.8-1.4-1.3s-0.5-1.2-0.5-1.9c0-0.8,0.2-1.5,0.7-2.1
		s1.1-1.2,2.1-1.5s2.1-0.6,3.6-0.6h2.1l-0.2,0.2v-0.7c0-1-0.2-1.8-0.6-2.3s-1.1-0.8-2-0.8c-0.9,0-1.6,0.2-2.1,0.7s-0.7,1.1-0.8,1.9
		l-2.2-0.5c0.1-0.7,0.3-1.3,0.8-1.9s1.1-1,1.8-1.3s1.6-0.5,2.6-0.5c1,0,1.9,0.2,2.5,0.6s1.1,0.9,1.4,1.7s0.5,1.6,0.5,2.6v5.8
		c0,0.3,0,0.4,0.1,0.5s0.2,0.1,0.5,0.1h0.7v1.6h-1.3c-0.5,0-1-0.2-1.3-0.5s-0.5-0.8-0.5-1.3V444h0.3c-0.1,0.3-0.3,0.7-0.5,1
		s-0.5,0.7-0.9,0.9s-0.8,0.5-1.3,0.7S397.3,446.9,396.7,446.9z M397.1,445.3c0.6,0,1.2-0.2,1.8-0.5s1-0.8,1.3-1.5s0.5-1.6,0.5-2.7
		v-0.1h-2c-1,0-1.9,0.1-2.5,0.4s-1,0.6-1.3,1s-0.4,0.8-0.4,1.2s0.1,0.8,0.3,1.1s0.4,0.6,0.8,0.8S396.6,445.3,397.1,445.3z"/>
</g>
<g class="st3">
	<path class="st1" d="M315.8,374.6v-1.4l5.9-5c0.8-0.7,1.5-1.3,2-1.9s0.9-1.1,1.1-1.7s0.4-1.2,0.4-1.9c0-0.8-0.1-1.4-0.4-2
		s-0.7-0.9-1.2-1.2s-1.1-0.4-1.9-0.4c-0.8,0-1.5,0.2-2,0.5s-0.9,0.8-1.2,1.3s-0.4,1.2-0.5,1.9l-2.2-0.7c0-0.8,0.3-1.5,0.8-2.2
		s1.2-1.3,2-1.8s1.9-0.7,3-0.7c0.7,0,1.3,0.1,2,0.3s1.3,0.5,1.8,0.9s1,0.9,1.3,1.6s0.5,1.5,0.5,2.4c0,1.3-0.4,2.5-1.1,3.6
		s-1.7,2.1-3,3.2l-4.6,3.7l-1.5-0.3h10.5v1.8H315.8z"/>
	<path class="st1" d="M339,374.6v-13.4c-0.6,0.5-1.2,1-1.7,1.3s-1.1,0.7-1.8,0.9v-2c0.3-0.2,0.7-0.4,1.1-0.6s0.8-0.6,1.3-1.1
		s1.1-1.1,1.7-2h1.5v16.9H339z"/>
	<path class="st1" d="M350.4,374.9c-2,0-3.5-0.8-4.5-2.3s-1.6-3.7-1.6-6.4s0.5-4.9,1.6-6.4s2.6-2.3,4.5-2.3c2,0,3.5,0.8,4.6,2.3
		s1.6,3.7,1.6,6.4s-0.5,4.9-1.6,6.4S352.3,374.9,350.4,374.9z M350.4,373.2c1.3,0,2.3-0.6,2.9-1.8s1-2.9,1-5.2s-0.3-4-1-5.2
		s-1.6-1.8-2.9-1.8s-2.3,0.6-2.9,1.8s-1,2.9-1,5.2s0.3,4,1,5.2S349.1,373.2,350.4,373.2z"/>
</g>
<g class="st3">
	<path class="st1" d="M362.4,362.9v-1.1h4.6v1.1H362.4z"/>
	<path class="st1" d="M371.5,366.8c-0.6,0-1.2-0.1-1.7-0.4c-0.5-0.2-0.9-0.6-1.3-1c-0.3-0.5-0.5-1-0.6-1.7l1.2-0.4
		c0,0.7,0.3,1.3,0.7,1.8c0.4,0.5,0.9,0.7,1.6,0.7c0.6,0,1.1-0.2,1.5-0.5c0.4-0.4,0.6-0.9,0.6-1.5c0-0.3-0.1-0.5-0.2-0.8
		c-0.1-0.3-0.3-0.5-0.6-0.8c-0.3-0.2-0.7-0.3-1.2-0.3h-1.3v-1h1.2c0.6,0,1-0.2,1.3-0.5c0.3-0.3,0.5-0.7,0.5-1c0-0.5-0.2-0.8-0.5-1.2
		c-0.3-0.3-0.8-0.5-1.3-0.5c-0.7,0-1.2,0.2-1.6,0.6s-0.5,1-0.6,1.7l-1.2-0.4c0-0.5,0.2-0.9,0.5-1.4c0.3-0.4,0.7-0.8,1.2-1.1
		s1.1-0.4,1.8-0.4c0.6,0,1.1,0.1,1.5,0.3c0.5,0.2,0.8,0.5,1.1,0.9c0.3,0.4,0.4,0.8,0.4,1.3c0,0.3-0.1,0.6-0.2,0.9
		c-0.1,0.3-0.3,0.5-0.6,0.7c-0.3,0.2-0.6,0.3-1,0.4c0.7,0.1,1.2,0.4,1.6,0.9s0.6,1,0.6,1.6c0,0.5-0.1,1-0.3,1.4
		c-0.2,0.4-0.5,0.7-0.8,1s-0.7,0.4-1.1,0.5S371.9,366.8,371.5,366.8z"/>
</g>
<g class="st3">
	<path class="st1" d="M378.4,374.6v-16.9h6.1c2,0,3.4,0.4,4.4,1.2s1.5,2,1.5,3.5c0,1.5-0.5,2.6-1.5,3.5s-2.5,1.2-4.5,1.2h-3.9v7.5
		H378.4z M380.5,365.4h4c1.2,0,2.1-0.3,2.8-0.8s1-1.2,1-2.1c0-0.8-0.3-1.5-0.9-2.1s-1.5-0.9-2.9-0.9h-4V365.4z"/>
</g>
<g class="st3">
	<path class="st1" d="M396.7,374.9c-0.8,0-1.6-0.2-2.2-0.5s-1.1-0.8-1.4-1.3s-0.5-1.2-0.5-1.9c0-0.8,0.2-1.5,0.7-2.1
		s1.1-1.2,2.1-1.5s2.1-0.6,3.6-0.6h2.1l-0.2,0.2v-0.7c0-1-0.2-1.8-0.6-2.3s-1.1-0.8-2-0.8c-0.9,0-1.6,0.2-2.1,0.7s-0.7,1.1-0.8,1.9
		l-2.2-0.5c0.1-0.7,0.3-1.3,0.8-1.9s1.1-1,1.8-1.3s1.6-0.5,2.6-0.5c1,0,1.9,0.2,2.5,0.6s1.1,0.9,1.4,1.7s0.5,1.6,0.5,2.6v5.8
		c0,0.3,0,0.4,0.1,0.5s0.2,0.1,0.5,0.1h0.7v1.6h-1.3c-0.5,0-1-0.2-1.3-0.5s-0.5-0.8-0.5-1.3V372h0.3c-0.1,0.3-0.3,0.7-0.5,1
		s-0.5,0.7-0.9,0.9s-0.8,0.5-1.3,0.7S397.3,374.9,396.7,374.9z M397.1,373.3c0.6,0,1.2-0.2,1.8-0.5s1-0.8,1.3-1.5s0.5-1.6,0.5-2.7
		v-0.1h-2c-1,0-1.9,0.1-2.5,0.4s-1,0.6-1.3,1s-0.4,0.8-0.4,1.2s0.1,0.8,0.3,1.1s0.4,0.6,0.8,0.8S396.6,373.3,397.1,373.3z"/>
</g>
<g class="st3">
	<path class="st1" d="M302.3,302.6v-1.4l5.9-5c0.8-0.7,1.5-1.3,2-1.9s0.9-1.1,1.1-1.7s0.4-1.2,0.4-1.9c0-0.8-0.1-1.4-0.4-2
		s-0.7-0.9-1.2-1.2s-1.1-0.4-1.9-0.4c-0.8,0-1.5,0.2-2,0.5s-0.9,0.8-1.2,1.3s-0.4,1.2-0.5,1.9l-2.2-0.7c0-0.8,0.3-1.5,0.8-2.2
		s1.2-1.3,2-1.8s1.9-0.7,3-0.7c0.7,0,1.3,0.1,2,0.3s1.3,0.5,1.8,0.9s1,0.9,1.3,1.6s0.5,1.5,0.5,2.4c0,1.3-0.4,2.5-1.1,3.6
		s-1.7,2.1-3,3.2l-4.6,3.7l-1.5-0.3h10.5v1.8H302.3z"/>
	<path class="st1" d="M322.7,302.9c-2,0-3.5-0.8-4.5-2.3s-1.6-3.7-1.6-6.4s0.5-4.9,1.6-6.4s2.6-2.3,4.5-2.3c2,0,3.5,0.8,4.6,2.3
		s1.6,3.7,1.6,6.4s-0.5,4.9-1.6,6.4S324.7,302.9,322.7,302.9z M322.7,301.2c1.3,0,2.3-0.6,2.9-1.8s1-2.9,1-5.2s-0.3-4-1-5.2
		s-1.6-1.8-2.9-1.8s-2.3,0.6-2.9,1.8s-1,2.9-1,5.2s0.3,4,1,5.2S321.4,301.2,322.7,301.2z"/>
	<path class="st1" d="M340.4,302.6v-13.4c-0.6,0.5-1.2,1-1.7,1.3s-1.1,0.7-1.8,0.9v-2c0.3-0.2,0.7-0.4,1.1-0.6s0.8-0.6,1.3-1.1
		s1.1-1.1,1.7-2h1.5v16.9H340.4z"/>
	<path class="st1" d="M351.7,302.9c-2,0-3.5-0.8-4.5-2.3s-1.6-3.7-1.6-6.4s0.5-4.9,1.6-6.4s2.6-2.3,4.5-2.3c2,0,3.5,0.8,4.6,2.3
		s1.6,3.7,1.6,6.4s-0.5,4.9-1.6,6.4S353.7,302.9,351.7,302.9z M351.7,301.2c1.3,0,2.3-0.6,2.9-1.8s1-2.9,1-5.2s-0.3-4-1-5.2
		s-1.6-1.8-2.9-1.8s-2.3,0.6-2.9,1.8s-1,2.9-1,5.2s0.3,4,1,5.2S350.4,301.2,351.7,301.2z"/>
</g>
<g class="st3">
	<path class="st1" d="M362.4,290.9v-1.1h4.6v1.1H362.4z"/>
	<path class="st1" d="M371.5,294.8c-0.6,0-1.2-0.1-1.7-0.4c-0.5-0.2-0.9-0.6-1.3-1c-0.3-0.5-0.5-1-0.6-1.7l1.2-0.4
		c0,0.7,0.3,1.3,0.7,1.8c0.4,0.5,0.9,0.7,1.6,0.7c0.6,0,1.1-0.2,1.5-0.5c0.4-0.4,0.6-0.9,0.6-1.5c0-0.3-0.1-0.5-0.2-0.8
		c-0.1-0.3-0.3-0.5-0.6-0.8c-0.3-0.2-0.7-0.3-1.2-0.3h-1.3v-1h1.2c0.6,0,1-0.2,1.3-0.5c0.3-0.3,0.5-0.7,0.5-1c0-0.5-0.2-0.8-0.5-1.2
		c-0.3-0.3-0.8-0.5-1.3-0.5c-0.7,0-1.2,0.2-1.6,0.6s-0.5,1-0.6,1.7l-1.2-0.4c0-0.5,0.2-0.9,0.5-1.4c0.3-0.4,0.7-0.8,1.2-1.1
		s1.1-0.4,1.8-0.4c0.6,0,1.1,0.1,1.5,0.3c0.5,0.2,0.8,0.5,1.1,0.9c0.3,0.4,0.4,0.8,0.4,1.3c0,0.3-0.1,0.6-0.2,0.9
		c-0.1,0.3-0.3,0.5-0.6,0.7c-0.3,0.2-0.6,0.3-1,0.4c0.7,0.1,1.2,0.4,1.6,0.9s0.6,1,0.6,1.6c0,0.5-0.1,1-0.3,1.4
		c-0.2,0.4-0.5,0.7-0.8,1s-0.7,0.4-1.1,0.5S371.9,294.8,371.5,294.8z"/>
</g>
<g class="st3">
	<path class="st1" d="M378.4,302.6v-16.9h6.1c2,0,3.4,0.4,4.4,1.2s1.5,2,1.5,3.5c0,1.5-0.5,2.6-1.5,3.5s-2.5,1.2-4.5,1.2h-3.9v7.5
		H378.4z M380.5,293.4h4c1.2,0,2.1-0.3,2.8-0.8s1-1.2,1-2.1c0-0.8-0.3-1.5-0.9-2.1s-1.5-0.9-2.9-0.9h-4V293.4z"/>
</g>
<g class="st3">
	<path class="st1" d="M396.7,302.9c-0.8,0-1.6-0.2-2.2-0.5s-1.1-0.8-1.4-1.3s-0.5-1.2-0.5-1.9c0-0.8,0.2-1.5,0.7-2.1
		s1.1-1.2,2.1-1.5s2.1-0.6,3.6-0.6h2.1l-0.2,0.2v-0.7c0-1-0.2-1.8-0.6-2.3s-1.1-0.8-2-0.8c-0.9,0-1.6,0.2-2.1,0.7s-0.7,1.1-0.8,1.9
		l-2.2-0.5c0.1-0.7,0.3-1.3,0.8-1.9s1.1-1,1.8-1.3s1.6-0.5,2.6-0.5c1,0,1.9,0.2,2.5,0.6s1.1,0.9,1.4,1.7s0.5,1.6,0.5,2.6v5.8
		c0,0.3,0,0.4,0.1,0.5s0.2,0.1,0.5,0.1h0.7v1.6h-1.3c-0.5,0-1-0.2-1.3-0.5s-0.5-0.8-0.5-1.3V300h0.3c-0.1,0.3-0.3,0.7-0.5,1
		s-0.5,0.7-0.9,0.9s-0.8,0.5-1.3,0.7S397.3,302.9,396.7,302.9z M397.1,301.3c0.6,0,1.2-0.2,1.8-0.5s1-0.8,1.3-1.5s0.5-1.6,0.5-2.7
		v-0.1h-2c-1,0-1.9,0.1-2.5,0.4s-1,0.6-1.3,1s-0.4,0.8-0.4,1.2s0.1,0.8,0.3,1.1s0.4,0.6,0.8,0.8S396.6,301.3,397.1,301.3z"/>
</g>
<g class="st3">
	<path class="st1" d="M288.8,230.6v-1.4l5.9-5c0.8-0.7,1.5-1.3,2-1.9s0.9-1.1,1.1-1.7s0.4-1.2,0.4-1.9c0-0.8-0.1-1.4-0.4-2
		s-0.7-0.9-1.2-1.2s-1.1-0.4-1.9-0.4c-0.8,0-1.5,0.2-2,0.5s-0.9,0.8-1.2,1.3s-0.4,1.2-0.5,1.9l-2.2-0.7c0-0.8,0.3-1.5,0.8-2.2
		s1.2-1.3,2-1.8s1.9-0.7,3-0.7c0.7,0,1.3,0.1,2,0.3s1.3,0.5,1.8,0.9s1,0.9,1.3,1.6s0.5,1.5,0.5,2.4c0,1.3-0.4,2.5-1.1,3.6
		s-1.7,2.1-3,3.2l-4.6,3.7l-1.5-0.3h10.5v1.8H288.8z"/>
	<path class="st1" d="M309.2,230.9c-2,0-3.5-0.8-4.5-2.3s-1.6-3.7-1.6-6.4s0.5-4.9,1.6-6.4s2.6-2.3,4.5-2.3c2,0,3.5,0.8,4.6,2.3
		s1.6,3.7,1.6,6.4s-0.5,4.9-1.6,6.4S311.2,230.9,309.2,230.9z M309.2,229.2c1.3,0,2.3-0.6,2.9-1.8s1-2.9,1-5.2s-0.3-4-1-5.2
		s-1.6-1.8-2.9-1.8s-2.3,0.6-2.9,1.8s-1,2.9-1,5.2s0.3,4,1,5.2S307.9,229.2,309.2,229.2z"/>
	<path class="st1" d="M324.4,230.9c-2,0-3.5-0.8-4.5-2.3s-1.6-3.7-1.6-6.4s0.5-4.9,1.6-6.4s2.6-2.3,4.5-2.3c2,0,3.5,0.8,4.6,2.3
		s1.6,3.7,1.6,6.4s-0.5,4.9-1.6,6.4S326.4,230.9,324.4,230.9z M324.4,229.2c1.3,0,2.3-0.6,2.9-1.8s1-2.9,1-5.2s-0.3-4-1-5.2
		s-1.6-1.8-2.9-1.8s-2.3,0.6-2.9,1.8s-1,2.9-1,5.2s0.3,4,1,5.2S323.1,229.2,324.4,229.2z"/>
	<path class="st1" d="M342.1,230.6v-13.4c-0.6,0.5-1.2,1-1.7,1.3s-1.1,0.7-1.8,0.9v-2c0.3-0.2,0.7-0.4,1.1-0.6s0.8-0.6,1.3-1.1
		s1.1-1.1,1.7-2h1.5v16.9H342.1z"/>
	<path class="st1" d="M353.4,230.9c-2,0-3.5-0.8-4.5-2.3s-1.6-3.7-1.6-6.4s0.5-4.9,1.6-6.4s2.6-2.3,4.5-2.3c2,0,3.5,0.8,4.6,2.3
		s1.6,3.7,1.6,6.4s-0.5,4.9-1.6,6.4S355.4,230.9,353.4,230.9z M353.4,229.2c1.3,0,2.3-0.6,2.9-1.8s1-2.9,1-5.2s-0.3-4-1-5.2
		s-1.6-1.8-2.9-1.8s-2.3,0.6-2.9,1.8s-1,2.9-1,5.2s0.3,4,1,5.2S352.1,229.2,353.4,229.2z"/>
</g>
<g class="st3">
	<path class="st1" d="M362.4,218.9v-1.1h4.6v1.1H362.4z"/>
	<path class="st1" d="M371.5,222.8c-0.6,0-1.2-0.1-1.7-0.4c-0.5-0.2-0.9-0.6-1.3-1c-0.3-0.5-0.5-1-0.6-1.7l1.2-0.4
		c0,0.7,0.3,1.3,0.7,1.8c0.4,0.5,0.9,0.7,1.6,0.7c0.6,0,1.1-0.2,1.5-0.5c0.4-0.4,0.6-0.9,0.6-1.5c0-0.3-0.1-0.5-0.2-0.8
		c-0.1-0.3-0.3-0.5-0.6-0.8c-0.3-0.2-0.7-0.3-1.2-0.3h-1.3v-1h1.2c0.6,0,1-0.2,1.3-0.5c0.3-0.3,0.5-0.7,0.5-1c0-0.5-0.2-0.8-0.5-1.2
		c-0.3-0.3-0.8-0.5-1.3-0.5c-0.7,0-1.2,0.2-1.6,0.6c-0.3,0.4-0.5,1-0.6,1.7l-1.2-0.4c0-0.5,0.2-0.9,0.5-1.4c0.3-0.4,0.7-0.8,1.2-1.1
		s1.1-0.4,1.8-0.4c0.6,0,1.1,0.1,1.5,0.3c0.5,0.2,0.8,0.5,1.1,0.9c0.3,0.4,0.4,0.8,0.4,1.3c0,0.3-0.1,0.6-0.2,0.9
		c-0.1,0.3-0.3,0.5-0.6,0.7c-0.3,0.2-0.6,0.3-1,0.4c0.7,0.1,1.2,0.4,1.6,0.9s0.6,1,0.6,1.6c0,0.5-0.1,1-0.3,1.4
		c-0.2,0.4-0.5,0.7-0.8,1s-0.7,0.4-1.1,0.5S371.9,222.8,371.5,222.8z"/>
</g>
<g class="st3">
	<path class="st1" d="M378.4,230.6v-16.9h6.1c2,0,3.4,0.4,4.4,1.2s1.5,2,1.5,3.5c0,1.5-0.5,2.6-1.5,3.5s-2.5,1.2-4.5,1.2h-3.9v7.5
		H378.4z M380.5,221.4h4c1.2,0,2.1-0.3,2.8-0.8s1-1.2,1-2.1c0-0.8-0.3-1.5-0.9-2.1s-1.5-0.9-2.9-0.9h-4V221.4z"/>
</g>
<g class="st3">
	<path class="st1" d="M396.7,230.9c-0.8,0-1.6-0.2-2.2-0.5s-1.1-0.8-1.4-1.3s-0.5-1.2-0.5-1.9c0-0.8,0.2-1.5,0.7-2.1
		s1.1-1.2,2.1-1.5s2.1-0.6,3.6-0.6h2.1l-0.2,0.2v-0.7c0-1-0.2-1.8-0.6-2.3s-1.1-0.8-2-0.8c-0.9,0-1.6,0.2-2.1,0.7s-0.7,1.1-0.8,1.9
		l-2.2-0.5c0.1-0.7,0.3-1.3,0.8-1.9s1.1-1,1.8-1.3s1.6-0.5,2.6-0.5c1,0,1.9,0.2,2.5,0.6s1.1,0.9,1.4,1.7s0.5,1.6,0.5,2.6v5.8
		c0,0.3,0,0.4,0.1,0.5s0.2,0.1,0.5,0.1h0.7v1.6h-1.3c-0.5,0-1-0.2-1.3-0.5s-0.5-0.8-0.5-1.3V228h0.3c-0.1,0.3-0.3,0.7-0.5,1
		s-0.5,0.7-0.9,0.9s-0.8,0.5-1.3,0.7S397.3,230.9,396.7,230.9z M397.1,229.3c0.6,0,1.2-0.2,1.8-0.5s1-0.8,1.3-1.5s0.5-1.6,0.5-2.7
		v-0.1h-2c-1,0-1.9,0.1-2.5,0.4s-1,0.6-1.3,1s-0.4,0.8-0.4,1.2s0.1,0.8,0.3,1.1s0.4,0.6,0.8,0.8S396.6,229.3,397.1,229.3z"/>
</g>
<g class="st3">
	<path class="st1" d="M360.4,158.6v-1.4l5.9-5c0.8-0.7,1.5-1.3,2-1.9s0.9-1.1,1.1-1.7s0.4-1.2,0.4-1.9c0-0.8-0.1-1.4-0.4-2
		s-0.7-0.9-1.2-1.2s-1.1-0.4-1.9-0.4c-0.8,0-1.5,0.2-2,0.5s-0.9,0.8-1.2,1.3s-0.4,1.2-0.5,1.9l-2.2-0.7c0-0.8,0.3-1.5,0.8-2.2
		s1.2-1.3,2-1.8s1.9-0.7,3-0.7c0.7,0,1.3,0.1,2,0.3s1.3,0.5,1.8,0.9s1,0.9,1.3,1.6s0.5,1.5,0.5,2.4c0,1.3-0.4,2.5-1.1,3.6
		s-1.7,2.1-3,3.2l-4.6,3.7l-1.5-0.3h10.5v1.8H360.4z"/>
</g>
<g class="st3">
	<path class="st1" d="M378.4,158.6v-16.9h6.1c2,0,3.4,0.4,4.4,1.2s1.5,2,1.5,3.5c0,1.5-0.5,2.6-1.5,3.5s-2.5,1.2-4.5,1.2h-3.9v7.5
		H378.4z M380.5,149.4h4c1.2,0,2.1-0.3,2.8-0.8s1-1.2,1-2.1c0-0.8-0.3-1.5-0.9-2.1s-1.5-0.9-2.9-0.9h-4V149.4z"/>
</g>
<g class="st3">
	<path class="st1" d="M396.7,158.9c-0.8,0-1.6-0.2-2.2-0.5s-1.1-0.8-1.4-1.3s-0.5-1.2-0.5-1.9c0-0.8,0.2-1.5,0.7-2.1
		s1.1-1.2,2.1-1.5s2.1-0.6,3.6-0.6h2.1l-0.2,0.2v-0.7c0-1-0.2-1.8-0.6-2.3s-1.1-0.8-2-0.8c-0.9,0-1.6,0.2-2.1,0.7s-0.7,1.1-0.8,1.9
		l-2.2-0.5c0.1-0.7,0.3-1.3,0.8-1.9s1.1-1,1.8-1.3s1.6-0.5,2.6-0.5c1,0,1.9,0.2,2.5,0.6s1.1,0.9,1.4,1.7s0.5,1.6,0.5,2.6v5.8
		c0,0.3,0,0.4,0.1,0.5s0.2,0.1,0.5,0.1h0.7v1.6h-1.3c-0.5,0-1-0.2-1.3-0.5s-0.5-0.8-0.5-1.3V156h0.3c-0.1,0.3-0.3,0.7-0.5,1
		s-0.5,0.7-0.9,0.9s-0.8,0.5-1.3,0.7S397.3,158.9,396.7,158.9z M397.1,157.3c0.6,0,1.2-0.2,1.8-0.5s1-0.8,1.3-1.5s0.5-1.6,0.5-2.7
		v-0.1h-2c-1,0-1.9,0.1-2.5,0.4s-1,0.6-1.3,1s-0.4,0.8-0.4,1.2s0.1,0.8,0.3,1.1s0.4,0.6,0.8,0.8S396.6,157.3,397.1,157.3z"/>
</g>
<g class="st3">
	<path class="st1" d="M344.4,82.6v-1.4l5.9-5c0.8-0.7,1.5-1.3,2-1.9s0.9-1.1,1.1-1.7s0.4-1.2,0.4-1.9c0-0.8-0.1-1.4-0.4-2
		s-0.7-0.9-1.2-1.2s-1.1-0.4-1.9-0.4c-0.8,0-1.5,0.2-2,0.5s-0.9,0.8-1.2,1.3s-0.4,1.2-0.5,1.9l-2.2-0.7c0-0.8,0.3-1.5,0.8-2.2
		s1.2-1.3,2-1.8s1.9-0.7,3-0.7c0.7,0,1.3,0.1,2,0.3s1.3,0.5,1.8,0.9s1,0.9,1.3,1.6s0.5,1.5,0.5,2.4c0,1.3-0.4,2.5-1.1,3.6
		s-1.7,2.1-3,3.2l-4.6,3.7l-1.5-0.3h10.5v1.8H344.4z"/>
	<path class="st1" d="M364.8,82.9c-2,0-3.5-0.8-4.5-2.3s-1.6-3.7-1.6-6.4s0.5-4.9,1.6-6.4s2.6-2.3,4.5-2.3c2,0,3.5,0.8,4.6,2.3
		s1.6,3.7,1.6,6.4s-0.5,4.9-1.6,6.4S366.8,82.9,364.8,82.9z M364.8,81.2c1.3,0,2.3-0.6,2.9-1.8s1-2.9,1-5.2s-0.3-4-1-5.2
		s-1.6-1.8-2.9-1.8s-2.3,0.6-2.9,1.8s-1,2.9-1,5.2s0.3,4,1,5.2S363.5,81.2,364.8,81.2z"/>
</g>
<g class="st3">
	<path class="st1" d="M378.4,82.6V65.7h6.1c2,0,3.4,0.4,4.4,1.2s1.5,2,1.5,3.5c0,1.5-0.5,2.6-1.5,3.5s-2.5,1.2-4.5,1.2h-3.9v7.5
		H378.4z M380.5,73.4h4c1.2,0,2.1-0.3,2.8-0.8s1-1.2,1-2.1c0-0.8-0.3-1.5-0.9-2.1s-1.5-0.9-2.9-0.9h-4V73.4z"/>
</g>
<g class="st3">
	<path class="st1" d="M396.7,82.9c-0.8,0-1.6-0.2-2.2-0.5s-1.1-0.8-1.4-1.3s-0.5-1.2-0.5-1.9c0-0.8,0.2-1.5,0.7-2.1s1.1-1.2,2.1-1.5
		s2.1-0.6,3.6-0.6h2.1l-0.2,0.2v-0.7c0-1-0.2-1.8-0.6-2.3s-1.1-0.8-2-0.8c-0.9,0-1.6,0.2-2.1,0.7s-0.7,1.1-0.8,1.9l-2.2-0.5
		c0.1-0.7,0.3-1.3,0.8-1.9s1.1-1,1.8-1.3s1.6-0.5,2.6-0.5c1,0,1.9,0.2,2.5,0.6s1.1,0.9,1.4,1.7s0.5,1.6,0.5,2.6v5.8
		c0,0.3,0,0.4,0.1,0.5s0.2,0.1,0.5,0.1h0.7v1.6h-1.3c-0.5,0-1-0.2-1.3-0.5s-0.5-0.8-0.5-1.3V80h0.3c-0.1,0.3-0.3,0.7-0.5,1
		s-0.5,0.7-0.9,0.9s-0.8,0.5-1.3,0.7S397.3,82.9,396.7,82.9z M397.1,81.3c0.6,0,1.2-0.2,1.8-0.5s1-0.8,1.3-1.5s0.5-1.6,0.5-2.7v-0.1
		h-2c-1,0-1.9,0.1-2.5,0.4s-1,0.6-1.3,1s-0.4,0.8-0.4,1.2s0.1,0.8,0.3,1.1s0.4,0.6,0.8,0.8S396.6,81.3,397.1,81.3z"/>
</g>
<g>
	<line class="st0" x1="738" y1="522" x2="738" y2="7.2"/>
	<path class="st1" d="M752.4,27.7c-0.7,0.5-1.6,0.2-2.1-0.5L738,7.9l-12.3,19.4c-0.5,0.7-1.4,0.9-2.1,0.5s-0.9-1.4-0.5-2.1
		l13.6-21.3c0.3-0.4,0.8-0.7,1.3-0.7s1,0.3,1.3,0.7l13.6,21.3c0.2,0.2,0.2,0.5,0.2,0.8C753.1,26.9,752.8,27.4,752.4,27.7L752.4,27.7
		z"/>
</g>
<line class="st2" x1="709.2" y1="507.6" x2="738" y2="507.6"/>
<line class="st2" x1="709.2" y1="435.6" x2="738" y2="435.6"/>
<line class="st2" x1="709.2" y1="363.6" x2="738" y2="363.6"/>
<line class="st2" x1="709.2" y1="291.6" x2="738" y2="291.6"/>
<line class="st2" x1="709.2" y1="219.6" x2="738" y2="219.6"/>
<line class="st2" x1="709.2" y1="147.6" x2="738" y2="147.6"/>
<line class="st2" x1="709.2" y1="75.6" x2="738" y2="75.6"/>
<g class="st3">
	<path class="st1" d="M653.5,514.9c-2,0-3.5-0.8-4.5-2.3s-1.6-3.7-1.6-6.4s0.5-4.9,1.6-6.4s2.6-2.3,4.5-2.3c2,0,3.5,0.8,4.6,2.3
		s1.6,3.7,1.6,6.4s-0.5,4.9-1.6,6.4S655.4,514.9,653.5,514.9z M653.5,513.2c1.3,0,2.3-0.6,2.9-1.8s1-2.9,1-5.2s-0.3-4-1-5.2
		s-1.6-1.8-2.9-1.8s-2.3,0.6-2.9,1.8s-1,2.9-1,5.2s0.3,4,1,5.2S652.2,513.2,653.5,513.2z"/>
	<path class="st1" d="M673.1,514.9c-1,0-1.9-0.3-2.7-0.8s-1.4-1.3-1.8-2.3s-0.7-2.2-0.7-3.5s0.2-2.5,0.7-3.5s1.1-1.8,1.8-2.3
		s1.7-0.8,2.7-0.8c0.8,0,1.6,0.2,2.5,0.6s1.4,1.1,1.8,2.1l-0.2,0.1V497h2v17.6h-1.9V512l0.1,0.2c-0.3,0.9-0.9,1.6-1.7,2.1
		S674,514.9,673.1,514.9z M673.6,513.3c0.7,0,1.3-0.2,1.8-0.5s1-0.9,1.3-1.6s0.5-1.7,0.5-2.8c0-1.7-0.4-3-1.1-3.8s-1.6-1.2-2.5-1.2
		c-1,0-1.9,0.4-2.6,1.3s-1,2.1-1,3.7c0,1.6,0.3,2.8,1,3.6S672.5,513.3,673.6,513.3z"/>
	<path class="st1" d="M683,514.6v-16.9h6.4c1.6,0,3,0.3,4,1s1.5,1.7,1.5,3c0,0.8-0.2,1.5-0.5,2s-0.8,0.9-1.4,1.2s-1.1,0.5-1.7,0.5
		l0,0c1.2,0.2,2.2,0.7,3,1.5s1.2,1.8,1.2,3.2c0,1.1-0.3,2-0.8,2.7s-1.2,1.1-2.1,1.4s-1.8,0.4-2.8,0.4H683z M685.1,504.6h4.2
		c0.9,0,1.7-0.2,2.4-0.6s1-1.1,1-2c0-0.7-0.3-1.3-0.8-1.8s-1.3-0.7-2.5-0.7h-4.3V504.6z M685.1,512.9h4.7c0.9,0,1.6-0.2,2.1-0.5
		s0.9-0.7,1.1-1.2s0.3-1,0.3-1.5c0-0.8-0.2-1.4-0.5-1.9s-0.8-0.9-1.5-1.1s-1.4-0.4-2.3-0.4h-4V512.9z"/>
</g>
<g class="st3">
	<path class="st1" d="M633.5,442.6v-1.4l5.9-5c0.8-0.7,1.5-1.3,2-1.9s0.9-1.1,1.1-1.7s0.4-1.2,0.4-1.9c0-0.8-0.1-1.4-0.4-2
		s-0.7-0.9-1.2-1.2s-1.1-0.4-1.9-0.4c-0.8,0-1.5,0.2-2,0.5s-0.9,0.8-1.2,1.3s-0.4,1.2-0.5,1.9l-2.2-0.7c0-0.8,0.3-1.5,0.8-2.2
		s1.2-1.3,2-1.8s1.9-0.7,3-0.7c0.7,0,1.3,0.1,2,0.3s1.3,0.5,1.8,0.9s1,0.9,1.3,1.6s0.5,1.5,0.5,2.4c0,1.3-0.4,2.5-1.1,3.6
		s-1.7,2.1-3,3.2l-4.6,3.7l-1.5-0.3h10.5v1.8H633.5z"/>
	<path class="st1" d="M653.9,442.9c-2,0-3.5-0.8-4.5-2.3s-1.6-3.7-1.6-6.4s0.5-4.9,1.6-6.4s2.6-2.3,4.5-2.3c2,0,3.5,0.8,4.6,2.3
		s1.6,3.7,1.6,6.4s-0.5,4.9-1.6,6.4S655.9,442.9,653.9,442.9z M653.9,441.2c1.3,0,2.3-0.6,2.9-1.8s1-2.9,1-5.2s-0.3-4-1-5.2
		s-1.6-1.8-2.9-1.8s-2.3,0.6-2.9,1.8s-1,2.9-1,5.2s0.3,4,1,5.2S652.6,441.2,653.9,441.2z"/>
	<path class="st1" d="M673.5,442.9c-1,0-1.9-0.3-2.7-0.8s-1.4-1.3-1.8-2.3s-0.7-2.2-0.7-3.5s0.2-2.5,0.7-3.5s1.1-1.8,1.8-2.3
		s1.7-0.8,2.7-0.8c0.8,0,1.6,0.2,2.5,0.6s1.4,1.1,1.8,2.1l-0.2,0.1V425h2v17.6h-1.9V440l0.1,0.2c-0.3,0.9-0.9,1.6-1.7,2.1
		S674.4,442.9,673.5,442.9z M674,441.3c0.7,0,1.3-0.2,1.8-0.5s1-0.9,1.3-1.6s0.5-1.7,0.5-2.8c0-1.7-0.4-3-1.1-3.8s-1.6-1.2-2.5-1.2
		c-1,0-1.9,0.4-2.6,1.3s-1,2.1-1,3.7c0,1.6,0.3,2.8,1,3.6S673,441.3,674,441.3z"/>
	<path class="st1" d="M683.4,442.6v-16.9h6.4c1.6,0,3,0.3,4,1s1.5,1.7,1.5,3c0,0.8-0.2,1.5-0.5,2s-0.8,0.9-1.4,1.2s-1.1,0.5-1.7,0.5
		l0,0c1.2,0.2,2.2,0.7,3,1.5s1.2,1.8,1.2,3.2c0,1.1-0.3,2-0.8,2.7s-1.2,1.1-2.1,1.4s-1.8,0.4-2.8,0.4H683.4z M685.5,432.6h4.2
		c0.9,0,1.7-0.2,2.4-0.6s1-1.1,1-2c0-0.7-0.3-1.3-0.8-1.8s-1.3-0.7-2.5-0.7h-4.3V432.6z M685.5,440.9h4.7c0.9,0,1.6-0.2,2.1-0.5
		s0.9-0.7,1.1-1.2s0.3-1,0.3-1.5c0-0.8-0.2-1.4-0.5-1.9s-0.8-0.9-1.5-1.1s-1.4-0.4-2.3-0.4h-4V440.9z"/>
</g>
<g class="st3">
	<path class="st1" d="M642,370.6V365h0v-10l0.5,1.1l-7.5,8.9l-0.7-0.6H646v1.8h-12.6v-2l8.9-10.5h1.7v16.9H642z"/>
	<path class="st1" d="M654.1,370.9c-2,0-3.5-0.8-4.5-2.3s-1.6-3.7-1.6-6.4s0.5-4.9,1.6-6.4s2.6-2.3,4.5-2.3c2,0,3.5,0.8,4.6,2.3
		s1.6,3.7,1.6,6.4s-0.5,4.9-1.6,6.4S656.1,370.9,654.1,370.9z M654.1,369.2c1.3,0,2.3-0.6,2.9-1.8s1-2.9,1-5.2s-0.3-4-1-5.2
		s-1.6-1.8-2.9-1.8s-2.3,0.6-2.9,1.8s-1,2.9-1,5.2s0.3,4,1,5.2S652.9,369.2,654.1,369.2z"/>
	<path class="st1" d="M673.8,370.9c-1,0-1.9-0.3-2.7-0.8s-1.4-1.3-1.8-2.3s-0.7-2.2-0.7-3.5s0.2-2.5,0.7-3.5s1.1-1.8,1.8-2.3
		s1.7-0.8,2.7-0.8c0.8,0,1.6,0.2,2.5,0.6s1.4,1.1,1.8,2.1l-0.2,0.1V353h2v17.6H678V368l0.1,0.2c-0.3,0.9-0.9,1.6-1.7,2.1
		S674.7,370.9,673.8,370.9z M674.3,369.3c0.7,0,1.3-0.2,1.8-0.5s1-0.9,1.3-1.6s0.5-1.7,0.5-2.8c0-1.7-0.4-3-1.1-3.8
		s-1.6-1.2-2.5-1.2c-1,0-1.9,0.4-2.6,1.3s-1,2.1-1,3.7c0,1.6,0.3,2.8,1,3.6S673.2,369.3,674.3,369.3z"/>
	<path class="st1" d="M683.6,370.6v-16.9h6.4c1.6,0,3,0.3,4,1s1.5,1.7,1.5,3c0,0.8-0.2,1.5-0.5,2s-0.8,0.9-1.4,1.2s-1.1,0.5-1.7,0.5
		l0,0c1.2,0.2,2.2,0.7,3,1.5s1.2,1.8,1.2,3.2c0,1.1-0.3,2-0.8,2.7s-1.2,1.1-2.1,1.4s-1.8,0.4-2.8,0.4H683.6z M685.8,360.6h4.2
		c0.9,0,1.7-0.2,2.4-0.6s1-1.1,1-2c0-0.7-0.3-1.3-0.8-1.8s-1.3-0.7-2.5-0.7h-4.3V360.6z M685.8,368.9h4.7c0.9,0,1.6-0.2,2.1-0.5
		s0.9-0.7,1.1-1.2s0.3-1,0.3-1.5c0-0.8-0.2-1.4-0.5-1.9s-0.8-0.9-1.5-1.1s-1.4-0.4-2.3-0.4h-4V368.9z"/>
</g>
<g class="st3">
	<path class="st1" d="M640.1,298.9c-2,0-3.6-0.8-4.7-2.2s-1.6-3.5-1.6-6.1c0-1.3,0.1-2.4,0.4-3.5s0.7-2.1,1.2-2.9s1.2-1.5,2-1.9
		s1.7-0.7,2.8-0.7c1.1,0,2.1,0.2,2.9,0.7s1.5,1,1.9,1.7s0.7,1.4,0.8,2.1l-2.1,0.6c0-1-0.4-1.8-1-2.4s-1.4-0.9-2.5-0.9
		c-0.8,0-1.4,0.2-2,0.5s-0.9,0.8-1.3,1.4s-0.6,1.2-0.7,1.8s-0.3,1.3-0.3,2s-0.1,1.2-0.1,1.8l-0.2-0.2c0.3-0.8,0.9-1.4,1.6-2
		s1.8-0.9,3-0.9c1,0,1.9,0.2,2.7,0.7s1.5,1.1,2,1.9s0.8,1.9,0.8,3.1c0,1.2-0.2,2.2-0.7,3s-1.1,1.5-2,2S641.2,298.9,640.1,298.9z
		 M640.1,297.2c1.1,0,2-0.4,2.7-1.1s0.9-1.7,0.9-3c0-1.3-0.3-2.2-0.9-2.9s-1.5-1-2.6-1c-1.1,0-2.1,0.4-2.8,1.1s-1,1.7-1,3
		c0,1.2,0.3,2.2,1,2.9S638.9,297.2,640.1,297.2z"/>
	<path class="st1" d="M654.8,298.9c-2,0-3.5-0.8-4.5-2.3s-1.6-3.7-1.6-6.4s0.5-4.9,1.6-6.4s2.6-2.3,4.5-2.3c2,0,3.5,0.8,4.6,2.3
		s1.6,3.7,1.6,6.4s-0.5,4.9-1.6,6.4S656.8,298.9,654.8,298.9z M654.8,297.2c1.3,0,2.3-0.6,2.9-1.8s1-2.9,1-5.2s-0.3-4-1-5.2
		s-1.6-1.8-2.9-1.8s-2.3,0.6-2.9,1.8s-1,2.9-1,5.2s0.3,4,1,5.2S653.5,297.2,654.8,297.2z"/>
	<path class="st1" d="M674.4,298.9c-1,0-1.9-0.3-2.7-0.8s-1.4-1.3-1.8-2.3s-0.7-2.2-0.7-3.5s0.2-2.5,0.7-3.5s1.1-1.8,1.8-2.3
		s1.7-0.8,2.7-0.8c0.8,0,1.6,0.2,2.5,0.6s1.4,1.1,1.8,2.1l-0.2,0.1V281h2v17.6h-1.9V296l0.1,0.2c-0.3,0.9-0.9,1.6-1.7,2.1
		S675.3,298.9,674.4,298.9z M674.9,297.3c0.7,0,1.3-0.2,1.8-0.5s1-0.9,1.3-1.6s0.5-1.7,0.5-2.8c0-1.7-0.4-3-1.1-3.8
		s-1.6-1.2-2.5-1.2c-1,0-1.9,0.4-2.6,1.3s-1,2.1-1,3.7c0,1.6,0.3,2.8,1,3.6S673.9,297.3,674.9,297.3z"/>
	<path class="st1" d="M684.3,298.6v-16.9h6.4c1.6,0,3,0.3,4,1s1.5,1.7,1.5,3c0,0.8-0.2,1.5-0.5,2s-0.8,0.9-1.4,1.2s-1.1,0.5-1.7,0.5
		l0,0c1.2,0.2,2.2,0.7,3,1.5s1.2,1.8,1.2,3.2c0,1.1-0.3,2-0.8,2.7s-1.2,1.1-2.1,1.4s-1.8,0.4-2.8,0.4H684.3z M686.4,288.6h4.2
		c0.9,0,1.7-0.2,2.4-0.6s1-1.1,1-2c0-0.7-0.3-1.3-0.8-1.8s-1.3-0.7-2.5-0.7h-4.3V288.6z M686.4,296.9h4.7c0.9,0,1.6-0.2,2.1-0.5
		s0.9-0.7,1.1-1.2s0.3-1,0.3-1.5c0-0.8-0.2-1.4-0.5-1.9s-0.8-0.9-1.5-1.1s-1.4-0.4-2.3-0.4h-4V296.9z"/>
</g>
<g class="st3">
	<path class="st1" d="M639.6,226.9c-1.2,0-2.2-0.2-3.1-0.6s-1.6-1-2.1-1.8s-0.8-1.6-0.8-2.6c0-1.1,0.3-2,1-2.9s1.6-1.4,2.8-1.6
		c-0.6-0.2-1.2-0.4-1.7-0.7s-0.9-0.7-1.1-1.2s-0.4-1-0.4-1.6c0-0.8,0.2-1.6,0.7-2.2s1.1-1.2,1.9-1.5s1.7-0.6,2.8-0.6
		c1.1,0,2,0.2,2.8,0.6s1.4,0.9,1.9,1.5s0.7,1.4,0.7,2.2c0,0.6-0.1,1.1-0.4,1.6s-0.6,0.9-1.1,1.2s-1,0.6-1.7,0.7
		c1.2,0.2,2.2,0.8,2.8,1.6s1,1.8,1,2.9c0,1-0.3,1.9-0.8,2.6s-1.2,1.4-2.1,1.8S640.8,226.9,639.6,226.9z M639.6,225
		c1.2,0,2.1-0.3,2.8-0.9s1-1.4,1-2.5c0-1-0.3-1.8-1-2.5s-1.6-0.9-2.8-0.9c-1.2,0-2.1,0.3-2.8,0.9s-1,1.4-1,2.5c0,1.1,0.3,1.9,1,2.5
		S638.5,225,639.6,225z M639.6,216.6c1,0,1.8-0.2,2.4-0.7s0.9-1.1,0.9-1.9c0-0.9-0.3-1.5-0.9-2s-1.4-0.8-2.4-0.8s-1.8,0.3-2.4,0.8
		s-0.9,1.2-0.9,2c0,0.8,0.3,1.5,0.9,1.9S638.6,216.6,639.6,216.6z"/>
	<path class="st1" d="M654.4,226.9c-2,0-3.5-0.8-4.5-2.3s-1.6-3.7-1.6-6.4s0.5-4.9,1.6-6.4s2.6-2.3,4.5-2.3c2,0,3.5,0.8,4.6,2.3
		s1.6,3.7,1.6,6.4s-0.5,4.9-1.6,6.4S656.4,226.9,654.4,226.9z M654.4,225.2c1.3,0,2.3-0.6,2.9-1.8s1-2.9,1-5.2s-0.3-4-1-5.2
		s-1.6-1.8-2.9-1.8s-2.3,0.6-2.9,1.8s-1,2.9-1,5.2s0.3,4,1,5.2S653.1,225.2,654.4,225.2z"/>
	<path class="st1" d="M674,226.9c-1,0-1.9-0.3-2.7-0.8s-1.4-1.3-1.8-2.3s-0.7-2.2-0.7-3.5s0.2-2.5,0.7-3.5s1.1-1.8,1.8-2.3
		s1.7-0.8,2.7-0.8c0.8,0,1.6,0.2,2.5,0.6s1.4,1.1,1.8,2.1l-0.2,0.1V209h2v17.6h-1.9V224l0.1,0.2c-0.3,0.9-0.9,1.6-1.7,2.1
		S674.9,226.9,674,226.9z M674.5,225.3c0.7,0,1.3-0.2,1.8-0.5s1-0.9,1.3-1.6s0.5-1.7,0.5-2.8c0-1.7-0.4-3-1.1-3.8s-1.6-1.2-2.5-1.2
		c-1,0-1.9,0.4-2.6,1.3s-1,2.1-1,3.7c0,1.6,0.3,2.8,1,3.6S673.5,225.3,674.5,225.3z"/>
	<path class="st1" d="M683.9,226.6v-16.9h6.4c1.6,0,3,0.3,4,1s1.5,1.7,1.5,3c0,0.8-0.2,1.5-0.5,2s-0.8,0.9-1.4,1.2s-1.1,0.5-1.7,0.5
		l0,0c1.2,0.2,2.2,0.7,3,1.5s1.2,1.8,1.2,3.2c0,1.1-0.3,2-0.8,2.7s-1.2,1.1-2.1,1.4s-1.8,0.4-2.8,0.4H683.9z M686,216.6h4.2
		c0.9,0,1.7-0.2,2.4-0.6s1-1.1,1-2c0-0.7-0.3-1.3-0.8-1.8s-1.3-0.7-2.5-0.7H686V216.6z M686,224.9h4.7c0.9,0,1.6-0.2,2.1-0.5
		s0.9-0.7,1.1-1.2s0.3-1,0.3-1.5c0-0.8-0.2-1.4-0.5-1.9s-0.8-0.9-1.5-1.1s-1.4-0.4-2.3-0.4h-4V224.9z"/>
</g>
<g class="st3">
	<path class="st1" d="M623.5,154.6v-13.4c-0.6,0.5-1.2,1-1.7,1.3s-1.1,0.7-1.8,0.9v-2c0.3-0.2,0.7-0.4,1.1-0.6s0.8-0.6,1.3-1.1
		s1.1-1.1,1.7-2h1.5v16.9H623.5z"/>
	<path class="st1" d="M634.8,154.9c-2,0-3.5-0.8-4.5-2.3s-1.6-3.7-1.6-6.4s0.5-4.9,1.6-6.4s2.6-2.3,4.5-2.3c2,0,3.5,0.8,4.6,2.3
		s1.6,3.7,1.6,6.4s-0.5,4.9-1.6,6.4S636.7,154.9,634.8,154.9z M634.8,153.2c1.3,0,2.3-0.6,2.9-1.8s1-2.9,1-5.2s-0.3-4-1-5.2
		s-1.6-1.8-2.9-1.8s-2.3,0.6-2.9,1.8s-1,2.9-1,5.2s0.3,4,1,5.2S633.5,153.2,634.8,153.2z"/>
	<path class="st1" d="M650,154.9c-2,0-3.5-0.8-4.5-2.3s-1.6-3.7-1.6-6.4s0.5-4.9,1.6-6.4s2.6-2.3,4.5-2.3c2,0,3.5,0.8,4.6,2.3
		s1.6,3.7,1.6,6.4s-0.5,4.9-1.6,6.4S651.9,154.9,650,154.9z M650,153.2c1.3,0,2.3-0.6,2.9-1.8s1-2.9,1-5.2s-0.3-4-1-5.2
		s-1.6-1.8-2.9-1.8s-2.3,0.6-2.9,1.8s-1,2.9-1,5.2s0.3,4,1,5.2S648.7,153.2,650,153.2z"/>
	<path class="st1" d="M669.6,154.9c-1,0-1.9-0.3-2.7-0.8s-1.4-1.3-1.8-2.3s-0.7-2.2-0.7-3.5s0.2-2.5,0.7-3.5s1.1-1.8,1.8-2.3
		s1.7-0.8,2.7-0.8c0.8,0,1.6,0.2,2.5,0.6s1.4,1.1,1.8,2.1l-0.2,0.1V137h2v17.6h-1.9V152l0.1,0.2c-0.3,0.9-0.9,1.6-1.7,2.1
		S670.5,154.9,669.6,154.9z M670.1,153.3c0.7,0,1.3-0.2,1.8-0.5s1-0.9,1.3-1.6s0.5-1.7,0.5-2.8c0-1.7-0.4-3-1.1-3.8
		s-1.6-1.2-2.5-1.2c-1,0-1.9,0.4-2.6,1.3s-1,2.1-1,3.7c0,1.6,0.3,2.8,1,3.6S669,153.3,670.1,153.3z"/>
	<path class="st1" d="M679.5,154.6v-16.9h6.4c1.6,0,3,0.3,4,1s1.5,1.7,1.5,3c0,0.8-0.2,1.5-0.5,2s-0.8,0.9-1.4,1.2s-1.1,0.5-1.7,0.5
		l0,0c1.2,0.2,2.2,0.7,3,1.5s1.2,1.8,1.2,3.2c0,1.1-0.3,2-0.8,2.7s-1.2,1.1-2.1,1.4s-1.8,0.4-2.8,0.4H679.5z M681.6,144.6h4.2
		c0.9,0,1.7-0.2,2.4-0.6s1-1.1,1-2c0-0.7-0.3-1.3-0.8-1.8s-1.3-0.7-2.5-0.7h-4.3V144.6z M681.6,152.9h4.7c0.9,0,1.6-0.2,2.1-0.5
		s0.9-0.7,1.1-1.2s0.3-1,0.3-1.5c0-0.8-0.2-1.4-0.5-1.9s-0.8-0.9-1.5-1.1s-1.4-0.4-2.3-0.4h-4V152.9z"/>
</g>
<g class="st3">
	<path class="st1" d="M623.5,82.6V69.2c-0.6,0.5-1.2,1-1.7,1.3s-1.1,0.7-1.8,0.9v-2c0.3-0.2,0.7-0.4,1.1-0.6s0.8-0.6,1.3-1.1
		s1.1-1.1,1.7-2h1.5v16.9H623.5z"/>
	<path class="st1" d="M628.3,82.6v-1.4l5.9-5c0.8-0.7,1.5-1.3,2-1.9s0.9-1.1,1.1-1.7s0.4-1.2,0.4-1.9c0-0.8-0.1-1.4-0.4-2
		s-0.7-0.9-1.2-1.2s-1.1-0.4-1.9-0.4c-0.8,0-1.5,0.2-2,0.5s-0.9,0.8-1.2,1.3s-0.4,1.2-0.5,1.9l-2.2-0.7c0-0.8,0.3-1.5,0.8-2.2
		s1.2-1.3,2-1.8s1.9-0.7,3-0.7c0.7,0,1.3,0.1,2,0.3s1.3,0.5,1.8,0.9s1,0.9,1.3,1.6s0.5,1.5,0.5,2.4c0,1.3-0.4,2.5-1.1,3.6
		s-1.7,2.1-3,3.2l-4.6,3.7l-1.5-0.3h10.5v1.8H628.3z"/>
	<path class="st1" d="M648.7,82.9c-2,0-3.5-0.8-4.5-2.3s-1.6-3.7-1.6-6.4s0.5-4.9,1.6-6.4s2.6-2.3,4.5-2.3c2,0,3.5,0.8,4.6,2.3
		s1.6,3.7,1.6,6.4s-0.5,4.9-1.6,6.4S650.7,82.9,648.7,82.9z M648.7,81.2c1.3,0,2.3-0.6,2.9-1.8s1-2.9,1-5.2s-0.3-4-1-5.2
		s-1.6-1.8-2.9-1.8s-2.3,0.6-2.9,1.8s-1,2.9-1,5.2s0.3,4,1,5.2S647.4,81.2,648.7,81.2z"/>
	<path class="st1" d="M668.3,82.9c-1,0-1.9-0.3-2.7-0.8s-1.4-1.3-1.8-2.3s-0.7-2.2-0.7-3.5s0.2-2.5,0.7-3.5s1.1-1.8,1.8-2.3
		s1.7-0.8,2.7-0.8c0.8,0,1.6,0.2,2.5,0.6s1.4,1.1,1.8,2.1l-0.2,0.1V65h2v17.6h-1.9V80l0.1,0.2c-0.3,0.9-0.9,1.6-1.7,2.1
		S669.2,82.9,668.3,82.9z M668.9,81.3c0.7,0,1.3-0.2,1.8-0.5s1-0.9,1.3-1.6s0.5-1.7,0.5-2.8c0-1.7-0.4-3-1.1-3.8s-1.6-1.2-2.5-1.2
		c-1,0-1.9,0.4-2.6,1.3s-1,2.1-1,3.7c0,1.6,0.3,2.8,1,3.6S667.8,81.3,668.9,81.3z"/>
	<path class="st1" d="M678.2,82.6V65.7h6.4c1.6,0,3,0.3,4,1s1.5,1.7,1.5,3c0,0.8-0.2,1.5-0.5,2s-0.8,0.9-1.4,1.2s-1.1,0.5-1.7,0.5
		l0,0c1.2,0.2,2.2,0.7,3,1.5s1.2,1.8,1.2,3.2c0,1.1-0.3,2-0.8,2.7s-1.2,1.1-2.1,1.4s-1.8,0.4-2.8,0.4H678.2z M680.3,72.6h4.2
		c0.9,0,1.7-0.2,2.4-0.6s1-1.1,1-2c0-0.7-0.3-1.3-0.8-1.8s-1.3-0.7-2.5-0.7h-4.3V72.6z M680.3,80.9h4.7c0.9,0,1.6-0.2,2.1-0.5
		s0.9-0.7,1.1-1.2s0.3-1,0.3-1.5c0-0.8-0.2-1.4-0.5-1.9s-0.8-0.9-1.5-1.1s-1.4-0.4-2.3-0.4h-4V80.9z"/>
</g>
<g class="st3">
	<path class="st4" d="M194.7,514.3c0,1.3-0.2,2.4-0.7,3.4s-1.1,1.7-1.9,2.3s-1.8,1-3,1.2l-0.5-2.5c1.4-0.1,2.4-0.5,3.2-1.2
		s1.1-1.8,1.1-3.1c0-0.8-0.1-1.5-0.4-2.1s-0.6-1-1.1-1.3s-1.1-0.5-1.7-0.5c-0.9,0-1.5,0.3-2,0.8s-0.7,1.2-0.9,2.1l-0.5,2.2
		c-0.1,0.4-0.2,0.9-0.4,1.4s-0.4,1.1-0.7,1.6s-0.8,0.9-1.3,1.2s-1.2,0.5-2.1,0.5c-1.1,0-2-0.3-2.6-0.8s-1.2-1.3-1.5-2.2
		s-0.5-1.8-0.5-2.9c0-1.2,0.2-2.2,0.6-3s0.9-1.5,1.6-2s1.5-0.9,2.4-1l0.5,2.5c-0.7,0.1-1.3,0.2-1.8,0.5s-0.9,0.7-1.1,1.2
		s-0.4,1.2-0.4,2c0,0.6,0.1,1.2,0.3,1.8s0.5,1,0.9,1.3s0.9,0.5,1.6,0.5c0.7,0,1.2-0.2,1.6-0.7s0.7-1.2,1-2.3l0.5-2.2
		c0.2-0.8,0.4-1.5,0.8-2.2s0.9-1.3,1.5-1.7s1.5-0.7,2.5-0.7s2,0.2,2.7,0.7s1.3,1.2,1.7,2.1S194.7,513.1,194.7,514.3z"/>
	<path class="st4" d="M194.7,499.7c0,1.2-0.3,2.2-0.8,3.1s-1.3,1.6-2.3,2.1s-2.1,0.8-3.4,0.8s-2.5-0.3-3.4-0.8s-1.8-1.2-2.3-2.1
		s-0.8-2-0.8-3.1s0.3-2.2,0.8-3.1s1.3-1.6,2.3-2.1s2.1-0.8,3.4-0.8s2.5,0.3,3.4,0.8s1.8,1.2,2.3,2.1S194.7,498.5,194.7,499.7z
		 M193,499.7c0-1.2-0.4-2.1-1.3-2.8s-2.1-1-3.6-1c-1.5,0-2.8,0.3-3.6,1s-1.3,1.6-1.3,2.8s0.4,2.1,1.3,2.8s2.1,1,3.6,1
		c1.5,0,2.7-0.3,3.6-1S193,500.9,193,499.7z"/>
	<path class="st4" d="M194.7,486.6c0,0.9-0.2,1.6-0.6,2.3s-1,1.1-1.7,1.5s-1.6,0.5-2.7,0.5h-8v-2h7.8c1,0,1.9-0.2,2.5-0.6
		s1-1.1,1-2.1c0-0.8-0.2-1.4-0.6-2s-1-1-1.8-1.3s-1.8-0.5-2.9-0.5h-6v-2h12.7v1.9h-3l0.5-0.1c0.8,0.3,1.4,0.9,2,1.6
		S194.7,485.5,194.7,486.6z"/>
	<path class="st4" d="M194.4,476.7h-12.7v-1.9h2.9l-0.5,0.1c-0.7-0.3-1.3-0.9-1.9-1.6s-0.8-1.6-0.8-2.6c0-0.9,0.2-1.7,0.6-2.3
		s1-1.1,1.7-1.5s1.6-0.5,2.7-0.5h8v2h-7.8c-1,0-1.9,0.2-2.5,0.6s-1,1.1-1,2.1c0,1.1,0.4,1.9,1.2,2.6s2,1,3.5,1h6.6V476.7z"/>
	<path class="st4" d="M194.7,458.2c0,1-0.3,1.9-0.8,2.7s-1.3,1.4-2.3,1.8s-2.2,0.7-3.5,0.7s-2.5-0.2-3.5-0.7s-1.8-1.1-2.3-1.8
		s-0.8-1.7-0.8-2.7c0-0.8,0.2-1.6,0.6-2.5s1.1-1.4,2.1-1.8l0.1,0.2h-7.5v-2h17.6v1.9h-2.6l0.2-0.1c0.9,0.3,1.6,0.9,2.1,1.7
		S194.7,457.3,194.7,458.2z M193,457.7c0-0.7-0.2-1.3-0.5-1.8s-0.9-1-1.6-1.3s-1.7-0.5-2.8-0.5c-1.7,0-3,0.4-3.8,1.1
		s-1.2,1.6-1.2,2.5c0,1,0.4,1.9,1.3,2.6s2.1,1,3.7,1c1.6,0,2.8-0.3,3.6-1S193,458.8,193,457.7z"/>
	<path class="st4" d="M199,442.3h-17.2v-1.9h2.6l-0.2,0.1c-0.9-0.3-1.6-0.9-2.1-1.7s-0.7-1.6-0.7-2.5c0-1,0.3-1.9,0.8-2.7
		s1.3-1.4,2.3-1.8s2.2-0.7,3.5-0.7s2.5,0.2,3.5,0.7s1.8,1.1,2.3,1.8s0.8,1.7,0.8,2.7c0,0.8-0.2,1.6-0.6,2.5s-1.1,1.4-2.1,1.8
		l-0.1-0.2h7.1V442.3z M193,436.8c0-1-0.4-1.9-1.3-2.6s-2.1-1-3.7-1c-1.6,0-2.8,0.3-3.6,1s-1.3,1.5-1.3,2.6c0,0.7,0.2,1.3,0.5,1.8
		s0.9,1,1.6,1.3s1.7,0.5,2.8,0.5c1.7,0,3-0.4,3.8-1.1S193,437.8,193,436.8z"/>
	<path class="st4" d="M194.7,422.2c0,1.2-0.3,2.2-0.8,3.1s-1.3,1.6-2.3,2.1s-2.1,0.8-3.4,0.8s-2.5-0.3-3.4-0.8s-1.8-1.2-2.3-2.1
		s-0.8-2-0.8-3.1s0.3-2.2,0.8-3.1s1.3-1.6,2.3-2.1s2.1-0.8,3.4-0.8s2.5,0.3,3.4,0.8s1.8,1.2,2.3,2.1S194.7,421,194.7,422.2z
		 M193,422.2c0-1.2-0.4-2.1-1.3-2.8s-2.1-1-3.6-1c-1.5,0-2.8,0.3-3.6,1s-1.3,1.6-1.3,2.8s0.4,2.1,1.3,2.8s2.1,1,3.6,1
		c1.5,0,2.7-0.3,3.6-1S193,423.4,193,422.2z"/>
	<path class="st4" d="M194.4,411l-12.7,3.5v-2.1l11.7-3v0.4l-11.7-3v-2.5l11.8-3.1v0.4l-11.8-3v-2.1l12.7,3.5v2.8l-11.3,2.9v-0.4
		l11.3,2.9V411z"/>
	<path class="st4" d="M194.7,389c0,1.2-0.3,2.2-0.8,3.1s-1.3,1.6-2.3,2s-2.2,0.7-3.5,0.7c-1.4,0-2.5-0.2-3.5-0.7s-1.8-1.1-2.3-2
		s-0.8-1.9-0.8-3.1c0-0.7,0.1-1.3,0.3-2s0.6-1.3,1.1-1.9s1.2-1,2.2-1.3s2.1-0.5,3.5-0.5v10.3h-1.6V385l0.7,0.6c-1.1,0-2,0.2-2.7,0.5
		s-1.2,0.7-1.5,1.2s-0.5,1.1-0.5,1.7c0,0.7,0.2,1.4,0.6,1.9s1,1,1.7,1.2s1.6,0.4,2.7,0.4c1.6,0,2.8-0.3,3.7-1s1.3-1.6,1.3-2.7
		c0-0.9-0.2-1.6-0.6-2.2s-1.1-1-1.9-1.3l0.7-1.9c0.7,0.3,1.4,0.7,1.9,1.2s0.9,1.1,1.2,1.8S194.7,388.1,194.7,389z"/>
	<path class="st4" d="M194.4,380.3h-12.7v-1.9h2.7l-0.3,0.1c-0.9-0.4-1.5-0.9-2-1.7s-0.7-1.5-0.7-2.3c0-0.2,0-0.4,0.1-0.7
		s0.1-0.4,0.2-0.6l1.9,0.3c-0.1,0.4-0.2,0.9-0.2,1.3c0,0.3,0.1,0.6,0.2,1s0.3,0.8,0.6,1.2s0.8,0.7,1.4,1s1.5,0.4,2.5,0.4h6.3V380.3z
		"/>
</g>
<g class="st3">
	<path class="st4" d="M482.7,514.3c0,1.3-0.2,2.4-0.7,3.4s-1.1,1.7-1.9,2.3s-1.8,1-3,1.2l-0.5-2.5c1.4-0.1,2.4-0.5,3.2-1.2
		s1.1-1.8,1.1-3.1c0-0.8-0.1-1.5-0.4-2.1s-0.6-1-1.1-1.3s-1.1-0.5-1.7-0.5c-0.9,0-1.5,0.3-2,0.8s-0.7,1.2-0.9,2.1l-0.5,2.2
		c-0.1,0.4-0.2,0.9-0.4,1.4s-0.4,1.1-0.7,1.6s-0.8,0.9-1.3,1.2s-1.2,0.5-2.1,0.5c-1.1,0-2-0.3-2.6-0.8s-1.2-1.3-1.5-2.2
		s-0.5-1.8-0.5-2.9c0-1.2,0.2-2.2,0.6-3s0.9-1.5,1.6-2s1.5-0.9,2.4-1l0.5,2.5c-0.7,0.1-1.3,0.2-1.8,0.5s-0.9,0.7-1.1,1.2
		s-0.4,1.2-0.4,2c0,0.6,0.1,1.2,0.3,1.8s0.5,1,0.9,1.3s0.9,0.5,1.6,0.5c0.7,0,1.2-0.2,1.6-0.7s0.7-1.2,1-2.3l0.5-2.2
		c0.2-0.8,0.4-1.5,0.8-2.2s0.9-1.3,1.5-1.7s1.5-0.7,2.5-0.7s2,0.2,2.7,0.7s1.3,1.2,1.7,2.1S482.7,513.1,482.7,514.3z"/>
	<path class="st4" d="M482.7,499.7c0,1.2-0.3,2.2-0.8,3.1s-1.3,1.6-2.3,2.1s-2.1,0.8-3.4,0.8s-2.5-0.3-3.4-0.8s-1.8-1.2-2.3-2.1
		s-0.8-2-0.8-3.1s0.3-2.2,0.8-3.1s1.3-1.6,2.3-2.1s2.1-0.8,3.4-0.8s2.5,0.3,3.4,0.8s1.8,1.2,2.3,2.1S482.7,498.5,482.7,499.7z
		 M481,499.7c0-1.2-0.4-2.1-1.3-2.8s-2.1-1-3.6-1c-1.5,0-2.8,0.3-3.6,1s-1.3,1.6-1.3,2.8s0.4,2.1,1.3,2.8s2.1,1,3.6,1
		c1.5,0,2.7-0.3,3.6-1S481,500.9,481,499.7z"/>
	<path class="st4" d="M482.7,486.6c0,0.9-0.2,1.6-0.6,2.3s-1,1.1-1.7,1.5s-1.6,0.5-2.7,0.5h-8v-2h7.8c1,0,1.9-0.2,2.5-0.6
		s1-1.1,1-2.1c0-0.8-0.2-1.4-0.6-2s-1-1-1.8-1.3s-1.8-0.5-2.9-0.5h-6v-2h12.7v1.9h-3l0.5-0.1c0.8,0.3,1.4,0.9,2,1.6
		S482.7,485.5,482.7,486.6z"/>
	<path class="st4" d="M482.4,476.7h-12.7v-1.9h2.9l-0.5,0.1c-0.7-0.3-1.3-0.9-1.9-1.6s-0.8-1.6-0.8-2.6c0-0.9,0.2-1.7,0.6-2.3
		s1-1.1,1.7-1.5s1.6-0.5,2.7-0.5h8v2h-7.8c-1,0-1.9,0.2-2.5,0.6s-1,1.1-1,2.1c0,1.1,0.4,1.9,1.2,2.6s2,1,3.5,1h6.6V476.7z"/>
	<path class="st4" d="M482.7,458.2c0,1-0.3,1.9-0.8,2.7s-1.3,1.4-2.3,1.8s-2.2,0.7-3.5,0.7s-2.5-0.2-3.5-0.7s-1.8-1.1-2.3-1.8
		s-0.8-1.7-0.8-2.7c0-0.8,0.2-1.6,0.6-2.5s1.1-1.4,2.1-1.8l0.1,0.2h-7.5v-2h17.6v1.9h-2.6l0.2-0.1c0.9,0.3,1.6,0.9,2.1,1.7
		S482.7,457.3,482.7,458.2z M481,457.7c0-0.7-0.2-1.3-0.5-1.8s-0.9-1-1.6-1.3s-1.7-0.5-2.8-0.5c-1.7,0-3,0.4-3.8,1.1
		s-1.2,1.6-1.2,2.5c0,1,0.4,1.9,1.3,2.6s2.1,1,3.7,1c1.6,0,2.8-0.3,3.6-1S481,458.8,481,457.7z"/>
	<path class="st4" d="M487,442.3h-17.2v-1.9h2.6l-0.2,0.1c-0.9-0.3-1.6-0.9-2.1-1.7s-0.7-1.6-0.7-2.5c0-1,0.3-1.9,0.8-2.7
		s1.3-1.4,2.3-1.8s2.2-0.7,3.5-0.7s2.5,0.2,3.5,0.7s1.8,1.1,2.3,1.8s0.8,1.7,0.8,2.7c0,0.8-0.2,1.6-0.6,2.5s-1.1,1.4-2.1,1.8
		l-0.1-0.2h7.1V442.3z M481,436.8c0-1-0.4-1.9-1.3-2.6s-2.1-1-3.7-1c-1.6,0-2.8,0.3-3.6,1s-1.3,1.5-1.3,2.6c0,0.7,0.2,1.3,0.5,1.8
		s0.9,1,1.6,1.3s1.7,0.5,2.8,0.5c1.7,0,3-0.4,3.8-1.1S481,437.8,481,436.8z"/>
</g>
<g class="st3">
	<path class="st4" d="M482.4,432.8h-12.7v-1.9h2.7l-0.3,0.1c-0.9-0.4-1.5-0.9-2-1.7s-0.7-1.5-0.7-2.3c0-0.2,0-0.4,0.1-0.7
		s0.1-0.4,0.2-0.6l1.9,0.3c-0.1,0.4-0.2,0.9-0.2,1.3c0,0.3,0.1,0.6,0.2,1s0.3,0.8,0.6,1.2s0.8,0.7,1.4,1s1.5,0.4,2.5,0.4h6.3V432.8z
		"/>
</g>
<g class="st3">
	<path class="st4" d="M482.7,419.7c0,1.2-0.3,2.2-0.8,3.1s-1.3,1.6-2.3,2s-2.2,0.7-3.5,0.7c-1.4,0-2.5-0.2-3.5-0.7s-1.8-1.1-2.3-2
		s-0.8-1.9-0.8-3.1c0-0.7,0.1-1.3,0.3-2s0.6-1.3,1.1-1.9s1.2-1,2.2-1.3s2.1-0.5,3.5-0.5v10.3h-1.6v-8.5l0.7,0.6
		c-1.1,0-2,0.2-2.7,0.5s-1.2,0.7-1.5,1.2s-0.5,1.1-0.5,1.7c0,0.7,0.2,1.4,0.6,1.9s1,1,1.7,1.2s1.6,0.4,2.7,0.4c1.6,0,2.8-0.3,3.7-1
		s1.3-1.6,1.3-2.7c0-0.9-0.2-1.6-0.6-2.2s-1.1-1-1.9-1.3l0.7-1.9c0.7,0.3,1.4,0.7,1.9,1.2s0.9,1.1,1.2,1.8S482.7,418.9,482.7,419.7z
		"/>
	<path class="st4" d="M482.7,406.8c0,0.9-0.2,1.7-0.5,2.5s-0.8,1.4-1.4,1.9s-1.4,0.8-2.3,1l-0.4-2.1c1-0.1,1.7-0.4,2.2-1
		s0.7-1.3,0.7-2.2c0-0.9-0.2-1.6-0.7-2.1s-1-0.8-1.6-0.8c-0.5,0-1,0.2-1.3,0.6s-0.5,0.9-0.7,1.6l-0.3,1.5c-0.1,0.4-0.2,0.8-0.3,1.3
		s-0.3,0.9-0.6,1.2s-0.6,0.7-1,0.9s-0.9,0.4-1.5,0.4c-0.8,0-1.5-0.2-2-0.7s-0.9-1-1.2-1.7s-0.4-1.5-0.4-2.3c0-0.9,0.1-1.7,0.4-2.4
		s0.7-1.2,1.2-1.6s1.2-0.7,1.9-0.8l0.4,2.2c-0.5,0.1-0.9,0.2-1.2,0.4s-0.6,0.5-0.8,0.9s-0.3,0.9-0.3,1.5c0,0.7,0.2,1.4,0.5,1.9
		s0.8,0.8,1.4,0.8c0.3,0,0.6-0.1,0.9-0.3s0.4-0.4,0.6-0.8s0.3-0.8,0.4-1.3l0.3-1.6c0.1-0.7,0.3-1.3,0.6-1.8s0.6-1,1.1-1.3
		s1.1-0.5,1.8-0.5c0.8,0,1.6,0.2,2.2,0.6s1.1,1,1.4,1.7S482.7,405.8,482.7,406.8z"/>
	<path class="st4" d="M482.7,394.3c0,0.9-0.2,1.7-0.5,2.5s-0.8,1.4-1.4,1.9s-1.4,0.8-2.3,1l-0.4-2.1c1-0.1,1.7-0.4,2.2-1
		s0.7-1.3,0.7-2.2c0-0.9-0.2-1.6-0.7-2.1s-1-0.8-1.6-0.8c-0.5,0-1,0.2-1.3,0.6s-0.5,0.9-0.7,1.6l-0.3,1.5c-0.1,0.4-0.2,0.8-0.3,1.3
		s-0.3,0.9-0.6,1.2s-0.6,0.7-1,0.9s-0.9,0.4-1.5,0.4c-0.8,0-1.5-0.2-2-0.7s-0.9-1-1.2-1.7s-0.4-1.5-0.4-2.3c0-0.9,0.1-1.7,0.4-2.4
		s0.7-1.2,1.2-1.6s1.2-0.7,1.9-0.8l0.4,2.2c-0.5,0.1-0.9,0.2-1.2,0.4s-0.6,0.5-0.8,0.9s-0.3,0.9-0.3,1.5c0,0.7,0.2,1.4,0.5,1.9
		s0.8,0.8,1.4,0.8c0.3,0,0.6-0.1,0.9-0.3s0.4-0.4,0.6-0.8s0.3-0.8,0.4-1.3l0.3-1.6c0.1-0.7,0.3-1.3,0.6-1.8s0.6-1,1.1-1.3
		s1.1-0.5,1.8-0.5c0.8,0,1.6,0.2,2.2,0.6s1.1,1,1.4,1.7S482.7,393.4,482.7,394.3z"/>
	<path class="st4" d="M482.7,382.3c0,0.9-0.2,1.6-0.6,2.3s-1,1.1-1.7,1.5s-1.6,0.5-2.7,0.5h-8v-2h7.8c1,0,1.9-0.2,2.5-0.6
		s1-1.1,1-2.1c0-0.8-0.2-1.4-0.6-2s-1-1-1.8-1.3s-1.8-0.5-2.9-0.5h-6v-2h12.7v1.9h-3l0.5-0.1c0.8,0.3,1.4,0.9,2,1.6
		S482.7,381.2,482.7,382.3z"/>
</g>
<g class="st3">
	<path class="st4" d="M482.4,374.2h-12.7v-1.9h2.7l-0.3,0.1c-0.9-0.4-1.5-0.9-2-1.7s-0.7-1.5-0.7-2.3c0-0.2,0-0.4,0.1-0.7
		s0.1-0.4,0.2-0.6l1.9,0.3c-0.1,0.4-0.2,0.9-0.2,1.3c0,0.3,0.1,0.6,0.2,1s0.3,0.8,0.6,1.2s0.8,0.7,1.4,1s1.5,0.4,2.5,0.4h6.3V374.2z
		"/>
</g>
<g class="st3">
	<path class="st4" d="M482.7,361.1c0,1.2-0.3,2.2-0.8,3.1s-1.3,1.6-2.3,2s-2.2,0.7-3.5,0.7c-1.4,0-2.5-0.2-3.5-0.7s-1.8-1.1-2.3-2
		s-0.8-1.9-0.8-3.1c0-0.7,0.1-1.3,0.3-2s0.6-1.3,1.1-1.9s1.2-1,2.2-1.3s2.1-0.5,3.5-0.5v10.3h-1.6v-8.5l0.7,0.6
		c-1.1,0-2,0.2-2.7,0.5s-1.2,0.7-1.5,1.2s-0.5,1.1-0.5,1.7c0,0.7,0.2,1.4,0.6,1.9s1,1,1.7,1.2s1.6,0.4,2.7,0.4c1.6,0,2.8-0.3,3.7-1
		s1.3-1.6,1.3-2.7c0-0.9-0.2-1.6-0.6-2.2s-1.1-1-1.9-1.3l0.7-1.9c0.7,0.3,1.4,0.7,1.9,1.2s0.9,1.1,1.2,1.8S482.7,360.3,482.7,361.1z
		"/>
</g>
<g class="st3">
	<path class="st4" d="M770.7,514.3c0,1.3-0.2,2.4-0.7,3.4s-1.1,1.7-1.9,2.3s-1.8,1-3,1.2l-0.5-2.5c1.4-0.1,2.4-0.5,3.2-1.2
		s1.1-1.8,1.1-3.1c0-0.8-0.1-1.5-0.4-2.1s-0.6-1-1.1-1.3s-1.1-0.5-1.7-0.5c-0.9,0-1.5,0.3-2,0.8s-0.7,1.2-0.9,2.1l-0.5,2.2
		c-0.1,0.4-0.2,0.9-0.4,1.4s-0.4,1.1-0.7,1.6s-0.8,0.9-1.3,1.2s-1.2,0.5-2.1,0.5c-1.1,0-2-0.3-2.6-0.8s-1.2-1.3-1.5-2.2
		s-0.5-1.8-0.5-2.9c0-1.2,0.2-2.2,0.6-3s0.9-1.5,1.6-2s1.5-0.9,2.4-1l0.5,2.5c-0.7,0.1-1.3,0.2-1.8,0.5s-0.9,0.7-1.1,1.2
		s-0.4,1.2-0.4,2c0,0.6,0.1,1.2,0.3,1.8s0.5,1,0.9,1.3s0.9,0.5,1.6,0.5c0.7,0,1.2-0.2,1.6-0.7s0.7-1.2,1-2.3l0.5-2.2
		c0.2-0.8,0.4-1.5,0.8-2.2s0.9-1.3,1.5-1.7s1.5-0.7,2.5-0.7s2,0.2,2.7,0.7s1.3,1.2,1.7,2.1S770.7,513.1,770.7,514.3z"/>
	<path class="st4" d="M770.7,499.7c0,1.2-0.3,2.2-0.8,3.1s-1.3,1.6-2.3,2.1s-2.1,0.8-3.4,0.8s-2.5-0.3-3.4-0.8s-1.8-1.2-2.3-2.1
		s-0.8-2-0.8-3.1s0.3-2.2,0.8-3.1s1.3-1.6,2.3-2.1s2.1-0.8,3.4-0.8s2.5,0.3,3.4,0.8s1.8,1.2,2.3,2.1S770.7,498.5,770.7,499.7z
		 M769,499.7c0-1.2-0.4-2.1-1.3-2.8s-2.1-1-3.6-1c-1.5,0-2.8,0.3-3.6,1s-1.3,1.6-1.3,2.8s0.4,2.1,1.3,2.8s2.1,1,3.6,1
		c1.5,0,2.7-0.3,3.6-1S769,500.9,769,499.7z"/>
	<path class="st4" d="M770.7,486.6c0,0.9-0.2,1.6-0.6,2.3s-1,1.1-1.7,1.5s-1.6,0.5-2.7,0.5h-8v-2h7.8c1,0,1.9-0.2,2.5-0.6
		s1-1.1,1-2.1c0-0.8-0.2-1.4-0.6-2s-1-1-1.8-1.3s-1.8-0.5-2.9-0.5h-6v-2h12.7v1.9h-3l0.5-0.1c0.8,0.3,1.4,0.9,2,1.6
		S770.7,485.5,770.7,486.6z"/>
	<path class="st4" d="M770.4,476.7h-12.7v-1.9h2.9l-0.5,0.1c-0.7-0.3-1.3-0.9-1.9-1.6s-0.8-1.6-0.8-2.6c0-0.9,0.2-1.7,0.6-2.3
		s1-1.1,1.7-1.5s1.6-0.5,2.7-0.5h8v2h-7.8c-1,0-1.9,0.2-2.5,0.6s-1,1.1-1,2.1c0,1.1,0.4,1.9,1.2,2.6s2,1,3.5,1h6.6V476.7z"/>
	<path class="st4" d="M770.7,458.2c0,1-0.3,1.9-0.8,2.7s-1.3,1.4-2.3,1.8s-2.2,0.7-3.5,0.7s-2.5-0.2-3.5-0.7s-1.8-1.1-2.3-1.8
		s-0.8-1.7-0.8-2.7c0-0.8,0.2-1.6,0.6-2.5s1.1-1.4,2.1-1.8l0.1,0.2h-7.5v-2h17.6v1.9h-2.6l0.2-0.1c0.9,0.3,1.6,0.9,2.1,1.7
		S770.7,457.3,770.7,458.2z M769,457.7c0-0.7-0.2-1.3-0.5-1.8s-0.9-1-1.6-1.3s-1.7-0.5-2.8-0.5c-1.7,0-3,0.4-3.8,1.1
		s-1.2,1.6-1.2,2.5c0,1,0.4,1.9,1.3,2.6s2.1,1,3.7,1c1.6,0,2.8-0.3,3.6-1S769,458.8,769,457.7z"/>
	<path class="st4" d="M770.4,440.4c0,0.5-0.2,0.9-0.5,1.3s-0.8,0.6-1.3,0.6h-15.8v-2h15.3c0.3,0,0.4,0,0.5-0.1s0.1-0.2,0.1-0.5v-1.2
		h1.6V440.4z"/>
</g>
<g class="st3">
	<path class="st4" d="M770.7,435.3c0,1.2-0.3,2.2-0.8,3.1s-1.3,1.6-2.3,2s-2.2,0.7-3.5,0.7c-1.4,0-2.5-0.2-3.5-0.7s-1.8-1.1-2.3-2
		s-0.8-1.9-0.8-3.1c0-0.7,0.1-1.3,0.3-2s0.6-1.3,1.1-1.9s1.2-1,2.2-1.3s2.1-0.5,3.5-0.5v10.3h-1.6v-8.5l0.7,0.6
		c-1.1,0-2,0.2-2.7,0.5s-1.2,0.7-1.5,1.2s-0.5,1.1-0.5,1.7c0,0.7,0.2,1.4,0.6,1.9s1,1,1.7,1.2s1.6,0.4,2.7,0.4c1.6,0,2.8-0.3,3.7-1
		s1.3-1.6,1.3-2.7c0-0.9-0.2-1.6-0.6-2.2s-1.1-1-1.9-1.3l0.7-1.9c0.7,0.3,1.4,0.7,1.9,1.2s0.9,1.1,1.2,1.8S770.7,434.4,770.7,435.3z
		"/>
	<path class="st4" d="M770.4,423.5l-12.7,4.8v-2.2l11.5-4v0.4l-11.5-4v-2.2l12.7,4.7V423.5z"/>
</g>
<g class="st3">
	<path class="st4" d="M770.7,411.2c0,1.2-0.3,2.2-0.8,3.1s-1.3,1.6-2.3,2s-2.2,0.7-3.5,0.7c-1.4,0-2.5-0.2-3.5-0.7s-1.8-1.1-2.3-2
		s-0.8-1.9-0.8-3.1c0-0.7,0.1-1.3,0.3-2s0.6-1.3,1.1-1.9s1.2-1,2.2-1.3s2.1-0.5,3.5-0.5v10.3h-1.6v-8.5l0.7,0.6
		c-1.1,0-2,0.2-2.7,0.5s-1.2,0.7-1.5,1.2s-0.5,1.1-0.5,1.7c0,0.7,0.2,1.4,0.6,1.9s1,1,1.7,1.2s1.6,0.4,2.7,0.4c1.6,0,2.8-0.3,3.7-1
		s1.3-1.6,1.3-2.7c0-0.9-0.2-1.6-0.6-2.2s-1.1-1-1.9-1.3l0.7-1.9c0.7,0.3,1.4,0.7,1.9,1.2s0.9,1.1,1.2,1.8S770.7,410.4,770.7,411.2z
		"/>
	<path class="st4" d="M770.4,400.8c0,0.5-0.2,0.9-0.5,1.3s-0.8,0.6-1.3,0.6h-15.8v-2h15.3c0.3,0,0.4,0,0.5-0.1s0.1-0.2,0.1-0.5v-1.2
		h1.6V400.8z"/>
</g>
<g class="st3">
	<path class="st1" d="M810.2,514.8l7.1-16.9h2.1l7.1,16.9h-2.2l-5.9-14.7l-5.9,14.7H810.2z M813.9,509.3v-1.7h9v1.7H813.9z"/>
</g>
<g class="st3">
	<path class="st1" d="M831.5,515.1c-0.9,0-1.6-0.2-2.3-0.6s-1.1-1-1.5-1.7s-0.5-1.6-0.5-2.7v-8h2v7.8c0,1,0.2,1.9,0.6,2.5
		s1.1,1,2.1,1c0.8,0,1.4-0.2,2-0.6s1-1,1.3-1.8s0.5-1.8,0.5-2.9v-6h2v12.7h-1.9v-3l0.1,0.5c-0.3,0.8-0.9,1.4-1.6,2
		S832.6,515.1,831.5,515.1z"/>
	<path class="st1" d="M845.7,515.1c-1,0-1.9-0.3-2.7-0.8s-1.4-1.3-1.8-2.3s-0.7-2.2-0.7-3.5s0.2-2.5,0.7-3.5s1.1-1.8,1.8-2.3
		s1.7-0.8,2.7-0.8c0.8,0,1.6,0.2,2.5,0.6s1.4,1.1,1.8,2.1l-0.2,0.1v-7.5h2v17.6h-1.9v-2.6l0.1,0.2c-0.3,0.9-0.9,1.6-1.7,2.1
		S846.6,515.1,845.7,515.1z M846.2,513.4c0.7,0,1.3-0.2,1.8-0.5s1-0.9,1.3-1.6s0.5-1.7,0.5-2.8c0-1.7-0.4-3-1.1-3.8
		s-1.6-1.2-2.5-1.2c-1,0-1.9,0.4-2.6,1.3s-1,2.1-1,3.7c0,1.6,0.3,2.8,1,3.6S845.1,513.4,846.2,513.4z"/>
	<path class="st1" d="M856.5,500c-0.5,0-0.8-0.2-1.2-0.5s-0.5-0.7-0.5-1.2c0-0.5,0.2-0.8,0.5-1.2s0.7-0.5,1.2-0.5
		c0.5,0,0.8,0.2,1.2,0.5s0.5,0.7,0.5,1.2c0,0.5-0.2,0.8-0.5,1.2S857,500,856.5,500z M855.6,514.8v-12.7h2v12.7H855.6z"/>
</g>
<g class="st3">
	<path class="st1" d="M862.7,514.8c-0.5,0-0.9-0.2-1.3-0.5s-0.6-0.8-0.6-1.3v-9.3h-2v-1.6h2v-2.6l2-0.4v3.1h2.5v1.6h-2.5v8.7
		c0,0.3,0,0.4,0.1,0.5s0.2,0.1,0.5,0.1h1.9v1.6H862.7z"/>
</g>
<g class="st3">
	<path class="st1" d="M872.9,515.1c-1.2,0-2.2-0.3-3.1-0.8s-1.6-1.3-2.1-2.3s-0.8-2.1-0.8-3.4s0.3-2.5,0.8-3.4s1.2-1.8,2.1-2.3
		s2-0.8,3.1-0.8s2.2,0.3,3.1,0.8s1.6,1.3,2.1,2.3s0.8,2.1,0.8,3.4s-0.3,2.5-0.8,3.4s-1.2,1.8-2.1,2.3S874.1,515.1,872.9,515.1z
		 M872.9,513.4c1.2,0,2.1-0.4,2.8-1.3s1-2.1,1-3.6c0-1.5-0.3-2.8-1-3.6s-1.6-1.3-2.8-1.3s-2.1,0.4-2.8,1.3s-1,2.1-1,3.6
		c0,1.5,0.3,2.7,1,3.6S871.7,513.4,872.9,513.4z"/>
</g>
<g class="st3">
	<path class="st1" d="M881.3,514.8v-12.7h1.9v2.7l-0.1-0.3c0.4-0.9,0.9-1.5,1.7-2s1.5-0.7,2.3-0.7c0.2,0,0.4,0,0.7,0.1
		s0.4,0.1,0.6,0.2l-0.3,1.9c-0.4-0.1-0.9-0.2-1.3-0.2c-0.3,0-0.6,0.1-1,0.2s-0.8,0.3-1.2,0.6s-0.7,0.8-1,1.4s-0.4,1.5-0.4,2.5v6.3
		H881.3z"/>
</g>
<g class="st3">
	<path class="st1" d="M890.2,519.4v-1.6h1.9c0.1,0,0.2,0,0.3-0.1s0.2-0.2,0.2-0.4l0.9-2.6l-0.2,0.9l-5.1-13.3h2.2l4,11.7l-0.4-0.1
		l4-11.6h2.2l-6,15.8c-0.2,0.4-0.4,0.8-0.8,1s-0.8,0.4-1.2,0.4H890.2z"/>
	<path class="st1" d="M911.6,514.8c-0.5,0-0.9-0.2-1.3-0.5s-0.6-0.8-0.6-1.3v-9.3h-2v-1.6h2v-2.6l2-0.4v3.1h2.5v1.6h-2.5v8.7
		c0,0.3,0,0.4,0.1,0.5s0.2,0.1,0.5,0.1h1.9v1.6H911.6z"/>
	<path class="st1" d="M917.1,514.8v-17.6h2v7.9l-0.2-0.5c0.3-0.8,0.9-1.4,1.6-2s1.6-0.8,2.7-0.8c0.9,0,1.7,0.2,2.3,0.6
		s1.1,1,1.5,1.7s0.5,1.6,0.5,2.7v8h-2V507c0-1.1-0.2-1.9-0.6-2.5s-1.1-0.9-2.1-0.9c-1.1,0-2,0.4-2.7,1.2s-1,1.9-1,3.5v6.6H917.1z"/>
</g>
<g class="st3">
	<path class="st1" d="M928,514.8v-12.7h1.9v2.7l-0.1-0.3c0.4-0.9,0.9-1.5,1.7-2s1.5-0.7,2.3-0.7c0.2,0,0.4,0,0.7,0.1
		s0.4,0.1,0.6,0.2l-0.3,1.9c-0.4-0.1-0.9-0.2-1.3-0.2c-0.3,0-0.6,0.1-1,0.2s-0.8,0.3-1.2,0.6s-0.7,0.8-1,1.4s-0.4,1.5-0.4,2.5v6.3
		H928z"/>
</g>
<g class="st3">
	<path class="st1" d="M941,515.1c-1.2,0-2.2-0.3-3.1-0.8s-1.6-1.3-2-2.3s-0.7-2.2-0.7-3.5c0-1.4,0.2-2.5,0.7-3.5s1.1-1.8,2-2.3
		s1.9-0.8,3.1-0.8c0.7,0,1.3,0.1,2,0.3s1.3,0.6,1.9,1.1s1,1.2,1.3,2.2s0.5,2.1,0.5,3.5h-10.3v-1.6h8.5l-0.6,0.7c0-1.1-0.2-2-0.5-2.7
		s-0.7-1.2-1.2-1.5s-1.1-0.5-1.7-0.5c-0.7,0-1.4,0.2-1.9,0.6s-1,1-1.2,1.7s-0.4,1.6-0.4,2.7c0,1.6,0.3,2.8,1,3.7s1.6,1.3,2.7,1.3
		c0.9,0,1.6-0.2,2.2-0.6s1-1.1,1.3-1.9l1.9,0.7c-0.3,0.7-0.7,1.4-1.2,1.9s-1.1,0.9-1.8,1.2S941.9,515.1,941,515.1z"/>
	<path class="st1" d="M954,515.1c-0.9,0-1.7-0.2-2.5-0.5s-1.4-0.8-1.9-1.4s-0.8-1.4-1-2.3l2.1-0.4c0.1,1,0.4,1.7,1,2.2
		s1.3,0.7,2.2,0.7c0.9,0,1.6-0.2,2.1-0.7s0.8-1,0.8-1.6c0-0.5-0.2-1-0.6-1.3s-0.9-0.5-1.6-0.7l-1.5-0.3c-0.4-0.1-0.8-0.2-1.3-0.3
		s-0.9-0.3-1.2-0.6s-0.7-0.6-0.9-1s-0.4-0.9-0.4-1.5c0-0.8,0.2-1.5,0.7-2s1-0.9,1.7-1.2s1.5-0.4,2.3-0.4c0.9,0,1.7,0.1,2.4,0.4
		s1.2,0.7,1.6,1.2s0.7,1.2,0.8,1.9l-2.2,0.4c-0.1-0.5-0.2-0.9-0.4-1.2s-0.5-0.6-0.9-0.8s-0.9-0.3-1.5-0.3c-0.7,0-1.4,0.2-1.9,0.5
		s-0.8,0.8-0.8,1.4c0,0.3,0.1,0.6,0.3,0.9s0.4,0.4,0.8,0.6s0.8,0.3,1.3,0.4l1.6,0.3c0.7,0.1,1.3,0.3,1.8,0.6s1,0.6,1.3,1.1
		s0.5,1.1,0.5,1.8c0,0.8-0.2,1.6-0.6,2.2s-1,1.1-1.7,1.4S955,515.1,954,515.1z"/>
	<path class="st1" d="M961.9,514.8v-17.6h2v7.9l-0.2-0.5c0.3-0.8,0.9-1.4,1.6-2s1.6-0.8,2.7-0.8c0.9,0,1.7,0.2,2.3,0.6
		s1.1,1,1.5,1.7s0.5,1.6,0.5,2.7v8h-2V507c0-1.1-0.2-1.9-0.6-2.5s-1.1-0.9-2.1-0.9c-1.1,0-2,0.4-2.7,1.2s-1,1.9-1,3.5v6.6H961.9z"/>
	<path class="st1" d="M981.1,515.1c-1.2,0-2.2-0.3-3.1-0.8s-1.6-1.3-2.1-2.3s-0.8-2.1-0.8-3.4s0.3-2.5,0.8-3.4s1.2-1.8,2.1-2.3
		s2-0.8,3.1-0.8s2.2,0.3,3.1,0.8s1.6,1.3,2.1,2.3s0.8,2.1,0.8,3.4s-0.3,2.5-0.8,3.4s-1.2,1.8-2.1,2.3S982.3,515.1,981.1,515.1z
		 M981.1,513.4c1.2,0,2.1-0.4,2.8-1.3s1-2.1,1-3.6c0-1.5-0.3-2.8-1-3.6s-1.6-1.3-2.8-1.3s-2.1,0.4-2.8,1.3s-1,2.1-1,3.6
		c0,1.5,0.3,2.7,1,3.6S979.9,513.4,981.1,513.4z"/>
	<path class="st1" d="M992,514.8c-0.5,0-0.9-0.2-1.3-0.5s-0.6-0.8-0.6-1.3v-15.8h2v15.3c0,0.3,0,0.4,0.1,0.5s0.2,0.1,0.5,0.1h1.2
		v1.6H992z"/>
	<path class="st1" d="M1000.7,515.1c-1,0-1.9-0.3-2.7-0.8s-1.4-1.3-1.8-2.3s-0.7-2.2-0.7-3.5s0.2-2.5,0.7-3.5s1.1-1.8,1.8-2.3
		s1.7-0.8,2.7-0.8c0.8,0,1.6,0.2,2.5,0.6s1.4,1.1,1.8,2.1l-0.2,0.1v-7.5h2v17.6h-1.9v-2.6l0.1,0.2c-0.3,0.9-0.9,1.6-1.7,2.1
		S1001.6,515.1,1000.7,515.1z M1001.2,513.4c0.7,0,1.3-0.2,1.8-0.5s1-0.9,1.3-1.6s0.5-1.7,0.5-2.8c0-1.7-0.4-3-1.1-3.8
		s-1.6-1.2-2.5-1.2c-1,0-1.9,0.4-2.6,1.3s-1,2.1-1,3.7c0,1.6,0.3,2.8,1,3.6S1000.2,513.4,1001.2,513.4z"/>
</g>
<g class="st3">
	<path class="st1" d="M811.9,298.8v-16.9h10.8v1.7H814v5.2h7.8v1.7H814v8.2H811.9z"/>
</g>
<g class="st3">
	<path class="st1" d="M828,299.1c-0.8,0-1.6-0.2-2.2-0.5s-1.1-0.8-1.4-1.3s-0.5-1.2-0.5-1.9c0-0.8,0.2-1.5,0.7-2.1s1.1-1.2,2.1-1.5
		s2.1-0.6,3.6-0.6h2.1l-0.2,0.2v-0.7c0-1-0.2-1.8-0.6-2.3s-1.1-0.8-2-0.8c-0.9,0-1.6,0.2-2.1,0.7s-0.7,1.1-0.8,1.9l-2.2-0.5
		c0.1-0.7,0.3-1.3,0.8-1.9s1.1-1,1.8-1.3s1.6-0.5,2.6-0.5c1,0,1.9,0.2,2.5,0.6s1.1,0.9,1.4,1.7s0.5,1.6,0.5,2.6v5.8
		c0,0.3,0,0.4,0.1,0.5s0.2,0.1,0.5,0.1h0.7v1.6H834c-0.5,0-1-0.2-1.3-0.5s-0.5-0.8-0.5-1.3v-0.9h0.3c-0.1,0.3-0.3,0.7-0.5,1
		s-0.5,0.7-0.9,0.9s-0.8,0.5-1.3,0.7S828.7,299.1,828,299.1z M828.5,297.4c0.6,0,1.2-0.2,1.8-0.5s1-0.8,1.3-1.5s0.5-1.6,0.5-2.7
		v-0.1h-2c-1,0-1.9,0.1-2.5,0.4s-1,0.6-1.3,1s-0.4,0.8-0.4,1.2s0.1,0.8,0.3,1.1s0.4,0.6,0.8,0.8S827.9,297.4,828.5,297.4z"/>
	<path class="st1" d="M843.1,299.1c-1.2,0-2.2-0.3-3.1-0.8s-1.5-1.3-2-2.3s-0.7-2.2-0.7-3.5s0.2-2.5,0.7-3.5s1.1-1.8,2-2.3
		s1.9-0.8,3.1-0.8c0.9,0,1.7,0.2,2.4,0.5s1.3,0.8,1.8,1.4s0.9,1.4,1.1,2.2l-2,0.5c-0.2-1-0.6-1.7-1.2-2.3s-1.3-0.8-2.2-0.8
		c-1.2,0-2.1,0.4-2.7,1.3s-0.9,2.1-0.9,3.7c0,1.6,0.3,2.8,0.9,3.7s1.5,1.3,2.7,1.3c0.9,0,1.6-0.3,2.1-0.8s1-1.3,1.2-2.2l2,0.6
		c-0.2,0.6-0.4,1.2-0.8,1.7s-0.7,0.9-1.2,1.3s-1,0.6-1.5,0.8S843.7,299.1,843.1,299.1z"/>
	<path class="st1" d="M856.4,299.1c-1.2,0-2.2-0.3-3.1-0.8s-1.6-1.3-2-2.3s-0.7-2.2-0.7-3.5c0-1.4,0.2-2.5,0.7-3.5s1.1-1.8,2-2.3
		s1.9-0.8,3.1-0.8c0.7,0,1.3,0.1,2,0.3s1.3,0.6,1.9,1.1s1,1.2,1.3,2.2s0.5,2.1,0.5,3.5h-10.3v-1.6h8.5l-0.6,0.7c0-1.1-0.2-2-0.5-2.7
		s-0.7-1.2-1.2-1.5s-1.1-0.5-1.7-0.5c-0.7,0-1.4,0.2-1.9,0.6s-1,1-1.2,1.7s-0.4,1.6-0.4,2.7c0,1.6,0.3,2.8,1,3.7s1.6,1.3,2.7,1.3
		c0.9,0,1.6-0.2,2.2-0.6s1-1.1,1.3-1.9l1.9,0.7c-0.3,0.7-0.7,1.4-1.2,1.9s-1.1,0.9-1.8,1.2S857.2,299.1,856.4,299.1z"/>
	<path class="st1" d="M864.7,292.3v-1.8h7.9v1.8H864.7z"/>
</g>
<g class="st3">
	<path class="st1" d="M872.4,298.8c-0.5,0-0.9-0.2-1.3-0.5s-0.6-0.8-0.6-1.3v-9.3h-2v-1.6h2v-2.6l2-0.4v3.1h2.5v1.6h-2.5v8.7
		c0,0.3,0,0.4,0.1,0.5s0.2,0.1,0.5,0.1h1.9v1.6H872.4z"/>
</g>
<g class="st3">
	<path class="st1" d="M882.6,299.1c-1.2,0-2.2-0.3-3.1-0.8s-1.6-1.3-2.1-2.3s-0.8-2.1-0.8-3.4s0.3-2.5,0.8-3.4s1.2-1.8,2.1-2.3
		s2-0.8,3.1-0.8s2.2,0.3,3.1,0.8s1.6,1.3,2.1,2.3s0.8,2.1,0.8,3.4s-0.3,2.5-0.8,3.4s-1.2,1.8-2.1,2.3S883.8,299.1,882.6,299.1z
		 M882.6,297.4c1.2,0,2.1-0.4,2.8-1.3s1-2.1,1-3.6c0-1.5-0.3-2.8-1-3.6s-1.6-1.3-2.8-1.3s-2.1,0.4-2.8,1.3s-1,2.1-1,3.6
		c0,1.5,0.3,2.7,1,3.6S881.4,297.4,882.6,297.4z"/>
	<path class="st1" d="M891.2,292.3v-1.8h7.9v1.8H891.2z"/>
	<path class="st1" d="M900.4,287.8v-1.6h6.7v1.6H900.4z M902.3,298.8v-15c0-0.9,0.2-1.6,0.7-2s1.2-0.6,2.2-0.6h1.6v1.6h-1.9
		c-0.2,0-0.4,0.1-0.5,0.2s-0.2,0.3-0.2,0.5v15.3H902.3z"/>
	<path class="st1" d="M912.5,299.1c-0.8,0-1.6-0.2-2.2-0.5s-1.1-0.8-1.4-1.3s-0.5-1.2-0.5-1.9c0-0.8,0.2-1.5,0.7-2.1
		s1.1-1.2,2.1-1.5s2.1-0.6,3.6-0.6h2.1l-0.2,0.2v-0.7c0-1-0.2-1.8-0.6-2.3s-1.1-0.8-2-0.8c-0.9,0-1.6,0.2-2.1,0.7s-0.7,1.1-0.8,1.9
		l-2.2-0.5c0.1-0.7,0.3-1.3,0.8-1.9s1.1-1,1.8-1.3s1.6-0.5,2.6-0.5c1,0,1.9,0.2,2.5,0.6s1.1,0.9,1.4,1.7s0.5,1.6,0.5,2.6v5.8
		c0,0.3,0,0.4,0.1,0.5s0.2,0.1,0.5,0.1h0.7v1.6h-1.3c-0.5,0-1-0.2-1.3-0.5s-0.5-0.8-0.5-1.3v-0.9h0.3c-0.1,0.3-0.3,0.7-0.5,1
		s-0.5,0.7-0.9,0.9s-0.8,0.5-1.3,0.7S913.2,299.1,912.5,299.1z M913,297.4c0.6,0,1.2-0.2,1.8-0.5s1-0.8,1.3-1.5s0.5-1.6,0.5-2.7
		v-0.1h-2c-1,0-1.9,0.1-2.5,0.4s-1,0.6-1.3,1s-0.4,0.8-0.4,1.2s0.1,0.8,0.3,1.1s0.4,0.6,0.8,0.8S912.4,297.4,913,297.4z"/>
	<path class="st1" d="M927.6,299.1c-1.2,0-2.2-0.3-3.1-0.8s-1.5-1.3-2-2.3s-0.7-2.2-0.7-3.5s0.2-2.5,0.7-3.5s1.1-1.8,2-2.3
		s1.9-0.8,3.1-0.8c0.9,0,1.7,0.2,2.4,0.5s1.3,0.8,1.8,1.4s0.9,1.4,1.1,2.2l-2,0.5c-0.2-1-0.6-1.7-1.2-2.3s-1.3-0.8-2.2-0.8
		c-1.2,0-2.1,0.4-2.7,1.3s-0.9,2.1-0.9,3.7c0,1.6,0.3,2.8,0.9,3.7s1.5,1.3,2.7,1.3c0.9,0,1.6-0.3,2.1-0.8s1-1.3,1.2-2.2l2,0.6
		c-0.2,0.6-0.4,1.2-0.8,1.7s-0.7,0.9-1.2,1.3s-1,0.6-1.5,0.8S928.2,299.1,927.6,299.1z"/>
	<path class="st1" d="M940.9,299.1c-1.2,0-2.2-0.3-3.1-0.8s-1.6-1.3-2-2.3s-0.7-2.2-0.7-3.5c0-1.4,0.2-2.5,0.7-3.5s1.1-1.8,2-2.3
		s1.9-0.8,3.1-0.8c0.7,0,1.3,0.1,2,0.3s1.3,0.6,1.9,1.1s1,1.2,1.3,2.2s0.5,2.1,0.5,3.5h-10.3v-1.6h8.5l-0.6,0.7c0-1.1-0.2-2-0.5-2.7
		s-0.7-1.2-1.2-1.5s-1.1-0.5-1.7-0.5c-0.7,0-1.4,0.2-1.9,0.6s-1,1-1.2,1.7s-0.4,1.6-0.4,2.7c0,1.6,0.3,2.8,1,3.7s1.6,1.3,2.7,1.3
		c0.9,0,1.6-0.2,2.2-0.6s1-1.1,1.3-1.9l1.9,0.7c-0.3,0.7-0.7,1.4-1.2,1.9s-1.1,0.9-1.8,1.2S941.7,299.1,940.9,299.1z"/>
	<path class="st1" d="M960.6,299.1c-1.2,0-2.2-0.3-3.1-0.8s-1.5-1.3-2-2.3s-0.7-2.2-0.7-3.5s0.2-2.5,0.7-3.5s1.1-1.8,2-2.3
		s1.9-0.8,3.1-0.8c0.9,0,1.7,0.2,2.4,0.5s1.3,0.8,1.8,1.4s0.9,1.4,1.1,2.2l-2,0.5c-0.2-1-0.6-1.7-1.2-2.3s-1.3-0.8-2.2-0.8
		c-1.2,0-2.1,0.4-2.7,1.3s-0.9,2.1-0.9,3.7c0,1.6,0.3,2.8,0.9,3.7s1.5,1.3,2.7,1.3c0.9,0,1.6-0.3,2.1-0.8s1-1.3,1.2-2.2l2,0.6
		c-0.2,0.6-0.4,1.2-0.8,1.7s-0.7,0.9-1.2,1.3s-1,0.6-1.5,0.8S961.3,299.1,960.6,299.1z"/>
	<path class="st1" d="M974.1,299.1c-1.2,0-2.2-0.3-3.1-0.8s-1.6-1.3-2.1-2.3s-0.8-2.1-0.8-3.4s0.3-2.5,0.8-3.4s1.2-1.8,2.1-2.3
		s2-0.8,3.1-0.8s2.2,0.3,3.1,0.8s1.6,1.3,2.1,2.3s0.8,2.1,0.8,3.4s-0.3,2.5-0.8,3.4s-1.2,1.8-2.1,2.3S975.3,299.1,974.1,299.1z
		 M974.1,297.4c1.2,0,2.1-0.4,2.8-1.3s1-2.1,1-3.6c0-1.5-0.3-2.8-1-3.6s-1.6-1.3-2.8-1.3s-2.1,0.4-2.8,1.3s-1,2.1-1,3.6
		c0,1.5,0.3,2.7,1,3.6S972.9,297.4,974.1,297.4z"/>
	<path class="st1" d="M983,298.8v-12.7h1.9v2.2c0.3-0.7,0.8-1.2,1.5-1.7s1.5-0.7,2.4-0.7c0.8,0,1.6,0.2,2.2,0.7s1.1,1.1,1.4,1.9
		c0.4-0.8,0.9-1.4,1.6-1.9s1.5-0.7,2.4-0.7c1.2,0,2.2,0.4,2.9,1.3s1.1,2.1,1.1,3.7v8h-2V291c0-0.7-0.1-1.3-0.2-1.9s-0.4-0.9-0.7-1.2
		s-0.8-0.4-1.4-0.4c-0.6,0-1.2,0.2-1.7,0.5s-0.9,0.9-1.2,1.6s-0.4,1.5-0.4,2.5v6.6h-2V291c0-0.7-0.1-1.3-0.2-1.9s-0.4-0.9-0.7-1.2
		s-0.8-0.4-1.4-0.4c-0.6,0-1.2,0.2-1.7,0.5s-0.9,0.9-1.2,1.6s-0.4,1.5-0.4,2.6v6.6H983z"/>
	<path class="st1" d="M1004,298.8v-12.7h1.9v2.2c0.3-0.7,0.8-1.2,1.5-1.7s1.5-0.7,2.4-0.7c0.8,0,1.6,0.2,2.2,0.7s1.1,1.1,1.4,1.9
		c0.4-0.8,0.9-1.4,1.6-1.9s1.5-0.7,2.4-0.7c1.2,0,2.2,0.4,2.9,1.3s1.1,2.1,1.1,3.7v8h-2V291c0-0.7-0.1-1.3-0.2-1.9s-0.4-0.9-0.7-1.2
		s-0.8-0.4-1.4-0.4c-0.6,0-1.2,0.2-1.7,0.5s-0.9,0.9-1.2,1.6s-0.4,1.5-0.4,2.5v6.6h-2V291c0-0.7-0.1-1.3-0.2-1.9s-0.4-0.9-0.7-1.2
		s-0.8-0.4-1.4-0.4c-0.6,0-1.2,0.2-1.7,0.5s-0.9,0.9-1.2,1.6s-0.4,1.5-0.4,2.6v6.6H1004z"/>
	<path class="st1" d="M1029,299.1c-0.9,0-1.6-0.2-2.3-0.6s-1.1-1-1.5-1.7s-0.5-1.6-0.5-2.7v-8h2v7.8c0,1,0.2,1.9,0.6,2.5
		s1.1,1,2.1,1c0.8,0,1.4-0.2,2-0.6s1-1,1.3-1.8s0.5-1.8,0.5-2.9v-6h2v12.7h-1.9v-3l0.1,0.5c-0.3,0.8-0.9,1.4-1.6,2
		S1030.1,299.1,1029,299.1z"/>
	<path class="st1" d="M1038.9,298.8v-12.7h1.9v2.9l-0.1-0.5c0.3-0.7,0.9-1.3,1.6-1.9s1.6-0.8,2.6-0.8c0.9,0,1.7,0.2,2.3,0.6
		s1.1,1,1.5,1.7s0.5,1.6,0.5,2.7v8h-2V291c0-1-0.2-1.9-0.6-2.5s-1.1-1-2.1-1c-1.1,0-1.9,0.4-2.6,1.2s-1,2-1,3.5v6.6H1038.9z"/>
	<path class="st1" d="M1053.8,284c-0.5,0-0.8-0.2-1.2-0.5s-0.5-0.7-0.5-1.2c0-0.5,0.2-0.8,0.5-1.2s0.7-0.5,1.2-0.5
		c0.5,0,0.8,0.2,1.2,0.5s0.5,0.7,0.5,1.2c0,0.5-0.2,0.8-0.5,1.2S1054.3,284,1053.8,284z M1052.8,298.8v-12.7h2v12.7H1052.8z"/>
	<path class="st1" d="M1063.6,299.1c-1.2,0-2.2-0.3-3.1-0.8s-1.5-1.3-2-2.3s-0.7-2.2-0.7-3.5s0.2-2.5,0.7-3.5s1.1-1.8,2-2.3
		s1.9-0.8,3.1-0.8c0.9,0,1.7,0.2,2.4,0.5s1.3,0.8,1.8,1.4s0.9,1.4,1.1,2.2l-2,0.5c-0.2-1-0.6-1.7-1.2-2.3s-1.3-0.8-2.2-0.8
		c-1.2,0-2.1,0.4-2.7,1.3s-0.9,2.1-0.9,3.7c0,1.6,0.3,2.8,0.9,3.7s1.5,1.3,2.7,1.3c0.9,0,1.6-0.3,2.1-0.8s1-1.3,1.2-2.2l2,0.6
		c-0.2,0.6-0.4,1.2-0.8,1.7s-0.7,0.9-1.2,1.3s-1,0.6-1.5,0.8S1064.3,299.1,1063.6,299.1z"/>
	<path class="st1" d="M1075.2,299.1c-0.8,0-1.6-0.2-2.2-0.5s-1.1-0.8-1.4-1.3s-0.5-1.2-0.5-1.9c0-0.8,0.2-1.5,0.7-2.1
		s1.1-1.2,2.1-1.5s2.1-0.6,3.6-0.6h2.1l-0.2,0.2v-0.7c0-1-0.2-1.8-0.6-2.3s-1.1-0.8-2-0.8c-0.9,0-1.6,0.2-2.1,0.7s-0.7,1.1-0.8,1.9
		l-2.2-0.5c0.1-0.7,0.3-1.3,0.8-1.9s1.1-1,1.8-1.3s1.6-0.5,2.6-0.5c1,0,1.9,0.2,2.5,0.6s1.1,0.9,1.4,1.7s0.5,1.6,0.5,2.6v5.8
		c0,0.3,0,0.4,0.1,0.5s0.2,0.1,0.5,0.1h0.7v1.6h-1.3c-0.5,0-1-0.2-1.3-0.5s-0.5-0.8-0.5-1.3v-0.9h0.3c-0.1,0.3-0.3,0.7-0.5,1
		s-0.5,0.7-0.9,0.9s-0.8,0.5-1.3,0.7S1075.8,299.1,1075.2,299.1z M1075.6,297.4c0.6,0,1.2-0.2,1.8-0.5s1-0.8,1.3-1.5
		s0.5-1.6,0.5-2.7v-0.1h-2c-1,0-1.9,0.1-2.5,0.4s-1,0.6-1.3,1s-0.4,0.8-0.4,1.2s0.1,0.8,0.3,1.1s0.4,0.6,0.8,0.8
		S1075.1,297.4,1075.6,297.4z"/>
	<path class="st1" d="M1087.4,298.8c-0.5,0-0.9-0.2-1.3-0.5s-0.6-0.8-0.6-1.3v-9.3h-2v-1.6h2v-2.6l2-0.4v3.1h2.5v1.6h-2.5v8.7
		c0,0.3,0,0.4,0.1,0.5s0.2,0.1,0.5,0.1h1.9v1.6H1087.4z"/>
	<path class="st1" d="M1093.9,284c-0.5,0-0.8-0.2-1.2-0.5s-0.5-0.7-0.5-1.2c0-0.5,0.2-0.8,0.5-1.2s0.7-0.5,1.2-0.5
		c0.5,0,0.8,0.2,1.2,0.5s0.5,0.7,0.5,1.2c0,0.5-0.2,0.8-0.5,1.2S1094.3,284,1093.9,284z M1092.9,298.8v-12.7h2v12.7H1092.9z"/>
	<path class="st1" d="M1103.8,299.1c-1.2,0-2.2-0.3-3.1-0.8s-1.6-1.3-2.1-2.3s-0.8-2.1-0.8-3.4s0.3-2.5,0.8-3.4s1.2-1.8,2.1-2.3
		s2-0.8,3.1-0.8s2.2,0.3,3.1,0.8s1.6,1.3,2.1,2.3s0.8,2.1,0.8,3.4s-0.3,2.5-0.8,3.4s-1.2,1.8-2.1,2.3S1105,299.1,1103.8,299.1z
		 M1103.8,297.4c1.2,0,2.1-0.4,2.8-1.3s1-2.1,1-3.6c0-1.5-0.3-2.8-1-3.6s-1.6-1.3-2.8-1.3s-2.1,0.4-2.8,1.3s-1,2.1-1,3.6
		c0,1.5,0.3,2.7,1,3.6S1102.6,297.4,1103.8,297.4z"/>
	<path class="st1" d="M1112.8,298.8v-12.7h1.9v2.9l-0.1-0.5c0.3-0.7,0.9-1.3,1.6-1.9s1.6-0.8,2.6-0.8c0.9,0,1.7,0.2,2.3,0.6
		s1.1,1,1.5,1.7s0.5,1.6,0.5,2.7v8h-2V291c0-1-0.2-1.9-0.6-2.5s-1.1-1-2.1-1c-1.1,0-1.9,0.4-2.6,1.2s-1,2-1,3.5v6.6H1112.8z"/>
</g>
<g class="st3">
	<path class="st1" d="M816.7,82.8V67.7h-6v-1.7h14.2v1.7h-6.1v15.1H816.7z"/>
	<path class="st1" d="M827,82.8V65.2h2v7.9l-0.2-0.5c0.3-0.8,0.9-1.4,1.6-2s1.6-0.8,2.7-0.8c0.9,0,1.7,0.2,2.3,0.6s1.1,1,1.5,1.7
		s0.5,1.6,0.5,2.7v8h-2V75c0-1.1-0.2-1.9-0.6-2.5s-1.1-0.9-2.1-0.9c-1.1,0-2,0.4-2.7,1.2s-1,1.9-1,3.5v6.6H827z"/>
</g>
<g class="st3">
	<path class="st1" d="M839.5,82.8V70.1h1.9v2.7l-0.1-0.3c0.4-0.9,0.9-1.5,1.7-2s1.5-0.7,2.3-0.7c0.2,0,0.4,0,0.7,0.1
		s0.4,0.1,0.6,0.2l-0.3,1.9c-0.4-0.1-0.9-0.2-1.3-0.2c-0.3,0-0.6,0.1-1,0.2s-0.8,0.3-1.2,0.6s-0.7,0.8-1,1.4s-0.4,1.5-0.4,2.5v6.3
		H839.5z"/>
</g>
<g class="st3">
	<path class="st1" d="M852.5,83.1c-1.2,0-2.2-0.3-3.1-0.8s-1.6-1.3-2-2.3s-0.7-2.2-0.7-3.5c0-1.4,0.2-2.5,0.7-3.5s1.1-1.8,2-2.3
		s1.9-0.8,3.1-0.8c0.7,0,1.3,0.1,2,0.3s1.3,0.6,1.9,1.1s1,1.2,1.3,2.2s0.5,2.1,0.5,3.5h-10.3v-1.6h8.5l-0.6,0.7c0-1.1-0.2-2-0.5-2.7
		s-0.7-1.2-1.2-1.5s-1.1-0.5-1.7-0.5c-0.7,0-1.4,0.2-1.9,0.6s-1,1-1.2,1.7s-0.4,1.6-0.4,2.7c0,1.6,0.3,2.8,1,3.7s1.6,1.3,2.7,1.3
		c0.9,0,1.6-0.2,2.2-0.6s1-1.1,1.3-1.9l1.9,0.7c-0.3,0.7-0.7,1.4-1.2,1.9s-1.1,0.9-1.8,1.2S853.3,83.1,852.5,83.1z"/>
	<path class="st1" d="M865.4,83.1c-0.9,0-1.7-0.2-2.5-0.5s-1.4-0.8-1.9-1.4s-0.8-1.4-1-2.3l2.1-0.4c0.1,1,0.4,1.7,1,2.2
		s1.3,0.7,2.2,0.7c0.9,0,1.6-0.2,2.1-0.7s0.8-1,0.8-1.6c0-0.5-0.2-1-0.6-1.3s-0.9-0.5-1.6-0.7l-1.5-0.3c-0.4-0.1-0.8-0.2-1.3-0.3
		s-0.9-0.3-1.2-0.6s-0.7-0.6-0.9-1s-0.4-0.9-0.4-1.5c0-0.8,0.2-1.5,0.7-2s1-0.9,1.7-1.2s1.5-0.4,2.3-0.4c0.9,0,1.7,0.1,2.4,0.4
		s1.2,0.7,1.6,1.2s0.7,1.2,0.8,1.9l-2.2,0.4c-0.1-0.5-0.2-0.9-0.4-1.2s-0.5-0.6-0.9-0.8s-0.9-0.3-1.5-0.3c-0.7,0-1.4,0.2-1.9,0.5
		s-0.8,0.8-0.8,1.4c0,0.3,0.1,0.6,0.3,0.9s0.4,0.4,0.8,0.6s0.8,0.3,1.3,0.4l1.6,0.3c0.7,0.1,1.3,0.3,1.8,0.6s1,0.6,1.3,1.1
		s0.5,1.1,0.5,1.8c0,0.8-0.2,1.6-0.6,2.2s-1,1.1-1.7,1.4S866.4,83.1,865.4,83.1z"/>
	<path class="st1" d="M873.4,82.8V65.2h2v7.9l-0.2-0.5c0.3-0.8,0.9-1.4,1.6-2s1.6-0.8,2.7-0.8c0.9,0,1.7,0.2,2.3,0.6s1.1,1,1.5,1.7
		s0.5,1.6,0.5,2.7v8h-2V75c0-1.1-0.2-1.9-0.6-2.5s-1.1-0.9-2.1-0.9c-1.1,0-2,0.4-2.7,1.2s-1,1.9-1,3.5v6.6H873.4z"/>
	<path class="st1" d="M892.6,83.1c-1.2,0-2.2-0.3-3.1-0.8s-1.6-1.3-2.1-2.3s-0.8-2.1-0.8-3.4s0.3-2.5,0.8-3.4s1.2-1.8,2.1-2.3
		s2-0.8,3.1-0.8s2.2,0.3,3.1,0.8s1.6,1.3,2.1,2.3s0.8,2.1,0.8,3.4s-0.3,2.5-0.8,3.4s-1.2,1.8-2.1,2.3S893.8,83.1,892.6,83.1z
		 M892.6,81.4c1.2,0,2.1-0.4,2.8-1.3s1-2.1,1-3.6c0-1.5-0.3-2.8-1-3.6s-1.6-1.3-2.8-1.3s-2.1,0.4-2.8,1.3s-1,2.1-1,3.6
		c0,1.5,0.3,2.7,1,3.6S891.4,81.4,892.6,81.4z"/>
	<path class="st1" d="M903.4,82.8c-0.5,0-0.9-0.2-1.3-0.5s-0.6-0.8-0.6-1.3V65.2h2v15.3c0,0.3,0,0.4,0.1,0.5s0.2,0.1,0.5,0.1h1.2
		v1.6H903.4z"/>
	<path class="st1" d="M912.2,83.1c-1,0-1.9-0.3-2.7-0.8S908,81,907.6,80s-0.7-2.2-0.7-3.5s0.2-2.5,0.7-3.5s1.1-1.8,1.8-2.3
		s1.7-0.8,2.7-0.8c0.8,0,1.6,0.2,2.5,0.6s1.4,1.1,1.8,2.1l-0.2,0.1v-7.5h2v17.6h-1.9v-2.6l0.1,0.2c-0.3,0.9-0.9,1.6-1.7,2.1
		S913.1,83.1,912.2,83.1z M912.7,81.4c0.7,0,1.3-0.2,1.8-0.5s1-0.9,1.3-1.6s0.5-1.7,0.5-2.8c0-1.7-0.4-3-1.1-3.8s-1.6-1.2-2.5-1.2
		c-1,0-1.9,0.4-2.6,1.3s-1,2.1-1,3.7c0,1.6,0.3,2.8,1,3.6S911.6,81.4,912.7,81.4z"/>
	<path class="st1" d="M933.4,83.1c-1.2,0-2.2-0.3-3.1-0.8s-1.6-1.3-2.1-2.3s-0.8-2.1-0.8-3.4s0.3-2.5,0.8-3.4s1.2-1.8,2.1-2.3
		s2-0.8,3.1-0.8s2.2,0.3,3.1,0.8s1.6,1.3,2.1,2.3s0.8,2.1,0.8,3.4s-0.3,2.5-0.8,3.4s-1.2,1.8-2.1,2.3S934.6,83.1,933.4,83.1z
		 M933.4,81.4c1.2,0,2.1-0.4,2.8-1.3s1-2.1,1-3.6c0-1.5-0.3-2.8-1-3.6s-1.6-1.3-2.8-1.3s-2.1,0.4-2.8,1.3s-1,2.1-1,3.6
		c0,1.5,0.3,2.7,1,3.6S932.2,81.4,933.4,81.4z"/>
	<path class="st1" d="M941,71.8v-1.6h6.7v1.6H941z M942.9,82.8v-15c0-0.9,0.2-1.6,0.7-2s1.2-0.6,2.2-0.6h1.6v1.6h-1.9
		c-0.2,0-0.4,0.1-0.5,0.2s-0.2,0.3-0.2,0.5v15.3H942.9z"/>
	<path class="st1" d="M956.5,87.4V70.1h1.9v2.6l-0.1-0.2c0.3-0.9,0.9-1.6,1.7-2.1s1.6-0.7,2.5-0.7c1,0,1.9,0.3,2.7,0.8
		s1.4,1.3,1.8,2.3s0.7,2.2,0.7,3.5s-0.2,2.5-0.7,3.5s-1.1,1.8-1.8,2.3s-1.7,0.8-2.7,0.8c-0.8,0-1.6-0.2-2.5-0.6s-1.4-1.1-1.8-2.1
		l0.2-0.1v7.1H956.5z M962,81.4c1,0,1.9-0.4,2.6-1.3s1-2.1,1-3.7c0-1.6-0.3-2.8-1-3.6s-1.5-1.3-2.6-1.3c-0.7,0-1.3,0.2-1.8,0.5
		s-1,0.9-1.3,1.6s-0.5,1.7-0.5,2.8c0,1.7,0.4,3,1.1,3.8S961,81.4,962,81.4z"/>
	<path class="st1" d="M974.2,83.1c-0.8,0-1.6-0.2-2.2-0.5s-1.1-0.8-1.4-1.3s-0.5-1.2-0.5-1.9c0-0.8,0.2-1.5,0.7-2.1s1.1-1.2,2.1-1.5
		s2.1-0.6,3.6-0.6h2.1l-0.2,0.2v-0.7c0-1-0.2-1.8-0.6-2.3s-1.1-0.8-2-0.8c-0.9,0-1.6,0.2-2.1,0.7s-0.7,1.1-0.8,1.9l-2.2-0.5
		c0.1-0.7,0.3-1.3,0.8-1.9s1.1-1,1.8-1.3s1.6-0.5,2.6-0.5c1,0,1.9,0.2,2.5,0.6s1.1,0.9,1.4,1.7s0.5,1.6,0.5,2.6v5.8
		c0,0.3,0,0.4,0.1,0.5s0.2,0.1,0.5,0.1h0.7v1.6h-1.3c-0.5,0-1-0.2-1.3-0.5s-0.5-0.8-0.5-1.3v-0.9h0.3c-0.1,0.3-0.3,0.7-0.5,1
		s-0.5,0.7-0.9,0.9s-0.8,0.5-1.3,0.7S974.9,83.1,974.2,83.1z M974.7,81.4c0.6,0,1.2-0.2,1.8-0.5s1-0.8,1.3-1.5s0.5-1.6,0.5-2.7v-0.1
		h-2c-1,0-1.9,0.1-2.5,0.4s-1,0.6-1.3,1s-0.4,0.8-0.4,1.2s0.1,0.8,0.3,1.1s0.4,0.6,0.8,0.8S974.1,81.4,974.7,81.4z"/>
	<path class="st1" d="M985.2,68c-0.5,0-0.8-0.2-1.2-0.5s-0.5-0.7-0.5-1.2c0-0.5,0.2-0.8,0.5-1.2s0.7-0.5,1.2-0.5
		c0.5,0,0.8,0.2,1.2,0.5s0.5,0.7,0.5,1.2c0,0.5-0.2,0.8-0.5,1.2S985.7,68,985.2,68z M984.2,82.8V70.1h2v12.7H984.2z"/>
	<path class="st1" d="M990,82.8V70.1h1.9V73l-0.1-0.5c0.3-0.7,0.9-1.3,1.6-1.9s1.6-0.8,2.6-0.8c0.9,0,1.7,0.2,2.3,0.6s1.1,1,1.5,1.7
		s0.5,1.6,0.5,2.7v8h-2V75c0-1-0.2-1.9-0.6-2.5s-1.1-1-2.1-1c-1.1,0-1.9,0.4-2.6,1.2s-1,2-1,3.5v6.6H990z"/>
</g>
<g class="st3">
	<path class="st1" d="M819,133.5c-1.6,0-3-0.4-4.2-1.1s-2.1-1.8-2.8-3.1s-1-2.8-1-4.6c0-1.7,0.3-3.2,1-4.5s1.5-2.3,2.7-3.1
		s2.6-1.1,4.3-1.1c1.7,0,3.1,0.4,4.4,1.3s2.1,2.2,2.5,4l-2.2,0.5c-0.3-1.4-0.9-2.4-1.8-3.1s-1.8-1-3-1c-1.2,0-2.2,0.3-3,0.9
		s-1.5,1.4-1.9,2.5s-0.7,2.2-0.7,3.6c0,1.4,0.2,2.6,0.7,3.6s1.1,1.9,1.9,2.5s1.8,0.9,2.9,0.9c1.2,0,2.3-0.4,3.2-1.1s1.5-1.8,1.7-3.1
		l2.3,0.6c-0.5,1.7-1.3,3.1-2.6,4S820.7,133.5,819,133.5z"/>
	<path class="st1" d="M828.8,133.2v-17.6h2v7.9l-0.2-0.5c0.3-0.8,0.9-1.4,1.6-2s1.6-0.8,2.7-0.8c0.9,0,1.7,0.2,2.3,0.6
		s1.1,1,1.5,1.7s0.5,1.6,0.5,2.7v8h-2v-7.8c0-1.1-0.2-1.9-0.6-2.5s-1.1-0.9-2.1-0.9c-1.1,0-2,0.4-2.7,1.2s-1,1.9-1,3.5v6.6H828.8z"
		/>
	<path class="st1" d="M846,133.5c-0.8,0-1.6-0.2-2.2-0.5s-1.1-0.8-1.4-1.3s-0.5-1.2-0.5-1.9c0-0.8,0.2-1.5,0.7-2.1s1.1-1.2,2.1-1.5
		s2.1-0.6,3.6-0.6h2.1l-0.2,0.2v-0.7c0-1-0.2-1.8-0.6-2.3s-1.1-0.8-2-0.8c-0.9,0-1.6,0.2-2.1,0.7s-0.7,1.1-0.8,1.9l-2.2-0.5
		c0.1-0.7,0.3-1.3,0.8-1.9s1.1-1,1.8-1.3s1.6-0.5,2.6-0.5c1,0,1.9,0.2,2.5,0.6s1.1,0.9,1.4,1.7s0.5,1.6,0.5,2.6v5.8
		c0,0.3,0,0.4,0.1,0.5s0.2,0.1,0.5,0.1h0.7v1.6H852c-0.5,0-1-0.2-1.3-0.5s-0.5-0.8-0.5-1.3v-0.9h0.3c-0.1,0.3-0.3,0.7-0.5,1
		s-0.5,0.7-0.9,0.9s-0.8,0.5-1.3,0.7S846.7,133.5,846,133.5z M846.5,131.8c0.6,0,1.2-0.2,1.8-0.5s1-0.8,1.3-1.5s0.5-1.6,0.5-2.7
		v-0.1h-2c-1,0-1.9,0.1-2.5,0.4s-1,0.6-1.3,1s-0.4,0.8-0.4,1.2s0.1,0.8,0.3,1.1s0.4,0.6,0.8,0.8S845.9,131.8,846.5,131.8z"/>
	<path class="st1" d="M857,118.4c-0.5,0-0.8-0.2-1.2-0.5s-0.5-0.7-0.5-1.2c0-0.5,0.2-0.8,0.5-1.2s0.7-0.5,1.2-0.5
		c0.5,0,0.8,0.2,1.2,0.5s0.5,0.7,0.5,1.2c0,0.5-0.2,0.8-0.5,1.2S857.5,118.4,857,118.4z M856,133.2v-12.7h2v12.7H856z"/>
	<path class="st1" d="M861.8,133.2v-12.7h1.9v2.9l-0.1-0.5c0.3-0.7,0.9-1.3,1.6-1.9s1.6-0.8,2.6-0.8c0.9,0,1.7,0.2,2.3,0.6
		s1.1,1,1.5,1.7s0.5,1.6,0.5,2.7v8h-2v-7.8c0-1-0.2-1.9-0.6-2.5s-1.1-1-2.1-1c-1.1,0-1.9,0.4-2.6,1.2s-1,2-1,3.5v6.6H861.8z"/>
	<path class="st1" d="M886.2,133.5c-0.9,0-1.7-0.2-2.5-0.5s-1.4-0.8-1.9-1.4s-0.8-1.4-1-2.3l2.1-0.4c0.1,1,0.4,1.7,1,2.2
		s1.3,0.7,2.2,0.7c0.9,0,1.6-0.2,2.1-0.7s0.8-1,0.8-1.6c0-0.5-0.2-1-0.6-1.3s-0.9-0.5-1.6-0.7l-1.5-0.3c-0.4-0.1-0.8-0.2-1.3-0.3
		s-0.9-0.3-1.2-0.6s-0.7-0.6-0.9-1s-0.4-0.9-0.4-1.5c0-0.8,0.2-1.5,0.7-2s1-0.9,1.7-1.2s1.5-0.4,2.3-0.4c0.9,0,1.7,0.1,2.4,0.4
		s1.2,0.7,1.6,1.2s0.7,1.2,0.8,1.9l-2.2,0.4c-0.1-0.5-0.2-0.9-0.4-1.2s-0.5-0.6-0.9-0.8s-0.9-0.3-1.5-0.3c-0.7,0-1.4,0.2-1.9,0.5
		s-0.8,0.8-0.8,1.4c0,0.3,0.1,0.6,0.3,0.9s0.4,0.4,0.8,0.6s0.8,0.3,1.3,0.4l1.6,0.3c0.7,0.1,1.3,0.3,1.8,0.6s1,0.6,1.3,1.1
		s0.5,1.1,0.5,1.8c0,0.8-0.2,1.6-0.6,2.2s-1,1.1-1.7,1.4S887.2,133.5,886.2,133.5z"/>
	<path class="st1" d="M897.8,133.5c-0.8,0-1.6-0.2-2.2-0.5s-1.1-0.8-1.4-1.3s-0.5-1.2-0.5-1.9c0-0.8,0.2-1.5,0.7-2.1
		s1.1-1.2,2.1-1.5s2.1-0.6,3.6-0.6h2.1l-0.2,0.2v-0.7c0-1-0.2-1.8-0.6-2.3s-1.1-0.8-2-0.8c-0.9,0-1.6,0.2-2.1,0.7s-0.7,1.1-0.8,1.9
		l-2.2-0.5c0.1-0.7,0.3-1.3,0.8-1.9s1.1-1,1.8-1.3s1.6-0.5,2.6-0.5c1,0,1.9,0.2,2.5,0.6s1.1,0.9,1.4,1.7s0.5,1.6,0.5,2.6v5.8
		c0,0.3,0,0.4,0.1,0.5s0.2,0.1,0.5,0.1h0.7v1.6h-1.3c-0.5,0-1-0.2-1.3-0.5s-0.5-0.8-0.5-1.3v-0.9h0.3c-0.1,0.3-0.3,0.7-0.5,1
		s-0.5,0.7-0.9,0.9s-0.8,0.5-1.3,0.7S898.5,133.5,897.8,133.5z M898.3,131.8c0.6,0,1.2-0.2,1.8-0.5s1-0.8,1.3-1.5s0.5-1.6,0.5-2.7
		v-0.1h-2c-1,0-1.9,0.1-2.5,0.4s-1,0.6-1.3,1s-0.4,0.8-0.4,1.2s0.1,0.8,0.3,1.1s0.4,0.6,0.8,0.8S897.8,131.8,898.3,131.8z"/>
	<path class="st1" d="M909.6,133.2l-3.5-12.7h2.1l3,11.7h-0.4l3-11.7h2.5l3.1,11.8H919l3-11.8h2.1l-3.5,12.7h-2.8l-2.9-11.3h0.4
		l-2.9,11.3H909.6z"/>
</g>
<g class="st3">
	<path class="st1" d="M819,227.1c-1.6,0-3-0.4-4.2-1.1s-2.1-1.8-2.8-3.1s-1-2.8-1-4.6c0-1.7,0.3-3.2,1-4.5s1.5-2.3,2.7-3.1
		s2.6-1.1,4.3-1.1c1.7,0,3.1,0.4,4.4,1.3s2.1,2.2,2.5,4l-2.2,0.5c-0.3-1.4-0.9-2.4-1.8-3.1s-1.8-1-3-1c-1.2,0-2.2,0.3-3,0.9
		s-1.5,1.4-1.9,2.5s-0.7,2.2-0.7,3.6c0,1.4,0.2,2.6,0.7,3.6s1.1,1.9,1.9,2.5s1.8,0.9,2.9,0.9c1.2,0,2.3-0.4,3.2-1.1s1.5-1.8,1.7-3.1
		l2.3,0.6c-0.5,1.7-1.3,3.1-2.6,4S820.7,227.1,819,227.1z"/>
	<path class="st1" d="M829.8,212c-0.5,0-0.8-0.2-1.2-0.5s-0.5-0.7-0.5-1.2c0-0.5,0.2-0.8,0.5-1.2s0.7-0.5,1.2-0.5
		c0.5,0,0.8,0.2,1.2,0.5s0.5,0.7,0.5,1.2c0,0.5-0.2,0.8-0.5,1.2S830.2,212,829.8,212z M828.8,226.8v-12.7h2v12.7H828.8z"/>
	<path class="st1" d="M837.4,226.8c-0.5,0-0.9-0.2-1.3-0.5s-0.6-0.8-0.6-1.3v-9.3h-2v-1.6h2v-2.6l2-0.4v3.1h2.5v1.6h-2.5v8.7
		c0,0.3,0,0.4,0.1,0.5s0.2,0.1,0.5,0.1h1.9v1.6H837.4z"/>
	<path class="st1" d="M843.4,231.4v-1.6h1.9c0.1,0,0.2,0,0.3-0.1s0.2-0.2,0.2-0.4l0.9-2.6l-0.2,0.9l-5.1-13.3h2.2l4,11.7l-0.4-0.1
		l4-11.6h2.2l-6,15.8c-0.2,0.4-0.4,0.8-0.8,1s-0.8,0.4-1.2,0.4H843.4z"/>
	<path class="st1" d="M864.8,226.8c-0.5,0-0.9-0.2-1.3-0.5s-0.6-0.8-0.6-1.3v-9.3h-2v-1.6h2v-2.6l2-0.4v3.1h2.5v1.6h-2.5v8.7
		c0,0.3,0,0.4,0.1,0.5s0.2,0.1,0.5,0.1h1.9v1.6H864.8z"/>
</g>
<g class="st3">
	<path class="st1" d="M866.3,226.8v-12.7h1.9v2.7l-0.1-0.3c0.4-0.9,0.9-1.5,1.7-2s1.5-0.7,2.3-0.7c0.2,0,0.4,0,0.7,0.1
		s0.4,0.1,0.6,0.2l-0.3,1.9c-0.4-0.1-0.9-0.2-1.3-0.2c-0.3,0-0.6,0.1-1,0.2s-0.8,0.3-1.2,0.6s-0.7,0.8-1,1.4s-0.4,1.5-0.4,2.5v6.3
		H866.3z"/>
</g>
<g class="st3">
	<path class="st1" d="M877.2,227.1c-0.8,0-1.6-0.2-2.2-0.5s-1.1-0.8-1.4-1.3s-0.5-1.2-0.5-1.9c0-0.8,0.2-1.5,0.7-2.1
		s1.1-1.2,2.1-1.5s2.1-0.6,3.6-0.6h2.1l-0.2,0.2v-0.7c0-1-0.2-1.8-0.6-2.3s-1.1-0.8-2-0.8c-0.9,0-1.6,0.2-2.1,0.7s-0.7,1.1-0.8,1.9
		l-2.2-0.5c0.1-0.7,0.3-1.3,0.8-1.9s1.1-1,1.8-1.3s1.6-0.5,2.6-0.5c1,0,1.9,0.2,2.5,0.6s1.1,0.9,1.4,1.7s0.5,1.6,0.5,2.6v5.8
		c0,0.3,0,0.4,0.1,0.5s0.2,0.1,0.5,0.1h0.7v1.6h-1.3c-0.5,0-1-0.2-1.3-0.5s-0.5-0.8-0.5-1.3v-0.9h0.3c-0.1,0.3-0.3,0.7-0.5,1
		s-0.5,0.7-0.9,0.9s-0.8,0.5-1.3,0.7S877.9,227.1,877.2,227.1z M877.7,225.4c0.6,0,1.2-0.2,1.8-0.5s1-0.8,1.3-1.5s0.5-1.6,0.5-2.7
		v-0.1h-2c-1,0-1.9,0.1-2.5,0.4s-1,0.6-1.3,1s-0.4,0.8-0.4,1.2s0.1,0.8,0.3,1.1s0.4,0.6,0.8,0.8S877.1,225.4,877.7,225.4z"/>
	<path class="st1" d="M885.7,215.8v-1.6h6.7v1.6H885.7z M887.5,226.8v-15c0-0.9,0.2-1.6,0.7-2s1.2-0.6,2.2-0.6h1.6v1.6h-1.9
		c-0.2,0-0.4,0.1-0.5,0.2s-0.2,0.3-0.2,0.5v15.3H887.5z M893.8,215.8v-1.6h6.7v1.6H893.8z M895.7,226.8v-15c0-0.9,0.2-1.6,0.7-2
		s1.2-0.6,2.2-0.6h1.6v1.6h-1.9c-0.2,0-0.4,0.1-0.5,0.2s-0.2,0.3-0.2,0.5v15.3H895.7z M904,212c-0.5,0-0.8-0.2-1.2-0.5
		s-0.5-0.7-0.5-1.2c0-0.5,0.2-0.8,0.5-1.2s0.7-0.5,1.2-0.5c0.5,0,0.8,0.2,1.2,0.5s0.5,0.7,0.5,1.2c0,0.5-0.2,0.8-0.5,1.2
		S904.5,212,904,212z M903,226.8v-12.7h2v12.7H903z"/>
	<path class="st1" d="M913.8,227.1c-1.2,0-2.2-0.3-3.1-0.8s-1.5-1.3-2-2.3s-0.7-2.2-0.7-3.5s0.2-2.5,0.7-3.5s1.1-1.8,2-2.3
		s1.9-0.8,3.1-0.8c0.9,0,1.7,0.2,2.4,0.5s1.3,0.8,1.8,1.4s0.9,1.4,1.1,2.2l-2,0.5c-0.2-1-0.6-1.7-1.2-2.3s-1.3-0.8-2.2-0.8
		c-1.2,0-2.1,0.4-2.7,1.3s-0.9,2.1-0.9,3.7c0,1.6,0.3,2.8,0.9,3.7s1.5,1.3,2.7,1.3c0.9,0,1.6-0.3,2.1-0.8s1-1.3,1.2-2.2l2,0.6
		c-0.2,0.6-0.4,1.2-0.8,1.7s-0.7,0.9-1.2,1.3s-1,0.6-1.5,0.8S914.5,227.1,913.8,227.1z"/>
</g>
<g class="st3">
	<path class="st1" d="M817,406.8l-6.4-16.9h2.2l5.6,15.4h-0.4l5.5-15.4h2.2l-6.4,16.9H817z"/>
</g>
<g class="st3">
	<path class="st1" d="M831.8,407.1c-1.2,0-2.2-0.3-3.1-0.8s-1.6-1.3-2-2.3s-0.7-2.2-0.7-3.5c0-1.4,0.2-2.5,0.7-3.5s1.1-1.8,2-2.3
		s1.9-0.8,3.1-0.8c0.7,0,1.3,0.1,2,0.3s1.3,0.6,1.9,1.1s1,1.2,1.3,2.2s0.5,2.1,0.5,3.5h-10.3v-1.6h8.5l-0.6,0.7c0-1.1-0.2-2-0.5-2.7
		s-0.7-1.2-1.2-1.5s-1.1-0.5-1.7-0.5c-0.7,0-1.4,0.2-1.9,0.6s-1,1-1.2,1.7s-0.4,1.6-0.4,2.7c0,1.6,0.3,2.8,1,3.7s1.6,1.3,2.7,1.3
		c0.9,0,1.6-0.2,2.2-0.6s1-1.1,1.3-1.9l1.9,0.7c-0.3,0.7-0.7,1.4-1.2,1.9s-1.1,0.9-1.8,1.2S832.7,407.1,831.8,407.1z"/>
</g>
<g class="st3">
	<path class="st1" d="M839.4,406.8v-12.7h1.9v2.7l-0.1-0.3c0.4-0.9,0.9-1.5,1.7-2s1.5-0.7,2.3-0.7c0.2,0,0.4,0,0.7,0.1
		s0.4,0.1,0.6,0.2l-0.3,1.9c-0.4-0.1-0.9-0.2-1.3-0.2c-0.3,0-0.6,0.1-1,0.2s-0.8,0.3-1.2,0.6s-0.7,0.8-1,1.4s-0.4,1.5-0.4,2.5v6.3
		H839.4z"/>
</g>
<g class="st3">
	<path class="st1" d="M848.3,411.4v-1.6h1.9c0.1,0,0.2,0,0.3-0.1s0.2-0.2,0.2-0.4l0.9-2.6l-0.2,0.9l-5.1-13.3h2.2l4,11.7l-0.4-0.1
		l4-11.6h2.2l-6,15.8c-0.2,0.4-0.4,0.8-0.8,1s-0.8,0.4-1.2,0.4H848.3z"/>
	<path class="st1" d="M872,407.1c-1.2,0-2.2-0.3-3.1-0.8s-1.5-1.3-2-2.3s-0.7-2.2-0.7-3.5s0.2-2.5,0.7-3.5s1.1-1.8,2-2.3
		s1.9-0.8,3.1-0.8c0.9,0,1.7,0.2,2.4,0.5s1.3,0.8,1.8,1.4s0.9,1.4,1.1,2.2l-2,0.5c-0.2-1-0.6-1.7-1.2-2.3s-1.3-0.8-2.2-0.8
		c-1.2,0-2.1,0.4-2.7,1.3s-0.9,2.1-0.9,3.7c0,1.6,0.3,2.8,0.9,3.7s1.5,1.3,2.7,1.3c0.9,0,1.6-0.3,2.1-0.8s1-1.3,1.2-2.2l2,0.6
		c-0.2,0.6-0.4,1.2-0.8,1.7s-0.7,0.9-1.2,1.3s-1,0.6-1.5,0.8S872.7,407.1,872,407.1z"/>
	<path class="st1" d="M883.6,407.1c-0.8,0-1.6-0.2-2.2-0.5s-1.1-0.8-1.4-1.3s-0.5-1.2-0.5-1.9c0-0.8,0.2-1.5,0.7-2.1
		s1.1-1.2,2.1-1.5s2.1-0.6,3.6-0.6h2.1l-0.2,0.2v-0.7c0-1-0.2-1.8-0.6-2.3s-1.1-0.8-2-0.8c-0.9,0-1.6,0.2-2.1,0.7s-0.7,1.1-0.8,1.9
		l-2.2-0.5c0.1-0.7,0.3-1.3,0.8-1.9s1.1-1,1.8-1.3s1.6-0.5,2.6-0.5c1,0,1.9,0.2,2.5,0.6s1.1,0.9,1.4,1.7s0.5,1.6,0.5,2.6v5.8
		c0,0.3,0,0.4,0.1,0.5s0.2,0.1,0.5,0.1h0.7v1.6h-1.3c-0.5,0-1-0.2-1.3-0.5s-0.5-0.8-0.5-1.3v-0.9h0.3c-0.1,0.3-0.3,0.7-0.5,1
		s-0.5,0.7-0.9,0.9s-0.8,0.5-1.3,0.7S884.3,407.1,883.6,407.1z M884,405.4c0.6,0,1.2-0.2,1.8-0.5s1-0.8,1.3-1.5s0.5-1.6,0.5-2.7
		v-0.1h-2c-1,0-1.9,0.1-2.5,0.4s-1,0.6-1.3,1s-0.4,0.8-0.4,1.2s0.1,0.8,0.3,1.1s0.4,0.6,0.8,0.8S883.5,405.4,884,405.4z"/>
	<path class="st1" d="M895.4,406.8c-0.5,0-0.9-0.2-1.3-0.5s-0.6-0.8-0.6-1.3v-15.8h2v15.3c0,0.3,0,0.4,0.1,0.5s0.2,0.1,0.5,0.1h1.2
		v1.6H895.4z"/>
	<path class="st1" d="M899.9,406.8v-12.7h1.9v2.2c0.3-0.7,0.8-1.2,1.5-1.7s1.5-0.7,2.4-0.7c0.8,0,1.6,0.2,2.2,0.7s1.1,1.1,1.4,1.9
		c0.4-0.8,0.9-1.4,1.6-1.9s1.5-0.7,2.4-0.7c1.2,0,2.2,0.4,2.9,1.3s1.1,2.1,1.1,3.7v8h-2V399c0-0.7-0.1-1.3-0.2-1.9s-0.4-0.9-0.7-1.2
		s-0.8-0.4-1.4-0.4c-0.6,0-1.2,0.2-1.7,0.5s-0.9,0.9-1.2,1.6s-0.4,1.5-0.4,2.5v6.6h-2V399c0-0.7-0.1-1.3-0.2-1.9s-0.4-0.9-0.7-1.2
		s-0.8-0.4-1.4-0.4c-0.6,0-1.2,0.2-1.7,0.5s-0.9,0.9-1.2,1.6s-0.4,1.5-0.4,2.6v6.6H899.9z"/>
</g>
<g class="st3">
	<path class="st1" d="M923.4,406.8v-12.7h1.9v2.7l-0.1-0.3c0.4-0.9,0.9-1.5,1.7-2s1.5-0.7,2.3-0.7c0.2,0,0.4,0,0.7,0.1
		s0.4,0.1,0.6,0.2l-0.3,1.9c-0.4-0.1-0.9-0.2-1.3-0.2c-0.3,0-0.6,0.1-1,0.2s-0.8,0.3-1.2,0.6s-0.7,0.8-1,1.4s-0.4,1.5-0.4,2.5v6.3
		H923.4z"/>
</g>
<g class="st3">
	<path class="st1" d="M936.6,407.1c-1.2,0-2.2-0.3-3.1-0.8s-1.6-1.3-2.1-2.3s-0.8-2.1-0.8-3.4s0.3-2.5,0.8-3.4s1.2-1.8,2.1-2.3
		s2-0.8,3.1-0.8s2.2,0.3,3.1,0.8s1.6,1.3,2.1,2.3s0.8,2.1,0.8,3.4s-0.3,2.5-0.8,3.4s-1.2,1.8-2.1,2.3S937.7,407.1,936.6,407.1z
		 M936.6,405.4c1.2,0,2.1-0.4,2.8-1.3s1-2.1,1-3.6c0-1.5-0.3-2.8-1-3.6s-1.6-1.3-2.8-1.3s-2.1,0.4-2.8,1.3s-1,2.1-1,3.6
		c0,1.5,0.3,2.7,1,3.6S935.4,405.4,936.6,405.4z"/>
	<path class="st1" d="M951.4,407.1c-1.2,0-2.2-0.3-3.1-0.8s-1.6-1.3-2.1-2.3s-0.8-2.1-0.8-3.4s0.3-2.5,0.8-3.4s1.2-1.8,2.1-2.3
		s2-0.8,3.1-0.8s2.2,0.3,3.1,0.8s1.6,1.3,2.1,2.3s0.8,2.1,0.8,3.4s-0.3,2.5-0.8,3.4s-1.2,1.8-2.1,2.3S952.6,407.1,951.4,407.1z
		 M951.4,405.4c1.2,0,2.1-0.4,2.8-1.3s1-2.1,1-3.6c0-1.5-0.3-2.8-1-3.6s-1.6-1.3-2.8-1.3s-2.1,0.4-2.8,1.3s-1,2.1-1,3.6
		c0,1.5,0.3,2.7,1,3.6S950.2,405.4,951.4,405.4z"/>
	<path class="st1" d="M960.3,406.8v-12.7h1.9v2.2c0.3-0.7,0.8-1.2,1.5-1.7s1.5-0.7,2.4-0.7c0.8,0,1.6,0.2,2.2,0.7s1.1,1.1,1.4,1.9
		c0.4-0.8,0.9-1.4,1.6-1.9s1.5-0.7,2.4-0.7c1.2,0,2.2,0.4,2.9,1.3s1.1,2.1,1.1,3.7v8h-2V399c0-0.7-0.1-1.3-0.2-1.9s-0.4-0.9-0.7-1.2
		s-0.8-0.4-1.4-0.4c-0.6,0-1.2,0.2-1.7,0.5s-0.9,0.9-1.2,1.6s-0.4,1.5-0.4,2.5v6.6h-2V399c0-0.7-0.1-1.3-0.2-1.9s-0.4-0.9-0.7-1.2
		s-0.8-0.4-1.4-0.4c-0.6,0-1.2,0.2-1.7,0.5s-0.9,0.9-1.2,1.6s-0.4,1.5-0.4,2.6v6.6H960.3z"/>
	<path class="st1" d="M990.6,407.1c-0.8,0-1.6-0.2-2.2-0.5s-1.1-0.8-1.4-1.3s-0.5-1.2-0.5-1.9c0-0.8,0.2-1.5,0.7-2.1
		s1.1-1.2,2.1-1.5s2.1-0.6,3.6-0.6h2.1l-0.2,0.2v-0.7c0-1-0.2-1.8-0.6-2.3s-1.1-0.8-2-0.8c-0.9,0-1.6,0.2-2.1,0.7s-0.7,1.1-0.8,1.9
		l-2.2-0.5c0.1-0.7,0.3-1.3,0.8-1.9s1.1-1,1.8-1.3s1.6-0.5,2.6-0.5c1,0,1.9,0.2,2.5,0.6s1.1,0.9,1.4,1.7s0.5,1.6,0.5,2.6v5.8
		c0,0.3,0,0.4,0.1,0.5s0.2,0.1,0.5,0.1h0.7v1.6h-1.3c-0.5,0-1-0.2-1.3-0.5s-0.5-0.8-0.5-1.3v-0.9h0.3c-0.1,0.3-0.3,0.7-0.5,1
		s-0.5,0.7-0.9,0.9s-0.8,0.5-1.3,0.7S991.3,407.1,990.6,407.1z M991.1,405.4c0.6,0,1.2-0.2,1.8-0.5s1-0.8,1.3-1.5s0.5-1.6,0.5-2.7
		v-0.1h-2c-1,0-1.9,0.1-2.5,0.4s-1,0.6-1.3,1s-0.4,0.8-0.4,1.2s0.1,0.8,0.3,1.1s0.4,0.6,0.8,0.8S990.5,405.4,991.1,405.4z"/>
	<path class="st1" d="M1002.9,406.8c-0.5,0-0.9-0.2-1.3-0.5s-0.6-0.8-0.6-1.3v-9.3h-2v-1.6h2v-2.6l2-0.4v3.1h2.5v1.6h-2.5v8.7
		c0,0.3,0,0.4,0.1,0.5s0.2,0.1,0.5,0.1h1.9v1.6H1002.9z"/>
	<path class="st1" d="M1014.4,406.8v-12.7h1.9v2.9l-0.1-0.5c0.3-0.7,0.9-1.3,1.6-1.9s1.6-0.8,2.6-0.8c0.9,0,1.7,0.2,2.3,0.6
		s1.1,1,1.5,1.7s0.5,1.6,0.5,2.7v8h-2V399c0-1-0.2-1.9-0.6-2.5s-1.1-1-2.1-1c-1.1,0-1.9,0.4-2.6,1.2s-1,2-1,3.5v6.6H1014.4z"/>
	<path class="st1" d="M1029.3,392c-0.5,0-0.8-0.2-1.2-0.5s-0.5-0.7-0.5-1.2c0-0.5,0.2-0.8,0.5-1.2s0.7-0.5,1.2-0.5
		c0.5,0,0.8,0.2,1.2,0.5s0.5,0.7,0.5,1.2c0,0.5-0.2,0.8-0.5,1.2S1029.8,392,1029.3,392z M1028.4,406.8v-12.7h2v12.7H1028.4z"/>
	<path class="st1" d="M1038.6,411.7c-1.9,0-3.3-0.3-4.2-0.8s-1.3-1.3-1.3-2.4c0-0.6,0.2-1.2,0.5-1.7s0.9-0.9,1.7-1.1
		c-0.3-0.2-0.5-0.4-0.7-0.7s-0.3-0.6-0.3-1c0-0.4,0.1-0.8,0.4-1.2s0.7-0.6,1.2-0.7c-0.6-0.4-1.1-0.9-1.5-1.5s-0.5-1.4-0.5-2.2
		c0-0.9,0.2-1.7,0.6-2.3s1-1.2,1.7-1.5s1.6-0.5,2.7-0.5s1.9,0.2,2.7,0.5s1.3,0.9,1.7,1.5s0.6,1.5,0.6,2.4c0,0.9-0.2,1.7-0.6,2.3
		s-1,1.2-1.8,1.5s-1.7,0.5-2.7,0.5h-1.1c-1,0-1.5,0.3-1.5,0.9c0,0.6,0.5,0.8,1.4,0.8h2.5c1,0,1.8,0.1,2.4,0.3s1.1,0.5,1.4,0.9
		s0.5,0.8,0.7,1.2s0.2,0.8,0.2,1.2c0,1.2-0.4,2.2-1.3,2.8s-2.3,0.9-4.2,0.9H1038.6z M1038.6,410.1h0.7c2.3,0,3.5-0.7,3.5-2.1
		c0-0.6-0.2-1.1-0.6-1.4s-1.1-0.6-2.1-0.6h-2.2c-0.8,0-1.4,0.2-2,0.5s-0.8,0.8-0.8,1.6c0,0.7,0.3,1.2,0.8,1.5
		S1037.4,410.1,1038.6,410.1z M1038.8,401.3c1,0,1.8-0.3,2.3-0.8s0.8-1.3,0.8-2.2c0-1-0.3-1.7-0.8-2.2s-1.3-0.8-2.3-0.8
		c-1,0-1.7,0.3-2.3,0.8s-0.8,1.3-0.8,2.2s0.3,1.7,0.8,2.2S1037.9,401.3,1038.8,401.3z M1040.9,395.2v-1.3c0-0.5,0.2-0.9,0.6-1.3
		s0.8-0.5,1.3-0.5h1.5v1.6h-1.3c-0.2,0-0.4,0-0.5,0.1s-0.1,0.3-0.1,0.5v0.7H1040.9z"/>
	<path class="st1" d="M1047.5,406.8v-17.6h2v7.9l-0.2-0.5c0.3-0.8,0.9-1.4,1.6-2s1.6-0.8,2.7-0.8c0.9,0,1.7,0.2,2.3,0.6
		s1.1,1,1.5,1.7s0.5,1.6,0.5,2.7v8h-2V399c0-1.1-0.2-1.9-0.6-2.5s-1.1-0.9-2.1-0.9c-1.1,0-2,0.4-2.7,1.2s-1,1.9-1,3.5v6.6H1047.5z"
		/>
	<path class="st1" d="M1063.8,406.8c-0.5,0-0.9-0.2-1.3-0.5s-0.6-0.8-0.6-1.3v-9.3h-2v-1.6h2v-2.6l2-0.4v3.1h2.5v1.6h-2.5v8.7
		c0,0.3,0,0.4,0.1,0.5s0.2,0.1,0.5,0.1h1.9v1.6H1063.8z"/>
</g>
</svg>
