<?xml version="1.0" encoding="UTF-8"?>
<svg id="Ebene_1" data-name="Ebene 1" xmlns="http://www.w3.org/2000/svg" width="2005.2" height="1033.2" viewBox="0 0 2005.2 1033.2">
  <g id="samples">
    <g>
      <g>
        <line x1="219.6" y1="435.8" x2="219.6" y2="441.8" fill="none" stroke="#7f7f7f" stroke-miterlimit="10" stroke-width="2"/>
        <line x1="219.6" y1="452.8" x2="219.6" y2="535.7" fill="none" stroke="#7f7f7f" stroke-dasharray="0 0 0 0 0 0 11.05 11.05" stroke-miterlimit="10" stroke-width="2"/>
        <line x1="219.6" y1="541.2" x2="219.6" y2="547.2" fill="none" stroke="#7f7f7f" stroke-miterlimit="10" stroke-width="2"/>
      </g>
      <g>
        <line x1="291.6" y1="330.2" x2="291.6" y2="336.2" fill="none" stroke="#7f7f7f" stroke-miterlimit="10" stroke-width="2"/>
        <line x1="291.6" y1="348.3" x2="291.6" y2="535.2" fill="none" stroke="#7f7f7f" stroke-dasharray="0 0 0 0 0 0 12.06 12.06" stroke-miterlimit="10" stroke-width="2"/>
        <line x1="291.6" y1="541.2" x2="291.6" y2="547.2" fill="none" stroke="#7f7f7f" stroke-miterlimit="10" stroke-width="2"/>
      </g>
      <g>
        <line x1="363.6" y1="240.9" x2="363.6" y2="246.9" fill="none" stroke="#7f7f7f" stroke-miterlimit="10" stroke-width="2"/>
        <line x1="363.6" y1="258.7" x2="363.6" y2="535.3" fill="none" stroke="#7f7f7f" stroke-dasharray="0 0 0 0 0 0 11.77 11.77" stroke-miterlimit="10" stroke-width="2"/>
        <line x1="363.6" y1="541.2" x2="363.6" y2="547.2" fill="none" stroke="#7f7f7f" stroke-miterlimit="10" stroke-width="2"/>
      </g>
      <g>
        <line x1="435.6" y1="172" x2="435.6" y2="178" fill="none" stroke="#7f7f7f" stroke-miterlimit="10" stroke-width="2"/>
        <line x1="435.6" y1="189.7" x2="435.6" y2="535.3" fill="none" stroke="#7f7f7f" stroke-dasharray="0 0 0 0 0 0 11.72 11.72" stroke-miterlimit="10" stroke-width="2"/>
        <line x1="435.6" y1="541.2" x2="435.6" y2="547.2" fill="none" stroke="#7f7f7f" stroke-miterlimit="10" stroke-width="2"/>
      </g>
      <g>
        <line x1="507.6" y1="129.5" x2="507.6" y2="135.5" fill="none" stroke="#7f7f7f" stroke-miterlimit="10" stroke-width="2"/>
        <line x1="507.6" y1="147.8" x2="507.6" y2="535" fill="none" stroke="#7f7f7f" stroke-dasharray="0 0 0 0 0 0 12.29 12.29" stroke-miterlimit="10" stroke-width="2"/>
        <line x1="507.6" y1="541.2" x2="507.6" y2="547.2" fill="none" stroke="#7f7f7f" stroke-miterlimit="10" stroke-width="2"/>
      </g>
      <g>
        <g>
          <line x1="939.6" y1="435.8" x2="939.6" y2="441.8" fill="none" stroke="#7f7f7f" stroke-miterlimit="10" stroke-width="2"/>
          <line x1="939.6" y1="452.8" x2="939.6" y2="535.7" fill="none" stroke="#7f7f7f" stroke-dasharray="0 0 0 0 0 0 11.05 11.05" stroke-miterlimit="10" stroke-width="2"/>
          <line x1="939.6" y1="541.2" x2="939.6" y2="547.2" fill="none" stroke="#7f7f7f" stroke-miterlimit="10" stroke-width="2"/>
        </g>
        <g>
          <line x1="867.6" y1="330.2" x2="867.6" y2="336.2" fill="none" stroke="#7f7f7f" stroke-miterlimit="10" stroke-width="2"/>
          <line x1="867.6" y1="348.3" x2="867.6" y2="535.2" fill="none" stroke="#7f7f7f" stroke-dasharray="0 0 0 0 0 0 12.06 12.06" stroke-miterlimit="10" stroke-width="2"/>
          <line x1="867.6" y1="541.2" x2="867.6" y2="547.2" fill="none" stroke="#7f7f7f" stroke-miterlimit="10" stroke-width="2"/>
        </g>
        <g>
          <line x1="795.6" y1="240.9" x2="795.6" y2="246.9" fill="none" stroke="#7f7f7f" stroke-miterlimit="10" stroke-width="2"/>
          <line x1="795.6" y1="258.7" x2="795.6" y2="535.3" fill="none" stroke="#7f7f7f" stroke-dasharray="0 0 0 0 0 0 11.77 11.77" stroke-miterlimit="10" stroke-width="2"/>
          <line x1="795.6" y1="541.2" x2="795.6" y2="547.2" fill="none" stroke="#7f7f7f" stroke-miterlimit="10" stroke-width="2"/>
        </g>
        <g>
          <line x1="723.6" y1="172" x2="723.6" y2="178" fill="none" stroke="#7f7f7f" stroke-miterlimit="10" stroke-width="2"/>
          <line x1="723.6" y1="189.7" x2="723.6" y2="535.3" fill="none" stroke="#7f7f7f" stroke-dasharray="0 0 0 0 0 0 11.72 11.72" stroke-miterlimit="10" stroke-width="2"/>
          <line x1="723.6" y1="541.2" x2="723.6" y2="547.2" fill="none" stroke="#7f7f7f" stroke-miterlimit="10" stroke-width="2"/>
        </g>
        <g>
          <line x1="651.6" y1="129.5" x2="651.6" y2="135.5" fill="none" stroke="#7f7f7f" stroke-miterlimit="10" stroke-width="2"/>
          <line x1="651.6" y1="147.8" x2="651.6" y2="535.1" fill="none" stroke="#7f7f7f" stroke-dasharray="0 0 0 0 0 0 12.29 12.29" stroke-miterlimit="10" stroke-width="2"/>
          <line x1="651.6" y1="541.2" x2="651.6" y2="547.2" fill="none" stroke="#7f7f7f" stroke-miterlimit="10" stroke-width="2"/>
        </g>
        <g>
          <line x1="579.6" y1="115.2" x2="579.6" y2="121.2" fill="none" stroke="#7f7f7f" stroke-miterlimit="10" stroke-width="2"/>
          <line x1="579.6" y1="133.2" x2="579.6" y2="535.2" fill="none" stroke="#7f7f7f" stroke-dasharray="0 0 0 0 0 0 12 12" stroke-miterlimit="10" stroke-width="2"/>
          <line x1="579.6" y1="541.2" x2="579.6" y2="547.2" fill="none" stroke="#7f7f7f" stroke-miterlimit="10" stroke-width="2"/>
        </g>
      </g>
    </g>
    <g>
      <g>
        <line x1="1083.6" y1="435.8" x2="1083.6" y2="441.8" fill="none" stroke="#7f7f7f" stroke-miterlimit="10" stroke-width="2"/>
        <line x1="1083.6" y1="452.8" x2="1083.6" y2="535.7" fill="none" stroke="#7f7f7f" stroke-dasharray="0 0 0 0 0 0 11.05 11.05" stroke-miterlimit="10" stroke-width="2"/>
        <line x1="1083.6" y1="541.2" x2="1083.6" y2="547.2" fill="none" stroke="#7f7f7f" stroke-miterlimit="10" stroke-width="2"/>
      </g>
      <g>
        <line x1="1155.6" y1="330.2" x2="1155.6" y2="336.2" fill="none" stroke="#7f7f7f" stroke-miterlimit="10" stroke-width="2"/>
        <line x1="1155.6" y1="348.3" x2="1155.6" y2="535.2" fill="none" stroke="#7f7f7f" stroke-dasharray="0 0 0 0 0 0 12.06 12.06" stroke-miterlimit="10" stroke-width="2"/>
        <line x1="1155.6" y1="541.2" x2="1155.6" y2="547.2" fill="none" stroke="#7f7f7f" stroke-miterlimit="10" stroke-width="2"/>
      </g>
      <g>
        <line x1="1227.6" y1="240.9" x2="1227.6" y2="246.9" fill="none" stroke="#7f7f7f" stroke-miterlimit="10" stroke-width="2"/>
        <line x1="1227.6" y1="258.7" x2="1227.6" y2="535.3" fill="none" stroke="#7f7f7f" stroke-dasharray="0 0 0 0 0 0 11.77 11.77" stroke-miterlimit="10" stroke-width="2"/>
        <line x1="1227.6" y1="541.2" x2="1227.6" y2="547.2" fill="none" stroke="#7f7f7f" stroke-miterlimit="10" stroke-width="2"/>
      </g>
      <g>
        <line x1="1299.6" y1="172" x2="1299.6" y2="178" fill="none" stroke="#7f7f7f" stroke-miterlimit="10" stroke-width="2"/>
        <line x1="1299.6" y1="189.7" x2="1299.6" y2="535.3" fill="none" stroke="#7f7f7f" stroke-dasharray="0 0 0 0 0 0 11.72 11.72" stroke-miterlimit="10" stroke-width="2"/>
        <line x1="1299.6" y1="541.2" x2="1299.6" y2="547.2" fill="none" stroke="#7f7f7f" stroke-miterlimit="10" stroke-width="2"/>
      </g>
      <g>
        <line x1="1371.6" y1="129.5" x2="1371.6" y2="135.5" fill="none" stroke="#7f7f7f" stroke-miterlimit="10" stroke-width="2"/>
        <line x1="1371.6" y1="147.8" x2="1371.6" y2="535" fill="none" stroke="#7f7f7f" stroke-dasharray="0 0 0 0 0 0 12.29 12.29" stroke-miterlimit="10" stroke-width="2"/>
        <line x1="1371.6" y1="541.2" x2="1371.6" y2="547.2" fill="none" stroke="#7f7f7f" stroke-miterlimit="10" stroke-width="2"/>
      </g>
      <g>
        <g>
          <line x1="1803.6" y1="435.8" x2="1803.6" y2="441.8" fill="none" stroke="#7f7f7f" stroke-miterlimit="10" stroke-width="2"/>
          <line x1="1803.6" y1="452.8" x2="1803.6" y2="535.7" fill="none" stroke="#7f7f7f" stroke-dasharray="0 0 0 0 0 0 11.05 11.05" stroke-miterlimit="10" stroke-width="2"/>
          <line x1="1803.6" y1="541.2" x2="1803.6" y2="547.2" fill="none" stroke="#7f7f7f" stroke-miterlimit="10" stroke-width="2"/>
        </g>
        <g>
          <line x1="1731.6" y1="330.2" x2="1731.6" y2="336.2" fill="none" stroke="#7f7f7f" stroke-miterlimit="10" stroke-width="2"/>
          <line x1="1731.6" y1="348.3" x2="1731.6" y2="535.2" fill="none" stroke="#7f7f7f" stroke-dasharray="0 0 0 0 0 0 12.06 12.06" stroke-miterlimit="10" stroke-width="2"/>
          <line x1="1731.6" y1="541.2" x2="1731.6" y2="547.2" fill="none" stroke="#7f7f7f" stroke-miterlimit="10" stroke-width="2"/>
        </g>
        <g>
          <line x1="1659.6" y1="240.9" x2="1659.6" y2="246.9" fill="none" stroke="#7f7f7f" stroke-miterlimit="10" stroke-width="2"/>
          <line x1="1659.6" y1="258.7" x2="1659.6" y2="535.3" fill="none" stroke="#7f7f7f" stroke-dasharray="0 0 0 0 0 0 11.77 11.77" stroke-miterlimit="10" stroke-width="2"/>
          <line x1="1659.6" y1="541.2" x2="1659.6" y2="547.2" fill="none" stroke="#7f7f7f" stroke-miterlimit="10" stroke-width="2"/>
        </g>
        <g>
          <line x1="1587.6" y1="172" x2="1587.6" y2="178" fill="none" stroke="#7f7f7f" stroke-miterlimit="10" stroke-width="2"/>
          <line x1="1587.6" y1="189.7" x2="1587.6" y2="535.3" fill="none" stroke="#7f7f7f" stroke-dasharray="0 0 0 0 0 0 11.72 11.72" stroke-miterlimit="10" stroke-width="2"/>
          <line x1="1587.6" y1="541.2" x2="1587.6" y2="547.2" fill="none" stroke="#7f7f7f" stroke-miterlimit="10" stroke-width="2"/>
        </g>
        <g>
          <line x1="1515.6" y1="129.5" x2="1515.6" y2="135.5" fill="none" stroke="#7f7f7f" stroke-miterlimit="10" stroke-width="2"/>
          <line x1="1515.6" y1="147.8" x2="1515.6" y2="535" fill="none" stroke="#7f7f7f" stroke-dasharray="0 0 0 0 0 0 12.29 12.29" stroke-miterlimit="10" stroke-width="2"/>
          <line x1="1515.6" y1="541.2" x2="1515.6" y2="547.2" fill="none" stroke="#7f7f7f" stroke-miterlimit="10" stroke-width="2"/>
        </g>
        <g>
          <line x1="1443.6" y1="115.2" x2="1443.6" y2="121.2" fill="none" stroke="#7f7f7f" stroke-miterlimit="10" stroke-width="2"/>
          <line x1="1443.6" y1="133.2" x2="1443.6" y2="535.2" fill="none" stroke="#7f7f7f" stroke-dasharray="0 0 0 0 0 0 12 12" stroke-miterlimit="10" stroke-width="2"/>
          <line x1="1443.6" y1="541.2" x2="1443.6" y2="547.2" fill="none" stroke="#7f7f7f" stroke-miterlimit="10" stroke-width="2"/>
        </g>
      </g>
    </g>
    <g>
      <g>
        <line x1="1803.6" y1="658.7" x2="1803.6" y2="652.7" fill="none" stroke="#7f7f7f" stroke-miterlimit="10" stroke-width="2"/>
        <line x1="1803.6" y1="641.6" x2="1803.6" y2="558.7" fill="none" stroke="#7f7f7f" stroke-dasharray="0 0 0 0 0 0 11.05 11.05" stroke-miterlimit="10" stroke-width="2"/>
        <line x1="1803.6" y1="553.2" x2="1803.6" y2="547.2" fill="none" stroke="#7f7f7f" stroke-miterlimit="10" stroke-width="2"/>
      </g>
      <g>
        <line x1="1731.6" y1="764.2" x2="1731.6" y2="758.2" fill="none" stroke="#7f7f7f" stroke-miterlimit="10" stroke-width="2"/>
        <line x1="1731.6" y1="746.1" x2="1731.6" y2="559.2" fill="none" stroke="#7f7f7f" stroke-dasharray="0 0 0 0 0 0 12.06 12.06" stroke-miterlimit="10" stroke-width="2"/>
        <line x1="1731.6" y1="553.2" x2="1731.6" y2="547.2" fill="none" stroke="#7f7f7f" stroke-miterlimit="10" stroke-width="2"/>
      </g>
      <g>
        <line x1="1659.6" y1="853.5" x2="1659.6" y2="847.5" fill="none" stroke="#7f7f7f" stroke-miterlimit="10" stroke-width="2"/>
        <line x1="1659.6" y1="835.7" x2="1659.6" y2="559.1" fill="none" stroke="#7f7f7f" stroke-dasharray="0 0 0 0 0 0 11.77 11.77" stroke-miterlimit="10" stroke-width="2"/>
        <line x1="1659.6" y1="553.2" x2="1659.6" y2="547.2" fill="none" stroke="#7f7f7f" stroke-miterlimit="10" stroke-width="2"/>
      </g>
      <g>
        <line x1="1587.6" y1="922.4" x2="1587.6" y2="916.4" fill="none" stroke="#7f7f7f" stroke-miterlimit="10" stroke-width="2"/>
        <line x1="1587.6" y1="904.7" x2="1587.6" y2="559.1" fill="none" stroke="#7f7f7f" stroke-dasharray="0 0 0 0 0 0 11.72 11.72" stroke-miterlimit="10" stroke-width="2"/>
        <line x1="1587.6" y1="553.2" x2="1587.6" y2="547.2" fill="none" stroke="#7f7f7f" stroke-miterlimit="10" stroke-width="2"/>
      </g>
      <g>
        <line x1="1515.6" y1="964.9" x2="1515.6" y2="958.9" fill="none" stroke="#7f7f7f" stroke-miterlimit="10" stroke-width="2"/>
        <line x1="1515.6" y1="946.6" x2="1515.6" y2="559.3" fill="none" stroke="#7f7f7f" stroke-dasharray="0 0 0 0 0 0 12.29 12.29" stroke-miterlimit="10" stroke-width="2"/>
        <line x1="1515.6" y1="553.2" x2="1515.6" y2="547.2" fill="none" stroke="#7f7f7f" stroke-miterlimit="10" stroke-width="2"/>
      </g>
      <g>
        <g>
          <line x1="1083.6" y1="658.6" x2="1083.6" y2="652.6" fill="none" stroke="#7f7f7f" stroke-miterlimit="10" stroke-width="2"/>
          <line x1="1083.6" y1="641.6" x2="1083.6" y2="558.7" fill="none" stroke="#7f7f7f" stroke-dasharray="0 0 0 0 0 0 11.05 11.05" stroke-miterlimit="10" stroke-width="2"/>
          <line x1="1083.6" y1="553.2" x2="1083.6" y2="547.2" fill="none" stroke="#7f7f7f" stroke-miterlimit="10" stroke-width="2"/>
        </g>
        <g>
          <line x1="1155.6" y1="764.2" x2="1155.6" y2="758.2" fill="none" stroke="#7f7f7f" stroke-miterlimit="10" stroke-width="2"/>
          <line x1="1155.6" y1="746.1" x2="1155.6" y2="559.2" fill="none" stroke="#7f7f7f" stroke-dasharray="0 0 0 0 0 0 12.06 12.06" stroke-miterlimit="10" stroke-width="2"/>
          <line x1="1155.6" y1="553.2" x2="1155.6" y2="547.2" fill="none" stroke="#7f7f7f" stroke-miterlimit="10" stroke-width="2"/>
        </g>
        <g>
          <line x1="1227.6" y1="853.5" x2="1227.6" y2="847.5" fill="none" stroke="#7f7f7f" stroke-miterlimit="10" stroke-width="2"/>
          <line x1="1227.6" y1="835.7" x2="1227.6" y2="559.1" fill="none" stroke="#7f7f7f" stroke-dasharray="0 0 0 0 0 0 11.77 11.77" stroke-miterlimit="10" stroke-width="2"/>
          <line x1="1227.6" y1="553.2" x2="1227.6" y2="547.2" fill="none" stroke="#7f7f7f" stroke-miterlimit="10" stroke-width="2"/>
        </g>
        <g>
          <line x1="1299.6" y1="922.4" x2="1299.6" y2="916.4" fill="none" stroke="#7f7f7f" stroke-miterlimit="10" stroke-width="2"/>
          <line x1="1299.6" y1="904.7" x2="1299.6" y2="559.1" fill="none" stroke="#7f7f7f" stroke-dasharray="0 0 0 0 0 0 11.72 11.72" stroke-miterlimit="10" stroke-width="2"/>
          <line x1="1299.6" y1="553.2" x2="1299.6" y2="547.2" fill="none" stroke="#7f7f7f" stroke-miterlimit="10" stroke-width="2"/>
        </g>
        <g>
          <line x1="1371.6" y1="964.9" x2="1371.6" y2="958.9" fill="none" stroke="#7f7f7f" stroke-miterlimit="10" stroke-width="2"/>
          <line x1="1371.6" y1="946.6" x2="1371.6" y2="559.3" fill="none" stroke="#7f7f7f" stroke-dasharray="0 0 0 0 0 0 12.29 12.29" stroke-miterlimit="10" stroke-width="2"/>
          <line x1="1371.6" y1="553.2" x2="1371.6" y2="547.2" fill="none" stroke="#7f7f7f" stroke-miterlimit="10" stroke-width="2"/>
        </g>
        <g>
          <line x1="1443.6" y1="979.2" x2="1443.6" y2="973.2" fill="none" stroke="#7f7f7f" stroke-miterlimit="10" stroke-width="2"/>
          <line x1="1443.6" y1="961.2" x2="1443.6" y2="559.2" fill="none" stroke="#7f7f7f" stroke-dasharray="0 0 0 0 0 0 12 12" stroke-miterlimit="10" stroke-width="2"/>
          <line x1="1443.6" y1="553.2" x2="1443.6" y2="547.2" fill="none" stroke="#7f7f7f" stroke-miterlimit="10" stroke-width="2"/>
        </g>
      </g>
    </g>
  </g>
  <path d="m147.6,547.2c.5-.7.7-1.1.7-1.1l93.7-145,50.1-71.6,42-54.5,37.1-42.9,33.9-34.1,30.7-26.3,29.1-20.5,27.5-15.3,24.2-10.1,22.6-6.4,21-3.3,19.4-.8" fill="none" stroke="#d85648" stroke-miterlimit="10" stroke-width="5"/>
  <path d="m1011.6,547.2c-.5-.7-.7-1.1-.7-1.1l-93.7-145-50.1-71.6-42-54.5-37.1-42.9-34-34.1-30.7-26.3-29.1-20.5-27.5-15.3-24.2-10.1-22.6-6.4-21-3.3-19.4-.8" fill="none" stroke="#d85648" stroke-miterlimit="10" stroke-width="3"/>
  <path d="m1875.6,547.2c-.5.7-.7,1.1-.7,1.1l-93.7,145-50.1,71.6-42,54.5-37.2,42.9-33.9,34.1-30.7,26.3-29.1,20.5-27.5,15.3-24.2,10.1-22.5,6.4-21,3.3-19.4.8" fill="none" stroke="#c9d1d9" stroke-miterlimit="10" stroke-width="3"/>
  <path d="m1011.6,547.2c.5.7.7,1.1.7,1.1l93.7,145,50.1,71.6,42,54.5,37.2,42.9,33.9,34.1,30.7,26.3,29.1,20.5,27.5,15.3,24.2,10.1,22.6,6.4,21,3.3,19.4.8" fill="none" stroke="#c9d1d9" stroke-miterlimit="10" stroke-width="3"/>
  <g>
    <path d="m1875.6,547.2c-.5-.7-.7-1.1-.7-1.1l-93.7-145-50.1-71.6-42-54.5-37.2-42.9-33.9-34.1-30.7-26.3-29.1-20.5-27.5-15.3-24.2-10.1-22.6-6.4-21-3.3-19.4-.8" fill="none" stroke="#d85648" stroke-miterlimit="10" stroke-width="3"/>
    <path d="m1011.6,547.2c.5-.7.7-1.1.7-1.1l93.7-145,50.1-71.6,42-54.5,37.2-42.9,33.9-34.1,30.7-26.3,29.1-20.5,27.5-15.3,24.2-10.1,22.6-6.4,21-3.3,19.4-.8" fill="none" stroke="#d85648" stroke-miterlimit="10" stroke-width="3"/>
  </g>
  <g>
    <line x1="147.6" y1="127.1" x2="147.6" y2="967.3" fill="none" stroke="#c9d1d9" stroke-miterlimit="10" stroke-width="5"/>
    <polygon points="133.1 137 147.6 82.8 162.1 137 133.1 137" fill="#c9d1d9"/>
    <polygon points="133.1 957.4 147.6 1011.6 162.1 957.4 133.1 957.4" fill="#c9d1d9"/>
  </g>
  <g>
    <line x1="1942.9" y1="547.2" x2="147.6" y2="547.2" fill="none" stroke="#c9d1d9" stroke-miterlimit="10" stroke-width="5"/>
    <polygon points="1933 532.7 1987.2 547.2 1933 561.7 1933 532.7" fill="#c9d1d9"/>
  </g>
  <g>
    <line x1="147.6" y1="241.8" x2="153.6" y2="241.8" fill="none" stroke="#c9d1d9" stroke-miterlimit="10" stroke-width="3"/>
    <line x1="165.6" y1="241.8" x2="1863.6" y2="241.8" fill="none" stroke="#c9d1d9" stroke-dasharray="0 0 0 0 0 0 12 12" stroke-miterlimit="10" stroke-width="3"/>
    <line x1="1869.6" y1="241.8" x2="1875.6" y2="241.8" fill="none" stroke="#c9d1d9" stroke-miterlimit="10" stroke-width="3"/>
  </g>
  <g>
    <line x1="152.4" y1="50.4" x2="1870.8" y2="50.4" fill="none" stroke="#c9d1d9" stroke-miterlimit="10" stroke-width="4"/>
    <path d="m179.8,69.6c.6-.9.3-2.2-.6-2.8l-25.8-16.4,25.7-16.4c.9-.6,1.2-1.8.6-2.8-.6-.9-1.8-1.2-2.8-.6l-28.5,18.1c-.6.4-.9,1-.9,1.7s.4,1.3.9,1.7l28.6,18.1c.3.2.7.3,1.1.3.6,0,1.3-.3,1.7-.9h0Z" fill="#c9d1d9"/>
    <path d="m1843.4,69.6c-.6-.9-.3-2.2.6-2.8l25.8-16.4-25.7-16.4c-.9-.6-1.2-1.8-.6-2.8.6-.9,1.8-1.2,2.8-.6l28.5,18.1c.6.4.9,1,.9,1.7s-.3,1.3-.9,1.7l-28.5,18.1c-.3.2-.7.3-1.1.3-.7,0-1.4-.3-1.8-.9h0Z" fill="#c9d1d9"/>
  </g>
  <g isolation="isolate">
    <path d="m926,39.6V5.9h12.2c3.9,0,6.9.8,8.8,2.4,1.9,1.6,3,3.9,3,7,0,3-1,5.3-2.9,6.9s-4.9,2.5-8.9,2.5h-7.9v15h-4.3v-.1Zm4.2-18.4h7.9c2.4,0,4.3-.5,5.6-1.6s1.9-2.5,1.9-4.3c0-1.6-.6-3-1.7-4.2s-3.1-1.8-5.8-1.8h-7.9v11.9Z" fill="#c9d1d9"/>
  </g>
  <g isolation="isolate">
    <path d="m966.2,40.2c-2.4,0-4.5-.5-6.2-1.6s-3.1-2.6-4.1-4.6-1.4-4.3-1.4-7,.5-5,1.4-7,2.3-3.5,4-4.6,3.8-1.6,6.1-1.6c1.3,0,2.7.2,4,.6s2.6,1.2,3.7,2.2c1.1,1,2,2.5,2.7,4.3s1,4.2,1,6.9h-20.4v-3.2h17.1l-1.1,1.5c-.1-2.2-.4-4-1.1-5.3s-1.5-2.3-2.5-2.9-2.2-.9-3.4-.9c-1.5,0-2.8.4-3.8,1.2s-1.9,1.9-2.5,3.4-.9,3.3-.9,5.4c0,3.2.6,5.6,1.9,7.3s3.1,2.6,5.5,2.6c1.7,0,3.1-.4,4.3-1.3s2-2.1,2.6-3.7l3.9,1.3c-.6,1.5-1.4,2.7-2.4,3.8s-2.2,1.8-3.6,2.4-3.1.8-4.8.8Z" fill="#c9d1d9"/>
    <path d="m983.5,39.6V14.3h3.7v5.4l-.2-.7c.8-1.8,1.9-3.1,3.4-4s3-1.3,4.6-1.3c.5,0,.9,0,1.3.1s.8.2,1.2.4l-.5,3.7c-.9-.3-1.7-.4-2.6-.4-.5,0-1.2.1-2,.3s-1.6.6-2.3,1.3-1.4,1.6-1.9,2.8-.8,2.9-.8,5v12.7h-3.9Z" fill="#c9d1d9"/>
    <path d="m1004.3,10c-.9,0-1.7-.3-2.3-1s-1-1.4-1-2.3.3-1.7,1-2.3,1.4-.9,2.3-.9,1.7.3,2.3.9c.6.6.9,1.4.9,2.3s-.3,1.7-.9,2.3-1.4,1-2.3,1Zm-2,29.6V14.3h3.9v25.3h-3.9Z" fill="#c9d1d9"/>
    <path d="m1024.2,40.2c-2.4,0-4.5-.6-6.3-1.7s-3.2-2.7-4.2-4.7-1.5-4.3-1.5-6.9.5-4.9,1.5-6.9,2.4-3.5,4.2-4.7,3.9-1.7,6.3-1.7,4.5.6,6.3,1.7,3.2,2.7,4.2,4.7,1.5,4.3,1.5,6.9-.5,4.9-1.5,6.9-2.4,3.5-4.2,4.7-4,1.7-6.3,1.7Zm0-3.3c2.4,0,4.3-.9,5.7-2.7s2.1-4.2,2.1-7.3-.7-5.5-2.1-7.3-3.3-2.7-5.7-2.7-4.3.9-5.7,2.7-2.1,4.2-2.1,7.3.7,5.5,2.1,7.3,3.3,2.7,5.7,2.7Z" fill="#c9d1d9"/>
    <path d="m1052.1,40.2c-2,0-3.9-.5-5.4-1.6s-2.8-2.6-3.7-4.6-1.3-4.3-1.3-7,.4-5,1.3-7,2.1-3.5,3.7-4.6,3.4-1.6,5.4-1.6c1.7,0,3.3.4,4.9,1.2s2.9,2.2,3.7,4.2l-.4.2V4.4h3.9v35.2h-3.7v-5.3l.1.4c-.7,1.8-1.8,3.2-3.4,4.1s-3.3,1.4-5.1,1.4Zm1.1-3.3c1.3,0,2.5-.3,3.6-1s2-1.8,2.6-3.2,1-3.3,1-5.6c0-3.4-.7-5.9-2.1-7.6s-3.1-2.4-5.1-2.4c-2.1,0-3.8.9-5.2,2.6s-2,4.2-2,7.4c0,3.1.6,5.6,1.9,7.3s3.1,2.5,5.3,2.5Z" fill="#c9d1d9"/>
  </g>
  <g isolation="isolate">
    <path d="m1084.4,39.6V9.3h-12.1v-3.4h28.4v3.5h-12.1v30.3h-4.2v-.1Z" fill="#c9d1d9"/>
  </g>
  <g isolation="isolate">
    <path d="m111.9,562.5c-3.9,0-6.9-1.5-9.1-4.6s-3.2-7.3-3.2-12.9,1.1-9.8,3.2-12.9,5.2-4.6,9.1-4.6,7,1.5,9.1,4.6,3.2,7.3,3.2,12.9-1.1,9.8-3.2,12.9-5.2,4.6-9.1,4.6Zm0-3.4c2.6,0,4.6-1.2,5.9-3.6s2-5.9,2-10.5-.7-8.1-2-10.5-3.3-3.6-5.9-3.6-4.6,1.2-5.9,3.6-2,5.9-2,10.5.7,8.1,2,10.5,3.3,3.6,5.9,3.6Z" fill="#c9d1d9"/>
  </g>
  <g isolation="isolate">
    <path d="m1954.8,441.9h-33.8v-12.9c0-7.8,3-11.7,8.9-11.7,6,0,9,3.9,9,11.8v8.6h15.9v4.2Zm-19.4-4.2v-8.7c0-2.4-.5-4.2-1.4-5.5s-2.3-1.9-4-1.9c-1.8,0-3.1.6-4.1,1.9s-1.4,3.1-1.4,5.5v8.6h10.9v.1Zm19.4-15.6l-17.1,9v-4.8l17.1-9v4.8Z" fill="#c9d1d9"/>
    <path d="m1954.8,411.8l-33.8-1.9v-6.9l30.7-9.6v.9l-30.7-9.6v-6.9l33.8-1.9v4.1l-30.6,1.6v-.1l30.6,9.9v4.7l-30.6,10v-.1l30.6,1.6v4.2Z" fill="#c9d1d9"/>
    <path d="m1955.4,357.3c0,2.6-.4,4.9-1.3,6.8s-2.1,3.5-3.8,4.7-3.6,2-6,2.4l-1-5c2.8-.1,4.9-.9,6.4-2.4s2.2-3.6,2.2-6.3c0-1.6-.3-3-.8-4.1s-1.3-2-2.2-2.6-2.1-.9-3.4-.9c-1.8,0-3.1.5-3.9,1.5s-1.5,2.4-1.9,4.1l-1,4.4c-.2.8-.4,1.8-.8,2.8s-.8,2.1-1.5,3.1-1.5,1.8-2.6,2.5-2.5,1-4.2,1c-2.2,0-3.9-.6-5.3-1.7s-2.3-2.6-3-4.4-.9-3.7-.9-5.7c0-2.3.4-4.3,1.1-6s1.8-3,3.2-4,3-1.7,4.9-2.1l1,4.9c-1.4.1-2.7.5-3.6,1.1s-1.8,1.4-2.3,2.4-.8,2.4-.8,3.9c0,1.3.2,2.4.6,3.6s1,2,1.8,2.7,1.8,1,3.1,1,2.4-.5,3.2-1.4,1.5-2.5,2-4.7l1-4.5c.4-1.6.9-3.1,1.6-4.5s1.7-2.5,3-3.4,3-1.3,5.1-1.3,3.9.5,5.4,1.4,2.6,2.3,3.4,4.1,1.3,4.1,1.3,6.6Z" fill="#c9d1d9"/>
  </g>
  <g>
    <line x1="1907.6" y1="542.4" x2="1907.6" y2="246.6" fill="none" stroke="#c9d1d9" stroke-miterlimit="10" stroke-width="4"/>
    <path d="m1926.8,515c-.9-.6-2.2-.3-2.8.6l-16.4,25.8-16.4-25.8c-.6-.9-1.8-1.2-2.8-.6s-1.2,1.8-.6,2.8l18.1,28.5c.4.6,1,.9,1.7.9s1.3-.3,1.7-.9l18.1-28.5c.2-.3.3-.7.3-1.1.1-.6-.3-1.3-.9-1.7h0Z" fill="#c9d1d9"/>
    <path d="m1926.8,273.9c-.9.6-2.2.3-2.8-.6l-16.4-25.8-16.4,25.8c-.6.9-1.8,1.2-2.8.6s-1.2-1.8-.6-2.8l18.1-28.5c.4-.6,1-.9,1.7-.9s1.3.4,1.7.9l18.1,28.5c.2.3.3.7.3,1.1.1.7-.3,1.3-.9,1.7h0Z" fill="#c9d1d9"/>
  </g>
  <g opacity=".1">
    <path d="m1011.6,547.2c.5-.7.7-1.1.7-1.1l93.7-145,50.1-71.6,42-54.5,37.2-42.9,33.9-34.1,30.7-26.3,29.1-20.5,27.5-15.3,24.2-10.1,22.6-6.4,21-3.3,19.4-.8,19.4.8,21,3.3,22.6,6.4,24.2,10.1,27.5,15.3,29.1,20.5,30.5,26.3,33.9,34.1,37.2,42.9,42,54.5,50.1,71.6,93.7,145s.2.4.7,1.1" fill="#c9d1d9"/>
  </g>
  <g opacity=".1">
    <path d="m147.6,547.2c.5-.7.7-1.1.7-1.1l93.7-145,50.1-71.6,42-54.5,37.1-42.9,33.9-34.1,30.7-26.3,29.1-20.5,27.5-15.3,24.2-10.1,22.6-6.4,21-3.3,19.4-.8,19.4.7,21,3.3,22.6,6.4,24.2,10.1,27.5,15.3,29.1,20.5,30.6,26.4,33.9,34.1,37.2,42.9,42,54.5,50.1,71.6,93.7,145s.2.4.7,1.1" fill="#c9d1d9"/>
  </g>
  <g isolation="isolate">
    <path d="m1907,629.7v-30.3h-12v-3.4h28.4v3.5h-12.1v30.3h-4.3v-.1Z" fill="#c9d1d9"/>
    <path d="m1930,600.2c-.9,0-1.7-.3-2.3-1s-1-1.4-1-2.3.3-1.7,1-2.3,1.4-.9,2.3-.9,1.7.3,2.3.9.9,1.4.9,2.3-.3,1.7-.9,2.3-1.4,1-2.3,1Zm-2,29.5v-25.3h3.9v25.3h-3.9Z" fill="#c9d1d9"/>
    <path d="m1939.6,629.7v-25.3h3.7v4.3c.6-1.3,1.6-2.5,3-3.4s3-1.5,4.9-1.5c1.7,0,3.1.5,4.4,1.4s2.2,2.2,2.8,3.9c.8-1.5,1.9-2.8,3.3-3.8s3-1.5,4.8-1.5c2.4,0,4.3.9,5.8,2.6s2.1,4.2,2.1,7.3v15.9h-3.9v-15.6c0-1.4-.1-2.7-.4-3.7s-.8-1.8-1.5-2.4-1.6-.8-2.8-.8c-1.3,0-2.4.4-3.5,1.1s-1.8,1.8-2.4,3.2-.9,3.1-.9,5.1v13.2h-3.9v-15.6c0-1.4-.1-2.7-.4-3.7s-.8-1.8-1.5-2.4-1.6-.8-2.7-.8c-1.3,0-2.4.4-3.5,1.1s-1.8,1.8-2.4,3.2-.9,3.1-.9,5.1v13.2h-4.1v-.1Z" fill="#c9d1d9"/>
    <path d="m1991.7,630.3c-2.4,0-4.5-.5-6.2-1.6s-3.1-2.6-4.1-4.6-1.4-4.3-1.4-7,.5-5,1.4-7,2.3-3.5,4-4.6,3.8-1.6,6.1-1.6c1.3,0,2.7.2,4,.6s2.6,1.2,3.7,2.2,2,2.5,2.7,4.3,1,4.2,1,6.9h-20.5v-3.2h17.1l-1.1,1.5c-.1-2.2-.4-4-1.1-5.3s-1.5-2.3-2.5-2.9-2.2-.9-3.4-.9c-1.5,0-2.8.4-3.8,1.2s-1.9,1.9-2.5,3.4-.9,3.3-.9,5.4c0,3.2.6,5.6,1.9,7.3s3.1,2.6,5.5,2.6c1.7,0,3.1-.4,4.3-1.3s2-2.1,2.6-3.7l3.9,1.3c-.6,1.5-1.4,2.7-2.4,3.8s-2.2,1.8-3.6,2.4-2.9.8-4.7.8Z" fill="#c9d1d9"/>
  </g>
  <g isolation="isolate">
    <path d="m64.6,660.8l-33.8-14.2v-4.2l33.8-14.2v4.5l-29.3,11.8,29.3,11.9v4.4Zm-11.1-7.3h-3.5v-18h3.5v18Z" fill="#c9d1d9"/>
    <path d="m64.6,623.9h-25.3v-3.7h4.3c-1.3-.6-2.5-1.6-3.4-3s-1.5-3-1.5-4.9c0-1.7.5-3.1,1.4-4.4s2.2-2.2,3.9-2.8c-1.5-.8-2.8-1.9-3.8-3.3s-1.5-3-1.5-4.8c0-2.4.9-4.3,2.6-5.8s4.2-2.1,7.3-2.1h15.9v3.9h-15.5c-1.4,0-2.7.1-3.7.4s-1.8.8-2.4,1.5-.8,1.6-.8,2.8c0,1.3.4,2.4,1.1,3.5s1.8,1.8,3.2,2.4,3.1.9,5.1.9h13.2v3.9h-15.7c-1.4,0-2.7.1-3.7.4s-1.8.8-2.4,1.5-.9,1.7-.9,2.8c0,1.3.4,2.4,1.1,3.5s1.8,1.8,3.2,2.4,3.1.9,5.1.9h13.2v4Z" fill="#c9d1d9"/>
    <path d="m73.7,582h-34.4v-3.7h5.3l-.4.1c-1.8-.7-3.2-1.8-4.1-3.4s-1.3-3.3-1.3-5.1c0-2.1.5-3.9,1.6-5.4s2.6-2.8,4.6-3.7,4.3-1.3,7-1.3,5,.4,7,1.3,3.5,2.1,4.6,3.7c1.1,1.6,1.6,3.4,1.6,5.4,0,1.7-.4,3.3-1.2,4.9s-2.2,2.9-4.2,3.7l-.2-.4h14.2v3.9h-.1Zm-11.8-11c0-2.1-.9-3.8-2.6-5.2s-4.2-2-7.4-2c-3.1,0-5.6.6-7.3,1.9s-2.6,3-2.6,5.2c0,1.3.3,2.5,1,3.6s1.8,2,3.2,2.6,3.3,1,5.6,1c3.4,0,5.9-.7,7.5-2.1s2.6-3,2.6-5Z" fill="#c9d1d9"/>
    <path d="m64.6,549.9c0,1-.3,1.9-1,2.6s-1.5,1.1-2.5,1.1h-31.7v-3.9h30.6c.5,0,.9-.1,1-.2s.3-.5.3-.9v-2.5h3.3v3.8Z" fill="#c9d1d9"/>
    <path d="m35,538.9c0,.9-.3,1.7-1,2.3s-1.4,1-2.3,1-1.7-.3-2.3-1-.9-1.4-.9-2.3.3-1.7.9-2.3,1.4-.9,2.3-.9,1.7.3,2.3.9,1,1.4,1,2.3Zm29.6,1.9h-25.3v-3.9h25.3v3.9Z" fill="#c9d1d9"/>
    <path d="m64.6,523.6c0,1-.3,1.9-1,2.6s-1.5,1.1-2.5,1.1h-18.5v4.1h-3.3v-4.1h-5.3l-.8-3.9h6.1v-5h3.3v5h17.4c.5,0,.9-.1,1-.2s.3-.5.3-.9v-3.9h3.3v5.2Z" fill="#c9d1d9"/>
    <path d="m65.2,504.7c0,1.8-.4,3.3-1.2,4.6s-1.9,2.3-3.4,3c-1.5.7-3.3,1.1-5.3,1.1h-16v-3.9h15.6c2.1,0,3.7-.4,5-1.2s1.9-2.2,1.9-4.2c0-1.5-.4-2.8-1.2-3.9s-2-2-3.5-2.6-3.5-.9-5.9-.9h-12v-3.9h25.3v3.7h-6l1-.2c1.6.7,2.9,1.7,3.9,3.2s1.8,3.1,1.8,5.2Z" fill="#c9d1d9"/>
    <path d="m65.2,476.4c0,2-.5,3.9-1.6,5.4s-2.6,2.8-4.6,3.7-4.3,1.3-7,1.3-5-.4-7-1.3-3.5-2.1-4.6-3.7-1.6-3.4-1.6-5.4c0-1.7.4-3.3,1.2-4.9s2.2-2.9,4.2-3.7l.2.4h-15v-3.9h35.2v3.7h-5.3l.4-.1c1.8.7,3.2,1.8,4.1,3.4s1.4,3.3,1.4,5.1Zm-3.3-1c0-1.3-.3-2.5-1-3.6s-1.8-2-3.2-2.6-3.3-1-5.6-1c-3.4,0-5.9.7-7.6,2.1s-2.4,3.1-2.4,5.1c0,2.1.9,3.8,2.6,5.2s4.2,2,7.4,2c3.1,0,5.6-.6,7.3-1.9s2.5-3.2,2.5-5.3Z" fill="#c9d1d9"/>
    <path d="m65.2,446.5c0,2.4-.5,4.5-1.6,6.2s-2.6,3.1-4.6,4.1-4.3,1.4-7,1.4-5-.5-7-1.4-3.5-2.3-4.6-4-1.6-3.8-1.6-6.1c0-1.3.2-2.7.6-4s1.2-2.6,2.2-3.7,2.5-2,4.3-2.7,4.2-1,6.9-1v20.5h-3.2v-17.1l1.5,1.1c-2.2.1-4,.4-5.3,1.1s-2.3,1.5-2.9,2.5-.9,2.2-.9,3.4c0,1.5.4,2.8,1.2,3.8s1.9,1.9,3.4,2.5,3.3.9,5.4.9c3.2,0,5.6-.6,7.3-1.9s2.6-3.1,2.6-5.5c0-1.7-.4-3.1-1.3-4.3s-2.1-2-3.7-2.6l1.3-3.9c1.5.6,2.7,1.4,3.8,2.4s1.8,2.2,2.4,3.6c.6,1.4.8,3,.8,4.7Z" fill="#c9d1d9"/>
  </g>
  <g isolation="isolate">
    <path d="m109.2,98.4c-2.6,0-4.9-.5-6.8-1.5s-3.4-2.4-4.5-4.2-1.6-4-1.6-6.4v-22.2h4.2v21.8c0,2.8.8,5,2.3,6.6s3.7,2.4,6.3,2.4,4.8-.8,6.3-2.4,2.3-3.8,2.3-6.6v-21.8h4.2v22.2c0,2.5-.5,4.6-1.6,6.4s-2.5,3.2-4.5,4.2-4,1.5-6.6,1.5Zm-4.1-37.9l-3.2-1.6,4.8-6.7h4.9l4.8,6.7-3.2,1.6-4-5.9-4.1,5.9Z" fill="#c9d1d9"/>
  </g>
  <g isolation="isolate">
    <path d="m83.6,1013.7v-3.7h15.7v3.7h-15.7Z" fill="#c9d1d9"/>
    <path d="m118,1027.2c-2.6,0-4.9-.5-6.8-1.5s-3.4-2.4-4.5-4.2-1.6-4-1.6-6.4v-22.2h4.2v21.8c0,2.8.8,5,2.3,6.6s3.7,2.4,6.3,2.4,4.8-.8,6.3-2.4,2.3-3.8,2.3-6.6v-21.8h4.2v22.2c0,2.5-.5,4.6-1.6,6.4s-2.5,3.2-4.5,4.2-4,1.5-6.6,1.5Zm-4.1-37.9l-3.2-1.6,4.8-6.7h4.9l4.8,6.7-3.2,1.6-4-5.9-4.1,5.9Z" fill="#c9d1d9"/>
  </g>
  <g isolation="isolate">
    <path d="m5.9,256.5c1.2-5.8,3-11.2,5.4-16s5.3-9.6,8.8-14.1H1.3v-3.6h22.9v3.2c-1.6,2.4-3.1,4.8-4.5,7.2s-2.7,4.9-3.9,7.3-2.2,5.1-3,7.7-1.5,5.4-2,8.3h-4.9Z" fill="#c9d1d9"/>
    <path d="m39.4,257.1c-3.9,0-6.9-1.5-9.1-4.6s-3.2-7.3-3.2-12.9,1.1-9.8,3.2-12.9,5.2-4.6,9.1-4.6,7,1.5,9.1,4.6,3.2,7.3,3.2,12.9-1.1,9.8-3.2,12.9-5.2,4.6-9.1,4.6Zm0-3.4c2.6,0,4.6-1.2,5.9-3.6s2-5.9,2-10.5-.7-8.1-2-10.5-3.3-3.6-5.9-3.6-4.6,1.2-5.9,3.6-2,5.9-2,10.5.7,8.1,2,10.5,3.3,3.6,5.9,3.6Z" fill="#c9d1d9"/>
    <path d="m56.7,264l-1.4-2,.8-.6c.9-.6,1.5-1.3,1.9-1.9s.6-1.4.6-2.2v-1.1l.6.8c-1,0-1.8-.3-2.5-1s-1-1.5-1-2.5.3-1.9,1-2.5,1.5-1,2.5-1c.6,0,1.1.1,1.7.4s1,.7,1.4,1.4.6,1.5.6,2.6c0,1.5-.4,3-1.2,4.5s-2.1,2.9-3.8,4.1l-1.2,1Z" fill="#c9d1d9"/>
    <path d="m69.5,256.5c1.2-5.8,3-11.2,5.4-16s5.3-9.6,8.8-14.1h-18.8v-3.6h22.9v3.2c-1.6,2.4-3.1,4.8-4.5,7.2s-2.7,4.9-3.9,7.3-2.2,5.1-3,7.7-1.5,5.4-2,8.3h-4.9Z" fill="#c9d1d9"/>
    <path d="m99.3,243.4c-2.5,0-4.3-.9-5.7-2.8s-2-4.4-2-7.7.7-5.9,2-7.7,3.2-2.8,5.7-2.8,4.3.9,5.7,2.7,2,4.4,2,7.7-.7,5.9-2,7.7-3.2,2.9-5.7,2.9Zm0-2.7c2.8,0,4.2-2.6,4.2-7.8s-1.4-7.8-4.2-7.8-4.2,2.6-4.2,7.8,1.4,7.8,4.2,7.8Zm.5,16.7l-2.3-1.6,24.2-33.8,2.3,1.6-24.2,33.8Zm22.4-.5c-2.5,0-4.3-.9-5.7-2.8s-2-4.4-2-7.7.7-5.9,2-7.7,3.2-2.8,5.7-2.8,4.3.9,5.7,2.7,2,4.4,2,7.7-.7,5.9-2,7.7-3.2,2.9-5.7,2.9Zm0-2.7c2.8,0,4.2-2.6,4.2-7.8s-1.4-7.8-4.2-7.8-4.2,2.6-4.2,7.8,1.5,7.8,4.2,7.8Z" fill="#c9d1d9"/>
  </g>
</svg>