<?xml version="1.0" encoding="UTF-8"?>
<svg xmlns="http://www.w3.org/2000/svg" viewBox="0 0 1177.2 1130.86">
  <defs>
    <style>
      .cls-1 {
        letter-spacing: 0em;
      }

      .cls-2 {
        stroke-width: 3px;
      }

      .cls-2, .cls-3 {
        fill: none;
        stroke: #7f7f7f;
        stroke-miterlimit: 10;
      }

      .cls-4 {
        letter-spacing: .02em;
      }

      .cls-5 {
        letter-spacing: -.01em;
      }

      .cls-6 {
        letter-spacing: -.02em;
      }

      .cls-7 {
        letter-spacing: 0em;
      }

      .cls-8 {
        font-size: 24px;
      }

      .cls-8, .cls-9, .cls-10 {
        fill: #c9d1d9;
      }

      .cls-8, .cls-10 {
        font-family: Roboto-Bold, Roboto;
        font-weight: 700;
      }

      .cls-10 {
        font-size: 36px;
      }

      .cls-3 {
        stroke-width: 4px;
      }

      .cls-11 {
        letter-spacing: 0em;
      }

      .cls-12 {
        letter-spacing: -.01em;
      }

      .cls-13 {
        letter-spacing: 0em;
      }
    </style>
  </defs>
  <g id="Ebene_10" data-name="Ebene 10">
    <g>
      <path class="cls-2" d="m371.83,336.37l-133.81-129.49c-87.17,90.06-140.82,212.75-140.82,347.98h186.2c0-84.91,33.7-161.94,88.43-218.49Z"/>
      <path class="cls-2" d="m597.6,240.66V54.46c-141.13,0-268.61,58.43-359.58,152.42l133.81,129.49c57.12-59.01,137.16-95.71,225.77-95.71Z"/>
      <path class="cls-2" d="m765.67,289.36l99.58-157.31-99.58,157.31c50.24,31.87,90.8,77.6,116.33,131.81l168.56-79.24c-80-169.88-252.74-287.47-452.96-287.47v186.2c61.82,0,119.47,17.87,168.07,48.7Z"/>
      <path class="cls-2" d="m907.14,500.69l.79-.14-.79.14c3.06,17.6,4.67,35.7,4.67,54.17h186.2c0-76.15-17.01-148.32-47.44-212.93l-168.56,79.24c11.72,24.89,20.28,51.57,25.14,79.52Z"/>
      <path class="cls-2" d="m883.16,686.07l1.49.68-1.49-.68c-23.8,51.72-61.24,95.87-107.72,127.83l.59.86-.59-.86c-16.03,11.03-33.13,20.6-51.12,28.54l74.98,170.15-74.98-170.15c-14.77,6.52-30.14,11.93-45.99,16.14l.73,2.73-.73-2.73c-25.76,6.83-52.82,10.49-80.73,10.49v186.2c218.1,0,403.62-139.54,472.14-334.21l-175.7-61.85c-3.22,9.15-6.85,18.11-10.88,26.86Z"/>
      <path class="cls-2" d="m335.78,728.59l-153.24,101.68,153.24-101.68c-33.09-49.76-52.38-109.49-52.38-173.73H97.2c0,200.22,117.59,372.96,287.47,452.96l79.24-168.56c-52.16-24.56-96.47-63.05-128.13-110.67Z"/>
      <path class="cls-2" d="m911.8,554.86c0,36.58-6.27,71.69-17.77,104.35l175.7,61.85c18.3-52,28.26-107.93,28.26-166.19h-186.2Z"/>
      <path class="cls-2" d="m527.79,861.27v.04s0-.04,0-.04c-22.29-5.06-43.67-12.49-63.88-22.01l-79.24,168.56c64.61,30.43,136.78,47.44,212.93,47.44v-186.2c-24,0-47.36-2.7-69.81-7.8Z"/>
      <path class="cls-2" d="m463.91,839.26c20.21,9.52,41.59,16.95,63.88,22.01"/>
      <path class="cls-2" d="m283.4,554.86c0,64.24,19.29,123.97,52.38,173.73"/>
      <path class="cls-2" d="m335.78,728.59c31.66,47.62,75.97,86.11,128.13,110.67"/>
      <path class="cls-2" d="m371.83,336.37c-54.73,56.55-88.43,133.58-88.43,218.49"/>
      <path class="cls-2" d="m907.14,500.69c-4.86-27.95-13.41-54.63-25.14-79.52"/>
      <path class="cls-2" d="m765.67,289.36c-48.61-30.83-106.25-48.7-168.07-48.7"/>
      <path class="cls-2" d="m597.6,240.66c-88.62,0-168.65,36.7-225.77,95.71"/>
      <path class="cls-2" d="m882,421.17c-25.53-54.21-66.09-99.94-116.33-131.81"/>
      <path class="cls-2" d="m894.04,659.21c11.49-32.65,17.77-67.76,17.77-104.35"/>
      <path class="cls-2" d="m775.45,813.9c46.47-31.97,83.91-76.11,107.72-127.83"/>
      <path class="cls-2" d="m527.79,861.27c22.45,5.09,45.82,7.8,69.81,7.8"/>
      <path class="cls-2" d="m911.8,554.86c0-18.47-1.61-36.57-4.67-54.17"/>
      <path class="cls-2" d="m883.16,686.07c4.02-8.74,7.65-17.7,10.88-26.86"/>
      <path class="cls-2" d="m597.6,869.07c27.91,0,54.97-3.66,80.73-10.49"/>
      <path class="cls-2" d="m678.33,858.58c15.86-4.2,31.22-9.62,45.99-16.14"/>
      <path class="cls-2" d="m724.33,842.44c17.99-7.94,35.09-17.51,51.12-28.54"/>
    </g>
    <g>
      <line class="cls-2" x1="371.83" y1="336.37" x2="508.41" y2="468.54"/>
      <line class="cls-2" x1="527.79" y1="861.27" x2="527.78" y2="861.31"/>
      <line class="cls-2" x1="678.33" y1="858.58" x2="629.49" y2="674.85"/>
      <line class="cls-2" x1="527.79" y1="861.27" x2="570.02" y2="675.91"/>
      <path class="cls-2" d="m527.79,861.27c-22.29-5.06-43.67-12.49-63.88-22.01-52.16-24.56-96.47-63.05-128.13-110.67-33.09-49.76-52.38-109.49-52.38-173.73"/>
      <line class="cls-2" x1="368.73" y1="768.21" x2="506.81" y2="639.5"/>
      <path class="cls-2" d="m597.6,240.66c61.82,0,119.47,17.87,168.07,48.7,50.24,31.87,90.8,77.6,116.33,131.81,11.72,24.89,20.28,51.57,25.14,79.52"/>
      <line class="cls-2" x1="907.14" y1="500.69" x2="907.93" y2="500.55"/>
      <line class="cls-2" x1="775.45" y1="813.9" x2="776.04" y2="814.76"/>
      <path class="cls-2" d="m907.14,500.69c3.06,17.6,4.67,35.7,4.67,54.17,0,36.58-6.27,71.69-17.77,104.35-3.22,9.15-6.85,18.11-10.88,26.86"/>
      <line class="cls-2" x1="883.16" y1="686.07" x2="884.65" y2="686.75"/>
      <line class="cls-2" x1="907.14" y1="500.69" x2="719.89" y2="533.46"/>
      <path class="cls-2" d="m775.45,813.9c-16.03,11.03-33.13,20.6-51.12,28.54-14.77,6.52-30.14,11.93-45.99,16.14"/>
      <line class="cls-2" x1="678.33" y1="858.58" x2="679.06" y2="861.31"/>
      <line class="cls-2" x1="799.31" y1="314.36" x2="677.36" y2="459.76"/>
      <path class="cls-2" d="m527.79,861.27c22.45,5.09,45.82,7.8,69.81,7.8,27.91,0,54.97-3.66,80.73-10.49"/>
      <path class="cls-2" d="m371.83,336.37c-54.73,56.55-88.43,133.58-88.43,218.49"/>
      <line class="cls-2" x1="283.4" y1="554.86" x2="473.47" y2="554.86"/>
      <line class="cls-2" x1="597.6" y1="240.66" x2="597.6" y2="430.73"/>
      <path class="cls-2" d="m597.6,240.66c-88.62,0-168.65,36.7-225.77,95.71"/>
      <path class="cls-2" d="m883.16,686.07c-23.8,51.72-61.24,95.87-107.72,127.83"/>
      <line class="cls-2" x1="775.45" y1="813.9" x2="667.86" y2="657.2"/>
      <line class="cls-2" x1="883.16" y1="686.07" x2="710.41" y2="606.7"/>
      <path class="cls-2" d="m570.02,675.91c8.87,2.01,18.1,3.08,27.58,3.08,11.03,0,21.72-1.45,31.9-4.14"/>
      <path class="cls-2" d="m667.86,657.2c-11.53,7.93-24.47,13.97-38.37,17.65"/>
      <path class="cls-2" d="m508.41,468.54c-21.62,22.34-34.94,52.77-34.94,86.32"/>
      <path class="cls-2" d="m667.86,657.2c18.36-12.63,33.15-30.07,42.55-50.5"/>
      <path class="cls-2" d="m597.6,430.73c-35.01,0-66.63,14.5-89.19,37.81"/>
      <path class="cls-2" d="m597.6,430.73c30.37,0,58.19,10.91,79.76,29.03"/>
      <path class="cls-2" d="m719.89,533.46c-5.11-29.42-20.59-55.29-42.52-73.7"/>
      <path class="cls-2" d="m719.89,533.46c1.21,6.95,1.84,14.1,1.84,21.4,0,18.5-4.06,36.06-11.32,51.83"/>
      <path class="cls-2" d="m506.81,639.5c-20.68-22.17-33.34-51.92-33.34-84.64"/>
      <path class="cls-2" d="m506.81,639.5c16.67,17.87,38.54,30.82,63.21,36.41"/>
    </g>
  </g>
  <g id="Ebene_11" data-name="Ebene 11">
    <text class="cls-8" transform="translate(399.57 115.65) rotate(65.41)"><tspan x="0" y="0">Oceanog</tspan><tspan class="cls-12" x="95.64" y="0">r</tspan><tspan x="104.04" y="0">aphy</tspan></text>
    <text class="cls-8" transform="translate(183.67 677.27) rotate(-15.64)"><tspan x="0" y="0">Medicine</tspan></text>
    <text class="cls-8" transform="translate(306.05 893.25) rotate(-48.15)"><tspan x="0" y="0">Physiology</tspan></text>
    <text class="cls-10" transform="translate(19.43 939.78)"><tspan x="0" y="0">Li</tspan><tspan class="cls-5" x="29.04" y="0">f</tspan><tspan x="41.52" y="0">e sciences</tspan></text>
    <text class="cls-8" transform="translate(504.04 997.64) rotate(-77.75)"><tspan x="0" y="0">Ps</tspan><tspan class="cls-11" x="27.82" y="0">y</tspan><tspan x="39.71" y="0">chology</tspan></text>
    <text class="cls-8" transform="translate(662.43 878.89) rotate(77.42)"><tspan x="0" y="0">Speech</tspan></text>
    <text class="cls-8" transform="translate(835.24 788.82) rotate(40.02)"><tspan x="0" y="0">Music</tspan></text>
    <text class="cls-8" transform="translate(917.99 619.61) rotate(9.81)"><tspan x="0" y="0">Visual a</tspan><tspan class="cls-4" x="85.9" y="0">r</tspan><tspan x="95.24" y="0">ts</tspan></text>
    <text class="cls-10" transform="translate(1031.15 939.78)"><tspan x="0" y="0">A</tspan><tspan class="cls-4" x="24.22" y="0">r</tspan><tspan x="38.23" y="0">ts</tspan></text>
    <text class="cls-8" transform="translate(921.59 486.5) rotate(-13.09)"><tspan x="0" y="0">A</tspan><tspan class="cls-1" x="16.15" y="0">r</tspan><tspan x="24.68" y="0">chitectu</tspan><tspan class="cls-12" x="112.13" y="0">r</tspan><tspan x="120.53" y="0">al</tspan></text>
    <text class="cls-8" transform="translate(849.62 342.51) rotate(-40.65)"><tspan x="0" y="0">Mechanical</tspan></text>
    <text class="cls-10" transform="translate(969.11 165.78)"><tspan x="0" y="0">Engineering</tspan></text>
    <text class="cls-8" transform="translate(470.1 322.05) rotate(62.21)"><tspan x="0" y="0">sound</tspan></text>
    <text class="cls-8" transform="translate(345.61 403.71) rotate(31.93)"><tspan x="0" y="0">Seismic w</tspan><tspan class="cls-7" x="109.7" y="0">a</tspan><tspan class="cls-11" x="122.39" y="0">v</tspan><tspan x="134.37" y="0">es</tspan></text>
    <text class="cls-8" transform="translate(338.37 655.64) rotate(-19.56)"><tspan x="0" y="0">Bioacoustics</tspan></text>
    <text class="cls-8" transform="translate(759.64 511.65) rotate(-16.63)"><tspan x="0" y="0">Noise</tspan></text>
    <text class="cls-8" transform="translate(622.79 428.86) rotate(-80.07)"><tspan x="0" y="0">Elect</tspan><tspan class="cls-6" x="53.46" y="0">r</tspan><tspan x="61.79" y="0">oacoustics</tspan></text>
    <text class="cls-8" transform="translate(644.41 673.7) rotate(66.12)"><tspan x="0" y="0">Communication</tspan></text>
    <text class="cls-8" transform="translate(590.4 680.86) rotate(90)"><tspan x="0" y="0">Ps</tspan><tspan class="cls-11" x="27.82" y="0">y</tspan><tspan x="39.71" y="0">choacoustics</tspan></text>
    <text class="cls-8" transform="translate(471.56 778.08) rotate(-59.64)"><tspan x="0" y="0">Hearing</tspan></text>
    <text class="cls-10" transform="translate(6.99 165.78)"><tspan x="0" y="0">Ea</tspan><tspan class="cls-4" x="39.55" y="0">r</tspan><tspan x="53.56" y="0">th sciences</tspan></text>
    <text class="cls-8" transform="translate(516.96 294.73) rotate(73.5)"><tspan x="0" y="0">Unde</tspan><tspan class="cls-13" x="55.73" y="0">r</tspan><tspan x="64.69" y="0">water</tspan></text>
    <text class="cls-8" transform="translate(680.37 234.47) rotate(-77.52)"><tspan x="0" y="0">Electrical</tspan></text>
    <text class="cls-8" transform="translate(723.57 252.48) rotate(-68.59)"><tspan x="0" y="0">and chemical</tspan></text>
    <text class="cls-8" transform="translate(698.42 634.08) rotate(35.38)"><tspan x="0" y="0">Musical sales</tspan></text>
    <text class="cls-8" transform="translate(676.82 648.5) rotate(44.53)"><tspan x="0" y="0" xml:space="preserve"> and instruments</tspan></text>
    <text class="cls-8" transform="translate(215.98 328.03) rotate(31.92)"><tspan x="0" y="0">Physics of</tspan></text>
    <text class="cls-8" transform="translate(194.41 382.03) rotate(24.09)"><tspan x="0" y="0">Ea</tspan><tspan class="cls-4" x="26.37" y="0">r</tspan><tspan x="35.71" y="0">th and</tspan></text>
    <text class="cls-8" transform="translate(158.44 421.63) rotate(17.35)"><tspan x="0" y="0">atmosphe</tspan><tspan class="cls-1" x="107.58" y="0">r</tspan><tspan x="116.11" y="0">e</tspan></text>
    <text class="cls-8" transform="translate(331.26 518.86) rotate(8.8)"><tspan x="0" y="0">atmosphe</tspan><tspan class="cls-1" x="107.58" y="0">r</tspan><tspan x="116.11" y="0">e</tspan></text>
    <text class="cls-8" transform="translate(338.37 461.25) rotate(20.79)"><tspan x="0" y="0">Sound in the</tspan></text>
    <text class="cls-8" transform="translate(751.88 556.79) rotate(-2.05)"><tspan x="0" y="0">Room and</tspan></text>
    <text class="cls-8" transform="translate(753.9 585.41) rotate(8.13)"><tspan x="0" y="0">theat</tspan><tspan class="cls-1" x="55.49" y="0">r</tspan><tspan x="64.02" y="0">e</tspan></text>
    <text class="cls-8" transform="translate(743.03 608.03) rotate(21.04)"><tspan x="0" y="0">acoustics</tspan></text>
    <text class="cls-8" transform="translate(716.36 454.05) rotate(-43.56)"><tspan x="0" y="0">Shock and</tspan></text>
    <text class="cls-8" transform="translate(741.56 479.25) rotate(-30.85)"><tspan x="0" y="0">vib</tspan><tspan class="cls-12" x="32" y="0">r</tspan><tspan x="40.41" y="0">ation</tspan></text>
    <text class="cls-8" transform="translate(651.64 410.9) rotate(-72.65)"><tspan x="0" y="0">Sonic and</tspan></text>
    <text class="cls-8" transform="translate(669.57 418.02) rotate(-64.04)"><tspan x="0" y="0">ult</tspan><tspan class="cls-12" x="27.9" y="0">r</tspan><tspan x="36.3" y="0">asonic</tspan></text>
    <text class="cls-8" transform="translate(683.97 432.47) rotate(-57.06)"><tspan x="0" y="0">engeneering</tspan></text>
    <g>
      <path class="cls-9" d="m539.05,479.49h-6.75v6.97h-3.52v-17.06h11.11v2.85h-7.59v4.41h6.75v2.84Z"/>
      <path class="cls-9" d="m549.04,485.17c-.84,1.02-1.99,1.52-3.47,1.52-1.36,0-2.4-.39-3.11-1.17s-1.08-1.93-1.1-3.43v-8.31h3.39v8.2c0,1.32.6,1.98,1.8,1.98s1.94-.4,2.37-1.2v-8.99h3.4v12.68h-3.19l-.09-1.29Z"/>
      <path class="cls-9" d="m558,473.78l.11,1.46c.91-1.13,2.12-1.7,3.64-1.7,1.34,0,2.34.39,3,1.18s.99,1.97,1.01,3.54v8.19h-3.39v-8.11c0-.72-.16-1.24-.47-1.56s-.83-.49-1.56-.49c-.95,0-1.67.41-2.14,1.22v8.94h-3.39v-12.68h3.19Z"/>
      <path class="cls-9" d="m567.79,480.03c0-1.98.44-3.55,1.33-4.72s2.1-1.76,3.64-1.76c1.23,0,2.25.46,3.06,1.38v-6.47h3.4v18h-3.06l-.16-1.35c-.84,1.05-1.93,1.58-3.26,1.58-1.49,0-2.69-.59-3.59-1.76s-1.35-2.81-1.35-4.9Zm3.39.25c0,1.19.21,2.1.62,2.73s1.02.95,1.8.95c1.05,0,1.79-.44,2.21-1.33v-5.01c-.42-.88-1.15-1.33-2.19-1.33-1.63,0-2.45,1.33-2.45,3.98Z"/>
      <path class="cls-9" d="m589.19,486.46c-.16-.3-.27-.68-.34-1.14-.82.91-1.89,1.37-3.2,1.37-1.24,0-2.27-.36-3.09-1.08s-1.22-1.62-1.22-2.72c0-1.34.5-2.38,1.49-3.09s2.44-1.08,4.32-1.09h1.56v-.73c0-.59-.15-1.05-.45-1.41s-.78-.53-1.42-.53c-.57,0-1.02.14-1.34.41s-.49.65-.49,1.12h-3.39c0-.73.23-1.41.68-2.04s1.09-1.12,1.92-1.47,1.76-.53,2.79-.53c1.56,0,2.8.39,3.72,1.18s1.38,1.89,1.38,3.31v5.5c0,1.2.18,2.11.5,2.73v.2h-3.42Zm-2.8-2.36c.5,0,.96-.11,1.38-.33s.73-.52.94-.9v-2.18h-1.27c-1.7,0-2.6.59-2.71,1.76v.2c-.01.42.14.77.43,1.04s.7.41,1.22.41Z"/>
      <path class="cls-9" d="m597.89,473.78l.11,1.42c.9-1.1,2.11-1.65,3.64-1.65,1.63,0,2.75.64,3.36,1.93.89-1.29,2.16-1.93,3.81-1.93,1.38,0,2.4.4,3.07,1.2s1.01,2.01,1.01,3.62v8.1h-3.4v-8.09c0-.72-.14-1.24-.42-1.58s-.78-.5-1.49-.5c-1.02,0-1.72.48-2.11,1.45v8.71s-3.38,0-3.38,0v-8.07c0-.73-.14-1.27-.43-1.59s-.78-.49-1.48-.49c-.96,0-1.66.4-2.09,1.2v8.96h-3.39v-12.68h3.18Z"/>
      <path class="cls-9" d="m621.32,486.7c-1.86,0-3.37-.57-4.54-1.71s-1.75-2.66-1.75-4.56v-.33c0-1.27.25-2.41.74-3.42s1.19-1.78,2.09-2.32,1.93-.81,3.09-.81c1.73,0,3.1.55,4.1,1.64s1.49,2.64,1.49,4.65v1.38h-8.07c.11.83.44,1.49.99,1.99s1.25.75,2.09.75c1.3,0,2.32-.47,3.06-1.42l1.66,1.86c-.51.72-1.2,1.28-2.06,1.68s-1.83.6-2.88.6Zm-.39-10.42c-.67,0-1.22.23-1.63.68-.42.46-.69,1.11-.8,1.95h4.71v-.27c-.02-.75-.22-1.34-.61-1.75-.39-.41-.95-.62-1.66-.62Z"/>
      <path class="cls-9" d="m631.58,473.78l.11,1.46c.91-1.13,2.12-1.7,3.64-1.7,1.34,0,2.34.39,3,1.18s.99,1.97,1.01,3.54v8.19h-3.39v-8.11c0-.72-.16-1.24-.47-1.56s-.83-.49-1.56-.49c-.95,0-1.67.41-2.14,1.22v8.94h-3.39v-12.68h3.19Z"/>
      <path class="cls-9" d="m645.96,470.66v3.12h2.17v2.48h-2.17v6.33c0,.47.09.8.27,1.01s.52.3,1.03.3c.38,0,.71-.03,1-.08v2.57c-.66.2-1.35.3-2.05.3-2.38,0-3.59-1.2-3.63-3.6v-6.83h-1.85v-2.48h1.85v-3.12h3.39Z"/>
      <path class="cls-9" d="m657.36,486.46c-.16-.3-.27-.68-.34-1.14-.82.91-1.89,1.37-3.2,1.37-1.24,0-2.27-.36-3.09-1.08s-1.22-1.62-1.22-2.72c0-1.34.5-2.38,1.49-3.09s2.44-1.08,4.32-1.09h1.56v-.73c0-.59-.15-1.05-.45-1.41s-.78-.53-1.42-.53c-.57,0-1.02.14-1.34.41s-.49.65-.49,1.12h-3.39c0-.73.23-1.41.68-2.04s1.09-1.12,1.92-1.47,1.76-.53,2.79-.53c1.56,0,2.8.39,3.72,1.18s1.38,1.89,1.38,3.31v5.5c0,1.2.18,2.11.5,2.73v.2h-3.42Zm-2.8-2.36c.5,0,.96-.11,1.38-.33s.73-.52.94-.9v-2.18h-1.27c-1.7,0-2.6.59-2.71,1.76v.2c-.01.42.14.77.43,1.04s.7.41,1.22.41Z"/>
      <path class="cls-9" d="m666.45,486.46h-3.4v-18h3.4v18Z"/>
      <path class="cls-9" d="m510.58,509.04c0,1.95-.44,3.52-1.33,4.69s-2.08,1.76-3.59,1.76c-1.28,0-2.32-.45-3.11-1.34v5.98h-3.39v-17.55h3.14l.12,1.24c.82-.98,1.89-1.48,3.21-1.48,1.56,0,2.78.58,3.64,1.73s1.3,2.75,1.3,4.78v.18Zm-3.39-.25c0-1.18-.21-2.09-.63-2.73s-1.03-.96-1.82-.96c-1.06,0-1.79.41-2.19,1.22v5.19c.41.84,1.15,1.25,2.21,1.25,1.62,0,2.43-1.32,2.43-3.97Z"/>
      <path class="cls-9" d="m515.98,503.96c.9-1.08,2.03-1.62,3.39-1.62,2.75,0,4.14,1.6,4.18,4.79v8.12h-3.39v-8.03c0-.73-.16-1.26-.47-1.61s-.83-.52-1.56-.52c-.99,0-1.71.38-2.16,1.15v9.01h-3.39v-18h3.39v6.7Z"/>
      <path class="cls-9" d="m530.84,510.47l2.34-7.89h3.63l-5.1,14.65-.28.67c-.76,1.66-2.01,2.48-3.75,2.48-.49,0-.99-.07-1.5-.22v-2.57h.52c.64.01,1.12-.09,1.44-.28s.56-.52.74-.97l.4-1.04-4.44-12.71h3.64l2.36,7.89Z"/>
      <path class="cls-9" d="m545.02,511.76c0-.41-.21-.74-.62-.98s-1.07-.45-1.97-.64c-3.02-.63-4.52-1.91-4.52-3.84,0-1.12.47-2.06,1.4-2.82s2.15-1.13,3.66-1.13c1.61,0,2.9.38,3.86,1.14s1.45,1.74,1.45,2.95h-3.39c0-.48-.16-.88-.47-1.2s-.8-.47-1.46-.47c-.57,0-1.01.13-1.32.39s-.47.59-.47.98c0,.38.18.68.53.91s.96.43,1.8.6,1.55.36,2.13.57c1.79.66,2.68,1.79,2.68,3.41,0,1.16-.5,2.09-1.49,2.81s-2.27,1.07-3.84,1.07c-1.06,0-2.01-.19-2.83-.57s-1.47-.9-1.94-1.56-.7-1.37-.7-2.14h3.21c.03.6.25,1.06.67,1.38s.97.48,1.66.48c.65,0,1.14-.12,1.47-.37s.5-.57.5-.97Z"/>
      <path class="cls-9" d="m550.47,499.3c0-.51.17-.93.51-1.25s.8-.49,1.39-.49,1.04.16,1.38.49.52.75.52,1.25-.17.94-.52,1.27-.81.49-1.38.49-1.03-.16-1.38-.49-.52-.75-.52-1.27Zm3.6,15.96h-3.4v-12.68h3.4v12.68Z"/>
      <path class="cls-9" d="m562.13,512.76c.62,0,1.13-.17,1.52-.52s.59-.8.61-1.37h3.18c0,.86-.24,1.65-.7,2.36s-1.09,1.27-1.89,1.66-1.69.59-2.65.59c-1.81,0-3.24-.58-4.29-1.73s-1.57-2.74-1.57-4.78v-.22c0-1.95.52-3.51,1.56-4.68s2.46-1.75,4.28-1.75c1.59,0,2.86.45,3.81,1.35s1.44,2.1,1.46,3.6h-3.18c-.02-.66-.22-1.2-.61-1.61-.39-.41-.91-.62-1.55-.62-.79,0-1.38.29-1.79.86-.4.57-.6,1.51-.6,2.8v.35c0,1.31.2,2.25.6,2.82.4.57,1,.86,1.82.86Z"/>
      <path class="cls-9" d="m576.72,515.26c-.16-.3-.27-.68-.34-1.14-.82.91-1.89,1.37-3.2,1.37-1.24,0-2.27-.36-3.09-1.08s-1.22-1.62-1.22-2.72c0-1.34.5-2.38,1.49-3.09s2.44-1.08,4.32-1.09h1.56v-.73c0-.59-.15-1.05-.45-1.41s-.78-.53-1.42-.53c-.57,0-1.02.14-1.34.41s-.49.65-.49,1.12h-3.39c0-.73.23-1.41.68-2.04s1.09-1.12,1.92-1.47,1.76-.53,2.79-.53c1.56,0,2.8.39,3.72,1.18s1.38,1.89,1.38,3.31v5.5c0,1.2.18,2.11.5,2.73v.2h-3.42Zm-2.8-2.36c.5,0,.96-.11,1.38-.33s.73-.52.94-.9v-2.18h-1.27c-1.7,0-2.6.59-2.71,1.76v.2c-.01.42.14.77.43,1.04s.7.41,1.22.41Z"/>
      <path class="cls-9" d="m585.82,515.26h-3.4v-18h3.4v18Z"/>
      <path class="cls-9" d="m601.93,515.26c-.16-.3-.27-.68-.34-1.14-.82.91-1.89,1.37-3.2,1.37-1.24,0-2.27-.36-3.09-1.08s-1.22-1.62-1.22-2.72c0-1.34.5-2.38,1.49-3.09s2.44-1.08,4.32-1.09h1.56v-.73c0-.59-.15-1.05-.45-1.41s-.78-.53-1.42-.53c-.57,0-1.02.14-1.34.41s-.49.65-.49,1.12h-3.39c0-.73.23-1.41.68-2.04s1.09-1.12,1.92-1.47,1.76-.53,2.79-.53c1.56,0,2.8.39,3.72,1.18s1.38,1.89,1.38,3.31v5.5c0,1.2.18,2.11.5,2.73v.2h-3.42Zm-2.8-2.36c.5,0,.96-.11,1.38-.33s.73-.52.94-.9v-2.18h-1.27c-1.7,0-2.6.59-2.71,1.76v.2c-.01.42.14.77.43,1.04s.7.41,1.22.41Z"/>
      <path class="cls-9" d="m612.72,512.76c.62,0,1.13-.17,1.52-.52s.59-.8.61-1.37h3.18c0,.86-.24,1.65-.7,2.36s-1.09,1.27-1.89,1.66-1.69.59-2.65.59c-1.81,0-3.24-.58-4.29-1.73s-1.57-2.74-1.57-4.78v-.22c0-1.95.52-3.51,1.56-4.68s2.46-1.75,4.28-1.75c1.59,0,2.86.45,3.81,1.35s1.44,2.1,1.46,3.6h-3.18c-.02-.66-.22-1.2-.61-1.61-.39-.41-.91-.62-1.55-.62-.79,0-1.38.29-1.79.86-.4.57-.6,1.51-.6,2.8v.35c0,1.31.2,2.25.6,2.82.4.57,1,.86,1.82.86Z"/>
      <path class="cls-9" d="m619.44,508.8c0-1.26.24-2.38.73-3.36s1.18-1.75,2.09-2.29,1.97-.81,3.17-.81c1.71,0,3.11.52,4.19,1.57s1.69,2.47,1.81,4.27l.02.87c0,1.95-.54,3.51-1.63,4.68s-2.54,1.76-4.37,1.76-3.29-.59-4.38-1.76-1.63-2.77-1.63-4.78v-.15Zm3.39.24c0,1.21.23,2.13.68,2.76s1.1.96,1.95.96,1.46-.31,1.92-.94.69-1.64.69-3.02c0-1.18-.23-2.1-.69-2.75s-1.11-.97-1.95-.97-1.47.32-1.92.97-.68,1.65-.68,3Z"/>
      <path class="cls-9" d="m641.13,513.97c-.84,1.02-1.99,1.52-3.47,1.52-1.36,0-2.4-.39-3.11-1.17s-1.08-1.93-1.1-3.43v-8.31h3.39v8.2c0,1.32.6,1.98,1.8,1.98s1.94-.4,2.37-1.2v-8.99h3.4v12.68h-3.19l-.09-1.29Z"/>
      <path class="cls-9" d="m653.83,511.76c0-.41-.21-.74-.62-.98s-1.07-.45-1.97-.64c-3.02-.63-4.52-1.91-4.52-3.84,0-1.12.47-2.06,1.4-2.82s2.15-1.13,3.66-1.13c1.61,0,2.9.38,3.86,1.14s1.45,1.74,1.45,2.95h-3.39c0-.48-.16-.88-.47-1.2s-.8-.47-1.46-.47c-.57,0-1.01.13-1.32.39s-.47.59-.47.98c0,.38.18.68.53.91s.96.43,1.8.6,1.55.36,2.13.57c1.79.66,2.68,1.79,2.68,3.41,0,1.16-.5,2.09-1.49,2.81s-2.27,1.07-3.84,1.07c-1.06,0-2.01-.19-2.83-.57s-1.47-.9-1.94-1.56-.7-1.37-.7-2.14h3.21c.03.6.25,1.06.67,1.38s.97.48,1.66.48c.65,0,1.14-.12,1.47-.37s.5-.57.5-.97Z"/>
      <path class="cls-9" d="m663.36,499.46v3.12h2.17v2.48h-2.17v6.33c0,.47.09.8.27,1.01s.52.3,1.03.3c.38,0,.71-.03,1-.08v2.57c-.66.2-1.35.3-2.05.3-2.38,0-3.59-1.2-3.63-3.6v-6.83h-1.85v-2.48h1.85v-3.12h3.39Z"/>
      <path class="cls-9" d="m667.39,499.3c0-.51.17-.93.51-1.25s.8-.49,1.39-.49,1.04.16,1.38.49.52.75.52,1.25-.17.94-.52,1.27-.81.49-1.38.49-1.03-.16-1.38-.49-.52-.75-.52-1.27Zm3.6,15.96h-3.4v-12.68h3.4v12.68Z"/>
      <path class="cls-9" d="m679.05,512.76c.62,0,1.13-.17,1.52-.52s.59-.8.61-1.37h3.18c0,.86-.24,1.65-.7,2.36s-1.09,1.27-1.89,1.66-1.69.59-2.65.59c-1.81,0-3.24-.58-4.29-1.73s-1.57-2.74-1.57-4.78v-.22c0-1.95.52-3.51,1.56-4.68s2.46-1.75,4.28-1.75c1.59,0,2.86.45,3.81,1.35s1.44,2.1,1.46,3.6h-3.18c-.02-.66-.22-1.2-.61-1.61-.39-.41-.91-.62-1.55-.62-.79,0-1.38.29-1.79.86-.4.57-.6,1.51-.6,2.8v.35c0,1.31.2,2.25.6,2.82.4.57,1,.86,1.82.86Z"/>
      <path class="cls-9" d="m693.16,511.76c0-.41-.21-.74-.62-.98s-1.07-.45-1.97-.64c-3.02-.63-4.52-1.91-4.52-3.84,0-1.12.47-2.06,1.4-2.82s2.15-1.13,3.66-1.13c1.61,0,2.9.38,3.86,1.14s1.45,1.74,1.45,2.95h-3.39c0-.48-.16-.88-.47-1.2s-.8-.47-1.46-.47c-.57,0-1.01.13-1.32.39s-.47.59-.47.98c0,.38.18.68.53.91s.96.43,1.8.6,1.55.36,2.13.57c1.79.66,2.68,1.79,2.68,3.41,0,1.16-.5,2.09-1.49,2.81s-2.27,1.07-3.84,1.07c-1.06,0-2.01-.19-2.83-.57s-1.47-.9-1.94-1.56-.7-1.37-.7-2.14h3.21c.03.6.25,1.06.67,1.38s.97.48,1.66.48c.65,0,1.14-.12,1.47-.37s.5-.57.5-.97Z"/>
    </g>
    <g>
      <path class="cls-9" d="m490.79,537.8l4.38,12.38,4.36-12.38h4.62v17.06h-3.53v-4.66l.35-8.05-4.61,12.72h-2.41l-4.59-12.7.35,8.04v4.66h-3.52v-17.06h4.59Z"/>
      <path class="cls-9" d="m512.84,555.1c-1.86,0-3.37-.57-4.54-1.71-1.17-1.14-1.75-2.66-1.75-4.56v-.33c0-1.27.25-2.41.74-3.42s1.19-1.78,2.09-2.32,1.93-.81,3.09-.81c1.73,0,3.1.55,4.1,1.64s1.49,2.64,1.49,4.65v1.38h-8.07c.11.83.44,1.49.99,1.99s1.25.75,2.09.75c1.3,0,2.32-.47,3.06-1.42l1.66,1.86c-.51.72-1.2,1.28-2.06,1.68s-1.83.6-2.88.6Zm-.39-10.42c-.67,0-1.22.23-1.63.68-.42.46-.69,1.11-.8,1.95h4.71v-.27c-.02-.75-.22-1.34-.61-1.75-.39-.41-.95-.62-1.66-.62Z"/>
      <path class="cls-9" d="m525.25,552.37c.62,0,1.13-.17,1.52-.52s.59-.8.61-1.37h3.18c0,.86-.24,1.65-.7,2.36-.46.71-1.09,1.27-1.89,1.66s-1.69.59-2.65.59c-1.81,0-3.24-.58-4.29-1.73-1.05-1.15-1.57-2.74-1.57-4.78v-.22c0-1.95.52-3.51,1.56-4.68s2.46-1.75,4.28-1.75c1.59,0,2.86.45,3.81,1.35s1.44,2.1,1.46,3.6h-3.18c-.02-.66-.22-1.2-.61-1.61-.39-.41-.91-.62-1.55-.62-.79,0-1.38.29-1.79.86-.4.57-.6,1.51-.6,2.8v.35c0,1.31.2,2.25.6,2.82.4.57,1,.86,1.82.86Z"/>
      <path class="cls-9" d="m535.79,543.56c.9-1.08,2.03-1.62,3.39-1.62,2.75,0,4.14,1.6,4.18,4.79v8.12h-3.39v-8.03c0-.73-.16-1.26-.47-1.61s-.83-.52-1.56-.52c-.99,0-1.71.38-2.16,1.15v9.01h-3.39v-18h3.39v6.7Z"/>
      <path class="cls-9" d="m553.27,554.86c-.16-.3-.27-.68-.34-1.14-.82.91-1.89,1.37-3.2,1.37-1.24,0-2.27-.36-3.09-1.08s-1.22-1.62-1.22-2.72c0-1.34.5-2.38,1.49-3.09s2.44-1.08,4.32-1.09h1.56v-.73c0-.59-.15-1.05-.45-1.41s-.78-.53-1.42-.53c-.57,0-1.02.14-1.34.41s-.49.65-.49,1.12h-3.39c0-.73.23-1.41.68-2.04s1.09-1.12,1.92-1.47,1.76-.53,2.79-.53c1.56,0,2.8.39,3.72,1.18s1.38,1.89,1.38,3.31v5.5c0,1.2.18,2.11.5,2.73v.2h-3.42Zm-2.8-2.36c.5,0,.96-.11,1.38-.33.42-.22.73-.52.94-.9v-2.18h-1.27c-1.7,0-2.6.59-2.71,1.76v.2c-.01.42.14.77.43,1.04.3.27.7.41,1.22.41Z"/>
      <path class="cls-9" d="m561.9,542.18l.11,1.46c.91-1.13,2.12-1.7,3.64-1.7,1.34,0,2.34.39,3,1.18s.99,1.97,1.01,3.54v8.19h-3.39v-8.11c0-.72-.16-1.24-.47-1.56s-.83-.49-1.56-.49c-.95,0-1.67.41-2.14,1.22v8.94h-3.39v-12.68h3.19Z"/>
      <path class="cls-9" d="m572.21,538.9c0-.51.17-.93.51-1.25s.8-.49,1.39-.49,1.04.16,1.38.49.52.75.52,1.25-.17.94-.52,1.27-.81.49-1.38.49-1.03-.16-1.38-.49-.52-.75-.52-1.27Zm3.6,15.96h-3.4v-12.68h3.4v12.68Z"/>
      <path class="cls-9" d="m583.87,552.37c.62,0,1.13-.17,1.52-.52s.59-.8.61-1.37h3.18c0,.86-.24,1.65-.7,2.36-.46.71-1.09,1.27-1.89,1.66s-1.69.59-2.65.59c-1.81,0-3.24-.58-4.29-1.73-1.05-1.15-1.57-2.74-1.57-4.78v-.22c0-1.95.52-3.51,1.56-4.68s2.46-1.75,4.28-1.75c1.59,0,2.86.45,3.81,1.35s1.44,2.1,1.46,3.6h-3.18c-.02-.66-.22-1.2-.61-1.61-.39-.41-.91-.62-1.55-.62-.79,0-1.38.29-1.79.86-.4.57-.6,1.51-.6,2.8v.35c0,1.31.2,2.25.6,2.82.4.57,1,.86,1.82.86Z"/>
      <path class="cls-9" d="m598.46,554.86c-.16-.3-.27-.68-.34-1.14-.82.91-1.89,1.37-3.2,1.37-1.24,0-2.27-.36-3.09-1.08s-1.22-1.62-1.22-2.72c0-1.34.5-2.38,1.49-3.09s2.44-1.08,4.32-1.09h1.56v-.73c0-.59-.15-1.05-.45-1.41s-.78-.53-1.42-.53c-.57,0-1.02.14-1.34.41s-.49.65-.49,1.12h-3.39c0-.73.23-1.41.68-2.04s1.09-1.12,1.92-1.47,1.76-.53,2.79-.53c1.56,0,2.8.39,3.72,1.18s1.38,1.89,1.38,3.31v5.5c0,1.2.18,2.11.5,2.73v.2h-3.42Zm-2.8-2.36c.5,0,.96-.11,1.38-.33.42-.22.73-.52.94-.9v-2.18h-1.27c-1.7,0-2.6.59-2.71,1.76v.2c-.01.42.14.77.43,1.04.3.27.7.41,1.22.41Z"/>
      <path class="cls-9" d="m607.55,554.86h-3.4v-18h3.4v18Z"/>
      <path class="cls-9" d="m623.44,545.36c-.46-.06-.87-.09-1.22-.09-1.28,0-2.12.43-2.52,1.3v8.3h-3.39v-12.68h3.2l.09,1.51c.68-1.16,1.62-1.75,2.82-1.75.38,0,.73.05,1.05.15l-.05,3.26Z"/>
      <path class="cls-9" d="m632.06,554.86c-.16-.3-.27-.68-.34-1.14-.82.91-1.89,1.37-3.2,1.37-1.24,0-2.27-.36-3.09-1.08s-1.22-1.62-1.22-2.72c0-1.34.5-2.38,1.49-3.09s2.44-1.08,4.32-1.09h1.56v-.73c0-.59-.15-1.05-.45-1.41s-.78-.53-1.42-.53c-.57,0-1.02.14-1.34.41s-.49.65-.49,1.12h-3.39c0-.73.23-1.41.68-2.04s1.09-1.12,1.92-1.47,1.76-.53,2.79-.53c1.56,0,2.8.39,3.72,1.18s1.38,1.89,1.38,3.31v5.5c0,1.2.18,2.11.5,2.73v.2h-3.42Zm-2.8-2.36c.5,0,.96-.11,1.38-.33.42-.22.73-.52.94-.9v-2.18h-1.27c-1.7,0-2.6.59-2.71,1.76v.2c-.01.42.14.77.43,1.04.3.27.7.41,1.22.41Z"/>
      <path class="cls-9" d="m637.06,548.43c0-1.98.44-3.55,1.33-4.72s2.1-1.76,3.64-1.76c1.23,0,2.25.46,3.06,1.38v-6.47h3.4v18h-3.06l-.16-1.35c-.84,1.05-1.93,1.58-3.26,1.58-1.49,0-2.69-.59-3.59-1.76-.9-1.18-1.35-2.81-1.35-4.9Zm3.39.25c0,1.19.21,2.1.62,2.73s1.02.95,1.8.95c1.05,0,1.79-.44,2.21-1.33v-5.01c-.42-.88-1.15-1.33-2.19-1.33-1.63,0-2.45,1.33-2.45,3.98Z"/>
      <path class="cls-9" d="m651.08,538.9c0-.51.17-.93.51-1.25s.8-.49,1.39-.49,1.04.16,1.38.49.52.75.52,1.25-.17.94-.52,1.27-.81.49-1.38.49-1.03-.16-1.38-.49-.52-.75-.52-1.27Zm3.6,15.96h-3.4v-12.68h3.4v12.68Z"/>
      <path class="cls-9" d="m664.82,554.86c-.16-.3-.27-.68-.34-1.14-.82.91-1.89,1.37-3.2,1.37-1.24,0-2.27-.36-3.09-1.08s-1.22-1.62-1.22-2.72c0-1.34.5-2.38,1.49-3.09s2.44-1.08,4.32-1.09h1.56v-.73c0-.59-.15-1.05-.45-1.41s-.78-.53-1.42-.53c-.57,0-1.02.14-1.34.41s-.49.65-.49,1.12h-3.39c0-.73.23-1.41.68-2.04s1.09-1.12,1.92-1.47,1.76-.53,2.79-.53c1.56,0,2.8.39,3.72,1.18s1.38,1.89,1.38,3.31v5.5c0,1.2.18,2.11.5,2.73v.2h-3.42Zm-2.8-2.36c.5,0,.96-.11,1.38-.33.42-.22.73-.52.94-.9v-2.18h-1.27c-1.7,0-2.6.59-2.71,1.76v.2c-.01.42.14.77.43,1.04.3.27.7.41,1.22.41Z"/>
      <path class="cls-9" d="m674.39,539.06v3.12h2.17v2.48h-2.17v6.33c0,.47.09.8.27,1.01s.52.31,1.03.31c.38,0,.71-.03,1-.08v2.57c-.66.2-1.35.3-2.05.3-2.38,0-3.59-1.2-3.63-3.6v-6.83h-1.85v-2.48h1.85v-3.12h3.39Z"/>
      <path class="cls-9" d="m678.42,538.9c0-.51.17-.93.51-1.25s.8-.49,1.39-.49,1.04.16,1.38.49.52.75.52,1.25-.17.94-.52,1.27-.81.49-1.38.49-1.03-.16-1.38-.49-.52-.75-.52-1.27Zm3.6,15.96h-3.4v-12.68h3.4v12.68Z"/>
      <path class="cls-9" d="m684.28,548.4c0-1.26.24-2.38.73-3.36s1.18-1.75,2.09-2.29,1.97-.81,3.17-.81c1.71,0,3.11.52,4.19,1.57s1.69,2.47,1.81,4.27l.02.87c0,1.95-.54,3.51-1.63,4.68-1.09,1.18-2.54,1.76-4.37,1.76s-3.29-.59-4.38-1.76c-1.09-1.17-1.63-2.77-1.63-4.78v-.15Zm3.39.24c0,1.21.23,2.13.68,2.76s1.1.96,1.95.96,1.46-.32,1.92-.95.69-1.64.69-3.02c0-1.18-.23-2.1-.69-2.75s-1.11-.97-1.95-.97-1.47.32-1.92.97-.68,1.65-.68,3Z"/>
      <path class="cls-9" d="m701.5,542.18l.11,1.46c.91-1.13,2.12-1.7,3.64-1.7,1.34,0,2.34.39,3,1.18s.99,1.97,1.01,3.54v8.19h-3.39v-8.11c0-.72-.16-1.24-.47-1.56s-.83-.49-1.56-.49c-.95,0-1.67.41-2.14,1.22v8.94h-3.39v-12.68h3.19Z"/>
      <path class="cls-9" d="m573.19,567.7c0-.51.17-.93.51-1.25s.8-.49,1.39-.49,1.04.16,1.38.49.52.75.52,1.25-.17.94-.52,1.27-.81.49-1.38.49-1.03-.16-1.38-.49-.52-.75-.52-1.27Zm3.6,15.96h-3.4v-12.68h3.4v12.68Z"/>
      <path class="cls-9" d="m582.69,570.98l.11,1.46c.91-1.13,2.12-1.7,3.64-1.7,1.34,0,2.34.39,3,1.18s.99,1.97,1.01,3.54v8.19h-3.39v-8.11c0-.72-.16-1.24-.47-1.56s-.83-.49-1.56-.49c-.95,0-1.67.41-2.14,1.22v8.94h-3.39v-12.68h3.19Z"/>
      <path class="cls-9" d="m606.34,583.66c-.16-.3-.27-.68-.34-1.14-.82.91-1.89,1.37-3.2,1.37-1.24,0-2.27-.36-3.09-1.08s-1.22-1.62-1.22-2.72c0-1.34.5-2.38,1.49-3.09s2.44-1.08,4.32-1.09h1.56v-.73c0-.59-.15-1.05-.45-1.41s-.78-.53-1.42-.53c-.57,0-1.02.14-1.34.41s-.49.65-.49,1.12h-3.39c0-.73.23-1.41.68-2.04s1.09-1.12,1.92-1.47,1.76-.53,2.79-.53c1.56,0,2.8.39,3.72,1.18s1.38,1.89,1.38,3.31v5.5c0,1.2.18,2.11.5,2.73v.2h-3.42Zm-2.8-2.36c.5,0,.96-.11,1.38-.33s.73-.52.94-.9v-2.18h-1.27c-1.7,0-2.6.59-2.71,1.76v.2c-.01.42.14.77.43,1.04s.7.41,1.22.41Z"/>
      <path class="cls-9" d="m615.44,583.66h-3.4v-18h3.4v18Z"/>
      <path class="cls-9" d="m621.8,583.66h-3.4v-18h3.4v18Z"/>
      <path class="cls-9" d="m515.13,599.78l.11,1.42c.9-1.1,2.11-1.65,3.64-1.65,1.63,0,2.75.64,3.36,1.93.89-1.29,2.16-1.93,3.81-1.93,1.38,0,2.4.4,3.07,1.2s1.01,2.01,1.01,3.62v8.1h-3.4v-8.09c0-.72-.14-1.24-.42-1.58s-.78-.5-1.49-.5c-1.02,0-1.72.48-2.11,1.45v8.71s-3.38,0-3.38,0v-8.07c0-.73-.14-1.27-.43-1.59s-.78-.49-1.48-.49c-.96,0-1.66.4-2.09,1.2v8.96h-3.39v-12.68h3.18Z"/>
      <path class="cls-9" d="m540.08,612.46c-.16-.3-.27-.68-.34-1.14-.82.91-1.89,1.37-3.2,1.37-1.24,0-2.27-.36-3.09-1.08s-1.22-1.62-1.22-2.72c0-1.34.5-2.38,1.49-3.09s2.44-1.08,4.32-1.09h1.56v-.73c0-.59-.15-1.05-.45-1.41s-.78-.53-1.42-.53c-.57,0-1.02.14-1.34.41s-.49.65-.49,1.12h-3.39c0-.73.23-1.41.68-2.04s1.09-1.12,1.92-1.47,1.76-.53,2.79-.53c1.56,0,2.8.39,3.72,1.18s1.38,1.89,1.38,3.31v5.5c0,1.2.18,2.11.5,2.73v.2h-3.42Zm-2.8-2.36c.5,0,.96-.11,1.38-.33s.73-.52.94-.9v-2.18h-1.27c-1.7,0-2.6.59-2.71,1.76v.2c-.01.42.14.77.43,1.04s.7.41,1.22.41Z"/>
      <path class="cls-9" d="m549.65,596.66v3.12h2.17v2.48h-2.17v6.33c0,.47.09.8.27,1.01s.52.3,1.03.3c.38,0,.71-.03,1-.08v2.57c-.66.2-1.35.3-2.05.3-2.38,0-3.59-1.2-3.63-3.6v-6.83h-1.85v-2.48h1.85v-3.12h3.39Z"/>
      <path class="cls-9" d="m559.54,612.7c-1.86,0-3.37-.57-4.54-1.71s-1.75-2.66-1.75-4.56v-.33c0-1.27.25-2.41.74-3.42s1.19-1.78,2.09-2.32,1.93-.81,3.09-.81c1.73,0,3.1.55,4.1,1.64s1.49,2.64,1.49,4.65v1.38h-8.07c.11.83.44,1.49.99,1.99s1.25.75,2.09.75c1.3,0,2.32-.47,3.06-1.42l1.66,1.86c-.51.72-1.2,1.28-2.06,1.68s-1.83.6-2.88.6Zm-.39-10.42c-.67,0-1.22.23-1.63.68-.42.46-.69,1.11-.8,1.95h4.71v-.27c-.02-.75-.22-1.34-.61-1.75s-.95-.62-1.66-.62Z"/>
      <path class="cls-9" d="m573.8,602.96c-.46-.06-.87-.09-1.22-.09-1.28,0-2.12.43-2.52,1.3v8.3h-3.39v-12.68h3.2l.09,1.51c.68-1.16,1.62-1.75,2.82-1.75.38,0,.73.05,1.05.15l-.05,3.26Z"/>
      <path class="cls-9" d="m575.41,596.5c0-.51.17-.93.51-1.25s.8-.49,1.39-.49,1.04.16,1.38.49.52.75.52,1.25-.17.94-.52,1.27-.81.49-1.38.49-1.03-.16-1.38-.49-.52-.75-.52-1.27Zm3.6,15.96h-3.4v-12.68h3.4v12.68Z"/>
      <path class="cls-9" d="m589.14,612.46c-.16-.3-.27-.68-.34-1.14-.82.91-1.89,1.37-3.2,1.37-1.24,0-2.27-.36-3.09-1.08s-1.22-1.62-1.22-2.72c0-1.34.5-2.38,1.49-3.09s2.44-1.08,4.32-1.09h1.56v-.73c0-.59-.15-1.05-.45-1.41s-.78-.53-1.42-.53c-.57,0-1.02.14-1.34.41s-.49.65-.49,1.12h-3.39c0-.73.23-1.41.68-2.04s1.09-1.12,1.92-1.47,1.76-.53,2.79-.53c1.56,0,2.8.39,3.72,1.18s1.38,1.89,1.38,3.31v5.5c0,1.2.18,2.11.5,2.73v.2h-3.42Zm-2.8-2.36c.5,0,.96-.11,1.38-.33s.73-.52.94-.9v-2.18h-1.27c-1.7,0-2.6.59-2.71,1.76v.2c-.01.42.14.77.43,1.04s.7.41,1.22.41Z"/>
      <path class="cls-9" d="m598.24,612.46h-3.4v-18h3.4v18Z"/>
      <path class="cls-9" d="m610.18,599.78l.11,1.42c.9-1.1,2.11-1.65,3.64-1.65,1.63,0,2.75.64,3.36,1.93.89-1.29,2.16-1.93,3.81-1.93,1.38,0,2.4.4,3.07,1.2s1.01,2.01,1.01,3.62v8.1h-3.4v-8.09c0-.72-.14-1.24-.42-1.58s-.78-.5-1.49-.5c-1.02,0-1.72.48-2.11,1.45v8.71s-3.38,0-3.38,0v-8.07c0-.73-.14-1.27-.43-1.59s-.78-.49-1.48-.49c-.96,0-1.66.4-2.09,1.2v8.96h-3.39v-12.68h3.18Z"/>
      <path class="cls-9" d="m633.62,612.7c-1.86,0-3.37-.57-4.54-1.71s-1.75-2.66-1.75-4.56v-.33c0-1.27.25-2.41.74-3.42s1.19-1.78,2.09-2.32,1.93-.81,3.09-.81c1.73,0,3.1.55,4.1,1.64s1.49,2.64,1.49,4.65v1.38h-8.07c.11.83.44,1.49.99,1.99s1.25.75,2.09.75c1.3,0,2.32-.47,3.06-1.42l1.66,1.86c-.51.72-1.2,1.28-2.06,1.68s-1.83.6-2.88.6Zm-.39-10.42c-.67,0-1.22.23-1.63.68-.42.46-.69,1.11-.8,1.95h4.71v-.27c-.02-.75-.22-1.34-.61-1.75s-.95-.62-1.66-.62Z"/>
      <path class="cls-9" d="m640.23,606.03c0-1.98.44-3.55,1.33-4.72s2.1-1.76,3.64-1.76c1.23,0,2.25.46,3.06,1.38v-6.47h3.4v18h-3.06l-.16-1.35c-.84,1.05-1.93,1.58-3.26,1.58-1.49,0-2.69-.59-3.59-1.76s-1.35-2.81-1.35-4.9Zm3.39.25c0,1.19.21,2.1.62,2.74s1.02.95,1.8.95c1.05,0,1.79-.44,2.21-1.33v-5.01c-.42-.88-1.15-1.33-2.19-1.33-1.63,0-2.45,1.33-2.45,3.98Z"/>
      <path class="cls-9" d="m654.25,596.5c0-.51.17-.93.51-1.25s.8-.49,1.39-.49,1.04.16,1.38.49.52.75.52,1.25-.17.94-.52,1.27-.81.49-1.38.49-1.03-.16-1.38-.49-.52-.75-.52-1.27Zm3.6,15.96h-3.4v-12.68h3.4v12.68Z"/>
      <path class="cls-9" d="m667.99,612.46c-.16-.3-.27-.68-.34-1.14-.82.91-1.89,1.37-3.2,1.37-1.24,0-2.27-.36-3.09-1.08s-1.22-1.62-1.22-2.72c0-1.34.5-2.38,1.49-3.09s2.44-1.08,4.32-1.09h1.56v-.73c0-.59-.15-1.05-.45-1.41s-.78-.53-1.42-.53c-.57,0-1.02.14-1.34.41s-.49.65-.49,1.12h-3.39c0-.73.23-1.41.68-2.04s1.09-1.12,1.92-1.47,1.76-.53,2.79-.53c1.56,0,2.8.39,3.72,1.18s1.38,1.89,1.38,3.31v5.5c0,1.2.18,2.11.5,2.73v.2h-3.42Zm-2.8-2.36c.5,0,.96-.11,1.38-.33s.73-.52.94-.9v-2.18h-1.27c-1.7,0-2.6.59-2.71,1.76v.2c-.01.42.14.77.43,1.04s.7.41,1.22.41Z"/>
      <path class="cls-9" d="m680.37,608.96c0-.41-.21-.74-.62-.98s-1.07-.45-1.97-.64c-3.02-.63-4.52-1.91-4.52-3.84,0-1.12.47-2.06,1.4-2.82s2.15-1.13,3.66-1.13c1.61,0,2.9.38,3.86,1.14s1.45,1.74,1.45,2.95h-3.39c0-.48-.16-.88-.47-1.2s-.8-.47-1.46-.47c-.57,0-1.01.13-1.32.39s-.47.59-.47.98c0,.38.18.68.53.91s.96.43,1.8.6,1.55.36,2.13.57c1.79.66,2.68,1.79,2.68,3.41,0,1.16-.5,2.09-1.49,2.81s-2.27,1.07-3.84,1.07c-1.06,0-2.01-.19-2.83-.57s-1.47-.9-1.94-1.56-.7-1.37-.7-2.14h3.21c.03.6.25,1.06.67,1.38s.97.48,1.66.48c.65,0,1.14-.12,1.47-.37s.5-.57.5-.97Z"/>
    </g>
    <text class="cls-8" transform="translate(549.96 648.47)"><tspan x="0" y="0">Phonons</tspan></text>
    <line class="cls-3" x1="97.2" y1="554.86" x2="57.6" y2="554.86"/>
    <line class="cls-3" x1="597.6" y1="54.46" x2="597.6" y2="14.86"/>
    <line class="cls-3" x1="597.6" y1="1094.86" x2="597.6" y2="1055.26"/>
    <line class="cls-3" x1="1137.6" y1="554.86" x2="1098" y2="554.86"/>
  </g>
</svg>