<?xml version="1.0" encoding="UTF-8"?>
<svg id="TEXT" xmlns="http://www.w3.org/2000/svg" viewBox="0 0 1476 864">
  <defs>
    <style>
      .cls-1 {
        stroke: #307eef;
        stroke-width: 5px;
      }

      .cls-1, .cls-2, .cls-3 {
        fill: none;
        stroke-miterlimit: 10;
      }

      .cls-2 {
        stroke-width: 10px;
      }

      .cls-2, .cls-3 {
        stroke: #c9d1d9;
      }

      .cls-3 {
        stroke-width: 10px;
      }
    </style>
  </defs>
  <g>
    <path class="cls-1" d="m536.66,127.38c56.79,87.74,89.76,192.33,89.76,304.62s-32.97,216.88-89.76,304.62"/>
    <path class="cls-1" d="m392.65,595.24c34.48-45.33,54.95-101.9,54.95-163.24s-20.47-117.92-54.95-163.24"/>
    <path class="cls-1" d="m308.78,333.27c21.05,27.33,33.57,61.57,33.57,98.73s-12.52,71.4-33.57,98.73"/>
    <path class="cls-1" d="m936.07,863.79c18.77-142.27,28.34-286.29,28.34-431.79S954.84,142.48,936.08.21"/>
    <path class="cls-1" d="m223.2,464.9c7.03-9.1,11.2-20.51,11.2-32.9s-4.17-23.8-11.21-32.9"/>
    <path class="cls-1" d="m730.97,863.79c42.89-142.27,64.77-286.29,64.77-431.79S773.85,142.48,730.99.21"/>
    <path class="cls-1" d="m1151.97,863.79c5.31-142.27,8.01-286.29,8.01-431.79s-2.71-289.52-8.01-431.79"/>
    <path class="cls-1" d="m1381.44,863.79c5.31-142.27,8.01-286.29,8.01-431.79s-2.71-289.52-8.01-431.79"/>
  </g>
  <rect class="cls-3" x="33.29" y="403.78" width="117.17" height="56.45" transform="translate(-340.13 523.87) rotate(-90)"/>
  <polygon class="cls-3" points="120.1 373.41 120.1 490.59 176.55 555.03 176.55 308.97 120.1 373.41"/>
  <path class="cls-2" d="m1350.22,436.38c0,21.75,17.63,39.38,39.38,39.38s39.38-17.63,39.38-39.38"/>
  <path class="cls-2" d="m1428.98,357.61c0-21.75-17.63-39.38-39.38-39.38s-39.38,17.63-39.38,39.38"/>
  <line class="cls-2" x1="1350.22" y1="357.61" x2="1350.22" y2="436.38"/>
  <line class="cls-2" x1="1428.98" y1="357.61" x2="1428.98" y2="436.38"/>
  <path class="cls-2" d="m1459.62,437.25c0,40.6-31.35,73.52-70.02,73.52s-70.02-32.91-70.02-73.52m0-14v14m140.03-14v14m-70.02,73.52v35.01m52.51,0h-105.02"/>
</svg>