<?xml version="1.0" encoding="utf-8"?>
<!-- Generator: Adobe Illustrator 27.4.1, SVG Export Plug-In . SVG Version: 6.00 Build 0)  -->
<svg version="1.1" id="Ebene_4" xmlns="http://www.w3.org/2000/svg" xmlns:xlink="http://www.w3.org/1999/xlink" x="0px" y="0px"
	 viewBox="0 0 928.8 1076.4" style="enable-background:new 0 0 928.8 1076.4;" xml:space="preserve">
<style type="text/css">
	.st0{fill:none;stroke:#C9D1D9;stroke-width:3;stroke-miterlimit:10;}
	.st1{fill:none;stroke:#C9D1D9;stroke-width:2;stroke-miterlimit:10;}
	.st2{fill:none;stroke:#C9D1D9;stroke-width:2;stroke-miterlimit:10;stroke-dasharray:0,0,12,12;}
	.st3{fill:#C9D1D9;}
	.st4{enable-background:new    ;}
	.st5{fill:none;stroke:#7F7F7F;stroke-width:3;stroke-miterlimit:10;}
	.st6{fill:none;stroke:#D85648;stroke-width:3;stroke-miterlimit:10;}
</style>
<line class="st0" x1="640.8" y1="432" x2="640.8" y2="648"/>
<path class="st0" d="M640.8,190.8c7.8,15.4,25.2,54.2,25.2,108c0,18.2-2,62.3-25.2,108"/>
<g>
	<line class="st1" x1="640.8" y1="190.8" x2="640.8" y2="196.8"/>
	<line class="st2" x1="640.8" y1="208.8" x2="640.8" y2="394.8"/>
	<line class="st1" x1="640.8" y1="400.8" x2="640.8" y2="406.8"/>
</g>
<path class="st0" d="M640.8,673.2c-7.8,15.4-25.2,54.2-25.2,108c0,18.2,2,62.3,25.2,108"/>
<g>
	<line class="st1" x1="640.8" y1="673.2" x2="640.8" y2="679.2"/>
	<line class="st2" x1="640.8" y1="691.2" x2="640.8" y2="877.2"/>
	<line class="st1" x1="640.8" y1="883.2" x2="640.8" y2="889.2"/>
</g>
<g>
	<path class="st3" d="M750.1,270.7V284h-4.5v-34.1h12.6c3.7,0,6.7,0.9,8.8,2.9s3.2,4.4,3.2,7.6c0,3.3-1,5.9-3.1,7.6s-5,2.7-8.9,2.7
		L750.1,270.7L750.1,270.7z M750.1,267h8.1c2.4,0,4.2-0.6,5.5-1.7s1.9-2.8,1.9-4.9s-0.6-3.7-1.9-4.9c-1.3-1.2-3-1.9-5.3-1.9h-8.3
		L750.1,267L750.1,267z"/>
	<path class="st3" d="M773.7,271.1c0-2.5,0.5-4.7,1.5-6.7s2.3-3.5,4.1-4.6s3.7-1.6,6-1.6c3.5,0,6.2,1.2,8.4,3.6s3.2,5.6,3.2,9.5v0.3
		c0,2.5-0.5,4.7-1.4,6.6s-2.3,3.5-4,4.6s-3.8,1.6-6.1,1.6c-3.4,0-6.2-1.2-8.4-3.6s-3.2-5.5-3.2-9.5L773.7,271.1L773.7,271.1z
		 M778.1,271.6c0,2.8,0.7,5.1,2,6.8s3,2.5,5.2,2.5s4-0.9,5.2-2.6s2-4.1,2-7.2c0-2.8-0.7-5-2-6.8s-3.1-2.6-5.3-2.6s-3.9,0.9-5.2,2.5
		S778.1,268.4,778.1,271.6L778.1,271.6z"/>
	<path class="st3" d="M817,277.3c0-1.2-0.4-2.1-1.3-2.7s-2.4-1.2-4.6-1.7s-3.9-1-5.2-1.7s-2.2-1.4-2.9-2.3s-0.9-2-0.9-3.2
		c0-2.1,0.9-3.8,2.6-5.3s4-2.2,6.7-2.2c2.9,0,5.2,0.7,7,2.2s2.7,3.4,2.7,5.7h-4.4c0-1.2-0.5-2.2-1.5-3.1s-2.3-1.3-3.8-1.3
		s-2.8,0.3-3.7,1s-1.3,1.6-1.3,2.7c0,1,0.4,1.8,1.2,2.4s2.3,1,4.5,1.5s3.9,1.1,5.3,1.7s2.3,1.5,3,2.4s1,2.1,1,3.5
		c0,2.3-0.9,4.1-2.7,5.5s-4.2,2-7,2c-2,0-3.8-0.4-5.4-1.1s-2.8-1.7-3.7-3s-1.3-2.7-1.3-4.2h4.3c0.1,1.5,0.7,2.6,1.8,3.5
		s2.5,1.3,4.3,1.3c1.6,0,3-0.3,4-1S817,278.4,817,277.3L817,277.3z"/>
	<path class="st3" d="M827,251.9c0-0.7,0.2-1.3,0.6-1.8s1.1-0.7,1.9-0.7s1.5,0.2,1.9,0.7s0.7,1.1,0.7,1.8s-0.2,1.3-0.7,1.8
		s-1.1,0.7-1.9,0.7s-1.5-0.2-1.9-0.7S827,252.6,827,251.9z M831.7,284h-4.3v-25.4h4.3V284L831.7,284z"/>
	<path class="st3" d="M844.5,252.5v6.1h4.7v3.4h-4.7v15.8c0,1,0.2,1.8,0.6,2.3s1.1,0.8,2.2,0.8c0.5,0,1.2-0.1,2.1-0.3v3.5
		c-1.1,0.3-2.2,0.5-3.3,0.5c-1.9,0-3.4-0.6-4.4-1.8s-1.5-2.8-1.5-5V262h-4.6v-3.4h4.6v-6.1L844.5,252.5L844.5,252.5z"/>
	<path class="st3" d="M854.3,251.9c0-0.7,0.2-1.3,0.6-1.8s1.1-0.7,1.9-0.7s1.5,0.2,1.9,0.7s0.7,1.1,0.7,1.8s-0.2,1.3-0.7,1.8
		s-1.1,0.7-1.9,0.7s-1.5-0.2-1.9-0.7S854.3,252.6,854.3,251.9z M859,284h-4.3v-25.4h4.3V284L859,284z"/>
	<path class="st3" d="M874.3,278.1l6.3-19.5h4.4L876,284h-3.3l-9.2-25.4h4.4L874.3,278.1L874.3,278.1z"/>
	<path class="st3" d="M899.4,284.5c-3.4,0-6.2-1.1-8.4-3.4s-3.2-5.3-3.2-9.1v-0.8c0-2.5,0.5-4.8,1.4-6.7s2.3-3.5,4-4.6
		s3.6-1.7,5.6-1.7c3.3,0,5.9,1.1,7.7,3.3s2.7,5.3,2.7,9.3v1.8h-17.2c0.1,2.5,0.8,4.5,2.2,6.1s3.2,2.3,5.3,2.3c1.5,0,2.8-0.3,3.9-0.9
		s2-1.5,2.8-2.5l2.7,2.1C906.9,282.9,903.7,284.5,899.4,284.5L899.4,284.5z M898.9,261.8c-1.8,0-3.2,0.6-4.4,1.9s-1.9,3.1-2.2,5.4
		H905v-0.3c-0.1-2.2-0.7-3.9-1.8-5.1S900.7,261.8,898.9,261.8z"/>
	<path class="st3" d="M753.2,335.7l6.3-19.5h4.4l-9.1,25.4h-3.3l-9.2-25.4h4.4L753.2,335.7L753.2,335.7z"/>
	<path class="st3" d="M766.6,328.7c0-2.5,0.5-4.7,1.5-6.7s2.3-3.5,4.1-4.6s3.7-1.6,6-1.6c3.5,0,6.2,1.2,8.4,3.6s3.2,5.6,3.2,9.5v0.3
		c0,2.5-0.5,4.7-1.4,6.6s-2.3,3.5-4,4.6s-3.8,1.6-6.1,1.6c-3.4,0-6.2-1.2-8.4-3.6s-3.2-5.5-3.2-9.5L766.6,328.7L766.6,328.7z
		 M771,329.2c0,2.8,0.7,5.1,2,6.8s3,2.5,5.2,2.5s4-0.9,5.2-2.6s2-4.1,2-7.2c0-2.8-0.7-5-2-6.8s-3.1-2.6-5.3-2.6s-3.9,0.9-5.2,2.5
		S771,326,771,329.2L771,329.2z"/>
	<path class="st3" d="M799.9,341.6h-4.3v-36h4.3V341.6z"/>
	<path class="st3" d="M812.7,310.1v6.1h4.7v3.4h-4.7v15.8c0,1,0.2,1.8,0.6,2.3s1.1,0.8,2.2,0.8c0.5,0,1.2-0.1,2.1-0.3v3.5
		c-1.1,0.3-2.2,0.5-3.3,0.5c-1.9,0-3.4-0.6-4.4-1.8s-1.5-2.8-1.5-5v-15.7h-4.6v-3.4h4.6v-6.1L812.7,310.1L812.7,310.1z"/>
	<path class="st3" d="M838.1,341.6c-0.2-0.5-0.5-1.4-0.6-2.7c-2,2.1-4.4,3.1-7.2,3.1c-2.5,0-4.5-0.7-6.2-2.1s-2.4-3.2-2.4-5.4
		c0-2.6,1-4.7,3-6.1s4.8-2.2,8.5-2.2h4.2v-2c0-1.5-0.5-2.7-1.4-3.6s-2.2-1.4-4-1.4c-1.5,0-2.8,0.4-3.9,1.2s-1.6,1.7-1.6,2.8h-4.4
		c0-1.3,0.5-2.5,1.3-3.7s2.1-2.1,3.7-2.8s3.2-1,5.1-1c2.9,0,5.2,0.7,6.9,2.2s2.5,3.5,2.6,6v11.7c0,2.3,0.3,4.2,0.9,5.5v0.4
		L838.1,341.6L838.1,341.6z M830.9,338.3c1.4,0,2.7-0.4,3.9-1s2.1-1.6,2.7-2.7v-5.2h-3.4c-5.3,0-8,1.5-8,4.7c0,1.4,0.5,2.4,1.4,3.2
		S829.5,338.3,830.9,338.3L830.9,338.3z"/>
	<path class="st3" d="M847.6,328.7c0-4,0.9-7.1,2.7-9.4s4.2-3.5,7.3-3.5s5.5,1.1,7.2,3.3l0.2-2.8h4V341c0,3.3-1,5.9-2.9,7.8
		s-4.6,2.8-7.8,2.8c-1.8,0-3.6-0.4-5.4-1.2s-3.1-1.9-4-3.2l2.2-2.6c1.9,2.3,4.1,3.5,6.8,3.5c2.1,0,3.8-0.6,4.9-1.8s1.8-2.9,1.8-5
		v-2.2c-1.7,2-4.1,3-7.1,3s-5.4-1.2-7.2-3.6S847.6,332.9,847.6,328.7L847.6,328.7z M851.9,329.2c0,2.9,0.6,5.1,1.8,6.7
		s2.8,2.5,4.9,2.5c2.7,0,4.7-1.2,6-3.7v-11.6c-1.3-2.4-3.3-3.6-6-3.6c-2.1,0-3.8,0.8-5,2.5S851.9,326,851.9,329.2L851.9,329.2z"/>
	<path class="st3" d="M886,342.1c-3.4,0-6.2-1.1-8.4-3.4s-3.2-5.3-3.2-9.1v-0.8c0-2.5,0.5-4.8,1.4-6.7s2.3-3.5,4-4.6
		s3.6-1.7,5.6-1.7c3.3,0,5.9,1.1,7.7,3.3s2.7,5.3,2.7,9.3v1.8h-17.2c0.1,2.5,0.8,4.5,2.2,6.1s3.2,2.3,5.3,2.3c1.5,0,2.8-0.3,3.9-0.9
		s2-1.5,2.8-2.5l2.7,2.1C893.5,340.5,890.3,342.1,886,342.1L886,342.1z M885.5,319.4c-1.8,0-3.2,0.6-4.4,1.9s-1.9,3.1-2.2,5.4h12.7
		v-0.3c-0.1-2.2-0.7-3.9-1.8-5.1S887.3,319.4,885.5,319.4z"/>
</g>
<g>
	<path class="st3" d="M748.9,521.5h19.5v3.7h-24.8v-3.4l18.7-27.1h-18.4v-3.7h23.8v3.3L748.9,521.5L748.9,521.5z"/>
	<path class="st3" d="M783.7,525.7c-3.4,0-6.2-1.1-8.4-3.4s-3.2-5.3-3.2-9.1v-0.8c0-2.5,0.5-4.8,1.4-6.7s2.3-3.5,4-4.6
		s3.6-1.7,5.6-1.7c3.3,0,5.9,1.1,7.7,3.3s2.7,5.3,2.7,9.3v1.8h-17.2c0.1,2.5,0.8,4.5,2.2,6.1s3.2,2.3,5.3,2.3c1.5,0,2.8-0.3,3.9-0.9
		s2-1.5,2.8-2.5l2.7,2.1C791.1,524.1,787.9,525.7,783.7,525.7L783.7,525.7z M783.1,503c-1.8,0-3.2,0.6-4.4,1.9s-1.9,3.1-2.2,5.4
		h12.7v-0.3c-0.1-2.2-0.7-3.9-1.8-5.1S784.9,503,783.1,503z"/>
	<path class="st3" d="M810.8,503.8c-0.7-0.1-1.4-0.2-2.1-0.2c-2.8,0-4.8,1.2-5.8,3.6v18h-4.3v-25.4h4.2l0.1,2.9
		c1.4-2.3,3.4-3.4,6-3.4c0.8,0,1.5,0.1,1.9,0.3L810.8,503.8L810.8,503.8z"/>
	<path class="st3" d="M813.2,512.3c0-2.5,0.5-4.7,1.5-6.7s2.3-3.5,4.1-4.6s3.7-1.6,6-1.6c3.5,0,6.2,1.2,8.4,3.6s3.2,5.6,3.2,9.5v0.3
		c0,2.5-0.5,4.7-1.4,6.6s-2.3,3.5-4,4.6s-3.8,1.6-6.1,1.6c-3.4,0-6.2-1.2-8.4-3.6s-3.2-5.5-3.2-9.5L813.2,512.3L813.2,512.3z
		 M817.5,512.8c0,2.8,0.7,5.1,2,6.8s3,2.5,5.2,2.5s4-0.9,5.2-2.6s2-4.1,2-7.2c0-2.8-0.7-5-2-6.8s-3.1-2.6-5.3-2.6s-3.9,0.9-5.2,2.5
		S817.6,509.6,817.5,512.8L817.5,512.8z"/>
	<path class="st3" d="M753.2,576.9l6.3-19.5h4.4l-9.1,25.4h-3.3l-9.2-25.4h4.4L753.2,576.9L753.2,576.9z"/>
	<path class="st3" d="M766.6,569.9c0-2.5,0.5-4.7,1.5-6.7s2.3-3.5,4.1-4.6s3.7-1.6,6-1.6c3.5,0,6.2,1.2,8.4,3.6s3.2,5.6,3.2,9.5v0.3
		c0,2.5-0.5,4.7-1.4,6.6s-2.3,3.5-4,4.6s-3.8,1.6-6.1,1.6c-3.4,0-6.2-1.2-8.4-3.6s-3.2-5.5-3.2-9.5L766.6,569.9L766.6,569.9z
		 M771,570.4c0,2.8,0.7,5.1,2,6.8s3,2.5,5.2,2.5s4-0.9,5.2-2.6s2-4.1,2-7.2c0-2.8-0.7-5-2-6.8s-3.1-2.6-5.3-2.6s-3.9,0.8-5.2,2.5
		S771,567.2,771,570.4L771,570.4z"/>
	<path class="st3" d="M799.9,582.8h-4.3v-36h4.3V582.8z"/>
	<path class="st3" d="M812.7,551.3v6.1h4.7v3.3h-4.7v15.8c0,1,0.2,1.8,0.6,2.3c0.4,0.5,1.1,0.8,2.2,0.8c0.5,0,1.2-0.1,2.1-0.3v3.5
		c-1.1,0.3-2.2,0.5-3.3,0.5c-1.9,0-3.4-0.6-4.4-1.8s-1.5-2.8-1.5-5v-15.7h-4.6v-3.3h4.6v-6.1L812.7,551.3L812.7,551.3z"/>
	<path class="st3" d="M838.1,582.8c-0.2-0.5-0.5-1.4-0.6-2.7c-2,2.1-4.4,3.1-7.2,3.1c-2.5,0-4.5-0.7-6.2-2.1s-2.4-3.2-2.4-5.4
		c0-2.6,1-4.7,3-6.2s4.8-2.2,8.5-2.2h4.2v-2c0-1.5-0.5-2.7-1.4-3.6s-2.2-1.3-4-1.3c-1.5,0-2.8,0.4-3.9,1.2s-1.6,1.7-1.6,2.8h-4.4
		c0-1.3,0.5-2.5,1.3-3.7s2.1-2.1,3.7-2.8s3.2-1,5.1-1c2.9,0,5.2,0.7,6.9,2.2s2.5,3.5,2.6,6v11.7c0,2.3,0.3,4.2,0.9,5.5v0.4
		L838.1,582.8L838.1,582.8z M830.9,579.5c1.4,0,2.7-0.3,3.9-1s2.1-1.6,2.7-2.7v-5.2h-3.4c-5.3,0-8,1.5-8,4.7c0,1.4,0.5,2.4,1.4,3.2
		S829.5,579.5,830.9,579.5L830.9,579.5z"/>
	<path class="st3" d="M847.6,569.9c0-4,0.9-7.1,2.7-9.4s4.2-3.5,7.3-3.5s5.5,1.1,7.2,3.3l0.2-2.8h4v24.8c0,3.3-1,5.9-2.9,7.8
		s-4.6,2.8-7.8,2.8c-1.8,0-3.6-0.4-5.4-1.2s-3.1-1.8-4-3.2l2.2-2.6c1.9,2.3,4.1,3.5,6.8,3.5c2.1,0,3.8-0.6,4.9-1.8s1.8-2.9,1.8-5
		v-2.2c-1.7,2-4.1,3-7.1,3s-5.4-1.2-7.2-3.6S847.6,574.1,847.6,569.9L847.6,569.9z M851.9,570.4c0,2.9,0.6,5.1,1.8,6.7
		s2.8,2.5,4.9,2.5c2.7,0,4.7-1.2,6-3.7v-11.6c-1.3-2.4-3.3-3.6-6-3.6c-2.1,0-3.8,0.8-5,2.5S851.9,567.2,851.9,570.4L851.9,570.4z"/>
	<path class="st3" d="M886,583.3c-3.4,0-6.2-1.1-8.4-3.4s-3.2-5.3-3.2-9.1V570c0-2.5,0.5-4.8,1.4-6.7s2.3-3.5,4-4.6s3.6-1.7,5.6-1.7
		c3.3,0,5.9,1.1,7.7,3.3s2.7,5.3,2.7,9.3v1.8h-17.2c0.1,2.5,0.8,4.5,2.2,6.1s3.2,2.3,5.3,2.3c1.5,0,2.8-0.3,3.9-0.9s2-1.5,2.8-2.5
		l2.7,2.1C893.5,581.7,890.3,583.3,886,583.3L886,583.3z M885.5,560.6c-1.8,0-3.2,0.6-4.4,1.9s-1.9,3.1-2.2,5.4h12.7v-0.3
		c-0.1-2.2-0.7-3.9-1.8-5.1S887.3,560.6,885.5,560.6L885.5,560.6z"/>
</g>
<g>
	<path class="st3" d="M771.8,766.4h-4.5l-17.2-26.3v26.3h-4.5v-34.1h4.5l17.2,26.4v-26.4h4.5L771.8,766.4L771.8,766.4z"/>
	<path class="st3" d="M789.6,766.9c-3.4,0-6.2-1.1-8.4-3.4s-3.2-5.3-3.2-9.1v-0.8c0-2.5,0.5-4.8,1.4-6.7s2.3-3.5,4-4.6
		s3.6-1.7,5.6-1.7c3.3,0,5.9,1.1,7.7,3.3s2.7,5.3,2.7,9.3v1.8h-17.2c0.1,2.5,0.8,4.5,2.2,6.1s3.2,2.3,5.3,2.3c1.5,0,2.8-0.3,3.9-0.9
		s2-1.5,2.8-2.5l2.7,2.1C797.1,765.3,793.9,766.9,789.6,766.9L789.6,766.9z M789.1,744.2c-1.8,0-3.2,0.6-4.4,1.9s-1.9,3.1-2.2,5.4
		h12.7v-0.3c-0.1-2.2-0.7-3.9-1.8-5.1S790.9,744.2,789.1,744.2L789.1,744.2z"/>
	<path class="st3" d="M803.5,753.5c0-4,0.9-7.1,2.7-9.4s4.2-3.5,7.3-3.5s5.5,1.1,7.2,3.3l0.2-2.8h4v24.8c0,3.3-1,5.9-2.9,7.8
		s-4.6,2.8-7.8,2.8c-1.8,0-3.6-0.4-5.4-1.2s-3.1-1.8-4-3.2l2.2-2.6c1.9,2.3,4.1,3.5,6.8,3.5c2.1,0,3.8-0.6,4.9-1.8s1.8-2.9,1.8-5
		v-2.2c-1.7,2-4.1,3-7.1,3s-5.4-1.2-7.2-3.6S803.5,757.7,803.5,753.5L803.5,753.5z M807.9,754c0,2.9,0.6,5.1,1.8,6.7
		s2.8,2.5,4.9,2.5c2.7,0,4.7-1.2,6-3.7v-11.6c-1.3-2.4-3.3-3.6-6-3.6c-2.1,0-3.8,0.8-5,2.5S807.8,750.8,807.9,754L807.9,754z"/>
	<path class="st3" d="M847.1,766.4c-0.2-0.5-0.5-1.4-0.6-2.7c-2,2.1-4.4,3.1-7.2,3.1c-2.5,0-4.5-0.7-6.2-2.1s-2.4-3.2-2.4-5.4
		c0-2.6,1-4.7,3-6.2s4.8-2.2,8.5-2.2h4.2v-2c0-1.5-0.5-2.7-1.4-3.6s-2.2-1.3-4-1.3c-1.5,0-2.8,0.4-3.9,1.2s-1.6,1.7-1.6,2.8h-4.4
		c0-1.3,0.5-2.5,1.3-3.7s2.1-2.1,3.7-2.8s3.2-1,5.1-1c2.9,0,5.2,0.7,6.9,2.2s2.5,3.5,2.6,6v11.7c0,2.3,0.3,4.2,0.9,5.5v0.4
		L847.1,766.4L847.1,766.4z M839.9,763.1c1.4,0,2.7-0.3,3.9-1s2.1-1.6,2.7-2.7v-5.2H843c-5.3,0-8,1.5-8,4.7c0,1.4,0.5,2.4,1.4,3.2
		S838.5,763.1,839.9,763.1L839.9,763.1z"/>
	<path class="st3" d="M863.5,734.9v6.1h4.7v3.3h-4.7v15.8c0,1,0.2,1.8,0.6,2.3c0.4,0.5,1.1,0.8,2.2,0.8c0.5,0,1.2-0.1,2.1-0.3v3.5
		c-1.1,0.3-2.2,0.5-3.3,0.5c-1.9,0-3.4-0.6-4.4-1.8s-1.5-2.8-1.5-5v-15.7h-4.6v-3.3h4.6v-6.1L863.5,734.9L863.5,734.9z"/>
	<path class="st3" d="M873.3,734.3c0-0.7,0.2-1.3,0.6-1.8s1.1-0.7,1.9-0.7s1.5,0.2,1.9,0.7s0.7,1.1,0.7,1.8s-0.2,1.3-0.7,1.8
		s-1.1,0.7-1.9,0.7s-1.5-0.2-1.9-0.7S873.3,735.1,873.3,734.3z M878,766.4h-4.3v-25.4h4.3V766.4z"/>
	<path class="st3" d="M893.3,760.5l6.3-19.5h4.4l-9.1,25.4h-3.3l-9.2-25.4h4.4L893.3,760.5L893.3,760.5z"/>
	<path class="st3" d="M918.4,766.9c-3.4,0-6.2-1.1-8.4-3.4s-3.2-5.3-3.2-9.1v-0.8c0-2.5,0.5-4.8,1.4-6.7s2.3-3.5,4-4.6
		s3.6-1.7,5.6-1.7c3.3,0,5.9,1.1,7.7,3.3s2.7,5.3,2.7,9.3v1.8h-17.2c0.1,2.5,0.8,4.5,2.2,6.1s3.2,2.3,5.3,2.3c1.5,0,2.8-0.3,3.9-0.9
		s2-1.5,2.8-2.5l2.7,2.1C925.8,765.3,922.6,766.9,918.4,766.9L918.4,766.9z M917.8,744.2c-1.8,0-3.2,0.6-4.4,1.9s-1.9,3.1-2.2,5.4
		h12.7v-0.3c-0.1-2.2-0.7-3.9-1.8-5.1S919.6,744.2,917.8,744.2L917.8,744.2z"/>
	<path class="st3" d="M753.2,818.1l6.3-19.5h4.4l-9.1,25.4h-3.3l-9.2-25.4h4.4L753.2,818.1L753.2,818.1z"/>
	<path class="st3" d="M766.6,811.1c0-2.5,0.5-4.7,1.5-6.7s2.3-3.5,4.1-4.6s3.7-1.6,6-1.6c3.5,0,6.2,1.2,8.4,3.6s3.2,5.6,3.2,9.5v0.3
		c0,2.5-0.5,4.7-1.4,6.6s-2.3,3.5-4,4.6s-3.8,1.6-6.1,1.6c-3.4,0-6.2-1.2-8.4-3.6s-3.2-5.5-3.2-9.5L766.6,811.1L766.6,811.1z
		 M771,811.6c0,2.8,0.7,5.1,2,6.8s3,2.5,5.2,2.5s4-0.9,5.2-2.6s2-4.1,2-7.2c0-2.8-0.7-5-2-6.8s-3.1-2.6-5.3-2.6s-3.9,0.8-5.2,2.5
		S771,808.4,771,811.6L771,811.6z"/>
	<path class="st3" d="M799.9,824h-4.3v-36h4.3V824z"/>
	<path class="st3" d="M812.7,792.5v6.1h4.7v3.3h-4.7v15.8c0,1,0.2,1.8,0.6,2.3c0.4,0.5,1.1,0.8,2.2,0.8c0.5,0,1.2-0.1,2.1-0.3v3.5
		c-1.1,0.3-2.2,0.5-3.3,0.5c-1.9,0-3.4-0.6-4.4-1.8s-1.5-2.8-1.5-5V802h-4.6v-3.3h4.6v-6.1L812.7,792.5L812.7,792.5z"/>
	<path class="st3" d="M838.1,824c-0.2-0.5-0.5-1.4-0.6-2.7c-2,2.1-4.4,3.1-7.2,3.1c-2.5,0-4.5-0.7-6.2-2.1s-2.4-3.2-2.4-5.4
		c0-2.6,1-4.7,3-6.2s4.8-2.2,8.5-2.2h4.2v-2c0-1.5-0.5-2.7-1.4-3.6s-2.2-1.3-4-1.3c-1.5,0-2.8,0.4-3.9,1.2s-1.6,1.7-1.6,2.8h-4.4
		c0-1.3,0.5-2.5,1.3-3.7s2.1-2.1,3.7-2.8s3.2-1,5.1-1c2.9,0,5.2,0.7,6.9,2.2s2.5,3.5,2.6,6v11.7c0,2.3,0.3,4.2,0.9,5.5v0.4
		L838.1,824L838.1,824z M830.9,820.7c1.4,0,2.7-0.3,3.9-1s2.1-1.6,2.7-2.7v-5.2h-3.4c-5.3,0-8,1.5-8,4.7c0,1.4,0.5,2.4,1.4,3.2
		S829.5,820.7,830.9,820.7L830.9,820.7z"/>
	<path class="st3" d="M847.6,811.1c0-4,0.9-7.1,2.7-9.4s4.2-3.5,7.3-3.5s5.5,1.1,7.2,3.3l0.2-2.8h4v24.8c0,3.3-1,5.9-2.9,7.8
		s-4.6,2.8-7.8,2.8c-1.8,0-3.6-0.4-5.4-1.2s-3.1-1.8-4-3.2l2.2-2.6c1.9,2.3,4.1,3.5,6.8,3.5c2.1,0,3.8-0.6,4.9-1.8s1.8-2.9,1.8-5
		v-2.2c-1.7,2-4.1,3-7.1,3s-5.4-1.2-7.2-3.6S847.6,815.3,847.6,811.1L847.6,811.1z M851.9,811.6c0,2.9,0.6,5.1,1.8,6.7
		s2.8,2.5,4.9,2.5c2.7,0,4.7-1.2,6-3.7v-11.6c-1.3-2.4-3.3-3.6-6-3.6c-2.1,0-3.8,0.8-5,2.5S851.9,808.4,851.9,811.6L851.9,811.6z"/>
	<path class="st3" d="M886,824.5c-3.4,0-6.2-1.1-8.4-3.4s-3.2-5.3-3.2-9.1v-0.8c0-2.5,0.5-4.8,1.4-6.7s2.3-3.5,4-4.6
		s3.6-1.7,5.6-1.7c3.3,0,5.9,1.1,7.7,3.3s2.7,5.3,2.7,9.3v1.8h-17.2c0.1,2.5,0.8,4.5,2.2,6.1s3.2,2.3,5.3,2.3c1.5,0,2.8-0.3,3.9-0.9
		s2-1.5,2.8-2.5l2.7,2.1C893.5,822.9,890.3,824.5,886,824.5L886,824.5z M885.5,801.8c-1.8,0-3.2,0.6-4.4,1.9s-1.9,3.1-2.2,5.4h12.7
		v-0.3c-0.1-2.2-0.7-3.9-1.8-5.1S887.3,801.8,885.5,801.8L885.5,801.8z"/>
</g>
<line class="st1" x1="424.8" y1="57.6" x2="64.8" y2="57.6"/>
<g>
	<line class="st1" x1="244.8" y1="1055.1" x2="244.8" y2="57.6"/>
	<polygon class="st3" points="250.6,1051.1 244.8,1072.8 239,1051.1 	"/>
</g>
<g class="st4">
	<path class="st3" d="M177.5,43.2L164.7,9.5h4.5l11.1,30.8h-0.9l11-30.8h4.5L182,43.2H177.5z"/>
</g>
<g class="st4">
	<path class="st3" d="M207.3,43.8c-2.4,0-4.5-0.6-6.3-1.7s-3.2-2.7-4.2-4.7s-1.5-4.3-1.5-6.9s0.5-4.9,1.5-6.9s2.4-3.5,4.2-4.7
		s3.9-1.7,6.3-1.7s4.5,0.6,6.3,1.7s3.2,2.7,4.2,4.7s1.5,4.3,1.5,6.9s-0.5,4.9-1.5,6.9s-2.4,3.5-4.2,4.7S209.6,43.8,207.3,43.8z
		 M207.3,40.5c2.4,0,4.3-0.9,5.7-2.7s2.1-4.2,2.1-7.3c0-3.1-0.7-5.5-2.1-7.3s-3.3-2.7-5.7-2.7s-4.3,0.9-5.7,2.7s-2.1,4.2-2.1,7.3
		c0,3.1,0.7,5.5,2.1,7.3S204.9,40.5,207.3,40.5z"/>
	<path class="st3" d="M229,43.2c-1,0-1.9-0.3-2.6-1s-1.1-1.5-1.1-2.5V8h3.9v30.6c0,0.5,0.1,0.9,0.2,1s0.5,0.3,0.9,0.3h2.5v3.3H229z"
		/>
	<path class="st3" d="M242.8,43.2c-1,0-1.9-0.3-2.6-1s-1.1-1.5-1.1-2.5V21.2h-4.1v-3.3h4.1v-5.3l3.9-0.8v6.1h5v3.3h-5v17.5
		c0,0.5,0.1,0.9,0.2,1s0.5,0.3,0.9,0.3h3.9v3.3H242.8z"/>
	<path class="st3" d="M259.9,43.8c-1.7,0-3.2-0.3-4.4-1s-2.2-1.5-2.9-2.7s-1-2.4-1-3.8c0-1.5,0.4-2.9,1.3-4.2s2.3-2.3,4.1-3.1
		s4.3-1.2,7.2-1.2h4.2l-0.4,0.4v-1.4c0-2-0.4-3.6-1.2-4.7s-2.2-1.6-4.1-1.6c-1.8,0-3.2,0.5-4.1,1.4s-1.5,2.2-1.5,3.7l-4.4-1
		c0.1-1.4,0.7-2.6,1.6-3.7s2.1-2,3.6-2.7s3.3-1,5.2-1c2,0,3.7,0.4,5,1.2s2.2,1.9,2.8,3.3s0.9,3.2,0.9,5.2v11.6c0,0.5,0.1,0.9,0.2,1
		s0.5,0.3,0.9,0.3h1.4v3.3h-2.5c-1.1,0-2-0.3-2.7-1s-1.1-1.5-1.1-2.5v-1.8h0.6c-0.2,0.7-0.6,1.3-1.1,2s-1.1,1.3-1.8,1.9
		s-1.6,1.1-2.6,1.4S261.2,43.8,259.9,43.8z M260.8,40.5c1.3,0,2.5-0.3,3.6-1s2-1.6,2.7-3s1-3.1,1-5.3V31h-4c-2.1,0-3.7,0.3-4.9,0.8
		s-2,1.2-2.5,2s-0.8,1.6-0.8,2.4s0.2,1.5,0.5,2.2s0.9,1.2,1.6,1.5S259.7,40.5,260.8,40.5z"/>
	<path class="st3" d="M288.7,52.9c-3.8,0-6.5-0.5-8.3-1.6s-2.7-2.7-2.7-4.9c0-1.2,0.3-2.4,1-3.4s1.8-1.7,3.3-2.3
		c-0.6-0.4-1.1-0.8-1.5-1.4s-0.6-1.3-0.6-2c0-0.9,0.3-1.7,0.8-2.4s1.3-1.2,2.3-1.5c-1.2-0.7-2.2-1.7-2.9-3s-1-2.7-1-4.4
		c0-1.8,0.4-3.4,1.2-4.7s2-2.3,3.4-3.1s3.3-1.1,5.3-1.1s3.8,0.4,5.4,1.1s2.7,1.7,3.5,3.1s1.2,2.9,1.2,4.7c0,1.8-0.4,3.3-1.2,4.7
		s-2,2.3-3.5,3s-3.3,1.1-5.4,1.1h-2.2c-2,0-3,0.6-3,1.8c0,1.1,1,1.7,2.9,1.7h5.1c2,0,3.6,0.2,4.8,0.7s2.2,1.1,2.8,1.8
		s1.1,1.5,1.3,2.4s0.4,1.6,0.4,2.4c0,2.5-0.9,4.3-2.7,5.5s-4.6,1.8-8.4,1.8H288.7z M288.7,49.8h1.5c4.7,0,7-1.4,7-4.2
		c0-1.2-0.4-2.1-1.3-2.8s-2.3-1.1-4.3-1.1h-4.4c-1.6,0-2.9,0.3-3.9,0.9s-1.6,1.7-1.6,3.1c0,1.4,0.6,2.4,1.7,3.1
		S286.4,49.8,288.7,49.8z M289.2,32.2c2,0,3.5-0.5,4.6-1.5s1.6-2.5,1.6-4.4c0-1.9-0.5-3.4-1.6-4.5s-2.6-1.6-4.6-1.6
		c-2,0-3.5,0.5-4.5,1.6s-1.6,2.6-1.6,4.5s0.5,3.4,1.6,4.4S287.2,32.2,289.2,32.2z M293.4,20v-2.5c0-1,0.4-1.9,1.1-2.5s1.6-1,2.6-1h3
		v3.3h-2.5c-0.5,0-0.8,0.1-0.9,0.3s-0.2,0.5-0.2,1V20H293.4z"/>
	<path class="st3" d="M316.6,43.8c-2.4,0-4.5-0.5-6.2-1.6s-3.1-2.6-4.1-4.6s-1.4-4.3-1.4-7c0-2.7,0.5-5,1.4-7s2.3-3.5,4-4.6
		s3.8-1.6,6.1-1.6c1.3,0,2.7,0.2,4,0.6s2.6,1.2,3.7,2.2s2,2.5,2.7,4.3s1,4.2,1,6.9h-20.5v-3.2h17.1l-1.1,1.5c-0.1-2.2-0.4-4-1.1-5.3
		s-1.5-2.3-2.5-2.9s-2.2-0.9-3.4-0.9c-1.5,0-2.8,0.4-3.8,1.2s-1.9,1.9-2.5,3.4s-0.9,3.3-0.9,5.4c0,3.2,0.6,5.6,1.9,7.3
		s3.1,2.6,5.5,2.6c1.7,0,3.1-0.4,4.3-1.3s2-2.1,2.6-3.7l3.9,1.3c-0.6,1.5-1.4,2.7-2.4,3.8s-2.2,1.8-3.6,2.4S318.3,43.8,316.6,43.8z"
		/>
</g>
<g class="st4">
	<path class="st3" d="M98,42.5v-3.7h15.7v3.7H98z"/>
</g>
<g class="st4">
	<path class="st3" d="M388.6,51.5V41.4h-10.1v-3.7h10.1V27.6h3.7v10.1h10.1v3.7h-10.1v10.1H388.6z"/>
</g>
<polyline class="st5" points="640.8,673.2 595.8,727.2 550.8,727.2 550.8,835.2 595.8,835.2 640.8,889.2 "/>
<polyline class="st5" points="640.8,432 595.8,486 550.8,486 550.8,594 595.8,594 640.8,648 "/>
<polyline class="st5" points="640.8,190.8 595.8,244.8 550.8,244.8 550.8,352.8 595.8,352.8 640.8,406.8 "/>
<path class="st6" d="M244.8,57.6c0.2,0.3,0.3,0.4,0.3,0.4l36.3,52.6l17.9,28.1l13.6,23.6l10.7,20.9l8.5,19l6.6,17.2l5.1,16.3
	l3.8,15.4l2.5,13.6l1.6,12.7l0.8,11.8l0.2,10.9l-0.3,10.9l-0.9,10.9l-1.5,11.8l-2.4,12.7l-3.3,13.6l-4.7,15.4l-6.4,17.2l-7.9,18.1
	l-9.5,19l-12.2,21.8L288.6,476l-20,29.9c0,0-12.2,17.5-23.8,34.1"/>
<path class="st6" d="M244.8,540c-0.2,0.3-0.3,0.4-0.3,0.4L208.3,593l-17.9,28.1l-13.6,23.6L166,665.5l-8.5,19l-6.6,17.2l-5.1,16.3
	l-3.8,15.4l-2.5,13.6l-1.6,12.7l-0.8,11.8l-0.2,10.9l0.3,10.9l0.9,10.9l1.6,11.8l2.4,12.7l3.3,13.6l4.7,15.4l6.4,17.2l7.9,18.1
	l9.5,19l12.2,21.8l15.1,24.5l19.9,29.9c0,0,12.2,17.5,23.8,34.1"/>
<g>
	<line class="st1" x1="154.5" y1="781.2" x2="533.1" y2="781.2"/>
	<polygon class="st3" points="158.5,787 136.8,781.2 158.5,775.4 	"/>
	<polygon class="st3" points="529.1,787 550.8,781.2 529.1,775.4 	"/>
</g>
<g>
	<line class="st1" x1="262.5" y1="540" x2="533.1" y2="540"/>
	<polygon class="st3" points="266.5,545.8 244.8,540 266.5,534.2 	"/>
	<polygon class="st3" points="529.1,545.8 550.8,540 529.1,534.2 	"/>
</g>
<g>
	<line class="st1" x1="370.5" y1="298.8" x2="533.1" y2="298.8"/>
	<polygon class="st3" points="374.5,304.6 352.8,298.8 374.5,293 	"/>
	<polygon class="st3" points="529.1,304.6 550.8,298.8 529.1,293 	"/>
</g>
</svg>
