<?xml version="1.0" encoding="UTF-8"?>
<svg id="Ebene_4" data-name="Ebene 4" xmlns="http://www.w3.org/2000/svg" viewBox="0 0 928.8 1076.4">
  <defs>
    <style>
      .cls-1 {
        stroke: #7f7f7f;
      }

      .cls-1, .cls-2, .cls-3 {
        stroke-width: 3px;
      }

      .cls-1, .cls-2, .cls-3, .cls-4, .cls-5, .cls-6 {
        fill: none;
        stroke-miterlimit: 10;
      }

      .cls-2 {
        stroke: #d85648;
      }

      .cls-3, .cls-4, .cls-5, .cls-6 {
        stroke: #c9d1d9;
      }

      .cls-7, .cls-8 {
        fill: #c9d1d9;
      }

      .cls-9 {
        letter-spacing: -.02em;
      }

      .cls-4 {
        stroke-dasharray: 0 0 12 12;
      }

      .cls-4, .cls-5, .cls-6 {
        stroke-width: 2px;
      }

      .cls-5 {
        stroke-dasharray: 0 0 12 12;
      }

      .cls-8 {
        font-family: Roboto-Regular, Roboto;
        font-size: 48px;
      }
    </style>
  </defs>
  <line class="cls-3" x1="640.8" y1="432" x2="640.8" y2="648"/>
  <path class="cls-3" d="m640.8,190.8c7.85,15.44,25.2,54.18,25.2,108,0,18.18-1.98,62.31-25.2,108"/>
  <g>
    <line class="cls-6" x1="640.8" y1="190.8" x2="640.8" y2="196.8"/>
    <line class="cls-5" x1="640.8" y1="208.8" x2="640.8" y2="394.8"/>
    <line class="cls-6" x1="640.8" y1="400.8" x2="640.8" y2="406.8"/>
  </g>
  <path class="cls-3" d="m640.8,673.2c-7.85,15.44-25.2,54.18-25.2,108,0,18.18,1.98,62.31,25.2,108"/>
  <g>
    <line class="cls-6" x1="640.8" y1="673.2" x2="640.8" y2="679.2"/>
    <line class="cls-4" x1="640.8" y1="691.2" x2="640.8" y2="877.2"/>
    <line class="cls-6" x1="640.8" y1="883.2" x2="640.8" y2="889.2"/>
  </g>
  <g>
    <path class="cls-7" d="m750.06,270.67v13.36h-4.5v-34.12h12.59c3.73,0,6.66.95,8.78,2.86s3.18,4.43,3.18,7.57c0,3.31-1.04,5.86-3.11,7.65s-5.04,2.68-8.89,2.68h-8.04Zm0-3.68h8.09c2.41,0,4.25-.57,5.53-1.7s1.92-2.77,1.92-4.92-.64-3.66-1.92-4.88c-1.28-1.22-3.04-1.85-5.27-1.9h-8.34v13.41Z"/>
    <path class="cls-7" d="m773.71,271.11c0-2.48.49-4.72,1.46-6.7s2.34-3.52,4.08-4.59,3.73-1.62,5.96-1.62c3.45,0,6.25,1.2,8.38,3.59s3.2,5.57,3.2,9.54v.3c0,2.47-.47,4.68-1.42,6.64s-2.3,3.49-4.05,4.58-3.78,1.64-6.06,1.64c-3.44,0-6.22-1.2-8.36-3.59s-3.2-5.55-3.2-9.49v-.3Zm4.36.52c0,2.81.65,5.07,1.96,6.77s3.05,2.55,5.24,2.55,3.95-.86,5.25-2.59,1.95-4.14,1.95-7.25c0-2.78-.66-5.04-1.98-6.76s-3.07-2.59-5.26-2.59-3.87.85-5.18,2.55-1.97,4.14-1.97,7.31Z"/>
    <path class="cls-7" d="m817,277.3c0-1.17-.44-2.08-1.32-2.73s-2.42-1.21-4.62-1.68-3.94-1.03-5.23-1.69-2.24-1.44-2.86-2.34-.93-1.98-.93-3.23c0-2.08.88-3.84,2.64-5.27s4-2.16,6.74-2.16c2.88,0,5.21.74,7,2.23s2.68,3.38,2.68,5.7h-4.36c0-1.19-.5-2.21-1.51-3.07s-2.28-1.29-3.81-1.29-2.81.34-3.7,1.03-1.34,1.59-1.34,2.7c0,1.05.41,1.84,1.24,2.37s2.32,1.04,4.49,1.52,3.92,1.06,5.26,1.73,2.34,1.48,2.99,2.43.97,2.1.97,3.46c0,2.27-.91,4.08-2.72,5.45s-4.16,2.05-7.05,2.05c-2.03,0-3.83-.36-5.39-1.08s-2.79-1.72-3.67-3.01-1.32-2.68-1.32-4.18h4.34c.08,1.45.66,2.61,1.75,3.46s2.52,1.28,4.3,1.28c1.64,0,2.96-.33,3.95-1s1.49-1.55,1.49-2.66Z"/>
    <path class="cls-7" d="m827.01,251.94c0-.7.21-1.3.64-1.78s1.07-.73,1.91-.73,1.48.24,1.92.73.66,1.08.66,1.78-.22,1.29-.66,1.76-1.08.7-1.92.7-1.48-.23-1.91-.7-.64-1.05-.64-1.76Zm4.69,32.09h-4.34v-25.36h4.34v25.36Z"/>
    <path class="cls-7" d="m844.51,252.53v6.14h4.73v3.35h-4.73v15.75c0,1.02.21,1.78.63,2.29.42.51,1.14.76,2.16.76.5,0,1.19-.09,2.06-.28v3.5c-1.14.31-2.25.47-3.33.47-1.94,0-3.4-.59-4.38-1.76s-1.48-2.84-1.48-4.99v-15.73h-4.62v-3.35h4.62v-6.14h4.34Z"/>
    <path class="cls-7" d="m854.33,251.94c0-.7.21-1.3.64-1.78s1.07-.73,1.91-.73,1.48.24,1.92.73.66,1.08.66,1.78-.22,1.29-.66,1.76-1.08.7-1.92.7-1.48-.23-1.91-.7-.64-1.05-.64-1.76Zm4.69,32.09h-4.34v-25.36h4.34v25.36Z"/>
    <path class="cls-7" d="m874.33,278.14l6.28-19.48h4.43l-9.09,25.36h-3.3l-9.19-25.36h4.43l6.45,19.48Z"/>
    <path class="cls-7" d="m899.43,284.5c-3.44,0-6.23-1.13-8.39-3.39s-3.23-5.28-3.23-9.06v-.8c0-2.52.48-4.76,1.44-6.74s2.3-3.52,4.03-4.64,3.6-1.68,5.61-1.68c3.3,0,5.86,1.09,7.69,3.26s2.74,5.28,2.74,9.33v1.8h-17.18c.06,2.5.79,4.52,2.19,6.06s3.18,2.31,5.33,2.31c1.53,0,2.83-.31,3.89-.94s1.99-1.45,2.79-2.48l2.65,2.06c-2.12,3.27-5.31,4.9-9.56,4.9Zm-.54-22.73c-1.75,0-3.22.64-4.41,1.91s-1.92,3.06-2.2,5.36h12.7v-.33c-.12-2.2-.72-3.91-1.78-5.12s-2.5-1.82-4.31-1.82Z"/>
    <path class="cls-7" d="m753.25,335.74l6.28-19.48h4.43l-9.09,25.36h-3.3l-9.19-25.36h4.43l6.45,19.48Z"/>
    <path class="cls-7" d="m766.63,328.71c0-2.48.49-4.72,1.46-6.7s2.34-3.52,4.08-4.59,3.73-1.62,5.96-1.62c3.45,0,6.25,1.2,8.38,3.59s3.2,5.57,3.2,9.54v.3c0,2.47-.47,4.68-1.42,6.64s-2.3,3.49-4.05,4.58-3.78,1.64-6.06,1.64c-3.44,0-6.22-1.2-8.36-3.59s-3.2-5.55-3.2-9.49v-.3Zm4.36.52c0,2.81.65,5.07,1.96,6.77s3.05,2.55,5.24,2.55,3.95-.86,5.25-2.59,1.95-4.14,1.95-7.25c0-2.78-.66-5.04-1.98-6.76s-3.07-2.59-5.26-2.59-3.87.85-5.18,2.55-1.97,4.14-1.97,7.31Z"/>
    <path class="cls-7" d="m799.87,341.63h-4.34v-36h4.34v36Z"/>
    <path class="cls-7" d="m812.69,310.13v6.14h4.73v3.35h-4.73v15.75c0,1.02.21,1.78.63,2.29.42.51,1.14.76,2.16.76.5,0,1.19-.09,2.06-.28v3.5c-1.14.31-2.25.47-3.33.47-1.94,0-3.4-.59-4.38-1.76s-1.48-2.84-1.48-4.99v-15.73h-4.62v-3.35h4.62v-6.14h4.34Z"/>
    <path class="cls-7" d="m838.14,341.63c-.25-.5-.45-1.39-.61-2.67-2.02,2.09-4.42,3.14-7.22,3.14-2.5,0-4.55-.71-6.15-2.12s-2.4-3.21-2.4-5.38c0-2.64,1-4.69,3.01-6.15s4.83-2.19,8.47-2.19h4.22v-1.99c0-1.52-.45-2.72-1.36-3.62s-2.24-1.35-4.01-1.35c-1.55,0-2.84.39-3.89,1.17s-1.57,1.73-1.57,2.84h-4.36c0-1.27.45-2.49,1.35-3.67s2.12-2.11,3.66-2.8,3.23-1.03,5.07-1.03c2.92,0,5.21.73,6.87,2.19s2.52,3.47,2.58,6.04v11.67c0,2.33.3,4.18.89,5.55v.38h-4.55Zm-7.2-3.3c1.36,0,2.65-.35,3.87-1.05s2.1-1.62,2.65-2.74v-5.2h-3.4c-5.31,0-7.97,1.55-7.97,4.66,0,1.36.45,2.42,1.36,3.19s2.07,1.15,3.49,1.15Z"/>
    <path class="cls-7" d="m847.56,328.74c0-3.95.91-7.1,2.74-9.43s4.25-3.5,7.27-3.5,5.51,1.09,7.24,3.28l.21-2.81h3.96v24.75c0,3.28-.97,5.87-2.92,7.76s-4.56,2.84-7.84,2.84c-1.83,0-3.62-.39-5.37-1.17s-3.09-1.85-4.01-3.21l2.25-2.6c1.86,2.3,4.13,3.45,6.82,3.45,2.11,0,3.75-.59,4.93-1.78s1.77-2.86,1.77-5.02v-2.18c-1.73,2-4.1,3-7.1,3s-5.37-1.2-7.21-3.59-2.75-5.65-2.75-9.77Zm4.36.49c0,2.86.59,5.11,1.76,6.74s2.81,2.45,4.92,2.45c2.73,0,4.74-1.24,6.02-3.73v-11.58c-1.33-2.42-3.32-3.63-5.98-3.63-2.11,0-3.76.82-4.95,2.46s-1.78,4.07-1.78,7.29Z"/>
    <path class="cls-7" d="m886.05,342.1c-3.44,0-6.23-1.13-8.39-3.39s-3.23-5.28-3.23-9.06v-.8c0-2.52.48-4.76,1.44-6.74s2.3-3.52,4.03-4.64,3.6-1.68,5.61-1.68c3.3,0,5.86,1.09,7.69,3.26s2.74,5.28,2.74,9.33v1.8h-17.18c.06,2.5.79,4.52,2.19,6.06s3.18,2.31,5.33,2.31c1.53,0,2.83-.31,3.89-.94s1.99-1.45,2.79-2.48l2.65,2.06c-2.12,3.27-5.31,4.9-9.56,4.9Zm-.54-22.73c-1.75,0-3.22.64-4.41,1.91s-1.92,3.06-2.2,5.36h12.7v-.33c-.12-2.2-.72-3.91-1.78-5.12s-2.5-1.82-4.31-1.82Z"/>
  </g>
  <g>
    <path class="cls-7" d="m748.94,521.55h19.52v3.68h-24.84v-3.38l18.7-27.07h-18.4v-3.68h23.79v3.28l-18.77,27.16Z"/>
    <path class="cls-7" d="m783.65,525.7c-3.44,0-6.23-1.13-8.39-3.39s-3.23-5.28-3.23-9.06v-.8c0-2.52.48-4.76,1.44-6.74s2.3-3.52,4.03-4.64,3.6-1.68,5.61-1.68c3.3,0,5.86,1.09,7.69,3.26s2.74,5.28,2.74,9.33v1.8h-17.18c.06,2.5.79,4.52,2.19,6.06s3.18,2.31,5.33,2.31c1.53,0,2.83-.31,3.89-.94s1.99-1.45,2.79-2.48l2.65,2.06c-2.12,3.27-5.31,4.9-9.56,4.9Zm-.54-22.73c-1.75,0-3.22.64-4.41,1.91s-1.92,3.06-2.2,5.36h12.7v-.33c-.12-2.2-.72-3.91-1.78-5.12s-2.5-1.82-4.31-1.82Z"/>
    <path class="cls-7" d="m810.81,503.76c-.66-.11-1.37-.16-2.13-.16-2.84,0-4.77,1.21-5.79,3.63v18h-4.34v-25.36h4.22l.07,2.93c1.42-2.27,3.44-3.4,6.05-3.4.84,0,1.48.11,1.92.33v4.03Z"/>
    <path class="cls-7" d="m813.18,512.31c0-2.48.49-4.72,1.46-6.7s2.34-3.52,4.08-4.59,3.73-1.62,5.96-1.62c3.45,0,6.25,1.2,8.38,3.59s3.2,5.57,3.2,9.54v.3c0,2.47-.47,4.68-1.42,6.64s-2.3,3.49-4.05,4.58-3.78,1.64-6.06,1.64c-3.44,0-6.22-1.2-8.36-3.59s-3.2-5.55-3.2-9.49v-.3Zm4.36.52c0,2.81.65,5.07,1.96,6.77s3.05,2.55,5.24,2.55,3.95-.86,5.25-2.59,1.95-4.14,1.95-7.25c0-2.78-.66-5.04-1.98-6.76s-3.07-2.59-5.26-2.59-3.87.85-5.18,2.55-1.97,4.14-1.97,7.31Z"/>
    <path class="cls-7" d="m753.25,576.94l6.28-19.48h4.43l-9.09,25.36h-3.3l-9.19-25.36h4.43l6.45,19.48Z"/>
    <path class="cls-7" d="m766.63,569.91c0-2.48.49-4.72,1.46-6.7s2.34-3.52,4.08-4.59,3.73-1.62,5.96-1.62c3.45,0,6.25,1.2,8.38,3.59s3.2,5.57,3.2,9.54v.3c0,2.47-.47,4.68-1.42,6.64s-2.3,3.49-4.05,4.58-3.78,1.64-6.06,1.64c-3.44,0-6.22-1.2-8.36-3.59s-3.2-5.55-3.2-9.49v-.3Zm4.36.52c0,2.81.65,5.07,1.96,6.77s3.05,2.55,5.24,2.55,3.95-.86,5.25-2.59,1.95-4.14,1.95-7.25c0-2.78-.66-5.04-1.98-6.76s-3.07-2.59-5.26-2.59-3.87.85-5.18,2.55-1.97,4.14-1.97,7.31Z"/>
    <path class="cls-7" d="m799.87,582.83h-4.34v-36h4.34v36Z"/>
    <path class="cls-7" d="m812.69,551.33v6.14h4.73v3.35h-4.73v15.75c0,1.02.21,1.78.63,2.29.42.51,1.14.76,2.16.76.5,0,1.19-.09,2.06-.28v3.5c-1.14.31-2.25.47-3.33.47-1.94,0-3.4-.59-4.38-1.76s-1.48-2.84-1.48-4.99v-15.73h-4.62v-3.35h4.62v-6.14h4.34Z"/>
    <path class="cls-7" d="m838.14,582.83c-.25-.5-.45-1.39-.61-2.67-2.02,2.09-4.42,3.14-7.22,3.14-2.5,0-4.55-.71-6.15-2.12s-2.4-3.21-2.4-5.38c0-2.64,1-4.69,3.01-6.15s4.83-2.19,8.47-2.19h4.22v-1.99c0-1.52-.45-2.72-1.36-3.62s-2.24-1.35-4.01-1.35c-1.55,0-2.84.39-3.89,1.17s-1.57,1.73-1.57,2.84h-4.36c0-1.27.45-2.49,1.35-3.67s2.12-2.11,3.66-2.8,3.23-1.03,5.07-1.03c2.92,0,5.21.73,6.87,2.19s2.52,3.47,2.58,6.04v11.67c0,2.33.3,4.18.89,5.55v.38h-4.55Zm-7.2-3.3c1.36,0,2.65-.35,3.87-1.05s2.1-1.62,2.65-2.74v-5.2h-3.4c-5.31,0-7.97,1.55-7.97,4.66,0,1.36.45,2.42,1.36,3.19s2.07,1.15,3.49,1.15Z"/>
    <path class="cls-7" d="m847.56,569.94c0-3.95.91-7.1,2.74-9.43s4.25-3.5,7.27-3.5,5.51,1.09,7.24,3.28l.21-2.81h3.96v24.75c0,3.28-.97,5.87-2.92,7.76s-4.56,2.84-7.84,2.84c-1.83,0-3.62-.39-5.37-1.17s-3.09-1.85-4.01-3.21l2.25-2.6c1.86,2.3,4.13,3.45,6.82,3.45,2.11,0,3.75-.59,4.93-1.78s1.77-2.86,1.77-5.02v-2.18c-1.73,2-4.1,3-7.1,3s-5.37-1.2-7.21-3.59-2.75-5.65-2.75-9.77Zm4.36.49c0,2.86.59,5.11,1.76,6.74s2.81,2.45,4.92,2.45c2.73,0,4.74-1.24,6.02-3.73v-11.58c-1.33-2.42-3.32-3.63-5.98-3.63-2.11,0-3.76.82-4.95,2.46s-1.78,4.07-1.78,7.29Z"/>
    <path class="cls-7" d="m886.05,583.3c-3.44,0-6.23-1.13-8.39-3.39s-3.23-5.28-3.23-9.06v-.8c0-2.52.48-4.76,1.44-6.74s2.3-3.52,4.03-4.64,3.6-1.68,5.61-1.68c3.3,0,5.86,1.09,7.69,3.26s2.74,5.28,2.74,9.33v1.8h-17.18c.06,2.5.79,4.52,2.19,6.06s3.18,2.31,5.33,2.31c1.53,0,2.83-.31,3.89-.94s1.99-1.45,2.79-2.48l2.65,2.06c-2.12,3.27-5.31,4.9-9.56,4.9Zm-.54-22.73c-1.75,0-3.22.64-4.41,1.91s-1.92,3.06-2.2,5.36h12.7v-.33c-.12-2.2-.72-3.91-1.78-5.12s-2.5-1.82-4.31-1.82Z"/>
  </g>
  <g>
    <path class="cls-7" d="m771.79,766.43h-4.52l-17.18-26.3v26.3h-4.52v-34.12h4.52l17.23,26.41v-26.41h4.48v34.12Z"/>
    <path class="cls-7" d="m789.62,766.9c-3.44,0-6.23-1.13-8.39-3.39s-3.23-5.28-3.23-9.06v-.8c0-2.52.48-4.76,1.44-6.74s2.3-3.52,4.03-4.64,3.6-1.68,5.61-1.68c3.3,0,5.86,1.09,7.69,3.26s2.74,5.28,2.74,9.33v1.8h-17.18c.06,2.5.79,4.52,2.19,6.06s3.18,2.31,5.33,2.31c1.53,0,2.83-.31,3.89-.94s1.99-1.45,2.79-2.48l2.65,2.06c-2.12,3.27-5.31,4.9-9.56,4.9Zm-.54-22.73c-1.75,0-3.22.64-4.41,1.91s-1.92,3.06-2.2,5.36h12.7v-.33c-.12-2.2-.72-3.91-1.78-5.12s-2.5-1.82-4.31-1.82Z"/>
    <path class="cls-7" d="m803.5,753.54c0-3.95.91-7.1,2.74-9.43s4.25-3.5,7.27-3.5,5.51,1.09,7.24,3.28l.21-2.81h3.96v24.75c0,3.28-.97,5.87-2.92,7.76s-4.56,2.84-7.84,2.84c-1.83,0-3.62-.39-5.37-1.17s-3.09-1.85-4.01-3.21l2.25-2.6c1.86,2.3,4.13,3.45,6.82,3.45,2.11,0,3.75-.59,4.93-1.78s1.77-2.86,1.77-5.02v-2.18c-1.73,2-4.1,3-7.1,3s-5.37-1.2-7.21-3.59-2.75-5.65-2.75-9.77Zm4.36.49c0,2.86.59,5.11,1.76,6.74s2.81,2.45,4.92,2.45c2.73,0,4.74-1.24,6.02-3.73v-11.58c-1.33-2.42-3.32-3.63-5.98-3.63-2.11,0-3.76.82-4.95,2.46s-1.78,4.07-1.78,7.29Z"/>
    <path class="cls-7" d="m847.12,766.43c-.25-.5-.45-1.39-.61-2.67-2.02,2.09-4.42,3.14-7.22,3.14-2.5,0-4.55-.71-6.15-2.12s-2.4-3.21-2.4-5.38c0-2.64,1-4.69,3.01-6.15s4.83-2.19,8.47-2.19h4.22v-1.99c0-1.52-.45-2.72-1.36-3.62s-2.24-1.35-4.01-1.35c-1.55,0-2.84.39-3.89,1.17s-1.57,1.73-1.57,2.84h-4.36c0-1.27.45-2.49,1.35-3.67s2.12-2.11,3.66-2.8,3.23-1.03,5.07-1.03c2.92,0,5.21.73,6.87,2.19s2.52,3.47,2.58,6.04v11.67c0,2.33.3,4.18.89,5.55v.38h-4.55Zm-7.2-3.3c1.36,0,2.65-.35,3.87-1.05s2.1-1.62,2.65-2.74v-5.2h-3.4c-5.31,0-7.97,1.55-7.97,4.66,0,1.36.45,2.42,1.36,3.19s2.07,1.15,3.49,1.15Z"/>
    <path class="cls-7" d="m863.45,734.93v6.14h4.73v3.35h-4.73v15.75c0,1.02.21,1.78.63,2.29.42.51,1.14.76,2.16.76.5,0,1.19-.09,2.06-.28v3.5c-1.14.31-2.25.47-3.33.47-1.94,0-3.4-.59-4.38-1.76s-1.48-2.84-1.48-4.99v-15.73h-4.62v-3.35h4.62v-6.14h4.34Z"/>
    <path class="cls-7" d="m873.27,734.34c0-.7.21-1.3.64-1.78s1.07-.73,1.91-.73,1.48.24,1.92.73.66,1.08.66,1.78-.22,1.29-.66,1.76-1.08.7-1.92.7-1.48-.23-1.91-.7-.64-1.05-.64-1.76Zm4.69,32.09h-4.34v-25.36h4.34v25.36Z"/>
    <path class="cls-7" d="m893.26,760.54l6.28-19.48h4.43l-9.09,25.36h-3.3l-9.19-25.36h4.43l6.45,19.48Z"/>
    <path class="cls-7" d="m918.37,766.9c-3.44,0-6.23-1.13-8.39-3.39s-3.23-5.28-3.23-9.06v-.8c0-2.52.48-4.76,1.44-6.74s2.3-3.52,4.03-4.64,3.6-1.68,5.61-1.68c3.3,0,5.86,1.09,7.69,3.26s2.74,5.28,2.74,9.33v1.8h-17.18c.06,2.5.79,4.52,2.19,6.06s3.18,2.31,5.33,2.31c1.53,0,2.83-.31,3.89-.94s1.99-1.45,2.79-2.48l2.65,2.06c-2.12,3.27-5.31,4.9-9.56,4.9Zm-.54-22.73c-1.75,0-3.22.64-4.41,1.91s-1.92,3.06-2.2,5.36h12.7v-.33c-.12-2.2-.72-3.91-1.78-5.12s-2.5-1.82-4.31-1.82Z"/>
    <path class="cls-7" d="m753.25,818.14l6.28-19.48h4.43l-9.09,25.36h-3.3l-9.19-25.36h4.43l6.45,19.48Z"/>
    <path class="cls-7" d="m766.63,811.11c0-2.48.49-4.72,1.46-6.7s2.34-3.52,4.08-4.59,3.73-1.62,5.96-1.62c3.45,0,6.25,1.2,8.38,3.59s3.2,5.57,3.2,9.54v.3c0,2.47-.47,4.68-1.42,6.64s-2.3,3.49-4.05,4.58-3.78,1.64-6.06,1.64c-3.44,0-6.22-1.2-8.36-3.59s-3.2-5.55-3.2-9.49v-.3Zm4.36.52c0,2.81.65,5.07,1.96,6.77s3.05,2.55,5.24,2.55,3.95-.86,5.25-2.59,1.95-4.14,1.95-7.25c0-2.78-.66-5.04-1.98-6.76s-3.07-2.59-5.26-2.59-3.87.85-5.18,2.55-1.97,4.14-1.97,7.31Z"/>
    <path class="cls-7" d="m799.87,824.03h-4.34v-36h4.34v36Z"/>
    <path class="cls-7" d="m812.69,792.53v6.14h4.73v3.35h-4.73v15.75c0,1.02.21,1.78.63,2.29.42.51,1.14.76,2.16.76.5,0,1.19-.09,2.06-.28v3.5c-1.14.31-2.25.47-3.33.47-1.94,0-3.4-.59-4.38-1.76s-1.48-2.84-1.48-4.99v-15.73h-4.62v-3.35h4.62v-6.14h4.34Z"/>
    <path class="cls-7" d="m838.14,824.03c-.25-.5-.45-1.39-.61-2.67-2.02,2.09-4.42,3.14-7.22,3.14-2.5,0-4.55-.71-6.15-2.12s-2.4-3.21-2.4-5.38c0-2.64,1-4.69,3.01-6.15s4.83-2.19,8.47-2.19h4.22v-1.99c0-1.52-.45-2.72-1.36-3.62s-2.24-1.35-4.01-1.35c-1.55,0-2.84.39-3.89,1.17s-1.57,1.73-1.57,2.84h-4.36c0-1.27.45-2.49,1.35-3.67s2.12-2.11,3.66-2.8,3.23-1.03,5.07-1.03c2.92,0,5.21.73,6.87,2.19s2.52,3.47,2.58,6.04v11.67c0,2.33.3,4.18.89,5.55v.38h-4.55Zm-7.2-3.3c1.36,0,2.65-.35,3.87-1.05s2.1-1.62,2.65-2.74v-5.2h-3.4c-5.31,0-7.97,1.55-7.97,4.66,0,1.36.45,2.42,1.36,3.19s2.07,1.15,3.49,1.15Z"/>
    <path class="cls-7" d="m847.56,811.14c0-3.95.91-7.1,2.74-9.43s4.25-3.5,7.27-3.5,5.51,1.09,7.24,3.28l.21-2.81h3.96v24.75c0,3.28-.97,5.87-2.92,7.76s-4.56,2.84-7.84,2.84c-1.83,0-3.62-.39-5.37-1.17s-3.09-1.85-4.01-3.21l2.25-2.6c1.86,2.3,4.13,3.45,6.82,3.45,2.11,0,3.75-.59,4.93-1.78s1.77-2.86,1.77-5.02v-2.18c-1.73,2-4.1,3-7.1,3s-5.37-1.2-7.21-3.59-2.75-5.65-2.75-9.77Zm4.36.49c0,2.86.59,5.11,1.76,6.74s2.81,2.45,4.92,2.45c2.73,0,4.74-1.24,6.02-3.73v-11.58c-1.33-2.42-3.32-3.63-5.98-3.63-2.11,0-3.76.82-4.95,2.46s-1.78,4.07-1.78,7.29Z"/>
    <path class="cls-7" d="m886.05,824.5c-3.44,0-6.23-1.13-8.39-3.39s-3.23-5.28-3.23-9.06v-.8c0-2.52.48-4.76,1.44-6.74s2.3-3.52,4.03-4.64,3.6-1.68,5.61-1.68c3.3,0,5.86,1.09,7.69,3.26s2.74,5.28,2.74,9.33v1.8h-17.18c.06,2.5.79,4.52,2.19,6.06s3.18,2.31,5.33,2.31c1.53,0,2.83-.31,3.89-.94s1.99-1.45,2.79-2.48l2.65,2.06c-2.12,3.27-5.31,4.9-9.56,4.9Zm-.54-22.73c-1.75,0-3.22.64-4.41,1.91s-1.92,3.06-2.2,5.36h12.7v-.33c-.12-2.2-.72-3.91-1.78-5.12s-2.5-1.82-4.31-1.82Z"/>
  </g>
  <line class="cls-6" x1="424.8" y1="57.6" x2="64.8" y2="57.6"/>
  <g>
    <line class="cls-6" x1="244.8" y1="1055.08" x2="244.8" y2="57.6"/>
    <polygon class="cls-7" points="250.61 1051.12 244.8 1072.8 238.99 1051.12 250.61 1051.12"/>
  </g>
  <text class="cls-8" transform="translate(163.48 43.2)"><tspan class="cls-9" x="0" y="0">V</tspan><tspan x="29.46" y="0">oltage</tspan></text>
  <text class="cls-8" transform="translate(94.18 55.46)"><tspan x="0" y="0">-</tspan></text>
  <text class="cls-8" transform="translate(375.19 55.46)"><tspan x="0" y="0">+</tspan></text>
  <polyline class="cls-1" points="640.8 673.2 595.8 727.2 550.8 727.2 550.8 835.2 595.8 835.2 640.8 889.2"/>
  <polyline class="cls-1" points="640.8 432 595.8 486 550.8 486 550.8 594 595.8 594 640.8 648"/>
  <polyline class="cls-1" points="640.8 190.8 595.8 244.8 550.8 244.8 550.8 352.8 595.8 352.8 640.8 406.8"/>
  <path class="cls-2" d="m244.8,57.6c.18.26.28.4.28.4l36.25,52.59,17.89,28.11,13.63,23.57,10.73,20.85,8.53,19.04,6.57,17.23,5.14,16.32,3.83,15.41,2.52,13.6,1.6,12.69.84,11.79.21,10.88-.33,10.88-.87,10.88-1.55,11.79-2.36,12.69-3.31,13.6-4.69,15.41-6.37,17.23-7.91,18.13-9.51,19.04-12.2,21.76-15.12,24.48-19.95,29.92s-12.21,17.49-23.82,34.11"/>
  <path class="cls-2" d="m244.8,540c-.18.26-.28.4-.28.4l-36.25,52.59-17.89,28.11-13.63,23.57-10.73,20.85-8.53,19.04-6.57,17.23-5.14,16.32-3.83,15.41-2.52,13.6-1.6,12.69-.84,11.79-.21,10.88.33,10.88.87,10.88,1.55,11.79,2.36,12.69,3.31,13.6,4.69,15.41,6.37,17.23,7.91,18.13,9.51,19.04,12.2,21.76,15.12,24.48,19.95,29.92s12.21,17.49,23.82,34.11"/>
  <g>
    <line class="cls-6" x1="154.52" y1="781.2" x2="533.08" y2="781.2"/>
    <polygon class="cls-7" points="158.48 787.01 136.8 781.2 158.48 775.39 158.48 787.01"/>
    <polygon class="cls-7" points="529.12 787.01 550.8 781.2 529.12 775.39 529.12 787.01"/>
  </g>
  <g>
    <line class="cls-6" x1="262.52" y1="540" x2="533.08" y2="540"/>
    <polygon class="cls-7" points="266.48 545.81 244.8 540 266.48 534.19 266.48 545.81"/>
    <polygon class="cls-7" points="529.12 545.81 550.8 540 529.12 534.19 529.12 545.81"/>
  </g>
  <g>
    <line class="cls-6" x1="370.52" y1="298.8" x2="533.08" y2="298.8"/>
    <polygon class="cls-7" points="374.48 304.61 352.8 298.8 374.48 292.99 374.48 304.61"/>
    <polygon class="cls-7" points="529.12 304.61 550.8 298.8 529.12 292.99 529.12 304.61"/>
  </g>
</svg>