<?xml version="1.0" encoding="UTF-8"?>
<svg id="Ebene_1" data-name="Ebene 1" xmlns="http://www.w3.org/2000/svg" width="525.6" height="612" viewBox="0 0 525.6 612">
  <line x1="14.4" y1="7.2" x2="14.4" y2="583.2" fill="none" stroke="#c9d1d9" stroke-miterlimit="10" stroke-width="2.83"/>
  <g>
    <line x1="322.4" y1="125.4" x2="235.7" y2="285.5" fill="none" stroke="#c9d1d9" stroke-miterlimit="10" stroke-width="2.83"/>
    <path d="m301.2,136c.4.7,1.2.9,1.9.6l19-10.5,1.5,21.6c.1.8.7,1.4,1.5,1.3.8-.1,1.4-.7,1.3-1.5l-1.7-23.8c0-.5-.3-.9-.7-1.2s-.9-.2-1.4,0l-20.8,11.5c-.2.1-.4.3-.6.6-.2.4-.2.9,0,1.4h0Z" fill="#c9d1d9"/>
    <path d="m233,262c.8-.1,1.5.5,1.5,1.3l1.5,21.7,18.9-10.5c.7-.4,1.6-.1,1.9.5.4.7.1,1.5-.5,1.9l-20.9,11.6c-.4.2-.9.2-1.4,0s-.7-.7-.7-1.1l-1.7-23.9c0-.3,0-.5.2-.8.3-.3.7-.6,1.2-.7h0Z" fill="#c9d1d9"/>
  </g>
  <path d="m296.3,108v-2.1l15.2-20.5h-13.9v-2.7h17.8v2.1l-15.2,20.5h15.2v2.7h-19.1Z" fill="#c9d1d9"/>
  <path d="m325.9,108.4c-1.8,0-3.4-.4-4.7-1.2s-2.3-2-3-3.4-1.1-3.2-1.1-5.2.4-3.8,1.1-5.3,1.7-2.6,3-3.4,2.8-1.2,4.6-1.2c1,0,2,.2,3,.5s1.9.9,2.8,1.7,1.5,1.9,2,3.3.8,3.1.8,5.2h-15.4v-2.4h12.8l-.8,1.1c-.1-1.7-.3-3-.8-4s-1.1-1.7-1.9-2.2-1.6-.7-2.6-.7c-1.1,0-2.1.3-2.9.9s-1.4,1.4-1.9,2.5-.7,2.5-.7,4.1c0,2.4.5,4.2,1.5,5.5s2.3,1.9,4.1,1.9c1.3,0,2.4-.3,3.2-1s1.5-1.6,1.9-2.8l2.9,1c-.5,1.1-1.1,2-1.8,2.8s-1.7,1.4-2.7,1.8-2.2.5-3.4.5Z" fill="#c9d1d9"/>
  <path d="m338.8,108v-19h2.8v4l-.1-.5c.6-1.3,1.4-2.3,2.5-3s2.3-1,3.4-1c.3,0,.7,0,1,.1s.6.2.9.3l-.4,2.8c-.6-.2-1.3-.3-1.9-.3-.4,0-.9.1-1.5.2s-1.2.5-1.8.9-1.1,1.2-1.5,2.1-.6,2.2-.6,3.7v9.5h-2.8v.2Z" fill="#c9d1d9"/>
  <g>
    <path d="m360,108.4c-1.8,0-3.4-.4-4.7-1.3s-2.4-2-3.2-3.5-1.1-3.2-1.1-5.2.4-3.7,1.1-5.2,1.8-2.7,3.2-3.5,2.9-1.3,4.7-1.3,3.4.4,4.7,1.3,2.4,2,3.2,3.5,1.1,3.2,1.1,5.2-.4,3.7-1.1,5.2-1.8,2.7-3.2,3.5-2.9,1.3-4.7,1.3Zm0-2.4c1.8,0,3.2-.7,4.2-2s1.6-3.2,1.6-5.4c0-2.3-.5-4.1-1.6-5.5s-2.5-2-4.2-2-3.2.7-4.2,2-1.6,3.1-1.6,5.5c0,2.3.5,4.1,1.6,5.4s2.5,2,4.2,2Z" fill="#c9d1d9"/>
    <path d="m390.4,108.4c-1.8,0-3.3-.4-4.6-1.2s-2.3-2-3-3.4-1.1-3.2-1.1-5.3.4-3.8,1.1-5.3,1.7-2.6,3-3.4,2.8-1.2,4.6-1.2c1.4,0,2.6.2,3.6.7s2,1.2,2.7,2.1,1.3,2.1,1.6,3.4l-3,.8c-.3-1.5-.9-2.6-1.8-3.4s-1.9-1.2-3.2-1.2c-1.7,0-3.1.6-4,1.9s-1.4,3.1-1.4,5.5.5,4.2,1.4,5.5,2.3,1.9,4,1.9c1.3,0,2.4-.4,3.2-1.2s1.4-1.9,1.8-3.3l3,.8c-.3,1-.7,1.8-1.2,2.6s-1.1,1.4-1.7,1.9-1.4.9-2.3,1.2-1.7.6-2.7.6Z" fill="#c9d1d9"/>
  </g>
  <path d="m402.6,108v-19h2.8v4l-.1-.5c.6-1.3,1.4-2.3,2.5-3s2.3-1,3.4-1c.3,0,.7,0,1,.1s.6.2.9.3l-.4,2.8c-.6-.2-1.3-.3-1.9-.3-.4,0-.9.1-1.5.2s-1.2.5-1.8.9-1.1,1.2-1.5,2.1-.6,2.2-.6,3.7v9.5h-2.8v.2Z" fill="#c9d1d9"/>
  <path d="m423.9,108.4c-1.8,0-3.4-.4-4.7-1.3s-2.4-2-3.2-3.5-1.1-3.2-1.1-5.2.4-3.7,1.1-5.2,1.8-2.7,3.2-3.5,2.9-1.3,4.7-1.3,3.4.4,4.7,1.3,2.4,2,3.2,3.5,1.1,3.2,1.1,5.2-.4,3.7-1.1,5.2-1.8,2.7-3.2,3.5-2.9,1.3-4.7,1.3Zm0-2.4c1.8,0,3.2-.7,4.2-2s1.6-3.2,1.6-5.4c0-2.3-.5-4.1-1.6-5.5s-2.5-2-4.2-2-3.2.7-4.2,2-1.6,3.1-1.6,5.5c0,2.3.5,4.1,1.6,5.4s2.4,2,4.2,2Z" fill="#c9d1d9"/>
  <path d="m444,108.4c-1.4,0-2.6-.2-3.7-.7s-2-1.1-2.8-2.1-1.2-2.1-1.5-3.5l3.1-.6c.1,1.5.6,2.6,1.5,3.3s2,1.1,3.3,1.1,2.4-.3,3.2-1,1.2-1.5,1.2-2.4c0-.8-.3-1.5-.8-2s-1.4-.8-2.4-1l-2.3-.4c-.6-.1-1.3-.3-1.9-.5s-1.3-.5-1.9-.9-1-.9-1.4-1.5-.6-1.3-.6-2.2c0-1.2.3-2.3,1-3s1.5-1.4,2.6-1.8,2.2-.6,3.5-.6c1.4,0,2.5.2,3.6.6s1.8,1,2.5,1.8,1.1,1.7,1.3,2.8l-3.3.7c-.1-.7-.3-1.3-.6-1.9s-.7-.9-1.3-1.2-1.3-.4-2.2-.4c-1.1,0-2,.2-2.8.7s-1.2,1.1-1.2,2.1c0,.5.1,1,.4,1.3s.7.7,1.2.9,1.2.4,2,.6l2.3.5c1,.2,1.9.5,2.7.9s1.5.9,2,1.6.8,1.6.8,2.7c0,1.3-.3,2.3-.9,3.2s-1.5,1.6-2.6,2.1-2.6.8-4,.8h0Z" fill="#c9d1d9"/>
  <path d="m462.6,108.4c-1.4,0-2.6-.2-3.7-.7s-2-1.1-2.8-2.1-1.2-2.1-1.5-3.5l3.1-.6c.1,1.5.6,2.6,1.5,3.3s2,1.1,3.3,1.1,2.4-.3,3.2-1,1.2-1.5,1.2-2.4c0-.8-.3-1.5-.8-2s-1.4-.8-2.4-1l-2.3-.4c-.6-.1-1.3-.3-1.9-.5s-1.3-.5-1.9-.9-1-.9-1.4-1.5-.5-1.4-.5-2.3c0-1.2.3-2.3,1-3s1.5-1.4,2.6-1.8,2.2-.6,3.5-.6c1.4,0,2.5.2,3.6.6s1.8,1,2.5,1.8,1.1,1.7,1.3,2.8l-3.3.7c-.1-.7-.3-1.3-.6-1.9s-.7-.9-1.3-1.2-1.3-.4-2.2-.4c-1.1,0-2,.2-2.8.7s-1.2,1.1-1.2,2.1c0,.5.1,1,.4,1.3s.7.7,1.2.9,1.2.4,2,.6l2.3.5c1,.2,1.9.5,2.7.9s1.5.9,2,1.6.8,1.6.8,2.7c0,1.3-.3,2.3-.9,3.2s-1.5,1.6-2.6,2.1-2.6.9-4.1.9h0Z" fill="#c9d1d9"/>
  <path d="m476,85.8c-.7,0-1.3-.2-1.7-.7s-.7-1.1-.7-1.7c0-.7.2-1.3.7-1.7s1.1-.7,1.7-.7c.7,0,1.3.2,1.7.7s.7,1.1.7,1.7c0,.7-.2,1.3-.7,1.7s-1,.7-1.7.7Zm-1.4,22.2v-19h3v19h-3Z" fill="#c9d1d9"/>
  <path d="m483.3,108v-19h2.8v4.3l-.1-.8c.5-1.1,1.3-2,2.4-2.8s2.4-1.2,4-1.2c1.3,0,2.5.3,3.5.9s1.7,1.5,2.2,2.6.8,2.4.8,4v12h-3v-11.7c0-1.6-.3-2.8-1-3.8s-1.7-1.4-3.2-1.4c-1.6,0-2.9.6-3.9,1.8s-1.6,2.9-1.6,5.2v9.9h-2.9,0Z" fill="#c9d1d9"/>
  <path d="m511.2,115.3c-2.8,0-4.9-.4-6.2-1.2s-2-2-2-3.7c0-.9.2-1.8.7-2.5s1.3-1.3,2.5-1.7c-.4-.3-.8-.6-1.1-1.1s-.4-.9-.4-1.5c0-.7.2-1.2.6-1.8s1-.9,1.8-1.1c-.9-.6-1.7-1.3-2.2-2.2s-.8-2-.8-3.3c0-1.4.3-2.5.9-3.5s1.5-1.8,2.6-2.3,2.5-.8,4-.8,2.9.3,4,.8,2,1.3,2.6,2.3.9,2.2.9,3.6c0,1.3-.3,2.5-.9,3.5s-1.5,1.7-2.6,2.3-2.5.8-4.1.8h-1.6c-1.5,0-2.2.4-2.2,1.3,0,.8.7,1.2,2.1,1.2h3.8c1.5,0,2.7.2,3.6.5s1.6.8,2.1,1.3.8,1.1,1,1.8.3,1.2.3,1.8c0,1.9-.7,3.2-2,4.1s-3.4,1.3-6.3,1.3h-1.1v.1h0Zm0-2.4h1.1c3.5,0,5.2-1,5.2-3.1,0-.9-.3-1.6-.9-2.1s-1.7-.8-3.2-.8h-3.3c-1.2,0-2.2.2-2.9.7s-1.2,1.3-1.2,2.3.4,1.8,1.3,2.3,2.1.7,3.9.7h0Zm.4-13.2c1.5,0,2.6-.4,3.4-1.2s1.2-1.9,1.2-3.3-.4-2.6-1.2-3.4-1.9-1.2-3.4-1.2-2.6.4-3.4,1.2-1.2,1.9-1.2,3.4.4,2.6,1.2,3.3,1.9,1.2,3.4,1.2Zm3.1-9.1v-1.9c0-.8.3-1.4.8-1.9s1.2-.7,2-.7h2.3v2.5h-1.9c-.4,0-.6.1-.7.2s-.2.4-.2.8v1.1h-2.3v-.1h0Z" fill="#c9d1d9"/>
  <line x1="230.4" y1="295.2" x2="230.4" y2="583.2" fill="none" stroke="#c9d1d9" stroke-miterlimit="10" stroke-width="2.83"/>
  <path id="path3766" d="m446.4,295.2s-55.5,288.5-108,288c-52.5.5-108-288-108-288,0,0-55.5-288.5-108-288C69.9,6.6,14.4,295.2,14.4,295.2" fill="none" stroke="#d85648" stroke-miterlimit="10" stroke-width="2.83"/>
  <line x1="446.4" y1="295.2" x2="446.4" y2="583.2" fill="none" stroke="#c9d1d9" stroke-miterlimit="10" stroke-width="2.83"/>
  <path d="m10.6,605c-1.5,0-2.6-.6-3.4-1.7-.8-1.1-1.2-2.8-1.2-4.8s.4-3.7,1.2-4.8,1.9-1.7,3.4-1.7,2.6.6,3.4,1.7,1.2,2.8,1.2,4.8-.4,3.7-1.2,4.8-1.9,1.7-3.4,1.7Zm0-1.3c1,0,1.7-.4,2.2-1.3s.7-2.2.7-3.9-.2-3-.7-3.9-1.2-1.3-2.2-1.3-1.7.4-2.2,1.3-.7,2.2-.7,3.9.2,3,.7,3.9,1.2,1.3,2.2,1.3Z" fill="#c9d1d9"/>
  <path d="m19.8,597.9c-.6,0-1.1-.1-1.5-.4s-.8-.6-1-1-.4-1-.4-1.5c0-.6.1-1.1.4-1.5s.6-.8,1-1,.9-.4,1.5-.4,1.1.1,1.5.4.8.6,1,1,.4,1,.4,1.5c0,.6-.1,1.1-.4,1.5s-.6.8-1,1-.9.4-1.5.4Zm0-1.2c.5,0,.9-.2,1.2-.5s.4-.7.4-1.2-.1-.9-.4-1.2-.7-.5-1.2-.5-.9.2-1.2.5c-.3.3-.4.7-.4,1.2s.1.9.4,1.2.7.5,1.2.5Z" fill="#c9d1d9"/>
  <path d="m215.7,604.8v-10.1c-.5.4-.9.7-1.3,1-.4.3-.9.5-1.4.7v-1.5c.3-.1.5-.3.8-.5s.6-.5,1-.8c.4-.4.8-.9,1.3-1.5h1.1v12.7h-1.5Z" fill="#c9d1d9"/>
  <path d="m224.1,605c-.9,0-1.6-.2-2.3-.5s-1.2-.8-1.6-1.3-.6-1.2-.6-2,.2-1.5.7-2.2,1.2-1,2.1-1.2c-.5-.1-.9-.3-1.3-.6s-.6-.6-.8-.9-.3-.8-.3-1.2c0-.6.2-1.2.5-1.6.3-.5.8-.9,1.4-1.1s1.3-.4,2.1-.4,1.5.1,2.1.4,1.1.7,1.4,1.1c.3.5.5,1,.5,1.6,0,.5-.1.9-.3,1.2s-.5.7-.8.9-.8.4-1.3.6c.9.2,1.6.6,2.1,1.2s.7,1.4.7,2.2-.2,1.4-.6,2-.9,1-1.6,1.3c-.5.4-1.3.5-2.1.5h0Zm0-1.4c.9,0,1.6-.2,2.1-.7s.8-1.1.8-1.9-.3-1.4-.8-1.8c-.5-.5-1.2-.7-2.1-.7s-1.6.2-2.1.7-.8,1.1-.8,1.8c0,.8.3,1.4.8,1.9s1.2.7,2.1.7Zm0-6.3c.8,0,1.4-.2,1.8-.5s.7-.8.7-1.4-.2-1.1-.7-1.5c-.4-.4-1-.6-1.8-.6s-1.4.2-1.8.6c-.4.4-.7.9-.7,1.5s.2,1.1.7,1.4,1,.5,1.8.5Z" fill="#c9d1d9"/>
  <path d="m235.2,605c-1.5,0-2.6-.6-3.4-1.7-.8-1.1-1.2-2.8-1.2-4.8s.4-3.7,1.2-4.8,1.9-1.7,3.4-1.7,2.6.6,3.4,1.7,1.2,2.8,1.2,4.8-.4,3.7-1.2,4.8-2,1.7-3.4,1.7Zm0-1.3c1,0,1.7-.4,2.2-1.3s.7-2.2.7-3.9-.2-3-.7-3.9-1.2-1.3-2.2-1.3-1.7.4-2.2,1.3-.7,2.2-.7,3.9.2,3,.7,3.9,1.2,1.3,2.2,1.3Z" fill="#c9d1d9"/>
  <path d="m244.4,597.9c-.6,0-1.1-.1-1.5-.4s-.8-.6-1-1-.4-1-.4-1.5c0-.6.1-1.1.4-1.5s.6-.8,1-1,.9-.4,1.5-.4,1.1.1,1.5.4.8.6,1,1,.4,1,.4,1.5c0,.6-.1,1.1-.4,1.5s-.6.8-1,1-.9.4-1.5.4Zm0-1.2c.5,0,.9-.2,1.2-.5s.4-.7.4-1.2-.1-.9-.4-1.2c-.3-.3-.7-.5-1.2-.5s-.9.2-1.2.5-.4.7-.4,1.2.1.9.4,1.2.7.5,1.2.5Z" fill="#c9d1d9"/>
  <path d="m431.4,605c-.8,0-1.5-.2-2.2-.5s-1.2-.7-1.6-1.3-.7-1.3-.8-2.1l1.6-.5c.1.9.4,1.7.9,2.3s1.2.9,2.1.9c.8,0,1.4-.2,2-.7s.8-1.1.8-2c0-.3-.1-.7-.2-1.1s-.4-.7-.8-1-.9-.4-1.6-.4h-1.7v-1.3h1.6c.7,0,1.3-.2,1.7-.6.4-.4.6-.8.6-1.3,0-.6-.2-1.1-.6-1.5s-1-.6-1.7-.6c-.9,0-1.6.3-2,.8s-.7,1.3-.7,2.2l-1.6-.5c0-.6.2-1.2.6-1.8s.9-1,1.5-1.4,1.4-.6,2.3-.6c.7,0,1.4.1,2,.4s1.1.7,1.4,1.2.5,1.1.5,1.7c0,.4-.1.8-.3,1.2-.2.4-.4.7-.8.9s-.8.4-1.3.6c.9.2,1.6.5,2.1,1.1s.8,1.3.8,2.1c0,.7-.1,1.3-.4,1.8s-.6.9-1,1.2-.9.6-1.4.7-1.3.1-1.8.1h0Z" fill="#c9d1d9"/>
  <path d="m442.5,605c-1.5,0-2.7-.6-3.5-1.7s-1.2-2.7-1.2-4.6c0-.9.1-1.8.3-2.7.2-.8.5-1.5.9-2.2.4-.6.9-1.1,1.5-1.4s1.3-.5,2.1-.5,1.6.2,2.2.5,1.1.8,1.4,1.3.6,1,.6,1.6l-1.6.4c0-.8-.3-1.4-.7-1.8s-1.1-.7-1.9-.7c-.6,0-1.1.1-1.5.4s-.7.6-.9,1-.4.9-.5,1.4-.2,1-.2,1.5-.1.9-.1,1.3l-.1-.1c.2-.6.7-1.1,1.2-1.5s1.3-.7,2.2-.7c.7,0,1.4.2,2,.5s1.1.8,1.5,1.5.6,1.4.6,2.3-.2,1.6-.5,2.3c-.4.6-.9,1.1-1.5,1.5-.7.2-1.5.4-2.3.4Zm0-1.3c.9,0,1.5-.3,2-.8s.7-1.3.7-2.2-.2-1.7-.7-2.2-1.1-.8-2-.8-1.5.3-2.1.8c-.5.5-.8,1.3-.8,2.2s.3,1.6.8,2.2c.5.6,1.2.8,2.1.8Z" fill="#c9d1d9"/>
  <path d="m453.5,605c-1.5,0-2.6-.6-3.4-1.7-.8-1.1-1.2-2.8-1.2-4.8s.4-3.7,1.2-4.8,1.9-1.7,3.4-1.7,2.6.6,3.4,1.7c.8,1.1,1.2,2.8,1.2,4.8s-.4,3.7-1.2,4.8c-.8,1.1-1.9,1.7-3.4,1.7Zm0-1.3c1,0,1.7-.4,2.2-1.3s.7-2.2.7-3.9-.2-3-.7-3.9-1.2-1.3-2.2-1.3-1.7.4-2.2,1.3-.7,2.2-.7,3.9.2,3,.7,3.9,1.2,1.3,2.2,1.3Z" fill="#c9d1d9"/>
  <path d="m462.7,597.9c-.6,0-1.1-.1-1.5-.4s-.8-.6-1-1-.4-1-.4-1.5c0-.6.1-1.1.4-1.5s.6-.8,1-1,.9-.4,1.5-.4,1.1.1,1.5.4.8.6,1,1,.4,1,.4,1.5c0,.6-.1,1.1-.4,1.5s-.6.8-1,1-.9.4-1.5.4Zm0-1.2c.5,0,.9-.2,1.2-.5s.4-.7.4-1.2-.1-.9-.4-1.2-.7-.5-1.2-.5-.9.2-1.2.5c-.3.3-.4.7-.4,1.2s.1.9.4,1.2.7.5,1.2.5Z" fill="#c9d1d9"/>
  <g id="Ebene_3" data-name="Ebene 3">
    <g>
      <line x1="14.4" y1="295.2" x2="493.3" y2="295.2" fill="none" stroke="#c9d1d9" stroke-miterlimit="10" stroke-width="2.83"/>
      <polygon points="487.7 303.4 518.4 295.2 487.7 287 487.7 303.4" fill="#c9d1d9"/>
    </g>
  </g>
</svg>