<?xml version="1.0" encoding="UTF-8"?>
<svg id="uuid-f60dda48-e884-49c4-8999-dd6eebcc11d8" xmlns="http://www.w3.org/2000/svg" width="1920" height="331.2" viewBox="0 0 1920 331.2">
  <line x1="14.76" y1="208.8" x2="14.76" y2="136.8" fill="none" stroke="#959698" stroke-miterlimit="10" stroke-width="8.5"/>
  <line x1="1527.12" y1="208.8" x2="1527.12" y2="136.8" fill="none" stroke="#959698" stroke-miterlimit="10" stroke-width="8.5"/>
  <g isolation="isolate">
    <g isolation="isolate">
      <path d="m1416.389,249.291l1.734-17.016h17.484v4.008h-13.805l-1.031,9.305c1.672-.984,3.57-1.477,5.695-1.477,3.109,0,5.578,1.027,7.406,3.082s2.742,4.832,2.742,8.332-.949,6.285-2.848,8.309-4.551,3.035-7.957,3.035c-3.016,0-5.477-.836-7.383-2.508s-2.992-3.984-3.258-6.938h4.102c.266,1.953.961,3.426,2.086,4.418s2.609,1.488,4.453,1.488c2.016,0,3.598-.688,4.746-2.062s1.723-3.273,1.723-5.695c0-2.281-.621-4.113-1.863-5.496s-2.895-2.074-4.957-2.074c-1.891,0-3.375.414-4.453,1.242l-1.148.938-3.469-.891Z" fill="#c9d1d9"/>
      <path d="m1462.748,251.846c0,5.078-.867,8.852-2.602,11.32s-4.445,3.703-8.133,3.703c-3.641,0-6.336-1.207-8.086-3.621s-2.656-6.02-2.719-10.816v-5.789c0-5.016.867-8.742,2.602-11.18s4.453-3.656,8.156-3.656c3.672,0,6.375,1.176,8.109,3.527s2.625,5.98,2.672,10.887v5.625Zm-4.336-5.93c0-3.672-.516-6.348-1.547-8.027s-2.664-2.52-4.898-2.52c-2.219,0-3.836.836-4.852,2.508s-1.539,4.242-1.57,7.711v6.938c0,3.688.535,6.41,1.605,8.168s2.691,2.637,4.863,2.637c2.141,0,3.73-.828,4.77-2.484s1.582-4.266,1.629-7.828v-7.102Z" fill="#c9d1d9"/>
    </g>
  </g>
  <line x1="894.42" y1="136.8" x2="894.42" y2="208.8" fill="none" stroke="#959698" stroke-miterlimit="10" stroke-width="8.5"/>
  <g isolation="isolate">
    <g isolation="isolate">
      <path d="m889.555,266.4h-22.359v-3.117l11.812-13.125c1.75-1.984,2.957-3.598,3.621-4.84s.996-2.527.996-3.855c0-1.781-.539-3.242-1.617-4.383s-2.516-1.711-4.312-1.711c-2.156,0-3.832.613-5.027,1.84s-1.793,2.934-1.793,5.121h-4.336c0-3.141,1.012-5.68,3.035-7.617s4.73-2.906,8.121-2.906c3.172,0,5.68.832,7.523,2.496s2.766,3.879,2.766,6.645c0,3.359-2.141,7.359-6.422,12l-9.141,9.914h17.133v3.539Z" fill="#c9d1d9"/>
      <path d="m896.141,249.291l1.734-17.016h17.484v4.008h-13.805l-1.031,9.305c1.672-.984,3.57-1.477,5.695-1.477,3.109,0,5.578,1.027,7.406,3.082s2.742,4.832,2.742,8.332-.949,6.285-2.848,8.309-4.551,3.035-7.957,3.035c-3.016,0-5.477-.836-7.383-2.508s-2.992-3.984-3.258-6.938h4.102c.266,1.953.961,3.426,2.086,4.418s2.609,1.488,4.453,1.488c2.016,0,3.598-.688,4.746-2.062s1.723-3.273,1.723-5.695c0-2.281-.621-4.113-1.863-5.496s-2.895-2.074-4.957-2.074c-1.891,0-3.375.414-4.453,1.242l-1.148.938-3.469-.891Z" fill="#c9d1d9"/>
    </g>
  </g>
  <line x1="718.56" y1="136.8" x2="718.56" y2="208.8" fill="none" stroke="#959698" stroke-miterlimit="10" stroke-width="8.5"/>
  <g isolation="isolate">
    <g isolation="isolate">
      <path d="m355.846,266.4h-4.359v-28.898l-8.742,3.211v-3.938l12.422-4.664h.68v34.289Z" fill="#c9d1d9"/>
      <path d="m389.947,251.846c0,5.078-.867,8.852-2.602,11.32s-4.445,3.703-8.133,3.703c-3.641,0-6.336-1.207-8.086-3.621s-2.656-6.02-2.719-10.816v-5.789c0-5.016.867-8.742,2.602-11.18s4.453-3.656,8.156-3.656c3.672,0,6.375,1.176,8.109,3.527s2.625,5.98,2.672,10.887v5.625Zm-4.336-5.93c0-3.672-.516-6.348-1.547-8.027s-2.664-2.52-4.898-2.52c-2.219,0-3.836.836-4.852,2.508s-1.539,4.242-1.57,7.711v6.938c0,3.688.535,6.41,1.605,8.168s2.691,2.637,4.863,2.637c2.141,0,3.73-.828,4.77-2.484s1.582-4.266,1.629-7.828v-7.102Z" fill="#c9d1d9"/>
    </g>
  </g>
  <line x1="190.62" y1="208.8" x2="190.62" y2="136.81" fill="none" stroke="#959698" stroke-miterlimit="10" stroke-width="8.5"/>
  <g isolation="isolate">
    <g isolation="isolate">
      <path d="m716.755,266.4h-22.359v-3.117l11.812-13.125c1.75-1.984,2.957-3.598,3.621-4.84s.996-2.527.996-3.855c0-1.781-.539-3.242-1.617-4.383s-2.516-1.711-4.312-1.711c-2.156,0-3.832.613-5.027,1.84s-1.793,2.934-1.793,5.121h-4.336c0-3.141,1.012-5.68,3.035-7.617s4.73-2.906,8.121-2.906c3.172,0,5.68.832,7.523,2.496s2.766,3.879,2.766,6.645c0,3.359-2.141,7.359-6.422,12l-9.141,9.914h17.133v3.539Z" fill="#c9d1d9"/>
      <path d="m742.748,251.846c0,5.078-.867,8.852-2.602,11.32s-4.445,3.703-8.133,3.703c-3.641,0-6.336-1.207-8.086-3.621s-2.656-6.02-2.719-10.816v-5.789c0-5.016.867-8.742,2.602-11.18s4.453-3.656,8.156-3.656c3.672,0,6.375,1.176,8.109,3.527s2.625,5.98,2.672,10.887v5.625Zm-4.336-5.93c0-3.672-.516-6.348-1.547-8.027s-2.664-2.52-4.898-2.52c-2.219,0-3.836.836-4.852,2.508s-1.539,4.242-1.57,7.711v6.938c0,3.688.535,6.41,1.605,8.168s2.691,2.637,4.863,2.637c2.141,0,3.73-.828,4.77-2.484s1.582-4.266,1.629-7.828v-7.102Z" fill="#c9d1d9"/>
    </g>
  </g>
  <path d="m48.21,18.31c0-.7.21-1.3.64-1.78s1.07-.73,1.91-.73,1.48.24,1.92.73.66,1.08.66,1.78-.22,1.29-.66,1.76-1.08.7-1.92.7-1.48-.23-1.91-.7-.64-1.05-.64-1.76Zm4.69,32.09h-4.34v-25.36h4.34v25.36Z" fill="#c9d1d9"/>
  <path d="m63.91,25.04l.12,2.81c1.86-2.19,4.37-3.28,7.52-3.28,3.55,0,5.96,1.36,7.24,4.08.84-1.22,1.94-2.2,3.29-2.95s2.95-1.12,4.79-1.12c5.56,0,8.39,2.95,8.48,8.84v16.99h-4.34v-16.73c0-1.81-.41-3.17-1.24-4.07s-2.22-1.35-4.17-1.35c-1.61,0-2.95.48-4.01,1.44s-1.68,2.25-1.85,3.88v16.83h-4.36v-16.62c0-3.69-1.8-5.53-5.41-5.53-2.84,0-4.79,1.21-5.84,3.63v18.52h-4.34v-25.36h4.1l.02-.01Z" fill="#c9d1d9"/>
  <path d="m117.56,50.4c-.25-.5-.45-1.39-.61-2.67-2.02,2.09-4.42,3.14-7.22,3.14-2.5,0-4.55-.71-6.15-2.12s-2.4-3.21-2.4-5.38c0-2.64,1-4.69,3.01-6.15s4.83-2.19,8.47-2.19h4.22v-1.99c0-1.52-.45-2.72-1.36-3.62s-2.24-1.35-4.01-1.35c-1.55,0-2.84.39-3.89,1.17s-1.57,1.73-1.57,2.84h-4.36c0-1.27.45-2.49,1.35-3.67s2.12-2.11,3.66-2.8,3.23-1.03,5.07-1.03c2.92,0,5.21.73,6.87,2.19s2.52,3.47,2.58,6.04v11.67c0,2.33.3,4.18.89,5.55v.38h-4.55v-.01Zm-7.2-3.3c1.36,0,2.65-.35,3.87-1.05s2.1-1.62,2.65-2.74v-5.2h-3.4c-5.31,0-7.97,1.55-7.97,4.66,0,1.36.45,2.42,1.36,3.19s2.07,1.15,3.49,1.15v-.01Z" fill="#c9d1d9"/>
  <path d="m126.98,37.51c0-3.95.91-7.1,2.74-9.43,1.83-2.33,4.25-3.5,7.27-3.5s5.51,1.09,7.24,3.28l.21-2.81h3.96v24.75c0,3.28-.97,5.87-2.92,7.76s-4.56,2.84-7.84,2.84c-1.83,0-3.62-.39-5.37-1.17s-3.09-1.85-4.01-3.21l2.25-2.6c1.86,2.3,4.13,3.45,6.82,3.45,2.11,0,3.75-.59,4.93-1.78s1.77-2.86,1.77-5.02v-2.18c-1.73,2-4.1,3-7.1,3s-5.37-1.2-7.21-3.59-2.75-5.65-2.75-9.77l.01-.02Zm4.36.49c0,2.86.59,5.11,1.76,6.74s2.81,2.45,4.92,2.45c2.73,0,4.74-1.24,6.02-3.73v-11.58c-1.33-2.42-3.32-3.63-5.98-3.63-2.11,0-3.76.82-4.95,2.46s-1.78,4.07-1.78,7.29h.01Z" fill="#c9d1d9"/>
  <path d="m165.47,50.87c-3.44,0-6.23-1.13-8.39-3.39s-3.23-5.28-3.23-9.06v-.8c0-2.52.48-4.76,1.44-6.74s2.3-3.52,4.03-4.64,3.6-1.68,5.61-1.68c3.3,0,5.86,1.09,7.69,3.26s2.74,5.28,2.74,9.33v1.8h-17.18c.06,2.5.79,4.52,2.19,6.06s3.18,2.31,5.33,2.31c1.53,0,2.83-.31,3.89-.94s1.99-1.45,2.79-2.48l2.65,2.06c-2.12,3.27-5.31,4.9-9.56,4.9v.01Zm-.54-22.74c-1.75,0-3.22.64-4.41,1.91s-1.92,3.06-2.2,5.36h12.7v-.33c-.12-2.2-.72-3.91-1.78-5.12s-2.5-1.82-4.31-1.82Z" fill="#c9d1d9"/>
  <path d="m207.02,43.67c0-1.17-.44-2.08-1.32-2.73s-2.42-1.21-4.62-1.68-3.94-1.03-5.23-1.69-2.24-1.44-2.86-2.34-.93-1.98-.93-3.23c0-2.08.88-3.84,2.64-5.27s4-2.16,6.74-2.16c2.88,0,5.21.74,7,2.23s2.68,3.38,2.68,5.7h-4.36c0-1.19-.5-2.21-1.51-3.07s-2.28-1.29-3.81-1.29-2.81.34-3.7,1.03-1.34,1.59-1.34,2.7c0,1.05.41,1.84,1.24,2.37s2.32,1.04,4.49,1.52,3.92,1.06,5.26,1.73,2.34,1.48,2.99,2.43.97,2.1.97,3.46c0,2.27-.91,4.08-2.72,5.45s-4.16,2.05-7.05,2.05c-2.03,0-3.83-.36-5.39-1.08s-2.79-1.72-3.67-3.01-1.32-2.68-1.32-4.18h4.34c.08,1.45.66,2.61,1.75,3.46s2.52,1.28,4.3,1.28c1.64,0,2.96-.33,3.95-1s1.49-1.55,1.49-2.66l-.01-.02Z" fill="#c9d1d9"/>
  <path d="m221.34,28.11c1.92-2.36,4.42-3.54,7.5-3.54,5.36,0,8.06,3.02,8.11,9.07v16.76h-4.34v-16.78c-.02-1.83-.43-3.18-1.25-4.05s-2.1-1.31-3.83-1.31c-1.41,0-2.64.38-3.7,1.12s-1.89,1.73-2.48,2.95v18.07h-4.34V14.4h4.34v13.71h-.01Z" fill="#c9d1d9"/>
  <path d="m243.47,18.31c0-.7.21-1.3.64-1.78s1.07-.73,1.91-.73,1.48.24,1.92.73.66,1.08.66,1.78-.22,1.29-.66,1.76-1.08.7-1.92.7-1.48-.23-1.91-.7-.64-1.05-.64-1.76Zm4.68,32.09h-4.34v-25.36h4.34v25.36Z" fill="#c9d1d9"/>
  <path d="m257.22,50.4v-22.01h-4.01v-3.35h4.01v-2.6c0-2.72.73-4.82,2.18-6.3s3.51-2.23,6.16-2.23c1,0,1.99.13,2.98.4l-.23,3.5c-.73-.14-1.52-.21-2.34-.21-1.41,0-2.49.41-3.26,1.23-.77.82-1.15,2-1.15,3.54v2.68h5.41v3.35h-5.41v22.01h-4.34v-.01Z" fill="#c9d1d9"/>
  <path d="m277.64,18.9v6.14h4.73v3.35h-4.73v15.75c0,1.02.21,1.78.63,2.29.42.51,1.14.76,2.16.76.5,0,1.19-.09,2.06-.28v3.5c-1.14.31-2.25.47-3.33.47-1.94,0-3.4-.59-4.38-1.76s-1.48-2.84-1.48-4.99v-15.73h-4.62v-3.35h4.62v-6.14h4.34v-.01Z" fill="#c9d1d9"/>
  <path d="m300.18,53.33h-3.73l14.25-37.05h3.7l-14.23,37.05h.01Z" fill="#c9d1d9"/>
  <path d="m29.27,76.5v6.14h4.73v3.35h-4.73v15.75c0,1.02.21,1.78.63,2.29s1.14.76,2.16.76c.5,0,1.19-.09,2.06-.28v3.5c-1.14.31-2.25.47-3.33.47-1.94,0-3.4-.59-4.38-1.76s-1.48-2.84-1.48-4.99v-15.73h-4.62v-3.35h4.62v-6.14h4.34v-.01Z" fill="#c9d1d9"/>
  <path d="m37.45,95.09c0-2.48.49-4.72,1.46-6.7s2.34-3.52,4.08-4.59,3.73-1.62,5.96-1.62c3.45,0,6.25,1.2,8.38,3.59s3.2,5.57,3.2,9.54v.3c0,2.47-.47,4.68-1.42,6.64s-2.3,3.49-4.05,4.58-3.78,1.64-6.06,1.64c-3.44,0-6.22-1.2-8.36-3.59s-3.2-5.55-3.2-9.49v-.3h.01Zm4.36.51c0,2.81.65,5.07,1.96,6.77s3.05,2.55,5.24,2.55,3.95-.86,5.25-2.59,1.95-4.14,1.95-7.25c0-2.78-.66-5.04-1.98-6.76s-3.07-2.59-5.26-2.59-3.87.85-5.18,2.55-1.97,4.14-1.97,7.31l-.01.01Z" fill="#c9d1d9"/>
  <path d="m70.07,82.64l.14,3.19c1.94-2.44,4.47-3.66,7.59-3.66,5.36,0,8.06,3.02,8.11,9.07v16.76h-4.34v-16.78c-.02-1.83-.43-3.18-1.25-4.05s-2.1-1.31-3.83-1.31c-1.41,0-2.64.38-3.7,1.12s-1.89,1.73-2.48,2.95v18.07h-4.34v-25.36h4.1Z" fill="#c9d1d9"/>
  <path d="m102.98,108.47c-3.44,0-6.23-1.13-8.39-3.39s-3.23-5.28-3.23-9.06v-.8c0-2.52.48-4.76,1.44-6.74s2.3-3.52,4.03-4.64,3.6-1.68,5.61-1.68c3.3,0,5.86,1.09,7.69,3.26s2.74,5.28,2.74,9.33v1.8h-17.18c.06,2.5.79,4.52,2.19,6.06s3.18,2.31,5.33,2.31c1.53,0,2.83-.31,3.89-.94s1.99-1.45,2.79-2.48l2.65,2.06c-2.12,3.27-5.31,4.9-9.56,4.9v.01Zm-.54-22.74c-1.75,0-3.22.64-4.41,1.91s-1.92,3.06-2.2,5.36h12.7v-.33c-.12-2.2-.72-3.91-1.78-5.12s-2.5-1.82-4.31-1.82Z" fill="#c9d1d9"/>
  <path d="m139.94,104.93c1.55,0,2.9-.47,4.05-1.41s1.8-2.11,1.92-3.52h4.1c-.08,1.45-.58,2.84-1.5,4.15s-2.15,2.36-3.69,3.14-3.17,1.17-4.89,1.17c-3.45,0-6.2-1.15-8.24-3.46s-3.06-5.46-3.06-9.46v-.73c0-2.47.45-4.66,1.36-6.59s2.21-3.41,3.9-4.48,3.7-1.59,6.01-1.59c2.84,0,5.21.85,7.09,2.55s2.89,3.91,3.01,6.63h-4.1c-.12-1.64-.75-2.99-1.86-4.04s-2.5-1.58-4.14-1.58c-2.2,0-3.91.79-5.12,2.38s-1.82,3.88-1.82,6.88v.82c0,2.92.6,5.17,1.8,6.75s2.92,2.37,5.16,2.37l.02.02Z" fill="#c9d1d9"/>
  <path d="m153.75,95.09c0-2.48.49-4.72,1.46-6.7s2.34-3.52,4.08-4.59,3.73-1.62,5.96-1.62c3.45,0,6.25,1.2,8.38,3.59s3.2,5.57,3.2,9.54v.3c0,2.47-.47,4.68-1.42,6.64s-2.3,3.49-4.05,4.58-3.78,1.64-6.06,1.64c-3.44,0-6.22-1.2-8.36-3.59s-3.2-5.55-3.2-9.49v-.3h.01Zm4.36.51c0,2.81.65,5.07,1.96,6.77s3.05,2.55,5.24,2.55,3.95-.86,5.25-2.59,1.95-4.14,1.95-7.25c0-2.78-.66-5.04-1.98-6.76s-3.07-2.59-5.26-2.59-3.87.85-5.18,2.55-1.97,4.14-1.97,7.31l-.01.01Z" fill="#c9d1d9"/>
  <path d="m186.98,108h-4.34v-36h4.34v36Z" fill="#c9d1d9"/>
  <path d="m192.77,95.09c0-2.48.49-4.72,1.46-6.7s2.34-3.52,4.08-4.59,3.73-1.62,5.96-1.62c3.45,0,6.25,1.2,8.38,3.59s3.2,5.57,3.2,9.54v.3c0,2.47-.47,4.68-1.42,6.64s-2.3,3.49-4.05,4.58-3.78,1.64-6.06,1.64c-3.44,0-6.22-1.2-8.36-3.59s-3.2-5.55-3.2-9.49v-.3h.01Zm4.36.51c0,2.81.65,5.07,1.96,6.77s3.05,2.55,5.24,2.55,3.95-.86,5.25-2.59,1.95-4.14,1.95-7.25c0-2.78-.66-5.04-1.98-6.76s-3.07-2.59-5.26-2.59-3.87.85-5.18,2.55-1.97,4.14-1.97,7.31l-.01.01Z" fill="#c9d1d9"/>
  <path d="m233.55,86.53c-.66-.11-1.37-.16-2.13-.16-2.84,0-4.77,1.21-5.79,3.63v18h-4.34v-25.36h4.22l.07,2.93c1.42-2.27,3.44-3.4,6.05-3.4.84,0,1.48.11,1.92.33v4.03h0Z" fill="#c9d1d9"/>
  <path d="m252.25,108c-.25-.5-.45-1.39-.61-2.67-2.02,2.09-4.42,3.14-7.22,3.14-2.5,0-4.55-.71-6.15-2.12s-2.4-3.21-2.4-5.38c0-2.64,1-4.69,3.01-6.15s4.83-2.19,8.47-2.19h4.22v-1.99c0-1.52-.45-2.72-1.36-3.62s-2.24-1.35-4.01-1.35c-1.55,0-2.84.39-3.89,1.17s-1.57,1.73-1.57,2.84h-4.36c0-1.27.45-2.49,1.35-3.67s2.12-2.11,3.66-2.8,3.23-1.03,5.07-1.03c2.92,0,5.21.73,6.87,2.19s2.52,3.47,2.58,6.04v11.67c0,2.33.3,4.18.89,5.55v.38h-4.55v-.01Zm-7.19-3.3c1.36,0,2.65-.35,3.87-1.05s2.1-1.62,2.65-2.74v-5.2h-3.4c-5.31,0-7.97,1.55-7.97,4.66,0,1.36.45,2.42,1.36,3.19s2.07,1.15,3.49,1.15v-.01Z" fill="#c9d1d9"/>
  <path d="m268.59,76.5v6.14h4.73v3.35h-4.73v15.75c0,1.02.21,1.78.63,2.29s1.14.76,2.16.76c.5,0,1.19-.09,2.06-.28v3.5c-1.14.31-2.25.47-3.33.47-1.94,0-3.4-.59-4.38-1.76s-1.48-2.84-1.48-4.99v-15.73h-4.62v-3.35h4.62v-6.14h4.34v-.01Z" fill="#c9d1d9"/>
  <path d="m278.41,75.91c0-.7.21-1.3.64-1.78s1.07-.73,1.91-.73,1.48.24,1.92.73.66,1.08.66,1.78-.22,1.29-.66,1.76-1.08.7-1.92.7-1.48-.23-1.91-.7-.64-1.05-.64-1.76Zm4.69,32.09h-4.34v-25.36h4.34v25.36Z" fill="#c9d1d9"/>
  <path d="m288.89,95.09c0-2.48.49-4.72,1.46-6.7s2.34-3.52,4.08-4.59,3.73-1.62,5.96-1.62c3.45,0,6.25,1.2,8.38,3.59s3.2,5.57,3.2,9.54v.3c0,2.47-.47,4.68-1.42,6.64s-2.3,3.49-4.05,4.58-3.78,1.64-6.06,1.64c-3.44,0-6.22-1.2-8.36-3.59s-3.2-5.55-3.2-9.49v-.3h.01Zm4.36.51c0,2.81.65,5.07,1.96,6.77s3.05,2.55,5.24,2.55,3.95-.86,5.25-2.59,1.95-4.14,1.95-7.25c0-2.78-.66-5.04-1.98-6.76s-3.07-2.59-5.26-2.59-3.87.85-5.18,2.55-1.97,4.14-1.97,7.31l-.01.01Z" fill="#c9d1d9"/>
  <path d="m321.51,82.64l.14,3.19c1.94-2.44,4.47-3.66,7.59-3.66,5.36,0,8.06,3.02,8.11,9.07v16.76h-4.34v-16.78c-.02-1.83-.43-3.18-1.25-4.05s-2.1-1.31-3.83-1.31c-1.41,0-2.64.38-3.7,1.12s-1.89,1.73-2.48,2.95v18.07h-4.34v-25.36h4.1Z" fill="#c9d1d9"/>
  <line x1="542.52" y1="136.8" x2="542.52" y2="208.8" fill="none" stroke="#959698" stroke-miterlimit="10" stroke-width="8.5"/>
  <path d="m468.31,38c0,3.86-.88,6.97-2.65,9.33s-4.16,3.54-7.17,3.54-5.5-.98-7.27-2.93v12.21h-4.34V25.04h3.96l.21,2.81c1.77-2.19,4.22-3.28,7.36-3.28s5.46,1.15,7.23,3.45,2.66,5.49,2.66,9.59v.4l.01-.01Zm-4.34-.49c0-2.86-.61-5.12-1.83-6.77s-2.89-2.48-5.02-2.48c-2.62,0-4.59,1.16-5.91,3.49v12.12c1.3,2.31,3.28,3.47,5.95,3.47,2.08,0,3.73-.82,4.96-2.47s1.84-4.1,1.84-7.35l.01-.01Z" fill="#c9d1d9"/>
  <path d="m486.07,28.93c-.66-.11-1.37-.16-2.13-.16-2.84,0-4.77,1.21-5.79,3.63v18h-4.34v-25.36h4.22l.07,2.93c1.42-2.27,3.44-3.4,6.05-3.4.84,0,1.48.11,1.92.33,0,0,0,4.03,0,4.03Z" fill="#c9d1d9"/>
  <path d="m500.13,50.87c-3.44,0-6.23-1.13-8.39-3.39s-3.23-5.28-3.23-9.06v-.8c0-2.52.48-4.76,1.44-6.74s2.3-3.52,4.03-4.64,3.6-1.68,5.61-1.68c3.3,0,5.86,1.09,7.69,3.26s2.74,5.28,2.74,9.33v1.8h-17.18c.06,2.5.79,4.52,2.19,6.06s3.18,2.31,5.33,2.31c1.53,0,2.83-.31,3.89-.94s1.99-1.45,2.79-2.48l2.65,2.06c-2.12,3.27-5.31,4.9-9.56,4.9v.01Zm-.53-22.74c-1.75,0-3.22.64-4.41,1.91s-1.92,3.06-2.2,5.36h12.7v-.33c-.12-2.2-.72-3.91-1.78-5.12s-2.5-1.82-4.31-1.82Z" fill="#c9d1d9"/>
  <path d="m525.21,47.33c1.55,0,2.9-.47,4.05-1.41s1.8-2.11,1.92-3.52h4.1c-.08,1.45-.58,2.84-1.5,4.15s-2.15,2.36-3.69,3.14-3.17,1.17-4.89,1.17c-3.45,0-6.2-1.15-8.24-3.46s-3.06-5.46-3.06-9.46v-.73c0-2.47.45-4.66,1.36-6.59s2.21-3.41,3.9-4.48,3.7-1.59,6.01-1.59c2.84,0,5.21.85,7.09,2.55s2.89,3.91,3.01,6.63h-4.1c-.12-1.64-.75-2.99-1.86-4.04s-2.5-1.58-4.14-1.58c-2.2,0-3.91.79-5.12,2.38-1.21,1.59-1.82,3.88-1.82,6.88v.82c0,2.92.6,5.17,1.8,6.75s2.92,2.37,5.16,2.37l.02.02Z" fill="#c9d1d9"/>
  <path d="m550.69,50.87c-3.44,0-6.23-1.13-8.39-3.39s-3.23-5.28-3.23-9.06v-.8c0-2.52.48-4.76,1.44-6.74s2.3-3.52,4.03-4.64,3.6-1.68,5.61-1.68c3.3,0,5.86,1.09,7.69,3.26s2.74,5.28,2.74,9.33v1.8h-17.18c.06,2.5.79,4.52,2.19,6.06s3.18,2.31,5.33,2.31c1.53,0,2.83-.31,3.89-.94s1.99-1.45,2.79-2.48l2.65,2.06c-2.12,3.27-5.31,4.9-9.56,4.9v.01Zm-.54-22.74c-1.75,0-3.22.64-4.41,1.91s-1.92,3.06-2.2,5.36h12.7v-.33c-.12-2.2-.72-3.91-1.78-5.12s-2.5-1.82-4.31-1.82Z" fill="#c9d1d9"/>
  <path d="m564.54,37.51c0-3.89.92-7.02,2.77-9.39s4.26-3.55,7.24-3.55,5.32,1.02,7.05,3.05v-13.22h4.34v36h-3.98l-.21-2.72c-1.73,2.12-4.15,3.19-7.24,3.19s-5.33-1.2-7.18-3.61-2.78-5.55-2.78-9.42v-.33h-.01Zm4.34.49c0,2.88.59,5.12,1.78,6.75s2.83,2.44,4.92,2.44c2.75,0,4.76-1.23,6.02-3.7v-11.65c-1.3-2.39-3.29-3.59-5.98-3.59-2.12,0-3.78.82-4.97,2.46-1.19,1.64-1.78,4.07-1.78,7.29h.01Z" fill="#c9d1d9"/>
  <path d="m603.19,50.87c-3.44,0-6.23-1.13-8.39-3.39s-3.23-5.28-3.23-9.06v-.8c0-2.52.48-4.76,1.44-6.74s2.3-3.52,4.03-4.64,3.6-1.68,5.61-1.68c3.3,0,5.86,1.09,7.69,3.26s2.74,5.28,2.74,9.33v1.8h-17.18c.06,2.5.79,4.52,2.19,6.06s3.18,2.31,5.33,2.31c1.53,0,2.83-.31,3.89-.94s1.99-1.45,2.79-2.48l2.65,2.06c-2.12,3.27-5.31,4.9-9.56,4.9v.01Zm-.54-22.74c-1.75,0-3.22.64-4.41,1.91s-1.92,3.06-2.2,5.36h12.7v-.33c-.12-2.2-.72-3.91-1.78-5.12s-2.5-1.82-4.31-1.82Z" fill="#c9d1d9"/>
  <path d="m622.2,25.04l.14,3.19c1.94-2.44,4.47-3.66,7.59-3.66,5.36,0,8.06,3.02,8.11,9.07v16.76h-4.34v-16.78c-.02-1.83-.43-3.18-1.25-4.05s-2.1-1.31-3.83-1.31c-1.41,0-2.64.38-3.7,1.12s-1.89,1.73-2.48,2.95v18.07h-4.34v-25.36h4.1Z" fill="#c9d1d9"/>
  <path d="m654.75,47.33c1.55,0,2.9-.47,4.05-1.41s1.8-2.11,1.92-3.52h4.1c-.08,1.45-.58,2.84-1.5,4.15s-2.15,2.36-3.69,3.14-3.17,1.17-4.89,1.17c-3.45,0-6.2-1.15-8.24-3.46s-3.06-5.46-3.06-9.46v-.73c0-2.47.45-4.66,1.36-6.59s2.21-3.41,3.9-4.48,3.7-1.59,6.01-1.59c2.84,0,5.21.85,7.09,2.55s2.89,3.91,3.01,6.63h-4.1c-.12-1.64-.75-2.99-1.86-4.04s-2.5-1.58-4.14-1.58c-2.2,0-3.91.79-5.12,2.38-1.21,1.59-1.82,3.88-1.82,6.88v.82c0,2.92.6,5.17,1.8,6.75s2.92,2.37,5.16,2.37l.02.02Z" fill="#c9d1d9"/>
  <path d="m680.23,50.87c-3.44,0-6.23-1.13-8.39-3.39s-3.23-5.28-3.23-9.06v-.8c0-2.52.48-4.76,1.44-6.74s2.3-3.52,4.03-4.64,3.6-1.68,5.61-1.68c3.3,0,5.86,1.09,7.69,3.26s2.74,5.28,2.74,9.33v1.8h-17.18c.06,2.5.79,4.52,2.19,6.06s3.18,2.31,5.33,2.31c1.53,0,2.83-.31,3.89-.94s1.99-1.45,2.79-2.48l2.65,2.06c-2.12,3.27-5.31,4.9-9.56,4.9v.01Zm-.54-22.74c-1.75,0-3.22.64-4.41,1.91s-1.92,3.06-2.2,5.36h12.7v-.33c-.12-2.2-.72-3.91-1.78-5.12s-2.5-1.82-4.31-1.82Z" fill="#c9d1d9"/>
  <path d="m707.88,53.33h-3.73l14.25-37.05h3.7l-14.23,37.05h.01Z" fill="#c9d1d9"/>
  <path d="m490,108h-4.52v-15.77h-17.2v15.77h-4.5v-34.12h4.5v14.67h17.2v-14.67h4.52v34.12Z" fill="#c9d1d9"/>
  <path d="m512.97,108c-.25-.5-.45-1.39-.61-2.67-2.02,2.09-4.42,3.14-7.22,3.14-2.5,0-4.55-.71-6.15-2.12s-2.4-3.21-2.4-5.38c0-2.64,1-4.69,3.01-6.15s4.83-2.19,8.47-2.19h4.22v-1.99c0-1.52-.45-2.72-1.36-3.62s-2.24-1.35-4.01-1.35c-1.55,0-2.84.39-3.89,1.17s-1.57,1.73-1.57,2.84h-4.36c0-1.27.45-2.49,1.35-3.67s2.12-2.11,3.66-2.8,3.23-1.03,5.07-1.03c2.92,0,5.21.73,6.87,2.19s2.52,3.47,2.58,6.04v11.67c0,2.33.3,4.18.89,5.55v.38h-4.55v-.01Zm-7.2-3.3c1.36,0,2.65-.35,3.87-1.05s2.1-1.62,2.65-2.74v-5.2h-3.4c-5.31,0-7.97,1.55-7.97,4.66,0,1.36.45,2.42,1.36,3.19s2.07,1.15,3.49,1.15v-.01Z" fill="#c9d1d9"/>
  <path d="m539.08,108c-.25-.5-.45-1.39-.61-2.67-2.02,2.09-4.42,3.14-7.22,3.14-2.5,0-4.55-.71-6.15-2.12s-2.4-3.21-2.4-5.38c0-2.64,1-4.69,3.01-6.15s4.83-2.19,8.47-2.19h4.22v-1.99c0-1.52-.45-2.72-1.36-3.62s-2.24-1.35-4.01-1.35c-1.55,0-2.84.39-3.89,1.17s-1.57,1.73-1.57,2.84h-4.36c0-1.27.45-2.49,1.35-3.67s2.12-2.11,3.66-2.8,3.23-1.03,5.07-1.03c2.92,0,5.21.73,6.87,2.19s2.52,3.47,2.58,6.04v11.67c0,2.33.3,4.18.89,5.55v.38h-4.55v-.01Zm-7.2-3.3c1.36,0,2.65-.35,3.87-1.05s2.1-1.62,2.65-2.74v-5.2h-3.4c-5.31,0-7.97,1.55-7.97,4.66,0,1.36.45,2.42,1.36,3.19s2.07,1.15,3.49,1.15v-.01Z" fill="#c9d1d9"/>
  <path d="m564.29,101.27c0-1.17-.44-2.08-1.32-2.73s-2.42-1.21-4.62-1.68-3.94-1.03-5.23-1.69-2.24-1.44-2.86-2.34-.93-1.98-.93-3.23c0-2.08.88-3.84,2.64-5.27s4-2.16,6.74-2.16c2.88,0,5.21.74,7,2.23s2.68,3.38,2.68,5.7h-4.36c0-1.19-.5-2.21-1.51-3.07s-2.28-1.29-3.81-1.29-2.81.34-3.7,1.03-1.34,1.59-1.34,2.7c0,1.05.41,1.84,1.24,2.37s2.32,1.04,4.49,1.52,3.92,1.06,5.26,1.73,2.34,1.48,2.99,2.43.97,2.1.97,3.46c0,2.27-.91,4.08-2.72,5.45s-4.16,2.05-7.05,2.05c-2.03,0-3.83-.36-5.39-1.08s-2.79-1.72-3.67-3.01-1.32-2.68-1.32-4.18h4.34c.08,1.45.66,2.61,1.75,3.46s2.52,1.28,4.3,1.28c1.64,0,2.96-.33,3.95-1s1.49-1.55,1.49-2.66l-.01-.02Z" fill="#c9d1d9"/>
  <path d="m596.69,108.47c-3.44,0-6.23-1.13-8.39-3.39s-3.23-5.28-3.23-9.06v-.8c0-2.52.48-4.76,1.44-6.74s2.3-3.52,4.03-4.64,3.6-1.68,5.61-1.68c3.3,0,5.86,1.09,7.69,3.26s2.74,5.28,2.74,9.33v1.8h-17.18c.06,2.5.79,4.52,2.19,6.06s3.18,2.31,5.33,2.31c1.53,0,2.83-.31,3.89-.94s1.99-1.45,2.79-2.48l2.65,2.06c-2.12,3.27-5.31,4.9-9.56,4.9v.01Zm-.54-22.74c-1.75,0-3.22.64-4.41,1.91s-1.92,3.06-2.2,5.36h12.7v-.33c-.12-2.2-.72-3.91-1.78-5.12s-2.5-1.82-4.31-1.82Z" fill="#c9d1d9"/>
  <path d="m613.72,108v-22.01h-4.01v-3.35h4.01v-2.6c0-2.72.73-4.82,2.18-6.3s3.51-2.23,6.16-2.23c1,0,1.99.13,2.98.4l-.23,3.5c-.73-.14-1.52-.21-2.34-.21-1.41,0-2.49.41-3.26,1.23s-1.15,2-1.15,3.54v2.68h5.41v3.35h-5.41v22.01h-4.34v-.01Z" fill="#c9d1d9"/>
  <path d="m630.39,108v-22.01h-4.01v-3.35h4.01v-2.6c0-2.72.73-4.82,2.18-6.3s3.51-2.23,6.16-2.23c1,0,1.99.13,2.98.4l-.23,3.5c-.73-.14-1.52-.21-2.34-.21-1.41,0-2.49.41-3.26,1.23s-1.15,2-1.15,3.54v2.68h5.41v3.35h-5.41v22.01h-4.34v-.01Z" fill="#c9d1d9"/>
  <path d="m654.88,108.47c-3.44,0-6.23-1.13-8.39-3.39s-3.23-5.28-3.23-9.06v-.8c0-2.52.48-4.76,1.44-6.74s2.3-3.52,4.03-4.64,3.6-1.68,5.61-1.68c3.3,0,5.86,1.09,7.69,3.26s2.74,5.28,2.74,9.33v1.8h-17.18c.06,2.5.79,4.52,2.19,6.06s3.18,2.31,5.33,2.31c1.53,0,2.83-.31,3.89-.94s1.99-1.45,2.79-2.48l2.65,2.06c-2.12,3.27-5.31,4.9-9.56,4.9v.01Zm-.54-22.74c-1.75,0-3.22.64-4.41,1.91s-1.92,3.06-2.2,5.36h12.7v-.33c-.12-2.2-.72-3.91-1.78-5.12s-2.5-1.82-4.31-1.82Z" fill="#c9d1d9"/>
  <path d="m679.96,104.93c1.55,0,2.9-.47,4.05-1.41s1.8-2.11,1.92-3.52h4.1c-.08,1.45-.58,2.84-1.5,4.15s-2.15,2.36-3.69,3.14-3.17,1.17-4.89,1.17c-3.45,0-6.2-1.15-8.24-3.46s-3.06-5.46-3.06-9.46v-.73c0-2.47.45-4.66,1.36-6.59s2.21-3.41,3.9-4.48,3.7-1.59,6.01-1.59c2.84,0,5.21.85,7.09,2.55s2.89,3.91,3.01,6.63h-4.1c-.12-1.64-.75-2.99-1.86-4.04s-2.5-1.58-4.14-1.58c-2.2,0-3.91.79-5.12,2.38s-1.82,3.88-1.82,6.88v.82c0,2.92.6,5.17,1.8,6.75s2.92,2.37,5.16,2.37l.02.02Z" fill="#c9d1d9"/>
  <path d="m700.79,76.5v6.14h4.73v3.35h-4.73v15.75c0,1.02.21,1.78.63,2.29s1.14.76,2.16.76c.5,0,1.19-.09,2.06-.28v3.5c-1.14.31-2.25.47-3.33.47-1.94,0-3.4-.59-4.38-1.76s-1.48-2.84-1.48-4.99v-15.73h-4.62v-3.35h4.62v-6.14h4.34v-.01Z" fill="#c9d1d9"/>
  <path d="m878.55,47.89c-1.69,1.98-4.16,2.98-7.43,2.98-2.7,0-4.76-.79-6.18-2.36s-2.13-3.89-2.14-6.97v-16.5h4.34v16.38c0,3.84,1.56,5.77,4.69,5.77,3.31,0,5.52-1.23,6.61-3.7v-18.45h4.34v25.36h-4.12l-.09-2.51h-.02Z" fill="#c9d1d9"/>
  <path d="m904.12,43.67c0-1.17-.44-2.08-1.32-2.73s-2.42-1.21-4.62-1.68-3.94-1.03-5.23-1.69-2.24-1.44-2.86-2.34-.93-1.98-.93-3.23c0-2.08.88-3.84,2.64-5.27s4-2.16,6.74-2.16c2.88,0,5.21.74,7,2.23s2.68,3.38,2.68,5.7h-4.36c0-1.19-.5-2.21-1.51-3.07s-2.28-1.29-3.81-1.29-2.81.34-3.7,1.03-1.34,1.59-1.34,2.7c0,1.05.41,1.84,1.24,2.37s2.32,1.04,4.49,1.52,3.92,1.06,5.26,1.73,2.34,1.48,2.99,2.43.97,2.1.97,3.46c0,2.27-.91,4.08-2.72,5.45s-4.16,2.05-7.05,2.05c-2.03,0-3.83-.36-5.39-1.08s-2.79-1.72-3.67-3.01-1.32-2.68-1.32-4.18h4.34c.08,1.45.66,2.61,1.75,3.46s2.52,1.28,4.3,1.28c1.64,0,2.96-.33,3.95-1s1.49-1.55,1.49-2.66l-.01-.02Z" fill="#c9d1d9"/>
  <path d="m924.63,50.87c-3.44,0-6.23-1.13-8.39-3.39s-3.23-5.28-3.23-9.06v-.8c0-2.52.48-4.76,1.44-6.74s2.3-3.52,4.03-4.64,3.6-1.68,5.61-1.68c3.3,0,5.86,1.09,7.69,3.26s2.74,5.28,2.74,9.33v1.8h-17.18c.06,2.5.79,4.52,2.19,6.06s3.18,2.31,5.33,2.31c1.53,0,2.83-.31,3.89-.94s1.99-1.45,2.79-2.48l2.65,2.06c-2.12,3.27-5.31,4.9-9.56,4.9v.01Zm-.54-22.73c-1.75,0-3.22.64-4.41,1.91s-1.92,3.06-2.2,5.36h12.7v-.33c-.12-2.2-.72-3.91-1.78-5.12s-2.5-1.82-4.31-1.82Z" fill="#c9d1d9"/>
  <path d="m941.67,50.4v-22.01h-4.01v-3.35h4.01v-2.6c0-2.72.73-4.82,2.18-6.3s3.51-2.23,6.16-2.23c1,0,1.99.13,2.98.4l-.23,3.5c-.73-.14-1.52-.21-2.34-.21-1.41,0-2.49.41-3.26,1.23s-1.15,2-1.15,3.54v2.68h5.41v3.35h-5.41v22.01h-4.34v-.01Z" fill="#c9d1d9"/>
  <path d="m971.86,47.89c-1.69,1.98-4.16,2.98-7.43,2.98-2.7,0-4.76-.79-6.18-2.36s-2.13-3.89-2.14-6.97v-16.5h4.34v16.38c0,3.84,1.56,5.77,4.69,5.77,3.31,0,5.52-1.23,6.61-3.7v-18.45h4.34v25.36h-4.12l-.09-2.51h-.02Z" fill="#c9d1d9"/>
  <path d="m987.37,50.4h-4.34V14.4h4.34v36Z" fill="#c9d1d9"/>
  <path d="m1018.45,28.93c-.66-.11-1.37-.16-2.13-.16-2.84,0-4.77,1.21-5.79,3.63v18h-4.34v-25.36h4.22l.07,2.93c1.42-2.27,3.44-3.4,6.05-3.4.84,0,1.48.11,1.92.33v4.03h0Z" fill="#c9d1d9"/>
  <path d="m1032.51,50.87c-3.44,0-6.23-1.13-8.39-3.39s-3.23-5.28-3.23-9.06v-.8c0-2.52.48-4.76,1.44-6.74s2.3-3.52,4.03-4.64,3.6-1.68,5.61-1.68c3.3,0,5.86,1.09,7.69,3.26s2.74,5.28,2.74,9.33v1.8h-17.18c.06,2.5.79,4.52,2.19,6.06s3.18,2.31,5.33,2.31c1.53,0,2.83-.31,3.89-.94s1.99-1.45,2.79-2.48l2.65,2.06c-2.12,3.27-5.31,4.9-9.56,4.9v.01Zm-.54-22.73c-1.75,0-3.22.64-4.41,1.91s-1.92,3.06-2.2,5.36h12.7v-.33c-.12-2.2-.72-3.91-1.78-5.12s-2.5-1.82-4.31-1.82h0Z" fill="#c9d1d9"/>
  <path d="m1049.55,50.4v-22.01h-4.01v-3.35h4.01v-2.6c0-2.72.73-4.82,2.18-6.3s3.51-2.23,6.16-2.23c1,0,1.99.13,2.98.4l-.23,3.5c-.73-.14-1.52-.21-2.34-.21-1.41,0-2.49.41-3.26,1.23s-1.15,2-1.15,3.54v2.68h5.41v3.35h-5.41v22.01h-4.34v-.01Z" fill="#c9d1d9"/>
  <path d="m1068.79,50.4h-4.34V14.4h4.34v36Z" fill="#c9d1d9"/>
  <path d="m1086.25,50.87c-3.44,0-6.23-1.13-8.39-3.39s-3.23-5.28-3.23-9.06v-.8c0-2.52.48-4.76,1.44-6.74s2.3-3.52,4.03-4.64,3.6-1.68,5.61-1.68c3.3,0,5.86,1.09,7.69,3.26s2.74,5.28,2.74,9.33v1.8h-17.18c.06,2.5.79,4.52,2.19,6.06s3.18,2.31,5.33,2.31c1.53,0,2.83-.31,3.89-.94s1.99-1.45,2.79-2.48l2.65,2.06c-2.12,3.27-5.31,4.9-9.56,4.9v.01Zm-.53-22.73c-1.75,0-3.22.64-4.41,1.91s-1.92,3.06-2.2,5.36h12.7v-.33c-.12-2.2-.72-3.91-1.78-5.12s-2.5-1.82-4.31-1.82h0Z" fill="#c9d1d9"/>
  <path d="m1111.33,47.33c1.55,0,2.9-.47,4.05-1.41s1.8-2.11,1.92-3.52h4.1c-.08,1.45-.58,2.84-1.5,4.15s-2.15,2.36-3.69,3.14-3.17,1.17-4.89,1.17c-3.45,0-6.2-1.15-8.24-3.46s-3.06-5.46-3.06-9.46v-.73c0-2.47.45-4.66,1.36-6.59s2.21-3.41,3.9-4.48,3.7-1.59,6.01-1.59c2.84,0,5.21.85,7.09,2.55s2.89,3.91,3.01,6.63h-4.1c-.12-1.64-.75-2.99-1.86-4.04s-2.5-1.58-4.14-1.58c-2.2,0-3.91.79-5.12,2.38-1.21,1.59-1.82,3.88-1.82,6.88v.82c0,2.92.6,5.17,1.8,6.75s2.92,2.37,5.16,2.37l.02.02Z" fill="#c9d1d9"/>
  <path d="m1132.17,18.9v6.14h4.73v3.35h-4.73v15.75c0,1.02.21,1.78.63,2.29.42.51,1.14.76,2.16.76.5,0,1.19-.09,2.06-.28v3.5c-1.14.31-2.25.47-3.33.47-1.94,0-3.4-.59-4.38-1.76s-1.48-2.84-1.48-4.99v-15.73h-4.62v-3.35h4.62v-6.14h4.34v-.01Z" fill="#c9d1d9"/>
  <path d="m1141.99,18.32c0-.7.21-1.3.64-1.78s1.07-.73,1.91-.73,1.48.24,1.92.73.66,1.08.66,1.78-.22,1.29-.66,1.76-1.08.7-1.92.7-1.48-.23-1.91-.7-.64-1.05-.64-1.76Zm4.69,32.08h-4.34v-25.36h4.34v25.36Z" fill="#c9d1d9"/>
  <path d="m1152.47,37.49c0-2.48.49-4.72,1.46-6.7s2.34-3.52,4.08-4.59,3.73-1.62,5.96-1.62c3.45,0,6.25,1.2,8.38,3.59s3.2,5.57,3.2,9.54v.3c0,2.47-.47,4.68-1.42,6.64s-2.3,3.49-4.05,4.58-3.78,1.64-6.06,1.64c-3.44,0-6.22-1.2-8.36-3.59s-3.2-5.55-3.2-9.49v-.3h.01Zm4.36.51c0,2.81.65,5.07,1.96,6.77s3.05,2.55,5.24,2.55,3.95-.86,5.25-2.59,1.95-4.14,1.95-7.25c0-2.78-.66-5.04-1.98-6.76s-3.07-2.59-5.26-2.59-3.87.85-5.18,2.55-1.97,4.14-1.97,7.31l-.01.01Z" fill="#c9d1d9"/>
  <path d="m1185.09,25.04l.14,3.19c1.94-2.44,4.47-3.66,7.59-3.66,5.36,0,8.06,3.02,8.11,9.07v16.76h-4.34v-16.78c-.02-1.83-.43-3.18-1.25-4.05s-2.1-1.31-3.83-1.31c-1.41,0-2.64.38-3.7,1.12s-1.89,1.73-2.48,2.95v18.07h-4.34v-25.36h4.1,0Z" fill="#c9d1d9"/>
  <path d="m1222.24,43.67c0-1.17-.44-2.08-1.32-2.73s-2.42-1.21-4.62-1.68-3.94-1.03-5.23-1.69-2.24-1.44-2.86-2.34-.93-1.98-.93-3.23c0-2.08.88-3.84,2.64-5.27s4-2.16,6.74-2.16c2.88,0,5.21.74,7,2.23s2.68,3.38,2.68,5.7h-4.36c0-1.19-.5-2.21-1.51-3.07s-2.28-1.29-3.81-1.29-2.81.34-3.7,1.03-1.34,1.59-1.34,2.7c0,1.05.41,1.84,1.24,2.37s2.32,1.04,4.49,1.52,3.92,1.06,5.26,1.73,2.34,1.48,2.99,2.43.97,2.1.97,3.46c0,2.27-.91,4.08-2.72,5.45s-4.16,2.05-7.05,2.05c-2.03,0-3.83-.36-5.39-1.08s-2.79-1.72-3.67-3.01-1.32-2.68-1.32-4.18h4.34c.08,1.45.66,2.61,1.75,3.46s2.52,1.28,4.3,1.28c1.64,0,2.96-.33,3.95-1s1.49-1.55,1.49-2.66l-.01-.02Z" fill="#c9d1d9"/>
  <path d="m1246.24,50.4v-22.01h-4.01v-3.35h4.01v-2.6c0-2.72.73-4.82,2.18-6.3s3.51-2.23,6.16-2.23c1,0,1.99.13,2.98.4l-.23,3.5c-.73-.14-1.52-.21-2.34-.21-1.41,0-2.49.41-3.26,1.23s-1.15,2-1.15,3.54v2.68h5.41v3.35h-5.41v22.01h-4.34v-.01Z" fill="#c9d1d9"/>
  <path d="m1259.62,37.49c0-2.48.49-4.72,1.46-6.7s2.34-3.52,4.08-4.59,3.73-1.62,5.96-1.62c3.45,0,6.25,1.2,8.38,3.59s3.2,5.57,3.2,9.54v.3c0,2.47-.47,4.68-1.42,6.64s-2.3,3.49-4.05,4.58-3.78,1.64-6.06,1.64c-3.44,0-6.22-1.2-8.36-3.59s-3.2-5.55-3.2-9.49v-.3h.01Zm4.36.51c0,2.81.65,5.07,1.96,6.77s3.05,2.55,5.24,2.55,3.95-.86,5.25-2.59,1.95-4.14,1.95-7.25c0-2.78-.66-5.04-1.98-6.76s-3.07-2.59-5.26-2.59-3.87.85-5.18,2.55-1.97,4.14-1.97,7.31l-.01.01Z" fill="#c9d1d9"/>
  <path d="m1300.4,28.93c-.66-.11-1.37-.16-2.13-.16-2.84,0-4.77,1.21-5.79,3.63v18h-4.34v-25.36h4.22l.07,2.93c1.42-2.27,3.44-3.4,6.05-3.4.84,0,1.48.11,1.92.33,0,0,0,4.03,0,4.03Z" fill="#c9d1d9"/>
  <path d="m904.61,101.27c0-1.17-.44-2.08-1.32-2.73s-2.42-1.21-4.62-1.68-3.94-1.03-5.23-1.69-2.24-1.44-2.86-2.34-.93-1.98-.93-3.23c0-2.08.88-3.84,2.64-5.27s4-2.16,6.74-2.16c2.88,0,5.21.74,7,2.23s2.68,3.38,2.68,5.7h-4.36c0-1.19-.5-2.21-1.51-3.07s-2.28-1.29-3.81-1.29-2.81.34-3.7,1.03-1.34,1.59-1.34,2.7c0,1.05.41,1.84,1.24,2.37s2.32,1.04,4.49,1.52,3.92,1.06,5.26,1.73,2.34,1.48,2.99,2.43.97,2.1.97,3.46c0,2.27-.91,4.08-2.72,5.45s-4.16,2.05-7.05,2.05c-2.03,0-3.83-.36-5.39-1.08s-2.79-1.72-3.67-3.01-1.32-2.68-1.32-4.18h4.34c.08,1.45.66,2.61,1.75,3.46s2.52,1.28,4.3,1.28c1.64,0,2.96-.33,3.95-1s1.49-1.55,1.49-2.66l-.01-.02Z" fill="#c9d1d9"/>
  <path d="m936.02,95.6c0,3.86-.88,6.97-2.65,9.33s-4.16,3.54-7.17,3.54-5.5-.98-7.27-2.93v12.21h-4.34v-35.11h3.96l.21,2.81c1.77-2.19,4.22-3.28,7.36-3.28s5.46,1.15,7.23,3.45,2.66,5.49,2.66,9.59v.4l.01-.01Zm-4.34-.49c0-2.86-.61-5.12-1.83-6.77s-2.89-2.48-5.02-2.48c-2.62,0-4.59,1.16-5.91,3.49v12.12c1.3,2.31,3.28,3.47,5.95,3.47,2.08,0,3.73-.82,4.96-2.47s1.84-4.1,1.84-7.35l.01-.01Z" fill="#c9d1d9"/>
  <path d="m952.05,108.47c-3.44,0-6.23-1.13-8.39-3.39s-3.23-5.28-3.23-9.06v-.8c0-2.52.48-4.76,1.44-6.74s2.3-3.52,4.03-4.64,3.6-1.68,5.61-1.68c3.3,0,5.86,1.09,7.69,3.26s2.74,5.28,2.74,9.33v1.8h-17.18c.06,2.5.79,4.52,2.19,6.06s3.18,2.31,5.33,2.31c1.53,0,2.83-.31,3.89-.94s1.99-1.45,2.79-2.48l2.65,2.06c-2.12,3.27-5.31,4.9-9.56,4.9v.01Zm-.54-22.73c-1.75,0-3.22.64-4.41,1.91s-1.92,3.06-2.2,5.36h12.7v-.33c-.12-2.2-.72-3.91-1.78-5.12s-2.5-1.82-4.31-1.82Z" fill="#c9d1d9"/>
  <path d="m977.48,108.47c-3.44,0-6.23-1.13-8.39-3.39s-3.23-5.28-3.23-9.06v-.8c0-2.52.48-4.76,1.44-6.74s2.3-3.52,4.03-4.64,3.6-1.68,5.61-1.68c3.3,0,5.86,1.09,7.69,3.26s2.74,5.28,2.74,9.33v1.8h-17.18c.06,2.5.79,4.52,2.19,6.06s3.18,2.31,5.33,2.31c1.53,0,2.83-.31,3.89-.94s1.99-1.45,2.79-2.48l2.65,2.06c-2.12,3.27-5.31,4.9-9.56,4.9v.01Zm-.54-22.73c-1.75,0-3.22.64-4.41,1.91s-1.92,3.06-2.2,5.36h12.7v-.33c-.12-2.2-.72-3.91-1.78-5.12s-2.5-1.82-4.31-1.82Z" fill="#c9d1d9"/>
  <path d="m1002.56,104.93c1.55,0,2.9-.47,4.05-1.41s1.8-2.11,1.92-3.52h4.1c-.08,1.45-.58,2.84-1.5,4.15s-2.15,2.36-3.69,3.14-3.17,1.17-4.89,1.17c-3.45,0-6.2-1.15-8.24-3.46s-3.06-5.46-3.06-9.46v-.73c0-2.47.45-4.66,1.36-6.59s2.21-3.41,3.9-4.48,3.7-1.59,6.01-1.59c2.84,0,5.21.85,7.09,2.55s2.89,3.91,3.01,6.63h-4.1c-.12-1.64-.75-2.99-1.86-4.04s-2.5-1.58-4.14-1.58c-2.2,0-3.91.79-5.12,2.38s-1.82,3.88-1.82,6.88v.82c0,2.92.6,5.17,1.8,6.75s2.92,2.37,5.16,2.37l.02.02Z" fill="#c9d1d9"/>
  <path d="m1021.85,85.71c1.92-2.36,4.42-3.54,7.5-3.54,5.36,0,8.06,3.02,8.11,9.07v16.76h-4.34v-16.78c-.02-1.83-.43-3.18-1.25-4.05s-2.1-1.31-3.83-1.31c-1.41,0-2.64.38-3.7,1.12s-1.89,1.73-2.48,2.95v18.07h-4.34v-36h4.34v13.71h-.01Z" fill="#c9d1d9"/>
  <path d="m1071.49,108c-.25-.5-.45-1.39-.61-2.67-2.02,2.09-4.42,3.14-7.22,3.14-2.5,0-4.55-.71-6.15-2.12s-2.4-3.21-2.4-5.38c0-2.64,1-4.69,3.01-6.15s4.83-2.19,8.47-2.19h4.22v-1.99c0-1.52-.45-2.72-1.36-3.62s-2.24-1.35-4.01-1.35c-1.55,0-2.84.39-3.89,1.17s-1.57,1.73-1.57,2.84h-4.36c0-1.27.45-2.49,1.35-3.67s2.12-2.11,3.66-2.8,3.23-1.03,5.07-1.03c2.92,0,5.21.73,6.87,2.19s2.52,3.47,2.58,6.04v11.67c0,2.33.3,4.18.89,5.55v.38h-4.55v-.01Zm-7.2-3.3c1.36,0,2.65-.35,3.87-1.05s2.1-1.62,2.65-2.74v-5.2h-3.4c-5.31,0-7.97,1.55-7.97,4.66,0,1.36.45,2.42,1.36,3.19s2.07,1.15,3.49,1.15v-.01Z" fill="#c9d1d9"/>
  <path d="m1086.04,82.64l.14,3.19c1.94-2.44,4.47-3.66,7.59-3.66,5.36,0,8.06,3.02,8.11,9.07v16.76h-4.34v-16.78c-.02-1.83-.43-3.18-1.25-4.05s-2.1-1.31-3.83-1.31c-1.41,0-2.64.38-3.7,1.12s-1.89,1.73-2.48,2.95v18.07h-4.34v-25.36h4.1,0Z" fill="#c9d1d9"/>
  <path d="m1107.37,95.11c0-3.89.92-7.02,2.77-9.39s4.26-3.55,7.24-3.55,5.32,1.02,7.05,3.05v-13.22h4.34v36h-3.98l-.21-2.72c-1.73,2.12-4.15,3.19-7.24,3.19s-5.33-1.2-7.18-3.61-2.78-5.55-2.78-9.42v-.33h-.01Zm4.34.49c0,2.88.59,5.12,1.78,6.75s2.83,2.44,4.92,2.44c2.75,0,4.76-1.23,6.02-3.7v-11.65c-1.3-2.39-3.29-3.59-5.98-3.59-2.12,0-3.78.82-4.97,2.46s-1.78,4.07-1.78,7.29h.01Z" fill="#c9d1d9"/>
  <path d="m1151.46,82.64l.12,2.81c1.86-2.19,4.37-3.28,7.52-3.28,3.55,0,5.96,1.36,7.24,4.08.84-1.22,1.94-2.2,3.29-2.95s2.95-1.12,4.79-1.12c5.56,0,8.39,2.95,8.48,8.84v16.99h-4.34v-16.73c0-1.81-.41-3.17-1.24-4.07s-2.22-1.35-4.17-1.35c-1.61,0-2.95.48-4.01,1.44s-1.68,2.25-1.85,3.88v16.83h-4.36v-16.62c0-3.69-1.8-5.53-5.41-5.53-2.84,0-4.79,1.21-5.84,3.63v18.52h-4.34v-25.36h4.1l.02-.01Z" fill="#c9d1d9"/>
  <path d="m1205.11,105.49c-1.69,1.98-4.16,2.98-7.43,2.98-2.7,0-4.76-.79-6.18-2.36s-2.13-3.89-2.14-6.97v-16.5h4.34v16.38c0,3.84,1.56,5.77,4.69,5.77,3.31,0,5.52-1.23,6.61-3.7v-18.45h4.34v25.36h-4.12l-.09-2.51h-.02Z" fill="#c9d1d9"/>
  <path d="m1230.68,101.27c0-1.17-.44-2.08-1.32-2.73s-2.42-1.21-4.62-1.68-3.94-1.03-5.23-1.69-2.24-1.44-2.86-2.34-.93-1.98-.93-3.23c0-2.08.88-3.84,2.64-5.27s4-2.16,6.74-2.16c2.88,0,5.21.74,7,2.23s2.68,3.38,2.68,5.7h-4.36c0-1.19-.5-2.21-1.51-3.07s-2.28-1.29-3.81-1.29-2.81.34-3.7,1.03-1.34,1.59-1.34,2.7c0,1.05.41,1.84,1.24,2.37s2.32,1.04,4.49,1.52,3.92,1.06,5.26,1.73,2.34,1.48,2.99,2.43.97,2.1.97,3.46c0,2.27-.91,4.08-2.72,5.45s-4.16,2.05-7.05,2.05c-2.03,0-3.83-.36-5.39-1.08s-2.79-1.72-3.67-3.01-1.32-2.68-1.32-4.18h4.34c.08,1.45.66,2.61,1.75,3.46s2.52,1.28,4.3,1.28c1.64,0,2.96-.33,3.95-1s1.49-1.55,1.49-2.66l-.01-.02Z" fill="#c9d1d9"/>
  <path d="m1240.68,75.91c0-.7.21-1.3.64-1.78s1.07-.73,1.91-.73,1.48.24,1.92.73.66,1.08.66,1.78-.22,1.29-.66,1.76-1.08.7-1.92.7-1.48-.23-1.91-.7-.64-1.05-.64-1.76Zm4.69,32.09h-4.34v-25.36h4.34v25.36Z" fill="#c9d1d9"/>
  <path d="m1262.48,104.93c1.55,0,2.9-.47,4.05-1.41s1.8-2.11,1.92-3.52h4.1c-.08,1.45-.58,2.84-1.5,4.15s-2.15,2.36-3.69,3.14-3.17,1.17-4.89,1.17c-3.45,0-6.2-1.15-8.24-3.46s-3.06-5.46-3.06-9.46v-.73c0-2.47.45-4.66,1.36-6.59s2.21-3.41,3.9-4.48,3.7-1.59,6.01-1.59c2.84,0,5.21.85,7.09,2.55s2.89,3.91,3.01,6.63h-4.1c-.12-1.64-.75-2.99-1.86-4.04s-2.5-1.58-4.14-1.58c-2.2,0-3.91.79-5.12,2.38s-1.82,3.88-1.82,6.88v.82c0,2.92.6,5.17,1.8,6.75s2.92,2.37,5.16,2.37l.02.02Z" fill="#c9d1d9"/>
  <line x1="1246.32" y1="136.8" x2="1246.32" y2="208.8" fill="none" stroke="#959698" stroke-miterlimit="10" stroke-width="8.5"/>
  <g isolation="isolate">
    <g isolation="isolate">
      <path d="m1226.301,247.229h3.258c2.047-.031,3.656-.57,4.828-1.617s1.758-2.461,1.758-4.242c0-4-1.992-6-5.977-6-1.875,0-3.371.535-4.488,1.605s-1.676,2.488-1.676,4.254h-4.336c0-2.703.988-4.949,2.965-6.738s4.488-2.684,7.535-2.684c3.219,0,5.742.852,7.57,2.555s2.742,4.07,2.742,7.102c0,1.484-.48,2.922-1.441,4.312s-2.27,2.43-3.926,3.117c1.875.594,3.324,1.578,4.348,2.953s1.535,3.055,1.535,5.039c0,3.062-1,5.492-3,7.289s-4.602,2.695-7.805,2.695-5.809-.867-7.816-2.602-3.012-4.023-3.012-6.867h4.359c0,1.797.586,3.234,1.758,4.312s2.742,1.617,4.711,1.617c2.094,0,3.695-.547,4.805-1.641s1.664-2.664,1.664-4.711c0-1.984-.609-3.508-1.828-4.57s-2.977-1.609-5.273-1.641h-3.258v-3.539Z" fill="#c9d1d9"/>
      <path d="m1248.941,249.291l1.734-17.016h17.484v4.008h-13.805l-1.031,9.305c1.672-.984,3.57-1.477,5.695-1.477,3.109,0,5.578,1.027,7.406,3.082s2.742,4.832,2.742,8.332-.949,6.285-2.848,8.309-4.551,3.035-7.957,3.035c-3.016,0-5.477-.836-7.383-2.508s-2.992-3.984-3.258-6.938h4.102c.266,1.953.961,3.426,2.086,4.418s2.609,1.488,4.453,1.488c2.016,0,3.598-.688,4.746-2.062s1.723-3.273,1.723-5.695c0-2.281-.621-4.113-1.863-5.496s-2.895-2.074-4.957-2.074c-1.891,0-3.375.414-4.453,1.242l-1.148.938-3.469-.891Z" fill="#c9d1d9"/>
    </g>
  </g>
  <line x1="1354.68" y1="136.8" x2="1354.68" y2="208.8" fill="none" stroke="#959698" stroke-miterlimit="10" stroke-width="8.5"/>
  <g isolation="isolate">
    <g isolation="isolate">
      <path d="m1346.301,254.939h4.734v3.539h-4.734v7.922h-4.359v-7.922h-15.539v-2.555l15.281-23.648h4.617v22.664Zm-14.977,0h10.617v-16.734l-.516.938-10.102,15.797Z" fill="#c9d1d9"/>
      <path d="m1376.348,251.846c0,5.078-.867,8.852-2.602,11.32s-4.445,3.703-8.133,3.703c-3.641,0-6.336-1.207-8.086-3.621s-2.656-6.02-2.719-10.816v-5.789c0-5.016.867-8.742,2.602-11.18s4.453-3.656,8.156-3.656c3.672,0,6.375,1.176,8.109,3.527s2.625,5.98,2.672,10.887v5.625Zm-4.336-5.93c0-3.672-.516-6.348-1.547-8.027s-2.664-2.52-4.898-2.52c-2.219,0-3.836.836-4.852,2.508s-1.539,4.242-1.57,7.711v6.938c0,3.688.535,6.41,1.605,8.168s2.691,2.637,4.863,2.637c2.141,0,3.73-.828,4.77-2.484s1.582-4.266,1.629-7.828v-7.102Z" fill="#c9d1d9"/>
    </g>
  </g>
  <line x1="1613.34" y1="208.8" x2="1613.34" y2="136.8" fill="none" stroke="#959698" stroke-miterlimit="10" stroke-width="8.5"/>
  <line x1="1785.97" y1="208.8" x2="1785.97" y2="136.8" fill="none" stroke="#959698" stroke-miterlimit="10" stroke-width="8.5"/>
  <line x1="1872" y1="208.8" x2="1872" y2="136.8" fill="none" stroke="#959698" stroke-miterlimit="10" stroke-width="8.5"/>
  <g isolation="isolate">
    <g isolation="isolate">
      <path d="m1517.812,232.252v3.68h-.797c-3.375.062-6.062,1.062-8.062,3s-3.156,4.664-3.469,8.18c1.797-2.062,4.25-3.094,7.359-3.094,2.969,0,5.34,1.047,7.113,3.141s2.66,4.797,2.66,8.109c0,3.516-.957,6.328-2.871,8.438s-4.48,3.164-7.699,3.164c-3.266,0-5.914-1.254-7.945-3.762s-3.047-5.738-3.047-9.691v-1.664c0-6.281,1.34-11.082,4.02-14.402s6.668-5.02,11.965-5.098h.773Zm-5.695,15.375c-1.484,0-2.852.445-4.102,1.336s-2.117,2.008-2.602,3.352v1.594c0,2.812.633,5.078,1.898,6.797s2.844,2.578,4.734,2.578c1.953,0,3.488-.719,4.605-2.156s1.676-3.32,1.676-5.648c0-2.344-.566-4.238-1.699-5.684s-2.637-2.168-4.512-2.168Z" fill="#c9d1d9"/>
      <path d="m1549.147,251.846c0,5.078-.867,8.852-2.602,11.32s-4.445,3.703-8.133,3.703c-3.641,0-6.336-1.207-8.086-3.621s-2.656-6.02-2.719-10.816v-5.789c0-5.016.867-8.742,2.602-11.18s4.453-3.656,8.156-3.656c3.672,0,6.375,1.176,8.109,3.527s2.625,5.98,2.672,10.887v5.625Zm-4.336-5.93c0-3.672-.516-6.348-1.547-8.027s-2.664-2.52-4.898-2.52c-2.219,0-3.836.836-4.852,2.508s-1.539,4.242-1.57,7.711v6.938c0,3.688.535,6.41,1.605,8.168s2.691,2.637,4.863,2.637c2.141,0,3.73-.828,4.77-2.484s1.582-4.266,1.629-7.828v-7.102Z" fill="#c9d1d9"/>
    </g>
  </g>
  <g isolation="isolate">
    <g isolation="isolate">
      <path d="m1776.613,251.4c-.906,1.078-1.988,1.945-3.246,2.602s-2.637.984-4.137.984c-1.969,0-3.684-.484-5.145-1.453s-2.59-2.332-3.387-4.09-1.195-3.699-1.195-5.824c0-2.281.434-4.336,1.301-6.164s2.098-3.227,3.691-4.195,3.453-1.453,5.578-1.453c3.375,0,6.035,1.262,7.98,3.785s2.918,5.965,2.918,10.324v1.266c0,6.641-1.312,11.488-3.938,14.543s-6.586,4.621-11.883,4.699h-.844v-3.68h.914c3.578-.062,6.328-.994,8.25-2.795s2.969-4.65,3.141-8.549Zm-6.68,0c1.453,0,2.793-.445,4.02-1.336s2.121-1.992,2.684-3.305v-1.734c0-2.844-.617-5.156-1.852-6.938s-2.797-2.672-4.688-2.672c-1.906,0-3.438.73-4.594,2.191s-1.734,3.387-1.734,5.777c0,2.328.559,4.246,1.676,5.754s2.613,2.262,4.488,2.262Z" fill="#c9d1d9"/>
      <path d="m1808.348,251.846c0,5.078-.867,8.852-2.602,11.32s-4.445,3.703-8.133,3.703c-3.641,0-6.336-1.207-8.086-3.621s-2.656-6.02-2.719-10.816v-5.789c0-5.016.867-8.742,2.602-11.18s4.453-3.656,8.156-3.656c3.672,0,6.375,1.176,8.109,3.527s2.625,5.98,2.672,10.887v5.625Zm-4.336-5.93c0-3.672-.516-6.348-1.547-8.027s-2.664-2.52-4.898-2.52c-2.219,0-3.836.836-4.852,2.508s-1.539,4.242-1.57,7.711v6.938c0,3.688.535,6.41,1.605,8.168s2.691,2.637,4.863,2.637c2.141,0,3.73-.828,4.77-2.484s1.582-4.266,1.629-7.828v-7.102Z" fill="#c9d1d9"/>
    </g>
  </g>
  <g isolation="isolate">
    <g isolation="isolate">
      <path d="m1846.246,266.4h-4.359v-28.898l-8.742,3.211v-3.938l12.422-4.664h.68v34.289Z" fill="#c9d1d9"/>
      <path d="m1880.348,251.846c0,5.078-.867,8.852-2.602,11.32s-4.445,3.703-8.133,3.703c-3.641,0-6.336-1.207-8.086-3.621s-2.656-6.02-2.719-10.816v-5.789c0-5.016.867-8.742,2.602-11.18s4.453-3.656,8.156-3.656c3.672,0,6.375,1.176,8.109,3.527s2.625,5.98,2.672,10.887v5.625Zm-4.336-5.93c0-3.672-.516-6.348-1.547-8.027s-2.664-2.52-4.898-2.52c-2.219,0-3.836.836-4.852,2.508s-1.539,4.242-1.57,7.711v6.938c0,3.688.535,6.41,1.605,8.168s2.691,2.637,4.863,2.637c2.141,0,3.73-.828,4.77-2.484s1.582-4.266,1.629-7.828v-7.102Z" fill="#c9d1d9"/>
      <path d="m1907.301,251.846c0,5.078-.867,8.852-2.602,11.32s-4.445,3.703-8.133,3.703c-3.641,0-6.336-1.207-8.086-3.621s-2.656-6.02-2.719-10.816v-5.789c0-5.016.867-8.742,2.602-11.18s4.453-3.656,8.156-3.656c3.672,0,6.375,1.176,8.109,3.527s2.625,5.98,2.672,10.887v5.625Zm-4.336-5.93c0-3.672-.516-6.348-1.547-8.027s-2.664-2.52-4.898-2.52c-2.219,0-3.836.836-4.852,2.508s-1.539,4.242-1.57,7.711v6.938c0,3.688.535,6.41,1.605,8.168s2.691,2.637,4.863,2.637c2.141,0,3.73-.828,4.77-2.484s1.582-4.266,1.629-7.828v-7.102Z" fill="#c9d1d9"/>
    </g>
  </g>
  <g isolation="isolate">
    <g isolation="isolate">
      <path d="m177.988,249.291l1.734-17.016h17.484v4.008h-13.805l-1.031,9.305c1.672-.984,3.57-1.477,5.695-1.477,3.109,0,5.578,1.027,7.406,3.082s2.742,4.832,2.742,8.332-.949,6.285-2.848,8.309-4.551,3.035-7.957,3.035c-3.016,0-5.477-.836-7.383-2.508s-2.992-3.984-3.258-6.938h4.102c.266,1.953.961,3.426,2.086,4.418s2.609,1.488,4.453,1.488c2.016,0,3.598-.688,4.746-2.062s1.723-3.273,1.723-5.695c0-2.281-.621-4.113-1.863-5.496s-2.895-2.074-4.957-2.074c-1.891,0-3.375.414-4.453,1.242l-1.148.938-3.469-.891Z" fill="#c9d1d9"/>
    </g>
  </g>
  <g isolation="isolate">
    <g isolation="isolate">
      <path d="m24.594,251.846c0,5.078-.867,8.852-2.602,11.32s-4.445,3.703-8.133,3.703c-3.641,0-6.336-1.207-8.086-3.621s-2.656-6.02-2.719-10.816v-5.789c0-5.016.867-8.742,2.602-11.18s4.453-3.656,8.156-3.656c3.672,0,6.375,1.176,8.109,3.527s2.625,5.98,2.672,10.887v5.625Zm-4.336-5.93c0-3.672-.516-6.348-1.547-8.027s-2.664-2.52-4.898-2.52c-2.219,0-3.836.836-4.852,2.508s-1.539,4.242-1.57,7.711v6.938c0,3.688.535,6.41,1.605,8.168s2.691,2.637,4.863,2.637c2.141,0,3.73-.828,4.77-2.484s1.582-4.266,1.629-7.828v-7.102Z" fill="#c9d1d9"/>
    </g>
  </g>
  <line x1="437.04" y1="136.8" x2="437.04" y2="208.8" fill="none" stroke="#959698" stroke-miterlimit="10" stroke-width="8.5"/>
  <g isolation="isolate">
    <g isolation="isolate">
      <path d="m427.846,266.4h-4.359v-28.898l-8.742,3.211v-3.938l12.422-4.664h.68v34.289Z" fill="#c9d1d9"/>
      <path d="m462.908,266.4h-22.359v-3.117l11.812-13.125c1.75-1.984,2.957-3.598,3.621-4.84s.996-2.527.996-3.855c0-1.781-.539-3.242-1.617-4.383s-2.516-1.711-4.312-1.711c-2.156,0-3.832.613-5.027,1.84s-1.793,2.934-1.793,5.121h-4.336c0-3.141,1.012-5.68,3.035-7.617s4.73-2.906,8.121-2.906c3.172,0,5.68.832,7.523,2.496s2.766,3.879,2.766,6.645c0,3.359-2.141,7.359-6.422,12l-9.141,9.914h17.133v3.539Z" fill="#c9d1d9"/>
    </g>
  </g>
  <g isolation="isolate">
    <g isolation="isolate">
      <path d="m528.646,266.4h-4.359v-28.898l-8.742,3.211v-3.938l12.422-4.664h.68v34.289Z" fill="#c9d1d9"/>
      <path d="m543.341,249.291l1.734-17.016h17.484v4.008h-13.805l-1.031,9.305c1.672-.984,3.57-1.477,5.695-1.477,3.109,0,5.578,1.027,7.406,3.082s2.742,4.832,2.742,8.332-.949,6.285-2.848,8.309-4.551,3.035-7.957,3.035c-3.016,0-5.477-.836-7.383-2.508s-2.992-3.984-3.258-6.938h4.102c.266,1.953.961,3.426,2.086,4.418s2.609,1.488,4.453,1.488c2.016,0,3.598-.688,4.746-2.062s1.723-3.273,1.723-5.695c0-2.281-.621-4.113-1.863-5.496s-2.895-2.074-4.957-2.074c-1.891,0-3.375.414-4.453,1.242l-1.148.938-3.469-.891Z" fill="#c9d1d9"/>
    </g>
  </g>
  <g isolation="isolate">
    <g isolation="isolate">
      <path d="m1626.965,79.669c-3.438,0-6.234-1.129-8.391-3.387s-3.234-5.277-3.234-9.059v-.797c0-2.516.48-4.762,1.441-6.738s2.305-3.523,4.031-4.641,3.598-1.676,5.613-1.676c3.297,0,5.859,1.086,7.688,3.258s2.742,5.281,2.742,9.328v1.805h-17.18c.062,2.5.793,4.52,2.191,6.059s3.176,2.309,5.332,2.309c1.531,0,2.828-.312,3.891-.938s1.992-1.453,2.789-2.484l2.648,2.062c-2.125,3.266-5.312,4.898-9.562,4.898Zm-.539-22.734c-1.75,0-3.219.637-4.406,1.91s-1.922,3.059-2.203,5.355h12.703v-.328c-.125-2.203-.719-3.91-1.781-5.121s-2.5-1.816-4.312-1.816Z" fill="#c9d1d9"/>
      <path d="m1652.043,76.13c1.547,0,2.898-.469,4.055-1.406s1.797-2.109,1.922-3.516h4.102c-.078,1.453-.578,2.836-1.5,4.148s-2.152,2.359-3.691,3.141-3.168,1.172-4.887,1.172c-3.453,0-6.199-1.152-8.238-3.457s-3.059-5.457-3.059-9.457v-.727c0-2.469.453-4.664,1.359-6.586s2.207-3.414,3.902-4.477,3.699-1.594,6.012-1.594c2.844,0,5.207.852,7.09,2.555s2.887,3.914,3.012,6.633h-4.102c-.125-1.641-.746-2.988-1.863-4.043s-2.496-1.582-4.137-1.582c-2.203,0-3.91.793-5.121,2.379s-1.816,3.879-1.816,6.879v.82c0,2.922.602,5.172,1.805,6.75s2.922,2.367,5.156,2.367Z" fill="#c9d1d9"/>
      <path d="m1671.332,56.911c1.922-2.359,4.422-3.539,7.5-3.539,5.359,0,8.062,3.023,8.109,9.07v16.758h-4.336v-16.781c-.016-1.828-.434-3.18-1.254-4.055s-2.098-1.312-3.832-1.312c-1.406,0-2.641.375-3.703,1.125s-1.891,1.734-2.484,2.953v18.07h-4.336v-36h4.336v13.711Z" fill="#c9d1d9"/>
      <path d="m1692.285,66.286c0-2.484.488-4.719,1.465-6.703s2.336-3.516,4.078-4.594,3.73-1.617,5.965-1.617c3.453,0,6.246,1.195,8.379,3.586s3.199,5.57,3.199,9.539v.305c0,2.469-.473,4.684-1.418,6.645s-2.297,3.488-4.055,4.582-3.777,1.641-6.059,1.641c-3.438,0-6.223-1.195-8.355-3.586s-3.199-5.555-3.199-9.492v-.305Zm4.359.516c0,2.812.652,5.07,1.957,6.773s3.051,2.555,5.238,2.555c2.203,0,3.953-.863,5.25-2.59s1.945-4.145,1.945-7.254c0-2.781-.66-5.035-1.98-6.762s-3.074-2.59-5.262-2.59c-2.141,0-3.867.852-5.18,2.555s-1.969,4.141-1.969,7.312Z" fill="#c9d1d9"/>
    </g>
  </g>
  <line x1="14.76" y1="172.8" x2="1872" y2="172.8" fill="none" stroke="#959698" stroke-miterlimit="10" stroke-width="8.5"/>
  <line x1="1699.56" y1="208.8" x2="1699.56" y2="136.8" fill="none" stroke="#959698" stroke-miterlimit="10" stroke-width="8.5"/>
  <g isolation="isolate">
    <g isolation="isolate">
      <path d="m1616.428,234.713l-14.133,31.688h-4.547l14.086-30.562h-18.469v-3.562h23.062v2.438Z" fill="#c9d1d9"/>
      <path d="m1642.748,251.846c0,5.078-.867,8.852-2.602,11.32s-4.445,3.703-8.133,3.703c-3.641,0-6.336-1.207-8.086-3.621s-2.656-6.02-2.719-10.816v-5.789c0-5.016.867-8.742,2.602-11.18s4.453-3.656,8.156-3.656c3.672,0,6.375,1.176,8.109,3.527s2.625,5.98,2.672,10.887v5.625Zm-4.336-5.93c0-3.672-.516-6.348-1.547-8.027s-2.664-2.52-4.898-2.52c-2.219,0-3.836.836-4.852,2.508s-1.539,4.242-1.57,7.711v6.938c0,3.688.535,6.41,1.605,8.168s2.691,2.637,4.863,2.637c2.141,0,3.73-.828,4.77-2.484s1.582-4.266,1.629-7.828v-7.102Z" fill="#c9d1d9"/>
    </g>
  </g>
  <line x1="1440.9" y1="208.8" x2="1440.9" y2="136.8" fill="none" stroke="#959698" stroke-miterlimit="10" stroke-width="8.5"/>
  <g isolation="isolate">
    <g isolation="isolate">
      <path d="m1694.291,241.182c0,1.703-.449,3.219-1.348,4.547s-2.113,2.367-3.645,3.117c1.781.766,3.191,1.883,4.23,3.352s1.559,3.133,1.559,4.992c0,2.953-.996,5.305-2.988,7.055s-4.613,2.625-7.863,2.625c-3.281,0-5.91-.879-7.887-2.637s-2.965-4.105-2.965-7.043c0-1.844.504-3.508,1.512-4.992s2.402-2.609,4.184-3.375c-1.516-.75-2.711-1.789-3.586-3.117s-1.312-2.836-1.312-4.523c0-2.875.922-5.156,2.766-6.844s4.273-2.531,7.289-2.531c3,0,5.426.844,7.277,2.531s2.777,3.969,2.777,6.844Zm-3.539,15.914c0-1.906-.605-3.461-1.816-4.664s-2.793-1.805-4.746-1.805-3.52.594-4.699,1.781-1.77,2.75-1.77,4.688.574,3.461,1.723,4.57,2.746,1.664,4.793,1.664c2.031,0,3.625-.559,4.781-1.676s1.734-2.637,1.734-4.559Zm-6.516-21.727c-1.703,0-3.082.527-4.137,1.582s-1.582,2.488-1.582,4.301c0,1.734.52,3.137,1.559,4.207s2.426,1.605,4.16,1.605,3.121-.535,4.16-1.605,1.559-2.473,1.559-4.207-.539-3.148-1.617-4.242-2.445-1.641-4.102-1.641Z" fill="#c9d1d9"/>
      <path d="m1721.947,251.846c0,5.078-.867,8.852-2.602,11.32s-4.445,3.703-8.133,3.703c-3.641,0-6.336-1.207-8.086-3.621s-2.656-6.02-2.719-10.816v-5.789c0-5.016.867-8.742,2.602-11.18s4.453-3.656,8.156-3.656c3.672,0,6.375,1.176,8.109,3.527s2.625,5.98,2.672,10.887v5.625Zm-4.336-5.93c0-3.672-.516-6.348-1.547-8.027s-2.664-2.52-4.898-2.52c-2.219,0-3.836.836-4.852,2.508s-1.539,4.242-1.57,7.711v6.938c0,3.688.535,6.41,1.605,8.168s2.691,2.637,4.863,2.637c2.141,0,3.73-.828,4.77-2.484s1.582-4.266,1.629-7.828v-7.102Z" fill="#c9d1d9"/>
    </g>
  </g>
  <line x1="294.66" y1="136.8" x2="294.66" y2="208.8" fill="none" stroke="#959698" stroke-miterlimit="10" stroke-width="8.5"/>
  <line x1="365.04" y1="136.8" x2="365.04" y2="208.8" fill="none" stroke="#959698" stroke-miterlimit="10" stroke-width="8.5"/>
  <g isolation="isolate">
    <g isolation="isolate">
      <path d="m304.691,241.182c0,1.703-.449,3.219-1.348,4.547s-2.113,2.367-3.645,3.117c1.781.766,3.191,1.883,4.23,3.352s1.559,3.133,1.559,4.992c0,2.953-.996,5.305-2.988,7.055s-4.613,2.625-7.863,2.625c-3.281,0-5.91-.879-7.887-2.637s-2.965-4.105-2.965-7.043c0-1.844.504-3.508,1.512-4.992s2.402-2.609,4.184-3.375c-1.516-.75-2.711-1.789-3.586-3.117s-1.312-2.836-1.312-4.523c0-2.875.922-5.156,2.766-6.844s4.273-2.531,7.289-2.531c3,0,5.426.844,7.277,2.531s2.777,3.969,2.777,6.844Zm-3.539,15.914c0-1.906-.605-3.461-1.816-4.664s-2.793-1.805-4.746-1.805-3.52.594-4.699,1.781-1.77,2.75-1.77,4.688.574,3.461,1.723,4.57,2.746,1.664,4.793,1.664c2.031,0,3.625-.559,4.781-1.676s1.734-2.637,1.734-4.559Zm-6.516-21.727c-1.703,0-3.082.527-4.137,1.582s-1.582,2.488-1.582,4.301c0,1.734.52,3.137,1.559,4.207s2.426,1.605,4.16,1.605,3.121-.535,4.16-1.605,1.559-2.473,1.559-4.207-.539-3.148-1.617-4.242-2.445-1.641-4.102-1.641Z" fill="#c9d1d9"/>
    </g>
  </g>
  <rect x="14.4" y="295.2" width="1857.6" height="32.4" fill="#959698" isolation="isolate" opacity=".2"/>
  <g isolation="isolate">
    <g isolation="isolate">
      <path d="m917.149,298.641l.117,2.812c1.859-2.188,4.367-3.281,7.523-3.281,3.547,0,5.961,1.359,7.242,4.078.844-1.219,1.941-2.203,3.293-2.953s2.949-1.125,4.793-1.125c5.562,0,8.391,2.945,8.484,8.836v16.992h-4.336v-16.734c0-1.812-.414-3.168-1.242-4.066s-2.219-1.348-4.172-1.348c-1.609,0-2.945.48-4.008,1.441s-1.68,2.254-1.852,3.879v16.828h-4.359v-16.617c0-3.688-1.805-5.531-5.414-5.531-2.844,0-4.789,1.211-5.836,3.633v18.516h-4.336v-25.359h4.102Z" fill="#c9d1d9"/>
      <path d="m969.907,317.273c0-1.172-.441-2.082-1.324-2.73s-2.422-1.207-4.617-1.676-3.938-1.031-5.227-1.688-2.242-1.438-2.859-2.344-.926-1.984-.926-3.234c0-2.078.879-3.836,2.637-5.273s4.004-2.156,6.738-2.156c2.875,0,5.207.742,6.996,2.227s2.684,3.383,2.684,5.695h-4.359c0-1.188-.504-2.211-1.512-3.07s-2.277-1.289-3.809-1.289c-1.578,0-2.812.344-3.703,1.031s-1.336,1.586-1.336,2.695c0,1.047.414,1.836,1.242,2.367s2.324,1.039,4.488,1.523,3.918,1.062,5.262,1.734,2.34,1.48,2.988,2.426.973,2.098.973,3.457c0,2.266-.906,4.082-2.719,5.449s-4.164,2.051-7.055,2.051c-2.031,0-3.828-.359-5.391-1.078s-2.785-1.723-3.668-3.012-1.324-2.684-1.324-4.184h4.336c.078,1.453.66,2.605,1.746,3.457s2.52,1.277,4.301,1.277c1.641,0,2.957-.332,3.949-.996s1.488-1.551,1.488-2.66Z" fill="#c9d1d9"/>
    </g>
  </g>
</svg>