<?xml version="1.0" encoding="UTF-8"?>
<svg id="uuid-008ef008-f5de-44b9-b303-7a13761fe9d8" xmlns="http://www.w3.org/2000/svg" width="1895.4" height="1080" viewBox="0 0 1895.4 1080">
  <line x1="72" y1="954" x2="1693.89" y2="954" fill="none" stroke="#7f7f7f" stroke-linecap="round" stroke-linejoin="round" stroke-width="4.25"/>
  <polygon points="1687.69 975.2 1724.4 954 1687.69 932.8 1687.69 975.2" fill="#7f7f7f"/>
  <line x1="72" y1="954" x2="72" y2="48.51" fill="none" stroke="#7f7f7f" stroke-linecap="round" stroke-linejoin="round" stroke-width="4.25"/>
  <polygon points="93.2 54.71 72 18 50.8 54.71 93.2 54.71" fill="#7f7f7f"/>
  <line x1="216" y1="954" x2="216" y2="88.2" fill="none" stroke="#307eef" stroke-linecap="round" stroke-linejoin="round" stroke-width="5.67"/>
  <line x1="392.4" y1="954" x2="392.4" y2="194.46" fill="none" stroke="#d85648" stroke-linecap="round" stroke-linejoin="round" stroke-width="5.67"/>
  <line x1="439.2" y1="954" x2="439.2" y2="337.12" fill="none" stroke="#d85648" stroke-linecap="round" stroke-linejoin="round" stroke-width="5.67"/>
  <line x1="502.2" y1="954" x2="502.2" y2="448.2" fill="none" stroke="#d85648" stroke-linecap="round" stroke-linejoin="round" stroke-width="5.67"/>
  <line x1="660.6" y1="954" x2="660.6" y2="588.6" fill="none" stroke="#d85648" stroke-linecap="round" stroke-linejoin="round" stroke-width="5.67"/>
  <line x1="603" y1="954" x2="603" y2="516.56" fill="none" stroke="#d85648" stroke-linecap="round" stroke-linejoin="round" stroke-width="5.67"/>
  <line x1="558" y1="954" x2="558" y2="507.71" fill="none" stroke="#d85648" stroke-linecap="round" stroke-linejoin="round" stroke-width="5.67"/>
  <line x1="635.4" y1="954" x2="635.4" y2="561.33" fill="none" stroke="#d85648" stroke-linecap="round" stroke-linejoin="round" stroke-width="5.67"/>
  <line x1="781.2" y1="954" x2="781.2" y2="683.8" fill="none" stroke="#1da37d" stroke-linecap="round" stroke-linejoin="round" stroke-width="5.67"/>
  <line x1="810" y1="954" x2="810" y2="713.06" fill="none" stroke="#1da37d" stroke-linecap="round" stroke-linejoin="round" stroke-width="5.67"/>
  <line x1="871.2" y1="954" x2="871.2" y2="757.39" fill="none" stroke="#1da37d" stroke-linecap="round" stroke-linejoin="round" stroke-width="5.67"/>
  <line x1="831.6" y1="954" x2="831.6" y2="718.2" fill="none" stroke="#1da37d" stroke-linecap="round" stroke-linejoin="round" stroke-width="5.67"/>
  <line x1="871.2" y1="954" x2="871.2" y2="743.16" fill="none" stroke="#1da37d" stroke-linecap="round" stroke-linejoin="round" stroke-width="5.67"/>
  <line x1="968.4" y1="954" x2="968.4" y2="813.98" fill="none" stroke="#1da37d" stroke-linecap="round" stroke-linejoin="round" stroke-width="5.67"/>
  <line x1="687.6" y1="954" x2="687.6" y2="597.74" fill="none" stroke="#1da37d" stroke-linecap="round" stroke-linejoin="round" stroke-width="5.67"/>
  <line x1="716.4" y1="954" x2="716.4" y2="639.67" fill="none" stroke="#1da37d" stroke-linecap="round" stroke-linejoin="round" stroke-width="5.67"/>
  <line x1="754.2" y1="954" x2="754.2" y2="670.5" fill="none" stroke="#1da37d" stroke-linecap="round" stroke-linejoin="round" stroke-width="5.67"/>
  <line x1="745.2" y1="954" x2="745.2" y2="658.07" fill="none" stroke="#1da37d" stroke-linecap="round" stroke-linejoin="round" stroke-width="5.67"/>
  <line x1="775.8" y1="954" x2="775.8" y2="678.6" fill="none" stroke="#1da37d" stroke-linecap="round" stroke-linejoin="round" stroke-width="5.67"/>
  <line x1="810" y1="953.17" x2="810" y2="712.24" fill="none" stroke="#1da37d" stroke-linecap="round" stroke-linejoin="round" stroke-width="5.67"/>
  <line x1="795.6" y1="954" x2="795.6" y2="719.12" fill="none" stroke="#1da37d" stroke-linecap="round" stroke-linejoin="round" stroke-width="5.67"/>
  <line x1="900" y1="953.23" x2="900" y2="775.36" fill="none" stroke="#1da37d" stroke-linecap="round" stroke-linejoin="round" stroke-width="5.67"/>
  <line x1="864" y1="954" x2="864" y2="741.06" fill="none" stroke="#1da37d" stroke-linecap="round" stroke-linejoin="round" stroke-width="5.67"/>
  <line x1="903.6" y1="954" x2="903.6" y2="783" fill="none" stroke="#1da37d" stroke-linecap="round" stroke-linejoin="round" stroke-width="5.67"/>
  <line x1="882" y1="954" x2="882" y2="767.24" fill="none" stroke="#1da37d" stroke-linecap="round" stroke-linejoin="round" stroke-width="5.67"/>
  <line x1="977.4" y1="954" x2="977.4" y2="824.61" fill="none" stroke="#1da37d" stroke-linecap="round" stroke-linejoin="round" stroke-width="5.67"/>
  <line x1="999" y1="954" x2="999" y2="819.53" fill="none" stroke="#1da37d" stroke-linecap="round" stroke-linejoin="round" stroke-width="5.67"/>
  <line x1="936" y1="954" x2="936" y2="796.93" fill="none" stroke="#1da37d" stroke-linecap="round" stroke-linejoin="round" stroke-width="5.67"/>
  <line x1="925.2" y1="954" x2="925.2" y2="784.78" fill="none" stroke="#1da37d" stroke-linecap="round" stroke-linejoin="round" stroke-width="5.67"/>
  <line x1="968.4" y1="953.29" x2="968.4" y2="810.51" fill="none" stroke="#1da37d" stroke-linecap="round" stroke-linejoin="round" stroke-width="5.67"/>
  <line x1="846" y1="954" x2="846" y2="725.37" fill="none" stroke="#1da37d" stroke-linecap="round" stroke-linejoin="round" stroke-width="5.67"/>
  <line x1="892.2" y1="954" x2="892.2" y2="766.7" fill="none" stroke="#1da37d" stroke-linecap="round" stroke-linejoin="round" stroke-width="5.67"/>
  <line x1="953.4" y1="954" x2="953.4" y2="806.57" fill="none" stroke="#1da37d" stroke-linecap="round" stroke-linejoin="round" stroke-width="5.67"/>
  <line x1="916.2" y1="954" x2="916.2" y2="783.41" fill="none" stroke="#1da37d" stroke-linecap="round" stroke-linejoin="round" stroke-width="5.67"/>
  <line x1="1030.8" y1="954" x2="1030.8" y2="841.7" fill="none" stroke="#1da37d" stroke-linecap="round" stroke-linejoin="round" stroke-width="5.67"/>
  <line x1="1050.6" y1="954" x2="1050.6" y2="844.82" fill="none" stroke="#1da37d" stroke-linecap="round" stroke-linejoin="round" stroke-width="5.67"/>
  <line x1="819" y1="954" x2="819" y2="726.13" fill="none" stroke="#1da37d" stroke-linecap="round" stroke-linejoin="round" stroke-width="5.67"/>
  <line x1="858" y1="954" x2="858" y2="742.78" fill="none" stroke="#1da37d" stroke-linecap="round" stroke-linejoin="round" stroke-width="5.67"/>
  <line x1="982.2" y1="953.31" x2="982.2" y2="816.86" fill="none" stroke="#1da37d" stroke-linecap="round" stroke-linejoin="round" stroke-width="5.67"/>
  <line x1="1016.4" y1="954" x2="1016.4" y2="836.8" fill="none" stroke="#1da37d" stroke-linecap="round" stroke-linejoin="round" stroke-width="5.67"/>
  <line x1="942.6" y1="954" x2="942.6" y2="795.6" fill="none" stroke="#1da37d" stroke-linecap="round" stroke-linejoin="round" stroke-width="5.67"/>
  <line x1="990" y1="954" x2="990" y2="819.62" fill="none" stroke="#1da37d" stroke-linecap="round" stroke-linejoin="round" stroke-width="5.67"/>
  <line x1="964.2" y1="954" x2="964.2" y2="811.92" fill="none" stroke="#1da37d" stroke-linecap="round" stroke-linejoin="round" stroke-width="5.67"/>
  <line x1="1079.4" y1="954" x2="1079.4" y2="867.22" fill="none" stroke="#1da37d" stroke-linecap="round" stroke-linejoin="round" stroke-width="5.67"/>
  <line x1="1021.8" y1="954" x2="1021.8" y2="835" fill="none" stroke="#1da37d" stroke-linecap="round" stroke-linejoin="round" stroke-width="5.67"/>
  <line x1="1038.6" y1="954" x2="1038.6" y2="839.49" fill="none" stroke="#1da37d" stroke-linecap="round" stroke-linejoin="round" stroke-width="5.67"/>
  <line x1="1009.8" y1="954" x2="1009.8" y2="828" fill="none" stroke="#1da37d" stroke-linecap="round" stroke-linejoin="round" stroke-width="5.67"/>
  <line x1="1070.4" y1="954" x2="1070.4" y2="859.61" fill="none" stroke="#1da37d" stroke-linecap="round" stroke-linejoin="round" stroke-width="5.67"/>
  <line x1="1452.6" y1="954" x2="1452.6" y2="948.72" fill="none" stroke="#1da37d" stroke-linecap="round" stroke-linejoin="round" stroke-width="5.67"/>
  <line x1="1362.38" y1="954" x2="1362.38" y2="943.61" fill="none" stroke="#1da37d" stroke-linecap="round" stroke-linejoin="round" stroke-width="5.67"/>
  <line x1="1328.4" y1="954" x2="1328.4" y2="936.31" fill="none" stroke="#1da37d" stroke-linecap="round" stroke-linejoin="round" stroke-width="5.67"/>
  <line x1="1402.2" y1="954" x2="1402.2" y2="945.64" fill="none" stroke="#1da37d" stroke-linecap="round" stroke-linejoin="round" stroke-width="5.67"/>
  <line x1="1362.38" y1="954" x2="1362.38" y2="943.73" fill="none" stroke="#1da37d" stroke-linecap="round" stroke-linejoin="round" stroke-width="5.67"/>
  <line x1="1380.6" y1="954" x2="1380.6" y2="945.81" fill="none" stroke="#1da37d" stroke-linecap="round" stroke-linejoin="round" stroke-width="5.67"/>
  <line x1="1285.2" y1="954" x2="1285.2" y2="934.56" fill="none" stroke="#1da37d" stroke-linecap="round" stroke-linejoin="round" stroke-width="5.67"/>
  <line x1="1134" y1="954" x2="1134" y2="878.73" fill="none" stroke="#1da37d" stroke-linecap="round" stroke-linejoin="round" stroke-width="5.67"/>
  <line x1="1458" y1="954" x2="1458" y2="948.61" fill="none" stroke="#1da37d" stroke-linecap="round" stroke-linejoin="round" stroke-width="5.67"/>
  <line x1="1423.8" y1="953.97" x2="1423.8" y2="947.26" fill="none" stroke="#1da37d" stroke-linecap="round" stroke-linejoin="round" stroke-width="5.67"/>
  <line x1="1395" y1="954" x2="1395" y2="943.5" fill="none" stroke="#1da37d" stroke-linecap="round" stroke-linejoin="round" stroke-width="5.67"/>
  <line x1="1333.8" y1="953.9" x2="1333.8" y2="938.99" fill="none" stroke="#1da37d" stroke-linecap="round" stroke-linejoin="round" stroke-width="5.67"/>
  <line x1="1303.2" y1="954" x2="1303.2" y2="932.41" fill="none" stroke="#1da37d" stroke-linecap="round" stroke-linejoin="round" stroke-width="5.67"/>
  <line x1="1369.8" y1="954" x2="1369.8" y2="943.61" fill="none" stroke="#1da37d" stroke-linecap="round" stroke-linejoin="round" stroke-width="5.67"/>
  <line x1="1333.8" y1="954" x2="1333.8" y2="939.24" fill="none" stroke="#1da37d" stroke-linecap="round" stroke-linejoin="round" stroke-width="5.67"/>
  <line x1="1352.1" y1="954" x2="1352.1" y2="939.6" fill="none" stroke="#1da37d" stroke-linecap="round" stroke-linejoin="round" stroke-width="5.67"/>
  <line x1="1267.2" y1="954" x2="1267.2" y2="923.93" fill="none" stroke="#1da37d" stroke-linecap="round" stroke-linejoin="round" stroke-width="5.67"/>
  <line x1="1126.8" y1="954" x2="1126.8" y2="880.66" fill="none" stroke="#1da37d" stroke-linecap="round" stroke-linejoin="round" stroke-width="5.67"/>
  <line x1="1297.8" y1="954" x2="1297.8" y2="935.82" fill="none" stroke="#1da37d" stroke-linecap="round" stroke-linejoin="round" stroke-width="5.67"/>
  <line x1="1272.6" y1="954" x2="1272.6" y2="926.27" fill="none" stroke="#1da37d" stroke-linecap="round" stroke-linejoin="round" stroke-width="5.67"/>
  <line x1="1308.6" y1="954" x2="1308.6" y2="933.2" fill="none" stroke="#1da37d" stroke-linecap="round" stroke-linejoin="round" stroke-width="5.67"/>
  <line x1="1387.8" y1="954" x2="1387.8" y2="943.32" fill="none" stroke="#1da37d" stroke-linecap="round" stroke-linejoin="round" stroke-width="5.67"/>
  <line x1="1402.2" y1="954" x2="1402.2" y2="945.61" fill="none" stroke="#1da37d" stroke-linecap="round" stroke-linejoin="round" stroke-width="5.67"/>
  <line x1="1370.4" y1="954" x2="1370.4" y2="943.2" fill="none" stroke="#1da37d" stroke-linecap="round" stroke-linejoin="round" stroke-width="5.67"/>
  <line x1="1341.6" y1="954" x2="1341.6" y2="939.75" fill="none" stroke="#1da37d" stroke-linecap="round" stroke-linejoin="round" stroke-width="5.67"/>
  <line x1="1280.4" y1="954" x2="1280.4" y2="927.08" fill="none" stroke="#1da37d" stroke-linecap="round" stroke-linejoin="round" stroke-width="5.67"/>
  <line x1="1138.2" y1="954" x2="1138.2" y2="883.26" fill="none" stroke="#1da37d" stroke-linecap="round" stroke-linejoin="round" stroke-width="5.67"/>
  <line x1="1320" y1="954" x2="1320" y2="936.5" fill="none" stroke="#1da37d" stroke-linecap="round" stroke-linejoin="round" stroke-width="5.67"/>
  <line x1="1150.2" y1="953.77" x2="1150.2" y2="886.9" fill="none" stroke="#1da37d" stroke-linecap="round" stroke-linejoin="round" stroke-width="5.67"/>
  <line x1="1298.4" y1="954" x2="1298.4" y2="935.76" fill="none" stroke="#1da37d" stroke-linecap="round" stroke-linejoin="round" stroke-width="5.67"/>
  <line x1="1095" y1="954" x2="1095" y2="860.4" fill="none" stroke="#1da37d" stroke-linecap="round" stroke-linejoin="round" stroke-width="5.67"/>
  <line x1="1075.2" y1="954" x2="1075.2" y2="858.86" fill="none" stroke="#1da37d" stroke-linecap="round" stroke-linejoin="round" stroke-width="5.67"/>
  <line x1="1408.2" y1="954" x2="1408.2" y2="945.97" fill="none" stroke="#1da37d" stroke-linecap="round" stroke-linejoin="round" stroke-width="5.67"/>
  <line x1="1375.8" y1="954" x2="1375.8" y2="945.32" fill="none" stroke="#1da37d" stroke-linecap="round" stroke-linejoin="round" stroke-width="5.67"/>
  <line x1="1341.6" y1="953.88" x2="1341.6" y2="939.85" fill="none" stroke="#1da37d" stroke-linecap="round" stroke-linejoin="round" stroke-width="5.67"/>
  <line x1="1312.8" y1="954" x2="1312.8" y2="932.4" fill="none" stroke="#1da37d" stroke-linecap="round" stroke-linejoin="round" stroke-width="5.67"/>
  <line x1="1143.6" y1="954" x2="1143.6" y2="882.19" fill="none" stroke="#1da37d" stroke-linecap="round" stroke-linejoin="round" stroke-width="5.67"/>
  <line x1="1109.4" y1="954" x2="1109.4" y2="873.07" fill="none" stroke="#1da37d" stroke-linecap="round" stroke-linejoin="round" stroke-width="5.67"/>
  <line x1="1291.2" y1="954" x2="1291.2" y2="938.94" fill="none" stroke="#1da37d" stroke-linecap="round" stroke-linejoin="round" stroke-width="5.67"/>
  <line x1="1143.6" y1="954" x2="1143.6" y2="884.15" fill="none" stroke="#1da37d" stroke-linecap="round" stroke-linejoin="round" stroke-width="5.67"/>
  <line x1="1270.8" y1="954" x2="1270.8" y2="925.88" fill="none" stroke="#1da37d" stroke-linecap="round" stroke-linejoin="round" stroke-width="5.67"/>
  <line x1="1066.2" y1="954" x2="1066.2" y2="850.65" fill="none" stroke="#1da37d" stroke-linecap="round" stroke-linejoin="round" stroke-width="5.67"/>
  <line x1="1046.4" y1="954" x2="1046.4" y2="843.58" fill="none" stroke="#1da37d" stroke-linecap="round" stroke-linejoin="round" stroke-width="5.67"/>
  <line x1="1104" y1="954" x2="1104" y2="868.66" fill="none" stroke="#1da37d" stroke-linecap="round" stroke-linejoin="round" stroke-width="5.67"/>
  <line x1="1087.2" y1="954" x2="1087.2" y2="866.35" fill="none" stroke="#1da37d" stroke-linecap="round" stroke-linejoin="round" stroke-width="5.67"/>
  <line x1="1116" y1="954" x2="1116" y2="869.89" fill="none" stroke="#1da37d" stroke-linecap="round" stroke-linejoin="round" stroke-width="5.67"/>
  <line x1="1075.2" y1="953.43" x2="1075.2" y2="860" fill="none" stroke="#1da37d" stroke-linecap="round" stroke-linejoin="round" stroke-width="5.67"/>
  <line x1="1055.4" y1="954" x2="1055.4" y2="847.6" fill="none" stroke="#1da37d" stroke-linecap="round" stroke-linejoin="round" stroke-width="5.67"/>
  <line x1="1417.2" y1="954" x2="1417.2" y2="948.85" fill="none" stroke="#1da37d" stroke-linecap="round" stroke-linejoin="round" stroke-width="5.67"/>
  <line x1="1426.2" y1="954" x2="1426.2" y2="947.81" fill="none" stroke="#1da37d" stroke-linecap="round" stroke-linejoin="round" stroke-width="5.67"/>
  <line x1="1446" y1="954" x2="1446" y2="948.6" fill="none" stroke="#1da37d" stroke-linecap="round" stroke-linejoin="round" stroke-width="5.67"/>
  <line x1="1417.2" y1="953.93" x2="1417.2" y2="948.28" fill="none" stroke="#1da37d" stroke-linecap="round" stroke-linejoin="round" stroke-width="5.67"/>
  <line x1="1437" y1="954" x2="1437" y2="949.23" fill="none" stroke="#1da37d" stroke-linecap="round" stroke-linejoin="round" stroke-width="5.67"/>
  <line x1="1540.39" y1="954" x2="1540.39" y2="953.07" fill="none" stroke="#1da37d" stroke-linecap="round" stroke-linejoin="round" stroke-width="5.67"/>
  <line x1="1524" y1="954" x2="1524" y2="952.38" fill="none" stroke="#1da37d" stroke-linecap="round" stroke-linejoin="round" stroke-width="5.67"/>
  <line x1="1515" y1="954" x2="1515" y2="952.2" fill="none" stroke="#1da37d" stroke-linecap="round" stroke-linejoin="round" stroke-width="5.67"/>
  <line x1="1493.4" y1="954" x2="1493.4" y2="950.4" fill="none" stroke="#1da37d" stroke-linecap="round" stroke-linejoin="round" stroke-width="5.67"/>
  <line x1="1207.21" y1="954" x2="1207.21" y2="905.3" fill="none" stroke="#1da37d" stroke-linecap="round" stroke-linejoin="round" stroke-width="5.67"/>
  <line x1="1533.78" y1="954" x2="1533.78" y2="952.8" fill="none" stroke="#1da37d" stroke-linecap="round" stroke-linejoin="round" stroke-width="5.67"/>
  <line x1="1524" y1="953.99" x2="1524" y2="952.28" fill="none" stroke="#1da37d" stroke-linecap="round" stroke-linejoin="round" stroke-width="5.67"/>
  <line x1="1502.4" y1="954" x2="1502.4" y2="951.52" fill="none" stroke="#1da37d" stroke-linecap="round" stroke-linejoin="round" stroke-width="5.67"/>
  <line x1="1538.22" y1="954" x2="1538.22" y2="952.86" fill="none" stroke="#1da37d" stroke-linecap="round" stroke-linejoin="round" stroke-width="5.67"/>
  <line x1="1504.8" y1="954" x2="1504.8" y2="951.52" fill="none" stroke="#1da37d" stroke-linecap="round" stroke-linejoin="round" stroke-width="5.67"/>
  <line x1="1518.6" y1="954" x2="1518.6" y2="952.46" fill="none" stroke="#1da37d" stroke-linecap="round" stroke-linejoin="round" stroke-width="5.67"/>
  <line x1="1207.8" y1="954" x2="1207.8" y2="904.96" fill="none" stroke="#1da37d" stroke-linecap="round" stroke-linejoin="round" stroke-width="5.67"/>
  <line x1="1461.6" y1="954" x2="1461.6" y2="949.22" fill="none" stroke="#1da37d" stroke-linecap="round" stroke-linejoin="round" stroke-width="5.67"/>
  <line x1="1441.8" y1="954" x2="1441.8" y2="948.94" fill="none" stroke="#1da37d" stroke-linecap="round" stroke-linejoin="round" stroke-width="5.67"/>
  <line x1="1510.2" y1="953.99" x2="1510.2" y2="952.37" fill="none" stroke="#1da37d" stroke-linecap="round" stroke-linejoin="round" stroke-width="5.67"/>
  <line x1="1476" y1="954" x2="1476" y2="949.43" fill="none" stroke="#1da37d" stroke-linecap="round" stroke-linejoin="round" stroke-width="5.67"/>
  <line x1="1200.6" y1="954" x2="1200.6" y2="911.09" fill="none" stroke="#1da37d" stroke-linecap="round" stroke-linejoin="round" stroke-width="5.67"/>
  <line x1="1510.2" y1="954" x2="1510.2" y2="952.37" fill="none" stroke="#1da37d" stroke-linecap="round" stroke-linejoin="round" stroke-width="5.67"/>
  <line x1="1530.22" y1="954" x2="1530.22" y2="952.81" fill="none" stroke="#1da37d" stroke-linecap="round" stroke-linejoin="round" stroke-width="5.67"/>
  <line x1="1432.8" y1="954" x2="1432.8" y2="948.52" fill="none" stroke="#1da37d" stroke-linecap="round" stroke-linejoin="round" stroke-width="5.67"/>
  <line x1="1413" y1="954" x2="1413" y2="945.84" fill="none" stroke="#1da37d" stroke-linecap="round" stroke-linejoin="round" stroke-width="5.67"/>
  <line x1="1470.6" y1="954" x2="1470.6" y2="948.91" fill="none" stroke="#1da37d" stroke-linecap="round" stroke-linejoin="round" stroke-width="5.67"/>
  <line x1="1453.8" y1="954" x2="1453.8" y2="948.91" fill="none" stroke="#1da37d" stroke-linecap="round" stroke-linejoin="round" stroke-width="5.67"/>
  <line x1="1482.6" y1="954" x2="1482.6" y2="949.52" fill="none" stroke="#1da37d" stroke-linecap="round" stroke-linejoin="round" stroke-width="5.67"/>
  <line x1="1441.8" y1="953.98" x2="1441.8" y2="948.75" fill="none" stroke="#1da37d" stroke-linecap="round" stroke-linejoin="round" stroke-width="5.67"/>
  <line x1="1306.8" y1="954" x2="1306.8" y2="939.25" fill="none" stroke="#1da37d" stroke-linecap="round" stroke-linejoin="round" stroke-width="5.67"/>
  <line x1="1278" y1="954" x2="1278" y2="932.24" fill="none" stroke="#1da37d" stroke-linecap="round" stroke-linejoin="round" stroke-width="5.67"/>
  <line x1="1216.8" y1="954" x2="1216.8" y2="916.29" fill="none" stroke="#1da37d" stroke-linecap="round" stroke-linejoin="round" stroke-width="5.67"/>
  <line x1="1256.4" y1="954" x2="1256.4" y2="928.93" fill="none" stroke="#1da37d" stroke-linecap="round" stroke-linejoin="round" stroke-width="5.67"/>
  <line x1="1245.6" y1="954" x2="1245.6" y2="924.11" fill="none" stroke="#1da37d" stroke-linecap="round" stroke-linejoin="round" stroke-width="5.67"/>
  <line x1="1234.8" y1="954" x2="1234.8" y2="931.55" fill="none" stroke="#1da37d" stroke-linecap="round" stroke-linejoin="round" stroke-width="5.67"/>
  <line x1="1312.2" y1="954" x2="1312.2" y2="938.23" fill="none" stroke="#1da37d" stroke-linecap="round" stroke-linejoin="round" stroke-width="5.67"/>
  <line x1="1278" y1="953.86" x2="1278" y2="933.62" fill="none" stroke="#1da37d" stroke-linecap="round" stroke-linejoin="round" stroke-width="5.67"/>
  <line x1="1249.2" y1="954" x2="1249.2" y2="924.44" fill="none" stroke="#1da37d" stroke-linecap="round" stroke-linejoin="round" stroke-width="5.67"/>
  <line x1="1224" y1="954" x2="1224" y2="917.03" fill="none" stroke="#1da37d" stroke-linecap="round" stroke-linejoin="round" stroke-width="5.67"/>
  <line x1="1242" y1="954" x2="1242" y2="927.73" fill="none" stroke="#1da37d" stroke-linecap="round" stroke-linejoin="round" stroke-width="5.67"/>
  <line x1="1252.8" y1="954" x2="1252.8" y2="924.75" fill="none" stroke="#1da37d" stroke-linecap="round" stroke-linejoin="round" stroke-width="5.67"/>
  <line x1="1224.6" y1="954" x2="1224.6" y2="915.78" fill="none" stroke="#1da37d" stroke-linecap="round" stroke-linejoin="round" stroke-width="5.67"/>
  <line x1="1262.4" y1="954" x2="1262.4" y2="931.21" fill="none" stroke="#1da37d" stroke-linecap="round" stroke-linejoin="round" stroke-width="5.67"/>
  <line x1="1230" y1="954" x2="1230" y2="910.8" fill="none" stroke="#1da37d" stroke-linecap="round" stroke-linejoin="round" stroke-width="5.67"/>
  <line x1="1271.41" y1="954" x2="1271.41" y2="931.04" fill="none" stroke="#1da37d" stroke-linecap="round" stroke-linejoin="round" stroke-width="5.67"/>
  <line x1="1280.41" y1="954" x2="1280.41" y2="933.62" fill="none" stroke="#1da37d" stroke-linecap="round" stroke-linejoin="round" stroke-width="5.67"/>
  <line x1="1300.21" y1="954" x2="1300.21" y2="936.39" fill="none" stroke="#1da37d" stroke-linecap="round" stroke-linejoin="round" stroke-width="5.67"/>
  <line x1="1271.41" y1="953.62" x2="1271.41" y2="931.24" fill="none" stroke="#1da37d" stroke-linecap="round" stroke-linejoin="round" stroke-width="5.67"/>
  <line x1="1291.21" y1="954" x2="1291.21" y2="934.47" fill="none" stroke="#1da37d" stroke-linecap="round" stroke-linejoin="round" stroke-width="5.67"/>
  <line x1="1398.01" y1="954" x2="1398.01" y2="945.64" fill="none" stroke="#1da37d" stroke-linecap="round" stroke-linejoin="round" stroke-width="5.67"/>
  <line x1="1378.21" y1="954" x2="1378.21" y2="944.99" fill="none" stroke="#1da37d" stroke-linecap="round" stroke-linejoin="round" stroke-width="5.67"/>
  <line x1="1369.21" y1="954" x2="1369.21" y2="944.85" fill="none" stroke="#1da37d" stroke-linecap="round" stroke-linejoin="round" stroke-width="5.67"/>
  <line x1="1347.61" y1="954" x2="1347.61" y2="939.23" fill="none" stroke="#1da37d" stroke-linecap="round" stroke-linejoin="round" stroke-width="5.67"/>
  <line x1="1410.61" y1="954" x2="1410.61" y2="946.5" fill="none" stroke="#1da37d" stroke-linecap="round" stroke-linejoin="round" stroke-width="5.67"/>
  <line x1="1387.21" y1="954" x2="1387.21" y2="944.08" fill="none" stroke="#1da37d" stroke-linecap="round" stroke-linejoin="round" stroke-width="5.67"/>
  <line x1="1378.21" y1="953.95" x2="1378.21" y2="945.61" fill="none" stroke="#1da37d" stroke-linecap="round" stroke-linejoin="round" stroke-width="5.67"/>
  <line x1="1356.68" y1="954" x2="1356.68" y2="943.72" fill="none" stroke="#1da37d" stroke-linecap="round" stroke-linejoin="round" stroke-width="5.67"/>
  <line x1="1393.2" y1="954" x2="1393.2" y2="945.44" fill="none" stroke="#1da37d" stroke-linecap="round" stroke-linejoin="round" stroke-width="5.67"/>
  <line x1="1358.96" y1="954" x2="1358.96" y2="943.72" fill="none" stroke="#1da37d" stroke-linecap="round" stroke-linejoin="round" stroke-width="5.67"/>
  <line x1="1372.81" y1="954" x2="1372.81" y2="943.95" fill="none" stroke="#1da37d" stroke-linecap="round" stroke-linejoin="round" stroke-width="5.67"/>
  <line x1="1411.2" y1="954" x2="1411.2" y2="945.41" fill="none" stroke="#1da37d" stroke-linecap="round" stroke-linejoin="round" stroke-width="5.67"/>
  <line x1="1315.8" y1="954" x2="1315.8" y2="939.03" fill="none" stroke="#1da37d" stroke-linecap="round" stroke-linejoin="round" stroke-width="5.67"/>
  <line x1="1296" y1="954" x2="1296" y2="936.39" fill="none" stroke="#1da37d" stroke-linecap="round" stroke-linejoin="round" stroke-width="5.67"/>
  <line x1="1364.1" y1="953.95" x2="1364.1" y2="943.9" fill="none" stroke="#1da37d" stroke-linecap="round" stroke-linejoin="round" stroke-width="5.67"/>
  <line x1="1330.2" y1="954" x2="1330.2" y2="937.7" fill="none" stroke="#1da37d" stroke-linecap="round" stroke-linejoin="round" stroke-width="5.67"/>
  <line x1="1404" y1="954" x2="1404" y2="946.5" fill="none" stroke="#1da37d" stroke-linecap="round" stroke-linejoin="round" stroke-width="5.67"/>
  <line x1="1364.1" y1="954" x2="1364.1" y2="943.9" fill="none" stroke="#1da37d" stroke-linecap="round" stroke-linejoin="round" stroke-width="5.67"/>
  <line x1="1382.4" y1="954" x2="1382.4" y2="945.68" fill="none" stroke="#1da37d" stroke-linecap="round" stroke-linejoin="round" stroke-width="5.67"/>
  <line x1="1287" y1="954" x2="1287" y2="934.64" fill="none" stroke="#1da37d" stroke-linecap="round" stroke-linejoin="round" stroke-width="5.67"/>
  <line x1="1267.2" y1="954" x2="1267.2" y2="927.08" fill="none" stroke="#1da37d" stroke-linecap="round" stroke-linejoin="round" stroke-width="5.67"/>
  <line x1="1324.8" y1="954" x2="1324.8" y2="939.25" fill="none" stroke="#1da37d" stroke-linecap="round" stroke-linejoin="round" stroke-width="5.67"/>
  <line x1="1308.01" y1="954" x2="1308.01" y2="935.26" fill="none" stroke="#1da37d" stroke-linecap="round" stroke-linejoin="round" stroke-width="5.67"/>
  <line x1="1336.81" y1="954" x2="1336.81" y2="939.49" fill="none" stroke="#1da37d" stroke-linecap="round" stroke-linejoin="round" stroke-width="5.67"/>
  <line x1="1296" y1="953.74" x2="1296" y2="938.79" fill="none" stroke="#1da37d" stroke-linecap="round" stroke-linejoin="round" stroke-width="5.67"/>
  <line x1="1137.54" y1="953.88" x2="1137.54" y2="881.3" fill="none" stroke="#1da37d" stroke-linecap="round" stroke-linejoin="round" stroke-width="5.67"/>
  <line x1="1171.8" y1="953.88" x2="1171.8" y2="885.58" fill="none" stroke="#1da37d" stroke-linecap="round" stroke-linejoin="round" stroke-width="5.67"/>
  <line x1="1189.14" y1="953.9" x2="1189.14" y2="896.56" fill="none" stroke="#1da37d" stroke-linecap="round" stroke-linejoin="round" stroke-width="5.67"/>
  <line x1="1154.94" y1="953.87" x2="1154.94" y2="883.35" fill="none" stroke="#1da37d" stroke-linecap="round" stroke-linejoin="round" stroke-width="5.67"/>
  <line x1="1217.94" y1="953.92" x2="1217.94" y2="909.5" fill="none" stroke="#1da37d" stroke-linecap="round" stroke-linejoin="round" stroke-width="5.67"/>
  <line x1="1160.34" y1="953.88" x2="1160.34" y2="887.55" fill="none" stroke="#1da37d" stroke-linecap="round" stroke-linejoin="round" stroke-width="5.67"/>
  <line x1="1177.14" y1="953.9" x2="1177.14" y2="895.27" fill="none" stroke="#1da37d" stroke-linecap="round" stroke-linejoin="round" stroke-width="5.67"/>
  <line x1="1148.34" y1="953.88" x2="1148.34" y2="881.06" fill="none" stroke="#1da37d" stroke-linecap="round" stroke-linejoin="round" stroke-width="5.67"/>
  <line x1="1208.94" y1="953.92" x2="1208.94" y2="907.38" fill="none" stroke="#1da37d" stroke-linecap="round" stroke-linejoin="round" stroke-width="5.67"/>
  <line x1="1213.74" y1="953.93" x2="1213.74" y2="909.17" fill="none" stroke="#1da37d" stroke-linecap="round" stroke-linejoin="round" stroke-width="5.67"/>
  <line x1="1204.74" y1="953.92" x2="1204.74" y2="910.32" fill="none" stroke="#1da37d" stroke-linecap="round" stroke-linejoin="round" stroke-width="5.67"/>
  <line x1="1184.94" y1="953.9" x2="1184.94" y2="899.47" fill="none" stroke="#1da37d" stroke-linecap="round" stroke-linejoin="round" stroke-width="5.67"/>
  <line x1="1213.74" y1="953.66" x2="1213.74" y2="909.71" fill="none" stroke="#1da37d" stroke-linecap="round" stroke-linejoin="round" stroke-width="5.67"/>
  <line x1="1193.94" y1="953.9" x2="1193.94" y2="898.2" fill="none" stroke="#1da37d" stroke-linecap="round" stroke-linejoin="round" stroke-width="5.67"/>
  <line x1="1212.6" y1="954" x2="1212.6" y2="909.57" fill="none" stroke="#1da37d" stroke-linecap="round" stroke-linejoin="round" stroke-width="5.67"/>
  <line x1="1203.6" y1="954" x2="1203.6" y2="909.37" fill="none" stroke="#1da37d" stroke-linecap="round" stroke-linejoin="round" stroke-width="5.67"/>
  <line x1="1260" y1="954" x2="1260" y2="926.54" fill="none" stroke="#1da37d" stroke-linecap="round" stroke-linejoin="round" stroke-width="5.67"/>
  <line x1="1228.2" y1="954" x2="1228.2" y2="915.78" fill="none" stroke="#1da37d" stroke-linecap="round" stroke-linejoin="round" stroke-width="5.67"/>
  <line x1="1208.4" y1="954" x2="1208.4" y2="906.82" fill="none" stroke="#1da37d" stroke-linecap="round" stroke-linejoin="round" stroke-width="5.67"/>
  <line x1="1242.6" y1="954" x2="1242.6" y2="922.43" fill="none" stroke="#1da37d" stroke-linecap="round" stroke-linejoin="round" stroke-width="5.67"/>
  <line x1="1199.4" y1="954" x2="1199.4" y2="904.66" fill="none" stroke="#1da37d" stroke-linecap="round" stroke-linejoin="round" stroke-width="5.67"/>
  <line x1="1237.2" y1="954" x2="1237.2" y2="918.29" fill="none" stroke="#1da37d" stroke-linecap="round" stroke-linejoin="round" stroke-width="5.67"/>
  <line x1="1220.4" y1="954" x2="1220.4" y2="907.95" fill="none" stroke="#1da37d" stroke-linecap="round" stroke-linejoin="round" stroke-width="5.67"/>
  <line x1="1249.2" y1="954" x2="1249.2" y2="916.2" fill="none" stroke="#1da37d" stroke-linecap="round" stroke-linejoin="round" stroke-width="5.67"/>
  <line x1="1208.4" y1="953.72" x2="1208.4" y2="907.38" fill="none" stroke="#1da37d" stroke-linecap="round" stroke-linejoin="round" stroke-width="5.67"/>
  <line x1="253.67" y1="981" x2="354.73" y2="981" fill="none" stroke="#c9d1d9" stroke-miterlimit="10" stroke-width="4.25"/>
  <polygon points="262.09 993.35 216 981.01 262.09 968.65 262.09 993.35" fill="#c9d1d9"/>
  <polygon points="346.31 993.35 392.4 981.01 346.31 968.65 346.31 993.35" fill="#c9d1d9"/>
  <line x1="1164.6" y1="952.2" x2="1164.6" y2="892.9" fill="none" stroke="#1da37d" stroke-linecap="round" stroke-linejoin="round" stroke-width="5.67"/>
  <line x1="1119.6" y1="954" x2="1119.6" y2="883.26" fill="none" stroke="#1da37d" stroke-linecap="round" stroke-linejoin="round" stroke-width="5.67"/>
  <line x1="1486.8" y1="954" x2="1486.8" y2="951.17" fill="none" stroke="#1da37d" stroke-linecap="round" stroke-linejoin="round" stroke-width="5.67"/>
  <line x1="1467" y1="954" x2="1467" y2="949.65" fill="none" stroke="#1da37d" stroke-linecap="round" stroke-linejoin="round" stroke-width="5.67"/>
  <line x1="1497.6" y1="954" x2="1497.6" y2="952.09" fill="none" stroke="#1da37d" stroke-linecap="round" stroke-linejoin="round" stroke-width="5.67"/>
  <line x1="1490.4" y1="954" x2="1490.4" y2="951.3" fill="none" stroke="#1da37d" stroke-linecap="round" stroke-linejoin="round" stroke-width="5.67"/>
  <line x1="1099.8" y1="954" x2="1099.8" y2="881.18" fill="none" stroke="#1da37d" stroke-linecap="round" stroke-linejoin="round" stroke-width="5.67"/>
  <line x1="1180.8" y1="954" x2="1180.8" y2="898.2" fill="none" stroke="#1da37d" stroke-linecap="round" stroke-linejoin="round" stroke-width="5.67"/>
  <line x1="1420.2" y1="954" x2="1420.2" y2="945" fill="none" stroke="#1da37d" stroke-linecap="round" stroke-linejoin="round" stroke-width="5.67"/>
  <line x1="1427.4" y1="954" x2="1427.4" y2="947.25" fill="none" stroke="#1da37d" stroke-linecap="round" stroke-linejoin="round" stroke-width="5.67"/>
  <line x1="1443.6" y1="954" x2="1443.6" y2="948.6" fill="none" stroke="#1da37d" stroke-linecap="round" stroke-linejoin="round" stroke-width="5.67"/>
  <line x1="1434.6" y1="954" x2="1434.6" y2="949.2" fill="none" stroke="#1da37d" stroke-linecap="round" stroke-linejoin="round" stroke-width="5.67"/>
  <line x1="1439.39" y1="954" x2="1439.39" y2="948.93" fill="none" stroke="#1da37d" stroke-linecap="round" stroke-linejoin="round" stroke-width="5.67"/>
  <line x1="1430.39" y1="954" x2="1430.39" y2="948.52" fill="none" stroke="#1da37d" stroke-linecap="round" stroke-linejoin="round" stroke-width="5.67"/>
  <line x1="1439.39" y1="953.98" x2="1439.4" y2="948.75" fill="none" stroke="#1da37d" stroke-linecap="round" stroke-linejoin="round" stroke-width="5.67"/>
  <line x1="1449" y1="953.99" x2="1449" y2="948.71" fill="none" stroke="#1da37d" stroke-linecap="round" stroke-linejoin="round" stroke-width="5.67"/>
  <line x1="1454.4" y1="953.99" x2="1454.4" y2="948.6" fill="none" stroke="#1da37d" stroke-linecap="round" stroke-linejoin="round" stroke-width="5.67"/>
  <line x1="1458" y1="953.99" x2="1458" y2="949.21" fill="none" stroke="#1da37d" stroke-linecap="round" stroke-linejoin="round" stroke-width="5.67"/>
  <line x1="1450.2" y1="953.99" x2="1450.2" y2="948.89" fill="none" stroke="#1da37d" stroke-linecap="round" stroke-linejoin="round" stroke-width="5.67"/>
  <line x1="216" y1="968.4" x2="216" y2="993.6" fill="none" stroke="#c9d1d9" stroke-linecap="round" stroke-linejoin="round" stroke-width="4.25"/>
  <line x1="392.4" y1="968.4" x2="392.4" y2="993.6" fill="none" stroke="#c9d1d9" stroke-linecap="round" stroke-linejoin="round" stroke-width="4.25"/>
  <g>
    <path d="m422.296,236.176v-50.625h33.363v5.203h-27.035v15.891h23.66v5.203h-23.66v19.125h27.527v5.203h-33.855Z" fill="#d85648"/>
    <path d="m473.062,237.02c-2.531,0-4.729-.487-6.592-1.459s-3.3-2.303-4.307-3.99c-1.008-1.688-1.512-3.598-1.512-5.73,0-2.273.668-4.371,2.004-6.293,1.336-1.921,3.404-3.463,6.205-4.623,2.8-1.16,6.393-1.74,10.775-1.74h6.328l-.633.633v-2.074c0-3.046-.61-5.384-1.828-7.014-1.219-1.629-3.258-2.443-6.117-2.443-2.695,0-4.77.698-6.223,2.092-1.454,1.395-2.228,3.264-2.32,5.607l-6.645-1.512c.211-2.039.989-3.896,2.338-5.572,1.348-1.675,3.151-3.018,5.414-4.025,2.262-1.007,4.881-1.512,7.857-1.512,3.07,0,5.572.58,7.506,1.74s3.357,2.83,4.271,5.01,1.371,4.805,1.371,7.875v17.332c0,.773.11,1.289.334,1.547.223.258.697.387,1.424.387h2.145v4.922h-3.762c-1.595,0-2.931-.498-4.008-1.494-1.078-.996-1.617-2.255-1.617-3.779v-2.672h.879c-.375.984-.914,1.986-1.617,3.006s-1.595,1.969-2.672,2.848c-1.078.879-2.361,1.588-3.85,2.127-1.489.539-3.205.809-5.15.809Zm1.336-4.922c1.945,0,3.749-.48,5.414-1.441,1.664-.961,3.006-2.466,4.025-4.518,1.02-2.051,1.529-4.716,1.529-7.998v-.316h-5.941c-3.117,0-5.572.41-7.365,1.23-1.793.821-3.064,1.834-3.814,3.041-.751,1.208-1.125,2.408-1.125,3.604s.269,2.273.809,3.234c.539.961,1.348,1.729,2.426,2.303,1.077.575,2.426.861,4.043.861Z" fill="#d85648"/>
    <path d="m503.015,236.176v-37.969h5.555v8.051l-.211-.914c1.125-2.625,2.817-4.611,5.079-5.959,2.262-1.348,4.553-2.021,6.873-2.021.68,0,1.342.059,1.986.176.645.118,1.248.316,1.811.598l-.773,5.555c-1.289-.398-2.566-.598-3.832-.598-.797,0-1.787.158-2.971.475s-2.355.949-3.516,1.898-2.133,2.361-2.917,4.236c-.786,1.875-1.178,4.372-1.178,7.488v18.984h-5.906Z" fill="#d85648"/>
    <path d="m535.85,236.176c-1.5,0-2.812-.498-3.938-1.494-1.125-.996-1.688-2.255-1.688-3.779v-47.461h5.906v45.879c0,.773.111,1.289.334,1.547.223.258.697.387,1.424.387h3.691v4.922h-5.73Z" fill="#d85648"/>
    <path d="m549.385,249.887v-4.922h5.766c.422,0,.75-.135.984-.404.234-.27.457-.698.668-1.283l2.742-7.84-.598,2.707-15.258-39.938h6.609l12.094,34.98-1.301-.316,12.059-34.664h6.539l-18.105,47.426c-.492,1.289-1.324,2.32-2.496,3.094s-2.391,1.16-3.656,1.16h-6.047Z" fill="#d85648"/>
    <path d="m605.424,236.176v-37.969h5.555v8.051l-.211-.914c1.125-2.625,2.818-4.611,5.08-5.959,2.262-1.348,4.553-2.021,6.873-2.021.68,0,1.342.059,1.986.176.645.118,1.248.316,1.811.598l-.773,5.555c-1.289-.398-2.566-.598-3.832-.598-.797,0-1.787.158-2.971.475s-2.355.949-3.516,1.898-2.133,2.361-2.918,4.236c-.785,1.875-1.178,4.372-1.178,7.488v18.984h-5.906Z" fill="#d85648"/>
    <path d="m647.611,237.02c-3.609,0-6.732-.809-9.369-2.426s-4.67-3.908-6.1-6.873c-1.43-2.965-2.145-6.463-2.145-10.494,0-4.055.715-7.57,2.145-10.547,1.43-2.976,3.445-5.273,6.047-6.891s5.66-2.426,9.176-2.426c2.016,0,4.037.322,6.064.967,2.027.645,3.879,1.758,5.555,3.34s3.023,3.75,4.043,6.504c1.02,2.754,1.529,6.229,1.529,10.424h-30.762v-4.781h25.629l-1.688,2.215c-.117-3.328-.656-6-1.617-8.016-.961-2.016-2.209-3.475-3.744-4.377-1.535-.902-3.24-1.354-5.115-1.354-2.227,0-4.148.58-5.766,1.74s-2.859,2.854-3.727,5.08c-.867,2.227-1.301,4.945-1.301,8.156,0,4.734.967,8.391,2.9,10.969,1.934,2.579,4.682,3.867,8.244,3.867,2.555,0,4.705-.645,6.451-1.934,1.746-1.289,3.029-3.152,3.85-5.59l5.801,1.969c-.914,2.203-2.133,4.084-3.656,5.643-1.523,1.559-3.334,2.754-5.432,3.586s-4.436,1.248-7.014,1.248Z" fill="#d85648"/>
    <path d="m668.881,203.129v-4.922h20.074v4.922h-20.074Zm5.66,33.047v-44.859c0-2.835.668-4.857,2.004-6.064,1.336-1.207,3.574-1.811,6.715-1.811h4.746v4.922h-5.59c-.703,0-1.207.153-1.512.457-.305.305-.457.809-.457,1.512v45.844h-5.906Zm27.246,0c-1.5,0-2.812-.498-3.938-1.494-1.125-.996-1.688-2.255-1.688-3.779v-47.461h5.906v45.879c0,.773.111,1.289.334,1.547.223.258.697.387,1.424.387h3.691v4.922h-5.73Z" fill="#d85648"/>
    <path d="m730.264,237.02c-3.609,0-6.732-.809-9.369-2.426s-4.67-3.908-6.1-6.873c-1.43-2.965-2.145-6.463-2.145-10.494,0-4.055.715-7.57,2.145-10.547,1.43-2.976,3.445-5.273,6.047-6.891s5.66-2.426,9.176-2.426c2.016,0,4.037.322,6.064.967,2.027.645,3.879,1.758,5.555,3.34s3.023,3.75,4.043,6.504c1.02,2.754,1.529,6.229,1.529,10.424h-30.762v-4.781h25.629l-1.688,2.215c-.117-3.328-.656-6-1.617-8.016-.961-2.016-2.209-3.475-3.744-4.377-1.535-.902-3.24-1.354-5.115-1.354-2.227,0-4.148.58-5.766,1.74s-2.859,2.854-3.727,5.08c-.867,2.227-1.301,4.945-1.301,8.156,0,4.734.967,8.391,2.9,10.969,1.934,2.579,4.682,3.867,8.244,3.867,2.555,0,4.705-.645,6.451-1.934,1.746-1.289,3.029-3.152,3.85-5.59l5.801,1.969c-.914,2.203-2.133,4.084-3.656,5.643-1.523,1.559-3.334,2.754-5.432,3.586s-4.436,1.248-7.014,1.248Z" fill="#d85648"/>
    <path d="m772.346,237.02c-3.562,0-6.645-.809-9.246-2.426s-4.605-3.908-6.012-6.873c-1.406-2.965-2.109-6.474-2.109-10.529s.703-7.564,2.109-10.529c1.406-2.965,3.41-5.256,6.012-6.873s5.684-2.426,9.246-2.426c2.719,0,5.15.498,7.295,1.494,2.145.997,3.961,2.426,5.449,4.289s2.584,4.108,3.287,6.732l-6.012,1.582c-.656-2.953-1.834-5.221-3.533-6.803s-3.861-2.373-6.486-2.373c-3.492,0-6.182,1.295-8.068,3.885-1.887,2.59-2.83,6.264-2.83,11.021s.943,8.461,2.83,11.039c1.887,2.579,4.576,3.867,8.068,3.867,2.602,0,4.746-.768,6.434-2.303,1.688-1.535,2.871-3.756,3.551-6.662l5.977,1.688c-.562,1.922-1.336,3.633-2.32,5.133-.984,1.5-2.15,2.777-3.498,3.832s-2.871,1.858-4.57,2.408-3.557.826-5.572.826Z" fill="#d85648"/>
    <path d="m804.338,236.176c-1.5,0-2.812-.498-3.938-1.494-1.125-.996-1.688-2.255-1.688-3.779v-27.773h-6.117v-4.922h6.117v-7.945l5.906-1.266v9.211h7.523v4.922h-7.523v26.191c0,.773.111,1.289.334,1.547.223.258.697.387,1.424.387h5.801v4.922h-7.84Z" fill="#d85648"/>
    <path d="m823.674,191.844c-1.359,0-2.52-.48-3.48-1.441-.961-.961-1.441-2.121-1.441-3.48,0-1.383.48-2.549,1.441-3.498s2.121-1.424,3.48-1.424c1.383,0,2.549.475,3.498,1.424s1.424,2.115,1.424,3.498c0,1.359-.475,2.52-1.424,3.48-.949.961-2.115,1.441-3.498,1.441Zm-2.953,44.332v-37.969h5.906v37.969h-5.906Z" fill="#d85648"/>
    <path d="m853.521,237.02c-3.562,0-6.703-.838-9.422-2.514s-4.84-4.002-6.363-6.979c-1.523-2.976-2.285-6.421-2.285-10.336s.762-7.359,2.285-10.336c1.523-2.976,3.645-5.303,6.363-6.979,2.719-1.675,5.859-2.514,9.422-2.514s6.703.838,9.422,2.514c2.719,1.676,4.84,4.002,6.363,6.979,1.523,2.977,2.285,6.422,2.285,10.336s-.762,7.36-2.285,10.336c-1.523,2.977-3.645,5.303-6.363,6.979s-5.859,2.514-9.422,2.514Zm0-4.922c3.586,0,6.416-1.336,8.49-4.008s3.111-6.305,3.111-10.898c0-4.617-1.037-8.256-3.111-10.916-2.074-2.66-4.904-3.99-8.49-3.99s-6.416,1.331-8.49,3.99c-2.074,2.66-3.111,6.299-3.111,10.916,0,4.594,1.037,8.227,3.111,10.898s4.904,4.008,8.49,4.008Z" fill="#d85648"/>
    <path d="m880.416,236.176v-37.969h5.555v8.578l-.246-1.547c1.008-2.18,2.602-4.037,4.781-5.572,2.18-1.535,4.828-2.303,7.945-2.303,2.695,0,5.016.598,6.961,1.793s3.445,2.9,4.5,5.115,1.582,4.881,1.582,7.998v23.906h-5.906v-23.449c0-3.117-.639-5.637-1.916-7.559-1.277-1.921-3.381-2.883-6.311-2.883-3.164,0-5.795,1.201-7.893,3.604-2.098,2.403-3.146,5.877-3.146,10.424v19.863h-5.906Z" fill="#d85648"/>
    <path d="m935.154,237.02c-2.742,0-5.232-.452-7.471-1.354s-4.096-2.273-5.572-4.113c-1.477-1.84-2.461-4.178-2.953-7.014l6.188-1.195c.258,2.977,1.271,5.191,3.041,6.645,1.77,1.454,3.99,2.18,6.662,2.18,2.648,0,4.758-.668,6.328-2.004s2.355-2.965,2.355-4.887c0-1.64-.557-2.941-1.67-3.902-1.113-.961-2.725-1.64-4.834-2.039l-4.605-.879c-1.242-.234-2.531-.562-3.867-.984s-2.584-1.007-3.744-1.758c-1.16-.75-2.098-1.734-2.812-2.953-.715-1.218-1.072-2.754-1.072-4.605,0-2.484.65-4.518,1.951-6.1s3.023-2.76,5.168-3.533,4.459-1.16,6.943-1.16c2.719,0,5.086.422,7.102,1.266s3.656,2.051,4.922,3.621c1.266,1.57,2.109,3.469,2.531,5.695l-6.504,1.301c-.164-1.429-.545-2.672-1.143-3.727s-1.465-1.869-2.602-2.443c-1.137-.574-2.607-.861-4.412-.861-2.18,0-4.055.457-5.625,1.371s-2.355,2.297-2.355,4.148c0,1.032.264,1.911.791,2.637.527.727,1.324,1.331,2.391,1.811,1.066.48,2.408.896,4.025,1.248l4.676.984c1.969.399,3.785.99,5.449,1.775,1.664.786,3,1.869,4.008,3.252,1.008,1.383,1.512,3.211,1.512,5.484,0,2.508-.627,4.67-1.881,6.486-1.254,1.816-2.988,3.205-5.203,4.166s-4.787,1.441-7.717,1.441Z" fill="#d85648"/>
  </g>
  <g>
    <path d="m152.729,78.108V27.483h15.293c5.953,0,10.833,1.008,14.643,3.023,3.809,2.016,6.627,4.893,8.455,8.631,1.828,3.739,2.742,8.174,2.742,13.307,0,5.813-1.078,10.617-3.234,14.414-2.157,3.797-5.203,6.622-9.141,8.473-3.938,1.852-8.578,2.777-13.922,2.777h-14.836Zm6.328-5.203h7.875c13.382,0,20.074-6.703,20.074-20.109,0-4.101-.663-7.658-1.986-10.67-1.324-3.011-3.422-5.338-6.293-6.979-2.871-1.64-6.65-2.461-11.338-2.461h-8.332v40.219Z" fill="#307eef"/>
    <path d="m205.851,33.776c-1.359,0-2.52-.48-3.48-1.441-.961-.961-1.441-2.121-1.441-3.48,0-1.383.48-2.549,1.441-3.498.961-.949,2.121-1.424,3.48-1.424,1.383,0,2.549.475,3.498,1.424s1.424,2.115,1.424,3.498c0,1.359-.475,2.52-1.424,3.48-.949.961-2.115,1.441-3.498,1.441Zm-2.953,44.332v-37.969h5.906v37.969h-5.906Z" fill="#307eef"/>
    <path d="m220.3,78.108v-37.969h5.555v8.051l-.211-.914c1.125-2.625,2.818-4.611,5.08-5.959,2.262-1.348,4.553-2.021,6.873-2.021.68,0,1.341.059,1.986.176.645.118,1.248.316,1.81.598l-.773,5.555c-1.289-.398-2.566-.598-3.832-.598-.797,0-1.788.158-2.971.475-1.184.316-2.355.949-3.516,1.898s-2.133,2.361-2.918,4.236c-.786,1.875-1.178,4.372-1.178,7.488v18.984h-5.906Z" fill="#307eef"/>
    <path d="m262.487,78.952c-3.609,0-6.732-.809-9.369-2.426s-4.67-3.908-6.1-6.873c-1.43-2.965-2.145-6.463-2.145-10.494,0-4.055.715-7.57,2.145-10.547,1.43-2.976,3.445-5.273,6.047-6.891s5.66-2.426,9.176-2.426c2.016,0,4.037.322,6.064.967,2.027.645,3.879,1.758,5.555,3.34s3.023,3.75,4.043,6.504c1.02,2.754,1.529,6.229,1.529,10.424h-30.762v-4.781h25.629l-1.688,2.215c-.117-3.328-.656-6-1.617-8.016-.961-2.016-2.209-3.475-3.744-4.377-1.535-.902-3.24-1.354-5.115-1.354-2.227,0-4.148.58-5.766,1.74s-2.859,2.854-3.727,5.08c-.867,2.227-1.301,4.945-1.301,8.156,0,4.734.967,8.391,2.9,10.969,1.934,2.579,4.682,3.867,8.244,3.867,2.555,0,4.705-.645,6.451-1.934,1.746-1.289,3.029-3.152,3.85-5.59l5.801,1.969c-.914,2.203-2.133,4.084-3.656,5.643-1.523,1.559-3.334,2.754-5.432,3.586s-4.436,1.248-7.014,1.248Z" fill="#307eef"/>
    <path d="m304.569,78.952c-3.562,0-6.645-.809-9.246-2.426s-4.605-3.908-6.012-6.873c-1.406-2.965-2.109-6.474-2.109-10.529s.703-7.564,2.109-10.529c1.406-2.965,3.41-5.256,6.012-6.873s5.684-2.426,9.246-2.426c2.719,0,5.15.498,7.295,1.494,2.145.997,3.961,2.426,5.449,4.289s2.584,4.108,3.287,6.732l-6.012,1.582c-.656-2.953-1.834-5.221-3.533-6.803s-3.861-2.373-6.486-2.373c-3.492,0-6.182,1.295-8.068,3.885-1.887,2.59-2.83,6.264-2.83,11.021s.943,8.461,2.83,11.039c1.887,2.579,4.576,3.867,8.068,3.867,2.602,0,4.746-.768,6.434-2.303,1.688-1.535,2.871-3.756,3.551-6.662l5.977,1.688c-.562,1.922-1.336,3.633-2.32,5.133-.984,1.5-2.15,2.777-3.498,3.832s-2.871,1.858-4.57,2.408-3.557.826-5.572.826Z" fill="#307eef"/>
    <path d="m336.561,78.108c-1.5,0-2.812-.498-3.938-1.494-1.125-.996-1.688-2.255-1.688-3.779v-27.773h-6.117v-4.922h6.117v-7.945l5.906-1.266v9.211h7.523v4.922h-7.523v26.191c0,.773.111,1.289.334,1.547.223.258.697.387,1.424.387h5.801v4.922h-7.84Z" fill="#307eef"/>
    <path d="m384.163,78.952c-2.742,0-5.232-.452-7.471-1.354s-4.096-2.273-5.572-4.113c-1.477-1.84-2.461-4.178-2.953-7.014l6.188-1.195c.258,2.977,1.271,5.191,3.041,6.645,1.77,1.454,3.99,2.18,6.662,2.18,2.648,0,4.758-.668,6.328-2.004s2.355-2.965,2.355-4.887c0-1.64-.557-2.941-1.67-3.902-1.113-.961-2.725-1.64-4.834-2.039l-4.605-.879c-1.242-.234-2.531-.562-3.867-.984s-2.584-1.007-3.744-1.758c-1.16-.75-2.098-1.734-2.812-2.953-.715-1.218-1.072-2.754-1.072-4.605,0-2.484.65-4.518,1.951-6.1s3.023-2.76,5.168-3.533,4.459-1.16,6.943-1.16c2.719,0,5.086.422,7.102,1.266s3.656,2.051,4.922,3.621c1.266,1.57,2.109,3.469,2.531,5.695l-6.504,1.301c-.164-1.429-.545-2.672-1.143-3.727s-1.465-1.869-2.602-2.443c-1.137-.574-2.607-.861-4.412-.861-2.18,0-4.055.457-5.625,1.371s-2.355,2.297-2.355,4.148c0,1.032.264,1.911.791,2.637.527.727,1.324,1.331,2.391,1.811,1.066.48,2.408.896,4.025,1.248l4.676.984c1.969.399,3.785.99,5.449,1.775,1.664.786,3,1.869,4.008,3.252,1.008,1.383,1.512,3.211,1.512,5.484,0,2.508-.627,4.67-1.881,6.486-1.254,1.816-2.988,3.205-5.203,4.166s-4.787,1.441-7.717,1.441Z" fill="#307eef"/>
    <path d="m424.381,78.952c-3.562,0-6.703-.838-9.422-2.514s-4.84-4.002-6.363-6.979c-1.523-2.976-2.285-6.421-2.285-10.336s.762-7.359,2.285-10.336c1.523-2.976,3.645-5.303,6.363-6.979,2.719-1.675,5.859-2.514,9.422-2.514s6.703.838,9.422,2.514c2.719,1.676,4.84,4.002,6.363,6.979,1.523,2.977,2.285,6.422,2.285,10.336s-.762,7.36-2.285,10.336c-1.523,2.977-3.645,5.303-6.363,6.979s-5.859,2.514-9.422,2.514Zm0-4.922c3.586,0,6.416-1.336,8.49-4.008s3.111-6.305,3.111-10.898c0-4.617-1.037-8.256-3.111-10.916-2.074-2.66-4.904-3.99-8.49-3.99s-6.416,1.331-8.49,3.99c-2.074,2.66-3.111,6.299-3.111,10.916,0,4.594,1.037,8.227,3.111,10.898s4.904,4.008,8.49,4.008Z" fill="#307eef"/>
    <path d="m463.862,78.952c-2.648,0-4.945-.598-6.891-1.793s-3.445-2.906-4.5-5.133c-1.055-2.227-1.582-4.887-1.582-7.98v-23.906h5.906v23.449c0,3.094.586,5.607,1.758,7.541s3.281,2.9,6.328,2.9c2.273,0,4.242-.585,5.906-1.758,1.664-1.172,2.959-2.93,3.885-5.273.926-2.343,1.389-5.273,1.389-8.789v-18.07h5.906v37.969h-5.555v-8.93l.246,1.547c-.984,2.344-2.572,4.301-4.764,5.871s-4.869,2.355-8.033,2.355Z" fill="#307eef"/>
    <path d="m493.428,78.108v-37.969h5.555v8.578l-.246-1.547c1.008-2.18,2.602-4.037,4.781-5.572,2.18-1.535,4.828-2.303,7.945-2.303,2.695,0,5.016.598,6.961,1.793s3.445,2.9,4.5,5.115,1.582,4.881,1.582,7.998v23.906h-5.906v-23.449c0-3.117-.639-5.637-1.916-7.559-1.277-1.921-3.381-2.883-6.311-2.883-3.164,0-5.795,1.201-7.893,3.604-2.098,2.403-3.146,5.877-3.146,10.424v19.863h-5.906Z" fill="#307eef"/>
    <path d="m548.834,78.952c-3.07,0-5.783-.809-8.139-2.426s-4.189-3.914-5.502-6.891c-1.312-2.976-1.969-6.492-1.969-10.547s.662-7.564,1.986-10.529c1.324-2.965,3.158-5.25,5.502-6.855,2.344-1.605,5.051-2.408,8.121-2.408,2.484,0,4.945.621,7.383,1.863,2.438,1.243,4.277,3.34,5.52,6.293l-.668.281v-22.359h5.906v52.734h-5.555v-7.91l.176.562c-1.031,2.766-2.742,4.822-5.133,6.17s-4.934,2.021-7.629,2.021Zm1.547-4.922c1.992,0,3.809-.515,5.449-1.547,1.641-1.031,2.953-2.642,3.938-4.834.984-2.191,1.477-4.998,1.477-8.42,0-5.109-1.055-8.889-3.164-11.338-2.109-2.449-4.652-3.674-7.629-3.674-3.141,0-5.719,1.295-7.734,3.885-2.016,2.59-3.023,6.299-3.023,11.127,0,4.688.973,8.327,2.918,10.916,1.945,2.59,4.535,3.885,7.77,3.885Z" fill="#307eef"/>
  </g>
  <g>
    <path d="m55.633,671.693l-50.625-21.375v-6.328l50.625-21.305v6.75l-44.016,17.719,44.016,17.789v6.75Zm-16.594-10.969h-5.203v-27.07h5.203v27.07Z" fill="#c9d1d9"/>
    <path d="m55.633,616.252H17.664v-5.555h6.504c-1.969-.891-3.686-2.367-5.15-4.43-1.464-2.062-2.197-4.512-2.197-7.348,0-2.508.686-4.693,2.057-6.557s3.311-3.252,5.818-4.166c-2.32-1.195-4.213-2.83-5.678-4.904-1.464-2.074-2.197-4.494-2.197-7.26,0-3.633,1.318-6.51,3.955-8.631s6.288-3.182,10.951-3.182h23.906v5.906h-23.449c-2.156,0-4.013.223-5.572.668-1.559.445-2.76,1.178-3.604,2.197s-1.266,2.408-1.266,4.166c0,1.922.545,3.65,1.635,5.186s2.678,2.742,4.764,3.621c2.086.879,4.629,1.318,7.629,1.318h19.863v5.906h-23.449c-2.156,0-4.013.223-5.572.668-1.559.445-2.76,1.172-3.604,2.18s-1.266,2.379-1.266,4.113c0,1.922.54,3.656,1.617,5.203,1.078,1.547,2.66,2.766,4.746,3.656,2.086.891,4.641,1.336,7.664,1.336h19.863v5.906Z" fill="#c9d1d9"/>
    <path d="m69.344,553.428H17.664v-5.555h7.91l-.562.176c-2.765-1.031-4.822-2.742-6.17-5.133-1.348-2.391-2.021-4.934-2.021-7.629,0-3.094.809-5.812,2.426-8.156s3.915-4.172,6.891-5.484c2.977-1.312,6.492-1.969,10.547-1.969s7.564.662,10.529,1.986c2.965,1.324,5.25,3.158,6.855,5.502s2.408,5.051,2.408,8.121c0,2.484-.621,4.945-1.863,7.383s-3.34,4.277-6.293,5.52l-.281-.527h21.305v5.766Zm-17.789-16.523c0-3.141-1.295-5.719-3.885-7.734-2.589-2.016-6.298-3.023-11.127-3.023-4.688,0-8.326.973-10.916,2.918-2.589,1.945-3.885,4.535-3.885,7.77,0,1.969.516,3.779,1.547,5.432,1.032,1.652,2.637,2.971,4.816,3.955s4.992,1.477,8.438,1.477c5.086,0,8.859-1.055,11.32-3.164s3.691-4.652,3.691-7.629Z" fill="#c9d1d9"/>
    <path d="m55.633,505.299c0,1.5-.498,2.812-1.494,3.938-.996,1.125-2.255,1.688-3.779,1.688H2.898v-5.906h45.879c.773,0,1.289-.111,1.547-.334.258-.223.387-.697.387-1.424v-3.691h4.922v5.73Z" fill="#c9d1d9"/>
    <path d="m11.301,488.775c0,1.359-.48,2.52-1.441,3.48-.961.961-2.121,1.441-3.48,1.441-1.383,0-2.549-.48-3.498-1.441s-1.424-2.121-1.424-3.48c0-1.383.475-2.549,1.424-3.498s2.115-1.424,3.498-1.424c1.359,0,2.52.475,3.48,1.424.961.949,1.441,2.115,1.441,3.498Zm44.332,2.953H17.664v-5.906h37.969v5.906Z" fill="#c9d1d9"/>
    <path d="m55.633,465.924c0,1.5-.498,2.812-1.494,3.938-.996,1.125-2.255,1.688-3.779,1.688h-27.773v6.117h-4.922v-6.117h-7.945l-1.266-5.906h9.211v-7.523h4.922v7.523h26.191c.773,0,1.289-.111,1.547-.334.258-.223.387-.697.387-1.424v-5.801h4.922v7.84Z" fill="#c9d1d9"/>
    <path d="m56.477,437.553c0,2.648-.598,4.945-1.793,6.891s-2.906,3.445-5.133,4.5c-2.227,1.055-4.887,1.582-7.98,1.582h-23.906v-5.906h23.449c3.094,0,5.607-.586,7.541-1.758s2.9-3.281,2.9-6.328c0-2.273-.585-4.242-1.758-5.906-1.172-1.664-2.93-2.959-5.273-3.885-2.343-.926-5.273-1.389-8.789-1.389h-18.07v-5.906h37.969v5.555h-8.93l1.547-.246c2.344.984,4.301,2.572,5.871,4.764s2.355,4.869,2.355,8.033Z" fill="#c9d1d9"/>
    <path d="m56.477,395.084c0,3.07-.809,5.783-2.426,8.139s-3.914,4.189-6.891,5.502c-2.976,1.312-6.492,1.969-10.547,1.969s-7.564-.662-10.529-1.986c-2.965-1.324-5.25-3.158-6.855-5.502-1.605-2.344-2.408-5.051-2.408-8.121,0-2.484.621-4.945,1.863-7.383,1.243-2.438,3.34-4.277,6.293-5.52l.281.668H2.898v-5.906h52.734v5.555h-7.91l.562-.176c2.766,1.031,4.822,2.742,6.17,5.133s2.021,4.934,2.021,7.629Zm-4.922-1.547c0-1.992-.515-3.809-1.547-5.449-1.031-1.641-2.642-2.953-4.834-3.938-2.191-.984-4.998-1.477-8.42-1.477-5.109,0-8.889,1.055-11.338,3.164-2.449,2.109-3.674,4.652-3.674,7.629,0,3.141,1.295,5.719,3.885,7.734,2.59,2.016,6.299,3.023,11.127,3.023,4.688,0,8.327-.973,10.916-2.918,2.59-1.945,3.885-4.535,3.885-7.77Z" fill="#c9d1d9"/>
    <path d="m56.477,350.26c0,3.609-.809,6.732-2.426,9.369s-3.908,4.67-6.873,6.1c-2.965,1.43-6.463,2.145-10.494,2.145-4.055,0-7.57-.715-10.547-2.145-2.976-1.43-5.273-3.445-6.891-6.047s-2.426-5.66-2.426-9.176c0-2.016.322-4.037.967-6.064.645-2.027,1.758-3.879,3.34-5.555s3.75-3.023,6.504-4.043c2.754-1.02,6.229-1.529,10.424-1.529v30.762h-4.781v-25.629l2.215,1.688c-3.328.117-6,.656-8.016,1.617-2.016.961-3.475,2.209-4.377,3.744-.902,1.535-1.354,3.24-1.354,5.115,0,2.227.58,4.148,1.74,5.766s2.854,2.859,5.08,3.727c2.227.867,4.945,1.301,8.156,1.301,4.734,0,8.391-.967,10.969-2.9,2.579-1.934,3.867-4.682,3.867-8.244,0-2.555-.645-4.705-1.934-6.451-1.289-1.746-3.152-3.029-5.59-3.85l1.969-5.801c2.203.914,4.084,2.133,5.643,3.656,1.559,1.523,2.754,3.334,3.586,5.432s1.248,4.436,1.248,7.014Z" fill="#c9d1d9"/>
  </g>
  <g>
    <path d="m163.61,1063.803v-50.625h18.246c5.883,0,10.301,1.207,13.254,3.621s4.43,5.906,4.43,10.477c0,4.477-1.471,7.945-4.412,10.406-2.941,2.461-7.4,3.691-13.377,3.691h-11.812v22.43h-6.328Zm6.328-27.633h11.918c3.656,0,6.439-.785,8.35-2.355,1.91-1.57,2.865-3.715,2.865-6.434,0-2.438-.856-4.547-2.566-6.328-1.711-1.781-4.594-2.672-8.648-2.672h-11.918v17.789Z" fill="#c9d1d9"/>
    <path d="m207.31,1063.803v-37.969h5.555v8.051l-.211-.914c1.125-2.625,2.818-4.611,5.08-5.959,2.262-1.348,4.553-2.021,6.873-2.021.68,0,1.341.059,1.986.176.645.117,1.248.316,1.811.598l-.773,5.555c-1.289-.398-2.566-.598-3.832-.598-.797,0-1.788.158-2.971.475-1.184.316-2.355.949-3.516,1.898s-2.133,2.361-2.918,4.236c-.786,1.875-1.178,4.371-1.178,7.488v18.984h-5.906Z" fill="#c9d1d9"/>
    <path d="m249.497,1064.646c-3.609,0-6.732-.809-9.369-2.426s-4.67-3.908-6.1-6.873c-1.43-2.965-2.145-6.463-2.145-10.494,0-4.055.715-7.57,2.145-10.547,1.429-2.977,3.445-5.273,6.047-6.891s5.66-2.426,9.176-2.426c2.016,0,4.037.322,6.064.967s3.879,1.758,5.555,3.34,3.023,3.75,4.043,6.504,1.529,6.229,1.529,10.424h-30.761v-4.781h25.628l-1.688,2.215c-.117-3.328-.656-6-1.617-8.016s-2.209-3.475-3.744-4.377-3.24-1.354-5.115-1.354c-2.227,0-4.148.58-5.766,1.74s-2.86,2.854-3.727,5.08c-.867,2.227-1.301,4.945-1.301,8.156,0,4.734.967,8.391,2.9,10.969s4.681,3.867,8.244,3.867c2.554,0,4.705-.645,6.451-1.934s3.029-3.152,3.85-5.59l5.801,1.969c-.914,2.203-2.133,4.084-3.656,5.643s-3.334,2.754-5.432,3.586-4.435,1.248-7.013,1.248Z" fill="#c9d1d9"/>
    <path d="m289.821,1064.646c-3.07,0-5.783-.809-8.139-2.426s-4.189-3.914-5.502-6.891-1.969-6.492-1.969-10.547.662-7.564,1.986-10.529,3.158-5.25,5.502-6.855,5.051-2.408,8.121-2.408c2.484,0,4.945.621,7.383,1.863s4.277,3.34,5.52,6.293l-.668.281v-22.359h5.906v52.734h-5.555v-7.91l.176.562c-1.031,2.766-2.742,4.822-5.133,6.17s-4.934,2.021-7.629,2.021Zm1.547-4.922c1.992,0,3.809-.516,5.449-1.547s2.953-2.643,3.938-4.834,1.477-4.998,1.477-8.42c0-5.109-1.055-8.889-3.164-11.338s-4.652-3.674-7.629-3.674c-3.141,0-5.719,1.295-7.734,3.885s-3.023,6.299-3.023,11.127c0,4.688.973,8.326,2.918,10.916s4.535,3.885,7.77,3.885Z" fill="#c9d1d9"/>
    <path d="m334.645,1064.646c-3.609,0-6.732-.809-9.369-2.426s-4.67-3.908-6.1-6.873-2.145-6.463-2.145-10.494c0-4.055.715-7.57,2.145-10.547s3.445-5.273,6.047-6.891,5.66-2.426,9.176-2.426c2.016,0,4.037.322,6.064.967s3.879,1.758,5.555,3.34,3.023,3.75,4.043,6.504,1.529,6.229,1.529,10.424h-30.762v-4.781h25.629l-1.688,2.215c-.117-3.328-.656-6-1.617-8.016s-2.209-3.475-3.744-4.377-3.24-1.354-5.115-1.354c-2.227,0-4.148.58-5.766,1.74s-2.859,2.854-3.727,5.08-1.301,4.945-1.301,8.156c0,4.734.967,8.391,2.9,10.969s4.682,3.867,8.244,3.867c2.555,0,4.705-.645,6.451-1.934s3.029-3.152,3.85-5.59l5.801,1.969c-.914,2.203-2.133,4.084-3.656,5.643s-3.334,2.754-5.432,3.586-4.436,1.248-7.014,1.248Z" fill="#c9d1d9"/>
    <path d="m366.075,1063.803c-1.5,0-2.812-.498-3.938-1.494s-1.688-2.256-1.688-3.779v-47.461h5.906v45.879c0,.773.111,1.289.334,1.547s.697.387,1.424.387h3.691v4.922h-5.73Z" fill="#c9d1d9"/>
    <path d="m389.102,1064.646c-2.531,0-4.729-.486-6.592-1.459s-3.299-2.303-4.307-3.99-1.512-3.598-1.512-5.73c0-2.273.668-4.371,2.004-6.293s3.404-3.463,6.205-4.623,6.393-1.74,10.775-1.74h6.328l-.633.633v-2.074c0-3.047-.609-5.385-1.828-7.014s-3.258-2.443-6.117-2.443c-2.695,0-4.77.697-6.223,2.092s-2.227,3.264-2.32,5.607l-6.645-1.512c.211-2.039.99-3.896,2.338-5.572s3.152-3.018,5.414-4.025,4.881-1.512,7.857-1.512c3.07,0,5.572.58,7.506,1.74s3.357,2.83,4.271,5.01,1.371,4.805,1.371,7.875v17.332c0,.773.111,1.289.334,1.547s.697.387,1.424.387h2.145v4.922h-3.762c-1.594,0-2.93-.498-4.008-1.494s-1.617-2.256-1.617-3.779v-2.672h.879c-.375.984-.914,1.986-1.617,3.006s-1.594,1.969-2.672,2.848-2.361,1.588-3.85,2.127-3.205.809-5.15.809Zm1.336-4.922c1.945,0,3.75-.48,5.414-1.441s3.006-2.467,4.025-4.518,1.529-4.717,1.529-7.998v-.316h-5.941c-3.117,0-5.572.41-7.365,1.23s-3.064,1.834-3.814,3.041-1.125,2.408-1.125,3.604.27,2.273.809,3.234,1.348,1.729,2.426,2.303,2.426.861,4.043.861Z" fill="#c9d1d9"/>
    <path d="m418.528,1077.514v-4.922h5.766c.422,0,.75-.135.984-.404s.457-.697.668-1.283l2.742-7.84-.598,2.707-15.258-39.938h6.609l12.094,34.98-1.301-.316,12.059-34.664h6.539l-18.105,47.426c-.492,1.289-1.324,2.32-2.496,3.094s-2.391,1.16-3.656,1.16h-6.047Z" fill="#c9d1d9"/>
  </g>
  <g>
    <path d="m978.931,767.24v-45.422h-18.105v-5.203h42.609v5.203h-18.176v45.422h-6.328Z" fill="#1da37d"/>
    <path d="m1013.067,768.084c-2.531,0-4.729-.486-6.592-1.459-1.863-.972-3.3-2.303-4.307-3.99-1.008-1.688-1.512-3.598-1.512-5.73,0-2.272.668-4.371,2.004-6.293,1.336-1.921,3.404-3.463,6.205-4.623,2.8-1.16,6.393-1.74,10.775-1.74h6.328l-.633.633v-2.074c0-3.046-.61-5.384-1.828-7.014-1.219-1.629-3.258-2.443-6.117-2.443-2.695,0-4.77.698-6.223,2.092-1.454,1.395-2.228,3.265-2.32,5.607l-6.645-1.512c.211-2.039.989-3.896,2.338-5.572,1.348-1.675,3.151-3.018,5.414-4.025,2.262-1.007,4.881-1.512,7.857-1.512,3.07,0,5.572.58,7.506,1.74s3.357,2.83,4.271,5.01,1.371,4.805,1.371,7.875v17.332c0,.773.11,1.289.334,1.547.223.259.697.387,1.424.387h2.145v4.922h-3.762c-1.595,0-2.931-.497-4.008-1.494-1.078-.996-1.617-2.255-1.617-3.779v-2.672h.879c-.375.984-.914,1.986-1.617,3.006s-1.595,1.969-2.672,2.848c-1.078.879-2.361,1.588-3.85,2.127-1.489.539-3.205.809-5.15.809Zm1.336-4.922c1.945,0,3.749-.479,5.414-1.441,1.664-.961,3.006-2.466,4.025-4.518,1.02-2.051,1.529-4.716,1.529-7.998v-.316h-5.941c-3.117,0-5.572.41-7.365,1.23-1.793.821-3.064,1.834-3.814,3.041-.751,1.208-1.125,2.408-1.125,3.604s.269,2.273.809,3.234c.539.962,1.348,1.729,2.426,2.303,1.077.575,2.426.861,4.043.861Z" fill="#1da37d"/>
    <path d="m1046.009,722.908c-1.359,0-2.52-.479-3.48-1.441-.962-.961-1.441-2.121-1.441-3.48,0-1.383.479-2.549,1.441-3.498.961-.949,2.121-1.424,3.48-1.424,1.383,0,2.549.475,3.498,1.424s1.424,2.115,1.424,3.498c0,1.359-.475,2.52-1.424,3.48-.949.962-2.115,1.441-3.498,1.441Zm-2.953,44.332v-37.969h5.906v37.969h-5.906Z" fill="#1da37d"/>
    <path d="m1066.012,767.24c-1.5,0-2.812-.497-3.938-1.494-1.125-.996-1.688-2.255-1.688-3.779v-47.461h5.906v45.879c0,.773.111,1.289.334,1.547.223.259.697.387,1.424.387h3.691v4.922h-5.73Z" fill="#1da37d"/>
  </g>
  <g>
    <path d="m1744.369,976.131v-45.422h-18.105v-5.203h42.609v5.203h-18.176v45.422h-6.328Z" fill="#c9d1d9"/>
    <path d="m1778.787,931.799c-1.359,0-2.52-.48-3.48-1.441-.962-.961-1.441-2.121-1.441-3.48,0-1.383.479-2.549,1.441-3.498.961-.949,2.121-1.424,3.48-1.424,1.383,0,2.549.475,3.498,1.424s1.424,2.115,1.424,3.498c0,1.359-.475,2.52-1.424,3.48s-2.115,1.441-3.498,1.441Zm-2.953,44.332v-37.969h5.906v37.969h-5.906Z" fill="#c9d1d9"/>
    <path d="m1793.236,976.131v-37.969h5.555v6.504c.891-1.969,2.367-3.686,4.43-5.15,2.062-1.465,4.512-2.197,7.348-2.197,2.508,0,4.693.686,6.557,2.057,1.862,1.371,3.251,3.311,4.165,5.818,1.195-2.32,2.83-4.213,4.904-5.678s4.494-2.197,7.26-2.197c3.633,0,6.51,1.318,8.631,3.955s3.182,6.287,3.182,10.951v23.906h-5.906v-23.449c0-2.156-.223-4.014-.668-5.572s-1.178-2.76-2.197-3.604-2.408-1.266-4.166-1.266c-1.922,0-3.65.545-5.186,1.635s-2.742,2.678-3.621,4.764-1.318,4.629-1.318,7.629v19.863h-5.905v-23.449c0-2.156-.224-4.014-.668-5.572-.445-1.559-1.173-2.76-2.18-3.604-1.008-.844-2.379-1.266-4.113-1.266-1.922,0-3.656.539-5.203,1.617s-2.766,2.66-3.656,4.746c-.892,2.086-1.336,4.641-1.336,7.664v19.863h-5.906Z" fill="#c9d1d9"/>
    <path d="m1871.458,976.975c-3.609,0-6.732-.809-9.369-2.426s-4.67-3.908-6.1-6.873-2.145-6.463-2.145-10.494c0-4.055.715-7.57,2.145-10.547s3.445-5.273,6.047-6.891,5.66-2.426,9.176-2.426c2.016,0,4.037.322,6.064.967s3.879,1.758,5.555,3.34,3.023,3.75,4.043,6.504,1.529,6.229,1.529,10.424h-30.762v-4.781h25.629l-1.688,2.215c-.117-3.328-.656-6-1.617-8.016s-2.209-3.475-3.744-4.377-3.24-1.354-5.115-1.354c-2.227,0-4.148.58-5.766,1.74s-2.859,2.854-3.727,5.08-1.301,4.945-1.301,8.156c0,4.734.967,8.391,2.9,10.969s4.682,3.867,8.244,3.867c2.555,0,4.705-.645,6.451-1.934s3.029-3.152,3.85-5.59l5.801,1.969c-.914,2.203-2.133,4.084-3.656,5.643s-3.334,2.754-5.432,3.586c-2.098.831-4.436,1.248-7.014,1.248Z" fill="#c9d1d9"/>
  </g>
</svg>