<?xml version="1.0" encoding="UTF-8"?>
<svg id="Ebene_1" data-name="Ebene 1" xmlns="http://www.w3.org/2000/svg" width="1751.4" height="1040.4" viewBox="0 0 1751.4 1040.4">
  <g>
    <path d="m1384.45,642.18c-6.16-23.07-14.92-13.62-18.66.03-35.32,5.22-62.59,39.43-62.59,80.85,0,45.04,32.24,81.55,72,81.55s72-36.51,72-81.55c0-41.49-27.36-75.74-62.75-80.88Z" fill="#959698" stroke="#959698" stroke-miterlimit="10" stroke-width="4.09"/>
    <path d="m1296,711.4c5.15,8.37,4.45,21.14,0,26.63" fill="#959698" stroke="#959698" stroke-linecap="round" stroke-miterlimit="10" stroke-width="4.09"/>
    <path d="m1454.4,738.03c-5.15-8.37-4.45-21.14,0-26.63" fill="#959698" stroke="#959698" stroke-linecap="round" stroke-miterlimit="10" stroke-width="4.09"/>
  </g>
  <g>
    <path d="m1247.21,865.8v-50.62h6.33v45.42h25.31v5.2h-31.64Z" fill="#c9d1d9"/>
    <path d="m1287.89,821.47c-1.36,0-2.52-.48-3.48-1.44s-1.44-2.12-1.44-3.48.48-2.55,1.44-3.5,2.12-1.42,3.48-1.42,2.55.47,3.5,1.42,1.42,2.12,1.42,3.5-.47,2.52-1.42,3.48-2.12,1.44-3.5,1.44Zm-2.95,44.33v-37.97h5.91v37.97h-5.91Z" fill="#c9d1d9"/>
    <path d="m1314.92,866.64c-2.74,0-5.23-.45-7.47-1.35-2.24-.9-4.1-2.27-5.57-4.11s-2.46-4.18-2.95-7.01l6.19-1.2c.26,2.98,1.27,5.19,3.04,6.64s3.99,2.18,6.66,2.18,4.76-.67,6.33-2c1.57-1.34,2.36-2.96,2.36-4.89,0-1.64-.56-2.94-1.67-3.9s-2.72-1.64-4.83-2.04l-4.61-.88c-1.24-.23-2.53-.56-3.87-.98s-2.58-1.01-3.74-1.76-2.1-1.73-2.81-2.95c-.72-1.22-1.07-2.75-1.07-4.61,0-2.48.65-4.52,1.95-6.1s3.02-2.76,5.17-3.53,4.46-1.16,6.94-1.16c2.72,0,5.08.42,7.1,1.27,2.02.84,3.66,2.05,4.92,3.62s2.11,3.47,2.53,5.7l-6.5,1.3c-.16-1.43-.54-2.67-1.14-3.73s-1.46-1.87-2.6-2.44-2.61-.86-4.41-.86c-2.18,0-4.06.46-5.62,1.37-1.57.91-2.36,2.3-2.36,4.15,0,1.03.26,1.91.79,2.64s1.32,1.33,2.39,1.81c1.07.48,2.41.9,4.03,1.25l4.68.98c1.97.4,3.78.99,5.45,1.78,1.66.79,3,1.87,4.01,3.25s1.51,3.21,1.51,5.48c0,2.51-.63,4.67-1.88,6.49s-2.99,3.21-5.2,4.17-4.79,1.44-7.72,1.44l-.03-.02Z" fill="#c9d1d9"/>
    <path d="m1346.49,865.8c-1.5,0-2.81-.5-3.94-1.49s-1.69-2.26-1.69-3.78v-27.77h-6.12v-4.92h6.12v-7.95l5.91-1.27v9.21h7.52v4.92h-7.52v26.19c0,.77.11,1.29.33,1.55s.7.39,1.42.39h5.8v4.92h-7.84.01Z" fill="#c9d1d9"/>
    <path d="m1376.8,866.64c-3.61,0-6.73-.81-9.37-2.43s-4.67-3.91-6.1-6.87c-1.43-2.96-2.14-6.46-2.14-10.49s.71-7.57,2.14-10.55,3.45-5.27,6.05-6.89,5.66-2.43,9.18-2.43c2.02,0,4.04.32,6.06.97,2.03.64,3.88,1.76,5.55,3.34s3.02,3.75,4.04,6.5,1.53,6.23,1.53,10.42h-30.76v-4.78h25.63l-1.69,2.21c-.12-3.33-.66-6-1.62-8.02s-2.21-3.47-3.74-4.38c-1.54-.9-3.24-1.35-5.12-1.35-2.23,0-4.15.58-5.77,1.74s-2.86,2.85-3.73,5.08c-.87,2.23-1.3,4.95-1.3,8.16,0,4.73.97,8.39,2.9,10.97s4.68,3.87,8.24,3.87c2.55,0,4.71-.64,6.45-1.93,1.75-1.29,3.03-3.15,3.85-5.59l5.8,1.97c-.91,2.2-2.13,4.08-3.66,5.64-1.52,1.56-3.33,2.75-5.43,3.59-2.1.83-4.44,1.25-7.01,1.25h.02Z" fill="#c9d1d9"/>
    <path d="m1402.67,865.8v-37.97h5.55v8.58l-.25-1.55c1.01-2.18,2.6-4.04,4.78-5.57s4.83-2.3,7.95-2.3c2.69,0,5.01.6,6.96,1.79,1.95,1.2,3.45,2.9,4.5,5.12s1.58,4.88,1.58,8v23.91h-5.91v-23.45c0-3.12-.64-5.64-1.92-7.56s-3.38-2.88-6.31-2.88c-3.16,0-5.8,1.2-7.89,3.6-2.1,2.4-3.15,5.88-3.15,10.42v19.86h-5.91.02Z" fill="#c9d1d9"/>
    <path d="m1459.91,866.64c-3.61,0-6.73-.81-9.37-2.43s-4.67-3.91-6.1-6.87c-1.43-2.96-2.14-6.46-2.14-10.49s.71-7.57,2.14-10.55,3.45-5.27,6.05-6.89,5.66-2.43,9.18-2.43c2.02,0,4.04.32,6.06.97,2.03.64,3.88,1.76,5.55,3.34s3.02,3.75,4.04,6.5,1.53,6.23,1.53,10.42h-30.76v-4.78h25.63l-1.69,2.21c-.12-3.33-.66-6-1.62-8.02s-2.21-3.47-3.74-4.38c-1.54-.9-3.24-1.35-5.12-1.35-2.23,0-4.15.58-5.77,1.74s-2.86,2.85-3.73,5.08c-.87,2.23-1.3,4.95-1.3,8.16,0,4.73.97,8.39,2.9,10.97s4.68,3.87,8.24,3.87c2.55,0,4.71-.64,6.45-1.93,1.75-1.29,3.03-3.15,3.85-5.59l5.8,1.97c-.91,2.2-2.13,4.08-3.66,5.64-1.52,1.56-3.33,2.75-5.43,3.59-2.1.83-4.44,1.25-7.01,1.25h.02Z" fill="#c9d1d9"/>
    <path d="m1485.78,865.8v-37.97h5.55v8.05l-.21-.91c1.12-2.62,2.82-4.61,5.08-5.96,2.26-1.35,4.55-2.02,6.87-2.02.68,0,1.34.06,1.99.18.64.12,1.25.32,1.81.6l-.77,5.55c-1.29-.4-2.57-.6-3.83-.6-.8,0-1.79.16-2.97.47-1.18.32-2.36.95-3.52,1.9s-2.13,2.36-2.92,4.24-1.18,4.37-1.18,7.49v18.98h-5.91.01Z" fill="#c9d1d9"/>
  </g>
  <rect x="7.2" y="7.2" width="1737" height="1026" fill="none" stroke="#959698" stroke-miterlimit="10" stroke-width="14.34"/>
  <g>
    <polyline points="1277.7 607.89 658.8 16.2 280.8 376.2" fill="none" stroke="#d85648" stroke-miterlimit="10" stroke-width="5.67"/>
    <polygon points="1280.96 588.22 1314.01 642.59 1258.19 612.03 1280.96 588.22" fill="#d85648"/>
  </g>
  <g>
    <line x1="277.2" y1="376.2" x2="1230.02" y2="670.96" fill="none" stroke="#307eef" stroke-miterlimit="10" stroke-width="5.67"/>
    <polygon points="1214.42 683.37 1278 685.81 1224.15 651.9 1214.42 683.37" fill="#307eef"/>
  </g>
  <g>
    <polyline points="1487.27 625 1735.2 484.2 910.8 16.2 277.2 376.2" fill="none" stroke="#1da37d" stroke-miterlimit="10" stroke-width="5.67"/>
    <polygon points="1505.18 633.77 1443.61 649.81 1488.91 605.13 1505.18 633.77" fill="#1da37d"/>
  </g>
  <g>
    <polyline points="1495.24 634.75 1735.2 313.2 1513.8 16.2 761.4 1024.2 277.2 376.2" fill="none" stroke="#1da37d" stroke-miterlimit="10" stroke-width="5.67"/>
    <polygon points="1515.16 635.6 1465.21 675.01 1488.76 615.89 1515.16 635.6" fill="#1da37d"/>
  </g>
  <g>
    <path d="m567.37,451.8v-50.62h15.29c5.95,0,10.83,1.01,14.64,3.02,3.81,2.02,6.63,4.89,8.46,8.63s2.74,8.17,2.74,13.31c0,5.81-1.08,10.62-3.23,14.41-2.16,3.8-5.2,6.62-9.14,8.47s-8.58,2.78-13.92,2.78h-14.84Zm6.33-5.2h7.88c13.38,0,20.07-6.7,20.07-20.11,0-4.1-.66-7.66-1.99-10.67-1.32-3.01-3.42-5.34-6.29-6.98s-6.65-2.46-11.34-2.46h-8.33v40.22Z" fill="#c9d1d9"/>
    <path d="m620.49,407.47c-1.36,0-2.52-.48-3.48-1.44-.96-.96-1.44-2.12-1.44-3.48s.48-2.55,1.44-3.5,2.12-1.42,3.48-1.42,2.55.47,3.5,1.42,1.42,2.12,1.42,3.5-.47,2.52-1.42,3.48-2.12,1.44-3.5,1.44Zm-2.95,44.33v-37.97h5.91v37.97h-5.91Z" fill="#c9d1d9"/>
    <path d="m634.94,451.8v-37.97h5.55v8.05l-.21-.91c1.12-2.62,2.82-4.61,5.08-5.96s4.55-2.02,6.87-2.02c.68,0,1.34.06,1.99.18.64.12,1.25.32,1.81.6l-.77,5.55c-1.29-.4-2.57-.6-3.83-.6-.8,0-1.79.16-2.97.47-1.18.32-2.36.95-3.52,1.9s-2.13,2.36-2.92,4.24-1.18,4.37-1.18,7.49v18.98h-5.91.01Z" fill="#c9d1d9"/>
    <path d="m677.12,452.64c-3.61,0-6.73-.81-9.37-2.43s-4.67-3.91-6.1-6.87-2.14-6.46-2.14-10.49.71-7.57,2.14-10.55c1.43-2.98,3.45-5.27,6.05-6.89s5.66-2.43,9.18-2.43c2.02,0,4.04.32,6.06.97,2.03.64,3.88,1.76,5.55,3.34s3.02,3.75,4.04,6.5,1.53,6.23,1.53,10.42h-30.76v-4.78h25.63l-1.69,2.21c-.12-3.33-.66-6-1.62-8.02s-2.21-3.47-3.74-4.38c-1.54-.9-3.24-1.35-5.12-1.35-2.23,0-4.15.58-5.77,1.74s-2.86,2.85-3.73,5.08c-.87,2.23-1.3,4.95-1.3,8.16,0,4.73.97,8.39,2.9,10.97s4.68,3.87,8.24,3.87c2.55,0,4.71-.64,6.45-1.93,1.75-1.29,3.03-3.15,3.85-5.59l5.8,1.97c-.91,2.2-2.13,4.08-3.66,5.64-1.52,1.56-3.33,2.75-5.43,3.59-2.1.83-4.44,1.25-7.01,1.25h.02Z" fill="#c9d1d9"/>
    <path d="m719.21,452.64c-3.56,0-6.64-.81-9.25-2.43s-4.61-3.91-6.01-6.87-2.11-6.47-2.11-10.53.7-7.56,2.11-10.53,3.41-5.26,6.01-6.87,5.68-2.43,9.25-2.43c2.72,0,5.15.5,7.29,1.49s3.96,2.43,5.45,4.29c1.49,1.86,2.58,4.11,3.29,6.73l-6.01,1.58c-.66-2.95-1.83-5.22-3.53-6.8s-3.86-2.37-6.49-2.37c-3.49,0-6.18,1.29-8.07,3.88s-2.83,6.26-2.83,11.02.94,8.46,2.83,11.04c1.89,2.58,4.58,3.87,8.07,3.87,2.6,0,4.75-.77,6.43-2.3s2.87-3.76,3.55-6.66l5.98,1.69c-.56,1.92-1.34,3.63-2.32,5.13s-2.15,2.78-3.5,3.83-2.87,1.86-4.57,2.41c-1.7.55-3.56.83-5.57.83h0Z" fill="#c9d1d9"/>
    <path d="m751.2,451.8c-1.5,0-2.81-.5-3.94-1.49s-1.69-2.26-1.69-3.78v-27.77h-6.12v-4.92h6.12v-7.95l5.91-1.27v9.21h7.52v4.92h-7.52v26.19c0,.77.11,1.29.33,1.55.22.26.7.39,1.42.39h5.8v4.92h-7.84.01Z" fill="#c9d1d9"/>
    <path d="m798.8,452.64c-2.74,0-5.23-.45-7.47-1.35s-4.1-2.27-5.57-4.11-2.46-4.18-2.95-7.01l6.19-1.2c.26,2.98,1.27,5.19,3.04,6.64,1.77,1.45,3.99,2.18,6.66,2.18s4.76-.67,6.33-2c1.57-1.34,2.36-2.96,2.36-4.89,0-1.64-.56-2.94-1.67-3.9s-2.72-1.64-4.83-2.04l-4.61-.88c-1.24-.23-2.53-.56-3.87-.98s-2.58-1.01-3.74-1.76-2.1-1.73-2.81-2.95c-.72-1.22-1.07-2.75-1.07-4.61,0-2.48.65-4.52,1.95-6.1s3.02-2.76,5.17-3.53,4.46-1.16,6.94-1.16c2.72,0,5.08.42,7.1,1.27,2.02.84,3.66,2.05,4.92,3.62s2.11,3.47,2.53,5.7l-6.5,1.3c-.16-1.43-.54-2.67-1.14-3.73s-1.46-1.87-2.6-2.44c-1.14-.57-2.61-.86-4.41-.86-2.18,0-4.06.46-5.62,1.37-1.57.91-2.36,2.3-2.36,4.15,0,1.03.26,1.91.79,2.64s1.32,1.33,2.39,1.81,2.41.9,4.03,1.25l4.68.98c1.97.4,3.78.99,5.45,1.78,1.66.79,3,1.87,4.01,3.25s1.51,3.21,1.51,5.48c0,2.51-.63,4.67-1.88,6.49-1.25,1.82-2.99,3.21-5.2,4.17s-4.79,1.44-7.72,1.44l-.03-.02Z" fill="#c9d1d9"/>
    <path d="m839.02,452.64c-3.56,0-6.7-.84-9.42-2.51-2.72-1.68-4.84-4-6.36-6.98-1.52-2.98-2.29-6.42-2.29-10.34s.76-7.36,2.29-10.34c1.52-2.98,3.64-5.3,6.36-6.98,2.72-1.68,5.86-2.51,9.42-2.51s6.7.84,9.42,2.51c2.72,1.68,4.84,4,6.36,6.98,1.52,2.98,2.29,6.42,2.29,10.34s-.76,7.36-2.29,10.34c-1.52,2.98-3.64,5.3-6.36,6.98-2.72,1.68-5.86,2.51-9.42,2.51Zm0-4.92c3.59,0,6.42-1.34,8.49-4.01s3.11-6.3,3.11-10.9-1.04-8.26-3.11-10.92-4.9-3.99-8.49-3.99-6.42,1.33-8.49,3.99-3.11,6.3-3.11,10.92,1.04,8.23,3.11,10.9,4.9,4.01,8.49,4.01Z" fill="#c9d1d9"/>
    <path d="m878.5,452.64c-2.65,0-4.95-.6-6.89-1.79-1.95-1.2-3.45-2.91-4.5-5.13s-1.58-4.89-1.58-7.98v-23.91h5.91v23.45c0,3.09.58,5.61,1.76,7.54,1.17,1.93,3.28,2.9,6.33,2.9,2.27,0,4.24-.59,5.91-1.76,1.66-1.17,2.96-2.93,3.88-5.27.93-2.34,1.39-5.27,1.39-8.79v-18.07h5.91v37.97h-5.55v-8.93l.25,1.55c-.98,2.34-2.57,4.3-4.76,5.87s-4.87,2.36-8.03,2.36l-.03-.01Z" fill="#c9d1d9"/>
    <path d="m908.07,451.8v-37.97h5.55v8.58l-.25-1.55c1.01-2.18,2.6-4.04,4.78-5.57s4.83-2.3,7.95-2.3c2.69,0,5.01.6,6.96,1.79,1.95,1.2,3.45,2.9,4.5,5.12s1.58,4.88,1.58,8v23.91h-5.91v-23.45c0-3.12-.64-5.64-1.92-7.56-1.28-1.92-3.38-2.88-6.31-2.88-3.16,0-5.8,1.2-7.89,3.6-2.1,2.4-3.15,5.88-3.15,10.42v19.86h-5.91.02Z" fill="#c9d1d9"/>
    <path d="m963.47,452.64c-3.07,0-5.78-.81-8.14-2.43s-4.19-3.91-5.5-6.89-1.97-6.49-1.97-10.55.66-7.56,1.99-10.53c1.32-2.96,3.16-5.25,5.5-6.86s5.05-2.41,8.12-2.41c2.48,0,4.94.62,7.38,1.86s4.28,3.34,5.52,6.29l-.67.28v-22.36h5.91v52.73h-5.55v-7.91l.18.56c-1.03,2.77-2.74,4.82-5.13,6.17s-4.93,2.02-7.63,2.02l-.01.03Zm1.55-4.92c1.99,0,3.81-.52,5.45-1.55s2.95-2.64,3.94-4.83,1.48-5,1.48-8.42c0-5.11-1.05-8.89-3.16-11.34s-4.65-3.67-7.63-3.67c-3.14,0-5.72,1.29-7.73,3.88-2.02,2.59-3.02,6.3-3.02,11.13s.97,8.33,2.92,10.92c1.95,2.59,4.54,3.88,7.77,3.88h-.02Z" fill="#c9d1d9"/>
  </g>
  <g>
    <path d="m186.05,539.04c-3.89,0-7.28-.65-10.18-1.95s-5.23-3.19-7.01-5.66-2.96-5.46-3.55-8.95l7.52-1.55c.16,4.15,1.37,7.34,3.62,9.56s5.39,3.34,9.42,3.34c2.44,0,4.51-.4,6.21-1.2s3-1.92,3.9-3.38,1.35-3.16,1.35-5.13c0-2.62-.76-4.58-2.27-5.85s-3.58-2.21-6.21-2.79l-6.61-1.48c-1.22-.28-2.63-.67-4.24-1.16s-3.16-1.22-4.66-2.18-2.75-2.26-3.74-3.9-1.49-3.74-1.49-6.29c0-3.26.84-5.89,2.51-7.91s3.86-3.49,6.54-4.43,5.54-1.41,8.56-1.41c3.49,0,6.49.56,8.98,1.67s4.51,2.69,6.05,4.73,2.57,4.48,3.11,7.31l-7.42,1.55c-.19-2.16-.71-3.98-1.58-5.47s-2.09-2.62-3.66-3.41-3.53-1.18-5.87-1.18c-1.9,0-3.67.28-5.33.84s-2.99,1.44-4.03,2.64-1.55,2.75-1.55,4.68.7,3.63,2.09,4.83,3.72,2.19,6.98,2.94l6.68,1.55c2.37.54,4.61,1.35,6.71,2.43,2.1,1.08,3.82,2.58,5.13,4.52s1.97,4.48,1.97,7.65-.72,5.87-2.16,8.12-3.5,3.97-6.19,5.15-5.89,1.78-9.62,1.78l.04-.01Z" fill="#c9d1d9"/>
    <path d="m229.89,539.04c-3.56,0-6.7-.84-9.42-2.51s-4.84-4-6.36-6.98-2.29-6.42-2.29-10.34.76-7.36,2.29-10.34,3.64-5.3,6.36-6.98,5.86-2.51,9.42-2.51,6.7.84,9.42,2.51,4.84,4,6.36,6.98,2.29,6.42,2.29,10.34-.76,7.36-2.29,10.34-3.64,5.3-6.36,6.98-5.86,2.51-9.42,2.51Zm0-4.92c3.59,0,6.42-1.34,8.49-4.01s3.11-6.3,3.11-10.9-1.04-8.26-3.11-10.92-4.9-3.99-8.49-3.99-6.42,1.33-8.49,3.99-3.11,6.3-3.11,10.92,1.04,8.23,3.11,10.9,4.9,4.01,8.49,4.01Z" fill="#c9d1d9"/>
    <path d="m269.37,539.04c-2.65,0-4.95-.6-6.89-1.79s-3.45-2.91-4.5-5.13-1.58-4.89-1.58-7.98v-23.91h5.91v23.45c0,3.09.59,5.61,1.76,7.54s3.28,2.9,6.33,2.9c2.27,0,4.24-.59,5.91-1.76s2.96-2.93,3.88-5.27,1.39-5.27,1.39-8.79v-18.07h5.91v37.97h-5.55v-8.93l.25,1.55c-.98,2.34-2.57,4.3-4.76,5.87s-4.87,2.36-8.03,2.36l-.03-.01Z" fill="#c9d1d9"/>
    <path d="m298.94,538.2v-37.97h5.55v8.58l-.25-1.55c1.01-2.18,2.6-4.04,4.78-5.57s4.83-2.3,7.95-2.3c2.7,0,5.02.6,6.96,1.79s3.45,2.9,4.5,5.12,1.58,4.88,1.58,8v23.91h-5.91v-23.45c0-3.12-.64-5.64-1.92-7.56s-3.38-2.88-6.31-2.88c-3.16,0-5.79,1.2-7.89,3.6s-3.15,5.88-3.15,10.42v19.86h-5.91.02Z" fill="#c9d1d9"/>
    <path d="m354.34,539.04c-3.07,0-5.78-.81-8.14-2.43s-4.19-3.91-5.5-6.89-1.97-6.49-1.97-10.55.66-7.56,1.99-10.53,3.16-5.25,5.5-6.86,5.05-2.41,8.12-2.41c2.48,0,4.95.62,7.38,1.86s4.28,3.34,5.52,6.29l-.67.28v-22.36h5.91v52.73h-5.55v-7.91l.18.56c-1.03,2.77-2.74,4.82-5.13,6.17s-4.93,2.02-7.63,2.02l-.01.03Zm1.55-4.92c1.99,0,3.81-.52,5.45-1.55s2.95-2.64,3.94-4.83,1.48-5,1.48-8.42c0-5.11-1.05-8.89-3.16-11.34s-4.65-3.67-7.63-3.67c-3.14,0-5.72,1.29-7.73,3.88s-3.02,6.3-3.02,11.13.97,8.33,2.92,10.92,4.54,3.88,7.77,3.88h-.02Z" fill="#c9d1d9"/>
    <path d="m181.76,625.44c-2.74,0-5.23-.45-7.47-1.35s-4.1-2.27-5.57-4.11-2.46-4.18-2.95-7.01l6.19-1.2c.26,2.98,1.27,5.19,3.04,6.64s3.99,2.18,6.66,2.18,4.76-.67,6.33-2,2.36-2.96,2.36-4.89c0-1.64-.56-2.94-1.67-3.9s-2.72-1.64-4.83-2.04l-4.61-.88c-1.24-.23-2.53-.56-3.87-.98s-2.58-1.01-3.74-1.76-2.1-1.73-2.81-2.95-1.07-2.75-1.07-4.61c0-2.48.65-4.52,1.95-6.1s3.02-2.76,5.17-3.53,4.46-1.16,6.94-1.16c2.72,0,5.09.42,7.1,1.27s3.66,2.05,4.92,3.62,2.11,3.47,2.53,5.7l-6.5,1.3c-.16-1.43-.54-2.67-1.14-3.73s-1.46-1.87-2.6-2.44-2.61-.86-4.41-.86c-2.18,0-4.05.46-5.62,1.37s-2.36,2.3-2.36,4.15c0,1.03.26,1.91.79,2.64s1.32,1.33,2.39,1.81,2.41.9,4.03,1.25l4.68.98c1.97.4,3.79.99,5.45,1.78s3,1.87,4.01,3.25,1.51,3.21,1.51,5.48c0,2.51-.63,4.67-1.88,6.49s-2.99,3.21-5.2,4.17-4.79,1.44-7.72,1.44l-.03-.02Z" fill="#c9d1d9"/>
    <path d="m221.98,625.44c-3.56,0-6.7-.84-9.42-2.51s-4.84-4-6.36-6.98-2.29-6.42-2.29-10.34.76-7.36,2.29-10.34,3.64-5.3,6.36-6.98,5.86-2.51,9.42-2.51,6.7.84,9.42,2.51,4.84,4,6.36,6.98,2.29,6.42,2.29,10.34-.76,7.36-2.29,10.34-3.64,5.3-6.36,6.98-5.86,2.51-9.42,2.51Zm0-4.92c3.59,0,6.42-1.34,8.49-4.01s3.11-6.3,3.11-10.9-1.04-8.26-3.11-10.92-4.9-3.99-8.49-3.99-6.42,1.33-8.49,3.99-3.11,6.3-3.11,10.92,1.04,8.23,3.11,10.9,4.9,4.01,8.49,4.01Z" fill="#c9d1d9"/>
    <path d="m261.46,625.44c-2.65,0-4.95-.6-6.89-1.79s-3.45-2.91-4.5-5.13-1.58-4.89-1.58-7.98v-23.91h5.91v23.45c0,3.09.59,5.61,1.76,7.54s3.28,2.9,6.33,2.9c2.27,0,4.24-.59,5.91-1.76s2.96-2.93,3.88-5.27,1.39-5.27,1.39-8.79v-18.07h5.91v37.97h-5.55v-8.93l.25,1.55c-.98,2.34-2.57,4.3-4.76,5.87s-4.87,2.36-8.03,2.36l-.03-.01Z" fill="#c9d1d9"/>
    <path d="m291.03,624.6v-37.97h5.55v8.05l-.21-.91c1.12-2.62,2.82-4.61,5.08-5.96s4.55-2.02,6.87-2.02c.68,0,1.34.06,1.99.18s1.25.32,1.81.6l-.77,5.55c-1.29-.4-2.57-.6-3.83-.6-.8,0-1.79.16-2.97.47s-2.36.95-3.52,1.9-2.13,2.36-2.92,4.24-1.18,4.37-1.18,7.49v18.98h-5.91.01Z" fill="#c9d1d9"/>
    <path d="m332.97,625.44c-3.56,0-6.64-.81-9.25-2.43s-4.61-3.91-6.01-6.87-2.11-6.47-2.11-10.53.7-7.56,2.11-10.53,3.41-5.26,6.01-6.87,5.68-2.43,9.25-2.43c2.72,0,5.15.5,7.29,1.49s3.96,2.43,5.45,4.29,2.58,4.11,3.29,6.73l-6.01,1.58c-.66-2.95-1.83-5.22-3.53-6.8s-3.86-2.37-6.49-2.37c-3.49,0-6.18,1.29-8.07,3.88s-2.83,6.26-2.83,11.02.94,8.46,2.83,11.04,4.58,3.87,8.07,3.87c2.6,0,4.75-.77,6.43-2.3s2.87-3.76,3.55-6.66l5.98,1.69c-.56,1.92-1.34,3.63-2.32,5.13s-2.15,2.78-3.5,3.83-2.87,1.86-4.57,2.41-3.56.83-5.57.83Z" fill="#c9d1d9"/>
    <path d="m372.91,625.44c-3.61,0-6.73-.81-9.37-2.43s-4.67-3.91-6.1-6.87-2.14-6.46-2.14-10.49.71-7.57,2.14-10.55,3.45-5.27,6.05-6.89,5.66-2.43,9.18-2.43c2.02,0,4.04.32,6.06.97s3.88,1.76,5.55,3.34,3.02,3.75,4.04,6.5,1.53,6.23,1.53,10.42h-30.76v-4.78h25.63l-1.69,2.21c-.12-3.33-.66-6-1.62-8.02s-2.21-3.47-3.74-4.38-3.24-1.35-5.12-1.35c-2.23,0-4.15.58-5.77,1.74s-2.86,2.85-3.73,5.08-1.3,4.95-1.3,8.16c0,4.73.97,8.39,2.9,10.97s4.68,3.87,8.24,3.87c2.55,0,4.71-.64,6.45-1.93s3.03-3.15,3.85-5.59l5.8,1.97c-.91,2.2-2.13,4.08-3.66,5.64s-3.33,2.75-5.43,3.59-4.44,1.25-7.01,1.25h.02Z" fill="#c9d1d9"/>
  </g>
  <rect x="241.2" y="315" width="73.71" height="122.4" fill="none" stroke="#959698" stroke-miterlimit="10" stroke-width="1.4"/>
  <rect x="265.77" y="350.69" width="24.57" height="51" fill="#c9d1d9" stroke="#959698" stroke-miterlimit="10" stroke-width="4.93"/>
  <polygon points="290.34 350.7 290.34 401.7 314.91 429.75 314.91 322.65 290.34 350.7" fill="#c9d1d9" stroke="#959698" stroke-miterlimit="10" stroke-width="4.93"/>
  <g>
    <path d="m1103.53,109.8l-10.55-50.62h6.12l9.14,45.84h-.11l12.83-45.84h7.03l12.76,45.84h-.11l9.14-45.84h6.12l-10.55,50.62h-9.35l-12.3-46.05h1.41l-12.23,46.05h-9.35Z" fill="#c9d1d9"/>
    <path d="m1171.41,110.64c-2.53,0-4.73-.49-6.59-1.46s-3.3-2.3-4.31-3.99c-1.01-1.69-1.51-3.6-1.51-5.73,0-2.27.67-4.37,2-6.29s3.4-3.46,6.21-4.62c2.8-1.16,6.39-1.74,10.78-1.74h6.33l-.63.63v-2.07c0-3.05-.61-5.38-1.83-7.01-1.22-1.63-3.26-2.44-6.12-2.44-2.7,0-4.77.7-6.22,2.09s-2.23,3.26-2.32,5.61l-6.64-1.51c.21-2.04.99-3.9,2.34-5.57,1.35-1.68,3.15-3.02,5.41-4.03s4.88-1.51,7.86-1.51,5.57.58,7.51,1.74,3.36,2.83,4.27,5.01,1.37,4.8,1.37,7.88v17.33c0,.77.11,1.29.33,1.55s.7.39,1.42.39h2.14v4.92h-3.76c-1.59,0-2.93-.5-4.01-1.49-1.08-1-1.62-2.26-1.62-3.78v-2.67h.88c-.38.98-.91,1.99-1.62,3.01s-1.59,1.97-2.67,2.85c-1.08.88-2.36,1.59-3.85,2.13s-3.21.81-5.15.81v-.04Zm1.34-4.92c1.95,0,3.75-.48,5.41-1.44s3.01-2.47,4.03-4.52,1.53-4.72,1.53-8v-.32h-5.94c-3.12,0-5.57.41-7.37,1.23s-3.06,1.83-3.81,3.04-1.12,2.41-1.12,3.6.27,2.27.81,3.23c.54.96,1.35,1.73,2.43,2.3,1.08.57,2.43.86,4.04.86l-.01.02Z" fill="#c9d1d9"/>
    <path d="m1206.92,109.8c-1.5,0-2.81-.5-3.94-1.49s-1.69-2.26-1.69-3.78v-47.46h5.91v45.88c0,.77.11,1.29.33,1.55s.7.39,1.42.39h3.69v4.92h-5.73l.01-.01Z" fill="#c9d1d9"/>
    <path d="m1225.59,109.8c-1.5,0-2.81-.5-3.94-1.49s-1.69-2.26-1.69-3.78v-47.46h5.91v45.88c0,.77.11,1.29.33,1.55s.7.39,1.42.39h3.69v4.92h-5.73l.01-.01Z" fill="#c9d1d9"/>
    <path d="m1257.16,109.8v-37.97h5.55v8.05l-.21-.91c1.12-2.62,2.82-4.61,5.08-5.96s4.55-2.02,6.87-2.02c.68,0,1.34.06,1.99.18.64.12,1.25.32,1.81.6l-.77,5.55c-1.29-.4-2.57-.6-3.83-.6-.8,0-1.79.16-2.97.47-1.18.32-2.36.95-3.52,1.9s-2.13,2.36-2.92,4.24-1.18,4.37-1.18,7.49v18.98h-5.91.01Z" fill="#c9d1d9"/>
    <path d="m1299.35,110.64c-3.61,0-6.73-.81-9.37-2.43s-4.67-3.91-6.1-6.87c-1.43-2.96-2.14-6.46-2.14-10.49s.71-7.57,2.14-10.55,3.45-5.27,6.05-6.89,5.66-2.43,9.18-2.43c2.02,0,4.04.32,6.06.97,2.03.64,3.88,1.76,5.55,3.34,1.67,1.58,3.02,3.75,4.04,6.5s1.53,6.23,1.53,10.42h-30.76v-4.78h25.63l-1.69,2.21c-.12-3.33-.66-6-1.62-8.02s-2.21-3.47-3.74-4.38c-1.54-.9-3.24-1.35-5.12-1.35-2.23,0-4.15.58-5.77,1.74s-2.86,2.85-3.73,5.08-1.3,4.95-1.3,8.16c0,4.73.97,8.39,2.9,10.97s4.68,3.87,8.24,3.87c2.55,0,4.71-.64,6.45-1.93,1.75-1.29,3.03-3.15,3.85-5.59l5.8,1.97c-.91,2.2-2.13,4.08-3.66,5.64-1.52,1.56-3.33,2.75-5.43,3.59-2.1.83-4.44,1.25-7.01,1.25h.02Z" fill="#c9d1d9"/>
    <path d="m1320.62,76.75v-4.92h20.07v4.92h-20.07Zm5.66,33.05v-44.86c0-2.84.67-4.86,2-6.06s3.57-1.81,6.71-1.81h4.75v4.92h-5.59c-.7,0-1.21.15-1.51.46-.3.3-.46.81-.46,1.51v45.84h-5.91.01Zm27.25,0c-1.5,0-2.81-.5-3.94-1.49s-1.69-2.26-1.69-3.78v-47.46h5.91v45.88c0,.77.11,1.29.33,1.55s.7.39,1.42.39h3.69v4.92h-5.73l.01-.01Z" fill="#c9d1d9"/>
    <path d="m1382,110.64c-3.61,0-6.73-.81-9.37-2.43s-4.67-3.91-6.1-6.87c-1.43-2.96-2.14-6.46-2.14-10.49s.71-7.57,2.14-10.55,3.45-5.27,6.05-6.89,5.66-2.43,9.18-2.43c2.02,0,4.04.32,6.06.97,2.03.64,3.88,1.76,5.55,3.34,1.67,1.58,3.02,3.75,4.04,6.5s1.53,6.23,1.53,10.42h-30.76v-4.78h25.63l-1.69,2.21c-.12-3.33-.66-6-1.62-8.02s-2.21-3.47-3.74-4.38c-1.54-.9-3.24-1.35-5.12-1.35-2.23,0-4.15.58-5.77,1.74s-2.86,2.85-3.73,5.08-1.3,4.95-1.3,8.16c0,4.73.97,8.39,2.9,10.97s4.68,3.87,8.24,3.87c2.55,0,4.71-.64,6.45-1.93,1.75-1.29,3.03-3.15,3.85-5.59l5.8,1.97c-.91,2.2-2.13,4.08-3.66,5.64-1.52,1.56-3.33,2.75-5.43,3.59-2.1.83-4.44,1.25-7.01,1.25h.02Z" fill="#c9d1d9"/>
    <path d="m1424.08,110.64c-3.56,0-6.64-.81-9.25-2.43s-4.61-3.91-6.01-6.87-2.11-6.47-2.11-10.53.7-7.56,2.11-10.53,3.41-5.26,6.01-6.87,5.68-2.43,9.25-2.43c2.72,0,5.15.5,7.29,1.49s3.96,2.43,5.45,4.29,2.58,4.11,3.29,6.73l-6.01,1.58c-.66-2.95-1.83-5.22-3.53-6.8-1.7-1.58-3.86-2.37-6.49-2.37-3.49,0-6.18,1.29-8.07,3.88-1.89,2.59-2.83,6.26-2.83,11.02s.94,8.46,2.83,11.04,4.58,3.87,8.07,3.87c2.6,0,4.75-.77,6.43-2.3s2.87-3.76,3.55-6.66l5.98,1.69c-.56,1.92-1.34,3.63-2.32,5.13s-2.15,2.78-3.5,3.83-2.87,1.86-4.57,2.41-3.56.83-5.57.83h0Z" fill="#c9d1d9"/>
    <path d="m1456.07,109.8c-1.5,0-2.81-.5-3.94-1.49s-1.69-2.26-1.69-3.78v-27.77h-6.12v-4.92h6.12v-7.95l5.91-1.27v9.21h7.52v4.92h-7.52v26.19c0,.77.11,1.29.33,1.55s.7.39,1.42.39h5.8v4.92h-7.84.01Z" fill="#c9d1d9"/>
    <path d="m1475.41,65.47c-1.36,0-2.52-.48-3.48-1.44s-1.44-2.12-1.44-3.48.48-2.55,1.44-3.5,2.12-1.42,3.48-1.42,2.55.47,3.5,1.42,1.42,2.12,1.42,3.5-.47,2.52-1.42,3.48-2.12,1.44-3.5,1.44Zm-2.95,44.33v-37.97h5.91v37.97h-5.91Z" fill="#c9d1d9"/>
    <path d="m1505.26,110.64c-3.56,0-6.7-.84-9.42-2.51-2.72-1.68-4.84-4-6.36-6.98s-2.29-6.42-2.29-10.34.76-7.36,2.29-10.34c1.52-2.98,3.64-5.3,6.36-6.98s5.86-2.51,9.42-2.51,6.7.84,9.42,2.51c2.72,1.68,4.84,4,6.36,6.98s2.29,6.42,2.29,10.34-.76,7.36-2.29,10.34c-1.52,2.98-3.64,5.3-6.36,6.98s-5.86,2.51-9.42,2.51Zm0-4.92c3.59,0,6.42-1.34,8.49-4.01s3.11-6.3,3.11-10.9-1.04-8.26-3.11-10.92-4.9-3.99-8.49-3.99-6.42,1.33-8.49,3.99-3.11,6.3-3.11,10.92,1.04,8.23,3.11,10.9,4.9,4.01,8.49,4.01Z" fill="#c9d1d9"/>
    <path d="m1532.15,109.8v-37.97h5.55v8.58l-.25-1.55c1.01-2.18,2.6-4.04,4.78-5.57s4.83-2.3,7.95-2.3c2.69,0,5.01.6,6.96,1.79,1.95,1.2,3.45,2.9,4.5,5.12s1.58,4.88,1.58,8v23.91h-5.91v-23.45c0-3.12-.64-5.64-1.92-7.56s-3.38-2.88-6.31-2.88c-3.16,0-5.8,1.2-7.89,3.6-2.1,2.4-3.15,5.88-3.15,10.42v19.86h-5.91.02Z" fill="#c9d1d9"/>
    <path d="m1586.89,110.64c-2.74,0-5.23-.45-7.47-1.35s-4.1-2.27-5.57-4.11-2.46-4.18-2.95-7.01l6.19-1.2c.26,2.98,1.27,5.19,3.04,6.64s3.99,2.18,6.66,2.18,4.76-.67,6.33-2c1.57-1.34,2.36-2.96,2.36-4.89,0-1.64-.56-2.94-1.67-3.9s-2.72-1.64-4.83-2.04l-4.61-.88c-1.24-.23-2.53-.56-3.87-.98s-2.58-1.01-3.74-1.76-2.1-1.73-2.81-2.95c-.72-1.22-1.07-2.75-1.07-4.61,0-2.48.65-4.52,1.95-6.1s3.02-2.76,5.17-3.53,4.46-1.16,6.94-1.16c2.72,0,5.08.42,7.1,1.27,2.02.84,3.66,2.05,4.92,3.62s2.11,3.47,2.53,5.7l-6.5,1.3c-.16-1.43-.54-2.67-1.14-3.73s-1.46-1.87-2.6-2.44-2.61-.86-4.41-.86c-2.18,0-4.06.46-5.62,1.37-1.57.91-2.36,2.3-2.36,4.15,0,1.03.26,1.91.79,2.64s1.32,1.33,2.39,1.81c1.07.48,2.41.9,4.03,1.25l4.68.98c1.97.4,3.78.99,5.45,1.78,1.66.79,3,1.87,4.01,3.25s1.51,3.21,1.51,5.48c0,2.51-.63,4.67-1.88,6.49s-2.99,3.21-5.2,4.17-4.79,1.44-7.72,1.44l-.03-.02Z" fill="#c9d1d9"/>
  </g>
</svg>