<?xml version="1.0" encoding="UTF-8"?>
<svg id="Ebene_5" data-name="Ebene 5" xmlns="http://www.w3.org/2000/svg" width="1375.2" height="489.6" viewBox="0 0 1375.2 489.6">
  <rect x="3.6" y="64.8" width="144" height="144" fill="none" stroke="#c9d1d9" stroke-miterlimit="10" stroke-width="2.83"/>
  <g>
    <line x1="39.6" y1="28.8" x2="39.6" y2="52.24" fill="none" stroke="#c9d1d9" stroke-miterlimit="10" stroke-width="2.83"/>
    <polygon points="35.48 49.44 39.6 64.8 43.72 49.44 35.48 49.44" fill="#c9d1d9"/>
  </g>
  <g>
    <line x1="111.6" y1="28.8" x2="111.6" y2="52.24" fill="none" stroke="#c9d1d9" stroke-miterlimit="10" stroke-width="2.83"/>
    <polygon points="107.48 49.44 111.6 64.8 115.72 49.44 107.48 49.44" fill="#c9d1d9"/>
  </g>
  <path d="m21.6,136.8c8.56-18,17.21-36,27-36,19.59,0,34.41,72,54,72,9.79,0,18.4-18,27-36" fill="none" stroke="#307eef" stroke-linecap="round" stroke-width="2.83"/>
  <g>
    <path d="m16.32,21.85c-.73,0-1.38-.14-1.93-.41-.56-.27-.99-.66-1.3-1.15s-.47-1.06-.47-1.71c0-.7.21-1.33.62-1.89s1.03-1,1.86-1.32,1.88-.49,3.14-.49h1.77l-.18.21v-.62c0-.84-.17-1.48-.5-1.93-.33-.44-.88-.67-1.66-.67s-1.3.19-1.7.57c-.39.38-.61.9-.64,1.55l-2.26-.47c.08-.59.31-1.14.71-1.63s.93-.89,1.61-1.18c.68-.29,1.48-.44,2.4-.44s1.67.17,2.27.5,1.04.82,1.33,1.48c.29.65.44,1.46.44,2.44v4.71c0,.23.03.38.1.45.06.08.2.11.42.11h.59v1.65h-1.2c-.55,0-1-.16-1.34-.48s-.51-.75-.51-1.27v-.71l.33.05c-.1.29-.25.59-.45.9-.19.31-.45.59-.76.86s-.69.48-1.13.65-.96.25-1.56.25v-.01Zm.52-1.61c.54,0,1.04-.13,1.49-.4.45-.26.82-.67,1.09-1.23s.41-1.27.41-2.14v-.13h-1.61c-.86,0-1.54.11-2.03.34s-.84.5-1.04.84-.3.66-.3.98.07.6.21.87c.14.26.36.48.65.64s.67.24,1.13.24v-.01Z" fill="#c9d1d9"/>
    <path d="m25.23,21.6v-11.07h1.98v1.87c.28-.59.72-1.1,1.31-1.51s1.29-.62,2.11-.62c.75,0,1.39.2,1.93.59s.94.96,1.2,1.69c.37-.7.86-1.26,1.47-1.67s1.31-.62,2.09-.62c1.07,0,1.92.39,2.53,1.16.61.78.92,1.86.92,3.26v6.91h-2.08v-6.83c0-.57-.06-1.06-.17-1.49s-.31-.75-.59-.99-.65-.35-1.13-.35c-.53,0-1.01.16-1.42.48s-.74.77-.97,1.36-.35,1.3-.35,2.12v5.7h-2.08v-6.83c0-.57-.06-1.06-.18-1.49-.12-.42-.31-.75-.58-.99s-.64-.35-1.12-.35c-.53,0-1.01.16-1.43.47s-.74.77-.98,1.35c-.24.59-.35,1.3-.35,2.13v5.7h-2.08l-.03.02Z" fill="#c9d1d9"/>
    <path d="m43.78,25.6v-15.07h1.97v2.29l-.05-.16c.32-.81.82-1.4,1.51-1.79s1.42-.58,2.2-.58c.91,0,1.71.24,2.39.71s1.22,1.14,1.59,2.01c.38.87.57,1.9.57,3.09s-.19,2.23-.57,3.09c-.38.87-.92,1.53-1.6,1.99s-1.48.7-2.39.7c-.75,0-1.47-.18-2.16-.55s-1.22-.98-1.6-1.84l.19-.07v6.2h-2.05v-.02Zm4.97-5.42c.88,0,1.59-.36,2.13-1.08s.82-1.74.82-3.07-.27-2.3-.79-3.01-1.24-1.08-2.14-1.08c-.54,0-1.04.15-1.49.44s-.82.74-1.09,1.34-.4,1.37-.4,2.32c0,1.4.29,2.44.87,3.12.58.68,1.28,1.02,2.1,1.02h-.01Z" fill="#c9d1d9"/>
    <path d="m63.63,21.6v-11.43c-.55.49-1.07.9-1.55,1.23s-1.02.6-1.62.82v-2.11c.33-.15.68-.34,1.05-.56s.76-.55,1.21-.97c.44-.42.94-1,1.49-1.73h1.6v14.77h-2.16l-.02-.02Z" fill="#c9d1d9"/>
  </g>
  <g>
    <path d="m85.65,12.18v-1.65h6.06v1.65h-6.06Zm1.6,9.42v-12.98c0-.85.21-1.47.62-1.84s1.09-.56,2.04-.56h1.6v1.65h-1.61c-.21,0-.35.04-.44.13s-.13.24-.13.44v13.16h-2.08Z" fill="#c9d1d9"/>
    <path d="m93.72,21.6v-11.07h1.98v2.39l-.07-.29c.33-.78.83-1.37,1.48-1.76.65-.4,1.33-.59,2.02-.59.2,0,.4.02.59.05s.39.09.56.17l-.24,1.9c-.39-.12-.78-.18-1.16-.18-.26,0-.57.05-.92.15-.35.1-.69.29-1.02.57s-.6.69-.83,1.24c-.22.54-.33,1.26-.33,2.14v5.3h-2.08l.02-.02Z" fill="#c9d1d9"/>
    <path d="m106.51,21.86c-1.07,0-2-.24-2.79-.71-.79-.48-1.41-1.15-1.85-2.01-.44-.86-.66-1.89-.66-3.07s.22-2.21.66-3.07,1.05-1.53,1.84-2.01c.79-.47,1.7-.71,2.75-.71.59,0,1.19.09,1.79.28s1.15.51,1.65.98.9,1.1,1.2,1.91c.3.81.45,1.84.45,3.08h-8.99v-1.49h7.17l-.45.62c-.03-.9-.18-1.63-.45-2.18-.26-.55-.61-.95-1.03-1.2s-.88-.37-1.39-.37c-.62,0-1.15.17-1.59.5-.44.33-.78.81-1.01,1.43s-.35,1.37-.35,2.26c0,1.3.26,2.31.78,3.03.52.72,1.28,1.08,2.26,1.08.7,0,1.29-.18,1.76-.53s.83-.87,1.07-1.54l1.98.6c-.27.68-.63,1.25-1.1,1.71s-1.01.82-1.64,1.06-1.32.36-2.06.36v-.01Z" fill="#c9d1d9"/>
    <path d="m121.76,25.6v-6.29l.16.16c-.32.81-.82,1.4-1.5,1.79s-1.42.58-2.21.58c-.9,0-1.7-.24-2.38-.71-.69-.47-1.22-1.14-1.59-2.01s-.56-1.9-.56-3.09.19-2.23.57-3.09c.38-.86.91-1.53,1.6-1.99.69-.46,1.48-.7,2.39-.7.75,0,1.46.18,2.16.55.69.37,1.23.98,1.59,1.84l-.11.07v-2.2h1.97v15.07h-2.08l-.01.02Zm-2.91-5.42c.55,0,1.06-.14,1.51-.43s.81-.73,1.08-1.34c.27-.6.4-1.38.4-2.31,0-1.41-.29-2.45-.87-3.13s-1.28-1.02-2.1-1.02c-.87,0-1.58.36-2.13,1.08-.55.72-.83,1.74-.83,3.07s.26,2.3.79,3.01c.53.71,1.24,1.07,2.14,1.07h.01Z" fill="#c9d1d9"/>
    <path d="m134.31,21.6v-11.43c-.55.49-1.07.9-1.55,1.23s-1.02.6-1.62.82v-2.11c.33-.15.68-.34,1.05-.56s.76-.55,1.21-.97c.44-.42.94-1,1.49-1.73h1.6v14.77h-2.16l-.02-.02Z" fill="#c9d1d9"/>
  </g>
  <g>
    <path d="m57.81,201.86c-1.48,0-2.77-.31-3.85-.93-1.08-.62-1.91-1.5-2.49-2.64s-.87-2.5-.87-4.07.29-2.93.87-4.07,1.41-2.02,2.49-2.64,2.36-.93,3.83-.93,2.77.31,3.85.93,1.91,1.5,2.49,2.64c.58,1.14.87,2.5.87,4.07s-.29,2.92-.87,4.07c-.58,1.15-1.41,2.03-2.49,2.65s-2.36.93-3.83.93v-.01Zm0-1.84c1,0,1.86-.23,2.58-.7s1.28-1.14,1.67-2.01.58-1.9.58-3.09-.19-2.23-.58-3.1-.95-1.54-1.67-2c-.72-.47-1.59-.7-2.58-.7s-1.86.23-2.59.7-1.29,1.14-1.68,2-.58,1.9-.58,3.1.19,2.22.58,3.09c.39.87.95,1.54,1.68,2.01s1.59.7,2.59.7Z" fill="#c9d1d9"/>
    <path d="m71.53,201.86c-.81,0-1.56-.13-2.24-.39s-1.24-.65-1.69-1.18-.74-1.21-.89-2.04l2.07-.4c.07.8.34,1.4.83,1.79.48.4,1.1.59,1.85.59s1.34-.18,1.76-.54c.42-.36.63-.79.63-1.3,0-.44-.15-.79-.46-1.06-.3-.27-.77-.45-1.39-.56l-1.25-.24c-.37-.06-.76-.15-1.16-.27-.41-.12-.79-.29-1.14-.51s-.64-.51-.86-.87-.33-.82-.33-1.37c0-.73.19-1.33.57-1.81s.9-.83,1.54-1.08c.65-.24,1.35-.36,2.13-.36s1.51.12,2.12.37,1.12.6,1.51,1.06c.39.46.65,1.02.77,1.69l-2.13.43c-.05-.38-.15-.72-.32-1.01-.16-.29-.4-.52-.72-.68s-.73-.25-1.24-.25c-.6,0-1.11.12-1.53.37s-.63.62-.63,1.11c0,.29.08.53.24.73.16.2.39.37.7.49.31.13.69.24,1.14.33l1.3.27c.58.11,1.12.28,1.62.51s.9.55,1.2.96c.3.41.46.96.46,1.64,0,.75-.19,1.38-.57,1.92s-.91.94-1.58,1.22-1.44.42-2.32.42l.01.02Z" fill="#c9d1d9"/>
    <path d="m83.27,201.86c-1.07,0-2-.24-2.79-.71s-1.39-1.14-1.81-2.01-.64-1.89-.64-3.08.21-2.22.64-3.08,1.03-1.53,1.81-2,1.71-.71,2.78-.71c.81,0,1.53.15,2.18.44s1.2.72,1.66,1.28c.45.56.78,1.23.98,2.03l-2.06.5c-.18-.84-.51-1.48-.98-1.92s-1.06-.66-1.78-.66c-.97,0-1.71.36-2.22,1.09s-.76,1.74-.76,3.05.25,2.32.76,3.04,1.25,1.08,2.22,1.08c.71,0,1.3-.21,1.77-.63.47-.42.8-1.04.99-1.85l2.03.49c-.16.59-.39,1.12-.69,1.57s-.66.83-1.07,1.14-.88.54-1.38.7c-.51.16-1.05.24-1.64.24h0Z" fill="#c9d1d9"/>
    <path d="m97.69,201.6v-11.43c-.55.49-1.07.9-1.55,1.23s-1.02.6-1.62.82v-2.11c.33-.15.68-.34,1.05-.56s.76-.55,1.21-.97c.44-.42.94-1,1.49-1.73h1.6v14.77h-2.16l-.02-.02Z" fill="#c9d1d9"/>
  </g>
  <line x1="75.6" y1="352.8" x2="75.6" y2="208.8" fill="none" stroke="#c9d1d9" stroke-miterlimit="10" stroke-width="2.83"/>
  <rect x="219.6" y="64.8" width="144" height="144" fill="none" stroke="#c9d1d9" stroke-miterlimit="10" stroke-width="2.83"/>
  <g>
    <line x1="255.6" y1="28.8" x2="255.6" y2="52.24" fill="none" stroke="#c9d1d9" stroke-miterlimit="10" stroke-width="2.83"/>
    <polygon points="251.48 49.44 255.6 64.8 259.72 49.44 251.48 49.44" fill="#c9d1d9"/>
  </g>
  <g>
    <line x1="327.6" y1="28.8" x2="327.6" y2="52.24" fill="none" stroke="#c9d1d9" stroke-miterlimit="10" stroke-width="2.83"/>
    <polygon points="323.48 49.44 327.6 64.8 331.72 49.44 323.48 49.44" fill="#c9d1d9"/>
  </g>
  <path d="m237.6,136.8c8.56-18,17.21-36,27-36,19.59,0,34.41,72,54,72,9.79,0,18.4-18,27-36" fill="none" stroke="#307eef" stroke-linecap="round" stroke-width="2.83"/>
  <g>
    <path d="m230.02,21.85c-.73,0-1.38-.14-1.93-.41-.56-.27-.99-.66-1.3-1.15s-.47-1.06-.47-1.71c0-.7.21-1.33.62-1.89.41-.56,1.03-1,1.86-1.32s1.88-.49,3.14-.49h1.77l-.18.21v-.62c0-.84-.17-1.48-.5-1.93-.33-.44-.88-.67-1.66-.67s-1.3.19-1.7.57c-.39.38-.61.9-.64,1.55l-2.26-.47c.08-.59.31-1.14.71-1.63s.93-.89,1.61-1.18,1.48-.44,2.4-.44,1.67.17,2.27.5,1.04.82,1.33,1.48c.29.65.44,1.46.44,2.44v4.71c0,.23.03.38.1.45.06.08.2.11.42.11h.59v1.65h-1.2c-.55,0-1-.16-1.34-.48s-.51-.75-.51-1.27v-.71l.33.05c-.1.29-.25.59-.45.9-.19.31-.45.59-.76.86s-.69.48-1.13.65-.96.25-1.56.25v-.01Zm.52-1.61c.54,0,1.04-.13,1.49-.4.45-.26.82-.67,1.09-1.23s.41-1.27.41-2.14v-.13h-1.61c-.86,0-1.54.11-2.03.34s-.84.5-1.04.84-.3.66-.3.98.07.6.21.87c.14.26.36.48.65.64s.67.24,1.13.24v-.01Z" fill="#c9d1d9"/>
    <path d="m238.93,21.6v-11.07h1.98v1.87c.28-.59.72-1.1,1.31-1.51s1.29-.62,2.11-.62c.75,0,1.39.2,1.93.59s.94.96,1.2,1.69c.37-.7.86-1.26,1.47-1.67s1.31-.62,2.09-.62c1.07,0,1.92.39,2.53,1.16.61.78.92,1.86.92,3.26v6.91h-2.08v-6.83c0-.57-.06-1.06-.17-1.49s-.31-.75-.59-.99-.65-.35-1.13-.35c-.53,0-1.01.16-1.42.48s-.74.77-.97,1.36-.35,1.3-.35,2.12v5.7h-2.08v-6.83c0-.57-.06-1.06-.18-1.49-.12-.42-.31-.75-.58-.99s-.64-.35-1.12-.35c-.53,0-1.01.16-1.43.47s-.74.77-.98,1.35c-.24.59-.35,1.3-.35,2.13v5.7h-2.08l-.03.02Z" fill="#c9d1d9"/>
    <path d="m257.48,25.6v-15.07h1.97v2.29l-.05-.16c.32-.81.82-1.4,1.51-1.79s1.42-.58,2.2-.58c.91,0,1.71.24,2.39.71s1.22,1.14,1.59,2.01c.38.87.57,1.9.57,3.09s-.19,2.23-.57,3.09c-.38.87-.92,1.53-1.6,1.99s-1.48.7-2.39.7c-.75,0-1.47-.18-2.16-.55s-1.22-.98-1.6-1.84l.19-.07v6.2h-2.05v-.02Zm4.97-5.42c.88,0,1.59-.36,2.13-1.08s.82-1.74.82-3.07-.27-2.3-.79-3.01-1.24-1.08-2.14-1.08c-.54,0-1.04.15-1.49.44-.45.29-.82.74-1.09,1.34s-.4,1.37-.4,2.32c0,1.4.29,2.44.87,3.12.58.68,1.28,1.02,2.1,1.02h-.01Z" fill="#c9d1d9"/>
    <path d="m274.27,21.6v-1.39l5.21-4.37c.67-.57,1.22-1.08,1.64-1.55s.73-.94.93-1.43.3-1.02.3-1.61c0-.66-.11-1.2-.33-1.63s-.54-.75-.96-.96-.92-.32-1.51-.32c-.7,0-1.27.14-1.7.43-.43.28-.74.66-.94,1.13s-.32.99-.35,1.56l-2.31-.69c.06-.68.32-1.34.77-1.98s1.06-1.17,1.84-1.58,1.67-.62,2.7-.62c.59,0,1.18.08,1.78.25s1.15.43,1.65.79.91.83,1.21,1.41.46,1.28.46,2.1c0,1.16-.33,2.21-.99,3.14s-1.58,1.85-2.77,2.77l-3.92,3.07-1.14-.34h9.02v1.84h-10.59v-.02Z" fill="#c9d1d9"/>
  </g>
  <g>
    <path d="m299.35,12.18v-1.65h6.06v1.65h-6.06Zm1.6,9.42v-12.98c0-.85.21-1.47.62-1.84s1.09-.56,2.04-.56h1.6v1.65h-1.61c-.21,0-.35.04-.44.13s-.13.24-.13.44v13.16h-2.08Z" fill="#c9d1d9"/>
    <path d="m307.42,21.6v-11.07h1.98v2.39l-.07-.29c.33-.78.83-1.37,1.48-1.76.65-.4,1.33-.59,2.02-.59.2,0,.4.02.59.05s.39.09.56.17l-.24,1.9c-.39-.12-.78-.18-1.16-.18-.26,0-.57.05-.92.15-.35.1-.69.29-1.02.57s-.6.69-.83,1.24c-.22.54-.33,1.26-.33,2.14v5.3h-2.08l.02-.02Z" fill="#c9d1d9"/>
    <path d="m320.21,21.86c-1.07,0-2-.24-2.79-.71-.79-.48-1.41-1.15-1.85-2.01s-.66-1.89-.66-3.07.22-2.21.66-3.07,1.05-1.53,1.84-2.01c.79-.47,1.7-.71,2.75-.71.59,0,1.19.09,1.79.28s1.15.51,1.65.98.9,1.1,1.2,1.91c.3.81.45,1.84.45,3.08h-8.99v-1.49h7.17l-.45.62c-.03-.9-.18-1.63-.45-2.18-.26-.55-.61-.95-1.03-1.2s-.88-.37-1.39-.37c-.62,0-1.15.17-1.59.5s-.78.81-1.01,1.43-.35,1.37-.35,2.26c0,1.3.26,2.31.78,3.03.52.72,1.28,1.08,2.26,1.08.7,0,1.29-.18,1.76-.53s.83-.87,1.07-1.54l1.98.6c-.27.68-.63,1.25-1.1,1.71s-1.01.82-1.64,1.06-1.32.36-2.06.36v-.01Z" fill="#c9d1d9"/>
    <path d="m335.45,25.6v-6.29l.16.16c-.32.81-.82,1.4-1.5,1.79s-1.42.58-2.21.58c-.9,0-1.7-.24-2.38-.71-.69-.47-1.22-1.14-1.59-2.01s-.56-1.9-.56-3.09.19-2.23.57-3.09c.38-.86.91-1.53,1.6-1.99s1.48-.7,2.39-.7c.75,0,1.46.18,2.16.55.69.37,1.23.98,1.59,1.84l-.11.07v-2.2h1.97v15.07h-2.08l-.01.02Zm-2.91-5.42c.55,0,1.06-.14,1.51-.43s.81-.73,1.08-1.34c.27-.6.4-1.38.4-2.31,0-1.41-.29-2.45-.87-3.13s-1.28-1.02-2.1-1.02c-.87,0-1.58.36-2.13,1.08-.55.72-.83,1.74-.83,3.07s.26,2.3.79,3.01c.53.71,1.24,1.07,2.14,1.07h.01Z" fill="#c9d1d9"/>
    <path d="m344.95,21.6v-1.39l5.21-4.37c.67-.57,1.22-1.08,1.64-1.55s.73-.94.93-1.43.3-1.02.3-1.61c0-.66-.11-1.2-.33-1.63s-.54-.75-.96-.96-.92-.32-1.51-.32c-.7,0-1.27.14-1.7.43-.43.28-.74.66-.94,1.13s-.32.99-.35,1.56l-2.31-.69c.06-.68.32-1.34.77-1.98s1.06-1.17,1.84-1.58,1.67-.62,2.7-.62c.59,0,1.18.08,1.78.25s1.15.43,1.65.79.91.83,1.21,1.41.46,1.28.46,2.1c0,1.16-.33,2.21-.99,3.14s-1.58,1.85-2.77,2.77l-3.92,3.07-1.14-.34h9.02v1.84h-10.59v-.02Z" fill="#c9d1d9"/>
  </g>
  <g>
    <path d="m271.51,201.86c-1.48,0-2.77-.31-3.85-.93-1.08-.62-1.91-1.5-2.49-2.64s-.87-2.5-.87-4.07.29-2.93.87-4.07,1.41-2.02,2.49-2.64,2.36-.93,3.83-.93,2.77.31,3.85.93,1.91,1.5,2.49,2.64.87,2.5.87,4.07-.29,2.92-.87,4.07c-.58,1.15-1.41,2.03-2.49,2.65s-2.36.93-3.83.93v-.01Zm0-1.84c1,0,1.86-.23,2.58-.7s1.28-1.14,1.67-2.01.58-1.9.58-3.09-.19-2.23-.58-3.1-.95-1.54-1.67-2c-.72-.47-1.59-.7-2.58-.7s-1.86.23-2.59.7-1.29,1.14-1.68,2-.58,1.9-.58,3.1.19,2.22.58,3.09c.39.87.95,1.54,1.68,2.01.73.47,1.59.7,2.59.7Z" fill="#c9d1d9"/>
    <path d="m285.23,201.86c-.81,0-1.56-.13-2.24-.39s-1.24-.65-1.69-1.18-.74-1.21-.89-2.04l2.07-.4c.07.8.34,1.4.83,1.79.48.4,1.1.59,1.85.59s1.34-.18,1.76-.54.63-.79.63-1.3c0-.44-.15-.79-.46-1.06-.3-.27-.77-.45-1.39-.56l-1.25-.24c-.37-.06-.76-.15-1.16-.27-.41-.12-.79-.29-1.14-.51s-.64-.51-.86-.87c-.22-.36-.33-.82-.33-1.37,0-.73.19-1.33.57-1.81s.9-.83,1.54-1.08c.65-.24,1.35-.36,2.13-.36s1.51.12,2.12.37,1.12.6,1.51,1.06c.39.46.65,1.02.77,1.69l-2.13.43c-.05-.38-.15-.72-.32-1.01-.16-.29-.4-.52-.72-.68s-.73-.25-1.24-.25c-.6,0-1.11.12-1.53.37s-.63.62-.63,1.11c0,.29.08.53.24.73s.39.37.7.49c.31.13.69.24,1.14.33l1.3.27c.58.11,1.12.28,1.62.51s.9.55,1.2.96c.3.41.46.96.46,1.64,0,.75-.19,1.38-.57,1.92s-.91.94-1.58,1.22-1.44.42-2.32.42l.01.02Z" fill="#c9d1d9"/>
    <path d="m296.97,201.86c-1.07,0-2-.24-2.79-.71s-1.39-1.14-1.81-2.01-.64-1.89-.64-3.08.21-2.22.64-3.08,1.03-1.53,1.81-2,1.71-.71,2.78-.71c.81,0,1.53.15,2.18.44s1.2.72,1.66,1.28c.45.56.78,1.23.98,2.03l-2.06.5c-.18-.84-.51-1.48-.98-1.92s-1.06-.66-1.78-.66c-.97,0-1.71.36-2.22,1.09s-.76,1.74-.76,3.05.25,2.32.76,3.04,1.25,1.08,2.22,1.08c.71,0,1.3-.21,1.77-.63s.8-1.04.99-1.85l2.03.49c-.16.59-.39,1.12-.69,1.57s-.66.83-1.07,1.14-.88.54-1.38.7c-.51.16-1.05.24-1.64.24h0Z" fill="#c9d1d9"/>
    <path d="m308.33,201.6v-1.39l5.21-4.37c.67-.57,1.22-1.08,1.64-1.55s.73-.94.93-1.43.3-1.02.3-1.61c0-.66-.11-1.2-.33-1.63-.22-.43-.54-.75-.96-.96s-.92-.32-1.51-.32c-.7,0-1.27.14-1.7.43-.43.28-.74.66-.94,1.13s-.32.99-.35,1.56l-2.31-.69c.06-.68.32-1.34.77-1.98s1.06-1.17,1.84-1.58,1.67-.62,2.7-.62c.59,0,1.18.08,1.78.25s1.15.43,1.65.79.91.83,1.21,1.41.46,1.28.46,2.1c0,1.16-.33,2.21-.99,3.14s-1.58,1.85-2.77,2.77l-3.92,3.07-1.14-.34h9.02v1.84h-10.59v-.02Z" fill="#c9d1d9"/>
  </g>
  <line x1="291.6" y1="352.8" x2="291.6" y2="208.8" fill="none" stroke="#c9d1d9" stroke-miterlimit="10" stroke-width="2.83"/>
  <rect x="435.6" y="64.8" width="144" height="144" fill="none" stroke="#c9d1d9" stroke-miterlimit="10" stroke-width="2.83"/>
  <g>
    <line x1="471.6" y1="28.8" x2="471.6" y2="52.24" fill="none" stroke="#c9d1d9" stroke-miterlimit="10" stroke-width="2.83"/>
    <polygon points="467.48 49.44 471.6 64.8 475.72 49.44 467.48 49.44" fill="#c9d1d9"/>
  </g>
  <g>
    <line x1="543.6" y1="28.8" x2="543.6" y2="52.24" fill="none" stroke="#c9d1d9" stroke-miterlimit="10" stroke-width="2.83"/>
    <polygon points="539.48 49.44 543.6 64.8 547.72 49.44 539.48 49.44" fill="#c9d1d9"/>
  </g>
  <path d="m453.6,136.8c8.56-18,17.21-36,27-36,19.59,0,34.41,72,54,72,9.79,0,18.4-18,27-36" fill="none" stroke="#307eef" stroke-linecap="round" stroke-width="2.83"/>
  <g>
    <path d="m445.98,21.85c-.73,0-1.38-.14-1.93-.41-.56-.27-.99-.66-1.3-1.15s-.47-1.06-.47-1.71c0-.7.21-1.33.62-1.89s1.03-1,1.86-1.32,1.88-.49,3.14-.49h1.77l-.18.21v-.62c0-.84-.17-1.48-.5-1.93-.33-.44-.88-.67-1.66-.67s-1.3.19-1.7.57c-.39.38-.61.9-.64,1.55l-2.26-.47c.08-.59.31-1.14.71-1.63s.93-.89,1.61-1.18,1.48-.44,2.4-.44,1.67.17,2.27.5,1.04.82,1.33,1.48c.29.65.44,1.46.44,2.44v4.71c0,.23.03.38.1.45.06.08.2.11.42.11h.59v1.65h-1.2c-.55,0-1-.16-1.34-.48s-.51-.75-.51-1.27v-.71l.33.05c-.1.29-.25.59-.45.9-.19.31-.45.59-.76.86s-.69.48-1.13.65-.96.25-1.56.25v-.01Zm.52-1.61c.54,0,1.04-.13,1.49-.4.45-.26.82-.67,1.09-1.23s.41-1.27.41-2.14v-.13h-1.61c-.86,0-1.54.11-2.03.34s-.84.5-1.04.84-.3.66-.3.98.07.6.21.87c.14.26.36.48.65.64s.67.24,1.13.24v-.01Z" fill="#c9d1d9"/>
    <path d="m454.89,21.6v-11.07h1.98v1.87c.28-.59.72-1.1,1.31-1.51s1.29-.62,2.11-.62c.75,0,1.39.2,1.93.59s.94.96,1.2,1.69c.37-.7.86-1.26,1.47-1.67s1.31-.62,2.09-.62c1.07,0,1.92.39,2.53,1.16.61.78.92,1.86.92,3.26v6.91h-2.08v-6.83c0-.57-.06-1.06-.17-1.49s-.31-.75-.59-.99-.65-.35-1.13-.35c-.53,0-1.01.16-1.42.48s-.74.77-.97,1.36-.35,1.3-.35,2.12v5.7h-2.08v-6.83c0-.57-.06-1.06-.18-1.49-.12-.42-.31-.75-.58-.99s-.64-.35-1.12-.35c-.53,0-1.01.16-1.43.47s-.74.77-.98,1.35c-.24.59-.35,1.3-.35,2.13v5.7h-2.08l-.03.02Z" fill="#c9d1d9"/>
    <path d="m473.44,25.6v-15.07h1.97v2.29l-.05-.16c.32-.81.82-1.4,1.51-1.79s1.42-.58,2.2-.58c.91,0,1.71.24,2.39.71s1.22,1.14,1.59,2.01c.38.87.57,1.9.57,3.09s-.19,2.23-.57,3.09c-.38.87-.92,1.53-1.6,1.99s-1.48.7-2.39.7c-.75,0-1.47-.18-2.16-.55s-1.22-.98-1.6-1.84l.19-.07v6.2h-2.05v-.02Zm4.97-5.42c.88,0,1.59-.36,2.13-1.08s.82-1.74.82-3.07-.27-2.3-.79-3.01-1.24-1.08-2.14-1.08c-.54,0-1.04.15-1.49.44-.45.29-.82.74-1.09,1.34s-.4,1.37-.4,2.32c0,1.4.29,2.44.87,3.12.58.68,1.28,1.02,2.1,1.02h-.01Z" fill="#c9d1d9"/>
    <path d="m495.67,21.86c-.95,0-1.83-.18-2.62-.54s-1.45-.89-1.96-1.57c-.51-.69-.8-1.53-.89-2.52l2.19-.67c.06,1.08.37,1.94.94,2.58.56.64,1.33.96,2.3.96.86,0,1.58-.25,2.15-.74s.86-1.22.86-2.16c0-.39-.08-.79-.25-1.22-.16-.42-.46-.78-.88-1.07s-1.02-.44-1.79-.44h-1.81v-1.72h1.75c.81,0,1.44-.22,1.88-.65s.66-.92.66-1.48c0-.64-.22-1.18-.67-1.64s-1.08-.68-1.91-.68c-.98,0-1.71.28-2.18.84s-.75,1.35-.82,2.38l-2.17-.65c.04-.7.28-1.38.72-2.04s1.05-1.21,1.83-1.64,1.69-.65,2.74-.65c.86,0,1.65.16,2.35.49.71.33,1.27.77,1.68,1.35.41.58.62,1.24.62,2.01,0,.49-.1.95-.3,1.37-.2.42-.51.78-.92,1.08s-.95.51-1.59.64c1.06.18,1.89.62,2.48,1.3s.89,1.48.89,2.4c0,.81-.15,1.51-.45,2.1-.3.58-.7,1.06-1.21,1.44s-1.07.65-1.7.83c-.62.18-1.27.27-1.93.27l.01.04Z" fill="#c9d1d9"/>
  </g>
  <g>
    <path d="m515.31,12.18v-1.65h6.06v1.65h-6.06Zm1.6,9.42v-12.98c0-.85.21-1.47.62-1.84s1.09-.56,2.04-.56h1.6v1.65h-1.61c-.21,0-.35.04-.44.13s-.13.24-.13.44v13.16h-2.08,0Z" fill="#c9d1d9"/>
    <path d="m523.38,21.6v-11.07h1.98v2.39l-.07-.29c.33-.78.83-1.37,1.48-1.76.65-.4,1.33-.59,2.02-.59.2,0,.4.02.59.05s.39.09.56.17l-.24,1.9c-.39-.12-.78-.18-1.16-.18-.26,0-.57.05-.92.15-.35.1-.69.29-1.02.57s-.6.69-.83,1.24c-.22.54-.33,1.26-.33,2.14v5.3h-2.08l.02-.02Z" fill="#c9d1d9"/>
    <path d="m536.17,21.86c-1.07,0-2-.24-2.79-.71-.79-.48-1.41-1.15-1.85-2.01s-.66-1.89-.66-3.07.22-2.21.66-3.07,1.05-1.53,1.84-2.01c.79-.47,1.7-.71,2.75-.71.59,0,1.19.09,1.79.28s1.15.51,1.65.98.9,1.1,1.2,1.91c.3.81.45,1.84.45,3.08h-8.99v-1.49h7.17l-.45.62c-.03-.9-.18-1.63-.45-2.18-.26-.55-.61-.95-1.03-1.2-.42-.25-.88-.37-1.39-.37-.62,0-1.15.17-1.59.5s-.78.81-1.01,1.43-.35,1.37-.35,2.26c0,1.3.26,2.31.78,3.03.52.72,1.28,1.08,2.26,1.08.7,0,1.29-.18,1.76-.53s.83-.87,1.07-1.54l1.98.6c-.27.68-.63,1.25-1.1,1.71s-1.01.82-1.64,1.06-1.32.36-2.06.36v-.01Z" fill="#c9d1d9"/>
    <path d="m551.41,25.6v-6.29l.16.16c-.32.81-.82,1.4-1.5,1.79s-1.42.58-2.21.58c-.9,0-1.7-.24-2.38-.71-.69-.47-1.22-1.14-1.59-2.01s-.56-1.9-.56-3.09.19-2.23.57-3.09c.38-.86.91-1.53,1.6-1.99s1.48-.7,2.39-.7c.75,0,1.46.18,2.16.55.69.37,1.23.98,1.59,1.84l-.11.07v-2.2h1.97v15.07h-2.08l-.01.02Zm-2.91-5.42c.55,0,1.06-.14,1.51-.43s.81-.73,1.08-1.34c.27-.6.4-1.38.4-2.31,0-1.41-.29-2.45-.87-3.13s-1.28-1.02-2.1-1.02c-.87,0-1.58.36-2.13,1.08s-.83,1.74-.83,3.07.26,2.3.79,3.01c.53.71,1.24,1.07,2.14,1.07h.01Z" fill="#c9d1d9"/>
    <path d="m566.34,21.86c-.95,0-1.83-.18-2.62-.54s-1.45-.89-1.96-1.57c-.51-.69-.8-1.53-.89-2.52l2.19-.67c.06,1.08.37,1.94.94,2.58.56.64,1.33.96,2.3.96.86,0,1.58-.25,2.15-.74s.86-1.22.86-2.16c0-.39-.08-.79-.25-1.22-.16-.42-.46-.78-.88-1.07s-1.02-.44-1.79-.44h-1.81v-1.72h1.75c.81,0,1.44-.22,1.88-.65s.66-.92.66-1.48c0-.64-.22-1.18-.67-1.64s-1.08-.68-1.91-.68c-.98,0-1.71.28-2.18.84s-.75,1.35-.82,2.38l-2.17-.65c.04-.7.28-1.38.72-2.04.44-.66,1.05-1.21,1.83-1.64s1.69-.65,2.74-.65c.86,0,1.65.16,2.35.49.71.33,1.27.77,1.68,1.35.41.58.62,1.24.62,2.01,0,.49-.1.95-.3,1.37s-.51.78-.92,1.08-.95.51-1.59.64c1.06.18,1.89.62,2.48,1.3s.89,1.48.89,2.4c0,.81-.15,1.51-.45,2.1-.3.58-.7,1.06-1.21,1.44s-1.07.65-1.7.83c-.62.18-1.27.27-1.93.27l.01.04Z" fill="#c9d1d9"/>
  </g>
  <g>
    <path d="m487.47,201.86c-1.48,0-2.77-.31-3.85-.93-1.08-.62-1.91-1.5-2.49-2.64s-.87-2.5-.87-4.07.29-2.93.87-4.07,1.41-2.02,2.49-2.64,2.36-.93,3.83-.93,2.77.31,3.85.93,1.91,1.5,2.49,2.64.87,2.5.87,4.07-.29,2.92-.87,4.07c-.58,1.15-1.41,2.03-2.49,2.65s-2.36.93-3.83.93v-.01Zm0-1.84c1,0,1.86-.23,2.58-.7s1.28-1.14,1.67-2.01.58-1.9.58-3.09-.19-2.23-.58-3.1-.95-1.54-1.67-2c-.72-.47-1.59-.7-2.58-.7s-1.86.23-2.59.7-1.29,1.14-1.68,2-.58,1.9-.58,3.1.19,2.22.58,3.09c.39.87.95,1.54,1.68,2.01.73.47,1.59.7,2.59.7Z" fill="#c9d1d9"/>
    <path d="m501.19,201.86c-.81,0-1.56-.13-2.24-.39s-1.24-.65-1.69-1.18-.74-1.21-.89-2.04l2.07-.4c.07.8.34,1.4.83,1.79.48.4,1.1.59,1.85.59s1.34-.18,1.76-.54.63-.79.63-1.3c0-.44-.15-.79-.46-1.06-.3-.27-.77-.45-1.39-.56l-1.25-.24c-.37-.06-.76-.15-1.16-.27-.41-.12-.79-.29-1.14-.51s-.64-.51-.86-.87c-.22-.36-.33-.82-.33-1.37,0-.73.19-1.33.57-1.81s.9-.83,1.54-1.08c.65-.24,1.35-.36,2.13-.36s1.51.12,2.12.37,1.12.6,1.51,1.06c.39.46.65,1.02.77,1.69l-2.13.43c-.05-.38-.15-.72-.32-1.01-.16-.29-.4-.52-.72-.68s-.73-.25-1.24-.25c-.6,0-1.11.12-1.53.37s-.63.62-.63,1.11c0,.29.08.53.24.73s.39.37.7.49c.31.13.69.24,1.14.33l1.3.27c.58.11,1.12.28,1.62.51s.9.55,1.2.96c.3.41.46.96.46,1.64,0,.75-.19,1.38-.57,1.92s-.91.94-1.58,1.22-1.44.42-2.32.42l.01.02Z" fill="#c9d1d9"/>
    <path d="m512.93,201.86c-1.07,0-2-.24-2.79-.71s-1.39-1.14-1.81-2.01-.64-1.89-.64-3.08.21-2.22.64-3.08,1.03-1.53,1.81-2,1.71-.71,2.78-.71c.81,0,1.53.15,2.18.44s1.2.72,1.66,1.28c.45.56.78,1.23.98,2.03l-2.06.5c-.18-.84-.51-1.48-.98-1.92s-1.06-.66-1.78-.66c-.97,0-1.71.36-2.22,1.09s-.76,1.74-.76,3.05.25,2.32.76,3.04,1.25,1.08,2.22,1.08c.71,0,1.3-.21,1.77-.63.47-.42.8-1.04.99-1.85l2.03.49c-.16.59-.39,1.12-.69,1.57s-.66.83-1.07,1.14-.88.54-1.38.7c-.51.16-1.05.24-1.64.24h0Z" fill="#c9d1d9"/>
    <path d="m529.72,201.86c-.95,0-1.83-.18-2.62-.54s-1.45-.89-1.96-1.57c-.51-.69-.8-1.53-.89-2.52l2.19-.67c.06,1.08.37,1.94.94,2.58.56.64,1.33.96,2.3.96.86,0,1.58-.25,2.15-.74s.86-1.22.86-2.16c0-.39-.08-.79-.25-1.22-.16-.42-.46-.78-.88-1.07-.42-.29-1.02-.44-1.79-.44h-1.81v-1.72h1.75c.81,0,1.44-.22,1.88-.65s.66-.92.66-1.48c0-.64-.22-1.18-.67-1.64s-1.08-.68-1.91-.68c-.98,0-1.71.28-2.18.84s-.75,1.35-.82,2.38l-2.17-.65c.04-.7.28-1.38.72-2.04.44-.66,1.05-1.21,1.83-1.64s1.69-.65,2.74-.65c.86,0,1.65.16,2.35.49.71.33,1.27.77,1.68,1.35s.62,1.24.62,2.01c0,.49-.1.95-.3,1.37s-.51.78-.92,1.08-.95.51-1.59.64c1.06.18,1.89.62,2.48,1.3s.89,1.48.89,2.4c0,.81-.15,1.51-.45,2.1-.3.58-.7,1.06-1.21,1.44s-1.07.65-1.7.83c-.62.18-1.27.27-1.93.27l.01.04Z" fill="#c9d1d9"/>
  </g>
  <line x1="507.6" y1="352.8" x2="507.6" y2="208.8" fill="none" stroke="#c9d1d9" stroke-miterlimit="10" stroke-width="2.83"/>
  <rect x="651.6" y="64.8" width="144" height="144" fill="none" stroke="#c9d1d9" stroke-miterlimit="10" stroke-width="2.83"/>
  <g>
    <line x1="687.6" y1="28.8" x2="687.6" y2="52.24" fill="none" stroke="#c9d1d9" stroke-miterlimit="10" stroke-width="2.83"/>
    <polygon points="683.48 49.44 687.6 64.8 691.72 49.44 683.48 49.44" fill="#c9d1d9"/>
  </g>
  <g>
    <line x1="759.6" y1="28.8" x2="759.6" y2="52.24" fill="none" stroke="#c9d1d9" stroke-miterlimit="10" stroke-width="2.83"/>
    <polygon points="755.48 49.44 759.6 64.8 763.72 49.44 755.48 49.44" fill="#c9d1d9"/>
  </g>
  <path d="m669.6,136.8c8.56-18,17.21-36,27-36,19.59,0,34.41,72,54,72,9.79,0,18.4-18,27-36" fill="none" stroke="#307eef" stroke-linecap="round" stroke-width="2.83"/>
  <g>
    <path d="m661.84,21.85c-.73,0-1.38-.14-1.93-.41-.56-.27-.99-.66-1.3-1.15s-.47-1.06-.47-1.71c0-.7.21-1.33.62-1.89s1.03-1,1.86-1.32c.83-.32,1.88-.49,3.14-.49h1.77l-.18.21v-.62c0-.84-.17-1.48-.5-1.93-.33-.44-.88-.67-1.66-.67s-1.3.19-1.7.57c-.39.38-.61.9-.64,1.55l-2.26-.47c.08-.59.31-1.14.71-1.63s.93-.89,1.61-1.18,1.48-.44,2.4-.44,1.67.17,2.27.5,1.04.82,1.33,1.48c.29.65.44,1.46.44,2.44v4.71c0,.23.03.38.1.45.06.08.2.11.42.11h.59v1.65h-1.2c-.55,0-1-.16-1.34-.48s-.51-.75-.51-1.27v-.71l.33.05c-.1.29-.25.59-.45.9-.19.31-.45.59-.76.86s-.69.48-1.13.65-.96.25-1.56.25v-.01Zm.52-1.61c.54,0,1.04-.13,1.49-.4.45-.26.82-.67,1.09-1.23s.41-1.27.41-2.14v-.13h-1.61c-.86,0-1.54.11-2.03.34s-.84.5-1.04.84-.3.66-.3.98.07.6.21.87c.14.26.36.48.65.64s.67.24,1.13.24v-.01Z" fill="#c9d1d9"/>
    <path d="m670.75,21.6v-11.07h1.98v1.87c.28-.59.72-1.1,1.31-1.51s1.29-.62,2.11-.62c.75,0,1.39.2,1.93.59s.94.96,1.2,1.69c.37-.7.86-1.26,1.47-1.67s1.31-.62,2.09-.62c1.07,0,1.92.39,2.53,1.16.61.78.92,1.86.92,3.26v6.91h-2.08v-6.83c0-.57-.06-1.06-.17-1.49s-.31-.75-.59-.99-.65-.35-1.13-.35c-.53,0-1.01.16-1.42.48s-.74.77-.97,1.36-.35,1.3-.35,2.12v5.7h-2.08v-6.83c0-.57-.06-1.06-.18-1.49-.12-.42-.31-.75-.58-.99s-.64-.35-1.12-.35c-.53,0-1.01.16-1.43.47s-.74.77-.98,1.35c-.24.59-.35,1.3-.35,2.13v5.7h-2.08l-.03.02Z" fill="#c9d1d9"/>
    <path d="m689.3,25.6v-15.07h1.97v2.29l-.05-.16c.32-.81.82-1.4,1.51-1.79s1.42-.58,2.2-.58c.91,0,1.71.24,2.39.71s1.22,1.14,1.59,2.01c.38.87.57,1.9.57,3.09s-.19,2.23-.57,3.09c-.38.87-.92,1.53-1.6,1.99s-1.48.7-2.39.7c-.75,0-1.47-.18-2.16-.55s-1.22-.98-1.6-1.84l.19-.07v6.2h-2.05v-.02Zm4.97-5.42c.88,0,1.59-.36,2.13-1.08s.82-1.74.82-3.07-.27-2.3-.79-3.01-1.24-1.08-2.14-1.08c-.54,0-1.04.15-1.49.44s-.82.74-1.09,1.34-.4,1.37-.4,2.32c0,1.4.29,2.44.87,3.12.58.68,1.28,1.02,2.1,1.02h-.01Z" fill="#c9d1d9"/>
    <path d="m713.4,21.6v-4.8l.06-.08v-8.49l.54.83-6.4,7.68-.58-.66h10.31v1.83h-11.36v-1.95l7.66-9.13h1.94v14.77h-2.17Z" fill="#c9d1d9"/>
  </g>
  <g>
    <path d="m731.17,12.18v-1.65h6.06v1.65h-6.06Zm1.6,9.42v-12.98c0-.85.21-1.47.62-1.84s1.09-.56,2.04-.56h1.6v1.65h-1.61c-.21,0-.35.04-.44.13-.08.09-.13.24-.13.44v13.16h-2.08,0Z" fill="#c9d1d9"/>
    <path d="m739.24,21.6v-11.07h1.98v2.39l-.07-.29c.33-.78.83-1.37,1.48-1.76.65-.4,1.33-.59,2.02-.59.2,0,.4.02.59.05s.39.09.56.17l-.24,1.9c-.39-.12-.78-.18-1.16-.18-.26,0-.57.05-.92.15-.35.1-.69.29-1.02.57s-.6.69-.83,1.24c-.22.54-.33,1.26-.33,2.14v5.3h-2.08l.02-.02Z" fill="#c9d1d9"/>
    <path d="m752.03,21.86c-1.07,0-2-.24-2.79-.71-.79-.48-1.41-1.15-1.85-2.01s-.66-1.89-.66-3.07.22-2.21.66-3.07,1.05-1.53,1.84-2.01c.79-.47,1.7-.71,2.75-.71.59,0,1.19.09,1.79.28s1.15.51,1.65.98.9,1.1,1.2,1.91c.3.81.45,1.84.45,3.08h-8.99v-1.49h7.17l-.45.62c-.03-.9-.18-1.63-.45-2.18-.26-.55-.61-.95-1.03-1.2-.42-.25-.88-.37-1.39-.37-.62,0-1.15.17-1.59.5s-.78.81-1.01,1.43-.35,1.37-.35,2.26c0,1.3.26,2.31.78,3.03.52.72,1.28,1.08,2.26,1.08.7,0,1.29-.18,1.76-.53s.83-.87,1.07-1.54l1.98.6c-.27.68-.63,1.25-1.1,1.71s-1.01.82-1.64,1.06-1.32.36-2.06.36v-.01Z" fill="#c9d1d9"/>
    <path d="m767.27,25.6v-6.29l.16.16c-.32.81-.82,1.4-1.5,1.79-.68.39-1.42.58-2.21.58-.9,0-1.7-.24-2.38-.71-.69-.47-1.22-1.14-1.59-2.01s-.56-1.9-.56-3.09.19-2.23.57-3.09c.38-.86.91-1.53,1.6-1.99s1.48-.7,2.39-.7c.75,0,1.46.18,2.16.55.69.37,1.22.98,1.59,1.84l-.11.07v-2.2h1.97v15.07h-2.08l-.01.02Zm-2.91-5.42c.55,0,1.06-.14,1.51-.43s.81-.73,1.08-1.34c.27-.6.4-1.38.4-2.31,0-1.41-.29-2.45-.87-3.13s-1.28-1.02-2.1-1.02c-.87,0-1.58.36-2.13,1.08s-.83,1.74-.83,3.07.26,2.3.79,3.01c.53.71,1.24,1.07,2.14,1.07h.01Z" fill="#c9d1d9"/>
    <path d="m784.08,21.6v-4.8l.06-.08v-8.49l.54.83-6.4,7.68-.58-.66h10.3v1.83h-11.36v-1.95l7.66-9.13h1.94v14.77h-2.16,0Z" fill="#c9d1d9"/>
  </g>
  <g>
    <path d="m703.33,201.86c-1.48,0-2.77-.31-3.85-.93-1.08-.62-1.91-1.5-2.49-2.64s-.87-2.5-.87-4.07.29-2.93.87-4.07,1.41-2.02,2.49-2.64,2.36-.93,3.83-.93,2.77.31,3.85.93,1.91,1.5,2.49,2.64.87,2.5.87,4.07-.29,2.92-.87,4.07c-.58,1.15-1.41,2.03-2.49,2.65s-2.36.93-3.83.93v-.01Zm0-1.84c1,0,1.86-.23,2.58-.7s1.28-1.14,1.67-2.01c.39-.87.58-1.9.58-3.09s-.2-2.23-.58-3.1-.95-1.54-1.67-2c-.72-.47-1.59-.7-2.58-.7s-1.86.23-2.59.7c-.73.47-1.29,1.14-1.68,2s-.58,1.9-.58,3.1.2,2.22.58,3.09c.39.87.95,1.54,1.68,2.01s1.59.7,2.59.7Z" fill="#c9d1d9"/>
    <path d="m717.05,201.86c-.81,0-1.56-.13-2.24-.39s-1.24-.65-1.69-1.18-.74-1.21-.89-2.04l2.07-.4c.07.8.34,1.4.83,1.79.48.4,1.1.59,1.85.59s1.34-.18,1.76-.54.63-.79.63-1.3c0-.44-.15-.79-.46-1.06-.3-.27-.77-.45-1.39-.56l-1.25-.24c-.37-.06-.76-.15-1.16-.27-.41-.12-.79-.29-1.14-.51-.35-.22-.64-.51-.86-.87s-.33-.82-.33-1.37c0-.73.19-1.33.57-1.81s.9-.83,1.54-1.08c.65-.24,1.36-.36,2.13-.36s1.51.12,2.12.37,1.12.6,1.51,1.06c.39.46.65,1.02.77,1.69l-2.13.43c-.05-.38-.15-.72-.32-1.01-.16-.29-.4-.52-.72-.68s-.73-.25-1.24-.25c-.6,0-1.11.12-1.53.37-.42.25-.63.62-.63,1.11,0,.29.08.53.24.73s.39.37.7.49c.31.13.69.24,1.14.33l1.3.27c.58.11,1.12.28,1.62.51s.9.55,1.2.96.46.96.46,1.64c0,.75-.19,1.38-.57,1.92s-.91.94-1.58,1.22-1.44.42-2.32.42l.01.02Z" fill="#c9d1d9"/>
    <path d="m728.79,201.86c-1.07,0-2-.24-2.79-.71s-1.39-1.14-1.81-2.01-.64-1.89-.64-3.08.21-2.22.64-3.08,1.03-1.53,1.81-2c.78-.47,1.71-.71,2.78-.71.81,0,1.53.15,2.18.44s1.2.72,1.66,1.28c.45.56.78,1.23.98,2.03l-2.06.5c-.18-.84-.51-1.48-.98-1.92s-1.06-.66-1.78-.66c-.97,0-1.71.36-2.22,1.09-.51.73-.76,1.74-.76,3.05s.25,2.32.76,3.04c.51.72,1.25,1.08,2.22,1.08.71,0,1.3-.21,1.77-.63.47-.42.8-1.04.99-1.85l2.03.49c-.16.59-.39,1.12-.69,1.57s-.66.83-1.07,1.14c-.41.31-.88.54-1.38.7-.51.16-1.05.24-1.64.24h0Z" fill="#c9d1d9"/>
    <path d="m747.46,201.6v-4.8l.06-.08v-8.49l.54.83-6.4,7.68-.58-.66h10.3v1.83h-11.36v-1.95l7.66-9.13h1.94v14.77h-2.16,0Z" fill="#c9d1d9"/>
  </g>
  <g>
    <line x1="723.6" y1="208.8" x2="723.6" y2="280.89" fill="none" stroke="#c9d1d9" stroke-miterlimit="10" stroke-width="2.83"/>
    <polygon points="715.36 275.27 723.59 306 731.84 275.27 715.36 275.27" fill="#c9d1d9"/>
  </g>
  <rect x="1227.6" y="64.8" width="144" height="144" fill="none" stroke="#c9d1d9" stroke-miterlimit="10" stroke-width="2.83"/>
  <g>
    <line x1="1263.6" y1="28.8" x2="1263.6" y2="52.24" fill="none" stroke="#c9d1d9" stroke-miterlimit="10" stroke-width="2.83"/>
    <polygon points="1259.48 49.44 1263.6 64.8 1267.72 49.44 1259.48 49.44" fill="#c9d1d9"/>
  </g>
  <g>
    <line x1="1335.6" y1="28.8" x2="1335.6" y2="52.24" fill="none" stroke="#c9d1d9" stroke-miterlimit="10" stroke-width="2.83"/>
    <polygon points="1331.48 49.44 1335.6 64.8 1339.72 49.44 1331.48 49.44" fill="#c9d1d9"/>
  </g>
  <path d="m1245.6,136.8c8.56-18,17.21-36,27-36,19.59,0,34.41,72,54,72,9.79,0,18.4-18,27-36" fill="none" stroke="#307eef" stroke-linecap="round" stroke-width="2.83"/>
  <g>
    <path d="m1236.33,21.85c-.73,0-1.38-.14-1.93-.41-.56-.27-.99-.66-1.3-1.15s-.47-1.06-.47-1.71c0-.7.21-1.33.62-1.89s1.03-1,1.86-1.32,1.88-.49,3.14-.49h1.77l-.18.21v-.62c0-.84-.17-1.48-.5-1.93-.33-.44-.88-.67-1.66-.67s-1.3.19-1.7.57c-.39.38-.61.9-.64,1.55l-2.26-.47c.08-.59.31-1.14.71-1.63s.93-.89,1.61-1.18c.68-.29,1.48-.44,2.41-.44s1.67.17,2.27.5,1.04.82,1.33,1.48c.29.65.44,1.46.44,2.44v4.71c0,.23.03.38.1.45.06.08.2.11.42.11h.59v1.65h-1.2c-.55,0-1-.16-1.34-.48s-.51-.75-.51-1.27v-.71l.33.05c-.1.29-.25.59-.45.9-.19.31-.45.59-.76.86s-.69.48-1.13.65-.96.25-1.56.25l-.01-.01Zm.52-1.61c.54,0,1.04-.13,1.49-.4.46-.26.82-.67,1.09-1.23s.41-1.27.41-2.14v-.13h-1.61c-.86,0-1.54.11-2.03.34s-.84.5-1.04.84c-.2.33-.3.66-.3.98s.07.6.21.87c.14.26.36.48.65.64s.67.24,1.13.24v-.01Z" fill="#c9d1d9"/>
    <path d="m1245.25,21.6v-11.07h1.98v1.87c.28-.59.72-1.1,1.31-1.51.59-.41,1.29-.62,2.11-.62.75,0,1.39.2,1.93.59s.94.96,1.2,1.69c.37-.7.86-1.26,1.47-1.67s1.31-.62,2.09-.62c1.07,0,1.92.39,2.53,1.16.61.78.92,1.86.92,3.26v6.91h-2.08v-6.83c0-.57-.06-1.06-.17-1.49s-.31-.75-.59-.99c-.28-.24-.65-.35-1.13-.35-.53,0-1.01.16-1.42.48s-.74.77-.97,1.36-.35,1.3-.35,2.12v5.7h-2.08v-6.83c0-.57-.06-1.06-.18-1.49-.12-.42-.31-.75-.58-.99-.27-.24-.64-.35-1.12-.35-.53,0-1.01.16-1.43.47s-.74.77-.98,1.35c-.24.59-.35,1.3-.35,2.13v5.7h-2.08l-.03.02Z" fill="#c9d1d9"/>
    <path d="m1263.79,25.6v-15.07h1.97v2.29l-.05-.16c.32-.81.82-1.4,1.51-1.79s1.42-.58,2.21-.58c.91,0,1.71.24,2.39.71s1.22,1.14,1.59,2.01c.38.87.57,1.9.57,3.09s-.19,2.23-.57,3.09c-.38.87-.92,1.53-1.6,1.99s-1.48.7-2.39.7c-.75,0-1.47-.18-2.16-.55s-1.22-.98-1.6-1.84l.19-.07v6.2h-2.05l-.01-.02Zm4.97-5.42c.88,0,1.59-.36,2.13-1.08s.82-1.74.82-3.07-.27-2.3-.79-3.01c-.53-.72-1.24-1.08-2.14-1.08-.54,0-1.04.15-1.49.44-.46.29-.82.74-1.09,1.34s-.41,1.37-.41,2.32c0,1.4.29,2.44.87,3.12.58.68,1.28,1.02,2.1,1.02h0Z" fill="#c9d1d9"/>
    <path d="m1281.49,21.6V6.83h3.1l7.56,13.2-.49.06V6.83h2.12v14.77h-2.92l-7.75-13.27.51-.07v13.34h-2.13Z" fill="#c9d1d9"/>
  </g>
  <g>
    <path d="m1305.67,12.18v-1.65h6.06v1.65h-6.06Zm1.6,9.42v-12.98c0-.85.21-1.47.62-1.84s1.09-.56,2.04-.56h1.6v1.65h-1.61c-.21,0-.35.04-.44.13-.08.09-.13.24-.13.44v13.16h-2.08Z" fill="#c9d1d9"/>
    <path d="m1313.74,21.6v-11.07h1.98v2.39l-.07-.29c.33-.78.83-1.37,1.48-1.76.65-.4,1.33-.59,2.02-.59.2,0,.4.02.59.05s.39.09.56.17l-.24,1.9c-.39-.12-.78-.18-1.16-.18-.26,0-.57.05-.92.15-.35.1-.69.29-1.02.57s-.6.69-.83,1.24c-.22.54-.33,1.26-.33,2.14v5.3h-2.08l.02-.02Z" fill="#c9d1d9"/>
    <path d="m1326.53,21.86c-1.07,0-2-.24-2.79-.71-.79-.48-1.41-1.15-1.85-2.01s-.66-1.89-.66-3.07.22-2.21.66-3.07c.44-.86,1.05-1.53,1.84-2.01.79-.47,1.7-.71,2.75-.71.59,0,1.19.09,1.79.28.6.19,1.15.51,1.65.98s.9,1.1,1.2,1.91c.3.81.45,1.84.45,3.08h-8.99v-1.49h7.17l-.45.62c-.03-.9-.18-1.63-.45-2.18-.26-.55-.61-.95-1.03-1.2s-.88-.37-1.39-.37c-.62,0-1.15.17-1.59.5s-.78.81-1.01,1.43-.35,1.37-.35,2.26c0,1.3.26,2.31.78,3.03.52.72,1.28,1.08,2.26,1.08.7,0,1.29-.18,1.76-.53s.83-.87,1.07-1.54l1.98.6c-.27.68-.63,1.25-1.1,1.71s-1.01.82-1.64,1.06-1.32.36-2.06.36v-.01Z" fill="#c9d1d9"/>
    <path d="m1341.77,25.6v-6.29l.16.16c-.32.81-.82,1.4-1.5,1.79-.68.39-1.42.58-2.21.58-.9,0-1.7-.24-2.38-.71-.69-.47-1.22-1.14-1.59-2.01s-.56-1.9-.56-3.09.19-2.23.57-3.09c.38-.86.91-1.53,1.6-1.99s1.48-.7,2.39-.7c.75,0,1.46.18,2.16.55.69.37,1.22.98,1.59,1.84l-.11.07v-2.2h1.97v15.07h-2.08l-.01.02Zm-2.91-5.42c.55,0,1.06-.14,1.51-.43s.81-.73,1.08-1.34c.27-.6.4-1.38.4-2.31,0-1.41-.29-2.45-.87-3.13s-1.28-1.02-2.1-1.02c-.87,0-1.58.36-2.13,1.08s-.83,1.74-.83,3.07.26,2.3.79,3.01c.53.71,1.24,1.07,2.14,1.07h.01Z" fill="#c9d1d9"/>
    <path d="m1352.17,21.6V6.83h3.1l7.56,13.2-.49.06V6.83h2.12v14.77h-2.92l-7.75-13.27.51-.07v13.34h-2.13Z" fill="#c9d1d9"/>
  </g>
  <g>
    <path d="m1277.83,201.86c-1.48,0-2.76-.31-3.84-.93s-1.91-1.5-2.49-2.64-.87-2.5-.87-4.07.29-2.93.87-4.07,1.41-2.02,2.49-2.64,2.36-.93,3.83-.93,2.76.31,3.84.93,1.91,1.5,2.49,2.64.87,2.5.87,4.07-.29,2.92-.87,4.07c-.58,1.15-1.41,2.03-2.49,2.65s-2.36.93-3.83.93v-.01Zm0-1.84c1,0,1.86-.23,2.58-.7s1.28-1.14,1.67-2.01.58-1.9.58-3.09-.19-2.23-.58-3.1-.95-1.54-1.67-2c-.72-.47-1.59-.7-2.58-.7s-1.86.23-2.59.7-1.29,1.14-1.68,2-.58,1.9-.58,3.1.19,2.22.58,3.09.95,1.54,1.68,2.01c.73.47,1.59.7,2.59.7Z" fill="#c9d1d9"/>
    <path d="m1291.55,201.86c-.81,0-1.56-.13-2.24-.39s-1.24-.65-1.69-1.18-.74-1.21-.89-2.04l2.07-.4c.07.8.34,1.4.83,1.79.48.4,1.1.59,1.85.59s1.34-.18,1.76-.54.63-.79.63-1.3c0-.44-.15-.79-.46-1.06-.3-.27-.77-.45-1.39-.56l-1.25-.24c-.37-.06-.76-.15-1.16-.27-.41-.12-.79-.29-1.14-.51s-.64-.51-.86-.87-.33-.82-.33-1.37c0-.73.19-1.33.57-1.81s.9-.83,1.54-1.08c.65-.24,1.35-.36,2.13-.36s1.51.12,2.12.37,1.12.6,1.51,1.06c.39.46.65,1.02.77,1.69l-2.13.43c-.05-.38-.15-.72-.32-1.01-.16-.29-.4-.52-.72-.68s-.73-.25-1.24-.25c-.6,0-1.11.12-1.53.37s-.63.62-.63,1.11c0,.29.08.53.24.73s.39.37.7.49c.31.13.69.24,1.14.33l1.3.27c.58.11,1.12.28,1.62.51s.89.55,1.2.96c.3.41.46.96.46,1.64,0,.75-.19,1.38-.57,1.92s-.91.94-1.58,1.22-1.44.42-2.32.42l.01.02Z" fill="#c9d1d9"/>
    <path d="m1303.29,201.86c-1.07,0-2-.24-2.79-.71s-1.39-1.14-1.82-2.01-.64-1.89-.64-3.08.21-2.22.64-3.08,1.03-1.53,1.81-2,1.71-.71,2.78-.71c.81,0,1.54.15,2.18.44s1.2.72,1.66,1.28c.45.56.78,1.23.98,2.03l-2.06.5c-.18-.84-.51-1.48-.98-1.92s-1.06-.66-1.78-.66c-.97,0-1.71.36-2.22,1.09s-.76,1.74-.76,3.05.25,2.32.76,3.04c.51.72,1.25,1.08,2.22,1.08.71,0,1.3-.21,1.77-.63s.8-1.04.99-1.85l2.03.49c-.16.59-.39,1.12-.69,1.57s-.66.83-1.07,1.14c-.41.31-.88.54-1.38.7-.51.16-1.05.24-1.64.24h.01Z" fill="#c9d1d9"/>
    <path d="m1315.55,201.6v-14.77h3.1l7.56,13.2-.49.06v-13.26h2.12v14.77h-2.92l-7.75-13.27.51-.07v13.34h-2.13Z" fill="#c9d1d9"/>
  </g>
  <line x1="1299.6" y1="352.8" x2="1299.6" y2="208.8" fill="none" stroke="#c9d1d9" stroke-miterlimit="10" stroke-width="2.83"/>
  <g>
    <line x1="75.6" y1="352.8" x2="651.69" y2="352.8" fill="none" stroke="#c9d1d9" stroke-miterlimit="10" stroke-width="2.83"/>
    <polygon points="646.07 361.04 676.8 352.81 646.07 344.56 646.07 361.04" fill="#c9d1d9"/>
  </g>
  <circle cx="723.6" cy="352.8" r="46.8" fill="none" stroke="#c9d1d9" stroke-miterlimit="10" stroke-width="2.83"/>
  <g>
    <line x1="795.51" y1="352.8" x2="1299.6" y2="352.8" fill="none" stroke="#c9d1d9" stroke-miterlimit="10" stroke-width="2.83"/>
    <polygon points="801.13 361.04 770.4 352.81 801.13 344.56 801.13 361.04" fill="#c9d1d9"/>
  </g>
  <path d="m710.78,367.55v-3.23l10.76-13.64-10.78-13.59v-3.28h24.38v4.31h-18.07l9.94,12.56-9.91,12.56h19.48v4.31h-25.8Z" fill="#c9d1d9"/>
  <rect x="936" y="133.2" width="7.2" height="7.2" fill="#c9d1d9" stroke="#c9d1d9" stroke-miterlimit="10" stroke-width="2.83"/>
  <rect x="1008" y="133.2" width="7.2" height="7.2" fill="#c9d1d9" stroke="#c9d1d9" stroke-miterlimit="10" stroke-width="2.83"/>
  <rect x="1080" y="133.2" width="7.2" height="7.2" fill="#c9d1d9" stroke="#c9d1d9" stroke-miterlimit="10" stroke-width="2.83"/>
  <g>
    <line x1="723.6" y1="399.6" x2="723.6" y2="424.89" fill="none" stroke="#c9d1d9" stroke-miterlimit="10" stroke-width="2.83"/>
    <polygon points="715.36 419.27 723.59 450 731.84 419.27 715.36 419.27" fill="#c9d1d9"/>
  </g>
  <g>
    <path d="m636.03,482.66c-1.07,0-2-.24-2.79-.71s-1.39-1.14-1.81-2.01-.64-1.89-.64-3.08.21-2.22.64-3.08,1.03-1.53,1.81-2c.78-.47,1.71-.71,2.78-.71.81,0,1.53.15,2.18.44s1.2.72,1.66,1.28c.45.56.78,1.23.98,2.03l-2.06.5c-.18-.84-.51-1.48-.98-1.92s-1.06-.66-1.78-.66c-.97,0-1.71.36-2.22,1.09-.51.73-.76,1.74-.76,3.05s.25,2.32.76,3.04,1.25,1.08,2.22,1.08c.71,0,1.3-.21,1.77-.63.47-.42.8-1.04.99-1.85l2.03.49c-.16.59-.39,1.12-.69,1.57s-.66.83-1.07,1.14-.88.54-1.38.7c-.51.16-1.05.24-1.64.24Z" fill="#c9d1d9"/>
    <path d="m647.9,482.66c-1.06,0-1.99-.24-2.8-.73-.81-.49-1.44-1.17-1.89-2.04-.46-.87-.68-1.88-.68-3.02s.23-2.15.68-3.02,1.08-1.55,1.89-2.04c.81-.49,1.74-.73,2.8-.73s1.99.25,2.8.74,1.44,1.17,1.89,2.04.68,1.87.68,3.01-.23,2.15-.68,3.02-1.08,1.55-1.89,2.04c-.81.49-1.74.73-2.8.73Zm0-1.66c.97,0,1.74-.37,2.3-1.11s.84-1.75.84-3.02-.28-2.29-.84-3.02-1.33-1.11-2.3-1.11-1.74.37-2.3,1.11-.84,1.75-.84,3.02.28,2.28.84,3.02,1.33,1.11,2.3,1.11Z" fill="#c9d1d9"/>
    <path d="m655.72,482.4v-11.07h1.98v1.87c.28-.59.72-1.1,1.31-1.51s1.29-.62,2.11-.62c.75,0,1.39.2,1.93.59s.94.96,1.2,1.69c.37-.7.86-1.26,1.47-1.67s1.31-.62,2.09-.62c1.07,0,1.92.39,2.53,1.16.61.78.92,1.86.92,3.26v6.91h-2.08v-6.83c0-.57-.06-1.06-.17-1.49s-.31-.75-.59-.99-.65-.35-1.13-.35c-.53,0-1.01.16-1.42.48s-.74.77-.97,1.36-.35,1.3-.35,2.12v5.7h-2.08v-6.83c0-.57-.06-1.06-.18-1.49-.12-.42-.31-.75-.58-.99s-.64-.35-1.12-.35c-.53,0-1.01.16-1.43.47s-.74.77-.98,1.35c-.24.59-.35,1.3-.35,2.13v5.7h-2.08l-.03.02Z" fill="#c9d1d9"/>
    <path d="m674.27,486.4v-15.07h1.97v2.29l-.05-.16c.32-.81.82-1.4,1.51-1.79s1.42-.58,2.2-.58c.91,0,1.71.24,2.39.71s1.22,1.14,1.59,2.01c.38.87.57,1.9.57,3.09s-.19,2.23-.57,3.09c-.38.87-.92,1.53-1.6,1.99s-1.48.7-2.39.7c-.75,0-1.47-.18-2.16-.55s-1.22-.98-1.6-1.84l.19-.07v6.2h-2.05v-.02Zm4.97-5.42c.88,0,1.59-.36,2.13-1.08s.82-1.74.82-3.07-.27-2.3-.79-3.01-1.24-1.08-2.14-1.08c-.54,0-1.04.15-1.49.44s-.82.74-1.09,1.34-.4,1.37-.4,2.32c0,1.4.29,2.44.87,3.12s1.28,1.02,2.1,1.02h-.01Z" fill="#c9d1d9"/>
    <path d="m688.76,482.4c-.54,0-.99-.16-1.35-.48s-.54-.75-.54-1.27v-13.63h2.09v13.17c0,.23.03.38.1.45.06.08.2.11.42.11h1.02v1.65h-1.74Z" fill="#c9d1d9"/>
    <path d="m697.2,482.66c-1.07,0-2-.24-2.79-.71-.79-.48-1.41-1.15-1.85-2.01-.44-.86-.66-1.89-.66-3.07s.22-2.21.66-3.07c.44-.86,1.05-1.53,1.84-2.01.79-.47,1.7-.71,2.75-.71.59,0,1.19.09,1.79.28s1.15.51,1.65.98.9,1.1,1.2,1.91.45,1.84.45,3.08h-8.99v-1.49h7.17l-.45.62c-.03-.9-.18-1.63-.45-2.18-.26-.55-.61-.95-1.03-1.2-.42-.25-.88-.37-1.39-.37-.62,0-1.15.17-1.59.5s-.78.81-1.01,1.43-.35,1.37-.35,2.26c0,1.3.26,2.31.78,3.03s1.28,1.08,2.26,1.08c.7,0,1.29-.18,1.76-.53s.83-.87,1.07-1.54l1.98.6c-.27.68-.63,1.25-1.1,1.71s-1.01.82-1.64,1.06-1.32.36-2.06.36v-.01Z" fill="#c9d1d9"/>
    <path d="m702.91,482.4l4.28-5.74-3.91-5.33h2.38l2.86,4.07,2.77-4.07h2.49l-4.08,5.39,4.29,5.68h-2.57l-3.01-4.28-3.06,4.28h-2.44Z" fill="#c9d1d9"/>
    <path d="m723.11,482.4l-2.97-11.07h2.19l2.41,9.97h-.31l2.49-9.97h2.72l2.53,10.03h-.36l2.44-10.03h2.14l-2.97,11.07h-2.92l-2.41-9.91h.36l-2.42,9.91h-2.92Z" fill="#c9d1d9"/>
    <path d="m741.23,482.65c-.73,0-1.38-.14-1.93-.41-.56-.27-.99-.66-1.3-1.15s-.47-1.06-.47-1.71c0-.7.21-1.33.62-1.89.41-.56,1.03-1,1.86-1.32.83-.32,1.88-.49,3.14-.49h1.77l-.18.21v-.62c0-.84-.17-1.48-.5-1.93-.33-.44-.88-.67-1.66-.67s-1.3.19-1.7.57c-.39.38-.61.9-.64,1.55l-2.26-.47c.08-.59.31-1.14.71-1.63s.93-.89,1.61-1.18,1.48-.44,2.4-.44,1.67.17,2.27.5,1.04.82,1.33,1.48c.29.65.44,1.46.44,2.44v4.71c0,.23.03.38.1.45.06.08.2.11.42.11h.59v1.65h-1.2c-.55,0-1-.16-1.34-.48s-.51-.75-.51-1.27v-.71l.33.05c-.1.29-.25.59-.45.9-.19.31-.45.59-.76.86s-.69.48-1.13.65-.96.25-1.56.25v-.01Zm.52-1.61c.54,0,1.04-.13,1.49-.4.45-.26.82-.67,1.09-1.23s.41-1.27.41-2.14v-.13h-1.61c-.86,0-1.54.11-2.03.34s-.84.5-1.04.84-.3.66-.3.98.07.6.21.87c.14.26.36.48.65.64s.67.24,1.13.24v-.01Z" fill="#c9d1d9"/>
    <path d="m752.51,482.4l-4.17-11.07h2.32l3.3,9.77h-.31l3.28-9.77h2.32l-4.15,11.07h-2.59Z" fill="#c9d1d9"/>
    <path d="m765.61,482.66c-1.07,0-2-.24-2.79-.71-.79-.48-1.41-1.15-1.85-2.01-.44-.86-.66-1.89-.66-3.07s.22-2.21.66-3.07c.44-.86,1.05-1.53,1.84-2.01.79-.47,1.7-.71,2.75-.71.59,0,1.19.09,1.79.28s1.15.51,1.65.98.9,1.1,1.2,1.91.45,1.84.45,3.08h-8.99v-1.49h7.17l-.45.62c-.03-.9-.18-1.63-.45-2.18-.26-.55-.61-.95-1.03-1.2-.42-.25-.88-.37-1.39-.37-.62,0-1.15.17-1.59.5s-.78.81-1.01,1.43-.35,1.37-.35,2.26c0,1.3.26,2.31.78,3.03s1.28,1.08,2.26,1.08c.7,0,1.29-.18,1.76-.53s.83-.87,1.07-1.54l1.98.6c-.27.68-.63,1.25-1.1,1.71s-1.01.82-1.64,1.06-1.32.36-2.06.36v-.01Z" fill="#c9d1d9"/>
    <path d="m771.85,472.98v-1.65h6.06v1.65h-6.06Zm1.6,9.42v-12.98c0-.85.21-1.47.62-1.84s1.09-.56,2.04-.56h1.6v1.65h-1.61c-.21,0-.35.04-.44.13s-.13.24-.13.44v13.16h-2.08,0Z" fill="#c9d1d9"/>
    <path d="m784.33,482.66c-1.06,0-1.99-.24-2.8-.73-.81-.49-1.44-1.17-1.89-2.04-.46-.87-.68-1.88-.68-3.02s.23-2.15.68-3.02,1.08-1.55,1.89-2.04c.81-.49,1.74-.73,2.8-.73s1.99.25,2.8.74,1.44,1.17,1.89,2.04.68,1.87.68,3.01-.23,2.15-.68,3.02-1.08,1.55-1.89,2.04c-.81.49-1.74.73-2.8.73Zm0-1.66c.97,0,1.74-.37,2.3-1.11s.84-1.75.84-3.02-.28-2.29-.84-3.02-1.33-1.11-2.3-1.11-1.74.37-2.3,1.11-.84,1.75-.84,3.02.28,2.28.84,3.02,1.33,1.11,2.3,1.11Z" fill="#c9d1d9"/>
    <path d="m792.16,482.4v-11.07h1.98v2.39l-.07-.29c.33-.78.83-1.37,1.48-1.76.65-.4,1.33-.59,2.02-.59.2,0,.4.02.59.05s.39.09.56.17l-.24,1.9c-.39-.12-.78-.18-1.16-.18-.26,0-.57.05-.92.15s-.69.29-1.02.57-.6.69-.83,1.24c-.22.54-.33,1.26-.33,2.14v5.3h-2.08l.02-.02Z" fill="#c9d1d9"/>
    <path d="m800.42,482.4v-11.07h1.98v1.87c.28-.59.72-1.1,1.31-1.51s1.29-.62,2.11-.62c.75,0,1.39.2,1.93.59s.94.96,1.2,1.69c.37-.7.86-1.26,1.47-1.67s1.31-.62,2.09-.62c1.07,0,1.92.39,2.53,1.16.61.78.92,1.86.92,3.26v6.91h-2.08v-6.83c0-.57-.06-1.06-.17-1.49s-.31-.75-.59-.99-.65-.35-1.13-.35c-.53,0-1.01.16-1.42.48s-.74.77-.97,1.36-.35,1.3-.35,2.12v5.7h-2.08v-6.83c0-.57-.06-1.06-.18-1.49-.12-.42-.31-.75-.58-.99s-.64-.35-1.12-.35c-.53,0-1.01.16-1.43.47s-.74.77-.98,1.35c-.24.59-.35,1.3-.35,2.13v5.7h-2.08l-.03.02Z" fill="#c9d1d9"/>
  </g>
</svg>