<?xml version="1.0" encoding="UTF-8"?>
<svg id="Signal_Flow" data-name="Signal Flow" xmlns="http://www.w3.org/2000/svg" width="1087.2" height="727.2" viewBox="0 0 1087.2 727.2">
  <g>
    <path d="m739.59,418.16c-3.19,0-5.98-.75-8.38-2.25s-4.26-3.57-5.59-6.22-1.99-5.69-1.99-9.13.64-6.31,1.91-8.91,3.1-4.64,5.47-6.13,5.22-2.24,8.53-2.24,6.3.87,8.81,2.6,4.19,4.38,5.02,7.92l-4.48,1.05c-.67-2.78-1.84-4.83-3.5-6.14s-3.64-1.97-5.92-1.97-4.4.6-6.08,1.8-2.96,2.85-3.86,4.95-1.34,4.49-1.34,7.2.46,5.18,1.37,7.29,2.2,3.75,3.86,4.93,3.61,1.77,5.86,1.77c2.45,0,4.57-.74,6.35-2.23s2.91-3.55,3.4-6.19l4.62,1.27c-.92,3.47-2.65,6.11-5.18,7.91s-5.49,2.71-8.88,2.71v.01Z" fill="#c9d1d9"/>
    <path d="m765.58,418.16c-1.69,0-3.15-.32-4.39-.97s-2.2-1.54-2.87-2.66-1.01-2.4-1.01-3.82c0-1.52.45-2.91,1.34-4.2s2.27-2.31,4.14-3.08,4.26-1.16,7.18-1.16h4.22l-.42.42v-1.38c0-2.03-.41-3.59-1.22-4.68s-2.17-1.63-4.08-1.63c-1.8,0-3.18.46-4.15,1.39s-1.48,2.18-1.55,3.74l-4.43-1.01c.14-1.36.66-2.6,1.56-3.71s2.1-2.01,3.61-2.68,3.25-1.01,5.24-1.01,3.71.39,5,1.16,2.24,1.89,2.85,3.34.91,3.2.91,5.25v11.55c0,.52.07.86.22,1.03s.46.26.95.26h1.43v3.28h-2.51c-1.06,0-1.95-.33-2.67-1s-1.08-1.5-1.08-2.52v-1.78h.59c-.25.66-.61,1.32-1.08,2s-1.06,1.31-1.78,1.9-1.57,1.06-2.57,1.42-2.14.54-3.43.54v.01Zm.89-3.28c1.3,0,2.5-.32,3.61-.96s2-1.64,2.68-3.01,1.02-3.14,1.02-5.33v-.21h-3.96c-2.08,0-3.71.27-4.91.82s-2.04,1.22-2.54,2.03-.75,1.61-.75,2.4.18,1.52.54,2.16.9,1.15,1.62,1.54,1.62.57,2.7.57l-.01-.01Z" fill="#c9d1d9"/>
    <path d="m785.55,417.6v-25.31h3.7v5.37l-.14-.61c.75-1.75,1.88-3.07,3.39-3.97s3.04-1.35,4.58-1.35c.45,0,.89.04,1.32.12s.83.21,1.21.4l-.52,3.7c-.86-.27-1.71-.4-2.55-.4-.53,0-1.19.11-1.98.32s-1.57.63-2.34,1.27-1.42,1.57-1.95,2.82c-.52,1.25-.79,2.91-.79,4.99v12.66h-3.94l.01-.01Z" fill="#c9d1d9"/>
    <path d="m803.64,417.6v-25.31h3.7v5.37l-.14-.61c.75-1.75,1.88-3.07,3.39-3.97s3.04-1.35,4.58-1.35c.45,0,.89.04,1.32.12s.83.21,1.21.4l-.52,3.7c-.86-.27-1.71-.4-2.55-.4-.53,0-1.19.11-1.98.32s-1.57.63-2.34,1.27-1.42,1.57-1.95,2.82c-.52,1.25-.79,2.91-.79,4.99v12.66h-3.94l.01-.01Z" fill="#c9d1d9"/>
    <path d="m824.43,388.04c-.91,0-1.68-.32-2.32-.96s-.96-1.41-.96-2.32.32-1.7.96-2.33,1.41-.95,2.32-.95,1.7.32,2.33.95.95,1.41.95,2.33-.32,1.68-.95,2.32-1.41.96-2.33.96Zm-1.97,29.56v-25.31h3.94v25.31h-3.94Z" fill="#c9d1d9"/>
    <path d="m844.19,418.16c-2.41,0-4.49-.54-6.25-1.62s-3.11-2.61-4.07-4.58-1.43-4.31-1.43-7,.48-5.05,1.43-7.03,2.3-3.52,4.03-4.59,3.77-1.62,6.12-1.62c1.34,0,2.69.21,4.04.64s2.59,1.17,3.7,2.23,2.02,2.5,2.7,4.34,1.02,4.15,1.02,6.95h-20.51v-3.19h17.09l-1.12,1.48c-.08-2.22-.44-4-1.08-5.34s-1.47-2.32-2.5-2.92-2.16-.9-3.41-.9c-1.48,0-2.77.39-3.84,1.16s-1.91,1.9-2.48,3.39c-.58,1.48-.87,3.3-.87,5.44,0,3.16.64,5.59,1.93,7.31s3.12,2.58,5.5,2.58c1.7,0,3.14-.43,4.3-1.29s2.02-2.1,2.57-3.73l3.87,1.31c-.61,1.47-1.42,2.72-2.44,3.76s-2.22,1.84-3.62,2.39-2.96.83-4.68.83h0Z" fill="#c9d1d9"/>
    <path d="m861.44,417.6v-25.31h3.7v5.37l-.14-.61c.75-1.75,1.88-3.07,3.39-3.97s3.04-1.35,4.58-1.35c.45,0,.89.04,1.32.12s.83.21,1.21.4l-.52,3.7c-.86-.27-1.71-.4-2.55-.4-.53,0-1.19.11-1.98.32s-1.57.63-2.34,1.27-1.42,1.57-1.95,2.82c-.52,1.25-.79,2.91-.79,4.99v12.66h-3.94l.01-.01Z" fill="#c9d1d9"/>
  </g>
  <rect x="655.2" y="435.6" width="288" height="288" fill="none" stroke="#7f7f7f" stroke-miterlimit="10" stroke-width="2.72"/>
  <g>
    <path d="m709.73,579.6c.05-.12.07-.19.07-.19l9.75-24.17,5.21-11.93,4.37-9.08,3.87-7.15,3.53-5.69,3.2-4.38,3.03-3.42,2.86-2.55,2.52-1.68,2.35-1.07,2.19-.56,2.02-.14,2.02.22,2.02.58,2.19,1.03,2.35,1.58,2.52,2.21,2.86,3.13,3.2,4.25,3.36,5.27,3.53,6.34,4.04,8.13,4.54,10.08,5.55,13.3s3.24,8.14,6.33,15.88" fill="none" stroke="#307eef" stroke-miterlimit="10" stroke-width="5.67"/>
    <path d="m799.2,579.6c.05.12.07.19.07.19l9.75,24.17,5.21,11.93,4.37,9.08,3.87,7.15,3.53,5.69,3.2,4.38,3.03,3.42,2.86,2.55,2.52,1.68,2.35,1.07,2.19.56,2.02.14,2.02-.22,2.02-.58,2.19-1.03,2.35-1.58,2.52-2.21,2.86-3.13,3.2-4.25,3.36-5.27,3.53-6.34,4.04-8.13,4.54-10.08,5.55-13.3s3.24-8.14,6.33-15.88" fill="none" stroke="#307eef" stroke-miterlimit="10" stroke-width="5.67"/>
  </g>
  <g>
    <line x1="511.2" y1="579.6" x2="617.53" y2="579.6" fill="none" stroke="#c9d1d9" stroke-miterlimit="10" stroke-width="4.25"/>
    <polygon points="609.11 591.95 655.2 579.61 609.11 567.25 609.11 591.95" fill="#c9d1d9"/>
  </g>
  <g>
    <line x1="943.2" y1="579.6" x2="1049.53" y2="579.6" fill="none" stroke="#c9d1d9" stroke-miterlimit="10" stroke-width="4.25"/>
    <polygon points="1041.11 591.95 1087.2 579.61 1041.11 567.25 1041.11 591.95" fill="#c9d1d9"/>
  </g>
  <polyline points="570.6 201.6 520.2 142.2 448.2 142.2 415.8 93.6 379.8 201.6" fill="none" stroke="#307eef" stroke-miterlimit="10" stroke-width="5.67"/>
  <g>
    <path d="m412.01,264.19l14.25-33.75h4.22l14.2,33.75h-4.5l-11.81-29.34-11.86,29.34h-4.5Zm7.31-11.06v-3.47h18.05v3.47h-18.05Z" fill="#c9d1d9"/>
    <path d="m449,264.19v-33.75h10.2c3.97,0,7.22.67,9.76,2.02s4.42,3.26,5.64,5.75,1.83,5.45,1.83,8.87c0,3.88-.72,7.08-2.16,9.61s-3.47,4.41-6.09,5.65-5.72,1.85-9.28,1.85h-9.9Zm4.22-3.47h5.25c8.92,0,13.38-4.47,13.38-13.41,0-2.73-.44-5.11-1.32-7.11s-2.28-3.56-4.2-4.65-4.43-1.64-7.56-1.64h-5.55v26.81Z" fill="#c9d1d9"/>
    <path d="m494.14,264.76c-2.59,0-4.86-.43-6.79-1.3s-3.49-2.12-4.68-3.77-1.98-3.64-2.37-5.96l5.02-1.03c.11,2.77.91,4.89,2.41,6.38s3.59,2.23,6.28,2.23c1.62,0,3-.27,4.14-.8s2-1.28,2.6-2.25.9-2.11.9-3.42c0-1.75-.5-3.05-1.51-3.9s-2.39-1.47-4.14-1.86l-4.41-.98c-.81-.19-1.75-.45-2.82-.77s-2.11-.81-3.11-1.45-1.83-1.51-2.5-2.6-1-2.49-1-4.2c0-2.17.56-3.93,1.68-5.27s2.57-2.33,4.36-2.95,3.69-.94,5.71-.94c2.33,0,4.32.37,5.99,1.11s3.01,1.79,4.03,3.15,1.71,2.98,2.07,4.88l-4.95,1.03c-.12-1.44-.48-2.65-1.05-3.64s-1.39-1.75-2.44-2.27-2.35-.79-3.91-.79c-1.27,0-2.45.19-3.55.56s-2,.96-2.68,1.76-1.03,1.84-1.03,3.12.46,2.42,1.39,3.22,2.48,1.46,4.65,1.96l4.45,1.03c1.58.36,3.07.9,4.48,1.62s2.55,1.72,3.42,3.01,1.31,2.99,1.31,5.1-.48,3.91-1.44,5.41-2.34,2.64-4.12,3.43-3.93,1.18-6.41,1.18l.02-.03Z" fill="#c9d1d9"/>
    <path d="m512.33,264.19v-33.75h12.87c7.81,0,11.72,2.96,11.72,8.88s-3.93,8.95-11.79,8.95h-8.58v15.91h-4.22v.01Zm4.22-19.38h8.65c2.38,0,4.2-.46,5.48-1.39s1.92-2.27,1.92-4.02-.64-3.12-1.92-4.07-3.11-1.42-5.48-1.42h-8.65v10.9h0Zm15.59,19.38l-8.95-17.09h4.78l8.95,17.09h-4.78Z" fill="#c9d1d9"/>
  </g>
  <rect x="331.2" y="3.6" width="288" height="288" fill="none" stroke="#7f7f7f" stroke-miterlimit="10" stroke-width="1.96"/>
  <g>
    <path d="m39.68,417.6l1.88-33.75h6.94l9.56,30.7h-.94l9.61-30.7h6.94l1.88,33.75h-4.08l-1.64-30.56h.07l-9.91,30.56h-4.69l-9.96-30.56h.07l-1.64,30.56h-4.09Z" fill="#c9d1d9"/>
    <path d="m92.77,418.16c-2.38,0-4.47-.56-6.28-1.68s-3.23-2.67-4.24-4.65-1.52-4.28-1.52-6.89.51-4.91,1.52-6.89,2.43-3.54,4.24-4.65,3.91-1.68,6.28-1.68,4.47.56,6.28,1.68,3.23,2.67,4.24,4.65,1.52,4.28,1.52,6.89-.51,4.91-1.52,6.89-2.43,3.54-4.24,4.65-3.91,1.68-6.28,1.68Zm0-3.28c2.39,0,4.28-.89,5.66-2.67s2.07-4.2,2.07-7.27-.69-5.5-2.07-7.28-3.27-2.66-5.66-2.66-4.28.89-5.66,2.66-2.07,4.2-2.07,7.28.69,5.48,2.07,7.27,3.27,2.67,5.66,2.67Z" fill="#c9d1d9"/>
    <path d="m120.75,418.16c-2.05,0-3.86-.54-5.43-1.62s-2.79-2.61-3.67-4.59-1.31-4.33-1.31-7.03.44-5.04,1.32-7.02,2.11-3.5,3.67-4.57,3.37-1.61,5.41-1.61c1.66,0,3.3.41,4.92,1.24s2.85,2.23,3.68,4.2l-.45.19v-14.91h3.94v35.16h-3.7v-5.27l.12.38c-.69,1.84-1.83,3.21-3.42,4.11s-3.29,1.35-5.09,1.35l.01-.01Zm1.03-3.28c1.33,0,2.54-.34,3.63-1.03s1.97-1.76,2.62-3.22c.65-1.46.98-3.33.98-5.61,0-3.41-.7-5.93-2.11-7.56s-3.1-2.45-5.09-2.45c-2.09,0-3.81.86-5.16,2.59s-2.02,4.2-2.02,7.42.65,5.55,1.95,7.28,3.02,2.59,5.18,2.59l.02-.01Z" fill="#c9d1d9"/>
    <path d="m148.67,418.16c-1.77,0-3.3-.4-4.59-1.2s-2.3-1.94-3-3.42-1.05-3.26-1.05-5.32v-15.94h3.94v15.63c0,2.06.39,3.74,1.17,5.03s2.19,1.93,4.22,1.93c1.52,0,2.83-.39,3.94-1.17s1.97-1.95,2.59-3.52.93-3.52.93-5.86v-12.05h3.94v25.31h-3.7v-5.95l.16,1.03c-.66,1.56-1.71,2.87-3.18,3.91s-3.25,1.57-5.36,1.57l-.01.02Z" fill="#c9d1d9"/>
    <path d="m172.04,417.6c-1,0-1.88-.33-2.62-1s-1.12-1.5-1.12-2.52v-31.64h3.94v30.59c0,.52.07.86.22,1.03s.46.26.95.26h2.46v3.28h-3.83Z" fill="#c9d1d9"/>
    <path d="m187.39,418.16c-1.69,0-3.15-.32-4.39-.97s-2.2-1.54-2.87-2.66-1.01-2.4-1.01-3.82c0-1.52.45-2.91,1.34-4.2s2.27-2.31,4.14-3.08,4.26-1.16,7.18-1.16h4.22l-.42.42v-1.38c0-2.03-.41-3.59-1.22-4.68s-2.17-1.63-4.08-1.63c-1.8,0-3.18.46-4.15,1.39s-1.48,2.18-1.55,3.74l-4.43-1.01c.14-1.36.66-2.6,1.56-3.71s2.1-2.01,3.61-2.68,3.25-1.01,5.24-1.01,3.71.39,5,1.16,2.24,1.89,2.85,3.34.91,3.2.91,5.25v11.55c0,.52.07.86.22,1.03s.46.26.95.26h1.43v3.28h-2.51c-1.06,0-1.95-.33-2.67-1s-1.08-1.5-1.08-2.52v-1.78h.59c-.25.66-.61,1.32-1.08,2s-1.06,1.31-1.78,1.9-1.57,1.06-2.57,1.42-2.14.54-3.43.54v.01Zm.89-3.28c1.3,0,2.5-.32,3.61-.96s2-1.64,2.68-3.01,1.02-3.14,1.02-5.33v-.21h-3.96c-2.08,0-3.71.27-4.91.82s-2.04,1.22-2.54,2.03-.75,1.61-.75,2.4.18,1.52.54,2.16.9,1.15,1.62,1.54,1.62.57,2.7.57l-.01-.01Z" fill="#c9d1d9"/>
    <path d="m211.86,417.6c-1,0-1.88-.33-2.62-1s-1.12-1.5-1.12-2.52v-18.52h-4.08v-3.28h4.08v-5.3l3.94-.84v6.14h5.02v3.28h-5.02v17.46c0,.52.07.86.22,1.03s.46.26.95.26h3.87v3.28h-5.23l-.01.01Z" fill="#c9d1d9"/>
    <path d="m232.25,418.16c-2.38,0-4.47-.56-6.28-1.68s-3.23-2.67-4.24-4.65-1.52-4.28-1.52-6.89.51-4.91,1.52-6.89,2.43-3.54,4.24-4.65,3.91-1.68,6.28-1.68,4.47.56,6.28,1.68,3.23,2.67,4.24,4.65,1.52,4.28,1.52,6.89-.51,4.91-1.52,6.89-2.43,3.54-4.24,4.65-3.91,1.68-6.28,1.68Zm0-3.28c2.39,0,4.28-.89,5.66-2.67s2.07-4.2,2.07-7.27-.69-5.5-2.07-7.28-3.27-2.66-5.66-2.66-4.28.89-5.66,2.66-2.07,4.2-2.07,7.28.69,5.48,2.07,7.27,3.27,2.67,5.66,2.67Z" fill="#c9d1d9"/>
    <path d="m250.18,417.6v-25.31h3.7v5.37l-.14-.61c.75-1.75,1.88-3.07,3.39-3.97s3.04-1.35,4.58-1.35c.45,0,.89.04,1.32.12s.83.21,1.21.4l-.52,3.7c-.86-.27-1.71-.4-2.55-.4-.53,0-1.19.11-1.98.32s-1.57.63-2.34,1.27-1.42,1.57-1.95,2.82-.79,2.91-.79,4.99v12.66h-3.94l.01-.01Z" fill="#c9d1d9"/>
  </g>
  <rect x="7.2" y="435.6" width="288" height="288" fill="none" stroke="#7f7f7f" stroke-miterlimit="10" stroke-width="2.72"/>
  <g>
    <path d="m61.73,579.6c.05-.12.07-.19.07-.19l9.75-24.17,5.21-11.93,4.37-9.08,3.87-7.15,3.53-5.69,3.2-4.38,3.03-3.42,2.86-2.55,2.52-1.68,2.35-1.07,2.19-.56,2.02-.14,2.02.22,2.02.58,2.19,1.03,2.35,1.58,2.52,2.21,2.86,3.13,3.2,4.25,3.36,5.27,3.53,6.34,4.04,8.13,4.54,10.08,5.55,13.3s3.24,8.14,6.33,15.88" fill="none" stroke="#307eef" stroke-miterlimit="10" stroke-width="5.67"/>
    <path d="m151.2,579.6c.05.12.07.19.07.19l9.75,24.17,5.21,11.93,4.37,9.08,3.87,7.15,3.53,5.69,3.2,4.38,3.03,3.42,2.86,2.55,2.52,1.68,2.35,1.07,2.19.56,2.02.14,2.02-.22,2.02-.58,2.19-1.03,2.35-1.58,2.52-2.21,2.86-3.13,3.2-4.25,3.36-5.27,3.53-6.34,4.04-8.13,4.54-10.08,5.55-13.3s3.24-8.14,6.33-15.88" fill="none" stroke="#307eef" stroke-miterlimit="10" stroke-width="5.67"/>
  </g>
  <circle cx="475.2" cy="579.6" r="36" fill="none" stroke="#c9d1d9" stroke-miterlimit="10" stroke-width="4.25"/>
  <line x1="295.2" y1="579.6" x2="439.2" y2="579.6" fill="none" stroke="#c9d1d9" stroke-miterlimit="10" stroke-width="4.25"/>
  <g>
    <line x1="475.2" y1="291.6" x2="475.2" y2="505.93" fill="none" stroke="#c9d1d9" stroke-miterlimit="10" stroke-width="4.25"/>
    <polygon points="462.85 497.51 475.19 543.6 487.55 497.51 462.85 497.51" fill="#c9d1d9"/>
  </g>
  <path d="m460.67,594.35l12-17.48-11.39-16.27h4.92l9.02,13.57,9.07-13.57h4.69l-11.39,16.36,12.14,17.39h-5.2l-9.47-14.18-9.56,14.18h-4.83Z" fill="#c9d1d9"/>
  <g>
    <path d="m413.92,662.4v-3.28h4.48v-27.19h-4.48v-3.28h13.17v3.28h-4.48v27.19h4.48v3.28h-13.17Z" fill="#c9d1d9"/>
    <path d="m432.81,662.4v-25.31h3.7v5.72l-.16-1.03c.67-1.45,1.73-2.69,3.19-3.71s3.22-1.54,5.3-1.54c1.8,0,3.34.4,4.64,1.2s2.3,1.93,3,3.41,1.05,3.25,1.05,5.33v15.94h-3.94v-15.63c0-2.08-.43-3.76-1.28-5.04s-2.25-1.92-4.21-1.92c-2.11,0-3.86.8-5.26,2.4s-2.1,3.92-2.1,6.95v13.24h-3.94l.01-.01Z" fill="#c9d1d9"/>
    <path d="m469.75,662.96c-2.05,0-3.86-.54-5.43-1.62s-2.79-2.61-3.67-4.59-1.31-4.33-1.31-7.03.44-5.04,1.32-7.02,2.11-3.5,3.67-4.57,3.37-1.61,5.41-1.61c1.66,0,3.3.41,4.92,1.24s2.85,2.23,3.68,4.2l-.45.19v-14.91h3.94v35.16h-3.7v-5.27l.12.38c-.69,1.84-1.83,3.21-3.42,4.11s-3.29,1.35-5.09,1.35l.01-.01Zm1.03-3.28c1.33,0,2.54-.34,3.63-1.03s1.97-1.76,2.62-3.22.98-3.33.98-5.61c0-3.41-.7-5.93-2.11-7.56s-3.1-2.45-5.09-2.45c-2.09,0-3.81.86-5.16,2.59s-2.02,4.2-2.02,7.42.65,5.55,1.95,7.28,3.02,2.59,5.18,2.59l.02-.01Z" fill="#c9d1d9"/>
    <path d="m499.63,662.96c-2.41,0-4.49-.54-6.25-1.62s-3.11-2.61-4.07-4.58-1.43-4.31-1.43-7,.48-5.05,1.43-7.03,2.3-3.52,4.03-4.59,3.77-1.62,6.12-1.62c1.34,0,2.69.21,4.04.64s2.59,1.17,3.7,2.23,2.02,2.5,2.7,4.34,1.02,4.15,1.02,6.95h-20.51v-3.19h17.09l-1.12,1.48c-.08-2.22-.44-4-1.08-5.34s-1.47-2.32-2.5-2.92-2.16-.9-3.41-.9c-1.48,0-2.77.39-3.84,1.16s-1.91,1.9-2.48,3.39-.87,3.3-.87,5.44c0,3.16.64,5.59,1.93,7.31s3.12,2.58,5.5,2.58c1.7,0,3.14-.43,4.3-1.29s2.02-2.1,2.57-3.73l3.87,1.31c-.61,1.47-1.42,2.72-2.44,3.76s-2.22,1.84-3.62,2.39-2.96.83-4.68.83Z" fill="#c9d1d9"/>
    <path d="m512.74,662.4l9.8-13.12-8.91-12.19h4.55l6.87,9.63,6.73-9.63h4.83l-9.33,12.19,9.89,13.12h-5.06l-7.27-10.15-7.41,10.15h-4.69Z" fill="#c9d1d9"/>
  </g>
</svg>