<?xml version="1.0" encoding="utf-8"?>
<!-- Generator: Adobe Illustrator 27.4.1, SVG Export Plug-In . SVG Version: 6.00 Build 0)  -->
<svg version="1.1" id="Ebene_1" xmlns="http://www.w3.org/2000/svg" xmlns:xlink="http://www.w3.org/1999/xlink" x="0px" y="0px"
	 viewBox="0 0 1920 1080" style="enable-background:new 0 0 1920 1080;" xml:space="preserve">
<style type="text/css">
	.st0{fill:#0D1117;}
	.st1{fill:url(#SVGID_1_);}
	.st2{fill:url(#SVGID_00000074407005663773274610000012363894480230581412_);}
	.st3{fill:url(#SVGID_00000085971357100074526360000011176219712545824166_);}
	.st4{fill:url(#SVGID_00000101099703097197026510000002112870597735589298_);}
	.st5{fill:#090000;}
	.st6{fill:url(#SVGID_00000124158407645549404860000002828514775027524518_);}
	.st7{opacity:0.4;fill:url(#SVGID_00000007388017643551616070000015280342533388340398_);enable-background:new    ;}
	.st8{opacity:0.6;fill:#160404;enable-background:new    ;}
	.st9{opacity:0.6;fill:url(#SVGID_00000177443505100245199150000016473263208366694066_);enable-background:new    ;}
	.st10{fill:url(#SVGID_00000145749465301627857050000009031439735513108408_);}
	.st11{fill:url(#SVGID_00000069357505613609188360000003601470577790500480_);}
	.st12{fill:url(#SVGID_00000025437794607140678780000005202243231860076170_);}
	.st13{fill:#5C3C38;}
	.st14{fill:#6A422C;}
	.st15{opacity:0.22;fill:#FFFFFF;enable-background:new    ;}
	.st16{opacity:0.16;fill:#FFFFFF;enable-background:new    ;}
	.st17{opacity:0.75;}
	.st18{fill:#FFFFFF;}
	.st19{opacity:0.76;}
	.st20{opacity:0.24;fill:#FFFFFF;enable-background:new    ;}
	.st21{opacity:0.55;}
	.st22{opacity:0.7;fill:url(#SVGID_00000065038936874811844740000011244177474209739185_);enable-background:new    ;}
	.st23{opacity:0.7;fill:url(#SVGID_00000091734205597235486120000008623815184097810865_);enable-background:new    ;}
	.st24{opacity:0.35;fill:url(#SVGID_00000082361068148740181810000004281599896169893764_);enable-background:new    ;}
</style>
<rect x="-105.3" y="-1294.9" class="st0" width="2094.8" height="3169.6"/>
<ellipse class="st0" cx="953.6" cy="633.6" rx="491.9" ry="390.9"/>
<ellipse class="st0" cx="963.4" cy="434.9" rx="508.2" ry="355.1"/>
<radialGradient id="SVGID_1_" cx="1583.1156" cy="-404.2524" r="109.37" gradientTransform="matrix(6.7099 -4.215990e-02 2.525824e-02 4.0199 -9644.5869 2228.6711)" gradientUnits="userSpaceOnUse">
	<stop  offset="0" style="stop-color:#E7E7E7"/>
	<stop  offset="0.67" style="stop-color:#4A4A4A"/>
	<stop  offset="0.88" style="stop-color:#757575"/>
	<stop  offset="1" style="stop-color:#FFFFFF"/>
</radialGradient>
<circle class="st1" cx="963.4" cy="539.1" r="436.5"/>
<radialGradient id="SVGID_00000165921226622008446860000004144635004980654490_" cx="1578.3031" cy="-373.5796" r="109.37" gradientTransform="matrix(6.6098 5.652878e-02 -3.557636e-02 4.1598 -9454.8232 2027.1248)" gradientUnits="userSpaceOnUse">
	<stop  offset="0" style="stop-color:#E7E7E7"/>
	<stop  offset="0.67" style="stop-color:#4A4A4A"/>
	<stop  offset="0.88" style="stop-color:#757575"/>
	<stop  offset="1" style="stop-color:#F2F2F2"/>
</radialGradient>
<circle style="fill:url(#SVGID_00000165921226622008446860000004144635004980654490_);" cx="963.4" cy="539.1" r="430"/>
<radialGradient id="SVGID_00000045578633757508523600000002279557661251291310_" cx="1424.8602" cy="-436.5603" r="109.37" gradientTransform="matrix(3.73 1.041611e-02 -1.052781e-02 3.77 -4352.9751 2173.4436)" gradientUnits="userSpaceOnUse">
	<stop  offset="0" style="stop-color:#000000"/>
	<stop  offset="0.69" style="stop-color:#140000"/>
	<stop  offset="0.95" style="stop-color:#383232"/>
	<stop  offset="1" style="stop-color:#000000"/>
</radialGradient>
<circle style="fill:url(#SVGID_00000045578633757508523600000002279557661251291310_);" cx="963.4" cy="539.1" r="403.9"/>
<radialGradient id="SVGID_00000168806722107946820740000006107967251327031199_" cx="1482.7228" cy="-301.8839" r="77" gradientTransform="matrix(4.36 -1.521924e-02 1.689475e-02 4.84 -5490.8208 2019.684)" gradientUnits="userSpaceOnUse">
	<stop  offset="0" style="stop-color:#000000"/>
	<stop  offset="0.91" style="stop-color:#494545;stop-opacity:0.96"/>
	<stop  offset="0.93" style="stop-color:#6C6262;stop-opacity:0.96"/>
	<stop  offset="1" style="stop-color:#090101"/>
</radialGradient>
<circle style="fill:url(#SVGID_00000168806722107946820740000006107967251327031199_);" cx="963.4" cy="539.1" r="384.4"/>
<path d="M963.4,154.7C750.5,154.7,578,327.2,578,540.1s172.5,385.4,385.4,385.4s385.4-172.5,385.4-385.4S1176.2,154.7,963.4,154.7
	L963.4,154.7L963.4,154.7z M963.4,175.2c201.5,0,364.8,163.4,364.8,364.9s-163.3,364.9-364.8,364.9S598.5,741.6,598.5,540.1
	S761.9,175.2,963.4,175.2L963.4,175.2L963.4,175.2z"/>
<circle class="st5" cx="963.4" cy="539.1" r="342"/>
<g>
	
		<linearGradient id="SVGID_00000134943628769124494090000017073578203694709633_" gradientUnits="userSpaceOnUse" x1="1003.36" y1="-263.08" x2="1003.36" y2="-636.89" gradientTransform="matrix(1 0 0 1 -40 1018)">
		<stop  offset="0" style="stop-color:#2E161F"/>
		<stop  offset="0.22" style="stop-color:#2E161F;stop-opacity:0.75"/>
		<stop  offset="1" style="stop-color:#2E161F;stop-opacity:0"/>
	</linearGradient>
	
		<ellipse style="fill:url(#SVGID_00000134943628769124494090000017073578203694709633_);" cx="963.4" cy="490.2" rx="302.1" ry="203.6"/>
	
		<linearGradient id="SVGID_00000065778649935968325220000000401070955218569396_" gradientUnits="userSpaceOnUse" x1="1277.8048" y1="282.6408" x2="1352.3148" y2="-33.3392" gradientTransform="matrix(1.32 0 0 1.32 -779.3101 401.74)">
		<stop  offset="0" style="stop-color:#847878"/>
		<stop  offset="8.000000e-02" style="stop-color:#361111"/>
		<stop  offset="0.48" style="stop-color:#000000"/>
		<stop  offset="0.88" style="stop-color:#0B0A0A;stop-opacity:0.16"/>
		<stop  offset="0.97" style="stop-color:#763E3E;stop-opacity:0.51"/>
		<stop  offset="1" style="stop-color:#321111"/>
	</linearGradient>
	
		<circle style="opacity:0.4;fill:url(#SVGID_00000065778649935968325220000000401070955218569396_);enable-background:new    ;" cx="963.4" cy="537.5" r="167.8"/>
	<circle class="st8" cx="963.4" cy="537.5" r="307.8"/>
	
		<radialGradient id="SVGID_00000047027990505605669270000010432240431589810348_" cx="1592.7421" cy="-337.7615" r="7.911" gradientTransform="matrix(19.54 0 0 19.54 -30158.8203 7134.8999)" gradientUnits="userSpaceOnUse">
		<stop  offset="0" style="stop-color:#FF0B0B"/>
		<stop  offset="0.4" style="stop-color:#FF2C2C;stop-opacity:0.31"/>
		<stop  offset="0.56" style="stop-color:#FF1D1D;stop-opacity:0.2"/>
		<stop  offset="0.78" style="stop-color:#FF1818;stop-opacity:8.000000e-02"/>
		<stop  offset="1" style="stop-color:#FF1515;stop-opacity:0.12"/>
	</radialGradient>
	
		<circle style="opacity:0.6;fill:url(#SVGID_00000047027990505605669270000010432240431589810348_);enable-background:new    ;" cx="963.4" cy="537.5" r="154.7"/>
	
		<linearGradient id="SVGID_00000008834233038523877570000016868614916639293859_" gradientUnits="userSpaceOnUse" x1="962.2665" y1="-296.5409" x2="1036.7765" y2="-612.5209" gradientTransform="matrix(1 0 0 1 -41 1012.53)">
		<stop  offset="0" style="stop-color:#847878"/>
		<stop  offset="8.000000e-02" style="stop-color:#361111"/>
		<stop  offset="0.48" style="stop-color:#000000"/>
		<stop  offset="0.88" style="stop-color:#0B0A0A;stop-opacity:0.16"/>
		<stop  offset="0.97" style="stop-color:#763E3E;stop-opacity:0.51"/>
		<stop  offset="1" style="stop-color:#321111"/>
	</linearGradient>
	<circle style="fill:url(#SVGID_00000008834233038523877570000016868614916639293859_);" cx="963.4" cy="537.5" r="127.1"/>
	
		<radialGradient id="SVGID_00000038375444526656913140000002497454877125998220_" cx="1573.3116" cy="-373.4507" r="7.9" gradientTransform="matrix(15.12 0 0 15.12 -22824.8594 6182.2007)" gradientUnits="userSpaceOnUse">
		<stop  offset="0" style="stop-color:#FF0B0B"/>
		<stop  offset="0.4" style="stop-color:#FF2C2C;stop-opacity:0.65"/>
		<stop  offset="0.72" style="stop-color:#FF1818;stop-opacity:0.35"/>
		<stop  offset="0.78" style="stop-color:#FF1616;stop-opacity:0.26"/>
		<stop  offset="0.89" style="stop-color:#FF1515;stop-opacity:0.2"/>
		<stop  offset="1" style="stop-color:#FF1515;stop-opacity:2.000000e-02"/>
	</radialGradient>
	<circle style="fill:url(#SVGID_00000038375444526656913140000002497454877125998220_);" cx="963.4" cy="537.5" r="119.7"/>
	
		<radialGradient id="SVGID_00000070078776080214285550000003718581476398412946_" cx="1406.4442" cy="-679.5837" r="7.91" gradientTransform="matrix(5.14 0 0 5.14 -6267.0298 4030.7698)" gradientUnits="userSpaceOnUse">
		<stop  offset="0" style="stop-color:#FFF4A8"/>
		<stop  offset="0.25" style="stop-color:#FFE184"/>
		<stop  offset="0.42" style="stop-color:#FFC045"/>
		<stop  offset="1" style="stop-color:#FFA919"/>
	</radialGradient>
	<circle style="fill:url(#SVGID_00000070078776080214285550000003718581476398412946_);" cx="963.4" cy="537.5" r="40.7"/>
	<path class="st13" d="M1052.9,702c63.6-20.7,88.9-33.1,118.1-52.9h52.9c-20.2,51.2-58.5,87.1-97.7,122.2L1052.9,702L1052.9,702z"/>
	<g>
		<polygon class="st14" points="921.2,713.8 931.5,714.4 931.1,718.7 920.9,718.1 		"/>
		<g id="d">
			<polygon class="st14" points="933.1,727.6 944.5,727.6 944.5,733.3 932.9,733.3 			"/>
		</g>
		<g id="d-2">
			<polygon class="st14" points="934,719.9 945.5,719.9 945.5,725.6 933.8,725.6 			"/>
		</g>
		<g id="d-3">
			<polygon class="st14" points="947.9,720.7 959.3,720.7 959.3,726.4 947.7,726.4 			"/>
		</g>
		<g id="d-4">
			<polygon class="st14" points="947.1,713.4 958.5,713.4 958.5,719.1 946.9,719.1 			"/>
		</g>
		<g id="i">
			<g id="d-5">
				<polygon class="st14" points="918.8,719.5 930.2,720.3 929.8,726 918.2,725.2 				"/>
			</g>
		</g>
		<g id="i-2">
			<g id="d-6">
				<polygon class="st14" points="905,717.9 916.3,718.7 915.9,724.4 904.3,723.5 				"/>
			</g>
		</g>
		<g id="i-3">
			<g id="d-7">
				<polygon class="st14" points="902.5,725.2 913.9,726 913.5,731.7 901.9,730.9 				"/>
			</g>
		</g>
		<g id="d-8">
			<polygon class="st14" points="886.8,724 898.2,724 898.2,729.7 886.6,729.7 			"/>
		</g>
		<g id="d-9">
			<polygon class="st14" points="837.2,737.5 848.3,740 847,745.6 835.7,743 			"/>
		</g>
		<g id="d-10">
			<polygon class="st14" points="975.6,716.6 987,716.6 987,722.3 975.4,722.3 			"/>
		</g>
		<g id="d-11">
			<polygon class="st14" points="989.4,715 1000.8,715 1000.8,720.7 989.2,720.7 			"/>
		</g>
		<g id="d-12">
			<polygon class="st14" points="977.2,724.8 988.6,724.8 988.6,730.5 977,730.5 			"/>
		</g>
		<g id="e">
			<polygon class="st14" points="1013.8,714.6 1003.6,715.2 1004,719.5 1014.2,718.9 			"/>
		</g>
		<g id="e-2">
			<polygon class="st14" points="1013,707.3 1002.8,707.9 1003.2,712.2 1013.4,711.5 			"/>
		</g>
		<g id="e-3">
			<polygon class="st14" points="1031.8,716.2 1021.5,716.8 1021.9,721.1 1032.1,720.5 			"/>
		</g>
		<g id="e-4">
			<polygon class="st14" points="1035,721.1 1024.8,721.7 1025.2,726 1035.4,725.4 			"/>
		</g>
		<g id="e-5">
			<polygon class="st14" points="1017.9,720.3 1007.7,720.9 1008.1,725.2 1018.3,724.6 			"/>
		</g>
		<g id="e-6">
			<polygon class="st14" points="1020.4,725.2 1010.1,725.8 1010.5,730.1 1020.7,729.5 			"/>
		</g>
		<g id="e-7">
			<polygon class="st14" points="1005.7,726.8 995.5,727.4 995.8,731.7 1006.1,731.1 			"/>
		</g>
		<g id="o">
			<g id="d-13">
				<polygon class="st14" points="697.8,637.7 705.3,646.3 701,650 693.4,641.3 				"/>
			</g>
		</g>
		<g id="o-2">
			<g id="d-14">
				<polygon class="st14" points="1204.3,626.3 1196.8,634.9 1201.1,638.7 1208.7,629.9 				"/>
			</g>
		</g>
	</g>
</g>
<g>
	<g id="m">
		<path class="st15" d="M774.8,355.9c-61.1,57-81.4,16.3-24.4-36.6C811.5,262.2,831.8,302.9,774.8,355.9z"/>
		<path class="st16" d="M852.2,254.1c41.1-23.7,134.4-28.5,175.1-20.4c73.3,14.7,57,60.1-16.3,48.9c-16.3-2.5-50.5-8.1-57,8.1
			c-8.5,21.2-36.7,16.3-69.2,24.4C831.8,328.4,815.6,275.2,852.2,254.1L852.2,254.1z"/>
		<path class="st15" d="M1153.5,339.6c-63.8-54-42.1-84.1,16.3-32.6C1239,368.1,1206.5,384.4,1153.5,339.6L1153.5,339.6z"/>
		<g class="st17">
			<path class="st18" d="M730,359.9c16.7-22,41.5-36.9,65.2-52.9l4.1,16.3c-22.6,14.1-45,28.6-65.2,48.9L730,359.9L730,359.9z"/>
		</g>
		<g class="st19">
			<path class="st18" d="M880.7,266.3c28.5-12.2,70.7-25.6,154.7-12.2v12.2c-20-2.9-109.9-12.2-109.9,16.3
				c-11.1,2.1-38.7,6.1-44.8,12.2L880.7,266.3L880.7,266.3z"/>
		</g>
		<g class="st19">
			<path class="st18" d="M1133.2,298.9c16.3,8.1,36.7,20.4,52.9,40.7v12.2c-16.3-20.4-36.7-28.5-52.9-36.6V298.9z"/>
		</g>
	</g>
	<g id="ap">
		<g id="ad">
			<path class="st20" d="M787.9,412.9c-54.1,0-50.3-24.4,3.9-24.4C849.8,388.4,845.9,412.9,787.9,412.9z"/>
		</g>
		<g id="ad-2">
			<path class="st20" d="M1132,412.9c-54.1,0-50.3-24.4,3.9-24.4C1193.8,388.4,1190,412.9,1132,412.9z"/>
		</g>
		<g id="p" class="st21">
			<rect x="764.7" y="396.6" class="st18" width="50.3" height="8.1"/>
		</g>
		<g id="p-2" class="st21">
			<rect x="1108.8" y="396.6" class="st18" width="50.3" height="8.1"/>
		</g>
	</g>
	<g id="ap-2">
		<g id="ad-3">
			<path class="st20" d="M925,492c-11.8,0-11-8,0.8-8C938.5,483.9,937.7,492,925,492z"/>
		</g>
		<g id="ad-4">
			<path class="st20" d="M1000.3,492c-11.8,0-11-8,0.8-8C1013.9,483.9,1013,492,1000.3,492z"/>
		</g>
		<g id="p-3" class="st21">
			<rect x="919.9" y="486.6" class="st18" width="11" height="2.7"/>
		</g>
		<g id="p-4" class="st21">
			<rect x="995.2" y="486.6" class="st18" width="11" height="2.7"/>
		</g>
	</g>
	<g id="m-2">
		<path class="st15" d="M879.9,428.7c-27,20.9-36,6-10.8-13.4C896.1,394.5,905.1,409.4,879.9,428.7z"/>
		<path class="st16" d="M914.1,391.5c18.2-8.7,59.4-10.4,77.4-7.5c32.4,5.4,25.2,22-7.2,17.9c-7.2-0.9-22.3-3-25.2,3
			c-3.8,7.8-16.2,6-30.6,8.9C905.1,418.7,897.9,399.2,914.1,391.5z"/>
		<path class="st15" d="M1047.4,422.8c-28.2-19.7-18.6-30.7,7.2-11.9C1085.2,433.2,1070.8,439.2,1047.4,422.8z"/>
		<g class="st17">
			<path class="st18" d="M860.1,430.2c7.4-8.1,18.4-13.5,28.8-19.4l1.8,6c-10,5.2-19.9,10.5-28.8,17.9L860.1,430.2L860.1,430.2z"/>
		</g>
		<g class="st19">
			<path class="st18" d="M926.7,396c12.6-4.5,31.2-9.4,68.4-4.5v4.5c-8.8-1-48.6-4.5-48.6,6c-4.9,0.8-17.1,2.2-19.8,4.5V396z"/>
		</g>
		<g class="st19">
			<path class="st18" d="M1038.4,407.9c7.2,3,16.2,7.5,23.4,14.9v4.5c-7.2-7.5-16.2-10.4-23.4-13.4V407.9z"/>
		</g>
	</g>
	<g id="m-3">
		<path class="st15" d="M915.3,472.2c-15.6,11-20.7,3.1-6.2-7.1C924.7,454.1,929.9,462,915.3,472.2z"/>
		<path class="st16" d="M935,452.5c10.5-4.6,34.2-5.5,44.6-3.9c18.7,2.8,14.5,11.6-4.2,9.4c-4.2-0.5-12.9-1.6-14.5,1.6
			c-2.2,4.1-9.3,3.1-17.6,4.7C929.9,466.9,925.7,456.6,935,452.5L935,452.5z"/>
		<path class="st15" d="M1011.8,469c-16.2-10.4-10.7-16.2,4.2-6.3C1033.6,474.5,1025.3,477.7,1011.8,469z"/>
		<g class="st17">
			<path class="st18" d="M903.9,473c4.2-4.2,10.6-7.1,16.6-10.2l1,3.1c-5.8,2.7-11.5,5.5-16.6,9.4L903.9,473L903.9,473z"/>
		</g>
		<g class="st19">
			<path class="st18" d="M942.3,454.9c7.3-2.4,18-4.9,39.4-2.4v2.4c-5.1-0.5-28-2.4-28,3.1c-2.8,0.4-9.9,1.2-11.4,2.4V454.9z"/>
		</g>
		<g class="st19">
			<path class="st18" d="M1006.6,461.2c4.2,1.6,9.3,3.9,13.5,7.9v2.4c-4.2-3.9-9.3-5.5-13.5-7.1V461.2L1006.6,461.2z"/>
		</g>
	</g>
</g>
<path d="M666.1,228c4.9,9.8,2.4,18.7,0,27.7c1.6-11.4,4.1-15.5-0.8-26.9L666.1,228z"/>
<linearGradient id="SVGID_00000083783886699411853700000008543974250931410323_" gradientUnits="userSpaceOnUse" x1="268.6346" y1="-1599.3761" x2="263.7445" y2="-1593.6761" gradientTransform="matrix(0.75 0 0 0.75 465.25 1424.25)">
	<stop  offset="0" style="stop-color:#1F1F1F"/>
	<stop  offset="1" style="stop-color:#FFFFFF"/>
</linearGradient>
<circle style="opacity:0.7;fill:url(#SVGID_00000083783886699411853700000008543974250931410323_);enable-background:new    ;" cx="665.3" cy="226.4" r="2.4"/>
<linearGradient id="SVGID_00000046327311798496004810000000402267524035002766_" gradientUnits="userSpaceOnUse" x1="1080.9576" y1="-231.611" x2="1074.6277" y2="-215.321" gradientTransform="matrix(1.92 0 0 0.52 -1478.0299 872.83)">
	<stop  offset="0" style="stop-color:#1F1F1F"/>
	<stop  offset="1" style="stop-color:#FFFFFF"/>
</linearGradient>
<path style="opacity:0.7;fill:url(#SVGID_00000046327311798496004810000000402267524035002766_);enable-background:new    ;" d="
	M581.4,750c8.1,4.1,15.5,0.8,31.8,4.9C596.9,754.9,586.3,760.6,581.4,750z"/>
<radialGradient id="SVGID_00000032616610930237866960000002250951974058588547_" cx="1275.0582" cy="-1809.418" r="2.57" gradientTransform="matrix(2.01 0 0 1.53 -1809.6801 2900.3)" gradientUnits="userSpaceOnUse">
	<stop  offset="0" style="stop-color:#D8D8D8"/>
	<stop  offset="1" style="stop-color:#171717"/>
</radialGradient>
<ellipse style="opacity:0.35;fill:url(#SVGID_00000032616610930237866960000002250951974058588547_);enable-background:new    ;" cx="752.4" cy="140.1" rx="4.9" ry="3.9"/>
</svg>
