<?xml version="1.0" encoding="UTF-8"?>
<svg id="Ebene_3" data-name="Ebene 3" xmlns="http://www.w3.org/2000/svg" viewBox="0 0 1821.6 313.2">
  <defs>
    <style>
      .cls-1, .cls-2, .cls-3, .cls-4, .cls-5, .cls-6, .cls-7 {
        fill: none;
      }

      .cls-1, .cls-2, .cls-3, .cls-4, .cls-5, .cls-7 {
        stroke-linecap: round;
      }

      .cls-1, .cls-2, .cls-3, .cls-4, .cls-7 {
        stroke-linejoin: round;
      }

      .cls-1, .cls-2, .cls-4 {
        stroke-width: 1.42px;
      }

      .cls-1, .cls-2, .cls-4, .cls-5, .cls-6 {
        stroke: #c9d1d9;
      }

      .cls-8 {
        fill: #c9d1d9;
      }

      .cls-2 {
        stroke-dasharray: 0 0 11.95 11.95;
      }

      .cls-3 {
        stroke-width: 5px;
      }

      .cls-3, .cls-7 {
        stroke: #307eef;
      }

      .cls-4 {
        stroke-dasharray: 0 0 12 12;
      }

      .cls-5 {
        stroke-width: 2.83px;
      }

      .cls-5, .cls-6 {
        stroke-miterlimit: 10;
      }

      .cls-6 {
        stroke-width: 2px;
      }

      .cls-9 {
        opacity: .5;
      }

      .cls-10 {
        isolation: isolate;
      }

      .cls-7 {
        stroke-dasharray: 0 12;
        stroke-width: 5px;
      }
    </style>
  </defs>
  <g class="cls-10">
    <g class="cls-10">
      <path class="cls-8" d="m1.45,300.16v-2.74h11.79v2.74H1.45Z"/>
      <path class="cls-8" d="m19.87,309.87v-20.16c-.93.8-1.79,1.47-2.6,2.01s-1.71,1-2.71,1.38v-2.99c.52-.25,1.06-.55,1.63-.92s1.23-.91,1.96-1.63,1.58-1.72,2.54-3h2.27v25.31h-3.09Z"/>
      <path class="cls-8" d="m30.89,310.29c-.75,0-1.38-.26-1.9-.77s-.77-1.15-.77-1.9.26-1.38.77-1.9,1.15-.77,1.9-.77,1.38.26,1.9.77.77,1.15.77,1.9-.26,1.38-.77,1.9-1.15.77-1.9.77Z"/>
      <path class="cls-8" d="m45.85,310.29c-2.93,0-5.2-1.15-6.82-3.44s-2.43-5.5-2.43-9.64.81-7.35,2.43-9.64,3.89-3.44,6.82-3.44,5.22,1.15,6.83,3.44,2.42,5.5,2.42,9.64-.81,7.35-2.42,9.64-3.89,3.44-6.83,3.44Zm0-2.53c1.95,0,3.42-.9,4.41-2.69s1.49-4.41,1.49-7.86-.5-6.06-1.49-7.86-2.47-2.69-4.41-2.69-3.42.9-4.41,2.69-1.49,4.41-1.49,7.86.5,6.06,1.49,7.86,2.47,2.69,4.41,2.69Z"/>
    </g>
  </g>
  <g class="cls-10">
    <g class="cls-10">
      <path class="cls-8" d="m19.87,93.87v-20.16c-.93.8-1.79,1.47-2.6,2.01s-1.71,1-2.71,1.38v-2.99c.52-.25,1.06-.55,1.63-.92s1.23-.91,1.96-1.63,1.58-1.72,2.54-3h2.27v25.31h-3.09Z"/>
      <path class="cls-8" d="m30.89,94.29c-.75,0-1.38-.26-1.9-.77s-.77-1.15-.77-1.9.26-1.38.77-1.9,1.15-.77,1.9-.77,1.38.26,1.9.77.77,1.15.77,1.9-.26,1.38-.77,1.9-1.15.77-1.9.77Z"/>
      <path class="cls-8" d="m45.85,94.29c-2.93,0-5.2-1.15-6.82-3.44s-2.43-5.5-2.43-9.64.81-7.35,2.43-9.64,3.89-3.44,6.82-3.44,5.22,1.15,6.83,3.44,2.42,5.5,2.42,9.64-.81,7.35-2.42,9.64-3.89,3.44-6.83,3.44Zm0-2.53c1.95,0,3.42-.9,4.41-2.69s1.49-4.41,1.49-7.86-.5-6.06-1.49-7.86-2.47-2.69-4.41-2.69-3.42.9-4.41,2.69-1.49,4.41-1.49,7.86.5,6.06,1.49,7.86,2.47,2.69,4.41,2.69Z"/>
    </g>
  </g>
  <g class="cls-10">
    <g class="cls-10">
      <path class="cls-8" d="m15.97,202.29c-2.93,0-5.2-1.15-6.82-3.44s-2.43-5.5-2.43-9.64.81-7.35,2.43-9.64,3.89-3.44,6.82-3.44,5.22,1.15,6.83,3.44,2.42,5.5,2.42,9.64-.81,7.35-2.42,9.64-3.89,3.44-6.83,3.44Zm0-2.53c1.95,0,3.42-.9,4.41-2.69s1.49-4.41,1.49-7.86-.5-6.06-1.49-7.86-2.47-2.69-4.41-2.69-3.42.9-4.41,2.69-1.49,4.41-1.49,7.86.5,6.06,1.49,7.86,2.47,2.69,4.41,2.69Z"/>
      <path class="cls-8" d="m30.89,202.29c-.75,0-1.38-.26-1.9-.77s-.77-1.15-.77-1.9.26-1.38.77-1.9,1.15-.77,1.9-.77,1.38.26,1.9.77.77,1.15.77,1.9-.26,1.38-.77,1.9-1.15.77-1.9.77Z"/>
      <path class="cls-8" d="m45.85,202.29c-2.93,0-5.2-1.15-6.82-3.44s-2.43-5.5-2.43-9.64.81-7.35,2.43-9.64,3.89-3.44,6.82-3.44,5.22,1.15,6.83,3.44,2.42,5.5,2.42,9.64-.81,7.35-2.42,9.64-3.89,3.44-6.83,3.44Zm0-2.53c1.95,0,3.42-.9,4.41-2.69s1.49-4.41,1.49-7.86-.5-6.06-1.49-7.86-2.47-2.69-4.41-2.69-3.42.9-4.41,2.69-1.49,4.41-1.49,7.86.5,6.06,1.49,7.86,2.47,2.69,4.41,2.69Z"/>
    </g>
  </g>
  <g class="cls-10">
    <g class="cls-10">
      <path class="cls-8" d="m1812.69,223.2c-.75,0-1.41-.25-1.97-.75s-.84-1.13-.84-1.89v-13.89h-3.06v-2.46h3.06v-3.97l2.95-.63v4.61h3.76v2.46h-3.76v13.1c0,.39.06.64.17.77s.35.19.71.19h2.9v2.46h-3.92Z"/>
    </g>
  </g>
  <g class="cls-10">
    <path class="cls-8" d="m79.07,39.6V12.72c-1.23,1.06-2.39,1.96-3.47,2.68s-2.28,1.34-3.61,1.84v-3.98c.69-.33,1.41-.74,2.18-1.23s1.64-1.22,2.61-2.18,2.11-2.29,3.39-4h3.02v33.75h-4.12Z"/>
    <path class="cls-8" d="m93.77,40.16c-1,0-1.84-.34-2.53-1.03s-1.03-1.53-1.03-2.53.34-1.84,1.03-2.53,1.53-1.03,2.53-1.03,1.84.34,2.53,1.03,1.03,1.53,1.03,2.53-.34,1.84-1.03,2.53-1.53,1.03-2.53,1.03Z"/>
    <path class="cls-8" d="m119.88,39.6V9.32h-12.07v-3.47h28.41v3.47h-12.12v30.28h-4.22Z"/>
    <path class="cls-8" d="m142.4,39.6l-7.03-25.31h4.17l6.02,23.39h-.73l6-23.39h5.06l6.12,23.58h-.84l6.07-23.58h4.17l-7.03,25.31h-5.53l-5.81-22.64h.7l-5.81,22.64h-5.53Z"/>
    <path class="cls-8" d="m186.77,40.16c-2.38,0-4.47-.56-6.28-1.68s-3.23-2.67-4.24-4.65-1.52-4.28-1.52-6.89.51-4.91,1.52-6.89,2.43-3.54,4.24-4.65,3.91-1.68,6.28-1.68,4.47.56,6.28,1.68,3.23,2.67,4.24,4.65,1.52,4.28,1.52,6.89-.51,4.91-1.52,6.89-2.43,3.54-4.24,4.65-3.91,1.68-6.28,1.68Zm0-3.28c2.39,0,4.28-.89,5.66-2.67s2.07-4.2,2.07-7.27-.69-5.5-2.07-7.28-3.27-2.66-5.66-2.66-4.28.89-5.66,2.66-2.07,4.2-2.07,7.28.69,5.48,2.07,7.27,3.27,2.67,5.66,2.67Z"/>
    <path class="cls-8" d="m225.65,40.16c-2.05,0-3.86-.54-5.43-1.62s-2.79-2.61-3.67-4.59-1.31-4.33-1.31-7.03.44-5.04,1.32-7.02,2.11-3.5,3.67-4.57,3.37-1.61,5.41-1.61c1.66,0,3.3.41,4.92,1.24s2.85,2.23,3.68,4.2l-.45.19V4.44h3.94v35.16h-3.7v-5.27l.12.38c-.69,1.84-1.83,3.21-3.42,4.11s-3.29,1.35-5.09,1.35Zm1.03-3.28c1.33,0,2.54-.34,3.63-1.03s1.97-1.76,2.62-3.22.98-3.33.98-5.61c0-3.41-.7-5.93-2.11-7.56s-3.1-2.45-5.09-2.45c-2.09,0-3.81.86-5.16,2.59s-2.02,4.2-2.02,7.42.65,5.55,1.95,7.28,3.02,2.59,5.18,2.59Z"/>
    <path class="cls-8" d="m247.38,10.05c-.91,0-1.68-.32-2.32-.96s-.96-1.41-.96-2.32.32-1.7.96-2.33,1.41-.95,2.32-.95,1.7.32,2.33.95.95,1.41.95,2.33-.32,1.68-.95,2.32-1.41.96-2.33.96Zm-1.97,29.55V14.29h3.94v25.31h-3.94Z"/>
    <path class="cls-8" d="m254.88,17.57v-3.28h13.38v3.28h-13.38Zm3.77,22.03V9.69c0-1.89.45-3.24,1.34-4.04s2.38-1.21,4.48-1.21h3.16v3.28h-3.73c-.47,0-.8.1-1.01.3s-.3.54-.3,1.01v30.56h-3.94Zm12.59-22.03v-3.28h13.38v3.28h-13.38Zm3.77,22.03V9.69c0-1.89.45-3.24,1.34-4.04s2.38-1.21,4.48-1.21h3.16v3.28h-3.73c-.47,0-.8.1-1.01.3s-.3.54-.3,1.01v30.56h-3.94Z"/>
    <path class="cls-8" d="m298.96,40.16c-2.41,0-4.49-.54-6.25-1.62s-3.11-2.61-4.07-4.58-1.43-4.31-1.43-7,.48-5.05,1.43-7.03,2.3-3.52,4.03-4.59,3.77-1.62,6.12-1.62c1.34,0,2.69.21,4.04.64s2.59,1.17,3.7,2.23,2.02,2.5,2.7,4.34,1.02,4.15,1.02,6.95h-20.51v-3.19h17.09l-1.12,1.48c-.08-2.22-.44-4-1.08-5.34s-1.47-2.32-2.5-2.92-2.16-.9-3.41-.9c-1.48,0-2.77.39-3.84,1.16s-1.91,1.9-2.48,3.39-.87,3.3-.87,5.44c0,3.16.64,5.59,1.93,7.31s3.12,2.58,5.5,2.58c1.7,0,3.14-.43,4.3-1.29s2.02-2.1,2.57-3.73l3.87,1.31c-.61,1.47-1.42,2.72-2.44,3.76s-2.22,1.84-3.62,2.39-2.96.83-4.68.83Z"/>
    <path class="cls-8" d="m316.21,39.6V14.29h3.7v5.37l-.14-.61c.75-1.75,1.88-3.07,3.39-3.97s3.04-1.35,4.58-1.35c.45,0,.89.04,1.32.12s.83.21,1.21.4l-.52,3.7c-.86-.27-1.71-.4-2.55-.4-.53,0-1.19.11-1.98.32s-1.57.63-2.34,1.27-1.42,1.57-1.95,2.82-.79,2.91-.79,4.99v12.66h-3.94Z"/>
    <path class="cls-8" d="m344.34,40.16c-2.41,0-4.49-.54-6.25-1.62s-3.11-2.61-4.07-4.58-1.43-4.31-1.43-7,.48-5.05,1.43-7.03,2.3-3.52,4.03-4.59,3.77-1.62,6.12-1.62c1.34,0,2.69.21,4.04.64s2.59,1.17,3.7,2.23,2.02,2.5,2.7,4.34,1.02,4.15,1.02,6.95h-20.51v-3.19h17.09l-1.12,1.48c-.08-2.22-.44-4-1.08-5.34s-1.47-2.32-2.5-2.92-2.16-.9-3.41-.9c-1.48,0-2.77.39-3.84,1.16s-1.91,1.9-2.48,3.39-.87,3.3-.87,5.44c0,3.16.64,5.59,1.93,7.31s3.12,2.58,5.5,2.58c1.7,0,3.14-.43,4.3-1.29s2.02-2.1,2.57-3.73l3.87,1.31c-.61,1.47-1.42,2.72-2.44,3.76s-2.22,1.84-3.62,2.39-2.96.83-4.68.83Z"/>
    <path class="cls-8" d="m361.59,39.6V14.29h3.7v5.72l-.16-1.03c.67-1.45,1.73-2.69,3.19-3.71s3.22-1.54,5.3-1.54c1.8,0,3.34.4,4.64,1.2s2.3,1.93,3,3.41,1.05,3.25,1.05,5.33v15.94h-3.94v-15.63c0-2.08-.43-3.76-1.28-5.04s-2.25-1.92-4.21-1.92c-2.11,0-3.86.8-5.26,2.4s-2.1,3.92-2.1,6.95v13.24h-3.94Z"/>
    <path class="cls-8" d="m394.26,39.6c-1,0-1.88-.33-2.62-1s-1.12-1.5-1.12-2.52v-18.52h-4.08v-3.28h4.08v-5.3l3.94-.84v6.14h5.02v3.28h-5.02v17.46c0,.52.07.86.22,1.03s.46.26.95.26h3.87v3.28h-5.23Z"/>
    <path class="cls-8" d="m414.86,17.57v-3.28h13.38v3.28h-13.38Zm3.77,22.03V9.69c0-1.89.45-3.24,1.34-4.04s2.38-1.21,4.48-1.21h3.16v3.28h-3.73c-.47,0-.8.1-1.01.3s-.3.54-.3,1.01v30.56h-3.94Z"/>
    <path class="cls-8" d="m433,39.6V14.29h3.7v5.37l-.14-.61c.75-1.75,1.88-3.07,3.39-3.97s3.04-1.35,4.58-1.35c.45,0,.89.04,1.32.12s.83.21,1.21.4l-.52,3.7c-.86-.27-1.71-.4-2.55-.4-.53,0-1.19.11-1.98.32s-1.57.63-2.34,1.27-1.42,1.57-1.95,2.82-.79,2.91-.79,4.99v12.66h-3.94Z"/>
    <path class="cls-8" d="m461.13,40.16c-2.41,0-4.49-.54-6.25-1.62s-3.11-2.61-4.07-4.58-1.43-4.31-1.43-7,.48-5.05,1.43-7.03,2.3-3.52,4.03-4.59,3.77-1.62,6.12-1.62c1.34,0,2.69.21,4.04.64s2.59,1.17,3.7,2.23,2.02,2.5,2.7,4.34,1.02,4.15,1.02,6.95h-20.51v-3.19h17.09l-1.12,1.48c-.08-2.22-.44-4-1.08-5.34s-1.47-2.32-2.5-2.92-2.16-.9-3.41-.9c-1.48,0-2.77.39-3.84,1.16s-1.91,1.9-2.48,3.39-.87,3.3-.87,5.44c0,3.16.64,5.59,1.93,7.31s3.12,2.58,5.5,2.58c1.7,0,3.14-.43,4.3-1.29s2.02-2.1,2.57-3.73l3.87,1.31c-.61,1.47-1.42,2.72-2.44,3.76s-2.22,1.84-3.62,2.39-2.96.83-4.68.83Z"/>
    <path class="cls-8" d="m496.17,48.74v-14.41l.35.38c-.69,1.84-1.83,3.21-3.42,4.11s-3.29,1.35-5.09,1.35c-2.05,0-3.86-.54-5.43-1.62s-2.79-2.61-3.67-4.59-1.31-4.33-1.31-7.03.44-5.04,1.32-7.02,2.11-3.5,3.67-4.57,3.37-1.61,5.41-1.61c1.66,0,3.3.41,4.92,1.24s2.85,2.23,3.68,4.2l-.21.19v-5.06h3.7v34.45h-3.94Zm-7.12-11.86c1.33,0,2.54-.34,3.63-1.03s1.97-1.76,2.62-3.22.98-3.33.98-5.61c0-3.41-.7-5.93-2.11-7.56s-3.1-2.45-5.09-2.45c-2.09,0-3.81.86-5.16,2.59s-2.02,4.2-2.02,7.42.65,5.55,1.95,7.28,3.02,2.59,5.18,2.59Z"/>
    <path class="cls-8" d="m515.93,40.16c-1.77,0-3.3-.4-4.59-1.2s-2.3-1.94-3-3.42-1.05-3.26-1.05-5.32v-15.94h3.94v15.63c0,2.06.39,3.74,1.17,5.03s2.19,1.93,4.22,1.93c1.52,0,2.83-.39,3.94-1.17s1.97-1.95,2.59-3.52.93-3.52.93-5.86v-12.05h3.94v25.31h-3.7v-5.95l.16,1.03c-.66,1.56-1.71,2.87-3.18,3.91s-3.25,1.57-5.36,1.57Z"/>
    <path class="cls-8" d="m545.78,40.16c-2.41,0-4.49-.54-6.25-1.62s-3.11-2.61-4.07-4.58-1.43-4.31-1.43-7,.48-5.05,1.43-7.03,2.3-3.52,4.03-4.59,3.77-1.62,6.12-1.62c1.34,0,2.69.21,4.04.64s2.59,1.17,3.7,2.23,2.02,2.5,2.7,4.34,1.02,4.15,1.02,6.95h-20.51v-3.19h17.09l-1.12,1.48c-.08-2.22-.44-4-1.08-5.34s-1.47-2.32-2.5-2.92-2.16-.9-3.41-.9c-1.48,0-2.77.39-3.84,1.16s-1.91,1.9-2.48,3.39-.87,3.3-.87,5.44c0,3.16.64,5.59,1.93,7.31s3.12,2.58,5.5,2.58c1.7,0,3.14-.43,4.3-1.29s2.02-2.1,2.57-3.73l3.87,1.31c-.61,1.47-1.42,2.72-2.44,3.76s-2.22,1.84-3.62,2.39-2.96.83-4.68.83Z"/>
    <path class="cls-8" d="m563.03,39.6V14.29h3.7v5.72l-.16-1.03c.67-1.45,1.73-2.69,3.19-3.71s3.22-1.54,5.3-1.54c1.8,0,3.34.4,4.64,1.2s2.3,1.93,3,3.41,1.05,3.25,1.05,5.33v15.94h-3.94v-15.63c0-2.08-.43-3.76-1.28-5.04s-2.25-1.92-4.21-1.92c-2.11,0-3.86.8-5.26,2.4s-2.1,3.92-2.1,6.95v13.24h-3.94Z"/>
    <path class="cls-8" d="m601.03,40.16c-2.38,0-4.43-.54-6.16-1.62s-3.07-2.61-4.01-4.58-1.41-4.32-1.41-7.02.47-5.04,1.41-7.02,2.27-3.5,4.01-4.58,3.79-1.62,6.16-1.62c1.81,0,3.43.33,4.86,1s2.64,1.62,3.63,2.86,1.72,2.74,2.19,4.49l-4.01,1.05c-.44-1.97-1.22-3.48-2.36-4.54s-2.57-1.58-4.32-1.58c-2.33,0-4.12.86-5.38,2.59s-1.89,4.18-1.89,7.35.63,5.64,1.89,7.36,3.05,2.58,5.38,2.58c1.73,0,3.16-.51,4.29-1.54s1.91-2.5,2.37-4.44l3.98,1.12c-.38,1.28-.89,2.42-1.55,3.42s-1.43,1.85-2.33,2.55-1.91,1.24-3.05,1.61-2.37.55-3.71.55Z"/>
    <path class="cls-8" d="m619.38,10.05c-.91,0-1.68-.32-2.32-.96s-.96-1.41-.96-2.32.32-1.7.96-2.33,1.41-.95,2.32-.95,1.7.32,2.33.95.95,1.41.95,2.33-.32,1.68-.95,2.32-1.41.96-2.33.96Zm-1.97,29.55V14.29h3.94v25.31h-3.94Z"/>
    <path class="cls-8" d="m639.14,40.16c-2.41,0-4.49-.54-6.25-1.62s-3.11-2.61-4.07-4.58-1.43-4.31-1.43-7,.48-5.05,1.43-7.03,2.3-3.52,4.03-4.59,3.77-1.62,6.12-1.62c1.34,0,2.69.21,4.04.64s2.59,1.17,3.7,2.23,2.02,2.5,2.7,4.34,1.02,4.15,1.02,6.95h-20.51v-3.19h17.09l-1.12,1.48c-.08-2.22-.44-4-1.08-5.34s-1.47-2.32-2.5-2.92-2.16-.9-3.41-.9c-1.48,0-2.77.39-3.84,1.16s-1.91,1.9-2.48,3.39-.87,3.3-.87,5.44c0,3.16.64,5.59,1.93,7.31s3.12,2.58,5.5,2.58c1.7,0,3.14-.43,4.3-1.29s2.02-2.1,2.57-3.73l3.87,1.31c-.61,1.47-1.42,2.72-2.44,3.76s-2.22,1.84-3.62,2.39-2.96.83-4.68.83Z"/>
    <path class="cls-8" d="m665.03,40.16c-1.83,0-3.49-.3-4.98-.9s-2.73-1.52-3.71-2.74-1.64-2.79-1.97-4.68l4.12-.8c.17,1.98.85,3.46,2.03,4.43s2.66,1.45,4.44,1.45,3.17-.45,4.22-1.34,1.57-1.98,1.57-3.26c0-1.09-.37-1.96-1.11-2.6s-1.82-1.09-3.22-1.36l-3.07-.59c-.83-.16-1.69-.38-2.58-.66s-1.72-.67-2.5-1.17-1.4-1.16-1.88-1.97-.71-1.84-.71-3.07c0-1.66.43-3.01,1.3-4.07s2.02-1.84,3.45-2.36,2.97-.77,4.63-.77c1.81,0,3.39.28,4.73.84s2.44,1.37,3.28,2.41,1.41,2.31,1.69,3.8l-4.34.87c-.11-.95-.36-1.78-.76-2.48s-.98-1.25-1.73-1.63-1.74-.57-2.94-.57c-1.45,0-2.7.3-3.75.91s-1.57,1.53-1.57,2.77c0,.69.18,1.27.53,1.76s.88.89,1.59,1.21,1.61.6,2.68.83l3.12.66c1.31.27,2.52.66,3.63,1.18s2,1.25,2.67,2.17,1.01,2.14,1.01,3.66c0,1.67-.42,3.11-1.25,4.32s-1.99,2.14-3.47,2.78-3.19.96-5.14.96Z"/>
    <path class="cls-8" d="m680.97,47.08l-1.41-2.02.77-.56c.88-.64,1.52-1.28,1.95-1.91s.63-1.36.63-2.17v-1.1l.56.84c-.97,0-1.79-.33-2.47-.98s-1.02-1.48-1.02-2.48.34-1.86,1.03-2.54,1.52-1.02,2.48-1.02c.56,0,1.13.14,1.7.42s1.05.75,1.43,1.39.57,1.53.57,2.64c0,1.47-.41,2.97-1.23,4.5s-2.07,2.9-3.76,4.1l-1.24.89Z"/>
    <path class="cls-8" d="m714.44,40.16c-1.83,0-3.49-.3-4.98-.9s-2.73-1.52-3.71-2.74-1.64-2.79-1.97-4.68l4.12-.8c.17,1.98.85,3.46,2.03,4.43s2.66,1.45,4.44,1.45,3.17-.45,4.22-1.34,1.57-1.98,1.57-3.26c0-1.09-.37-1.96-1.11-2.6s-1.82-1.09-3.22-1.36l-3.07-.59c-.83-.16-1.69-.38-2.58-.66s-1.72-.67-2.5-1.17-1.4-1.16-1.88-1.97-.71-1.84-.71-3.07c0-1.66.43-3.01,1.3-4.07s2.02-1.84,3.45-2.36,2.97-.77,4.63-.77c1.81,0,3.39.28,4.73.84s2.44,1.37,3.28,2.41,1.41,2.31,1.69,3.8l-4.34.87c-.11-.95-.36-1.78-.76-2.48s-.98-1.25-1.73-1.63-1.74-.57-2.94-.57c-1.45,0-2.7.3-3.75.91s-1.57,1.53-1.57,2.77c0,.69.18,1.27.53,1.76s.88.89,1.59,1.21,1.61.6,2.68.83l3.12.66c1.31.27,2.52.66,3.63,1.18s2,1.25,2.67,2.17,1.01,2.14,1.01,3.66c0,1.67-.42,3.11-1.25,4.32s-1.99,2.14-3.47,2.78-3.19.96-5.14.96Z"/>
    <path class="cls-8" d="m737.74,40.16c-1.69,0-3.15-.32-4.39-.97s-2.2-1.54-2.87-2.66-1.01-2.4-1.01-3.82c0-1.52.45-2.91,1.34-4.2s2.27-2.31,4.14-3.08,4.26-1.16,7.18-1.16h4.22l-.42.42v-1.38c0-2.03-.41-3.59-1.22-4.68s-2.17-1.63-4.08-1.63c-1.8,0-3.18.46-4.15,1.39s-1.48,2.18-1.55,3.74l-4.43-1.01c.14-1.36.66-2.6,1.56-3.71s2.1-2.01,3.61-2.68,3.25-1.01,5.24-1.01,3.71.39,5,1.16,2.24,1.89,2.85,3.34.91,3.2.91,5.25v11.55c0,.52.07.86.22,1.03s.46.26.95.26h1.43v3.28h-2.51c-1.06,0-1.95-.33-2.67-1s-1.08-1.5-1.08-2.52v-1.78h.59c-.25.66-.61,1.32-1.08,2s-1.06,1.31-1.78,1.9-1.57,1.06-2.57,1.42-2.14.54-3.43.54Zm.89-3.28c1.3,0,2.5-.32,3.61-.96s2-1.64,2.68-3.01,1.02-3.14,1.02-5.33v-.21h-3.96c-2.08,0-3.71.27-4.91.82s-2.04,1.22-2.54,2.03-.75,1.61-.75,2.4.18,1.52.54,2.16.9,1.15,1.62,1.54,1.62.57,2.7.57Z"/>
    <path class="cls-8" d="m757.71,39.6V14.29h3.7v4.34c.59-1.31,1.58-2.46,2.95-3.43s3.01-1.46,4.9-1.46c1.67,0,3.13.46,4.37,1.37s2.17,2.21,2.78,3.88c.8-1.55,1.89-2.81,3.27-3.79s3-1.46,4.84-1.46c2.42,0,4.34.88,5.75,2.64s2.12,4.19,2.12,7.3v15.94h-3.94v-15.63c0-1.44-.15-2.68-.45-3.71s-.79-1.84-1.46-2.4-1.61-.84-2.78-.84c-1.28,0-2.43.36-3.46,1.09s-1.83,1.79-2.41,3.18-.88,3.09-.88,5.09v13.24h-3.94v-15.63c0-1.44-.15-2.68-.45-3.71s-.78-1.84-1.45-2.4-1.59-.84-2.74-.84c-1.28,0-2.44.36-3.47,1.08s-1.84,1.77-2.44,3.16-.89,3.09-.89,5.11v13.24h-3.94Z"/>
    <path class="cls-8" d="m809.86,40.16c-2.41,0-4.49-.54-6.25-1.62s-3.11-2.61-4.07-4.58-1.43-4.31-1.43-7,.48-5.05,1.43-7.03,2.3-3.52,4.03-4.59,3.77-1.62,6.12-1.62c1.34,0,2.69.21,4.04.64s2.59,1.17,3.7,2.23,2.02,2.5,2.7,4.34,1.02,4.15,1.02,6.95h-20.51v-3.19h17.09l-1.12,1.48c-.08-2.22-.44-4-1.08-5.34s-1.47-2.32-2.5-2.92-2.16-.9-3.41-.9c-1.48,0-2.77.39-3.84,1.16s-1.91,1.9-2.48,3.39-.87,3.3-.87,5.44c0,3.16.64,5.59,1.93,7.31s3.12,2.58,5.5,2.58c1.7,0,3.14-.43,4.3-1.29s2.02-2.1,2.57-3.73l3.87,1.31c-.61,1.47-1.42,2.72-2.44,3.76s-2.22,1.84-3.62,2.39-2.96.83-4.68.83Z"/>
    <path class="cls-8" d="m845.78,40.16c-1.69,0-3.15-.32-4.39-.97s-2.2-1.54-2.87-2.66-1.01-2.4-1.01-3.82c0-1.52.45-2.91,1.34-4.2s2.27-2.31,4.14-3.08,4.26-1.16,7.18-1.16h4.22l-.42.42v-1.38c0-2.03-.41-3.59-1.22-4.68s-2.17-1.63-4.08-1.63c-1.8,0-3.18.46-4.15,1.39s-1.48,2.18-1.55,3.74l-4.43-1.01c.14-1.36.66-2.6,1.56-3.71s2.1-2.01,3.61-2.68,3.25-1.01,5.24-1.01,3.71.39,5,1.16,2.24,1.89,2.85,3.34.91,3.2.91,5.25v11.55c0,.52.07.86.22,1.03s.46.26.95.26h1.43v3.28h-2.51c-1.06,0-1.95-.33-2.67-1s-1.08-1.5-1.08-2.52v-1.78h.59c-.25.66-.61,1.32-1.08,2s-1.06,1.31-1.78,1.9-1.57,1.06-2.57,1.42-2.14.54-3.43.54Zm.89-3.28c1.3,0,2.5-.32,3.61-.96s2-1.64,2.68-3.01,1.02-3.14,1.02-5.33v-.21h-3.96c-2.08,0-3.71.27-4.91.82s-2.04,1.22-2.54,2.03-.75,1.61-.75,2.4.18,1.52.54,2.16.9,1.15,1.62,1.54,1.62.57,2.7.57Z"/>
    <path class="cls-8" d="m865.75,39.6V14.29h3.7v4.34c.59-1.31,1.58-2.46,2.95-3.43s3.01-1.46,4.9-1.46c1.67,0,3.13.46,4.37,1.37s2.17,2.21,2.78,3.88c.8-1.55,1.89-2.81,3.27-3.79s3-1.46,4.84-1.46c2.42,0,4.34.88,5.75,2.64s2.12,4.19,2.12,7.3v15.94h-3.94v-15.63c0-1.44-.15-2.68-.45-3.71s-.79-1.84-1.46-2.4-1.61-.84-2.78-.84c-1.28,0-2.43.36-3.46,1.09s-1.83,1.79-2.41,3.18-.88,3.09-.88,5.09v13.24h-3.94v-15.63c0-1.44-.15-2.68-.45-3.71s-.78-1.84-1.45-2.4-1.59-.84-2.74-.84c-1.28,0-2.44.36-3.47,1.08s-1.84,1.77-2.44,3.16-.89,3.09-.89,5.11v13.24h-3.94Z"/>
    <path class="cls-8" d="m907.64,48.74V14.29h3.7v5.27l-.12-.38c.69-1.84,1.83-3.21,3.42-4.11s3.29-1.35,5.09-1.35c2.06,0,3.88.54,5.44,1.62s2.78,2.61,3.66,4.59,1.31,4.33,1.31,7.03-.44,5.04-1.32,7.02-2.11,3.5-3.67,4.57-3.37,1.61-5.41,1.61c-1.66,0-3.3-.41-4.92-1.24s-2.85-2.23-3.68-4.2l.35-.19v14.2h-3.84Zm11.02-11.86c2.09,0,3.81-.86,5.16-2.59s2.02-4.2,2.02-7.42-.65-5.55-1.95-7.28-3.02-2.59-5.18-2.59c-1.31,0-2.52.34-3.62,1.03s-1.98,1.76-2.64,3.21-.98,3.33-.98,5.62c0,3.39.7,5.91,2.11,7.55s3.1,2.46,5.09,2.46Z"/>
    <path class="cls-8" d="m939.72,39.6c-1,0-1.88-.33-2.62-1s-1.12-1.5-1.12-2.52V4.44h3.94v30.59c0,.52.07.86.22,1.03s.46.26.95.26h2.46v3.28h-3.82Z"/>
    <path class="cls-8" d="m950.74,10.05c-.91,0-1.68-.32-2.32-.96s-.96-1.41-.96-2.32.32-1.7.96-2.33,1.41-.95,2.32-.95,1.7.32,2.33.95.95,1.41.95,2.33-.32,1.68-.95,2.32-1.41.96-2.33.96Zm-1.97,29.55V14.29h3.94v25.31h-3.94Z"/>
    <path class="cls-8" d="m965.97,39.6c-1,0-1.88-.33-2.62-1s-1.12-1.5-1.12-2.52v-18.52h-4.08v-3.28h4.08v-5.3l3.94-.84v6.14h5.02v3.28h-5.02v17.46c0,.52.07.86.22,1.03s.46.26.95.26h3.87v3.28h-5.23Z"/>
    <path class="cls-8" d="m984.89,40.16c-1.77,0-3.3-.4-4.59-1.2s-2.3-1.94-3-3.42-1.05-3.26-1.05-5.32v-15.94h3.94v15.63c0,2.06.39,3.74,1.17,5.03s2.19,1.93,4.22,1.93c1.52,0,2.83-.39,3.94-1.17s1.97-1.95,2.59-3.52.93-3.52.93-5.86v-12.05h3.94v25.31h-3.7v-5.95l.16,1.03c-.66,1.56-1.71,2.87-3.18,3.91s-3.25,1.57-5.36,1.57Z"/>
    <path class="cls-8" d="m1013.2,40.16c-2.05,0-3.86-.54-5.43-1.62s-2.79-2.61-3.67-4.59-1.31-4.33-1.31-7.03.44-5.04,1.32-7.02,2.11-3.5,3.67-4.57,3.37-1.61,5.41-1.61c1.66,0,3.3.41,4.92,1.24s2.85,2.23,3.68,4.2l-.45.19V4.44h3.94v35.16h-3.7v-5.27l.12.38c-.69,1.84-1.83,3.21-3.42,4.11s-3.29,1.35-5.09,1.35Zm1.03-3.28c1.33,0,2.54-.34,3.63-1.03s1.97-1.76,2.62-3.22.98-3.33.98-5.61c0-3.41-.7-5.93-2.11-7.56s-3.1-2.45-5.09-2.45c-2.09,0-3.81.86-5.16,2.59s-2.02,4.2-2.02,7.42.65,5.55,1.95,7.28,3.02,2.59,5.18,2.59Z"/>
    <path class="cls-8" d="m1043.08,40.16c-2.41,0-4.49-.54-6.25-1.62s-3.11-2.61-4.07-4.58-1.43-4.31-1.43-7,.48-5.05,1.43-7.03,2.3-3.52,4.03-4.59,3.77-1.62,6.12-1.62c1.34,0,2.69.21,4.04.64s2.59,1.17,3.7,2.23,2.02,2.5,2.7,4.34,1.02,4.15,1.02,6.95h-20.51v-3.19h17.09l-1.12,1.48c-.08-2.22-.44-4-1.08-5.34s-1.47-2.32-2.5-2.92-2.16-.9-3.41-.9c-1.48,0-2.77.39-3.84,1.16s-1.91,1.9-2.48,3.39-.87,3.3-.87,5.44c0,3.16.64,5.59,1.93,7.31s3.12,2.58,5.5,2.58c1.7,0,3.14-.43,4.3-1.29s2.02-2.1,2.57-3.73l3.87,1.31c-.61,1.47-1.42,2.72-2.44,3.76s-2.22,1.84-3.62,2.39-2.96.83-4.68.83Z"/>
  </g>
  <line class="cls-6" x1="70.81" y1="298.8" x2="70.81" y2="82.8"/>
  <line class="cls-6" x1="70.81" y1="298.8" x2="99.37" y2="298.8"/>
  <line class="cls-6" x1="70.81" y1="136.8" x2="99.37" y2="136.8"/>
  <line class="cls-6" x1="70.81" y1="82.8" x2="99.37" y2="82.8"/>
  <line class="cls-6" x1="70.81" y1="244.8" x2="99.37" y2="244.8"/>
  <g class="cls-9">
    <g>
      <line class="cls-1" x1="151.4" y1="82.8" x2="151.4" y2="88.8"/>
      <line class="cls-4" x1="151.4" y1="100.8" x2="151.4" y2="286.8"/>
      <line class="cls-1" x1="151.4" y1="292.8" x2="151.4" y2="298.8"/>
    </g>
  </g>
  <g class="cls-9">
    <g>
      <line class="cls-1" x1="232.24" y1="82.8" x2="232.24" y2="88.8"/>
      <line class="cls-4" x1="232.24" y1="100.8" x2="232.24" y2="286.8"/>
      <line class="cls-1" x1="232.24" y1="292.8" x2="232.24" y2="298.8"/>
    </g>
  </g>
  <g class="cls-9">
    <g>
      <line class="cls-1" x1="313.08" y1="82.8" x2="313.08" y2="88.8"/>
      <line class="cls-4" x1="313.08" y1="100.8" x2="313.08" y2="286.8"/>
      <line class="cls-1" x1="313.08" y1="292.8" x2="313.08" y2="298.8"/>
    </g>
  </g>
  <g class="cls-9">
    <g>
      <line class="cls-1" x1="393.91" y1="82.8" x2="393.91" y2="88.8"/>
      <line class="cls-4" x1="393.91" y1="100.8" x2="393.91" y2="286.8"/>
      <line class="cls-1" x1="393.91" y1="292.8" x2="393.91" y2="298.8"/>
    </g>
  </g>
  <g class="cls-9">
    <g>
      <line class="cls-1" x1="474.75" y1="82.8" x2="474.75" y2="88.8"/>
      <line class="cls-4" x1="474.75" y1="100.8" x2="474.75" y2="286.8"/>
      <line class="cls-1" x1="474.75" y1="292.8" x2="474.75" y2="298.8"/>
    </g>
  </g>
  <g class="cls-9">
    <g>
      <line class="cls-1" x1="555.58" y1="82.8" x2="555.58" y2="88.8"/>
      <line class="cls-4" x1="555.58" y1="100.8" x2="555.58" y2="286.8"/>
      <line class="cls-1" x1="555.58" y1="292.8" x2="555.58" y2="298.8"/>
    </g>
  </g>
  <g class="cls-9">
    <g>
      <line class="cls-1" x1="636.42" y1="82.8" x2="636.42" y2="88.8"/>
      <line class="cls-4" x1="636.42" y1="100.8" x2="636.42" y2="286.8"/>
      <line class="cls-1" x1="636.42" y1="292.8" x2="636.42" y2="298.8"/>
    </g>
  </g>
  <g class="cls-9">
    <g>
      <line class="cls-1" x1="717.26" y1="82.8" x2="717.26" y2="88.8"/>
      <line class="cls-4" x1="717.26" y1="100.8" x2="717.26" y2="286.8"/>
      <line class="cls-1" x1="717.26" y1="292.8" x2="717.26" y2="298.8"/>
    </g>
  </g>
  <g class="cls-9">
    <g>
      <line class="cls-1" x1="798.09" y1="82.8" x2="798.09" y2="88.8"/>
      <line class="cls-4" x1="798.09" y1="100.8" x2="798.09" y2="286.8"/>
      <line class="cls-1" x1="798.09" y1="292.8" x2="798.09" y2="298.8"/>
    </g>
  </g>
  <g class="cls-9">
    <g>
      <line class="cls-1" x1="878.93" y1="82.8" x2="878.93" y2="88.8"/>
      <line class="cls-4" x1="878.93" y1="100.8" x2="878.93" y2="286.8"/>
      <line class="cls-1" x1="878.93" y1="292.8" x2="878.93" y2="298.8"/>
    </g>
  </g>
  <g class="cls-9">
    <g>
      <line class="cls-1" x1="959.77" y1="82.8" x2="959.77" y2="88.8"/>
      <line class="cls-4" x1="959.77" y1="100.8" x2="959.77" y2="286.8"/>
      <line class="cls-1" x1="959.77" y1="292.8" x2="959.77" y2="298.8"/>
    </g>
  </g>
  <g class="cls-9">
    <g>
      <line class="cls-1" x1="1040.6" y1="82.8" x2="1040.6" y2="88.8"/>
      <line class="cls-4" x1="1040.6" y1="100.8" x2="1040.6" y2="286.8"/>
      <line class="cls-1" x1="1040.6" y1="292.8" x2="1040.6" y2="298.8"/>
    </g>
  </g>
  <g class="cls-9">
    <g>
      <line class="cls-1" x1="1121.44" y1="82.8" x2="1121.44" y2="88.8"/>
      <line class="cls-4" x1="1121.44" y1="100.8" x2="1121.44" y2="286.8"/>
      <line class="cls-1" x1="1121.44" y1="292.8" x2="1121.44" y2="298.8"/>
    </g>
  </g>
  <g class="cls-9">
    <g>
      <line class="cls-1" x1="1202.28" y1="82.8" x2="1202.28" y2="88.8"/>
      <line class="cls-4" x1="1202.28" y1="100.8" x2="1202.28" y2="286.8"/>
      <line class="cls-1" x1="1202.28" y1="292.8" x2="1202.28" y2="298.8"/>
    </g>
  </g>
  <g class="cls-9">
    <g>
      <line class="cls-1" x1="1283.11" y1="82.8" x2="1283.11" y2="88.8"/>
      <line class="cls-4" x1="1283.11" y1="100.8" x2="1283.11" y2="286.8"/>
      <line class="cls-1" x1="1283.11" y1="292.8" x2="1283.11" y2="298.8"/>
    </g>
  </g>
  <g class="cls-9">
    <g>
      <line class="cls-1" x1="1363.95" y1="82.8" x2="1363.95" y2="88.8"/>
      <line class="cls-4" x1="1363.95" y1="100.8" x2="1363.95" y2="286.8"/>
      <line class="cls-1" x1="1363.95" y1="292.8" x2="1363.95" y2="298.8"/>
    </g>
  </g>
  <g class="cls-9">
    <g>
      <line class="cls-1" x1="1444.78" y1="82.8" x2="1444.78" y2="88.8"/>
      <line class="cls-4" x1="1444.78" y1="100.8" x2="1444.78" y2="286.8"/>
      <line class="cls-1" x1="1444.78" y1="292.8" x2="1444.78" y2="298.8"/>
    </g>
  </g>
  <g class="cls-9">
    <g>
      <line class="cls-1" x1="1525.62" y1="82.8" x2="1525.62" y2="88.8"/>
      <line class="cls-4" x1="1525.62" y1="100.8" x2="1525.62" y2="286.8"/>
      <line class="cls-1" x1="1525.62" y1="292.8" x2="1525.62" y2="298.8"/>
    </g>
  </g>
  <g class="cls-9">
    <g>
      <line class="cls-1" x1="1606.46" y1="82.8" x2="1606.46" y2="88.8"/>
      <line class="cls-4" x1="1606.46" y1="100.8" x2="1606.46" y2="286.8"/>
      <line class="cls-1" x1="1606.46" y1="292.8" x2="1606.46" y2="298.8"/>
    </g>
  </g>
  <g class="cls-9">
    <g>
      <line class="cls-1" x1="1687.29" y1="82.8" x2="1687.29" y2="88.8"/>
      <line class="cls-4" x1="1687.29" y1="100.8" x2="1687.29" y2="286.8"/>
      <line class="cls-1" x1="1687.29" y1="292.8" x2="1687.29" y2="298.8"/>
    </g>
  </g>
  <g class="cls-9">
    <g>
      <line class="cls-1" x1="1768.13" y1="82.8" x2="1768.13" y2="88.8"/>
      <line class="cls-4" x1="1768.13" y1="100.8" x2="1768.13" y2="286.8"/>
      <line class="cls-1" x1="1768.13" y1="292.8" x2="1768.13" y2="298.8"/>
    </g>
  </g>
  <g class="cls-9">
    <g>
      <line class="cls-1" x1="1768.13" y1="136.8" x2="1762.13" y2="136.8"/>
      <line class="cls-2" x1="1750.18" y1="136.8" x2="82.54" y2="136.8"/>
      <line class="cls-1" x1="76.57" y1="136.8" x2="70.57" y2="136.8"/>
    </g>
  </g>
  <g class="cls-9">
    <g>
      <line class="cls-1" x1="1768.13" y1="244.8" x2="1762.13" y2="244.8"/>
      <line class="cls-2" x1="1750.18" y1="244.8" x2="82.54" y2="244.8"/>
      <line class="cls-1" x1="76.57" y1="244.8" x2="70.57" y2="244.8"/>
    </g>
  </g>
  <g class="cls-9">
    <g>
      <line class="cls-1" x1="1768.13" y1="82.8" x2="1762.13" y2="82.8"/>
      <line class="cls-2" x1="1750.18" y1="82.8" x2="82.54" y2="82.8"/>
      <line class="cls-1" x1="76.57" y1="82.8" x2="70.57" y2="82.8"/>
    </g>
  </g>
  <g class="cls-9">
    <g>
      <line class="cls-1" x1="1768.13" y1="298.8" x2="1762.13" y2="298.8"/>
      <line class="cls-2" x1="1750.18" y1="298.8" x2="82.54" y2="298.8"/>
      <line class="cls-1" x1="76.57" y1="298.8" x2="70.57" y2="298.8"/>
    </g>
  </g>
  <g>
    <line class="cls-5" x1="70.81" y1="190.8" x2="1791.03" y2="190.8"/>
    <polygon class="cls-8" points="1785.41 199.04 1816.14 190.81 1785.41 182.56 1785.41 199.04"/>
  </g>
  <path class="cls-3" d="m70.57,150.05h0l6.22,7.26,7.46,10.28,9.95,15.47,21.13,33.35,7.46,9.9,6.22,6.86,5.8,5.02,4.97,3.11,4.56,1.83,4.14.77,3.73-.04,3.73-.73,4.14-1.61,4.56-2.72,5.39-4.41,5.8-6.08,6.63-8.38,8.29-12.13,13.67-22.01,12.43-19.37,7.87-10.63,6.63-7.41,5.8-5.06,5.39-3.37,4.56-1.78,3.73-.69h3.73s3.73.69,3.73.69l4.14,1.57,4.56,2.68,5.39,4.37,5.8,6.03,6.63,8.34,8.29,12.09,13.26,21.32,12.85,20.08,7.87,10.67,6.63,7.45,5.8,5.11,5.39,3.42,4.56,1.82,4.14.77,3.73-.04,3.73-.73,4.14-1.62,4.56-2.72,5.39-4.42,5.8-6.08,6.63-8.39,8.29-12.13,13.67-22.01,12.43-19.37,7.87-10.62,6.63-7.4,5.8-5.06,5.39-3.36,4.56-1.77,3.73-.69h3.73s3.73.71,3.73.71l4.14,1.58,4.56,2.68,5.39,4.38,5.8,6.04,6.63,8.35,8.29,12.1,13.26,21.32,12.85,20.08,7.87,10.67,6.63,7.45,5.8,5.1,5.39,3.41,4.56,1.81,4.14.76,3.73-.05,3.73-.74,4.14-1.62,4.56-2.73,5.39-4.43,5.8-6.09,6.63-8.4,8.29-12.14,13.67-22.01,12.43-19.36,7.87-10.62,6.63-7.39,5.8-5.05,5.39-3.35,4.56-1.76,3.73-.68h3.73s3.73.72,3.73.72l4.14,1.59,4.56,2.69,5.39,4.38,5.8,6.05,6.63,8.36,8.29,12.1,13.26,21.32,12.85,20.07,7.87,10.66,6.63,7.44,5.8,5.09,5.39,3.4,4.56,1.8,4.14.75,3.73-.05,3.73-.75,4.14-1.63,4.56-2.74,5.39-4.44,5.8-6.1,6.63-8.4,8.29-12.14,13.67-22.02,12.43-19.36,7.87-10.61,6.63-7.38,5.8-5.04,5.39-3.34,4.56-1.76,3.73-.68,3.73.02,3.73.71,4.14,1.59,4.56,2.7,5.39,4.39,5.8,6.06,6.63,8.36,8.29,12.11,13.26,21.33,12.85,20.06,7.87,10.65,6.63,7.43,5.8,5.09,5.39,3.39,4.56,1.8,4.14.75,3.73-.06,3.73-.75,4.14-1.64,4.56-2.74,5.39-4.44,5.8-6.11,6.63-8.41,8.29-12.15,13.67-22.02,12.43-19.35,7.87-10.6,6.63-7.38,5.8-5.03,4.97-3.13,4.56-1.84,4.14-.79,3.73.02,3.73.72,4.14,1.6,4.56,2.7,5.39,4.4,5.8,6.06,6.63,8.37,8.29,12.11,13.26,21.33,12.85,20.06,7.87,10.64,6.63,7.42,5.8,5.08,5.39,3.38,4.56,1.79,4.14.74,3.73-.07,3.73-.76,4.14-1.64,4.56-2.75,5.39-4.45,5.8-6.11,6.63-8.42,8.29-12.15,13.67-22.02,12.43-19.35,7.87-10.6,6.63-7.37,5.8-5.02,4.97-3.12,4.56-1.83,4.14-.78,3.73.03,3.73.72,4.14,1.61,4.56,2.71,5.39,4.41,5.8,6.07,6.63,8.38,8.29,12.12,13.67,22.01,12.43,19.38,7.87,10.64,6.63,7.41,5.8,5.07,5.39,3.38,4.56,1.78,3.73.7h3.73s3.73-.68,3.73-.68l4.14-1.57,4.56-2.67,5.39-4.36,5.8-6.03,6.63-8.34,7.87-11.45,12.43-19.93,13.67-21.51,7.87-10.77,6.63-7.56,5.8-5.22,5.39-3.53,4.56-1.92,4.14-.86,3.73-.04,3.73.65,4.14,1.53,4.56,2.63,4.97,3.94,5.8,5.89,6.63,8.21,7.87,11.34,12.02,19.19,14.92,23.5,7.87,10.72,6.63,7.51,5.8,5.16,5.39,3.47,4.56,1.87,4.14.81h3.73s3.73-.69,3.73-.69l4.14-1.57,4.56-2.68,5.39-4.37,5.8-6.03,6.63-8.34,8.29-12.09,13.26-21.32,12.85-20.08,7.87-10.67,6.63-7.45,5.8-5.11,5.39-3.42,4.56-1.82,4.14-.77,3.73.04,3.73.74,4.14,1.62,4.56,2.72,5.39,4.42,5.8,6.08,6.63,8.39,8.29,12.13,13.67,22.01,12.43,19.37,7.87,10.62,4.97,5.7"/>
  <path class="cls-3" d="m70.57,161.69h0l16.58,9.23,21.96,13.32,47.24,28.92,16.99,9.16,14.09,6.65,12.43,5,11.6,3.83,10.77,2.77,10.36,1.91,9.95,1.11,9.95.38,9.53-.32,9.95-1.05,9.95-1.76,10.36-2.56,10.77-3.42,11.6-4.47,12.85-5.81,14.5-7.49,17.4-9.98,26.11-16.12,33.98-20.79,17.4-9.59,14.5-7.04,12.85-5.34,11.6-3.99,10.77-2.93,10.36-2.07,9.95-1.27,9.95-.54,9.53.16,9.95.88,9.95,1.6,10.36,2.4,10.77,3.26,11.6,4.32,12.43,5.47,14.09,7.1,16.99,9.57,23.21,14.18,41.85,25.66,17.4,9.5,14.5,6.94,12.85,5.23,11.6,3.89,10.77,2.83,10.36,1.96,9.95,1.16,9.95.44,9.53-.27,9.95-.99,9.95-1.71,10.36-2.51,10.77-3.36,11.6-4.42,12.85-5.76,14.5-7.44,17.4-9.94,25.69-15.84,35.22-21.57,17.4-9.58,14.5-7.04,12.85-5.34,11.6-3.99,10.77-2.93,10.36-2.06,9.95-1.26,9.95-.54,9.53.17,9.95.89,9.95,1.61,10.36,2.41,10.77,3.27,11.6,4.33,12.43,5.47,14.09,7.1,16.99,9.57,23.62,14.44,41.02,25.16,17.4,9.52,14.5,6.96,12.85,5.26,11.6,3.91,10.77,2.85,10.36,1.99,9.95,1.18,9.95.46,9.53-.25,9.95-.97,9.95-1.68,10.36-2.49,10.77-3.34,11.6-4.4,12.85-5.74,14.5-7.42,17.4-9.92,25.28-15.57,36.05-22.09,17.4-9.58,14.5-7.03,12.85-5.33,11.6-3.98,10.77-2.92,10.36-2.06,9.95-1.26,9.95-.53,9.53.18,9.95.9,9.95,1.61,10.36,2.42,10.77,3.27,11.6,4.33,12.85,5.67,14.09,7.14,16.99,9.6,23.62,14.46,40.2,24.65,14.5,8.03"/>
  <path class="cls-7" d="m70.57,121.06h0l6.63,11.37,7.87,15.42,10.77,23.3,20.72,45.25,8.29,15.79,6.63,10.88,6.22,8.49,5.39,5.87,5.39,4.39,4.56,2.53,4.14,1.35,3.73.45,3.73-.25,3.73-.93,4.14-1.79,4.97-3.12,5.8-4.82,7.04-7.25,9.12-10.94,23.62-29.09,7.46-7.25,6.22-4.72,5.39-2.95,4.56-1.59,4.14-.69,4.14.04,4.14.76,4.14,1.48,4.97,2.68,5.39,3.93,6.63,6.13,7.87,8.75,11.6,14.56,14.5,17.95,7.46,7.8,6.63,5.51,5.39,3.24,4.56,1.76,4.14.75,3.73-.06,3.73-.77,3.73-1.5,4.14-2.53,4.97-4.21,5.39-5.97,5.8-7.98,6.22-10.15,7.46-14.02,9.12-19.12,29.84-64.25,7.46-13.13,6.22-9.22,5.8-6.96,5.39-4.91,4.97-3.14,4.14-1.58,3.73-.6,3.73.16,3.73.91,4.14,1.85,4.56,3,5.39,4.75,6.22,6.89,7.04,9.28,9.53,14.22,22.38,33.98,7.46,9.44,6.63,6.92,5.8,4.71,5.39,3.14,4.56,1.69,4.14.75h4.14s4.14-.7,4.14-.7l4.56-1.57,4.97-2.6,5.8-4.06,7.46-6.54,9.95-10.2,18.23-18.89,7.46-6.18,6.22-3.87,4.97-2.07,4.14-.94,4.14-.18,3.73.53,3.73,1.2,4.14,2.13,4.56,3.32,5.39,5.21,5.8,7.1,6.22,9.17,7.04,12.08,8.7,16.81,15.33,32.01,12.02,24.15,7.87,13.95,6.63,10.01,5.8,7.17,5.39,5.17,4.97,3.4,4.14,1.78,3.73.76h3.32s3.73-.72,3.73-.72l3.73-1.51,4.14-2.56,4.97-4.23,5.39-5.91,6.22-8.32,7.04-11.03,9.12-16.03,26.11-47.03,7.46-11.14,6.63-8.29,5.8-5.8,5.39-4.08,4.97-2.59,4.14-1.3,4.14-.52,4.14.23,4.14.95,4.56,1.82,5.39,3.08,6.63,4.96,8.7,7.9,25.28,23.87,6.63,4.51,5.39,2.63,4.56,1.38,4.14.53,4.14-.22,4.14-.98,4.14-1.77,4.56-2.85,5.39-4.57,5.8-6.3,6.22-8.2,7.04-10.84,9.12-15.82,29.42-52.54,7.04-9.97,5.8-6.73,5.39-4.86,4.97-3.18,4.14-1.63,3.73-.65,3.32.09,3.73.85,3.73,1.64,4.14,2.74,4.97,4.5,5.39,6.29,5.8,8.26,6.63,11.06,8.29,15.71,12.43,25.75,15.33,31.36,8.29,15,7.04,10.95,6.22,8,5.8,5.89,5.39,4.03,4.56,2.3,4.14,1.21,3.73.38,3.73-.27,4.14-1.02,4.56-1.94,5.39-3.28,6.63-5.27,8.29-7.99,28.18-28.47,6.63-4.72,5.39-2.77,4.56-1.5,4.14-.64,4.14.09,4.14.83,4.14,1.57,4.56,2.58,5.39,4.15,6.22,6.16,6.63,7.99,8.29,11.59,12.85,19.87,13.26,20.05,7.87,10.28,6.22,6.7,5.8,4.85,4.97,2.93,4.14,1.5,3.73.58,3.73-.18,3.73-.95,3.73-1.72,4.14-2.81,4.97-4.59,5.39-6.41,5.8-8.44,6.63-11.37,7.87-15.42,10.77-23.3,20.72-45.24,8.29-15.79,6.63-10.88,6.22-8.49,5.39-5.86,5.39-4.39,4.56-2.53,4.14-1.35,3.73-.45,3.73.25,3.73.93,4.14,1.79,4.97,3.12,5.8,4.82,7.04,7.25,9.12,10.94,23.62,29.09,7.46,7.25,6.22,4.72,5.39,2.94,4.56,1.59,4.14.69,4.14-.04,4.14-.77,4.14-1.48,4.97-2.68,5.39-3.94,6.63-6.13,7.87-8.75,11.6-14.56,14.5-17.95,7.46-7.79,6.63-5.5,5.39-3.24,4.56-1.76,4.14-.75,3.73.06,3.73.77,3.73,1.5,4.14,2.53,4.97,4.21,5.39,5.98,5.8,7.98,6.22,10.15,7.46,14.02,9.12,19.13,29.84,64.25,7.46,13.13.83,1.33"/>
</svg>