<?xml version="1.0" encoding="UTF-8"?>
<svg xmlns="http://www.w3.org/2000/svg" xmlns:xlink="http://www.w3.org/1999/xlink" viewBox="0 0 762.46 827.22">
  <defs>
    <style>
      .cls-1, .cls-2, .cls-3, .cls-4, .cls-5, .cls-6, .cls-7, .cls-8, .cls-9, .cls-10, .cls-11, .cls-12, .cls-13, .cls-14, .cls-15 {
        stroke-miterlimit: 10;
      }

      .cls-1, .cls-4, .cls-5, .cls-6, .cls-7, .cls-8, .cls-9, .cls-11, .cls-12, .cls-13, .cls-14 {
        stroke: #c9d1d9;
      }

      .cls-1, .cls-5, .cls-6 {
        stroke-width: 3px;
      }

      .cls-1, .cls-5, .cls-7, .cls-10, .cls-11, .cls-14, .cls-15 {
        fill: none;
      }

      .cls-2 {
        opacity: .6;
      }

      .cls-2, .cls-16, .cls-17 {
        fill: #c9d1d9;
      }

      .cls-2, .cls-3 {
        stroke: #7f7f7f;
      }

      .cls-2, .cls-3, .cls-4, .cls-7, .cls-8, .cls-9, .cls-12, .cls-13 {
        stroke-width: .75px;
      }

      .cls-3 {
        fill: url(#Unbenannter_Verlauf_2);
      }

      .cls-3, .cls-4, .cls-5, .cls-6, .cls-14 {
        opacity: .5;
      }

      .cls-4 {
        fill: url(#Unbenannter_Verlauf_5);
      }

      .cls-6 {
        fill: url(#Unbenannter_Verlauf_4);
      }

      .cls-8 {
        fill: url(#Unbenannter_Verlauf_28);
      }

      .cls-9 {
        fill: url(#Unbenannter_Verlauf_32);
      }

      .cls-10, .cls-15 {
        stroke: #307eef;
        stroke-width: 2px;
      }

      .cls-11, .cls-14 {
        stroke-width: 4px;
      }

      .cls-12 {
        fill: url(#Unbenannter_Verlauf_2-3);
      }

      .cls-13 {
        fill: url(#Unbenannter_Verlauf_2-2);
      }

      .cls-15 {
        opacity: .8;
      }

      .cls-17 {
        font-family: Roboto-Regular, Roboto;
        font-size: 48px;
      }
    </style>
    <linearGradient id="Unbenannter_Verlauf_4" data-name="Unbenannter Verlauf 4" x1="181.89" y1="480.39" x2="544.96" y2="480.39" gradientUnits="userSpaceOnUse">
      <stop offset="0" stop-color="#0d1117"/>
      <stop offset=".04" stop-color="#32373d"/>
      <stop offset=".09" stop-color="#555b61"/>
      <stop offset=".15" stop-color="#757b82"/>
      <stop offset=".21" stop-color="#8f969d"/>
      <stop offset=".28" stop-color="#a4abb3"/>
      <stop offset=".36" stop-color="#b5bcc4"/>
      <stop offset=".46" stop-color="#c0c8d0"/>
      <stop offset=".61" stop-color="#c7cfd7"/>
      <stop offset="1" stop-color="#c9d1d9"/>
    </linearGradient>
    <linearGradient id="Unbenannter_Verlauf_5" data-name="Unbenannter Verlauf 5" x1="254.42" y1="466.21" x2="472.43" y2="466.21" gradientUnits="userSpaceOnUse">
      <stop offset="0" stop-color="#0d1117"/>
      <stop offset=".04" stop-color="#32373d"/>
      <stop offset=".09" stop-color="#555b61"/>
      <stop offset=".15" stop-color="#757b82"/>
      <stop offset=".21" stop-color="#8f969d"/>
      <stop offset=".28" stop-color="#a4abb3"/>
      <stop offset=".36" stop-color="#b5bcc4"/>
      <stop offset=".46" stop-color="#c0c8d0"/>
      <stop offset=".61" stop-color="#c7cfd7"/>
      <stop offset="1" stop-color="#c9d1d9"/>
    </linearGradient>
    <linearGradient id="Unbenannter_Verlauf_32" data-name="Unbenannter Verlauf 32" x1="181.89" y1="252.42" x2="544.96" y2="252.42" gradientTransform="translate(726.84 504.83) rotate(-180)" gradientUnits="userSpaceOnUse">
      <stop offset="0" stop-color="#c9d1d9" stop-opacity=".5"/>
      <stop offset=".46" stop-color="#c4ccd4" stop-opacity=".51"/>
      <stop offset=".63" stop-color="#b6bdc5" stop-opacity=".55"/>
      <stop offset=".75" stop-color="#9ca4ab" stop-opacity=".62"/>
      <stop offset=".84" stop-color="#787f86" stop-opacity=".71"/>
      <stop offset=".92" stop-color="#4a4f56" stop-opacity=".84"/>
      <stop offset="1" stop-color="#11151b" stop-opacity=".99"/>
      <stop offset="1" stop-color="#0d1117"/>
    </linearGradient>
    <linearGradient id="Unbenannter_Verlauf_28" data-name="Unbenannter Verlauf 28" x1="254.42" y1="252.42" x2="472.43" y2="252.42" gradientUnits="userSpaceOnUse">
      <stop offset="0" stop-color="#0d1117"/>
      <stop offset=".09" stop-color="#15191f"/>
      <stop offset=".23" stop-color="#2a2f35"/>
      <stop offset=".4" stop-color="#4e545a"/>
      <stop offset=".6" stop-color="#80868e"/>
      <stop offset=".82" stop-color="#bfc7ce"/>
      <stop offset=".85" stop-color="#c9d1d9"/>
    </linearGradient>
    <linearGradient id="Unbenannter_Verlauf_2" data-name="Unbenannter Verlauf 2" x1="352.37" y1="468.26" x2="374.55" y2="468.26" gradientUnits="userSpaceOnUse">
      <stop offset="0" stop-color="#0d1117"/>
      <stop offset=".06" stop-color="#21262c"/>
      <stop offset=".21" stop-color="#545960"/>
      <stop offset=".35" stop-color="#7e848b"/>
      <stop offset=".49" stop-color="#9ea5ad"/>
      <stop offset=".63" stop-color="#b6bdc5"/>
      <stop offset=".75" stop-color="#c4ccd3"/>
      <stop offset=".85" stop-color="#c9d1d9"/>
    </linearGradient>
    <linearGradient id="Unbenannter_Verlauf_2-2" data-name="Unbenannter Verlauf 2" y1="294.91" y2="294.91" xlink:href="#Unbenannter_Verlauf_2"/>
    <linearGradient id="Unbenannter_Verlauf_2-3" data-name="Unbenannter Verlauf 2" y1="273.61" y2="273.61" xlink:href="#Unbenannter_Verlauf_2"/>
  </defs>
  <g id="Ebene_6_Kopie" data-name="Ebene 6 Kopie">
    <ellipse class="cls-1" cx="363.42" cy="252.42" rx="181.54" ry="70.95"/>
    <ellipse class="cls-1" cx="363.42" cy="637.41" rx="181.54" ry="70.95"/>
    <line class="cls-1" x1="544.96" y1="252.42" x2="544.96" y2="637.39"/>
    <line class="cls-1" x1="181.89" y1="252.42" x2="181.89" y2="637.39"/>
  </g>
  <g id="Coordinates">
    <text class="cls-17" transform="translate(729.8 557.86)"><tspan x="0" y="0">x</tspan></text>
    <text class="cls-17" transform="translate(604.04 312.72)"><tspan x="0" y="0">y</tspan></text>
    <text class="cls-17" transform="translate(351.53 27.54)"><tspan x="0" y="0">z</tspan></text>
  </g>
  <g id="rings_lines" data-name="rings, lines">
    <ellipse class="cls-7" cx="363.42" cy="252.42" rx="181.54" ry="70.95"/>
    <ellipse class="cls-7" cx="363.42" cy="637.41" rx="181.54" ry="70.95"/>
    <line class="cls-7" x1="181.89" y1="252.42" x2="181.89" y2="637.39"/>
    <line class="cls-7" x1="544.96" y1="252.42" x2="544.96" y2="637.39"/>
    <ellipse class="cls-7" cx="363.42" cy="637.39" rx="109.01" ry="42.6"/>
    <ellipse class="cls-7" cx="363.42" cy="637.39" rx="109.01" ry="42.6"/>
    <ellipse class="cls-7" cx="363.42" cy="252.42" rx="109.01" ry="42.6"/>
  </g>
  <g id="cylinder_outer" data-name="cylinder outer">
    <path class="cls-6" d="m544.96,637.39V252.42c0,39.18-81.28,70.95-181.54,70.95s-181.54-31.76-181.54-70.95v384.99c0,39.18,81.28,70.95,181.54,70.95s181.54-31.76,181.54-70.95"/>
  </g>
  <g id="cylinder_inner" data-name="cylinder inner">
    <path class="cls-4" d="m472.43,637.41V252.42c0,23.53-48.8,42.6-109.01,42.6s-109.01-19.07-109.01-42.6v384.97c0,23.53,48.8,42.6,109.01,42.6s109.01-19.07,109.01-42.6"/>
  </g>
  <g id="upper_cut" data-name="upper cut">
    <ellipse class="cls-9" cx="363.42" cy="252.42" rx="181.54" ry="70.95"/>
    <ellipse class="cls-8" cx="363.42" cy="252.42" rx="109.01" ry="42.6"/>
  </g>
  <g id="Ebene_11_Kopie" data-name="Ebene 11 Kopie">
    <path class="cls-3" d="m352.37,294.8v342.59c0,2.39,4.97,4.33,11.09,4.33s11.09-1.94,11.09-4.33v-342.59c-3.66.14-7.37.22-11.13.22s-7.42-.07-11.05-.22Z"/>
  </g>
  <g id="Ebene_11" data-name="Ebene 11">
    <ellipse class="cls-2" cx="363.46" cy="252.42" rx="11.09" ry="4.33"/>
    <g>
      <path class="cls-13" d="m374.55,294.8c-3.66.14-7.37.22-11.13.22s-7.42-.07-11.05-.22"/>
      <path class="cls-12" d="m352.37,294.8v-42.39c0,2.39,4.97,4.33,11.09,4.33s11.09-1.94,11.09-4.33v42.38"/>
    </g>
  </g>
  <g id="arrows">
    <g>
      <line class="cls-1" x1="697.7" y1="533.84" x2="574.26" y2="501.75"/>
      <polygon class="cls-16" points="694.14 523.91 723.42 540.53 689.75 540.78 694.14 523.91"/>
    </g>
    <line class="cls-1" x1="152.58" y1="392.11" x2="3.42" y2="353.33"/>
    <g>
      <line class="cls-1" x1="581.58" y1="321.57" x2="552.29" y2="338.4"/>
      <polygon class="cls-16" points="572.08 316.98 604.62 308.33 580.76 332.09 572.08 316.98"/>
    </g>
    <line class="cls-1" x1="174.55" y1="555.46" x2="240.66" y2="517.47"/>
    <line class="cls-1" x1="363.42" y1="446.93" x2="182.33" y2="399.85"/>
    <line class="cls-1" x1="152.58" y1="392.11" x2="182.33" y2="399.85"/>
    <line class="cls-1" x1="363.42" y1="446.93" x2="545.03" y2="494.15"/>
    <line class="cls-1" x1="485.65" y1="376.69" x2="552.29" y2="338.4"/>
    <line class="cls-1" x1="363.42" y1="446.93" x2="240.66" y2="517.47"/>
    <line class="cls-1" x1="363.42" y1="446.93" x2="485.65" y2="376.69"/>
    <line class="cls-1" x1="363.42" y1="777.98" x2="363.42" y2="708.36"/>
    <line class="cls-1" x1="545.03" y1="494.15" x2="574.26" y2="501.75"/>
    <line class="cls-1" x1="174.55" y1="555.46" x2="122.22" y2="585.53"/>
    <line class="cls-5" x1="363.42" y1="708.36" x2="363.46" y2="252.42"/>
  </g>
  <g id="Ebene_10" data-name="Ebene 10">
    <line class="cls-14" x1="545.03" y1="342.57" x2="261.32" y2="505.6"/>
    <line class="cls-14" x1="545.03" y1="494.15" x2="181.89" y2="399.73"/>
    <line class="cls-11" x1="3.42" y1="353.33" x2="181.89" y2="399.73"/>
    <line class="cls-11" x1="261.32" y1="505.6" x2="122.22" y2="585.53"/>
    <g>
      <line class="cls-11" x1="573.89" y1="325.99" x2="545.03" y2="342.57"/>
      <polygon class="cls-16" points="561.23 319.86 604.62 308.32 572.81 340.01 561.23 319.86"/>
    </g>
    <g>
      <line class="cls-11" x1="689.12" y1="531.61" x2="545.03" y2="494.15"/>
      <polygon class="cls-16" points="684.38 518.37 723.42 540.52 678.53 540.87 684.38 518.37"/>
    </g>
    <line class="cls-11" x1="363.42" y1="827.22" x2="363.42" y2="708.42"/>
    <g>
      <line class="cls-11" x1="363.46" y1="252.42" x2="363.46" y2="67.97"/>
      <polygon class="cls-16" points="375.08 75.9 363.46 32.53 351.84 75.9 375.08 75.9"/>
    </g>
  </g>
  <g id="Ebene_15" data-name="Ebene 15">
    <line class="cls-10" x1="363.42" y1="106.57" x2="363.42" y2="252.42"/>
    <line class="cls-15" x1="363.42" y1="295.02" x2="363.42" y2="252.42"/>
    <line class="cls-15" x1="363.42" y1="323.37" x2="363.42" y2="294.91"/>
    <line class="cls-15" x1="363.46" y1="641.73" x2="363.46" y2="323.37"/>
    <line class="cls-15" x1="363.42" y1="679.99" x2="363.42" y2="641.73"/>
    <line class="cls-15" x1="363.42" y1="708.42" x2="363.42" y2="679.97"/>
    <line class="cls-10" x1="363.42" y1="802.63" x2="363.42" y2="708.42"/>
  </g>
</svg>