<?xml version="1.0" encoding="UTF-8"?>
<svg xmlns="http://www.w3.org/2000/svg" xmlns:xlink="http://www.w3.org/1999/xlink" viewBox="0 0 762.46 615.54">
  <defs>
    <style>
      .cls-1, .cls-2 {
        stroke-width: 3px;
      }

      .cls-1, .cls-2, .cls-3 {
        fill: none;
        stroke: #c9d1d9;
      }

      .cls-1, .cls-2, .cls-3, .cls-4 {
        stroke-miterlimit: 10;
      }

      .cls-5, .cls-6 {
        fill: #c9d1d9;
      }

      .cls-2, .cls-7 {
        opacity: .5;
      }

      .cls-3 {
        stroke-width: .75px;
      }

      .cls-4 {
        fill: url(#Unbenannter_Verlauf_7);
        stroke: #7f7f7f;
      }

      .cls-6 {
        font-family: Roboto-Regular, Roboto;
        font-size: 48px;
      }
    </style>
    <radialGradient id="Unbenannter_Verlauf_7" data-name="Unbenannter Verlauf 7" cx="363.42" cy="328.11" fx="363.42" fy="328.11" r="217.8" gradientUnits="userSpaceOnUse">
      <stop offset="0" stop-color="#0d1117"/>
      <stop offset=".44" stop-color="#0e1218"/>
      <stop offset=".6" stop-color="#15191e"/>
      <stop offset=".71" stop-color="#212429"/>
      <stop offset=".8" stop-color="#323539"/>
      <stop offset=".88" stop-color="#484a4d"/>
      <stop offset=".94" stop-color="#626365"/>
      <stop offset="1" stop-color="#7f7f7f"/>
    </radialGradient>
  </defs>
  <g id="Ebene_1" data-name="Ebene 1">
    <circle class="cls-4" cx="363.42" cy="328.11" r="217.8"/>
    <g>
      <line class="cls-1" x1="363.42" y1="110.31" x2="363.42" y2="67.27"/>
      <polygon class="cls-5" points="372.14 73.21 363.43 40.69 354.7 73.21 372.14 73.21"/>
    </g>
    <circle class="cls-5" cx="363.42" cy="328.11" r="9.36"/>
    <line class="cls-1" x1="363.42" y1="615.54" x2="363.42" y2="545.91"/>
    <line class="cls-2" x1="363.42" y1="110.31" x2="363.42" y2="545.91"/>
  </g>
  <g id="Ebene_5" data-name="Ebene 5">
    <text class="cls-6" transform="translate(729.8 439.05)"><tspan x="0" y="0">x</tspan></text>
    <text class="cls-6" transform="translate(604.04 193.9)"><tspan x="0" y="0">y</tspan></text>
    <text class="cls-6" transform="translate(351.53 29.61)"><tspan x="0" y="0">z</tspan></text>
  </g>
  <g id="Signal_Flow" data-name="Signal Flow">
    <ellipse class="cls-3" cx="363.42" cy="328.34" rx="217.8" ry="85.12"/>
    <ellipse class="cls-3" cx="363.42" cy="328.11" rx="181.54" ry="70.95"/>
    <ellipse class="cls-3" cx="363.42" cy="328.11" rx="145.27" ry="56.78"/>
    <ellipse class="cls-3" cx="363.42" cy="328.11" rx="109.01" ry="42.6"/>
    <ellipse class="cls-3" cx="363.42" cy="328.11" rx="72.74" ry="28.43"/>
    <ellipse class="cls-3" cx="363.42" cy="328.11" rx="36.48" ry="14.26"/>
    <g>
      <line class="cls-1" x1="697.7" y1="415.03" x2="574.26" y2="382.93"/>
      <polygon class="cls-5" points="694.14 405.09 723.42 421.71 689.75 421.96 694.14 405.09"/>
    </g>
    <line class="cls-1" x1="152.58" y1="273.3" x2="3.42" y2="234.51"/>
    <line class="cls-1" x1="545.03" y1="375.33" x2="574.26" y2="382.93"/>
    <line class="cls-1" x1="174.55" y1="436.64" x2="122.22" y2="466.71"/>
    <g>
      <line class="cls-1" x1="581.58" y1="202.76" x2="552.29" y2="219.58"/>
      <polygon class="cls-5" points="572.08 198.16 604.62 189.51 580.76 213.27 572.08 198.16"/>
    </g>
    <line class="cls-1" x1="174.55" y1="436.64" x2="240.66" y2="398.65"/>
    <g class="cls-7">
      <line class="cls-1" x1="363.42" y1="328.11" x2="182.33" y2="281.03"/>
      <line class="cls-1" x1="152.58" y1="273.3" x2="182.33" y2="281.03"/>
      <line class="cls-1" x1="363.42" y1="328.11" x2="545.03" y2="375.33"/>
      <line class="cls-1" x1="485.65" y1="257.88" x2="552.29" y2="219.58"/>
      <line class="cls-1" x1="363.42" y1="328.11" x2="240.66" y2="398.65"/>
      <line class="cls-1" x1="363.42" y1="328.11" x2="485.65" y2="257.88"/>
    </g>
  </g>
</svg>